# vtk DataFile Version 3.0
Particle simulation
ASCII
DATASET POLYDATA
POINTS 400 float
7.80375 7.91332 0
1.16278 7.50656 1.99498
5.18885 0.878162 8.67239
4.78752 0.912992 2.4937
3.78725 9.71511 6.8766
4.378 0.478392 4.17471
1.95954 3.39232 0.355589
5.10122 9.49182 2.98667
6.01203 2.86253 0.0462776
2.25832 5.65528 5.25233
3.03958 7.81887 0.183717
2.37232 9.59727 6.443
4.31699 2.83455 9.73331
2.41721 0.933844 5.16506
1.52789 1.33224 3.15647
2.26516 5.3085 5.97637
2.85575 3.89903 9.485
3.54104 1.1645 0.380467
4.92642 6.85199 3.45973
9.63886 9.38409 3.71467
5.05644 3.98874 0.990797
2.50213 4.8895 7.09492
7.00308 4.00703 4.40003
8.35518 0.562605 8.87144
4.021 7.85897 2.05591
7.40978 4.34251 5.35537
5.51171 1.9291 8.5511
6.76274 4.83246 0.375979
5.72973 5.57233 3.01385
9.38885 8.54109 9.75331
4.81423 3.36327 5.22925
7.70844 8.58572 2.56185
7.91607 0.228946 5.73096
3.8945 1.84201 6.88106
1.67145 7.74764 7.96489
6.29228 5.48153 7.56264
4.19698 7.89047 7.3518
8.34802 7.98882 9.10223
8.03642 2.70883 7.98264
0.15593 0.745496 5.58633
7.81811 9.6161 2.14395
8.26955 0 8.62585
4.63373 1.23453 6.74457
6.59046 1.96898 0.436287
0.759477 0.129789 3.62285
7.64213 9.15327 1.74871
7.58418 8.05471 6.30644
10 5.60465 0.0645773
1.56395 2.7578 9.35709
0.938562 8.65283 0.141499
3.12999 6.35928 6.83101
3.63407 4.0261 7.43175
0 0.198035 4.88135
6.72729 4.22586 2.06077
9.01455 10 6.0425
1.96969 0.00982205 3.16696
9.69032 3.21797 6.57341
2.1593 3.53165 0.64149
1.19493 3.0214 2.52699
0 6.02211 9.03548
8.50367 6.65911 4.89549
8.50134 3.3257 7.36031
9.51915 1.88971 7.48994
4.5577 2.25905 7.29063
8.38441 5.83678 3.51673
4.63918 2.6477 3.03184
0.507859 4.95988 8.61594
2.68141 2.83227 2.32451
4.86994 0.524085 3.13831
1.70975 2.29451 0.832337
3.56729 7.34719 8.48911
3.9783 1.04389 4.3796
4.06073 1.49511 4.94491
8.42442 6.15342 7.32496
5.1907 0.478154 3.07816
6.35557 4.1107 3.81743
6.71759 6.77885 2.61368
6.6014 7.8597 5.14425
4.07744 3.00848 0.281716
7.81884 7.55317 4.04714
4.62069 7.92386 0.912988
2.14764 1.9762 8.14621
5.92078 3.46714 0.40879
5.73489 4.61905 1.72087
5.73238 4.82816 10
1.92463 2.14508 0.430121
8.27097 7.8477 3.05812
0.460895 6.54216 2.47665
7.11609 4.93761 9.80773
4.39427 1.37331 3.13593
0.86619 4.78845 2.9092
0.40658 1.42846 1.40344
1.69198 6.21276 7.13128
0.936303 8.89219 2.87434
0.846395 4.67891 0.697908
2.82952 1.63775 2.80675
8.09316 7.29849 1.7744
3.50319 4.71165 9.6545
3.4216 9.50294 0.786077
4.29589 7.8433 9.13003
9.02122 1.40762 8.87539
3.24308 7.62085 2.28331
0 4.735 1.77319
7.19535 7.60924 6.95463
2.83216 1.92629 6.51142
0.470753 8.53342 4.50807
4.90487 3.13044 4.55934
0.690548 2.17342 8.8009
6.11872 8.87265 0.62938
4.06686 9.84538 1.03237
7.25194 9.38793 1.19124
8.1123 4.87173 7.07018
8.12976 8.34513 4.01788
2.15155 8.43621 0.409075
9.36013 0.0960783 9.40847
5.7031 1.55771 0.18369
3.85932 0 2.23381
4.10903 3.58847 9.91704
6.02543 3.46131 7.8601
0.346375 4.64658 1.49381
10 6.89505 6.72068
6.87551 10 0.855724
8.14364 7.79318 5.17383
3.83069 5.89149 7.5033
7.61842 9.55252 4.93852
2.63375 3.23017 9.48856
6.07983 4.23322 2.60055
2.95427 9.47053 2.19304
5.8837 1.90491 5.43097
5.27562 8.74755 4.72964
0.550708 2.33219 6.19512
2.41798 8.08144 9.40518
5.70543 9.68299 5.48545
3.86245 7.18603 7.34842
3.75311 1.37184 3.09668
9.03153 0.18982 8.7488
7.97393 5.03703 2.10028
8.0585 1.52988 5.80415
6.47698 9.67676 2.22891
6.80572 9.70965 3.04457
0.621963 6.19927 8.73248
3.05005 0.463208 6.13123
4.88359 5.85413 9.31304
10 7.3404 5.81248
1.75726 2.38554 8.05946
7.2661 8.45657 0.745606
0 9.71493 1.27213
2.78402 1.04901 0.549636
6.32266 7.4695 6.83079
0.466432 9.44787 4.89494
7.562 0.536073 7.17412
9.57755 5.35315 2.69304
3.04395 0.0958129 1.29087
4.30687 7.89126 5.09157
5.13962 7.40993 3.95529
0.412923 6.41532 4.60633
4.39691 2.4209 8.15383
2.1713 1.83639 8.81127
7.66215 9.09689 2.0697
8.05107 6.99984 6.90842
2.5321 8.29088 2.61419
0.927222 0.216565 4.32825
8.53058 0.457925 1.64309
0.454646 9.23288 9.81681
1.36914 0 10
7.02615 9.42292 5.57454
3.79365 3.48638 3.78606
4.59201 7.8912 7.85211
0.148788 3.85598 6.55241
0 0.179856 3.32161
0.7342 8.27133 5.08052
0.819206 2.23071 1.83316
1.19661 7.27268 1.96777
2.66303 0.522956 6.98969
4.90991 6.07579 2.96813
8.88573 4.0272 3.64124
9.19678 1.15449 9.31421
1.1698 6.91506 5.14786
8.76215 10 3.37646
7.48836 5.42493 5.39029
2.4308 7.07728 6.11572
4.22453 1.52538 2.31946
3.20115 1.30454 5.95447
8.8473 3.46476 0
1.85098 9.11219 7.13192
0.896571 8.06863 2.23249
6.89986 0.284075 7.86451
7.44805 9.2782 0.0241863
1.10262 8.26076 2.14328
0.470141 9.38855 9.97777
2.65991 4.82582 7.2952
2.00121 9.68895 7.17799
5.89661 7.67735 4.30527
3.05961 1.66496 1.9852
4.47208 1.95577 9.77197
5.5668 2.45739 7.81519
3.59244 8.40317 3.68692
6.37964 5.13533 8.71244
6.65754 5.91525 9.78892
7.76501 0.945619 4.6427
9.18635 1.27487 5.69266
1.36895 3.62512 0.416817
9.14765 1.37799 3.08444
8.09039 8.90349 4.35554
6.88329 2.46979 4.88137
8.28445 6.12077 6.83837
2.85449 2.99877 9.48195
4.2997 1.13605 5.78685
9.25987 3.48772 6.72511
0.925727 1.70528 6.25531
6.01645 3.56132 0
0 6.66698 3.77667
9.30564 1.00661 1.71672
6.38227 3.40531 0
7.79864 7.42398 1.93249
7.90222 0.0587971 6.06462
7.0184 6.54938 7.85965
0.743581 2.30718 9.28836
4.87795 6.52836 2.8962
4.15909 9.99265 4.96451
7.83818 9.76728 4.59115
5.17342 9.01479 1.70563
7.22585 1.73397 4.55293
9.57177 1.51663 6.04256
1.68185 2.56328 0.683191
2.53146 9.82368 8.46898
4.90845 9.62119 8.15619
1.33603 1.97734 1.53615
7.4832 0.586528 7.37867
6.30671 0 6.44659
5.10456 1.80395 5.20592
9.75441 2.80509 2.29397
10 10 10
3.75761 0 4.85253
7.14654 9.66259 0.236138
9.12783 6.18215 6.42091
6.17676 9.55454 3.12198
3.25046 6.07704 9.12342
7.4934 0.35488 7.63099
4.99559 6.55482 4.03879
6.39803 0.438983 8.26972
2.40288 8.66614 2.36339
2.71585 3.18736 9.36788
9.14693 4.09162 0.727788
5.65699 2.83427 1.48129
4.67971 2.35549 4.72629
5.82448 7.63281 6.17499
0.107066 7.82393 5.84864
5.12628 8.45657 1.95833
2.10874 1.41262 5.73254
7.73982 4.3295 9.58913
2.59796 7.24105 4.82632
0.173616 9.68943 0.164279
0.424823 1.68973 5.94775
0.529333 2.46822 5.7621
0.284691 3.57135 9.9459
8.33569 7.66452 2.89559
2.85404 0.308506 6.73986
3.43069 8.4773 1.69153
6.56963 6.85253 0
2.90077 3.62029 5.24248
6.98616 3.93015 9.36255
9.75575 3.58266 3.8115
9.72226 9.77111 5.4157
7.44229 7.35846 3.75057
7.41339 2.62944 8.96359
2.27414 6.41585 8.21237
1.90051 2.31953 1.85498
1.84393 9.25448 7.5041
9.77218 0.0723071 3.55425
3.68694 9.78153 2.10798
0.573529 2.00149 8.32689
8.38529 4.07468 2.19526
9.72531 7.8456 5.51665
2.7834 8.06715 7.20055
0.0745368 7.9837 8.79493
4.20874 6.67425 1.67272
3.12568 5.5302 1.87058
2.40888 7.29201 5.7467
1.0832 2.39059 1.36976
2.05303 6.60965 7.26219
3.12613 2.49703 9.69563
9.53281 0 1.48668
5.37148 3.10791 1.13595
0 5.96853 8.20372
0.761055 1.54037 7.74998
5.49081 6.04967 2.35354
5.32267 5.60087 4.1452
1.43635 9.17911 4.0633
3.57516 5.51199 9.62561
9.29777 4.67943 0.85907
9.05917 3.19907 10
4.5495 7.60321 6.8612
0 0.259248 7.03289
7.09721 9.50444 6.23706
9.92861 5.63099 6.55658
7.8997 0.349606 7.48605
8.9181 0 7.29799
7.82935 0.337938 7.27845
8.27465 0.836941 6.61472
9.43901 5.71522 4.91966
4.07198 5.10175 2.48693
8.20088 0.395773 7.50617
0.370066 6.25016 8.75676
7.52948 0.392691 7.6224
3.59046 0.950412 10
8.97844 1.27137 5.44968
7.48342 0.725452 7.23748
7.81962 2.72858 5.75129
4.04301 7.3438 1.35026
6.73291 5.76732 6.38423
1.68598 9.04866 5.62726
3.1235 2.81195 2.36977
7.54491 0.58547 7.36988
7.89756 3.1304 0.940872
3.04891 6.67515 7.46146
1.82316 7.03476 2.55114
6.92511 0.888519 7.89658
3.29233 4.62231 6.4419
2.20942 3.1282 4.69538
5.41903 7.58746 7.49915
3.4623 4.20708 8.30674
1.2013 0.637119 8.3412
7.7957 0.273018 7.51401
7.68007 0.505591 7.26032
1.28868 6.87474 3.04203
9.20351 1.22402 5.47501
2.58501 7.01124 1.61644
7.54535 8.90693 3.8332
7.57052 0.577164 7.36305
4.22569 2.71193 9.57355
8.778 0.307645 5.54417
0.735528 4.92285 6.32287
1.70761 4.12266 5.3732
8.24488 4.04805 6.57511
6.3759 2.18372 6.21545
9.82603 6.31267 8.58002
7.74431 0.893518 7.36237
2.09395 4.62212 7.39087
6.80522 6.8493 8.70342
1.41422 6.11502 0.511582
7.07546 0 7.12197
1.392 7.98775 2.23317
1.2835 0.773742 8.31305
7.62219 0.247208 7.56312
8.4638 3.94173 0.542206
7.30757 1.40435 1.76617
7.58785 0.610216 7.16994
7.869 0.696975 7.47613
6.31504 1.05913 9.91582
7.60844 0.778732 6.86935
7.48297 0.428363 7.28561
1.38334 8.97507 4.06044
3.95101 3.95899 8.83743
0.551796 4.44197 5.78873
7.60343 0.698078 7.60699
7.1171 2.22187 7.39323
1.249 8.14691 9.60223
7.09092 0 7.65823
7.94249 0.341157 7.261
7.89865 7.67063 3.20138
1.57591 0.60292 8.23212
1.72473 0.779535 8.16644
7.64126 0.318832 7.49064
0.796413 0 7.24377
3.58284 8.12623 8.12385
1.49235 0.814804 8.30633
2.91942 0 0
1.36191 8.68276 1.17011
9.41676 7.1385 7.90594
7.14724 1.14842 1.57223
0 7.81889 7.04453
0.480086 4.16898 8.33315
7.08986 0.708103 7.5514
7.63514 1.02957 7.24163
8.0181 5.80446 0.250223
1.44628 0.793203 8.27176
0.322272 7.49011 3.3357
6.10222 0.849447 6.54743
7.68671 0.266254 7.83173
7.87803 1.13744 6.84027
7.68015 0.441306 7.3684
4.66815 8.1252 0.416014
7.96932 0.559129 7.35453
2.01552 9.98684 6.34526
1.50608 0.88282 8.18995
7.75419 0.77019 7.0158
7.64713 0.441461 7.55478
0.53289 6.42189 3.12752
7.44484 0.555195 7.26204
7.90087 0.269233 7.40862
7.70722 0.598338 7.12974
6.82187 7.8995 9.28194
7.87792 0.371507 7.47511
0.204136 5.96721 0.450397
0.130016 7.25405 6.28434
7.67401 0.799747 7.18963
0.981423 2.10856 6.88588
6.03878 5.51262 2.83779
3.66129 6.08497 2.60516
POINT_DATA 400
SCALARS particleColor float 3
LOOKUP_TABLE default
1 5.96046e-08 0
0 0.638172 1
1 5.96046e-08 0
0.35343 1 0.64657
1 5.96046e-08 0
0.768369 1 0.231631
1 0.536182 0
1 0.675018 0
0.191371 1 0.808629
1 5.96046e-08 0
0.719738 1 0.280262
1 0.987644 0
1 0.0190874 0
1 0.205212 0
1 5.96046e-08 0
1 5.96046e-08 0
1 5.96046e-08 0
0.186374 1 0.813626
0.725881 1 0.274119
1 0.394426 0
0.0492275 1 0.950773
1 5.96046e-08 0
1 5.96046e-08 0
1 5.96046e-08 0
0.245646 1 0.754354
1 5.96046e-08 0
0.793332 1 0.206668
1 5.96046e-08 0
1 0.572007 0
1 5.96046e-08 0
1 5.96046e-08 0
1 5.96046e-08 0
0.18457 1 0.81543
1 5.96046e-08 0
1 5.96046e-08 0
1 5.96046e-08 0
1 0.502641 0
1 5.96046e-08 0
1 5.96046e-08 0
0.42778 1 0.57222
1 0.165644 0
1 5.96046e-08 0
1 0.343035 0
1 0.0751547 0
1 5.96046e-08 0
0.278374 1 0.721626
1 5.96046e-08 0
0 0.745367 1
0.797165 1 0.202835
1 0.777996 0
0.831691 1 0.168309
1 0.226377 0
1 5.96046e-08 0
0.325665 1 0.674335
1 5.96046e-08 0
0.757661 1 0.242339
0.808388 1 0.191612
1 5.96046e-08 0
0 0.55252 1
0.461186 1 0.538814
1 5.96046e-08 0
1 5.96046e-08 0
1 0.573565 0
1 5.96046e-08 0
1 0.202057 0
1 5.96046e-08 0
1 5.96046e-08 0
1 5.96046e-08 0
1 0.513935 0
0.696017 1 0.303983
1 5.96046e-08 0
1 5.96046e-08 0
1 0.873399 0
0 0.406753 1
1 0.607598 0
1 0.393317 0
1 0.988717 0
1 5.96046e-08 0
1 5.96046e-08 0
1 5.96046e-08 0
1 5.96046e-08 0
1 0.652339 0
0.863127 1 0.136873
1 5.96046e-08 0
1 5.96046e-08 0
1 0.59312 0
1 0.79903 0
0.961814 1 0.0381864
0.407473 1 0.592527
1 5.96046e-08 0
0.0215916 1 0.978408
0.499541 1 0.500459
1 0.393442 0
1 0.0883386 0
1 5.96046e-08 0
1 5.96046e-08 0
1 0.841544 0
1 5.96046e-08 0
1 0.631563 0
1 5.96046e-08 0
1 5.96046e-08 0
0.532137 1 0.467863
1 5.96046e-08 0
0.650946 1 0.349054
0.401644 1 0.598356
1 0.92237 0
0.199946 1 0.800054
1 5.96046e-08 0
1 5.96046e-08 0
1 0.687088 0
1 5.96046e-08 0
1 5.96046e-08 0
1 0.108367 0
0.565931 1 0.434069
0.244817 1 0.755183
1 0.745591 0
1 0.384445 0
1 0.196688 0
1 0.814792 0
1 0.0928622 0
1 5.96046e-08 0
1 5.96046e-08 0
1 5.96046e-08 0
1 5.96046e-08 0
1 0.924407 0
1 5.96046e-08 0
1 0.381482 0
1 5.96046e-08 0
0.742502 1 0.257498
1 5.96046e-08 0
1 0.449301 0
1 5.96046e-08 0
0.485373 1 0.514627
1 0.0167006 0
1 0.0115409 0
0.656894 1 0.343106
0.0672674 1 0.932733
0.0146095 1 0.98539
1 0.644976 0
1 0.295205 0
0.954287 1 0.0457131
1 5.96046e-08 0
1 5.96046e-08 0
1 5.96046e-08 0
0.225125 1 0.774875
1 5.96046e-08 0
1 0.331701 0
0 0.505638 1
1 5.96046e-08 0
1 5.96046e-08 0
0 0.538843 1
1 5.96046e-08 0
1 0.145654 0
1 5.96046e-08 0
1 5.96046e-08 0
0 0.980892 1
1 5.96046e-08 0
1 0.312816 0
1 0.0307396 0
0.925648 1 0.0743524
1 0.850525 0
0.798236 1 0.201764
0.31086 1 0.68914
1 0.145223 0
1 5.96046e-08 0
0.829793 1 0.170207
1 5.96046e-08 0
1 0.0830684 0
0.0579816 1 0.942018
1 0.824327 0
0 0.888062 1
1 5.96046e-08 0
1 5.96046e-08 0
0.619923 1 0.380077
1 0.00584167 0
0.708945 1 0.291055
1 5.96046e-08 0
1 0.219779 0
1 5.96046e-08 0
0.529157 1 0.470843
0.958504 1 0.0414955
1 5.96046e-08 0
0.51218 1 0.48782
0.58314 1 0.41686
1 0.609795 0
1 5.96046e-08 0
0 0.667985 1
1 5.96046e-08 0
0.442077 1 0.557923
1 5.96046e-08 0
1 0.960724 0
1 5.96046e-08 0
1 5.96046e-08 0
0.608751 1 0.391249
0.259806 1 0.740194
0 0.76334 1
1 5.96046e-08 0
1 0.670269 0
1 5.96046e-08 0
1 5.96046e-08 0
0 0.874264 1
1 0.533229 0
1 5.96046e-08 0
1 5.96046e-08 0
1 5.96046e-08 0
1 0.937181 0
1 0.389619 0
1 5.96046e-08 0
1 5.96046e-08 0
1 5.96046e-08 0
0.922416 1 0.0775839
1 5.96046e-08 0
1 0.744404 0
1 5.96046e-08 0
0 0.756144 1
0.837959 1 0.162041
0.974419 1 0.0255807
1 5.96046e-08 0
1 5.96046e-08 0
1 0.202396 0
1 5.96046e-08 0
1 5.96046e-08 0
0 0.79236 1
0 0.474533 1
1 5.96046e-08 0
1 0.848469 0
0.605216 1 0.394784
1 0.424675 0
0 0.497003 1
0.774655 1 0.225345
1 5.96046e-08 0
0.712391 1 0.287609
1 5.96046e-08 0
1 0.179144 0
1 0.0761473 0
0.234834 1 0.765166
1 5.96046e-08 0
1 5.96046e-08 0
0 0.567032 1
0.972462 1 0.0275382
0 0.764416 1
1 5.96046e-08 0
1 0.700512 0
1 0.784546 0
1 5.96046e-08 0
0.184707 1 0.815293
0.565432 1 0.434568
1 5.96046e-08 0
0.741995 1 0.258005
1 5.96046e-08 0
0.729031 1 0.270969
1 0.596706 0
1 0.846618 0
1 5.96046e-08 0
0.655183 1 0.344817
0.395626 1 0.604374
1 5.96046e-08 0
0.477863 1 0.522137
0.424163 1 0.575837
1 5.96046e-08 0
1 0.374199 0
1 0.805171 0
1 0.234918 0
0.633039 1 0.366961
0 0.878212 1
1 0.996692 0
1 5.96046e-08 0
1 5.96046e-08 0
0.641617 1 0.358383
1 5.96046e-08 0
0 0.83198 1
1 0.542907 0
0.772587 1 0.227413
1 0.263764 0
1 0.569873 0
1 5.96046e-08 0
0.589842 1 0.410158
1 5.96046e-08 0
1 5.96046e-08 0
0.230686 1 0.769314
1 0.721888 0
0.75499 1 0.24501
1 5.96046e-08 0
1 5.96046e-08 0
1 5.96046e-08 0
0.709949 1 0.290051
1 0.783029 0
1 0.688521 0
1 5.96046e-08 0
1 0.0279778 0
0.808153 1 0.191847
1 5.96046e-08 0
1 0.602556 0
1 0.763232 0
1 5.96046e-08 0
0.372455 1 0.627545
0.0377705 1 0.96223
0 0.7986 1
0 0.571015 1
0 0.797345 1
0.93177 1 0.06823
1 0.287002 0
0 0.489905 1
0.976426 1 0.0235744
0 0.334348 1
1 5.96046e-08 0
0 0.526681 1
0 0.259807 1
1 0.994174 0
1 5.96046e-08 0
0.650418 1 0.349582
0.866859 1 0.133141
1 0.73066 0
0 0.364174 1
1 5.96046e-08 0
0.624253 1 0.375747
1 0.0859032 0
0 0.154143 1
1 0.126593 0
0 0.725128 1
1 5.96046e-08 0
0 0.78885 1
0 0.337572 1
0 0.564978 1
0 0.832083 1
0.0618592 1 0.938141
0 0.550546 1
1 0.650937 0
1 0.119115 0
0 0.75681 1
1 0.191282 0
0.329662 1 0.670338
1 5.96046e-08 0
1 5.96046e-08 0
0 0.435108 1
0.638628 1 0.361372
0.26685 1 0.73315
0 0.522281 1
1 5.96046e-08 0
1 0.492476 0
1 5.96046e-08 0
1 5.96046e-08 0
0.253227 1 0.746773
0 0.371241 1
0.233562 1 0.766438
1 5.96046e-08 0
0 0.670068 1
0.521183 1 0.478817
0 0.582636 1
1 5.96046e-08 0
0 0.983107 1
0 0.234394 1
0.117202 1 0.882798
1 0.543077 0
1 0.963996 0
0 0.533472 1
0.500095 1 0.499905
1 5.96046e-08 0
0 0.437296 1
0 0.598786 1
1 5.96046e-08 0
0 0.814882 1
0 0.634993 1
0 0.349517 1
1 5.96046e-08 0
0.400342 1 0.599658
0 0.438179 1
1 5.96046e-08 0
0.918344 1 0.0816559
1 0.702384 0
0 0.776824 1
1 5.96046e-08 0
1 0.239528 0
0 0.402504 1
0 0.786025 1
0 0.828281 1
0 0.223615 1
1 5.96046e-08 0
1 0.0926085 0
0 0.844079 1
0 0.9094 1
0 0.455117 1
1 0.40959 0
0 0.889977 1
1 5.96046e-08 0
0 0.181248 1
0 0.430083 1
0 0.64337 1
1 5.96046e-08 0
1 0.523991 0
0 0.381679 1
0 0.880751 1
1 0.932532 0
0 0.631856 1
1 5.96046e-08 0
1 5.96046e-08 0
0 0.366953 1
0.684729 1 0.315271
0.545841 1 0.454159
1 0.809759 0
