# vtk DataFile Version 3.0
Particle simulation
ASCII
DATASET POLYDATA
POINTS 400 float
3.43408 0.238534 7.91695
2.42468 4.38351 1.86855
0.331326 3.35229 2.02178
2.30054 0.577145 0.747652
9.06712 2.23545 3.98427
9.73355 0.504029 4.72028
8.57905 3.82588 1.90312
1.80656 4.65902 2.23903
6.30801 2.93611 1.36466
8.2833 0.271604 3.35424
2.17755 0.636445 0.808766
1.89874 1.92512 2.71114
3.73998 3.12716 4.03156
3.11543 0.449424 0.792341
8.78207 2.38907 3.99492
8.19259 4.84669 9.40092
3.55218 5.26793 0.747148
1.85769 0.852183 3.30081
2.83707 9.98938 8.11873
8.34114 0.350841 3.43192
3.56684 0.167129 3.2001
3.88776 2.49096 8.30038
0.834098 4.61368 7.18169
8.50805 0.558503 3.77491
9.40309 7.13911 9.09899
3.39982 0.293938 1.72043
0.929084 8.17106 7.07942
1.76436 0 2.26044
5.21784 1.12062 5.28464
1.48967 0.898647 3.28678
8.72465 3.43876 2.6356
9.19223 0.348525 1.38688
2.79876 2.03367 7.34369
8.48434 0.620886 3.7149
2.34516 1.87619 2.57617
1.8845 0.742123 0.886567
7.53002 0.679412 9.066
2.80154 0.273062 1.89509
5.80461 0.0732031 1.35549
2.11882 0.781156 0.396098
3.6786 0.225579 1.55881
7.69735 5.6456 3.87083
4.97001 5.19699 4.9825
9.71241 4.20402 3.75075
9.85691 0.355277 9.07823
5.52528 0.249231 1.60999
8.90425 1.66628 3.65377
2.34496 0.277523 0.320333
5.60803 0.589662 1.85031
7.54611 2.65548 2.51139
0.483752 2.76683 2.36701
7.74991 5.59043 3.91734
5.82803 1.18162 5.53543
8.51135 1.18536 3.69143
9.48191 0.32252 9.157
5.55721 0.253561 1.68835
4.57376 0.255791 8.01273
2.12896 0.429894 0.734426
5.51608 0.553524 1.83961
0.33773 1.99719 8.51912
5.05257 0.634654 6.29876
4.81541 0.56727 5.68997
0.684375 0.554466 5.88507
8.19928 0.43684 3.48232
7.15407 0.889066 5.46214
9.42835 0.530263 6.41952
5.19339 1.15553 5.13254
0.393076 2.85156 2.05861
5.59543 0.734928 1.77936
4.28538 0.670723 8.4101
4.7185 0.0293275 5.63892
2.46433 1.9937 2.78971
7.84588 0.537434 7.72521
8.16223 0.423174 3.46894
7.53253 0.399699 8.06618
5.34322 0.444318 8.1083
5.17061 1.13978 5.10329
4.28936 0.775016 8.17854
5.46583 0.766721 1.96328
5.89454 0.357516 8.31513
2.50878 0.455004 2.22306
1.99644 0.738546 2.90578
1.98333 2.01745 2.29514
2.76027 0.440121 2.15639
4.91499 0.564644 7.12004
5.17506 0.782427 8.4155
5.04132 0.403896 7.30474
5.59929 0.658132 1.80827
4.27342 1.94656 1.88574
9.41072 0.381201 1.30254
2.95774 0.429691 1.91477
2.54776 0.220278 1.12846
2.08891 2.84995 7.70782
2.72364 0.400324 2.17288
4.92976 0.544361 7.1936
5.14229 0.790137 8.38736
4.88246 0.578195 8.32636
2.2962 0.0586088 0.978115
5.51533 1.1261 7.71162
9.35763 0.406574 1.25722
2.9374 0.770159 2.38357
2.21691 0.400604 9.30848
1.81448 0.238347 1.59151
7.13144 0.8302 5.2157
9.52311 0.663964 0.256911
2.15182 0.58391 0.403228
4.87643 0.483759 6.81167
5.74758 0.604156 2.00024
5.59331 0.505034 1.8334
8.96662 0.172559 0.251296
0.56522 2.55922 2.49153
8.4029 1.11593 3.49689
2.36111 0.197946 1.39675
9.29843 0.230389 1.10078
2.19262 0.632944 0.57285
1.52637 0.234114 0.956517
4.09804 0.445939 8.45066
5.83605 0.485094 2.21971
5.5518 0.464672 1.75259
1.85942 1.21252 1.03569
2.88924 0.431317 1.9586
8.74212 3.4688 2.92771
4.50845 0.0507882 8.19622
4.97685 1.1872 6.20023
2.2071 0.27741 9.71656
1.89881 1.07757 2.98305
2.84054 0.500463 0.471763
8.41027 0.73673 3.58377
1.89707 2.40142 8.85628
3.05624 0.463333 2.65669
2.83307 0.380083 1.96865
5.553 0.822149 2.07454
5.08461 0.785843 7.0314
5.28189 0.807692 4.84381
5.19159 0.363822 7.68281
1.66466 0.202594 2.8665
6.07169 3.25256 2.86229
8.32555 0.733367 3.50494
4.57432 0.620837 8.84079
6.07813 0.742981 5.59508
2.46438 0.405274 1.47784
5.91648 0.404703 5.79296
1.61214 1.04222 4.32179
3.8924 0.28453 1.00627
2.89886 0.241733 2.04576
2.33477 0.421468 0.594642
9.42295 0.266313 9.1632
1.88029 0.28505 2.47112
2.22386 0.237871 0.481392
2.03334 0.5272 2.31106
2.47928 0.401363 1.47768
6.24452 0.765863 5.46918
2.19239 1.56237 2.51444
5.00244 0.911201 6.49421
2.08916 0.95742 0.511828
2.12424 0.295143 0.537633
9.98541 0.244954 9.18888
2.55602 0.531845 2.06806
6.05119 0.88473 5.61168
1.6728 0.168862 1.47401
1.93994 0.346397 1.55535
0.482706 2.90788 1.85211
5.3981 0.237885 7.186
1.39271 0.898484 3.10341
0.516267 2.85687 2.34063
6.15667 0.788603 5.43346
3.86223 0.82183 8.38033
3.90006 0.260224 8.71455
6.55623 1.86963 8.60178
1.55438 8.56384 0.614104
1.54705 0.722514 1.00784
2.42099 0.741752 0.860304
4.87834 0.455331 7.69882
2.18621 2.04122 2.62722
1.71903 0.350438 2.75211
2.33188 0.413925 0.731036
4.37736 0.465807 8.53579
4.41126 0.647871 8.71545
4.83375 0.729588 8.41799
2.57826 1.48192 0.598147
2.7534 0.320376 2.1903
1.5969 0.783509 3.08002
6.14519 2.22556 8.64464
2.27735 1.74413 2.53113
5.56557 0.440524 7.48205
2.56168 0.112477 1.75174
2.07827 0.662435 1.27602
2.09407 2.61896 7.51378
3.28777 0.389255 1.88759
2.81467 0.230674 1.64074
2.71761 0.347973 2.19222
2.24046 0.102207 0.442834
5.11378 0.618511 7.29563
2.08141 2.92584 0.938425
4.31051 2.74821 8.56133
2.94305 0.412923 1.58335
2.93858 0.468316 1.59219
0 4.51304 6.3652
1.81253 0.791248 3.01732
1.61491 1.17038 2.78981
3.26035 0.160041 2.09034
5.66056 0.633325 1.60857
8.03718 0.854936 8.78409
4.56956 0.641671 6.04789
4.4849 0.533646 7.29684
3.96944 0.483139 8.32342
2.12728 0 1.7603
2.28036 0.238876 2.57481
2.69506 0.597294 1.056
9.55492 0.336693 1.1549
2.61139 0.216718 1.55105
5.11127 0.4388 1.48353
5.7328 0.449769 8.29145
6.12737 0.634784 5.1061
4.73706 0.508724 7.27704
3.99121 0.522002 8.3512
2.1151 0.0110759 1.72454
1.56834 0.569893 1.38277
1.84934 0.814512 3.08981
9.55165 0.418833 1.15937
8.7263 4.82694 4.46832
0.393179 0.0471131 7.5618
5.08268 0.536401 7.24928
2.79562 0.570893 2.41541
4.01796 0.652728 8.23259
1.78203 0.207934 2.5559
9.18299 1.80543 3.3529
2.61603 0.175775 1.51454
2.15881 0.0990161 1.92424
5.1932 0.741106 6.413
8.48834 1.08073 3.52691
3.9342 0.679282 8.54616
9.92982 0.298733 9.24402
2.61431 0.356715 2.30853
5.13089 0.693177 7.27344
2.85682 0.300232 0
9.26753 0.354135 9.21371
3.36902 0.0840359 2.20291
2.74231 0.824618 1.06688
1.75951 1.23114 2.94959
1.90048 0.416657 1.54535
2.31897 0.426555 2.80024
2.05915 0.0374129 1.60169
3.06771 0.334113 2.00087
4.28929 0.148918 8.20453
1.18886 0.82312 2.61861
1.49887 0.0826053 1.15525
4.44425 0.505041 8.36819
5.55612 0.338825 2.11588
4.34935 0.299338 8.3427
2.1216 0.362089 1.46798
5.97839 0.55391 2.19907
4.33674 0.193103 8.44882
3.1385 0.198708 2.50705
9.94774 0.198606 9.27559
2.50603 0.408112 2.55069
9.58418 0.400143 1.53867
5.1422 0.677068 8.42448
5.5573 0.400236 2.12787
4.32911 0.345878 8.30778
2.21937 0.572005 2.46645
8.75527 4.74704 4.46824
4.63941 0.497874 6.22427
7.93084 0.742337 3.27373
4.70141 0.254276 8.56124
2.73726 0.0139382 1.40546
9.57933 0.361246 2.82658
4.58428 0.64623 8.17052
9.95417 0.169063 9.0216
2.00252 0.50214 1.05891
2.29194 0.562544 1.9548
8.92509 4.7943 4.65747
2.35467 0.81922 2.24888
7.79505 0.963415 3.40091
3.94101 0.807166 8.25822
5.19373 0.718736 6.43204
8.62131 0.783392 3.38822
6.60206 8.0345 9.3527
9.74033 0.468504 9.12893
2.94272 0.543018 2.22987
9.25623 0.520518 0.32777
5.59815 0.513546 1.72413
5.26962 0.191038 2.07117
8.3958 0.257513 3.52469
7.66178 0.622684 8.8882
7.07623 0.459992 8.3965
1.85399 0.916741 2.68065
2.01551 0.834006 0.595053
6.24331 0.490747 5.63511
7.66806 0.662404 7.90647
9.20862 0.459205 0.227335
5.38994 0.232682 1.64968
2.36507 0.774392 1.91948
8.30915 0.428202 3.63101
4.39168 0.639039 8.01427
4.28451 0.986361 8.42009
2.49061 0.694185 0.353825
2.34053 2.03922 2.39661
2.39441 0.318027 2.52432
1.71045 0.401339 2.98582
9.04494 0.285213 0.642795
6.16589 0.726133 5.62211
1.84262 0.164025 0.934985
5.58956 0.0172314 1.42394
1.69742 0.610377 2.79024
5.5788 0.447199 2.38131
3.34292 0.210874 2.47529
3.1491 0.221313 2.41931
1.55209 0.503628 3.22868
2.24817 0.357655 1.94452
7.79583 0.776111 3.61945
6.30204 0.821714 5.79198
9.72426 0.427318 9.2634
3.10133 0.285289 1.50255
1.59291 0.483337 2.83665
9.69356 0.223225 2.82034
2.816 0.725406 0.922976
6.07475 0.647391 5.37886
5.70643 0.386122 1.82879
2.48671 0.459922 2.23197
4.677 0.303946 6.6558
2.49494 0.514853 2.38387
4.21051 0.0729362 8.26105
2.41027 0.231013 1.8558
9.4231 0.548966 1.06154
9.30261 0.085248 1.53606
3.00943 0.69876 1.94947
5.84686 0.701795 1.75042
9.22809 0.298568 1.15658
1.76832 0.249924 1.58591
4.67045 0.396343 6.6898
3.18467 0.581527 2.25135
4.18361 0.231546 8.48098
2.51859 0.192225 2.1738
9.67494 0.219907 1.51017
5.02588 0.150988 6.27248
2.50292 0.365873 1.89543
2.05159 0.912168 2.96243
9.54491 0.143742 1.38678
3.4429 0.416145 2.34588
5.25709 0.655193 6.75422
2.88266 0.285891 2.57994
5.21866 0.751755 7.39141
4.70786 0.548829 6.07315
2.87057 0.364034 1.91807
2.33228 0.521772 0.691941
5.46025 0.568573 1.64444
2.77561 0.443906 2.07794
2.23976 0.485436 0.830415
2.23275 0.732799 0.851224
2.6302 0.42847 1.9429
2.0281 0.191781 1.62185
5.45561 0.495991 7.53756
4.69538 0.548184 6.04793
2.40444 0.310377 1.60914
1.76601 0.378507 1.65572
5.70909 0.656705 2.09438
4.49408 0 7.8515
2.66129 0.783323 0.680473
2.10871 0.658774 3.06389
5.25538 0.339071 1.476
6.14764 0.693299 5.39926
4.79651 0.359472 8.14101
2.83465 0.570923 2.04251
2.80541 1.0074 0.479716
9.83851 0.395454 9.26978
4.01134 0.782494 8.41971
3.82692 0.538836 8.20103
4.04776 0.74182 8.14153
2.39922 0.603611 3.15609
5.23223 0.335088 1.45965
6.15291 0.675227 5.46579
5.17548 0.28726 7.38024
2.78268 0.807672 0.503113
3.62766 0.562276 2.63492
9.6513 0.403206 9.10436
3.98624 0.719563 8.33844
4.39565 0.321333 8.49664
4.48616 0.493111 7.99839
2.05589 0.152874 0.654794
2.49918 0.683874 0.553768
2.63365 0.40278 2.3771
4.69031 0.486254 8.07419
2.61639 0.402703 2.34013
8.44067 0.249134 3.48621
4.72648 0.17846 7.61773
1.72357 0.368115 2.58949
2.54004 0.425136 1.76341
8.19107 0.373042 3.69411
5.50396 0.453258 2.2335
2.52666 0.69526 0.524904
2.62858 0.420544 2.22345
4.5926 0.493687 8.15226
2.49483 0.232086 2.11178
8.45371 0.284385 3.47617
5.08953 0.516007 7.64266
1.71585 0.359832 2.59993
2.20894 0.480896 2.53846
9.24918 0.0991184 1.33197
5.51125 0.475534 2.21229
POINT_DATA 400
SCALARS particleColor float 3
LOOKUP_TABLE default
0.238147 1 0.761853
0 0.675826 1
0 0.339107 1
0 0.570953 1
0 0.603159 1
0.751885 1 0.248115
0 0.488061 1
0 0.41529 1
0 0.519785 1
0 0.323313 1
0 0.517826 1
0 0.422372 1
0.0888096 1 0.91119
0 0.417616 1
0 0.784935 1
0 0.49658 1
0 0.378072 1
0 0.720378 1
0.530697 1 0.469303
0 0.286814 1
0 0.388792 1
1 0.249241 0
0.133195 1 0.866805
0 0.42782 1
0 0.977608 1
0 0.512185 1
1 5.96046e-08 0
0 0.726914 1
0 0.48515 1
0 0.524959 1
0 0.647674 1
0 0.754499 1
0 0.455479 1
0 0.56645 1
0 0.97848 1
0 0.536594 1
0.0658251 1 0.934175
0 0.193756 1
0 0.74496 1
0.228782 1 0.771218
0 0.603404 1
0 0.769005 1
0 0.4995 1
0 0.619103 1
0 0.41874 1
0 0.47979 1
0 0.570255 1
0 0.470855 1
0 0.252593 1
1 5.96046e-08 0
0 0.769333 1
0 0.514047 1
0 0.141818 1
0 0.574185 1
0.18198 1 0.81802
0 0.319995 1
0 0.285274 1
0 0.484251 1
0 0.315885 1
0 0.709756 1
0 0.688462 1
0 0.51182 1
0.378871 1 0.621129
0 0.49262 1
0 0.826602 1
0.194245 1 0.805755
0 0.811489 1
0 0.600562 1
0 0.742914 1
0 0.294653 1
0 0.464488 1
0 0.461855 1
0 0.979854 1
0 0.504147 1
0.0846227 1 0.915377
0 0.815033 1
0 0.773359 1
0 0.497106 1
0 0.406361 1
0 0.599797 1
0 0.464942 1
0.0308832 1 0.969117
0 0.584106 1
0 0.24433 1
0 0.379141 1
0 0.76631 1
0 0.627603 1
0.635754 1 0.364246
0 0.188458 1
0 0.355598 1
0 0.318082 1
0 0.452654 1
0.023024 1 0.976976
0 0.305683 1
0 0.332143 1
0 0.402415 1
0 0.510123 1
0 0.314735 1
0 0.478411 1
0 0.369821 1
0 0.437009 1
0 0.967191 1
0 0.555001 1
0.154405 1 0.845595
0 0.741448 1
0 0.217546 1
0 0.450662 1
0 0.753713 1
0 0.0975951 1
0 0.190761 1
0 0.315851 1
0 0.557856 1
0 0.647114 1
0 0.477324 1
0 0.627832 1
0 0.264596 1
0 0.352237 1
0 0.556921 1
0 0.225056 1
0 0.547653 1
0 0.0957476 1
0 0.660689 1
0.169829 1 0.830171
0 0.744874 1
0.216938 1 0.783062
0 0.358892 1
0 0.746054 1
0 0.700287 1
0 0.560779 1
0 0.942175 1
0 0.303641 1
0 0.506843 1
0 0.822559 1
0 0.292628 1
0 0.967797 1
0 0.417257 1
1 5.96046e-08 0
0 0.633656 1
0 0.239132 1
0 0.669174 1
0 0.46794 1
0 0.685335 1
0 0.609835 1
0 0.798652 1
0 0.513958 1
0 0.621698 1
0.201281 1 0.798719
0 0.394819 1
0 0.70473 1
0 0.827109 1
0 0.49195 1
0 0.572094 1
0 0.856923 1
0 0.603301 1
0 0.761069 1
0 0.370171 1
0.263868 1 0.736132
0 0.575536 1
0 0.691373 1
0 0.546074 1
0 0.840344 1
0 0.597142 1
0 0.296069 1
0 0.304337 1
0 0.970996 1
0 0.533451 1
0 0.464686 1
0 0.261545 1
0 0.450906 1
1 0.0915002 0
0 0.700437 1
0 0.67659 1
0 0.829342 1
0 0.875278 1
0 0.702202 1
0.21683 1 0.78317
0 0.509412 1
0 0.225161 1
0 0.4713 1
0.0795353 1 0.920465
0 0.519888 1
0 0.567147 1
0 0.517922 1
0 0.68646 1
0 0.49429 1
0 0.734988 1
0 0.627731 1
0 0.49227 1
0.301981 1 0.698019
0 0.520385 1
0 0.471019 1
0 0.748313 1
0 0.492206 1
0 0.445711 1
1 0.874675 0
0 0.515977 1
0 0.54842 1
0 0.595984 1
0 0.572515 1
0 0.400338 1
0 0.37456 1
0 0.877028 1
0 0.960032 1
0 0.248281 1
0 0.834528 1
0 0.408904 1
0 0.089041 1
0 0.968753 1
0 0.703802 1
0 0.337464 1
0 0.590088 1
0 0.445937 1
0.101844 1 0.898156
0 0.459281 1
0.288743 1 0.711257
0 0.276774 1
0 0.154714 1
0 0.825713 1
0.171628 1 0.828372
0 0.390077 1
0.392301 1 0.607699
0 0.868909 1
0 0.851337 1
0 0.513645 1
0 0.684793 1
0 0.901867 1
0 0.992314 1
0 0.639064 1
0 0.388122 1
0 0.844342 1
0 0.523609 1
0.0963514 1 0.903649
0 0.861724 1
0 0.414844 1
0 0.412578 1
0 0.672015 1
0 0.694337 1
0.367766 1 0.632234
0 0.775062 1
0 0.748647 1
0 0.297099 1
0 0.627805 1
0 0.460293 1
0 0.738806 1
0 0.918209 1
0 0.38334 1
0 0.583345 1
0 0.884124 1
0 0.617445 1
0 0.361659 1
0 0.626085 1
0.0652685 1 0.934731
0 0.358895 1
0 0.91643 1
0 0.736669 1
0 0.446123 1
0 0.209309 1
0 0.505849 1
0 0.538152 1
0 0.281562 1
0 0.631698 1
0 0.502264 1
0 0.720041 1
0 0.764295 1
0 0.630826 1
0.524143 1 0.475857
0 0.652113 1
0 0.884101 1
0 0.552554 1
0 0.983465 1
0 0.923168 1
0.276046 1 0.723954
0 0.9499 1
0 0.87161 1
0 0.932538 1
0 0.495528 1
0.171051 1 0.828949
0 0.944015 1
0 0.882762 1
0 0.471233 1
0.0400048 1 0.959995
0 0.694276 1
0 0.810451 1
0 0.913753 1
0 0.790037 1
0 0.389355 1
0 0.618781 1
0 0.874902 1
0 0.525121 1
0.752883 1 0.247117
0 0.622537 1
0 0.718764 1
0 0.694678 1
0 0.426213 1
0 0.985385 1
0 0.242546 1
0 0.485848 1
0 0.776122 1
0 0.520455 1
0 0.436898 1
0 0.477538 1
0 0.557027 1
0.204376 1 0.795624
0 0.572577 1
0 0.644992 1
0.0513645 1 0.948636
0 0.747971 1
0 0.508889 1
0 0.89002 1
0 0.960424 1
0 0.432832 1
0 0.744223 1
0 0.377152 1
0 0.903195 1
0 0.713348 1
0 0.928417 1
0 0.665006 1
0.621754 1 0.378246
0 0.602861 1
0 0.914948 1
0 0.988724 1
0 0.656986 1
0 0.414072 1
0 0.79458 1
0 0.408628 1
0 0.827588 1
0 0.606311 1
0 0.703794 1
0 0.814937 1
0 0.601753 1
0 0.995489 1
0 0.383194 1
0 0.626142 1
0 0.574866 1
0 0.435872 1
0 0.695934 1
0 0.828122 1
0 0.309067 1
0.0750447 1 0.924955
0.0109104 1 0.98909
0 0.468248 1
0 0.656506 1
0 0.420794 1
0 0.326472 1
0 0.575779 1
0 0.547783 1
0 0.50966 1
0.194947 1 0.805053
0 0.475356 1
0 0.999007 1
0.369419 1 0.630581
0 0.166529 1
0 0.942462 1
0 0.376248 1
0 0.598496 1
0 0.667064 1
0 0.972248 1
0 0.329073 1
0 0.18505 1
0 0.625477 1
0 0.378404 1
0 0.599937 1
0.0695205 1 0.93048
0.0590382 1 0.940962
0.0750515 1 0.924948
0.401639 1 0.598361
0 0.321792 1
0 0.730126 1
0 0.633227 1
0 0.655633 1
0 0.369706 1
0 0.709914 1
0 0.62121 1
0 0.39673 1
0 0.43281 1
0 0.874986 1
0 0.984261 1
0 0.610915 1
0 0.908889 1
0 0.64868 1
0 0.382415 1
0 0.327069 1
0 0.834916 1
0 0.696717 1
0 0.834027 1
0 0.405248 1
0 0.929835 1
0 0.528291 1
0.130069 1 0.869931
0 0.599859 1
0 0.384929 1
0 0.494054 1
0 0.610241 1
0 0.741838 1
0 0.75194 1
0.154093 1 0.845907
0 0.794693 1
0 0.815786 1
0 0.99619 1
0 0.648994 1
