# vtk DataFile Version 3.0
Particle simulation
ASCII
DATASET POLYDATA
POINTS 400 float
1.29172 0.430874 1.0385
1.56661 0.534717 1.45373
2.50048 0.877895 1.9392
1.89957 0.18368 1.71048
8.50918 0.885985 4.47896
5.30234 1.59007 4.67561
9.1511 3.13605 0.756292
2.30097 4.32428 3.33229
6.10527 0.352476 0.860583
8.49677 0.359868 2.19181
1.85282 0.337005 1.92536
1.56001 0.467934 0.697267
1.53235 0.459537 2.09968
1.85065 0.180645 1.69363
8.43673 0.800318 4.53831
4.18708 5.31253 7.34385
5.31503 0.0418853 2.0413
2.1759 0.540157 2.72162
9.57415 0.204391 0.0275532
8.57932 0.329533 2.20382
2.22356 0.825974 1.23032
6.68767 0.622609 4.45749
1.77639 2.35141 6.26924
8.28421 0.258485 1.97719
3.81398 1.47654 5.89976
2.07338 0.70661 0.683024
6.25436 0.779433 7.65456
2.70138 0.735362 2.10561
4.92402 0.084398 3.74553
2.12114 0.327193 1.46394
6.81172 0.435516 0.901722
8.97283 0.589002 1.01759
4.82894 8.6463 8.39968
8.20525 0.247803 1.96476
1.20291 1.71723 2.11416
2.02495 0.634058 0.740787
5.98093 0.582019 7.54134
1.8527 0.372946 2.90303
4.89785 0.37794 1.59746
2.0552 0.879668 0.856043
1.15562 0.34868 0.834349
4.72185 0.122985 0.800329
4.22744 0.508004 3.94145
8.88219 0.200747 2.45386
5.56487 0.663785 6.672
4.62499 0.296268 2.13945
3.59361 1.31229 1.71171
2.02792 1.18796 3.13519
4.4259 0.215152 1.92091
6.9459 0.0935562 4.63437
0.960314 0.343572 0.987252
4.71604 0.0667204 0.764432
3.93653 0.434636 2.8729
8.87201 0.208566 2.4399
5.60149 0.693401 6.63648
4.59473 0.310954 2.15093
3.39544 0.330958 6.65285
2.27906 0.443835 2.87331
4.40144 0.198036 1.98429
4.90159 0.594074 8.28154
5.26553 1.0732 2.89239
2.73605 0.783569 3.16545
4.85749 0.948962 8.21359
8.2958 1.10254 1.61787
5.55303 0.433456 7.95783
4.87114 0.596271 7.71807
3.54056 0.564029 3.38344
1.0177 0.44807 0.565903
4.4992 0.0762247 2.09799
3.50154 0.0183342 6.63324
5.25628 0.996698 3.23522
2.12882 0.330558 1.40483
4.46589 0.693478 6.02958
8.25225 1.0795 1.60732
5.69915 0.498517 7.78099
4.86927 0.201361 7.1348
3.5649 0.59901 3.36657
3.13179 0.472563 6.41043
4.5574 0.115204 2.08228
3.5591 0 6.67266
1.88534 0.542212 1.57986
2.02913 0.226694 1.36938
1.14733 0.753549 1.59553
2.4222 0 2.15648
4.65745 0.439147 6.93187
3.47365 0.223484 6.14652
5.40395 0.673791 6.81723
2.55938 0.533042 2.22297
2.13166 1.33624 9.57646
6.74324 0.526187 1.09959
1.5558 0.338003 1.12073
2.53335 0.87948 2.32766
4.61338 0.247851 0.976297
2.42656 0 2.16604
4.64601 0.416284 6.91399
3.45789 0.172493 6.13874
2.99676 0.48469 6.19142
1.65689 0.963145 3.07144
1.7203 0.0897184 7.26947
6.74513 0.508314 1.13435
2.46801 0.342162 2.65801
7.48165 0.876893 0.0685782
2.1302 0.299575 1.545
7.75613 0.307246 1.18918
8.62862 1.16135 2.12141
2.32924 0.509375 2.58134
2.95768 0.671631 6.34732
5.18574 0.257158 1.72145
4.42026 0.182038 1.98864
6.58707 0.465746 1.23647
0.872576 0.291774 0.723342
8.29086 0.674086 1.65605
1.98315 0.313212 1.95285
6.86837 0.492825 0.856363
2.19585 0.110776 2.68323
2.31695 0.499932 2.43006
3.37101 0.610156 6.14759
4.11282 0.346188 1.98933
4.38717 0.174839 2.06414
2.20661 0.513174 2.74192
2.58128 0.100983 2.05517
4.96404 0.669449 1.14803
4.81766 0.508307 7.40943
4.82393 0.483344 3.55115
3.38192 0.399891 7.55973
2.24678 0.523316 1.70752
1.82697 0.403248 2.99238
8.70659 0.302618 2.07196
4.72083 1.12646 6.7573
2.48161 0.761539 2.2236
2.58684 0.104956 2.07485
4.87933 0.181234 1.81838
4.63203 0.195192 6.1542
4.86169 0.56368 3.48646
2.7625 0.474812 6.48422
1.58841 0.59411 0.966219
5.17118 0.566707 7.6864
8.70076 0.268392 2.04337
3.26975 0.0898745 6.18512
3.78412 1.09259 3.3075
1.94528 0.353553 1.68227
3.67487 0.752237 2.39582
1.53612 0.235659 2.18034
1.56207 0.756953 0.965562
1.55516 0.226114 2.51935
1.92124 0.118349 1.60909
5.18033 0.797212 7.96135
2.05392 0.374777 3.01569
2.26569 0.21851 2.40409
0.646435 0.190156 0.428093
1.95392 0.352721 1.68741
3.76683 0.741694 2.44064
1.15781 0.572653 1.49095
3.06375 0.297847 3.52506
1.51741 0.661775 1.61158
2.14194 0.184746 2.03254
5.14044 0.866506 7.88745
1.78311 0.61412 0.842781
3.47617 0.640123 3.24213
2.19527 0.480227 2.97812
1.77301 0.388756 1.22882
1.08258 0.620684 1.14719
4.6913 0.403805 6.29812
2.4406 0.738276 1.88633
0.873772 0.37602 0.96321
3.317 0.49005 3.09868
3.09127 0.525184 6.44554
3.55745 0.272062 5.96065
5.48212 0.816977 6.76987
4.5969 0.229617 2.57258
1.76098 0.423314 1.20866
1.80324 0.936821 0.736862
4.71226 0.416539 6.51905
1.89532 0.731514 0.948514
1.39562 0.232004 1.1918
1.74368 0.699991 3.03293
3.39867 0.300572 6.34064
3.18012 0.591511 6.2126
3.63891 0.190498 6.37258
4.59555 0.213173 2.57434
2.09301 0.404082 0.904866
2.42575 0.608781 1.14071
6.43135 0.800541 7.35021
0.821352 1.29901 2.27591
3.03982 0.1097 6.56062
2.14039 0.451733 1.60279
2.5121 0.513556 2.34373
4.81971 1.16516 2.66686
1.72469 0.0384526 2.63597
1.79925 0.40554 1.04136
2.08879 0.415117 0.885613
1.82929 0.104364 1.56798
5.02533 0.72661 6.59811
0.550848 1.07261 2.22774
3.36965 0.360995 6.19098
2.61614 0.470101 1.86915
2.48615 0.465114 2.3149
6.8292 1.71606 1.81896
1.65763 0.0527804 2.64162
2.01224 0.602923 0.854576
1.44474 0.0598347 0.780276
4.54855 0.340081 1.60032
3.15421 0 6.66725
3.36721 0.634283 3.06848
5.87117 0.629659 7.9619
3.24793 0.545915 6.00637
2.22711 0.162726 2.57146
2.65877 0.077575 2.17759
2.52363 0.502763 2.9979
7.24027 0.740097 1.09616
1.5866 0.580574 1.51238
5.42314 0.413974 1.96885
5.51993 0.770242 6.8098
3.16887 0.521408 3.09815
5.96573 0.666962 7.86941
3.22615 0.527318 6.00581
2.23014 0.164719 2.6049
2.2113 0.783479 2.14692
1.30522 0.310647 2.22129
7.06422 0.464636 1.25385
8.2621 0.65848 1.90591
1.42247 0 6.85773
4.46876 0.289524 6.56452
1.66545 0.156785 1.46172
4.84659 0.624564 6.42514
1.09886 1.26754 2.25686
5.60198 0.771172 6.14089
1.46327 0.268259 1.60616
1.58773 0.0865475 1.33639
3.02316 0.255622 2.6235
8.23929 0.622029 1.91945
3.94127 0.268129 6.2326
5.6018 0.725841 8.05464
1.68717 0.123337 1.46678
4.73979 0.55056 6.37093
1.31658 1.58342 2.32327
6.30814 0.805497 7.50639
0.705624 1.72808 2.06949
1.34733 0 2.44224
2.59543 0.404928 2.18514
1.8362 0.304695 1.69816
1.99845 0.225022 1.8372
2.36676 0.438789 2.68098
1.66686 0.103949 1.31887
3.51926 0.377288 6.33881
0.969173 0.147374 2.41736
2.39414 0.184866 2.6897
2.84428 0.499514 5.85807
4.28712 0.493551 2.00408
3.76889 0.233651 6.24798
1.81301 0.227277 1.78649
5.25774 0.115867 1.59394
3.61585 0.331145 6.8358
1.7544 0.0926573 1.26708
5.02882 0.358882 6.63786
1.16268 0.513457 2.60633
7.16216 0.289281 1.2331
5.03428 0.311176 6.68899
4.29247 0.493651 1.97827
3.78764 0.216803 6.20933
1.21373 0.114147 2.1171
3.52297 0.424353 3.20083
3.29009 0.925468 2.9562
8.63941 0.318003 2.17746
5.95483 0.701309 7.69991
0.326497 0.00207387 1.00882
5.87475 0.622102 0.889434
3.40408 0.37927 6.03507
5.60417 0.123189 8.25018
1.4734 0.195095 2.40915
1.095 0.14923 2.17581
3.47808 0.373897 3.29989
1.17196 1.40917 1.88988
8.06567 0.272726 2.00214
2.9868 0.598049 6.377
2.5524 0.168019 6.64666
8.2049 0.718473 2.14792
5.60166 0.353539 5.8334
5.72676 0.105663 8.3102
1.54589 0.182483 2.37969
7.85213 0.557958 0.860103
4.6913 0 1.61868
4.51202 0.380293 1.62945
8.26965 0.763722 2.02203
6.66623 0.971195 7.24011
6.43616 1.11582 7.24674
2.86875 0.525808 2.51259
1.43933 0.880166 2.8435
3.58408 0.495177 3.1531
2.29308 0.122531 6.78278
7.77498 0.516654 0.92638
4.64445 0 1.59069
2.33334 0.615809 1.55326
8.27691 0.803257 2.05804
3.23504 0.308034 6.50784
3.90307 0.209132 6.76695
2.45154 0.430349 2.51379
1.08369 1.84396 2.26097
2.3627 0.43513 2.0235
2.14784 0.50226 1.8278
7.23534 0.522312 0.998875
3.26805 0.487083 3.1779
2.69119 0.639359 1.676
4.31964 0.163898 2.45809
0.787032 0.20783 0.671387
4.68914 0.847741 1.29602
2.04938 0.317829 2.39297
1.90421 0.598705 2.83403
1.15552 0.243153 2.61058
1.93042 0.587025 2.57222
8.24247 0.57415 2.14493
3.36696 0.502647 3.22324
5.43667 0.572686 6.5871
1.85184 0.140913 1.67261
0.825819 0.140147 0.646092
7.03048 0.539557 0.903725
2.24395 0.248224 2.45791
3.54503 0.958778 3.54554
4.33173 0.186366 1.6827
1.81495 0.531635 2.34161
3.43248 0.410948 3.42596
1.11667 2.02581 2.46674
3.66829 0.279399 6.94106
1.76356 0.96021 0.792958
6.95069 0.680097 1.0743
7.0175 0.554536 1.30903
2.02809 0.802524 2.89435
4.88179 0.348494 1.68485
6.68236 0.256665 0.874795
2.66009 0.0340871 2.60746
3.42764 0.544669 3.49341
1.82141 0.209285 1.9134
3.59049 0.225689 6.88382
1.79822 0.960127 0.84637
6.92196 0.68021 1.08868
3.71891 0.62528 3.2231
2.14109 0.820563 2.9616
1.19865 0.341425 1.53403
6.66803 0.503897 0.901185
2.22178 0.316815 2.70517
3.52959 0.255668 3.0975
1.67459 0.613137 1.44131
4.79609 0.825035 7.0585
3.52833 0.557829 2.92062
1.8784 0.44121 1.68814
2.71451 0.0467279 2.56454
4.74869 0.372524 1.62225
2.42142 0.380053 2.67276
2.6475 0.204057 2.45922
1.50023 0.451306 3.10525
1.84865 0.604164 0.854573
1.61725 0.682723 1.47959
4.8415 0.55975 6.60598
3.54074 0.558934 2.90354
1.87242 0.391913 1.59452
2.0722 0.235778 2.84812
4.86512 0.364777 1.66623
3.52761 0.0745789 6.86246
2.70223 0.144443 2.6156
1.86876 0 2.62774
4.75259 0.228072 1.42615
3.65576 0.481976 2.67494
4.56831 0.301461 6.86556
2.37814 0.678939 2.70871
2.55227 0.812286 3.02715
5.54663 0.738895 6.61026
3.47755 0.235079 6.21586
3.2362 0.548277 6.14816
3.12183 0 6.08464
1.62515 0.16488 1.95246
4.7634 0.226139 1.41995
3.59864 0.432127 2.62128
4.56436 0.83096 6.62132
2.3136 0.661904 2.79028
1.21707 1.2482 2.4164
5.65408 0.910577 6.59948
3.47202 0.22045 6.20202
3.40377 0.47503 6.1889
2.75276 0.517719 6.39855
2.47007 0.459548 1.49295
2.12668 0.332012 2.13502
1.76415 0.605258 1.38122
3.0155 0.496138 6.56131
1.89273 0.587261 0.806405
8.29303 0.451395 1.93271
4.70046 0.118458 6.71544
1.96479 0.145607 2.72422
1.4677 0.157011 1.41456
8.83628 0 2.38504
4.50472 0.135492 1.64149
2.11648 0.331728 2.15771
1.73836 0.537919 1.34084
2.97242 0.509131 6.59387
1.84268 0.287905 1.67363
8.23798 0.421541 1.91821
4.73773 0.41075 6.60742
1.93247 0.143624 2.69623
1.59546 0.168998 1.44847
6.31828 0.390542 1.3174
4.50135 0.169604 1.63128
POINT_DATA 400
SCALARS particleColor float 3
LOOKUP_TABLE default
0 0.669197 1
0 0.680448 1
0 0.589728 1
0 0.2433 1
0 0.887966 1
1 5.96046e-08 0
0 0.498745 1
0 0.221935 1
0 0.832337 1
0 0.617691 1
0 0.595344 1
0 0.756078 1
0 0.528661 1
0 0.134638 1
0 0.576637 1
0 0.544371 1
0 0.310656 1
0 0.476783 1
0 0.771052 1
0 0.568369 1
0 0.388334 1
0.820333 1 0.179667
0 0.358456 1
0 0.243604 1
0 0.677611 1
0 0.807377 1
0 0.820507 1
0 0.133508 1
0 0.53102 1
0 0.722459 1
0 0.301999 1
0 0.718107 1
1 5.96046e-08 0
0 0.316636 1
0 0.387723 1
0 0.785826 1
0 0.107118 1
0 0.566132 1
0 0.513317 1
0 0.856246 1
0 0.729761 1
0 0.929807 1
0 0.827185 1
0 0.65919 1
0 0.761853 1
0 0.751777 1
0.118491 1 0.881509
0 0.452647 1
0 0.230862 1
0.492482 1 0.507518
0 0.620041 1
0 0.475324 1
0 0.625403 1
0 0.800592 1
0 0.628863 1
0 0.776347 1
0 0.372223 1
0 0.69106 1
0 0.195139 1
0.187309 1 0.812691
0 0.530555 1
0 0.84303 1
0 0.622609 1
0 0.622163 1
0 0.502269 1
0 0.799234 1
0 0.984388 1
0 0.665184 1
0 0.500439 1
0 0.778696 1
0 0.269416 1
0.124253 1 0.875747
0 0.493784 1
0 0.69428 1
0 0.282528 1
0 0.965445 1
0.0567247 1 0.943275
0 0.968626 1
0 0.530469 1
0 0.693965 1
0 0.537356 1
0 0.987108 1
0 0.722867 1
0 0.641795 1
0 0.418914 1
0 0.916462 1
0 0.846141 1
0 0.823031 1
0.868502 1 0.131498
0 0.778563 1
0 0.168697 1
0 0.329756 1
0.0478297 1 0.95217
0 0.595118 1
0 0.40027 1
0 0.897149 1
0 0.641544 1
0 0.660036 1
0 0.765819 1
0 0.581648 1
0 0.944601 1
0 0.576805 1
0 0.346603 1
0 0.575694 1
0.877419 1 0.122581
0 0.897523 1
0 0.754623 1
0 0.532598 1
0 0.221514 1
0 0.388414 1
0 0.817333 1
0 0.589554 1
0 0.574298 1
0 0.700214 1
0 0.689109 1
0 0.89901 1
0 0.332218 1
0 0.237028 1
0 0.188679 1
0.0558603 1 0.94414
0 0.260774 1
0 0.252256 1
0 0.65607 1
0 0.638363 1
0 0.875882 1
0 0.53145 1
0 0.948712 1
0 0.527784 1
0 0.799472 1
0 0.933631 1
0 0.251427 1
0 0.457705 1
0 0.446321 1
0 0.194316 1
0 0.480887 1
0 0.745931 1
0.821046 1 0.178954
0 0.458174 1
0 0.565873 1
0 0.773413 1
0 0.499529 1
0 0.443356 1
0 0.954285 1
0 0.817328 1
0 0.955657 1
0 0.949271 1
0 0.2191 1
0 0.369991 1
0 0.484701 1
0 0.821186 1
0 0.500626 1
0 0.558484 1
0 0.529922 1
0 0.520194 1
0 0.765275 1
0 0.369509 1
0 0.550348 1
0 0.544438 1
0 0.673952 1
0 0.256733 1
0 0.953055 1
0.124925 1 0.875075
0 0.611517 1
0 0.953159 1
0 0.480639 1
0 0.556287 1
0 0.252536 1
0 0.581617 1
0.111236 1 0.888764
0 0.256203 1
0.140999 1 0.859001
0 0.229018 1
0 0.585463 1
0 0.749775 1
0 0.537707 1
0.0284907 1 0.971509
0 0.560729 1
0 0.321459 1
0 0.308463 1
0 0.301109 1
0 0.377682 1
0 0.641488 1
0 0.858261 1
0 0.549672 1
0 0.543679 1
0 0.946746 1
0 0.653628 1
0 0.729035 1
0 0.391942 1
0 0.699006 1
0 0.485331 1
0 0.364342 1
0 0.457441 1
0 0.730093 1
0.0104999 1 0.9895
0 0.795812 1
0 0.595668 1
0 0.915227 1
0 0.168518 1
0 0.625636 1
0 0.335262 1
0 0.420011 1
0.124112 1 0.875888
0 0.848131 1
0.00151576 1 0.998484
0 0.414328 1
0 0.51598 1
0 0.814171 1
0 0.684838 1
0 0.556209 1
0 0.684202 1
0 0.683956 1
0 0.661666 1
0 0.811741 1
0 0.683443 1
0 0.252825 1
0 0.519486 1
0 0.972385 1
0 0.253115 1
0 0.502499 1
0 0.949885 1
0 0.988016 1
0 0.268725 1
0 0.534663 1
0 0.743709 1
0 0.465474 1
0.0903876 1 0.909612
0 0.859089 1
0 0.87169 1
0 0.655117 1
0 0.753487 1
0.00529876 1 0.994701
0 0.516209 1
0 0.646509 1
0 0.365891 1
0 0.569869 1
0 0.425284 1
0 0.661909 1
0.0596748 1 0.940325
0 0.865487 1
0 0.539934 1
0 0.947187 1
0 0.660143 1
0 0.755394 1
0 0.77984 1
0 0.513888 1
0 0.912729 1
0 0.28542 1
0 0.388092 1
0 0.719749 1
0 0.634406 1
0.580963 1 0.419037
0 0.901775 1
0 0.664258 1
0.156516 1 0.843484
0 0.915121 1
0 0.509552 1
0 0.754269 1
0 0.57726 1
0 0.546244 1
0 0.621344 1
0.441819 1 0.558181
0.344555 1 0.655445
0 0.530382 1
0 0.974126 1
0 0.62311 1
0 0.553214 1
0.0148901 1 0.98511
0 0.514054 1
0.150488 1 0.849512
0 0.490863 1
0.234657 1 0.765343
0 0.804732 1
0.0837936 1 0.916206
0 0.997316 1
0 0.295803 1
0 0.837815 1
1 0.541746 0
0 0.503087 1
0 0.752886 1
0 0.836756 1
0 0.502257 1
0 0.9326 1
0 0.607276 1
0 0.449122 1
0 0.747442 1
0 0.299758 1
0 0.613049 1
0 0.89088 1
0 0.962332 1
0 0.605028 1
0 0.575425 1
0 0.771495 1
0 0.543292 1
0.0251871 1 0.974813
0.14204 1 0.85796
0 0.713491 1
0 0.554505 1
0 0.848934 1
0 0.759063 1
0 0.951595 1
0 0.740502 1
0 0.745035 1
0 0.823643 1
0 0.507573 1
0 0.779595 1
0 0.546775 1
0 0.907484 1
0 0.367601 1
0 0.697542 1
0.527127 1 0.472873
0 0.54418 1
0.104753 1 0.895247
0.0926072 1 0.907393
0 0.570986 1
0 0.853206 1
0 0.508502 1
0 0.520463 1
0 0.511895 1
0 0.241212 1
0 0.543114 1
0 0.724247 1
0 0.804599 1
0 0.697403 1
0.121113 1 0.878887
0.168566 1 0.831434
0 0.625821 1
0 0.6379 1
0 0.734787 1
0 0.648142 1
0 0.953809 1
0 0.254869 1
0 0.600731 1
0 0.538101 1
0 0.643911 1
0 0.784738 1
0 0.746267 1
0 0.736343 1
0 0.174139 1
0.123229 1 0.876771
0 0.636586 1
0 0.386872 1
0 0.659349 1
0 0.64076 1
0.0349322 1 0.965068
0 0.468717 1
0 0.290788 1
0.335577 1 0.664423
0 0.575657 1
0 0.71622 1
0 0.492128 1
0 0.573851 1
0 0.264115 1
0 0.563314 1
0 0.948844 1
0 0.997763 1
0 0.392711 1
0.431577 1 0.568424
0 0.543067 1
0.281994 1 0.718006
0 0.762111 1
0 0.363652 1
0 0.623904 1
0 0.399487 1
0 0.360143 1
0.0647084 1 0.935292
0 0.662033 1
0 0.583717 1
0 0.299226 1
0.270903 1 0.729097
0 0.71814 1
0 0.504216 1
0 0.68269 1
0 0.445553 1
0 0.913671 1
0 0.878607 1
0 0.575286 1
0 0.753381 1
0 0.249885 1
0 0.886872 1
0 0.436801 1
0 0.599813 1
0 0.500213 1
0 0.219902 1
0 0.926402 1
0 0.978762 1
0 0.75859 1
0 0.699874 1
0 0.982198 1
0 0.691387 1
0 0.314288 1
0 0.537788 1
0 0.578724 1
0 0.753892 1
0 0.855272 1
0 0.712057 1
0 0.919154 1
0 0.686147 1
0 0.244401 1
0 0.618546 1
