# vtk DataFile Version 3.0
Particle simulation
ASCII
DATASET POLYDATA
POINTS 400 float
6.12918 8.76381 0.775062
1.11264 7.68852 2.26457
6.54069 2.21766 8.21425
4.41152 0.76434 2.12559
3.40594 8.38083 5.29981
4.91333 0.530063 4.79947
2.49791 4.33469 0.273472
4.25506 10 3.58543
5.6067 2.91168 0.318094
0.941656 7.34018 4.12129
3.05021 7.16725 0.348136
1.36047 9.86494 6.57868
5.33152 3.69209 9.50802
2.27501 2.14879 4.4991
3.33 2.76664 4.31845
0.849731 3.49282 7.29099
1.98074 3.40419 8.71245
2.97051 1.22711 0.0464039
4.31143 6.83496 3.86266
9.21464 10 3.4696
4.86069 3.59186 0.70361
0 3.46055 8.74656
5.1039 3.05122 3.70101
6.40149 2.28133 8.56881
4.31283 8.1864 2.48705
6.3126 3.83656 6.62403
4.97503 1.44875 9.04543
5.47598 3.52933 1.0283
6.79823 5.38899 2.36479
9.5664 9.06664 7.91758
4.44285 2.72298 3.33584
7.38593 7.84054 1.00838
7.80104 0 6.26379
3.31753 0.654992 8.10177
3.28092 8.66993 8.95901
4.81201 6.4726 7.66136
3.49132 8.77386 7.87199
8.50541 8.85664 7.79554
6.92641 1.56206 6.90474
0.0780123 0.707943 6.25236
9.07362 9.86569 2.45069
7.15524 2.10711 9.08093
5.41747 2.14179 6.18508
5.69914 3.16047 0.193626
0 1.46557 2.68458
7.05361 9.38195 1.39964
10 10 7.71951
9.53375 5.76172 0
1.50089 2.85571 8.44057
1.15602 9.66468 0.515666
3.62116 5.62572 7.04789
3.20325 4.92878 6.44511
2.52842 2.86303 2.78064
6.23815 4.58913 1.76235
7.97863 9.10788 3.18357
2.76552 0.0276231 3.51733
9.81789 2.53169 6.91777
3.22785 3.32231 1.14237
0.946901 3.03106 2.41242
0.364752 6.56911 8.97367
7.04173 8.16641 3.14917
7.48358 4.3373 6.58559
9.91363 1.08572 8.0341
3.30327 1.20225 8.0029
7.46808 5.40072 2.45865
3.45493 2.96294 1.43427
0.106299 5.38431 7.18495
4.72247 2.69244 2.09806
4.74037 0.955159 2.00185
1.70333 2.68985 0
7.42378 6.64837 7.6539
5.77424 0.282949 3.11998
4.94525 1.35681 5.50297
8.4172 5.85224 7.14099
4.688 0.135776 3.72473
6.56666 3.63018 5.02774
6.79127 7.43207 1.86826
9.15035 7.073 6.48142
3.39871 5.05835 0
8.33415 10 2.75961
5.45317 6.19671 2.18531
2.98713 1.32073 8.53886
5.31626 3.34733 0.294596
6.93378 5.30986 0
9.4307 8.32733 6.30953
1.11507 2.59039 0.209137
8.87005 7.10357 2.75273
0.483735 5.93361 1.66263
6.48286 4.89951 9.9098
1.07271 4.26875 0
0.561428 5.18869 2.89231
0.27117 1.34997 2.12934
2.08163 5.29678 7.96963
0 9.60305 2.02651
0.699633 6.26377 0.519658
1.7736 1.552 1.09256
8.26114 8.29145 1.88701
4.92346 3.87598 9.21113
3.40947 8.33797 0.593733
2.86199 6.95924 9.78417
9.31003 2.31157 8.83466
3.44713 6.95539 2.7786
3.1386 7.73999 6.49025
7.66598 6.78003 7.21203
3.04036 1.22055 6.20639
0.115512 9.29377 5.06185
5.29894 3.42435 4.58489
0.222457 1.25287 7.40141
7.27527 9.68511 0.358565
3.86538 9.6888 0
6.2176 8.60103 1.81283
9.48445 2.44083 10
8.83466 7.61908 2.96797
1.41664 8.54867 0.606198
9.59214 0.247215 9.87812
5.20941 0.844357 0.894624
3.12541 1.61869 2.55375
3.75966 3.96598 8.48481
5.47694 2.85929 8.57865
0.667168 3.62999 1.4399
7.40242 6.27117 6.35866
2.65778 5.84008 1.67296
8.8678 6.06415 4.79504
3.64406 4.25622 5.96364
6.75729 10 5.25911
2.30358 4.4034 9.16373
5.56709 4.92162 3.58204
1.11798 8.53057 1.53565
6.17105 2.03205 4.62818
5.90225 8.55022 6.35704
1.70402 2.68998 6.0021
1.50275 6.86317 8.55673
6.21183 9.7863 5.24606
4.94195 8.19662 6.92268
4.73585 0.573272 4.29588
9.19188 0.417313 9.38479
7.50709 5.10818 2.38209
8.46046 1.84993 5.63134
7.20789 9.11793 3.09199
6.37444 8.52169 2.76107
1.4693 5.83564 8.76802
5.06646 6.23661 10
3.32545 7.0668 8.33189
8.40965 8.9537 6.19132
1.36664 2.52855 8.54782
7.55756 7.45289 2.21738
1.12739 8.88493 1.96205
2.84211 1.24996 0.339346
4.6399 9.00259 5.62118
1.01092 6.28485 6.04093
7.55617 0.68542 7.41211
9.15616 3.81593 2.39139
2.01242 0.0438448 2.27383
6.20458 5.74421 7.19518
5.52819 6.15542 5.17691
0.0917415 6.66409 4.63917
5.29766 1.71981 7.155
1.79191 1.09824 7.77029
6.30746 8.93798 1.41762
7.20656 6.75981 7.32239
1.95039 7.81285 3.22598
1.66476 0.190824 3.83042
8.63156 0.352241 1.74725
0.51062 8.1639 9.37852
0.976575 2.82384 7.54364
7.6402 10 5.11891
4.84082 1.37381 5.44445
5.76244 8.59779 7.248
0.326253 4.23188 6.86743
1.39632 0.266148 3.01819
0.858666 8.56775 5.2906
0.337101 3.39191 1.15509
2.16807 7.78896 3.08417
3.21992 0.34528 7.4093
5.71201 7.30483 3.22437
9.21667 4.58312 3.09926
8.14008 2.82121 8.13555
2.34574 6.0786 5.28608
9.43795 7.9017 6.97073
8.13805 5.03408 5.37062
1.89844 6.41074 5.6048
1.05613 0 5.13782
3.56194 1.56981 6.51677
8.65141 3.42041 0.881258
1.31913 10 6.50296
1.1541 7.45516 0.865113
7.13137 0.315641 7.78559
7.05237 9.70418 1.62129
0.838328 7.67057 1.77493
0.992133 9.29252 8.58241
2.69378 5.72482 7.74853
1.13909 8.45576 7.23628
3.3297 4.95022 5.4999
2.29002 1.28173 2.1812
3.93745 1.76418 9.51223
5.86116 2.17877 8.18012
2.5371 4.92215 0
5.53973 4.63762 9.33783
5.9425 7.66056 10
8.50644 0.42341 5.50728
8.97295 1.41995 5.88071
1.98202 3.00172 0.762426
7.8662 4.8959 1.29689
8.45526 8.68085 2.53707
3.86196 5.03485 1.91523
8.42541 5.22208 7.07884
2.81587 2.08461 9.93959
6.46226 3.99134 6.34205
8.00585 6.34033 4.24823
0.504171 3.47267 4.60922
5.23644 3.22028 0.8138
3.79665 6.26655 6.86372
9.33394 0.581091 2.75394
6.61785 5.01008 2.19901
7.60325 7.65608 2.0405
8.64598 0.0987632 6.03802
7.45643 7.30346 8.32708
0.689164 1.20875 9.54135
4.43207 7.32408 4.77723
4.88268 8.97332 4.33652
6.17836 9.82316 4.77805
3.55756 8.88618 0.718834
7.60779 1.81037 4.59366
9.36687 1.42783 5.78175
1.50658 4.21817 0.401346
1.87666 9.48644 9.12513
5.69658 9.64849 8.25266
2.48631 1.40421 1.71903
7.73699 0.615645 7.35601
6.12157 0.989013 7.01915
3.86691 2.63502 4.85525
10 2.51133 3.07044
8.66229 3.36024 0.977575
3.93038 1.07131 3.62062
5.8061 9.74067 0
9.01579 6.4315 5.92027
6.26329 8.58082 3.89049
0 2.37544 8.62731
7.4587 0.619583 7.50611
4.70235 6.74352 3.05642
6.66268 0.180374 8.28715
2.33708 7.57057 3.5916
2.68518 2.41058 8.61215
9.23705 4.64781 0.0843263
7.10656 2.65176 0.77876
4.38238 2.31882 5.2544
5.38122 8.09577 6.70835
2.17486 5.19672 4.42833
5.1911 9.115 1.1738
6.84375 0.341755 10
7.65146 4.07355 8.67147
2.19993 6.62386 3.88084
0 9.38609 0.40233
0.708446 1.27912 4.81862
1.19764 2.88392 5.66545
0.425954 2.91193 9.82356
7.12234 7.02947 3.51478
2.71233 0.188043 7.47029
3.01619 8.83259 2.13518
4.40095 0 2.78825
2.3296 2.83661 4.16859
7.56152 4.04818 8.43816
9.3514 2.36204 4.32011
9.92554 9.75458 6.09638
7.10738 7.13996 3.63614
6.88461 3.09161 8.26538
2.44285 8.52973 8.69588
3.55367 3.00089 1.52536
2.47556 9.52145 7.70621
8.36854 1.96382 2.73282
3.43645 9.54355 1.88078
0.19727 1.48894 8.93403
8.04348 4.3875 1.45139
9.0364 8.86526 5.34968
3.6206 8.74284 6.6518
0.173628 9.21657 7.86607
3.62249 6.98407 1.15745
1.78548 5.88995 0.869571
4.00039 8.09556 6.87865
0.867108 2.09912 1.86188
1.01577 7.05572 7.20276
3.7467 2.73883 9.30848
7.27132 1.94428 2.02439
4.3826 4.34034 0.85584
2.31488 8.39546 5.51167
0 1.45202 7.99173
4.88395 5.20623 2.7233
4.65651 4.8589 4.71959
0.747979 9.51474 2.7991
4.76891 4.55675 9.90886
9.55577 3.95895 0.78097
8.09347 2.25365 9.19364
5.08875 7.22572 7.68328
1.15268 0.106642 6.39319
10 3.84396 2.89238
9.30974 5.42939 6.75426
7.499 0.63737 7.26147
8.58607 0.205044 7.1616
7.69999 0.57104 7.48305
8.49981 0.550421 6.77171
10 5.02115 4.77437
3.81488 6.48783 2.51214
8.003 0.227199 7.40752
0.139982 5.516 8.62996
7.65435 0.519799 7.54217
7.4304 2.10042 6.3893
8.9757 1.28322 5.6908
7.58578 0.583408 7.35715
8.65362 2.15996 5.59166
3.38153 5.64095 1.31243
6.99659 5.03428 6.63887
1.16808 8.8148 6.35693
2.30531 2.49675 1.68325
7.55113 0.645973 7.25405
1.97265 6.53572 2.30534
3.78905 6.8303 7.7328
2.70047 7.68353 1.64114
6.98042 0.842596 7.93564
2.31006 3.99069 5.605
2.25028 3.00552 4.46924
5.19773 8.83542 8.43616
3.67587 4.25548 8.71638
1.45451 0.707004 8.26431
7.82247 0.100393 7.51078
7.45728 0.450631 7.56954
1.57492 7.16676 3.16914
8.9388 1.28141 5.42145
2.12322 7.96114 1.23522
8.64188 9.20998 4.70321
7.52236 0.45437 7.10918
5.16706 3.64822 9.90379
8.40174 0.06614 5.01859
2.2269 3.45997 5.49625
2.80841 5.42338 4.65242
8.05261 3.95066 6.57161
7.07434 2.57268 6.08698
9.69589 6.3869 9.18858
7.78339 0.594512 7.434
1.46063 3.37235 6.71227
6.6531 5.70879 9.19574
0.232661 8.10093 0.388925
9.29147 2.70569 8.8144
1.3503 8.05726 1.62497
1.41834 0.881177 8.2649
7.7181 0.574844 7.05542
6.72746 3.26137 1.44348
7.44289 1.26913 1.45801
7.11393 0.254941 7.49743
7.68514 0.867941 7.40946
6.77633 0.513261 8.38278
7.77088 0.402721 6.72938
7.52476 0.387688 7.34594
1.29475 8.9861 3.38734
3.42908 4.59945 9.57024
1.36857 5.0838 5.88595
7.734 0.511124 7.35542
7.63298 1.7361 7.5209
0 9.50626 8.85965
7.34288 0.147819 7.56803
8.01288 0.536214 7.44791
6.80001 6.05632 4.07861
1.32518 0.945012 8.22321
1.6125 0.784771 7.9425
7.5627 0.509674 7.49829
0.451592 5.85291 10
3.70817 8.54861 8.56656
1.48134 0.726071 8.3573
9.20469 4.138 2.14278
2.24663 8.43015 1.2186
9.86539 7.81128 7.62014
7.36987 1.44798 1.42566
5.20023 3.1257 7.55307
0.61042 5.31881 7.43195
7.18404 0.818491 7.42971
7.53599 0.568837 7.33707
8.04936 5.63951 0.120195
1.49373 0.784315 8.32581
1.78076 6.17676 3.93978
5.09085 0.392605 5.80205
7.68801 0.225791 7.35577
7.88259 1.02684 7.31768
7.4855 0.483759 7.37647
4.13136 8.87728 1.36412
7.98742 0.62931 6.99039
0.779385 8.78687 7.76485
1.5334 0.785474 8.24555
7.91006 0.695189 7.08691
7.39194 0.486202 7.50145
1.44459 6.24118 4.73609
7.57463 1.45746 6.62291
7.87803 0.435749 7.52788
7.91316 0.278122 7.19511
6.70286 8.44403 8.42431
7.75444 0.427303 7.69654
0.437965 5.74234 2.18513
0.0554745 5.44302 7.58035
7.66226 0.693543 7.40156
1.43551 2.71823 6.35816
6.62608 5.44814 2.44164
4.20562 5.53777 1.87206
POINT_DATA 400
SCALARS particleColor float 3
LOOKUP_TABLE default
1 5.96046e-08 0
0 0.606961 1
1 5.96046e-08 0
0 0.728869 1
1 5.96046e-08 0
0.397821 1 0.602179
1 0.593158 0
1 0.682621 0
0 0.830947 1
1 5.96046e-08 0
1 0.726078 0
1 0.529842 0
1 0.706315 0
1 0.180891 0
1 5.96046e-08 0
1 5.96046e-08 0
1 0.605932 0
0.60439 1 0.39561
0.426237 1 0.573763
1 5.96046e-08 0
0 0.870801 1
1 5.96046e-08 0
1 5.96046e-08 0
1 5.96046e-08 0
0.236181 1 0.763819
1 5.96046e-08 0
0.769724 1 0.230276
1 5.96046e-08 0
1 0.820951 0
1 5.96046e-08 0
1 5.96046e-08 0
1 5.96046e-08 0
0.243826 1 0.756174
1 5.96046e-08 0
1 5.96046e-08 0
1 5.96046e-08 0
1 0.360799 0
1 5.96046e-08 0
1 5.96046e-08 0
0.561504 1 0.438496
1 5.96046e-08 0
1 5.96046e-08 0
1 0.354896 0
1 5.96046e-08 0
1 5.96046e-08 0
0.704854 1 0.295146
1 5.96046e-08 0
0.14717 1 0.85283
0.929957 1 0.0700434
1 0.793909 0
0.617948 1 0.382052
1 0.130758 0
1 5.96046e-08 0
0.546489 1 0.453511
1 5.96046e-08 0
0.759342 1 0.240658
1 0.795901 0
1 0.852747 0
0 0.551986 1
0.061558 1 0.938442
1 5.96046e-08 0
1 5.96046e-08 0
1 5.96046e-08 0
1 5.96046e-08 0
1 5.96046e-08 0
0.954519 1 0.045481
1 5.96046e-08 0
1 5.96046e-08 0
1 0.534962 0
0.524544 1 0.475456
1 5.96046e-08 0
1 5.96046e-08 0
0.686026 1 0.313974
0.363973 1 0.636027
1 0.655328 0
1 0.323701 0
1 0.999789 0
1 5.96046e-08 0
1 5.96046e-08 0
1 5.96046e-08 0
1 5.96046e-08 0
1 0.637212 0
1 0.816492 0
1 5.96046e-08 0
1 0.266601 0
1 0.873601 0
0.51191 1 0.48809
1 0.908799 0
0.608511 1 0.391489
1 5.96046e-08 0
0.0161349 1 0.983865
0.824361 1 0.175639
1 0.492272 0
1 0.0843014 0
1 5.96046e-08 0
1 5.96046e-08 0
0.967569 1 0.0324314
1 5.96046e-08 0
1 0.910533 0
1 5.96046e-08 0
1 0.6875 0
1 0.973078 0
1 5.96046e-08 0
1 0.678324 0
0.730531 1 0.269469
1 0.983361 0
0 0.889626 1
1 5.96046e-08 0
1 5.96046e-08 0
1 0.380442 0
1 0.461728 0
1 5.96046e-08 0
1 5.96046e-08 0
0.536215 1 0.463785
0 0.570348 1
1 0.734567 0
1 5.96046e-08 0
1 5.96046e-08 0
1 0.808715 0
1 5.96046e-08 0
1 5.96046e-08 0
1 5.96046e-08 0
1 5.96046e-08 0
1 5.96046e-08 0
1 0.939871 0
1 5.96046e-08 0
1 0.390608 0
1 5.96046e-08 0
0.739901 1 0.260099
1 5.96046e-08 0
1 0.965586 0
1 5.96046e-08 0
1 0.959632 0
1 5.96046e-08 0
1 5.96046e-08 0
1 0.327888 0
0.479413 1 0.520587
0.597439 1 0.402561
1 0.0908779 0
1 0.49092 0
0.82294 1 0.17706
1 5.96046e-08 0
1 5.96046e-08 0
1 5.96046e-08 0
0.435983 1 0.564017
1 5.96046e-08 0
1 5.96046e-08 0
0.147322 1 0.852678
1 5.96046e-08 0
1 5.96046e-08 0
0 0.511883 1
1 5.96046e-08 0
1 0.145005 0
1 5.96046e-08 0
1 5.96046e-08 0
0 0.748473 1
1 5.96046e-08 0
1 0.315246 0
1 5.96046e-08 0
0.807858 1 0.192142
0.994988 1 0.00501239
1 0.953242 0
1 0.511756 0
1 0.84592 0
1 5.96046e-08 0
0.94139 1 0.0586096
1 5.96046e-08 0
1 5.96046e-08 0
0.0451513 1 0.954849
1 5.96046e-08 0
0 0.75476 1
1 0.236412 0
1 5.96046e-08 0
0.203936 1 0.796064
1 0.0541863 0
0.697214 1 0.302786
1 5.96046e-08 0
1 0.36109 0
1 0.675498 0
0.538374 1 0.461626
1 0.758437 0
1 5.96046e-08 0
0.103603 1 0.896397
1 0.0551596 0
1 0.928356 0
1 0.0904307 0
0 0.438336 1
1 5.96046e-08 0
0.384964 1 0.615036
1 5.96046e-08 0
0.896773 1 0.103227
1 0.122501 0
1 5.96046e-08 0
0.739847 1 0.260153
0.265316 1 0.734684
1 0.962776 0
1 5.96046e-08 0
1 0.66282 0
1 5.96046e-08 0
1 5.96046e-08 0
0 0.247563 1
0 0.662205 1
1 5.96046e-08 0
1 5.96046e-08 0
1 5.96046e-08 0
0.448379 1 0.551621
1 0.153966 0
1 5.96046e-08 0
1 5.96046e-08 0
1 5.96046e-08 0
1 0.559042 0
1 5.96046e-08 0
1 0.737815 0
1 5.96046e-08 0
0 0.602175 1
0.299225 1 0.700775
0.20911 1 0.79089
1 5.96046e-08 0
1 0.0887293 0
1 0.189773 0
1 5.96046e-08 0
1 0.00700134 0
0 0.788945 1
0.143539 1 0.856461
1 0.696655 0
1 0.431496 0
0.604636 1 0.395364
1 0.325149 0
0 0.431161 1
1 0.47472 0
1 0.276551 0
0.783295 1 0.216705
1 0.187886 0
1 5.96046e-08 0
1 0.571076 0
0.121607 1 0.878393
1 0.664026 0
1 5.96046e-08 0
0 0.666619 1
0.785514 1 0.214486
0 0.654204 1
1 5.96046e-08 0
1 0.855756 0
0.128422 1 0.871578
1 0.520226 0
0.26391 1 0.73609
0.974099 1 0.0259005
1 5.96046e-08 0
1 0.706551 0
1 5.96046e-08 0
1 0.46438 0
1 0.397131 0
1 5.96046e-08 0
1 5.96046e-08 0
0.759096 1 0.240904
0.478695 1 0.521305
1 5.96046e-08 0
0.560581 1 0.439419
0.415183 1 0.584817
1 5.96046e-08 0
1 0.0993026 0
1 0.885017 0
1 0.219633 0
0.342165 1 0.657835
0.245469 1 0.754531
0.995106 1 0.00489444
1 5.96046e-08 0
1 5.96046e-08 0
0.345108 1 0.654892
1 5.96046e-08 0
0 0.842286 1
1 5.96046e-08 0
1 0.994418 0
1 0.248167 0
1 0.650848 0
1 5.96046e-08 0
0.831676 1 0.168324
1 5.96046e-08 0
1 5.96046e-08 0
0.250789 1 0.749211
1 0.728698 0
0.457053 1 0.542947
1 5.96046e-08 0
1 0.574207 0
1 5.96046e-08 0
0.236594 1 0.763406
1 0.769781 0
1 0.677346 0
1 0.647034 0
1 5.96046e-08 0
0.501429 1 0.498571
1 5.96046e-08 0
0.769626 1 0.230374
1 5.96046e-08 0
1 5.96046e-08 0
0.377776 1 0.622224
0 0.901641 1
0.0458623 1 0.954138
0 0.700372 1
0 0.916726 1
0.630585 1 0.369415
1 5.96046e-08 0
0 0.746632 1
0.0349788 1 0.965021
0 0.669877 1
1 5.96046e-08 0
0 0.504728 1
0 0.674093 1
1 0.739064 0
1 5.96046e-08 0
0.666377 1 0.333623
0.871396 1 0.128604
1 0.803887 0
0 0.238735 1
1 5.96046e-08 0
0.580969 1 0.419031
1 0.0560198 0
0 0.41941 1
1 5.96046e-08 0
0 0.907138 1
1 5.96046e-08 0
0.137323 1 0.862677
0.0152295 1 0.98477
0 0.138284 1
0 0.497401 1
0.33556 1 0.66444
0 0.800714 1
1 0.6991 0
1 5.96046e-08 0
0 0.221624 1
1 5.96046e-08 0
0.254895 1 0.745105
1 5.96046e-08 0
1 5.96046e-08 0
0 0.674267 1
0.68771 1 0.31229
0.264779 1 0.735221
0 0.84256 1
1 5.96046e-08 0
1 0.476697 0
1 5.96046e-08 0
1 5.96046e-08 0
0.292337 1 0.707663
0 0.655855 1
0.0669674 1 0.933033
1 5.96046e-08 0
0 0.942853 1
0.092793 1 0.907207
0 0.584569 1
1 5.96046e-08 0
0 0.748105 1
0 0.477985 1
0.936889 1 0.0631108
0.881122 1 0.118878
1 0.85835 0
0 0.730186 1
0.329008 1 0.670992
1 5.96046e-08 0
0.0283721 1 0.971628
0 0.593085 1
1 5.96046e-08 0
0 0.549169 1
0 0.502737 1
0 0.586154 1
1 5.96046e-08 0
0.190901 1 0.809099
0 0.473093 1
0.943338 1 0.0566618
0.781135 1 0.218865
1 5.96046e-08 0
0 0.896549 1
1 5.96046e-08 0
1 5.96046e-08 0
0 0.656666 1
0.188046 1 0.811954
0.311551 1 0.688449
0 0.202167 1
1 5.96046e-08 0
1 0.41656 0
0.0942864 1 0.905714
0 0.782207 1
0 0.30981 1
1 0.270906 0
0 0.559603 1
1 5.96046e-08 0
0 0.551006 1
0 0.483287 1
0 0.401707 1
1 5.96046e-08 0
0.495976 1 0.504024
0 0.6411 1
0 0.619388 1
1 0.94173 0
0 0.50912 1
1 5.96046e-08 0
1 5.96046e-08 0
0 0.760594 1
1 0.677861 0
0.914534 1 0.0854658
1 0.95461 0
