# vtk DataFile Version 3.0
Particle simulation
ASCII
DATASET POLYDATA
POINTS 400 float
9.89182 8.20251 2.41073
5.08617 1.46599 1.1489
6.67697 6.12463 4.24006
4.21815 9.60146 3.3566
0.225712 6.37015 3.2615
1.35928 4.77119 8.5231
9.07761 8.42368 1.61265
8.79279 2.88917 5.14377
4.3847 7.15218 5.68166
4.90935 6.60877 1.65967
7.92162 0.700775 5.3422
5.97277 3.51662 0.321503
4.8435 2.16226 3.80146
0.177439 3.83537 0.919751
3.42387 5.67744 5.63731
3.03282 4.4081 2.61174
2.44173 8.83393 0.774889
4.30332 5.46631 7.3559
9.52555 7.25362 4.5991
8.80551 5.80776 1.67924
8.72599 8.21009 1.55864
8.5022 5.14262 7.59996
7.68289 3.00743 2.45928
2.064 2.37335 4.67044
6.26311 7.12913 4.03959
6.82791 5.30357 6.74398
6.46395 9.80079 8.14774
1.09244 8.01024 5.28349
1.24732 7.75818 2.79039
4.10987 7.66813 7.796
6.7091 3.31872 4.57651
3.4656 7.41686 3.1134
1.67603 8.08149 1.73028
6.28393 7.64663 9.53596
1.65062 9.73836 9.30096
6.18605 8.14321 9.22548
4.3252 8.60116 0.5136
7.95936 0.758312 5.11197
7.17788 2.19456 5.94992
2.04605 6.19606 2.81356
4.30804 7.63938 1.80523
0 0.320664 10
6.2948 4.17864 1.46778
7.29097 8.46455 9.60988
4.20212 6.17959 7.12032
8.61744 1.58763 5.50147
7.44036 9.0716 9.42315
3.263 9.10673 1.59524
4.10279 5.90669 1.33927
7.7282 5.52041 7.46117
3.74391 7.07119 1.16074
1.84178 1.06548 3.15169
1.5125 3.88813 8.31379
2.64596 4.48435 6.86032
3.64849 3.82516 3.14828
8.67239 6.34104 9.89776
6.99425 0.57407 6.01639
5.53655 9.18047 7.98008
1.98205 2.79476 1.41227
5.71494 0.707469 8.02592
0.389623 9.52816 6.20223
6.94549 7.82947 9.87422
3.70984 7.33959 4.5366
9.40121 6.5988 0.525073
1.83874 10 6.62223
2.74301 5.94068 0.810437
0.695167 3.39895 0
1.6567 4.92259 3.98924
1.61238 1.54493 2.41195
5.55148 5.75512 2.42342
9.43869 3.73977 8.34184
1.95906 3.18256 2.41507
2.3642 4.81802 5.32744
3.17314 0.764846 2.9675
3.78868 1.21773 4.95017
4.44355 2.54619 8.42344
6.75019 1.07751 9.42628
0 8.45863 8.59405
0.194216 5.90141 4.37253
8.99364 6.60635 9.07374
0.0854893 4.61042 2.54551
6.38502 7.19882 2.11814
8.08119 0.752373 6.33563
6.63182 9.14795 6.55754
10 10 10
9.83709 1.29552 0.152553
5.48945 0.621862 0.320039
0.119781 9.46347 1.98228
3.01105 2.43218 2.24583
6.85822 4.63068 6.71758
6.23376 5.32483 8.8875
7.06696 1.05121 3.04403
5.02296 9.66923 3.71259
4.78361 9.92054 3.78024
9.97354 3.93063 8.6419
6.59798 4.71 1.84625
5.99092 0.127318 0.560107
0.435944 1.03129 3.98572
8.71632 2.53657 5.77037
7.09626 1.43674 0
7.50218 7.59358 8.23403
4.90188 8.49277 6.65015
6.44635 8.06704 5.98845
5.95459 7.04663 0.117279
1.38162 1.52437 5.32009
8.62514 6.65757 0.655846
3.81266 9.95704 3.69691
6.52254 0.788522 8.32016
7.23693 5.23763 3.39136
0.599551 9.42999 0.896124
6.93091 6.9481 0.799633
7.21932 7.13689 4.00568
1.86087 8.38815 4.23953
4.52061 2.70912 8.29014
8.68802 4.02589 4.54228
9.20368 6.1489 4.60507
3.95752 8.50905 1.1158
0.402638 8.19728 0.80547
6.59455 2.99887 0.114463
4.32795 2.99957 6.47362
4.61938 7.44313 2.67415
8.9105 3.64599 1.87867
9.44707 1.15591 9.45436
8.19032 0 8.84912
8.15568 2.61001 4.25039
0.256328 5.74768 8.068
0.790194 1.42482 9.52507
3.31853 9.99156 4.69855
5.49152 2.50795 7.68633
1.52188 1.48725 9.76595
1.00399 9.67854 5.96811
2.16596 7.88851 8.24554
0.239223 2.55775 5.52364
1.69014 1.65494 2.84522
8.65903 6.75628 3.66541
10 2.43805 7.54943
3.51472 3.38861 2.05246
9.14077 4.29734 8.00373
7.79425 5.42404 3.68628
1.7221 4.26352 2.62648
0.917051 3.26191 5.99547
9.13403 6.33655 4.65115
7.76608 7.10299 8.58003
2.98931 9.35341 7.22175
1.81095 3.92771 5.95963
7.36114 7.0609 3.27826
3.19604 1.52358 6.47923
9.16035 1.71893 10
7.90284 2.12792 9.79102
5.66255 7.71254 9.08872
7.18927 0.717879 7.57612
7.70847 6.3043 5.78705
6.59562 5.71824 3.15296
0.285592 9.07252 0.820306
3.43172 0.674268 6.38379
5.32458 5.01731 3.50971
1.37097 2.34031 4.89738
1.964 9.56741 6.88751
3.80046 9.38641 4.10423
7.03239 8.40629 0.436123
3.3149 0.173723 8.44945
9.42329 2.77221 7.8237
5.69801 5.02441 2.9247
2.0447 9.56172 7.53865
3.93258 1.11487 4.78132
2.25485 0.321878 7.02891
4.3624 5.11955 3.29976
4.57778 0.787742 4.91397
8.035 4.86392 3.7807
4.7234 6.47419 6.18251
5.25878 7.29228 0.938532
8.45653 5.76517 9.34237
2.316 0.418083 5.10015
1.51673 5.68873 1.13049
2.68195 4.1589 5.58563
7.54723 8.70925 1.14705
7.40518 4.49999 8.41427
3.44929 4.09195 3.18256
8.46711 6.0634 1.30245
0.393108 1.6116 0.330184
8.35191 2.76004 8.34345
8.5158 1.74659 9.13661
3.47065 2.29562 3.26085
5.36579 7.51448 1.45598
2.87286 8.03415 1.86941
4.19979 0.501733 9.90614
0.314894 3.77432 2.61113
5.74242 0.336217 3.94064
9.95945 5.30362 3.26814
8.31153 1.32255 2.94357
0.067371 7.45607 8.28596
6.52155 2.42317 5.13514
7.00895 4.87213 6.42815
4.81316 3.94894 2.16586
9.54448 3.05081 5.82298
1.44118 5.78366 8.35208
3.10389 9.02885 7.73527
5.34845 3.49002 0.203495
3.67701 0 9.14433
3.33203 5.91961 1.68631
6.93997 6.50613 9.63074
2.59352 9.65802 8.44239
8.86427 3.20942 4.48625
2.89132 3.81159 10
4.59201 4.6434 8.85296
2.04771 7.19886 3.07788
8.08337 0.0523741 8.39441
8.99272 8.76583 4.06764
9.29294 8.71909 0.727653
8.37373 2.87411 9.92459
5.42119 4.44108 8.99251
3.72737 7.49242 7.79303
8.9147 6.95212 8.40366
8.39734 10 7.78788
0.299869 2.42563 6.83018
4.15792 3.09558 4.80396
8.29436 3.30284 3.68444
6.30588 1.04925 1.123
7.43654 1.701 9.4797
4.14388 1.4137 5.50084
8.0233 7.18635 0
7.74953 1.18588 8.74676
4.5836 3.36285 3.71839
9.87125 7.83804 1.29468
8.59104 5.20258 9.61556
3.11185 7.86252 6.93175
0.309658 3.90084 2.72898
9.33068 3.58961 5.79966
7.29526 0.49765 7.46973
7.53531 7.08626 6.49376
9.44671 3.92564 9.41694
4.32491 7.74888 7.03288
6.07362 3.33994 2.4487
7.08803 5.49991 7.73583
8.779 3.65063 4.53488
6.02838 8.70413 4.67469
0.73782 1.80156 9.39517
9.08921 7.59208 8.56584
7.82152 2.88806 8.80353
9.63387 7.20906 7.04072
7.2922 0.239577 7.68666
3.59401 5.88847 6.73148
5.16895 8.89312 8.71617
8.47736 8.11643 7.98577
4.85064 4.53951 2.51173
0.13886 0.60111 2.31415
0.0615428 2.46252 8.52139
7.4677 4.18606 7.08919
0.904513 2.48556 4.85163
7.00331 4.94749 5.39633
0.781994 1.03782 2.77026
4.14388 2.57017 8.95121
6.13077 8.35803 6.36643
7.82979 9.85225 9.13987
2.25825 2.10151 7.68958
6.83278 8.13651 7.9914
4.42148 1.73477 1.55688
6.00555 2.26921 3.75944
2.61925 6.05627 3.19087
8.71013 0.479165 9.74661
9.08017 6.87807 6.97378
8.95962 3.21061 8.62092
0.584327 5.18607 7.7556
7.76866 4.83821 6.14846
3.18582 7.32999 1.43147
1.47767 1.58378 4.96783
5.15749 0.691206 5.57979
4.72959 3.85908 6.87208
0.60447 6.12681 5.70063
9.31341 5.1271 1.45447
5.48173 2.42783 1.15575
2.38564 9.08806 0.722983
9.55107 7.3392 2.05544
7.00354 4.64091 1.41473
8.52519 4.22703 1.0521
8.70239 4.7791 4.85968
6.15657 6.90514 4.72053
2.09123 7.93342 3.86013
3.36949 7.86407 2.73679
8.95231 0.525886 3.40051
5.26311 3.24971 8.10398
5.73458 2.55004 3.35673
9.0149 3.54163 7.18053
5.77323 3.70366 5.59031
1.42772 0.517647 10
7.0307 2.27509 8.96695
4.91987 1.63362 4.15402
0.680031 2.22181 5.06793
3.48464 0.195244 5.28053
0.477414 8.34086 7.45585
7.86727 8.43609 1.52342
2.60529 4.58394 8.57148
0.724496 4.87891 2.57044
2.43616 8.51752 8.21058
4.30383 2.1062 0.579577
7.33592 4.4393 2.93773
1.75039 0.282286 9.81967
0.596777 2.09313 0.00925084
7.16405 0.431954 7.57581
1.25696 0.629866 4.30747
8.59214 4.17154 5.38599
9.59057 8.32491 4.81833
7.72734 0.317074 7.51287
0.97362 5.63339 5.6449
6.84347 0.59988 7.8419
2.92933 4.48525 1.71334
7.29857 5.52442 5.97838
7.35461 0.768561 7.80343
7.47787 9.96177 8.1129
4.4921 1.12059 9.09157
3.77251 7.98436 4.87614
6.14549 4.18717 9.01886
0.701942 5.6888 5.5415
7.3287 0.172024 7.84507
4.76338 6.30448 0.678702
7.99892 0.581996 1.22014
1.42425 8.58932 8.35165
6.82607 0.43376 7.45443
5.77748 7.35154 6.6198
3.3146 3.53764 1.67154
4.5352 8.39022 1.29458
4.63045 8.77947 2.06072
0.22664 4.47363 7.40059
9.61872 0.460268 4.81923
6.80918 0.666539 7.77825
3.43878 1.56673 3.30788
4.54634 5.88514 7.6096
0.992414 8.10393 6.36333
6.74467 5.3225 6.22697
7.42901 0.634083 7.52636
4.15485 1.74604 8.57937
0.934186 0.397035 4.03064
9.50475 3.06127 5.57359
2.16878 9.3422 4.59908
6.80963 7.09616 4.01655
6.53359 3.18063 10
7.60348 0.908309 8.38039
7.13958 0.736136 7.9539
4.07285 9.16218 5.4088
2.46878 9.88067 2.78552
9.34283 5.53898 4.12514
1.05297 10 3.8761
4.23571 6.22149 4.72764
2.90761 0.834836 9.11455
2.3594 7.3971 1.42647
4.48588 3.65377 3.64374
2.50533 1.28989 3.25296
4.67424 0 1.2994
6.88698 0.758606 7.57909
5.39394 8.77061 5.69031
7.27181 0.823724 7.5202
7.48361 0.662866 7.29829
2.52994 10 5.8762
0.226675 1.24769 7.95797
9.5375 2.44583 1.15213
7.30805 0.728627 7.61252
1.95285 9.38337 8.7824
6.45593 0.679661 0.554596
9.71435 0.242393 4.53226
7.29529 0.419353 7.80487
3.30389 7.37184 9.70128
3.89852 1.80175 8.70288
2.96828 2.07768 9.47082
7.24866 0.521426 7.43471
4.16607 0.944777 1.34385
3.47347 5.81177 1.18953
2.87487 2.24685 9.3042
7.15165 2.47411 7.67735
7.14023 3.61444 8.4685
2.58399 1.08696 9.25474
2.54204 1.16619 3.21706
0.559084 2.45882 2.30933
7.25587 8.60519 2.09831
7.25193 0.595821 7.2735
7.25969 0.777105 7.40177
8.98132 0.0721827 5.13361
2.77855 2.28689 9.27998
7.3955 0.987147 8.61178
6.73176 3.85129 0
7.4088 0.484828 7.53628
7.54341 1.72534 9.30179
7.15693 0.697917 7.77349
2.56533 0.65116 0.998208
7.65516 0.179346 7.35007
5.78277 1.34458 7.39815
2.79156 2.19182 9.32296
6.98695 0.763726 7.99041
7.20651 0.605875 7.39967
0.0392574 9.71378 6.51561
8.57139 4.73195 9.6102
7.33046 0.507662 7.60816
7.38772 0.570248 7.57413
3.64111 7.2045 8.38882
7.10191 0.667033 7.45662
0.652869 5.21272 6.71653
5.49847 6.1846 3.55717
7.08621 0.672115 7.33194
1.38992 7.53088 2.7444
8.63112 6.29738 7.02936
1.64696 2.29339 8.54917
POINT_DATA 400
SCALARS particleColor float 3
LOOKUP_TABLE default
1 0.932231 0
0.272809 1 0.727191
1 5.96046e-08 0
1 0.496227 0
1 0.818265 0
0 0.805972 1
1 5.96046e-08 0
1 5.96046e-08 0
1 0.386424 0
1 0.116878 0
0.896996 1 0.103004
1 5.96046e-08 0
1 5.96046e-08 0
1 5.96046e-08 0
0.59058 1 0.40942
1 0.992972 0
0.0674848 1 0.932515
1 0.740226 0
0 0.575249 1
1 0.567379 0
1 5.96046e-08 0
1 0.0808869 0
1 5.96046e-08 0
1 0.525408 0
1 5.96046e-08 0
0.675874 1 0.324126
1 5.96046e-08 0
0.166029 1 0.833971
1 0.275216 0
0.307758 1 0.692242
1 5.96046e-08 0
1 5.96046e-08 0
1 0.795225 0
0.750565 1 0.249435
0.433158 1 0.566842
0 0.49637 1
0 0.622819 1
0 0.986645 1
1 5.96046e-08 0
1 5.96046e-08 0
1 5.96046e-08 0
1 0.0388914 0
1 0.545492 0
0.1818 1 0.8182
0.899785 1 0.100215
0.463035 1 0.536965
1 0.0757485 0
1 5.96046e-08 0
1 5.96046e-08 0
1 0.815742 0
0.601755 1 0.398245
0.348956 1 0.651044
0.475776 1 0.524224
1 5.96046e-08 0
1 5.96046e-08 0
0 0.794504 1
0.778216 1 0.221784
1 0.757123 0
1 0.809785 0
1 5.96046e-08 0
0.169867 1 0.830133
1 0.740007 0
1 5.96046e-08 0
1 5.96046e-08 0
0 0.784809 1
0 0.766744 1
1 5.96046e-08 0
1 0.964914 0
1 0.859733 0
1 5.96046e-08 0
1 0.757904 0
1 5.96046e-08 0
1 0.859054 0
1 5.96046e-08 0
1 5.96046e-08 0
0.474845 1 0.525155
1 0.760117 0
1 5.96046e-08 0
0.923892 1 0.0761077
0.459489 1 0.540511
1 5.96046e-08 0
1 0.360737 0
0 0.433971 1
1 5.96046e-08 0
1 5.96046e-08 0
0 0.963651 1
1 5.96046e-08 0
1 0.665391 0
1 0.891392 0
1 0.317436 0
0.0287741 1 0.971226
1 0.825515 0
1 5.96046e-08 0
1 5.96046e-08 0
1 5.96046e-08 0
0 0.70675 1
0 0.964711 1
1 0.274172 0
0 0.44734 1
0.86318 1 0.13682
0 0.994973 1
1 0.0924215 0
1 5.96046e-08 0
0.703908 1 0.296092
0.825425 1 0.174575
0 0.5331 1
1 5.96046e-08 0
1 5.96046e-08 0
1 0.0395713 0
0.560254 1 0.439746
0.561082 1 0.438918
1 0.659281 0
1 5.96046e-08 0
0.509994 1 0.490006
1 0.0697575 0
0.218607 1 0.781393
0 0.763188 1
0.934594 1 0.0654063
1 5.96046e-08 0
1 0.622471 0
0.989133 1 0.0108672
1 5.96046e-08 0
1 5.96046e-08 0
1 5.96046e-08 0
0.904271 1 0.0957289
1 5.96046e-08 0
0 0.864104 1
1 5.96046e-08 0
1 0.387348 0
1 5.96046e-08 0
1 0.416959 0
1 5.96046e-08 0
0.845262 1 0.154738
0.510758 1 0.489242
1 5.96046e-08 0
0.41927 1 0.58073
0.204985 1 0.795015
1 0.190548 0
1 0.398171 0
1 5.96046e-08 0
1 5.96046e-08 0
1 0.483431 0
1 5.96046e-08 0
0.879343 1 0.120657
1 5.96046e-08 0
1 0.533033 0
1 0.527942 0
1 5.96046e-08 0
0.822176 1 0.177824
1 5.96046e-08 0
0 0.225463 1
0 0.479463 1
1 5.96046e-08 0
0.775882 1 0.224118
0.692991 1 0.307009
1 5.96046e-08 0
1 5.96046e-08 0
1 5.96046e-08 0
1 5.96046e-08 0
1 5.96046e-08 0
1 0.316152 0
0.520809 1 0.479191
1 5.96046e-08 0
1 5.96046e-08 0
1 5.96046e-08 0
0.00442474 1 0.995575
1 0.854703 0
1 0.180816 0
1 0.536451 0
1 0.906349 0
1 5.96046e-08 0
0.656021 1 0.343979
0.61604 1 0.38396
0 0.975656 1
1 5.96046e-08 0
0.707253 1 0.292747
0.779431 1 0.220569
0.93719 1 0.0628101
1 0.454228 0
1 0.726189 0
0.889849 1 0.110151
1 0.870063 0
1 0.709381 0
1 5.96046e-08 0
1 0.0888794 0
0.188748 1 0.811252
1 0.915786 0
1 5.96046e-08 0
1 0.727156 0
1 0.908782 0
1 0.0651692 0
0 0.874276 1
1 0.480929 0
1 5.96046e-08 0
1 0.898301 0
0.722009 1 0.277991
1 0.929131 0
1 0.55865 0
1 0.940711 0
1 0.600395 0
1 0.438676 0
1 5.96046e-08 0
1 5.96046e-08 0
1 5.96046e-08 0
1 5.96046e-08 0
0.255977 1 0.744023
1 5.96046e-08 0
1 0.839554 0
1 5.96046e-08 0
1 0.963904 0
1 0.91559 0
0.294555 1 0.705445
0.891024 1 0.108976
1 5.96046e-08 0
1 0.615035 0
1 0.841146 0
1 5.96046e-08 0
1 5.96046e-08 0
0 0.861819 1
1 0.667858 0
1 5.96046e-08 0
1 0.430313 0
1 0.933582 0
1 5.96046e-08 0
1 5.96046e-08 0
1 5.96046e-08 0
0.466231 1 0.533769
1 5.96046e-08 0
0 0.438845 1
0 0.911972 1
0.745139 1 0.254861
1 5.96046e-08 0
1 0.408778 0
1 5.96046e-08 0
0.0724541 1 0.927546
1 0.669353 0
0.93326 1 0.0667402
0.516443 1 0.483557
0 0.670762 1
1 5.96046e-08 0
0 0.522347 1
1 5.96046e-08 0
1 5.96046e-08 0
1 0.818185 0
1 0.0636428 0
1 5.96046e-08 0
0.254281 1 0.745719
1 5.96046e-08 0
0.673962 1 0.326038
1 5.96046e-08 0
1 0.428224 0
1 5.96046e-08 0
1 5.96046e-08 0
1 0.184037 0
1 5.96046e-08 0
1 0.0413222 0
0 0.73511 1
1 0.900578 0
0.686068 1 0.313932
1 0.798577 0
1 0.67222 0
1 5.96046e-08 0
0.675679 1 0.324321
0.577427 1 0.422573
1 5.96046e-08 0
0 0.844288 1
1 5.96046e-08 0
1 0.0226561 0
0 0.86832 1
1 0.737034 0
1 5.96046e-08 0
1 0.453773 0
1 5.96046e-08 0
1 0.602703 0
1 0.66635 0
0.660294 1 0.339706
0.732789 1 0.267211
1 0.552794 0
1 5.96046e-08 0
1 0.71979 0
0.00149915 1 0.998501
1 0.186838 0
1 5.96046e-08 0
1 5.96046e-08 0
0.49111 1 0.50889
1 0.89554 0
1 0.6923 0
1 0.0379004 0
1 5.96046e-08 0
1 5.96046e-08 0
0.0236887 1 0.976311
1 5.96046e-08 0
1 0.0937954 0
0.639646 1 0.360354
0.498361 1 0.501639
0 0.771391 1
1 0.746709 0
0 0.885385 1
0 0.488197 1
0 0.558793 1
1 5.96046e-08 0
1 5.96046e-08 0
0 0.562927 1
1 0.565715 0
0 0.637484 1
1 0.531426 0
1 5.96046e-08 0
0 0.868101 1
1 5.96046e-08 0
0.568683 1 0.431317
0.183048 1 0.816952
1 0.70071 0
1 5.96046e-08 0
0 0.6526 1
1 5.96046e-08 0
0.644914 1 0.355086
1 0.613275 0
0.00266875 1 0.997331
1 0.591851 0
0 0.499182 1
0 0.892707 1
1 5.96046e-08 0
0 0.804542 1
0 0.570287 1
0 0.568321 1
1 5.96046e-08 0
1 0.340565 0
0 0.558742 1
1 5.96046e-08 0
0 0.498515 1
0 0.319684 1
0 0.688936 1
1 0.909142 0
1 5.96046e-08 0
1 0.891504 0
0.381371 1 0.618629
1 0.0891446 0
0 0.56354 1
1 0.955131 0
0.910797 1 0.0892031
1 5.96046e-08 0
1 0.788904 0
1 0.915817 0
0 0.656562 1
0.903096 1 0.0969043
1 0.968076 0
0 0.505856 1
1 0.243703 0
0 0.741191 1
1 0.608673 0
0.211909 1 0.788091
0 0.500263 1
1 0.0570096 0
1 5.96046e-08 0
0.233457 1 0.766543
0 0.842792 1
1 5.96046e-08 0
0.446228 1 0.553772
0.168356 1 0.831644
0 0.400092 1
1 0.416723 0
0.285417 1 0.714583
0 0.776295 1
0 0.50075 1
1 0.430399 0
1 0.293526 0
0 0.181736 1
0.707476 1 0.292524
1 0.979436 0
0.222861 1 0.777139
0 0.681153 1
1 5.96046e-08 0
0.586814 1 0.413186
0 0.505895 1
0 0.771351 1
1 5.96046e-08 0
0 0.304616 1
1 0.882885 0
1 5.96046e-08 0
0 0.796646 1
0.0231134 1 0.976887
0 0.95077 1
1 0.775377 0
0 0.727521 1
1 5.96046e-08 0
0 0.223806 1
0 0.717246 1
0 0.891915 1
1 0.652143 0
0.686442 1 0.313558
0 0.459336 1
0 0.550894 1
1 0.508396 0
0 0.815237 1
0.536213 1 0.463787
1 5.96046e-08 0
0 0.669727 1
1 5.96046e-08 0
1 0.821949 0
1 0.856029 0
