# vtk DataFile Version 3.0
Particle simulation
ASCII
DATASET POLYDATA
POINTS 400 float
1.41862 5.52241 6.53467
1.50116 9.01296 3.7557
5.83143 0 8.54609
5.89402 8.77411 1.6294
8.3538 2.86627 9.46501
0.94979 0.0244493 3.3085
2.94478 5.1465 3.42955
4.26627 7.76692 7.97209
4.46607 8.29996 8.93243
0.0582487 0.24779 3.26784
5.84619 2.39631 4.96679
0.558611 7.28524 6.94499
9.60817 9.14399 0.75547
2.66509 6.20791 7.19344
3.03625 2.04958 9.57238
0.514053 4.67218 9.25198
6.9088 8.00943 8.02013
8.44983 0 8.3031
2.40141 8.46975 8.66297
5.49482 9.53645 4.86826
5.45516 6.61019 0.070991
5.59556 2.70979 4.00943
3.82107 7.92851 7.70174
1.99137 2.12855 1.37641
6.31133 9.41081 8.94346
5.35629 0.758489 1.52261
5.60513 4.83364 1.23766
8.91498 1.68218 5.20628
6.39339 2.18969 1.67274
3.0095 3.09115 8.62418
4.06556 0.705065 10
9.59629 7.16611 0.405342
6.50113 2.12459 3.56818
3.35431 1.20938 1.89131
8.09178 2.93256 0.992947
6.36319 9.93586 1.22662
5.15284 9.56186 9.70576
1.46279 6.10144 1.56761
1.24416 1.73099 6.89808
8.65093 9.44353 10
1.35792 1.43807 5.52565
8.73805 5.27054 0
8.05473 0.0498213 5.99479
6.8024 2.12684 1.99178
8.02485 6.75398 6.71162
3.07715 4.31052 0
7.42057 8.97825 6.04707
0.350515 9.15315 8.56034
2.55757 0.442984 0.765552
4.22322 3.32635 2.61829
9.70284 6.96967 2.22684
9.24503 1.32851 5.65507
9.20771 9.08847 1.44455
0.363138 5.40555 6.30486
8.08276 6.33909 0.919778
9.56003 8.9377 6.54229
0.877731 0 9.14278
3.81459 1.61194 4.21156
3.40292 8.5931 6.035
4.32535 7.90586 1.9382
9.69762 0 0.0916033
1.07682 4.35461 0.894459
1.84153 3.31479 1.66514
8.42563 0.998712 5.29386
3.78906 0.373949 4.76856
2.34532 1.53899 10
8.89612 1.02132 5.27145
3.53358 7.78154 7.91542
0.443067 4.93391 1.20432
2.39011 0.165397 8.13806
5.30533 9.91805 0
7.48231 2.44804 6.04507
1.35034 2.17122 6.60215
2.16273 7.44868 2.80454
5.74717 1.37449 7.45935
3.28014 3.67718 3.91976
9.73691 2.63504 8.28726
7.11807 4.00392 8.96885
9.49799 2.61303 9.90991
9.83133 2.44821 1.76799
3.77483 9.1858 1.31049
8.15316 0.991456 7.40209
8.02749 7.51178 6.49269
7.5342 9.26027 7.02619
1.00879 1.36673 6.63294
4.30675 1.61358 4.82673
0.374495 7.73959 8.98434
6.71979 0.464245 0.306647
9.02639 9.23801 3.74944
0.177542 3.65117 4.73924
8.54078 7.71314 6.48609
4.62389 1.2933 9.58174
0.39501 7.53134 5.92474
9.01342 9.01957 2.12706
5.58809 1.34817 5.05536
7.75681 1.37963 0.542
9.61053 2.568 6.13644
6.40429 3.22496 6.31842
2.82957 1.85479 8.13107
1.46449 6.70828 9.14861
2.01846 1.33621 2.33701
5.79133 4.33296 9.72957
3.53059 6.67231 4.75073
3.345 6.33656 1.32682
2.81435 4.16459 0.15778
2.35095 6.8683 8.2804
9.88033 3.32057 2.42228
6.52709 2.32089 7.24818
5.53799 3.75827 4.05058
1.23139 1.85954 4.0955
2.1424 2.19413 6.03018
6.35449 0.474065 5.22085
3.90834 8.86074 5.14538
8.77946 1.48808 5.03163
4.88878 1.44656 9.45964
7.36786 4.04168 5.26258
1.9633 0.797547 0.339338
2.30177 6.44227 6.5193
2.38433 6.58675 7.76948
9.09837 6.71558 5.81593
5.91111 3.48955 8.99224
8.84661 1.72964 9.20995
7.82938 5.32854 8.58859
0 2.6958 0.508712
6.40944 8.44974 1.6688
5.54605 7.27645 0.0358878
4.01125 7.61067 2.74284
7.02145 2.53814 7.19746
2.99049 4.45836 6.42088
6.57309 2.21149 8.79777
0.996631 10 0.0686779
3.34354 4.28702 2.06373
4.9423 3.61053 3.38004
0.527794 5.74675 3.25096
2.07195 6.07948 7.63906
2.39394 0.0511175 9.75569
2.55591 4.16513 5.67903
3.65548 5.47268 3.44022
0.318127 0.471842 4.89744
3.49706 6.07854 3.93417
6.29591 0.271949 5.8302
7.55107 9.36896 3.9843
9.45866 5.04755 3.07191
3.788 6.70031 9.69409
1.10337 4.99919 4.57552
3.49225 0.683628 8.80317
0.736263 9.23591 7.92277
8.78066 1.7586 6.78453
7.62527 6.78706 8.87436
8.81361 9.01134 1.13223
5.90021 0.170051 5.97517
2.73102 3.81275 8.37097
1.47226 6.54159 8.58998
6.99675 10 5.66824
6.92043 1.37002 1.46969
3.00896 6.80131 1.87672
4.10008 7.28802 0.273618
2.13077 9.48817 8.90312
6.14556 1.98855 5.54528
9.17208 1.91335 0.990298
8.0031 0.0920556 3.57445
1.37136 9.40782 5.0818
0.654607 3.08162 7.15783
8.24703 2.72208 7.68912
1.03148 7.41074 6.76486
5.39126 1.29836 3.32946
2.76106 1.54477 7.44006
4.79333 5.57492 0.806239
7.56182 8.36295 8.01273
9.92475 2.44739 0.132368
10 2.4036 1.34819
1.73493 8.74104 5.99248
7.29162 4.55894 5.09772
8.12244 2.89094 8.06576
3.01209 6.76993 0.960051
9.62574 0.282228 2.53324
6.31404 0.174361 7.9476
2.69476 7.53921 9.0014
9.03183 8.97282 4.571
6.66036 2.64449 10
9.95317 1.54371 2.9939
2.63962 6.20606 1.76396
6.90984 7.33011 10
7.68962 1.99261 7.73126
9.20045 9.54421 3.9905
0.529243 1.73556 4.44539
6.55032 0.262512 5.82016
6.27828 1.53431 5.9625
5.86422 6.34099 1.62794
9.15233 9.1697 2.04709
1.03234 8.71365 0.154458
1.14454 8.81908 4.92289
0.820521 9.75764 7.20645
9.32871 0.501805 2.00691
6.18295 9.52391 1.46978
1.34795 4.25048 4.84295
0.802651 6.1572 5.52985
6.03626 9.8799 3.02956
9.80395 0.6868 7.37735
5.26062 8.22532 6.80054
6.29669 0.252847 5.84816
1.07588 0.737423 6.15824
8.77201 3.02169 5.96882
1.76196 8.22416 8.58401
4.11258 0.495405 4.35181
3.56381 7.88414 3.66501
3.22019 9.71462 7.3535
6.86087 8.76784 7.13726
3.12961 6.24357 1.6374
9.00117 5.23442 5.34275
6.38945 0.620982 5.56906
8.36005 9.3934 3.87873
6.9698 4.01583 4.73401
0.347423 5.16233 1.66383
4.75625 2.85776 8.46063
4.95008 9.97709 8.75959
9.38596 0.65221 4.75634
0.578204 2.82557 0.558662
3.89083 1.08721 0
5.21235 3.92394 7.72591
7.56064 9.45354 1.04458
3.81328 7.32462 5.28387
0.00480604 9.83011 6.45967
9.21319 0.436841 4.77598
9.16943 8.04064 4.80125
5.29517 7.94577 0.941008
9.39786 6.45272 0.0619947
0.151298 4.54979 8.386
6.29807 0.4823 5.79603
8.25712 1.49995 3.4783
0.473608 8.9274 4.01899
0.636825 6.4354 0.175843
3.48196 7.7561 4.47835
3.11357 6.57663 8.33542
4.31788 0.290114 8.56773
5.71914 0.228133 6.1215
9.1009 1.51168 2.01901
1.79788 2.20518 6.56122
6.38692 0.319745 5.8562
4.29156 2.94896 7.62768
9.35716 0.55802 4.81614
9.46654 8.48364 8.58346
0.795249 5.89246 2.8228
7.11051 2.23295 1.97652
8.32243 0.117268 3.56366
8.50576 5.37151 4.07843
9.18928 7.70941 9.42007
3.7944 0.458614 1.83103
0.392799 8.8704 9.22751
8.3857 0.276271 7.97372
9.49472 0.792414 4.81129
3.38945 4.93626 9.86561
1.04209 3.02262 6.68124
1.81151 9.03275 8.37656
1.26073 1.09637 4.52924
9.83281 3.76294 4.02334
1.4013 2.42321 8.25372
3.27394 0.409533 9.32928
0.786149 10 6.16898
2.26283 6.26191 0.632544
5.88619 8.30344 4.69111
4.51761 3.31006 3.00452
9.43547 5.7133 2.04295
2.1204 1.93376 9.13532
8.06252 6.21307 4.39311
6.81006 3.12462 6.73518
1.63064 4.49571 1.46954
7.00079 4.49345 3.20796
3.84738 0.0425135 4.62003
8.21371 4.80742 5.63742
6.45834 1.40748 6.07778
6.99919 2.48112 9.16208
7.08671 2.15775 0.59516
1.99371 9.4072 1.69393
4.33468 5.39804 0.819468
6.82957 0.233542 8.41697
3.7616 3.57805 5.30137
8.5807 1.41579 6.46995
9.3191 2.99152 0.232791
6.42657 0.318522 5.54423
2.26695 4.59208 6.57348
4.5505 4.16139 0.442882
0.379819 0.271976 5.27857
8.66066 1.03346 0.727377
10 0 1.74955
2.71539 7.165 0.627638
4.16013 4.06648 6.54097
4.1411 2.73327 2.85134
3.811 1.10578 4.69164
2.75741 0 3.54343
3.61182 6.3983 3.335
2.15396 5.98201 6.80618
8.87674 0.559282 7.37826
8.4277 5.23101 2.66533
8.16314 2.52856 7.06642
0.396192 0.563761 8.60367
6.21026 0.325903 5.73331
6.50194 0.473972 5.85371
6.32216 0.516841 5.72002
6.02824 0.262339 6.08324
0.77818 2.18316 4.03486
6.27582 6.31698 4.38431
6.52875 0.540271 5.75656
1.42591 8.14902 3.85809
6.19437 0.744785 5.50467
2.17437 4.34767 5.2764
6.04718 0.256387 5.91973
6.56901 0.295225 5.7399
4.86981 0 4.40187
4.80243 2.31668 2.62955
4.52544 6.64457 6.30127
2.86139 7.58941 1.77735
3.38201 0.906394 0.335786
5.81589 0.193738 5.41345
6.18729 5.53486 7.05286
9.46328 5.09382 3.24943
0.569494 3.32121 8.10003
6.39268 3.65053 3.69261
1.67977 6.13025 7.74493
7.49208 9.28337 0.882882
4.60429 9.23222 7.30092
6.24209 7.68135 4.68163
0.584973 0.51188 8.71832
6.52929 0.261648 5.78537
6.29623 0.109818 5.07276
3.55808 8.43011 5.08267
6.01463 0.102992 5.50799
3.19355 6.20293 1.37941
5.43878 1.97044 9.74136
6.42046 0.435526 6.08114
5.20207 2.71645 8.45485
4.67503 1.75515 2.85565
8.46425 4.93685 2.65138
7.83362 5.61365 8.07483
5.18888 6.66006 0
9.82135 8.44134 3.39445
8.3455 5.70059 3.22005
6.49279 0.305106 5.78599
0.487959 10 5.45054
6.92472 5.74634 10
9.84525 3.40729 8.50907
6.30749 5.38197 0.97998
6.70374 0.354614 1.18098
0.455999 0.486719 8.73232
6.75473 0.374021 5.93391
6.7133 0.112341 5.12847
9.43435 1.0835 9.6161
5.89079 0.206369 5.60399
6.46098 0.535058 5.77229
8.29579 0.0893868 5.64676
6.99255 0.378918 5.62953
5.71262 0.476015 6.06034
9.30324 10 3.48387
8.4309 1.60322 2.67295
1.60976 2.66055 3.33065
6.70274 0.340826 6.18325
1.00897 5.94654 9.72466
1.44935 1.05336 5.6854
5.99778 0.358383 5.85991
6.42312 0.224181 6.14068
3.10677 4.70029 1.00432
0.486678 0.519633 8.89418
0.305221 0.529102 8.70321
6.13588 0.329564 5.8521
6.53596 0.380994 6.05551
3.46311 0.344981 5.80027
0.58215 0.603267 8.74605
5.02911 0.323982 0.810694
0.463531 0.728124 7.95947
9.82095 7.7035 7.08341
9.32879 1.10552 9.99695
5.73395 5.94774 9.6569
2.09094 3.14963 2.28134
6.26535 0.57099 6.37417
6.6176 0.607342 5.35351
9.49065 0.911094 9.77591
0.66455 0.63447 8.67777
1.53181 1.13015 9.40525
9.8128 0.860713 7.71129
9.30924 0.461625 4.71079
6.56257 0.421203 5.5345
6.28372 0.56496 5.78543
9.01987 4.70938 8.35521
6.23276 0.123373 5.90983
1.26008 8.18381 0
0.437105 0.552129 8.61482
6.28046 0.341216 5.56434
6.59994 0.410278 5.93153
8.55223 6.70489 2.68751
0.67176 6.86809 5.16099
6.05099 0.409774 5.74168
6.16611 0.755284 5.99113
1.60648 1.05199 9.3934
6.36933 0.247327 5.72161
1.91224 0.407037 7.90127
3.46364 0.298431 9.67979
6.36103 0.266557 5.79427
2.34503 2.18005 8.61692
0.781161 6.44718 6.96336
1.34512 9.50955 6.44555
POINT_DATA 400
SCALARS particleColor float 3
LOOKUP_TABLE default
1 5.96046e-08 0
1 0.0639292 0
0.273574 1 0.726426
1 5.96046e-08 0
1 5.96046e-08 0
1 5.96046e-08 0
1 5.96046e-08 0
0.871294 1 0.128706
1 5.96046e-08 0
0.0125176 1 0.987482
1 0.985536 0
0.498063 1 0.501937
0.664922 1 0.335078
1 0.382543 0
1 0.947801 0
1 0.487561 0
1 0.0884264 0
1 5.96046e-08 0
0.72666 1 0.27334
1 5.96046e-08 0
1 5.96046e-08 0
1 0.898168 0
1 0.538102 0
0.486113 1 0.513887
0.0231054 1 0.976895
1 5.96046e-08 0
1 5.96046e-08 0
0.459308 1 0.540692
1 0.452041 0
0.0714436 1 0.928556
0.74803 1 0.25197
1 5.96046e-08 0
1 5.96046e-08 0
1 0.379616 0
1 0.143608 0
1 5.96046e-08 0
0.18872 1 0.81128
0 0.955109 1
1 0.445633 0
0 0.95945 1
1 5.96046e-08 0
1 5.96046e-08 0
1 0.71494 0
1 0.964418 0
1 0.88777 0
1 0.838814 0
1 0.115039 0
1 5.96046e-08 0
1 5.96046e-08 0
1 5.96046e-08 0
1 0.890471 0
1 5.96046e-08 0
1 5.96046e-08 0
1 0.982792 0
0.889634 1 0.110366
1 0.861299 0
1 5.96046e-08 0
0 0.248042 1
1 0.855138 0
0 0.9197 1
1 5.96046e-08 0
1 0.134496 0
1 5.96046e-08 0
1 0.706171 0
1 5.96046e-08 0
1 5.96046e-08 0
1 0.779566 0
1 5.96046e-08 0
1 5.96046e-08 0
1 0.856904 0
1 0.438528 0
1 5.96046e-08 0
1 0.932585 0
0.108961 1 0.891039
0.95315 1 0.0468498
0.54845 1 0.45155
1 0.236392 0
1 0.746448 0
0.125509 1 0.874491
0.759247 1 0.240753
0.908611 1 0.0913887
1 5.96046e-08 0
0 0.460877 1
1 0.941513 0
0.754901 1 0.245099
1 0.954929 0
0.710558 1 0.289442
1 0.216775 0
1 0.889486 0
0.280475 1 0.719525
1 0.762968 0
1 0.871743 0
0.946124 1 0.0538759
1 5.96046e-08 0
0.99878 1 0.00121993
1 5.96046e-08 0
1 0.0882221 0
1 0.902463 0
1 5.96046e-08 0
0.0481372 1 0.951863
0.94791 1 0.0520896
1 0.203698 0
1 5.96046e-08 0
1 0.283902 0
1.40884e-05 1 0.999986
1 5.96046e-08 0
1 5.96046e-08 0
1 0.562239 0
1 0.0614181 0
0.520805 1 0.479195
1 0.852101 0
0.255078 1 0.744922
1 0.202457 0
1 0.896873 0
1 0.539977 0
1 0.145334 0
1 0.596764 0
1 5.96046e-08 0
1 0.741791 0
1 0.856862 0
1 0.918412 0
1 5.96046e-08 0
1 0.933033 0
1 5.96046e-08 0
0.850777 1 0.149223
1 5.96046e-08 0
1 0.914195 0
0.894794 1 0.105206
1 0.654279 0
1 5.96046e-08 0
1 5.96046e-08 0
1 5.96046e-08 0
0 0.691319 1
1 5.96046e-08 0
0.712021 1 0.287979
1 0.681078 0
1 5.96046e-08 0
1 5.96046e-08 0
0 0.762722 1
1 5.96046e-08 0
0 0.720184 1
1 5.96046e-08 0
0 0.65547 1
1 0.259461 0
1 0.110426 0
0 0.877318 1
1 5.96046e-08 0
1 5.96046e-08 0
1 0.830658 0
1 5.96046e-08 0
0 0.177403 1
1 5.96046e-08 0
1 5.96046e-08 0
1 5.96046e-08 0
0.23504 1 0.76496
0.457305 1 0.542695
1 0.760536 0
0.626703 1 0.373297
1 0.991209 0
1 0.997535 0
1 0.884105 0
1 5.96046e-08 0
1 0.790345 0
0.896907 1 0.103093
1 0.611743 0
0 0.635029 1
1 5.96046e-08 0
1 5.96046e-08 0
0 0.823998 1
0.455984 1 0.544016
1 5.96046e-08 0
1 5.96046e-08 0
0.78284 1 0.21716
1 5.96046e-08 0
1 5.96046e-08 0
1 0.88717 0
1 0.771309 0
1 5.96046e-08 0
0.950238 1 0.0497616
0.666332 1 0.333668
1 0.230397 0
1 0.790283 0
1 0.955197 0
1 0.405891 0
0.895455 1 0.104545
1 5.96046e-08 0
0 0.207991 1
0.298894 1 0.701106
1 5.96046e-08 0
0.891332 1 0.108668
1 0.0907212 0
1 5.96046e-08 0
1 5.96046e-08 0
0.214465 1 0.785535
1 5.96046e-08 0
1 0.256509 0
0 0.580711 1
0.012985 1 0.987015
1 0.993083 0
1 5.96046e-08 0
0 0.369689 1
1 0.0509301 0
1 0.899875 0
1 5.96046e-08 0
1 5.96046e-08 0
1 5.96046e-08 0
1 5.96046e-08 0
1 0.612638 0
1 0.71623 0
1 5.96046e-08 0
0 0.497905 1
1 5.96046e-08 0
1 5.96046e-08 0
1 5.96046e-08 0
1 0.121121 0
0.865275 1 0.134725
0 0.412663 1
1 0.294235 0
1 5.96046e-08 0
1 5.96046e-08 0
1 0.881962 0
1 5.96046e-08 0
1 0.172599 0
0 0.555353 1
1 5.96046e-08 0
1 5.96046e-08 0
1 0.175346 0
1 0.917378 0
0 0.500618 1
0.558095 1 0.441905
0.933724 1 0.0662757
0.135269 1 0.864731
0 0.939772 1
0 0.974873 1
1 5.96046e-08 0
0.76826 1 0.23174
0 0.374334 1
0.329084 1 0.670916
0 0.34183 1
1 5.96046e-08 0
0 0.900844 1
1 5.96046e-08 0
1 0.579713 0
1 5.96046e-08 0
1 0.899305 0
0 0.906986 1
0 0.981695 1
1 0.0903789 0
0.294174 1 0.705826
1 0.854195 0
0.0188735 1 0.981126
1 5.96046e-08 0
0.87898 1 0.12102
1 5.96046e-08 0
1 5.96046e-08 0
1 5.96046e-08 0
1 5.96046e-08 0
0 0.815224 1
1 0.995905 0
0.676039 1 0.323961
0.284205 1 0.715795
1 5.96046e-08 0
1 5.96046e-08 0
1 5.96046e-08 0
0 0.616986 1
1 0.19794 0
0 0.636829 1
1 0.299671 0
1 5.96046e-08 0
1 0.504456 0
0 0.851478 1
0.996842 1 0.00315779
1 0.642459 0
1 5.96046e-08 0
1 5.96046e-08 0
0.40404 1 0.59596
1 5.96046e-08 0
1 5.96046e-08 0
1 0.531876 0
0 0.557483 1
1 5.96046e-08 0
0.885434 1 0.114566
1 5.96046e-08 0
0.229449 1 0.770551
1 5.96046e-08 0
0.898357 1 0.101643
0.21463 1 0.78537
1 5.96046e-08 0
0.555282 1 0.444718
1 0.27648 0
1 5.96046e-08 0
1 5.96046e-08 0
0.57193 1 0.42807
0.121698 1 0.878302
1 5.96046e-08 0
0 0.364245 1
0 0.779444 1
0 0.831738 1
0.00312383 1 0.996876
0.119484 1 0.880516
1 0.239383 0
1 5.96046e-08 0
0 0.467526 1
1 5.96046e-08 0
0 0.6983 1
0.553096 1 0.446904
0 0.255687 1
0 0.374989 1
0.236995 1 0.763005
1 5.96046e-08 0
0.488565 1 0.511435
0.337567 1 0.662433
1 0.837412 0
0.00529271 1 0.994707
1 5.96046e-08 0
1 5.96046e-08 0
1 0.265048 0
0.182871 1 0.817129
0.0734214 1 0.926579
1 5.96046e-08 0
1 0.461211 0
0 0.777226 1
0 0.402197 1
0 0.459497 1
0 0.79595 1
0.555588 1 0.444412
0 0.698766 1
1 0.837041 0
0.441497 1 0.558503
0 0.441622 1
0.277817 1 0.722183
1 5.96046e-08 0
1 0.54344 0
0.862777 1 0.137223
1 5.96046e-08 0
1 5.96046e-08 0
0.61132 1 0.38868
0 0.335234 1
1 5.96046e-08 0
1 0.85876 0
1 5.96046e-08 0
0.218288 1 0.781712
1 5.96046e-08 0
0 0.686076 1
0.281989 1 0.718011
0 0.72774 1
0 0.844428 1
0 0.185068 1
0 0.979878 1
1 5.96046e-08 0
0 0.776988 1
0 0.292507 1
1 5.96046e-08 0
1 0.4462 0
0.591636 1 0.408364
0 0.248801 1
0.717548 1 0.282452
1 0.456538 0
0 0.899684 1
0 0.610328 1
1 0.268035 0
0 0.736597 1
0 0.155735 1
0.0167988 1 0.983201
0 0.851244 1
1 0.252568 0
0 0.1468 1
1 0.947619 0
0 0.74059 1
1 5.96046e-08 0
0.379789 1 0.620211
1 0.531704 0
0.527428 1 0.472572
0 0.719143 1
0 0.494707 1
0 0.240711 1
0 0.223629 1
0.0907277 1 0.909272
0.322545 1 0.677455
0.0724596 1 0.92754
0 0.787919 1
0 0.286529 1
1 0.777707 0
0 0.951038 1
1 5.96046e-08 0
0 0.470427 1
0 0.957782 1
0 0.901871 1
1 5.96046e-08 0
0 0.91815 1
0 0.538082 1
0 0.522415 1
0.14211 1 0.85789
0 0.96491 1
1 5.96046e-08 0
0 0.683789 1
0 0.854735 1
1 0.496411 0
0.579874 1 0.420126
0.731331 1 0.268669
