# vtk DataFile Version 3.0
Particle simulation
ASCII
DATASET POLYDATA
POINTS 400 float
5.12817 0.166601 9.42571
6.16683 4.35838 7.07413
0.116455 1.46631 6.4112
4.13448 0.469941 3.39492
9.62402 1.40571 5.6842
3.26435 2.60194 0.274291
1.46451 0.825173 0.5328
6.66437 3.09721 2.42356
7.7132 2.73316 6.44846
2.23459 1.56471 8.05745
6.12949 3.63756 4.16507
0 6.33519 0.0249696
9.4699 1.22016 8.63415
1.88221 7.69107 2.30138
6.83218 3.80687 3.41633
8.39249 5.05875 9.67113
1.44498 4.33722 0.762148
2.91153 0.540346 2.36626
1.47949 5.34445 7.74788
3.8551 0.119351 2.64267
3.35138 0.230638 1.77754
8.20095 1.69764 2.51123
9.19542 0 7.05894
1.16281 2.01717 0.380186
3.58956 5.0282 1.01425
2.31273 0.19412 2.97569
9.50053 6.09071 0
1.4361 2.27718 0.788012
8.68374 0.141124 3.64502
7.62679 2.62868 1.86537
2.03575 3.98544 9.62053
3.48852 5.24653 2.84617
5.56286 2.07585 4.47512
2.07874 0.396359 3.2814
7.69451 2.26084 2.17535
5.97517 3.71484 0.14423
6.63599 1.0858 2.05008
2.70787 0.567162 1.05187
7.20357 0.449231 2.73269
0.0690646 0.547193 6.26803
0.804939 0.952558 5.72773
9.85239 2.68045 7.38858
5.04344 0.901551 7.97821
4.25395 1.50713 4.13397
7.73405 0.558688 5.16264
6.02616 0.62985 1.30939
1.73504 0 5.33759
8.08584 1.88043 5.8359
6.12151 0.425641 1.55448
6.95663 2.83637 2.51667
3.38681 1.28752 3.46038
5.87901 0.781005 7.88571
7.95657 0.879474 9.07138
3.93046 0.454348 7.43082
6.94722 1.1889 9.00152
5.87798 0.381321 1.78013
9.64899 3.00095 6.86592
1.08931 0.674603 9.30691
6.09647 2.19648 0.636743
9.21727 0.12791 3.43476
0.473178 9.63807 1.1627
6.65421 3.22431 8.13782
1.31173 0.712764 4.1614
3.04716 0.157706 8.26313
0.901104 9.56454 0.925599
0.944788 0.806473 3.93597
4.09493 1.36847 9.16658
3.09387 0.446474 0.857474
6.08861 1.93274 0.668989
5.06683 0.526993 7.58406
7.01109 0.311343 6.2061
2.89 0.480439 1.1276
1.01945 1.62645 8.97487
3.00456 0.369093 8.39751
7.74925 0.223527 6.52778
9.27414 0.828074 0.663881
3.96378 1.25605 9.29989
4.73396 0.434723 8.00472
8.54278 6.28935 0.0863154
1.05156 4.47826 9.08963
3.30339 0.397994 1.05523
3.17683 0.636855 1.39409
1.2663 0.880573 2.75509
3.2202 0.124173 1.72871
0.826341 0.588302 9.48194
5.71909 0.777125 8.38902
3.43756 1.15491 4.83804
2.8547 2.14901 2.73586
6.86813 3.82504 3.27437
8.44892 0.361257 0.717262
3.62859 0.487859 1.26844
3.65344 0.407165 0.718137
0.62846 0.546164 5.99994
4.10394 0.814258 3.06215
0.827071 0.82928 9.47945
5.45383 0.202387 9.5707
5.24883 0.497659 9.26891
2.45021 3.15392 0.105881
6.59405 3.22063 6.85774
8.39677 0.379781 0.660006
2.76674 0.43078 2.46716
6.59373 0.171998 3.36612
4.30494 0.419693 3.24342
9.63184 0.826268 8.12437
2.90241 3.33251 0.429026
2.34748 0.55152 1.0648
7.56077 1.11416 8.85746
5.93467 0.314403 1.60135
5.70804 0.748304 1.6446
9.21191 0.206028 0.555631
6.94823 8.65685 7.65846
2.75032 0.44084 8.43138
3.89485 1.22715 0.200308
5.86321 0.680892 1.25123
2.62965 0.602559 1.13834
0.893509 0.477719 5.93399
4.94778 0.47126 7.8134
6.88758 0.77584 2.68238
5.74893 0.569556 1.3525
6.92938 1.17204 8.84365
2.8846 0.162325 1.25544
4.36176 4.21961 9.68124
7.38059 7.02251 0.6001
2.82181 3.60186 7.55828
6.9875 0.932783 8.87432
3.04318 0.196596 1.13828
4.61875 1.77467 5.0771
2.84804 0.205785 8.28432
1.39612 5.12647 9.60651
2.92272 7.61251 2.83434
3.34736 0.341316 0.602308
2.62579 2.1708 2.93465
7.26122 0.859846 8.77315
6.91778 0.247222 6.60318
1.7772 4.01721 5.11867
1.98077 0.966879 1.33586
1.05469 2.99102 10
2.8462 0.26709 8.21223
4.28623 4.6615 6.85059
6.78964 0.887853 9.14842
2.85795 0.180667 1.53702
2.44146 3.55242 9.03167
4.33857 3.38081 1.54674
7.10355 1.20052 8.52469
2.96562 0.198432 1.88427
3.30605 0.57038 1.61291
8.00125 0.418755 5.31359
0.22148 3.94942 0.197866
3.20424 0.713132 2.33517
6.90871 4.25462 2.54854
2.80934 0.172588 1.53981
9.13394 1.19481 6.96029
1.01898 0.944958 4.11954
7.627 1.55747 9.73659
3.56894 2.54737 0.751538
6.05489 0.347302 1.30531
7.39686 0.0733557 4.98985
2.69835 0.602626 1.0252
7.7028 0.521798 5.90448
2.84438 0.681265 0.933121
6.16087 4.46757 2.69326
0.475367 1.29036 6.84729
5.6719 0.540298 8.74405
2.65329 0.430256 2.40958
3.75976 1.15279 3.0141
8.00763 0.813711 9.21819
6.06587 0.548157 7.30344
5.65123 0.728391 8.66937
8.65158 0.925462 5.3534
3.04492 8.25587 7.74015
3.13117 0.865938 1.16749
4.62506 1.59406 4.35273
5.65442 0.515013 1.14699
3.6036 0.710922 0.937311
3.8761 0.779984 2.89972
5.98459 3.51071 0.0945286
6.0116 0.686615 8.86147
4.88069 0.843074 8.36005
9.69735 0.175133 7.32556
0.19147 9.87517 3.2539
3.21417 0.153536 1.71943
3.09064 0.255947 3.34904
6.53651 5.10212 4.83835
3.10815 0.0252607 1.29058
5.53577 0.712815 9.02039
3.77254 0.313536 1.40124
3.46308 0.761848 1.33154
0.209559 1.66571 6.91391
7.5152 0.525503 5.28465
3.30408 0.242117 1.88037
3.13414 0.224093 1.839
2.9839 0.32131 2.48374
1.98692 1.47695 6.2457
0.574089 0.973785 4.61382
4.77945 7.93274 1.97912
3.40189 0.794006 1.05542
4.03608 0.491983 2.98739
6.62135 8.59381 5.06911
2.97965 0.20745 2.52126
2.52834 0.2279 2.16238
3.16518 0.434982 1.15189
6.40246 0.193253 1.25207
7.61131 0.485619 5.38069
6.04901 0.686381 8.54546
8.23833 8.56618 1.37408
5.40853 1.06149 8.4275
2.76714 0.536566 2.10007
1.7555 0.813515 9.27281
1.375 0.582447 9.57401
8.61158 0.312568 0.786928
3.09301 0.379769 2.3284
6.21607 0.35829 1.48241
5.06209 0.346287 9.05003
6.78472 0.912472 8.98273
8.49817 0.547387 9.59746
5.46619 0.707217 8.5899
2.71992 0.430207 2.08308
3.06024 0.24694 2.50317
4.55184 1.76205 5.34182
8.31534 0.41922 1.05034
6.8346 7.59475 8.03082
7.60926 1.98987 9.86721
5.34275 0.329106 7.86754
3.02696 0.24791 1.35847
6.22111 0.270365 8.10575
3.10855 0.30009 1.35172
5.3381 3.38929 0.237715
2.81648 0.258379 2.22497
3.08019 0.421368 2.03274
8.20693 0.781515 8.94744
0.332508 1.47084 6.88596
5.77623 1.10078 8.24701
7.89979 0.622877 5.9446
3.07898 0.303224 1.69999
4.97386 0.677636 7.87828
0.79142 0.897014 2.24622
3.9481 1.28655 9.36453
3.6665 0.473437 2.77928
3.31928 0.105171 2.70508
1.13313 0.49781 9.80484
3.6177 0.625368 1.57536
3.9975 0.442576 1.54321
3.586 0.0074013 2.23409
2.87987 0.587892 1.91215
5.60187 0.55893 8.84505
2.0433 0.831975 0.767771
1.57286 2.18965 0.787594
7.64401 0.72659 9.47027
5.53805 0.470341 1.56613
5.45141 0.784484 8.44805
3.21542 0.378671 1.48744
4.60465 2.23217 4.48327
5.72956 0.735339 8.61355
3.8639 0.107115 3.1947
7.99871 0.677346 5.56429
3.15857 0.319311 1.32714
9.00237 1.08178 0.424922
5.81896 0.555031 9.00347
6.23153 0.349218 1.50089
5.52889 0.815773 8.57413
3.27957 0.0540358 1.66234
3.88099 3.01498 4.64571
6.20796 0.692631 8.86026
7.85983 0.774294 0.408303
5.91985 0.960025 8.07896
4.76818 1.01277 4.05107
3.89345 0.230996 1.6495
5.51303 0.659299 8.29595
7.85041 0.453813 5.61376
3.29162 0.329947 1.8441
2.56944 0.282598 2.19537
1.56449 0.400579 4.47654
7.36031 0.454153 2.65434
3.43852 0.451094 0.867646
5.80833 0.6595 8.11085
5.37997 0.817237 8.35622
3.80145 0.460073 7.97715
9.02135 8.21274 8.58856
0.363615 0.863024 8.89264
3.20074 0.244079 1.91167
8.69052 0.381903 1.30313
6.39018 0.502336 1.38886
9.22689 2.67827 2.24136
2.83592 0.27522 8.78511
9.55672 2.78209 7.64678
7.83048 0.366418 5.61974
3.20265 0.371478 1.62045
3.18997 0.597811 2.36539
5.45112 0.941957 8.92051
4.95626 8.05266 10
8.85838 0.101039 3.74413
5.99565 0.57004 1.55032
2.65412 0.236607 1.22069
3.04544 0.405025 8.40169
5.6446 0.577992 8.59561
5.51536 0.511614 8.78364
3.13283 0.380634 1.83435
2.88777 0.609668 1.81787
3.5425 1.39205 0.636255
2.84002 0.233454 1.50794
8.61852 0.280912 0.653207
6.78135 1.12251 8.94347
2.33367 1.15062 7.27942
6.15165 0.330012 3.59173
3.11362 0.608245 1.35075
0.172554 0.259216 1.58496
1.80593 0.838746 0.987899
3.13421 0.275786 1.48517
2.4679 1.17117 7.50992
3.85668 0.497443 3.33985
5.05136 0.664543 7.90179
9.23638 1.23766 6.98739
7.99028 0.78082 5.31208
2.70547 0.445351 1.53695
2.78724 0.135134 2.41936
0.983165 0.728727 9.57859
1.78258 0.87842 1.17513
6.15954 0.0013411 1.87567
5.90534 0.699617 1.01029
3.69747 0.239737 2.46677
5.53997 0.833999 8.73021
1.43065 0.816972 2.43946
5.62167 0.447053 9.01879
3.65343 0.431712 2.44696
8.21077 0.0162343 0.971549
8.64242 0.339364 0.779939
3.60253 0.204989 2.20992
6.25788 0.142478 1.43461
5.99571 0.480338 1.56292
2.74802 0.73833 0.942402
7.89546 0.710416 9.22322
3.19753 0.424795 1.98031
5.49767 0.406673 9.02655
3.0107 0.254429 1.10177
5.71118 0.766783 0.686049
9.56619 2.72763 7.93801
5.55135 0.60716 0.876996
3.05989 0.307404 1.51936
9.21824 0.331391 0.763114
3.91211 0.653458 2.87048
5.0437 0.919289 8.17591
3.59974 0.337068 2.73571
5.52899 1.05222 8.29463
5.21094 0.847473 7.58716
3.22086 0.171096 1.7702
3.23194 0.424694 1.62648
6.25167 0.278661 1.25264
2.88284 0.227492 1.2032
3.26151 0.33362 1.51412
3.99688 0.959476 2.73037
3.7996 0.135367 1.78708
3.30933 0.240914 2.31805
5.80923 0.195966 8.159
5.97922 0.960711 8.44189
3.89645 0 2.45965
3.02675 0.0614626 1.83115
6.31586 0.184596 1.29229
5.49371 1.01441 8.70055
3.3251 0.335269 2.12067
3.76731 0.0499209 1.75411
6.27744 0.558743 1.62843
5.24416 0.701231 8.779
5.27245 0.757195 8.5055
3.1741 0.172171 1.80691
2.79082 0.310289 1.7823
7.7328 0.709559 5.4973
5.64838 0.620252 8.79559
5.5487 0.908576 8.50409
5.30273 0.969435 8.47827
2.70836 0.319753 2.10657
6.27769 0.467526 1.65805
9.05246 1.2543 6.9095
5.62811 0.538381 8.77283
2.90538 0.105777 1.47658
3.2386 0.119205 2.15336
7.69577 0.83264 5.35449
5.38008 0.8036 8.80919
5.74345 0.382429 8.35749
5.72134 0.747686 8.63974
3.18418 0.470013 1.8399
3.18473 0.274396 2.27828
3.04579 0.161468 1.78041
5.64329 0.792701 8.48726
3.34255 0.565392 1.50049
2.99352 0.239002 8.38358
5.56783 0.767706 8.68151
3.45404 0.405861 2.32513
3.54102 0.393021 1.86924
8.70654 6.22111 9.38966
5.89068 0.686192 1.6623
3.24245 0.222984 2.28226
3.00332 0.106844 1.81812
5.51057 0.460541 8.49933
3.02179 0.597664 1.77002
2.98378 0.193056 8.40153
5.31487 0.834986 8.69909
3.43379 0.421937 2.36236
4.17108 0.700597 2.81916
8.18361 0.338567 1.16904
5.9251 0.658009 1.69484
POINT_DATA 400
SCALARS particleColor float 3
LOOKUP_TABLE default
0.0184319 1 0.981568
0.486427 1 0.513573
0 0.187425 1
0 0.602787 1
0 0.483271 1
1 0.296529 0
0.230141 1 0.769859
0.0360793 1 0.963921
1 0.260801 0
0 0.817251 1
0.364383 1 0.635617
1 5.96046e-08 0
0 0.928724 1
1 0.977355 0
0.132233 1 0.867767
0 0.415597 1
0 0.512883 1
0 0.318985 1
0.146448 1 0.853552
0.0100982 1 0.989902
0 0.639384 1
0 0.483894 1
1 5.96046e-08 0
0 0.86905 1
0.605468 1 0.394532
1 0.925868 0
1 5.96046e-08 0
0.362046 1 0.637954
0 0.498993 1
0 0.824473 1
0.0285463 1 0.971454
0.181557 1 0.818443
0.222193 1 0.777807
0.235758 1 0.764242
0 0.557941 1
0.242777 1 0.757223
0.287334 1 0.712666
0 0.24468 1
0 0.416627 1
0 0.521406 1
0.325506 1 0.674494
0 0.818644 1
0.582023 1 0.417977
0.482982 1 0.517018
0 0.153982 1
0 0.329342 1
0.663482 1 0.336518
0 0.981747 1
0 0.558557 1
0 0.997082 1
0 0.682704 1
1 5.96046e-08 0
0 0.968431 1
0 0.267406 1
0 0.546835 1
0 0.987386 1
0 0.820261 1
0 0.731678 1
0 0.632808 1
1 5.96046e-08 0
1 0.579053 0
0 0.705927 1
1 0.877702 0
0 0.760815 1
0.428498 1 0.571502
0.0356173 1 0.964383
0 0.389501 1
0.162261 1 0.837739
0 0.286571 1
0 0.733036 1
0 0.767096 1
0 0.580605 1
0.942688 1 0.0573124
0 0.681979 1
0 0.791258 1
0 0.827487 1
0 0.593154 1
0 0.336002 1
0.459224 1 0.540776
0.0119272 1 0.988073
0 0.397058 1
0 0.449447 1
0 0.992563 1
0 0.672464 1
0 0.78994 1
0 0.413759 1
0.594373 1 0.405627
0 0.878082 1
0 0.946912 1
0 0.276892 1
0 0.422032 1
0 0.339446 1
0.0060953 1 0.993905
0 0.888375 1
0 0.538438 1
0 0.417259 1
0 0.665624 1
0 0.645525 1
1 5.96046e-08 0
0 0.247982 1
0 0.472656 1
0 0.606154 1
0 0.682583 1
0.177876 1 0.822124
1 0.899123 0
0 0.530298 1
0 0.716772 1
0 0.6618 1
0 0.77568 1
0 0.815647 1
0 0.650216 1
0 0.792773 1
0 0.931753 1
0 0.512885 1
0 0.50915 1
0 0.866529 1
0 0.555683 1
0 0.498453 1
0 0.812303 1
0 0.914254 1
0 0.341746 1
1 5.96046e-08 0
0.2926 1 0.7074
0.2828 1 0.7172
0 0.487132 1
0.00219074 1 0.997809
0 0.167702 1
0 0.622233 1
0.290779 1 0.709221
0.67434 1 0.32566
0 0.599167 1
0 0.761337 1
0 0.866354 1
0 0.824777 1
0.829952 1 0.170048
0 0.491333 1
1 5.96046e-08 0
0 0.712714 1
0.458371 1 0.541629
0.321836 1 0.678164
0 0.658615 1
0 0.529521 1
1 5.96046e-08 0
0.180701 1 0.819299
0 0.742394 1
0 0.738138 1
0 0.313354 1
0 0.411212 1
0 0.723261 1
1 5.96046e-08 0
0 0.619168 1
0 0.382329 1
0 0.744238 1
0 0.998433 1
0.134143 1 0.865857
0 0.840538 1
0 0.510882 1
0 0.650027 1
0 0.31451 1
0.155306 1 0.844694
0 0.832469 1
0 0.722714 1
0 0.839323 1
0 0.52719 1
0 0.903569 1
0 0.647947 1
0 0.26868 1
0.174625 1 0.825375
0.0913047 1 0.908695
1 5.96046e-08 0
0 0.239072 1
0 0.803472 1
0.0224118 1 0.977588
0 0.506504 1
0 0.924114 1
0.288064 1 0.711936
0 0.0569437 1
0 0.504562 1
0 0.99267 1
0.357718 1 0.642282
0 0.577362 1
0 0.32629 1
0 0.602416 1
0 0.732333 1
0 0.678896 1
0 0.716842 1
0 0.480571 1
0 0.882746 1
0 0.612385 1
0 0.416982 1
0 0.49168 1
0 0.265601 1
1 5.96046e-08 0
0.327554 1 0.672446
1 0.260296 0
0 0.515219 1
0 0.218799 1
1 5.96046e-08 0
0 0.353932 1
0 0.784487 1
0 0.649833 1
0 0.569841 1
0.0462708 1 0.953729
0 0.597155 1
0 0.937264 1
0 0.260966 1
0 0.646908 1
0 0.960147 1
0.21813 1 0.78187
0 0.143994 1
0 0.637128 1
0 0.960236 1
0 0.993945 1
0 0.733472 1
0 0.732158 1
0 0.407361 1
0 0.76052 1
0 0.336161 1
0 0.700598 1
0 0.586911 1
1 5.96046e-08 0
0 0.448038 1
0 0.779264 1
0 0.783112 1
0 0.452002 1
0 0.642561 1
0 0.435408 1
0 0.47089 1
0 0.455432 1
0 0.95062 1
0.143944 1 0.856056
0 0.779237 1
0 0.720308 1
0 0.700427 1
0 0.471493 1
0 0.623979 1
0 0.658565 1
0 0.484344 1
0 0.165335 1
0 0.823508 1
0 0.65142 1
0 0.355214 1
0 0.909271 1
0 0.73278 1
0 0.765225 1
0 0.573642 1
0 0.553178 1
0.782429 1 0.217571
0 0.482151 1
0 0.750027 1
0 0.564642 1
1 0.614088 0
0 0.628559 1
0 0.425333 1
0 0.756483 1
0 0.42153 1
0 0.775317 1
0 0.783309 1
0 0.799091 1
0 0.670768 1
0 0.443278 1
0.376226 1 0.623774
0 0.786515 1
0 0.817968 1
0 0.679447 1
0.536836 1 0.463164
0 0.681416 1
0 0.883923 1
0 0.802112 1
0 0.689834 1
0 0.796307 1
0 0.254924 1
0 0.696749 1
0.265822 1 0.734178
0 0.705017 1
0 0.920292 1
0 0.418124 1
1 5.96046e-08 0
0.31337 1 0.68663
0 0.418342 1
0 0.732825 1
0 0.567024 1
0.0595261 1 0.940474
0 0.537033 1
0.377379 1 0.622621
0 0.454715 1
0 0.60328 1
0.060421 1 0.939579
0.263904 1 0.736096
0.573481 1 0.426519
0 0.793933 1
0 0.74634 1
0 0.902018 1
0 0.602339 1
0 0.912339 1
0 0.59929 1
0 0.815151 1
0 0.649292 1
0 0.996717 1
0 0.471524 1
0.217625 1 0.782375
0 0.559955 1
0 0.464698 1
0.158539 1 0.841461
0 0.855408 1
0 0.866031 1
0.291686 1 0.708314
0 0.712112 1
0.592896 1 0.407104
0 0.209943 1
0 0.220583 1
0 0.823778 1
0 0.705497 1
0 0.667693 1
0.104132 1 0.895868
0 0.987896 1
0 0.380543 1
0 0.906143 1
0 0.343229 1
0 0.489957 1
0 0.367619 1
0 0.26708 1
0 0.281511 1
0 0.458281 1
0 0.868232 1
0 0.239457 1
0 0.549075 1
0 0.728204 1
0.469781 1 0.530219
0 0.299061 1
0 0.979803 1
0 0.625867 1
0 0.652853 1
0 0.5847 1
0 0.690718 1
0 0.466098 1
0 0.940945 1
0 0.359834 1
0 0.35238 1
0 0.792795 1
0 0.223316 1
0.00579682 1 0.994203
0 0.605661 1
0 0.76014 1
0 0.75852 1
0 0.695115 1
0 0.456996 1
0 0.487484 1
0 0.71059 1
0 0.400045 1
0.0732722 1 0.926728
0 0.510678 1
0.0568211 1 0.943179
0 0.48779 1
0 0.220918 1
0 0.480637 1
0 0.787704 1
0.116386 1 0.883614
0 0.837155 1
0 0.37835 1
0 0.500992 1
0 0.620188 1
0 0.808591 1
0 0.57018 1
0.135808 1 0.864192
0 0.504547 1
0 0.431057 1
0.395484 1 0.604516
0 0.66348 1
0.238402 1 0.761598
0 0.356799 1
0 0.18252 1
0 0.485979 1
0.131946 1 0.868054
0 0.796266 1
0 0.503982 1
0 0.468394 1
0 0.402057 1
0 0.90563 1
0 0.668071 1
0 0.57441 1
0 0.301172 1
0.0267557 1 0.973244
0 0.327583 1
0 0.728175 1
0 0.241318 1
0 0.399382 1
0 0.396412 1
1 5.96046e-08 0
0 0.697091 1
0 0.577637 1
0 0.418027 1
0 0.367877 1
0 0.663799 1
0.0221199 1 0.97788
0 0.776617 1
0 0.286419 1
0 0.775212 1
0 0.257404 1
0 0.738903 1
