# vtk DataFile Version 3.0
Particle simulation
ASCII
DATASET POLYDATA
POINTS 400 float
8.59129 2.40843 9.91418
0.486019 1.31616 4.45893
0.087861 2.27351 4.1513
2.31574 0.315959 1.50062
9.92817 0.49186 3.36933
4.08042 7.96264 7.09493
7.29452 2.59534 2.71228
6.29468 5.34446 0.624008
9.01244 6.34882 1.96588
6.64282 0.269621 4.80784
6.47124 1.99179 0.242388
3.94682 1.08558 2.82875
9.36576 9.74656 7.90948
4.85392 0.860607 1.05076
5.16256 2.62784 1.64774
9.31334 1.96327 7.74463
2.06906 6.66707 0.403579
3.39571 0.316767 2.33802
0.356549 3.37895 7.47577
6.6215 0.0483266 4.54999
3.50868 0.700686 2.41107
3.59357 0.168171 5.80484
6.11587 5.70414 7.19664
5.54189 0.752407 3.62437
1.60313 5.72047 6.6504
3.98506 0 2.09719
2.2005 2.09091 6.63202
3.93038 0.260572 2.71051
9.70724 0.362832 9.90049
2.96482 0.513211 0.934119
9.67719 9.49916 7.70292
8.90337 0.283884 1.21503
7.04145 0.855442 8.59854
5.51713 0.88154 3.70511
3.06265 1.24623 2.10617
0.448725 1.63914 0.775873
7.95348 0.00983065 7.55944
2.27847 0.437231 1.39397
6.717 0.918675 1.12631
2.97433 2.35406 2.603
6.16541 1.48183 3.90661
8.80689 5.49902 5.05108
5.90756 9.39211 7.32026
3.42493 1.40966 7.09955
7.23525 0.0540114 6.65885
5.75972 0.249526 1.70399
4.15054 0.902626 9.50315
3.00288 0.293403 1.60564
6.30354 0.472189 1.82688
0.406431 9.14637 9.04194
0.281284 4.13701 2.59464
7.4843 8.13803 5.08605
8.34733 0.68751 7.9526
6.25587 0.226995 4.64602
8.48777 0.428197 7.80802
5.90216 0.208959 1.7277
5.55551 0.537857 9.07515
2.0198 0 3.04153
6.20197 0.445558 1.92526
1.79059 4.94692 6.87919
10 3.62194 5.34152
5.56437 0.507338 8.51778
3.85379 0.589001 3.31139
6.54843 0.198499 4.88503
7.37817 4.17778 2.72332
5.63648 1.18048 1.36082
7.97284 0.295442 7.3806
0.127086 3.8824 2.93099
6.14117 0.516795 2.01384
5.00159 0.212556 8.2035
4.80138 0.0889511 8.53476
2.65041 1.07695 2.70134
6.8754 7.62162 2.08303
6.55324 0.171153 4.93651
7.25258 1.041 8.44581
6.7296 0.29513 7.61239
7.93222 0.270554 7.42814
5.14051 0.306003 7.92649
6.39036 0.551237 2.93306
0.579609 2.51723 6.74271
2.32298 0.66676 1.33997
3.18089 0.441904 1.82146
2.9452 1.13899 1.02497
2.98752 0.502246 1.48334
4.92051 0.635471 8.77937
5.51921 0.0922439 9.13866
5.47522 0.553854 8.96412
8.13513 1.06267 0.811774
5.9194 2.26251 0.335025
9.18798 0.416695 1.75195
2.43317 0.294042 1.63684
3.36687 0.337072 0.410565
0.0321741 2.48085 8.9631
2.99102 0.45721 1.45977
4.95326 0.620041 8.74502
5.48031 0.0855941 9.0974
4.24829 1.66162 9.53413
2.66451 0.60005 3.65198
5.98921 0.273838 6.50966
9.1537 0.475018 1.76334
1.62986 0.0718454 1.1883
6.86757 0.142993 5.93701
0.596819 1.46102 0.719035
8.43868 0.0298391 7.09253
8.56011 4.56447 5.84993
2.68653 0.501496 1.24916
4.7124 1.28302 9.62035
6.0425 0.178463 1.78976
6.27164 0.446248 1.81145
9.4054 0.647186 2.0305
0.785538 1.10039 4.63434
5.98357 0.62161 5.01113
3.052 0.872024 2.23924
9.39429 0.301811 1.78323
2.77755 0.282636 1.28317
2.2969 0.398968 1.7844
5.24984 0.22448 8.64024
6.20634 0.589108 2.76582
6.2969 0.380617 1.85191
1.71013 0.719136 0.817608
2.22727 0.481178 1.67767
8.75579 4.96804 5.13019
7.25719 4.79307 9.93467
5.26082 0.625818 7.32375
8.68564 0.458591 7.12611
2.88444 0.13771 1.00375
3.49196 0.491752 2.52903
6.64063 0.264668 4.68236
0.0489347 1.33288 5.22603
1.83196 0.378765 3.56798
2.27645 0.510564 1.76866
6.09784 1.20931 2.35812
5.24604 0.278205 8.26639
7.71209 0.24342 6.73918
1.11241 0.343142 3.83622
2.21061 0.271378 2.88115
6.70046 6.18937 4.99268
6.4773 0.229025 4.65646
4.94901 0.570899 8.47816
8.55011 0.39443 8.14855
2.80703 0.670845 1.12431
10 0.537263 7.80371
1.75852 2.05816 9.54316
1.6689 0.245353 0.741408
2.59823 0.741092 1.35545
2.55484 0.643263 2.86975
7.31784 0.33914 6.97503
1.34821 2.08524 2.86759
1.95022 0.134443 2.90119
1.13143 0.2401 2.85988
2.79209 0.677679 1.11935
7.99023 0.17278 7.60028
2.65609 2.05975 0.84505
4.56515 1.39657 9.61606
3.40368 3.69509 0.422671
3.28218 0.582769 2.4383
7.68035 0.255496 7.55254
2.47711 0.477531 1.57752
7.52579 0.251533 7.17414
2.74035 0.441233 2.2734
0.580161 1.57489 0.722038
0.148002 2.268 3.95237
5.58584 0.658807 8.60896
1.74546 0.729327 2.36535
0.198051 4.16032 2.70089
8.71914 0.502239 8.04908
5.12856 0.41333 7.91783
5.66209 0.160997 8.41528
6.35224 4.28984 7.93774
2.75637 1.15594 2.59992
2.52754 0.609756 1.47153
2.77086 0.940094 2.48144
5.95894 0.165268 5.60783
2.85622 1.15757 1.13788
2.07084 0.401651 2.47009
0.134558 1.9988 0.863786
5.39114 0.0292146 8.7168
5.16382 0.443086 7.87936
5.17832 0.473983 8.40885
4.27992 0.996127 6.08146
2.98502 0.549473 1.56544
2.76364 0.389637 1.1074
7.36315 4.65069 9.52002
2.59835 1.72102 1.11162
5.68394 0.790941 8.27138
3.01371 0.0676754 2.0651
2.29917 0.675373 2.70262
0.138755 2.58272 9.17789
6.11808 0.618732 6.80747
2.85517 0.452389 1.99637
3.07133 0.601324 1.58147
2.15339 0.225276 2.72588
4.99879 0.462247 7.68609
2.37738 4.2391 3.38876
4.59134 8.42736 8.40951
3.05692 0.593714 1.23231
3.04357 0.612226 2.39313
4.63477 5.60525 8.98188
2.12289 0.189574 2.41228
3.1077 0.395646 0.385579
3.04832 0.706287 2.20239
6.27444 0.312582 2.14907
7.88342 0.148041 7.66923
4.26226 1.04482 9.51983
9.34344 2.34647 8.43298
5.13154 0.284243 8.51725
3.07972 0.430151 1.75945
2.03413 0.187816 2.79984
2.31728 0.750428 1.58479
9.37851 0.202219 1.68354
2.68806 0.59983 1.54486
5.84469 0.376756 1.67409
5.27659 0.811601 8.79188
8.78676 0.612394 7.90427
6.37736 0.41381 5.12765
5.11553 0.0692405 8.56806
3.08018 0.449742 1.80171
1.87111 0.598488 2.03717
3.76708 0.247698 2.87078
9.35587 0.370751 1.85473
3.80933 5.98516 6.16621
9.96131 0.585151 8.03829
4.70467 1.15911 9.75173
2.69176 0.509554 1.8168
5.45386 0.281174 8.5398
2.61766 0.656514 1.69548
4.72643 2.79388 1.74785
2.72414 0.509542 2.2841
2.41898 0.252663 1.84946
5.83321 0.726015 7.97406
6.34364 0.0819607 4.65911
5.52284 0.0163152 8.49336
6.9432 0.022987 6.90161
2.15222 0.577234 1.4238
5.63812 0.674241 8.01091
2.91127 0.513016 2.20237
7.04173 0.173883 6.91689
3.39371 0.164109 2.00702
2.38477 0.537575 2.4676
2.82755 0.502852 1.45662
2.99839 0.309646 2.04763
2.68069 0.162746 1.58573
2.5826 0.391893 1.97742
3.15821 0.737872 2.049
5.58366 0.564932 8.64336
3.11477 0.671727 2.49827
2.01005 0.100533 1.50799
5.51574 0.504392 8.87076
6.37202 0.407441 1.98725
5.48383 0.122359 8.61085
2.86187 0.688183 2.33893
6.03134 0.549286 2.13351
5.30166 0.388512 8.6705
2.80302 0.80078 2.3096
7.2542 0.348721 7.17414
2.36459 0.736577 1.50113
8.35708 0.792518 2.02056
5.55001 0.436691 8.1633
6.40754 0.403748 1.961
5.47634 0.1344 8.66426
2.30798 0.0374916 2.69657
4.10563 7.51193 6.4578
4.62827 1.3358 9.85686
5.87597 1.14704 2.07155
4.99103 0.44408 8.41545
3.22006 1.59785 6.86344
6.06163 1.20056 2.16231
5.69266 0.198375 8.63094
7.27824 0.289558 6.769
3.02935 0.547016 2.2199
2.39241 0.626433 1.8529
7.50751 7.80517 5.04251
2.89142 0.633415 1.75701
5.81355 0.22779 1.8905
5.42088 0.631235 8.60178
4.80991 1.35597 9.27138
6.35434 0.218501 5.21335
3.30406 8.08432 7.49063
7.19121 0.266327 7.21747
2.77741 0.646915 1.47606
9.5734 0.228835 1.81088
6.30961 0.473507 1.63613
5.43533 0.533889 1.44508
6.00891 0.286903 4.86059
6.39568 0.171069 5.91493
6.84719 0.0476979 6.88295
2.75108 0.436494 1.41599
3.48955 0.476201 2.10015
8.24109 0.375665 8.246
9.96035 3.01606 0.733214
8.96873 0.0511754 1.49481
6.20117 0.394003 1.73264
1.9961 0.319768 1.37274
6.48194 0.152931 4.93671
4.98262 0.423086 8.54503
5.61637 0.341495 8.22438
2.69384 0.111488 1.88986
2.65464 0.152216 1.5578
1.63296 0.230801 2.91856
3.13421 0.517159 0.860442
9.24689 0.63111 1.91046
8.15554 0.682295 8.14403
2.20248 0.685391 2.77754
5.93129 0.585434 1.96465
2.28263 0.32088 3.08395
6.33598 0.337377 1.92327
2.48037 0.683215 2.79095
2.29456 0.522126 2.22563
2.07159 0.287253 2.31071
1.97609 0.453999 1.42962
5.82362 0.65624 5.16067
7.50893 0.411701 7.44643
7.24585 0.156008 7.09031
3.05496 0.81354 2.0945
3.48369 0.520714 2.3629
5.52242 0.067242 4.4905
2.79237 0.254693 1.05886
5.00022 0.439336 1.38591
6.0763 0.101284 1.82414
3.04788 0.323373 2.45882
5.29062 0.715959 8.67641
3.14413 0.285228 3.03304
5.61877 0.557402 8.68974
3.06402 0.518515 2.56271
9.08031 0.543501 1.58019
9.30008 0.00756627 1.66065
3.20759 0.328897 1.80786
6.27257 0.57781 2.08424
8.93651 0.451357 1.73962
3.00717 0.486228 2.30788
5.3541 0.730162 8.79402
2.65617 0.249336 1.81837
5.56804 0.45701 8.87537
2.46843 0.592081 1.34402
9.53402 0.206217 1.47915
4.37712 1.41559 9.85811
2.05257 0.530474 2.61179
3.08497 0.193318 1.12333
9.8429 0.173987 1.53004
3.1038 0.275482 2.41228
5.43591 0.45971 8.00954
2.80259 0.761762 1.5545
5.44278 0.604286 8.09785
4.445 1.05611 9.64702
2.47607 0.548684 1.43735
2.95131 0.548777 1.4692
5.84117 0.3695 1.70688
2.19224 0.035229 2.63104
2.98335 0.493523 1.60428
1.94251 0.153049 2.78225
3.31197 0.605863 2.56465
3.06123 0.233616 2.19666
5.07067 0.597833 7.7367
4.42177 1.04526 9.5501
2.27457 0.281199 1.48393
2.96369 0.580952 2.36567
6.88144 0.0868714 2.29506
4.68913 0.00898255 8.80795
2.85853 0.497068 1.60698
3.15145 0.445526 0.861239
6.06956 0.367956 1.84101
7.86351 0.291712 7.77044
4.97585 0.645032 8.88743
2.99893 0.59056 2.40738
1.99344 0.980032 1.68781
7.32083 0.18946 7.06283
5.1711 0.201952 8.62223
5.16274 0.723415 8.81473
5.23311 0.10138 8.33883
1.76156 0.0732698 2.96137
6.06598 0.334238 1.82863
8.03701 0.186375 7.46328
4.99423 0.397439 8.33126
2.16865 0.0945728 2.39317
2.18963 0.540533 2.95367
6.90795 0.140521 6.81147
5.49626 0.587705 8.65436
5.2162 0.103674 8.6096
4.8263 0.439107 8.41669
2.89478 0.226664 1.67152
3.24738 0.571489 1.25974
3.02881 0.544573 1.5002
5.20252 0.357526 8.39341
2.05281 0.342591 1.47941
6.64222 0 4.70226
4.72498 0.179585 8.58114
2.62137 0.418113 1.2361
2.34127 0.291376 1.41648
6.38484 0.37282 5.0768
6.69668 0.480397 1.7632
3.17574 0.600062 1.24632
2.80583 0.462283 1.4868
4.87431 0.227938 8.61077
2.62753 0.57294 1.41437
6.60888 0 4.72672
4.308 1.31885 9.56256
2.64834 0.301825 1.21951
2.99202 0.667518 2.46005
9.67429 0.428756 1.55389
6.71383 0.453876 1.77602
POINT_DATA 400
SCALARS particleColor float 3
LOOKUP_TABLE default
0 0.415718 1
0 0.788087 1
0 0.830003 1
0 0.671427 1
0 0.268508 1
0.0299989 1 0.970001
0 0.706882 1
0 0.623901 1
0 0.819665 1
0 0.776514 1
0 0.448757 1
0 0.568399 1
0.236787 1 0.763213
0 0.647862 1
0.206434 1 0.793566
0 0.598081 1
0 0.201111 1
0 0.272701 1
0.146202 1 0.853798
0 0.866824 1
0 0.567691 1
0.469664 1 0.530336
0 0.947146 1
0 0.883346 1
1 0.380639 0
0 0.518364 1
1 0.483972 0
0 0.657355 1
0 0.676874 1
0 0.412649 1
0.314633 1 0.685367
0 0.780896 1
0 0.664019 1
0 0.848115 1
0 0.581932 1
0 0.496643 1
0.295319 1 0.704681
0 0.385943 1
0 0.274404 1
0 0.396939 1
0 0.534218 1
0 0.550186 1
0 0.942348 1
0.920438 1 0.0795621
0 0.0940171 1
0 0.613256 1
0.206207 1 0.793793
0 0.803263 1
0 0.543928 1
0.781287 1 0.218713
0 0.56177 1
0.0630134 1 0.936987
0.0197626 1 0.980237
0 0.909064 1
0 0.629476 1
0 0.426324 1
0 0.530524 1
0 0.452815 1
0 0.65694 1
0 0.413315 1
0.304841 1 0.695159
0 0.906317 1
0 0.724786 1
0 0.181483 1
0.29932 1 0.70068
0 0.467939 1
0 0.505728 1
0 0.63752 1
0 0.435122 1
0 0.588164 1
0.0447915 1 0.955208
0 0.445635 1
1 5.96046e-08 0
0 0.0668514 1
0 0.986113 1
0 0.501798 1
0 0.579467 1
0 0.701797 1
0.282156 1 0.717844
0 0.905769 1
0 0.124406 1
0 0.419262 1
0 0.239467 1
0 0.463894 1
0 0.660514 1
0 0.33635 1
0 0.696494 1
0 0.704207 1
0.230098 1 0.769902
0 0.510657 1
0 0.650765 1
0 0.512517 1
0 0.537739 1
0 0.49198 1
0 0.798612 1
0 0.258336 1
0 0.309922 1
0 0.357868 1
0 0.528911 1
0 0.468646 1
0 0.669717 1
0 0.25079 1
0 0.695254 1
0.0864688 1 0.913531
1 5.96046e-08 0
0 0.462569 1
0 0.809149 1
0 0.572069 1
0 0.321594 1
0 0.746294 1
0.0124102 1 0.98759
0 0.666755 1
0 0.631264 1
0 0.543124 1
0 0.478906 1
0 0.911267 1
0 0.812755 1
0 0.654197 1
0 0.434675 1
0 0.880039 1
0 0.263104 1
1 5.96046e-08 0
0 0.718564 1
0.162434 1 0.837566
0 0.850251 1
0 0.57153 1
0 0.894756 1
0 0.724567 1
0 0.553649 1
0 0.873228 1
0 0.341834 1
0 0.622842 1
0 0.683539 1
0 0.049508 1
0.199487 1 0.800513
0 0.527459 1
0.597758 1 0.402242
0 0.505933 1
0.179696 1 0.820304
0 0.736489 1
0 0.383338 1
0.356045 1 0.643955
0 0.789085 1
0 0.825825 1
0 0.559862 1
0 0.291157 1
0 0.427068 1
0 0.601359 1
0 0.422405 1
0 0.731202 1
0 0.459591 1
0 0.155907 1
0 0.698871 1
0 0.661266 1
0 0.235175 1
0 0.563499 1
0 0.780518 1
0 0.462751 1
0 0.1983 1
0 0.518989 1
0.0284344 1 0.971566
0 0.58454 1
0 0.814542 1
0 0.127428 1
0 0.490177 1
0 0.552423 1
0.0337843 1 0.966216
0 0.858795 1
0 0.36908 1
1 5.96046e-08 0
0 0.945805 1
0 0.467698 1
0 0.937318 1
0 0.689731 1
0 0.618953 1
0 0.612908 1
0 0.750379 1
0 0.398102 1
0 0.841595 1
0.494927 1 0.505072
0 0.640423 1
0.00510902 1 0.994891
0.295026 1 0.704974
0 0.668212 1
0 0.494459 1
0 0.187124 1
0 0.851947 1
0 0.519261 1
0.200876 1 0.799124
0 0.413889 1
0 0.55615 1
0 0.287093 1
0 0.117111 1
0 0.31993 1
1 0.708519 0
0 0.493535 1
0 0.813407 1
0 0.400533 1
0 0.480222 1
0 0.703222 1
0 0.569258 1
0 0.695161 1
0 0.941923 1
0 0.910292 1
0.00394339 1 0.996057
0 0.863637 1
0 0.717356 1
0.136769 1 0.863231
0 0.902252 1
0 0.423603 1
0 0.649184 1
0 0.829006 1
0 0.470344 1
0 0.40328 1
0.459064 1 0.540936
0 0.863668 1
0 0.757019 1
0 0.887676 1
0 0.956635 1
0 0.540837 1
0.151855 1 0.848145
0 0.574861 1
0 0.284318 1
0 0.395719 1
0 0.790738 1
0 0.55997 1
0 0.709645 1
0 0.830266 1
0 0.832915 1
0 0.524741 1
0 0.886828 1
0 0.699525 1
0 0.52964 1
0 0.378147 1
0 0.260969 1
0.347669 1 0.652331
0.0376159 1 0.962384
0 0.560514 1
0 0.195413 1
0.540597 1 0.459403
0 0.663733 1
0.0784979 1 0.921502
0 0.553668 1
0.015261 1 0.984739
0 0.926895 1
0 0.933089 1
0 0.660186 1
0.0844125 1 0.915587
0 0.762769 1
0 0.211721 1
0 0.260145 1
0 0.786313 1
0 0.341591 1
0 0.979659 1
0 0.825742 1
0 0.351478 1
0 0.471006 1
0 0.691211 1
0 0.457757 1
0 0.275767 1
0 0.247065 1
0 0.790888 1
0 0.553746 1
0 0.858424 1
0 0.685741 1
0 0.639002 1
0.479003 1 0.520997
0 0.438537 1
0 0.656552 1
0 0.536926 1
0 0.613773 1
0.866782 1 0.133218
0.166172 1 0.833828
0.57537 1 0.42463
0 0.356851 1
0 0.560607 1
0 0.788904 1
0 0.69785 1
0.0983277 1 0.901672
0 0.679888 1
0 0.422702 1
0 0.635912 1
0 0.84893 1
0 0.845909 1
0.125547 1 0.874453
0.243287 1 0.756713
0 0.562563 1
0.131376 1 0.868624
0 0.62132 1
0.178748 1 0.821252
0 0.422008 1
0 0.471459 1
0 0.705893 1
0 0.536638 1
0 0.875778 1
0 0.546072 1
0.177627 1 0.822373
0 0.995726 1
0 0.186977 1
0 0.703811 1
0 0.676728 1
0 0.395628 1
0.153145 1 0.846855
0 0.911353 1
0 0.658213 1
0.551537 1 0.448463
0 0.8871 1
0 0.376749 1
0 0.933661 1
0 0.674922 1
0 0.813016 1
0 0.634271 1
0 0.530796 1
0 0.489726 1
0 0.321483 1
0 0.333112 1
0.0775401 1 0.92246
0.209334 1 0.790666
0 0.213336 1
0 0.321887 1
0 0.876297 1
0 0.725506 1
0 0.944144 1
0 0.858274 1
0 0.454787 1
0 0.335725 1
0 0.71723 1
0 0.668873 1
0.182287 1 0.817713
0 0.743273 1
0 0.8668 1
0 0.610967 1
0 0.892371 1
0 0.696508 1
0 0.486886 1
0 0.463956 1
0.00700779 1 0.992992
0 0.209614 1
0 0.88264 1
0 0.559356 1
0 0.524867 1
0 0.808452 1
0 0.716145 1
0 0.473055 1
0 0.71804 1
0 0.615303 1
0 0.494654 1
0 0.845139 1
0 0.468429 1
0 0.643747 1
0.120386 1 0.879614
0 0.506645 1
0 0.853042 1
0 0.719371 1
0 0.924564 1
0 0.575578 1
0 0.293541 1
0 0.663053 1
0 0.974583 1
0 0.285348 1
0 0.864685 1
0 0.6368 1
0 0.484576 1
0.235822 1 0.764178
0 0.730364 1
0 0.461578 1
0 0.450001 1
0 0.945294 1
0 0.660035 1
0 0.736269 1
0 0.782448 1
0 0.25524 1
0 0.662355 1
0 0.652327 1
0.0594126 1 0.940587
0 0.33728 1
0 0.225014 1
0 0.791669 1
0 0.375634 1
0 0.643668 1
0 0.403736 1
0 0.400365 1
0 0.305558 1
0 0.10385 1
0 0.175571 1
0 0.911155 1
0 0.342513 1
0 0.67368 1
0 0.968572 1
0 0.267143 1
0 0.430692 1
0 0.877181 1
0 0.494968 1
0 0.712856 1
0 0.193797 1
0 0.577402 1
0 0.473929 1
0.0494001 1 0.9506
0.0415662 1 0.958434
0 0.327757 1
