# vtk DataFile Version 3.0
Particle simulation
ASCII
DATASET POLYDATA
POINTS 400 float
0.394186 0.432983 0.500595
0.606262 0.331462 0.800311
2.76915 0.601193 4.57245
0.537866 0.429439 1.00231
3.44316 0.727124 4.23213
0.129431 0.423788 3.90926
3.17651 0.339028 1.94231
1.97284 0.132048 4.79083
4.0864 0.7164 0.8791
5.12514 0.500616 1.05105
0.361402 0.443706 0.509556
0.543237 0.267372 0.774789
2.91333 0.602777 4.58893
0.504096 0.40919 1.02736
3.44172 0.679811 4.17358
0.133038 0.407065 3.91972
1.30957 0.486667 2.55485
0.112745 0.796211 3.15264
4.24645 0.634675 1.06594
5.12784 0.479831 1.0845
4.86501 0.598948 0.549757
5.63787 0.68357 1.47478
2.89046 0.474933 4.53962
5.17444 0.511698 0.475684
4.0572 0.487211 3.93642
1.49291 0.589071 2.88487
4.95068 0.802284 4.55497
0.562195 0.590741 3.39623
2.03798 0.284534 2.00931
0.795074 0.162197 1.36769
4.98066 0.60065 0.526968
5.57935 0.773853 1.28527
2.70502 0.376216 4.45478
5.15939 0.51981 0.497988
4.04632 0.490269 3.89146
1.50231 0.56944 2.90031
4.883 0.804774 4.62213
0.589141 0.567598 3.30433
2.12448 0.134054 2.02236
0.822665 0.318815 1.30311
0.320573 0.382845 0.483107
3.18013 0.227934 1.81787
1.9119 0.706601 3.91441
4.75109 0.374897 0.760127
2.68257 0.504622 4.1719
3.55758 0.209562 1.88893
3.44773 0.413679 2.91655
2.32329 0.503294 4.2617
1.97454 0.21923 1.97764
1.72305 0.761142 3.57286
0.303849 0.377528 0.521662
3.16231 0.22198 1.81138
1.99278 0.798215 3.85375
4.74643 0.380052 0.784373
2.72644 0.459746 4.19129
3.62792 0.210967 1.88416
2.6456 0.33313 4.27763
2.27829 0.501654 4.30673
1.98749 0.238463 1.99388
1.72091 0.746544 3.68621
4.71987 0.619001 0.706388
0.777584 0.353226 0.430527
3.88919 0.57607 4.8568
4.16532 0.127173 0.456926
3.4264 0.344477 4.76632
3.12037 0.413548 3.58699
1.92015 0.533922 2.00153
1.63293 0.688457 3.02648
1.91543 0.227616 1.88819
1.30156 0.594015 3.29848
4.78665 0.575657 0.718645
0.840538 0.331528 0.653916
3.40706 0.172167 3.23247
4.22492 0.150198 0.44131
3.23114 0.263804 4.7129
3.22829 0.252638 3.51993
1.9038 0.533597 1.96949
1.61398 0.542247 4.04252
1.92711 0.192108 1.88154
1.3005 0.553382 3.2899
0.49565 0.212738 0.598545
2.94852 0.101766 1.75898
0.305839 0.719952 3.58515
3.85412 0.0531067 0.0301794
3.77151 0.719045 4.08387
1.34268 0.438441 4.30579
3.11955 0.648374 4.30493
0.717934 0.611889 3.01966
4.11912 0.200055 2.14305
4.33039 0.564566 1.3269
0.43461 0.282585 0.540017
3.01059 0.079417 1.75905
0.363661 0.77474 3.62769
3.86224 0.0545155 0.0167641
3.76398 0.741928 4.07017
1.33611 0.440435 4.30411
3.00046 0.612248 4.2644
0.702339 0.592094 2.85245
4.17056 0.202779 2.02835
4.35192 0.532203 1.29725
3.78921 0.632987 1.41378
3.25305 0.391507 0.730233
0.648847 0.685135 2.62441
4.17028 0.300038 0.111032
1.57496 0.697432 3.18099
1.57463 0.214153 3.73219
1.469 0.668513 2.94154
2.05024 0.284344 1.64688
1.97262 0.220266 1.85122
4.40637 0.589233 1.47909
3.8049 0.659216 1.44785
3.28972 0.307273 0.7354
2.1864 0.166464 1.58897
4.09792 0.312386 0.0555766
1.58572 0.718901 3.30689
1.53881 0.226741 3.69906
1.38383 0.655236 2.99389
2.14461 0.368763 1.78121
1.96005 0.206739 1.86462
4.24246 0.154625 1.89551
2.5013 0.352721 0.630568
3.69238 0.10249 1.56246
4.64033 0.312343 4.35727
2.62689 0.60118 1.10147
2.49977 0.083 4.57621
2.85728 0.255491 1.61556
0.87343 0.0270235 2.84809
3.56625 0.372002 0.081712
2.33585 0.0260378 4.52119
2.74601 0.396016 1.71557
2.50057 0.360636 0.662159
3.66432 0.0426196 1.58258
4.8563 0.466493 4.52358
2.69446 0.568593 1.01624
2.48694 0.0609953 4.64994
2.4166 0.102872 1.08397
0.891124 0.473863 3.33606
3.51663 0.372274 0.0679193
2.41482 0.0399288 4.55265
2.80185 0.889122 1.92967
0.409567 0.395948 0.46882
0.453575 0.318945 0.851541
0.456576 0.533213 3.00546
0.694762 0.461702 0.170492
0.308175 0.402499 3.2464
1.49979 0.453029 2.37093
4.76629 0.805932 4.57793
0.305006 0.439377 2.47404
0.808875 0.518305 2.73887
1.49749 0.411559 3.52892
0.404059 0.393277 0.464089
0.409628 0.2959 0.821566
0.318539 0.597861 3.23665
0.599715 0.455146 0.230425
0.314243 0.493772 3.24057
1.42276 0.463926 2.37139
4.69014 0.754072 4.55077
0.288713 0.411591 2.63281
1.1352 0.515989 2.69575
1.18022 0.416506 3.50566
1.0392 0.166119 0.880085
2.11616 0.41329 1.06677
3.82822 0.138655 4.85347
0.518352 0.737659 0.212309
1.35783 0.176809 2.92951
0.307151 0.589313 3.1337
2.66298 0.556092 4.16085
0.930567 0.482837 2.73111
1.53516 0.402893 3.32449
2.77974 0.383221 1.20236
1.03663 0.164477 0.885026
2.35518 0.256462 0.887115
3.77559 0.159057 4.88945
0.43922 0.709355 0.334691
1.33928 0.21585 2.96964
0.346792 0.592688 3.05494
2.6189 0.457151 4.2025
1.18368 0.516163 3.12043
1.50775 0.597159 3.27064
2.78999 0.387027 1.18989
2.54665 0.252738 0.833162
1.12317 0.251837 0.765742
5.0016 0.620168 4.28191
1.02416 0 0.423517
2.16447 0 4.38031
2.2155 0.369698 4.44768
1.18762 0.668568 2.3311
3.43078 0.813735 2.8719
3.97124 0.652978 2.03945
3.29518 0.502056 2.17992
2.57286 0.247176 0.853963
0.842389 0.223052 0.763506
3.62061 0.101446 4.82983
1.13429 0.0365435 0.369803
2.16192 0 4.38619
2.24735 0.596174 4.43514
1.1622 0.639079 2.32525
3.33024 0.647293 2.42984
3.89861 0.668694 2.05177
3.288 0.508338 2.15164
0.39343 0.28139 0.501084
0.916305 0.482226 0.558369
3.21205 0.465668 4.72953
0.517556 0.246546 1.1668
3.27537 0.51222 4.91241
1.84911 0.188586 3.8165
1.13649 0.223108 2.966
0.759777 0.0723745 2.59966
0.565157 0.564481 3.30089
4.75155 0.640266 0.955819
0.370875 0.354792 0.521028
0.136172 0.42988 0.71754
3.18043 0.342752 4.67896
0.518657 0.219726 1.16464
3.25579 0.510447 4.93115
1.87609 0.221965 3.79773
1.13098 0.225136 2.9926
1.82124 0.301205 3.00975
0.442946 0.517341 3.33657
4.78648 0.652116 0.900433
3.33557 0.419032 0.160001
3.89056 0.516958 3.05152
4.39157 0.401649 4.78447
2.518 0.337188 0.920082
3.25083 0.637746 4.47152
1.56511 0.721011 3.6257
4.53568 0.482055 4.76697
0.690323 0.282231 2.85133
3.13847 0.38283 1.80676
0.510132 0.475457 2.87743
3.36119 0.40713 0.174711
3.8692 0.490753 3.0446
4.34461 0.486817 4.72904
2.52932 0.308986 0.880601
3.2484 0.640603 4.45978
1.59848 0.727525 3.60148
4.62209 0.479308 4.76359
0.83197 0.42988 2.86521
2.87453 0.332586 1.49461
0.516835 0.460219 2.78004
0.498127 0.414452 0.720339
3.66408 0.390682 2.72252
3.03404 0.23206 4.71769
5.14526 0.638648 0.684554
2.51685 0.493769 4.30443
3.73112 0.84043 2.80123
1.1221 0.0475933 3.22704
3.04756 0.0963406 2.33305
3.6947 0.535943 1.69545
1.68924 0.636856 3.67578
0.453604 0.416502 0.744509
3.94291 0.213518 2.88706
2.8669 0.27861 4.64124
5.15949 0.662325 0.716535
2.6346 0.610065 4.35028
3.88578 0.753365 2.56431
3.67885 1.01398 0.94175
2.96111 0.0143961 2.44583
3.68031 0.528296 1.69978
1.68919 0.632388 3.59383
4.0712 0.279422 2.22605
0.374437 0.605806 1.04925
3.04544 0.128099 1.71302
4.71647 0.53165 0.802684
3.17645 0.592047 4.32153
2.00408 0.370877 3.11319
4.70918 0.539536 1.20566
3.05056 0.578672 4.38602
3.43796 0.375931 4.62972
0.738484 0.424161 3.17759
4.10731 0.257155 2.23833
0.557998 0.504075 1.00059
4.3676 0.38668 1.91449
4.51652 0.623829 0.808905
3.20922 0.502485 4.56694
2.28251 1.09987 4.06722
4.5868 0.45584 1.26024
2.0839 0.102788 3.86005
3.47582 0.34845 4.5996
0.681016 0.456193 3.11306
4.30956 0.63254 0.669279
3.4495 0.465851 2.62869
1.615 0.31333 4.31412
3.9168 0.460351 0.17624
2.39569 0.692654 4.23289
1.98636 0.621957 4.46109
1.50971 0.527919 3.054
1.38852 0.472477 3.25842
2.76054 0.310046 1.50204
4.07087 0.487357 2.09172
4.38515 0.578782 0.701391
3.41342 0.454503 2.60318
1.76508 0.379986 4.30561
3.92004 0.440053 0.121145
2.57554 0.590405 4.12738
1.94449 0.618715 4.49775
1.50179 0.51458 2.99189
0.69442 0.385242 3.08507
2.83677 0.341493 1.54596
3.51826 0.344356 2.30184
4.00567 1.10514 1.21934
0.683671 0.244012 0.988609
1.62218 0.43155 4.24366
1.00613 0.273637 0.801079
0.305164 0.14355 2.28964
3.8113 0.600807 2.35874
1.16399 0.0751263 3.0229
4.05587 0.427824 1.90101
1.81169 0.320906 1.64595
4.16122 0.365753 1.97139
4.06371 0.969997 1.19896
0.652595 0.225566 0.984865
1.72436 0.381421 4.23436
0.678262 0.315239 0.797538
0.369615 0.106879 2.3079
4.00008 0.82334 1.39499
1.02604 0.0378878 3.02817
2.01753 0.256553 2.14869
1.83715 0.308118 1.67658
4.03287 0.341527 2.03738
2.73258 0.35112 0.689242
2.20739 0 1.15134
2.22692 0.324427 4.29332
2.48012 0.481637 0.880698
3.82971 1.05927 0.904399
0.809712 0.209647 2.88511
1.02705 0.122761 2.32776
3.2323 0.550063 2.217
4.04027 0.632095 1.73254
2.68186 0.0676314 1.8536
2.67001 0.335391 0.634393
2.23038 0.0838776 1.36479
2.33224 0.25615 4.29492
2.49145 0.484973 0.896162
3.8258 0.991153 0.863917
1.91727 0.309524 1.67231
1.03489 0.210783 2.28355
3.24094 0.607195 2.23077
4.00784 0.653053 1.74577
2.67305 0.150811 1.79677
0.899967 0.22612 0.572677
0.506974 0.466333 0.74566
3.61222 0.276826 4.39884
0.958349 0.569145 0.568003
1.49318 0.215349 2.49646
1.16587 0.403478 3.48236
2.05364 0.468147 1.97185
0.537645 0.137923 2.63701
1.49588 0.204775 3.22951
1.3596 0.576539 3.77109
0.894775 0.220639 0.585979
0.475838 0.504321 0.774889
3.56134 0.234279 4.44835
1.00301 0.57423 0.56251
1.50384 0.213695 2.53247
1.05372 0.428652 3.47015
2.02746 0.457453 1.99226
0.293625 0.219372 3.04325
1.43788 0.204272 3.11336
1.18965 0.504098 3.61511
0.995906 0.526209 0.27433
0.749247 0.401773 0.781591
3.75709 0.403414 4.96785
2.85577 0.465158 0.609897
1.06987 0.611086 2.9597
0.693062 0.340836 2.39074
2.58026 0.60255 4.16889
0.867158 0.547643 3.04013
1.28069 0.404441 3.48195
2.80177 0.193973 1.39103
0.979869 0.51696 0.285907
0.760931 0.40795 0.773025
3.72574 0.415219 4.97204
2.84992 0.462863 0.604904
1.28804 0.636466 3.06143
0.679083 0.319326 2.38396
2.58177 0.607291 4.18636
0.82234 0.539174 2.99088
1.3657 0.430868 3.41605
2.82279 0.191411 1.35997
2.58153 0.334533 0.629391
1.01512 0.148732 0.69364
3.87421 0.294629 4.94846
0.910879 0.316862 0.530063
4.33042 0.923266 1.1675
3.67425 0.567415 5.25855
1.14018 0.526811 3.32869
3.66256 0.634077 2.47922
3.90186 0.730178 0.707047
3.27876 0.488153 2.2518
2.54376 0.295626 0.642015
1.02127 0.150234 0.645275
3.8864 0.31622 4.94013
0.815318 0.430451 0.48559
4.33709 0.931706 1.16213
3.69733 0.475385 5.22629
1.17479 0.521353 3.29798
3.60417 0.603214 2.48408
4.07012 0.792876 0.784225
3.283 0.479795 2.24858
POINT_DATA 400
SCALARS particleColor float 3
LOOKUP_TABLE default
0 0.65916 1
0 0.578198 1
0 0.983413 1
0 0.440559 1
0 0.676173 1
0 0.813046 1
0.301905 1 0.698095
0 0.718228 1
0 0.706563 1
0 0.757504 1
0 0.546366 1
0 0.468839 1
0 0.991342 1
0 0.450801 1
0 0.715681 1
0 0.744104 1
0 0.838474 1
0 0.438445 1
0 0.736848 1
0 0.746909 1
0 0.315866 1
0 0.82327 1
0 0.260525 1
0 0.82444 1
0 0.586432 1
0 0.477668 1
0 0.852309 1
0 0.746428 1
0 0.689142 1
0 0.700234 1
0 0.362596 1
0 0.842621 1
0 0.404749 1
0 0.791072 1
0 0.340745 1
0 0.365117 1
0 0.895678 1
0 0.893513 1
0 0.589959 1
0 0.412571 1
0.279626 1 0.720374
0 0.585798 1
0 0.727201 1
0 0.425983 1
0 0.760951 1
0 0.306957 1
0 0.696196 1
0 0.614889 1
0 0.40078 1
0 0.821156 1
0.254195 1 0.745805
0 0.604523 1
0 0.861391 1
0 0.563148 1
0 0.624185 1
0 0.384705 1
0 0.580725 1
0 0.689838 1
0 0.245667 1
0 0.908077 1
0.168983 1 0.831017
0 0.968851 1
0.046249 1 0.953751
0 0.306265 1
0 0.853484 1
0 0.875559 1
0 0.627534 1
0 0.483809 1
0 0.213523 1
0 0.710939 1
0.256849 1 0.743151
0 0.911113 1
0 0.500689 1
0 0.240742 1
0 0.629085 1
0 0.831593 1
0 0.712852 1
0.0658504 1 0.93415
0 0.293404 1
0 0.809174 1
0 0.271681 1
0 0.331071 1
0 0.369882 1
0 0.564827 1
0 0.479077 1
0 0.686251 1
0 0.362167 1
0 0.300213 1
0 0.878891 1
0 0.292573 1
0 0.406546 1
0 0.313001 1
0 0.718088 1
0 0.500181 1
0 0.493626 1
0 0.541403 1
0 0.082093 1
0 0.703119 1
0 0.980714 1
0 0.367261 1
0 0.762106 1
0 0.513809 1
0 0.742586 1
0.00772521 1 0.992275
0 0.530274 1
0 0.410174 1
0 0.921509 1
0.0855318 1 0.914468
0 0.315023 1
0 0.292917 1
0 0.552042 1
0 0.395865 1
0 0.610865 1
0 0.751327 1
0 0.498939 1
0 0.460144 1
0 0.922847 1
0 0.617473 1
0 0.420873 1
0 0.625004 1
0 0.565651 1
0 0.43886 1
0 0.317911 1
0 0.582344 1
0 0.778848 1
0 0.865761 1
0.253309 1 0.746691
0 0.603121 1
0 0.933035 1
0 0.766788 1
0 0.653719 1
0 0.485451 1
0 0.425595 1
0 0.435537 1
0 0.529978 1
0 0.627183 1
0.182042 1 0.817958
0 0.606292 1
0 0.627123 1
0 0.454938 1
0 0.874451 1
0 0.738802 1
0 0.743287 1
0 0.783252 1
0 0.875991 1
0 0.694993 1
0.0989708 1 0.901029
0 0.419688 1
0 0.251254 1
0 0.863004 1
0 0.892646 1
0 0.591115 1
0 0.568687 1
0 0.652745 1
0 0.933329 1
0 0.813714 1
0.0118336 1 0.988166
0 0.504437 1
0 0.365504 1
0 0.82426 1
0 0.774753 1
0 0.464539 1
0 0.586108 1
0 0.923193 1
0 0.930154 1
0.0805903 1 0.91941
0 0.49936 1
0 0.878303 1
0 0.948177 1
0 0.694073 1
0 0.755259 1
0 0.369296 1
0 0.623396 1
0.0599614 1 0.940039
0 0.850969 1
0.155689 1 0.844311
0 0.532301 1
0 0.927807 1
0 0.997783 1
0 0.704605 1
0 0.994664 1
0 0.487799 1
0 0.702265 1
0 0.377453 1
0 0.931107 1
0 0.773143 1
0 0.475355 1
0 0.376813 1
0 0.518067 1
0 0.580473 1
0.0451815 1 0.954818
0 0.701833 1
0 0.465193 1
0 0.393559 1
0.0840639 1 0.915936
0 0.808451 1
0 0.518979 1
0 0.165888 1
0 0.544767 1
0 0.745735 1
0 0.811383 1
0.0335612 1 0.966439
0 0.780572 1
0 0.694905 1
0 0.684133 1
0 0.917124 1
0 0.564711 1
0 0.521647 1
0 0.714379 1
0 0.286039 1
0 0.818677 1
0 0.845178 1
0 0.590192 1
0 0.491664 1
0 0.704062 1
0 0.954445 1
0 0.537126 1
0 0.557402 1
0 0.927964 1
0 0.564656 1
0 0.693014 1
0.0825685 1 0.917431
0 0.526009 1
0 0.872267 1
0.0755203 1 0.92448
0 0.308621 1
0 0.746624 1
0 0.369406 1
0 0.498876 1
0 0.828177 1
0 0.631504 1
0 0.679112 1
0 0.411876 1
0 0.772389 1
0.0844919 1 0.915508
0 0.26434 1
0 0.727521 1
0 0.594815 1
0 0.86074 1
0 0.85642 1
0 0.762727 1
0 0.645626 1
0 0.737768 1
0 0.643323 1
0 0.823956 1
0 0.816037 1
0 0.944952 1
0.00303758 1 0.996962
0 0.27838 1
0 0.834507 1
0 0.745673 1
0 0.674596 1
0 0.844757 1
0 0.552606 1
0 0.645049 1
0 0.519305 1
0 0.787073 1
0.170704 1 0.829296
0 0.38996 1
0 0.820437 1
0.123412 1 0.876588
0.455323 1 0.544677
0.0549893 1 0.945011
0.307842 1 0.692158
0 0.672494 1
0.26509 1 0.73491
0 0.846065 1
0 0.696577 1
0.0261738 1 0.973826
0.0845125 1 0.915487
0.04894 1 0.95106
0.503218 1 0.496782
0.137334 1 0.862666
0 0.991943 1
0.0665717 1 0.933428
0 0.912538 1
0 0.662614 1
0 0.566037 1
0 0.972829 1
0.00720837 1 0.992792
0 0.654923 1
0 0.459588 1
0 0.469688 1
0 0.218232 1
0 0.264242 1
0 0.737557 1
0 0.678552 1
0 0.340292 1
0 0.688152 1
0 0.800813 1
0 0.752522 1
0 0.417316 1
0 0.321363 1
0 0.36074 1
0 0.512348 1
0 0.671139 1
0 0.769842 1
0 0.744284 1
0 0.696211 1
0 0.403202 1
0 0.59886 1
0 0.609465 1
0 0.964292 1
0.286381 1 0.713619
0 0.248761 1
0 0.487865 1
0 0.469084 1
0 0.496591 1
0 0.864933 1
0 0.752184 1
0 0.695194 1
0 0.756079 1
0 0.961113 1
0.359789 1 0.640211
0 0.44073 1
0 0.830473 1
0 0.788328 1
0 0.926806 1
0 0.761631 1
0 0.769979 1
0 0.708936 1
0 0.50621 1
0.0408076 1 0.959192
0.0414063 1 0.958594
0 0.469952 1
0.558589 1 0.441411
0 0.58562 1
0 0.631662 1
0 0.973455 1
0 0.606999 1
0 0.374578 1
0 0.67081 1
0.0763188 1 0.923681
0.0761774 1 0.923823
0 0.545932 1
0.464418 1 0.535582
0 0.630756 1
0 0.50533 1
0 0.753932 1
0 0.512028 1
0 0.62498 1
0 0.823198 1
0 0.754616 1
0 0.716795 1
0 0.482532 1
0 0.365305 1
0 0.771375 1
0 0.546614 1
0 0.331529 1
0.0180993 1 0.981901
0 0.599713 1
0 0.910681 1
0.0364824 1 0.963518
0 0.782457 1
0 0.331378 1
0 0.385833 1
0 0.78775 1
0 0.725384 1
0 0.329228 1
0.0246629 1 0.975337
0 0.68369 1
0.157456 1 0.842544
0 0.735946 1
0 0.797273 1
0.190683 1 0.809317
0 0.931056 1
0 0.996903 1
0.334812 1 0.665188
0.188787 1 0.811213
0.0171581 1 0.982842
0 0.750282 1
0.140332 1 0.859668
0 0.835396 1
0 0.742268 1
0.211752 1 0.788248
0 0.950803 1
0 0.860898 1
0.213836 1 0.786164
0.0799264 1 0.920074
0.0572127 1 0.942787
0 0.73486 1
0 0.762878 1
0 0.654328 1
0 0.84078 1
0 0.987888 1
0 0.488664 1
0.00109654 1 0.998903
0 0.661842 1
0.0229789 1 0.977021
0 0.73011 1
0 0.633967 1
0 0.777724 1
0 0.772717 1
0.120533 1 0.879467
0 0.851263 1
0 0.322719 1
0.00569531 1 0.994305
0 0.543486 1
0 0.81594 1
0 0.755623 1
