# vtk DataFile Version 3.0
Particle simulation
ASCII
DATASET POLYDATA
POINTS 400 float
2.22504 2.57865 2.76724
9.09371 8.53144 2.09041
1.66992 4.07778 1.13719
6.36647 3.92456 6.51535
9.54225 0.650994 6.98308
0.662356 4.10986 0.319511
6.80096 2.62713 6.77693
4.44982 6.93819 8.57613
8.29271 0.348314 5.03219
7.57444 10 1.06777
7.4097 4.46339 4.71993
4.21081 1.09645 10
9.49397 5.62811 3.82403
8.46003 4.66873 2.48636
4.4244 3.1881 6.79638
4.10276 0.574667 1.2115
0 9.17414 4.50334
4.68725 0.347804 3.51116
4.98157 8.39642 9.60426
10 5.99422 1.37133
2.7917 0.294425 1.1394
6.08642 7.39212 0.459165
6.75342 1.52684 0
0.0938239 0.634778 1.10129
4.41019 6.91904 6.70327
6.09371 9.45821 0.663156
6.3699 1.94671 5.91595
9.16741 9.27802 4.80044
1.60378 3.44389 8.50343
0.308638 2.03169 7.7317
9.80317 7.68108 7.76766
7.16301 1.2303 1.61145
5.48942 9.14954 6.9837
2.44152 7.41962 10
9.63339 6.04474 7.40954
5.29626 8.19917 3.34602
1.54123 3.44552 8.44138
7.03835 0.33976 1.41409
5.69466 1.06847 3.18326
5.47332 7.95589 5.31232
7.05108 2.4934 9.33117
9.03587 8.40438 5.65718
5.14925 1.76148 2.43295
7.49431 1.09419 2.29812
2.71886 9.78646 9.57342
9.35068 0.769796 9.49451
8.25808 0.429802 3.59155
0.984414 0.243648 10
7.46295 5.28884 1.09896
7.99349 3.01934 8.8085
0.940805 4.38731 6.89049
3.89479 4.55788 1.53369
4.26126 7.14714 4.64367
7.7125 6.21729 4.80175
7.9451 0.664951 5.15983
0.689537 3.98641 2.03457
7.1209 2.58405 10
0 1.81104 9.37477
4.39895 3.94645 1.78677
4.90993 9.51027 6.33123
7.14234 3.06213 6.72451
7.88497 2.087 0.941811
1.729 5.85325 9.22871
5.16358 4.6422 9.79026
4.84511 3.67781 5.11574
8.88898 4.07626 4.64983
7.62538 1.45052 1.82333
1.71261 3.30991 6.93603
1.38083 0.53873 6.92993
0.351798 4.45689 0
9.09781 4.21205 3.97184
5.95665 8.81808 5.01465
7.4545 3.3584 7.9038
2.40817 5.00617 7.71879
9.47974 5.26033 2.65016
9.22968 0.342929 9.23979
6.77714 1.06392 2.63288
9.85618 6.28005 1.44627
0.685828 0.235943 9.71254
0.976979 3.98684 0
2.79296 1.74833 9.04334
7.7236 1.2355 8.39923
6.86357 10 3.59499
7.36924 5.02888 2.27782
7.51834 5.23207 9.94994
9.24965 7.06197 5.34591
1.24255 8.97026 8.41031
2.61065 1.03415 7.13067
1.54267 5.69969 6.3995
2.57227 6.86201 5.21113
5.2428 0.134259 4.02393
9.62913 9.12782 4.20059
1.29133 2.29831 7.49453
0.253175 6.43843 4.40093
6.99333 9.65974 2.1463
1.60925 4.42545 4.06959
3.70461 6.14191 9.88167
2.69201 0.674009 3.60281
1.14642 6.37504 7.28011
8.90831 2.07675 5.13616
3.67735 5.24175 2.20427
3.31791 0.725764 3.53309
1.55392 8.74344 3.80656
4.65491 0.389275 4.71218
7.36521 0.326493 0
3.06403 6.26797 4.32704
0.664828 8.99262 4.0098
1.13513 3.58279 1.86557
10 0.325664 8.52957
0 6.89402 9.65281
1.40356 5.61579 9.76166
8.95567 2.32308 5.62765
5.96897 6.66032 3.4693
3.6693 0 7.3388
2.51049 1.95194 4.316
8.94768 1.13065 0.827981
9.77753 9.56251 6.86577
4.38584 8.80217 4.06401
0.107698 2.23857 9.64782
2.38021 8.50422 0.229295
5.551 9.64671 1.03918
5.14713 5.16791 0.294022
0.484078 9.28158 9.91434
9.44301 8.34636 5.7197
9.29644 1.69854 3.76883
4.32354 1.65368 10
3.78212 4.33192 3.9232
8.92824 10 5.29459
8.25633 4.44135 9.51966
2.35914 8.21808 4.74582
10 5.96196 0.201717
3.81195 2.80633 7.39058
2.31197 1.8638 9.29494
0.804224 8.56251 2.3336
2.3857 7.47856 8.32288
1.08875 7.03214 1.67982
7.74504 3.84172 6.00233
6.98178 6.74124 7.77364
8.01648 7.71015 8.76405
9.97006 4.90317 1.71971
4.48371 0.382194 3.68458
9.93185 5.75375 3.61467
7.51136 9.22294 4.22134
8.06384 4.96199 4.25927
4.83881 9.00533 8.2249
9.70699 1.70783 2.8824
9.57146 6.53636 1.49869
1.61248 0.547831 0.37638
4.35223 8.27611 1.69188
6.88639 0.374085 5.40064
4.41905 0.315178 3.27659
6.78328 3.39345 3.64411
9.56822 2.42056 1.11082
3.63684 0.968576 6.18118
2.04807 9.80897 3.38897
5.7908 5.59213 9.35366
8.5412 6.97553 6.61055
8.22543 6.89486 8.56133
4.88014 7.56804 0.425002
8.9514 4.28152 1.78226
9.62187 10 1.60085
6.49858 3.3979 2.89106
1.70673 3.84355 6.35274
9.14674 9.05451 6.81872
2.24954 6.08012 4.50319
4.35585 4.55889 1.18873
8.74766 1.64895 0.11223
5.40475 9.44282 9.8669
5.09621 5.87968 5.97803
2.62535 9.59883 6.07313
6.6149 0.536146 3.30547
7.3938 0 0.0386904
2.02288 7.49422 6.01122
5.49376 0.700761 7.52572
1.97497 8.59053 7.63843
0.868753 1.82383 0
0.00692797 8.27306 6.31568
9.16265 7.38539 7.99326
0.829327 3.7934 3.41225
1.24465 2.44656 9.81769
3.26171 0.958145 3.8371
8.30466 4.99374 5.8609
0.630173 7.5075 1.95094
0.576019 1.03131 8.44585
6.84619 2.86067 8.08751
9.41249 8.72074 0
4.36017 0.303842 3.15136
8.2999 7.56798 9.04449
2.39411 1.82261 4.2697
2.70471 0.347326 5.14703
5.08061 0.102906 5.14479
4.65011 0.447684 4.38434
4.15105 8.68061 2.29241
7.91453 6.49639 3.6659
0.504088 3.11612 1.23729
2.35133 9.65575 2.99623
6.34962 0.525393 3.28866
9.00744 2.51709 1.6561
8.69874 1.92301 3.07434
3.77005 0.467537 3.02927
4.34947 0.455435 3.16042
0.988517 9.66872 7.6232
2.50535 7.28956 1.26661
8.89691 3.15817 5.83554
2.36333 3.74792 3.31469
4.89932 10 3.49932
2.60453 2.36334 5.22798
1.06996 3.62949 5.59684
0.203422 3.71017 4.56966
8.92992 3.33339 0.111106
4.52136 0.239744 3.28531
4.56709 0.277535 3.48813
0.475125 5.27501 2.40147
4.258 6.15819 6.72285
1.40646 8.28267 8.92591
1.93069 7.58208 0.96637
4.28492 0.654955 3.4074
8.95999 4.30974 5.79488
8.77863 5.93677 8.56379
0.574335 4.35541 0
7.84354 7.20949 8.06201
0.104026 9.80033 7.3753
0.0964721 6.07275 2.52121
3.95976 0.464181 3.02409
3.37504 3.00161 0.683858
9.89117 8.39892 9.37282
6.46711 5.33545 6.02481
5.31668 0.212577 4.05093
4.66169 0.465807 3.54549
4.76545 2.10585 9.77155
1.95131 5.76872 8.71694
7.8455 8.20712 1.84723
4.26458 0.598568 6.36526
4.5176 0.333992 3.28022
1.52866 0.420665 8.00468
1.91334 7.57761 8.70206
4.09864 0.814105 7.45097
6.58111 8.8651 9.83118
4.2533 0.300042 3.31442
5.14588 0 0.421175
4.38544 0.386395 3.35155
6.45958 0.180416 1.67747
3.67241 1.90971 5.73948
7.10818 1.38178 2.25448
5.96793 3.76915 1.37534
6.10676 3.12376 3.61113
4.67576 7.7185 2.47688
0.105127 7.91658 3.65036
8.36377 8.6885 9.03692
2.56697 3.88647 2.76033
4.45581 0.531738 2.76679
0.745207 2.46082 9.31511
9.64799 6.29611 8.37549
4.7641 3.21443 4.36801
3.26088 0.478881 3.51189
1.05397 4.42021 0.133935
1.27396 0.888333 2.46926
1.47575 0.222754 7.77944
1.74424 8.56519 1.82885
2.54647 0.127403 6.52843
8.958 8.59977 6.44994
2.62022 5.79163 7.52306
0.836213 6.31852 1.57808
8.58903 1.85047 9.67054
0.625304 2.364 0.732112
5.83878 0 3.19598
1.49935 6.04444 2.20125
1.52921 0.420495 7.50222
2.69508 0.204225 3.11127
8.06873 6.00168 2.08757
4.50357 0.29544 3.76245
2.86377 6.40262 0.972358
0.792485 5.79077 3.85176
8.7758 2.08911 1.93555
1.20667 4.63654 8.92534
4.82762 0.948075 9.53994
2.37042 8.47046 5.50872
9.8576 1.47079 5.71624
5.79866 1.73851 2.25477
4.61233 0.409942 3.27632
3.2533 9.78484 1.0891
9.42522 0.673314 2.0653
0.139278 4.01811 4.59743
2.49683 3.33291 6.69611
6.18293 6.9048 7.16109
7.28779 3.70488 3.83089
4.37627 0.397449 3.62799
7.11544 9.61253 3.2326
4.65877 2.7405 1.19632
8.94447 4.56321 3.20619
5.07354 8.21853 9.72969
0.516953 8.18459 3.94401
1.99504 5.49591 7.22073
8.09302 0.666956 1.25711
5.45778 7.49179 3.43793
1.60635 0.363592 8.00434
4.51601 0.432882 3.59378
4.42798 0.185489 3.47559
3.91303 0 3.52667
4.70881 0.243787 3.29757
3.17812 9.5292 8.74013
10 2.79791 0.419499
4.76547 0.623363 3.63867
3.41331 6.20068 7.27046
4.36476 0.503607 3.8086
1.78743 8.42648 3.68473
4.54103 0.0440561 3.45481
4.28915 0.370345 3.218
4.70336 8.77926 1.42931
7.11549 5.46454 7.86784
8.55368 8.27048 2.89278
1.79324 1.81796 0.81148
9.55158 5.92025 1.05358
4.37723 0.282513 3.77293
9.2947 4.08027 9.83782
6.12604 9.03331 4.66872
7.11763 3.95017 2.64075
1.22965 3.153 8.648
8.64156 7.83831 7.16778
3.43772 2.75291 0.175495
1.47293 0.0300141 8.00004
3.25461 5.79756 5.6753
1.51173 0.351348 7.73172
4.57367 0.275382 3.81393
5.30182 0.610786 3.49051
1.4652 9.52536 4.51334
4.35159 0.74677 3.06321
2.56412 0.891019 0.993179
6.82467 5.52285 5.9929
4.61239 0.285631 3.28737
1.88986 0.748399 7.42203
1.46172 0 3.43334
8.87844 4.28138 7.51787
2.98698 5.33832 3.18479
9.4931 0.763979 1.87584
1.16101 6.9506 4.13085
3.62234 7.30773 6.48545
4.6811 0.430631 3.71025
7.11554 7.37477 0.457811
7.61477 4.25586 4.22846
5.55029 8.27488 5.2454
8.58533 8.1486 10
1.64539 2.8112 6.99313
1.69213 0.13942 7.98964
4.63743 0.253122 3.49279
4.98279 0.456193 4.35661
9.68915 0.494879 1.31512
4.64694 0.612916 3.119
4.52115 0.741771 2.85685
9.67808 1.50836 0.530719
4.74067 0.305843 3.32053
4.41234 0.591127 3.37047
2.48299 1.12779 7.67662
4.50872 4.83406 4.53052
2.51243 1.72095 4.6194
4.61946 0.416437 3.8188
9.60995 2.3303 8.27499
10 9.96043 2.8803
4.27356 0.443185 3.2408
4.37529 0.240992 3.18013
9.66299 0.642086 1.26308
1.86832 0.214749 7.91045
1.66326 0.173611 7.87008
4.12369 0.571828 2.81648
4.67105 0.341116 3.5922
9.47739 0.328019 1.73289
2.11711 0.0928475 8.24542
2.00565 7.96327 6.15088
1.68575 0.262291 8.05678
2.70513 2.9951 2.48045
9.30318 0.697468 2.27236
0.39104 7.80646 2.25197
8.34142 8.13261 4.50954
5.18832 0.591143 3.3811
4.57459 0.279949 3.76423
9.40675 0.780553 1.76186
1.67083 0.664893 8.17171
1.55498 0.407721 8.3041
0.594234 3.53872 9.22858
5.05008 0.218509 3.60563
4.34926 0.450468 3.02797
4.3348 0.586384 3.06363
0.906841 4.56769 8.52817
4.46369 0.581502 3.69634
8.24422 6.72722 8.32177
1.77486 0.477675 8.02125
4.62881 0.0733338 3.40028
4.13828 0.374894 3.1822
0.941134 9.88946 7.07911
8.30703 0.103583 7.65894
4.72194 0.562255 3.56634
4.90393 0.39172 3.52431
2.0517 0.192934 7.97033
4.37726 0.631731 3.47725
6.02908 7.46086 8.07673
1.3825 0.090616 7.80831
4.80058 0 3.3571
6.82377 4.24079 2.76982
1.42839 5.01689 0.231641
9.73789 0.959992 1.56632
POINT_DATA 400
SCALARS particleColor float 3
LOOKUP_TABLE default
1 5.96046e-08 0
1 5.96046e-08 0
1 0.504895 0
1 5.96046e-08 0
0.499383 1 0.500617
1 5.96046e-08 0
0.233262 1 0.766738
1 0.0334395 0
1 5.96046e-08 0
1 5.96046e-08 0
1 5.96046e-08 0
1 5.96046e-08 0
1 0.158075 0
0.589496 1 0.410504
1 5.96046e-08 0
1 5.96046e-08 0
1 5.96046e-08 0
0 0.660684 1
0.304674 1 0.695326
1 5.96046e-08 0
0.120814 1 0.879186
1 5.96046e-08 0
1 0.348952 0
0.546522 1 0.453478
1 0.189514 0
1 5.96046e-08 0
1 0.547375 0
0.556223 1 0.443777
1 5.96046e-08 0
0.757831 1 0.242169
1 5.96046e-08 0
0 0.730577 1
1 0.992195 0
1 0.76741 0
0 0.852422 1
0.799217 1 0.200783
0.853616 1 0.146384
0 0.761909 1
1 5.96046e-08 0
1 0.667613 0
1 0.633765 0
0.910005 1 0.0899945
0 0.563187 1
1 5.96046e-08 0
0 0.720586 1
1 5.96046e-08 0
0.478851 1 0.521149
1 0.0728415 0
1 0.177776 0
1 0.737469 0
1 0.077166 0
1 0.791536 0
1 0.125887 0
1 5.96046e-08 0
1 5.96046e-08 0
0 0.853523 1
0.9534 1 0.0466
0 0.581845 1
1 5.96046e-08 0
0.884223 1 0.115777
1 5.96046e-08 0
1 0.826916 0
0.502064 1 0.497936
1 0.440048 0
1 0.83516 0
1 5.96046e-08 0
1 0.70334 0
0.678202 1 0.321798
1 0.510529 0
0 0.688804 1
1 0.0847121 0
0.49251 1 0.50749
1 5.96046e-08 0
1 5.96046e-08 0
1 5.96046e-08 0
1 0.504907 0
1 5.96046e-08 0
1 5.96046e-08 0
0.196432 1 0.803568
1 5.96046e-08 0
1 5.96046e-08 0
1 0.296175 0
1 0.815408 0
1 5.96046e-08 0
1 5.96046e-08 0
0.179928 1 0.820072
0.303785 1 0.696215
0.425986 1 0.574014
0.221902 1 0.778098
1 5.96046e-08 0
0 0.511542 1
0.105288 1 0.894712
1 5.96046e-08 0
1 0.117695 0
1 5.96046e-08 0
0.498029 1 0.501971
1 5.96046e-08 0
0.784261 1 0.215739
0 0.953265 1
1 5.96046e-08 0
1 5.96046e-08 0
1 5.96046e-08 0
1 5.96046e-08 0
1 0.606708 0
1 0.303957 0
1 5.96046e-08 0
1 5.96046e-08 0
0.0277348 1 0.972265
1 5.96046e-08 0
1 5.96046e-08 0
0.902136 1 0.097864
0.678556 1 0.321444
1 0.937206 0
1 5.96046e-08 0
0.109021 1 0.890979
0.883906 1 0.116094
1 5.96046e-08 0
0.70909 1 0.29091
0.253799 1 0.746201
1 0.905062 0
1 0.156698 0
1 5.96046e-08 0
1 5.96046e-08 0
1 0.556719 0
0.156887 1 0.843113
0.909737 1 0.0902629
0.761857 1 0.238143
0.637807 1 0.362193
0.113193 1 0.886807
1 5.96046e-08 0
1 5.96046e-08 0
1 5.96046e-08 0
1 5.96046e-08 0
0.079018 1 0.920982
1 5.96046e-08 0
1 5.96046e-08 0
1 5.96046e-08 0
1 5.96046e-08 0
1 5.96046e-08 0
0 0.640451 1
0 0.335943 1
1 5.96046e-08 0
1 0.475839 0
1 5.96046e-08 0
1 0.424571 0
1 0.945058 0
0.695681 1 0.304319
1 0.882282 0
1 0.331399 0
0.48648 1 0.51352
0 0.44389 1
1 0.948727 0
0.897021 1 0.102979
0 0.778574 1
1 0.280231 0
0.526544 1 0.473456
0 0.844378 1
0.023509 1 0.976491
0.436314 1 0.563686
1 0.354983 0
1 5.96046e-08 0
0 0.339904 1
1 5.96046e-08 0
1 5.96046e-08 0
0.902294 1 0.0977057
1 0.223315 0
1 0.597032 0
0.972821 1 0.0271788
1 5.96046e-08 0
1 5.96046e-08 0
1 5.96046e-08 0
1 0.313953 0
1 0.372463 0
0.433077 1 0.566923
1 0.470524 0
1 0.703755 0
1 5.96046e-08 0
1 5.96046e-08 0
1 5.96046e-08 0
1 0.891842 0
0 0.569554 1
1 0.892877 0
0.501876 1 0.498124
1 5.96046e-08 0
0.628016 1 0.371984
1 5.96046e-08 0
0 0.289522 1
0.535625 1 0.464375
0.127938 1 0.872062
0.880434 1 0.119566
0 0.875155 1
0 0.495183 1
1 0.869897 0
1 0.0551561 0
1 0.537185 0
1 5.96046e-08 0
1 0.134275 0
1 0.972932 0
1 5.96046e-08 0
0 0.419142 1
0 0.556843 1
1 0.76353 0
1 0.456989 0
1 5.96046e-08 0
1 0.743695 0
1 5.96046e-08 0
1 0.244086 0
0.281512 1 0.718488
1 0.293112 0
1 0.717214 0
0 0.557083 1
0 0.868574 1
0 0.956317 1
1 0.953458 0
1 5.96046e-08 0
1 5.96046e-08 0
0 0.642223 1
0 0.475945 1
1 0.35898 0
1 0.561954 0
0.603498 1 0.396502
1 5.96046e-08 0
1 5.96046e-08 0
0 0.725165 1
1 5.96046e-08 0
1 0.484595 0
0.704262 1 0.295738
0 0.798764 1
0 0.147643 1
1 5.96046e-08 0
0.0918311 1 0.908169
0.463032 1 0.536968
1 0.373925 0
0 0.89068 1
0 0.549971 1
1 5.96046e-08 0
1 5.96046e-08 0
1 0.576885 0
0 0.38274 1
1 5.96046e-08 0
0.0962172 1 0.903783
0 0.973521 1
0 0.47578 1
1 0.579125 0
0.4283 1 0.5717
0.948109 1 0.0518914
1 5.96046e-08 0
1 5.96046e-08 0
0.187621 1 0.812379
0 0.295013 1
0 0.408783 1
1 0.460407 0
1 0.930648 0
1 5.96046e-08 0
1 5.96046e-08 0
0.504053 1 0.495947
1 0.319272 0
0 0.168861 1
1 0.60551 0
0 0.800203 1
1 5.96046e-08 0
1 5.96046e-08 0
1 0.983886 0
1 5.96046e-08 0
1 5.96046e-08 0
1 5.96046e-08 0
0.784049 1 0.215951
0 0.810938 1
0.763256 1 0.236744
0.208576 1 0.791424
0 0.59558 1
0 0.621452 1
0.75734 1 0.24266
1 0.710647 0
1 5.96046e-08 0
0.746174 1 0.253826
1 0.580004 0
1 5.96046e-08 0
1 0.641039 0
0 0.656887 1
0.941645 1 0.0583553
0.0708172 1 0.929183
0.896991 1 0.103009
1 5.96046e-08 0
1 5.96046e-08 0
1 5.96046e-08 0
0 0.678537 1
1 0.333788 0
0.513197 1 0.486803
1 0.690212 0
1 5.96046e-08 0
1 5.96046e-08 0
1 5.96046e-08 0
1 5.96046e-08 0
1 0.333335 0
0 0.496582 1
0 0.900653 1
0 0.3038 1
0.288956 1 0.711044
0 0.221788 1
1 5.96046e-08 0
1 5.96046e-08 0
0 0.760995 1
1 0.348574 0
0.00726075 1 0.992739
1 5.96046e-08 0
0 0.663418 1
0 0.33242 1
0.644233 1 0.355767
0 0.849407 1
1 0.802389 0
1 5.96046e-08 0
0.392851 1 0.607149
0 0.770421 1
1 0.408706 0
1 0.399976 0
0.75019 1 0.24981
0.711761 1 0.288239
1 5.96046e-08 0
0.991313 1 0.0086869
0 0.273345 1
1 5.96046e-08 0
0 0.946042 1
0 0.356123 1
0.00348877 1 0.996511
1 5.96046e-08 0
0 0.31941 1
0.432458 1 0.567542
0.825619 1 0.174381
0 0.350101 1
0.114979 1 0.885021
0.989282 1 0.0107178
1 5.96046e-08 0
0 0.921135 1
0 0.284079 1
1 5.96046e-08 0
0.422964 1 0.577036
0 0.220015 1
1 5.96046e-08 0
1 0.0776855 0
0.937744 1 0.062256
1 0.597865 0
0.460344 1 0.539656
0 0.487742 1
0.258684 1 0.741316
0 0.13854 1
0 0.952415 1
0 0.711629 1
0.0944652 1 0.905535
1 0.465267 0
0 0.756024 1
0 0.599805 1
1 0.618974 0
1 5.96046e-08 0
0 0.588599 1
0 0.992198 1
0.178688 1 0.821312
1 0.97473 0
0.149408 1 0.850592
0 0.930472 1
0 0.721554 1
0 0.471898 1
0 0.576644 1
0.26601 1 0.73399
0.334106 1 0.665894
0 0.826961 1
0 0.925756 1
0 0.819558 1
0 0.304763 1
1 0.923363 0
0 0.803432 1
0.888623 1 0.111377
1 5.96046e-08 0
0 0.371161 1
0.351212 1 0.648788
0 0.839127 1
0 0.395803 1
0.159954 1 0.840046
0 0.349545 1
0 0.202985 1
0 0.760311 1
0 0.509271 1
0 0.374059 1
0 0.285377 1
1 0.297276 0
0 0.604817 1
0 0.12204 1
0 0.343914 1
0.577598 1 0.422402
1 0.518398 0
0.113387 1 0.886613
0 0.572082 1
0 0.750117 1
0 0.815226 1
1 0.0674287 0
0 0.850263 1
0 0.31041 1
1 0.89842 0
1 0.328409 0
0 0.765204 1
