# vtk DataFile Version 3.0
Particle simulation
ASCII
DATASET POLYDATA
POINTS 400 float
4.26613 0.313187 9.64564
2.38821 1.71462 5.1144
1.07511 1.55258 6.18814
2.5358 0.0256136 4.00896
9.71232 2.53368 5.74681
2.87783 3.21813 4.90556
1.15831 0.904959 1.15669
5.99354 2.96126 3.45113
8.45046 0.637787 2.24338
2.55941 1.84355 9.96216
1.99085 1.55435 3.36429
3.86945 6.0422 3.48341
9.06947 1.7634 6.26361
1.28099 2.59581 3.33229
9.07252 2.34644 5.01562
7.24426 4.26811 9.20131
1.87687 3.79681 0.274842
3.43735 0.679939 1.1751
3.80544 6.18148 9.40435
5.87808 1.08766 3.9638
3.20331 0.55474 1.65637
8.71855 0.580526 3.0558
5.68919 0.553918 8.29113
0.90322 3.33205 1.09555
6.80743 0.967558 3.1663
0.205006 2.99698 6.78853
0 5.94356 9.49171
1.38424 1.37637 3.50724
9.29913 0.145264 2.20558
7.12511 2.27876 3.95403
2.06442 3.39306 7.09731
2.11743 5.31795 0.383366
3.12191 6.13994 5.24556
4.01838 0.761456 0.00218923
7.01023 2.91723 4.00871
9.2072 2.36155 0.227367
9.51933 0.684597 5.81077
3.35257 0.296244 1.87133
7.38384 0.640557 2.99426
1.00742 0.415993 6.46767
5.9486 1.55859 6.17976
8.88331 3.02375 7.62702
0.668176 1.87364 2.01689
7.08593 1.04293 2.43102
8.06941 0.418923 4.93636
5.50472 0.672835 0.884262
1.33042 1.32597 8.7935
6.82808 2.67816 6.74152
5.37615 0.427914 1.39338
5.90011 3.36746 3.3104
5.11528 2.32473 3.00079
2.27274 8.09151 5.8849
7.92301 1.44355 9.20327
3.21882 0.611418 8.20012
6.70996 1.60341 9.89371
5.59144 0.773355 0.847366
9.71981 2.55021 9.6497
0.306856 0.705274 8.65276
6.20346 1.7174 0.811651
5.95476 8.09198 2.50908
2.29384 7.48793 2.63245
4.44611 8.50988 2.07834
6.07769 0.397623 8.57665
2.33291 0.456324 9.28217
1.05988 9.5948 1.99534
0.355094 1.7194 7.13388
3.52018 1.33825 9.09016
3.8883 3.39657 0.472989
6.25603 1.59953 0.903013
5.12911 1.13687 7.7843
6.76237 0.814464 4.71646
3.31244 0.25354 1.6032
2.52005 3.3314 8.77792
2.25268 0.104315 9.01327
2.69551 0.130232 5.48151
9.8336 0.339193 0.895558
3.54891 1.33499 9.05908
4.78075 0.615437 7.79076
7.19673 9.23621 0.031428
5.22771 2.83487 9.84917
3.35533 0.268889 1.58325
3.06725 0.363196 1.51379
0.640548 1.26515 3.71316
3.82196 0.136206 1.57013
0.929417 0.763917 9.24141
4.83139 0.914382 8.57171
2.52678 2.43352 0.304255
0.814792 0.639616 5.28798
3.92189 6.74221 0.974839
7.82008 0.419973 0.023592
2.88331 0.427486 2.15078
1.87063 0.265912 1.59498
1.29862 0.47442 6.48883
3.89752 0 3.87882
1.13197 0.455582 9.05029
4.12363 0.126831 9.81813
6.99563 1.16209 7.1248
3.47132 5.91277 1.96227
6.249 7.83262 6.84001
7.70879 0.424327 0.0746144
3.38067 0.710693 0.848883
7.18562 0.387975 5.02452
3.80974 0.182245 3.96964
9.56174 0.282268 4.98169
0.250872 4.72742 5.1418
1.50837 0.741002 0.773236
9.22958 0.57202 9.72396
5.70775 0.426281 1.57797
6.57355 0.250097 1.32614
9.14262 1.69008 0.852597
6.59515 8.58891 5.54831
1.92901 0.214144 9.69241
5.52812 2.99746 0.157768
5.87775 0.15938 2.00948
3.46955 0.329184 1.7891
0.989824 0.39149 6.65392
4.86537 0.930331 7.72002
6.5812 0.949853 2.86903
6.82702 0.17014 0.831847
6.61639 1.57928 9.76373
3.22515 0.182728 1.71376
5.02087 9.37027 1.80255
7.55354 5.13369 1.77733
0.184099 4.8877 9.07755
6.53139 1.69754 9.80204
3.64179 0.302952 1.30037
7.47935 0.877673 8.31571
2.25325 0.193175 9.17519
2.54116 0 8.81524
2.89479 3.53577 1.85723
3.23869 0.552052 2.66565
0.668575 0.511648 4.7084
9.08727 0.883056 9.57121
5.67307 0.736192 5.89072
1.0651 6.65666 7.17546
1.38487 0.453491 0.578895
6.60851 5.79315 0.780903
2.24456 0.444456 9.20065
4.81313 9.72546 9.28451
5.34142 0.709678 8.77779
3.58422 0.304566 2.03053
0.385506 5.34614 9.44819
0.145112 9.28504 6.62692
6.65694 1.94924 9.97653
3.11645 0.330514 1.56457
3.18505 0.373049 1.66618
8.31003 0.235241 5.10497
0.448862 2.83943 0.0266322
2.86184 0.740763 1.09741
3.11983 8.55338 1.6289
3.63064 0.33191 2.01441
9.51839 1.50739 7.0512
0.463731 1.72709 7.22691
7.64891 2.85472 8.35462
5.3568 5.4856 0.0144999
5.55128 0.305743 1.07759
8.43131 0.183269 5.65541
3.07162 0.47884 2.10963
8.67588 0.670087 4.00311
2.35118 0.422893 0.471913
9.80685 2.63879 2.66369
0.94809 1.69569 6.16577
5.69196 0.196393 8.39331
3.70663 0.652621 1.14617
4.97103 0.765974 3.63917
8.07887 1.60612 9.53528
5.47948 0.678462 8.73657
5.50981 0.788433 8.47721
6.49967 0.469626 5.82549
9.48849 4.90229 2.67367
3.24224 0.664468 1.78072
2.43543 0.897013 0
6.04578 2.02273 1.53156
1.26135 0.468181 0.49468
3.48938 0.465137 3.63609
9.13697 2.31636 0.266745
4.46527 1.18979 8.74672
4.75857 0.837907 8.1616
7.13321 1.54494 7.2231
0.842993 7.16914 0.208956
3.72549 0.221506 1.50755
4.05903 1.31918 3.94221
5.06268 4.35729 3.61787
3.37812 0.463154 1.87949
5.56346 0.558505 8.4107
2.98172 0.701614 2.51699
3.36535 0.488536 1.44099
1.74641 0.0728192 6.73017
8.08135 0.164477 4.9339
3.29918 0.187199 1.71002
3.50237 0.307101 1.63692
3.51827 0.474623 0.901786
1.30665 1.46279 2.92776
1.65161 1.19313 1.9003
5.14147 5.93389 7.44402
3.35096 0.567862 1.44272
3.72071 0.576958 3.7327
1.25551 9.83668 0
3.33058 0.518422 0.823738
3.82334 1.04209 1.04329
3.18189 0.390151 2.21552
5.48857 0.465878 1.16481
8.35446 0.50573 4.56369
4.6802 1.06853 8.67356
5.65243 6.61723 2.78757
5.59252 0.470382 8.77684
3.53131 0.475152 1.36185
1.86636 2.38151 9.69569
0.760303 0.83715 8.29883
7.68939 0.376558 0.197723
3.97208 0.638763 1.11308
6.11938 0.381859 1.21412
6.95899 1.29707 7.22771
6.29167 1.646 9.88369
7.05744 0.602435 9.2976
5.71049 0.46002 8.36779
3.43181 0.713891 1.31841
2.96602 0.369067 0.899916
3.64081 1.85952 7.14149
7.64162 0.332146 0.426542
7.44157 0.935115 3.00514
9.03784 0.481802 9.83777
5.87661 0.198229 7.99248
3.07719 0.481179 1.81382
5.21053 1.04119 9.37844
2.86487 0.453342 1.98276
6.15821 6.67441 0.0980011
3.57856 0.479659 1.03261
3.1038 0.540952 1.77481
7.9979 1.81981 9.51151
1.46825 1.82352 6.44641
5.18622 0.665313 9.05363
8.6461 0.44681 5.32406
3.32379 0.506152 1.14134
5.19543 0.789307 7.62141
0.0474387 1.18324 3.91847
3.48527 1.40205 9.00839
3.70892 0.202242 3.64304
3.26575 0.255582 0.731298
0.439724 1.15433 9.17902
3.1749 0.610318 1.78053
2.83608 0.26947 2.1119
3.01211 0.0872889 1.11446
3.77517 0.785768 1.62199
5.69285 0.286194 8.68046
1.79822 0.597741 0.615378
1.73968 3.59335 0.229637
4.02063 0.705237 8.50861
6.99589 0.246967 1.12399
5.49141 0.356743 8.50906
3.11148 0.469436 2.02488
10 4.20362 4.06109
5.85793 0.422558 8.4065
3.74922 0 3.87215
8.26642 0.306007 5.11219
3.34601 0.445976 2.14073
9.70928 0.550504 1.1515
5.47256 0.234216 7.85863
5.82966 1.02124 0.181618
5.78013 0.680439 8.39513
3.68191 0.132014 1.76034
7.43758 2.44628 2.69014
4.58534 1.02144 8.57911
9.1517 1.74483 0.573183
5.2463 0.487692 9.06025
6.71342 1.12292 2.61251
2.38591 0.526502 1.56792
5.5359 0.784849 9.2609
8.2752 0.116834 5.25675
3.60166 0.61594 1.27752
3.36371 0.556944 1.29949
2.08179 1.56636 3.05062
7.41311 0.696204 2.82168
4.29117 0.380463 3.85825
5.50633 0.633474 9.02665
5.28347 0.715796 8.86825
3.35052 0.0112408 7.97115
5.59703 9.41116 9.3742
0.766756 0.724261 8.79848
3.42967 0.421971 1.62734
8.03333 0.544539 0.597153
6.04692 0.595291 1.17743
4.47951 1.74445 3.03017
2.07401 0.234685 9.89821
9.78116 3.98627 7.87322
8.5324 0.625854 5.19818
3.01659 0.3526 1.60544
2.85743 0.680574 1.43689
5.91964 0.536598 8.87275
1.18166 5.18987 9.07449
8.96721 0.159756 2.23457
5.01821 0.452928 1.43507
3.50367 0.145111 1.47199
2.07416 0.153679 9.19462
5.86234 0.271683 8.24332
5.6402 0.377949 8.48101
2.81365 0.389382 1.95554
3.0997 0.193417 1.37486
3.62845 0.951577 2.4358
2.96282 0.330981 1.88006
7.82908 0.23514 0.0856552
6.744 1.85843 9.86494
1.75202 2.47909 9.59303
6.3925 0.478562 6.52474
3.62179 0.130332 1.93491
0.286525 1.2207 2.92711
4.17059 0.175213 2.34403
3.40946 0.182667 1.91926
2.43488 1.66142 9.98339
3.48583 0.0913773 4.08972
4.98737 0.93192 7.75406
9.55289 1.4082 7.0227
8.56291 0.647884 5.09871
3.08407 0.358839 1.97596
2.93503 0.305356 1.50194
0.389726 0.638327 8.46479
4.07841 0.153015 1.90871
5.67611 0.936252 0
6.03418 0.209765 1.54357
3.3768 0.375703 0.76942
5.63934 0.714681 8.65209
0.509861 1.63291 3.94205
5.61654 0.190678 8.39207
2.94009 0.546469 1.01099
7.44725 0.0451051 0.250468
7.63715 0.356411 0.138432
3.24257 0.152126 1.07569
5.58197 0.474985 1.42949
5.39531 0.238738 1.89906
3.46067 0.445845 2.20407
8.42949 1.56843 9.51548
3.52169 0.580782 1.34264
5.63902 0.161652 8.69043
3.18191 0.382988 1.91093
5.85604 0.758671 1.43362
9.80737 4.39089 7.73478
5.16323 0.495559 1.3276
3.26529 0.269623 1.8373
9.19531 1.8445 0.802852
3.49077 0.42525 3.52822
5.01931 0.820286 7.74372
3.55847 0.140679 3.74453
5.70482 0.366389 8.68219
6.1556 0.412233 8.85442
3.13691 0.246616 1.38637
3.16338 0.474407 1.34781
5.52221 0.525636 1.22557
3.16384 0.253444 1.98758
3.20931 0.465255 1.19126
3.63429 0.35942 3.39036
2.29606 0.565641 1.62522
3.54688 0.337776 1.3528
5.81029 0.478404 8.52625
5.5749 0.781014 8.54201
3.27718 0.248787 0.832794
2.98334 0.163514 1.67189
5.88804 0.34482 1.06811
5.65375 0.342584 9.23906
2.94578 0.477428 1.29911
3.40899 0.235706 1.451
5.74977 0.38571 1.38694
5.26768 0.56758 8.72572
5.40712 0.615629 8.51461
3.15631 0.3545 1.64072
2.53756 0.503283 1.59033
8.39938 0.375344 5.13494
5.83858 0.447118 8.63754
5.36086 0.405202 8.21011
5.73839 0.701532 8.55419
4.07051 0.57631 1.35847
5.72137 0.430143 1.38759
9.59448 1.44403 6.88884
5.75394 0.413925 8.48871
3.36806 0.00215547 2.3692
3.00871 0.220269 1.61659
8.31697 0.289239 5.01252
5.37747 0.657602 8.50448
5.63047 0.228164 8.4161
5.8254 0.600219 8.375
3.49553 0.55479 1.14953
3.28675 0.39057 1.47526
3.01585 0.278611 1.60801
5.83352 0.615936 7.92606
3.28779 0.660201 1.83224
2.33838 0.144447 9.15721
5.6328 0.568458 8.4086
3.61933 0.566272 1.13462
3.60699 0.364101 1.7013
2.32823 5.44437 3.2863
5.52106 0.697665 1.49327
3.35208 0.38047 1.4879
3.24612 0.305708 1.61731
5.5968 0.205944 8.27558
3.28495 0.579765 1.14371
2.17218 0.0812853 8.99049
5.34924 0.55634 8.62027
3.66725 0.55372 1.11735
3.70825 0.396433 3.78856
7.71845 0.074853 0.534399
5.51403 0.701669 1.47628
POINT_DATA 400
SCALARS particleColor float 3
LOOKUP_TABLE default
0.359891 1 0.640109
0.548962 1 0.451038
0 0.597295 1
0 0.844805 1
0 0.326946 1
1 0.872782 0
0 0.69569 1
0 0.663445 1
0.368184 1 0.631816
0 0.515391 1
0.808772 1 0.191228
1 5.96046e-08 0
0 0.384907 1
0.635324 1 0.364676
0.103766 1 0.896234
0 0.478531 1
0.245686 1 0.754314
0 0.150062 1
0 0.826507 1
0.110014 1 0.889986
0 0.528206 1
0 0.483177 1
1 5.96046e-08 0
0 0.315928 1
1 0.983439 0
0 0.918883 1
1 5.96046e-08 0
0.421695 1 0.578305
0 0.968377 1
0 0.337975 1
0 0.693236 1
0.0425457 1 0.957454
0.43508 1 0.56492
0.121837 1 0.878163
0.428896 1 0.571104
0.454494 1 0.545506
0.753278 1 0.246722
0 0.502955 1
0 0.371493 1
0 0.997778 1
0.740015 1 0.259985
0 0.409111 1
1 0.35685 0
0.401623 1 0.598377
0 0.313876 1
0 0.184324 1
0.254268 1 0.745732
0 0.470395 1
0 0.255176 1
0 0.698812 1
0.645312 1 0.354688
1 5.96046e-08 0
0 0.894459 1
0 0.897121 1
0 0.665796 1
0 0.474256 1
0 0.758617 1
0 0.451186 1
0 0.243679 1
1 0.748404 0
0.0922299 1 0.90777
1 5.96046e-08 0
1 0.806739 0
0 0.383384 1
0 0.703157 1
0 0.65437 1
0 0.820345 1
0 0.840547 1
0 0.767128 1
0 0.540056 1
0 0.961933 1
0 0.801533 1
0.200654 1 0.799346
0 0.474618 1
0.533346 1 0.466654
0 0.769864 1
0 0.591053 1
0 0.300545 1
0.199491 1 0.80051
0.416546 1 0.583454
0 0.791995 1
0 0.684548 1
0 0.416527 1
0 0.467117 1
0 0.720638 1
0 0.715131 1
0.639214 1 0.360786
0.519658 1 0.480342
0.456561 1 0.543439
0 0.503713 1
0 0.556834 1
0 0.30672 1
0.0938491 1 0.906151
0 0.976244 1
0 0.632509 1
0.147973 1 0.852027
0.441653 1 0.558347
0 0.996347 1
1 5.96046e-08 0
0 0.385344 1
0 0.334492 1
0.045447 1 0.954553
0 0.769897 1
0.349217 1 0.650783
1 0.76577 0
0 0.426946 1
0 0.813748 1
0 0.722592 1
0 0.586796 1
0 0.61272 1
0 0.74033 1
0 0.937183 1
0 0.692734 1
0 0.400862 1
0 0.781384 1
0 0.84113 1
0 0.434472 1
0 0.579193 1
0 0.204131 1
0 0.900489 1
0 0.546938 1
1 0.27233 0
0 0.795181 1
0.0163691 1 0.983631
0 0.905198 1
0 0.974473 1
0.679872 1 0.320128
0 0.501446 1
0.217964 1 0.782036
1 5.96046e-08 0
0 0.686381 1
0.224737 1 0.775263
0 0.258157 1
0 0.965488 1
0 0.830098 1
0 0.873633 1
1 5.96046e-08 0
0 0.560972 1
0.72314 1 0.27686
0.0159306 1 0.984069
0 0.561184 1
0 0.909963 1
1 0.771814 0
0.341135 1 0.658865
0 0.897437 1
0.0360194 1 0.963981
0 0.846573 1
0 0.435785 1
0 0.366733 1
1 5.96046e-08 0
0 0.520407 1
0 0.709421 1
0.501296 1 0.498704
0 0.67587 1
1 5.96046e-08 0
0 0.348042 1
0 0.730849 1
0 0.753237 1
0 0.768213 1
0 0.544713 1
0.523521 1 0.476479
0.302003 1 0.697997
0 0.509528 1
0.0309231 1 0.969077
1 0.0716638 0
0 0.675651 1
0.0514535 1 0.948546
0 0.700029 1
0 0.972008 1
1 5.96046e-08 0
0 0.512086 1
0.0821758 1 0.917824
0 0.741982 1
0 0.917643 1
0 0.652996 1
0 0.86507 1
0 0.62895 1
0 0.562038 1
0.223067 1 0.776933
0.106984 1 0.893016
0 0.414176 1
1 5.96046e-08 0
0 0.644884 1
0.113042 1 0.886958
0 0.787318 1
0 0.685853 1
0 0.975928 1
0 0.955363 1
0 0.698004 1
0 0.216351 1
0 0.324605 1
0 0.12569 1
1 5.96046e-08 0
0.028249 1 0.971751
1 0.433622 0
0 0.968615 1
0 0.548663 1
1 5.96046e-08 0
0 0.387542 1
0 0.437414 1
0 0.435366 1
0 0.684094 1
0 0.170167 1
0 0.377641 1
0.328438 1 0.671562
0 0.513814 1
0 0.746808 1
0.0214682 1 0.978532
0 0.480667 1
0 0.361983 1
0 0.439277 1
0 0.411815 1
0 0.950493 1
0 0.722742 1
0 0.993384 1
0 0.293566 1
0 0.589913 1
0 0.157497 1
0.0333003 1 0.9667
0 0.865732 1
1 5.96046e-08 0
0.790862 1 0.209138
0 0.988364 1
0 0.935187 1
0 0.481125 1
0 0.682296 1
0.10424 1 0.89576
0 0.495699 1
0 0.191587 1
0 0.588531 1
0 0.65037 1
0 0.913226 1
0 0.552627 1
0 0.721319 1
0 0.574758 1
0 0.375625 1
0 0.697448 1
0 0.995314 1
0 0.109027 1
0 0.565176 1
0 0.913389 1
0 0.733253 1
0 0.552968 1
0 0.273657 1
0 0.555822 1
0 0.590682 1
0.187762 1 0.812238
0 0.903838 1
0 0.775485 1
0 0.869444 1
0 0.451903 1
0 0.908381 1
0 0.563445 1
0 0.722964 1
0.082894 1 0.917106
0 0.612288 1
0.275989 1 0.724011
0 0.313708 1
0 0.534878 1
0 0.354208 1
0 0.34042 1
0.0183497 1 0.98165
0 0.280207 1
1 0.924458 0
0 0.2603 1
0.0873217 1 0.912678
0 0.786174 1
0 0.622245 1
0 0.576128 1
0 0.788737 1
0.0949515 1 0.905049
0 0.65466 1
0 0.381719 1
0 0.817669 1
0 0.924577 1
0 0.759168 1
0.0521762 1 0.947824
1 5.96046e-08 0
0.377228 1 0.622772
0 0.297262 1
0 0.257648 1
0 0.215102 1
0 0.980618 1
0 0.432783 1
0 0.550231 1
0 0.904951 1
0 0.691948 1
0 0.803523 1
0 0.832811 1
0.391068 1 0.608932
0 0.402535 1
0 0.746697 1
0 0.82482 1
0 0.619048 1
0 0.303762 1
0 0.479715 1
0 0.335614 1
0 0.846185 1
0 0.717509 1
0 0.644511 1
0.37442 1 0.62558
0 0.269378 1
0 0.755633 1
0.18264 1 0.81736
0 0.925462 1
0.286782 1 0.713218
0.02234 1 0.97766
0 0.552182 1
0.533726 1 0.466274
0 0.166423 1
0 0.213727 1
0 0.682613 1
0 0.398972 1
0 0.769962 1
0.181176 1 0.818824
0.645634 1 0.354366
0.114219 1 0.885781
0 0.349587 1
0 0.60732 1
0.00542782 1 0.994572
0 0.458599 1
0 0.544754 1
0 0.972589 1
0 0.515252 1
0 0.338522 1
0 0.385813 1
0 0.500338 1
0 0.735164 1
0 0.843989 1
0 0.532327 1
0.140042 1 0.859958
0 0.55835 1
0.038799 1 0.961201
0 0.984903 1
0 0.916802 1
0 0.417291 1
0.123847 1 0.876153
0 0.244798 1
0 0.688785 1
0 0.496699 1
0 0.36229 1
0 0.98645 1
0 0.909025 1
0 0.733905 1
0 0.415103 1
0 0.704182 1
0 0.354158 1
0 0.301534 1
0 0.690777 1
0 0.338399 1
0 0.483944 1
0 0.483191 1
0.713555 1 0.286445
0 0.976233 1
0 0.901874 1
0 0.178477 1
0 0.514704 1
0 0.632282 1
0 0.566554 1
0 0.927162 1
0 0.352284 1
0 0.327216 1
0 0.932297 1
0 0.472493 1
0 0.94315 1
0 0.387526 1
0 0.545156 1
0.378503 1 0.621497
0 0.953274 1
0 0.749715 1
0 0.540072 1
0 0.538222 1
0 0.451138 1
0 0.541662 1
0 0.764227 1
0 0.732071 1
0 0.598895 1
0.00747343 1 0.992527
0 0.770525 1
0 0.363202 1
0 0.674341 1
0 0.251798 1
0 0.632796 1
0 0.564288 1
0 0.421315 1
0 0.442564 1
0 0.517819 1
0 0.7007 1
1 5.96046e-08 0
0 0.526942 1
0 0.71936 1
0 0.552547 1
0 0.515054 1
0 0.605188 1
0 0.568226 1
0 0.555172 1
0 0.48822 1
0 0.0932989 1
0 0.225708 1
0 0.585364 1
