# vtk DataFile Version 3.0
Particle simulation
ASCII
DATASET POLYDATA
POINTS 400 float
1.37224 1.14847 2.43507
1.58467 2.46924 2.82088
0.0665417 1.91689 1.03247
1.9032 0.766026 1.10911
9.36354 0.0847715 3.28283
3.33061 8.45151 4.69688
9.3936 3.87633 0.165692
1.9881 4.80024 2.84226
6.19854 1.63645 2.6167
9.58652 0.625386 2.92911
1.8212 0.488543 1.02517
1.87357 0.930114 3.2596
1.1435 0.89235 1.84996
1.96018 0.946653 1.23719
9.06057 0.283663 3.38611
6.09446 5.5763 9.10587
4.59352 2.99062 0.988377
1.87803 0.819836 1.29121
5.45279 2.62565 3.63074
9.59657 0.584826 2.93846
1.24223 0.709331 2.21219
8.46721 1.71218 8.12053
2.46356 2.31955 7.84916
9.55235 0.641905 3.07511
5.1991 3.59281 7.878
1.28081 0.956651 1.32464
9.22231 0.552663 6.81353
0.991856 1.50732 3.47339
4.12783 0.572611 3.97538
3.04159 0.441616 1.69256
7.38309 1.02087 1.91784
8.99263 0.964347 1.20983
5.39696 0 9.22513
9.54709 0.701651 3.14526
1.74927 2.25315 2.18017
1.42492 0.92372 1.31042
5.91014 0.509684 8.14678
2.01665 0.448461 2.04269
4.66045 0.375872 1.55514
1.8274 1.46623 3.42998
1.00055 0.922889 1.17733
6.66025 3.01421 2.82667
5.52549 2.69464 3.6287
9.98231 0.599687 2.5583
7.79949 0.487761 8.85577
4.91171 0.311339 2.04672
7.05632 0.248994 3.38169
1.95329 1.12071 0.592195
5.13728 0.519723 1.81178
7.86039 0.511647 0.0433533
0.528075 1.64813 1.24139
6.6071 3.06928 2.7796
4.29939 0.215743 4.56185
9.92927 0.748053 2.86595
7.81582 0.463953 8.85698
4.91196 0.408775 2.08503
3.91936 0.69387 7.37943
1.87854 0.761673 1.11983
5.11629 0.568791 1.71438
4.35313 0.403224 9.425
4.71369 0.673456 4.16495
4.9345 0.229366 4.04445
3.69777 0.33806 9.37452
9.70781 0.583289 2.86512
6.3832 0.514282 7.89751
6.80553 1.14287 9.87236
4.53334 0.478891 4.86406
0.612491 1.54809 1.12025
5.27464 0.553548 1.95256
3.55604 0.392728 7.51059
4.92924 0.720006 3.95397
1.04367 1.54464 3.14246
5.92482 0.678073 7.12621
9.69157 0.600485 2.86407
8.13166 0.432607 9.04871
3.70663 0.276983 9.52825
4.5612 0.470989 4.8287
4.36752 0.647577 7.58418
5.09286 0.575503 1.799
3.81344 0.799488 7.57939
2.81533 0.317138 2.18668
1.4163 1.54315 2.79907
1.59523 0.721882 3.31851
1.96601 0.687557 2.65117
5.29514 0.623303 6.76303
3.85661 0.383185 6.90484
4.95531 1.19416 6.65712
1.59097 0.363178 2.76944
5.26768 0.84817 0.914634
8.7067 0.585646 1.27753
2.55337 0.406006 1.98015
2.21944 1.28679 3.05881
3.69327 0.501208 5.02095
1.95488 0.657608 2.65084
5.27665 0.590576 6.79235
3.87213 0.361932 6.90196
3.8986 0.58383 7.78371
2.09172 0.773065 0.824544
3.31154 1.22943 8.98178
8.69583 0.602125 1.24444
1.69806 0.354125 2.94366
3.98861 0.82328 4.8817
2.5867 0.451921 2.10452
7.24287 1.3724 2.01474
9.4254 0.575525 0.438018
2.00484 0.609295 0.816236
3.45066 0.426535 7.50045
4.80732 0.149498 1.64556
5.07192 0.46029 1.86617
8.22798 0.537218 0.815671
0.566125 1.61856 1.15515
9.7807 0.227697 3.1204
2.24419 0.27066 1.61338
8.74502 0.2472 1.40957
1.83712 0.872912 0.603766
2.03379 0.559976 1.0047
3.68979 0.567219 7.42726
5.41416 0.579695 2.49986
5.12915 0.492245 1.76456
1.07619 0.876963 1.60099
1.9128 0.755888 2.65192
5.70573 1.49875 2.35089
3.82148 0.323066 9.4921
3.65383 0.888605 3.62574
0.401481 1.07003 9.18867
1.53287 1.20211 3.04405
2.11121 0.680152 0.574457
9.83693 0.782863 2.89853
3.71643 2.92472 8.25991
2.00326 1.29702 3.10232
1.92907 0.728397 2.61517
4.7961 0.15003 1.43242
4.76952 0.47719 6.57741
3.93149 0.773169 3.96402
3.76392 0.381152 7.37494
1.89859 1.24998 3.07049
10 0.451566 9.07072
9.82053 0.807885 2.91913
3.78184 0.774149 7.0779
4.84576 0.356599 4.26753
2.84791 0.371731 2.33998
4.44205 0.122816 4.28334
1.84196 0.444425 1.49715
1.76603 1.18319 3.43321
2.40335 0.21151 1.55056
2.06301 0.622546 0.976185
7.70298 0.301992 8.89121
2.40791 0.631958 1.92958
2.85385 0.538839 2.43965
3.71967 0.532996 1.75109
2.83869 0.376218 2.35329
4.59776 0.153629 4.24845
2.29006 0.443202 1.9599
4.80152 0.549577 4.09228
2.0337 0.141056 0.853795
2.00417 1.00247 1.30784
7.55237 0.164539 9.21505
2.74294 0.463157 2.08714
4.42134 0.591588 4.65553
1.79572 0.754647 0.96644
1.97625 0.622878 1.39286
0.432934 1.56889 0.721287
5.1123 1.26884 6.77126
2.11609 1.16967 2.07144
0.536765 1.61095 1.24946
4.6941 0.359325 4.27872
3.78402 0.409343 7.14621
3.63534 0.288965 6.74798
6.81716 0 8.83635
6.64362 1.19866 0.674224
1.93599 0.497262 1.73165
2.40727 0.548795 2.61926
5.28361 0.793451 7.07989
1.84855 0.874384 3.28573
2.71385 0.681072 1.76347
2.67262 0.27631 0.332368
4.05604 0.666541 7.34816
3.89411 0.594967 7.16412
4.21798 0.861681 7.38194
4.67742 0.355593 2.1823
2.09891 0.725688 2.45485
1.76749 1.07837 3.24734
6.11196 0.412702 7.98184
1.63279 2.42521 2.33107
3.58571 0.155428 7.51967
3.09885 0.358517 2.59031
2.81827 0.241135 2.33636
3.77829 0.792857 5.27121
1.59011 0.708087 1.78156
2.59415 0.484732 1.8428
2.10377 0.7411 2.42829
2.831 0.752317 2.4262
5.30616 0.73737 6.80501
2.02298 0.145054 1.26359
4.13137 0.48848 7.40166
1.96123 0.458534 1.55765
2.84935 0.265252 2.0716
3.563 3.53355 3.98383
1.72534 0.77154 2.98727
1.79488 0.664075 3.21545
3.13974 0.443161 2.49397
5.08138 0.534568 1.80478
5.9678 0.475884 8.37947
4.80501 0.370604 4.44559
3.79533 0.277058 9.81823
3.67467 0.536699 7.70339
2.01737 0.996791 0.747201
2.112 1.06223 3.0979
2.81906 0.695666 0.648668
8.54161 0.514892 1.19836
2.77992 0.0932046 2.25061
5.4258 0.860891 2.08475
5.03506 0.641293 7.18827
4.15847 0.373091 4.5227
3.58819 0.427775 9.81464
3.68053 0.516151 7.67137
2.03695 0.985403 0.755216
1.03001 0.87588 1.71078
1.76058 0.477588 1.72668
8.57399 0.502313 1.35143
9.22088 1.94885 3.33539
0.924049 0.955877 9.57843
5.30791 0.72144 6.89985
2.59767 0.609784 2.00303
3.77626 0.425623 7.59252
1.66612 2.03084 2.175
9.38972 1.93979 2.98099
2.25435 0.464317 1.75832
1.94263 0.666994 2.00372
4.2158 0.437658 4.14545
9.91152 0.176196 3.1026
3.35939 0.40188 7.60157
7.78128 0.433735 9.24609
2.61053 0.554593 2.04977
5.3947 0.925478 6.84805
1.12008 1.96715 2.62843
6.90913 0.874131 9.62677
1.85394 2.1437 2.36997
3.22402 0.769228 0.747064
2.08131 0.305962 1.58579
2.10528 0.69707 1.78401
1.77416 0.489064 2.61234
1.87248 1.14003 0.71797
2.99768 0.294966 2.19392
3.85338 0.866079 7.32838
2.30298 0.53777 1.81819
1.37466 0.804367 1.78241
3.82815 0.226664 6.61944
5.05023 0.33681 1.75971
3.70067 0.447073 7.76056
2.30749 0.75408 2.16065
6.1166 1.40517 2.58641
3.78266 0.585923 7.49158
3.20713 0.293394 2.04718
7.54865 0.665863 8.64823
2.16645 0.468978 2.3594
8.63556 0.320293 1.43847
4.5154 0.664255 7.37279
5.05319 0.312905 1.73095
3.68107 0.460328 7.71562
1.90086 0.667142 2.28264
7.21989 2.3657 2.41728
5.06385 0.379833 4.34547
9.97436 0.495778 2.75112
3.77407 0.374075 9.92154
3.18542 0.515668 2.70613
9.8993 0.378673 0.589575
3.79772 0.265962 7.45453
7.54006 0.268371 9.16884
1.43409 0.918037 0.684068
1.96494 0.523836 2.24649
7.07806 2.33589 2.34293
1.52069 2.27766 2.34421
9.87115 0.106727 2.85866
3.45289 0.333513 7.16723
5.442 0.694821 6.96442
9.57538 0.415619 2.89655
9.5529 3.43252 9.40172
7.48093 0.144878 8.92594
2.17983 0.846818 2.38164
7.86514 0.409134 0.559416
5.03727 0.202723 2.04388
5.04194 0.180839 1.45502
9.88391 0.602823 2.99787
5.76878 0.444595 8.32613
6.57732 0.656762 8.08685
2.64892 0.439053 1.38465
1.77376 0.533813 1.24508
4.29578 0.673382 4.69024
6.51861 0.978412 8.27917
7.86497 0.390594 0.711282
4.96669 0.230034 2.07126
2.31195 0.23148 1.06464
9.82327 0.738911 2.92805
3.8479 0.902004 7.73931
3.97618 0.849589 7.79047
2.38795 0.583297 0.797078
1.83911 2.24678 2.17495
1.76284 0.380272 2.70259
2.25263 0.824042 1.45957
7.78611 0.261572 0.715456
4.44488 0.569606 4.83418
2.54266 0.363375 2.57072
5.03435 0.408385 1.72162
2.83754 0.618345 1.56914
5.46587 0.522439 1.56068
2.09174 0.916894 0.99626
2.50786 0.785001 0.662829
2.33257 0.555346 1.75705
1.35957 0.586901 1.56695
10 0.10506 3.17926
4.27812 0.529937 4.68489
7.68362 0.296465 8.61873
3.0702 0.132106 1.93856
2.91549 0.481814 1.50848
9.57128 0.238451 0.416287
2.0265 0.538912 0.543949
4.53493 0.344314 4.4066
5.26953 0.354748 2.16217
1.50023 0.703212 0.631506
4.38231 0.483242 4.80798
1.75867 1.34873 3.02589
3.94615 0.759076 7.73973
2.62538 0.135872 1.72262
8.58352 0.597545 1.26895
8.46805 0.0351994 1.481
1.83887 0.504087 1.21993
5.06001 0.474389 2.09065
8.67913 0.426105 1.28836
2.68144 0.49545 1.7177
4.32365 0.325487 4.72859
2.965 0.4691 2.34947
3.81394 0.65323 7.62331
2.63832 0.141732 1.72525
8.75949 0.335385 1.34233
4.49999 0.356529 4.19883
1.9001 0.393634 0.952434
1.92729 0.78792 2.52048
8.95011 0.408327 1.34966
2.42761 0.627031 0.435197
4.00201 0.70733 3.96756
2.64343 0.454395 2.01012
5.43396 0.799476 6.85095
4.73804 0.419087 4.50924
2.55223 0.323554 2.24736
2.32165 0.522449 0.613247
4.90809 0.554599 2.00819
1.56717 0.701857 1.4346
2.34067 0.525799 0.711349
1.45291 0.620695 0.889787
2.32342 0.224711 1.94338
2.2174 0.441372 1.8824
5.16814 0.474455 6.46163
4.7229 0.420523 4.50923
2.26637 0.383122 2.02255
1.56952 0.717313 1.50563
4.93033 0.350532 1.74749
4.17246 0.864084 8.06147
2.10927 0.609513 0.59212
2.10472 0.189863 2.34134
4.70841 0.553569 2.18634
4.08388 0.748218 4.32047
4.63622 0.454866 6.44287
1.77144 0.415673 0.98241
2.51801 0.588426 0.612219
7.7087 0.413383 8.98281
3.57326 0.343974 7.28493
3.7735 0.441494 7.4917
3.97458 0.699636 7.54655
2.59093 0.198883 1.43671
4.70977 0.547716 2.17606
4.15096 0.684935 4.33796
4.99861 0.749685 6.60851
1.96098 0.533566 0.859515
3.11485 0.519405 0.727079
7.89983 0.604242 8.76038
3.59952 0.366359 7.30195
3.72876 0.66081 7.12238
3.85529 0.569605 7.36435
1.65925 1.1461 1.23008
2.10585 0.570524 0.602857
2.66154 0.357623 2.0251
3.72275 0.32088 7.2346
2.4388 0.466052 1.96186
9.41664 0.579678 2.70116
5.05532 1.29032 6.66271
2.95871 0.253323 1.74487
2.50389 0.566942 2.3473
9.92057 1.06848 2.88217
5.25697 0.312836 1.5499
2.08739 0.561414 0.624165
2.6854 0.285553 2.15806
3.6415 0.358543 7.27844
2.70486 0.214003 2.09508
9.43443 0.600922 2.72346
4.8735 0.516244 6.54611
2.92911 0.2779 1.75532
2.31553 0.510045 2.06593
8.40315 0.605301 0.968945
5.26206 0.297891 1.53209
POINT_DATA 400
SCALARS particleColor float 3
LOOKUP_TABLE default
0 0.600761 1
0 0.784536 1
0 0.556252 1
0 0.455394 1
0 0.647348 1
0.912198 1 0.0878016
0 0.269312 1
0 0.117874 1
0 0.79809 1
0 0.631192 1
0 0.274793 1
0.166137 1 0.833863
0 0.797827 1
0 0.655233 1
0 0.659595 1
0 0.525615 1
0 0.555177 1
0.0242181 1 0.975782
1 0.445288 0
0 0.680064 1
0 0.317894 1
0.0615732 1 0.938427
0 0.360176 1
0 0.702495 1
0.101113 1 0.898887
0 0.243778 1
0 0.745691 1
0 0.9807 1
0 0.175952 1
0 0.341187 1
0 0.706133 1
0 0.411826 1
0.877767 1 0.122233
0 0.748332 1
0 0.669032 1
0 0.307571 1
0 0.50106 1
0 0.26117 1
0 0.358026 1
0 0.781836 1
0 0.604103 1
0 0.469536 1
0 0.913433 1
0.185825 1 0.814175
0 0.526655 1
0 0.508057 1
0.0822856 1 0.917714
0 0.465812 1
0 0.405372 1
0.247912 1 0.752088
0.144746 1 0.855254
0 0.812706 1
0 0.148736 1
0 0.605016 1
0 0.832235 1
0 0.456902 1
0 0.41187 1
0 0.512888 1
0 0.525001 1
0 0.491087 1
0.0766664 1 0.923334
0 0.573398 1
0.521908 1 0.478092
0 0.686012 1
0 0.418473 1
0 0.658236 1
0 0.824522 1
0 0.723229 1
0 0.522247 1
0 0.132722 1
0 0.414441 1
0 0.530667 1
0 0.748507 1
0 0.727753 1
0.194293 1 0.805707
0 0.571002 1
0 0.590527 1
0 0.683735 1
0 0.491891 1
0 0.680074 1
0 0.223054 1
0 0.395522 1
0 0.712403 1
0 0.545706 1
0 0.339998 1
0 0.419739 1
0 0.609805 1
0 0.771644 1
0.868469 1 0.131531
0 0.479643 1
0 0.540884 1
0 0.753203 1
0 0.711963 1
0 0.529641 1
0 0.383419 1
0 0.642506 1
0 0.696073 1
0 0.997549 1
0 0.741068 1
0 0.582529 1
0 0.137187 1
1 0.885537 0
0 0.794716 1
0 0.58978 1
0 0.472561 1
0 0.810677 1
0 0.661949 1
0 0.381495 1
0 0.319974 1
0 0.498374 1
0 0.703877 1
0 0.605094 1
0 0.381726 1
0.274859 1 0.725141
0 0.702486 1
0 0.528954 1
0 0.365194 1
0 0.679315 1
0 0.55052 1
0 0.431876 1
0 0.522103 1
0.0766677 1 0.923332
0 0.133178 1
0 0.327325 1
0 0.679659 1
0 0.29021 1
0 0.655451 1
0 0.545204 1
0 0.757295 1
0.104053 1 0.895947
0 0.537135 1
0 0.378613 1
0 0.322693 1
0 0.689875 1
0.0536532 1 0.946347
0 0.577738 1
0 0.993206 1
0 0.526329 1
0 0.467139 1
0 0.953661 1
0 0.39006 1
0 0.827528 1
0.594981 1 0.405019
0 0.327845 1
0 0.361881 1
0 0.673007 1
0.508112 1 0.491888
0 0.674679 1
0 0.486665 1
0 0.727282 1
0 0.36374 1
0.0105371 1 0.989463
0 0.911227 1
0 0.389351 1
0 0.615563 1
0 0.306252 1
0 0.789017 1
0 0.666165 1
0 0.615785 1
0 0.580251 1
0 0.527308 1
0 0.326355 1
0 0.974004 1
0 0.578187 1
0 0.860539 1
0.169191 1 0.830809
0 0.38154 1
0 0.531921 1
0 0.360315 1
0 0.643992 1
0 0.892945 1
0 0.814849 1
0 0.368779 1
0 0.872291 1
0 0.392083 1
0 0.700696 1
0 0.305737 1
0 0.17497 1
0 0.31175 1
0 0.905698 1
0 0.284356 1
0 0.675038 1
0.206574 1 0.793426
0 0.509619 1
0.19924 1 0.80076
0 0.520287 1
0 0.634092 1
0 0.987559 1
0 0.413426 1
0 0.499781 1
0 0.351652 1
0 0.602967 1
0 0.666096 1
0.280447 1 0.719553
0 0.68885 1
0 0.315473 1
0 0.663021 1
0 0.84 1
0 0.661829 1
0 0.359758 1
0 0.687862 1
0 0.737246 1
0.14429 1 0.85571
0 0.411362 1
0 0.605253 1
0 0.745452 1
0 0.565962 1
0 0.569098 1
0 0.55808 1
0 0.404997 1
0 0.404435 1
0 0.503015 1
0 0.540194 1
0 0.762278 1
0 0.788757 1
0 0.672171 1
0 0.429004 1
0 0.979715 1
0 0.934646 1
0 0.685609 1
0.274905 1 0.725095
0.264612 1 0.735388
0 0.30618 1
0 0.291073 1
0.315936 1 0.684064
0 0.122282 1
0.524337 1 0.475663
0 0.393459 1
0 0.759259 1
0 0.58646 1
0 0.586199 1
0.0342516 1 0.965748
0 0.42492 1
0 0.337093 1
0 0.578726 1
0 0.551081 1
0.0666747 1 0.933325
0.253725 1 0.746275
0.130252 1 0.869748
0 0.836109 1
0 0.420657 1
0 0.555258 1
0 0.691568 1
0 0.956592 1
0 0.899977 1
0.132967 1 0.867033
0 0.959331 1
0 0.946725 1
0 0.728023 1
0 0.155691 1
0 0.706181 1
0 0.848812 1
0 0.676567 1
0 0.639017 1
0.0129431 1 0.987057
0 0.410946 1
0 0.792808 1
0 0.797284 1
0 0.753032 1
0 0.285893 1
0 0.873404 1
0.666627 1 0.333373
0 0.917278 1
0 0.844261 1
0 0.598347 1
0 0.732796 1
0 0.185661 1
0.226223 1 0.773777
0 0.427068 1
0.146121 1 0.853879
0 0.758802 1
0 0.584316 1
0 0.951234 1
0.130691 1 0.869309
0 0.817888 1
0 0.835886 1
0 0.800955 1
0.134027 1 0.865973
0 0.680913 1
0 0.147272 1
0 0.80794 1
0 0.76664 1
0 0.785478 1
0.0254669 1 0.974533
0 0.95682 1
0 0.876756 1
0.0555437 1 0.944456
0.00536577 1 0.994634
0 0.359812 1
0 0.4706 1
0 0.291148 1
0 0.254256 1
0 0.389244 1
0.122652 1 0.877348
0.29608 1 0.70392
0.414557 1 0.585443
0 0.641023 1
0 0.373363 1
0 0.379252 1
0 0.688716 1
0.02135 1 0.97865
0 0.665683 1
0.0154062 1 0.984594
0.310678 1 0.689322
0 0.677823 1
0 0.583538 1
0 0.627848 1
0 0.806972 1
0.0805579 1 0.919442
0 0.874546 1
0 0.429881 1
0 0.708826 1
0 0.688923 1
0.0160756 1 0.983924
0 0.536392 1
0.423004 1 0.576995
0 0.2372 1
0.258421 1 0.741579
0 0.420863 1
0 0.297421 1
0 0.953294 1
0 0.641009 1
0 0.288322 1
0 0.767862 1
0 0.484303 1
0 0.676318 1
0 0.825718 1
0.0449123 1 0.955088
0 0.989644 1
0 0.633488 1
0.0789874 1 0.921013
0 0.451874 1
0 0.494673 1
0 0.489959 1
0 0.370936 1
0 0.773109 1
0 0.458173 1
0 0.730872 1
0 0.586447 1
0.102587 1 0.897413
0 0.768448 1
0 0.612786 1
0 0.667197 1
0 0.595839 1
0 0.626437 1
0 0.32048 1
0 0.515407 1
0 0.812193 1
0 0.537994 1
0 0.587698 1
0 0.763615 1
0 0.294851 1
0 0.632762 1
0 0.648749 1
0 0.564246 1
0 0.716173 1
0 0.830083 1
0 0.951704 1
0 0.360409 1
0.172575 1 0.827425
0 0.331233 1
0 0.878587 1
0 0.644335 1
0 0.507962 1
0 0.867696 1
0 0.706679 1
0 0.779956 1
0 0.898947 1
0 0.964128 1
0 0.945251 1
0 0.315341 1
0 0.737976 1
0 0.641577 1
0 0.42669 1
0 0.739414 1
0 0.513395 1
0 0.671408 1
0 0.911914 1
0.123883 1 0.876117
0 0.718057 1
0 0.546644 1
0 0.311375 1
0 0.842236 1
0 0.165053 1
0 0.543039 1
0 0.760543 1
0 0.829239 1
0 0.610653 1
0 0.903297 1
0 0.71184 1
0 0.408385 1
0 0.245276 1
0 0.983577 1
0 0.668174 1
0 0.376377 1
0 0.39932 1
0 0.818285 1
0 0.856025 1
0.0474215 1 0.952578
0 0.60114 1
