# vtk DataFile Version 3.0
Particle simulation
ASCII
DATASET POLYDATA
POINTS 400 float
4.29896 2.62721 2.52626
0.0477827 8.47043 0.434198
0 1.6759 9.80491
8.33988 1.10092 4.22612
8.00205 4.09905 6.76496
1.94652 0.384718 0.942314
1.02595 0.942111 2.64505
7.23457 7.09399 1.2789
9.47675 0.975525 2.3702
10 1.58581 9.86407
3.2414 9.69404 0.116249
7.37225 6.57583 5.22914
1.05623 1.43856 8.61423
7.64122 5.48374 5.14053
1.27997 6.54469 0.245422
9.77654 7.63934 2.02171
5.43813 4.90818 5.68679
5.36979 0.859178 3.03559
9.51413 7.43381 0.597331
5.6629 2.30878 4.87334
7.14611 5.87497 2.78714
3.92673 9.55739 0.272347
6.63431 9.046 7.08051
3.66057 6.72483 8.56127
0.798824 9.45938 1.77117
6.60368 10 0.794312
8.98362 7.83698 0.36892
5.97975 9.13021 1.89814
0.963566 6.64272 6.59609
7.3649 5.6878 3.58607
9.05206 3.63864 6.30724
7.96952 8.49574 9.05862
8.87111 1.64501 6.03816
9.6178 8.88153 4.23953
7.31345 2.34686 5.87983
6.30068 0.0960739 8.55654
6.28413 0.713545 4.06218
7.04629 2.55382 5.50213
0.350319 0 1.56569
3.06917 1.13788 4.42518
1.02426 4.80291 1.59786
7.94758 6.84459 5.92022
0.795131 2.2854 9.47028
9.54256 0.523641 5.4765
2.60474 8.59198 6.63032
8.39594 8.1518 3.42907
3.41588 0.245029 1.5594
7.84945 4.54953 1.02708
3.91515 3.6985 6.33916
0.644215 2.60664 2.15
1.91317 6.07134 0.991156
8.95718 0.840744 7.9723
9.08917 10 6.09615
7.59062 0.459572 2.7869
4.2387 5.95939 0.179667
1.66039 1.74971 0.902375
5.12191 6.94411 5.76477
2.24035 4.21526 0.209963
2.90932 3.04815 2.49518
10 3.20826 7.92827
5.19638 0.995796 6.26501
4.85236 9.01877 0
3.10273 7.96673 3.50278
8.32492 9.85753 4.78276
6.6047 6.87484 9.98011
6.78746 1.92281 7.93121
5.19257 0.20471 5.87267
7.31787 6.09783 4.0061
6.7518 0.864159 9.2115
1.45883 1.4213 2.74424
8.94996 9.29358 7.98623
3.55063 5.28064 8.27221
2.38976 2.07233 1.09548
7.23688 5.911 2.30415
8.92716 1.78695 8.20143
3.80356 5.52999 2.12266
1.89588 1.38232 0.909222
9.3006 6.87336 2.71377
7.12868 4.34087 0.497656
3.86091 7.46817 8.19383
0.412026 4.38069 5.7554
2.0424 7.14333 6.55955
9.55403 2.72978 5.14573
0.828724 0.124809 9.70846
5.88715 7.87359 6.52497
5.98154 0.0342194 6.97982
2.12396 8.83566 3.05465
0.418602 7.13059 4.11237
9.52268 2.22589 9.89005
4.22373 8.06209 3.41416
2.99372 1.20178 1.28432
1.86097 0.850259 3.09876
0.677443 8.67982 2.22474
5.80847 2.75505 8.27115
7.56173 2.85993 4.81893
5.08781 0.557613 9.54182
9.66205 4.75486 0.715368
1.94435 8.59454 4.08959
1.50133 6.76914 0.19081
8.77576 7.96047 0.354564
0.888559 2.32161 8.16091
5.35298 9.43645 2.4272
5.60782 6.60829 5.19977
4.41995 7.62485 3.94921
1.61757 0.251201 2.58123
5.0945 2.14447 3.88141
2.48692 0.151354 6.28201
3.09613 7.94117 6.4275
1.8769 4.40937 4.0217
9.37476 6.5723 7.92814
5.93844 3.71579 2.08351
3.17708 8.5517 8.6177
4.08725 7.80601 9.21897
4.6 9.81282 2.84659
3.37676 2.6504 4.61343
9.44188 7.16108 0.889757
8.19738 6.70006 2.47569
5.73545 1.48427 5.04473
6.96413 8.86854 0.368135
5.36662 9.38276 2.2648
2.42948 9.70004 8.08289
4.55853 10 0
3.04829 4.62045 7.48956
6.41302 5.29517 3.65717
6.79064 6.12219 0
7.98853 1.56597 0.469446
9.31975 2.045 1.44195
8.51879 5.60603 9.51403
1.18661 2.51933 4.42124
2.09685 9.54486 3.13385
3.16155 0.979402 8.54925
6.4049 7.75307 8.22636
6.83223 5.68219 5.60436
2.20382 1.97497 9.14056
0.551227 9.06832 6.29115
8.62877 3.90872 6.59472
9.68048 5.11387 0.588136
7.51734 1.05449 5.9274
0.730875 9.69018 1.47656
10 7.12836 2.3664
3.8469 9.8628 8.87455
5.1563 3.40429 9.52424
7.74282 1.20411 6.69149
4.09812 0 1.69452
2.73234 2.20401 0.766935
7.55327 5.97429 0.194971
5.08684 6.21377 2.16062
5.66948 2.68546 6.22651
7.43612 2.54907 8.75523
7.71111 1.02935 7.49638
7.49295 0.585424 7.29908
9.86113 5.44058 4.77331
10 1.56092 4.33948
3.04903 2.00354 3.09316
1.66772 8.02243 2.88171
6.04764 2.66512 1.28068
2.45321 6.88622 6.43805
5.15521 2.13263 5.02249
5.85529 7.29625 2.98101
9.37695 9.43497 5.25498
3.95704 9.17307 2.2354
1.84003 0.561498 2.89174
4.27016 1.47099 1.69689
0.066233 5.46719 8.75902
8.95975 8.57221 0.541249
6.01058 4.45022 9.5577
0.312273 5.55519 3.21455
4.77114 2.4494 5.55933
1.62243 2.32512 5.32542
6.62414 2.84483 9.91585
1.28072 7.79714 4.22365
4.04679 2.70574 3.88271
0.113518 1.98781 1.13585
1.27121 0.889504 3.63231
1.49979 1.8802 0.314155
7.51247 0.790677 6.17638
3.5923 6.36642 8.10844
3.50971 7.97928 2.9936
6.77488 2.80504 6.2189
4.44568 8.3771 4.07802
5.5287 7.45849 7.52205
5.22689 0 3.84761
0.817184 1.94261 3.82823
9.48429 5.6769 7.03135
5.67783 5.1158 8.06137
1.45701 8.20619 9.76431
5.02894 3.22638 8.0463
9.69746 8.02964 5.6917
5.51389 7.89259 6.24219
7.45895 9.37142 6.64636
3.55125 2.71387 10
10 5.95531 5.35431
3.71922 3.8563 2.19275
5.04724 3.68967 2.88237
6.27027 1.20114 9.48823
3.79943 2.67598 8.61548
8.28612 0 1.04943
8.44589 6.80241 5.40127
8.88162 3.61644 9.26618
2.4827 9.67819 1.55981
5.35442 3.76618 5.34915
3.58289 5.04836 2.7116
0.970506 5.98544 4.28108
2.69818 9.98776 8.533
2.11562 9.07262 1.98565
7.98465 8.30062 8.38531
5.9817 7.57017 2.62078
3.56807 9.38868 3.0461
1.76016 6.49719 3.42883
1.83714 3.70694 6.18998
9.35875 5.46065 4.0795
1.12858 1.83486 6.82011
9.67264 1.77046 1.95804
4.66546 4.04176 9.65619
6.18658 3.61647 2.09315
3.17836 2.01211 4.6535
6.14944 1.83368 2.46404
2.52429 7.75482 0.936975
8.50048 0.359632 4.85044
2.79602 7.04532 9.68486
6.38997 9.89912 2.44461
3.61889 4.244 7.49876
4.59642 2.09049 7.35464
9.76695 0.847429 5.38824
3.44349 8.84551 7.32882
0.378969 9.44853 7.29897
0.396727 7.4395 6.38725
1.77486 7.98848 0.26524
7.61698 0.502531 7.45402
6.34418 6.67309 0.79847
9.53232 1.84751 7.66417
3.65164 7.91183 10
3.8331 7.05174 3.00236
2.71072 5.51031 8.3788
7.51127 9.186 0.895622
6.07477 1.22483 9.70428
9.02663 6.7878 1.23743
2.41359 0.256306 8.54447
7.42411 0.44985 7.61529
5.52303 7.71728 4.7742
7.01313 0.529517 7.20996
5.25938 7.86389 1.96646
6.56749 9.23971 6.31298
9.70532 5.62319 7.08078
2.41888 8.85936 1.07794
5.85339 2.50533 2.75098
6.36458 0.664895 4.15674
7.39531 2.37608 7.87089
3.39185 6.15741 6.86416
7.35829 9.26111 8.09669
9.20716 9.50986 9.63525
5.42784 9.4678 8.26929
2.68197 5.57663 5.22226
7.02938 3.45322 8.77525
3.20555 0.947155 8.27828
0.708094 6.24559 6.41431
8.07908 7.63791 0.227278
1.83075 0.658346 3.10761
5.16534 3.87112 1.52229
3.75554 6.35593 7.78386
3.03882 7.59772 9.10984
4.59559 4.35189 6.68779
8.35613 7.85222 0.734056
9.44135 9.19885 6.00238
7.63511 9.88724 5.52868
8.65679 0.230914 8.62903
1.44452 3.16776 3.88387
5.10175 2.71813 5.279
1.18699 7.19663 4.63694
9.43973 3.22573 9.60079
9.49495 2.52841 4.66857
5.83129 4.71388 4.65264
9.79491 2.0124 6.65849
4.86452 0.663341 8.08497
0.675353 3.25302 9.71942
0.39909 0.885543 5.99777
5.81147 5.13581 3.62946
7.45983 1.1695 8.50549
4.7251 0.770054 4.54455
4.77995 6.04111 4.41504
7.04381 3.23714 9.05561
3.65915 0.259696 7.68895
0.301025 9.71814 0.537392
9.06015 2.96139 4.77795
9.62019 6.39088 2.56047
3.48708 2.37532 4.53464
7.56958 8.89975 1.15894
9.57053 8.49267 3.54708
0.837799 6.51284 8.15891
1.38123 8.94026 8.36017
5.39133 7.09606 0.235383
6.88035 8.47257 5.5973
0.480777 8.8151 5.71079
7.53722 1.86335 9.02341
5.18813 5.99632 1.43874
4.79778 9.7091 3.78288
7.21043 0.744517 7.28229
0.621274 0.282955 3.65454
7.79616 0.275991 7.42876
6.85582 1.05062 6.47742
5.82397 9.16715 7.90088
1.49733 2.89747 3.99931
7.00868 0.137603 7.3594
2.39236 9.72709 7.86529
7.4814 0.35818 7.65998
9.04182 5.26964 2.17128
9.36989 0.882208 6.01675
7.53031 0.543955 7.59067
2.79747 8.20617 5.13729
1.6825 6.04669 7.88734
5.2742 9.67475 3.86207
1.52376 9.6478 3.82866
10 9.21851 1.16891
7.51278 0.594339 7.65312
0 6.6472 2.22002
0.0161014 2.6305 3.01698
5.33102 1.36786 7.42001
7.48745 0.230679 7.09499
8.21387 9.05064 9.24464
1.61939 2.87079 8.01896
6.68235 0.713027 3.85952
1.86221 2.87971 7.12564
1.19318 0.333654 8.33585
7.82663 0.117327 7.8461
7.50748 0.0668362 7.76016
2.1825 6.22672 3.6959
9.28393 0.976588 6.06844
6.47432 0.649689 2.18562
1.60759 7.40227 6.67725
7.65603 0.686152 7.38994
0.887568 1.3564 8.68845
6.43348 1.28008 6.60655
3.77163 8.51203 9.6814
2.46869 4.25357 8.30635
5.65254 9.21777 7.17843
1.5561 0.144003 6.72795
8.48782 7.43393 5.39738
7.81983 0.181737 8.00459
6.89752 7.32524 8.45782
7.74217 7.26157 5.9204
6.63819 5.94068 2.87311
3.08265 9.1847 3.09907
0.89768 7.39753 5.65043
1.47492 0.295253 8.25622
8.01278 2.1029 9.09939
5.41771 2.62237 7.07199
6.3109 0.585898 2.62522
9.84954 0.39333 6.82333
7.85465 0.82765 7.67494
4.95699 9.70441 4.0519
7.69211 0.0196729 7.27123
7.41929 0.38819 7.56692
5.82291 7.56751 7.81361
3.79991 1.18564 0.835905
1.53587 0.573452 5.73011
7.73093 0.708582 7.68691
0.901049 3.10847 7.82017
8.28319 1.19728 6.26423
8.18888 0.218252 7.10798
7.76751 0.301967 7.3379
7.02322 5.17063 1.19346
1.74177 0.23011 8.52512
1.57153 0.188742 8.5857
7.60602 0.381135 7.68483
5.64757 0.692591 5.6774
8.05726 2.56431 6.44535
1.3173 0.0925552 8.34561
9.16185 0 7.08043
2.58399 9.77604 0.63029
3.3932 1.65676 8.22124
6.07843 0.796002 2.58326
0 2.94206 8.8093
2.10628 2.01775 7.07129
7.51579 0.690207 7.51082
7.53855 0.169689 8.03024
8.93544 8.16224 0.0992897
1.33689 0.1338 8.3093
6.83534 5.38918 9.61506
7.68293 0.846882 9.07049
7.81289 0.441944 7.27843
6.5859 0.757533 6.36328
7.72315 0.588617 7.63725
7.47923 2.70321 2.71522
7.92554 0.668572 7.15287
0.875476 7.25158 0.201009
1.27496 0.128535 8.28029
7.79966 0.657438 7.23053
7.70383 0.477234 7.65891
3.4663 8.63984 1.56505
7.51136 1.36363 8.51782
7.74524 0.290388 7.60717
7.87662 0.126721 7.45724
5.68093 2.26576 2.98212
7.79154 0.369388 7.49361
0.725572 9.59619 3.25595
1.93287 5.98295 0.931763
7.60422 0.675524 7.35317
0.797097 0.285255 3.93437
0.919282 6.77637 6.86037
0.733336 9.76153 7.5026
POINT_DATA 400
SCALARS particleColor float 3
LOOKUP_TABLE default
1 5.96046e-08 0
1 0.971265 0
1 5.96046e-08 0
0.674807 1 0.325193
1 5.96046e-08 0
0.487878 1 0.512122
0.391562 1 0.608438
1 0.366047 0
1 0.686475 0
1 0.775286 0
1 5.96046e-08 0
1 0.637499 0
0.891938 1 0.108062
1 5.96046e-08 0
1 5.96046e-08 0
1 5.96046e-08 0
0.851644 1 0.148356
0.0429945 1 0.957006
1 0.950887 0
1 5.96046e-08 0
0 0.931957 1
1 5.96046e-08 0
0.203953 1 0.796047
1 5.96046e-08 0
0.890154 1 0.109846
1 0.382055 0
1 5.96046e-08 0
1 5.96046e-08 0
0.750103 1 0.249897
1 0.340551 0
1 5.96046e-08 0
1 0.88254 0
0 0.789331 1
1 5.96046e-08 0
1 5.96046e-08 0
1 0.17509 0
1 5.96046e-08 0
1 0.522339 0
1 5.96046e-08 0
0.772562 1 0.227438
1 0.00941008 0
1 0.416261 0
0.810566 1 0.189434
1 0.618467 0
1 5.96046e-08 0
0 0.884276 1
1 5.96046e-08 0
0.105496 1 0.894504
0.989098 1 0.010902
1 0.467827 0
1 5.96046e-08 0
1 0.299055 0
1 5.96046e-08 0
1 0.741298 0
1 5.96046e-08 0
0.536319 1 0.463681
0.861989 1 0.138011
0.656855 1 0.343145
0.170497 1 0.829503
1 5.96046e-08 0
1 5.96046e-08 0
1 5.96046e-08 0
1 5.96046e-08 0
1 0.479145 0
1 0.0459278 0
1 5.96046e-08 0
1 0.330546 0
1 5.96046e-08 0
1 0.525735 0
0.664028 1 0.335972
1 5.96046e-08 0
0.609568 1 0.390432
0.599212 1 0.400788
1 5.96046e-08 0
1 5.96046e-08 0
1 0.990828 0
1 5.96046e-08 0
1 5.96046e-08 0
1 0.864817 0
1 5.96046e-08 0
1 5.96046e-08 0
1 0.668617 0
0.991976 1 0.00802439
1 0.467223 0
1 5.96046e-08 0
1 0.19773 0
1 0.598111 0
0 0.737499 1
0.817976 1 0.182024
1 5.96046e-08 0
0.622304 1 0.377696
1 0.316648 0
0.800471 1 0.199529
1 5.96046e-08 0
1 0.218871 0
0.700617 1 0.299383
0.548455 1 0.451545
1 0.0586674 0
1 0.236185 0
1 5.96046e-08 0
1 0.0508958 0
1 0.485459 0
1 5.96046e-08 0
1 0.508304 0
1 0.00839627 0
1 5.96046e-08 0
0.525159 1 0.474841
1 0.202773 0
1 5.96046e-08 0
1 5.96046e-08 0
1 5.96046e-08 0
1 5.96046e-08 0
1 0.910012 0
0.331358 1 0.668642
1 5.96046e-08 0
1 0.285522 0
1 0.135474 0
1 0.935849 0
1 5.96046e-08 0
1 0.726914 0
1 5.96046e-08 0
1 5.96046e-08 0
1 0.582563 0
1 5.96046e-08 0
1 0.317978 0
1 5.96046e-08 0
0.415642 1 0.584358
1 5.96046e-08 0
1 5.96046e-08 0
1 0.192704 0
1 0.396826 0
1 0.469665 0
0.961506 1 0.0384943
1 5.96046e-08 0
1 5.96046e-08 0
1 0.979235 0
0 0.909017 1
0 0.685342 1
1 0.256819 0
0.556408 1 0.443592
1 0.994687 0
1 5.96046e-08 0
1 5.96046e-08 0
1 5.96046e-08 0
1 5.96046e-08 0
1 5.96046e-08 0
1 0.322094 0
1 5.96046e-08 0
1 0.469272 0
1 5.96046e-08 0
0 0.182762 1
1 0.0646887 0
1 0.522795 0
1 5.96046e-08 0
1 5.96046e-08 0
1 0.362293 0
1 0.590792 0
1 5.96046e-08 0
1 0.197692 0
0.701341 1 0.298659
1 0.962724 0
0 0.907267 1
1 5.96046e-08 0
0.830355 1 0.169645
1 5.96046e-08 0
0.919934 1 0.080066
1 5.96046e-08 0
1 5.96046e-08 0
1 0.789951 0
1 5.96046e-08 0
0 0.231848 1
1 0.817112 0
1 0.635679 0
0.586192 1 0.413808
1 5.96046e-08 0
0.763321 1 0.236679
1 5.96046e-08 0
1 0.531013 0
1 5.96046e-08 0
0.645201 1 0.354799
1 0.728027 0
1 5.96046e-08 0
1 0.231309 0
0.58874 1 0.41126
1 5.96046e-08 0
1 0.365162 0
0.816495 1 0.183505
1 0.806131 0
1 5.96046e-08 0
1 0.461107 0
0.784613 1 0.215387
1 0.0934658 0
1 5.96046e-08 0
0 0.955001 1
0.471543 1 0.528457
0.835898 1 0.164102
1 5.96046e-08 0
0 0.546417 1
1 5.96046e-08 0
1 5.96046e-08 0
1 0.0858476 0
1 0.157127 0
1 5.96046e-08 0
1 0.748699 0
1 5.96046e-08 0
0.71698 1 0.28302
1 5.96046e-08 0
1 5.96046e-08 0
1 5.96046e-08 0
0.980725 1 0.0192745
1 0.45521 0
1 5.96046e-08 0
0.212398 1 0.787602
1 5.96046e-08 0
0.0322248 1 0.967775
1 0.997917 0
1 5.96046e-08 0
1 5.96046e-08 0
1 0.738229 0
1 0.735011 0
0.927851 1 0.0721491
1 5.96046e-08 0
1 0.972803 0
0 0.558424 1
1 5.96046e-08 0
1 5.96046e-08 0
0.735648 1 0.264352
1 0.978152 0
0 0.630391 1
1 5.96046e-08 0
0.302767 1 0.697233
1 5.96046e-08 0
1 5.96046e-08 0
1 5.96046e-08 0
0.541357 1 0.458643
1 0.0279019 0
1 0.970101 0
1 5.96046e-08 0
0 0.782798 1
1 5.96046e-08 0
0 0.704062 1
0.632328 1 0.367672
1 5.96046e-08 0
1 5.96046e-08 0
1 5.96046e-08 0
0 0.805473 1
1 5.96046e-08 0
1 5.96046e-08 0
1 0.983914 0
1 5.96046e-08 0
1 0.166306 0
1 0.788103 0
1 5.96046e-08 0
1 0.966736 0
0.605901 1 0.394099
1 0.752684 0
1 0.971047 0
0.6608 1 0.3392
1 0.889082 0
1 5.96046e-08 0
1 0.400417 0
0.685895 1 0.314105
1 0.887638 0
1 0.398332 0
0.00493888 1 0.995061
0.565971 1 0.434029
1 5.96046e-08 0
1 0.0237955 0
0.223552 1 0.776448
1 0.344003 0
1 5.96046e-08 0
0.953437 1 0.0465631
0.727677 1 0.272323
1 0.211714 0
1 0.984076 0
1 5.96046e-08 0
0.197295 1 0.802705
1 5.96046e-08 0
1 5.96046e-08 0
1 5.96046e-08 0
1 0.398614 0
0.544867 1 0.455133
1 5.96046e-08 0
1 5.96046e-08 0
1 5.96046e-08 0
1 5.96046e-08 0
1 0.0863075 0
0.502793 1 0.497207
1 0.883486 0
0 0.266076 1
0.636052 1 0.363948
1 0.212535 0
0.837828 1 0.162172
1 0.26 0
1 5.96046e-08 0
1 0.978844 0
0 0.549197 1
1 5.96046e-08 0
0 0.525942 1
0 0.894582 1
1 0.811292 0
1 0.729339 0
0 0.167133 1
1 0.716407 0
0 0.640462 1
1 5.96046e-08 0
0 0.781597 1
0 0.438463 1
1 5.96046e-08 0
1 5.96046e-08 0
0.712164 1 0.287836
0 0.87843 1
1 5.96046e-08 0
0 0.540674 1
1 5.96046e-08 0
1 5.96046e-08 0
1 5.96046e-08 0
0 0.912988 1
1 0.565375 0
1 5.96046e-08 0
1 0.238588 0
0.261666 1 0.738334
0 0.519076 1
0 0.773339 1
0 0.368222 1
0.795056 1 0.204944
0 0.993064 1
1 0.13747 0
1 5.96046e-08 0
0 0.614333 1
0.570808 1 0.429192
0.431431 1 0.568569
1 0.302456 0
1 5.96046e-08 0
1 0.409485 0
0.467845 1 0.532155
1 0.690973 0
0 0.245808 1
1 0.851293 0
1 0.680542 0
1 5.96046e-08 0
1 5.96046e-08 0
0.468976 1 0.531024
0 0.122308 1
0 0.515999 1
1 0.48336 0
0 0.434599 1
0.504343 1 0.495657
0 0.317993 1
1 5.96046e-08 0
0 0.845472 1
0 0.558205 1
1 0.269672 0
1 5.96046e-08 0
0.330681 1 0.669319
0 0.718399 1
1 0.703746 0
1 5.96046e-08 0
0 0.678117 1
0 0.475723 1
1 5.96046e-08 0
0 0.393164 1
0 0.730504 1
0 0.31044 1
1 5.96046e-08 0
1 0.810509 0
0 0.851906 1
1 5.96046e-08 0
0.259393 1 0.740607
1 0.606514 0
0 0.984749 1
1 5.96046e-08 0
1 0.238665 0
0.120307 1 0.879693
0 0.475586 1
0.942771 1 0.0572293
0 0.448116 1
1 5.96046e-08 0
1 0.644719 0
0 0.716524 1
0 0.662451 1
0 0.42041 1
1 0.234806 0
0 0.85645 1
1 5.96046e-08 0
0 0.229439 1
0 0.643541 1
0 0.630814 1
0.880421 1 0.119579
0 0.754431 1
0 0.28566 1
0 0.44201 1
1 5.96046e-08 0
0 0.659715 1
0.36072 1 0.63928
1 0.701316 0
0 0.54443 1
0.315876 1 0.684124
1 0.0839546 0
1 5.96046e-08 0
