# vtk DataFile Version 3.0
Particle simulation
ASCII
DATASET POLYDATA
POINTS 400 float
4.74036 5.63249 8.27235
1.68172 6.83375 3.46716
7.75746 2.89815 8.82753
9.453 6.05033 3.84223
9.42725 5.02045 3.80009
9.64753 7.25849 5.21023
2.74828 8.47945 6.9157
8.70829 7.16865 8.06425
1.1005 8.70401 8.37444
4.87377 8.70543 1.45944
4.75503 1.36864 5.25316
3.82031 2.17328 8.71509
1.55178 2.11468 9.69748
7.15667 10 3.28729
4.887 9.0291 9.78087
7.90287 8.54275 9.47301
9.30355 9.40636 9.01271
3.07314 0.620819 1.6453
2.88365 3.46725 2.06178
9.06343 4.93695 8.27478
3.18281 0.167677 1.68079
6.86242 2.68584 8.06617
6.18122 3.25304 0.297065
3.16289 2.98503 0.12184
6.29724 0.557779 2.85267
8.95239 6.77578 2.92701
9.1308 6.39373 9.20244
1.35781 4.51324 8.28719
2.82352 8.15944 0.144314
3.50933 2.06035 1.72243
1.79744 0.98774 1.9232
6.26204 7.51178 0.385815
3.16791 1.75507 6.88337
6.37127 8.9519 0.474276
6.42446 6.86848 2.18998
8.0359 0.698191 5.25973
4.30904 9.46665 2.61085
3.25307 0.347118 2.27519
6.97741 2.8098 3.03876
6.20344 5.73657 4.04416
6.26893 8.10881 5.14628
2.9451 8.82883 3.0374
0.632324 4.25147 6.48251
0.697255 3.71844 0.967393
6.62424 0.270739 1.93304
5.79588 9.06541 4.57085
4.64143 3.79577 5.62761
4.91572 10 3.24174
8.90706 1.90285 0.116127
8.26327 0.501767 7.16161
9.67125 9.15464 0.175009
5.33362 7.00327 6.31146
7.74633 0.652349 10
5.04256 1.96585 10
9.58576 4.23427 0.281138
3.82349 1.09545 6.75437
0.78578 2.56651 1.64283
6.22051 3.5304 2.96221
0 2.18654 7.51235
3.903 8.25778 4.57371
2.82159 6.55626 9.00342
4.51065 1.25954 9.72349
9.71609 1.55277 3.53396
9.11557 7.53187 2.21312
4.51486 4.84684 8.20777
6.95113 0.861326 5.49434
7.48854 0.188832 3.91931
9.28738 2.85159 2.38133
4.06225 4.67034 3.74905
7.52963 4.06758 7.6486
3.41444 2.74609 0.57306
4.95101 7.3876 5.36579
7.49232 2.27618 10
6.36817 1.7813 7.17206
8.11366 8.86263 6.86991
8.30904 3.20394 1.56953
1.62356 0.351105 2.4502
4.22837 8.88075 9.01219
2.38002 4.67687 1.2828
5.04906 0.469571 9.42835
3.25039 0.618426 1.57297
0.116769 1.20985 0.277921
2.04654 1.30282 8.46261
4.96461 10 5.43237
6.53359 0.216243 9.24822
3.90957 4.59853 1.27429
4.75406 9.2134 5.24683
8.8914 6.54882 6.95071
4.24352 2.27819 2.01502
4.61729 6.5705 9.80166
2.87936 0.338805 1.81975
1.36737 8.94421 8.81325
1.58379 1.72944 9.47764
1.12677 3.35044 6.41281
4.03833 9.17872 9.36335
5.96772 1.42061 4.58671
0.66244 0.17723 2.50932
4.06372 8.1811 8.96603
7.54003 9.79298 1.27737
3.75954 8.38373 8.73388
3.68606 0.252008 2.55618
1.61253 5.18704 8.12692
6.81813 4.2356 0.398028
8.66925 3.361 6.97931
0.220921 7.10279 6.11338
1.13931 5.7203 0.959234
6.69909 1.59118 2.73695
1.78689 8.85797 3.58136
4.06735 9.18738 8.77326
2.72081 6.22684 9.0473
1.27993 3.38238 9.78476
1.5109 2.33049 3.2803
9.78107 4.35865 0.96339
5.04078 7.51672 5.1188
2.17499 0.375963 0.312475
0 8.75388 2.60031
1.62893 0.514868 8.88006
8.27872 7.8695 1.18728
6.04617 1.03988 3.49274
9.99734 2.82891 9.43208
5.60921 0 4.39388
9.93227 8.58626 5.45754
2.80113 7.30873 2.02836
3.42739 6.13996 3.7578
7.20496 7.70678 5.78118
3.42798 0.149482 2.50031
1.82238 0.727352 6.02276
4.3572 6.30469 7.58684
0.593997 1.98669 0.803893
3.50709 5.68606 5.29407
3.29626 9.41104 5.65006
3.32054 7.21781 5.1545
7.81335 8.31229 4.22033
0.661419 2.43289 1.05124
1.69519 3.46808 9.67839
1.39184 5.46197 2.14429
8.31843 0.63228 9.88751
3.94386 4.44427 6.96556
3.91845 1.24513 8.63372
7.38318 8.17409 1.59609
3.82725 0.540926 2.01455
9.73279 10 1.82552
6.98977 1.76186 8.58782
9.7315 7.60504 3.11091
2.15926 0.530776 0.72413
5.42705 0.470035 0
9.58181 3.00848 8.43447
0.224205 9.66994 0.696113
1.49993 1.92097 6.14561
9.89864 0.673323 5.21877
3.122 0.358135 1.84235
0.9709 5.22757 2.9996
3.84531 5.43883 5.49713
2.85277 0.182726 1.91852
7.46846 1.00622 5.80755
5.44877 0.285621 5.34658
4.79535 6.85808 2.18655
3.44589 1.11347 7.61948
9.52695 9.63418 2.64432
8.57841 2.32832 1.39319
4.30832 4.39118 4.0329
7.85747 5.31762 4.91487
9.08964 7.62399 0.756169
9.63918 7.40549 6.18843
0 3.57397 2.33807
9.80804 9.00998 6.00302
5.08718 8.42976 5.30057
7.85715 8.74371 3.10426
9.31488 6.32486 7.35692
6.4902 5.51868 4.55951
3.02834 0.49425 2.0583
8.71556 9.12317 6.18932
0 4.38744 2.94938
7.07233 0.360386 5.7164
2.50907 3.24991 5.72363
2.88144 9.57727 5.39056
0.454934 2.74048 0.632768
8.78139 8.28034 7.16408
3.14086 4.95862 7.48116
1.96895 9.37633 7.08943
3.79174 0.349072 1.95663
7.34747 7.32298 0.323487
5.3223 8.50887 5.77741
5.37411 9.25871 3.25051
5.69212 1.08667 2.25075
2.11768 8.1571 7.66548
3.83542 0.395823 2.11246
2.76861 8.2816 7.67491
2.78815 0.301877 2.14291
2.16792 0.302025 0.522752
3.48123 0.251826 2.10474
3.37197 0.612407 2.26928
9.54548 3.80761 7.99822
8.08166 2.06409 3.94923
7.3871 4.86663 9.51595
4.03473 0.531008 1.78067
3.59369 2.45996 9.53297
0.271864 9.86894 4.23554
3.42201 0.577134 2.33066
3.30158 0.349301 2.25221
3.70371 0.174965 2.0497
8.0785 5.13897 9.11075
6.76828 1.98617 9.99318
9.05978 4.48366 3.12189
2.42036 8.50195 3.32343
4.26867 0.932545 5.97436
3.33907 0.673688 1.71052
0.140136 0.309301 6.58587
3.669 1.41476 8.81756
0.501101 0 3.18192
3.27393 0.245663 2.16677
3.73555 0.478377 1.84244
6.52591 3.57182 8.88924
0.484924 5.28239 7.15116
4.21885 5.00097 3.57044
4.26112 0.313905 8.56478
3.20358 0.14602 1.96472
3.116 0.538975 3.97626
2.57689 5.85518 1.38597
5.47231 2.60205 2.02084
3.27428 1.05818 0.344934
3.7878 3.78373 5.34723
5.86596 3.57661 0
3.0399 0.542106 2.25146
9.83506 6.37352 4.42436
8.4588 9.83551 1.22868
9.94928 7.62561 1.20764
3.60518 0.0927054 2.08431
3.61325 0.311137 1.54809
6.0312 4.83658 5.14632
0.492808 7.36084 5.3317
3.34225 4.26625 2.76316
6.25955 6.33326 10
3.2051 0.253678 2.2943
1.5465 0.401277 9.15058
9.81756 8.21577 1.07611
2.05939 10 0.540218
8.42464 6.20605 9.34301
3.12234 0.262996 1.61943
6.45508 1.27316 1.2511
3.66686 0.344622 1.70898
3.87321 0.134578 2.21806
3.42615 0.551747 1.34887
3.46371 0.151135 1.50999
10 5.33834 6.88413
4.31362 5.97085 7.4955
9.46318 9.88743 4.16197
8.14229 2.95107 0.444349
1.15422 6.14098 3.51729
3.66526 8.52151 6.46649
3.11108 0.755404 1.82041
8.36074 7.68536 6.33198
0.103714 0 5.85973
2.92884 0.861268 9.46145
8.27861 0.8817 9.35369
3.32598 0.254203 1.2037
7.15549 7.69375 0.500923
1.87116 0.266637 8.77655
0.971404 4.08241 9.35104
1.55073 0.422521 8.96074
3.62301 0.621172 1.68774
7.67443 3.43502 8.41453
9.63457 1.08373 9.35407
1.44165 0.26236 1.20484
0.416284 1.25646 7.40679
6.28405 0.959747 0.309879
6.2763 0.858705 2.58028
1.47055 0.31964 8.89815
1.35639 5.82573 4.49078
2.78215 0.149723 1.92995
2.91755 0.299056 1.95089
9.86181 3.60541 7.79489
7.40009 6.36009 2.91692
1.99648 1.80608 5.28082
6.1735 1.10381 2.28638
1.3348 0.460332 8.67155
8.87173 6.95918 2.87408
8.50607 4.38585 1.64268
8.96965 3.07223 8.71499
3.08933 0.344965 1.84046
1.95959 0.0503292 6.04423
7.8281 0.769491 0.61943
0 5.42923 5.32607
3.71301 0.693537 8.21967
3.35132 4.81746 9.98053
5.06066 7.823 6.00006
3.61574 0.671977 1.67591
3.93473 0.164732 5.85298
10 6.09692 8.49122
4.69918 3.23049 8.24326
2.55145 8.8809 7.91564
6.28408 3.67858 0.612774
2.91823 0.316797 2.02119
3.13858 1.60281 3.51487
0.182589 1.44657 7.46652
1.49496 0.331113 8.9857
3.12973 0.283868 2.00377
3.79557 0.425106 1.77736
4.3607 1.16332 1.21592
3.24134 0.289909 2.2038
3.50262 2.32463 1.57229
8.98845 3.99321 3.30865
4.70618 0.587101 4.42246
0.478888 9.75099 5.57211
3.54504 0.634143 1.79312
3.13617 0.813624 4.97106
3.23237 0.31604 1.8795
2.86706 0.4638 1.87318
0.779711 2.21578 4.68847
8.844 7.2755 2.60245
4.49625 0.427302 4.86781
9.85194 2.82328 4.11982
4.5177 7.89387 2.80511
3.47138 0.498339 1.58635
4.94921 0.054257 7.68252
4.34987 2.49457 2.35962
3.36655 1.07914 3.27206
3.28661 6.09635 5.1159
6.28875 2.19145 2.15962
4.35911 9.47431 0
1.85531 0.438731 9.34698
3.79166 3.67247 10
1.74326 0.44784 8.6159
3.94467 0.530846 1.69279
1.90674 0.177123 6.12685
7.61834 3.11287 0.462493
3.69192 0.320333 2.07447
2.44091 7.48895 4.05209
7.48948 1.18861 6.37646
3.47854 0.478835 2.03728
0.540676 0.727526 4.61498
2.66504 0.253027 1.39487
3.00899 0.987631 9.7082
3.37707 0.239424 0.878178
7.95105 0.612777 0.581199
5.24896 1.84661 2.99811
1.49557 5.02774 8.60188
3.41118 0.329236 1.87583
0.480789 4.17661 6.56069
6.94332 5.73935 5.11388
6.13392 4.07538 4.40411
9.65596 9.04048 5.76271
3.08065 1.06207 9.62218
1.47618 0.498764 8.93906
3.24207 0.319896 1.81619
3.05269 0.235305 2.12544
7.6162 0.10267 0.941784
3.47965 0.618217 2.03948
3.31683 0.469053 1.42686
5.99322 7.30087 7.30029
3.40347 0.0752645 2.49533
3.2839 0.343063 1.70409
0.170749 3.99073 3.34299
1.59962 0.929521 8.52551
2.88968 0.190507 1.37759
3.64792 0.524867 1.41534
3.70593 0.709617 3.77653
3.02992 0.95394 9.54811
3.62609 0.413198 1.43976
3.27514 0.541641 2.24814
7.37317 0.186285 0.313445
1.55695 0.493907 8.93696
1.7825 0.368628 8.88378
3.34185 0.125551 1.48819
3.53498 0.477048 1.46035
7.56922 0.643437 0.456905
1.39365 0.524626 8.942
6.81407 8.58602 1.85419
1.85997 0.348041 8.86647
0.874808 1.40491 8.28801
7.47617 0.261837 0.40559
1.9855 0.779042 8.01445
1.52712 0.372993 7.80387
3.5081 0.639701 1.94482
3.58784 0.177066 1.58035
7.66699 0.712937 0.428799
1.58587 0.657075 8.78198
1.54918 0.318877 9.43285
4.16585 0.548892 8.73491
3.668 0.170437 1.89727
3.57002 0.676739 2.02122
3.11813 0.245361 2.02303
4.13962 0.406607 8.79955
3.36182 0.345603 1.92971
7.56048 0.145853 3.27475
1.60048 0.660447 8.43424
3.34732 0.333676 1.6545
3.31961 0.467679 2.03254
7.33245 2.92678 2.73676
9.47021 0.136621 3.27674
3.24286 0.32161 2.54028
3.06592 0.125206 2.17538
1.8415 0.663291 8.35069
2.98247 0.298162 1.90278
3.31522 0.608129 3.75172
1.69095 0.588081 8.74882
3.36025 0.390229 1.56935
1.50505 0.693539 9.14293
6.90236 0.697422 2.14696
7.61352 0.453583 0.356486
POINT_DATA 400
SCALARS particleColor float 3
LOOKUP_TABLE default
1 5.96046e-08 0
0.361788 1 0.638212
1 0.710374 0
0.875428 1 0.124572
1 5.96046e-08 0
0 0.667929 1
1 0.860629 0
1 0.561921 0
1 0.252937 0
1 5.96046e-08 0
0.0027541 1 0.997246
0.704161 1 0.295839
1 0.379502 0
0.794704 1 0.205296
1 0.866563 0
0.349292 1 0.650708
0.215589 1 0.784411
0 0.298561 1
0.887775 1 0.112225
1 5.96046e-08 0
0 0.342764 1
1 5.96046e-08 0
1 5.96046e-08 0
1 0.863783 0
1 0.583175 0
0 0.931251 1
0.311513 1 0.688487
0.934402 1 0.0655982
0.929737 1 0.070263
1 5.96046e-08 0
1 5.96046e-08 0
0.290188 1 0.709812
1 0.395277 0
1 0.754407 0
1 5.96046e-08 0
1 5.96046e-08 0
0.47686 1 0.52314
0 0.658591 1
0.46767 1 0.53233
1 5.96046e-08 0
1 0.966685 0
1 5.96046e-08 0
1 0.791137 0
0 0.959706 1
0 0.122609 1
1 5.96046e-08 0
0.711468 1 0.288532
1 0.204974 0
0.561708 1 0.438292
0.909111 1 0.0908892
1 0.860498 0
1 0.153811 0
1 5.96046e-08 0
1 5.96046e-08 0
1 0.800857 0
0.400901 1 0.599099
0.408752 1 0.591248
0.624934 1 0.375066
1 5.96046e-08 0
1 0.563101 0
1 5.96046e-08 0
1 5.96046e-08 0
0.919686 1 0.0803138
1 0.20752 0
0.699675 1 0.300325
1 5.96046e-08 0
0.255022 1 0.744978
1 5.96046e-08 0
1 0.0279486 0
1 5.96046e-08 0
1 5.96046e-08 0
1 0.542627 0
1 5.96046e-08 0
0 0.722285 1
1 0.294949 0
1 5.96046e-08 0
1 0.134202 0
1 5.96046e-08 0
0 0.580312 1
0.609637 1 0.390363
0 0.566197 1
0.187858 1 0.812142
0 0.712332 1
1 5.96046e-08 0
0.282576 1 0.717424
1 0.660122 0
1 5.96046e-08 0
0.34106 1 0.65894
0.0886593 1 0.911341
1 5.96046e-08 0
0 0.62015 1
1 0.835899 0
1 0.240491 0
1 5.96046e-08 0
1 5.96046e-08 0
0.542976 1 0.457024
0.801921 1 0.198079
1 0.650304 0
1 0.980621 0
0 0.815383 1
0 0.489958 1
0.37148 1 0.62852
1 0.184052 0
0.755842 1 0.244158
1 5.96046e-08 0
1 0.672272 0
1 0.627502 0
0.242227 1 0.757773
1 0.817978 0
1 0.479421 0
0.923823 1 0.0761767
1 0.78518 0
1 5.96046e-08 0
1 5.96046e-08 0
0 0.908989 1
1 0.228244 0
0 0.757058 1
1 5.96046e-08 0
1 5.96046e-08 0
1 5.96046e-08 0
1 5.96046e-08 0
1 0.798759 0
1 5.96046e-08 0
0.524787 1 0.475213
0.474879 1 0.525121
0 0.733935 1
0.897994 1 0.102006
0 0.924099 1
0.304663 1 0.695337
1 0.941024 0
1 5.96046e-08 0
1 0.254873 0
1 5.96046e-08 0
0 0.695633 1
0.865342 1 0.134658
0.923258 1 0.0767422
0.892004 1 0.107996
1 0.571908 0
1 0.665239 0
1 0.79712 0
0 0.927192 1
1 5.96046e-08 0
1 5.96046e-08 0
1 5.96046e-08 0
0 0.706051 1
0.350906 1 0.649094
0.573591 1 0.426409
1 5.96046e-08 0
1 0.74637 0
1 0.5908 0
0 0.800838 1
1 5.96046e-08 0
1 5.96046e-08 0
0 0.443393 1
1 5.96046e-08 0
0 0.892495 1
0 0.921717 1
1 5.96046e-08 0
1 5.96046e-08 0
1 5.96046e-08 0
1 5.96046e-08 0
1 0.680798 0
1 5.96046e-08 0
1 5.96046e-08 0
0.186795 1 0.813205
0.356299 1 0.643701
0.247362 1 0.752638
0.158483 1 0.841517
0.824273 1 0.175727
1 0.494859 0
0 0.294386 1
1 5.96046e-08 0
0.697545 1 0.302455
1 0.693622 0
0 0.626816 1
1 0.306364 0
0.513864 1 0.486136
0.664818 1 0.335182
1 0.415123 0
1 5.96046e-08 0
0 0.462551 1
0.65955 1 0.34045
0 0.298957 1
1 0.102786 0
1 5.96046e-08 0
0.697697 1 0.302303
0 0.45219 1
1 5.96046e-08 0
0.0706508 1 0.929349
0 0.905561 1
0 0.761834 1
0 0.356724 1
0.0801733 1 0.919827
1 5.96046e-08 0
0.00593283 1 0.994067
0 0.675461 1
1 0.504696 0
0.791442 1 0.208558
0.110896 1 0.889104
0 0.667215 1
0 0.404923 1
1 5.96046e-08 0
1 5.96046e-08 0
0.0893143 1 0.910686
1 5.96046e-08 0
0.418879 1 0.581121
0 0.670134 1
1 0.340544 0
0.0103311 1 0.989669
1 5.96046e-08 0
0 0.609066 1
0 0.35513 1
1 5.96046e-08 0
1 5.96046e-08 0
0 0.558375 1
0 0.790107 1
0 0.580106 1
0.804016 1 0.195984
0.11005 1 0.88995
0 0.149495 1
1 5.96046e-08 0
0.208525 1 0.791475
0.440623 1 0.559377
0 0.688401 1
0 0.982701 1
1 5.96046e-08 0
0.263634 1 0.736366
0 0.637029 1
0 0.563804 1
1 5.96046e-08 0
1 5.96046e-08 0
1 5.96046e-08 0
1 5.96046e-08 0
0 0.83371 1
0 0.41324 1
0.762614 1 0.237386
1 0.27648 0
0.814986 1 0.185014
0 0.617226 1
1 5.96046e-08 0
0 0.589196 1
0 0.715247 1
0 0.784495 1
0 0.645022 1
1 5.96046e-08 0
0.795477 1 0.204523
1 5.96046e-08 0
0 0.688506 1
1 5.96046e-08 0
0.799034 1 0.200966
0.189566 1 0.810434
1 5.96046e-08 0
0.968525 1 0.0314745
1 5.96046e-08 0
1 5.96046e-08 0
0 0.496799 1
1 0.903105 0
0 0.602243 1
0.201586 1 0.798414
0 0.373924 1
0.0423083 1 0.957692
0 0.929351 1
1 0.784107 0
0.00469712 1 0.995303
0.358202 1 0.641798
1 0.530187 0
0 0.912677 1
0 0.535534 1
0.37035 1 0.62965
0 0.733547 1
0 0.867416 1
0 0.60161 1
1 5.96046e-08 0
1 5.96046e-08 0
0 0.763478 1
0.924076 1 0.075924
0 0.343031 1
1 5.96046e-08 0
1 0.104275 0
0 0.193282 1
0.0503039 1 0.949696
0 0.265989 1
1 0.958746 0
0.00040766 1 0.999592
1 0.0629533 0
1 5.96046e-08 0
0 0.385809 1
1 0.380799 0
1 5.96046e-08 0
1 5.96046e-08 0
0 0.947471 1
1 5.96046e-08 0
0 0.822216 1
0 0.940428 1
0 0.991217 1
0 0.983312 1
0 0.386687 1
0 0.623445 1
0.180379 1 0.819621
0 0.369214 1
0 0.87196 1
0 0.420919 1
0.329354 1 0.670646
1 0.842671 0
0 0.544879 1
0 0.81142 1
0 0.625448 1
0 0.470066 1
0.350482 1 0.649518
0 0.882097 1
1 5.96046e-08 0
1 5.96046e-08 0
0.833919 1 0.166081
0 0.574551 1
1 0.358634 0
1 0.612825 0
0 0.857553 1
1 5.96046e-08 0
1 0.789379 0
1 5.96046e-08 0
0 0.65235 1
1 5.96046e-08 0
0 0.83052 1
0 0.336852 1
0.260424 1 0.739576
1 0.161438 0
0 0.945479 1
0.63564 1 0.36436
1 0.661664 0
0 0.60371 1
0 0.824515 1
0 0.616775 1
0 0.475239 1
0 0.750526 1
0 0.686105 1
1 0.518882 0
0 0.77043 1
0 0.553387 1
0.713774 1 0.286226
1 0.79642 0
0.90096 1 0.0990403
1 0.206024 0
0 0.611363 1
0 0.390895 1
0 0.659722 1
0.102741 1 0.897259
0 0.0929562 1
0 0.913227 1
0 0.776566 1
0.135368 1 0.864632
0 0.168664 1
0 0.648319 1
0 0.726809 1
0.0356712 1 0.964329
0 0.452424 1
0 0.735277 1
0 0.937109 1
0 0.924028 1
0.0274553 1 0.972545
0 0.257286 1
0 0.0293436 1
0 0.337145 1
0 0.26438 1
0 0.991225 1
0.102267 1 0.897733
0 0.785525 1
0 0.80647 1
1 0.722563 0
0 0.600739 1
1 5.96046e-08 0
0 0.431653 1
0.574537 1 0.425463
0.243005 1 0.756995
0 0.991892 1
0 0.589523 1
0 0.528066 1
0 0.952434 1
0 0.714933 1
0 0.575458 1
0 0.922361 1
0 0.5273 1
0 0.62042 1
0 0.218878 1
0.0232102 1 0.97679
0.942291 1 0.0577089
0 0.974033 1
0 0.427607 1
0 0.574463 1
1 0.517978 0
0.170908 1 0.829092
0 0.329301 1
0 0.206537 1
0 0.443881 1
0 0.48472 1
0 0.744109 1
0 0.655863 1
0 0.417545 1
1 0.983532 0
0 0.922949 1
0 0.671212 1
