# vtk DataFile Version 3.0
Particle simulation
ASCII
DATASET POLYDATA
POINTS 400 float
0.753312 0.617027 0.99013
0.850817 0.706333 0.920428
2.00423 0.704645 4.48611
0.810251 0.484598 0.876095
3.98367 0.986157 6.0439
1.52003 2.72698 5.11288
5.86191 0 0.658898
2.77028 1.95491 4.06733
4.95571 0.317741 0.738704
6.33485 1.02951 1.4036
0.667819 0.646574 0.952489
0.515671 0.743052 0.930465
1.99088 0.719851 4.41045
0.754562 0.486557 0.880348
3.98815 1.04781 6.0532
1.6975 2.49347 5.25526
0.920017 0.479047 3.46075
1.46853 0.583745 3.1378
4.64826 1.00084 0.606639
6.33437 1.01276 1.36429
4.35309 0.703175 1.12402
5.32325 1.0302 2.01234
1.27428 0.588426 4.01984
6.17549 1.18524 1.63739
3.19052 0.548709 3.7052
1.50762 0.966972 4.11408
4.9695 0.693449 5.3413
1.33901 0.752454 3.06656
3.6166 0.809543 1.75225
1.02584 0.549746 0.588937
4.62006 0.890627 0.546365
5.58054 1.28187 1.57947
2.15442 1.98227 5.4641
6.14943 1.16086 1.61947
2.53821 0.752294 3.15473
1.4551 0.893364 4.19139
4.94096 0.633311 5.27262
1.36831 0.763782 2.97173
3.7068 0.735674 1.99616
1.00439 0.462375 0.638596
0.643773 0.655806 1.72444
4.10377 0.72909 1.82577
0.39761 0.590687 1.74373
5.98495 1.15357 1.37809
1.99793 0.662044 4.86225
3.79044 0.684603 1.78056
2.94087 0.576335 3.54487
0.781903 0.315881 2.7956
3.38039 1.08313 1.83946
3.20162 1.41686 5.55245
0.653883 0.650632 1.7106
4.09794 0.758506 1.7859
0.420532 0.609822 1.71619
5.9733 1.14829 1.35052
2.00885 0.633828 4.80652
3.7641 0.693145 1.80126
2.05986 0.733925 4.72485
0.872823 0.319924 2.76299
3.41951 1.08148 1.83344
3.36191 0.872658 5.03732
5.50751 0.767984 0.98984
0.954073 1.14493 0.138632
5.18883 1.86269 4.98656
5.91932 0.243257 1.01228
4.90478 1.11669 5.03008
5.05926 1.3337 5.21081
2.61417 0.954655 1.7152
1.47401 0.798662 4.10271
3.37077 1.02953 1.98576
1.53545 1.39845 3.06157
5.44967 0.793798 0.993962
0.774356 1.03019 0.40353
5.3321 0.520907 5.57664
5.89455 0.252659 1.06871
4.98437 1.30495 4.94858
4.98342 1.43066 4.97394
2.57703 0.935646 1.73916
2.66431 1.08054 4.69799
3.35299 1.04738 1.98139
1.47629 1.39765 3.07638
0.895777 0.775572 0.864087
2.95416 0.818638 1.84911
2.17003 0.744204 1.08925
3.79293 0.797031 1.98043
4.29692 0.45602 4.90933
2.64832 0.751703 5.426
4.02815 0.652827 5.45589
1.27869 0.646846 3.13061
1.2421 0.452454 2.32024
5.15402 0.675891 0.282639
0.818867 0.764414 0.706023
2.85758 0.774244 1.83561
2.47587 0.883323 1.45836
3.78182 0.810397 1.95774
4.29391 0.467589 4.90894
2.63764 0.699469 5.43645
2.18395 0.493893 4.73472
1.16497 0.825312 3.00202
1.36164 0.443147 2.2489
5.14026 0.65882 0.268293
3.48241 0.518488 2.61796
5.58072 0.800024 0.284735
1.01153 0.729453 2.70205
5.76476 0.897066 0.71824
1.54731 0.82238 2.10041
1.02539 0.695296 2.93328
3.01726 0.544376 5.29764
2.57534 1.01151 1.9399
3.43894 1.03952 2.04975
5.17735 0.806977 0.298444
3.43981 0.578168 2.67725
5.41339 0.984992 0.43461
1.90839 0.574292 1.46972
5.33038 0.611898 0.215981
2.00555 1.25766 3.57347
1.10359 0.707916 2.99571
2.98004 0.561164 5.33569
2.14045 0.954763 1.92695
3.37156 1.01966 2.04713
1.9015 1.04676 1.5381
2.63837 0.823737 2.21223
3.84908 0.630961 1.67637
5.33478 0.567756 5.06903
3.26279 0.748426 2.79391
2.54928 0.76893 4.71591
1.64382 0.9523 1.41172
0.850841 0.447346 0.867162
5.89835 0.968517 1.08449
2.67593 0.986625 4.96996
1.51342 1.01327 1.69755
2.63318 0.832036 2.18655
3.9022 0.779311 1.57724
5.17265 0.714395 5.52722
3.08974 0.805513 2.71664
2.41828 0.627075 4.86488
3.08513 0.798308 2.74937
0.730502 0.602093 1.17074
5.86458 0.956768 1.08003
2.68482 0.821618 4.95472
1.12315 1.12217 1.06204
0.586877 0.577862 0.801156
2.42961 0.812958 0.797507
2.55181 0.731361 1.0086
2.54649 1.05186 2.19623
1.89972 0.599811 1.02491
1.18116 0.508852 2.70891
5.4099 0.857678 5.71114
2.03552 1.36618 3.77379
0.94162 0.629328 3.14643
1.40706 0.479626 2.87164
0.580598 0.578098 0.795108
2.38206 0.798216 0.844314
1.95644 0.514723 1.17631
2.19492 1.02924 1.98743
1.9457 0.704826 1.14931
1.23467 0.579267 2.78267
5.25936 0.877345 5.71295
1.69157 1.3328 3.6045
1.71661 1.08213 1.35005
1.45459 0.980071 2.40375
1.17673 0.816543 1.5632
2.97389 1.08098 2.63418
4.22982 0.0520117 4.90949
1.7839 0.879371 2.44996
1.94728 0.401351 1.17059
3.86199 1.48088 1.58435
2.90532 0.667243 5.38371
2.90466 0.57621 5.18046
3.12462 0.593705 5.38547
1.45014 1.10741 1.73328
1.10686 0.739213 1.55848
2.39385 0.561139 2.03118
4.20918 0.047702 4.87505
2.29608 1.17951 2.3514
1.94232 0.388529 1.17601
3.78955 1.47907 1.66181
2.7637 0.720132 5.30076
2.78479 0.583614 5.20725
3.11943 0.487678 5.41123
1.49381 1.0992 1.72482
2.87412 0.27491 2.02125
0.513115 0.702801 0.929909
4.40033 0.783355 6.13445
1.35637 0.373477 0.359638
2.12456 0.326823 4.68067
0.603061 0.872411 3.20239
1.00647 0.822757 3.44673
3.56405 1.42923 1.34108
2.20743 1.35576 1.77233
3.33072 0.458187 1.80491
2.85947 0.280656 2.03896
0.375108 0.576653 0.919344
4.37742 0.431236 4.71305
1.37879 0.32223 0.317836
2.12699 0.321829 4.67266
0.675887 0.686663 3.26631
1.01517 0.81051 3.41363
4.44058 0.597598 0.908946
2.25727 1.36768 1.74892
3.21553 0.4591 1.78349
0.579711 0.675437 1.10512
0.421948 0.609039 0.364433
3.88182 0.50669 5.89623
0.949598 0.780887 1.43172
3.96266 0.793728 4.93899
3.07863 0.789514 4.87572
1.59111 0.389313 3.24165
1.05851 0.0905959 3.27216
2.15875 0.716451 3.17047
5.34655 0.702339 0.101037
0.75161 0.522236 1.01366
1.66121 0.5365 1.06427
4.16138 0.744138 5.58018
0.901207 0.749558 1.32427
3.9751 0.799231 4.92557
3.05877 0.808682 4.86911
1.60258 0.36596 3.2474
2.02345 0.69923 2.90479
2.13681 0.569169 3.20999
5.07599 0.711983 0.340522
5.90099 1.37856 0.950263
4.33794 0.926733 6.16849
5.41624 0.691396 5.62146
1.90908 0.713817 1.49106
3.71407 0.791446 4.91977
1.60576 1.40876 3.38034
5.00734 0.502856 5.98483
1.63577 0.484323 3.40325
1.2309 0.692828 2.37879
1.67075 0.764153 2.34229
5.96696 1.36051 0.947141
4.31862 1.06426 6.18521
5.29869 0.645879 5.66183
1.8762 0.702009 1.48755
3.71304 0.791903 4.90788
1.62475 1.41101 3.46968
5.14246 0.627365 5.86
1.94301 1.1231 3.3632
1.8378 0.46531 1.77346
1.55897 0.775486 2.34732
0.848407 0.561324 0.989185
2.08601 0.483275 1.02371
1.13721 0.611129 2.65549
4.43568 0.949845 1.33034
2.3316 0.743875 5.10487
4.06652 0.760239 1.5063
1.55653 0.566575 3.50045
5.71973 1.30155 5.59632
3.90387 0.343651 1.52415
2.85413 0.754832 5.32847
0.853076 0.537923 1.04607
2.49538 0.443536 0.286538
3.26396 0.61664 5.02214
4.38651 0.924399 1.34047
2.40627 0.5738 5.20123
2.77495 1.32766 2.15553
6.02467 0.25368 0.44867
5.44891 1.23722 5.59908
3.90102 0.374023 1.5037
2.86646 0.771557 5.27518
1.54888 0.366194 1.36109
2.06645 0.619903 1.22244
2.97373 0.841289 1.48315
6.42902 0.95603 1.54919
4.06171 0.626956 4.88631
2.79921 0.419016 3.24559
5.48717 0.498157 0.456907
2.78386 0.685087 5.25003
4.50507 0.702078 5.03289
0.790436 0.571377 2.95501
1.56 0.342827 1.44888
1.99441 0.710242 1.18252
4.88865 0.512537 1.51034
6.36335 1.21389 1.34148
4.06811 0.345098 5.2185
2.34146 0.214379 4.65621
5.36548 0.640709 0.77637
1.94364 0.499446 4.70217
4.50125 0.7462 5.00578
0.667536 0.539025 3.0437
6.14261 0.0425148 0.290796
3.95576 0.93979 1.61583
0.451145 0.388402 2.82413
6.17064 0.906832 1.06193
2.11298 0.31278 5.18509
4.25926 0.487644 4.93097
1.51132 0.573612 3.26499
1.73781 0.653117 3.31008
1.26669 0.494425 1.72599
2.16391 0.522066 1.91751
6.20006 0.124342 0.261995
3.98103 0.935444 1.60068
0.719774 0.516976 2.93886
6.14618 0.853496 1.01941
1.94706 0.655503 4.74898
4.463 0.25814 5.11438
1.4767 0.624167 3.21114
2.73751 0.894335 1.5757
1.56991 0.355934 1.68172
4.26335 0.918984 1.16516
5.85471 0.202585 0.677923
0.157665 0.767896 1.27764
0.754711 0.843095 3.04831
2.13413 0.639152 2.01074
1.20343 0.673181 4.01313
3.96652 0.54977 2.02715
1.54468 0.513229 3.27538
2.10736 0.725894 1.70865
2.35198 1.12761 1.77096
2.12932 0.769161 1.84847
5.67206 0.203449 0.609389
0.165417 0.768427 1.24898
2.2509 0.0775192 5.4263
2.72154 0.967826 2.11246
1.22659 0.610512 4.01063
5.86671 0.414227 0.713469
1.62058 0.51251 3.21805
0.969869 0.763605 0.606037
2.7742 1.22865 1.96134
2.13765 0.739435 1.75222
2.31646 1.01465 1.77476
2.25847 0.986128 2.23638
2.24249 0.415099 5.07044
2.37439 0.795123 2.11736
5.66785 0.692478 0.431535
3.64429 0.738407 1.43583
1.90297 0.787111 3.66908
4.05541 0.698201 1.53337
4.90898 0.545594 0.50552
3.1476 0.724946 2.47336
2.28536 0.909126 1.91281
1.92448 0.823525 1.32234
2.13616 0.494771 5.09093
2.42526 0.796385 2.06697
5.56923 0.598012 0.434364
1.06634 0.846201 0.717151
1.87063 0.845651 3.70597
4.17953 0.746328 1.42345
4.81429 0.451733 0.585768
2.50325 0.346832 1.91454
0.892301 0.821982 0.994267
0.678427 0.428783 0.696329
4.25004 0.365894 4.59804
0.737788 0.657642 0.491735
1.34822 0.262657 2.71202
1.00393 0.419687 2.90247
3.33485 1.05454 1.74569
1.41548 0.536066 3.18614
1.13919 0.256606 2.73744
2.3491 0.635337 1.49677
0.807077 0.840913 0.896957
0.66446 0.507808 0.728534
4.23526 0.326736 4.6733
0.739442 0.671434 0.496664
1.32203 0.298734 2.76688
1.0618 0.442344 2.78474
3.3174 1.05721 1.74547
2.7495 0.659857 5.86693
1.08962 0.261632 2.66069
1.19053 0.375435 3.13329
3.11341 0.987382 2.20853
0.338197 0.466565 1.02124
4.47833 0.532181 5.36625
0.946622 0.909309 2.22082
2.50177 1.20301 1.87863
1.43878 0.824364 4.42364
2.48686 0.69994 5.35444
2.48377 0.707546 5.2168
2.68713 1.02844 5.15785
1.17066 0.701978 0.561286
3.11532 0.999617 2.1821
0.290248 0.444138 1.05032
4.46502 0.538002 5.36439
0.911633 0.921407 2.22964
2.28441 0.87108 0.533836
1.4572 0.85693 4.44143
2.50707 0.706069 5.31968
2.31007 0.668585 5.12965
2.87568 0.98315 5.2242
1.01644 0.7374 0.547216
2.36559 1.04657 1.50826
0.496042 0.632934 1.09399
1.5886 0.673443 4.8771
0.735672 0.969767 0.555192
6.03217 1.24072 1.48694
3.99923 0.522129 5.68898
2.91215 0.697949 1.73887
4.35872 1.0166 1.44261
4.97574 0.976026 0.125583
4.1435 0.625148 1.25891
2.36724 1.02916 1.56824
0.503995 0.661778 1.05994
1.57118 0.683074 4.87801
0.715889 0.739033 0.763015
6.0745 1.2272 1.4975
4.06619 0.579381 5.52993
2.88732 0.706346 1.72735
4.40056 0.964246 1.41472
4.66246 0.82004 0.388411
4.14381 0.642986 1.26297
POINT_DATA 400
SCALARS particleColor float 3
LOOKUP_TABLE default
0 0.572424 1
0 0.956774 1
0 0.579949 1
0 0.471594 1
0 0.4523 1
0 0.936387 1
0 0.997542 1
0 0.470754 1
0 0.623324 1
0 0.296933 1
0 0.607906 1
0 0.444693 1
0 0.457111 1
0 0.389136 1
0 0.463719 1
0 0.995373 1
0 0.62856 1
0 0.718873 1
0 0.219895 1
0 0.57873 1
0 0.493016 1
0 0.361738 1
0 0.784124 1
0 0.196663 1
0 0.729118 1
0 0.243203 1
0 0.47236 1
0 0.801286 1
0 0.387157 1
0 0.881763 1
0 0.529383 1
0 0.29126 1
0 0.995116 1
0 0.218458 1
0 0.446263 1
0 0.337881 1
0 0.374574 1
0 0.777616 1
0 0.740358 1
0 0.239038 1
0 0.352506 1
0 0.762911 1
0 0.874682 1
0 0.218672 1
0 0.526979 1
0 0.709334 1
0.18116 1 0.81884
0 0.567191 1
0 0.413748 1
0 0.534926 1
0 0.368259 1
0 0.788824 1
0.130474 1 0.869526
0 0.121169 1
0 0.498138 1
0 0.718956 1
0 0.452671 1
0 0.56938 1
0 0.342365 1
0 0.860419 1
0 0.876174 1
0 0.686833 1
0 0.179407 1
0 0.729517 1
0.212747 1 0.787253
0 0.59821 1
0 0.475208 1
0 0.795375 1
0 0.644999 1
0 0.161052 1
0 0.858758 1
0 0.221554 1
0 0.977683 1
0 0.562333 1
0.0276941 1 0.972306
0 0.967227 1
0 0.531499 1
0 0.40031 1
0 0.646672 1
0 0.31104 1
0.0317831 1 0.968217
0 0.45584 1
0.0243192 1 0.975681
0 0.88986 1
0 0.408886 1
0 0.99466 1
0 0.330637 1
0 0.252882 1
0 0.877834 1
0 0.410534 1
0 0.829286 1
0 0.561976 1
0.00779177 1 0.992208
0 0.99278 1
0 0.320867 1
0.0453682 1 0.954632
0 0.597774 1
0 0.331277 1
0 0.964705 1
0 0.479187 1
0 0.405816 1
0.0622545 1 0.937745
0 0.291683 1
0 0.920028 1
0.114056 1 0.885944
0 0.442087 1
0 0.704206 1
0 0.709571 1
0 0.479854 1
0 0.500158 1
0 0.811735 1
0 0.903598 1
0 0.271926 1
0 0.653797 1
0 0.564985 1
0 0.431672 1
0 0.455987 1
0 0.405104 1
0 0.363983 1
0 0.593747 1
0 0.285958 1
0 0.484185 1
0 0.545582 1
0 0.651933 1
0 0.591265 1
0 0.382231 1
0.132022 1 0.867978
0 0.583531 1
0 0.910428 1
0 0.338406 1
0 0.333679 1
0 0.471718 1
0 0.611323 1
0 0.632356 1
0 0.605995 1
0 0.588817 1
0.722065 1 0.277935
0 0.489399 1
0 0.68849 1
0 0.306938 1
0 0.532443 1
0 0.563697 1
0 0.193814 1
0 0.864695 1
0 0.966458 1
0 0.565094 1
0 0.687092 1
0 0.281326 1
0 0.509297 1
0 0.905837 1
0 0.55739 1
0 0.536767 1
0 0.811889 1
0 0.81448 1
0 0.763511 1
0 0.641846 1
0 0.660889 1
0 0.633633 1
0 0.557177 1
0 0.308932 1
0 0.919921 1
0.137322 1 0.862678
0 0.315302 1
0 0.65813 1
0 0.406914 1
0 0.737771 1
0 0.820639 1
0 0.32005 1
0 0.521402 1
0 0.393253 1
0 0.822351 1
0 0.598424 1
0 0.546867 1
0 0.614554 1
0 0.414991 1
0 0.733641 1
0 0.698251 1
0 0.294743 1
0 0.546442 1
0 0.365009 1
0 0.545958 1
0 0.570845 1
0.180035 1 0.819965
0 0.199643 1
0 0.741296 1
0 0.585003 1
0 0.447236 1
0 0.698228 1
0 0.545316 1
0 0.537019 1
0 0.541781 1
0 0.45674 1
0 0.41916 1
0 0.489045 1
0 0.553546 1
0 0.75555 1
0 0.492547 1
0 0.706307 1
0 0.689902 1
0 0.578487 1
0 0.907126 1
0 0.432803 1
0 0.708282 1
0 0.850825 1
0 0.285961 1
0 0.435795 1
0 0.476117 1
0 0.262994 1
0 0.685229 1
0 0.384131 1
0 0.874903 1
0 0.510655 1
0 0.431873 1
0 0.77244 1
0 0.235703 1
0 0.392429 1
0 0.477719 1
0 0.592965 1
0 0.579807 1
0 0.657519 1
0 0.445036 1
0 0.40179 1
0 0.656506 1
0 0.285465 1
0 0.545973 1
0 0.852274 1
0 0.0486585 1
0 0.715559 1
0 0.6413 1
0 0.643348 1
0 0.665413 1
0 0.678832 1
0 0.421737 1
0 0.378681 1
0 0.401181 1
0 0.806306 1
0 0.236313 1
0 0.373844 1
0 0.726927 1
0 0.741093 1
0 0.924659 1
0 0.937169 1
0 0.941855 1
0 0.421817 1
0 0.582342 1
0.224101 1 0.775899
0 0.350737 1
0 0.842103 1
0 0.467659 1
0.0295954 1 0.970405
0 0.970399 1
0 0.745562 1
0.0163278 1 0.983672
0 0.311161 1
0 0.450442 1
0.0856987 1 0.914301
0 0.750412 1
0.187879 1 0.812121
0 0.51438 1
0 0.944624 1
0 0.946625 1
0 0.827334 1
0.0183254 1 0.981675
0 0.686104 1
0 0.525567 1
0.311188 1 0.688812
0 0.711501 1
0.118841 1 0.881159
0 0.765257 1
0 0.514294 1
0 0.763762 1
0 0.980818 1
0 0.716429 1
0 0.77348 1
0 0.811571 1
0.277304 1 0.722696
0 0.64466 1
0.253599 1 0.746401
0 0.785305 1
0 0.551445 1
0 0.978509 1
0 0.456873 1
0 0.260457 1
0 0.757644 1
0 0.401151 1
0.293148 1 0.706852
0 0.82433 1
0 0.875628 1
0 0.434858 1
0.0264376 1 0.973562
0 0.991194 1
0 0.380109 1
0 0.5003 1
0 0.748463 1
0 0.583602 1
0.291563 1 0.708437
0 0.679057 1
0 0.798371 1
0 0.366977 1
0 0.924438 1
0 0.40752 1
0 0.220289 1
0.0152899 1 0.98471
0.057716 1 0.942284
0 0.586884 1
0 0.694133 1
0 0.385204 1
0 0.673152 1
0 0.488493 1
0 0.58806 1
0 0.355051 1
0 0.32867 1
0 0.599155 1
0 0.857695 1
0 0.327315 1
0 0.815432 1
0 0.570809 1
0 0.781493 1
0 0.340717 1
0 0.589213 1
0 0.521065 1
0 0.738048 1
0 0.783025 1
0 0.676767 1
0 0.464414 1
0.291661 1 0.708339
0 0.435809 1
0 0.454773 1
0 0.479069 1
0 0.547249 1
0 0.301378 1
0 0.538862 1
0 0.569325 1
0 0.537969 1
0 0.3694 1
0.0139938 1 0.986006
0 0.603096 1
0 0.489219 1
0 0.346451 1
0 0.447622 1
0 0.446052 1
0 0.798773 1
0 0.462322 1
0 0.61785 1
0 0.912428 1
0 0.820672 1
0 0.624097 1
0 0.880362 1
0 0.41873 1
0.28875 1 0.71125
0 0.385041 1
0 0.677961 1
0 0.390223 1
0 0.635119 1
0 0.974045 1
0 0.77405 1
0 0.635646 1
0 0.188396 1
0 0.56072 1
0.00367824 1 0.996322
0 0.81774 1
0 0.842794 1
0 0.940728 1
0 0.290381 1
0 0.751865 1
0 0.410544 1
0 0.561519 1
0 0.473748 1
0 0.411573 1
0 0.897904 1
0 0.843893 1
0 0.615095 1
0.0591503 1 0.94085
0 0.385453 1
0 0.873323 1
0 0.548705 1
0 0.524756 1
0 0.526069 1
0 0.106773 1
0 0.833642 1
0 0.68705 1
0 0.666412 1
0 0.905745 1
0 0.325813 1
0.331055 1 0.668945
0 0.753756 1
0 0.905894 1
0 0.398383 1
0 0.722333 1
0 0.174035 1
0 0.671192 1
0 0.80256 1
0.00426191 1 0.995738
0 0.945444 1
0.313482 1 0.686518
0 0.576432 1
0 0.982746 1
0 0.481177 1
0 0.404599 1
0 0.242972 1
