# vtk DataFile Version 3.0
Particle simulation
ASCII
DATASET POLYDATA
POINTS 400 float
3.2759 0.121035 7.55946
2.20983 4.36347 2.02805
0.25464 3.37849 2.08074
2.29888 0.691336 0.600893
9.1172 2.13466 4.0928
10 1.01611 4.71886
8.61148 3.84856 1.74714
1.98132 4.63793 2.17845
6.21855 2.79539 1.40814
8.29861 0.383204 3.44174
2.03851 0.607821 0.879839
1.93726 2.05804 2.72267
3.46345 2.90851 3.95909
3.09813 0.57071 0.71596
8.917 2.37828 3.7767
8.06543 4.92132 9.4714
3.6153 5.16032 0.761768
1.94052 0.648234 3.19776
2.98563 9.5835 7.85579
8.31147 0.435444 3.40248
3.4553 0.106348 3.19631
4.49334 2.94558 8.73263
0.556066 4.36913 7.23839
8.59963 0.476336 3.7739
9.1483 6.95459 9.02499
3.31183 0.221677 1.59279
0 7.08871 7.80957
1.65326 0.33294 2.3233
5.12795 1.23704 5.28625
1.54362 1.02731 3.35402
8.65992 3.29753 2.54661
9.25483 0.222836 1.168
2.77536 2.04678 7.49239
8.61726 0.502755 3.71392
2.18314 2.04812 2.36468
2.06778 0.746424 0.900707
7.71931 0.777241 8.79449
2.75297 0.306036 1.859
5.67813 0.0390899 1.57443
1.8388 0.951906 0.611295
3.65628 0.191402 1.34269
7.6833 5.471 3.85105
5.01364 5.06575 4.89139
9.69339 4.011 3.68366
9.81695 0.251686 9.19799
5.43216 0.161519 1.67067
9.04898 1.76787 3.74119
2.31267 0.414219 0.433893
5.56318 0.507846 1.83092
6.33295 2.27053 2.18641
0.527381 2.7565 2.10185
7.63184 5.51358 3.80489
5.8343 1.11763 5.51567
8.66274 1.1154 3.58728
9.57521 0.211985 9.4938
5.52075 0.180035 1.66321
4.57286 0.3239 7.95112
2.15178 0.568452 0.812777
5.48857 0.490584 1.77323
0.47984 1.8236 8.5889
5.01878 0.444569 6.19359
4.87072 0.66545 5.60071
0.535879 0.644626 6.30542
8.29275 0.510775 3.38175
7.07864 0.822664 5.65999
9.0799 0.666835 6.54189
5.055 1.17745 4.89625
0.490935 2.9874 2.00795
5.4455 0.52171 1.82004
4.278 0.736661 8.4426
4.72562 0.193356 5.59686
2.3676 1.8571 2.72995
7.67353 0.578827 8.03367
8.27564 0.501633 3.37075
7.49701 0.510265 7.76703
5.13688 0.338571 7.99144
5.07659 1.18858 4.92943
4.2511 0.607091 8.13335
5.3632 0.778688 1.92362
5.81003 0.503075 8.3762
2.61674 0.352607 2.14708
1.73959 0.9468 2.83483
2.13873 2.10636 2.42034
2.75677 0.383501 2.22315
4.96415 0.643922 7.05945
5.18464 0.990263 8.35363
5.22817 0.418502 7.22092
5.12504 0.818613 1.86611
4.31491 1.98159 1.91488
9.48351 0.44424 1.26944
3.02996 0.469688 1.94648
2.51325 0.242536 1.28214
2.1324 2.73639 7.36865
2.7644 0.351332 2.24736
4.9494 0.621266 7.12431
5.20873 0.875838 8.43682
4.81064 0.7229 8.37347
2.31093 0.0162933 0.892202
5.4886 0.982054 7.79242
9.4707 0.444409 1.24613
2.97497 0.788586 2.24956
2.11605 0.628736 9.18793
1.90722 0.385866 1.63487
7.11517 0.984738 4.92511
9.52774 0.443982 0.339625
2.21038 0.582169 0.48444
4.98474 0.587694 6.7624
5.84708 0.550231 1.79931
5.56916 0.513879 1.80813
8.99444 0.127253 0.273055
0.602514 2.51109 2.51597
8.48159 0.97226 3.61496
2.23356 0.260704 1.24586
9.39707 0.366076 1.1031
2.04353 0.721005 0.665738
1.53592 0.17844 1.02919
4.17826 0.536693 8.42892
5.95112 0.587498 2.26975
5.58683 0.468997 1.71335
2.0354 1.23678 1.01566
2.85037 0.407596 1.97309
8.58735 3.34488 2.96558
4.14436 0.0249596 8.10379
4.84776 1.06335 6.02463
1.8577 0.17283 9.57045
1.85915 1.14622 3.03495
2.58754 0.462704 0.434396
8.46756 0.567274 3.42321
2.00733 2.46355 8.99083
2.89722 0.676083 2.7879
2.75268 0.319126 1.977
5.53773 0.895589 1.93849
5.26508 0.679375 6.86797
5.20437 0.780308 4.8716
5.00529 0.227906 7.88631
1.69864 0.30999 2.75179
6.8253 2.82548 1.92202
8.42713 0.575962 3.39966
4.62519 0.572429 8.79058
5.91234 0.681639 5.50836
2.33075 0.391731 1.57244
5.988 0.420426 5.55872
1.68697 0.946934 4.16052
4.00101 0.249421 1.26513
3.02073 0.267701 1.94909
2.39868 0.480245 0.419135
9.32052 0.299938 9.51558
1.88713 0.288576 2.35674
2.08306 0.216682 0.661937
2.27163 0.443809 2.45275
2.33317 0.385562 1.57731
6.05903 0.701061 5.54029
2.30509 1.49923 2.75337
4.90882 0.758932 6.37551
2.03568 0.691528 0.526078
2.08814 0.342467 0.451528
9.57655 0.291721 9.1224
2.72358 0.425086 2.12835
6.07017 0.914629 5.38864
1.60163 0.162004 1.31105
2.19638 0.29739 1.64949
0.400523 2.74434 1.90414
5.38483 0.352554 7.17048
1.40754 0.795379 3.10034
0.49383 2.65232 2.12014
6.01602 0.856025 5.40963
3.97278 0.729589 8.46782
3.88519 0.220259 8.63442
6.43443 1.80315 8.54278
0.777189 9.14125 0.62797
1.77276 0.70956 1.11925
2.43677 0.549795 0.721689
5.0158 0.285411 7.52958
2.08521 2.02358 2.86625
1.92811 0.365751 2.65997
2.71745 0.444709 0.76903
4.49155 0.569308 8.53645
4.46002 0.683806 8.70217
4.93728 0.637626 8.33904
2.78231 1.47905 0.888482
2.73954 0.281289 2.34078
1.56361 0.950307 3.02292
6.25586 2.03296 8.61951
2.23976 1.98488 2.5738
5.59614 0.554727 7.57639
2.41824 0.319607 1.80336
2.04242 0.816367 1.37283
2.21948 2.58615 7.51371
3.21548 0.244821 1.49686
2.86869 0.105912 1.71309
2.7253 0.313364 2.33182
2.01193 0.181347 0.510056
5.0387 0.486228 7.30916
2.06881 2.82188 0.834155
3.99978 2.21243 8.37058
2.8558 0.462705 1.73597
2.78852 0.443244 1.50127
0.187917 4.48409 6.22087
1.945 0.85763 2.89924
1.56868 1.2262 2.87838
3.15142 0.263146 2.09705
5.47019 0.479044 1.81548
7.68736 0.816496 8.88647
4.63791 0.598357 5.99645
4.33649 0.47215 7.49669
3.95978 0.586777 8.41106
2.12997 0.0357033 1.71624
2.18564 0.391984 2.83729
2.81899 0.771964 1.11517
9.53452 0.421125 1.24017
2.47776 0.340337 1.64939
5.03457 0.349349 1.52678
5.78146 0.18648 8.09208
5.99038 0.666216 5.08545
4.34204 0.483457 7.20881
3.92816 0.559549 8.37358
2.14784 0.0463118 1.68069
1.73716 0.730877 1.23444
1.84735 0.579087 2.78151
9.41689 0.450092 1.15674
9.16358 4.73957 4.47316
0.13106 0.158972 7.58974
5.14843 0.785777 7.21168
2.93621 0.479371 2.35748
3.82081 0.670958 8.19952
1.79253 0.102173 2.81989
9.33127 1.63244 3.18388
2.6734 0 1.55136
2.27913 0.178358 1.8951
5.05346 0.915133 6.26766
8.60805 0.95997 3.53376
4.1005 0.605981 8.2138
9.6376 0.304253 9.23218
2.74926 0.383038 2.25759
5.04547 0.630809 7.3524
2.96335 0.150625 0.138646
9.48633 0.472333 9.2039
2.93279 0.103432 2.3593
2.88781 0.61168 1.06221
1.81624 1.14132 2.72766
1.93606 0.485661 1.54139
2.31023 0.558602 2.62642
2.00301 0.0523141 1.4748
2.81318 0.390535 2.04743
4.41267 0 7.99916
1.33262 0.858931 2.6712
1.57575 0.222793 1.29093
4.28929 0.252104 8.35537
5.48673 0.45073 1.93982
4.23502 0.324682 8.33518
2.00562 0.23514 1.59818
5.88526 0.873323 2.11338
4.38358 0.14794 8.35476
3.04354 0.418706 2.67286
9.86123 0.428952 9.32045
2.52999 0.297363 2.45376
9.56775 0.35628 1.4428
5.00715 0.734066 8.50271
5.51317 0.463357 1.95129
4.24304 0.348103 8.32403
2.34033 0.591058 2.29331
8.6669 4.72825 4.39672
4.49778 0.509767 6.0591
7.99815 0.522749 3.41817
4.55322 0.240777 8.37972
2.34713 0.0369354 1.0936
9.8327 0.316718 2.75419
4.66141 0.403146 8.02392
9.75898 0.185074 9.10452
1.93808 0.804188 0.977307
2.53035 0.451691 1.775
9.0624 4.52918 4.39861
2.21468 0.688863 2.50938
7.95591 0.909214 3.64705
3.8815 0.502683 8.32708
5.10832 0.777586 6.55866
8.90064 0.579265 3.29698
6.7809 7.78601 9.41435
9.90531 0.416494 9.34567
2.86439 0.483398 2.35503
9.44231 0.64261 0.112078
5.62107 0.605415 1.92485
5.25355 0.342602 1.83136
8.33824 0.291461 3.25053
7.55137 0.683906 9.07927
7.18869 0.376092 8.41385
1.8517 1.09944 2.77318
1.82846 0.805127 0.42735
6.20131 0.603599 5.75782
7.51102 0.277318 8.27101
9.37638 0.61473 0.253155
5.58641 0.272567 1.79083
2.21899 0.676816 1.76638
8.3758 0.376451 3.49615
4.38464 0.307645 8.07478
4.3059 0.886853 8.37319
2.3977 0.597302 0.476195
2.27169 2.03206 2.18772
2.39844 0.491359 2.46916
1.78436 0.442441 2.84833
9.04155 0.191087 0.514176
6.13835 0.768654 5.4325
1.4866 0.0476963 0.863952
5.62734 0.0452265 1.27369
1.71176 0.719528 2.97773
5.42295 0.265282 2.12411
3.1716 0.0408685 2.42767
3.22355 0.118241 2.48232
1.49948 0.710944 2.99919
1.99145 0.493865 1.86854
7.90257 0.829372 3.49669
6.11262 0.639249 5.71912
9.82927 0.360892 9.21458
2.88775 0.503714 1.50472
1.58287 0.556541 3.05545
9.86448 0.313047 2.63983
2.73558 0.740859 0.701077
6.00274 0.906146 4.96065
5.77773 0.248687 1.77226
2.53087 0.630758 2.45576
4.61317 0.403359 6.33984
2.36737 0.598589 2.50854
4.33363 0.104809 8.18125
2.6759 0.264348 1.8935
9.32652 0.569316 1.14185
9.47894 0.00449635 1.39703
2.99954 0.686706 2.15767
5.69457 0.784387 1.91932
9.01217 0.273745 1.23029
1.8933 0.233655 1.43216
4.5444 0.538604 6.42275
3.15173 0.444445 2.274
4.10099 0.0949194 8.38975
2.65572 0.193757 2.03204
9.58031 0.107993 1.46984
4.94514 0.379023 6.1761
2.37527 0.389414 1.66606
1.93304 0.903566 2.93974
9.20477 0.170488 1.45439
3.19444 0.497729 2.11924
5.18486 0.597181 6.62773
2.9418 0.113607 2.47923
5.22053 0.791559 7.27202
4.75439 0.50436 5.99221
2.70532 0.362768 1.82574
2.38402 0.691247 0.654912
5.57289 0.63734 1.7664
2.85405 0.595062 2.41347
2.32197 0.524037 0.684626
2.12365 0.951356 0.656076
2.29226 0.373518 1.6559
2.06086 0.235972 1.58522
5.24561 0.678657 7.35975
4.77669 0.49816 6.01487
2.35787 0.484623 1.66037
1.66742 0.26827 1.5072
5.80396 0.627385 2.36671
4.50395 0.134732 7.95
2.64465 0.720052 0.633505
2.11104 0.860444 3.04164
5.38238 0.360408 1.45261
6.11527 0.528983 5.48652
4.45927 0.263556 8.02905
2.61035 0.511296 1.78629
2.75136 0.626761 0.48041
9.39616 0.327455 9.28882
3.98492 0.744506 8.31139
3.71056 0.677978 8.32274
4.23371 0.810577 8.15427
2.21869 0.752458 3.20309
5.35337 0.368908 1.42538
6.06358 0.494754 5.46398
5.35315 0.374455 7.40513
2.75751 0.778676 0.398593
3.60405 0.673495 2.6352
9.3982 0.33076 9.08824
3.89157 0.440786 8.24537
4.43318 0.293187 8.65841
4.23394 0.397469 7.91009
2.10227 0.304484 0.814132
2.5287 0.781909 0.523119
2.65237 0.303704 2.36747
4.40892 0.517845 8.09808
2.80271 0.282576 2.33385
8.64993 0.298262 3.61451
4.85105 0.182254 7.56945
1.8971 0.597152 2.69479
2.56942 0.258759 1.81983
7.9705 0.328318 3.41398
5.42412 0.436216 2.36164
2.56022 0.779794 0.484207
2.63475 0.277473 2.15683
4.38167 0.4886 8.18279
2.70799 0.327006 2.00476
8.62321 0.330757 3.61834
5.15021 0.850572 7.49189
1.86768 0.579574 2.64553
2.47543 0.426295 2.58303
9.47065 0.082909 1.56486
5.41081 0.409914 2.34959
POINT_DATA 400
SCALARS particleColor float 3
LOOKUP_TABLE default
0.237498 1 0.762502
0.226421 1 0.773579
0 0.249182 1
0 0.486233 1
0 0.266643 1
0.741341 1 0.258659
0 0.486457 1
0.0234385 1 0.976561
0 0.518055 1
0 0.692177 1
0 0.36449 1
0 0.563137 1
0.0960539 1 0.903946
0 0.500268 1
0 0.851251 1
0 0.491206 1
0 0.388283 1
0 0.796829 1
0.540245 1 0.459755
0 0.367721 1
0 0.376551 1
0.156755 1 0.843245
0.140976 1 0.859024
0 0.479388 1
0 0.984421 1
0 0.590247 1
1 5.96046e-08 0
0.138618 1 0.861382
0 0.519639 1
0 0.378068 1
0 0.515388 1
0 0.750211 1
0 0.467273 1
0 0.540731 1
0 0.8752 1
0 0.577638 1
0 0.703752 1
0 0.289514 1
0 0.863748 1
0.0706849 1 0.929315
0 0.759856 1
0 0.500255 1
0 0.508949 1
0 0.630293 1
0 0.651916 1
0 0.29176 1
0 0.821593 1
0 0.792379 1
0 0.382579 1
1 5.96046e-08 0
0 0.889192 1
0 0.736239 1
0 0.414845 1
0 0.689222 1
0 0.839941 1
0 0.168117 1
0 0.25342 1
0 0.4918 1
0 0.218725 1
0 0.718564 1
0 0.689223 1
0 0.230823 1
0.376538 1 0.623462
0 0.397993 1
0 0.527091 1
0.190147 1 0.809853
0 0.529308 1
0 0.290715 1
0 0.875204 1
0 0.080501 1
0 0.668375 1
0 0.788853 1
0.268393 1 0.731606
0 0.566862 1
0 0.636399 1
0 0.784266 1
0 0.637412 1
0 0.699035 1
0 0.320596 1
0 0.462573 1
0 0.639443 1
0 0.950899 1
0 0.824969 1
0 0.322264 1
0 0.321993 1
0 0.349064 1
0 0.614457 1
0.2286 1 0.7714
0 0.181832 1
0 0.278954 1
0 0.205034 1
0 0.577022 1
0.165842 1 0.834158
0 0.25519 1
0 0.345334 1
0 0.261248 1
0 0.442861 1
0 0.269997 1
0 0.623647 1
0 0.351172 1
0 0.487271 1
0 0.597013 1
0 0.541673 1
0 0.843288 1
0 0.585371 1
0 0.530391 1
0 0.581464 1
0 0.56923 1
0 0.186736 1
0 0.312696 1
0 0.226626 1
0 0.759928 1
0 0.597789 1
0 0.668297 1
0 0.486809 1
0 0.339059 1
0 0.422793 1
0 0.370648 1
0 0.111951 1
0 0.631621 1
0 0.317957 1
0 0.703374 1
0.0139666 1 0.986033
0 0.826526 1
0.171789 1 0.828211
0 0.190933 1
0 0.864437 1
0 0.798859 1
0 0.556836 1
0 0.788348 1
0 0.324439 1
0 0.486323 1
0 0.715039 1
0 0.549723 1
0 0.839117 1
0 0.655321 1
1 5.96046e-08 0
0 0.728808 1
0 0.417688 1
0 0.423014 1
0 0.641192 1
0 0.966468 1
0 0.615497 1
0.00866128 1 0.991339
0 0.366102 1
0 0.487239 1
0 0.870264 1
0 0.23651 1
0 0.674358 1
0 0.989675 1
0 0.668846 1
0 0.693404 1
0 0.780901 1
0 0.798357 1
0 0.937383 1
0 0.290822 1
0.205041 1 0.794959
0 0.770665 1
0 0.718993 1
0 0.600219 1
0 0.863394 1
0 0.661643 1
0 0.619433 1
0 0.452139 1
0 0.824348 1
0 0.349596 1
0 0.696987 1
0 0.417354 1
0 0.723579 1
1 0.0983749 0
0 0.932414 1
0 0.794577 1
0 0.835679 1
0 0.485791 1
0 0.659609 1
0.0654302 1 0.93457
0 0.365218 1
0 0.28876 1
0 0.387299 1
0.0467504 1 0.95325
0 0.333345 1
0 0.499702 1
0.201132 1 0.798868
0 0.836902 1
0 0.412211 1
0 0.821737 1
0 0.366761 1
0 0.418084 1
0.174038 1 0.825962
0 0.382189 1
0 0.314874 1
0 0.837207 1
0 0.30585 1
0 0.454115 1
0 0.218583 1
0 0.710701 1
0 0.54801 1
0 0.797498 1
0 0.505316 1
0 0.345604 1
0 0.713063 1
0.0247236 1 0.975276
0.326533 1 0.673467
0 0.510745 1
0 0.599374 1
0 0.358956 1
0 0.473347 1
0 0.975117 1
0 0.505798 1
0 0.59176 1
0 0.7524 1
0 0.367602 1
0 0.725307 1
0 0.51777 1
0.0261448 1 0.973855
0 0.160535 1
0 0.407228 1
0 0.947975 1
0.159649 1 0.840351
0 0.526257 1
0.189012 1 0.810988
0 0.864299 1
0 0.567901 1
0 0.611793 1
0 0.420011 1
0 0.737775 1
0 0.513728 1
0 0.393176 1
0 0.648633 1
0 0.750831 1
0 0.592641 1
0.161004 1 0.838996
0 0.896453 1
0 0.498081 1
0 0.338118 1
0 0.767275 1
0 0.891272 1
0.497782 1 0.502218
0 0.770345 1
0 0.736283 1
0 0.198983 1
0 0.751551 1
0 0.430443 1
0 0.933765 1
0 0.665114 1
0 0.775977 1
0 0.726857 1
0 0.851759 1
0 0.821524 1
0 0.354818 1
0 0.597527 1
0 0.974001 1
0 0.435513 1
0 0.78678 1
0 0.743819 1
0 0.542004 1
0 0.678932 1
0 0.523376 1
0 0.763342 1
0 0.23059 1
0 0.686179 1
0 0.247615 1
0 0.504095 1
0 0.981979 1
0 0.960276 1
0.535827 1 0.464173
0.295313 1 0.704687
0 0.92669 1
0 0.97524 1
0 0.881509 1
0.0557206 1 0.944279
0 0.94329 1
0.112749 1 0.887251
0 0.982939 1
0 0.933118 1
0 0.546036 1
0 0.845354 1
0 0.95349 1
0 0.640378 1
0 0.543698 1
0 0.583925 1
0 0.562577 1
0.0262765 1 0.973723
0 0.704733 1
0 0.514757 1
0 0.681915 1
0 0.613356 1
0 0.462473 1
0 0.593932 1
0.481822 1 0.518178
0 0.793968 1
0 0.770017 1
0 0.851465 1
0 0.598089 1
0.0666223 1 0.933378
0 0.675844 1
0 0.710003 1
0 0.434705 1
0 0.58841 1
0 0.646602 1
0 0.597047 1
0 0.660769 1
0 0.987957 1
0 0.298508 1
0 0.645904 1
0.117743 1 0.882257
0 0.790363 1
0 0.152966 1
0.0647721 1 0.935228
0 0.804656 1
0 0.721361 1
0.045333 1 0.954667
0 0.397204 1
0 0.992416 1
0 0.679727 1
0 0.483233 1
0 0.924641 1
0.113574 1 0.886426
0 0.275652 1
0 0.684543 1
0.194142 1 0.805858
0 0.480119 1
0 0.579906 1
0 0.890463 1
0 0.566783 1
0 0.957154 1
0 0.780116 1
0 0.855121 1
0 0.364984 1
0 0.617866 1
0.0892533 1 0.910747
0 0.547625 1
0 0.436219 1
0 0.703645 1
0 0.653914 1
0.0585761 1 0.941424
0 0.742285 1
0 0.514679 1
0 0.857074 1
0.178841 1 0.821159
0 0.516938 1
0 0.621964 1
0 0.428046 1
0 0.234978 1
0 0.572501 1
0 0.493094 1
0 0.655226 1
0 0.92089 1
0 0.649012 1
0 0.766882 1
0.288001 1 0.711999
0 0.292657 1
0.154693 1 0.845307
0 0.154513 1
0 0.40972 1
0 0.632729 1
0 0.562965 1
0 0.812709 1
0 0.441494 1
0 0.600675 1
0 0.510232 1
0 0.541168 1
0.200544 1 0.799456
0.0523396 1 0.94766
0.292295 1 0.707705
0.116202 1 0.883798
0 0.523784 1
0 0.523719 1
0 0.585718 1
0 0.984166 1
0 0.623608 1
0 0.362166 1
0 0.585345 1
0 0.425335 1
0 0.472389 1
0 0.583875 1
0 0.753212 1
0 0.208153 1
0 0.744583 1
0 0.786409 1
0 0.0983683 1
0 0.350367 1
0 0.988522 1
0 0.576342 1
0 0.65897 1
0 0.499161 1
0 0.925725 1
0 0.507764 1
0 0.962072 1
0 0.176231 1
0 0.0687401 1
0 0.418206 1
0 0.760774 1
0 0.829951 1
0 0.552271 1
0.0532171 1 0.946783
0 0.915245 1
0 0.862982 1
0 0.838915 1
0 0.218754 1
