# vtk DataFile Version 3.0
Particle simulation
ASCII
DATASET POLYDATA
POINTS 400 float
5.36967 1.45973 1.74225
5.31529 0 6.57419
1.015 0.558355 4.22792
9.16733 0.102572 7.4968
8.28761 0.817813 5.28748
7.21049 0.287966 4.12687
9.7736 4.52045 7.18853
2.19908 9.22145 4.30051
9.7301 0.550296 1.76821
8.72789 5.94941 3.62058
8.31303 1.40357 0.676511
2.85536 7.41511 0.238815
9.77225 1.61471 0.560148
9.1933 4.58148 1.25601
1.99527 2.28074 6.64379
0.517919 3.60223 0.132596
7.83389 0 1.88058
4.46222 0.594855 3.60181
7.37311 9.46642 9.30167
6.72387 6.39206 3.68428
1.48917 1.38145 0
0.931929 9.24027 0.33245
8.76117 1.08175 0.617872
0.469119 2.05818 3.74438
7.66556 9.95271 5.29302
6.57132 2.77056 8.8182
8.70932 4.04313 1.88906
9.48435 7.96829 0.296393
6.88314 1.81335 6.1553
1.82181 0.800956 7.95683
5.63723 6.30881 5.56443
8.5936 0.0833903 2.28726
3.03526 9.92937 8.43079
1.633 7.2848 9.17501
8.49985 5.06608 6.72027
6.19864 9.15577 3.1804
3.8732 5.43516 9.20165
7.64345 0.362192 0
0.74227 5.00389 8.6265
2.98655 9.10232 2.46382
10 3.7359 8.46901
9.85828 10 2.78784
6.63176 3.81565 8.88013
6.42711 4.09796 3.06877
3.57919 9.65101 8.89143
7.0729 1.94307 6.74042
8.83977 1.00485 5.91163
1.62883 3.92279 3.66863
3.27867 1.7986 2.97685
3.14891 7.79045 8.35402
5.85874 4.55673 8.97237
6.95898 8.45108 5.458
1.33433 3.54544 8.07963
4.90831 9.03131 3.06565
6.99869 3.28394 8.91099
1.6763 3.55193 0.285311
5.99585 0.397395 6.01983
1.8503 1.71566 8.88832
0 7.99098 2.34676
6.7472 5.84506 5.87234
2.99691 4.60401 1.29188
7.41291 0.959891 5.19657
0.803198 5.0765 7.19963
5.1914 7.85907 8.65365
2.5575 4.67479 1.64121
7.62087 1.09667 9.26195
9.60944 3.21851 0.47769
1.23362 4.6824 4.91234
1.23205 2.1197 8.63272
0.0972729 5.40149 0.454592
8.25373 3.63245 0.709117
7.10383 7.53832 4.82774
6.2393 6.60254 6.96659
1.65751 3.62516 8.45545
3.8583 0.628926 10
8.2415 0.681388 5.0069
8.44776 2.66468 9.35062
3.72259 0.795206 6.13897
0.0686761 1.83802 9.03561
5.54082 0.410278 1.728
3.90632 5.39553 7.82334
3.24549 5.21246 6.79432
3.78614 9.39717 3.97239
6.56527 8.33935 0.421088
0.887445 5.04995 8.78453
9.05384 4.33504 5.29711
2.5557 9.62479 7.66903
0.093179 3.06989 8.13546
1.49791 4.67857 5.35927
9.31819 6.52936 8.23466
4.55406 0.334933 4.49696
8.72003 7.90016 6.18024
3.87521 0 5.1217
2.50609 3.49361 6.00033
5.05195 6.18537 1.30251
2.39688 6.12954 7.82732
3.93189 6.27488 3.13052
5.89725 0.251208 3.13422
2.78029 6.87094 6.52823
2.25712 10 6.35915
1.81643 2.85812 4.77471
9.70138 6.70765 3.26946
6.73815 2.53201 2.85741
4.74777 1.29349 0.623285
4.46889 2.92723 3.13886
0.961803 9.7263 5.39679
4.89268 6.69569 9.47647
0 5.40999 0.52114
5.83749 2.93699 8.11469
5.75624 7.75134 3.49461
1.3783 8.52783 8.17801
8.96517 2.33735 8.95013
1.10393 7.79891 1.51367
8.62934 2.52611 7.97203
2.40766 3.06453 4.91311
6.60008 3.02093 3.32376
2.36252 3.05578 3.03643
3.23707 7.91262 4.18891
0.999781 1.80386 8.9043
3.73145 9.26161 1.07251
2.9684 7.37288 0.378346
4.7321 9.37067 3.12141
3.6388 9.68602 9.05033
2.4339 1.91965 0
5.47561 0.960348 4.11752
3.15254 0.800326 8.29921
4.21096 6.73662 3.14282
8.58027 7.27023 9.4283
7.23136 6.025 8.79474
10 1.08674 0.319279
4.90604 5.82388 3.46417
8.78763 9.54961 1.25923
8.60847 5.57005 7.73727
2.83214 10 2.63437
9.61398 5.36483 6.55484
0.742182 3.6778 1.7232
4.4473 9.57313 0.754555
3.94537 0.393323 7.45566
8.67203 8.07127 7.86554
9.76327 5.34593 2.84339
4.83636 0.350147 3.31319
8.63941 10 5.85375
9.12616 8.73459 6.0071
5.30707 1.02259 0.243232
5.95495 9.1116 7.98266
6.36164 0.674306 3.21209
8.09268 4.03803 1.67644
0.721717 0.62447 2.44201
7.14797 6.97602 1.01792
6.6807 0.789176 8.24642
4.88795 0.263986 3.75503
4.48874 6.71898 3.87125
8.1759 4.11286 0.273231
3.51054 0.552844 8.68441
5.23046 7.53064 8.45722
2.57123 4.17764 7.74661
6.3569 5.95746 7.98189
5.80376 8.65476 5.79934
4.10459 7.36597 3.63283
9.57734 4.42855 1.21145
2.95896 4.85693 7.25972
5.82125 1.03593 3.88352
4.14568 5.44921 5.08486
6.35226 6.33586 8.06198
4.05619 6.07549 0.889139
3.04541 7.85458 1.75984
8.41324 1.56827 9.46351
1.29943 9.75146 9.29284
0.338353 5.2973 8.80836
4.41404 4.84655 5.98032
9.2288 6.52334 5.60792
4.55882 2.30997 3.23525
0.722963 9.61784 4.27161
7.63607 0.273657 6.65325
0.523459 6.90923 3.52557
2.94714 2.3515 4.04112
8.5949 2.67696 2.72438
4.09887 6.33543 6.60802
10 5.53169 2.85799
2.34969 5.56105 8.9662
2.39481 0.150126 2.42079
9.27154 2.85252 2.47722
0.364602 5.53084 0.6225
0.764001 1.89972 7.9459
7.27904 0.651156 9.39084
3.47755 0.134768 1.51583
4.82645 0.333266 3.7824
6.87484 9.34959 8.19753
5.16172 3.94014 8.30511
6.5351 0.347315 5.83792
5.80826 0.531359 6.02562
5.43756 0 3.52947
0 6.68827 0.97571
7.99257 7.71077 5.63971
1.06278 3.15461 2.89046
3.79197 7.44904 8.49194
3.90331 1.15445 0.16751
9.67132 2.69648 1.28839
9.6688 2.12301 0.661604
3.89943 0.0537733 3.71377
4.95028 0.288983 3.981
0.0172214 7.18355 5.13317
5.03199 9.35688 0.486429
2.79609 4.90014 1.63434
0.151443 6.34089 3.92956
9.40699 5.83832 1.03113
5.6989 1.05649 8.42214
2.72619 5.59851 9.60215
0.137397 0 7.46539
8.55938 1.46739 1.96426
4.84054 0.412219 3.81418
4.66056 0.393917 3.85355
0.421754 6.60123 0.480634
1.29815 5.41732 5.77027
3.31243 3.93714 6.56287
1.76042 8.03024 1.29549
4.95768 0.275006 3.73644
7.02222 6.47376 4.81657
5.91154 2.4498 9.36376
0.0385113 7.91156 2.02586
7.22161 9.29023 9.60576
1.96369 6.88257 7.07811
2.75017 1.63052 3.93789
4.73118 0.240775 3.97383
3.46039 1.87862 1.2758
8.45355 4.86986 6.22992
9.52114 5.37806 4.7785
4.50262 0.548919 4.1942
4.65386 0.55329 3.41527
10 10 5.27621
2.46347 4.00887 9.54976
4.51461 8.94549 1.91489
0.529927 0.337063 6.73011
4.71121 0.273289 4.49404
1.70482 0.489963 7.96869
1.06786 6.8329 5.81217
1.11567 6.31145 2.3261
9.52468 6.54621 8.91936
4.79315 0.349464 3.68388
2.18763 2.88699 5.46555
4.91014 0.374294 4.36143
7.42939 0.0948079 0.0873421
3.08805 0.32656 6.57851
9.85771 0.466398 0.16601
7.34973 2.15677 3.04846
7.72444 3.15714 0.883536
8.36804 10 0.880927
3.74892 8.61613 1.67505
6.43917 9.43837 7.52801
4.77811 1.18041 1.23103
4.74712 0.102273 3.9588
1.36951 2.19321 8.69039
4.03695 6.66598 6.31323
2.89211 0.774436 0.524999
8.61216 6.1044 1.81652
1.36791 4.62102 1.43286
2.99762 1.84747 6.24556
2.06888 0.511014 7.8044
0.107866 9.6891 5.15879
4.01016 2.79134 8.30675
2.25572 9.13637 3.02953
2.45638 0.392204 4.77866
3.54708 9.20575 2.02971
8.71161 5.08935 5.52588
5.77901 1.80557 3.542
7.25214 5.81717 2.18731
1.42383 2.63247 0.354584
1.43365 0.562245 8.17379
0.450978 3.157 2.61809
5.82771 5.46462 2.07484
4.59437 0.579918 3.33488
3.53616 7.522 0.709892
3.4985 6.56916 4.31493
9.82455 3.40826 1.24738
3.84009 8.5773 7.58715
5.6581 0.360595 7.64745
4.0215 6.89075 7.98904
9.48716 5.4687 9.86266
2.59737 8.08143 6.99953
4.46344 0.349563 3.78284
4.6446 6.70911 3.10991
9.53085 0.235367 2.06835
0.623637 5.64128 7.40721
1.29187 3.09671 7.37516
8.94754 0 7.74671
6.82406 8.21688 9.30465
4.8768 0.36604 3.42526
7.70786 6.76786 2.00022
3.1118 3.91716 0.608567
9.80889 3.81705 8.20608
6.70485 9.56837 7.20356
0.282083 9.939 7.44181
8.39998 8.91782 7.8489
7.04509 1.40521 0.319818
4.82721 0.368778 5.86054
1.67628 0.396534 7.62596
4.64818 0.0659605 3.30931
4.77305 0.569907 3.38084
5.04194 0.622711 4.30189
4.53123 0.439262 3.60058
7.52114 9.70968 6.31338
5.33517 1.23975 4.54351
4.17908 0 3.17073
3.71458 5.1732 3.47093
4.98461 0.645739 3.54201
2.85181 9.86895 8.49569
4.64204 0.903321 3.33494
4.83351 0.243286 3.64881
4.02268 9.58756 0.761729
5.61297 7.27341 6.82814
8.14204 7.54799 0.980352
6.59163 3.73514 4.41001
8.07061 6.74355 0.379569
4.87722 0.287888 3.11838
8.47353 0.0226579 9.29546
8.51669 7.9138 1.54771
8.71299 2.97541 3.20742
1.34624 4.21954 9.3206
4.16179 1.77121 6.23775
0.518667 2.95183 2.80896
2.21546 0.394336 7.84088
3.58015 9.06498 7.31143
1.91588 0.266901 7.86639
4.63244 0.594085 3.25363
3.33044 0.0876133 3.44707
7.77818 9.06431 10
4.87086 0.23952 4.00917
4.55624 1.51581 1.60318
9.71445 4.92925 5.09256
4.63699 0.369033 3.58955
1.32397 0.541709 9.38028
2.11872 2.62133 3.32461
5.98738 6.66073 3.81522
5.80061 6.35565 4.09967
9.47406 0.6428 2.09454
9.24096 4.97373 6.84257
2.69254 9.72478 7.33616
4.6771 0.561579 3.42763
4.9629 5.3038 4.18862
7.23117 0 7.04034
6.56374 9.26786 4.49729
9.17857 9.61103 7.01468
1.75456 0 8.47426
1.90964 0.408505 7.91747
4.45645 0.696279 3.42149
4.40448 0.249302 3.02195
9.28753 1.25658 0.0133089
4.60308 0.0584832 3.77279
4.66111 0.10786 3.86211
8.52754 0.119661 3.05991
4.35016 0.373014 3.56604
4.89735 0.149911 3.67446
3.15977 3.61156 9.28843
5.24302 6.0242 10
2.34037 2.9254 5.2103
4.80464 0.394718 3.52757
9.13364 3.24642 8.71831
8.6448 7.66109 6.49947
4.85944 0.240905 3.81066
4.77549 0.684874 3.89419
9.29945 1.13729 2.58165
1.78237 0.558472 7.87896
1.67707 0.469442 7.73041
4.43407 0.893395 4.00106
4.80029 0.145963 4.00988
9.1923 1.1458 2.17506
1.44744 0.534049 7.5785
3.1752 6.95787 5.81212
1.95426 0.52124 7.94566
2.92167 6.77732 3.45445
9.65068 0.396191 1.66199
0.853685 8.95374 1.59789
3.72439 9.85325 9.89411
4.03954 0.177497 3.70342
4.82938 0.449708 3.58517
9.23981 0.426053 2.16285
1.78386 0.474091 7.73399
1.973 0.104515 7.60956
1.11648 1.61469 7.01636
4.04782 0.512112 3.37915
4.80407 0.471888 3.90057
4.91894 0.125875 3.94962
2.80153 6.1254 9.63318
4.68656 0.402104 3.34465
6.20573 8.75967 5.98824
1.80737 0.441081 7.56711
4.68043 0.502131 3.47412
4.97359 0.378133 3.8993
0.638977 8.7262 9.31821
8.203 0.865293 7.51632
4.54951 0.930923 3.35082
4.24508 0.464889 3.48239
1.43045 0.673576 7.60073
5.02328 0.197902 3.53949
9.32498 2.72789 4.01932
2.27445 0.523241 8.19744
4.39401 0.610514 3.59356
5.98312 4.17576 2.70139
5.18204 7.91357 1.8682
9.55475 0.266672 2.28827
POINT_DATA 400
SCALARS particleColor float 3
LOOKUP_TABLE default
1 0.448842 0
1 5.96046e-08 0
1 0.890902 0
1 0.0247996 0
0.545981 1 0.454019
1 5.96046e-08 0
0.884443 1 0.115557
1 0.382386 0
1 0.11826 0
1 5.96046e-08 0
1 0.0864396 0
1 5.96046e-08 0
1 0.39488 0
0 0.745811 1
1 5.96046e-08 0
1 0.188312 0
1 5.96046e-08 0
0 0.471085 1
1 0.727286 0
1 5.96046e-08 0
0 0.804881 1
1 5.96046e-08 0
1 0.953828 0
0.512854 1 0.487146
1 0.616204 0
1 5.96046e-08 0
1 0.242542 0
1 0.342537 0
1 5.96046e-08 0
0.534891 1 0.465109
1 0.0341744 0
0.166467 1 0.833533
0.279686 1 0.720314
0 0.47985 1
0 0.870238 1
0.70293 1 0.29707
0.604982 1 0.395018
0 0.867667 1
1 5.96046e-08 0
1 0.477043 0
0.149887 1 0.850113
0.612864 1 0.387136
1 5.96046e-08 0
1 5.96046e-08 0
0.0541332 1 0.945867
1 0.562143 0
0.648959 1 0.351041
1 5.96046e-08 0
1 0.081497 0
1 5.96046e-08 0
1 5.96046e-08 0
1 5.96046e-08 0
1 5.96046e-08 0
1 5.96046e-08 0
1 5.96046e-08 0
0.183735 1 0.816265
1 0.222727 0
0.64427 1 0.35573
1 5.96046e-08 0
0.407912 1 0.592088
1 5.96046e-08 0
1 5.96046e-08 0
0.740194 1 0.259806
0.234308 1 0.765692
1 0.851387 0
1 0.328939 0
0.552525 1 0.447475
0.654007 1 0.345993
0.288921 1 0.711079
0.0860538 1 0.913946
1 0.502491 0
0 0.750213 1
1 0.435189 0
0.866117 1 0.133883
1 5.96046e-08 0
1 0.563004 0
1 5.96046e-08 0
1 5.96046e-08 0
0.92133 1 0.0786698
1 0.0988151 0
1 0.85489 0
1 5.96046e-08 0
0.564234 1 0.435766
1 5.96046e-08 0
1 5.96046e-08 0
0.626172 1 0.373828
0.806971 1 0.193029
0.81698 1 0.18302
0.181288 1 0.818712
1 5.96046e-08 0
0 0.731842 1
0.199516 1 0.800484
1 5.96046e-08 0
1 0.305714 0
0.999077 1 0.000922799
1 5.96046e-08 0
1 5.96046e-08 0
0.511861 1 0.488139
0 0.934106 1
1 5.96046e-08 0
1 5.96046e-08 0
1 5.96046e-08 0
1 5.96046e-08 0
1 0.921538 0
1 5.96046e-08 0
1 0.860935 0
1 5.96046e-08 0
0.86604 1 0.13396
1 0.529976 0
1 5.96046e-08 0
1 0.657229 0
1 0.688703 0
1 5.96046e-08 0
1 5.96046e-08 0
0 0.655442 1
1 0.148515 0
1 5.96046e-08 0
1 0.728562 0
0.0408607 1 0.959139
0.297789 1 0.702211
0.980526 1 0.0194743
1 0.550381 0
1 0.69863 0
1 5.96046e-08 0
1 5.96046e-08 0
0.507029 1 0.492971
0 0.917778 1
1 0.0509063 0
0 0.95875 1
1 5.96046e-08 0
1 0.145926 0
1 5.96046e-08 0
1 5.96046e-08 0
0.452575 1 0.547425
1 0.366435 0
1 0.453785 0
1 5.96046e-08 0
1 0.314271 0
1 0.756327 0
0 0.76287 1
0 0.39254 1
0.688477 1 0.311523
0.921857 1 0.0781429
1 5.96046e-08 0
0.792418 1 0.207582
0.740487 1 0.259513
0.618193 1 0.381807
0.306293 1 0.693707
0.616312 1 0.383688
0.36591 1 0.63409
0 0.124739 1
0.787654 1 0.212346
1 0.170816 0
0.687318 1 0.312682
1 5.96046e-08 0
1 0.248288 0
0.80554 1 0.19446
0.632198 1 0.367802
1 5.96046e-08 0
1 0.692513 0
1 5.96046e-08 0
1 0.743704 0
1 5.96046e-08 0
1 0.104867 0
1 5.96046e-08 0
0.795905 1 0.204095
1 5.96046e-08 0
1 0.658284 0
1 0.224557 0
1 0.559731 0
1 5.96046e-08 0
0.79391 1 0.20609
0.625965 1 0.374035
0.0774634 1 0.922537
1 0.024289 0
0.232093 1 0.767907
1 5.96046e-08 0
1 5.96046e-08 0
1 5.96046e-08 0
1 0.99509 0
0.0177653 1 0.982235
1 0.541665 0
0.363903 1 0.636097
0.74141 1 0.25859
0.650206 1 0.349794
1 5.96046e-08 0
0 0.468608 1
0.0328295 1 0.96717
1 5.96046e-08 0
1 0.977926 0
0.357528 1 0.642472
0 0.576079 1
1 0.771245 0
1 0.782408 0
0 0.798349 1
1 0.0485135 0
0.453214 1 0.546786
0.360436 1 0.639564
0.586389 1 0.413611
0 0.523123 1
0 0.155727 1
1 0.954621 0
0.650988 1 0.349012
1 5.96046e-08 0
0.575116 1 0.424884
1 5.96046e-08 0
0.89443 1 0.10557
1 5.96046e-08 0
0.446828 1 0.553172
0.884712 1 0.115288
0 0.44731 1
0 0.438914 1
0.372544 1 0.627456
0.755971 1 0.244029
1 5.96046e-08 0
1 0.127322 0
0 0.724797 1
0.473125 1 0.526875
1 0.609894 0
1 5.96046e-08 0
0.377497 1 0.622503
1 5.96046e-08 0
1 5.96046e-08 0
0.00717053 1 0.992829
0.932393 1 0.0676066
1 0.1126 0
0.693982 1 0.306018
0 0.859324 1
0 0.498413 1
1 5.96046e-08 0
0.576799 1 0.423201
1 0.942881 0
0.788443 1 0.211557
0 0.679725 1
0 0.571182 1
1 5.96046e-08 0
1 5.96046e-08 0
1 0.779516 0
0 0.642188 1
1 5.96046e-08 0
0 0.333214 1
0 0.719697 1
1 5.96046e-08 0
0.653554 1 0.346446
0 0.864949 1
0.76268 1 0.23732
1 5.96046e-08 0
1 5.96046e-08 0
1 5.96046e-08 0
0.615327 1 0.384673
0 0.557327 1
0.580698 1 0.419302
1 5.96046e-08 0
1 0.385138 0
1 5.96046e-08 0
0.295913 1 0.704087
1 0.665833 0
0 0.36424 1
1 0.736463 0
1 5.96046e-08 0
1 5.96046e-08 0
1 0.152734 0
0.243695 1 0.756305
1 0.343876 0
1 5.96046e-08 0
1 5.96046e-08 0
1 0.979172 0
0 0.694878 1
1 0.83817 0
0.443055 1 0.556945
0 0.612854 1
0.622027 1 0.377973
0.516333 1 0.483667
0.208569 1 0.791431
1 0.0673805 0
0 0.808798 1
1 5.96046e-08 0
1 0.253143 0
1 5.96046e-08 0
0 0.613618 1
1 0.0753307 0
0 0.739595 1
0.707961 1 0.292039
1 5.96046e-08 0
1 5.96046e-08 0
1 5.96046e-08 0
0 0.583599 1
1 0.899033 0
0.301083 1 0.698917
1 0.504648 0
1 0.730637 0
0.642934 1 0.357066
1 5.96046e-08 0
1 0.728668 0
1 5.96046e-08 0
0 0.47219 1
0 0.493674 1
0 0.266766 1
0.0842072 1 0.915793
0 0.368993 1
1 0.109606 0
1 0.277196 0
0 0.369923 1
1 0.853018 0
0 0.721184 1
1 5.96046e-08 0
0 0.538717 1
0 0.304483 1
0.439858 1 0.560142
0.27169 1 0.72831
0.527198 1 0.472802
1 5.96046e-08 0
0 0.780157 1
0 0.641727 1
1 0.556618 0
0.500709 1 0.499291
0.737066 1 0.262934
0.748047 1 0.251953
1 5.96046e-08 0
1 0.149183 0
0 0.449462 1
1 0.396668 0
0 0.733911 1
0 0.432908 1
0 0.294594 1
1 5.96046e-08 0
0 0.709168 1
1 0.514545 0
1 0.891746 0
0 0.548738 1
0.0227885 1 0.977212
0 0.971473 1
1 5.96046e-08 0
0.977544 1 0.0224563
0 0.467486 1
1 5.96046e-08 0
1 0.424478 0
0 0.649749 1
1 5.96046e-08 0
1 0.946441 0
0.140096 1 0.859904
0.933392 1 0.0666078
0.0775273 1 0.922473
0 0.138213 1
0 0.655116 1
0 0.708768 1
0 0.771042 1
0 0.91478 1
0.426961 1 0.573039
1 0.943805 0
0 0.810111 1
0 0.821307 1
1 0.988282 0
1 5.96046e-08 0
0 0.73815 1
0 0.816735 1
0 0.723549 1
1 0.095591 0
0.0398406 1 0.960159
0 0.561049 1
0 0.401959 1
0 0.492488 1
0 0.372811 1
0 0.978272 1
0 0.727011 1
0 0.685357 1
0 0.71459 1
0 0.875818 1
0 0.318283 1
1 0.677207 0
0 0.805091 1
0 0.843762 1
1 5.96046e-08 0
0 0.562161 1
0.065041 1 0.934959
0 0.608305 1
0.00586618 1 0.994134
0 0.989393 1
0.576943 1 0.423057
0 0.285174 1
0.0805093 1 0.919491
0 0.652827 1
0.248562 1 0.751438
0 0.750326 1
1 0.677333 0
0 0.834427 1
0 0.470407 1
0 0.635632 1
0.572105 1 0.427895
0.914288 1 0.0857124
0 0.699834 1
0 0.342978 1
0 0.910134 1
0 0.604709 1
1 5.96046e-08 0
0 0.599398 1
0 0.565326 1
0 0.875994 1
1 0.41438 0
0 0.798862 1
