# vtk DataFile Version 3.0
Particle simulation
ASCII
DATASET POLYDATA
POINTS 400 float
6.33825 0.930607 9.12133
8.54818 5.56945 8.5006
0.530925 1.32912 7.04067
3.94343 0.364036 2.38496
8.77761 0.527247 5.07138
4.71629 4.39288 1.60893
3.84367 0.627886 1.07395
7.75577 2.96047 1.98879
8.29572 5.94422 8.80917
2.65463 0.528949 7.76273
7.85359 3.92118 3.14842
7.93016 9.18134 7.62712
9.42159 0.329261 9.20946
3.99394 9.24105 1.39727
6.56126 3.21601 2.59436
9.02401 5.32634 9.92953
0.50329 4.38651 0.150557
2.77205 0.0656586 2.40551
0.394531 4.32614 6.25704
2.82861 1.48128 2.4679
2.63201 0.53096 1.42419
8.36678 2.63283 1.03726
9.76459 2.35797 7.6489
1.49734 1.84982 0.26192
1.79478 7.07313 0.0845205
3.55816 0.462128 1.55482
1.70278 2.04239 8.32793
0.832028 1.2672 0.390189
8.90101 0.344476 3.97196
8.62995 2.09851 1.82384
3.3303 5.23076 9.96838
3.95327 5.1606 4.93949
7.03481 0.740957 5.55925
3.00043 0.200357 3.31603
8.38126 2.1581 1.40806
4.39953 3.83972 0.201637
5.05117 2.4683 1.11287
2.68496 0.15109 1.49975
7.04341 0.142926 2.17997
0.383929 0.963691 5.10503
0.494328 0.304378 5.91117
9.58718 2.75057 6.59579
6.49162 0.48025 9.65037
3.6667 3.22855 5.99073
7.55896 0.795117 5.92918
6.24101 0.21115 1.62459
3.5797 1.19479 4.86612
9.82253 0.494514 5.07583
6.1297 0.275528 1.31777
8.12376 2.98401 2.37128
2.69819 1.90165 3.39786
9.01862 4.84128 2.28098
8.20679 0.186706 8.86957
3.84483 0.166981 7.47318
7.40532 0.456891 8.60353
6.64413 0.197795 1.0847
9.23254 2.70564 7.54526
1.19297 0.384841 8.44856
6.01392 1.66806 0.0429844
9.43092 6.14691 5.5967
2.6937 9.66512 1.92635
6.13336 2.8747 8.77174
1.17778 0.194741 3.05986
3.45544 0.283645 7.88571
0.257106 9.28621 1.81971
0.804912 0.106332 4.11075
4.23065 1.16731 9.43283
2.71006 1.28314 2.24403
5.78488 1.57012 0
5.45056 0.594479 8.80258
8.55505 0.109227 7.09586
2.8583 0.366686 1.68839
3.81485 0.268252 6.44771
3.48458 0.449893 7.74062
8.07015 0 7.30533
8.39804 0.970834 0.537368
4.29559 1.14421 9.3672
5.71705 0.824413 8.18571
9.61141 3.81335 0.00719295
0.718946 6.61676 9.62955
3.61649 0.761222 1.11027
3.21224 0.0452233 2.13471
1.64814 0.58001 1.64437
3.34524 0.411408 1.98349
1.67531 0.447654 9.65871
5.34879 0.524482 8.63627
5.03122 0.48303 6.91699
3.47412 3.01773 2.28162
7.79433 3.96853 3.45108
8.78568 0.147847 1.3493
3.36752 0.807441 0.89787
3.37801 0.858295 0.820341
0.285725 1.00745 5.78823
4.03644 0.13684 2.72569
1.7316 0.544485 9.68757
5.14062 0.610972 8.85814
5.14795 0.295974 9.83776
2.01586 2.18076 0.729561
8.64031 0.986185 7.16639
8.76781 0.173411 1.31713
2.87662 0.0579655 2.37803
5.71481 0.00562936 1.993
3.44463 0.563247 2.25852
8.9665 0.517859 9.57903
4.46703 1.01068 0.228195
2.80462 0.376413 1.4157
6.38738 0.937088 8.54194
6.50405 0.399927 1.09829
5.70053 0.409912 1.83873
8.23274 0.304263 1.40836
7.50526 8.38708 8.67624
3.36839 0.0901816 7.83139
3.59468 0.390295 1.60638
5.54588 0.626393 1.89407
2.79821 0.266635 1.49801
0.973853 1.08351 5.51537
5.36603 0.784951 8.38125
7.0668 0.486004 2.41512
5.71285 0.479346 1.84274
7.45951 0.482778 8.73413
3.1753 0.451022 1.8162
4.4748 0.539765 5.19721
7.24258 8.24902 2.56107
4.17134 2.24766 6.15503
7.24743 0.732695 8.53677
3.70577 1.04238 1.21083
4.64456 1.73934 4.28384
3.27919 0.207054 7.93744
0.424058 5.2592 8.47356
1.97713 9.28089 5.15264
3.56367 0.717085 1.47203
3.29137 2.78629 2.21825
6.72447 1.07298 8.7388
8.13179 0.631337 5.94783
3.92822 1.88173 4.32303
1.78539 0.690966 1.13578
7.36328 9.30869 1.59805
3.2466 0.320615 7.83373
3.56259 2.50185 5.37625
7.5256 0.712923 8.10403
3.54292 0.803383 1.09231
3.01133 2.75036 9.2298
7.29589 0.340826 2.66266
7.18697 0.569374 8.85124
3.06858 0.355338 2.282
3.22867 0.275285 2.37779
7.2893 0.709944 5.89272
1.17645 4.86044 0.399753
2.30139 0.385696 2.61099
1.88546 0.419411 6.2758
3.55382 0.773753 1.08181
8.68759 1.44099 7.03147
0.785788 0.539461 3.51357
7.33071 1.44094 9.68084
3.77989 3.18353 0.208501
6.24799 0.333355 1.40071
7.90925 1.26457 6.09822
2.64764 0.278463 1.52776
7.48635 1.03936 5.44917
4.18693 0.3726 1.43191
4.80873 3.7414 2.4483
0.34466 1.06206 6.77108
4.98658 0.358474 9.16585
3.58194 0.151571 1.73714
2.48079 1.57804 3.29009
8.17897 0.123602 8.62341
6.51511 0.348275 8.01885
5.145 0.87303 7.94425
8.2365 2.27879 5.36091
1.76696 2.726 8.6019
3.15831 0 1.47525
4.4901 2.02409 4.8404
6.0628 0.654351 1.85038
2.91742 0.23833 1.72262
3.63165 0.746567 2.1641
4.24316 3.30945 0.113563
5.39051 0.7498 8.10925
6.28507 0.608564 8.50824
8.97404 1.69571 7.18762
1.39604 7.9311 5.00834
3.33275 0.450719 2.02743
3.58988 0.514953 2.16026
7.34711 5.34452 5.50961
3.13341 0.543628 2.57085
5.21637 0.259303 8.95852
3.16921 0.740786 0.881283
3.30507 0.0378796 1.8517
0.0760283 1.40554 6.91034
7.84794 0.759854 6.06409
2.93439 0.234658 1.91166
3.26219 0.456514 2.01137
3.21111 0.270372 1.65695
9.28949 0.572465 7.50545
1.57347 2.92967 4.58831
5.02967 3.952 1.56701
3.27842 0.290959 1.38022
4.18923 0.493663 2.53096
9.04515 3.84433 7.99548
3.07299 0.449921 1.63074
2.90663 0.294455 2.93636
2.86854 0.228312 1.99244
5.80326 0.743988 1.5886
7.72992 0.902654 5.73012
5.99257 1.03048 8.81033
8.98365 9.7902 0.534363
5.7998 0.462385 8.5737
3.34725 0.72355 2.27178
0.864839 0.339364 8.56453
1.36738 0.374089 8.61761
8.89756 0.197827 1.28944
3.74779 0.37372 2.23723
6.38218 0.516918 1.25864
4.89514 0.326545 9.94332
7.45424 0.585093 8.20574
7.33853 0.474871 7.91689
5.7182 0.60703 8.41862
3.36978 0.707024 2.30061
2.93078 0.284304 1.76566
4.86208 1.65583 4.42052
9.00351 0.309531 1.01002
2.84274 10 8.95277
6.88485 1.66775 9.42828
6.26955 0.800142 8.67764
2.63998 0.426384 1.46229
5.29698 0.92915 8.58461
2.7593 0.491933 1.52358
4.6599 3.90409 0.202638
3.49465 0.272525 1.91459
3.10094 0.35545 2.2889
8.41387 0.208006 8.65054
0.345098 0.993691 5.97674
5.10312 0.117674 9.17787
7.42304 0.659212 5.44915
3.01086 0.464387 1.25527
5.60979 0.456117 8.24747
1.97663 0.0781184 2.01982
4.29488 1.0047 9.39813
3.83737 0.709778 2.34
3.35437 0.586003 1.78562
1.23682 0.215059 8.33942
3.23063 0.469497 0.679401
2.75301 0.263828 1.69431
3.06804 0.739141 2.12611
3.77497 0.0834101 2.45254
5.13464 0.245371 8.99936
1.57071 0.547886 1.90297
0.66655 1.23386 0.0164214
9.86768 0.266036 8.73184
6.05066 0.839589 1.47565
5.89327 0.752392 8.4381
2.83707 0.275155 1.84298
2.56589 0.466698 4.76826
5.60366 0.76506 8.40597
4.1582 0.859139 2.25512
7.57238 0.768458 5.61306
2.67819 0.2366 1.55482
8.38265 0.736814 0.197929
5.00715 0.620614 8.36549
5.93543 0.495959 1.52359
5.77229 0.665757 8.44003
3.14193 0.572911 2.32117
1.71377 3.15162 4.7201
5.3921 0.794149 8.18862
9.78495 0.123707 0.845855
5.03698 0.213179 9.2598
3.47359 3.15449 6.3127
2.44269 0.524743 1.08813
5.43347 0.846075 8.89848
7.57239 0.709856 5.40072
2.65697 0.428523 1.30955
3.31127 0.714308 2.42374
0.169853 0.0481501 2.89316
7.25754 0.112713 2.2957
3.97973 0.637313 0.788227
5.66418 0.726997 8.83941
5.26869 0.536669 8.42599
3.95232 0.257426 7.61283
4.21799 8.56636 7.33623
2.17522 0.416825 9.56388
3.15483 0.472712 1.84919
8.70603 0.438245 0.893942
6.00999 0.539959 1.42485
8.49585 2.42693 1.68702
3.6737 0.154913 7.53469
9.29305 1.81133 6.86838
7.65991 0.895904 5.49053
2.67933 0.204227 1.32451
2.3238 0.0120365 2.51795
6.41571 0.246893 7.54483
6.38639 9.28191 8.28709
9.13022 0.326181 4.1516
6.01876 0.45877 1.46892
3.69616 0.644502 1.34677
3.5042 0.442853 7.95993
5.72593 0.686823 8.35089
5.66183 0.955 8.34576
2.8767 0.146728 2.47476
3.00454 0.118892 1.68073
3.47408 0.0603255 0.465324
3.28305 0.351174 1.30648
8.59669 0.159577 1.25647
7.61025 0.500948 8.3044
2.38898 1.04567 5.71186
6.51251 0.252613 1.87872
3.53667 0.416734 1.00818
0.554425 1.60137 0.971978
2.63922 0.627494 1.88363
3.13931 0.349457 2.49468
2.61689 1.04429 6.07622
4.30862 0.45141 2.13815
5.36574 0.367266 8.45238
8.63672 1.47464 6.94973
7.22984 0.610621 5.89378
3.38942 0.195291 2.49068
2.81916 0.45627 2.55791
1.91672 0.435012 9.42662
2.70266 0.240195 1.3629
5.95802 0.95606 0.983772
6.0463 0.419344 1.88938
2.96984 0.428519 1.85806
5.51698 0.578992 8.30139
1.51267 0.726342 1.30112
5.45808 0.913875 8.13354
3.06316 0.347091 2.20181
9.07065 0.300467 1.13339
8.85811 0.121611 1.32666
3.15197 0.44958 2.29674
5.89695 0.849258 1.54222
6.41533 0.0103577 2.78016
3.23913 0.128973 2.05382
6.46953 0.930481 8.21757
3.14728 0.260586 1.60223
5.41817 0.570216 8.69195
2.85832 0.275944 1.75325
6.48009 0.255166 2.18266
9.20532 1.05124 7.03118
6.08305 0.39952 2.11888
3.28173 0.391893 2.20702
8.16357 0.342191 1.34176
3.0213 0.179709 1.83693
6.12789 0.547571 8.714
3.19128 0.576272 1.32638
5.5717 0.410623 8.74199
5.05598 0.475873 8.6164
2.70759 0.256524 1.23687
2.68065 0.332174 1.37618
5.94706 0.665063 1.58107
3.29598 0.486229 2.27446
2.65684 0.319169 1.44068
3.50437 0.191001 2.35243
2.06695 0.536363 1.30653
3.31933 0.397014 2.05338
6.26331 0.720817 7.86321
5.02887 0.457239 8.52355
3.02068 0.833398 2.28335
3.17984 0.37807 1.89899
5.93242 0.598969 1.79422
5.06527 0.468723 9.01533
2.70814 0.320167 2.10765
2.46213 0.486595 1.71675
6.16725 0.27002 1.29406
5.82859 0.693616 8.31205
5.9045 0.605519 8.4008
3.01262 0.414087 1.91429
3.03022 0.548961 1.85266
7.58228 0.778654 5.64195
5.51456 0.759828 8.15012
5.02531 0.309582 7.90819
5.79313 0.468303 8.37442
4.21113 0.472698 2.61048
6.2147 0.227768 1.29287
8.74532 1.44154 7.02867
5.58627 0.941207 8.28745
3.7527 0.675981 2.78332
2.71402 0.445266 2.32807
7.61127 0.511265 5.97409
5.74865 0.603593 8.17866
5.43026 0.990289 8.43525
5.28551 0.636887 8.29
2.80782 0.263079 1.23096
3.04535 0.47993 2.0222
3.19971 0.402597 1.96131
5.53595 0.562709 8.50259
2.67155 0.117305 1.79651
3.39225 0.138454 7.97602
5.5884 0.648504 8.26255
3.06193 0.367369 1.81527
2.81854 0.137939 2.02354
1.02549 0.0485482 5.94943
6.66722 0.272635 1.06839
3.01836 0.465369 1.96773
3.36935 0.51479 1.96944
5.74181 0.95676 8.43222
3.07762 0.319219 1.28227
3.40909 0.211386 7.90869
5.8104 0.509025 8.22778
3.0781 0.326638 1.75918
2.67672 0.0686716 1.84083
9.17573 0.0903742 0.681621
6.67967 0.258401 1.04091
POINT_DATA 400
SCALARS particleColor float 3
LOOKUP_TABLE default
0 0.960461 1
1 0.415106 0
0 0.461528 1
0 0.369275 1
0.240987 1 0.759013
0.519567 1 0.480433
0.475557 1 0.524443
0 0.544594 1
0.513951 1 0.486049
0 0.503144 1
0 0.715465 1
1 5.96046e-08 0
0 0.757396 1
1 0.174847 0
0 0.461527 1
0 0.392206 1
0 0.0693007 1
0 0.283252 1
0.178184 1 0.821816
0 0.894581 1
0 0.389052 1
0.0871566 1 0.912843
0.219083 1 0.780917
0 0.599801 1
0.55902 1 0.44098
0 0.880028 1
1 5.96046e-08 0
0 0.907867 1
0 0.835949 1
0 0.487609 1
0 0.98415 1
0.184339 1 0.815661
0.448719 1 0.551281
0 0.616004 1
0 0.329998 1
0 0.131067 1
0.247363 1 0.752637
0 0.541126 1
0 0.561266 1
0 0.491612 1
0 0.889547 1
0 0.460741 1
0 0.676022 1
0.158993 1 0.841007
0 0.373237 1
0 0.195958 1
0 0.311368 1
0.190279 1 0.809721
0 0.378004 1
0.119196 1 0.880804
0.135341 1 0.864659
1 5.96046e-08 0
0 0.542722 1
0 0.489285 1
0 0.480066 1
0 0.462652 1
0 0.928612 1
0.104439 1 0.895561
0 0.929516 1
1 5.96046e-08 0
1 0.67943 0
0 0.474777 1
0.338181 1 0.661819
0 0.274874 1
0.0366602 1 0.96334
0 0.532062 1
0 0.979699 1
0.368576 1 0.631424
0 0.677814 1
0 0.743744 1
0 0.348479 1
0 0.636566 1
1 0.594415 0
0 0.66395 1
0.0665331 1 0.933467
0 0.722627 1
0 0.518383 1
0 0.928026 1
0.519263 1 0.480737
0 0.897775 1
0 0.25298 1
0 0.593669 1
0 0.967509 1
0 0.750586 1
0 0.894685 1
0 0.47942 1
0.18441 1 0.81559
0 0.304805 1
0.707679 1 0.292321
0 0.186484 1
0 0.112672 1
0 0.560353 1
0.0380702 1 0.96193
0 0.675662 1
0 0.871278 1
0 0.554362 1
0 0.61497 1
0 0.81868 1
0 0.219644 1
0 0.21111 1
0 0.434543 1
0.263956 1 0.736044
0 0.989495 1
0.205702 1 0.794298
0.386596 1 0.613404
0 0.786745 1
0.0786118 1 0.921388
0 0.570401 1
0 0.652983 1
0 0.488925 1
0 0.66529 1
0.208999 1 0.791001
0.0250134 1 0.974987
0 0.740452 1
0 0.893793 1
0 0.722831 1
0 0.653347 1
0 0.676856 1
0 0.644543 1
0 0.343067 1
0 0.622309 1
1 5.96046e-08 0
0.258099 1 0.741901
0.362373 1 0.637627
0 0.956618 1
0 0.666643 1
0 0.179637 1
0 0.692563 1
0.285674 1 0.714326
0.638161 1 0.361839
0 0.434672 1
0.0816965 1 0.918304
0 0.425142 1
0 0.825978 1
0.573036 1 0.426964
0 0.543238 1
1 5.96046e-08 0
0 0.285284 1
0 0.650803 1
0 0.99456 1
0 0.548124 1
0 0.581879 1
1 5.96046e-08 0
0 0.781896 1
0 0.693473 1
0 0.871536 1
0 0.582421 1
0 0.473059 1
0 0.72268 1
0 0.666558 1
0 0.481611 1
0 0.190631 1
0 0.748213 1
0 0.964505 1
0.0671261 1 0.932874
0 0.749955 1
0 0.909332 1
0 0.895161 1
0 0.560519 1
0 0.388288 1
0 0.883697 1
0 0.205613 1
0 0.440842 1
0 0.310654 1
0 0.591836 1
0 0.510012 1
0 0.436387 1
0 0.661981 1
0 0.757411 1
1 5.96046e-08 0
0 0.675563 1
0 0.652833 1
0 0.905159 1
0 0.966444 1
0 0.737476 1
0 0.45024 1
0 0.419073 1
0 0.551882 1
0.289962 1 0.710038
0.893898 1 0.106102
0 0.693102 1
0.0556225 1 0.944377
0 0.58807 1
0 0.57359 1
0 0.534971 1
0 0.4211 1
0.0303952 1 0.969605
0 0.488123 1
0 0.49063 1
0 0.132851 1
0 0.514438 1
0 0.380695 1
0 0.894505 1
0.815351 1 0.184649
1 5.96046e-08 0
0 0.871542 1
0 0.778187 1
0 0.533751 1
0 0.398521 1
0 0.517926 1
0 0.587667 1
0 0.340075 1
0.0142433 1 0.985757
0 0.365026 1
0 0.889181 1
0 0.346704 1
0 0.731194 1
0 0.676853 1
0 0.423769 1
0 0.670111 1
0 0.196833 1
0 0.449233 1
0 0.219416 1
0.0287106 1 0.971289
0.0102892 1 0.989711
0 0.459774 1
0 0.534522 1
0 0.688239 1
0 0.416438 1
0 0.746147 1
1 5.96046e-08 0
0 0.270401 1
0 0.714504 1
0 0.755754 1
0 0.414752 1
0 0.226453 1
1 0.869246 0
0 0.209644 1
0 0.656296 1
0 0.805331 1
0.212452 1 0.787548
0 0.369564 1
0 0.636689 1
0 0.407414 1
0 0.850745 1
0 0.602784 1
0 0.790879 1
0 0.474783 1
0 0.69836 1
0 0.650346 1
0 0.361605 1
0.100868 1 0.899132
0 0.678795 1
0 0.228973 1
0 0.349469 1
0 0.753676 1
0.0135601 1 0.98644
0.752628 1 0.247372
0 0.735699 1
0 0.476866 1
0 0.379689 1
0 0.522525 1
0 0.476138 1
0 0.877762 1
0 0.824455 1
0 0.314329 1
0.0654789 1 0.934521
0 0.539623 1
0 0.648169 1
0 0.401109 1
0 0.296884 1
0.434267 1 0.565733
0.111538 1 0.888462
0.0869083 1 0.913092
0 0.764269 1
0.174821 1 0.825179
0 0.900388 1
0 0.768174 1
0 0.256802 1
0 0.634452 1
0 0.832135 1
0.112574 1 0.887426
0 0.683894 1
0 0.912378 1
0 0.719594 1
0 0.921902 1
0 0.926508 1
0 0.650587 1
0 0.954757 1
0 0.474087 1
0 0.751563 1
0 0.66341 1
0.915093 1 0.0849072
0.352242 1 0.647758
0.024367 1 0.975633
0 0.393368 1
0 0.239171 1
0 0.588982 1
0 0.758041 1
0.16969 1 0.83031
0 0.639627 1
0 0.694447 1
0 0.738203 1
0 0.220291 1
0 0.821123 1
0 0.591364 1
0 0.423374 1
0 0.726083 1
0.251882 1 0.748118
0 0.381058 1
0 0.603945 1
0 0.75697 1
0 0.432055 1
0 0.790199 1
0 0.315814 1
0 0.910908 1
0.144409 1 0.855591
0 0.276198 1
0.176553 1 0.823447
0 0.556525 1
0 0.884719 1
0 0.257867 1
0 0.765189 1
0 0.715019 1
0.107127 1 0.892873
0.808151 1 0.191849
0.39238 1 0.60762
0 0.497239 1
0 0.322523 1
0 0.97278 1
0 0.664351 1
0 0.916367 1
0 0.465073 1
0 0.9432 1
0 0.896908 1
0 0.702655 1
0 0.643158 1
0 0.684747 1
0 0.10378 1
0.0862989 1 0.913701
0 0.95691 1
0 0.821256 1
0.0572808 1 0.942719
0 0.839685 1
0 0.643004 1
0.189359 1 0.810641
0.195151 1 0.804849
0 0.464672 1
0 0.850218 1
0.0516149 1 0.948385
0 0.445154 1
0.154328 1 0.845672
0 0.510699 1
0.136587 1 0.863413
0 0.536097 1
0 0.600949 1
0 0.493429 1
0 0.561235 1
0 0.420984 1
0.185879 1 0.814121
0 0.414092 1
0 0.700435 1
0 0.398001 1
0 0.249551 1
0 0.793296 1
0 0.449296 1
0 0.795196 1
0 0.979232 1
0 0.696731 1
0 0.618442 1
0 0.571726 1
0.075176 1 0.924824
0 0.893177 1
0 0.48349 1
0.14968 1 0.85032
0 0.648193 1
0 0.401632 1
0 0.9103 1
0 0.568802 1
0 0.845223 1
0 0.476811 1
0 0.572174 1
0 0.210124 1
0 0.428219 1
0 0.609454 1
0 0.780351 1
0 0.485607 1
0 0.541139 1
0 0.820991 1
0 0.841936 1
0 0.809932 1
0 0.236833 1
0 0.882165 1
0 0.495948 1
0 0.625565 1
0 0.41048 1
0 0.834447 1
0 0.217027 1
0 0.635175 1
0 0.413045 1
0 0.757367 1
0 0.547301 1
0 0.514148 1
0 0.941235 1
0 0.47369 1
0 0.735264 1
0 0.730636 1
0.113734 1 0.886266
0 0.656349 1
0 0.668343 1
