# vtk DataFile Version 3.0
Particle simulation
ASCII
DATASET POLYDATA
POINTS 400 float
2.69018 2.60314 2.75104
1.11411 4.21445 6.09096
6.97937 0.643824 2.74956
9.66791 3.62159 8.21961
5.31158 1.19188 6.37562
9.47032 7.30562 8.47075
9.66745 2.92406 6.54721
7.04733 1.4889 1.60963
5.71575 4.84434 8.68346
6.65832 1.26912 6.72944
1.63858 4.23415 2.62956
0.598042 5.07873 0.0903358
6.569 7.68272 7.98026
1.28715 4.44711 0.227593
1.81151 7.59479 0.655711
9.46735 2.06143 9.24747
4.37245 4.75717 8.70169
3.58913 0.200462 2.25593
8.85032 9.24691 0.574851
0 5.76754 9.67478
3.52428 0.344516 2.06281
4.61684 7.47851 7.76305
0.62068 7.49035 8.37463
8.69944 6.93445 3.33776
5.3501 9.36319 1.27692
9.02463 7.70224 2.9835
5.34465 3.78357 6.85163
3.24661 2.25303 7.3332
4.53897 1.76387 3.44152
4.68007 3.08183 5.82433
8.27456 8.62908 7.22511
6.95569 2.12035 1.5741
0.891831 4.18846 1.89147
8.06144 6.91475 2.4078
0.481505 2.77099 0.834015
4.61078 10 3.665
7.76242 6.09024 6.95707
3.86596 0.424619 2.56113
8.64872 3.65113 8.35584
8.72578 6.50208 8.57371
7.58246 6.08799 1.16239
6.99225 5.68634 3.08326
0.572327 3.96722 8.76903
7.50236 4.35541 0.116701
6.52756 2.34667 5.18641
9.36135 8.34557 10
2.19711 4.77853 8.60436
3.28959 7.84996 2.91148
0.268914 6.23784 4.59592
5.41991 2.54693 1.00582
5.61791 2.14275 7.89737
8.2294 8.50765 8.62984
4.89867 7.23782 3.05551
9.56139 6.17618 2.50993
7.15736 7.30695 8.39727
0 0.568916 8.65215
0.0349261 5.31545 2.29934
5.10217 1.83744 6.08588
1.29731 2.05123 7.75808
2.43141 6.63399 3.98625
0.861752 6.57251 0.942386
4.10918 4.85315 5.87376
2.94914 0.339955 6.66958
0.752682 8.2156 5.11929
4.15366 9.74373 9.73542
4.72094 3.39454 5.02568
7.04622 0.843848 4.60885
5.23188 3.95345 7.10107
0.256332 4.62761 0.747623
5.62667 0.0362076 4.12682
7.76293 3.7799 7.54446
7.80212 8.50268 6.09314
2.3308 9.26904 4.97432
8.81522 1.57208 5.66916
8.86067 0.088965 4.1641
0.64853 9.64038 6.02027
0 8.56573 5.09011
4.2051 4.51314 8.37153
1.67502 8.43047 0.830494
9.52946 3.88787 8.62329
3.39788 0.15408 2.07002
0.963363 2.89741 1.9824
3.76842 0.00564012 8.99515
0.585901 9.44416 3.73078
4.41387 5.34116 3.09799
9.15002 1.287 8.05803
9.77679 0.974205 3.38073
4.225 8.14285 8.99616
4.01153 6.70683 2.35292
1.22085 1.19985 4.10595
3.57511 0.372303 2.20815
2.96229 6.49902 3.20306
10 1.52642 0
10 6.82868 0
7.68557 8.41374 5.80394
0.677806 6.13133 3.15505
9.39823 8.94237 8.68894
10 8.74262 5.85745
7.68793 3.14235 6.17554
2.20022 5.31631 9.26945
3.28161 1.00028 0.0668809
5.615 4.61779 5.49701
8.57893 7.34736 1.2024
7.35466 1.51319 8.7316
4.0973 0.224821 3.8586
1.48663 6.86703 9.42641
0 2.96867 1.75401
0.941804 8.3183 9.33072
1.86152 1.98561 6.00451
9.40816 7.88645 5.91171
5.20571 9.20831 7.96411
2.17951 8.5055 10
0.644101 7.38261 1.4868
3.70579 1.83224 2.66067
4.33499 0.631939 1.66871
7.62404 1.97523 7.02162
0.398637 0.233741 8.54167
1.22203 7.04148 3.87385
0.241383 0.0619075 4.31957
6.39124 8.36841 3.08176
8.97789 2.39204 5.62132
6.49098 7.42485 0.827065
5.69076 0.981403 7.5017
7.42231 4.23926 4.69232
5.44521 9.53489 7.00382
3.46808 0.445291 0.643567
5.88026 2.20626 0.272583
5.28488 8.7985 3.61055
2.82824 1.17717 3.20629
8.86572 6.32794 1.03673
6.64662 8.7128 4.86661
6.93935 8.13491 6.06096
4.46824 9.90409 2.47387
3.52412 1.39954 2.68154
5.596 9.35844 7.70241
6.20315 5.98544 2.99007
0.854887 1.69337 7.81097
4.48445 6.22069 7.83943
9.76362 5.13411 6.46698
8.7685 7.78093 3.19344
3.61543 0.558161 1.75054
5.31464 3.7255 7.72976
10 0 2.06854
0.405917 3.42306 9.45656
4.5106 0.173926 1.61929
9.81272 2.24995 2.4487
8.45638 1.3761 0.429518
8.90316 9.66965 0.373607
0.277493 1.8965 8.09295
2.3053 0.641522 9.57513
3.91052 0.0598958 1.93809
2.31256 3.49239 8.47301
0.952452 4.56493 4.54695
3.11593 0.402131 2.28021
0.297251 1.42606 3.05887
8.35964 1.82077 5.27971
9.22431 5.96066 0.710538
5.71406 6.76222 3.24509
1.13217 10 2.64418
3.68251 6.37246 9.05018
2.9669 7.09077 7.44158
4.13021 4.8477 2.2204
1.79951 3.89425 3.7926
0.250605 6.16189 5.31514
2.06675 9.83844 2.81292
7.78036 6.45811 0.196825
2.50282 5.11096 1.8078
9.61485 6.85983 4.33404
2.81036 3.16017 8.68098
5.47035 7.27307 1.37164
3.4048 0.229077 2.76949
2.71156 2.77248 8.92687
1.31854 7.2803 2.87457
7.38647 4.13267 7.10237
0.696402 6.97173 6.02547
2.03491 1.35519 1.96064
8.23055 9.11445 1.26723
6.42506 8.72404 4.68071
4.95934 5.81832 2.42173
4.71877 2.75931 3.76859
4.05933 0.384062 2.39423
9.56717 1.14127 7.41499
4.11827 8.85782 8.73977
0.496848 2.3156 5.88676
8.6898 7.59044 1.68364
0.400396 5.42806 4.21588
3.86367 0.138517 2.21566
3.71183 7.62053 3.18371
4.48546 0.45001 2.57091
4.16807 0.475701 1.35149
3.34555 0.462795 2.30649
3.25457 0.12698 2.68993
9.36468 2.25087 2.00426
9.59806 3.02286 9.6383
8.30997 8.4009 8.1162
4.82898 3.03568 0.518821
1.75986 9.04422 9.24267
4.0371 2.32897 1.57694
3.2332 0.501806 7.50504
3.29581 0.486535 2.50863
3.86918 0.424136 2.44231
6.94822 5.05427 3.22545
2.32948 5.6993 4.24966
7.98224 5.4392 2.71813
9.00117 6.1426 9.76126
2.98264 0.504564 4.92323
5.55367 0.522791 3.17436
9.19712 3.05385 9.45217
5.80816 0.582296 9.36342
2.41172 1.91981 0
3.28958 0.44096 2.45325
3.58946 0.245048 2.12915
1.04721 1.50373 6.58941
7.44706 1.57466 2.85025
1.51577 3.07281 2.52489
4.16943 1.53165 8.69394
3.04919 0.293429 2.48581
1.73704 1.75016 4.18528
1.0422 4.39591 5.60043
1.01558 9.21401 2.00632
7.67066 7.89671 0.650845
9.60915 4.05196 4.08051
9.41211 0.376851 0.164274
2.89594 0 2.9782
8.66684 0.736561 1.02385
2.34866 5.91218 3.56312
9.67056 4.63397 7.07272
4.11858 0.682377 2.63225
3.34695 0.36241 2.28087
4.09066 9.50993 2.30059
9.49458 5.90224 4.94735
3.70496 6.95731 6.9472
6.99974 2.67592 6.43241
3.21682 0.499201 2.93546
0.313897 0.295348 8.25996
9.13137 2.69793 4.43659
8.06725 0.703173 6.92916
3.17955 0.818158 8.91587
3.20875 0.483498 2.06502
3.88583 9.86516 9.82662
3.96508 0.285368 2.1724
4.58735 0.473872 2.48806
2.10476 0.160521 3.97316
3.39192 0.725462 2.56857
3.6049 1.2408 4.7359
5.43317 8.92205 3.11123
0.622291 1.87681 5.91769
9.85709 1.00165 6.68965
3.75047 3.94466 1.08532
6.23985 5.98224 2.67388
3.71215 0.718769 2.1229
5.87595 9.54029 1.76125
0.107875 2.7212 5.81712
9.77424 3.80976 2.21325
1.45588 4.46788 3.97027
2.01586 0.231989 3.46117
0.823239 3.30572 7.91176
0.352464 0.192571 8.39402
0 10 8.83894
0.264302 0.223568 8.26011
3.8061 0.343439 1.4852
8.52304 0.198203 9.27188
5.14351 1.70821 5.60369
0.0748882 0.293465 3.87211
0.162599 0.352144 4.34086
2.83855 1.4071 5.71771
3.98694 0 4.34504
0.331203 0.16722 8.28863
0.576383 9.79419 1.39948
3.44837 0.104932 2.46615
3.32567 0.621118 2.72557
1.32738 9.46984 8.08472
8.17341 0 3.20483
3.58558 5.28419 4.76451
4.12509 0.748301 4.70674
0.124619 1.26541 6.10283
8.36129 5.41645 5.73352
2.24309 1.47855 3.41136
4.32913 0.366258 9.32888
3.61604 0.411641 2.3942
1.49636 2.15871 8.98051
8.15257 0.671482 0.420446
10 6.71058 1.5132
3.89384 0.440211 1.89116
6.03255 0.559869 7.53699
8.97385 9.63429 4.61286
3.38568 0.155672 1.79022
4.21448 0.504178 4.31707
1.68463 3.98412 6.18487
5.49503 9.46021 2.50916
7.52457 4.91297 6.25124
5.39974 6.77619 8.47286
2.91137 0.376822 2.78178
2.21207 6.06298 3.52474
5.37675 2.40589 9.10612
0.586385 0.123197 8.66074
3.37854 0.610653 2.32974
3.51548 0.389246 2.09776
3.02943 0.191791 3.35842
3.36307 0.301577 2.4127
9.19749 5.41855 0.677009
9.10757 0.125479 0.581077
3.46738 1.13675 0.649927
3.45774 6.92604 7.01074
3.34945 0.236789 2.11644
9.54622 4.86959 7.64486
3.22872 0.484569 2.04658
3.46744 0.33978 2.47236
1.69291 2.40104 7.92171
8.29739 5.47322 5.60722
0.727475 6.04671 2.97397
6.68182 0.081676 4.23222
4.823 8.25039 1.80266
3.56743 0.227601 1.96547
4.18216 9.3067 5.92744
4.15061 6.32766 2.51579
3.52066 0.217152 0.0346762
2.26032 1.16202 0
0 8.83059 9.24346
8.6803 8.67132 3.7632
0.179029 0.606812 8.95997
6.67399 7.55241 8.22781
0.78661 0.122131 8.74261
4.06225 0.0966784 2.05927
0.0246282 0.584061 8.91722
3.98026 0.152766 0.918519
3.48656 0.373352 2.19914
7.46747 0.633319 1.79972
6.96868 8.72019 9.64297
3.46522 0.268715 2.52348
7.16382 5.1192 4.25633
3.02445 0 1.96743
1.52049 1.98541 9.4244
2.22111 0.431098 3.32111
8.01281 0.632929 0.628901
4.0891 0.595549 9.71645
5.91963 6.05269 5.41974
3.73885 0.492703 2.27247
1.70962 1.35075 9.80097
5.2017 3.60894 4.77309
5.34766 6.27443 1.74204
9.89604 9.25028 2.26864
1.38213 2.04437 9.29581
0.290289 0.1569 8.27804
3.47106 0.558701 2.14804
3.07875 0.194724 1.93348
7.90805 0.187778 0.120981
3.86025 0.0960114 2.53965
3.11826 0.370037 1.59614
7.65042 6.65063 0.261764
3.16129 0.533866 2.83241
3.45143 0.328447 2.1648
1.71886 7.24929 3.01541
3.92741 3.3176 1.51961
3.00065 0.505889 1.71009
3.62471 0.324522 1.94694
3.50752 0.673639 0.457022
0.94485 1.68053 9.03294
3.9869 0.269936 2.21009
3.35211 0.232636 2.61008
8.07412 0.848691 0.484299
0.370936 0.305683 8.49759
0.43108 0.068206 8.2848
3.47188 0.394716 1.35757
4.02422 0.275836 2.08738
8.11924 0.386167 0.797324
0.811904 0.121401 8.81801
7.77006 1.27846 3.17195
0.357726 0.282497 8.55126
7.32113 3.83179 6.45413
8.00017 1.11882 0.305599
3.52539 0.595227 8.90319
3.55899 0.11897 7.54274
3.97881 0.256845 2.59146
3.40645 0.643867 1.96366
8.17874 0.901221 0.473732
0.593932 0.468426 8.47116
0.703429 0.126122 8.44516
3.48267 0.689185 8.37313
3.74773 0.560378 2.51147
3.23087 0.0755606 2.50197
3.65435 0.365653 2.19417
3.50824 0.820143 8.60592
4.10535 0.384397 2.32465
9.41826 1.09522 0.524211
0.412623 0.222405 8.45726
3.44981 0.515081 2.10686
3.40328 0.344833 2.67431
10 4.14411 8.83194
8.21103 0.755133 6.74886
3.26014 0.470138 2.80781
3.38177 0.657789 2.28905
0.200378 0.0362399 8.50357
3.41119 0.481084 2.43251
3.49698 0.899006 0.610987
0.449325 0.265609 8.27546
3.41476 0.499725 2.15036
0.0856865 1.26304 3.22562
4.78667 0.451252 3.2935
7.85509 0.6445 0.530374
POINT_DATA 400
SCALARS particleColor float 3
LOOKUP_TABLE default
0.763639 1 0.236361
0 0.516787 1
1 5.96046e-08 0
1 0.120725 0
1 0.919365 0
0 0.63323 1
0.378328 1 0.621672
1 5.96046e-08 0
0.437721 1 0.562279
1 5.96046e-08 0
1 0.955516 0
0.803651 1 0.196349
1 5.96046e-08 0
1 0.615047 0
1 0.495864 0
1 5.96046e-08 0
1 0.693901 0
0 0.592983 1
1 0.647586 0
0.741316 1 0.258684
0 0.850154 1
1 5.96046e-08 0
1 5.96046e-08 0
0.659583 1 0.340417
1 0.482089 0
0.245161 1 0.754839
0.899318 1 0.100682
0.0497371 1 0.950263
1 0.790994 0
1 0.562019 0
0.762889 1 0.237111
1 0.567438 0
1 5.96046e-08 0
0 0.762638 1
1 0.395678 0
1 5.96046e-08 0
0.554736 1 0.445264
0 0.549386 1
1 5.96046e-08 0
1 0.0569064 0
0.714195 1 0.285805
1 5.96046e-08 0
1 5.96046e-08 0
1 0.892808 0
0.550466 1 0.449534
1 0.309817 0
1 5.96046e-08 0
1 5.96046e-08 0
0.704626 1 0.295374
0.910623 1 0.0893766
1 5.96046e-08 0
0.5724 1 0.4276
1 5.96046e-08 0
1 0.987368 0
1 0.179917 0
0.0484923 1 0.951508
0.321969 1 0.678031
0.767737 1 0.232263
1 5.96046e-08 0
1 5.96046e-08 0
1 5.96046e-08 0
1 0.471325 0
0 0.607598 1
0.931686 1 0.0683136
0.670326 1 0.329674
1 0.00262499 0
1 5.96046e-08 0
1 0.303693 0
0.797482 1 0.202518
0 0.865486 1
0.50444 1 0.49556
1 0.865988 0
1 5.96046e-08 0
0 0.924646 1
0 0.545639 1
1 5.96046e-08 0
1 0.579217 0
1 5.96046e-08 0
0.523241 1 0.476759
0.368373 1 0.631627
0 0.591112 1
1 0.405854 0
0 0.843152 1
1 5.96046e-08 0
1 0.889446 0
1 0.752267 0
0.892271 1 0.107729
1 5.96046e-08 0
0.546028 1 0.453972
0 0.847713 1
0 0.515394 1
1 0.590246 0
1 5.96046e-08 0
1 5.96046e-08 0
0 0.927946 1
0.8132 1 0.1868
1 5.96046e-08 0
0.282679 1 0.717321
0.00999732 1 0.990003
1 5.96046e-08 0
0 0.562512 1
0.776774 1 0.223226
0.819738 1 0.180262
1 0.83957 0
1 5.96046e-08 0
1 0.297537 0
0 0.886576 1
0.529413 1 0.470587
1 0.976019 0
1 5.96046e-08 0
1 0.638429 0
0.735416 1 0.264584
1 0.919058 0
1 5.96046e-08 0
0 0.908222 1
1 0.188133 0
0 0.33839 1
1 5.96046e-08 0
1 0.276374 0
0.681139 1 0.318861
1 5.96046e-08 0
0.48987 1 0.51013
1 5.96046e-08 0
1 5.96046e-08 0
0.22354 1 0.77646
0 0.705161 1
0.497345 1 0.502655
0 0.749303 1
0.198118 1 0.801883
0.467386 1 0.532614
0 0.682154 1
0.906845 1 0.0931554
1 5.96046e-08 0
0.441503 1 0.558497
0.555336 1 0.444664
1 0.303194 0
0.154284 1 0.845716
1 0.473089 0
0.702468 1 0.297532
0 0.493044 1
0 0.236358 1
1 5.96046e-08 0
1 5.96046e-08 0
1 5.96046e-08 0
0 0.521923 1
1 0.975485 0
0.578979 1 0.421021
0 0.601336 1
0.907245 1 0.0927548
1 5.96046e-08 0
0 0.392785 1
1 5.96046e-08 0
1 0.819998 0
0 0.72218 1
1 5.96046e-08 0
1 5.96046e-08 0
0.348401 1 0.6516
1 0.871055 0
1 5.96046e-08 0
1 0.438724 0
1 5.96046e-08 0
0 0.754319 1
1 0.0690671 0
1 0.574396 0
0.112322 1 0.887678
1 0.637737 0
1 0.0744554 0
0.771163 1 0.228837
1 5.96046e-08 0
0 0.992329 1
0 0.539837 1
1 5.96046e-08 0
0 0.954434 1
1 0.26997 0
0.0655511 1 0.934449
1 5.96046e-08 0
1 5.96046e-08 0
1 0.0493645 0
1 0.786924 0
1 0.842767 0
0 0.436075 1
1 5.96046e-08 0
0.400466 1 0.599534
1 5.96046e-08 0
1 5.96046e-08 0
0.29188 1 0.70812
0 0.582983 1
1 5.96046e-08 0
0 0.497637 1
0 0.6316 1
0 0.890694 1
0 0.756056 1
1 5.96046e-08 0
0.789773 1 0.210227
1 0.358724 0
0 0.590508 1
1 5.96046e-08 0
1 0.461503 0
0.86758 1 0.13242
0 0.955997 1
0 0.461628 1
1 5.96046e-08 0
0.703515 1 0.296485
0 0.698 1
1 0.67518 0
1 5.96046e-08 0
0.216004 1 0.783996
0.699482 1 0.300518
0 0.596206 1
1 5.96046e-08 0
0 0.894789 1
0 0.386408 1
1 0.195719 0
1 0.532408 0
0.220745 1 0.779255
0 0.76128 1
0 0.582223 1
0.713045 1 0.286955
0 0.652047 1
1 5.96046e-08 0
1 0.838419 0
1 0.789121 0
0 0.743495 1
0 0.536647 1
0.548619 1 0.451381
1 5.96046e-08 0
0 0.483877 1
0 0.415642 1
0 0.745679 1
1 5.96046e-08 0
1 0.652036 0
0.868048 1 0.131952
1 5.96046e-08 0
0 0.248548 1
0 0.50575 1
0.305607 1 0.694393
1 5.96046e-08 0
0.273222 1 0.726778
0 0.690068 1
0.332686 1 0.667314
0 0.386965 1
0 0.764706 1
0.146417 1 0.853583
0 0.631482 1
1 5.96046e-08 0
0.426055 1 0.573945
1 0.274299 0
1 0.691532 0
1 5.96046e-08 0
1 0.684384 0
0 0.717694 1
1 0.82574 0
1 5.96046e-08 0
0.933404 1 0.0665959
1 0.88216 0
0 0.19526 1
1 5.96046e-08 0
0 0.577721 1
1 5.96046e-08 0
0 0.607074 1
0 0.538493 1
0.852998 1 0.147002
0 0.843935 1
0.53599 1 0.46401
0 0.717148 1
1 5.96046e-08 0
0.441829 1 0.558171
0.0226382 1 0.977362
0.562104 1 0.437896
0 0.883488 1
0 0.910522 1
1 5.96046e-08 0
1 5.96046e-08 0
1 5.96046e-08 0
0 0.860165 1
0.506489 1 0.493511
0 0.740643 1
1 5.96046e-08 0
1 0.706753 0
0 0.35106 1
0.130717 1 0.869283
0 0.0919596 1
1 5.96046e-08 0
0.682564 1 0.317436
1 0.514969 0
1 0.186469 0
0 0.371203 1
0.310442 1 0.689558
1 5.96046e-08 0
0.870471 1 0.129529
0.479532 1 0.520468
1 5.96046e-08 0
0 0.586889 1
1 0.0118262 0
0 0.900322 1
0 0.945164 1
0 0.507324 1
0 0.67607 1
0 0.75202 1
0 0.320122 1
1 5.96046e-08 0
0.726713 1 0.273287
0.0822296 1 0.91777
0.610888 1 0.389112
0 0.737519 1
1 5.96046e-08 0
0 0.524057 1
0 0.906965 1
1 0.704498 0
0.251928 1 0.748072
1 5.96046e-08 0
0.662185 1 0.337815
0 0.9719 1
0 0.557093 1
1 0.729485 0
0.501222 1 0.498778
0 0.843931 1
1 5.96046e-08 0
1 5.96046e-08 0
0.911976 1 0.0880241
0 0.768183 1
0.521779 1 0.478221
0 0.316624 1
0 0.324381 1
0.0609697 1 0.93903
1 0.822699 0
0.0604849 1 0.939515
1 5.96046e-08 0
1 0.734383 0
0 0.426261 1
1 5.96046e-08 0
0.19499 1 0.80501
0 0.152828 1
0 0.940084 1
0 0.424103 1
1 0.121584 0
0.662739 1 0.337261
0 0.262409 1
0.373274 1 0.626726
1 5.96046e-08 0
1 5.96046e-08 0
0.328107 1 0.671893
0 0.875576 1
0 0.433913 1
0 0.634404 1
0 0.873448 1
0 0.237217 1
0 0.648681 1
0 0.781543 1
0.745791 1 0.254209
0 0.447207 1
0 0.700444 1
0 0.510773 1
1 0.727337 0
0 0.125784 1
0 0.882913 1
0 0.860866 1
0 0.649142 1
0 0.971514 1
0 0.362941 1
0 0.75092 1
0 0.324804 1
0 0.260885 1
0 0.655794 1
0 0.783643 1
0 0.572665 1
0 0.696529 1
1 0.968229 0
0 0.37302 1
1 5.96046e-08 0
0 0.286423 1
0 0.946747 1
0.695557 1 0.304443
0 0.491891 1
0 0.775894 1
0 0.584293 1
0 0.603 1
0.194855 1 0.805145
0 0.574046 1
0 0.705864 1
0 0.439066 1
0 0.546152 1
0 0.561678 1
0 0.408068 1
0 0.849875 1
0.171677 1 0.828323
0 0.668593 1
0 0.257427 1
1 0.42013 0
0.202799 1 0.797201
0 0.622903 1
0 0.61582 1
0.188017 1 0.811983
0 0.8299 1
0 0.225769 1
0 0.532644 1
0 0.871262 1
0.982631 1 0.0173688
0.986099 1 0.0139005
0 0.769351 1
