# vtk DataFile Version 3.0
Particle simulation
ASCII
DATASET POLYDATA
POINTS 400 float
8.18142 3.99144 4.67371
1.62064 0 7.62978
9.14488 1.52259 9.10694
1.25134 8.21847 4.56553
0.422851 8.04635 5.6212
8.93169 10 4.57719
5.38494 7.64976 3.62397
0.26624 5.14087 7.37407
6.38052 2.68928 4.73702
3.7924 3.33652 0.73745
8.32206 0.393385 9.36543
6.39701 1.06266 0.184244
8.07573 8.82395 3.34859
5.5713 3.45684 8.00352
0 3.31935 6.40875
1.736 1.6938 1.10522
0.37736 2.17664 8.13677
3.50613 2.16824 0.926508
2.14179 9.49104 7.26967
6.76843 0.781742 7.73976
7.19938 7.67631 1.53647
0.768602 8.57639 3.73548
6.71105 6.43423 1.51006
7.21896 1.00535 3.94045
3.58494 8.80797 6.0054
4.99597 7.45344 5.90557
0.60191 7.04197 7.69157
3.10707 0 9.6484
4.16333 8.60274 5.24745
3.88807 1.23027 5.94533
9.40595 1.38081 2.17277
1.93749 4.81253 9.66951
8.04305 9.93598 7.11615
8.21425 8.05798 1.25802
2.05998 9.70349 7.80628
7.60483 9.36501 0.871491
6.55745 0 1.54439
2.92493 5.5117 2.00564
6.11236 0.206883 3.48408
9.27478 8.07186 6.73959
2.05239 9.67616 9.43561
6.80078 5.98703 8.97713
4.74758 2.34131 9.20785
6.89967 8.02152 3.87236
6.01217 7.30064 3.34439
8.34818 9.18514 3.13696
9.58269 1.24598 5.01916
6.35094 7.83787 7.42424
1.41436 0.513185 8.37376
2.40701 5.81707 9.4667
1.86795 4.61357 6.51671
2.41887 9.64824 3.59706
3.10534 2.63791 3.49919
0.347154 6.61094 5.35526
10 5.39198 4.61746
3.87876 1.25958 7.58056
7.30713 9.84253 3.60648
5.60279 0.2784 6.22281
4.10089 1.53118 6.05473
9.60742 9.40363 7.90726
4.34105 9.92472 6.4837
9.42073 1.93511 3.12025
6.05668 8.47228 9.11373
8.37275 0.953565 6.77299
10 1.90612 2.8084
7.62172 2.09376 7.28071
7.82434 5.57435 7.1139
10 3.91614 0.653235
1.39909 1.11414 5.2265
3.14126 1.41846 9.29311
9.94096 3.35414 10
6.51895 7.80553 0.595295
0.268263 8.71401 2.49555
7.99709 6.99701 8.54677
5.89263 1.82646 9.12973
1.59696 0.690605 9.86701
5.69728 7.70097 9.73748
4.2388 8.01209 6.62827
6.09754 1.69731 7.69391
9.1878 6.94458 4.43539
8.9879 4.10043 1.16613
4.09606 3.64199 2.74408
5.05184 9.73432 0.233859
7.80491 8.11706 5.11373
7.74161 2.92558 4.23481
5.53684 1.70193 7.53565
4.39327 5.35782 8.64154
5.11753 3.90662 7.88184
8.65398 3.45858 8.57799
0.875125 8.12124 9.82672
1.51235 3.25654 7.57916
9.63171 6.8947 3.07527
1.03075 0.00895241 7.04962
9.28574 5.5742 7.02384
8.63301 4.97304 1.01117
2.20199 9.67937 8.84395
7.90992 4.10542 9.77395
4.96566 8.00981 4.80539
8.64917 6.57666 7.02584
6.80115 5.6376 5.87519
3.69558 6.12432 2.01764
2.80332 5.96036 4.4779
4.95028 3.84943 3.87302
9.19111 3.93836 5.3153
8.48599 5.73957 1.59886
3.17002 9.83653 6.26791
2.4854 3.66566 0.184626
7.48319 3.73383 5.19406
9.89846 4.80147 3.32658
1.32803 6.82434 4.14093
6.1377 1.50413 9.47315
6.66609 1.85683 7.50274
0.565194 0.468088 6.13021
5.8964 6.48776 4.87769
8.17619 0.690693 9.16502
5.56905 6.04445 9.22071
2.32599 3.24973 4.43385
9.11868 2.4253 0.213459
6.8845 6.88851 3.47104
2.15509 4.42613 3.7468
2.54611 6.07643 9.88986
3.19016 7.89696 3.92178
5.34935 4.78467 5.97482
8.98335 5.85131 4.35015
4.21633 2.09086 10
6.00169 8.38269 3.40931
9.7295 8.74295 7.59682
1.08548 8.40751 8.41841
3.0823 7.77644 0
2.50505 6.39761 1.12595
8.84392 2.06348 0.723988
9.79503 2.68517 7.00031
2.34785 2.65222 3.79031
8.69943 3.70986 4.01416
0.822881 6.01655 2.61489
10 6.35275 7.00664
2.54699 0.995322 5.9077
9.3547 7.86159 1.75985
9.87787 2.30227 0.234198
9.89137 4.75934 3.8229
6.72732 0.240781 6.23722
1.28964 2.1562 2.14947
9.35576 6.93832 8.37697
10 5.86914 7.61174
8.79684 2.8016 9.88919
4.5691 6.65006 6.02979
7.13275 1.0175 2.32833
1.39057 3.68552 8.99214
7.37015 2.34263 6.14046
4.79292 9.39019 2.01549
6.7134 0.201329 6.1287
7.80487 0.274974 9.83944
0.552472 8.14854 7.21557
3.70883 6.12651 0.312646
3.82262 2.7383 5.46878
1.34027 4.54658 6.36738
2.97254 7.56328 3.91257
3.61493 1.03296 6.75098
3.86559 5.51026 2.59264
1.70122 3.40102 5.16043
2.50594 6.15687 6.19198
9.96571 2.04117 9.08277
4.29231 2.25033 2.15377
4.51624 5.13645 4.83258
7.10878 1.58599 10
0.121287 1.6567 2.72847
7.3412 0.199 8.42382
2.25659 9.20098 9.39617
7.85742 3.31859 9.62335
8.73945 2.02495 0.765683
8.28376 4.61716 6.77432
7.42365 4.13301 5.53063
5.48636 5.98668 6.37581
4.41686 5.2173 8.98205
8.23427 8.49331 8.81014
1.0912 8.90517 0.274001
4.6243 3.6791 8.1975
8.34801 0.816229 4.43715
5.49646 6.99621 5.3338
8.99634 3.23909 4.84569
3.25754 2.04257 7.03948
8.73324 8.92436 4.67774
2.71207 5.88859 7.44388
0.350604 1.31837 2.64599
8.20225 4.50907 7.19071
10 6.65674 4.78767
6.83352 0.280268 6.53462
3.52376 5.90421 2.50488
2.86634 4.42468 8.95117
0.580283 3.91222 3.96035
0.78124 0 1.06977
7.35744 0.137095 3.59797
9.35704 2.09952 3.50633
6.78064 0.430314 2.59896
8.46088 2.44055 7.84916
5.6988 4.33958 3.82374
1.64958 8.09855 4.64683
5.29507 6.74194 7.28156
5.46596 3.25653 9.59605
8.03831 6.71106 7.27698
7.32282 0.368615 6.45019
6.37834 0 0.151976
5.36608 9.02175 7.3602
4.54711 0 4.34252
7.72706 2.28729 4.48764
7.55424 6.63914 8.87708
6.65677 4.96168 0.913379
5.87921 9.55128 7.25051
7.61085 1.28985 1.2514
6.09066 1.50784 2.18722
6.74817 0.434219 6.71771
0.491083 9.79144 9.14
1.75421 8.66423 4.72474
3.64021 7.30517 8.68534
5.43432 2.74491 5.53506
0.488945 8.79395 8.96626
8.528 0.879543 5.57969
2.39769 7.755 9.53437
1.4137 4.2023 4.4789
7.93385 4.9356 1.37674
7.85766 5.29265 9.75496
8.62735 5.95422 2.87425
8.26316 5.93046 0.216535
8.45629 0.888774 5.43745
10 7.88432 9.96761
8.92844 5.77244 6.78357
1.73667 3.72547 0.48005
8.64305 8.92788 5.37215
6.74882 0.636682 6.34794
2.44482 3.90631 3.51958
1.51944 9.28956 8.33997
9.61483 7.64653 1.44418
9.92782 3.9358 2.721
10 7.02561 4.09999
3.2862 3.96935 2.39019
3.07115 2.32024 7.66641
9.75927 1.94799 4.64445
0.451463 0.124195 5.97561
6.73046 0.333435 6.39725
5.44604 9.82178 7.20582
8.62779 1.07609 5.34679
2.64575 6.62382 7.56784
4.33273 1.34474 7.68773
7.31862 9.50033 9.43268
5.48287 4.4819 4.27183
0.727319 5.0321 0.954343
9.0026 8.34424 6.80009
6.61443 4.59225 8.47941
2.84294 9.20828 0.653015
3.32764 2.95648 1.00694
8.39581 0.707991 5.35759
8.83012 1.33417 2.81177
1.52105 9.27388 0
9.76324 3.95906 0.675319
1.97079 3.01327 3.68532
6.08081 3.41538 5.12643
2.0028 9.501 6.84702
5.19592 3.46719 8.87255
9.49594 3.4754 7.90604
10 0.441401 0.668973
7.3925 5.19258 8.08327
9.28344 5.67554 1.97601
3.65906 7.0862 7.56894
3.04155 1.50227 9.28888
4.75122 6.89459 8.0695
7.31521 3.74882 4.99526
4.69285 1.94892 8.90602
0.679628 8.80641 7.97201
0 9.677 0.477788
3.11821 9.66131 9.65926
3.66265 9.42838 4.60596
3.4669 0.892964 0.637336
5.40265 1.44745 7.04579
9.91004 5.51917 8.27191
6.77139 0.594531 4.62709
3.25345 4.49796 8.37304
3.78751 8.84167 4.00577
2.51632 6.73557 8.65652
8.00698 0.998312 3.69489
7.44398 0.21986 6.53943
3.83042 7.84183 7.90238
8.46708 8.70714 8.54982
1.84042 4.21519 3.17098
9.82216 6.69625 6.06593
1.10884 6.09751 10
9.87784 1.32553 3.73854
4.58483 4.11687 1.52636
7.45779 3.47655 6.18594
1.79551 3.57951 0.0490724
2.73015 9.13109 0.0812104
1.87312 7.01212 8.54159
8.34857 9.45151 3.76934
7.09323 0.413745 8.77091
0.764557 2.06749 8.24083
3.21174 2.42446 4.3446
0.12968 0.406996 9.2525
7.04213 0.337114 6.09551
7.37814 0.370096 6.37786
6.80742 0.421489 6.42428
7.08345 0.416992 6.43608
1.42434 0 0.446225
1.50165 6.01939 5.49698
6.59304 0.441837 6.35835
8.35578 8.32917 1.08421
6.39411 0.364513 6.454
6.36354 2.31114 1.19554
7.3941 0.355264 6.42606
6.679 0.237322 6.37372
7.98107 5.81276 8.13913
3.90289 3.36258 3.36252
5.58134 4.09637 1.77135
1.46845 0.618182 7.19397
7.45278 5.18059 9.69566
7.18734 0.742966 6.08132
3.53061 7.52229 9.55376
9.92444 3.49084 9.54383
3.31781 3.78778 7.9885
0 0.94329 3.43652
2.01362 3.62755 7.32286
0 0.365057 7.84686
5.24282 6.10495 9.69015
1.51745 7.23349 2.27994
0.0893556 0.212865 9.31296
6.90878 0.294327 6.4673
7.15081 0.250122 6.10332
3.75355 7.44449 6.72505
6.93937 0.610029 6.33131
9.38055 0.309667 0.794311
5.56843 3.87047 7.40792
6.73826 0.480994 6.16662
8.33468 2.45213 5.33438
2.63168 5.14244 6.47066
7.42341 0.724172 5.00377
5.64068 7.36141 9.63223
7.47696 2.06221 6.03627
8.9353 3.03756 2.60975
4.43094 9.60055 2.31408
6.88236 0.416534 6.32794
8.96078 6.48138 4.41243
0.0883124 6.40037 6.08474
2.38012 8.62608 0.324213
0.503216 6.98018 1.01123
0 4.79693 8.8747
0.148822 0.184351 9.2992
7.08572 0.254773 6.72161
4.6608 1.30946 3.62066
8.81488 1.50203 7.62282
6.95972 0.406578 6.40179
6.66517 0.428687 6.34433
0 2.47704 0.219575
6.91037 0.224334 6.5185
6.76072 0.404252 6.24279
5.20048 7.03241 7.56926
2.87466 9.15387 6.8726
8.85168 3.59794 4.6612
6.5829 0.154698 6.07852
3.08824 7.31682 6.95627
1.25916 8.64219 6.01159
7.15473 0.365675 6.70075
6.91528 0.46185 6.28958
2.56218 4.5318 2.83724
0.147102 0.127707 9.33639
0.248399 0.190314 9.44099
6.97685 0.508354 6.6447
6.80001 0.273091 6.09098
5.25866 0.887535 8.1608
0.115212 0.439223 9.42161
3.477 1.09113 7.13223
0.656495 7.45825 9.25261
9.65547 2.98636 5.32006
8.57367 1.85845 7.83317
8.1074 7.03199 8.23299
10 1.54572 8.50488
6.97477 0.428885 6.20656
6.65102 0.354228 6.40092
8.58224 1.83687 8.19011
0.178344 0.322755 9.10902
2.6249 4.28722 6.21863
1.61723 3.60351 5.22599
8.61687 0.761578 5.59977
6.80858 0.550415 6.56583
6.78495 0.620418 6.51139
2.32447 0 7.90455
6.93943 0.635589 6.46026
4.79126 6.51466 7.54345
0.0980356 0.432865 9.2374
7.10208 0.521274 6.7683
6.82623 0.252561 6.34139
5.95019 4.91107 2.19782
2.15556 3.73975 9.73361
7.29648 0.372009 6.42451
6.80262 0.687392 6.17081
3.80806 4.20718 6.83664
6.6817 0.566462 6.41859
3.653 2.14139 6.61504
4.72795 3.45625 9.17538
6.88999 0.502088 6.24583
1.59507 9.16711 2.02127
9.82803 9.12378 1.40031
4.69012 5.05915 7.31936
POINT_DATA 400
SCALARS particleColor float 3
LOOKUP_TABLE default
1 0.911043 0
0.930482 1 0.0695176
0 0.970702 1
1 5.96046e-08 0
1 0.0345543 0
0.880411 1 0.119589
0 0.819549 1
0.798855 1 0.201145
1 0.76574 0
0.806295 1 0.193705
1 5.96046e-08 0
1 0.605802 0
1 0.936604 0
0.533586 1 0.466414
1 0.519901 0
0.935243 1 0.0647573
1 0.936391 0
1 5.96046e-08 0
0.630682 1 0.369318
1 5.96046e-08 0
1 5.96046e-08 0
1 0.5336 0
1 0.966581 0
0.241404 1 0.758596
0.139315 1 0.860685
1 5.96046e-08 0
1 5.96046e-08 0
1 5.96046e-08 0
1 0.536267 0
0.583034 1 0.416966
0.458988 1 0.541012
0.896875 1 0.103125
1 0.752297 0
1 5.96046e-08 0
0.936603 1 0.0633966
1 5.96046e-08 0
1 5.96046e-08 0
0.256361 1 0.743639
0.261336 1 0.738664
0.282254 1 0.717746
1 5.96046e-08 0
1 5.96046e-08 0
1 0.385823 0
1 0.794404 0
1 0.749626 0
1 5.96046e-08 0
1 5.96046e-08 0
1 5.96046e-08 0
0.902861 1 0.0971395
1 0.236641 0
0.862257 1 0.137743
1 0.137209 0
0.528598 1 0.471402
0.456226 1 0.543774
1 5.96046e-08 0
0.805279 1 0.194721
0.807449 1 0.192551
0 0.577767 1
0.386933 1 0.613067
0.112546 1 0.887454
1 5.96046e-08 0
1 5.96046e-08 0
1 0.463342 0
1 0.107923 0
1 5.96046e-08 0
1 5.96046e-08 0
0.776821 1 0.223179
1 0.854757 0
1 5.96046e-08 0
0 0.411359 1
0.561635 1 0.438365
1 0.353575 0
1 0.623534 0
1 5.96046e-08 0
0.441617 1 0.558383
0.263955 1 0.736045
0.216758 1 0.783242
1 5.96046e-08 0
0 0.657165 1
0.278116 1 0.721884
0.561185 1 0.438815
0.864937 1 0.135063
1 0.811624 0
1 0.908202 0
1 5.96046e-08 0
1 0.610364 0
0.382186 1 0.617814
1 0.650432 0
1 5.96046e-08 0
1 5.96046e-08 0
0.362388 1 0.637612
1 5.96046e-08 0
0.691957 1 0.308043
1 0.311778 0
1 5.96046e-08 0
0 0.808458 1
0.642442 1 0.357558
1 5.96046e-08 0
1 5.96046e-08 0
1 5.96046e-08 0
0.391092 1 0.608908
1 5.96046e-08 0
1 5.96046e-08 0
1 5.96046e-08 0
1 0.978339 0
1 0.958836 0
0.872661 1 0.127339
0.529022 1 0.470978
0.634908 1 0.365092
0.246475 1 0.753525
0 0.267052 1
0 0.795382 1
1 0.459098 0
0.159788 1 0.840212
0.0763609 1 0.923639
1 5.96046e-08 0
1 5.96046e-08 0
1 5.96046e-08 0
1 0.378697 0
1 5.96046e-08 0
0.661037 1 0.338963
1 0.552265 0
1 5.96046e-08 0
1 5.96046e-08 0
1 5.96046e-08 0
1 5.96046e-08 0
1 0.809386 0
1 0.293531 0
1 5.96046e-08 0
1 0.76579 0
1 0.230508 0
1 0.0866449 0
1 5.96046e-08 0
1 0.0368705 0
1 0.826758 0
0.321839 1 0.678162
1 0.655583 0
1 5.96046e-08 0
1 5.96046e-08 0
1 5.96046e-08 0
0 0.395373 1
1 5.96046e-08 0
0.397586 1 0.602414
1 5.96046e-08 0
1 5.96046e-08 0
1 0.681295 0
1 5.96046e-08 0
1 5.96046e-08 0
1 5.96046e-08 0
1 5.96046e-08 0
0 0.512483 1
1 0.703379 0
0 0.887965 1
0.89839 1 0.10161
1 0.748094 0
0 0.958752 1
0.493113 1 0.506887
0.713844 1 0.286156
0 0.774618 1
1 5.96046e-08 0
1 5.96046e-08 0
1 0.772787 0
0.648679 1 0.351321
0.402478 1 0.597522
1 0.187249 0
0.448309 1 0.551691
1 0.635814 0
1 5.96046e-08 0
1 0.735635 0
0 0.975676 1
0.49022 1 0.50978
0.868321 1 0.131679
1 5.96046e-08 0
1 0.193182 0
1 0.650928 0
1 0.353898 0
0.429681 1 0.570319
1 0.554787 0
1 5.96046e-08 0
1 0.805245 0
1 0.372635 0
0.0343485 1 0.965651
0.677585 1 0.322415
1 0.0279775 0
1 0.312129 0
1 5.96046e-08 0
0 0.520078 1
1 5.96046e-08 0
1 0.602129 0
0.453084 1 0.546916
1 5.96046e-08 0
1 5.96046e-08 0
1 5.96046e-08 0
1 0.764817 0
1 5.96046e-08 0
0.792459 1 0.207541
0.484099 1 0.515901
0.122023 1 0.877977
1 5.96046e-08 0
0.975734 1 0.0242658
0 0.577629 1
1 5.96046e-08 0
0.875942 1 0.124058
1 0.25947 0
1 5.96046e-08 0
1 5.96046e-08 0
1 5.96046e-08 0
1 0.641957 0
1 5.96046e-08 0
1 5.96046e-08 0
0 0.534947 1
0.606858 1 0.393142
0.222737 1 0.777263
1 5.96046e-08 0
1 0.613315 0
0.713889 1 0.286111
0 0.86508 1
1 5.96046e-08 0
1 5.96046e-08 0
1 5.96046e-08 0
1 5.96046e-08 0
1 0.347115 0
1 0.682595 0
0 0.539664 1
1 5.96046e-08 0
1 0.423021 0
1 0.233585 0
1 5.96046e-08 0
0 0.314114 1
0.0219224 1 0.978078
1 5.96046e-08 0
0 0.801441 1
0.54724 1 0.45276
0.929352 1 0.0706485
1 0.677267 0
1 5.96046e-08 0
1 5.96046e-08 0
1 0.738209 0
0 0.337045 1
0.705068 1 0.294932
0 0.839508 1
0.805165 1 0.194835
1 5.96046e-08 0
1 0.396164 0
1 5.96046e-08 0
1 5.96046e-08 0
0 0.988933 1
1 5.96046e-08 0
1 0.715298 0
1 0.257865 0
0 0.926611 1
0.862185 1 0.137815
1 5.96046e-08 0
1 5.96046e-08 0
1 0.54746 0
0.859188 1 0.140812
1 5.96046e-08 0
0 0.597826 1
1 5.96046e-08 0
0.14501 1 0.85499
0.259006 1 0.740994
1 5.96046e-08 0
0.761212 1 0.238788
1 5.96046e-08 0
1 5.96046e-08 0
0 0.74931 1
1 5.96046e-08 0
1 0.83082 0
1 5.96046e-08 0
1 0.414175 0
1 5.96046e-08 0
1 5.96046e-08 0
1 0.871745 0
1 0.255962 0
0 0.83414 1
1 0.985891 0
1 5.96046e-08 0
1 0.502921 0
0.549 1 0.451
0 0.583808 1
1 5.96046e-08 0
0.877097 1 0.122903
1 0.524066 0
0.341267 1 0.658733
1 5.96046e-08 0
0 0.788759 1
1 0.677876 0
1 5.96046e-08 0
0.616612 1 0.383388
1 5.96046e-08 0
1 5.96046e-08 0
0.563473 1 0.436527
0.636309 1 0.363691
1 0.115797 0
1 5.96046e-08 0
0 0.265827 1
0 0.19682 1
0 0.378778 1
0.0486371 1 0.951363
0 0.953367 1
0 0.90589 1
1 0.229165 0
0 0.468869 1
0.318078 1 0.681922
0 0.652197 1
0.230283 1 0.769717
0 0.247216 1
0 0.345028 1
1 5.96046e-08 0
1 0.820356 0
1 5.96046e-08 0
0.905602 1 0.094398
1 5.96046e-08 0
0 0.877241 1
1 5.96046e-08 0
1 5.96046e-08 0
1 5.96046e-08 0
1 0.643683 0
1 0.225668 0
1 5.96046e-08 0
1 5.96046e-08 0
0.729113 1 0.270887
0 0.478448 1
0 0.350952 1
0 0.697216 1
1 5.96046e-08 0
0.00293878 1 0.997061
0.499988 1 0.500012
0.526808 1 0.473192
0 0.443944 1
0.488649 1 0.511351
1 5.96046e-08 0
1 0.832213 0
0.137801 1 0.862199
0 0.904013 1
1 5.96046e-08 0
0.204632 1 0.795367
0 0.322866 1
1 5.96046e-08 0
0.249927 1 0.750073
1 5.96046e-08 0
1 5.96046e-08 0
1 0.903681 0
0 0.708127 1
0.355825 1 0.644175
0.121945 1 0.878055
0 0.370812 1
0.25975 1 0.74025
0 0.886317 1
0.150824 1 0.849176
0 0.858047 1
0.239475 1 0.760525
1 5.96046e-08 0
1 0.21643 0
1 5.96046e-08 0
0 0.242427 1
0.45844 1 0.54156
0.167755 1 0.832245
0 0.706149 1
0 0.561989 1
0.878435 1 0.121565
0 0.637117 1
0 0.350682 1
0 0.657217 1
0 0.523063 1
1 5.96046e-08 0
0 0.558731 1
1 0.415193 0
1 5.96046e-08 0
1 0.0621327 0
0 0.745402 1
0 0.879251 1
0.89293 1 0.10707
0 0.989529 1
0.237688 1 0.762312
0 0.90309 1
0 0.621635 1
0.745325 1 0.254675
1 0.00358778 0
0 0.319673 1
0 0.74366 1
0 0.482321 1
1 5.96046e-08 0
0 0.849273 1
1 5.96046e-08 0
0 0.304498 1
0 0.261251 1
0 0.92781 1
1 5.96046e-08 0
1 0.702706 0
0 0.402586 1
0 0.366481 1
0.970088 1 0.0299121
0 0.976302 1
1 0.395459 0
0 0.941185 1
0 0.974021 1
1 0.770624 0
1 0.838388 0
0 0.850349 1
