# vtk DataFile Version 3.0
Particle simulation
ASCII
DATASET POLYDATA
POINTS 400 float
3.67265 5.54071 5.2227
6.93424 8.61984 2.31006
9.82531 6.96319 6.70015
8.12488 8.01598 8.70221
0.784553 8.78633 6.16657
9.15993 9.02837 1.77494
0.832278 7.80487 9.65194
1.59107 5.24516 2.54806
8.56973 6.67896 7.40194
9.72225 2.7308 4.83764
7.15289 3.35866 7.7902
1.04488 0.188168 1.6741
3.24028 8.13632 7.85596
6.00307 9.83986 7.69573
6.65831 3.6795 8.82279
6.30223 5.37413 5.07349
7.87802 7.70265 8.90747
3.2489 0.260735 1.05365
0.58535 1.51476 7.86755
4.47141 5.18541 6.80913
2.99711 0.347842 1.35098
4.51032 4.08772 0.7806
9.58556 2.69901 8.53596
2.14318 3.34713 2.60449
3.322 5.18749 1.90834
9.77777 8.76215 1.67893
9.59455 8.76296 7.18068
10 8.85376 9.22078
8.72263 4.43556 3.6436
0.350558 5.88986 5.9546
2.28332 4.19199 8.14833
7.40828 3.59229 1.11297
8.24421 5.76964 2.0738
1.64771 4.51801 4.80554
9.57611 2.12576 10
6.61324 7.07034 2.79822
2.42119 9.64434 2.80016
3.22374 0.278959 1.92784
10 3.60938 1.33885
0.71348 7.05512 7.90464
4.65498 2.76835 8.26719
0.495937 9.62329 9.54719
6.16419 6.33496 3.02636
4.6214 0.13279 2.20898
7.8065 0.255624 0.483304
5.37014 4.15923 1.26261
6.25594 9.85666 7.11963
9.41111 1.36888 0.935031
4.85594 1.61747 2.35611
8.68283 1.03371 2.81944
3.75387 4.95478 7.4145
1.36881 6.57619 2.08301
9.58484 6.12985 5.29777
1.77565 9.40266 5.17177
0 0.150879 6.18839
5.7938 0.539137 2.32305
0.120013 6.04079 1.2116
7.02441 8.06166 0.0993171
2.68426 4.39502 4.49211
6.84547 7.58931 1.78095
3.87697 1.62982 2.13299
0.695863 9.25932 0.97368
2.95865 0.821035 3.19148
9.04253 6.46457 3.26033
7.74755 1.60817 9.00329
5.50788 9.91324 3.25267
8.46085 2.25156 6.98052
6.66138 6.73961 7.2504
5.14394 4.92655 6.7946
1.03781 9.98815 5.68088
1.42984 5.17228 2.41898
3.3412 1.89241 1.10221
8.20923 1.28647 5.73335
3.02223 0.909158 5.78365
0.839402 2.22909 9.8052
10 0.926904 8.47995
1.57935 7.10639 6.51768
2.68304 6.19412 2.34039
0.0524475 5.47458 1.68453
3.71435 5.24307 1.70918
3.33695 0.281757 1.22887
4.4277 2.88909 6.15279
2.2168 0.159145 7.98417
3.01866 7.53549 3.62544
9.47741 3.18597 8.40756
0.463291 8.77045 7.98023
7.00792 6.93866 5.4284
6.46725 6.47811 7.28948
5.03138 1.60663 6.3517
5.10929 10 2.2618
3.18157 0.313372 1.38934
3.20504 9.77625 2.35218
2.93135 7.76255 7.65937
5.38053 9.73619 6.90754
4.53815 4.92873 3.37937
7.47053 5.29944 8.2617
7.30327 6.16919 5.36257
1.13987 8.59243 6.01789
5.82342 6.28744 1.99963
0.378145 9.91491 2.60409
3.24884 0.17261 2.01268
4.00407 4.09727 8.73618
5.60825 3.85676 0.656936
4.50931 0.565407 0.962338
9.85202 8.29005 6.34662
0.519486 1.24815 6.24145
6.00404 9.40653 1.39266
5.55595 6.97818 3.17974
9.21068 6.04121 9.96058
6.71569 2.24597 7.30746
7.27375 5.32324 7.34791
8.69286 5.87304 5.45712
10 0 8.69509
9.33953 0.819933 2.66669
0.33034 0.513777 1.37278
8.25602 2.89352 0.22011
2.48437 0.538554 9.42835
9.70835 2.32694 8.53225
6.85103 0.890675 4.76981
8.86611 6.49521 3.3172
2.4161 6.63941 2.78501
5.25065 1.136 6.68014
9.5279 9.56372 7.96211
3.77315 4.15654 9.11094
9.29185 5.18345 2.23273
3.18217 0.218583 0.972828
0.0434086 3.14454 8.77324
2.84693 3.61657 9.24308
5.90908 1.85923 3.59194
0.682729 6.24245 7.98678
6.79019 8.10927 4.82906
8.22206 5.04801 0
1.18887 5.3493 8.46099
6.87278 1.2952 1.41445
0.0644502 0.28048 6.79427
8.45778 4.26492 0.938221
6.4686 0.573165 9.14785
4.57264 0.990652 7.12236
5.76249 4.39445 10
1.12096 6.26358 1.07008
3.27365 0.356667 1.90253
8.85286 5.38165 3.80804
2.16638 1.4428 2.61666
0.302371 8.5953 6.72216
0.267824 0.815487 1.35403
3.11067 4.58226 4.3722
3.2089 2.70084 9.10294
5.43817 7.70621 7.88515
1.56462 2.13683 0.654587
8.17437 5.03467 3.41879
2.93402 0.212619 1.5442
8.77599 6.94887 1.28865
9.56056 1.4376 6.60547
2.82599 0.107703 1.48085
8.45733 0.588084 2.62213
5.30506 0.356182 2.35451
0.381818 9.48831 1.29966
0.56398 1.24883 0.111432
9.47912 9.08411 8.62636
2.74246 1.53354 7.61039
4.2427 1.15235 6.75734
8.9957 4.82291 8.52631
3.67162 8.27211 6.44999
0.245811 0.773495 9.64809
3.87474 1.05969 1.31852
0.648169 1.63809 6.77084
6.26668 7.78853 7.71572
9.63058 2.95112 5.38734
9.03901 0.292749 8.37345
4.72684 5.85181 8.17396
3.22993 0.0579823 1.54011
2.2847 8.74909 3.9013
3.02351 0.288919 3.93456
0.635003 1.71159 3.22885
2.96067 1.12376 5.64681
9.37581 7.25188 6.9208
1.99459 0.454231 5.47244
7.99626 8.14006 9.4045
6.75876 1.92844 6.21707
7.94943 3.36763 7.36063
3.35502 0.524258 1.85197
4.79769 7.20227 1.01967
6.29825 7.96645 7.97478
1.41076 7.2966 7.19321
7.36399 6.17501 6.13188
7.43249 2.8826 0.481364
3.37507 0.0750523 1.64472
0.118766 2.69803 9.15554
4.97906 0.68862 1.50597
0.300653 0.476322 1.30724
3.47428 0.409736 1.78043
3.47084 0.326881 1.72432
8.17242 6.12336 7.73735
5.16121 9.40643 7.32368
8.32821 2.59638 4.70444
3.11296 0.570378 2.1582
7.98624 1.94718 4.78483
0.198228 2.57169 8.9097
3.58475 0.0938055 1.96977
3.37477 0.344121 1.90573
3.49797 0.700048 1.56993
8.63076 2.20494 2.34453
3.95875 7.84911 6.27909
7.61403 2.86493 3.81209
6.58692 3.01796 0
2.7446 2.63627 9.57753
3.35397 0.247403 1.10903
8.00554 1.26649 2.08713
2.12041 0.865296 9.95141
6.8479 0.584265 7.62744
3.24248 0.315018 1.72426
3.58567 0.515095 1.48673
1.68407 6.24803 7.83485
0.354014 6.70587 8.58675
6.71516 2.78698 7.5012
3.63561 1.40231 9.75114
3.0889 0.556131 1.49243
4.89831 1.72022 2.49747
4.18134 7.04633 3.72522
4.8576 0.602242 1.36448
7.58375 8.29969 5.47776
1.69207 2.59295 8.95564
1.16261 4.79392 4.93808
3.20477 0.102676 1.36958
7.16423 2.83605 8.3525
2.41956 3.42208 7.50055
5.72555 9.45541 4.19224
3.24341 0.599023 1.30355
3.47011 0.343602 1.171
9.36291 3.38321 5.15737
8.13254 5.95095 7.25273
8.52347 1.1771 9.4745
3.3132 1.40483 5.35628
3.07441 0.662503 0.989154
2.63569 0.742958 9.62326
5.57948 9.34066 4.37118
7.72601 0.41961 4.77395
3.71472 6.26964 6.80315
2.97577 0.0913533 1.28529
6.47571 9.22463 3.84146
3.46936 0.614409 1.33265
2.95075 0.409982 2.10754
3.22525 0.430699 1.03165
3.11659 0.427336 1.13834
5.24498 0.368988 8.58257
2.93092 2.81711 9.57508
4.22741 1.58947 6.80808
5.66077 1.44559 0.435428
4.02471 8.8846 7.80117
0.108159 6.70655 4.34033
3.6297 0.601689 1.37477
4.63793 4.33532 3.74302
2.54523 0.799097 8.77948
1.53645 6.52243 1.58501
7.69393 0.272431 0.421154
3.2582 0.101999 2.02601
0.839493 6.98729 1.33805
2.52347 0.845962 9.37714
0.436191 5.76055 7.96978
2.54487 0.666312 9.60684
3.43627 0.203087 1.52038
8.79029 8.09225 1.00688
7.31666 1.88155 4.03239
3.99969 1.41957 3.37611
2.60596 0.643217 9.00106
9.04211 8.8577 0.582984
7.40025 0.369434 0.910158
2.53028 0.536613 9.47633
1.86412 6.03457 9.34144
2.77453 0.289016 1.5254
3.83146 0.520813 1.1803
8.39619 5.81014 7.75235
0.357832 0.398374 7.32156
3.81122 9.81924 3.97919
7.17816 1.18449 0.238269
3.2917 1.53672 3.48837
10 6.58679 1.26799
0.253611 2.9376 9.51827
0.391305 3.62007 1.01713
3.07205 0.196975 1.4124
3.60324 0.695402 4.16823
7.14614 0.316808 1.28967
8.13857 2.85471 2.50511
6.39134 0.636716 8.15471
9.58558 8.06651 7.61105
3.10639 0 2.58278
3.62328 0.0893994 1.42034
2.23947 1.29827 4.84842
3.20736 4.10882 6.5963
8.84551 10 4.53539
5.41327 9.12856 1.64623
9.79535 0.782731 5.74167
2.81852 0.0371465 1.30043
1.94768 0.623489 5.14316
3.17997 0.654164 8.69098
2.46937 1.04507 9.05494
3.34762 0.343791 1.69282
3.75721 0.56686 1.37917
0.751446 1.99823 3.18612
3.00805 0.304415 1.89261
2.45674 0.182264 3.0457
7.73486 2.60931 3.8258
8.97921 1.15088 6.54009
2.88068 7.37896 0.800576
3.43681 0.291373 1.5676
1.83903 0.46308 5.70862
3.28253 0.361706 1.62342
2.95932 0.306414 1.59035
4.00507 0.905352 0.754411
9.80741 6.80808 1.04093
9.44384 1.27418 9.78705
4.48517 8.10199 7.58114
1.27852 5.6084 9.4005
3.16565 0.137045 1.26545
8.22059 1.54889 9.57954
3.61488 0.407791 5.29066
1.26787 1.70683 5.44294
1.61116 4.76937 8.87312
6.51168 0.787077 6.37734
0.302772 7.63881 2.17614
2.46575 0.487807 9.76275
5.77561 6.62096 5.38295
2.33208 0.757503 8.99678
3.7979 0.432435 1.36316
3.25344 0.654022 4.2319
6.07303 8.15243 0.695725
3.45189 0.581664 1.04303
6.85817 7.22924 3.46891
1.12136 5.07023 0.238193
3.33035 0.263408 1.71956
5.48687 0.466398 5.71755
2.6663 0.463925 1.0525
4.12785 0.700276 9.1654
3.14746 0.354262 0.924793
7.33077 0.552729 1.1782
3.02885 5.23707 5.26002
0.370762 5.88235 8.41307
3.20675 0.424514 1.45513
4.48962 8.56704 3.05845
9.8805 5.62914 9.45437
4.98014 2.56154 7.23434
9.28264 6.25615 9.79513
4.03254 0.647821 9.37289
2.61264 0.65677 9.60318
3.38059 0.416868 1.38052
3.03056 0.206999 1.86923
7.70622 0.848506 1.42376
3.38778 0.13576 1.6205
3.44183 0.0505746 1.1749
8.22581 9.75855 9.16875
3.16373 0.500251 1.8844
3.21871 0.178962 1.33196
1.03764 1.6182 3.82853
2.52804 0.853433 8.6534
2.86985 0.0553293 1.07458
3.60627 0.188643 1.15139
3.35868 0.920748 5.80801
3.9044 1.05981 9.20833
3.28307 0.533612 1.36486
3.341 0.131813 1.96959
6.97527 0.530399 1.04554
2.59401 0.722977 9.68056
2.42386 0.777545 9.18696
3.12995 0.666092 1.37755
3.1789 0.605264 1.19654
7.51581 0.458196 1.42388
2.64469 0.889126 9.48621
0.092143 8.71178 0
2.04611 0.643854 9.63448
1.76586 6.36457 3.5719
6.98126 0.57266 0.949126
5.70229 4.50045 4.70256
2.24446 0.310897 8.09649
3.30446 0.0926467 1.59224
3.72142 0.653457 1.29258
7.46899 0.220586 1.05719
2.71922 0.601613 9.04991
2.34395 0.500858 9.76104
4.02067 0.679076 9.65847
3.40937 0.722924 1.46482
3.69712 0.0975978 1.69155
2.82362 0.257402 1.86385
3.9412 0.638108 9.61314
2.92997 0.503018 1.50629
1.60623 1.11307 5.53103
2.43637 0.641644 9.68547
3.47225 0.482042 1.36189
3.33937 0.205159 1.60875
2.71551 4.20657 1.46762
6.91419 0.579737 0.345151
3.32509 0.364234 2.07455
3.04764 0.39452 1.88393
2.19839 0.793137 9.19676
3.09483 0.157997 1.72156
1.92099 0.305704 5.61814
2.55314 0.732015 9.17694
3.43874 0.493798 1.45642
4.32999 0.560774 5.04121
7.65407 0.885129 0.492283
6.95246 0.767916 0.855412
POINT_DATA 400
SCALARS particleColor float 3
LOOKUP_TABLE default
1 5.96046e-08 0
0.434828 1 0.565172
0.515978 1 0.484022
1 5.96046e-08 0
1 5.96046e-08 0
0 0.3439 1
1 0.0819889 0
1 5.96046e-08 0
0.880168 1 0.119832
1 5.96046e-08 0
0.684771 1 0.315229
1 0.278607 0
0.231121 1 0.768879
0.537089 1 0.462911
1 5.96046e-08 0
0.778853 1 0.221147
0.391446 1 0.608554
0 0.650667 1
0.241841 1 0.758159
1 5.96046e-08 0
0 0.474577 1
1 5.96046e-08 0
0.504865 1 0.495135
0.898491 1 0.101509
1 0.114912 0
0.49232 1 0.50768
0.221834 1 0.778166
1 5.96046e-08 0
0.624898 1 0.375102
1 5.96046e-08 0
0 0.751159 1
1 5.96046e-08 0
1 5.96046e-08 0
0.77495 1 0.22505
1 5.96046e-08 0
1 5.96046e-08 0
0.908119 1 0.0918809
0 0.574965 1
0.289249 1 0.710751
0.895243 1 0.104757
1 0.546878 0
0.823066 1 0.176934
0.442377 1 0.557623
0.773497 1 0.226503
0 0.787082 1
1 5.96046e-08 0
0.452407 1 0.547593
0.50813 1 0.49187
0.0929636 1 0.907036
1 5.96046e-08 0
0.275064 1 0.724936
1 0.8944 0
0.0440264 1 0.955974
1 0.399537 0
1 5.96046e-08 0
0 0.421051 1
1 0.615259 0
1 5.96046e-08 0
1 0.980309 0
0.564245 1 0.435755
1 5.96046e-08 0
0.760049 1 0.239951
1 0.20058 0
0 0.68162 1
1 0.756169 0
1 5.96046e-08 0
0 0.759642 1
1 0.0153013 0
0.385876 1 0.614124
1 0.142144 0
0.968978 1 0.0310219
0.115309 1 0.884691
0.761343 1 0.238657
0.632462 1 0.367538
1 5.96046e-08 0
1 5.96046e-08 0
0.407869 1 0.592131
0 0.695313 1
0.0744617 1 0.925538
1 0.436165 0
0 0.586548 1
1 0.44259 0
0.271305 1 0.728696
1 0.384195 0
0 0.974891 1
0.219115 1 0.780885
1 5.96046e-08 0
0.596311 1 0.403689
0.259189 1 0.740811
1 5.96046e-08 0
0 0.802871 1
0.335108 1 0.664892
1 0.565497 0
1 5.96046e-08 0
1 0.165015 0
0.104946 1 0.895054
1 5.96046e-08 0
1 0.865259 0
1 5.96046e-08 0
0.882817 1 0.117183
0 0.938697 1
0.540315 1 0.459685
0 0.796373 1
0.680767 1 0.319233
1 5.96046e-08 0
1 5.96046e-08 0
1 5.96046e-08 0
1 0.981297 0
0.1979 1 0.8021
1 0.996175 0
1 5.96046e-08 0
1 5.96046e-08 0
1 5.96046e-08 0
1 5.96046e-08 0
0.359252 1 0.640748
0.852799 1 0.147201
0 0.675904 1
0.899503 1 0.100497
0.905052 1 0.0949479
0.7778 1 0.2222
1 0.00975722 0
1 5.96046e-08 0
1 5.96046e-08 0
0 0.987738 1
0.0768267 1 0.923173
0 0.730018 1
1 0.632476 0
0 0.677399 1
0.418778 1 0.581222
1 0.990368 0
0 0.995371 1
1 5.96046e-08 0
0 0.953111 1
0.462612 1 0.537388
0 0.428851 1
1 0.379915 0
0.776453 1 0.223547
0 0.752453 1
1 5.96046e-08 0
0.15752 1 0.84248
0 0.813501 1
1 0.00450462 0
1 5.96046e-08 0
1 5.96046e-08 0
0 0.578718 1
0.704081 1 0.295919
1 0.55224 0
1 0.637099 0
0 0.240693 1
0.694605 1 0.305395
0 0.678628 1
1 0.406434 0
1 5.96046e-08 0
0 0.347875 1
1 5.96046e-08 0
0 0.903063 1
1 0.814104 0
1 0.604877 0
0 0.864961 1
0.579162 1 0.420838
0 0.954738 1
0 0.548762 1
0.882667 1 0.117333
0.96602 1 0.0339801
0.809039 1 0.190961
1 5.96046e-08 0
0.241617 1 0.758383
0.772599 1 0.227401
1 0.210304 0
1 5.96046e-08 0
0 0.534787 1
0 0.747208 1
0 0.799061 1
0.856516 1 0.143484
0 0.750691 1
1 0.13118 0
0.874613 1 0.125387
1 0.661756 0
1 0.940586 0
0.442043 1 0.557957
0 0.452641 1
0.42975 1 0.57025
0 0.835788 1
0 0.86661 1
0.764331 1 0.235669
0.424835 1 0.575165
0 0.784027 1
1 0.55581 0
0 0.666692 1
0.387064 1 0.612936
0 0.439386 1
0 0.663262 1
0.238084 1 0.761916
1 5.96046e-08 0
1 5.96046e-08 0
0 0.469691 1
1 0.807153 0
0.766038 1 0.233962
0 0.708692 1
0 0.501529 1
0 0.12122 1
0.886218 1 0.113782
0.207118 1 0.792882
0.188364 1 0.811636
1 5.96046e-08 0
0 0.648102 1
0 0.465031 1
1 5.96046e-08 0
0.478679 1 0.521321
1 5.96046e-08 0
0 0.550892 1
0 0.504741 1
1 5.96046e-08 0
1 0.816207 0
0.835512 1 0.164488
0 0.568795 1
0 0.542211 1
0.426098 1 0.573902
0.144851 1 0.855149
0 0.907382 1
1 5.96046e-08 0
0.188908 1 0.811092
1 0.0584405 0
0.00678852 1 0.993212
0.948298 1 0.0517021
1 5.96046e-08 0
0.565284 1 0.434716
0 0.993674 1
0 0.702757 1
1 0.625436 0
1 5.96046e-08 0
0.0167665 1 0.983234
1 0.727214 0
0 0.465208 1
0 0.397988 1
1 0.733998 0
0.724347 1 0.275653
1 0.881312 0
0 0.780321 1
1 5.96046e-08 0
0 0.497834 1
0.150802 1 0.849198
0 0.537663 1
0 0.596419 1
0.323193 1 0.676807
0.921678 1 0.0783225
0.275626 1 0.724374
0 0.805868 1
0.53033 1 0.46967
0.931954 1 0.0680456
0.101114 1 0.898886
1 5.96046e-08 0
0 0.863446 1
0.987321 1 0.012679
0.161247 1 0.838753
0 0.825046 1
1 5.96046e-08 0
0 0.657696 1
0 0.771955 1
0 0.328264 1
0 0.882694 1
1 5.96046e-08 0
0 0.819964 1
0.103965 1 0.896035
0 0.513684 1
1 0.717728 0
0 0.698934 1
0 0.296568 1
0.232141 1 0.767859
0 0.529972 1
0 0.811547 1
0.0603019 1 0.939698
1 5.96046e-08 0
0.236582 1 0.763418
0 0.632913 1
0 0.933943 1
0 0.818483 1
1 5.96046e-08 0
1 5.96046e-08 0
0 0.159142 1
0 0.238864 1
0 0.231268 1
1 0.409889 0
0.109187 1 0.890813
0 0.914225 1
1 5.96046e-08 0
0 0.194069 1
0.710131 1 0.289869
1 5.96046e-08 0
1 5.96046e-08 0
1 5.96046e-08 0
0.0525765 1 0.947423
0 0.811783 1
0 0.612679 1
0.2804 1 0.7196
0 0.506289 1
0 0.572929 1
0 0.313731 1
0 0.745827 1
0 0.187549 1
0.718274 1 0.281726
0 0.719387 1
0.349183 1 0.650817
0 0.58739 1
0 0.799539 1
0 0.563357 1
0 0.882394 1
0 0.582115 1
0 0.756811 1
0 0.599486 1
0.508917 1 0.491083
1 5.96046e-08 0
0 0.477662 1
0 0.514506 1
0.047001 1 0.952999
0 0.648748 1
0 0.940668 1
0.748935 1 0.251065
0 0.7955 1
0.704935 1 0.295065
0 0.668169 1
1 5.96046e-08 0
0 0.199401 1
0 0.479155 1
0 0.864755 1
0 0.871717 1
0 0.493159 1
0.901912 1 0.0980884
1 5.96046e-08 0
0 0.690839 1
0.583626 1 0.416374
0 0.514584 1
0 0.638515 1
0.0160897 1 0.98391
0 0.42098 1
1 0.0781181 0
0 0.388726 1
0 0.486391 1
0.979326 1 0.0206736
0.487117 1 0.512883
1 5.96046e-08 0
0 0.974843 1
0 0.331222 1
0 0.275943 1
0 0.521637 1
0 0.830312 1
0 0.338774 1
0 0.786311 1
0 0.554806 1
0 0.79268 1
0 0.920776 1
0 0.637832 1
0.0263718 1 0.973628
0 0.897144 1
0 0.63041 1
0 0.819501 1
0 0.277339 1
0 0.386211 1
0.393453 1 0.606547
0 0.252947 1
0 0.292113 1
0 0.699186 1
0 0.6288 1
0.139563 1 0.860437
0 0.716306 1
0 0.94846 1
0 0.384705 1
0.661669 1 0.338331
0 0.377702 1
1 5.96046e-08 0
0 0.362058 1
1 0.261334 0
0.870983 1 0.129017
0 0.866973 1
0 0.65189 1
0 0.568258 1
0 0.715939 1
0 0.978456 1
0 0.424782 1
0 0.904573 1
0 0.282421 1
0 0.322115 1
0 0.899885 1
0 0.676354 1
0 0.381702 1
0 0.487622 1
0 0.373432 1
0 0.313671 1
1 5.96046e-08 0
0 0.557454 1
0 0.439273 1
0 0.413618 1
0 0.903558 1
0 0.622135 1
0.257946 1 0.742054
0 0.371476 1
0 0.374677 1
0 0.435452 1
0 0.511237 1
0 0.310478 1
