# vtk DataFile Version 3.0
Particle simulation
ASCII
DATASET POLYDATA
POINTS 400 float
5.70484 5.79559 6.20105
0.556978 5.7686 5.73173
2.15153 9.40259 8.1724
0.870712 10 7.31838
7.38991 5.62053 4.09225
7.54382 7.47713 9.18581
8.19637 0.142898 9.7005
1.54665 9.35279 5.26382
5.2613 4.54598 1.53006
2.85161 1.17005 6.87821
1.04184 5.79136 1.33235
6.31809 6.45958 0.743878
9.83368 2.31735 2.15196
6.43383 0.848561 4.04718
4.9887 5.92841 9.69682
0.297812 6.08253 7.74886
3.65129 3.81726 7.73914
3.86087 0.476772 2.86227
6.47513 6.23761 10
2.14852 0.393955 0.892875
3.72481 0.251366 2.69305
4.56525 1.39917 4.60732
9.41247 5.43359 3.94187
5.34573 0.835924 1.79908
1.75445 8.98458 0.525569
8.38224 8.31873 9.91605
1.10506 1.6489 8.28454
3.2954 9.32152 9.60534
8.76785 0.292599 6.38155
2.93059 0.541216 8.82608
3.89217 9.49187 4.1084
9.0391 9.61231 0
7.257 8.60315 1.70581
1.52358 2.19826 2.29509
4.15696 5.62375 3.738
1.25105 8.53194 5.4997
10 7.41964 3.8527
4.80633 0.493157 3.51676
2.91729 1.08471 0
1.96859 1.80078 8.67529
2.44852 1.87782 1.83388
9.64461 6.64201 5.56875
7.76708 7.67916 6.52433
4.05525 3.95888 0.776761
9.64775 2.03552 7.69007
1.27117 0.558043 8.67387
1.63037 9.77154 2.06073
4.67384 3.17461 9.7917
5.08004 0.390045 5.8456
3.64453 8.78838 9.6246
6.24967 2.77449 1.33223
8.90839 0.948246 7.2458
7.38265 8.20432 2.48276
3.20356 3.18359 6.08372
3.40644 1.90708 4.92917
1.96501 0.913651 7.45869
2.27867 9.08867 0
1.04478 1.50053 7.88362
6.46184 3.97918 8.3708
0.418004 5.08873 2.11309
3.79938 4.92504 0.00184479
3.5087 9.47593 3.94398
4.27451 1.02732 7.68888
1.37951 3.8657 9.79803
1.77979 5.76877 7.77095
0 7.98507 1.85869
0.795108 6.85358 0.90026
2.81916 1.56456 1.54594
1.12175 9.96359 7.24468
6.16617 3.4989 7.25493
3.0493 9.50907 0.470631
4.52682 0.621636 6.01452
7.33732 5.42098 8.24903
9.87604 4.15052 2.97773
8.64375 1.73397 4.85619
6.59933 3.83442 8.35307
7.56883 2.01101 9.14767
7.79027 8.01675 8.74613
7.2096 5.38245 4.48947
6.03256 8.80144 6.61274
3.71329 0.755638 2.46442
4.2028 2.33819 1.95426
7.56103 1.76653 7.75143
9.5691 1.88351 6.8853
6.80503 9.19858 1.83061
7.64754 5.61741 5.70459
5.92063 3.45151 1.56441
1.52001 1.56471 6.92218
2.11452 9.71559 7.79919
4.53231 7.68464 2.56701
4.13967 0.733553 3.00175
4.87473 0.936984 0.0959956
7.98167 5.34308 0.386257
7.72165 1.83549 7.00923
4.39243 5.88669 9.41252
7.4246 6.66433 0.597644
8.70697 4.43316 7.65276
0.790135 9.61903 0.673793
8.16595 4.45104 9.29638
7.51935 6.00742 3.92428
4.47611 3.00601 0.76765
8.86773 6.62575 2.05742
7.10305 1.90385 0.879409
1.85812 6.99987 7.58225
3.39604 7.75219 0
6.65689 1.7533 4.4661
2.4136 2.99647 3.14244
1.36885 4.9584 9.00431
9.58641 4.18897 6.801
9.68924 0 3.17834
9.07999 7.04358 2.54257
1.00406 8.8619 1.49169
3.42611 2.02155 5.26101
5.64352 8.53622 7.48984
2.84912 0 2.22446
5.82561 4.65226 5.2538
0.807555 0.473077 8.1322
7.45277 5.2891 3.63573
0.659535 1.27256 3.75763
4.67618 3.47617 0.30667
9.34162 7.73663 10
4.65214 6.77399 6.7388
1.49598 7.23969 0.280714
1.57331 1.96212 3.30362
8.39678 7.87517 5.1998
3.62319 2.0662 1.66469
10 0.864734 2.58632
5.25517 0.461822 4.32524
4.15258 2.01124 4.70428
6.52854 7.61487 2.00957
3.25788 1.16057 2.77158
5.92164 6.16955 4.64418
5.633 4.75232 10
4.57378 4.6255 8.26258
10 2.78881 0.73503
5.63479 8.48029 5.03345
8.86172 3.68842 1.87144
5.6923 0.446535 2.06301
8.55445 7.9137 3.32455
9.78771 6.35462 0.858829
3.5989 0.344498 2.93515
9.55987 8.23116 2.19699
0.292043 8.29754 9.57209
4.25167 1.26429 0.025193
4.08201 4.21692 0.0121933
7.6275 2.68778 10
6.63942 8.07461 0.453618
8.84401 5.02793 3.37768
8.30316 2.80874 2.45214
9.30019 10 5.96347
3.98661 0.289211 2.56945
5.31659 9.32335 5.42145
9.28631 2.18146 7.70945
3.76639 0.297163 2.66312
3.3819 7.09789 6.38053
3.6226 7.29651 5.65443
9.04721 8.21941 2.15166
6.51406 5.8666 3.34275
7.41818 3.85372 8.10886
3.34075 5.59085 2.18911
8.82768 6.49269 3.95991
0.862299 2.93106 4.24481
10 1.88413 7.58328
3.06693 4.10543 2.31065
3.81364 2.02579 0.474106
7.61967 2.63821 5.07801
4.04726 1.48522 7.09808
2.78759 9.51287 1.19161
1.70437 3.35376 9.71316
8.59465 2.93558 2.98425
4.45371 0.332134 2.34353
6.24503 2.07007 7.23277
2.73045 8.94731 4.28797
7.98291 9.58276 2.34489
1.4222 9.30858 6.17835
0.179226 4.39906 8.34402
1.28235 7.40893 4.43238
4.24878 1.37141 4.94091
9.35454 3.60519 3.14532
3.44181 4.36934 0.730209
3.08251 0.556013 2.72089
3.66387 1.13545 4.61042
0.851086 9.29737 5.61076
9.80275 0.254361 5.78063
0 7.4353 4.08421
3.92559 6.78132 8.28041
3.83301 0.236211 2.62084
9.00437 1.06628 3.14394
2.91431 0.18518 2.10669
2.89 0.485731 2.68651
4.01913 0.265129 2.77881
4.05244 0.551141 2.08385
1.43435 2.7838 0.128438
4.34808 3.28516 8.52888
8.0949 0.194617 7.79033
9.33092 2.57395 1.81128
2.98133 1.05099 8.69019
3.01644 1.88748 8.44167
3.80678 0.446085 2.58636
4.25148 0.550052 2.21855
3.97685 0.269386 2.94667
6.93708 6.49676 0.209501
1.19145 3.21853 9.61549
4.0979 1.70994 4.28594
4.8494 7.80755 6.02114
0 8.56138 3.11769
8.54662 0.563378 8.65447
4.26197 3.58555 7.88786
4.47563 3.90004 8.22333
0.990021 8.28273 8.81373
3.9761 0.602001 2.99014
3.93384 0.454282 2.30344
1.80555 1.26754 0.454815
0.312346 3.52306 6.24748
1.66007 4.59814 1.56318
9.27232 7.79037 7.29019
3.80385 0.177143 2.30897
3.97017 1.72642 4.13937
1.85451 0.865464 5.69046
7.42698 6.56042 8.16506
9.91702 6.08873 0.429223
4.80349 9.79257 0.424723
4.14015 0.681157 4.14034
4.05992 0.580954 1.8966
9.17678 4.0183 0.783105
4.27892 2.6166 0.997136
5.74182 5.35484 10
3.83108 0.35586 3.17269
3.77754 0.26752 2.71874
7.53915 6.92893 1.16425
7.10474 3.53345 8.70031
1.53865 6.50178 0.454389
2.34451 6.68268 3.3898
4.19696 0.345536 2.3646
0.841351 0.654159 8.4686
7.42463 3.06048 4.29944
5.21706 5.94886 10
3.02979 3.66505 8.58389
3.84328 0.383952 2.64814
0.119671 7.14056 9.861
4.07631 0.229875 2.69664
3.38345 0.605346 3.01098
9.04599 6.23722 1.69796
4.14452 0.61231 3.1437
7.27338 5.42265 4.04715
7.48883 6.79016 0.610081
6.06037 6.42057 3.80831
3.27933 9.31793 4.7021
2.4816 9.63114 1.78041
0.676502 0.733732 2.25756
4.34368 0.497157 3.00155
3.44422 1.64102 5.41869
8.73045 4.45107 3.91461
7.85063 4.34148 5.26811
0.58624 1.42764 9.74723
0.0517428 0.107097 3.4028
7.96263 10 6.6862
0.731886 0.468128 8.36107
0.809447 3.20327 6.23188
0.973181 0.552227 8.50372
2.55752 1.48047 4.33685
8.00895 3.69697 9.34121
1.58272 1.48685 6.96675
5.59466 10 1.29056
1.37218 3.47549 6.88036
6.80916 4.46628 6.07825
0.45734 5.34834 2.0058
0.406688 0.746185 8.60981
4.77515 9.67803 8.19322
0.60453 1.53325 1.72905
3.71702 0.549321 2.18152
8.62009 1.65001 9.40558
7.67679 9.10661 7.8575
3.19054 2.29449 7.61372
7.2765 0.350404 4.67071
6.58775 6.79709 2.83951
7.17311 2.22964 5.71957
6.04713 3.39435 9.68703
6.1913 2.02213 9.55556
3.72278 0.173243 2.78702
9.16101 9.15249 5.63603
8.87956 0.523542 0.845742
2.78829 6.96826 6.11065
1.36826 0.836057 1.53893
7.90944 3.49496 8.91423
2.05785 8.89306 7.89502
3.68471 0.212807 2.44366
0.393736 0.921108 5.61051
9.7394 0.178143 3.82471
7.3583 1.69616 8.88459
6.95207 3.3064 7.87622
1.88293 6.09182 3.21824
4.05741 0.400367 1.95815
0.66581 4.57115 9.21731
2.56703 0.604008 5.06185
0.522142 0.710336 8.61431
3.64908 0.115901 2.91697
3.96009 0.530479 3.0539
4.2128 0.557588 2.50394
3.57399 0.42625 2.7771
4.15604 2.9197 2.60924
7.2741 0.309139 0.112963
4.13185 0.848571 3.32555
4.88055 6.40582 1.33743
3.85707 0.660744 2.24762
0.738283 3.94464 7.77749
3.45411 0.320784 2.56447
3.72277 0.567595 3.03328
0.834705 2.46607 8.17722
8.83718 3.69948 6.33409
7.68218 7.16696 9.81361
0.215639 0.0987102 5.75619
1.12771 5.74937 2.04883
3.82037 0.0886407 2.2379
6.07203 1.75254 6.11863
0.570233 10 6.81629
3.86587 3.24522 0.6026
4.3232 7.14094 3.76903
5.54314 0 4.86398
8.27229 5.95928 1.03283
0.691597 0.914622 8.53591
8.25951 9.41518 8.69988
0.389656 0.584779 8.54111
4.15513 0.185243 2.38904
0.0960558 0.157484 5.46708
9.75272 1.35659 5.821
4.21626 0.766937 3.22427
6.82214 6.37621 0.976937
3.08759 7.36807 9.40514
4.03056 0.3762 2.44213
0.764987 7.8368 4.38106
1.92823 2.36776 0.470244
0.184051 0.866977 5.2749
0.383687 1.42051 1.2502
8.63905 0.198778 0.782836
1.97017 1.95512 5.63375
8.77572 5.19507 3.13683
4.10435 0.0989425 2.36061
0.570617 3.21517 9.07428
7.62649 4.91456 9.0116
9.08742 6.96804 5.21932
7.13337 7.70996 1.87059
0.483745 4.52988 7.92618
0.852776 0.543604 8.37101
4.0364 0.355011 2.23761
4.88638 0.368932 3.78571
8.70633 0.413207 0.866619
4.14839 0.249607 2.94456
4.28379 0.415637 3.06664
8.84445 1.77848 4.83169
3.80937 0.216318 2.5214
3.8493 0.129992 2.87775
2.56912 9.08935 4.01209
7.2984 9.31771 3.50727
3.17075 0.30379 2.37325
4.238 0.366394 2.09479
3.07942 2.29691 1.97061
1.70246 5.36756 8.92859
4.55241 0.835859 2.75285
3.60099 0.600077 2.84927
8.66579 0.760048 0.776881
0.781759 0.556269 8.13319
0.669375 0.523178 8.54891
3.65587 0.811971 2.63854
4.06939 0.243317 2.60178
8.83002 0.675621 0.904871
0.536651 0.518171 8.55155
1.86314 1.92901 0.322625
0.745898 0.554828 8.15367
5.01214 0.976179 2.12206
8.6062 0.986485 0.991051
1.04703 2.35082 7.22235
7.60875 3.90821 0.742641
4.19671 0.481155 2.84537
4.04513 0.196145 2.13385
8.51774 0.292819 0.788731
0.628246 0.398307 8.25085
0.476524 0.859541 8.01297
2.68453 1.90336 9.28436
4.28725 0.241257 2.27559
3.83878 0.403898 2.65687
3.68393 0.0562888 2.67359
2.47668 1.65125 8.87706
4.04785 0.109081 2.65884
7.61891 2.7429 1.78061
0.801348 0.700499 8.65907
4.06874 0.401839 2.41416
3.67735 0.252634 2.68367
4.04566 9.59469 9.36585
2.33306 1.73384 9.10482
3.33129 0.619902 3.03925
3.74373 0.338155 2.67041
1.01337 0.772465 8.19991
3.85206 0.111061 2.99872
3.8312 1.9373 1.57746
0.696137 0.755514 8.46729
4.05815 0.447384 2.46437
0.84562 6.4085 1.39708
0 1.17554 3.80976
9.19874 0.57237 1.00258
POINT_DATA 400
SCALARS particleColor float 3
LOOKUP_TABLE default
0.311123 1 0.688877
0 0.54288 1
1 0.000895202 0
1 5.96046e-08 0
0.372954 1 0.627046
0.673829 1 0.326171
0.889641 1 0.110359
1 5.96046e-08 0
1 0.291525 0
1 0.684402 0
0.367711 1 0.632289
1 0.378147 0
1 5.96046e-08 0
1 0.838363 0
1 5.96046e-08 0
1 0.794082 0
1 0.566737 0
0 0.805895 1
1 0.678223 0
1 5.96046e-08 0
0 0.802307 1
1 5.96046e-08 0
1 5.96046e-08 0
1 5.96046e-08 0
0.0374016 1 0.962598
1 5.96046e-08 0
0 0.91235 1
1 5.96046e-08 0
1 0.988303 0
0.308539 1 0.691461
0.358827 1 0.641173
1 0.913577 0
1 0.674671 0
1 5.96046e-08 0
1 0.638643 0
1 5.96046e-08 0
1 5.96046e-08 0
0 0.281064 1
1 5.96046e-08 0
1 0.331448 0
1 5.96046e-08 0
1 0.223445 0
1 0.290853 0
1 0.567261 0
1 5.96046e-08 0
1 5.96046e-08 0
1 0.422255 0
1 0.154358 0
1 5.96046e-08 0
1 5.96046e-08 0
1 5.96046e-08 0
0.986 1 0.0140001
1 5.96046e-08 0
1 5.96046e-08 0
1 0.228002 0
0 0.938278 1
0 0.865443 1
0.0183591 1 0.981641
0 0.971686 1
0.164447 1 0.835553
1 0.615438 0
1 0.646121 0
0 0.454983 1
0.634469 1 0.365531
1 0.220179 0
0.874535 1 0.125465
1 5.96046e-08 0
1 0.788974 0
1 0.28464 0
0.417459 1 0.582541
1 5.96046e-08 0
1 0.788419 0
1 0.628938 0
0.0423792 1 0.957621
0.177881 1 0.822119
1 0.405627 0
1 0.170448 0
1 5.96046e-08 0
1 0.612306 0
1 0.942824 0
0 0.360767 1
1 5.96046e-08 0
0.72201 1 0.27799
1 5.96046e-08 0
0.131392 1 0.868608
1 0.815785 0
1 0.664804 0
1 5.96046e-08 0
0.772939 1 0.227061
1 0.685878 0
0 0.80086 1
1 0.619961 0
1 5.96046e-08 0
1 5.96046e-08 0
0.536824 1 0.463176
1 5.96046e-08 0
1 5.96046e-08 0
1 5.96046e-08 0
0.0184189 1 0.981581
1 5.96046e-08 0
0.0882868 1 0.911713
1 5.96046e-08 0
0.69715 1 0.30285
0 0.771555 1
1 5.96046e-08 0
1 5.96046e-08 0
1 5.96046e-08 0
0.894929 1 0.105071
1 5.96046e-08 0
1 5.96046e-08 0
1 0.279763 0
1 5.96046e-08 0
1 0.547009 0
1 5.96046e-08 0
0 0.221754 1
0.955112 1 0.0448884
0 0.385671 1
1 5.96046e-08 0
0.322103 1 0.677897
0.131539 1 0.868461
1 5.96046e-08 0
1 0.597788 0
1 0.38994 0
1 5.96046e-08 0
0.362874 1 0.637126
0.210168 1 0.789832
0.265755 1 0.734245
1 5.96046e-08 0
0.275604 1 0.724396
0.986494 1 0.0135055
1 5.96046e-08 0
1 5.96046e-08 0
1 5.96046e-08 0
1 5.96046e-08 0
1 5.96046e-08 0
1 0.142558 0
1 5.96046e-08 0
1 0.433568 0
1 0.932438 0
0 0.636435 1
0 0.460948 1
1 5.96046e-08 0
1 5.96046e-08 0
1 5.96046e-08 0
1 0.957131 0
1 0.883795 0
1 0.628405 0
0.5388 1 0.4612
1 0.564861 0
1 0.700973 0
0 0.511819 1
1 0.227381 0
1 0.354877 0
0 0.811545 1
1 5.96046e-08 0
1 0.487702 0
0.504657 1 0.495343
0.87475 1 0.12525
1 5.96046e-08 0
1 0.302388 0
1 5.96046e-08 0
0.672398 1 0.327602
1 5.96046e-08 0
0.0434325 1 0.956568
1 0.134915 0
0.591391 1 0.408609
1 0.956161 0
1 5.96046e-08 0
0 0.624037 1
0.22055 1 0.77945
0 0.546054 1
1 5.96046e-08 0
0 0.744106 1
1 0.172425 0
0.41596 1 0.58404
0.547216 1 0.452784
1 5.96046e-08 0
1 5.96046e-08 0
0.645481 1 0.354519
1 0.704354 0
0 0.646545 1
1 5.96046e-08 0
0.0510082 1 0.948992
1 0.00246173 0
1 0.320437 0
1 5.96046e-08 0
0 0.567926 1
1 0.0434426 0
0 0.435364 1
0 0.532679 1
0 0.557835 1
0 0.862456 1
1 0.585081 0
0.832673 1 0.167327
1 0.526186 0
1 5.96046e-08 0
1 5.96046e-08 0
1 5.96046e-08 0
1 5.96046e-08 0
0 0.795857 1
0 0.0915279 1
1 5.96046e-08 0
1 0.460848 0
1 5.96046e-08 0
1 0.440843 0
1 5.96046e-08 0
0.451853 1 0.548147
0.0935515 1 0.906449
0.949062 1 0.0509383
1 5.96046e-08 0
0 0.416531 1
0 0.0780076 1
0.342361 1 0.657639
1 0.589757 0
0.755384 1 0.244616
1 5.96046e-08 0
0 0.723759 1
0.208321 1 0.791679
1 5.96046e-08 0
1 5.96046e-08 0
1 0.571255 0
1 0.90375 0
0.846527 1 0.153473
0 0.780793 1
1 5.96046e-08 0
1 0.441756 0
0.568306 1 0.431694
0 0.830513 1
0 0.646512 1
1 0.554308 0
1 0.889599 0
0.717762 1 0.282238
1 5.96046e-08 0
0 0.659082 1
0 0.388877 1
0 0.408553 1
0.819244 1 0.180756
0.0570741 1 0.942926
0 0.760559 1
0.617715 1 0.382285
0 0.360806 1
0.0868993 1 0.913101
1 5.96046e-08 0
0.0538385 1 0.946161
1 0.294436 0
1 0.751081 0
0.645106 1 0.354894
1 5.96046e-08 0
1 5.96046e-08 0
0.37633 1 0.62367
0 0.790382 1
1 5.96046e-08 0
1 5.96046e-08 0
1 0.571703 0
0.642974 1 0.357026
0 0.319436 1
1 5.96046e-08 0
0 0.351741 1
1 5.96046e-08 0
0 0.468954 1
1 0.680584 0
0 0.98522 1
0.871728 1 0.128272
1 5.96046e-08 0
0.976765 1 0.023235
1 0.686815 0
1 0.643379 0
0 0.705035 1
1 5.96046e-08 0
0.337179 1 0.662821
0 0.775043 1
1 5.96046e-08 0
1 5.96046e-08 0
1 0.886755 0
0.909437 1 0.0905626
1 0.534222 0
0.826698 1 0.173302
1 5.96046e-08 0
1 5.96046e-08 0
0 0.0735401 1
1 5.96046e-08 0
0 0.555588 1
1 0.459964 0
0 0.221928 1
1 0.683982 0
1 0.875063 0
0 0.379723 1
0.507176 1 0.492824
1 0.216331 0
1 0.220214 0
0 0.741487 1
1 5.96046e-08 0
0 0.750501 1
1 5.96046e-08 0
1 0.346961 0
0 0.453158 1
0 0.623501 1
0 0.41427 1
0.165213 1 0.834787
0 0.384261 1
1 5.96046e-08 0
0 0.415433 1
0 0.986362 1
1 0.313618 0
0 0.373755 1
1 5.96046e-08 0
0 0.290358 1
0 0.660014 1
0.71801 1 0.28199
0 0.731579 1
1 0.115017 0
0.757368 1 0.242632
1 0.598879 0
0 0.388719 1
1 5.96046e-08 0
0.427449 1 0.572551
0 0.886631 1
1 5.96046e-08 0
1 5.96046e-08 0
0 0.901138 1
0 0.664366 1
0 0.675973 1
0 0.668982 1
0 0.412342 1
0.954009 1 0.0459906
0.982654 1 0.017346
0 0.511481 1
1 0.328986 0
0.466199 1 0.533801
0 0.39814 1
1 5.96046e-08 0
0.927818 1 0.0721825
0 0.660981 1
0.335307 1 0.664693
0 0.500638 1
1 0.766135 0
1 0.0607979 0
0 0.163465 1
0.282095 1 0.717905
1 0.318559 0
1 0.689394 0
1 5.96046e-08 0
0.237063 1 0.762937
0 0.305436 1
0 0.780759 1
0 0.456597 1
0 0.938237 1
0 0.776227 1
0 0.628351 1
1 0.501185 0
0 0.873015 1
0 0.753312 1
0.230068 1 0.769932
0.861066 1 0.138934
0 0.753801 1
0 0.71151 1
0.817588 1 0.182412
1 0.337003 0
0 0.591391 1
0 0.340484 1
0 0.303495 1
0 0.242293 1
0 0.401268 1
0.115149 1 0.884851
0 0.761564 1
0 0.845603 1
0.0846334 1 0.915367
0 0.553837 1
0 0.475536 1
1 5.96046e-08 0
0 0.8154 1
0 0.979696 1
1 5.96046e-08 0
0 0.469249 1
0 0.874193 1
0 0.701609 1
0 0.939785 1
0 0.440814 1
0 0.74709 1
0 0.379545 1
0.0195619 1 0.980438
0 0.513956 1
0 0.55432 1
0 0.28269 1
0.283261 1 0.716739
0 0.291427 1
0 0.783932 1
0 0.748714 1
1 0.181155 0
1 0.88748 0
0 0.63456 1
0.00663084 1 0.993369
0.191551 1 0.808449
0 0.482488 1
0 0.793643 1
0 0.987825 1
0 0.864873 1
1 0.723171 0
1 0.828358 0
0 0.903634 1
