# vtk DataFile Version 3.0
Particle simulation
ASCII
DATASET POLYDATA
POINTS 400 float
9.38552 3.13527 2.14958
0.450242 3.0093 0.196818
6.75569 5.35433 7.2117
8.98958 3.11425 1.4656
3.96913 4.83427 10
9.40184 6.17038 9.27744
7.31393 6.22208 8.55527
3.80697 5.46636 6.68839
0 1.0997 0
5.62681 1.1112 7.18686
6.95908 0.483602 7.73736
9.3328 5.20069 3.8047
8.9623 9.05649 6.96376
5.42769 8.06377 5.30413
7.60528 4.98577 7.04523
2.46659 4.22813 4.36896
0.379093 2.46164 8.67838
5.0128 0.696195 4.65303
7.85559 8.1342 2.35105
0.841641 8.66593 0.242788
1.97639 0.851647 7.58159
8.91398 7.36796 0
8.24895 4.13717 0.0992004
7.66928 9.19619 4.32885
7.87066 0.169283 3.06895
4.69475 1.28306 7.00264
2.63203 0 3.85104
8.98705 9.54838 3.46381
5.01165 2.16185 9.81593
1.12821 0.112338 9.10339
0.903007 0.0651172 4.75175
9.37047 9.53144 2.5138
6.25256 5.43443 10
1.03738 6.98223 5.28908
5.19648 3.6802 4.74761
2.38634 8.60125 0.242004
8.08312 2.513 9.28625
6.72735 3.468 5.43749
7.88759 3.99455 8.20788
3.13977 9.32687 7.44491
6.65345 2.00417 5.44393
3.51108 1.54889 8.55752
6.21614 0.0261599 5.44823
6.26083 1.6633 7.59651
1.93067 7.16047 9.87658
9.31736 6.53346 1.90692
8.04257 1.54709 5.68844
1.69265 1.38354 7.68065
7.75397 8.37749 9.3716
5.09407 1.58834 2.16432
9.63288 5.24399 1.69517
7.11103 0 2.31694
0.960085 1.7785 9.2799
2.31616 4.50091 9.0961
6.74957 6.17532 6.47112
5.70076 3.45359 0.912005
0 6.84326 3.32716
0.893163 0.832181 2.84117
1.59855 9.23225 6.63264
3.69243 3.36513 0.873975
7.96893 0 3.38097
2.22746 0.265321 3.69142
0.686909 9.21841 3.98989
8.42189 8.70585 8.0449
5.66278 5.05432 10
0.276647 9.91031 4.26501
8.76864 4.15009 9.60012
8.85877 2.924 0.496865
1.85852 9.79012 4.01287
8.14328 3.95617 7.48415
0.225636 0.337325 1.23278
0.193318 2.98217 6.84008
0.701579 0.935409 6.41135
6.67748 7.26566 1.98641
0.972105 4.15163 9.56303
9.59832 9.1316 4.56374
3.65837 9.44899 6.62984
4.59876 4.36608 5.38092
3.72057 4.22203 6.74187
9.43661 5.6188 0
4.47295 1.11988 1.74704
8.41986 3.08013 1.23063
6.47472 8.85815 9.62949
6.49165 8.82568 1.63128
3.74758 6.30355 4.81723
7.65719 3.24361 0.438593
9.3567 0.603403 7.1734
6.35951 2.94794 3.48176
1.19761 0.662 7.90237
3.82957 1.96793 9.78799
4.57349 1.10515 7.85222
8.0971 5.22311 2.16141
7.10873 0.563322 7.28578
0.720576 9.75595 8.79802
6.52143 1.09745 4.431
9.57684 2.11652 5.95793
3.0114 3.45609 7.94856
0.986407 2.74989 4.56039
7.29629 3.9604 5.91636
9.73104 7.08381 0
4.61333 9.42142 7.63065
3.39781 7.54388 2.23744
3.86533 0.239432 1.23064
8.00077 4.63921 3.41787
8.56485 6.23802 8.14382
5.84367 4.55315 3.78938
2.37854 0.504391 4.05787
0.175481 0.79989 5.00286
6.23911 8.89172 4.69933
6.63999 0.839829 6.05972
5.60955 9.47411 8.64848
8.30229 1.88783 7.81434
1.79337 4.70017 8.93506
0.815353 8.10722 7.78654
2.25191 5.76502 7.61487
5.13998 1.53389 1.8435
5.49132 4.51255 9.13909
8.10498 3.20329 0.616531
7.11932 1.08069 5.50047
6.35815 2.20493 8.4566
6.47029 6.12601 6.92801
7.98558 3.81506 4.66302
1.80227 1.21137 8.92833
0.391781 9.33176 8.00025
7.84426 5.07712 9.14643
0.965338 0.546402 3.49973
7.98792 3.26142 7.50126
4.49304 7.23528 3.4495
8.52373 0.226033 4.63586
0.483606 6.23663 0.748012
5.12059 9.19141 4.39599
7.4703 2.869 6.74743
9.63437 6.04932 0.669935
10 5.82638 10
6.75555 3.07418 3.21109
6.04255 9.67219 9.48377
1.27592 6.48806 2.74536
6.55239 8.25931 1.86944
5.44324 0.620477 6.09113
9.45339 3.03034 2.50621
5.2071 0.336393 4.72476
8.92128 0.976248 0.181136
8.96881 3.56178 2.95898
4.8822 7.24359 8.95613
8.51726 7.80545 5.07158
4.40607 2.41436 4.7471
5.77414 7.08799 4.20386
7.69535 0.756697 8.28821
6.35542 1.23001 8.3976
1.07483 5.73363 1.58196
5.42409 0.375256 4.9308
8.78844 8.34448 8.37643
6.98139 6.85041 2.18484
7.11178 8.28824 2.0991
2.13775 2.88428 10
6.41447 9.47538 7.46812
5.10064 9.89094 0.370698
7.40312 3.38741 6.85586
9.20051 3.74471 6.88298
8.75637 7.05223 5.08482
9.60519 9.27866 8.71857
0.451369 10 2.24141
9.67682 1.45724 8.4909
5.13203 9.53374 7.30385
6.98759 3.76691 0.567165
5.803 0.729604 1.50353
6.10199 7.69484 0.536146
6.12084 6.57005 4.47176
4.8642 1.44926 2.23888
9.79698 9.45217 0.453218
0.38061 0.4417 7.31227
6.60222 0 4.01111
0.953415 8.60643 4.57157
5.7715 0.89244 2.43424
2.13492 8.18519 3.1107
0.589701 8.40685 8.84312
0.953363 3.08394 7.32048
8.50959 4.00687 8.73448
8.17607 3.75772 4.30328
5.24782 9.23046 1.61405
8.61023 1.58562 6.16685
5.60286 1.76806 7.44966
4.48006 8.86614 4.45371
0.427063 9.78229 1.57072
9.98265 4.17779 6.40488
9.38122 9.08076 0.563017
5.55586 0.326138 4.73254
8.54462 3.71318 6.52791
8.27932 2.0233 1.86455
9.23256 0.213269 2.07536
6.05741 9.77739 6.90903
3.51785 0.609692 9.90512
6.07599 6.69872 7.85914
4.80615 7.17195 4.58971
7.32987 2.94987 7.17144
10 9.3869 3.43434
1.97934 0.624473 3.42579
7.65857 3.95565 5.4372
9.22587 0.516385 7.72097
3.6968 0.175872 8.63322
5.30872 0.335616 4.89047
7.18931 4.03618 1.78986
4.27431 5.97567 5.17731
6.90163 0.594486 8.08149
6.9598 0.55971 3.23757
8.14194 5.35005 5.19671
1.84905 5.70036 7.6373
2.37153 3.33301 0.851033
6.39424 7.67883 2.2874
7.61429 6.7253 9.12409
5.22827 0.16749 4.80517
1.84667 1.17427 3.24374
2.14669 6.66551 9.46215
2.00572 0.715661 4.00921
3.14249 3.08894 3.39832
4.17939 8.27751 3.0063
5.69586 0.523845 4.8821
4.38474 8.85028 8.80185
6.70613 0.853532 8.80413
5.62303 7.09446 3.80367
7.59635 1.57431 3.28849
1.87318 8.85579 6.77133
3.86301 3.50236 3.74206
5.78343 0.402401 4.74145
4.21554 5.37296 1.87426
0.342532 8.42873 9.55475
1.25135 8.87116 1.17637
4.17473 1.43573 7.0159
5.36834 0.269559 5.00599
0.724459 5.57075 8.90286
6.12653 7.34059 8.08588
3.24668 6.98376 8.96881
6.25965 2.73704 6.7801
3.90321 1.50443 7.08144
0.118623 8.77891 4.28572
7.96301 4.0402 8.02092
5.59708 2.64251 8.48524
4.20583 8.82315 7.41045
5.6157 0.352802 4.8516
10 8.47445 4.69547
5.436 0.232104 4.6505
9.93624 2.40861 3.07658
0.76896 5.86667 4.79472
2.65189 6.28154 0.230142
6.80715 8.85835 2.7592
2.65886 6.96601 8.99707
6.71235 0 5.42109
5.36052 4.30354 1.23473
0.0745493 2.10945 1.50582
5.45284 0.819337 3.42851
6.01918 0.376952 4.63704
3.54933 0.264752 2.9722
6.02465 9.81395 3.77742
3.84726 5.3207 4.59816
0.100854 0.714446 1.79463
9.31699 2.62813 2.02736
4.76899 4.57847 1.42936
1.73842 0.755496 8.05764
3.91932 9.87493 5.51316
5.86287 1.32496 1.92362
7.96502 3.91036 1.02508
6.18321 6.43131 4.27621
4.18309 4.02729 0
8.13814 6.44623 8.96036
5.38573 7.67887 5.16731
7.29317 0.686779 1.14704
1.94319 4.99298 3.30043
9.93284 8.6197 4.04728
0.922272 8.68487 5.1838
1.83963 8.73077 5.36881
6.02003 0.463893 4.62024
7.44629 2.86272 1.0853
9.02983 5.8864 1.58073
1.98807 8.18082 7.71085
3.20291 4.9818 9.40749
6.33066 1.39184 2.00022
6.68062 6.88211 0.699853
6.96097 5.02969 5.84128
4.37575 4.50903 0.751873
5.6939 0.253728 4.36526
0 3.22947 5.35773
5.76099 0.941391 5.12326
6.6065 9.11862 2.89727
0.735547 4.82013 8.90427
3.2351 8.48142 7.5178
0.202313 2.82478 8.08563
6.38947 0.610646 4.88118
9.96291 6.74462 4.70872
9.84709 6.46802 8.58968
2.57859 0.791651 9.01253
8.96415 1.57358 8.04784
6.19992 3.11512 5.45605
8.83892 0.560936 0.704554
0.2627 2.30153 3.70956
0 3.69675 5.16991
1.77962 0.417816 8.65631
5.99449 0.175475 4.57755
5.83629 0.254566 4.50381
5.10866 0.358961 4.58554
6.00796 0.212144 4.9958
5.74925 6.44803 5.13058
7.68472 0.839136 0.876093
5.88844 0.154547 4.76993
0.221642 0.18336 7.56435
5.72408 0.301 4.97106
0.775034 0.820737 5.26979
5.42477 0.420847 4.99812
5.39709 0.266531 4.92769
9.38379 9.17711 0.103326
3.32406 5.06771 9.19353
1.27908 8.15004 7.61561
5.50873 6.39061 9.662
0.0894909 1.06758 5.04746
6.01213 0.288992 5.13976
7.84123 5.12703 4.86474
5.74698 5.00462 8.94729
4.31173 1.08741 3.48402
9.6098 8.66373 0.0120042
6.99214 2.76559 3.04663
8.80189 8.86451 1.01627
2.30099 1.43501 6.59421
9.59389 8.8188 0.414395
1.84881 0.583782 8.69276
5.63192 0.269266 4.87058
6.31598 0.512666 4.67391
2.76152 6.8644 0.0660467
6.05864 0.20767 4.41698
6.27817 0.281425 8.59919
1.46688 1.53782 7.14958
5.2917 0.257032 4.89392
0.394836 7.36343 7.36939
2.47593 7.31173 1.00975
7.14961 2.23189 3.36667
7.13371 9.58349 9.25313
9.86244 1.12587 7.80559
0.55679 7.02746 7.74468
2.5387 5.63688 9.75048
5.57085 0.210028 4.87478
5.29058 9.28257 9.04663
2.00192 6.20019 3.34356
3.78311 0.366225 9.4078
3.98407 6.06594 4.82047
9.42407 8.80981 1.19209
1.55524 0.707855 8.66081
5.5282 0.475008 5.11227
5.31635 0.424728 4.47284
9.82713 0.465758 5.89307
5.49447 0.111146 4.76511
5.00199 0.0719122 5.09436
1.32335 4.70288 7.57156
5.2763 0.179226 5.2393
5.59749 0.278871 4.52654
5.27391 9.67188 5.62518
8.18373 7.39975 9.68994
3.5894 1.57457 10
5.43623 0.196658 5.18974
2.38392 3.2643 2.34047
3.11511 9.63745 1.31543
5.21419 0.160392 4.84528
5.36331 0.606188 5.19818
9.30663 4.10846 3.00881
1.76563 0.548094 8.49159
1.70389 0.512808 8.6776
5.11426 0.332613 5.04975
5.91796 0.21582 4.83558
7.96778 0 3.6043
1.82661 0.683483 8.45793
9.08543 6.93002 9.09625
1.79054 0.37596 8.49016
7.57689 0 0.0844657
9.5716 0.0940845 6.19052
7.53724 0.114363 9.12531
6.35959 6.90243 1.37261
6.30159 0.393995 4.76077
5.49451 0.531665 4.66628
9.71518 0.06215 5.95701
1.65872 0.702142 8.3526
1.86101 0.774112 7.98557
4.93507 8.57128 9.44206
4.61641 0 4.9483
5.62903 0.468494 5.00737
5.47119 0.155247 5.02185
9.56079 0.705436 2.87753
5.11222 0.670224 4.92957
1.49713 5.28141 7.04981
1.75557 0.403047 8.59798
5.4803 0.164322 4.56717
5.80963 0.0452005 4.71191
2.10584 7.39934 8.54521
1.83665 1.75857 5.08286
5.3922 0.354124 4.93555
5.05634 0.326486 5.27696
1.3863 0.635101 8.60723
5.35609 0.6885 4.75278
8.54426 7.98132 5.95995
1.71652 1.25071 7.93502
5.62314 0.397006 5.14516
9.46822 0.632756 3.11975
0.822981 2.15884 5.82923
1.80929 7.37262 1.25505
POINT_DATA 400
SCALARS particleColor float 3
LOOKUP_TABLE default
1 5.96046e-08 0
1 5.96046e-08 0
0.468753 1 0.531247
0.696208 1 0.303792
1 0.999529 0
0.472542 1 0.527458
1 5.96046e-08 0
1 0.798663 0
1 5.96046e-08 0
1 0.894045 0
1 0.714877 0
1 0.550107 0
0.280373 1 0.719627
1 0.420873 0
1 0.560219 0
1 0.153591 0
1 0.435022 0
0 0.621751 1
1 0.873591 0
0.494168 1 0.505832
0.66635 1 0.33365
1 5.96046e-08 0
1 5.96046e-08 0
0.712607 1 0.287393
1 0.95571 0
1 5.96046e-08 0
1 5.96046e-08 0
1 5.96046e-08 0
0.87368 1 0.12632
0.225817 1 0.774183
1 0.168396 0
1 5.96046e-08 0
1 0.326074 0
0.901819 1 0.0981811
1 5.96046e-08 0
0.936466 1 0.063534
0.419329 1 0.580671
0.881926 1 0.118074
0.300667 1 0.699332
0.415143 1 0.584857
1 5.96046e-08 0
1 5.96046e-08 0
1 5.96046e-08 0
1 5.96046e-08 0
0 0.29899 1
1 5.96046e-08 0
1 5.96046e-08 0
1 0.229184 0
0.170417 1 0.829583
1 0.556903 0
1 0.139086 0
1 5.96046e-08 0
1 0.651107 0
1 0.220249 0
1 5.96046e-08 0
0.0243947 1 0.975605
1 5.96046e-08 0
0.608166 1 0.391834
1 5.96046e-08 0
0.267416 1 0.732584
0.48378 1 0.51622
1 0.312697 0
1 5.96046e-08 0
0.331009 1 0.668991
1 5.96046e-08 0
1 0.71021 0
1 5.96046e-08 0
0.214625 1 0.785375
0.448498 1 0.551502
1 5.96046e-08 0
0.892944 1 0.107056
1 5.96046e-08 0
0.997648 1 0.00235152
0.790346 1 0.209654
0.779201 1 0.220799
1 0.939136 0
0.353137 1 0.646863
1 0.514231 0
0 0.337395 1
1 5.96046e-08 0
0.804045 1 0.195955
1 0.273731 0
1 0.699733 0
1 0.522143 0
1 0.369962 0
1 5.96046e-08 0
1 5.96046e-08 0
1 5.96046e-08 0
1 0.20387 0
1 0.329376 0
1 5.96046e-08 0
1 0.639218 0
0.714445 1 0.285555
1 0.889752 0
0.312306 1 0.687694
0 0.597429 1
1 5.96046e-08 0
1 5.96046e-08 0
0 0.426477 1
1 5.96046e-08 0
0 0.667199 1
1 5.96046e-08 0
0.953064 1 0.0469356
0.616607 1 0.383393
1 5.96046e-08 0
1 0.943628 0
1 5.96046e-08 0
1 0.435088 0
0.671162 1 0.328838
0.865791 1 0.134209
1 5.96046e-08 0
1 0.226201 0
0.395028 1 0.604972
0 0.878885 1
0 0.997016 1
1 0.397252 0
1 5.96046e-08 0
0.31934 1 0.68066
1 0.763532 0
1 0.770404 0
1 0.923829 0
0.238195 1 0.761805
0.878203 1 0.121797
1 5.96046e-08 0
1 0.554698 0
0 0.727012 1
1 5.96046e-08 0
1 0.533042 0
1 5.96046e-08 0
1 0.290992 0
0.599756 1 0.400244
1 5.96046e-08 0
0.0790317 1 0.920968
1 5.96046e-08 0
1 0.548371 0
1 0.436084 0
1 5.96046e-08 0
1 0.693805 0
0 0.628868 1
0.459727 1 0.540273
0 0.195879 1
0.308828 1 0.691172
0 0.667588 1
1 0.332857 0
1 5.96046e-08 0
1 0.298579 0
0.957632 1 0.0423679
0 0.929841 1
0.599087 1 0.400913
0.583099 1 0.416901
0 0.484523 1
0.819563 1 0.180437
1 0.32144 0
1 5.96046e-08 0
1 0.689969 0
0.984348 1 0.0156518
0.723481 1 0.276519
1 0.637268 0
0.836648 1 0.163352
1 0.31541 0
0.539785 1 0.460215
1 5.96046e-08 0
1 0.515542 0
0.354508 1 0.645492
1 0.558339 0
0.791725 1 0.208275
1 5.96046e-08 0
1 5.96046e-08 0
1 5.96046e-08 0
0 0.620352 1
1 0.465217 0
1 0.859554 0
1 5.96046e-08 0
1 0.122482 0
1 5.96046e-08 0
0.852667 1 0.147333
1 5.96046e-08 0
1 0.677052 0
1 5.96046e-08 0
1 5.96046e-08 0
0.948394 1 0.0516057
0.688496 1 0.311504
1 0.920125 0
0.955754 1 0.0442461
1 0.349887 0
1 5.96046e-08 0
0 0.599028 1
1 0.485615 0
1 0.927694 0
1 0.856829 0
0.461321 1 0.538679
0.85971 1 0.14029
0.855599 1 0.144401
1 0.999235 0
1 5.96046e-08 0
1 5.96046e-08 0
0.444267 1 0.555733
1 5.96046e-08 0
0.40486 1 0.59514
1 0.166138 0
0 0.266921 1
0.610186 1 0.389814
0.987868 1 0.0121315
1 0.100573 0
1 5.96046e-08 0
1 0.933446 0
1 5.96046e-08 0
1 0.797169 0
1 0.810104 0
1 5.96046e-08 0
0 0.554273 1
0.47264 1 0.52736
1 5.96046e-08 0
0.158307 1 0.841693
1 0.667525 0
1 5.96046e-08 0
0.0716311 1 0.928369
1 5.96046e-08 0
1 0.485273 0
1 0.274689 0
1 5.96046e-08 0
1 5.96046e-08 0
1 5.96046e-08 0
0 0.778091 1
1 5.96046e-08 0
0.594377 1 0.405623
0 0.579583 1
0 0.676256 1
0 0.411916 1
1 5.96046e-08 0
0.925751 1 0.0742486
0.0739276 1 0.926072
0.7643 1 0.2357
0 0.946822 1
0.869781 1 0.130219
0.27983 1 0.72017
1 0.610269 0
0.894674 1 0.105326
0 0.338386 1
1 5.96046e-08 0
0 0.974468 1
1 5.96046e-08 0
1 0.462273 0
1 0.535902 0
1 5.96046e-08 0
1 5.96046e-08 0
1 0.371977 0
1 5.96046e-08 0
1 0.256201 0
1 0.833845 0
0 0.584451 1
0.723273 1 0.276727
1 0.848843 0
1 5.96046e-08 0
1 0.316124 0
0.656296 1 0.343704
0.108413 1 0.891587
0 0.309025 1
0.530276 1 0.469724
0.527163 1 0.472837
1 5.96046e-08 0
1 0.511238 0
1 5.96046e-08 0
1 5.96046e-08 0
1 5.96046e-08 0
1 0.481531 0
1 0.723645 0
1 0.782132 0
0.650244 1 0.349756
1 0.31095 0
0 0.373019 1
1 0.374578 0
0.0321286 1 0.967871
1 0.400458 0
1 0.505183 0
0.821528 1 0.178472
0.713906 1 0.286094
1 5.96046e-08 0
1 0.250635 0
0 0.422062 1
1 5.96046e-08 0
1 0.245206 0
0.468014 1 0.531986
1 0.689903 0
1 0.0782303 0
1 5.96046e-08 0
0 0.949503 1
1 5.96046e-08 0
0.339824 1 0.660176
0.0640623 1 0.935938
1 5.96046e-08 0
1 0.154725 0
1 0.799421 0
1 5.96046e-08 0
1 5.96046e-08 0
0 0.431069 1
0 0.331248 1
0 0.456986 1
0 0.764047 1
0 0.302318 1
1 5.96046e-08 0
1 0.760622 0
0 0.930217 1
0 0.681848 1
0.1236 1 0.8764
1 0.195549 0
0 0.6663 1
0 0.312813 1
0.775818 1 0.224182
1 0.93779 0
0.844894 1 0.155106
0.816634 1 0.183366
1 0.455423 0
0.139798 1 0.860202
0.549564 1 0.450436
1 0.638912 0
1 5.96046e-08 0
0.400721 1 0.599279
1 0.5359 0
1 5.96046e-08 0
1 0.571783 0
1 0.987716 0
0 0.800311 1
0 0.222731 1
0 0.778543 1
0 0.753708 1
0 0.611074 1
1 0.537993 0
0 0.238368 1
0 0.609452 1
0 0.101124 1
0.340004 1 0.659996
0 0.35891 1
0.680517 1 0.319483
0.484694 1 0.515306
1 5.96046e-08 0
0.956008 1 0.0439915
0 0.442522 1
1 5.96046e-08 0
1 0.0198793 0
0.864613 1 0.135387
0.635724 1 0.364276
1 0.790939 0
0 0.803307 1
0 0.844275 1
0 0.912113 1
0 0.482634 1
0 0.783944 1
0 0.867831 1
0.773267 1 0.226733
0 0.933674 1
0 0.756146 1
0.8116 1 0.1884
1 0.997051 0
0 0.780188 1
0 0.574471 1
1 0.746003 0
1 0.240524 0
0.00902315 1 0.990977
0 0.309653 1
0 0.805818 1
0 0.536896 1
0 0.520502 1
0 0.784608 1
0 0.964235 1
1 5.96046e-08 0
0 0.213752 1
0 0.878854 1
0.428918 1 0.571082
1 5.96046e-08 0
0 0.732822 1
1 0.989221 0
0.62628 1 0.37372
0 0.525682 1
0 0.798678 1
0.0935353 1 0.906465
0 0.265804 1
0 0.741559 1
1 0.377124 0
0 0.320814 1
0 0.626702 1
0 0.532766 1
1 0.820414 0
0 0.58402 1
1 0.95103 0
0 0.205371 1
0 0.450088 1
0 0.890488 1
1 0.756463 0
0 0.497372 1
0 0.867395 1
0 0.807748 1
0 0.623225 1
0 0.451583 1
0.771634 1 0.228366
0 0.339887 1
0 0.39524 1
0.705032 1 0.294968
1 0.493269 0
1 0.175649 0
