# vtk DataFile Version 3.0
Particle simulation
ASCII
DATASET POLYDATA
POINTS 400 float
0.675819 0.651943 9.73493
2.41444 1.63001 8.94994
6.79994 7.854 2.40008
0.88827 7.25463 4.26094
0.255847 9.38953 3.98177
9.52732 1.19976 7.32593
5.17057 0 7.69326
6.89519 4.02473 1.41006
4.2288 4.71546 2.96407
2.26269 7.25749 4.36227
5.4505 2.46795 4.28174
0.158568 6.94715 2.08835
4.5914 1.56379 3.25586
6.12524 9.75244 5.37028
8.80848 5.46213 6.62488
1.64856 0.783281 4.50673
2.046 2.25832 4.70703
3.14256 0.324396 0.771507
2.78054 2.79513 8.32477
4.25892 0.707519 8.87343
2.98778 0.0306434 0.755403
4.3253 8.36635 3.84328
5.53172 7.51768 1.89486
1.27569 6.12313 6.54757
2.04434 7.08946 7.78688
5.53106 5.23788 0.786164
4.6622 6.74768 6.40796
8.61465 0.724507 1.76083
3.77179 7.78895 2.68475
3.73531 6.96358 7.34688
4.56118 6.30471 2.17594
0.641999 9.09456 6.43975
8.67261 7.31576 3.11751
9.99673 1.40054 8.21607
2.49163 2.73216 2.69578
6.05088 3.94681 2.96859
2.12878 1.37335 8.77172
3.0043 0.21075 0.715452
7.34719 6.47695 1.90682
4.16728 0.158875 4.81699
2.29956 0.0284279 0.145224
6.04895 2.97053 1.71685
4.72229 10 1.28989
6.6464 4.46876 6.58327
5.12579 0.229849 0.825479
1.31053 1.88544 1.17519
6.51643 3.46443 8.43183
9.85917 0.389396 4.21412
6.88907 0.182164 2.28714
3.97287 2.21902 2.56685
2.40727 9.41079 5.14101
1.01587 7.56428 4.63631
9.88096 3.85371 3.10187
3.80381 6.89444 8.08179
2.37803 0.392381 6.2828
6.07123 0.428054 1.66371
9.88115 4.19144 8.7052
6.77711 3.82217 3.38248
2.77607 1.55841 5.19642
5.01579 0.845274 7.91262
0.129169 6.36851 9.89687
8.12551 0.956492 5.51073
1.49121 3.7853 2.52502
0.518498 0.425338 8.43092
1.24825 4.68845 5.49852
5.22864 2.46519 2.09096
2.39233 1.39188 2.31572
4.40335 8.87886 1.05708
6.64896 6.94191 8.82008
4.47729 5.79025 0
5.72854 2.86686 7.9075
6.35204 3.04919 2.06333
0 7.1853 2.28868
1.14735 5.68305 9.6185
6.68474 3.96194 7.26205
5.29832 5.6451 0.546833
3.01361 2.89189 3.55377
9.22368 5.31546 6.63865
7.13566 2.11796 4.88687
9.25039 7.72412 2.07975
3.12037 0.449401 0.556399
8.26912 0.743991 7.45792
3.3841 0.867364 1.26011
2.49939 0.768699 2.96848
5.32372 6.45446 9.32887
0 1.91385 8.06473
5.35097 6.90012 8.98435
6.07955 6.62005 1.82637
1.54172 0.656551 8.03536
5.14374 4.39517 0.278939
2.92851 0.134226 0.489392
7.67191 9.06168 2.18342
1.45418 6.74713 0.849576
2.90022 0.569737 8.19779
1.04493 0.678332 5.98077
1.8813 8.45818 8.21072
9.52362 0.123553 8.34241
6.89155 1.13742 5.58109
2.74451 4.68464 6.30932
7.61253 1.19707 0.555434
3.49504 0.312348 0.786153
5.56221 8.11683 8.08115
1.92837 2.30087 6.17082
0.094336 1.96693 3.63799
7.97253 3.66953 9.68803
5.63939 4.82937 4.13065
4.95554 0 7.9904
6.60536 0.237514 0.449677
0.138961 0.595202 6.49026
3.98399 4.30513 2.80739
0.29611 2.72647 3.54497
6.83358 1.20333 7.56119
5.22652 6.37869 4.76308
3.35182 0.310235 1.07735
2.59215 0.615635 0.611019
2.32707 3.50756 6.25155
4.47025 0.386657 8.39546
7.2101 3.88265 7.06326
9.1312 1.89324 1.11266
2.73169 5.99735 3.10133
3.45795 0.453153 0.549743
9.34207 3.4349 1.67895
8.51127 0.590786 9.71951
0.335741 0.770658 9.56951
1.29576 9.26278 5.30118
3.17681 0.252447 0.373889
2.48851 2.78652 9.84621
0.427834 0.334231 7.94902
7.10812 0.780252 7.28025
7.34694 2.26096 2.94021
8.00365 1.14864 1.3449
3.32686 6.98748 6.33553
8.86102 0.557537 3.57529
9.41945 2.0871 1.16053
2.97847 0.259191 7.81625
1.99953 2.32706 1.58347
1.32225 1.08143 1.59152
1.5816 0.233416 7.57055
9.16525 9.99802 0.858688
5.84528 0.600079 7.09651
3.54314 0.321853 0.780342
4.16026 8.61372 4.62995
3.93638 3.72457 6.37801
0.421545 2.67858 3.14811
3.41649 0.201504 0.985182
9.11188 2.40796 8.14143
7.31604 0.291704 1.20412
1.16024 5.21965 4.89568
6.98754 3.56286 2.00374
4.89742 2.00629 5.60077
3.47026 0.387241 0.727359
3.08192 1.07775 6.15586
1.71746 0.490673 7.95768
3.49208 0.487323 1.40467
1.23793 9.22665 3.68655
5.44411 0.189645 1.86931
6.60827 2.72967 0.161648
6.10973 0.259187 1.47117
5.88725 0.774809 9.45425
9.07973 0 4.636
8.29272 2.84375 0.870702
8.6179 0.818194 9.60906
2.84933 1.28453 5.85223
7.25228 4.68386 9.30941
9.04583 3.17525 0.918308
7.46409 8.26764 6.44294
8.86125 0.806186 8.21149
8.33744 0.111813 7.38748
4.76259 8.41857 9.4904
3.12505 0.581014 6.32494
3.4195 0.438417 0.946077
9.92239 0.924483 3.70412
3.89492 2.29603 1.3569
2.74891 6.21122 1.82464
0.562636 0.425934 6.84654
1.25707 4.89048 5.62512
2.28746 0.570301 6.27835
1.46637 1.91668 2.43998
1.04739 0.528028 9.50892
8.25443 9.89378 7.51576
3.26477 0.396683 0.663208
2.58447 7.89433 5.55064
0.0616593 1.8247 8.2969
8.02439 3.42458 0.99284
4.37209 0.414673 8.61206
9.45267 2.4204 5.52063
3.26363 0.476866 1.09049
2.42657 1.0895 8.73689
7.2289 0.271785 1.14139
3.23952 0.391493 0.0460248
3.34138 0.256049 0.341307
3.63292 0.515063 1.31433
1.50137 4.88473 1.32433
0 4.43849 1.27652
7.65949 1.92596 1.35949
3.36436 0.357076 0.41884
1.49377 0.95116 4.45762
7.71358 1.86362 1.89205
3.05705 0.0837175 0.528477
3.29993 0.363205 0.360481
3.24087 0.417891 0.862638
6.32368 0.395908 1.22257
5.7972 0.111188 0.686761
1.83819 0.753155 6.33173
6.69433 9.92248 3.16649
5.09444 0.0929921 8.13514
3.29238 0.424522 0.293111
1.38289 4.98001 5.95464
4.29697 2.08992 2.26311
6.12505 4.34767 0.273198
3.37077 0.324576 0.723781
3.59156 0.28479 0.283695
0 6.00972 0.724585
9.642 0.542538 6.72129
7.37078 4.14394 8.11337
4.55585 0.341853 8.55979
2.81123 0.0857786 0.343484
2.91958 0.265985 0.245422
7.69011 3.88503 0.481794
3.018 0.546619 2.34245
7.94272 4.46808 0.396343
7.9273 5.63219 1.85333
5.09834 0.471716 7.86056
3.53692 0.426846 0.331435
7.86033 0.927191 6.11962
4.14027 0.434998 2.47507
5.28615 4.79225 0.725262
3.55656 0.597555 1.14267
3.27638 0.108704 0.647383
9.8045 4.47932 0.567298
7.24836 4.24938 8.34553
3.80364 0.0747985 8.35026
7.44181 0 1.1867
3.41302 0.155328 0.545929
4.44813 0.144428 8.12046
0.424641 1.62367 3.24092
7.56883 7.26104 9.08824
1.56869 0.365225 5.0856
3.45725 0.782087 1.25895
4.43682 1.85365 6.20859
3.17634 0.509825 0.632368
3.94184 0.544037 0.926327
2.65964 0.0822895 0.0982447
2.72378 0.353856 0.442718
4.6831 0.25321 8.76139
2.53386 7.05409 3.74419
0.335981 0.507931 5.95148
1.45348 0.892417 5.62919
6.62169 5.01053 0.548217
7.40334 0.902798 9.89388
3.12551 0.253724 0.906164
0.732791 8.13178 9.61349
4.309 0.291641 8.62208
5.23117 0.957301 2.27931
6.89356 0.00956651 1.56156
3.4828 0.243626 0.915693
5.72269 0.974446 6.88881
4.18904 0.13922 7.8943
2.76668 3.74383 5.60264
4.36376 0.322961 8.17778
2.90318 0.367734 0.210386
9.84203 0.462628 0.933881
1.82102 0.674529 6.33784
3.56614 0.499946 3.91875
4.45428 0.538231 8.02751
3.03999 10 4.61672
6.60442 0.283234 2.44241
4.53038 0.174754 8.31353
7.11116 0.520714 1.30458
3.01362 0.0765501 0.0799498
3.02926 0.14388 0.868046
9.36405 4.6308 0.259666
8.75844 2.00248 3.17044
3.49827 2.58605 4.18155
5.71896 2.39692 7.75351
4.07787 0.210846 8.64217
3.37114 2.96118 3.80988
8.09835 8.49414 0.224815
4.04021 1.67321 1.78285
3.26627 0.0589842 0.638332
7.08957 0.17517 1.9888
5.93357 0.147741 1.63486
9.44335 2.90632 0.713518
1.5598 0.578285 5.12482
3.57603 0 10
8.12977 2.02284 0.554064
3.01549 0.446604 0.609257
7.94569 0.559816 7.52462
5.3115 3.04754 8.4593
1.05531 2.10403 2.33339
0.181165 0.610689 4.69166
6.6557 0.251346 0.874301
3.88047 0.442323 1.06778
0.439998 0.500692 8.13054
4.11171 0.482398 7.83834
4.55596 0.132566 7.83593
3.4017 0.168355 0.837455
3.20832 0.279765 1.04777
8.85835 2.76562 8.2279
3.47376 0.121455 0.853985
1.63742 1.94029 2.57107
1.8724 0.731421 6.09376
5.38397 0.83014 3.35799
2.51547 10 1.86789
3.22049 0.515102 0.768904
0.783693 0.541323 8.17352
3.54214 0.633391 1.42862
3.3547 0.319648 0.464758
1.88528 1.00818 4.59421
3.06032 2.99619 3.60612
4.40171 0.00887232 8.39429
2.70933 1.55832 6.13235
7.31535 0.493494 1.27993
3.53711 0.0040874 0.654689
9.17564 2.35027 8.42592
0.498005 0.590603 8.38775
9.8752 0.773594 4.97261
2.37161 4.02881 5.30974
6.37981 1.07813 7.14377
6.48075 3.03968 1.74694
4.59224 0.118876 7.98784
0.209085 0.215086 5.74033
4.21654 0.608091 7.80451
4.0591 0.285431 0.408825
7.19096 0.0844071 1.90851
8.3298 1.80555 0.46493
3.05062 0.0963692 0.17584
5.65495 0.698585 1.87937
1.59897 7.13557 6.29178
2.90496 0.497978 0.218203
9.16852 6.20745 0.0739204
3.40675 0.555177 0.920339
4.40393 0.380704 8.20709
3.80104 0.459775 1.22865
6.05519 0.298714 1.79375
4.28817 8.38226 7.66623
2.10443 3.8222 5.4959
3.37474 0.374672 0.459152
9.33746 0.839057 9.8626
3.09373 0.535622 8.25501
5.47664 0.185316 8.36774
4.26556 0.431193 8.46002
4.74713 0.306173 7.88355
4.51986 0.347103 7.9247
2.97264 0.288906 0.578702
3.25193 0.204099 0.205316
6.18992 0.202399 1.27823
3.18624 0.315271 0.345345
3.43764 0.272088 1.37384
4.91749 0.512154 8.75916
2.43804 0.608955 0.527144
3.50943 0.0415184 0.510178
5.39119 0.354767 7.46842
4.64184 0.00240054 8.18235
3.10566 0.716678 0.64778
2.8894 0.209407 0.83839
5.21531 0.679237 1.94783
4.92913 0.265038 7.6535
2.89266 0.237089 0.610864
3.28424 0.196228 0.146619
5.98849 0.266045 1.61033
4.24935 0.306495 8.22814
4.26651 0.460483 8.35153
3.24811 0.155716 0.288487
2.98362 0.38436 0.733542
7.47443 0.455611 0.968389
4.09242 0.16648 7.93689
9.82403 0.77181 6.89385
4.55716 0.0659584 7.75218
8.31491 1.48034 0.260337
6.02723 0.331617 1.61301
3.01564 1.2579 5.98973
4.25452 0.332689 8.41436
3.0934 0.0837092 0.106263
3.07311 0.215265 0.799778
7.2063 0.417382 1.28893
4.41493 0.167793 8.28614
4.41389 0.321335 7.60024
3.99715 0.343133 8.27944
3.05541 0.397448 0.583061
2.82423 0.411224 0.0960571
3.32221 0.289239 0.387579
4.00492 0.49539 8.10927
3.54345 0.415235 0.503895
0.421143 0.43399 8.44171
4.51624 0.344792 8.04735
3.52298 0.193894 0.31087
3.59143 0.235598 0.790304
8.23752 3.79613 6.43152
6.43013 0.506931 1.1084
2.78937 0.366948 0.329755
3.01389 0.263477 0.755924
4.42242 0.666542 8.33353
3.17341 0.158477 0.370089
0.515897 0.565669 8.47059
4.75046 0.285245 8.00373
3.44542 0.17413 0.319507
0.55118 0.390502 6.75934
5.97465 0.780955 1.71475
6.4259 0.407472 1.15339
POINT_DATA 400
SCALARS particleColor float 3
LOOKUP_TABLE default
0 0.54658 1
0.391257 1 0.608743
0.821655 1 0.178345
0.696789 1 0.303211
1 5.96046e-08 0
1 0.0405442 0
1 5.96046e-08 0
0.165108 1 0.834892
0.902038 1 0.0979622
1 0.626536 0
0.122663 1 0.877337
0.469174 1 0.530826
1 0.678796 0
0.13505 1 0.86495
0.227936 1 0.772064
1 5.96046e-08 0
0.117284 1 0.882716
0 0.487452 1
0.610096 1 0.389904
1 0.672823 0
0 0.240492 1
1 0.899058 0
1 5.96046e-08 0
0.578547 1 0.421453
0.510968 1 0.489032
1 0.550949 0
0.255951 1 0.744049
0.412355 1 0.587645
1 0.771419 0
0.52127 1 0.47873
1 5.96046e-08 0
0.679153 1 0.320847
0.848229 1 0.151771
0.809495 1 0.190505
0 0.971502 1
1 5.96046e-08 0
1 5.96046e-08 0
0 0.688816 1
1 5.96046e-08 0
0.572879 1 0.427121
1 5.96046e-08 0
0.730322 1 0.269678
0.914185 1 0.0858153
1 0.674141 0
0.0487976 1 0.951202
0.0964393 1 0.903561
0.283572 1 0.716428
0 0.686737 1
0 0.478688 1
1 5.96046e-08 0
0 0.594359 1
0.558368 1 0.441632
0.0697122 1 0.930288
0.728795 1 0.271205
0 0.89046 1
0 0.58457 1
0.484464 1 0.515536
0 0.804972 1
1 0.406481 0
0.52881 1 0.47119
0 0.956668 1
1 5.96046e-08 0
0 0.888891 1
0 0.703114 1
1 0.934578 0
1 0.393558 0
1 0.624911 0
1 5.96046e-08 0
0.0999603 1 0.90004
0.356446 1 0.643554
0.133438 1 0.866562
0.128652 1 0.871348
1 0.703347 0
1 0.665249 0
1 0.27145 0
1 0.350544 0
0.134573 1 0.865427
0 0.919477 1
0 0.985557 1
0.522581 1 0.477419
0 0.726014 1
0.16102 1 0.83898
0.413698 1 0.586302
0.40524 1 0.59476
1 5.96046e-08 0
0.289684 1 0.710316
1 5.96046e-08 0
1 5.96046e-08 0
0.47616 1 0.52384
0 0.775662 1
0 0.68174 1
1 0.845105 0
1 0.973598 0
0 0.667646 1
0.187306 1 0.812694
1 0.8597 0
1 0.661871 0
0.118119 1 0.881881
0.210158 1 0.789842
0 0.642453 1
0 0.475474 1
0.844941 1 0.155059
0.11411 1 0.88589
0.384937 1 0.615063
0 0.879035 1
1 0.448987 0
1 0.182256 0
0 0.617204 1
1 5.96046e-08 0
0 0.693777 1
1 0.987647 0
0.969335 1 0.030665
1 5.96046e-08 0
0.139621 1 0.860379
0 0.247585 1
0 0.599719 1
0 0.5961 1
1 0.861495 0
0.689181 1 0.310819
0.331037 1 0.668962
0 0.763739 1
1 0.97489 0
0.858682 1 0.141318
1 0.486086 0
0.0938206 1 0.906179
0 0.762015 1
0.495681 1 0.504319
0 0.558116 1
1 0.651121 0
1 5.96046e-08 0
1 5.96046e-08 0
1 0.946263 0
0.898081 1 0.101919
0.813247 1 0.186753
0 0.594984 1
0.0197545 1 0.980245
0.0319787 1 0.968021
0 0.712591 1
0.987463 1 0.0125372
0.0656092 1 0.934391
0 0.371952 1
0.176738 1 0.823262
0.552786 1 0.447214
0.869152 1 0.130848
0 0.520972 1
0 0.641508 1
0 0.977445 1
1 0.724217 0
0 0.660216 1
0.893175 1 0.106825
0 0.424837 1
0 0.793054 1
0.0449834 1 0.955017
0 0.884648 1
1 5.96046e-08 0
0 0.554231 1
0 0.235253 1
0 0.866553 1
0.406558 1 0.593442
1 5.96046e-08 0
0 0.725706 1
0 0.780893 1
0.334383 1 0.665617
1 0.31659 0
0.202795 1 0.797205
0.510211 1 0.489789
1 5.96046e-08 0
0.771394 1 0.228606
1 0.489401 0
0 0.920828 1
0 0.654256 1
1 0.963207 0
1 5.96046e-08 0
0.655495 1 0.344505
0 0.297994 1
1 0.845492 0
0 0.658605 1
1 0.348367 0
0.0244229 1 0.975577
0.901948 1 0.0980523
0 0.751831 1
0.845158 1 0.154842
0 0.880226 1
0.3857 1 0.6143
0.19987 1 0.80013
0.438625 1 0.561375
0 0.223826 1
1 0.575872 0
0 0.538627 1
0 0.291094 1
0 0.631604 1
0 0.480424 1
1 0.612966 0
1 5.96046e-08 0
1 0.818669 0
0 0.250392 1
0 0.53217 1
1 0.772415 0
0 0.626258 1
0 0.843691 1
0 0.249704 1
0 0.629333 1
0 0.909809 1
0 0.26904 1
0.764963 1 0.235037
0 0.444685 1
0 0.530624 1
1 5.96046e-08 0
0 0.509326 1
0.428712 1 0.571288
0 0.492121 1
0 0.381027 1
1 5.96046e-08 0
0.197547 1 0.802453
1 5.96046e-08 0
0 0.417618 1
0 0.726315 1
0 0.5735 1
1 0.30636 0
0 0.52787 1
1 0.406187 0
0.133067 1 0.866933
0 0.174957 1
0 0.757812 1
0 0.342209 1
0 0.474007 1
0.100531 1 0.899469
0 0.562216 1
0 0.828401 1
0.54309 1 0.45691
0 0.527778 1
0 0.878522 1
0 0.604601 1
0 0.865501 1
0 0.207512 1
0.239805 1 0.760195
1 0.382856 0
0 0.796181 1
0 0.427624 1
1 5.96046e-08 0
0 0.479729 1
0 0.201275 1
0 0.430403 1
0 0.360285 1
0 0.436323 1
0.608487 1 0.391513
0 0.535098 1
0 0.828839 1
1 5.96046e-08 0
0.512607 1 0.487393
0 0.7183 1
1 0.942835 0
0 0.10697 1
0.401884 1 0.598116
0.00872278 1 0.991277
0 0.6267 1
0 0.773028 1
0 0.493017 1
0 0.202302 1
0 0.353841 1
0 0.768888 1
0.532098 1 0.467902
0 0.449814 1
0.435736 1 0.564264
0.0815446 1 0.918455
0.948442 1 0.0515577
0 0.429202 1
0 0.685035 1
0 0.632837 1
0 0.737878 1
0 0.425735 1
0 0.965209 1
1 0.981631 0
0 0.206495 1
0.0998615 1 0.900138
0 0.828342 1
0 0.770373 1
0.192039 1 0.807961
0 0.689297 1
0 0.232846 1
0 0.453495 1
0 0.732652 1
0.721009 1 0.278991
0.126306 1 0.873694
1 5.96046e-08 0
0 0.903012 1
0 0.718402 1
0 0.888923 1
0.299863 1 0.700137
1 0.952258 0
1 5.96046e-08 0
0 0.678567 1
0 0.656166 1
0 0.332784 1
0 0.846404 1
0 0.588622 1
0 0.569691 1
0 0.53907 1
0 0.871393 1
0 0.821972 1
0 0.795174 1
0 0.9655 1
0 0.652779 1
1 5.96046e-08 0
0 0.667401 1
0 0.956208 1
0 0.752206 1
0 0.668195 1
0 0.903364 1
0 0.578911 1
0 0.854075 1
0 0.812037 1
0 0.351671 1
0 0.735915 1
0 0.455913 1
0.000841961 1 0.999158
0.242598 1 0.757402
0 0.483212 1
0.340526 1 0.659474
0.481379 1 0.518621
0 0.584945 1
0 0.561723 1
0 0.488586 1
0 0.848748 1
0 0.70536 1
0 0.422002 1
0 0.450926 1
0 0.533635 1
1 5.96046e-08 0
0 0.450361 1
0.0498851 1 0.950115
0 0.561136 1
0 0.361601 1
0 0.877139 1
0 0.406787 1
1 0.997349 0
0.43847 1 0.56153
0 0.675449 1
0 0.931168 1
0 0.807813 1
0 0.699915 1
0.746996 1 0.253004
0 0.801824 1
0 0.587937 1
0 0.374567 1
0 0.693163 1
0 0.351688 1
0 0.582148 1
0 0.860736 1
0.217485 1 0.782515
0 0.881515 1
0 0.236314 1
0 0.539676 1
0 0.771928 1
0 0.981181 1
0 0.72252 1
0 0.827317 1
0 0.889645 1
0.260501 1 0.739499
0 0.26605 1
0 0.620648 1
0 0.602227 1
0 0.818357 1
0 0.780918 1
0.114414 1 0.885586
0.211135 1 0.788865
0 0.573301 1
0.0368356 1 0.963164
0.0881353 1 0.911865
0.173936 1 0.826064
0 0.75331 1
0 0.733473 1
0 0.765934 1
0 0.651701 1
0.0524779 1 0.947522
0.0610306 1 0.938969
0 0.673022 1
0 0.556052 1
0.203369 1 0.796631
0 0.557006 1
0 0.364298 1
0 0.7402 1
0 0.980478 1
0 0.937411 1
0 0.462562 1
0 0.354937 1
0 0.528486 1
0 0.407385 1
1 5.96046e-08 0
0 0.545477 1
0 0.582757 1
0 0.421967 1
0 0.861296 1
0 0.714554 1
0 0.756588 1
0 0.496606 1
0 0.431193 1
0.197274 1 0.802726
0.0252618 1 0.974738
0 0.374536 1
