# vtk DataFile Version 3.0
Particle simulation
ASCII
DATASET POLYDATA
POINTS 400 float
4.84728 9.35933 1.37698
7.91743 7.99577 0.305068
7.9582 3.90711 6.75923
8.17566 0.64759 8.73334
3.06534 7.48853 8.66919
8.40681 8.33582 0.137467
2.05239 4.57555 0.233263
7.44574 3.44105 3.05254
3.62116 7.68232 9.23486
3.59845 3.07338 4.21024
1.4776 0.608948 3.69535
8.95751 6.18958 2.50186
4.84736 4.4116 7.85917
6.02296 0.710186 1.41653
2.70586 5.32405 3.99748
3.17586 3.06793 3.791
2.81698 6.94717 9.75029
8.22953 1.83631 7.96522
2.87379 7.56943 9.70667
6.51969 4.4558 2.82812
6.64548 1.4289 8.22494
5.10358 0.369535 5.42023
1.79445 8.65006 7.50537
9.02522 3.36488 4.31893
3.83718 6.14645 6.22105
8.06849 9.88158 6.64611
7.60077 9.72195 3.25111
3.3457 7.33546 9.24211
5.53517 8.65035 8.83201
0 4.69354 0.341249
3.52861 1.09706 2.52475
5.74526 0.770476 8.32435
9.36401 6.60792 7.92393
8.94038 0.930845 1.78737
3.37534 4.63378 5.12598
4.88722 1.82326 3.62444
8.37455 8.02051 3.46077
2.19249 7.61812 6.90799
2.82886 4.81709 7.19775
9.59794 0.826563 4.69232
5.10709 4.27824 8.06651
2.00611 3.99762 5.15861
4.00546 3.16456 2.55771
7.93934 6.05732 6.07069
8.35464 4.08372 1.76809
3.04537 8.193 7.87635
9.93472 4.81235 2.97593
4.42746 0.804432 4.77265
1.3685 0.671353 9.45409
8.58703 9.52227 5.39434
6.48244 0.714155 9.23514
4.81502 3.65719 0
0.354841 0.200714 2.8005
0.101317 2.03531 5.16155
0.380883 5.12006 1.69055
3.73182 0.57863 3.07492
6.62129 6.03932 3.77877
6.03597 2.13371 6.59003
2.60385 0.763394 5.30411
7.39678 8.688 6.75862
4.58527 9.6637 1.84163
8.71272 7.37263 2.083
1.6837 5.59859 8.13465
10 8.34466 5.68884
2.28848 8.21658 9.36714
7.06121 5.65148 8.10342
6.04424 4.35359 1.7049
9.39537 2.30126 6.49157
4.3191 8.88278 3.21215
2.46848 1.81414 6.66788
9.56672 0.916351 3.6008
8.14326 0.244203 3.92602
0.567664 0.599387 3.24523
5.81844 0.368494 1.32785
3.86035 10 7.72751
0.758617 7.33689 3.16068
5.28766 5.31143 7.47458
1.90904 3.70129 7.21231
3.12186 1.1203 6.63264
8.70267 8.55597 4.87036
3.12381 6.60936 3.21365
1.56829 0.311053 9.36054
3.62682 5.77942 6.36707
4.83497 4.28368 5.43952
5.22396 5.15199 3.61722
0 0.756589 0.266569
9.60499 1.57233 9.64198
1.45995 10 0.680948
0.654046 8.2163 2.08693
2.0381 6.25575 0.566054
4.54936 1.12597 8.09312
6.98745 0.170066 10
8.1661 0 9.77277
3.42364 1.88263 3.13694
6.76076 2.5428 3.03587
0.0961246 7.87922 7.83488
2.9934 5.99666 6.69355
9.2742 4.13015 8.71053
0.547271 5.99792 4.67996
9.1765 7.22264 8.53643
1.2609 0.866853 6.9957
4.92069 2.66844 2.48639
2.35422 4.49597 6.35637
4.25148 5.13671 9.65466
7.19145 0.916977 9.22141
2.32523 8.45974 2.45865
3.75681 7.15561 1.72235
4.06711 5.35821 4.34146
3.29135 9.52539 4.57025
8.2318 8.58939 0.00838849
6.78277 0.750164 6.37766
5.72945 4.52564 6.95738
5.12244 0.425011 7.58526
0.426065 9.40133 7.44514
9.41378 1.64225 9.57434
0.831611 3.10208 1.91047
1.61226 2.84546 2.12992
2.81773 6.71939 8.40121
6.87423 7.88502 0.140178
4.74165 6.01884 6.99177
0.420029 9.12866 4.78546
6.11104 1.67871 1.47829
1.83045 2.27023 2.69375
3.36692 3.82392 4.49691
1.68086 0.838793 4.63797
0.911515 4.51068 2.89148
4.30498 9.13095 9.97389
2.79973 4.04723 0.970183
2.76826 3.75123 4.11999
2.28298 2.04623 2.29468
7.30302 3.13401 1.21668
9.94024 6.82152 6.36204
10 2.53606 4.24631
8.61847 0.783366 3.68621
4.90599 1.25144 3.38694
5.5643 1.30399 1.56114
5.11356 3.9657 4.51977
3.09214 4.75753 3.76041
7.6085 7.23038 5.86633
5.9235 1.89269 2.49878
7.33075 0.380399 6.23066
8.44308 9.70819 6.77702
7.80562 6.03094 7.06734
7.20654 6.03901 8.06881
1.31327 2.75838 6.84564
6.86295 2.96005 6.23239
6.08967 6.11137 9.35367
7.72689 6.56037 3.37838
1.80134 7.93431 5.42467
4.29483 0.420332 7.24652
7.31548 0.422519 6.50405
8.3566 1.95057 6.37047
0.148928 0.985871 9.23887
5.95395 5.85735 1.76468
4.29257 0.752765 7.14645
0.579446 1.03039 7.64836
7.87324 6.88263 5.2481
9.51172 0.873797 9.66047
4.52989 4.15694 1.91869
8.47593 8.77027 5.11642
3.96302 8.97062 8.04509
9.55545 6.77633 1.51421
6.90371 3.2559 0.488329
5.6127 9.21916 5.24338
2.39881 1.90196 2.76412
2.54626 2.32299 0.390518
8.79152 2.31188 8.6083
9.21332 5.40804 1.67299
5.07294 8.63754 0.429726
9.23697 0.994507 1.1753
3.26468 0.660065 3.12694
8.32732 0.634485 2.71348
1.67272 10 0
8.14261 1.16451 10
3.88699 8.87414 10
6.92128 0 2.93064
5.91699 5.66098 8.51934
5.93687 7.25447 0.197128
0.512916 6.771 8.7437
0 6.34182 1.14498
0.216404 1.06287 8.64637
1.02858 0.402221 6.46691
6.3248 8.32689 5.40028
1.60002 3.95624 6.24989
9.02889 6.78405 2.23479
10 6.09195 4.01266
7.22855 0.73511 6.90697
7.94362 0 1.07982
8.27756 6.21753 4.31689
5.62892 2.43555 7.6431
9.73872 4.56387 1.25344
9.91163 4.98175 7.81814
5.2537 9.48227 5.44861
6.63225 8.03923 9.28263
0 1.98408 2.16582
1.80408 9.22944 6.41633
7.46728 6.07702 1.50229
5.60933 7.32344 9.59533
3.41275 6.54901 5.85976
7.21383 7.3923 3.31926
6.36561 0.351088 6.13699
2.51558 7.15708 2.64681
2.70773 9.43969 5.78662
2.12718 0.375859 2.38058
9.28515 4.80165 6.19885
5.46284 8.5851 3.37213
7.442 1.66727 2.92992
1.23478 8.1877 6.2894
1.77147 8.42805 0.82059
7.49636 10 0.977711
7.26413 0.615018 7.12856
6.31245 1.46191 8.77504
3.13487 3.93709 7.4264
6.97451 2.1031 8.56062
5.27678 6.11313 8.4343
5.45833 8.29247 8.75092
7.32113 0.690287 6.16161
6.90268 4.27429 0.647805
8.39918 4.34456 0.280027
9.44151 4.88018 2.34271
2.31922 9.2953 3.43484
9.56954 9.20566 5.31616
4.10372 1.77026 5.75672
7.45332 0.759985 6.09424
7.46639 8.75073 10
4.11504 6.08585 3.21653
2.13381 9.28517 0.465135
7.35043 8.84984 3.46009
7.28459 0.436068 7.1145
3.26055 3.02592 0.689531
4.4674 2.99493 2.61251
8.06077 6.49894 4.02502
7.49276 2.48365 0.382496
2.91081 2.24095 6.19513
6.43272 6.15912 2.91169
5.75311 7.19415 2.28541
3.45115 8.55342 8.59152
4.91724 1.27339 2.73153
7.23439 0.610285 6.70714
2.66647 4.86828 9.66821
7.42989 0.196441 6.61299
0.902595 0.332296 8.20152
5.85564 7.83277 9.23262
2.6309 0 5.5642
9.75254 6.4005 0.21063
8.54464 8.12935 7.37557
7.34307 6.70325 5.31551
8.14605 8.76554 2.41098
3.02541 5.09324 7.38967
0.826276 5.05516 4.79446
9.57103 2.31393 8.45441
4.88182 0.797338 1.62639
6.29022 3.49868 7.5685
2.85207 5.58602 8.47118
3.85787 6.03331 0.245862
8.55664 1.64933 5.26982
9.52823 1.0187 7.90878
5.20108 5.38528 7.31199
0.024792 1.30483 3.59403
8.073 3.68568 1.59874
8.53687 9.66494 6.98563
6.35739 7.88119 1.09718
4.89363 4.69789 4.78574
2.68508 6.5063 2.72914
1.92655 0.363399 0
5.28111 6.80597 4.31592
5.98919 7.01118 4.43727
2.05349 5.26835 7.87232
8.4919 0.635903 8.2311
2.71314 7.11117 6.27298
8.45135 1.86338 0.337155
3.77389 1.37892 6.92321
1.63166 4.01952 4.44965
5.29474 3.17405 7.92672
9.88017 8.31556 0.995225
9.96003 4.23923 8.34839
4.42433 0.324062 7.30877
9.33686 9.52662 6.66086
7.87674 5.18684 6.77842
6.41547 0.543958 6.24207
7.72941 2.78504 9.13062
9.25952 9.23821 5.0673
0.848661 0.613508 3.23812
9.81992 8.30832 5.13031
6.00473 7.8042 0.610686
7.68705 4.7963 0.544688
2.16482 9.98464 2.75231
0 0.999017 2.38512
7.2782 7.35969 3.27194
0.501961 8.88385 3.31274
7.7796 4.46211 1.29518
9.44951 7.04511 5.79037
5.97362 4.47525 6.38407
4.52999 1.5466 5.61074
6.10256 6.38311 6.47775
0.295114 0.30812 9.76552
7.40622 0.170529 6.40811
6.20105 0.498824 6.13047
7.45874 0.673376 7.13696
7.54248 0.315839 6.74192
1.10162 3.66552 3.47561
5.51989 5.32506 8.06944
7.30582 0.429091 6.75148
4.60554 6.28203 4.50317
7.20802 0.693125 6.86044
10 2.3915 5.15271
6.5832 0.532189 6.14187
7.33289 0.486878 6.5222
5.99829 3.76047 9.98158
1.76038 6.29293 0.520555
6.55287 4.01634 2.32614
5.57897 2.57693 9.26468
9.62465 5.58067 2.1753
7.93699 0.477576 6.56505
9.14396 4.23819 6.63707
3.13816 3.05867 0.63687
0 4.13362 3.81631
6.55448 3.12386 4.44473
1.19938 2.67823 6.82554
10 2.58871 6.11647
5.63431 1.36217 8.95195
0.607763 3.50204 0
0.462258 0.239571 9.90845
7.31294 0.387618 6.58558
7.5605 0 6.70571
7.17753 5.07324 2.03759
7.64493 0.613775 6.13411
4.98399 0.872605 1.70273
8.77457 8.68503 8.17718
7.33972 0.181569 6.69829
8.83975 6.63432 4.47948
1.30243 3.0339 4.24622
0 4.75959 4.30255
3.49245 3.14691 6.46336
5.24925 9.7553 9.25983
2.38388 1.71965 10
4.03951 8.68692 7.62184
7.25507 0.271561 6.56904
2.85314 6.77816 5.41264
0.496464 6.91505 1.51161
3.37685 0 0.128896
0.433976 2.61428 8.35411
4.77076 7.75586 3.33358
0.401763 0.251182 9.98816
6.58892 0.184301 6.23323
0.238416 2.58608 5.05204
9.02465 1.39425 5.51016
7.39516 0.23916 6.80003
7.22457 0.612549 7.05004
0.957544 0.898802 2.95749
7.77892 0.0925208 6.89061
7.51344 0.602699 6.50946
7.60882 7.60616 1.30172
1.68715 1.85339 9.17412
2.62868 2.18857 6.75278
7.30183 0.444468 6.5993
4.73261 6.04132 0.84621
0.511514 9.50977 2.09766
7.78496 0.685777 7.37456
7.37978 0.240585 6.77533
4.20596 8.89124 1.3644
0.655215 0.328548 9.93877
0.506112 0.206042 9.93152
7.54284 0.45776 7.29129
7.01526 0.287887 6.6294
10 9.32164 4.25837
0.425661 0.488755 9.94355
9.90916 2.97807 8.30492
7.93494 4.11512 8.67835
9.80427 6.40941 5.59147
8.93036 1.74833 5.47628
4.33743 4.96782 8.53483
3.22186 3.83783 6.47173
7.23534 0.319945 6.50824
7.1609 0.577615 6.9221
8.29908 1.85374 6.19888
0.463537 0.462847 9.86783
5.99813 9.19244 3.81732
6.84664 4.28915 0.779398
7.47504 0.970282 6.30769
7.50399 0.45532 7.34799
7.06969 0.498075 6.89701
9.04555 8.39569 5.58833
7.39102 0.242397 6.99335
6.39038 1.10985 6.34979
0.30119 0.37729 9.74732
7.4114 0.507528 7.33722
7.04251 0.317803 6.72084
4.28318 8.2368 9.26126
4.63124 0.0075435 7.58058
7.79162 0.259187 6.78636
7.22454 0.0453699 6.71749
7.71815 6.57122 7.95862
7.40463 0.364442 6.68143
2.48748 1.21642 6.48807
7.40607 7.3249 9.78618
7.25072 0.202569 6.73009
3.44242 7.07763 1.71408
6.51429 8.8968 0.0791064
6.41206 4.67085 6.67181
POINT_DATA 400
SCALARS particleColor float 3
LOOKUP_TABLE default
0.813475 1 0.186525
1 5.96046e-08 0
0.218742 1 0.781258
1 5.96046e-08 0
1 5.96046e-08 0
1 5.96046e-08 0
0.386073 1 0.613927
1 5.96046e-08 0
0.675422 1 0.324578
0 0.668507 1
1 0.837359 0
0.203118 1 0.796882
1 5.96046e-08 0
1 0.732622 0
1 5.96046e-08 0
0.941603 1 0.0583968
0.683975 1 0.316025
0.946251 1 0.053749
0.733117 1 0.266883
1 5.96046e-08 0
1 0.10213 0
1 0.613474 0
1 0.867115 0
0 0.849429 1
0.336251 1 0.663749
0.866783 1 0.133217
1 5.96046e-08 0
1 0.810601 0
1 5.96046e-08 0
1 5.96046e-08 0
0 0.736042 1
0.861841 1 0.138159
0.703858 1 0.296142
1 5.96046e-08 0
1 0.620799 0
1 5.96046e-08 0
1 5.96046e-08 0
0.994743 1 0.00525749
1 5.96046e-08 0
1 5.96046e-08 0
1 5.96046e-08 0
1 5.96046e-08 0
1 5.96046e-08 0
1 5.96046e-08 0
0.948489 1 0.0515112
1 0.356211 0
1 5.96046e-08 0
1 0.897082 0
0 0.78655 1
1 5.96046e-08 0
1 0.446727 0
1 0.52377 0
0.177892 1 0.822108
0.77847 1 0.22153
1 0.697401 0
0.599378 1 0.400622
0.690033 1 0.309967
0 0.566326 1
0.261984 1 0.738016
0.848885 1 0.151115
1 5.96046e-08 0
1 5.96046e-08 0
1 0.892663 0
1 5.96046e-08 0
1 5.96046e-08 0
1 0.651667 0
0.638166 1 0.361834
1 5.96046e-08 0
1 5.96046e-08 0
0.784614 1 0.215386
0.910073 1 0.0899273
1 0.367427 0
1 5.96046e-08 0
1 5.96046e-08 0
1 5.96046e-08 0
1 5.96046e-08 0
0 0.66707 1
1 5.96046e-08 0
1 0.929106 0
0.203643 1 0.796357
0.623508 1 0.376492
1 0.00605714 0
1 0.22874 0
1 5.96046e-08 0
1 5.96046e-08 0
1 0.651381 0
1 0.175033 0
1 5.96046e-08 0
1 5.96046e-08 0
1 0.0844667 0
0.436118 1 0.563882
1 5.96046e-08 0
1 5.96046e-08 0
1 0.718764 0
0.923391 1 0.0766093
0.147778 1 0.852222
0.685105 1 0.314895
1 0.10448 0
1 5.96046e-08 0
1 5.96046e-08 0
1 0.247716 0
1 5.96046e-08 0
1 5.96046e-08 0
0.596889 1 0.403111
1 5.96046e-08 0
1 0.844281 0
1 0.864976 0
1 5.96046e-08 0
1 5.96046e-08 0
1 5.96046e-08 0
1 0.408963 0
0.949097 1 0.0509031
1 0.321824 0
1 5.96046e-08 0
0 0.647329 1
1 5.96046e-08 0
1 5.96046e-08 0
1 5.96046e-08 0
1 5.96046e-08 0
1 0.123648 0
0.6656 1 0.3344
0.994634 1 0.00536638
1 5.96046e-08 0
1 5.96046e-08 0
1 5.96046e-08 0
1 0.200145 0
0 0.416922 1
1 5.96046e-08 0
1 0.05515 0
0.556672 1 0.443328
0.130428 1 0.869572
1 0.0135035 0
1 5.96046e-08 0
1 0.0036307 0
1 5.96046e-08 0
1 5.96046e-08 0
1 5.96046e-08 0
1 5.96046e-08 0
1 5.96046e-08 0
1 5.96046e-08 0
0 0.345425 1
1 0.260667 0
1 5.96046e-08 0
1 0.263516 0
0.885864 1 0.114136
1 5.96046e-08 0
1 0.674707 0
1 5.96046e-08 0
0.548779 1 0.451221
1 5.96046e-08 0
0 0.536088 1
0 0.662142 1
1 0.303721 0
1 0.271602 0
1 0.875684 0
0.284354 1 0.715646
0.668403 1 0.331597
0.714504 1 0.285496
0.389732 1 0.610268
1 5.96046e-08 0
1 0.592718 0
1 0.183496 0
0.0723609 1 0.927639
0.30581 1 0.69419
1 5.96046e-08 0
1 5.96046e-08 0
1 5.96046e-08 0
1 5.96046e-08 0
1 5.96046e-08 0
1 0.845204 0
0.853863 1 0.146137
1 5.96046e-08 0
1 5.96046e-08 0
0.739108 1 0.260892
1 0.388158 0
1 5.96046e-08 0
1 5.96046e-08 0
1 5.96046e-08 0
0.968045 1 0.0319551
1 5.96046e-08 0
0.439228 1 0.560772
1 5.96046e-08 0
1 0.972472 0
1 0.757352 0
1 0.449997 0
1 5.96046e-08 0
0 0.385523 1
1 5.96046e-08 0
0.59617 1 0.40383
1 5.96046e-08 0
1 0.699419 0
1 0.268516 0
1 5.96046e-08 0
1 5.96046e-08 0
1 5.96046e-08 0
1 0.738249 0
1 0.405689 0
0 0.883124 1
1 5.96046e-08 0
1 0.421796 0
0 0.447789 1
1 5.96046e-08 0
0.21594 1 0.78406
0.906047 1 0.0939527
0.687359 1 0.312641
1 0.967361 0
1 5.96046e-08 0
0.530241 1 0.469759
1 5.96046e-08 0
0.772063 1 0.227937
0 0.795666 1
1 5.96046e-08 0
0 0.936894 1
1 0.861807 0
1 5.96046e-08 0
0.815316 1 0.184684
0 0.683453 1
1 5.96046e-08 0
1 5.96046e-08 0
1 5.96046e-08 0
1 5.96046e-08 0
1 0.472309 0
1 5.96046e-08 0
0 0.787188 1
1 5.96046e-08 0
0.528931 1 0.471069
0.992601 1 0.00739926
1 0.334771 0
0 0.621147 1
0.431951 1 0.568049
1 5.96046e-08 0
1 0.519289 0
0.280854 1 0.719146
0.999284 1 0.000716329
1 5.96046e-08 0
1 5.96046e-08 0
1 0.127786 0
1 5.96046e-08 0
0 0.254251 1
0.470308 1 0.529692
0.0924908 1 0.907509
0.672617 1 0.327383
1 0.621539 0
1 0.458071 0
1 0.0128163 0
1 0.197069 0
0 0.539689 1
1 5.96046e-08 0
1 5.96046e-08 0
1 0.487624 0
1 5.96046e-08 0
1 0.514408 0
1 0.678917 0
1 5.96046e-08 0
0.537787 1 0.462213
1 0.337208 0
0.989946 1 0.0100539
0.0860588 1 0.913941
1 0.00925493 0
0 0.930007 1
0.893968 1 0.106032
1 5.96046e-08 0
1 5.96046e-08 0
1 0.205203 0
1 0.150474 0
0.0796719 1 0.920328
1 0.410627 0
0.437569 1 0.562431
1 5.96046e-08 0
0.84769 1 0.15231
1 5.96046e-08 0
1 5.96046e-08 0
1 0.513058 0
0.648536 1 0.351464
1 0.163957 0
0.461506 1 0.538494
1 5.96046e-08 0
1 0.747056 0
1 0.916193 0
0 0.558471 1
1 0.45141 0
0.919739 1 0.0802613
0 0.861364 1
1 5.96046e-08 0
1 5.96046e-08 0
1 5.96046e-08 0
1 5.96046e-08 0
1 5.96046e-08 0
1 5.96046e-08 0
1 5.96046e-08 0
1 5.96046e-08 0
0.963917 1 0.0360832
1 0.303883 0
1 5.96046e-08 0
1 5.96046e-08 0
0 0.602247 1
0 0.357757 1
0 0.331911 1
0 0.572634 1
0 0.623645 1
0 0.895531 1
1 5.96046e-08 0
0 0.537708 1
1 0.322797 0
0 0.607037 1
0.41631 1 0.58369
0 0.390422 1
0 0.388057 1
1 0.764344 0
0.15023 1 0.84977
1 5.96046e-08 0
0.205422 1 0.794578
1 5.96046e-08 0
0 0.740269 1
1 5.96046e-08 0
1 5.96046e-08 0
1 5.96046e-08 0
0.257282 1 0.742718
1 0.295278 0
1 0.472228 0
1 5.96046e-08 0
1 0.296412 0
0 0.724413 1
0 0.45396 1
0 0.498954 1
1 5.96046e-08 0
0 0.358444 1
0.521183 1 0.478817
1 0.425908 0
0 0.442073 1
0.66672 1 0.33328
1 5.96046e-08 0
1 0.896942 0
1 0.542033 0
1 0.91792 0
1 0.731173 0
0.746877 1 0.253123
0 0.237882 1
1 5.96046e-08 0
0.491163 1 0.508837
1 0.602247 0
1 0.0729762 0
1 0.899997 0
0 0.317346 1
0 0.42697 1
1 0.580102 0
0 0.81152 1
0 0.95379 1
0 0.439043 1
1 0.368369 0
0 0.321897 1
0 0.917997 1
1 0.74016 0
1 0.733897 0
1 5.96046e-08 0
0 0.802393 1
0.685997 1 0.314003
1 0.886501 0
0 0.459338 1
0 0.4044 1
0.940089 1 0.0599111
0 0.510306 1
0 0.25284 1
0 0.161236 1
0 0.509241 1
1 5.96046e-08 0
0 0.409431 1
1 0.522289 0
1 5.96046e-08 0
1 0.473465 0
0 0.590379 1
1 0.301938 0
0.48037 1 0.51963
0 0.908784 1
0 0.927351 1
0.36497 1 0.63503
0 0.651003 1
1 5.96046e-08 0
1 0.769089 0
0 0.642189 1
0 0.492294 1
0 0.255191 1
1 5.96046e-08 0
0 0.552576 1
1 5.96046e-08 0
0 0.247147 1
0 0.422563 1
0 0.735962 1
1 5.96046e-08 0
1 0.611817 0
0 0.273352 1
0 0.716518 1
0.622408 1 0.377592
0.0115709 1 0.988429
1 0.663626 0
1 0.434044 0
0 0.929106 1
0.346023 1 0.653977
0.905528 1 0.0944723
0 0.993192 1
