# vtk DataFile Version 3.0
Particle simulation
ASCII
DATASET POLYDATA
POINTS 400 float
1.41008 1.00528 0.893451
1.30384 0.95384 0.285448
0.697166 0.916129 2.38479
0.867748 0.930213 0.239513
0.870026 1.06393 3.0298
0.832473 0.948465 2.00223
0.905475 1.01995 3.69434
0.838608 1.03687 2.56386
1.2693 0.930693 4.01647
1.45501 0.987446 3.42578
1.40094 0.989374 0.878395
1.30408 0.947693 0.285191
0.729702 0.950105 2.40443
0.847161 0.916121 0.289021
0.910202 1.06415 3.07795
0.844229 0.939089 2.05036
0.878877 1.00294 3.80658
0.850563 1.03814 2.50621
1.26669 0.899715 4.03995
1.47792 1.00329 3.34031
0.202691 0.879296 0.815937
0.641391 0.90264 0.363876
0.252042 0.858121 2.32579
0.468977 0.867585 0.353866
0.278225 1.05389 2.97757
0.241386 0.90399 1.9202
0.373446 0.985649 3.66969
0.28221 1.0134 2.54464
0.619984 0.901338 4.07039
0.383623 0.925245 3.33366
0.204271 0.879959 0.806841
0.640512 0.893199 0.378796
0.236104 0.925237 2.38668
0.469218 0.873676 0.332816
0.239487 1.05824 3.02092
0.228568 0.897247 1.97981
0.378715 0.984475 3.61335
0.276979 1.01811 2.53866
0.653406 0.880999 4.1435
0.401332 0.918776 3.3272
1.12453 0.933973 0.852632
1.97918 1.17895 0.0674207
2.55368 1.19159 1.9059
2.44456 1.13748 0.626241
1.9702 1.08798 3.24328
2.08858 1.13891 2.0493
2.02399 1.05687 3.34055
1.98582 1.11198 3.02198
1.68915 1.13989 4.05921
0.972708 0.988087 3.14725
1.1199 0.920811 0.821924
1.97796 1.1943 0.0376831
2.55229 1.17636 1.97144
2.44248 1.11774 0.62995
1.99855 1.09966 3.31755
2.12974 1.11661 2.00597
1.97776 1.05054 3.6122
2.00456 1.1227 2.95607
1.71031 1.14096 4.09734
0.997595 1.00632 3.10138
0.956117 0.988903 0.893662
1.2405 1.04494 0.151255
1.0892 0.944775 1.82415
1.04092 1.04089 0.444007
0.54554 1.03725 3.00061
0.40678 0.975508 2.11548
1.00736 1.07534 3.67168
0.937682 1.07096 3.19877
1.45511 1.10453 4.02311
0.853638 1.05032 3.09175
0.965459 0.973962 0.856071
1.21094 1.02745 0.147532
1.08656 0.935165 1.76433
1.04302 1.03482 0.502487
0.526718 1.03906 3.05449
0.399463 0.985444 2.15597
1.002 1.07635 3.67961
0.943609 1.1197 3.06927
1.44122 1.09333 4.05846
0.858263 1.05804 3.05201
2.21876 1.14887 1.01258
2.5587 1.26892 0.0575706
2.15849 1.09625 1.82126
2.74222 1.17639 0.576961
2.80217 1.05927 3.01468
2.88777 1.12788 1.97982
2.84963 1.0768 3.85749
2.87686 1.07371 2.81787
2.57524 1.17109 4.14121
2.02088 1.07941 3.00024
2.24014 1.13543 0.960785
2.53293 1.23062 0.0654272
2.15505 1.10751 1.88422
2.72823 1.17154 0.615662
2.82016 1.06893 3.04465
2.86585 1.13038 2.01062
2.82059 1.07062 3.90602
2.86602 1.08391 2.83066
2.62481 1.15679 4.11708
2.03976 1.08263 2.92298
2.03544 1.15427 1.00334
2.15921 1.21943 0.127263
1.75462 1.12564 1.89415
2.03325 1.15353 0.564973
2.01011 1.085 3.10215
1.95489 1.17279 1.90574
1.82823 1.09975 3.74603
1.70365 1.08248 3.02998
2.11041 1.12842 4.04865
1.71216 1.08188 2.98737
2.04393 1.14514 0.966872
2.10682 1.23033 0.117946
1.73085 1.13078 1.96872
2.01875 1.14304 0.648909
2.03401 1.09315 3.11709
1.93891 1.16862 1.90858
1.81498 1.1024 3.69236
1.70319 1.10031 3.08847
2.09482 1.11791 4.09326
1.72007 1.09251 2.90617
3.57058 1.01239 1.01326
3.49349 0.937 0.140255
3.36655 1.19311 1.94305
3.53975 1.08149 0.684291
3.81489 1.05775 3.08234
3.96561 0.98232 1.95806
3.64423 1.0212 3.79001
3.82609 1.06598 2.76517
3.52604 0.990363 3.98036
3.71961 1.04717 3.08648
3.59429 0.998116 0.98627
3.47515 0.929726 0.141737
3.36136 1.1933 2.00913
3.52465 1.07897 0.680295
3.8356 1.07179 3.13819
3.96301 0.986588 2.00373
3.65152 1.00476 3.87768
3.8076 1.06375 2.79888
3.52538 0.986766 3.98749
3.70213 1.0472 3.0907
2.45988 1.16803 0.89749
2.76641 1.09821 0.139547
2.57073 1.19158 1.90694
2.58089 1.15447 0.585221
2.51665 1.07215 3.05278
2.39882 1.11711 1.99472
2.54092 1.03353 3.85254
2.52591 1.08357 2.82896
2.75908 1.04912 3.95598
2.58744 1.10159 3.13282
2.46453 1.17088 0.910914
2.76707 1.10717 0.100291
2.58338 1.23693 2.00128
2.64263 1.16903 0.618191
2.52128 1.0845 3.11316
2.38833 1.11182 1.98058
2.53633 1.02605 3.87994
2.53524 1.08029 2.88555
2.75801 1.05146 3.99695
2.58697 1.11307 3.02376
4.06598 0.88422 0.960742
4.37571 0.776327 0.171808
3.82551 0.928264 2.35562
4.2554 0.837735 0.329712
4.18887 1.03097 2.97321
4.02338 0.990623 2.00906
4.0005 0.958055 3.92464
4.19073 1.0401 2.62086
4.14488 0.791896 4.11875
3.97582 0.952758 3.08405
4.05818 0.852984 0.941816
4.40579 0.79613 0.155554
3.82647 0.921621 2.34961
4.26572 0.828763 0.321319
4.19905 1.05029 3.05095
4.0251 0.992281 2.07054
4.01499 0.973558 3.87138
4.18235 1.02691 2.67042
4.1528 0.774098 4.1156
3.9672 0.942745 3.0849
3.40082 0.993091 1.0106
3.04176 1.00041 0.218609
3.67016 0.96841 2.29621
3.32635 0.864286 0.492352
3.51624 1.08252 3.12018
3.57956 0.965955 1.91629
3.51711 0.962405 3.84183
3.52255 1.06522 2.82036
3.35878 0.930366 3.95006
3.60516 0.967519 3.17204
3.41038 0.971294 1.02103
3.0869 0.959378 0.243423
3.66082 0.965263 2.34267
3.34578 0.867422 0.503492
3.5368 1.08062 3.11994
3.57084 0.960356 1.96584
3.50561 0.962282 3.86277
3.50202 1.07683 2.73127
3.33123 0.942689 3.96573
3.6051 0.973129 3.17666
1.41189 1.1565 0.873906
1.2797 1.28093 0.315288
0.71922 1.24529 2.38049
0.903987 1.20703 0.311795
0.826084 1.12271 2.9853
0.797085 1.17948 2.05729
0.910636 1.10008 3.71998
0.813283 1.1482 2.57536
1.23797 1.25321 3.95264
1.46141 1.17009 3.35728
1.40939 1.14681 0.876432
1.28481 1.28054 0.35331
0.720555 1.24125 2.38078
0.874703 1.20964 0.333592
0.818764 1.12181 2.98592
0.817117 1.19707 2.09627
0.906645 1.09369 3.70519
0.814312 1.12985 2.47218
1.25439 1.22062 3.9873
1.46923 1.16657 3.33993
0.280086 1.22516 0.749599
0.552819 1.24524 0.432794
0.282415 1.27165 2.35671
0.510584 1.22961 0.378883
0.298787 1.13817 2.94988
0.244035 1.22302 1.98037
0.396387 1.17354 3.64959
0.311236 1.16905 2.55198
0.637455 1.22703 4.06023
0.429639 1.19884 3.31342
0.253053 1.21878 0.755448
0.492971 1.24071 0.504302
0.279592 1.26829 2.33758
0.502677 1.23311 0.369104
0.293149 1.13485 2.9606
0.267142 1.22511 1.96219
0.401386 1.17468 3.62182
0.326242 1.18904 2.53128
0.634434 1.22131 4.06814
0.442132 1.20776 3.32558
1.10785 1.22531 0.82689
1.9638 0.963204 0.0876301
2.47507 1.00716 1.8684
2.40648 1.08004 0.659608
1.98525 1.1493 3.20974
2.08474 0.960407 2.04892
2.12818 1.09892 3.40869
2.20318 1.05353 3.41996
2.00176 0.984061 3.99881
0.907388 1.15068 3.11775
1.10937 1.22476 0.837803
2.00117 0.962931 0.0514059
2.48631 1.01509 1.93912
2.417 1.06498 0.6375
1.98688 1.15662 3.28662
2.08294 0.969456 2.04573
2.09383 1.1341 3.36505
2.20474 1.06571 3.38964
1.96368 0.985573 4.01241
0.931344 1.15317 3.06403
0.900033 1.20597 0.88158
1.44241 1.11218 0.102188
1.11193 1.20891 1.78763
0.929107 1.17882 0.381063
0.554248 1.14225 3.0012
0.399331 1.18216 2.14847
0.744694 1.09004 3.77247
0.693441 1.08306 3.44496
1.3582 1.09495 3.99476
0.944696 1.10594 3.11331
0.901751 1.20122 0.840167
1.41206 1.10658 0.0926791
1.11417 1.21279 1.79317
0.914308 1.17032 0.460773
0.536291 1.14804 3.00721
0.398064 1.17424 2.17083
0.737752 1.08648 3.65338
0.674423 1.1063 3.35046
1.38919 1.08475 4.01596
0.94914 1.11332 3.06121
2.16957 1.05875 0.979243
2.56234 0.930183 0.0831157
2.03952 1.07947 1.80195
2.94226 0.978419 0.529087
2.80811 1.17214 3.00147
2.90864 1.05206 2.01315
2.9369 1.10969 3.82635
2.94108 1.12153 2.86841
2.67442 1.02186 4.12393
1.87828 1.12102 3.00694
2.18676 1.02737 0.897262
2.55178 0.917692 0.0780527
2.03575 1.07121 1.85807
2.94011 0.968366 0.613465
2.79912 1.17849 2.99831
2.92321 1.04901 1.99266
2.93232 1.10308 3.85697
2.91654 1.12397 2.9047
2.58397 0.999809 4.14735
1.90248 1.13608 2.94237
1.99528 1.03706 0.945515
2.23698 0.92069 0.11324
1.71844 1.06104 1.86261
2.09143 1.03367 0.527233
2.04837 1.09353 3.04469
1.7314 0.968916 2.04092
1.7294 1.03508 3.77127
1.68948 1.11678 3.13234
2.16656 1.00522 4.10171
1.64598 1.09112 3.0029
2.00232 1.03093 0.967591
2.21536 0.906109 0.114014
1.71419 1.05937 1.95146
2.08021 1.03837 0.633355
2.05092 1.11279 3.06789
1.7333 0.964548 1.97689
1.69131 1.03962 3.81905
1.68364 1.12631 3.10714
2.11247 1.00939 4.08701
1.65774 1.10079 2.93645
3.57104 1.16214 0.994093
3.53811 1.23337 0.185735
3.403 0.982613 1.92799
3.52225 1.10211 0.61435
3.82791 1.13242 3.06387
3.98322 1.13357 1.99054
3.68118 1.14505 3.82423
3.83515 1.10728 2.81407
3.53369 1.19037 3.97254
3.74809 1.11804 3.16007
3.60029 1.16281 0.966138
3.51092 1.24321 0.175863
3.42959 0.992871 2.02385
3.51684 1.10291 0.642182
3.84413 1.13356 3.09781
3.98573 1.13326 1.97735
3.66289 1.15105 3.85975
3.83683 1.12686 2.81479
3.51275 1.16368 3.97954
3.75421 1.13011 3.08214
2.54008 1.01191 0.838394
2.37264 1.00065 0.142973
2.61294 1.00511 1.89833
2.72348 1.0048 0.557734
2.54729 1.1648 3.02746
2.46839 1.09053 1.98261
2.51751 1.11424 3.84122
2.52075 1.12564 2.89269
2.63342 1.08241 3.95343
2.60249 1.09045 3.27041
2.55441 1.01377 0.831159
2.37523 0.995759 0.142692
2.61784 1.011 2.03337
2.68928 1.00051 0.58271
2.53603 1.17009 3.08536
2.46442 1.08325 1.95517
2.51705 1.11442 3.89134
2.5268 1.12254 2.94324
2.65351 1.08043 3.98995
2.57239 1.07433 3.17012
3.92539 1.19247 0.998834
4.29131 1.27427 0.250415
3.79585 1.20193 2.35304
4.13919 1.28696 0.367185
4.17701 1.14979 2.95767
4.00747 1.13072 2.02135
3.99004 1.18191 3.88256
4.1585 1.16379 2.66279
4.08161 1.32779 3.96367
3.93062 1.19543 3.11642
3.92547 1.18966 0.962978
4.3048 1.27685 0.22513
3.79586 1.2101 2.36219
4.16721 1.28102 0.347312
4.17288 1.14727 3.00771
4.01093 1.12961 2.03081
3.99761 1.1933 3.86368
4.16191 1.16995 2.65825
4.09314 1.22791 4.04147
3.93003 1.19848 3.12226
3.36229 1.20312 1.02872
3.03773 1.2506 0.262888
3.66275 1.20397 2.32465
3.29155 1.27935 0.471452
3.55559 1.12367 3.07324
3.60889 1.15691 1.93409
3.51204 1.18166 3.82249
3.55402 1.12995 2.80352
3.32772 1.21136 3.91217
3.58971 1.20634 3.18329
3.37012 1.20173 1.01347
3.06551 1.24376 0.286501
3.6632 1.20456 2.32154
3.29752 1.27515 0.533602
3.54661 1.12078 3.07158
3.59356 1.16161 1.98152
3.49971 1.18316 3.83759
3.5499 1.13413 2.76908
3.35886 1.23571 3.90731
3.59532 1.21045 3.17603
POINT_DATA 400
SCALARS particleColor float 3
LOOKUP_TABLE default
0 0.431016 1
0 0.853782 1
0 0.889711 1
0 0.807777 1
0 0.782185 1
0 0.586073 1
0 0.880038 1
0 0.747462 1
0 0.729819 1
0 0.802053 1
0 0.467711 1
0 0.714667 1
0 0.836117 1
0 0.736254 1
0 0.788454 1
0 0.577982 1
0 0.837341 1
0 0.918731 1
0 0.800818 1
0 0.849071 1
0 0.263674 1
0 0.89626 1
0 0.858843 1
0 0.955018 1
0 0.777144 1
0 0.902202 1
0.091569 1 0.908431
0 0.995863 1
0 0.651405 1
0 0.60911 1
0 0.29817 1
0 0.69287 1
0 0.875613 1
0.00395612 1 0.996044
0 0.767454 1
0 0.785278 1
0.0319263 1 0.968074
0 0.926135 1
0 0.668502 1
0 0.649101 1
0 0.692198 1
0 0.781245 1
0.0109186 1 0.989081
0 0.963894 1
0.092592 1 0.907408
0 0.949105 1
0 0.811295 1
0 0.77596 1
0 0.63993 1
0 0.970513 1
0 0.715889 1
0 0.73044 1
0.169644 1 0.830356
0 0.972454 1
0.155088 1 0.844912
0.00154403 1 0.998456
0 0.817691 1
0 0.69584 1
0 0.601552 1
0 0.936585 1
0 0.935116 1
0 0.745073 1
0 0.804534 1
0.0708371 1 0.929163
0 0.889551 1
0 0.947937 1
0 0.738478 1
0 0.762831 1
0 0.743977 1
0.10848 1 0.89152
0 0.937254 1
0 0.913388 1
0 0.752416 1
0 0.945061 1
0 0.963482 1
0.00961992 1 0.99038
0 0.850245 1
0 0.73677 1
0 0.704692 1
0.101335 1 0.898665
0 0.85296 1
0 0.619418 1
0 0.845396 1
0 0.849242 1
0 0.881242 1
0 0.669114 1
0 0.954155 1
0 0.840119 1
0 0.746665 1
0.0552694 1 0.944731
0 0.868318 1
0 0.577845 1
0 0.818842 1
0 0.881399 1
0 0.973177 1
0 0.699043 1
0 0.92478 1
0 0.642305 1
0 0.738733 1
0.132922 1 0.867078
0 0.685152 1
0 0.648758 1
0 0.986823 1
0 0.83434 1
0 0.930311 1
0 0.797542 1
0 0.719952 1
0 0.740268 1
0 0.731898 1
0.103563 1 0.896437
0 0.696712 1
0 0.651959 1
0.0118753 1 0.988125
0 0.837705 1
0.0342066 1 0.965793
0 0.771896 1
0 0.714353 1
0 0.761463 1
0 0.763224 1
0.198853 1 0.801147
0 0.760288 1
0 0.741886 1
0 0.785174 1
0 0.979837 1
0 0.95826 1
0.0420076 1 0.957992
0.0956136 1 0.904386
0 0.946078 1
0 0.918636 1
0.0748783 1 0.925122
0 0.829953 1
0 0.807036 1
0 0.769463 1
0.00120772 1 0.998792
0.0824496 1 0.91755
0.0493785 1 0.950622
0.0554594 1 0.944541
0.0472957 1 0.952704
0 0.946868 1
0.195481 1 0.804519
0 0.64797 1
0 0.659818 1
0 0.965172 1
0.0617863 1 0.938214
0 0.979746 1
0 0.839526 1
0.0561328 1 0.943867
0 0.910511 1
0 0.901772 1
0 0.969331 1
0 0.668711 1
0 0.694402 1
0 0.959271 1
0.0753843 1 0.924616
0.0619147 1 0.938085
0 0.915399 1
0.0253924 1 0.974608
0 0.858129 1
0 0.917026 1
0.134063 1 0.865937
0 0.496364 1
0 0.712314 1
0.0505771 1 0.949423
0 0.628295 1
0 0.829392 1
0.0845715 1 0.915429
0.0267797 1 0.97322
0 0.903 1
0 0.706386 1
0 0.911337 1
0 0.429419 1
0 0.429297 1
0 0.931482 1
0 0.831284 1
0 0.849866 1
0 0.983852 1
0 0.976329 1
0 0.972366 1
0 0.622174 1
0 0.877025 1
0 0.401247 1
0 0.802633 1
0 0.651676 1
0 0.712263 1
0 0.876324 1
0 0.715126 1
0 0.875545 1
0 0.721821 1
0 0.666342 1
0 0.83462 1
0 0.396886 1
0 0.716968 1
0 0.892559 1
0 0.736871 1
0 0.882094 1
0 0.645616 1
0 0.789441 1
0 0.670461 1
0 0.699442 1
0 0.684761 1
0 0.354861 1
0 0.594441 1
0 0.904273 1
0 0.595292 1
0 0.719713 1
0 0.347051 1
0 0.651661 1
0 0.660602 1
0 0.739105 1
0 0.924359 1
0 0.266162 1
0 0.768642 1
0 0.730024 1
0 0.593729 1
0 0.724063 1
0 0.376941 1
0 0.594985 1
0 0.691995 1
0 0.724211 1
0 0.818213 1
0 0.396495 1
0.0605861 1 0.939414
0 0.970503 1
0 0.83388 1
0 0.70415 1
0 0.666404 1
0 0.931378 1
0 0.95185 1
0.13667 1 0.86333
0 0.625046 1
0 0.18973 1
0 0.909333 1
0 0.777438 1
0 0.944357 1
0 0.681446 1
0 0.776699 1
0 0.885453 1
0 0.808572 1
0 0.838156 1
0 0.430616 1
0 0.486438 1
0 0.612392 1
0 0.867719 1
0.0112161 1 0.988784
0.0627495 1 0.93725
0 0.771006 1
0 0.505881 1
0 0.770008 1
0 0.546501 1
0 0.804462 1
0 0.463855 1
0 0.494236 1
0.0429585 1 0.957042
0 0.853352 1
0.0601666 1 0.939833
0 0.805282 1
0 0.652692 1
0 0.749701 1
0 0.62767 1
0 0.795492 1
0 0.803515 1
0 0.567706 1
0 0.692644 1
0 0.870712 1
0 0.727305 1
0 0.848289 1
0 0.599817 1
0 0.522361 1
0 0.620758 1
0 0.99846 1
0 0.786012 1
0 0.548622 1
0 0.809278 1
0 0.747829 1
0 0.853241 1
0 0.837055 1
0 0.707946 1
0 0.568267 1
0 0.549362 1
0 0.991205 1
0 0.785823 1
0 0.573389 1
0 0.59998 1
0 0.785761 1
0 0.739881 1
0 0.467447 1
0 0.836174 1
0 0.822467 1
0 0.672884 1
0.0019954 1 0.998005
0 0.676476 1
0 0.568126 1
0 0.5588 1
0 0.840078 1
0.0557532 1 0.944247
0 0.489792 1
0 0.740491 1
0 0.602282 1
0 0.659244 1
0.0436282 1 0.956372
0 0.575653 1
0 0.425418 1
0 0.860068 1
0 0.694847 1
0 0.773991 1
0 0.635991 1
0 0.461994 1
0 0.522408 1
0 0.545228 1
0.0109378 1 0.989062
0 0.596621 1
0 0.439313 1
0 0.989147 1
0 0.701756 1
0.0136512 1 0.986349
0 0.658996 1
0 0.533373 1
0 0.502525 1
0 0.615378 1
0.0646088 1 0.935391
0 0.613389 1
0 0.638106 1
0 0.763275 1
0 0.815073 1
0 0.86615 1
0 0.874968 1
0 0.902245 1
0 0.933898 1
0 0.778308 1
0.0175442 1 0.982456
0 0.619728 1
0 0.626083 1
0 0.806829 1
0 0.856649 1
0 0.864073 1
0 0.896463 1
0 0.868464 1
0 0.796826 1
0 0.880244 1
0.0705075 1 0.929492
0 0.516689 1
0 0.838903 1
0 0.883081 1
0 0.813938 1
0 0.924416 1
0 0.752111 1
0 0.815985 1
0 0.753713 1
0 0.856116 1
0 0.724536 1
0 0.55323 1
0 0.885959 1
0 0.924078 1
0 0.900941 1
0 0.969811 1
0 0.78079 1
0 0.788728 1
0 0.671406 1
0 0.769141 1
0 0.879474 1
0 0.626667 1
0 0.629301 1
0.0112474 1 0.988753
0 0.583049 1
0 0.761385 1
0.0238058 1 0.976194
0 0.926293 1
0 0.792112 1
0 0.814058 1
0 0.927416 1
0 0.617366 1
0 0.363369 1
0 0.90673 1
0 0.588375 1
0 0.753278 1
0 0.943093 1
0 0.955893 1
0 0.900695 1
0 0.742232 1
0 0.992443 1
0 0.513104 1
0 0.777331 1
0 0.680168 1
0 0.69345 1
0 0.868518 1
0 0.491094 1
0 0.748182 1
0 0.507736 1
0 0.767335 1
0 0.85893 1
0 0.439775 1
0 0.751349 1
0 0.505572 1
0 0.665545 1
0 0.847706 1
0 0.460313 1
0 0.651107 1
0 0.502748 1
0 0.786587 1
0 0.74146 1
