# vtk DataFile Version 3.0
Particle simulation
ASCII
DATASET POLYDATA
POINTS 400 float
2.20096 0.569821 9.83871
0.541145 0.965569 8.36965
3.1377 1.9544 5.63931
3.98276 2.02355 9.30418
3.68917 0.26732 4.94497
1.99801 7.75348 10
4.78089 3.86366 2.90619
7.01048 3.29843 4.25662
8.25755 1.00626 0.749448
2.16696 1.60428 9.11745
1.92075 0.850613 1.25028
1.64487 6.43776 4.72489
9.79574 2.1947 4.95294
1.78916 1.45461 3.08066
2.78961 3.07931 1.45216
6.09604 3.08506 8.73149
2.10793 5.37657 0.497969
3.44861 0.504145 1.70558
6.48237 5.45282 9.40485
8.1859 0.0964716 4.85027
3.32678 0.614381 1.33115
8.43086 2.27835 7.30525
1.29813 9.64282 0.631141
0.419808 4.00366 1.2308
9.87723 1.61365 3.46894
1.23003 4.2646 9.23244
6.34188 0.201359 4.92111
0.385779 0.427337 7.63835
8.85167 3.85297 1.7778
7.28695 3.53542 6.5631
2.48809 3.51612 4.87341
0.0864621 6.19801 2.93914
1.09692 9.80965 7.0637
6.763 0.0970109 1.69387
7.37762 3.1435 6.78759
8.502 3.52545 0.270776
7.30336 0.0800723 8.60131
3.79818 0.253822 1.07248
6.74379 2.14767 0.358243
1.39024 0.535084 8.49553
9.96983 0.797397 4.98532
7.68648 3.27706 8.05047
3.86164 3.89762 4.40458
3.56443 8.25065 3.51841
8.90961 0.523117 4.18962
5.63038 0.583372 1.30498
3.70655 3.3416 7.40111
7.23468 3.71943 6.8406
5.19452 0.574963 1.27369
6.659 3.22182 4.57251
4.20869 3.42349 4.08064
9.74858 5.19018 1.01395
7.9632 0.0508249 7.12831
4.2198 0.420347 7.53458
6.14703 1.76041 8.87013
5.76019 0.652572 1.01318
8.63743 2.53887 6.38147
1.2483 1.32852 7.76774
6.26288 1.53595 0.213172
3.80837 6.18583 2.73373
4.19353 4.3966 3.6608
1.4039 6.33144 7.3736
9.84749 2.93965 8.59477
1.24209 0.633223 9.73329
2.26662 7.98206 2.84721
0.690274 1.48783 10
2.17515 1.15273 8.08494
4.62253 4.97561 0.0232313
6.18271 1.64057 0.274924
5.45423 0.365128 8.10784
9.46788 0.253576 4.67371
2.89858 0 2.31405
5.67071 4.63008 6.90496
1.70092 0.469172 9.59581
0.265635 0.807141 7.60756
9.09374 4.30883 0.0980911
3.80423 0.543411 8.18419
6.28289 0 8.14318
3.66472 4.36662 0.355937
9.40804 0.0636648 9.08832
3.1957 0.408946 1.15643
4.33449 0.749758 3.17956
0.869954 1.83939 4.31394
2.73165 0.396316 1.46715
0.308837 0.0398231 9.46541
3.19481 0.501458 8.71663
4.49663 3.57474 2.91821
2.75175 0.737041 6.96946
1.09989 9.60925 0.861572
7.01753 0.182921 0.759182
3.59612 0.300747 0.694489
2.22148 0.563387 0.944403
1.24224 0.561585 8.47748
3.25049 0.18149 4.01325
1.99066 0.752927 9.58024
4.23157 2.16703 6.75856
7.31741 4.40524 4.40024
4.96865 7.08212 4.54626
3.48054 1.25922 5.58343
6.98998 0.302899 0.659416
3.34679 0.461068 1.47621
6.02407 1.17353 2.04235
3.34439 0.411339 4.35393
6.08908 2.26227 5.45241
1.47224 5.3763 8.8266
1.13869 0.301284 0.668752
9.46258 1.18349 9.38985
5.63251 0.81214 1.10181
6.15603 0.493623 1.32385
9.26009 3.95265 3.38161
7.21331 8.90355 3.01385
2.29934 0.42108 8.40812
7.15021 4.37652 0.444619
4.90624 0.760193 0.40174
3.48248 0.342303 1.19676
0.452258 0.379322 0
5.36457 0.056403 8.24201
8.12212 0.927 2.55355
8.47784 0.881213 2.85247
1.34618 6.23079 7.99703
3.44031 0.198639 0.953549
5.73144 4.94647 3.60124
7.6312 3.64118 4.06311
2.41921 4.92048 9.92102
6.22961 1.81845 8.90629
2.69793 0.485821 1.45396
9.86453 2.95547 7.56658
1.34512 0.763298 9.88013
0.583294 0.146779 9.18547
1.70149 3.5783 8.7752
4.27167 0.26612 2.38133
1.59346 1.87197 8.37832
8.76661 3.40092 7.66851
5.21178 0.870056 10
2.36467 7.38067 9.17501
0.986119 0.28402 0.271726
6.83463 9.47867 8.58164
1.39127 0.610769 9.66906
4.4082 4.02874 7.86226
5.71466 0.238002 8.30065
3.76618 0.425262 1.11742
2.32092 5.00295 9.6519
1.9825 3.2199 9.67829
6.2028 1.60837 8.88793
3.62151 0.474539 1.22208
3.92989 0.841089 3.03663
8.87234 0.536965 4.82153
0.166219 0.445079 0.533886
2.89705 0.0632957 2.4112
3.90255 2.99575 4.09127
3.86803 0.42932 1.06138
8.16787 1.9467 6.7587
0.864855 1.4312 10
5.40683 3.0178 7.53391
6.37103 8.66637 3.33215
5.56367 0.760116 0.827869
9.47522 0.744272 5.18314
4.02937 0.291946 0.928141
9.31525 1.15452 2.39149
2.93532 2.27434 0.111494
5.76365 0.644402 2.63475
2.94051 2.10817 5.95643
5.37206 0.327176 9.52061
2.75555 0.0517489 0.0575008
7.13197 1.46075 3.16968
9.32381 1.54237 8.87332
5.19602 0.69566 9.39714
5.5129 0.677091 8.63697
9.5747 3.51413 8.44507
6.32279 1.11501 1.28424
3.53474 0.717626 1.05042
3.31514 0.137359 2.33521
5.75303 2.68995 2.66774
0 0.111297 0.819389
3.41645 0.680966 4.02528
8.55898 3.47762 0.127333
3.33582 0.345231 8.68712
3.52012 0.476147 8.18279
4.52378 0.737278 7.12118
0.644273 3.95626 1.28518
3.48859 0.366207 1.56566
2.83814 6.19371 9.34736
3.8268 3.09721 2.23003
3.24447 0.243033 1.08022
5.37709 0.661731 8.39769
4.25571 0.205642 0.304493
3.05962 0.519255 1.036
2.82968 1.96273 0.827147
8.88917 0.0178279 4.62949
3.61873 0.291236 1.24409
3.7227 0.376413 1.30918
3.51087 0.546439 1.58566
7.17769 0.417479 3.31061
0 0.644799 0.779783
9.67897 2.51755 3.37628
2.88693 0.537367 1.4232
3.70565 0.801518 4.35802
0.397276 1.91294 8.41571
3.27433 0.6303 1.50343
3.29911 0.937036 1.73893
3.40994 0.449144 0.614834
5.29873 0.661049 0.963769
8.93759 0.0686297 4.7769
3.33011 0.480448 8.66248
7.62187 7.5531 9.29505
5.76387 0.447037 8.46607
3.75754 0.494999 1.59961
2.06237 3.36564 9.36864
0.504853 0.019035 6.11263
7.00231 0.295817 0.671627
2.82149 0.417935 1.82961
4.80199 0.597375 0.543419
10 2.61225 6.0718
5.59127 1.81044 8.36005
2.36079 1.08501 8.25925
5.67705 0.22597 7.98109
3.53432 0.78251 1.49743
3.1092 0.343875 1.74895
2.93087 3.00087 9.69896
7.25004 0.013023 0.981136
3.65553 3.09196 2.08673
9.38162 1.60222 9.07226
5.68561 0.56612 8.8895
3.49933 0.361981 1.4345
5.31391 0.0589169 9.24088
3.75243 0.317062 1.09888
9.56593 9.01058 0.175261
3.43729 0.54451 1.68155
3.49504 0.529052 0.912087
8.16504 0.0687747 7.02004
2.966 1.77633 6.07374
5.42635 0.426776 8.95643
9.04872 0.701178 4.70845
3.22569 0.553518 1.94805
5.80623 0.198785 8.18443
0.901963 1.38163 4.46089
2.35448 1.43909 8.48972
4.23212 0.503357 4.53579
3.13889 0.227445 1.52302
2.55728 0.972204 6.36728
3.23586 0.341996 1.4297
3.2424 0.169816 0.862461
3.18635 0.0959663 1.73291
3.40568 0.798632 1.4808
5.6797 0.168726 8.07663
0.863668 0.33405 0.804715
1.39666 2.12209 3.03455
5.98338 1.87989 8.72878
4.61035 0.623195 1.11014
5.03631 0.266076 8.46081
3.44144 0.532866 1.28792
8.05832 5.2728 5.95574
5.38362 0.50865 8.5505
4.05816 0.344769 4.76002
8.71658 0.368733 4.44409
3.64201 0.447808 1.3411
7.85888 0.407263 0.796123
5.54041 0.342417 9.06087
5.51203 0.110303 2.08399
5.52325 0.692212 8.54312
3.3895 0.346092 1.28062
8.43434 0.857354 3.08555
3.27421 0.523915 8.60869
2.85417 0 10
5.36782 0.598703 8.25869
7.28631 0 1.72182
2.40309 0.363603 1.7054
6.12257 0.281628 8.01029
8.93806 0.239763 4.77441
3.40209 0.494685 2.21525
3.63495 0.571521 1.35102
3.11737 0 0.901269
6.31999 0.847909 2.30144
3.62482 0.613264 4.22721
4.84071 0.323285 7.83558
5.5188 0.540302 8.61493
2.75431 2.64455 9.88151
4.57982 9.96635 1.38895
0.559984 0 5.85951
3.65903 0.485112 1.20523
7.35536 0.411993 0.716197
5.74946 0.550096 1.03314
0.631826 0.28845 0.30113
2.29757 0.385935 8.46819
9.36084 4.97305 7.85801
8.96961 0.383888 4.77863
3.08749 0.310565 1.45212
4.20796 0.639413 3.30411
4.87076 0.150096 8.32889
2.13918 4.77136 8.78974
9.23093 0.22382 0.894698
5.62641 0.853503 0.589507
3.80787 0.3107 1.16877
1.39837 0.631476 9.76241
5.38926 0.276359 8.14072
5.69031 0.392507 7.98975
3.27549 0.387787 1.00821
3.47126 0.298615 1.34537
3.95558 0.689452 3.04952
3.47623 0.415326 1.23128
7.32555 0.785831 0.278126
6.21724 1.73298 8.77578
2.65969 2.85038 10
3.24585 0.389884 5.6781
3.59191 0.175797 1.39851
0.0440828 0.454107 7.48766
2.79324 0.00880955 1.52888
3.6154 0.218545 1.00001
2.08794 1.5935 8.89147
3.83613 0.155185 4.65963
5.6788 0.479186 8.73382
8.08203 1.78727 6.58081
9.12774 0.509901 4.43096
3.6851 0.325683 0.701274
4.35669 0.613386 3.44359
1.25095 0.761821 8.88528
3.22515 0.161493 0.94457
5.48957 0.0480357 2.02559
5.00198 0.0867265 0.921322
2.9675 0.0502817 2.3948
5.42171 0.518122 8.54034
0.931635 1.56372 4.16706
5.43646 0.129174 8.29055
2.81128 0.463302 1.29317
7.19714 0.405641 0.624583
7.02739 0.252761 0.7606
3.1319 0.19117 1.21816
5.39355 0.448872 1.20018
5.73541 0.690833 0.499801
3.96083 0.537222 1.10987
9.08465 1.74767 8.7409
3.47235 0.630101 1.84549
5.70806 0 8.02937
3.34394 0.374612 1.85092
5.69887 0.754061 1.45618
9.37675 4.96269 7.56739
6.07543 0.405694 1.79837
3.52435 0.295823 1.29946
7.86876 1.14547 0.0211004
3.38601 0.740695 4.0342
5.8398 0.478062 8.70442
3.64201 0.583106 4.63061
5.37122 0.430257 8.09668
5.19093 0.214628 8.17639
3.07154 0.326366 1.27108
3.10879 0.323992 1.66523
5.34005 0.55449 1.1435
3.59133 0.396022 1.24252
3.26857 0.384472 1.96949
3.42944 0.576488 4.17169
4.13968 0.11997 1.56972
3.54916 0.383076 1.09608
5.12243 0.228265 9.0624
5.00942 0.459547 8.62618
2.79865 0.170641 1.22918
3.05486 0.398441 1.20954
5.66218 0.498123 1.06589
5.81375 0.271521 7.94985
2.8112 0.522986 1.18592
3.11438 0.295823 1.54301
5.67574 0.561276 1.23125
5.24049 0.407259 8.24276
5.50676 0.36146 8.17001
3.21016 0.501659 1.41729
2.58902 0.771003 1.3447
9.06868 0.618006 4.3245
6.00709 0.263403 8.48052
5.94277 0.101557 9.31437
5.87416 0.568641 8.32054
2.56681 0.76626 1.48928
5.72449 0.605649 1.2234
8.10908 1.85292 6.72627
5.66176 0.298822 7.939
3.80664 0.0683385 0.915051
3.12156 0.2931 0.826241
8.85504 0.41818 4.54169
5.29934 0.310203 7.98052
5.10242 0.120096 8.64564
5.43722 0.381849 8.60525
3.57929 0.588705 1.62848
3.55733 0.483586 0.835565
3.05876 0.374805 1.27654
5.13448 0.503951 8.73394
3.44681 0.654543 1.73359
1.35092 0.777229 9.78356
5.45337 0.175841 7.97487
3.42462 0.54592 1.26265
3.51603 0.434952 1.48378
10 1.47801 2.05223
5.57869 0.78515 1.44228
3.55931 0.512881 0.811955
3.42034 0.479901 1.13058
5.00737 0.312351 8.20914
3.20737 0.434674 1.58408
1.49826 0.777745 9.74617
5.31729 0.264587 8.23851
3.44973 0.585832 1.20797
3.73351 0.52361 4.27608
6.94814 0.437463 0.564164
5.59832 0.811586 1.4697
POINT_DATA 400
SCALARS particleColor float 3
LOOKUP_TABLE default
0 0.898971 1
1 0.234993 0
0.260733 1 0.739267
1 0.444115 0
1 5.96046e-08 0
0.390784 1 0.609216
0.599319 1 0.400681
0 0.777497 1
0 0.85585 1
0 0.538808 1
0.619272 1 0.380728
1 5.96046e-08 0
0.114736 1 0.885264
0 0.341517 1
1 5.96046e-08 0
0 0.559949 1
0 0.459518 1
0 0.254171 1
0 0.857274 1
0 0.809251 1
0 0.313451 1
0.346782 1 0.653218
1 5.96046e-08 0
1 0.87552 0
0.0288155 1 0.971184
0 0.867345 1
1 0.179726 0
0.734187 1 0.265813
1 0.968966 0
0.71088 1 0.28912
0 0.686295 1
0.0113216 1 0.988678
0.339509 1 0.660491
0 0.885455 1
0 0.854632 1
0.341878 1 0.658122
0.321979 1 0.678021
0 0.484582 1
0.547707 1 0.452293
0 0.194636 1
0.391703 1 0.608297
0 0.38524 1
1 0.574634 0
1 5.96046e-08 0
0 0.783168 1
0 0.625532 1
0.603987 1 0.396013
0.828893 1 0.171107
0 0.354794 1
0 0.500488 1
0 0.961025 1
1 0.198612 0
0 0.648368 1
0 0.98378 1
0 0.882394 1
0 0.827443 1
0.0144138 1 0.985586
0 0.539155 1
0 0.645817 1
0.719177 1 0.280823
0.189554 1 0.810446
1 5.96046e-08 0
1 5.96046e-08 0
0 0.712718 1
0 0.892145 1
0 0.806284 1
0 0.565405 1
0 0.981125 1
0 0.884248 1
0 0.749273 1
0 0.693118 1
0 0.209931 1
0.16072 1 0.83928
0 0.402384 1
0 0.956487 1
1 0.684491 0
0 0.744101 1
0 0.391032 1
0.328902 1 0.671098
0.614965 1 0.385035
0 0.744247 1
0 0.823283 1
0 0.443942 1
0 0.349304 1
0 0.5794 1
0.0918798 1 0.90812
0.700023 1 0.299977
0.662979 1 0.337021
0.595734 1 0.404266
0.0185034 1 0.981497
0 0.191224 1
0 0.169519 1
0 0.808029 1
0 0.60164 1
0 0.645461 1
0.316713 1 0.683287
0.788839 1 0.211161
0 0.952749 1
1 5.96046e-08 0
0 0.338354 1
0 0.602138 1
0.564445 1 0.435555
0 0.655281 1
0.645676 1 0.354324
0.153431 1 0.846569
0 0.733297 1
0 0.879305 1
0 0.789635 1
0 0.790574 1
1 5.96046e-08 0
0.511235 1 0.488765
0 0.754894 1
0 0.616271 1
0 0.323684 1
0 0.868111 1
1 0.761387 0
0 0.481864 1
0 0.684527 1
0.912503 1 0.0874969
1 5.96046e-08 0
0 0.614016 1
1 0.972241 0
0 0.859747 1
0.253777 1 0.746223
0 0.718623 1
0 0.72458 1
0 0.771266 1
0 0.560797 1
0 0.799269 1
1 0.340915 0
0 0.205701 1
0.791265 1 0.208735
0.831489 1 0.168511
0 0.852079 1
0.573047 1 0.426953
0 0.917968 1
1 0.538196 0
0 0.28747 1
0.838219 1 0.161781
0 0.677346 1
0 0.650725 1
0.727956 1 0.272044
0.851873 1 0.148127
0 0.80823 1
0 0.981436 1
0 0.472108 1
0 0.365813 1
0.169065 1 0.830935
0 0.754243 1
1 0.187925 0
0 0.786946 1
0 0.459766 1
0 0.656802 1
0.960209 1 0.0397913
1 0.250248 0
0 0.719723 1
0.154261 1 0.845739
0 0.472509 1
0.47318 1 0.52682
0 0.324201 1
0 0.993795 1
0 0.645023 1
0 0.470618 1
0 0.29821 1
0.984898 1 0.0151019
0 0.783578 1
0 0.88939 1
0 0.536741 1
1 5.96046e-08 0
0.925609 1 0.0743906
0 0.352948 1
0.118993 1 0.881007
0 0.488916 1
0 0.637905 1
0 0.289211 1
0 0.710755 1
0.38006 1 0.619941
0 0.654955 1
0.204323 1 0.795677
1 0.0742163 0
0 0.562684 1
1 0.00359023 0
0.0244766 1 0.975523
0.132517 1 0.867483
0 0.606393 1
0 0.5038 1
0 0.215567 1
1 5.96046e-08 0
0 0.510758 1
0 0.340841 1
0 0.3729 1
0 0.376209 1
1 0.0451471 0
0 0.848803 1
1 5.96046e-08 0
0 0.607356 1
0 0.529085 1
1 5.96046e-08 0
0 0.397054 1
0 0.527738 1
0 0.17513 1
0 0.415728 1
0.206989 1 0.793011
0 0.47727 1
1 5.96046e-08 0
0 0.568868 1
0 0.851324 1
0 0.668533 1
0 0.682086 1
0 0.446794 1
0 0.189879 1
0 0.484931 1
0.0560815 1 0.943919
0.00923854 1 0.990761
0.521558 1 0.478442
0 0.48865 1
0 0.466735 1
0 0.874381 1
0.202429 1 0.797571
0 0.40045 1
1 0.705045 0
0.0911511 1 0.908849
0 0.586077 1
0 0.848987 1
0 0.403632 1
0 0.725077 1
0.652346 1 0.347654
0 0.593807 1
0 0.538481 1
0.259955 1 0.740045
0 0.618567 1
0 0.809073 1
0 0.434777 1
0 0.278898 1
0 0.806489 1
0 0.928308 1
0 0.352732 1
0 0.448203 1
0 0.64999 1
0.668881 1 0.331119
0.00681597 1 0.993184
0 0.570338 1
0 0.901431 1
0 0.866107 1
0 0.681846 1
0 0.507034 1
0.185118 1 0.814882
0.589976 1 0.410024
0 0.998371 1
0 0.977933 1
0 0.663741 1
0 0.864522 1
0 0.48202 1
0 0.869381 1
0 0.640862 1
0 0.683022 1
0.299382 1 0.700618
0 0.774087 1
0 0.698044 1
0 0.314223 1
0 0.771684 1
0 0.742502 1
0 0.822158 1
1 5.96046e-08 0
0 0.475707 1
1 5.96046e-08 0
0 0.873149 1
0 0.244957 1
0 0.468314 1
0 0.809207 1
0.130796 1 0.869204
0.61615 1 0.38385
0.529102 1 0.470898
0.0513393 1 0.948661
0 0.502734 1
0 0.835731 1
0 0.849915 1
1 5.96046e-08 0
0.201827 1 0.798173
0 0.290605 1
0 0.410691 1
0 0.547495 1
1 0.158817 0
0 0.615441 1
0 0.474139 1
0.145968 1 0.854032
0 0.642635 1
0 0.488502 1
0 0.856949 1
0 0.661597 1
0 0.197358 1
0 0.979643 1
0.0320501 1 0.96795
0 0.585255 1
0 0.844254 1
0 0.605087 1
0 0.787983 1
0 0.977257 1
0.0345612 1 0.965439
0 0.856122 1
0 0.809363 1
0.136058 1 0.863942
0 0.966637 1
0 0.884384 1
0 0.760561 1
1 0.914096 0
0.189091 1 0.810908
0 0.535892 1
0 0.797591 1
0 0.450578 1
0 0.860361 1
0 0.349949 1
0 0.229688 1
0 0.544268 1
0 0.853127 1
0.343006 1 0.656994
0.382768 1 0.617232
0 0.514665 1
0 0.367102 1
0 0.629854 1
0 0.495818 1
0 0.58059 1
0 0.88591 1
0 0.830914 1
0 0.439053 1
0 0.491126 1
0 0.702426 1
0 0.639362 1
0 0.647772 1
0 0.679563 1
0 0.930769 1
0 0.364216 1
0 0.381851 1
0 0.744861 1
0 0.951228 1
0 0.72023 1
0 0.609371 1
0 0.419664 1
0.498722 1 0.501278
0 0.672414 1
0 0.729204 1
0 0.543049 1
0.0709522 1 0.929048
0 0.919914 1
0 0.32947 1
0 0.346367 1
0 0.292716 1
0 0.666637 1
0 0.223283 1
0 0.942471 1
0 0.174948 1
0 0.793818 1
0.218019 1 0.781981
0 0.511659 1
0 0.733233 1
0 0.650956 1
0 0.562144 1
0 0.778318 1
0 0.409159 1
0 0.387365 1
0 0.353671 1
0 0.353665 1
0 0.720604 1
0 0.216939 1
0 0.849509 1
0 0.682925 1
0 0.239995 1
0 0.963872 1
0 0.452025 1
0 0.841061 1
0 0.556781 1
0 0.740503 1
0 0.541338 1
0 0.87731 1
0 0.0707353 1
0 0.326869 1
0 0.504379 1
0 0.811817 1
0 0.50163 1
0 0.348952 1
0 0.695047 1
0 0.316281 1
0 0.894315 1
0 0.544612 1
0 0.675972 1
0 0.333946 1
0 0.925537 1
0 0.939521 1
1 0.170321 0
0 0.412216 1
0 0.533751 1
0 0.478173 1
0 0.738114 1
0 0.556322 1
0 0.873097 1
0 0.183415 1
0 0.835875 1
0 0.492623 1
0 0.942488 1
0 0.395597 1
