# vtk DataFile Version 3.0
Particle simulation
ASCII
DATASET POLYDATA
POINTS 400 float
0.226363 0.645047 1.06367
0.0899083 0.536601 1.23838
2.33714 0.592355 5.10528
0.225712 0.833261 0.80921
4.13678 0.696108 5.8102
1.0282 1.98541 4.89364
5.66348 0.495466 0.220793
2.83616 1.40214 4.18238
4.86605 0 0.280619
5.78156 1.15642 1.56138
0.340455 0.610508 1.10423
0.8722 0.541921 0.833127
1.97015 0.734849 4.8379
0.274702 0.841912 0.80125
4.09799 0.708218 5.87238
1.00806 2.18779 4.7631
0.65467 0.285995 2.8605
1.03985 0.7705 3.53904
4.8177 0.653165 0.523141
5.7818 1.10076 1.55426
4.54741 0.956691 1.13745
5.67075 1.11112 1.42537
1.85898 0.697192 4.17118
6.01625 1.02006 1.27577
2.9758 0.522238 3.22345
1.23972 0.646042 4.36242
5.30546 0.527335 5.26294
0.670497 0.867009 3.39716
3.1389 0.854259 1.8806
0.360664 0.88564 0.326978
4.62 0.798605 1.03734
5.93183 1.02834 1.54607
1.89068 1.31916 5.47291
6.01178 0.998041 1.25788
3.12029 0.539536 3.34824
1.27782 0.666084 4.3228
5.28066 0.574661 5.28193
0.613798 0.782916 3.37374
3.04818 0.95791 1.4663
0.596739 0.818517 0.616184
0.479307 0.412866 1.29644
4.37644 0.591146 2.19385
0.453266 0.0584459 2.48252
5.82988 1.01133 1.3595
2.19649 0.445568 4.37986
3.70743 0.56379 2.19745
3.34497 0.60855 3.61697
1.11763 0.908728 3.00183
3.0126 0.889264 1.75346
2.61834 1.06685 5.60009
0.507285 0.393046 1.29941
4.33545 0.606329 2.18191
0.456998 0.203425 2.45602
5.82084 1.01128 1.34752
2.18906 0.489711 4.39752
3.67624 0.540152 2.18079
2.1691 0.394661 4.4818
1.05052 0.89962 2.97773
2.96353 0.856481 1.73735
2.62596 0.634311 4.55913
6.05914 1.26089 1.62718
0.342653 0.546826 0.90657
5.27636 1.47978 4.93026
5.26494 0.782059 0.681372
4.75945 1.15389 4.12813
4.49409 1.11452 4.59044
2.1635 0.825254 1.57521
1.33884 0.778861 4.34323
3.0926 0.930786 1.52269
1.55903 1.04175 3.18998
6.08805 1.28525 1.60647
0.575262 0.737443 0.529762
4.81514 0.681239 4.87712
5.201 0.750648 0.64388
4.68395 0.967467 4.31229
4.48133 0.947359 4.75984
2.21212 0.835527 1.54816
2.61281 1.14193 5.04415
3.07683 0.916797 1.51865
1.54704 1.05676 3.20766
0.0426792 0.42655 0.805391
3.27699 1.13251 1.81402
1.88894 0.555482 2.15449
3.80787 0.199234 1.38182
3.96956 0.55987 4.93337
2.63271 0.450534 4.44253
4.17431 0.365477 5.21322
0.977653 0.57537 2.89022
2.11712 0.632434 1.57787
5.17472 0.806444 0.216207
0.197454 0.443269 0.695376
3.3361 1.17389 1.82997
1.74922 0.620357 2.25552
3.8043 0.195038 1.35938
3.98681 0.557955 4.88162
2.6527 0.509833 4.46707
2.0019 0.609711 4.46291
1.02464 0.295453 2.82562
2.18238 0.697728 1.54243
5.14774 0.765338 0.199464
3.6437 0.0762651 2.77039
4.35773 0.758013 0.296422
1.05097 0.30309 2.75727
5.11426 0.778719 1.20128
0.50894 0.574955 2.51778
1.43228 0.521331 3.24391
2.89693 0.853306 4.73242
2.62766 1.05958 1.41636
2.98751 0.908072 1.43714
5.07944 0.713209 0.25906
3.59788 0.11174 2.82046
4.45479 0.629444 0.187312
2.14709 0.655424 1.36772
5.17986 0.677427 0.840971
1.38523 1.10235 3.63539
1.38374 0.53119 3.21101
2.81391 0.806353 4.77862
2.09607 0.510944 1.6136
3.03084 0.931365 1.42641
2.65866 0.637464 1.78173
2.5074 0.668168 1.90403
3.68117 0.564673 1.86428
4.89338 0.561976 5.38164
2.78668 0.985116 1.93228
2.15789 0.973861 5.16733
1.60079 0.504612 1.44009
0.6079 0.421977 0
5.55734 0.826793 0.784436
2.03196 1.1137 5.08305
1.56718 0.651799 1.58868
2.50789 0.674992 1.91044
3.71133 0.466263 1.97666
5.2969 0.892692 5.35073
2.8497 0.943517 1.92629
2.23505 0.992427 5.04338
3.23955 0.684615 1.95815
0.0773323 0.273976 0.199215
5.58153 0.816216 0.752678
2.14791 0.956517 5.03556
1.3007 0.899958 1.26827
0.446556 0.622488 1.19097
1.90072 0.602202 0.745222
2.20997 0.743235 1.35039
1.91128 0.447075 1.45535
1.9404 0.296425 1.95748
0.876762 0.137935 2.9541
4.97322 0.478412 5.09564
1.79395 1.22144 3.57941
1.12598 0.676597 2.75805
0.758048 0.251967 2.38138
0.450621 0.617642 1.19096
1.91648 0.557652 0.705724
1.92051 0.745323 2.04291
1.88204 0.366145 1.49046
1.99326 0.4261 1.9247
0.835199 0.10392 2.91412
5.1145 0.49769 5.09968
1.55722 1.11645 2.99353
1.26648 0.855706 1.77682
1.03582 0.587748 2.19693
1.21858 1.15803 0.768719
3.22282 1.37605 1.54587
4.23774 0.683045 5.16749
1.6281 0.754847 1.55984
1.82512 0.517587 1.38849
3.03395 0.786111 1.39307
2.28418 0.510555 4.71032
2.90493 0.787528 5.00333
2.32016 0.727918 4.96745
1.55833 0.588582 1.90948
1.2802 1.17116 0.760253
2.6172 0.759453 2.24206
4.21419 0.678359 5.14371
1.81297 0.777755 1.69375
1.7733 0.54193 1.40919
3.10061 0.751438 1.33625
2.30881 0.493765 4.71655
2.55151 0.830035 4.99341
2.31295 0.833765 4.98172
1.54192 0.590132 1.92623
2.78676 1.18207 1.96509
0.807959 0.520948 0.884866
3.55271 1.00078 5.77042
1.34517 0.584522 0.674043
2.05575 0.977663 4.70969
1.04397 0.900403 3.3461
0.696368 0.914415 3.10969
3.72221 0.619829 2.10713
2.95492 0.803977 1.90067
3.64808 0.783347 2.13848
2.77335 1.18504 1.96352
0.660124 0.668639 1.13113
4.06385 0.433804 5.18718
1.30497 0.534173 0.67314
2.08488 0.824682 4.62504
0.974319 1.09833 3.33046
0.697952 0.903829 3.08892
4.35815 1.09708 1.6112
3.03549 0.791654 1.85341
3.73707 0.781726 2.13364
0.238132 0.726234 0.978945
0.551748 0.849992 0.679073
4.44722 0.913428 5.5747
0.0640168 0.56799 0.535129
3.88572 0.533697 4.82045
2.71322 0.560434 5.30595
1.79628 0.891647 3.52728
1.22318 0.392634 3.00787
1.52889 0.546823 3.74212
5.02707 0.808767 0.387308
0.209313 0.778015 0.984689
1.38678 0.734466 0.876647
3.93787 0.376318 5.53976
0.142858 0.620517 0.537343
3.90824 0.531322 4.81498
2.74882 0.54277 5.30082
1.80682 0.875887 3.53897
1.24011 0.619818 3.5776
1.53405 0.689398 3.68987
5.26212 0.795891 0.127768
5.49518 0.664696 0.831284
4.09027 0.556595 6.00118
4.95774 0.77017 5.70197
2.09772 0.505681 1.71438
4.02706 0.60155 4.81641
1.16217 0.96414 3.72153
5.33375 0.936419 5.4744
1.621 0.785265 2.9041
1.21694 0.968664 2.03295
1.83416 0.476469 2.70538
5.48771 0.663402 0.877132
4.13406 0.635934 5.93752
5.07549 0.746895 5.69959
2.12492 0.547048 1.71074
4.03618 0.602123 4.79938
1.15137 0.964161 3.76306
5.267 0.78951 5.57665
1.80768 1.11404 3.69077
1.66475 0.922937 2.19014
1.82827 0.481782 2.69691
0.128237 0.771086 0.685225
2.49241 1.08866 1.84893
1.48504 0.692918 3.66978
4.40496 0.689879 1.14189
2.13197 0.553002 4.74303
3.52976 0.420899 0.909503
1.76553 0.614837 3.30706
4.77135 1.12629 4.64671
3.66296 0.873591 2.11367
2.76594 0.652163 4.50434
0.137944 0.801227 0.632096
2.8506 0.690153 0.895561
2.44095 1.16128 5.19939
4.3902 0.717961 1.09742
2.185 0.498452 4.78716
3.2501 0.753572 1.24494
5.19325 0.429855 0.401113
4.95226 1.28303 4.56029
3.65205 0.877704 2.11747
2.7377 0.641984 4.54242
2.66626 0.921838 1.31144
2.26083 0.710772 0.550281
3.75863 0.511273 2.36993
5.52799 1.19472 1.25557
4.18957 0.40856 5.19173
1.65056 1.41072 3.14426
4.75648 0.840823 0.383023
1.8868 0.541102 4.65806
3.60543 0.379553 4.86275
1.06417 0.215717 2.76417
2.58588 0.930194 1.35111
2.26773 0.725365 0.604374
4.69955 0.996589 0.540083
5.70589 0.959601 1.55657
3.79073 0.593985 4.79516
1.98545 1.40824 5.1118
4.80749 0.728032 0.557273
2.83602 0.379062 4.62713
3.61836 0.34844 4.84766
1.18982 0.275788 2.67089
5.10503 0.553347 0.850428
4.15561 0.60208 1.76494
1.26988 0.716728 2.95678
5.13686 0.902087 0.842275
2.41934 0.810297 4.72436
3.57777 1.01928 4.81353
0.703179 0.7142 2.81997
1.26836 0.831604 3.81283
1.36809 1.03383 1.61501
2.55519 1.19015 1.27581
5.00344 0.475659 0.872344
4.13728 0.635303 1.80217
1.26102 0.774752 3.11912
5.15207 0.957342 0.909634
2.28231 0.513695 4.4452
3.51296 1.0678 4.82539
0.708045 0.644566 2.86686
1.94696 0.523972 1.94602
1.54526 0.747511 1.65967
4.56322 0.640472 1.69361
5.64913 0.311205 0.22287
0.746513 0.551843 0.947793
0.715572 0.969217 3.54652
1.86398 0.212716 1.34916
1.78115 0.615456 3.68071
3.91411 0.820858 1.97316
1.84025 0.711019 3.50509
2.8881 0.921904 2.01437
2.47481 0.794976 1.50049
2.83767 0.817769 1.9913
5.72818 0.358876 0.283507
0.723497 0.575914 0.959501
2.6717 1.00907 5.02553
2.34266 0.387619 2.05716
1.78251 0.694525 3.69371
5.26119 0.225506 0.68495
1.73849 0.667913 3.5552
1.13771 0.250714 0.40351
2.6179 0.872986 1.61401
2.6937 0.797917 2.10205
2.46458 0.527734 1.95273
2.9263 0.712401 1.606
2.06704 0.36677 4.99824
2.36794 0.88765 2.15485
5.34526 0.216577 0.381681
2.50369 0.865366 2.46855
1.49207 0.41097 3.29913
3.90035 0.870773 1.51701
5.27103 0.910598 0.106426
2.77849 0.748375 1.74149
2.52539 0.627031 1.8829
2.29548 0.427461 1.49327
2.18962 0.311203 4.95942
2.37263 0.866896 2.11657
5.38839 0.327653 0.373032
1.50508 0.205488 0.395661
1.5205 0.365464 3.29163
3.88286 0.842533 1.53535
5.28947 0.930268 0.105585
2.17372 1.11281 1.75744
0.253697 0.577708 0.991029
0.343783 0.801633 1.27025
4.10537 0.55418 4.9508
0.585578 0.944875 0.551734
0.686318 0.239999 3.02117
0.969585 0.831204 2.55464
2.90197 0.919518 1.95684
1.56572 0.709214 3.86086
0.95814 0.413818 2.7205
1.23187 1.07617 1.83376
0.413668 0.608051 0.933422
0.355895 0.729809 1.24976
4.22103 0.506805 4.97494
0.590643 0.953708 0.553324
0.747783 0.176923 2.94067
0.935565 0.820831 2.57278
2.93089 0.952458 1.92931
2.82524 0.549338 5.02612
1.00412 0.427316 2.78595
0.897474 0.92905 2.3727
2.13343 0.560698 1.79387
1.07676 0.801962 0.675837
3.90618 0.293668 4.37017
1.55344 0.615566 2.37251
2.26626 0.662698 1.36284
1.42553 0.655224 3.61768
2.32567 0.576541 4.58415
2.67952 0.799728 4.89906
2.44893 0.41408 5.0134
1.22468 0.724718 1.37788
2.15059 0.54579 1.81914
1.06222 0.815042 0.681948
3.96296 0.285699 4.39066
1.52741 0.621931 2.38106
1.75708 0.574135 0.790341
1.45091 0.703282 3.62849
2.30334 0.593006 4.60248
2.7653 0.826722 4.9419
2.65019 0.453439 4.95917
1.381 0.584238 1.21665
2.81379 0.692684 2.18492
0.568647 0.454605 0.84448
2.71516 0.464368 4.35023
0.549534 0.649307 0.473963
5.05339 0.738584 0.886028
4.29462 0.45576 4.67214
1.7765 0.778086 2.02342
3.96193 0.488387 1.3499
4.76324 0.730527 0.619113
4.24917 0.967655 1.5247
2.80957 0.712986 2.13886
0.576691 0.444004 0.880329
2.70185 0.482179 4.34281
0.355013 0.735009 0.415745
5.04767 0.77159 0.815101
4.23984 0.395415 4.7347
1.79623 0.788029 2.02685
3.9534 0.553657 1.35587
4.8723 0.839565 0.810687
4.26567 0.968607 1.53281
POINT_DATA 400
SCALARS particleColor float 3
LOOKUP_TABLE default
0 0.178754 1
0 0.309873 1
0 0.637821 1
0 0.304329 1
0 0.473703 1
0 0.922356 1
0.0313367 1 0.968663
0 0.525306 1
0 0.38131 1
0 0.69197 1
0 0.147673 1
0 0.207283 1
0 0.632263 1
0 0.437386 1
0 0.424521 1
0 0.638088 1
0 0.866589 1
0 0.435839 1
0 0.476809 1
0 0.755046 1
0 0.415417 1
0.0798257 1 0.920174
0 0.411918 1
0 0.802833 1
0 0.378135 1
0 0.148096 1
0 0.511954 1
0 0.504787 1
0 0.650159 1
0 0.666627 1
0 0.483515 1
0 0.77364 1
0 0.66043 1
0 0.758546 1
0.0712558 1 0.928744
0 0.354946 1
0 0.212936 1
0 0.454585 1
0 0.820561 1
0 0.703686 1
0 0.881649 1
0 0.163151 1
0 0.672949 1
0 0.319594 1
0 0.164796 1
0 0.137207 1
0.0350814 1 0.964919
0 0.463719 1
0 0.492224 1
0 0.717635 1
0 0.806261 1
0 0.201168 1
0 0.868378 1
0 0.214758 1
0 0.19185 1
0 0.223564 1
0 0.536856 1
0 0.500207 1
0 0.442897 1
0 0.960113 1
0 0.458511 1
0.151805 1 0.848195
0 0.696018 1
0.00453808 1 0.995462
0 0.462454 1
0.0585811 1 0.941419
0 0.587062 1
0 0.679479 1
0 0.475208 1
0 0.604728 1
0 0.53856 1
0 0.950749 1
0 0.488709 1
0 0.968355 1
0 0.304331 1
0 0.474308 1
0 0.578927 1
0 0.698101 1
0 0.517229 1
0 0.651014 1
0 0.201978 1
0 0.281902 1
0 0.76385 1
0 0.633558 1
0 0.575682 1
0 0.70905 1
0 0.644374 1
0 0.583679 1
0.217827 1 0.782173
0 0.315623 1
0 0.458893 1
0 0.185985 1
0 0.753279 1
0 0.396843 1
0 0.562079 1
0 0.595689 1
0 0.466828 1
0 0.62915 1
0 0.996259 1
0 0.309907 1
0 0.141557 1
0 0.691518 1
0 0.517485 1
0 0.315841 1
0 0.895186 1
0 0.421693 1
0 0.802921 1
0 0.51595 1
0 0.407495 1
0 0.50047 1
0 0.737666 1
0 0.740977 1
0 0.294571 1
0 0.355649 1
0 0.643973 1
0 0.30362 1
0 0.736451 1
0 0.523241 1
0 0.522421 1
0 0.820106 1
0 0.487753 1
0 0.618571 1
0 0.730325 1
0.315052 1 0.684948
0 0.278509 1
0 0.363767 1
0 0.63548 1
0 0.803055 1
0 0.470259 1
0 0.38153 1
0 0.594419 1
0 0.558176 1
0 0.491654 1
0.0998483 1 0.900152
0 0.230937 1
0.0506708 1 0.949329
0.482425 1 0.517575
0 0.939644 1
0 0.441782 1
0 0.695043 1
0 0.465324 1
0 0.368231 1
0 0.809471 1
0 0.897961 1
0 0.793161 1
0 0.459169 1
0 0.42337 1
0 0.966468 1
0 0.389311 1
0 0.7023 1
0 0.491218 1
0 0.348265 1
0 0.653816 1
0 0.52362 1
0 0.582344 1
0 0.498056 1
0 0.401432 1
0 0.734037 1
0 0.711178 1
0 0.434109 1
0 0.623003 1
0.188377 1 0.811623
0 0.768219 1
0 0.94268 1
0 0.751482 1
0.232878 1 0.767122
0 0.981989 1
0 0.716428 1
0.0172394 1 0.982761
0 0.470137 1
0 0.567343 1
0 0.703952 1
0 0.712186 1
0.235997 1 0.764003
0 0.752497 1
0.332245 1 0.667755
0 0.710913 1
0 0.440484 1
0.117741 1 0.882259
0 0.590962 1
0 0.586693 1
0 0.323735 1
0 0.604799 1
0 0.623211 1
0 0.387476 1
0 0.507531 1
0 0.356201 1
0.242734 1 0.757266
0.0375918 1 0.962408
0 0.631868 1
0 0.573238 1
0 0.337574 1
0 0.753371 1
0 0.33696 1
0 0.558881 1
0 0.532321 1
0 0.395 1
0 0.63012 1
0 0.951971 1
0 0.530812 1
0 0.701588 1
0 0.656742 1
0 0.166809 1
0 0.786929 1
0 0.503733 1
0 0.703523 1
0 0.537716 1
0 0.919354 1
0 0.835076 1
0 0.679602 1
0 0.30433 1
0 0.394802 1
0 0.362601 1
0 0.679711 1
0 0.521874 1
0 0.629321 1
0 0.620772 1
0 0.916456 1
0.0315615 1 0.968439
0 0.637063 1
0.156099 1 0.843901
0.091995 1 0.908005
0 0.767008 1
0 0.401678 1
0 0.783426 1
0 0.832148 1
0 0.778844 1
0 0.335617 1
0 0.476957 1
0 0.228377 1
0.0852028 1 0.914797
0.042613 1 0.957387
0 0.702837 1
0 0.33096 1
0 0.791362 1
0 0.843878 1
0 0.696979 1
0 0.615911 1
0 0.094351 1
0 0.456773 1
0 0.157672 1
0 0.919361 1
0 0.978561 1
0 0.12953 1
0 0.715733 1
0 0.374419 1
0 0.466616 1
0.610128 1 0.389872
0 0.61852 1
0 0.612896 1
0 0.169764 1
0.00923122 1 0.990769
0.0100845 1 0.989916
0 0.271941 1
0 0.62358 1
0 0.580105 1
0 0.80878 1
0.056912 1 0.943088
0 0.53866 1
0 0.704059 1
0.131123 1 0.868877
0 0.329519 1
0 0.977184 1
0 0.59149 1
0 0.273687 1
0.520185 1 0.479815
0 0.516935 1
0 0.548391 1
0 0.343858 1
0 0.443395 1
0.137329 1 0.862671
0 0.48696 1
0.00500011 1 0.995
0 0.82203 1
0 0.811173 1
0 0.521512 1
0 0.512048 1
0 0.707758 1
0 0.351648 1
0 0.425427 1
0.217182 1 0.782818
0 0.390326 1
0 0.982895 1
0.0345636 1 0.965436
0 0.63443 1
0 0.617124 1
0 0.601509 1
0 0.282582 1
0 0.594896 1
0 0.348218 1
0.239456 1 0.760544
0 0.378958 1
0 0.497489 1
0 0.998397 1
0 0.559679 1
0 0.697554 1
0 0.620251 1
0 0.821861 1
0 0.746939 1
0 0.397745 1
0.0388975 1 0.961102
0 0.898814 1
0 0.920177 1
0 0.742893 1
0 0.723793 1
0 0.659152 1
0 0.569239 1
0 0.674881 1
0 0.70885 1
0 0.653921 1
0 0.569415 1
0 0.860306 1
0.208497 1 0.791503
0 0.599325 1
0 0.700515 1
0 0.892673 1
0 0.438629 1
0 0.382109 1
0 0.730182 1
0 0.685103 1
0 0.17559 1
0 0.570749 1
0 0.950885 1
0 0.750984 1
0 0.422504 1
0.0481367 1 0.951863
0 0.624543 1
0 0.3988 1
0 0.214063 1
0 0.98012 1
0 0.234183 1
0 0.551419 1
0 0.74433 1
0 0.553083 1
0 0.220816 1
0 0.147791 1
0 0.719378 1
0 0.378496 1
0 0.482698 1
0 0.446106 1
0 0.793882 1
0 0.145778 1
0 0.833657 1
0 0.675501 1
0 0.671047 1
0 0.175322 1
0 0.836074 1
0 0.440723 1
0 0.584598 1
0 0.899396 1
0 0.850743 1
0 0.304291 1
0 0.925949 1
0 0.649743 1
0 0.714391 1
0 0.331871 1
0 0.812755 1
0.455899 1 0.544101
0 0.779013 1
0 0.308911 1
0.1193 1 0.8807
0 0.408256 1
0 0.723588 1
0 0.719023 1
0 0.831675 1
0 0.956325 1
0 0.574639 1
0 0.393235 1
0 0.680495 1
0 0.627989 1
0.114752 1 0.885248
0 0.637179 1
0 0.693155 1
0 0.694499 1
0 0.982764 1
0 0.963538 1
0 0.679739 1
0 0.436148 1
0 0.77119 1
0 0.684766 1
0 0.389902 1
0 0.568264 1
0 0.823037 1
0 0.613461 1
0.210285 1 0.789715
0 0.874399 1
0 0.907159 1
0 0.496263 1
0 0.906426 1
0 0.335113 1
0 0.380775 1
0 0.725189 1
0 0.904872 1
0 0.345523 1
0.219611 1 0.780389
0 0.749538 1
0 0.886435 1
0 0.473149 1
0 0.5982 1
0 0.270078 1
