# vtk DataFile Version 3.0
Particle simulation
ASCII
DATASET POLYDATA
POINTS 400 float
0.22434 0.456978 0.49103
0.598193 0.420232 0.61076
2.74589 0.72214 4.77814
0.485646 0.48432 1.03636
3.59268 0.602868 4.37772
0.0398817 0.60772 4.03638
3.4466 0.498782 1.67559
2.18593 0.175133 4.88287
4.17664 0.646396 0.685636
5.20358 0.652328 1.23644
0.267603 0.475272 0.485992
0.582037 0.411336 0.640043
2.92386 0.697078 4.82693
0.454521 0.475789 1.03967
3.59082 0.595585 4.38064
0.0394097 0.621643 4.02924
1.28017 0.678596 2.38852
0.172525 0.789582 3.30613
4.42215 0.536689 0.952259
5.16015 0.688682 1.20842
4.81461 0.609189 0.574379
5.82813 0.799663 1.36448
2.84023 0.41539 4.5437
5.17005 0.633999 0.795925
4.08168 0.424145 3.75445
1.59131 0.550199 3.00521
5.02518 0.87903 4.74136
0.561269 0.720573 3.5248
2.04045 0.197737 1.7597
0.64967 0.0912832 1.4668
4.93892 0.519381 0.521028
5.79605 0.843006 1.3421
2.64004 0.358633 4.53743
5.19936 0.637344 0.759477
4.0977 0.417787 3.92009
1.53375 0.55728 3.03761
4.98042 0.898363 4.7597
0.607882 0.777875 3.42759
2.19383 0.0862236 2.01843
0.751912 0.215906 1.33994
0.155123 0.638698 0.339298
3.19992 0.41722 1.81587
1.74599 0.797144 3.74651
4.87153 0.496279 0.857323
2.78981 0.685564 4.3037
3.65624 0.288292 1.9434
3.41334 0.218635 2.86751
2.21824 0.413724 4.14712
2.0418 0.292143 1.82073
1.7328 0.780377 3.85288
0.165276 0.634721 0.342876
3.21841 0.42381 1.82082
1.80223 0.936567 3.71893
4.8987 0.495156 0.870856
2.81166 0.619299 4.30847
3.70413 0.301049 1.96574
2.68615 0.518441 4.42085
2.15951 0.398992 4.16301
2.00457 0.285663 1.84594
1.78829 0.871245 3.87185
5.08633 0.725249 0.687367
0.66369 0.519819 0.729084
4.12709 0.387035 5.02623
4.2836 0.203224 0.424843
3.59523 0.193246 4.60635
3.3411 0.532234 3.71472
1.75248 0.419382 2.01029
1.59731 0.73917 3.15689
2.01806 0.223826 1.91456
1.24658 0.582641 3.49487
5.13727 0.73679 0.686767
0.760082 0.405477 0.918231
3.52519 0.228182 3.35003
4.24949 0.178809 0.417869
3.33502 0.241757 4.54169
3.46521 0.397794 3.57684
1.73296 0.419746 2.00664
1.60275 0.455769 4.39601
1.98015 0.239431 1.94676
1.25127 0.537501 3.53123
0.503699 0.227777 0.580373
3.02387 0.108669 1.68853
0.45762 0.748734 3.54471
3.81007 0.0863512 0.0654403
3.79666 0.831875 4.10939
1.44773 0.58376 4.41044
3.21529 0.640294 4.31599
0.622621 0.551305 2.97084
3.95744 0.434837 1.91945
4.38221 0.525441 1.23275
0.427802 0.231158 0.538129
3.08228 0.11834 1.73019
0.563907 0.808777 3.57967
3.80409 0.0817285 0.0418942
3.80772 0.827367 4.14776
1.44529 0.525083 4.42868
3.02036 0.573495 4.32495
0.546086 0.685003 2.82408
4.03703 0.440947 1.77983
4.43562 0.536138 1.22527
3.76459 0.798579 1.61183
3.37638 0.287403 0.796993
0.457182 0.725805 2.60968
4.38217 0.413004 0.0917984
1.44249 0.488619 3.16809
1.51635 0.388735 3.7524
1.56742 0.621696 3.2457
2.27752 0.489759 1.60702
1.94579 0.179993 1.86036
4.45221 0.565059 1.37448
3.79189 0.70249 1.61373
3.35423 0.33427 0.781377
2.32306 0.285011 1.69448
4.25417 0.444886 0.108068
1.55651 0.500504 3.37113
1.50703 0.409729 3.74808
1.46515 0.604995 3.30115
2.1007 0.497335 1.88818
1.97325 0.183348 1.80514
4.25906 0.396478 1.99279
2.62371 0.4858 0.814028
3.67502 0.242966 1.71897
4.64783 0.47753 4.41206
2.79429 0.588868 1.07416
2.27794 0.123251 4.7181
2.68395 0.368569 1.79153
0.665524 0.0499816 2.50859
3.59195 0.199603 0.161116
2.31038 0.0538982 4.77476
2.60686 0.497117 1.76461
2.62557 0.492701 0.832745
3.77715 0.214908 1.70293
4.90919 0.548946 4.43387
2.7848 0.540776 0.997345
2.31228 0.0981681 4.66592
2.31262 0.266034 0.945054
0.727429 0.694984 3.03056
3.51199 0.21081 0.183041
2.40022 0.0506398 4.72717
2.68635 0.854499 1.9685
0.324978 0.289902 0.290536
0.726462 0.299895 0.766445
0.669515 0.482816 2.88043
0.912148 0.538476 0.335348
0.60364 0.607889 3.16326
1.31373 0.619191 2.36571
4.79057 0.988164 4.79989
0.358242 0.264967 2.51464
0.796175 0.540435 2.72402
1.20444 0.434894 3.53097
0.324916 0.295983 0.295576
0.658373 0.292707 0.7704
0.554472 0.596729 3.17547
0.77789 0.531003 0.411561
0.618253 0.644171 3.11143
1.22998 0.626312 2.32683
4.66697 0.930491 4.79398
0.366574 0.251259 2.69969
1.21067 0.536422 2.63771
0.957462 0.432627 3.41744
1.21449 0.117421 0.858914
2.09328 0.287927 1.00032
3.76301 0.0975913 5.01258
0.809868 0.742181 0.279564
1.54209 0.165338 2.75118
0.522921 0.594712 2.822
2.57418 0.522362 4.08427
1.12931 0.468187 2.95413
1.76249 0.349478 3.43632
2.68799 0.522159 1.3262
1.21423 0.120955 0.864604
2.53422 0.302863 0.8147
3.7505 0.113278 5.03276
0.803062 0.676171 0.388003
1.52002 0.210728 2.79667
0.576257 0.588875 2.75278
2.53897 0.490657 4.09571
1.47296 0.52415 3.27078
1.75619 0.440249 3.36434
2.70415 0.513312 1.35465
2.61442 0.0224383 0.9368
0.875515 0.258967 0.750119
4.94337 0.407433 4.41186
1.11065 0.136975 0.433413
2.12804 0.122086 4.70103
2.11003 0.378309 4.18542
1.20497 0.477328 2.27832
3.54558 0.773428 2.93961
4.00834 0.725944 1.98911
3.42644 0.420779 2.10017
2.62277 0.0176242 0.952213
0.62555 0.362475 0.672788
3.6637 0.0946961 4.94564
1.16614 0.151299 0.374829
2.13995 0.167837 4.70735
2.183 0.585413 4.14215
1.19766 0.46291 2.29079
3.38867 0.533099 2.39433
3.98887 0.743146 2.00835
3.45665 0.436911 2.04244
0.198928 0.440955 0.574542
0.54915 0.452418 0.651441
3.26561 0.266043 4.8587
0.565592 0.356642 1.28151
3.40849 0.650601 4.91922
1.76066 0.359148 4.09419
1.05878 0.289207 3.15207
0.802603 0.281986 2.53371
0.408872 0.686543 3.34803
4.71195 0.612721 0.99405
0.208511 0.514304 0.555938
0 0.483976 0.623834
3.36384 0.321008 4.7641
0.569139 0.361575 1.21471
3.41834 0.648544 4.93112
1.77942 0.358257 4.11009
1.06762 0.2792 3.15287
1.79164 0.41179 3.21353
0.304765 0.754054 3.37052
4.7565 0.584892 1.052
3.47864 0.545536 0.0611319
3.89482 0.550673 3.33584
4.59202 0.475274 4.78932
2.47031 0.418668 1.12712
3.3597 0.665793 4.77556
1.63161 0.724856 3.54051
4.54711 0.288974 4.80199
0.746744 0.21739 2.88764
2.98257 0.295823 1.76788
0.541853 0.720124 2.8987
3.46921 0.545051 0.0445875
3.87366 0.60512 3.22664
4.50745 0.543131 4.71853
2.49204 0.408366 1.08348
3.37901 0.663182 4.7799
1.6105 0.712651 3.53264
4.61579 0.295081 4.78041
0.895401 0.265209 2.95073
2.60152 0.176936 1.45944
0.628315 0.70012 2.77123
0.341285 0.364031 0.881481
3.48378 0.552992 2.71216
2.87262 0.296144 4.81879
5.25123 0.671975 0.765561
2.53767 0.755211 4.2604
3.81295 0.786144 2.52898
1.0703 0.106313 3.48786
3.01088 0.0633842 2.64805
3.78212 0.46277 1.68314
1.68923 0.745331 3.88229
0.340517 0.360833 0.893061
3.70589 0.400179 2.93617
2.64251 0.278398 4.73649
5.24332 0.592695 0.73374
2.67212 0.751836 4.28269
3.86537 0.669066 2.38805
3.97397 1.11702 0.827667
3.04133 0.0437784 2.73646
3.79728 0.482296 1.63502
1.66334 0.748002 3.82928
4.07963 0.00608577 2.36612
0 0.588902 1.0973
3.28248 0.307533 1.58959
4.95008 0.86267 0.930242
3.27537 0.641048 4.21162
1.57621 0.21565 3.30198
4.85472 0.379196 1.02806
3.01311 0.677996 4.21704
3.70948 0.516081 4.5464
0.956281 0.70795 3.10264
4.13608 0.00918571 2.31994
0.101712 0.503002 1.04493
4.62636 0.356598 1.79456
4.74228 0.735078 1.03785
3.5257 0.443015 4.43021
2.18615 0.865186 4.32086
4.67235 0.356494 1.09372
2.20272 0.250171 3.94294
3.72463 0.478424 4.54261
0.864595 0.724393 3.07814
4.2918 0.793154 0.603243
3.37232 0.595511 2.55657
1.56717 0.251812 4.23591
3.98815 0.398012 0.106399
2.42151 0.669827 4.30124
2.23112 0.486688 4.45858
1.4098 0.370154 2.92954
1.46256 0.442174 3.21749
2.71914 0.118662 1.61862
3.81515 0.335274 2.04965
4.38375 0.804356 0.620652
3.37981 0.58953 2.54733
1.70184 0.375317 4.18239
4.03087 0.402788 0.144753
2.61694 0.706277 4.24208
2.14913 0.468734 4.55044
1.44302 0.3508 2.83829
0.663393 0.351129 2.8421
2.69872 0.155316 1.65997
3.36466 0.418321 2.2756
3.99396 1.2055 1.15708
0.7437 0.448461 0.937131
1.82907 0.419937 3.95877
1.22142 0.426171 1.02377
0.390418 0.217805 2.29686
3.72595 0.508363 2.20872
1.10219 0.119262 3.16653
4.01137 0.442543 1.77378
1.89176 0.522622 1.58203
3.97715 0.364586 1.77902
4.00917 1.14058 1.2198
0.799686 0.456989 0.921948
1.99281 0.337223 4.0732
1.01934 0.464451 0.965679
0.44688 0.280084 2.31587
4.05679 0.905398 1.11167
1.00969 0.0579969 3.23283
1.89527 0.540702 2.00969
1.8791 0.523392 1.6624
3.90195 0.372158 1.82623
2.85512 0.476141 0.729496
2.27484 0.231217 1.20198
2.40431 0.462326 4.03109
2.60777 0.726713 0.911123
3.92933 1.11077 0.915649
0.361497 0.0715113 2.96138
0.942227 0.348311 2.28587
3.34626 0.692565 2.24342
4.26205 0.599096 1.56544
2.7023 0.0762297 1.75356
2.70415 0.448108 0.724603
2.19259 0.0774857 1.45024
2.53523 0.354425 4.03556
2.60498 0.726304 0.955032
3.94522 1.10272 0.838898
1.63449 0.524743 1.51069
0.969538 0.392757 2.24925
3.30879 0.668574 2.25714
4.21244 0.574827 1.62111
2.68472 0.0353868 1.68842
0.791948 0.442842 0.559439
0.336205 0.469419 0.556925
3.75042 0.306417 4.62108
0.925629 0.607908 0.763287
1.51398 0.403605 2.46422
1.15464 0.329671 3.4249
1.95888 0.566299 1.81085
0.734999 0.183881 2.74584
1.40573 0.372044 3.18659
1.13933 0.350169 3.70105
0.830955 0.445168 0.557075
0.312678 0.529163 0.552325
3.78296 0.207509 4.70545
0.941934 0.613832 0.782304
1.48604 0.376567 2.53021
1.06582 0.33223 3.39053
1.98857 0.57629 1.79364
0.526038 0.278518 3.20751
1.34881 0.34539 3.06818
1.0182 0.248573 3.48975
1.08582 0.486136 0.206345
1.00785 0.149623 0.67688
3.63979 0.545417 5.10033
2.69099 0.590806 0.818904
1.273 0.705716 2.6818
0.832981 0.42796 2.20353
2.44136 0.812253 4.22142
1.15432 0.677217 3.31106
1.53205 0.660027 3.61952
2.75057 0.28858 1.73778
1.09775 0.494052 0.191048
0.996599 0.136418 0.701147
3.59294 0.562023 5.09302
2.69284 0.599729 0.799424
1.56706 0.733964 2.85469
0.87104 0.41863 2.21183
2.46729 0.784521 4.22342
1.07404 0.66097 3.25527
1.59515 0.660888 3.51683
2.68357 0.240227 1.7342
2.55122 0.481643 0.55361
0.775822 0.061942 0.683597
3.79619 0.540302 4.90876
0.670449 0.237885 0.745329
4.46855 0.854049 0.862956
3.5817 0.598665 5.19507
1.1029 0.443925 2.99163
3.68914 0.787209 2.49036
4.23227 0.788813 0.575148
3.26202 0.298762 2.33894
2.57386 0.472146 0.568975
0.768171 0.0657115 0.647147
3.81117 0.552807 4.91829
0.49782 0.32741 0.725869
4.4723 0.851907 0.924211
3.618 0.523165 5.0845
1.12388 0.452799 2.97383
3.67625 0.729712 2.49955
4.29792 0.773527 0.65903
3.27474 0.309344 2.35639
POINT_DATA 400
SCALARS particleColor float 3
LOOKUP_TABLE default
0 0.475469 1
0 0.633636 1
0 0.646516 1
0 0.199565 1
0 0.760493 1
0 0.758091 1
0.198811 1 0.801189
0 0.731064 1
0 0.695323 1
0 0.748239 1
0 0.261816 1
0 0.634519 1
0 0.710336 1
0 0.211056 1
0 0.840887 1
0 0.744863 1
0 0.757312 1
0 0.539992 1
0 0.700208 1
0 0.719427 1
0 0.196614 1
0 0.779896 1
0 0.240179 1
0.0980196 1 0.90198
0 0.483685 1
0 0.501431 1
0 0.625994 1
0 0.51068 1
0 0.797067 1
0 0.540553 1
0 0.26952 1
0 0.701729 1
0 0.307447 1
0 0.945627 1
0 0.225182 1
0 0.453101 1
0 0.494598 1
0 0.687684 1
0 0.188875 1
0 0.406407 1
0 0.914978 1
0 0.563951 1
0 0.80247 1
0 0.6703 1
0 0.728769 1
0 0.46859 1
0 0.589103 1
0 0.518575 1
0 0.578586 1
0 0.873151 1
0 0.948717 1
0 0.633721 1
0 0.829254 1
0 0.670871 1
0 0.661941 1
0 0.465671 1
0 0.746445 1
0 0.619345 1
0 0.544174 1
0 0.651714 1
0.157117 1 0.842883
0.10429 1 0.89571
0.0345254 1 0.965475
0 0.502948 1
0 0.820162 1
0 0.867633 1
0 0.623383 1
0 0.458424 1
0 0.347272 1
0 0.593064 1
0.137046 1 0.862954
0 0.825557 1
0 0.561988 1
0 0.162214 1
0 0.601225 1
0 0.870721 1
0 0.605114 1
0.103376 1 0.896624
0 0.344958 1
0 0.713576 1
0 0.147463 1
0 0.314272 1
0 0.538471 1
0 0.431556 1
0 0.264616 1
0 0.598102 1
0 0.295194 1
0 0.411953 1
0.148877 1 0.851123
0 0.370175 1
0 0.0840058 1
0 0.284251 1
0 0.627374 1
0 0.383527 1
0 0.400645 1
0 0.583445 1
0 0.258806 1
0 0.529465 1
0.158821 1 0.841179
0 0.336581 1
0 0.779121 1
0 0.555858 1
0 0.56362 1
0 0.640634 1
0 0.80392 1
0 0.617488 1
0.0126122 1 0.987388
0 0.880311 1
0 0.0688727 1
0 0.390751 1
0 0.544604 1
0 0.25525 1
0 0.644561 1
0 0.614447 1
0 0.748545 1
0 0.620867 1
0.00372692 1 0.996273
0 0.50388 1
0 0.134215 1
0 0.829766 1
0 0.832911 1
0 0.711947 1
0 0.601725 1
0 0.5083 1
0 0.796456 1
0 0.774114 1
0.253542 1 0.746458
0 0.540937 1
0 0.807812 1
0 0.475127 1
0 0.771695 1
0 0.807801 1
0 0.405139 1
0 0.268015 1
0 0.581115 1
0 0.744322 1
0.258672 1 0.741328
0 0.554694 1
0 0.539757 1
0 0.397338 1
0 0.582192 1
0 0.899474 1
0 0.775148 1
0 0.893437 1
0.18214 1 0.81786
0 0.784738 1
0 0.794889 1
0 0.609102 1
0 0.0632403 1
0 0.8846 1
0 0.535539 1
0 0.820136 1
0 0.793903 1
0 0.853091 1
0.12142 1 0.87858
0 0.770768 1
0 0.876113 1
0 0.597133 1
0 0.283982 1
0 0.694407 1
0 0.475698 1
0 0.442169 1
0 0.539456 1
0 0.920395 1
0 0.738052 1
0.188704 1 0.811296
0 0.341317 1
0 0.92573 1
0 0.717172 1
0 0.598171 1
0 0.498672 1
0 0.669209 1
0 0.401299 1
0.140433 1 0.859567
0 0.731921 1
0.165963 1 0.834037
0 0.39204 1
0 0.999811 1
0 0.88197 1
0 0.662554 1
0 0.714241 1
0 0.822199 1
0 0.835407 1
0 0.537843 1
0.0826907 1 0.917309
0 0.868814 1
0 0.661505 1
0 0.463915 1
0 0.226809 1
0 0.519107 1
0 0.66538 1
0 0.853021 1
0 0.37758 1
0 0.394261 1
0.102316 1 0.897684
0 0.921201 1
0 0.577186 1
0 0.470369 1
0 0.336235 1
0 0.624813 1
0 0.779737 1
0.180705 1 0.819295
0 0.703496 1
0 0.457167 1
0 0.56367 1
0.0709792 1 0.929021
0 0.676957 1
0 0.720131 1
0 0.593792 1
0 0.169811 1
0 0.637926 1
0 0.388731 1
0 0.635148 1
0 0.499015 1
0 0.653747 1
0.116647 1 0.883353
0 0.564713 1
0 0.770066 1
0 0.784015 1
0 0.484312 1
0 0.675137 1
0 0.798855 1
0 0.690993 1
0 0.632539 1
0 0.97032 1
0 0.342576 1
0 0.502182 1
0 0.251875 1
0 0.563915 1
0 0.707312 1
0 0.625236 1
0 0.65621 1
0 0.576214 1
0 0.663028 1
0.0420155 1 0.957985
0 0.220906 1
0 0.500902 1
0 0.577328 1
0 0.952476 1
0 0.774519 1
0 0.644649 1
0 0.760516 1
0 0.600336 1
0 0.331301 1
0 0.788765 1
0 0.913714 1
0 0.802433 1
0 0.988247 1
0 0.376951 1
0 0.656819 1
0 0.517406 1
0 0.998405 1
0 0.720074 1
0 0.267242 1
0 0.438958 1
0 0.644585 1
0.0952584 1 0.904742
0 0.904927 1
0 0.437011 1
0 0.779286 1
0 0.852896 1
0 0.685305 1
0 0.936409 1
0.224733 1 0.775267
0 0.401093 1
0.550865 1 0.449135
0 0.850259 1
0 0.56148 1
0 0.924869 1
0.0874522 1 0.912548
0 0.713786 1
0.316398 1 0.683602
0 0.797991 1
0.03253 1 0.96747
0.0474491 1 0.952551
0.14951 1 0.85049
0 0.656014 1
0 0.68355 1
0 0.82526 1
0 0.956741 1
0 0.498068 1
0 0.522387 1
0 0.32244 1
0 0.416794 1
0 0.265048 1
0 0.903023 1
0 0.673411 1
0 0.251406 1
0 0.663291 1
0 0.928146 1
0 0.709278 1
0 0.470045 1
0 0.453818 1
0 0.361124 1
0 0.516235 1
0 0.851773 1
0 0.67227 1
0 0.753565 1
0 0.789086 1
0 0.576715 1
0 0.312935 1
0 0.683951 1
0.0828963 1 0.917104
0 0.944607 1
0 0.445839 1
0 0.622891 1
0 0.528755 1
0 0.38909 1
0 0.64199 1
0 0.816603 1
0 0.505854 1
0 0.863623 1
0 0.953152 1
0.152446 1 0.847554
0 0.615606 1
0 0.940149 1
0 0.700838 1
0.0560059 1 0.943994
0 0.637298 1
0 0.762892 1
0 0.513453 1
0 0.814192 1
0.0290386 1 0.970961
0 0.779795 1
0 0.337221 1
0.375794 1 0.624206
0 0.812835 1
0 0.538059 1
0 0.797634 1
0 0.597598 1
0 0.507409 1
0 0.55448 1
0.0205627 1 0.979437
0 0.751079 1
0 0.502323 1
0.0498477 1 0.950152
0 0.611161 1
0 0.296786 1
0 0.757695 1
0 0.47787 1
0 0.756667 1
0 0.750683 1
0 0.830383 1
0 0.604594 1
0 0.620074 1
0 0.283192 1
0 0.594804 1
0 0.750062 1
0 0.666864 1
0 0.970189 1
0 0.731903 1
0 0.821732 1
0.035484 1 0.964516
0 0.705386 1
0 0.557941 1
0 0.396035 1
0 0.696028 1
0 0.934141 1
0 0.583162 1
0 0.991565 1
0 0.285095 1
0.0926883 1 0.907312
0 0.677281 1
0 0.929447 1
0.041222 1 0.958778
0 0.712258 1
0 0.696733 1
0.243741 1 0.756259
0.14138 1 0.85862
0.128288 1 0.871712
0 0.368854 1
0.0619014 1 0.938099
0 0.660852 1
0 0.919425 1
0.0398424 1 0.960158
0 0.804387 1
0 0.588544 1
0.146767 1 0.853233
0 0.998831 1
0.273898 1 0.726102
0 0.443073 1
0 0.778347 1
0 0.818057 1
0.0332561 1 0.966744
0.0442559 1 0.955744
0 0.418712 1
0.0608446 1 0.939155
0 0.395936 1
0.1337 1 0.8663
0 0.590358 1
0 0.596347 1
0 0.819674 1
0 0.751238 1
0.26771 1 0.73229
0 0.913065 1
0 0.602498 1
0.00254449 1 0.997456
0 0.407219 1
0 0.800781 1
0 0.559071 1
