# vtk DataFile Version 3.0
Particle simulation
ASCII
DATASET POLYDATA
POINTS 400 float
4.4432 8.93631 0.143639
1.58803 2.97678 4.74594
5.11662 5.04016 3.60731
7.13138 7.59489 5.35311
8.13632 8.71558 7.57086
3.79084 6.17409 3.66355
5.24859 8.53751 4.82238
0.13532 0.904144 0.739027
1.70435 7.36732 0.735945
6.65699 2.88048 0.371532
5.97197 4.47058 6.56507
9.0595 5.6889 7.2632
9.82424 4.4082 1.87545
9.0675 7.43255 6.55601
4.06576 10 10
7.66827 4.13289 8.69724
9.70398 3.67754 1.18991
8.63304 8.79262 5.00035
1.2751 8.60547 6.74339
7.60606 1.36008 0.294735
1.69601 3.08255 3.82127
6.54635 8.32365 4.72239
4.15946 7.27209 5.03381
7.79193 7.89989 4.74068
1.38637 10 9.28242
8.21103 4.36477 9.88482
4.62928 5.741 3.65491
0.670524 4.76682 2.43999
2.61039 0 6.76003
7.71926 5.19388 8.52419
3.49864 2.07066 3.26537
8.14608 0.142807 6.98013
8.81108 0.886028 0.31521
8.11776 4.59522 0.554608
7.62255 0.994407 2.8619
0.411561 1.17544 2.29194
2.69021 2.55581 9.62879
1.35819 7.51592 7.17345
0.206898 0.488225 2.02315
0.213512 5.75638 5.45803
7.86627 1.97179 8.59223
7.32276 4.06266 1.84577
7.74211 7.70338 5.63336
4.82983 7.89738 3.72118
9.41829 4.28627 3.59908
2.8563 1.98518 0.632128
1.71278 7.78654 2.00213
1.27535 8.62153 3.364
2.06459 3.05027 3.36814
1.01385 0.280597 9.4948
8.89011 2.0252 7.23113
5.18948 0 8.40061
3.4101 5.43161 2.09088
2.12303 4.31729 0.980419
0 4.57638 1.74045
0.594045 3.38931 2.03292
0.357108 6.71394 10
8.70537 3.0863 5.19729
1.89397 1.20632 7.61046
2.83404 9.27711 3.07825
1.7753 5.53638 3.83135
0.120044 9.98041 9.1727
2.71197 0.843102 4.4501
5.77863 6.56967 2.39598
5.09713 6.18571 3.38373
2.62878 9.4427 9.51807
4.62718 0.600768 0.088137
9.85095 8.88376 4.13133
9.17719 5.74282 6.94888
1.9368 5.80979 7.25954
5.52499 4.38197 5.9798
6.50384 2.55256 7.7494
5.46478 1.86779 1.27722
6.15958 0.625591 4.82263
7.34238 1.75548 5.59335
3.25433 4.02411 1.94128
4.94768 4.76551 3.27136
7.37404 8.10314 3.17411
2.1877 9.25659 4.09877
7.84143 2.7961 3.91047
1.99019 7.97596 6.2498
6.50345 9.78927 5.40989
8.79153 1.54472 1.14202
1.11861 7.46593 7.75508
8.59668 2.1934 2.09616
1.38701 3.027 5.60341
8.97448 2.07049 7.37913
5.81197 8.70953 0
8.8934 1.03772 7.51287
6.67773 8.71207 9.40382
0.0669249 7.62318 3.85426
1.52769 2.89147 0.810064
1.36748 10 0.410628
5.97477 3.24948 7.59811
1.30956 6.71537 2.15491
4.94366 0.826939 1.94978
9.22358 6.30433 8.9931
6.10505 9.03504 3.90308
5.05875 1.57498 0.434208
9.70082 9.71275 10
5.34267 4.51297 8.95257
8.46149 0.379235 8.02239
7.09234 5.57287 0.19803
2.32158 0.648723 8.98078
0.29834 4.36279 8.7555
2.56705 6.99632 3.05636
9.87632 7.77101 4.96563
0.717159 8.13262 1.39441
7.89132 5.89721 6.01052
3.81016 2.40907 8.24821
3.95704 0.336716 5.02487
10 9.00119 7.22836
8.31875 1.41677 7.23577
9.28422 0.339773 4.53387
4.33217 7.49567 5.88703
0.255884 4.93279 0.744762
7.43679 5.27309 8.59433
6.94376 0.525573 5.11428
0.664046 6.7847 1.11149
8.40377 2.26572 5.56183
1.35662 10 5.62951
6.23219 8.34211 0.496059
2.84912 9.67134 7.42254
6.46139 3.14281 7.3715
5.22791 1.06336 1.32974
0.871831 3.95092 0.431096
6.14772 0.89558 8.26426
6.33542 1.93263 7.15411
9.38669 0.589398 4.77954
6.0104 0.317585 9.10735
7.66469 6.96015 1.72957
4.08666 5.02874 0.591438
0 2.75911 7.83026
4.7098 8.33785 7.54381
0.729425 5.05554 2.03281
4.67981 8.97007 3.4944
8.35608 6.16637 3.29375
4.22071 3.73992 2.30907
3.01841 4.23742 1.60202
8.92806 4.34594 5.0991
8.2853 0.324126 9.72772
3.97233 3.79347 8.362
5.86318 4.58733 8.60657
3.82629 2.1043 2.0404
4.05727 5.27925 9.07321
8.65996 1.04385 0.269767
3.65523 6.09421 9.07857
3.30608 1.37843 5.92996
8.73977 6.60755 1.25578
6.82013 5.40378 6.75222
7.63426 0.36576 7.33092
2.13168 1.54402 4.45283
7.0108 1.66916 4.68265
6.53145 0.413459 0.61969
7.00002 1.05979 3.71141
1.21376 3.69665 8.43155
9.72495 5.96322 3.20188
5.8069 0.224311 5.54102
2.89913 3.5676 0.662386
0.43061 3.52136 6.46284
8.97553 0.582384 4.7957
9.64101 8.09733 0.971971
8.47062 9.08611 0.955855
3.32739 8.69599 5.37
3.57781 6.6077 3.90081
3.06577 3.39848 0.663985
3.04652 3.25074 9.20144
0.524628 0.386273 9.90208
0 0.730467 2.25084
7.71584 4.8064 8.69517
2.72101 0.977595 2.12349
3.71036 5.53658 4.98757
2.00657 1.95118 0.406636
6.0263 0.585021 7.30488
3.47926 6.83629 6.20142
1.80936 6.05758 8.89966
2.67488 2.62914 4.99843
1.38888 5.11782 6.55817
0.438645 0.566069 6.77771
3.03738 9.47276 8.317
0.232734 2.17658 7.79725
6.50625 8.53352 2.99161
3.25702 4.82714 3.46056
9.7966 6.12557 3.8149
6.25295 0.484461 0.126609
3.94185 2.62356 4.64061
7.44207 0.232136 7.1854
3.61361 2.81118 3.47391
3.11206 8.87917 1.03754
7.88974 4.2024 4.04004
1.66872 9.41992 7.44259
1.1254 0.962242 9.48029
0.848242 5.13279 2.43473
7.59042 9.21594 0.709672
3.62324 5.15601 2.78468
5.02586 7.33979 1.57023
8.37337 2.44759 2.62448
7.01831 9.87324 9.61465
5.39373 7.93962 7.44894
2.48629 6.4835 3.43835
7.39915 0.265945 5.94667
8.85302 6.57511 2.61195
2.77922 1.45876 5.56819
6.90017 4.5561 7.59774
3.09396 4.04652 0.5544
8.66246 6.4149 2.97852
1.75196 2.22567 0.190829
4.00482 9.35513 0.580875
0.894611 7.22877 3.30557
9.23586 3.77509 3.6622
6.61229 0.816519 7.4999
1.60891 5.06985 6.97594
9.20689 0.581001 0.193164
2.18874 2.24249 6.31217
6.32239 1.78008 9.03823
9.88962 6.1991 8.28071
6.40003 0.214998 8.77687
8.69624 5.62945 7.5977
2.27574 5.70453 1.08211
8.83802 0 7.56396
1.28848 4.08058 7.7186
3.22861 8.8409 0.448632
4.38166 2.25676 7.88365
7.58749 0.135904 6.55054
9.36964 2.22768 8.83932
0.976847 9.42603 1.30474
0.465941 8.9407 7.25454
0.522092 1.67992 4.88085
7.44252 0.296463 7.30863
7.3546 0.137526 9.70205
8.12354 0.341313 0.934725
6.71807 2.2297 9.09867
7.65174 2.19237 2.40456
1.49522 1.15088 7.58614
1.58822 8.11325 9.41423
7.64667 0.502314 3.90617
0.407643 5.06484 2.29678
2.70564 2.76689 9.2556
7.71515 0.211811 7.0467
0 7.65628 6.45872
7.5846 0.123452 6.78543
4.20622 1.10108 6.74427
9.67579 6.57434 8.12336
4.66367 8.22166 2.94155
0.490424 8.32759 1.93197
10 6.44455 0.897731
2.11689 4.18897 8.91634
5.43001 5.45156 7.64077
1.52106 1.11416 9.62921
7.27714 8.96406 8.35791
7.18971 4.49264 2.69179
0.525626 0.665343 2.26798
9.31995 6.25591 6.77597
1.1535 6.64439 5.47092
9.91403 9.66607 10
0.654696 0.955603 0.204169
6.26102 7.43458 8.05908
8.97821 0.985888 3.92126
0.117655 2.03776 9.45689
8.43294 10 3.12385
9.75201 0 2.67791
6.90631 8.42754 4.48799
5.14281 3.10666 10
8.61034 8.76387 1.34937
9.32353 4.14445 8.10632
7.70267 7.19939 2.15027
2.42056 1.02394 2.23331
4.20563 2.78592 5.32336
4.97786 8.52746 0.622339
2.44848 8.10832 0.391558
9.16106 1.28561 2.82981
8.98468 1.79479 0.468503
3.79324 5.82868 6.59104
4.61063 0.526034 1.66511
3.69336 0.721241 7.25043
7.17222 7.32893 5.34608
4.01254 10 5.00647
5.95758 1.66564 6.6996
8.04748 8.72222 4.79914
7.39434 0.503442 6.3212
7.45556 6.19274 0.286497
6.98093 2.98625 2.02315
4.63696 1.36722 7.98686
0.698479 3.4693 6.1056
10 8.87153 8.52494
6.38659 1.81935 0.849561
9.09668 0.373356 8.04306
3.85292 8.16783 9.81522
8.32688 9.8256 0.0909607
6.73134 10 2.23219
4.90961 9.49773 3.08162
9.70634 2.47043 8.31951
9.50838 7.59073 4.73623
2.44952 2.99866 7.77566
0.358944 7.78984 2.88437
0.914951 0.0642069 8.98874
7.46959 0.385162 7.29208
7.46902 0.255509 6.04326
7.44038 0.460225 7.08864
7.24811 0.5339 7.11375
1.57575 7.99491 6.41752
7.00512 5.53742 8.88389
7.40202 0.472778 7.21251
1.64975 3.70297 8.69877
7.61143 0.206404 7.0823
2.97779 3.72826 7.92971
7.67232 0.480465 6.20184
7.42724 0.491883 7.27622
0.168012 9.63867 3.84638
3.13668 8.36346 9.05054
9.16136 7.33239 2.9983
4.99394 0.830678 1.63089
3.12353 0.58809 8.71245
7.54335 0.228313 7.17898
3.13121 4.96685 3.1505
4.14626 4.84764 5.53248
9.89304 2.47438 5.6592
7.75449 0.535522 5.90384
9.89238 3.60184 7.97255
3.61582 4.51469 9.4458
6.9613 5.63724 5.11769
0.865078 0.406592 6.91813
0.908691 0.293393 8.82852
7.60734 0.381455 7.25819
7.13691 0.250885 7.17114
2.17025 7.25622 8.3776
7.45485 0.0953435 6.39615
2.23078 0.680251 9.58787
7.56493 4.45582 1.87412
7.59608 0.134868 7.2815
2.34765 9.31276 2.09218
9.36304 3.37877 3.04935
5.66233 8.01841 0.630676
0.642066 1.15157 0
1.56239 0.238026 9.952
3.60605 5.40116 1.48237
6.75499 4.68651 3.61747
7.62591 0.209152 7.48152
7.55357 0.665681 9.22021
0 8.0953 2.27464
9.76438 9.92572 1.33478
1.9539 7.47079 5.81863
8.20951 9.93593 1.86161
0.86388 0.366391 8.77633
7.26792 0.154063 7.65168
4.71272 1.07534 4.21906
9.6186 1.40154 2.07834
7.52508 0.330422 7.78221
7.52692 0.289261 7.26737
0.823765 4.74187 9.21544
7.6789 0.26512 6.78631
7.45815 0.320485 6.9523
0.165286 5.99032 2.91075
5.78948 3.11726 7.93809
5.47419 7.43154 4.22632
7.40354 0.379799 7.22286
6.31828 4.19142 4.80378
1.13605 0.824675 7.94833
7.79654 0.350554 5.97284
7.47257 0.179839 7.05448
0.400693 7.56126 7.76388
0.780552 0.142044 9.07727
1.01616 0.195301 8.75751
7.62587 0.21067 7.16363
7.49125 0.0962475 7.39107
4.44685 8.01982 6.41505
0.921153 0.168997 8.84839
0.476602 5.77443 0.576114
4.57524 9.04832 9.34255
6.63802 7.19062 0.8081
9.72002 1.30658 1.76867
0.561316 3.92825 0.886621
0 0.75183 3.05766
6.91933 0.524356 6.85497
7.75891 0.0938027 7.66907
7.48056 0.256166 7.26639
0.978097 0.181862 8.7829
2.90141 2.71482 0.0877979
2.82567 7.58722 8.82767
7.00476 0.862788 7.33459
7.48347 0.226971 7.20013
7.66001 0.198174 6.96488
6.06193 2.27326 7.22878
7.46806 0.512881 6.60409
1.19697 6.86217 5.90868
0.930408 0.149552 8.80641
7.54577 0.0516342 6.7742
7.681 0.0874664 7.13297
6.55409 9.2905 1.36532
7.8684 7.57885 1.63146
7.0099 0.506531 7.00274
7.3122 0.270216 7.22571
4.12178 7.88809 3.77344
7.35652 0.600047 6.78849
3.48259 0.859445 0.887605
8.92223 6.9842 5.68101
7.73708 0.372896 7.17048
9.93918 7.98476 4.77299
0.533228 6.29999 6.89678
4.4957 1.76744 8.48447
POINT_DATA 400
SCALARS particleColor float 3
LOOKUP_TABLE default
0 0.883542 1
0 0.619122 1
0 0.96836 1
1 5.96046e-08 0
1 5.96046e-08 0
1 0.560096 0
1 0.102832 0
1 0.302533 0
1 0.770329 0
0.766615 1 0.233385
1 0.406474 0
1 0.0607347 0
1 0.764734 0
1 5.96046e-08 0
1 5.96046e-08 0
0.35504 1 0.64496
1 5.96046e-08 0
0.420872 1 0.579128
0 0.663556 1
1 5.96046e-08 0
0.155861 1 0.844139
1 0.92906 0
0.93295 1 0.0670498
0.422211 1 0.577789
1 5.96046e-08 0
0.731997 1 0.268003
1 5.96046e-08 0
1 5.96046e-08 0
1 0.565496 0
1 5.96046e-08 0
0.468521 1 0.531479
0 0.526201 1
1 5.96046e-08 0
1 5.96046e-08 0
1 0.496281 0
1 5.96046e-08 0
1 5.96046e-08 0
1 0.469844 0
1 5.96046e-08 0
1 5.96046e-08 0
1 5.96046e-08 0
1 0.171938 0
1 0.605964 0
1 0.109775 0
0.843987 1 0.156013
0.745997 1 0.254003
1 5.96046e-08 0
0 0.914051 1
0.112197 1 0.887803
1 0.224831 0
0.569583 1 0.430417
1 5.96046e-08 0
1 0.842992 0
0.880441 1 0.119559
1 5.96046e-08 0
1 0.386009 0
1 5.96046e-08 0
0 0.690219 1
0 0.23649 1
0.704527 1 0.295473
1 5.96046e-08 0
1 0.128123 0
1 0.645671 0
1 0.639869 0
1 5.96046e-08 0
0 0.739186 1
0.264404 1 0.735596
1 0.182896 0
0.864447 1 0.135553
0 0.627423 1
1 0.322969 0
0 0.879545 1
1 0.31721 0
1 0.960576 0
1 5.96046e-08 0
1 0.984489 0
0.233529 1 0.766471
1 5.96046e-08 0
0.587264 1 0.412736
1 0.0668008 0
0.835828 1 0.164172
1 0.798991 0
1 5.96046e-08 0
1 5.96046e-08 0
1 5.96046e-08 0
1 0.535383 0
0.000533462 1 0.999467
1 5.96046e-08 0
1 5.96046e-08 0
1 0.788527 0
1 5.96046e-08 0
0.721549 1 0.278451
1 5.96046e-08 0
1 0.590021 0
1 5.96046e-08 0
1 5.96046e-08 0
1 5.96046e-08 0
0.5419 1 0.4581
0.770011 1 0.229989
1 5.96046e-08 0
1 0.542997 0
1 0.691748 0
1 5.96046e-08 0
1 0.455232 0
1 5.96046e-08 0
1 5.96046e-08 0
0.196204 1 0.803796
1 5.96046e-08 0
0.951319 1 0.0486805
1 5.96046e-08 0
1 0.699581 0
1 5.96046e-08 0
0 0.979854 1
1 5.96046e-08 0
1 0.985199 0
1 0.706053 0
1 5.96046e-08 0
1 0.646571 0
1 0.681271 0
1 5.96046e-08 0
1 5.96046e-08 0
1 5.96046e-08 0
0.378219 1 0.621781
1 5.96046e-08 0
1 5.96046e-08 0
0.640968 1 0.359032
1 0.359678 0
0.179419 1 0.820581
0.423038 1 0.576962
0.935158 1 0.0648416
0.671028 1 0.328972
1 0.715042 0
1 5.96046e-08 0
1 0.109249 0
1 5.96046e-08 0
1 0.0619488 0
0.34633 1 0.65367
1 5.96046e-08 0
1 5.96046e-08 0
1 5.96046e-08 0
0.507804 1 0.492196
1 0.45164 0
1 5.96046e-08 0
1 5.96046e-08 0
0.0125089 1 0.987491
1 0.368618 0
1 0.0346676 0
1 0.639383 0
1 5.96046e-08 0
0.753873 1 0.246127
0 0.319223 1
0 0.97795 1
1 5.96046e-08 0
0 0.896719 1
1 0.851262 0
0.509238 1 0.490762
0 0.728298 1
1 5.96046e-08 0
1 0.925159 0
1 5.96046e-08 0
1 0.969592 0
0.787117 1 0.212883
0.0599024 1 0.940098
0 0.575438 1
1 5.96046e-08 0
1 5.96046e-08 0
0.935632 1 0.0643679
1 0.959982 0
0.415986 1 0.584014
1 5.96046e-08 0
0.948014 1 0.0519856
1 5.96046e-08 0
1 5.96046e-08 0
0.389657 1 0.610343
1 0.823644 0
1 5.96046e-08 0
1 5.96046e-08 0
1 0.985092 0
1 0.940638 0
1 5.96046e-08 0
0.388909 1 0.611091
1 0.310542 0
1 5.96046e-08 0
1 0.247055 0
0.371907 1 0.628093
1 0.70432 0
0 0.931043 1
1 5.96046e-08 0
0 0.686293 1
1 5.96046e-08 0
0.951194 1 0.0488061
1 5.96046e-08 0
1 0.861231 0
1 5.96046e-08 0
1 5.96046e-08 0
1 0.853044 0
0.294101 1 0.705899
1 5.96046e-08 0
1 5.96046e-08 0
1 0.345647 0
0 0.676863 1
1 5.96046e-08 0
1 0.454323 0
1 0.682465 0
1 5.96046e-08 0
1 5.96046e-08 0
1 0.411197 0
0.0059275 1 0.994072
1 5.96046e-08 0
1 5.96046e-08 0
0 0.799767 1
1 5.96046e-08 0
1 5.96046e-08 0
1 5.96046e-08 0
1 5.96046e-08 0
0.430132 1 0.569868
0 0.927731 1
1 0.839697 0
0.777696 1 0.222304
1 5.96046e-08 0
0.727892 1 0.272108
1 5.96046e-08 0
0.938224 1 0.0617757
0 0.372935 1
1 5.96046e-08 0
0.215117 1 0.784883
0.421436 1 0.578564
1 5.96046e-08 0
0 0.38637 1
1 5.96046e-08 0
1 5.96046e-08 0
0 0.652281 1
0 0.846632 1
0.520926 1 0.479074
1 5.96046e-08 0
1 5.96046e-08 0
1 0.814416 0
1 5.96046e-08 0
0 0.301793 1
1 5.96046e-08 0
0 0.758925 1
0 0.521773 1
0.334401 1 0.665599
0.349799 1 0.650201
0.823004 1 0.176996
1 5.96046e-08 0
0.148996 1 0.851004
1 5.96046e-08 0
0.0956684 1 0.904332
1 5.96046e-08 0
1 0.898112 0
0.0504354 1 0.949565
1 5.96046e-08 0
1 0.582607 0
0.95207 1 0.0479295
1 0.36133 0
1 0.904521 0
1 0.203279 0
0.907507 1 0.0924932
0 0.937281 1
0.79652 1 0.20348
1 5.96046e-08 0
1 0.576157 0
1 0.522309 0
1 0.128289 0
0.835315 1 0.164685
0.981247 1 0.0187527
0.945746 1 0.0542541
1 0.981859 0
1 0.51273 0
1 5.96046e-08 0
1 0.342051 0
1 0.959633 0
1 5.96046e-08 0
1 5.96046e-08 0
1 5.96046e-08 0
1 5.96046e-08 0
1 5.96046e-08 0
1 5.96046e-08 0
0 0.884922 1
0.884975 1 0.115025
1 0.653886 0
1 0.685507 0
1 5.96046e-08 0
1 5.96046e-08 0
1 0.955958 0
1 0.575892 0
1 5.96046e-08 0
1 0.936071 0
1 5.96046e-08 0
0.860618 1 0.139382
1 0.378767 0
0 0.765871 1
1 0.765587 0
0.289143 1 0.710857
0 0.761702 1
0 0.876248 1
0 0.399291 1
0 0.424419 1
0 0.409775 1
0.881343 1 0.118657
0 0.480571 1
0 0.59436 1
0.270067 1 0.729933
0 0.661154 1
0.583462 1 0.416538
0 0.143641 1
0 0.186755 1
1 0.585806 0
1 0.277485 0
1 0.958063 0
1 5.96046e-08 0
1 0.890821 0
0.0145835 1 0.985416
1 0.126616 0
0.834573 1 0.165427
1 0.85895 0
0.325308 1 0.674692
1 5.96046e-08 0
1 5.96046e-08 0
1 0.229487 0
1 0.772872 0
0 0.55644 1
0 0.531549 1
0 0.534293 1
1 0.104669 0
0 0.682727 1
1 5.96046e-08 0
0.917607 1 0.0823928
0 0.622638 1
0 0.911348 1
1 5.96046e-08 0
0.617641 1 0.382359
1 0.909359 0
0.747158 1 0.252842
1 0.878542 0
1 0.503313 0
0 0.0882613 1
1 0.814957 0
0.121741 1 0.878259
1 0.0913652 0
0 0.590568 1
0.583346 1 0.416654
0 0.522824 1
0 0.713828 1
0.203748 1 0.796252
0 0.810145 1
0 0.581398 1
0 0.817408 1
0.363687 1 0.636313
0 0.929404 1
0 0.88269 1
0.74365 1 0.25635
0.786209 1 0.213791
1 5.96046e-08 0
0 0.743399 1
1 5.96046e-08 0
1 0.224918 0
0 0.570821 1
0 0.775723 1
1 5.96046e-08 0
0 0.654207 1
0 0.455354 1
0 0.663708 1
0 0.355253 1
1 0.920666 0
0 0.767849 1
1 0.671275 0
1 0.191054 0
0.584657 1 0.415343
0.185425 1 0.814575
1 5.96046e-08 0
0 0.795017 1
0 0.643539 1
0 0.30521 1
1 0.628839 0
0 0.924666 1
0.801719 1 0.198281
1 0.628031 0
0 0.787919 1
0.00068166 1 0.999318
0 0.634522 1
0.324885 1 0.675115
0 0.0766717 1
1 5.96046e-08 0
0 0.619874 1
0 0.642948 1
0 0.787235 1
1 5.96046e-08 0
1 0.210866 0
0 0.342123 1
0 0.70696 1
1 0.870287 0
0 0.537843 1
1 0.869603 0
0 0.842403 1
0 0.452197 1
1 0.93474 0
1 5.96046e-08 0
0.341216 1 0.658784
