# vtk DataFile Version 3.0
Particle simulation
ASCII
DATASET POLYDATA
POINTS 400 float
6.49973 7.36029 9.89941
2.50692 6.83371 3.45653
8.00939 4.48423 7.53713
9.6336 6.3259 5.05143
7.80423 6.07009 1.82804
9.60397 7.29959 4.61135
1.3311 9.66244 7.50193
9.7659 6.30011 7.20083
2.79407 9.6335 8.24321
6.96838 10 6.28439
5.23138 0.739547 5.62093
3.74396 1.97856 10
0.402813 3.53733 9.43829
7.0579 9.92304 1.66433
6.40413 9.84064 9.82828
7.74323 9.2907 8.53295
9.38835 9.57544 8.9133
3.10529 0.297754 1.82014
2.10782 2.77374 3.22633
9.41949 2.60398 7.50821
3.15942 0.190139 1.79021
4.97269 5.62749 9.32564
2.5846 6.73369 1.48506
2.35077 1.72128 0.704839
4.54591 0.354642 2.72924
9.43246 7.28296 2.58099
9.17759 6.61244 9.92239
2.73091 5.19366 8.28931
3.99497 9.16556 0.304065
1.92074 1.63629 0.515456
5.98794 1.86296 0.230861
6.19847 8.48099 0.407209
3.81436 0.332173 6.09207
5.28969 7.83634 0.322445
8.23298 4.02314 2.66578
8.81668 1.46935 7.15564
3.11208 9.67921 2.5621
2.9466 0.342269 1.88639
7.82607 2.01958 3.35269
8.33827 5.74689 1.90328
5.83641 7.08823 6.41435
1.79223 7.25751 0
2.11496 4.68641 6.04184
0.419312 3.27752 1.67758
6.72524 0.401362 2.00293
3.68803 10 7.31464
5.10252 5.07045 5.9897
6.65604 7.63504 3.31134
9.776 1.10005 0.762434
9.10979 0.642581 8.4305
9.18321 9.86202 1.51492
3.42735 6.06082 5.25804
9.27233 8.56565 3.7476
3.56663 1.658 5.2031
9.06903 3.71328 1.73832
3.68164 1.12244 5.78298
1.24244 1.85766 2.31733
6.44953 4.8164 2.70618
0.48245 4.49393 6.20214
4.24807 7.71615 2.85435
4.33806 8.50377 9.12878
3.03624 3.89851 8.52281
8.56314 2.13768 3.1605
9.91335 6.60576 3.71486
4.29476 3.7201 7.29693
4.84774 2.65414 4.57545
7.29125 0.791022 4.73084
10 0.741721 0.73516
5.5867 5.49044 4.97488
5.75381 5.71958 8.65016
2.14955 4.38854 3.4782
4.13397 6.25955 3.93164
8.86181 1.35115 5.50193
5.93772 1.98187 7.52637
9.69277 9.91967 7.41319
5.06718 6.20619 3.95448
1.40973 1.97451 4.09821
4.14384 7.59818 5.48472
2.10162 4.90603 1.77351
4.24635 0 9.62356
3.1557 0.752235 1.72369
0.283425 0.573624 0.516529
1.40408 1.46173 8.11291
0 3.83793 0
7.41766 0.650007 9.62411
3.25035 5.37617 2.91888
3.05753 8.59759 6.57596
8.86721 7.62835 6.75884
4.38947 1.77761 3.11246
7.43347 9.43087 7.3577
3.44969 0.254226 1.66923
1.12456 9.15445 7.1316
1.60421 4.07309 9.25015
0.269759 2.67409 3.40691
2.91835 7.89972 7.4037
5.76805 1.94725 5.63741
0.861406 0.477857 1.44463
3.08943 8.49714 7.99969
7.69268 8.27104 2.08161
3.57839 8.25466 8.43872
3.41224 0.0211616 2.59202
0.942456 5.1814 9.01733
6.33501 2.5959 2.1477
8.12692 3.12356 5.65552
1.52909 4.66475 3.6503
1.38745 4.23132 0
7.511 3.26802 2.32845
2.3214 8.72677 3.02685
5.32454 10 8.97457
0.809715 5.38457 8.82965
0.930579 2.36262 9.11242
2.53137 1.51624 1.98805
7.03797 1.65339 0
0 1.20848 10
1.66274 0.166405 0.781503
1.96402 7.06508 1.87544
1.74986 0.725556 9.0836
10 8.15218 2.76786
6.32625 2.64439 1.85644
8.86942 0.51536 9.78451
10 6.18232 10
9.57652 7.083 6.42923
0.480135 4.07687 0.255981
3.10945 5.45845 4.77277
7.94277 7.15001 4.98303
3.43836 0.331721 2.88078
0.909895 0 7.11887
3.98857 5.3862 8.13563
1.48383 2.22392 0.510962
2.96227 7.21556 5.76751
6.14154 10 5.39108
1.22624 6.27524 5.23322
3.42376 6.11804 4.65817
0.234159 2.54013 0.546237
0.363368 2.32265 9.29375
2.46825 4.33303 1.13338
9.44354 1.24545 9.99151
4.93578 3.48888 7.86492
2.3182 0.969985 8.9031
5.50055 9.38114 1.43543
3.53161 0.358959 1.28919
8.98037 7.39654 4.93324
8.52907 1.72984 9.51989
8.27153 5.28951 4.61169
1.73711 0.168395 0.664818
4.94949 1.26764 0.808537
9.21114 3.26382 9.44053
2.9439 9.46797 1.11426
2.00533 2.46121 4.4361
9.38264 1.54828 4.26526
3.65165 0.214988 1.72312
1.92768 6.61598 3.39499
1.12392 3.70115 8.26634
3.19547 0.118531 1.81479
9.42586 2.17362 7.96508
5.81023 0.818352 5.02663
4.36353 7.41847 2.44471
3.18289 0.678697 5.27251
10 9.90515 5.50191
7.03389 1.38658 0.0629533
0 6.72881 8.26434
8.53024 4.65152 6.59062
7.18678 8.99588 2.4212
7.74265 5.78124 6.9062
0.182979 2.7526 1.84485
8.97905 8.22711 6.81007
5.4203 8.43855 6.22978
7.29483 8.42172 2.66672
9.44193 4.88263 7.80092
7.37947 3.57241 4.85007
3.16227 0.171746 1.97967
7.0667 9.44435 10
0.685841 3.23538 3.52587
5.87084 0.967015 4.7539
2.65708 2.74986 5.65168
4.69141 9.75074 6.76452
0.246609 2.34584 0.992846
8.32617 8.42939 8.45015
5.07194 4.53934 8.49634
3.95425 6.28559 7.57495
3.68659 0.518101 1.59288
6.91757 8.67252 0.289196
5.14743 8.36304 5.64744
3.63626 9.54494 4.26339
9.3525 3.91265 3.60128
1.60987 7.23968 6.8076
3.78526 0.179258 1.80122
1.51869 7.02748 7.59929
3.74169 0.316596 1.83743
1.70935 0.510257 0.881893
3.4766 0.167601 1.54518
3.33687 0.63122 2.08691
10 4.14606 7.68385
7.53684 4.48004 3.17506
7.61336 4.11522 10
3.72752 0.666145 1.30501
5.33329 1.55406 9.69875
0.661596 9.08985 5.4488
3.1093 0 1.58228
3.21905 0.466842 1.65693
3.34847 0.473612 2.03198
8.27788 5.01607 6.57903
9.39024 4.07056 5.64066
8.72552 3.83723 3.50367
0.702216 7.66629 6.20834
4.10069 1.63614 6.78494
3.56504 0.437958 2.11713
1.77452 0 5.82263
2.64806 0.821261 8.71023
2.4996 2.38837 0
3.53551 0.181879 1.86321
3.31477 0.387595 1.82696
7.97507 0.972434 6.489
2.69348 5.71063 9.52909
4.60863 4.65905 4.18273
4.39873 0.851375 8.59651
3.2952 0.176405 2.0505
4.26435 1.26774 3.59166
2.86531 6.09923 0.566604
5.42521 2.56069 1.91136
6.59204 2.79431 0.258009
3.33405 3.37249 6.13909
4.97461 4.21677 1.05386
3.16203 0.0669246 2.37927
9.94639 6.45357 3.82567
9.81489 8.93756 2.7023
9.07452 8.51092 0.375706
3.79668 0.0895729 2.26132
3.28964 0.261479 1.92935
7.35685 2.68542 2.42502
3.04243 4.34925 6.13344
5.2302 3.13512 4.98848
10 2.35269 5.22699
3.26186 0.608868 2.56541
1.62619 0.307784 9.07523
9.07274 8.40475 0.379844
0.585502 8.06784 0.266498
10 6.78011 9.66636
3.50775 0.25879 1.45582
6.39757 3.32421 1.15601
3.12413 0.509014 1.71673
4.10431 0.383023 1.90047
3.03174 0.522976 1.87406
3.07012 0.287825 1.91907
5.74949 2.9363 8.065
4.04012 5.71759 8.44746
6.16438 6.94738 1.86961
7.80359 2.83294 0.182597
2.75443 8.47052 4.17984
2.18369 8.60008 6.46606
3.92275 0.793216 1.41288
6.07767 5.7652 7.55043
0.543125 0.798743 6.96505
1.7386 2.90117 7.19615
9.36594 0.180525 6.65707
3.37516 0.0998067 1.09667
5.53887 8.04741 0.683035
2.04776 0.616665 8.77504
1.30966 4.91365 8.70774
1.76251 0.409424 8.95806
3.15909 0.203319 1.20542
8.08403 3.72858 8.11864
10 1.14449 7.50979
1.62928 0.233467 2.01198
0.494152 1.53064 8.0243
7.52009 0.79996 0.823591
6.79691 0.904429 1.82013
1.89066 0.686514 9.04031
0.975032 5.47296 5.5031
2.94413 0.388649 1.45334
2.54485 0.140317 1.88253
9.73044 4.17363 8.04898
6.64874 4.05844 0.47646
1.30736 0 6.92739
6.91244 0.615419 2.06007
1.7404 0.968635 7.25384
8.96449 7.04932 2.38976
10 6.41298 0.27378
8.09839 3.18224 9.05736
3.18283 0.374299 1.76793
1.90437 0.124282 5.47211
7.64314 0.405601 0.572532
2.1729 6.21653 4.96661
4.04612 0.45206 9.10892
5.46142 6.04495 9.93705
3.40065 6.64676 8.20506
3.58974 0.257479 1.79537
2.40783 0.714733 4.19175
5.94949 3.10043 8.89858
2.40018 1.5198 10
2.4972 9.25717 6.92418
8.11769 2.32906 2.89316
3.49607 0.312895 2.31814
3.29753 0.79302 3.94476
0.901346 1.26667 7.69959
1.87001 0.678078 9.50838
3.31389 0.46919 2.06055
3.53367 0.648544 2.03968
3.92561 0.829505 2.26279
3.04765 0.303712 1.99473
2.07632 1.40721 0.822647
8.89622 4.40422 3.27903
5.50573 0.193371 5.21784
0.164098 9.24198 4.12111
3.72729 0.630516 1.68362
2.77691 0.402095 4.82857
3.3268 0.474293 2.19714
3.06632 0.601825 1.83643
1.21058 1.34985 4.0327
8.71283 7.06964 2.31538
2.5725 0.845284 6.52237
9.65428 4.3615 6.35964
4.10542 7.85511 4.3821
3.26139 0.136739 1.67994
7.03153 0.692813 7.9321
3.89254 1.23768 3.26053
3.11305 1.16855 4.12968
9.09479 10 0
5.89102 1.27294 3.29221
1.99226 9.46258 1.31245
2.01916 0.404005 9.4304
0 7.14283 9.63644
2.02361 0.76975 8.69524
3.6178 0.320119 1.61941
2.16288 0 5.36642
10 3.43979 0.390016
3.49829 0.551995 2.55912
3.39222 7.46855 2.90535
6.0323 0.158475 4.94226
3.2284 0.251294 1.54777
0.0963097 0.67428 4.55132
3.24398 0.555006 1.71976
3.30025 1.08651 9.72918
3.06654 0.463387 1.51812
7.56529 0.254276 0.750997
3.95475 2.56674 1.55713
1.22111 4.61846 8.53488
3.12259 0.512568 1.67608
0 5.35851 6.43452
7.49945 6.58304 6.62575
7.48373 4.06052 4.87246
8.63764 8.02391 6.87458
3.3061 0.92222 9.72527
1.81701 0.33627 8.95147
3.28895 0.54709 1.52524
3.37141 0.33338 1.31312
7.65793 0.312296 0.634029
3.13562 0.207841 1.43054
3.68994 0.212583 1.88678
6.38891 7.58593 8.09644
3.31411 0.316935 2.40529
3.33216 0.066597 1.73838
0.35091 3.71604 3.0398
1.78583 0.445088 9.31564
3.31951 0.211614 1.39484
3.40408 0.157309 1.26695
3.22546 0.665754 4.29445
3.24995 0.684832 9.53321
4.02567 0.614062 1.28533
3.24628 0.208361 1.95815
7.47921 0.257289 0.490508
1.76423 0.464782 9.07912
1.73237 0.593005 8.78679
3.14556 0.519726 1.09439
2.88119 0.594786 1.95543
7.95466 0.617889 0.745887
1.98069 0.312331 8.76243
5.85065 9.16461 0.974318
1.62209 0.637148 9.14592
3.70325 2.06936 8.48841
7.39776 0.247762 0.420333
1.41496 0.0650056 7.30908
0.894181 0.531609 7.6915
2.99324 0.449849 1.437
3.78035 0.49912 1.67788
7.57036 0.589851 0.659724
2.0414 0.549844 8.35097
1.75039 0.20282 9.36933
4.15177 0.512755 8.84209
3.18978 0.503483 1.37725
3.57846 0.242678 1.62519
2.94458 0.294564 2.13502
4.22401 0.687696 8.82714
2.78144 0.525311 1.80766
6.08827 0.336544 3.79349
2.15091 0.492631 8.90918
3.36227 0.57127 1.79765
3.21152 0.276719 1.5784
6.49961 3.17258 0.850934
8.83883 0.226714 2.55249
3.23158 0.472786 2.09017
3.20426 0.334349 2.10026
1.57152 0.60567 8.57463
3.35219 0.201628 2.05522
3.2418 1.1911 3.96021
1.92804 0.726181 8.64482
3.39305 0.520511 1.88138
1.4992 0.627537 9.47436
6.44377 1.02237 1.89502
7.26621 0.0567798 0.42762
POINT_DATA 400
SCALARS particleColor float 3
LOOKUP_TABLE default
1 5.96046e-08 0
0 0.877685 1
0 0.805312 1
1 0.70598 0
1 5.96046e-08 0
0.0994218 1 0.900578
1 0.633262 0
1 5.96046e-08 0
1 0.860059 0
1 5.96046e-08 0
0.222017 1 0.777983
0.491824 1 0.508176
1 0.554705 0
1 0.977847 0
1 0.801718 0
0.671598 1 0.328402
0.997166 1 0.0028345
0 0.686176 1
0.901013 1 0.0989872
1 5.96046e-08 0
0 0.575293 1
1 5.96046e-08 0
1 5.96046e-08 0
0.869532 1 0.130468
1 0.193732 0
0 0.80395 1
0 0.640549 1
0.814507 1 0.185493
0.997885 1 0.00211543
0.407902 1 0.592098
1 5.96046e-08 0
0.125493 1 0.874507
1 5.96046e-08 0
1 0.914456 0
1 5.96046e-08 0
1 5.96046e-08 0
0.471725 1 0.528275
0 0.650519 1
0.490662 1 0.509338
1 5.96046e-08 0
1 0.949175 0
1 5.96046e-08 0
0.877232 1 0.122768
0.78877 1 0.21123
0 0.666089 1
1 5.96046e-08 0
0.68447 1 0.31553
1 5.96046e-08 0
1 0.614401 0
0.684147 1 0.315853
1 0.510914 0
1 5.96046e-08 0
1 5.96046e-08 0
1 5.96046e-08 0
1 5.96046e-08 0
0.432971 1 0.567029
0.281069 1 0.718931
0.596217 1 0.403783
1 0.07271 0
1 0.455748 0
1 5.96046e-08 0
1 5.96046e-08 0
1 5.96046e-08 0
1 0.260124 0
1 0.486268 0
1 5.96046e-08 0
0.237683 1 0.762317
1 5.96046e-08 0
1 0.646605 0
1 5.96046e-08 0
1 5.96046e-08 0
1 0.784484 0
1 5.96046e-08 0
0 0.712332 1
1 5.96046e-08 0
1 5.96046e-08 0
1 5.96046e-08 0
1 5.96046e-08 0
0 0.717262 1
1 0.75527 0
0 0.505631 1
0.714805 1 0.285195
0.100769 1 0.899231
1 5.96046e-08 0
0.270401 1 0.729599
1 0.671687 0
1 5.96046e-08 0
0.525385 1 0.474615
0.799016 1 0.200984
1 5.96046e-08 0
0 0.746714 1
1 0.991094 0
1 0.162382 0
1 5.96046e-08 0
1 0.375178 0
0.346312 1 0.653688
0.395019 1 0.604981
0 0.883705 1
1 0.837261 0
1 0.784713 0
0 0.615213 1
0.0774595 1 0.922541
1 0.628622 0
0.760758 1 0.239242
1 5.96046e-08 0
0.872469 1 0.127531
0.972185 1 0.027815
0 0.943636 1
0.734773 1 0.265227
1 0.577931 0
0.494307 1 0.505693
1 0.77236 0
1 5.96046e-08 0
1 5.96046e-08 0
0 0.855914 1
1 5.96046e-08 0
0 0.567908 1
1 5.96046e-08 0
1 0.775998 0
0.976276 1 0.0237235
1 5.96046e-08 0
1 0.730026 0
1 5.96046e-08 0
0.540865 1 0.459135
0.488478 1 0.511522
0 0.199821 1
0.744041 1 0.255959
0.77142 1 0.22858
0.327574 1 0.672426
1 0.96711 0
1 5.96046e-08 0
1 0.164868 0
1 5.96046e-08 0
0.652372 1 0.347628
0.980799 1 0.0192006
0.437478 1 0.562522
0 0.806356 1
0 0.508554 1
0.454865 1 0.545135
1 0.174463 0
0 0.897276 1
0.547939 1 0.452061
1 5.96046e-08 0
1 5.96046e-08 0
0 0.911345 1
0.33656 1 0.66344
0.425084 1 0.574916
1 0.771915 0
1 0.754703 0
1 5.96046e-08 0
0 0.452414 1
1 5.96046e-08 0
1 5.96046e-08 0
0 0.81222 1
1 5.96046e-08 0
0.149715 1 0.850285
0.185468 1 0.814532
0.862215 1 0.137785
1 5.96046e-08 0
1 5.96046e-08 0
1 5.96046e-08 0
1 0.81693 0
1 5.96046e-08 0
1 5.96046e-08 0
0.193127 1 0.806873
1 5.96046e-08 0
0 0.517388 1
0.171321 1 0.828679
0.893981 1 0.106019
1 0.654102 0
0 0.575866 1
1 5.96046e-08 0
0.189263 1 0.810737
0.820867 1 0.179133
0 0.655066 1
1 0.0531029 0
0 0.997139 1
0.661642 1 0.338358
1 0.257366 0
1 5.96046e-08 0
0 0.585754 1
0.799932 1 0.200068
0 0.721839 1
1 5.96046e-08 0
1 5.96046e-08 0
1 0.00704867 0
0 0.606653 1
0.491832 1 0.508168
0.132507 1 0.867493
0 0.860469 1
0 0.727838 1
0 0.648874 1
0 0.514151 1
1 5.96046e-08 0
0.294748 1 0.705252
0 0.559783 1
1 0.211662 0
1 0.761971 0
0 0.987507 1
0 0.798096 1
0 0.730925 1
1 5.96046e-08 0
1 5.96046e-08 0
0 0.613041 1
1 5.96046e-08 0
0.391538 1 0.608462
0 0.666046 1
1 0.778768 0
1 0.901064 0
1 5.96046e-08 0
0 0.62739 1
0 0.761571 1
1 5.96046e-08 0
1 5.96046e-08 0
0.181034 1 0.818966
0 0.678997 1
0 0.779641 1
0.608854 1 0.391146
0.08149 1 0.91851
0 0.161874 1
1 5.96046e-08 0
0.220797 1 0.779203
1 0.894463 0
0 0.643828 1
0.0985016 1 0.901498
1 5.96046e-08 0
1 0.855649 0
0 0.421623 1
0 0.707974 1
1 5.96046e-08 0
1 5.96046e-08 0
1 5.96046e-08 0
1 5.96046e-08 0
0 0.292571 1
0 0.674122 1
0 0.951406 1
1 5.96046e-08 0
0.90252 1 0.0974801
0 0.404232 1
1 5.96046e-08 0
0 0.660719 1
0 0.706175 1
0 0.878402 1
0 0.740405 1
1 5.96046e-08 0
0 0.7652 1
1 5.96046e-08 0
0 0.728 1
1 5.96046e-08 0
0.696057 1 0.303943
0.107018 1 0.892982
1 5.96046e-08 0
0.502555 1 0.497445
1 5.96046e-08 0
1 5.96046e-08 0
0 0.31025 1
1 0.870111 0
0 0.643202 1
0.555315 1 0.444685
0 0.662313 1
0 0.72042 1
1 0.392952 0
1 0.500706 0
0.00582075 1 0.994179
0 0.52833 1
1 5.96046e-08 0
0 0.928356 1
0 0.568015 1
0.351783 1 0.648217
0 0.83577 1
0 0.195562 1
0 0.952867 1
1 5.96046e-08 0
1 5.96046e-08 0
0.278412 1 0.721588
0.679983 1 0.320017
0.105982 1 0.894018
1 5.96046e-08 0
1 5.96046e-08 0
0 0.40466 1
0 0.848569 1
0 0.7945 1
1 0.0602072 0
0.312956 1 0.687044
1 0.519891 0
1 0.0367095 0
0 0.646528 1
1 0.126766 0
1 5.96046e-08 0
1 5.96046e-08 0
0.771451 1 0.228549
1 5.96046e-08 0
0 0.640454 1
0.256351 1 0.743649
0.15833 1 0.84167
0 0.572757 1
0 0.328903 1
0 0.575612 1
0.780181 1 0.219819
0 0.59745 1
1 5.96046e-08 0
0 0.626606 1
0.861001 1 0.138999
0.984985 1 0.0150155
0 0.545789 1
0 0.925098 1
0 0.0781151 1
0 0.713541 1
0.486549 1 0.513451
0 0.8645 1
1 0.978173 0
1 0.0700678 0
1 0.933861 0
0 0.437053 1
1 0.367009 0
0.663458 1 0.336542
0.11411 1 0.88589
1 5.96046e-08 0
0.31139 1 0.68861
0.0533378 1 0.946662
0 0.412154 1
1 5.96046e-08 0
0 0.286186 1
0 0.900947 1
0 0.993532 1
1 0.0433912 0
0 0.592969 1
0.922127 1 0.0778729
1 5.96046e-08 0
0 0.634607 1
0.370001 1 0.629999
0.148558 1 0.851442
0 0.49294 1
0.203675 1 0.796325
0 0.815092 1
1 0.547634 0
0 0.514562 1
0 0.247819 1
0.506246 1 0.493754
1 0.809776 0
0.669359 1 0.330641
0.679433 1 0.320567
0 0.67482 1
0 0.610394 1
0 0.12499 1
0 0.806201 1
0 0.997581 1
0 0.707733 1
0 0.56319 1
0.126363 1 0.873637
0 0.751485 1
0 0.268975 1
0.0631469 1 0.936853
0.151889 1 0.848111
0 0.908346 1
0 0.705059 1
0 0.874897 1
0 0.789752 1
0 0.392316 1
0 0.757103 1
0 0.436482 1
0 0.419813 1
0 0.291154 1
0 0.358265 1
0 0.761252 1
0 0.607889 1
0 0.731993 1
0.403776 1 0.596224
0 0.296566 1
1 5.96046e-08 0
0 0.673239 1
1 0.792997 0
0 0.516975 1
0 0.743915 1
0 0.570331 1
0 0.875258 1
0 0.471226 1
0 0.8558 1
0 0.330004 1
0 0.748162 1
0 0.816627 1
0 0.464979 1
0 0.0914003 1
0 0.217227 1
1 0.97157 0
0 0.665198 1
0 0.299861 1
0 0.47271 1
1 0.904951 0
0.168208 1 0.831792
0.0678721 1 0.932128
0 0.819015 1
0 0.843711 1
0 0.522604 1
0 0.706348 1
0 0.458408 1
0 0.449033 1
1 0.635964 0
0 0.247596 1
0 0.221097 1
