# vtk DataFile Version 3.0
Particle simulation
ASCII
DATASET POLYDATA
POINTS 400 float
7.49588 8.35334 7.73578
3.12148 6.94153 3.51704
8.3986 4.53225 7.29838
8.6299 6.38144 5.58539
6.86369 6.55794 0.731216
9.45289 7.50631 4.12599
0.332776 9.8167 7.86371
8.25561 5.9343 6.60627
3.68506 9.88213 8.08475
8.29325 8.84442 9.06309
5.70257 0.199196 5.71151
3.67213 1.95207 9.00372
0.168083 4.25905 8.72208
7.02225 9.85587 0.665733
7.3144 9.63891 9.46307
7.52058 9.84791 8.02465
9.43923 8.58701 8.85366
3.34831 0.136288 1.92221
1.69174 2.36767 3.93231
7.91014 1.05372 7.24783
3.28717 0.460476 1.888
4.06236 7.50731 9.67144
0.610574 8.45743 2.77944
1.90858 2.19536 0
3.47962 1.27781 2.66132
9.67569 7.58481 2.50158
9.46044 6.77795 9.83359
3.53748 5.61136 8.31759
4.71789 9.77398 0.697225
1.43443 1.94761 0.239379
8.44421 4.37868 2.3131
6.22909 9.10316 0.44138
4.19875 2.37033 5.37615
4.95923 7.26839 1.03961
8.41485 3.01429 3.7673
9.22943 3.21873 8.21466
2.39391 9.79497 2.53284
3.02812 0.315784 1.57805
8.31483 1.90809 3.30233
9.58457 5.77136 0.475821
5.57689 6.46411 7.17519
1.2145 4.28491 2.77268
2.97715 4.94875 5.77004
0 2.67442 2.01721
6.94038 0.721424 1.98985
2.48209 9.18279 8.92694
5.37918 5.82349 6.20694
7.71541 5.88184 3.41588
9.43068 0.442963 1.48952
9.66988 0.630731 9.04792
8.30846 9.70111 2.28932
2.38633 5.73005 4.502
9.38856 8.95375 3.39156
2.57906 4.82382 2.11886
8.00499 3.39875 3.15027
3.84645 1.0512 5.20934
1.44105 1.80043 2.54862
6.58695 5.57623 2.55256
0.560402 5.5664 5.04138
4.48056 7.32381 1.79352
5.24794 9.66051 7.46781
2.16508 5.42322 7.23751
7.33897 2.25393 3.08477
9.48935 6.02289 4.26569
4.95023 2.67711 7.39949
3.62877 3.79471 4.24299
7.17288 1.14056 5.21775
9.65103 0.00687647 0.152026
6.44727 5.96034 5.61151
4.68831 6.699 9.25109
1.22919 5.42099 6.3387
3.64531 5.59709 3.19948
9.70995 0.860475 2.66537
5.67946 2.09045 7.73895
9.28249 8.44835 7.72537
3.23575 7.97221 5.12594
1.14423 3.59716 5.17066
3.95767 6.99607 3.63435
1.83856 4.72937 1.6234
3.79696 0.415272 8.65841
3.13812 0.513534 1.8589
0.690771 0.236896 1.29389
0.886996 1.39844 7.75771
3.84212 0 4.71866
7.9481 0.898494 9.84964
2.85482 5.83098 3.90563
1.95836 6.86068 7.40484
8.77665 8.36183 6.78466
4.38324 1.20377 3.88946
8.99835 8.5926 5.96477
3.77001 0.325752 1.64626
1.28683 9.45188 6.20474
1.54181 5.47745 9.11598
1.81796 1.97417 1.77245
2.28351 7.32324 6.43911
5.69264 2.60644 6.03432
0.772812 0.721571 0.698074
3.16834 8.20621 7.82733
7.65921 7.52451 2.7178
2.78009 8.54704 7.61642
3.21087 0.279193 2.56833
0.520886 5.18121 9.31885
6.30082 2.32558 1.87431
7.67927 2.94344 4.78624
2.94241 3.10956 2.20624
1.44936 3.52275 0.780909
8.07388 4.0428 2.23142
2.66455 8.57534 2.74688
6.04519 9.28111 9.10108
0 4.64118 8.89864
0.303695 1.81017 8.89418
3.18999 0.935492 1.22381
5.33382 0 1.03776
1.55261 7.22025 7.5077
1.48996 0.352658 1.01876
3.0841 6.36921 1.54524
1.94975 0.473244 9.13735
8.42147 4.63072 5.59297
6.29599 2.69582 1.93951
8.68671 0.216905 9.21155
5.81176 10 5.19431
9.14861 6.00495 7.09094
0.860313 1.83371 2.87439
2.85591 5.1507 5.35337
8.38545 6.80418 4.50415
3.42683 0.404473 2.88396
0.456499 0.366542 7.76783
3.87394 5.18738 8.78883
2.17519 2.13672 0.377279
2.63538 8.12149 6.05157
7.84056 9.40002 5.26036
0 5.52342 5.24693
0.85432 4.77563 5.05374
0.460088 2.44949 0.136559
0 1.58412 8.95782
3.10355 4.04636 0.984364
9.59074 0.900547 9.8476
4.68912 3.39617 7.87037
1.60505 0.715496 9.00026
4.51916 10 0.862807
3.22571 0.216686 1.05206
8.99585 8.1423 4.77103
9.43834 4.72014 10
6.95885 3.71541 5.52559
1.41908 0.039743 0.948198
4.68867 1.71829 1.21343
8.52245 3.21786 9.57706
3.22613 9.7384 2.14846
2.25915 2.75177 3.40314
8.89848 3.18878 3.71111
3.79452 0.333932 1.67428
4.17092 7.33442 3.62931
0.56408 2.7276 10
3.50535 0.384328 1.73555
6.29369 4.75897 9.20945
5.94267 1.00165 4.51096
4.05481 7.83075 2.64902
2.78162 0.717002 4.36587
9.51528 9.94036 7.16654
6.12011 1.0768 1.57883
3.43255 8.44406 8.78549
8.53399 4.75275 6.93975
5.95273 9.59044 3.5891
5.93856 4.79487 7.33685
0.493754 2.5451 1.35827
7.65378 7.26159 7.2342
5.46887 8.484 6.28144
7.27579 8.16372 2.10846
9.62577 3.94856 8.05895
8.01833 2.59616 5.2337
3.40068 0.158315 1.81064
6.25662 9.43068 6.31603
0.924979 2.88446 3.45425
5.14243 1.08668 4.65404
2.74589 2.43806 5.60851
5.75804 9.16588 7.59708
0.660688 2.25909 1.34577
8.05304 8.50705 9.22179
6.28487 4.13889 8.99056
4.91565 4.43586 8.47877
3.48058 0.504594 1.40662
6.29361 9.34412 0.351908
5.19366 8.21259 6.07509
2.8166 8.5619 4.69636
8.30125 5.61111 4.39363
0.62139 6.64036 5.85551
3.52758 0.234883 1.5814
1.48997 6.35463 7.90867
4.16278 0.394605 1.54745
1.33944 0.256355 0.76703
3.3232 0.367026 1.29645
3.2908 0.322251 1.85491
9.65157 4.29974 7.92619
8.26962 5.22234 1.93533
7.74963 3.37038 9.28749
3.52699 0.651989 1.18057
6.33415 0.997628 8.90519
0.759751 8.24209 6.16424
3.02567 0.285802 1.16244
3.19313 0.348882 1.31096
3.05291 0.527571 1.88944
8.73141 4.39571 5.8832
8.55801 5.43898 3.22355
8.80021 3.7326 3.51293
0.309267 7.21407 7.88655
3.7582 1.99256 7.24044
3.57076 0.163898 2.23341
2.70913 0.168947 5.21685
1.65135 0.367025 8.71982
4.11522 2.4467 0.769547
3.53724 0.358386 1.59055
2.99869 0.273382 1.76347
8.82022 5.35292 5.04216
4.90585 5.88657 9.17662
4.8966 4.45252 4.64899
4.25107 0.993767 8.85593
3.334 0.57312 1.97071
4.66607 1.7603 3.20223
3.16091 6.23273 0.141651
5.3924 2.52172 1.84775
8.92971 3.91162 0.28943
3.12298 3.20438 6.61348
4.4179 4.61393 1.84098
3.39506 0.122709 2.21129
9.64985 6.41061 3.75517
8.2997 9.33313 4.4274
8.49122 8.97195 0.0592413
3.6894 0.333814 2.19715
3.03509 0.405106 2.04809
8.29274 1.45722 0.631755
4.51102 2.44013 6.61521
6.26636 2.01266 6.37135
7.12499 0 2.53194
3.41857 0.620979 2.54489
1.977 0.537928 9.02272
8.68573 8.56426 0
0.434578 6.6896 0.976999
8.82277 6.91587 9.91047
3.62416 0.374297 1.53783
6.24202 4.3236 3.03685
2.87342 0.416843 1.77127
3.89323 0.526861 1.58298
2.9911 0.269432 2.16903
3.00049 0.525687 2.09635
4.09062 1.91009 8.89362
3.82319 5.28132 8.58616
4.08412 5.26301 0.467402
7.53062 2.62584 0.107377
3.57105 9.51738 4.67324
1.56765 8.95579 6.62805
4.27967 0.479499 1.25795
4.65331 4.60895 8.29348
1.12591 1.12735 7.30757
1.05166 4.05675 5.88501
10 0.0330289 3.87004
3.3588 0.177621 1.3245
4.54308 8.21406 0.429643
1.90026 0.83797 8.83108
1.37789 5.26878 8.15738
2.02829 0.593733 9.04134
2.96227 0 1.2086
8.21794 4.79905 7.12628
9.63336 1.23359 6.29222
1.74186 0.204359 2.49626
0.838453 1.56114 8.04758
8.37351 2.30955 1.06727
6.86928 0.907337 1.52006
2.08435 0.683764 9.11691
0.563575 5.27404 6.14508
3.32473 0.518078 1.34695
2.68979 0.149381 1.80502
9.72827 4.5734 7.81821
6.03999 2.74175 0.880039
4.36168 1.74065 8.44061
7.13834 0.324719 1.69214
2.02763 1.08447 6.44917
8.89044 7.17104 1.99561
8.946 7.61748 0.604882
6.29196 3.61399 10
3.37563 0.371913 1.75526
2.25155 0.0230021 5.1716
7.3636 0.126627 0.616891
3.41056 6.31704 4.72242
4.47222 0.349782 9.49818
6.52831 6.59955 9.66179
2.61588 5.76468 9.10253
3.37391 0.0647337 1.83277
1.43408 1.33762 3.31224
3.02928 1.25958 6.29819
1.13648 0.390537 8.57203
2.1504 9.08014 6.07123
8.96939 1.52887 4.35065
3.75873 0.356312 2.24722
3.31058 0.472722 4.4726
1.17286 1.21703 8.18775
1.95134 0.777074 9.67486
3.41277 0.436101 1.93079
3.22425 0.520424 2.07113
3.38982 0.308861 2.79025
3.16105 0.385575 1.69239
0.809638 0.662382 0
8.6172 4.23909 3.46139
6.12722 0.244496 5.65294
0.585344 9.01168 3.26303
3.64841 0.323101 1.61674
2.76268 0.0634742 4.74154
3.34166 0.427208 2.14035
3.38527 0.360951 1.76913
1.65919 0.95902 3.53528
9.07473 6.88229 2.2988
1.60097 0.903508 7.02736
9.0992 5.14852 7.45608
3.73604 7.68287 5.33283
3.15604 0.179533 1.84375
8.28092 1.06417 8.08184
4.02556 0.705224 3.75662
3.1248 0.883223 4.54047
1.32189 7.2468 7.17443
5.90531 0.88649 3.83305
1.90826 8.99415 1.53184
1.83998 0.436766 9.19462
3.17283 8.88884 9.47924
1.95426 0.681201 8.87546
3.15574 0.222003 1.68082
1.89272 0.12119 5.12197
8.00343 3.582 0.376646
3.22946 0.545499 2.58351
4.1599 7.5102 2.15246
4.93448 0.403935 4.07408
3.09054 0.201417 1.33784
0.772155 0.63056 4.51313
3.67019 0.507174 2.01559
3.43224 0.738073 9.67176
3.08129 0.457679 2.11631
7.27583 0.207106 0.533055
3.08763 2.92719 0.778565
1.1068 4.74758 8.71854
3.08326 0.420005 1.63089
0.431997 5.99176 6.29444
7.83312 7.07749 7.53287
8.30628 4.06237 4.97096
8.93238 7.78592 7.45867
3.41894 0.753962 9.56827
2.04953 0.553934 8.99654
3.3132 0.434176 1.54608
3.54605 0.417305 1.08582
7.55585 0.569532 0.371704
3.06434 0.0513937 1.24518
3.64602 0.20203 2.11822
6.68581 7.77704 8.57819
3.26042 0.537624 2.02796
3.31477 0.270385 1.7985
0.608976 3.09414 3.25563
1.89067 0.0732264 9.57574
3.63488 0.384244 1.66426
3.13458 0.101043 1.51007
2.90798 0.920095 4.37423
3.4435 0.992234 9.793
3.94549 0.660396 1.5096
3.23368 0.127758 1.61491
7.523 0.299353 0.725853
1.97024 0.480945 9.05309
1.81373 0.687601 8.86814
3.14117 0.595368 1.28122
2.79249 0.383619 2.17147
7.7902 0.313282 0.829566
2.24 0.515925 8.85936
5.10893 9.5716 0.885863
1.6186 0.658865 9.17417
4.48391 2.04264 8.85062
7.57161 0.305296 0.760058
0.649556 0.687215 6.77418
0.717753 0.669676 7.53118
2.9204 0.149142 1.36158
3.55951 0.613324 1.81617
7.61744 0.133515 0.738114
2.22782 0.502052 8.5094
1.9086 0.576763 9.03719
4.19268 0.724511 8.80567
2.9151 0.565521 1.33362
3.35972 0.0259384 1.44275
3.17651 0.419625 1.93522
4.20367 0.665251 8.83669
2.85013 0.460748 1.72535
5.20308 0.686519 4.12188
2.09247 0.458431 9.19795
3.28884 0.436588 1.92537
3.22795 0.200181 1.41182
5.81124 3.28825 0.104189
8.46 0.268998 2.11794
3.28341 0.397898 1.56134
3.38665 0.540878 1.7877
1.74452 0.500193 9.0399
3.5383 0.344643 1.96802
3.16358 1.37416 4.21229
2.04989 0.559892 8.83551
3.28647 0.385716 2.03186
1.85185 0.385294 8.37469
6.46659 0.957028 1.87069
7.36665 0.159904 0.600733
POINT_DATA 400
SCALARS particleColor float 3
LOOKUP_TABLE default
1 5.96046e-08 0
0.665718 1 0.334282
0.107766 1 0.892234
1 0.715836 0
1 5.96046e-08 0
0.110117 1 0.889883
1 0.287026 0
1 5.96046e-08 0
1 0.919855 0
1 5.96046e-08 0
0.949025 1 0.0509748
1 0.148007 0
1 0.251709 0
1 0.976661 0
1 0.462146 0
0.436588 1 0.563412
1 0.985494 0
0 0.530209 1
0.184324 1 0.815676
1 5.96046e-08 0
0 0.578657 1
1 5.96046e-08 0
1 5.96046e-08 0
0.71704 1 0.28296
1 0.173611 0
0 0.790372 1
0 0.844238 1
0.919349 1 0.0806507
1 0.608737 0
0.190162 1 0.809838
1 5.96046e-08 0
0.819173 1 0.180827
1 5.96046e-08 0
0.926388 1 0.0736121
1 0.563653 0
1 5.96046e-08 0
0.468924 1 0.531076
0 0.710317 1
0 0.805775 1
1 5.96046e-08 0
1 0.938543 0
1 5.96046e-08 0
1 0.969293 0
0.72978 1 0.27022
0 0.954534 1
1 5.96046e-08 0
0.668315 1 0.331685
1 5.96046e-08 0
1 0.0179581 0
1 0.907086 0
1 0.279883 0
0.907757 1 0.0922434
0.245885 1 0.754115
1 5.96046e-08 0
1 5.96046e-08 0
0.114079 1 0.885921
0.41091 1 0.58909
0.579005 1 0.420995
1 5.96046e-08 0
1 0.991289 0
1 5.96046e-08 0
1 5.96046e-08 0
0.635903 1 0.364097
0 0.75487 1
0.697498 1 0.302502
1 5.96046e-08 0
0.227508 1 0.772492
1 5.96046e-08 0
1 0.653545 0
1 5.96046e-08 0
1 5.96046e-08 0
1 0.774059 0
1 5.96046e-08 0
0 0.706894 1
1 5.96046e-08 0
1 5.96046e-08 0
1 5.96046e-08 0
1 0.285795 0
0 0.994855 1
1 0.628705 0
0 0.778921 1
0.945443 1 0.0545574
0.278835 1 0.721165
1 5.96046e-08 0
0.263375 1 0.736625
1 0.678478 0
1 5.96046e-08 0
0.397988 1 0.602012
0.183433 1 0.816567
1 5.96046e-08 0
0 0.527192 1
0.790321 1 0.209679
1 0.239008 0
1 5.96046e-08 0
1 0.487453 0
0.572668 1 0.427332
1 0.936866 0
0 0.39227 1
0.122141 1 0.877859
1 0.848767 0
0 0.757753 1
0.121002 1 0.878998
0.568221 1 0.431779
1 0.999316 0
1 5.96046e-08 0
1 0.53418 0
1 0.79505 0
0 0.949456 1
1 0.875468 0
1 0.879244 0
1 0.659156 0
1 0.542868 0
1 5.96046e-08 0
1 5.96046e-08 0
0 0.579805 1
1 0.686889 0
0 0.657075 1
0.328921 1 0.671079
0.56094 1 0.43906
1 0.145399 0
1 5.96046e-08 0
1 5.96046e-08 0
1 5.96046e-08 0
0.610696 1 0.389304
0.496862 1 0.503138
0 0.322192 1
0.743364 1 0.256636
0 0.984918 1
0.483462 1 0.516538
1 0.982724 0
1 5.96046e-08 0
1 0.276299 0
1 5.96046e-08 0
1 0.501663 0
0.461715 1 0.538285
0.444682 1 0.555318
0.271326 1 0.728674
0.349072 1 0.650928
0.56017 1 0.43983
1 0.71874 0
0 0.738943 1
0.530516 1 0.469484
1 5.96046e-08 0
1 5.96046e-08 0
0 0.98332 1
0.324395 1 0.675605
0.3379 1 0.6621
1 0.776127 0
0.74283 1 0.25717
1 5.96046e-08 0
0 0.398207 1
1 5.96046e-08 0
1 5.96046e-08 0
0 0.783753 1
1 5.96046e-08 0
0.17277 1 0.827229
0 0.951553 1
1 0.993538 0
1 5.96046e-08 0
1 5.96046e-08 0
1 5.96046e-08 0
0.150006 1 0.849994
1 5.96046e-08 0
1 5.96046e-08 0
0.555281 1 0.444719
1 5.96046e-08 0
0 0.497115 1
1 0.646774 0
0.900901 1 0.0990994
1 0.825912 0
0 0.683703 1
1 5.96046e-08 0
0 0.619012 1
0.104537 1 0.895463
0 0.672077 1
1 0.375674 0
0.181694 1 0.818306
0.539807 1 0.460193
1 0.281218 0
1 5.96046e-08 0
0 0.614116 1
0.8572 1 0.1428
0.367424 1 0.632576
0 0.877817 1
1 5.96046e-08 0
1 0.000106514 0
0 0.876003 1
0.0880843 1 0.911916
0 0.948185 1
0 0.881706 1
0 0.64963 1
0 0.885936 1
0.20952 1 0.79048
1 5.96046e-08 0
1 0.532702 0
0 0.520348 1
1 0.204733 0
1 0.748783 0
0 0.892262 1
0 0.619627 1
0 0.597747 1
0.935102 1 0.0648984
1 5.96046e-08 0
0 0.252676 1
1 5.96046e-08 0
0.326173 1 0.673827
0 0.409159 1
1 0.666278 0
1 0.762805 0
1 5.96046e-08 0
0 0.641176 1
0 0.470691 1
1 5.96046e-08 0
1 5.96046e-08 0
0.187363 1 0.812637
0 0.743329 1
0 0.672271 1
0 0.455639 1
0.0770818 1 0.922918
0 0.170638 1
0 0.68514 1
0.0572017 1 0.942798
1 0.901037 0
0.0446828 1 0.955317
1 0.613502 0
1 5.96046e-08 0
0.882357 1 0.117643
0 0.797757 1
0 0.488558 1
1 5.96046e-08 0
1 5.96046e-08 0
1 5.96046e-08 0
1 5.96046e-08 0
0 0.407701 1
0.0426989 1 0.957301
0.603971 1 0.396029
1 5.96046e-08 0
1 0.0862929 0
0 0.427449 1
1 5.96046e-08 0
0 0.407278 1
0.0146569 1 0.985343
0 0.56361 1
0 0.372208 1
0 0.864024 1
0.404677 1 0.595323
1 5.96046e-08 0
0 0.73049 1
0.677785 1 0.322215
0.475899 1 0.524101
0 0.851084 1
1 5.96046e-08 0
0.122122 1 0.877878
1 5.96046e-08 0
1 5.96046e-08 0
0 0.820809 1
1 0.90731 0
0 0.413661 1
0 0.721584 1
0 0.500109 1
0 0.350519 1
1 5.96046e-08 0
1 0.421734 0
0.00691567 1 0.993084
0.116294 1 0.883706
1 5.96046e-08 0
0 0.312913 1
0 0.364293 1
0.885385 1 0.114615
0 0.809083 1
0 0.686468 1
0 0.656795 1
1 5.96046e-08 0
1 5.96046e-08 0
0 0.600867 1
0.692106 1 0.307894
0 0.436786 1
1 5.96046e-08 0
1 5.96046e-08 0
0 0.337145 1
0 0.953804 1
0 0.544723 1
1 0.762261 0
0.00181008 1 0.99819
1 0.527658 0
1 0.0264018 0
0 0.560533 1
1 0.267391 0
1 5.96046e-08 0
1 5.96046e-08 0
1 0.982052 0
1 5.96046e-08 0
0 0.437974 1
0.281766 1 0.718234
0 0.837123 1
0 0.146942 1
0 0.489908 1
0 0.872036 1
0.797925 1 0.202075
0 0.755757 1
1 5.96046e-08 0
0.191622 1 0.808378
0.108655 1 0.891345
0.989188 1 0.0108125
0 0.783908 1
0 0.391522 1
0 0.461929 1
0 0.866511 1
0.653003 1 0.346997
0 0.813206 1
1 0.388171 0
1 0.226799 0
1 0.887747 0
0 0.490718 1
1 0.371891 0
0.414653 1 0.585347
0 0.793082 1
0.0736056 1 0.926394
0.422399 1 0.577601
0.0692914 1 0.930709
0 0.862554 1
1 5.96046e-08 0
0 0.783249 1
0 0.919581 1
0 0.3475 1
1 0.763984 0
0 0.47072 1
1 0.533405 0
1 5.96046e-08 0
0 0.280708 1
0.371189 1 0.628811
0 0.841012 1
0 0.867124 1
0.0795966 1 0.920403
0 0.419556 1
1 0.55273 0
0 0.869541 1
0 0.397137 1
0.590861 1 0.409139
1 0.983745 0
0.69975 1 0.30025
0.172745 1 0.827255
0 0.358102 1
0 0.642414 1
0 0.500783 1
0 0.211343 1
0 0.436344 1
0 0.138447 1
0 0.513402 1
0.392171 1 0.607829
0.0872427 1 0.912757
0 0.665176 1
1 0.911064 0
0 0.55464 1
0 0.835948 1
0 0.817192 1
0 0.743318 1
0 0.441227 1
0 0.769648 1
0 0.68633 1
0 0.55428 1
0 0.514019 1
0 0.575755 1
0 0.724671 1
0 0.594308 1
0.105398 1 0.894602
0 0.674857 1
1 0.599398 0
0 0.440608 1
1 5.96046e-08 0
0 0.595803 1
1 0.873329 0
0 0.576152 1
0 0.56724 1
0 0.744208 1
0 0.836796 1
0 0.756924 1
0.279486 1 0.720514
0 0.551015 1
0 0.357646 1
0 0.635074 1
0 0.956349 1
0 0.299878 1
0 0.678406 1
1 0.86033 0
0 0.612629 1
0 0.546393 1
0 0.179637 1
0.698985 1 0.301015
0.166948 1 0.833052
0.00385669 1 0.996143
0 0.752759 1
0.290395 1 0.709605
0 0.548812 1
0 0.920131 1
0 0.806562 1
0 0.42626 1
1 0.883593 0
0 0.531647 1
0 0.892611 1
