# vtk DataFile Version 3.0
Particle simulation
ASCII
DATASET POLYDATA
POINTS 400 float
1.28883 0.0367131 0.947867
0.859574 0.223853 0.66194
2.72477 0.0941938 3.69471
1.02481 0.129489 0.29516
2.78558 0.448583 3.83433
0.459128 0.109516 2.93059
2.0199 0.614654 2.59764
1.22773 0.601934 3.86505
3.71581 0.713835 1.83287
4.54686 0.411497 0.122694
1.34214 0.0652786 0.930738
0.927609 0.268378 0.698822
2.636 0.0638831 3.69556
1.02926 0.124096 0.265263
2.77463 0.418826 3.88691
0.474238 0.115322 2.95544
1.21655 0.31091 3.13413
0.526194 0 2.64016
3.66379 0.759728 1.69016
4.52139 0.402054 0.134965
4.66593 0.210827 0.883465
4.23589 0.0356711 0.769494
2.99343 0.261722 4.1885
4.59366 0.287051 0.379156
3.2561 0.536328 4.37475
0.98397 0.07514 2.7224
4.60973 0.0330971 4.06232
0.34493 0.378192 2.39817
2.03693 0.113606 1.93568
0.911709 0.289264 0.0971893
4.62088 0.0934212 0.870279
4.23885 0.108274 0.726232
2.8279 0.306857 4.08619
4.58236 0.285427 0.412668
3.23268 0.536156 4.45881
1.00337 0.0833674 2.70933
4.51857 0.0363134 4.09873
0.352543 0.454382 2.48759
1.90284 0.274786 1.95951
0.709797 0.133467 0.201933
1.41427 0.290496 1.07444
2.78105 0.483844 1.82973
2.89724 0 4.67658
4.00559 0.327617 0.598252
2.46457 0.146791 4.43699
3.18504 0.371033 1.44304
3.86103 0.957756 2.82366
3.09067 0.104088 4.68834
2.10094 0.23258 2.01292
1.13311 0 2.57584
1.40914 0.294291 1.08496
2.7612 0.488424 1.81244
2.93439 0.0312668 4.70346
4.00268 0.335572 0.615116
2.43626 0.105778 4.42315
3.15942 0.390238 1.48929
2.52901 0.319065 4.27464
3.09003 0.0979583 4.65854
2.11265 0.249177 2.04216
1.13802 0.0043202 2.59544
3.40768 0.0113908 0.837035
1.07649 0.0504121 0.285799
2.40599 0.241197 4.07896
3.54301 0.452943 0.307383
2.66034 0.530196 4.72539
2.59346 0.267889 2.91526
2.33347 0.195934 1.98391
1.08021 0.0416701 2.71179
2.06887 0.204126 2.21604
1.31452 0.115719 2.45522
3.40672 0 0.844781
0.929001 0.098928 0.223862
2.31946 0.0382898 3.17563
3.53247 0.437362 0.247352
2.83256 0.586671 4.68499
2.53875 0.287499 2.87464
2.34269 0.197606 1.96562
1.41435 0.368733 2.35124
2.06079 0.162967 2.25398
1.30963 0.104874 2.45922
0.863608 0.287812 0.831599
2.94405 0.454519 1.91839
0.416646 0.0236931 3.3863
3.95346 0.42171 0.695793
3.45647 0.310068 4.28469
1.66572 0.241498 3.65676
2.54242 0 4.5582
1.18306 0 2.98495
4.20008 0.463788 2.86898
3.54876 1.00114 1.4753
0.909614 0.178165 0.890136
2.93517 0.455899 1.97039
0.432105 0.0126798 3.32335
3.91781 0.43468 0.70049
3.45414 0.304735 4.29165
1.62756 0.221137 3.64849
2.65689 0 4.57399
1.35195 0.0429075 2.9021
4.23965 0.463566 2.82072
3.57937 0.986645 1.45626
4.30841 0.395253 0.751976
2.52022 0 0.364484
1.60965 0.130919 3.0967
3.07822 0.0919771 0.643835
1.73519 0.485942 3.52497
1.79086 0.280922 3.32093
1.04001 0.0677051 2.44411
1.76811 0.553696 2.53334
2.04954 0.155248 2.10287
3.59351 1.01156 1.33828
4.27319 0.359251 0.761835
2.46527 0.0858957 0.322241
1.80397 0.295959 2.30441
3.10837 0.11634 0.678347
1.55081 0.368614 3.27669
1.80252 0.296559 3.35149
1.06385 0.0702032 2.40562
1.86907 0.533096 2.25789
2.04284 0.147214 2.06055
3.51418 0.771539 1.84616
2.68339 0.120669 0.939956
3.19983 0.577391 1.70268
4.60437 0.832405 4.17309
2.38881 0.181793 0.706556
2.9407 0.665844 3.8701
3.48119 0.214587 1.35382
1.98263 0.929584 4.09431
3.90524 0.325273 0.433798
2.79982 0.704141 3.62017
3.6277 0.33846 1.67647
2.67007 0.120509 0.965682
3.18309 0.533331 1.74183
4.4762 0.882482 4.15809
2.31136 0.186347 0.721996
2.96822 0.656268 3.82399
3.06849 0.315047 1.29817
1.91093 0.360266 4.06926
3.85899 0.342 0.371442
2.80826 0.717025 3.59869
3.63698 0.0675996 1.75498
1.10602 0.079079 1.08319
0.354554 0.414563 0.493001
0.46719 0 3.88781
0.0847077 0.134974 0.639436
0.548321 0.228628 3.5959
1.8652 0.443138 2.71698
4.35857 0 4.08608
0.537836 0.317115 2.84702
0.773895 0.0448099 3.07377
2.20185 0.620947 3.28992
1.10329 0.0862922 1.08594
0.370526 0.408853 0.546906
0.174315 0 3.73017
0.0619367 0.124842 0.63855
0.583179 0.201401 3.56284
1.86038 0.454798 2.71558
4.37535 0 4.08963
0.527448 0.314367 2.72385
0.860786 0.0702247 3.11536
2.20598 0.67034 3.37886
0 0.417155 0.522388
2.83306 0.1998 0.864596
3.84795 0.249523 4.54242
0.749558 0.0542471 0.70629
0.351257 0.454399 3.56642
0.353415 0.0947966 3.77548
2.86511 0.0547459 4.71484
0 0.0540003 2.60956
0.309857 0.32834 2.69923
2.6004 0.284624 0.211442
0 0.416566 0.510226
2.70057 0.300536 0.84269
3.79354 0.253668 4.56535
0.865972 0.0518568 0.601593
0.346904 0.478862 3.57261
0.357884 0.0972728 3.70865
2.89377 0.155118 4.67249
0.0751559 0 2.55293
0.349123 0.181288 2.72533
2.62389 0.291051 0.220424
2.51951 0.606659 0.693954
0.954792 0.277268 0.494193
4.24464 0.599753 4.39377
0.463031 0.503035 0.970618
2.86673 0.803441 3.67669
3.0272 0.229875 4.54116
1.27424 0.240325 3.34306
3.60287 0.188105 2.23246
3.56202 0.192971 2.39137
3.2364 0.377181 2.3871
2.50513 0.61632 0.70005
1.05228 0.267784 0.594975
3.9751 0.384758 4.56415
0.443579 0.511874 0.984224
2.87386 0.728526 3.70902
2.96593 0.0648783 4.51799
1.24724 0.223234 3.32388
3.50985 0.199923 2.08752
3.63516 0.187034 2.411
3.25175 0.380787 2.31924
1.36246 0.192866 0.889362
1.47297 0 0.465426
2.70895 0.341538 3.84589
0.973398 0.245642 0.18441
2.54573 0.0986907 4.06992
1.47759 0.240155 2.76133
1.36085 0.359421 2.62344
0.461852 0.613787 3.05082
1.36555 0.095975 2.5774
4.73539 0.112378 0.17607
1.36641 0.204243 0.898662
1.57047 0.0505217 0.664303
2.54265 0.32923 4.0119
0.97706 0.258846 0.142333
2.51872 0.097437 4.0896
1.511 0.263103 2.77515
1.3618 0.360145 2.62881
1.03746 0.34246 2.57241
1.39648 0.134821 2.5511
4.73417 0.108264 0.268468
3.32982 0.191629 0.60307
3.37532 0.281486 1.53588
3.50667 0.0563611 4.59633
2.8324 0.111419 0.43387
2.3772 0.0434775 3.89694
1.4618 0.242072 3.57268
4.672 0.785209 4.11436
0.562888 0.308393 2.81764
3.69951 0.395347 2.27897
0.548295 0.514905 2.81712
3.32451 0.175927 0.599966
3.51141 0.293899 1.67881
3.47743 0.0108068 4.55006
2.83578 0.0784602 0.395597
2.36835 0.0484081 3.89235
1.43184 0.228049 3.55718
4.66373 0.783652 4.10772
0.520772 0.216712 2.8325
3.68701 0.413248 2.10852
0.492692 0.483039 2.87614
1.24625 0.0439347 0.499678
4.26405 0.309324 2.29094
3.54449 0.653117 4.06439
4.1567 0.19802 0.65668
2.80043 0.191191 4.33277
3.23747 0.290969 3.08114
1.41044 0.599733 2.25353
3.14405 0.564525 0.800197
3.5433 0.336058 2.37242
1.1407 0.107943 2.50351
1.27744 0.0448815 0.49939
4.17335 0.33911 2.19546
3.57912 0.595025 4.11567
4.15639 0.0918023 0.611804
2.74145 0.224113 4.28633
3.28789 0.343414 2.98497
3.59853 0.163235 1.67099
3.08077 0.597247 0.588426
3.55119 0.339894 2.34779
1.11626 0.125346 2.56377
3.68791 0.988318 1.13059
1.83893 0.120008 0.141924
2.03039 0.318983 2.23327
3.55361 0.178969 0.34785
2.45097 0.0640854 4.61397
2.19508 0.794263 2.85826
3.31818 0.801675 1.62876
2.76698 0.0740795 4.66074
2.26623 0.324018 4.45539
0.256044 0.459251 2.89661
3.73434 0.988765 1.12406
1.69492 0.0784501 0.171351
2.7403 0.474816 2.49237
3.60497 0.167945 0.355835
2.23182 0.115845 4.45634
2.36871 0.797827 3.21213
3.34597 0.877011 1.56146
1.16372 0.462793 3.28136
2.2362 0.298568 4.47418
0.299672 0.482514 2.93605
4.56753 0.101769 0.88334
4.01854 0.340858 2.19436
1.85121 0.574342 4.41473
3.58625 0.0186723 0.530871
2.80583 0.276688 4.36935
1.28634 0.21142 3.97223
1.58935 0.57425 3.86842
1.10631 0.368754 3.20701
3.4563 0.340473 1.40705
4.13461 0.377571 2.22639
4.47566 0.159603 0.868017
4.05635 0.330228 2.2187
1.80888 0.534391 4.46707
3.66452 0.0101625 0.52096
2.76892 0.286687 4.53292
1.23507 0.21587 3.97993
1.63504 0.565231 3.87086
1.02591 0.294465 3.34918
3.39075 0.371302 1.41514
3.94011 0.385462 2.33217
4.07781 0 1.0646
0.57508 0.327575 0.410484
1.33643 0.505151 4.45467
0.128694 0.250254 0.26098
0.517361 0.303184 3.13095
3.76854 0.204732 2.55744
1.33597 0.491829 2.52445
3.96818 0.298191 2.73491
2.22585 0.555105 2.32052
3.85964 0.299501 2.67544
4.01883 0.0776274 1.09373
0.599408 0.344327 0.400271
1.47157 0.444878 4.48772
0.366483 0.270056 0.262546
0.537948 0.393478 3.06266
3.63647 0.139279 2.57188
1.44483 0.54719 2.52238
1.92571 0.60235 1.8632
2.19311 0.584836 2.37911
3.93324 0.313129 2.63153
2.42058 0.0606336 0.951171
2.76887 0.80919 0.63224
2.07001 0.308788 4.87232
2.65762 0.918619 0.639963
3.77451 0.0847075 1.70084
2.49643 0.746866 2.86316
1.45542 0.520024 3.36458
3.3843 0.194744 1.90568
3.05964 0.257854 2.48823
3.52855 0.483271 1.84271
2.40543 0.0528698 0.95038
2.69998 0.673005 0.463712
2.1602 0.307807 4.87834
2.65697 0.914897 0.628712
3.78346 0.192187 1.6975
2.8203 0.60648 2.56794
1.45377 0.538168 3.34255
3.40898 0.137126 1.94831
3.11235 0.205842 2.45245
3.50065 0.433104 1.8955
0.754823 0.331588 0.838006
1.15707 0.0246035 0.725948
2.17439 0.470375 4.22103
0.742045 0.303695 0.408874
1.02243 0.356616 3.11587
1.68888 0.544942 3.18054
1.94387 0.625259 1.93284
0.401957 0.321508 2.79909
1.36568 0.498026 3.19003
2.08664 0.683684 3.23954
0.795525 0.325901 0.838632
1.18681 0.0213467 0.70124
2.13558 0.51272 4.08136
0.735768 0.295164 0.438925
0.983948 0.338311 3.1474
1.75933 0.54583 3.16882
1.97992 0.614261 1.94007
0.543798 0.301577 2.53449
1.39735 0.478031 3.24295
2.18593 0.664823 3.26703
0.364218 0 1.14967
0.0932655 0.276912 0.6122
3.78908 0.244733 4.58039
2.65661 0.36179 0.498748
0.202178 0.151739 3.62556
0.260602 0.0884829 3.73662
2.84969 0.360163 4.54174
0.0745693 0.274338 2.46545
0.252467 0.180555 2.43165
2.64329 0.172522 0.074905
0.357162 0 1.17455
0.0920741 0.285142 0.589901
3.79905 0.259652 4.58497
2.67162 0.358043 0.52114
0.0908893 0.111614 3.60879
0.284089 0.0619876 3.74045
2.87866 0.405188 4.58048
0.0534029 0.276397 2.42706
0.231601 0.150968 2.45378
2.58983 0.137219 0.0674556
2.52139 0.151273 1.05818
0.96101 0.325904 0.617078
3.89563 0.251998 4.42253
1.15351 0.205726 0.507965
3.38988 0.333922 1.88637
3.8668 0.250277 4.20267
1.79469 0.400772 4.0367
3.457 0.213145 2.04116
3.39832 0.479227 1.99468
3.57125 0.429759 1.79767
2.51065 0.122221 1.0777
0.952123 0.328749 0.606297
3.89149 0.235012 4.44524
1.26534 0.0894232 0.582005
3.40879 0.350701 1.92545
3.89004 0.24719 4.18154
1.8065 0.389015 4.01815
3.49998 0.171324 2.04446
3.46155 0.478722 1.94689
3.55741 0.43186 1.79032
POINT_DATA 400
SCALARS particleColor float 3
LOOKUP_TABLE default
0 0.513153 1
0 0.762018 1
0 0.523297 1
0 0.599355 1
0 0.742768 1
0 0.922582 1
0.0739789 1 0.926021
0 0.94454 1
0 0.723264 1
0 0.833909 1
0 0.484199 1
0 0.649204 1
0 0.407102 1
0 0.421124 1
0 0.791175 1
0 0.982631 1
0 0.734121 1
0 0.748852 1
0 0.585266 1
0 0.58214 1
0.142331 1 0.857669
0.209256 1 0.790744
0 0.422215 1
0 0.729857 1
0 0.951797 1
0 0.4682 1
0 0.330915 1
0 0.910924 1
0 0.486213 1
0 0.839897 1
0 0.986103 1
0.587474 1 0.412526
0 0.269137 1
0 0.633973 1
0 0.886716 1
0 0.50571 1
0 0.384555 1
0 0.712369 1
0 0.797412 1
0 0.810539 1
0 0.493816 1
0 0.662356 1
0.0771207 1 0.922879
0 0.578397 1
0 0.505167 1
0 0.458685 1
0 0.246817 1
0 0.72083 1
0 0.385771 1
0 0.841304 1
0 0.399432 1
0 0.566195 1
0.012921 1 0.987079
0 0.637037 1
0 0.562017 1
0 0.435712 1
0 0.394858 1
0 0.630607 1
0 0.298808 1
0 0.997469 1
0 0.921035 1
0 0.694369 1
0.399685 1 0.600315
0 0.44919 1
0 0.908828 1
0 0.792455 1
0.169674 1 0.830326
0 0.493947 1
0 0.338263 1
0 0.552591 1
0 0.783127 1
0 0.565382 1
0 0.814497 1
0 0.427039 1
0 0.784282 1
0 0.813558 1
0.132727 1 0.867273
0.168894 1 0.831106
0 0.233836 1
0 0.478739 1
0 0.699453 1
0 0.228281 1
0.448471 1 0.551529
0 0.307437 1
0 0.636563 1
0 0.620722 1
0 0.376305 1
0 0.64397 1
0 0.747701 1
0 0.847703 1
0 0.690296 1
0 0.326444 1
0.0963468 1 0.903653
0 0.349837 1
0 0.599122 1
0 0.761261 1
0 0.620815 1
0 0.621276 1
0 0.703816 1
0.0131695 1 0.986831
0 0.7238 1
0 0.54971 1
0 0.963587 1
0 0.847733 1
0 0.66659 1
0 0.635446 1
0 0.591797 1
0 0.80054 1
0 0.297529 1
0 0.786103 1
0 0.977969 1
0 0.625533 1
0.120692 1 0.879308
0 0.737068 1
0 0.749672 1
0 0.702277 1
0 0.676754 1
0 0.865656 1
0 0.282892 1
0.00792236 1 0.992078
0 0.487854 1
0 0.714105 1
0.0603459 1 0.939654
0 0.949371 1
0 0.63167 1
0 0.642087 1
0.027435 1 0.972565
0.0979297 1 0.90207
0 0.609013 1
0 0.893145 1
0 0.405973 1
0 0.548157 1
0 0.793093 1
0.143398 1 0.856602
0 0.740005 1
0 0.753594 1
0.0883958 1 0.911604
0.156587 1 0.843413
0 0.857476 1
0 0.74908 1
0 0.823477 1
0 0.47965 1
0 0.858917 1
0 0.592281 1
0 0.489542 1
0 0.833869 1
0 0.751084 1
0 0.860345 1
0 0.115005 1
0 0.504219 1
0 0.849802 1
0 0.516709 1
0 0.956352 1
0 0.845264 1
0 0.44735 1
0 0.851851 1
0 0.612654 1
0 0.924322 1
0 0.203156 1
0 0.739581 1
0 0.435534 1
0 0.780159 1
0 0.604817 1
0.523079 1 0.476921
0 0.859043 1
0 0.962574 1
0 0.389964 1
0 0.446454 1
0.0748193 1 0.925181
0 0.784205 1
0 0.382368 1
0 0.662475 1
0 0.618072 1
0.515362 1 0.484638
0 0.936386 1
0.0285464 1 0.971454
0 0.514358 1
0 0.553696 1
0.107837 1 0.892163
0 0.882456 1
0 0.568601 1
0 0.521441 1
0 0.883694 1
0 0.554394 1
0 0.517474 1
0 0.816583 1
0.121374 1 0.878626
0 0.874106 1
0 0.416846 1
0 0.556296 1
0 0.638936 1
0 0.41413 1
0 0.64868 1
0 0.39092 1
0 0.587022 1
0 0.675643 1
0.0391102 1 0.96089
0 0.733927 1
0 0.467346 1
0 0.590966 1
0 0.361811 1
0 0.401183 1
0 0.908655 1
0 0.509945 1
0 0.911441 1
0.107701 1 0.892299
0 0.0634562 1
0 0.273266 1
0 0.878216 1
0 0.564644 1
0 0.288112 1
0 0.525203 1
0 0.69089 1
0 0.577407 1
0 0.959068 1
0.193395 1 0.806605
0 0.0652234 1
0 0.610894 1
0 0.850259 1
0 0.666932 1
0 0.391356 1
0 0.886087 1
0 0.65122 1
0 0.365886 1
0 0.409575 1
0 0.246241 1
0 0.484655 1
0 0.523302 1
0 0.551671 1
0 0.44908 1
0 0.539736 1
0.000484965 1 0.999515
0 0.74806 1
0 0.286632 1
0 0.492301 1
0 0.235652 1
0 0.469688 1
0 0.675719 1
0 0.679811 1
0 0.462819 1
0 0.533125 1
0 0.572625 1
0 0.189132 1
0 0.871492 1
0 0.539845 1
0 0.557726 1
0 0.266095 1
0.0215314 1 0.978469
0 0.759604 1
0 0.878607 1
0 0.472365 1
0 0.744773 1
0 0.209976 1
0 0.756324 1
0 0.627341 1
0 0.824667 1
0.0151324 1 0.984868
0.0989153 1 0.901085
0 0.665579 1
0 0.97866 1
0 0.789705 1
0 0.610172 1
0.0455086 1 0.954491
0 0.988055 1
0 0.591037 1
0 0.463996 1
0 0.932093 1
0 0.790523 1
0 0.78032 1
0 0.817223 1
0 0.795544 1
0 0.630833 1
0 0.870046 1
0.113312 1 0.886688
0 0.551684 1
0.0389563 1 0.961044
0.0535888 1 0.946411
0 0.953924 1
0 0.760051 1
0 0.647355 1
0 0.431184 1
0 0.560458 1
0 0.507404 1
0 0.69257 1
0.127612 1 0.872388
0 0.61681 1
0 0.916502 1
0 0.561714 1
0 0.873309 1
0 0.984442 1
0 0.239736 1
0 0.530074 1
0 0.190164 1
0 0.637895 1
0 0.725696 1
0 0.638609 1
0 0.782073 1
0 0.719828 1
0 0.686396 1
0 0.335922 1
0 0.67589 1
0 0.596174 1
0 0.479418 1
0.153069 1 0.846931
0 0.623399 1
0 0.669485 1
0 0.345364 1
0 0.338197 1
0 0.348095 1
0 0.53367 1
0 0.586089 1
0 0.737973 1
0 0.793235 1
0 0.884157 1
0 0.658266 1
0 0.827801 1
0 0.598315 1
0 0.469632 1
0 0.426895 1
0 0.840332 1
0 0.631447 1
0 0.778064 1
0 0.585121 1
0 0.45405 1
0.0580867 1 0.941913
0 0.768264 1
0 0.851651 1
0 0.688936 1
0 0.391704 1
0.0186166 1 0.981383
0 0.336871 1
0 0.844896 1
0 0.710291 1
0 0.442579 1
0.0710975 1 0.928903
0 0.641198 1
0 0.829671 1
0 0.580661 1
0 0.505279 1
0 0.946711 1
0 0.414023 1
0 0.768844 1
0 0.956769 1
0.0414091 1 0.958591
0 0.504082 1
0 0.707686 1
0 0.36375 1
0 0.545142 1
0 0.343852 1
0 0.694219 1
0 0.362495 1
0 0.679196 1
0 0.86318 1
0 0.92723 1
0 0.595857 1
0 0.574876 1
0 0.443013 1
0 0.636784 1
0 0.312012 1
0 0.918958 1
0 0.165973 1
0 0.973126 1
0 0.740433 1
0 0.775946 1
0 0.828457 1
0 0.762832 1
0 0.641704 1
0 0.747853 1
0 0.973018 1
0 0.377945 1
0 0.137814 1
0 0.963721 1
0 0.823951 1
0 0.770638 1
0 0.804886 1
0 0.77748 1
0 0.662037 1
0 0.707266 1
0.0494978 1 0.950502
0 0.249669 1
0 0.459304 1
0 0.869459 1
0 0.731685 1
0 0.917287 1
0 0.955703 1
0 0.994305 1
0 0.528676 1
0 0.71662 1
0.145361 1 0.854639
0 0.824381 1
0 0.496481 1
0 0.837834 1
0 0.687022 1
0 0.929096 1
0 0.961387 1
0.0441236 1 0.955876
0 0.504157 1
0 0.592267 1
0.135302 1 0.864698
0 0.758915 1
