# vtk DataFile Version 3.0
Particle simulation
ASCII
DATASET POLYDATA
POINTS 400 float
1.03351 0.681617 0.0944799
1.63299 0.940001 0.913038
0.803422 0.769701 3.98111
1.36933 0.778417 0.712796
0.790342 0.703396 3.86682
0.503824 0.365254 2.39886
0.870885 0.386175 3.5709
0.882473 0.259063 1.89041
2.50158 0.940415 2.90568
2.88214 1.01248 1.56186
1.02719 0.679498 0.104796
1.66414 0.912729 0.923934
0.811396 0.78347 3.97706
1.34338 0.786488 0.750791
0.810459 0.759883 3.88665
0.476644 0.387404 2.38458
0.959669 0.490814 3.68824
0.764303 0.357828 2.2096
2.51775 0.887666 2.88263
2.83755 0.978026 1.58849
1.53413 0.828639 0.284894
1.79614 1.0199 0.603715
1.59093 0.877536 4.18819
2.46646 0.973791 0.505807
1.63254 0.955299 3.76896
1.20855 0.837314 2.41365
2.35052 0.930254 3.90628
0.887846 0.391355 2.00244
1.95019 0.900243 3.11071
0.958841 1.14761 1.97146
1.54349 0.785727 0.302052
1.89955 0.987534 0.733484
1.54856 0.888285 4.08927
2.45276 0.974135 0.497802
1.67266 0.951504 3.72948
1.19766 0.873285 2.46141
2.37887 0.936622 3.87576
0.903242 0.413779 2.08573
1.73079 0.929967 3.12416
0.949723 1.15461 1.97389
1.08437 0.950337 0.234099
3.36237 0.765869 1.16729
3.61876 0.775026 3.11669
3.55518 0.930903 0.432416
2.98251 0.795223 4.52037
3.10217 0.872101 1.89992
2.96847 0.902284 3.1401
3.04511 0.874229 3.79059
1.7772 0.901092 2.97536
0.0490611 0.968598 2.41422
1.09268 0.96415 0.249916
3.3623 0.752059 1.18986
3.61637 0.796573 3.13829
3.55207 0.918916 0.436373
2.98813 0.84 4.50718
3.07426 0.880279 1.92938
3.04587 0.871184 4.3656
2.98007 0.88726 3.82391
1.75802 0.909781 2.99908
0.0784682 0.962731 2.33178
1.23465 1.02054 0.232178
0.751352 0.887339 1.09427
0.191866 0.962235 2.84169
1.32035 0.876826 0.71779
1.11625 0.965989 3.48392
0.934078 0.524933 2.43488
1.19127 0.617296 3.57583
0.0679866 0.932382 2.51901
1.64581 0.89345 3.16314
0.277318 1.01901 2.24328
1.24453 1.07061 0.259025
0.690479 0.869684 1.0691
0.21695 0.98879 3.07652
1.32069 0.900248 0.656209
1.07652 0.974752 3.45777
0.950633 0.516704 2.44442
1.18924 0.623727 3.54785
0.0593897 0.949083 2.85681
1.68294 0.903435 3.13103
0.267482 1.01552 2.23841
2.21552 0.753814 0.297396
3.07836 0.825418 1.20883
1.96939 0.78728 2.78442
3.17387 0.900939 0.173171
2.61451 0.860451 4.08392
2.3017 0.804105 1.76586
3.0058 0.673236 4.23301
2.57995 0.828091 2.55892
3.28927 0.902404 3.04386
1.84297 0.402259 2.17885
2.24901 0.783556 0.284289
3.14981 0.784885 1.20839
1.97995 0.80578 2.82747
3.20925 0.895339 0.131893
2.63683 0.859356 4.09679
2.35849 0.795657 1.74997
3.11044 0.604566 4.33417
2.60473 0.853026 2.4748
3.37121 0.885021 3.03114
1.89516 0.381587 2.15455
3.09216 0.847188 0.288748
2.36586 0.783266 0.816752
2.13778 0.676844 2.95038
2.13353 0.807604 0.169949
1.58642 0.806451 4.13796
2.02274 0.641032 2.08349
1.30101 0.851174 3.48873
2.02503 0.835552 3.46836
1.66813 0.939035 2.91964
2.26029 0.462083 2.1046
3.05878 0.845925 0.322233
2.3489 0.786986 0.801919
2.00724 0.703859 3.1169
2.11865 0.781664 0.169025
1.63626 0.826308 4.10403
2.03141 0.632394 2.05574
1.29871 0.842799 3.41574
2.08327 0.855758 3.45484
1.67064 0.925015 2.97296
2.27366 0.442031 2.07515
3.54146 0.813365 0.301191
3.11757 0.839279 1.14525
4.40982 0.626097 2.94205
3.94505 0.485024 0.345679
3.77928 0.580231 3.68593
4.327 0.208623 2.1518
3.61646 0 4.70567
3.90198 0.795662 2.27699
3.92513 0.651328 3.46328
4.15155 0.326245 1.8286
3.50662 0.810465 0.275541
3.17307 0.830705 1.14848
4.4497 0.613488 2.98797
3.85379 0.482794 0.315057
3.81705 0.533906 3.73454
4.28228 0.164156 2.2261
3.58747 0.036223 4.69197
3.88606 0.797341 2.34841
3.93432 0.643679 3.48226
4.03427 0.485961 1.90238
1.84381 0.754229 0.344241
1.86537 0.88161 0.874153
1.49509 0.508614 2.76699
1.50473 0.688613 0.327355
1.15644 0.922613 3.87699
1.95504 0.399655 2.18853
2.73316 0.753874 4.10022
1.6133 0.896949 3.34865
1.05057 0.895987 3.07418
1.67931 0.454395 1.78597
1.8601 0.751976 0.347749
1.84584 0.888655 0.816088
1.49549 0.58088 2.83042
1.57246 0.731037 0.404862
1.20773 0.943568 3.78575
1.95065 0.399728 2.1896
2.69823 0.803305 4.03154
1.66905 0.871131 3.24288
1.11383 0.887145 3.13141
1.61813 0.505077 1.90643
2.5765 1.13832 0.447491
3.33748 0.880597 0.402121
3.30246 1.05523 3.46581
3.81983 0.467536 0.405955
2.40503 0.888391 3.67488
2.19322 0.880854 2.46262
2.71829 0.829663 4.38551
2.32429 0.992517 2.38948
2.43297 0.992652 2.97066
2.81769 0.919429 1.56286
2.56537 1.12783 0.442433
3.34126 0.943012 0.341558
3.34163 1.04472 3.51576
3.89809 0.546302 0.33986
2.49159 0.93503 3.64199
2.22573 0.893718 2.49581
2.68679 0.804809 4.42826
2.34136 0.967351 2.48599
2.45162 1.02542 2.96055
2.82492 0.91052 1.62136
3.6026 0.855954 0.247985
1.50952 0.899145 0.635109
3.56772 1.04102 3.33642
1.54938 1.00087 0.369648
3.89068 0.458763 3.47021
3.91082 0.987285 3.18658
2.94155 0.459402 4.47962
4.07387 1.01408 2.26808
3.13107 1.04626 2.95789
3.9471 0.955709 1.74716
3.60578 0.849407 0.257042
1.41108 0.909178 0.723048
3.52393 1.06482 3.52487
1.53472 0.993859 0.35617
3.89103 0.432302 3.44243
3.8785 1.0357 3.20746
2.95011 0.450051 4.49969
4.03305 1.02172 2.22103
3.11348 1.04511 2.93473
3.94527 0.955273 1.74804
1.05404 0.796407 0.131802
0.832808 0.695877 0.904324
0.829767 0.75508 3.97468
1.31613 0.745377 0.596415
0.876523 0.726313 3.8323
0.404068 0.954903 2.48128
1.39995 0.690458 3.36162
0.606676 1.09374 2.05869
2.31669 0.655749 3.08173
2.89725 0.979103 1.61968
1.05753 0.806545 0.132356
0.954539 0.711616 0.710147
0.797284 0.747135 4.03655
1.29825 0.747623 0.543773
0.901847 0.717036 3.84964
0.386368 0.937852 2.49796
1.4 0.686481 3.3536
0.533839 0.958049 2.48374
2.31567 0.605342 3.10497
2.87838 0.984781 1.65732
1.97482 0.688561 0.329058
2.19549 0.601228 0.479548
1.46288 0.701427 4.10312
2.39918 0.606053 0.423931
1.67809 0.721227 3.86693
1.18849 0.689678 2.73429
2.49795 0.514882 3.7716
0.995671 0.956549 2.14803
2.55208 0.738272 2.99621
0.826476 0.57659 2.09394
1.92884 0.692147 0.325643
2.15422 0.611613 0.556635
1.43672 0.677864 4.13087
2.39409 0.616655 0.38973
1.68788 0.715412 3.87594
1.18394 0.679326 2.77091
2.51793 0.521195 3.78222
0.942244 0.900754 2.19984
2.54056 0.750872 2.87253
0.835447 0.606928 2.03517
1.16035 0.570668 0.33075
3.29895 0.709832 1.178
3.45265 0.863931 3.32893
3.5925 0.772626 0.451634
2.9287 0.641862 4.3151
3.11256 0.863802 1.7685
2.5246 0.869922 3.14338
2.55226 0.908565 1.94089
2.93503 0.761649 2.98069
0.0595808 0.738324 2.36067
1.13366 0.581888 0.306025
3.32247 0.689384 1.15503
3.44105 0.837107 3.38174
3.62359 0.762392 0.522131
2.94093 0.617618 4.35868
3.09845 0.858459 1.81282
2.77102 0.803002 3.42381
2.54972 0.906318 1.93907
2.88695 0.759941 2.9667
0.0778743 0.768775 2.29663
1.42153 0.389699 0.247444
0.775309 0.502039 1.04459
0.213403 0.620688 3.11572
1.54012 0.482114 0.671056
1.30059 0.586386 3.50381
0.963784 0.794716 2.62873
1.69444 0.683966 3.31096
0.912509 0.520916 3.24455
1.05022 0.628067 3.38503
0.366303 0.610843 2.21454
1.44178 0.413474 0.273921
0.732556 0.508341 1.04539
0.227986 0.620607 3.11939
1.53081 0.502593 0.78765
1.27016 0.581752 3.52204
0.935417 0.822624 2.50887
1.69482 0.69026 3.19412
0.349087 0.646056 2.11663
1.10311 0.632125 3.37877
0.343848 0.619012 2.20454
2.85457 0.752178 0.560302
3.11516 0.69572 1.08169
2.28507 0.958818 2.94497
3.28406 0.645335 0.311786
2.51679 0.623423 4.22718
1.94097 0.938483 1.88567
3.13618 0.96713 4.349
1.82912 0.904949 2.56661
3.56635 0.666904 2.92157
2.06958 0.932594 2.56198
2.7716 0.699536 0.602707
3.12571 0.694372 1.08828
2.27521 0.96054 3.03781
3.28316 0.665354 0.242928
2.61714 0.588377 4.389
1.98201 0.937279 1.87993
3.15112 0.998584 4.25429
1.94779 0.900418 2.46797
3.57419 0.64752 2.91987
2.14858 0.937988 2.4632
3.34297 0.71288 0.420573
2.02429 0.779427 0.827632
2.32675 0.949991 3.27698
2.15575 0.637466 0.270845
1.72953 0.539203 4.13246
2.67503 0.878127 1.90722
1.19676 0.778026 3.25781
2.3339 1.00775 2.37492
1.91105 0.702379 2.81734
2.46161 0.918747 2.33651
3.32324 0.70908 0.44442
1.97687 0.785 0.813014
2.2858 0.9606 3.34329
2.16542 0.644216 0.310697
1.62658 0.563483 4.08582
2.67503 0.850495 1.99913
1.19451 0.767386 3.31757
2.1739 0.707232 3.14648
1.82167 0.702718 2.79779
2.51922 0.920352 2.29361
3.48605 0.714476 0.190275
3.5593 0.533753 0.874542
4.21128 0.931356 3.33951
3.51991 0.822138 0.359376
3.42297 0.794647 3.41226
3.8971 0.787462 2.48614
2.954 1.08245 4.49244
3.94287 0.764235 2.11064
3.83281 0.707384 2.82419
3.89355 0.996652 1.93156
3.44905 0.688497 0.189997
3.42125 0.506889 0.922981
4.27063 0.947975 3.37176
3.51491 0.788813 0.36848
3.36625 0.812084 3.37698
3.86471 0.835246 2.68159
2.96059 1.06788 4.4721
3.92651 0.74924 2.1257
3.77578 0.686098 2.81741
3.92961 1.0365 1.87081
1.59756 0.714822 0.444113
1.38245 0.757011 0.852831
1.62982 0.86601 3.16255
1.46811 0.636799 0.472711
1.25759 0.589339 3.95486
1.95069 0.993032 2.01692
2.15119 0.624787 3.71716
1.78815 0.778897 3.06733
1.21996 0.571995 3.05872
1.7246 0.990725 2.00402
1.58106 0.727135 0.440878
1.36195 0.788812 0.884245
1.68896 0.932487 3.06703
1.45497 0.640299 0.431921
1.22543 0.581233 3.99917
1.97197 1.02045 2.01463
2.1463 0.628118 3.6717
1.8613 0.848894 2.8992
1.24979 0.573187 3.08675
1.66353 0.993497 2.18747
2.01772 0.568124 0.270272
2.62198 0.774817 0.780966
3.39063 0.693422 3.46487
3.26606 0.607277 0.649322
2.32887 0.579308 3.65013
1.92464 0.821649 2.88438
2.54111 0.607313 4.32971
2.31681 0.55464 2.55325
2.41218 0.701288 2.932
2.91214 0.763348 1.70511
2.0179 0.580525 0.307646
2.68551 0.764528 0.770113
3.39109 0.704664 3.49198
3.2876 0.596165 0.649604
2.35967 0.577014 3.7135
1.91066 0.826711 2.90066
2.54664 0.605754 4.31042
2.31227 0.560251 2.50777
2.40898 0.639547 2.91272
2.90158 0.756632 1.70742
3.61097 0.829257 0.33392
1.54641 0.540628 0.675623
3.46699 0.738366 3.45113
1.34447 0.48792 0.377009
3.70968 0.843277 3.53097
3.6528 0.602063 3.41125
2.76373 0.850688 4.46586
4.04619 0.553105 2.34691
3.14186 0.728107 3.10938
3.97517 0.804914 1.89307
3.60319 0.864193 0.293541
1.61472 0.53802 0.690149
3.46462 0.722719 3.41792
1.35714 0.480207 0.43529
3.72602 0.847451 3.55575
3.66062 0.572664 3.41619
2.74827 0.843504 4.44717
4.04662 0.559191 2.32177
3.26767 0.758884 3.0942
3.96971 0.789789 1.88911
POINT_DATA 400
SCALARS particleColor float 3
LOOKUP_TABLE default
0 0.604861 1
0 0.463296 1
0.00718272 1 0.992817
0 0.68391 1
0 0.36537 1
0 0.0852614 1
0 0.455055 1
0 0.492318 1
0 0.77029 1
0.124196 1 0.875804
0 0.539742 1
0 0.371068 1
0 0.996609 1
0 0.593757 1
0 0.464255 1
0 0.12193 1
0 0.264969 1
0 0.49523 1
0 0.880277 1
0.270889 1 0.729111
0.239577 1 0.760423
0 0.88701 1
0.198932 1 0.801068
0.0777712 1 0.922229
0 0.730383 1
0 0.225882 1
0.0593739 1 0.940626
0 0.498831 1
0 0.832173 1
0 0.764627 1
0.255833 1 0.744167
0 0.772375 1
0.109507 1 0.890493
0.0776276 1 0.922372
0 0.718142 1
0 0.475579 1
0.0318925 1 0.968107
0 0.532321 1
0 0.710234 1
0 0.723732 1
0 0.521429 1
0 0.694755 1
0 0.862272 1
0 0.916224 1
0 0.606374 1
0 0.62179 1
0 0.488629 1
0 0.66009 1
0 0.652757 1
0 0.18949 1
0 0.402027 1
0 0.619277 1
0.0687893 1 0.931211
0 0.947416 1
0 0.677887 1
0 0.513349 1
0 0.83006 1
0 0.723476 1
0 0.670085 1
0 0.126553 1
0 0.802162 1
0 0.35888 1
0 0.970873 1
0.176704 1 0.823296
0 0.830462 1
0 0.777013 1
0 0.734401 1
0 0.499825 1
0 0.730599 1
0 0.38698 1
0 0.838593 1
0 0.196814 1
0 0.782418 1
0.0196339 1 0.980366
0 0.882098 1
0 0.713472 1
0 0.750432 1
0 0.605881 1
0 0.612351 1
0 0.195029 1
0 0.731285 1
0 0.881292 1
0 0.561138 1
0 0.717575 1
0 0.674869 1
0 0.478509 1
0 0.356207 1
0 0.556124 1
0 0.888043 1
0 0.563416 1
0 0.657122 1
0 0.795982 1
0 0.755699 1
0 0.766533 1
0 0.647971 1
0 0.509563 1
0 0.27944 1
0 0.578147 1
0 0.841679 1
0 0.632213 1
0 0.923771 1
0 0.534545 1
0 0.661009 1
0 0.429158 1
0 0.243558 1
0 0.562009 1
0 0.63607 1
0 0.281412 1
0 0.454434 1
0 0.509769 1
0 0.777044 1
0 0.422184 1
0 0.747007 1
0 0.593113 1
0 0.16914 1
0 0.462252 1
0 0.707054 1
0 0.38854 1
0 0.479195 1
0 0.860564 1
0.188017 1 0.811983
0 0.687532 1
0 0.444135 1
0 0.560397 1
0 0.160893 1
0 0.230848 1
0 0.366091 1
0 0.59947 1
0 0.209011 1
0 0.506432 1
0.258664 1 0.741336
0 0.674001 1
0 0.431004 1
0 0.446799 1
0 0.0945398 1
0 0.181268 1
0 0.661149 1
0 0.692396 1
0 0.239303 1
0 0.447626 1
0 0.593853 1
0 0.586798 1
0 0.4755 1
0 0.739788 1
0 0.891025 1
0 0.572794 1
0 0.816355 1
0 0.856049 1
0 0.817994 1
0 0.290211 1
0 0.542271 1
0 0.59843 1
0 0.692723 1
0 0.763835 1
0 0.827381 1
0 0.763989 1
0 0.739364 1
0 0.850945 1
0 0.780661 1
0 0.377892 1
0 0.721394 1
0 0.750821 1
0 0.439257 1
0.061667 1 0.938333
0.042621 1 0.957379
0.0896131 1 0.910387
0 0.755733 1
0.243295 1 0.756705
0.171567 1 0.828433
0.0165112 1 0.983489
0 0.700672 1
0 0.607149 1
0 0.388999 1
0.0168785 1 0.983122
0.0210771 1 0.978923
0 0.980812 1
0 0.647893 1
0.184728 1 0.815272
0.329906 1 0.670094
0 0.962486 1
0 0.727853 1
0 0.857745 1
0 0.635632 1
0.13213 1 0.86787
0 0.382312 1
0.0197548 1 0.980245
0 0.780797 1
0 0.433499 1
0 0.598579 1
0 0.516948 1
0 0.682612 1
0.0015369 1 0.998463
0 0.510357 1
0.256382 1 0.743618
0 0.356759 1
0.0418804 1 0.95812
0 0.96802 1
0 0.575628 1
0 0.601342 1
0 0.392819 1
0 0.473401 1
0 0.686252 1
0 0.977296 1
0 0.370837 1
0 0.704144 1
0 0.703868 1
0.0267553 1 0.973245
0 0.606078 1
0 0.596574 1
0.0557388 1 0.944261
0 0.626437 1
0 0.46819 1
0 0.799619 1
0 0.297867 1
0 0.725017 1
0 0.723685 1
0.0601514 1 0.939849
0 0.908771 1
0 0.623917 1
0.0405917 1 0.959408
0 0.917582 1
0.250683 1 0.749317
0 0.986777 1
0 0.790094 1
0 0.703146 1
0 0.692568 1
0.159293 1 0.840707
0 0.636546 1
0 0.948572 1
0 0.623729 1
0 0.887654 1
0.0203317 1 0.979668
0 0.916969 1
0 0.729449 1
0 0.710341 1
0 0.684351 1
0.203029 1 0.796971
0 0.701597 1
0 0.923916 1
0 0.556184 1
0 0.277258 1
0 0.959328 1
0.177451 1 0.822549
0 0.882239 1
0 0.85384 1
0 0.781797 1
0 0.645784 1
0.174751 1 0.825249
0 0.901247 1
0 0.167585 1
0 0.296702 1
0.117133 1 0.882867
0.349311 1 0.650689
0 0.808431 1
0 0.873067 1
0 0.860885 1
0 0.653181 1
0.156567 1 0.843433
0 0.953527 1
0 0.151285 1
0.179745 1 0.820255
0 0.707471 1
0 0.774645 1
0 0.96834 1
0 0.985611 1
0.0914897 1 0.90851
0.256705 1 0.743295
0 0.975116 1
0 0.726505 1
0 0.751796 1
0.199208 1 0.800792
0 0.641684 1
0 0.711909 1
0 0.896454 1
0.0883542 1 0.911646
0 0.937885 1
0.290407 1 0.709593
0.0296637 1 0.970336
0 0.690524 1
0 0.653639 1
0 0.922985 1
0 0.893465 1
0 0.735466 1
0.139781 1 0.860219
0 0.971227 1
0 0.76704 1
0 0.342575 1
0 0.951615 1
0 0.990995 1
0 0.828668 1
0 0.967456 1
0 0.96083 1
0 0.7788 1
0 0.963759 1
0 0.870118 1
0 0.678746 1
0 0.262792 1
0 0.938945 1
0 0.807604 1
0 0.9027 1
0.240984 1 0.759016
0 0.964113 1
0.041181 1 0.958819
0 0.957082 1
0 0.779761 1
0.060151 1 0.939849
0 0.741739 1
0 0.75602 1
0 0.647521 1
0 0.860047 1
0.232507 1 0.767493
0 0.931203 1
0 0.964362 1
0 0.990433 1
0 0.798838 1
0.266247 1 0.733753
0 0.670941 1
0 0.594309 1
0 0.70667 1
0 0.995821 1
0 0.8594 1
0 0.910201 1
0 0.898724 1
0.304106 1 0.695894
0 0.906596 1
0.100115 1 0.899885
0.254066 1 0.745934
0 0.758519 1
0 0.878002 1
0 0.788997 1
0 0.896035 1
0 0.921887 1
0 0.771249 1
0.379767 1 0.620233
0 0.980173 1
0.154741 1 0.845259
0.167614 1 0.832386
0 0.853164 1
0 0.775519 1
0 0.730008 1
0 0.955609 1
0 0.571204 1
0.0287722 1 0.971228
0.168701 1 0.831299
0 0.703228 1
0 0.680406 1
0 0.797297 1
0 0.886458 1
0 0.862335 1
0 0.532992 1
0 0.968558 1
0 0.555314 1
0.0836647 1 0.916335
0.0890569 1 0.910943
0 0.800892 1
0 0.607866 1
0 0.853912 1
0 0.745439 1
0 0.862683 1
0 0.501866 1
0.0834618 1 0.916538
0.00140242 1 0.998598
0 0.393578 1
0 0.933727 1
0.0553489 1 0.944651
0.283897 1 0.716103
0 0.901332 1
0.0956579 1 0.904342
0 0.801002 1
0 0.8985 1
0.0452779 1 0.954722
0 0.919978 1
0 0.266152 1
0 0.92918 1
0.164768 1 0.835232
0.332304 1 0.667696
0 0.849044 1
0.124502 1 0.875498
0 0.897445 1
0 0.764037 1
0 0.254016 1
0 0.650838 1
0 0.48102 1
0.144297 1 0.855703
0 0.890164 1
0.0448558 1 0.955144
0 0.970368 1
0 0.687442 1
0 0.397257 1
0 0.445082 1
0 0.326354 1
0 0.57475 1
0 0.394681 1
0.0416937 1 0.958306
0 0.844893 1
0.186007 1 0.813993
0 0.983856 1
0 0.611074 1
0 0.470287 1
0 0.444867 1
