# vtk DataFile Version 3.0
Particle simulation
ASCII
DATASET POLYDATA
POINTS 400 float
3.7748 1.77198 5.75951
4.18785 5.17935 5.15525
2.6163 4.31891 5.63924
9.1792 1.54959 10
6.42098 2.04321 2.47465
0.743231 2.27919 6.85122
2.21236 6.91399 3.54454
0.230786 4.49318 5.51559
8.2471 5.7566 6.82493
3.31958 5.76737 3.69745
2.2096 3.93921 2.00515
8.29748 2.28003 4.16527
2.78034 10 8.83208
5.44039 9.11189 8.11395
0.891301 5.18719 9.03831
5.33479 0.212853 8.47857
3.61573 7.59661 1.0359
6.19083 3.51738 7.62757
8.70851 7.4094 1.93356
0.257491 4.37684 8.74615
4.95491 0.966177 2.91766
6.39216 5.26478 3.83178
6.25382 6.64004 3.61793
7.28772 6.55131 7.58142
1.5737 1.25537 4.82436
1.30576 6.02022 6.87517
1.90125 9.7079 4.5093
1.99265 9.84117 7.57372
0.0478485 9.08756 5.01876
5.9391 5.59905 1.89942
5.26217 3.18643 9.51791
2.92485 8.91828 6.94987
2.22787 2.33882 7.18997
7.65629 7.57053 6.77754
4.62491 2.69866 9.89651
0.433628 5.0453 9.22864
8.86399 4.2372 1.34689
4.35252 1.33471 0.713212
7.64168 9.1346 9.30693
10 2.33821 2.97047
8.80453 1.37355 7.76153
6.59668 7.40826 0.611329
1.71994 6.68989 6.38965
9.08173 4.5949 9.15703
3.83087 3.88281 9.21908
8.58237 3.99157 2.87584
9.18811 2.79539 3.00219
4.73795 0.285199 2.93661
10 4.93344 2.17465
1.42162 1.21226 4.44962
4.04632 1.98066 3.06034
5.82975 0.225336 5.67397
1.7745 0.342076 3.01508
7.92805 6.09813 3.189
7.38053 0.321024 7.99993
4.16772 4.28389 3.41198
2.18565 9.02922 7.56026
5.50048 2.51742 4.16597
8.69096 4.31557 9.85585
3.27681 2.46063 2.84647
2.95434 4.92383 2.71713
2.70759 1.56567 4.70844
0.505032 1.72216 6.75035
1.81603 5.70899 0.52272
1.47437 7.98694 7.01931
0 9.33228 3.96582
8.08119 2.91214 2.49856
5.86127 8.98254 6.64424
9.62082 0.237561 3.34748
3.864 8.04283 8.9373
0.811895 6.22845 2.47629
2.73351 4.36802 2.27689
0.188414 2.38801 0.116285
1.22208 6.38562 1.11535
2.31767 8.09282 1.08673
0.454115 6.32283 6.43657
0.978212 1.24883 3.98975
2.68157 4.72973 8.31109
4.98856 7.65364 5.90094
0.53379 1.05175 6.40013
8.00485 5.01287 7.20177
5.25241 6.235 5.76602
5.808 2.15245 6.39884
5.27114 3.40828 2.00436
8.6986 7.82233 1.27306
8.93588 1.04554 5.79425
4.24803 2.70989 1.88146
4.02214 8.91424 6.27124
6.35219 0.706051 8.61606
3.6408 2.94418 7.26229
5.48571 1.32949 3.5717
2.18164 1.10247 8.44273
0 7.16745 0.0465287
7.12188 2.76232 1.25093
7.15836 1.62713 7.99347
4.38236 1.01992 5.19225
9.67814 2.58248 1.12189
8.73885 5.61599 4.22243
3.64817 1.90017 3.76092
6.811 5.61251 7.48855
9.75281 5.19079 6.48683
3.80785 9.41873 9.49409
6.18027 9.21982 3.28831
0.687941 5.38943 0.523785
1.44249 3.98236 3.13055
9.87168 1.5835 1.05166
4.25981 4.8098 7.97668
5.05569 8.06646 0
1.31973 0 1.05654
5.8161 4.28583 6.60932
4.31055 5.61875 1.81635
8.05882 1.08193 4.51915
0.234051 3.19875 6.01893
8.73839 5.47116 5.85574
4.2628 7.30419 3.7405
5.6032 8.74366 0.864038
1.23414 8.7355 0.507075
4.26114 3.19359 0.780971
7.6924 5.78067 4.04845
6.82028 8.58431 1.27794
4.56101 6.52068 8.02138
0.531307 1.42085 9.23789
0.645165 2.02808 9.23019
5.96158 4.74825 4.55002
0.864727 0.148835 6.95651
2.69853 3.73265 6.12296
5.83013 1.37134 5.55576
3.3784 0.34323 3.97666
3.65678 0.256323 4.8918
1.55844 10 7.57982
8.34069 6.26774 9.21234
6.76197 5.63697 5.40167
9.45715 0.26011 7.16842
7.62666 0.0674722 6.54519
0.626057 6.92131 1.39879
5.00547 5.29651 4.71123
6.90555 3.92134 0.322862
9.9721 4.46036 6.86989
0.117494 9.22865 9.02032
0.72358 8.56769 2.6113
7.06024 3.1048 7.37178
8.01268 8.79681 1.02753
1.57899 4.10045 0.254732
0.957169 4.69057 1.76939
9.49378 8.7454 6.72814
2.07533 0.310901 3.41077
9.39933 0.0890565 6.56264
3.07365 7.47316 0.570648
4.3537 9.63988 7.62816
8.70594 4.45516 8.97668
7.53376 0.639208 7.55274
9.9614 1.72345 5.91556
4.6975 1.67526 9.05203
3.94873 4.58219 2.91005
4.22401 2.76007 4.66989
8.73106 4.68248 3.1954
9.10461 7.21916 1.30896
8.78729 7.56136 0.280632
2.00194 1.2776 3.14315
4.03259 0 6.52287
8.09657 0.0571157 2.99005
3.2094 2.38679 2.69001
3.43467 1.02482 4.91929
0.3857 0.718591 8.91682
5.02834 0.0335954 9.08355
0.918345 0.153667 4.93113
2.14683 2.57039 9.1002
7.39078 3.0171 4.3869
0 1.21499 7.17562
9.70925 3.56176 6.82398
10 4.70642 8.13521
5.53126 8.79206 4.76735
2.26291 5.08425 2.27212
0.905298 2.57877 0.544168
6.66885 8.48662 0.75444
7.0275 2.42919 3.6809
0.816202 2.29614 4.37257
9.32926 3.6878 2.41213
2.39484 7.23819 4.84119
3.61005 7.43501 1.01601
7.89128 8.30377 1.56332
8.96116 2.25813 8.94862
4.17982 9.76771 5.80421
0 0 2.43116
9.76646 0.235722 1.42235
2.46477 2.57288 7.33908
9.17586 9.58982 8.02221
7.04247 7.23257 8.27545
8.69203 2.63725 5.85649
0.231149 6.95881 4.02711
2.63652 0 2.59618
0.894954 1.2464 1.03708
3.64079 2.0644 5.14014
9.36115 2.67388 0.608081
8.80836 0.989442 6.39795
1.88306 2.99126 9.41334
9.45378 8.01941 6.57297
9.3613 0.706568 5.43994
9.6984 7.5678 9.67028
3.77398 0 0.108056
0.864804 8.3217 7.0651
9.94552 6.93957 6.36926
7.04211 9.74576 4.47386
8.04915 4.95194 8.30141
0.535196 3.97672 6.40516
5.20984 6.8928 8.25812
4.4287 8.6461 9.8045
7.38524 2.35278 1.18094
2.20518 8.09446 3.70375
4.27299 6.88124 2.5547
6.9927 9.30965 9.312
5.89809 4.89697 7.10806
2.85547 4.52853 4.01916
5.71793 7.37022 2.09532
3.55603 3.13511 2.66013
0.342152 4.45684 2.0545
0.367547 1.40419 4.12638
8.69963 3.02408 7.70552
8.12887 0.19628 8.51436
8.10526 8.34368 8.63011
9.22852 4.86218 2.74415
2.32727 6.45649 1.19803
1.74013 0.398654 8.22587
6.786 0.389611 8.22635
10 9.42648 8.59773
2.30145 1.42985 9.43545
3.38922 1.88044 1.7068
4.47188 6.95961 0.504456
7.64358 0.424663 7.54288
5.83914 8.2815 3.86612
8.20759 0.204814 9.0671
5.73627 2.8 3.75412
8.79674 7.79431 10
7.19186 8.38995 0.864872
6.41602 9.8695 4.61545
1.84097 6.0923 7.29264
6.99136 2.2824 4.39144
9.24459 6.64427 7.22061
7.14145 0.302231 7.53813
2.44579 2.37361 9.3644
7.43958 0.697711 7.57896
9.29094 4.10519 7.62733
2.34372 3.2604 6.98274
9.33955 8.71629 2.6589
7.79082 4.1801 2.10788
8.77706 0.844154 4.59869
4.38737 0.532168 1.33417
6.93223 5.88525 1.96063
2.60118 4.44105 8.49463
1.15826 1.60139 6.19827
9.81884 6.33885 6.41178
7.69973 5.16608 4.22379
8.92493 9.10128 4.87193
6.52308 3.04629 8.75313
8.45202 6.13239 9.70624
3.30484 8.62288 0
7.01549 2.59211 1.46896
0 2.47156 0.0468704
3.36928 0.683342 4.06957
2.94451 1.36304 1.59205
2.72866 1.7296 0.886307
0.517914 3.69367 0.218297
3.41227 8.63243 3.97549
8.86568 6.24266 1.95784
3.26961 8.18151 8.00949
4.14564 2.01697 6.0221
9.50612 5.16801 9.51353
8.81499 6.64893 9.3098
2.11572 7.63424 5.49388
9.01481 0.561356 3.99796
2.88002 1.04306 1.21084
7.22905 1.86517 7.57651
9.17098 4.1658 4.97315
3.33722 5.56081 8.58955
2.17932 2.42145 8.17353
2.82703 8.55748 0.588389
9.24981 9.59624 0
3.53248 7.29052 4.53668
8.73429 8.68233 1.47109
9.3833 3.00122 6.26058
9.7957 1.31366 9.56951
9.54601 4.38671 9.40697
0.170688 3.21058 3.14631
5.42587 10 5.62792
4.68368 7.97374 2.7244
5.09917 8.29094 4.62111
9.75613 3.31096 1.02603
7.78029 7.66955 6.65578
4.78741 0.723814 9.36111
9.50337 0.972231 1.18469
0.221607 8.15589 0.0802896
5.69655 7.68703 0
1.15683 6.24523 6.46577
7.75366 7.63787 9.46137
7.52329 6.10128 9.54678
1.14104 8.62339 0.340716
6.97378 0.848203 9.31034
8.15056 0.371188 7.44495
7.6942 0.261008 7.49076
3.43055 0.368667 6.59326
0.309029 1.82866 6.46659
4.83104 4.3036 9.47128
8.29486 0.244279 7.91615
8.75237 8.13364 8.38019
7.30315 0.114466 7.74713
0.259658 6.94435 9.18279
7.92385 3.25115 7.63501
7.60412 0.603311 7.60206
6.37141 2.76551 7.41019
7.00394 2.81797 2.24444
3.80094 7.43721 0.947826
1.59377 6.23058 3.18426
5.77077 3.47028 7.44057
7.24234 0.416843 8.02929
8.09559 4.91221 6.69901
2.55441 2.39642 1.62865
6.71159 3.28983 7.55555
7.00374 0.306101 7.81833
8.87178 8.69168 8.46137
1.96549 0.742289 4.5482
8.96398 4.27374 1.06785
0.903412 0.926422 0.530805
0.915843 1.4371 8.85559
7.68558 0.531799 6.69795
7.60361 0.114014 7.80538
7.19353 5.95238 5.19991
8.58265 0.854532 9.29748
7.14478 5.6401 3.82448
10 9.19889 4.63185
7.69906 0.533541 7.58198
3.23631 2.0766 6.69242
3.86883 0.210053 6.19941
7.92336 1.21742 4.77829
0 2.74463 9.15529
2.98514 2.5608 2.03429
6.34777 0.900758 6.95747
1.20747 6.9371 5.25369
7.73292 0.153471 7.84104
8.4036 0 9.70846
8.44226 1.42357 3.43427
5.04617 6.70087 2.15559
8.0461 1.19232 9.49938
2.6502 2.20431 9.13105
1.50844 0.921448 8.77893
9.49731 6.20136 8.44571
2.10038 0.288215 8.21927
5.13071 0.362735 2.91522
6.63911 8.05822 2.69523
7.72831 0.299237 7.85273
6.40216 6.87436 3.74819
7.25307 0 8.04186
7.35356 0.720102 7.82475
8.37184 1.78491 8.43412
8.7648 9.80576 4.97605
3.44388 1.53161 4.50203
7.64375 0.60019 7.63911
2.50452 7.6144 2.44457
7.0812 9.72644 2.46823
7.52368 0.159565 7.14914
7.60495 0.308545 7.59868
0.245412 1.00228 7.08617
1.95222 0.958662 8.92245
1.67996 0.936455 8.81244
7.74265 0.442633 7.46152
7.87554 9.46975 2.4805
8.80355 3.23384 4.92191
1.7542 0.762462 8.82467
4.4435 6.7 2.84879
9.10692 8.94345 0.663283
1.45933 1.40475 8.25133
5.21391 0.239012 3.18669
8.35596 8.06183 4.3437
9.74575 7.45205 5.16679
7.60765 0.505062 7.45382
7.42788 0.302899 8.0493
8.95612 7.46112 0.927187
1.76548 0.744364 8.87224
9.89902 9.72182 0
1.20364 0.0202431 3.54486
7.8611 0.510262 7.4482
8.41074 0.0442509 9.09708
7.61033 0.256297 7.5954
9.16589 4.57786 7.41711
7.57667 0.651482 7.44253
3.63724 0.802359 3.99725
1.5916 0.823703 8.81628
7.8021 0.606981 7.12407
7.69151 0.239669 7.42663
6.17132 3.12592 4.22236
8.49376 0.122438 7.27272
7.57466 0.467588 7.49115
7.91067 0.609516 7.54323
6.17879 5.16206 4.48551
7.4756 0.207736 7.41769
0.749688 8.56308 1.03772
4.50823 2.79976 5.7923
7.38219 0.610421 7.43596
0.914535 0.415685 2.29456
3.26423 8.84021 7.8531
8.26199 2.96002 8.61953
POINT_DATA 400
SCALARS particleColor float 3
LOOKUP_TABLE default
1 0.777477 0
1 5.96046e-08 0
0.564671 1 0.435329
0.218396 1 0.781604
1 0.737215 0
0.838796 1 0.161204
0.860248 1 0.139752
1 0.507225 0
1 5.96046e-08 0
1 0.100998 0
0.900166 1 0.0998336
0.606833 1 0.393167
0.732587 1 0.267413
1 5.96046e-08 0
1 5.96046e-08 0
1 0.188579 0
1 0.994389 0
0.563189 1 0.436811
0 0.744782 1
1 5.96046e-08 0
1 0.47449 0
1 0.351339 0
1 5.96046e-08 0
1 5.96046e-08 0
1 5.96046e-08 0
1 5.96046e-08 0
1 5.96046e-08 0
1 0.660023 0
1 5.96046e-08 0
0.180232 1 0.819768
1 5.96046e-08 0
1 5.96046e-08 0
1 0.373697 0
0 0.7033 1
0.890497 1 0.109503
0.950302 1 0.0496982
0.823182 1 0.176818
0.973336 1 0.0266644
1 5.96046e-08 0
0.903842 1 0.096158
1 5.96046e-08 0
1 0.91415 0
1 0.751703 0
0.374504 1 0.625496
1 0.731287 0
0.8784 1 0.1216
1 0.523574 0
0.891124 1 0.108876
1 0.724064 0
0.897336 1 0.102664
0.979174 1 0.0208262
0.686682 1 0.313318
1 5.96046e-08 0
1 0.609393 0
1 5.96046e-08 0
1 0.468824 0
0.968738 1 0.0312621
0.93058 1 0.0694197
1 5.96046e-08 0
1 5.96046e-08 0
1 0.1287 0
1 0.234861 0
1 5.96046e-08 0
1 0.495813 0
0.268956 1 0.731044
0.905741 1 0.0942593
1 0.336978 0
0.861825 1 0.138175
1 0.325314 0
1 5.96046e-08 0
1 0.290228 0
1 0.00981873 0
0.735234 1 0.264766
1 5.96046e-08 0
1 5.96046e-08 0
0.787205 1 0.212795
0.410771 1 0.589229
1 5.96046e-08 0
1 5.96046e-08 0
1 5.96046e-08 0
1 5.96046e-08 0
1 0.226292 0
0 0.836887 1
1 5.96046e-08 0
1 5.96046e-08 0
1 0.479252 0
1 0.288824 0
0.34165 1 0.65835
0.404464 1 0.595536
1 5.96046e-08 0
1 0.883716 0
0.800356 1 0.199644
0.0156778 1 0.984322
1 5.96046e-08 0
1 5.96046e-08 0
0.151039 1 0.848961
0.544548 1 0.455452
1 5.96046e-08 0
1 0.965379 0
1 0.714091 0
1 0.540183 0
0.630202 1 0.369798
1 5.96046e-08 0
0.393408 1 0.606592
0 0.925383 1
0.611083 1 0.388917
1 0.469796 0
0.738903 1 0.261097
1 5.96046e-08 0
1 0.579033 0
1 5.96046e-08 0
1 5.96046e-08 0
1 0.293086 0
1 0.417951 0
1 5.96046e-08 0
0.205094 1 0.794906
1 5.96046e-08 0
0.686647 1 0.313353
1 5.96046e-08 0
1 5.96046e-08 0
1 5.96046e-08 0
1 5.96046e-08 0
0.765428 1 0.234572
1 5.96046e-08 0
1 5.96046e-08 0
1 5.96046e-08 0
0.821126 1 0.178874
1 5.96046e-08 0
1 0.262332 0
1 0.422552 0
0.935373 1 0.064627
1 0.473991 0
1 0.957154 0
0.918106 1 0.0818943
1 5.96046e-08 0
0 0.711453 1
0 0.892301 1
1 5.96046e-08 0
1 5.96046e-08 0
1 5.96046e-08 0
1 5.96046e-08 0
1 5.96046e-08 0
1 0.269774 0
0.983102 1 0.0168985
1 0.204617 0
1 0.700064 0
1 0.701759 0
1 5.96046e-08 0
0.586432 1 0.413568
0.420201 1 0.579799
0 0.302763 1
0.615131 1 0.384869
1 0.30393 0
0.791089 1 0.208911
1 5.96046e-08 0
1 0.832442 0
1 5.96046e-08 0
1 5.96046e-08 0
1 0.268797 0
1 5.96046e-08 0
1 0.0744601 0
1 0.447103 0
1 5.96046e-08 0
0.195908 1 0.804092
1 5.96046e-08 0
1 0.789424 0
1 0.297218 0
1 5.96046e-08 0
0.800096 1 0.199904
1 0.0795422 0
1 5.96046e-08 0
1 5.96046e-08 0
0.384509 1 0.615491
0.31253 1 0.68747
1 5.96046e-08 0
0.542924 1 0.457076
1 5.96046e-08 0
0.734056 1 0.265944
1 5.96046e-08 0
0.433063 1 0.566937
1 0.842357 0
1 5.96046e-08 0
0.493648 1 0.506352
1 5.96046e-08 0
1 0.664785 0
0.752125 1 0.247875
1 5.96046e-08 0
0.732053 1 0.267947
1 0.704976 0
0.883001 1 0.116999
1 0.765861 0
1 5.96046e-08 0
1 0.54148 0
1 5.96046e-08 0
0.379519 1 0.620481
0 0.839013 1
1 0.675278 0
1 5.96046e-08 0
0.893882 1 0.106118
1 0.553639 0
1 5.96046e-08 0
1 0.995602 0
0.435329 1 0.564671
1 5.96046e-08 0
1 5.96046e-08 0
0.596053 1 0.403947
1 5.96046e-08 0
1 5.96046e-08 0
1 0.740251 0
1 5.96046e-08 0
0.950436 1 0.0495641
1 5.96046e-08 0
1 5.96046e-08 0
1 5.96046e-08 0
0.529987 1 0.470013
0.367098 1 0.632902
1 0.1171 0
1 5.96046e-08 0
0.208263 1 0.791737
0 0.813496 1
1 5.96046e-08 0
1 5.96046e-08 0
0.712819 1 0.287181
0 0.984793 1
1 5.96046e-08 0
1 0.640517 0
1 0.743809 0
0.409857 1 0.590143
0 0.662944 1
0.183281 1 0.816719
1 5.96046e-08 0
1 5.96046e-08 0
1 5.96046e-08 0
1 5.96046e-08 0
1 0.389686 0
0.507153 1 0.492847
1 0.859321 0
1 5.96046e-08 0
0 0.610348 1
1 5.96046e-08 0
0 0.826104 1
1 0.253054 0
1 5.96046e-08 0
1 5.96046e-08 0
1 5.96046e-08 0
0.44436 1 0.55564
0.897737 1 0.102263
1 0.144482 0
0 0.971912 1
1 5.96046e-08 0
1 0.691712 0
0.70681 1 0.29319
1 5.96046e-08 0
1 5.96046e-08 0
1 0.322165 0
0.577695 1 0.422305
0.345543 1 0.654457
0 0.937702 1
1 5.96046e-08 0
1 5.96046e-08 0
1 5.96046e-08 0
0.527368 1 0.472632
1 0.811543 0
1 0.0668495 0
1 0.904629 0
0.20325 1 0.79675
1 5.96046e-08 0
0.909098 1 0.0909016
0.426397 1 0.573603
1 0.353854 0
1 5.96046e-08 0
1 0.196217 0
1 5.96046e-08 0
1 5.96046e-08 0
1 0.998735 0
1 0.244979 0
1 5.96046e-08 0
1 5.96046e-08 0
1 5.96046e-08 0
1 5.96046e-08 0
0.270951 1 0.729049
1 5.96046e-08 0
1 0.565786 0
1 5.96046e-08 0
1 0.992574 0
1 5.96046e-08 0
0.811592 1 0.188408
1 0.7921 0
1 0.109636 0
1 5.96046e-08 0
0 0.804481 1
1 5.96046e-08 0
1 0.90802 0
1 0.827747 0
1 5.96046e-08 0
0.745589 1 0.254411
0.520721 1 0.479279
1 5.96046e-08 0
0 0.51838 1
0.530575 1 0.469425
1 5.96046e-08 0
1 0.196662 0
0 0.274874 1
1 0.158078 0
0 0.416518 1
1 5.96046e-08 0
1 5.96046e-08 0
0 0.405228 1
1 5.96046e-08 0
1 5.96046e-08 0
0.92694 1 0.0730601
0.703914 1 0.296086
1 5.96046e-08 0
0 0.400749 1
1 5.96046e-08 0
0 0.810742 1
0.875024 1 0.124976
0 0.906838 1
1 5.96046e-08 0
1 0.0893536 0
1 0.946738 0
1 0.880747 0
0 0.742647 1
0 0.414724 1
0 0.812396 1
0.689056 1 0.310944
0.865269 1 0.134731
1 5.96046e-08 0
1 0.221498 0
0 0.376568 1
0 0.411855 1
0 0.732504 1
1 0.354894 0
1 5.96046e-08 0
1 5.96046e-08 0
1 0.712027 0
1 5.96046e-08 0
0 0.812148 1
1 0.747866 0
1 0.715132 0
1 5.96046e-08 0
1 5.96046e-08 0
1 0.122769 0
0 0.825542 1
1 0.956478 0
0.348013 1 0.651987
0 0.834109 1
1 5.96046e-08 0
0 0.600824 1
1 0.9948 0
0 0.316619 1
0 0.458987 1
1 5.96046e-08 0
1 5.96046e-08 0
0.18535 1 0.81465
0 0.743632 1
1 0.612355 0
0.873758 1 0.126242
0.797549 1 0.202451
0 0.627764 1
1 0.93519 0
0.44729 1 0.55271
0 0.616344 1
0 0.688655 1
1 5.96046e-08 0
0.763169 1 0.236831
0 0.289878 1
0.690005 1 0.309995
0.739242 1 0.260758
0.440228 1 0.559772
0 0.664465 1
1 5.96046e-08 0
1 0.699871 0
0 0.706817 1
0 0.714309 1
0.355488 1 0.644512
0 0.459119 1
1 0.230537 0
1 5.96046e-08 0
0 0.618555 1
0 0.589671 1
0 0.602421 1
1 5.96046e-08 0
0.0518884 1 0.948112
1 0.392071 0
0 0.309064 1
0 0.483172 1
0 0.296567 1
1 5.96046e-08 0
0.220757 1 0.779243
0 0.695802 1
0 0.828727 1
1 0.462033 0
0 0.179166 1
0.433064 1 0.566936
1 5.96046e-08 0
0 0.331721 1
1 0.900463 0
1 0.895262 0
1 5.96046e-08 0
