# vtk DataFile Version 3.0
Particle simulation
ASCII
DATASET POLYDATA
POINTS 400 float
6.31336 8.55665 8.59153
0.710775 6.6235 6.02975
0.689354 7.73772 4.82044
9.08349 0 6.96652
9.57318 4.80822 6.9027
9.15021 9.83204 1.10693
8.55365 1.99313 8.03544
7.37671 3.61972 0.436866
4.33196 4.88954 2.7425
1.37393 0.580091 9.57079
1.19048 6.01977 3.85983
7.84195 8.40223 0.270441
8.9441 5.96015 7.91814
8.04637 3.06622 8.09485
7.99494 0 6.76086
5.56235 9.03686 4.3407
3.84146 3.39045 2.24996
4.15093 0.383883 3.03969
4.15169 4.27278 6.86206
3.2052 2.45872 5.12352
4.33603 0.390744 2.99534
1.26006 7.77089 6.90335
5.41203 0.817 0.619826
7.70836 1.3595 9.58233
2.03082 8.14163 2.20403
1.39126 0.165333 5.96674
0.102089 1.62371 10
6.12367 0.460371 8.42417
7.38491 1.12719 9.60044
3.66759 2.96634 9.76736
0.0105478 9.44289 4.38542
9.67314 5.72959 1.63678
9.43877 8.26068 1.11165
6.80822 6.51454 3.00588
7.36698 8.52498 6.74404
7.80233 3.06871 5.62578
5.88037 5.78488 1.47479
5.1507 0.138964 3.25838
2.93656 9.25504 9.4995
8.20893 0.161852 9.04584
2.62879 3.17952 0.508408
8.65587 1.41053 8.0545
8.85015 3.3569 4.71585
1.13284 1.39171 0.712132
4.15705 3.2831 8.86855
2.40279 3.60139 0.480108
1.13456 6.88638 0.809635
8.98224 8.05608 6.34433
5.09147 5.41019 4.12928
5.06358 4.73177 9.11483
9.84982 3.81508 0.917581
6.12515 1.51793 5.07638
9.84018 3.21425 7.02625
3.13185 8.97127 10
1.50524 0.800089 3.11138
2.21126 1.41544 6.73475
2.74493 8.50487 1.84807
0.432524 1.25761 9.85419
8.98417 5.43897 9.12819
1.32302 0 4.66001
2.32417 3.36076 4.84342
7.33563 8.89446 2.86782
3.62254 3.66644 7.67206
2.14705 0.22871 8.298
1.62583 1.4861 8.58836
1.18584 1.42156 6.17282
0.870998 4.35967 2.74313
0.346155 1.75095 1.73722
0.522842 7.8162 9.17552
4.2741 4.16244 7.02509
1.94051 9.43359 4.43546
3.0125 4.88772 5.13499
9.6903 3.32296 5.51434
7.83689 4.65729 0.49982
9.17102 3.75082 6.24774
9.69405 1.16068 2.88823
9.63749 1.08201 6.32254
8.39805 8.77413 0.142338
7.9728 3.95981 5.1152
5.84871 3.13232 3.24538
4.42171 0.0946868 3.38643
1.75146 3.73575 3.7895
7.99964 3.49128 4.16251
5.5268 7.51898 3.85428
7.7942 8.62364 4.23505
7.85651 8.10696 0.819859
3.16828 5.37951 1.77661
1.7683 1.07234 9.49752
0.864531 9.7119 9.24288
6.16462 8.13394 5.37327
4.16851 0.429691 2.46487
7.18638 5.37452 1.07923
7.44893 0.303651 5.90674
7.17916 7.01072 2.9701
6.23475 5.85671 8.45091
0.288171 1.92835 1.76506
2.64936 2.60492 2.93704
9.30581 4.43413 9.80955
5.39569 4.97223 9.896
9.46789 7.56709 5.65352
10 0 5.73713
6.56838 7.53357 0.979457
0 8.9212 10
0.906734 5.51606 7.64354
2.91535 6.33522 7.35718
7.27057 1.97578 5.05287
1.69769 6.7003 9.58308
1.09285 0.54437 7.38163
4.27137 8.48774 7.98475
9.2218 3.11085 9.62848
5.34098 4.55844 2.37274
7.24185 2.7987 7.76552
6.72634 1.8346 6.29566
7.11471 7.3765 9.32318
2.87251 0.100364 2.2773
0.394923 9.34179 5.86525
1.31627 0.592259 8.49589
9.14951 0 4.83871
0.423789 1.68012 7.11778
3.35628 2.89807 1.78155
1.57536 1.01393 5.82814
8.92465 5.18885 2.57808
4.72304 8.30355 4.16562
4.90572 0.367734 0.196351
9.29131 5.84026 4.13637
2.36304 3.27773 2.32529
6.24952 0.531777 2.87568
6.22554 4.10194 9.70757
6.75065 1.73028 6.05991
3.07306 7.79515 0.12665
10 6.37606 9.65045
7.8277 2.96625 4.65932
0.770614 1.64989 8.13449
9.4669 2.20095 0.223138
1.20326 4.10803 5.83621
0.141589 9.7629 9.39428
4.002 6.91298 7.80183
7.08064 3.94649 5.99689
9.34804 2.87508 0.833999
9.44626 4.56171 0.82502
4.53872 0.784897 2.66853
2.70306 9.07654 7.61569
0 0 4.77917
8.04172 5.27342 5.39948
3.42581 8.60631 0.581658
3.59612 1.67843 7.07208
3.13001 9.13827 0.778032
9.25646 4.71546 5.82986
6.17841 2.56203 10
6.79741 4.58333 1.5313
4.06394 0.550144 2.97299
8.60596 5.75961 0.657063
8.45223 0.429858 10
4.48117 0.669878 2.15712
8.36764 0.3103 6.61046
8.87716 9.49384 6.38866
9.76169 9.40047 6.79987
9.49685 4.50725 6.20935
0.884878 8.00448 8.34727
6.56411 4.12554 7.30578
9.53825 2.18808 10
0.327257 1.00467 7.30256
2.42759 0 9.19636
3.21953 2.19511 5.82405
7.18707 2.37768 0.112966
2.0884 0.696684 9.22348
5.9641 2.97089 9.59559
3.21024 8.45576 2.00211
1.10709 4.10132 9.50537
4.56076 2.31799 6.38528
3.60596 0.237644 3.22281
2.18505 3.93735 4.09517
7.42789 4.27744 7.93677
4.15701 5.29402 7.85451
4.93482 4.69101 6.22139
0.818289 4.46111 7.15966
3.43097 8.74151 1.93805
1.19671 4.58456 2.25634
8.77662 4.50768 5.40567
3.52935 7.9781 3.39838
3.85323 0.93718 3.13638
2.11441 2.74363 0.0340907
0.483848 9.87726 4.18587
5.47879 5.10049 0.119482
5.76082 5.84821 7.26963
9.36067 1.33059 0.0202362
4.25541 0.47898 2.49278
7.26183 4.22304 4.80124
2.64752 0.130609 2.19048
2.64644 0.373427 2.45721
4.47866 0.741361 2.19024
4.35477 0.473012 2.31247
6.18089 7.11857 1.19716
2.17822 3.39163 6.60188
5.34744 3.01109 9.99455
5.90784 3.36406 4.14455
7.03101 2.61408 8.56739
3.31572 1.10435 8.76312
5.95786 0 2.80289
3.94802 0.345583 2.74524
4.29793 0.550871 2.7282
3.92615 0 4.25858
2.41373 2.1209 7.80388
8.26308 4.09205 7.45258
5.92319 8.33341 4.21501
4.73219 8.11661 0.0834295
8.08541 2.77371 7.63999
1.92664 3.94633 6.17454
2.83384 7.89514 5.00802
2.72189 8.39278 6.91205
4.01595 0.483935 2.47989
4.12459 0.650158 3.38103
2.67911 2.65134 2.1017
6.56091 7.79913 7.32858
4.96987 7.10974 7.94561
7.31338 6.15788 5.24053
4.38641 0.340161 3.39171
5.51303 3.37774 6.87675
0.625444 4.6192 1.16628
3.78526 7.03559 5.60756
9.25222 1.37477 2.32089
2.51397 8.68277 2.25207
4.20786 10 2.38757
4.05188 0.228951 3.224
4.35913 3.4873 9.02945
3.85719 1.37922 3.79654
1.10698 5.79272 8.62427
4.05232 0.68976 2.55899
4.03016 0.607823 2.79361
7.04656 4.79727 2.20709
3.52742 6.62841 9.70537
1.80329 8.4231 1.55016
5.15006 0.0946238 0.724758
4.13763 0.720225 3.30851
1.14367 0.793553 8.18763
7.2924 4.47209 3.03032
1.82989 4.60727 9.06881
3.01652 6.03929 8.4059
4.3029 0.63671 2.50801
2.70051 4.32507 9.29725
4.10665 0.512164 2.95957
5.36886 0.31381 3.55538
3.59126 1.33394 2.14892
3.65887 0.279921 3.27587
4.27 9.51734 2.08969
9.41405 6.13251 5.58509
7.35274 6.324 3.63835
4.80149 2.84708 0.515653
4.8887 9.29108 3.86478
1.26277 0.0781524 2.69589
3.68757 0.431125 2.21812
9.57142 0.526557 9.28619
1.54357 1.07943 5.62556
7.8451 5.87343 2.36962
0.570087 1.22909 9.22452
1.16689 0.727855 3.67902
5.9712 8.34789 5.66344
1.11581 0.587373 8.09716
2.14696 9.2666 7.41077
1.06067 0.710143 8.11602
0.349477 5.4227 6.32613
5.92565 6.78495 7.35456
0.594312 0.144764 9.25179
7.70126 5.13431 4.55313
6.00013 9.50109 10
9.2344 8.63694 8.62166
1.80576 8.85776 0.756689
1.40365 0.636902 7.83933
9.56915 7.80135 7.70157
3.73611 2.64232 0.14195
4.44543 0.519376 3.67599
8.02764 3.23194 6.55957
8.23705 2.51123 5.23417
7.27247 3.15496 8.36571
9.04591 1.88705 1.79398
9.02736 7.78753 2.42259
4.96551 2.07235 5.60957
9.23476 6.08102 4.99896
0.151295 1.60121 7.27251
4.32033 0.553114 2.82866
5.34899 6.86909 7.75241
8.95476 0.383649 1.08956
1.1047 5.78078 6.86023
3.8899 3.30393 1.24258
6.12523 5.9464 7.06394
0.72852 6.26335 4.13778
4.43905 0.536553 3.14281
1.16194 1.68414 4.68552
7.83442 1.24222 0.649693
9.70117 1.35384 4.97114
4.35742 0.1685 7.27833
9.85808 6.31859 1.16733
4.18365 0.272916 3.9496
9.05795 5.8881 4.41666
2.07884 3.3589 2.7423
0.977994 0.793503 8.40621
4.14257 0.809308 2.62148
4.29058 0.492024 2.51766
3.64921 0.0159301 3.47998
4.16595 0.551153 2.71591
0 8.30569 3.10884
9.35899 3.68046 3.67208
4.16542 0.281546 2.36739
4.45767 4.88558 1.44973
4.46654 0.587313 3.50915
5.99549 3.10949 6.19016
4.49593 0.766288 2.92756
4.25765 0.662982 2.42463
0.427758 3.55766 5.70387
8.95571 5.32486 5.84181
9.58918 8.27719 9.94994
4.52343 1.82039 7.48367
2.28625 4.62762 3.06827
4.02925 0.555038 3.28249
1.06976 5.23964 6.24785
0.811288 9.40981 8.79386
5.95692 4.17078 0.875771
0.787381 1.5735 7.28891
0.433629 2.86008 8.98052
7.88217 2.33344 0.320793
0.986315 0.937575 8.26669
5.37551 4.3387 6.02555
1.43656 0.821891 8.40305
4.16634 0.477454 3.29731
1.09562 0.625389 2.97049
8.39985 2.06354 7.74188
4.00812 0.0475163 2.38653
2.94728 9.61817 0.905647
0.294639 6.2818 8.63957
4.18445 0.64855 3.03082
2.43855 7.43332 0
0.0218929 4.79694 0.559832
2.26078 2.23235 5.72063
0.418058 2.17754 0.512854
9.31554 0.484117 1.1026
2.0851 4.98662 1.49509
5.8141 0 6.66327
4.06111 0.534248 3.18499
0.417064 3.83294 9.45432
6.49576 8.58321 5.10885
9.83466 5.22687 9.81047
0.162136 0.424319 3.10198
0.706252 4.71286 6.96674
1.25351 0.658112 8.26212
3.7875 0.854592 3.20838
3.93747 0.214532 2.96874
9.04961 0.0755589 1.03482
3.98548 0.251537 2.53869
3.67362 0.356454 2.35598
9.6259 1.16458 6.43461
4.43409 0.616956 2.82747
4.20566 0.420458 2.55811
0.269853 7.53332 0.12922
9.34508 5.58365 5.43306
2.81816 0.258334 2.35468
4.15042 0.403054 3.37808
4.34791 2.97043 4.19837
4.20031 9.72612 8.22402
3.55105 0.0481254 2.90576
4.29914 0.526457 2.69824
9.21997 0.49931 1.05879
1.1993 0.624622 8.28478
0.999671 0.610146 8.20749
4.34606 0.873984 2.56717
4.01206 0.785707 3.04214
9.55648 0.38769 1.19568
1.13108 0.626645 8.57645
2.24553 2.44986 0.397455
1.13905 0.68494 8.18928
8.23567 0.925282 2.64984
9.17495 1.01441 1.07326
1.40024 1.29509 5.01632
2.85074 6.52871 8.91809
4.11058 0.500626 2.67169
3.87615 0.943527 3.38825
8.96306 0.757989 1.11676
1.18212 1.1615 8.34063
1.1535 0.580049 8.92428
2.0863 2.64426 9.51189
4.10709 0.684269 3.30648
4.32878 0.384304 2.6821
4.26527 0.412655 2.78874
2.0922 2.59809 9.34027
4.34191 0.563108 3.04413
7.814 3.12564 7.56841
1.24412 0.863085 8.39016
4.01985 0.833001 2.94721
4.49438 0.559273 2.64069
6.6334 3.49677 2.97088
1.61448 0.236083 8.00014
4.79473 0.478427 2.66061
3.9377 0.389248 2.86059
0.526048 0.724352 8.26715
4.13941 0.526598 2.63398
2.05646 3.39997 3.18378
0.894238 0.606464 8.04578
3.97582 0.916601 3.04699
0.320957 9.40986 2.17586
1.64055 1.97057 5.24242
8.73532 0.349007 1.26868
POINT_DATA 400
SCALARS particleColor float 3
LOOKUP_TABLE default
1 5.96046e-08 0
0.0275949 1 0.972405
0.539404 1 0.460596
1 5.96046e-08 0
0.918648 1 0.0813524
1 5.96046e-08 0
0.603298 1 0.396702
1 5.96046e-08 0
0.760622 1 0.239378
0.773488 1 0.226512
0.0546982 1 0.945302
1 5.96046e-08 0
1 0.276874 0
1 0.815363 0
1 0.38827 0
1 5.96046e-08 0
1 5.96046e-08 0
0 0.397521 1
1 0.824586 0
1 5.96046e-08 0
0 0.524379 1
1 5.96046e-08 0
1 5.96046e-08 0
1 5.96046e-08 0
0.975783 1 0.0242172
1 5.96046e-08 0
0 0.539982 1
1 5.96046e-08 0
0.413946 1 0.586054
0.231659 1 0.768341
0.9062 1 0.0937998
1 0.249081 0
0.845622 1 0.154378
1 5.96046e-08 0
1 0.53023 0
1 5.96046e-08 0
1 5.96046e-08 0
0 0.743312 1
1 5.96046e-08 0
1 0.188813 0
1 0.697845 0
1 5.96046e-08 0
1 0.84613 0
1 0.429117 0
1 5.96046e-08 0
1 5.96046e-08 0
1 0.964541 0
1 5.96046e-08 0
1 0.210219 0
1 5.96046e-08 0
1 0.245437 0
1 0.808758 0
1 5.96046e-08 0
1 5.96046e-08 0
1 0.558141 0
0 0.902348 1
1 0.961535 0
0.29507 1 0.70493
0.411271 1 0.588729
1 5.96046e-08 0
1 5.96046e-08 0
0.569697 1 0.430303
0.24768 1 0.75232
0.8972 1 0.1028
0.984046 1 0.0159538
1 5.96046e-08 0
0.462027 1 0.537973
0.457628 1 0.542372
0.586833 1 0.413167
1 5.96046e-08 0
1 5.96046e-08 0
0.949139 1 0.0508614
0.485035 1 0.514965
0.586542 1 0.413458
0.60611 1 0.39389
1 5.96046e-08 0
0.361617 1 0.638383
1 5.96046e-08 0
1 0.623453 0
1 5.96046e-08 0
0 0.51843 1
1 0.594927 0
0.585034 1 0.414966
1 5.96046e-08 0
0.161674 1 0.838326
1 0.551024 0
1 0.857315 0
0.521143 1 0.478857
0.177161 1 0.822839
1 0.609055 0
0 0.720262 1
0.843274 1 0.156726
1 5.96046e-08 0
1 5.96046e-08 0
0.259908 1 0.740092
1 5.96046e-08 0
1 5.96046e-08 0
1 5.96046e-08 0
0.238053 1 0.761947
1 5.96046e-08 0
1 5.96046e-08 0
0.427478 1 0.572522
1 5.96046e-08 0
1 0.550504 0
1 5.96046e-08 0
1 0.438137 0
1 5.96046e-08 0
1 0.735212 0
1 5.96046e-08 0
1 5.96046e-08 0
1 0.177821 0
1 5.96046e-08 0
1 0.617438 0
1 5.96046e-08 0
0 0.659252 1
1 5.96046e-08 0
0 0.678447 1
1 0.900617 0
0.0143765 1 0.985623
0 0.6643 1
1 5.96046e-08 0
1 5.96046e-08 0
1 0.781666 0
1 5.96046e-08 0
0.758629 1 0.241371
0 0.398252 1
0.818919 1 0.181081
1 0.267178 0
0.991552 1 0.00844812
1 0.928169 0
1 5.96046e-08 0
1 0.527165 0
1 0.509683 0
1 5.96046e-08 0
1 5.96046e-08 0
1 5.96046e-08 0
1 5.96046e-08 0
1 5.96046e-08 0
1 5.96046e-08 0
0 0.847766 1
0 0.371129 1
1 5.96046e-08 0
1 5.96046e-08 0
1 5.96046e-08 0
0.405235 1 0.594765
1 5.96046e-08 0
0.199091 1 0.800909
0.762959 1 0.237041
1 5.96046e-08 0
1 5.96046e-08 0
0 0.497226 1
1 5.96046e-08 0
0 0.957111 1
0 0.418003 1
1 5.96046e-08 0
1 0.405958 0
1 0.377025 0
1 0.831292 0
1 5.96046e-08 0
1 0.371497 0
1 0.290318 0
1 0.782319 0
1 5.96046e-08 0
1 5.96046e-08 0
1 0.599074 0
1 5.96046e-08 0
0.695399 1 0.304601
1 5.96046e-08 0
0.528616 1 0.471384
1 5.96046e-08 0
0 0.613737 1
1 5.96046e-08 0
1 5.96046e-08 0
1 5.96046e-08 0
1 5.96046e-08 0
0.100323 1 0.899677
1 0.49327 0
1 5.96046e-08 0
0.320386 1 0.679614
1 5.96046e-08 0
0 0.815966 1
1 5.96046e-08 0
0.190958 1 0.809042
1 5.96046e-08 0
1 5.96046e-08 0
1 5.96046e-08 0
0 0.337404 1
0.280827 1 0.719173
0 0.456135 1
0 0.774365 1
0 0.497582 1
0.172665 1 0.827335
1 5.96046e-08 0
0.354517 1 0.645483
1 0.0517467 0
1 5.96046e-08 0
1 5.96046e-08 0
0.958479 1 0.0415206
0.908191 1 0.091809
0 0.857829 1
0 0.524575 1
1 0.115561 0
0.350254 1 0.649746
1 5.96046e-08 0
0.677097 1 0.322903
1 5.96046e-08 0
1 5.96046e-08 0
0.318586 1 0.681414
1 5.96046e-08 0
1 0.594198 0
0 0.534072 1
0 0.449779 1
0.491949 1 0.508051
1 5.96046e-08 0
1 5.96046e-08 0
1 5.96046e-08 0
0 0.475205 1
0.152407 1 0.847593
1 5.96046e-08 0
1 5.96046e-08 0
1 0.026135 0
0.319866 1 0.680134
1 5.96046e-08 0
0 0.83141 1
1 5.96046e-08 0
0.820699 1 0.179301
1 0.487862 0
0 0.513718 1
0 0.110431 1
0.589363 1 0.410637
1 0.408594 0
0.473292 1 0.526708
1 5.96046e-08 0
0 0.7634 1
0 0.540647 1
0.967268 1 0.0327316
0.56674 1 0.43326
0.290027 1 0.709973
0 0.691403 1
1 0.926148 0
0 0.616105 1
0 0.616009 1
1 5.96046e-08 0
0 0.453342 1
1 0.875427 0
1 5.96046e-08 0
0.182439 1 0.817561
1 5.96046e-08 0
1 5.96046e-08 0
0.193671 1 0.806329
0 0.572341 1
1 5.96046e-08 0
1 5.96046e-08 0
1 5.96046e-08 0
0.127561 1 0.872439
0.134667 1 0.865333
1 0.209434 0
0 0.191902 1
1 5.96046e-08 0
0 0.924841 1
0.788144 1 0.211856
0.786272 1 0.213728
0.0867278 1 0.913272
1 5.96046e-08 0
1 5.96046e-08 0
1 0.477816 0
0.511628 1 0.488372
0 0.527432 1
1 0.225782 0
1 0.732579 0
0 0.464811 1
1 0.169097 0
1 5.96046e-08 0
1 0.839226 0
1 0.135285 0
0.824595 1 0.175405
0.399735 1 0.600265
1 5.96046e-08 0
1 0.649938 0
0 0.354189 1
1 0.435609 0
0 0.501712 1
0.29236 1 0.70764
1 0.505393 0
1 0.886681 0
1 0.182725 0
0 0.258691 1
0 0.389972 1
0.462894 1 0.537106
1 0.646867 0
1 5.96046e-08 0
1 5.96046e-08 0
0 0.675546 1
1 5.96046e-08 0
1 5.96046e-08 0
0 0.354488 1
0 0.384729 1
0 0.612072 1
0 0.642363 1
0 0.525248 1
1 5.96046e-08 0
1 5.96046e-08 0
0.128904 1 0.871096
1 0.979136 0
0 0.748041 1
1 5.96046e-08 0
0 0.297461 1
0 0.592869 1
0.567008 1 0.432992
0 0.727903 1
0.236399 1 0.763601
1 5.96046e-08 0
0.622731 1 0.377269
0 0.583544 1
1 5.96046e-08 0
0.437869 1 0.562131
0.55512 1 0.44488
1 5.96046e-08 0
1 0.495268 0
0.647305 1 0.352695
0 0.764265 1
1 5.96046e-08 0
0 0.390599 1
0 0.542217 1
0 0.568946 1
0.614943 1 0.385057
0 0.435977 1
1 5.96046e-08 0
0.0781322 1 0.921868
0 0.419638 1
1 0.488459 0
0.351604 1 0.648396
0.395367 1 0.604633
0.0495597 1 0.95044
0 0.656838 1
1 0.37051 0
1 0.625136 0
0 0.505987 1
0 0.542893 1
1 0.904229 0
0.391491 1 0.608509
1 5.96046e-08 0
0 0.662412 1
0 0.500604 1
0 0.477328 1
0.180369 1 0.819631
0 0.511919 1
0 0.739919 1
0 0.682782 1
1 0.648208 0
0 0.818104 1
0 0.694055 1
1 5.96046e-08 0
1 5.96046e-08 0
0 0.586295 1
0.0646259 1 0.935374
0.644572 1 0.355428
1 0.804341 0
0 0.462945 1
0 0.755724 1
0 0.372002 1
0 0.730228 1
0 0.53475 1
0.36942 1 0.63058
0 0.891189 1
0 0.652819 1
0.0537523 1 0.946248
1 0.452311 0
0 0.426642 1
1 0.189844 0
0 0.913111 1
0.366993 1 0.633007
1 5.96046e-08 0
0 0.914751 1
0 0.750268 1
0 0.532806 1
0 0.396235 1
0 0.449514 1
0.0789104 1 0.92109
0 0.770356 1
0 0.781098 1
0 0.688782 1
0.372618 1 0.627382
0 0.651741 1
1 5.96046e-08 0
0 0.519379 1
0 0.606333 1
0 0.464002 1
1 5.96046e-08 0
0.85506 1 0.14494
0 0.944829 1
0 0.445967 1
0 0.766981 1
0 0.676185 1
1 0.577484 0
0 0.674728 1
0 0.479928 1
0.302036 1 0.697963
0.448596 1 0.551404
0 0.760478 1
