# vtk DataFile Version 3.0
Particle simulation
ASCII
DATASET POLYDATA
POINTS 400 float
3.61929 3.991 4.31768
1.03823 5.0015 5.27762
5.0664 3.83602 3.90095
9.94193 0.720162 9.43607
4.95067 3.16593 4.71417
8.61365 7.79715 9.86409
8.02526 1.77855 6.57883
7.15197 3.66549 7.39854
5.84588 4.90367 6.43742
9.60262 0.447299 4.45213
0 4.5061 1.22908
1.35915 5.07903 0.869914
7.90739 2.93218 6.58336
3.81541 2.89096 1.14715
2.7976 9.71986 3.48997
6.31115 2.6123 9.02157
0.351651 1.37544 8.18845
3.92847 0.485019 2.26424
9.14571 7.47897 2.69422
1.18356 2.63232 9.07174
3.854 0.518212 2.38435
1.33908 4.75631 5.68458
3.77607 9.09636 8.84391
7.609 5.13367 9.3016
3.55956 8.00229 1.1095
0 0 2.16734
3.35688 2.74421 7.11714
3.39459 2.23684 6.90762
6.87086 0.674668 4.79968
1.50889 1.49012 6.86614
6.21247 8.40612 5.76093
7.94403 4.63138 0.476839
2.80307 7.52158 0.116475
6.59522 6.88381 8.7712
0.857075 0.461209 1.64357
8.11048 0.776073 4.30681
10 0.447061 9.68925
4.3443 0.528651 2.83978
2.73455 6.85624 4.665
4.90323 4.66939 9.75477
7.08982 3.46959 1.01361
7.56523 8.51803 0.252466
2.3788 6.91858 9.06377
9.28369 4.18088 0.74541
6.87879 4.02434 6.1831
9.42508 4.97254 3.58564
2.0807 7.53951 6.21836
0.633905 2.77403 5.44099
1.76714 5.26067 5.68529
8.5848 0.529537 1.73135
0.43468 8.70232 7.07664
9.10491 5.18887 8.28183
9.94165 7.42823 2.76192
9.13429 3.44016 3.71794
5.78107 4.43515 6.30964
0.974761 0.346204 7.98961
0.831008 6.76089 2.28263
3.56519 2.47677 6.74663
4.5189 2.06283 9.61251
1.10236 6.0327 0.786326
1.89475 9.72227 0.618695
0.432582 6.11859 4.8283
3.39726 0.215239 7.2534
0.184583 6.59292 7.0959
3.65294 8.73937 9.03297
3.05139 7.32563 3.67606
3.67452 6.57861 6.27015
4.54338 0.872872 5.24637
0.957336 6.65088 1.66856
7.091 0.750924 6.23791
5.88805 5.91186 6.42008
5.82758 5.65096 5.79658
4.63615 9.34367 8.42305
8.19934 2.50331 3.97593
8.55894 0.104101 4.87087
3.51321 6.50279 7.86047
2.94534 5.83722 7.24677
5.4301 7.26892 1.20935
3.68374 7.27239 2.20208
8.71717 6.68614 8.50302
3.91025 0.58409 2.35315
7.11323 0.257401 0.329868
5.04418 0.0643296 8.99904
3.39954 6.68247 8.11342
4.96223 7.38355 0.817654
9.36 2.84196 9.48043
9.16082 0.503002 4.40374
3.09868 8.22505 7.65282
3.33005 7.7019 4.21531
2.4064 3.10115 3.15181
3.28137 0.293092 2.86151
2.9595 4.35528 0.588436
0 7.97927 10
1.65863 6.04143 5.24487
6.48061 8.5288 6.74201
2.8978 7.98373 4.4522
8.31089 7.52565 9.89262
8.35236 8.23082 4.94923
8.25736 3.98577 7.51784
4.14541 0.239499 4.80462
3.35923 1.94337 0.160233
7.98136 5.25951 4.59745
7.58994 5.44355 0.409886
4.92006 3.98924 8.11442
6.37111 0.396011 5.5855
2.30918 5.07275 8.12826
8.01066 2.2682 6.03772
1.03042 7.1499 9.84741
3.79017 0 5.32984
9.12889 5.52678 1.81726
7.37539 9.26117 5.90279
1.70741 9.79003 9.22951
0.99087 5.77725 2.76932
8.74634 5.86929 2.33413
3.98345 0.428428 2.35781
9.02776 0.734092 7.64797
0.26623 0.397661 8.36278
3.46411 9.79967 0.297211
0.502732 0.413982 0.154499
5.37613 6.68232 0.980748
8.58604 2.55501 0.642883
4.93047 8.31802 1.91998
2.99723 3.34357 5.29635
9.07579 0.808424 4.90493
5.79904 9.69458 6.20015
3.83499 1.01281 0.541922
7.20719 1.84101 0.916834
5.69281 7.81208 1.1209
3.2377 1.09969 4.06665
9.59738 6.6281 1.03508
7.2121 7.67952 8.1302
4.46827 8.40513 4.38701
8.92623 8.17256 5.11928
3.28776 3.91594 0.124201
6.00818 9.61567 6.14079
9.78156 7.19884 0.250013
2.78404 2.27465 8.55832
4.61389 4.31375 4.21457
9.23088 7.98131 5.82067
9.10439 8.09232 2.57659
3.90882 0.0835073 1.98954
6.44428 7.46185 3.96841
6.74723 4.96741 5.66027
2.01038 10 6.9361
4.14414 0.160299 1.63428
9.36775 2.63399 4.41522
9.83169 3.52974 0.342153
9.73453 8.05244 1.18182
3.42213 1.97319 5.9867
5.91075 3.68515 8.79884
3.81533 0.457254 2.24898
1.48143 5.97913 9.1826
3.51998 3.62199 5.30394
3.42266 0.287037 2.96365
0.217785 5.20203 5.7304
4.05086 4.29869 5.63631
10 7.0545 0.782399
5.49438 10 2.18751
5.91149 4.38745 2.36694
0.774815 6.39438 5.17238
7.38713 9.9298 3.35535
3.64784 3.95426 2.56701
2.01648 5.18323 4.04751
2.65715 5.51214 4.68338
2.64518 7.7482 2.10242
7.5296 5.10837 2.10119
0.560258 2.43807 3.64367
7.71744 6.51072 2.95515
0.0117956 0.229666 9.40898
6.60508 5.69756 1.85951
3.31526 0.474636 2.55311
0.528599 0.248475 7.19923
1.90717 7.89452 3.46634
9.03044 5.75811 3.65727
0.0848291 8.35216 5.87337
0.172623 1.67644 5.63067
7.53189 9.32407 6.13841
7.83859 7.52933 8.42373
8.23523 5.56554 0
5.56614 0.0978445 1.51561
4.12151 0.448462 2.09051
6.79195 10 8.68953
3.10829 9.01259 7.71581
4.35072 0 10
7.33943 9.48421 0.192505
0.678955 3.82716 3.86056
3.77319 0.431851 2.11375
2.84654 6.62042 0
4.13937 0.669621 3.10434
4.12375 0.0558542 2.34757
3.27001 0.211122 3.01727
3.19516 0.691841 3.26423
5.53406 0.146801 0.0638565
7.33415 3.39396 9.13976
8.81093 5.5916 8.5457
0 7.72679 7.10211
0.539567 6.67314 8.32845
7.94492 2.12794 4.53378
2.26539 0 9.72242
3.3287 0.357959 3.1596
3.58476 0.190079 1.95106
9.9883 4.07428 8.70867
2.00053 5.30474 6.42793
7.03739 5.66668 3.04656
6.50583 4.4121 7.75514
2.92921 2.25644 1.0574
7.15935 0.736199 4.52192
7.42521 3.13198 9.88397
5.40292 1.09498 9.08376
1.53357 2.6457 2.78274
3.02915 0.190927 2.85125
3.58142 0.452695 2.31717
0.392602 0.829259 4.24274
5.09976 0.363764 4.4273
2.59443 3.93916 3.08344
4.67616 2.47787 9.24209
3.69029 0.374515 2.70303
2.36891 2.39006 3.34171
1.28829 4.48589 6.34417
5.80498 2.13918 5.06238
9.79987 10 0.387493
7.69933 6.76416 3.32212
7.69449 0.0719777 1.71872
3.49145 0.801752 3.10558
9.02184 3.6873 0.758959
4.98249 6.02531 0.270071
9.93517 5.04863 7.85488
3.97383 0.11189 1.8808
4.04776 0.272765 2.12775
7.61923 9.54498 0.782317
8.51544 5.04423 6.30582
2.35146 6.68788 5.17319
2.76139 6.49707 9.26127
3.49635 0.217453 2.35342
0.342072 0.426596 8.59997
9.92912 2.17378 5.07436
6.61138 1.98171 8.06679
3.01427 0.679511 8.78675
3.51112 0.231493 2.99307
3.27567 9.19658 9.61013
3.78393 0.33562 2.16869
3.85434 0.574508 2.26984
5.07782 5.78309 9.46595
3.93246 0.185048 1.8117
6.98234 1.54999 4.64306
5.37473 9.49408 1.33535
2.29304 3.07922 4.92505
9.05314 2.82584 10
9.06426 6.68392 0.537606
2.90395 3.58885 2.34061
3.11551 0.159227 2.67676
2.08461 7.13359 1.24565
3.99775 8.61176 0.00560743
9.21742 4.60273 0.370318
1.04064 4.28648 6.94517
1.29066 0.447156 3.25066
1.34583 5.89043 9.73056
0.153028 0.36951 8.59838
9.64395 3.28244 2.87462
0.463631 0.418554 8.69395
4.36879 0.0927603 1.77289
9.73962 1.25843 9.56127
4.28701 2.15693 5.69589
0.0757447 0.235759 6.64079
0.0648113 0.304926 4.62941
3.79434 1.32326 0.485257
2.28216 1.80657 3.49589
0.34244 0.395204 8.70591
1.38121 9.53498 3.31267
2.46562 0.561185 1.51955
3.97947 0.00164393 2.3931
1.76656 7.42865 8.64547
6.733 3.19762 1.81529
0.0506282 1.90363 5.10925
4.00935 1.0505 4.77304
2.79013 3.54195 4.54329
8.29048 4.29867 6.38223
4.55396 0.878257 1.14189
7.33422 1.57202 9.25727
3.6698 0.275557 2.17272
0.264676 2.95724 6.47062
8.4003 0.544413 0.555128
8.13402 9.36345 2.28666
1.92948 0.604885 1.60465
9.55677 0 7.32699
7.14174 9.79727 8.53174
3.57875 0.465625 2.2241
3.49088 0.993333 5.02335
4.50052 1.91203 9.61156
5.09961 6.93423 5.5543
8.4918 4.59737 5.71011
7.38904 6.95745 6.5849
3.48458 0.299064 2.53719
4.34447 9.18125 4.89599
5.28208 3.89075 8.09621
0.28845 0.501352 8.31602
3.95715 0.0312308 2.17313
3.38204 0.381335 1.94542
3.70321 0.58456 2.03873
3.91018 0.380305 2.13182
3.0176 1.08852 6.85375
8.19894 0.812948 0.606668
3.42421 1.00088 1.48186
3.66223 6.73604 4.99211
3.48671 0.679222 2.4468
7.14311 9.647 0
4.00086 0.220607 2.16453
3.89501 0.428617 2.18565
2.19778 0.454625 9.35527
7.86443 4.34709 6.28552
3.3747 9.49881 5.57577
3.55004 0.425672 5.22707
3.73006 8.60715 0.699061
3.63399 0.457061 2.74881
6.86752 7.22888 5.29596
3.30899 7.60193 4.23776
3.56608 1.14324 0.766314
9.80652 6.39611 0.132076
5.90536 6.49021 4.58387
9.54003 8.12472 2.31372
0.643701 0.380173 8.39691
7.26776 8.95051 8.33597
0 0.439091 8.24863
3.38502 0.508003 2.42379
0.588618 0 7.53051
6.20745 0.585103 2.48757
3.29258 0.416594 1.72956
9.29278 2.30659 2.13028
5.88085 8.94187 9.97049
3.37193 0.40772 2.57778
8.4203 1.02302 10
2.69819 0.581521 1.6364
1.25344 0.785286 8.50961
1.37304 0.317981 3.29923
8.41488 0.66412 0.610858
0.179914 0.274719 9.22389
8.0466 6.16245 4.17511
3.42732 0.213204 2.54446
1.16375 1.51653 8.34726
9.72014 1.39595 7.49617
7.50743 9.72594 2.39637
8.99815 9.49647 2.87713
0.863443 2.46528 9.30966
0.330762 0.345423 8.63217
3.69304 0.119834 2.75799
4.17979 0.594796 3.08703
8.36699 0.91999 0.994552
3.61675 0.495737 2.37646
3.14105 0.100886 2.0088
8.00346 4.63635 1.56712
3.53451 0.196538 2.43747
3.83009 0.377397 2.47859
1.93297 8.07385 3.26897
5.63335 6.08183 0.907129
4.0635 0.21595 2.56719
3.27592 0.378626 3.08639
3.53804 1.24279 0.730629
0.639538 2.33875 9.18701
2.91214 0.420289 2.88429
3.90848 0.458409 2.04326
8.20178 0.70224 0.399094
0.247994 0.428201 8.30691
0.184651 0.448347 8.66589
3.81623 0.388623 2.72216
3.85927 0.289537 2.15953
8.00316 0.912756 0.313584
0.18076 0.520621 7.92019
5.37745 0.334355 2.24163
0.156865 0.381572 8.34657
1.43905 2.06816 8.17438
8.32145 0.124059 0.847473
2.89547 1.45135 8.03382
1.83143 0.467245 5.82794
3.38829 0.443039 2.27763
3.41836 0.0667765 3.10039
8.24127 0.366538 0.534768
0.0339423 0.0369851 8.43243
0.171891 0.588974 8.37047
3.1348 1.1588 8.69928
3.14669 0.176519 2.60012
3.57564 0.623231 2.57544
3.70508 0.313453 2.30372
3.16808 1.27611 8.80953
3.51008 0.206776 2.09366
9.81051 2.11262 1.00996
0.351663 0.470614 8.63542
3.72257 0.185742 2.74801
3.50913 0.374461 2.37846
8.47963 6.07166 8.65673
6.46962 1.22333 8.32831
3.77718 0.265863 1.8313
3.99652 0.333338 2.19099
0.820571 0.546157 8.47226
3.95561 0.190026 2.17743
3.70436 0.817514 0.184843
0.277373 0.505098 8.67052
3.75207 0.169442 2.73135
0.22557 3.52045 0.951792
2.94799 0.71479 0
8.54529 0.612673 0.552086
POINT_DATA 400
SCALARS particleColor float 3
LOOKUP_TABLE default
0.488573 1 0.511427
0 0.715233 1
1 5.96046e-08 0
1 0.327424 0
0.661094 1 0.338906
0.606664 1 0.393336
0.372711 1 0.627289
1 5.96046e-08 0
0.921391 1 0.0786089
1 0.242901 0
0.0674122 1 0.932588
0.503993 1 0.496007
1 5.96046e-08 0
1 0.591374 0
1 0.0430732 0
1 5.96046e-08 0
1 5.96046e-08 0
0 0.24693 1
1 5.96046e-08 0
1 0.613907 0
0 0.729917 1
1 5.96046e-08 0
1 5.96046e-08 0
1 5.96046e-08 0
0.140585 1 0.859415
1 5.96046e-08 0
0.507636 1 0.492364
0.296927 1 0.703073
1 0.823137 0
1 0.549057 0
0.317639 1 0.682361
1 0.963867 0
1 0.224905 0
1 5.96046e-08 0
1 0.0150448 0
1 5.96046e-08 0
1 5.96046e-08 0
0 0.591171 1
1 5.96046e-08 0
1 5.96046e-08 0
0.952367 1 0.0476329
1 0.672086 0
1 5.96046e-08 0
1 0.550132 0
0.209039 1 0.790961
1 5.96046e-08 0
0.947066 1 0.0529338
1 5.96046e-08 0
0.498454 1 0.501546
1 5.96046e-08 0
1 5.96046e-08 0
1 0.467119 0
1 5.96046e-08 0
1 0.939432 0
1 0.793994 0
0 0.747593 1
0.310614 1 0.689386
0.6584 1 0.3416
1 5.96046e-08 0
1 0.463366 0
1 0.971136 0
1 0.229623 0
0 0.584272 1
0.609254 1 0.390746
0.418628 1 0.581372
1 0.0113064 0
1 5.96046e-08 0
1 0.718732 0
1 0.768599 0
1 0.803481 0
1 0.803394 0
1 0.219448 0
1 0.11888 0
0.367158 1 0.632842
0 0.350418 1
1 0.429988 0
1 0.119579 0
1 5.96046e-08 0
0.778498 1 0.221502
1 0.443651 0
0 0.567573 1
1 5.96046e-08 0
0 0.859201 1
1 5.96046e-08 0
1 0.923593 0
1 0.456568 0
1 0.322122 0
1 0.796665 0
1 0.954918 0
0.314938 1 0.685062
0 0.578441 1
1 0.752017 0
1 5.96046e-08 0
1 5.96046e-08 0
0.519097 1 0.480903
1 0.73251 0
1 0.557808 0
0.517533 1 0.482467
0 0.826656 1
1 5.96046e-08 0
0 0.582057 1
0.746931 1 0.253069
0.632504 1 0.367496
1 5.96046e-08 0
1 5.96046e-08 0
1 0.745052 0
1 5.96046e-08 0
0 0.802026 1
0.745101 1 0.254899
1 5.96046e-08 0
1 0.88985 0
0 0.870366 1
0.907148 1 0.0928516
1 5.96046e-08 0
0.00271869 1 0.997281
0.431741 1 0.568259
0 0.203533 1
1 0.350258 0
1 0.219474 0
1 0.945968 0
1 5.96046e-08 0
0.997551 1 0.00244904
1 0.0740029 0
1 0.0987983 0
0.119376 1 0.880624
0.131668 1 0.868332
0.346158 1 0.653842
1 0.0254287 0
0 0.530029 1
0.350817 1 0.649183
1 5.96046e-08 0
1 5.96046e-08 0
1 5.96046e-08 0
1 5.96046e-08 0
0.839114 1 0.160886
1 5.96046e-08 0
1 5.96046e-08 0
1 5.96046e-08 0
1 0.913283 0
0.474601 1 0.525399
0 0.644913 1
1 5.96046e-08 0
1 5.96046e-08 0
1 5.96046e-08 0
0 0.588204 1
0.544773 1 0.455227
0.988275 1 0.0117248
0.741627 1 0.258373
1 0.487771 0
1 5.96046e-08 0
0 0.684805 1
1 0.185224 0
1 0.919717 0
0 0.790215 1
1 0.206282 0
1 5.96046e-08 0
0.13606 1 0.86394
1 0.856857 0
1 5.96046e-08 0
1 5.96046e-08 0
1 5.96046e-08 0
0.17503 1 0.82497
1 0.54888 0
0.977563 1 0.0224373
1 0.803003 0
0.668205 1 0.331795
1 0.24395 0
0.864359 1 0.135641
1 0.859644 0
0.444625 1 0.555375
0 0.509679 1
1 5.96046e-08 0
0 0.688151 1
1 0.200587 0
0 0.914923 1
1 5.96046e-08 0
1 5.96046e-08 0
1 0.653887 0
1 0.73397 0
1 5.96046e-08 0
0 0.507768 1
1 5.96046e-08 0
0.377406 1 0.622594
1 5.96046e-08 0
1 5.96046e-08 0
0.0274947 1 0.972505
0 0.62394 1
1 5.96046e-08 0
0 0.740654 1
0 0.902506 1
0 0.459146 1
0 0.340078 1
1 5.96046e-08 0
0.129788 1 0.870212
0.850061 1 0.149939
1 5.96046e-08 0
1 5.96046e-08 0
1 5.96046e-08 0
0.707276 1 0.292724
0 0.449923 1
0 0.149893 1
1 5.96046e-08 0
0.490982 1 0.509018
0 0.685925 1
1 0.406524 0
1 5.96046e-08 0
1 0.772396 0
0.836071 1 0.163929
0 0.587305 1
1 5.96046e-08 0
0 0.611369 1
0 0.474239 1
1 0.793076 0
1 0.990212 0
0 0.970019 1
0.352952 1 0.647048
0 0.771212 1
0.257117 1 0.742883
0 0.783373 1
1 5.96046e-08 0
0.642481 1 0.357519
1 0.296935 0
0.622927 1 0.377073
0 0.659855 1
1 0.506917 0
1 0.452962 0
0 0.617462 1
0 0.772349 1
0 0.360494 1
1 5.96046e-08 0
0.718247 1 0.281753
0.764286 1 0.235714
1 5.96046e-08 0
0 0.714619 1
0 0.485667 1
0 0.281979 1
0.676508 1 0.323492
0.132025 1 0.867975
0 0.599924 1
0.370991 1 0.629009
0 0.527275 1
0.234331 1 0.765669
1 5.96046e-08 0
0 0.841158 1
1 0.320869 0
0.460159 1 0.539841
1 0.581526 0
1 0.872594 0
1 5.96046e-08 0
1 0.219694 0
0 0.996895 1
1 5.96046e-08 0
1 5.96046e-08 0
1 0.691077 0
0.872567 1 0.127433
0.360975 1 0.639024
1 5.96046e-08 0
0 0.727655 1
1 5.96046e-08 0
0 0.223392 1
0.0704301 1 0.92957
0.854392 1 0.145608
0.640707 1 0.359293
0.989031 1 0.0109692
0 0.952297 1
1 5.96046e-08 0
1 0.901458 0
0 0.815206 1
0.336731 1 0.663269
0.133649 1 0.866351
0 0.677841 1
1 0.458041 0
1 5.96046e-08 0
1 5.96046e-08 0
0.105147 1 0.894853
0.745767 1 0.254233
0 0.933783 1
1 0.402467 0
1 0.488082 0
0 0.16567 1
1 5.96046e-08 0
0 0.751185 1
1 5.96046e-08 0
0.285971 1 0.714029
1 0.353506 0
1 0.0422759 0
0 0.810002 1
0.145632 1 0.854368
1 5.96046e-08 0
1 0.135243 0
0 0.790941 1
1 5.96046e-08 0
0.102667 1 0.897333
1 0.389937 0
0.692987 1 0.307013
0 0.960625 1
0 0.191637 1
0 0.426137 1
0.268431 1 0.731569
0 0.490311 1
1 5.96046e-08 0
0.0720458 1 0.927954
0 0.342089 1
0.336075 1 0.663925
0 0.671331 1
1 5.96046e-08 0
0 0.832136 1
0 0.705311 1
1 0.742477 0
0.422886 1 0.577114
1 5.96046e-08 0
1 0.607516 0
0.25054 1 0.74946
0 0.639372 1
1 5.96046e-08 0
0.606163 1 0.393837
0.297456 1 0.702544
1 5.96046e-08 0
1 5.96046e-08 0
0.894954 1 0.105046
0 0.792548 1
0 0.952773 1
0 0.528916 1
0 0.664534 1
0 0.641073 1
0.906745 1 0.0932553
0 0.518584 1
1 0.330444 0
0.498086 1 0.501914
0 0.211385 1
1 5.96046e-08 0
0 0.805138 1
0.609951 1 0.390049
0 0.667388 1
0 0.713685 1
1 5.96046e-08 0
0.660263 1 0.339737
0 0.239015 1
0 0.801565 1
1 5.96046e-08 0
1 0.272583 0
0.0744697 1 0.92553
0.132707 1 0.867293
0 0.239879 1
0 0.329646 1
0 0.876852 1
0 0.554698 1
0 0.805265 1
0 0.774022 1
0.835913 1 0.164087
0 0.833859 1
0 0.389294 1
0.268314 1 0.731686
1 0.529701 0
0.155676 1 0.844324
0 0.477148 1
0 0.288487 1
0.232251 1 0.767749
0 0.525276 1
0 0.482987 1
0 0.781622 1
0 0.57548 1
0 0.168486 1
0.275324 1 0.724676
0 0.850154 1
0 0.306678 1
0 0.686495 1
1 0.834814 0
0 0.876846 1
1 5.96046e-08 0
0 0.471693 1
0 0.646662 1
0.676532 1 0.323468
0 0.714579 1
0 0.418135 1
0 0.416032 1
0 0.259558 1
0 0.896864 1
0 0.640442 1
0 0.254397 1
0 0.428272 1
0 0.547462 1
0 0.795553 1
0 0.486251 1
0 0.831207 1
0 0.917089 1
0 0.293489 1
0 0.428962 1
0.265564 1 0.734436
1 0.9933 0
0 0.948811 1
0 0.887366 1
0 0.3075 1
0 0.513297 1
0 0.328005 1
0 0.847524 1
0 0.596904 1
1 0.864461 0
0.592984 1 0.407016
0 0.473206 1
