# vtk DataFile Version 3.0
Particle simulation
ASCII
DATASET POLYDATA
POINTS 400 float
5.18188 1.32599 10
1.32449 4.31666 2.21497
0.507806 2.57909 2.97967
2.45413 0.463235 0.860178
8.83127 1.4496 3.73487
7.86775 1.7841 4.72908
8.59513 3.81552 2.12599
3.18744 4.79394 1.20016
6.93428 3.81127 1.06024
7.8436 1.18797 3.67359
3.20536 0.0992827 0.698203
2.24091 1.57446 2.32615
7.08756 5.67528 5.23751
3.84598 0.313644 0.685413
7.66746 2.42511 3.82965
9.0827 4.21441 8.90755
3.1104 5.9113 0.644808
1.2631 1.16202 3.0913
1.79713 8.33926 9.95932
7.84131 1.13549 3.69173
3.6104 0.476657 2.76521
0 0.650418 3.50897
2.78033 6.21564 6.7848
7.69738 0.609063 3.81293
9.31208 8.32085 9.61699
3.90041 0.414357 2.0614
7.43267 6.72548 1.96841
2.78107 0.897409 2.04776
6.74913 0.553749 6.15402
2.08535 0.200343 2.7379
8.98484 4.80422 4.29603
9.34817 0.288785 0.857968
3.63328 1.16337 7.98132
7.62036 0.631495 3.78742
2.12914 1.17748 3.18889
1.13982 0.409659 0.879848
6.96285 0.818275 9.72071
2.25696 0.259297 1.91061
6.1128 0.523022 0.319027
3.92281 0.646724 1.05246
3.3199 0.314903 3.46784
8.20685 6.36105 4.38922
4.66459 6.00578 5.62024
9.15236 4.34381 4.07049
8.82755 0.328201 8.38444
5.84805 0.248132 2.06288
7.81873 2.52863 4.91808
2.6714 0.599709 1.35976
5.76931 0.4685 1.85839
7.76366 6.17572 5.03095
0.48215 3.38721 2.57427
8.16444 6.37678 4.35082
5.86394 0.479468 5.51641
7.50689 0.660181 3.73229
9.37006 0.432698 8.31227
5.82844 0.196358 2.00757
4.27822 1.12529 8.39651
2.83301 0.615903 1.2009
5.64938 0.40997 1.81465
0.383697 3.10244 8.03063
5.89492 1.80156 7.9467
4.69185 0.611347 7.16013
1.75981 0.164489 2.83343
7.78834 1.14692 3.73818
7.45705 0.518382 5.77375
8.95464 0.255247 5.56289
6.51136 0.735971 5.88523
0.394398 3.40919 2.32079
5.42083 0.312921 1.93976
4.53988 1.0141 8.46863
5.24595 0.798635 7.68341
2.39307 1.15427 2.04222
8.47009 1.31561 5.80013
7.81631 1.12041 3.72388
7.12017 0.153388 9.95433
6.87336 1.04453 9.50529
6.53451 0.754895 5.90314
4.43304 0.59963 8.36806
5.47264 0.519705 1.85886
4.50343 0.279724 7.68529
2.40814 0.25809 1.58388
2.31612 0.402846 3.07976
2.5567 1.57869 2.34949
2.39249 0.287209 1.86603
4.76898 0.201823 7.42659
4.9032 0.248551 7.75917
5.08798 0.0504099 7.47989
7.69762 0.380729 1.78332
3.98298 1.59149 1.68171
9.46035 0.414917 1.2119
2.27725 0.519674 1.93519
1.7801 0.824863 0.462583
1.46599 2.90985 8.77799
2.37987 0.257679 1.84575
4.79489 0.213116 7.3947
4.80803 0.277765 7.86274
5.21854 0.365761 8.40607
2.32434 0.629152 0.436817
5.28379 1.07003 6.62229
9.49948 0.422965 1.22893
2.31735 0.397577 1.49788
3.75428 0.0867574 9.52743
0.988526 0.253433 1.03828
7.42592 0.365407 5.56333
8.52125 1.42524 0.0984435
2.84306 0.289682 1.37423
5.12585 0.187759 7.95601
5.93437 0.438235 1.50645
5.69776 0.412749 1.8305
9.65354 0.153185 1.65202
0.419496 3.11971 2.73536
7.28598 0.426196 3.63399
3.32946 0.533149 2.70318
9.34454 0.334022 1.13828
2.52627 0.566872 1.15408
1.91317 0.442825 0.541483
4.67832 0.975015 8.49508
5.7145 0.348521 1.31541
5.62482 0.372102 1.82977
1.03286 0.53929 0.877702
2.24903 0.399167 1.89916
8.89674 3.67297 2.43055
6.00852 1.56405 8.85777
5.09104 0.0771921 7.04727
3.82492 0.218796 9.36733
1.7634 0.424 2.92777
3.34396 0.401261 1.09651
7.51657 0.646792 3.65068
1.22601 2.12565 7.81794
4.06617 0.78636 0.987732
2.18802 0.372278 1.88127
5.59319 0.730111 1.7058
5.1095 0.456376 7.88161
6.75911 0.435353 5.91541
4.88297 0.491161 6.15547
1.78872 0.360612 3.12368
0.28471 4.8916 8.38249
7.40728 0.644237 3.57095
4.24472 0.422001 7.80168
6.43163 0.721185 6.09655
2.96347 0.185475 1.63572
6.84547 0.666533 6.46862
0.756666 0.786251 5.81426
0.551592 0.587936 0.632128
2.27035 0.290151 1.82856
2.6597 0.241386 0.843444
9.52111 0.429665 8.37241
1.79998 0.401019 3.04459
2.68007 0.384041 1.35597
1.89008 0.00284074 2.42282
2.96773 0.201422 1.62108
6.51765 0.727913 5.93187
2.46443 1.19907 2.39544
5.21078 0.153542 6.95851
2.79387 2.05198 0.46699
2.70421 0.315299 1.01302
8.93748 0.155027 8.6719
2.50041 0.40251 1.84581
6.38521 1.01405 5.91668
2.94008 0.536841 2.16047
1.14916 0.264516 0.706269
0.548185 2.66408 2.7971
4.7711 0.142152 7.41747
1.83087 0.018106 2.99086
0.437984 3.32765 2.53073
6.46934 0.781281 5.86328
5.28294 0.422982 8.61253
4.84697 0.876605 8.15649
6.77836 2.71063 9.03383
6.9947 4.41212 0.517042
2.07815 0.226062 0.876891
2.2698 0.134774 0.649309
4.02434 0.610558 8.97206
2.24979 1.46288 2.61213
2.16108 0.290108 3.09881
1.16476 0.012533 1.28527
4.71407 0.981216 8.52793
4.35955 0.769212 8.1753
4.0766 0.505192 8.09475
1.91463 0.238217 0.842385
2.38515 0.206871 2.00959
1.58598 0.212018 2.77925
6.00093 2.97841 8.80154
2.44627 1.48621 2.21212
4.80111 0.306704 7.5005
2.48806 0.453809 2.11328
2.85187 0.924183 0.71787
1.45663 3.07565 8.91079
3.40023 0.319748 3.82239
2.33175 0.184015 2.26177
2.33565 0.207063 2.00083
2.50869 0.480231 1.15784
4.71231 0.307285 7.6168
2.16957 3.54363 1.66831
5.96635 6.43752 9.62443
2.22862 0.568366 2.18828
3.4106 0.365819 2.8147
1.00116 4.71701 7.73737
2.09272 0.0228928 2.6815
1.63016 0.651116 2.94125
3.14422 0.410393 2.51042
5.46623 0.20228 2.1641
9.39874 0 8.79951
5.41912 0.402663 7.07413
7.02508 0.400063 7.14901
4.82523 0.825396 8.51485
2.56452 0.452948 2.13425
3.22977 0.476498 0.549608
1.9419 0.502084 0.742972
9.59001 0.506362 1.10788
2.35092 0.522917 2.22119
5.74562 0.590353 2.24708
4.91898 0.340939 8.35787
6.41187 0.498495 6.52672
6.53828 0.627478 6.18865
4.66383 0.791023 8.48415
2.5356 0.422372 2.15128
2.83337 0.697198 2.19051
1.34911 1.08034 3.1919
9.51487 0.485303 1.09353
7.88094 5.77334 5.32456
2.22801 0.358455 7.36622
5.03665 0.320886 7.33614
2.29534 0.320036 1.68406
4.91538 0.535145 8.23004
2.72099 0.138129 1.82205
8.10432 2.34619 3.84529
2.50367 0.0963017 2.33392
2.45063 0.551103 2.07431
4.81726 0.275326 8.2448
7.51512 0.681108 3.59413
4.81441 0.641179 8.18661
8.99954 0.155971 8.58794
2.4617 0.238279 1.79791
4.73278 0.100063 7.77325
1.85692 0.355109 2.19415
9.61006 0.585238 8.32771
3.57157 0.330474 1.97583
2.05048 0.129882 0.594868
1.7806 0.0835412 2.61347
2.35128 0.730849 2.16633
1.27905 0.248629 2.80913
2.73237 0.516262 2.07763
3.20253 0.457709 2.72532
4.62184 0.889665 8.30541
2.49385 0.169847 3.16262
2.45393 0.962907 0.463354
4.26394 0.474199 8.52486
5.56998 0.342048 1.57686
4.48092 0.896573 8.48065
2.68627 0.313971 0.497291
5.55567 1.17448 1.45815
4.69088 0.698003 8.48121
2.71705 0.454351 1.09858
8.67621 0.0606488 8.63972
2.39924 0.108434 1.47397
8.95233 0.297004 1.04813
4.70581 0.100244 8.17297
5.57029 0.31908 1.56313
4.43137 0.938623 8.48443
1.64464 0.262742 2.94066
7.40132 5.29081 5.0656
5.12433 0.429543 7.08055
7.94017 0.312575 3.98367
4.1052 0.858512 8.19816
4.10784 0.533233 3.74375
8.09106 0.207399 4.05388
4.57759 0.519192 8.38401
8.98763 0.0701329 8.35872
2.91134 0.701674 0.82182
1.57096 0.255268 3.37652
7.73071 5.58855 5.42646
2.90075 0.63326 1.24328
8.15499 0.679446 4.28084
4.83092 0.131646 8.42191
4.69795 0.216889 7.31037
7.78295 0.612219 3.40688
5.35019 9.66411 8.92117
9.09063 0.302612 8.8525
2.25076 0.348115 1.89929
8.85194 0.339348 1.37372
6.05819 0.500048 2.15211
5.74251 0.731626 1.53828
7.53469 0.824169 3.4892
8.48241 0.401714 8.35226
8.42993 0.358494 8.28815
1.73124 0.700873 3.085
3.03614 0.224135 1.888
6.4816 0.600272 6.15397
8.64128 1.52727 5.55243
8.91625 0.210261 1.26823
6.07822 0.335897 2.31408
3.73856 0.432699 2.53021
7.8033 1.12483 3.78752
4.35621 0.40472 8.67246
4.84395 0.388619 8.23375
2.29375 0.0656172 1.39556
2.26033 1.46893 2.14002
2.42211 0.559739 1.47435
1.87546 0.00520465 2.79482
9.66151 0.171421 1.48734
6.40425 0.796518 6.02375
3.67959 0.152089 0.716409
5.9921 0.75051 2.06877
2.34138 0.330181 2.01778
5.34917 0.0437123 1.41773
3.31902 0 2.42446
2.01064 0.106691 1.80571
1.78054 0.222632 2.05059
3.91635 0.471025 2.5392
8.47029 0.423742 3.75968
6.13293 0.719647 5.94789
8.68898 0.243884 8.67255
3.25335 0.606911 2.99078
2.94978 0.443014 1.57972
7.83729 0.606052 3.7867
2.30411 0.144455 2.44253
6.43914 0.974282 6.03333
5.942 0.112612 1.87058
2.99495 0.544474 1.1457
5.22248 0.358234 8.92416
2.71065 0.317729 1.04747
4.65126 0.923077 8.35865
2.25465 0.388419 2.03176
9.43431 0.583481 0.954329
9.56274 0.00477644 0.915322
2.30661 0.657732 2.0556
5.64761 0.510108 2.07273
8.96151 0.365198 1.1673
3.05755 0.57227 2.19398
5.24495 0.408064 9.00062
2.00083 0.287602 1.7211
4.38219 0.61107 8.5
2.46402 0.188859 1.64599
9.19276 0.134403 1.03665
5.04644 0.843476 7.44175
3.73525 0.167988 2.5292
1.56929 0.402599 2.84676
8.91279 0.167251 1.26342
3.32048 0.490122 2.41409
4.78527 0.356381 8.01411
2.18266 0.0017974 1.52953
4.97283 0.351477 7.48254
5.36709 0.478137 7.13895
2.18998 0.339567 1.77054
2.6932 0.400201 1.13406
5.96262 0.60885 2.13995
2.28605 0.607557 0.572273
2.6535 0.361474 0.988209
2.51057 0.708628 0.96722
3.80364 0.382294 2.86121
2.8373 0.606012 2.15998
4.4298 0.405873 7.28311
5.48804 0.442629 7.10845
2.62454 0.710075 2.17651
3.16737 0.512031 2.30589
5.70354 0.406291 2.0019
4.23633 0.934958 8.93031
2.25585 0.16957 1.14083
1.66093 0.228418 2.85235
5.98893 0.548078 2.14662
6.35367 0.540649 5.99736
5.13891 0.287391 8.49478
3.54219 0.346013 2.46967
1.92632 0.123743 0.659772
9.00586 0.197582 8.63236
4.9348 0.611534 8.29449
5.42786 0.523217 8.50308
5.04013 0.790246 8.36333
2.07322 0.430932 1.14394
5.99917 0.522135 2.13729
6.44408 0.619495 5.99566
5.15289 0 7.58264
2.02722 0.27513 1.12736
1.90949 0.713044 1.0976
9.03347 0.231258 8.5476
4.69474 0.157478 8.22962
4.61756 0.853942 8.75406
5.22138 0.384129 8.37139
2.91211 0.577157 1.3987
2.53795 0.303008 1.20242
2.46944 0.120315 1.82557
5.01881 0.502898 8.43368
2.5788 0.213233 1.88591
7.95782 1.1228 3.81597
4.2434 1.00797 8.97242
1.95268 0.542291 3.2461
2.44797 0.197739 2.10572
7.23352 0.831129 3.55705
5.50432 0.29046 1.93034
2.54698 0.314634 1.20652
2.34439 0.176548 1.69133
5.19848 0.414684 8.49475
2.53783 0.462379 1.70246
7.92685 1.10853 3.81897
4.93772 0.55394 7.17883
1.97189 0.576377 3.24286
2.10653 0.0717381 2.19444
9.53111 0.236643 1.44718
5.50255 0.268514 1.94853
POINT_DATA 400
SCALARS particleColor float 3
LOOKUP_TABLE default
0.0407424 1 0.959258
0 0.527955 1
0 0.86513 1
0 0.391119 1
0 0.433608 1
0.186021 1 0.813979
0 0.814559 1
0 0.736953 1
0 0.454546 1
0 0.859538 1
0 0.592891 1
0 0.706658 1
1 0.853757 0
0 0.481218 1
0 0.846031 1
0 0.540058 1
0 0.309964 1
0 0.799165 1
0.222091 1 0.777909
0 0.479539 1
0 0.56769 1
1 0.374062 0
0.080828 1 0.919172
0 0.701022 1
0 0.698962 1
0 0.37522 1
1 5.96046e-08 0
0 0.410381 1
0.243493 1 0.756507
0 0.520433 1
0.937042 1 0.0629581
0 0.419277 1
0 0.773739 1
0 0.453433 1
0 0.467405 1
0 0.940471 1
0.241881 1 0.758119
0 0.769873 1
0 0.455249 1
0.251883 1 0.748117
0.545678 1 0.454322
0 0.472906 1
0 0.436714 1
0.626494 1 0.373506
0 0.62066 1
0 0.569498 1
0.599168 1 0.400832
0 0.543647 1
0 0.0825607 1
1 0.488597 0
0 0.423384 1
0 0.541247 1
0 0.407951 1
0 0.557094 1
0 0.56451 1
0 0.313411 1
0 0.134362 1
0 0.649002 1
0 0.250817 1
0 0.552196 1
0.193619 1 0.806381
0 0.983082 1
0.770045 1 0.229955
0 0.964161 1
0 0.824611 1
0 0.773262 1
0.299983 1 0.700016
0 0.621317 1
0 0.427184 1
0 0.770323 1
0.0239301 1 0.97607
0 0.562062 1
0 0.712685 1
0 0.974644 1
0 0.194658 1
0.435688 1 0.564312
0.195532 1 0.804468
0 0.505371 1
0 0.687975 1
0 0.920099 1
0 0.460556 1
0 0.47301 1
0 0.582005 1
0 0.47604 1
0 0.563938 1
0 0.389988 1
0 0.445746 1
0 0.846992 1
0 0.246192 1
0 0.371591 1
0 0.319328 1
0 0.3663 1
0 0.585745 1
0 0.557843 1
0 0.636349 1
0 0.580969 1
0 0.529006 1
0 0.471522 1
0 0.906721 1
0 0.337984 1
0 0.848713 1
0.0346108 1 0.965389
0.039773 1 0.960227
0.118406 1 0.881594
0 0.526146 1
0 0.469868 1
0 0.551985 1
0 0.544003 1
0 0.222226 1
0 0.917224 1
0 0.858008 1
0 0.211277 1
0 0.779677 1
0 0.46919 1
0 0.677969 1
0 0.676892 1
0 0.270771 1
0 0.580161 1
0 0.279041 1
0 0.677073 1
0 0.427478 1
0 0.863906 1
0 0.84182 1
0 0.627981 1
0.579072 1 0.420928
0 0.704679 1
0 0.191838 1
0 0.422309 1
0 0.538195 1
0 0.94722 1
0 0.60367 1
0 0.850801 1
0 0.47597 1
0.227989 1 0.772011
0 0.581062 1
0 0.667426 1
1 0.685758 0
0 0.437961 1
0 0.350984 1
0 0.556153 1
0 0.230231 1
0 0.0486623 1
0.442462 1 0.557538
0.271614 1 0.728386
0 0.852919 1
0 0.550461 1
0 0.711667 1
0 0.680221 1
0 0.816666 1
0 0.61416 1
0 0.22257 1
0 0.350979 1
0.0383645 1 0.961635
0 0.723368 1
0 0.418194 1
0 0.267558 1
0 0.154404 1
0 0.414649 1
0 0.763852 1
0 0.404497 1
0 0.774981 1
0 0.578962 1
0 0.461815 1
0 0.847134 1
0.0384362 1 0.961564
0 0.510559 1
0 0.961515 1
0 0.404604 1
0 0.412541 1
1 0.0425478 0
0 0.64601 1
0 0.575695 1
0 0.160107 1
0 0.292515 1
0 0.617544 1
0 0.644523 1
0 0.881447 1
0 0.691737 1
0 0.438018 1
0.327562 1 0.672438
0 0.485147 1
0 0.423215 1
0 0.259851 1
0 0.797131 1
0 0.606356 1
0 0.91798 1
0 0.751289 1
0.0962288 1 0.903771
0 0.552551 1
0 0.385383 1
0 0.557826 1
0 0.904002 1
0 0.944742 1
0 0.391971 1
0.77607 1 0.22393
0 0.596622 1
0 0.763996 1
0.391093 1 0.608907
0 0.411962 1
0 0.732857 1
0 0.414358 1
0 0.261341 1
0 0.72801 1
0.0720724 1 0.927928
0.235288 1 0.764712
0 0.14576 1
0 0.686092 1
0 0.635751 1
0 0.380839 1
0 0.383657 1
0 0.747238 1
0 0.494324 1
0 0.979737 1
0 0.365016 1
0.613425 1 0.386575
0 0.239554 1
0 0.689825 1
0.0602356 1 0.939764
0 0.474339 1
0 0.408969 1
0 0.693608 1
0 0.809542 1
0 0.213873 1
0 0.337787 1
0 0.12362 1
0 0.889036 1
0.132617 1 0.867383
0 0.503895 1
0 0.886885 1
0.0395612 1 0.960439
0 0.513159 1
0.197068 1 0.802932
0 0.633606 1
0 0.452303 1
0 0.533029 1
0.319312 1 0.680688
0 0.995022 1
0 0.576778 1
0 0.42133 1
0.0699078 1 0.930092
0 0.917014 1
0 0.32339 1
0 0.553245 1
0 0.747686 1
0 0.911416 1
0 0.703537 1
0 0.814251 1
0 0.348726 1
0 0.385242 1
0 0.410473 1
0 0.111743 1
0 0.575073 1
0 0.609225 1
0.0793895 1 0.92061
0 0.858898 1
0 0.462706 1
0 0.441526 1
0 0.418589 1
0 0.546588 1
0 0.396977 1
0 0.515721 1
0 0.594728 1
0 0.89968 1
0 0.600464 1
0 0.365393 1
0 0.658999 1
0.227705 1 0.772295
0 0.941702 1
0 0.452588 1
0 0.273994 1
0 0.622712 1
0.120096 1 0.879904
0 0.907639 1
0 0.877512 1
0 0.58453 1
0.39376 1 0.60624
0 0.567293 1
0 0.879335 1
0 0.99008 1
0 0.601463 1
0 0.725748 1
0 0.78232 1
0 0.767123 1
0 0.674996 1
0.424986 1 0.575014
0 0.36007 1
0 0.340106 1
0 0.869072 1
0 0.946883 1
0.534385 1 0.465615
0 0.874284 1
0 0.674765 1
0 0.945112 1
0 0.668343 1
0 0.694731 1
0 0.826591 1
0 0.758483 1
0.0417799 1 0.95822
0 0.533201 1
0 0.520446 1
0 0.354465 1
0 0.617146 1
0 0.968798 1
0 0.948019 1
0 0.970395 1
0 0.515678 1
0 0.520238 1
0 0.50154 1
0 0.790147 1
0 0.48665 1
0 0.486998 1
0 0.870253 1
0.0251825 1 0.974818
0 0.403823 1
0 0.635892 1
0.378483 1 0.621517
0 0.654273 1
0 0.985376 1
0 0.202239 1
0 0.515706 1
0 0.969861 1
0 0.749088 1
0 0.686847 1
0.0197524 1 0.980248
0 0.757837 1
0 0.525272 1
0 0.726863 1
0 0.835854 1
0.108799 1 0.891201
0 0.491294 1
0 0.790549 1
0 0.468815 1
0 0.553224 1
0 0.912889 1
0 0.465509 1
0 0.598324 1
0 0.357659 1
0 0.722416 1
0 0.443774 1
0 0.614626 1
0 0.855683 1
0 0.654535 1
0 0.636497 1
0 0.628914 1
0.00216952 1 0.997831
0 0.49189 1
0 0.303829 1
0 0.709391 1
0 0.608113 1
0 0.299688 1
0 0.477555 1
0 0.530347 1
0 0.496782 1
0 0.611229 1
0 0.772145 1
0 0.556318 1
0.270487 1 0.729513
0 0.414937 1
0 0.790276 1
0 0.606398 1
0 0.49464 1
0 0.46879 1
0 0.718876 1
0 0.351527 1
0.529317 1 0.470683
0 0.9279 1
0 0.485062 1
0 0.390702 1
0.0656041 1 0.934396
0 0.96648 1
0 0.522533 1
0 0.433588 1
0 0.457722 1
0 0.680223 1
0 0.930342 1
0 0.185977 1
0 0.499477 1
0 0.56482 1
0 0.685292 1
0 0.927341 1
0 0.76132 1
0 0.536443 1
0 0.334186 1
0 0.0972155 1
0 0.381462 1
0 0.096135 1
0 0.384297 1
0 0.646812 1
0.225415 1 0.774585
0 0.991864 1
0 0.670602 1
0 0.420355 1
0 0.407 1
0 0.8939 1
0 0.368937 1
0 0.646442 1
0 0.332398 1
0 0.879852 1
0.0869228 1 0.913077
0 0.926146 1
