# vtk DataFile Version 3.0
Particle simulation
ASCII
DATASET POLYDATA
POINTS 400 float
1.0317 0.767301 0.145621
1.62359 1.00969 0.943021
0.713553 0.867802 3.88153
1.33192 0.852108 0.63596
0.750232 0.664405 3.8893
0.512029 0.361718 2.388
0.873424 0.368766 3.64389
0.82026 0.282114 1.84354
2.43309 0.984518 3.00323
2.7585 0.986171 1.69761
1.00622 0.742813 0.163812
1.65151 0.950099 0.970759
0.746093 0.899073 3.88005
1.32756 0.852493 0.680142
0.743343 0.726196 3.87153
0.48894 0.39442 2.39887
0.976383 0.473219 3.7246
0.720895 0.358561 2.14037
2.44695 0.936631 2.99962
2.71287 0.938894 1.75249
1.33756 0.839181 0.340422
1.68287 1.00374 0.694971
1.47896 0.967988 4.05249
2.32305 1.03698 0.421745
1.54777 0.932519 3.68638
1.20314 0.800714 2.40916
2.18609 0.871107 3.91035
0.95177 0.430426 1.96836
1.8406 0.857877 3.18177
0.964263 1.16414 2.09642
1.34437 0.784548 0.359387
1.78872 0.989678 0.796358
1.44459 0.960544 3.95705
2.30247 1.03346 0.423572
1.5996 0.930795 3.63851
1.19113 0.796537 2.44642
2.22776 0.870042 3.91727
0.952829 0.415344 2.01325
1.61545 0.912635 3.13554
0.944548 1.17572 2.09131
1.12348 1.01686 0.272135
3.28179 0.701049 1.11784
3.53694 0.741197 3.00532
3.48147 0.895049 0.305392
2.89755 0.767873 4.47515
3.04861 0.796026 1.85668
2.9029 0.858538 3.12317
2.97934 0.829333 3.71628
1.74505 0.815044 3.03159
0.039744 0.960324 2.38555
1.1175 1.01673 0.281847
3.28996 0.71606 1.12732
3.52974 0.723238 3.00332
3.48403 0.898627 0.297104
2.90741 0.823949 4.43144
3.05338 0.811455 1.88465
2.98809 0.847551 4.2437
2.90269 0.835562 3.74914
1.73676 0.827467 3.06977
0.0695153 0.969962 2.31435
1.12741 0.944308 0.246547
0.725998 0.85356 1.05276
0.0899808 0.863617 2.76715
1.1714 0.853369 0.595476
0.988568 0.933518 3.44625
0.816037 0.476806 2.4212
1.13123 0.541683 3.64905
0.0846278 0.905434 2.59516
1.60223 0.80799 3.23614
0.293651 0.987707 2.29648
1.1359 0.985859 0.271784
0.710581 0.860849 1.04517
0.105941 0.949094 3.02391
1.18097 0.866211 0.568885
0.956243 0.9403 3.3834
0.852663 0.455153 2.42269
1.14841 0.537594 3.62688
0.11371 0.893084 2.91932
1.63 0.832166 3.17927
0.277801 0.994817 2.26079
2.26828 0.733938 0.404075
2.99664 0.737184 1.12709
2.02174 0.738051 2.72604
3.08637 0.846303 0.115056
2.64879 0.83729 3.98053
2.35535 0.756472 1.73291
3.00337 0.630331 4.27311
2.63241 0.771868 2.60899
3.22923 0.797983 3.1273
1.79234 0.420387 2.25469
2.29637 0.754892 0.377514
3.06713 0.709641 1.13945
2.04509 0.752958 2.73519
3.10971 0.843477 0.0735883
2.63149 0.851261 3.99031
2.41117 0.743484 1.71033
3.10734 0.593618 4.37885
2.66832 0.796745 2.51826
3.29276 0.785176 3.08738
1.81868 0.405138 2.22147
2.99042 0.779772 0.380054
2.33534 0.703856 0.79347
2.08221 0.597155 2.90081
2.12189 0.748658 0.132476
1.61341 0.800487 4.16714
2.05757 0.611527 2.00277
1.34307 0.786081 3.55951
2.00357 0.79461 3.46397
1.68269 0.892685 2.97675
2.20762 0.456518 2.16994
2.97685 0.785598 0.400242
2.34895 0.717973 0.811392
1.99039 0.618541 3.02956
2.09985 0.729255 0.088544
1.65788 0.810506 4.11188
2.06529 0.609697 1.99128
1.33097 0.773343 3.50375
2.0552 0.81074 3.41885
1.70439 0.880933 3.02926
2.18711 0.446164 2.18764
3.67083 0.811266 0.448445
3.18043 0.750143 1.11406
4.3687 0.586684 2.89594
3.88242 0.4174 0.353091
3.77011 0.555802 3.69082
4.34096 0.197664 2.1181
3.66987 0.0250625 4.68486
3.94114 0.724566 2.33351
3.95028 0.627732 3.46322
4.1953 0.394468 1.84895
3.63084 0.806333 0.441921
3.24637 0.751656 1.12117
4.39705 0.589457 2.94666
3.83132 0.4154 0.334759
3.82032 0.52075 3.74225
4.28875 0.153086 2.19908
3.64129 0.10864 4.63066
3.90733 0.715275 2.42499
3.96354 0.635731 3.45692
4.08784 0.50011 1.95122
1.86524 0.725373 0.435396
1.95557 0.864573 0.904944
1.55344 0.477106 2.72506
1.56235 0.647645 0.227848
1.29956 0.911159 3.8454
1.92501 0.396794 2.09897
2.64048 0.673369 4.15566
1.73687 0.839444 3.31157
1.17337 0.885296 3.12916
1.70549 0.49005 1.80431
1.87603 0.718209 0.429061
1.94191 0.877865 0.83619
1.54473 0.544018 2.73408
1.62486 0.687277 0.298919
1.34185 0.927329 3.7661
1.9257 0.393591 2.06619
2.61203 0.736174 4.08581
1.78048 0.798286 3.19826
1.23716 0.876454 3.16701
1.64571 0.534867 1.95375
2.6926 1.14175 0.473509
3.44727 0.828682 0.377627
3.31216 1.09008 3.40301
3.97377 0.469359 0.322387
2.56985 0.853288 3.6403
2.33749 0.801159 2.3908
2.78874 0.726882 4.39016
2.52234 0.949221 2.42091
2.57608 0.934883 3.08708
2.92492 0.979885 1.67678
2.67263 1.15276 0.477627
3.44065 0.931337 0.34625
3.34784 1.07899 3.46185
4.03971 0.567789 0.252489
2.64512 0.900452 3.58183
2.34424 0.807662 2.42696
2.76333 0.730508 4.42127
2.5334 0.932222 2.49609
2.61186 0.933877 3.07928
2.92721 0.96678 1.72902
3.5854 0.959129 0.306991
1.63804 0.940536 0.677552
3.6162 1.04934 3.2438
1.7235 1.03905 0.313787
3.92729 0.446148 3.52001
3.8731 0.945093 3.02812
3.0688 0.443948 4.46669
4.04917 1.00015 2.33374
3.13216 1.10693 3.03582
3.87383 0.997923 1.75832
3.58856 0.954213 0.294525
1.56442 0.969367 0.736195
3.58565 1.08418 3.47095
1.73051 1.02934 0.297992
3.92569 0.411377 3.48516
3.85458 0.968256 3.05115
3.10904 0.444308 4.48483
4.04113 0.997088 2.3124
3.10173 1.10988 3.00896
3.89278 0.981295 1.77576
1.03823 0.819094 0.204854
0.940512 0.695536 0.939269
0.728978 0.761935 3.84899
1.31352 0.760157 0.537096
0.858983 0.839283 3.85301
0.443052 1.06385 2.47136
1.36683 0.835754 3.4422
0.586066 1.15576 1.98301
2.27665 0.632855 3.16869
2.80363 1.05484 1.74555
1.03203 0.794214 0.231761
1.00508 0.711422 0.768566
0.706043 0.744262 3.94129
1.28741 0.766347 0.499642
0.873052 0.832178 3.86461
0.437686 1.04498 2.51013
1.37512 0.834723 3.44307
0.550125 1.06538 2.38031
2.26329 0.593047 3.19274
2.78842 1.05949 1.78305
1.8315 0.728662 0.301213
2.05743 0.658982 0.621639
1.36953 0.702148 3.96972
2.293 0.617547 0.349177
1.59896 0.796041 3.82691
1.17911 0.796825 2.69569
2.34374 0.627263 3.75821
1.02347 1.00831 2.06096
2.40362 0.768902 3.03516
0.842266 0.620266 2.18578
1.78706 0.721555 0.303631
2.05007 0.660425 0.679573
1.3361 0.663732 4.01876
2.28221 0.628922 0.347105
1.61817 0.797614 3.82989
1.16209 0.781506 2.72811
2.35425 0.633271 3.77514
0.983391 0.970224 2.11689
2.40175 0.785936 2.92489
0.845118 0.648537 2.11639
1.18303 0.598694 0.30259
3.24652 0.841923 1.1083
3.37141 0.982296 3.19803
3.53243 0.834342 0.334274
2.87097 0.727365 4.21916
3.09412 0.976437 1.70839
2.51816 0.974344 3.16359
2.56816 1.01922 2.09924
2.86869 0.878227 3.04489
0.0507854 0.763518 2.36791
1.1646 0.609377 0.27987
3.21295 0.833873 1.12181
3.36665 0.972785 3.22167
3.5682 0.810217 0.410607
2.88059 0.705258 4.26156
3.08809 0.973891 1.73069
2.71547 0.89359 3.44179
2.55353 1.03655 2.07851
2.82476 0.875974 3.05286
0.0669692 0.790127 2.30358
1.28548 0.528496 0.258261
0.7304 0.609437 1.05327
0.135954 0.722367 3.11604
1.4392 0.533 0.558125
1.16127 0.664968 3.47445
0.875382 0.948013 2.59527
1.5852 0.829844 3.40987
0.823732 0.644004 3.19112
1.03726 0.74379 3.35657
0.319578 0.693918 2.29393
1.29592 0.547119 0.27777
0.701618 0.609265 1.05359
0.157195 0.714059 3.12669
1.42995 0.549345 0.690075
1.12318 0.661076 3.45607
0.847875 0.950233 2.50925
1.58559 0.834937 3.30579
0.401182 0.725202 2.25765
1.08781 0.742411 3.35459
0.298069 0.706019 2.24888
2.77431 0.860367 0.631346
3.07008 0.817229 1.01143
2.31077 1.04348 2.86192
3.20409 0.777965 0.205104
2.4995 0.739544 4.11811
2.0471 0.987702 1.83738
3.15848 1.0188 4.3543
1.93805 1.01565 2.58969
3.46269 0.780594 2.97694
1.96429 1.01791 2.54381
2.69496 0.808936 0.690116
3.09033 0.834189 1.02244
2.30065 1.03842 2.93881
3.2042 0.782279 0.169571
2.60353 0.68856 4.28707
2.06745 0.987949 1.82821
3.16006 1.03484 4.27633
2.05175 1.01122 2.49825
3.50273 0.748927 2.96853
2.0273 1.02444 2.46464
3.21264 0.831924 0.524352
2.06642 0.93138 0.806625
2.23434 1.07767 3.20863
2.18862 0.77749 0.205644
1.77885 0.653954 4.16334
2.56144 1.00623 1.87135
1.19479 0.862361 3.34648
2.25591 1.07046 2.44939
1.89771 0.790034 2.87695
2.36812 1.02251 2.36162
3.1867 0.827658 0.537441
2.03366 0.926895 0.797224
2.22493 1.07745 3.25407
2.21047 0.756699 0.201039
1.711 0.661218 4.11217
2.56447 1.00617 1.91433
1.22042 0.844013 3.39315
2.14381 0.798849 3.16429
1.83752 0.788184 2.87551
2.39832 1.02671 2.32631
3.49096 0.70637 0.331759
3.60453 0.669438 0.920357
4.2418 1.04659 3.2513
3.58441 1.02629 0.337903
3.51821 0.905889 3.44278
3.9707 0.952269 2.46688
3.12525 1.19853 4.49632
3.94258 0.863437 2.18694
3.87869 0.825589 2.89427
3.96531 1.10431 1.94595
3.4831 0.691923 0.333827
3.47714 0.646187 0.94769
4.26897 1.04652 3.29127
3.58062 1.0062 0.352536
3.47966 0.920377 3.41655
3.94169 0.995016 2.61194
3.1055 1.19481 4.47501
3.94676 0.878058 2.17873
3.81647 0.781026 2.89295
4.00119 1.13215 1.88618
1.67076 0.837429 0.510983
1.41668 0.844778 0.849939
1.64847 1.00712 3.07005
1.55589 0.773868 0.36931
1.35183 0.655053 3.97106
1.9201 1.07278 1.94406
2.14734 0.723581 3.80395
1.87318 0.897709 3.06048
1.31766 0.665553 3.10285
1.72695 1.0708 2.04032
1.64557 0.856556 0.50891
1.39985 0.871949 0.877404
1.69822 1.04993 2.93252
1.53688 0.776439 0.347979
1.33694 0.652034 3.99513
1.91664 1.07031 1.94747
2.16454 0.72426 3.77307
1.92538 0.953744 2.89378
1.35075 0.670956 3.10932
1.69177 1.06888 2.2069
2.19225 0.574429 0.308483
2.7751 0.829403 0.751392
3.37313 0.690053 3.40242
3.4 0.670271 0.606589
2.46604 0.683234 3.62354
2.09465 0.888048 2.77683
2.58478 0.745833 4.3617
2.48257 0.624546 2.53539
2.53052 0.73287 2.98165
3.01171 0.73178 1.81032
2.18708 0.583615 0.341029
2.82599 0.814585 0.741763
3.37437 0.712009 3.45204
3.41424 0.667581 0.600942
2.51444 0.678686 3.66206
2.07769 0.894823 2.77501
2.55986 0.742168 4.33944
2.48223 0.634678 2.50698
2.53713 0.709603 2.93716
2.99406 0.727747 1.78807
3.58867 0.807758 0.362148
1.6506 0.520758 0.692425
3.51457 0.739048 3.38761
1.52855 0.484163 0.33518
3.73287 0.937809 3.64096
3.63966 0.656262 3.24812
2.85486 0.982208 4.46011
4.00298 0.615951 2.43087
3.1187 0.739176 3.1697
3.90762 0.776756 1.88694
3.60246 0.827087 0.332557
1.70326 0.517369 0.717128
3.51209 0.731756 3.37426
1.52089 0.476508 0.383165
3.74489 0.94138 3.65702
3.67034 0.64212 3.2335
2.83568 0.980193 4.45248
3.99602 0.622461 2.38179
3.22562 0.777833 3.1566
3.90527 0.759105 1.90623
POINT_DATA 400
SCALARS particleColor float 3
LOOKUP_TABLE default
0 0.727552 1
0 0.317031 1
0 0.883226 1
0 0.685939 1
0 0.198197 1
0 0.200754 1
0 0.481143 1
0 0.44391 1
0 0.768948 1
0.181252 1 0.818748
0 0.661971 1
0 0.241489 1
0 0.865162 1
0 0.638111 1
0 0.37062 1
0 0.194352 1
0 0.231673 1
0 0.446468 1
0 0.863123 1
0.24345 1 0.75655
0.274897 1 0.725103
0 0.907735 1
0.196221 1 0.803779
0.0566171 1 0.943383
0 0.779576 1
0 0.268749 1
0.0246988 1 0.975301
0 0.366633 1
0 0.86608 1
0 0.787285 1
0.281126 1 0.718874
0 0.76731 1
0.0909087 1 0.909091
0.0111785 1 0.988822
0 0.777703 1
0 0.505357 1
0.0504148 1 0.949585
0 0.461878 1
0 0.674651 1
0 0.778965 1
0 0.46559 1
0 0.732719 1
0 0.785506 1
0 0.840307 1
0 0.710963 1
0 0.678135 1
0 0.511737 1
0 0.708236 1
0 0.643905 1
0 0.272797 1
0 0.339657 1
0 0.784141 1
0 0.930177 1
0 0.821253 1
0 0.776258 1
0 0.65253 1
0 0.798481 1
0 0.753939 1
0 0.653354 1
0 0.108086 1
0 0.83032 1
0 0.503309 1
0 0.901144 1
0.155231 1 0.844769
0 0.81793 1
0 0.771599 1
0 0.627941 1
0 0.529673 1
0 0.678447 1
0 0.471486 1
0 0.911743 1
0 0.40235 1
0 0.891556 1
0 0.983748 1
0 0.814644 1
0 0.7709 1
0 0.667442 1
0 0.664177 1
0 0.588184 1
0 0.376232 1
0 0.681775 1
0 0.784627 1
0 0.514097 1
0 0.587341 1
0 0.608438 1
0 0.438107 1
0 0.380898 1
0 0.466279 1
0 0.874666 1
0 0.388075 1
0 0.653944 1
0 0.704216 1
0 0.703093 1
0 0.641048 1
0 0.612431 1
0 0.384656 1
0 0.320351 1
0 0.506811 1
0 0.826484 1
0 0.569383 1
0 0.918987 1
0 0.516405 1
0 0.554582 1
0 0.389385 1
0 0.179916 1
0 0.522236 1
0 0.596973 1
0 0.28029 1
0 0.576474 1
0 0.618394 1
0 0.721059 1
0 0.406267 1
0 0.66899 1
0 0.414107 1
0 0.170566 1
0 0.350283 1
0 0.677313 1
0 0.431339 1
0 0.562699 1
0 0.869267 1
0 0.961335 1
0 0.679439 1
0 0.363335 1
0 0.499256 1
0 0.145799 1
0 0.146677 1
0 0.58794 1
0 0.582258 1
0 0.155871 1
0 0.565784 1
0.0676152 1 0.932385
0 0.621433 1
0 0.582767 1
0 0.302237 1
0 0.142175 1
0 0.330035 1
0 0.484058 1
0 0.604224 1
0 0.174369 1
0 0.496064 1
0 0.591784 1
0 0.510914 1
0 0.444756 1
0 0.57245 1
0 0.963558 1
0 0.611947 1
0 0.742111 1
0 0.849519 1
0 0.957822 1
0 0.488582 1
0 0.544513 1
0 0.560899 1
0 0.642432 1
0 0.635977 1
0 0.865999 1
0 0.661333 1
0 0.727235 1
0 0.81293 1
0 0.863588 1
0 0.529983 1
0 0.657526 1
0 0.850275 1
0 0.468144 1
0 0.932409 1
0.0374845 1 0.962515
0.0427903 1 0.95721
0 0.740692 1
0.17403 1 0.82597
0.163196 1 0.836804
0.0653668 1 0.934633
0 0.702253 1
0 0.759578 1
0 0.467253 1
0 0.803898 1
0 0.995673 1
0 0.949841 1
0 0.721087 1
0.102858 1 0.897142
0.30542 1 0.69458
0 0.925067 1
0 0.663437 1
0 0.808947 1
0 0.602816 1
0.0730604 1 0.92694
0 0.302487 1
0 0.98148 1
0 0.753771 1
0 0.470131 1
0 0.574309 1
0 0.465951 1
0 0.658457 1
0 0.984769 1
0 0.543918 1
0.178067 1 0.821933
0 0.345465 1
0.0630319 1 0.936968
0 0.841361 1
0 0.624603 1
0 0.612548 1
0 0.455778 1
0 0.561087 1
0 0.611897 1
0 0.86354 1
0 0.424662 1
0 0.597229 1
0 0.581763 1
0 0.977948 1
0 0.447182 1
0 0.565355 1
0.024029 1 0.975971
0 0.644423 1
0 0.491865 1
0 0.865266 1
0 0.312725 1
0 0.663448 1
0 0.622857 1
0.0207909 1 0.979209
0 0.834216 1
0 0.592729 1
0 0.922527 1
0 0.937667 1
0.249059 1 0.750941
0.0466456 1 0.953354
0 0.928812 1
0 0.742985 1
0 0.66512 1
0.207688 1 0.792312
0 0.524184 1
0 0.977547 1
0 0.644809 1
0 0.896419 1
0 0.986634 1
0.00352679 1 0.996473
0 0.835448 1
0 0.781483 1
0 0.702905 1
0.262653 1 0.737347
0 0.641991 1
0 0.966699 1
0 0.645574 1
0 0.403401 1
0 0.875578 1
0.0461158 1 0.953884
0 0.84681 1
0 0.83806 1
0 0.719505 1
0 0.525041 1
0.0905113 1 0.909489
0 0.953598 1
0 0.306734 1
0 0.423658 1
0.0294628 1 0.970537
0.266261 1 0.733739
0 0.94062 1
0 0.931157 1
0 0.838759 1
0 0.644003 1
0.0726434 1 0.927357
0 0.98103 1
0 0.271196 1
0.302069 1 0.697931
0 0.86674 1
0 0.820672 1
0.0619746 1 0.938025
0.0195435 1 0.980457
0.0628711 1 0.937129
0.233681 1 0.766319
0 0.939602 1
0 0.737255 1
0 0.818881 1
0.286223 1 0.713777
0 0.785257 1
0 0.963328 1
0.0232786 1 0.976721
0.06583 1 0.93417
0 0.884305 1
0.246233 1 0.753767
0.0889329 1 0.911067
0 0.703176 1
0 0.753777 1
0 0.905343 1
0 0.770369 1
0 0.617993 1
0.0973715 1 0.902628
0 0.984603 1
0 0.736883 1
0 0.252523 1
0 0.962336 1
0.0167394 1 0.983261
0 0.721461 1
0 0.940315 1
0 0.808091 1
0 0.71428 1
0 0.898616 1
0 0.968728 1
0 0.55051 1
0 0.294798 1
0 0.912647 1
0 0.907621 1
0 0.810145 1
0.158152 1 0.841848
0 0.865867 1
0 0.956745 1
0 0.822374 1
0 0.823495 1
0 0.94749 1
0 0.729492 1
0 0.692307 1
0 0.722322 1
0 0.803839 1
0.126407 1 0.873593
0 0.842033 1
0 0.922262 1
0 0.849693 1
0 0.838115 1
0.201951 1 0.798049
0 0.649333 1
0 0.605692 1
0 0.80802 1
0 0.98667 1
0 0.936401 1
0 0.895573 1
0 0.778578 1
0 0.979177 1
0 0.84379 1
0.0327666 1 0.967233
0.0418345 1 0.958165
0 0.776974 1
0 0.882639 1
0 0.664531 1
0 0.986203 1
0 0.964583 1
0 0.821647 1
0.119058 1 0.880942
0 0.927308 1
0.0645741 1 0.935426
0.0159735 1 0.984026
0 0.814828 1
0 0.837968 1
0 0.539335 1
0 0.890834 1
0 0.607505 1
0 0.866729 1
0.105871 1 0.894129
0 0.767864 1
0 0.512741 1
0 0.796091 1
0 0.794125 1
0.0203407 1 0.979659
0 0.525367 1
0 0.89372 1
0 0.591734 1
0 0.902491 1
0.0180267 1 0.981973
0 0.920664 1
0 0.51401 1
0 0.891712 1
0 0.649135 1
0 0.972693 1
0 0.509678 1
0.0967932 1 0.903207
0.0637276 1 0.936272
0 0.464036 1
0.0403666 1 0.959633
0.0880875 1 0.911912
0.237721 1 0.762279
0 0.927823 1
0.11023 1 0.88977
0 0.764273 1
0 0.786951 1
0.0434167 1 0.956583
0 0.931602 1
0 0.40758 1
0.00896969 1 0.99103
0.162881 1 0.837119
0.301776 1 0.698224
0 0.87357 1
0.130416 1 0.869584
0 0.914291 1
0 0.74584 1
0 0.316976 1
0 0.617756 1
0 0.553794 1
0.110896 1 0.889104
0 0.73823 1
0.075512 1 0.924488
0 0.844791 1
0 0.741749 1
0 0.408905 1
0 0.406121 1
0 0.420203 1
0 0.487223 1
0 0.44249 1
0.0321599 1 0.96784
0 0.622711 1
0.203564 1 0.796436
0 0.890945 1
0 0.736249 1
0 0.459389 1
0 0.384815 1
