# vtk DataFile Version 3.0
Particle simulation
ASCII
DATASET POLYDATA
POINTS 400 float
1.15953 0.672859 1.04413
1.54895 0.184756 1.50587
2.43804 0.832445 1.688
1.83878 0.387963 1.61346
8.75345 0.773646 4.40426
4.19214 2.73831 4.67773
9.3406 3.24981 0.652735
2.26968 4.41161 3.28329
5.98865 0.704697 1.17083
8.74694 0.158389 2.1526
1.74029 0.516865 1.72973
1.90258 0.474202 1.0455
1.46396 0.270224 1.88799
1.86121 0.330942 1.60835
8.79033 0.863217 4.40856
4.37782 5.37864 7.52005
5.29344 0.272523 1.87105
2.21379 0.63624 2.8954
9.25476 0.277272 0.0774167
8.76365 0.18579 2.1187
2.07912 0.649581 1.02771
7.33395 0.358853 5.02177
1.84511 2.38796 6.42724
8.41282 0.309674 2.0264
3.78198 1.6395 6.1878
1.72104 0.788355 0.599702
6.4624 0.883327 7.79356
2.62179 0.600477 2.11149
4.94518 0.0577689 3.84366
2.206 0.609158 1.62994
6.7496 0.445816 1.06931
9.32718 0.571441 1.04194
6.14592 7.8223 8.64356
8.41604 0.268463 2.01232
1.11404 1.83578 2.21367
1.69133 0.80277 0.705273
6.03408 0.63992 7.64987
1.71976 0.343076 2.6311
4.79215 0.135746 1.52117
2.32167 0.647415 0.972565
1.13326 0.0370631 0.903301
4.85548 0.3973 0.899054
4.67901 0.294236 3.9902
8.9335 0.406051 2.52497
5.83034 0.794118 6.77633
4.60292 0.00541813 2.31726
3.96725 1.32668 2.1218
2.03978 1.20937 2.91242
4.55584 0.176045 1.9191
6.91585 0.197899 4.02325
0.861387 0.0897383 0.814468
4.87482 0.446994 0.956291
3.98986 0.247534 2.89727
8.95846 0.3978 2.56068
5.78681 0.76127 6.81577
4.58306 0 2.33391
3.26891 0.362602 6.59885
2.27338 0.34041 2.47111
4.53007 0.161178 1.92108
4.73631 0.482968 8.69721
5.1326 1.17992 3.11583
3.12422 0.61036 3.05206
4.68333 0.70035 8.31723
8.41492 1.11988 1.92984
5.73115 0.698682 7.96799
4.96137 0.860418 8.02983
3.4956 0.451514 3.68789
0.826641 0.0797046 0.887344
4.61998 0.094183 1.93499
3.74785 0.174645 6.6088
5.25356 1.08363 2.97921
1.60693 0.602924 1.63318
4.41024 0.478554 5.93498
8.45541 1.12358 1.94169
5.81607 0.514781 7.85531
4.71262 0.191802 7.53887
3.5022 0.472368 3.73049
2.90366 0.224262 6.67073
4.62323 0.100459 1.89529
3.79772 0.273714 6.66624
2.07843 0.498644 1.56762
1.69196 0.642088 1.60422
1.25607 0.918425 1.82968
2.21674 0.226364 2.39407
4.68842 0.475083 6.98385
3.72531 0.334965 6.53951
5.27886 0.922275 6.91408
2.5968 0.133192 2.14364
2.77116 1.53741 8.94114
7.07576 0.60933 0.918482
1.68355 0.425848 1.20589
2.49524 0.843068 2.41978
4.87093 0.333266 1.43205
2.21208 0.249874 2.33869
4.67682 0.473417 6.99871
3.71467 0.301421 6.5507
2.91694 0.378907 6.52198
1.5452 0.602138 2.96201
1.50032 0.230836 7.24851
7.04792 0.576464 0.927063
2.35948 0.0912609 2.92326
7.33175 0.813232 0.0941592
2.00288 0.298593 1.44413
7.83554 0.646159 1.04242
8.81046 0.934186 2.93866
2.51405 0.476965 2.21308
3.26064 0.686031 6.47405
5.0749 0.463023 1.82062
4.48588 0.180744 2.02597
6.82528 0.376668 1.14373
1.08214 0.0847641 0.622745
8.37609 0.642876 2.09687
2.13803 0.29648 2.14326
7.0757 0.606659 1.22391
2.50169 0.165185 2.73302
2.43114 0.457244 2.03841
3.33945 0.560394 6.18997
4.34608 0.378357 2.03732
4.52439 0.161212 1.95614
2.41285 0.649823 3.10816
2.47316 0.166656 2.287
4.97768 0.644083 1.20573
4.69716 0.440509 7.63724
4.67847 0.544088 3.53952
3.06431 0.4431 7.83993
2.38173 0.452766 1.90239
1.85587 0.0353855 2.67441
8.47694 0.160649 2.20297
4.51169 1.33423 6.59253
2.21192 0.986846 2.25638
2.47527 0.154205 2.26526
4.74312 0.159533 1.57085
4.69942 0.103353 6.15772
4.73573 0.411403 3.57227
2.65746 0.407248 6.52999
1.40359 0.472719 1.19751
6.08867 0.558509 7.86085
8.48877 0.194853 2.21958
3.28313 0.0492423 6.20714
3.64376 1.09668 3.66558
2.06404 0.452585 1.73979
3.78292 0.63158 2.68766
1.51023 0.156707 2.68572
1.98442 0.787751 1.12433
1.6729 0.361394 2.91692
1.82809 0.0685534 1.35811
5.27752 0.80882 7.85814
1.91003 0.470615 2.82121
2.18076 0.236561 2.25155
0.439096 0.370655 0.474626
2.06173 0.452192 1.73513
3.7759 0.477787 2.57298
1.41802 0.566277 1.65211
3.10181 0.366929 3.69998
1.39079 0.266087 1.68697
2.15094 0.26841 1.85955
5.28734 0.865871 7.83009
1.67451 0.532004 0.789816
3.38872 0.297257 3.10381
2.26313 0.532364 2.89952
1.83357 0.671788 0.865855
0.665953 0.353777 0.854791
4.78141 0.682418 6.5053
2.11688 0.789174 2.18793
0.921399 0.0835048 0.816792
3.65592 0.602174 3.24501
3.21838 0.479473 6.34983
3.66669 0.257676 6.35072
5.9757 0.855531 6.6158
4.60746 0.173926 2.24355
1.87752 0.634054 0.741878
1.91438 0.816188 0.828964
4.77375 0.605571 6.75124
2.07682 0.397109 0.878144
1.73198 0.216258 1.23737
1.47837 0.999074 3.10007
3.62659 0.388978 6.33021
3.19046 0.571216 6.31539
3.49916 0.382212 6.32685
4.61131 0.188414 2.24725
2.13575 0.432929 0.91213
2.56494 0.565304 1.33977
6.54746 1.01819 7.66264
1.0441 1.43258 2.29022
3.3425 0.0787557 6.50344
2.06302 0.407287 1.17901
2.36124 0.348442 2.08273
5.00593 0.861529 3.02044
1.75982 0.194117 2.7864
2.02431 0.255023 1.13647
2.15175 0.41773 0.927181
1.81293 0.122287 1.66394
5.02148 0.774986 6.76789
0.493034 1.39148 2.37627
3.73472 0.539397 6.3228
2.69486 0.252376 1.70149
2.38681 0.311051 2.1098
6.50258 1.93754 2.03544
1.71734 0.205234 2.6904
2.04143 0.486286 0.71338
1.40438 0.319615 0.776236
4.63665 0.218773 1.86048
3.74996 0.262688 6.72048
3.69182 0.545192 3.40778
5.64684 0.40016 8.24663
3.35862 0.532659 6.27363
2.33621 0.200523 2.34659
2.52458 0.202833 2.0739
2.11097 0.454489 2.85862
7.33314 0.567618 1.23134
1.89503 0.665902 1.555
5.49941 0.525331 1.84407
5.27588 0.787195 6.85023
3.42175 0.496204 3.4849
5.82424 0.473058 8.09556
3.32201 0.557758 6.2253
2.37019 0.198199 2.36285
2.59376 0.316164 2.18974
1.2792 0.304264 2.34574
7.19574 0.502411 1.25286
8.3308 0.90567 1.73139
1.76227 0.215844 7.49606
4.5294 0.303218 6.66922
1.9429 0.255911 1.59205
4.5916 0.492591 6.26626
1.23113 1.55036 2.18618
5.88671 0.292259 5.802
1.8108 0.429958 1.86924
1.75782 0.217362 1.01626
3.18847 0.319295 2.91916
8.39161 0.819901 1.73883
4.15831 0 6.32885
5.75887 0.764692 7.95416
1.9624 0.253993 1.66898
4.67415 0.372632 6.50773
1.20668 1.84589 2.16845
6.47388 0.878335 7.3309
0.677974 1.85065 2.05843
1.13772 0.26762 2.8183
2.62042 0.480704 2.61544
1.83222 0.500664 1.53267
1.86875 0.00479472 2.09086
2.41613 0.669834 2.55612
1.37083 0.160279 1.36421
3.11443 0.38002 6.35977
1.11845 0.395992 2.32085
2.6892 0.190509 2.3564
2.99052 0.424249 5.91067
4.47848 0.130962 1.91488
3.64976 0.358318 6.5538
1.80181 0.441737 1.47328
5.81054 0.524114 1.65406
3.30859 0.502123 6.76872
1.44429 0.152669 1.40924
5.36861 0.765109 6.85445
1.60521 0.625755 2.42424
7.29789 0.441675 1.08728
4.62656 0.569895 6.50836
4.48211 0.0800342 1.90812
3.62342 0.370258 6.5079
1.50747 0.353822 2.07694
3.91144 0.746171 2.81867
3.69555 0.759005 3.5764
8.7353 0.367601 2.18878
5.92873 0.39626 8.14195
0.212755 0.0495549 0.864163
6.10691 0.53155 0.73947
3.41683 0.492599 6.60027
5.6337 0.21827 8.40817
2.03278 0.350271 2.54693
1.39182 0.355743 2.12876
3.94445 0.664317 3.06997
1.48027 1.48703 2.07896
8.44285 0.145761 1.63706
2.66659 0.654207 6.26685
2.69604 0.213199 6.66306
8.3441 0.409896 2.33157
6.60028 0.711814 6.38055
5.51337 0.243308 8.33297
1.83592 0.308417 2.16241
8.07275 0.500093 0.945662
4.44911 0.270301 1.70829
4.28169 0.34511 1.43811
8.49509 0.55541 1.86371
6.41205 0.795304 7.30925
6.69706 0.717718 7.44104
2.59152 0.348085 2.51559
1.62994 0.781648 2.60722
3.54587 0.201346 3.32121
2.94634 0.311123 6.56438
7.90652 0.343178 1.09221
4.4519 0.283106 1.69698
2.37375 0.233169 1.46283
8.50709 0.542172 1.91005
3.42795 0.0420395 6.7913
3.865 0.100361 6.99368
2.54429 0.136703 2.66273
1.25827 1.86275 2.40815
2.01301 0.190731 2.17117
1.85207 0.64125 1.75717
7.52689 0.571968 0.953064
3.11471 0.516815 3.24359
2.35262 0.377063 2.01742
4.5508 0.261043 1.89891
0.799591 0.340071 0.864159
4.86762 0.595793 1.66558
2.12662 0.350755 2.15188
2.00162 0.78541 3.13346
1.31831 0.177698 2.66716
2.23139 0.636391 2.84307
8.93403 0.227704 2.17711
3.26632 0.520764 3.32583
5.84611 0.64829 6.99102
1.51329 0.433266 1.93717
0.748664 0.420457 0.889003
6.64322 0.671657 1.09703
2.45554 0.250777 2.33414
3.73241 0.827282 3.30665
4.34884 0.169745 1.94012
1.98005 0.432376 2.43338
3.56645 0.698141 3.38749
1.18048 1.83115 2.00854
3.54223 0.373965 7.08644
1.96465 0.576157 1.05987
7.30328 0.667902 1.34246
7.06424 0.541781 1.63776
2.15805 0.862669 2.68711
4.70892 0.0301151 1.70557
6.85057 0.297939 0.726826
2.37822 0.225107 2.74299
3.54797 0.852533 3.52444
1.94873 0.337073 1.83594
3.51627 0.384084 6.95737
1.91058 0.611686 1.01672
7.19271 0.519897 1.19681
3.81175 0.366246 3.13372
2.28609 0.914313 2.70664
1.14384 0.571697 1.34215
6.80798 0.539163 1.05146
2.08344 0 2.90747
3.25167 0.422661 3.04138
1.85601 0.405787 1.56101
5.01662 0.605805 7.16588
3.74452 0.467489 3.1694
1.81964 0.626222 1.27276
2.73454 0.0908595 2.60012
4.66939 0.328841 1.73361
2.77874 0.412809 2.17749
2.64185 0.0249154 2.50134
1.489 0.209402 3.10787
1.91335 0.776536 0.982515
1.84139 0.607767 1.6466
4.7594 0.553418 6.6685
3.72672 0.469829 3.18152
1.90976 0.621365 1.28253
2.02617 0.651678 2.49299
4.78356 0.259873 1.82603
3.57082 0.234648 7.36669
2.67079 0.00279368 2.56547
2.07489 0.280993 2.0337
4.7313 0.192282 1.90446
3.43756 0.441114 2.76507
4.83527 0.159389 6.73433
2.49093 0.528066 2.62491
2.29747 0.720316 2.97938
5.78066 0.632179 7.0357
3.23126 0.50583 6.30657
3.30444 0.580868 6.03256
3.31913 0.295342 6.17746
2.07911 0.0492558 1.45064
4.73479 0.171719 1.89649
3.41416 0.445668 2.77625
4.84345 0.373058 6.58016
2.37461 0.391088 2.58692
1.29542 1.18504 2.69574
5.8063 0.720273 6.90402
3.22772 0.469558 6.27155
3.52374 0.169537 6.10446
2.86295 0.515215 6.3647
2.57766 0.653921 1.30419
2.35016 0.333774 2.17308
2.02744 0.466182 1.37182
3.02725 0.654585 6.52504
1.88343 0.523422 0.908691
8.6415 0.37384 2.25073
4.85033 0.0865097 6.6563
1.64475 0.319174 2.68308
1.30743 0.274655 1.48624
8.79231 0.383227 1.92662
4.79444 0.154968 1.53901
2.30778 0.312822 2.15585
1.99884 0.443947 1.35074
3.07299 0.67542 6.49324
1.95893 0.604601 1.68727
8.62973 0.323135 2.23511
4.86605 0.256531 6.41765
1.57375 0.307032 2.63376
1.4201 0.191794 1.56692
6.449 0.432306 1.05124
4.78682 0.15536 1.55076
POINT_DATA 400
SCALARS particleColor float 3
LOOKUP_TABLE default
0 0.459153 1
0 0.707702 1
0 0.546578 1
0 0.550397 1
0 0.762896 1
1 5.96046e-08 0
0 0.490349 1
0 0.207016 1
0 0.896377 1
0 0.593441 1
0 0.608543 1
0.0844908 1 0.915509
0 0.615206 1
0 0.448961 1
0 0.613538 1
0 0.53988 1
0 0.732623 1
0 0.370022 1
0 0.700943 1
0 0.351243 1
0 0.75641 1
0.60797 1 0.39203
0 0.354614 1
0 0.422182 1
0 0.66881 1
0 0.727611 1
0 0.470556 1
0 0.45349 1
0 0.197372 1
0 0.639113 1
0 0.435421 1
0 0.718732 1
1 5.96046e-08 0
0 0.63304 1
0 0.408971 1
0 0.685682 1
0 0.393721 1
0 0.645531 1
0 0.586367 1
0 0.745856 1
0 0.582911 1
0 0.5615 1
0.142679 1 0.857321
0 0.406606 1
0 0.602763 1
0 0.621214 1
0.121731 1 0.878269
0 0.47716 1
0 0.285196 1
0 0.932789 1
0 0.687072 1
0.140736 1 0.859264
0 0.302752 1
0 0.36175 1
0 0.631426 1
0 0.429935 1
0 0.301591 1
0 0.869877 1
0 0.350926 1
0 0.839677 1
0 0.588879 1
0 0.943919 1
0 0.697266 1
0 0.744795 1
0 0.696874 1
0 0.851248 1
0 0.506432 1
0.186521 1 0.813479
0 0.502322 1
0 0.764189 1
0 0.807833 1
0.241657 1 0.758343
0 0.502856 1
0 0.755 1
0 0.422261 1
0 0.888487 1
0 0.632799 1
0 0.770702 1
0 0.437202 1
0 0.712712 1
0 0.383986 1
0.176736 1 0.823264
0 0.603514 1
0 0.876528 1
0 0.0972271 1
0 0.94042 1
0 0.430344 1
0 0.810591 1
0.86459 1 0.13541
0 0.708585 1
0 0.450694 1
0 0.294606 1
0.162577 1 0.837423
0 0.852969 1
0 0.248961 1
0.0366251 1 0.963375
0 0.744941 1
0 0.81672 1
0 0.326392 1
0 0.749627 1
0 0.640306 1
0 0.437389 1
0 0.411701 1
0 0.827941 1
0.728368 1 0.271632
0 0.837792 1
0 0.665836 1
0 0.463492 1
0 0.229199 1
0 0.666662 1
0 0.465955 1
0 0.982596 1
0 0.55325 1
0 0.911274 1
0 0.662218 1
0 0.807947 1
0 0.370212 1
0 0.669092 1
0 0.482287 1
0 0.754365 1
0 0.6429 1
0 0.25525 1
0 0.495992 1
0 0.116461 1
0 0.844 1
0 0.511066 1
0 0.982424 1
0 0.490926 1
0 0.64027 1
0 0.601254 1
0 0.593331 1
0 0.627799 1
0 0.189624 1
0 0.615478 1
0 0.223152 1
0 0.650311 1
0.965665 1 0.034335
0 0.580432 1
0 0.326418 1
0 0.777252 1
0 0.257847 1
0 0.787732 1
0.0777636 1 0.922236
0 0.963554 1
0 0.836457 1
0 0.663262 1
0 0.35477 1
0 0.61308 1
0 0.329097 1
0 0.528301 1
0 0.235581 1
0 0.635288 1
0 0.706319 1
0 0.386716 1
0 0.880141 1
0 0.421825 1
0 0.376587 1
0 0.183215 1
0 0.690298 1
0 0.356774 1
0 0.9727 1
0.276051 1 0.723949
0 0.750094 1
0 0.882053 1
0 0.693344 1
0 0.834137 1
0 0.404913 1
0 0.969286 1
0 0.981903 1
0 0.945188 1
0.0362496 1 0.96375
0 0.582807 1
0 0.534854 1
0 0.725267 1
0 0.762308 1
0 0.698806 1
0 0.424877 1
0 0.313342 1
0 0.543256 1
0 0.867349 1
0 0.18525 1
0 0.529866 1
0 0.618798 1
0 0.515606 1
0 0.714592 1
0 0.849033 1
0 0.710547 1
0.19487 1 0.80513
0 0.545189 1
0 0.504725 1
0 0.20534 1
0 0.286979 1
0 0.380321 1
0 0.791983 1
0 0.724359 1
0 0.471379 1
0 0.539458 1
0 0.906407 1
0 0.495573 1
0 0.228518 1
0 0.634899 1
0 0.670188 1
0.40139 1 0.59861
0 0.936734 1
0 0.811243 1
0 0.683743 1
0 0.579035 1
0 0.793867 1
0 0.97947 1
0 0.532372 1
0 0.679855 1
0 0.391694 1
0 0.45601 1
0 0.95452 1
0 0.712418 1
0 0.645274 1
0 0.640321 1
0.299343 1 0.700657
0 0.282106 1
0 0.301389 1
0 0.50273 1
0.642351 1 0.357649
0 0.359092 1
0 0.715846 1
0 0.635237 1
0 0.7495 1
0.372762 1 0.627238
0 0.968107 1
0 0.761223 1
0 0.771844 1
0 0.560161 1
0 0.513741 1
0 0.463083 1
0 0.792854 1
0 0.520157 1
0 0.763896 1
0 0.618538 1
0 0.220155 1
0 0.972101 1
0 0.856783 1
0 0.495309 1
0 0.614653 1
0 0.445137 1
0 0.56315 1
0 0.787597 1
0 0.711515 1
0 0.876969 1
0 0.516968 1
0.0681508 1 0.931849
0 0.735692 1
0 0.780661 1
0.312683 1 0.687317
0 0.667748 1
0 0.723644 1
0.200245 1 0.799755
0.0108043 1 0.989196
0 0.611796 1
0.111695 1 0.888305
0.0717917 1 0.928208
0 0.875693 1
0 0.843422 1
0.103317 1 0.896683
0.623546 1 0.376454
0 0.0839227 1
0.0969232 1 0.903077
0 0.411013 1
0 0.619475 1
0.12302 1 0.87698
0 0.504513 1
0.241052 1 0.758948
0 0.875233 1
0.0672875 1 0.932712
0 0.765155 1
0.0473916 1 0.952608
0 0.510648 1
0 0.477196 1
0 0.848541 1
1 0.777467 0
0 0.731251 1
0 0.81806 1
0 0.483272 1
0 0.828849 1
0 0.439427 1
0 0.698117 1
0 0.789631 1
0.0428362 1 0.957164
0 0.853658 1
0 0.669359 1
0 0.501285 1
0.628241 1 0.371759
0 0.471314 1
0 0.784121 1
0 0.75111 1
0 0.856412 1
0 0.802885 1
0 0.737363 1
0 0.643141 1
0 0.364953 1
0 0.897531 1
0 0.666746 1
0 0.461641 1
0 0.192351 1
0.250998 1 0.749002
0.43508 1 0.56492
0 0.516956 1
0.0958019 1 0.904198
0 0.542515 1
0 0.629514 1
0 0.47958 1
0 0.882767 1
0.538926 1 0.461074
0 0.184437 1
0.196248 1 0.803752
0 0.956147 1
0 0.735798 1
0 0.842987 1
0 0.485555 1
0 0.753325 1
0 0.651541 1
0 0.544784 1
0 0.6698 1
0.126147 1 0.873853
0 0.370603 1
0.107419 1 0.892581
0 0.806307 1
0 0.417705 1
0 0.527517 1
0 0.741121 1
0 0.482433 1
0 0.814229 1
0 0.568855 1
0 0.480432 1
0 0.302061 1
0 0.982458 1
0 0.66035 1
0 0.517563 1
0 0.604033 1
0 0.596603 1
0 0.607559 1
0 0.529096 1
0 0.681876 1
0 0.715989 1
0 0.693496 1
0 0.681054 1
0 0.850539 1
0 0.266416 1
0 0.436249 1
0.143044 1 0.856956
0 0.292507 1
0 0.501659 1
0 0.394369 1
0 0.715214 1
0 0.285666 1
0 0.765879 1
0 0.693001 1
0.0694618 1 0.930538
0 0.541526 1
0 0.888489 1
0 0.309786 1
0.460719 1 0.539281
0.00214748 1 0.997853
0 0.560429 1
0 0.688712 1
0 0.500303 1
0 0.764541 1
0 0.792983 1
0 0.771046 1
0 0.194741 1
0 0.950692 1
0.370011 1 0.62999
0.0277235 1 0.972277
0 0.584851 1
0.240778 1 0.759222
0 0.786534 1
0 0.504547 1
0 0.817317 1
0 0.77226 1
0 0.588689 1
0 0.408405 1
0 0.487444 1
0 0.469644 1
0 0.594802 1
0 0.3367 1
0 0.331977 1
0 0.979872 1
0 0.592779 1
0 0.737032 1
0 0.357945 1
0.261196 1 0.738804
0 0.601714 1
0 0.424041 1
0 0.554929 1
0 0.474774 1
0 0.587846 1
0.0990003 1 0.901
0 0.386189 1
0 0.738757 1
0 0.342961 1
0 0.795704 1
0 0.605827 1
