# vtk DataFile Version 3.0
Particle simulation
ASCII
DATASET POLYDATA
POINTS 400 float
1.20115 0.347265 9.47164
2.33888 2.6326 6.41825
7.25655 9.04103 9.13951
5.28668 3.58662 3.02572
8.75066 1.8915 9.79389
6.26096 6.79769 0.574506
5.86528 5.86559 5.10925
8.31079 4.28659 3.81898
6.2135 2.0286 0.923265
1.13531 0.59735 7.80682
4.78334 2.15819 4.30844
8.61841 2.88604 9.62659
5.34156 4.39721 3.14202
0.965789 1.91768 5.44393
1.27008 2.08543 5.30073
3.28069 2.47392 6.08818
3.81032 4.18407 3.07919
3.34543 0.211416 0.834388
8.58411 4.5938 9.36015
9.92575 0.207611 3.78702
3.25158 0.493299 1.02981
6.75701 3.35155 9.1727
2.48841 3.6907 4.53879
3.46321 8.55455 0.243518
9.88321 1.89855 6.59767
2.19298 4.23747 9.1367
9.24945 2.42457 0.17201
0.174198 0.660009 8.68237
5.40201 7.18281 0.805099
6.27043 2.63183 9.20633
2.58712 3.14855 3.13245
0.913934 6.61954 4.98376
0.206218 8.67885 8.70653
9.19412 2.18653 3.33289
9.74181 8.03647 5.2938
6.02887 8.14949 8.58741
5.25773 0.982574 9.04053
3.20888 0.129408 1.24098
7.39891 2.70239 1.42373
1.46658 2.50069 8.6035
8.69052 4.52429 3.67567
7.02786 2.69046 9.21142
8.73488 6.19093 6.60097
9.57793 9.35724 5.64051
9.80589 0.321518 4.44997
5.55745 0.504134 0.943261
7.30186 5.33012 7.25566
6.98109 2.04969 6.9803
5.69898 0.597641 0.764632
1.38512 3.39248 8.45807
4.02383 5.88761 6.39289
4.09543 0.209043 2.30521
7.74635 0.888304 4.8639
7.56769 3.1107 3.94297
5.40405 2.11647 7.83736
5.65178 0.542683 0.974828
8.94863 2.35553 3.30422
0.196204 1.04689 6.18314
6.26291 1.28307 1.56898
4.80616 2.16183 0.307786
0.902587 2.69687 8.36942
4.07084 3.8983 3.65889
8.12285 3.1805 6.53395
0.772718 1.05939 9.2708
3.9235 6.26916 3.40151
1.38939 0.0520165 9.31994
1.2167 2.42232 8.68744
4.34126 2.2184 0.936033
6.3107 1.42968 1.63087
4.74053 0.752349 9.62826
9.87643 0.0770758 6.40007
3.282 0.727209 2.54029
8.34744 6.32397 5.99833
0.558505 0.741645 9.50774
1.33504 2.01101 9.16779
7.49756 3.78199 9.79202
3.39708 0.5051 7.14985
4.49063 0.346729 8.58697
0.444686 3.32828 1.41455
7.26619 1.88308 8.64742
3.33144 0.52608 1.26782
5.14377 1.15729 4.42518
1.71517 1.18119 4.42342
3.71226 0.15508 0.899008
0.159181 0.627149 7.65685
1.96735 0.606034 8.0786
5.95999 5.39329 5.39609
3.37348 0.323526 6.23947
0.264678 8.12149 2.31558
6.76727 0.340918 0.730857
3.36829 0.211349 1.67625
3.09474 0.217898 1.63604
1.5962 2.27933 8.60095
2.93577 0.960393 4.42956
0.787329 1.21979 9.34736
2.27762 3.93769 0.757787
8.12899 7.71678 0.925617
3.58756 4.981 6.65945
6.17485 5.28057 4.84707
6.87398 0.306627 0.788356
3.36081 0.329078 1.18075
3.28882 2.66947 4.1237
4.0479 0.574845 5.50625
4.57016 6.34455 8.00649
5.00191 2.62106 6.74066
1.38117 0.496448 1.15955
9.76776 0.748551 9.75803
5.54231 0.392321 0.6718
4.46586 1.03445 0.954722
7.70217 9.23765 8.72128
6.50379 9.46063 0.1246
2.56607 0 8.55168
9.48707 5.17059 0.531254
4.58671 0.76864 0.554793
3.76944 0.279199 0.656405
1.36138 0.669798 5.58348
5.5913 0.437465 8.44179
9.21712 1.81828 2.99506
9.62101 0.411452 6.99956
4.21871 9.26095 2.84702
3.56349 0.465732 1.35937
6.2999 1.1249 7.44257
6.71543 8.7805 0.350283
5.10541 5.01511 8.80892
5.40225 1.73411 7.91157
3.79566 0.554972 1.02275
6.96483 4.40563 2.51608
0.960601 1.10418 9.37902
0.812835 0.474295 9.69732
1.28037 7.54174 6.55365
3.85598 0.73382 1.36571
5.01271 3.99212 9.31205
6.44306 5.7112 6.00231
5.6816 0.036981 7.26063
0.292301 8.4551 8.29263
1.1752 1.35242 1.25099
6.45804 7.5278 6.99792
1.19375 1.1841 9.21771
8.30279 1.09264 7.51595
5.04555 0.636461 8.60755
3.07878 0.34896 1.23761
5.40975 4.72389 8.69403
2.83652 2.34379 7.90497
8.21731 1.30157 8.7479
3.19139 0.494101 1.29882
4.88271 1.15684 4.11979
9.68772 0.565803 4.30788
1.13414 1.0109 0.642625
3.30081 0.83456 2.53801
2.13597 2.3644 9.73328
2.97435 0.441863 1.20602
7.15588 2.1073 6.2681
1.44269 0.0821112 9.40335
0.460104 1.88465 9.05158
5.1005 6.57815 7.14863
5.54718 0.252003 1.26104
9.28891 0.293954 3.74384
4.85215 0.837691 0.573614
8.32249 2.39026 6.03533
3.55137 1.87824 1.1807
5.413 1.19763 0.242136
3.67992 1.35779 5.77286
5.94118 1.00042 9.60012
1.75134 0.731378 0.428998
1.47862 2.05103 0
9.97403 1.57144 8.10164
5.95985 0.217042 6.85798
5.26357 0.489535 8.07905
2.74374 7.39877 3.22636
3.33575 2.06101 3.98859
3.24249 0.467176 1.38103
5.51047 1.05387 2.16033
5.24441 4.5706 3.53778
0.629162 0.300646 0.0499204
3.18023 0.240807 4.66423
8.67986 6.03849 0.438668
2.3004 0.265538 8.18221
3.16977 0.557477 7.16446
0.619645 0.558152 9.5565
2.69687 1.83392 0.457571
3.09601 0.0769128 0.929405
8.06613 8.73118 7.26214
2.11931 1.99747 0.732309
4.49837 0.599347 0.719016
5.72015 0.707055 7.65116
5.06545 0.780751 0.342614
3.52959 0.346615 1.4454
9.37317 5.4306 6.19688
9.92613 0.0773551 3.94251
3.04907 0.150558 1.30034
3.15198 0.177595 1.26908
3.32547 0.267257 1.09101
0.645943 1.72229 6.77662
0.873605 1.12043 0.98965
3.77843 8.40084 5.10012
3.68767 0.117392 1.10099
3.0952 0.361046 4.68838
1.15587 3.67306 1.95345
3.32562 0.413916 1.13364
3.29132 0.591294 0.936382
3.36857 0.346615 1.52558
5.40495 0.807098 0.941105
9.71129 0.457329 4.22065
2.16197 0.517594 8.08862
6.41717 8.63453 7.06647
5.21422 0.336953 8.31795
3.02531 0.118375 1.02983
3.59579 0.215783 8.90829
0.950779 0.892386 3.91313
6.88519 0.261541 0.831231
3.64191 0.120134 0.74549
3.85517 0.551321 0.758921
9.34443 4.10609 9.80893
6.20446 0.957734 8.33268
0.512524 1.25092 9.3336
5.14481 0.541465 8.78938
3.27649 0.600435 0.985216
3.52229 0.151627 0.890417
1.82266 5.00609 9.43665
6.93592 0.292831 0.684707
2.18342 5.18711 6.39839
9.64913 1.71148 8.83725
4.66897 0.556198 7.94359
3.33577 0.0517296 1.14938
5.51785 0.350825 7.88992
2.85505 0.108093 1.30824
8.34403 6.14487 0.379756
3.51975 0.272349 1.01103
3.11251 0.731767 1.57589
7.89845 0.878057 4.91622
3.36309 1.40775 5.74248
5.87638 0.143769 7.55524
9.58252 0.440067 4.22931
3.35722 0.147143 0.604956
4.99208 0.219777 8.41273
1.19698 0.87828 4.37023
1.622 0.343013 8.04198
3.75456 0.991659 5.32039
3.55465 0.0535127 1.1362
7.01592 0.558964 1.68645
3.26515 0.386519 1.02877
3.42335 0.214871 1.60474
3.24271 0.572695 0.937584
3.1543 0.450003 0.903235
4.88933 0.388499 8.72072
1.23389 0.616139 1.27788
1.63483 1.17857 4.83695
5.0461 1.95387 7.6838
1.77019 0.43781 0.312335
5.68864 0.518694 8.11409
3.17204 0.452245 0.905221
6.89318 5.33761 5.6521
5.51401 0.502198 7.95928
4.16892 0.871087 5.32218
9.35685 0.161866 4.15381
3.06914 0.395441 1.03094
6.56903 2.04954 1.14983
5.18621 0.663391 8.00123
5.35342 0.749323 3.10956
5.35456 0.593956 8.01834
3.05123 0.0855903 1.15013
8.53226 1.5318 3.46451
2.29306 0.437517 8.12963
1.82174 0 2.30958
5.44504 0.893826 8.36516
9.65356 1.22768 5.41593
4.82416 0.0879109 0.914002
4.79315 0.54273 8.40962
9.70193 0.169189 4.37763
3.13306 0 0.702228
3.25707 0.314121 1.19221
5.36193 1.06157 1.04846
4.15 0.691342 1.57779
3.78363 0.628574 5.25567
5.66006 0.59648 9.06413
5.49417 0.435418 8.08974
2.80008 2.76001 8.24653
1.25081 9.819 6.94476
0.794788 0.691747 3.71276
3.16528 0.39596 1.3338
7.05782 0.447511 1.08755
5.59297 0.704529 0.935923
3.42711 4.51157 5.68094
2.53914 0.268845 8.52934
8.86594 5.39574 7.48621
9.37825 0 4.54257
3.65017 0.270852 1.10137
5.1563 0.942583 4.15052
6.28637 0.921518 9.89656
2.77131 8.10469 5.27685
9.70208 0.0254467 1.05052
5.52813 0.789523 1.23613
2.96073 0.517618 1.47038
0.965392 1.10069 9.3174
5.23213 0.658033 8.74759
5.24395 0.743247 8.72283
3.45153 0.534896 1.19174
3.45046 0.393311 1.27159
4.87772 1.11872 4.06691
3.4914 0.363397 1.19567
5.79061 0.261212 0.644057
5.39441 1.77335 7.70544
2.68828 2.79312 8.20712
5.81585 0.662437 2.72156
3.03301 0.0421322 0.904894
0.881234 0.363126 8.75886
3.7632 0.459434 0.873029
2.93834 0.16757 1.24067
1.54723 0.574252 8.35441
3.6245 0.632625 5.34511
5.4138 0 8.07141
7.07496 2.06462 6.344
9.91149 0.294357 4.01803
3.14529 0.664738 1.67928
5.16172 1.30511 4.40041
1.09129 1.07688 9.39687
5.64909 1.13222 1.12602
5.50754 0.745184 3.10813
6.59439 1.58949 1.5788
3.29093 0.729596 2.451
5.85713 0.707621 8.0737
1.57327 0.981576 4.77248
5.49765 0.553639 8.65781
3.98854 0.365484 1.38678
7.16432 0.391166 1.12747
6.9031 0.380602 0.794119
3.49737 0.184606 1.49555
5.40289 0.624348 1.11211
4.8546 0.779972 2.2809
2.71428 0.570768 1.01434
9.75406 1.74293 8.09429
3.47039 0.265284 1.07006
5.40711 0.28364 8.56805
3.49721 0.241837 0.608621
5.08109 0.265115 0.774494
8.83742 5.12195 7.83307
5.73712 0.754471 3.08577
3.2079 0.0296313 1.14959
5.66456 1.87568 1.59348
3.16369 0.255218 4.74186
5.42621 0.196791 8.36745
3.27618 0.303404 4.53634
5.16671 0.567126 8.21597
5.32478 0.46904 8.29057
3.54972 0.0718198 1.29313
3.42421 0.140657 1.11567
5.34347 0.770036 1.04308
3.1577 0.0989949 1.05312
3.29881 0.0174757 0.758332
3.36522 0.210433 4.78098
2.76715 0.117077 1.14873
3.02477 0.437178 1.35505
6.13857 0.647068 9.54534
5.76603 0.739329 7.92336
3.74365 0.066463 1.50685
3.6824 0.0794908 1.13297
5.57773 0.381385 0.622787
5.02142 0.386125 8.44737
3.88014 0.309418 1.21695
3.24596 0.0867859 1.00908
5.74471 0.495936 0.589866
5.62533 0.753355 8.24427
5.64477 0.852461 8.6865
3.38797 0.225175 1.01247
4.0794 0.588015 1.08714
9.46833 0.298705 3.99293
5.0566 0.353221 8.71551
5.13143 0.807517 8.1295
5.31886 0.768515 8.649
4.52571 1.0496 0.718033
5.71133 0.43806 0.625047
7.00419 2.11419 6.25738
5.49014 0.680617 8.55372
2.79057 0.3354 1.22701
3.40172 0.148074 1.31865
9.56713 0.409784 4.13551
5.53383 0.712409 8.32293
5.77238 0.361069 8.41704
5.64736 0.421547 8.15002
3.28401 0.295952 1.21865
2.9999 0.271484 1.57895
3.46469 0.112278 1.01721
5.54054 0.598697 8.05299
3.40276 0.41827 0.7957
1.10098 1.04154 9.53651
5.33997 0.519181 8.60775
2.91642 0.291962 1.35398
3.0712 0.488455 0.962025
9.24957 2.48138 5.57167
5.63378 0.567874 1.0025
3.11736 0.350736 1.56915
3.30933 0.225782 1.19556
5.64721 0.454919 8.49684
3.44194 0.239411 1.28614
0.976167 1.10933 9.29772
5.4397 0.566852 8.48542
2.93191 0.314071 1.27518
3.47958 0.194009 4.72677
6.7143 0.524428 0.773555
5.65939 0.573028 1.00002
POINT_DATA 400
SCALARS particleColor float 3
LOOKUP_TABLE default
0 0.397604 1
1 0.96457 0
1 5.96046e-08 0
1 0.425243 0
1 0.657443 0
1 5.96046e-08 0
0 0.865806 1
1 0.820651 0
0 0.861272 1
0 0.895765 1
0.574682 1 0.425318
1 0.500744 0
1 5.96046e-08 0
0 0.757866 1
1 5.96046e-08 0
1 5.96046e-08 0
1 0.799198 0
0 0.441254 1
0 0.714568 1
0 0.404528 1
0 0.251673 1
0 0.451193 1
1 5.96046e-08 0
1 0.593799 0
1 0.868252 0
0.143603 1 0.856397
1 0.7872 0
0.0986629 1 0.901337
0.49893 1 0.50107
0.106016 1 0.893984
0 0.767315 1
0 0.865687 1
0 0.792148 1
0.278996 1 0.721004
1 0.313048 0
1 5.96046e-08 0
0.348295 1 0.651705
0 0.753028 1
0 0.74749 1
0.300072 1 0.699928
1 0.623317 0
1 0.896224 0
1 0.471418 0
1 5.96046e-08 0
0 0.651827 1
0 0.563491 1
0.673751 1 0.326249
0.00993483 1 0.990065
0 0.494768 1
1 5.96046e-08 0
0.8756 1 0.1244
1 5.96046e-08 0
0 0.336223 1
1 0.0196626 0
0 0.297111 1
0 0.966081 1
0.810271 1 0.189729
0 0.8187 1
0 0.759638 1
1 5.96046e-08 0
1 5.96046e-08 0
1 0.888825 0
1 0.68625 0
0 0.980325 1
0 0.95854 1
0 0.380176 1
0.110253 1 0.889747
1 0.25585 0
0.0163338 1 0.983666
0 0.379679 1
0 0.474338 1
0 0.691077 1
0.430944 1 0.569056
0 0.638898 1
0 0.857681 1
1 5.96046e-08 0
0 0.585639 1
0 0.730036 1
0.356556 1 0.643444
0.813074 1 0.186926
0 0.534046 1
0 0.974072 1
0 0.819606 1
0 0.50426 1
0 0.600944 1
0 0.818013 1
0.70723 1 0.29277
1 0.277915 0
0.0625821 1 0.937418
0 0.743915 1
0 0.25349 1
0 0.914343 1
0 0.654309 1
0 0.181221 1
0 0.862387 1
1 5.96046e-08 0
1 0.473802 0
1 0.958706 0
1 5.96046e-08 0
0 0.443949 1
0 0.484528 1
0.25786 1 0.74214
0 0.787633 1
1 0.804021 0
1 0.573136 0
0 0.411681 1
0 0.818822 1
0 0.836909 1
0 0.775207 1
1 0.612275 0
0 0.936772 1
0 0.915992 1
0.0165305 1 0.983469
0 0.126469 1
0 0.301161 1
1 0.714686 0
0 0.71069 1
0.00769821 1 0.992302
1 0.823576 0
1 0.0124629 0
0 0.608495 1
1 0.907554 0
1 5.96046e-08 0
0.324398 1 0.675602
0 0.936964 1
0 0.609525 1
1 5.96046e-08 0
0.0678011 1 0.932199
0.138277 1 0.861723
0.300416 1 0.699584
0 0.691724 1
0.689655 1 0.310345
0 0.888676 1
0.447593 1 0.552407
1 0.710993 0
0 0.586392 1
0.809386 1 0.190614
0 0.417524 1
1 5.96046e-08 0
0 0.441937 1
0 0.725852 1
0.450712 1 0.549288
0 0.986764 1
0.116877 1 0.883123
0 0.748639 1
0 0.275278 1
0 0.278126 1
0.241593 1 0.758407
0 0.412687 1
1 5.96046e-08 0
0 0.799977 1
0 0.729133 1
0 0.856871 1
0.680132 1 0.319868
0 0.911201 1
0 0.676661 1
0.125537 1 0.874463
0 0.920142 1
0.563058 1 0.436942
0 0.367919 1
0.195217 1 0.804783
0 0.99375 1
0 0.45754 1
0 0.88025 1
1 0.837126 0
0 0.50051 1
0 0.527406 1
0 0.820608 1
1 5.96046e-08 0
0.754235 1 0.245765
0 0.754772 1
0 0.797864 1
0 0.72442 1
0 0.610142 1
0 0.237999 1
0.648667 1 0.351333
0 0.647864 1
0 0.458771 1
1 0.83769 0
1 0.340298 0
0 0.485257 1
1 0.556496 0
0.150667 1 0.849333
0 0.7717 1
0 0.5635 1
0 0.487677 1
0 0.470523 1
1 5.96046e-08 0
0 0.618402 1
0 0.558623 1
0 0.418457 1
0 0.620061 1
1 0.178595 0
0.249877 1 0.750123
1 5.96046e-08 0
0 0.760246 1
0 0.595725 1
1 5.96046e-08 0
0 0.24531 1
0 0.87245 1
0 0.740418 1
0 0.168529 1
0.356145 1 0.643855
0 0.375969 1
1 0.550146 0
0 0.270214 1
0 0.72086 1
0.772611 1 0.227389
0 0.595821 1
0 0.236311 1
0 0.0736561 1
0 0.762664 1
1 0.64694 0
0 0.767776 1
0 0.963599 1
0 0.324452 1
0 0.678574 1
0.0578705 1 0.942129
0.52761 1 0.47239
0 0.819962 1
0.77672 1 0.22328
0 0.600843 1
0 0.389573 1
0 0.823945 1
0 0.716999 1
0 0.770743 1
0.58987 1 0.41013
0 0.529906 1
0 0.17775 1
0.456938 1 0.543062
0 0.561953 1
0 0.219238 1
0 0.656332 1
0 0.192247 1
0 0.19095 1
0.112798 1 0.887202
0 0.990853 1
0 0.498214 1
0 0.483888 1
1 5.96046e-08 0
0 0.924862 1
0 0.794349 1
0.125639 1 0.874361
0.102973 1 0.897027
0 0.43158 1
0 0.491246 1
0 0.213386 1
0.81169 1 0.18831
0.840826 1 0.159174
0.0503916 1 0.949608
0 0.535088 1
0.461873 1 0.538127
0 0.406687 1
0 0.640602 1
0 0.86016 1
0 0.658835 1
0.61047 1 0.38953
0 0.743801 1
0.157617 1 0.842383
0 0.217314 1
0 0.935142 1
0.303959 1 0.696041
0 0.348797 1
1 5.96046e-08 0
0 0.629077 1
1 0.828273 0
0 0.824964 1
0 0.327919 1
0 0.163874 1
0.0130953 1 0.986905
0.212119 1 0.787881
0.047665 1 0.952335
0.0101895 1 0.98981
0 0.646949 1
0 0.902681 1
0 0.721013 1
0 0.579659 1
1 0.42103 0
0.274057 1 0.725943
0 0.292976 1
0 0.614171 1
0 0.761449 1
1 5.96046e-08 0
0 0.791426 1
0 0.689489 1
0 0.697668 1
0 0.470085 1
0 0.799787 1
0 0.634899 1
1 0.540573 0
0 0.202062 1
0.012579 1 0.987421
0 0.800167 1
0 0.732017 1
0 0.782436 1
0 0.260701 1
0 0.801853 1
0 0.782202 1
0.121876 1 0.878124
0 0.84007 1
0.521932 1 0.478068
0 0.448873 1
0.226716 1 0.773284
0.687915 1 0.312085
0 0.691581 1
0.0304231 1 0.969577
0.112955 1 0.887045
0 0.49526 1
0 0.45332 1
0 0.333553 1
0 0.156115 1
0 0.332496 1
0 0.92282 1
0 0.426005 1
0 0.649446 1
0 0.723674 1
0.20017 1 0.79983
0 0.829415 1
0 0.757887 1
0 0.546567 1
0 0.336456 1
0 0.528364 1
0 0.932805 1
0 0.49006 1
0 0.368424 1
0 0.285176 1
0 0.582677 1
0 0.839791 1
0 0.365503 1
0 0.773157 1
0.0204806 1 0.979519
0 0.756435 1
0 0.496545 1
0 0.758437 1
0 0.351166 1
0 0.58674 1
0 0.582709 1
0 0.673848 1
0 0.69947 1
0 0.788191 1
0 0.574129 1
0.115656 1 0.884344
0 0.76794 1
0.0167213 1 0.983279
0 0.330468 1
0 0.810817 1
0 0.845198 1
0 0.798363 1
0 0.695326 1
0 0.828157 1
0 0.865497 1
0 0.572572 1
0 0.560569 1
0 0.486629 1
0 0.524855 1
0 0.618145 1
0 0.934825 1
0 0.507258 1
0 0.44513 1
0 0.729611 1
0 0.323412 1
0 0.495078 1
0 0.165407 1
0 0.165154 1
0 0.873419 1
0.287371 1 0.712629
0 0.757728 1
0.550714 1 0.449286
0 0.804271 1
0 0.709723 1
0 0.168005 1
0 0.452302 1
0 0.585699 1
0.197779 1 0.802221
0 0.822449 1
0 0.562123 1
0 0.723045 1
0 0.67352 1
0 0.578204 1
0 0.690362 1
0 0.60707 1
0 0.423376 1
0.111721 1 0.888279
0 0.485806 1
0 0.577012 1
0 0.587856 1
0 0.786293 1
0 0.427386 1
0.267099 1 0.732901
0 0.44395 1
0 0.600401 1
0 0.714805 1
0.0410731 1 0.958927
0 0.417069 1
0 0.607047 1
0 0.611517 1
0 0.75152 1
0 0.856928 1
0 0.948642 1
0 0.592967 1
