# vtk DataFile Version 3.0
Particle simulation
ASCII
DATASET POLYDATA
POINTS 400 float
1.20191 4.03894 9.07522
7.47909 9.18955 1.79177
9.5931 7.53847 6.70609
5.9769 8.23127 6.35759
0.165696 9.26515 7.84045
9.17566 9.12732 1.44106
2.14167 6.37545 9.84984
4.94752 5.00352 1.52285
9.65416 5.88279 7.29211
9.14697 1.90342 6.9284
7.32167 2.65021 8.71651
0.23072 0.823699 0.309773
3.41081 8.89356 7.63511
5.79812 9.31039 8.07082
4.88198 2.35523 8.1341
6.23219 4.18146 4.41592
7.34542 8.14434 8.96248
2.99714 0.104476 1.28189
0.57965 1.48133 8.52603
6.50096 0.772478 6.71366
2.91596 0.435297 1.48958
7.83736 10 4.21233
9.74433 2.62659 9.34307
3.26866 3.59781 3.09181
5.00528 5.63338 1.36536
9.48507 9.32847 1.06087
9.96673 8.59744 7.04602
7.43138 9.59168 9.33474
8.9922 4.04077 4.59258
0 6.97043 7.61604
2.34248 4.60239 7.93789
8.4269 1.70449 2.17302
10 2.87478 0.96232
0.952736 4.094 5.34232
7.96621 0.93397 7.84682
5.29961 3.90992 0.59137
3.93781 9.62399 2.53404
3.03704 0.117668 1.92117
9.23817 4.09028 0.978804
0.582802 8.13972 8.50331
4.15185 1.78831 6.82589
1.59605 10 9.84906
6.32766 6.92899 2.43165
5.7884 0.491261 2.19326
8.14512 0.469647 0.344364
7.25094 2.65025 3.36501
5.79443 9.22977 7.85925
9.64289 0.681643 0.291806
5.25259 1.65862 2.16203
8.96558 0.939798 1.22095
3.87261 4.16275 7.6903
2.44607 6.47866 1.36565
9.32645 5.63276 5.78244
2.26642 9.99184 4.18017
1.87778 0.181955 3.59169
5.52742 0.284484 2.03933
1.23433 6.75258 0.393436
7.07142 6.02135 0.437632
3.72065 4.10686 4.5457
6.69285 8.07095 2.59703
1.27719 0.0859384 4.53726
0.540067 9.00209 0.437285
1.79457 2.09729 2.75664
8.68679 6.39026 3.35953
8.43129 2.7202 9.66609
7.76557 7.76145 3.33881
8.72029 1.90756 6.66967
6.31592 8.08272 8.70923
4.47386 4.32904 6.60069
2.66764 9.14733 4.38402
1.33763 3.87477 2.3095
3.6439 1.23092 0.911956
8.68572 2.24367 6.2523
2.98261 0.455349 5.03012
4.59334 5.97934 9.05797
5.88875 1.97286 6.62165
1.95476 6.42994 5.99537
2.47454 6.28799 2.88329
0.354404 5.84177 2.20657
4.00367 6.03453 0.60272
3.27004 0.0833416 1.10726
5.2884 3.82089 7.27826
2.9428 0.529819 8.25731
3.8511 6.52318 4.74853
9.44897 3.4372 8.12327
0.586063 9.55552 8.06225
9.40158 8.45683 3.41285
5.90323 5.67337 7.68154
5.37703 1.83532 6.89815
8.95372 1.99001 5.28202
2.77264 0.276791 1.48224
3.37363 9.46269 2.12483
3.65521 6.38922 7.61177
1.06994 4.83549 8.95728
6.41361 4.39867 3.23666
7.80926 5.80228 8.65954
9.13169 8.52591 6.88895
0 9.08883 5.35374
5.75946 5.76605 3.9248
0.0224413 9.68592 1.52051
3.32091 0.0605233 1.42566
4.72202 3.81068 8.98897
5.40827 4.37149 0.604804
3.79267 0.248122 0.933876
7.15632 9.07354 7.86321
1.66356 2.91527 7.43751
4.21751 9.01664 1.16102
6.61494 6.00152 3.21839
8.91418 5.68185 9.9043
7.87005 2.25266 7.44932
8.8511 6.79766 6.92991
9.88471 7.93379 7.33078
3.60438 7.83768 9.50181
7.2357 0.246777 0
0.969561 0.61942 1.20183
8.77003 2.17348 1.0693
2.69644 0.575018 9.70823
9.58699 3.07834 9.4212
7.3604 0.650955 5.89531
9.27587 6.63271 2.64486
1.73655 5.25467 2.7312
4.56267 3.33626 4.68519
6.52655 6.23871 4.82804
4.32689 3.93879 9.3686
8.67639 4.82978 1.73237
3.4749 0.465649 0.849593
0.151798 3.92525 7.41893
2.6312 3.20204 9.12673
6.61534 1.74568 4.20465
0.382217 5.43118 9.00927
6.21778 8.01555 5.13924
4.02146 4.93172 1.85399
1.2363 5.20942 8.9614
7.80802 1.04772 1.09391
0.0967283 0.227268 6.51709
9.75261 4.32092 1.99908
5.33738 0.842088 9.00823
4.38197 0.614924 7.36099
7.52548 5.72919 9.04734
0.703871 5.73414 0.808963
3.68209 0.367783 1.79019
7.92528 4.0156 2.59761
1.013 1.2705 0
1.03223 7.90079 3.39739
0.745914 0.517169 1.2844
2.47285 4.79012 4.91808
1.82898 2.50691 8.48205
5.65614 7.05269 9.29505
1.53328 1.98844 0.717407
8.78036 4.24845 3.18877
3.14143 0.557288 1.42223
7.7677 6.34696 0
8.09276 1.8193 7.49527
2.80709 0.305312 1.4392
9.72258 2.18968 0
5.76581 0.322027 1.99158
0.254206 9.43555 0.257816
0 1.87764 1.45419
10 8.98812 8.77272
2.39979 2.28484 8.40907
3.9016 1.34743 6.31909
8.91544 4.68344 8.85325
3.79987 7.37341 7.2162
0.85383 1.92247 9.63051
4.68911 0.620957 2.05107
0.530184 0 4.70568
6.51964 7.71638 8.49444
9.87843 1.86103 6.10105
8.9968 1.16332 6.75439
2.87428 8.28334 9.02046
3.01388 0.118067 1.71108
2.57643 9.13879 3.86127
3.50761 0.34361 4.18769
0 2.33633 2.79058
3.23507 0.901851 5.86653
8.35955 6.99427 5.435
1.81114 0.132051 6.4961
7.97904 6.90813 8.50059
5.54118 1.90931 5.61042
7.92796 3.48105 6.41664
3.52259 0.389188 1.64255
4.58529 6.28619 1.14958
6.68019 7.68559 8.03832
1.02696 7.14548 7.59164
7.44024 6.75166 5.03214
7.44261 2.01885 0.0962728
3.60283 0.46454 1.81329
0.41002 1.354 9.3539
4.74885 0.795683 1.53711
0.766333 0.865169 1.74795
3.27597 0.505298 1.61549
3.38612 0.0687647 1.9249
8.04452 6.07839 7.07218
3.2923 9.05946 9.46474
6.50045 4.25734 3.5741
3.40464 0.351965 1.95565
6.55983 2.25359 3.92763
0.671953 1.88432 9.68276
3.23584 0.0685216 2.14389
3.27369 0.14422 1.62861
3.40053 0.484743 1.58613
7.80104 2.24341 1.7239
3.46292 7.53695 6.93114
7.21119 2.43366 4.1287
4.2747 1.37564 1.81889
2.97038 2.81985 9.46786
3.52665 0.178287 1.20789
9.68839 0.838892 1.92932
2.79424 0.444966 9.20253
4.2881 0 8.91342
3.38664 0.538007 1.6951
3.27085 0.434207 1.23172
0 3.9326 5.65078
1.42789 5.58985 8.83938
7.3627 1.82233 7.93386
3.49137 1.33807 9.97839
3.15148 0.689888 1.63986
4.57457 1.05989 2.33277
4.21945 7.18512 4.46992
4.98447 0.294532 1.44503
6.51467 10 6.69431
1.12883 2.68509 9.4931
2.54848 4.07401 5.65529
2.93941 0.0880513 1.89182
7.19361 3.59978 9.23366
1.11092 1.5021 4.7188
5.38504 8.62609 4.93022
3.61156 0.819899 1.61059
3.22864 0.638625 1.07625
9.57652 4.52475 6.21448
10 5.82339 7.34437
8.41936 1.76913 9.54995
2.35532 1.4217 4.46129
3.28738 0.536102 0.850138
2.55775 0.849327 9.47823
5.12455 9.02293 5.43422
8.45914 0.201454 5.44408
2.72309 5.4776 6.20263
3.23783 0.410616 0.96114
6.60901 7.10923 1.09193
3.24363 0.341211 1.18048
3.62512 0.579039 2.24622
3.06694 0.288955 0.892459
3.01463 0.641339 1.17381
5.34837 0.0512465 8.12342
2.58249 2.01032 8.9924
3.97419 1.02729 6.22688
5.24525 1.14015 0.578598
4.34211 7.911 7.97066
0.190642 5.56791 3.80371
2.91838 0.35676 1.46423
6.86036 7.09661 1.57734
2.53842 0.460058 9.2205
1.55509 5.71584 2.55488
7.07354 0.518361 0.236273
3.30194 0.339376 1.42595
2.94518 6.2227 1.80581
2.30072 0.667725 9.20485
0.209578 5.94028 8.52316
2.62864 0.744219 9.57527
2.98632 0.283295 1.1871
8.02164 5.86364 0.384398
6.95672 2.02454 4.23036
4.28337 1.41029 2.646
2.75418 0.57632 9.20705
8.5118 9.50247 1.8621
7.04474 0.626538 0.702021
2.4305 0.661588 9.64322
1.81376 5.63161 10
2.89174 0.225575 1.2235
3.23644 0.485627 1.15383
7.92222 6.39236 7.65292
1.20915 0.634703 8.63351
4.21974 9.32733 3.46637
7.34719 0.891004 0
3.69933 1.82769 3.84286
9.37348 6.68466 0.87439
3.86216 0 8.10297
0.619205 6.31579 5.56445
3.20985 0.264416 1.37581
3.47868 0.671419 4.10463
7.31818 0.522951 1.10707
9.01576 1.57758 1.84832
6.53135 0.730461 7.42802
9.41635 8.60074 7.00611
4.99859 2.32357 0.497447
3.60702 0.241444 1.42652
3.29186 1.17361 5.24799
0.779002 1.32109 8.86934
8.98148 6.94893 8.25398
7.96058 7.82785 4.99182
9.98004 1.15407 5.22606
3.21326 0.415756 1.65492
1.47912 0.669199 5.51448
3.52574 0.60348 9.41911
2.6053 0.956764 9.38697
3.45233 0.273317 1.92361
3.64329 0.400591 1.50411
0.470769 1.54087 3.40566
3.08535 0.280585 1.88519
3.01878 0.591199 3.9392
7.55045 2.39864 3.70784
9.57946 1.5507 7.10818
3.19858 7.16375 0.874204
3.7628 0.16462 1.41232
1.82252 0.242191 5.87719
3.40711 0.285759 2.08641
3.14626 0.0253818 1.5062
4.29697 0.905845 0.542625
9.55705 6.51189 1.12379
9.74479 1.23322 9.66155
3.55102 9.36362 6.13792
1.55731 5.63528 9.71357
3.02434 0.437162 1.35778
8.20757 1.03149 9.62495
4.07109 0.622016 4.98944
0.754382 1.85086 5.50362
1.68112 5.68383 8.26738
6.69095 0.844284 6.8223
1.41515 7.47137 2.22821
2.39446 0.31763 9.86758
4.64393 5.26182 3.80731
2.5943 0.659294 9.04271
3.44747 0.533222 1.20004
3.74508 0.615043 3.9589
5.71007 8.58648 0.620035
3.28097 0.53695 1.40942
7.17767 7.85991 4.52622
3.12006 6.02237 1.01665
3.07903 0.200576 1.35135
6.38282 0.823827 6.30903
3.04675 0.392032 0.893028
4.01565 0.680481 9.6646
3.25321 0.356316 0.496999
7.28393 0.653048 0.964565
4.18381 6.05735 6.64101
0.241735 5.87541 8.30923
3.1823 0.170405 1.28319
5.32596 9.21372 2.29606
9.86889 4.71242 9.17761
3.33539 1.91528 7.73988
9.45128 5.79722 9.73075
4.10167 0.710311 9.55191
2.60787 0.675478 9.54164
3.47168 0.291957 1.16863
3.33449 0.423549 1.38519
7.62979 0.783771 1.15355
3.04762 0.236816 1.24603
3.62552 0.346775 1.37202
8.42491 9.75854 9.11434
3.28293 0.562491 2.31477
3.09432 0.534387 1.33843
0.433184 1.8303 3.76924
2.79135 0.535969 9.24045
3.29251 0.363317 1.06129
3.23106 0.368221 0.858946
3.12128 0.836874 5.77697
3.75578 0.890949 9.20739
3.93014 0.428319 0.988945
3.22721 0.335108 1.75801
6.99933 0.680697 0.912595
2.71338 0.903256 9.4723
2.79225 0.70703 9.24671
3.1936 0.348707 0.760687
2.94281 0.231663 1.42682
7.41728 0.0709138 1.62306
2.48485 0.78366 9.61397
0.35017 9.53815 1.06195
2.47308 0.54797 9.6424
3.43852 8.30138 1.51363
7.01984 0.741032 0.915284
7.2485 5.24188 4.19705
3.24064 0.13056 8.29271
2.94473 0.351989 1.42314
3.84242 0.318062 1.37139
7.60451 0.548749 1.17057
2.76755 0.770253 8.78825
2.79882 0.911195 9.4221
4.13298 0.673787 9.23376
3.14278 0.38684 1.01917
3.45388 0.161884 1.50811
2.93446 0.250807 1.91804
4.22209 0.722356 9.22762
2.81711 0.137974 1.41463
1.52208 0.758815 5.45857
2.3098 0.640083 9.52651
3.41691 0.324349 1.57641
3.21184 0.283071 1.42979
1.48968 6.68693 1.50653
7.02417 0.891752 0.633097
3.37509 0.200013 1.68452
3.38341 0.332329 1.85458
2.83957 0.784664 9.47155
3.37051 0.432224 1.86288
1.49805 0.920273 5.53294
2.51752 0.791956 9.46244
3.39285 0.372512 1.67159
3.78367 0.493296 5.16782
7.24999 0.797261 0.674134
7.04859 0.536866 1.02981
POINT_DATA 400
SCALARS particleColor float 3
LOOKUP_TABLE default
1 5.96046e-08 0
0.420499 1 0.579501
0 0.567616 1
1 5.96046e-08 0
1 5.96046e-08 0
0.224511 1 0.775489
1 0.0543534 0
0 0.670338 1
1 0.33905 0
1 5.96046e-08 0
0.894571 1 0.105429
1 0.215614 0
0.208812 1 0.791188
0.787652 1 0.212348
1 5.96046e-08 0
1 0.78997 0
0 0.815679 1
0 0.59248 1
0.0522829 1 0.947717
1 5.96046e-08 0
0 0.294802 1
1 5.96046e-08 0
0.470227 1 0.529773
0.893764 1 0.106236
1 0.791284 0
0.348581 1 0.651419
0 0.664084 1
1 5.96046e-08 0
0.609482 1 0.390518
1 5.96046e-08 0
0 0.633112 1
1 0.0300615 0
1 5.96046e-08 0
0.33742 1 0.66258
1 5.96046e-08 0
1 5.96046e-08 0
1 0.578009 0
0 0.285616 1
0.586293 1 0.413707
0.874546 1 0.125454
1 0.102512 0
0.815644 1 0.184356
0.158568 1 0.841432
1 0.674103 0
0 0.55272 1
1 5.96046e-08 0
1 0.800298 0
0.365549 1 0.634451
0 0.421526 1
1 0.953956 0
0.297308 1 0.702692
1 0.900874 0
0.174634 1 0.825366
0.639141 1 0.360859
1 0.778987 0
0 0.851772 1
1 0.683876 0
1 5.96046e-08 0
0.373249 1 0.626751
0.0175445 1 0.982455
1 0.96545 0
0.146156 1 0.853844
1 0.366502 0
0.682166 1 0.317834
1 0.837306 0
1 0.201518 0
0.0659313 1 0.934069
1 0.261086 0
0.401376 1 0.598624
1 5.96046e-08 0
0.992617 1 0.00738323
0.32352 1 0.67648
0.977379 1 0.022621
0.113489 1 0.886511
1 5.96046e-08 0
1 0.145789 0
0.425127 1 0.574873
0.143603 1 0.856397
0.0621429 1 0.937857
0.812737 1 0.187263
0 0.192255 1
1 0.455254 0
1 0.994543 0
1 0.482825 0
0 0.440156 1
0.00395441 1 0.996046
1 5.96046e-08 0
0.614418 1 0.385582
0.0780032 1 0.921997
1 5.96046e-08 0
0 0.247161 1
0 0.749126 1
1 0.736615 0
1 5.96046e-08 0
1 5.96046e-08 0
0.156737 1 0.843263
1 5.96046e-08 0
1 0.87336 0
1 0.190854 0
1 0.433812 0
0 0.961475 1
0.182495 1 0.817505
0 0.837773 1
1 0.986037 0
1 5.96046e-08 0
1 5.96046e-08 0
1 5.96046e-08 0
1 0.842842 0
0 0.558728 1
0.683298 1 0.316702
1 5.96046e-08 0
1 5.96046e-08 0
1 5.96046e-08 0
1 5.96046e-08 0
0 0.38336 1
0.866788 1 0.133212
0 0.429476 1
0.302268 1 0.697732
0.909618 1 0.090382
0.238919 1 0.761081
0.93378 1 0.0662197
1 5.96046e-08 0
1 5.96046e-08 0
0.574722 1 0.425278
0.402884 1 0.597116
0 0.387163 1
1 0.643955 0
0.081422 1 0.918578
0.481726 1 0.518274
0.896549 1 0.103451
0 0.998829 1
0.947524 1 0.0524759
0 0.736148 1
0.611337 1 0.388663
0 0.433462 1
1 5.96046e-08 0
0.77103 1 0.22897
0 0.736504 1
1 5.96046e-08 0
0.0727511 1 0.927249
0 0.42475 1
1 0.102729 0
1 5.96046e-08 0
1 5.96046e-08 0
0.309183 1 0.690817
0.071263 1 0.928737
1 0.946951 0
1 0.627468 0
0 0.262237 1
0.417737 1 0.582263
0 0.619441 1
1 0.389368 0
1 0.523379 0
0 0.581223 1
1 5.96046e-08 0
0 0.518161 1
1 0.869836 0
1 0.614002 0
0 0.847014 1
1 0.552715 0
0 0.933853 1
0 0.557971 1
0.529712 1 0.470288
0.763918 1 0.236082
0.693092 1 0.306908
1 5.96046e-08 0
0.0485249 1 0.951475
1 0.467349 0
1 5.96046e-08 0
1 5.96046e-08 0
0 0.491527 1
0 0.810665 1
0 0.938967 1
0.240803 1 0.759197
0 0.893474 1
1 0.22894 0
0.309482 1 0.690518
1 0.733962 0
1 0.940228 0
0.439255 1 0.560745
0 0.584351 1
0.742035 1 0.257965
0 0.93657 1
0 0.872952 1
0.92357 1 0.0764296
0.446562 1 0.553437
0 0.573455 1
0.778172 1 0.221828
0 0.70996 1
0 0.860538 1
0 0.515763 1
0 0.375725 1
0 0.491983 1
1 5.96046e-08 0
1 5.96046e-08 0
0 0.858001 1
1 0.504736 0
1 0.313698 0
0 0.682722 1
0 0.594512 1
0 0.769447 1
0 0.521182 1
0.707142 1 0.292858
0.150857 1 0.849143
1 5.96046e-08 0
0 0.841993 1
0 0.401225 1
1 0.710316 0
0.506583 1 0.493417
1 5.96046e-08 0
0 0.262028 1
0 0.784266 1
1 5.96046e-08 0
1 0.0898881 0
1 0.995952 0
0 0.857426 1
0 0.414038 1
0 0.961592 1
0.657552 1 0.342448
0 0.422761 1
1 5.96046e-08 0
0.186172 1 0.813828
1 0.666998 0
0 0.704551 1
0.58457 1 0.41543
1 5.96046e-08 0
1 0.786636 0
0 0.637844 1
0 0.437874 1
1 0.642201 0
1 0.661846 0
0 0.623254 1
0.833784 1 0.166216
0 0.63706 1
0 0.390927 1
0.312451 1 0.687549
1 0.928451 0
1 0.868269 0
0 0.74924 1
1 5.96046e-08 0
0 0.665599 1
0 0.905623 1
0 0.132893 1
0 0.230893 1
0 0.749284 1
0.40691 1 0.59309
0 0.930238 1
0 0.819498 1
0.605461 1 0.394539
1 0.958162 0
0.0762659 1 0.923734
1 5.96046e-08 0
0 0.912306 1
1 0.163174 0
0.0205615 1 0.979438
0.0935983 1 0.906402
1 5.96046e-08 0
0 0.350684 1
0 0.522816 1
0 0.415943 1
0 0.658691 1
1 5.96046e-08 0
0 0.98609 1
0.720928 1 0.279072
0 0.510053 1
0.890405 1 0.109595
0 0.877763 1
0 0.379053 1
0.267213 1 0.732787
0 0.689829 1
0.0501072 1 0.949893
0.350084 1 0.649916
1 5.96046e-08 0
0.25089 1 0.74911
0 0.802495 1
0 0.922726 1
0 0.681745 1
1 5.96046e-08 0
1 5.96046e-08 0
0 0.393083 1
0 0.752376 1
0 0.734971 1
1 0.822118 0
0.646101 1 0.353899
0.581581 1 0.418419
1 5.96046e-08 0
0 0.585646 1
0.777345 1 0.222655
1 5.96046e-08 0
1 5.96046e-08 0
1 5.96046e-08 0
0.176934 1 0.823066
0.0770078 1 0.922992
0.227635 1 0.772365
0.190674 1 0.809326
0.0238338 1 0.976166
0 0.138261 1
0 0.721759 1
0.32035 1 0.67965
0 0.508282 1
1 0.899649 0
0 0.827912 1
0.275719 1 0.724281
0 0.600565 1
0 0.271372 1
0 0.387526 1
0 0.35838 1
0 0.485136 1
0 0.286031 1
0 0.859815 1
0.623673 1 0.376327
1 5.96046e-08 0
0.447976 1 0.552024
0 0.427258 1
0 0.445863 1
0 0.809478 1
0 0.575434 1
0.50434 1 0.49566
0 0.403524 1
0.708512 1 0.291488
0 0.247046 1
1 5.96046e-08 0
0 0.833808 1
0 0.857318 1
0 0.415763 1
0 0.85367 1
0 0.870248 1
1 0.343624 0
1 5.96046e-08 0
0 0.654592 1
1 0.622428 0
0.0169444 1 0.983056
0 0.362624 1
0 0.189828 1
0 0.381048 1
1 5.96046e-08 0
0 0.417346 1
0 0.238806 1
0.967555 1 0.0324455
0.584571 1 0.415429
1 0.7284 0
0.480947 1 0.519053
0 0.24166 1
0 0.422872 1
0 0.204963 1
0 0.907011 1
0 0.826989 1
0 0.73415 1
0 0.717149 1
0 0.823659 1
0 0.493254 1
0 0.27905 1
0.359297 1 0.640703
0.186524 1 0.813476
0 0.986354 1
0 0.823756 1
0 0.492196 1
0 0.738551 1
0 0.668015 1
0 0.762195 1
0 0.744227 1
0 0.578321 1
0 0.483512 1
0 0.790235 1
0 0.725895 1
0 0.395133 1
0 0.579889 1
1 0.331889 0
0.0951677 1 0.904832
1 5.96046e-08 0
0 0.308245 1
1 0.397262 0
0.104589 1 0.895411
0 0.874478 1
0 0.753358 1
0 0.830737 1
0 0.230779 1
0 0.839455 1
0 0.747365 1
0 0.920982 1
0 0.880224 1
0 0.697199 1
0 0.135887 1
0 0.578695 1
0 0.883878 1
0 0.49482 1
0 0.5306 1
0 0.43842 1
1 5.96046e-08 0
0 0.905251 1
0 0.887785 1
0 0.713289 1
0 0.89582 1
0 0.541624 1
0 0.895264 1
0 0.580938 1
0 0.454239 1
0 0.976116 1
0.149893 1 0.850107
0 0.460506 1
