# vtk DataFile Version 3.0
Particle simulation
ASCII
DATASET POLYDATA
POINTS 400 float
4.26781 0.75389 9.14732
1.84325 4.58481 2.07585
0.71003 2.71893 2.1538
2.28525 0.19948 0.900121
8.47454 1.99985 3.82984
8.80098 0.760758 4.72524
8.80364 3.64195 2.53387
2.52834 4.53983 1.6855
6.62115 3.39772 1.21245
8.13737 0.565853 3.92761
2.74975 0.386707 0.448014
2.49185 1.59288 2.20495
5.21678 4.24947 4.50998
3.65153 0.170951 0.882376
8.73623 2.06812 4.0162
8.63765 4.55458 9.15424
3.33129 5.61365 0.695978
1.53688 1.27382 3.25261
2.3171 9.2541 9.03903
8.11714 0.570191 3.8146
3.90533 0.379558 3.06863
1.70573 1.06774 6.24993
1.80721 5.43869 6.98324
7.73216 0.942465 3.41664
9.84713 7.75401 9.35799
3.83506 0.297468 2.09964
4.18088 9.02794 4.52392
2.2588 0.845446 2.20734
5.62725 0.927193 5.27995
1.82813 0.297049 2.66662
9.95026 3.72212 3.53554
9.52986 0.33032 1.4318
3.19143 1.74326 7.49885
7.7937 0.916798 3.45231
2.26442 1.6628 3.00459
1.27222 0.509786 0.881799
7.30851 0.239301 9.47235
2.77286 0.529299 2.15863
5.9835 0.3023 0.790363
3.17036 0 0.358439
3.55446 0.386803 2.35099
7.94932 5.99401 4.1185
4.8173 5.62542 5.30137
9.77846 4.84467 3.98298
9.50219 0.193799 9.13215
5.64119 0.706264 1.96111
8.68554 2.06824 3.38485
2.45835 0.342074 0.595535
5.60459 0.36433 1.92361
9.35057 4.29072 3.66989
0.387855 2.99397 2.52896
7.96035 6.06031 4.1325
5.81882 0.840888 5.4474
7.78845 0.748774 3.43723
9.74959 0.457593 8.41132
5.6285 0.713236 1.94732
4.52409 0.541255 8.45644
2.50904 0.321646 0.623205
5.71523 0.400174 1.93558
0.085266 2.57385 8.27487
5.23858 1.20496 6.80654
4.6124 0 6.40514
1.20411 0.208005 4.41386
8.30213 0.506508 3.75257
7.28452 0.620341 5.38975
9.68639 0.0213597 5.9912
5.73432 0.783303 5.43129
0.481343 2.94031 2.69645
5.77359 0.382454 1.88129
4.22832 0.348321 8.29233
4.74616 0.607322 6.34961
2.13134 1.69414 2.38651
8.13814 1.19508 6.73081
8.24461 0.504716 3.73582
7.34878 0.640653 9.17196
6.1323 0.83865 8.78128
5.75087 0.81405 5.4338
4.2641 0.685788 8.60367
5.84346 0.118776 1.85146
5.49431 0.25652 7.99637
2.46946 0.464685 2.25323
2.46345 0 3.09999
2.35943 1.56308 2.488
2.6881 0.362304 1.90307
5.15685 0.220887 7.47899
4.91484 0.126032 8.12166
4.88027 0.443528 7.31391
6.78808 0 1.77488
4.1282 1.79306 1.78373
9.40766 0.192451 1.2502
2.47396 0.343137 2.07337
2.25332 0.541946 0.601931
1.74072 3.0009 8.0877
2.69563 0.409196 1.90375
5.12464 0.217503 7.45428
4.98752 0.110006 8.16674
5.01468 0.277186 8.18806
2.25034 0.668895 1.00602
5.53165 1.47631 7.48503
9.40841 0.200192 1.24882
2.6251 0.159237 2.31846
3.03383 0.265006 9.70168
1.58336 0.127625 1.44975
7.32194 0.728644 5.61264
9.04251 1.1141 0.018391
2.51257 0.3791 0.810193
4.90717 0.208972 7.24179
5.38333 0.373504 2.17625
5.61994 0.469758 1.92818
9.22045 0.554318 0.684941
0.376051 3.4164 2.17537
7.92221 0.899054 3.61501
2.83613 0.361292 2.1705
9.5073 0.331293 1.35092
2.73465 0.29278 0.640037
1.7049 0.543102 0.87638
4.35317 0.538424 8.28479
5.29887 0.426918 1.53952
5.68833 0.491105 1.95918
1.31609 0.250871 0.747517
2.68648 0.355828 2.07005
8.62017 3.81051 2.10338
5.51477 0.855683 8.41257
5.29551 0.744758 6.89679
2.96606 0.134421 9.72465
1.67719 0.278972 2.91459
3.341 0.531024 0.73533
7.87071 0.863958 3.61351
1.51922 2.1766 8.37167
3.62859 0.130932 1.72907
2.78834 0.38936 2.09255
5.72396 0.00200526 1.98444
4.71859 0.225815 7.68049
5.59111 1.11093 5.74271
5.398 0.731062 6.67684
1.78522 0.574283 2.93081
2.92509 4.32849 5.92845
7.9569 0.880606 3.68416
4.16321 0.62573 8.21379
6.40117 0.753342 5.59851
2.82152 0.20968 1.42674
6.28445 0.656546 6.2192
1.35026 1.34483 4.88623
2.28826 0.456905 0.528964
2.33168 0.64459 2.22654
2.24406 0.385668 1.14527
10 0.48786 8.43593
1.68123 0.53077 3.08171
2.71028 0.614608 0.467622
1.58363 0.404292 2.1731
2.8386 0.217322 1.42237
6.34393 0.741489 5.73246
2.07963 2.10009 2.22552
5.24685 0.840838 6.64064
2.64919 1.55512 0.479823
2.5101 0.509503 1.04335
9.39328 0.369663 8.88668
2.33325 0.347047 2.09623
6.50929 0.418215 5.81683
2.31083 0.328568 2.02341
1.2373 0.105924 1.30125
0.372405 3.17204 2.44827
4.91333 0.442601 7.50254
1.93289 0.848369 3.08551
0.453498 2.79334 2.53195
6.3827 0.711962 5.80135
4.28988 0.564982 8.21668
4.35142 0.755026 8.32625
6.07919 2.63409 8.73279
4.27454 6.51201 0.565573
1.56122 0.473745 0.806859
2.39596 0.851407 0.836983
4.39547 0.717934 8.4289
2.34576 1.54469 2.14707
1.49677 0.581677 2.97947
1.27642 0.495561 0.822619
4.06673 0.463919 8.17826
4.14217 0.413656 8.08337
4.18259 0.547483 8.35208
1.9622 1.00345 0
2.67895 0.484168 1.77914
1.88735 0.257051 2.90264
6.66116 2.3061 8.80811
2.16396 1.74815 2.41867
4.76377 0.271375 7.26261
2.94211 0.439898 1.71652
2.44181 0.0752701 0.679344
1.8544 2.88534 8.33294
3.20047 0.524767 3.225
2.49643 0.591493 1.86716
2.71881 0.468882 1.79153
2.69297 0.684673 0.581743
5.17164 0.387717 7.17364
2.12549 3.25877 1.30337
5.13843 4.6169 9.09288
2.73774 0.139072 1.69392
3.04237 0.213154 2.37575
0.457269 4.58348 6.87033
1.53976 0.460164 3.05348
1.89758 0.232163 3.05861
3.27807 0.307939 2.18902
5.74542 0.508392 1.81232
8.59718 0.658313 8.56176
4.96154 0.520051 6.51834
5.66903 0.489282 6.73044
4.54879 0.515499 8.3704
2.06757 0.454339 1.86745
2.78175 0.359712 1.43997
2.01683 0.183294 0.682267
9.29457 0.196475 1.37861
2.87528 0.239269 1.7294
5.95137 0.467495 1.97775
5.3271 0.945913 8.62067
6.43736 0.828176 6.07087
6.05829 0.431905 7.35956
4.56826 0.530473 8.36364
2.10349 0.475099 1.86072
1.77012 0.188631 1.73642
1.50301 1.28034 3.32224
9.2823 0.162455 1.31495
8.06847 5.05714 4.89562
1.3106 0.186042 7.46401
4.92314 0.188926 7.43208
2.26816 0.35124 2.01706
4.70255 0.447357 8.51887
1.97529 0.704369 1.95192
8.28986 2.38973 4.42516
2.53512 0.685543 1.86678
2.02185 0.380814 1.6561
4.99406 0.0947959 7.08049
7.82566 0.79268 3.62858
3.92841 0.601243 8.90235
9.36752 0.353948 8.96063
2.3769 0.522791 2.09633
5.09067 0.266825 7.26289
2.07632 0.751612 0.989583
9.57571 0.102269 8.96634
4.05071 0.472579 1.74514
2.07665 0.765525 0.673212
1.63653 0.683585 3.44588
1.86289 0.0534906 1.8005
2.00695 0.317722 3.08572
2.35347 0.492762 2.12858
3.34755 0.195253 2.07928
4.17962 1.0182 8.70502
1.64681 0.47859 3.02738
1.75579 0.425887 0.907528
4.52635 0.93447 8.32044
5.70677 0.539303 2.03696
4.38923 0.659911 8.32914
2.5985 0.445203 0.98055
5.46939 0.408304 2.02307
4.20722 0.874329 8.32281
3.34838 0.148385 1.6552
9.58299 0.382358 8.87516
2.4318 0.587776 2.24164
9.2659 0.149642 1.04004
5.0129 0.271249 8.17864
5.73756 0.49594 2.03526
4.42282 0.613819 8.35478
1.73465 0.27109 3.03152
8.51499 5.35567 5.07457
5.28097 0.633132 6.54543
8.0105 1.1324 3.52898
4.67369 0.675024 8.42484
3.71117 0.534276 2.79713
8.84426 0.2656 3.18958
4.04758 0.790236 8.6168
9.36948 0.433954 9.17028
2.53788 0.325405 1.14118
1.81168 0.371011 2.67718
8.12146 5.16227 4.7633
2.98065 0.250014 1.53733
8.08266 0.750714 3.12775
4.61201 0.954304 8.44077
4.71265 0.461744 6.3284
7.5694 1.02969 3.90328
5.97613 8.87334 9.13694
9.51601 0.171952 8.8494
2.66777 0.237653 1.78112
8.71786 0.0183334 0.654265
5.38532 0.353571 1.69684
5.95354 0.470226 2.26832
8.18267 0.762051 3.88635
7.67398 0.517455 8.27969
7.93921 0.559046 8.41576
1.81043 0 2.83106
2.99909 0.313573 1.16561
6.32099 1.00971 5.47861
8.1777 0.87786 6.75435
8.68756 0 0.808201
5.38055 0.602075 1.57186
3.05712 0.216611 2.46745
8.0935 0.587126 3.62545
4.32413 1.09346 8.59251
4.23475 0.388235 8.36085
2.5351 0.586992 0.686483
2.35562 1.53978 2.98996
2.43446 0.318179 2.28387
1.71593 0.548334 2.97789
9.3608 0.403257 1.17113
6.4313 0.686078 5.68835
3.15898 0.798421 0.940167
5.50602 0.814465 2.20254
1.90616 0.0841859 2.38479
5.87358 0.755896 2.09117
3.51718 0.655486 2.31229
2.60241 0.643025 1.86062
1.96299 0.334713 2.96706
3.40136 0.232996 2.13367
8.371 0.484073 3.61918
6.24382 0.758262 5.38595
9.70399 0.205002 8.89975
3.26803 0.216615 2.18946
2.11723 0.269257 2.19198
8.94071 0.100265 3.34606
2.47803 0.281151 1.57725
6.3859 0.429417 6.53905
5.43816 0.696982 1.92468
2.74435 0.0499062 1.47181
5.35325 0.410697 7.87802
3.00408 0.217986 1.6244
4.27219 0.906432 8.4835
1.78422 0.240691 1.75596
9.46827 0.067228 1.51265
9.33679 0.665397 1.19933
2.60841 0.0391344 1.70179
5.43176 0.240082 1.72694
9.94393 0.270922 1.35688
2.15464 0.268667 1.9386
5.34899 0.331987 7.81248
2.74208 0.322931 2.06914
4.48716 0.929035 8.28597
2.40459 0.670895 2.29647
9.20559 0.364169 1.05247
4.96724 0.402502 6.80946
3.11151 0.442939 2.56036
1.78527 0.296475 2.91071
9.68603 0.44741 1.14695
3.537 0.211387 2.86204
5.0047 0.447319 7.49373
2.45086 0.761858 2.12795
4.92774 0.0449237 7.29238
4.92549 0.498032 6.45946
2.88759 0.44462 2.32175
2.26042 0.225007 0.879259
5.53563 0.287183 1.79637
2.46996 0.0215207 1.21108
2.36232 0.273789 0.868624
2.50429 0.0798495 1.07867
3.58399 0.402521 2.7638
2.18046 0.316804 1.96799
5.37065 0.0885976 7.59398
4.87964 0.527069 6.45511
2.7662 0.110571 1.76649
2.59136 0.212265 1.98258
5.30488 0.227042 1.28096
4.54255 0.750211 8.23491
2.31748 0.505887 0.751002
1.74104 0.188258 2.70679
5.75122 0.517419 2.00916
6.49857 0.85552 5.73235
5.37316 0.666734 8.48219
3.34063 0.253533 2.62776
2.27646 1.39868 0.596138
9.36321 0.226405 8.92298
4.45951 0.395759 8.33749
4.82597 0.421746 8.45239
4.10536 0.280121 8.63752
2.1214 0.184784 2.31175
5.73092 0.506726 1.99957
6.4189 0.810624 5.68604
4.78156 0.538167 7.25911
2.17722 0.411687 1.06355
2.93728 0.0655859 1.92519
9.3255 0.227358 9.03006
4.57966 0.898183 8.43567
4.19618 0.634347 8.08988
5.26416 0.497745 8.6012
2.54781 0.469351 0.470556
2.18213 0.158723 0.940056
2.64605 0.501461 1.85611
5.17747 0.372919 8.44403
2.33419 0.50739 1.98937
7.76261 0.673163 3.58717
4.50369 0.596737 8.22477
1.69648 0.155741 2.71789
2.70658 0.47835 2.01003
8.60355 0.671087 3.80154
5.76398 0.594799 1.41393
2.17084 0.133956 0.953993
2.66712 0.504809 2.11229
5.09977 0.373942 8.33449
2.18781 0.473894 2.33941
7.78831 0.723173 3.56825
4.84963 0.365229 7.68756
1.66074 0.115365 2.69383
1.58837 0.400712 2.26836
9.27498 0.5772 0.713938
5.74691 0.562662 1.39931
POINT_DATA 400
SCALARS particleColor float 3
LOOKUP_TABLE default
0.336766 1 0.663234
0 0.509568 1
0 0.741252 1
0 0.18207 1
0.116712 1 0.883288
0.216751 1 0.783249
0 0.771695 1
0 0.74944 1
0 0.486479 1
0 0.839385 1
0 0.579259 1
0 0.651764 1
1 0.863286 0
0 0.559524 1
0 0.730307 1
0 0.517102 1
0 0.343185 1
0 0.361644 1
0.194917 1 0.805083
0 0.742387 1
0 0.342968 1
1 0.021304 0
0.106539 1 0.893461
0 0.675535 1
0 0.727767 1
0 0.491378 1
1 5.96046e-08 0
0 0.69894 1
0 0.77662 1
0 0.93043 1
1 0.880321 0
0 0.681533 1
0 0.74042 1
0 0.487972 1
0 0.601368 1
0 0.737977 1
0 0.244148 1
0 0.283471 1
0 0.493932 1
0 0.861829 1
0 0.856139 1
0 0.286811 1
0 0.467309 1
0 0.551825 1
0 0.775732 1
0 0.589352 1
0.179081 1 0.820919
0 0.752195 1
0 0.230383 1
1 0.435256 0
0 0.377225 1
0 0.647747 1
0 0.665757 1
0 0.951623 1
0 0.620976 1
0 0.35341 1
0 0.763966 1
0 0.533141 1
0 0.313083 1
0 0.585885 1
0 0.62381 1
0 0.659616 1
0.387806 1 0.612194
0 0.473738 1
0.142329 1 0.857671
0 0.865491 1
0 0.556442 1
0.00117584 1 0.998824
0 0.816157 1
0 0.125572 1
0.363894 1 0.636106
0.151091 1 0.848909
0.709617 1 0.290383
0 0.506092 1
0.0424772 1 0.957523
0 0.880177 1
0 0.570016 1
0 0.419984 1
0 0.386216 1
0 0.622325 1
0 0.307284 1
0 0.411735 1
0 0.89459 1
0 0.247935 1
0 0.353876 1
0 0.485819 1
0 0.398911 1
0 0.86318 1
0 0.215247 1
0 0.411567 1
0 0.408989 1
0 0.690649 1
0 0.940098 1
0 0.253431 1
0 0.375202 1
0 0.49453 1
0 0.192734 1
0 0.513916 1
0 0.331455 1
0 0.319582 1
0 0.714325 1
0.650003 1 0.349997
0 0.252517 1
0 0.820729 1
0 0.565424 1
0 0.864449 1
0 0.814698 1
0 0.450133 1
0 0.196236 1
0 0.752813 1
0 0.594326 1
0.144801 1 0.855199
0 0.915177 1
0 0.467782 1
0 0.298692 1
0 0.315271 1
0 0.677255 1
0 0.675867 1
0 0.284621 1
0.255603 1 0.744397
0 0.29837 1
0 0.774644 1
0.035211 1 0.964789
0 0.94413 1
0 0.987779 1
0 0.979638 1
0 0.480457 1
0 0.682141 1
0 0.573906 1
0.0312146 1 0.968785
0 0.400385 1
0 0.505887 1
0 0.941914 1
0.0694973 1 0.930503
0 0.913296 1
0 0.546189 1
1 5.96046e-08 0
0 0.571512 1
0 0.958658 1
0 0.36608 1
0 0.277639 1
0 0.826101 1
0 0.591476 1
0.916047 1 0.083953
0 0.518162 1
0 0.297792 1
0 0.371745 1
0 0.573307 1
0 0.645769 1
0 0.335904 1
0 0.258626 1
0 0.559418 1
0 0.25569 1
0 0.331575 1
0 0.651179 1
0 0.441197 1
0 0.67947 1
0 0.31408 1
0 0.463194 1
0 0.805913 1
0 0.497405 1
0 0.73476 1
0 0.627747 1
0 0.598589 1
0 0.403979 1
0 0.485991 1
0 0.962464 1
0.0861688 1 0.913831
0 0.33912 1
1 0.0672036 0
0 0.443701 1
0 0.414517 1
0.117535 1 0.882465
0 0.612014 1
0 0.489907 1
0 0.923061 1
0 0.44888 1
0 0.539456 1
0 0.853568 1
0 0.566918 1
0 0.252453 1
0 0.501202 1
0 0.449976 1
0 0.395598 1
0 0.793815 1
0 0.601608 1
0 0.869982 1
0 0.502549 1
0 0.928909 1
0 0.550623 1
0 0.212957 1
0 0.655008 1
0 0.715231 1
0 0.417634 1
0.812699 1 0.187301
0 0.66506 1
0 0.749535 1
0 0.591502 1
0 0.509449 1
0.271282 1 0.728718
0 0.335188 1
0 0.860363 1
0 0.471 1
0 0.400559 1
0.0169884 1 0.983012
0 0.743469 1
0 0.480148 1
0.13447 1 0.86553
0 0.464204 1
0 0.214878 1
0 0.573284 1
0 0.911202 1
0 0.421518 1
0 0.725102 1
0 0.698888 1
0 0.463582 1
0 0.471197 1
0 0.882103 1
0 0.641578 1
0 0.425818 1
0 0.854289 1
0 0.817331 1
0 0.278883 1
0 0.696024 1
0 0.390279 1
0 0.553674 1
0.0166695 1 0.98333
0 0.622215 1
0 0.522125 1
0 0.915414 1
0 0.89795 1
0 0.472835 1
0 0.554635 1
0 0.373717 1
0 0.67103 1
0.278391 1 0.721609
0 0.834988 1
0 0.354676 1
0 0.771896 1
0 0.659716 1
0 0.486365 1
0 0.667107 1
0 0.775338 1
0 0.314143 1
0 0.594688 1
0.304914 1 0.695086
0 0.887981 1
0 0.322381 1
0 0.637476 1
0 0.502668 1
0 0.75763 1
0.231396 1 0.768604
0 0.492659 1
0 0.644693 1
0 0.967808 1
0 0.742508 1
0 0.577036 1
0 0.757623 1
0 0.586943 1
0 0.434446 1
0 0.759581 1
0.0796307 1 0.920369
0 0.454628 1
0 0.690764 1
0 0.794711 1
0.404316 1 0.595684
0 0.65852 1
0 0.419642 1
0 0.760165 1
0 0.922388 1
0 0.928277 1
0 0.644594 1
0.113075 1 0.886925
0 0.630713 1
0 0.814622 1
0 0.877958 1
0 0.416195 1
0 0.911299 1
0 0.301944 1
0 0.660019 1
0 0.369352 1
0 0.405436 1
0 0.942165 1
0 0.640955 1
0 0.421527 1
0.196198 1 0.803802
0 0.442573 1
0 0.985577 1
0 0.761287 1
0 0.474842 1
0 0.760283 1
0 0.65288 1
0 0.960672 1
0 0.266276 1
0 0.775767 1
0 0.767132 1
0 0.803862 1
0 0.502575 1
0 0.6936 1
0 0.420064 1
0 0.851316 1
0 0.565307 1
0 0.911483 1
0 0.924331 1
0 0.444865 1
0 0.863114 1
0 0.26445 1
0 0.891631 1
0 0.950742 1
0 0.964213 1
0 0.732401 1
0 0.45923 1
0 0.464309 1
0.0325195 1 0.967481
0 0.771265 1
0 0.979115 1
0 0.990157 1
0 0.36472 1
0 0.358876 1
0 0.640961 1
0.0925327 1 0.907467
0 0.675212 1
0 0.940077 1
0 0.243925 1
0 0.633051 1
0 0.749732 1
0 0.733522 1
0 0.733606 1
0 0.216407 1
0 0.810451 1
0.120122 1 0.879878
0 0.970009 1
0 0.414403 1
0 0.416405 1
0 0.78591 1
0 0.938986 1
0 0.550739 1
0.0986403 1 0.90136
0 0.654829 1
0 0.244124 1
0.099589 1 0.900411
0 0.910195 1
0 0.536962 1
0 0.97849 1
0 0.329983 1
0 0.362175 1
0 0.488076 1
0 0.596604 1
0 0.52468 1
0 0.496958 1
0 0.743933 1
0 0.680454 1
0 0.613543 1
0 0.621052 1
0 0.636244 1
0 0.940157 1
0 0.450762 1
0.0647167 1 0.935283
0 0.757014 1
0 0.655059 1
0.120458 1 0.879542
0 0.59167 1
0 0.239987 1
0 0.47024 1
0 0.684242 1
0 0.265661 1
0 0.668074 1
0 0.889742 1
0 0.759554 1
0.142705 1 0.857295
0.0280302 1 0.97197
0 0.660726 1
0 0.215121 1
0.0299079 1 0.970092
0.275808 1 0.724192
0.285222 1 0.714778
0 0.658785 1
0 0.372018 1
0 0.641764 1
0 0.995175 1
0 0.669353 1
0 0.571495 1
0 0.387964 1
0 0.398273 1
0 0.836015 1
0.100941 1 0.899059
0 0.603256 1
0 0.592575 1
0 0.516936 1
0 0.319941 1
0 0.554819 1
0 0.471619 1
0 0.506984 1
0 0.427396 1
0 0.846599 1
0 0.869803 1
0 0.504693 1
0 0.401515 1
0 0.472262 1
0 0.396877 1
