# vtk DataFile Version 3.0
Particle simulation
ASCII
DATASET POLYDATA
POINTS 400 float
2.48674 2.23123 4.52381
8.16329 9.87897 1.14276
9.51177 7.75322 6.84735
3.25888 8.57485 3.436
2.60326 9.95597 10
8.95478 10 0.472084
3.7549 4.53977 9.91563
5.43737 4.80945 1.28453
7.98221 4.90602 7.13496
7.22721 0.701102 9.14432
7.50239 1.76688 10
1.45731 2.09352 1.77605
3.62397 9.81805 7.35905
5.4424 8.08675 8.27078
2.66158 0.677829 7.27323
6.19207 2.63876 3.41986
6.80747 8.55043 9.07786
2.97788 0.358735 1.68543
0.773658 0.837914 9.77422
4.73623 0.508453 5.09453
3.27038 0.218241 1.50208
5.05049 0 8.29391
9.55422 3.4948 9.34446
4.68458 3.9102 3.71088
6.23466 6.15973 0.513
8.65587 9.65646 0.951049
9.73095 8.17681 6.75345
3.97681 6.37829 9.14459
9.326 3.52836 5.77541
1.39961 7.92562 9.0822
2.22088 5.02614 7.75124
9.37704 0.594549 2.98657
6.42816 0 1.63389
0.357276 3.65782 6.16759
6.09747 0.581423 4.54152
3.33576 0 3.73135
5.67298 9.48032 1.53099
3.10446 0.245699 1.60232
7.97265 4.72364 0.974063
0.419456 9.4734 9.25166
3.11696 0.294824 4.95994
2.59563 9.43133 9.76527
6.41493 7.46664 1.65302
7.28068 1.44098 1.85277
8.60598 0.681512 0.519406
9.54811 0.728131 6.06639
5.33259 8.4354 8.96646
9.94413 0 0.562294
5.51729 1.47434 1.99628
10 0 0
4.02104 3.15064 8.03506
3.87763 6.17663 0.566596
8.95221 5.02546 6.45321
2.98172 8.94905 3.49321
1.31131 1.16034 2.09851
5.38855 0.121503 1.80088
2.7044 7.48621 0.80352
7.95997 4.24534 0.948068
5.0055 3.91011 4.53207
6.2507 8.50683 3.15433
1.40656 0.971692 5.83596
0.0661996 9.29139 0.294925
0.461091 3.7121 2.06751
9.39647 6.63027 2.19662
9.36683 3.97982 9.38122
9.27845 5.98738 3.63806
9.2628 1.52891 5.74926
6.16708 9.69368 9.80396
3.53558 3.43331 6.28056
4.61104 8.55874 2.1203
1.09185 2.15628 2.30577
4.44417 0.275854 0.494874
9.33816 3.02011 7.37689
3.06773 0.135049 4.18812
6.7485 7.56853 8.66162
4.00012 2.99508 6.16276
2.42403 5.5623 5.34248
1.98014 6.22595 3.68515
0.731849 6.27868 2.85911
4.62318 6.94323 0.61497
3.11359 0.399042 1.25476
6.28306 5.06202 8.65883
4.35667 1.00883 8.76797
5.45736 5.81749 5.88963
9.42891 3.63842 7.82844
0.466926 10 8.23438
6.81331 0 0.924563
5.2794 4.54693 8.19789
6.02499 2.30764 7.11038
0.518634 6.63149 6.99149
2.85401 0.214634 1.45267
3.81098 9.07611 2.52468
5.09137 5.0653 7.28722
5.66854 0.692062 7.93217
7.09744 4.5928 3.24663
8.21867 6.49404 9.40494
8.36156 8.87212 9.45962
2.03093 9.68724 4.52355
5.9653 5.04537 6.01355
1.31128 8.87291 0
3.25505 0.498098 0.793638
5.07989 3.62209 9.659
5.21923 5.01819 1.02763
2.78744 1.46503 0.945096
6.56095 7.1264 8.80193
2.92817 4.99149 8.88058
2.04895 6.76545 0.72721
7.82131 4.60122 3.03933
9.3617 5.30202 9.23772
8.76408 1.56636 8.22792
9.25937 8.86511 6.57304
7.75446 9.60223 8.97233
1.46111 4.93958 7.8749
1.87715 2.45432 5.27705
1.36201 0.604868 1.60753
9.47705 1.01632 2.23291
2.63128 0.820247 9.50247
9.76752 3.1401 9.41931
7.85356 0.25571 7.32563
8.473 6.28945 3.3407
0.717104 4.50105 2.12201
3.45141 6.12544 2.08517
2.93553 1.84375 0.780142
5.55864 3.45282 9.33663
7.92122 4.20788 1.02561
3.58012 0.569079 0.986179
0.287285 4.87906 5.72604
2.62452 2.51202 9.23749
7.5511 2.01638 4.79627
0.0884195 4.59442 9.64042
5.50223 7.87635 5.52698
3.01621 4.98691 3.12245
2.03692 5.26795 9.24876
8.92173 0.449494 0.51516
0.137076 0.138679 6.17061
8.33415 3.53099 3.95227
3.8562 1.0955 8.84602
4.28996 0.28719 7.61183
9.6187 7.44141 7.26595
0.117312 5.16962 0.446333
3.62025 0.362209 1.49669
6.98806 2.18889 1.31639
6.14265 6.70263 5.124
3.59879 2.24799 1.42089
1.60739 0.730277 1.44964
1.77957 4.82989 5.83186
0.676376 1.81378 7.64655
5.9286 6.21372 8.75921
1.99277 2.17698 0.424334
9.34013 3.38607 2.77047
3.50729 0.398162 1.21578
5.91514 4.73705 2.36182
6.38851 2.51173 8.29036
3.36025 0.47727 1.29412
6.03889 7.16473 5.10309
5.8493 0.392625 1.95352
1.07186 8.72046 1.21537
1.08624 2.83245 3.21167
9.02387 8.87428 9.03923
1.9239 3.49477 10
3.52674 0.855121 5.58578
8.81929 4.50628 9.26669
3.35873 6.5765 7.74287
1.04301 3.29662 9.82977
5.9175 0.197322 2.48729
3.26361 2.79645 2.65048
6.85552 7.8103 8.83936
9.0147 0.312869 7.29031
9.05731 2.64837 5.09373
1.10391 8.84711 8.79602
3.06125 0.455532 1.74826
2.90242 9.64206 3.92529
3.89265 0.874696 4.01259
1.01915 2.82992 2.20367
3.42976 0.63679 5.46091
7.35241 7.51633 4.26374
1.4752 0.26941 7.46917
7.9773 5.30745 7.51116
4.01921 1.86333 4.85211
7.90112 3.60076 5.23664
3.33984 0.151928 1.31144
4.70388 4.81821 1.41629
6.69116 7.49126 8.82987
0 7.46245 8.62155
7.69136 7.64128 4.02448
7.4289 0.897206 0.528772
3.57287 0.743633 1.87782
0.909332 0.432216 9.23349
4.79451 0.206534 1.73893
1.48901 0.729906 1.34726
3.09541 0.208554 1.25116
3.06273 0.248247 1.89392
7.71662 6.56038 6.96351
0.578377 6.98544 7.78783
5.99233 5.46366 1.87038
3.59462 0.125092 1.38561
4.91461 2.30626 2.6756
2.48626 0.868851 9.28779
2.87054 0.412101 1.94773
3.12777 0.339993 1.13114
3.12222 0 1.5201
7.81627 1.79507 1.51212
3.44839 6.77834 8.18067
6.85455 1.70874 4.24437
1.29486 1.40209 4.2476
2.52581 2.96891 8.82754
3.41654 0.41995 1.54611
8.02095 0.959888 0.797041
3.70926 0.242379 8.25827
1.7265 1.29349 9.71921
3.43739 0.321017 1.49431
2.86131 0.172261 1.07555
3.37742 1.06646 2.87238
2.39872 4.43018 8.4453
8.92512 1.08139 7.84247
3.29677 1.22935 9.34723
3.44444 0.204671 1.61921
4.11404 0.743535 2.04827
3.70139 6.75476 5.66355
4.68168 0.629631 1.80806
5.16251 6.80573 8.30128
0.559632 2.53656 9.88483
4.11364 3.15857 6.4749
3.04906 0.367894 2.17784
7.24742 4.4779 9.84831
0.6688 1.12714 1.31208
4.66565 8.19341 6.50281
3.79971 0.477854 1.99959
2.95648 0.392608 1.24362
9.65992 6.02506 7.69451
7.5452 5.57371 7.37903
8.03153 1.40889 9.68064
1.34709 1.0642 3.28539
3.41048 0.0926471 1.04944
2.65445 0.553334 9.38338
4.87369 7.87461 6.11894
9.36825 1.40326 6.25601
1.55441 4.40408 5.16553
3.53129 0.639635 0.860883
7.47263 4.32704 1.4568
2.96992 0.1047 1.2243
4.20644 0.640113 1.92254
3.17347 0.278624 1.15601
3.21656 0.298441 1.38239
4.85111 0.275313 8.38648
2.04043 1.39619 7.99925
3.47457 1.04453 5.61322
4.67041 0.722435 0.746006
4.79029 6.62086 8.16049
0.745744 4.04126 3.32186
2.49559 0.0414907 1.45367
9.47026 9.85853 1.63943
2.77479 0.624502 9.91807
2.09903 4.09158 4.16328
6.74393 1.03711 0.0489787
3.25049 0.561589 0.733438
5.41511 5.2766 1.6252
2.49564 0.588325 9.2918
0.1052 5.92346 8.701
2.5941 0.667932 9.2878
2.86983 0.456023 1.09026
6.38177 3.368 2.20141
6.7549 2.28309 4.4593
4.84985 0.723628 1.43213
2.70658 0.781331 9.65805
8.53996 9.91953 3.36186
6.91862 1.09011 0.830888
2.74785 0.78235 9.47051
1.52024 5.27063 9.22489
3.47217 0.343101 1.12943
2.64793 0.181494 1.33356
7.60787 6.56058 6.60786
4.08006 1.86494 9.90497
4.69511 8.67001 2.78775
7.15315 0.256103 0.299988
4.20886 2.16932 4.28599
8.94177 6.4085 0.943372
8.04867 5.79331 4.27705
1.99402 9.43761 8.15878
3.37146 0.453395 1.39508
3.54021 0.326813 3.95442
7.42929 0.886654 0.808871
9.28614 0.387452 0.828123
6.87906 1.05065 6.23766
9.79192 9.29446 6.27548
7.62116 5.75584 3.11146
3.17441 0.545333 1.45383
4.33185 0.743916 6.04989
8.32791 9.82788 8.02986
3.95258 1.99764 7.10296
10 5.34293 7.88118
9.41156 1.59617 4.58155
3.82939 0.643407 1.88048
1.14551 1.02874 5.88094
4.18274 0.722133 9.91632
2.75065 0.277972 9.78456
3.2884 0.303219 1.78124
3.03455 0.127316 1.59073
0.174513 1.57388 4.13792
3.44808 0.261536 1.45493
4.32734 0.808643 5.19485
6.80434 2.10544 4.18767
9.78874 2.11222 7.96695
3.56298 6.57423 0.926988
3.57198 0.346431 1.21374
1.64334 0.232782 6.035
3.38943 0.281611 2.1144
3.45623 0.299388 1.34088
4.20198 0.718112 0.639828
8.84352 6.49603 0.666395
8.31115 1.28816 9.50939
2.39444 8.90474 4.39158
2.19493 5.44346 9.47243
3.20864 0.481884 1.45515
8.59898 1.48683 9.54426
4.42598 0.666342 4.89918
0.335281 2.05946 5.54858
1.28996 6.05161 8.65986
6.84111 0.9086 6.91032
2.5289 6.98976 2.04273
2.61187 0.644561 9.48033
3.32945 3.58105 2.03344
3.03354 0.62435 9.62878
2.78523 0.273728 1.19925
3.70797 0.568507 4.17358
5.25638 9.10696 0.525422
3.08992 0.0608482 1.80209
8.30247 8.78022 6.18291
5.43816 7.17742 3.58228
3.01371 0.399561 0.986297
7.46634 1.07165 7.6359
3.75047 0.249107 1.09873
3.88119 0.687218 9.66332
3.37587 0.385274 0.822693
7.11568 0.759033 0.796673
4.99318 6.69801 8.83797
0.101515 5.98264 8.8556
3.17297 0.256148 1.24361
6.3714 10 1.34307
9.37095 3.54445 8.83165
1.71847 1.22197 8.35873
8.83978 5.09079 9.27605
4.04002 0.681726 9.44911
2.59719 0.758799 9.34513
3.18887 0.278199 1.21519
3.52669 0.435189 0.872715
7.0298 0.561747 0.764615
2.92999 0.520342 1.05506
3.37196 0.609677 1.70667
8.69437 9.14152 9.2175
3.55688 0.229924 2.14945
3.16664 0.434825 1.38653
0.288251 1.52534 3.18508
2.73317 0.508498 10
3.64558 0.663408 1.43795
2.81407 0.512065 1.15153
3.30113 0.902351 5.75718
4.00775 0.366136 9.58248
4.03123 0.257736 0.83783
3.186 0.486956 1.13275
7.42832 0.808609 0.797532
2.57251 0.555035 9.2565
2.78759 0.604951 9.58425
3.33781 0.0446228 0.753453
3.08105 0.0987866 1.64648
7.21673 0.131738 1.41233
2.67643 0.472665 9.41519
0.90107 9.17374 2.5999
3.13866 0.772972 9.33634
5.45825 9.78812 1.0891
7.39046 0.676055 0.815048
9.15593 6.21642 3.70078
3.90646 0.401837 8.56496
2.97167 0.709912 1.17877
3.21411 0.0199907 1.52435
7.20476 1.04516 0.926964
2.64024 0.743879 9.28557
2.89351 0.896687 9.08285
4.15398 0.853763 9.02615
3.01095 0.0244057 0.93466
2.89539 0.539546 1.24787
3.5311 0.267633 1.44168
4.00558 0.748901 9.14377
3.30436 0.112491 1.28191
1.36052 0.31453 5.58975
2.86598 0.737642 9.35481
3.12706 0.199783 1.6916
3.09194 0.440117 1.22538
0.383762 10 1.98425
7.39851 0.657513 1.20632
3.20982 0.303779 0.991753
3.60958 0.236899 1.38309
3.07015 0.571004 9.67091
3.61265 0.489996 1.56706
1.06547 0.948311 5.48991
2.72769 0.596586 9.68951
3.15617 0.162979 1.63366
3.10754 0.790094 5.23038
6.72586 0.543997 1.14986
7.41386 0.687791 0.822246
POINT_DATA 400
SCALARS particleColor float 3
LOOKUP_TABLE default
0.434114 1 0.565886
0.526887 1 0.473113
0 0.645955 1
1 5.96046e-08 0
1 5.96046e-08 0
0.640011 1 0.359989
1 0.0130332 0
0 0.852186 1
1 5.96046e-08 0
1 5.96046e-08 0
0.912079 1 0.0879212
1 5.96046e-08 0
0.181008 1 0.818992
0.752823 1 0.247177
1 5.96046e-08 0
1 0.765725 0
0 0.808778 1
0 0.536313 1
1 0.8595 0
1 5.96046e-08 0
0 0.622895 1
0.343248 1 0.656752
1 0.259754 0
0.919611 1 0.080389
0.852433 1 0.147567
0.0366519 1 0.963348
0.16946 1 0.83054
1 5.96046e-08 0
0.620967 1 0.379033
1 0.686213 0
0 0.501098 1
1 5.96046e-08 0
1 5.96046e-08 0
0.349186 1 0.650814
1 5.96046e-08 0
1 5.96046e-08 0
1 5.96046e-08 0
0 0.723176 1
0.981503 1 0.0184975
0.848779 1 0.151221
1 5.96046e-08 0
0.0521383 1 0.947862
0.141801 1 0.858199
1 0.516845 0
0.0260248 1 0.973975
1 5.96046e-08 0
0.624642 1 0.375358
0.368137 1 0.631863
0 0.469402 1
1 0.571275 0
0.325188 1 0.674811
0.809899 1 0.190101
0.201349 1 0.798651
0.986582 1 0.0134179
1 0.361062 0
0 0.340565 1
1 0.44208 0
1 0.688923 0
0.632151 1 0.367849
0.00207876 1 0.997921
0.989775 1 0.0102245
0.507344 1 0.492656
1 0.45659 0
0.535004 1 0.464996
1 0.527682 0
1 0.470294 0
0.660232 1 0.339768
1 5.96046e-08 0
1 0.954734 0
1 5.96046e-08 0
0.784142 1 0.215858
0.551812 1 0.448188
1 0.813759 0
0.253814 1 0.746186
0.444814 1 0.555186
1 0.392972 0
0.446959 1 0.553041
0.145633 1 0.854367
0.0473002 1 0.9527
1 0.592349 0
0 0.583978 1
1 0.459763 0
0.877638 1 0.122362
1 5.96046e-08 0
0 0.629338 1
0 0.476733 1
1 5.96046e-08 0
0.806816 1 0.193184
0 0.995944 1
0.696812 1 0.303188
0 0.52922 1
0.303044 1 0.696956
1 0.512622 0
0.114523 1 0.885477
0.185302 1 0.814698
0.363473 1 0.636527
1 5.96046e-08 0
1 5.96046e-08 0
1 0.651867 0
1 0.427895 0
0 0.742953 1
0.118294 1 0.881706
0.561309 1 0.438691
0.989579 1 0.010421
0.729633 1 0.270367
1 0.312917 0
0 0.820085 1
1 0.825265 0
0.441491 1 0.558509
0.949062 1 0.0509385
1 5.96046e-08 0
1 5.96046e-08 0
1 5.96046e-08 0
1 0.516893 0
0 0.903174 1
1 0.198901 0
0 0.718561 1
1 0.916293 0
0.90089 1 0.0991099
0.329746 1 0.670254
0.656743 1 0.343257
1 5.96046e-08 0
1 5.96046e-08 0
0.162172 1 0.837828
0.574252 1 0.425748
0 0.29449 1
1 0.658056 0
0 0.377253 1
0.218386 1 0.781614
1 0.152712 0
0.0038911 1 0.996109
1 0.998366 0
0.368482 1 0.631518
0.603526 1 0.396474
0 0.440965 1
1 5.96046e-08 0
0.805444 1 0.194556
0 0.484002 1
1 5.96046e-08 0
0.0916293 1 0.908371
0 0.648704 1
1 0.0809376 0
1 5.96046e-08 0
1 5.96046e-08 0
0 0.721107 1
0.538685 1 0.461315
0.892177 1 0.107823
1 5.96046e-08 0
0 0.910836 1
0.254449 1 0.745551
0 0.612522 1
1 5.96046e-08 0
1 0.601281 0
0 0.770317 1
1 5.96046e-08 0
0 0.691708 1
1 0.772191 0
1 0.25453 0
0.548823 1 0.451177
1 0.621768 0
0.0952186 1 0.904781
0 0.52827 1
0.476257 1 0.523743
0.0532288 1 0.946771
0.738837 1 0.261163
1 5.96046e-08 0
0 0.328422 1
1 0.409645 0
1 0.875024 0
1 5.96046e-08 0
0 0.391798 1
0 0.558059 1
0 0.321965 1
0.83944 1 0.16056
0 0.665202 1
1 0.677129 0
0.413443 1 0.586557
1 0.604306 0
1 0.872416 0
0.436316 1 0.563684
0 0.607397 1
0.80753 1 0.19247
0.0245117 1 0.975488
1 0.775512 0
0 0.996801 1
0.923918 1 0.0760819
0 0.122518 1
0 0.61632 1
0 0.691019 1
0 0.968455 1
0 0.58767 1
0 0.677282 1
0.397234 1 0.602766
1 5.96046e-08 0
1 0.528435 0
0 0.818104 1
1 0.50923 0
0 0.863531 1
0 0.583014 1
0 0.671232 1
0 0.342931 1
0.0506301 1 0.94937
0.807524 1 0.192476
0 0.543862 1
1 5.96046e-08 0
0 0.958038 1
0 0.585361 1
1 5.96046e-08 0
0.88831 1 0.11169
0.294309 1 0.705691
0 0.622354 1
0 0.252668 1
1 5.96046e-08 0
0.768201 1 0.231799
0.967964 1 0.0320361
0 0.589293 1
0 0.792441 1
0 0.952091 1
0.666934 1 0.333066
0 0.806837 1
1 5.96046e-08 0
0.10455 1 0.89545
1 0.686786 0
0 0.519741 1
1 0.804873 0
1 5.96046e-08 0
0.558693 1 0.441307
0 0.648925 1
0 0.761895 1
1 0.193791 0
1 5.96046e-08 0
0 0.86511 1
1 0.968787 0
0 0.591458 1
0 0.413669 1
1 0.920421 0
0.9847 1 0.0152996
0.777348 1 0.222652
0 0.309375 1
1 5.96046e-08 0
0 0.288653 1
0 0.6776 1
0 0.724656 1
0 0.783502 1
0 0.522077 1
0.938158 1 0.0618421
0.134616 1 0.865384
0.229544 1 0.770456
0.957417 1 0.042583
1 0.932157 0
0 0.659514 1
1 5.96046e-08 0
0 0.691133 1
1 0.166117 0
0 0.559923 1
0 0.470315 1
1 5.96046e-08 0
0 0.871534 1
0 0.97805 1
0 0.30093 1
0 0.43371 1
1 5.96046e-08 0
0 0.320338 1
0.870322 1 0.129678
0 0.384202 1
0.882486 1 0.117514
0 0.419909 1
0 0.777494 1
0.206722 1 0.793278
0 0.595858 1
0 0.432892 1
0.036628 1 0.963372
1 5.96046e-08 0
0.713151 1 0.286849
0 0.981604 1
0.0138621 1 0.986138
0 0.948017 1
1 5.96046e-08 0
1 5.96046e-08 0
0 0.0320096 1
0 0.460037 1
0 0.577831 1
1 0.964357 0
0 0.775296 1
0 0.808931 1
1 5.96046e-08 0
0 0.611784 1
0 0.660234 1
1 5.96046e-08 0
1 5.96046e-08 0
1 5.96046e-08 0
0.163396 1 0.836604
0 0.559993 1
0 0.353798 1
0.219641 1 0.780359
0 0.522588 1
0 0.630131 1
0 0.652773 1
0.530421 1 0.469579
0 0.821611 1
1 0.418923 0
0.792438 1 0.207562
0.259829 1 0.740171
0.802739 1 0.197261
0 0.773234 1
0 0.541321 1
0 0.401966 1
0 0.676159 1
0 0.740731 1
0 0.64102 1
1 0.96101 0
1 5.96046e-08 0
1 0.941874 0
0 0.592774 1
0 0.711481 1
0 0.217523 1
0 0.562377 1
0 0.821216 1
0.0866713 1 0.913329
0.467128 1 0.532872
0.242996 1 0.757004
1 5.96046e-08 0
0 0.888798 1
0 0.58787 1
0 0.423039 1
0 0.836823 1
0 0.377506 1
1 0.355646 0
1 5.96046e-08 0
0 0.331074 1
0.371021 1 0.628979
0 0.67023 1
0 0.383595 1
0.035649 1 0.964351
0 0.1499 1
1 0.511699 0
0 0.172146 1
0 0.459409 1
0.30519 1 0.69481
0.505853 1 0.494147
0.851112 1 0.148888
0 0.935446 1
0 0.511449 1
0 0.509444 1
0 0.61825 1
0 0.365156 1
0 0.708222 1
0 0.25746 1
0 0.585761 1
0.0161964 1 0.983804
0 0.904666 1
0 0.640251 1
0.409007 1 0.590993
0 0.521754 1
0 0.538734 1
0 0.761171 1
0.0317473 1 0.968253
0 0.802157 1
0 0.341952 1
0 0.716528 1
0 0.390089 1
0 0.411246 1
0 0.512233 1
0 0.636656 1
0 0.718644 1
0 0.709341 1
0 0.566837 1
1 0.187657 0
0 0.434753 1
1 5.96046e-08 0
0 0.484636 1
1 0.127666 0
0 0.72397 1
0 0.539834 1
0.0625522 1 0.937448
0 0.978858 1
0.307232 1 0.692768
0 0.573895 1
0 0.266881 1
0 0.608116 1
0 0.555454 1
0.0167832 1 0.983217
0 0.239304 1
0 0.87082 1
0 0.447487 1
0 0.600416 1
0 0.374579 1
0 0.151536 1
1 5.96046e-08 0
0 0.626522 1
0 0.701675 1
0 0.753553 1
0 0.477752 1
0 0.714749 1
0 0.645606 1
0 0.527893 1
0 0.51937 1
0 0.829109 1
0 0.356745 1
0 0.920203 1
