# vtk DataFile Version 3.0
Particle simulation
ASCII
DATASET POLYDATA
POINTS 400 float
0.505273 1.3272 8.2708
0.374873 0.616865 8.70826
7.8881 9.91432 3.79623
2.66701 4.83973 3.65442
4.0528 0.96373 6.94813
7.32008 0.165495 8.74129
0 2.29133 8.94098
6.95585 2.14861 0
3.54689 4.10477 5.10671
6.44692 0.58457 0.784391
3.74776 3.50992 2.95014
2.22187 7.88043 0.168155
1.22665 5.49781 5.25532
6.77444 8.36254 4.01894
7.44648 6.06241 5.67257
5.84539 3.11239 1.1593
1.05167 3.64268 5.69405
3.33892 0.438488 0.432968
2.35829 4.68789 8.73561
0.311177 2.32219 8.04801
3.70462 0.569794 0.407455
2.03918 5.22315 2.3016
6.76893 9.52876 8.77065
2.38699 6.02225 3.47539
9.30553 7.93666 0.134895
8.79077 5.83011 0.515979
6.81147 7.44733 7.38894
9.52198 0 2.04892
6.35483 7.60881 6.31485
5.70543 5.14937 5.86943
6.0908 2.89133 4.1661
0.574225 9.33815 4.14076
8.36503 7.1832 6.76363
7.78225 4.13467 8.48657
0.978238 3.56123 4.2022
0.845734 1.36847 8.27476
3.88982 4.43805 6.09454
3.68502 0.420694 0.493373
3.37787 9.22041 0.409582
4.71737 0.39871 7.84868
3.6483 6.52408 4.79174
8.90297 5.25708 2.02317
7.22669 9.54387 0.845799
8.84749 2.7513 4.09526
4.81961 0.87892 0.0330314
2.02096 3.21635 2.85361
5.70594 1.44042 7.47921
7.93064 1.27494 6.49997
6.69138 0.351768 2.10305
5.44868 2.18619 2.58714
2.95643 9.05484 5.33814
0.803059 9.11658 2.77075
9.64289 4.34523 5.12837
5.67737 5.57674 5.80036
1.2872 0.676913 5.42891
6.38882 0.257409 1.36494
8.62917 1.5994 7.94645
6.56045 5.08684 3.60083
0.632509 1.00547 5.65604
2.52274 1.9693 7.11093
0.274907 7.86697 9.47889
0 8.78648 5.00947
2.18048 1.05319 2.07038
0.705354 0.376893 8.043
1.98836 4.38158 2.26725
7.30141 5.4495 0.913279
0.441076 0.0251488 0.748178
3.07659 1.06021 7.98139
0.616106 0.0410262 7.09567
4.812 7.32445 2.04967
5.67536 2.71354 7.14067
7.28661 4.61405 1.93783
2.22281 8.1568 0.108532
1.17656 6.3796 5.04051
9.29244 0.965508 7.77262
10 5.61083 2.82167
3.70502 3.3902 2.36791
7.63779 5.89364 5.45413
6.57528 4.56232 4.67766
8.87332 6.83015 0.278546
3.41922 0.0774473 0.583451
8.30377 1.48945 6.52589
2.72585 0.426351 5.10932
0.494048 2.41351 3.10555
0 1.17361 7.69035
1.26587 2.11269 7.73956
2.11477 1.97188 5.35181
1.48469 0.847168 2.71705
1.91186 1.29656 9.98536
4.18535 7.28654 0.713097
3.73038 0.614084 0.583058
8.68723 8.34677 3.16523
2.84902 8.88615 4.47982
2.50637 0.363671 8.52229
0.719226 2.40767 4.3236
4.61994 9.15211 9.21194
8.32936 1.43013 5.93086
7.68445 2.8678 4.57728
0.710297 2.7604 5.29103
7.71117 1.87775 1.81334
2.93388 0.207973 0.388202
6.95817 4.92643 9.16398
2.36704 1.63139 4.77207
0.695916 3.2475 3.83077
8.58313 5.1383 8.91889
9.89787 3.33768 6.3302
10 1.32833 6.512
6.83588 0.534072 1.01779
3.48877 0.24736 7.49109
5.93354 7.10824 3.3801
2.84472 6.63121 3.70365
9.591 0.501155 3.91262
7.81155 8.83894 4.72783
2.03025 0.461704 0.784553
3.32022 0.123785 0.0900717
2.80261 4.67866 5.46035
3.95738 0.400598 8.39195
8.39067 4.16727 2.68108
9.60676 0.539676 1.58038
3.38306 7.65977 0.204252
3.20526 0.218679 0.663921
7.58334 4.49188 5.03814
8.88491 1.97936 9.58698
3.08155 0.352861 9.16071
2.03948 8.07759 7.30747
3.2015 0.24528 0.700607
2.2095 4.59617 9.30046
0.383872 0.923167 8.34319
9.71027 0.40259 7.77278
6.3853 5.25036 9.62219
5.98835 1.8769 2.51282
1.13641 7.88398 3.2434
7.62371 0.98931 4.8969
9.44257 6.19931 0.991401
2.244 0.327857 9.30699
0.815536 1.91882 0
2.24384 4.00652 0.640127
2.0638 0.876798 7.35183
7.43212 9.33026 4.27363
6.3872 0.167013 6.1849
2.95851 0.440166 0.316867
4.57676 8.61954 6.81344
4.59762 2.25417 3.65906
3.30094 0.46755 2.24396
3.14585 0.154122 0.208535
9.863 2.58599 8.77906
6.40558 0.272023 0.828112
2.1088 2.33077 10
6.75171 4.76483 1.74255
3.31649 1.53301 2.94533
3.08081 0.474041 0.423547
2.68929 1.04858 6.47347
2.23425 1.23956 7.38899
3.01273 0.449199 1.70909
8.64734 2.35676 2.91668
6.88153 0.524592 1.23079
7.15051 2.49139 0.854197
5.49625 0.192504 3.01895
8.95606 1.51145 9.17974
3.09481 0 3.77902
8.66153 1.61393 0.066019
7.76227 1.01962 9.58135
2.60389 2.59975 5.19546
8.42621 2.12093 5.08573
9.50959 3.9721 0.621253
6.44142 5.97744 4.86127
3.65056 1.41915 1.29601
4.86073 1.03512 8.11764
1.43946 5.18474 8.04098
2.0806 0.734971 6.29843
3.17223 0.689101 0.269838
8.4434 1.2577 5.59777
1.13562 0.720142 0.23216
3.49814 3.08835 7.90112
0.512734 0.430092 5.97078
1.84846 1.94025 9.59896
2.72277 1.13266 6.59079
2.28199 3.68524 0.865917
0 0.863538 8.1998
9.89865 8.78094 4.64958
3.1855 0.367556 0.498013
5.45786 6.25486 8.65297
1.66589 1.9256 8.7396
9.85828 4.92367 0.435574
3.52039 0.2067 8.67425
8.5236 3.31386 7.95672
3.26005 0.250105 0.145624
3.18091 5.81564 4.79273
7.40913 0.285173 1.82966
3.30524 0.433326 1.4402
3.25744 0.677377 0.778823
2.98723 0.317083 1.10718
5.64434 5.32953 0.257528
9.39566 3.02565 3.00185
6.21327 1.16569 5.53762
3.13923 0.441184 0.669667
1.1411 0.125006 4.32952
6.26386 0 1.45728
3.5655 0.460905 0.720623
3.28436 0.314421 0.727509
3.25922 0.370071 0.285143
6.43389 0.241463 2.08948
3.48199 0.538923 0.489639
2.62454 0.142123 6.15253
3.85807 9.91329 5.19528
4.84377 0.314804 7.05156
3.18746 0.38805 0.951314
3.83676 3.7185 9.80301
4.72967 2.19204 2.64659
5.14337 8.78641 0.73672
3.26872 0.503724 0.296562
2.87227 0.441555 0.849854
9.53007 8.68818 4.1636
9.17196 0.432347 7.54075
8.98996 6.3792 4.00817
4.21634 0.484787 7.87801
3.81034 0.591604 0.844715
3.65574 0.629354 0.971001
3.54361 1.98581 5.50909
3.70135 0.187569 0.810155
9.6372 0.374561 2.15637
8.15125 5.74742 0
5.08743 0.364622 7.14023
3.26198 0.24401 0.786567
9.07912 0.998648 4.97332
4.17775 0.982554 3.40622
4.28989 5.09215 0.181422
2.83903 0.134519 0.0546893
3.20585 0.659618 0.653857
9.09085 5.20779 1.01438
9.19309 3.13497 8.35918
2.3138 0.338432 8.38731
6.12557 0.526254 0.800152
3.07615 0.395317 1.03938
4.33245 0.397038 8.37535
0.412963 3.22654 3.04399
8.94812 2.20012 9.30325
1.69411 0.780139 5.70195
3.1429 0.07133 0.412172
8.82633 0.680847 8.91543
3.41545 0.244119 0.461952
2.56996 0.192654 0.0774776
3.49529 0.540653 0.727877
3.72439 0.185891 0.750771
4.01897 0.383348 7.69496
5.74327 4.66166 9.30944
0.0597741 0.435511 6.4177
1.21895 0.309715 3.94557
2.05815 10 6.1732
4.7027 0.302116 8.80129
3.40624 0.581881 0.227044
1.2777 8.33969 8.23925
4.593 0.435882 7.80372
5.61785 0.889867 0.143967
5.81634 0.778604 1.11986
3.04819 0.520174 0.483374
6.72418 0.471616 6.007
4.46347 0.169197 8.42652
1.54464 4.65894 6.10884
4.51175 0.353216 8.47139
3.65986 0.249438 0.997851
8.44711 3.1353 2.12949
2.60806 0.0496033 6.17157
5.44525 8.36552 2.98692
3.11933 0.311678 8.34436
4.63531 9.17284 1.18524
7.75266 0.152325 0.969418
4.27143 0.449247 8.32349
6.78514 0.0399194 0.809606
3.24109 0.549889 0.742772
3.54012 0.278787 0.361649
9.4568 6.02766 0.999554
6.33809 4.66796 5.07044
3.22346 2.76701 4.2803
5.95988 4.91959 9.61682
5.17439 0.243809 6.96574
3.85925 3.285 2.63791
7.59331 7.61466 1.89328
4.67148 1.95267 2.46992
3.24699 0.38188 0.413849
7.38313 0.39054 1.44302
6.32851 0.351797 1.32075
9.6347 3.2366 3.75641
1.10058 1.35414 3.46317
5.55822 8.71992 4.32311
8.11299 2.0138 0.329392
3.43935 0.044417 0.616538
9.74656 0.388635 7.57687
6.88217 4.67527 8.31011
2.82974 3.99359 4.53749
1.41045 10 6.40152
7.39374 0.280123 1.80582
2.70397 0.443784 0.135218
0.604434 0.576744 7.7959
4.73082 0.708258 8.30279
4.3798 0.4635 8.54321
3.22272 0.241831 0.204868
3.38326 0.326339 0.180013
9.88562 2.22304 9.09722
3.02473 0.520842 0.539695
0.791433 2.49471 3.51955
2.69881 0.00597119 5.91207
6.5166 0.684438 3.47334
4.61504 0.237103 0.172607
3.19667 0.230129 0.492112
0.0742794 0.489964 8.07906
2.87213 0.382952 1.61773
3.11004 0.181598 0.754362
1.25068 0.00393867 4.35442
3.68327 3.29409 2.67533
4.90466 0.497502 8.35665
2.26346 0.397228 6.09128
6.52562 0.19445 0.605519
3.01846 0.501391 0.605362
9.97032 2.71606 8.79724
0.935381 0.541849 7.75295
7.8608 0.335247 4.65448
1.87249 4.66295 6.04465
5.99099 0.317153 6.2768
7.58663 4.6624 1.68014
4.16832 0.414806 8.3534
0.250378 0.403067 6.14839
4.6064 0.1118 8.64967
2.84073 0.376594 0.752351
7.44221 0.373286 1.32538
7.34489 2.82176 0.872399
3.47023 0.297622 1.15591
5.69988 0.377639 2.77011
0.710068 9.4208 4.29073
3.68186 0.290062 0.922347
9.31404 8.11517 0.710811
3.04233 0.557529 0.276254
4.49836 0.442489 8.26288
3.06734 0.248767 1.56607
6.40951 0.212884 1.36337
3.67042 4.57593 9.29092
1.6474 4.32913 6.35255
3.22596 0.20981 0.738663
5.98392 0.641875 8.87798
3.19331 0.263433 8.40011
4.40008 0.309225 7.05919
6.43107 0.359209 9.11198
4.08533 0.732302 8.59074
4.38464 0.299224 8.53866
3.5893 0.312446 0.493675
3.18638 0.265828 1.01926
6.36157 0.135203 1.92495
3.43494 0.33371 0.83471
3.11659 0.179746 0.419114
6.20257 0.136742 9.07426
3.72204 0.025658 0.615598
2.97454 0.604694 0.619758
3.79517 0.436022 8.84111
4.25344 0.583953 8.2707
3.27815 0.354874 0.553421
3.66321 0.291097 0.314114
6.48554 0.199035 1.6931
4.30125 0.151782 8.53457
3.14313 0.564314 0.811771
3.22869 0.38456 1.14894
6.47344 0.589181 1.47435
4.53902 0.232241 8.34957
4.54338 0.0885133 8.07015
3.17548 0.487009 1.05495
3.39271 0.621988 0.403725
6.04146 0.450104 0.989572
4.64556 0.215745 8.51578
8.16077 0.543639 7.23283
3.75918 0.464906 8.63299
7.63437 2.68749 0.49103
6.47589 0.688004 1.47244
1.96299 0.150055 6.46916
4.40323 0.368169 8.13265
3.45839 0.29767 1.13916
3.42206 0.425964 0.369297
6.04788 0.241709 1.03306
4.57139 0.18167 8.37029
4.28197 0.106574 8.69383
3.7401 0.0938542 7.99006
3.51894 0.605646 0.622251
3.69467 0.312351 1.09674
3.08664 0.56391 0.883293
3.77908 0.31054 8.10303
2.92901 0.371009 0.630378
0.486299 0.507705 8.10061
4.41666 0.505217 8.37849
3.06152 0.547317 0.654826
3.01408 0.463959 0.443437
7.66421 0.129661 7.16848
6.2142 0.31171 1.58262
3.65642 0.556619 0.877807
3.47715 0.518178 0.517987
4.22953 0.665792 8.12762
3.22235 0.345101 0.77664
0.69094 0.865849 8.14271
4.21499 0.57763 8.54044
3.12313 0.526802 0.70868
0.262522 0.288635 5.81922
6.16334 0.784258 1.20821
6.30158 0.185807 1.495
POINT_DATA 400
SCALARS particleColor float 3
LOOKUP_TABLE default
0 0.621089 1
0.135094 1 0.864906
0 0.842857 1
1 0.506046 0
1 5.96046e-08 0
0.880208 1 0.119792
1 0.679797 0
0 0.760684 1
0.0489564 1 0.951044
1 5.96046e-08 0
0.343314 1 0.656686
0.517216 1 0.482784
1 5.96046e-08 0
0 0.994927 1
0 0.822395 1
1 5.96046e-08 0
0 0.799532 1
0 0.510782 1
0.59129 1 0.40871
1 0.985065 0
0 0.309632 1
1 0.866672 0
1 5.96046e-08 0
1 0.662908 0
1 5.96046e-08 0
1 0.58766 0
0.235544 1 0.764456
0.472279 1 0.527721
1 0.631159 0
0.999625 1 0.00037533
1 5.96046e-08 0
0.418036 1 0.581964
0.850697 1 0.149303
1 0.979373 0
0.219188 1 0.780812
1 5.96046e-08 0
0.39616 1 0.60384
0 0.560884 1
1 0.336337 0
0.510652 1 0.489348
1 5.96046e-08 0
0.731211 1 0.268789
0.548854 1 0.451146
0.679325 1 0.320675
0 0.865013 1
0.344856 1 0.655144
0.61425 1 0.38575
0.620219 1 0.379781
0 0.370795 1
1 0.63555 0
0 0.263947 1
0.42253 1 0.57747
0.0528241 1 0.947176
0.58724 1 0.41276
0.0344939 1 0.965506
0 0.725984 1
0.537828 1 0.462172
0 0.625617 1
0.606261 1 0.393739
0.424616 1 0.575384
0 0.793398 1
1 5.96046e-08 0
0.987725 1 0.0122755
0 0.302172 1
0.434352 1 0.565648
1 0.883257 0
0.592688 1 0.407312
1 5.96046e-08 0
1 5.96046e-08 0
0.25269 1 0.74731
0.225634 1 0.774366
0 0.337471 1
0.741406 1 0.258594
1 0.67575 0
1 0.433334 0
0.92447 1 0.0755296
0.161273 1 0.838727
0.503694 1 0.496306
1 0.983937 0
0 0.773313 1
0 0.323779 1
0.718802 1 0.281198
1 0.871309 0
0 0.620375 1
1 0.0179069 0
0 0.378153 1
1 5.96046e-08 0
1 5.96046e-08 0
0.611338 1 0.388662
0.964519 1 0.0354807
0 0.299187 1
0.470351 1 0.529649
1 0.734686 0
0 0.213052 1
0.198031 1 0.801969
0.710711 1 0.289289
0.755387 1 0.244613
0.0606904 1 0.93931
0.881915 1 0.118085
0.164078 1 0.835922
0 0.148039 1
1 0.908962 0
0 0.877753 1
0.598069 1 0.401931
0 0.926332 1
1 0.499145 0
1 0.849251 0
0 0.831345 1
1 5.96046e-08 0
1 5.96046e-08 0
1 5.96046e-08 0
1 0.69592 0
1 0.660837 0
0 0.599074 1
0 0.843192 1
0 0.794133 1
0 0.434027 1
1 0.706773 0
0 0.748949 1
0.771311 1 0.228689
0 0.643581 1
0.977921 1 0.0220786
1 0.133856 0
0.697308 1 0.302692
0.431618 1 0.568382
0 0.71913 1
0.327836 1 0.672164
0 0.69932 1
0.142517 1 0.857483
1 5.96046e-08 0
1 0.0976253 0
1 0.187884 0
0.80104 1 0.19896
1 0.895748 0
0 0.316155 1
0 0.779443 1
0.60047 1 0.39953
0 0.451724 1
1 0.598411 0
0.261974 1 0.738026
0 0.206042 1
0 0.902818 1
0.811543 1 0.188457
0.986858 1 0.0131425
0 0.501137 1
0.0915413 1 0.908459
0 0.361383 1
0.936221 1 0.0637795
0.294233 1 0.705767
0.515258 1 0.484742
0 0.429129 1
0 0.277537 1
0 0.460541 1
0 0.522095 1
1 5.96046e-08 0
0 0.673754 1
0.315924 1 0.684076
0 0.77955 1
0.242165 1 0.757835
1 5.96046e-08 0
0 0.580315 1
0.0127881 1 0.987212
0 0.88727 1
1 0.569648 0
0 0.685564 1
0.473749 1 0.526251
1 5.96046e-08 0
0.940344 1 0.059656
1 0.597766 0
0.341277 1 0.658723
0 0.648218 1
0.71682 1 0.28318
0.933745 1 0.0662546
1 5.96046e-08 0
0 0.978885 1
1 5.96046e-08 0
0.013613 1 0.986387
1 0.928317 0
0.72202 1 0.27798
0.552061 1 0.447939
0 0.694871 1
1 0.931268 0
0.782437 1 0.217563
0.280494 1 0.719506
0 0.527351 1
1 0.931328 0
0 0.435667 1
1 5.96046e-08 0
0 0.371535 1
0 0.516236 1
0 0.422543 1
0 0.65905 1
1 0.811612 0
1 5.96046e-08 0
1 0.752844 0
0 0.405529 1
0.0977348 1 0.902265
1 0.976018 0
0 0.505968 1
0 0.714877 1
0 0.437034 1
0 0.680888 1
0.692773 1 0.307227
0 0.561422 1
0.763647 1 0.236353
0 0.662415 1
0 0.549254 1
1 0.691046 0
0.240443 1 0.759557
1 0.61596 0
0 0.382977 1
0 0.367239 1
1 5.96046e-08 0
0 0.977082 1
1 5.96046e-08 0
0 0.366615 1
0 0.459822 1
0 0.375978 1
1 5.96046e-08 0
0.543276 1 0.456724
1 0.416685 0
0 0.831813 1
0.241597 1 0.758403
0 0.886439 1
0 0.714706 1
0 0.828247 1
0 0.857098 1
0 0.505785 1
0 0.583424 1
0 0.717927 1
0.427955 1 0.572045
0 0.998559 1
0 0.966753 1
0 0.607822 1
0 0.423521 1
0 0.410931 1
1 0.428436 0
0 0.854945 1
0 0.940776 1
1 0.359875 0
0 0.428348 1
0 0.566206 1
0 0.910507 1
0 0.551871 1
0 0.294782 1
1 5.96046e-08 0
0 0.656108 1
0.0866919 1 0.913308
1 5.96046e-08 0
0.994713 1 0.00528729
0 0.678526 1
0.0887198 1 0.91128
0 0.16886 1
0 0.904219 1
0 0.250369 1
0 0.73057 1
0 0.822125 1
0 0.501812 1
0.238148 1 0.761852
0 0.609115 1
0 0.324081 1
0.468716 1 0.531284
0 0.628865 1
1 5.96046e-08 0
0 0.818973 1
0.963572 1 0.0364284
0 0.729144 1
0 0.509009 1
0 0.947648 1
0.117564 1 0.882436
0 0.505321 1
0 0.967764 1
0.953784 1 0.0462157
0 0.160282 1
0.483404 1 0.516595
0 0.638336 1
0 0.37535 1
0.811671 1 0.188329
0.0824003 1 0.9176
0 0.476889 1
0 0.596872 1
0 0.886848 1
0.565621 1 0.434379
0 0.826833 1
1 5.96046e-08 0
0 0.620985 1
0 0.170698 1
0.321491 1 0.678509
0.576485 1 0.423515
0.39281 1 0.60719
1 5.96046e-08 0
0 0.939991 1
0 0.859576 1
0 0.852645 1
0 0.986133 1
0 0.631096 1
0 0.63242 1
0 0.401787 1
0 0.637543 1
0 0.849197 1
0.428459 1 0.571541
0 0.869569 1
0.454203 1 0.545797
1 5.96046e-08 0
0 0.778887 1
0 0.366809 1
0 0.252728 1
0 0.185767 1
0.257441 1 0.742559
0 0.518605 1
0 0.533999 1
0 0.935528 1
0 0.763838 1
0 0.600554 1
0 0.781048 1
0 0.704352 1
0.174797 1 0.825203
0 0.628308 1
0 0.610907 1
0 0.881904 1
0 0.427126 1
0 0.546769 1
0 0.748734 1
0.262177 1 0.737823
0 0.410825 1
0 0.934448 1
0 0.649919 1
0 0.545468 1
1 5.96046e-08 0
0 0.401776 1
0 0.782066 1
0 0.698988 1
0 0.340016 1
0 0.429441 1
0 0.468896 1
1 0.283692 0
0 0.8355 1
0 0.574763 1
1 0.970561 0
0 0.807222 1
0 0.0941008 1
0 0.170901 1
0 0.499746 1
0 0.83954 1
0 0.274765 1
0 0.380379 1
0 0.60741 1
0 0.485041 1
0.330966 1 0.669034
0.628795 1 0.371205
0.144438 1 0.855562
0 0.327855 1
0 0.950466 1
0 0.699877 1
0.183793 1 0.816207
0 0.659875 1
0.342876 1 0.657124
0.376096 1 0.623904
0.205154 1 0.794846
0 0.132781 1
0 0.431294 1
0 0.510435 1
0 0.524973 1
0 0.601942 1
0.154063 1 0.845937
0 0.99484 1
0 0.66214 1
0.404672 1 0.595328
0 0.899266 1
0 0.634454 1
0 0.34227 1
0 0.584131 1
0 0.929885 1
0 0.638674 1
0 0.986354 1
0 0.203235 1
0 0.943025 1
0 0.364295 1
0 0.47434 1
0 0.630152 1
0 0.365991 1
0 0.576675 1
0 0.558186 1
0 0.970289 1
0 0.267289 1
0 0.507974 1
0 0.570775 1
0 0.458069 1
1 0.260926 0
0 0.37735 1
0 0.676066 1
0 0.470507 1
0 0.901878 1
0 0.660581 1
0 0.749413 1
0 0.543104 1
0 0.444303 1
0 0.618551 1
0 0.50645 1
0 0.694503 1
