# vtk DataFile Version 3.0
Particle simulation
ASCII
DATASET POLYDATA
POINTS 400 float
0.262114 0.559084 0.578691
0.483286 0.593124 0.455041
2.86766 0.708027 5.19271
0.359188 0.365098 0.855111
4.03041 0.27577 5.11127
0.324008 1.26877 4.41021
4.46895 0.78847 1.21744
2.74614 0.498711 4.63076
4.82007 0.46806 0.0758164
5.30975 1.09185 1.13298
0.180255 0.546201 0.545539
0.731796 0.653456 0.489402
2.71067 0.738213 5.13894
0.382292 0.358621 0.865195
3.99353 0.302869 5.17834
0.303204 1.31558 4.37889
1.01947 0.599555 2.14097
0.833908 0.928948 3.64585
5.18451 0.627996 0.587075
5.33891 1.04935 1.18823
4.7093 0.51905 1.1408
6.25452 0.936916 1.2365
2.36015 0.558894 4.5078
5.10397 0.972247 1.48507
3.79104 0.536922 3.66309
1.44978 0.434415 3.89064
4.8271 0.979848 5.29517
0.430738 1.0424 3.45383
2.17111 0.561027 1.50055
0.17409 0.271114 1.29854
4.64239 0.612979 1.17688
6.0722 1.09436 1.07254
2.20798 0.509929 4.82583
5.09422 0.991449 1.50584
3.73659 0.543886 3.51278
1.46919 0.420753 3.87051
4.77032 1.05978 5.30679
0.388948 0.965714 3.48718
2.26649 0.654675 1.50927
0.212983 0.276002 1.05916
0.0159575 0.904159 0.274584
3.64725 0.726878 1.9616
1.1044 0.513811 3.27537
5.39658 1.07463 1.2754
2.6661 0.81624 4.6111
3.87642 0.820902 2.1023
3.08015 0.136517 2.82919
1.75764 0.493674 3.66592
2.23122 0.563003 1.57317
1.79642 0.580572 4.71633
0.0258047 0.901238 0.258994
3.59161 0.724198 1.96461
1.0456 0.48346 3.3629
5.40629 1.07173 1.29131
2.66627 0.848549 4.61853
3.8483 0.791692 2.08175
2.72968 0.926313 4.53648
1.81683 0.515497 3.65061
2.28098 0.597665 1.57439
1.75913 0.568232 4.39136
5.89989 0.881416 1.22046
0.282151 0.380656 1.43822
4.86259 0.216273 5.18345
4.38396 0.750599 0.15537
4.13744 0.493971 4.34975
4.35294 0.656618 3.78755
1.69531 0.135589 1.78998
1.33318 0.334537 3.8585
2.30464 0.645715 1.53835
1.37808 0.37724 3.74243
5.95247 0.896775 1.21817
0.24965 0.511061 1.22788
4.24859 0.910747 4.0907
4.431 0.758893 0.130582
4.01911 0.7593 4.25072
4.26546 0.692297 3.90454
1.66489 0.13912 1.77139
1.85013 0.329151 5.20134
2.34225 0.601413 1.50449
1.39904 0.417675 3.73811
0.510522 0.703797 0.789583
3.15906 0.617225 1.70422
1.1834 0.693259 3.05874
3.6209 0.427258 0.64388
3.70687 0.52432 4.53984
2.10872 0.690984 4.44818
3.66686 0.570385 4.46784
0.474091 0.338324 2.63421
3.3863 0.935551 1.23253
4.91981 0.572365 0.906151
0.390872 0.65452 0.86573
3.12785 0.562792 1.65035
1.05833 0.573468 2.99921
3.62362 0.435937 0.662901
3.71848 0.524101 4.52528
2.06186 0.706679 4.41569
2.80009 0.639122 4.60393
0.348438 0.458022 2.76283
3.30976 0.896142 1.3038
4.90067 0.533478 0.883797
3.8176 0.461144 2.41379
3.6739 0.271593 0.637093
0.380126 0.388282 2.90932
4.5409 0.66307 0.636948
0.747215 0.0631989 3.24794
1.52537 0.957107 3.54138
1.78133 0.416565 4.22596
2.79092 0.590046 1.59432
2.38865 0.690884 1.57253
4.90046 0.565358 0.789378
3.80957 0.404973 2.40277
3.711 0.19519 0.603633
2.55965 0.608815 1.94329
4.67599 0.639577 0.596455
1.20779 0.202911 3.49077
1.59125 0.923639 3.5752
1.87162 0.444415 4.1767
1.88987 0.423468 1.65113
2.35683 0.674979 1.63542
3.57349 0.902544 2.08219
2.79452 0.781563 1.23125
3.82642 0.86063 2.43372
5.09306 0.881375 5.21813
2.62848 0.545434 0.787775
2.01926 0.574211 5.02923
2.0656 0.466367 1.84859
0.0152544 0.70624 1.43231
4.05775 0.325159 0.39733
2.17971 0.640661 5.12993
2.09812 0.375955 1.75142
2.8002 0.796329 1.26471
3.84666 0.989877 2.29957
4.78782 0.590299 4.93323
2.63749 0.626658 0.892449
1.95921 0.596051 5.01896
2.6684 0.890492 0.79003
0.26841 0.864854 2.05885
4.08397 0.306913 0.356461
2.08236 0.698694 5.14716
2.09152 0.030962 1.64627
0.157091 0.499643 0.495878
1.57051 0.471609 0.480027
1.39603 0.4196 2.32349
1.38163 0.352804 0.990967
1.61914 0.99203 2.7021
0.564022 0.653805 2.47695
4.99392 0.872464 5.13997
0.89552 0.0652887 2.92493
0.833217 0.435618 2.71787
0.524285 0.442689 3.14899
0.149858 0.502118 0.492816
1.60735 0.453658 0.443939
1.55588 0.521654 2.80026
1.41602 0.437862 1.11037
1.59116 0.816987 2.61753
0.636934 0.661867 2.5437
5.04974 0.826131 5.11108
0.934827 0.133404 2.90215
1.35878 0.474092 2.37138
0.640791 0.427292 2.84585
1.29707 0.490471 0.42952
2.69578 0.179366 0.861432
3.64 0.569049 5.08158
1.549 0.0124581 0.883172
1.76226 0.672162 2.31346
1.62713 0.418824 2.00441
2.10895 0.689174 4.15756
1.79381 0.470661 3.92435
1.95726 0.598104 3.85586
2.20496 0.514943 1.65921
1.28621 0.479064 0.423813
3.01345 0.938757 1.13671
3.60194 0.596626 5.12929
1.52939 0.0715695 0.796813
1.81271 0.664732 2.25774
1.55681 0.443345 2.06335
2.20925 0.726434 4.14092
2.14178 0.497132 3.99198
1.93797 0.456874 3.87068
2.17148 0.507482 1.67114
2.69552 0.770817 1.35324
0.110485 0.604551 0.643296
4.26865 0.190031 5.1478
1.05608 0.716571 0.73648
2.4334 0.53512 5.20965
1.8294 0.565686 3.35548
1.14833 0.293141 2.52231
3.79566 0.228598 2.965
3.71065 0.367239 1.82111
4.05908 0.541582 1.89131
2.69689 0.778374 1.37959
0 0.600935 0.536292
3.77389 0.647116 5.23195
1.00813 0.750937 0.803697
2.45595 0.579584 5.18954
1.85472 0.36345 3.40079
1.13162 0.26713 2.5325
3.70389 0.343755 2.11886
3.71275 0.361904 1.78828
4.0607 0.537869 1.91145
0.265904 0.60511 0.664929
0.364982 0.332436 1.0057
4.00887 0.276003 5.18411
0.585907 0.598999 0.705221
3.98965 0.496754 4.82683
1.70269 0.921385 4.87991
1.11471 0.621505 3.68601
0.975646 0.994224 2.41709
0.57068 1.0705 3.53924
4.7352 0.530251 1.02856
0.268906 0.487352 0.666692
0.725884 0.524246 0.448808
4.12176 0.625601 5.11304
0.596237 0.58662 0.735208
3.98934 0.486471 4.85155
1.74084 0.934664 4.8707
1.11527 0.616038 3.71045
1.19306 0.83358 4.01937
0.588431 0.939074 3.53175
4.65461 0.492111 1.04277
4.30596 0.19734 0.407581
3.7861 0.581559 4.22372
5.08058 0.604859 4.68124
2.50523 0.689656 1.66187
4.00981 0.365844 5.40497
1.44634 0.326215 3.46697
4.8013 0.412444 4.76402
1.08259 0.508828 2.9639
2.08844 0.178367 1.61175
1.14303 0.800026 2.89685
4.27977 0.209878 0.467636
3.74951 0.489581 4.37913
5.15198 0.585461 4.68878
2.48245 0.66096 1.68874
4.0153 0.357512 5.42598
1.47519 0.337726 3.45441
4.8626 0.4179 4.73511
1.11451 0.247484 3.35078
1.80454 0.257345 1.76561
1.14194 0.797868 2.97434
0.362198 0.416379 1.01124
3.10129 0.881172 2.37824
2.06626 0.646847 4.62363
4.7906 0.676228 1.13902
2.62844 0.798385 4.1994
3.64368 0.247414 1.4418
1.22101 0.805073 3.67502
3.61481 0.381617 3.47985
3.91257 0.537741 2.05834
1.83531 0.650482 4.31294
0.344944 0.426398 1.0117
2.84458 1.02285 2.66231
1.77985 0.445217 4.87495
4.81001 0.731357 1.18713
2.54198 0.69643 4.14852
3.50086 0.32518 1.58915
4.59526 0.965872 0.802043
3.54318 0.306174 3.50878
3.88192 0.502151 2.09768
1.88711 0.637363 4.35281
3.73051 0.769391 2.08059
1.10338 0.279164 0.730099
4.20285 0.836804 1.88742
5.49441 0.927395 1.33139
3.65188 0.579864 4.46344
0.051278 0.474445 3.6192
4.9477 0.698228 0.460621
2.40309 0.755221 4.13066
3.98762 0.639701 4.60238
1.35044 0.914878 2.82761
3.75069 0.764269 2.14586
1.1155 0.347497 0.764353
4.94058 0.643045 0.732951
5.47849 0.900599 1.2309
4.32615 0.545139 4.46024
2.17292 0.310167 5.1022
4.9627 0.769577 0.410649
2.58474 1.04334 4.49773
3.99422 0.629976 4.58112
1.35761 0.869073 2.90636
4.33831 1.24712 0.845311
3.69235 0.671319 1.97662
1.86094 0.716485 3.61596
4.35586 0.321482 0.384677
2.66811 0.523456 4.36302
3.00267 0.309665 4.43441
0.855935 0.250163 2.58057
1.36849 0.526652 3.38444
2.31189 0.355086 1.94883
3.09218 0.465988 1.73612
4.26298 1.20475 0.850839
3.66911 0.656773 1.94222
1.7112 0.632216 3.51588
4.34749 0.303061 0.315488
2.64846 0.72948 4.57699
3.00542 0.25345 4.53868
0.916254 0.287038 2.51438
0.914886 0.609999 2.16221
2.20715 0.581985 1.87276
3.41433 0.730757 2.10877
4.329 1.1412 0.616657
0.920273 0.661483 0.41668
2.15611 0.512285 3.38287
1.49379 0.825194 1.3468
1.24081 0.812755 2.88994
3.52503 0.385544 1.62841
1.07999 0.787111 3.68804
3.49762 0.59426 1.74607
2.31953 0.464964 1.85139
3.37371 0.753662 1.62386
4.28528 1.11633 0.55797
0.999098 0.644521 0.420397
2.73399 0.782454 3.85546
1.6737 0.703325 1.29025
1.17777 0.806505 2.84481
4.56228 1.19148 0.265967
1.21369 0.858282 3.65369
1.70659 0.695187 1.10921
2.35959 0.454077 1.74313
3.49617 0.739637 1.55811
2.59813 0.810386 1.3757
2.8955 0.955731 1.35779
2.78818 0.92655 3.96617
2.84707 0.558815 1.11898
4.67743 1.04279 0.734109
0.660843 0.407717 2.73926
0.913638 0.924447 2.60111
3.9225 0.518116 2.22364
4.87511 0.452111 0.830635
2.54266 0.821444 1.26486
2.72452 0.828396 1.42818
2.17912 0.771452 1.98676
2.6649 0.982362 3.97162
2.86221 0.556612 1.10931
4.63801 0.978852 0.756516
1.33278 0.741674 1.14092
0.875942 0.895888 2.62816
3.95142 0.516976 2.20665
4.80731 0.443598 0.901573
2.53618 0.526088 1.51206
0.310001 0.647124 0.748603
0.132109 0.440976 0.380501
3.75083 0.556058 5.46739
0.180453 0.293882 1.13039
1.08087 0.866582 2.51566
1.07077 0.371622 3.03544
2.09959 0.390277 1.46104
1.41405 0.777302 3.30933
0.965678 0.847497 3.13847
0.812643 0.114953 2.7343
0.285195 0.641059 0.764532
0.153442 0.403044 0.412293
3.74401 0.596902 5.45274
0.188665 0.293015 1.11438
1.01967 0.897935 2.62261
1.16686 0.366093 3.05788
2.06257 0.36784 1.50614
1.78519 0.69989 3.55477
0.972759 0.854723 3.19149
0.876865 0.174872 2.74089
1.1314 0.352054 0.90985
1.41238 0.645148 0.559182
3.4207 0.694755 4.80566
2.29817 0.539943 1.76458
1.72387 0.373938 1.96417
1.48579 0.693995 2.46643
2.36407 0.651837 4.35843
2.21786 0.549663 4.08796
2.17071 0.886796 3.9139
2.12713 0.500178 2.29312
1.14355 0.362546 0.904128
1.43407 0.649709 0.547984
3.43592 0.678728 4.81707
2.28168 0.539693 1.7653
1.76026 0.34947 2.25904
1.43564 0.662429 2.45063
2.339 0.666731 4.39004
2.14561 0.531355 4.07246
1.99201 0.817885 3.94404
2.19805 0.531359 2.27772
2.88892 0.820671 1.45431
0 0.715895 0.742698
3.21221 0.726029 4.83385
0.00615939 0.518014 1.18182
4.76944 0.350456 0.0752944
3.59597 0.624606 4.39591
1.01458 0.396231 2.05218
3.63923 0.515279 2.02711
5.28945 0.509853 0.753614
3.7022 0.396342 2.2924
2.85606 0.771329 1.46647
0 0.70047 0.776449
3.22703 0.724922 4.84618
0.0772497 0.414247 1.23369
4.75754 0.370391 0.0277486
3.53472 0.677497 4.47812
1.01595 0.390416 2.04693
3.61556 0.577861 2.01572
5.12385 0.490513 0.539346
3.69129 0.413962 2.29583
POINT_DATA 400
SCALARS particleColor float 3
LOOKUP_TABLE default
0 0.278626 1
0 0.357669 1
0 0.324437 1
0 0.221609 1
0 0.86181 1
0.235337 1 0.764663
0.00426896 1 0.995731
0 0.747357 1
0 0.685051 1
0 0.386308 1
0 0.202096 1
0 0.154934 1
0 0.304388 1
0 0.281745 1
0 0.76535 1
0 0.53904 1
0 0.486166 1
0 0.499979 1
0 0.58713 1
0 0.180548 1
0 0.562658 1
0 0.459197 1
0 0.568112 1
0 0.338685 1
0 0.471217 1
0 0.93272 1
0 0.432818 1
0 0.189174 1
0 0.704087 1
0 0.756009 1
0 0.722561 1
0 0.473079 1
0 0.635603 1
0 0.312159 1
0 0.744346 1
0 0.781432 1
0 0.374376 1
0 0.3939 1
0 0.984516 1
0 0.887946 1
0 0.30698 1
0 0.717568 1
0 0.820652 1
0 0.778528 1
0 0.428292 1
0 0.363615 1
0 0.446732 1
0 0.867829 1
0 0.456148 1
0 0.813293 1
0 0.100174 1
0 0.656389 1
0.00336947 1 0.996631
0 0.902561 1
0 0.427142 1
0 0.283844 1
0 0.138742 1
0 0.771328 1
0 0.554428 1
0 0.584872 1
0 0.879314 1
0 0.621177 1
0 0.800013 1
0 0.364545 1
0 0.841374 1
0 0.583085 1
0 0.334033 1
0 0.666027 1
0 0.592294 1
0 0.354114 1
0 0.952187 1
0 0.629528 1
0.15789 1 0.84211
0 0.536611 1
0 0.854912 1
0 0.715973 1
0 0.25528 1
0 0.736616 1
0 0.542512 1
0 0.423359 1
0 0.440299 1
0 0.613142 1
0 0.898226 1
0 0.569977 1
0 0.675064 1
0 0.545102 1
0 0.676041 1
0 0.222054 1
0 0.616908 1
0 0.527274 1
0 0.614118 1
0 0.49469 1
0 0.803229 1
0 0.734443 1
0 0.770562 1
0 0.473959 1
0 0.543362 1
0 0.506284 1
0 0.652801 1
0 0.606442 1
0 0.811151 1
0 0.689021 1
0 0.581987 1
0 0.670116 1
0 0.680624 1
0 0.234419 1
0 0.68566 1
0 0.298501 1
0 0.814612 1
0 0.85346 1
0 0.602801 1
0 0.643599 1
0 0.140348 1
0 0.598166 1
0 0.440037 1
0 0.263335 1
0 0.714801 1
0 0.528996 1
0 0.685002 1
0 0.865174 1
0 0.264782 1
0 0.419905 1
0 0.964162 1
0 0.460275 1
0 0.617155 1
0 0.613631 1
0.278984 1 0.721016
0 0.858344 1
0 0.348014 1
0 0.521957 1
0 0.287302 1
0 0.524716 1
0 0.878419 1
0 0.29543 1
0 0.627108 1
0 0.791925 1
0 0.751251 1
0 0.845239 1
0 0.53447 1
0 0.989596 1
0 0.771381 1
0 0.5667 1
0 0.81569 1
0 0.555614 1
0 0.779792 1
0 0.491386 1
0 0.343908 1
0 0.851174 1
0 0.265869 1
0 0.588067 1
0 0.827545 1
0 0.615379 1
0 0.784642 1
0 0.733111 1
0 0.74163 1
0 0.520988 1
0 0.560834 1
0 0.602293 1
0 0.351312 1
0 0.558133 1
0 0.813773 1
0 0.813905 1
0 0.701662 1
0 0.779913 1
0 0.689552 1
0.0201886 1 0.979811
0 0.50197 1
0.0335306 1 0.966469
0 0.576951 1
0 0.649088 1
0 0.79911 1
0 0.84961 1
0 0.750334 1
0 0.532434 1
0 0.668641 1
0 0.944721 1
0 0.356963 1
0 0.801404 1
0 0.778892 1
0 0.56606 1
0.204037 1 0.795963
0 0.782627 1
0 0.794773 1
0 0.442773 1
0 0.20215 1
0 0.611853 1
0 0.436029 1
0 0.550184 1
0 0.621519 1
0 0.625286 1
0.204443 1 0.795557
0 0.242597 1
0 0.576382 1
0 0.471529 1
0 0.546963 1
0 0.623502 1
0 0.468799 1
0 0.54106 1
0 0.753152 1
0 0.524892 1
0 0.531527 1
0 0.910144 1
0.0923852 1 0.907615
0 0.942142 1
0 0.493156 1
0 0.553212 1
0 0.582801 1
0 0.315624 1
0 0.715796 1
0 0.178037 1
0 0.398827 1
0 0.576966 1
0 0.545517 1
0 0.696403 1
0 0.561123 1
0 0.544807 1
0 0.595434 1
0 0.644508 1
0 0.574794 1
0 0.463455 1
0.221685 1 0.778315
0 0.981338 1
0 0.339242 1
0 0.498612 1
0 0.578213 1
0 0.539981 1
0 0.458493 1
0 0.546039 1
0.0557965 1 0.944203
0 0.877538 1
0.0946478 1 0.905352
0.21204 1 0.78796
0 0.220629 1
0 0.480094 1
0 0.547674 1
0 0.4014 1
0 0.757209 1
0 0.515213 1
0 0.906096 1
0 0.639731 1
0 0.305651 1
0 0.266688 1
0 0.861941 1
0 0.74713 1
0 0.499615 1
0 0.805895 1
0 0.718841 1
0.0428444 1 0.957156
0 0.713784 1
0 0.626813 1
0 0.16875 1
0 0.964824 1
0 0.724377 1
0 0.750934 1
0 0.22286 1
0 0.682042 1
0 0.329685 1
0.12442 1 0.87558
0 0.748459 1
0 0.612519 1
0.284069 1 0.715931
0 0.996492 1
0 0.93055 1
0 0.527397 1
0 0.857195 1
0.146639 1 0.853361
0 0.681418 1
0 0.737698 1
0 0.225839 1
0 0.435111 1
0.232281 1 0.767719
0.209012 1 0.790988
0.380315 1 0.619685
0 0.613792 1
0 0.398049 1
0.295484 1 0.704516
0 0.611313 1
0 0.743721 1
0 0.289706 1
0 0.501345 1
0 0.388521 1
0 0.835881 1
0 0.946037 1
0 0.584788 1
0 0.251571 1
0 0.512974 1
0 0.633551 1
0 0.56988 1
0.0330434 1 0.966957
0 0.717969 1
0 0.361925 1
0 0.95604 1
0 0.654733 1
0 0.324543 1
0 0.177123 1
0 0.675699 1
0 0.691513 1
0 0.731086 1
0.115033 1 0.884967
0 0.674085 1
0 0.894554 1
0 0.383673 1
0 0.246585 1
0 0.342591 1
0.172226 1 0.827774
0 0.391086 1
0 0.693547 1
0 0.632506 1
0 0.652977 1
0 0.464637 1
0.190542 1 0.809458
0 0.419608 1
0 0.901935 1
0 0.526514 1
0.0894036 1 0.910596
0 0.58016 1
0 0.620459 1
0 0.759208 1
0 0.742057 1
0 0.516316 1
0 0.783528 1
0 0.541973 1
0 0.517269 1
0 0.453743 1
0 0.675853 1
0.477034 1 0.522966
0 0.587919 1
0 0.653923 1
0.100018 1 0.899982
0 0.790859 1
0 0.580724 1
0 0.358736 1
0 0.533462 1
0 0.578341 1
0 0.86492 1
0 0.599926 1
0 0.515376 1
0 0.603586 1
0.36279 1 0.63721
0 0.974649 1
0 0.574678 1
0 0.398182 1
0 0.451431 1
0.02771 1 0.97229
0 0.625717 1
0 0.402955 1
0 0.556864 1
0 0.904189 1
0 0.381778 1
0.136981 1 0.863019
0 0.775485 1
0 0.512345 1
0 0.651451 1
0 0.836465 1
0 0.575117 1
0 0.361267 1
0 0.567988 1
0.185507 1 0.814493
0 0.350462 1
0 0.745369 1
0 0.887381 1
0 0.851518 1
0 0.579252 1
0.147672 1 0.852328
0 0.724035 1
0 0.663049 1
0 0.3588 1
0.00582428 1 0.994176
0 0.615511 1
0 0.874834 1
0 0.95519 1
0 0.834779 1
0 0.538359 1
0.0343571 1 0.965643
0 0.948573 1
0 0.650336 1
0 0.429932 1
0.160366 1 0.839634
0 0.663163 1
0 0.623038 1
0.126727 1 0.873273
0 0.855769 1
0 0.416371 1
0 0.37904 1
0 0.54635 1
0 0.750277 1
0 0.508845 1
0 0.862525 1
0 0.773909 1
0 0.960606 1
0.204102 1 0.795898
0 0.837139 1
0 0.470465 1
0 0.421575 1
0 0.521141 1
0 0.434748 1
0 0.635047 1
0 0.905897 1
0 0.648395 1
0 0.94517 1
