# vtk DataFile Version 3.0
Particle simulation
ASCII
DATASET POLYDATA
POINTS 400 float
0.0117517 1.01181 0.0117517
0.0117814 1.01171 0.497582
0.0112665 1.01102 1
0.0112665 1.01102 1.5
0.0112665 1.01102 2
0.0112665 1.01102 2.5
0.0112665 1.01102 3
0.0112665 1.01102 3.5
0.0117814 1.01171 4.0037
0.0117517 1.01181 4.48697
0.0117517 1.01181 0.0130325
0.0117814 1.01171 0.498863
0.0112665 1.01102 1
0.0112665 1.01102 1.5
0.0112665 1.01102 2
0.0112665 1.01102 2.5
0.0112665 1.01102 3
0.0112665 1.01102 3.5
0.0117814 1.01171 4.00242
0.0117517 1.01181 4.48569
0.498863 1.01171 0.0117814
0.499818 1.01156 0.498033
0.499409 1.01094 1
0.499409 1.01094 1.5
0.499409 1.01094 2
0.499409 1.01094 2.5
0.499409 1.01094 3
0.499409 1.01094 3.5
0.499818 1.01156 4.00287
0.498863 1.01171 4.48731
0.498863 1.01171 0.0126873
0.499818 1.01156 0.498939
0.499409 1.01094 1
0.499409 1.01094 1.5
0.499409 1.01094 2
0.499409 1.01094 2.5
0.499409 1.01094 3
0.499409 1.01094 3.5
0.499818 1.01156 4.00197
0.498863 1.01171 4.48641
0.99956 1.01102 0.0117061
1.00044 1.01094 0.498064
1 1.01035 1
1 1.01035 1.5
1 1.01035 2
1 1.01035 2.5
1 1.01035 3
1 1.01035 3.5
1.00044 1.01094 4.00284
0.99956 1.01102 4.48739
0.99956 1.01102 0.012612
1.00044 1.01094 0.49897
1 1.01035 1
1 1.01035 1.5
1 1.01035 2
1 1.01035 2.5
1 1.01035 3
1 1.01035 3.5
1.00044 1.01094 4.00194
0.99956 1.01102 4.48648
1.49956 1.01102 0.0117061
1.50044 1.01094 0.498064
1.5 1.01035 1
1.5 1.01035 1.5
1.5 1.01035 2
1.5 1.01035 2.5
1.5 1.01035 3
1.5 1.01035 3.5
1.50044 1.01094 4.00284
1.49956 1.01102 4.48739
1.49956 1.01102 0.012612
1.50044 1.01094 0.49897
1.5 1.01035 1
1.5 1.01035 1.5
1.5 1.01035 2
1.5 1.01035 2.5
1.5 1.01035 3
1.5 1.01035 3.5
1.50044 1.01094 4.00194
1.49956 1.01102 4.48648
1.99956 1.01102 0.0117061
2.00044 1.01094 0.498064
2 1.01035 1
2 1.01035 1.5
2 1.01035 2
2 1.01035 2.5
2 1.01035 3
2 1.01035 3.5
2.00044 1.01094 4.00284
1.99956 1.01102 4.48739
1.99956 1.01102 0.012612
2.00044 1.01094 0.49897
2 1.01035 1
2 1.01035 1.5
2 1.01035 2
2 1.01035 2.5
2 1.01035 3
2 1.01035 3.5
2.00044 1.01094 4.00194
1.99956 1.01102 4.48648
2.49956 1.01102 0.0117061
2.50044 1.01094 0.498064
2.5 1.01035 1
2.5 1.01035 1.5
2.5 1.01035 2
2.5 1.01035 2.5
2.5 1.01035 3
2.5 1.01035 3.5
2.50044 1.01094 4.00284
2.49956 1.01102 4.48739
2.49956 1.01102 0.012612
2.50044 1.01094 0.49897
2.5 1.01035 1
2.5 1.01035 1.5
2.5 1.01035 2
2.5 1.01035 2.5
2.5 1.01035 3
2.5 1.01035 3.5
2.50044 1.01094 4.00194
2.49956 1.01102 4.48648
2.99956 1.01102 0.0117061
3.00044 1.01094 0.498064
3 1.01035 1
3 1.01035 1.5
3 1.01035 2
3 1.01035 2.5
3 1.01035 3
3 1.01035 3.5
3.00044 1.01094 4.00284
2.99956 1.01102 4.48739
2.99956 1.01102 0.012612
3.00044 1.01094 0.49897
3 1.01035 1
3 1.01035 1.5
3 1.01035 2
3 1.01035 2.5
3 1.01035 3
3 1.01035 3.5
3.00044 1.01094 4.00194
2.99956 1.01102 4.48648
3.49956 1.01102 0.0117061
3.50044 1.01094 0.498064
3.5 1.01035 1
3.5 1.01035 1.5
3.5 1.01035 2
3.5 1.01035 2.5
3.5 1.01035 3
3.5 1.01035 3.5
3.50044 1.01094 4.00284
3.49956 1.01102 4.48739
3.49956 1.01102 0.012612
3.50044 1.01094 0.49897
3.5 1.01035 1
3.5 1.01035 1.5
3.5 1.01035 2
3.5 1.01035 2.5
3.5 1.01035 3
3.5 1.01035 3.5
3.50044 1.01094 4.00194
3.49956 1.01102 4.48648
4.00326 1.01171 0.012221
4.00393 1.01156 0.497851
4.00328 1.01094 1
4.00328 1.01094 1.5
4.00328 1.01094 2
4.00328 1.01094 2.5
4.00328 1.01094 3
4.00328 1.01094 3.5
4.00393 1.01156 4.00306
4.00326 1.01171 4.48687
4.00326 1.01171 0.0131269
4.00393 1.01156 0.498757
4.00328 1.01094 1
4.00328 1.01094 1.5
4.00328 1.01094 2
4.00328 1.01094 2.5
4.00328 1.01094 3
4.00328 1.01094 3.5
4.00393 1.01156 4.00215
4.00326 1.01171 4.48597
4.48463 1.01181 0.0128129
4.48597 1.01171 0.498022
4.48604 1.01102 1
4.48604 1.01102 1.5
4.48604 1.01102 2
4.48604 1.01102 2.5
4.48604 1.01102 3
4.48604 1.01102 3.5
4.48597 1.01171 4.00326
4.48463 1.01181 4.48591
4.48463 1.01181 0.0140937
4.48597 1.01171 0.499303
4.48604 1.01102 1
4.48604 1.01102 1.5
4.48604 1.01102 2
4.48604 1.01102 2.5
4.48604 1.01102 3
4.48604 1.01102 3.5
4.48597 1.01171 4.00198
4.48463 1.01181 4.48463
0.0125545 1.48088 0.0125545
0.0122961 1.48251 0.498279
0.0118563 1.48251 1
0.0118563 1.48251 1.5
0.0118563 1.48251 2
0.0118563 1.48251 2.5
0.0118563 1.48251 3
0.0118563 1.48251 3.5
0.0122961 1.48251 4.003
0.0125545 1.48088 4.48616
0.0125545 1.48088 0.0138354
0.0122961 1.48251 0.49956
0.0118563 1.48251 1
0.0118563 1.48251 1.5
0.0118563 1.48251 2
0.0118563 1.48251 2.5
0.0118563 1.48251 3
0.0118563 1.48251 3.5
0.0122961 1.48251 4.00172
0.0125545 1.48088 4.48488
0.49956 1.48251 0.0122961
0.500439 1.48377 0.498654
0.499999 1.48377 1
0.499999 1.48377 1.5
0.499999 1.48377 2
0.499999 1.48377 2.5
0.499999 1.48377 3
0.499999 1.48377 3.5
0.500439 1.48377 4.00225
0.49956 1.48251 4.4868
0.49956 1.48251 0.013202
0.500439 1.48377 0.49956
0.499999 1.48377 1
0.499999 1.48377 1.5
0.499999 1.48377 2
0.499999 1.48377 2.5
0.499999 1.48377 3
0.499999 1.48377 3.5
0.500439 1.48377 4.00135
0.49956 1.48251 4.48589
0.99956 1.48251 0.012296
1.00044 1.48377 0.498654
1 1.48377 1
1 1.48377 1.5
1 1.48377 2
1 1.48377 2.5
1 1.48377 3
1 1.48377 3.5
1.00044 1.48377 4.00225
0.99956 1.48251 4.4868
0.99956 1.48251 0.0132019
1.00044 1.48377 0.49956
1 1.48377 1
1 1.48377 1.5
1 1.48377 2
1 1.48377 2.5
1 1.48377 3
1 1.48377 3.5
1.00044 1.48377 4.00135
0.99956 1.48251 4.48589
1.49956 1.48251 0.012296
1.50044 1.48377 0.498654
1.5 1.48377 1
1.5 1.48377 1.5
1.5 1.48377 2
1.5 1.48377 2.5
1.5 1.48377 3
1.5 1.48377 3.5
1.50044 1.48377 4.00225
1.49956 1.48251 4.4868
1.49956 1.48251 0.0132019
1.50044 1.48377 0.49956
1.5 1.48377 1
1.5 1.48377 1.5
1.5 1.48377 2
1.5 1.48377 2.5
1.5 1.48377 3
1.5 1.48377 3.5
1.50044 1.48377 4.00135
1.49956 1.48251 4.48589
1.99956 1.48251 0.012296
2.00044 1.48377 0.498654
2 1.48377 1
2 1.48377 1.5
2 1.48377 2
2 1.48377 2.5
2 1.48377 3
2 1.48377 3.5
2.00044 1.48377 4.00225
1.99956 1.48251 4.4868
1.99956 1.48251 0.0132019
2.00044 1.48377 0.49956
2 1.48377 1
2 1.48377 1.5
2 1.48377 2
2 1.48377 2.5
2 1.48377 3
2 1.48377 3.5
2.00044 1.48377 4.00135
1.99956 1.48251 4.48589
2.49956 1.48251 0.012296
2.50044 1.48377 0.498654
2.5 1.48377 1
2.5 1.48377 1.5
2.5 1.48377 2
2.5 1.48377 2.5
2.5 1.48377 3
2.5 1.48377 3.5
2.50044 1.48377 4.00225
2.49956 1.48251 4.4868
2.49956 1.48251 0.0132019
2.50044 1.48377 0.49956
2.5 1.48377 1
2.5 1.48377 1.5
2.5 1.48377 2
2.5 1.48377 2.5
2.5 1.48377 3
2.5 1.48377 3.5
2.50044 1.48377 4.00135
2.49956 1.48251 4.48589
2.99956 1.48251 0.012296
3.00044 1.48377 0.498654
3 1.48377 1
3 1.48377 1.5
3 1.48377 2
3 1.48377 2.5
3 1.48377 3
3 1.48377 3.5
3.00044 1.48377 4.00225
2.99956 1.48251 4.4868
2.99956 1.48251 0.0132019
3.00044 1.48377 0.49956
3 1.48377 1
3 1.48377 1.5
3 1.48377 2
3 1.48377 2.5
3 1.48377 3
3 1.48377 3.5
3.00044 1.48377 4.00135
2.99956 1.48251 4.48589
3.49956 1.48251 0.012296
3.50044 1.48377 0.498654
3.5 1.48377 1
3.5 1.48377 1.5
3.5 1.48377 2
3.5 1.48377 2.5
3.5 1.48377 3
3.5 1.48377 3.5
3.50044 1.48377 4.00225
3.49956 1.48251 4.4868
3.49956 1.48251 0.0132019
3.50044 1.48377 0.49956
3.5 1.48377 1
3.5 1.48377 1.5
3.5 1.48377 2
3.5 1.48377 2.5
3.5 1.48377 3
3.5 1.48377 3.5
3.50044 1.48377 4.00135
3.49956 1.48251 4.48589
4.00256 1.48251 0.0127357
4.00331 1.48377 0.498472
4.00269 1.48377 1
4.00269 1.48377 1.5
4.00269 1.48377 2
4.00269 1.48377 2.5
4.00269 1.48377 3
4.00269 1.48377 3.5
4.00331 1.48377 4.00243
4.00256 1.48251 4.48636
4.00256 1.48251 0.0136416
4.00331 1.48377 0.499378
4.00269 1.48377 1
4.00269 1.48377 1.5
4.00269 1.48377 2
4.00269 1.48377 2.5
4.00269 1.48377 3
4.00269 1.48377 3.5
4.00331 1.48377 4.00153
4.00256 1.48251 4.48545
4.48382 1.48088 0.0136157
4.48545 1.48251 0.498718
4.48545 1.48251 1
4.48545 1.48251 1.5
4.48545 1.48251 2
4.48545 1.48251 2.5
4.48545 1.48251 3
4.48545 1.48251 3.5
4.48545 1.48251 4.00256
4.48382 1.48088 4.4851
4.48382 1.48088 0.0148966
4.48545 1.48251 0.499999
4.48545 1.48251 1
4.48545 1.48251 1.5
4.48545 1.48251 2
4.48545 1.48251 2.5
4.48545 1.48251 3
4.48545 1.48251 3.5
4.48545 1.48251 4.00128
4.48382 1.48088 4.48382
POINT_DATA 400
SCALARS particleColor float 3
LOOKUP_TABLE default
0 0.127104 1
0 0.105976 1
0 0.0997419 1
0 0.0997419 1
0 0.0997419 1
0 0.0997419 1
0 0.0997419 1
0 0.0997419 1
0 0.107325 1
0 0.131611 1
0 0.131611 1
0 0.105184 1
0 0.0997419 1
0 0.0997419 1
0 0.0997419 1
0 0.0997419 1
0 0.0997419 1
0 0.0997419 1
0 0.105976 1
0 0.136411 1
0 0.105184 1
0 0.0769379 1
0 0.0723253 1
0 0.0723253 1
0 0.0723253 1
0 0.0723253 1
0 0.0723253 1
0 0.0723253 1
0 0.0779776 1
0 0.108986 1
0 0.108986 1
0 0.0762802 1
0 0.0723253 1
0 0.0723253 1
0 0.0723253 1
0 0.0723253 1
0 0.0723253 1
0 0.0723253 1
0 0.0769379 1
0 0.112927 1
0 0.101619 1
0 0.073232 1
0 0.0686612 1
0 0.0686612 1
0 0.0686612 1
0 0.0686612 1
0 0.0686612 1
0 0.0686612 1
0 0.0743096 1
0 0.105526 1
0 0.105526 1
0 0.0725549 1
0 0.0686612 1
0 0.0686612 1
0 0.0686612 1
0 0.0686612 1
0 0.0686612 1
0 0.0686612 1
0 0.073232 1
0 0.109568 1
0 0.101619 1
0 0.073232 1
0 0.0686612 1
0 0.0686612 1
0 0.0686612 1
0 0.0686612 1
0 0.0686612 1
0 0.0686612 1
0 0.0743096 1
0 0.105526 1
0 0.105526 1
0 0.0725549 1
0 0.0686612 1
0 0.0686612 1
0 0.0686612 1
0 0.0686612 1
0 0.0686612 1
0 0.0686612 1
0 0.073232 1
0 0.109568 1
0 0.101619 1
0 0.073232 1
0 0.0686612 1
0 0.0686612 1
0 0.0686612 1
0 0.0686612 1
0 0.0686612 1
0 0.0686612 1
0 0.0743096 1
0 0.105526 1
0 0.105526 1
0 0.0725549 1
0 0.0686612 1
0 0.0686612 1
0 0.0686612 1
0 0.0686612 1
0 0.0686612 1
0 0.0686612 1
0 0.073232 1
0 0.109568 1
0 0.101619 1
0 0.073232 1
0 0.0686612 1
0 0.0686612 1
0 0.0686612 1
0 0.0686612 1
0 0.0686612 1
0 0.0686612 1
0 0.0743096 1
0 0.105526 1
0 0.105526 1
0 0.0725549 1
0 0.0686612 1
0 0.0686612 1
0 0.0686612 1
0 0.0686612 1
0 0.0686612 1
0 0.0686612 1
0 0.073232 1
0 0.109568 1
0 0.101619 1
0 0.073232 1
0 0.0686612 1
0 0.0686612 1
0 0.0686612 1
0 0.0686612 1
0 0.0686612 1
0 0.0686612 1
0 0.0743096 1
0 0.105526 1
0 0.105526 1
0 0.0725549 1
0 0.0686612 1
0 0.0686612 1
0 0.0686612 1
0 0.0686612 1
0 0.0686612 1
0 0.0686612 1
0 0.073232 1
0 0.109568 1
0 0.101619 1
0 0.073232 1
0 0.0686612 1
0 0.0686612 1
0 0.0686612 1
0 0.0686612 1
0 0.0686612 1
0 0.0686612 1
0 0.0743096 1
0 0.105526 1
0 0.105526 1
0 0.0725549 1
0 0.0686612 1
0 0.0686612 1
0 0.0686612 1
0 0.0686612 1
0 0.0686612 1
0 0.0686612 1
0 0.073232 1
0 0.109568 1
0 0.1086 1
0 0.080711 1
0 0.0749246 1
0 0.0749246 1
0 0.0749246 1
0 0.0749246 1
0 0.0749246 1
0 0.0749246 1
0 0.0817767 1
0 0.112416 1
0 0.112416 1
0 0.0800087 1
0 0.0749246 1
0 0.0749246 1
0 0.0749246 1
0 0.0749246 1
0 0.0749246 1
0 0.0749246 1
0 0.080711 1
0 0.116367 1
0 0.143954 1
0 0.115303 1
0 0.111543 1
0 0.111543 1
0 0.111543 1
0 0.111543 1
0 0.111543 1
0 0.111543 1
0 0.116367 1
0 0.148286 1
0 0.148286 1
0 0.114756 1
0 0.111543 1
0 0.111543 1
0 0.111543 1
0 0.111543 1
0 0.111543 1
0 0.111543 1
0 0.115303 1
0 0.152889 1
0 0.153837 1
0 0.125199 1
0 0.12319 1
0 0.12319 1
0 0.12319 1
0 0.12319 1
0 0.12319 1
0 0.12319 1
0 0.126083 1
0 0.157821 1
0 0.157821 1
0 0.124792 1
0 0.12319 1
0 0.12319 1
0 0.12319 1
0 0.12319 1
0 0.12319 1
0 0.12319 1
0 0.125199 1
0 0.162079 1
0 0.124792 1
0 0.092842 1
0 0.0924438 1
0 0.0924438 1
0 0.0924438 1
0 0.0924438 1
0 0.0924438 1
0 0.0924438 1
0 0.0934846 1
0 0.128147 1
0 0.128147 1
0 0.0925213 1
0 0.0924438 1
0 0.0924438 1
0 0.0924438 1
0 0.0924438 1
0 0.0924438 1
0 0.0924438 1
0 0.092842 1
0 0.131645 1
0 0.124791 1
0 0.0928414 1
0 0.092443 1
0 0.092443 1
0 0.092443 1
0 0.092443 1
0 0.092443 1
0 0.092443 1
0 0.093484 1
0 0.128145 1
0 0.128145 1
0 0.0925207 1
0 0.092443 1
0 0.092443 1
0 0.092443 1
0 0.092443 1
0 0.092443 1
0 0.092443 1
0 0.0928414 1
0 0.131643 1
0 0.124791 1
0 0.0928414 1
0 0.092443 1
0 0.092443 1
0 0.092443 1
0 0.092443 1
0 0.092443 1
0 0.092443 1
0 0.093484 1
0 0.128145 1
0 0.128145 1
0 0.0925207 1
0 0.092443 1
0 0.092443 1
0 0.092443 1
0 0.092443 1
0 0.092443 1
0 0.092443 1
0 0.0928414 1
0 0.131643 1
0 0.124791 1
0 0.0928414 1
0 0.092443 1
0 0.092443 1
0 0.092443 1
0 0.092443 1
0 0.092443 1
0 0.092443 1
0 0.093484 1
0 0.128145 1
0 0.128145 1
0 0.0925207 1
0 0.092443 1
0 0.092443 1
0 0.092443 1
0 0.092443 1
0 0.092443 1
0 0.092443 1
0 0.0928414 1
0 0.131643 1
0 0.124791 1
0 0.0928414 1
0 0.092443 1
0 0.092443 1
0 0.092443 1
0 0.092443 1
0 0.092443 1
0 0.092443 1
0 0.093484 1
0 0.128145 1
0 0.128145 1
0 0.0925207 1
0 0.092443 1
0 0.092443 1
0 0.092443 1
0 0.092443 1
0 0.092443 1
0 0.092443 1
0 0.0928414 1
0 0.131643 1
0 0.124791 1
0 0.0928414 1
0 0.092443 1
0 0.092443 1
0 0.092443 1
0 0.092443 1
0 0.092443 1
0 0.092443 1
0 0.093484 1
0 0.128145 1
0 0.128145 1
0 0.0925207 1
0 0.092443 1
0 0.092443 1
0 0.092443 1
0 0.092443 1
0 0.092443 1
0 0.092443 1
0 0.0928414 1
0 0.131643 1
0 0.124791 1
0 0.0928414 1
0 0.092443 1
0 0.092443 1
0 0.092443 1
0 0.092443 1
0 0.092443 1
0 0.092443 1
0 0.093484 1
0 0.128145 1
0 0.128145 1
0 0.0925207 1
0 0.092443 1
0 0.092443 1
0 0.092443 1
0 0.092443 1
0 0.092443 1
0 0.092443 1
0 0.0928414 1
0 0.131643 1
0 0.127324 1
0 0.0950527 1
0 0.0938722 1
0 0.0938722 1
0 0.0938722 1
0 0.0938722 1
0 0.0938722 1
0 0.0938722 1
0 0.0957437 1
0 0.130725 1
0 0.130725 1
0 0.0946755 1
0 0.0938722 1
0 0.0938722 1
0 0.0938722 1
0 0.0938722 1
0 0.0938722 1
0 0.0938722 1
0 0.0950527 1
0 0.134265 1
0 0.168847 1
0 0.13359 1
0 0.133363 1
0 0.133363 1
0 0.133363 1
0 0.133363 1
0 0.133363 1
0 0.133363 1
0 0.134265 1
0 0.172774 1
0 0.172774 1
0 0.133364 1
0 0.133363 1
0 0.133363 1
0 0.133363 1
0 0.133363 1
0 0.133363 1
0 0.133363 1
0 0.13359 1
0 0.176954 1
