# vtk DataFile Version 3.0
Particle simulation
ASCII
DATASET POLYDATA
POINTS 400 float
8.59878 8.60156 1.23692
5.88994 7.44443 3.32578
9.31091 5.68789 6.71444
8.74706 6.94641 8.16701
3.4678 7.85932 3.27402
9.7654 8.18187 2.43147
1.39109 8.95426 8.88475
3.16624 5.5855 4.25274
6.41078 7.8645 7.60754
7.76095 5.00035 0.602671
7.65446 2.13032 6.67699
2.79596 1.4239 4.60512
2.35029 6.35543 8.01332
6.62988 9.6161 4.18469
10 6.28397 9.89705
6.8832 7.63518 6.33342
9.77892 7.26446 8.88904
3.66482 0.707858 1.54159
1.13868 1.79953 6.0006
2.05701 6.66491 7.31162
3.58356 0.245042 1.54868
0.481465 4.69744 3.88902
7.67428 4.20405 6.74069
0 2.79866 1.62985
0 4.31206 2.18139
9.24666 8.45783 2.35743
9.58321 7.60202 8.38915
6.73162 6.43825 8.51671
7.00777 7.05266 2.38234
0.769117 3.7985 2.42185
0 7.31999 9.25158
5.58156 7.09539 0.424342
5.61507 8.49187 2.90208
3.45631 5.7298 3.38098
9.96226 1.60042 6.70393
8.8269 8.81515 7.92568
0 9.8143 2.43533
3.56195 0.438661 1.28343
9.07703 2.88895 2.28338
4.27754 6.17664 6.40559
5.07665 4.5473 9.58682
0.966249 7.46857 9.31486
4.70293 5.81614 4.44464
2.55081 1.08314 2.07832
7.07138 0.544178 0.826405
1.51608 6.68864 2.97285
6.25851 8.33351 6.90297
9.04245 2.81995 2.2705
5.68631 2.07342 3.23857
9.09916 0.0898651 6.96704
5.65953 7.1806 5.05479
0.55251 6.26814 2.84096
9.70154 7.35024 4.63263
0 6.70626 9.21647
4.21577 1.54177 8.56501
4.75784 0.653326 3.22603
1.0133 4.08111 2.28349
6.93191 8.77898 0.893854
0.91608 6.00623 4.90022
6.4723 7.1587 0.0665069
9.47913 5.79608 2.08357
0.241832 9.61193 3.16647
4.94563 1.1335 3.76242
8.95825 6.4406 3.43453
6.51206 0.397332 8.12672
0.375934 7.55306 3.38778
7.17707 2.02564 6.69817
7.81766 3.83622 4.28558
6.79196 5.83073 6.79628
1.0208 9.22394 8.26248
1.99484 7.89223 2.94264
3.10427 3.55823 1.70776
7.27661 0.292173 4.81249
4.26487 2.03848 6.90242
3.83681 2.88074 8.50885
3.06809 6.13524 8.12576
0.637963 7.79622 8.02003
2.66751 6.23148 0.637204
0.616251 5.12438 1.33785
3.27438 3.13092 4.96317
3.32559 0.432011 1.85697
2.67466 0.969774 3.84964
0.388992 0.775611 7.52146
1.79235 10 10
9.74384 1.69926 9.04906
0.875255 7.27482 6.96959
2.48258 0.637548 9.29565
7.68075 8.86715 6.67809
4.44245 0.770239 5.11728
3.63374 0 2.07048
3.91551 0.523242 1.47534
2.31719 9.82545 3.75951
2.00696 9.7819 8.22782
8.01817 4.83231 2.9614
0.918256 5.57121 4.26484
6.69217 4.19693 7.33449
3.08218 2.22496 2.86833
2.41386 8.24518 6.86646
6.48318 7.35845 1.07904
1.38653 9.19886 4.77125
3.09536 0.700243 2.53629
1.81904 4.74684 9.9805
5.84557 3.55083 0
6.09749 1.90358 2.15271
7.43356 3.01316 3.08936
1.1511 1.40247 3.93215
9.45016 6.82772 1.96094
4.29487 7.92469 2.55585
9.01387 6.89507 9.2164
3.85642 3.32121 7.72688
3.69321 2.006 8.02983
5.69986 2.40985 1.91732
1.11787 9.05901 5.13798
3.80769 3.10809 7.79014
0.347809 0.404178 1.12528
6.34336 4.53456 0.61909
2.15588 0.91345 9.22082
9.13321 2.73541 6.92976
6.53003 1.19085 3.04805
9.08252 4.3084 6.36495
8.21446 0 0
6.9043 1.95046 9.73524
6.47537 5.85298 7.84722
3.1788 4.44365 7.38491
9.88089 5.72536 3.17926
2.889 0.211141 2.02424
0.0899512 1.94565 9.51064
3.24248 4.0962 9.85411
3.76111 1.95821 1.87048
1.49592 9.19298 7.00337
8.10319 8.25983 3.87585
6.1639 5.19008 2.56056
6.70062 0 6.83039
4.50528 1.60508 1.35063
0.587409 0.427739 7.64236
5.62058 3.26553 0.0943445
8.71305 0.164124 9.08298
4.21843 1.88578 6.97938
2.13599 1.63927 8.96346
2.41048 8.37579 1.05006
2.60515 0.132589 1.45202
9.09419 9.05234 4.42729
7.98073 7.32092 8.17013
2.85272 2.21288 8.87458
0.403285 0.130984 1.07231
4.0664 3.38262 3.07203
5.84001 3.16708 9.87296
4.20133 9.06832 5.57147
1.77361 2.45754 0.975745
8.7682 5.38231 3.44018
3.27742 0.472267 1.54763
9.51495 8.29512 3.62251
8.30215 0.148158 4.34127
3.60075 0.446388 1.50902
2.48347 8.1504 5.9513
5.63518 0.606196 2.89292
2.37135 8.77297 2.15957
1.70485 0 1.47756
8.92732 9.37846 9.55664
3.4232 0.10773 5.98586
1.97191 2.13455 2.23114
9.09714 5.10229 7.84756
4.39449 9.05444 5.02614
1.14706 1.05854 9.3946
2.31833 1.65392 0.125214
3.73159 4.08209 9.69769
5.49883 7.99832 7.14314
8.35703 4.63039 3.54045
9.50677 1.04734 9.33112
8.87796 1.10321 6.41334
3.54009 0.717407 1.3438
1.78734 7.96202 3.91315
1.87013 1.2881 3.38854
2.78356 1.05909 4.23886
3.16395 1.36472 5.54172
8.80622 7.36826 9.20063
1.56822 1.82792 3.24947
7.84849 9.84519 9.9686
10 2.82824 8.36692
6.65994 2.97272 9.46912
2.92085 0.0745642 1.57843
5.22248 8.98735 0.759855
5.76295 8.21249 6.91166
1.76698 7.60037 5.92036
1.99766 8.44178 7.01619
3.29686 4.70775 2.03725
2.76882 0.364808 1.27388
1.02604 4.4018 8.29337
4.77742 0.0847379 0.946583
0.460103 0.517027 1.35441
3.17731 0.223786 1.4906
3.13367 0.399299 1.14753
8.81458 5.19629 7.6684
8.96832 7.46852 2.67244
9.34551 0.614609 6.88238
2.88239 0.124761 1.80574
9.35384 0.878082 6.23231
0.61727 4.9732 8.57022
3.41091 0.705179 1.06145
3.21931 0.326958 1.53863
3.21319 0.0541444 1.38678
9.88161 3.02897 3.9368
2.32715 10 4.35142
8.17895 3.31871 3.78847
6.37081 4.96766 5.36908
2.95634 2.67339 9.15055
3.08018 0.384393 1.81408
5.64797 0.819763 3.19259
1.08744 1.06951 9.21334
8.85766 1.72985 4.39566
3.11663 0.233709 1.36622
3.31923 0.27117 1.63245
5.05221 9.65671 8.68956
7.05359 6.61224 0.920978
5.85651 3.70031 6.20318
4.02847 1.08257 9.0481
3.42303 0.1564 1.35838
4.81979 2.13967 2.81527
3.89732 6.6468 2.10412
5.3006 1.84873 1.21373
9.99504 5.33673 2.8016
2.48536 2.72856 7.97983
1.24795 5.21467 3.44095
3.71505 0.805025 1.08
7.7778 3.76843 5.7974
4.80295 6.82605 8.41318
6.9207 9.81047 2.50387
2.90741 0.322805 1.33463
3.2499 0.256267 1.89442
9.34029 1.19661 3.4323
9.1993 4.25236 9.74843
8.84404 0.548346 9.60049
7.90834 6.70535 8.72911
3.26543 0.0176838 1.95064
2.06944 0.552022 9.22651
7.0219 9.66665 2.32908
5.30608 1.98919 2.87066
5.53484 7.35362 7.9514
3.13464 0.336304 1.98647
6.0402 7.77814 9.3957
3.44804 0.201136 1.70883
2.60233 0.107994 1.26107
3.48169 0.306473 2.05333
3.47449 0.13961 1.8112
4.76891 1.125 10
3.24262 4.54354 9.74493
3.87942 0.287505 6.70323
6.49182 2.00939 0.149088
4.28351 9.42206 6.8335
0.540793 8.89338 5.51434
4.35746 0.372956 1.31341
0 0.430497 8.27717
2.44038 1.07737 7.98983
0.921295 7.47659 1.08298
8.59285 0.334943 0.911119
3.11899 0.431456 2.37803
1.63515 7.9583 0.517822
2.47373 0.404687 9.53173
1.01497 5.59709 8.24724
2.17877 0.627098 9.23932
3.50038 0.514598 1.8811
9.46507 8.10708 3.67721
8.27185 1.45654 4.47575
2.56843 1.13818 3.79701
2.10959 1.0814 8.69953
10 6.42883 0.673832
7.2478 0.48331 1.63716
2.23275 0.759757 9.28184
0.61005 5.58231 8.20084
3.67825 0.365617 1.80031
4.03555 0.578119 1.47796
8.62959 5.38557 8.11334
2.84306 1.62255 4.31879
4.6586 8.90686 5.54881
7.034 1.14738 1.02245
3.32705 1.09973 3.83041
9.70073 6.93471 1.4299
3.87226 8.04809 5.35097
2.26098 0.808808 4.50076
3.40385 0.407363 1.62642
2.66959 0.465934 4.50535
7.42046 0.45598 0.787278
6.21172 4.52316 3.47576
5.73831 0.0608807 9.22855
9.15557 8.10946 7.98554
0 2.76065 6.52459
2.9403 0.523928 1.58514
0.759395 1.17066 4.08135
9.32621 7.43361 1.99836
4.2121 5.31895 1.97192
0.427513 8.88608 3.0102
9.75156 0.762547 6.44892
3.16211 0.427497 1.23709
2.36649 0.105776 5.5251
1.82228 1.22028 8.0595
2.27933 0.425242 8.88824
3.10486 0.265308 1.21047
3.03929 0.260105 1.38576
1.44985 1.49783 3.57039
3.49887 0.340834 1.27394
1.52925 0.361241 1.73901
8.32844 3.34177 3.59015
7.47522 0.5592 6.2173
2.01926 7.92115 1.01913
2.73956 0.332753 1.66748
2.60057 0.544406 4.96738
3.17579 0.252874 1.05854
3.4973 0.370444 1.59256
2.93334 0.0094874 2.11341
9.32001 6.76861 1.50431
3.88123 1.35531 8.65868
6.44731 6.85653 9.78005
2.01146 6.76009 8.19412
3.41694 0.443831 1.68819
9.02244 2.26232 9.30813
4.69141 0.34747 4.94267
2.37126 0.520258 5.32743
0.54316 5.84885 8.03111
6.08551 0.656737 5.42237
1.00114 7.92661 2.072
2.37052 0.951918 8.82308
8.30218 8.55018 8.06857
2.39675 0.633059 9.50224
3.09778 0.321828 1.75675
2.95341 0.34487 4.19239
7.16595 6.82044 0.670893
3.25229 0.121542 1.61392
6.22328 6.63406 0.994586
1.59923 3.08125 2.0102
3.43046 0.424226 1.67599
3.50995 0.0292539 4.87172
3.36271 0.117559 1.94334
3.88258 0.890966 9.63034
3.33853 0.28717 2.55022
7.3117 0.329237 1.04955
0 3.7498 2.79106
1.10415 5.76019 7.57404
3.42352 0.267587 1.7102
2.72827 7.33718 4.54394
8.44348 7.89562 9.92311
8.59236 3.68279 6.37364
9.93689 6.77248 9.25821
3.8406 0.900549 9.43373
2.17382 0.5315 9.23977
3.1316 0.243143 1.82291
3.13199 0.307004 1.93503
7.10074 0.0167646 0.971911
3.44308 0.571139 1.75993
2.88544 0.455989 1.70921
7.69781 8.80904 10
3.30178 0.0381739 0.864954
3.36669 0.375193 1.64938
1.47216 1.54578 3.25504
2.29323 0.981826 8.93627
3.21362 0.356232 1.92826
3.23962 0.50462 2.12079
2.99673 1.34496 5.22462
4.00169 0.407552 9.52444
2.61587 0.037219 2.09525
3.30013 0.516524 1.32691
7.45242 0.257064 0.996887
2.17259 0.618889 9.26934
2.29757 0.53628 9.46611
3.40206 0.0873034 2.30237
3.68836 0.250699 1.61001
7.05655 0.66541 0.507698
2.056 0.484311 9.37174
1.35259 7.41989 0.891713
2.608 0.63434 9.18384
0.799597 2.12575 7.41147
7.52151 0.331203 1.02552
2.49047 2.95225 5.75256
0.533824 1.00177 7.62951
3.5922 0.734169 1.6537
2.84645 0.11728 1.63143
7.09574 0.697189 1.01202
1.9877 0.699175 9.83238
2.29882 0.678593 9.1715
3.91306 0.902981 9.40575
3.45784 0.088602 1.87354
3.03669 0.574302 1.56203
3.68486 0.388226 1.2535
3.81 0.85045 9.31537
3.81327 0.242565 1.58659
2.33988 1.51204 5.13602
2.36295 0.70385 9.10475
3.13888 0.217503 1.52653
3.30472 0.459193 1.6243
4.81765 0.447104 1.17361
7.45407 0.199874 0.948366
3.1577 0.31124 1.39691
3.29415 0.190948 1.26239
2.38156 0.609028 9.33476
3.23114 0.345478 1.24699
2.37157 0.507677 5.2407
2.20105 0.683609 9.39571
3.15259 0.206787 1.42205
3.59752 0.0734024 5.78266
7.82879 0.116227 0.656221
7.54523 0.110073 1.16253
POINT_DATA 400
SCALARS particleColor float 3
LOOKUP_TABLE default
1 5.96046e-08 0
0.411574 1 0.588426
0.022931 1 0.977069
1 0.038711 0
1 5.96046e-08 0
0.654897 1 0.345103
1 0.225715 0
1 5.96046e-08 0
0.865339 1 0.134661
1 5.96046e-08 0
1 0.926105 0
1 0.200398 0
0.830351 1 0.169649
1 5.96046e-08 0
1 0.40335 0
1 0.967036 0
0.556511 1 0.443489
0 0.64596 1
0.527285 1 0.472715
1 5.96046e-08 0
0 0.583961 1
1 5.96046e-08 0
1 5.96046e-08 0
0.335071 1 0.664929
0.994581 1 0.00541931
0 0.471811 1
0.157022 1 0.842978
1 0.918325 0
1 0.267015 0
1 5.96046e-08 0
1 5.96046e-08 0
1 0.0172555 0
1 5.96046e-08 0
0.926826 1 0.0731745
1 5.96046e-08 0
1 5.96046e-08 0
0.490036 1 0.509964
0 0.496103 1
0.204506 1 0.795494
1 5.96046e-08 0
0.830251 1 0.169749
1 0.802972 0
0.597249 1 0.402751
0.765068 1 0.234932
0 0.705191 1
1 5.96046e-08 0
0.692364 1 0.307636
0.7323 1 0.2677
1 0.275204 0
1 5.96046e-08 0
1 0.186769 0
0.280694 1 0.719306
0.188768 1 0.811232
1 5.96046e-08 0
1 5.96046e-08 0
0.551663 1 0.448337
0.591765 1 0.408235
0.955233 1 0.0447669
0.513505 1 0.486495
0 0.497153 1
1 5.96046e-08 0
0.607864 1 0.392136
0.987171 1 0.0128287
0 0.642679 1
0.604159 1 0.395841
1 5.96046e-08 0
0.270548 1 0.729452
1 5.96046e-08 0
0.652358 1 0.347642
1 0.148622 0
1 0.88197 0
0.430341 1 0.569659
0.32834 1 0.67166
0.969592 1 0.0304081
1 5.96046e-08 0
1 5.96046e-08 0
0.173428 1 0.826572
1 5.96046e-08 0
0 0.7281 1
1 5.96046e-08 0
0 0.624237 1
1 0.160124 0
0.794004 1 0.205996
1 5.96046e-08 0
0.18965 1 0.81035
1 0.695683 0
1 5.96046e-08 0
1 0.472268 0
0.475231 1 0.524769
1 5.96046e-08 0
0 0.435292 1
0.289898 1 0.710102
0.546632 1 0.453368
1 5.96046e-08 0
1 5.96046e-08 0
0.325477 1 0.674523
1 5.96046e-08 0
0 0.941762 1
0.796772 1 0.203228
0.896397 1 0.103603
0 0.287643 1
1 0.937078 0
0.384596 1 0.615404
1 0.942862 0
1 5.96046e-08 0
1 5.96046e-08 0
1 5.96046e-08 0
0.273132 1 0.726868
1 0.975507 0
1 0.509941 0
1 5.96046e-08 0
1 5.96046e-08 0
1 5.96046e-08 0
1 5.96046e-08 0
0 0.638051 1
1 0.659358 0
0 0.189261 1
0.460191 1 0.539809
0.124218 1 0.875782
1 0.227559 0
1 5.96046e-08 0
1 5.96046e-08 0
1 5.96046e-08 0
0.411324 1 0.588676
0.147054 1 0.852946
0 0.826819 1
0.282282 1 0.717718
0 0.93423 1
1 0.642975 0
1 0.341885 0
0.467301 1 0.532699
1 5.96046e-08 0
1 5.96046e-08 0
1 0.712719 0
0.0583643 1 0.941636
1 0.381537 0
0.722945 1 0.277055
0 0.819882 1
1 5.96046e-08 0
1 0.671861 0
0 0.484576 1
1 0.267891 0
1 5.96046e-08 0
1 5.96046e-08 0
0 0.945399 1
0.620252 1 0.379748
0.923782 1 0.0762179
1 0.719499 0
0.404445 1 0.595555
0 0.700533 1
0 0.791981 1
1 0.645587 0
1 0.51212 0
0 0.693756 1
1 5.96046e-08 0
0 0.642349 1
0.449698 1 0.550302
0.95177 1 0.0482303
0 0.921518 1
1 0.406779 0
1 5.96046e-08 0
0 0.699584 1
0.208032 1 0.791968
1 5.96046e-08 0
0.452301 1 0.547699
1 5.96046e-08 0
0.123264 1 0.876736
1 0.598737 0
0.778556 1 0.221444
1 5.96046e-08 0
0 0.272777 1
0 0.671591 1
0.604957 1 0.395043
0.76074 1 0.23926
0 0.730746 1
0.851927 1 0.148073
1 0.557279 0
0 0.940884 1
1 5.96046e-08 0
0.867272 1 0.132728
0 0.466466 1
0.383929 1 0.616071
0 0.761042 1
0 0.907508 1
1 5.96046e-08 0
1 5.96046e-08 0
0 0.450148 1
0.306876 1 0.693124
0 0.680367 1
0 0.741717 1
0 0.65089 1
0 0.498918 1
0 0.708241 1
1 5.96046e-08 0
1 0.0752274 0
0 0.784221 1
1 0.373855 0
1 0.795243 0
0 0.69458 1
0 0.725529 1
0 0.622407 1
0.527779 1 0.472221
1 5.96046e-08 0
0.128703 1 0.871297
1 5.96046e-08 0
0.27288 1 0.72712
0 0.74594 1
1 0.798433 0
1 0.640214 0
1 5.96046e-08 0
0 0.567714 1
0 0.633624 1
1 5.96046e-08 0
1 5.96046e-08 0
0.210121 1 0.789879
0 0.752082 1
0 0.603478 1
0.0254596 1 0.97454
0.514722 1 0.485278
0.217616 1 0.782384
1 5.96046e-08 0
0 0.825764 1
1 0.54993 0
0 0.597416 1
1 0.705894 0
1 5.96046e-08 0
1 0.545861 0
0 0.850807 1
0 0.780564 1
1 0.991984 0
1 5.96046e-08 0
1 0.956312 0
1 5.96046e-08 0
0 0.92957 1
0 0.624519 1
0.334856 1 0.665144
1 5.96046e-08 0
0.995619 1 0.00438058
0 0.656924 1
1 5.96046e-08 0
0 0.655652 1
0 0.715175 1
0 0.671614 1
0 0.720358 1
0 0.943297 1
0.0892454 1 0.910755
1 5.96046e-08 0
0 0.780071 1
0 0.851543 1
0.890653 1 0.109347
0 0.448082 1
1 5.96046e-08 0
0 0.822135 1
1 5.96046e-08 0
0 0.421482 1
0 0.460223 1
0.737749 1 0.262251
0 0.722265 1
0 0.695977 1
0 0.503885 1
0 0.544239 1
1 5.96046e-08 0
0 0.918464 1
0 0.986119 1
0 0.610392 1
1 0.920793 0
0 0.524396 1
0 0.708143 1
0.796876 1 0.203124
0 0.686622 1
0 0.324497 1
0 0.941242 1
1 0.099479 0
1 5.96046e-08 0
0 0.625406 1
0.369225 1 0.630775
0 0.531642 1
1 5.96046e-08 0
1 5.96046e-08 0
0 0.455524 1
0 0.433837 1
0 0.550775 1
1 0.928071 0
0.34417 1 0.65583
0.934698 1 0.0653023
1 5.96046e-08 0
0 0.46273 1
0 0.857481 1
1 5.96046e-08 0
1 5.96046e-08 0
1 5.96046e-08 0
0 0.244371 1
0 0.880576 1
0 0.780008 1
0 0.985354 1
0 0.388377 1
0 0.186687 1
0 0.944791 1
0.733449 1 0.266551
0 0.467494 1
0.534524 1 0.465476
0 0.97004 1
0.182458 1 0.817542
0.84391 1 0.15609
0 0.333847 1
0 0.516319 1
0 0.284981 1
0 0.776474 1
0.547891 1 0.452109
0 0.897275 1
1 5.96046e-08 0
1 0.727422 0
0.876285 1 0.123715
0 0.729115 1
0 0.797362 1
0 0.982468 1
0.398502 1 0.601498
1 0.979666 0
0 0.801206 1
0.0333238 1 0.966676
0 0.778612 1
1 0.41731 0
0 0.632092 1
0 0.911976 1
0 0.717649 1
0.604497 1 0.395503
0.0519713 1 0.948029
1 0.704626 0
1 0.206766 0
0 0.531222 1
0.788356 1 0.211644
0.15853 1 0.84147
0 0.820303 1
0 0.834981 1
0 0.643258 1
1 0.316646 0
0 0.452256 1
0 0.418833 1
0.980867 1 0.0191333
1 0.998025 0
1 0.361674 0
0.991827 1 0.00817341
0 0.67581 1
0 0.368878 1
0 0.369495 1
0 0.678166 1
0.0917214 1 0.908279
0 0.522859 1
0 0.786874 1
0.0435051 1 0.956495
0 0.364511 1
0 0.770625 1
0 0.759375 1
0 0.765785 1
0.101944 1 0.898056
0 0.728181 1
0 0.655952 1
0 0.428132 1
0 0.528192 1
0 0.664238 1
0 0.337403 1
0 0.615775 1
0 0.430204 1
0 0.560292 1
0 0.876327 1
0 0.707448 1
0 0.761054 1
1 5.96046e-08 0
0 0.641972 1
1 5.96046e-08 0
0 0.302454 1
1 0.153374 0
0.596235 1 0.403765
0 0.279029 1
0 0.979395 1
0 0.471811 1
0 0.308587 1
0.23234 1 0.76766
0 0.962772 1
0 0.726884 1
0 0.617798 1
0 0.57443 1
0 0.615018 1
0 0.510856 1
0.254874 1 0.745126
0 0.903828 1
0 0.652738 1
0 0.297716 1
1 5.96046e-08 0
0.376657 1 0.623343
0 0.91151 1
0 0.618093 1
0 0.848653 1
0 0.596007 1
0 0.953967 1
0 0.707366 1
0 0.543495 1
0.751627 1 0.248373
0.0436205 1 0.95638
0 0.82696 1
