# vtk DataFile Version 3.0
Particle simulation
ASCII
DATASET POLYDATA
POINTS 400 float
1.42599 2.59641 5.96247
8.02395 9.74355 1.27349
9.49116 7.7091 6.80826
3.8005 8.50121 4.01294
2.00399 10 9.47529
9.0551 9.78985 0.636097
3.43296 4.9092 9.99894
5.36133 4.84891 1.41636
8.50816 5.03492 7.17697
7.62302 0.932841 8.71647
7.46624 1.94551 9.7433
1.07278 1.84152 1.25976
3.58134 9.63511 7.41426
5.54439 8.28696 8.13027
3.10566 1.01527 7.44541
6.2001 2.94926 3.61908
6.91958 8.47988 9.05789
2.94494 0.301036 1.61722
0.73487 1.06873 9.50055
5.08695 0.0538228 5.42483
3.17243 0.267581 1.51187
6.85269 2.05862 7.47759
9.68473 3.31016 9.71933
4.40029 3.84672 3.586
6.00577 6.05018 0.684
8.77584 9.59328 0.993184
9.80544 8.24677 6.88326
4.66446 7.01154 9.18304
9.25924 3.6328 5.53884
1.07769 7.82653 8.89864
2.24279 4.95202 7.78297
9.1835 0 2.82883
7.31469 0.558516 0.811538
0.476368 3.74702 6.00253
6.45315 0.0922597 5.20475
3.72105 0.790334 2.74694
5.32595 9.51102 1.7316
3.05977 0.193404 1.68612
8.27947 4.61345 0.93225
0.452125 9.20862 9.10199
3.31104 0.59794 5.34079
2.57786 9.40195 9.94141
6.39747 7.36107 1.80874
6.98917 1.26093 1.92358
8.49104 0.625172 0.418612
9.09258 1.10439 5.50641
5.38946 8.66362 8.87141
9.94914 0.106162 0.309558
5.46986 1.52104 2.03469
9.72858 0.220589 0.260634
3.99135 3.35502 7.96611
3.58546 6.118 0.704033
9.02647 5.14923 6.31825
2.79736 9.13701 3.56814
1.42463 0.858433 2.39726
5.38106 0.0842855 1.79941
2.40262 7.35664 0.425722
7.75003 4.53454 0.827232
4.74032 3.95512 4.54158
6.33913 8.42162 3.04287
1.41687 0.805272 5.53906
0.132399 9.222 0.0651531
0.709427 3.40641 2.22206
9.24559 6.59049 2.39631
9.14704 3.7576 9.65449
9.01386 6.3822 3.60049
9.13793 1.58408 6.01931
6.19916 9.38637 10
3.75254 3.67686 6.3736
4.25357 8.60353 2.5542
1.19216 2.49243 2.26925
4.23939 0.444124 0.577454
9.208 2.87864 7.15004
3.03463 0.191345 4.35936
6.64224 7.69898 8.54105
4.37334 2.79962 6.24217
2.33018 5.73779 5.47306
2.07902 6.24032 3.52478
0.65636 6.19326 2.7286
4.49928 6.76345 0.280125
3.14124 0.307496 1.20297
6.10849 4.78622 8.39059
4.06222 0.956179 8.63908
5.13611 5.96059 5.66141
9.43292 3.60014 7.88741
0.502844 9.94773 8.18677
7.80435 1.65521 1.39612
5.37981 4.80371 8.08674
5.8969 2.20607 7.08847
0.538755 6.54794 7.25825
2.78977 0.226725 1.47565
3.6707 9.21036 2.43381
4.76072 5.29619 7.37297
4.04306 0 8.80229
7.00775 4.47811 3.25749
8.12851 6.3504 9.25618
8.99089 9.61725 8.90669
1.55598 9.56952 4.68959
5.92392 5.19829 5.60422
1.06311 9.08505 0.274841
3.27938 0.395891 0.88885
4.95686 3.6761 9.59752
5.261 4.88193 0.856861
2.9909 1.24026 0.939214
6.29578 7.11482 8.76577
2.72923 4.54974 8.59805
2.48671 7.19196 0.858634
7.60267 4.92382 3.08832
9.28959 5.42581 9.42957
8.59609 1.76596 8.09085
9.81602 8.44775 6.60128
7.19159 9.20347 8.8398
1.33036 5.33862 7.5816
2.95089 2.00929 4.10326
1.21942 0.589394 1.50794
9.33197 1.26421 1.99538
2.64697 0.806866 9.60499
9.6716 3.11493 9.73594
7.77403 0.346541 7.03646
8.61945 6.34705 3.18818
0.917556 4.64622 2.23684
3.70434 5.57076 2.65661
3.65479 2.71695 1.58084
5.36374 3.53765 9.2705
8.0482 4.33389 1.2143
3.5766 0.582379 0.948656
0.260188 4.69026 6.06462
2.63284 2.57346 9.25618
7.3877 1.93728 4.70902
0 4.7637 10
5.64535 7.90615 5.44943
3.19563 4.97831 2.84526
1.85757 5.25747 9.12791
8.70087 0.547545 0.645301
0.129006 0.158359 6.2399
8.75716 3.7055 3.59093
4.17449 1.07864 8.87739
4.30073 0.346824 7.56355
9.22649 7.10368 7.63071
0.234624 5.28449 0.518859
3.68311 0.358323 1.55131
7.17551 2.55619 1.57263
5.16644 5.65445 3.9026
3.08314 3.37014 0
1.5083 0.621968 1.38923
1.95522 4.83695 5.61408
0.901835 1.95325 7.8106
5.87411 6.38348 9.34667
1.87594 2.12143 0.501529
9.22176 3.54595 2.82484
3.46039 0.477584 1.24735
6.37646 5.07691 1.81383
6.72589 2.37916 8.12578
3.23097 0.479311 1.33235
6.79427 6.14507 3.99489
5.91363 0.414124 1.92664
0.920932 8.82407 0.895617
0.877491 2.60392 2.87515
9.24951 8.89326 8.98213
1.9747 3.26308 9.67854
3.5963 0.97276 5.78609
8.83624 4.53173 9.18137
3.48895 6.66042 7.58893
1.06917 3.06677 9.73823
5.64119 0.301415 2.49194
2.77278 2.14591 2.94301
6.81246 7.81228 8.84358
9.19008 0.624758 7.05248
9.05583 2.39936 5.34243
1.38186 9.69283 9.44203
3.01916 0.411381 1.76297
2.8719 9.56956 3.97461
3.84569 0.826883 4.05872
0.744959 2.7669 2.32661
3.41284 0.625348 5.5689
7.55416 7.35227 4.53497
1.54239 0.158877 7.27455
7.94186 5.62797 7.72478
4.3236 1.87449 5.00377
7.90649 3.57878 5.47264
3.41008 0.166838 1.37289
4.6257 5.08246 1.30377
6.72076 7.45971 8.64273
0.198977 7.32023 8.34586
7.61551 7.48919 4.14223
7.4491 1.13618 0.363506
3.56736 0.731728 1.87776
0.809456 0.518363 9.28161
4.72227 0.29694 1.68695
1.33535 0.846884 1.47311
3.1117 0.272311 1.34039
3.12766 0.173992 1.93171
7.84875 6.39559 6.97458
1.15675 7.32128 8.40075
5.97366 5.28442 2.24192
3.59565 0.130233 1.51317
5.24356 2.29771 2.92591
2.0683 1.0752 9.54855
2.91647 0.353463 2.01112
3.14981 0.268316 1.23189
3.17749 0.0531441 1.54186
7.8147 1.92506 1.58072
3.4093 7.00944 7.97937
6.92471 1.78226 4.21434
1.92867 0.556257 3.78716
2.66304 3.00378 8.91528
3.4747 0.368214 1.47643
8.50499 0.985342 1.05927
3.47273 0.279553 8.4602
2.24491 1.01759 9.55028
3.45078 0.395462 1.54367
2.91072 0.206883 1.07642
2.66585 1.60146 3.46672
2.20046 4.61564 8.51582
8.59342 1.17775 7.83321
3.33749 1.22872 9.43154
3.38648 0.335448 1.65086
4.19635 0.795973 2.14316
3.805 6.8428 5.42483
4.79238 0.558896 1.73448
5.43784 7.47943 7.95397
0.611667 2.5434 10
3.76696 3.28465 6.28225
2.99432 0.311185 2.17621
7.23666 4.30424 10
0.0495283 0.293054 1.99434
4.77313 8.24758 6.23824
3.78863 0.57647 1.92987
2.98954 0.497317 1.19219
9.70551 5.68418 7.37744
8.1069 5.696 7.35585
8.07625 1.54584 9.66084
1.45711 1.19958 3.57128
3.41544 0.160176 0.979344
2.59731 0.60357 9.37737
4.96223 8.14745 5.93943
9.19227 1.13719 6.11421
1.75114 4.60769 5.40798
3.49158 0.636947 0.847542
7.22558 4.94288 0.855524
3.00147 0.10396 1.19755
4.11437 0.615518 2.0081
3.13607 0.264878 1.0609
3.16039 0.410263 1.33874
4.95056 0.19121 8.33387
2.16215 1.58189 8.22686
3.59107 1.07468 5.72031
4.81632 0.817423 0.719356
4.68208 6.90935 8.09575
0.634724 4.34855 3.41823
2.51994 0 1.46312
8.94051 10 0.773978
2.71987 0.553681 9.81017
1.99368 4.42592 3.8486
6.76083 0.940347 0.0761589
3.26686 0.556547 0.838172
4.92837 5.50953 1.73001
2.40887 0.576546 9.23647
0.136448 5.9137 8.61118
2.57573 0.704505 9.3196
2.82881 0.433824 1.08072
6.76208 3.85002 1.86625
6.73396 2.28387 4.45975
4.76674 0.93625 1.65203
2.74026 0.755951 9.57471
8.53432 9.83808 3.06191
6.89794 1.03638 0.7879
2.64688 0.805243 9.53994
1.48961 5.32218 9.4039
3.36637 0.308608 1.11907
2.70575 0.242385 1.29351
7.60328 6.60172 6.82619
3.50476 1.68767 10
4.62826 8.81972 2.95355
7.22624 0.366739 0.211083
4.10696 2.10295 4.19736
9.06718 6.4278 0.950152
7.22635 4.5808 5.03188
1.73176 8.87423 10
3.35816 0.435878 1.39013
3.47348 0.363541 3.94512
7.47593 0.829169 0.871331
9.29815 0.60031 1.05345
6.81256 0.984189 6.3951
9.69162 9.17959 6.39987
7.06233 5.07465 2.2739
3.28151 0.522255 1.45781
4.20643 0.822938 5.87024
7.77765 10 8.73584
4.96029 2.98946 8.51393
9.59738 5.92405 7.34388
9.52526 1.50971 4.71045
3.72759 0.637056 1.85575
1.18892 0.979618 5.89241
4.03529 0.692098 10
2.73221 0.386361 9.7385
3.33334 0.292393 1.85127
3.16404 0.156649 1.58518
0 1.53166 4.03695
3.38307 0.255244 1.56913
3.9802 0.81317 4.9513
6.98542 2.21812 4.01898
9.74688 2.00188 7.79519
3.49595 6.81509 0.938803
3.66283 0.292415 1.2502
1.70299 0.212966 6.03236
3.40493 0.266025 2.15357
3.41824 0.196725 1.37327
4.24948 0.801877 0.592147
8.94715 6.53905 0.737299
8.65201 1.25733 9.53202
2.62576 9.43456 4.74084
2.13419 5.53876 9.74886
3.14527 0.526477 1.4641
8.49941 1.35659 9.56187
4.44421 0.634284 4.92825
0.419101 2.0197 5.53959
1.36178 6.01631 8.55021
6.6879 0.860662 6.91469
2.31998 7.10055 2.09235
2.5178 0.536474 9.59441
3.56699 3.90122 2.36265
2.99377 0.604554 9.47757
2.8858 0.343801 1.18361
3.7653 0.548077 4.11895
5.34712 9.00483 0.544344
3.10346 0.146914 1.76264
8.07751 8.59812 5.85157
4.97889 6.95437 3.06116
2.99442 0.352684 1.02367
7.37067 1.06846 7.43091
3.64253 0.26489 1.03171
3.89395 0.706371 9.69828
3.3596 0.38567 0.680882
7.11816 0.738655 0.801348
4.89305 6.579 8.40456
0.119183 5.97827 8.80054
3.17045 0.192701 1.23834
6.16231 9.84471 1.53366
9.47054 3.78001 8.90084
2.02855 1.30175 8.20591
8.94696 5.20012 9.31109
4.10251 0.701103 9.48788
2.55262 0.785341 9.37947
3.27763 0.263962 1.1786
3.51968 0.460115 0.947497
7.15912 0.568982 0.819503
2.91001 0.490905 1.05684
3.45318 0.609715 1.65112
8.60813 9.25158 9.21863
3.5197 0.308487 2.25717
3.13277 0.514729 1.38895
0.0918179 1.62684 3.25551
2.77514 0.466965 9.90513
3.61859 0.657485 1.3505
2.85218 0.525843 1.03904
3.17558 0.917264 5.78681
3.91613 0.429836 9.48633
4.06241 0.257323 0.857599
3.19321 0.500933 1.26033
7.35973 0.82824 0.770172
2.58769 0.633079 9.24264
2.83285 0.60153 9.50797
3.316 0.0598393 0.682393
3.01675 0.0332841 1.62471
7.25763 0.0763855 1.47451
2.59949 0.485198 9.46278
0.815077 9.54901 2.33504
3.06751 0.727495 9.39691
5.05802 10 0.261301
7.31206 0.684533 0.814576
8.75898 5.99206 3.82391
3.82251 0.314644 8.47674
2.9171 0.706289 1.22938
3.38303 0.0231958 1.49903
7.31505 1.00348 1.03519
2.66532 0.770824 9.10281
2.91669 0.960016 9.10389
4.16851 0.820638 9.01901
3.01127 0 0.898555
2.98201 0.481998 1.30397
3.42101 0.250812 1.57568
4.05124 0.737115 9.15838
3.18517 0.0532831 1.30253
1.39604 0.347714 5.55223
2.74165 0.719651 9.36196
3.18034 0.207126 1.70792
3.09719 0.425254 1.25556
0.575643 9.32019 1.83408
7.32663 0.746756 1.14306
3.26202 0.256131 1.10625
3.62185 0.238727 1.49731
3.10171 0.618948 9.66894
3.60052 0.511032 1.66283
1.1163 1.00054 5.44435
2.66921 0.654697 9.69927
3.20756 0.187051 1.68568
3.21626 0.728879 5.15742
6.75557 0.568237 1.07401
7.35151 0.587111 0.900894
POINT_DATA 400
SCALARS particleColor float 3
LOOKUP_TABLE default
1 5.96046e-08 0
0.419379 1 0.580621
0 0.378402 1
1 5.96046e-08 0
1 5.96046e-08 0
0.726222 1 0.273778
1 0.0173243 0
0 0.952828 1
1 5.96046e-08 0
1 5.96046e-08 0
0.907964 1 0.0920361
1 5.96046e-08 0
0.186561 1 0.813439
0.606101 1 0.393899
1 5.96046e-08 0
1 0.770584 0
0 0.811894 1
0 0.577089 1
1 0.822928 0
1 5.96046e-08 0
0 0.66732 1
1 5.96046e-08 0
1 0.365976 0
0.920793 1 0.079207
0.854553 1 0.145447
0 0.860469 1
0.00127238 1 0.998728
1 5.96046e-08 0
0.618633 1 0.381367
1 0.684729 0
0 0.506365 1
1 0.0240744 0
1 5.96046e-08 0
0.346789 1 0.653211
1 5.96046e-08 0
1 5.96046e-08 0
1 0.576359 0
0 0.657061 1
0.991989 1 0.00801051
0.853923 1 0.146077
1 5.96046e-08 0
0.0875953 1 0.912405
0.145112 1 0.854888
1 0.883146 0
0 0.987441 1
1 5.96046e-08 0
0.537451 1 0.462549
0.661658 1 0.338342
0 0.465765 1
1 0.375362 0
0.319606 1 0.680394
0.988819 1 0.0111815
0.197616 1 0.802384
0.659015 1 0.340985
1 0.355363 0
0 0.230251 1
1 5.96046e-08 0
1 0.722134 0
0.631146 1 0.368854
0.00512067 1 0.994879
1 0.938133 0
0.508991 1 0.491009
1 0.452424 0
0.535926 1 0.464074
1 0.49901 0
1 0.136703 0
0.833948 1 0.166052
1 0.314957 0
1 0.945965 0
1 5.96046e-08 0
1 0.866529 0
0.682488 1 0.317512
0.802061 1 0.197939
0.110725 1 0.889275
0.254482 1 0.745518
1 0.419278 0
0.44257 1 0.55743
0.145166 1 0.854834
0.0502182 1 0.949782
1 0.58976 0
0 0.659117 1
1 0.455999 0
0.97398 1 0.0260205
1 0.475043 0
0 0.426774 1
0 0.480632 1
1 5.96046e-08 0
0.801678 1 0.198322
0 0.999594 1
0.698575 1 0.301425
0 0.419964 1
0.299313 1 0.700687
1 0.515859 0
1 5.96046e-08 0
0 0.884867 1
0.367251 1 0.632749
1 5.96046e-08 0
1 5.96046e-08 0
1 0.359302 0
1 0.430768 0
0 0.859305 1
0 0.895536 1
0.347996 1 0.652004
0.837824 1 0.162176
0.623426 1 0.376574
1 5.96046e-08 0
1 5.96046e-08 0
1 0.630732 0
0.451136 1 0.548864
0.786105 1 0.213895
1 5.96046e-08 0
1 5.96046e-08 0
1 5.96046e-08 0
1 5.96046e-08 0
0.0582786 1 0.941721
1 0.748716 0
0 0.633828 1
1 0.989446 0
0.899158 1 0.100842
0.328171 1 0.671829
0.653572 1 0.346428
1 5.96046e-08 0
1 5.96046e-08 0
0.349102 1 0.650898
0.575805 1 0.424195
0 0.24222 1
1 0.655258 0
0 0.392506 1
0.220709 1 0.779291
0.908053 1 0.0919474
0.00291187 1 0.997088
1 0.998224 0
0.312226 1 0.687774
0.663401 1 0.336599
0 0.439314 1
1 5.96046e-08 0
0.941057 1 0.0589429
0 0.469553 1
1 5.96046e-08 0
0.0878149 1 0.912185
0 0.505229 1
1 0.0853058 0
1 5.96046e-08 0
1 5.96046e-08 0
0 0.962097 1
0.696263 1 0.303737
0.889509 1 0.110491
1 5.96046e-08 0
0 0.913012 1
0.249835 1 0.750165
0 0.59083 1
1 5.96046e-08 0
1 0.599366 0
0 0.817178 1
1 5.96046e-08 0
0 0.44217 1
1 0.773821 0
1 0.251651 0
0.415281 1 0.584719
1 0.591197 0
0.469653 1 0.530347
0 0.549265 1
0.32368 1 0.676319
0.507819 1 0.492181
0.789759 1 0.210241
1 5.96046e-08 0
0 0.262512 1
1 0.413838 0
1 0.870945 0
1 5.96046e-08 0
0 0.380296 1
0 0.562689 1
0 0.493114 1
0.860788 1 0.139212
0 0.666059 1
1 0.73089 0
0.416245 1 0.583755
1 0.665785 0
1 0.939605 0
0.436855 1 0.563145
0 0.572738 1
0.80402 1 0.19598
0.16406 1 0.83594
1 0.773292 0
0.253064 1 0.746936
0.765167 1 0.234833
0 0.0795148 1
0 0.850891 1
0 0.768852 1
0.39701 1 0.60299
0 0.671956 1
0 0.640226 1
0.281866 1 0.718134
1 5.96046e-08 0
1 0.512151 0
0 0.773778 1
1 0.509117 0
1 5.96046e-08 0
0 0.592735 1
0 0.761164 1
0 0.483074 1
0 0.890861 1
0.872479 1 0.127521
0 0.642227 1
1 5.96046e-08 0
0.00954767 1 0.990452
0 0.633164 1
1 5.96046e-08 0
0.898243 1 0.101757
1 5.96046e-08 0
0 0.547394 1
0 0.365719 1
1 5.96046e-08 0
0.699923 1 0.300077
1 0.908605 0
0 0.567456 1
0 0.887907 1
0 0.824933 1
0.665019 1 0.334981
0 0.912543 1
1 5.96046e-08 0
0 0.593775 1
1 0.493112 0
0 0.477788 1
0.568513 1 0.431487
1 5.96046e-08 0
0.761606 1 0.238394
0 0.735026 1
0 0.734867 1
1 0.189589 0
1 5.96046e-08 0
0 0.881375 1
1 0.971126 0
0 0.590671 1
0 0.462538 1
1 0.950655 0
1 0.887657 0
1 0.748509 0
0 0.254369 1
1 5.96046e-08 0
0 0.250723 1
0 0.776198 1
0 0.62496 1
0 0.80321 1
0 0.851335 1
0.927057 1 0.0729427
0 0.976327 1
0.0674465 1 0.932553
0.908182 1 0.0918177
1 0.937364 0
0 0.378334 1
1 5.96046e-08 0
0 0.85006 1
1 0.170216 0
0 0.617688 1
0 0.643186 1
1 5.96046e-08 0
0 0.627702 1
0 0.579377 1
0 0.314117 1
0 0.288495 1
1 5.96046e-08 0
0 0.127036 1
0.921043 1 0.0789567
0 0.566092 1
0.884035 1 0.115965
0 0.43545 1
0 0.755459 1
0.14415 1 0.85585
0 0.677316 1
0 0.563816 1
0.346793 1 0.653207
1 5.96046e-08 0
0.413235 1 0.586765
0 0.96754 1
0 0.91199 1
0 0.770114 1
1 5.96046e-08 0
1 5.96046e-08 0
0 0.136622 1
0 0.465086 1
0 0.587005 1
0.88003 1 0.11997
0.111373 1 0.888627
0.192661 1 0.807339
1 5.96046e-08 0
0 0.66441 1
0.411581 1 0.588419
1 5.96046e-08 0
1 5.96046e-08 0
1 5.96046e-08 0
0.166056 1 0.833944
0 0.63608 1
0 0.403331 1
0.023042 1 0.976958
0 0.722448 1
0 0.508556 1
0 0.805353 1
0.0610519 1 0.938948
0 0.79732 1
1 0.446562 0
0.648018 1 0.351982
0.262967 1 0.737033
0.516943 1 0.483057
0 0.677616 1
0 0.381263 1
0 0.272189 1
0 0.691868 1
0 0.651239 1
0 0.804469 1
1 0.92354 0
1 5.96046e-08 0
0.809928 1 0.190072
0 0.47275 1
0 0.999337 1
0 0.284603 1
0 0.564887 1
0 0.822742 1
0 0.97333 1
0.464393 1 0.535607
0.110049 1 0.889951
1 5.96046e-08 0
0 0.955184 1
0 0.748878 1
0 0.495659 1
0 0.83591 1
0 0.579634 1
1 0.353263 0
1 5.96046e-08 0
0 0.381707 1
0.371092 1 0.628908
0 0.77595 1
0 0.253675 1
0 0.8651 1
0 0.127594 1
1 0.232519 0
0 0.351418 1
0 0.386149 1
0.956001 1 0.0439993
0.605678 1 0.394322
1 0.854238 0
0 0.951876 1
0 0.460866 1
0 0.377075 1
0 0.588245 1
0 0.479618 1
0 0.852572 1
0 0.21586 1
0 0.596371 1
0 0.847416 1
0 0.838844 1
0 0.526187 1
0.406397 1 0.593603
0 0.677221 1
0 0.555798 1
0 0.724668 1
0 0.787001 1
0 0.892737 1
0 0.223806 1
0 0.77907 1
0 0.463098 1
0 0.489126 1
0 0.537978 1
0 0.459842 1
0 0.571711 1
0 0.562111 1
0 0.553491 1
1 0.192294 0
0 0.62981 1
1 5.96046e-08 0
0 0.477943 1
1 0.16297 0
0 0.907753 1
0 0.451615 1
0.0353852 1 0.964615
0 0.969974 1
0.129885 1 0.870115
0 0.428133 1
0 0.223464 1
0 0.281786 1
0 0.716104 1
0.056015 1 0.943985
0 0.299207 1
0 0.816222 1
0 0.372115 1
0 0.762541 1
0 0.340654 1
0 0.206348 1
1 5.96046e-08 0
0 0.79325 1
0 0.815493 1
0 0.696346 1
0 0.348083 1
0 0.598765 1
0 0.520881 1
0 0.503139 1
0 0.466521 1
0 0.875991 1
0 0.515077 1
0 0.861593 1
