# vtk DataFile Version 3.0
Particle simulation
ASCII
DATASET POLYDATA
POINTS 400 float
1.34828 1.00109 0
0.963612 3.76421 6.29193
8.16902 0.896287 8.42293
9.52759 5.38821 5.47338
6.86748 0.220717 8.70632
9.61143 7.17951 7.41043
8.32274 4.34292 6.48275
0 5.52817 3.78642
4.37926 5.63874 9.93581
3.40265 3.55869 10
3.00772 3.47978 3.71225
2.07514 4.50701 2.60244
5.14446 7.3924 0.793937
1.36393 6.41807 2.22444
0.185112 9.02331 2.97773
8.91321 5.18648 8.89789
7.78323 5.69344 10
3.25351 0.565927 2.26926
6.81031 8.66135 0.418779
2.29106 7.95477 9.42208
3.25163 0.525299 2.2973
7.27245 9.25875 9.59893
3.16979 4.63901 5.98107
6.86374 6.45802 1.4689
8.34735 7.96202 2.96255
9.51937 7.4378 3.32688
7.74444 4.97372 7.30325
2.32613 3.05529 8.194
2.03064 3.42736 1.99722
7.55767 3.80238 4.47801
8.70566 10 8.50458
6.48239 3.12643 1.47774
7.19152 0.823738 4.38401
8.32396 7.17671 2.82906
2.13485 6.09515 0.0807696
4.3482 9.99978 2.379
7.39725 7.82668 5.52249
3.21913 0.280589 1.78782
0 10 0
6.76958 8.64784 7.08992
7.4765 8.51088 1.52011
5.77078 2.12428 6.92657
4.9509 0.975081 6.66773
4.38279 4.10537 0.142196
6.03447 1.13504 3.45376
9.90884 9.60409 5.12854
2.76509 2.36028 6.0674
8.02233 5.79164 0.628101
2.83482 5.30174 3.89783
6.32572 1.53586 1.25631
7.7024 5.67281 0.749232
8.22358 9.86288 7.88001
0 6.32243 3.33538
9.6346 8.64248 1.16144
7.62554 9.755 8.91336
1.64679 0.581671 9.55834
0.345378 4.20617 1.61158
6.63344 0.808428 4.65282
2.69735 8.53737 5.11122
3.69233 7.82217 8.49171
0.182484 2.56477 3.2853
7.48408 3.50552 6.4286
4.35637 0.432835 6.0405
2.5921 9.90312 2.78346
4.77112 8.50891 9.34327
7.03849 0.769276 6.71972
10 8.60183 4.0604
5.78978 6.8479 9.19274
1.53534 4.149 1.94183
5.95391 0.221355 4.37441
7.12261 2.27812 9.33907
9.91024 8.85606 6.97131
0 7.29172 1.55119
9.84882 1.90349 6.17154
8.72076 2.13828 4.39425
3.20725 5.62852 4.0915
1.19552 9.71717 2.87282
3.72016 7.93743 0
0.304141 6.84113 0.25946
8.83442 2.68928 8.26784
3.32265 0.474227 2.43809
0.205762 4.3636 1.45606
3.10373 0.406308 9.59797
2.79075 3.99532 0.108248
3.86552 3.21932 5.37833
7.2414 0.305526 5.28264
9.94725 3.81494 3.38236
5.84211 2.95604 9.73865
4.60955 4.92442 0.983896
1.22871 0.301686 5.13909
3.54728 0.387301 2.0517
2.71342 7.42302 6.29077
6.93669 8.55135 6.95425
6.70956 4.93545 4.10457
7.2146 8.49984 6.46921
1.21371 3.79543 1.19067
4.4098 3.91968 7.47028
7.82051 8.49166 7.46319
7.96703 4.96014 3.69746
1.8874 7.53595 9.60878
3.3395 0.249509 1.0288
3.71345 4.75107 6.50046
9.20604 8.6223 2.24175
8.60512 0.942153 9.84918
4.00501 4.86488 6.54482
0.656122 8.4586 5.81758
2.39254 2.22927 2.05821
1.24373 9.83624 7.70146
0.35912 4.3987 6.83899
8.78643 9.84671 9.01698
4.21537 7.24614 8.81079
1.32218 5.82674 8.79774
3.07567 9.05659 0.144596
2.06591 3.25703 9.28091
3.94217 0.532818 0.863625
5.35187 5.28659 5.74235
0.744185 0.0128203 8.42109
1.39583 3.09921 7.9888
0.876099 1.10333 8.03828
7.18783 10 5.13132
6.33863 7.15756 9.54616
7.76543 8.05114 1.82627
8.4497 2.85122 9.25678
3.66607 7.44822 4.23826
5.16896 8.11165 9.36946
3.61292 0.38137 1.14867
4.77018 2.57054 1.50058
5.25918 7.96296 4.70369
2.12495 1.53813 1.53699
7.42974 4.32871 2.6153
6.94919 8.95364 4.42833
8.96442 9.58785 5.77514
0.619421 6.45414 0.345087
1.83844 1.61761 2.01025
4.22154 7.65335 8.87659
4.2421 5.60332 6.12006
1.01253 1.44339 9.21818
3.34204 8.44721 7.98887
9.21113 2.85935 7.62738
9.68144 7.49238 3.73586
3.34641 0.222346 2.42711
5.58139 0 8.59646
5.32834 7.38684 2.52289
2.02341 3.21588 3.30675
3.8294 0.915962 0.649954
7.9619 1.90232 1.39645
8.75138 0 2.38937
6.87794 9.6282 0.7077
0.93218 0.973872 8.88237
2.50734 7.36023 9.4205
3.17601 0.63048 2.40415
6.33173 0.566433 5.68005
3.11482 5.76191 4.00348
3.94684 0.272878 1.87078
0.444535 4.059 0.700725
5.50741 0.717619 6.65971
7.84179 5.49131 0.727216
5.41371 4.36652 5.62801
5.6365 1.87117 10
6.26974 5.96314 7.55006
0.799755 3.55408 8.9704
4.6502 5.78715 0.851348
5.21065 3.88605 3.02748
3.28804 7.30389 5.23782
1.52966 8.08847 2.84867
7.57 8.10449 2.05506
5.55307 7.48344 0.349716
9.90707 9.40654 4.4101
5.31124 6.93734 7.98275
4.95728 8.85786 2.46934
3.358 0.52376 1.91269
5.9903 5.7699 3.63671
1.27217 6.72774 2.65174
8.35206 1.78397 9.41965
1.81435 6.06221 5.90795
2.34206 4.95527 0
3.30801 6.88413 9.58607
6.47388 9.66881 0.842278
2.2991 6.36703 4.20859
2.42221 4.62677 5.5125
3.10178 0.360565 2.29169
4.26358 9.32216 2.55982
4.73506 9.05628 9.26783
6.48756 4.8788 1.38647
4.77856 5.30692 0.682934
0.0264331 7.59968 5.4501
3.2074 0.516195 2.33082
8.32234 0.718606 6.76125
4.0378 0.338762 2.284
4.06834 0.754161 0.871778
3.69363 0.217956 1.71939
3.65839 0.630522 1.6791
9.72191 1.81528 5.11962
8.83228 3.16596 7.73115
8.21799 8.4574 8.60475
5.32494 3.00635 0.555182
1.39577 5.95302 8.25743
1.67193 4.4364 0.187947
3.76665 0.39431 5.44347
3.54845 0.182516 1.55773
3.35031 0.222825 2.37764
5.93823 1.98895 10
0.991419 4.43761 0.750153
8.9271 5.13226 2.3897
8.37583 7.60819 6.74617
6.32756 1.74367 6.80799
3.94634 0.658701 2.59278
7.35294 2.14364 9.50156
6.18045 0.740281 9.31277
3.15076 7.69338 4.69209
4.0629 0.198308 1.95915
3.30102 0.516291 2.45666
2.16495 5.24919 7.53499
9.83319 2.60978 1.16868
0.288734 2.60172 0.816198
3.64992 0.442581 8.50748
3.6676 0.492903 2.16341
0.440115 0.191141 4.99734
1.62748 4.63182 4.77454
9.51518 0 7.82743
4.97171 5.14409 1.33738
7.85527 1.26254 4.65013
9.69219 1.28193 0.387808
3.51909 0.669874 2.17816
7.90048 2.14518 0.44714
0.173199 7.00618 7.62915
9.44503 5.43998 5.74217
3.8423 0.0709663 2.444
3.24072 0.452075 2.61531
1.25375 9.27056 6.05968
6.32396 6.88324 3.87516
2.32414 7.2524 4.56025
8.11009 1.09241 1.71149
3.46042 0.20121 2.15461
0.808224 0.405915 8.69177
8.35715 3.54675 3.00071
9.33521 4.14751 4.89604
3.87731 2.37018 8.8085
3.85327 0.243675 1.90983
4.97257 7.41534 8.13135
3.07006 0.425162 2.34745
3.35474 0.279199 2.46928
2.92735 0.502328 2.60267
3.11165 0.23607 2.671
0.660591 5.85375 4.83739
5.22627 8.30377 4.84408
3.42231 1.74151 8.13873
9.13507 0.604654 3.93573
1.63611 0.429866 0.541757
9.11421 7.3751 2.72683
3.65908 0.428911 2.12606
6.40514 9.00285 1.9199
8.35323 4.47176 7.15157
7.98766 2.75142 4.51659
3.64247 3.02776 1.34408
3.14214 0.249719 3.39199
3.74518 0.724532 5.32149
0.850226 0.250328 8.60317
3.05148 0.410547 5.04183
0.740496 0.26922 8.59506
3.16491 0.409338 2.65352
7.05505 1.30825 8.8334
6.24645 1.52457 6.31553
0.144668 0.183739 2.03652
0.540601 0.283288 4.12783
2.36699 4.90256 6.57536
4.86449 0.925928 4.29372
0.728479 0.34645 8.60607
0.40021 9.64376 0.826679
4.08621 0.563715 2.49668
3.01695 0.359715 1.97498
5.29366 7.06512 7.70474
9.57671 4.53417 8.37132
6.90225 9.15205 4.29264
4.95314 1.12588 4.36247
1.16445 0.640289 7.3101
8.45081 5.91322 4.66788
0.408975 0.884615 9.37785
1.04383 0.717173 9.40758
3.29487 0.305229 2.08366
1.64679 1.02486 9.37842
7.80921 0.721062 0.363391
6.68665 2.30122 7.79513
4.76213 0.612337 3.35836
2.97705 1.17163 8.59782
9.32338 9.30183 0.700546
3.48793 0.584334 2.42254
4.06489 0.138321 4.51917
0.643779 5.91724 2.65102
7.70222 8.64583 0.231611
6.03962 5.76448 8.27858
1.02948 6.62615 4.50718
3.96483 0.259061 2.30996
1.72964 3.8999 2.97739
3.92574 0.874359 9.37089
0.637846 0.157413 8.35262
3.38046 0.18675 2.29337
3.50467 0.33465 2.58029
2.31625 0.792076 3.13907
3.43144 0.391705 2.1896
5.58006 4.82691 1.75344
9.57319 1.52819 0.92529
3.15626 0.0887382 1.0113
2.88221 7.46221 9.02048
3.72047 0.4007 2.30855
7.10366 0.827279 7.21375
3.61145 0.262054 2.57217
3.25297 0.278841 2.07048
0.617066 4.01692 5.5362
8.61767 6.11056 4.88657
3.65374 2.88474 0.638096
8.94542 0.61542 2.46992
5.3543 8.00392 1.88007
3.36396 0.501464 2.21362
1.99772 7.84281 7.44932
4.84306 5.36905 0.756189
3.19025 0.837635 1.19132
5.64331 5.79175 4.29896
7.51547 0.816515 0.951433
6.095 8.78397 4.87605
0.925724 0.159703 8.95546
7.13144 5.68447 8.68611
0.601266 0.295594 8.23915
3.22305 0.584487 2.21636
0.609465 0.143248 8.973
1.23624 1.63553 0.423127
3.68855 0.243376 2.71919
4.18316 4.55934 3.23067
8.07841 5.83952 9.03278
3.48803 0.465037 1.82845
1.87893 7.80229 3.37452
4.44013 0.728929 2.58867
1.82931 1.57458 9.14294
2.90221 0.30942 3.50173
7.83169 0.877675 0.179879
8.36266 0.853574 8.71769
3.79266 5.86347 6.66437
3.23425 0.254223 2.05511
1.38327 2.22093 8.27625
0.928112 3.91571 2.16759
1.96394 2.77435 2.21351
8.66297 8.27604 2.10063
1.74805 1.48906 9.12764
0.801087 0.273502 8.65302
3.37785 0.145868 1.86947
3.45297 0.159356 1.49536
7.97492 0.835243 0.680335
3.1568 0.641695 1.81535
3.92193 0.35534 2.70593
7.5835 8.21731 2.88105
3.68899 0.165657 1.91087
3.45169 0.443726 2.12305
0.930589 6.38553 2.93846
2.42107 1.64242 3.96737
3.87307 0.22696 2.31353
3.42075 0.457439 1.99407
3.36079 0.390294 0.599938
2.09605 1.88229 9.55487
3.65659 0.340893 1.73381
3.41545 0.513728 2.16264
7.7246 0.530225 0.436657
0.758598 0.0699701 8.49446
0.838202 0.199232 8.60198
3.25039 0.112143 2.003
2.93102 0.488101 2.56164
7.91477 0.822435 0.167935
0.559671 0.431076 8.82134
8.92351 4.07632 3.42073
0.893701 0.0485476 8.3638
7.65852 1.70699 0
7.83069 0.328795 0.391606
2.82564 0.839161 9.65682
4.08881 1.07936 9.56168
3.07442 0.526245 1.78814
3.65289 0.132144 2.05447
7.90809 0.629112 0.48015
0.612231 0.453748 8.39563
0.554746 0.524614 9.16361
4.04712 0.480262 8.64727
3.33112 0.138222 1.7466
3.68089 0.651781 1.91855
3.22577 0.323215 2.32243
3.96104 0.310512 8.50854
2.95301 0.317551 2.29601
10 0.308466 0.621814
0.667563 0.404512 8.28973
3.47188 0.217995 2.08088
3.46988 0.391831 1.80951
8.68448 0.670415 9.83606
8.95153 0.22403 5.98452
3.44267 0.25898 2.11345
3.33114 0.13469 2.35847
0.97463 0.369673 8.31381
3.33876 0.324909 2.10634
3.20193 0.0843071 0.473775
0.699519 0.00178643 8.57109
3.46583 0.259124 2.02179
0.779264 0.151512 5.08056
6.42742 0.486336 3.99205
8.12248 0.829931 0.399644
POINT_DATA 400
SCALARS particleColor float 3
LOOKUP_TABLE default
1 0.269088 0
0.588971 1 0.411029
0.256788 1 0.743212
0 0.506217 1
1 0.574934 0
0 0.67165 1
0.916822 1 0.0831777
1 5.96046e-08 0
0.980106 1 0.0198939
1 5.96046e-08 0
0 0.915744 1
1 0.963355 0
1 5.96046e-08 0
1 5.96046e-08 0
1 5.96046e-08 0
0.838918 1 0.161082
1 0.395508 0
0 0.419976 1
1 0.873165 0
1 0.925887 0
0 0.830742 1
1 5.96046e-08 0
1 5.96046e-08 0
0.72963 1 0.27037
1 5.96046e-08 0
0 0.884542 1
1 0.965588 0
0.0445821 1 0.955418
1 0.947055 0
1 0.926692 0
1 5.96046e-08 0
0.492136 1 0.507864
1 5.96046e-08 0
1 0.799575 0
1 0.506449 0
1 5.96046e-08 0
0.514062 1 0.485938
0 0.291515 1
1 5.96046e-08 0
1 5.96046e-08 0
0.300008 1 0.699992
1 5.96046e-08 0
1 5.96046e-08 0
1 0.880448 0
0 0.979472 1
1 5.96046e-08 0
1 5.96046e-08 0
1 5.96046e-08 0
1 0.570374 0
0.985858 1 0.0141424
1 5.96046e-08 0
0 0.664708 1
1 5.96046e-08 0
1 0.372039 0
1 5.96046e-08 0
0.417846 1 0.582154
0.274561 1 0.725439
0.937823 1 0.0621766
1 5.96046e-08 0
1 0.0654821 0
1 5.96046e-08 0
1 0.580512 0
0.794332 1 0.205668
1 0.222405 0
0.495534 1 0.504466
1 5.96046e-08 0
1 5.96046e-08 0
1 0.367473 0
0.430394 1 0.569606
0.874464 1 0.125536
1 0.464357 0
1 0.756991 0
1 5.96046e-08 0
0.0417492 1 0.958251
1 0.706185 0
1 5.96046e-08 0
1 5.96046e-08 0
1 5.96046e-08 0
0.796096 1 0.203904
0.935511 1 0.0644893
0 0.725701 1
0 0.849103 1
0 0.981425 1
1 5.96046e-08 0
1 0.854564 0
1 5.96046e-08 0
1 0.862136 0
1 5.96046e-08 0
0.171414 1 0.828586
0.205458 1 0.794542
0 0.454335 1
0.962034 1 0.0379657
1 5.96046e-08 0
1 5.96046e-08 0
0.154201 1 0.845799
1 0.402468 0
1 5.96046e-08 0
0.732384 1 0.267616
1 0.681214 0
0 0.866611 1
0 0.726058 1
0 0.868051 1
0.162471 1 0.837529
1 0.749347 0
1 5.96046e-08 0
1 0.317995 0
0.513051 1 0.486949
0.493329 1 0.506671
0.945293 1 0.0547069
0.810911 1 0.189089
0 0.9938 1
1 0.463022 0
1 0.891799 0
1 5.96046e-08 0
0 0.513598 1
1 0.28746 0
0 0.432186 1
1 5.96046e-08 0
1 0.131466 0
0.846049 1 0.153951
1 5.96046e-08 0
1 0.950658 0
1 5.96046e-08 0
1 5.96046e-08 0
1 0.590099 0
0 0.427159 1
0 0.915137 1
0.738974 1 0.261026
0.452666 1 0.547334
1 0.563625 0
1 5.96046e-08 0
0.717438 1 0.282562
1 5.96046e-08 0
0 0.979542 1
0.905081 1 0.0949188
1 0.268151 0
1 0.886475 0
1 5.96046e-08 0
0.866365 1 0.133635
0 0.513637 1
0 0.506485 1
1 5.96046e-08 0
1 5.96046e-08 0
1 5.96046e-08 0
0 0.982085 1
0.221599 1 0.778401
1 0.638211 0
1 0.650373 0
0.191995 1 0.808005
1 5.96046e-08 0
0 0.664568 1
1 5.96046e-08 0
1 5.96046e-08 0
0 0.534733 1
1 5.96046e-08 0
1 5.96046e-08 0
0.477638 1 0.522362
1 0.879767 0
1 5.96046e-08 0
1 0.113494 0
1 5.96046e-08 0
0.739036 1 0.260964
1 0.792838 0
1 0.905939 0
0.861766 1 0.138234
0.469321 1 0.530679
1 5.96046e-08 0
0.1698 1 0.8302
1 5.96046e-08 0
0.770797 1 0.229203
0 0.595026 1
1 5.96046e-08 0
0 0.832739 1
0.972538 1 0.027462
0 0.834466 1
1 0.502635 0
1 5.96046e-08 0
1 0.219881 0
1 0.941804 0
1 0.762482 0
0 0.658509 1
1 5.96046e-08 0
0.732884 1 0.267116
1 0.11173 0
1 0.209155 0
0.768509 1 0.231491
0 0.77323 1
1 5.96046e-08 0
0 0.752551 1
0 0.700157 1
0 0.540665 1
0 0.401471 1
0.604195 1 0.395805
0.558139 1 0.441861
0.351003 1 0.648997
0 0.279204 1
0.455402 1 0.544598
1 0.554791 0
0.171918 1 0.828082
0 0.374452 1
0 0.746467 1
1 5.96046e-08 0
1 5.96046e-08 0
0 0.713892 1
1 5.96046e-08 0
0.0230696 1 0.97693
0 0.727249 1
1 5.96046e-08 0
0 0.691828 1
1 5.96046e-08 0
0 0.329188 1
0 0.396022 1
1 0.573551 0
1 5.96046e-08 0
0.615571 1 0.384429
0 0.697761 1
0 0.773142 1
0.660532 1 0.339468
0.148768 1 0.851232
1 5.96046e-08 0
1 5.96046e-08 0
1 0.158822 0
0.652129 1 0.347871
0 0.994273 1
1 0.503793 0
1 5.96046e-08 0
1 0.07368 0
0 0.770462 1
0 0.552449 1
1 5.96046e-08 0
1 0.670876 0
1 0.253731 0
1 5.96046e-08 0
0.0231662 1 0.976834
0 0.363695 1
0.858572 1 0.141428
1 5.96046e-08 0
0.106983 1 0.893017
0 0.395839 1
1 5.96046e-08 0
0 0.312405 1
0.274405 1 0.725595
0 0.890954 1
0 0.796383 1
1 5.96046e-08 0
0 0.892727 1
1 5.96046e-08 0
1 0.676415 0
0.930182 1 0.0698178
0.869624 1 0.130376
0.106363 1 0.893637
0 0.96479 1
1 5.96046e-08 0
1 0.654279 0
1 0.429571 0
0 0.800378 1
1 5.96046e-08 0
0 0.770464 1
1 5.96046e-08 0
0 0.524584 1
0 0.776582 1
0 0.607926 1
1 0.435481 0
0.0560238 1 0.943976
0.311796 1 0.688204
1 5.96046e-08 0
0 0.511056 1
0 0.451566 1
1 0.759614 0
0 0.429554 1
0 0.86094 1
1 5.96046e-08 0
1 5.96046e-08 0
1 5.96046e-08 0
0 0.843564 1
0.0645241 1 0.935476
0 0.63902 1
1 5.96046e-08 0
1 0.317166 0
0 0.219132 1
0.722777 1 0.277223
0 0.392183 1
1 5.96046e-08 0
0.140737 1 0.859263
0.843632 1 0.156368
1 0.181193 0
0 0.515799 1
0 0.424895 1
1 5.96046e-08 0
1 5.96046e-08 0
1 0.887348 0
1 0.603428 0
0 0.798808 1
0.812544 1 0.187456
1 0.583251 0
0 0.70307 1
0 0.597053 1
0 0.487171 1
0 0.568346 1
0 0.543479 1
0.122056 1 0.877944
0.12719 1 0.87281
0.491893 1 0.508107
0.715463 1 0.284537
0 0.660456 1
0.648639 1 0.351361
0 0.370355 1
0 0.890159 1
0.0713353 1 0.928665
0 0.982639 1
1 5.96046e-08 0
1 0.815625 0
0 0.892584 1
0 0.769916 1
1 0.0721759 0
0.43598 1 0.56402
0 0.462264 1
1 5.96046e-08 0
1 5.96046e-08 0
0.982715 1 0.017285
0 0.780274 1
0.482412 1 0.517588
0 0.48556 1
0.00930474 1 0.990695
0.335952 1 0.664048
0.937135 1 0.0628652
0 0.740648 1
1 5.96046e-08 0
1 0.939293 0
0 0.193645 1
1 5.96046e-08 0
0 0.441411 1
0 0.330003 1
0 0.986068 1
0 0.504189 1
1 5.96046e-08 0
0.334516 1 0.665484
0 0.267971 1
0 0.915435 1
1 5.96046e-08 0
1 5.96046e-08 0
0.551446 1 0.448554
0 0.752099 1
0 0.338974 1
0 0.428896 1
0 0.87945 1
0 0.574946 1
0 0.309602 1
0 0.582065 1
1 0.738971 0
0 0.838293 1
0 0.715196 1
0 0.823194 1
1 0.821078 0
0 0.788156 1
0.0613211 1 0.938679
0 0.733192 1
0 0.210541 1
0.103541 1 0.896459
0 0.671231 1
0 0.740447 1
0 0.424458 1
0 0.795184 1
0.173098 1 0.826902
0 0.417733 1
0 0.760932 1
0 0.684408 1
0.527328 1 0.472672
0 0.756061 1
1 5.96046e-08 0
0 0.443822 1
0.00700571 1 0.992994
0 0.90012 1
0 0.456263 1
0 0.741364 1
0 0.467555 1
0 0.748754 1
0 0.528004 1
0 0.166009 1
0 0.563228 1
0 0.209504 1
0 0.448476 1
0 0.626816 1
0 0.677623 1
0.182123 1 0.817877
0.411065 1 0.588935
0 0.528952 1
0 0.43273 1
1 0.230126 0
0 0.649289 1
0.225191 1 0.774809
0 0.760571 1
0 0.748958 1
0 0.814147 1
0 0.641697 1
0 0.736127 1
0 0.685908 1
0.344858 1 0.655142
0.0705052 1 0.929495
0 0.838708 1
