# vtk DataFile Version 3.0
Particle simulation
ASCII
DATASET POLYDATA
POINTS 400 float
9.48054 1.4075 9.61989
1.95116 10 1.63628
0.791854 0.00603119 5.63196
1.98545 0.542334 1.39966
8.9219 1.10026 2.90362
9.87087 6.46634 4.74705
9.18611 0.334903 1.80415
7.23893 3.26047 0.721779
8.03097 8.42223 7.85902
4.35584 0.439336 6.84351
9.49745 3.64642 1.98244
6.09985 1.54123 2.46188
9.78787 3.98766 9.63648
7.80116 0.0746156 0.972955
5.14538 2.38777 1.01633
9.13377 5.47991 9.06082
0.91784 5.96776 0.0387181
3.06731 0.0717625 1.18067
1.31519 2.98815 1.71983
0.522608 2.33096 5.52188
2.50799 0.615776 2.05399
9.89758 1.50259 5.34584
9.72729 1.20367 9.54299
1.99912 0.55359 1.39861
4.07229 7.37989 3.0093
3.96996 0.526006 0.859347
6.38502 8.47872 5.15213
0.884031 0.366642 1.72479
8.27067 0.431155 6.6249
6.01722 1.51111 1.32148
6.50783 7.78421 8.6652
5.28646 4.094 9.5588
9.13354 0.339736 8.14065
4.21978 0.585208 0.0112111
6.0902 1.56029 0.832766
1.85077 2.56792 0.848134
0.197884 8.38136 2.11159
3.39086 0.595194 1.89889
6.33903 0.357944 1.66238
0.755813 2.06719 4.11503
3.06776 0.122265 4.68761
9.96278 0.495994 5.99134
7.85522 3.797 8.99505
0.646442 4.38206 8.33129
6.77292 0.628759 6.3797
6.29565 0.631887 2.03658
4.66205 0.741346 5.72574
4.36495 0.450606 3.21466
6.46727 0.380178 1.85645
7.89777 3.29165 1.31442
1.24037 3.30048 2.79313
10 10 3.96513
8.42367 0.154254 7.88686
4.3458 0.624366 6.68137
8.7021 0.463064 8.15244
6.52325 0.408233 1.55238
8.19653 0.522101 9.25824
0.580713 0.469241 6.1998
6.80816 0.202992 2.05528
9.3364 9.85551 1.40347
8.02532 7.49947 9.41612
6.17754 1.59389 9.448
1.65151 0.766666 4.08115
4.38674 0.709907 6.5395
4.5207 8.49868 3.5385
1.62477 0.533396 2.63434
5.24497 0.18209 8.94333
1.1461 3.34083 3.09139
6.633 0.135235 1.76827
4.88226 0.129348 7.92172
8.46893 0.519643 8.4094
3.62182 0.460906 2.55125
9.29936 5.2251 0.715336
4.28794 0.674341 6.60104
9.60013 0.723937 8.09851
7.83292 0.546596 3.4573
5.57867 0.128929 8.80752
5.27459 0.288052 8.32927
7.68015 1.70156 0.605268
0.938686 9.70264 9.94659
3.04274 0.722516 2.07999
3.36921 0.256876 1.54036
3.81049 0.558718 2.82451
2.45601 0.300656 1.41953
4.66238 0.848969 9.66142
5.78767 0.85347 8.82301
6.00484 1.13939 9.82313
5.80512 2.85792 1.57856
9.18351 3.84296 2.10642
8.92021 0.221607 1.53682
3.11408 0.945589 2.07155
3.15658 0.658401 1.49065
1.13111 0.350774 7.11308
2.41667 0.517981 1.59341
4.66159 0.832905 9.6025
5.12414 0.389826 8.99899
6.07892 0.380185 8.27024
0.218069 0.929118 0.251801
9.43049 0.135413 8.23513
8.95434 0.212873 1.51275
3.77451 0.736352 1.16285
4.90576 1.49413 0.0223156
1.04837 1.70962 1.1718
9.96676 0.258738 9.84789
7.21608 5.55261 1.0811
3.58005 0.52297 2.03237
4.71211 0.0810532 8.18087
6.44697 0.38613 1.37405
6.03188 0.55521 1.74171
9.36691 0.449694 1.72767
9.31625 9.86038 10
4.58693 0.452474 6.5367
2.80953 0.470807 2.91975
8.3335 0.168127 1.79446
3.44174 0.55029 2.35171
1.98353 0.216952 4.04241
5.40583 0.260696 8.76442
5.6732 0.530135 1.25781
6.06178 0.621759 1.75146
6.56887 0.918909 4.97153
3.48759 0.256547 1.74103
4.74734 9.27118 0.128009
6.90383 8.65672 7.37436
7.23667 0.793616 4.0416
9.73287 0.534675 7.81652
3.46175 0.773313 2.37526
3.50799 0.735276 2.41646
4.35104 0.489474 6.74773
7.33027 3.7573 5.47121
0.425981 4.60608 8.99138
3.48795 0.0741057 1.57073
5.79944 2.7875 1.75978
4.52702 0.190947 8.13846
7.04719 0.979079 6.39287
8.24767 0.367519 2.25139
2.74428 0.232232 1.45559
8.10515 9.95907 3.97285
4.30306 0.700351 6.68871
3.72239 2.11783 8.2709
8.56433 0.261085 7.65825
3.39725 0.871989 1.88566
4.40177 0.0668238 9.30619
2.73937 7.97993 2.98298
6.60614 0.797663 4.99276
3.23362 0.447146 1.5466
2.57489 0.719694 1.3659
7.13599 0.882706 6.57012
0.794509 4.62981 0.566931
2.64439 0.514969 1.51651
3.17316 0.22549 1.85433
3.40995 0.889466 1.884
8.57559 1.06502 6.93282
4.22264 0.809949 0.784725
4.93491 0.285792 8.37716
4.17979 4.24123 0.366264
5.98643 0.791523 1.8722
8.71045 1.1108 7.01893
3.3449 0.216887 1.82197
7.55465 1.06764 5.86909
1.96383 0.726086 2.0687
1.97342 2.77009 0.968956
0.857046 0.124669 5.69555
5.63419 0.0847437 8.33524
3.2546 0.524798 2.39373
1.2473 3.06038 2.83854
8.70208 0.239882 7.81885
5.28849 0.131726 8.48668
5.66157 0.0817603 8.4997
6.17546 4.36273 5.57309
2.32417 7.26614 7.97686
3.54815 0.284063 1.77702
3.80929 0.132601 2.87937
5.78996 1.36505 2.29118
3.02171 0.189505 1.08523
2.75657 0.695437 1.77639
2.16954 2.97349 0.959148
5.6601 0.279495 8.44327
5.07755 0.290482 8.15461
6.1952 0.143229 7.83052
3.81721 3.83755 8.5086
2.41056 0.297662 1.43819
3.30048 0.769887 2.54921
9.33678 5.43624 7.15725
3.30152 0.869785 1.22489
5.30028 0.169176 8.23859
3.19627 0.695619 1.81012
2.37059 0.576056 1.19363
1.2045 0.449295 7.24111
7.32556 1.08763 5.96846
2.5486 0.603156 1.37513
2.50088 0.247578 1.40232
2.24334 0.626386 1.62256
6.36325 0.39355 8.30546
1.69175 3.31141 4.23453
2.79496 5.55752 7.50567
2.36611 0.376018 1.32072
2.19249 0.468997 1.97223
7.31936 5.08961 8.38146
2.22771 0.604811 1.52581
3.71129 0.0551933 0.81492
3.30538 0.370342 1.6708
6.01854 0.448388 1.73245
7.07268 0.851158 6.46244
4.72525 0.267202 8.48228
8.72295 5.52623 2.51549
5.98536 1.13745 8.94657
3.82457 0.594168 1.56205
1.08507 0.7415 6.15312
0.647777 0.781804 6.5305
8.95108 0.158117 1.32611
2.03613 0.494205 1.47412
5.99814 0.386321 1.72289
5.98368 0.173463 8.46028
9.05975 0.199217 7.79733
4.51459 0.548386 6.57177
5.76313 0.920583 8.74669
3.80402 0.608649 1.54431
3.27913 0.351308 2.11486
3.73151 0.785016 2.57754
8.76281 0.186879 1.66071
9.44138 2.16852 3.69038
4.17353 0.110104 8.5345
5.09419 0.136194 8.2514
3.3494 0.392824 2.07712
5.54605 0.390908 8.88959
3.38304 0.424168 2.13194
1.80296 2.71963 0.333945
2.39504 0.647179 1.48434
2.01072 0.54659 1.59949
6.93666 0.155167 7.48849
3.85211 0.266533 5.5609
6.25457 0.098585 8.296
6.99687 0.608918 6.59478
3.69474 0.651186 2.07877
6.82832 0.461786 8.11207
4.21905 0.653072 1.3378
6.06697 0.600589 7.50833
2.10144 0.221613 1.41185
2.49396 0.48237 1.86958
0.532522 0.780591 6.33878
2.56364 0.456359 2.77294
3.34281 1.12452 1.744
3.52014 0 1.84496
2.27452 0.794361 1.56175
5.7873 0.365904 8.115
4.00608 0.465062 2.16967
0.84438 0.767317 2.12562
4.92267 0.179002 7.99369
6.1014 0.134977 1.69462
5.78038 0.528387 8.68643
3.76384 0.672304 2.39568
3.94414 0.688809 1.42747
5.92996 0.529412 8.72312
1.97473 0.748713 1.50183
7.76054 0.922898 6.23299
3.3992 0.737895 2.15339
9.75953 0.31596 1.80981
5.52059 0.287223 8.50511
5.83685 0.557269 1.63052
5.77874 0.583345 8.68163
2.23159 0.185864 1.66049
2.52971 7.20709 5.48482
6.01718 0.0411359 8.66837
7.63575 2.47366 1.07974
6.12966 0.708888 8.44042
0.671149 4.50754 8.76923
3.82299 0.413686 1.34035
5.61193 0.217813 9.10257
7.36658 1.09091 5.97591
3.64583 0.616074 2.1112
3.63426 0.61449 1.77025
2.0603 0.159559 2.50371
6.05843 0.789153 1.30509
3.44158 1.05375 2.76551
5.49607 0.472341 8.64879
5.20766 0.0757349 8.4377
5.07946 0.375211 6.33533
4.91485 9.20182 6.92081
6.88087 0.278959 8.17913
2.52245 0.286617 1.35968
9.29294 0.149425 1.84068
5.85341 0.340836 1.70742
7.23565 2.61277 1.42956
5.06923 0.741074 6.41373
6.79819 1.28287 5.29189
7.3338 1.31125 6.26485
3.18434 0.457769 1.91221
3.34685 0.503566 1.62021
8.73877 0.332256 7.7803
8.73436 7.65993 4.22106
8.43905 0.558132 2.69957
6.42519 0.361876 2.08566
1.86977 0.774676 1.99134
4.5752 0.684111 6.66159
5.5435 0.534862 8.85673
5.41727 0.53735 9.14558
3.67434 0.789215 1.63085
3.58944 0.65597 1.95233
3.7443 0.108326 1.57248
3.98683 0.4847 1.96156
9.01939 0.0583812 1.67493
9.01287 0.367278 7.80622
2.45307 0 3.88292
6.89125 0.263318 2.02972
3.76313 0.769432 2.14681
0.983251 0.102131 1.21035
2.23109 0.270725 1.63922
2.16161 0.43808 1.69585
2.16385 0.386106 4.18592
2.24735 0.593956 1.33148
6.61122 0.229148 7.68371
8.62122 1.01601 6.84958
6.72846 0.585533 6.44711
1.94513 0.606664 1.87676
3.32524 0.491898 2.36888
4.55253 0.927421 9.2824
2.77209 0.384711 1.38537
6.01762 0.307139 1.5594
6.0966 0.417698 1.86418
3.40443 0.248625 2.1089
5.0058 0.497335 8.45585
3.73916 1.20064 2.77504
5.19685 0.476758 8.53689
2.47169 0.6163 1.94222
8.71818 0.355864 1.49959
9.0777 0.160986 1.53836
2.38169 0.438409 2.21232
5.84694 0.164263 2.2803
8.75248 0.227273 2.21026
2.24483 0.630305 1.29168
5.35977 0.859037 9.00549
3.71854 0.67154 1.65973
5.22015 0.466909 8.7029
3.41752 0.341311 2.08666
8.52791 0.358631 2.28419
4.78104 0.146168 8.70749
5.60086 0.575179 1.71671
2.59991 0.278944 1.4517
7.86168 0.0831879 2.48066
3.37855 0.192928 2.06227
5.19266 0.995359 9.03332
3.20349 0.977778 1.69775
5.5944 0.806755 8.87134
5.34001 0.191242 8.60038
3.13211 0.545434 1.96323
3.47746 0.269366 2.08138
5.96061 0.55956 1.75343
2.40748 0.283773 1.72634
3.45229 0.385179 2.0266
2.40272 0.485032 2.39144
3.80158 1.0212 2.84838
3.3364 0.420024 1.84778
5.67735 0.755799 9.01972
5.51605 0.31877 8.82637
2.5296 0.0311745 1.8521
2.61884 0.448284 1.14265
5.52793 0.113306 2.14424
5.14839 0.740847 9.37285
3.53229 0.409867 1.37507
3.46602 0.306132 2.55304
6.14176 0.488893 2.07342
5.1877 0.545388 9.15275
5.71144 0.271746 8.13412
2.71775 0.247388 1.36962
1.81813 0.525016 1.36523
7.52057 0.919625 6.13856
5.54052 0.307412 8.54667
5.20099 0.558508 8.42241
5.72785 0.492157 8.65738
1.30646 0.618024 1.97182
6.16532 0.401311 2.05608
8.56058 1.08624 6.94268
6.03452 0.307258 8.67888
2.07406 0.471384 2.39098
3.11654 0.220449 1.60728
7.11493 0.62954 6.34348
5.67534 0.619379 8.92431
5.57802 0.128462 8.47632
5.62211 0.797557 8.72231
3.18531 0.489591 2.06132
2.27418 0.446506 1.71453
2.61151 0.350537 1.3119
5.51668 0.663033 8.81001
3.55251 0.763466 2.35034
4.28708 0.474081 6.59486
6.00255 0.606234 8.61421
3.82285 0.571003 2.1103
3.32512 0.450562 2.17797
3.88406 0.340198 5.4339
6.28226 0.394323 1.4978
2.24527 0.467345 1.71966
2.38019 0.385149 1.385
5.99885 0.271401 8.41753
3.65781 0.772525 1.95067
4.25749 0.436101 6.51941
5.98767 0.756151 8.33161
3.71957 0.580107 1.9542
3.68457 0.691347 2.33193
9.1605 0.099728 2.12359
6.2846 0.381025 1.51815
POINT_DATA 400
SCALARS particleColor float 3
LOOKUP_TABLE default
0 0.743583 1
1 5.96046e-08 0
0.22251 1 0.77749
0 0.357707 1
0 0.16908 1
1 0.802359 0
0.247309 1 0.752691
0 0.805852 1
0.211737 1 0.788263
0 0.822936 1
0 0.713114 1
0.794119 1 0.205881
0.0873289 1 0.912671
0 0.707396 1
0 0.614549 1
0 0.62847 1
0 0.410605 1
0 0.278011 1
0.107814 1 0.892186
0.493244 1 0.506756
0 0.343501 1
0.922112 1 0.0778884
0.656489 1 0.343511
0.329275 1 0.670725
1 0.641091 0
0 0.562331 1
0.889522 1 0.110478
0 0.67314 1
0 0.766672 1
0.333473 1 0.666528
0 0.922382 1
0.0473347 1 0.952665
0 0.76879 1
0 0.43932 1
0 0.951294 1
0.0535521 1 0.946448
1 0.967163 0
0 0.427914 1
0 0.909088 1
0 0.420416 1
0 0.686644 1
0 0.627312 1
0 0.649401 1
0.417225 1 0.582775
0 0.591378 1
0 0.201107 1
0 0.390742 1
0.0560317 1 0.943968
0 0.614142 1
0.600422 1 0.399578
0 0.588575 1
1 5.96046e-08 0
0.0885646 1 0.911435
0 0.738007 1
0 0.615701 1
0 0.401305 1
0 0.816504 1
0 0.440361 1
0 0.568754 1
0.455338 1 0.544662
1 5.96046e-08 0
0 0.897434 1
0 0.569161 1
0 0.716887 1
0.0641303 1 0.93587
0 0.84692 1
0 0.900924 1
0 0.540465 1
0 0.26012 1
0 0.794236 1
0.14782 1 0.85218
0 0.254409 1
1 5.96046e-08 0
0 0.842322 1
0.0357976 1 0.964202
0.0913881 1 0.908612
0 0.91454 1
0 0.729706 1
0 0.439092 1
0.26069 1 0.73931
0 0.18664 1
0 0.631526 1
0 0.663809 1
0 0.595986 1
0 0.614956 1
0 0.434803 1
0 0.592949 1
0 0.830824 1
0.441575 1 0.558425
0 0.213776 1
0 0.263957 1
0 0.332044 1
0.161097 1 0.838903
0 0.60702 1
0 0.631556 1
0 0.521343 1
0 0.739062 1
0.0046945 1 0.995305
0 0.913241 1
0 0.260139 1
0 0.815333 1
0 0.516657 1
0 0.665585 1
0 0.258409 1
0.532218 1 0.467782
0 0.201189 1
0 0.251406 1
0 0.894753 1
0 0.631899 1
0 0.485287 1
0.571328 1 0.428672
0 0.915137 1
0 0.201015 1
0 0.814763 1
0 0.277806 1
0 0.335609 1
0 0.483237 1
0 0.705683 1
0 0.419959 1
0 0.925943 1
0 0.269031 1
0.669532 1 0.330468
0.435408 1 0.564592
0 0.16849 1
0 0.572762 1
0 0.857568 1
0 0.935777 1
0 0.612546 1
0.984897 1 0.0151035
1 0.650598 0
0 0.604367 1
0 0.934605 1
0 0.20285 1
0 0.207856 1
0.667432 1 0.332568
0 0.611865 1
0.334987 1 0.665013
0 0.72207 1
0 0.672438 1
0 0.58113 1
0 0.548213 1
0 0.627035 1
1 5.96046e-08 0
0 0.546367 1
0 0.50215 1
0 0.382985 1
0 0.461866 1
0 0.420441 1
0 0.577023 1
0.519372 1 0.480628
0 0.545644 1
0 0.326622 1
0.180689 1 0.819311
0 0.586792 1
0 0.120266 1
0 0.56514 1
0 0.893874 1
0 0.642835 1
0 0.686941 1
0 0.301635 1
0.328415 1 0.671585
0 0.486726 1
0 0.689091 1
0 0.432744 1
0 0.600671 1
0.0455596 1 0.95444
0 0.921828 1
0 0.515005 1
0 0.359837 1
1 5.96046e-08 0
0 0.806391 1
0 0.812939 1
0.0111627 1 0.988837
0 0.148864 1
0 0.864893 1
0 0.87364 1
0 0.550039 1
0 0.725245 1
0 0.870786 1
0 0.747143 1
0 0.627893 1
0 0.966087 1
0 0.583241 1
0 0.883644 1
0 0.382605 1
0 0.547961 1
0 0.707109 1
0 0.517497 1
0 0.68298 1
0 0.596983 1
0 0.65997 1
0 0.668521 1
0 0.738729 1
0 0.359493 1
0.683477 1 0.316523
0 0.563361 1
0 0.545539 1
0 0.442833 1
0 0.552891 1
0 0.417407 1
0 0.332959 1
0 0.533723 1
0 0.830934 1
0 0.435536 1
0.577051 1 0.422949
0 0.0971361 1
0 0.637339 1
0 0.761719 1
0 0.740241 1
0 0.620551 1
0 0.512767 1
0 0.600275 1
0.0335008 1 0.966499
0 0.287717 1
0.154151 1 0.845849
0 0.315036 1
0 0.62165 1
0 0.965637 1
0.455434 1 0.544566
0 0.349375 1
1 5.96046e-08 0
0 0.732818 1
0 0.55988 1
0 0.699397 1
0 0.221682 1
0 0.797265 1
0 0.453256 1
0 0.22143 1
0 0.672431 1
0 0.638378 1
0.0473903 1 0.95261
0 0.432686 1
0 0.305975 1
0 0.815549 1
0 0.568527 1
0 0.753958 1
0 0.468268 1
0 0.629795 1
0 0.435827 1
0 0.610914 1
0 0.567155 1
0 0.828602 1
0 0.32936 1
0 0.871445 1
0 0.723267 1
0 0.964971 1
0 0.833358 1
0.321952 1 0.678048
0 0.773532 1
0 0.536414 1
0 0.487542 1
0.310898 1 0.689102
0 0.376305 1
0 0.999979 1
0 0.122888 1
0 0.688906 1
0 0.138712 1
0.076747 1 0.923253
0 0.57156 1
0 0.388972 1
0 0.433306 1
0.0639813 1 0.936019
0 0.800553 1
0.167149 1 0.832851
0 0.446418 1
0 0.835287 1
0 0.815563 1
0 0.477797 1
0 0.553753 1
0 0.390544 1
0 0.65045 1
0.749181 1 0.250819
0 0.938588 1
0.412731 1 0.587269
0 0.581121 1
0 0.842201 1
0 0.555149 1
0 0.250967 1
0.284947 1 0.715053
0 0.664042 1
0 0.595959 1
0 0.653335 1
0 0.922418 1
0 0.498703 1
0.13931 1 0.86069
0 0.340436 1
0 0.363357 1
0.229707 1 0.770293
0 0.521277 1
0.362442 1 0.637558
0.160801 1 0.839199
0 0.430661 1
0 0.542785 1
0 0.727892 1
0 0.608371 1
0 0.641835 1
0.0453857 1 0.954614
0 0.836146 1
0.305587 1 0.694413
0 0.643039 1
0 0.651783 1
0 0.314053 1
0 0.324474 1
0 0.475823 1
0.0660752 1 0.933925
0 0.713657 1
0.428819 1 0.571181
0 0.313606 1
0 0.561871 1
0 0.747678 1
0 0.797295 1
0 0.679658 1
0 0.693904 1
0 0.909418 1
0 0.800104 1
0.118786 1 0.881214
0.141043 1 0.858957
0.140317 1 0.859683
0 0.60875 1
0 0.805347 1
0 0.652057 1
0 0.526 1
0 0.604635 1
0 0.629264 1
0 0.863572 1
0 0.239387 1
0 0.266624 1
0 0.397619 1
0 0.777169 1
0.0461357 1 0.953864
0 0.927104 1
0 0.566587 1
0 0.6661 1
0 0.589172 1
0 0.418463 1
0.0563321 1 0.943668
0.0904977 1 0.909502
0 0.709326 1
0 0.419642 1
0.0331951 1 0.966805
0 0.775296 1
0.00527302 1 0.994727
0 0.40441 1
0.00837156 1 0.991628
0 0.34789 1
0 0.47936 1
0 0.776648 1
0 0.356134 1
0 0.324323 1
0 0.762878 1
0 0.293613 1
0 0.799898 1
0 0.905445 1
0.17891 1 0.82109
0 0.240899 1
0 0.561149 1
0 0.172426 1
0 0.570233 1
0 0.745537 1
0 0.133939 1
0 0.29316 1
0.0781319 1 0.921868
0 0.557111 1
0 0.781597 1
0 0.214367 1
0 0.452678 1
0 0.460927 1
0.308096 1 0.691904
0 0.814565 1
0 0.213798 1
0 0.232061 1
0 0.719902 1
0 0.147854 1
0 0.501993 1
0 0.750374 1
0 0.113665 1
0 0.634252 1
0 0.360179 1
0 0.87061 1
0 0.590169 1
0.0768015 1 0.923199
0 0.742126 1
0 0.585909 1
0 0.74468 1
0 0.433773 1
0 0.60946 1
0 0.246529 1
0 0.720492 1
0.188845 1 0.811154
0 0.93058 1
0 0.882535 1
0 0.590445 1
0 0.268566 1
0 0.945233 1
0 0.540904 1
0 0.636651 1
0 0.445962 1
0 0.720744 1
0.0150695 1 0.984931
0 0.825464 1
