# vtk DataFile Version 3.0
Particle simulation
ASCII
DATASET POLYDATA
POINTS 400 float
1.13345 1.22634 0.653792
0.923814 1.22005 0.0827416
0.653515 1.1936 1.85076
0.66652 1.20278 0.747084
0.745751 1.35327 2.74209
0.740675 1.30988 2.13903
0.683538 1.38618 3.49735
0.682575 1.39252 2.80422
0.934279 1.17924 4.25331
1.10151 1.27665 3.70744
1.13895 1.23221 0.669826
0.925949 1.19839 0.10478
0.634075 1.17237 1.83889
0.693884 1.21501 0.714033
0.734248 1.35543 2.72776
0.729027 1.31779 2.09448
0.680879 1.37826 3.53719
0.667694 1.39067 2.91315
0.934913 1.19534 4.22842
1.08765 1.26229 3.72005
0.257704 1.17775 0.702208
0.447721 1.25479 0.0939411
0.0759099 1.20388 1.85517
0.0894486 1.20152 0.757422
0.0714152 1.36395 2.74192
0.0322092 1.33698 2.14841
0.0794978 1.37409 3.43959
0.0768194 1.37948 2.89491
0.465737 1.27335 4.28845
0.292369 1.24592 3.63915
0.258289 1.17932 0.698039
0.450563 1.23752 0.128951
0.0877805 1.15612 1.82056
0.0929062 1.19809 0.777274
0.0924063 1.36298 2.72258
0.0472523 1.33473 2.07654
0.0733124 1.37336 3.48765
0.0732028 1.3994 2.82164
0.426026 1.29226 4.22038
0.2831 1.24826 3.63628
0.960226 1.36431 0.760803
1.652 1.42618 0.00968542
2.04914 1.3641 1.63026
1.93638 1.32199 0.935658
1.66563 1.39103 2.83177
1.7149 1.38917 2.18157
1.68096 1.36193 3.2605
1.67782 1.36944 3.06815
1.62576 1.41324 4.19153
0.945134 1.39519 3.52925
0.964992 1.37563 0.793866
1.65772 1.43345 0.0184516
2.03577 1.3466 1.54184
1.93656 1.32411 0.936807
1.65196 1.38401 2.79398
1.71074 1.39513 2.20632
1.67192 1.36107 3.35777
1.67487 1.35871 3.11258
1.60937 1.41357 4.16579
0.934222 1.38919 3.52889
1.24616 1.41567 0.689154
1.37227 1.39186 0.0346695
1.17198 1.32917 1.54628
1.24688 1.38277 0.917542
0.908764 1.38312 2.80539
0.832791 1.38069 2.20145
1.11407 1.38821 3.406
1.09603 1.38163 3.21327
1.44295 1.40451 4.21423
1.23281 1.3827 3.47105
1.241 1.42483 0.715804
1.39963 1.40969 0.0355854
1.17281 1.32981 1.57168
1.24016 1.3892 0.867324
0.917844 1.37483 2.73418
0.834126 1.38192 2.23193
1.1072 1.38982 3.3361
1.10133 1.4002 3.12119
1.42967 1.42405 4.13569
1.22959 1.38022 3.49624
1.97219 1.44276 0.709135
2.24904 1.44245 0.0515362
2.03576 1.45672 1.6935
2.5145 1.44786 0.932603
2.60108 1.37658 2.72313
2.64642 1.39786 2.1599
2.53899 1.3709 3.55498
2.56113 1.37618 3.11748
2.33606 1.41115 4.23098
2.01761 1.4178 3.46137
1.96529 1.45886 0.757234
2.28103 1.46892 0.0507265
2.03745 1.44996 1.65892
2.52028 1.45007 0.899021
2.57028 1.35852 2.66789
2.65565 1.39459 2.12626
2.58553 1.37173 3.51072
2.59823 1.36979 3.03857
2.34398 1.42186 4.16617
2.00513 1.4161 3.50279
2.16343 1.44452 0.714265
2.37532 1.46113 0.0196331
2.09217 1.46439 1.63459
2.3126 1.4522 0.906017
2.09976 1.38036 2.7501
2.07212 1.43075 2.12679
1.9901 1.40185 3.53043
1.96226 1.40663 3.07136
2.3107 1.42132 4.25148
2.10712 1.40869 3.41558
2.16253 1.45113 0.755467
2.40311 1.46244 0.0253183
2.09953 1.46139 1.58825
2.31291 1.45327 0.883524
2.12889 1.36239 2.68676
2.07724 1.43516 2.13561
1.99678 1.39943 3.54785
1.96283 1.41456 3.11297
2.32746 1.43025 4.20921
2.08503 1.40231 3.50021
3.30606 1.31667 0.728951
3.40294 1.38179 0.0654014
3.25511 1.43859 1.69599
3.37167 1.46337 0.965064
3.52976 1.40498 2.77111
3.58035 1.40399 2.16103
3.45177 1.41192 3.49136
3.4836 1.4167 3.01355
3.3845 1.38219 4.17026
3.36469 1.34098 3.45528
3.30175 1.33109 0.754056
3.39808 1.3817 0.0589377
3.26176 1.43603 1.66714
3.37623 1.46395 0.967052
3.50161 1.39383 2.7159
3.58741 1.40185 2.14215
3.45313 1.40989 3.52824
3.47576 1.41979 3.04004
3.38471 1.38633 4.14357
3.34826 1.33213 3.54635
2.74063 1.374 0.688244
2.95673 1.39716 0.030601
2.81513 1.45595 1.63372
2.95405 1.46222 0.940914
2.8578 1.41738 2.77388
2.75862 1.41576 2.13668
2.81622 1.42202 3.55063
2.8116 1.43421 3.09801
2.98697 1.38035 4.19804
2.79154 1.375 3.51245
2.72742 1.37817 0.684321
2.95428 1.39401 0.0471955
2.81317 1.4501 1.6283
3.00844 1.43979 0.906492
2.85249 1.40177 2.70772
2.75658 1.41545 2.14355
2.81938 1.42536 3.51543
2.80395 1.43326 3.01969
2.99501 1.3803 4.1618
2.79212 1.36548 3.57045
4.23184 1.18567 0.887476
4.35584 1.1648 0.0268341
4.12202 1.28757 1.85585
4.24247 1.21352 0.672331
4.34504 1.368 2.70423
4.34685 1.36182 2.17123
4.31134 1.3629 3.54672
4.37026 1.39122 2.93972
4.25602 1.21203 4.25019
4.17419 1.26739 3.49631
4.24722 1.21444 0.911054
4.37968 1.18476 0.0149578
4.12117 1.28922 1.88647
4.22544 1.22113 0.694322
4.34192 1.36494 2.6895
4.33334 1.3567 2.10265
4.29816 1.35668 3.58283
4.35799 1.3884 2.98892
4.28092 1.23659 4.21308
4.17951 1.28926 3.44758
3.63896 1.20613 0.920037
3.49893 1.22816 0.0298417
3.69719 1.28759 1.90469
3.64359 1.25689 0.753045
3.7433 1.37219 2.72712
3.6979 1.34277 2.11437
3.72867 1.36148 3.54271
3.73476 1.38867 3.00459
3.62748 1.25402 4.19245
3.77562 1.25908 3.55696
3.631 1.22083 0.923164
3.4584 1.27649 0.0262035
3.69981 1.26256 1.79837
3.63958 1.25584 0.755606
3.71741 1.37337 2.72978
3.71063 1.34274 2.05943
3.72412 1.36184 3.56288
3.734 1.38808 2.96331
3.64683 1.24684 4.16498
3.75828 1.2571 3.51405
1.11189 1.04607 0.681423
0.976384 1.09641 0.117853
0.619263 1.13954 1.85958
0.657056 1.08994 0.687488
0.664253 0.944596 2.66216
0.701645 0.97522 2.14883
0.661202 0.897288 3.50754
0.653536 0.913907 2.85252
0.970207 1.04052 4.27664
1.07401 1.04676 3.75029
1.10993 1.05176 0.68419
0.985805 1.10679 0.0351681
0.620893 1.14004 1.88771
0.676455 1.08724 0.677759
0.677562 0.941003 2.66847
0.689629 0.957718 2.10857
0.664937 0.902027 3.52793
0.650717 0.928542 2.87266
0.958476 1.06598 4.23322
1.07884 1.04464 3.72244
0.225037 1.05449 0.736695
0.251676 1.03022 0.0458397
0.084168 1.13016 1.82698
0.0949157 1.08286 0.686571
0.0970518 0.942853 2.67631
0.0363616 0.920381 2.09342
0.0784589 0.905676 3.44729
0.0764587 0.91397 2.91893
0.272812 0.983204 4.34095
0.32707 1.03457 3.67494
0.219962 1.05312 0.736954
0.219178 1.03592 0.150436
0.0786761 1.11425 1.87488
0.0965478 1.06808 0.72682
0.100219 0.943756 2.66264
0.0209279 0.921214 2.11598
0.0650737 0.89841 3.48387
0.0794841 0.912685 2.83845
0.276804 1.00081 4.28322
0.31526 1.04676 3.60158
0.953019 0.955466 0.777231
1.72374 0.85938 0.00103341
2.00106 0.925422 1.64211
1.92735 0.961292 1.00316
1.65408 0.937431 2.8113
1.68822 0.875166 2.19593
1.78063 0.983382 3.26428
1.79268 0.897795 3.5498
1.70527 0.866602 4.16071
0.948212 0.916432 3.522
0.956059 0.954262 0.791565
1.70144 0.857201 0.0242154
2.00517 0.938724 1.53825
1.93881 0.936378 0.913127
1.65359 0.932675 2.78642
1.68732 0.887177 2.21597
1.74668 0.949925 3.10131
1.80043 0.886016 3.52113
1.72205 0.866193 4.15333
0.934722 0.919564 3.53793
1.25104 0.88302 0.673954
1.44845 0.89602 0.0146738
1.25246 0.945824 1.54918
1.09706 0.904319 0.871115
0.919292 0.923856 2.80195
0.82654 0.882959 2.20326
0.911012 0.911586 3.40578
0.935258 0.908783 3.33174
1.4465 0.884722 4.17909
1.27475 0.894512 3.46222
1.24711 0.885306 0.709904
1.46068 0.888979 0.00723273
1.25299 0.947464 1.56519
1.1034 0.910583 0.816807
0.923928 0.918921 2.71615
0.834619 0.901078 2.23377
0.906793 0.906017 3.26666
0.960772 0.891442 3.41539
1.4264 0.890848 4.16249
1.27021 0.889917 3.48292
1.95212 0.850131 0.666822
2.22822 0.832973 0.0455608
1.95514 0.86941 1.69239
2.61324 0.841939 0.913916
2.58724 0.978441 2.7257
2.67002 0.902263 2.08827
2.63399 0.912142 3.49862
2.5966 0.903555 3.14547
2.30099 0.870943 4.2152
1.95913 0.883533 3.4714
1.94745 0.857502 0.72967
2.23577 0.827139 0.0412264
1.95443 0.872764 1.65841
2.61253 0.843785 0.901894
2.57248 0.941994 2.62137
2.66394 0.913129 2.12235
2.6357 0.912315 3.53271
2.63156 0.904267 3.07241
2.30832 0.873207 4.21556
1.94433 0.874533 3.51029
2.14277 0.870233 0.676949
2.43437 0.837108 0.0125238
2.11048 0.864301 1.61733
2.35358 0.857293 0.895298
2.13632 0.932171 2.73317
1.97975 0.7964 2.15752
1.9383 0.923377 3.57916
1.96441 0.917478 3.18082
2.37976 0.869109 4.25158
2.09452 0.908594 3.42621
2.14964 0.866274 0.686248
2.43541 0.829224 0.0107078
2.12181 0.865218 1.54234
2.35055 0.859392 0.883603
2.11551 0.8849 2.66638
1.97454 0.806132 2.18149
1.95534 0.923395 3.55357
1.92769 0.919938 3.08744
2.40228 0.86977 4.25564
2.06711 0.89428 3.49734
3.39815 0.95191 0.68269
3.41368 0.904032 0.0618999
3.28016 0.846182 1.67022
3.355 0.833216 0.954711
3.52064 0.919804 2.74648
3.58967 0.854968 2.12883
3.46887 0.885014 3.51217
3.48867 0.876947 3.10313
3.36198 0.899085 4.18014
3.38421 0.935693 3.52209
3.38078 0.960442 0.715289
3.42995 0.896277 0.0526689
3.2751 0.84426 1.64108
3.36141 0.835304 0.941738
3.51242 0.913543 2.72455
3.59097 0.854393 2.14196
3.48003 0.881991 3.4939
3.52012 0.876952 3.03354
3.37196 0.903466 4.17485
3.37878 0.936318 3.53542
2.77498 0.923801 0.609246
2.84306 0.881677 0.0242613
2.82351 0.864233 1.61957
3.01582 0.841987 0.909666
2.88706 0.946333 2.74959
2.79252 0.881318 2.1429
2.82609 0.908874 3.54184
2.81852 0.908234 3.12772
2.95533 0.901485 4.21232
2.76125 0.940146 3.60703
2.76407 0.919372 0.61917
2.84044 0.885518 0.056472
2.82283 0.864455 1.60032
3.03093 0.845789 0.883002
2.89419 0.93899 2.69908
2.79223 0.881022 2.15688
2.8279 0.907006 3.52651
2.81248 0.910178 3.06942
2.9324 0.90458 4.17233
2.76833 0.939185 3.64391
4.285 1.04807 0.888162
4.38767 1.06448 0.0387904
4.14213 1.00391 1.86112
4.2935 1.01606 0.649639
4.34428 0.934287 2.68337
4.35427 0.891973 2.11775
4.32647 0.913396 3.54715
4.3765 0.912352 2.96699
4.28025 0.978465 4.29034
4.20821 1.02563 3.53212
4.28317 1.04804 0.881338
4.40698 1.0602 0.0556283
4.13992 1.00588 1.87915
4.29458 1.01659 0.657422
4.3425 0.936676 2.66064
4.36506 0.886102 2.11944
4.32057 0.901702 3.5681
4.37613 0.915458 2.97001
4.30086 1.01466 4.24646
4.20757 1.02951 3.52796
3.66283 1.11546 0.895606
3.53784 1.07379 0.0868296
3.75585 1.05983 1.86564
3.68307 1.08008 0.735878
3.79527 0.954079 2.68599
3.75939 0.935478 2.11915
3.75473 0.937041 3.54184
3.76328 0.928584 2.98455
3.68854 1.0369 4.20781
3.80679 1.10492 3.60279
3.65242 1.10969 0.918574
3.53948 1.07459 0.122354
3.75496 1.06075 1.89204
3.67921 1.08217 0.725443
3.79291 0.952856 2.68116
3.78002 0.934493 2.06732
3.75694 0.933594 3.54753
3.76313 0.927998 2.96742
3.68022 1.03425 4.19874
3.78792 1.09644 3.56965
POINT_DATA 400
SCALARS particleColor float 3
LOOKUP_TABLE default
0 0.807814 1
0 0.493521 1
0 0.727506 1
0 0.811877 1
0 0.505359 1
0 0.526586 1
0 0.419417 1
0 0.551504 1
0 0.652024 1
0 0.772281 1
0 0.863118 1
0 0.714192 1
0 0.795031 1
0 0.77695 1
0 0.628347 1
0 0.477614 1
0 0.635749 1
0 0.584195 1
0 0.578638 1
0 0.881375 1
0 0.610326 1
0 0.466689 1
0 0.763011 1
0 0.862665 1
0 0.579266 1
0 0.375809 1
0 0.355355 1
0 0.457258 1
0 0.599611 1
0 0.628367 1
0 0.642317 1
0 0.691438 1
0 0.806803 1
0 0.731437 1
0 0.500014 1
0 0.403825 1
0 0.434794 1
0 0.600565 1
0 0.547829 1
0 0.555692 1
0 0.536015 1
0 0.57605 1
0 0.93389 1
0 0.769034 1
0 0.591049 1
0 0.459145 1
0 0.481931 1
0 0.429112 1
0 0.329507 1
0 0.576738 1
0 0.505005 1
0 0.573719 1
0 0.875585 1
0 0.711033 1
0 0.669369 1
0 0.433334 1
0 0.677552 1
0 0.581152 1
0 0.422678 1
0 0.721367 1
0 0.50665 1
0 0.47954 1
0 0.338123 1
0 0.473072 1
0 0.659936 1
0 0.639543 1
0 0.557164 1
0 0.330106 1
0 0.222951 1
0 0.696933 1
0 0.491724 1
0 0.252148 1
0 0.467469 1
0 0.508281 1
0 0.604372 1
0 0.611365 1
0 0.515458 1
0 0.386302 1
0 0.291894 1
0 0.793521 1
0 0.407865 1
0 0.364965 1
0 0.282216 1
0 0.590845 1
0 0.481267 1
0 0.45463 1
0 0.56201 1
0 0.566852 1
0 0.547004 1
0 0.708027 1
0 0.400372 1
0 0.538636 1
0 0.410593 1
0 0.497305 1
0 0.464695 1
0 0.439151 1
0 0.688721 1
0 0.621029 1
0 0.629344 1
0 0.809806 1
0 0.53974 1
0 0.518515 1
0 0.663529 1
0 0.661508 1
0 0.461632 1
0 0.316706 1
0 0.679239 1
0 0.535089 1
0 0.661677 1
0 0.856731 1
0 0.540486 1
0 0.313572 1
0 0.699961 1
0 0.549685 1
0 0.446421 1
0 0.176002 1
0 0.599717 1
0 0.402096 1
0 0.486247 1
0 0.916142 1
0 0.556028 1
0 0.384473 1
0 0.329322 1
0 0.470972 1
0 0.576544 1
0 0.543598 1
0 0.426964 1
0 0.616757 1
0 0.296801 1
0 0.714045 1
0 0.539396 1
0 0.394846 1
0 0.448288 1
0 0.360487 1
0 0.547219 1
0 0.520163 1
0 0.66729 1
0 0.394228 1
0 0.32793 1
0 0.706684 1
0 0.497372 1
0 0.382226 1
0 0.351556 1
0 0.651329 1
0 0.560664 1
0 0.617584 1
0 0.613964 1
0 0.520709 1
0 0.462009 1
0 0.663125 1
0 0.459809 1
0 0.391452 1
0 0.45114 1
0 0.546351 1
0 0.546148 1
0 0.544042 1
0 0.733621 1
0 0.468609 1
0 0.394329 1
0 0.729067 1
0 0.700812 1
0 0.596992 1
0 0.68909 1
0 0.910541 1
0 0.411003 1
0 0.323817 1
0 0.609793 1
0 0.562315 1
0 0.48423 1
0 0.717042 1
0 0.65374 1
0 0.590052 1
0 0.889451 1
0 0.726705 1
0 0.498863 1
0 0.347854 1
0 0.63666 1
0 0.338749 1
0 0.510966 1
0 0.771626 1
0 0.751294 1
0 0.765245 1
0 0.740957 1
0 0.906434 1
0 0.550732 1
0 0.535109 1
0 0.555456 1
0 0.395461 1
0 0.601139 1
0 0.622812 1
0 0.700711 1
0 0.800875 1
0 0.67696 1
0 0.806738 1
0 0.569272 1
0 0.5173 1
0 0.74922 1
0 0.587086 1
0 0.590482 1
0 0.729467 1
0 0.75306 1
0 0.595015 1
0 0.592583 1
0 0.775768 1
0 0.385558 1
0 0.354868 1
0 0.410056 1
0 0.400363 1
0 0.542232 1
0 0.73253 1
0 0.84184 1
0 0.590044 1
0 0.799222 1
0 0.699669 1
0 0.458899 1
0 0.313015 1
0 0.522998 1
0 0.583748 1
0 0.579436 1
0 0.847188 1
0 0.505482 1
0 0.338635 1
0 0.628729 1
0 0.890079 1
0 0.445274 1
0 0.335922 1
0 0.306838 1
0 0.321905 1
0 0.229749 1
0 0.45651 1
0 0.467761 1
0 0.427803 1
0 0.819191 1
0 0.641632 1
0 0.370425 1
0 0.170953 1
0 0.349882 1
0 0.540895 1
0 0.508986 1
0 0.612739 1
0 0.438019 1
0 0.475945 1
0 0.868757 1
0 0.638878 1
0 0.528966 1
0 0.396699 1
0 0.552354 1
0 0.524064 1
0 0.539489 1
0 0.553347 1
0 0.410729 1
0 0.524613 1
0 0.827827 1
0 0.692668 1
0 0.648974 1
0 0.394966 1
0 0.554184 1
0 0.572777 1
0 0.468525 1
0 0.706444 1
0 0.461395 1
0 0.153823 1
0 0.133461 1
0 0.641425 1
0 0.601598 1
0 0.600917 1
0 0.743898 1
0 0.452623 1
0 0.0867829 1
0 0.625646 1
0 0.461206 1
0 0.100735 1
0 0.354735 1
0 0.610899 1
0 0.533333 1
0 0.562832 1
0 0.585555 1
0 0.470619 1
0 0.24942 1
0 0.752494 1
0 0.310663 1
0 0.241827 1
0 0.175726 1
0 0.706619 1
0 0.416494 1
0 0.465641 1
0 0.582302 1
0 0.567156 1
0 0.486951 1
0 0.661063 1
0 0.321754 1
0 0.43195 1
0 0.332258 1
0 0.574649 1
0 0.370766 1
0 0.415533 1
0 0.695307 1
0 0.625133 1
0 0.388065 1
0 0.787316 1
0 0.504815 1
0 0.344781 1
0 0.619968 1
0 0.62469 1
0 0.376217 1
0 0.37066 1
0 0.706573 1
0 0.47163 1
0 0.354575 1
0 0.849852 1
0 0.470285 1
0 0.20708 1
0 0.616906 1
0 0.469351 1
0 0.33231 1
0 0.366151 1
0 0.803874 1
0 0.522699 1
0 0.430055 1
0 0.933254 1
0 0.470859 1
0 0.265903 1
0 0.281811 1
0 0.462105 1
0 0.466844 1
0 0.53758 1
0 0.472055 1
0 0.48393 1
0 0.263954 1
0 0.625542 1
0 0.470374 1
0 0.386602 1
0 0.428989 1
0 0.380169 1
0 0.533416 1
0 0.469552 1
0 0.638111 1
0 0.511031 1
0 0.158436 1
0 0.744581 1
0 0.413512 1
0 0.542636 1
0 0.329154 1
0 0.627916 1
0 0.453599 1
0 0.547477 1
0 0.606261 1
0 0.474586 1
0 0.402873 1
0 0.555235 1
0 0.347426 1
0 0.549194 1
0 0.450488 1
0 0.529521 1
0 0.492534 1
0 0.48322 1
0 0.749595 1
0 0.465614 1
0 0.439086 1
0 0.66545 1
0 0.556266 1
0 0.371629 1
0 0.618387 1
0 0.803343 1
0 0.303944 1
0 0.249712 1
0 0.557686 1
0 0.492536 1
0 0.326312 1
0 0.685218 1
0 0.5815 1
0 0.502449 1
0 0.86896 1
0 0.646693 1
0 0.428081 1
0 0.213763 1
0 0.525517 1
0 0.260674 1
0 0.291435 1
0 0.650396 1
0 0.558238 1
0 0.7598 1
0 0.562009 1
0 0.845695 1
0 0.482749 1
0 0.390052 1
0 0.476888 1
0 0.342879 1
0 0.485887 1
0 0.559243 1
0 0.775604 1
0 0.768392 1
0 0.763883 1
0 0.746349 1
0 0.419938 1
0 0.370238 1
0 0.662283 1
0 0.519721 1
0 0.51604 1
0 0.627921 1
