# vtk DataFile Version 3.0
Particle simulation
ASCII
DATASET POLYDATA
POINTS 400 float
9.44542 1.41877 9.71035
0.369125 8.54399 6.65451
0.940203 0.750486 5.76142
2.32114 0.478346 1.82239
9.06623 1.11986 2.97056
7.83865 6.82983 5.44448
9.98772 0.242248 1.38587
7.61936 3.86315 0.952678
7.87071 8.27347 6.67773
4.70886 0.635922 6.10216
8.76421 3.81058 1.94347
5.63651 0.623925 2.7526
9.89394 5.03278 9.79227
7.84387 0.558913 1.55024
4.57516 2.36309 0.805168
8.55966 5.41691 8.82591
0.933048 6.27315 0.140421
3.05642 0.328361 1.32988
1.24358 2.94062 0.55913
1.72477 1.66245 6.08112
2.55497 0.296998 1.90913
9.53087 0.873155 6.56823
9.58061 2.35327 9.77748
2.70889 1.2192 1.87063
5.60701 5.67292 3.54319
3.679 0.126621 1.03775
5.10866 7.56892 6.18604
1.33974 0.106997 1.47257
8.13316 0.892303 7.20308
5.5715 1.22661 0.396066
7.14446 8.18918 8.24032
5.63618 3.66196 9.44507
9.03113 0.411445 7.93977
4.62651 0.643648 0.0962538
5.41666 1.12699 1.724
1.42223 2.71908 0.89603
1.47555 9.77171 2.9303
3.50855 0.381186 1.75559
5.947 0.450367 1.24276
1.07274 2.21412 3.89903
3.60409 0.161288 4.34482
9.79765 0.0238587 5.85702
8.18045 4.31076 8.82692
0.192531 4.27156 9.23448
7.28163 0.756275 6.74062
6.03743 0.219926 1.70602
4.87745 0.468524 6.16144
3.50218 0.326608 2.64777
6.7021 0.18377 1.88969
6.58488 3.81648 0
0.986475 3.44869 3.01206
7.60019 9.41184 6.16954
9.51292 0.563934 8.00375
4.58401 0.216084 6.37575
9.1389 0.183047 7.86531
6.67862 0.307975 1.98318
7.83877 0.576167 8.37596
0.870614 0.782978 5.7117
6.54012 0.514411 1.65309
8.67438 9.59459 0.200495
9.21013 6.9211 6.18666
6.29525 1.4897 9.31216
1.66032 0.347853 3.66983
4.50546 0.783633 6.42331
5.46816 8.22655 3.92045
2.48626 0.459551 2.14106
5.86316 0.518071 8.18376
1.03547 3.28651 2.79545
6.61401 0.5325 1.85742
4.59433 0.423721 8.6191
7.86518 0.660685 8.56307
3.59634 0.410622 2.16403
7.05686 6.71115 2.46606
4.80681 0.601362 6.26597
8.95874 0.19704 7.54189
7.57126 0.803296 4.4691
6.04947 0.530088 8.15793
5.14231 0.659431 8.78072
7.73423 1.98323 1.11798
0.987517 8.45038 9.79224
3.25801 0.526489 2.02905
3.59554 0.816799 1.89863
4.13201 0.436167 3.05717
2.06489 0.507378 1.70376
5.09717 0.824855 9.70405
5.76201 1.00732 8.92776
6.01457 1.21546 9.50897
6.27748 2.45138 1.56754
8.98165 3.3953 1.58725
8.96646 0.197492 1.7695
3.21446 0.828122 2.16404
3.22069 0.587896 1.97972
1.00115 0.723541 7.47622
2.03133 0.6075 1.77663
5.12634 0.773104 9.60478
5.14368 0.878948 9.10559
6.36901 0.77059 8.41398
0 0.707628 1.19996
8.7475 0.0672897 8.42052
8.97862 0.175491 1.80406
3.70818 1.23853 1.461
4.49654 1.39747 0.58941
0.611063 2.1519 1.32227
9.89948 0.0950751 9.99743
7.23037 6.73876 0.154442
3.40019 0.545401 1.85672
4.62594 0.33798 8.36636
6.82199 0.316627 2.16664
6.31355 0.292709 1.72876
9.30894 0.0550654 1.52345
8.0127 9.01507 9.77378
4.93999 0.268213 6.65655
2.57512 0.451071 2.6773
9.26605 0.317965 2.09341
3.61142 0.478475 1.93926
2.31179 0.294091 3.93286
5.73316 0.583324 8.80345
6.02128 0.153444 2.02491
6.24619 0.236349 1.71868
6.25346 1.07178 4.51329
3.47577 0.416391 1.8807
4.73918 9.08494 0.979942
6.89805 7.77481 8.55263
8.02692 0.578061 3.87579
9.25119 0.807451 7.81093
2.90527 0.845867 2.45241
3.19869 0.239538 1.70831
4.70705 0.57557 6.1504
8.78649 3.17452 4.28035
0.604237 3.25356 7.98552
3.19692 0.672548 2.01578
6.35341 2.64939 1.49874
4.8599 0.199641 8.42478
7.16195 0.784065 6.32947
9.38073 0.0625162 1.21058
2.694 0.111552 1.0423
8.64654 9.41554 2.88934
4.68162 0.692698 6.21413
3.75791 1.93537 8.91415
9.25223 0.316367 8.02164
3.10838 0.537877 1.94034
4.94899 0.226593 8.93877
0.416213 5.00433 1.33237
6.33178 1.01445 4.57355
3.40797 0.239346 1.92957
2.17805 0.214696 1.60718
6.99722 0.837112 6.15662
0.873609 4.37224 0.895597
2.4467 0.731269 1.2774
3.87468 0.246613 0.592098
3.09122 0.534901 1.94649
8.54678 0.752547 6.98757
4.82467 1.66379 0.734824
4.74567 0.4223 8.61894
4.06892 4.26916 0.374322
5.506 0.822304 1.78095
8.54699 0.872232 6.61631
3.7142 0.561886 1.57421
6.97702 0.83645 6.51893
2.00342 0.719605 2.03533
1.2337 2.20907 1.1459
0.873682 0.443654 5.52682
5.5991 0.535576 8.9948
3.64935 0.751596 2.02786
1.01569 3.63834 2.84462
9.3297 0.558064 7.978
5.281 0.748663 8.15142
5.75196 0.574976 8.55898
6.20071 4.45827 5.9109
9.63846 8.93709 7.80852
3.91328 0.753018 1.50001
3.25827 0.186262 2.27975
6.13982 0.955335 3.0332
3.08281 0.20843 1.35396
2.47273 0 1.28451
1.35616 2.5221 0.33755
5.63068 0.44818 8.95557
5.06983 0.647451 8.1327
5.81125 0.78288 8.36546
3.98499 3.33101 9.03498
2.1001 0.514412 1.69608
3.10438 0.304076 2.98392
9.77893 5.3595 7.52339
3.46462 0.0628137 1.96793
5.63253 0.263563 8.55163
3.42857 0.863454 2.0612
2.60743 0.82588 1.31523
1.02522 0.897495 7.41894
7.20932 1.17835 5.96376
2.11974 0.259212 1.39942
2.00489 0.567785 1.73658
2.36048 0.1089 1.30785
5.76993 0.0594046 8.32515
1.90183 3.58148 4.2723
1.91199 6.31979 8.6865
2.5258 0.455125 1.28825
2.04042 0.553713 2.4412
6.93584 5.26922 8.46724
2.42019 0.224041 1.33414
3.74287 0.330028 1.32998
3.42937 0.643699 2.02144
6.32184 0.390961 1.89903
6.73125 0.689534 6.52748
4.9149 0.135419 8.34242
8.04538 4.33009 3.27886
5.78938 0.943237 8.87022
3.39541 0.490576 2.21769
0.671313 0.587325 5.58922
0.8209 0.610467 5.48823
9.14147 0.264785 2.06087
2.38301 0.441935 1.79196
5.76899 0.484172 1.93834
5.71226 0.0759133 9.18881
8.93381 0.321203 8.06039
4.02649 1.02214 6.53321
5.86984 0.717216 8.8905
3.43096 0.463469 2.25168
3.98122 0.683025 1.71025
3.06436 0.379276 1.32532
9.1401 0.202538 1.65489
6.43158 0 8.40815
5.05344 0.315431 8.72623
4.72498 0.511656 8.54144
3.6073 0.631474 1.59793
5.59235 0.470711 8.74133
3.18459 0.522469 1.56621
1.7436 2.62452 0.733778
2.35192 0.311355 1.41906
1.99113 0.275152 1.55016
6.63484 0.557026 8.04222
4.67427 0.323187 5.4512
6.23509 0.663112 8.30241
6.95672 0.863398 6.36024
3.29577 0.367883 1.56494
6.45384 0.557076 8.04387
3.64016 1.14301 1.30331
6.70758 0.33706 7.42312
2.52834 0.488326 1.78377
2.72123 0.420701 1.55889
0.867251 0.530649 5.68523
2.13041 0.238742 2.76139
3.99254 0.934203 1.9181
3.54209 0.728925 2.0137
2.07225 0.695338 2.18192
6.4379 0.448786 8.46649
3.49373 0.11494 2.7829
1.52281 1.03759 2.39095
4.0722 0.128977 8.13854
6.75384 0.352556 1.93186
5.38439 0.364124 8.83768
3.3815 0.574374 1.82181
3.85121 0.181202 0.49843
5.51251 0.463235 8.53536
2.72698 0 1.54171
7.18721 0.982904 6.12174
3.29408 0.555097 1.59767
9.40374 0.260487 1.62142
4.73551 0.281916 8.38254
6.00385 0.162762 1.97657
5.43216 0.31352 8.80041
2.18691 0.623994 1.65892
2.80731 8.17218 5.75401
5.30201 0.369782 8.30116
6.76919 2.09259 1.36608
6.1393 0.498817 8.60426
0 4.4536 9.0135
4.34708 0.205289 1.18738
5.49677 0.613474 8.44205
7.21957 0.8083 6.38274
3.49789 0.409855 2.10255
3.26122 0.571056 2.23031
2.9338 1.05458 3.3997
5.3528 1.13211 1.88709
4.25445 0.818216 1.78841
5.1661 0.529093 8.46846
4.78985 0.471113 8.05497
4.59577 0.781146 6.21276
4.68859 9.08739 6.94523
7.27345 0.355623 7.36847
2.04045 0.517249 1.78778
9.02032 0.362507 2.01553
5.84234 0.183285 1.90291
6.95676 2.36217 1.00425
4.94107 0.444084 6.05556
6.03591 1.13817 4.43856
7.29567 0.656246 6.16132
3.4684 0.380966 1.78677
2.65167 0.952253 2.01923
8.88882 0.144129 7.9518
9.25613 6.79045 3.3175
8.02964 0.063526 1.5671
6.70472 0.371994 1.64464
1.78022 0.516383 1.62232
4.53079 0.66302 6.21482
5.27163 0.758982 8.91675
5.72738 0.192615 8.70948
3.07689 1.00741 2.24932
3.55503 0.958039 1.70958
4.41354 0.487515 0.939993
3.68754 0.639747 1.46249
8.95403 0.351918 2.10869
9.04901 0.249822 8.00326
1.97157 0.383745 3.99896
6.41494 0.440381 1.68208
3.7474 0.390268 1.3205
1.31109 0.60279 2.0513
1.75439 1.14277 1.41294
2.23013 0.432992 1.62442
2.14059 0.0778601 3.75421
2.71695 0.23423 1.56113
6.39451 0.495931 7.35009
8.45028 0.862564 7.00398
7.27768 0.861867 6.56586
2.04943 0.838983 2.2866
3.39082 0.995022 2.55744
5.66139 0.917794 9.35128
2.03019 0.830351 1.10988
5.36787 0.332591 1.4991
6.20616 0.473445 1.55146
3.89743 0.543897 2.1311
5.53688 0.0741153 8.37878
3.55626 0.486082 2.26507
5.82155 0.328544 8.60473
2.21298 0.218331 1.20422
9.23452 0.116816 2.06038
8.9249 0.202698 1.74453
2.10392 0.538271 2.2117
5.80162 0.424165 2.09482
9.3074 0.127592 1.82679
2.02252 0.568258 2.15281
5.6292 0.301287 8.27944
3.50101 0.361904 2.1872
5.45002 0.566317 8.34047
3.52881 0.763353 1.79568
8.89884 0.304892 1.91027
4.31982 0.271708 8.03648
5.53684 1.16723 1.75586
2.14943 0.170131 1.50157
8.36766 0.382728 2.54379
3.9357 0.8186 2.22977
5.99102 0.803311 8.99142
3.9449 0.244478 1.74354
5.5741 0.222075 8.72888
4.64875 0.598899 8.44058
3.34635 0.615424 1.77177
3.41237 0.506083 1.67953
6.57914 0.257867 1.86307
2.21452 0.377129 1.5921
3.40041 0.452406 1.79193
3.02999 0.722853 2.50118
3.46277 0.759174 2.15567
3.80455 0.489181 2.24897
5.85415 0.271758 8.241
4.62407 0.567447 8.36851
2.29067 0.47648 1.37616
2.04508 0.431275 1.79183
5.94728 0.264525 1.89648
4.79628 0.572834 9.37148
3.34802 0.721756 2.21393
3.50756 0.563507 2.02388
6.19477 0.339413 1.56563
6.00174 0.546888 8.26149
5.39664 0.590961 8.53088
2.1716 0.383709 1.1697
2.46707 0.366818 1.66158
7.04226 0.905783 6.37581
5.62051 0.505022 8.92407
4.62759 0.614614 9.05744
5.56951 0.134844 8.88401
1.62843 0.734218 2.09288
6.16397 0.423583 1.58351
8.58398 0.84529 7.03756
5.7491 0.498363 8.51809
1.95664 0.557089 2.32282
2.90516 0.718275 2.03119
7.03968 0.929475 6.47103
5.2655 0.707244 8.84823
5.8065 0.341628 8.59088
5.94225 0.948506 9.01803
3.33489 0.278551 1.77584
2.32893 0.155999 1.10632
1.96987 0.436044 1.80331
5.54899 0.75264 8.98172
3.59034 0.25492 1.68089
4.74285 0.7972 6.3042
5.93431 0.867357 8.70296
3.44332 0.427045 2.06169
3.84836 0.646474 1.8552
4.62038 0.347316 5.47727
5.77889 0.406084 2.16467
2.37601 0.178674 1.16032
2.10242 0.453378 1.72613
5.89032 0.393495 8.37617
3.0903 0.156216 1.84696
4.73865 0.83157 6.40121
6.29318 0.462495 8.64434
3.50941 0.419012 2.17231
3.79102 0.866855 2.17896
8.46024 0.244694 2.24567
5.76287 0.432869 2.16111
POINT_DATA 400
SCALARS particleColor float 3
LOOKUP_TABLE default
0 0.366491 1
1 5.96046e-08 0
0 0.611663 1
0 0.538315 1
0 0.159896 1
1 0.808089 0
0.428176 1 0.571824
0 0.676924 1
0.21624 1 0.78376
0 0.713682 1
0.342413 1 0.657587
0 0.805069 1
0.0522256 1 0.947774
0 0.850202 1
0 0.608292 1
0 0.632239 1
0 0.259926 1
0 0.329822 1
0.365943 1 0.634057
0.509359 1 0.490641
0 0.471595 1
0.248884 1 0.751116
0 0.996208 1
0 0.942234 1
1 0.615993 0
0 0.359176 1
0.906848 1 0.0931516
0 0.420565 1
0 0.764931 1
0 0.90224 1
0 0.559315 1
0.593916 1 0.406084
0 0.89409 1
0 0.437692 1
0.631816 1 0.368184
0 0.351481 1
1 0.448921 0
0 0.168556 1
0 0.417354 1
0 0.407888 1
0 0.76451 1
0.0480812 1 0.951919
0 0.62041 1
0 0.587293 1
0 0.585274 1
0 0.662043 1
0 0.832916 1
0 0.513299 1
0 0.470094 1
0.98299 1 0.0170105
0 0.542758 1
0 0.207269 1
0 0.79091 1
0 0.875085 1
0 0.528822 1
0 0.385203 1
0.145536 1 0.854464
0 0.925825 1
0 0.682739 1
0.571401 1 0.428599
1 5.96046e-08 0
0 0.571763 1
0 0.738393 1
0 0.641938 1
0.0734041 1 0.926596
0 0.954398 1
0 0.948235 1
0 0.887101 1
0 0.449724 1
0 0.653258 1
0 0.970027 1
0 0.78635 1
1 5.96046e-08 0
0 0.533115 1
0 0.777822 1
0 0.395987 1
0 0.672189 1
0 0.487145 1
0 0.711176 1
0.29607 1 0.70393
0 0.673642 1
0 0.705282 1
0 0.620614 1
0 0.501529 1
0 0.575912 1
0 0.337161 1
0 0.81029 1
0.0391383 1 0.960862
0 0.433651 1
0 0.616072 1
0 0.613876 1
0 0.888879 1
0 0.462228 1
0 0.553906 1
0 0.556464 1
0 0.317414 1
0 0.203869 1
0.0127118 1 0.987288
0 0.781738 1
0 0.596561 1
0 0.327924 1
0.204902 1 0.795098
0 0.523123 1
0 0.39655 1
0.504135 1 0.495865
0 0.215805 1
0 0.523258 1
0 0.592401 1
0 0.405039 1
0 0.481208 1
0.957707 1 0.0422935
0 0.398446 1
0 0.431587 1
0 0.839469 1
0 0.581303 1
0 0.746009 1
0 0.409203 1
0 0.895832 1
0 0.477667 1
0 0.991085 1
0 0.719084 1
1 0.250698 0
0.361709 1 0.638291
0.0608696 1 0.93913
0 0.917322 1
0 0.446492 1
0 0.875888 1
0.0494026 1 0.950597
0.995501 1 0.00449872
0.279891 1 0.720109
0 0.857821 1
0 0.850387 1
0 0.608008 1
0 0.19979 1
0.439576 1 0.560424
0 0.261719 1
0.349656 1 0.650344
0 0.770907 1
0 0.682301 1
0 0.928875 1
0 0.632958 1
0 0.994852 1
1 5.96046e-08 0
0 0.877015 1
0 0.685981 1
0 0.69127 1
0 0.42944 1
0 0.442204 1
0 0.487539 1
0.66559 1 0.33441
0 0.580472 1
0 0.355865 1
0.0281227 1 0.971877
0 0.150488 1
0 0.112532 1
0 0.734226 1
0 0.767471 1
0 0.570859 1
0 0.857359 1
0 0.420401 1
0.0321436 1 0.967856
0.21069 1 0.78931
0 0.760493 1
0 0.701369 1
0 0.379406 1
0 0.676228 1
0 0.341857 1
0 0.754436 1
0 0.350442 1
1 5.96046e-08 0
0 0.365846 1
0 0.981609 1
0.54287 1 0.45713
0 0.736844 1
0 0.835632 1
0.0492299 1 0.95077
0 0.453772 1
0 0.437062 1
0.0306502 1 0.96935
0 0.771323 1
0 0.536621 1
0 0.377279 1
0 0.588143 1
0.0832398 1 0.91676
0 0.886067 1
0 0.6202 1
0 0.468282 1
0 0.945618 1
0 0.656831 1
0 0.60709 1
0 0.414502 1
0 0.25409 1
0 0.815607 1
0 0.331638 1
0.667145 1 0.332855
0 0.463553 1
0 0.302106 1
0 0.428217 1
0 0.426485 1
0 0.933452 1
0 0.554143 1
0 0.568189 1
0 0.433822 1
0 0.459873 1
0.604214 1 0.395786
0 0.76288 1
0 0.675245 1
0 0.62769 1
0.0884091 1 0.911591
0 0.726097 1
0 0.226493 1
0 0.347842 1
0 0.710426 1
0 0.195972 1
0 0.387958 1
0 0.389235 1
0 0.731432 1
0 0.571983 1
0.243697 1 0.756303
0 0.871247 1
1 5.96046e-08 0
0.166872 1 0.833128
0 0.570364 1
0 0.299339 1
0 0.553471 1
0 0.345815 1
0.0822276 1 0.917772
0 0.734442 1
0 0.596198 1
0 0.888485 1
0 0.878497 1
0 0.648197 1
0 0.802779 1
0 0.414 1
0 0.583979 1
0 0.87711 1
0 0.905305 1
0 0.469561 1
0 0.458293 1
0.41478 1 0.58522
0 0.382508 1
0 0.83674 1
0 0.937955 1
0 0.833657 1
0 0.61813 1
0 0.831161 1
0 0.904553 1
0 0.806738 1
0 0.762183 1
0 0.170156 1
0 0.811733 1
0 0.570145 1
0 0.47014 1
0 0.680168 1
0.176094 1 0.823906
0 0.584851 1
0 0.99946 1
0.202474 1 0.797526
0 0.278168 1
0 0.182048 1
0 0.348152 1
0.0308823 1 0.969118
0.0336241 1 0.966376
0.134615 1 0.865385
0 0.424279 1
0.301281 1 0.698719
0 0.565354 1
0 0.732632 1
0 0.851469 1
0 0.430401 1
0 0.246162 1
0.638936 1 0.361064
0 0.863283 1
0.185349 1 0.814651
0 0.225722 1
0 0.685249 1
0 0.598508 1
0 0.267288 1
0 0.714456 1
0 0.549298 1
0 0.651959 1
0 0.620543 1
0.160219 1 0.839781
0 0.992526 1
0.428796 1 0.571204
0 0.834404 1
0 0.5675 1
0 0.60203 1
0.0484419 1 0.951558
0.385323 1 0.614677
0.346006 1 0.653994
0 0.253441 1
0 0.563682 1
0 0.353021 1
0 0.162105 1
0 0.956668 1
0 0.908448 1
0 0.381271 1
0 0.380963 1
0 0.774116 1
0 0.108807 1
0 0.315188 1
0 0.467325 1
0 0.959589 1
0 0.744516 1
0.505756 1 0.494244
0 0.237742 1
0 0.377333 1
0 0.300613 1
0 0.458678 1
0 0.31859 1
0 0.673791 1
0 0.626909 1
0 0.440246 1
0 0.372662 1
0.18262 1 0.81738
0 0.709868 1
0 0.577352 1
0 0.547623 1
0 0.66929 1
0 0.764439 1
0.386884 1 0.613116
0 0.565031 1
0 0.741126 1
0 0.892979 1
0 0.835377 1
0 0.679417 1
0 0.786094 1
0 0.714183 1
0 0.715326 1
0 0.91124 1
0 0.695881 1
0 0.516406 1
0 0.170919 1
0.122992 1 0.877008
0 0.516611 1
0 0.459092 1
0 0.721932 1
0.0205607 1 0.979439
0 0.581583 1
0 0.915167 1
0 0.805229 1
0 0.584032 1
0 0.445009 1
0 0.628305 1
0 0.526031 1
0 0.550016 1
0 0.7082 1
0 0.401972 1
0 0.909111 1
0.510024 1 0.489976
0 0.355103 1
0 0.687869 1
0 0.759787 1
0 0.928124 1
0 0.936063 1
0.0810488 1 0.918951
0 0.272692 1
0 0.823199 1
0.0803729 1 0.919627
0 0.325439 1
0.103498 1 0.896502
0 0.853211 1
0 0.749507 1
0 0.899865 1
0 0.75936 1
0 0.249699 1
0 0.483956 1
0 0.406988 1
0 0.800007 1
0 0.462209 1
0 0.155621 1
0 0.699308 1
0 0.840057 1
0 0.597081 1
0 0.321895 1
0 0.479107 1
0 0.715682 1
0 0.376464 1
0 0.711248 1
0 0.326766 1
0 0.611602 1
0 0.447041 1
0 0.681845 1
0 0.764337 1
0 0.516031 1
0 0.741227 1
0 0.374381 1
0.389696 1 0.610304
0 0.296885 1
0 0.141328 1
0 0.503367 1
0 0.614384 1
0 0.309186 1
0 0.69331 1
0 0.582669 1
0 0.580267 1
0 0.747105 1
0 0.668683 1
0 0.4547 1
