# vtk DataFile Version 3.0
Particle simulation
ASCII
DATASET POLYDATA
POINTS 400 float
2.22622 2.18015 5.43402
8.00775 6.80745 2.02889
9.53491 7.72979 6.00228
7.30344 9.85487 5.70119
7.58557 9.85698 1.0693
7.67025 6.77768 0.806112
8.50705 0.100812 9.44469
5.44876 4.49841 3.75181
1.25888 3.82284 7.2306
1.03696 5.00678 1.46991
9.82343 2.01077 5.80655
6.52177 5.86117 8.9466
4.63108 6.13363 6.58757
4.70485 4.3536 7.26584
5.77418 6.75037 4.05707
5.32199 1.15294 1.07785
4.23287 9.81918 9.86112
3.86162 0.124951 1.25376
1.25706 4.89681 6.69
3.39227 5.48942 0.684128
2.95367 0.371258 1.06156
3.43738 1.55397 6.99145
7.40966 5.58628 5.4754
8.50786 4.21249 4.46053
9.73758 7.58083 3.12144
10 7.75074 2.65265
9.75463 8.11363 5.79755
0.173068 3.67077 9.48241
9.40965 2.09575 8.74178
5.75596 9.00531 7.05924
0.688321 4.1901 8.09416
7.39485 7.23336 1.95786
7.60722 6.59362 3.83476
2.13365 1.48202 8.98086
2.50966 5.60028 0.420629
4.13905 3.11178 0.875491
9.38498 8.61292 1.05282
3.09437 0.282818 0.870163
4.31534 3.42948 2.15011
0.2811 5.23272 7.77381
0.111567 6.80061 0.329821
4.13651 9.23877 7.05976
6.60188 9.64842 3.16208
7.87091 3.02471 1.28056
10 0.90314 1.93372
0 6.09674 3.41136
4.76843 5.03095 9.40467
9.868 1.83165 3.56532
6.28949 0.845429 1.24295
3.85268 3.13833 4.81719
4.32168 0 9.37417
7.13866 7.18516 0.0174933
8.77875 3.81581 8.18533
5.57542 5.32921 1.57462
0.528659 6.65066 0.265018
5.71181 0.503307 2.13011
4.27025 3.56856 5.28221
8.65174 0.890769 1.56329
8.72198 3.98567 4.79829
5.16948 9.59564 3.82638
0.970991 3.6962 9.17618
3.00679 10 3.79033
3.34808 7.63358 0.234814
7.3172 7.43394 1.19849
7.38773 5.7499 4.94116
5.32376 1.72317 2.71852
7.12852 0.868818 4.33518
5.31974 3.23685 1.85699
2.15958 0.852631 6.1597
9.37254 8.97955 1.15432
0 2.42644 0.619021
6.77588 3.49023 1.36571
9.15627 6.03024 9.40377
3.23303 0.885727 2.62271
8.23171 8.06831 10
0.935947 3.05092 7.57675
3.10985 4.08026 2.74987
0.70358 6.66307 4.87707
2.40319 7.17366 3.28249
6.22494 8.09199 4.00473
3.45991 0.259646 1.13653
8.47526 8.58493 7.04784
8.14338 0.636899 8.91684
9.8409 0.610843 10
9.28953 3.81664 6.38321
0.0678985 8.64735 8.94848
5.86012 6.90885 10
3.09455 0.975929 8.43994
8.38277 3.96097 8.28776
1.27036 6.52976 4.59875
3.35863 0.294132 1.21833
6.71203 6.8317 2.85925
9.77444 3.84434 6.50663
3.37789 0.511665 9.70456
8.80452 5.22493 3.06133
9.37055 8.56057 8.02871
2.13434 3.43825 1.57553
8.45918 8.44743 1.17925
4.43492 4.03348 9.32829
5.57514 6.30312 6.44369
2.94807 0.753743 0.434683
7.44131 2.62725 9.4903
4.47678 3.32021 1.61137
0 5.96597 1.72157
8.04651 7.34262 9.70771
0.30678 3.89385 8.99667
0.597242 5.9616 0.789706
8.5577 1.08519 3.2159
9.534 2.36043 6.08267
5.77266 0.842666 9.28407
2.16257 3.65967 6.95832
0.533002 1.29421 9.35275
5.30419 0.622287 9.06804
2.35896 2.29143 1.72049
2.55732 0.546967 2.0257
8.49363 4.75146 7.50581
3.16718 0.559643 9.52913
8.24489 3.40559 4.65604
8.95537 2.13379 9.65371
6.06255 5.6069 6.29288
2.743 0.745616 0.429065
3.2591 3.57543 8.01615
4.70803 10 7.96743
7.73898 2.51603 9.66371
8.49477 2.92963 0.54677
3.14365 0.483928 1.33456
0.693746 7.59336 0.64738
1.70191 1.86704 8.35792
9.66853 2.76197 6.51713
1.49283 4.71695 4.46582
3.67412 7.20454 7.51861
0.778633 3.86341 8.15133
3.13089 5.03704 9.35153
9.76349 2.44938 0.351661
0.270933 0.36624 5.13497
2.53895 1.25373 9.58877
1.74481 1.11818 8.8705
4.84949 0.682802 7.90746
2.87328 5.25613 1.33738
2.06101 3.48763 1.10712
3.05738 0.323749 1.16519
3.93009 3.98327 4.06176
10 4.84185 5.54307
5.75496 6.09576 9.42917
2.51389 0.754239 1.75112
1.94456 3.47263 7.90351
4.07497 0.256756 4.1971
6.60858 2.78298 0.510092
4.82252 2.42937 1.8285
7.22562 1.43169 3.21043
3.08357 0.47149 1.34959
1.2371 1.93285 9.62773
2.02908 2.87798 9.84103
3.08934 0.310338 1.29194
4.74823 4.29824 2.91627
5.78675 0.335766 1.72377
3.45092 7.61205 5.63271
3.11574 8.1574 7.46294
8.12593 7.2649 9.82251
0.250076 2.71314 2.50773
3.91368 0.514263 3.29098
8.35378 3.65011 9.75338
2.54508 3.90894 9.87236
0.751609 2.70468 8.12514
8.08768 1.78078 1.44816
8.03553 7.70255 5.56435
8.4244 6.47974 9.43095
3.95983 5.6112 7.0355
8.99245 6.69746 1.84346
5.07669 0.705435 0.287958
3.18189 0.318179 0.793419
3.55707 8.11923 4.4779
3.75747 0.038244 4.40183
6.31618 1.13888 1.98033
2.7609 0.81301 5.09976
6.26628 9.53221 1.70924
0 0.637497 8.86676
7.57611 0.548456 4.15052
2.47922 2.7322 1.95775
7.87449 3.36773 2.29802
3.44313 0.208636 1.324
6.90526 5.76558 0.611448
8.13175 6.35392 9.97818
4.88059 9.75647 5.91023
6.34245 9.60737 1.0828
6.65378 1.82964 2.70545
3.72372 0.150343 1.31748
1.37252 1.53049 8.89688
5.56082 0.218505 2.13999
2.32331 0.907161 1.8511
3.36843 0.296666 1.47958
3.54639 0.0955712 0.514387
6.71716 7.40894 5.20911
7.99137 1.84384 2.93196
4.07582 9.02094 4.11273
3.08387 0.231108 1.24566
0.94905 1.35612 0.461264
3.18502 0.619273 9.60606
3.54171 0.182787 0.55881
3.37802 0.122732 1.54833
3.43711 0.213016 0.885951
7.61763 0.984348 1.49332
2.99215 4.6047 8.54193
5.58501 0.745198 5.20398
7.78405 6.37474 8.09752
1.11864 2.03903 8.03436
3.2686 0.255717 0.781236
1.94462 0.30928 4.13752
7.35433 0.626805 5.89041
1.80558 2.5206 9.46729
3.30539 0.529068 1.12326
3.76531 0.423846 1.53771
4.08012 10 8.32046
5.79148 2.72711 8.56204
6.62414 2.19904 9.02808
2.85536 0.059405 8.83447
2.93242 0.358748 0.739967
2.70249 0.360578 0.760971
2.71167 5.63938 9.10754
2.72502 0.180177 0.94784
1.3921 3.08196 2.07967
1.47874 6.5299 9.1242
4.20505 2.14941 5.69338
3.22428 0.0437483 0.291089
7.24614 7.11929 4.95951
5.79003 5.80532 7.68902
3.43155 5.73598 9.63999
3.23305 0.465545 0.953469
3.54554 0.572654 1.30304
9.89066 9.69817 5.95376
1.30785 4.33922 7.53682
8.18277 1.2592 9.28151
0.487859 0.0711682 1.14245
3.20723 0.52895 1.47169
3.19412 0.401289 9.34003
3.46118 5.36974 9.52727
8.38694 4.16166 7.35186
0.459704 3.11438 4.5049
3.00245 0.702415 1.56192
6.28034 8.01636 10
3.56744 0.15457 1.23569
3.67943 0.216463 1.51418
3.26341 0.264268 1.19665
3.099 0.558292 0.945441
4.43438 0.156376 8.29084
2.50331 0.163951 8.25876
3.17412 1.07414 5.35951
1.80521 1.20951 2.06216
7.48052 1.95737 9.41274
1.96257 1.05927 3.94613
3.9426 0 1.13044
6.78188 7.57501 2.16872
3.14509 0.404525 8.48244
3.19618 1.0318 8.4795
7.02952 0.931974 0.530136
3.36569 0.23413 1.86778
9.57462 2.65564 1.152
3.0089 0.456636 9.23553
0.662534 6.09866 9.89826
3.11588 0.431227 9.24841
3.43309 0.257109 1.38389
0.947272 2.75276 2.15225
5.60913 1.08249 5.57447
6.77728 2.73804 1.55276
3.40176 0.731803 9.12234
7.95871 7.88871 8.01827
7.59867 0 0.366653
3.29446 0.500086 9.5205
2.74395 3.97382 6.47233
2.86135 0.257794 1.20866
3.82187 0.537593 1.1534
6.62059 7.29605 4.77859
7.45496 4.87551 1.25275
4.09126 7.31394 2.01172
6.68516 2.21722 3.02659
4.14634 2.28675 5.82125
7.23644 5.81305 0.097312
9.4906 8.72119 6.11945
1.58463 8.99801 3.81703
3.23514 0.473619 1.10081
4.33052 0.684178 3.94627
7.13085 0.704383 0.519237
9.96908 2.36192 3.94764
8.27006 1.75554 5.10453
9.56591 9.62237 4.44597
7.11645 8.49623 6.5022
3.5712 0.428346 1.22669
3.67372 0.229556 7.28016
0.838177 3.5953 5.74096
0 10 10
1.2568 5.1982 0.835947
8.02875 2.27659 1.865
3.56056 0.299962 1.63551
0.975684 0.157947 6.55066
4.34498 0.120188 8.06602
3.39504 0.752773 8.89672
3.42202 0.411595 0.957561
3.65429 0.401632 0.810198
4.44467 4.0693 4.8699
2.92582 0.308657 1.27397
9.34446 0.327485 7.9261
5.76527 1.1119 5.08715
9.324 3.1675 9.89028
6.05265 2.25638 0.462933
3.28734 0.23696 1.31805
0.887986 1.07514 6.29707
3.19693 0.299926 0.240691
3.0672 0.10542 1.23945
2.12663 1.01006 1.91937
7.03466 6.01632 0.374219
4.00844 1.5152 9.52702
0.607985 2.02641 1.95264
3.20087 3.88692 6.42841
3.08719 0.563678 1.24726
8.14099 0.915469 8.70663
2.51536 0.461188 5.53452
1.19011 2.47392 6.42711
0.0656709 5.8771 9.86156
8.73474 1.72246 5.58902
4.36014 5.22053 0.850427
3.10213 0.198039 9.02223
0.83407 1.8813 0.497882
3.20995 0.281024 8.3404
3.88379 0.591171 1.37572
4.13952 0.765852 3.89715
3.90416 9.06312 0.26636
3.28366 0.254156 0.491177
6.76901 6.2739 9.27055
9.08348 10 9.66828
3.44058 0.142383 1.50723
9.74857 2.06114 8.54484
2.70237 0.26237 1.16581
4.36403 0.838605 9.34104
3.25575 0.409804 1.52571
6.76171 0.66588 0.524212
4.85668 6.66758 5.28806
0.675366 6.3768 10
3.32693 0.151565 1.20127
8.9845 6.58966 2.18499
7.77704 1.55965 9.2932
0.374766 1.32161 9.24363
8.17022 3.80094 9.32328
4.26138 0.873585 9.23722
3.17279 0.441581 9.32444
3.63918 0.237007 1.13912
3.19451 0.391409 1.67521
7.53827 0.591913 0.448791
3.4778 0.30566 1.31741
3.3808 0.449832 0.646475
7.87347 7.69027 9.94444
2.91049 0.727325 0.445055
3.16488 0.578019 1.17985
4.07907 0.100433 1.11242
3.37553 0.320975 8.82596
3.00877 0.365751 0.855182
3.65296 0.385149 1.0553
4.11231 0.842418 3.37281
4.06119 0.745978 8.76735
2.5204 0.320607 1.68458
3.40108 0.410124 1.67571
6.81996 0.666301 0.509544
3.13428 0.342314 9.19591
3.46423 0.51155 9.11898
3.20593 0.341308 1.51168
3.08824 0.0749072 0.829332
6.94213 1.33193 0.35804
3.17929 0.319756 9.4547
1.53595 3.29624 6.42548
3.24286 0.303165 9.5809
6.69438 0 5.19804
6.87969 0.695182 0.555808
3.78168 6.22394 3.21228
4.21459 0.599525 9.6424
3.28443 0.720097 1.52641
3.72053 0.29079 0.878685
7.26986 0.807115 0.986803
3.30486 0.579939 8.35496
3.50846 0.650766 9.36271
4.0673 0.464344 9.29945
3.45829 0.0591556 1.4348
3.77818 0.251165 1.50524
2.85797 0.262362 1.42301
4.10662 0.48621 9.29683
2.8695 0 1.20204
0.931317 0.888291 6.22813
3.30341 0.511753 9.34582
3.41586 0.344172 0.94363
3.36087 0.332753 1.30934
4.23861 10 4.09282
6.76394 1.17377 0.55901
3.5374 0.0555214 1.59222
3.29314 0.256204 1.37485
3.6319 0.456896 9.27026
3.16716 0.521233 1.28908
0.744299 0.251957 6.11207
3.23816 0.394017 9.41921
3.43771 0.323315 1.01489
2.88723 0.887778 4.86849
7.35748 0.916773 0.327929
6.8653 0.487405 0.546629
POINT_DATA 400
SCALARS particleColor float 3
LOOKUP_TABLE default
0 0.712056 1
1 0.920049 0
0 0.897315 1
1 5.96046e-08 0
1 5.96046e-08 0
0.912575 1 0.0874246
1 0.0347531 0
0.427604 1 0.572396
1 0.449981 0
1 5.96046e-08 0
1 0.162948 0
1 5.96046e-08 0
0.740908 1 0.259092
1 0.397067 0
1 5.96046e-08 0
1 0.747397 0
1 0.265169 0
0 0.416513 1
1 0.230469 0
1 5.96046e-08 0
0 0.526456 1
0 0.872318 1
1 0.595838 0
0.409561 1 0.590439
1 0.783254 0
1 5.96046e-08 0
0.0971779 1 0.902822
1 5.96046e-08 0
0.15766 1 0.84234
1 0.637323 0
0.100664 1 0.899336
0.599677 1 0.400323
1 5.96046e-08 0
1 0.965109 0
0.741072 1 0.258928
1 5.96046e-08 0
1 0.0339357 0
0 0.473075 1
0.27911 1 0.72089
1 0.484129 0
1 5.96046e-08 0
0.770878 1 0.229122
1 0.12435 0
0 0.921455 1
0 0.927509 1
1 5.96046e-08 0
0 0.971245 1
1 0.536995 0
0 0.133604 1
1 5.96046e-08 0
0.363382 1 0.636618
0.527949 1 0.472051
0 0.877811 1
0.993712 1 0.00628793
1 0.543748 0
0 0.570468 1
1 0.785941 0
0.358521 1 0.641479
0.838092 1 0.161908
0.0731155 1 0.926885
1 0.97619 0
1 0.329546 0
1 0.748974 0
1 0.393973 0
0.658531 1 0.341469
1 5.96046e-08 0
0.451571 1 0.548429
1 5.96046e-08 0
0.298229 1 0.701771
0.239473 1 0.760527
1 0.769867 0
1 0.617351 0
1 0.76675 0
0.173212 1 0.826788
0 0.699168 1
0.904648 1 0.0953521
0.060847 1 0.939153
0 0.716595 1
0 0.582854 1
0 0.870702 1
0 0.581408 1
0.0241794 1 0.975821
1 0.57855 0
1 5.96046e-08 0
0.542899 1 0.457101
0 0.763997 1
0.300133 1 0.699867
1 5.96046e-08 0
0.836051 1 0.163949
0 0.718354 1
0 0.684492 1
0.00787197 1 0.992128
0.262888 1 0.737112
0.155003 1 0.844997
1 0.473429 0
0.40177 1 0.59823
1 5.96046e-08 0
1 0.180394 0
0.22314 1 0.77686
1 0.519383 0
0 0.736233 1
0 0.451627 1
0.774152 1 0.225848
0.792515 1 0.207485
0 0.803108 1
0.471065 1 0.528935
0.0769095 1 0.923091
0 0.715561 1
0.381165 1 0.618835
1 0.123876 0
1 5.96046e-08 0
0.723148 1 0.276852
1 0.263265 0
0.536566 1 0.463434
0 0.430771 1
1 5.96046e-08 0
0 0.532645 1
0.838605 1 0.161395
0.253764 1 0.746236
0.886994 1 0.113006
0 0.374305 1
1 5.96046e-08 0
1 0.839007 0
0.189115 1 0.810885
1 0.919244 0
0 0.574663 1
1 0.698663 0
0 0.260336 1
0.250753 1 0.749247
0.0243 1 0.9757
0.369202 1 0.630798
1 0.548929 0
0.793773 1 0.206227
0.465909 1 0.534091
0 0.475116 1
1 5.96046e-08 0
1 5.96046e-08 0
0 0.650844 1
1 5.96046e-08 0
0.414137 1 0.585863
0 0.789419 1
1 5.96046e-08 0
1 5.96046e-08 0
1 0.886081 0
0 0.596522 1
1 0.915762 0
1 5.96046e-08 0
0.695861 1 0.304139
0.68605 1 0.31395
0.458352 1 0.541648
0 0.220518 1
0 0.296381 1
0.641592 1 0.358408
0 0.924909 1
1 5.96046e-08 0
0 0.934415 1
1 0.954662 0
1 0.0727006 0
0 0.842691 1
1 5.96046e-08 0
0 0.809964 1
0 0.364243 1
0.303277 1 0.696723
0.561657 1 0.438343
0.59828 1 0.40172
1 5.96046e-08 0
0.365309 1 0.634691
1 5.96046e-08 0
1 0.83669 0
1 5.96046e-08 0
0 0.585059 1
0.355874 1 0.644126
0 0.661896 1
1 5.96046e-08 0
0 0.408103 1
1 0.844439 0
0 0.639039 1
1 0.654747 0
0.259179 1 0.740821
0 0.859022 1
0 0.62229 1
0.656232 1 0.343768
0.293195 1 0.706805
1 5.96046e-08 0
0 0.654226 1
0.413586 1 0.586414
0 0.797743 1
0.509679 1 0.490321
0 0.358158 1
0 0.540565 1
0 0.465152 1
0 0.290083 1
0 0.840933 1
1 5.96046e-08 0
1 0.690517 0
0 0.769828 1
0 0.98898 1
0 0.636779 1
0 0.186749 1
0 0.449086 1
0 0.626069 1
0 0.767337 1
0.348066 1 0.651934
0 0.638911 1
1 5.96046e-08 0
0 0.887334 1
0 0.783995 1
1 0.501651 0
0.587656 1 0.412344
1 0.923972 0
0 0.669522 1
0 0.636466 1
1 5.96046e-08 0
0.274466 1 0.725534
1 5.96046e-08 0
0 0.394954 1
0 0.695724 1
0 0.460056 1
0.924648 1 0.0753517
0.0696852 1 0.930315
1 5.96046e-08 0
1 0.865365 0
0 0.814254 1
0 0.54116 1
1 0.152332 0
1 5.96046e-08 0
0.252943 1 0.747057
0 0.971771 1
0 0.70163 1
1 5.96046e-08 0
1 0.374528 0
0 0.825277 1
0 0.381924 1
0 0.813127 1
0 0.246149 1
1 0.447581 0
0 0.967068 1
0 0.455772 1
0 0.424838 1
1 5.96046e-08 0
0 0.385694 1
0.143005 1 0.856995
0 0.651486 1
0 0.446835 1
0 0.638458 1
1 5.96046e-08 0
0 0.358339 1
0 0.989231 1
1 5.96046e-08 0
0 0.967474 1
0 0.360331 1
1 0.710842 0
0 0.735391 1
0.794756 1 0.205244
0 0.771194 1
0 0.344969 1
0.118452 1 0.881548
0 0.447552 1
0 0.694234 1
0 0.491191 1
0 0.714161 1
1 0.942596 0
0 0.388643 1
0.464866 1 0.535134
0 0.149771 1
0 0.743923 1
0 0.446348 1
0 0.781609 1
0 0.855913 1
0 0.456515 1
0 0.300601 1
0 0.740707 1
1 5.96046e-08 0
0 0.750941 1
0.859783 1 0.140217
0 0.957947 1
0 0.786136 1
1 0.143478 0
1 5.96046e-08 0
0 0.286331 1
0 0.579478 1
0 0.43466 1
0.311744 1 0.688256
0 0.603184 1
0.158491 1 0.841509
1 5.96046e-08 0
0 0.56467 1
0 0.877645 1
1 5.96046e-08 0
1 5.96046e-08 0
1 5.96046e-08 0
0.538018 1 0.461982
0.450255 1 0.549745
0 0.1727 1
0 0.674795 1
0 0.795013 1
0 0.604813 1
0 0.515984 1
0.691783 1 0.308217
0 0.639433 1
1 0.599584 0
0.602556 1 0.397444
0 0.674164 1
1 0.783542 0
0 0.922296 1
0 0.291762 1
0 0.305955 1
0 0.496843 1
0.300721 1 0.699279
0 0.976645 1
0.487473 1 0.512527
0.993949 1 0.00605112
0.47998 1 0.52002
0 0.29211 1
0 0.396494 1
0 0.669872 1
0 0.883949 1
0 0.633911 1
0.160398 1 0.839602
0.0346233 1 0.965377
0 0.608048 1
1 5.96046e-08 0
0 0.793332 1
0 0.44968 1
0 0.632323 1
0.134203 1 0.865797
0 0.620961 1
1 5.96046e-08 0
0.534402 1 0.465598
0 0.610385 1
1 0.128939 0
0 0.480967 1
0 0.376457 1
0.223623 1 0.776377
0 0.544468 1
1 0.623138 0
0 0.405434 1
0 0.371356 1
1 0.304014 0
1 0.670235 0
0.37462 1 0.62538
0.126122 1 0.873878
0 0.43769 1
0 0.781872 1
0 0.372695 1
0 0.542055 1
0 0.492903 1
0 0.723894 1
0 0.710374 1
0.614664 1 0.385336
0 0.379676 1
0 0.420813 1
1 5.96046e-08 0
0 0.267393 1
0 0.83216 1
0 0.657366 1
0 0.499743 1
0 0.481043 1
0 0.28199 1
0 0.0390534 1
0 0.407208 1
0 0.317373 1
0 0.200912 1
0.203124 1 0.796876
0 0.383598 1
0 0.692404 1
0 0.491294 1
0.833 1 0.167
0.0590366 1 0.940963
1 5.96046e-08 0
0 0.362588 1
1 0.297516 0
0 0.862512 1
0 0.514898 1
0 0.928432 1
0 0.302645 1
0 0.332656 1
0.144221 1 0.855779
0 0.429043 1
0 0.90149 1
0 0.381996 1
0 0.46215 1
0 0.490023 1
0 0.388253 1
0 0.69548 1
0 0.800373 1
0 0.635795 1
0 0.301559 1
0.873003 1 0.126997
0 0.206762 1
0 0.326767 1
0 0.668059 1
0 0.74236 1
0 0.849468 1
0 0.655642 1
0 0.713349 1
0 0.524264 1
0.0275519 1 0.972448
0 0.879127 1
0 0.87627 1
