# vtk DataFile Version 3.0
Particle simulation
ASCII
DATASET POLYDATA
POINTS 400 float
2.59982 1.68236 6.69216
6.67417 2.77736 3.81792
9.09528 8.03045 5.67785
1.52455 9.58572 6.9548
8.20733 9.3344 9.32459
6.34904 4.26528 2.42458
8.7922 1.56934 5.5035
7.56883 4.37807 4.48211
1.4237 3.67323 6.59802
1.33669 8.24686 7.23231
7.40945 6.53129 3.11062
7.04747 8.02049 6.68088
5.36834 3.16164 5.11622
4.71604 0.519651 3.87579
4.10757 4.36903 0
7.37745 3.85549 4.06095
0.698295 5.63262 8.83924
2.99635 0.476699 1.0732
0.720581 9.65665 4.87855
10 5.92376 3.68049
3.37432 0.402668 1.20839
2.2683 1.89454 5.76758
4.96207 6.72085 2.55501
9.10782 4.00229 5.33107
6.02092 8.19212 5.98941
3.94497 1.82286 8.70906
9.47076 8.61885 5.7833
5.74508 0.782158 6.5769
9.18696 2.90655 8.23505
8.16394 9.64173 3.79493
1.09136 0.967907 8.36967
5.04786 9.60454 1.11698
10 3.55819 4.42845
2.18112 3.02173 8.43368
1.66516 8.69803 0.899899
8.76066 6.90973 4.3551
6.90578 6.97557 1.13819
3.27125 0.37019 1.32819
3.01727 1.65888 1.88735
1.44776 1.91063 6.83657
5.02468 5.66723 6.24603
6.02825 8.93268 4.49272
7.38214 8.09077 8.43421
8.8672 1.2828 0.198037
7.8634 0.795256 2.01076
2.01747 9.09092 9.52399
4.81553 3.10396 9.35944
9.45533 3.7755 6.68244
6.50734 0.582805 0.853855
2.46507 2.73336 7.87033
4.99524 3.90034 9.40503
10 7.88305 0.637011
9.18628 4.22818 9.31486
7.61308 2.27253 0
0.7047 8.63473 1.45639
6.0354 0.515058 1.57419
5.22044 2.29803 7.31622
8.641 2.71543 2.88432
8.95609 2.91258 4.92047
3.44483 8.7552 3.98595
0.35015 7.22471 9.10192
6.60629 7.42489 7.39477
5.34145 8.81659 1.51384
4.27278 10 4.79394
5.00748 6.957 2.14679
0.397435 2.398 0.576794
5.65194 0.427069 2.4869
4.80389 2.96523 6.03364
2.69373 2.57065 5.88533
10 9.82848 0.150825
1.6281 4.56609 2.33589
9.77582 4.08467 1.82678
7.10331 8.14163 6.91911
1.27826 2.0262 2.81234
8.29609 10 9.25433
1.73045 3.8741 9.25938
3.83855 4.09088 1.02597
2.51543 6.91562 4.3124
3.4497 7.5457 3.06834
7.01784 7.39137 3.8267
3.21774 0.0765623 1.15021
8.78869 9.9688 7.01861
7.6872 0.49923 6.88688
4.71574 4.67429 4.68052
9.23877 4.25335 4.5692
0.756606 7.32835 9.50394
3.98675 6.13931 7.18536
1.08773 1.19261 3.10293
8.8316 4.0564 8.69643
0.359821 7.39402 4.22778
3.10247 0.502399 1.04685
7.86227 5.53127 3.56985
7.84816 5.04725 5.23367
1.59311 0.225904 9.45278
4.74244 5.30347 1.95768
9.62984 9.69157 6.68079
1.85146 0 1.94769
10 7.21138 1.56583
3.13986 2.70645 8.56702
7.78142 4.37973 9.58415
2.75894 0.226362 0.61869
8.59594 1.5704 9.79593
3.21974 1.34146 1.88061
1.37669 8.4356 4.10184
8.73892 5.77271 9.44191
2.57034 3.06462 8.63005
0.594826 5.30286 0.385333
8.54169 0.430746 3.43399
8.51078 1.17255 3.43111
0.411444 0.15455 9.67876
6.58968 5.93434 5.42228
0.912275 1.91237 7.57987
8.04738 2.54254 6.52567
2.77524 2.51398 1.64364
2.64325 0.67649 2.15753
8.26777 8.66315 8.60287
3.13477 0.11951 9.26686
6.73991 3.00974 1.63584
10 2.22871 7.01377
4.04546 6.96423 9.47449
2.9762 0.134287 0.831231
6.42753 9.36436 0
5.59894 8.27024 7.35799
8.36539 2.00475 9.53372
6.49944 3.72272 5.00786
3.48982 0.0191641 0.977154
0.371451 9.3079 3.73496
0.166665 1.45332 8.28364
9.07275 2.35521 8.84149
1.46031 4.24804 2.43378
2.96586 5.84062 9.74816
0.712973 3.29792 6.1456
3.59393 3.90472 5.83569
9.7781 4.76727 0.333017
0.659899 0.227526 4.95976
0.504656 1.63281 5.36887
8.08816 1.93353 8.74598
4.67476 0.367367 6.84826
3.59584 3.50334 6.49349
2.57182 3.06687 1.25381
3.79125 0.191167 1.17825
1.28749 9.15224 9.15168
6.03693 2.73699 0.126328
7.37914 4.50554 5.09721
2.47383 0.761009 2.15495
5.8457 2.43971 8.22204
5.19349 0.449257 2.69334
3.65925 2.48283 2.26107
7.50821 3.62591 2.11618
5.47837 0.065703 3.16505
3.64544 0.309422 0.990985
1.35491 1.62907 9.04557
1.44802 1.78937 9.1461
2.85805 0.51232 1.475
10 10 6.22151
5.96974 0.589251 1.40072
5.22596 6.50731 9.0885
4.82436 6.03422 8.99188
8.74763 6.00889 9.61604
1.24933 0.311135 0.709586
4.29506 0.515087 2.70917
7.94753 2.65064 10
3.24056 3.36048 9.61574
2.64959 1.2614 6.72017
8.0536 4.61844 0.910438
8.05874 8.11311 5.41028
9.69551 5.42419 8.08094
2.07684 8.34304 0.548507
9.44636 8.33743 1.0168
4.58879 8.37002 9.5829
2.83339 0.338908 0.770945
4.72075 5.74044 4.40229
7.20057 1.21396 2.71574
8.72886 3.19113 8.76708
1.97887 0.718726 5.28015
5.18764 8.41774 1.04234
0.741554 0.770407 8.34796
4.94854 3.10446 2.06578
1.96307 2.32922 0.105654
8.25644 3.98497 1.06974
3.23164 0.41729 0.943914
7.53187 7.94412 2.09249
9.4686 5.40878 8.35568
8.89604 5.67239 0.876773
5.34556 8.28257 0.904554
6.19668 4.27991 4.71181
2.67414 0.359255 0.788726
2.20886 4.084 5.36507
6.09408 0.290751 1.76045
3.33188 0.231228 1.84359
3.44699 0.501953 0.796481
3.21267 0.35657 0.817841
7.18913 7.79212 3.76795
9.26669 6.26791 0
4.24282 5.98198 6.52103
3.70773 0.433749 1.05599
0.191943 1.68739 1.99616
4.0843 0.0186016 8.41842
2.99676 0.431013 1.13007
3.34177 0.236803 0.695877
3.36611 0.486516 1.37491
6.89274 0.814898 0.0349284
2.63539 4.31473 7.46967
4.67285 0.238554 5.87693
8.14153 10 8.07997
1.2435 1.64884 8.2666
3.53873 0.219689 0.866079
3.15255 0.241973 6.69448
9.69619 0.548775 4.65514
1.81938 1.88693 8.72594
3.47675 0.384701 1.21666
3.00962 0.259654 0.612507
5.41372 5.43207 2.90752
8.39211 1.93543 9.71695
2.60528 6.43206 9.5841
4.12208 0.593523 9.09076
3.48189 0.671517 1.24397
3.41106 0.282461 0.798897
3.13019 3.162 5.64129
3.17919 0.750453 0.199108
2.83444 0 10
1.97392 9.46738 6.5375
4.02998 1.5499 5.90269
2.71921 0.589419 1.02935
4.33953 9.81892 2.3943
0 0 7.19918
1.82556 2.77522 6.75845
2.60581 0.429524 0.530555
3.28426 0.678589 1.00547
9.03807 8.20185 1.03841
5.26897 2.47117 6.94651
5.04887 0.16939 10
0.463316 0.577539 0.159302
3.60371 0.420551 0.690858
3.89944 0.259247 9.00582
2.24516 3.95719 7.24464
8.79727 4.36427 9.50774
0.593771 3.17146 4.91876
3.33635 0.107977 0.706172
1.42751 2.75067 3.8344
3.28826 0.397172 1.11407
2.43203 0.633815 0.305514
3.40834 0.319523 1.08897
3.34145 0.241427 1.1671
3.96558 0.235305 8.27142
8.22586 2.56483 8.3742
2.00312 0.757843 5.3101
0.473262 1.16116 2.36855
8.00495 3.26409 5.52612
0.604769 1.66587 4.93359
2.78101 0.339569 1.0794
5.22761 8.35055 0.412019
4.09162 0.481306 7.77424
3.77488 0.0692589 7.07612
7.12908 0.630806 0.0720667
3.43271 0.246189 0.604931
8.40367 2.33928 2.88714
3.93164 0.448261 9.05411
0.575217 5.7905 9.0561
3.94792 0.42721 9.07199
3.08106 0.187303 0.817829
3.40915 5.55216 0.469062
4.77393 0.215847 6.08655
9.60298 3.97792 1.61354
3.47819 0.0964223 9.19077
7.88862 7.23521 7.49466
6.77293 1.1542 0.480484
3.71812 0.417919 8.67533
3.66157 2.93986 4.69144
3.66007 0.205745 1.03283
3.0618 0.220864 1.13681
7.01015 8.15963 3.85722
3.408 6.54634 10
3.61507 5.89686 2.40567
6.95689 3.69016 4.83335
3.82749 1.83225 5.90477
5.82546 5.4533 0.373193
9.06439 3.60678 8.2916
0.252546 3.4641 6.30739
3.48886 0.101016 1.21679
5.0364 0.592568 2.78658
7.11604 0.887343 0.460732
9.4212 3.59139 7.24627
9.86148 1.972 4.5804
8.97333 7.67289 2.16768
8.27645 2.27382 3.98684
3.18666 0.0197972 1.04333
3.4823 0.491654 9.23504
0 6.53236 5.62283
3.9146 0.172049 1.71891
10 0 6.26874
8.98018 1.80128 0.790039
2.57463 0.700755 0.168775
0.0390517 0.391112 6.49405
4.45618 0.293522 8.15829
3.61347 0.0504251 8.55149
3.35087 0.2361 1.36682
3.21705 0.376434 1.46728
7.30706 4.22534 5.13185
3.6829 0.264847 1.10793
4.78496 0.21215 10
4.88616 0.257204 5.71714
9.30272 2.93091 8.0573
8.77581 0.54811 1.13204
3.35393 0.173834 1.03703
0.735666 0.296324 6.8508
3.44443 0.335154 1.60966
3.58434 0.172991 0.965871
0.278977 1.48174 2.62146
5.80962 5.4791 0.326505
1.4252 0.0110095 9.69051
1.34566 0.952497 2.78353
3.90934 2.91151 4.67953
3.60588 0.124885 0.998215
8.41028 0.894955 8.71327
1.54359 0.269679 6.10739
2.63712 3.14043 8.56107
0.571795 6.3632 8.70218
10 1.8863 4.75508
5.48549 4.75817 0.349348
3.86354 0.550084 9.29599
1.27038 1.31063 2.89869
3.69872 0.168442 8.80148
2.86385 0.604899 0.897722
4.94283 0.613464 2.74259
3.96448 6.73386 0.367173
3.38767 0.648857 1.32886
2.0452 2.67715 6.40568
8.25418 9.31255 6.93196
3.08718 0.251679 0.698922
9.54692 3.22317 5.94717
3.80221 0.364263 1.05613
3.46028 0.231057 8.91638
3.43379 0.0710613 0.460747
7.40755 0.743707 0.283322
5.97399 4.82899 1.41192
0.717637 6.01158 8.98618
3.35825 0.192466 1.0594
7.68131 4.56468 6.00075
6.4414 0.609272 8.89078
1.31893 1.98256 8.15293
7.71343 2.69873 9.49471
3.56824 0.326075 8.84043
4.02166 0.437979 9.14697
3.15853 0.268888 1.18188
3.48662 0.106132 0.579273
6.87648 0.661893 0.44989
3.13291 0.23066 0.910075
3.29759 0.0826099 1.538
8.57331 6.0185 9.37197
3.49027 0.134803 1.55348
3.57804 0.211148 1.09706
5.50765 0.977087 7.4999
3.66174 0.381198 9.39818
3.51893 0.0575626 1.25918
2.97119 0.239866 1.16789
4.29057 0.822592 2.61442
3.60471 0.378827 9.56002
3.89086 0.194049 0.673678
3.3604 0.232083 0.5613
7.08856 0.936915 0.391815
4.1264 0.339949 8.96031
3.67422 0.00782482 9.04823
3.49281 0.40352 0.551173
3.38527 0.57737 1.29914
6.87224 0.254335 0.29085
3.89199 0.13691 8.96743
0.879185 0.896456 8.56
4.19803 0.352607 8.69407
5.77598 5.0043 2.08276
7.14286 0.984358 0.369359
0.50699 2.91109 4.96689
3.45767 0.221555 8.57462
3.27125 0.358407 0.666822
2.97837 0.552068 1.36605
6.93018 0.731677 0.0961281
3.93453 0.225217 8.77906
3.75869 0.159616 8.29616
3.73808 0.335512 9.09228
3.10547 0.599783 0.802743
2.8789 0.233527 0.660711
3.78344 0.284319 0.764104
3.88642 0.289991 9.07985
3.70119 0.489092 0.968481
0.721252 0.310188 7.01092
3.75793 0.290952 8.99763
3.41617 0.314421 1.26354
3.38534 0.253446 0.955942
4.40004 6.61883 6.4688
7.34681 0.379286 0.188403
3.10521 0.377045 0.69773
3.285 0.359355 0.853302
3.83838 0.418678 8.87715
3.42209 0.116721 0.908219
0.824706 0.915258 6.70605
3.79555 0.426749 8.54629
3.40556 0.351815 1.28274
2.27675 0.950212 4.96075
6.58073 0.581646 0.988283
7.27342 0.638219 0.361773
POINT_DATA 400
SCALARS particleColor float 3
LOOKUP_TABLE default
0.187715 1 0.812285
1 0.746495 0
0 0.404125 1
1 5.96046e-08 0
1 5.96046e-08 0
0.483542 1 0.516458
1 0.735948 0
1 0.853213 0
0 0.754539 1
1 5.96046e-08 0
1 0.0202022 0
0.857885 1 0.142115
0.537647 1 0.462353
1 0.974016 0
1 5.96046e-08 0
1 0.0895463 0
1 0.131387 0
0 0.240613 1
1 0.749844 0
0.972296 1 0.0277035
0 0.83107 1
0.326448 1 0.673552
1 0.841928 0
0.0543995 1 0.9456
1 0.0368382 0
1 5.96046e-08 0
0 0.704204 1
1 0.142683 0
0 0.889448 1
1 0.896775 0
1 0.594608 0
0.329506 1 0.670494
1 5.96046e-08 0
1 0.00458419 0
0.502653 1 0.497347
1 5.96046e-08 0
0.0976767 1 0.902323
0 0.727773 1
0.261437 1 0.738563
0.655704 1 0.344296
1 5.96046e-08 0
0.589552 1 0.410448
1 0.103067 0
0 0.898658 1
0.0903419 1 0.909658
1 5.96046e-08 0
0 0.469743 1
0.528992 1 0.471008
0 0.846102 1
1 0.713735 0
0.85129 1 0.14871
0.49682 1 0.50318
0.56845 1 0.43155
1 0.953106 0
1 5.96046e-08 0
0 0.614542 1
0 0.343235 1
1 0.280678 0
0.390086 1 0.609914
0.361967 1 0.638033
1 0.81577 0
1 5.96046e-08 0
1 0.0168673 0
1 0.443434 0
0.93008 1 0.0699204
1 5.96046e-08 0
0 0.691242 1
1 5.96046e-08 0
1 0.346748 0
0.656017 1 0.343983
0.572837 1 0.427163
0.406093 1 0.593907
0.689877 1 0.310123
0.14125 1 0.85875
0 0.677325 1
0.411853 1 0.588147
0 0.93777 1
0.15197 1 0.84803
0 0.55976 1
0.0575579 1 0.942442
0 0.255468 1
1 5.96046e-08 0
1 0.0529295 0
1 5.96046e-08 0
0.663639 1 0.336361
0.0541748 1 0.945825
0.976677 1 0.0233233
1 5.96046e-08 0
0.863465 1 0.136535
0.030654 1 0.969346
0 0.668249 1
0 0.698072 1
0.970553 1 0.0294474
0.235511 1 0.764489
1 0.864773 0
0 0.510226 1
1 5.96046e-08 0
0 0.841507 1
0.677406 1 0.322594
1 5.96046e-08 0
0 0.579118 1
0 0.243935 1
0.476445 1 0.523555
0.87248 1 0.12752
0.30448 1 0.69552
0.549789 1 0.450211
0.352998 1 0.647002
0.254527 1 0.745473
0.554668 1 0.445332
1 0.352528 0
1 5.96046e-08 0
1 0.669986 0
1 0.409041 0
0.303188 1 0.696812
0 0.36892 1
0.852021 1 0.147979
0 0.363402 1
0 0.670862 1
0.552521 1 0.447479
0.830274 1 0.169726
0 0.652739 1
1 5.96046e-08 0
0.403857 1 0.596143
0 0.975939 1
1 0.320075 0
0 0.284758 1
1 0.346686 0
0 0.237906 1
0 0.749747 1
0.410163 1 0.589837
0.00400191 1 0.995998
1 5.96046e-08 0
0.766969 1 0.233031
0.116452 1 0.883548
0 0.391669 1
1 5.96046e-08 0
1 5.96046e-08 0
0 0.575785 1
1 5.96046e-08 0
0.522765 1 0.477235
0 0.566191 1
1 5.96046e-08 0
0 0.697092 1
1 5.96046e-08 0
0 0.483564 1
0.813323 1 0.186677
0 0.974248 1
1 0.825351 0
0.77094 1 0.22906
0.484876 1 0.515124
0 0.2793 1
0.0453161 1 0.954684
0 0.499901 1
0 0.719925 1
1 5.96046e-08 0
0 0.905697 1
1 0.886592 0
1 5.96046e-08 0
0.644958 1 0.355042
1 5.96046e-08 0
0 0.621962 1
0 0.288753 1
1 0.704533 0
0.793347 1 0.206653
0.311968 1 0.688032
1 5.96046e-08 0
1 0.437298 0
1 5.96046e-08 0
1 5.96046e-08 0
1 5.96046e-08 0
0 0.448081 1
0.146619 1 0.853381
1 0.737014 0
1 5.96046e-08 0
0 0.747515 1
0.909288 1 0.0907125
0.447094 1 0.552906
1 0.454218 0
0.838802 1 0.161198
0.404421 1 0.595579
0 0.651793 1
1 0.838161 0
0.191573 1 0.808427
1 5.96046e-08 0
1 0.0906659 0
0 0.981204 1
0 0.495379 1
1 0.61541 0
0 0.277388 1
0 0.789488 1
0 0.237846 1
0 0.756433 1
0 0.724896 1
1 5.96046e-08 0
1 0.045266 0
0 0.732054 1
0 0.707527 1
0.0694264 1 0.930574
0 0.54275 1
0 0.756171 1
0 0.537527 1
0 0.399354 1
0.645032 1 0.354968
0 0.518765 1
1 5.96046e-08 0
0 0.531074 1
0 0.887789 1
1 5.96046e-08 0
0.200788 1 0.799212
1 0.342855 0
0 0.738635 1
0 0.773736 1
1 5.96046e-08 0
0.928689 1 0.071311
1 0.530135 0
0 0.624163 1
0 0.456395 1
0 0.836588 1
1 5.96046e-08 0
0 0.557202 1
1 5.96046e-08 0
0.595236 1 0.404764
0 0.729056 1
0 0.745662 1
1 0.716269 0
1 5.96046e-08 0
1 5.96046e-08 0
0 0.619006 1
0 0.407096 1
0.739936 1 0.260064
1 5.96046e-08 0
0.877529 1 0.122471
0.194233 1 0.805767
0 0.560516 1
0 0.399223 1
0.455568 1 0.544432
0 0.729429 1
0 0.980368 1
0.118749 1 0.881251
1 5.96046e-08 0
0 0.338907 1
0 0.402963 1
0 0.443347 1
0 0.834575 1
0 0.640483 1
1 5.96046e-08 0
0 0.386816 1
0 0.822717 1
1 5.96046e-08 0
0.121569 1 0.878431
0 0.712577 1
0.627139 1 0.372861
0 0.610307 1
1 0.464014 0
0 0.671613 1
0 0.912942 1
0 0.661285 1
0 0.11585 1
0 0.619776 1
0 0.470313 1
0 0.454859 1
1 5.96046e-08 0
0 0.513336 1
1 5.96046e-08 0
0 0.812536 1
0.836561 1 0.163439
0 0.769498 1
0 0.5917 1
0 0.522523 1
0 0.48806 1
0 0.659669 1
0.178227 1 0.821773
1 5.96046e-08 0
0 0.81637 1
0.585684 1 0.414316
0 0.97508 1
0.0475591 1 0.952441
1 5.96046e-08 0
1 5.96046e-08 0
0 0.618152 1
0 0.993933 1
0 0.686131 1
0.919657 1 0.0803434
0 0.692133 1
1 0.864689 0
1 0.177032 0
0 0.509955 1
0.590165 1 0.409835
1 5.96046e-08 0
1 0.991285 0
1 5.96046e-08 0
0.356495 1 0.643505
0 0.368883 1
0 0.321341 1
0 0.630089 1
0 0.296435 1
0 0.871512 1
0 0.600481 1
0 0.835199 1
0 0.97903 1
1 0.0112824 0
0 0.662505 1
0.349555 1 0.650445
1 0.0413054 0
0 0.856993 1
0.040106 1 0.959894
0 0.678661 1
0 0.778866 1
0 0.93927 1
0 0.951544 1
0.519753 1 0.480247
0.203106 1 0.796894
0.852925 1 0.147075
0 0.658911 1
0 0.195796 1
0.058332 1 0.941668
0.517984 1 0.482016
0 0.669398 1
0.4057 1 0.5943
0.508686 1 0.491314
0.0610385 1 0.938962
0.24822 1 0.75178
0 0.771033 1
0 0.761365 1
0 0.736628 1
0.315237 1 0.684763
0 0.716588 1
1 0.608463 0
0.552987 1 0.447013
0 0.539054 1
0.281098 1 0.718902
0 0.386728 1
0 0.435629 1
0 0.696007 1
0 0.589569 1
0.664422 1 0.335578
0.0850515 1 0.914949
0 0.590492 1
1 0.539372 0
0.00953494 1 0.990465
0.639636 1 0.360364
0 0.998455 1
0 0.70072 1
0 0.614388 1
0 0.290274 1
0 0.374386 1
0 0.593394 1
0 0.615723 1
0 0.940071 1
0 0.5447 1
0 0.920368 1
0 0.775315 1
0 0.771871 1
0 0.824196 1
0 0.632267 1
0 0.445595 1
0 0.633167 1
0 0.691173 1
0 0.685467 1
0 0.218823 1
0 0.382461 1
0 0.537124 1
0 0.796384 1
0 0.752821 1
0 0.792637 1
0 0.804386 1
0 0.297038 1
0.626682 1 0.373318
0 0.646325 1
0 0.983357 1
0 0.590812 1
1 0.800292 0
0 0.7306 1
0 0.900881 1
0 0.876645 1
0 0.566026 1
0 0.962952 1
0.0467848 1 0.953215
0.273894 1 0.726106
0 0.655361 1
0 0.359841 1
0 0.620501 1
0.218805 1 0.781195
0 0.872779 1
0 0.304813 1
0 0.299706 1
0 0.982426 1
0 0.340157 1
1 0.699456 0
0 0.333314 1
0 0.52505 1
0 0.643064 1
0 0.724939 1
0 0.987161 1
0 0.229119 1
0 0.723919 1
0 0.805804 1
0 0.902643 1
0 0.340865 1
0 0.652809 1
