# vtk DataFile Version 3.0
Particle simulation
ASCII
DATASET POLYDATA
POINTS 400 float
9.8457 2.04454 9.87449
9.86191 3.43838 3.54809
0.547587 1.73273 4.98164
1.69793 0.489323 1.14002
9.47326 0.981733 3.15887
2.0807 7.66792 7.42052
7.29269 0.721903 1.32633
8.08369 5.17682 1.41442
7.24602 7.26055 3.56483
5.51564 0.554957 5.50379
7.30522 3.09635 0.85387
5.11582 0.678742 4.2006
9.70173 7.80214 9.62736
7.7428 0.927679 1.2956
3.68948 2.43972 0.352743
8.53858 3.76281 8.35778
1.4695 6.6176 0.26469
3.87712 0.878693 2.11011
0.196611 0.76483 3.28493
5.15261 0.00480016 7.11705
1.75727 0.464832 1.08628
7.14896 0.271565 9.52896
8.39209 4.63304 9.16513
5.13666 1.17999 3.20961
6.80039 0.221804 5.32666
3.02826 0.980196 2.21333
1.82197 4.99387 9.03503
2.52314 0.67048 1.2126
9.37767 0.806805 7.84525
3.89992 0.195518 0.521984
8.64477 7.87686 9.90738
6.62705 2.24606 5.27822
8.48649 0.757423 7.62036
5.10972 1.00216 1.93858
4.25465 0.209317 3.14345
0.492594 2.26107 0.666818
7.08226 3.82151 5.24996
3.65137 0.513835 1.86085
6.34453 0.328563 2.12545
1.97072 2.43863 3.28702
5.1213 1.3026 3.03408
9.32979 2.76778 5.47644
7.49638 6.85847 8.15313
1.36732 3.52224 8.62507
6.80688 0.520813 6.46802
6.38881 0.276512 2.40434
4.2451 0.423991 6.88771
2.7992 0.106407 1.97779
5.85424 0.0895965 1.97562
3.21778 6.25926 5.586
0.49496 3.77841 2.76713
7.54981 8.99672 5.66346
9.53348 0.522354 8.29339
5.3702 0.318216 5.47542
9.57328 0.73239 7.99296
5.9524 0.0986636 1.74603
5.94003 0.4931 7.68719
1.33181 0.477303 4.23358
6.27718 0.399598 2.01447
5.38768 7.13746 3.69364
8.14912 4.66418 1.90665
5.33115 0.107042 8.02571
2.91355 0.317555 3.66728
5.21596 0.497833 5.68355
7.56683 7.1807 4.00662
4.52043 0.375869 0.274583
7.38212 0.67773 8.21884
0.508273 4.05589 2.74303
6.18092 0.475472 1.97596
6.04696 0.576866 9.08456
6.63021 1.0765 7.52662
3.3653 0.176223 1.38474
1.48889 7.59474 8.46469
5.37291 0.419983 5.43617
7.95933 0.695279 8.03042
6.97042 0.81195 5.13136
7.4369 0.718786 8.22972
5.4619 0.611252 8.98438
7.77549 2.05312 2.62653
0.626924 5.36928 9.22584
3.20746 0.559635 1.82093
3.02316 0.292122 1.86553
2.92199 1.2676 1.76353
2.23287 0.406076 1.90644
5.71697 0.387315 7.96169
5.27434 0.671631 8.11145
5.97318 0.385649 8.11847
6.39679 1.65425 1.14486
7.72148 3.10783 1.011
9.07131 0.392169 1.79587
3.44826 0.651663 1.34488
3.26584 0.449944 2.55022
0.582594 1.66662 8.31477
2.0509 0.402244 2.13885
5.63143 0.432045 8.02223
5.5488 0.442774 8.41788
5.13076 0.608939 8.45382
1.043 0.0959036 3.89745
7.89081 0.339286 6.86334
9.06919 0.399564 1.85724
3.01069 0.00722546 2.22712
4.55371 1.01274 3.61915
0.535042 2.01926 0.677565
9.42862 0.695961 9.13546
8.68183 9.8023 5.28907
3.37277 0.642776 1.82666
4.22975 0.958072 8.82521
6.0513 0.198232 1.67549
6.15311 0.13958 1.95873
9.47478 0.499882 2.02469
3.6473 4.359 8.94199
5.61081 0.690726 5.26198
2.1147 0.482987 1.13946
9.31532 0.376296 1.99063
3.22386 0.33099 1.95014
1.62312 0.343546 2.8469
5.40759 0.537365 8.43715
6.16365 0.0607812 1.29726
6.15772 0.188489 1.97694
4.46309 1.02275 2.77329
3.68908 0.522127 2.09862
4.85393 1.10612 5.68858
7.69197 6.86441 9.17875
9.30869 0.302398 5.63492
8.19645 0.884202 8.13485
3.10056 0.292136 2.12356
3.14059 0.565981 1.60461
5.5943 0.507006 5.29763
5.38045 1.85543 0.881459
0.261304 0.359157 5.71656
3.66376 0.577206 2.11506
6.36272 1.09008 0.891221
5.79847 0.449998 9.05709
6.99255 0.438078 6.70066
6.43296 0.330817 1.62086
1.98512 0.642923 2.36408
9.74829 7.68375 0.0367929
5.42837 0.334669 5.54063
4.3273 1.05089 9.9282
9.9138 0.621407 8.29465
3.49641 0.888639 1.77154
6.95995 0.435509 8.16191
2.39639 2.92618 7.46262
4.41719 1.15828 2.75803
3.34535 0.788165 2.10723
2.25851 0.598825 1.77973
6.85936 0.286864 6.53948
1.09773 3.4507 1.82682
2.31907 0.604509 2.23934
3.60324 0.877303 1.9943
3.487 0.89455 1.76877
8.12633 0.0635333 7.2377
4.30538 2.47331 0.464526
4.30175 0.971363 8.84838
3.75478 4.1565 0.397153
4.39094 0.133931 2.57909
7.85862 0.00959629 7.15884
3.00977 0.18786 1.99081
6.8368 0.455665 6.82746
2.07039 0.470344 2.04512
0.691788 2.17587 0.682408
0.449899 1.58305 4.99959
5.43491 0.254873 8.22789
2.81916 0.394656 1.73672
0.345339 3.86746 2.94098
9.90994 0.56934 8.02041
5.60254 0.335816 9.46775
5.06727 0.317192 8.92342
6.27226 4.53716 6.86801
2.05591 4.03059 3.75537
2.78642 0.161735 2.1552
3.66227 0.13872 1.20389
5.94731 0.383595 3.6096
3.66028 1.05665 2.37286
1.97686 0.429332 2.04406
0.416282 2.59245 1.09096
5.6197 0.329103 8.32561
5.83247 0.779647 9.27687
5.10983 0.407504 8.85786
4.43947 1.60561 9.30225
2.19158 0.379094 1.94091
3.00429 0.726541 1.51105
8.37531 4.9503 8.56079
3.31517 1.18265 2.14494
5.2069 0.505407 8.72455
3.27095 0.599526 1.2083
1.86715 0.939898 2.09893
0.567597 1.89692 8.11314
6.71967 0.583285 7.25824
1.87745 0.448558 2.12652
2.17663 0.317212 1.96792
1.82057 0.517943 2.18298
5.49309 1.04715 9.26364
2.49703 4.15491 4.37932
0.0967095 7.62904 8.18759
2.12819 0.629629 2.19493
2.13462 0.338985 1.28145
5.84923 5.58633 8.71026
1.87464 0.547801 1.93385
3.37419 1.02439 2.58686
3.2085 0.385862 1.37215
6.2258 0.237722 2.2196
6.95013 0.441867 6.22844
4.33866 0.76742 8.56418
8.98746 1.17731 5.1608
5.42007 0.731979 8.35953
2.66659 0.237742 1.93171
1.32102 0.233359 3.67879
1.38317 0.396562 3.98981
9.42542 0.306729 1.89684
1.97698 0.501918 1.46815
6.76486 0.320325 1.59641
5.32994 0.988135 8.46119
9.86621 0.531114 8.05029
5.84339 0.0731627 5.15499
5.47023 0.464787 8.40217
2.68172 0.244274 1.90165
2.73881 0.0899482 2.19866
1.50094 0.846902 2.05956
9.30648 0.348439 1.81635
0.760601 3.95923 7.12218
7.47658 0.462565 7.98323
4.25695 1.13111 8.92984
3.14133 0.484718 1.89372
5.4156 0.603954 8.61493
3.35601 0.763674 2.01394
2.05795 2.61182 0.953941
2.04265 0.657977 1.92763
3.2343 0.28279 1.83646
4.724 0.0729159 9.43596
5.13953 0.425353 5.54757
5.05708 0.35255 8.9713
6.74171 0.534394 6.87344
3.72286 0.707442 1.78695
4.88603 0.561519 9.37029
3.64204 0 2.7049
6.84385 0.668687 6.04235
1.83059 0.178494 1.47651
1.92081 0.782889 2.14539
1.56809 0.382595 3.86881
2.15963 0.179715 1.23666
2.70449 1.17159 1.71733
3.53518 0.116929 1.73608
2.2298 0.609049 1.55225
5.16717 0.279128 8.42712
2.70653 0.434434 1.29915
3.74062 0.171298 2.07489
4.86402 1.00428 8.41813
5.66143 0.262108 1.97346
5.70141 0.539373 8.61326
3.31516 0.673537 1.44328
4.98146 0.87732 0.388451
5.81529 0.680452 8.77693
4.06006 0.543285 2.48958
6.98216 0.530788 7.30072
3.43754 0.919607 1.87231
9.62123 0.648253 2.143
4.86098 0.902138 8.91266
6.22665 0.129518 1.91836
5.7498 0.450961 8.62967
2.295 0.386631 1.96862
3.56448 9.73542 6.24044
4.33456 1.11174 8.66248
6.42738 0.882227 1.08835
5.0876 0.767046 8.92246
1.69397 3.22392 9.18816
5.06793 0.190485 0.250832
5.53687 0.514028 8.96593
7.04578 0.580079 6.9591
3.29126 0.236696 1.48972
3.59907 0.673617 1.38763
5.48949 4.41285 4.34239
4.34839 0.63007 2.42579
5.32173 1.00064 0.673935
5.79736 0.781029 8.7904
4.42525 1.30117 8.401
5.76326 0.610795 5.46266
4.04754 8.5714 7.01443
7.30772 0.735969 6.15959
2.06053 0.324483 2.0211
9.65983 0.41467 2.03676
6.3122 0.198002 1.66277
6.96439 1.85375 1.11428
5.63254 0.607664 5.86724
6.05804 0.734765 3.97604
7.06381 0.210955 7.32672
3.16689 0.263986 1.85004
1.97229 0.301849 1.58138
9.57823 0.604249 8.11061
9.88173 4.91319 1.34886
8.95867 0.0901811 1.80885
6.2639 0.336696 1.89867
3.72 0.622549 1.75768
5.31639 0.53768 5.75486
5.6677 0.753393 8.38905
5.64161 0.587834 8.99444
3.30392 0.766196 1.62522
3.26325 0.722688 1.71765
3.75994 0.510244 1.04085
2.74954 0.407352 2.3208
9.37167 0.44324 1.98434
9.52065 0.570627 8.20762
1.44079 0.620404 3.3395
6.48706 0.514782 2.28492
1.94476 0.651801 2.24041
4.93893 0.433009 1.94682
2.28884 0.869711 2.23367
1.9127 0.625349 1.92623
1.61136 0.326851 3.19919
3.57945 0.603216 1.71728
7.17679 1.14706 5.66497
7.98446 0.140563 7.38419
6.91299 0.479542 6.96179
2.11989 0.619549 1.28535
3.31185 0.191589 1.11615
7.08358 0.50438 6.65808
2.82908 0.364551 2.43076
6.83734 0 1.78017
6.02833 0.24342 1.84345
3.20981 0.0882182 1.58369
5.69002 1.07944 8.69509
3.37773 0.768391 1.23015
5.32076 0.39978 8.474
1.89463 0.719657 2.5024
9.21258 0.359698 1.87776
9.19491 0.318195 1.66548
2.32565 0.112599 1.4289
6.4286 0.555324 2.3229
8.30605 0.402567 1.63893
2.14174 0.32254 1.30551
5.70975 1.16788 8.96769
3.04134 0.140977 1.92204
5.22521 0.827064 8.61427
3.21545 0.685995 1.77552
9.08103 0.280172 1.96183
4.24747 1.16928 9.07862
4.6669 0.366074 2.54902
2.24176 0 2.24785
9.02372 0.383824 1.93999
3.02466 0.0938078 1.39963
5.2579 0.645156 8.62253
2.88969 1.01056 1.70297
5.62721 0.687265 8.93611
4.39247 1.19058 8.77942
3.08471 0.598159 1.75794
3.32176 0.556987 1.73946
5.88548 0.00877736 1.98488
2.25637 0.2036 2.18864
3.30365 0.471157 1.84404
3.1556 0.240303 1.06419
3.31601 0.687796 1.33157
3.32189 0 1.31414
5.32734 1.09802 9.32268
4.2876 1.21641 8.82458
2.35373 0.23014 2.38978
2.11714 0.217869 1.47658
5.72953 0.198597 2.09722
6.19617 0.521525 8.41548
2.72166 0.400015 1.72756
3.0551 0.37408 2.14495
6.03446 0.390447 1.87842
7.55282 0.538697 8.24242
5.55742 0.53345 8.54877
2.16913 0.324701 1.94222
3.8263 0.901393 1.67413
6.89978 0.531743 6.93157
5.50877 0.399245 8.46228
6.23011 0.600672 8.13305
5.80014 0.236435 8.76698
3.7469 0.488681 1.1399
6.04174 0.32042 1.87462
8.14133 0.0398755 7.3051
5.76242 0.612934 9.07334
2.004 0.205737 1.52831
3.45629 0.432067 1.36333
6.61239 0.427737 6.83069
5.68346 0.812582 8.64772
5.33231 0.169174 8.8087
5.60394 0.694963 8.4603
3.05463 0.222186 2.09044
1.87975 0.583547 2.29795
2.12544 0.425797 2.03942
5.4612 0.635206 8.58995
3.47079 0.458895 1.98985
5.41111 0.69648 5.5073
5.63173 0.6683 8.25296
3.54761 0.455015 1.55097
3.07284 0.327629 1.83403
4.76057 0.751417 5.90321
6.68188 0.403188 1.8177
1.81902 0.563833 2.29607
2.32357 0.278154 1.9611
5.53663 0.400461 8.94311
3.6575 0.584538 1.96026
5.44129 0.650042 5.47219
4.17716 1.14132 8.74495
3.53632 0.337238 1.47525
2.86091 0.517124 1.50723
9.93934 0.176281 1.91611
6.67721 0.362291 1.84105
POINT_DATA 400
SCALARS particleColor float 3
LOOKUP_TABLE default
0 0.438506 1
1 5.96046e-08 0
0 0.477528 1
0 0.401085 1
0 0.190057 1
1 0.821334 0
0 0.417652 1
0 0.632979 1
0.423873 1 0.576127
0 0.454138 1
0.0612905 1 0.93871
0 0.799259 1
0 0.986222 1
0.482143 1 0.517857
0 0.420809 1
0 0.712678 1
0 0.208181 1
0 0.33328 1
0.704229 1 0.295771
0.0738574 1 0.926143
0 0.572713 1
0.465537 1 0.534463
0.284679 1 0.715321
0.061101 1 0.938899
1 0.903287 0
0 0.451861 1
0.648932 1 0.351068
0 0.660374 1
0 0.984804 1
0 0.298073 1
0.352217 1 0.647783
0.625795 1 0.374205
0 0.493604 1
0 0.976867 1
0 0.383089 1
0.00323653 1 0.996763
1 5.96046e-08 0
0 0.367266 1
0 0.982509 1
0 0.388322 1
0 0.725296 1
0 0.949384 1
0.0343779 1 0.965622
0 0.549026 1
0 0.6792 1
0 0.145636 1
0 0.788921 1
0 0.524608 1
0 0.439859 1
1 0.690782 0
0 0.270027 1
0 0.271068 1
0 0.643154 1
0 0.870851 1
0.13151 1 0.86849
0 0.487453 1
0 0.819042 1
0 0.840365 1
0 0.918626 1
0.971013 1 0.028987
0.275472 1 0.724528
0 0.470463 1
0 0.315478 1
0 0.317779 1
0.319045 1 0.680955
0.0665642 1 0.933436
0 0.60888 1
0 0.860131 1
0 0.32667 1
0 0.424004 1
0 0.523149 1
0 0.400859 1
1 5.96046e-08 0
0 0.0909408 1
0 0.951201 1
0 0.792966 1
0 0.629323 1
0 0.680769 1
0 0.607222 1
0.251846 1 0.748154
0 0.66985 1
0 0.625742 1
0 0.827585 1
0 0.361304 1
0 0.19675 1
0 0.437141 1
0 0.939904 1
0 0.735445 1
0.196384 1 0.803616
0 0.83001 1
0 0.85336 1
0 0.40708 1
0 0.367877 1
0 0.494976 1
0 0.381816 1
0 0.865851 1
0 0.785645 1
0.372774 1 0.627226
0 0.906944 1
0 0.759406 1
0 0.795859 1
0.0406185 1 0.959382
0 0.314641 1
0 0.434171 1
1 0.0613227 0
0 0.257145 1
0 0.824247 1
0 0.779529 1
0 0.282919 1
0 0.971551 1
1 0.562744 0
0.220114 1 0.779886
0 0.797356 1
0 0.630667 1
0 0.188841 1
0 0.74577 1
0 0.253501 1
0 0.503738 1
0 0.193456 1
0 0.998348 1
0 0.35092 1
1 5.96046e-08 0
0 0.87786 1
0.562983 1 0.437017
0 0.487246 1
0 0.592173 1
0 0.752934 1
0 0.727386 1
1 0.773253 0
0.359158 1 0.640842
0 0.741094 1
0.138403 1 0.861597
0 0.311968 1
0 0.731216 1
0.805261 1 0.194739
0 0.364937 1
1 0.857672 0
0 0.284904 1
0 0.354427 1
0 0.188392 1
0 0.472602 1
0.101891 1 0.898109
0 0.755889 1
0.064888 1 0.935112
0 0.689088 1
0 0.604511 1
0 0.152434 1
0 0.512403 1
0 0.549077 1
0.225665 1 0.774335
0 0.436092 1
0 0.286213 1
0.0613899 1 0.93861
0 0.490728 1
0 0.14623 1
0 0.915979 1
0 0.581626 1
0 0.534383 1
0 0.433108 1
0 0.457793 1
0.0442274 1 0.955773
0 0.942716 1
0 0.57691 1
0 0.568219 1
0 0.496933 1
0.212451 1 0.787549
0 0.459638 1
0 0.341072 1
0 0.343111 1
1 5.96046e-08 0
0 0.635689 1
0 0.583024 1
0 0.670686 1
0 0.666115 1
0 0.968568 1
0 0.81411 1
0 0.277536 1
0 0.640899 1
0 0.766917 1
0.283547 1 0.716453
0 0.27494 1
0 0.599453 1
0.0767878 1 0.923212
0 0.988968 1
0 0.814183 1
0 0.689154 1
0 0.328331 1
0 0.704782 1
0 0.737907 1
0 0.357798 1
0 0.347059 1
0 0.735677 1
0 0.549037 1
0 0.328254 1
0.466286 1 0.533714
0 0.415236 1
0 0.367321 1
0 0.401395 1
0 0.793838 1
0 0.838404 1
0 0.464455 1
0 0.535578 1
0 0.875195 1
0 0.672451 1
1 0.767907 0
0 0.734894 1
0 0.480787 1
0 0.340463 1
0.13923 1 0.86077
0 0.454322 1
0 0.283288 1
0 0.317122 1
0 0.725681 1
0 0.633894 1
0 0.51545 1
0 0.856794 1
0 0.426195 1
0 0.710193 1
0.408229 1 0.591771
0 0.58423 1
0.455319 1 0.544681
0 0.387986 1
0 0.663257 1
0 0.55794 1
0 0.637693 1
0 0.524683 1
0.319984 1 0.680016
0 0.897158 1
0 0.687017 1
0 0.201288 1
0 0.691791 1
0 0.4099 1
0 0.754842 1
0 0.0964118 1
0 0.178106 1
0 0.426653 1
0 0.65642 1
0 0.603989 1
0 0.968782 1
0 0.805124 1
0 0.495737 1
0 0.59519 1
0 0.704853 1
0 0.636379 1
0 0.422414 1
0 0.787604 1
0 0.755803 1
0 0.375892 1
0 0.632251 1
0 0.291885 1
0 0.465354 1
0 0.511291 1
0 0.247421 1
0 0.458182 1
0 0.415329 1
0 0.196614 1
0.0742687 1 0.925731
0 0.462325 1
0 0.635603 1
0 0.326104 1
0 0.571054 1
0 0.681612 1
0.0489467 1 0.951053
0.0632798 1 0.93672
0 0.421341 1
0.774518 1 0.225482
0 0.323869 1
0 0.749763 1
0 0.574073 1
0 0.129621 1
0 0.40969 1
0.306067 1 0.693933
0 0.717622 1
0 0.897024 1
0 0.449185 1
0 0.387235 1
0 0.996522 1
0 0.330499 1
0 0.385894 1
0 0.593381 1
0 0.389224 1
0 0.652044 1
0 0.939548 1
0.220001 1 0.779999
0 0.979941 1
0 0.585127 1
0 0.597808 1
0.139819 1 0.860181
0 0.593323 1
0 0.803678 1
0 0.744521 1
0 0.390231 1
0 0.681379 1
0 0.2417 1
0 0.631162 1
0 0.99885 1
0.203815 1 0.796185
0 0.751008 1
0 0.833613 1
0 0.290313 1
0 0.597803 1
0 0.572035 1
0 0.466668 1
0 0.434291 1
0.0347014 1 0.965299
0 0.899153 1
0 0.880006 1
0 0.838212 1
0 0.321302 1
0 0.658269 1
0.0739458 1 0.926054
0 0.414928 1
0 0.554229 1
0 0.351305 1
0 0.578745 1
0.319916 1 0.680084
0 0.965555 1
0.0250034 1 0.974997
0 0.663654 1
0 0.730085 1
0 0.977618 1
0.240851 1 0.759149
0 0.635882 1
0 0.723293 1
0 0.885069 1
0 0.275239 1
0 0.351848 1
0 0.567936 1
0 0.329425 1
0 0.58865 1
0 0.743026 1
0 0.481498 1
0 0.58036 1
0 0.238482 1
0 0.667589 1
0 0.602391 1
0 0.384167 1
0 0.384139 1
0.31436 1 0.68564
0 0.659558 1
0.0723639 1 0.927636
0 0.405433 1
0 0.713557 1
0 0.681012 1
0 0.374122 1
0 0.644767 1
0 0.678877 1
0 0.753404 1
0 0.557689 1
0 0.804971 1
0.0780758 1 0.921924
0 0.424916 1
0 0.159161 1
0 0.555457 1
0 0.429781 1
0 0.599398 1
0 0.864871 1
0 0.531714 1
0 0.509652 1
0 0.398734 1
0 0.67239 1
0.0509006 1 0.949099
0 0.897308 1
0.00859562 1 0.991404
0 0.921351 1
0 0.456137 1
0 0.287814 1
0 0.483272 1
0 0.259316 1
0 0.686916 1
0 0.762318 1
0 0.201424 1
0 0.52506 1
0.0271882 1 0.972812
0.188097 1 0.811903
0 0.588003 1
0 0.483618 1
0 0.3555 1
0 0.937372 1
0.0265173 1 0.973483
0 0.340761 1
0 0.486082 1
0 0.409319 1
0 0.475419 1
0 0.493262 1
0 0.690262 1
0 0.421818 1
0 0.442822 1
0.140516 1 0.859484
0 0.619538 1
0 0.464913 1
0 0.397267 1
0 0.858347 1
0 0.771684 1
0 0.307669 1
0 0.834036 1
0 0.53098 1
0 0.912179 1
0 0.671071 1
0 0.538186 1
