# vtk DataFile Version 3.0
Particle simulation
ASCII
DATASET POLYDATA
POINTS 400 float
0.308432 9.18963 2.64565
0.0682663 7.17602 0.962349
6.87947 4.96787 2.59855
1.76641 0.509496 6.68714
3.60444 0.389663 10
4.66173 1.71298 6.92103
6.07633 8.50169 0.416085
0.268554 3.2719 10
3.68176 4.47764 0.994629
9.50571 0.152421 4.76623
2.73198 3.08616 5.56532
4.91768 4.0664 8.68244
9.96972 7.892 7.29562
0.695485 8.96548 1.80148
5.7697 8.49526 10
9.45085 7.54284 3.33933
5.04889 1.08262 5.57656
2.92659 2.45234 0.548572
3.79519 8.331 7.35014
3.01064 5.21509 1.54207
3.20854 4.41392 0.546812
1.73183 9.54803 7.59554
9.9597 8.33587 3.69209
0.334331 8.507 7.03648
7.1514 8.49373 6.66849
5.7967 3.02945 9.09127
1.44831 4.23768 6.10431
0 8.25563 0.339469
6.56515 3.45524 0.794365
9.34724 6.24685 4.61619
0.625962 1.89829 6.40955
5.00293 2.12411 8.02895
7.94931 2.17158 9.55221
5.20076 6.57026 1.65365
3.83404 1.09841 4.26723
6.83776 5.22692 8.08294
3.43561 7.1252 4.88521
9.18401 3.33156 2.52231
0.348267 6.34156 1.79842
2.0214 2.1478 9.30038
3.23678 2.27437 5.23404
0 10 7.29127
8.57715 7.96105 2.68016
2.08537 7.67013 5.37887
6.27141 7.87085 0.520967
2.19858 7.24821 1.0817
3.5009 3.09853 5.07791
5.06321 7.70732 0.00708781
0.665169 1.65072 4.03288
2.42725 2.33143 4.3567
6.43197 1.78399 7.98254
0 7.91784 1.6562
4.67646 4.32314 3.10706
4.50731 5.83097 0.0819167
0.334447 2.48822 7.92723
8.64629 0.923078 7.7948
3.11177 3.95938 9.64818
8.17231 1.58467 3.31555
0.458654 2.29704 0.821056
0.61438 7.33671 8.04974
10 1.04325 6.28947
2.94172 7.87164 5.97253
2.2218 7.15059 6.07836
0.192449 1.85117 6.80334
1.0345 1.53971 6.07851
1.97793 4.60115 3.14423
7.00535 6.15619 0.945977
9.11862 5.68492 0.486172
5.06228 0.846074 0.703689
0.398171 4.8073 6.27287
4.34435 6.46917 6.69819
0 9.45044 8.77075
9.61244 1.4372 8.4941
9.04864 2.94825 7.31034
1.32686 6.50118 7.95761
9.79138 0.877448 5.06545
6.34167 7.44453 1.28732
2.4993 2.16769 6.05352
5.16829 7.35963 9.22733
8.48562 2.77514 8.47195
8.14276 5.59053 9.79409
8.15327 6.5869 9.02091
1.21855 1.77803 6.26585
8.46165 7.66203 9.69614
1.00117 7.82052 7.38022
4.79832 4.03123 5.47195
8.65613 3.29396 0.840175
2.65365 0.810005 6.676
2.81452 4.00454 3.79026
8.04988 3.64469 2.66747
2.22446 7.15311 1.68005
0.666659 1.76182 3.94754
5.86967 0.574451 5.56982
4.6386 6.1279 3.01168
6.93408 3.01965 8.67837
6.18636 2.14836 5.46834
6.91985 3.06005 4.43597
7.82344 2.6261 1.17796
1.56415 2.8896 1.21701
0.238766 0.225097 1.78634
7.93883 9.64369 9.3876
6.93962 1.88785 3.89051
1.35154 3.35057 0.162043
8.47039 1.74311 8.98199
8.72616 1.39235 6.33605
6.14293 4.3631 8.17166
6.49359 5.10909 6.0499
5.54578 6.65233 1.5235
4.27869 2.96568 9.041
0.287418 1.0603 9.60233
1.5082 4.06432 6.30166
5.88594 4.09094 0.415772
8.14576 3.01467 3.74549
2.60506 7.14861 1.46827
9.06134 5.55186 7.25446
2.08829 2.16691 7.88155
3.06301 9.53321 4.05763
0.322825 9.99023 4.28942
3.51418 1.64061 6.76936
8.55658 4.65823 4.94982
6.46221 1.95379 4.26264
8.62653 8.98333 6.8964
4.81319 4.47508 0.37516
0.898204 6.96023 6.10279
5.8303 5.85423 4.65247
1.48862 9.59804 3.98844
4.55584 6.82004 10
8.80397 0 6.20241
7.52439 2.81508 0.447901
8.70165 6.94235 4.54212
6.54001 5.94923 3.7247
0.797562 0.953471 5.55401
9.72423 4.84499 1.72938
4.71694 8.3031 4.58817
8.84144 5.44921 8.9168
9.18388 2.62849 4.14558
6.23861 8.88587 3.58817
6.10618 4.92274 3.00987
7.57554 7.12763 9.33883
1.96971 4.12023 5.90572
6.01116 2.30173 9.20778
7.72769 3.74814 4.04468
8.21842 4.3174 0.814641
5.71278 0 1.98036
0.464343 0.182429 8.92559
9.74969 2.21598 10
8.54438 3.41298 4.90223
0.604864 1.39888 4.87769
8.27874 7.49376 3.30248
8.13544 6.37015 8.92614
7.67769 0.630371 7.36762
0.460663 8.4467 8.6716
4.739 0.34958 9.03475
6.35093 5.88142 3.38529
7.88393 2.78672 4.99049
2.48672 9.49112 5.28512
8.65333 1.86207 9.02203
3.67824 0.338512 0.960085
0 9.08059 2.16863
1.22471 8.77438 6.72473
1.76005 2.06823 8.0407
6.42751 2.48604 0.295702
9.64961 7.56168 1.53454
0.363876 6.35838 6.72535
3.87266 1.66273 8.68561
6.70758 6.76163 4.03718
9.65059 0.439815 5.8873
7.26829 6.92927 5.22284
0.304829 5.2246 5.87632
5.50615 2.09743 4.05161
1.7865 8.02991 7.77882
3.7751 8.43426 2.46496
6.89567 9.04922 9.91104
2.33738 0.90861 8.45593
9.71301 2.01298 3.31613
7.26368 8.53238 0
3.89318 9.57997 1.10128
8.92343 2.08848 7.92253
6.24416 6.20368 8.50202
9.55631 0.380649 3.60923
0.848688 4.89407 4.69955
1.26836 6.59697 0
2.75926 1.11565 8.46951
6.95539 3.01229 8.99382
2.212 3.74215 3.60928
3.67783 5.10822 9.01671
7.65828 0.460309 7.38903
2.44896 9.82927 9.15532
0.215292 6.82064 0.812307
9.96118 5.20124 0.503051
1.36378 7.54614 9.92962
3.29895 5.63397 5.82298
2.1806 2.29933 7.74453
0.480768 0.190422 0.82561
1.1657 0 6.79263
9.20328 0.111582 8.00187
4.09794 10 6.69673
0.30803 0.543669 3.3741
0.234681 1.96619 4.09701
9.62711 5.293 9.38288
8.19198 1.28323 5.32023
4.63467 2.52241 3.43014
9.8223 8.73452 2.88773
9.15545 4.81783 8.16607
7.47933 5.23357 8.22235
9.10148 2.09773 7.66358
3.62935 6.72461 4.33168
5.00218 3.10419 5.77943
8.78864 3.38962 10
1.29814 0.0315509 7.77737
0.477527 1.04091 6.75078
7.58721 3.23862 6.82488
8.22913 3.16637 7.62423
4.36712 1.26235 0.662939
4.22771 5.83816 5.34083
7.23537 0.926946 5.70153
9.59186 9.32011 8.31926
1.57048 7.88689 0.327017
1.11562 10 7.56508
8.90743 0.469486 0.0829732
0 9.62085 7.93849
0.973108 9.64916 6.20003
9.86751 1.07901 6.69071
8.26684 1.51996 5.63145
2.97315 9.63186 2.29576
0.783308 4.37101 4.86119
9.786 9.927 9.85147
5.99358 5.11601 5.4247
7.85807 0.498196 7.19867
7.30579 2.20971 0.611572
0.888785 3.4072 1.14408
7.50051 0.9256 7.00091
7.77996 1.70983 1.42434
7.11686 10 6.81759
0.329798 9.33858 2.1115
8.7216 7.47104 3.23959
8.27183 1.35278 8.01358
4.33456 9.03786 1.00835
7.38295 0.52029 7.48853
4.206 7.01316 1.08739
7.75275 0.891027 6.91981
2.21182 1.99418 8.56134
4.89582 0.909913 5.43406
9.22035 6.6152 3.46132
7.52338 8.30461 1.63873
0.47742 2.45507 7.96774
1.64295 5.94706 9.10931
7.5057 6.2108 9.16301
2.99219 5.47957 5.49847
3.5839 2.06388 9.10529
8.13044 3.18807 1.46348
0.237104 2.56416 1.91229
5.36641 2.48865 8.86837
4.52506 2.57028 6.44414
5.08368 5.84206 1.31815
2.84299 1.56283 6.52211
1.14969 2.50804 7.01996
6.15395 0.298336 9.98304
0.40023 7.65417 2.30811
3.36162 9.31861 5.32648
3.11133 2.61099 1.25736
9.68973 5.6012 3.94502
5.87644 7.18779 6.89654
2.73804 9.30785 6.33039
6.31888 3.25509 0.942948
6.14828 5.42624 4.96355
1.7985 1.50536 9.26563
7.24172 7.2914 4.70723
4.98905 9.34786 8.6397
2.23195 6.93878 4.84325
0 8.02323 0.271846
6.06639 0.426332 5.97459
7.44637 7.16806 4.91307
8.82083 5.36156 3.12354
10 6.38185 3.03879
1.18055 2.74129 1.81407
2.56486 6.58731 2.19202
1.10279 6.29877 0.637166
6.80571 4.86507 5.64334
6.92188 0.565395 7.18472
5.84116 9.51997 5.48248
0.793749 1.32487 9.70805
8.19195 0.970504 5.94778
0.351799 8.50532 2.61459
0 10 4.3713
6.33844 0.55316 8.37761
0.411747 0.46691 4.87684
0.863221 0.137068 8.20449
4.70293 6.77367 9.77788
6.25783 1.15963 8.64521
9.73558 0.251369 3.60429
1.07366 5.23876 1.52566
7.60248 5.26642 9.21177
8.59095 1.00473 1.59995
4.03079 9.9946 2.81121
4.56675 1.56108 8.07376
8.00059 0.0692295 7.28274
7.29714 0.340178 7.96226
7.64058 0.555777 7.41154
7.01854 0.664863 7.13335
9.32631 6.29436 6.2107
4.52452 6.95967 3.40981
7.83594 0.157357 7.22685
2.62483 2.22074 8.32275
7.56198 0.308923 7.48488
3.57473 8.77396 8.98386
8.30933 1.3347 5.5444
7.82741 0.538142 7.32266
7.24991 4.02917 5.18866
0.0835046 0.757098 0.565979
8.55005 0.471908 3.43172
5.70546 0.992546 6.28295
1.43046 1.05511 5.0221
7.77871 0.707251 7.25321
5.29765 5.56453 6.50953
9.04926 6.11843 9.86113
7.06032 9.12134 7.61671
7.91152 0.597917 7.00388
4.14178 0.606236 1.67679
1.28913 3.25265 0.620742
0.456958 9.36505 6.44935
4.33117 0.50214 9.68218
1.45778 0.945696 8.3629
7.7507 0.141617 7.47872
7.58462 0.48593 7.38676
2.52131 9.33829 5.8876
7.99991 1.20275 5.48099
3.27546 6.99204 0.941982
9.86681 6.03752 8.40196
7.52505 0.396382 7.10741
9.23662 8.25875 6.84503
3.78591 2.99807 1.51916
8.82668 5.17705 1.38927
10 7.35473 0.164895
4.61451 3.82542 8.28599
9.05258 3.36981 6.15561
8.83179 3.5682 5.67922
7.6071 0.460874 7.12862
5.04993 7.08798 1.96432
4.14188 1.69879 6.86155
5.93803 4.73098 4.12764
10 0 10
3.98505 9.90639 3.21825
1.36359 0.700155 8.10997
7.25249 0.10219 7.75362
0.0178937 8.97319 6.97241
8.56204 1.32325 0.318315
7.84983 0.593712 6.8606
7.44853 0.70139 7.07603
4.6423 6.82617 0.855277
7.22714 0.776905 7.15739
7.52805 0.347183 7.52079
1.3732 9.26431 0.813424
0.332825 7.85478 3.07541
3.90948 7.88335 8.94859
7.69552 0.304373 7.21289
9.31746 3.92281 7.44467
7.22012 2.07456 3.51043
7.3361 0.252259 7.22752
8.15659 0.49539 7.53538
1.96376 2.17244 8.66923
1.62129 0.97316 8.50045
1.26218 0.799319 8.14487
7.56464 0.603764 7.36658
2.56312 5.07454 5.69791
2.90558 1.69747 8.38132
1.47336 0.885883 8.18439
5.46221 7.26872 0.742242
6.79723 8.43105 1.23795
0.849856 8.3457 4.63496
8.46803 1.60026 0.30676
9.99728 5.56216 8.76797
1.04264 9.04341 1.14186
7.11597 0.770564 7.34463
7.52958 0.321432 7.16606
8.38496 2.67039 4.18549
1.403 0.87926 8.16016
6.05623 0.140325 6.99684
1.9908 2.02566 0.292721
7.34111 0 7.61153
7.92561 0.778068 6.95276
7.43436 0.472443 7.44388
3.62154 5.52802 6.42918
7.79404 0.426819 7.1798
9.8394 1.67622 2.01646
1.59957 0.872963 8.14396
8.00406 0.802826 7.01198
7.31732 0.383673 7.39889
6.43234 1.96689 7.74338
9.93596 5.1758 4.2189
7.85757 0.437013 7.45838
8.01983 0.376344 7.20936
4.55845 9.87071 2.09416
7.66561 0.187583 7.65404
7.38118 9.37098 7.67251
3.32185 2.81342 2.39019
7.61222 0.520105 7.35029
7.0764 5.08968 6.12229
7.3566 4.6252 3.03498
4.42595 0.433865 2.81941
POINT_DATA 400
SCALARS particleColor float 3
LOOKUP_TABLE default
0.35576 1 0.64424
0.350952 1 0.649048
1 5.96046e-08 0
1 5.96046e-08 0
1 5.96046e-08 0
0.64521 1 0.35479
0.0148081 1 0.985192
1 5.96046e-08 0
0.244301 1 0.755699
0.439365 1 0.560635
1 0.83442 0
1 0.659753 0
0.803414 1 0.196586
1 5.96046e-08 0
1 5.96046e-08 0
0.559238 1 0.440762
1 0.617054 0
1 0.832714 0
0 0.879084 1
1 5.96046e-08 0
0 0.663532 1
1 5.96046e-08 0
0 0.969541 1
0 0.928283 1
1 0.396193 0
0.0160366 1 0.983963
1 0.0344253 0
1 5.96046e-08 0
1 5.96046e-08 0
1 5.96046e-08 0
1 5.96046e-08 0
0.292489 1 0.707511
1 0.354116 0
1 5.96046e-08 0
1 5.96046e-08 0
1 5.96046e-08 0
1 0.0845643 0
1 5.96046e-08 0
1 5.96046e-08 0
0.244844 1 0.755156
1 5.96046e-08 0
0.710314 1 0.289686
1 5.96046e-08 0
1 5.96046e-08 0
1 0.615722 0
1 0.810934 0
0.701307 1 0.298693
0.615963 1 0.384037
0.725856 1 0.274144
0.225597 1 0.774403
0 0.68694 1
1 5.96046e-08 0
1 5.96046e-08 0
0 0.452244 1
1 5.96046e-08 0
1 0.657624 0
1 5.96046e-08 0
0.346878 1 0.653122
0.759331 1 0.240669
0.219453 1 0.780547
1 5.96046e-08 0
0 0.658396 1
1 5.96046e-08 0
0.566675 1 0.433325
1 5.96046e-08 0
1 0.891056 0
1 0.632822 0
0 0.825625 1
0.380221 1 0.619779
0.24453 1 0.75547
0.756445 1 0.243555
1 5.96046e-08 0
1 0.147739 0
0 0.641258 1
1 0.399716 0
1 5.96046e-08 0
0.209579 1 0.790421
1 5.96046e-08 0
1 5.96046e-08 0
1 5.96046e-08 0
1 5.96046e-08 0
1 0.393158 0
0.504671 1 0.495329
1 0.598591 0
1 0.682469 0
1 0.412144 0
1 0.151609 0
1 5.96046e-08 0
1 5.96046e-08 0
0.809965 1 0.190035
0.168467 1 0.831533
0 0.962656 1
1 0.154224 0
1 0.836494 0
1 5.96046e-08 0
1 5.96046e-08 0
1 5.96046e-08 0
1 5.96046e-08 0
0.40553 1 0.59447
1 0.686723 0
1 0.800626 0
1 0.886499 0
1 0.932178 0
0.895612 1 0.104388
0.910519 1 0.0894814
1 5.96046e-08 0
0.689597 1 0.310403
1 0.0406496 0
1 5.96046e-08 0
1 5.96046e-08 0
1 0.186556 0
1 5.96046e-08 0
0.492336 1 0.507664
1 0.918994 0
1 0.789376 0
1 0.602651 0
1 0.209946 0
1 5.96046e-08 0
1 0.983667 0
1 5.96046e-08 0
1 5.96046e-08 0
1 5.96046e-08 0
1 5.96046e-08 0
1 5.96046e-08 0
1 0.634249 0
0.315686 1 0.684314
1 5.96046e-08 0
1 5.96046e-08 0
1 0.983903 0
1 5.96046e-08 0
1 0.889773 0
0.162148 1 0.837852
1 5.96046e-08 0
1 5.96046e-08 0
1 5.96046e-08 0
0.768733 1 0.231267
0 0.938344 1
1 0.795812 0
1 0.592592 0
0.89822 1 0.10178
0.841336 1 0.158664
0.964037 1 0.0359635
1 5.96046e-08 0
1 5.96046e-08 0
0.545701 1 0.454299
1 5.96046e-08 0
0.792045 1 0.207955
0.72358 1 0.27642
1 5.96046e-08 0
0.953131 1 0.0468687
0 0.471871 1
1 5.96046e-08 0
1 0.527577 0
1 5.96046e-08 0
1 5.96046e-08 0
0.202272 1 0.797728
1 0.242441 0
1 0.0290302 0
0.124219 1 0.875781
1 5.96046e-08 0
1 0.781292 0
0.726622 1 0.273378
1 0.768149 0
0 0.889969 1
1 0.685738 0
0.883565 1 0.116435
1 0.832175 0
1 0.188726 0
1 0.582398 0
0.731159 1 0.268841
1 0.868334 0
1 5.96046e-08 0
1 5.96046e-08 0
0.92424 1 0.0757598
1 5.96046e-08 0
0.982655 1 0.0173453
1 5.96046e-08 0
1 0.564081 0
1 0.536478 0
1 0.577408 0
0.173787 1 0.826213
1 5.96046e-08 0
0.571348 1 0.428652
0.445632 1 0.554368
1 0.469978 0
1 5.96046e-08 0
0 0.703938 1
1 5.96046e-08 0
0.147192 1 0.852808
1 5.96046e-08 0
1 5.96046e-08 0
0.345898 1 0.654102
1 5.96046e-08 0
1 0.757267 0
1 5.96046e-08 0
1 0.882102 0
1 5.96046e-08 0
1 5.96046e-08 0
1 5.96046e-08 0
9.8438e-05 1 0.999902
0 0.393622 1
1 0.508356 0
1 5.96046e-08 0
1 5.96046e-08 0
1 5.96046e-08 0
0.380322 1 0.619678
1 5.96046e-08 0
1 0.470889 0
1 5.96046e-08 0
1 5.96046e-08 0
1 0.382933 0
1 0.876299 0
1 0.904394 0
1 5.96046e-08 0
1 0.73135 0
0.714172 1 0.285828
1 0.248443 0
1 5.96046e-08 0
1 0.344965 0
1 5.96046e-08 0
0 0.47588 1
1 5.96046e-08 0
0.360503 1 0.639497
0 0.985713 1
1 0.283344 0
0.497759 1 0.502241
0.40662 1 0.59338
1 5.96046e-08 0
0 0.361421 1
1 5.96046e-08 0
1 0.145579 0
0.225923 1 0.774077
0.120269 1 0.879731
1 5.96046e-08 0
1 0.996193 0
0.441662 1 0.558338
1 5.96046e-08 0
1 5.96046e-08 0
0 0.351964 1
1 5.96046e-08 0
0 0.254513 1
1 5.96046e-08 0
0.841478 1 0.158522
0.466106 1 0.533894
1 0.644142 0
1 0.872806 0
1 0.206114 0
1 5.96046e-08 0
1 5.96046e-08 0
0.95502 1 0.04498
1 0.911024 0
0 0.906011 1
1 5.96046e-08 0
1 5.96046e-08 0
1 0.429746 0
0.271922 1 0.728078
1 0.961168 0
0.899252 1 0.100748
0.581628 1 0.418372
0 0.964027 1
0.384612 1 0.615388
0.464837 1 0.535163
1 5.96046e-08 0
1 5.96046e-08 0
0.884362 1 0.115638
0.0171445 1 0.982856
1 0.295445 0
1 5.96046e-08 0
1 0.625892 0
1 5.96046e-08 0
1 0.863095 0
1 0.997493 0
1 0.658386 0
1 0.960667 0
1 0.922724 0
1 5.96046e-08 0
1 0.27697 0
0.937799 1 0.0622014
1 5.96046e-08 0
0 0.50726 1
1 0.258154 0
1 0.578918 0
0.427543 1 0.572457
1 0.264197 0
1 5.96046e-08 0
1 0.595045 0
0.591966 1 0.408034
0.510418 1 0.489582
1 5.96046e-08 0
1 5.96046e-08 0
1 0.27078 0
1 5.96046e-08 0
0.425225 1 0.574775
1 0.827989 0
1 0.718565 0
0.768406 1 0.231594
0 0.277097 1
0 0.465804 1
0 0.528723 1
0 0.176983 1
1 0.568476 0
1 5.96046e-08 0
0 0.30555 1
0.493434 1 0.506566
0 0.488965 1
1 0.323845 0
0 0.38414 1
0 0.464491 1
1 0.784937 0
1 5.96046e-08 0
0.857651 1 0.142349
1 5.96046e-08 0
0.530298 1 0.469702
0 0.556609 1
1 0.6253 0
0.506371 1 0.493629
1 5.96046e-08 0
0 0.975036 1
1 5.96046e-08 0
0.568692 1 0.431308
1 5.96046e-08 0
0.662859 1 0.337141
0 0.628641 1
0 0.386791 1
0 0.70524 1
0 0.703633 1
0 0.769537 1
1 0.624056 0
1 5.96046e-08 0
0 0.566388 1
1 5.96046e-08 0
1 0.432865 0
1 5.96046e-08 0
1 5.96046e-08 0
0.197257 1 0.802743
1 0.591338 0
1 0.870222 0
0 0.665462 1
1 5.96046e-08 0
1 5.96046e-08 0
1 0.864347 0
1 5.96046e-08 0
1 0.567401 0
0 0.600978 1
0 0.394819 1
1 5.96046e-08 0
0 0.69793 1
0.0469697 1 0.95303
0 0.340827 1
1 5.96046e-08 0
0 0.908107 1
0 0.708265 1
0.283114 1 0.716886
1 0.285539 0
0.74289 1 0.25711
0 0.624656 1
1 0.605538 0
1 0.54244 0
0.108096 1 0.891904
0 0.320202 1
1 5.96046e-08 0
0 0.380169 1
0 0.717202 1
0 0.386851 1
1 0.708368 0
1 5.96046e-08 0
0 0.231342 1
1 0.516441 0
1 0.804652 0
0.812186 1 0.187814
0 0.576154 1
1 5.96046e-08 0
1 0.201035 0
0 0.619933 1
0 0.975301 1
0.0598091 1 0.940191
0 0.109485 1
1 0.0188988 0
1 0.541837 0
0 0.681444 1
0 0.783795 1
0 0.560055 1
1 5.96046e-08 0
0 0.997381 1
1 5.96046e-08 0
0 0.347578 1
0 0.196538 1
0 0.635146 1
1 5.96046e-08 0
0.637004 1 0.362996
0 0.68977 1
0 0.620464 1
1 0.634965 0
0 0.562545 1
1 5.96046e-08 0
1 5.96046e-08 0
0 0.624888 1
0 0.525763 1
1 5.96046e-08 0
1 0.540501 0
