# vtk DataFile Version 3.0
Particle simulation
ASCII
DATASET POLYDATA
POINTS 400 float
5.77374 9.36253 9.11318
0.910329 6.82765 6.2322
0.937211 7.69827 4.37851
8.18068 0.829581 8.78793
9.7427 4.48146 7.40504
8.8103 9.49318 2.21386
8.30708 2.24974 7.65927
8.1973 2.63705 0
4.31425 4.68749 3.28803
1.84087 0.534626 9.87449
1.06348 6.0877 4.21304
7.27498 7.65291 0.683124
8.97708 6.51187 8.63357
8.31848 3.3576 8.59399
8.55795 0.601245 6.24889
6.45931 9.42941 3.75816
3.56514 1.17208 0.057344
4.10326 0.515357 2.94326
3.93627 4.57016 7.27163
3.37297 2.87056 6.36985
4.19632 0.320187 2.90473
0 6.31005 6.11142
4.51381 0 1.00023
6.84627 1.49694 8.81096
1.83774 7.74114 2.50813
0.558183 0.339667 5.42772
0.265485 1.4887 9.80907
6.6135 1.37817 8.19843
7.41021 1.26618 9.99684
3.59029 3.25726 10
0.186742 9.44498 4.5416
9.27261 5.05115 1.72334
9.06462 8.5656 0.742626
7.84132 7.17853 3.5407
7.67004 9.05829 7.28489
8.88051 2.17241 5.33841
5.15198 4.98574 2.0792
5.28805 0.0607532 3.18947
3.58908 10 8.65336
9.07782 0.393931 9.30554
2.91849 3.25326 1.17386
8.62879 0.593527 8.47354
8.57195 2.74273 4.47836
1.8906 1.00017 0.777506
3.37715 3.95369 9.03267
2.86981 3.58269 1.43179
1.60907 6.41708 0.904555
10 7.812 4.92053
5.08477 6.29471 3.85629
5.59399 6.7226 9.12954
9.83413 4.63548 1.11683
5.55881 1.88151 4.81073
9.52055 1.56369 5.56256
4.04522 9.86819 9.24121
1.97591 1.06695 2.76351
2.04675 1.3166 6.56274
3.12889 8.07473 2.22874
0.68331 1.16884 9.97217
9.44334 5.30031 9.3973
1.52125 0.723649 5.33189
2.20174 4.35003 5.33464
7.77328 8.70856 2.65972
3.29369 3.86514 7.816
2.34492 0.173243 8.0557
1.96048 0.920003 8.53441
1.75294 2.84928 8.22425
0.464817 4.27219 2.67859
0.676726 1.75009 1.97605
0.727697 7.46356 8.84963
3.92408 3.45206 6.24817
2.14085 9.05108 5.38693
2.80555 5.47694 4.99272
7.23811 5.38671 8.62728
7.60961 4.75908 0.0399416
9.35968 1.79266 2.95936
10 0.827616 1.89599
9.41355 1.39605 6.71411
8.3849 8.31439 0.417931
7.15961 3.77914 5.37859
7.22562 4.29103 4.84971
4.40217 0.253097 3.51278
2.54582 3.91991 3.90838
8.17032 3.42851 3.7472
4.41449 9.26873 4.24596
7.93551 8.52581 4.57854
8.13642 8.57099 0.0783727
2.84335 5.59035 2.36881
2.07637 1.20935 9.7654
0.459476 9.57681 8.94131
6.22523 7.7387 5.95864
4.01569 0.292726 2.51325
7.43162 5.9124 1.21037
6.84384 0.220631 6.69891
7.27986 7.36818 1.97998
6.50104 5.86055 8.08001
0.346124 1.04646 2.09999
1.60668 2.64558 2.0818
9.55118 4.06496 9.66513
4.91107 4.96379 9.76716
9.25525 7.14284 5.8302
7.56549 2.63872 2.90193
6.17249 7.26827 1.26345
2.22574 6.74084 8.2482
1.61953 5.1913 7.865
3.61913 5.62613 8.48565
6.64031 2.46614 5.34213
3.4468 5.07506 9.4799
0.960517 0 7.07177
3.30349 8.96065 7.23338
9.54338 3.69517 8.88545
4.77437 4.27801 3.06894
7.92354 2.81585 6.37286
7.28203 2.30035 6.18605
6.15625 6.8162 7.96955
2.777 0.20406 2.11058
0.426489 10 5.85548
1.37167 0.530324 8.28933
8.66189 0.486252 4.904
0.600228 1.61429 7.41296
3.28683 3.02125 1.83708
2.58147 0 5.38687
9.84028 7.227 4.26376
5.18461 8.43791 4.66802
5.93113 0.151528 0.711614
8.75995 5.44704 4.09687
2.31193 3.31971 2.38826
5.62783 0.529973 2.89838
6.6283 4.6667 9.1227
7.25436 1.60784 6.50819
2.41247 7.86306 0
9.43753 7.12399 8.95134
7.25185 2.47879 4.66237
0.284005 0.969926 8.21624
8.89309 3.1425 0.281581
0.116632 4.86035 6.49806
0.339411 9.84811 9.73168
5.30674 8.05626 6.63607
7.40755 4.47839 6.80279
9.68576 1.86528 1.21632
9.45244 4.2644 0.834012
4.57878 0.76489 2.71826
1.53929 9.34607 6.62749
0.414463 0.91721 3.80586
8.25112 6.04977 5.99811
3.4599 9.09344 0.699784
1.83894 1.94285 6.41207
2.77648 9.29963 1.03395
8.69118 4.73896 6.10532
5.04139 2.85502 9.28294
6.7017 3.71063 0.881363
4.162 0.583961 3.11202
9.00918 5.23133 0
8.4865 0.637373 9.67247
4.37679 0.707364 2.32704
7.53429 0.861727 8.32049
9.68798 9.75397 6.51658
9.52337 9.56845 7.62087
10 4.56072 6.41683
0 8.61514 7.94522
6.95979 3.77418 8.00248
9.54547 1.466 9.45676
0.375083 0.895351 8.0177
0 1.48747 9.31032
3.49876 1.3454 6.88463
7.97779 2.82589 0.167221
1.13091 0.523367 10
6.15303 3.07183 9.30913
4.26054 8.58003 2.66638
2.4701 4.68046 8.6462
4.07682 2.13761 7.48002
3.68416 0.0963629 3.36967
3.02959 4.07683 5.42647
8.37259 3.08811 8.64392
3.71054 4.6401 8.49095
6.15388 3.16943 6.50282
0.911513 4.4005 6.82398
3.90789 8.84688 2.57639
1.72561 5.36619 3.23425
8.67255 4.89494 5.70705
3.46191 7.12548 3.98623
4.14187 0.822458 3.23139
2.45088 2.80651 0.49796
0.356112 9.66175 3.88446
4.54153 6.07049 0.221405
6.647 5.60837 7.94292
8.08201 2.65708 0.34697
4.19672 0.497758 2.64271
7.5396 4.30407 5.25471
2.71694 0.0704553 2.1992
2.80371 0.361984 2.57423
4.57186 0.706572 2.33988
4.37878 0.246717 2.66105
6.83755 7.96143 1.31345
1.83562 3.46526 6.17839
5.21317 3.45816 9.72175
5.18591 4.08939 4.8428
7.78157 2.01479 7.74093
3.92402 0.946856 8.60888
6.18791 0.216166 3.38877
3.89597 0.393754 3.01158
4.3752 0.492636 2.82567
3.49075 0.599116 4.85416
2.48367 1.91765 7.41205
9.17687 0.14851 4.90516
5.85063 7.16579 3.60077
7.03072 6.20559 0.738807
7.36847 2.94595 6.85183
1.5673 3.92347 6.0303
2.52814 8.6138 4.37464
3.06335 7.91701 6.36745
4.1036 0.621669 2.5965
4.11305 0.736158 3.40283
2.82143 2.88194 2.57202
7.61965 8.19929 7.30336
6.01029 5.55643 9.75091
6.77135 5.24777 5.07464
4.32176 0.23148 3.38694
5.8608 3.50671 6.90209
0.245642 5.54398 0.475416
3.26347 6.27943 5.18113
9.44391 0.5808 2.72835
2.1168 8.51994 2.07009
5.49989 7.46904 4.83524
3.98585 0.211549 3.45522
3.53178 1.16918 8.00218
3.98965 1.76233 4.19972
0.260156 5.8757 8.38809
3.89581 0.793798 2.3964
4.09194 0.543444 2.81618
7.33979 4.59332 2.50868
3.27395 7.44284 9.60992
2.19489 8.72392 1.81955
5.42824 0.307045 0.888263
4.35498 0.707007 3.31369
1.24838 0.624816 8.28976
7.2017 4.96446 2.56884
0.541994 3.52469 9.67618
3.00992 6.51345 8.52096
4.20338 0.689976 2.74113
3.22972 3.94185 9.08581
4.26132 0.490182 3.0787
5.45199 0.31377 3.52142
3.02805 0.661848 2.70852
3.79215 0.379113 3.2132
3.80594 9.07654 1.8782
9.27269 6.16646 6.62349
6.84843 6.2668 3.63133
5.93015 1.83672 1.03131
5.85347 8.99434 4.04088
1.22715 0.318764 3.08019
3.80799 0.491739 2.44881
9.73796 0.730312 9.77538
0.461335 1.60047 5.96349
8.42924 6.93836 0
0.578964 1.54412 9.22846
1.48477 1.00811 3.55152
5.2649 7.991 5.28263
1.17675 0.638784 8.21171
2.4506 10 6.6606
1.35783 0.582158 8.19621
0.755096 5.85688 6.39871
5.61048 7.28784 7.24916
0.640275 0 9.57332
6.32717 6.98941 3.21164
7.26614 8.50032 9.6086
9.54754 9.35753 8.90437
1.83796 9.3405 0.865828
1.24077 0.708946 7.82893
10 7.37999 7.2876
4.39859 2.98464 0.065865
4.34126 0.630412 3.622
7.29501 3.93849 6.16878
7.62066 1.47884 4.13651
7.8999 3.08221 7.98004
8.43466 2.02251 1.23231
8.55291 7.50466 2.66567
4.38288 2.16479 5.93757
8.97272 6.93521 4.39362
0.217388 1.64085 6.83529
4.2197 0.471191 2.86193
4.88719 6.72761 7.07331
9.11373 0.30492 1.18463
1.19645 5.47383 6.34204
4.43985 3.66634 1.24284
5.74849 6.13928 6.51757
1.21751 5.64545 3.5014
4.29375 0.532329 3.16453
1.35726 1.68541 4.86766
7.64772 1.34222 1.08282
9.50257 1.85703 4.41178
3.38781 0.393281 5.46388
9.54171 6.08019 1.36904
4.34683 0.238741 4.04415
8.21863 4.92013 3.74193
3.10106 4.14462 2.22855
1.02941 0.869135 8.37114
4.10015 0.618932 2.68187
4.3865 0.630638 2.54453
3.75301 0.0465766 3.21893
4.06624 0.637808 2.6888
2.4793 8.76872 6.21768
8.87879 0.59538 0.595582
3.96598 0.0567417 2.32993
3.91227 4.59596 1.70541
4.48642 0.755769 3.57591
7.02402 3.45896 5.53801
4.34609 0.737206 2.84724
4.21183 0.755555 2.39622
0.550236 3.80568 5.26865
8.94224 5.45921 5.73516
9.38376 8.61226 9.84982
6.43547 1.80883 8.00338
2.81245 4.71151 3.01998
3.95679 0.432492 3.29427
1.66837 6.29775 6.60614
0.982213 9.51887 9.31143
6.45924 4.39765 0.861535
1.19863 0.631463 8.02193
0 3.33693 9.53601
7.67688 1.84969 0.234365
1.04372 1.08964 8.25637
4.77911 3.57555 5.84033
1.28053 0.741081 8.47781
4.256 0.509839 3.38339
1.19479 0.474473 2.82327
8.37745 2.20073 8.27389
4.12304 0.242773 2.38025
2.30291 8.75883 0.930773
0.0221992 6.11439 8.55827
4.26277 0.695238 2.97326
2.57309 6.87819 0.504693
0.26564 5.01798 1.08565
2.48812 2.2934 6.07972
0.236398 2.36843 0.290614
9.22195 0.2574 1.13309
2.09118 5.60902 0.884485
5.43151 0.500968 7.13209
4.18751 0.445168 3.22302
0.267608 3.83104 9.37301
6.30416 8.92348 4.63021
9.79184 4.99558 9.39266
0.328718 1.27001 3.45094
0.901591 4.7312 7.0224
1.2951 0.635662 8.17135
3.88288 0.958256 3.1756
3.76507 0.326257 2.64077
9.08086 0.0957483 1.19081
4.18481 0.187811 2.4547
3.97691 0.339382 2.33102
9.26559 1.36128 5.75698
4.518 0.533573 2.60607
4.24592 0.275777 2.50908
0 6.70798 0.317232
9.53704 4.40801 5.49876
2.64405 0.197858 2.44765
4.23085 0.38067 3.63491
4.66175 2.79233 4.60501
4.64167 9.17542 8.04236
3.64021 0.209555 3.05185
4.17512 0.742332 2.68418
9.28182 0.562379 1.14774
1.25148 0.583044 8.08349
1.19378 0.577782 8.26945
4.11998 1.06821 2.85388
4.11173 0.727051 3.31511
9.56352 0.539042 1.11783
1.07675 0.468723 8.77408
1.81614 3.06629 0.745578
1.1578 0.742976 8.11427
7.52018 1.20162 3.18383
9.07574 1.09434 1.3277
1.27735 1.79659 4.76662
1.26109 6.49552 7.78561
4.41732 0.609307 2.63215
3.82864 0.907663 3.52967
8.95486 0.578318 0.99715
1.17129 1.00886 8.20259
1.11196 0.728759 8.74426
1.99571 2.61285 9.67134
4.35771 0.640626 3.21872
4.35285 0.528141 2.46932
4.16645 0.294154 2.67666
1.97616 2.8853 9.18034
4.40495 0.426378 3.11729
7.75442 3.1935 8.72412
1.25032 0.690024 8.45484
4.14956 0.905539 2.87846
4.4389 0.547136 2.52167
8.09418 2.30672 2.02599
2.14947 0.188495 8.16996
4.88779 0.684486 2.73577
3.87605 0.414429 2.90239
0.66686 0.883421 8.06665
4.24331 0.390216 2.80903
1.38252 3.54063 3.4981
1.03198 0.847808 8.08486
4.06854 0.954416 3.02582
0.481436 9.01152 2.22616
1.79444 2.10362 4.84004
9.10082 0.396555 1.21219
POINT_DATA 400
SCALARS particleColor float 3
LOOKUP_TABLE default
1 5.96046e-08 0
0.125498 1 0.874502
0.540304 1 0.459696
1 5.96046e-08 0
0.888795 1 0.111205
1 5.96046e-08 0
0.470097 1 0.529903
1 5.96046e-08 0
0.764732 1 0.235268
0.608445 1 0.391555
0.0622263 1 0.937774
1 0.00665492 0
1 0.283925 0
0.88668 1 0.11332
1 0.090502 0
1 5.96046e-08 0
1 5.96046e-08 0
0 0.55308 1
0.213172 1 0.786828
1 5.96046e-08 0
0 0.568634 1
1 5.96046e-08 0
1 5.96046e-08 0
1 5.96046e-08 0
0.634517 1 0.365483
1 5.96046e-08 0
0.0160429 1 0.983957
1 5.96046e-08 0
0.133399 1 0.866601
0.0332974 1 0.966703
0.187459 1 0.812541
1 0.607543 0
0.83964 1 0.16036
1 5.96046e-08 0
1 0.537765 0
1 5.96046e-08 0
1 5.96046e-08 0
0 0.524178 1
1 5.96046e-08 0
1 0.0494912 0
1 0.763654 0
1 0.236846 0
1 0.836219 0
1 0.423845 0
1 5.96046e-08 0
1 5.96046e-08 0
1 0.956515 0
1 5.96046e-08 0
1 0.221247 0
1 5.96046e-08 0
1 0.237835 0
1 0.814569 0
1 5.96046e-08 0
1 5.96046e-08 0
0.918927 1 0.0810733
0 0.665125 1
1 0.9474 0
0 0.745616 1
0.921162 1 0.0788383
1 5.96046e-08 0
1 5.96046e-08 0
0.573936 1 0.426064
0.2419 1 0.7581
0.395667 1 0.604333
1 0.996812 0
1 5.96046e-08 0
0.274795 1 0.725205
0.136954 1 0.863046
0.590411 1 0.409589
1 0.131459 0
1 5.96046e-08 0
0.938197 1 0.061803
1 5.96046e-08 0
0.584206 1 0.415794
1 5.96046e-08 0
1 5.96046e-08 0
0.572109 1 0.427891
1 0.122546 0
1 0.363981 0
1 5.96046e-08 0
0 0.655222 1
1 0.725289 0
0.37429 1 0.62571
1 5.96046e-08 0
0.164674 1 0.835326
1 0.233919 0
1 0.860769 0
0.253416 1 0.746584
0.627447 1 0.372553
1 0.945375 0
0 0.612866 1
0.832268 1 0.167732
1 5.96046e-08 0
1 5.96046e-08 0
0.527535 1 0.472465
1 5.96046e-08 0
1 5.96046e-08 0
1 5.96046e-08 0
0.519801 1 0.480199
0.299312 1 0.700688
1 5.96046e-08 0
0.617118 1 0.382882
1 5.96046e-08 0
1 0.545911 0
1 5.96046e-08 0
1 0.444809 0
1 5.96046e-08 0
0.587259 1 0.412741
1 5.96046e-08 0
1 0.00619406 0
1 0.17439 0
1 5.96046e-08 0
1 0.886713 0
1 5.96046e-08 0
0 0.665976 1
1 5.96046e-08 0
0 0.698312 1
1 0.908739 0
0 0.939503 1
0 0.471729 1
1 5.96046e-08 0
1 5.96046e-08 0
0.997836 1 0.00216365
1 5.96046e-08 0
1 0.83293 0
0 0.294524 1
0.8542 1 0.1458
1 0.27437 0
1 0.958368 0
1 0.893343 0
1 5.96046e-08 0
1 0.720274 0
1 0.436435 0
1 5.96046e-08 0
1 5.96046e-08 0
1 0.80534 0
1 5.96046e-08 0
1 0.0514433 0
1 5.96046e-08 0
0 0.979365 1
0 0.201372 1
1 5.96046e-08 0
1 5.96046e-08 0
1 5.96046e-08 0
0.543963 1 0.456037
1 5.96046e-08 0
0.500602 1 0.499398
0.925183 1 0.0748172
1 5.96046e-08 0
1 5.96046e-08 0
0 0.541878 1
1 0.416072 0
0.643453 1 0.356547
0 0.677087 1
1 5.96046e-08 0
1 0.409456 0
1 0.379263 0
0.310359 1 0.689641
1 0.0517743 0
1 0.366873 0
1 0.2811 0
1 0.766938 0
1 5.96046e-08 0
1 5.96046e-08 0
1 0.210253 0
1 5.96046e-08 0
0 0.961821 1
1 5.96046e-08 0
1 5.96046e-08 0
1 5.96046e-08 0
0 0.670521 1
1 5.96046e-08 0
1 5.96046e-08 0
1 5.96046e-08 0
1 5.96046e-08 0
0.0529157 1 0.947084
1 0.514425 0
1 5.96046e-08 0
0.642342 1 0.357658
1 5.96046e-08 0
0.0268474 1 0.973153
1 5.96046e-08 0
0.200486 1 0.799514
1 5.96046e-08 0
1 5.96046e-08 0
1 5.96046e-08 0
0 0.536094 1
0.708558 1 0.291442
0 0.341011 1
0 0.562104 1
0 0.573659 1
0.26924 1 0.73076
1 5.96046e-08 0
0.802988 1 0.197012
0.842208 1 0.157792
1 5.96046e-08 0
1 5.96046e-08 0
0.961357 1 0.0386429
0.990875 1 0.00912458
0 0.83177 1
0 0.364242 1
1 0.157156 0
0.355641 1 0.644359
1 5.96046e-08 0
1 5.96046e-08 0
1 5.96046e-08 0
1 5.96046e-08 0
0.094499 1 0.905501
1 5.96046e-08 0
1 0.587341 0
0 0.645693 1
0 0.220334 1
0.641591 1 0.358409
1 5.96046e-08 0
1 5.96046e-08 0
1 5.96046e-08 0
0 0.369151 1
0.155529 1 0.844471
1 5.96046e-08 0
1 5.96046e-08 0
1 0.236766 0
0.525999 1 0.474001
1 5.96046e-08 0
0 0.693507 1
1 5.96046e-08 0
0.730511 1 0.269489
1 0.19505 0
0 0.842096 1
0 0.335142 1
0.536106 1 0.463894
1 0.419546 0
0.845227 1 0.154773
1 0.925426 0
0 0.629615 1
0 0.685807 1
1 0.833382 0
1 5.96046e-08 0
0.359539 1 0.640461
0 0.813832 1
1 0.919719 0
0 0.580033 1
0 0.29882 1
1 5.96046e-08 0
0 0.585187 1
1 0.811103 0
1 5.96046e-08 0
0.580265 1 0.419735
1 5.96046e-08 0
1 0.201046 0
0.459419 1 0.540581
0 0.889056 1
1 0.749899 0
1 5.96046e-08 0
1 5.96046e-08 0
0 0.953758 1
0.339147 1 0.660853
1 0.48325 0
0 0.527021 1
1 0.159849 0
0 0.990996 1
0.844853 1 0.155147
0.860186 1 0.139814
0.0240533 1 0.975947
1 5.96046e-08 0
1 5.96046e-08 0
1 0.487779 0
0.500053 1 0.499947
0 0.586901 1
1 0.79618 0
1 0.737861 0
0 0.504912 1
1 5.96046e-08 0
1 5.96046e-08 0
1 0.655586 0
1 0.467798 0
0.830153 1 0.169847
1 0.956355 0
1 5.96046e-08 0
0.826101 1 0.173899
0 0.416287 1
1 0.540646 0
0 0.648553 1
0.919497 1 0.0805029
0.994191 1 0.00580877
1 0.909245 0
1 0.0294104 0
0 0.516188 1
0 0.998826 1
0.460405 1 0.539595
1 0.654339 0
1 5.96046e-08 0
1 0.0924942 0
0 0.562364 1
1 5.96046e-08 0
1 5.96046e-08 0
0 0.335017 1
0 0.695944 1
0 0.489817 1
0 0.929722 1
0 0.348206 1
1 5.96046e-08 0
1 5.96046e-08 0
0 0.852816 1
1 0.974149 0
0 0.491029 1
1 5.96046e-08 0
0 0.609292 1
0 0.252497 1
0.561272 1 0.438728
0 0.403535 1
0.226566 1 0.773434
1 5.96046e-08 0
0.620845 1 0.379155
0 0.390523 1
1 5.96046e-08 0
0.674021 1 0.325979
0.802369 1 0.197631
1 5.96046e-08 0
1 0.367698 0
0.514401 1 0.485599
0 0.424622 1
1 0.136143 0
0 0.662066 1
0 0.343421 1
0 0.817658 1
0.480659 1 0.519341
0 0.7814 1
1 5.96046e-08 0
0 0.951897 1
0 0.299937 1
1 0.903075 0
0.970716 1 0.0292836
0.30069 1 0.69931
0.0429517 1 0.957048
0 0.730689 1
1 0.378755 0
1 0.632504 0
0 0.469272 1
0 0.711767 1
0.870283 1 0.129717
0.550963 1 0.449037
1 5.96046e-08 0
0 0.656852 1
0 0.272321 1
0 0.462781 1
0.153229 1 0.846771
0 0.541583 1
0 0.672863 1
0 0.997944 1
1 0.760443 0
0 0.743065 1
0 0.397775 1
1 5.96046e-08 0
1 5.96046e-08 0
0 0.591682 1
0 0.744497 1
0.648448 1 0.351552
1 0.795626 0
0 0.8065 1
0 0.716432 1
0 0.381323 1
0 0.586883 1
0 0.683715 1
0.217465 1 0.782535
0 0.893529 1
0 0.522784 1
0 0.681216 1
1 0.600951 0
0 0.220628 1
1 0.193268 0
0 0.820674 1
0.93127 1 0.0687301
1 5.96046e-08 0
0 0.973315 1
0 0.396327 1
0 0.707167 1
0 0.728976 1
0 0.826897 1
0 0.429341 1
0 0.814391 1
0 0.768683 1
0 0.536093 1
0 0.942721 1
0 0.448856 1
1 5.96046e-08 0
0 0.581011 1
0 0.486541 1
0 0.411616 1
1 5.96046e-08 0
0.706851 1 0.293149
0 0.67617 1
0 0.182507 1
0 0.947565 1
0 0.729656 1
1 0.737376 0
0 0.905569 1
0 0.32849 1
0.312987 1 0.687013
0.35419 1 0.64581
0.252733 1 0.747267
