# vtk DataFile Version 3.0
Particle simulation
ASCII
DATASET POLYDATA
POINTS 400 float
9.04169 1.62511 6.95127
0.249261 2.60338 9.79813
10 0.467723 9.83413
4.30341 6.84983 0
2.35997 4.56263 7.41167
6.44282 7.09786 7.04254
5.34714 8.95995 5.94428
1.57311 7.88414 8.07822
6.14026 0.33047 1.96281
1.99558 1.96034 0.634916
9.92097 1.30066 8.47223
3.4115 1.42025 2.71659
9.073 9.36393 2.0131
3.57713 3.10374 8.84967
3.12526 2.37712 4.88926
0.994587 0.744368 4.08302
2.46367 0.326865 8.85398
0 6.67587 1.3248
1.46778 9.18258 7.92009
8.36998 3.5606 3.36234
7.44635 7.56647 6.90808
1.67242 7.63 3.81457
8.95254 6.15419 1.43199
5.64534 0.632901 2.26277
3.73472 9.39088 6.7153
2.96651 5.14837 3.03203
3.10906 2.7656 8.37823
0 9.05914 9.14343
6.02858 5.37613 3.22678
3.50516 3.73849 6.64413
8.16948 0.615107 3.56528
0.28692 6.28741 7.08329
7.7178 7.42734 3.45359
6.1088 7.14922 0.0675988
4.41694 9.23419 6.43934
3.004 5.81628 5.17202
6.55598 6.61693 8.87787
1.29806 6.16492 1.29713
3.89011 0.907587 4.33882
9.88439 9.26907 7.88393
3.87122 8.01244 7.28281
8.25201 0 8.78535
5.69169 2.55376 4.62934
8.02391 9.19969 3.24749
7.8337 6.73412 4.6801
5.72419 7.36925 1.79792
9.57749 6.15444 7.6612
6.04947 7.61898 2.29413
2.19918 0.027178 5.48134
0.785993 3.68802 6.90918
4.12251 5.75918 5.25286
5.75929 7.83537 6.36262
5.29112 3.57476 4.39969
0.534671 6.24549 7.92539
9.31004 5.28552 10
5.67541 4.23878 9.01795
10 7.32338 5.33606
5.71058 1.01909 5.9764
3.1789 3.81294 6.98668
8.26539 8.29555 6.78117
6.18523 7.2148 9.69786
8.91902 6.89572 1.86382
8.38555 4.60375 9.38562
8.72347 0.644476 1.96111
5.67833 4.42935 0.0351082
7.24782 6.09647 2.95919
8.92684 5.07337 9.40987
6.58778 5.95582 3.06929
3.43438 7.86868 9.17548
2.45252 1.42162 10
9.49123 5.58542 7.975
7.78412 4.36355 3.45649
0.32525 8.01417 4.47526
5.30924 7.31387 6.45882
5.73304 0.847147 10
0.401678 0.69279 8.20204
5.8497 9.17811 9.35691
5.02675 3.06388 7.57095
6.86863 2.40187 8.25363
9.80788 5.24263 3.35771
9.39982 5.96489 1.32612
5.1873 3.10021 0.201233
6.424 7.64501 3.5879
9.24562 7.63625 7.70434
4.46991 1.2497 7.28789
8.5798 1.22182 9.61419
2.92571 7.46817 9.65723
7.49653 2.23115 5.47602
1.25242 9.33867 0
0.43903 6.38785 6.76729
3.16207 5.51528 6.43702
9.05028 9.67453 8.43422
0.514337 2.07194 7.72301
9.437 6.96091 9.35491
7.30729 2.76652 6.7751
1.07044 9.74194 9.38283
8.86926 4.89986 7.2846
1.925 5.67855 0
6.86668 10 2.74583
3.28895 7.58628 8.73193
4.03286 4.25829 2.88148
3.42835 6.78619 8.61973
0.859664 0.686766 0.96357
5.06109 1.38436 2.93047
6.2318 5.89975 1.12725
4.12488 9.73079 7.09436
4.61677 1.3801 0.800005
8.39713 2.39622 5.98133
8.45194 2.99563 1.08646
1.1573 4.78152 4.5949
4.74493 0.979196 9.74524
6.14889 1.89281 7.51984
0.645221 2.07826 7.24541
6.4563 5.00997 5.07795
8.65427 0.373336 9.78172
8.57428 9.43316 3.6167
10 2.58909 10
7.13417 5.8491 4.58942
9.94753 8.69426 5.28145
1.22098 8.33667 0.553158
0.828947 2.82324 9.55163
1.28748 8.90852 4.58777
6.13889 8.48341 8.54546
6.75149 8.15706 8.04123
0.430937 5.39201 6.93041
8.76127 3.01103 3.30161
7.58876 8.81211 4.6906
4.61966 7.86965 9.33911
6.87719 2.10751 2.88801
3.50251 9.06922 3.52766
7.99577 5.73594 0.610333
7.34632 6.95284 8.55834
1.41861 2.15601 3.47652
9.57078 4.551 8.52694
2.34892 6.81566 4.48751
7.93052 4.08645 8.41009
1.81382 0.357976 2.28886
5.28488 2.96843 2.22939
6.24973 0.87715 2.19926
7.70864 1.68753 8.69573
6.82947 0.295124 6.3693
2.96408 2.98659 7.88392
9.51064 6.52011 5.74466
7.14568 1.65319 8.02396
2.67544 7.10756 8.0667
4.75698 3.55688 7.60228
2.95606 2.10602 0.783676
1.223 2.16893 4.04568
9.30966 0.372608 6.7382
9.69724 0.897684 7.81087
6.90325 0.361556 6.49683
4.43027 1.78509 9.41315
0.0155696 9.40737 6.94709
4.27492 6.78176 4.4633
4.17723 2.98448 2.34111
2.69534 5.40052 5.55301
1.40325 7.87043 2.47585
0.630455 1.21248 6.67346
3.59713 4.72952 2.9228
1.26098 10 9.43011
6.48818 3.51461 2.82914
7.21725 1.38991 9.92876
2.78545 2.40059 2.52991
4.7156 2.68694 4.68533
9.57928 2.86559 8.20474
1.80016 1.16683 2.84286
4.08246 1.85649 7.5605
8.02493 6.70688 1.47044
7.3478 6.4583 9.45854
8.31328 1.99689 0.188672
5.00178 6.76254 8.57864
5.12998 5.50317 7.39188
1.7135 4.82373 1.91791
3.6477 8.05256 7.18955
9.75861 8.66874 5.3492
4.22257 7.54568 0.182681
4.95662 2.13 8.61071
9.45628 3.23432 6.72325
7.59623 2.16143 1.46785
8.30499 3.54836 7.21605
5.28889 4.1578 3.63846
7.33065 9.72749 2.81526
0.238883 5.84218 8.20455
2.17643 1.13138 0.261119
9.04074 0.437106 8.90611
0 7.47726 0
6.80813 0.467325 6.07744
3.55878 2.2982 4.72672
0.693942 4.0367 7.96567
2.18719 5.08668 3.23783
4.85046 6.50533 0.0702229
6.71831 4.95196 2.3061
7.42247 1.8621 1.66575
8.23828 1.95125 0.710724
4.37811 4.75625 10
5.83903 1.50166 3.44297
1.04446 9.89471 4.5381
5.37897 7.95367 6.25087
0 3.12884 3.17719
8.38069 8.65932 10
6.7092 0.341294 6.22021
6.37021 10 4.35937
7.77478 8.76671 6.30301
8.17897 2.84604 6.58406
4.21508 7.53847 3.57677
3.61202 7.96382 9.08413
9.24938 7.62423 0.884498
8.79399 8.24691 8.21297
10 4.32153 4.13245
6.3336 4.77357 3.11715
6.8852 0.297019 5.8339
1.87803 7.66455 9.2652
1.22584 9.05198 3.4847
1.57148 9.89912 7.45263
3.09411 2.95106 2.22806
2.08484 9.76736 9.16505
8.8906 0.933521 5.00622
1.65121 4.4872 6.11738
8.04167 4.23868 7.67725
2.40053 4.23489 0.579378
4.69754 8.30351 1.65925
7.16277 2.1071 5.45155
5.37884 7.89665 1.72272
8.89593 0.866109 5.0087
0.459462 0.0738177 9.60654
7.18598 5.88111 9.58089
3.60321 0.219711 1.21999
5.34594 6.76819 7.45946
6.78619 0.114591 6.29591
3.4025 3.18843 4.88947
0.982939 2.0655 1.53478
8.50877 8.01844 1.76078
8.0676 4.94533 3.48605
6.73205 8.43778 4.74594
5.43077 3.05503 0
7.20634 8.75186 1.60722
6.13185 2.73633 2.73991
1.42772 1.0246 7.01265
6.8556 0.291684 6.26794
7.9756 7.99319 6.72898
8.90535 0.922324 5.30339
4.89016 8.31817 8.25366
2.32044 6.04562 6.67806
9.60911 6.99684 7.99056
5.96096 8.53148 3.91886
6.05725 4.31735 2.18204
9.75971 9.48673 7.91574
4.82552 1.65665 4.86122
2.13008 8.78023 3.7642
5.11103 1.33659 4.85928
9.16627 0.888844 5.14663
7.2031 2.45231 4.74378
0.247667 3.61579 5.72985
3.60247 10 7.24526
1.95212 0.616194 0
7.07749 1.94878 3.1648
2.12004 8.18344 10
4.52631 2.49159 9.77308
4.53253 3.57792 7.627
7.52545 1.41939 1.16643
6.57675 6.74168 7.3898
6.77566 2.67199 6.5265
4.63054 9.02956 4.97875
6.75446 6.39765 5.987
9.08468 0 7.11087
8.46801 2.40556 5.74298
0.784573 3.49096 2.17037
4.15213 8.81407 5.95172
7.60565 6.07367 6.66324
6.05048 9.04501 7.18862
5.63543 1.32869 4.91355
5.07669 2.51381 4.89046
7.56145 1.28834 4.57135
7.61402 7.00142 4.96794
8.68004 0.158116 4.12128
0 4.2526 8.45706
8.77805 1.49244 6.31048
0.245797 4.23056 8.91707
9.15423 1.61371 3.3066
6.78388 0.415275 5.96913
2.12446 7.74704 4.75569
9.18481 7.44142 6.17645
1.85845 9.55758 3.00027
9.59987 5.10055 4.50355
5.71733 0.992197 3.73774
7.9718 2.40223 2.59171
3.23441 5.46777 1.98428
4.08383 7.26621 5.15684
0.533207 3.88639 1.13953
3.95572 1.60015 0.708142
2.95075 9.98804 2.80145
9.29723 7.68923 1.16913
9.0283 0.432355 9.90414
3.81119 3.60059 6.08574
0.349098 0 0.726102
0.217486 0.521473 8.98076
6.47311 0.303516 6.53591
6.83459 0.35243 6.17758
6.53296 0.389117 6.65018
6.2657 0.222413 5.93642
0.577606 0.263557 1.41367
5.64777 6.43244 3.26941
7.0015 0.392432 6.19526
6.02579 8.4347 0.145331
7.07873 0.314955 6.049
5.49573 1.51188 0.0840266
6.49651 0.25653 6.20377
6.93378 0.457386 6.15423
2.35399 9.28425 7.71175
7.19502 1.528 2.52436
9.68463 1.20644 5.8464
0.466674 1.79982 5.49758
6.01698 1.34907 7.38211
7.44848 0.202881 6.5734
0.37288 5.15362 5.11194
8.89814 9.40646 3.53949
6.14733 1.58186 4.40922
2.26299 1.87152 3.5407
2.35508 5.42811 5.32567
6.9092 5.44403 5.18863
0.611407 6.34468 9.35132
1.67402 6.39689 4.66071
0.239381 0.312044 9.05743
6.72715 0.359849 6.17027
6.36284 0.295592 6.65468
6.48396 9.35853 10
6.5617 0.0676246 5.84206
8.80052 1.71018 0.556337
3.38868 2.50898 9.26471
6.90456 0.14771 6.4644
7.17217 0.795569 5.34975
0 10 10
7.11349 1.9023 2.92105
5.83924 8.89534 9.09405
9.20501 0.993959 7.58934
3.20645 5.0742 0
5.27308 10 0
6.736 0.268383 6.28763
8.13555 1.59789 5.72848
1.19893 8.12876 7.40932
8.51227 5.29456 3.92563
1.62916 2.76831 2.43707
3.45011 3.93809 8.50834
0.250031 0.311101 8.95898
6.20373 0.39329 5.43019
5.25689 0.0542853 4.14305
8.78088 1.70996 8.8455
6.36462 0.227368 5.865
6.93432 0.558132 6.22888
1.63216 1.81795 1.69018
7.17652 0.456462 6.02201
6.67831 0.574222 6.41894
2.017 2.57526 9.28188
5.03373 7.55445 5.1577
5.01971 4.42976 1.0868
6.98915 0.472449 6.56638
3.9392 7.61164 8.90357
0.085053 6.26555 7.2368
6.42008 0.397764 6.14762
6.77143 0.0897528 6.41704
3.23503 3.19559 1.65637
0.218063 0.495751 9.18972
0.18578 0.570801 9.10332
6.50995 0.133508 6.20277
6.8983 0.393326 6.49394
7.53192 5.27713 0.741526
0.284158 0.535715 9.15078
1.91415 1.52638 3.59589
8.9365 4.69807 9.10265
8.61022 0.810551 2.37117
9.10474 1.52174 8.67715
7.71077 8.0844 8.55767
6.84304 1.08141 6.03002
6.6314 0.274 6.66656
6.96518 0.332136 6.03913
8.79132 1.71826 8.41097
0.267639 0.505107 8.91684
0.80475 3.16747 7.83868
3.5207 2.44134 7.87073
9.05472 0.756218 5.09126
6.86229 0.11188 5.99834
6.79425 0.179838 6.04514
3.23166 8.36725 3.28278
6.61406 0.0764173 6.37339
0 8.80727 5.30258
0.260022 0.513865 9.00245
6.64863 0.118701 5.84335
7.05397 0.353186 6.19766
8.75314 4.67901 7.82707
0 5.65832 8.53406
6.51541 0.405777 6.12981
6.73679 0.0678502 6.41071
1.75517 2.36099 7.14805
6.78128 0.207362 6.26299
1.62192 1.05948 4.08596
4.46649 2.52899 9.29943
6.80056 0.141022 6.24734
1.17788 7.43333 4.45811
7.17009 9.26847 4.56958
3.79195 6.7733 7.35138
POINT_DATA 400
SCALARS particleColor float 3
LOOKUP_TABLE default
1 0.0915318 0
1 0.900916 0
0.0949897 1 0.90501
1 5.96046e-08 0
1 0.147485 0
1 5.96046e-08 0
1 0.277466 0
1 0.804729 0
1 5.96046e-08 0
0.449898 1 0.550102
0.371327 1 0.628673
1 5.96046e-08 0
0 0.872612 1
0.471354 1 0.528646
0.839224 1 0.160776
0.742828 1 0.257172
1 0.360183 0
1 5.96046e-08 0
0 0.914745 1
1 5.96046e-08 0
1 5.96046e-08 0
1 5.96046e-08 0
1 5.96046e-08 0
0.385607 1 0.614393
0 0.784601 1
1 0.480532 0
1 5.96046e-08 0
1 5.96046e-08 0
1 0.29026 0
0.485178 1 0.514822
1 0.594066 0
1 0.578826 0
1 0.212666 0
1 5.96046e-08 0
0.972212 1 0.0277884
1 5.96046e-08 0
1 5.96046e-08 0
0.0861517 1 0.913848
0.546323 1 0.453677
0.241114 1 0.758886
1 5.96046e-08 0
1 5.96046e-08 0
1 5.96046e-08 0
1 0.624839 0
0.253055 1 0.746945
0.449112 1 0.550888
1 5.96046e-08 0
1 5.96046e-08 0
0.972484 1 0.0275162
1 5.96046e-08 0
0.679805 1 0.320195
1 5.96046e-08 0
1 0.299808 0
0.676211 1 0.323789
1 0.84189 0
1 0.768494 0
1 0.00386143 0
0 0.916519 1
0.747658 1 0.252342
1 0.626054 0
1 5.96046e-08 0
1 5.96046e-08 0
1 5.96046e-08 0
1 0.612155 0
1 5.96046e-08 0
1 5.96046e-08 0
1 0.519238 0
1 0.249193 0
1 5.96046e-08 0
0 0.656024 1
1 0.785531 0
1 5.96046e-08 0
1 0.575382 0
1 0.628514 0
0 0.579515 1
0.897875 1 0.102125
0.629051 1 0.370949
1 0.0210857 0
0.375501 1 0.624499
0.298207 1 0.701793
1 0.99277 0
1 0.129051 0
1 0.879023 0
0.930215 1 0.0697848
1 0.0350544 0
1 0.782283 0
0.690055 1 0.309945
1 0.418096 0
1 5.96046e-08 0
0 0.734069 1
0.850091 1 0.149909
1 5.96046e-08 0
0.0997291 1 0.900271
0.400372 1 0.599628
1 5.96046e-08 0
1 0.0991132 0
0.713042 1 0.286958
1 5.96046e-08 0
1 5.96046e-08 0
1 5.96046e-08 0
0 0.361605 1
1 0.375928 0
1 5.96046e-08 0
1 0.457924 0
0.0417319 1 0.958268
0 0.987112 1
1 0.997245 0
0.883483 1 0.116517
1 0.921138 0
0.304328 1 0.695672
0.592839 1 0.407161
0 0.69232 1
1 5.96046e-08 0
0.0618065 1 0.938194
0.362799 1 0.637201
1 5.96046e-08 0
1 5.96046e-08 0
1 5.96046e-08 0
1 5.96046e-08 0
1 5.96046e-08 0
1 0.260761 0
1 5.96046e-08 0
0.789367 1 0.210633
1 5.96046e-08 0
1 5.96046e-08 0
1 5.96046e-08 0
1 0.120008 0
1 5.96046e-08 0
0.74082 1 0.25918
1 0.656088 0
1 5.96046e-08 0
1 5.96046e-08 0
0.863136 1 0.136864
1 5.96046e-08 0
0.31255 1 0.68745
1 0.804466 0
1 0.434441 0
1 5.96046e-08 0
1 0.42113 0
1 0.143143 0
0 0.635685 1
1 5.96046e-08 0
0.855032 1 0.144968
1 0.39009 0
1 0.219885 0
1 0.7402 0
1 5.96046e-08 0
1 5.96046e-08 0
1 0.900865 0
1 5.96046e-08 0
0 0.470138 1
1 0.662875 0
0 0.971689 1
1 5.96046e-08 0
0.409123 1 0.590877
1 0.964495 0
0.386671 1 0.613329
1 0.0459213 0
0.60161 1 0.39839
1 5.96046e-08 0
1 5.96046e-08 0
1 5.96046e-08 0
0.879841 1 0.120159
1 0.947979 0
1 5.96046e-08 0
0.788224 1 0.211776
1 0.7665 0
1 0.740261 0
0.100397 1 0.899603
0.324371 1 0.675629
1 5.96046e-08 0
0.968571 1 0.0314292
1 5.96046e-08 0
0.609846 1 0.390154
1 0.329267 0
1 5.96046e-08 0
0 0.586494 1
1 5.96046e-08 0
1 5.96046e-08 0
0.154693 1 0.845307
0.607758 1 0.392242
0.975614 1 0.0243857
0.726866 1 0.273134
1 0.775854 0
1 5.96046e-08 0
1 5.96046e-08 0
0 0.203161 1
0.798971 1 0.201029
1 5.96046e-08 0
1 0.426785 0
1 5.96046e-08 0
1 0.466829 0
1 5.96046e-08 0
0.855391 1 0.144609
1 0.0304006 0
1 0.777097 0
0 0.839054 1
0 0.946032 1
1 5.96046e-08 0
0.738262 1 0.261738
0 0.722459 1
1 5.96046e-08 0
0.646307 1 0.353693
1 5.96046e-08 0
1 5.96046e-08 0
1 5.96046e-08 0
0.426434 1 0.573566
1 5.96046e-08 0
1 5.96046e-08 0
1 5.96046e-08 0
0 0.371068 1
1 0.303986 0
1 0.18966 0
1 0.865587 0
1 5.96046e-08 0
1 0.781765 0
0 0.703601 1
1 0.449611 0
1 5.96046e-08 0
1 5.96046e-08 0
1 5.96046e-08 0
1 0.3304 0
1 0.782964 0
0 0.346736 1
1 5.96046e-08 0
1 5.96046e-08 0
0.56546 1 0.43454
1 0.831926 0
0 0.497376 1
0.815727 1 0.184273
1 0.544406 0
1 0.0391023 0
0.508253 1 0.491747
0.827082 1 0.172918
0.805437 1 0.194563
1 5.96046e-08 0
0.17366 1 0.82634
0.0428758 1 0.957124
0 0.183029 1
1 0.645363 0
0 0.89918 1
0.639838 1 0.360162
1 5.96046e-08 0
1 5.96046e-08 0
1 5.96046e-08 0
0 0.886702 1
0 0.91642 1
1 0.749978 0
0.778631 1 0.221369
1 5.96046e-08 0
0 0.596248 1
1 5.96046e-08 0
1 5.96046e-08 0
1 5.96046e-08 0
1 5.96046e-08 0
0.693739 1 0.306261
0.928953 1 0.0710471
0 0.679452 1
1 5.96046e-08 0
1 0.609957 0
0.200405 1 0.799595
1 0.265136 0
1 0.684683 0
1 5.96046e-08 0
1 5.96046e-08 0
0 0.935467 1
1 5.96046e-08 0
1 5.96046e-08 0
1 5.96046e-08 0
1 0.499252 0
0 0.907695 1
1 0.482358 0
0.71946 1 0.28054
1 0.0496264 0
0.984739 1 0.0152611
1 0.991309 0
1 5.96046e-08 0
0.993487 1 0.00651264
0.874099 1 0.125901
0 0.837831 1
1 5.96046e-08 0
0.933226 1 0.066774
1 0.25921 0
0.3836 1 0.6164
1 5.96046e-08 0
1 0.300537 0
1 5.96046e-08 0
1 5.96046e-08 0
1 0.585423 0
1 5.96046e-08 0
1 5.96046e-08 0
1 0.0260139 0
1 0.930196 0
1 0.85983 0
1 5.96046e-08 0
0 0.499398 1
0 0.341897 1
0 0.960998 1
0 0.884896 1
0 0.502725 1
0.63373 1 0.36627
1 5.96046e-08 0
0 0.381276 1
0.93358 1 0.0664198
0 0.795368 1
0.382661 1 0.617339
0 0.388253 1
0 0.276785 1
1 5.96046e-08 0
1 0.639327 0
1 5.96046e-08 0
1 0.788288 0
1 5.96046e-08 0
0 0.950249 1
1 5.96046e-08 0
1 5.96046e-08 0
1 0.602579 0
0 0.910203 1
0.342528 1 0.657472
1 5.96046e-08 0
0.0588775 1 0.941123
1 0.500046 0
0 0.393536 1
0 0.512505 1
0 0.66909 1
0.658608 1 0.341392
0 0.640273 1
0.798934 1 0.201066
0.540014 1 0.459986
0 0.0811904 1
0.252967 1 0.747033
1 5.96046e-08 0
1 0.286119 0
0.0162791 1 0.983721
1 5.96046e-08 0
1 5.96046e-08 0
0.673593 1 0.326407
0 0.44215 1
1 5.96046e-08 0
0.930663 1 0.0693374
1 5.96046e-08 0
0.446631 1 0.553369
1 5.96046e-08 0
0 0.366985 1
0 0.14196 1
0 0.596631 1
0 0.529116 1
0 0.474922 1
0 0.556955 1
0.47604 1 0.52396
0.0506798 1 0.94932
0 0.989985 1
1 5.96046e-08 0
1 0.86221 0
0.45226 1 0.54774
0 0.212708 1
0 0.829228 1
1 0.852723 0
0 0.846883 1
0 0.409881 1
0.336904 1 0.663096
0 0.692693 1
0 0.798122 1
0 0.787767 1
0 0.792448 1
1 5.96046e-08 0
0 0.386816 1
1 0.739675 0
1 5.96046e-08 0
1 0.773181 0
0 0.228759 1
0 0.987108 1
1 0.364845 0
0.0526557 1 0.947344
0 0.984339 1
0 0.916077 1
0 0.684097 1
0.423079 1 0.576921
1 5.96046e-08 0
0 0.477295 1
0 0.585454 1
0 0.573341 1
1 5.96046e-08 0
0 0.926366 1
1 5.96046e-08 0
0 0.376786 1
0 0.668951 1
0.0296689 1 0.970331
1 5.96046e-08 0
1 0.725768 0
0 0.537077 1
0 0.903019 1
0.258315 1 0.741686
0.116191 1 0.883809
1 0.304646 0
0.195318 1 0.804682
0 0.927977 1
0.89382 1 0.10618
1 0.383183 0
0.575755 1 0.424245
