# vtk DataFile Version 3.0
Particle simulation
ASCII
DATASET POLYDATA
POINTS 400 float
9.91173 2.01558 9.86483
10 3.82658 2.7449
0.570359 1.64972 4.94374
1.77232 0.473719 1.18467
9.44931 0.997706 3.14779
2.4194 7.62647 7.30429
7.33646 0.679152 1.35381
8.18367 5.11261 1.49978
7.33008 7.47839 3.64105
5.49159 0.474756 5.50349
7.33137 3.22732 0.987176
5.18667 0.576429 4.1802
9.73119 7.64709 9.67064
7.86757 0.818692 1.13575
3.73372 2.5001 0.327049
8.49644 3.8691 8.38111
1.43794 6.60519 0.25738
3.8816 0.819429 2.09595
0.294917 0.883206 3.05007
4.98566 0 7.17628
1.75607 0.463409 1.01281
7.32732 0.225768 9.37194
8.462 4.50679 9.2393
4.96409 1.17882 3.0685
7.05381 0.470786 5.21416
3.0085 0.942366 2.14869
1.9876 5.13685 8.8742
2.47609 0.606465 1.13727
9.3405 0.914312 7.7769
3.93706 0.226724 0.523817
8.5015 7.82457 10
6.56876 2.33719 5.52333
8.54928 0.725997 7.61844
5.14242 1.0136 1.78124
4.30098 0.249518 3.12236
0.514805 2.2412 0.527147
6.75246 4.21508 5.11351
3.6513 0.580258 1.87709
6.22871 0.2128 2.15646
1.91789 2.43328 3.32302
5.09772 1.23705 3.21057
9.35732 2.61422 5.49882
7.58001 6.71531 8.19697
1.35873 3.55835 8.72751
6.7762 0.557538 6.38473
6.37536 0.291256 2.35232
4.24199 0.505846 6.78735
2.77802 0.137113 2.06471
5.88878 0.0351055 1.98793
3.40502 6.06076 5.31714
0.491621 3.85595 2.81068
7.55277 9.02899 5.69323
9.49388 0.480906 8.3186
5.25632 0.400157 5.43968
9.76723 0.686926 8.00614
5.9315 0.136661 1.69765
6.06632 0.450919 7.71066
1.30702 0.53958 4.31037
6.12992 0.425047 1.97833
5.61547 7.25599 3.49465
8.04588 4.7548 1.6821
5.35788 0.179178 8.08253
2.86567 0.296287 3.66962
5.19824 0.534793 5.6752
7.40975 7.1084 4.12223
4.46692 0.363126 0.421041
7.30896 0.66763 8.20525
0.57772 3.93893 2.67199
6.16725 0.441471 1.92393
6.00851 0.592986 9.14787
6.71702 1.08198 7.5241
3.30944 0.196338 1.3454
1.78667 8.18221 8.08087
5.38562 0.436529 5.44326
7.99596 0.566274 8.09716
6.8919 0.851743 5.06912
7.33052 0.660269 8.16527
5.47713 0.611668 9.08416
7.76822 2.13712 2.57395
0.675149 5.51053 9.36765
3.30652 0.594703 1.76574
3.07598 0.325275 1.95935
2.94747 1.19671 1.88664
2.2243 0.386587 1.977
5.68635 0.399598 7.99141
5.29795 0.59524 8.15602
6.05086 0.467999 8.23321
6.42975 1.56144 1.20525
7.85772 3.04447 0.978699
9.04504 0.465871 1.91556
3.53635 0.553296 1.4179
3.30806 0.457155 2.5975
0.628886 1.67545 8.28407
2.08643 0.457338 2.18831
5.60339 0.445977 8.09189
5.57256 0.353049 8.52557
5.26633 0.574458 8.40832
0.959278 0.00299025 3.73213
8.02551 0.397377 6.88765
9.0406 0.452044 1.94813
3.09998 0 2.22914
4.50212 1.13111 3.50995
0.58851 2.05089 0.661423
9.45632 0.652624 9.18616
8.56199 10 4.8965
3.4102 0.635907 1.80443
4.17184 0.911394 8.74476
6.02525 0.231681 1.58523
6.19292 0.176275 1.92559
9.43785 0.48531 2.17007
3.92005 4.652 8.99365
5.49748 0.796608 5.18441
2.01557 0.542043 1.22085
9.3129 0.346647 1.86779
3.21504 0.359738 1.91189
1.67956 0.270929 2.9471
5.4134 0.495323 8.46006
6.21886 0.130001 1.32614
6.16814 0.175737 1.9448
4.57081 1.00353 2.84506
3.69539 0.579742 2.11541
4.8134 1.64151 5.32373
7.69519 6.99773 9.12459
9.54358 0.326461 5.53144
8.17202 0.933563 8.0888
3.05885 0.217433 2.15343
3.10809 0.53734 1.50099
5.51315 0.409924 5.30771
5.65041 1.96645 1.1039
0.281477 0.537264 5.85003
3.68359 0.668803 2.17785
6.38152 1.12613 0.753807
5.79629 0.512404 9.06343
7.06792 0.454688 6.62903
6.71981 0.365334 1.59482
1.95588 0.634781 2.28041
9.89868 7.79347 0
5.42107 0.379879 5.57098
4.27741 1.06855 9.90193
9.8691 0.628755 8.24289
3.53971 0.897155 1.73007
6.81852 0.503014 8.15464
2.35491 2.95427 7.34865
4.53462 1.21945 2.84113
3.36758 0.89412 2.10755
2.28312 0.656111 1.74145
6.85542 0.33406 6.53225
1.08454 3.51276 1.77204
2.27588 0.526803 2.16453
3.74624 0.845451 1.85489
3.52852 0.892795 1.72598
8.10609 0.0936714 7.30062
4.34641 2.37943 0.339489
4.28842 0.919435 8.83494
3.77325 4.17098 0.39581
4.52144 0.240756 2.54969
7.87137 0.02522 7.08291
3.07504 0.255008 2.02364
6.78509 0.49751 6.85462
2.06761 0.541833 2.04138
0.532607 2.28035 0.780521
0.467212 1.58193 5.13631
5.50132 0.295875 8.31358
2.87626 0.408765 1.66537
0.378587 3.8523 2.9803
10 0.652158 7.99469
5.54266 0.308178 9.43089
5.1311 0.339397 8.93116
6.26805 4.54037 6.81171
0.953175 4.33873 4.33738
2.86977 0.226795 2.18487
3.67668 0.231609 1.1627
6.05829 0.463711 3.66751
3.71488 1.08399 2.427
1.91913 0.538728 1.94817
0.519546 2.56196 1.15061
5.64354 0.321781 8.34039
5.78966 0.742412 9.35417
5.09922 0.403986 8.9869
4.4229 1.76306 9.42851
2.18696 0.368123 1.99178
2.97281 0.711461 1.61147
8.49813 4.98222 8.49977
3.30328 1.23167 2.28504
5.26483 0.62706 8.77693
3.33516 0.50269 1.28308
1.85999 0.857367 2.08591
0.572844 1.78952 8.05367
6.63618 0.523325 7.27228
1.90325 0.521386 2.10803
2.14006 0.30627 2.00197
1.80316 0.49127 2.07092
5.41995 1.10192 9.27256
2.46202 4.12903 4.37302
0 7.60771 8.37526
2.08132 0.669988 2.20161
2.11844 0.345886 1.35974
5.91315 5.57553 8.69597
1.89363 0.583508 1.82391
3.33489 1.01921 2.67768
3.25084 0.438308 1.43147
6.20459 0.296526 2.2581
7.0069 0.592486 6.26902
4.24987 0.736965 8.55593
8.7193 1.41448 5.07209
5.35075 0.655273 8.30539
2.67084 0.241963 2.01229
1.34462 0.277069 3.74237
1.34205 0.356244 4.1543
9.41947 0.316042 1.8323
1.96143 0.487275 1.43113
6.74025 0.349623 1.57798
5.28163 1.05614 8.51652
9.94366 0.517103 8.09128
5.82277 0.027796 5.21238
5.36475 0.405068 8.36086
2.67762 0.260465 1.97913
2.83375 0.166593 2.12613
1.44839 0.891205 1.85625
9.26632 0.394962 1.9235
0.950751 3.83289 7.19826
7.46423 0.539789 7.98431
4.23999 1.13479 8.79658
3.17657 0.514968 1.96143
5.51736 0.570765 8.57175
3.40733 0.740961 2.06919
1.84135 2.61608 0.976152
2.086 0.722881 1.83363
3.13296 0.248886 1.79295
4.7336 0.119574 9.41564
5.09201 0.459219 5.62905
5.10175 0.303137 8.95479
6.75631 0.581895 6.76742
3.70033 0.706615 1.77595
4.88167 0.564229 9.32445
3.61944 0.0815118 2.72312
6.80997 0.708171 5.993
1.89842 0.111316 1.50484
1.86255 0.744289 2.00193
1.48401 0.390938 3.99187
2.14776 0.282467 1.23153
2.76885 1.06904 1.71845
3.57026 0.189224 1.82607
2.23474 0.682834 1.60234
5.23147 0.357164 8.44085
2.67353 0.459288 1.43684
3.66869 0.108305 2.13776
4.82727 1.03714 8.44531
5.62637 0.183096 1.94036
5.72791 0.564227 8.60367
3.26229 0.640486 1.4052
4.96404 0.798013 0.428018
5.78016 0.693237 8.80773
4.06456 0.620967 2.46178
7.01096 0.495125 7.32314
3.43432 0.906066 1.89235
9.44835 0.653306 2.20028
4.81851 0.860958 8.85228
6.29055 0.0978851 1.88038
5.78102 0.476306 8.615
2.27529 0.351485 1.88202
3.536 9.84263 6.229
4.28828 0.989631 8.57714
6.52326 0.989894 1.1746
5.03973 0.752363 8.88926
1.5271 3.31992 9.38661
5.0044 0.201581 0.212495
5.62683 0.433598 8.93997
6.93035 0.515938 6.93238
3.295 0.26503 1.47507
3.64306 0.679696 1.4079
5.38377 4.22761 4.30616
4.46287 0.670005 2.32582
5.21867 0.96359 0.51037
5.81943 0.777382 8.84446
4.42292 1.24428 8.37715
5.5981 0.634538 5.56388
4.08525 8.6096 7.01036
7.22367 0.688813 6.16958
2.06176 0.284184 2.0977
9.64275 0.473251 2.01766
6.36124 0.138186 1.62891
6.96287 1.9804 1.10927
5.52464 0.654014 6.00318
5.92857 0.666935 3.83133
6.97016 0.274356 7.34524
3.22021 0.359653 1.86706
1.84289 0.252907 1.68811
9.55889 0.558458 8.03714
9.87759 5.00323 1.4452
8.85384 0.085962 1.73677
6.20904 0.317063 1.95332
3.62143 0.549582 1.71649
5.30491 0.558675 5.69215
5.72051 0.705521 8.3279
5.73452 0.611647 8.84441
3.23454 0.677422 1.80654
3.28097 0.580982 1.73808
3.82695 0.477181 0.964927
2.74337 0.34655 2.30656
9.38069 0.508453 2.0149
9.61174 0.541812 8.25358
1.44003 0.510874 3.32836
6.39682 0.465591 2.28243
2.10368 0.642316 2.1525
4.73915 0.470904 2.02436
2.32833 0.707087 2.1958
1.94095 0.551557 1.81495
1.64767 0.357876 3.19656
3.46243 0.632132 1.69564
7.32922 1.11941 5.74323
8.03217 0.179697 7.36
6.99024 0.487085 6.90689
2.14188 0.608549 1.24921
3.36341 0.143412 1.09269
7.0901 0.522608 6.88633
2.72411 0.382364 2.51459
6.79697 0.105839 1.92851
6.03761 0.345572 1.81996
3.19971 0 1.57965
5.80383 1.14416 8.65283
3.30769 0.72859 1.06715
5.39011 0.506852 8.46443
2.00857 0.752341 2.43478
9.12636 0.250234 1.92011
9.21817 0.348137 1.67961
2.34901 0.101795 1.41535
6.48882 0.493985 2.23226
8.28953 0.411091 1.65276
2.12281 0.393564 1.38726
5.79355 1.20528 8.92355
3.01513 0.16682 1.9954
5.32097 0.812732 8.66922
3.23762 0.633711 1.78354
9.21291 0.303771 1.95327
4.30177 1.1655 9.12292
4.68336 0.382762 2.54388
2.18729 0.0493813 2.25757
9.19921 0.260966 1.79073
2.99566 0.021276 1.38721
5.35198 0.630838 8.45888
2.93554 1.05328 1.73206
5.66125 0.767121 8.86449
4.45576 1.22937 8.7585
3.1199 0.643081 1.77125
3.40834 0.530018 1.79409
5.83289 0 1.98849
2.23581 0.163459 2.067
3.37759 0.477224 1.88366
3.27933 0.265637 1.02091
3.24741 0.730391 1.20423
3.27841 0.0821987 1.29576
5.33877 1.068 9.27217
4.34348 1.2478 8.78135
2.33073 0.182411 2.32369
2.15499 0.255791 1.56457
5.9007 0.176469 2.1023
6.11783 0.463982 8.36447
2.74493 0.341328 1.80272
3.09116 0.365997 2.06147
6.04364 0.414392 1.98095
7.49313 0.616271 8.38172
5.52654 0.571836 8.69057
2.15442 0.381633 2.11479
3.94261 0.898561 1.66775
6.92999 0.570451 6.95873
5.50734 0.374339 8.45754
6.2184 0.66054 8.164
5.76676 0.307265 8.75353
3.68359 0.383658 1.16879
6.05922 0.396785 1.96715
8.10237 0.0848598 7.25596
5.67885 0.579669 9.09693
2.01688 0.117289 1.40426
3.6243 0.442721 1.46245
6.70281 0.482163 6.75867
5.75027 0.777462 8.6433
5.32508 0.212766 8.85448
5.47386 0.601698 8.40472
3.14296 0.3602 2.14526
1.85402 0.579413 2.31014
2.08844 0.374569 2.08966
5.48097 0.628046 8.52201
3.38758 0.497747 1.97933
5.41405 0.690368 5.58047
5.51007 0.621175 8.27458
3.54347 0.458602 1.4902
3.02055 0.343183 1.80034
4.77363 0.808815 6.05586
6.74912 0.375255 1.79073
1.80726 0.558281 2.33411
2.24721 0.283691 1.99425
5.44187 0.430803 9.02904
3.70136 0.684501 1.89966
5.4452 0.636024 5.53138
4.32195 1.05082 8.73297
3.51982 0.344403 1.39545
2.8123 0.438285 1.40984
9.92426 0.111222 1.86923
6.73198 0.357387 1.80513
POINT_DATA 400
SCALARS particleColor float 3
LOOKUP_TABLE default
0 0.440839 1
1 5.96046e-08 0
0 0.56999 1
0 0.53429 1
0 0.18691 1
1 0.820678 0
0 0.406512 1
0 0.886692 1
0.488603 1 0.511397
0 0.507449 1
0.143617 1 0.856383
0 0.764305 1
0 0.991854 1
0.395207 1 0.604793
0 0.479642 1
0 0.707259 1
0 0.210235 1
0 0.370275 1
0.701714 1 0.298286
0.0737442 1 0.926256
0 0.445368 1
0.46665 1 0.53335
0 0.983428 1
0.351019 1 0.648981
1 0.74908 0
0 0.469418 1
0.645794 1 0.354206
0 0.663538 1
0 0.804281 1
0 0.294193 1
0.0983617 1 0.901638
0.623763 1 0.376237
0 0.425707 1
0 0.976427 1
0 0.393165 1
0 0.865543 1
1 5.96046e-08 0
0 0.414421 1
0.0100853 1 0.989915
0 0.388773 1
0.14995 1 0.85005
0 0.955176 1
0.039336 1 0.960664
0 0.66036 1
0 0.582167 1
0 0.337654 1
0 0.785151 1
0 0.573282 1
0 0.398089 1
1 0.687797 0
0 0.539352 1
0 0.266678 1
0 0.379553 1
0 0.877447 1
0.209936 1 0.790064
0 0.393778 1
0 0.819391 1
0 0.617778 1
0 0.931783 1
0.968836 1 0.031164
0.59533 1 0.40467
0 0.579597 1
0 0.317843 1
0 0.253514 1
0.260647 1 0.739353
0 0.948168 1
0 0.455137 1
0 0.930052 1
0 0.385654 1
0 0.459432 1
0 0.527429 1
0 0.43163 1
1 5.96046e-08 0
0 0.133572 1
0 0.907835 1
0 0.653382 1
0 0.833066 1
0 0.611766 1
0 0.602187 1
0.24776 1 0.75224
0 0.719345 1
0 0.682714 1
0 0.874731 1
0 0.44669 1
0 0.269118 1
0 0.554781 1
0 0.976911 1
0 0.700144 1
0 0.931408 1
0 0.866596 1
0 0.914485 1
0 0.386618 1
0 0.340868 1
0 0.497706 1
0 0.462842 1
0 0.861627 1
0 0.891498 1
0.256319 1 0.743681
0 0.901178 1
0 0.659225 1
0 0.600766 1
0.0248328 1 0.975167
0 0.388981 1
0 0.437712 1
1 0.350781 0
0 0.267059 1
0 0.664032 1
0 0.604408 1
0 0.384729 1
0 0.913311 1
1 0.566936 0
0.0509862 1 0.949014
0 0.855772 1
0 0.765978 1
0 0.294856 1
0 0.824312 1
0 0.292295 1
0 0.56446 1
0 0.218824 1
0 0.793086 1
0 0.365704 1
1 5.96046e-08 0
0 0.87235 1
0.562417 1 0.437583
0 0.435078 1
0 0.549247 1
0 0.680621 1
0 0.769257 1
1 0.782403 0
0.354415 1 0.645585
0 0.683693 1
0 0.868499 1
0 0.380392 1
0 0.638215 1
0.75813 1 0.24187
0 0.539448 1
0.571839 1 0.428161
0 0.332974 1
0 0.358132 1
0 0.416886 1
0 0.366997 1
0 0.950842 1
0 0.754525 1
0 0.947416 1
0 0.656138 1
0 0.443409 1
0 0.29036 1
0 0.507986 1
0 0.704155 1
0.225696 1 0.774305
0 0.361507 1
0 0.440262 1
0 0.979718 1
0 0.33497 1
0 0.142494 1
0.0375423 1 0.962458
0 0.476119 1
0 0.601403 1
0 0.435466 1
0 0.434181 1
0.29817 1 0.70183
0 0.835282 1
0 0.702478 1
0 0.560411 1
0 0.325301 1
0 0.717627 1
0 0.457878 1
0 0.412281 1
0 0.342722 1
1 5.96046e-08 0
0 0.665581 1
0 0.621978 1
0 0.900774 1
0 0.494606 1
0 0.948551 1
0 0.74599 1
0 0.175712 1
0 0.581111 1
0 0.784977 1
0.227285 1 0.772715
0 0.316654 1
0 0.644289 1
0 0.853388 1
0 0.902417 1
0 0.876133 1
0 0.837413 1
0 0.508223 1
0 0.744682 1
0 0.628766 1
0 0.481486 1
0 0.309982 1
0 0.706044 1
0 0.556437 1
0 0.266627 1
0.270099 1 0.729901
0 0.377078 1
0 0.486296 1
0 0.40232 1
0 0.709971 1
0 0.600512 1
0 0.544169 1
0 0.444923 1
0.00605664 1 0.993943
0 0.571132 1
1 0.771623 0
0 0.707271 1
0 0.489714 1
0 0.48898 1
0.056257 1 0.943743
0 0.396874 1
0 0.259034 1
0 0.257408 1
0 0.606676 1
0 0.537825 1
0 0.460635 1
0 0.776098 1
0 0.48041 1
0 0.860306 1
0.300679 1 0.699321
0 0.748647 1
0.458431 1 0.541569
0 0.474007 1
0 0.814457 1
0 0.49764 1
0 0.699515 1
0 0.477253 1
0.319855 1 0.680145
0 0.740478 1
0 0.699257 1
0 0.313865 1
0 0.607392 1
0 0.415927 1
0 0.70964 1
0 0.152037 1
0 0.279553 1
0 0.524404 1
0 0.434656 1
0 0.603526 1
0 0.967157 1
0 0.904685 1
0 0.627648 1
0 0.733813 1
0 0.731173 1
0 0.541342 1
0 0.61844 1
0 0.871222 1
0 0.693537 1
0 0.341155 1
0 0.560972 1
0 0.227734 1
0 0.442771 1
0 0.54742 1
0 0.293561 1
0 0.500775 1
0 0.30926 1
0 0.147857 1
0.104242 1 0.895758
0 0.512308 1
0 0.489641 1
0 0.259436 1
0 0.578888 1
0 0.675894 1
0 0.945433 1
0.0181894 1 0.981811
0 0.364135 1
0.675651 1 0.324349
0 0.454711 1
0 0.748068 1
0 0.81657 1
0 0.194632 1
0 0.29584 1
0.311154 1 0.688846
0 0.952399 1
0.193015 1 0.806985
0 0.354609 1
0 0.374111 1
0.182783 1 0.817217
0 0.326253 1
0 0.587269 1
0 0.524609 1
0 0.387519 1
0 0.511705 1
0 0.768212 1
0.0887361 1 0.911264
0.246502 1 0.753498
0 0.694557 1
0 0.671745 1
0.0590403 1 0.94096
0 0.537616 1
0 0.799608 1
0 0.77149 1
0 0.48411 1
0 0.784061 1
0 0.406778 1
0 0.569168 1
0.0791819 1 0.920818
0.293794 1 0.706206
0 0.874331 1
0 0.645593 1
0 0.380321 1
0 0.439889 1
0 0.642533 1
0 0.667259 1
0 0.623047 1
0.102209 1 0.897791
0.318948 1 0.681052
0.0398796 1 0.96012
0 0.827146 1
0 0.2899 1
0 0.742192 1
0.0518975 1 0.948103
0 0.401679 1
0 0.576165 1
0 0.264895 1
0 0.450701 1
0.388308 1 0.611692
0 0.821281 1
0.131135 1 0.868865
0 0.637756 1
0 0.345532 1
0 0.83382 1
0.101959 1 0.898041
0 0.775299 1
0 0.827051 1
0 0.882653 1
0 0.245209 1
0 0.176304 1
0 0.757113 1
0 0.140474 1
0 0.666275 1
0 0.617151 1
0 0.497436 1
0 0.674747 1
0 0.3476 1
0 0.81361 1
0 0.425325 1
0 0.145409 1
0 0.44947 1
0.582381 1 0.417619
0 0.479388 1
0.14736 1 0.85264
0 0.418742 1
0 0.682058 1
0 0.467381 1
0 0.355152 1
0 0.641628 1
0 0.368404 1
0 0.786284 1
0 0.509652 1
0 0.809093 1
0 0.91382 1
0 0.57449 1
0 0.36273 1
0 0.468501 1
0 0.51337 1
0 0.624376 1
0.0465138 1 0.953486
0 0.665315 1
0 0.594867 1
0 0.553275 1
0 0.640529 1
0.0318029 1 0.968197
0 0.909787 1
0.104919 1 0.895081
0 0.706211 1
0 0.340097 1
0 0.153889 1
0 0.414578 1
0 0.481494 1
0 0.76353 1
0 0.734778 1
0 0.467739 1
0 0.563556 1
0 0.926679 1
0.18402 1 0.81598
0 0.77437 1
0 0.458214 1
0 0.385601 1
0.0268586 1 0.973141
0.0471809 1 0.952819
0 0.17439 1
0 0.489276 1
0 0.431001 1
0 0.560166 1
0 0.445354 1
0 0.801479 1
0 0.369801 1
0 0.38861 1
0 0.991556 1
0 0.470586 1
0 0.243636 1
0 0.505603 1
0 0.796752 1
0 0.756704 1
0 0.369404 1
0.0373395 1 0.96266
0 0.495749 1
0 0.814544 1
0 0.494523 1
0 0.398077 1
