# vtk DataFile Version 3.0
Particle simulation
ASCII
DATASET POLYDATA
POINTS 400 float
2.18221 2.24748 5.34917
8.05368 7.12123 1.899
9.44286 7.6678 5.97315
6.40459 9.94205 4.98924
7.31347 9.87173 1.60395
7.77787 7.05413 0.677073
8.19454 0.202589 9.81307
5.28837 4.53228 3.58286
1.68247 3.89083 7.29176
1.38408 4.57325 2.15493
9.62927 1.66599 6.06546
6.17184 5.64646 8.51021
4.57362 6.37716 6.72694
4.73784 4.618 7.60575
5.05455 6.21564 4.31274
5.17034 0.837241 0.947305
4.52195 10 9.79168
3.88415 0.158403 1.30216
1.30054 4.46698 6.85294
2.3935 5.27387 1.07847
3.03585 0.401383 1.02926
3.53366 1.4689 7.05761
7.64985 5.54413 5.73453
8.35556 4.0404 4.45225
9.50068 7.49842 2.83895
9.5557 8.11076 2.00675
9.8353 8.18178 5.96693
0 3.94052 9.67464
9.51794 2.1779 8.55546
5.51526 8.91596 7.3553
0.76753 4.30648 8.12091
7.54986 7.2288 2.07219
6.39139 7.92926 5.14639
1.99559 1.73116 8.79899
2.7448 5.31183 0.554922
3.75475 2.78378 0.605235
9.8211 8.77663 0.867228
3.16098 0.277412 0.825261
4.38035 3.61671 2.04728
0.263575 5.59276 7.98316
0 6.2199 0
3.98416 9.34295 7.28583
6.57689 9.52927 2.69871
8.07476 3.12544 0.946423
9.87542 0.915186 1.84579
0.762911 5.69751 4.2642
4.77271 5.18473 9.36332
9.8121 1.71396 3.23062
6.26931 0.864553 1.30537
4.25676 2.99155 4.50278
4.35243 0.171285 9.2188
6.90021 7.12063 0
8.82861 3.86183 8.09732
5.40561 5.57755 1.70584
0.502735 6.272 0.179538
5.72581 0.403897 2.16435
4.13077 3.79593 4.95793
8.6234 1.11101 1.54084
8.40379 4.12324 4.75133
5.3132 9.49209 3.81308
0.972277 3.39461 9.04346
2.6553 9.96953 3.5207
3.08867 7.39217 0.352222
7.55572 7.31178 0.87253
7.54986 5.58416 5.15827
5.74241 2.00581 2.88437
7.40423 0.859923 4.36756
5.49899 3.73413 2.3296
2.22979 1.0484 6.12249
9.28776 8.76598 1.2352
0.101303 2.13664 0.825361
6.38717 3.35622 1.41426
9.26855 5.84362 9.70306
3.38963 0.774166 2.59598
8.23378 7.95147 9.95061
1.19022 3.02747 7.4382
3.05847 4.11927 2.91235
0.784839 6.6009 4.95521
2.31598 7.13628 3.30034
6.13717 8.10461 3.89181
3.43738 0.17763 1.17388
8.32379 8.50939 7.04034
7.91575 0.776349 9.21153
10 0.914793 9.7462
9.50691 3.71247 6.5588
0.0080361 8.74657 8.90087
4.78236 0 3.25502
3.28442 1.13283 8.92606
8.15578 3.84793 8.19558
1.10151 6.54592 4.61408
3.45184 0.332179 1.17728
6.60605 6.94537 2.80199
9.59268 3.81813 6.65514
3.5411 0.519622 9.60944
9.22317 5.21407 3.03624
9.28801 8.41032 8.18492
0.992219 2.30188 0.29383
8.05706 8.56377 1.39092
4.54267 4.13774 9.19395
5.4621 6.32504 6.06668
3.01996 0.808201 0.439235
7.43925 2.59495 9.57214
4.69373 3.50625 1.64079
0.112241 5.76525 1.53454
7.95417 7.36555 9.823
0.0782423 3.88481 9.10025
0.751193 6.02383 0.727448
8.55903 1.20086 3.19773
9.65531 2.52925 6.24708
6.18219 0.74162 9.13666
2.62582 4.21345 6.91287
1.45033 1.89521 9.44172
5.0944 0.893679 9.37024
2.50136 2.18473 1.90167
2.4964 0.530081 1.96703
8.56703 4.18601 7.17623
3.22871 0.599165 9.47234
8.40661 3.44165 4.94834
8.89784 2.07573 9.84405
6.22426 5.65784 6.0929
2.77585 0.771113 0.486278
2.52522 4.46684 7.35486
4.80569 9.94747 8.31741
7.56423 2.6648 9.56892
8.37807 2.90003 0.515533
3.12361 0.402831 1.39192
0.666649 7.41927 0.985958
1.70294 1.86459 8.37346
9.54562 2.81065 6.32581
1.4958 4.75166 4.63099
3.7365 7.30785 7.32816
0.866044 3.99784 7.75575
3.20747 5.11212 9.44109
9.77294 2.21171 0.302762
0.261044 0.328866 5.2037
2.87179 1.46003 9.17459
1.0815 1.06965 8.83632
4.84868 0.679141 8.01825
3.33412 5.9436 1.70384
1.9675 3.59533 0.984346
2.95205 0.332103 1.12265
4.15073 3.54622 3.63827
7.28249 9.68273 10
6.7986 10 10
2.47482 0.734514 1.67397
1.61321 3.55953 7.87126
3.70413 0.0603706 4.54053
6.75167 2.80623 0.692981
4.59478 2.41854 1.66902
7.56129 1.61225 3.14492
3.08806 0.483998 1.35369
0.429553 1.20835 9.36445
2.26376 2.92921 9.79754
3.20468 0.209123 1.23555
3.57742 2.90583 1.40089
5.66696 0.368071 1.65827
3.2904 7.68342 5.34454
2.97058 7.78593 7.18104
8.1302 7.3935 9.69399
0.22671 2.94524 2.99751
3.96734 0.52675 3.4316
8.3863 3.65014 9.73011
2.64035 4.06616 9.98252
0.666643 2.86039 8.2636
7.98315 1.60063 1.38678
7.74736 8.7889 4.94252
8.20313 6.57324 9.52026
4.39424 5.36918 7.57647
8.98684 6.36587 2.06998
4.34486 1.40989 0
3.25077 0.246747 0.821073
3.45844 8.31904 4.47995
3.74868 0.0676208 4.27838
5.93273 1.35021 1.43907
2.80368 0.780088 5.1675
6.41879 9.3761 1.93491
0.0415183 0.728434 8.91224
7.6229 0.906501 4.35554
2.40195 2.75096 2.1199
7.83838 3.38879 2.4333
3.34807 0.280676 1.32782
6.79465 5.57333 0.691533
8.04798 6.41185 10
4.53613 9.51195 6.31297
6.3611 9.51186 1.19677
6.57066 1.77704 2.5472
3.80045 0.102159 1.38103
1.36602 1.35893 9.07829
5.59049 0.220355 2.16949
2.29414 0.98488 1.8928
3.37522 0.372667 1.44952
3.48967 0.118077 0.550807
6.78329 7.30263 5.25934
9.24344 2.18205 1.81869
4.3485 10 3.84221
3.03339 0.318786 1.16077
1.00404 1.45863 0.324797
3.24885 0.592841 9.66798
3.55379 0.181135 0.578647
3.35672 0.103486 1.47322
3.37922 0.320468 0.908536
7.63794 0.996512 1.61261
2.88597 4.68501 8.8754
5.68456 0.782578 5.15346
8.90391 7.43186 9.25229
1.26613 2.12224 8.0802
3.17822 0.20277 0.867881
2.25736 0.350914 3.86851
7.11901 0.565995 5.98875
1.48947 2.49766 9.48809
3.2549 0.588881 1.08582
3.69999 0.463941 1.59756
5.15612 9.27395 7.44922
5.60984 2.83014 8.54176
6.93432 1.81026 8.96296
2.80196 0.108441 8.82097
2.96066 0.470538 0.750907
2.7422 0.286543 0.79065
2.72393 5.73804 8.84668
2.79161 0.0779302 1.08329
1.6136 1.94851 2.78078
1.47495 6.25811 9.35043
4.2712 2.18023 5.83877
3.29586 0.0570758 0.375248
7.34155 6.86376 5.33162
7.28009 7.25741 9.06862
3.49345 5.76594 9.44227
3.32991 0.465865 1.0932
3.49667 0.639048 1.35189
9.78133 9.89602 6.40189
1.72255 4.38567 7.48461
8.27856 1.29323 9.32384
0.466344 0.105281 1.19017
3.17253 0.599165 1.54049
3.16852 0.396972 9.35867
3.58434 5.70291 9.28498
8.33352 4.21438 7.21939
0.525376 3.10322 4.4697
3.0419 0.622732 1.58389
6.75003 7.02307 9.4233
3.53879 0.215815 1.28668
3.79631 0.258405 1.62347
3.27274 0.280686 1.31263
3.15882 0.580671 0.977632
4.31343 0.124607 8.24137
2.04117 0.324513 8.09706
3.16783 1.03089 5.3828
1.89804 1.10291 1.93409
7.14955 2.26613 9.68066
2.05796 1.02118 3.82363
3.92831 0.0759592 1.1108
7.04829 7.24422 2.24767
3.10327 0.414792 8.57211
3.10931 1.05947 8.18162
6.99262 1.03469 0.512969
3.33257 0.217974 1.79497
9.68046 2.66625 1.00127
2.98466 0.466729 9.27508
0.656897 6.0956 9.81311
3.11054 0.482279 9.31536
3.50382 0.184167 1.40705
1.14277 2.52849 2.33879
5.61601 1.1282 5.52856
6.64843 2.60467 1.50929
3.37315 0.690609 9.14085
8.04872 7.95097 7.9638
7.58751 0.0551117 0.422673
3.19971 0.562078 9.5675
2.69891 4.00389 6.56661
2.9152 0.209872 1.25311
3.79108 0.55976 1.18147
6.60396 7.35183 4.92568
8.25474 4.70118 1.87912
4.13094 7.42566 1.9789
6.80629 1.92499 2.86419
4.11577 2.32371 5.65424
7.32985 5.8825 0.137383
9.59301 9.05168 5.82418
1.78319 9.40065 3.56706
3.21298 0.432047 1.08097
4.21105 0.681818 3.98691
7.11386 0.721066 0.593539
9.97502 2.19371 3.73412
8.22937 1.7157 5.19114
9.52704 9.71306 4.60914
6.7153 9.11317 7.00509
3.48687 0.347297 1.21577
3.71762 0.117582 7.19816
1.67635 2.31083 4.35108
2.77421 5.26185 4.33694
1.84946 4.22811 1.72806
8.03732 2.29649 2.07294
3.73644 0.417672 1.68924
0.970287 0.147108 6.49984
4.47242 0.16783 8.09527
3.30397 0.798057 8.985
3.37413 0.430136 0.884184
3.59233 0.46306 0.829354
4.16776 3.96722 4.98675
2.96448 0.329599 1.16586
9.0167 0.188017 7.74763
5.88913 1.25992 4.98531
9.33139 3.14976 9.78056
5.87594 2.55621 0.329673
3.15327 0.205651 1.35328
0.916552 1.06665 6.29704
3.15533 0.318149 0.275479
3.05793 0.0610876 1.20938
2.35078 0.963565 1.8487
7.18732 6.03541 0.401971
4.2433 1.54476 9.46262
0.480975 2.38735 1.96652
3.0798 4.02533 6.62923
3.13893 0.532702 1.21405
8.12264 0.931943 8.7045
2.56199 0.598567 5.49367
1.07664 2.44566 6.33963
0.0328881 5.90534 9.79869
8.55794 1.66969 5.66967
4.26928 5.34507 0.922054
3.16044 0.281202 8.98002
1.15267 1.83773 0.0502174
3.07276 0.311479 8.38442
3.82734 0.593865 1.42983
4.12412 0.763195 3.98186
3.99431 9.22523 0.283631
3.29749 0.358205 0.521103
7.36414 6.612 9.65952
9.14729 9.94548 9.90736
3.47623 0.0875026 1.54339
9.5972 1.82794 8.97477
2.72273 0.286758 1.24255
4.3377 0.88487 9.32539
3.22973 0.38358 1.70324
6.88591 0.624253 0.546655
4.76673 6.81411 5.64223
0.68908 6.34642 9.92156
3.32262 0.116827 1.21263
8.78267 6.76257 1.76315
8.07821 1.75408 9.13837
0.427639 1.25961 9.05849
8.21104 3.95862 9.31261
4.30871 0.869087 9.19741
3.15195 0.52209 9.41748
3.57007 0.239875 1.18571
3.15181 0.361062 1.7079
7.51724 0.647558 0.51962
3.54827 0.238201 1.36521
3.27944 0.359901 0.675993
7.80368 7.91523 9.89079
2.91258 0.694274 0.397346
3.2313 0.579251 1.17075
3.78754 0.0403475 0.554344
3.37243 0.352795 8.80093
2.95975 0.268887 0.951731
3.6913 0.339891 1.15152
4.10731 0.794073 3.4731
4.06023 0.823495 8.78926
2.50526 0.310082 1.66877
3.39612 0.394751 1.63624
6.78536 0.716392 0.514592
3.19283 0.37312 9.24398
3.44496 0.48275 9.12148
3.194 0.433641 1.66293
3.15326 0.112268 0.817255
6.94188 1.36445 0.284708
3.14793 0.305249 9.48839
1.53923 3.53556 6.28337
3.08158 0.268153 9.5829
7.48441 0.685313 6.49238
6.85558 0.696993 0.600247
4.07818 6.51625 3.0448
4.23685 0.651045 9.74013
3.36383 0.703633 1.5154
3.57118 0.384862 0.913274
7.23174 0.777605 0.987954
3.30298 0.618427 8.39274
3.45364 0.614541 9.54169
4.07939 0.416131 9.30837
3.48321 0.151417 1.55783
3.77514 0.201119 1.46885
2.85103 0.281352 1.33569
4.03353 0.438647 9.32247
2.95483 0.0505237 1.20083
0.905152 0.882539 6.13557
3.15963 0.5002 9.3726
3.40828 0.394119 0.871446
3.397 0.298183 1.31605
3.98596 8.20626 3.9191
6.81189 1.13105 0.569441
3.4932 0.0611815 1.60206
3.19663 0.292117 1.33176
3.4974 0.51201 9.23171
3.07617 0.497026 1.18581
0.845456 0.303051 6.08842
3.17767 0.484102 9.33683
3.42944 0.384072 0.969681
3.01958 0.898576 4.83586
7.4644 0.883766 0.302273
6.8582 0.43865 0.644758
POINT_DATA 400
SCALARS particleColor float 3
LOOKUP_TABLE default
0 0.708616 1
1 0.925334 0
0 0.69536 1
1 5.96046e-08 0
1 5.96046e-08 0
0.960659 1 0.0393407
1 0.0371147 0
0.426736 1 0.573264
1 0.392045 0
1 5.96046e-08 0
1 0.159576 0
1 5.96046e-08 0
0.73585 1 0.26415
1 0.400604 0
1 5.96046e-08 0
1 0.742525 0
1 0.813512 0
0 0.381825 1
1 0.225098 0
1 5.96046e-08 0
0 0.565416 1
0 0.875805 1
1 0.848071 0
0.393674 1 0.606326
1 0.719005 0
1 5.96046e-08 0
0.209754 1 0.790246
1 0.439342 0
0.397701 1 0.602299
1 0.636014 0
0 0.868477 1
0.167699 1 0.832301
1 5.96046e-08 0
1 0.953254 0
1 0.613927 0
1 5.96046e-08 0
1 5.96046e-08 0
0 0.487937 1
0.353212 1 0.646788
1 0.489115 0
1 5.96046e-08 0
0.768747 1 0.231253
1 0.122921 0
1 0.563745 0
0 0.927022 1
1 5.96046e-08 0
0 0.965505 1
1 0.82844 0
0 0.414147 1
1 5.96046e-08 0
0.413854 1 0.586146
0.508837 1 0.491163
0 0.673496 1
0.98921 1 0.0107904
1 0.652623 0
0 0.642854 1
1 0.471228 0
0.352653 1 0.647346
1 0.883371 0
0.0765702 1 0.92343
0.99699 1 0.00301003
1 0.329157 0
1 0.745247 0
1 0.458971 0
0.925044 1 0.0749563
1 5.96046e-08 0
0.683362 1 0.316638
1 5.96046e-08 0
0.280501 1 0.719499
0.476321 1 0.523679
1 0.765349 0
1 0.505775 0
1 0.763846 0
0.176526 1 0.823474
0 0.768879 1
0.760721 1 0.239279
0.0595045 1 0.940495
0 0.780258 1
0 0.58513 1
0 0.870159 1
0 0.562995 1
0.0268165 1 0.973184
1 0.602218 0
1 0.120041 0
0.807422 1 0.192578
0 0.759279 1
1 5.96046e-08 0
1 5.96046e-08 0
0.63522 1 0.36478
0.0322142 1 0.967786
0 0.658941 1
0.00378219 1 0.996218
0.431393 1 0.568607
0.14592 1 0.85408
1 0.473286 0
0.405614 1 0.594386
1 5.96046e-08 0
1 0.181831 0
0.22005 1 0.77995
1 0.622371 0
0 0.5473 1
0 0.533373 1
0.74124 1 0.25876
0.796536 1 0.203464
0 0.905936 1
0.521667 1 0.478333
0.0748085 1 0.925191
0 0.709688 1
0.606326 1 0.393674
1 0.312777 0
1 5.96046e-08 0
1 5.96046e-08 0
1 0.252015 0
0.539071 1 0.460929
0 0.522681 1
1 5.96046e-08 0
0 0.561154 1
1 0.964759 0
0.255417 1 0.744583
0.588962 1 0.411038
0 0.428634 1
1 5.96046e-08 0
1 0.781571 0
0.504877 1 0.495123
0 0.753866 1
0 0.614164 1
1 0.696037 0
0 0.0955502 1
0.409409 1 0.590591
0.0230612 1 0.976939
0.366467 1 0.633533
1 0.43031 0
0 0.84681 1
0.471727 1 0.528273
0 0.477905 1
1 5.96046e-08 0
1 5.96046e-08 0
0 0.671868 1
1 5.96046e-08 0
0.140533 1 0.859467
0 0.690309 1
1 5.96046e-08 0
1 5.96046e-08 0
1 5.96046e-08 0
0 0.537623 1
1 0.917227 0
1 5.96046e-08 0
0.414386 1 0.585614
0.686271 1 0.313729
1 0.666229 0
0 0.0842889 1
1 5.96046e-08 0
0.479458 1 0.520542
0 0.990815 1
1 5.96046e-08 0
0 0.850309 1
1 0.95589 0
1 0.0683142 0
0.102224 1 0.897776
1 5.96046e-08 0
0 0.915324 1
0 0.242344 1
0.298909 1 0.701091
0.363762 1 0.636238
0.315967 1 0.684033
1 5.96046e-08 0
0.553188 1 0.446812
1 5.96046e-08 0
1 0.578732 0
1 5.96046e-08 0
0 0.624323 1
0.35054 1 0.64946
0 0.770941 1
1 5.96046e-08 0
0 0.524954 1
0.902631 1 0.0973689
0 0.665621 1
1 0.498608 0
0.0945601 1 0.90544
0 0.858118 1
0 0.723242 1
0.429197 1 0.570803
0 0.770832 1
1 5.96046e-08 0
0 0.908298 1
0.129305 1 0.870695
0 0.670725 1
0.513755 1 0.486245
0 0.253802 1
0 0.563001 1
0 0.497049 1
0 0.430714 1
0 0.817577 1
1 5.96046e-08 0
1 5.96046e-08 0
0 0.800437 1
0.0867859 1 0.913214
0 0.562266 1
0 0.141108 1
0 0.4873 1
0 0.752285 1
0 0.737077 1
1 0.829088 0
0 0.713517 1
1 5.96046e-08 0
0.0632549 1 0.936745
0 0.823857 1
1 0.502237 0
0.589024 1 0.410976
0.924941 1 0.0750587
0 0.525867 1
0 0.58935 1
1 5.96046e-08 0
0.271535 1 0.728465
1 5.96046e-08 0
0 0.446933 1
0 0.70195 1
0 0.540007 1
0.691953 1 0.308047
0.104903 1 0.895097
1 5.96046e-08 0
1 0.860933 0
0 0.985939 1
0 0.674451 1
1 0.227175 0
1 5.96046e-08 0
0.268749 1 0.731251
0.0303912 1 0.969609
0 0.58076 1
1 5.96046e-08 0
1 0.46737 0
0 0.667357 1
0 0.378646 1
0 0.631818 1
0 0.193675 1
1 0.411996 0
0 0.922736 1
0 0.456616 1
0 0.555075 1
1 5.96046e-08 0
0 0.513285 1
0.00255099 1 0.997449
0 0.712204 1
0 0.433448 1
0 0.815032 1
1 5.96046e-08 0
0 0.300144 1
0.156042 1 0.843958
1 5.96046e-08 0
0 0.968873 1
0 0.483319 1
1 0.399958 0
0 0.602842 1
0.888034 1 0.111966
0 0.669621 1
0 0.494535 1
0.118095 1 0.881905
0 0.287713 1
0 0.517562 1
0 0.511284 1
0 0.631582 1
1 0.875526 0
0 0.394877 1
0.154406 1 0.845594
0 0.324012 1
0 0.740878 1
0 0.481044 1
0 0.743047 1
0 0.658921 1
0 0.51329 1
0 0.286007 1
0 0.958733 1
1 5.96046e-08 0
0 0.745538 1
1 0.849448 0
0.0531084 1 0.946892
0 0.746043 1
1 0.265552 0
1 5.96046e-08 0
0 0.309794 1
0 0.764942 1
0 0.472874 1
0.647797 1 0.352203
0 0.628225 1
0.155651 1 0.844349
1 5.96046e-08 0
0 0.711966 1
0 0.88221 1
1 5.96046e-08 0
1 5.96046e-08 0
1 5.96046e-08 0
0.267078 1 0.732922
0.323296 1 0.676704
0 0.316608 1
0 0.843452 1
0 0.816214 1
0 0.542792 1
0 0.541392 1
0.923729 1 0.0762712
0 0.707301 1
1 0.597571 0
0.322601 1 0.677399
0 0.675085 1
1 0.748996 0
0 0.861302 1
0 0.18061 1
0 0.34674 1
0 0.329487 1
0.452045 1 0.547955
0 0.947458 1
0.486745 1 0.513255
1 0.688899 0
0.650246 1 0.349754
0 0.417256 1
0 0.150016 1
0 0.913457 1
0 0.88508 1
0 0.462553 1
0.220363 1 0.779637
0.0302596 1 0.96974
0 0.66662 1
1 5.96046e-08 0
0 0.892531 1
0 0.474203 1
0 0.522066 1
0.129026 1 0.870974
0 0.661498 1
1 5.96046e-08 0
0.53567 1 0.46433
0 0.453151 1
1 5.96046e-08 0
0 0.50338 1
0 0.336268 1
0.0989758 1 0.901024
0 0.805417 1
1 0.625292 0
0 0.516575 1
0 0.223048 1
1 0.00831896 0
1 0.644148 0
0.225902 1 0.774098
0 0.98922 1
0 0.375812 1
0 0.756332 1
0 0.505439 1
0 0.374211 1
0 0.560579 1
0 0.658417 1
0 0.840493 1
0.464037 1 0.535963
0 0.351978 1
0 0.406361 1
1 5.96046e-08 0
0 0.246071 1
0 0.880495 1
0 0.685037 1
0 0.675449 1
0 0.488238 1
0 0.147206 1
0 0.258445 1
0 0.370249 1
0 0.495631 1
0 0.21055 1
0.0763812 1 0.923619
0 0.460335 1
0 0.486177 1
0 0.292482 1
0.687023 1 0.312977
0.000280955 1 0.999719
1 5.96046e-08 0
0 0.306609 1
1 0.301279 0
0 0.683049 1
0 0.495953 1
0.0901033 1 0.909897
0 0.292237 1
0 0.327086 1
0.15549 1 0.84451
0 0.306054 1
0 0.944191 1
0 0.375487 1
0 0.543164 1
0 0.550899 1
0 0.601036 1
0 0.583995 1
0 0.889126 1
0 0.533974 1
0 0.305778 1
1 5.96046e-08 0
0 0.39429 1
0 0.27659 1
0 0.676563 1
0 0.911384 1
0 0.847001 1
0 0.701634 1
0 0.825671 1
0 0.461702 1
0 0.828719 1
0 0.695756 1
0 0.665474 1
