# vtk DataFile Version 3.0
Particle simulation
ASCII
DATASET POLYDATA
POINTS 400 float
2.4358 9.288 2.22379
0.22394 5.92889 0.672953
3.78376 1.79768 1.79337
1.2365 3.26208 8.78071
6.51835 3.49088 0.934318
1.64277 2.51352 6.27783
8.67109 8.58912 2.29172
4.37166 0.0507599 4.02916
3.11146 6.24965 1.42109
9.75285 2.44683 2.87141
3.24912 0.728492 8.64544
7.46705 0.963698 9.29675
9.52861 9.74067 5.05989
1.72046 1.69757 8.19525
1.57134 3.68542 4.96815
9.60733 5.41521 5.24921
7.21045 1.50615 3.36271
5.3569 4.89335 2.18133
3.89071 8.58136 8.80095
7.22632 1.71185 0
2.46751 3.95638 0.411039
6.37951 3.23724 7.92166
8.26342 8.45734 3.89106
1.58681 9.94622 7.27375
9.2599 5.32409 9.44453
6.55216 1.25346 8.908
0.983361 7.33318 2.62203
6.3643 3.33655 4.22873
2.95998 2.0606 3.17821
8.77509 3.53183 8.52576
1.91676 4.68559 7.68073
6.32861 0.741977 7.81058
8.72534 1.41179 6.12004
6.3549 8.30002 6.32531
10 0 5.47958
5.37267 3.88015 7.06962
1.57054 5.40168 0.386186
6.75349 1.85977 10
5.33985 8.71814 3.74993
3.05044 1.86314 8.96739
1.51916 4.01606 10
3.1053 9.46789 5.48734
3.57717 9.2062 1.07693
7.56296 0.655402 7.57445
8.07179 10 1.91019
1.55625 6.48645 1.65532
1.28508 3.74617 2.96919
3.05226 9.77048 0.549233
0.63531 0.0981976 3.21175
1.86488 2.74237 6.5446
6.96957 0.493414 7.37817
0 4.40743 5.87511
0 0 10
3.12743 5.42513 0.353453
6.8205 0.301238 9.39619
6.91647 0.688013 8.82117
3.27546 8.42996 7.25626
9.91136 1.57221 3.71478
0.426353 1.51655 4.30545
1.28628 8.81647 7.25519
5.65085 2.84274 7.36533
2.15796 8.5991 6.79078
2.93692 6.20382 1.05207
2.02041 1.1052 5.89074
3.89128 2.20644 8.14673
0.399615 6.02915 6.04462
9.89526 4.71988 0
9.0149 6.01809 1.42583
5.82177 3.08605 1.56382
0.45437 5.71387 7.69961
1.1767 6.73995 6.54469
9.82689 3.14409 4.58639
8.97836 0.256337 4.13271
9.15547 1.45708 7.19031
2.89008 9.34711 9.69111
7.11501 1.08451 3.82196
5.35647 6.47867 0.959068
0.261295 2.98132 2.94337
6.31873 8.13542 4.45211
8.01319 8.62436 8.20388
3.04966 8.61802 3.54286
9.88475 9.10646 6.76914
2.47359 0.723437 9.23826
3.78914 8.4446 9.31273
1.9578 6.17734 9.19341
8.31755 2.29099 7.93695
7.52269 0.490661 4.83675
5.06627 4.8025 8.62443
0 2.40816 1.13271
9.66638 5.76856 5.0607
2.86379 7.23489 0.972167
0.279452 0.158953 2.51935
9.61425 3.24259 3.87221
6.22455 4.48499 4.98928
1.28125 5.30072 3.71019
8.65506 7.71752 3.74855
2.41955 2.36752 5.56315
2.66566 9.42083 2.91689
0.41366 0.896796 1.22432
3.98886 3.51863 2.07592
8.64356 6.32142 9.92896
8.22236 0 5.83379
1.61592 1.20525 0.416439
5.80569 2.16829 9.55336
6.62647 1.45581 7.34751
9.38343 0.645659 9.82563
7.73212 6.27761 6.02171
8.76333 7.30358 2.55457
1.9558 0 2.63577
5.44106 4.75742 4.25285
0.663997 2.27422 8.38095
0.813192 6.72772 3.51267
8.25285 2.28429 5.6625
5.43901 4.26748 1.54062
6.69419 8.57514 6.69973
0.822932 3.20465 8.11823
7.19029 6.55112 5.22361
5.44112 5.24562 4.02703
3.43312 5.84309 4.5533
9.94463 5.59382 8.74032
0.957584 7.59146 6.81429
5.099 2.80805 0.422777
0.235953 7.43631 5.21782
0.192064 0 3.2757
8.21197 3.56192 2.8661
2.08796 8.09825 2.03255
6.20064 3.4972 8.63087
6.54177 2.85315 8.26195
8.61847 2.40754 3.10787
10 1.74125 1.00755
8.61825 8.68649 2.38554
1.64968 0.704869 5.69898
4.7929 3.1147 0.712134
0.225304 8.51376 3.70936
7.68485 8.64753 4.3088
8.71233 4.25244 1.26276
6.59835 9.52006 4.14241
2.74944 6.05648 0.658903
6.715 9.56877 6.07439
1.40922 1.42236 8.68217
9.07785 0.429065 9.93367
9.79968 0.643747 5.86366
3.132 0.489768 6.41251
10 2.93599 4.10288
0.129088 1.87617 8.95433
5.96151 1.4416 3.30915
9.28154 0.924374 5.57702
1.39507 0.214107 8.26011
3.13722 10 10
6.14134 6.93551 6.62982
7.69178 0.438775 7.34332
7.95529 4.00255 3.72886
7.34254 0.409256 6.0284
4.92844 0.434811 1.41006
10 9.46418 4.34242
2.20746 8.26481 7.30157
9.24818 3.57231 4.93476
6.50157 0.295308 0.759116
1.91608 7.8637 1.72854
3.27427 8.90601 2.33143
4.50784 0.409047 9.99427
8.62457 3.94401 0.210769
7.12726 9.72776 0.402392
0.821493 7.50228 6.31663
1.95459 2.95071 5.83015
3.62527 5.29251 2.80866
7.50268 2.76339 8.14443
3.46159 4.06195 5.97778
1.26179 2.698 3.96141
6.70061 0.747069 6.6099
1.54084 4.1495 8.40481
7.462 2.76932 5.81552
9.65522 4.60643 6.87827
1.5809 0.257585 5.35428
8.21271 3.43315 4.13568
4.27162 9.95407 3.3515
2.05253 7.23777 6.18815
7.54391 0.517523 9.80022
3.06946 2.98832 9.19889
7.85933 2.62232 3.81848
0.778352 4.29172 6.08708
9.32232 0.607431 9.06136
2.17148 2.22956 7.77577
7.05542 3.77124 8.15794
4.34543 1.48662 1.4313
9.63639 5.3934 2.41172
7.41457 0.3498 7.21112
0.354069 8.63019 4.21581
0.869452 8.22785 0.226141
0.273139 7.00124 9.63531
0.388587 0.687382 8.60971
2.53416 3.7447 6.93082
0.495501 8.13299 5.56661
2.93426 3.06342 0.351295
6.38472 1.4788 5.84049
8.52596 3.98613 5.26982
6.29355 0.5463 2.14448
4.3543 4.03394 0.101064
3.56658 5.51265 2.90218
8.64177 6.17917 8.38734
7.89408 0.944467 5.54789
6.03791 6.35625 4.20514
7.56431 4.04815 5.43142
7.938 5.62293 2.03512
3.60188 2.54741 4.96426
8.77514 0.370074 9.8063
2.07965 8.84777 3.11611
5.63555 6.20018 3.06811
7.38587 6.81026 5.71358
0.326198 5.03855 1.29437
2.36974 0.779794 9.39821
8.84414 0.981601 8.23489
7.58248 2.456 8.89622
3.52203 4.9708 1.30328
0.799166 3.37667 7.22525
6.8232 3.38744 6.14901
7.51326 4.74312 8.26445
5.25527 6.10518 2.62631
0.695473 7.76369 2.98303
2.74112 5.98535 0.556296
1.5007 8.37885 7.04176
1.64942 9.53477 8.90217
8.33269 2.13346 7.03909
7.8955 1.06401 5.78199
4.64615 6.83165 5.70853
1.32412 6.53645 3.03573
6.63401 9.317 8.88876
9.63905 9.3664 8.08405
7.51884 0.436056 7.43435
7.87199 7.53396 3.08711
4.13918 2.27378 4.87574
7.34445 1.08394 8.62215
9.12889 0.147881 1.62588
6.94611 3.17544 7.95044
4.10023 9.36326 4.15199
8.30874 5.95428 1.23906
6.7521 0.461375 9.14915
1.8951 4.62631 3.92539
7.83417 0.320144 7.12456
9.13538 2.99901 2.90309
7.61484 0.1323 7.26049
4.30604 0.250111 8.39859
6.9621 3.1871 6.3817
8.31141 7.52768 4.48993
4.37796 9.43692 0.168425
1.50015 3.4987 10
0.304497 1.68856 9.55756
3.13202 0.238481 2.06646
2.13053 1.72565 8.61134
6.12613 0 9.13986
7.53779 0.510644 1.13279
0.706529 1.02574 1.24586
8.47596 7.02321 8.26051
5.56577 9.43495 8.87626
6.8405 7.30387 2.99603
2.90242 0.891803 3.66534
2.24823 0.246311 7.6609
8.71032 1.92757 8.67394
1.04445 5.72767 3.39703
5.09564 8.59665 4.73173
6.56605 2.66955 1.84362
9.1325 6.70729 1.92318
3.92128 9.41314 6.24212
1.56508 9.00084 4.57647
4.98018 0.930771 2.40017
7.56003 6.97886 3.08824
1.25842 0.158143 6.041
0.51869 8.67993 8.55434
4.19312 9.55628 4.93352
9.85263 0.395215 9.113
4.53781 7.70871 1.03968
7.03597 1.93582 3.1733
6.43053 6.5834 8.55734
9.32364 2.54806 1.69419
6.68153 3.88181 0.883848
3.99156 0.331402 8.3669
7.51344 6.80351 1.9196
1.64966 3.80435 2.89571
1.71517 1.85535 2.05885
8.02405 0.249609 7.63627
9.43259 6.30246 4.14408
2.62143 1.32388 6.88571
7.03599 0.116914 8.45017
0.560945 4.37675 6.1499
10 10 0
8.78268 1.2705 4.64897
3.41473 0.38799 6.35766
0.634581 2.8992 9.61729
5.03668 8.27049 5.24643
1.84759 4.19609 6.50902
10 4.80117 3.86206
2.43491 9.6646 3.04378
8.86694 6.68487 7.22639
8.05246 1.53603 1.85844
1.88934 8.87284 3.0529
1.86548 0.33525 8.83625
7.26372 0.81368 7.1719
7.51141 0.451212 7.26681
7.72686 0.438501 7.20509
7.87107 0.516876 7.27715
6.8599 8.26004 6.71754
6.48005 1.77371 4.53805
7.57309 0.690132 7.26002
2.47778 0.301573 8.81736
7.69656 0.495402 7.19228
0.802684 5.7828 7.61732
8.07175 0.973659 5.71659
7.44345 0.466413 7.27035
4.38646 7.08621 2.93066
2.34668 5.58342 3.73904
9.40029 3.40878 1.50431
9.48323 6.05882 0.554645
1.17523 0.458405 6.42264
7.35272 0.214759 7.26739
5.28487 9.37999 4.33229
7.92492 5.41587 8.90968
7.65629 6.59729 8.25117
7.12806 0.161859 7.71488
0.381422 7.52056 5.27563
1.48302 3.62823 2.50402
5.45249 9.57671 5.98891
2.81148 1.34577 9.66579
1.25277 0.723899 8.45939
7.58793 0.703379 7.05227
7.57001 0.356531 7.06754
1.82491 10 7.10234
7.79342 0.853268 5.59671
3.75541 3.60728 3.79347
9.36976 6.07545 4.28685
7.6092 0.348529 7.32649
4.06691 9.16021 4.65524
0.476247 2.427 0.292597
9.35113 8.59883 2.87699
4.55689 2.15135 1.60649
3.1342 3.07769 9.49327
5.38412 4.81719 4.58075
9.6323 0.706926 3.23002
7.67994 0.529461 7.38677
8.43245 8.49917 2.66059
2.49267 5.52419 4.58615
7.52561 6.97326 3.68987
1.45521 6.96692 7.64343
5.97041 9.77084 2.23153
1.30535 0.524928 8.33471
7.85814 0.619802 7.15924
4.86164 0.2912 0
8.9674 1.15023 0.41386
7.39633 0.968989 6.40291
7.86426 0.292916 7.46807
1.89563 4.29684 3.85154
8.00005 0.294119 7.23153
7.62925 0.375767 6.89494
1.53483 8.02973 2.5354
2.10701 9.62383 0.296661
2.06376 9.29286 8.56814
7.46165 0.577713 7.39103
9.61942 7.76548 7.30937
5.25448 1.25222 0.336801
7.40178 0.1358 8.01529
7.22678 0.320665 6.94137
1.03149 8.24147 1.75735
0.978689 0.561534 8.28329
1.10431 0.660304 8.3299
7.65874 0.279156 7.32128
4.74146 2.27305 6.11841
8.58894 6.76595 4.05913
1.28208 0.757416 8.27321
2.06514 6.32971 1.08377
9.48991 9.42049 4.37591
3.09464 7.47196 2.58547
8.96503 1.43451 0.551642
5.6703 8.80903 5.04404
0.0641155 4.9292 0.460839
7.68116 0.614111 6.92871
7.72375 0.46788 7.3861
8.44597 2.16673 5.87431
1.30286 0.761298 8.26189
3.38429 0.449999 7.66812
1.89843 4.92454 4.20717
7.69204 1.04335 6.88701
7.4726 0.263221 7.71144
7.75497 0.2862 6.96919
8.78076 1.80382 7.46148
7.50171 0.562909 7.15344
4.11842 7.32912 8.78427
1.38828 0.768113 8.35601
7.30969 0.0713405 7.48749
7.80389 0.280636 7.09729
8.72148 2.42443 5.11842
8.43609 6.81981 2.30643
7.46382 0.475101 7.15234
7.27772 0.49013 7.14005
1.22795 9.61294 0.209194
7.5229 0.77876 6.84687
9.0695 5.97803 1.06371
6.40859 3.70926 1.62857
7.69433 0.475165 7.11961
7.95814 6.16391 6.04845
3.94447 5.68071 6.8855
3.35271 0.920887 6.7482
POINT_DATA 400
SCALARS particleColor float 3
LOOKUP_TABLE default
0.926117 1 0.0738834
1 0.888227 0
0.748425 1 0.251575
1 5.96046e-08 0
1 5.96046e-08 0
1 0.927 0
1 0.850017 0
1 5.96046e-08 0
0 0.69559 1
0.80346 1 0.19654
1 0.772446 0
0.658864 1 0.341136
1 0.575576 0
1 5.96046e-08 0
1 5.96046e-08 0
0.438461 1 0.561539
0.738281 1 0.261719
0.977307 1 0.0226927
0.132568 1 0.867432
1 5.96046e-08 0
0 0.933863 1
1 5.96046e-08 0
0 0.791266 1
1 0.205371 0
1 0.524377 0
0.757645 1 0.242355
1 5.96046e-08 0
1 5.96046e-08 0
1 0.605175 0
1 5.96046e-08 0
0.95741 1 0.0425904
0 0.968595 1
0.74568 1 0.25432
1 5.96046e-08 0
1 5.96046e-08 0
1 0.918088 0
1 0.345225 0
1 5.96046e-08 0
1 5.96046e-08 0
0.902715 1 0.0972846
1 5.96046e-08 0
1 0.688626 0
1 5.96046e-08 0
1 5.96046e-08 0
0.498298 1 0.501702
0.843767 1 0.156233
0.943827 1 0.0561734
0.494454 1 0.505546
1 0.973841 0
0.370676 1 0.629323
0.0470511 1 0.952949
1 0.380992 0
1 5.96046e-08 0
0 0.564262 1
1 5.96046e-08 0
1 5.96046e-08 0
1 5.96046e-08 0
0 0.737233 1
1 0.845803 0
0.407027 1 0.592973
1 0.0229654 0
0.434754 1 0.565246
1 5.96046e-08 0
1 0.415861 0
1 5.96046e-08 0
1 0.972008 0
1 0.322066 0
0.862773 1 0.137227
1 0.642963 0
0.591541 1 0.408459
0.750992 1 0.249008
0.319381 1 0.680619
1 0.580346 0
0.056199 1 0.943801
1 5.96046e-08 0
1 0.640443 0
0.842135 1 0.157865
1 5.96046e-08 0
1 5.96046e-08 0
1 5.96046e-08 0
1 5.96046e-08 0
0.826122 1 0.173878
1 5.96046e-08 0
1 0.465601 0
1 5.96046e-08 0
1 5.96046e-08 0
1 0.681413 0
1 5.96046e-08 0
1 5.96046e-08 0
1 0.894711 0
0.0324408 1 0.967559
0.0237058 1 0.976294
1 5.96046e-08 0
0.628359 1 0.371641
1 5.96046e-08 0
1 5.96046e-08 0
1 5.96046e-08 0
0.672184 1 0.327816
1 0.726546 0
1 5.96046e-08 0
0.690777 1 0.309223
0.498177 1 0.501823
1 0.494301 0
0.593374 1 0.406626
1 5.96046e-08 0
1 5.96046e-08 0
0.376324 1 0.623676
1 5.96046e-08 0
1 5.96046e-08 0
1 5.96046e-08 0
1 0.464408 0
1 5.96046e-08 0
0 0.684836 1
1 0.807814 0
1 0.773395 0
1 0.339597 0
1 5.96046e-08 0
1 5.96046e-08 0
1 0.124968 0
0.520268 1 0.479732
1 5.96046e-08 0
1 5.96046e-08 0
1 5.96046e-08 0
1 5.96046e-08 0
0.812172 1 0.187828
1 0.882481 0
0.906799 1 0.0932009
0 0.416297 1
0.552094 1 0.447906
1 5.96046e-08 0
1 0.93839 0
1 0.313926 0
1 0.200632 0
1 0.8983 0
1 5.96046e-08 0
1 0.908707 0
0.427185 1 0.572815
1 0.168383 0
1 5.96046e-08 0
1 5.96046e-08 0
1 0.496635 0
0.683783 1 0.316217
1 5.96046e-08 0
1 0.311186 0
0.608998 1 0.391002
1 5.96046e-08 0
1 0.331883 0
1 0.612709 0
1 5.96046e-08 0
0.251822 1 0.748178
0 0.480841 1
1 5.96046e-08 0
1 5.96046e-08 0
0 0.0965452 1
1 5.96046e-08 0
0.763137 1 0.236863
0.687945 1 0.312055
0.878547 1 0.121453
0 0.873623 1
1 0.610339 0
1 0.0482306 0
0.430325 1 0.569675
1 0.121178 0
0.46519 1 0.53481
1 0.929713 0
1 0.872827 0
1 0.95241 0
1 0.360213 0
0.630982 1 0.369018
0.939347 1 0.0606528
1 0.777553 0
1 5.96046e-08 0
1 5.96046e-08 0
0.945643 1 0.0543573
1 0.107167 0
1 5.96046e-08 0
1 5.96046e-08 0
1 5.96046e-08 0
1 5.96046e-08 0
1 0.0868497 0
0 0.646184 1
1 0.61036 0
1 0.113398 0
1 0.841615 0
0.800654 1 0.199346
1 5.96046e-08 0
0 0.80101 1
1 5.96046e-08 0
0 0.897228 1
1 5.96046e-08 0
1 5.96046e-08 0
0.883383 1 0.116617
1 0.814373 0
1 0.619634 0
1 0.00994408 0
1 5.96046e-08 0
0.0560152 1 0.943985
1 5.96046e-08 0
1 5.96046e-08 0
1 0.977295 0
0 0.569685 1
0.939224 1 0.0607759
1 0.564899 0
1 5.96046e-08 0
1 5.96046e-08 0
1 0.229704 0
1 5.96046e-08 0
0.821044 1 0.178956
1 0.358879 0
1 5.96046e-08 0
1 0.772255 0
1 5.96046e-08 0
1 0.137064 0
1 5.96046e-08 0
1 0.55353 0
0.937024 1 0.0629765
1 0.219345 0
1 5.96046e-08 0
1 5.96046e-08 0
1 5.96046e-08 0
0.423521 1 0.576479
1 5.96046e-08 0
0.359995 1 0.640005
0 0.447195 1
1 0.38036 0
0.394281 1 0.605719
1 0.691265 0
1 5.96046e-08 0
0 0.0791995 1
1 5.96046e-08 0
1 5.96046e-08 0
0.583065 1 0.416935
0.169596 1 0.830404
1 5.96046e-08 0
1 5.96046e-08 0
0.378162 1 0.621837
1 5.96046e-08 0
1 0.844549 0
0 0.498911 1
1 5.96046e-08 0
0 0.826261 1
0.998654 1 0.00134617
0.736034 1 0.263966
0.58094 1 0.41906
1 0.362044 0
0.943223 1 0.0567767
1 0.755759 0
1 5.96046e-08 0
0 0.638961 1
1 0.480209 0
1 0.578693 0
0.293032 1 0.706967
1 0.975199 0
1 5.96046e-08 0
1 5.96046e-08 0
0.564537 1 0.435463
1 5.96046e-08 0
1 0.851346 0
1 0.533763 0
0.999708 1 0.000292063
0.926543 1 0.0734573
1 0.931616 0
1 0.753477 0
1 0.462485 0
1 0.247535 0
1 0.995098 0
1 5.96046e-08 0
1 5.96046e-08 0
1 0.527849 0
1 5.96046e-08 0
1 5.96046e-08 0
0.757179 1 0.242821
0.622069 1 0.377931
0.364725 1 0.635275
1 0.202308 0
1 5.96046e-08 0
1 0.245256 0
1 0.102097 0
1 5.96046e-08 0
0 0.623359 1
0.100811 1 0.899189
1 0.3602 0
0.68885 1 0.31115
1 5.96046e-08 0
1 5.96046e-08 0
1 0.570788 0
1 0.282646 0
1 0.488983 0
1 0.553641 0
1 5.96046e-08 0
1 0.58417 0
1 5.96046e-08 0
0.372469 1 0.627532
1 5.96046e-08 0
0 0.704694 1
0 0.771049 1
0 0.219807 1
0.11139 1 0.88861
0 0.479526 1
0 0.780457 1
1 0.917786 0
1 5.96046e-08 0
0 0.330406 1
1 5.96046e-08 0
0 0.673176 1
0.624697 1 0.375303
0 0.234112 1
0 0.396055 1
1 0.206849 0
1 5.96046e-08 0
0.871123 1 0.128877
1 5.96046e-08 0
0.129708 1 0.870292
0 0.70438 1
0.959162 1 0.0408376
0.729121 1 0.270879
0.90257 1 0.0974296
0 0.668891 1
1 5.96046e-08 0
1 0.372942 0
1 0.520788 0
0.286905 1 0.713095
0 0.448966 1
0 0.371961 1
0 0.694992 1
1 0.817353 0
0 0.697198 1
1 0.310352 0
1 0.822835 0
0 0.827685 1
1 5.96046e-08 0
1 5.96046e-08 0
1 0.791451 0
1 5.96046e-08 0
0 0.544377 1
1 0.521747 0
1 0.343243 0
0 0.648016 1
1 5.96046e-08 0
1 0.853101 0
0.13919 1 0.86081
0.326677 1 0.673323
0.207675 1 0.792325
0 0.767303 1
0 0.807651 1
0.688153 1 0.311847
0 0.999965 1
0 0.2009 1
0 0.196267 1
1 0.576167 0
0 0.855177 1
0 0.56281 1
0 0.419282 1
1 0.079574 0
1 0.726885 0
0 0.531116 1
1 0.845396 0
1 5.96046e-08 0
0 0.188312 1
0 0.277533 1
1 5.96046e-08 0
0 0.591902 1
0 0.64726 1
0 0.450108 1
1 0.909806 0
1 5.96046e-08 0
0 0.190839 1
0.279246 1 0.720754
1 0.486885 0
1 5.96046e-08 0
0 0.700931 1
1 5.96046e-08 0
1 0.944974 0
0.188792 1 0.811208
0.19157 1 0.80843
0.116987 1 0.883013
0 0.283707 1
1 5.96046e-08 0
1 0.443559 0
0 0.745189 1
0 0.584845 1
0 0.442041 1
1 0.0398065 0
0.0568065 1 0.943194
1 0.288886 0
0 0.303116 1
0 0.295673 1
0 0.838314 1
1 5.96046e-08 0
0.0207927 1 0.979207
0 0.828659 1
0 0.511541 1
0.299045 1 0.700955
0 0.56973 1
1 5.96046e-08 0
1 5.96046e-08 0
0 0.583715 1
0 0.749676 1
0.991922 1 0.0080775
0.904129 1 0.0958713
