# vtk DataFile Version 3.0
Particle simulation
ASCII
DATASET POLYDATA
POINTS 400 float
0.839259 0.337542 7.53638
3.30498 0.422807 7.12535
8.89987 9.35096 4.95561
5.63805 1.41985 5.00296
9.1977 7.58421 9.55953
5.30887 0.855632 4.95554
4.92075 3.50506 0
8.43785 2.48897 3.2005
1.05487 3.76487 5.9885
6.11531 10 2.6343
1.89299 5.72454 0.345834
5.12667 9.9839 3.38816
5.23654 4.1285 4.33369
5.87614 5.29873 0
10 7.49103 7.26469
6.0456 5.02903 9.66453
8.92593 0.641974 6.99943
3.54289 0.447543 0.563951
1.87525 7.13311 6.38012
4.65869 3.74359 7.61206
2.8613 0.604123 0.721431
0.0943197 0.0538419 1.61385
0.924863 7.58633 4.1595
5.33161 5.42706 1.41511
1.86996 9.2525 8.25709
10 5.04405 0
7.83447 7.98314 6.29894
9.02071 0.320244 5.46914
9.5043 5.83098 8.72053
8.11463 6.49879 0.516193
5.88533 7.70905 7.30326
3.08819 8.09262 0.802935
8.65372 7.42442 7.62052
2.3588 9.82861 7.0988
0.517562 6.84135 3.40482
4.53822 7.50165 7.20212
6.02275 4.84906 3.07463
2.88417 0.477012 0.635308
1.16924 3.64948 1.87797
3.6594 0 8.88506
7.55184 7.45467 2.85643
8.37183 8.19308 2.95674
9.82631 7.91997 4.3636
9.3183 0.12534 0.14285
5.55087 0.896298 0.126887
2.08164 6.8946 4.15615
5.19099 1.82738 8.64175
8.36787 2.52056 10
7.01456 0.698547 0.415175
5.36792 0.272481 7.37799
5.02051 8.20575 6.65978
4.06342 9.02771 0.425261
9.2224 5.13855 8.09148
8.8524 1.2856 3.75929
0.50389 2.56884 5.26398
6.53858 0.438381 0.952076
6.63398 1.48949 7.71423
7.0596 5.28146 3.98902
5.2606 1.56109 5.59231
0.690572 4.43148 5.91476
0.493514 9.8498 8.5409
7.83947 1.03614 5.77928
4.5895 2.42917 2.57876
0.270816 1.88633 9.58711
2.99708 7.09471 0
9.48711 9.80508 3.22068
2.72105 0.332248 2.34603
8.84349 8.2444 3.01549
9.28913 9.60662 2.14341
7.28218 9.29889 3.09507
3.27625 3.94887 4.89853
8.68897 5.38764 0.400521
4.97054 9.93118 3.77854
2.42016 6.43874 0.765329
8.67528 6.39362 9.90537
5.51112 4.99385 7.66749
4.51821 4.4007 1.2683
5.64492 7.21856 4.21865
5.37603 7.13038 3.7912
7.91525 7.32644 1.71351
3.02335 0.136301 0.817403
6.19809 4.14364 4.24047
2.20079 0.425448 9.18413
0.456242 4.98943 3.88965
5.08405 2.96243 6.67816
0.0460127 4.69875 8.49574
1.51259 2.50981 2.3762
2.2314 2.00389 6.07132
4.13975 2.99558 8.70196
3.00912 9.07496 3.05666
3.13189 0.626349 0.902662
9.43105 5.95014 4.25759
4.54505 7.93174 9.05056
1.25857 0.139816 9.30452
0.864773 5.0176 1.15563
9.09224 9.83089 7.00076
4.70638 3.28124 8.0875
8.87381 5.19851 3.07155
0.931704 0.829499 6.01693
8.73631 2.35111 5.44284
3.61113 0.148251 1.16604
8.5191 0.625001 9.42129
0.915857 0.596082 2.88201
1.53781 7.25887 6.05283
9.4769 5.05941 7.59961
6.26545 0.413703 9.69953
4.27979 3.56587 2.56655
7.2146 0.522455 3.47536
9.21379 0.0777808 0.772499
7.9596 5.41417 7.17795
0 2.45185 1.48079
5.13 0.241939 1.88755
9.12294 5.80062 4.0907
0.0492617 1.14181 0.895881
3.17851 0.569555 1.71277
6.03496 2.68879 3.53794
4.41859 0.209511 9.01249
7.22182 2.19991 0.854179
8.83889 2.75471 2.73644
2.84463 9.29104 3.12732
3.42049 0.184282 0.790917
2.39747 5.37715 7.79909
8.29976 5.02232 8.04782
7.91445 0.584485 9.46181
4.55826 6.10617 9.3442
3.14951 0.184189 0.563321
1.84229 7.78957 6.88934
0.67413 1.07578 8.07841
9.56585 0.845915 9.06273
0.503602 7.64861 3.16514
0.891526 4.49205 6.45203
0.321675 1.79489 0.261588
4.00278 0.737335 3.86427
8.77599 9.83566 0.31598
1.65924 0.799809 6.23989
0.393687 2.72752 1.14989
4.7827 3.98017 4.73813
3.55429 1.08972 5.8831
7.52259 9.52677 8.41018
5.75417 2.80305 4.70709
3.23051 0.41034 0.736115
2.72843 0.252321 0.255843
6.10315 2.34389 0.119442
8.23429 1.79284 0.205829
3.26448 0.667008 1.55759
8.93825 1.95904 9.52905
5.54671 0.605261 1.56522
0.99811 1.88905 6.90144
9.0251 4.93783 0.101076
3.10727 0.687958 0.632071
3.29073 0.513631 0.668491
2.43573 1.34003 7.91032
2.40713 1.3971 7.97241
3.58859 0.5353 0.169917
1.79976 0.987498 4.49829
6.9188 0.9884 0.645789
7.45825 3.46088 4.24233
4.88949 0.309673 5.54877
9.49364 2.81894 9.12531
1.68358 0 6.99926
6.4908 0.971337 0.87496
7.23909 0.834057 9.34251
4.42004 2.53991 6.86846
7.17147 0.19235 2.7813
8.38511 5.55264 0.0994848
6.3968 1.32893 3.29729
4.95085 3.70474 4.61671
1.29708 4.60927 1.48049
2.75838 0.238786 5.07958
1.23935 1.63566 5.93801
3.46579 0.431639 1.20389
5.40702 2.47987 4.13381
7.39206 0.0633262 1.50695
8.69512 8.95855 6.91437
0.967634 0.286893 5.80517
3.45712 3.41458 5.17418
1.95394 1.438 7.46834
0.165353 5.76228 1.8086
1.55967 1.27775 4.01011
7.73386 8.45394 1.64526
3.66651 0.397476 0.749633
6.66237 7.83813 7.20442
4.59393 4.13031 7.04468
1.21247 5.05675 7.8729
3.77718 3.46177 5.50135
7.01992 4.22201 8.14493
3.46672 0.304534 1.15988
3.76065 8.53992 1.49153
7.68917 0.29947 0.471198
2.9576 0.400603 0.256866
3.2404 0.626867 0.790652
3.60217 0.368858 0.70859
9.13301 9.22056 1.75265
2.1282 6.96146 8.30915
5.27903 1.38212 9.50693
3.37157 0.555239 0.933866
0.691732 1.45401 3.13628
4.99079 0.0607836 5.33761
3.31054 0.469307 0.459544
3.19756 0.419796 1.13947
3.5475 0.432222 0.516485
6.55152 0.568674 0.401736
0 0.836411 3.28435
4.01326 0.766944 6.56129
0.688189 5.68929 9.25341
3.072 0.451441 6.69233
3.44179 0.342507 0.675684
7.86064 1.32452 7.40453
6.68066 1.41364 3.12089
2.11876 5.40526 4.0354
3.36773 0.556549 0.878143
3.6915 0.125186 0.911159
0 8.46906 9.50705
9.22195 0.967947 9.26045
3.07362 5.46351 5.05755
3.87735 0.342821 9.08081
2.81435 0.788703 0.462381
2.94977 0.47115 0.574335
0.325679 0.768633 6.84155
3.13406 0.941537 1.7911
6.87876 2.84382 0.697566
5.71847 6.86275 4.40702
4.01421 0.498969 6.68946
3.72892 0.314262 0.623865
3.08389 4.35678 0.235585
3.99833 1.67081 4.43792
2.37002 2.07658 1.7519
3.94027 0.0762202 1.0725
3.53205 0.727354 0.578412
10 6.78004 1.07802
9.52039 0.868897 7.71767
1.24858 0.228852 9.56525
2.33331 0.422703 0.780109
3.37471 0.477624 0.756366
3.92799 0.398556 8.35623
1.02823 3.57697 4.22922
9.73488 3.08698 9.03225
1.72692 0.640763 6.64709
3.18065 0.124384 1.13959
2.46077 2.79815 9.51665
3.21624 0.364455 0.683403
3.9417 0.255447 1.56639
3.07948 0.392402 0.367194
2.78245 0.323601 0.48487
4.4537 0.161638 9.38299
1.82079 4.97588 3.97646
0.760776 0.26346 5.59198
0 1.06774 3.04636
2.56957 6.16077 4.40708
1.84322 2.09168 6.84603
3.60763 0.462481 0.965123
2.73539 9.26606 4.1504
3.61071 0.474892 8.85626
7.00368 0.542397 3.1137
6.43681 0.353889 1.11755
3.48839 0.514187 1.33487
7.30286 1.38047 4.58027
3.91942 0.28462 8.46891
0.870328 5.48802 7.31475
4.00586 0.369582 8.41025
2.98478 0.322769 0.840613
9.48023 8.87345 0.133824
3.95348 0.755788 6.48011
4.43212 4.28794 3.56474
3.95853 0.227278 8.29519
8.81667 7.64616 2.92397
6.57466 0.159642 1.37933
4.04529 0.40217 8.76978
5.12413 1.48565 2.12947
2.87068 0.420105 0.470813
3.21405 0.289789 0.601014
8.1622 7.48057 2.02537
3.85374 7.4557 8.01102
3.35913 3.47552 2.64755
7.19464 5.16573 7.44932
4.04252 0.269046 6.58139
4.20437 4.07479 1.47024
9.13255 4.33817 6.63012
5.00391 3.50219 3.18771
3.29129 0.357991 0.9544
5.84027 0.021067 1.36823
7.04917 0.720619 0.724939
8.91535 3.39849 6.9496
5.32923 1.66914 2.87406
7.78227 1.65729 4.54881
9.4703 0.454454 0.921949
3.29313 0.0684303 0.735958
5.72496 1.10595 7.71792
9.45255 7.38187 7.68434
1.60172 5.93873 5.27577
7.23189 0.0134605 9.82909
8.84086 0.265553 1.46386
4.04852 0.192696 1.39881
0.799652 0.38719 7.77759
4.15377 0.53683 9.29649
4.31074 0.245743 9.01803
3.19138 0.468123 1.09777
3.36121 0.351676 0.598166
7.71988 5.09689 7.66885
3.04917 0.56554 1.21128
0.312042 3.29375 4.41322
3.78268 0.932443 6.4807
9.04201 2.32117 4.71619
7.34628 8.08453 0.170569
3.63104 0.103932 0.596808
0.336487 0.827252 7.46346
3.36083 0.30963 0
3.23467 0.155494 0.81305
0.363805 1.16557 3.4059
4.26731 3.97481 1.50745
2.92287 0.63906 8.91565
1.33826 0.938403 4.97676
4.59442 1.30996 1.98695
3.05465 0.35273 0.736772
9.10153 1.66715 9.37306
0.980381 0.373284 7.61258
3.97958 2.93552 7.30801
1.48953 5.55132 7.07177
7.56508 1.28953 4.80444
7.43548 6.21561 1.41834
3.80623 0.538047 8.56021
1.53513 0.470268 4.82479
4.09722 0.198525 8.40459
3.9278 0.386934 0.552164
5.80235 0.0190268 1.40121
6.18611 3.15641 1.26807
3.14917 0.727246 0.173086
4.50513 0.9625 4.46863
4.4418 9.5118 3.60448
3.13497 0.350071 0.764527
9.8864 7.29747 2.71107
3.24702 0.538078 0.441312
4.22174 0.459103 8.7004
3.23678 0.348786 1.14947
6.90628 0.264942 0.779903
4.48038 2.14764 5.21455
1.05274 5.2876 7.44034
3.01587 0.239311 0.89815
0.17879 1.6415 6.61717
5.43807 0.160448 8.42964
3.45199 0.410238 6.08764
7.34503 0.797398 9.58791
4.50097 0.626531 8.67262
4.06884 0.436639 8.43858
3.19648 0.3265 0.782415
3.38555 0.285839 0.692836
6.68901 0.236551 0.489021
2.89306 0.374881 0.797051
3.54843 0.204043 0.437003
9.2042 2.67999 9.33841
2.75254 0.0667581 0.264869
3.02647 0.453727 0.867681
4.31821 0.387073 8.54075
3.68363 0.436325 8.56501
3.23106 0.0918049 0.299281
2.91502 0.353973 0.671644
6.61182 0.341828 1.1434
4.53414 0.242469 8.27138
2.79394 0.514513 1.0146
3.32026 0.405358 0.800091
6.81423 0.676864 0.878078
4.08164 0.447562 8.30814
3.88538 0.0495472 8.87771
3.50698 0.544447 0.558048
2.7496 0.548268 0.880295
6.25137 0.199415 1.06885
3.95308 0.22389 8.49966
1.97601 0.700332 9.2152
4.16192 0.462037 8.18758
6.01121 3.24744 1.11958
6.81334 0.568101 0.967072
1.35221 1.5903 5.73546
4.64674 0.255228 8.61481
2.94986 0.383 0.853294
3.91345 0.379642 0.573544
6.82561 0.27106 0.511639
3.96289 0.384715 8.22575
3.77367 0.135552 8.97455
4.12511 0.255258 8.60376
3.36786 0.54325 0.597131
3.36879 0.308267 1.0168
3.44892 0.463684 0.789687
4.17171 0.152164 8.64823
2.82576 0.231298 0.612986
0.432662 0.686506 7.53587
4.12897 0.499248 8.72094
3.18618 0.551031 1.09472
3.04671 0.393522 0.664199
5.8731 3.21217 8.42941
7.14138 0.223487 0.653488
3.51085 0.486974 0.781194
3.57555 0.450328 0.660513
4.58858 0.463864 8.72766
3.59646 0.230529 0.925512
0.306603 1.1713 7.21691
4.00468 0.589522 8.97925
3.20785 0.507587 1.15009
0.887841 0.20769 5.33484
6.83876 0.340852 1.132
7.08886 0.316563 0.691686
POINT_DATA 400
SCALARS particleColor float 3
LOOKUP_TABLE default
0.14848 1 0.85152
0.451596 1 0.548404
0 0.497353 1
0.668576 1 0.331424
1 5.96046e-08 0
0.552104 1 0.447896
1 0.513416 0
1 0.711993 0
0.168491 1 0.831509
1 5.96046e-08 0
0.0907384 1 0.909262
0.380016 1 0.619984
1 5.96046e-08 0
0.425015 1 0.574985
1 5.96046e-08 0
1 5.96046e-08 0
1 5.96046e-08 0
0 0.29128 1
0.182125 1 0.817875
0 0.949526 1
0 0.399491 1
1 0.981752 0
1 5.96046e-08 0
0.595957 1 0.404043
1 5.96046e-08 0
1 5.96046e-08 0
0 0.498902 1
0.258496 1 0.741504
0.461455 1 0.538545
1 0.520375 0
1 5.96046e-08 0
0.495086 1 0.504914
0.843709 1 0.156291
1 5.96046e-08 0
0.547239 1 0.452761
1 5.96046e-08 0
0.257125 1 0.742875
0 0.630364 1
0.967 1 0.0330004
0 0.906494 1
1 5.96046e-08 0
0.191303 1 0.808697
1 0.843019 0
0.778362 1 0.221638
0.00114007 1 0.99886
0.282605 1 0.717395
0.102209 1 0.897792
0 0.779835 1
0.0193249 1 0.980675
0.591976 1 0.408024
1 0.946284 0
1 0.978041 0
0.191587 1 0.808413
0.610896 1 0.389104
0 0.79143 1
0 0.384446 1
0.10842 1 0.89158
0 0.476691 1
0 0.825538 1
0.874938 1 0.125062
0 0.697101 1
1 5.96046e-08 0
0.270884 1 0.729115
1 5.96046e-08 0
0.405078 1 0.594922
0.572276 1 0.427724
0.191375 1 0.808625
1 5.96046e-08 0
1 5.96046e-08 0
0.363769 1 0.636231
0.326065 1 0.673935
0.16468 1 0.83532
0.731373 1 0.268627
0.38 1 0.62
0.682893 1 0.317107
1 0.750286 0
0 0.681457 1
0 0.260245 1
0.859555 1 0.140445
0.0686436 1 0.931356
0 0.237364 1
1 0.56336 0
1 0.898999 0
0 0.832159 1
0.936449 1 0.063551
0.101752 1 0.898248
1 0.433109 0
1 5.96046e-08 0
0 0.901114 1
0.419452 1 0.580548
0 0.541092 1
0.544094 1 0.455906
0.991957 1 0.00804263
0 0.637201 1
0.584361 1 0.415639
0.748854 1 0.251146
1 0.186931 0
0 0.977989 1
0 0.858602 1
0.700402 1 0.299598
0 0.264083 1
0.341888 1 0.658112
0.1498 1 0.8502
0.782157 1 0.217843
0.229138 1 0.770862
1 0.970854 0
0.553425 1 0.446575
0.504167 1 0.495833
1 0.309478 0
1 5.96046e-08 0
1 5.96046e-08 0
1 0.521837 0
0 0.909026 1
0 0.670313 1
0 0.501959 1
1 5.96046e-08 0
0 0.670287 1
0 0.878223 1
0 0.639082 1
1 0.143991 0
0 0.674621 1
0.859777 1 0.140223
0.422359 1 0.577641
0.882852 1 0.117148
0.487045 1 0.512955
0 0.447236 1
0.691394 1 0.308606
0 0.384068 1
0 0.778236 1
1 5.96046e-08 0
1 0.795822 0
1 0.752387 0
0 0.935294 1
0.458693 1 0.541306
0.498224 1 0.501776
0 0.581358 1
0.753043 1 0.246957
0 0.779005 1
0 0.736976 1
0.128243 1 0.871757
0 0.87353 1
1 5.96046e-08 0
0 0.962322 1
1 0.336638 0
0 0.619933 1
0 0.826773 1
0 0.59487 1
0.518484 1 0.481516
0.700751 1 0.299249
0.371412 1 0.628588
0 0.56079 1
0 0.668058 1
0.280958 1 0.719042
0 0.578709 1
1 5.96046e-08 0
0 0.643637 1
1 0.753246 0
0.66037 1 0.33963
0.268775 1 0.731225
1 5.96046e-08 0
0.958569 1 0.0414307
0.582924 1 0.417076
0 0.902057 1
1 0.147364 0
0.234969 1 0.765031
1 5.96046e-08 0
1 0.0464972 0
1 5.96046e-08 0
1 0.442506 0
0 0.646046 1
0 0.728423 1
0.0580067 1 0.941993
1 0.825628 0
1 5.96046e-08 0
0 0.271601 1
1 0.67907 0
0 0.692523 1
0.0309003 1 0.9691
0.34161 1 0.65839
0.301468 1 0.698532
0 0.27178 1
1 0.537538 0
1 0.332566 0
1 5.96046e-08 0
1 0.614194 0
0.159841 1 0.840159
0 0.535872 1
0.996726 1 0.00327373
0.0787983 1 0.921202
0.21421 1 0.78579
0 0.482824 1
0 0.82232 1
1 0.684958 0
1 5.96046e-08 0
0.366005 1 0.633995
0 0.53712 1
0 0.869124 1
0 0.596389 1
0 0.542042 1
0 0.409906 1
0 0.618429 1
0 0.382533 1
0.894844 1 0.105156
0 0.75671 1
1 5.96046e-08 0
0 0.84746 1
0 0.850813 1
1 0.784325 0
0.352884 1 0.647116
1 5.96046e-08 0
0 0.443701 1
0 0.816654 1
1 0.139209 0
0.244029 1 0.755971
1 5.96046e-08 0
0 0.508791 1
0 0.312674 1
0 0.727274 1
1 5.96046e-08 0
0 0.492423 1
0.46362 1 0.53638
1 0.213496 0
0 0.658446 1
0 0.891021 1
1 5.96046e-08 0
0 0.100274 1
0.685648 1 0.314352
0 0.356721 1
0 0.0713425 1
0 0.958617 1
0 0.891107 1
0.0834712 1 0.916529
0.426541 1 0.573459
0 0.863771 1
0 0.5633 1
0 0.865848 1
0.880047 1 0.119953
0.302736 1 0.697263
0.0649935 1 0.935006
1 0.69941 0
0 0.537096 1
0 0.433887 1
0 0.174834 1
0 0.457171 1
0 0.824648 1
1 5.96046e-08 0
0 0.48122 1
0 0.766708 1
1 5.96046e-08 0
0 0.283163 1
0 0.804357 1
0.799143 1 0.200857
0 0.213847 1
0.114472 1 0.885528
0 0.422255 1
0 0.283675 1
0 0.0720717 1
0 0.244713 1
0.142538 1 0.857462
0 0.367883 1
0 0.60275 1
1 0.987597 0
0 0.718592 1
1 0.544866 0
0.0714371 1 0.928563
1 0.699621 0
0 0.712591 1
0 0.625132 1
0.0855417 1 0.914458
0 0.582394 1
0 0.709714 1
0 0.951188 1
0 0.492132 1
0.0347874 1 0.965213
0.547443 1 0.452557
0 0.940897 1
0 0.186444 1
1 0.272543 0
0.056349 1 0.943651
0 0.630995 1
0 0.407542 1
0 0.514683 1
0.102097 1 0.897903
1 0.731079 0
1 5.96046e-08 0
0.0621387 1 0.937861
0 0.268826 1
0.821717 1 0.178283
0.289984 1 0.710016
1 5.96046e-08 0
1 5.96046e-08 0
0.177887 1 0.822113
0 0.230073 1
0 0.41668 1
0 0.903186 1
0 0.444889 1
0 0.635895 1
0 0.855013 1
0.21236 1 0.78764
0 0.629044 1
0 0.479107 1
0 0.598296 1
1 0.932381 0
1 5.96046e-08 0
0 0.293363 1
0.0533181 1 0.946682
0 0.442532 1
0 0.477266 1
0 0.791664 1
0 0.629565 1
0 0.689575 1
0 0.867 1
0 0.77859 1
0 0.686565 1
0 0.82786 1
0 0.877162 1
0.928461 1 0.0715387
0 0.56791 1
0.331668 1 0.668332
0 0.504965 1
0 0.623588 1
0 0.85339 1
0 0.820476 1
0 0.678004 1
0 0.858579 1
0 0.9251 1
0 0.497462 1
0.832466 1 0.167534
1 0.956578 0
0 0.780273 1
1 0.912717 0
0 0.80561 1
0 0.376043 1
0.0828333 1 0.917167
0 0.596911 1
1 0.563064 0
0 0.38265 1
0 0.341402 1
1 0.931246 0
0 0.462221 1
0.255921 1 0.744079
0 0.184855 1
0 0.512234 1
0 0.536754 1
0 0.551013 1
0 0.776859 1
0 0.763092 1
0 0.375592 1
0.255888 1 0.744112
0.327078 1 0.672922
0 0.64579 1
0 0.761852 1
0.401528 1 0.598472
0 0.730085 1
0 0.59454 1
0 0.781981 1
0.132725 1 0.867275
0 0.982303 1
0 0.976358 1
0 0.953237 1
0 0.490162 1
0 0.289617 1
0 0.331286 1
0 0.826453 1
0 0.730165 1
0 0.863388 1
0 0.620354 1
1 0.881629 0
0.0598834 1 0.940117
0.0220589 1 0.977941
0 0.372948 1
0 0.411069 1
0 0.542729 1
0 0.978736 1
0 0.625633 1
0 0.948807 1
0 0.523305 1
0.0343569 1 0.965643
0.196459 1 0.803541
0 0.861524 1
0 0.97268 1
0 0.858643 1
0 0.755128 1
0 0.96004 1
0 0.687575 1
0 0.180821 1
0 0.304071 1
0 0.345308 1
0.034013 1 0.965987
0 0.429306 1
0 0.909188 1
0 0.298443 1
0 0.20587 1
0 0.457123 1
0 0.579332 1
0 0.66934 1
0 0.417545 1
0.0936863 1 0.906314
0.0958187 1 0.904181
0 0.237891 1
