# vtk DataFile Version 3.0
Particle simulation
ASCII
DATASET POLYDATA
POINTS 400 float
4.79146 1.08704 9.68657
1.54682 4.43747 2.15535
0.682344 2.52501 2.61718
2.35296 0.306486 0.840146
8.71156 1.62168 3.7681
8.26787 1.35154 4.72772
8.94432 3.70026 2.33533
2.90497 4.69092 1.40817
6.80008 3.63992 1.12547
7.99111 0.958204 3.97858
3.00425 0.16093 0.517308
2.44364 1.59811 2.09569
6.28053 5.07125 4.92635
3.86829 0.159277 0.74816
8.04066 2.14703 3.79804
8.89196 4.36609 9.01328
3.20507 5.78962 0.666738
1.33558 1.30065 3.36234
2.01998 8.73722 9.56491
8.03704 1.02631 3.79248
3.80288 0.521627 2.86276
0.537054 0.651226 4.74278
2.36328 5.88855 6.86985
7.59921 0.905524 3.65231
9.54138 8.08381 9.50599
3.9934 0.325577 2.09451
6.03905 7.71813 3.06363
2.60112 0.965313 2.12042
6.19182 0.701009 5.8123
2.06407 0 2.63647
9.44784 4.00369 4.02821
9.50706 0.190788 0.986909
3.44339 1.41811 7.77431
7.61376 0.830858 3.63375
2.16579 1.40034 3.16825
1.12582 0 0.807137
7.24417 0.532851 9.41642
2.51398 0.410807 2.12148
6.05788 0.434006 0.519916
3.60394 0.336183 0.667955
3.40013 0.340639 2.90073
8.08699 6.19663 4.25546
4.73004 5.84865 5.48358
9.50013 4.92199 3.98088
9.05309 0.215037 8.68984
5.71416 0.448985 2.18978
8.18689 2.43778 4.14548
2.54154 0.612437 1.10688
5.69596 0.427308 1.88848
8.4257 5.34413 4.42378
0.408017 3.18915 2.45449
8.0869 6.28212 4.26002
5.74005 0.574066 5.42178
7.52641 0.550672 3.50393
9.70466 0.484627 8.30935
5.78506 0.382928 2.09257
4.3523 1.00112 8.45781
2.74108 0.533665 0.895219
5.58104 0.396821 1.87932
0.255798 2.88179 8.1353
5.648 1.50419 7.49788
4.65194 0.289707 6.82011
1.50227 0 3.56987
8.14246 0.894637 3.70685
7.40453 0.587095 5.99758
9.26825 0.132038 5.74645
6.13905 0.869018 5.54264
0.358825 3.36546 2.64921
5.46044 0.177523 1.98309
4.36873 0.6722 8.35687
5.01511 0.813186 7.16794
2.15969 1.29104 2.08214
8.48491 1.22856 6.02367
8.14015 0.923035 3.72794
7.20527 0.325982 9.86584
6.46942 1.0358 9.17179
6.14028 0.825028 5.57134
4.31204 0.516774 8.51971
5.61425 0.1794 1.85409
4.95707 0.360247 7.83491
2.43367 0.348332 1.84782
2.4739 0.264489 3.09262
2.67225 1.59186 2.48517
2.58517 0.316072 1.82304
5.04204 0.149932 7.44686
4.90377 0.20738 7.93664
5.08065 0.0905098 7.33458
7.30782 0.223445 1.7797
4.04522 1.68376 1.72543
9.52811 0.431454 1.32303
2.28375 0.521331 2.05732
1.98507 0.767341 0.437579
1.66457 2.95097 8.71023
2.61516 0.273829 1.82001
5.0569 0.153055 7.48257
4.89015 0.103348 8.02465
5.16198 0.277667 8.23503
2.32166 0.741912 0.668262
5.38495 1.34959 6.93508
9.49584 0.426787 1.30858
2.44662 0.127422 1.83887
3.50507 0.272518 9.29895
1.33517 0.204207 1.34114
7.37213 0.506701 5.19277
8.74464 1.29779 0.0492218
2.73918 0.241972 1.16407
5.18797 0.196317 7.70944
5.7113 0.30957 1.75643
5.7272 0.379745 1.905
9.44045 0.470641 1.30938
0.462645 3.45928 2.42846
7.41138 0.493861 3.71028
3.06492 0.582038 2.49319
9.54434 0.289175 1.19454
2.65723 0.415913 0.875711
1.74742 0.557587 0.738662
4.65257 0.864905 8.36096
5.48446 0.408123 1.25302
5.73327 0.40811 1.90473
1.13819 0.222827 0.694825
2.43901 0.415238 2.01727
8.51838 3.78456 2.2558
5.77812 1.29102 8.63955
5.26321 0.15782 6.99015
3.39531 0.0832323 9.82548
1.70134 0.0805366 2.93147
3.37388 0.424353 0.9914
7.58478 0.74741 3.50642
1.34835 2.14475 8.05357
3.95328 0.555312 1.34015
2.44512 0.310605 2.06439
5.72439 0.289623 1.74973
4.97679 0.192168 7.84325
6.14975 0.687535 5.94141
5.11879 0.64284 6.26754
1.8191 0.618522 3.00779
0.837416 4.71744 7.5331
7.54096 0.736946 3.4691
4.13066 0.507261 7.85837
6.29152 0.768893 5.914
2.93012 0.154886 1.54964
6.75868 0.668369 6.40602
1.09484 1.21546 5.35742
1.19765 0.64686 0.474932
2.17131 0.571727 2.05231
2.45616 0.260553 1.02765
9.77484 0.4371 8.29573
1.67862 0.54625 3.20709
2.74042 0.573773 0.987738
1.67688 0.148369 2.29861
2.92265 0.144739 1.55646
6.58306 0.743289 5.91089
2.30901 1.73573 2.38117
5.25958 0.433045 6.75482
2.73844 1.84964 0.471019
2.63071 0.444249 1.09062
9.01512 0.194289 8.70626
2.39753 0.307919 2.01795
6.6247 0.73024 5.79844
2.73195 0.478444 2.21739
1.22403 0.0651109 0.993215
0.361586 2.82781 2.77804
4.6991 0.335026 7.49071
2.00389 0.4004 3.10777
0.512815 2.96184 2.4092
6.43897 0.903353 5.7773
4.84361 0.398269 8.49204
4.71731 0.924719 8.07497
6.53004 2.61358 8.87961
5.82892 5.31796 0.537841
1.79298 0.290807 0.895706
2.33019 0.450284 0.637383
4.07796 0.636812 8.85761
2.2227 1.38001 2.48416
1.95056 0.538562 3.11267
1.0686 0.345965 1.22502
4.40302 0.79158 8.24887
4.21765 0.579584 8.00646
3.96956 0.450197 8.19181
1.8609 0.565469 0.307804
2.57148 0.23191 1.9015
1.74374 0.168333 2.71658
6.23256 2.7663 8.82956
2.23918 1.74045 2.20893
4.59959 0.340702 7.37366
2.79855 0.58462 1.89691
2.7177 0.601931 0.52653
1.5496 3.01239 8.43674
3.28278 0.428471 3.76895
2.38182 0.377295 2.24499
2.56748 0.24254 1.86807
2.57864 0.758108 0.885134
4.89906 0 7.3395
2.15068 3.42744 1.51191
5.61153 5.66314 9.39662
2.42907 0.299353 2.04614
3.136 0.20921 2.72285
0.788324 4.60438 7.16344
1.88629 0.170763 2.78236
1.76738 0.262708 3.05619
3.16688 0.41848 2.3159
5.47663 0.236939 2.19228
9.10367 0.327727 8.57924
5.14739 0.471907 6.6983
6.44437 0.500615 6.94424
4.80401 0.762189 8.52969
2.26248 0.561098 2.12085
3.1005 0.444763 0.891874
1.90812 0.303619 0.688819
9.57948 0.329566 1.23836
2.68796 0.464422 2.05035
5.90345 0.540983 2.3399
5.10285 0.742287 8.48481
6.41374 0.66893 6.3968
6.2814 0.421023 6.83934
4.69619 0.688538 8.45695
2.26301 0.573482 2.09019
2.32547 0.610851 1.98705
1.40893 1.17995 3.04636
9.31816 0.378284 1.15379
8.11545 5.61096 5.12742
1.83483 0.29045 7.40813
5.06787 0.353002 7.37378
2.18478 0.275822 1.74608
4.86352 0.493078 8.32124
2.39773 0.494339 1.78822
8.23896 2.47087 4.32832
2.56101 0.372714 2.29458
2.17788 0.627255 1.81339
4.79109 0.131098 7.75835
7.62288 0.535194 3.59533
4.3898 0.531361 8.59169
9.18173 0.166115 8.79396
2.41036 0.442569 1.88675
4.81106 0.0264764 7.54766
1.82748 0.616942 1.63898
9.74566 0.430422 8.6881
3.75616 0.453766 1.82028
2.01633 0.330853 0.503147
1.67294 0.1846 3.08328
2.00058 0.486227 2.05015
1.42628 0.341238 2.94111
2.62411 0.666628 2.21838
3.21913 0.266328 2.40702
4.39462 1.14134 8.51389
2.26285 0.0442955 3.22619
2.11242 0.881717 0.69613
4.26922 0.65675 8.43677
5.6582 0.494453 1.6273
4.3319 0.866999 8.41574
2.71192 0.320344 0.570377
5.4239 0.98165 1.6689
4.49408 0.892188 8.35524
3.12318 0.378607 1.35955
8.93597 0.350449 8.85933
2.39752 0.316738 1.69118
9.05539 0.221771 0.930596
4.78542 0.0155334 8.24025
5.64011 0.54233 1.6357
4.3365 0.884728 8.38695
1.52029 0.255472 3.07529
7.744 5.43288 5.0896
5.25844 0.686901 6.83441
7.98652 0.637706 3.92523
4.2901 0.849903 8.11996
3.98919 0.600625 3.44814
8.45379 0.0996496 3.60545
4.17751 0.554143 8.53323
9.08991 0.118716 8.66142
2.82961 0.691229 0.979073
1.6023 0 3.19273
7.87304 5.15608 5.16759
3.02759 0.25091 1.39503
8.22146 0.702271 3.76693
4.76491 0.438444 8.52233
4.50511 0.34353 6.76378
7.59522 0.803703 3.66872
5.61845 9.33109 9.01364
9.42998 0.254023 9.03242
2.38754 0.161272 1.7585
8.65586 0.142726 1.16069
5.67146 0.49381 2.00758
5.99242 0.776701 1.78038
7.84662 0.873065 3.54852
7.8997 0.433179 8.33181
8.37234 0.49312 8.28715
1.70696 0.507829 2.95434
3.1758 0 1.59178
6.45068 0.994377 5.9083
8.28552 1.29612 6.24286
8.69829 0.131972 0.999149
5.86039 0.517314 1.9817
3.47205 0.0649091 2.48068
7.94072 0.846013 3.71052
4.30621 0.694991 8.83383
4.51493 0.23805 8.26821
2.41147 0.115207 1.1035
2.26023 1.47183 2.63019
2.43933 0.608471 1.74833
1.86574 0.293914 2.80451
9.60643 0.142158 1.54227
6.55021 0.862951 5.80187
3.51379 0.599287 0.747028
5.76114 0.999794 2.22872
2.10557 0.104237 2.24618
5.57043 0.301608 1.56768
3.4328 0.252181 2.2622
2.1476 0.363078 1.71777
1.84782 0.3334 2.4152
3.81484 0.417897 2.31945
8.60071 0.464192 3.71806
6.08573 0.63421 5.59048
9.2194 0.190502 8.79422
3.19852 0.576545 2.74192
2.65341 0.361181 1.79898
8.3273 0.289629 3.58177
2.33943 0.0107546 2.13043
6.35489 0.803498 6.41178
5.79643 0.278254 1.88815
2.96906 0.308569 1.24292
5.43735 0.262017 8.49645
2.92699 0.217639 1.26705
4.56221 1.14996 8.38699
1.87335 0.287189 1.87951
9.32152 0.5042 1.32747
9.59413 0.287954 0.861703
2.38025 0.300993 1.84386
5.32094 0.411678 1.99007
9.47101 0.247897 1.37911
2.77269 0.440395 2.1325
5.40484 0.395254 8.55939
2.21156 0.160979 1.85888
4.43044 0.817698 8.31537
2.47339 0.557445 1.90853
9.11417 0.120667 0.909152
4.94991 0.802847 7.18098
3.52349 0.31947 2.53203
1.49062 0.0824296 2.81787
9.11408 0.3201 1.27131
3.42298 0.41469 2.70611
4.80492 0 7.8463
2.20355 0.367711 1.67249
4.89512 0.14295 7.27007
5.32754 0.446624 6.81134
2.53749 0.383003 2.14006
2.49661 0.316743 1.04641
5.8163 0.553845 2.05147
2.35414 0.279722 0.773899
2.56977 0.198683 0.839004
2.47331 0.521159 1.05769
3.86519 0.316653 2.92893
2.56288 0.583686 2.22324
4.7522 0.277572 7.3906
5.32451 0.445745 6.8135
2.86469 0.517277 1.98069
3.03088 0.321328 2.17027
5.38735 0.185025 1.57613
4.40086 0.991653 8.77616
2.18559 0.0488139 0.914163
1.56383 0.18823 2.65301
6.08758 0.594776 2.18192
6.42859 0.483893 5.85822
5.3493 0.540877 8.51415
3.51168 0.216947 2.56922
2.0282 0.851885 0.594829
9.29025 0.260918 8.85945
4.74755 0.487716 8.2132
5.23564 0.589772 8.56583
4.65258 0.483477 8.60607
1.95021 0.270098 1.57437
6.09075 0.614573 2.19036
6.49235 0.520588 5.89765
5.07073 0.263344 7.41803
1.96277 0 1.14619
2.30539 0.502245 1.38746
8.97939 0.252485 8.62512
4.65312 0.436208 8.27656
4.39004 0.759172 8.51563
5.43047 0.417197 8.50904
2.90713 0.693082 0.968732
2.28669 0.104169 1.14162
2.64124 0.214277 1.71409
5.11576 0.433331 8.51275
2.48634 0.276834 1.91151
7.83163 1.14518 3.79208
4.30448 0.904125 8.85434
1.93445 0.44259 3.01602
2.67774 0.208331 2.18886
7.89396 0.705309 3.62646
5.55337 0.422575 1.51492
2.31178 0.147298 1.11586
2.53365 0.232086 1.80849
5.21698 0.281991 8.4576
2.33514 0.631888 2.0449
7.82149 1.1147 3.80549
4.85468 0.673415 7.42527
1.95299 0.455466 3.03255
1.73226 0.157217 2.18263
9.4339 0.500273 0.954947
5.57569 0.458164 1.54713
POINT_DATA 400
SCALARS particleColor float 3
LOOKUP_TABLE default
0.231253 1 0.768747
0 0.519747 1
0 0.778416 1
0 0.319188 1
0 0.436229 1
0.199134 1 0.800866
0 0.650894 1
0 0.742045 1
0 0.468045 1
0 0.685286 1
0 0.536354 1
0 0.306535 1
1 0.876787 0
0 0.303484 1
0.0667766 1 0.933223
0 0.529941 1
0 0.323964 1
0 0.361216 1
0.210344 1 0.789656
0 0.631579 1
0 0.425317 1
1 0.130306 0
0.0917267 1 0.908273
0 0.601351 1
0 0.711152 1
0 0.177711 1
1 5.96046e-08 0
0 0.496562 1
0.344926 1 0.655074
0 0.339733 1
0.405696 1 0.594304
0 0.571199 1
0 0.755985 1
0 0.557147 1
0 0.455064 1
0 0.495618 1
0 0.733926 1
0 0.622364 1
0 0.462356 1
0.0573892 1 0.942611
0 0.819416 1
0 0.255399 1
0 0.44961 1
0 0.525937 1
0.0959572 1 0.904043
0 0.555388 1
0.768248 1 0.231752
0 0.791219 1
0 0.319691 1
1 0.616789 0
0 0.405207 1
0 0.603399 1
0 0.272628 1
0 0.420526 1
0.0529522 1 0.947048
0 0.681971 1
0 0.676167 1
0 0.68337 1
0 0.160004 1
0 0.566505 1
0.318954 1 0.681046
0 0.892639 1
0.384054 1 0.615946
0 0.746004 1
0 0.433855 1
0 0.77905 1
0 0.669144 1
0 0.724131 1
0 0.385751 1
0 0.745859 1
0.337105 1 0.662895
0 0.633268 1
0 0.821061 1
0 0.627753 1
0.0309652 1 0.969035
0 0.804131 1
0 0.791829 1
0 0.307818 1
0 0.614875 1
0 0.975761 1
0 0.74671 1
0 0.413089 1
0 0.219515 1
0 0.253739 1
0 0.495487 1
0 0.288977 1
0 0.639633 1
0 0.853719 1
0 0.232522 1
0 0.249799 1
0 0.339973 1
0 0.582911 1
0 0.768342 1
0 0.347235 1
0 0.352147 1
0 0.326041 1
0 0.274572 1
0 0.606225 1
0 0.937859 1
0 0.303397 1
0 0.911678 1
0 0.654646 1
0 0.598935 1
0 0.421441 1
0 0.534903 1
0 0.548074 1
0 0.642229 1
0.0126257 1 0.987374
0 0.161547 1
0.162034 1 0.837966
0 0.724504 1
0 0.700976 1
0 0.600507 1
0 0.34301 1
0 0.623809 1
0 0.35465 1
0 0.607043 1
0 0.481195 1
0 0.221603 1
0 0.793585 1
0 0.467268 1
0 0.598636 1
0 0.798644 1
0 0.845448 1
0 0.842323 1
0 0.502916 1
0 0.357943 1
0 0.366384 1
0 0.537014 1
0 0.951425 1
0 0.626817 1
0 0.872682 1
0 0.790265 1
0.235778 1 0.764222
0 0.670123 1
0 0.286935 1
1 5.96046e-08 0
0 0.664943 1
0 0.395084 1
0 0.511928 1
0 0.227042 1
0 0.543133 1
0.431737 1 0.568263
0.541561 1 0.458439
0 0.541016 1
0 0.584682 1
0 0.2678 1
0 0.152243 1
0 0.887503 1
0 0.515336 1
0 0.25419 1
0 0.281676 1
0.024941 1 0.975059
0 0.774531 1
0 0.435401 1
0 0.334377 1
0 0.555325 1
0 0.356161 1
0 0.710229 1
0 0.610943 1
0 0.619015 1
0 0.556511 1
0 0.362585 1
0 0.864097 1
0 0.418347 1
0 0.162071 1
0 0.92575 1
0 0.452976 1
0.281943 1 0.718057
1 0.0531582 0
0 0.489798 1
0 0.757141 1
0 0.552111 1
0 0.537809 1
0 0.765081 1
0 0.724406 1
0 0.88679 1
0 0.426695 1
0 0.225115 1
0.0760514 1 0.923949
0 0.52398 1
0 0.368948 1
0.394534 1 0.605466
0 0.39926 1
0 0.261881 1
0 0.528928 1
0 0.948159 1
0 0.809388 1
0 0.829744 1
0 0.626202 1
0 0.565712 1
0 0.59694 1
0 0.750268 1
0 0.402643 1
0.791742 1 0.208258
0 0.863584 1
0 0.518037 1
0 0.941785 1
0 0.850996 1
0 0.929396 1
0 0.351612 1
0 0.49756 1
0.045969 1 0.954031
0 0.610384 1
0.49078 1 0.50922
0 0.42898 1
0 0.603439 1
0 0.901556 1
0 0.36793 1
0 0.710451 1
0 0.753224 1
0 0.436076 1
0 0.68502 1
0 0.563492 1
0.251216 1 0.748784
0 0.300671 1
0 0.545633 1
0.242329 1 0.757671
0 0.254636 1
0 0.566674 1
0 0.845737 1
0 0.812628 1
0 0.207394 1
0 0.295112 1
0 0.402766 1
0 0.950419 1
0 0.68678 1
0 0.832224 1
0 0.605624 1
0.0567292 1 0.943271
0 0.256852 1
0.0994596 1 0.90054
0 0.503581 1
0 0.423591 1
0 0.609824 1
0.0985011 1 0.901499
0 0.659465 1
0 0.557035 1
0 0.650534 1
0.17457 1 0.82543
0 0.895781 1
0 0.813524 1
0 0.367106 1
0 0.71847 1
0 0.587789 1
0 0.954815 1
0 0.972462 1
0 0.632119 1
0 0.487679 1
0 0.277695 1
0 0.493258 1
0 0.804644 1
0 0.607736 1
0 0.779747 1
0.0177121 1 0.982288
0 0.88676 1
0 0.416481 1
0 0.320006 1
0 0.521354 1
0 0.376122 1
0 0.137011 1
0.152279 1 0.847721
0 0.521009 1
0 0.972384 1
0 0.679278 1
0 0.829189 1
0.141237 1 0.858763
0 0.650378 1
0.119425 1 0.880575
0 0.624842 1
0 0.7465 1
0 0.882326 1
0 0.831854 1
0.25916 1 0.74084
0 0.847779 1
0 0.853448 1
0 0.802872 1
0 0.892937 1
0 0.43054 1
0 0.421681 1
0 0.859973 1
0 0.852702 1
0 0.786801 1
0 0.734481 1
0 0.717537 1
0 0.49453 1
0 0.804462 1
0 0.724653 1
0 0.829521 1
0.476474 1 0.523526
0 0.405526 1
0.123154 1 0.876846
0 0.751122 1
0 0.604244 1
0 0.737461 1
0 0.509263 1
0 0.954014 1
0 0.737849 1
0 0.830515 1
0 0.631624 1
0 0.499588 1
0 0.410186 1
0 0.774996 1
0 0.484312 1
0 0.485033 1
0.167819 1 0.832181
0 0.808307 1
0 0.81848 1
0 0.768711 1
0 0.655288 1
0 0.137398 1
0 0.590893 1
0.0117271 1 0.988273
0 0.862933 1
0.0914991 1 0.908501
0.0897437 1 0.910256
0 0.872145 1
0 0.765217 1
0 0.924872 1
0 0.61136 1
0.00742502 1 0.992575
0 0.561338 1
0 0.415663 1
0 0.528453 1
0 0.905417 1
0 0.823004 1
0 0.901737 1
0 0.548724 1
0.127147 1 0.872853
0 0.971815 1
0.242186 1 0.757814
0 0.788256 1
0 0.499273 1
0 0.831308 1
0 0.282501 1
0 0.675441 1
0 0.721508 1
0 0.542476 1
0 0.815866 1
0 0.651758 1
0 0.633246 1
0 0.999007 1
0 0.434108 1
0 0.794832 1
0 0.885504 1
0 0.465573 1
0 0.635383 1
0 0.919249 1
0 0.283487 1
0 0.657099 1
0 0.289086 1
0 0.758668 1
0.0986011 1 0.901399
0 0.973439 1
0 0.738102 1
0 0.576276 1
0 0.794053 1
0 0.720748 1
0 0.716398 1
0 0.163394 1
0 0.268783 1
0 0.495117 1
0 0.423971 1
0 0.258034 1
0.266122 1 0.733878
0 0.33386 1
0 0.502188 1
0 0.612436 1
0.046934 1 0.953066
0.102171 1 0.897829
0 0.286568 1
0 0.317737 1
0 0.885893 1
0 0.357073 1
0.358773 1 0.641227
0 0.517019 1
0 0.734877 1
0 0.889023 1
0 0.377228 1
0 0.974835 1
0 0.421671 1
0 0.473554 1
0 0.219221 1
0 0.452472 1
0 0.592456 1
0 0.886306 1
0 0.633498 1
0 0.407592 1
0.352695 1 0.647305
0 0.6523 1
0 0.4584 1
0 0.662287 1
0 0.147061 1
0 0.788268 1
0 0.424215 1
0 0.483991 1
0 0.830456 1
0 0.600575 1
0 0.868459 1
0 0.728769 1
