# vtk DataFile Version 3.0
Particle simulation
ASCII
DATASET POLYDATA
POINTS 400 float
0.547614 1.8704 8.60526
6.32948 1.04484 4.46227
3.25231 0.600917 0.961289
1.92159 9.89886 9.14235
0.304326 3.16439 2.97832
4.00372 4.3671 6.606
4.86779 7.30532 3.06798
8.29855 8.67052 0.2486
5.25098 2.55512 0.529551
4.8478 0.143734 4.86596
10 2.63317 6.50535
4.17294 2.38701 5.94849
8.72114 5.39389 1.97215
3.26432 3.95108 8.63639
5.62025 3.41974 8.84102
4.42867 0.548995 2.04858
7.67579 0.448767 6.94667
3.25154 0.404691 1.03769
6.36581 1.66926 8.30099
9.83578 0.604118 6.66557
3.24349 0.622181 0.948936
5.82006 5.21961 7.07817
9.60446 3.05255 5.10434
3.12144 0.96532 6.24336
7.62491 3.37608 5.7657
0.637049 1.42876 6.58607
0.74596 4.68132 4.31436
3.07524 0.722856 0.383015
0.105701 8.73064 2.74258
0.811021 9.89757 9.92945
1.22923 1.75589 1.24259
1.50096 6.26357 9.87223
6.29492 9.28764 5.1364
7.27224 1.25435 5.04191
6.15484 2.41393 0.349843
2.64522 7.02238 0.873846
2.72731 0.568661 4.19106
3.06973 0.548189 1.20809
9.78419 2.15507 4.2094
2.68432 2.96159 2.82061
5.49276 7.28016 1.96866
3.99199 0.943174 6.43358
0.300664 7.57335 7.29516
3.08309 9.58115 6.47652
8.78431 0.399196 2.72915
5.43203 0.914797 1.23673
7.12789 4.68901 9.15507
6.92159 0.394872 7.12391
5.50709 0.365917 0.823815
0.6273 5.07851 6.03184
2.81615 7.85211 7.01952
0.947187 2.07602 9.42074
8.99868 2.4717 0.779056
1.96996 9.98814 5.29242
3.80544 1.52526 5.30164
5.58386 0.603809 1.23271
8.01407 9.78403 7.32757
3.8367 0.574377 0.26533
3.89988 3.04057 4.0954
9.75381 1.18607 6.48683
0.782833 4.7202 8.23667
7.9783 1.3174 1.79331
4.25048 8.63165 1.26632
0.682319 0.803902 8.51106
2.59761 9.48478 7.70068
1.40353 1.53808 8.12484
0.733335 3.0183 9.91374
3.4742 3.33972 6.86317
7.89314 4.90893 6.97751
4.73 3.81022 4.6867
5.7927 0.726966 9.98983
4.63328 1.80902 2.43386
8.00316 8.82361 4.12709
0.804225 2.01477 6.42857
4.53559 9.32324 8.22676
7.2704 8.00965 1.77685
2.71523 1.62088 5.31412
5.92824 3.45378 8.7686
5.22166 0.144821 2.88668
6.48432 6.04307 7.13509
3.06689 0.826323 0.838602
6.90026 1.0314 6.5937
2.69769 2.2174 5.68567
2.57279 0.353625 0.467033
4.4164 0.0316392 8.50793
0.403227 1.34224 8.85715
8.92406 7.73765 7.66119
2.53492 1.29759 3.36831
0.845649 2.93281 5.31448
7.09547 1.24085 1.11519
3.80355 0.234261 1.54743
7.96229 1.07834 1.23486
0.384405 3.84615 7.85287
2.61998 0.291606 6.38835
0.335906 0.599082 8.88764
4.86479 7.928 0
9.08422 4.34124 3.61629
5.03307 0.459554 9.2968
7.62318 0 9.51002
7.98594 1.00823 0.520949
3.22854 0.610324 1.05346
1.63343 0.332839 0
2.61014 0.968486 9.33531
3.43344 4.62353 5.77342
7.57792 0.385457 9.19456
1.6455 3.97999 1.71164
3.53576 1.73904 8.65411
5.83353 0.341065 0.59267
2.92854 0.58933 1.15294
1.46912 0.536578 2.05932
4.70147 2.91506 2.85161
0.792682 3.23803 8.50826
7.51573 2.85463 4.14085
5.41311 0.780487 1.26121
2.99289 0.447796 0.959375
0.977207 0.829122 5.97263
4.76023 0.123168 8.32172
8.27318 5.00957 3.56942
7.78321 3.45027 6.11151
4.84611 6.51472 3.26732
3.526 0.159666 1.27221
9.4838 1.11755 4.97308
5.07925 2.31617 7.5336
8.45115 3.91703 5.61105
1.43941 6.37337 4.62376
2.75299 0.428109 0.342778
1.64952 2.65781 4.79121
0.609059 0.595547 8.48538
0.530964 1.36385 6.40325
0.718709 7.77171 3.67273
2.2562 0.584479 1.88612
6.58638 3.62642 7.94583
5.10479 3.75783 0.0986357
7.18476 0.268782 2.70344
4.26173 0.399262 6.81182
2.01932 0.827092 3.64942
2.27705 3.44552 0.716441
0.201055 1.10207 8.65838
2.5117 6.38536 6.695
4.61058 0.621752 8.57541
3.0077 0.534974 0.322076
7.62102 9.27452 3.32615
0.534156 7.98112 9.97899
7.50696 2.32076 6.40072
3.33701 0.610248 0.977584
7.48038 2.15328 6.54449
8.377 0.37123 2.84033
3.13382 9.01631 1.51228
4.91161 1.82346 2.18885
6.18506 1.85457 5.38149
3.04831 0.58775 0.370999
4.92896 2.00563 5.84495
0.787137 0.15134 8.86205
2.50795 1.38595 2.66914
4.07596 5.53139 8.17686
6.25995 0.0962727 1.07902
7.3013 1.08078 0.544888
5.08988 0.192323 1.3418
1.41893 1.73805 9.50019
4.32087 3.209 3.19144
5.07556 2.95099 0.715371
5.36225 1.00054 5.7752
5.86404 1.67907 8.37732
3.07488 3.86634 0.421935
5.36098 0.582391 7.42709
9.54772 5.0374 9.53234
5.80579 0.603341 2.47677
7.38923 0.419721 9.41555
8.92943 3.64574 4.09636
0.747028 0.096964 9.75101
3.29804 0.14571 0.819681
9.92695 4.27344 0.504174
7.04713 4.10475 3.72236
1.21236 4.41634 1.63839
3.16061 0.105541 6.04663
4.028 8.32139 0.403197
1.38967 0.569184 6.94883
2.78001 1.85029 5.55032
0.856919 0.69251 7.49847
8.5535 7.67633 8.32695
3.01082 0.406879 0.968117
3.36236 9.70586 0.894862
5.49756 0.232945 7.52591
7.68528 1.26718 0.770375
4.80755 0.357205 8.51953
8.69799 1.03107 1.50925
3.25401 0.410946 0.888545
3.33078 7.07157 1.27464
8.28516 0.308342 3.09338
3.33088 0.149854 0.554554
3.51363 0.224185 0.742494
3.44071 0.334798 1.04345
3.77948 6.98783 6.58413
0.248184 0.579533 1.18001
6.75122 3.18059 8.08222
3.58718 0.138459 0.57548
3.84366 0.563441 4.96667
6.42888 7.25915 9.72083
3.12976 0.622051 0.95635
3.23368 0.150361 0.780814
3.12095 0.406426 0.558171
5.60672 0.121228 0.65159
8.30728 0.709945 3.06455
1.18696 0.546629 7.02634
3.70767 8.13104 1.09276
5.18435 0.48323 8.44065
3.22716 0.146333 0.878795
6.00899 4.5909 2.88254
2.64555 2.27035 0.380713
8.30295 0.901453 1.14449
3.706 0.286152 0.761867
3.77659 0.0386985 0.487815
8.6625 2.66211 2.06412
6.85948 0.54487 6.94382
5.10276 3.24304 9.111
4.84942 0.333689 8.18561
3.30369 0.597866 0.726751
3.04705 0.460525 0.535898
3.18186 9.11795 5.97737
6.37227 0.40446 2.32075
2.60407 8.86792 4.99162
7.54098 5.24713 6.82844
5.03473 0.206455 7.98137
3.67192 0.393776 0.628287
7.13807 0.711818 7.22763
2.34961 0.505331 0.484246
6.86069 1.82008 1.04113
3.31788 0.360414 1.31145
3.22318 0.600698 0.987887
8.81721 2.64088 0.494216
5.69944 0.67635 5.84935
4.85776 0.550942 7.79625
8.41625 0.617916 2.89038
3.71505 0.278652 0.641069
5.00657 0.376471 8.58966
1.81581 1.17734 3.2267
5.75252 1.43701 7.86595
2.42079 1.96252 5.25384
3.27357 0.185728 1.17314
9.59946 4.60054 8.6001
3.29082 0.737057 0.953087
3.76124 0.491948 1.09784
2.95109 0.618477 0.274241
2.76869 0.117643 0.787853
4.70026 0.442878 8.4416
1.64638 4.03199 1.62312
1.21528 0.535732 5.11676
2.58117 0.885064 6.74208
1.55193 4.07584 1.43512
8.08547 0.284155 7.52489
3.3116 0.458085 0.924608
0 9.59705 5.32944
5.0842 0.286572 8.80617
4.02711 1.12212 6.42513
8.50302 0.607848 2.97381
3.49009 0.429099 0.732935
5.10687 1.76374 6.15433
4.8316 0.532916 7.90222
4.42284 2.7154 4.70221
5.03243 0.404849 8.64188
2.99941 0.37945 0.460535
8.82823 9.58628 1.91292
1.14968 0.603758 7.00195
7.15364 4.37871 6.15651
4.91996 0.0593003 7.96288
0.0842762 3.06418 6.45052
5.30302 0.53521 0.728683
4.97287 0.678719 8.79969
8.52147 0.439775 2.9571
2.99761 0.750597 0.117799
3.02237 0.31367 1.18756
7.18463 0.0439076 0.340095
2.95201 1.76704 1.25266
3.14801 1.46478 5.17158
6.47233 2.22956 8.69801
5.22794 0.231463 8.077
2.20376 1.83549 5.41165
8.216 8.69506 3.32764
2.32277 2.09392 0.42894
3.45484 0.545903 0.673343
5.44151 0.268938 0.386512
5.99132 0.38752 1.12671
8.04856 3.54126 4.0409
1.29435 0.482588 7.35518
9.92722 5.17619 9.80862
8.56078 0.242464 2.49117
3.12877 0.634522 0.966444
7.08961 1.5979 6.29103
6.23125 2.3435 8.63845
3.60951 7.72417 2.29339
9.36475 0.0637642 1.90841
6.06785 0.279699 1.29499
3.4047 0.338452 1.29087
0.505222 0.687252 8.46892
4.72787 0.334542 8.2011
4.73951 0.41172 7.88341
3.58496 0.584996 0.655516
3.50672 0.583522 1.02508
7.5992 1.64493 6.10834
3.64121 0.517923 0.515746
0.363792 0.940685 0.691666
2.87107 0.87029 6.99181
3.43946 0.553455 5.20431
2.19646 0.935211 9.96141
3.13724 0.311598 1.1137
0.491059 0.754228 8.73795
3.65012 0.319077 1.108
3.34613 0.450672 0.68797
0.666561 0.0470496 8.91286
2.8595 1.3801 5.54537
4.99428 0.56193 8.5107
5.06444 1.85213 5.4283
8.48848 0.191323 3.17883
3.44516 0.524807 0.607672
7.41253 1.78498 6.35231
0.567592 0.724978 8.47929
7.74085 1.0854 1.55803
4.59883 2.69259 4.49583
5.45906 2.24356 6.33294
4.91724 1.97735 2.10783
4.98938 0.312867 7.88949
0.946444 0.236182 5.20904
4.63094 0.0201186 8.26446
4.19756 0.223386 0.845281
5.57767 0.371383 0.423014
7.95656 1.05921 0.611338
3.03911 0.558199 0.625918
6.31776 0.0872977 0.794688
0.233492 3.49211 1.71036
3.0754 0.113767 0.208332
9.07959 0.790408 5.33328
3.35022 0.309399 1.08851
5.05269 0.298741 7.94849
3.9466 0.521174 0.828921
5.71693 0.625819 0.888225
7.58696 4.40249 6.61264
4.29319 2.79246 4.54444
3.69104 0.325679 0.651668
9.54318 0.791389 6.97698
2.84041 0.243481 6.19644
5.16552 0.27132 8.22912
2.55973 0.328286 6.13131
5.25496 0.320325 8.11487
4.74254 0.429347 8.50427
3.12712 0.277179 0.763664
3.11172 0.549836 0.901153
6.1307 0.182253 0.836804
3.70494 0.338392 0.702855
3.17302 0.590472 1.39349
3.07312 0.321673 6.20591
2.67262 0.562713 0.931351
3.31092 0.563657 0.758961
5.72591 1.76904 8.36996
5.10423 0.348789 8.08046
3.12026 0.213547 0.757542
3.26133 0.314253 0.792499
5.26828 0.514631 0.615794
5.24861 0.672199 8.03141
3.28585 0.328229 0.68479
3.21635 0.482401 0.984091
5.79534 0.431933 1.16046
4.49 0.271478 8.42436
4.51702 0.203292 8.02392
3.0923 0.449333 1.0668
3.21888 0.386334 0.833588
8.69965 0.448981 3.24288
4.69393 0.298782 8.08956
7.3352 0.623108 7.14531
5.09423 0.327819 8.06882
7.59288 0.766975 0.514116
5.73694 0.453887 1.16479
4.91625 1.97735 5.69642
4.95564 0.271317 8.04782
3.31688 0.842284 0.242588
2.85039 0.409056 0.781029
8.26675 0.510034 2.92867
4.7373 0.364566 8.32525
4.99175 0.527638 7.74268
4.49563 0.103156 8.51601
3.30475 0.321664 0.866447
3.1624 0.147997 0.339381
3.06465 0.38289 1.07704
4.34385 0.0366369 8.59391
3.34649 0.474678 1.42592
0.60928 0.524447 8.41083
4.87818 0.272411 8.15899
3.40596 0.311847 0.714431
3.40701 0.562547 1.15135
4.20798 4.38303 9.35163
5.79168 0.0966444 1.16945
3.07855 0.356638 0.433099
3.3265 0.366455 0.878563
4.71227 0.0719774 8.35367
3.08746 0.514061 0.690358
0.737118 0.401494 8.23452
4.63674 0.214355 8.18106
3.44536 0.280076 0.655279
3.31771 0.0996692 6.27207
5.89689 0.375607 0.904878
5.76471 0.0888498 1.18468
POINT_DATA 400
SCALARS particleColor float 3
LOOKUP_TABLE default
0 0.35325 1
0.468576 1 0.531424
1 0.650671 0
1 0.26633 0
0.413812 1 0.586188
1 5.96046e-08 0
0 0.598457 1
0 0.999988 1
0 0.873516 1
1 0.606591 0
0.403653 1 0.596347
0.80692 1 0.19308
1 5.96046e-08 0
1 0.695939 0
0.994359 1 0.00564092
0.437081 1 0.562919
0.983048 1 0.0169523
0 0.510756 1
0.203389 1 0.796611
0.554899 1 0.445101
0 0.372989 1
0.777304 1 0.222696
1 0.66766 0
1 0.367824 0
0.406127 1 0.593873
0.298174 1 0.701825
1 0.939072 0
0.611173 1 0.388827
0.00222696 1 0.997773
0.97633 1 0.0236695
0 0.158273 1
0.145924 1 0.854076
1 0.466377 0
0 0.576971 1
1 0.915067 0
1 5.96046e-08 0
1 0.590851 0
0 0.36934 1
0 0.637914 1
1 0.641814 0
1 0.89768 0
0.696395 1 0.303605
0.705329 1 0.294671
1 5.96046e-08 0
0 0.955544 1
0 0.840783 1
0 0.298501 1
0.144436 1 0.855564
0 0.909479 1
1 5.96046e-08 0
0 0.910884 1
1 0.586366 0
0.0685049 1 0.931495
1 0.0169993 0
0 0.564104 1
0 0.552044 1
0.611771 1 0.388229
0.452823 1 0.547177
0 0.427642 1
0 0.26781 1
0 0.347537 1
0.122932 1 0.877068
0.429513 1 0.570487
0 0.328111 1
1 0.659788 0
1 5.96046e-08 0
0 0.559009 1
0.6842 1 0.3158
0.829188 1 0.170812
0.077853 1 0.922147
0.721131 1 0.278869
0 0.615834 1
0.482669 1 0.517331
1 5.96046e-08 0
0.11546 1 0.88454
1 5.96046e-08 0
0 0.439356 1
1 0.973384 0
0.376235 1 0.623765
0 0.714334 1
0 0.367481 1
0 0.671161 1
0.296887 1 0.703113
0 0.442996 1
1 0.928989 0
0 0.778591 1
0.317341 1 0.682659
0.325877 1 0.674123
0.199077 1 0.800923
0 0.890905 1
0 0.331702 1
0.877219 1 0.122781
0.717009 1 0.282991
0 0.450275 1
0 0.699651 1
1 5.96046e-08 0
0.690011 1 0.309989
0.0523124 1 0.947688
1 0.63725 0
0 0.861684 1
0 0.493715 1
1 5.96046e-08 0
0.96876 1 0.0312399
1 0.435262 0
0.343617 1 0.656383
0 0.8507 1
0.644049 1 0.355951
0 0.619937 1
0.0921201 1 0.90788
1 0.914772 0
1 0.962758 0
0 0.647555 1
0.363559 1 0.636441
0.0576697 1 0.94233
0 0.745976 1
0 0.809177 1
0 0.594056 1
0.748236 1 0.251764
0 0.778371 1
1 0.388993 0
0 0.516846 1
1 5.96046e-08 0
1 0.204146 0
0.0279974 1 0.972003
0.43716 1 0.56284
0 0.597876 1
0.478668 1 0.521332
0 0.482459 1
0.432591 1 0.567409
0.138342 1 0.861658
0 0.541216 1
0.778786 1 0.221214
0.702514 1 0.297486
0 0.5746 1
0.184123 1 0.815877
0 0.928077 1
0.336802 1 0.663198
0 0.60673 1
1 0.507118 0
0 0.512671 1
0 0.455386 1
1 5.96046e-08 0
1 0.392907 0
0.260941 1 0.739059
0 0.64485 1
0 0.818623 1
0 0.88835 1
0 0.892104 1
0 0.450038 1
1 0.513718 0
0 0.419382 1
0 0.622473 1
0 0.355776 1
0.692524 1 0.307476
0 0.470084 1
0 0.550825 1
0 0.761451 1
0 0.226132 1
1 0.944438 0
0 0.942088 1
0 0.680813 1
0.336201 1 0.663799
0.285743 1 0.714257
0.610473 1 0.389527
1 0.664547 0
1 0.591283 0
0.191649 1 0.808351
0.13817 1 0.86183
1 5.96046e-08 0
0 0.974452 1
0 0.597785 1
0 0.835139 1
0.420619 1 0.579381
0.298141 1 0.701859
0 0.540368 1
0.605069 1 0.394931
0 0.721095 1
0 0.905788 1
0 0.432539 1
0.0923459 1 0.907654
0 0.534944 1
1 0.478412 0
1 0.417791 0
0 0.780362 1
0 0.839085 1
0.109674 1 0.890326
0 0.945825 1
1 5.96046e-08 0
0 0.528543 1
0 0.427301 1
0 0.384484 1
0 0.419769 1
0.202212 1 0.797788
0 0.650102 1
1 0.248229 0
0 0.383248 1
0 0.513008 1
1 5.96046e-08 0
0 0.207296 1
0 0.816409 1
0 0.708447 1
0 0.601712 1
0 0.616937 1
0 0.452109 1
1 0.564371 0
0 0.287004 1
0 0.745315 1
0.773543 1 0.226457
0 0.396198 1
0 0.609922 1
0 0.42111 1
0 0.267161 1
1 5.96046e-08 0
0 0.566187 1
0.101479 1 0.898521
0 0.630764 1
0 0.967639 1
0 0.813028 1
1 0.582792 0
0.827179 1 0.172821
1 0.323805 0
0.416108 1 0.583892
0.11688 1 0.88312
0 0.818369 1
0.0808209 1 0.919179
0.0284827 1 0.971517
0.0612292 1 0.938771
0 0.587216 1
0 0.953621 1
0 0.730453 1
0.20996 1 0.79004
0 0.890233 1
0.440052 1 0.559948
0 0.921091 1
0 0.335251 1
0 0.964609 1
0.376908 1 0.623092
0 0.650902 1
0 0.625217 1
1 5.96046e-08 0
0 0.572727 1
0 0.929114 1
0 0.484623 1
0 0.494407 1
0 0.775847 1
0 0.936257 1
0 0.278799 1
0 0.767524 1
0.0234896 1 0.97651
0 0.613963 1
0 0.833432 1
0.00699406 1 0.993006
0 0.561938 1
0.251169 1 0.748831
0.00211913 1 0.997881
0 0.781444 1
0 0.734801 1
0 0.782694 1
0 0.588804 1
0 0.583203 1
0 0.420625 1
1 5.96046e-08 0
0 0.494397 1
1 5.96046e-08 0
0 0.848267 1
0.554666 1 0.445334
0 0.652149 1
0 0.446681 1
0 0.18762 1
0 0.391052 1
0 0.925883 1
0 0.522439 1
0.240319 1 0.759681
0 0.249128 1
0 0.862678 1
0.096402 1 0.903598
0.0321027 1 0.967897
0.578633 1 0.421367
0.0754008 1 0.924599
0 0.105888 1
0 0.248412 1
0 0.493195 1
1 0.0452465 0
0 0.901907 1
0.530107 1 0.469893
0 0.499813 1
0 0.763173 1
0 0.734464 1
0 0.404614 1
1 0.433954 0
0 0.409294 1
0.277787 1 0.722213
0 0.799881 1
0 0.46611 1
0 0.978943 1
0 0.517198 1
0 0.477618 1
0 0.512218 1
0.0400892 1 0.959911
0 0.399127 1
0 0.838821 1
0.191042 1 0.808958
0 0.591464 1
1 0.341863 0
0 0.731337 1
0 0.723061 1
0.08272 1 0.91728
0 0.671235 1
0.338064 1 0.661936
0 0.476685 1
0 0.719405 1
0 0.652068 1
0 0.252478 1
0.0632243 1 0.936776
0 0.747007 1
0 0.959176 1
0.134974 1 0.865026
0 0.879524 1
0.10579 1 0.89421
0 0.872136 1
0 0.919956 1
0 0.576084 1
0 0.297472 1
0 0.612135 1
0 0.684735 1
0 0.250696 1
0 0.66697 1
0 0.751351 1
0.229444 1 0.770556
0 0.531294 1
0.496547 1 0.503453
0 0.759619 1
0 0.268138 1
0 0.477848 1
0 0.300926 1
0.439571 1 0.560429
0.181759 1 0.818241
0 0.618459 1
1 0.887666 0
0 0.73211 1
0 0.800068 1
0 0.743315 1
0 0.612434 1
0 0.283542 1
0 0.849512 1
0 0.685342 1
0 0.248259 1
0 0.427424 1
0 0.873034 1
0 0.54581 1
0 0.7212 1
0 0.794592 1
0 0.395965 1
0 0.787071 1
0.347773 1 0.652227
0.0917766 1 0.908223
0 0.53035 1
0 0.305342 1
0.222527 1 0.777473
0 0.78015 1
0 0.72152 1
0 0.501325 1
0 0.636467 1
0 0.284314 1
0.28206 1 0.71794
0 0.263344 1
0.11467 1 0.88533
0 0.498864 1
0.150446 1 0.849554
0 0.808437 1
0 0.790555 1
0 0.593614 1
0 0.79503 1
0 0.365552 1
0 0.486456 1
0 0.941087 1
0 0.612489 1
0 0.782127 1
0 0.969714 1
0 0.623482 1
0 0.301442 1
0 0.29952 1
0 0.850731 1
0 0.459742 1
0 0.0906434 1
0 0.262082 1
0 0.80579 1
0 0.563859 1
1 5.96046e-08 0
0 0.41397 1
0 0.231229 1
0 0.397513 1
0 0.857446 1
0 0.303225 1
0 0.731528 1
0 0.318819 1
0 0.766089 1
0 0.439567 1
0.198409 1 0.801591
0 0.514587 1
