# vtk DataFile Version 3.0
Particle simulation
ASCII
DATASET POLYDATA
POINTS 400 float
6.47084 6.27364 6.78453
0.16644 6.01479 5.74556
0.972235 8.11251 6.46738
5.07507 6.23112 0.499456
8.22034 5.76718 4.80266
8.84003 7.95211 6.00736
8.85438 0.482976 9.50751
3.62958 7.43556 3.47271
4.86852 4.99494 0.273033
1.10305 1.13334 7.93622
1.2314 5.78069 2.30745
8.52911 7.37934 0.63693
9.19977 3.84011 4.26289
7.01225 1.55735 5.57582
5.81988 3.93589 8.91224
2.02006 6.98022 6.74629
5.00983 5.20481 7.75203
4.17133 0.447556 3.21696
5.58734 5.52076 8.50988
2.414 0.916715 1.17441
4.08205 0.726162 2.99028
9.10667 4.12879 8.56014
9.29111 4.29869 1.9801
8.44701 0.338871 5.01956
2.33702 9.89122 0.459292
5.69667 5.2147 8.74358
0.53752 1.64378 8.48091
4.22589 5.65181 9.37464
7.94483 0.781245 7.53548
3.8323 1.59168 8.7179
2.73955 9.27953 3.70554
9.49811 9.40195 0.146704
8.81775 8.07528 2.26656
3.41232 4.06519 0.39156
5.4963 6.54427 4.69977
3.30336 6.50544 5.73551
8.85676 10 1.66547
5.00755 0.346133 3.80422
0 3.7778 3.88314
4.07186 0.902779 8.7391
0.0570835 2.70201 1.32674
9.2079 5.03431 6.41661
9.46202 6.22423 5.84124
2.17916 3.37344 0.801395
7.86517 0.3565 8.48783
0.569858 1.86821 5.39272
1.25175 9.44374 0.171976
5.71941 5.23278 8.90416
5.2521 1.3615 5.26007
3.3566 5.30746 9.29729
7.80508 0 0.443499
8.20667 0.133399 6.41377
8.32559 9.65548 5.38003
0.611613 5.47246 6.77743
1.49623 0.807107 4.59579
2.58515 1.35396 7.19654
2.03586 9.43365 0.802816
0.670437 1.80303 8.87799
7.31573 4.3055 8.42572
0.74919 4.76665 2.58235
3.2873 1.18132 1.84702
5.21865 9.78498 3.78147
4.31881 1.99375 7.47163
1.59069 2.46134 9.61717
0.0841744 4.18704 8.1178
0.933262 6.59844 1.33551
1.84536 5.21266 1.47138
1.5848 2.10218 0
0.206132 9.41382 8.9995
5.41113 4.35699 7.19037
2.02558 8.65774 0.958758
3.94375 2.18767 5.7752
8.53136 4.27418 7.48394
8.87486 4.12638 2.50518
8.99688 2.53518 5.15205
7.34512 2.97146 6.72957
8.73393 0.509287 7.51174
7.83357 9.47818 5.73933
8.94415 4.78496 4.38243
0.220941 3.81554 6.05105
4.01347 0.471769 2.78329
1.77837 2.91499 2.69273
7.98003 2.53564 6.25435
9.41511 4.02126 5.68196
7.1583 9.01532 2.68934
7.21845 6.2131 3.97088
4.84106 4.19117 0.428176
0 0.38278 7.86608
1.87026 9.98724 9.16227
4.97223 9.41241 3.23418
4.49752 0.840438 2.69816
5.7114 2.62423 0.544558
10 3.5837 2.31633
9.5694 3.77769 5.43202
4.89267 5.90227 9.68822
4.56851 5.13458 0.138714
6.96447 3.51643 5.94318
2.8645 7.69945 4.04276
7.18202 4.67606 9.54801
8.26911 7.70604 6.49604
4.36642 3.4395 0.876993
8.13251 7.92403 0.495355
6.61123 0.800246 1.08464
1.24654 6.98653 7.27236
0.194966 9.60943 2.51943
9.41285 0.356209 4.02494
8.55749 4.20337 1.70013
1.34953 3.48391 8.55943
8.41814 5.92297 8.80921
9.18575 1.09515 5.57434
7.79677 6.08753 0.331149
3.50233 5.88246 4.32908
4.56004 0.0483549 5.52976
8.50557 9.74343 1.20901
2.83908 0.37704 2.17661
4.71203 5.77549 5.51207
0.688073 0.803417 8.30049
8.72833 3.1722 4.28641
0.0774529 1.43068 5.10257
3.88937 2.92632 0.584296
5.31336 6.05696 7.47095
4.85767 5.84668 8.49736
2.66431 7.6571 1.65466
0.915255 1.52108 1.85976
9.23668 7.21927 4.81552
3.44356 2.71763 2.23416
8.86886 0.261009 2.82058
5.12576 1.46587 6.64702
4.59507 2.46626 4.93016
5.36777 7.69061 1.27373
5.8915 2.99567 5.75066
8.88162 5.29344 4.69124
3.59586 3.92221 8.85539
6.9409 1.80262 5.37392
6.77506 0.421625 2.5976
3.83103 8.88696 6.74291
3.15029 1.46595 6.43144
6.18354 1.64433 3.4097
8.43138 6.45859 2.41601
9.65104 5.76783 0.867729
3.68051 0.231421 2.70131
7.21964 0 7.16911
1.75226 6.44738 8.50232
5.71433 1.3995 1.67977
3.78351 5.88983 0.1968
6.34249 2.15293 8.93396
5.25196 9.45144 0.509785
9.31094 4.61853 4.30724
9.95871 2.71326 4.72906
8.0127 8.01028 4.82146
4.1233 0.483705 2.52464
6.48311 8.03635 3.82768
9.2238 1.47104 8.64766
4.20944 0.426007 2.20973
6.78233 4.33612 0.00876713
5.37566 8.09927 5.8507
9.15911 8.61877 3.47387
7.1265 5.19612 4.49821
5.17766 5.32569 9.76918
4.58831 5.19323 4.01336
8.77745 5.25789 6.27256
0.0336262 2.34343 5.18753
4.03772 9.65841 1.04006
2.30259 4.48548 2.34195
4.50902 0 0.223769
6.09209 1.95217 6.31204
4.66206 2.00395 8.46118
0.908719 9.15818 0.389289
1.07718 3.69904 9.90867
7.54395 2.53792 0.612763
4.17377 0.642958 2.63683
2.65138 2.59257 2.4166
3.19546 9.24201 4.55402
6.56609 8.2854 4.34142
2.00556 8.40286 5.94149
0.12204 4.46331 7.57476
0.608326 7.94955 1.21416
2.14875 0.720296 2.09611
9.51278 3.55459 4.00919
3.4926 7.67488 0.732651
3.12845 0.766982 2.87744
3.37489 1.07946 3.15849
0.674329 9.58507 5.19269
8.91693 0.570477 3.91729
2.05014 6.92146 4.99905
1.92035 6.9136 5.41983
4.1211 0.549236 2.42425
7.56108 2.82228 3.72097
2.82232 0.14947 2.32277
3.0529 0.116823 2.26618
3.99738 0.452997 2.28084
4.20458 0.922336 1.86392
3.30287 3.57205 0.450605
3.46331 3.6368 7.23868
7.0165 0.823437 8.02346
8.96445 0 0.776912
4.71214 2.68076 9.36915
0 1.48862 8.82573
4.99255 0.487333 0
4.47546 0.532081 2.04159
3.89919 0.406109 2.76062
5.85201 3.90885 1.26169
1.74498 3.02154 9.46919
4.14763 10 6.49422
5.03228 9.73575 5.37191
8.11989 0 8.05813
9.9605 1.41843 10
3.54206 3.40875 7.88464
3.86663 5.05727 7.24509
1.15043 9.92076 9.44272
3.96796 0.303884 2.61198
4.03525 0.310326 2.57181
2.11351 2.01238 0.278613
2.18978 4.9048 6.46075
0.941961 5.50142 0.739412
9.58484 10 6.38796
4.05017 0.670847 2.83695
4.44618 2.11899 5.42486
1.38788 1.13836 3.88576
6.16963 9.47297 7.42252
9.70358 4.46834 1.01048
4.03051 9.45071 1.48653
1.26323 5.67093 3.41418
4.21513 0.866026 2.21403
7.66651 5.07701 4.80147
3.80293 0.889922 1.75242
4.24888 5.23364 9.80942
4.23537 0.253696 3.20777
4.1972 0.368997 2.83993
5.85076 6.14636 0
5.94856 4.13863 9.5974
1.44752 7.33188 0.42184
3.25969 4.29788 1.71031
3.67503 0.237629 2.68288
0.833311 0.63517 8.46483
7.27368 3.15367 4.26528
3.92786 6.14721 9.6138
3.03807 4.51599 8.47844
4.20496 0.239794 2.29476
0.544335 6.44395 9.68724
4.04987 0.448031 2.61616
4.16426 0.457388 3.41183
7.16318 4.08859 0
3.77544 0.213587 3.46991
6.13763 7.36366 3.41809
8.65878 6.10452 1.55407
7.3311 6.76667 3.50732
0 7.72017 2.72277
0.399183 9.79406 2.72098
1.7226 1.33734 1.6968
4.09348 0.262365 2.37658
5.64084 0.563876 7.08486
6.34661 2.18462 4.48615
6.8997 3.8468 6.95839
0.548851 0.143054 9.88659
0.310457 0.14215 3.40917
9.59424 9.13292 6.43754
0.773671 0.80671 8.52052
0.839996 5.1336 8.99081
0.843384 0.708392 8.43149
1.36683 2.7669 5.33585
7.37383 4.43559 8.44413
1.09887 1.10716 7.79688
2.7576 3.07265 7.83828
1.56439 4.39576 7.575
7.70784 5.88027 6.98547
1.33675 6.61085 1.42672
1.08309 0.490759 8.60715
6.46403 9.12179 10
0.649276 1.44905 0.94434
4.13641 0.206423 2.97336
10 0.351561 8.48483
9.02201 7.46147 10
4.08067 2.63241 9.45442
8.62854 1.3826 4.16347
8.16147 7.67191 1.88145
6.41058 2.07921 5.37434
7.13997 4.45615 8.2633
3.61766 1.57447 8.95704
3.93423 0.454729 2.7158
7.30148 7.97733 8.38619
8.95765 0.429844 0.974333
0.900961 6.52294 7.25668
1.01493 0.953041 2.24437
7.21666 4.94817 8.7935
0.866837 8.74482 7.04563
3.85512 0.490107 2.57876
0.87448 1.37661 4.92388
8.74931 0.658938 1.88557
8.73475 0.435104 7.93187
6.8652 3.27592 7.84487
4.656 6.25143 2.39193
3.68055 0.444133 2.61486
4.52101 9.55279 7.34074
0.834646 0.718732 4.38299
1.00116 0.618618 8.2304
4.16794 0.256593 2.85803
3.82935 0.485137 3.00428
3.84693 0.521519 3.37879
4.07407 0.445384 2.88202
4.99615 2.79242 0.450139
7.12979 0.0539747 0.465154
4.45455 1.13032 3.19026
6.20241 6.08011 0.259372
3.81436 0.23955 2.57061
1.22993 2.96297 9.616
3.85113 0.232961 2.78987
4.02976 0.285198 3.1593
0.28541 2.79165 7.35128
9.01776 4.2408 6.1841
9.24462 6.73415 9.41131
1.16774 0.666842 6.2488
0.0163312 4.12071 2.62174
4.20477 0.473089 2.4594
3.2621 0.824275 5.8056
0.0740597 9.77263 7.46974
4.82934 3.55022 0.818386
2.20634 5.24356 4.67972
3.35145 0.938424 6.57246
8.19684 4.90205 0.826886
1.0635 0.384989 8.43136
7.89144 8.11263 8.07291
0.576669 0.68887 8.12994
3.96094 0.530001 2.39572
0.368222 0.0640037 4.41097
9.35897 1.66351 6.45399
3.93697 0.782143 2.95758
5.52418 7.80563 0
1.95507 7.00362 9.15989
3.87814 0.344222 2.8089
1.0406 9.72858 3.04211
0.829943 3.41915 0.717676
0.485225 1.0262 5.14353
0.702047 1.69114 1.17171
8.80081 0.556543 1.05218
2.05576 2.9304 4.18305
7.76394 3.20465 4.49818
4.02667 0.427553 2.56817
0.569285 3.91993 9.76917
7.23503 6.44936 7.68479
9.38425 6.41411 7.25916
4.82664 4.55288 0.793664
0.104057 4.80703 7.76556
0.747121 0.761723 8.36307
4.28862 0.136416 2.70163
4.79446 0.46786 3.61268
8.96637 0.833644 1.14196
3.98264 0.69272 3.13273
3.5914 0.381306 2.87255
9.18341 0.380888 5.89999
3.58988 0.33123 3.07622
4.07063 0.598018 3.0881
2.83578 9.82092 4.42484
7.82371 8.2308 4.02844
2.70733 0.192513 2.38247
4.09465 0.640763 2.01245
3.29844 2.7304 2.96444
2.52553 7.12386 8.71254
4.31421 0.792809 2.57875
4.00478 0.42222 2.88663
8.70042 0.549182 0.960869
0.722743 0.712232 8.36495
0.940014 0.72251 8.39976
4.29743 0.309214 2.07898
4.21186 0.227407 2.3879
8.46753 0.675066 0.786679
0.878794 0.907173 7.83989
2.10054 1.87043 0.701784
0.751512 0.784506 8.43586
7.81504 0.252938 0
8.99589 0.0926013 0.959888
1.54849 0.616518 6.26317
9.35013 5.0304 4.61829
3.82363 0.45988 3.01701
4.29689 0.0767023 2.22084
9.13669 0.342693 0.85506
0.799279 0.235345 8.39051
0.854213 0.664656 8.20943
2.48112 2.06926 9.43499
3.79504 0.282336 2.57721
3.81929 0.591763 3.19983
4.0364 0.642804 2.92035
2.46267 2.08396 9.11956
3.86667 0.376448 2.54833
8.22647 2.75387 3.03748
0.706361 0.555418 8.29073
4.1371 0.156248 2.91587
3.69519 0.424411 3.03755
0 8.73445 7.55322
0.891647 1.34386 8.50236
3.30341 0.463225 2.78296
4.31285 0.689492 2.72328
1.36663 0.528366 8.5606
4.13357 0.454009 2.75579
3.18621 2.40936 1.58077
1.10655 0.729414 8.62723
4.1648 0.0556321 2.8478
0.637608 8.13704 1.94947
1.12018 1.54904 5.14921
9.1622 0.556291 0.898035
POINT_DATA 400
SCALARS particleColor float 3
LOOKUP_TABLE default
0.29785 1 0.70215
0 0.674737 1
1 0.511585 0
1 5.96046e-08 0
0.479804 1 0.520196
1 5.96046e-08 0
0.336517 1 0.663483
1 5.96046e-08 0
0.830285 1 0.169715
1 0.396115 0
0.0629845 1 0.937016
1 5.96046e-08 0
1 5.96046e-08 0
1 0.849876 0
1 5.96046e-08 0
1 5.96046e-08 0
1 0.821428 0
0 0.322566 1
1 0.969386 0
1 0.539755 0
0 0.671636 1
1 5.96046e-08 0
1 5.96046e-08 0
1 5.96046e-08 0
0.210386 1 0.789614
1 5.96046e-08 0
0 0.977886 1
1 5.96046e-08 0
0.560551 1 0.439449
0.569957 1 0.430043
1 0.563019 0
0.34733 1 0.65267
1 0.890105 0
1 5.96046e-08 0
1 0.765419 0
1 5.96046e-08 0
1 5.96046e-08 0
0 0.549776 1
1 5.96046e-08 0
1 0.123274 0
1 5.96046e-08 0
1 0.875778 0
1 0.0442196 0
1 0.585698 0
1 5.96046e-08 0
1 5.96046e-08 0
1 0.732116 0
1 5.96046e-08 0
1 0.71046 0
1 5.96046e-08 0
1 5.96046e-08 0
0.706144 1 0.293856
1 5.96046e-08 0
1 5.96046e-08 0
1 0.242937 0
0 0.921394 1
0 0.821591 1
0.245144 1 0.754856
0.369489 1 0.630511
0 0.813249 1
1 5.96046e-08 0
1 0.853746 0
0.489497 1 0.510503
0.745369 1 0.254631
1 0.145021 0
1 0.492044 0
1 5.96046e-08 0
1 0.784424 0
1 0.906585 0
0.386347 1 0.613653
1 0.33851 0
1 0.954712 0
1 0.826429 0
0.374236 1 0.625764
0.0796157 1 0.920384
1 0.801693 0
1 5.96046e-08 0
1 5.96046e-08 0
1 0.644547 0
1 5.96046e-08 0
0 0.978465 1
1 0.0521026 0
1 0.905734 0
1 5.96046e-08 0
0.149599 1 0.850401
1 0.671212 0
1 0.90715 0
1 0.832533 0
0.700248 1 0.299752
1 0.712071 0
0 0.448549 1
1 0.6736 0
1 5.96046e-08 0
1 5.96046e-08 0
0.451526 1 0.548474
1 5.96046e-08 0
1 5.96046e-08 0
1 5.96046e-08 0
0.246771 1 0.753229
1 5.96046e-08 0
0 0.4057 1
1 0.57501 0
0.47618 1 0.52382
0.0734695 1 0.92653
1 5.96046e-08 0
1 5.96046e-08 0
1 5.96046e-08 0
0.878371 1 0.121629
1 5.96046e-08 0
1 5.96046e-08 0
1 5.96046e-08 0
1 5.96046e-08 0
1 0.317413 0
1 5.96046e-08 0
0 0.498976 1
0.934254 1 0.0657464
0 0.706068 1
1 5.96046e-08 0
0.987027 1 0.0129732
0.0805826 1 0.919417
1 5.96046e-08 0
1 0.584429 0
1 0.77146 0
1 5.96046e-08 0
0.380043 1 0.619957
0.0074718 1 0.992528
0.935142 1 0.0648576
1 5.96046e-08 0
0 0.720515 1
0.602275 1 0.397725
1 5.96046e-08 0
1 5.96046e-08 0
1 0.0202315 0
1 5.96046e-08 0
1 5.96046e-08 0
1 0.0289336 0
1 5.96046e-08 0
1 0.815251 0
1 0.908038 0
0 0.795051 1
0 0.49187 1
1 5.96046e-08 0
1 5.96046e-08 0
1 5.96046e-08 0
1 0.97486 0
1 0.875029 0
1 0.648738 0
0.765665 1 0.234335
1 5.96046e-08 0
1 5.96046e-08 0
0 0.0825934 1
1 5.96046e-08 0
1 0.878972 0
0 0.736907 1
1 5.96046e-08 0
1 0.665837 0
0.845605 1 0.154395
0.794123 1 0.205877
1 5.96046e-08 0
1 0.297309 0
1 5.96046e-08 0
0.684958 1 0.315042
1 5.96046e-08 0
0.0301391 1 0.969861
0.955563 1 0.0444365
1 0.54719 0
0.691035 1 0.308965
1 0.00633502 0
0.461744 1 0.538256
1 5.96046e-08 0
0 0.789979 1
1 5.96046e-08 0
1 5.96046e-08 0
1 5.96046e-08 0
0.36118 1 0.63882
0.0336071 1 0.966393
1 5.96046e-08 0
1 5.96046e-08 0
0 0.74682 1
1 5.96046e-08 0
0 0.22493 1
1 0.303875 0
0 0.645113 1
1 5.96046e-08 0
1 0.183155 0
1 5.96046e-08 0
0 0.468852 1
1 0.374934 0
0 0.527993 1
0 0.805431 1
0 0.563255 1
0 0.444974 1
1 0.321939 0
0.755432 1 0.244568
0.822885 1 0.177115
1 5.96046e-08 0
1 0.176482 0
1 0.781372 0
1 0.526441 0
0 0.092751 1
0 0.467302 1
1 5.96046e-08 0
0.224713 1 0.775287
1 5.96046e-08 0
1 0.778356 0
1 5.96046e-08 0
1 0.36413 0
0 0.932982 1
1 0.952539 0
1 0.413034 0
0 0.669288 1
0 0.566905 1
0.580168 1 0.419832
1 5.96046e-08 0
0.634381 1 0.365619
1 0.627523 0
0 0.897991 1
0.921891 1 0.0781088
1 0.0372244 0
1 5.96046e-08 0
1 0.898541 0
0.80053 1 0.19947
1 5.96046e-08 0
0 0.465008 1
1 5.96046e-08 0
1 0.480504 0
0.869338 1 0.130662
0 0.411755 1
0 0.407845 1
1 0.396809 0
1 0.429456 0
0.269384 1 0.730616
1 5.96046e-08 0
0 0.678733 1
0 0.263011 1
0 0.29599 1
1 0.785664 0
0.0275725 1 0.972428
0 0.43329 1
0.207377 1 0.792623
0 0.400058 1
0.0969979 1 0.903002
1 5.96046e-08 0
0 0.593027 1
1 0.118881 0
0.727715 1 0.272285
0.456574 1 0.543426
1 5.96046e-08 0
1 0.357547 0
0.510004 1 0.489996
0.0448806 1 0.955119
1 5.96046e-08 0
1 5.96046e-08 0
1 0.668329 0
0.606796 1 0.393204
0 0.315177 1
1 0.367419 0
0 0.457516 1
1 5.96046e-08 0
0 0.562493 1
1 0.45769 0
1 0.941028 0
0 0.97076 1
1 5.96046e-08 0
1 0.642305 0
1 0.708245 0
0.979672 1 0.0203283
0.0499983 1 0.950002
1 0.348463 0
1 0.503766 0
0.180324 1 0.819676
1 0.333997 0
1 5.96046e-08 0
1 0.326317 0
1 0.488366 0
1 0.546626 0
0 0.849351 1
1 5.96046e-08 0
1 5.96046e-08 0
0 0.66419 1
1 5.96046e-08 0
0 0.257416 1
1 5.96046e-08 0
0.269432 1 0.730568
0.527865 1 0.472135
1 0.933411 0
0 0.712833 1
0.288728 1 0.711272
1 0.736609 0
1 0.349455 0
0 0.393557 1
1 5.96046e-08 0
0.123701 1 0.876299
1 5.96046e-08 0
1 0.0617892 0
0 0.721362 1
0 0.880426 1
0 0.337895 1
0.0165048 1 0.983495
0 0.745526 1
1 0.186734 0
0 0.723244 1
0 0.477454 1
1 0.569152 0
0 0.913936 1
1 5.96046e-08 0
0 0.882342 1
0 0.542839 1
0.261771 1 0.738229
0 0.704287 1
1 0.876934 0
0.807054 1 0.192946
1 0.807638 0
0 0.92613 1
1 5.96046e-08 0
0 0.960104 1
0.0962218 1 0.903778
1 5.96046e-08 0
1 5.96046e-08 0
0.795025 1 0.204975
0 0.633954 1
1 5.96046e-08 0
0 0.836669 1
0 0.481223 1
0.368308 1 0.631692
0.154662 1 0.845338
0 0.705343 1
1 0.682006 0
0.514953 1 0.485047
0 0.49334 1
1 5.96046e-08 0
0.876296 1 0.123704
0 0.93856 1
0 0.624818 1
0 0.887159 1
0.993344 1 0.00665569
1 5.96046e-08 0
0 0.750476 1
0.015377 1 0.984623
1 0.468021 0
1 0.549523 0
1 5.96046e-08 0
0 0.655317 1
0 0.287448 1
0 0.619591 1
0 0.45539 1
0 0.326722 1
0 0.583372 1
0 0.864278 1
0.752913 1 0.247087
0 0.673354 1
0 0.648632 1
1 5.96046e-08 0
0.326705 1 0.673295
0 0.496003 1
0 0.453284 1
0.225798 1 0.774202
1 0.561602 0
0 0.758874 1
0 0.82284 1
0 0.55612 1
0 0.635588 1
0 0.654029 1
0.201807 1 0.798193
0 0.336632 1
0 0.378759 1
0 0.752704 1
0 0.555274 1
0 0.469981 1
1 5.96046e-08 0
0.164575 1 0.835425
1 0.24892 0
1 5.96046e-08 0
0 0.568073 1
0 0.539472 1
0 0.935668 1
0 0.524042 1
0.0550435 1 0.944956
0 0.504525 1
0 0.909701 1
0 0.501321 1
0 0.872039 1
0 0.923145 1
0 0.634452 1
0.769859 1 0.230141
0 0.661587 1
0 0.574294 1
0 0.529884 1
1 5.96046e-08 0
1 0.778113 0
0 0.644906 1
0 0.531407 1
0 0.608858 1
0 0.786189 1
0 0.882169 1
0 0.46758 1
0 0.44953 1
1 0.688437 0
1 0.965548 0
0 0.672197 1
