# vtk DataFile Version 3.0
Particle simulation
ASCII
DATASET POLYDATA
POINTS 400 float
0.22226 0.69718 7.90024
1.70667 0.735841 8.00533
8.29181 9.45586 4.56053
4.17235 1.08532 3.78968
7.63623 2.94256 8.4939
6.12383 0.374716 6.63449
2.7306 2.94542 4.93547
6.74252 1.7655 1.05872
2.56342 3.89299 5.68225
0.534441 5.23727 1.46772
2.46004 4.31507 1.28267
3.84087 8.88824 1.49252
3.91532 8.91102 5.21234
6.35205 6.87331 2.01707
6.29782 6.41504 4.34072
1.74057 5.04244 5.11754
4.62452 2.2229 6.24358
3.05344 0.325817 0.865559
2.01517 6.22947 8.16005
2.55442 3.01569 8.00851
3.0607 0.238733 0.862886
0.980437 2.44968 0.455908
1.90672 8.06207 8.02248
3.8593 5.76439 0.44301
6.41375 8.63587 3.85237
4.84517 10 8.9335
7.40997 7.7885 6.88486
10 0.585621 3.90606
9.04258 7.04249 10
6.78379 5.43087 3.23699
9.23486 8.30817 5.69395
1.82197 8.74007 2.49404
8.11801 7.181 9.94444
5.01921 6.64408 8.09155
0.483447 4.59993 4.04601
2.01264 4.34006 9.07942
5.14488 4.85569 4.72164
2.99329 0.371803 1.04827
0.52789 6.51071 1.26981
4.54733 0.503677 10
4.63077 8.95036 8.77461
9.60705 6.78857 2.53927
9.10499 9.10906 2.1145
10 1.33546 2.2189
4.80869 0.573242 0.68385
2.10814 5.03767 3.60047
5.49863 0.510606 7.6682
8.21024 1.98702 8.61472
6.52899 0.0614852 1.59108
6.16047 1.20171 5.38988
3.4366 9.84038 5.41567
2.04775 9.62977 1.50967
9.46434 4.62116 6.64825
7.57311 3.23082 5.09595
0 1.47473 5.3435
6.92591 0.430499 1.0853
7.63381 0.292282 7.8168
6.50771 5.68187 3.90745
3.11442 1.41001 5.60483
0.795885 3.07785 6.50064
0.384211 8.89812 9.0099
3.71309 2.939 1.47262
3.36043 0.910396 2.40469
0.333317 0.998291 7.83089
2.10136 5.2355 0.751294
8.85599 7.59502 2.55718
0.935309 0.212041 2.11882
7.64801 3.59896 1.80972
6.05779 5.18792 1.72553
5.40555 8.50537 3.16447
4.57046 3.5457 5.99005
7.81803 5.50315 1.15081
3.82855 8.92333 1.71064
1.91779 6.4104 2.82099
9.2662 3.71176 8.64828
7.77468 5.35147 5.22655
4.02508 3.58431 2.18889
6.28132 6.43805 4.78308
6.39176 6.89772 4.98357
8.69531 6.92121 1.23042
3.39016 0.656411 0.697635
6.96119 2.41283 4.34629
2.04862 1.17878 8.2403
0.217857 3.72084 3.93431
2.31673 1.64244 7.38224
0.74745 3.28375 7.96538
0.26464 0.177135 0.17826
1.75272 0.467337 9.0909
2.91637 2.91197 9.24831
3.08531 9.55847 1.38158
2.87658 0.182187 0.695633
8.96468 6.73248 3.65891
3.64976 9.58512 8.03281
1.86322 0.128893 9.68585
0.0560792 3.68079 2.60435
6.67392 9.57985 7.79343
6.75363 2.45593 6.02534
8.27913 4.07289 3.82441
0.492868 0.858835 5.31843
8.01179 2.42455 3.4098
3.26072 0.616243 0.640791
7.85648 1.99271 9.67725
0.520833 1.35892 3.97879
1.05561 5.13476 4.73532
8.71489 5.689 7.99203
8.31542 1.82964 7.98786
7.32697 2.12908 4.67518
6.70912 0.0632892 2.0938
6.05557 0.0550431 3.77161
9.91011 8.86679 5.02173
4.03395 9.71666 4.05571
8.10636 0.0575467 0.719631
9.83403 6.52277 4.49618
0.925676 1.05415 0.291715
3.73697 0.690609 1.10839
4.38184 0.335371 1.12051
4.16998 0.470223 8.16827
8.21516 3.28382 1.19368
8.39946 2.07265 2.51755
3.99418 9.61679 1.7307
2.92134 0.663739 0.367424
5.07045 4.906 6.79272
8.80293 4.09011 8.51892
5.40094 0.280722 9.28447
2.9651 7.04286 9.13527
3.56532 0.567315 0.941546
2.13135 5.89649 7.58273
0.272788 0.740425 7.72221
9.05218 0.796939 8.03831
2.51898 9.819 6.81378
1.7861 3.02243 4.30455
0.0555874 4.87376 1.3418
5.95568 0.508432 4.59975
9.43468 7.97475 1.31274
1.90687 0.372101 8.14784
0.0531982 2.12052 0.67837
3.35326 4.37248 2.8941
2.78346 1.43764 6.56319
7.48157 9.97112 7.10937
6.19328 1.87862 5.34653
3.67242 0.33579 0.929158
4.70707 8.22154 8.1
5.23644 2.42183 1.39148
5.50101 0.730347 1.51958
3.52041 0.48986 0.74884
9.42279 2.08732 9.66928
6.1199 0.450078 1.17931
2.05049 0 8.04671
8.05951 5.43369 1.51575
2.69864 0.386699 1.01151
3.53809 0.226742 0.852817
2.55562 1.44582 6.91244
2.5305 0.847838 7.255
2.85607 0.284854 1.03234
6.30005 0.161047 10
7.23035 0.388898 0.789617
8.60906 2.13613 1.8676
5.35245 0.419486 3.59909
9.16482 0.797972 9.18319
8.62084 8.07896 9.52096
7.80074 1.59803 0.289735
7.21703 0.8771 9.26858
3.50884 2.39163 6.17975
10 0.344992 1.24624
8.89275 4.65334 0.261005
6.4171 4.17981 4.40611
1.28323 2.88262 1.90953
0 0.515499 0
0.527518 2.6793 6.7941
1.76772 0.919907 5.77257
2.90929 0.331708 0.468623
6.72971 2.41945 5.75319
4.19851 0.768371 0.655403
10 3.36475 10
0.322986 0.0936318 5.48462
2.35471 1.11399 7.52737
2.58702 1.56264 6.98902
1.76445 5.35641 1.55546
0.942715 0.204946 5.94443
8.74994 8.72799 3.12667
3.03261 0.402609 0.708839
6.33162 5.846 8.96523
2.76777 2.50125 9.13485
4.86337 0 3.37947
3.49542 0.954818 7.66179
7.68422 3.71599 9.66271
2.97664 0.568935 0.757323
3.713 9.01883 1.02801
8.09798 0.0234982 1.67916
2.74056 0.438575 1.62435
3.44278 0.0846 0.554815
3.03645 0.47192 0.278243
8.42894 6.66521 1.40483
4.98618 2.49735 4.97168
5.44623 0 8.4998
3.48785 0.236737 0.624835
0.779781 0.516106 3.68282
5.14221 0.842368 3.90363
2.98753 0.346831 0.67882
3.54186 0.390544 0.462594
3.26816 0.391 1.08116
6.84467 0.239862 1.5239
1.55439 0 1.53717
3.20769 0.502263 6.36615
1.89531 8.76151 6.42478
4.48358 0.368256 6.58585
3.28609 0.357648 0.420055
5.54129 2.62173 8.50679
5.17226 2.0177 2.87301
3.60607 8.73714 1.5739
3.39527 0.248082 0.896282
3.82979 0.252484 0.407483
5.23292 9.85132 7.17698
9.66913 0.62176 8.27498
7.41507 0.543695 1.39392
4.37549 0.345643 8.04085
3.14024 0.146926 0.588357
3.10099 0.198029 0.467514
1.03715 0.311656 9.31318
3.11879 0.347356 0.932223
8.30471 2.31909 1.61708
7.61247 5.22167 1.3459
4.36011 0.169511 6.3389
2.71778 0.536518 0.462118
8.61774 1.41016 1.50718
4.02717 1.48944 4.44109
3.58121 4.00148 0.773883
3.12879 0.66342 0.888475
3.219 0.0605639 0.785702
9.25604 5.82518 1.4596
9.9128 2.00824 8.18382
1.67477 0.166377 9.66223
4.60751 0.336689 0.551264
3.43619 0.372181 0.334882
4.34989 0.212383 8.75535
0.314034 2.99742 3.78949
9.05154 0.931833 8.96686
2.03668 0.160374 6.42761
3.05042 0.962697 0.210239
5.64472 1.56389 9.95166
3.29318 0.430251 0.837233
3.37708 0.643617 0.844121
3.48768 0.384207 1.02996
3.31869 0.518867 0.744598
4.52411 0.440509 8.07474
8.00782 0.96356 7.7151
0.608136 0.273313 5.79429
1.01238 0.674249 3.93054
9.32976 0.756283 9.61694
2.81506 1.01914 7.51524
2.78712 0.291433 0.756999
1.80158 8.69939 6.64845
4.10835 0.399721 8.27362
6.75089 0.0500087 2.5112
6.16903 0.225526 1.12807
3.42345 0.254996 0.461035
6.79996 0.748396 5.65536
4.26154 0.45427 8.58695
1.64043 5.02596 6.67296
4.20008 0.236229 8.73217
3.1428 0.485862 0.352692
9.40819 6.07031 1.20769
3.19144 0.581148 6.33367
5.58022 7.62128 2.68373
3.51165 0.787508 8.86481
6.65988 8.41689 1.01743
7.07514 0.622553 0.531863
4.16383 0.385006 8.33972
5.22926 0.867667 1.1852
3.79066 0.369803 0.981286
3.22464 0.524975 0.911835
8.43959 7.3597 0.848885
4.93525 6.1855 6.39904
3.2236 2.81337 3.62852
6.38806 6.24753 9.19352
4.32793 0.420049 6.56573
4.1473 3.87839 1.81623
9.47558 7.3086 4.22728
5.02513 2.55691 3.09291
3.43803 0.438644 0.800163
6.64912 0.413461 0.919105
6.91351 0.362598 0.855154
9.27503 3.35728 5.35301
2.71677 0.830866 0.289457
6.88597 2.77655 8.96201
8.8112 0.932651 0.282629
3.24726 0.716476 0.692145
8.4678 0.727061 7.86027
9.192 5.75003 8.18797
2.60104 10 9.5133
6.98556 5.13654 8.24216
7.67262 0.242188 1.39772
3.09429 0.492865 0.52778
1.07982 0.387433 7.51637
4.25932 0.289746 9.33556
3.91931 0.454328 8.06851
3.52733 0.446472 0.836174
3.32704 0.486483 1.137
9.53905 3.63851 8.78493
3.75552 0.179564 0.524246
0.607876 3.38653 3.42975
3.24008 0.484182 6.24803
7.63992 0.75799 3.80731
6.05019 6.43893 0
3.21554 0.608916 0.900591
0.501132 1.1303 8.06088
3.36462 0.511225 1.39817
3.44628 0.585101 0.615291
0.696438 0.810958 3.48666
4.05145 3.82629 1.95494
3.70929 0.283283 8.2656
1.53266 0.621697 6.00937
5.62453 0.734886 1.44201
3.68515 0.320758 0.70215
9.21095 2.45834 9.66142
0.814496 0.371358 7.44124
5.5191 1.7473 5.4538
1.04527 4.85703 6.97936
7.04456 0.937528 5.25348
7.23169 5.75255 1.60544
4.52195 0.171798 8.54488
0.640291 0.492668 5.98879
3.83782 0.526789 8.3542
2.90067 0.537708 0.778989
6.53321 0.424986 1.00766
6.80999 3.08604 0.696977
3.20971 0.309802 0.599598
5.63785 0.233197 3.75632
2.27091 9.92606 1.32558
3.0308 0.418336 0.439704
9.24044 8.5897 0.524457
3.55643 0.229563 1.10479
3.93833 0.359183 8.4066
3.39356 0.490611 0.218781
6.64053 0.543919 1.2739
3.71935 0.936122 7.24731
1.55287 5.22517 6.51413
3.59102 0.52486 0.559558
2.96331 0.304695 8.00599
4.65876 0.561719 8.41413
4.84676 0.252564 6.91729
6.90581 0.184637 9.24941
4.41719 0 8.68428
4.26644 0.241536 8.77184
3.15522 0.453089 0.764075
3.24668 0.535405 0.390616
6.83862 0.427608 1.59464
3.34548 0.407252 0.470111
3.32064 0.810307 1.41241
7.72978 1.51587 9.27902
3.41785 0.798345 1.1526
3.73887 0.222323 0.638704
3.03212 0.566382 8.5612
4.46635 0.274802 8.66434
3.51116 0.661975 1.13654
3.18117 0.441619 0.862448
7.21921 0.606426 0.48423
4.20781 0.397352 9.33823
3.9944 0.179703 0.335093
3.33309 0.397818 0.297739
6.66449 0.109554 1.07797
4.14268 0.251083 8.82949
4.13191 0.694382 8.25579
3.14709 0.272941 0.502945
3.7178 0.196412 0.694703
5.8782 0.812224 1.26614
4.11276 0.444802 8.57206
5.32423 0.30246 8.04035
4.64516 0.135299 8.99147
6.79136 3.04795 1.19775
6.66455 0.1939 1.08006
1.55578 0.735055 5.78995
3.70229 0.522197 8.47936
3.33208 0.448355 0.263846
2.67828 0.366732 0.949422
6.61698 0.554731 1.47932
4.10771 0.352608 8.80054
4.36853 0.643998 8.01218
4.64853 0.800685 8.66026
3.01969 0.166871 0.72885
2.89501 0.475923 0.225507
3.37757 0.238955 0.469303
4.60445 0.505272 8.56622
3.90287 0.499827 0.869467
0.446692 1.10222 8.17691
4.02004 0.308888 8.30256
3.60378 0.198396 0.574209
3.64989 0.315134 0.825684
6.91198 1.87072 8.10318
6.41214 0.493523 1.34923
2.82844 0.250042 0.460451
2.98472 0.294868 0.770277
4.01693 0.224842 8.48367
3.06383 0.527442 0.50035
0.398778 0.679977 8.2921
4.20327 0.228401 8.09338
3.5449 0.245548 0.525475
0.501477 0.396881 5.95903
5.81315 0.245111 1.04885
6.44547 0.531562 1.34338
POINT_DATA 400
SCALARS particleColor float 3
LOOKUP_TABLE default
0 0.906334 1
0 0.936569 1
0 0.490019 1
1 5.96046e-08 0
1 5.96046e-08 0
0.294974 1 0.705026
1 5.96046e-08 0
0 0.779836 1
0 0.825337 1
1 5.96046e-08 0
0.680218 1 0.319782
1 0.942724 0
1 5.96046e-08 0
0.804331 1 0.195669
0.624012 1 0.375988
1 5.96046e-08 0
1 5.96046e-08 0
0 0.257504 1
0.589175 1 0.410825
1 0.895643 0
0 0.636427 1
1 0.61666 0
1 5.96046e-08 0
1 0.72965 0
1 5.96046e-08 0
1 5.96046e-08 0
0 0.513078 1
0.251001 1 0.748999
0.863876 1 0.136124
1 0.92786 0
1 5.96046e-08 0
0.479507 1 0.520493
1 5.96046e-08 0
1 0.155306 0
0.598687 1 0.401313
1 0.0507068 0
0.257062 1 0.742938
0 0.495293 1
1 0.310213 0
0 0.833179 1
1 5.96046e-08 0
0.328936 1 0.671064
0.558834 1 0.441166
0.697759 1 0.302241
0.0615704 1 0.93843
0.333873 1 0.666127
0.137971 1 0.862029
0.189991 1 0.810009
0 0.453599 1
0.758237 1 0.241763
1 0.699782 0
0.4489 1 0.5511
0.043185 1 0.956815
1 0.887625 0
0 0.882524 1
0 0.396984 1
0.392055 1 0.607945
0 0.466372 1
0.663824 1 0.336176
0.589033 1 0.410967
0 0.744884 1
1 5.96046e-08 0
0.363614 1 0.636386
0 0.83164 1
0.513185 1 0.486815
1 0.919031 0
0.390363 1 0.609637
1 5.96046e-08 0
1 5.96046e-08 0
0.384691 1 0.615309
0.200788 1 0.799212
0.251664 1 0.748336
1 0.856439 0
0.50116 1 0.49884
1 0.295425 0
1 0.755766 0
0 0.167166 1
0.334047 1 0.665953
0 0.92659 1
0.235742 1 0.764258
0 0.408947 1
0.0194715 1 0.980529
1 0.918581 0
0.08244 1 0.91756
1 0.716617 0
0.147235 1 0.852764
1 5.96046e-08 0
1 5.96046e-08 0
0.462962 1 0.537038
0 0.976392 1
0 0.484234 1
0 0.447109 1
1 0.390598 0
0 0.666217 1
0.502605 1 0.497395
0.701584 1 0.298416
1 0.814542 0
0.018774 1 0.981226
0.594743 1 0.405257
0.146889 1 0.853111
0 0.566224 1
1 0.886182 0
0.493767 1 0.506233
0.639953 1 0.360047
0 0.813472 1
1 0.543711 0
1 5.96046e-08 0
0 0.944218 1
1 5.96046e-08 0
1 5.96046e-08 0
0.909556 1 0.0904441
1 5.96046e-08 0
1 0.908339 0
0.075165 1 0.924835
0 0.837091 1
1 5.96046e-08 0
0 0.566894 1
0.197768 1 0.802232
1 0.914824 0
0.574274 1 0.425726
0 0.0668607 1
1 0.855419 0
0.427034 1 0.572966
0.500724 1 0.499276
0.807617 1 0.192383
0 0.340013 1
0.12499 1 0.87501
0 0.775363 1
0.0734001 1 0.9266
1 5.96046e-08 0
1 0.0989001 0
1 0.295463 0
0.454844 1 0.545156
0.0771445 1 0.922855
0 0.915333 1
0 0.734966 1
0.525968 1 0.474032
0 0.940691 1
0.326335 1 0.673665
0.221367 1 0.778633
0 0.520315 1
0 0.918392 1
0.312784 1 0.687216
0.813128 1 0.186872
0 0.929312 1
0.265505 1 0.734495
0 0.765888 1
0.867039 1 0.132961
0 0.910709 1
0.691236 1 0.308764
0 0.384027 1
0 0.691452 1
0 0.520693 1
0 0.621827 1
1 5.96046e-08 0
0 0.386571 1
0.55625 1 0.44375
0.100514 1 0.899486
1 0.942526 0
1 5.96046e-08 0
0 0.613772 1
0 0.473528 1
0.096357 1 0.903643
1 5.96046e-08 0
0 0.648526 1
0 0.937478 1
1 5.96046e-08 0
1 5.96046e-08 0
1 0.584964 0
0.0119369 1 0.988063
0 0.724938 1
0.41706 1 0.58294
1 0.863265 0
1 5.96046e-08 0
0 0.317953 1
1 0.549626 0
0 0.734756 1
0.114517 1 0.885483
0.929398 1 0.0706015
0.181792 1 0.818208
0 0.419642 1
1 0.942041 0
1 0.919464 0
1 5.96046e-08 0
0.924702 1 0.0752982
0.175592 1 0.824408
0 0.765117 1
1 5.96046e-08 0
0 0.438812 1
0 0.505339 1
0 0.370946 1
0 0.631368 1
1 0.504757 0
1 5.96046e-08 0
0.935757 1 0.0642433
0 0.492335 1
0 0.540113 1
0.985965 1 0.0140355
0 0.48922 1
0 0.461873 1
0 0.442913 1
0 0.869803 1
0.349713 1 0.650287
0 0.640703 1
1 0.71854 0
0 0.723429 1
0 0.729701 1
0.782794 1 0.217206
0.0387155 1 0.961285
1 0.731075 0
0 0.591841 1
0 0.602634 1
1 5.96046e-08 0
0 0.278227 1
1 5.96046e-08 0
0 0.477984 1
0 0.867664 1
0 0.771915 1
1 0.161071 0
0.45669 1 0.54331
0.355124 1 0.644876
1 0.568276 0
0 0.620576 1
0 0.443123 1
1 5.96046e-08 0
0 0.543197 1
0.644082 1 0.355918
0 0.851736 1
0 0.40489 1
0 0.617829 1
0 0.843968 1
0.507347 1 0.492653
0.393371 1 0.606629
0 0.739767 1
0 0.34191 1
0 0.821001 1
0.0387062 1 0.961294
0 0.577679 1
0 0.55354 1
1 0.680732 0
0 0.578048 1
0.318183 1 0.681817
0 0.506284 1
0 0.90313 1
0 0.863398 1
1 5.96046e-08 0
0 0.951824 1
0 0.710924 1
1 5.96046e-08 0
0.292472 1 0.707528
0 0.722185 1
0.728462 1 0.271538
0 0.929057 1
0.783011 1 0.216989
0 0.609025 1
0 0.820106 1
0.0600103 1 0.93999
0 0.505153 1
0.0436654 1 0.956335
0 0.315517 1
0 0.617292 1
1 5.96046e-08 0
0 0.770291 1
1 0.592494 0
0 0.408898 1
0.931448 1 0.0685522
0 0.998807 1
0 0.290988 1
0 0.99215 1
0 0.432324 1
0 0.556476 1
0 0.805841 1
0.591737 1 0.408263
0 0.982894 1
0.18717 1 0.81283
0 0.414845 1
0 0.770834 1
1 0.678028 0
0.0192595 1 0.98074
0 0.590928 1
0 0.959866 1
0 0.726077 1
0.103588 1 0.896412
1 0.335589 0
1 5.96046e-08 0
0.0288646 1 0.971135
0 0.210328 1
0.27771 1 0.72229
1 0.60151 0
1 5.96046e-08 0
1 5.96046e-08 0
0 0.532445 1
0.2858 1 0.7142
0 0.197606 1
0.121057 1 0.878943
0 0.167618 1
0 0.876351 1
0 0.449909 1
0.330502 1 0.669498
0 0.677191 1
0.0222324 1 0.977768
0.05689 1 0.94311
0.269533 1 0.730467
1 5.96046e-08 0
0 0.575936 1
0 0.683111 1
0 0.554226 1
0 0.331939 1
0.291062 1 0.708938
0 0.75482 1
0 0.849497 1
0 0.476318 1
0 0.949969 1
0 0.484159 1
0 0.723448 1
0 0.361353 1
0.888114 1 0.111886
0 0.810534 1
0 0.610512 1
0.140809 1 0.859191
0 0.464405 1
0.202722 1 0.797278
0 0.730869 1
0.0321597 1 0.96784
0 0.940457 1
0 0.849322 1
0.0927812 1 0.907219
0 0.619101 1
1 0.148966 0
0 0.65883 1
0 0.193298 1
0 0.547907 1
0 0.379358 1
0.1133 1 0.886699
0 0.318606 1
1 5.96046e-08 0
0 0.956476 1
0 0.318047 1
1 0.884493 0
0.107967 1 0.892033
0 0.802656 1
0 0.475258 1
0 0.628516 1
0 0.302318 1
0 0.536582 1
0 0.595381 1
0 0.580317 1
0 0.524642 1
0 0.668472 1
0 0.992989 1
0 0.928662 1
0 0.413088 1
0 0.175858 1
0 0.952413 1
0 0.6108 1
0 0.950543 1
0 0.652761 1
0 0.515119 1
0 0.354213 1
0 0.634173 1
0 0.498434 1
0 0.304053 1
0 0.771308 1
0 0.861092 1
0.0167098 1 0.98329
0 0.511758 1
0 0.773727 1
1 0.562518 0
0 0.738766 1
0 0.219261 1
0 0.340103 1
0.16455 1 0.83545
0 0.365766 1
0 0.809546 1
0 0.428353 1
0 0.528351 1
0 0.884058 1
0 0.513759 1
0 0.490866 1
0 0.684376 1
0 0.483899 1
0 0.73393 1
0 0.619147 1
0 0.515062 1
0 0.598613 1
0 0.405873 1
0 0.50039 1
0 0.105884 1
0.470364 1 0.529637
0 0.674496 1
0 0.562133 1
0 0.246218 1
0 0.714455 1
0 0.525875 1
0 0.920099 1
0 0.452001 1
0 0.468779 1
0 0.802545 1
0 0.453064 1
0 0.948373 1
