# vtk DataFile Version 3.0
Particle simulation
ASCII
DATASET POLYDATA
POINTS 400 float
1.47238 0 1.07718
1.82025 0.815997 1.16345
2.58661 0.41933 2.52667
1.75158 0.244296 1.75059
7.92103 0.869548 4.63724
7.62054 0.611055 4.62989
8.7721 2.88205 0.963407
2.36354 4.12314 3.4303
6.06884 0.20494 0.52343
8.00849 0.580682 1.98342
1.92969 0.0286997 1.86754
0.889715 0.575345 0.472494
1.79812 0.329101 2.51856
1.78997 0.252882 1.73547
7.82914 0.86266 4.78894
3.8056 5.15383 6.99145
5.19557 0.254754 2.03039
2.23102 0.151463 2.51252
9.74126 0.0321417 0.414637
8.02834 0.561265 2.01109
2.28789 0.717591 1.52742
5.79799 0.269407 3.9831
1.63896 2.25184 5.95326
8.12348 0.737561 2.11894
3.87785 1.12392 5.32381
2.30139 0.333742 1.3456
5.86958 0.819803 7.21222
2.4382 0.577373 2.22178
4.98207 0.811592 3.33833
1.58927 0.0131951 1.37993
6.83927 0.565102 1.04979
8.19123 0.66278 1.02761
2.19497 9.59952 7.91192
8.18143 0.712344 2.13307
0.838713 1.17079 2.32835
2.34318 0.390922 1.30524
6.01409 0.887477 7.57539
2.23072 0.48332 3.07868
4.65552 0.405833 1.82488
1.23131 0.862384 0.692284
0.95737 0.758761 0.784274
4.33682 0.571011 0.637337
3.54642 0.836261 3.63143
8.3524 0.202807 2.05104
4.87235 0.64961 6.3664
4.32801 0.491973 1.61735
2.83235 1.23752 0.904274
1.84595 0.876998 3.30982
4.38871 0.453126 2.0039
6.50531 0.656549 5.24391
1.00463 0.683663 0.810479
4.32239 0.577282 0.559212
3.28577 0.842804 2.78646
8.34838 0.219477 2.02838
4.80878 0.63594 6.39588
4.37441 0.466992 1.58906
3.7648 0.047163 6.45705
2.05557 0.596446 3.19017
4.38533 0.45046 2.00902
5.34588 1.01954 7.39486
4.89806 1.06147 2.78183
1.78432 0.851304 3.15361
5.34737 0.673762 7.6802
8.12426 0.803084 1.18788
5.69178 0.192258 7.99447
4.73852 0.402769 7.28203
3.44996 0.736078 2.43704
1.26331 0.689639 0.598706
4.28313 0.548722 2.04325
3.14453 0.611685 6.47052
4.91424 0.878681 2.83325
2.7518 0.175254 1.13671
4.78731 0.803365 6.55922
8.09912 0.806554 1.16988
5.56943 0.487577 8.012
4.91049 0.691447 6.13097
3.41282 0.717553 2.47407
3.45554 0.519315 5.82072
4.22939 0.527454 2.07425
3.0732 0.655439 6.41393
1.48608 0.0788112 1.56549
2.35356 0.587817 1.21487
1.2393 0.141567 0.910552
2.82276 0.550624 1.92445
4.84937 0.467991 6.31083
2.95521 0.34832 5.79197
5.59152 0.544323 6.22005
2.3124 0.903633 2.42202
0.852665 0.907404 8.76878
6.41157 0.41558 1.19076
1.50898 0.321753 1.26408
2.54576 0.386021 2.08807
4.48628 0.0586426 0.364824
2.82531 0.532409 1.9048
4.84118 0.469689 6.33513
2.97622 0.396728 5.81865
3.41252 0.407776 5.96218
2.04335 1.20026 3.23732
1.70656 0.394735 6.29
6.42001 0.397295 1.16787
2.45455 0.787976 1.9909
7.80624 0.961465 0.631043
1.95401 0.379469 1.92387
7.56069 0.0143218 1.00337
7.85996 1.11014 0.394377
1.88901 0.260346 3.21909
2.75942 0.0661618 6.21302
5.07534 0.102457 1.65646
4.40511 0.473228 1.86818
6.67487 0.4466 1.007
0.67176 0.545207 1.10089
8.06744 0.860913 1.26198
1.60934 0.209506 1.3542
6.49767 0.416707 0.976406
1.77259 0.483896 2.53441
2.00318 0.26209 3.26332
3.08894 0.113834 6.26
4.57852 0.32516 1.93002
4.39394 0.456768 1.94005
1.83976 0.0824381 1.95766
2.62063 0.383157 2.04987
4.51514 0.413203 1.2638
5.02663 0.590994 6.71466
4.9407 0.434582 3.56002
4.00419 0.25813 6.74217
1.75158 0.310912 1.42755
1.89653 1.12047 3.21155
8.56719 0.544822 2.14309
5.08631 0.307625 6.88656
2.82565 0 2.21108
2.63184 0.372276 2.05211
4.69417 0.40325 1.90005
4.81649 0.572896 6.53979
5.06804 0.359861 3.51502
3.3795 0.292992 6.18907
2.18874 0.773138 0.766947
3.68432 0.505618 7.42125
8.56357 0.520233 2.12396
3.2804 0.663927 6.26682
3.63023 0.495885 2.60455
1.57633 0.0904595 1.57275
3.66881 0.827172 2.32557
1.75357 0.313897 1.2599
1.02128 0.314397 0.685923
1.33768 0.0380434 1.66169
1.85536 0.70289 2.1014
4.96534 0.607734 7.96981
2.24647 0.362268 2.776
2.39222 0.468547 2.88837
1.45054 0.100257 0.948836
1.57722 0.0919082 1.57262
3.52238 0.854506 2.33129
1.11994 0.356795 0.936076
3.40892 0.377405 2.93119
1.96192 0.779361 1.19357
2.02632 0.37226 2.38158
5.01072 0.627062 7.97379
2.0286 0.698652 1.10684
3.57872 0.8577 3.23461
2.06939 0.277786 2.66958
1.74038 0.0164633 2.07789
2.20798 0.549949 1.56009
4.66542 0.134054 6.3371
2.93854 0.34455 1.5193
1.13177 0.632411 0.887359
3.13157 0.396429 3.04558
3.01337 0.23621 6.25623
3.00416 0.331521 5.95315
4.55002 0.289225 6.59956
4.24041 0.212179 2.54427
1.71569 0 2.23094
1.67053 0.718089 0.97179
4.70421 0.217667 6.28705
1.51104 0.966411 0.820635
1.13307 0.449009 1.17524
2.47239 0 2.60987
2.98152 0.317209 6.20763
3.24437 0.134062 6.18077
3.56253 0.113765 6.34152
4.23336 0.212243 2.53694
1.59298 0.818937 1.01864
1.52323 0.618516 0.899997
5.96574 0.772559 7.10777
0.780016 1.08144 2.03907
2.73013 0.548142 6.35518
2.02337 0.288067 2.50118
2.54018 0.482029 2.8385
5.28476 1.19118 2.72284
1.66293 0.255457 2.21992
1.45488 0.810133 1.04783
1.61019 0.808464 1.02259
1.78209 0.450672 1.54149
4.85885 0.377252 6.45008
1.17252 1.13568 2.07676
2.75859 0.145751 6.17337
2.21509 0.81005 2.45517
2.5228 0.525892 2.82365
7.48672 1.23575 1.39472
1.72692 0.236841 2.29721
1.59907 0.730465 1.15971
1.37212 0.20607 1.19293
4.73868 0.324721 1.42401
2.31356 0.58867 6.28933
3.02513 0.482406 2.59705
6.13578 0.930808 6.97071
3.13077 0.19574 6.18559
2.04618 0.495035 3.03327
2.48065 0.840361 2.59135
3.11888 0.593502 2.7764
6.59946 0.348101 0.811867
1.40489 0.0670167 1.29301
4.7743 0.295187 1.85796
5.5674 0.449682 6.18851
3.29205 0.632719 2.54871
6.10445 0.88752 7.05799
3.17315 0.211824 6.23121
2.05312 0.493504 3.00431
1.70735 1.11308 2.12776
1.47406 0.0338869 2.21503
6.47408 0.477929 0.762608
8.20197 0.166574 2.34165
1.51481 0.26651 6.53889
4.96736 0.532792 6.50146
1.38465 0.336974 1.29078
5.10359 0.495994 6.95646
0.865976 1.32701 2.20312
4.98723 0.890087 7.07392
1.31047 0.177857 0.957132
1.70095 0.320036 2.08511
2.38166 0.373041 2.03809
8.21287 0.223008 2.30619
2.8661 0.536578 6.21597
5.58572 0.0861198 7.8625
1.34542 0.384364 1.25106
4.99368 0.606862 6.58372
0.774079 1.25303 2.18039
5.75887 0.739727 7.54191
1.30125 1.17355 2.34394
1.89882 0.459417 1.58623
2.17773 0.231616 1.53111
1.84975 0.0725872 1.84783
1.98162 0.659397 1.23065
2.01391 0.109723 2.81323
2.23493 0.417391 1.57361
3.87737 0.0667977 6.20351
1.24438 0.268957 2.38226
1.77238 0.521839 3.06545
3.25866 0.430844 6.37344
4.37741 0.429899 2.03531
3.37548 0.116963 5.88676
1.90616 0.136855 2.03921
3.9186 0.808695 1.82933
3.83021 0.394995 6.43581
2.19145 0.434949 1.48833
4.23877 0.127296 6.28098
0.718027 0.176605 2.63957
6.41549 0.595805 1.01774
5.28731 0.38314 6.83885
4.37012 0.399377 2.03622
3.34111 0.134624 5.95162
1.02473 0.0750727 2.583
2.60517 0.102378 3.66907
2.5022 0.50152 1.94534
8.05431 0.408587 2.09033
6.14083 0.888789 7.16407
1.3283 0.456948 1.00909
6.05405 0.203197 1.12562
3.22735 0.125146 5.68521
5.66509 0.457075 7.68986
0.687192 0.100586 2.2421
1.15063 0.132518 2.51936
2.66693 0.216545 3.42212
0.627745 1.3498 2.32677
8.07492 0.814998 2.43001
3.7677 0 6.38478
2.45435 0.316738 6.50564
8.06043 0.749628 1.57756
3.00029 0.0938045 5.77098
5.65912 0.484506 7.69091
0.967305 0.0725668 2.50648
7.07358 0.583289 0.909333
4.8716 0.554449 1.65661
5.0765 0.168816 2.02369
7.88413 0.543612 2.04815
6.22546 1.05659 7.44693
5.8899 0.889969 7.31491
2.75484 0.607716 2.45896
1.56441 0.790903 3.38661
3.37449 0.898794 2.86017
1.40119 0.125487 6.86691
7.14266 0.551382 0.912287
4.93363 0.612247 1.68021
2.00657 0.846172 1.90004
7.89394 0.522641 2.06471
3.08248 0.655418 5.80943
3.18663 0.705181 5.97258
2.20621 0.706978 2.28211
0.89059 1.16893 2.10076
2.87699 0.759307 1.95879
2.50088 0.0359353 1.86556
6.20193 0.424316 1.18192
3.88418 0.62115 2.94657
2.6661 0.754911 1.58224
4.38361 0.230207 2.79383
1.21213 0.100997 0.57862
4.55157 0.546094 0.731296
2.20394 0.341885 3.06927
2.04095 0 2.14591
1.31376 0.153493 2.1116
1.71099 0.0851918 2.07555
7.43261 0.93675 1.79584
3.75558 0.617165 2.89103
4.71183 0.783268 6.24917
2.35342 0.160816 1.15797
1.1732 0.179073 0.604113
7.42555 0.291431 0.982585
2.00229 0.413891 2.9822
3.22719 0.549844 3.33659
4.91201 0.402745 1.60555
1.78098 0.200137 2.16501
3.18409 0.278743 2.88458
0.995943 1.35993 2.54432
3.52069 0.021777 6.0108
1.65687 0.820694 0.749473
6.3575 0.216416 0.785447
6.62608 0.420492 0.407223
2.05713 0.08114 3.07797
4.68071 0.479547 1.61432
6.60785 0.696691 1.37815
2.74156 0.367385 2.01646
3.19286 0.0910166 2.81573
1.77425 0.196896 1.60057
3.60693 0.0848934 6.07655
1.61258 0.829464 0.706804
6.48723 0.304367 0.896387
3.05097 0.743093 3.06687
1.95771 0.0750294 3.01855
2.03674 0.051311 1.78807
6.79355 0.474863 1.10574
2.55403 0.897253 2.15689
3.73627 0.705211 3.15612
1.49587 0.438227 1.23934
4.52065 0.724769 6.40173
3.13362 0.617788 2.80734
1.90512 0.176623 2.23447
2.14443 0.530593 2.40652
4.76213 0.21982 1.59483
1.64279 0.360488 3.27764
2.25543 0.726038 2.43962
2.21761 0.806473 2.70762
1.74817 0.429111 1.00311
1.50263 0.208672 1.18188
4.81367 0.424799 6.49255
3.12004 0.629256 2.7954
1.80385 0.135981 2.1177
2.20926 0.55918 3.03355
4.61991 0.258027 1.4862
3.39834 0.280927 5.48327
2.22804 0.705333 2.44494
1.9263 0.660318 3.47114
4.65336 0.414741 1.11694
3.70434 0.70039 3.00522
4.71738 0.848822 6.59841
1.99626 0.293013 2.84407
2.65948 0.379772 2.68173
4.86871 0.715972 6.2057
3.68738 0.0847305 6.21069
3.14461 0.172814 6.47736
3.20414 0.655386 6.30574
1.00245 0.367932 2.70922
4.66259 0.42095 1.10418
3.74658 0.742463 3.06826
4.5714 0.935921 6.73159
2.0628 0.481247 2.94038
0.740374 1.55701 1.83947
4.73544 0.478383 6.28542
3.68319 0.0735647 6.21926
2.94578 0.503359 6.41176
3.38268 0.263233 6.30223
1.56086 0.0462229 2.07227
1.72555 0.222136 2.04765
1.31467 0.338083 1.38742
3.23288 0.173985 6.09711
1.76025 0.712677 1.10267
7.82618 0.700679 1.75901
4.633 1.03871 6.69444
2.63766 0.367965 2.64914
2.21438 0.317455 1.48995
8.46691 0.628799 2.54221
4.33178 0.473883 2.19364
1.79775 0.248954 2.08943
1.3363 0.395197 1.43182
3.20548 0.154526 6.09402
1.71129 0.201471 1.62864
7.86199 0.687368 1.7654
4.62542 0.721611 6.82595
2.71087 0.372044 2.69881
2.17727 0.379369 1.4147
6.83009 0.515352 0.99897
4.32228 0.492225 2.19967
POINT_DATA 400
SCALARS particleColor float 3
LOOKUP_TABLE default
0 0.153519 1
0 0.660018 1
0 0.889714 1
0 0.264931 1
0 0.799513 1
1 5.96046e-08 0
0 0.516976 1
0 0.252908 1
0 0.0529981 1
0 0.534604 1
0 0.338213 1
0 0.647406 1
0 0.699959 1
0 0.150174 1
0 0.679079 1
0 0.554968 1
0 0.6062 1
0 0.168332 1
0.160722 1 0.839278
0 0.757828 1
0 0.560736 1
0 0.929618 1
0 0.368618 1
0 0.415573 1
0 0.696053 1
0 0.901054 1
0 0.482775 1
0 0.599798 1
0 0.851801 1
0 0.703408 1
0 0.38731 1
0.168776 1 0.831224
1 5.96046e-08 0
0 0.41624 1
0 0.870545 1
0 0.947399 1
0 0.537966 1
0 0.255741 1
0 0.589477 1
0 0.792801 1
0 0.100679 1
0 0.524397 1
0 0.93878 1
0.118487 1 0.881513
0 0.958823 1
0 0.379302 1
0.133902 1 0.866098
0 0.522278 1
0 0.465307 1
0 0.622813 1
0 0.310985 1
0 0.683223 1
0 0.695456 1
0.140062 1 0.859938
0.0810494 1 0.918951
0 0.371602 1
0 0.666637 1
0 0.483958 1
0 0.409609 1
0 0.808161 1
0 0.309382 1
0.0682697 1 0.93173
0.0416344 1 0.958366
0 0.525816 1
0 0.390073 1
0 0.452254 1
0 0.75328 1
0 0.569545 1
0 0.382998 1
0 0.867562 1
0 0.905413 1
0 0.779719 1
0 0.956023 1
0 0.653172 1
0 0.43184 1
0 0.888503 1
0 0.691306 1
0 0.610158 1
0 0.517741 1
0 0.857633 1
0 0.494951 1
0 0.848616 1
0 0.975811 1
0 0.75417 1
0 0.721994 1
0 0.367974 1
0 0.707494 1
0 0.334464 1
1 0.476014 0
0 0.597969 1
0 0.30763 1
0 0.627725 1
0 0.604214 1
0 0.65945 1
0 0.744549 1
0 0.30472 1
0 0.591195 1
0 0.566415 1
0 0.99205 1
0 0.365748 1
0 0.523648 1
0 0.84563 1
0 0.598089 1
0 0.57648 1
0.81942 1 0.18058
0 0.49396 1
0 0.439577 1
0 0.744382 1
0 0.399442 1
0 0.471758 1
0 0.460332 1
0 0.670823 1
0 0.763775 1
0 0.531392 1
0 0.345049 1
0 0.697785 1
0 0.348051 1
0 0.916174 1
0 0.378047 1
0 0.981064 1
0 0.578164 1
0 0.668541 1
0.0486873 1 0.951313
0 0.208201 1
0 0.834045 1
0 0.805672 1
0 0.480086 1
0 0.753961 1
0 0.862111 1
0 0.456246 1
0 0.685141 1
0 0.628602 1
0 0.775638 1
0 0.363649 1
0 0.863328 1
0 0.443136 1
0.481044 1 0.518956
0 0.855168 1
0 0.319574 1
0.0662476 1 0.933752
0 0.269464 1
0 0.461705 1
0 0.951784 1
0 0.648644 1
0 0.886007 1
0 0.560499 1
0 0.439378 1
0 0.426037 1
0 0.528347 1
0.0519389 1 0.948061
0 0.242751 1
0 0.522557 1
0 0.872908 1
0 0.856178 1
0 0.817238 1
0 0.447143 1
0 0.424216 1
0 0.407031 1
0 0.449404 1
0 0.289805 1
0 0.900607 1
0.307058 1 0.692942
0 0.44085 1
0 0.349204 1
0 0.58708 1
0 0.162604 1
0 0.645881 1
0 0.629494 1
0.0314452 1 0.968555
0 0.52279 1
0 0.865051 1
0 0.596533 1
0 0.249313 1
0 0.452891 1
0 0.272515 1
0 0.855731 1
0 0.309845 1
0 0.323238 1
0 0.339995 1
0 0.482063 1
0 0.694203 1
0.141875 1 0.858125
0 0.818766 1
0 0.56032 1
0 0.584457 1
0 0.945322 1
0 0.36526 1
0 0.942369 1
0 0.686632 1
0 0.149795 1
0 0.620803 1
0 0.11775 1
0 0.46674 1
0 0.723811 1
0 0.397471 1
0 0.697764 1
0 0.43685 1
0 0.972333 1
0 0.821472 1
0 0.431156 1
0 0.846128 1
0 0.355265 1
0 0.598052 1
0 0.259221 1
0 0.564849 1
0 0.612522 1
0 0.483147 1
0 0.74225 1
0 0.813401 1
0.0787606 1 0.921239
0 0.445521 1
0.449767 1 0.550233
0 0.631008 1
0 0.335509 1
0 0.855073 1
0 0.49308 1
0 0.506906 1
0 0.321316 1
0 0.312607 1
0 0.695443 1
0 0.173066 1
0 0.787875 1
0 0.662479 1
0 0.395093 1
0 0.236548 1
0 0.369409 1
0.249059 1 0.750941
0 0.625851 1
0 0.872345 1
0 0.999935 1
0 0.207395 1
0.0767788 1 0.923221
0 0.567964 1
0 0.352553 1
0 0.282294 1
0 0.661142 1
0 0.772592 1
0 0.625062 1
0.161916 1 0.838084
0 0.869024 1
0 0.266801 1
0 0.624951 1
0 0.468567 1
0 0.510196 1
0 0.470508 1
0 0.375908 1
0 0.53017 1
0 0.949555 1
0 0.559995 1
0 0.703651 1
0 0.237 1
0.338374 1 0.661626
0.0719998 1 0.928
0 0.573034 1
0 0.674865 1
0.176416 1 0.823584
0 0.973808 1
0 0.696788 1
0 0.638577 1
0 0.733417 1
0 0.537894 1
0 0.869848 1
0.523931 1 0.476069
0 0.900034 1
0 0.471581 1
0.605845 1 0.394155
0 0.877375 1
0 0.434167 1
0.0844023 1 0.915598
0 0.585636 1
0 0.567586 1
0 0.695559 1
0 0.602829 1
0 0.517597 1
0 0.873606 1
0 0.793533 1
0 0.621444 1
1 0.151384 0
0 0.675696 1
0 0.566632 1
0 0.852091 1
0 0.590742 1
0 0.302161 1
0 0.666535 1
0.235325 1 0.764675
0.0384608 1 0.961539
0 0.482668 1
0 0.899335 1
0 0.518401 1
0.161556 1 0.838444
0.314513 1 0.685487
0 0.536012 1
0 0.584392 1
0 0.401847 1
0 0.486197 1
0.364548 1 0.635452
0 0.110719 1
0.0445566 1 0.955443
0 0.180203 1
0 0.248926 1
0 0.64224 1
0 0.522959 1
0 0.670634 1
0 0.561377 1
0 0.82779 1
0 0.96909 1
0 0.712255 1
0 0.880383 1
0 0.755101 1
0 0.816649 1
0 0.472782 1
0 0.514559 1
0 0.649682 1
0 0.633654 1
0 0.809875 1
0 0.14271 1
0 0.739798 1
0 0.997508 1
0 0.55183 1
0 0.754738 1
0 0.864462 1
0.54503 1 0.45497
0 0.981354 1
0 0.911777 1
0 0.249691 1
0 0.735558 1
0 0.532526 1
0 0.630584 1
0 0.149699 1
0.130088 1 0.869912
0 0.799782 1
0 0.36663 1
0.0299264 1 0.970074
0 0.754409 1
0 0.437077 1
0 0.753241 1
0 0.525029 1
0 0.957448 1
0 0.291255 1
0 0.577575 1
0 0.882976 1
0 0.605928 1
0 0.802911 1
0 0.329476 1
0 0.93929 1
0 0.920557 1
0 0.357142 1
0 0.309332 1
0 0.553852 1
0.123497 1 0.876503
0 0.659712 1
0 0.475298 1
0 0.280883 1
0 0.254137 1
0 0.768354 1
0 0.998451 1
0 0.259861 1
0.0110945 1 0.988905
0 0.763442 1
0 0.848129 1
0 0.357325 1
0 0.654119 1
0 0.921669 1
0 0.687192 1
0 0.860977 1
0.162255 1 0.837745
0 0.329021 1
0 0.31889 1
0 0.512181 1
0 0.763394 1
0 0.504786 1
0 0.693118 1
0 0.747847 1
0 0.746219 1
0 0.507599 1
0.152932 1 0.847068
0 0.233366 1
0 0.609412 1
0 0.986549 1
0.109038 1 0.890962
0 0.439138 1
0 0.62081 1
0 0.612602 1
0 0.615126 1
0 0.453699 1
0 0.551773 1
0 0.825317 1
0 0.774034 1
0.243197 1 0.756803
0 0.569751 1
0 0.553067 1
0 0.56269 1
0 0.805846 1
0 0.667051 1
0 0.387542 1
0 0.45736 1
0 0.794765 1
0 0.586219 1
0 0.9178 1
0 0.627308 1
