# vtk DataFile Version 3.0
Particle simulation
ASCII
DATASET POLYDATA
POINTS 400 float
9.78839 2.06783 6.46638
0.474287 2.08877 9.3506
9.68725 0.623239 9.74601
2.96809 8.21791 0.898047
1.7692 5.28865 7.26392
7.01292 7.68526 6.36235
5.53406 8.59483 5.13758
1.16261 7.28605 8.00805
6.14775 0.288263 2.65966
2.33971 2.2073 0.417025
9.75346 1.17312 8.86589
4.03426 0.725343 2.08614
8.89933 9.30503 2.23588
3.88724 3.17098 8.58465
3.25172 2.85262 4.5042
1.16549 1.11359 3.68601
2.06101 0.227045 8.67182
0.710443 5.75344 0.770282
1.70572 9.41146 7.59617
8.00609 2.93576 4.40414
7.34582 8.94084 5.88701
1.01826 8.72124 3.56987
8.50429 6.19518 0.584655
6.02815 0.718972 2.55776
3.67439 9.51978 6.57146
3.37066 5.55192 3.52279
2.1359 3.05345 7.81809
1.31813 7.17448 9.55567
5.75826 5.9985 3.63606
3.69824 3.3047 6.60248
8.80519 0.57219 3.09545
0.814583 6.06185 7.58232
7.83477 7.94139 4.21494
6.44244 8.25868 0.220198
4.03149 9.55913 6.79938
3.98044 6.96413 3.91637
8.23455 5.26436 6.52539
1.62669 6.05971 1.39721
4.359 0.865306 4.14138
9.58716 9.23028 7.66491
2.4636 8.56481 8.21431
9.68529 1.24673 9.45169
5.57787 2.6875 5.73907
7.92219 9.99211 3.1868
7.53742 6.83539 4.51782
5.89645 7.86795 2.07695
9.64646 5.21512 7.18788
6.16729 8.95673 3.16566
2.04008 0.0785911 6.11017
0.981611 4.0898 7.82179
3.66971 5.55919 5.50471
5.18852 8.48101 5.78923
4.85563 3.20248 4.30303
0.634645 6.2967 7.39834
9.02815 5.10631 9.29218
5.25901 3.69401 8.73736
9.46769 7.94731 4.76945
5.6785 0.719761 6.02842
3.44012 3.23668 6.89278
8.77904 8.57021 6.98494
5.76249 7.75878 9.65433
3.81342 4.63225 0.440566
7.95682 5.39999 9.86123
8.74393 0.633771 2.85505
6.59756 2.96598 0.29863
7.34013 5.33058 3.90982
8.65719 5.49505 8.84385
7.22866 5.50694 2.52667
3.71828 7.23405 8.36324
2.59709 1.43609 9.8398
9.49599 5.04896 8.28471
7.55134 5.14878 2.64703
0.376783 8.7431 4.14554
5.68567 7.29238 7.18501
5.64655 0.957597 9.87259
0.667365 0.297838 8.61767
5.8695 8.69129 9.56923
4.68006 4.00845 7.20112
6.76004 2.32583 7.8007
9.68065 5.58622 3.57512
9.8475 5.6334 1.27945
4.62861 3.34832 0.229996
6.03613 7.85414 2.85728
9.07349 7.56982 7.29503
5.12796 1.58377 6.69523
7.96284 1.31504 9.22831
3.23505 7.03505 9.47321
6.87376 2.60735 5.93974
2.55731 9.4099 1.63625
0.411095 6.48821 7.10124
2.81964 5.04998 6.66085
9.16579 9.01353 7.41225
0.575431 1.70245 7.65718
9.42472 6.73102 8.95254
7.52469 3.50201 5.53481
1.71549 9.34981 8.79154
8.66875 4.7087 7.89258
2.43243 7.23205 0.98868
8.01577 9.42958 3.8038
3.18517 6.60458 8.23716
4.0022 4.46754 2.89935
1.89734 6.61797 7.63577
0.855215 0 1.20266
5.72404 2.128 3.56902
6.55312 5.80683 1.16836
4.01434 9.40932 6.98819
4.22209 1.90612 0.764482
8.10061 2.81213 5.7432
8.77827 3.39454 1.53783
1.19145 5.19793 4.50411
5.12888 1.23392 9.48521
6.15026 1.97252 7.50944
0.595151 1.27544 6.83365
6.38047 5.34295 5.01916
8.39473 0.363129 9.65794
7.9973 8.88604 4.72258
0 4.44616 1.51187
8.10098 5.2829 3.74735
9.72183 8.35712 4.91689
0 10 1.10632
1.23086 3.53463 9.68471
1.82231 9.84724 4.48145
6.23134 7.82438 8.43726
7.14987 7.71422 7.32426
1.29281 4.77097 7.46126
8.19365 4.05118 3.24811
8.14064 8.89099 5.39403
3.30241 8.91923 10
6.02788 3.25865 2.25682
3.29703 8.44379 3.11063
8.80404 5.10732 0.674764
7.93201 6.10496 8.13198
0.87866 2.34545 3.28279
10 4.35628 7.59494
1.97355 6.87461 4.19235
8.49051 4.5298 8.10037
1.96045 0 3.01263
5.98587 3.64804 1.74916
6.78201 0.956186 1.57775
8.04421 2.29576 7.80969
6.81616 0.41945 6.46699
2.15821 3.84188 8.42251
9.48771 6.6373 6.34448
7.62887 2.48883 8.0307
4.64733 6.25923 8.46482
4.85177 4.17483 7.37049
3.68494 1.35564 0
0.529113 2.35059 5.03163
9.03993 0 6.59367
9.40812 2.72315 6.66162
6.72917 0.396758 6.43008
4.99653 1.27837 9.72397
0.0613858 9.16345 7.00078
4.10155 6.56501 3.40253
4.01881 2.95686 2.77761
2.65192 5.01788 5.95281
1.82604 7.79899 2.63697
1.20872 0.283106 6.56598
3.6327 5.05603 2.64926
0.414391 8.98872 9.5728
5.66266 4.02085 3.51311
7.78823 0.484497 9.94582
2.84463 3.10415 2.29755
4.49951 3.22603 4.64606
9.70703 2.62736 8.46012
1.22055 1.08136 2.76883
4.75225 1.44017 7.72119
10 7.73175 3.44656
7.31188 5.95058 9.57939
8.34878 2.03457 0
6.25956 6.27331 8.04345
5.5758 5.24639 6.99335
2.58212 7.2683 0
3.77424 7.54407 7.448
9.43822 8.6365 5.99103
3.53085 8.43214 0
4.96435 2.31089 8.54731
10 2.26273 6.16456
7.19167 3.06046 2.29165
8.49092 3.40117 6.88142
4.95734 3.87817 4.51264
7.58205 10 3.28436
0.661617 5.676 8.04079
1.64267 1.20299 0.737327
8.87502 1.28246 8.45069
10 5.44956 8.87651
6.82548 0.416721 6.08301
2.91244 2.52678 4.92822
0 4.01821 8.762
1.54244 4.85964 3.38233
3.51599 5.34402 0.0852124
6.91333 4.08897 2.50582
8.09423 0.903913 2.062
7.96476 1.59058 1.05819
5.18358 4.39407 9.551
5.86626 1.99659 3.45413
1.1762 9.64287 4.38841
5.35537 7.71692 6.47411
1.04866 3.13202 4.43818
8.24011 8.30322 9.57039
6.95194 0.364343 6.15206
8.44043 7.85665 3.44575
7.49255 8.91997 6.66176
7.4668 2.18172 6.23455
4.94343 6.51273 3.63979
4.35813 7.65917 9.69239
9.14771 7.20208 1.05475
8.22329 8.78368 8.02692
3.26287 8.57979 8.24895
6.41792 3.38317 2.98957
6.94698 0.263483 5.88958
1.27728 8.12835 9.17279
1.15801 8.98927 4.06506
1.70778 9.94176 8.18553
3.77621 3.04183 2.89439
1.3167 9.83338 9.14162
8.78547 0.941975 5.02109
1.86791 5.16306 6.57554
6.71607 4.23925 7.03758
3.54712 1.78586 0
6.51371 10 3.32082
7.58125 2.78062 4.8714
5.96983 7.57646 1.35639
8.90499 0.835978 5.14626
0 0.314843 9.32331
7.48924 5.71457 9.57994
3.35458 0.656189 1.11059
5.86888 7.02808 6.99579
6.76472 0.149379 6.42883
3.04489 3.54011 4.67041
1.3693 1.55766 2.02618
9.4828 8.09195 1.75426
8.45035 4.66961 3.37874
7.26548 8.17603 4.63637
5.3423 3.11383 0.636838
5.93068 8.9553 3.30815
7.06479 1.68211 2.91499
1.41847 0.972624 7.08934
6.85785 0.312554 6.21527
7.29741 8.41075 6.65958
8.79546 0.731477 5.33799
4.41793 8.12736 8.06779
2.79807 5.17677 7.00748
9.70207 7.83748 8.62092
5.68295 10 4.28586
6.31711 4.44621 1.99825
9.87174 9.07448 7.82508
5.15143 2.02851 5.39671
2.32344 8.94234 3.20588
4.79542 1.64178 3.9333
9.0939 1.09882 5.41067
8.2978 2.06919 4.25193
0.41291 4.70041 4.47465
4.85162 8.81156 5.82336
0.768527 0.434536 0.805299
6.91795 2.15128 3.51712
2.03745 8.37949 9.21825
4.49169 2.69113 9.69836
5.30067 3.5748 8.48353
8.11078 1.035 1.08013
6.72398 6.50154 7.48616
7.09381 3.13313 5.78568
4.33528 8.67288 5.59218
6.06927 5.44066 7.12426
8.20035 1.37875 8.45044
8.24524 2.5642 5.75223
0 2.24872 3.60039
3.27104 9.24801 6.51397
5.98653 6.79128 5.01648
5.44433 9.34928 7.66562
7.38226 2.10139 3.29253
4.69051 2.18046 4.20608
7.15805 1.39544 4.97982
8.0438 6.71406 5.68618
8.24092 0.101331 4.32792
0.647471 4.30283 8.40877
7.8291 2.99445 9.03755
0.172831 4.68971 8.75846
8.81265 1.28853 3.70905
7.03091 0.539748 5.99768
2.41821 8.92285 5.40517
8.8375 7.82217 6.54949
1.71185 8.42067 3.07962
9.64433 5.42754 4.81603
4.22691 1.9838 5.01633
8.59957 2.12843 3.17362
3.46752 5.23496 1.01499
4.69256 6.4763 5.36834
0 3.86144 0.935895
2.8886 1.46308 1.04434
1.71812 9.70047 0
8.54555 7.88422 1.69021
8.78237 0.662549 9.79203
3.17621 3.32085 6.46584
1.05799 0.438222 1.49544
0.225253 0.337574 9.02273
6.61269 0.364197 6.5496
7.09871 0.341748 6.28864
6.45506 0.504711 6.78866
6.24864 0.191276 6.0388
0.643798 0.113355 0.811732
4.77549 6.38649 3.86938
7.01695 0.259746 6.21089
6.57923 8.45088 0.418593
6.86624 0.114059 6.06963
5.70658 1.77318 0.091934
6.69344 0.304782 6.1916
6.89331 0.454278 6.21441
3.47812 9.5181 7.8183
6.44829 1.87757 2.64634
8.83744 0 3.98035
0 1.32266 5.79506
6.56757 1.8345 8.15533
7.58484 0 6.48055
0.38353 5.56801 6.19023
9.11954 8.22549 5.02277
5.0145 0.756927 5.3569
1.98041 1.5981 3.62452
2.05841 5.31524 5.39972
5.33752 4.16673 5.66791
0.91711 6.17981 9.40057
1.12146 6.43058 4.16511
0.185609 0.35599 9.09024
6.67696 0.432078 6.26819
6.41886 0.506786 6.56986
6.08723 9.07883 9.25762
6.63337 0.270496 5.74538
9.22278 1.46363 0.562897
3.859 2.89679 9.00885
6.83182 0.206436 6.36852
7.43428 0.903785 5.2801
6.94501 6.03612 5.66314
7.14024 1.20778 3.43318
5.68863 8.74989 9.36694
10 0 7.23648
4.36636 4.56162 0.336561
5.04521 9.90392 0.494388
6.69155 0.29973 6.38282
8.9938 2.52787 5.35386
0.826091 7.83678 6.9811
7.71405 6.77884 3.02196
1.25142 2.48362 2.36072
2.77402 4.0735 9.2364
0.26517 0.355088 9.10525
6.23886 0.402851 5.50035
5.11323 0.0325313 4.06506
8.78279 1.74869 8.60149
6.3553 0.252627 5.7876
6.88387 0.331459 6.21503
1.28568 1.98453 1.39223
7.38456 0.447108 6.19154
6.44301 0.3934 6.44855
2.69302 3.45331 10
4.61364 8.07831 5.37132
5.36016 4.55853 1.39732
6.9382 0.473723 6.47443
3.7735 7.55076 8.68823
0.377935 6.93158 7.09367
6.46052 0.340394 6.43502
6.68429 0.256943 6.31431
3.28663 2.75414 2.07038
0.173122 0.583691 9.23328
0.0638529 0.60114 9.00684
6.43279 0.307507 6.36877
7.06472 0.440797 6.51795
9.72796 4.01506 2.20125
0.168138 0.410842 9.1347
2.25375 1.74876 4.25231
6.77464 1.18567 9.60561
8.51871 1.31512 2.67187
8.95509 1.58323 8.722
7.86221 7.85606 8.37774
7.54852 1.20395 6.54949
6.80248 0.248616 6.86125
7.00484 0.233048 5.82636
8.79486 1.69307 8.24843
0.388675 0.491555 9.14137
1.18907 3.38452 7.60174
2.45258 3.01183 7.41236
8.88399 0.824115 5.01184
6.72662 0.0755841 5.96418
6.89071 0.0828375 6.09262
1.68409 6.73058 5.47129
6.46124 0.203946 6.53387
0.931288 10 5.72817
0.24798 0.369876 9.00862
6.8434 0.208422 6.06367
7.22745 0.514737 6.15049
8.11937 1.99307 5.60848
0.399236 5.46547 9.02131
6.75696 0.331891 6.21741
6.77627 0.105016 6.44811
1.91561 2.52605 6.80386
6.68145 0.296817 6.58492
2.00701 1.05139 4.73438
4.71018 2.71342 9.20823
6.89403 0.30108 5.99774
1.35597 8.07837 4.00279
7.80576 9.10101 3.8948
4.09178 6.34573 7.36517
POINT_DATA 400
SCALARS particleColor float 3
LOOKUP_TABLE default
1 5.96046e-08 0
1 0.82687 0
0.0903167 1 0.909683
1 5.96046e-08 0
1 0.156333 0
1 5.96046e-08 0
1 0.283505 0
1 0.795263 0
1 0.255843 0
0.441882 1 0.558118
0.355373 1 0.644627
1 5.96046e-08 0
0 0.875 1
0.136146 1 0.863854
0.907076 1 0.0929244
0.71109 1 0.28891
0.920164 1 0.0798357
1 5.96046e-08 0
0.495102 1 0.504898
1 5.96046e-08 0
1 5.96046e-08 0
1 5.96046e-08 0
1 0.119311 0
0.527381 1 0.472619
0 0.57956 1
1 0.752338 0
1 5.96046e-08 0
1 5.96046e-08 0
1 0.612793 0
0.421172 1 0.578828
1 0.611494 0
1 0.72173 0
1 0.219081 0
1 5.96046e-08 0
0.895276 1 0.104724
1 5.96046e-08 0
1 5.96046e-08 0
0.0896041 1 0.910396
0.547285 1 0.452715
0.0358863 1 0.964114
1 5.96046e-08 0
1 5.96046e-08 0
1 5.96046e-08 0
1 0.548207 0
0 0.93541 1
0.765393 1 0.234607
1 5.96046e-08 0
1 5.96046e-08 0
0.971526 1 0.0284737
1 5.96046e-08 0
0.684068 1 0.315932
1 5.96046e-08 0
0.836414 1 0.163586
0.665314 1 0.334686
1 0.49202 0
1 0.760015 0
1 0.0110922 0
0 0.929215 1
1 0.990484 0
0.86863 1 0.13137
1 0.0721836 0
1 5.96046e-08 0
1 5.96046e-08 0
1 0.271444 0
1 5.96046e-08 0
1 5.96046e-08 0
1 0.876602 0
1 0.160403 0
1 5.96046e-08 0
0 0.655175 1
0.879734 1 0.120266
1 5.96046e-08 0
1 0.585878 0
1 0.441111 0
0 0.572545 1
0.92118 1 0.0788198
0.565412 1 0.434588
1 5.96046e-08 0
0.424638 1 0.575362
0.288608 1 0.711392
0.695713 1 0.304287
1 0.804847 0
1 5.96046e-08 0
0.360961 1 0.639039
1 0.158354 0
1 0.783764 0
0.708815 1 0.291185
1 0.47345 0
1 5.96046e-08 0
0.182831 1 0.817169
0.916838 1 0.0831618
1 5.96046e-08 0
0.269221 1 0.730779
0.40625 1 0.59375
1 5.96046e-08 0
1 0.0908377 0
1 0.975285 0
1 5.96046e-08 0
1 5.96046e-08 0
1 5.96046e-08 0
0 0.765626 1
1 5.96046e-08 0
1 0.673077 0
1 5.96046e-08 0
0.0443893 1 0.955611
0.163674 1 0.836326
0.993335 1 0.00666523
0.591636 1 0.408364
1 0.927869 0
0.292746 1 0.707254
0.632093 1 0.367907
0 0.141084 1
1 0.418713 0
0 0.953082 1
0 0.719109 1
1 5.96046e-08 0
1 5.96046e-08 0
1 5.96046e-08 0
1 0.84325 0
1 5.96046e-08 0
1 0.508823 0
1 5.96046e-08 0
1 0.955338 0
1 0.198264 0
1 5.96046e-08 0
1 5.96046e-08 0
1 0.301568 0
1 5.96046e-08 0
1 5.96046e-08 0
1 0.64683 0
1 5.96046e-08 0
1 5.96046e-08 0
0.829734 1 0.170266
1 5.96046e-08 0
0.457636 1 0.542364
1 0.653071 0
1 0.640791 0
1 5.96046e-08 0
1 0.523509 0
1 5.96046e-08 0
0 0.425711 1
1 5.96046e-08 0
0.852735 1 0.147265
1 0.0814188 0
1 5.96046e-08 0
0.893708 1 0.106292
1 5.96046e-08 0
1 5.96046e-08 0
0.566677 1 0.433323
1 5.96046e-08 0
0 0.618998 1
1 0.37978 0
0 0.845946 1
1 5.96046e-08 0
0.409805 1 0.590195
0.586646 1 0.413354
0.388501 1 0.611499
1 5.96046e-08 0
0.198686 1 0.801314
1 5.96046e-08 0
1 5.96046e-08 0
1 5.96046e-08 0
1 0.386688 0
0.666857 1 0.333143
1 0.933913 0
0.789926 1 0.210074
1 0.572505 0
1 5.96046e-08 0
0.738821 1 0.261179
0 0.613683 1
1 5.96046e-08 0
0.973248 1 0.0267524
1 5.96046e-08 0
0.766869 1 0.233131
0.966909 1 0.0330911
1 5.96046e-08 0
0 0.581489 1
1 5.96046e-08 0
1 5.96046e-08 0
0.40128 1 0.59872
1 0.0701591 0
0.819349 1 0.180651
0.363419 1 0.636581
1 0.827091 0
1 0.209125 0
1 5.96046e-08 0
0 0.260351 1
1 0.786132 0
1 5.96046e-08 0
1 0.885319 0
1 5.96046e-08 0
1 0.284065 0
1 5.96046e-08 0
0.841495 1 0.158505
1 0.0261914 0
0.501107 1 0.498893
0.116917 1 0.883083
0 0.913262 1
1 5.96046e-08 0
0.745608 1 0.254392
0 0.754297 1
1 5.96046e-08 0
0.443917 1 0.556083
1 5.96046e-08 0
1 5.96046e-08 0
1 0.0128973 0
0.40886 1 0.59114
1 0.574699 0
1 5.96046e-08 0
1 5.96046e-08 0
0 0.306749 1
1 0.75258 0
0.776692 1 0.223308
1 0.767762 0
1 0.301614 0
1 0.556645 0
0 0.272815 1
1 0.458849 0
1 5.96046e-08 0
1 5.96046e-08 0
1 5.96046e-08 0
1 0.173879 0
1 0.695975 0
0 0.459153 1
1 0.464531 0
1 0.288133 0
0.555358 1 0.444642
1 0.653558 0
0 0.432804 1
0.533922 1 0.466078
1 0.593473 0
1 0.092108 0
0.369767 1 0.630233
0.832218 1 0.167782
0.896895 1 0.103105
1 5.96046e-08 0
1 5.96046e-08 0
0 0.319631 1
0 0.184429 1
1 0.484616 0
0 0.614491 1
0.644004 1 0.355996
1 5.96046e-08 0
1 5.96046e-08 0
1 5.96046e-08 0
0.173394 1 0.826606
0.387834 1 0.612166
1 0.818452 0
0.950829 1 0.0491707
1 5.96046e-08 0
0 0.988111 1
1 5.96046e-08 0
1 5.96046e-08 0
1 5.96046e-08 0
1 5.96046e-08 0
0.209222 1 0.790778
1 0.431611 0
0 0.724585 1
1 5.96046e-08 0
1 0.88749 0
0 0.904515 1
1 0.132252 0
1 0.679339 0
1 5.96046e-08 0
1 5.96046e-08 0
0 0.83536 1
1 5.96046e-08 0
1 5.96046e-08 0
1 5.96046e-08 0
1 0.503499 0
1 5.96046e-08 0
1 0.497356 0
0.829162 1 0.170838
1 0.559135 0
0.593738 1 0.406262
0.821449 1 0.178551
1 5.96046e-08 0
0.784873 1 0.215127
0.880322 1 0.119678
0 0.819139 1
1 5.96046e-08 0
0.926098 1 0.0739022
1 5.96046e-08 0
0.375032 1 0.624968
1 5.96046e-08 0
1 0.297033 0
1 5.96046e-08 0
1 5.96046e-08 0
0.539168 1 0.460832
1 5.96046e-08 0
1 5.96046e-08 0
1 0.184287 0
0.657176 1 0.342824
1 0.574643 0
1 5.96046e-08 0
0 0.595262 1
0 0.508369 1
0 0.792798 1
0 0.497456 1
0 0.293492 1
0.925637 1 0.0743635
1 5.96046e-08 0
0 0.422333 1
0.853445 1 0.146555
0 0.915406 1
0.157994 1 0.842006
0 0.687522 1
0 0.283308 1
1 5.96046e-08 0
1 0.431451 0
1 5.96046e-08 0
0.909784 1 0.0902163
1 5.96046e-08 0
0 0.619476 1
1 5.96046e-08 0
1 5.96046e-08 0
1 5.96046e-08 0
0.292819 1 0.707181
0 0.921599 1
1 5.96046e-08 0
0.06444 1 0.93556
1 0.755935 0
0 0.289044 1
0 0.364462 1
0 0.734923 1
1 0.209912 0
0 0.735443 1
0.483354 1 0.516646
1 0.854342 0
0 0.511945 1
0 0.877932 1
1 5.96046e-08 0
1 0.503251 0
0.122363 1 0.877637
1 5.96046e-08 0
1 5.96046e-08 0
0.67564 1 0.32436
0 0.300193 1
1 5.96046e-08 0
0.936086 1 0.0639139
1 5.96046e-08 0
0.453681 1 0.546319
1 5.96046e-08 0
0 0.55493 1
0 0.322687 1
0 0.533144 1
0 0.849398 1
0 0.196182 1
0 0.798076 1
0.492706 1 0.507294
0 0.745374 1
0 0.910881 1
1 5.96046e-08 0
1 0.870797 0
0.449037 1 0.550963
0 0.427634 1
0 0.917279 1
1 0.795564 0
0 0.931369 1
0 0.706745 1
1 0.854899 0
0 0.214947 1
0 0.382957 1
0 0.769168 1
0 0.433995 1
1 5.96046e-08 0
0 0.552822 1
1 0.736069 0
1 5.96046e-08 0
0.64542 1 0.35458
0 0.635957 1
0 0.995373 1
1 0.339728 0
0 0.695674 1
0 0.626973 1
0 0.358576 1
0 0.761623 1
0.641754 1 0.358246
1 5.96046e-08 0
0 0.674609 1
0 0.409013 1
0 0.394484 1
1 5.96046e-08 0
0 0.737985 1
1 5.96046e-08 0
0 0.473274 1
0.0245693 1 0.975431
0 0.618873 1
1 5.96046e-08 0
0.886208 1 0.113792
0 0.897669 1
0 0.650073 1
0.253551 1 0.746449
0 0.994064 1
1 0.90207 0
0 0.909316 1
0 0.930644 1
1 0.368105 0
1 0.0820145 0
0.58548 1 0.41452
