# vtk DataFile Version 3.0
Particle simulation
ASCII
DATASET POLYDATA
POINTS 400 float
8.85538 2.36125 9.97854
0.629469 0.716821 4.5095
0.238327 2.19777 4.1747
2.04651 0.243362 1.27074
9.8324 0.624421 3.32502
3.28724 8.229 7.4655
7.33573 2.24482 2.39624
6.67131 5.3386 0.79041
8.65333 6.57638 2.29352
6.39692 0.352293 5.09581
6.23457 2.32573 0.206409
4.17903 1.14274 3.12075
9.99393 9.36741 8.20947
5.28954 0.78135 1.50225
4.47472 2.56466 1.25737
9.17072 2.05073 8.00773
1.94283 6.68609 0.374339
3.48882 0.404398 2.40098
0.49255 2.4051 6.73436
6.32355 0.326178 5.21973
3.10853 0.416166 2.26502
4.23148 0.519262 6.7693
6.61663 5.57515 7.55134
5.51556 0.969806 3.34493
2.78271 4.4905 6.32649
4.03537 0.368298 2.21178
1.09628 2.73149 7.70422
3.76618 0.537832 2.41334
9.90927 0.371298 9.50246
3.24702 0.484446 0.812955
9.20117 9.18628 8.22868
8.43794 0.573909 1.87882
7.4395 0.904992 8.2942
5.78375 1.20379 3.43186
3.37796 0.961502 2.16892
0.451283 1.57446 0.60729
8.42267 0.165289 6.95141
2.52148 0.483715 1.39403
6.78458 0.883452 1.30219
2.76304 2.4013 2.74701
5.5346 1.10472 3.83123
8.91698 4.95345 5.14063
6.24205 8.88814 7.4956
2.61586 2.19143 7.1217
7.16808 0.194955 6.86541
5.81684 0.118827 1.56366
4.14803 0.733201 8.86749
3.27991 0.619622 1.48977
6.48699 0.237732 1.98858
0.306639 8.74147 8.61614
0.194096 4.0641 2.74459
7.50536 8.395 5.21692
8.97563 0.430905 8.18589
5.90508 0.0713982 4.8315
8.53919 0.744898 8.22491
6.09837 0.220011 1.73808
5.26496 0.249794 8.73538
1.75733 0.400836 3.11632
6.55314 0.252876 1.9454
2.06404 5.24739 6.5731
9.61034 3.87079 4.61839
5.71256 0.741373 8.14344
3.64562 0.560211 3.54107
6.43756 0.202278 4.89591
7.39421 5.02403 2.77128
5.5951 0.990162 1.12544
8.18122 0.108221 7.64339
0.0299031 4.18051 2.85746
6.01624 0.535741 1.83465
4.91666 0.525963 8.14218
5.12943 0.426467 7.9719
2.7867 1.04681 2.35184
4.8389 2.85309 4.16606
6.42891 0.228932 4.82379
7.29963 1.13345 8.39638
6.73168 0.237191 7.21874
8.20536 0.141838 7.61765
5.44871 0.258444 7.87646
6.9628 0.849953 3.0865
0.125243 3.13277 7.09876
2.35876 0.516391 1.4347
3.16369 0.554495 1.67269
2.8177 1.28047 1.04052
2.69345 0.323806 1.60137
5.10405 0.622508 8.33096
5.64043 0.161074 8.9935
5.18319 0.674055 8.50612
7.75588 1.32149 0.816479
6.67724 2.41993 0.594549
9.22046 0.529756 1.93445
2.506 0.7738 1.46997
3.22434 0.520782 0.67513
0.250099 2.47924 9.00225
2.76797 0.287277 1.4797
5.03384 0.623427 8.29842
5.46122 0.23928 8.79574
4.23283 1.54219 9.51019
2.54998 0.694163 3.81695
6.36577 0.738749 6.87608
9.24649 0.471359 1.92539
1.5773 0.354991 1.38954
6.75164 0 5.85668
0.339805 1.79513 0.571059
8.94859 0.337693 7.44899
9.359 5.6966 8.46711
2.91426 0.301333 1.33243
4.52357 0.975918 9.383
6.20977 0.30843 1.63838
6.30566 0.238225 1.9838
9.27344 0.770054 2.09913
0.196463 1.40209 6.05775
5.86613 0.389068 5.474
2.87693 0.697537 1.92747
9.15961 0.189214 1.72748
3.04923 0.526139 1.32063
1.93377 0.636206 2.02879
5.42872 0.38402 8.96235
5.99214 0.654157 2.61126
6.34271 0.285849 1.96213
2.25754 0.199848 0.932344
2.40824 0.470711 1.44842
7.77443 10 7.7961
7.39477 4.61992 9.88853
5.68053 0.655225 6.74239
8.29142 0.187496 7.71358
3.23597 0.35663 1.0798
3.84353 0.60794 2.41089
6.11195 0.12861 4.82787
1.41983 0.701208 3.86273
1.39748 0 3.94
2.45271 0.613415 1.58087
6.024 0.772596 2.33785
5.14706 0.709838 8.3169
7.54857 0.220038 6.88822
2.27171 0.268253 3.41432
2.34977 0.321873 2.64588
7.35302 6.3426 4.18052
6.29624 0.0634106 4.96106
4.87459 0.767806 9.07672
8.86946 0.602268 8.06662
2.8647 0.338788 1.17146
9.31857 0.572024 8.10117
2.02907 2.30225 9.17769
2.15534 0.143686 0.988104
2.81807 0.664958 1.19311
2.37384 0.681554 2.83672
7.19036 0.102661 7.21415
1.29548 2.40213 2.64848
1.82425 0.202871 2.66842
1.35178 0.0775687 2.77756
2.89024 0.325721 1.16893
7.87227 0.330889 7.46322
2.84684 2.25507 0.822124
4.46492 1.14531 9.3256
3.47759 3.82166 0.417299
3.4675 0.441329 2.55888
7.54179 0.403012 7.69188
2.34811 0.653198 1.50384
7.29685 0.21422 7.20086
2.52457 0.515511 2.22769
0.445623 2.02703 0.970321
0.157878 2.14455 4.32424
5.73478 0.64585 8.21495
1.94537 0.613792 2.32143
0.193404 3.9228 2.67176
8.7019 0.516853 8.14488
5.66457 0.680656 8.29753
5.47375 0.41449 8.99488
6.3354 4.37134 7.71253
0.615651 0.127266 4.31199
2.18166 0.814722 1.47052
2.80779 1.08733 2.44792
5.99816 0.0486645 5.1042
2.81498 0.64052 0.966434
2.22928 0.61253 2.37252
0.602593 1.89491 0.939854
5.35815 0.233628 9.03451
5.17873 0.254335 7.84421
5.56262 0.525699 8.13583
4.33405 0.467464 6.86832
2.62183 0.265128 1.63149
3.37465 0.349688 1.11295
7.50863 5.31477 9.90026
2.90395 1.33538 1.21201
5.6916 0.783321 8.11232
3.02649 0.367277 1.92827
2.39163 0.0947793 2.85703
0.12699 2.32739 8.77809
6.68783 0.49659 6.54585
2.72392 0.424623 2.15413
2.6735 0.252612 1.64184
2.22019 0.221331 2.63998
5.19957 0.379911 7.88596
2.40257 4.25081 3.5973
3.14903 8.12661 8.03528
2.65736 0.501352 1.41899
2.58649 0.549143 2.08136
4.89045 5.63069 8.9247
2.34702 0.381907 2.72667
3.25743 0.100295 0.304654
3.05297 0.722829 1.97368
6.08592 0.349712 2.17393
7.42042 0.332999 7.36251
3.99013 1.34806 9.49975
9.13144 2.31087 7.54676
5.61155 0.34016 8.87262
3.32346 0.567693 1.64633
1.78185 0.286982 3.31174
1.9254 0.705722 1.85213
9.29198 0.132683 1.60646
2.50647 0.478411 1.82565
5.60351 0.485024 1.93154
5.57738 0.511225 8.71067
8.416 0.574008 8.18316
5.94067 0.100022 5.617
5.52851 0.234094 8.96705
3.35131 0.544238 1.63694
1.66666 0.919064 2.01528
3.20288 0.0979517 3.12669
9.40503 0.535614 1.81912
3.09389 5.73103 6.08623
9.704 0.703443 7.84857
4.52276 1.20305 9.5659
2.94282 0.539995 1.71869
5.36362 0.250154 8.9924
2.86087 0.238145 1.60626
4.7012 2.7907 1.61952
2.50921 0.652133 2.60544
2.91775 0.664489 1.88473
5.62339 0.817211 8.36733
6.04334 0.100034 5.01104
5.71763 0.240815 8.48314
7.02872 0.158392 6.63014
2.3344 0.346979 1.39458
5.6639 0.633094 8.14348
3.56097 0.949736 2.07009
6.95193 0.288794 7.42454
3.01351 0.136656 1.84765
2.26532 0.486822 2.46658
2.04839 0.505186 2.00452
2.58478 0.452716 1.9858
2.54427 0.738101 1.09568
2.56964 0.699648 1.77274
2.68451 0.830823 1.72488
5.622 0.856583 8.9006
3.36882 0.501452 1.91219
2.3352 0.70785 1.41927
5.97595 0.307055 8.95635
6.62241 0.328201 1.99817
5.40262 0.42776 8.68803
3.03143 0.521953 2.38306
6.16393 0.932006 1.82559
5.16456 0.514402 8.60927
3.12823 0.565661 2.79017
7.2813 0.217954 6.63959
2.5964 0.355196 1.5075
8.26805 0.657623 1.75982
5.70013 0.185369 8.38693
6.45582 0.28501 1.93974
5.42315 0.371277 8.74053
2.09155 0.397989 2.64548
3.9917 8.00946 6.41204
4.51508 1.21803 9.24866
5.7832 1.28217 1.8705
5.48052 0.344945 8.36351
3.28228 1.75341 7.4336
5.96181 0.96757 1.35778
5.61332 0.178369 8.57803
7.00699 0.158811 6.69166
3.08786 0.789593 2.11341
2.53462 0.338808 2.01217
7.0754 7.07367 4.88581
3.19397 0.782389 2.32812
5.88028 0.742732 1.03288
5.29851 0.469425 8.44948
4.55 1.29873 9.25459
5.96855 0.348184 5.33494
3.4396 7.90594 7.1141
6.7098 0.0185486 6.82698
2.49367 0.258655 1.64468
9.2165 0.314785 1.80009
6.2449 0.335239 1.6056
5.27606 0.340217 1.11692
5.8334 0.462928 4.52004
5.89112 0.330183 5.1132
6.63749 0.218638 6.55302
2.70731 0.718804 1.45088
3.70075 0.330985 1.66441
8.7879 0.672909 8.05693
9.9438 3.44488 0.0909013
9.35756 0.131865 1.7008
5.97461 0.407851 1.919
2.4567 0.310448 1.78
6.56583 0.238441 4.97727
4.92165 0.230988 8.9827
5.16834 0.334943 8.50578
3.21283 0.093077 1.37543
3.07414 0.0459239 1.75582
1.99482 0.25772 2.77321
3.32419 0.347467 0.977371
9.39225 0.56955 2.05918
8.74144 0.508954 8.00993
1.80646 0.497937 3.22658
5.66683 0.219079 1.92558
1.84041 0.384594 3.06319
7.07664 0.231532 1.98916
2.0155 0.106876 2.65117
2.45971 0.372252 2.46728
1.84984 0.4045 2.89229
2.37171 0.663612 1.77273
5.76687 0.603852 5.21654
7.5866 0.512401 7.52096
7.46709 0.282421 6.89187
2.75163 0.578797 2.17052
3.36815 0.635838 2.37357
5.85289 0.205152 4.59049
3.23418 0.521591 0.724182
5.07701 1.20686 1.3903
6.188 0.36812 1.89275
3.2568 0.514814 2.23336
4.98482 0.369544 8.9906
3.54333 0.0200377 3.06987
5.66201 0.867656 8.79515
2.552 0.501536 2.50529
9.057 0.246741 1.6875
9.39202 0.230728 1.58392
2.69413 0.273128 1.96785
6.15732 0.259039 1.56927
9.81589 0.480649 1.9275
2.59529 0.458398 2.12911
5.01531 0.477608 9.00526
3.02935 0.561229 1.78205
5.88956 0.350911 8.73035
2.84081 0.225491 1.4963
9.69833 0.29312 1.74121
4.42222 1.43474 9.75358
2.6876 0.349479 2.81661
2.96527 0.512407 1.18488
9.84929 0.132475 1.37106
3.34242 0.596091 2.44005
5.26456 0.356257 8.51993
3.22338 0.343834 1.59015
5.30452 0.809686 8.26921
4.57884 1.45294 9.42718
2.90237 0.666326 1.5115
3.08328 0.247684 1.57449
6.01346 0.183523 1.96693
1.92716 0.268241 2.44054
3.09896 0.387075 1.60374
2.32772 0.493049 2.71905
3.55515 0.534475 2.89193
3.12772 0.687727 2.31049
5.40874 0.211875 7.65515
4.63686 1.44021 9.41658
1.97105 0.337755 1.72095
2.74103 0.403489 2.07936
6.71464 0.277097 2.04262
4.65966 0.183501 8.91495
3.27992 0.259252 1.71959
3.09974 0.461782 0.934872
6.20665 0.645917 2.15074
8.08248 0.358842 7.34925
5.21819 0.543588 8.38263
2.45095 0.406331 1.81443
1.84209 0.473688 1.71628
7.41909 0.210781 7.0993
5.24811 0.275411 8.80753
4.77724 0.713164 8.58674
5.11277 0.676312 8.4834
2.38505 0.166593 2.6436
6.20786 0.667914 2.15761
7.96196 0.306382 7.5087
4.964 0.391057 8.13715
2.28157 0.0936647 2.78079
1.87936 0.381441 2.29733
7.09387 0.113481 6.77383
5.49453 0.49412 8.72293
5.4613 0.666083 8.43788
4.96799 0.314881 8.64918
2.76469 0.71397 1.4218
3.05926 0.317538 1.30628
2.65452 0.357507 1.62425
5.34702 0.484194 8.50436
2.31038 0.441696 1.46191
6.37632 0.340844 4.87987
4.86576 0.352195 9.02483
2.81436 0.556107 1.5637
2.84272 0.627005 1.48848
6.83395 0.396091 4.9909
6.21222 0.339033 1.85766
3.08308 0.302033 1.29434
2.41273 0.232233 1.57328
4.96979 0.465117 8.3266
2.64079 0.68122 1.19639
6.39506 0.329728 4.86659
4.41511 1.22413 9.33724
2.86113 0.565757 1.62064
3.59139 0.612197 2.40071
9.00274 0.050855 1.4657
6.16875 0.360767 1.84581
POINT_DATA 400
SCALARS particleColor float 3
LOOKUP_TABLE default
0 0.419619 1
0.0273015 1 0.972698
0 0.582669 1
0 0.546727 1
0 0.249804 1
0.659466 1 0.340534
0 0.724431 1
0 0.624126 1
0 0.809512 1
0 0.605936 1
0 0.882836 1
0 0.581748 1
0.101898 1 0.898102
0.100958 1 0.899042
0.174646 1 0.825354
0 0.755013 1
0 0.197317 1
0 0.379587 1
1 0.912405 0
0.129342 1 0.870658
0 0.793139 1
1 0.626358 0
0 0.951966 1
0 0.755853 1
1 0.426785 0
0 0.636192 1
1 0.492864 0
0 0.817174 1
0 0.676319 1
0 0.511134 1
0 0.997625 1
0.919607 1 0.0803935
0 0.975047 1
0 0.528185 1
0 0.73408 1
0 0.432191 1
0.111789 1 0.888211
0 0.424966 1
0 0.298077 1
0 0.392447 1
0.481235 1 0.518765
0 0.862756 1
0 0.961352 1
0.224527 1 0.775473
0 0.627993 1
0 0.230693 1
0 0.924861 1
0 0.501695 1
0 0.4633 1
0.291138 1 0.708862
0 0.74864 1
0 0.342596 1
0 0.896872 1
0 0.726447 1
0 0.816509 1
0 0.476054 1
0 0.932067 1
0 0.806888 1
0 0.462318 1
0 0.986378 1
0.297897 1 0.702103
0 0.629469 1
0 0.398855 1
0 0.36757 1
0.27558 1 0.72442
0 0.473382 1
0 0.528027 1
0 0.646776 1
0 0.31838 1
0 0.46464 1
0.206803 1 0.793197
0 0.663853 1
1 5.96046e-08 0
0 0.318271 1
0 0.362643 1
0 0.739567 1
0 0.383565 1
0 0.364528 1
0 0.952817 1
0.371382 1 0.628618
0 0.479748 1
0 0.300954 1
0 0.535741 1
0 0.542192 1
0 0.796066 1
0 0.460951 1
0 0.910434 1
0 0.690734 1
0.138632 1 0.861368
0 0.363779 1
0 0.676644 1
0 0.612709 1
0 0.436443 1
0 0.401394 1
0 0.65336 1
0 0.738931 1
0 0.436197 1
0 0.331509 1
0.0731943 1 0.926806
0 0.372871 1
0 0.522608 1
0 0.304536 1
0 0.674516 1
0 0.927003 1
1 5.96046e-08 0
0 0.500447 1
0 0.59165 1
0 0.463847 1
0 0.315747 1
0 0.287887 1
1 0.559927 0
0 0.763364 1
0 0.69894 1
0 0.32617 1
0 0.541953 1
0 0.708974 1
0 0.468477 1
0 0.428786 1
0 0.137252 1
0.335789 1 0.664212
0 0.511054 1
1 5.96046e-08 0
0 0.486043 1
0.316346 1 0.683654
0.304909 1 0.695091
0 0.777651 1
0 0.408873 1
0 0.927662 1
1 0.0331615 0
0 0.945799 1
0 0.501327 1
0 0.798472 1
0 0.579896 1
0 0.581312 1
0.935971 1 0.0640286
0 0.481031 1
0.594254 1 0.405746
0 0.603906 1
0 0.820414 1
0 0.491366 1
0 0.617149 1
0 0.902699 1
0 0.777768 1
0 0.976953 1
0 0.498124 1
0 0.416872 1
0 0.436014 1
0 0.58194 1
0 0.395737 1
0 0.735524 1
0 0.630615 1
0 0.426905 1
0 0.363683 1
0 0.46647 1
0 0.214579 1
0 0.323877 1
0 0.194825 1
0 0.200758 1
0 0.455211 1
0 0.279233 1
0 0.895378 1
0 0.797133 1
0 0.645615 1
0 0.49423 1
0 0.147424 1
0 0.391327 1
0.107978 1 0.892022
0.00230471 1 0.997695
0 0.36084 1
1 5.96046e-08 0
0 0.433621 1
0 0.149376 1
0 0.876361 1
0 0.933125 1
0 0.350043 1
0.12495 1 0.87505
0 0.60718 1
0 0.19102 1
0 0.633975 1
0.582882 1 0.417118
0 0.594996 1
0 0.789951 1
0.00944734 1 0.990553
0.0464062 1 0.953594
0 0.314983 1
0 0.695978 1
0 0.858619 1
0 0.610965 1
0 0.874211 1
0 0.27811 1
0 0.792282 1
0 0.174031 1
0 0.732974 1
0 0.318387 1
1 0.703981 0
0 0.809192 1
0 0.832112 1
0 0.398059 1
0 0.72564 1
0 0.420024 1
0 0.318619 1
0 0.379206 1
0 0.893346 1
0 0.539415 1
0.497404 1 0.502596
0 0.850585 1
0 0.248332 1
0 0.654019 1
0 0.704901 1
0 0.158406 1
0 0.491058 1
0 0.373651 1
0 0.831164 1
0 0.678966 1
0.0751052 1 0.924895
0.00674183 1 0.993258
0 0.310336 1
0 0.360112 1
0 0.948389 1
0 0.170267 1
0.159717 1 0.840283
0 0.855038 1
0 0.764474 1
0 0.413073 1
0 0.558807 1
0 0.719958 1
0 0.634542 1
0 0.522169 1
0.00557394 1 0.994426
0 0.841216 1
0 0.619492 1
0 0.654692 1
0 0.495111 1
0 0.549056 1
0 0.452886 1
0 0.972866 1
0 0.57842 1
0 0.781362 1
0 0.291935 1
0.291458 1 0.708542
0 0.687078 1
0.0470901 1 0.95291
0 0.542938 1
0 0.875543 1
0 0.320425 1
0 0.935697 1
0.18859 1 0.81141
0 0.544638 1
0 0.348568 1
0 0.626785 1
0 0.428911 1
0 0.735648 1
0 0.257436 1
0 0.882309 1
0 0.825517 1
0 0.779571 1
0.00861486 1 0.991385
0 0.554684 1
0 0.276338 1
0 0.551328 1
0 0.729991 1
0 0.767794 1
0.0665196 1 0.93348
0 0.335582 1
0 0.73135 1
0.0347174 1 0.965283
0.192478 1 0.807522
0 0.376274 1
0 0.58503 1
0 0.297768 1
0 0.52397 1
0.230685 1 0.769315
0 0.965946 1
0.315571 1 0.684429
0 0.484407 1
0 0.692891 1
0 0.639423 1
0 0.763153 1
0 0.962002 1
0 0.678161 1
0 0.723879 1
0 0.450482 1
0 0.35022 1
0 0.417273 1
0.71282 1 0.28718
0 0.613188 1
0 0.234511 1
0 0.61012 1
0.170484 1 0.829516
0.165504 1 0.834496
0 0.969275 1
0 0.429665 1
0.035614 1 0.964386
0 0.339111 1
0 0.608051 1
0 0.911911 1
0.0652695 1 0.93473
0 0.732751 1
0 0.852707 1
0 0.356831 1
0 0.329715 1
0.196518 1 0.803482
0 0.962187 1
0 0.598841 1
0 0.755294 1
0 0.794055 1
0.187092 1 0.812908
0 0.543297 1
0 0.955036 1
0 0.953302 1
0 0.515871 1
0 0.289491 1
0 0.345253 1
0 0.682437 1
0 0.392395 1
0.00127707 1 0.998723
0 0.904003 1
0.038396 1 0.961604
0 0.665714 1
0 0.703406 1
0 0.776712 1
0 0.645728 1
0 0.275864 1
0 0.847842 1
0 0.680071 1
0 0.577606 1
0 0.845466 1
0 0.887106 1
0.184335 1 0.815665
0 0.684207 1
0 0.731952 1
0 0.751255 1
0 0.384727 1
0 0.827227 1
0 0.411339 1
0 0.505151 1
0 0.910056 1
0 0.660336 1
0 0.374094 1
0 0.71211 1
0 0.977136 1
0 0.923065 1
0 0.435967 1
0 0.752016 1
0 0.639478 1
0 0.413958 1
0 0.602746 1
0 0.729696 1
0 0.156088 1
0 0.772567 1
0 0.404281 1
0 0.758031 1
0 0.784825 1
0 0.582245 1
0 0.475649 1
0 0.694367 1
0 0.944103 1
0 0.549853 1
0 0.521086 1
0 0.325312 1
0 0.472984 1
0 0.742148 1
0 0.987977 1
0.250858 1 0.749142
0 0.916589 1
0 0.130703 1
0 0.442583 1
0 0.634237 1
0 0.948076 1
0.227318 1 0.772682
0 0.570767 1
0 0.307405 1
0 0.211202 1
0 0.782184 1
0.0499257 1 0.950074
0 0.42703 1
0 0.296478 1
0 0.913831 1
0 0.613188 1
0 0.798454 1
0 0.670137 1
0 0.700658 1
0 0.368848 1
0 0.695889 1
0 0.906247 1
0 0.800496 1
0 0.679926 1
0 0.992969 1
0 0.55754 1
0.102618 1 0.897382
0 0.606506 1
0 0.53449 1
0 0.721536 1
0 0.164796 1
0 0.912966 1
0 0.511519 1
0 0.85684 1
0 0.842303 1
0.153011 1 0.846989
0.0424605 1 0.957539
