# vtk DataFile Version 3.0
Particle simulation
ASCII
DATASET POLYDATA
POINTS 400 float
4.87634 0.093914 9.50465
5.78896 4.11167 6.87815
0.101263 1.45864 6.39403
3.96021 0.424628 3.42384
9.71119 1.53616 5.69046
3.12262 1.87244 0.772953
1.08078 0.849705 0.58632
6.48193 2.93211 2.34855
7.92771 1.89822 6.02144
2.19362 1.7679 8.1769
5.72786 3.51688 4.33105
2.63687 5.33203 1.65649
9.68305 1.07927 8.25328
1.49825 7.16719 2.46576
7.02587 4.03554 3.45405
8.27766 4.99734 9.62415
1.54231 4.23045 0.853763
2.95611 0.508301 2.24697
1.67676 5.51685 8.01894
4.04943 0.386771 2.60592
3.43774 0.39467 1.8223
8.1805 1.62745 2.64682
8.87681 2.91677 10
1.2891 2.28066 0.307722
3.91589 4.64364 1.18329
1.97779 0.384086 3.60354
8.50159 7.38493 0.950724
1.72367 2.19815 1.10432
8.71654 0.0961363 3.74887
7.50722 2.50711 2.1887
1.92317 3.63882 9.38911
3.40402 5.2494 2.46557
5.24693 2.32419 4.27688
2.14242 0.216479 2.87483
7.50262 2.36629 2.13338
6.33186 3.56426 0.0929391
6.93006 0.808999 2.24119
2.78319 0.533123 1.04102
7.22329 0.588988 2.61899
0.242423 0.516529 6.35033
1.19353 1.07034 5.80158
9.89078 2.56347 7.34741
4.80224 0.788533 7.53272
4.60533 1.17034 3.88687
7.76627 0.536551 5.24803
5.9378 0.499917 1.38557
1.26736 0.213092 5.52719
7.94964 2.20978 5.88705
6.07227 0.264009 1.49647
6.7778 3.0396 2.75577
3.62031 1.26959 3.47578
5.01469 1.51712 8.9503
7.88926 0.876556 9.42169
3.83208 0.418697 7.62007
6.81844 1.15373 9.04898
5.70803 0.302286 1.91163
9.52344 2.9648 7.18226
0.954492 0.734818 9.59196
6.03692 2.0145 0.80755
8.83564 0.361631 3.11253
0.349437 9.39293 1.50941
6.82031 3.21672 7.97454
1.86577 0.63757 4.58198
2.89266 0.0708432 8.48106
0.819403 9.73135 0.839106
0.942888 1.12107 4.22153
3.89997 1.33867 9.28594
3.19022 0.781311 0.729804
6.13921 2.14641 0.693567
4.99359 0.407176 7.50467
7.02457 0.21292 6.2131
2.93423 0.654641 1.1537
0.494512 1.81513 9.28906
2.84753 0.458374 8.35275
7.33845 0.234026 6.35186
9.24113 0.931651 0.822562
3.8959 1.43198 9.38491
4.74326 0.405529 7.92042
8.34848 6.72678 0.100701
1.26232 4.23566 9.18792
3.24619 0.302502 1.06525
3.13088 0.608108 1.24646
1.1072 1.0101 2.81247
2.99972 0.130241 1.7276
0.628024 0.642881 9.37177
5.78406 0.680264 8.45618
3.09654 1.26642 4.45406
2.62521 1.91374 2.85239
6.52906 3.89534 3.15411
8.36575 0.427357 0.75074
3.64771 0.493924 1.40674
3.49597 0.480387 0.74409
0.764017 0.46098 6.25692
3.89566 0.971306 3.12042
0.670982 0.80464 9.37956
5.47834 0.286586 9.602
5.38269 0.483053 9.04454
2.6272 3.40307 0.281666
2.99338 4.36825 6.82306
8.33406 0.421631 0.761617
2.8955 0.2789 2.39268
6.4265 0.160298 3.62361
4.23291 0.308169 3.40442
9.51169 1.17325 7.99191
2.33385 3.64518 0.0709393
2.42195 0.745029 1.01077
7.69241 0.86378 8.84763
5.7957 0.41827 1.6444
5.84785 0.668169 1.37564
9.32078 0.362342 0.414664
6.84695 8.69315 7.47341
2.63389 0.381695 8.29291
4.06823 1.42081 0.143854
6.01599 0.614489 1.20253
2.75162 0.703353 1.18209
0.942977 0.335788 5.8808
4.85696 0.628942 7.75963
6.93638 0.777128 2.799
5.91947 0.477765 1.13264
6.93416 1.28337 9.08844
2.98692 0.18626 1.19628
4.37749 5.04879 9.04371
7.40568 6.78675 0.24356
2.57528 3.83859 7.80522
7.01215 0.961501 9.02641
2.91005 0 1.13984
4.59514 1.73205 5.28197
2.77221 0.254551 8.45195
1.74053 4.88416 9.53217
3.09464 7.29642 2.41283
3.33734 0.205426 0.582178
2.62165 2.1107 3.03095
7.35755 0.708087 8.89206
6.70364 0.296724 6.49409
1.32133 4.36988 5.293
2.09607 0.873696 1.22389
2.10938 1.57745 9.04117
2.78436 0.16587 8.49278
4.43212 5.01949 7.13353
6.47605 0.886677 9.27467
2.78164 0.215811 1.71117
2.21505 3.79295 9.16382
3.87177 4.12216 2.16543
6.97073 1.507 8.71687
3.10738 0.0385964 1.7862
3.16116 0.611597 1.43298
8.16479 0.55307 5.4135
0.121733 3.85608 0.180743
3.33559 0.744478 2.17432
8.31478 5.21332 1.97909
2.77051 0.166674 1.70121
9.20072 1.19041 6.94306
1.04197 1.00412 4.30763
7.88078 1.69244 9.93029
3.60768 2.82433 0.496324
5.8376 0.349434 1.45567
7.50004 0.268249 4.97679
2.93506 0.627914 1.08041
7.71123 0.60579 5.80582
2.46792 0.629442 0.974224
6.64995 4.27647 2.87099
0.390244 1.22664 6.68973
5.75473 0.756151 8.56526
2.60811 0.360789 2.4944
3.9581 0.85922 2.92287
7.9011 0.924561 9.29421
6.01622 0.526627 7.34432
5.76288 0.44818 8.85234
8.381 0.497613 5.49558
3.68927 9.29501 7.2335
3.19509 0.792259 1.21726
4.35526 1.53796 4.12154
5.7754 0.844449 1.05303
3.514 0.837763 0.854821
4.08052 0.572703 3.10099
6.26619 3.44214 0.0372524
5.96041 0.674004 8.84369
4.79343 0.857225 8.21594
9.45213 0 7.31308
0.38294 9.62256 2.93492
3.01494 0.183311 1.73907
3.03778 0.234406 3.43123
6.38912 5.0453 4.7163
3.13171 0.0143486 1.10866
5.70129 0.826214 8.92556
3.79514 0.203642 1.63254
3.32799 0.732774 1.2058
0.0697367 1.73564 6.78041
7.51045 0.466803 5.16271
3.29584 0.141505 1.8287
3.01316 0.30042 1.75847
2.97192 0.270032 2.50777
1.61932 1.18168 5.91627
0.579639 0.572396 4.392
4.72582 8.64268 2.54459
3.23521 0.836142 1.09211
4.00583 0.580918 3.04653
5.84692 5.77849 0.138229
3.00088 0.311962 2.56012
2.70934 0.124613 1.97722
3.32397 0.442275 1.08034
6.36966 0.164673 1.15294
7.66061 0.217799 5.50489
5.84633 0.56274 8.47416
8.10281 8.33087 1.52675
5.4442 1.06905 8.4367
2.81627 0.664582 2.02565
1.79714 1.00635 9.49599
1.3088 0.677213 9.94163
8.57161 0.310754 0.785192
2.91034 0.281235 2.29369
6.02444 0.607518 1.58671
5.24837 0.270522 8.78351
6.79374 1.193 8.89406
8.55259 0.414415 9.67386
5.54076 0.630302 8.68445
2.75113 0.633354 2.03922
3.16164 0.240892 2.46062
4.50105 1.74113 5.37125
8.23678 0.453185 1.12186
7.68995 7.01955 7.56205
7.53895 1.90703 9.75884
5.08618 0.468806 7.74283
3.18908 0.321113 1.58965
6.24638 0.191577 8.06185
3.22678 0.456698 1.44042
5.42086 3.48873 0.339429
2.73168 0.204521 2.25378
3.1374 0.491885 1.92869
8.16341 1.06931 9.14166
0.559086 1.52655 7.10862
5.93084 1.07723 8.09752
7.77686 0.380881 5.88707
3.03866 0.366128 1.90974
5.13761 0.664463 7.80936
0.780481 0.872112 2.49453
4.06288 1.21032 9.09339
3.64193 0.353325 2.87868
3.29892 0.106497 2.66988
0.924954 0.558561 9.87501
3.57442 0.408711 1.71785
3.89935 0.523785 1.53391
3.60198 0.0943866 2.31587
2.72735 0.463248 1.78425
5.7913 0.59727 8.65064
2.18673 0.743184 0.780634
1.37279 2.35476 0.849324
7.1781 0.822071 9.54846
5.80002 0.473192 1.50596
5.38078 0.965982 8.5899
3.3531 0.378425 1.45409
5.26636 2.52834 4.22159
5.60001 0.796926 8.79175
3.76389 0.233931 3.21196
8.16283 0.68455 5.53038
3.18338 0.207816 1.40095
9.25313 0.834929 0.638889
5.96604 0.705185 9.01841
6.0436 0.409356 1.27845
5.4578 0.85042 8.76056
3.1605 0.166727 1.57468
4.33243 2.99281 4.60006
6.16027 0.451471 8.89307
7.78567 0.538227 0.544528
6.06777 0.929413 8.03366
4.94876 0.781036 3.87566
3.95861 0.141082 1.80249
5.57659 0.529925 8.12677
7.88543 0.318282 5.40546
3.2685 0.460961 1.98695
2.65876 0.514215 2.0572
1.52761 0.606243 4.37789
7.24175 0.555236 2.87705
3.2954 0.450546 1.32803
5.58584 0.603042 8.06676
5.70877 0.815346 8.3861
3.77301 0.55758 7.89585
8.9808 8.54381 5.76567
0.156547 0.879503 8.81126
3.11134 0.365277 1.88321
8.65708 0.535106 1.03818
6.23414 0.615716 1.37971
8.92989 2.77039 2.3995
2.98824 0.189617 8.5973
9.68618 3.12863 7.86723
7.91711 0.429972 5.46125
3.32011 0.234171 1.71226
3.38469 0.511299 2.05196
5.19133 1.07251 9.06929
4.61413 7.713 9.80203
8.89888 0.101584 3.43589
6.08735 0.305221 1.5892
2.67767 0 1.20214
3.03669 0.39994 8.51813
5.46852 0.636634 8.86126
5.57072 0.749341 8.81578
3.34054 0.287125 1.66616
2.98549 0.32636 1.83611
3.26138 1.32992 0.63131
2.94873 0.12616 1.6113
8.40788 0.250754 0.420504
6.92292 1.21889 8.87599
2.49158 1.14473 7.51846
6.47431 0.399746 3.80806
3.00735 0.325479 1.50613
0.103123 0.00243475 1.69641
1.67676 0.886375 0.658864
3.17147 0.303714 1.28837
2.25391 1.21116 7.89505
3.9814 0.478434 3.28594
5.05153 0.654326 7.9469
9.30829 1.20922 6.886
7.78567 0.747294 5.19554
2.88818 0.425581 1.34486
3.09036 0.219848 2.1255
1.21985 0.61207 9.39798
1.74266 0.855244 1.14378
6.14096 0.101066 1.78571
5.86192 0.604251 0.966072
3.58243 0.269018 2.59131
5.6003 0.814336 8.59701
1.35349 0.925165 2.55941
5.61011 0.572429 9.00329
3.71086 0.400567 2.33223
8.16375 0.0881934 0.700336
8.56046 0.376016 0.770767
3.5275 0.0470653 2.16972
6.39527 0.0973438 1.47717
5.97353 0.651428 1.11601
2.70952 0.696969 0.983182
8.21279 0.758776 9.2948
3.05831 0.498676 2.03746
5.44175 0.441835 8.77808
3.14402 0.147868 1.22261
5.63157 0.905751 0.778654
9.66268 2.88085 7.8557
5.878 0.454013 0.877953
3.02177 0.345885 1.45798
9.18651 0.416871 0.630126
4.04301 0.639716 3.1136
5.02003 0.895958 8.15266
3.53471 0.540683 2.93276
5.4793 1.16275 8.31803
5.14454 0.989917 7.79494
3.34791 0.076383 1.87896
3.36793 0.411778 1.78721
6.25992 0.270511 1.20171
2.95581 0.336818 1.1321
3.38401 0.342359 1.70844
3.98852 0.745091 2.77428
4.0613 0.174392 1.85224
3.20286 0.138399 2.21708
5.50043 0.350676 8.3632
5.98744 0.938877 8.57888
3.80836 0.10348 2.39757
3.16647 0.0575272 1.76792
6.21312 0.127823 1.54523
5.53161 1.19235 8.43492
3.5335 0.406945 2.05882
3.74814 0.0207638 1.81448
6.08701 0.479682 1.68317
5.43597 0.598925 8.61197
5.27267 0.530464 8.49258
3.32717 0.222586 1.72298
3.18221 0.486148 1.75462
7.83019 0.731835 5.33025
5.48899 0.617397 8.74669
5.76942 1.11559 8.7878
5.16452 0.894982 8.47599
2.53319 0.129845 1.85777
6.13593 0.433595 1.66917
9.21779 1.22377 6.98623
5.65132 0.680251 8.85531
2.82443 0.161668 1.15206
3.35686 0.228738 1.90232
7.88571 0.671555 5.42452
5.31212 0.752452 8.81483
5.58925 0.496599 8.40794
5.72541 0.547664 8.84607
3.17471 0.47651 2.02843
3.16744 0.435184 2.13263
3.15968 0.176493 1.73078
5.41673 0.572164 8.70022
3.36796 0.563982 1.50282
2.84328 0.313108 8.56115
5.61421 0.688319 8.69224
3.31015 0.455187 2.33452
3.46796 0.254645 1.787
7.41308 7.37712 8.77933
5.83636 0.783816 1.69429
3.21699 0.395685 2.11458
2.93558 0.22765 1.77915
5.64137 0.601938 8.57254
2.93981 0.599456 1.93004
2.85365 0.265594 8.65045
5.4642 0.586064 8.57574
3.33642 0.439149 2.34996
4.16439 0.634919 3.09685
8.23969 0.27176 1.07728
5.82593 0.786538 1.69687
POINT_DATA 400
SCALARS particleColor float 3
LOOKUP_TABLE default
0 0.76828 1
0.492372 1 0.507628
0 0.148865 1
0 0.552938 1
0 0.473369 1
1 0.409837 0
0.149475 1 0.850525
0 0.697154 1
1 5.96046e-08 0
0 0.682965 1
0.367541 1 0.632459
1 5.96046e-08 0
0.537587 1 0.462413
1 0.968337 0
0 0.76605 1
0 0.420803 1
0 0.520262 1
0 0.45097 1
0.140986 1 0.859014
0 0.994653 1
0 0.549644 1
0 0.467626 1
1 5.96046e-08 0
0 0.922878 1
0.614054 1 0.385946
1 0.905316 0
1 5.96046e-08 0
0.158538 1 0.841462
0 0.352519 1
0.229584 1 0.770416
0.392591 1 0.607409
0.18144 1 0.81856
0.501557 1 0.498443
0.212709 1 0.787291
0 0.789397 1
0.247644 1 0.752356
0.384657 1 0.615343
0 0.255532 1
0 0.525166 1
0 0.625585 1
0.238458 1 0.761542
0 0.284379 1
0.539407 1 0.460593
0.735777 1 0.264223
0 0.36292 1
0 0.565916 1
0.658839 1 0.341161
0.217305 1 0.782695
0 0.505368 1
0.114746 1 0.885254
0 0.718292 1
1 5.96046e-08 0
0.0860309 1 0.913969
0 0.804926 1
0 0.406861 1
0 0.604817 1
0.110801 1 0.889199
0.0338353 1 0.966165
0 0.82726 1
1 0.365449 0
0 0.735412 1
0 0.706264 1
1 0.882893 0
0 0.903676 1
0.0222814 1 0.977719
0.39223 1 0.60777
0 0.813961 1
0.105791 1 0.894209
0 0.816775 1
0 0.421104 1
0 0.360657 1
0 0.526732 1
0.939167 1 0.0608332
0 0.531544 1
0.429484 1 0.570516
0 0.502487 1
0 0.51134 1
0 0.310577 1
0.448358 1 0.551642
0.0204946 1 0.979505
0 0.32307 1
0 0.497819 1
0 0.59221 1
0 0.669043 1
0 0.736931 1
0 0.415782 1
0.591829 1 0.408171
0.119489 1 0.880511
0.540158 1 0.459842
0 0.361205 1
0 0.437079 1
0 0.596277 1
0 0.875094 1
0 0.778168 1
0 0.648279 1
0 0.252953 1
0 0.845069 1
0.237439 1 0.762561
1 5.96046e-08 0
0 0.40829 1
0 0.697681 1
0.0675689 1 0.932431
0 0.633467 1
0.191912 1 0.808088
1 0.755824 0
0 0.678158 1
0 0.89688 1
0 0.513454 1
0.000281767 1 0.999718
0 0.706864 1
0 0.648147 1
0 0.524627 1
0 0.779469 1
0 0.53314 1
0 0.496553 1
0 0.387446 1
0 0.575194 1
0 0.398836 1
0 0.899495 1
0 0.747623 1
0 0.387113 1
1 5.96046e-08 0
0.299128 1 0.700872
0.276105 1 0.723895
0 0.481933 1
0 0.552127 1
0 0.816794 1
0 0.58414 1
0.297498 1 0.702502
0.681108 1 0.318892
0 0.368261 1
0 0.314769 1
0 0.602552 1
0 0.753123 1
0.822975 1 0.177025
0 0.625589 1
1 5.96046e-08 0
0 0.988782 1
0.449474 1 0.550526
0 0.923485 1
0 0.571964 1
0.223315 1 0.776685
1 5.96046e-08 0
0.177953 1 0.822047
0 0.695654 1
0 0.708926 1
0 0.75872 1
0 0.419227 1
0 0.63035 1
1 5.96046e-08 0
0 0.497143 1
0 0.285514 1
0 0.532587 1
0.0542922 1 0.945708
0.0676969 1 0.932303
0 0.777276 1
0 0.726984 1
0 0.740455 1
0 0.426394 1
0.118288 1 0.881712
1 0.776518 0
0 0.549782 1
0 0.869247 1
0 0.317541 1
0.193013 1 0.806987
0 0.527981 1
0 0.206502 1
0 0.987915 1
0.664038 1 0.335962
1 5.96046e-08 0
0 0.383035 1
0.219775 1 0.780225
0.0879382 1 0.912062
0 0.57382 1
0.111093 1 0.888907
0 0.8924 1
0 0.246456 1
0 0.531948 1
0 0.949922 1
0.36438 1 0.63562
0 0.617619 1
0 0.295985 1
0 0.605748 1
0 0.518661 1
0 0.690756 1
0 0.809971 1
0 0.614332 1
0 0.564566 1
0 0.387662 1
0 0.316871 1
0 0.48723 1
0 0.164308 1
1 5.96046e-08 0
0.402839 1 0.597161
1 0.269313 0
0 0.54919 1
0 0.395879 1
1 5.96046e-08 0
0 0.35608 1
0 0.881462 1
0 0.489594 1
0 0.294853 1
0 0.856283 1
0 0.805834 1
0 0.94623 1
0 0.151009 1
0 0.426327 1
0 0.893849 1
0.137002 1 0.862998
0 0.197212 1
0 0.637254 1
0 0.991119 1
0.0311544 1 0.968846
0 0.948417 1
0 0.481745 1
0 0.453811 1
0 0.598422 1
0 0.358098 1
0 0.129122 1
0 0.247274 1
1 5.96046e-08 0
0 0.52805 1
0.0408169 1 0.959183
0 0.90503 1
0 0.228532 1
0 0.640516 1
0 0.496925 1
0 0.250327 1
0 0.422717 1
0.0977987 1 0.902201
0 0.863866 1
0 0.62938 1
0 0.872031 1
0 0.656527 1
0 0.516211 1
0 0.836474 1
0 0.824691 1
0 0.471696 1
0 0.17839 1
0 0.658723 1
0 0.852077 1
0 0.427802 1
0 0.620224 1
0 0.702816 1
0 0.822917 1
0 0.525671 1
0 0.748049 1
0.3522 1 0.6478
0 0.927696 1
0 0.706067 1
0 0.375795 1
1 0.573943 0
0 0.696125 1
0 0.543082 1
0 0.450869 1
0 0.409381 1
0.387776 1 0.612224
0 0.605602 1
0 0.895815 1
0 0.579357 1
0 0.619072 1
0.376781 1 0.623219
0 0.745111 1
0 0.920047 1
0 0.418347 1
0 0.886342 1
0 0.56066 1
0 0.612973 1
0 0.710579 1
0 0.555043 1
0 0.88245 1
0 0.873218 1
0 0.82656 1
0.527918 1 0.472082
0 0.724474 1
0.00487819 1 0.995122
0 0.482989 1
1 5.96046e-08 0
0 0.472688 1
0 0.467388 1
0.0118392 1 0.988161
0 0.641465 1
0.0563553 1 0.943645
0 0.883757 1
0.234745 1 0.765254
0 0.641965 1
0 0.608376 1
0.17792 1 0.82208
0 0.903016 1
0.581217 1 0.418783
0 0.946038 1
0 0.860682 1
0 0.453481 1
0 0.376212 1
0 0.970892 1
0 0.765483 1
0 0.84524 1
0 0.981665 1
0 0.884418 1
0 0.586051 1
0 0.868759 1
0 0.551608 1
0 0.969349 1
0.214016 1 0.785984
0.0781687 1 0.921831
0 0.876609 1
0.00451595 1 0.995484
0 0.571746 1
0.244009 1 0.755991
0 0.489949 1
0 0.0888862 1
0 0.30754 1
0 0.740497 1
0 0.862457 1
0.360014 1 0.639986
0 0.892859 1
0 0.177364 1
0 0.708199 1
0 0.372858 1
0 0.520379 1
0 0.466244 1
0 0.673419 1
0 0.45475 1
0 0.394149 1
0 0.882755 1
0 0.328138 1
0 0.531886 1
0 0.356588 1
0.397113 1 0.602887
0 0.303375 1
0 0.966697 1
0 0.470716 1
0 0.838134 1
0 0.654394 1
0 0.555274 1
0 0.747819 1
0.132251 1 0.867749
0 0.212243 1
0 0.55059 1
0 0.849863 1
0 0.138131 1
0 0.826496 1
0 0.332308 1
0 0.826298 1
0 0.510657 1
0 0.627612 1
0 0.0712932 1
0 0.455068 1
0 0.699347 1
0 0.759981 1
0 0.737742 1
0 0.552561 1
0.281569 1 0.718431
0 0.451288 1
0 0.543317 1
0 0.495218 1
0 0.854737 1
0 0.935045 1
0 0.633375 1
0 0.218968 1
0 0.713263 1
0 0.902265 1
0 0.657757 1
0 0.529005 1
0.329244 1 0.670756
0 0.634353 1
0 0.509444 1
0.17759 1 0.82241
0 0.425791 1
0.0268979 1 0.973102
0 0.523188 1
0 0.727871 1
0 0.495891 1
0 0.995708 1
0 0.941242 1
0 0.875288 1
0 0.229815 1
0 0.675788 1
0 0.855267 1
0 0.555726 1
0 0.681516 1
0 0.406321 1
0.168873 1 0.831127
0 0.0834216 1
0 0.732598 1
0 0.300015 1
0 0.492696 1
0 0.590904 1
1 5.96046e-08 0
0 0.230143 1
0 0.773413 1
0 0.458706 1
0 0.703116 1
0 0.536876 1
0 0.829566 1
0 0.994261 1
0 0.357751 1
0 0.910345 1
0 0.477204 1
0 0.434061 1
