# vtk DataFile Version 3.0
Particle simulation
ASCII
DATASET POLYDATA
POINTS 400 float
3.96246 1.99441 5.357
6.79061 2.79875 2.44822
2.53594 5.93097 6.78119
2.89041 2.18628 1.10945
4.43572 0.492135 5.81513
7.49675 2.36363 8.55689
1.82609 9.33692 0.450301
2.88967 9.88193 4.77794
8.68125 5.59884 8.20994
9.90024 3.48391 7.10959
9.51036 0.309978 9.25512
5.65862 4.28684 2.46825
10 6.25176 8.23664
0.677589 9.75245 1.49382
6.31539 1.39183 4.04596
2.69864 0.598983 3.93565
7.90643 5.87362 9.00618
4.50005 0.623916 4.5328
3.1346 5.7191 5.34564
0.194995 9.33464 0.166593
1.62495 1.32625 7.5139
5.47916 8.34794 3.67863
8.46862 5.97461 3.82138
8.20732 7.70115 7.37032
9.1809 3.70137 1.29763
8.04053 8.16139 4.93786
4.13659 7.79952 1.6765
8.46057 0.781506 9.10453
5.08343 1.57729 8.25757
3.75822 2.27837 8.8073
6.26878 1.21245 10
9.54351 2.17937 2.58607
10 0.707889 4.56133
0.0923907 7.21666 0.51454
2.23224 1.15502 1.88017
6.30042 9.09987 1.92524
8.88887 0.314433 8.07036
9.20831 2.96411 2.08093
8.8971 4.45773 7.37308
1.82461 9.39553 3.84113
8.16162 4.90269 0.785678
1.88804 8.76487 6.13147
0.48322 5.1234 4.47365
6.25342 1.32741 7.5243
2.92487 7.23423 9.40241
6.27743 9.0879 9.73268
8.10972 1.72876 10
6.32821 7.92136 4.74166
5.04164 8.51585 8.77831
4.27874 6.09964 0.861647
2.37187 5.70537 7.74347
10 0 3.29968
0.827842 1.51907 2.87781
9.34351 3.53934 5.62645
1.24194 4.7635 4.40933
3.62822 2.01128 1.0054
1.4886 8.9747 4.06459
3.08438 0.0956837 5.64921
4.68124 10 10
6.07068 2.17838 2.89175
8.9938 3.66877 0.4007
5.40511 4.77015 0.275813
2.75683 9.55645 0.919282
7.13534 7.9227 7.04178
0 2.1881 7.32463
2.97662 5.80359 7.23055
8.17958 3.0625 1.92086
8.59407 2.70727 0.664787
1.37825 6.17157 5.0824
3.5897 0.43419 6.69704
3.90758 0.421852 3.18659
9.82571 4.38323 2.19437
0.307983 5.01921 2.45698
7.24227 3.873 4.01433
0.427135 6.90052 8.18915
9.0859 6.94474 2.43238
1.7592 9.24108 6.05322
3.78991 0.965286 0.599761
4.02697 5.4082 6.70699
8.81343 7.56708 1.90524
7.45037 3.76898 0.90513
5.73 6.27487 0.66416
2.54204 6.33857 6.20186
8.08581 5.52481 2.26757
1.36466 8.30367 9.1117
9.85972 8.59244 5.3236
2.19877 7.70746 2.60513
9.57252 6.98044 10
6.77664 3.49979 9.61582
9.68189 0.950732 5.06177
5.27234 9.50404 2.24399
3.96031 4.19978 4.17368
8.92789 0.649919 7.63148
6.26304 6.98438 9.29206
6.20285 0.454089 4.2521
9.3816 2.54585 3.15864
1.15587 8.51614 3.60342
5.97478 9.97824 0.562185
6.5979 4.09454 5.49868
8.72787 1.7001 8.7111
3.18587 6.77285 6.72027
0 2.7452 0.819742
1.95154 4.80064 4.18654
6.5891 3.25889 6.89533
3.99889 9.68996 1.26799
4.11188 8.50621 3.61297
3.49473 8.26751 2.52341
5.50354 2.80805 2.87539
2.54368 9.59679 5.14999
6.1136 1.7064 5.95632
9.71217 3.46552 0.957068
6.12089 4.2697 4.28274
0.300379 0.508923 8.06129
0.708798 9.02942 4.49834
2.00343 2.83974 7.47871
1.38144 3.27134 3.35987
3.84427 9.76274 2.99582
4.96045 2.10645 2.76867
9.71974 0.590192 9.45784
4.14529 1.64935 9.60045
2.58466 3.35626 2.37623
5.9783 3.25408 6.84088
3.2292 2.36458 9.34613
5.49808 2.63528 3.14704
9.22182 3.28872 8.81221
3.47322 0.192485 5.9227
8.95979 6.88205 2.56285
10 8.81737 1.64859
2.56636 2.94878 3.5871
5.1117 7.1609 1.61633
0.458218 9.15276 6.43808
2.48342 7.8576 1.46966
4.67791 0.302287 0.174255
1.49897 2.54427 2.47768
8.31035 0 0.603535
5.27643 5.13705 8.92551
6.92161 2.8419 3.19734
4.38528 9.25723 5.13885
6.99149 1.12243 7.66583
7.89928 4.56381 3.49796
5.32469 0.512555 4.30932
9.73324 0.307385 4.39067
9.47322 1.53445 2.73609
8.79334 7.69379 9.15995
4.60727 4.14935 3.34461
6.85073 1.943 3.71038
7.80521 3.38719 3.50806
9.11382 0.542976 9.05107
9.02067 1.19749 8.90011
4.99712 4.84148 3.9586
5.53139 0.577386 4.49155
9.26256 6.58462 8.45761
3.54554 7.30193 7.64767
5.3876 6.76341 9.68814
3.6738 3.83267 3.88489
8.41687 9.10581 9.0123
2.46074 8.51055 5.01811
8.28293 7.81696 3.25119
4.85481 4.5065 1.71665
10 1.09341 9.18602
8.23895 7.7081 7.34137
1.83389 7.23673 8.75871
6.5582 9.09066 5.85624
3.32347 7.26111 7.19275
7.15323 3.62802 6.95904
6.46464 3.12434 5.35456
3.1078 3.39157 2.67323
7.50512 3.20885 7.83739
1.02565 4.00299 10
8.33998 8.03473 0.417274
0.724199 0.734743 9.51195
3.31067 1.79799 7.90768
0.644332 6.09255 8.49813
9.06116 7.0399 1.97514
0 4.07617 0
2.53976 8.80646 8.29605
6.63733 4.86404 1.56527
8.03951 8.55188 7.26164
5.75196 8.89312 3.26361
9.28715 5.11303 2.87093
8.40936 1.83902 3.40665
5.66496 1.21309 9.79333
0.510327 8.77763 4.06531
1.68224 6.49386 5.78144
8.08964 9.61031 6.7644
4.04216 1.89802 6.36404
5.27655 0.30235 4.43736
8.98627 7.57374 1.84454
7.24955 5.15261 3.68732
6.50375 0.462625 5.24781
6.26149 5.59422 7.21659
2.94184 0.128941 4.57407
9.73237 7.29845 7.91897
1.9946 8.44884 8.45257
0.155684 1.88378 8.41202
9.02149 3.05814 3.17731
2.19427 0.39005 1.20018
0.854458 0.330935 10
8.60941 1.17646 5.3993
1.23968 4.54735 5.03372
5.38184 0.373594 4.53689
2.57361 3.21766 2.04726
6.9261 7.77142 2.43552
2.03419 6.48908 9.37812
8.28282 7.67476 8.26353
6.57936 8.51624 8.08955
6.31216 8.8153 2.59305
4.17707 7.38454 4.40051
9.79473 3.69944 0.949767
1.89145 1.27393 9.67637
5.46436 0.294297 4.37888
4.8981 0.76769 3.67303
0.92787 3.86059 0.891794
2.53804 0.283306 4.30401
0.179321 8.48964 1.84289
2.63713 4.82868 10
4.85379 0.528268 4.66759
4.47104 8.12036 1.12003
2.06355 6.69376 8.41367
1.86599 9.10148 1.03331
2.43577 4.1428 2.67793
5.56289 6.65614 8.97465
8.28978 5.35061 3.87269
4.41923 0.384751 4.27553
2.10865 8.40735 8.46835
2.469 9.70118 3.72607
0.668256 9.83919 2.08419
4.45045 0.103395 5.64481
5.28971 0.467535 4.52908
6.24339 9.22364 1.88089
9.39916 3.29089 9.50609
4.77855 7.35052 5.45359
9.89317 0.894981 7.84603
4.28881 0.221058 5.68005
0.729492 5.05682 6.59825
8.61831 3.66185 5.81288
8.46254 4.63704 3.24197
6.07432 5.8451 8.3384
5.29482 0.367881 4.56774
9.25175 3.1676 5.07959
5.54743 0.441795 4.30157
9.95673 1.64463 2.40169
6.33501 9.81467 4.29568
6.47907 0.558299 2.70139
3.01036 2.56594 2.14055
1.88467 8.68931 6.11537
2.54322 6.40257 1.46866
6.1591 9.01649 7.42789
4.62603 5.88677 4.04059
1.32198 1.08726 8.65085
4.99256 0.394855 4.53082
2.71511 0.96536 1.16872
7.78433 4.52629 1.07775
2.648 10 0.782041
3.93822 4.49557 3.48911
8.08996 2.03719 2.6516
3.861 4.29182 2.04954
2.29496 0.614969 8.43265
7.42577 9.7425 7.16371
8.55984 1.72464 0.00176522
3.44792 9.55705 0.660972
5.58772 9.64609 0.799745
5.81496 0.822983 2.21434
4.41841 2.27695 0.761361
0.189414 0.497843 3.31004
8.4639 6.84578 2.63302
6.99549 7.30404 1.71424
8.31083 6.90089 9.16619
4.50799 9.15179 4.99427
0.649381 5.27559 2.11642
4.93818 0.388451 4.57661
3.80786 7.67611 7.70385
8.97615 8.52947 1.48697
7.07637 9.41995 9.43687
6.77954 6.53679 4.10013
7.18431 3.62643 0.665382
8.30774 3.50595 3.58804
3.381 0.486456 7.4809
9.02381 9.17771 2.07037
5.25239 0.417637 4.66014
7.05951 2.35817 3.48539
7.72382 0.391154 3.02412
5.3413 6.77981 1.31638
7.53633 6.55393 7.42398
8.80577 3.40106 3.52765
3.22051 0 5.1096
4.21615 0.51534 4.47816
4.50728 5.82724 5.32357
7.62212 6.72072 9.76858
3.92973 2.38517 9.46642
1.12353 5.82279 6.79362
9.84519 5.79246 0.716668
5.42846 2.93023 0.532472
5.20689 7.2972 8.46299
9.37019 2.95718 0
1.95485 0.762767 8.30034
4.9783 0.106278 4.53103
4.99876 0.234293 4.48882
5.48976 0.774133 4.63256
5.17019 0.23084 4.71859
7.71137 0.961123 8.37595
9.45603 2.6845 4.48201
4.92626 0.0924783 4.68828
0.256305 0.589579 8.1428
4.69151 0.338931 4.85592
3.35042 5.18318 0.294633
5.68987 0.461706 4.37278
5.44808 0.471883 4.46509
8.18692 5.38103 1.71454
6.61608 6.29196 4.42552
5.9994 8.1279 9.86187
9.78732 1.43065 9.83542
1.9932 6.62624 2.421
4.49296 0.316851 4.33556
8.08864 9.57072 7.73097
7.14553 0.15803 6.73596
5.65228 7.98018 1.58081
8.13125 5.85646 3.84268
7.89846 0.540012 0.395148
1.35831 9.0551 8.34557
1.90137 1.05054 8.31435
7.03944 5.77918 5.20122
1.78579 0.588572 8.15888
5.55979 0.498219 4.46048
4.21967 0.389576 4.2089
4.43824 7.81377 1.13931
4.90403 0.157396 4.64692
9.38426 4.95882 7.90343
0.258756 2.78326 6.60363
5.3024 0.34071 4.40034
0.863009 7.45415 7.73303
1.50755 0.865435 0.430945
9.66967 4.10005 2.09251
8.66071 0 9.24127
9.54976 1.90031 4.97827
7.96519 1.68974 2.77379
0.333621 0.225499 9.14827
5.60826 0.403734 4.38404
4.53296 8.60986 9.13206
4.4382 9.3652 4.5278
4.3117 1.35123 5.70773
2.25618 7.30969 8.96245
9.20858 3.23048 1.94234
1.7356 0.976549 8.13727
5.14238 0.517099 4.79045
5.34359 0.498643 4.20134
9.70732 0.799231 4.53874
5.69441 0.114847 4.19323
5.75956 0.0308208 4.12027
2.37768 3.42483 7.32353
5.7233 0.324195 4.6366
5.30179 0.443062 4.09391
1.99105 8.55075 8.02417
8.51712 2.54361 8.55034
3.2165 2.04797 8.52309
5.25221 0.360411 4.68459
6.99017 1.32889 1.58682
0 3.64277 5.80567
5.6451 0.364648 4.70253
5.47884 0.777046 4.6642
9.14108 2.14792 3.94095
1.81131 0.907169 8.23118
1.87543 0.632681 8.22304
5.96667 0.441219 4.54068
5.1613 0.126701 4.8839
9.25614 2.30886 4.97769
1.73096 0.787807 8.18578
7.10508 6.66257 9.42272
1.62603 0.298936 7.99967
9.51531 0.898667 8.68237
9.69224 0.50107 4.76165
6.34894 0.26106 7.85204
9.93724 2.88802 3.14638
4.29214 0.420259 4.56616
4.89895 0.503576 4.52688
9.41281 0.108741 4.49578
1.72836 1.0721 7.99218
2.05832 0.646503 8.12852
1.94546 4.50031 8.52759
6.14697 0.326598 4.3303
5.17804 0.673493 4.38021
5.24647 0.277841 4.68675
7.29391 3.40367 0.334431
5.73593 0.884001 4.40881
0 6.17326 2.47423
1.90184 0.748206 8.26692
5.48868 0.325346 4.18575
5.43124 0.0727825 4.66972
1.51615 8.99776 7.41216
1.16361 0.166426 5.70129
5.35013 0.62904 4.35948
5.90371 0.359858 4.48748
1.60398 0.905807 7.7073
5.0746 0.798995 4.42882
2.10699 6.5819 6.43144
2.20051 0.992975 8.30928
5.37325 0.505865 4.46061
5.03901 2.51548 0.0697045
5.59058 7.1344 6.62747
5.20587 2.42143 0.834582
POINT_DATA 400
SCALARS particleColor float 3
LOOKUP_TABLE default
0.94479 1 0.0552098
1 5.96046e-08 0
0.368579 1 0.631421
1 0.6577 0
1 0.946844 0
1 0.747932 0
1 0.0869529 0
0.61051 1 0.38949
1 5.96046e-08 0
0.864428 1 0.135572
0.994375 1 0.00562489
1 5.96046e-08 0
0.0218166 1 0.978183
1 5.96046e-08 0
1 0.528662 0
1 5.96046e-08 0
1 5.96046e-08 0
0 0.248726 1
1 0.666795 0
0.841186 1 0.158814
1 0.700467 0
1 5.96046e-08 0
1 0.155343 0
1 0.321083 0
1 0.358738 0
1 5.96046e-08 0
1 5.96046e-08 0
1 5.96046e-08 0
0.466594 1 0.533406
0 0.546866 1
0.204784 1 0.795216
0 0.624407 1
1 0.424985 0
0.567498 1 0.432502
0.0223298 1 0.97767
0.346344 1 0.653656
0.550203 1 0.449797
0.0238932 1 0.976107
0 0.853406 1
0.723652 1 0.276348
1 0.991931 0
1 0.848159 0
1 5.96046e-08 0
1 5.96046e-08 0
0 0.659495 1
1 5.96046e-08 0
1 5.96046e-08 0
1 5.96046e-08 0
1 0.169311 0
1 5.96046e-08 0
1 5.96046e-08 0
1 5.96046e-08 0
1 0.273887 0
1 0.533493 0
1 0.729147 0
0.0506245 1 0.949376
1 0.605576 0
0.376472 1 0.623528
1 5.96046e-08 0
0.743503 1 0.256497
0.771313 1 0.228687
1 0.400687 0
1 0.381633 0
1 5.96046e-08 0
1 5.96046e-08 0
1 0.982067 0
0.627987 1 0.372013
0 0.62857 1
0.544151 1 0.455849
1 0.343014 0
0.587599 1 0.412401
0.326924 1 0.673076
1 0.080058 0
0.367747 1 0.632253
1 0.505678 0
0.563211 1 0.436789
1 5.96046e-08 0
1 0.933889 0
0 0.859866 1
1 0.736091 0
1 0.844281 0
0.456469 1 0.543531
1 0.446118 0
1 0.427273 0
0.952076 1 0.0479243
1 5.96046e-08 0
1 5.96046e-08 0
1 5.96046e-08 0
1 5.96046e-08 0
1 5.96046e-08 0
1 5.96046e-08 0
1 5.96046e-08 0
1 0.461646 0
1 0.857662 0
0 0.982697 1
0.558468 1 0.441532
1 0.589869 0
1 5.96046e-08 0
0.259464 1 0.740536
1 0.762895 0
0.468402 1 0.531598
0.510009 1 0.489991
1 5.96046e-08 0
0.941766 1 0.0582341
1 5.96046e-08 0
1 5.96046e-08 0
1 0.77053 0
1 0.477862 0
0.73464 1 0.26536
1 5.96046e-08 0
1 5.96046e-08 0
1 5.96046e-08 0
1 0.992803 0
1 0.00472605 0
0.953749 1 0.0462514
0.992942 1 0.00705791
1 5.96046e-08 0
0.582466 1 0.417534
0.94966 1 0.0503398
1 5.96046e-08 0
1 0.716439 0
0 0.354669 1
1 0.256611 0
1 5.96046e-08 0
1 5.96046e-08 0
0 0.897018 1
0.834292 1 0.165708
1 0.112631 0
1 5.96046e-08 0
1 5.96046e-08 0
0.827376 1 0.172624
1 0.114638 0
1 5.96046e-08 0
0.818155 1 0.181845
1 0.619734 0
0.443429 1 0.556571
1 5.96046e-08 0
0.100887 1 0.899113
0.280577 1 0.719423
0.121064 1 0.878936
0 0.477028 1
0.998003 1 0.00199711
0.446449 1 0.553551
1 5.96046e-08 0
1 5.96046e-08 0
1 5.96046e-08 0
0 0.893775 1
0.308738 1 0.691262
0.9083 1 0.0917005
0.366419 1 0.633581
0 0.104741 1
1 5.96046e-08 0
0.1167 1 0.8833
0.622867 1 0.377133
1 5.96046e-08 0
1 5.96046e-08 0
1 0.82206 0
1 0.289741 0
1 0.755787 0
1 0.0554994 0
1 0.721544 0
1 0.594734 0
1 5.96046e-08 0
0.876524 1 0.123476
1 5.96046e-08 0
0.567484 1 0.432516
0.666686 1 0.333314
1 0.365515 0
1 5.96046e-08 0
0.31482 1 0.68518
0.703142 1 0.296858
0.513466 1 0.486534
0 0.850781 1
1 5.96046e-08 0
1 5.96046e-08 0
0 0.906304 1
1 5.96046e-08 0
0.975456 1 0.0245443
1 5.96046e-08 0
1 0.751936 0
1 0.860785 0
0.803172 1 0.196828
0.0161123 1 0.983888
0.58262 1 0.41738
1 5.96046e-08 0
1 5.96046e-08 0
0 0.575297 1
1 0.502528 0
1 0.215723 0
1 5.96046e-08 0
0.472835 1 0.527165
1 0.598475 0
1 0.550114 0
0.384807 1 0.615193
1 0.773498 0
0.802111 1 0.197889
0.0131369 1 0.986863
1 0.0677285 0
0 0.278283 1
0.966742 1 0.033258
0 0.149058 1
0.072396 1 0.927604
0.556024 1 0.443976
1 0.679134 0
1 0.0310829 0
0.810095 1 0.189905
1 5.96046e-08 0
0.988504 1 0.0114956
0.696076 1 0.303924
1 0.489165 0
0 0.443055 1
0 0.552901 1
1 0.401533 0
0 0.693101 1
1 0.496652 0
0.46576 1 0.53424
0 0.571047 1
1 0.867696 0
1 5.96046e-08 0
1 0.531961 0
1 5.96046e-08 0
1 0.371765 0
1 5.96046e-08 0
0 0.488884 1
1 5.96046e-08 0
1 0.26608 0
0.317487 1 0.682513
0 0.564912 1
0 0.612977 1
1 5.96046e-08 0
0.428614 1 0.571386
0.624967 1 0.375033
1 0.266637 0
0 0.780289 1
1 0.854163 0
1 0.908021 0
1 0.970124 0
1 5.96046e-08 0
0 0.40913 1
1 0.17004 0
0 0.815923 1
0 0.616115 1
0.926678 1 0.0733216
1 0.833292 0
1 5.96046e-08 0
0.803819 1 0.196181
1 0.244846 0
1 0.0852572 0
1 5.96046e-08 0
1 0.262539 0
0 0.455313 1
0.0559638 1 0.944036
1 5.96046e-08 0
1 0.00522637 0
1 0.504695 0
0 0.738908 1
1 0.571767 0
0 0.286718 1
0.352304 1 0.647696
1 0.979759 0
1 5.96046e-08 0
1 0.235957 0
1 5.96046e-08 0
1 5.96046e-08 0
1 5.96046e-08 0
1 5.96046e-08 0
1 5.96046e-08 0
1 0.815984 0
1 0.757406 0
1 5.96046e-08 0
0 0.570138 1
1 5.96046e-08 0
0 0.892504 1
0.953224 1 0.0467758
1 0.452981 0
0.444527 1 0.555473
0.874441 1 0.125559
1 5.96046e-08 0
1 5.96046e-08 0
0.1347 1 0.8653
0.335047 1 0.664953
0 0.509074 1
1 5.96046e-08 0
1 0.217803 0
1 5.96046e-08 0
1 0.0325879 0
0 0.542652 1
1 5.96046e-08 0
1 0.99331 0
0.0927665 1 0.907233
1 5.96046e-08 0
1 0.923485 0
1 0.938361 0
1 5.96046e-08 0
1 5.96046e-08 0
0 0.358787 1
0 0.319559 1
0 0.570974 1
0.0457493 1 0.954251
0 0.482146 1
1 5.96046e-08 0
1 0.279411 0
0 0.704297 1
1 0.258932 0
0 0.570506 1
1 5.96046e-08 0
0 0.713566 1
0 0.197485 1
1 0.465305 0
0.941602 1 0.0583979
0.842376 1 0.157624
1 5.96046e-08 0
1 0.777031 0
0 0.820543 1
0.537284 1 0.462716
1 0.597474 0
1 5.96046e-08 0
1 0.932637 0
1 5.96046e-08 0
1 5.96046e-08 0
0.135397 1 0.864603
1 0.512951 0
0 0.350489 1
0 0.454188 1
0 0.983418 1
0.413539 1 0.586461
0 0.736234 1
1 0.551269 0
1 5.96046e-08 0
0 0.395618 1
0 0.999334 1
1 0.190884 0
1 0.371289 0
1 5.96046e-08 0
0 0.712941 1
1 5.96046e-08 0
0.454326 1 0.545674
0 0.34578 1
1 0.0152355 0
1 5.96046e-08 0
0.610321 1 0.389679
1 5.96046e-08 0
1 5.96046e-08 0
0 0.558349 1
0 0.623776 1
0.261336 1 0.738664
0 0.280257 1
0 0.505415 1
0 0.763197 1
0 0.940369 1
0 0.745178 1
0 0.612727 1
1 0.868261 0
1 0.484171 0
0.193362 1 0.806638
0 0.687415 1
1 0.135376 0
1 5.96046e-08 0
0 0.842385 1
0 0.137197 1
0 0.941248 1
0 0.35815 1
0 0.156348 1
0 0.511958 1
0 0.523478 1
0.492118 1 0.507882
0 0.44709 1
0 0.907558 1
0 0.42229 1
1 5.96046e-08 0
0.0812094 1 0.918791
1 0.346161 0
1 5.96046e-08 0
0 0.538939 1
0 0.857706 1
0 0.537859 1
0 0.225392 1
0 0.793474 1
0.789716 1 0.210284
0 0.816304 1
0 0.683006 1
0 0.365652 1
1 5.96046e-08 0
0 0.25111 1
0.531216 1 0.468784
0 0.267155 1
0 0.133269 1
0 0.681345 1
0 0.990571 1
0 0.770209 1
0 0.880977 1
0 0.967891 1
0 0.964639 1
0 0.588773 1
1 0.50934 0
0.346755 1 0.653245
0 0.967032 1
1 0.211651 0
0.922312 1 0.0776876
0.875995 1 0.124005
