# vtk DataFile Version 3.0
Particle simulation
ASCII
DATASET POLYDATA
POINTS 400 float
7.97908 8.22461 0.61846
6.01707 7.59396 3.20037
9.37626 5.84313 6.70363
9.06946 7.08527 8.51377
3.1166 8.00693 3.63394
9.79874 8.29967 2.1874
1.11287 9.30382 9.00095
2.60057 5.55867 4.05853
6.68133 7.71995 7.58222
7.96375 4.69896 1.15725
7.64578 2.43802 6.82729
2.54812 1.31719 4.22527
2.49372 6.61765 7.96994
6.57912 9.58891 4.72805
9.76701 5.96071 10
6.80274 7.35367 6.16939
9.54763 7.34773 8.96341
3.62815 0.716057 1.44185
1.06528 1.76109 6.23859
1.38726 7.4934 7.35399
3.55171 0.192342 1.47457
0 3.7566 3.32173
8.58088 3.34563 7.13483
0.173585 2.87065 1.75168
0.243071 4.48113 2.16185
9.19035 8.48047 2.40619
9.4322 7.63038 8.27583
7.06993 6.49883 8.52805
7.24327 6.68486 2.50856
0.720939 4.05891 2.87948
0.0392666 6.05855 10
5.78501 6.65743 0.306549
5.93522 8.98851 2.77199
3.29985 5.57502 3.61041
9.43892 2.4356 6.99968
8.55525 9.21108 7.27276
0.0844733 9.75915 2.42558
3.55207 0.467621 1.35936
9.19033 3.00466 2.16818
3.60023 6.24441 7.11198
5.0375 4.33053 9.79341
0.814562 7.79879 9.3236
4.88559 5.88443 4.26736
2.8177 0.980374 2.13334
7.12094 0.477706 0.744771
2.09583 6.46063 2.00805
6.29996 8.60738 6.9384
9.07575 2.59646 2.09545
5.29822 2.30537 3.27
9.01366 0 6.46766
5.42132 6.9058 5.34975
0.36834 6.31008 2.74621
9.68449 7.18222 4.73239
0.17995 7.08621 8.50787
3.67381 1.39125 9.03843
4.89821 0.578436 3.02544
0.868468 4.27583 2.18305
6.94347 9.0857 0.794537
1.09307 5.83011 4.89591
6.53966 7.15988 0.113308
10 5.29532 1.56268
0.225004 9.75012 2.94064
4.67979 0.941586 3.76153
8.96976 6.4746 3.33475
6.66654 0.199156 8.20992
0.997585 7.91785 3.30815
7.35038 2.04033 6.81521
7.65588 4.20213 4.65421
6.55193 5.70498 6.82632
0.827536 9.32484 7.84076
1.92422 7.55567 2.87718
3.11092 3.33932 1.61982
7.39319 0.146577 4.9276
4.00275 1.95668 6.72859
3.28096 2.32217 8.59396
3.93313 5.49454 8.50061
0.795186 7.78399 7.9077
2.57147 6.14551 1.31289
0.509668 5.17479 1.31479
3.27978 3.42404 4.52971
3.32374 0.515751 1.79703
2.91502 1.21576 4.17404
0.63873 0.816676 7.67497
5.89617 9.6529 8.14062
9.71552 1.87772 8.97238
0.652351 7.43143 7.237
3.01669 0 8.80307
7.55239 8.46863 6.64871
4.51266 0.924523 5.29198
2.76513 1.18713 1.74115
3.86704 0.483021 1.44081
2.42817 9.87056 3.58359
2.11722 10 8.15434
8.68424 5.67217 3.46391
1.45653 5.52584 4.12226
6.79703 4.3419 7.46025
3.61557 2.66342 3.16681
2.28547 8.26995 6.7825
6.36523 7.30877 0.811622
1.26048 9.2918 4.50035
3.10962 0.658646 2.51843
2.08951 4.67413 9.78651
5.70421 3.61298 0.137196
5.89822 1.78966 1.90227
7.82787 3.85129 3.70926
0.973653 1.06185 4.26071
9.02372 7.17061 1.88648
4.45251 7.80981 2.63384
9.32956 6.78553 9.21931
4.22925 3.16515 7.64045
4.15671 2.4811 8.03661
6.05915 2.82117 2.3774
2.23417 10 5.56824
4.50432 2.78206 7.12952
0.352203 0.50205 1.16381
6.66929 4.3457 0.526475
2.16905 0.938958 9.23311
9.21357 2.57678 7.09232
6.57318 1.13654 3.22009
9.07682 4.57195 5.98637
4.11129 0.292319 1.88701
6.67355 1.54633 10
7.00757 6.69282 8.30275
3.26216 4.40784 7.59938
10 5.66757 3.04401
2.87319 0.169384 1.89533
0.0786921 2.07992 9.67376
3.23534 4.04693 10
4.05693 1.93441 2.12458
1.3968 8.76891 7.07818
7.90455 8.29573 4.00952
6.80325 5.17575 2.24049
4.28332 0.75276 7.01326
4.84753 1.54648 1.50212
0.49132 0.416124 7.497
6.04517 3.27842 0
8.43384 0.205496 9.11689
4.30656 1.79195 6.9378
2.69687 1.88049 9.03011
2.1532 8.18165 1.26205
2.62684 0.159004 1.5243
9.11 8.6003 4.38317
7.26895 6.60232 7.43134
2.50751 3.09332 9.24307
0.279221 0.143872 1.16598
3.97945 3.55153 3.26013
5.54113 3.08108 9.93648
4.3721 8.89867 5.86251
1.69263 2.39425 0.768052
8.66745 5.33385 3.46956
3.19749 0.369033 1.55318
9.67704 8.08443 3.3368
8.60079 0 4.58495
3.52442 0.363201 1.4901
3.23919 7.20142 5.50747
5.56363 0.576138 2.82074
2.16111 8.81805 2.05476
1.55095 0.110643 1.20848
8.99131 9.33512 9.4257
3.25525 0.316589 6.32321
0 1.06763 3.95943
9.11802 5.04571 7.94598
4.30651 8.88933 5.09492
0.738679 0.642525 9.52175
2.513 1.5919 0
3.27501 3.80648 10
5.6183 8.03963 7.27868
8.59386 4.37343 3.73138
9.42223 0.848511 9.52971
8.34986 1.68011 6.63647
3.52616 0.675851 1.33355
1.84111 8.05066 3.95228
2.04756 1.09611 3.43082
2.51317 1.11553 4.14883
3.21047 1.25763 5.5116
8.98926 7.33856 8.95776
1.6925 1.63906 3.58581
7.83719 10 9.97141
9.7791 2.64336 8.04417
6.82658 3.03225 9.21691
2.93604 0.102628 1.64847
5.16938 8.76764 0.792333
5.79986 8.11468 6.98123
1.74867 7.55351 6.06139
3.66452 7.51277 7.30713
3.75645 4.54546 1.61309
2.79067 0.295308 1.28835
0.885924 4.26736 8.38714
4.84177 0.163179 0.994622
0.361308 0.510742 1.28245
3.23562 0.162013 1.55631
3.15467 0.47528 1.17124
8.73908 5.27709 7.70616
8.52405 7.65319 3.25528
9.57242 0.299429 6.58819
2.87048 0.21821 1.89445
9.6759 1.07103 6.00976
0.571578 4.61371 8.61222
3.46894 0.66127 1.14999
3.22583 0.392679 1.63847
3.27973 0.131373 1.37435
10 2.9294 3.73777
3.98319 9.28447 5.16648
8.19257 3.13371 3.77185
6.97889 4.72412 4.50369
2.83703 2.68443 9.32304
3.05117 0.438888 1.70761
5.97143 0.8961 3.04347
1.40147 1.29817 9.25928
9.22621 1.59551 4.80839
3.10673 0.155626 1.417
3.42123 0.294043 1.63089
4.63119 10 9.01717
6.03082 6.69206 0
5.9525 3.6197 6.3586
3.98956 1.18069 9.11334
3.39906 0.0643865 1.32881
4.87014 2.14377 2.65379
3.93362 6.68773 2.34798
5.19416 1.68016 1.18885
9.61996 5.61234 3.18759
2.41619 2.67523 8.0844
0.848516 5.21546 3.51647
3.6785 0.741481 1.0141
7.5892 3.47816 5.95414
4.50609 6.42247 8.80989
6.73024 9.88809 2.85532
2.89947 0.205753 1.25753
3.32674 0.178913 1.82585
9.33914 1.45504 3.6397
8.16175 4.93654 9.00084
9.13564 0.660503 9.72795
10 4.79994 10
3.19902 0.0826585 1.8286
2.08438 0.492901 9.30958
6.88893 9.77234 2.46929
5.83321 1.50509 3.12442
5.23156 7.39675 7.83063
3.07033 0.256857 1.95039
6.03836 8.15695 10
3.51654 0.278469 1.67674
2.55116 0.0464548 1.34779
3.49674 0.344143 1.95021
3.47859 0.0788188 1.70914
4.82919 1.03423 9.87992
3.17613 4.38892 9.80796
4.97499 1.28253 7.49001
6.38794 1.94235 0.18488
4.25116 9.35831 6.95446
0.486714 8.62346 5.36759
4.32808 0.434848 1.28561
0.49678 0 7.71507
2.51841 1.08378 8.10061
1.22808 7.81562 0.590859
8.53321 0.316862 0.880256
3.13158 0.363835 2.4102
1.42322 7.80767 0.638692
2.57445 0.459365 9.56443
0.963651 5.69522 8.21686
2.22739 0.625345 9.30674
3.57984 0.483313 1.90887
9.65348 8.51256 3.32018
8.16684 1.53476 4.39947
2.69506 1.23375 3.83312
2.17129 1.06893 8.77815
9.90001 6.7353 0.537111
7.32185 0.462575 1.5975
2.32075 0.811606 9.33859
0.772876 5.69757 8.42017
3.5691 0.355249 1.82884
4.07817 0.59863 1.45288
8.57126 5.50599 8.03449
2.54986 1.47064 4.6714
3.09631 9.62665 4.87662
7.04318 1.1815 0.925499
3.42739 1.10513 3.62807
9.69006 6.95111 1.34438
3.32754 7.44323 5.91039
1.97547 0.404894 3.90532
3.33914 0.395804 1.58997
2.72848 0.492941 4.47491
7.41763 0.495997 0.868822
6.46741 4.34305 3.33683
5.86491 0.132849 9.06127
9.35448 8.30588 7.8314
0.0127079 2.45485 6.026
3.00061 0.495138 1.54823
0.844088 1.25179 4.16049
10 8.29922 2.61879
4.82199 5.89387 1.284
1.02883 9.1398 2.51243
9.71718 0.782149 6.45665
3.04875 0.383526 1.15755
2.27429 0.195435 5.53
1.94561 1.12169 8.02073
2.30583 0.457522 8.83964
3.08685 0.289615 1.20466
3.13761 0.358152 1.31489
1.24249 1.69095 3.60922
3.44843 0.337336 1.33219
1.68925 0.335659 1.93357
8.1788 3.37238 3.63799
7.65399 0.634769 6.23726
2.21443 7.77829 0.834557
2.74414 0.387425 1.6724
2.51791 0.558793 4.98215
3.16752 0.276859 1.01895
3.40367 0.457891 1.59244
3.08743 0.130558 1.94962
9.4583 6.71594 1.5089
4.55007 1.39224 8.78351
6.18778 7.01745 10
1.8778 6.59238 8.4174
3.43702 0.357685 1.60665
8.92391 2.18018 9.33736
4.55637 0.334102 5.03133
2.25418 0.715251 5.36638
0.591244 5.55469 8.18061
6.13878 0.676463 5.54174
0.834286 7.89406 2.08501
2.44945 0.968919 8.92301
7.96118 8.42094 7.84249
2.43762 0.703792 9.4374
3.24482 0.313103 1.726
3.06137 0.392955 4.18504
7.06643 7.02588 0.804968
3.31526 0.14302 1.4536
6.29142 6.61553 1.36818
1.26603 3.34114 1.81652
3.46814 0.440572 1.75342
3.79965 0.0190406 4.92688
3.20497 0.154405 1.84183
3.92743 0.883777 9.50284
3.30853 0.290979 2.41581
7.332 0.331444 1.15371
0.445159 3.84154 3.10675
1.03091 5.77161 7.56545
3.40891 0.335117 1.70879
2.98168 7.45287 4.37299
8.64231 7.63464 9.96156
8.19992 3.68379 6.5693
9.68916 6.61369 9.40458
3.92712 0.910491 9.36409
2.18556 0.548683 9.29697
3.12271 0.302189 1.8106
3.08008 0.255711 2.01986
7.13999 0.116302 1.11682
3.49476 0.555521 1.82722
2.88691 0.398115 1.593
7.79249 8.90194 9.85842
3.28623 0 0.908752
3.37872 0.258237 1.60096
1.45741 1.47813 3.15061
2.30361 0.997309 8.81129
3.08858 0.270023 1.8283
3.33779 0.454933 2.07252
2.98148 1.36204 5.33041
4.06777 0.425056 9.50663
2.56686 0.105677 2.07272
3.31585 0.46666 1.42323
7.42673 0.306455 0.996801
2.1661 0.530528 9.31908
2.24737 0.585936 9.45883
3.38334 0.176638 2.28769
3.70052 0.337675 1.49514
7.12558 0.738663 0.566808
2.17388 0.44108 9.36997
0.906916 7.17379 1.26538
2.55957 0.674547 9.26903
0.533065 2.65038 6.94394
7.47929 0.35358 1.03991
2.90078 3.16609 5.64999
0.749325 0.850387 7.62629
3.62131 0.753758 1.68351
2.89839 0.250799 1.55667
7.04252 0.646823 1.03832
2.03861 0.699083 9.83322
2.24916 0.575674 9.33968
3.83646 0.842703 9.53118
3.52843 0.178618 1.90957
3.12333 0.562728 1.61448
3.59847 0.371316 1.28863
3.76598 0.810117 9.39743
3.7772 0.318612 1.58202
2.16111 1.52762 5.23932
2.49451 0.692275 9.17403
3.16505 0.283774 1.44576
3.32108 0.441909 1.66727
4.59754 0 1.23321
7.30387 0.201405 0.777969
3.13434 0.348429 1.54075
3.21239 0.186518 1.32319
2.28597 0.624457 9.2336
3.17078 0.267863 1.2487
2.37987 0.368946 5.3146
2.27098 0.700577 9.30382
3.1826 0.248436 1.34851
3.73219 0.156506 5.54082
7.88153 0 0.540627
7.43875 0.15814 1.09204
POINT_DATA 400
SCALARS particleColor float 3
LOOKUP_TABLE default
1 5.96046e-08 0
0.407764 1 0.592236
0.0174652 1 0.982535
1 5.96046e-08 0
1 5.96046e-08 0
0.379378 1 0.620622
1 0.230082 0
1 5.96046e-08 0
0.868138 1 0.131862
1 5.96046e-08 0
0.849937 1 0.150063
1 0.207444 0
0.654788 1 0.345212
1 5.96046e-08 0
1 5.96046e-08 0
1 0.962193 0
0.607773 1 0.392227
0 0.660306 1
0.528203 1 0.471797
1 5.96046e-08 0
0 0.528085 1
1 5.96046e-08 0
1 5.96046e-08 0
0.907448 1 0.0925518
1 5.96046e-08 0
0 0.200916 1
0.354238 1 0.645762
1 0.929673 0
1 0.262344 0
1 5.96046e-08 0
1 5.96046e-08 0
1 5.96046e-08 0
1 5.96046e-08 0
1 0.627963 0
1 5.96046e-08 0
1 5.96046e-08 0
1 0.474202 0
0 0.56736 1
0.0350059 1 0.964994
1 5.96046e-08 0
0.834523 1 0.165477
1 0.808213 0
0.595719 1 0.404281
0.705873 1 0.294127
0 0.700742 1
1 5.96046e-08 0
0.637467 1 0.362533
0.478426 1 0.521574
0.544571 1 0.455429
1 5.96046e-08 0
1 0.183379 0
0.279527 1 0.720473
0.193865 1 0.806135
1 5.96046e-08 0
1 5.96046e-08 0
0.0211394 1 0.978861
0.727333 1 0.272667
0.949581 1 0.0504189
0.8114 1 0.1886
0.356792 1 0.643208
1 5.96046e-08 0
0.892227 1 0.107773
1 0.903903 0
0 0.633925 1
0.608615 1 0.391385
1 5.96046e-08 0
0.479006 1 0.520994
1 5.96046e-08 0
0.655109 1 0.344891
1 0.149843 0
1 0.876422 0
0.435857 1 0.564143
0.332297 1 0.667704
0.722313 1 0.277687
1 5.96046e-08 0
1 5.96046e-08 0
0.383777 1 0.616223
1 5.96046e-08 0
0 0.725626 1
1 5.96046e-08 0
0 0.572708 1
1 0.34914 0
0.916925 1 0.0830752
1 5.96046e-08 0
0.184247 1 0.815753
1 0.643809 0
1 5.96046e-08 0
1 0.466788 0
0.188815 1 0.811185
1 5.96046e-08 0
0 0.46095 1
0.288651 1 0.711349
0.541554 1 0.458446
1 5.96046e-08 0
1 0.295303 0
0.321543 1 0.678457
1 5.96046e-08 0
0 0.940832 1
0.913431 1 0.0865692
0.89464 1 0.10536
0 0.346506 1
1 0.935838 0
0.73594 1 0.26406
1 0.94092 0
1 5.96046e-08 0
1 0.155678 0
1 5.96046e-08 0
0.276393 1 0.723607
1 0.760201 0
1 0.235476 0
1 5.96046e-08 0
1 5.96046e-08 0
1 5.96046e-08 0
1 5.96046e-08 0
0 0.667825 1
1 0.656542 0
0 0.19662 1
0.637502 1 0.362498
0.125973 1 0.874027
1 0.230852 0
1 5.96046e-08 0
1 5.96046e-08 0
1 5.96046e-08 0
0.41225 1 0.58775
0 0.907538 1
0 0.86185 1
0.278517 1 0.721483
0 0.860122 1
1 0.642209 0
1 0.336346 0
0.466431 1 0.533569
1 5.96046e-08 0
1 5.96046e-08 0
1 0.583282 0
0 0.849129 1
1 0.597518 0
0.72209 1 0.27791
0 0.672483 1
1 5.96046e-08 0
1 0.68514 0
0 0.52468 1
1 0.262151 0
1 5.96046e-08 0
1 5.96046e-08 0
0 0.988345 1
0.616502 1 0.383498
0.925401 1 0.0745987
1 0.782839 0
0.40608 1 0.59392
0 0.619688 1
0 0.819054 1
1 0.763728 0
1 0.510044 0
0 0.761643 1
1 5.96046e-08 0
0 0.362317 1
0.448589 1 0.551411
0.796343 1 0.203657
0 0.92323 1
0.610931 1 0.389069
1 5.96046e-08 0
0 0.58884 1
0.176351 1 0.823649
0.324075 1 0.675925
0.453852 1 0.546148
1 5.96046e-08 0
0.0915507 1 0.908449
1 0.59501 0
1 0.920197 0
1 5.96046e-08 0
0 0.405655 1
0 0.666845 1
0.564577 1 0.435423
0.666088 1 0.333912
0 0.661845 1
1 0.923074 0
1 0.696509 0
0 0.934955 1
1 5.96046e-08 0
0.866132 1 0.133868
0 0.539922 1
0.38965 1 0.61035
0 0.910386 1
0 0.909386 1
1 5.96046e-08 0
1 5.96046e-08 0
0 0.553019 1
0.402045 1 0.597955
0 0.630026 1
0.0065575 1 0.993442
0 0.592001 1
0 0.463453 1
0 0.883067 1
1 5.96046e-08 0
1 0.120121 0
0 0.731685 1
1 0.467857 0
1 0.604138 0
0 0.826343 1
0 0.666165 1
0 0.724444 1
0.530137 1 0.469863
0.894096 1 0.105904
0 0.8983 1
1 5.96046e-08 0
0.38784 1 0.61216
0 0.7297 1
1 0.975358 0
0 0.97735 1
1 5.96046e-08 0
0 0.487979 1
0 0.56156 1
1 5.96046e-08 0
1 5.96046e-08 0
0.212534 1 0.787466
0 0.797787 1
0 0.46303 1
0 0.842374 1
0.51376 1 0.48624
0.42368 1 0.57632
1 5.96046e-08 0
0 0.82811 1
1 0.878277 0
0 0.615347 1
1 0.701483 0
1 5.96046e-08 0
1 0.866042 0
0 0.76278 1
0 0.741697 1
1 0.996481 0
1 5.96046e-08 0
1 0.74814 0
1 5.96046e-08 0
0.0623804 1 0.93762
0 0.679159 1
0.642035 1 0.357965
1 0.3462 0
0.994849 1 0.00515056
0 0.661673 1
1 5.96046e-08 0
0 0.650084 1
0 0.676579 1
0 0.795476 1
0 0.682473 1
0.304946 1 0.695054
0.395393 1 0.604607
0 0.758938 1
0 0.783184 1
0 0.854257 1
0.895799 1 0.104201
0 0.389437 1
1 5.96046e-08 0
0 0.831773 1
0.296361 1 0.703639
0 0.423067 1
0 0.458488 1
1 0.995113 0
0 0.635137 1
0 0.855121 1
0 0.559549 1
0 0.462416 1
1 5.96046e-08 0
0 0.915409 1
0.134232 1 0.865768
0 0.461388 1
1 0.846743 0
0 0.568691 1
0 0.573533 1
0.581158 1 0.418842
0 0.811262 1
0 0.200777 1
0 0.898585 1
1 5.96046e-08 0
0.0966064 1 0.903394
0 0.626307 1
0.0475308 1 0.952469
0 0.479571 1
1 5.96046e-08 0
1 5.96046e-08 0
0 0.481739 1
0 0.659732 1
0 0.56744 1
1 0.925028 0
0.342253 1 0.657747
0.614103 1 0.385897
1 5.96046e-08 0
0 0.627784 1
0 0.952853 1
1 5.96046e-08 0
1 5.96046e-08 0
1 5.96046e-08 0
0 0.274734 1
0 0.752552 1
0 0.869035 1
0.0679809 1 0.932019
0 0.352229 1
0 0.184106 1
0 0.904834 1
0.483985 1 0.516015
0 0.623727 1
0.212148 1 0.787852
0.0383532 1 0.961647
0.180168 1 0.819832
0.579958 1 0.420042
0 0.318194 1
0 0.586009 1
0 0.148828 1
0 0.739484 1
0.720166 1 0.279834
0.00163019 1 0.99837
1 5.96046e-08 0
1 0.729884 0
0.565662 1 0.434338
0 0.729329 1
0 0.801087 1
0.10674 1 0.89326
0.155999 1 0.844001
0.985249 1 0.0147509
0 0.80034 1
0.0344749 1 0.965525
0 0.746245 1
1 0.415566 0
0 0.64865 1
0 0.957964 1
0 0.570597 1
0.70796 1 0.29204
0.026353 1 0.973647
0.912272 1 0.0877281
1 0.209988 0
0 0.411073 1
0.788571 1 0.211429
0.220567 1 0.779433
0 0.947322 1
0.0303885 1 0.969611
0 0.460952 1
1 5.96046e-08 0
0 0.620517 1
0 0.445597 1
0.97877 1 0.0212299
1 0.993462 0
1 0.376783 0
1 0.914335 0
0 0.492527 1
0 0.513107 1
0 0.371757 1
0 0.524279 1
0.18411 1 0.81589
0 0.46196 1
0 0.838952 1
0.367166 1 0.632834
0 0.477253 1
0 0.686223 1
0 0.473194 1
0 0.624671 1
0.0863192 1 0.913681
0 0.846774 1
0 0.799695 1
0 0.464585 1
0 0.57134 1
0 0.813275 1
0 0.360054 1
0 0.526607 1
0 0.516635 1
0 0.723232 1
0 0.852669 1
0 0.778586 1
0 0.797059 1
1 0.831786 0
0 0.796191 1
1 5.96046e-08 0
0 0.436574 1
1 0.155973 0
0.469287 1 0.530713
0 0.184048 1
0.0564618 1 0.943538
0 0.476074 1
0 0.48598 1
0.153276 1 0.846724
0 0.701736 1
0 0.733191 1
0 0.737528 1
0 0.769582 1
0 0.618916 1
0 0.666357 1
0 0.907505 1
0 0.836421 1
0 0.640934 1
0 0.324887 1
1 0.190875 0
0.186954 1 0.813046
0 0.913631 1
0 0.702692 1
0 0.781125 1
0 0.585497 1
0 0.917296 1
0 0.697149 1
0 0.496234 1
0 0.90796 1
0 0.779728 1
0.047017 1 0.952983
