# vtk DataFile Version 3.0
Particle simulation
ASCII
DATASET POLYDATA
POINTS 400 float
1.24199 0.373874 9.35021
2.08112 2.39809 6.9933
8.38714 10 9.75908
5.23255 3.39831 3.85862
9.37533 1.68372 9.90282
5.6981 6.91659 1.67236
5.9075 5.55227 5.04931
7.96713 4.0216 4.1831
6.47958 2.01145 1.09098
1.41681 0.714644 7.8335
4.45076 1.93194 3.97878
8.04662 2.96004 9.03001
6.43594 3.8033 3.34612
0.969185 1.86509 5.15998
1.10688 2.46316 4.27459
4.03178 2.95357 6.79908
3.42477 4.53284 2.56987
3.21726 0.232758 0.81441
8.35622 4.70928 9.4052
9.9091 0.294985 3.91015
3.22715 0.487477 1.11536
6.6706 3.28375 9.23992
2.07367 4.44845 3.8904
3.26109 7.82089 0
9.95629 2.04273 5.94875
2.08948 4.57517 9.37517
9.62473 2.2448 0.774957
0.213697 0.597507 9.0404
5.78957 6.81483 0.813098
6.58542 2.64375 9.0004
2.6647 3.27704 3.33577
0.792076 6.58058 4.72818
0.176149 8.72584 8.39352
8.95785 1.86885 3.20129
9.35242 7.28473 5.58224
4.25309 5.82158 7.25103
5.54455 0.722249 9.217
3.35965 0.265104 1.08368
7.21907 2.70123 1.2549
1.59025 2.08688 8.62629
8.98263 3.87336 3.78433
7.05931 3.26 8.78851
8.05937 5.96277 6.07251
8.16688 9.53279 6.68325
9.67066 0.4016 4.58039
5.49218 0.367452 0.978219
6.78113 5.21348 7.11234
7.11011 2.35237 6.93599
5.79404 0.594111 0.664167
0 2.29179 9.48622
4.063 5.57819 5.87556
4.94455 0.143914 1.82917
7.8272 0.823494 4.9978
6.93451 2.66298 4.5644
5.34291 2.00322 7.87702
5.38959 0.413744 0.889789
8.84813 2.34261 3.85393
0.342516 1.09844 6.4041
6.30992 1.49912 1.44805
4.16868 2.42238 1.10828
1.65963 2.6553 7.67029
3.61253 4.09601 4.14612
8.30242 2.6424 7.05072
0.822618 1.0298 9.58234
3.71639 6.49701 3.33222
1.33605 0.168607 9.40613
1.27262 2.05193 8.64283
4.80197 2.81143 0.508723
6.36164 1.2635 1.39111
4.86269 0.679875 9.50042
9.81526 0.229495 6.35262
3.15589 0.629827 2.62144
8.08864 5.96046 6.16747
0.566777 0.824917 9.68544
1.11471 1.83111 9.10557
9.15259 5.56807 8.64456
3.36502 0.452243 7.31859
4.66405 0.505804 8.48932
0.84719 3.4718 1.28223
7.72897 1.50356 8.67029
3.4289 0.6323 1.29243
5.02732 1.09786 4.11476
1.70957 1.42066 4.5076
3.66184 0.226254 1.05916
0.106121 0.544755 7.82972
2.03726 0.359987 8.00447
5.57536 5.35779 4.93928
4.20476 0.298976 6.59775
0.369079 8.40162 2.13383
6.87662 0.39278 0.548399
3.43072 0.210719 1.70246
2.80884 0.253167 1.59942
1.73865 2.22853 8.56638
2.87962 0.959646 4.44157
0.908665 0.959635 9.30742
1.51842 3.07253 0
8.01562 7.01305 1.36953
3.98625 5.54754 6.41196
5.63265 4.17991 4.6693
6.93126 0.256168 0.887338
3.3598 0.406544 1.05431
3.5867 2.59681 3.80908
4.16752 0.62381 5.27208
4.76011 5.70409 7.71842
4.20117 2.59599 6.66018
1.29718 0.426621 1.16483
9.65383 0.502958 9.77215
5.62813 0.393185 0.939546
4.63553 1.13103 1.08897
8.04484 9.72911 9.29177
6.59248 9.61964 0.106503
2.72109 0.102359 8.32664
9.16718 5.13681 0.424501
4.58337 0.752827 0.542569
3.84256 0.315519 0.629191
1.21396 0.569219 4.84318
5.71896 0.624699 8.44925
9.38068 1.64584 2.84735
9.79076 0.270296 6.2626
3.56968 9.63244 3.50395
3.68375 0.534461 1.22895
6.22884 1.61633 6.9624
7.80966 7.88383 1.25263
4.86571 4.92943 9.11012
5.54565 1.82402 8.12766
3.62224 0.430441 0.977172
7.62124 4.27154 3.27718
1.03046 1.16114 9.68439
0.547253 0.298717 9.52661
1.48408 7.25606 6.80186
3.82239 0.691546 1.58527
4.57128 3.73924 9.54137
6.75442 5.75601 5.9595
5.44674 0.104166 7.60256
0 9.02229 8.67701
1.02159 1.21248 1.26457
6.56907 7.68774 7.5621
1.24525 1.093 9.31237
6.82612 0.548855 7.24764
4.96398 0.674875 8.5056
3.24398 0.311447 1.39879
4.92389 4.86467 8.66686
2.9549 2.46758 8.21118
7.86823 1.41873 8.75292
3.17595 0.672831 1.16865
4.96737 1.17943 4.1138
9.61557 0.560246 4.23173
0.831715 0.770074 0.825508
3.38057 0.735974 2.53832
3.08006 2.09725 8.62822
3.1519 0.391965 1.4046
7.32954 2.05957 6.20827
1.60204 0.241804 9.48601
0.89794 2.22697 8.84589
5.01839 6.58327 6.85943
5.68727 0.269213 1.40306
9.49134 0.304484 4.09949
4.64795 0.773278 0.364865
8.64513 2.68533 5.76272
3.49086 1.93944 1.26563
5.65885 0.986728 0.484255
3.37234 1.51488 5.83108
5.97037 0.82786 9.64609
1.94529 0.517407 0.253275
2.08338 2.22489 0.408193
9.87894 1.51263 8.01555
5.88055 0.259998 7.06071
5.24177 0.272889 8.23435
3.65242 8.26977 3.79642
3.71513 2.02022 3.58739
3.41466 0.286433 1.39972
5.29803 0.895936 2.03139
5.27157 4.30755 3.42655
0.622586 0.101196 0.0166401
3.23982 0.202678 4.71525
8.66252 5.5483 0.494496
2.30297 0.19187 8.36571
3.27627 0.419034 7.23406
1.24606 0.499791 9.20898
2.15351 1.36058 0
3.26423 0.0971702 0.971212
7.35306 8.64183 7.63778
2.48295 1.84713 0.684663
4.28792 0.718988 0.771264
5.74611 0.50961 7.68211
5.01352 0.922331 0.411685
3.62447 0.312602 1.53222
8.54035 5.07917 5.54836
9.80896 0.265832 4.00846
3.03952 0 1.33597
3.09149 0.143995 1.15861
3.1954 0.127573 1.06945
1.44335 1.45996 6.35463
0.708333 0.943305 0.664779
4.62214 7.7274 4.27874
3.52694 0 1.2504
3.06959 0.443952 4.53997
0.815124 2.95908 2.92449
3.34101 0.323022 1.12092
3.53965 0.436721 0.963256
3.52588 0.307261 1.67641
5.39737 0.752109 0.958506
9.51055 0.673761 3.9241
2.27516 0.508218 8.11175
7.0183 8.39349 7.5583
5.22512 0.286955 8.26661
3.03767 0.0727013 1.06186
3.2857 0.698137 9.01996
0.86782 0.763435 4.06677
6.92011 0.24263 0.822215
3.63855 0.128163 0.784541
4.05974 0.566254 0.648534
9.56295 3.98738 9.06944
6.15061 1.19223 8.39184
0.543603 1.40243 9.08603
5.20653 0.632659 8.74738
3.12083 0.421245 1.02659
3.19478 0.255041 0.824282
1.94678 4.47002 9.39977
6.85014 0.520133 0.663165
2.17468 5.05326 5.82739
9.82919 1.62782 8.8421
4.61433 0.451142 7.91715
3.09816 0.106441 1.27098
5.4306 0.484265 8.08124
2.73965 0 1.46829
8.58176 6.56461 0.345309
3.41809 0.142287 0.953233
3.16078 0.723515 1.58045
7.87804 0.76449 5.32835
3.58278 1.46022 5.75663
5.9251 0.152173 7.54874
9.38542 0.366645 4.22936
3.32038 0.126028 0.595964
5.01724 0.301931 8.43649
1.19359 1.1839 4.17939
1.71186 0.652142 8.16611
3.62962 0.909952 5.38983
3.56247 0.0193221 1.0259
6.42579 0 2.61234
3.23955 0.644837 1.13107
3.3626 0.328944 1.80378
2.93855 0.679543 1.07863
3.43 0.252257 1.07089
5.04528 0.400766 8.68171
1.39392 0.589372 1.22267
1.57169 1.17421 4.83175
5.51687 1.7206 8.0045
2.27785 0.196986 0.313398
5.3582 0.511809 8.23327
3.08635 0.456493 1.06558
6.99372 5.23265 6.1012
5.56572 0.409919 7.90855
4.11333 0.754099 5.15227
9.48323 0.139057 4.40385
2.91013 0.44882 1.13952
6.64433 1.79469 0.721902
4.96206 0.62743 8.0566
5.57097 0.510956 2.92485
5.34895 0.56537 7.96939
3.29693 0.100068 1.3333
8.17273 1.40942 3.26161
2.32685 0.365535 8.21374
3.28069 2.02081 1.11613
5.42686 0.693544 8.49
9.78093 1.40383 5.34802
4.67509 0.174182 1.12273
4.81152 0.638069 8.39327
9.68102 0.141377 4.38372
3.11205 0.141772 1.04692
3.45277 0.0838232 0.948995
5.13688 0.982222 0.816976
4.36975 0.774506 1.78138
3.87335 0.479203 5.33726
5.37722 0.506661 9.02127
5.34642 0.307791 8.21657
2.87874 2.6222 8.30506
0.750487 9.85764 6.25029
0.645181 0.586387 4.08008
3.08032 0.379732 1.33151
7.08233 0.376036 1.24146
5.50094 0.857072 1.09707
2.77309 3.72022 4.65957
2.69096 0.129182 8.64809
8.91878 5.17117 7.62505
9.2031 0.0548164 4.40784
3.61617 0.415976 1.10425
4.92159 0.87938 4.06681
6.07466 0.992943 9.8082
2.52253 7.47612 5.73557
9.64318 0 1.03104
5.32729 0.551289 1.28934
3.00113 0.643264 1.24375
1.00908 0.956939 9.49135
5.4487 0.538358 8.64543
5.30837 0.66873 8.73698
3.3358 0.588555 1.40796
3.24496 0.483241 1.14376
4.61474 1.09133 3.89065
3.268 0.432086 1.34076
6.15744 0.465217 0.421992
5.38499 1.9012 7.66097
2.47715 2.91882 8.46461
5.50078 0.916026 3.11591
3.16265 0.224912 1.02972
0.744278 0.267079 9.08144
3.59349 0.594545 0.602243
3.06095 0.274963 1.31795
1.43888 0.619767 8.35845
3.67273 0.676152 5.24443
5.40768 0.052435 8.03411
7.15546 2.05044 6.37039
9.66419 0.22713 4.21083
3.08808 0.640086 1.77633
4.99511 1.12703 4.34306
1.22551 1.05118 9.24364
5.3646 1.13239 0.839524
5.40192 0.518016 3.04384
6.46609 1.44535 1.37541
3.16387 0.650118 2.42251
5.81243 0.620746 8.00123
1.57991 0.935983 4.62054
5.64874 0.623846 8.39799
3.81627 0.304813 1.32981
7.07129 0.456184 1.18006
6.95503 0.315923 0.797477
3.60059 0.330636 1.42587
5.59255 0.749542 1.23441
4.97014 0.726324 2.32038
2.63056 0.462627 1.2261
9.76079 1.95891 8.3099
3.3602 0.159263 0.886503
5.41036 0.441499 8.64686
3.26894 0.342093 0.673253
5.14999 0.385199 0.773121
8.92005 5.30261 7.70698
5.75701 0.693646 2.90691
3.05985 0.0605147 1.29599
5.74196 1.62839 1.67402
3.37092 0.127633 4.74565
5.32419 0.178542 8.21492
3.44441 0.360138 4.26571
5.35911 0.544734 8.40672
5.55269 0.692314 8.40177
3.58648 0.0951829 1.37369
3.5449 0.264301 0.931984
5.53675 0.951269 1.05187
2.95135 0.0645935 1.1762
3.28438 0.0534909 0.563325
3.43536 0.331487 4.57428
2.64916 0.249222 0.956709
3.19944 0.494521 1.28551
6.05553 0.533058 9.48621
5.80694 0.669638 8.0771
3.82654 0.0564484 1.46179
3.61022 0.0553594 1.31775
5.5238 0.587135 0.864526
5.01086 0.439482 8.60655
3.862 0.28471 1.35421
3.43983 0.175171 0.905339
5.75008 0.397514 0.602331
5.75435 0.667112 8.2714
5.58931 0.806775 8.63425
3.40819 0.194452 1.04832
4.23773 0.401856 1.2134
9.23592 0.191575 4.31098
4.99637 0.416034 8.4683
4.97597 0.842652 8.61406
5.18355 0.564399 8.53088
4.46264 0.835541 0.832379
5.69533 0.412687 0.616276
7.14732 2.09261 6.38267
5.55956 0.62813 8.70303
2.83537 0.555267 1.53309
3.51375 0.211446 1.5328
9.45737 0.274426 4.08615
5.6402 0.746746 8.51833
5.53963 0.389489 8.3543
5.727 0.433912 8.00099
3.16819 0.190366 1.06224
3.15792 0.155121 1.60535
3.54551 0.139794 1.11798
5.77475 0.606438 7.80353
3.28904 0.405657 0.715021
0.994726 1.1314 9.63612
5.43828 0.683937 8.59296
3.13481 0.178534 1.2156
3.19403 0.552515 0.959734
9.11312 2.44289 5.1782
5.60779 0.557297 0.84565
3.25818 0.251597 1.64454
3.22709 0.151656 1.38278
5.93557 0.367134 8.49525
3.50885 0.264781 1.17077
1.11492 1.18225 9.40725
5.62018 0.566703 8.40462
3.14881 0.212421 1.1543
3.24263 0.356416 4.68744
6.97609 0.287335 0.756518
5.62591 0.572467 0.804546
POINT_DATA 400
SCALARS particleColor float 3
LOOKUP_TABLE default
0 0.484858 1
1 0.96053 0
1 5.96046e-08 0
1 0.422691 0
1 0.140667 0
1 5.96046e-08 0
0.297326 1 0.702674
0.310868 1 0.689132
0.0952999 1 0.9047
0.0382394 1 0.961761
0.630313 1 0.369687
1 0.50176 0
1 5.96046e-08 0
0.0200422 1 0.979958
1 5.96046e-08 0
1 5.96046e-08 0
1 0.804717 0
0 0.348439 1
0 0.887698 1
0 0.681591 1
0 0.415641 1
0 0.932716 1
1 5.96046e-08 0
1 0.5832 0
1 0.67702 0
0.429259 1 0.570741
1 0.784353 0
0.188101 1 0.811899
0.752075 1 0.247925
0.391993 1 0.608007
0 0.761304 1
0 0.867348 1
0.0533489 1 0.946651
0.808417 1 0.191583
1 0.303344 0
1 5.96046e-08 0
0.358259 1 0.641741
0 0.77045 1
0 0.747594 1
0.201788 1 0.798212
1 0.887712 0
1 0.942097 0
1 0.531692 0
1 5.96046e-08 0
0 0.56688 1
0 0.214856 1
0.676281 1 0.323719
0 0.985276 1
0 0.279475 1
1 5.96046e-08 0
0.57461 1 0.42539
1 5.96046e-08 0
0.0261549 1 0.973845
1 0.0144537 0
0 0.713606 1
0 0.722435 1
0.256243 1 0.743757
0 0.816471 1
0 0.65278 1
1 0.728746 0
1 5.96046e-08 0
1 0.892081 0
1 0.678149 0
0 0.906917 1
0 0.949973 1
0 0.74167 1
0.11993 1 0.88007
0.0166301 1 0.98337
0 0.691551 1
0 0.836526 1
0 0.920306 1
0 0.221369 1
0.417787 1 0.582213
0 0.516086 1
0 0.978655 1
1 5.96046e-08 0
0 0.678832 1
0 0.953669 1
0.352764 1 0.647236
1 0.809327 0
0 0.213539 1
0.127687 1 0.872313
0 0.648934 1
0 0.713356 1
0 0.605923 1
0 0.771716 1
0.762801 1 0.237199
1 0.27759 0
0.0530732 1 0.946927
0 0.496679 1
0 0.219342 1
0 0.791436 1
0 0.347614 1
0 0.166485 1
0 0.891548 1
1 5.96046e-08 0
0.90447 1 0.09553
1 0.431069 0
1 5.96046e-08 0
0 0.254817 1
0 0.32383 1
0.641527 1 0.358473
0 0.905064 1
1 0.789507 0
1 0.444322 0
0 0.299442 1
0 0.829602 1
0 0.826857 1
0 0.594878 1
1 0.0691656 0
0.371111 1 0.628889
0 0.859458 1
0.292398 1 0.707602
0 0.0672639 1
0 0.239459 1
1 0.668178 0
0 0.622701 1
0 0.383991 1
1 0.817247 0
1 0.0167602 0
0 0.486225 1
1 0.915758 0
1 5.96046e-08 0
0 0.858635 1
0 0.460757 1
0 0.854992 1
1 5.96046e-08 0
0 0.585082 1
0.0176842 1 0.982316
0.308335 1 0.691665
0 0.686627 1
0.69506 1 0.30494
0.224777 1 0.775223
0.0898101 1 0.91019
0.902999 1 0.0970013
0 0.761377 1
0.814513 1 0.185487
0 0.567445 1
1 5.96046e-08 0
0 0.356179 1
0 0.639331 1
0.723652 1 0.276348
0.434281 1 0.565719
0.480973 1 0.519027
0 0.456011 1
0 0.400345 1
0 0.558685 1
0.275601 1 0.724399
0 0.565264 1
1 5.96046e-08 0
0 0.837299 1
0 0.256355 1
0 0.506389 1
0.994634 1 0.00536567
0 0.911038 1
0 0.42718 1
0.463403 1 0.536597
0 0.779216 1
0.862999 1 0.137001
0 0.554725 1
0.362309 1 0.637691
0 0.85625 1
0 0.717565 1
0.30168 1 0.69832
1 0.123691 0
0 0.413515 1
0 0.940109 1
0 0.751115 1
1 5.96046e-08 0
0.547559 1 0.452441
0 0.751509 1
0.188684 1 0.811316
0.082836 1 0.917164
0 0.621866 1
0 0.438378 1
0.57547 1 0.42453
0 0.463948 1
0.0395707 1 0.960429
1 0.91204 0
1 0.305082 0
0 0.683954 1
1 0.33771 0
0.0628868 1 0.937113
0 0.648857 1
0 0.747944 1
0 0.546535 1
0 0.231112 1
1 5.96046e-08 0
0 0.921751 1
0 0.233233 1
0 0.347152 1
0 0.420884 1
1 0.175362 0
0.123229 1 0.876771
1 5.96046e-08 0
0 0.738215 1
0 0.444038 1
1 5.96046e-08 0
0 0.37611 1
0 0.954713 1
0 0.463693 1
0 0.28069 1
0 0.985953 1
0 0.476655 1
1 0.378722 0
0 0.207652 1
0.111742 1 0.888258
0.762242 1 0.237758
0 0.929653 1
0 0.399104 1
0 0.381382 1
0 0.623539 1
1 0.645169 0
0 0.697201 1
0 0.726169 1
0 0.506265 1
0 0.843537 1
0 0.970647 1
0.725283 1 0.274717
0 0.444104 1
0.779452 1 0.220548
0 0.623068 1
0 0.329502 1
0 0.796693 1
0 0.858822 1
0 0.443944 1
0.349272 1 0.650728
0 0.509989 1
0 0.300574 1
0 0.818602 1
0 0.597416 1
0 0.138247 1
0 0.612632 1
0 0.277385 1
0 0.529253 1
0 0.937841 1
0.0210672 1 0.978933
0 0.546163 1
0 0.512595 1
1 5.96046e-08 0
0 0.608955 1
0 0.515255 1
0 0.930415 1
0.153758 1 0.846242
0 0.709378 1
0 0.617519 1
0 0.412311 1
0.81759 1 0.18241
0.321165 1 0.678835
0.0593689 1 0.940631
0 0.633762 1
0.317624 1 0.682376
0 0.276094 1
0 0.750563 1
0 0.732894 1
0 0.473046 1
0.174361 1 0.825639
0 0.708338 1
0 0.909818 1
0 0.266247 1
0 0.905426 1
0 0.748274 1
0 0.388121 1
1 5.96046e-08 0
0 0.929071 1
1 5.96046e-08 0
0 0.833733 1
0 0.327808 1
0 0.335747 1
0.376991 1 0.623009
0 0.952182 1
0 0.914034 1
0 0.732343 1
0 0.382898 1
0 0.948358 1
0 0.688478 1
0 0.531189 1
1 0.421537 0
0.163228 1 0.836772
0 0.228285 1
0 0.199213 1
0 0.570324 1
1 5.96046e-08 0
0 0.546475 1
0 0.917679 1
0 0.777155 1
0 0.426892 1
0 0.803703 1
0.0498929 1 0.950107
1 0.531687 0
0 0.206721 1
0 0.842607 1
0 0.812463 1
0 0.566625 1
0 0.868466 1
0 0.48586 1
0 0.68004 1
0 0.760477 1
0 0.514852 1
0 0.791347 1
0.264666 1 0.735334
0 0.539414 1
0 0.682939 1
0.550327 1 0.449673
0 0.966137 1
0.296795 1 0.703205
0 0.871471 1
0 0.685884 1
0 0.396595 1
0 0.49389 1
0 0.506096 1
0 0.42642 1
0.119714 1 0.880286
0 0.263626 1
0.10276 1 0.89724
0 0.252615 1
0.262113 1 0.737887
0 0.70157 1
0.14179 1 0.85821
0 0.359526 1
0 0.521961 1
0 0.390593 1
0 0.882331 1
0 0.821968 1
0 0.454588 1
0 0.323508 1
0 0.566007 1
0 0.577029 1
0 0.649298 1
0 0.788705 1
0 0.7246 1
0 0.577123 1
0 0.69334 1
0 0.882986 1
0 0.676928 1
0 0.854373 1
0 0.652922 1
0 0.565432 1
0.229312 1 0.770688
0 0.566418 1
0 0.581296 1
0 0.601573 1
0 0.937833 1
0 0.970864 1
0 0.262983 1
0 0.583402 1
0 0.602246 1
0 0.555561 1
0 0.39962 1
0 0.62922 1
0 0.626249 1
0 0.683253 1
0 0.397144 1
0 0.68101 1
0 0.646579 1
0 0.645577 1
0 0.980604 1
0 0.491395 1
0 0.475622 1
0 0.637586 1
0 0.381928 1
0 0.486798 1
0 0.61412 1
0 0.183748 1
0 0.731206 1
0.078007 1 0.921993
0 0.831719 1
0.479658 1 0.520342
0 0.847502 1
0 0.883442 1
0 0.217159 1
0 0.865406 1
0 0.317423 1
0.00686943 1 0.993131
0 0.579643 1
0 0.418931 1
0 0.582252 1
0 0.880785 1
0 0.386557 1
0 0.54809 1
0 0.660933 1
0 0.393651 1
0 0.788313 1
0 0.399015 1
0 0.410712 1
0 0.514772 1
0 0.996658 1
0 0.512186 1
0.0944109 1 0.905589
0 0.547604 1
0 0.556596 1
0 0.46404 1
0 0.546555 1
0 0.421021 1
0 0.530771 1
0 0.517472 1
0 0.938378 1
0 0.813901 1
0.0475797 1 0.95242
0 0.571245 1
