# vtk DataFile Version 3.0
Particle simulation
ASCII
DATASET POLYDATA
POINTS 400 float
9.25151 2.26105 9.96138
2.56412 0.69585 9.77868
0.365455 2.08558 4.57785
1.70043 0.382221 1.06573
9.68874 0.793833 3.25856
1.34623 7.83598 7.79639
7.39864 1.68587 1.92481
7.23626 5.30037 1.04001
8.05169 6.77914 3.00173
5.81081 0.185614 5.28688
6.89803 2.83652 0.781951
4.46183 1.11396 3.62147
9.32219 8.61413 8.82008
6.15302 0.992683 1.85127
4.1353 2.73843 1.25763
8.91786 2.76205 8.14775
1.7535 6.68518 0.33048
3.59394 0.903861 2.47675
0.532231 0.757531 5.48597
6.01805 0.263142 6.18154
2.45436 0.305847 1.96009
5.49485 0.680797 8.54276
7.36776 5.35223 8.08339
5.82434 1.43333 3.51093
4.42388 2.52649 5.99891
3.67747 0.966779 2.43796
0.331266 3.66293 9.3125
3.12533 0.918819 2.01218
9.87879 0.354568 8.90542
3.54671 0.122686 0.563273
9.98174 8.84266 8.85671
7.22412 1.36839 3.04578
7.57926 1.21631 8.16638
5.32813 1.2187 3.30375
3.78048 0.214978 2.49803
0.426163 2.24565 0.919407
9.20384 0.568272 6.35286
2.98232 0.494793 1.67794
6.82555 0.783827 1.60713
2.44611 2.44272 2.96301
5.1022 0.78789 2.83944
9.0821 4.10567 5.27495
6.74378 8.10276 7.75861
2.64471 2.46094 7.88592
7.0808 0.295506 7.22495
6.14462 0.312316 1.74839
4.26012 0.492253 7.96097
3.1849 0.590868 1.47413
6.28005 0.334331 1.94435
1.35785 8.05013 7.92154
0.159677 4.07879 2.80876
7.52314 8.66217 5.39553
9.47182 0.607803 8.00238
5.95984 0.558416 5.3293
8.91099 0.546653 8.43763
6.41375 0.512807 2.12522
5.07594 0.324381 8.16852
1.60972 0.560113 3.36651
6.80398 0.20668 1.99139
3.33758 6.02654 5.48451
9.02585 4.21463 3.53369
5.49777 0.619348 7.84674
3.34437 0.464781 3.64617
5.91668 0.437868 5.0534
7.41827 6.26398 2.84321
5.47468 0.468249 0.967197
8.24289 0.225958 7.87804
0.231503 3.88667 2.6331
6.18787 0.160691 1.90373
5.4586 0.696996 8.38469
5.84398 0.872783 7.53083
3.22909 0.680609 1.95971
1.78416 2.1479 7.2906
5.89217 0.413861 5.17786
7.8333 0.953016 7.97594
6.92711 0.628629 6.33651
8.25506 0.279667 7.92906
5.50556 0.491318 8.03206
7.76842 1.26629 3.12616
0.1929 4.05386 7.94959
2.68681 0.186855 1.82892
2.90292 0.417921 1.45946
2.60046 1.49342 1.38482
2.22313 0.359737 1.74499
5.61205 0.312163 7.92837
5.51021 0.692085 8.43584
5.1043 0.386447 7.78295
7.187 1.68029 0.823536
6.79555 2.5873 0.354324
9.64139 0.246445 1.76445
2.77418 0.924499 1.2363
3.05302 0.378052 1.41029
0.314393 2.05568 8.63037
2.40321 0.433205 1.69506
5.63587 0.321317 7.99121
5.30842 0.829394 8.29615
4.5568 0.915466 9.17251
2.15216 0.707334 4.14328
6.72675 0.652491 7.09354
9.63522 0.282926 1.79016
2.01407 0.691625 1.69729
5.83921 0.504429 4.90666
0.446187 2.18028 0.931749
9.21603 0.81825 8.35047
9.76033 7.36537 8.82227
3.2163 0.379304 1.67594
4.2972 1.44502 9.09442
6.27569 0.452104 2.16453
6.22432 0.418379 1.92115
9.34053 0.0763552 1.60853
1.34026 1.96048 7.95294
5.84962 0.0107779 5.79455
2.64164 0.0711174 1.36213
9.26732 0.37329 1.73576
3.23511 0.583784 1.59096
1.50426 0.845004 2.22807
5.5901 0.550245 8.83077
5.8429 0.685357 2.0124
6.1798 0.346033 1.93095
3.0796 0.512329 1.65562
2.97377 0.469818 1.46382
6.30238 5.35554 9.20023
7.66296 5.62037 9.66618
7.26777 0.647928 6.13424
7.64808 0.173465 8.0944
3.47354 0.743034 1.39273
3.69015 0.574985 2.1941
5.70719 0.367579 5.46445
3.015 0.577662 1.73305
0.534328 0.691879 4.42811
2.948 0.398338 1.36747
6.07236 0 1.73099
5.34167 0.670448 8.63145
6.77188 0.294612 7.25279
4.06662 0.105672 2.56955
2.1916 0.518526 2.36925
8.39483 6.65215 2.74555
5.87323 0.524949 5.30919
4.7732 0.862175 9.7286
9.16034 0.657947 8.01518
3.11006 0.189351 1.74885
8.59163 0.692361 8.04744
2.43488 2.63896 8.62948
3.19168 0.466836 1.83929
3.1683 0.195778 1.42854
2.06922 0.196349 2.40241
7.10996 0.3565 7.10036
1.21638 2.84805 2.31982
1.92583 0.568312 2.49655
2.31673 0.669811 2.68771
3.09299 0.194136 1.74176
7.78609 0.337826 7.46081
3.12846 2.45869 0.829066
4.36355 1.32453 9.19042
3.58847 3.98208 0.40924
3.64522 0.429088 2.71207
7.94499 0.315716 7.29172
2.53722 0.422758 1.5353
7.01203 0.30323 6.93251
2.29847 0.420903 2.15554
0.353778 1.97309 0.671473
0.271262 1.89909 4.51401
5.36927 0.44494 7.86654
2.40954 0.229911 2.22965
0.0631829 4.09514 2.90288
8.75193 0.747264 8.21272
6.04429 0.731033 8.96609
4.99453 0.511002 9.20204
6.31015 4.46415 7.37472
7.26621 1.40159 1.41676
2.15492 0.408644 1.67275
2.98983 0.804365 2.04498
6.25601 0.622491 4.48797
2.95461 0.0963804 1.29148
2.48442 0.344355 2.43288
0.731737 1.7013 0.577586
5.35165 0.744931 8.84951
5.56268 0.485983 8.19028
5.7305 0.612981 8.09191
4.18958 0.0928945 7.82772
2.25605 0.383964 1.72544
3.59383 0.477479 1.20033
7.66505 4.99186 9.52419
3.27507 0.0936557 1.16483
5.36636 0.21167 8.25969
3.01285 0.916429 1.4688
2.17874 0.688883 2.63075
0.371937 2.30669 8.60899
7.28177 0.0889263 6.55017
2.45555 0.473974 2.21856
2.19345 0.376865 1.71107
2.30491 0.588822 2.57319
5.68511 0.361832 8.54647
2.44036 4.23894 3.91011
1.5403 7.88925 7.25303
2.20606 0.207854 1.91742
2.21179 0.19757 1.45846
5.27396 5.63944 8.83892
2.33846 0.476442 2.86274
3.51063 0.367016 0.933123
3.01935 0.349787 1.5407
6.09577 0.355883 1.61583
6.87499 0.228413 6.6835
4.4587 1.61457 9.29958
8.85239 1.61848 6.47207
5.90704 0.503209 9.06499
3.10154 0.425305 1.51742
1.61239 0.536457 3.31636
1.6034 0.404491 2.4669
9.22847 0.454263 1.88869
2.40868 0.230392 1.89012
6.07101 0.283296 2.09557
5.7391 0 8.51516
8.70299 0.576968 8.3434
5.53807 0.713045 5.62371
5.93639 0.769379 9.02874
3.07427 0.446117 1.51852
1.91465 0.611078 2.09813
2.61297 0.103481 3.23354
9.34247 0.201641 1.82828
1.28559 5.05216 6.43741
8.38166 0.524772 8.12101
4.27597 1.35895 8.89648
3.16887 0.369511 1.47452
5.18236 0.590525 9.07031
3.15016 0.231297 1.41963
3.97101 2.45855 0.8412
2.0837 0.264285 2.76234
3.56638 0.819868 1.83332
5.04651 0.329607 8.97444
5.96766 0.495232 5.29036
5.44187 0.833302 8.73992
7.12384 0.33006 6.88045
2.99608 0.353151 1.77811
5.30674 0.463367 8.80009
4.03392 0.914599 2.1895
7.2487 0.218275 7.19572
2.28704 0.607415 1.39357
2.20915 0.320696 2.63978
1.33716 0.48028 2.73722
2.22645 0.478398 1.6505
2.64803 1.33512 1.06122
2.81135 0.523122 1.28087
2.17105 0.195665 1.32569
5.42216 0.507914 8.76459
3.18527 0.283355 1.02998
3.23281 1.05196 1.51674
5.73618 0.216386 8.70754
6.53673 0.153697 1.91611
5.24687 0.671454 8.71624
3.4328 0.457935 2.11454
5.77607 1.17881 1.3581
5.30435 0.534441 8.47566
3.89311 0.000894204 2.91877
6.88142 0.110883 6.50629
3.10537 0.150801 1.64859
8.96246 0.00154906 1.49778
5.47774 0.485183 8.99253
6.05152 0.32465 1.92566
5.22639 0.720073 8.68618
1.97737 0.608661 2.54048
3.82081 8.72633 6.3434
4.26768 1.19235 9.10118
5.9724 0.829175 1.30932
5.83299 0.488153 8.64706
2.13315 2.83102 7.55784
5.30706 0.585183 0.312623
5.16606 0.738333 8.70079
6.86879 0.138744 6.87621
3.16782 0.638091 1.89936
2.89469 0.324146 1.87133
6.44104 6.03583 4.66844
3.71175 0.384055 2.80312
5.54778 1.18189 0.648621
5.18815 0.355109 8.39585
4.18179 1.11662 9.48672
5.76648 0.305905 5.14425
3.70815 8.18345 7.05107
6.80588 0.357772 6.21733
2.35444 0.332206 1.74029
9.07084 0.301603 1.63641
6.00973 0.228722 2.23823
5.76322 0.864772 1.00069
5.7871 0.226334 4.56169
5.74255 0.30584 3.97167
7.08919 0.4579 6.57177
2.7046 0.43465 1.6095
3.1754 0.397685 1.13162
9.46424 0.534295 7.95237
9.91897 4.05869 0.481735
9.74178 0.677991 2.01942
6.16686 0.233046 2.03709
3.33963 0.699961 2.0547
5.96545 0.393345 4.93807
5.1304 0.366447 9.13323
4.87729 0.598841 9.13702
3.59025 0.696599 0.821734
3.39345 0.744704 1.74215
2.78628 0.517687 2.34542
3.02361 0.355748 1.54849
9.34693 0.216508 1.61481
9.60678 0.595945 8.0917
1.51077 0.0954588 3.4795
6.13872 0.120982 1.75956
1.4727 0.417091 2.82319
6.89067 0.158715 2.01682
1.67935 0.750784 2.45396
2.34109 0.373717 2.83741
1.63649 0.407518 3.61569
3.35503 0.498106 1.97972
6.30724 0.100142 5.18113
7.97845 0.217822 7.45933
7.04057 0.225043 6.91233
2.29065 0.0899441 1.99117
3.03813 0.685409 2.17837
6.7012 0.397034 5.40182
3.61389 0.505521 1.02931
6.06945 1.27988 1.22832
6.32229 0.460743 1.99911
3.36208 0.950395 1.883
4.91151 0.0516194 9.02448
3.63377 0.327909 2.8148
5.28637 0.48048 8.70919
1.74694 0.382594 2.34076
9.59476 0.199285 1.85712
9.3641 0.464231 2.0329
2.05037 0.562733 1.76267
6.03505 0.0650731 1.73289
9.32554 0.277454 1.88415
2.23384 0.348271 1.50239
4.88693 0.0741776 8.9954
3.28507 0.704344 1.53592
5.43395 0.340038 8.47877
3.32404 0.314876 1.74513
9.15559 0.447545 1.8921
4.43526 1.12449 8.79357
3.21391 0.139047 2.75017
2.64489 0.722398 1.69659
8.96741 0.455994 2.04144
3.52314 0.905732 2.05716
5.13241 0.508779 9.33891
3.2504 0.0417054 1.62455
5.23908 0.398737 8.79121
4.38345 1.31552 9.13432
3.27763 0.306473 1.67301
2.95676 0.31162 1.6342
6.5338 0.471446 1.95575
2.03192 0.804476 2.4322
2.94757 0.360289 1.55122
2.69306 0.48591 2.27338
3.56623 0.311091 2.51483
3.28997 0.988639 2.11805
5.57462 0.284121 8.49458
4.3201 1.32677 9.11349
2.00134 0.67454 2.04991
2.33385 0.32864 1.32658
5.68435 0.458423 1.6315
5.5241 0.739599 8.89822
3.18658 0.39135 1.60019
2.93239 0.392963 1.63527
6.28737 0.404955 2.03865
7.98317 0.160164 7.35067
5.57616 0.362563 7.88118
2.16586 0.26191 1.01612
2.3898 0.0645426 1.84196
6.99658 0.300745 6.97299
5.52517 0.702306 8.77508
5.09811 0.266038 8.20067
5.35974 0.86244 8.63653
3.0657 0.846917 1.9236
6.31684 0.374079 2.01521
7.70326 0.365151 7.44744
5.55575 0.648939 8.32826
2.30281 0.701676 2.87269
2.06728 0.29644 1.52141
7.27391 0.346058 6.96033
5.26729 0.321867 8.67424
5.53646 0.907756 8.31254
5.72171 0.528375 8.93865
2.56024 0.805689 1.35061
2.5035 0.24478 1.69472
2.25466 0.300981 1.72027
5.45216 0.572122 8.79003
3.23662 0.565552 1.61617
5.80068 0.321394 5.37907
5.67585 0.568149 8.97361
3.08352 0.543276 2.02364
3.44694 0.642751 1.75105
6.22668 0.113545 4.8065
5.63751 0.212118 2.10557
2.58716 0.243167 1.71137
2.41683 0.434546 1.76976
5.67447 0.773053 8.15585
2.86777 0.363503 1.59598
5.80999 0.314377 5.37049
4.54335 1.19452 9.20414
3.1042 0.670847 2.09624
3.84222 0.572536 2.20352
8.80827 0.507875 1.94827
5.64395 0.178524 2.12183
POINT_DATA 400
SCALARS particleColor float 3
LOOKUP_TABLE default
0 0.420717 1
1 5.96046e-08 0
0 0.505846 1
0 0.332598 1
0 0.223564 1
1 5.96046e-08 0
0 0.755304 1
0 0.62616 1
0.475665 1 0.524335
0 0.685743 1
0.297503 1 0.702497
0 0.577897 1
0.23368 1 0.76632
0.0301395 1 0.96986
0 0.441526 1
0 0.761806 1
0 0.196945 1
0 0.406037 1
1 0.901513 0
0 0.923939 1
0 0.87423 1
1 0.787273 0
0 0.960256 1
0 0.116653 1
1 0.400448 0
0 0.790367 1
1 0.881279 0
0 0.810429 1
0 0.631218 1
0 0.50934 1
0.226782 1 0.773218
1 0.9134 0
0 0.379864 1
0 0.701541 1
0 0.910722 1
0 0.964656 1
0.0592119 1 0.940788
0 0.621016 1
0 0.372344 1
0 0.388352 1
0 0.968084 1
0 0.897348 1
0 0.990245 1
0.129214 1 0.870786
0 0.219445 1
0 0.75155 1
0.306567 1 0.693433
0 0.466835 1
0 0.676282 1
1 0.788073 0
0 0.709095 1
0 0.312898 1
0 0.86558 1
0 0.723465 1
0 0.462351 1
0 0.394551 1
0 0.671851 1
0 0.62523 1
0 0.275469 1
0.991298 1 0.00870156
0.288233 1 0.711767
0 0.589697 1
0 0.29452 1
0 0.66342 1
0.239974 1 0.760026
0 0.439806 1
0 0.463396 1
0 0.619619 1
0 0.593755 1
0 0.896709 1
0 0.737039 1
0 0.862845 1
1 5.96046e-08 0
0 0.851959 1
0 0.755071 1
0.127631 1 0.872369
0 0.351707 1
0 0.518866 1
0 0.940268 1
0.289277 1 0.710723
0 0.532758 1
0 0.420479 1
0 0.334665 1
0 0.489474 1
0 0.57056 1
0 0.830539 1
0 0.673275 1
0 0.671598 1
0 0.732627 1
0 0.436147 1
0 0.399327 1
0.0347854 1 0.965215
0 0.371907 1
0 0.538745 1
0 0.791039 1
0 0.583842 1
0 0.809666 1
0 0.760905 1
0 0.93003 1
0 0.517459 1
0 0.802494 1
0.744797 1 0.255203
0 0.478241 1
0.15971 1 0.84029
1 0.0326889 0
0 0.43645 1
0 0.695527 1
0 0.71869 1
0 0.41739 1
0.0470998 1 0.9529
1 0.771664 0
0 0.19441 1
0 0.755866 1
0 0.557401 1
0 0.446983 1
0 0.337993 1
0 0.415116 1
0 0.794116 1
0 0.287284 1
0.612508 1 0.387492
0 0.790965 1
1 5.96046e-08 0
0 0.92769 1
0.7426 1 0.2574
0 0.526657 1
0 0.39321 1
0 0.363492 1
0 0.837838 1
1 0.0808508 0
0.307649 1 0.692351
0 0.733988 1
0 0.922848 1
0 0.714754 1
0 0.63354 1
0.986097 1 0.0139034
0 0.293227 1
1 0.601456 0
0 0.864174 1
0 0.56183 1
0 0.506055 1
0 0.72103 1
0 0.736311 1
0 0.761869 1
0.5495 1 0.4505
0 0.753525 1
0 0.651533 1
0 0.712211 1
0 0.55345 1
0 0.5195 1
0.301746 1 0.698254
0 0.65698 1
0 0.392435 1
0 0.342607 1
0 0.516531 1
0 0.185124 1
0 0.297198 1
0 0.834002 1
0 0.606453 1
0 0.400201 1
0 0.379176 1
0 0.721177 1
0 0.879559 1
0 0.578026 1
0 0.571764 1
0 0.481387 1
0 0.294007 1
0 0.739728 1
0 0.453142 1
0 0.351148 1
1 5.96046e-08 0
0 0.810116 1
0 0.89545 1
0 0.53279 1
0 0.91373 1
0 0.466185 1
0 0.683384 1
0 0.529211 1
0 0.898132 1
0 0.274836 1
0.453979 1 0.546021
0 0.448542 1
0 0.261612 1
0 0.649902 1
0.466574 1 0.533426
0 0.71927 1
0 0.566166 1
0.0263741 1 0.973626
0 0.690679 1
0 0.685621 1
0 0.340161 1
0 0.533298 1
0 0.329992 1
0 0.834017 1
0 0.319396 1
0.208892 1 0.791108
0 0.513658 1
0 0.632931 1
0 0.397 1
0 0.326775 1
0.161389 1 0.838611
0 0.741159 1
0 0.455139 1
0 0.909595 1
0 0.837987 1
0.329671 1 0.670329
0 0.254556 1
0 0.598618 1
0 0.254465 1
0 0.875186 1
0 0.506945 1
0 0.271871 1
0 0.927576 1
0 0.197652 1
0 0.778029 1
0 0.470398 1
0 0.462891 1
0 0.587179 1
0 0.830645 1
0 0.675197 1
0 0.38685 1
1 0.905127 0
0.397352 1 0.602648
0 0.328489 1
0 0.295135 1
0 0.527733 1
0 0.503983 1
0.220629 1 0.779371
0 0.630871 1
0 0.439912 1
0 0.948044 1
0 0.306756 1
0 0.731836 1
0 0.500698 1
0 0.845821 1
0 0.940678 1
0 0.575109 1
0 0.931891 1
0 0.869258 1
0 0.237569 1
0 0.801674 1
0 0.639939 1
0 0.631586 1
0 0.72467 1
0 0.849351 1
0 0.864721 1
0 0.858179 1
0 0.904696 1
0 0.730193 1
0 0.276411 1
0 0.10684 1
0 0.550763 1
0 0.871237 1
0 0.414815 1
0 0.930499 1
0 0.645124 1
0 0.61516 1
0.154045 1 0.845955
0 0.938135 1
0 0.589292 1
0 0.154528 1
0 0.244505 1
0 0.733235 1
0 0.437747 1
0 0.794569 1
0 0.450642 1
0.397834 1 0.602166
0.149548 1 0.850452
0 0.7822 1
0 0.443009 1
0 0.437874 1
0 0.536461 1
0.260621 1 0.739379
0 0.976844 1
0 0.508508 1
0 0.174673 1
0 0.208161 1
0 0.433211 1
0 0.370817 1
0 0.834525 1
0 0.497551 1
0 0.318898 1
0 0.494608 1
0.191663 1 0.808337
0 0.0913462 1
0 0.64099 1
0 0.619404 1
0 0.610445 1
0.0304549 1 0.969545
0 0.660895 1
0 0.841306 1
0 0.359086 1
0 0.418639 1
0 0.954254 1
0 0.896328 1
0 0.489783 1
0 0.658027 1
0 0.666525 1
0 0.820425 1
0 0.883368 1
0 0.980847 1
0 0.445338 1
0 0.37523 1
0 0.174477 1
0 0.875053 1
0 0.348458 1
0 0.962217 1
0.0132413 1 0.986759
0 0.536867 1
0 0.663123 1
0.0424581 1 0.957542
0 0.826568 1
0 0.531265 1
0 0.858422 1
0 0.657771 1
0 0.561032 1
0 0.9036 1
0 0.735196 1
0.407042 1 0.592958
0 0.480212 1
0 0.368837 1
0 0.210824 1
0 0.838951 1
0 0.851905 1
0 0.647027 1
0 0.720286 1
0 0.529861 1
0 0.626894 1
0 0.755623 1
0.361443 1 0.638557
0 0.784087 1
0 0.503338 1
0 0.3175 1
0 0.82186 1
0 0.486601 1
0 0.7483 1
0 0.878598 1
0 0.645569 1
0 0.671702 1
0.31749 1 0.68251
0 0.512194 1
0 0.599363 1
0 0.411452 1
0 0.75182 1
0 0.863141 1
0 0.428784 1
0 0.418182 1
0 0.460366 1
0 0.290575 1
0 0.221414 1
0 0.674624 1
0 0.574494 1
0 0.510792 1
0.173084 1 0.826916
0 0.895234 1
0 0.435323 1
0 0.791743 1
0 0.961431 1
0.272873 1 0.727127
0 0.68011 1
0.0436893 1 0.956311
0 0.872135 1
0 0.657761 1
0 0.252003 1
0 0.346699 1
0 0.940548 1
0 0.732206 1
0 0.440886 1
0 0.981932 1
0 0.629165 1
0.299044 1 0.700956
0 0.875686 1
0 0.440846 1
0 0.899642 1
0 0.660421 1
0 0.986073 1
0 0.546424 1
0 0.256168 1
0 0.319439 1
0 0.848418 1
0 0.36879 1
0 0.753076 1
0 0.296606 1
0 0.30537 1
0 0.995201 1
0 0.757877 1
0 0.954012 1
0 0.413537 1
0 0.539267 1
0.235735 1 0.764265
0 0.130301 1
0 0.743884 1
0 0.335336 1
0 0.676051 1
0 0.898912 1
0 0.636554 1
0 0.44203 1
0 0.425129 1
0 0.318851 1
0 0.838118 1
0 0.158756 1
