# vtk DataFile Version 3.0
Particle simulation
ASCII
DATASET POLYDATA
POINTS 400 float
0.322053 0.560041 0.728596
0.278686 0.613394 0.697451
2.80167 0.629489 5.24997
0.230812 0.478595 0.799003
4.10711 0.398884 5.58634
0.597089 1.74681 4.42752
4.99683 0.800389 0.96698
2.86335 0.836595 4.41553
4.9241 0.22969 0
5.42433 0.954523 1.16934
0.253201 0.597334 0.713964
0.769182 0.584086 0.610913
2.53682 0.624506 5.06861
0.182066 0.465489 0.814464
4.12069 0.342479 5.52672
0.499792 1.38485 4.65085
0.914491 0.36756 2.26969
0.967497 1.01348 3.60092
5.26045 0.68969 0.521132
5.4437 1.00044 1.23367
4.71447 0.559013 1.27114
6.28324 0.949109 1.15154
2.13314 0.781127 4.44747
5.25862 1.07278 1.48125
3.56732 0.574398 3.53814
1.34053 0.505424 4.19404
4.91902 0.911666 5.40628
0.43099 0.924571 3.44348
2.42755 0.797875 1.70513
0.0277973 0.607865 0.969602
4.64957 0.71356 1.3441
6.01034 1.07382 1.03406
1.92116 0.721983 5.05991
5.26095 1.05494 1.4651
3.50765 0.5637 3.54821
1.39798 0.488457 4.16246
4.94406 0.889715 5.41128
0.43663 0.966653 3.37972
2.40629 0.952259 1.39905
0 0.645846 0.874759
0.112315 0.736839 0.453067
3.98958 0.612933 2.12861
0.867496 0.270919 3.08838
5.62233 1.13684 1.45409
2.49234 0.702452 4.60579
3.71189 0.774471 2.14831
2.98246 0.291222 2.9203
1.51907 0.753305 3.36684
2.47291 0.668471 1.66606
2.02731 0.590941 5.14653
0.0872614 0.757373 0.440654
3.97651 0.627109 2.1151
0.843912 0.13887 3.149
5.60626 1.13744 1.44378
2.50039 0.645771 4.59538
3.75187 0.769044 2.14403
2.6457 0.713753 4.52635
1.54047 0.760032 3.4073
2.51172 0.706314 1.67952
1.89607 0.412961 4.53051
6.13482 1.07408 1.52948
0.0373851 0.259075 1.41697
5.14173 0.600017 5.01823
4.542 0.882743 0.187921
4.29683 0.933883 4.27673
4.51027 0.725325 3.87719
1.82816 0.256128 1.66971
1.33403 0.30602 4.03249
2.50783 0.745708 1.44872
1.56257 0.523165 3.64991
6.1039 1.04703 1.52915
0 0.395546 1.0832
4.56337 0.93524 4.44353
4.57995 0.908462 0.221734
4.33777 0.920064 4.24015
4.43695 0.661445 4.22437
1.85219 0.251664 1.69911
2.19963 0.491988 5.31903
2.5111 0.75066 1.46307
1.55409 0.482884 3.57924
0.317325 0.696439 0.85526
3.2814 0.877776 1.68465
1.46879 0.592438 2.74352
3.72292 0.32824 0.909189
3.68352 0.375863 4.69029
2.36237 0.692975 4.29649
3.97221 0.608659 4.62857
0.545449 0.362075 2.62345
3.0276 0.944165 1.17338
5.05864 0.571397 0.662012
0.206016 0.72846 0.933735
3.24753 0.835702 1.66172
1.3052 0.457387 2.69257
3.71803 0.348557 0.917873
3.67693 0.372392 4.74037
2.32963 0.623456 4.30059
2.50222 0.734571 4.65334
0.516407 0.206103 2.72842
2.948 0.86219 1.22354
5.08858 0.604415 0.666042
3.75977 0.187203 2.59241
3.93437 0.32146 0.379804
0.646678 0.226393 2.9478
4.72292 0.739361 0.938371
0.467366 0.18027 3.15279
1.57875 0.798508 3.48093
2.0479 0.585044 4.48099
2.80298 0.611269 1.45686
2.66035 0.76624 1.40887
5.19777 0.644177 0.642271
3.75022 0.360201 2.60999
3.87695 0.435776 0.435466
2.42145 0.652213 1.7704
4.9065 0.718673 0.821186
1.0968 0.452973 3.51552
1.57773 0.796086 3.46019
2.13165 0.624799 4.43512
2.01888 0.342432 1.49389
2.59142 0.73499 1.44201
3.23583 0.717366 2.08881
2.66941 0.784402 1.39929
3.83455 0.873426 2.42751
5.09856 0.983489 5.49332
2.50699 0.669786 0.937935
2.07473 0.864271 5.08744
1.88263 0.469809 1.64442
0.113313 0.79037 0.80181
4.52422 0.516502 0.499565
2.03657 0.754246 5.08964
1.8943 0.422896 1.66447
2.66915 0.786529 1.40959
3.69765 0.911498 2.39087
4.94655 0.507622 5.27553
2.66233 0.730199 1.03057
2.06598 0.823663 5.16277
3.00952 0.92922 1.01572
0.151827 0.706838 1.62777
4.48558 0.538216 0.555642
2.03651 0.79518 5.07628
1.75173 0.161243 1.46086
0.168037 0.770787 0.840285
1.75273 0.500841 0.519571
1.65516 0.51958 2.03872
1.50281 0.249542 1.10968
1.87514 0.861951 2.50363
0.511856 0.480331 2.68652
5.05342 0.624635 5.1148
1.18175 0.349012 3.15708
0.974914 0.390219 2.69531
0.36628 0.392327 2.88082
0.174436 0.767153 0.84219
1.74245 0.478427 0.509582
1.80041 0.588165 2.58988
1.69318 0.377934 1.19375
1.81276 0.734799 2.40905
0.560464 0.505698 2.73835
4.91986 0.568267 5.08836
1.17474 0.343616 2.94846
1.30727 0.496519 2.195
0.731275 0.396692 2.5199
1.26699 0.827918 0.354949
3.02161 0.517514 0.868118
3.80844 0.853738 5.06518
1.62746 0.154676 1.00945
1.78252 0.807599 2.0346
2.13025 0.354991 1.80495
2.00983 0.768631 4.20664
2.13719 0.661587 4.33399
1.91386 0.697891 4.15636
1.96035 0.449729 1.82442
1.2961 0.836761 0.352578
2.93508 1.06112 1.55005
3.80114 0.869542 5.10419
1.56078 0.0337695 1.04687
1.80111 0.799006 2.03077
2.06216 0.387615 1.86003
2.11138 0.720234 4.25802
2.27038 0.630049 4.42806
1.88911 0.781683 4.17968
1.98578 0.440451 1.78333
2.7088 1.21356 1.6247
0.486909 0.690331 0.650187
3.86352 0.34986 5.4293
1.04004 0.729449 0.89522
2.37699 0.721249 5.08465
1.57542 0.617812 3.26749
0.987612 0.513507 2.70695
3.73297 0.0586267 2.77566
3.47111 0.31248 1.85642
4.11176 0.767752 1.96652
2.70063 1.20702 1.60302
0.294078 0.511636 0.669959
3.81022 0.769187 5.29978
1.08849 0.761055 0.875773
2.45077 0.778856 5.04041
1.52499 0.512313 3.33545
0.976129 0.49927 2.73726
3.90902 0.631245 1.9327
3.40674 0.320263 1.87283
4.02408 0.780129 1.99115
0.401625 0.407686 0.684788
0.63585 0.522914 1.06517
4.33119 0.627253 5.34866
0.375007 0.567584 0.326351
4.07895 0.338269 4.80407
2.00987 0.865452 5.0669
1.35689 0.82578 3.80469
1.07774 0.98188 2.50988
0.837671 0.922754 3.69722
4.83306 0.635159 0.951106
0.372335 0.465649 0.724875
0.967443 0.610747 0.597188
4.19088 0.569721 5.29161
0.365116 0.512536 0.42897
4.08291 0.343544 4.78724
1.95887 0.850456 5.08479
1.36633 0.82066 3.78617
1.04617 0.782948 4.07626
0.764251 0.893583 3.6968
4.85158 0.637349 0.785618
4.70484 0.103543 0.674312
3.857 0.551223 4.84938
5.08758 0.602262 4.91493
2.37599 0.67528 1.80813
4.16099 0.262062 5.2598
1.2586 0.320662 3.60728
5.07901 0.698522 4.90348
1.27567 0.726971 2.93924
1.64518 0.508145 1.67407
1.53166 0.597789 2.84899
4.70057 0.102253 0.631393
3.74703 0.54168 5.00839
4.96427 0.654143 4.87959
2.34304 0.624849 1.81678
4.16549 0.27132 5.22841
1.28734 0.321756 3.57134
5.11375 0.75266 4.86012
1.27083 0.514624 3.50247
1.65638 0.599541 1.98794
1.4243 0.600215 2.94573
0.34265 0.517111 0.872573
2.89965 1.02854 2.38969
1.74595 0.683307 4.3813
4.48408 0.667544 1.17413
2.58196 0.55515 4.24686
3.49782 0.200066 1.19285
1.42039 0.957224 3.5232
3.95846 0.689816 3.69943
3.69204 0.741288 2.27998
2.11153 0.434182 4.43906
0.319315 0.498123 0.915692
2.79969 1.04551 2.1274
1.66366 0.702653 4.96241
4.50733 0.667108 1.23652
2.42264 0.677552 4.21342
3.43066 0.411587 1.37796
4.66139 0.76593 0.710135
4.00388 0.590687 3.89513
3.67807 0.71154 2.3036
2.12244 0.446642 4.39901
3.41318 1.06528 1.83957
1.59476 0.439144 0.555449
4.32327 0.796132 2.24715
5.39741 0.861822 1.36648
3.98088 0.492954 4.76769
0.267437 0.973287 3.46732
4.77388 0.931347 0.421677
2.03757 0.696082 4.25134
3.81612 0.518232 4.64025
1.29728 0.626046 2.72598
3.47026 1.05811 1.80088
1.69275 0.408353 0.586783
4.83386 0.853252 0.166944
5.57666 1.17666 1.22232
4.27306 0.675219 4.54366
2.14768 0.976939 5.35011
4.91877 0.846448 0.327328
2.80488 1.01331 4.65358
3.82303 0.482085 4.65238
1.38747 0.631799 2.75835
4.37427 1.19109 0.918901
3.93732 0.530639 1.78115
1.9334 0.827399 3.30705
4.45785 0.466176 0.549043
2.73258 0.666017 4.43189
3.17457 0.546986 4.6434
0.662856 0.437849 2.52052
1.22203 0.616775 3.62956
1.95786 0.809811 1.8324
2.96135 0.838586 1.52412
4.45683 1.22974 0.912961
3.93956 0.509278 1.73208
1.69797 0.706316 3.29334
4.42226 0.431993 0.547507
2.64697 0.683465 4.6025
3.21822 0.624134 4.50092
0.66448 0.477709 2.49191
1.23786 0.663106 2.09615
1.969 0.928129 1.75111
3.86179 0.75288 1.9241
4.74938 1.00764 0.342603
0.975336 0.51112 0.406224
1.82143 0.603522 3.46737
1.61576 0.812728 1.25371
1.57717 0.972362 3.11995
3.59444 0.551306 1.59602
1.33963 0.92338 3.79456
3.3122 0.710038 1.94156
2.44515 0.341318 1.74805
3.25126 0.817269 1.76033
4.84353 0.84329 0.311242
0.941529 0.490744 0.411337
2.84165 1.14308 4.11719
1.88206 0.686569 1.47965
1.58408 0.878497 3.09783
4.77286 1.01266 0.279262
1.38607 0.930184 3.70408
1.54234 0.472928 0.845727
2.5254 0.366937 1.65137
3.27966 0.804986 1.79614
2.55139 0.738673 1.76642
3.0692 0.881902 1.36669
2.60697 0.964132 4.25067
2.74344 0.528954 1.38857
4.91692 0.730642 0.643535
1.3406 0.729072 2.58594
1.06992 0.773921 2.88805
3.99561 0.470874 1.94325
5.16405 0.708783 0.467989
2.48768 1.01187 1.22469
2.73886 0.749455 1.67282
2.22755 0.717954 1.98057
2.55033 0.916165 4.28076
2.7082 0.534905 1.44476
4.94908 0.682532 0.553043
1.39206 0.500417 0.824262
1.06013 0.846347 2.84847
4.01175 0.56148 1.97629
5.20982 0.727524 0.389223
2.28181 0.979229 1.56736
0.0742171 0.429297 0.810633
0.30076 0.569058 0.776364
3.82671 0.574844 5.48936
0.0947761 0.354329 1.04056
0.788275 0.800977 2.69494
1.0341 0.542638 2.83575
2.39618 0.417523 1.65202
1.60813 0.920136 3.62899
0.873072 0.773826 3.09352
0.835275 0.439276 2.25816
0.0306528 0.411065 0.860773
0.283488 0.643657 0.796038
3.66052 0.670823 5.4231
0.0893841 0.366644 1.0553
0.807625 0.845815 2.71654
1.07655 0.595887 2.93703
2.37778 0.39734 1.67167
2.25267 0.714962 3.8039
0.923043 0.842843 3.18404
0.852731 0.499838 2.46828
1.31317 0.423863 1.2495
1.39994 0.912982 0.60529
3.52386 0.57991 4.51344
2.10266 0.43551 2.17766
1.93062 0.209642 1.71468
1.58473 0.700295 2.77292
2.33138 0.515183 4.3382
2.50544 0.513394 4.42251
2.28472 0.554397 4.20533
1.70968 0.636043 2.05122
1.29695 0.415735 1.24831
1.36493 0.907085 0.624915
3.46757 0.612743 4.5035
2.12646 0.445455 2.14845
1.61283 0.239927 1.7757
1.56973 0.67178 2.77308
2.34797 0.490498 4.33264
2.5586 0.502708 4.42379
2.1055 0.497855 4.25685
1.86842 0.615525 1.97289
2.90553 0.749455 1.92125
0.272483 0.91654 0.768388
3.11286 0.534674 4.74811
0.0799075 0.583818 1.1038
4.77015 0.346843 0.0651954
3.84523 0.628528 4.2528
1.11329 0.572428 1.95062
3.72302 0.39932 1.69123
5.26617 0.361331 0.897338
4.03357 0.784053 1.97029
2.9023 0.716211 1.95214
0.27269 0.931229 0.723678
3.09824 0.543839 4.73461
0.275283 0.560814 1.08755
4.76923 0.323147 0.117049
3.7731 0.54821 4.36434
1.09962 0.556367 1.95827
3.68204 0.371191 1.68171
5.22765 0.462721 0.734034
4.04086 0.767832 1.96279
POINT_DATA 400
SCALARS particleColor float 3
LOOKUP_TABLE default
0 0.373118 1
0 0.800229 1
0 0.270409 1
0 0.516016 1
0 0.898877 1
0 0.831633 1
0.200536 1 0.799464
0 0.825644 1
0 0.463643 1
0 0.505219 1
0 0.508366 1
0 0.338409 1
0 0.520744 1
0 0.599008 1
0 0.694122 1
0 0.758431 1
0 0.557967 1
0 0.232745 1
0 0.0846586 1
0 0.324577 1
0 0.291934 1
0 0.193998 1
0 0.641024 1
0 0.536518 1
0 0.562449 1
0 0.544193 1
0 0.318596 1
0 0.380128 1
0 0.844004 1
0.0446553 1 0.955345
0 0.267956 1
0 0.178701 1
0 0.974495 1
0 0.45544 1
0 0.340116 1
0 0.583486 1
0 0.750525 1
0 0.160732 1
0 0.627521 1
0 0.8833 1
0 0.656096 1
0 0.794478 1
0 0.780763 1
0 0.512055 1
0 0.445808 1
0 0.421994 1
0 0.394529 1
0 0.955964 1
0 0.603483 1
0.0778104 1 0.92219
0 0.700136 1
0 0.909888 1
0 0.886571 1
0 0.394935 1
0 0.541169 1
0 0.303902 1
0 0.592718 1
0 0.972689 1
0 0.532571 1
0 0.505102 1
0 0.870885 1
0 0.523272 1
0.175244 1 0.824756
0 0.545648 1
0 0.990308 1
0 0.417857 1
0 0.533972 1
0 0.305235 1
0 0.533422 1
0 0.587804 1
0 0.643602 1
0 0.552072 1
0 0.847781 1
0 0.506817 1
0 0.714106 1
0 0.757978 1
0 0.613298 1
0 0.885724 1
0 0.50948 1
0 0.49711 1
0 0.562015 1
0 0.553479 1
0 0.862129 1
0 0.525399 1
0 0.388715 1
0 0.638757 1
0 0.723602 1
0 0.288917 1
0 0.845545 1
0 0.64874 1
0 0.433958 1
0 0.644166 1
0 0.776217 1
0 0.618769 1
0 0.413396 1
0 0.672028 1
0 0.676814 1
0 0.656256 1
0 0.823843 1
0 0.629845 1
0 0.640495 1
0 0.699163 1
0 0.653181 1
0 0.745943 1
0 0.675693 1
0 0.504028 1
0 0.924075 1
0 0.326054 1
0 0.622295 1
0 0.583978 1
0 0.431993 1
0 0.636637 1
0 0.630889 1
0 0.654289 1
0 0.617888 1
0 0.467051 1
0 0.894006 1
0 0.352262 1
0 0.605299 1
0 0.732934 1
0 0.502673 1
0 0.210971 1
0 0.500356 1
0 0.546911 1
0 0.559815 1
0 0.489981 1
0.377471 1 0.62253
0.130288 1 0.869712
0 0.476675 1
0 0.444773 1
0 0.451181 1
0 0.430454 1
0 0.732756 1
0 0.434392 1
0 0.589421 1
0 0.891308 1
0.191394 1 0.808606
0.104115 1 0.895885
0 0.270302 1
0 0.947693 1
0 0.903517 1
0 0.276452 1
0 0.842839 1
0 0.361434 1
0 0.714915 1
0 0.674971 1
0 0.621614 1
0.0123072 1 0.987693
0 0.303936 1
0 0.697184 1
0 0.86533 1
0 0.324758 1
0 0.623866 1
0 0.526972 1
0 0.607749 1
0 0.573898 1
0 0.59188 1
0 0.734115 1
0 0.398683 1
0 0.736665 1
0 0.665621 1
0.0308297 1 0.96917
0 0.604006 1
0 0.570763 1
0 0.617742 1
0.12526 1 0.87474
0 0.173506 1
0.278835 1 0.721165
0 0.744436 1
0 0.61133 1
0 0.663062 1
0 0.904569 1
0 0.641433 1
0 0.566993 1
0 0.485021 1
0.192232 1 0.807768
0 0.348376 1
0.0466864 1 0.953314
0 0.949238 1
0 0.468422 1
0 0.879384 1
0 0.694448 1
0.103152 1 0.896848
0 0.283885 1
0 0.601028 1
0 0.601523 1
0 0.784722 1
0 0.657177 1
0 0.465019 1
0 0.51993 1
0 0.799372 1
0 0.893494 1
0 0.161162 1
0 0.27968 1
0 0.506668 1
0 0.867691 1
0 0.81429 1
0 0.936865 1
0 0.542369 1
0 0.545247 1
0 0.357886 1
0 0.58456 1
0 0.86431 1
0 0.788393 1
0 0.288454 1
0 0.913277 1
0 0.708918 1
0 0.366622 1
0 0.736062 1
0 0.423774 1
0 0.221371 1
0 0.584374 1
0 0.472943 1
0 0.790401 1
0 0.241715 1
0 0.830809 1
0 0.696632 1
0 0.280904 1
0 0.483633 1
0 0.824014 1
0 0.886215 1
0.334368 1 0.665632
0 0.600353 1
0 0.38165 1
0 0.412049 1
0 0.459494 1
0.0477214 1 0.952279
0 0.605784 1
0.0944474 1 0.905553
0 0.822722 1
0 0.963294 1
0.177251 1 0.822749
0 0.817915 1
0 0.36258 1
0 0.485321 1
0 0.509182 1
0 0.920498 1
0 0.777478 1
0 0.817387 1
0 0.710277 1
0 0.490618 1
0 0.610768 1
0 0.775634 1
0 0.482061 1
0 0.513512 1
0 0.541068 1
0 0.543358 1
0 0.987093 1
0 0.661716 1
0 0.769492 1
0 0.413135 1
0.162247 1 0.837753
0 0.614659 1
0 0.578524 1
0 0.390311 1
0 0.431307 1
0 0.549669 1
0.354365 1 0.645635
0 0.626135 1
0 0.591508 1
0 0.835441 1
0.162533 1 0.837467
0 0.724809 1
0 0.269967 1
0 0.84719 1
0.542236 1 0.457764
0 0.552077 1
0 0.830031 1
0 0.566034 1
0 0.712141 1
0 0.964972 1
0.194186 1 0.805814
0.145634 1 0.854366
0 0.544057 1
0 0.416396 1
0.38863 1 0.61137
0 0.235359 1
0 0.548424 1
0 0.579618 1
0 0.621868 1
0 0.383884 1
0 0.583512 1
0 0.585695 1
0 0.460487 1
0 0.425529 1
0 0.847527 1
0 0.556436 1
0 0.593135 1
0.141315 1 0.858685
0 0.97672 1
0 0.438115 1
0 0.607037 1
0 0.418044 1
0 0.681433 1
0 0.100636 1
0 0.931169 1
0 0.594055 1
0 0.664478 1
0 0.71338 1
0.0641556 1 0.935844
0.18292 1 0.81708
0 0.370103 1
0 0.969533 1
0 0.407162 1
0 0.756516 1
0 0.406499 1
0 0.639134 1
0 0.54002 1
0 0.347433 1
0 0.386348 1
0.43777 1 0.56223
0 0.291048 1
0 0.933573 1
0 0.669732 1
0 0.908647 1
0 0.705702 1
0 0.366687 1
0 0.869774 1
0 0.298818 1
0 0.738849 1
0 0.784971 1
0 0.372114 1
0 0.827887 1
0 0.738659 1
0 0.948456 1
0.522375 1 0.477625
0 0.775424 1
0 0.598945 1
0.0191877 1 0.980812
0 0.253606 1
0 0.509683 1
0 0.302691 1
0 0.809898 1
0 0.84197 1
0.0153914 1 0.984609
0 0.902863 1
0 0.670937 1
0 0.54373 1
0.34863 1 0.65137
0 0.940141 1
0 0.592228 1
0.125759 1 0.874241
0 0.266228 1
0 0.700807 1
0 0.753623 1
0 0.610254 1
0 0.792638 1
0 0.769796 1
0 0.283351 1
0.179623 1 0.820377
0 0.596512 1
0.0942612 1 0.905739
0 0.224266 1
0 0.660091 1
0 0.489128 1
0 0.634383 1
0 0.781136 1
0.0207531 1 0.979247
0 0.172394 1
0 0.892286 1
0 0.859963 1
0 0.4186 1
0 0.697652 1
0 0.819356 1
0 0.738955 1
0 0.685108 1
0 0.262204 1
0 0.860045 1
0.0760658 1 0.923934
0.0737159 1 0.926284
0 0.701798 1
0 0.416618 1
0 0.694027 1
0 0.773215 1
0.0977576 1 0.902242
0 0.761562 1
0 0.321729 1
0.0642453 1 0.935755
0.0497346 1 0.950265
0.0422814 1 0.957719
0 0.860177 1
0 0.641537 1
0 0.569975 1
0 0.438417 1
0 0.404635 1
0 0.554464 1
0 0.590395 1
0 0.648405 1
0 0.359141 1
0.244001 1 0.755999
0 0.848539 1
0 0.6757 1
0 0.517165 1
0 0.685123 1
0 0.39581 1
0 0.670683 1
0 0.340342 1
0 0.715848 1
0 0.455393 1
0.230846 1 0.769154
