# vtk DataFile Version 3.0
Particle simulation
ASCII
DATASET POLYDATA
POINTS 400 float
0.791087 1.34984 0.556253
0.718101 1.34675 0.0639694
0.57976 1.35276 1.59809
0.585917 1.36426 1.00416
0.607879 1.42432 2.54787
0.583181 1.43108 2.18998
0.575518 1.4513 3.34654
0.586466 1.45201 3.02561
0.729165 1.35594 4.29345
0.770367 1.3742 3.84302
0.785042 1.34072 0.537227
0.716744 1.36807 0.0416861
0.583978 1.35782 1.59433
0.580831 1.36159 0.99422
0.594196 1.42934 2.52247
0.591623 1.42418 2.2122
0.577574 1.45317 3.30107
0.576338 1.45557 3.13117
0.724176 1.34044 4.32483
0.76184 1.37266 3.91233
0.244681 1.36775 0.548037
0.301183 1.39491 0.0818273
0.0502951 1.35943 1.59504
0.0500049 1.37747 1.01088
0.0482726 1.44176 2.53194
0.0481689 1.44023 2.19739
0.0472679 1.44925 3.34132
0.0475958 1.458 3.04757
0.281055 1.41488 4.29016
0.243464 1.38 3.83606
0.249042 1.35623 0.545953
0.301855 1.39537 0.0586028
0.0488802 1.3641 1.59423
0.051148 1.37693 0.998393
0.0553324 1.4416 2.52727
0.0406603 1.43889 2.21167
0.0537182 1.44942 3.29843
0.0493252 1.44704 3.09138
0.295732 1.40718 4.32165
0.252877 1.37791 3.85027
0.975208 1.48673 0.611329
1.36717 1.46303 0.0628716
1.6681 1.42132 1.484
1.64472 1.41016 1.05592
1.53427 1.45153 2.56998
1.5459 1.44763 2.24355
1.52656 1.42942 3.13217
1.53244 1.40519 3.24552
1.39919 1.46606 4.19898
0.960811 1.48038 3.78412
0.9729 1.48258 0.602676
1.37192 1.45829 0.0740896
1.67553 1.43012 1.49975
1.64522 1.40884 1.04349
1.53909 1.45004 2.5496
1.54363 1.44782 2.23212
1.53669 1.43559 3.07125
1.51731 1.41842 3.32389
1.40511 1.46359 4.20829
0.959483 1.47584 3.8278
1.36935 1.47362 0.573389
1.51411 1.47333 0.052863
1.2274 1.42485 1.49645
1.25138 1.44227 1.04208
1.06614 1.4492 2.54069
1.05162 1.45084 2.24714
1.15407 1.43221 3.14654
1.17163 1.44516 3.32915
1.50039 1.46786 4.17736
1.35741 1.45106 3.75607
1.37171 1.46813 0.564955
1.51803 1.47623 0.0561147
1.22826 1.4253 1.47033
1.25623 1.43796 1.06539
1.05795 1.45217 2.55751
1.05244 1.45141 2.23525
1.15679 1.43203 3.13201
1.15546 1.42978 3.33899
1.50916 1.45616 4.22661
1.35555 1.44802 3.79791
1.93491 1.478 0.580411
2.10964 1.47517 0.0595048
1.99684 1.49248 1.55149
2.29032 1.47614 1.08348
2.46329 1.44531 2.52698
2.47857 1.45214 2.22254
2.41241 1.44383 3.29488
2.37118 1.45183 3.29086
2.15368 1.45996 4.19231
1.9516 1.46142 3.76749
1.93658 1.47333 0.575144
2.11284 1.47807 0.0630444
1.99534 1.49328 1.51905
2.29204 1.47751 1.05139
2.47509 1.44702 2.51058
2.47577 1.45184 2.19572
2.43543 1.4421 3.21771
2.37421 1.45274 3.25117
2.14979 1.45169 4.25223
1.94745 1.45692 3.82346
2.32544 1.47768 0.576957
2.51738 1.47879 0.0495094
2.33928 1.47892 1.52903
2.49416 1.48137 1.08979
2.15051 1.44497 2.5216
2.15639 1.45539 2.21028
2.11797 1.45777 3.25094
2.14596 1.4425 3.27503
2.5078 1.46575 4.20436
2.29467 1.45833 3.75283
2.32623 1.47299 0.561292
2.51968 1.48157 0.0544336
2.33821 1.48068 1.49739
2.49414 1.48099 1.05887
2.14325 1.44855 2.51918
2.16 1.45545 2.20409
2.12093 1.45551 3.27617
2.13835 1.43936 3.20879
2.4984 1.45491 4.26349
2.28322 1.45041 3.82506
3.16683 1.42684 0.581759
3.25987 1.45262 0.0760759
3.13541 1.47144 1.54201
3.21273 1.47138 1.09538
3.37383 1.45769 2.53506
3.3924 1.45923 2.23153
3.35467 1.46684 3.30133
3.32585 1.46823 3.24125
3.27465 1.4406 4.18865
3.22482 1.42427 3.75253
3.16883 1.42093 0.577764
3.26849 1.45782 0.075365
3.13429 1.4735 1.51809
3.21134 1.47016 1.07702
3.38568 1.46068 2.53305
3.38965 1.45956 2.20949
3.35651 1.46947 3.24685
3.34044 1.46325 3.19575
3.27464 1.43442 4.23608
3.21659 1.41951 3.81479
2.91108 1.42546 0.569793
3.16614 1.47074 0.0707918
2.99836 1.47098 1.53591
3.26793 1.50198 1.08658
3.00174 1.4612 2.54356
2.98089 1.46251 2.22879
2.98636 1.47058 3.29857
2.99455 1.46796 3.26341
3.19812 1.47113 4.20082
2.93365 1.43 3.77525
2.92309 1.41863 0.564339
3.16698 1.4727 0.0506786
3.00287 1.47479 1.53014
3.23115 1.49778 1.08134
2.98858 1.4609 2.52796
2.98085 1.46099 2.2051
2.98977 1.47144 3.22759
2.98562 1.46602 3.17874
3.19005 1.4718 4.24065
2.93126 1.42367 3.83329
4.33886 1.37751 0.684959
4.34989 1.3757 0.0477609
4.24585 1.41249 1.62125
4.2526 1.39412 0.99958
4.38204 1.4497 2.5375
4.37499 1.44178 2.20129
4.3702 1.44641 3.32555
4.37879 1.45588 3.18292
4.31525 1.38673 4.26536
4.27916 1.40168 3.7399
4.32815 1.35535 0.665902
4.34758 1.37627 0.0650748
4.24768 1.41284 1.59318
4.26828 1.38658 0.978654
4.37129 1.43877 2.50496
4.37944 1.44286 2.21384
4.37661 1.44877 3.30955
4.37917 1.44546 3.13002
4.31129 1.38388 4.26822
4.27904 1.3939 3.76807
3.79099 1.3621 0.673582
3.76399 1.38754 0.0393886
3.82197 1.38777 1.60177
3.82324 1.4074 1.01675
3.8681 1.4383 2.53777
3.87917 1.436 2.18955
3.87059 1.44583 3.3329
3.87434 1.44599 3.10701
3.83033 1.38681 4.2377
3.86353 1.37546 3.76834
3.79801 1.3483 0.662106
3.77313 1.37842 0.0364839
3.82162 1.39213 1.60896
3.82403 1.4068 1.00119
3.87767 1.43682 2.53035
3.87004 1.43445 2.20657
3.88204 1.44763 3.29068
3.87518 1.44699 3.17862
3.82106 1.38786 4.25861
3.8715 1.37718 3.79368
0.769378 1.01322 0.573917
0.750822 1.00665 0.00603181
0.563621 1.02724 1.62273
0.567356 1.01531 0.979685
0.564333 0.948637 2.50901
0.567121 0.941479 2.19587
0.561984 0.91819 3.34381
0.56354 0.930307 3.03204
0.744344 0.979169 4.32226
0.752759 1.01851 3.87809
0.767317 1.02355 0.526942
0.745586 1.00285 0.0620942
0.566733 1.02638 1.60609
0.56255 1.01594 0.972915
0.559566 0.941576 2.49368
0.574015 0.95331 2.20752
0.561982 0.921997 3.30039
0.566902 0.911917 3.11136
0.743677 0.970906 4.34335
0.750181 1.02038 3.9186
0.213361 0.979021 0.563557
0.197851 0.966903 0.0723234
0.0431745 1.00978 1.6091
0.0242904 0.983974 0.982817
0.0509011 0.931016 2.51089
0.0345082 0.91739 2.20356
0.0354732 0.909119 3.33841
0.0444771 0.913936 3.03548
0.239878 0.960968 4.31898
0.260383 0.985732 3.83224
0.222908 0.98227 0.562967
0.205751 0.964581 0.0317597
0.0420975 1.00929 1.58584
0.0255107 0.983017 0.968038
0.0502852 0.928909 2.49955
0.0283511 0.916704 2.19378
0.0503296 0.917356 3.2969
0.0427822 0.915086 3.09247
0.237187 0.948992 4.36139
0.261732 0.983027 3.8641
0.977496 0.909102 0.617707
1.4261 0.917839 0.0512799
1.64781 0.941281 1.49182
1.64708 0.93885 1.05366
1.52775 0.931619 2.56063
1.53109 0.91135 2.24653
1.57426 0.950566 3.14032
1.56386 0.914281 3.51743
1.43639 0.924058 4.20748
0.957819 0.905448 3.79139
0.976346 0.908684 0.593503
1.42828 0.919251 0.0503179
1.64563 0.93863 1.50039
1.64649 0.940356 1.05459
1.5264 0.928428 2.544
1.53057 0.912969 2.23874
1.55542 0.923088 2.97527
1.55337 0.929898 3.55535
1.43209 0.9237 4.21093
0.954939 0.898959 3.84111
1.37482 0.90688 0.564379
1.50986 0.897992 0.0449054
1.25406 0.93271 1.49697
1.22137 0.92519 1.06131
1.06363 0.922874 2.53951
1.04875 0.907342 2.24612
1.09499 0.923137 3.11897
1.14588 0.936957 3.36135
1.50922 0.912918 4.20796
1.36837 0.919416 3.75951
1.37587 0.906192 0.554809
1.51304 0.896778 0.046812
1.2539 0.930662 1.47199
1.23083 0.930165 1.02713
1.05934 0.921558 2.55184
1.04906 0.908186 2.23818
1.09512 0.9239 3.12228
1.16902 0.921523 3.47895
1.50745 0.911831 4.20372
1.36647 0.915451 3.80129
1.9316 0.898893 0.566985
2.10556 0.889485 0.0517515
1.97273 0.892856 1.55018
2.33593 0.909137 1.06971
2.47313 0.936431 2.52949
2.47968 0.929143 2.20898
2.44218 0.930912 3.28063
2.38102 0.93222 3.31016
2.14668 0.915774 4.23338
1.94124 0.914171 3.77796
1.93259 0.89787 0.559982
2.10811 0.888359 0.0532865
1.97145 0.892337 1.5177
2.33682 0.909873 1.0371
2.46482 0.928308 2.49145
2.48457 0.919439 2.17847
2.45444 0.931002 3.22288
2.37537 0.92853 3.28633
2.14019 0.911469 4.23539
1.93709 0.908347 3.83467
2.32031 0.910304 0.560702
2.52801 0.890038 0.0421109
2.34606 0.901567 1.52026
2.50239 0.892607 1.08466
2.15081 0.910201 2.517
2.1471 0.888174 2.22403
2.10752 0.925954 3.26448
2.16618 0.930294 3.30924
2.52458 0.911282 4.24219
2.29083 0.92931 3.76236
2.31802 0.910351 0.535135
2.52998 0.889031 0.0439918
2.34498 0.901174 1.48701
2.50244 0.893489 1.05261
2.15258 0.914448 2.51663
2.1504 0.878414 2.22528
2.13238 0.937369 3.21635
2.15937 0.928966 3.26869
2.51687 0.907859 4.24186
2.2777 0.916294 3.83056
3.23049 0.946367 0.557686
3.26937 0.905455 0.0630992
3.14828 0.893768 1.53211
3.20486 0.894086 1.09097
3.38522 0.921595 2.53968
3.39464 0.90379 2.22973
3.36839 0.915924 3.27086
3.3358 0.916192 3.286
3.27072 0.923612 4.22199
3.22049 0.940683 3.7827
3.23264 0.945417 0.556702
3.27536 0.90335 0.0671537
3.14938 0.893299 1.50361
3.20347 0.894928 1.0723
3.389 0.920903 2.52974
3.39365 0.904251 2.20982
3.36537 0.917811 3.20752
3.33717 0.91308 3.25139
3.26577 0.920578 4.22448
3.22 0.932004 3.82346
2.93926 0.940532 0.531079
3.12551 0.903798 0.0552168
3.00584 0.897285 1.52234
3.28229 0.87873 1.07995
3.00627 0.932892 2.54178
2.99605 0.910409 2.23268
2.99637 0.919996 3.27191
2.99758 0.9198 3.28049
3.18047 0.916358 4.21264
2.9233 0.945177 3.81835
2.94247 0.942523 0.530221
3.12774 0.901265 0.037005
3.00887 0.897454 1.50672
3.2778 0.879618 1.05833
3.00181 0.927129 2.52064
2.996 0.910212 2.21221
2.9984 0.92196 3.21274
2.99513 0.916608 3.25377
3.18316 0.910778 4.25395
2.92912 0.941849 3.87225
4.37859 0.996075 0.64879
4.39015 0.964155 0.0271336
4.26622 0.956862 1.6203
4.30039 0.94041 0.983282
4.3926 0.924793 2.53201
4.39069 0.911151 2.20661
4.38149 0.907372 3.32101
4.38208 0.918729 3.18868
4.33476 0.948777 4.29839
4.3099 0.984478 3.77614
4.37688 0.99606 0.659979
4.38545 0.964866 0.0502166
4.26784 0.955881 1.58334
4.30521 0.928659 0.95109
4.38154 0.925503 2.49504
4.39346 0.909112 2.19789
4.38354 0.918633 3.30475
4.39618 0.914985 3.12436
4.3322 0.945167 4.30057
4.31378 0.98227 3.80349
3.80527 1.03069 0.673503
3.80524 1.00237 0
3.8617 0.999236 1.62858
3.85637 0.999584 1.01032
3.911 0.946954 2.51568
3.90967 0.936126 2.19624
3.88688 0.926558 3.33325
3.89463 0.927495 3.09349
3.86473 0.985527 4.26532
3.88856 1.03251 3.8025
3.82376 1.04246 0.632591
3.81399 0.997294 0.0228909
3.86038 0.99911 1.61669
3.8565 0.999203 0.99615
3.91139 0.945656 2.50375
3.90029 0.936347 2.20443
3.90268 0.932391 3.28596
3.89141 0.930919 3.17808
3.84574 0.969892 4.29159
3.89554 1.03629 3.82426
POINT_DATA 400
SCALARS particleColor float 3
LOOKUP_TABLE default
0 0.712716 1
0 0.531204 1
0 0.575241 1
0 0.349511 1
0 0.630657 1
0 0.318348 1
0 0.509196 1
0 0.604325 1
0 0.519194 1
0 0.717779 1
0 0.663819 1
0 0.50028 1
0 0.356615 1
0 0.534255 1
0 0.438719 1
0 0.438822 1
0 0.488116 1
0 0.48897 1
0 0.564766 1
0 0.673488 1
0 0.251563 1
0 0.205143 1
0 0.524577 1
0 0.259959 1
0 0.452333 1
0 0.211775 1
0 0.448435 1
0 0.482092 1
0 0.148072 1
0 0.390805 1
0 0.288818 1
0 0.242751 1
0 0.2869 1
0 0.488322 1
0 0.440007 1
0 0.374638 1
0 0.431076 1
0 0.535918 1
0 0.180169 1
0 0.435461 1
0 0.349309 1
0 0.460921 1
0 0.72416 1
0 0.605965 1
0 0.78189 1
0 0.356612 1
0 0.393794 1
0 0.531742 1
0 0.495543 1
0 0.635574 1
0 0.425769 1
0 0.52811 1
0 0.663756 1
0 0.688023 1
0 0.486389 1
0 0.45732 1
0 0.538536 1
0 0.44397 1
0 0.488656 1
0 0.521813 1
0 0.29139 1
0 0.275423 1
0 0.418919 1
0 0.18535 1
0 0.671428 1
0 0.326748 1
0 0.485003 1
0 0.260102 1
0 0.164877 1
0 0.662699 1
0 0.339146 1
0 0.168929 1
0 0.230975 1
0 0.312023 1
0 0.496625 1
0 0.442995 1
0 0.23277 1
0 0.484572 1
0 0.174367 1
0 0.530916 1
0 0.260956 1
0 0.275132 1
0 0.552964 1
0 0.417392 1
0 0.717032 1
0 0.418077 1
0 0.775022 1
0 0.527048 1
0 0.217348 1
0 0.647957 1
0 0.354478 1
0 0.196467 1
0 0.257862 1
0 0.586658 1
0 0.463815 1
0 0.578858 1
0 0.675142 1
0 0.79479 1
0 0.225691 1
0 0.488641 1
0 0.381076 1
0 0.292068 1
0 0.531632 1
0 0.242641 1
0 0.661476 1
0 0.352113 1
0 0.64748 1
0 0.605482 1
0 0.164629 1
0 0.728924 1
0 0.432587 1
0 0.166561 1
0 0.317399 1
0 0.484359 1
0 0.408947 1
0 0.459263 1
0 0.767686 1
0 0.641907 1
0 0.235305 1
0 0.581665 1
0 0.404769 1
0 0.418702 1
0 0.678876 1
0 0.339364 1
0 0.693691 1
0 0.380889 1
0 0.633659 1
0 0.572726 1
0 0.386231 1
0 0.738962 1
0 0.470016 1
0 0.415659 1
0 0.479071 1
0 0.477278 1
0 0.490845 1
0 0.51962 1
0 0.621644 1
0 0.653693 1
0 0.374434 1
0 0.567679 1
0 0.551278 1
0 0.733598 1
0 0.75322 1
0 0.6335 1
0 0.728978 1
0 0.449987 1
0 0.792216 1
0 0.546674 1
0 0.59549 1
0 0.668706 1
0 0.531721 1
0 0.699235 1
0 0.615816 1
0 0.689282 1
0 0.486255 1
0 0.57523 1
0 0.635658 1
0 0.74228 1
0 0.728923 1
0 0.542166 1
0 0.396637 1
0 0.276989 1
0 0.56999 1
0 0.382574 1
0 0.573182 1
0 0.165394 1
0 0.535301 1
0 0.539293 1
0 0.138693 1
0 0.481914 1
0 0.403376 1
0 0.148799 1
0 0.294435 1
0 0.514321 1
0 0.326742 1
0 0.323767 1
0 0.632285 1
0 0.582223 1
0 0.0938752 1
0 0.519349 1
0 0.56698 1
0 0.452922 1
0 0.626077 1
0 0.461221 1
0 0.562941 1
0 0.38001 1
0 0.65217 1
0 0.517388 1
0 0.350994 1
0 0.506285 1
0 0.53324 1
0 0.542655 1
0 0.45457 1
0 0.616952 1
0 0.507573 1
0 0.4978 1
0 0.595305 1
0 0.576489 1
0 0.403748 1
0 0.509938 1
0 0.678279 1
0 0.548525 1
0 0.590898 1
0 0.359008 1
0 0.524961 1
0 0.320261 1
0 0.539497 1
0 0.588511 1
0 0.524771 1
0 0.673766 1
0 0.642988 1
0 0.561873 1
0 0.335655 1
0 0.554879 1
0 0.465074 1
0 0.424184 1
0 0.518403 1
0 0.540283 1
0 0.562872 1
0 0.659771 1
0 0.257104 1
0 0.195271 1
0 0.540622 1
0 0.273874 1
0 0.448291 1
0 0.298503 1
0 0.509658 1
0 0.476331 1
0 0.173803 1
0 0.39349 1
0 0.325263 1
0 0.205736 1
0 0.261071 1
0 0.525889 1
0 0.431513 1
0 0.465595 1
0 0.473584 1
0 0.550646 1
0 0.363319 1
0 0.414156 1
0 0.39303 1
0 0.615963 1
0 0.729932 1
0 0.615002 1
0 0.777054 1
0 0.378775 1
0 0.488846 1
0 0.510843 1
0 0.615649 1
0 0.645969 1
0 0.445323 1
0 0.691053 1
0 0.654905 1
0 0.679638 1
0 0.514854 1
0 0.472433 1
0 0.455415 1
0 0.504164 1
0 0.60932 1
0 0.537588 1
0 0.335143 1
0 0.352608 1
0 0.432803 1
0 0.411883 1
0 0.676194 1
0 0.391573 1
0 0.606495 1
0 0.48177 1
0 0.290317 1
0 0.694593 1
0 0.379741 1
0 0.267692 1
0 0.23092 1
0 0.48974 1
0 0.507651 1
0 0.494155 1
0 0.45901 1
0 0.479855 1
0 0.244765 1
0 0.57476 1
0 0.313327 1
0 0.352045 1
0 0.580234 1
0 0.546984 1
0 0.73236 1
0 0.552458 1
0 0.746012 1
0 0.579058 1
0 0.314073 1
0 0.653161 1
0 0.38916 1
0 0.288145 1
0 0.317487 1
0 0.68892 1
0 0.455982 1
0 0.592729 1
0 0.757503 1
0 0.825736 1
0 0.287033 1
0 0.514707 1
0 0.412555 1
0 0.360129 1
0 0.539493 1
0 0.318896 1
0 0.641667 1
0 0.588216 1
0 0.853579 1
0 0.535206 1
0 0.309164 1
0 0.728096 1
0 0.436861 1
0 0.264478 1
0 0.348481 1
0 0.528498 1
0 0.436952 1
0 0.615316 1
0 0.69368 1
0 0.778256 1
0 0.256645 1
0 0.619061 1
0 0.444958 1
0 0.492607 1
0 0.716025 1
0 0.403057 1
0 0.705739 1
0 0.494153 1
0 0.721333 1
0 0.480419 1
0 0.428136 1
0 0.729644 1
0 0.507907 1
0 0.477864 1
0 0.523378 1
0 0.52207 1
0 0.503937 1
0 0.606957 1
0 0.580355 1
0 0.747741 1
0 0.420337 1
0 0.639653 1
0 0.512853 1
0 0.829317 1
0 0.773433 1
0 0.618473 1
0 0.722241 1
0 0.458786 1
0 0.763787 1
0 0.489549 1
0 0.664395 1
0 0.650004 1
0 0.525425 1
0 0.784049 1
0 0.634991 1
0 0.740144 1
0 0.484929 1
0 0.582931 1
0 0.614971 1
0 0.749111 1
0 0.802082 1
0 0.542763 1
0 0.304512 1
0 0.332592 1
0 0.575536 1
0 0.382048 1
0 0.573004 1
0 0.288224 1
0 0.58663 1
0 0.537541 1
0 0.216628 1
0 0.426945 1
0 0.45676 1
0 0.139794 1
0 0.284154 1
0 0.627411 1
0 0.34324 1
0 0.437045 1
0 0.664258 1
0 0.656333 1
0 0.141141 1
0 0.467789 1
0 0.559534 1
0 0.414396 1
0 0.630188 1
0 0.449011 1
0 0.517304 1
0 0.36343 1
0 0.672084 1
0 0.537557 1
0 0.273126 1
0 0.448692 1
0 0.482845 1
0 0.501283 1
0 0.429629 1
0 0.604859 1
0 0.47984 1
0 0.481207 1
0 0.591361 1
0 0.586181 1
0 0.441174 1
0 0.458862 1
