# vtk DataFile Version 3.0
Particle simulation
ASCII
DATASET POLYDATA
POINTS 400 float
1.80557 0.931038 4.86533
2.72966 7.28983 3.61056
2.84565 3.23958 6.89962
9.89886 0.709823 8.54763
7.86787 0.688541 3.55387
1.10334 1.80657 5.13071
1.87252 5.09599 3.35876
1.56672 5.69058 3.95665
8.4921 2.53961 5.68278
5.04818 4.67378 5.64096
1.08466 5.62403 2.09098
9.25939 3.47119 4.47214
2.28923 7.36733 8.47963
2.4254 7.60286 4.50483
0.554366 2.58003 5.84732
6.90344 1.80672 6.51842
5.23759 6.70713 0.39791
5.64249 2.68503 6.18467
8.93903 7.45663 1.28893
1.73009 3.2537 6.67836
5.64403 3.19361 3.07731
4.51203 6.65757 2.34114
0.878667 8.458 4.97776
3.64963 8.02592 7.9164
0.631433 4.36242 4.83779
1.92462 6.62316 4.85268
5.21409 9.33989 3.73694
1.14642 9.65271 6.08974
2.97871 7.12589 6.31434
6.19682 5.58731 0.759766
7.13235 1.58426 5.53033
10 2.20748 9.57752
4.87504 1.78333 7.07364
8.29726 8.41009 6.00243
6.24395 1.28305 9.15254
1.3147 3.69058 9.7186
9.92814 3.0791 1.83027
5.08014 0.635882 2.33726
5.52262 7.9991 8.48158
8.04407 1.57305 3.79266
6.26584 0.157273 5.62937
6.96841 8.72179 2.1516
1.07991 5.26833 7.30686
9.19191 3.06958 9.08079
3.69386 5.97429 8.79069
8.71132 5.08776 3.87918
9.13878 2.37139 1.54302
5.32806 2.03866 2.68544
8.04668 5.16094 3.78779
0.865605 0.919632 3.62559
3.41917 0.295941 2.07145
7.32142 0.715424 6.05216
4.72549 2.68037 2.57418
7.85795 3.79222 2.90271
9.0006 1.64517 5.62656
3.32476 3.95192 1.79957
0.386834 9.92705 7.08394
4.40253 2.46206 2.89741
8.47427 5.1035 7.25654
8.35783 1.63026 7.53103
3.25513 3.73139 0.817984
0.658398 1.0716 4.28278
9.23202 9.6443 5.29171
3.64206 7.03371 0.741628
2.48995 7.40358 7.492
1.26125 7.58019 4.59574
9.43332 3.67233 0.335274
7.44357 10 5.93335
8.93131 1.92111 4.92556
0.096505 5.94953 5.03115
1.13449 6.18827 4.63825
3.193 4.94514 4.31603
1.02072 1.93167 0.515206
3.86018 2.1469 3.44696
2.76678 4.43062 3.05821
0.614532 5.25858 6.58454
1.26561 1.22384 3.62768
0 2.13514 10
6.5344 7.46454 3.32626
0.245846 2.58585 6.36591
5.83783 2.132 8.45206
4.7756 8.36051 5.64641
6.5672 2.00897 6.66392
4.31365 2.06434 4.57307
9.68658 7.51134 5.27269
8.04017 0.563127 8.05476
2.48081 4.31399 0.660182
3.37793 8.32343 5.24969
7.80486 0.85006 8.68532
1.80676 5.2842 4.78513
4.96023 0.729336 1.57342
1.63089 0.766766 9.97548
1.03261 7.85848 0.00758852
5.79325 2.63153 5.80639
8.45149 3.36441 9.8616
4.74377 0.231598 5.98114
9.24201 4.06666 0.698622
5.96975 6.24182 1.60085
2.51162 3.3493 2.96165
7.01634 6.72216 5.52483
7.21909 4.46643 6.49101
4.35308 9.46622 8.4561
8.239 3.03414 7.7879
0.108005 5.9577 1.42408
1.81074 3.41551 2.43277
8.56714 0.726949 1.41696
2.85928 3.14657 8.38197
4.43273 8.76352 1.85006
3.45981 5.23536 2.76057
6.84632 4.61118 7.92761
2.06802 3.07506 1.64061
6.57119 3.619 6.5228
1.22226 4.01559 7.98626
10 6.97614 4.50257
2.8239 5.90435 6.62962
6.36457 9.11476 0.404183
1.30919 9.68302 1.44093
5.1114 1.9725 0
10 6.549 6.64942
9.21047 9.52374 0.833089
7.65704 7.52143 9.72774
1.62959 0.236524 7.65095
1.21689 0.46675 8.55375
9.04617 1.89427 3.35444
3.00487 1.2081 4.80387
7.02028 3.0043 3.80705
7.19505 1.68977 4.29205
4.03003 2.50366 5.33278
2.33173 0.877096 2.34915
0 9.36246 7.11511
7.11826 4.48632 9.55367
8.22872 4.7074 6.78843
9.79213 1.93936 6.96051
9.65249 0.54457 7.03523
0.350646 8.65088 2.30147
5.46184 5.83207 4.61833
7.74199 4.11446 0.129145
9.56778 3.87356 6.86999
1.78497 9.33169 6.26454
3.3647 8.57519 0.95987
6.18204 5.65002 7.54541
9.73353 5.71473 3.5615
3.69979 4.01199 1.83991
0.131197 3.07043 1.4142
9.16182 7.2854 9.0537
0.321187 1.64598 3.08246
9.12334 1.84748 5.3134
7.20625 9.28288 3.97569
4.41823 7.98038 7.68202
9.38535 3.41798 8.77913
7.50395 0.127183 7.60155
9.52573 0 5.67978
6.58291 2.14654 9.4156
4.47854 3.53902 4.10431
1.74423 4.11833 7.57047
8.92507 3.52143 1.90425
8.63622 7.91436 3.37459
6.17441 2.45813 5.19697
0.27777 1.00443 2.58589
9.6194 7.59371 2.91048
6.64635 2.30363 1.83516
2.18622 1.1766 0.5578
7.71663 2.59228 0.0145873
0.265536 0.56543 8.4268
7.81159 4.91779 6.38649
2.80232 1.28155 6.00261
1.97625 0.941381 7.41462
9.76831 2.05615 1.75819
0.743075 1.58129 8.81174
9.20884 3.41835 6.5928
1.5612 8.1138 3.47678
6.1933 5.88197 4.97352
1.3205 3.75805 1.16564
0.0858997 1.89993 0.70573
3.28918 9.01127 1.46088
6.70405 1.21814 4.45316
0.459321 8.54888 6.14983
9.0292 1.69387 2.61138
5.61488 10 2.55113
3.77774 7.90974 0.0455263
7.62776 8.16981 3.40872
5.80573 4.34432 9.3902
3.65098 8.14105 5.89688
9.48489 7.62046 8.46611
9.67131 1.24327 3.45413
1.88303 4.0283 7.47515
8.9112 7.16442 9.56497
7.85688 7.47607 9.73827
8.04956 4.01825 7.86686
1.60983 8.0299 4.65901
2.88972 1.28275 4.45063
3.68159 2.05294 0.0115942
1.65106 1.20129 4.81493
3.91595 3.71069 4.76742
8.15268 1.00542 7.25377
2.19778 2.68628 9.8906
9.81895 5.77533 4.82458
3.82806 3.0756 2.09399
9.9246 9.39784 9.91757
2.34561 2.77552 0.385979
0.971847 5.61266 6.40461
8.53355 6.41156 5.58133
5.72511 9.39302 3.03087
5.23778 1.32253 9.26515
5.03823 6.38652 9.47355
6.41221 6.70713 9.33398
8.73038 9.77768 3.611
6.10286 4.9369 2.0416
1.27992 9.29558 2.05893
3.08792 6.26457 3.12534
6.70683 8.19245 8.80959
4.92544 3.83937 3.84138
5.73725 3.70443 3.38004
4.20152 10 4.18241
3.78081 3.18648 2.1485
0.0845279 4.11767 2.78262
2.27281 0.86311 2.24717
3.07181 8.70358 4.82599
8.95109 0.680079 7.7577
7.45736 8.03606 8.25189
1.21084 10 8.3914
1.32475 2.48977 2.26746
2.99277 0.982038 9.06299
7.74078 0.394446 7.43792
2.81796 4.96 2.97085
1.9098 1.12941 9.79358
3.25469 3.88802 3.01761
3.5111 7.85348 0.0446826
7.88178 0.20752 7.48607
6.13502 9.12198 3.08204
9.64624 1.09854 8.15685
1.43428 7.60905 8.43848
9.83321 3.00816 6.5429
5.30009 9.55419 2.96771
6.03393 9.86845 2.64242
3.16397 5.11347 8.03077
8.28892 3.51261 3.26794
6.04646 4.83797 7.24065
7.57577 0.665992 7.44155
7.06136 7.49717 4.3615
7.75075 0.131202 7.67227
7.93238 5.46155 5.7609
0 6.17562 2.00359
9.03547 7.47177 6.34821
9.76356 6.04849 1.39954
9.58112 1.14564 4.12666
4.83898 1.32561 0.0384194
7.99585 3.76614 3.768
2.75945 4.72447 9.31715
2.65381 4.63961 2.7652
9.48943 7.29678 8.29704
7.12614 6.09844 5.25711
6.65184 4.47298 9.27302
8.80713 2.41188 8.28688
7.17005 4.56217 9.06308
2.32388 8.27019 2.0952
7.4628 3.8543 1.12943
1.34783 1.72964 0.44573
8.815 0.315067 5.0171
1.69496 4.89806 0.407366
0.553578 7.42128 2.56714
1.34115 3.87052 1.76939
4.94882 8.79349 2.58113
9.23294 7.38453 1.64933
5.00762 8.64256 7.27237
4.92247 1.83507 6.91296
3.07036 0.697444 6.1884
10 5.5873 9.60097
1.73048 7.29793 4.40285
9.40344 2.2438 6.02647
1.22578 4.90589 9.88412
6.7214 0 9.6535
7.58868 2.46036 9.17802
0.125094 4.93996 9.37065
1.47178 1.19466 9.1805
2.07089 6.42061 0.712697
8.91174 8.999 3.25411
2.13706 5.85467 6.65244
7.6963 9.26175 2.25293
10 1.98721 8.63611
9.29837 0.696086 9.59863
7.62279 2.45494 9.40674
1.06734 5.23093 1.70632
9.29785 9.33518 7.06683
5.86518 8.96602 1.54052
4.14167 6.40147 2.37789
8.58647 3.28167 0.606007
8.27898 8.4347 5.46422
2.38695 2.24703 9.82385
6.67945 2.6114 1.40421
0.815489 7.59948 0.0672901
1.75431 8.88492 2.8724
1.64342 7.31166 6.73276
8.64854 5.77155 9.97715
8.81495 7.40873 6.08285
0.527544 9.03061 1.7848
7.08507 0.673685 7.50544
9.60968 0.116327 4.23721
7.47943 0.331454 7.75015
4.74649 0.27684 6.36662
0.790331 6.76273 6.65424
2.95005 3.63561 7.45661
8.36769 0.379764 7.79268
8.22603 7.30912 7.77039
7.616 0.519573 7.48672
2.42997 3.57305 7.38214
9.85742 0.25259 5.77393
7.41629 0.20772 7.70615
3.59475 5.17449 6.6267
5.12043 2.34062 5.32755
3.81924 8.31473 0
1.92238 7.58162 3.12392
2.41168 5.38849 10
7.38683 0.527567 7.63324
2.65698 10 2.32055
2.33838 1.71433 1.09479
8.04504 2.26427 7.77261
7.86418 0.312797 8.07955
8.59124 9.25357 3.39624
0.97726 0.441933 6.80748
10 2.93446 1.97335
0.292239 0.391713 2.50744
1.09068 1.06941 8.86347
7.48924 0.488784 7.09749
7.51835 0.432221 7.18356
5.54764 6.02938 4.78087
10 1.27714 9.50364
9.0009 4.44383 2.44441
8.01368 8.65734 7.03253
7.58231 0.312641 7.39393
2.6378 2.01754 7.0809
4.3413 0.0312582 6.88098
7.12219 3.26695 6.23154
4.18156 1.24963 8.94239
4.21318 4.74672 3.5591
4.04736 0.743234 7.07186
5.53997 8.76464 8.64587
7.84695 0.50438 7.14932
10 2.56545 9.31839
9.13975 1.1664 3.81753
7.32463 0 10
9.90905 4.15806 8.48063
1.40506 4.31187 10
1.58979 0.416625 8.58437
8.75912 4.65278 8.66304
2.67414 0.347693 9.07296
5.61074 0.305972 3.08553
7.35002 5.5198 4.20463
7.63299 0.59827 7.6827
6.39162 7.38792 1.86504
7.54326 0.565262 7.82816
7.44027 0.185492 7.40632
9.45458 2.50055 9.43087
5.68922 8.51614 4.15139
2.57713 0.966696 4.82709
7.95725 0.186058 7.59732
1.04878 6.28987 3.66237
7.74027 7.66498 3.15969
6.9777 0.949188 8.41936
7.56663 0.201334 7.50545
1.7009 0 5.75138
1.25356 0.201501 8.3197
1.76367 0.611011 8.98342
7.43771 0.169804 7.77296
9.75564 8.62364 5.05139
9.78992 1.7409 5.34101
1.62318 0.64889 8.58669
1.51494 9.00832 0
7.20126 9.69551 0.3195
0 1.50083 8.50191
5.37071 0.0497979 2.84324
8.74226 9.35396 0
8.03125 5.75775 5.64382
7.98893 0.309758 7.35535
7.68317 0.287757 7.16502
9.4005 8.66072 0.568375
1.5662 0.6993 8.62638
9.28566 8.0777 2.99741
2.97529 1.59444 4.86417
7.65355 0.192707 7.28344
7.90244 0.329966 8.84453
7.55885 0.396421 7.76696
9.98141 2.31065 6.31438
7.0497 0.146552 7.59646
2.41913 1.17525 2.93835
1.74567 0.685907 8.59668
7.89026 0.267413 7.62459
7.53125 0.371698 7.79197
8.31547 5.86311 7.3554
7.2085 0.468699 7.01606
7.60681 0.0876795 7.73282
7.65562 0.0651903 7.60895
5.90004 2.91858 2.96993
7.6433 0.355203 7.76001
0.360031 8.68358 1.60654
3.24888 4.05402 4.65652
7.63828 0.143757 7.66618
0.215416 0.872236 0.322096
2.09313 7.95841 9.10343
5.53706 5.35733 9.48711
POINT_DATA 400
SCALARS particleColor float 3
LOOKUP_TABLE default
1 0.461304 0
1 0.0973608 0
0.830169 1 0.169831
1 0.90721 0
1 0.716404 0
0.850848 1 0.149152
0.63337 1 0.36663
1 5.96046e-08 0
1 5.96046e-08 0
1 0.192453 0
0.808169 1 0.191831
0.558254 1 0.441746
1 5.96046e-08 0
1 5.96046e-08 0
1 5.96046e-08 0
1 5.96046e-08 0
1 5.96046e-08 0
1 0.970912 0
0 0.929474 1
1 0.365724 0
1 0.411805 0
1 5.96046e-08 0
1 5.96046e-08 0
1 5.96046e-08 0
1 5.96046e-08 0
1 5.96046e-08 0
0.763014 1 0.236986
0.282201 1 0.717799
1 0.884918 0
0.18068 1 0.81932
1 5.96046e-08 0
1 5.96046e-08 0
1 5.96046e-08 0
1 0.875209 0
1 0.476424 0
1 0.416446 0
1 0.361455 0
0.645021 1 0.354979
1 5.96046e-08 0
1 0.954264 0
1 5.96046e-08 0
1 0.936217 0
0.694419 1 0.305581
0.801485 1 0.198515
1 0.789147 0
0.766647 1 0.233353
1 0.651196 0
0.920035 1 0.0799651
1 0.640441 0
0 0.749716 1
1 0.788693 0
0.372307 1 0.627693
1 5.96046e-08 0
1 0.579919 0
1 5.96046e-08 0
0.40309 1 0.59691
1 0.282932 0
0.421272 1 0.578728
1 5.96046e-08 0
1 5.96046e-08 0
1 0.596944 0
1 5.96046e-08 0
1 5.96046e-08 0
1 0.155925 0
0.285496 1 0.714504
1 0.0773473 0
1 0.0371771 0
1 0.60204 0
1 5.96046e-08 0
1 5.96046e-08 0
1 5.96046e-08 0
1 0.863114 0
0 0.554324 1
1 5.96046e-08 0
1 5.96046e-08 0
0.855161 1 0.144839
0.982791 1 0.0172089
1 5.96046e-08 0
1 0.123798 0
1 5.96046e-08 0
1 5.96046e-08 0
1 0.987055 0
0.60749 1 0.39251
1 5.96046e-08 0
1 5.96046e-08 0
0.962686 1 0.0373141
1 0.462053 0
0.727184 1 0.272816
0.553441 1 0.446559
1 5.96046e-08 0
0.790125 1 0.209875
1 5.96046e-08 0
0 0.855622 1
1 5.96046e-08 0
1 5.96046e-08 0
0.494009 1 0.505991
0.147146 1 0.852854
1 5.96046e-08 0
1 0.907981 0
1 0.729312 0
1 0.532032 0
1 0.404122 0
1 5.96046e-08 0
0.738012 1 0.261988
1 0.94044 0
0.630193 1 0.369807
0.693237 1 0.306763
1 0.854237 0
1 5.96046e-08 0
0.893101 1 0.106899
1 5.96046e-08 0
1 0.139602 0
1 0.371481 0
0.955682 1 0.044318
1 5.96046e-08 0
0 0.927838 1
1 5.96046e-08 0
0.914049 1 0.0859508
1 5.96046e-08 0
0.971105 1 0.0288949
1 5.96046e-08 0
1 5.96046e-08 0
0.831375 1 0.168625
1 5.96046e-08 0
1 5.96046e-08 0
1 0.773321 0
0.913813 1 0.0861865
0.862025 1 0.137975
1 5.96046e-08 0
0 0.947255 1
1 0.253147 0
0.931426 1 0.0685744
1 0.992351 0
1 0.634324 0
1 5.96046e-08 0
0.034507 1 0.965493
0 0.884588 1
0.824855 1 0.175145
1 5.96046e-08 0
1 0.328888 0
1 0.769758 0
1 5.96046e-08 0
1 0.218336 0
1 0.350161 0
1 5.96046e-08 0
1 0.398408 0
1 0.0939491 0
1 5.96046e-08 0
1 0.888944 0
0.995219 1 0.00478119
0 0.546037 1
0.802192 1 0.197808
1 0.558868 0
0.555465 1 0.444535
1 5.96046e-08 0
0.631653 1 0.368347
1 5.96046e-08 0
1 5.96046e-08 0
1 5.96046e-08 0
1 0.661129 0
1 5.96046e-08 0
1 0.686379 0
1 5.96046e-08 0
0.89625 1 0.10375
1 5.96046e-08 0
1 0.194982 0
1 0.52681 0
1 5.96046e-08 0
0.732961 1 0.267039
0.580174 1 0.419826
0 0.467329 1
1 0.139878 0
1 0.669743 0
1 0.926974 0
1 5.96046e-08 0
0.295467 1 0.704533
1 0.667093 0
0.28522 1 0.71478
1 5.96046e-08 0
0.938561 1 0.0614392
0.619819 1 0.380181
1 5.96046e-08 0
1 0.41885 0
1 0.751068 0
1 0.505936 0
1 0.988561 0
1 5.96046e-08 0
0.614083 1 0.385917
1 0.356823 0
1 0.605238 0
1 0.525855 0
1 5.96046e-08 0
1 0.629444 0
1 5.96046e-08 0
0.489466 1 0.510534
0 0.780266 1
1 5.96046e-08 0
1 5.96046e-08 0
0.858795 1 0.141205
1 5.96046e-08 0
0.99042 1 0.0095799
1 0.899446 0
1 0.169164 0
1 5.96046e-08 0
1 5.96046e-08 0
0.835682 1 0.164318
1 5.96046e-08 0
1 0.457244 0
1 0.750925 0
0.880301 1 0.119699
1 0.963405 0
1 5.96046e-08 0
1 0.111294 0
1 0.333666 0
0.207663 1 0.792337
0 0.753489 1
1 0.431226 0
1 0.403283 0
0.146315 1 0.853685
0.85838 1 0.14162
1 5.96046e-08 0
1 5.96046e-08 0
0.819056 1 0.180944
0.379034 1 0.620966
1 5.96046e-08 0
1 5.96046e-08 0
1 0.660235 0
0.729485 1 0.270515
0 0.234137 1
0.416251 1 0.583749
0.297651 1 0.702349
1 5.96046e-08 0
1 5.96046e-08 0
1 0.14347 0
0.558009 1 0.441991
1 0.859568 0
0.954881 1 0.0451187
1 5.96046e-08 0
0 0.721425 1
1 5.96046e-08 0
0.0561882 1 0.943812
1 0.214897 0
1 5.96046e-08 0
1 5.96046e-08 0
1 5.96046e-08 0
1 0.120245 0
1 0.193088 0
1 5.96046e-08 0
0.148021 1 0.851979
1 5.96046e-08 0
1 0.188608 0
0.81977 1 0.18023
1 0.508897 0
0.603718 1 0.396282
0.890981 1 0.109019
1 0.958251 0
0.630346 1 0.369654
0.361524 1 0.638476
1 0.950376 0
1 5.96046e-08 0
1 5.96046e-08 0
1 0.379056 0
1 0.884613 0
1 5.96046e-08 0
0.5126 1 0.4874
0.58717 1 0.41283
1 5.96046e-08 0
1 0.630939 0
0.301253 1 0.698747
1 0.307629 0
1 5.96046e-08 0
1 0.203099 0
0.723058 1 0.276942
1 0.223871 0
0.681642 1 0.318358
1 5.96046e-08 0
1 5.96046e-08 0
1 5.96046e-08 0
1 5.96046e-08 0
1 5.96046e-08 0
0.167505 1 0.832495
1 5.96046e-08 0
1 5.96046e-08 0
1 0.982705 0
1 0.952354 0
1 5.96046e-08 0
1 0.337432 0
0 0.815825 1
1 5.96046e-08 0
1 5.96046e-08 0
1 0.806183 0
1 0.739826 0
0 0.850754 1
1 0.637404 0
1 5.96046e-08 0
1 5.96046e-08 0
0 0.419891 1
1 5.96046e-08 0
0 0.373815 1
0.461637 1 0.538363
1 5.96046e-08 0
1 5.96046e-08 0
0 0.342459 1
1 0.376827 0
0 0.60932 1
1 5.96046e-08 0
0.205941 1 0.794059
0 0.616546 1
1 5.96046e-08 0
1 5.96046e-08 0
0.228304 1 0.771696
0 0.968855 1
1 5.96046e-08 0
0 0.505412 1
1 5.96046e-08 0
0.859119 1 0.140881
1 0.868415 0
0 0.822032 1
1 5.96046e-08 0
1 0.707267 0
0.543135 1 0.456865
1 0.610428 0
0 0.68136 1
0 0.799976 1
0 0.549448 1
0.849506 1 0.150494
1 0.839312 0
1 0.975064 0
1 5.96046e-08 0
0 0.642945 1
0 0.861457 1
0.319621 1 0.680379
1 5.96046e-08 0
1 5.96046e-08 0
1 0.429288 0
1 0.623349 0
1 5.96046e-08 0
0 0.614259 1
1 5.96046e-08 0
1 5.96046e-08 0
1 5.96046e-08 0
1 5.96046e-08 0
1 0.460827 0
0 0.475443 1
0.565936 1 0.434064
0.227762 1 0.772238
0 0.575936 1
1 5.96046e-08 0
0 0.723138 1
0.961564 1 0.0384356
0.0329305 1 0.96707
0 0.905046 1
1 0.272592 0
1 5.96046e-08 0
0 0.87214 1
0 0.638974 1
1 0.834763 0
1 5.96046e-08 0
0 0.811733 1
0 0.466583 1
1 0.445255 0
0 0.719106 1
0 0.644855 1
0 0.206734 1
1 5.96046e-08 0
1 0.978481 0
0 0.445612 1
1 5.96046e-08 0
1 0.774216 0
0.0761376 1 0.923862
0 0.282625 1
1 5.96046e-08 0
1 5.96046e-08 0
0 0.524923 1
0 0.675434 1
0.323294 1 0.676705
0 0.575168 1
1 5.96046e-08 0
1 0.433857 0
0 0.598632 1
0.424547 1 0.575453
0 0.429603 1
1 0.234947 0
0 0.606125 1
1 0.236304 0
0 0.385441 1
0 0.997584 1
0 0.278483 1
1 5.96046e-08 0
0.242044 1 0.757956
0 0.234522 1
0.0737921 1 0.926208
1 0.197901 0
0 0.397134 1
0.104241 1 0.895759
0.233737 1 0.766263
0 0.636814 1
1 0.855018 0
0.71266 1 0.28734
1 5.96046e-08 0
