# vtk DataFile Version 3.0
Particle simulation
ASCII
DATASET POLYDATA
POINTS 400 float
4.9216 1.16767 9.81952
1.47271 4.39818 2.17522
0.640437 2.52007 2.74114
2.38606 0.355731 0.844741
8.75146 1.5653 3.75702
8.13449 1.49671 4.72817
8.86211 3.74715 2.22923
2.99913 4.72624 1.33883
6.84481 3.69802 1.10373
7.9463 1.04754 3.90206
3.06934 0.126451 0.568525
2.3763 1.60062 2.14348
6.54646 5.27425 5.03044
3.87919 0.186569 0.713095
7.894 2.23191 3.78808
8.95554 4.31651 8.97803
3.17351 5.83117 0.659428
1.29424 1.27675 3.29655
1.9457 8.60555 9.69638
7.98622 1.09062 3.74503
3.74846 0.530759 2.83972
0.293756 0.651937 4.33151
2.5023 5.99856 6.8415
7.62251 0.819165 3.73102
9.46495 8.1638 9.54299
3.98557 0.353579 2.07899
6.50359 7.38823 2.69855
2.66987 0.959045 2.09466
6.38269 0.639666 5.93165
2.08799 0.0574751 2.65839
9.27306 4.23441 4.14299
9.45762 0.215652 0.918026
3.50638 1.33437 7.84318
7.60023 0.766804 3.70744
2.15362 1.32757 3.17882
1.12111 0.113843 0.816018
7.22243 0.620849 9.50922
2.43013 0.353335 2.06875
6.07619 0.464659 0.452953
3.70854 0.442131 0.785757
3.3734 0.31388 3.0004
8.09952 6.3117 4.27271
4.70822 5.90201 5.52913
9.40465 4.76735 3.98524
8.96504 0.27315 8.55899
5.75716 0.367377 2.1733
8.05035 2.47503 4.43368
2.57703 0.63207 1.20826
5.7315 0.457918 1.87653
8.21111 5.61377 4.61576
0.441004 3.25661 2.48222
8.14043 6.26825 4.30888
5.77294 0.540285 5.44716
7.50073 0.563266 3.57961
9.56454 0.47908 8.28746
5.8106 0.293184 2.07708
4.30858 1.07121 8.434
2.77991 0.576902 0.994555
5.58854 0.410961 1.86071
0.298431 2.95632 8.10041
5.73031 1.6043 7.64748
4.65534 0.408985 6.92047
1.5809 0.0353276 3.34788
8.04068 0.980742 3.69628
7.42829 0.578026 5.98321
9.16371 0.174089 5.68526
6.24828 0.841287 5.62112
0.336454 3.4213 2.53114
5.41938 0.203148 1.98042
4.42197 0.793254 8.38891
5.10311 0.816967 7.36126
2.22694 1.23077 2.04917
8.49374 1.20432 5.94494
8.06891 0.993839 3.71634
7.17504 0.2278 9.93253
6.53389 1.08945 9.2544
6.26194 0.80663 5.65837
4.34716 0.524417 8.47223
5.54464 0.283586 1.86336
4.79404 0.349124 7.78812
2.42593 0.317647 1.74042
2.44023 0.324255 3.08627
2.66986 1.5966 2.45318
2.53302 0.301924 1.83074
4.94863 0.153345 7.43869
4.91187 0.223368 7.88206
5.10015 0.0208456 7.37833
7.43775 0.276854 1.78091
4.02447 1.65399 1.71086
9.50604 0.449178 1.29871
2.26434 0.546075 2.02063
1.90625 0.80509 0.43257
1.6231 2.89496 8.76261
2.54989 0.252713 1.82104
4.98035 0.164578 7.45619
4.86685 0.151026 7.98302
5.19201 0.294716 8.27389
2.32949 0.714809 0.576721
5.35681 1.26756 6.82361
9.51492 0.449402 1.30348
2.39954 0.204637 1.70734
3.59074 0.214562 9.31861
1.23892 0.229044 1.25911
7.38609 0.44749 5.25514
8.67018 1.34125 0.065629
2.7773 0.240412 1.23996
5.19704 0.189003 7.79725
5.81462 0.344484 1.65001
5.73157 0.384079 1.87939
9.51571 0.368055 1.45967
0.463364 3.36665 2.55969
7.34256 0.446163 3.69364
3.14023 0.590485 2.56315
9.48509 0.286942 1.17178
2.60825 0.473445 0.963153
1.77931 0.533151 0.673215
4.68375 0.923832 8.40735
5.55899 0.39083 1.24343
5.69762 0.391288 1.88116
1.10547 0.341151 0.75353
2.36771 0.421771 1.98084
8.61032 3.74086 2.35037
5.85492 1.38302 8.71229
5.21191 0.0475174 6.99854
3.53509 0.125573 9.73009
1.72307 0.189654 2.92872
3.37362 0.416999 1.03879
7.54423 0.715889 3.54003
1.30757 2.13936 7.97503
4.01315 0.655294 1.25136
2.3452 0.323508 2.01084
5.68514 0.450087 1.72033
5.04146 0.29344 7.86066
6.34668 0.57478 5.92936
5.0391 0.593316 6.2216
1.81318 0.553925 3.0477
0.256146 4.79434 7.87797
7.46521 0.707722 3.47144
4.15772 0.477629 7.82388
6.31139 0.762343 5.9875
2.94943 0.154966 1.57532
6.81301 0.67149 6.44021
0.982118 1.07337 5.5097
0.960509 0.66207 0.499492
2.18048 0.492836 1.97678
2.51999 0.232357 0.961093
9.71753 0.419456 8.30497
1.70714 0.511979 3.17881
2.72262 0.520779 1.12085
1.73641 0.0884968 2.33379
2.95191 0.152232 1.57916
6.59752 0.735545 5.91595
2.37627 1.55547 2.39712
5.24199 0.319147 6.79904
2.75692 1.91807 0.469676
2.65918 0.395213 1.06231
8.9712 0.163349 8.70284
2.44015 0.337941 1.96277
6.57164 0.85226 5.82099
2.81145 0.504427 2.20848
1.21984 0.107219 0.886492
0.407338 2.77054 2.79741
4.70248 0.267176 7.46824
1.96017 0.258788 3.07873
0.498896 3.05207 2.42543
6.45502 0.889647 5.78157
4.98011 0.399389 8.54745
4.77362 0.923976 8.079
6.6759 2.62197 8.94738
6.21751 5.01699 0.530908
1.87694 0.26018 0.901434
2.31409 0.330841 0.620839
4.0442 0.622132 8.90891
2.21174 1.39044 2.56049
2.04875 0.465324 3.11561
1.07796 0.228864 1.28464
4.51403 0.869482 8.3276
4.25863 0.643479 8.03939
3.98241 0.457622 8.1583
1.85977 0.448685 0.466418
2.52052 0.19518 1.94801
1.68727 0.175212 2.71333
6.09227 2.86293 8.80385
2.30305 1.68834 2.188
4.64349 0.34446 7.41922
2.71222 0.557298 1.96449
2.77378 0.729214 0.568907
1.49389 3.07774 8.56496
3.31663 0.404037 3.89791
2.36292 0.306633 2.28045
2.49766 0.203063 1.91718
2.54458 0.692993 0.974306
4.82269 0.0818564 7.42945
2.15698 3.46715 1.56404
5.7298 5.92225 9.47256
2.35185 0.395297 2.11849
3.21197 0.243604 2.7712
0.930438 4.62504 7.29301
1.97008 0.106108 2.73812
1.71232 0.406971 3.01433
3.14754 0.420332 2.37634
5.45319 0.208466 2.21342
9.23162 0.18867 8.64443
5.23589 0.455636 6.79734
6.6431 0.467899 7.01927
4.83002 0.799702 8.53924
2.36177 0.545116 2.14963
3.15072 0.460349 0.76295
1.90788 0.370745 0.714273
9.62254 0.402229 1.18564
2.58406 0.496067 2.12783
5.84696 0.568191 2.34645
5.04272 0.625363 8.44005
6.40744 0.613676 6.45491
6.35299 0.472503 6.63946
4.698 0.725946 8.47384
2.34751 0.541159 2.13184
2.49997 0.67262 2.06112
1.39957 1.13746 3.07076
9.37759 0.435733 1.11558
8.05721 5.69305 5.20774
1.96589 0.314099 7.39416
5.07522 0.351989 7.36025
2.20529 0.289005 1.71004
4.88772 0.512216 8.27683
2.52146 0.378846 1.78647
8.23016 2.43309 4.15715
2.5493 0.266603 2.33955
2.25801 0.636322 1.89411
4.78961 0.173883 7.92415
7.58499 0.552713 3.58591
4.53018 0.55647 8.45576
9.13346 0.138482 8.73191
2.43156 0.379541 1.84768
4.76989 0.0240359 7.62648
1.80702 0.542997 1.81858
9.72308 0.502062 8.59462
3.68348 0.416758 1.85676
2.02368 0.23935 0.510699
1.70539 0.0658904 2.92454
2.09191 0.594636 2.10303
1.3382 0.317866 2.89212
2.6721 0.638353 2.18429
3.1968 0.321187 2.51703
4.46995 1.09071 8.44057
2.36518 0 3.2243
2.22545 0.944242 0.613546
4.23861 0.582063 8.46902
5.63142 0.45052 1.57846
4.36604 0.887563 8.44081
2.71182 0.310052 0.520753
5.46345 1.05504 1.5948
4.56877 0.833154 8.39287
3.00546 0.408063 1.27796
8.81302 0.254031 8.81233
2.39937 0.234523 1.59722
9.00835 0.254728 0.942413
4.74969 0.0138507 8.22813
5.60798 0.488542 1.57937
4.34536 0.923408 8.41536
1.53755 0.256297 3.0413
7.59801 5.38142 5.05888
5.20746 0.627943 6.90684
7.96944 0.51634 3.97047
4.20335 0.865363 8.12167
4.02874 0.579142 3.54667
8.33417 0.103477 3.75769
4.29416 0.518159 8.48869
9.05451 0.0720528 8.52549
2.87334 0.720682 0.91335
1.57771 0.0709852 3.28056
7.83416 5.27431 5.28076
3.0043 0.385367 1.36116
8.21375 0.696802 3.96708
4.77936 0.312157 8.50163
4.5419 0.291011 6.92109
7.66746 0.731227 3.55635
5.52903 9.44308 8.98282
9.33859 0.281465 9.00786
2.3298 0.205104 1.7985
8.69439 0.214823 1.25501
5.8032 0.501019 2.06595
5.92751 0.792386 1.6815
7.74676 0.873415 3.49805
8.05738 0.423768 8.34569
8.40581 0.457565 8.26528
1.70336 0.610296 2.99163
3.15175 0.0572778 1.70026
6.46768 0.884251 6.0127
8.39033 1.42838 6.01693
8.74759 0.143996 1.07928
5.95829 0.443728 2.10804
3.57226 0.166252 2.48833
7.89312 0.93334 3.74006
4.31565 0.580042 8.80864
4.61077 0.272498 8.25463
2.37096 0.0243763 1.20093
2.2379 1.46849 2.47726
2.43447 0.620231 1.6394
1.88164 0.190398 2.79318
9.64366 0.121025 1.54931
6.51324 0.86562 5.87685
3.56341 0.455696 0.718911
5.84008 0.95654 2.18636
2.17051 0.16278 2.18754
5.47864 0.189408 1.49323
3.39192 0.131396 2.29934
2.07201 0.267777 1.73695
1.80296 0.3032 2.2962
3.87235 0.450763 2.38659
8.5875 0.457234 3.72184
6.06472 0.654349 5.69901
9.02751 0.21836 8.77919
3.20531 0.613157 2.8499
2.77551 0.395679 1.71851
8.17608 0.382031 3.6368
2.32675 0.0268498 2.25628
6.3746 0.886463 6.3161
5.86969 0.190603 1.87712
3.00059 0.386168 1.20604
5.384 0.271245 8.65727
2.87122 0.230687 1.18882
4.6085 1.11224 8.366
1.96978 0.320494 1.93355
9.34406 0.574054 1.19772
9.6082 0.17042 0.850325
2.34385 0.438235 1.91183
5.39876 0.460418 2.03746
9.28679 0.282532 1.32711
2.89321 0.49074 2.15643
5.36634 0.404118 8.74052
2.11397 0.187391 1.80764
4.40055 0.741967 8.36792
2.48 0.449034 1.80509
9.13171 0.0997989 0.932051
4.9739 0.849879 7.26481
3.61578 0.257533 2.52713
1.48691 0.186707 2.81635
9.02918 0.263366 1.28773
3.39268 0.457198 2.60861
4.78553 0.100788 7.90574
2.17823 0.230205 1.60667
4.92282 0.214668 7.32566
5.35703 0.47068 6.92587
2.41747 0.369552 2.02379
2.55899 0.339849 1.07552
5.87027 0.598232 2.08862
2.33075 0.393182 0.69032
2.60388 0.235657 0.869799
2.47353 0.608669 1.02618
3.87677 0.329442 2.93435
2.66841 0.609955 2.22689
4.61101 0.330399 7.33904
5.42834 0.446294 6.90918
2.80965 0.604931 2.04487
3.0882 0.380818 2.20754
5.47338 0.235009 1.71215
4.34454 0.990549 8.85134
2.19911 0 0.985123
1.5763 0.200522 2.69792
6.09425 0.58523 2.18316
6.39484 0.459406 5.90134
5.29451 0.457404 8.51329
3.52351 0.25451 2.5352
1.99172 0.621062 0.609956
9.21821 0.252869 8.80434
4.81248 0.53535 8.22407
5.32584 0.595371 8.55178
4.79105 0.587976 8.53825
1.96691 0.330116 1.4214
6.09236 0.606654 2.1914
6.49064 0.523799 5.93314
5.13004 0.141582 7.47644
1.96611 0.077558 1.14127
2.15367 0.596959 1.28857
8.99552 0.262995 8.5769
4.65623 0.329084 8.25919
4.46811 0.793559 8.62198
5.39812 0.403909 8.45237
2.93034 0.685179 1.11959
2.36097 0.155039 1.16055
2.60265 0.155731 1.73891
5.08893 0.460262 8.49557
2.53612 0.238264 1.90612
7.8784 1.18474 3.81547
4.26646 0.956221 8.93663
1.95325 0.488383 3.10609
2.61778 0.181905 2.18343
7.66557 0.756325 3.59797
5.51108 0.373633 1.63043
2.38399 0.195952 1.14293
2.47487 0.188938 1.75286
5.2243 0.305956 8.47278
2.40489 0.605682 1.92198
7.84224 1.13915 3.83694
4.87531 0.659369 7.34058
1.98321 0.526821 3.11977
1.83581 0.109521 2.18787
9.47477 0.414126 1.11086
5.52912 0.394419 1.67016
POINT_DATA 400
SCALARS particleColor float 3
LOOKUP_TABLE default
0.228876 1 0.771124
0 0.52243 1
0 0.793589 1
0 0.360661 1
0 0.423968 1
0.19475 1 0.805251
0 0.861675 1
0 0.740304 1
0 0.463513 1
0 0.762835 1
0 0.54374 1
0 0.500646 1
1 0.880135 0
0 0.277298 1
0.028777 1 0.971223
0 0.533269 1
0 0.319254 1
0 0.492668 1
0.214244 1 0.785756
0 0.57401 1
0 0.36243 1
1 0.13032 0
0.0880734 1 0.911927
0 0.722103 1
0 0.707062 1
0 0.199758 1
1 5.96046e-08 0
0 0.446611 1
0.414054 1 0.585946
0 0.400006 1
0.887119 1 0.112881
0 0.535496 1
0 0.759943 1
0 0.597392 1
0 0.451753 1
0 0.692645 1
0 0.78618 1
0 0.694061 1
0 0.459922 1
0.150631 1 0.849369
0 0.646125 1
0 0.709274 1
0 0.445273 1
0.101754 1 0.898246
0.018692 1 0.981308
0 0.567922 1
0.945882 1 0.0541179
0 0.66178 1
0 0.293378 1
1 0.620737 0
0 0.485147 1
0 0.447204 1
0 0.324513 1
0 0.490338 1
0 0.860128 1
0 0.573248 1
0 0.52104 1
0 0.697507 1
0 0.148758 1
0 0.561713 1
0.199588 1 0.800412
0 0.944959 1
0.443286 1 0.556714
0 0.810512 1
0 0.17704 1
0 0.77708 1
0 0.832274 1
0 0.803122 1
0 0.293786 1
0 0.824659 1
0.287468 1 0.712532
0 0.582653 1
0 0.502084 1
0 0.612766 1
0 0.742305 1
0 0.713449 1
0 0.913424 1
0 0.360873 1
0 0.761492 1
0.0301697 1 0.96983
0 0.678558 1
0 0.417549 1
0 0.196504 1
0 0.330849 1
0 0.568663 1
0 0.348181 1
0 0.512397 1
0 0.851441 1
0 0.237017 1
0 0.226181 1
0 0.292833 1
0 0.530522 1
0 0.528392 1
0 0.415811 1
0 0.495665 1
0 0.408801 1
0 0.315065 1
0 0.580538 1
0 0.855958 1
0 0.181977 1
0 0.967401 1
0 0.638086 1
0 0.781081 1
0 0.528031 1
0 0.531933 1
0 0.514768 1
0 0.536813 1
0 0.923554 1
0 0.159623 1
0.19339 1 0.80661
0 0.973513 1
0 0.517406 1
0 0.625107 1
0 0.384937 1
0 0.700378 1
0 0.465425 1
0 0.492268 1
0 0.467314 1
0 0.278354 1
0 0.824711 1
0 0.486852 1
0 0.842077 1
0 0.849657 1
0 0.739006 1
0.0572276 1 0.942772
0 0.674501 1
0 0.290653 1
0 0.37199 1
0 0.537342 1
0 0.887901 1
0 0.691526 1
0.0169177 1 0.983082
0 0.735852 1
0.377212 1 0.622788
0 0.633109 1
0 0.461575 1
1 5.96046e-08 0
0 0.492252 1
0 0.320684 1
0 0.4631 1
0 0.194718 1
0 0.389485 1
0.435297 1 0.564703
0.44782 1 0.55218
0 0.664258 1
0 0.584413 1
0 0.367675 1
0 0.320034 1
0 0.875017 1
0 0.554316 1
0 0.228993 1
0 0.104053 1
0.170076 1 0.829924
0 0.748137 1
0 0.42966 1
0 0.384086 1
0 0.326269 1
0 0.460044 1
0 0.817902 1
0 0.509772 1
0 0.695794 1
0 0.459506 1
0 0.433648 1
0 0.915311 1
0 0.562025 1
0 0.130502 1
0 0.892902 1
0 0.342157 1
0 0.976042 1
1 0.0496283 0
0 0.542758 1
0 0.737285 1
0 0.3827 1
0 0.471583 1
0 0.742606 1
0 0.798412 1
0 0.950387 1
0 0.501445 1
0 0.222105 1
0.193772 1 0.806228
0 0.47369 1
0 0.345352 1
0.0440838 1 0.955916
0 0.515435 1
0 0.384154 1
0 0.684762 1
0 0.881223 1
0 0.93527 1
0 0.821525 1
0 0.49265 1
0 0.569967 1
0 0.700286 1
0 0.870368 1
0 0.399029 1
0.786514 1 0.213486
0 0.865704 1
0 0.584195 1
0.172248 1 0.827752
0 0.69521 1
0 0.969625 1
0 0.38474 1
0 0.257612 1
0.211468 1 0.788532
0 0.811004 1
0.302555 1 0.697445
0 0.282641 1
0 0.633964 1
0 0.843837 1
0 0.435091 1
0 0.603427 1
0 0.80858 1
0 0.382072 1
0 0.841757 1
0 0.487491 1
0.324012 1 0.675988
0 0.248976 1
0 0.603649 1
0.20834 1 0.79166
0 0.302318 1
0 0.551871 1
0 0.780468 1
0 0.811557 1
0 0.0935381 1
0 0.263707 1
0 0.327747 1
0.0258601 1 0.97414
0.0637039 1 0.936296
0 0.702076 1
0 0.691494 1
0.0378247 1 0.962175
0 0.259376 1
0.193997 1 0.806003
0 0.505062 1
0 0.467409 1
0 0.539116 1
0.183684 1 0.816316
0 0.7268 1
0 0.541508 1
0 0.558224 1
0.217293 1 0.782707
0 0.916935 1
0 0.627048 1
0 0.395758 1
0 0.757233 1
0 0.707171 1
0 0.681258 1
0 0.929178 1
0 0.526791 1
0 0.429921 1
0 0.285364 1
0 0.307155 1
0 0.675972 1
0 0.620408 1
0 0.886227 1
0 0.988869 1
0 0.756755 1
0 0.35536 1
0 0.228893 1
0 0.510656 1
0 0.295788 1
0 0.231118 1
0 0.956421 1
0 0.644845 1
0 0.791776 1
0 0.534139 1
0 0.656538 1
0.17364 1 0.82636
0 0.787534 1
0 0.897025 1
0 0.51067 1
0 0.700443 1
0.019494 1 0.980506
0 0.852117 1
0.214368 1 0.785632
0 0.780524 1
0.0295632 1 0.970437
0 0.921121 1
0 0.888386 1
0 0.597154 1
0 0.501835 1
0 0.756453 1
0 0.874381 1
0 0.723183 1
0 0.678142 1
0 0.961006 1
0 0.324269 1
0 0.661214 1
0 0.757606 1
0 0.925422 1
0.709099 1 0.290901
0 0.57481 1
0.0663892 1 0.933611
0 0.864987 1
0 0.628798 1
0 0.715488 1
0 0.622701 1
0 0.843786 1
0 0.93687 1
0 0.664628 1
0 0.638432 1
0 0.262959 1
0 0.506872 1
0 0.936373 1
0 0.602916 1
0 0.638038 1
0 0.987677 1
0 0.804947 1
0 0.746312 1
0 0.792191 1
0 0.571614 1
0 0.0933144 1
0 0.68098 1
0.178699 1 0.821301
0 0.692223 1
0 0.910554 1
0.12465 1 0.87535
0 0.772758 1
0 0.776793 1
0 0.695542 1
0 0.554679 1
0.0283869 1 0.971613
0 0.587603 1
0 0.383572 1
0 0.699675 1
0 0.903454 1
0 0.720719 1
0 0.954026 1
0 0.626261 1
0.178966 1 0.821034
0 0.804784 1
0.123576 1 0.876424
0 0.686889 1
0 0.587288 1
0 0.909039 1
0 0.215784 1
0 0.600436 1
0 0.674269 1
0 0.632451 1
0 0.626827 1
0 0.67031 1
0 0.718836 1
0 0.936587 1
0 0.574998 1
0 0.731422 1
0.0160331 1 0.983967
0 0.440056 1
0 0.479642 1
0 0.86575 1
0 0.357454 1
0 0.563687 1
0 0.109646 1
0 0.659459 1
0 0.965632 1
0 0.85571 1
0 0.738095 1
0 0.549265 1
0.0213835 1 0.978616
0 0.569346 1
0 0.513637 1
0 0.292118 1
0 0.0709859 1
0 0.363564 1
0 0.605176 1
0 0.315418 1
0.419251 1 0.580749
0 0.551873 1
0 0.492433 1
0 0.554294 1
0.128868 1 0.871132
0.00101662 1 0.998983
0 0.0493804 1
0 0.216214 1
0 0.893925 1
0 0.471428 1
0.238594 1 0.761406
0 0.314696 1
0 0.657985 1
0 0.826274 1
0 0.403623 1
0 0.926296 1
0 0.557563 1
0 0.450804 1
0 0.252806 1
0 0.383066 1
0 0.397403 1
0 0.633657 1
0 0.622932 1
0 0.398448 1
0.428747 1 0.571253
0 0.802356 1
0 0.552622 1
0 0.555871 1
0 0.177536 1
0 0.871111 1
0 0.272251 1
0 0.535111 1
0 0.707092 1
0 0.691702 1
0.107632 1 0.892368
0 0.885968 1
