# vtk DataFile Version 3.0
Particle simulation
ASCII
DATASET POLYDATA
POINTS 400 float
0.312984 0.558593 0.66772
0.361649 0.615644 0.594757
2.83693 0.656291 5.24457
0.284054 0.414953 0.818088
4.08885 0.358541 5.44479
0.524278 1.63573 4.39303
4.82091 0.815259 1.05683
2.8386 0.723034 4.4866
4.91776 0.305252 0.0141542
5.37774 1.00311 1.12018
0.218753 0.582699 0.638896
0.753889 0.61393 0.566266
2.60853 0.662598 5.09671
0.252725 0.399387 0.834625
4.07063 0.309266 5.42921
0.416039 1.31547 4.58895
0.946684 0.441209 2.2248
0.935906 0.998444 3.61675
5.26351 0.678549 0.528982
5.40434 1.01864 1.20225
4.71493 0.518892 1.24449
6.30362 0.935706 1.17227
2.20635 0.716747 4.48849
5.17948 1.05149 1.51471
3.63905 0.577663 3.59693
1.37037 0.481382 4.11284
4.8774 0.930729 5.38044
0.43571 0.986857 3.44915
2.3281 0.732714 1.63262
0.0649842 0.491058 1.09078
4.63849 0.677826 1.32053
6.02467 1.0946 1.01882
2.01885 0.6351 4.96631
5.19403 1.03142 1.48991
3.54497 0.566666 3.5064
1.43208 0.459635 4.07716
4.86276 0.980615 5.38976
0.412393 0.973101 3.38835
2.34031 0.876113 1.42291
0.0414642 0.518914 0.939093
0.0702794 0.804239 0.379517
3.88059 0.657583 2.07107
0.940292 0.350035 3.15936
5.54474 1.13573 1.42068
2.54075 0.755995 4.61996
3.7643 0.819955 2.14267
3.00956 0.240433 2.8899
1.60062 0.662163 3.46645
2.38916 0.627688 1.6309
1.93543 0.56477 4.99653
0.0508584 0.824093 0.353655
3.84224 0.667628 2.06153
0.904226 0.241392 3.23415
5.55709 1.14143 1.40121
2.55092 0.716511 4.61578
3.78676 0.801248 2.12791
2.68435 0.803481 4.53076
1.64599 0.677511 3.49569
2.43761 0.67184 1.64726
1.82986 0.450305 4.49634
6.05028 0.98597 1.45371
0.119588 0.274687 1.43827
5.05831 0.439285 5.08759
4.4673 0.842232 0.158169
4.23942 0.784557 4.30998
4.47354 0.701968 3.82372
1.77306 0.194935 1.70106
1.32457 0.291915 3.98508
2.42582 0.718472 1.46545
1.50582 0.459592 3.69622
6.07012 1.01321 1.43432
0.0321288 0.428198 1.14873
4.4789 0.951802 4.33327
4.52596 0.86825 0.172121
4.22334 0.892194 4.23663
4.39278 0.658572 4.1074
1.7745 0.191595 1.72354
2.07905 0.411508 5.30056
2.44758 0.695618 1.4614
1.50925 0.445339 3.63675
0.405241 0.724417 0.845919
3.23568 0.799144 1.69285
1.38468 0.614961 2.85601
3.68279 0.377026 0.849817
3.67798 0.39805 4.63037
2.27987 0.709524 4.35995
3.8775 0.614287 4.55608
0.502558 0.344926 2.61167
3.16648 0.955786 1.17982
5.01578 0.562532 0.759699
0.277521 0.730192 0.930416
3.20298 0.739559 1.65344
1.23096 0.482342 2.79392
3.6767 0.376241 0.828717
3.67871 0.393995 4.67569
2.23695 0.65871 4.35023
2.60719 0.696561 4.6562
0.437985 0.280071 2.7386
3.08184 0.878823 1.24052
5.03584 0.571296 0.74924
3.78098 0.265224 2.52435
3.84809 0.289376 0.449332
0.548272 0.270147 2.94365
4.64658 0.713296 0.845415
0.549092 0.122311 3.20169
1.56202 0.878476 3.49647
1.93792 0.513216 4.40357
2.81023 0.583943 1.50263
2.57128 0.747033 1.4562
5.11894 0.624141 0.693923
3.76628 0.38426 2.54485
3.81677 0.359368 0.475153
2.48174 0.635634 1.85362
4.82898 0.693069 0.750546
1.11479 0.352834 3.50898
1.59483 0.860258 3.49929
2.03383 0.553129 4.35112
1.97344 0.362978 1.52375
2.51301 0.717664 1.50139
3.33677 0.783674 2.09516
2.7154 0.789034 1.33043
3.83796 0.8836 2.46062
5.12721 0.963578 5.41849
2.52866 0.622833 0.863982
2.05946 0.779017 5.05534
1.9348 0.475335 1.70594
0.0474684 0.789877 1.01935
4.35256 0.458898 0.454889
2.09791 0.711059 5.11326
1.96015 0.396836 1.6837
2.7175 0.797941 1.35415
3.74293 0.965429 2.38161
4.87306 0.518202 5.18011
2.64564 0.697679 0.968919
2.01172 0.748716 5.13281
2.902 0.935723 0.915596
0.194445 0.783104 1.80387
4.32447 0.477702 0.495889
2.05268 0.787128 5.11705
1.8671 0.0664181 1.50723
0.14353 0.695339 0.714063
1.70928 0.501322 0.505672
1.56557 0.480567 2.13768
1.46046 0.275688 1.07682
1.80361 0.92573 2.57241
0.504859 0.55402 2.60331
5.04827 0.724723 5.13661
1.08879 0.230274 3.08525
0.926291 0.396017 2.70613
0.401593 0.417692 2.98732
0.146235 0.699567 0.719622
1.71977 0.457062 0.465984
1.73786 0.551469 2.66293
1.61103 0.400321 1.17616
1.75006 0.771775 2.47803
0.567288 0.575388 2.6746
4.95692 0.656757 5.10662
1.10044 0.248716 2.93641
1.33136 0.483248 2.25476
0.686243 0.404363 2.63254
1.27501 0.718393 0.356387
2.9273 0.376909 0.851824
3.74758 0.774888 5.06181
1.62424 0.0686232 0.97132
1.76803 0.783765 2.13264
1.9618 0.365395 1.88235
2.02526 0.767557 4.18255
2.00586 0.586211 4.18704
1.91999 0.670702 4.03673
2.04201 0.471187 1.76923
1.29878 0.727424 0.355372
2.97272 1.04785 1.40623
3.71942 0.803342 5.11606
1.54532 0.0158007 0.95637
1.80478 0.775881 2.1073
1.88391 0.40274 1.94188
2.1357 0.744986 4.2122
2.22695 0.568407 4.27269
1.88859 0.676046 4.06404
2.04654 0.458939 1.73928
2.70927 1.09826 1.53662
0.37306 0.687708 0.637502
3.99089 0.265921 5.32999
1.02863 0.731927 0.849857
2.40909 0.646299 5.1411
1.67113 0.593304 3.27699
1.05238 0.429999 2.63214
3.75696 0.0897756 2.87671
3.54688 0.302915 1.849
4.12553 0.695636 1.92215
2.69514 1.09699 1.53049
0.167033 0.534394 0.598712
3.79713 0.751999 5.28428
1.04922 0.784062 0.868177
2.46969 0.720249 5.09694
1.64627 0.436936 3.34582
1.03596 0.404087 2.66369
3.83988 0.509012 1.99731
3.49198 0.309453 1.84781
4.05919 0.708275 1.94994
0.373981 0.457012 0.667764
0.573005 0.449751 1.06603
4.25203 0.522673 5.29267
0.45944 0.580943 0.424405
4.05765 0.380065 4.81211
1.89013 0.925053 4.99748
1.2645 0.760041 3.77599
1.04244 1.00408 2.46605
0.748477 0.992679 3.65357
4.80321 0.588043 0.993273
0.350976 0.449546 0.700002
0.892451 0.576572 0.547133
4.18608 0.614383 5.2278
0.462885 0.5311 0.513261
4.07294 0.373643 4.81143
1.85771 0.903885 5.00926
1.2779 0.748166 3.77449
1.08041 0.812654 4.08592
0.698752 0.900469 3.65174
4.77913 0.572975 0.880975
4.58544 0.102389 0.589909
3.83266 0.567916 4.6312
5.12133 0.593367 4.82223
2.42786 0.691564 1.77635
4.13147 0.274584 5.31976
1.31454 0.296473 3.56218
4.96139 0.585719 4.84582
1.20877 0.656016 2.96117
1.77647 0.389717 1.63735
1.41609 0.666345 2.86823
4.54879 0.111903 0.585187
3.74329 0.518202 4.81561
5.04108 0.644796 4.76902
2.3956 0.638149 1.79149
4.12777 0.28348 5.29799
1.35499 0.302326 3.52546
5.0219 0.651739 4.79345
1.20864 0.414121 3.45259
1.68565 0.490032 1.91486
1.3341 0.670257 2.97205
0.373745 0.476537 0.935343
2.98408 0.974315 2.39906
1.83242 0.685722 4.47562
4.56357 0.667357 1.17132
2.61367 0.627131 4.21535
3.54832 0.200815 1.26646
1.34726 0.92971 3.56717
3.87009 0.589929 3.60594
3.76244 0.675664 2.22843
2.00217 0.492011 4.41048
0.34493 0.465708 0.969913
2.78571 1.05822 2.31824
1.66389 0.604676 4.93621
4.59657 0.699367 1.24688
2.47232 0.682136 4.17269
3.45127 0.372014 1.43341
4.62743 0.84076 0.748515
3.85263 0.466725 3.78698
3.73483 0.63523 2.26325
2.03689 0.493592 4.39698
3.50569 0.997518 1.91606
1.42369 0.364861 0.600283
4.31919 0.825491 2.13129
5.44054 0.851068 1.3693
3.87929 0.515376 4.67433
0.109846 0.78339 3.52944
4.83881 0.867528 0.424836
2.1587 0.733439 4.19951
3.88996 0.574388 4.62947
1.32041 0.739092 2.74817
3.56188 0.990549 1.9122
1.50588 0.374353 0.639226
4.87762 0.785616 0.337949
5.56161 1.09 1.20441
4.31811 0.629138 4.51983
2.16503 0.753479 5.30254
4.95587 0.835796 0.331638
2.7416 1.06181 4.61078
3.90322 0.524561 4.6222
1.39267 0.723397 2.8043
4.33502 1.23666 0.899018
3.86687 0.578727 1.82581
1.93746 0.810901 3.40219
4.42614 0.415473 0.502173
2.72438 0.602302 4.40355
3.11239 0.446832 4.56818
0.712978 0.361072 2.52526
1.26011 0.584496 3.54538
2.07228 0.669298 1.88367
3.00283 0.702358 1.59958
4.38685 1.24125 0.898939
3.86048 0.555468 1.77264
1.71842 0.687378 3.35644
4.38903 0.371037 0.459061
2.65712 0.696302 4.60531
3.15283 0.485103 4.50043
0.737159 0.412722 2.48181
1.12936 0.673974 2.10754
2.03694 0.842782 1.79533
3.69727 0.759272 1.9851
4.5928 1.07826 0.435294
0.959752 0.565787 0.383913
1.97155 0.559191 3.43434
1.56789 0.844964 1.28811
1.47651 0.95068 3.04938
3.57012 0.490195 1.58288
1.23847 0.900463 3.77551
3.36216 0.667248 1.88145
2.4194 0.356819 1.79687
3.29311 0.810353 1.71274
4.64297 0.944311 0.387715
0.971189 0.524927 0.395274
2.82757 1.04058 4.00306
1.80431 0.712022 1.40536
1.45762 0.876814 3.01731
4.70727 1.10473 0.251329
1.32616 0.935024 3.69714
1.618 0.558634 0.932475
2.4885 0.368245 1.68406
3.36078 0.794106 1.70579
2.57221 0.776347 1.64426
3.0228 0.920849 1.35671
2.68513 0.973732 4.13906
2.79013 0.516065 1.27673
4.83945 0.862047 0.678478
1.11425 0.627329 2.62479
1.01415 0.843661 2.79642
3.99511 0.457195 2.04112
5.07773 0.614996 0.577682
2.49501 0.972917 1.21127
2.74512 0.783922 1.59637
2.21662 0.760995 2.00343
2.59147 0.964095 4.16299
2.76804 0.518807 1.32042
4.84385 0.79558 0.617974
1.37138 0.595399 0.937149
0.988341 0.892121 2.77772
4.0227 0.531257 2.06005
5.08378 0.627948 0.543214
2.35944 0.847588 1.54075
0.140584 0.498064 0.790256
0.235973 0.506009 0.614097
3.78915 0.569975 5.51162
0 0.30157 1.08062
0.876544 0.841189 2.61713
1.0396 0.476788 2.91172
2.30054 0.388967 1.5675
1.54307 0.899033 3.52196
0.888237 0.812115 3.11565
0.823539 0.302944 2.39657
0.0945973 0.480441 0.832746
0.233199 0.553264 0.648053
3.65581 0.659216 5.45792
0 0.316221 1.09178
0.861346 0.891868 2.67772
1.1065 0.511692 2.99153
2.27391 0.36402 1.60302
2.11398 0.716976 3.70836
0.929918 0.866237 3.19869
0.861736 0.376923 2.54883
1.22318 0.395865 1.14343
1.42498 0.852714 0.582675
3.4836 0.627223 4.61035
2.17964 0.460662 2.06941
1.85361 0.241361 1.80373
1.56715 0.706053 2.6614
2.3524 0.551198 4.34971
2.42661 0.505507 4.30478
2.25485 0.675638 4.07911
1.84724 0.593082 2.15426
1.23085 0.388922 1.1571
1.39058 0.846722 0.604324
3.4404 0.651467 4.60779
2.19047 0.471163 2.04113
1.64393 0.254326 1.95356
1.53505 0.664782 2.6525
2.35333 0.532993 4.364
2.43842 0.483071 4.29728
2.05723 0.605106 4.12969
1.98289 0.593424 2.09931
2.91197 0.782991 1.78349
0.169934 0.890558 0.764713
3.14759 0.606984 4.7972
0.0325746 0.577366 1.15812
4.77227 0.332609 0
3.75521 0.637886 4.26617
1.05713 0.493407 1.96021
3.69562 0.418206 1.79291
5.31056 0.386781 0.867456
3.94064 0.651861 2.09686
2.89673 0.732066 1.81315
0.169423 0.892826 0.740749
3.13329 0.601767 4.78655
0.215251 0.515308 1.17184
4.75378 0.327081 0.0537183
3.67691 0.60118 4.37804
1.06629 0.511268 1.96128
3.65019 0.426429 1.78113
5.2234 0.444522 0.661255
3.93653 0.643788 2.08516
POINT_DATA 400
SCALARS particleColor float 3
LOOKUP_TABLE default
0 0.340072 1
0 0.646838 1
0 0.239257 1
0 0.361453 1
0.101993 1 0.898007
0.0964261 1 0.903574
0.220229 1 0.779771
0 0.869199 1
0 0.575687 1
0 0.396936 1
0 0.387356 1
0 0.307023 1
0 0.445642 1
0 0.483361 1
0 0.812884 1
0 0.700241 1
0 0.58066 1
0 0.344928 1
0 0.246241 1
0 0.268361 1
0 0.27264 1
0 0.195672 1
0 0.687459 1
0 0.388973 1
0 0.555292 1
0 0.670796 1
0 0.313304 1
0 0.264393 1
0 0.838203 1
0.0336062 1 0.966394
0 0.412652 1
0 0.157061 1
0 0.870315 1
0 0.353664 1
0 0.480652 1
0 0.607206 1
0 0.540342 1
0 0.270913 1
0 0.695982 1
0 0.979333 1
0 0.522191 1
0 0.817025 1
0 0.770409 1
0 0.607901 1
0 0.415875 1
0 0.395611 1
0 0.414937 1
0 0.936968 1
0 0.568867 1
0 0.994294 1
0 0.483064 1
0 0.867981 1
0 0.918532 1
0 0.491595 1
0 0.554696 1
0 0.257562 1
0 0.476154 1
0 0.883316 1
0 0.566943 1
0 0.518733 1
0 0.902315 1
0 0.56317 1
0.0172146 1 0.982785
0 0.416696 1
0 0.964573 1
0 0.390809 1
0 0.433639 1
0 0.34499 1
0 0.484434 1
0 0.519743 1
0 0.760599 1
0 0.755275 1
0 0.979258 1
0 0.453543 1
0 0.722523 1
0 0.744628 1
0 0.472722 1
0 0.82793 1
0 0.457902 1
0 0.468149 1
0 0.412583 1
0 0.593874 1
0 0.897913 1
0 0.691476 1
0 0.423607 1
0 0.613211 1
0 0.70958 1
0 0.142414 1
0 0.731671 1
0 0.57208 1
0 0.433139 1
0 0.607103 1
0 0.84763 1
0 0.494462 1
0 0.534918 1
0 0.628312 1
0 0.651214 1
0 0.643712 1
0 0.754545 1
0 0.608342 1
0 0.648015 1
0 0.795083 1
0 0.644486 1
0 0.741785 1
0 0.645156 1
0 0.371171 1
0 0.832575 1
0 0.292799 1
0 0.637958 1
0 0.692365 1
0 0.424551 1
0 0.716849 1
0 0.458755 1
0 0.695652 1
0 0.572338 1
0 0.352384 1
0 0.83642 1
0 0.473266 1
0 0.629502 1
0 0.783085 1
0 0.423751 1
0 0.03326 1
0 0.594121 1
0 0.459794 1
0 0.631009 1
0 0.571741 1
0.296886 1 0.703114
0.041293 1 0.958707
0 0.35815 1
0 0.461522 1
0 0.396713 1
0 0.407279 1
0 0.802113 1
0 0.339787 1
0 0.596347 1
0 0.831885 1
0 0.985191 1
0.0250309 1 0.974969
0 0.259884 1
0 0.890984 1
0 0.910736 1
0 0.392129 1
0 0.779864 1
0 0.391089 1
0 0.707778 1
0 0.56571 1
0 0.521701 1
0 0.943642 1
0 0.314701 1
0 0.65009 1
0 0.914282 1
0 0.300063 1
0 0.67566 1
0 0.596835 1
0 0.628683 1
0 0.538781 1
0 0.590621 1
0 0.653782 1
0 0.369681 1
0 0.696505 1
0 0.714908 1
0 0.958439 1
0 0.688331 1
0 0.507436 1
0 0.628392 1
0.119511 1 0.880489
0 0.287228 1
0.129258 1 0.870742
0 0.616839 1
0 0.606994 1
0 0.762333 1
0 0.908085 1
0 0.704526 1
0 0.532265 1
0 0.534392 1
0.114692 1 0.885308
0 0.311655 1
0 0.976487 1
0 0.928853 1
0 0.439556 1
0.067894 1 0.932106
0 0.812093 1
0.139209 1 0.860791
0 0.334766 1
0 0.477325 1
0 0.546864 1
0 0.672857 1
0 0.525017 1
0 0.515923 1
0 0.513126 1
0 0.973448 1
0 0.694934 1
0 0.289271 1
0 0.226498 1
0 0.514556 1
0 0.741019 1
0 0.711765 1
0 0.818076 1
0 0.67017 1
0 0.544559 1
0 0.522721 1
0 0.673864 1
0.0336867 1 0.966313
0 0.917738 1
0 0.381687 1
0 0.756852 1
0 0.703107 1
0 0.288084 1
0 0.694461 1
0 0.32919 1
0 0.256412 1
0 0.612694 1
0 0.399627 1
0 0.828468 1
0 0.391852 1
0 0.591617 1
0 0.687703 1
0 0.341348 1
0 0.489534 1
0 0.72688 1
0 0.991775 1
0.319277 1 0.680723
0 0.456745 1
0 0.404297 1
0 0.52343 1
0 0.496103 1
0 0.858861 1
0 0.598119 1
0.165885 1 0.834115
0 0.911352 1
0 0.910703 1
0.305748 1 0.694252
0 0.556655 1
0 0.401189 1
0 0.647137 1
0 0.460588 1
0 0.922363 1
0 0.69916 1
0 0.895667 1
0 0.716525 1
0 0.342714 1
0 0.550953 1
0 0.834524 1
0 0.658383 1
0 0.51582 1
0 0.58278 1
0 0.588909 1
0.0731652 1 0.926835
0 0.789675 1
0 0.788763 1
0 0.233086 1
0.108306 1 0.891694
0 0.608905 1
0 0.674272 1
0 0.255539 1
0 0.474996 1
0 0.465793 1
0.385165 1 0.614835
0 0.73831 1
0 0.63969 1
0 0.994428 1
0.107549 1 0.892451
0 0.792393 1
0 0.250036 1
0 0.952985 1
0.255416 1 0.744584
0 0.596503 1
0 0.795823 1
0 0.43453 1
0 0.639788 1
0.0767536 1 0.923246
0.230986 1 0.769014
0.254503 1 0.745497
0 0.629972 1
0 0.332514 1
0.505873 1 0.494127
0 0.235152 1
0 0.565886 1
0 0.492423 1
0 0.568675 1
0 0.204702 1
0 0.701955 1
0 0.670144 1
0 0.479778 1
0 0.358498 1
0 0.73402 1
0 0.55521 1
0 0.611408 1
0.226891 1 0.773109
0 0.923364 1
0 0.483019 1
0 0.767216 1
0 0.471364 1
0 0.554657 1
0 0.115914 1
0 0.892439 1
0 0.657316 1
0 0.6826 1
0 0.894923 1
0.0137014 1 0.986299
0.0405421 1 0.959458
0 0.340595 1
0 0.724101 1
0 0.324361 1
0 0.856261 1
0 0.377421 1
0 0.643293 1
0 0.601507 1
0 0.414047 1
0 0.393446 1
0.350402 1 0.649598
0 0.36386 1
0 0.944285 1
0 0.553672 1
0 0.968926 1
0 0.546095 1
0 0.390799 1
0 0.753508 1
0 0.422503 1
0 0.672826 1
0 0.835981 1
0 0.379382 1
0 0.68738 1
0 0.588635 1
0 0.815522 1
0.569552 1 0.430448
0 0.731715 1
0 0.604407 1
0.0853581 1 0.914642
0 0.414903 1
0 0.52738 1
0 0.161404 1
0 0.681044 1
0 0.745582 1
0 0.967088 1
0 0.827253 1
0 0.598505 1
0 0.489442 1
0.499247 1 0.500753
0.120022 1 0.879978
0 0.701231 1
0 0.932602 1
0 0.158216 1
0 0.487821 1
0 0.728957 1
0 0.541284 1
0 0.730244 1
0 0.83297 1
0 0.254597 1
0.187947 1 0.812053
0 0.751054 1
0 0.994515 1
0 0.236443 1
0 0.441518 1
0 0.496423 1
0 0.566114 1
0 0.736812 1
0.0509106 1 0.949089
0 0.100447 1
0 0.887849 1
0 0.794597 1
0 0.55605 1
0 0.678272 1
0 0.958335 1
0 0.747247 1
0 0.654723 1
0 0.293202 1
0 0.903225 1
0 0.933936 1
0.0355259 1 0.964474
0 0.776628 1
0 0.566887 1
0 0.673193 1
0 0.861866 1
0.0662942 1 0.933706
0 0.704171 1
0 0.395687 1
0.122421 1 0.877579
0 0.955761 1
0 0.947395 1
0 0.968188 1
0 0.709434 1
0 0.468669 1
0 0.252364 1
0 0.16325 1
0 0.591634 1
0 0.477658 1
0 0.751526 1
0 0.445172 1
0.276968 1 0.723032
0.00869108 1 0.991309
0 0.7702 1
0 0.504462 1
0 0.590189 1
0 0.347222 1
0 0.626787 1
0 0.422111 1
0 0.821413 1
0 0.475546 1
0.266876 1 0.733124
