# vtk DataFile Version 3.0
Particle simulation
ASCII
DATASET POLYDATA
POINTS 400 float
1.26488 8.2077 5.54711
0.386436 8.78326 3.49146
8.6866 5.02407 7.4037
8.99084 4.16274 1.21963
4.5933 7.71013 6.97214
8.22933 10 10
9.96758 4.31887 8.75684
3.9218 2.8347 7.04885
6.87774 9.67938 0.833396
3.60962 1.16655 7.05918
5.3832 0.828325 6.36571
7.69119 5.89138 6.12248
8.4821 10 6.61862
6.34283 8.06412 8.61643
5.50283 6.74058 8.2165
2.3597 5.80632 7.26973
0.784007 0.457273 7.42637
5.797 0.386733 5.11384
9.16881 9.41166 0.812132
0.706359 9.07371 1.86653
1.54412 2.35452 6.65792
9.22494 7.87638 5.76329
5.71743 1.22675 2.09705
6.3678 8.22443 3.16056
7.92205 1.20974 4.94621
1.26614 2.9778 5.29512
5.55137 2.08772 6.66036
7.8838 7.80943 1.58159
6.35682 2.79923 9.12591
0 0.883009 9.11739
0.502441 0.403954 1.95792
8.91502 6.24102 4.59852
3.99732 7.66085 8.71208
1.76114 6.82519 7.35897
6.16337 6.92432 7.77989
0.87826 7.45674 0.527718
7.90522 4.09942 9.77506
5.11502 1.74798 6.82007
7.64726 3.63591 8.51498
5.44492 9.78462 5.91087
3.07874 6.11787 10
10 10 0
8.66206 0.631475 1.14991
2.59407 1.79546 5.98384
1.80755 7.0721 9.30555
7.99464 3.79067 0
3.95492 2.213 9.50161
0.0277249 0.728627 7.88713
9.87387 8.86127 8.88362
2.23686 4.43263 1.02704
6.60527 5.68245 0
2.80394 5.47012 7.93935
1.13668 1.36692 6.68942
0.269545 4.95911 9.91653
9.65116 7.7522 7.43864
6.39769 4.20921 1.47381
5.08352 2.97755 7.17883
0 1.18123 2.00529
7.41755 5.89731 1.34029
3.07133 3.76172 1.37744
7.56791 1.647 4.5603
0.160482 2.64743 4.12116
1.57001 5.64666 0.472616
8.71723 7.07086 7.74994
1.25467 0 6.28396
1.84629 9.31031 1.79842
7.18254 8.52683 7.08416
8.06371 2.77889 1.97494
2.2258 9.11431 4.07544
9.55342 5.20317 5.77406
0.727839 1.47017 3.75677
6.92993 6.69544 1.77797
1.12905 1.90515 8.1918
4.92308 8.67816 1.5559
0.444371 4.18567 8.45477
9.3288 7.09392 5.28127
2.6395 9.09013 8.09869
7.3383 5.44113 6.55331
3.91825 4.21641 6.96151
5.66073 5.02366 7.22584
3.68392 3.02983 1.81888
9.8213 1.15808 2.63183
8.0331 8.29088 8.37349
4.38306 8.78992 1.24342
3.7286 5.97021 2.07006
6.61574 0.257557 2.037
7.46635 1.04149 9.68134
4.20952 1.29448 6.90833
3.96351 2.49958 7.22446
1.6341 0.458297 8.76043
0.883206 5.19526 9.39691
5.53163 5.58971 1.75651
5.35431 0.768607 8.19808
1.31182 9.48156 6.64069
7.85674 1.32233 3.6592
9.53533 2.30447 6.61216
6.29739 3.47223 8.90738
2.97042 0.311194 6.1673
7.63385 4.21264 5.24482
8.50693 8.24422 2.95999
3.44755 6.73256 5.70774
5.62211 9.73748 6.3328
4.88018 0.745882 3.17321
8.23203 2.73344 0
6.24109 3.95697 6.39828
6.03636 2.04866 3.58855
2.18266 3.8078 5.61569
1.03656 1.20697 6.43612
8.10283 8.46372 4.39642
4.76299 1.45206 5.58228
5.29632 8.84669 7.25844
8.9126 0.237883 4.96152
4.42446 5.86064 6.75307
0.13693 7.24818 7.01767
2.2159 6.47341 8.31746
6.74432 2.75739 4.51808
9.57997 2.26886 9.11463
8.96768 3.45602 1.58953
5.95131 0.299433 4.48387
3.11824 3.34422 7.88755
8.14201 6.04532 8.40987
8.62305 3.22125 3.18993
4.19699 1.21544 9.41373
3.23816 5.71435 10
8.78265 7.23016 8.21115
0.334163 1.26074 2.60911
6.78422 1.90064 10
2.32163 4.72873 5.02161
5.71198 2.82208 0
1.68836 0 0.479311
6.32185 9.41749 4.23103
9.65678 1.77292 8.99892
9.55472 5.70889 1.01951
2.57189 7.81405 7.2074
4.97685 3.79818 4.6004
4.81798 8.97034 8.97454
4.29791 8.3021 3.88192
7.85487 9.392 0.268942
4.63409 0.989926 5.74608
8.73769 1.25204 1.55347
5.56996 0.370204 5.13706
7.64103 0.353772 0.653382
8.83786 4.59585 2.54469
3.03105 3.6355 9.90251
7.00293 5.12716 9.59016
1.48881 2.27118 5.42515
3.39447 8.15313 3.83648
7.12085 2.34351 7.3256
6.13571 0.330814 8.13426
2.80204 5.30019 1.50184
5.80894 0.232382 4.94195
8.23632 7.57892 7.41149
8.25171 7.01185 0.246771
8.4403 6.32633 6.81497
4.30467 2.0182 8.73502
3.93462 9.28494 6.47765
6.33159 9.27114 1.28388
6.81804 0.570032 8.10385
9.59468 2.60917 8.41039
8.16373 9.4986 2.5154
9.88761 8.2238 7.42339
3.94629 4.77993 3.21853
8.78446 0.622663 8.42803
5.53483 9.64233 7.88066
6.12058 5.72963 2.46726
5.9783 0.193241 0
7.35138 7.66769 0.894094
5.88046 4.38277 2.9869
7.37145 2.84675 4.02388
9.34438 8.31431 0.262973
0.0794924 0.343109 4.82063
8.37178 0.548153 2.0721
2.31559 5.15201 1.31523
4.70322 0.348457 4.86623
6.91966 5.46018 0.990369
1.63806 8.58104 9.05877
1.52568 2.04658 9.01276
6.43242 1.39509 9.31727
9.04139 1.08086 7.1595
2.65618 7.1367 3.26471
7.72812 0.788903 7.87006
4.50772 0.897359 6.2944
6.94538 9.11577 3.64073
1.57597 8.02423 0.6364
9.50005 2.51432 3.97851
7.78197 9.08789 2.66008
5.55227 0.353925 5.1688
9.79424 2.62223 8.79021
8.79737 4.23162 0.56316
8.24276 0.103791 4.65576
6.07215 7.84672 8.00934
3.91519 0 7.38382
4.06975 7.3936 7.15249
6.10239 6.39207 3.28306
6.46256 7.17183 2.73023
0.191928 9.0424 6.78089
1.48874 1.70246 4.43822
9.72756 5.114 3.54093
8.92044 0.375119 8.86452
3.88831 1.62866 9.65098
5.64276 0.339444 5.01974
9.87042 5.75254 3.93556
2.0237 2.75758 4.82551
9.08784 2.05871 6.97482
6.94296 4.52462 0.893973
8.03003 3.6081 3.48645
2.76347 3.63234 9.08609
1.03412 1.60958 0.229158
5.37207 8.88789 1.82442
9.55408 8.56691 9.13186
5.63347 0.613008 5.16781
0 1.04158 2.86437
6.67084 1.2219 6.62919
1.90426 1.33796 3.09425
4.91679 1.09581 4.48444
4.98048 9.24122 0
6.40544 0.344975 5.19405
4.08184 7.73494 8.80182
8.05293 2.05443 6.98724
0 0 10
8.95307 3.90835 6.42132
3.83513 0.935543 9.66112
7.34547 6.3124 5.42975
6.48722 0.414274 4.69917
5.0072 3.41228 0.508538
1.40839 7.97018 9.94844
0.43565 9.18994 1.12009
3.92194 2.08366 7.41039
5.35068 0.44578 4.88633
2.68676 3.17295 6.67026
5.40639 8.90669 7.43659
2.33777 6.46703 9.54991
4.83741 4.13761 6.28466
4.09279 1.79729 7.51758
0.28702 6.92717 3.56621
7.53542 3.62723 8.65144
5.51569 2.08172 9.45845
6.15402 9.73021 7.7425
5.4169 0.303094 5.03692
1.15082 0.943186 8.09119
6.43081 0.5494 4.98046
6.96988 0 0.381862
0.794217 4.02323 4.98997
1.19776 8.63983 0.0979978
9.14752 5.73486 5.1684
4.2721 6.13761 9.02658
7.96294 2.22913 6.1197
4.44305 2.76722 4.10106
0.896113 4.46659 2.72498
6.98226 0.378607 1.01942
6.40383 0.51956 4.90195
5.21613 0.087968 4.18502
4.04713 8.20483 5.1731
8.10484 4.40883 7.66774
0.965775 1.31041 2.96524
9.86125 4.50645 0.965583
6.04698 4.62541 1.34343
2.067 0.971318 8.1778
2.28242 8.61773 5.75673
5.28941 2.82212 2.67932
5.95737 0 1.00111
10 9.63566 10
1.59526 3.58744 5.1885
6.37911 1.8423 4.58586
6.6493 9.91935 9.46721
6.4937 0.887406 2.0631
0.208982 2.83296 3.46833
8.78567 7.57306 2.14449
2.60101 9.33697 5.52863
1.15373 7.32886 7.67288
5.75198 0.0945693 5.12512
7.83617 1.16674 0.781349
9.99348 4.62254 0
0.249586 6.8736 6.76108
1.6594 5.31582 9.23575
5.94002 0 2.87475
6.18149 7.99161 0.336203
2.91813 9.43951 10
2.23694 2.24379 1.12445
5.39365 0.402365 5.30509
8.88262 8.04491 1.33075
3.37783 0.56785 6.98841
5.78506 8.6518 4.16489
3.0101 4.54575 8.21627
1.46128 5.9764 8.61247
0.327616 4.31012 6.03038
6.74423 0.651435 4.92695
6.86812 9.57532 8.33891
7.67547 6.55595 8.68442
2.34544 0.0298181 8.27221
9.04271 0.379162 7.13727
5.22022 3.51068 8.11468
7.80774 0.77268 0.534518
2.75005 0.276937 1.58209
9.83186 4.16411 5.84313
1.44972 0.488283 8.58891
5.40788 0.395301 5.0831
5.47133 0.328308 5.27144
5.17218 0.402018 5.36895
5.69272 0.290232 4.83824
4.37722 9.31867 2.50834
5.61478 0 2.99508
5.39242 0.601914 5.06463
0.127212 0.0554923 6.25189
6.1022 0.201057 5.26247
1.57261 3.78727 7.22634
5.81716 0.146864 4.86383
5.66644 0.381247 4.97674
9.82439 7.55126 0.81132
1.73259 4.84567 9.22911
0.386597 7.60787 7.51411
4.23876 7.54329 9.05315
0.406013 0.673301 6.49251
6.56608 0.516062 4.40012
8.2289 3.74802 3.93683
5.66373 6.98627 7.79868
7.59562 3.39192 5.41453
9.44415 9.67387 0.708097
4.79723 3.56039 4.85379
7.64004 3.79995 7.34675
3.56065 2.9079 4.41504
8.98605 9.60441 0.775283
1.41031 0.363552 8.70314
5.4976 0.375642 5.01332
5.83733 0.233574 4.49256
1.25993 6.86659 0.33836
5.78397 0.268323 5.30989
5.18525 2.85619 7.40164
2.06744 1.28085 7.67202
5.60331 0.438918 5.14439
0.891833 7.79389 7.66628
1.0875 9.44787 1.73352
7.07253 2.637 3.24192
6.19908 7.32505 9.33716
9.52138 1.21404 9.87545
2.68621 9.76743 4.66296
4.21401 6.03253 9.41975
5.56079 0.40847 5.00014
0.735974 8.30587 9.36492
4.11173 5.40389 5.48832
4.32217 1.81856 10
5.22599 5.98708 3.88535
8.56324 8.8833 1.35652
1.55298 0.209169 8.69005
5.1411 0.102163 5.05769
5.48915 0.328552 4.31832
9.76389 0.222831 6.64748
5.92038 0.347605 4.78254
5.44137 0.671171 4.80175
2.89322 6.55902 7.87974
5.42849 0.754279 5.08696
5.65357 0.542198 4.77704
6.13393 9.21381 4.04836
8.53608 9.50076 8.72738
2.84198 1.25725 8.74492
5.21793 0.486399 4.80334
0.0701755 3.71236 3.7829
6.08112 8.10745 1.55375
5.92344 0.495295 5.35046
5.61109 0.0358085 4.78322
8.48222 4.04481 2.75947
1.4455 0.479954 8.71492
1.4861 0.515426 8.53895
6.12013 0.229341 4.88671
5.60022 0.268813 5.30614
9.74115 3.95858 0
1.48924 0.373061 8.50737
9.20042 5.56352 7.91035
1.01848 0.295462 8.83076
4.43235 4.82765 5.74982
10 0.485482 6.48135
6.43604 0.397155 9.51659
5.17123 8.72402 1.91164
5.45526 0.427575 4.81132
5.08683 0.122211 5.31205
9.70529 0.346971 6.67064
1.6577 0.396331 8.57642
1.91245 0.842233 8.17236
6.48498 6.5106 9.51263
5.55489 0.514463 5.04711
5.243 0.284326 4.80685
5.44915 0.508593 4.98654
8.24179 0.230377 4.77363
5.99436 0 4.96685
2.33474 4.03405 9.63536
1.41668 0.475352 8.60104
5.85733 0.438265 5.19018
5.75496 0.555747 5.2248
3.45426 4.57499 7.72744
1.95504 2.52201 4.739
5.61034 0.517946 4.95568
5.86156 0.527875 4.79252
2.02756 0.50216 8.30058
5.35701 0.0171509 5.15499
9.72956 7.70927 4.75048
2.01409 0.956664 7.78511
5.466 0.213016 4.61712
8.22144 0.184809 3.78136
0.399772 0.335733 5.27041
1.60742 9.45785 1.53313
POINT_DATA 400
SCALARS particleColor float 3
LOOKUP_TABLE default
1 5.96046e-08 0
1 5.96046e-08 0
0.690977 1 0.309023
0.591451 1 0.408549
1 5.96046e-08 0
1 5.96046e-08 0
1 5.96046e-08 0
1 0.824454 0
1 5.96046e-08 0
0.911998 1 0.0880021
0.786679 1 0.213321
1 0.307364 0
0 0.777665 1
1 0.0636846 0
1 0.0232743 0
1 0.172917 0
1 0.785506 0
0.1544 1 0.8456
1 0.93255 0
0.259766 1 0.740234
0.495019 1 0.504981
1 5.96046e-08 0
1 5.96046e-08 0
0.75021 1 0.24979
0.748229 1 0.251771
1 5.96046e-08 0
1 5.96046e-08 0
1 0.106442 0
0.439862 1 0.560138
0 0.882368 1
1 0.285078 0
1 5.96046e-08 0
1 5.96046e-08 0
0.904727 1 0.0952731
1 5.96046e-08 0
0.752606 1 0.247394
0.424893 1 0.575107
1 0.0552284 0
0.394971 1 0.605029
1 0.581755 0
1 5.96046e-08 0
1 5.96046e-08 0
1 5.96046e-08 0
1 5.96046e-08 0
0 0.782748 1
1 5.96046e-08 0
1 5.96046e-08 0
0.982264 1 0.0177364
1 5.96046e-08 0
1 5.96046e-08 0
1 0.258999 0
1 5.96046e-08 0
1 0.813532 0
0.759261 1 0.240739
1 0.0232188 0
0.227179 1 0.772821
1 5.96046e-08 0
0 0.863978 1
1 5.96046e-08 0
0 0.734776 1
0.494253 1 0.505747
1 0.35968 0
1 5.96046e-08 0
0.835058 1 0.164942
1 5.96046e-08 0
1 0.277662 0
1 5.96046e-08 0
0.627429 1 0.372571
0.287687 1 0.712313
1 0.738538 0
1 0.433428 0
1 5.96046e-08 0
0.834556 1 0.165444
1 0.994208 0
0.315414 1 0.684586
0.733992 1 0.266008
0.564551 1 0.435449
1 0.0435404 0
0 0.447373 1
1 5.96046e-08 0
0.773803 1 0.226197
1 0.997635 0
0.519637 1 0.480363
0.728765 1 0.271235
1 0.750008 0
1 0.217733 0
1 0.25903 0
1 5.96046e-08 0
1 5.96046e-08 0
1 0.570571 0
1 5.96046e-08 0
0.920444 1 0.0795561
1 0.664993 0
1 0.547465 0
0.607299 1 0.392701
0 0.585772 1
1 5.96046e-08 0
1 0.0216054 0
0 0.680945 1
1 5.96046e-08 0
1 5.96046e-08 0
1 5.96046e-08 0
0.943634 1 0.0563656
1 5.96046e-08 0
1 5.96046e-08 0
1 0.759341 0
1 0.242282 0
0.566797 1 0.433203
0.680292 1 0.319708
0.963215 1 0.0367851
1 5.96046e-08 0
1 0.104222 0
1 5.96046e-08 0
1 0.968809 0
0.379632 1 0.620368
1 0.370174 0
1 5.96046e-08 0
0 0.820116 1
0.539626 1 0.460374
1 5.96046e-08 0
1 0.688401 0
0.453071 1 0.546929
1 0.679408 0
1 5.96046e-08 0
1 0.787152 0
0.371287 1 0.628713
0.629697 1 0.370303
1 5.96046e-08 0
1 5.96046e-08 0
1 5.96046e-08 0
0 0.87093 1
1 0.177437 0
0 0.900676 1
1 5.96046e-08 0
1 0.710777 0
0.671917 1 0.328083
1 5.96046e-08 0
1 0.774777 0
0 0.995059 1
1 5.96046e-08 0
0 0.715573 1
1 0.994816 0
0.0857311 1 0.914269
1 5.96046e-08 0
1 5.96046e-08 0
1 0.427991 0
1 5.96046e-08 0
1 0.727338 0
1 0.83944 0
0.284638 1 0.715362
0 0.207853 1
0.104862 1 0.895138
0.860454 1 0.139546
1 5.96046e-08 0
1 0.717723 0
1 0.601379 0
0.327127 1 0.672873
1 0.263168 0
1 0.548621 0
1 5.96046e-08 0
0.496826 1 0.503174
1 5.96046e-08 0
0.684064 1 0.315936
0.135535 1 0.864465
1 0.40377 0
0.0233809 1 0.976619
1 5.96046e-08 0
0.832779 1 0.167221
1 0.612596 0
0.272065 1 0.727935
1 0.610717 0
1 5.96046e-08 0
1 5.96046e-08 0
1 0.734865 0
1 5.96046e-08 0
1 5.96046e-08 0
1 0.578498 0
1 5.96046e-08 0
1 5.96046e-08 0
1 5.96046e-08 0
0.746686 1 0.253314
0.622945 1 0.377055
0.950783 1 0.0492173
1 0.95045 0
1 0.41128 0
1 0.287696 0
0 0.389568 1
0.879616 1 0.120384
1 0.880447 0
1 0.00940555 0
1 0.650437 0
1 5.96046e-08 0
0.865332 1 0.134668
0.652212 1 0.347788
1 5.96046e-08 0
1 5.96046e-08 0
0.215284 1 0.784716
1 0.483745 0
0.556384 1 0.443616
0.554743 1 0.445257
0 0.425282 1
1 5.96046e-08 0
1 5.96046e-08 0
1 0.798761 0
1 5.96046e-08 0
0.56712 1 0.43288
1 5.96046e-08 0
1 0.786917 0
0.527327 1 0.472673
1 0.338093 0
0 0.489764 1
0.338595 1 0.661405
1 5.96046e-08 0
0 0.917008 1
1 0.508128 0
0.869168 1 0.130832
0 0.553568 1
1 0.750688 0
0.880135 1 0.119865
1 5.96046e-08 0
1 5.96046e-08 0
1 5.96046e-08 0
1 5.96046e-08 0
0 0.674059 1
1 0.594213 0
0 0.615211 1
0 0.682183 1
0 0.534938 1
0 0.426236 1
1 5.96046e-08 0
0.643734 1 0.356266
0.748647 1 0.251353
0.892393 1 0.107607
0 0.501981 1
0.742756 1 0.257244
0.216192 1 0.783808
0.647764 1 0.352236
1 0.387792 0
0 0.352578 1
1 5.96046e-08 0
0 0.933178 1
1 5.96046e-08 0
1 0.980377 0
1 0.629444 0
1 5.96046e-08 0
1 0.887368 0
1 0.771207 0
1 0.245562 0
1 0.558597 0
1 0.243807 0
0 0.345902 1
1 0.969403 0
1 0.498069 0
1 5.96046e-08 0
0.36961 1 0.63039
0.961217 1 0.0387831
0.59321 1 0.40679
0 0.404113 1
1 5.96046e-08 0
0.601879 1 0.398121
1 0.317195 0
1 5.96046e-08 0
1 5.96046e-08 0
1 5.96046e-08 0
1 5.96046e-08 0
0.784391 1 0.215609
1 0.896795 0
1 0.671102 0
1 5.96046e-08 0
1 0.568796 0
0 0.680201 1
1 0.98664 0
1 0.990468 0
0.68665 1 0.31335
1 0.0946943 0
0 0.973344 1
0.240252 1 0.759748
1 5.96046e-08 0
1 0.245022 0
0 0.910516 1
1 5.96046e-08 0
1 0.247395 0
0.440463 1 0.559537
0.942841 1 0.0571589
1 0.517816 0
1 0.931356 0
0 0.480076 1
1 5.96046e-08 0
0.870304 1 0.129696
0 0.963583 1
0.997515 1 0.0024848
1 0.681409 0
0.215375 1 0.784625
1 5.96046e-08 0
1 5.96046e-08 0
0 0.401659 1
0.057328 1 0.942672
0 0.792387 1
0 0.785943 1
0 0.663475 1
1 5.96046e-08 0
1 0.0320369 0
0 0.811066 1
0.455479 1 0.544521
0 0.198927 1
1 5.96046e-08 0
0 0.363528 1
0 0.09262 1
0.234045 1 0.765955
0.826055 1 0.173945
0.663312 1 0.336688
0.439106 1 0.560894
0.657471 1 0.342529
0 0.32893 1
1 0.867657 0
0.720881 1 0.279119
1 5.96046e-08 0
0 0.68009 1
1 0.499734 0
1 5.96046e-08 0
1 0.180374 0
0.988995 1 0.0110046
0.0138152 1 0.986185
0 0.287382 1
0 0.763858 1
1 0.997352 0
0.0350955 1 0.964905
1 0.393973 0
0 0.966806 1
0 0.469691 1
0 0.655565 1
1 0.166743 0
0.0377504 1 0.96225
1 0.731228 0
0.81674 1 0.18326
1 5.96046e-08 0
0.636834 1 0.363166
0 0.306927 1
1 5.96046e-08 0
1 0.633737 0
1 5.96046e-08 0
0.158876 1 0.841124
0.92259 1 0.0774098
0 0.467773 1
0 0.448648 1
0 0.469315 1
0.170857 1 0.829143
0 0.735491 1
0 0.971653 1
1 0.580673 0
0 0.703301 1
0 0.793832 1
1 0.654407 0
0.784941 1 0.215059
0.628555 1 0.371445
0 0.541713 1
1 0.401564 0
1 0.162714 0
0 0.55417 1
0 0.575796 1
0 0.639683 1
0 0.428813 1
0 0.342406 1
0 0.64625 1
0 0.601909 1
1 5.96046e-08 0
0 0.629298 1
0.659263 1 0.340737
0 0.431868 1
1 5.96046e-08 0
0 0.57644 1
0.41844 1 0.58156
1 0.444426 0
0.0885666 1 0.911433
0 0.465603 1
0 0.533291 1
0 0.603778 1
0 0.290485 1
1 0.759708 0
0.616519 1 0.383481
0 0.496479 1
0 0.565351 1
0.865351 1 0.134649
0 0.670792 1
1 0.126057 0
0 0.572977 1
0 0.698437 1
0 0.676928 1
1 5.96046e-08 0
0.0916077 1 0.908392
0 0.987095 1
0 0.937336 1
0 0.387904 1
0 0.678989 1
0 0.342817 1
0 0.56159 1
0 0.0735016 1
0.966533 1 0.0334675
1 0.835219 0
0.239586 1 0.760414
