# vtk DataFile Version 3.0
Particle simulation
ASCII
DATASET POLYDATA
POINTS 400 float
7.54192 0.347194 9.93488
8.97533 7.09708 8.02917
0.32542 1.08439 6.62818
3.39466 0.566627 2.07089
8.62196 0.473552 3.62919
6.54523 5.16399 2.65476
5.453 0.348079 2.05205
9.25212 2.85691 2.20361
8.72578 7.75794 9.25182
3.58538 0.0315059 7.71566
8.83268 3.91629 2.70388
9.39271 5.73546 4.05448
9.27119 0.597847 9.20917
5.72172 5.41344 0.657537
6.50725 2.7805 2.04059
9.54071 5.45699 9.76554
1.00132 5.16956 0.134344
2.81544 0.664998 1.82162
0.823077 3.40467 5.02679
2.23926 2.3761 2.8233
2.3736 0.330447 1.2948
9.17706 2.81797 0.321493
9.23922 2.12141 8.69956
1.8939 1.63696 0.892137
0.326324 8.65797 0.992547
4.20301 0.724764 0.661972
8.58102 7.57912 1.39339
0.542347 1.08911 0.7815
9.24288 0.311749 4.80901
7.9562 2.46382 1.44694
4.38948 6.16138 9.61389
4.33352 5.00201 6.65221
8.64056 0.300961 6.56254
3.67774 0.00917092 2.61243
7.65193 2.02472 1.31624
3.59642 3.2981 0.555375
3.75039 3.98617 0.180811
3.29656 0.644183 2.26076
7.24853 0.175628 2.04715
0.0950793 1.41451 4.76305
1.98551 0 5.86735
9.73579 2.07851 6.3943
7.0323 1.72322 9.12206
2.73152 3.81904 7.09255
7.82682 0.964438 5.80565
6.0646 0.704457 1.49033
3.94008 1.12282 5.15252
7.80132 0.248459 4.67833
6.31059 0.521124 1.51469
8.53138 2.76096 1.54953
1.83506 1.88094 3.15516
1.63975 10 2.85196
8.52037 0.216127 8.53281
3.76819 0.116815 7.558
7.69606 0.505899 8.35832
6.00594 0.437423 1.55821
9.69037 1.42089 8.53411
0.915421 0.197361 7.99492
5.50644 1.00099 0.974152
9.27178 8.37854 5.01239
4.47091 9.0227 4.83286
6.09273 2.18502 9.03107
2.39926 0.111904 3.54974
3.88761 0.0309131 7.36297
1.6783 9.10316 2.39264
0.201228 0.102359 3.61988
4.4456 0.979751 9.46518
2.2176 2.62672 3.11539
5.72864 0.806696 1.012
5.66799 0.260449 8.75441
8.89921 0.754011 7.78776
3.15319 0.31195 2.17788
5.93647 1.3754 3.62024
3.68028 0.184688 7.42752
9.40691 0.774445 7.31654
7.69672 0.514917 0.738015
4.52461 1.00689 9.53599
5.95929 0.446955 8.98651
9.21846 1.69924 0.0841116
0.792192 7.90536 9.76847
3.77995 0.430131 1.10487
3.09546 0.865588 2.25264
2.5627 0.40546 1.0157
2.62853 0.397046 2.05304
3.08634 0.0761491 9.29857
5.5036 0.569405 8.3785
5.58158 0.0875066 8.59213
4.24349 3.35668 1.80922
8.8098 3.99977 3.0594
8.97682 0.201626 1.44748
3.94403 0.314934 1.28789
3.86527 0.277168 1.45519
0.90304 0.685315 6.60385
3.39111 0.762326 1.63921
3.13696 0 9.32534
5.87397 0.546058 8.07706
5.09095 0.19752 9.16456
1.38537 1.44626 0
9.09078 0.340437 7.50591
8.95077 0.208025 1.39598
3.41586 0.737918 1.94838
6.04813 1.2869 0.608386
2.32138 0.249729 1.33932
9.52696 0.935447 9.35021
5.23267 1.08748 0.735616
3.43071 0.408959 2.41503
5.3115 0.0588158 8.03973
6.23638 0.211881 1.62235
6.49314 0.525338 1.20555
8.43276 0.555395 1.17667
7.96101 8.07807 9.50897
4.01981 0.391394 7.25637
3.28361 0.163402 2.79061
6.73733 0.176185 2.09547
3.27784 0.489397 2.40154
1.52241 0.882932 4.79886
5.80917 0.45336 8.64511
6.25947 0.0832036 2.13217
6.52202 0.457986 1.20941
7.71516 0.25953 7.6814
3.15592 0.325307 2.36514
4.77182 4.71286 2.43217
7.12966 9.16424 4.1655
5.2531 1.11688 4.83981
8.12519 0.112998 8.40984
3.50155 0.131784 1.00318
4.35294 1.62139 3.86557
3.84059 0.223224 7.27038
2.08067 5.40935 7.54277
1.20347 9.11383 7.04944
3.71126 0.23562 1.34559
4.2558 3.30032 2.03062
5.97305 0.414652 8.36041
7.83726 1.34954 5.61978
5.88178 0.859931 4.39092
1.92685 0.0661741 1.84139
1.44696 0.361173 8.64727
3.93965 0.00837788 7.31187
3.61586 2.4533 6.34113
7.64414 0.0765034 8.18619
3.7684 0.309531 1.1663
3.47759 2.00583 9.39191
9.72959 4.35683 6.54713
7.85741 0.0738794 7.63281
3.57055 0.369731 2.06119
2.90793 0.722465 2.03159
7.89392 1.02551 5.79747
0.689287 4.68652 0.0807553
2.08777 0.839565 2.03636
2.39065 1.134 5.36793
3.75432 0.323893 1.18014
8.74446 1.51321 6.94351
1.46753 0.882783 2.52306
6.37065 1.17016 9.00403
4.51241 3.94556 0.34209
5.97689 0.668392 1.55563
8.49209 1.35484 6.96452
3.63934 0.500624 2.30359
7.30058 0.510381 5.98297
3.20523 0.685833 1.33847
3.5404 2.94119 1.8424
0.237808 0.966835 6.50266
5.38606 0.193993 8.82619
3.59557 0.698648 1.61787
1.9698 2.29407 3.24666
8.46668 0.0857927 8.26449
6.04609 0.613118 8.45863
5.62359 0.119813 8.54364
7.49149 3.08536 5.39676
9.1767 2.75014 3.44008
2.80306 0.843271 2.40456
4.60458 1.35411 3.88962
6.44992 1.03392 1.69478
2.4416 0.536697 2.22191
3.32321 0.0813457 2.24835
3.37287 3.88944 0.570087
5.45718 0.414185 8.64166
6.36677 0.780618 8.64248
7.97743 1.20397 6.47673
2.83206 5.94973 6.44378
2.66068 0.35118 2.01673
3.74517 0.461277 0.868392
8.01033 5.45455 6.05882
3.46108 0.046854 2.35749
5.02018 0.218898 9.3387
4.02013 0.438596 1.27667
2.48102 0.8933 2.18228
0.967018 0.676714 6.53823
7.05979 0.79383 5.66095
2.88867 0.567721 1.71567
2.7325 0.268164 1.97889
2.67577 0.465097 1.74548
7.81784 0.0639724 7.32013
1.04806 3.48815 4.49384
4.42682 3.30354 4.46543
2.33079 0.536771 2.30976
3.61925 0.406732 1.51744
8.46989 4.33889 8.12414
2.84818 0.304752 1.72259
3.60276 0.115063 2.18752
3.57091 0.586015 2.09481
6.3516 0.200966 1.41583
7.13141 0.503513 6.03384
5.41851 0.273548 8.14678
9.59346 8.90275 0.225359
5.44235 0.768823 8.115
3.80258 0.383101 1.94479
1.23383 0.0392425 7.7845
0.693322 0.121608 7.81495
8.99162 0.239381 1.25983
3.43102 0.527555 2.1454
5.87965 0.398732 1.61184
5.14413 0.0532089 8.82614
7.45829 0.334545 7.84944
6.37423 0.344492 7.30162
5.52653 0.577355 8.30645
3.79311 0.396761 1.90119
3.09993 0.503996 1.51027
4.27543 1.74144 4.15812
8.72564 0.309318 1.61237
0 7.61867 5.11587
6.88555 0.805365 9.19596
6.29824 1.01134 8.77806
3.3676 0.372454 2.29503
5.37039 0.357108 8.50685
2.99237 0.255237 2.074
3.05783 3.23954 0.365061
2.60867 0.495801 1.92539
3.30275 0.440101 1.83026
7.88056 0.506083 8.60775
1.37351 0.424796 5.57182
5.03613 0.247311 9.33222
7.42992 0.913586 5.99419
2.69294 0.315847 2.28239
5.99017 0.913399 8.83269
2.6274 0.828275 1.62614
4.56369 0.541332 9.4736
3.29463 0.111172 2.08297
2.43997 0.155473 1.48625
0.835529 0.179096 7.77501
3.75277 0.414395 1.34748
1.82558 0.427641 1.76726
2.99885 0.38181 1.8835
3.60724 0.899827 1.92945
5.09772 0.338664 9.18495
2.14048 0.0865628 1.49654
0.175881 1.12574 1.14403
8.24487 0.475059 9.94276
6.22128 0 1.41879
5.18575 0.40603 8.34994
3.22936 0.449411 1.95868
2.19277 0.0455283 4.20979
5.42773 0.399298 8.49458
2.9361 0.0901094 1.68266
7.63041 0.790282 6.06616
2.99373 0.543662 1.93754
7.99814 0.4017 1.1271
6.05478 0.563294 8.34647
6.15183 0.471442 1.44501
5.25085 0.496003 8.39822
3.14056 0.234419 1.86939
1.69692 4.09995 4.67724
5.24719 0.0762062 8.37047
8.79447 1.49346 1.44084
5.05176 0.577566 9.19507
2.46928 3.5563 6.80799
1.66249 0.342609 1.93101
5.52629 0.187661 7.93172
7.16791 0.826687 6.10599
2.46901 0.426497 1.75829
3.85442 0.324874 1.6446
0.488701 0.673442 1.34202
6.86611 0.169587 2.4388
3.22728 0.408895 2.3792
5.19114 0.389712 8.0725
6.26572 0.650349 8.33585
3.07358 0.369049 7.67142
4.58063 9.40368 7.13529
2.53152 0.0712726 9.5261
2.78451 0.275651 2.0388
9.40637 0.0795883 1.34412
6.07823 0.420623 1.48553
8.27721 2.08458 1.4983
3.97753 0.268185 7.31765
7.97486 0.990617 6.8414
7.08375 0.853105 6.07006
3.03419 0.544428 2.22931
3.09976 0.661785 1.45053
7.84421 0.353516 8.04355
7.16905 10 6.93175
8.65296 0.191253 4.19075
6.28868 0.378742 1.68685
3.7282 0.502656 1.14307
3.85994 0.197265 7.23076
5.18908 0.464564 8.65219
5.61459 0.433914 8.27834
3.52666 0.629685 1.74938
2.91642 0.960134 2.03288
2.17904 0.617541 1.74685
2.93494 0.42721 2.2676
9.27501 0.161484 1.21118
7.61032 0.167716 7.82576
2.39999 0.624531 4.89595
5.74632 0.67373 1.04632
3.28371 0.564398 1.85693
0.584535 0.89913 0.117161
3.85223 0.535044 1.88699
3.26669 0.468561 1.73807
2.24782 0.701092 5.04185
3.26752 0.505867 1.97683
5.81837 0.968246 8.8382
8.71314 1.46516 6.98792
7.63677 0.997996 5.64125
3.83523 0.706292 1.84928
4.0513 0.394323 1.46019
2.84329 0.0949928 9.45662
3.73059 0.94329 2.49638
6.15839 0.0739484 1.89365
6.23032 0.371974 1.39059
2.35748 0.333758 1.27364
5.78932 0.659652 8.37613
2.75302 0.293136 1.17549
5.81278 0.374677 8.48529
2.61081 0.390936 1.20294
8.84062 0.321866 1.24515
8.96822 0.227745 1.32512
2.75099 0.380844 1.39435
6.23197 0.118416 1.59316
6.81293 0.311745 2.22424
3.17359 0.857133 2.46591
4.80686 0.283924 8.46238
2.51444 0.488091 2.02768
5.47131 0.612367 7.81546
3.31115 0.462783 2.23474
6.8515 0.154845 2.35283
7.88774 0.226725 7.71556
7.34723 0.331246 2.34263
2.92086 0.37404 1.97796
9.30764 0.0445497 1.34497
2.22531 0.566898 1.27214
6.18621 0.753258 8.30725
1.89151 0.336159 1.34402
5.35742 0.77676 8.16814
6.07555 0.894299 8.85961
2.99132 0.525338 2.35316
3.24314 0.379434 2.32555
6.201 0.325362 1.40001
3.22221 0.341735 2.1155
3.28786 0.456653 2.29902
2.34685 0.836706 1.25133
2.46124 0.408269 1.30192
2.49725 0.417915 1.57355
5.17728 0.511503 8.69151
5.83296 0.682221 8.58062
2.74994 0.0922749 1.3084
2.96928 0.438454 2.05352
6.02035 0.215679 1.54485
5.48178 0.837579 8.11292
3.64381 0.426077 1.71603
2.75968 0.20111 1.53802
6.07266 0.534468 1.65727
5.73648 0.25624 7.99508
5.19957 0.398728 8.31683
3.16357 0.353488 1.97758
4.03773 0.388559 2.00417
7.16589 0.662891 5.93101
5.37428 0.422503 8.62604
6.10375 0.976041 9.08583
5.24245 0.735318 8.45559
3.55569 0.459606 1.48024
6.1036 0.625102 1.6408
8.8237 1.45597 7.02034
5.61302 0.247532 8.51487
3.5331 0.264185 1.55877
3.45032 0.321342 1.33117
7.57089 1.03882 5.63107
5.26237 0.562922 8.7443
5.49239 0.166875 8.36582
5.87956 0.479651 8.73616
2.87037 0.51767 2.40389
2.77072 0.200506 1.46758
2.92881 0.369368 2.02394
5.26019 0.465614 8.63221
3.29874 0.6176 1.88378
3.93997 0.243736 7.41258
5.66251 0.515548 8.52755
2.60689 0.36324 1.64769
3.07434 0.631584 1.64471
1.41041 0.524269 5.53667
5.70841 0.543627 1.77022
2.78988 0.247741 1.54019
2.60731 0.286079 2.03021
5.51886 0.19732 8.29833
2.5859 0.429463 2.35715
3.8969 0.201123 7.36919
5.54249 0.579327 8.43974
2.59025 0.388945 1.7454
2.42812 0.778116 1.17108
8.52849 0.189158 1.85915
5.70594 0.543474 1.73884
POINT_DATA 400
SCALARS particleColor float 3
LOOKUP_TABLE default
0.252259 1 0.747741
1 5.96046e-08 0
0 0.376143 1
0 0.73671 1
0 0.733622 1
0.500799 1 0.499201
0.25202 1 0.74798
0.239848 1 0.760152
0.241534 1 0.758466
0 0.774801 1
0 0.813563 1
1 0.171998 0
0 0.823698 1
1 0.128219 0
0 0.494682 1
0 0.42516 1
0 0.926672 1
0 0.630415 1
0.517959 1 0.482041
0.568513 1 0.431487
0 0.376296 1
0.587198 1 0.412802
0.0106577 1 0.989342
0 0.819595 1
0.668272 1 0.331728
0 0.478981 1
1 5.96046e-08 0
0 0.246747 1
0 0.712228 1
0 0.93276 1
0 0.983414 1
0.189288 1 0.810712
0.199645 1 0.800355
0 0.835841 1
0 0.804599 1
0.351467 1 0.648533
1 0.945813 0
0 0.59323 1
0 0.556522 1
0 0.396937 1
0 0.611382 1
0 0.510915 1
0 0.916344 1
0 0.558471 1
0 0.386704 1
0 0.272665 1
0 0.319589 1
0.863594 1 0.136406
0 0.60434 1
0 0.674967 1
0 0.681348 1
1 5.96046e-08 0
0 0.416679 1
0 0.304829 1
0 0.839171 1
0 0.889198 1
0 0.841763 1
0 0.794638 1
0 0.73665 1
0.391987 1 0.608013
1 0.669742 0
0 0.524818 1
0 0.989754 1
0 0.966398 1
0.0431558 1 0.956844
0 0.559361 1
0 0.609608 1
0 0.904819 1
0 0.767233 1
0 0.584486 1
0 0.758033 1
0 0.361869 1
1 0.454482 0
0 0.762405 1
0 0.290891 1
0 0.913839 1
0 0.220204 1
0 0.165755 1
0.755132 1 0.244868
0 0.844662 1
0 0.778661 1
0 0.336604 1
0 0.591788 1
0 0.470879 1
0.00367788 1 0.996322
0 0.434137 1
0.396468 1 0.603532
0.00313818 1 0.996862
0 0.928459 1
0 0.349617 1
0 0.672643 1
0 0.850513 1
0 0.625599 1
0 0.807787 1
0 0.528138 1
0 0.417788 1
0 0.7781 1
0 0.638669 1
0 0.891626 1
0 0.139192 1
0 0.690289 1
0 0.771461 1
0 0.906575 1
0 0.310797 1
1 0.429791 0
0 0.552334 1
0 0.806032 1
0 0.976212 1
0 0.412752 1
0 0.356971 1
0 0.682055 1
0 0.887984 1
0 0.655545 1
0.216776 1 0.783224
0 0.448985 1
0 0.554282 1
0 0.457102 1
0 0.652463 1
0 0.210268 1
0.203297 1 0.796703
0 0.392063 1
0.764994 1 0.235006
0.231737 1 0.768263
0.846814 1 0.153186
0 0.886949 1
0 0.483829 1
0 0.747995 1
0 0.143461 1
0.281583 1 0.718417
0.999044 1 0.000956357
0 0.399046 1
0 0.926799 1
0 0.95954 1
0 0.663436 1
0.0111508 1 0.988849
0 0.519324 1
1 5.96046e-08 0
0 0.821012 1
0 0.653728 1
0 0.663312 1
0 0.90441 1
0 0.626543 1
1 5.96046e-08 0
0.100015 1 0.899985
0 0.596559 1
0 0.642474 1
0 0.711541 1
0.108023 1 0.891977
0 0.557825 1
0.209263 1 0.790737
0 0.759839 1
0 0.406756 1
0 0.87921 1
0 0.654112 1
0 0.187446 1
0 0.740873 1
0 0.747369 1
0 0.500531 1
0 0.479383 1
0 0.690264 1
0 0.96287 1
0 0.876254 1
0 0.466842 1
0 0.261989 1
0 0.755743 1
0 0.429549 1
0 0.917941 1
0 0.61606 1
0 0.718237 1
1 5.96046e-08 0
0 0.378922 1
0 0.420899 1
0 0.517119 1
0 0.354722 1
0 0.686181 1
0 0.542132 1
0 0.569559 1
0 0.679131 1
0.189732 1 0.810268
0.931311 1 0.0686895
0 0.433321 1
0 0.720015 1
0 0.581562 1
0 0.904729 1
0 0.452953 1
0 0.526935 1
0 0.238201 1
0 0.744349 1
0 0.27229 1
0 0.156931 1
0 0.249232 1
0 0.670466 1
0.172427 1 0.827573
0 0.770123 1
0.190767 1 0.809233
0 0.382545 1
0 0.814148 1
0 0.499567 1
0 0.661264 1
0.00648336 1 0.993517
0 0.327301 1
0 0.424343 1
0 0.685718 1
0 0.813989 1
0.394035 1 0.605965
0 0.553374 1
0 0.806636 1
0.105256 1 0.894744
0 0.873867 1
0 0.371782 1
0 0.63883 1
0 0.414659 1
0.114332 1 0.885668
0 0.345882 1
0 0.63206 1
0 0.348994 1
0 0.672422 1
0 0.395072 1
0 0.722489 1
0 0.339668 1
1 5.96046e-08 0
0.307659 1 0.692341
0 0.45329 1
0 0.655033 1
0 0.884287 1
0 0.540078 1
0 0.604137 1
0 0.643587 1
0 0.483678 1
0 0.781648 1
0.475744 1 0.524256
0 0.622848 1
0 0.267845 1
0 0.622063 1
0 0.32809 1
0 0.777887 1
0 0.699493 1
0 0.710541 1
0 0.717378 1
0 0.761066 1
0.210578 1 0.789423
0 0.569162 1
0.0110056 1 0.988994
0 0.932154 1
0 0.374082 1
0.0184643 1 0.981536
0 0.274365 1
0.317579 1 0.682421
0 0.535995 1
0 0.663556 1
0 0.277286 1
0 0.782788 1
0 0.610701 1
0.114194 1 0.885806
0 0.552671 1
0 0.722184 1
0 0.74162 1
0 0.847276 1
0 0.907766 1
0 0.589261 1
0 0.614568 1
0.164191 1 0.835809
0 0.834553 1
0.609329 1 0.390671
0 0.286097 1
0.41186 1 0.58814
0 0.681621 1
0 0.283178 1
0 0.349397 1
0 0.555669 1
0 0.660043 1
0.783954 1 0.216046
0 0.702091 1
0.25334 1 0.74666
0 0.488806 1
0 0.330509 1
0 0.586098 1
0 0.602693 1
0.476724 1 0.523276
0 0.145276 1
0 0.904251 1
0 0.878683 1
0 0.998567 1
0.0305341 1 0.969466
0 0.954467 1
0 0.555564 1
0 0.801252 1
0.0483707 1 0.951629
0.376576 1 0.623424
0.147494 1 0.852506
0 0.600699 1
0 0.609012 1
0 0.5212 1
0.17321 1 0.82679
0 0.507729 1
0.129253 1 0.870747
0 0.743248 1
0 0.455665 1
0.298587 1 0.701413
0 0.89704 1
0 0.81284 1
0 0.46342 1
0.0975976 1 0.902402
0 0.603287 1
0.0133562 1 0.986644
0.420093 1 0.579907
0.111951 1 0.888049
0 0.525547 1
0 0.543722 1
0.146772 1 0.853228
0 0.635598 1
0 0.430826 1
0 0.837384 1
0 0.993475 1
0 0.771941 1
0 0.879204 1
0 0.606654 1
0 0.866871 1
0 0.667678 1
0 0.290305 1
0 0.793001 1
0.245908 1 0.754092
0 0.837925 1
0 0.506702 1
0.207619 1 0.792381
0 0.271227 1
0 0.623337 1
0 0.910851 1
0.125309 1 0.874691
0 0.628316 1
0 0.898344 1
0 0.480287 1
0 0.524551 1
0 0.723737 1
0 0.534194 1
0.677691 1 0.322309
0 0.441089 1
0 0.620614 1
0.0707077 1 0.929292
0 0.559763 1
0 0.613535 1
0 0.859453 1
0 0.491994 1
0 0.911808 1
0 0.887727 1
0 0.642042 1
0 0.729975 1
0 0.806301 1
0 0.614882 1
0 0.989666 1
0 0.932424 1
0 0.318217 1
0.176178 1 0.823822
0 0.772196 1
0 0.880104 1
0 0.518822 1
0.158445 1 0.841555
0.2441 1 0.7559
0 0.415529 1
0 0.801914 1
0 0.509093 1
0 0.855824 1
0 0.577982 1
0 0.451044 1
0 0.255855 1
0 0.925569 1
0 0.4468 1
0 0.806862 1
0 0.551395 1
0.48217 1 0.51783
0 0.494703 1
0 0.596507 1
0 0.519875 1
0.189201 1 0.810799
0 0.659901 1
0 0.521684 1
0 0.411064 1
0 0.599206 1
0 0.420648 1
0 0.749555 1
0 0.578466 1
0 0.367351 1
0 0.595119 1
0 0.588141 1
0 0.702696 1
0 0.438358 1
0 0.335863 1
0 0.316873 1
0 0.371467 1
0 0.574909 1
0 0.601128 1
0 0.53413 1
0 0.683568 1
0 0.714153 1
0 0.682597 1
0 0.830723 1
0 0.348009 1
0 0.26062 1
0 0.407883 1
0 0.745886 1
