# vtk DataFile Version 3.0
Particle simulation
ASCII
DATASET POLYDATA
POINTS 400 float
3.35788 9.54063 2.61816
0.144204 5.40632 1.51757
4.0743 2.48908 2.11729
2.27666 4.48271 6.61529
7.3586 4.33487 0
1.12402 2.98154 5.7002
9.29243 8.92097 3.11337
4.91865 0.990196 2.55847
3.13337 6.49881 1.21068
9.49826 3.06838 2.36478
3.52072 0 9.43567
7.82554 0.283706 9.62793
9.52319 8.79952 4.43194
2.84544 0 10
0.512981 2.25367 3.52173
9.26287 5.24272 5.7272
7.46883 1.95856 2.58725
6.12341 5.43088 2.68618
3.74778 8.62094 9.39764
3.52871 0 1.05969
2.26541 3.811 0.801619
7.45671 1.53641 7.59328
7.74721 8.31681 3.86748
2.64773 9.47499 6.70959
9.70396 4.5288 9.55806
6.92282 0.475374 8.88682
1.70491 8.25876 1.71328
8.23858 0.827531 5.80734
2.00777 1.77126 3.83442
9.26164 2.11379 7.49789
1.91608 4.59886 6.73735
6.67144 0.706025 7.63064
9.13362 0.968353 5.36865
3.15966 6.0531 9.08133
6.59735 5.14494 7.60797
4.46109 3.48016 6.94741
1.15136 4.91415 0.883222
6.13304 3.87225 7.28248
5.2559 7.26714 4.24201
3.22006 1.40739 8.15149
3.40775 6.09522 7.88297
3.74764 9.12689 4.4734
2.05711 8.60468 0.273464
9.02403 1.09395 8.09225
8.56785 9.32031 2.05542
2.27869 6.22656 1.05114
0.75103 4.04897 2.24239
2.73328 9.91113 1.20105
0.850062 1.07534 3.21013
1.75325 2.56213 7.05356
7.2474 0.0954585 7.15195
0.403015 3.28006 6.36345
3.78795 9.85524 5.30502
2.94184 5.33618 0.46736
8.43198 1.12713 8.33164
5.22845 1.48095 7.75941
5.50817 10 5.43644
9.53329 1.68695 3.65517
1.05409 1.24506 5.19093
1.71233 9.25 6.94874
4.60657 3.6135 6.41317
1.96018 8.95183 7.38964
4.70282 3.69938 0.504075
2.69801 2.06059 5.3605
5.34746 4.30346 6.22541
1.04443 6.39685 6.78397
8.50713 4.13421 0.257223
9.02643 6.62121 2.18662
6.58942 4.10902 2.12773
1.00102 5.94824 7.96104
0.287629 6.62418 6.46449
9.17805 3.19852 4.93453
8.47945 0.170243 3.10604
9.08799 1.03989 7.24071
4.40957 9.77972 9.85831
5.94667 0.975405 3.8444
5.06282 6.12553 1.68248
0.883863 4.77873 2.21246
4.63514 8.17214 4.0761
8.17831 9.63491 7.05748
2.74052 5.65754 0.975747
9.75787 9.58919 6.13121
3.73402 0.302255 9.48359
2.79113 8.80089 9.02099
3.01313 5.58375 7.86976
9.37362 1.46113 8.86994
7.49717 0.183801 5.65343
5.69215 5.83352 7.06389
1.32695 2.1923 3.20595
9.79455 6.22759 5.75381
2.45816 7.54073 1.0081
0.311062 0.50158 2.35087
9.35181 4.24001 3.25106
6.76139 4.04218 5.39917
5.00121 8.14261 0.902158
6.38032 9.12573 5.94044
1.00886 4.37518 6.02201
3.16505 9.73201 2.33867
1.28278 0.503693 0.925853
5.18401 4.58145 3.7545
8.99909 5.56766 9.82732
8.48318 0.396837 6.44508
2.68505 0.54385 0.608164
5.01949 2.22105 9.52382
5.08785 1.00131 7.85853
7.4685 0.0223121 9.49852
8.14373 6.64807 5.81206
10 4.86495 4.35947
4.48287 1.56738 0
6.74 6.61811 2.64577
1.21992 1.7888 9.33947
0.53215 7.34969 4.83053
8.25275 2.07677 6.11411
6.02977 3.58164 2.1922
5.78911 8.85526 6.62764
0.51472 3.59735 6.83131
8.32704 5.41155 5.84137
6.67878 3.93499 4.07158
3.16726 7.02473 3.78587
10 5.61438 9.49045
0.261042 3.02592 3.41429
2.91934 1.11009 3.33611
0.325454 4.25628 6.54165
0.923959 9.82517 0.447742
8.88415 2.97526 2.49655
1.80135 7.21742 1.36219
6.39334 2.87394 9.33661
6.34693 2.87324 8.08094
9.06563 2.35128 3.73034
9.22395 0.96598 3.04863
9.34098 9.28555 2.24433
0.813627 1.32186 4.8083
3.76129 2.39469 1.63482
0.537328 9.02367 4.24585
6.44772 9.45478 3.21108
8.4195 5.00027 0.563124
6.87468 8.75427 4.16369
1.53228 6.34742 0
6.49754 9.75624 4.6751
2.62882 0.528322 9.2791
10 0.344389 9.94746
9.43823 0.162507 6.18704
0.736903 2.71618 8.61074
9.18818 2.09525 3.22735
0.906217 2.34844 8.88241
5.01141 2.94073 1.43322
8.51605 0 6.07179
1.96207 0.790151 9.15873
6.12179 4.77234 7.14977
5.74277 7.08984 6.18218
7.59937 0.599099 7.33634
10 1.74718 1.33336
8.00131 0.735095 4.50003
4.91384 0.454894 1.23844
9.57224 8.58238 7.78196
1.79106 7.64985 7.66627
9.39097 3.96486 4.31302
7.41294 0.30189 1.53625
1.91841 7.53104 1.52591
2.75219 9.72447 3.07492
5.43156 0.103733 8.88425
9.32058 4.4793 0.275042
6.41003 8.50803 0.131473
1.37402 7.7635 6.07097
1.10081 3.33576 5.68762
2.72566 4.96963 2.36025
6.76396 2.97823 8.71772
2.40287 3.47667 6.49992
1.4556 2.15985 3.55682
6.99605 0.186762 7.37829
2.08291 3.68837 7.38949
8.45786 1.51708 7.03724
9.37665 3.58563 6.02362
2.31912 0.280161 5.9385
6.95641 3.898 4.32656
3.30852 9.40021 4.43079
1.42722 6.31686 7.39216
6.43032 1.41977 9.66388
2.01064 2.08776 9.70271
7.47686 4.02148 4.50104
0.618295 4.159 6.37052
9.44695 0.39834 10
1.45786 1.18141 7.00819
7.25044 3.99017 7.31611
4.63247 0.836407 0.947473
6.57641 5.526 0
7.742 0.289159 7.02995
0.912492 7.81473 3.14332
1.07269 8.54864 0
0.835022 8.13653 9.97306
1.62795 2.15617 8.06061
2.03245 3.1281 7.46588
0.361697 9.09169 5.08302
3.64185 4.0007 0.482165
7.83403 1.87045 5.55003
8.05187 4.94411 4.00845
6.76958 0.728198 2.03278
5.60397 5.22094 1.68873
5.22422 7.70988 5.54071
7.76351 6.37537 7.64064
7.74472 0.741041 5.75624
6.29898 7.26521 4.05777
6.70539 3.19695 5.53535
6.9871 9.29844 0.210881
2.88255 1.58825 3.9945
8.87632 1.50902 9.46572
1.34795 7.39054 2.54355
5.49486 6.95486 2.60039
6.46965 7.70986 5.43008
0.921126 8.26589 2.09705
3.47219 0.672719 9.71387
7.54694 0.234188 8.87436
7.27974 2.27247 7.4558
2.68078 6.65132 0.305267
0 2.74299 7.67595
7.56914 3.85339 6.49096
6.98982 3.37443 8.29936
6.26726 4.00377 3.56469
0.563641 6.87149 1.61441
1.03223 7.61515 1.59425
1.87085 7.74811 7.28497
1.54451 9.11919 6.73518
7.97999 2.53176 7.29168
8.06675 0.887504 5.69432
5.09009 6.10419 6.70034
1.25396 7.12178 2.68169
5.56401 9.13004 8.51743
9.09666 9.93253 8.80253
7.54271 0.414857 7.39735
7.68617 9.01931 4.04285
4.90029 2.19608 6.7772
7.36922 1.46329 9.1998
9.49679 0.416261 1.68084
5.98445 1.92697 7.45797
4.11374 9.48792 5.56456
8.20797 5.32932 0.836996
5.39961 0.828681 8.07387
1.69741 4.33753 4.92292
7.59272 0.33996 7.2971
9.89756 1.81435 4.36931
7.49858 0.30519 7.61353
4.50471 0.432213 7.82598
7.32896 3.92274 6.63433
7.47459 7.77413 4.38437
3.55794 8.53818 0.462001
1.6555 3.65141 8.89175
0.647412 0.678366 9.88939
1.68113 0.448805 0
2.35617 1.67929 8.80441
6.97756 1.26726 8.74681
7.13173 0.141079 1.87134
0.528676 0.493252 1.39187
8.7996 7.92655 7.97906
8.85788 8.78991 6.67796
7.49249 7.48004 4.49501
2.8355 0.666894 2.92641
3.03858 1.64082 7.76285
9.24104 2.28967 7.83184
0.94142 5.15867 4.48165
5.91993 8.62759 4.63837
7.49997 2.47423 1.85822
8.81267 6.93387 1.04989
3.91408 8.33209 6.37928
2.68141 9.16717 4.00797
5.09433 0.997383 3.14018
8.1225 7.67251 3.09516
2.36519 0.807447 5.46602
1.51334 7.08706 5.47882
3.95336 9.93819 3.88034
6.02238 4.01624 5.75529
5.74528 6.29844 1.16435
7.77064 1.799 2.79899
6.08095 6.53395 9.27867
9.81556 2.19593 1.39017
5.92549 3.26471 0
4.65113 1.31968 9.43075
8.89284 7.07443 1.81582
2.44669 2.92754 3.37255
0.42809 0.833607 1.044
8.24002 0.20972 7.46922
9.33916 5.88948 3.75078
3.36624 1.81977 6.31563
6.49319 0.632708 9.0322
0.928379 3.55654 7.72716
3.19489 9.22958 5.81145
9.33556 1.32917 3.52641
4.4971 0.95085 6.9319
1.03691 4.07357 9.74415
5.27264 8.8202 4.0981
0.796613 5.05433 5.81799
9.19024 5.80424 4.04353
3.89327 9.11962 4.46095
9.17544 7.0007 6.71184
6.85725 1.69354 3.17171
1.58968 8.63725 3.10577
1.48754 0.273759 8.71565
7.25492 0.681155 7.11492
7.74231 0.726292 6.93396
7.86267 0.378491 7.27521
7.96002 0.191212 7.26806
6.41082 9.22967 6.50856
7.1007 0.465369 5.02494
7.57329 0.52958 7.09953
1.85824 1.47823 9.53313
7.51255 0.280494 7.34456
0.289137 5.3358 7.68537
7.97867 0.988213 5.7503
7.47116 0.60026 7.25365
3.45715 7.76998 2.13753
2.27657 5.87969 5.31177
9.43661 4.23927 1.10192
7.27995 7.72947 1.71798
1.14009 0.917884 6.36839
7.17975 0.468661 7.24162
4.96995 10 3.73988
7.36252 5.19348 8.30294
8.06881 6.09041 7.54338
7.37899 0.0332664 7.68176
1.0365 10 7.62852
1.75299 3.7176 3.75542
6.58786 9.09014 5.96071
2.28121 0.899352 9.43502
1.16054 0.53603 8.35091
7.54467 0.740942 6.95915
7.79568 0.314949 6.92667
1.28365 9.67131 7.93931
7.71405 0.705298 5.77462
3.80235 2.52117 4.58389
8.90217 6.31187 3.47651
7.31363 0.274338 7.14433
2.96742 8.54353 4.29434
2.13345 1.81118 0.117039
8.54855 9.28837 2.85709
3.26362 0.811584 1.97806
2.93454 2.80759 9.59173
4.96995 4.98494 3.57469
9.98846 0 2.25243
7.4888 0.574075 7.10731
9.17839 6.84994 4.09786
2.09855 6.25057 4.01178
7.71775 7.11438 3.07652
1.22371 7.23381 7.10299
6.37728 9.59752 1.82806
0.998444 0.589102 8.22545
7.98927 0.71931 6.89806
5.3607 0.479825 0.697341
9.01113 1.25779 0.874738
7.3227 0.91421 6.41625
7.88529 0.34601 7.41079
1.06676 4.24546 4.6532
7.7753 0.451422 7.55663
7.5295 0.178055 6.99602
1.60775 7.89505 2.74347
2.85361 8.68265 0.976304
1.14323 9.70365 7.788
7.32758 0.378456 7.37116
9.07623 8.66825 7.14487
4.50742 1.10208 1.71837
7.40258 0.17775 7.81768
7.19419 0.283103 6.96718
3.81726 9.31404 0
1.25118 0.649979 8.50029
1.05791 0.480498 8.45117
7.50672 0.445303 7.38009
5.54818 1.81015 6.35459
9.99803 8.67208 3.28465
1.26477 0.701419 8.29857
1.77028 5.90786 1.19815
9.84282 9.61125 5.28374
3.8731 7.1271 1.80842
9.19836 1.20628 0.657788
4.30522 9.69435 4.1666
0.123671 3.96436 0.733235
8.00671 0.26137 7.22775
7.39504 0.654024 6.96707
8.63211 1.9148 6.14066
1.23853 0.637408 8.38518
3.1083 0.542706 6.1225
2.37839 5.50463 5.21047
7.8503 0.712957 6.75635
7.46761 0.536761 7.61518
7.54397 0.24366 7.03102
10 1.0188 7.34838
7.52348 0.385736 7.59293
3.35557 8.26216 9.39394
1.17654 0.684317 8.35988
7.25449 0.209015 7.51361
7.45182 0.140356 7.10388
9.22626 3.889 4.80583
8.10812 7.10358 1.89976
7.81182 0.338686 7.30277
7.30639 0.599954 6.99179
0.519361 9.72208 0.261735
7.67576 0.50263 7.03933
7.98408 4.65041 0.551437
7.00207 3.89042 2.79776
7.56779 0.675066 7.08145
8.20662 6.40649 5.98133
3.21961 5.81005 7.54069
2.79695 0.753576 7.51965
POINT_DATA 400
SCALARS particleColor float 3
LOOKUP_TABLE default
0.926251 1 0.0737492
1 0.700327 0
0.342598 1 0.657402
1 5.96046e-08 0
1 0.0418199 0
1 0.973561 0
1 0.686886 0
1 0.812875 0
0 0.664114 1
1 0.85609 0
1 0.825165 0
0.957394 1 0.0426056
1 0.953506 0
1 5.96046e-08 0
1 5.96046e-08 0
0.155098 1 0.844902
0.187389 1 0.812611
1 0.767979 0
0.560601 1 0.439399
1 5.96046e-08 0
0 0.939512 1
1 5.96046e-08 0
0.372739 1 0.627261
1 0.510467 0
1 5.96046e-08 0
0.478522 1 0.521478
1 0.169091 0
1 5.96046e-08 0
1 0.664588 0
1 5.96046e-08 0
0.998987 1 0.0010131
0 0.754477 1
1 0.941225 0
1 5.96046e-08 0
1 5.96046e-08 0
0.980233 1 0.0197669
1 5.96046e-08 0
1 5.96046e-08 0
1 5.96046e-08 0
1 0.902182 0
1 5.96046e-08 0
1 5.96046e-08 0
1 5.96046e-08 0
1 5.96046e-08 0
1 0.547137 0
1 0.985163 0
1 0.838312 0
0.491094 1 0.508906
1 0.990748 0
0.0207514 1 0.979249
0.044206 1 0.955794
1 0.337287 0
1 0.591063 0
0 0.616682 1
1 5.96046e-08 0
1 5.96046e-08 0
1 5.96046e-08 0
0 0.989394 1
1 0.86423 0
0.170169 1 0.829831
1 5.96046e-08 0
0.500019 1 0.499981
1 5.96046e-08 0
1 0.428716 0
1 5.96046e-08 0
1 0.600096 0
1 0.402356 0
1 0.96595 0
1 5.96046e-08 0
0.0843432 1 0.915657
0.841099 1 0.158901
0.729539 1 0.270461
1 0.370144 0
0.346542 1 0.653458
1 5.96046e-08 0
1 0.638813 0
0.00765179 1 0.992348
1 5.96046e-08 0
0.745681 1 0.254319
1 5.96046e-08 0
1 5.96046e-08 0
0.993021 1 0.00697917
1 5.96046e-08 0
0.78905 1 0.21095
1 5.96046e-08 0
1 5.96046e-08 0
0.796901 1 0.203099
1 5.96046e-08 0
1 5.96046e-08 0
1 0.784317 0
0.0634169 1 0.936583
0.640569 1 0.359431
1 5.96046e-08 0
0.530684 1 0.469316
1 5.96046e-08 0
1 5.96046e-08 0
1 5.96046e-08 0
0.550563 1 0.449437
0.765803 1 0.234197
1 5.96046e-08 0
0.706797 1 0.293203
0.331578 1 0.668422
1 0.328289 0
0.592213 1 0.407787
1 5.96046e-08 0
1 5.96046e-08 0
0.049703 1 0.950297
1 5.96046e-08 0
1 5.96046e-08 0
1 5.96046e-08 0
1 0.655843 0
1 5.96046e-08 0
0.157516 1 0.842484
1 0.608526 0
0.433119 1 0.566881
1 0.0319641 0
1 5.96046e-08 0
1 5.96046e-08 0
1 0.139229 0
0.519815 1 0.480185
1 5.96046e-08 0
1 5.96046e-08 0
1 5.96046e-08 0
1 5.96046e-08 0
1 0.731917 0
1 0.826579 0
0.905941 1 0.0940592
0 0.759079 1
0.469799 1 0.530201
1 5.96046e-08 0
0.486605 1 0.513395
1 0.373019 0
1 5.96046e-08 0
1 0.733582 0
1 5.96046e-08 0
1 0.696822 0
0.796003 1 0.203997
1 0.16914 0
1 5.96046e-08 0
1 5.96046e-08 0
1 0.502873 0
1 0.666213 0
1 5.96046e-08 0
1 5.96046e-08 0
1 0.92352 0
1 5.96046e-08 0
1 0.307135 0
1 0.354502 0
1 5.96046e-08 0
0.247414 1 0.752586
0 0.384754 1
1 5.96046e-08 0
1 0.0288109 0
0.331786 1 0.668214
1 5.96046e-08 0
0.579161 1 0.420839
0.124823 1 0.875178
1 0.177375 0
0.190365 1 0.809635
1 0.908482 0
1 0.0446334 0
0.307561 1 0.692439
0.123192 1 0.876808
0.0663224 1 0.933678
0.69562 1 0.30438
1 0.867511 0
0.802218 1 0.197782
1 0.352507 0
0.223597 1 0.776403
1 0.905806 0
1 5.96046e-08 0
1 5.96046e-08 0
1 5.96046e-08 0
0.793066 1 0.206934
1 0.621106 0
1 5.96046e-08 0
1 5.96046e-08 0
1 5.96046e-08 0
1 0.11786 0
1 5.96046e-08 0
0 0.633992 1
1 5.96046e-08 0
1 0.24831 0
0.384076 1 0.615924
0.935265 1 0.0647348
1 5.96046e-08 0
0 0.625318 1
1 0.134056 0
0 0.884311 1
1 5.96046e-08 0
1 5.96046e-08 0
0.911757 1 0.0882432
1 0.829706 0
1 0.633358 0
1 5.96046e-08 0
1 5.96046e-08 0
0.090427 1 0.909573
1 5.96046e-08 0
1 5.96046e-08 0
1 0.462086 0
0 0.837057 1
0.922288 1 0.0777124
1 0.554215 0
1 5.96046e-08 0
1 5.96046e-08 0
1 5.96046e-08 0
1 5.96046e-08 0
0.806079 1 0.193921
1 0.370713 0
1 5.96046e-08 0
1 0.401442 0
1 5.96046e-08 0
1 5.96046e-08 0
1 5.96046e-08 0
0.966729 1 0.0332708
0.85556 1 0.14444
1 5.96046e-08 0
1 5.96046e-08 0
1 5.96046e-08 0
1 5.96046e-08 0
1 0.999173 0
1 5.96046e-08 0
0.198002 1 0.801998
0 0.421962 1
1 0.023708 0
0.733444 1 0.266556
1 0.688423 0
1 5.96046e-08 0
0 0.335222 1
1 5.96046e-08 0
1 5.96046e-08 0
0 0.924045 1
0.702168 1 0.297832
1 5.96046e-08 0
1 0.42258 0
0.997328 1 0.00267154
1 5.96046e-08 0
1 0.854576 0
0 0.732207 1
1 5.96046e-08 0
0 0.772055 1
0.035607 1 0.964393
0.862592 1 0.137408
0.888431 1 0.111569
0.875395 1 0.124605
1 5.96046e-08 0
1 0.740102 0
1 5.96046e-08 0
0 0.636351 1
1 5.96046e-08 0
1 0.228999 0
0 0.810388 1
1 0.990834 0
1 5.96046e-08 0
1 5.96046e-08 0
0.285821 1 0.714179
1 5.96046e-08 0
1 0.63437 0
1 0.525733 0
0.15485 1 0.84515
0.93022 1 0.0697801
0.747655 1 0.252345
1 0.349897 0
1 0.321213 0
1 5.96046e-08 0
0.193911 1 0.806089
1 0.560275 0
1 5.96046e-08 0
1 0.946814 0
1 5.96046e-08 0
1 5.96046e-08 0
0.494502 1 0.505498
0.6232 1 0.3768
0.65099 1 0.34901
1 0.430916 0
1 0.148841 0
1 0.647362 0
1 0.921742 0
1 5.96046e-08 0
0 0.490805 1
0.32389 1 0.67611
0.881635 1 0.118365
0.86903 1 0.13097
1 5.96046e-08 0
1 5.96046e-08 0
1 0.236976 0
1 0.30791 0
1 0.505273 0
1 0.591353 0
1 5.96046e-08 0
1 5.96046e-08 0
1 5.96046e-08 0
0.36419 1 0.63581
1 0.0513102 0
0 0.840733 1
0 0.9118 1
0 0.638314 1
0 0.737351 1
0 0.200258 1
0 0.479647 1
1 0.66958 0
1 5.96046e-08 0
0 0.613993 1
1 0.1427 0
0 0.511164 1
0.139337 1 0.860663
0 0.604625 1
0 0.277739 1
1 0.359005 0
1 5.96046e-08 0
0.85509 1 0.14491
1 5.96046e-08 0
0 0.896504 1
0 0.47904 1
0.67955 1 0.32045
0.73378 1 0.26622
0.696016 1 0.303984
0 0.953002 1
1 5.96046e-08 0
1 0.403992 0
1 0.881416 0
0.874837 1 0.125163
0 0.369293 1
0 0.288189 1
0 0.279696 1
1 0.783791 0
0 0.357672 1
1 0.296356 0
0.474907 1 0.525093
0 0.48128 1
0.912851 1 0.0871492
1 5.96046e-08 0
0.877383 1 0.122617
1 5.96046e-08 0
0 0.806758 1
1 0.945821 0
1 5.96046e-08 0
0 0.689719 1
1 5.96046e-08 0
0.826255 1 0.173745
0.725173 1 0.274827
0.234916 1 0.765084
0.212879 1 0.787121
0 0.453759 1
0 0.44116 1
1 0.49468 0
0 0.852332 1
0 0.271509 1
0 0.496298 1
1 0.820184 0
0 0.870723 1
0 0.571414 1
0 0.878968 1
1 5.96046e-08 0
1 0.281863 0
0 0.526895 1
1 0.718237 0
1 5.96046e-08 0
0 0.867317 1
0 0.424239 1
1 5.96046e-08 0
0 0.625781 1
0 0.307108 1
0 0.437746 1
0.631242 1 0.368758
1 5.96046e-08 0
0 0.730079 1
0 0.531177 1
1 0.522689 0
0.588624 1 0.411376
0 0.881678 1
1 5.96046e-08 0
1 0.866736 0
0.0259595 1 0.97404
0 0.861582 1
0 0.549998 1
0 0.573905 1
1 5.96046e-08 0
1 0.227749 0
0 0.949653 1
0 0.712335 1
0 0.640936 1
1 0.830448 0
0 0.719863 1
1 0.252903 0
0 0.723071 1
0 0.557913 1
0 0.709463 1
1 5.96046e-08 0
0.23666 1 0.76334
0 0.636056 1
0 0.406965 1
1 0.756632 0
0 0.995153 1
1 5.96046e-08 0
0.752045 1 0.247955
0 0.350869 1
0.104971 1 0.895029
1 0.835767 0
1 0.988469 0
