# vtk DataFile Version 3.0
Particle simulation
ASCII
DATASET POLYDATA
POINTS 400 float
4.1501 9.73134 2.94648
1.12658 4.35125 3.06083
4.42646 3.48209 2.42909
3.7734 6.79465 3.18221
8.71975 5.5816 2.55433
0 4.25094 5.12426
9.54686 9.63413 4.43936
3.21953 0.379851 1.77917
2.9132 6.85117 0.867843
8.48341 3.13141 1.25905
4.13278 1.25311 9.1577
8.29514 1.49087 9.721
9.80082 7.4492 3.53322
4.67505 4.23719 5.65668
0.874517 0.685094 0.665068
8.59752 4.8234 6.65482
8.24219 2.42841 1.62398
7.22519 6.55152 3.35574
2.56296 8.74841 9.5158
3.79598 4.34549 3.74688
2.08555 3.54161 1.54838
9.25776 1.58158 7.03005
6.51624 7.89685 4.07246
4.42042 8.83558 5.92563
8.42202 4.67482 8.27082
7.14459 0.967964 9.14859
2.7649 9.71558 0.275902
8.49796 4.5672 8.55415
0.587379 1.40896 4.91029
10 0 6.5417
2.19468 4.10454 5.15225
7.08665 0.525665 7.36102
9.3025 0.20342 3.70635
1.91932 2.40532 4.75893
6.58393 3.37154 5.77662
3.18408 2.98331 5.98681
0.221217 4.19555 4.19112
4.73399 7.57298 2.07702
3.63103 5.11805 3.64906
2.24179 0 7.19596
6.38844 10 2.81199
4.87466 7.61837 3.23464
0.195594 7.93926 1.64265
8.78912 5.0168 7.89381
9.71841 7.75993 2.72276
2.90913 4.95236 0.18743
0.102885 5.18796 0.972402
2.20165 9.82061 2.28742
1.06819 2.57112 3.13136
1.35444 2.46871 7.98902
7.887 0.545414 6.96639
1.63681 1.77465 7.65458
3.80902 8.23632 4.04738
2.50669 5.10682 0.497769
8.39944 2.80666 6.2815
3.17068 2.00309 5.94548
9.21752 5.87864 1.5656
8.98472 2.10828 3.97998
1.90031 0.833958 6.66918
2.2245 9.39483 5.874
2.67205 4.747 5.53043
1.39251 9.65964 8.2804
5.13137 1.96975 2.39
3.82736 3.63328 4.47675
7.75557 7.37167 3.38138
2.10011 7.67793 8.08096
6.43506 3.18745 0.718564
9.12613 8.019 3.04089
7.95012 5.16242 3.998
1.71962 6.15947 7.98786
1.51642 5.95915 6.28802
7.82836 3.51062 5.8455
7.57207 1.0078 1.4873
10 0.343408 7.29685
6.94204 7.05687 8.57128
4.06306 1.5381 2.7609
4.92809 5.70066 2.34784
3.08561 7.11178 0.651152
3.49128 8.92926 4.34717
8.26455 7.5838 5.41969
2.62867 0.91363 5.72342
8.61214 9.78485 5.20121
5.45793 0.16161 6.71827
1.41688 9.37796 8.67449
4.90784 4.31419 6.33584
8.17386 1.06642 9.36901
7.67112 1.26842 6.23658
6.03641 7.69464 4.52659
4.12777 1.53729 6.82753
8.6484 7.03515 6.86368
1.65567 8.00292 1.15009
0.315638 1.73832 2.0542
6.23032 6.02463 2.27903
7.21958 3.29997 6.27049
8.1862 6.42551 5.76897
3.19629 8.39116 9.38569
1.83888 7.90779 6.65836
4.37164 9.85173 2.20685
2.51152 0 0.697205
7.01467 6.49735 6.41146
9.65197 4.78208 9.70643
9.06133 0.735271 7.07597
4.47659 1.12002 0.770337
3.94098 1.99041 9.69389
2.94105 0 8.83049
4.33281 2.37539 7.62686
8.75311 6.88747 5.65418
6.66904 0.814728 7.34046
8.94952 4.24358 6.91028
9.04568 9.45477 0
2.21139 1.01745 8.68136
3.81889 8.4419 7.13941
8.70345 1.48921 6.60382
7.26763 2.38112 3.02055
5.01524 9.76594 6.23082
0.102706 4.25464 4.54384
9.6752 3.77403 6.8304
7.78548 1.90682 4.11854
2.689 8.98036 2.48021
9.22239 5.1387 9.13175
4.37416 7.26447 2.17936
0.385575 2.29862 8.066
1.91682 1.32822 8.66994
2.81503 8.2328 2.82105
9.95378 2.28784 1.64427
1.36035 6.27249 0.405637
6.81553 1.78211 9.30185
6.20689 2.68465 7.72385
9.73485 1.7631 4.31653
7.7777 0.351729 5.45908
9.77801 9.77942 2.12266
0.710647 2.35115 3.51265
2.17323 1.06414 3.49838
1.80523 9.88254 5.31618
4.1509 8.98126 1.65878
7.58116 6.23423 0.302587
7.44826 7.34718 3.86286
0.283875 5.9291 0.641593
5.76731 7.83485 2.70812
4.87583 0.835204 9.38167
9.0779 1.05724 9.87471
7.5271 1.06926 6.87336
4.0873 6.24493 7.55988
7.29395 0.658966 1.88557
2.24269 3.31211 8.64715
5.95213 2.90216 0.670085
7.06804 2.02975 7.23991
2.24018 1.40398 9.38779
2.25543 5.47293 4.43914
5.32919 6.97233 5.75772
7.353 0.36862 7.08455
4.32399 1.16853 2.77334
9.44512 0.360715 3.54373
5.18505 0.516572 0.264857
8.60047 4.04791 6.00081
1.35099 6.60811 7.56451
9.65168 4.6284 3.77004
8.95908 0.379634 3.19286
1.67249 6.4274 0.923237
2.03201 8.27877 4.06365
7.17649 0.699615 6.93178
9.80815 5.35425 0.599704
6.99587 9.24379 0.123931
2.19742 8.13546 5.66975
0 3.65098 5.23524
1.22632 4.41187 1.61291
5.57744 3.30712 9.46292
0.967063 2.46384 7.51607
1.27631 1.62093 2.97303
7.7392 1.00681 8.58479
2.72783 2.37071 5.32927
9.92892 0.128518 9.14349
6.71717 1.98351 4.30933
3.53012 0.762164 6.66896
5.69753 4.66635 4.69718
1.59864 8.4025 6.05049
0.223775 4.94187 9.56339
4.69594 2.85783 8.47276
0.628954 0.745609 9.3301
6.06757 6.30723 5.51595
0.28592 3.91282 6.78497
9.96443 2.97178 7.16243
0.241053 0.390208 5.7445
7.85021 4.4695 6.20374
5.5869 0.044364 0.706316
3.8308 5.27032 3.28942
8.06154 0.417542 7.00839
1.7263 6.20109 1.24294
1.57553 8.86162 0.600488
3.18242 10 8.23723
1.48897 5.52462 7.39712
1.08272 2.16732 8.23395
0.324532 9.251 4.09587
4.82116 5.54321 0.700281
9.80942 2.56605 5.17396
7.16811 6.34376 1.9012
7.38105 1.14317 2.17828
7.81825 7.03287 4.58384
7.91984 7.7604 10
6.25252 6.46448 6.14574
7.7206 0.54223 6.02586
6.82802 8.92875 3.96516
5.2747 1.75923 5.7106
3.64672 5.82599 8.34678
1.42002 0.45817 2.1946
9.3106 3.31188 7.57961
0.338728 5.59441 1.81438
5.21187 8.1746 1.83708
4.86188 9.16332 4.88923
3.00152 4.33958 7.05764
5.16428 0.0627683 9.80319
5.34579 1.32396 10
7.20985 2.04302 5.05098
1.32639 9.47485 1.85047
1.94245 1.87977 8.16312
8.18944 4.79957 7.29584
5.66251 1.01883 7.96698
8.3653 0.656053 5.28344
0.177029 6.29362 0.332554
2.31339 9.59651 3.59337
1.78117 6.35557 8.0563
1.99058 8.80441 4.07108
6.84331 2.68002 7.36807
7.93854 0.583461 5.69003
6.41583 4.89902 8.21241
1.33042 8.20639 2.26663
3.7333 8.83729 8.00096
6.08877 7.29009 10
7.52641 0.333265 7.09746
7.5857 7.64025 5.85172
6.22943 1.75194 10
7.19116 1.81302 9.66881
9.54875 1.20512 2.11875
3.90767 0 7.35606
3.39251 9.33432 7.34994
8.17436 4.02587 0.291424
2.99717 2.46872 5.7047
0.806198 3.76589 6.33969
7.20453 0.487259 7.44885
6.25723 0.0442327 6.65483
7.33304 0.620748 7.75768
4.72072 0.83408 7.21422
8.32645 4.85867 6.97049
6.36288 8.15846 4.1765
2.30655 7.94229 1.47983
3.7272 5.74357 5.88212
1.17794 1.47056 9.33904
0.344555 2.39528 5.42492
2.66905 1.46091 9.21951
8.70005 3.74433 8.47603
6.72263 1.91059 2.3816
0.167047 0.0445743 1.35901
9.339 9.41249 7.50998
3.07174 3.80205 3.33464
8.40685 8.21764 6.57626
2.4737 0.270901 1.87084
4.47705 3.74701 7.92064
10 2.07437 6.36371
0.634976 3.80868 6.34659
6.97504 8.99619 3.80761
8.73469 1.88968 2.19194
8.2684 7.16963 0.0638471
4.11993 6.33789 7.24402
4.65349 8.94455 3.36466
7.6698 2.66743 4.05011
8.37227 8.03299 3.00392
3.9656 1.20112 4.74837
3.98258 5.07977 2.54981
3.67287 9.67119 2.39684
0 10 0
7.26531 3.64137 1.80704
8.50694 1.66536 1.91308
5.49831 6.4319 9.4611
8.91418 1.25494 0.846297
4.66403 2.31086 2.38623
5.63624 3.08452 9.05338
9.19417 7.28742 2.12234
3.34064 1.75924 4.25857
1.9798 1.98223 0.161945
8.26538 0.173537 7.06608
8.39406 5.88894 2.85265
4.47158 2.35611 4.96428
5.98164 1.30528 9.83861
1.44593 2.29399 10
5.82282 9.57829 6.43558
9.48207 1.70164 1.75734
6.26405 1.70523 8.31145
1.66687 5.81195 9.68466
6.1957 9.20336 2.57485
1.9303 6.0572 5.00179
7.81684 7.58089 4.05932
6.04311 6.14743 6.44196
9.58838 7.34746 5.91507
5.34533 2.2015 4.88293
1.1034 8.13195 3.16801
1.08196 0.651087 8.55321
7.64161 0.167595 7.13664
7.93996 0.779006 6.52837
7.63768 0.226609 7.31742
7.72499 0.0758184 7.27763
4.75027 9.59222 6.37196
8.39377 2.35391 6.46051
7.52038 0.18197 7.06848
1.21021 2.81619 9.15333
7.30696 0.294135 7.40147
0.615718 4.78243 7.94139
7.66453 0.411081 5.87388
7.58158 0.362224 7.12052
2.24794 8.57799 0.316237
2.54711 6.12642 7.45447
9.6599 5.57309 0
3.52386 9.54349 6.29941
1.35924 1.32551 6.23894
7.48257 0.63351 7.16117
4.32925 8.74567 2.95103
6.37896 4.82753 7.33347
8.81873 5.41614 6.56671
7.8041 0.658601 7.26212
4.12577 4.0004 7.57631
2.52333 3.5936 5.76384
8.38259 8.38681 5.88503
1.21146 0.389132 8.91033
1.02326 0.507977 8.5102
7.44697 0.35201 7.02031
7.83427 0.420437 7.12649
0.361952 8.87797 8.99765
7.86233 0.68056 5.92652
3.76201 0.875845 6.36331
8.74348 5.92888 2.68871
7.30297 0.4229 7.04435
1.76411 9.00617 3.72332
4.82287 0.658175 0.40252
7.53979 9.94499 2.54642
1.50988 0.789716 2.60254
2.53615 2.2818 9.72606
4.66903 4.99931 1.91151
8.39452 1.76462 0.268225
7.32633 0.432715 6.83
9.85205 4.03221 6.27319
1.54816 7.33542 3.52846
8.54696 8.10708 2.18254
1.44281 7.34511 6.53599
6.89252 9.53716 1.30183
1.09676 0.534419 8.53625
7.65194 0.583972 6.67067
5.30542 0.697734 2.2238
9.51291 1.27028 1.10065
7.47582 0.605238 6.69865
7.46133 0.404981 7.05878
0.357493 4.58934 6.17607
7.10853 0.47417 7.60053
7.39804 0.359221 7.48645
1.33918 7.1793 2.88012
4.20318 6.80685 3.67685
0.242087 9.5108 6.64033
7.51844 0.183897 7.16521
8.00705 9.47678 6.36755
3.37577 0.611285 3.904
7.51218 0.456208 6.91745
7.59884 0.423242 7.38454
8.1328 9.96033 3.47144
1.38053 0.53155 8.42595
1.17172 0.568306 8.40042
7.36959 0.52223 7.18958
6.65472 1.11589 6.6984
3.6573 6.69003 1.79949
0.931031 0.286111 8.54184
2.03202 5.72335 1.37999
8.32539 9.93683 6.78742
4.76124 7.09295 0.844917
9.25318 1.00745 1.2494
2.1177 8.13128 2.16773
0.657967 2.33666 1.18723
8.04116 0.120351 7.65343
7.19723 0.591422 6.67712
8.18635 1.62303 6.65271
0.988219 0.331979 8.45209
2.81249 1.13761 3.77379
2.78236 6.78491 7.23202
7.77993 0 7.10517
7.50827 0.508895 6.95476
7.26049 0.464119 7.42402
8.06527 0.00172788 6.93044
7.52902 0.11934 7.69819
2.64833 9.75471 9.5624
1.02333 0.342381 8.50362
7.56899 0.602594 7.20368
7.16035 0.458226 7.29151
9.89156 5.88555 3.92385
7.87974 7.66417 0.996
7.96519 0.205359 7.37967
7.67195 0.458056 7.11896
1.08797 9.31959 1.3913
7.69461 0.0380763 7.5683
6.56013 2.7283 0.0872891
7.47401 4.62053 3.82343
7.33116 0.443181 7.19329
8.74474 7.10197 5.47664
2.21248 5.77244 8.75742
3.03306 1.1561 8.225
POINT_DATA 400
SCALARS particleColor float 3
LOOKUP_TABLE default
0.344788 1 0.655212
1 0.183416 0
0.315745 1 0.684255
1 5.96046e-08 0
1 5.96046e-08 0
1 0.838532 0
1 0.0333408 0
1 0.564237 0
0 0.856381 1
0.676446 1 0.323554
1 0.0500922 0
1 0.00318193 0
0.782098 1 0.217902
1 5.96046e-08 0
1 5.96046e-08 0
0.732817 1 0.267183
0.856297 1 0.143703
1 0.823739 0
1 0.513647 0
1 5.96046e-08 0
0.0471588 1 0.952841
1 5.96046e-08 0
0.720551 1 0.279449
1 0.603101 0
1 5.96046e-08 0
1 0.698155 0
1 0.349194 0
1 5.96046e-08 0
1 0.832043 0
1 0.542776 0
0.805341 1 0.194659
0 0.820059 1
1 0.157304 0
1 5.96046e-08 0
1 5.96046e-08 0
1 0.875998 0
1 5.96046e-08 0
1 5.96046e-08 0
1 5.96046e-08 0
1 0.0370828 0
1 5.96046e-08 0
1 0.244423 0
1 5.96046e-08 0
1 5.96046e-08 0
1 0.485596 0
1 0.896343 0
1 0.807726 0
0.534062 1 0.465938
0.0041045 1 0.995896
0.646965 1 0.353035
0.120348 1 0.879652
1 5.96046e-08 0
1 0.983987 0
0 0.434626 1
1 5.96046e-08 0
1 5.96046e-08 0
1 5.96046e-08 0
0.00893853 1 0.991061
0.649463 1 0.350537
0.961587 1 0.0384125
1 5.96046e-08 0
0.866245 1 0.133755
0.705946 1 0.294054
1 0.450021 0
1 5.96046e-08 0
1 0.469981 0
1 5.96046e-08 0
0.968051 1 0.0319488
1 0.230466 0
0 0.846311 1
1 0.443948 0
1 0.667016 0
1 0.889539 0
1 0.795383 0
1 5.96046e-08 0
1 0.302002 0
0 0.987869 1
1 5.96046e-08 0
0.467463 1 0.532537
1 5.96046e-08 0
1 5.96046e-08 0
0.940603 1 0.0593975
1 5.96046e-08 0
1 0.78481 0
1 5.96046e-08 0
1 5.96046e-08 0
0.375943 1 0.624057
1 5.96046e-08 0
1 5.96046e-08 0
1 0.87324 0
0 0.943305 1
0.354583 1 0.645417
1 5.96046e-08 0
0.122485 1 0.877515
1 5.96046e-08 0
1 5.96046e-08 0
1 5.96046e-08 0
0.687409 1 0.312591
0.640126 1 0.359874
1 5.96046e-08 0
1 0.369901 0
0.199729 1 0.800271
1 5.96046e-08 0
0.62919 1 0.37081
1 5.96046e-08 0
1 5.96046e-08 0
0.213311 1 0.786689
1 5.96046e-08 0
1 0.835765 0
1 5.96046e-08 0
1 0.242937 0
1 5.96046e-08 0
0 0.703797 1
1 0.690811 0
0.556634 1 0.443366
1 0.245523 0
1 5.96046e-08 0
1 0.559644 0
1 0.500247 0
1 0.457575 0
1 5.96046e-08 0
1 5.96046e-08 0
1 5.96046e-08 0
1 5.96046e-08 0
1 0.0358419 0
0.207687 1 0.792313
1 0.320862 0
0 0.560254 1
0.0035798 1 0.99642
1 0.406196 0
1 0.56794 0
1 5.96046e-08 0
1 5.96046e-08 0
1 0.436959 0
1 5.96046e-08 0
1 0.515882 0
0.213538 1 0.786462
1 5.96046e-08 0
1 5.96046e-08 0
1 5.96046e-08 0
0.293316 1 0.706684
1 5.96046e-08 0
1 0.244642 0
1 5.96046e-08 0
0.955338 1 0.0446619
1 0.6373 0
1 5.96046e-08 0
1 0.417746 0
1 5.96046e-08 0
0.536579 1 0.463421
0 0.448103 1
1 5.96046e-08 0
1 0.87233 0
0.147959 1 0.852041
1 5.96046e-08 0
0.482302 1 0.517698
0.14352 1 0.85648
1 0.144857 0
1 0.984475 0
1 5.96046e-08 0
1 5.96046e-08 0
0.400488 1 0.599512
0.240211 1 0.759789
0.187399 1 0.812601
0.818037 1 0.181963
1 0.858361 0
0.66634 1 0.33366
1 0.334858 0
0 0.925453 1
1 0.396369 0
1 0.0978101 0
1 5.96046e-08 0
1 5.96046e-08 0
0.90604 1 0.0939604
0.72324 1 0.27676
1 5.96046e-08 0
1 5.96046e-08 0
1 0.0613766 0
0.797888 1 0.202112
1 5.96046e-08 0
0 0.657543 1
1 5.96046e-08 0
1 5.96046e-08 0
0.776241 1 0.223759
0.446301 1 0.553699
0.931677 1 0.0683227
0 0.156326 1
1 5.96046e-08 0
0.283079 1 0.716921
1 5.96046e-08 0
1 5.96046e-08 0
0.69907 1 0.30093
1 5.96046e-08 0
1 0.656122 0
1 5.96046e-08 0
1 5.96046e-08 0
0.0848155 1 0.915184
1 5.96046e-08 0
1 5.96046e-08 0
1 0.280363 0
0 0.302433 1
1 0.334162 0
1 0.533822 0
0.781597 1 0.218403
1 5.96046e-08 0
1 5.96046e-08 0
1 0.751688 0
0.504091 1 0.495909
1 0.217149 0
1 5.96046e-08 0
1 0.942028 0
1 5.96046e-08 0
1 0.147622 0
1 5.96046e-08 0
1 0.104454 0
0.588878 1 0.411122
0 0.647472 1
1 5.96046e-08 0
0.423423 1 0.576577
1 5.96046e-08 0
1 0.813853 0
1 5.96046e-08 0
0.534828 1 0.465172
0 0.807391 1
1 0.1217 0
0.125034 1 0.874966
1 0.554271 0
1 5.96046e-08 0
0 0.351733 1
1 5.96046e-08 0
1 5.96046e-08 0
0 0.942615 1
1 0.994215 0
1 0.878297 0
1 0.873015 0
1 0.303931 0
1 5.96046e-08 0
1 0.633817 0
0 0.197511 1
1 5.96046e-08 0
0 0.371022 1
0.129737 1 0.870263
0.666183 1 0.333817
0.262891 1 0.737109
1 0.630585 0
1 5.96046e-08 0
1 0.0277078 0
1 5.96046e-08 0
0.0344823 1 0.965518
1 5.96046e-08 0
0.497044 1 0.502956
0 0.655468 1
0.982664 1 0.0173359
1 0.0728303 0
1 0.362928 0
0.484307 1 0.515693
1 0.0783747 0
0.669095 1 0.330905
1 0.0604695 0
0.55977 1 0.44023
0.5531 1 0.4469
1 0.276724 0
1 0.270559 0
1 0.408288 0
1 5.96046e-08 0
0 0.310167 1
0.878137 1 0.121863
0.98433 1 0.0156695
0.729462 1 0.270538
1 5.96046e-08 0
1 5.96046e-08 0
0.449592 1 0.550408
1 0.482416 0
1 5.96046e-08 0
1 5.96046e-08 0
1 5.96046e-08 0
1 5.96046e-08 0
1 0.533229 0
1 5.96046e-08 0
0 0.607314 1
0.957977 1 0.0420231
1 0.502352 0
0.374749 1 0.625251
0.432804 1 0.567196
1 0.241808 0
1 0.0649158 0
1 0.990905 0
1 0.97411 0
1 0.85211 0
1 5.96046e-08 0
1 0.388684 0
1 5.96046e-08 0
0 0.918697 1
1 0.276189 0
0 0.869179 1
0 0.361202 1
0 0.668081 1
0 0.348648 1
0 0.540338 1
0 0.549874 1
1 0.604317 0
1 5.96046e-08 0
0 0.336778 1
0.147874 1 0.852126
0 0.45256 1
0.644052 1 0.355948
0 0.667145 1
0 0.532604 1
1 0.386216 0
1 0.5302 0
0.834101 1 0.165899
1 5.96046e-08 0
0.0681627 1 0.931837
0 0.734465 1
0.994668 1 0.00533229
0.752151 1 0.247849
0.784082 1 0.215918
0 0.987389 1
1 5.96046e-08 0
1 0.819063 0
1 5.96046e-08 0
1 0.949577 0
0 0.661302 1
0 0.689394 1
0 0.540203 1
0.895617 1 0.104383
0 0.38368 1
1 5.96046e-08 0
0.307463 1 0.692537
0 0.632472 1
0.445132 1 0.554868
1 5.96046e-08 0
1 0.740065 0
0.61093 1 0.38907
0 0.830016 1
1 0.932958 0
1 0.450426 0
0 0.200719 1
1 5.96046e-08 0
0.524455 1 0.475545
1 0.994944 0
0 0.593841 1
0 0.665525 1
0 0.864752 1
0 0.751273 1
0.402187 1 0.597813
0 0.524468 1
0.0316606 1 0.968339
0 0.792291 1
0.955104 1 0.0448958
0 0.749065 1
0 0.609988 1
0 0.973897 1
1 5.96046e-08 0
1 5.96046e-08 0
0 0.590913 1
1 5.96046e-08 0
1 0.0725819 0
0.101442 1 0.898558
0 0.684333 1
1 5.96046e-08 0
0 0.70362 1
0 0.407136 1
0 0.532046 1
0.868015 1 0.131985
1 0.250961 0
0 0.149156 1
0 0.497591 1
1 0.246096 0
0.589454 1 0.410546
0 0.760171 1
1 5.96046e-08 0
1 0.840232 0
0 0.662187 1
0 0.428616 1
0 0.902439 1
0 0.268242 1
1 0.303124 0
1 5.96046e-08 0
0 0.987509 1
0 0.905429 1
0 0.407853 1
1 5.96046e-08 0
0 0.517153 1
1 0.419166 0
0 0.430725 1
0 0.808371 1
0 0.671489 1
1 5.96046e-08 0
0.384 1 0.616
0 0.420103 1
0 0.671508 1
1 5.96046e-08 0
0 0.403296 1
1 0.558656 0
1 0.852811 0
0 0.67876 1
0.0112233 1 0.988777
0.827418 1 0.172582
0.438639 1 0.561361
