# vtk DataFile Version 3.0
Particle simulation
ASCII
DATASET POLYDATA
POINTS 400 float
0.640222 8.54369 2.11986
0.613487 6.56242 0.429565
4.79302 0.915767 0
0.464448 0.994849 8.51351
4.43501 2.09113 2.54802
3.33328 2.34668 6.74424
7.18075 8.38344 1.00534
1.98167 1.55778 7.52351
3.29183 5.46398 1.3736
9.78112 0.877582 3.8847
2.78753 2.08413 7.05501
6.12021 2.29625 9.00903
9.83142 8.95827 6.27938
0 5.56631 4.73083
3.86667 6.38923 7.75482
9.90163 6.44512 4.02509
6.34837 1.21004 4.61875
4.01205 3.53697 0.46778
3.78329 8.37436 8.07334
7.3754 4.08171 1.1277
2.87171 4.22067 0.156232
10 4.17808 5.51138
8.94598 8.37843 3.89447
0.660169 9.11577 7.34904
8.19316 7.01976 7.87288
6.0754 2.52259 8.91059
0.436138 5.81139 4.59785
2.82676 8.64173 1.37224
4.77187 2.64213 1.81772
8.2268 5.89416 9.03826
0.398849 3.22724 9.04052
5.6688 1.48848 7.80905
8.16246 2.01138 7.79244
8.69698 8.63984 0.929862
0.0700383 6.30139 0.734299
7.00784 4.34218 7.52551
2.49901 6.34815 2.80777
8.14575 1.26767 6.07264
2.13934 8.28377 0
2.62478 2.38031 10
1.13403 0 7.25169
1.70081 9.70047 7.16378
6.11512 9.2928 2.05017
4.66898 4.55893 6.29124
7.27831 8.87541 1.48269
0.915656 6.71505 2.24191
2.5019 3.37363 4.13405
4.20717 8.69508 0.139621
0.481038 1.03211 3.24533
2.12011 2.58902 5.28219
6.64983 1.23676 7.74603
0.460408 6.47207 4.03687
6.00313 6.27843 7.40183
3.92557 5.69101 0.164447
3.38234 1.07857 9.08401
10 0.844333 9.18305
0.976062 5.87309 9.14449
9.17083 1.37526 3.79302
0.218002 2.00892 2.46976
0.931588 8.05208 7.73036
1.71243 7.39276 0
2.54878 8.08131 6.27662
0.378746 9.51285 3.9724
0.711367 0.765676 6.54986
0.825118 0.725353 8.7212
0.832021 5.28593 4.47537
8.68258 5.64742 0.233356
9.29534 5.79749 0.126913
5.36154 1.8498 1.09675
0.0532636 5.18686 6.93362
2.90451 6.60697 6.62842
5.93099 6.60285 7.3468
9.8671 0.968548 6.32576
9.29462 2.47977 7.41135
0 7.85839 8.94594
8.95634 1.66264 3.58071
5.98447 7.22937 0.34848
1.52253 0.372289 4.5334
8.6412 7.53488 8.21676
7.97024 5.58239 9.74848
5.7422 8.02102 6.9493
9.19447 8.06011 8.10769
0 1.39072 7.37542
6.30628 8.04392 9.54829
0.0501905 6.98976 8.71743
6.40565 3.46736 6.46999
7.99127 2.05585 2.82315
3.7605 2.77067 8.99253
1.64587 3.16206 1.69653
8.78684 4.54164 3.74649
3.04632 6.85588 1.1268
0.553115 0.882645 3.58467
7.39656 1.27183 5.04466
5.19786 5.49058 4.20707
3.0527 0.0878919 9.10171
7.76649 4.80155 0.688514
4.91416 0.889883 4.87245
5.27587 5.56704 0.343301
0.901527 1.97526 1.53717
1.56852 1.48864 0.707354
7.6583 8.08136 9.46043
7.78095 0.566822 4.54391
0.217603 2.35456 0.0624487
7.35362 1.96072 9.52515
9.73477 1.55809 6.70985
8.0872 2.50194 8.70422
7.46029 5.61917 6.06315
6.56772 8.96972 0.312421
1.63404 1.84834 7.61838
2.69147 1.07073 7.68313
0.481456 2.84622 7.25749
3.55031 5.15509 0.913388
8.30589 2.55057 5.03094
4.09308 6.02335 1.2896
8.39389 7.1749 6.95051
1.60632 2.63987 9.42623
5.01977 8.98817 4.49711
2.08447 7.97102 4.21645
3.81173 3.42732 6.025
9.8277 5.58851 7.24837
3.75516 6.50107 7.92088
9.11408 6.42187 3.24501
2.40159 7.91977 2.28879
0.340201 1.47794 10
7.11433 4.85758 3.73564
1.80216 9.68317 3.19821
6.22111 4.59941 6.91697
6.921 2.89975 8.19671
7.90025 2.69508 1.79317
9.35896 4.21703 2.00135
7.51868 7.14119 3.078
1.35618 0.527621 5.42236
7.34114 4.02882 0.540325
2.13337 7.67432 3.51579
10 6.97312 6.81817
9.09372 3.17044 2.80531
6.40213 9.58956 3.8401
4.70337 5.49469 2.05985
7.14993 8.25153 8.87298
0.601856 3.33833 7.13284
7.03887 1.46218 9.31699
8.53126 2.14822 4.69835
8.59115 2.10958 2.05561
8.84953 2.19103 1.61621
0.448346 1.09235 8.68253
7.93153 0.877813 7.02797
9.59011 2.46279 5.08478
0.914619 0.55742 6.35327
6.19031 4.04099 6.02876
7.13618 6.59158 7.76723
7.64721 0.271825 7.17606
3.89018 9.04882 8.65456
5.9329 0.105193 9.27611
4.88647 0.417562 1.49587
8.7333 5.93734 1.43568
2.53632 9.5094 5.84942
8.7186 2.59255 6.87121
5.10997 0.163601 0.24575
0.621103 9.25041 2.71917
0.216518 9.6486 4.67659
2.67116 1.11469 8.98707
7.48793 3.14694 0.0664127
8.44246 8.85418 1.02614
0.0606459 7.01335 6.65318
3.2644 1.81292 7.02652
5.34854 6.28974 3.68051
9.19818 1.79444 7.02776
5.60901 5.49996 5.25993
0.695554 3.88101 4.87675
6.27771 1.66902 5.21033
1.80337 6.27981 8.0535
5.52315 5.57798 3.63445
7.66349 6.89689 8.55243
1.92848 0.793141 6.90589
9.59824 0.793235 3.50057
6.01242 9.30669 1.15942
3.2143 9.22146 3.78084
9.65734 0.917104 8.52691
5.02174 4.71654 8.85062
9.50255 1.38941 3.31809
0.629101 4.67779 5.60668
9.75363 2.58907 6.86002
2.6596 1.79082 9.65899
6.90685 3.32658 10
3.32616 2.65835 2.67531
6.86518 5.14234 7.4993
7.35321 0.599214 7.55421
0.795973 9.81528 6.21297
0.431372 7.60148 0.793083
5.09835 5.8803 4.81169
0.830612 4.64552 9.56065
3.09315 4.74534 6.07185
1.0662 5.60139 6.8507
1.66275 1.34847 0.142244
3.54858 0.650973 6.33442
10 1.7198 6.99032
5.3415 0.156016 2.36789
1.63884 1.35473 1.75144
1.17226 0.43891 1.15583
9.44579 5.51305 9.96473
8.04286 1.18983 5.64486
5.30964 4.34465 4.15236
8.97425 6.49619 4.19758
9.98432 0.795768 8.06704
5.36045 4.07706 6.92335
8.87237 1.29346 8.70937
3.01008 9.09652 3.84036
5.49039 4.34136 4.15468
8.81063 4.574 6.29694
1.1215 10 8.71805
0.62816 0.906085 8.09605
9.00808 2.27221 7.61035
7.9676 3.11851 9.30263
4.55316 1.80141 3.48984
2.57833 4.8193 6.43489
6.29435 1.96157 5.85508
8.46507 7.36788 8.06489
3.45413 10 0.746633
1.09073 9.42039 5.35745
5.70775 2.61295 0.42665
0.652759 9.90513 7.45197
1.93782 10 8.26527
8.92351 1.12257 6.66123
7.98231 0.983958 5.38984
3.75827 8.26007 3.72492
0.929006 5.24968 3.84972
8.77401 9.66444 9.63143
7.44189 7.32715 6.57627
7.73854 0.384605 7.08314
8.42521 4.63264 1.36808
2.38987 2.62499 1.14756
7.1843 0.169745 7.73921
8.39311 1.01457 1.51595
8.25163 6.2653 10
1.7911 9.20439 2.51385
8.58764 6.86278 2.22052
10 0.106042 9.44452
3.1456 6.79812 0.877882
7.66583 0.525229 7.19767
6.75987 5.09634 0
7.79922 0.526708 6.83916
3.0327 0.74905 10
5.65208 2.15395 5.62604
10 7.10459 4.14418
6.01898 9.27275 1.23475
0.689266 2.82795 8.5211
0.440797 3.94815 9.05423
6.21132 1.66005 6.30251
2.45176 3.59878 7.10779
4.81851 1.33209 9.85088
7.91878 2.04316 0.360526
0.24602 1.84722 1.26318
6.7753 4.61279 8.63229
0.738838 5.73515 8.3561
5.7294 6.60671 0.191918
3.00746 1.29504 5.18915
0.115442 1.44826 7.47375
7.52869 1.01119 9.77576
0.97781 6.9511 1.82585
4.04722 8.98787 5.08255
4.39658 2.98443 1.64507
9.18961 5.94638 3.39564
4.55906 9.49162 7.17806
0.624826 8.7157 5.70328
6.40533 2.08195 0.0066849
6.61308 5.94898 4.12068
0.465792 0.688286 7.62761
4.12122 8.94354 7.61219
4.95397 8.78804 6.64767
6.00791 3.54575 7.04536
1.96131 9.66393 0.649772
6.14916 1.05898 4.49336
7.16087 6.8472 6.78029
8.73576 4.04603 2.25052
8.36619 5.03764 2.44538
2.44073 1.3119 4.80997
4.82 6.59772 2.15411
0.197429 5.23018 1.70599
4.35522 3.63964 4.04878
7.21238 0.374882 7.49736
7.45864 8.0223 4.87335
0.31564 0 8.40771
7.97854 0.528407 7.14381
0.000292744 6.4807 3.71219
7.0743 3.64941 2.54338
7.5205 1.15557 6.79912
1.06124 0.0120305 5.51579
0.123176 0.873733 9.16614
4.94404 7.37287 7.27342
4.14431 2.52366 7.8283
9.50666 2.21802 4.20154
0.0856004 7.25979 0.176155
8.18678 5.8693 8.31763
9.76603 1.26229 0.267458
2.93637 9.41412 2.81679
3.29094 0.752267 8.53121
7.74676 0.478314 7.21905
7.36678 0 7.78949
7.38107 0.509313 7.22449
7.18612 0.70745 7.12173
7.79305 7.15239 6.69094
5.23874 4.36391 3.56426
7.68165 0.24978 7.2546
2.89538 1.25049 8.08503
7.66967 0.567013 7.12304
2.1148 7.34768 8.2254
7.84662 1.15629 5.45475
7.82228 0.265324 7.28469
6.18912 5.54608 4.45519
1.15073 2.94939 1.99971
8.9774 1.01335 2.54852
7.77697 2.12678 3.73278
1.55187 0.372779 5.9355
7.95924 0.37509 7.34791
5.31372 7.29199 5.58398
9.74997 6.00116 9.75781
8.22638 8.65849 10
7.31653 0.683836 7.48382
2.44636 2.51439 0.389479
1.11769 3.57162 0.507053
2.90501 9.93167 6.25031
3.66338 1.02758 9.6248
1.37931 0.698664 8.12139
7.70541 0.138846 7.43174
7.4179 0.558952 7.58599
2.11201 9.58386 6.37295
8.28856 1.36739 5.64608
3.6118 5.72331 2.2251
9.5756 5.45095 5.75183
7.93571 0.556578 7.31042
6.83596 9.35518 5.93174
2.00572 3.20904 0.688754
9.68222 7.00672 2.27722
7.29738 4.91675 0.91754
3.75285 3.58114 8.70812
7.3384 4.12513 5.61664
9.00189 2.18164 4.86367
7.73219 0.156157 7.31026
6.85563 9.00723 0
3.32819 3.78343 5.70874
6.86174 6.29051 3.78357
1.2815 5.61347 8.1627
5.05206 10 2.93569
1.41413 0.99714 8.35583
7.24783 0.0885202 7.55063
2.93367 2.61055 2.62597
8.66139 1.48438 0.0594071
7.61974 0.929223 6.4544
7.42059 0.494202 7.08844
3.37005 5.2648 2.34919
7.62777 0.354262 6.82208
7.70555 0.720303 7.4443
1.59724 8.55392 1.62298
0.66727 9.18609 1.5924
3.24443 8.54349 10
7.88043 0.426741 7.0338
9.68027 5.87115 7.63006
6.45486 1.61966 1.67372
7.30753 0.122442 8.00078
7.89917 0.591881 7.44714
1.46547 4.97618 5.36103
1.34724 0.706161 8.08516
1.58504 0.83676 8.33916
7.69819 0.489189 7.16015
3.18303 3.52765 5.60145
6.29353 1.18013 6.61086
1.34361 0.76708 8.30785
3.40845 7.32584 1.07477
8.14734 8.85668 2.57543
0.718427 8.26531 4.16174
8.7763 1.2956 0.112989
8.16104 6.76997 6.82012
0.73108 7.21752 0.0924793
7.06081 1.00046 7.01011
7.86948 0.0721063 7.63137
8.17865 2.69708 4.75498
1.38957 0.720769 8.35009
4.8114 0.267649 9.14195
1.6234 3.54446 1.51084
7.23938 0.798653 7.40172
7.66315 0.147312 7.17164
7.71552 0.621438 7.44122
6.16399 3.48132 7.13826
7.69722 0.586881 6.69417
5.64413 5.43655 7.56493
1.21152 0.751574 8.30956
7.87843 0.551344 7.14905
7.7841 0.710504 7.33563
7.31624 0.340717 6.16708
9.61399 6.01055 3.0201
7.36164 0.62764 7.16096
7.92301 0.247148 7.46985
2.72926 9.88295 1.13269
7.42153 0.639169 7.21481
9.1339 8.69408 4.23219
4.63162 2.62849 0.546209
7.65425 0.187861 7.44816
7.05476 5.64997 6.09101
5.44899 5.0634 5.12299
3.97397 0.17461 4.73603
POINT_DATA 400
SCALARS particleColor float 3
LOOKUP_TABLE default
1 0.868588 0
0 0.81891 1
1 5.96046e-08 0
1 5.96046e-08 0
1 0.229644 0
0.942555 1 0.0574453
1 0.870804 0
1 5.96046e-08 0
0.114179 1 0.885821
1 0.92074 0
1 0.816942 0
1 0.201173 0
0.798754 1 0.201246
1 5.96046e-08 0
1 5.96046e-08 0
0.605205 1 0.394795
0.59898 1 0.40102
1 0.405628 0
0 0.761497 1
1 5.96046e-08 0
0 0.674076 1
1 5.96046e-08 0
0.296574 1 0.703426
0.322933 1 0.677067
1 0.370349 0
0 0.749906 1
1 0.243157 0
1 5.96046e-08 0
1 0.565687 0
1 5.96046e-08 0
1 5.96046e-08 0
0 0.9922 1
0.936262 1 0.0637383
1 5.96046e-08 0
1 5.96046e-08 0
0.143938 1 0.856062
1 0.106461 0
1 5.96046e-08 0
1 5.96046e-08 0
0 0.993581 1
1 5.96046e-08 0
0.907612 1 0.0923877
1 5.96046e-08 0
1 5.96046e-08 0
0.447876 1 0.552124
1 0.90081 0
0.695522 1 0.304478
0.575577 1 0.424423
0 0.948109 1
0.218072 1 0.781928
0 0.824803 1
1 5.96046e-08 0
1 5.96046e-08 0
0 0.931444 1
1 5.96046e-08 0
1 0.519624 0
1 5.96046e-08 0
0.345692 1 0.654308
1 0.971735 0
0 0.829129 1
1 5.96046e-08 0
0 0.646956 1
1 5.96046e-08 0
0.884675 1 0.115325
1 5.96046e-08 0
1 0.574152 0
1 0.835473 0
0.339587 1 0.660413
0.3159 1 0.6841
0 0.978457 1
0.753666 1 0.246334
1 5.96046e-08 0
1 0.370232 0
0 0.839212 1
1 0.509366 0
0.695963 1 0.304037
0.474196 1 0.525804
1 0.00904983 0
1 5.96046e-08 0
1 5.96046e-08 0
1 5.96046e-08 0
0.983217 1 0.0167834
1 0.501037 0
1 0.419029 0
1 0.210787 0
1 0.712369 0
1 0.0548329 0
1 5.96046e-08 0
1 5.96046e-08 0
0.993442 1 0.0065583
0.459129 1 0.540871
0.706768 1 0.293232
1 5.96046e-08 0
0.60136 1 0.39864
1 5.96046e-08 0
1 5.96046e-08 0
1 5.96046e-08 0
1 5.96046e-08 0
0.692648 1 0.307352
1 5.96046e-08 0
1 0.189563 0
0.482616 1 0.517384
0.783404 1 0.216596
0.573816 1 0.426184
1 5.96046e-08 0
1 5.96046e-08 0
0 0.651507 1
1 5.96046e-08 0
1 5.96046e-08 0
1 5.96046e-08 0
0.409237 1 0.590763
1 5.96046e-08 0
0.250711 1 0.749289
1 0.718393 0
1 0.993952 0
0.951874 1 0.048126
1 5.96046e-08 0
1 5.96046e-08 0
1 0.160885 0
0.50184 1 0.49816
1 5.96046e-08 0
1 5.96046e-08 0
1 5.96046e-08 0
1 5.96046e-08 0
0.947269 1 0.0527312
1 0.802254 0
1 0.593877 0
0 0.419048 1
0.538114 1 0.461886
1 5.96046e-08 0
1 0.972689 0
0.126314 1 0.873686
1 0.0182698 0
1 0.397015 0
1 5.96046e-08 0
0.699116 1 0.300884
0 0.911019 1
1 0.88373 0
1 5.96046e-08 0
1 5.96046e-08 0
1 0.992826 0
1 0.451122 0
1 5.96046e-08 0
1 5.96046e-08 0
0 0.769677 1
1 5.96046e-08 0
0.685599 1 0.314401
1 0.595175 0
1 5.96046e-08 0
0.906631 1 0.0933692
0 0.231426 1
1 5.96046e-08 0
1 5.96046e-08 0
0 0.101745 1
1 5.96046e-08 0
0.907717 1 0.0922834
1 0.491384 0
0.597596 1 0.402404
0.656188 1 0.343812
1 5.96046e-08 0
1 0.784887 0
0.425151 1 0.574849
0.935622 1 0.0643781
0 0.863146 1
1 0.680255 0
1 0.847154 0
1 0.528614 0
1 0.0347817 0
0.604567 1 0.395433
0.745937 1 0.254063
1 0.809325 0
1 5.96046e-08 0
1 5.96046e-08 0
1 0.738695 0
1 0.0396971 0
1 0.128037 0
1 5.96046e-08 0
1 0.317178 0
1 0.555006 0
1 0.620731 0
0 0.967064 1
1 5.96046e-08 0
1 0.764017 0
0.209142 1 0.790857
0.948017 1 0.051983
1 5.96046e-08 0
0 0.340333 1
1 0.468486 0
0.244683 1 0.755317
1 5.96046e-08 0
1 5.96046e-08 0
0.272317 1 0.727683
1 5.96046e-08 0
0.895517 1 0.104483
1 0.000407338 0
1 0.144898 0
0.0691501 1 0.93085
1 5.96046e-08 0
1 5.96046e-08 0
0.753653 1 0.246347
0 0.248509 1
1 0.400446 0
1 5.96046e-08 0
1 5.96046e-08 0
1 5.96046e-08 0
0.756453 1 0.243547
1 0.511502 0
1 0.227112 0
1 0.382256 0
1 5.96046e-08 0
1 0.708947 0
1 0.404075 0
0.601328 1 0.398672
1 5.96046e-08 0
1 0.574171 0
0.923057 1 0.0769433
1 0.455102 0
1 5.96046e-08 0
1 0.158605 0
1 5.96046e-08 0
1 0.894804 0
1 0.332209 0
0.00877191 1 0.991228
0 0.375682 1
1 0.399404 0
0.683517 1 0.316483
1 0.696557 0
1 5.96046e-08 0
0 0.394773 1
1 5.96046e-08 0
1 5.96046e-08 0
0.345042 1 0.654958
0.14249 1 0.857509
1 5.96046e-08 0
1 0.0294248 0
0.456846 1 0.543154
1 0.304125 0
1 5.96046e-08 0
0 0.634813 1
1 5.96046e-08 0
0 0.622349 1
0.980747 1 0.0192532
0.935282 1 0.064718
0.21286 1 0.78714
1 0.583457 0
0.61282 1 0.38718
1 5.96046e-08 0
1 5.96046e-08 0
1 0.110122 0
0.968506 1 0.0314938
0.921502 1 0.0784981
0.291042 1 0.708958
1 0.0153604 0
1 5.96046e-08 0
1 5.96046e-08 0
0.795478 1 0.204522
1 0.111102 0
0.846367 1 0.153633
1 0.362058 0
0 0.976401 1
1 0.566084 0
0.192099 1 0.807901
0.405941 1 0.594059
1 0.794751 0
1 5.96046e-08 0
0.477108 1 0.522892
1 0.510541 0
1 5.96046e-08 0
0.897397 1 0.102603
1 5.96046e-08 0
1 5.96046e-08 0
1 0.834716 0
1 0.896112 0
0.622412 1 0.377588
1 0.201067 0
1 5.96046e-08 0
1 0.303358 0
1 0.829561 0
1 5.96046e-08 0
0 0.903128 1
1 0.239242 0
1 5.96046e-08 0
0.906489 1 0.0935114
1 5.96046e-08 0
1 5.96046e-08 0
1 0.454225 0
1 0.223177 0
0.95561 1 0.0443903
1 0.513501 0
1 5.96046e-08 0
1 5.96046e-08 0
1 5.96046e-08 0
0.750421 1 0.249579
1 0.830908 0
0.247927 1 0.752073
1 0.996076 0
0 0.903119 1
0 0.487789 1
0 0.177574 1
0 0.600672 1
0.943248 1 0.0567517
1 5.96046e-08 0
0 0.669508 1
0.3477 1 0.6523
0 0.420023 1
1 0.378086 0
0 0.517374 1
0 0.428365 1
1 0.00424939 0
1 5.96046e-08 0
1 0.358482 0
1 5.96046e-08 0
0.00326064 1 0.996739
0 0.630906 1
1 0.650723 0
1 0.348187 0
1 0.566971 0
0 0.841587 1
1 5.96046e-08 0
1 0.951207 0
1 0.264193 0
0.479367 1 0.520633
0 0.21859 1
0 0.638785 1
0 0.322409 1
0 0.711523 1
0 0.297606 1
1 0.493026 0
0.780006 1 0.219994
0 0.309137 1
1 5.96046e-08 0
1 0.481696 0
1 0.765829 0
1 5.96046e-08 0
0.20466 1 0.79534
1 0.662368 0
0.961198 1 0.0388024
0 0.450702 1
1 5.96046e-08 0
1 0.277354 0
0.812999 1 0.187001
0.728072 1 0.271928
0.202008 1 0.797992
0 0.566534 1
0 0.586895 1
1 5.96046e-08 0
0 0.67628 1
0 0.385534 1
0 0.591107 1
1 0.436767 0
0 0.722365 1
0 0.606368 1
0.366901 1 0.633099
1 0.926263 0
0.722612 1 0.277388
0 0.473047 1
1 0.665792 0
1 0.535977 0
0 0.440925 1
0 0.964996 1
1 5.96046e-08 0
0 0.818118 1
0 0.302939 1
0 0.417262 1
1 0.896504 0
1 5.96046e-08 0
0 0.230364 1
1 0.291836 0
1 0.667405 0
1 0.106408 0
0 0.795326 1
1 5.96046e-08 0
1 0.32313 0
0 0.475559 1
0 0.345749 1
0 0.850678 1
0 0.306972 1
1 0.0203494 0
1 5.96046e-08 0
0 0.978191 1
0 0.859352 1
0 0.557254 1
1 5.96046e-08 0
0 0.271356 1
1 0.264812 0
0 0.172173 1
0.015721 1 0.984279
0 0.586343 1
1 0.103546 0
1 0.865962 0
0 0.475135 1
0 0.700718 1
1 0.702346 0
0 0.88376 1
1 5.96046e-08 0
0.877819 1 0.122181
0 0.257135 1
0.123029 1 0.876971
1 5.96046e-08 0
1 0.384396 0
