# vtk DataFile Version 3.0
Particle simulation
ASCII
DATASET POLYDATA
POINTS 400 float
2.96034 0.105452 6.84543
1.78422 4.66426 2.37218
0.183621 3.25607 2.17077
2.36028 0.715519 0.416663
9.10826 1.97475 3.82553
9.3257 2.02849 4.71602
8.67635 3.88213 1.43519
2.32672 4.23137 2.03215
6.1514 2.50773 1.5898
8.48122 0.735068 3.52592
1.87433 0.584799 0.882908
2.33143 2.19725 2.59375
2.91039 2.45943 3.81415
2.88732 0.749465 0.615191
9.41212 1.93604 3.63385
7.81111 5.05881 9.61236
3.74152 4.93333 0.791008
2.01589 0.366243 2.7273
3.28275 8.75996 7.32991
8.39854 0.634968 3.42933
3.2346 0 3.16046
5.12436 2.89204 9.15973
0 3.86826 7.35179
8.72284 0.358623 3.40107
8.63873 6.57379 8.877
3.18873 0.112664 1.16371
2.42758 4.91223 9.26986
1.60464 1.03726 2.6213
4.91516 1.24194 4.86387
1.75781 1.11922 3.29311
8.35358 3.06781 2.90707
9.52654 0.177244 0.974324
2.67784 2.11336 7.77141
8.7168 0.306769 3.47683
1.96081 2.2622 2.18535
2.38546 0.650593 0.73714
7.84661 0.851908 8.56111
2.6115 0.411903 1.91369
5.29271 0.272872 1.99423
1.50553 1.08841 1.10983
3.82202 0.180781 1.09983
7.55035 5.21954 3.71866
5.1009 4.7915 4.70918
9.65506 3.61357 3.54979
9.50262 0.269451 9.51473
5.39389 0.309909 1.83126
9.44126 2.11505 3.59518
2.29713 0.813966 0.816675
5.41424 0.354331 1.76094
3.98003 1.6319 1.51979
0.426045 2.58463 1.71675
7.50056 5.23859 3.6728
5.96711 0.675575 5.36557
8.91451 0.785181 3.34025
9.75189 0.184064 9.81199
5.41532 0.328074 1.72544
4.48572 0.380616 7.94306
2.22848 0.830993 0.800834
5.50722 0.380247 1.79659
0.764061 1.46464 8.72847
4.67713 0.325818 5.93974
4.86746 0.722478 5.69169
0.238886 0.813173 7.14611
8.54727 0.508502 3.38299
6.92932 0.689493 5.94726
8.383 0.928207 6.78664
4.9278 1.05656 4.71429
0.588229 2.79822 1.98048
5.36664 0.106319 1.87806
4.2313 0.579609 8.3558
4.77217 0.721147 5.73774
1.96508 1.72761 2.53349
7.14915 0.366154 8.50772
8.57419 0.517342 3.40131
7.50863 0.71517 7.71521
4.68622 0.149513 7.71305
4.9461 1.07673 4.72939
4.15115 0.140245 8.24161
5.33002 0.514336 1.80247
5.52278 0.571698 8.21012
2.96984 0.215311 2.0319
1.35335 1.23029 2.85068
2.37296 2.10589 2.75056
2.78988 0.249824 2.33632
5.22371 0.725292 7.13248
5.18441 1.04146 8.35332
5.45939 0.651694 7.17096
4.50414 0.912229 1.97181
4.42355 2.0085 1.93664
9.45966 0.316576 1.22581
2.92736 0.371818 2.14313
2.32299 0.366314 1.72622
2.40655 2.34537 7.11804
2.82065 0.295498 2.33401
5.23967 0.749602 7.07015
5.17926 1.0628 8.34408
4.6909 0.844935 8.51622
2.26604 0.188529 0.703196
5.37636 0.525976 7.93962
9.49807 0.317686 1.2489
2.92904 0.45105 1.99812
1.61151 0.579727 9.2432
2.23118 0.531859 1.57946
7.08109 1.27064 4.45239
9.19576 0.17361 0.305132
2.42564 0.588135 0.761971
5.25458 0.814918 6.73247
5.61841 0.370062 1.54708
5.42963 0.4213 1.80836
9.27806 0.19297 0.425483
0.572779 2.6113 2.17438
8.69368 0.411923 3.66054
1.90361 0.429932 1.05739
9.53639 0.490306 1.4296
1.93246 0.785314 0.885732
1.61899 0.0735827 1.15637
4.32277 0.612682 8.23672
5.88508 0.776091 2.23811
5.4574 0.440911 1.85003
2.43803 0.979013 0.852716
2.67975 0.256392 2.08633
8.45469 3.02077 2.50286
3.61879 0.233246 8.04241
4.61611 0.530184 5.77908
1.46174 0.445398 8.98185
1.71068 1.02921 2.94754
2.03655 0.560424 0.528733
8.39198 0.254106 3.27451
2.22786 2.57603 9.25994
2.52939 0.963054 2.85927
2.6293 0.276223 2.04554
5.5324 0.603212 1.68761
5.35677 0.4437 6.67931
4.8876 1.25874 4.93395
4.54694 0.114566 8.19794
1.97353 0.698333 2.56018
8.12167 1.84235 0
8.47124 0.23544 3.32833
4.61369 0.531038 8.40211
5.94758 0.569445 5.32568
2.06445 0.302237 1.8243
6.0986 0.776953 5.14693
1.81931 0.782027 3.74687
3.70898 0.107806 1.70857
2.99558 0.413942 1.90016
2.47344 0.694699 0.406484
9.40471 0.344632 9.93234
1.91528 0.403406 2.29051
1.8877 0.412342 1.01946
2.86891 0.352482 2.68717
2.06253 0.307541 1.81244
5.77639 0.490916 5.50363
2.41408 1.4949 3.17026
4.7376 0.347362 5.94749
2.11342 0.150633 0.714191
2.21073 0.609681 0.526626
8.91699 0.356237 9.26812
3.02321 0.148346 2.28554
5.95234 0.639585 5.05996
1.57922 0.215406 0.899881
2.71904 0.283526 1.82782
0.527468 2.53826 2.19097
5.09936 0.7952 7.26271
1.7512 0.664598 2.94243
0.466633 2.64203 1.69566
5.85345 0.690886 5.35981
4.30298 0.331231 8.34931
4.03531 0.303965 8.22367
6.20584 1.89225 8.61399
0.930304 9.90781 0.655702
2.35126 0.55453 1.32995
2.39081 0.332522 0.332457
5.30231 0.187179 7.16463
2.00843 1.96972 2.88377
2.29346 0.560143 2.56608
3.30737 0.635409 0.754487
4.58831 0.708115 8.41454
4.51535 0.597727 8.38091
4.97305 0.512735 8.2577
3.08375 1.36501 1.45877
2.76968 0.376336 2.41545
1.69324 1.14738 2.81347
6.4622 1.40214 8.38002
2.09544 2.36989 2.55368
5.44119 0.652037 7.74592
2.19046 0.667729 1.78178
1.97288 0.838372 1.46296
2.33383 2.60877 7.10422
3.02638 0.0483446 0.872852
2.8226 0.151408 2.02291
2.79513 0.340786 2.41433
1.7978 0.610225 0.822812
5.07611 0.404112 7.31204
2.04362 2.60221 0.625617
3.95847 2.08014 8.42648
2.57995 0.365066 2.18216
2.38394 0.330576 1.52084
0.623411 4.41442 5.93222
2.04367 0.87705 2.70614
1.69897 0.985095 3.0558
2.66998 0.509055 2.21547
5.26594 0.211653 2.16788
7.06751 0.609418 9.14143
4.91696 0.413163 6.04044
4.06938 0.315225 7.73277
4.06893 0.68781 8.37385
2.21079 0.442524 1.50594
1.83797 0.840329 3.16786
3.0043 0.912638 1.11666
9.24447 0.363794 1.34568
2.16888 0.537721 1.88701
5.31302 0.222092 1.77898
5.70291 0.0894606 7.79419
5.84989 0.849117 5.37284
3.77186 0.401467 7.42622
4.01684 0.606004 8.31792
2.21443 0.433408 1.55087
2.27103 0.846865 0.797769
1.89949 0.210613 2.22685
9.25327 0.307992 1.39385
9.62274 4.27365 4.30862
0.584837 0.370917 7.64562
5.23725 0.950725 7.18525
2.97365 0.16594 2.11782
3.74377 0.561301 8.35969
1.8809 0.268606 3.22026
9.31008 1.36943 3.38345
2.7048 0.436463 1.81125
2.61405 0.485504 1.69596
4.6153 0.915209 5.98871
8.66654 0.444326 3.58991
4.47551 0.284597 7.73742
9.07618 0.328035 9.21344
2.97981 0.33745 2.11205
5.07821 0.42865 7.32836
2.96523 0.0760871 0.687903
10 0.351163 9.30676
2.08841 0.456582 2.55356
3.0477 0.133583 1.04347
1.90125 0.708848 2.57979
2.16225 0.372967 1.58416
2.31552 0.71081 2.24605
1.9816 0.384635 1.32479
2.32444 0.419211 2.18725
4.63619 0.314342 7.76007
1.91516 0.935406 2.99072
2.01109 0.449822 1.53227
3.97424 0.014041 8.18076
5.48867 0.600835 1.54688
4.07895 0.453005 8.21751
1.96928 0.133438 1.77943
5.47967 1.18821 1.84132
4.33621 0.324571 8.02549
2.76438 0.79972 2.69438
9.46435 0.55702 9.2751
2.80664 0.257961 2.08399
9.32798 0.248853 1.07104
4.58531 0.820244 8.4491
5.46579 0.525544 1.52149
4.08444 0.40643 8.24543
2.75796 0.404971 1.99225
8.95273 4.56955 4.26597
4.64647 0.600975 5.81454
8.48117 0.202227 3.65271
4.02921 0.327525 7.93276
1.54689 0.365155 0.551335
9.54814 0.354885 2.35715
4.58913 0.0737339 7.83549
9.26069 0.450312 9.48352
1.94715 1.16571 0.698801
2.97823 0.136485 1.57352
9.29012 4.37554 4.04247
1.93925 0.329883 3.03897
8.52245 0.487365 3.8415
4.06002 0 8.38891
4.92184 0.687676 6.88305
9.04931 0.188775 3.36069
7.13858 7.27724 9.53764
9.79506 0.163374 9.53552
2.65839 0.212263 2.3933
9.7414 0.666393 0.198173
5.50453 0.578925 2.1697
5.58918 0.657071 1.46023
8.24551 0.615286 3.14061
7.4221 0.911984 8.97534
7.64438 0.191304 8.38313
1.74568 1.17591 3.09939
1.81247 0.608638 0.389408
5.85547 0.829752 5.56835
7.14315 0.225282 8.78815
9.76639 0.663703 0.0748514
5.76345 0.563768 1.99835
2.03801 0.17516 1.4327
8.47823 0.497738 3.20032
4.30818 0.264319 8.30457
4.22048 0.305576 8.25331
2.21513 0.476709 0.822767
1.97048 2.10221 2.32455
2.50051 0.736311 2.32498
2.01256 0.679324 2.52559
9.20767 0.116636 0.150297
5.84491 0.738073 5.10826
1.08536 0.0631141 1.05948
5.5968 0.318396 1.41357
1.81321 0.964852 3.203
5.30463 0.233217 1.43582
2.64931 0.145426 2.20324
3.09297 0.170449 2.40948
1.67707 1.17169 2.56546
1.73494 0.562207 1.5005
8.47211 0.626581 3.28037
5.76167 0.393082 5.24496
9.73565 0.191524 9.27847
2.29963 0.700811 1.73714
1.76587 0.923289 3.24799
9.82794 0.341775 2.52993
2.30841 0.607814 0.240682
5.89681 1.14244 4.65342
5.52487 0.261322 1.70378
2.67034 0.686002 2.76336
4.69331 0.76866 5.62966
2.12912 0.610086 2.70041
4.49699 0.415321 8.06988
3.11451 0.437485 2.09388
9.36374 0.189746 1.41396
9.62452 0.559245 1.14498
2.80577 0.308563 2.54451
5.28006 0.559293 2.16951
9.06405 0.281195 1.42381
2.23866 0.306156 1.28988
4.65587 0.712925 5.65108
2.83549 0.185587 2.27914
4.11197 0.176235 8.09754
2.9444 0.431323 1.83108
9.22533 0.211752 1.21905
4.62037 0.924937 5.94016
2.10765 0.356943 1.34942
1.65595 0.783819 2.85911
8.87748 0.342714 1.3273
2.45293 0.447011 1.81568
4.88409 0.599212 6.4995
2.92619 0.100145 2.07237
5.08328 0.642994 7.04257
4.80247 0.501204 6.0439
2.35919 0.330312 1.77706
2.43689 0.807006 0.481513
5.65539 0.475297 2.1152
2.89422 0.620134 2.8631
2.46976 0.688167 0.33882
1.99483 1.00897 0.356491
1.73277 0.225052 1.16894
2.23913 0.407984 1.56221
4.84237 0.884108 6.90244
4.7917 0.499989 6.01147
2.30849 0.530164 1.80808
1.8337 0.125406 1.14064
5.83531 0.527319 2.45513
4.35419 0.564888 8.32877
2.38253 0.532756 0.430122
1.83344 1.11296 2.8694
5.66981 0.430858 1.76666
5.83307 0.495306 5.56523
3.75059 0.200053 8.02674
2.11628 0.206275 1.41511
2.3278 0 0.582727
8.94434 0.236636 9.20561
4.06853 0.346317 8.17565
3.96676 0.730878 8.4982
4.51011 0.570044 8.38046
1.56803 1.04724 2.95248
5.69683 0.418263 1.79431
5.87572 0.538468 5.52804
5.41378 0.728858 7.29394
2.3594 0.549951 0.496208
3.08855 0.53622 2.4017
9.23278 0.26275 9.34141
4.01241 0.0399516 8.18254
4.37855 0.412322 8.59123
3.88779 0.193025 8.08984
2.25876 0.766835 0.972872
2.47226 0.650267 0.519794
2.83549 0.25269 2.15577
3.80802 0.408468 8.31698
3.00441 0.228818 2.14554
8.69005 0.640012 3.69804
5.18077 0.422345 7.47909
2.15936 0.996524 2.94287
2.71256 0.129056 2.02331
8.02464 0.459864 2.93669
5.37752 0.377147 2.15932
2.439 0.664275 0.561113
2.7969 0.197345 2.01018
3.90188 0.385788 8.28016
3.0664 0.468592 1.90925
8.72822 0.616997 3.68813
5.25868 1.0694 6.94421
2.18047 0.988868 2.92396
3.03886 0.316546 2.35761
9.80799 0.282605 1.57997
5.39276 0.413216 2.1607
POINT_DATA 400
SCALARS particleColor float 3
LOOKUP_TABLE default
0.332796 1 0.667204
0 0.188631 1
0 0.344386 1
0 0.323795 1
0.0201543 1 0.979846
1 0.971472 0
0 0.484109 1
0 0.422649 1
0 0.537823 1
0 0.507233 1
0 0.147177 1
0 0.544472 1
0.110783 1 0.889217
0 0.399075 1
0.209299 1 0.790701
0 0.481162 1
0 0.408978 1
0 0.827067 1
0.559437 1 0.440563
0 0.505803 1
0 0.382722 1
0.158483 1 0.841517
0.156746 1 0.843254
0 0.557122 1
0 0.998333 1
0 0.983181 1
1 5.96046e-08 0
0.341094 1 0.658906
0.0820397 1 0.91796
0 0.565738 1
0 0.682406 1
0 0.340163 1
0 0.42471 1
0 0.536568 1
0 0.192018 1
0 0.639309 1
0 0.218214 1
0 0.268127 1
0 0.994916 1
0 0.765216 1
0 0.193178 1
0 0.603747 1
0 0.528142 1
0 0.650666 1
0 0.678008 1
0 0.626855 1
0 0.430204 1
0 0.654274 1
0 0.174058 1
1 5.96046e-08 0
0 0.23342 1
0 0.716657 1
0.121763 1 0.878237
0 0.726283 1
0 0.162622 1
0 0.640963 1
0 0.310515 1
0 0.338365 1
0 0.142646 1
0 0.73644 1
0 0.756194 1
0 0.635128 1
0.57111 1 0.42889
0 0.483157 1
0 0.536249 1
0.182267 1 0.817733
0 0.170732 1
0 0.852706 1
0 0.185354 1
0 0.662958 1
0.00287683 1 0.997123
0 0.584874 1
0.025154 1 0.974846
0 0.413176 1
0 0.409507 1
0 0.939647 1
0 0.358191 1
0 0.574001 1
0 0.585466 1
0 0.780867 1
0 0.360628 1
0 0.329813 1
0 0.37336 1
0 0.184704 1
0 0.445741 1
0 0.0768862 1
0 0.494268 1
0 0.521315 1
0 0.481758 1
0 0.474755 1
0 0.707664 1
0 0.948401 1
0 0.38036 1
0 0.107326 1
0 0.518674 1
0 0.281783 1
0 0.337873 1
0 0.687293 1
0 0.867399 1
0 0.452265 1
0.0308962 1 0.969104
0.377266 1 0.622734
0 0.560845 1
0 0.831067 1
0 0.736574 1
0 0.282195 1
0 0.441166 1
0 0.866453 1
0 0.342741 1
0 0.668471 1
0.0496456 1 0.950354
0.0581797 1 0.94182
0 0.636541 1
0 0.504619 1
0 0.28493 1
0 0.15917 1
0 0.355854 1
0 0.439275 1
0 0.414624 1
0.0411225 1 0.958878
0 0.331258 1
0 0.59854 1
0 0.609582 1
0 0.933208 1
0.132796 1 0.867204
0 0.453981 1
0 0.820434 1
0 0.0891789 1
0 0.549638 1
0 0.676337 1
0 0.207745 1
0 0.922491 1
0 0.204438 1
0.0604656 1 0.939534
0.00704753 1 0.992952
0 0.858252 1
1 5.96046e-08 0
0 0.0710767 1
0 0.894396 1
0 0.176806 1
0 0.304531 1
0 0.822282 1
0 0.936682 1
0 0.729989 1
0 0.480223 1
0 0.524811 1
0 0.437581 1
0 0.281404 1
0 0.721608 1
0 0.934829 1
0 0.263305 1
0 0.404064 1
0 0.489279 1
0.0155741 1 0.984426
0 0.696776 1
0 0.739218 1
0 0.708546 1
0 0.261903 1
0 0.55617 1
0 0.569337 1
0 0.933591 1
0 0.494191 1
0 0.723338 1
0 0.894151 1
0 0.186889 1
0 0.525942 1
0 0.90417 1
0.0172476 1 0.982752
0 0.450048 1
1 5.96046e-08 0
0 0.943434 1
0 0.389859 1
0 0.670135 1
0 0.506844 1
0 0.605564 1
0 0.621115 1
0 0.288304 1
0 0.788202 1
0 0.30792 1
0 0.94269 1
0 0.307186 1
0 0.440162 1
0 0.47341 1
0 0.176853 1
0 0.478336 1
0 0.345515 1
0 0.359277 1
0.187224 1 0.812776
0 0.84473 1
0 0.873661 1
0 0.269845 1
0 0.85213 1
0 0.379594 1
0 0.471374 1
0 0.239696 1
0 0.787498 1
0 0.903404 1
0 0.800728 1
0 0.216514 1
0 0.759888 1
0 0.802756 1
0 0.209275 1
0 0.56496 1
0 0.0997401 1
0 0.722124 1
0 0.449769 1
0 0.771361 1
0.123214 1 0.876786
0 0.347865 1
0 0.620593 1
0 0.377945 1
0.0923207 1 0.907679
0 0.748057 1
0 0.551561 1
0 0.972495 1
0 0.443966 1
0 0.751669 1
0.234693 1 0.765307
0 0.901541 1
0 0.436013 1
0 0.956692 1
0.273893 1 0.726107
0 0.321917 1
0 0.56838 1
0 0.560809 1
0 0.750151 1
0 0.908829 1
0 0.996659 1
0 0.63169 1
0.0598143 1 0.940186
0.0159504 1 0.98405
0 0.919439 1
0 0.909847 1
0 0.307751 1
0 0.467191 1
0.182563 1 0.817437
0 0.727359 1
0.439739 1 0.560261
0 0.882344 1
0 0.788824 1
0 0.603876 1
0 0.515516 1
0 0.666361 1
0 0.490543 1
0 0.640644 1
0.0799537 1 0.920046
0.101415 1 0.898585
0 0.644027 1
0 0.354224 1
0 0.240656 1
0 0.343098 1
0 0.810134 1
0 0.61537 1
0 0.672472 1
0 0.794258 1
0 0.881747 1
0 0.384245 1
0 0.876358 1
0 0.340018 1
0 0.348278 1
0.0661172 1 0.933883
0 0.963185 1
0 0.763678 1
0.0600538 1 0.939946
0 0.899465 1
0.321787 1 0.678213
0 0.464677 1
0.149171 1 0.850829
0 0.838244 1
0 0.487724 1
0 0.584372 1
0 0.412211 1
0 0.840957 1
0.428604 1 0.571396
0 0.643544 1
0 0.721719 1
0 0.588149 1
0 0.9726 1
0 0.650205 1
0 0.409107 1
0 0.585533 1
0 0.42849 1
0 0.559327 1
0 0.447734 1
0 0.587318 1
0 0.398238 1
0 0.587638 1
0 0.627082 1
0.0595824 1 0.940418
0.213193 1 0.786807
0 0.402424 1
0 0.480785 1
0 0.794886 1
0 0.319669 1
0.425793 1 0.574207
0.0469458 1 0.953054
0 0.450043 1
0 0.803322 1
0 0.333859 1
0 0.637783 1
0 0.535655 1
0 0.474137 1
0 0.420072 1
0.0426487 1 0.957351
0 0.392601 1
0 0.812674 1
0.0739966 1 0.926003
0 0.852867 1
0 0.74159 1
0 0.71844 1
0.380954 1 0.619046
0 0.669278 1
0 0.641086 1
0.12095 1 0.87905
0 0.902763 1
0.198689 1 0.801311
0 0.808269 1
0 0.340596 1
0 0.860799 1
0 0.375459 1
0 0.848825 1
0 0.508766 1
0 0.511479 1
0 0.506036 1
0 0.50971 1
0 0.716897 1
0 0.867409 1
0 0.837855 1
0 0.579586 1
0 0.499765 1
0.224687 1 0.775313
0 0.737247 1
0 0.601726 1
0 0.389409 1
0 0.814754 1
0 0.792456 1
0 0.520007 1
0 0.206948 1
0 0.492758 1
0.289098 1 0.710902
0 0.465322 1
0 0.839035 1
0 0.294406 1
0 0.174905 1
0 0.495771 1
0 0.399246 1
0 0.550882 1
0 0.340708 1
0 0.277858 1
0 0.360499 1
0 0.894115 1
0 0.399688 1
0 0.643728 1
0 0.136733 1
0 0.316778 1
0 0.737045 1
0 0.511722 1
0 0.934304 1
0 0.660529 1
0 0.734945 1
0 0.791557 1
0 0.755932 1
0 0.83305 1
0 0.947393 1
0 0.988595 1
0 0.287417 1
0 0.840977 1
0 0.856726 1
0 0.770014 1
0.0904183 1 0.909582
0 0.772798 1
0 0.602921 1
0 0.756624 1
0 0.975233 1
0.527935 1 0.472065
0 0.520291 1
0 0.519868 1
0 0.778505 1
0 0.690631 1
0 0.684879 1
0 0.618184 1
0 0.572108 1
0 0.699751 1
0 0.390897 1
0 0.468 1
0 0.88439 1
0 0.528933 1
0 0.642848 1
0 0.863748 1
0 0.784737 1
0 0.601797 1
0 0.39189 1
0 0.549646 1
0 0.264517 1
0 0.556311 1
0 0.853102 1
0 0.707284 1
0.00316302 1 0.996837
0 0.708533 1
0 0.884616 1
