# vtk DataFile Version 3.0
Particle simulation
ASCII
DATASET POLYDATA
POINTS 400 float
6.05369 2.36371 3.9641
1.23374 2.72142 9.5384
0.847781 0.490969 5.51661
6.99822 0.860607 6.26493
7.7304 0.182327 3.97806
9.8468 0.615619 4.91955
7.99431 5.80139 8.64446
1.39142 9.88774 2.09
9.80625 0 4.38701
7.48275 3.37378 5.97611
7.32845 0.0297287 2.04486
5.74783 10 2.67895
9.58328 0.216805 2.10565
9.276 4.51899 2.48494
1.05163 1.80188 3.8363
2.08734 5.86676 0.380762
9.14685 2.7358 3.94428
4.68345 0.432623 3.77663
9.20337 7.58241 10
4.76838 6.66833 6.27624
1.0983 1.75979 0.316134
3.88182 7.99412 0.441821
6.34345 1.31795 1.19896
0.418192 2.98567 4.81583
9.05448 9.21828 5.15777
3.68979 0 7.7493
9.75793 5.27806 0.220815
8.64257 7.29712 1.3143
8.87547 0.953658 4.94069
2.73064 0.118996 8.24816
3.24571 4.78289 4.66627
9.39066 0.578404 2.72798
1.33382 9.14374 8.81732
1.85346 7.65904 9.0295
8.14542 4.58505 5.70962
6.98665 8.34427 2.11869
5.29207 6.05496 8.37112
7.84428 0 0.385534
0.971897 7.54837 9.46688
1.95658 9.22448 1.50425
9.56297 4.37642 8.46833
9.84005 9.50645 1.26287
2.91515 7.03879 6.6605
2.18592 2.56181 5.59671
4.23036 9.78328 8.64706
5.73945 1.96795 4.30086
8.56855 1.91218 6.55428
2.07139 5.72487 0.342651
0.919913 0.334371 3.97287
1.08582 10 8.39029
3.09284 5.84875 2.64957
8.0572 9.84525 7.64655
0.0693274 1.74173 9.91253
2.50527 7.35383 2.6343
4.54627 5.45086 6.83437
1.67799 2.71719 0.252879
4.55787 1.80533 4.1238
3.01707 0.637608 8.88496
1.70415 9.0493 1.49015
7.52867 4.70826 5.50947
0.997283 7.69725 3.61002
7.51067 2.3375 8.16343
0.114043 5.53403 5.95186
5.1339 8.40012 8.30766
1.34497 5.41903 0.243453
6.8657 0.66768 9.36773
8.37651 4.05632 0.160195
1.86952 4.4232 3.70452
0.952413 2.64409 9.38027
0.536736 5.74653 0
8.05766 2.7147 2.64551
7.06519 6.78993 4.28603
5.23636 8.91469 5.19515
2.3161 2.51549 7.79837
0.644287 2.09437 7.54559
8.32946 1.27475 3.52511
7.48863 3.16952 9.17272
8.50224 1.79824 10
0.811063 3.53954 8.75873
8.32015 0.0439986 1.12517
4.66249 7.12424 6.75732
0.680744 7.05549 6.45603
2.31959 9.43784 4.46595
3.62121 5.81894 1.26326
3.45078 0.529115 8.0405
9.08805 2.88081 6.00865
2.16268 9.06801 6.23496
0.677149 4.08169 8.58493
0.628842 6.12279 4.97041
5.28799 8.80177 7.45309
4.17757 0.150098 4.2584
8.73982 7.33289 7.20968
4.96475 4.80495 0.713454
4.37466 1.68346 7.28748
4.66585 4.61537 2.59282
2.98046 6.45518 4.60857
7.32609 3.12025 0
7.48047 0.616768 3.51391
3.73947 6.77929 5.73532
0.356945 7.75822 2.88197
1.09152 1.82827 8.11844
8.45186 10 2.8092
9.95856 0.371451 5.74911
4.86849 1.30335 0.455815
2.79494 4.37878 5.34268
1.32827 8.8471 6.25618
7.50024 2.34509 7.98864
1.27602 6.41897 0.0450341
4.05766 4.25228 7.0676
8.54348 5.5449 0.116111
1.15319 9.7659 6.16141
7.80401 3.36586 9.12176
0.178425 6.08795 0.236331
9.08346 3.44643 5.91198
2.36943 3.23495 5.56229
5.69155 3.58863 5.61186
0.756957 0.380562 1.76453
2.1765 5.85769 3.83022
2.06151 2.00138 8.66833
4.64938 8.69475 1.64596
1.87634 5.61526 0.0664495
6.08378 7.07781 3.70076
5.39081 9.18758 9.39293
10 7.7275 10
2.77323 0.880177 5.1995
3.4494 1.41923 8.05818
4.74904 7.5269 3.1851
9.29541 4.97107 8.39897
6.80688 6.73901 8.36922
7.22707 1.18355 2.16443
2.66638 6.01517 5.19078
6.20114 7.06776 0.956981
8.73699 7.95725 6.60763
4.04006 7.94743 2.15362
6.97523 4.48755 5.87781
1.88315 2.03936 3.55836
2.51854 7.20665 3.2449
3.48754 2.48417 7.35259
8.61938 6.96764 6.34063
9.75185 5.44844 3.5507
4.68085 0.469224 3.96295
8.92418 8.25648 7.66187
8.00306 7.11438 6.86749
3.53368 0.291107 1.74962
6.01808 10 5.83977
5.05731 0.500755 3.53613
8.28729 2.22271 1.62316
1.67306 0.937817 3.48982
8.2303 5.68292 2.0718
6.64003 1.06647 9.70156
4.69299 0.422212 3.75058
2.51865 8.52301 4.16985
5.86243 5.39615 0.49116
2.35984 1.03748 9.46298
6.60901 7.02963 9.43769
0.769362 4.24547 4.49391
4.69222 5.50392 8.68802
5.23145 9.60956 4.67156
3.05519 7.26779 6.81149
9.31535 4.49 2.85277
0.410822 1.88042 4.23354
5.02811 0.150926 4.80609
6.97514 4.07071 8.4464
4.98521 3.52583 8.14196
1.92061 1.55114 4.10541
2.5822 9.02116 2.88691
6.9077 1.72284 7.41355
0.459255 9.27201 9.34032
2.48705 5.64373 5.99219
4.95846 2.4102 5.15756
7.71941 9.29999 6.92899
3.46856 2.78414 4.6126
1.08788 8.4329 3.22171
8.12935 0.548045 7.06655
1.62763 6.03249 1.034
3.71262 0.337156 5.49441
4.73528 0 6.16194
0.774646 6.67033 6.07962
7.21075 9.67203 1.82113
3.23931 7.27998 8.49573
2.01976 0.576961 1.59959
7.97315 1.56014 0.677858
0.178872 5.26176 0.220513
1.27015 3.17398 7.37832
8.19775 1.35883 9.41543
1.465 8.18539 8.47324
4.82598 0.208777 3.92001
7.04569 9.45808 7.17379
6.80455 5.1386 9.77207
8.50683 0 5.72532
6.28693 0.719631 7.0759
5.27015 0.278685 3.12456
1.57745 5.53012 0.197957
6.27191 8.46207 6.7764
1.79638 2.54555 2.84012
4.551 5.15358 10
2.85848 1.33693 1.18001
9.53101 3.82437 2.30678
9.57123 1.49984 1.78805
3.38311 0.377375 3.52746
4.64377 0.385129 3.70776
0.265796 5.6567 3.88639
6.18822 8.53008 1.14026
7.95179 0 2.01192
0.32786 7.82117 3.74249
8.08107 2.74161 2.54765
7.29105 0.793444 9.66271
3.30767 7.32097 8.78189
1.39725 1.29228 6.81197
7.27104 0.52363 3.04497
4.77375 0.218132 3.66551
4.67476 0.445639 3.41455
0.203028 6.83516 0.0914542
0.332557 4.54882 4.49782
3.36339 1.11888 4.79835
0.636134 5.43735 2.90189
4.47811 0.702855 3.65943
5.80093 7.35958 3.76296
4.58071 0.387919 9.25612
0.0215537 8.44878 5.32597
6.4362 8.61697 9.62007
1.23212 2.19372 1.60633
5.17517 2.87069 6.29925
5.45601 0.226061 3.86812
3.53266 3.72193 1.70061
7.80682 2.91154 5.14387
8.25787 5.10892 4.59949
4.41028 0.637267 3.3634
4.77525 0.512805 3.67479
3.8373 3.23205 3.55224
3.76718 2.9946 9.69774
2.4574 9.27357 1.63462
1.1805 0.33459 8.39558
5.24786 0.350783 4.3327
1.91059 0.729918 7.63764
2.10532 4.52058 2.98034
2.77325 8.68796 6.98158
8.34998 4.80129 7.18354
4.64139 0.241066 3.98342
0.471489 4.94799 7.63419
4.8621 0.460092 3.80416
7.98093 0.372023 0.648966
3.12049 1.27378 4.69867
9.00812 1.73093 0.573741
7.09031 1.46388 3.85553
9.42251 4.04795 0
6.29097 4.73786 6.37133
7.4095 9.40677 0.0783051
5.73879 9.10888 6.19348
7.02731 1.51181 0.257576
4.97422 0.328317 3.91859
1.017 2.81283 7.36967
0.294086 2.12412 2.13533
2.13403 2.25236 0.739936
9.81487 8.50412 4.32281
2.79489 4.97529 1.92463
4.49843 3.07311 7.08453
1.63477 0.521713 7.71585
2.07432 9.62051 7.00275
5.43557 6.12275 9.32595
0.298685 10 1.10705
1.43222 1.20153 3.70639
2.74849 8.24226 2.70703
8.51337 6.20136 3.22284
8.89804 1.14034 5.48425
4.20229 8.82374 4.51641
2.24887 1.00524 0.362419
2.32068 0.168486 8.42084
1.36449 4.39957 4.49234
4.11116 5.06469 2.3586
4.48475 0.39385 3.86254
3.316 8.9922 0.310394
5.09766 7.81822 3.80383
9.08113 3.0497 2.36725
5.00449 7.14061 6.85083
6.06114 0.299088 6.87097
4.40969 5.50226 9.7237
5.9816 8.4107 9.65314
7.4753 7.35944 5.47896
5.04266 0.271156 3.97983
5.44786 4.0012 2.31377
9.25093 0.725115 1.97969
1.32639 5.2324 9.69515
2.62781 5.47571 4.55279
7.98954 2.001 4.84068
7.30086 9.27595 8.4056
4.30272 0.587299 3.76437
7.60636 5.74361 0.45333
3.23252 4.63199 1.76701
8.57279 2.11847 9.77942
7.99642 8.93413 6.31899
0.269072 9.52703 9.0811
9.35679 5.30422 6.30661
3.84574 1.73321 2.35562
4.34439 1.99579 7.50238
1.93808 0.783352 7.71756
4.53945 0.352208 3.62664
4.51976 0.280641 3.78228
5.63414 0.0980094 3.88236
4.8671 0.463851 3.45195
9.33911 9.94634 3.45542
2.74495 2.50592 5.69293
4.67314 0.515579 3.72043
3.83242 4.24237 1.49749
4.56598 0.490662 3.22169
5.88222 9.10003 10
4.77782 0.0834982 3.89459
4.69422 0.436401 3.9447
3.82081 8.41421 2.27512
6.19884 7.32236 5.70469
8.66444 7.53843 2.7168
9.11468 4.48301 7.12985
7.48468 7.19312 0.200237
4.34756 0.318026 3.88182
7.67678 1.14303 8.98716
8.84529 7.19679 0.353633
7.94825 2.90404 0.880458
2.58179 5.11777 8.61581
1.43231 0.665778 5.84695
0.816753 2.56566 4.9682
1.70667 0.403886 8.18505
4.631 6.3719 8.41702
1.60418 0.51084 7.5954
4.72178 0.343724 4.02626
3.88683 0.258682 3.76805
9.71951 8.81245 8.05322
4.88047 0.369424 4.05978
6.25415 0.175527 0.800434
8.153 5.38927 4.08121
4.96786 0.31919 3.92308
1.21654 1.05188 9.91444
1.40494 2.92977 3.07662
3.37813 7.59613 2.46107
7.65577 7.41171 4.50667
9.21494 0.31476 2.41158
5.39947 9.36845 8.90596
1.87103 8.49658 6.74561
4.77569 0.408298 3.92275
3.9292 1.48484 7.30634
7.18335 2.0868 7.70811
7.06494 8.34364 4.2345
7.57134 9.40999 4.54324
1.80047 1.15664 8.23304
1.83808 0.639511 7.59652
4.46103 0.12461 3.50922
4.55249 0.531472 3.06364
9.72688 0.815134 0.433704
5.19734 0.365307 4.24068
4.78965 0.589282 4.46655
7.68544 0.473783 5.27686
5.22854 0.388994 3.87655
4.86073 0.468773 4.26836
3.0398 5.31419 10
9.24247 0 1.47868
2.24673 3.36265 5.29725
4.68833 0.641034 3.34459
9.45699 4.51553 8.52489
8.00665 7.0276 8.09252
4.33578 0.335088 4.04832
4.60887 0.409935 3.92982
9.21108 1.09253 2.1367
1.9409 0.512057 7.5719
1.98026 0.657251 7.60348
5.33217 0.45826 3.9311
4.79133 0.547752 3.29009
9.21224 0.425838 2.73553
2.18116 0.599656 7.71131
3.47887 6.51571 6.29448
1.8655 0.400404 7.84133
4.02732 8.58703 4.41999
9.33036 0.187507 2.55538
1.36472 9.73288 1.5335
1.09954 8.93446 8.7892
3.89318 0.449669 3.45812
4.09593 0.551552 3.46468
9.36817 0.433769 2.34521
1.82719 0.84125 7.87612
1.69538 0.463012 8.43332
1.07705 0.400038 6.55569
4.95829 0.39325 3.76158
5.31999 0.446017 3.90916
4.81224 0.42407 4.04031
3.25632 6.62948 9.70772
4.66207 0.708108 3.93863
4.65536 9.56118 4.53444
1.80273 0.76287 7.77254
4.81214 0.25495 3.72605
4.6202 0.126543 3.99946
1.28565 8.00798 9.75363
6.41824 1.42519 7.3595
5.06705 0.297368 3.64773
4.82232 0.55488 3.65379
2.13509 0.551134 7.50757
4.61424 0.715288 3.61944
8.97159 0.207965 1.54047
1.87454 0.279474 8.00286
5.05608 0.129101 3.70669
5.36294 4.63043 2.71167
7.47209 9.02391 2.85068
9.75559 0.642366 1.89812
POINT_DATA 400
SCALARS particleColor float 3
LOOKUP_TABLE default
1 0.50094 0
1 5.96046e-08 0
0.641645 1 0.358355
1 0.836962 0
0.600841 1 0.399159
1 0.302277 0
1 5.96046e-08 0
1 0.533638 0
1 0.347687 0
1 5.96046e-08 0
0.141915 1 0.858085
1 5.96046e-08 0
1 0.865189 0
1 0.997531 0
1 5.96046e-08 0
1 5.96046e-08 0
1 5.96046e-08 0
0 0.662293 1
1 0.0773694 0
1 5.96046e-08 0
0 0.563146 1
1 5.96046e-08 0
1 0.264693 0
0.435943 1 0.564057
0.398934 1 0.601066
1 5.96046e-08 0
1 0.815872 0
0.71017 1 0.28983
0.860391 1 0.139609
0.0527503 1 0.94725
1 0.0164449 0
0.223545 1 0.776455
1 0.149257 0
0 0.450637 1
0.399624 1 0.600376
0.153049 1 0.846951
1 0.773322 0
0 0.546538 1
1 5.96046e-08 0
0 0.979852 1
0 0.434554 1
0.623787 1 0.376213
1 5.96046e-08 0
1 5.96046e-08 0
0 0.714215 1
1 0.161961 0
0.0553848 1 0.944615
1 5.96046e-08 0
1 0.160003 0
1 0.774446 0
1 5.96046e-08 0
1 0.313385 0
1 0.466698 0
1 5.96046e-08 0
1 5.96046e-08 0
0 0.998599 1
1 0.283863 0
0.637253 1 0.362747
1 5.96046e-08 0
0.558835 1 0.441165
1 5.96046e-08 0
1 5.96046e-08 0
0.505429 1 0.494571
0 0.566493 1
1 0.907616 0
0.575117 1 0.424883
0.387636 1 0.612364
0.709864 1 0.290136
0.0392767 1 0.960723
0 0.88459 1
0.674256 1 0.325744
0 0.982064 1
1 0.0990767 0
0.377091 1 0.622909
1 5.96046e-08 0
0.336632 1 0.663368
0.33163 1 0.66837
1 5.96046e-08 0
1 0.489976 0
1 0.16485 0
1 0.549492 0
1 0.035181 0
0.563229 1 0.436771
1 5.96046e-08 0
1 5.96046e-08 0
0.679801 1 0.320199
0.390859 1 0.609141
0.180015 1 0.819986
0.701737 1 0.298263
1 5.96046e-08 0
0 0.423939 1
0 0.687483 1
1 5.96046e-08 0
1 5.96046e-08 0
1 0.953702 0
1 5.96046e-08 0
1 5.96046e-08 0
0.747256 1 0.252744
0 0.997651 1
1 5.96046e-08 0
1 5.96046e-08 0
1 0.0557452 0
1 5.96046e-08 0
0 0.95849 1
1 5.96046e-08 0
1 0.876665 0
1 5.96046e-08 0
0.594682 1 0.405318
1 0.548606 0
1 5.96046e-08 0
1 0.513657 0
1 0.256855 0
1 0.662202 0
1 5.96046e-08 0
0 0.753944 1
1 0.467434 0
1 5.96046e-08 0
1 0.645853 0
0.260474 1 0.739526
0.124982 1 0.875018
1 0.62274 0
1 5.96046e-08 0
1 0.471961 0
1 5.96046e-08 0
1 5.96046e-08 0
0 0.646239 1
0 0.982328 1
1 5.96046e-08 0
0 0.931415 1
1 5.96046e-08 0
1 0.00531036 0
1 5.96046e-08 0
1 5.96046e-08 0
1 0.556164 0
1 0.228491 0
1 0.281783 0
1 5.96046e-08 0
1 0.942742 0
0.841807 1 0.158193
0 0.720025 1
0 0.75025 1
1 0.224002 0
1 0.829331 0
1 0.471959 0
1 0.707721 0
0.741827 1 0.258173
0.999063 1 0.000937045
0.893338 1 0.106662
0.895325 1 0.104675
0.761387 1 0.238613
0 0.416006 1
1 5.96046e-08 0
1 0.345645 0
0.508496 1 0.491504
1 0.777992 0
1 5.96046e-08 0
1 0.697433 0
0.986162 1 0.0138381
1 5.96046e-08 0
0.122227 1 0.877773
1 5.96046e-08 0
0.529803 1 0.470197
1 5.96046e-08 0
1 5.96046e-08 0
1 5.96046e-08 0
0.462274 1 0.537726
1 5.96046e-08 0
0.47027 1 0.52973
1 5.96046e-08 0
1 0.174112 0
1 5.96046e-08 0
0.834067 1 0.165933
0.651952 1 0.348048
0.396148 1 0.603852
1 0.294885 0
1 5.96046e-08 0
1 5.96046e-08 0
1 5.96046e-08 0
1 5.96046e-08 0
1 0.848908 0
0.00243395 1 0.997566
1 0.4164 0
0.152147 1 0.847853
0.151924 1 0.848076
1 5.96046e-08 0
1 5.96046e-08 0
0 0.319793 1
0.0526466 1 0.947353
1 0.452266 0
1 0.992994 0
0.431701 1 0.568299
0 0.441614 1
1 0.925809 0
1 0.7943 0
0.078243 1 0.921757
1 0.343898 0
0.655415 1 0.344585
0.383122 1 0.616878
0.47407 1 0.52593
0 0.66026 1
0 0.504238 1
1 0.972414 0
0.606946 1 0.393054
1 5.96046e-08 0
0.669319 1 0.330681
1 5.96046e-08 0
1 0.803156 0
0.889504 1 0.110496
1 0.63187 0
1 0.737019 0
0 0.352184 1
0 0.354336 1
0 0.528396 1
0.748365 1 0.251635
1 5.96046e-08 0
1 5.96046e-08 0
0 0.499081 1
1 0.782893 0
1 0.0849789 0
1 5.96046e-08 0
0.357851 1 0.642149
1 5.96046e-08 0
1 5.96046e-08 0
0 0.548054 1
0.897654 1 0.102346
0.760199 1 0.239801
0.111312 1 0.888688
0 0.948611 1
0 0.623655 1
1 5.96046e-08 0
0.705772 1 0.294228
1 0.376526 0
0.710342 1 0.289658
0 0.654712 1
0 0.662581 1
1 5.96046e-08 0
1 5.96046e-08 0
1 5.96046e-08 0
0 0.266885 1
1 5.96046e-08 0
0 0.882958 1
0 0.896226 1
1 0.533557 0
0.581572 1 0.418428
0.280312 1 0.719688
0.988633 1 0.0113671
1 5.96046e-08 0
1 5.96046e-08 0
0.754812 1 0.245188
1 5.96046e-08 0
0 0.666578 1
0.98693 1 0.0130695
1 5.96046e-08 0
0.968519 1 0.031481
1 5.96046e-08 0
0.637993 1 0.362007
0.837251 1 0.162749
0 0.287674 1
1 0.423041 0
1 5.96046e-08 0
1 0.243224 0
1 0.763424 0
0.514125 1 0.485875
1 0.435659 0
1 5.96046e-08 0
1 5.96046e-08 0
1 0.995803 0
0.00803976 1 0.99196
1 5.96046e-08 0
1 0.864169 0
0 0.633197 1
0 0.778988 1
1 0.501817 0
0.519614 1 0.480386
0.902305 1 0.0976949
0.326408 1 0.673592
1 0.611568 0
1 5.96046e-08 0
1 5.96046e-08 0
0 0.630029 1
1 5.96046e-08 0
0 0.546715 1
1 0.357664 0
1 5.96046e-08 0
1 5.96046e-08 0
1 5.96046e-08 0
0 0.496926 1
0.539912 1 0.460088
1 0.950343 0
1 0.0920715 0
1 0.531353 0
1 0.989505 0
1 5.96046e-08 0
1 5.96046e-08 0
1 5.96046e-08 0
0 0.49397 1
0 0.954088 1
0 0.617556 1
0 0.810431 1
0 0.228916 1
1 5.96046e-08 0
1 5.96046e-08 0
0.296628 1 0.703372
1 0.404525 0
0 0.769017 1
1 0.0648506 0
0.0756939 1 0.924306
0 0.342378 1
1 0.628849 0
0.51335 1 0.48665
1 0.797555 0
1 5.96046e-08 0
0 0.758969 1
0.0380447 1 0.961955
1 0.598807 0
0.450134 1 0.549866
1 5.96046e-08 0
0.690388 1 0.309612
1 5.96046e-08 0
1 0.0630269 0
0 0.70423 1
1 5.96046e-08 0
0 0.655568 1
0 0.862463 1
0 0.854378 1
1 0.381603 0
0 0.405593 1
1 0.784787 0
1 0.217572 0
0 0.379212 1
0 0.728776 1
0.501492 1 0.498508
1 5.96046e-08 0
1 0.977036 0
0 0.490721 1
1 5.96046e-08 0
1 0.904476 0
0 0.637189 1
1 5.96046e-08 0
1 0.58829 0
0.0331928 1 0.966807
1 5.96046e-08 0
0.139884 1 0.860116
0 0.554008 1
0 0.635759 1
0 0.681637 1
0 0.906605 1
0 0.768779 1
0 0.762264 1
1 0.4119 0
0 0.71585 1
0 0.447227 1
0.730538 1 0.269462
1 5.96046e-08 0
0 0.812 1
0 0.386113 1
1 0.198655 0
0.477739 1 0.522261
0 0.259184 1
0 0.69024 1
0 0.688536 1
0 0.295728 1
0 0.563366 1
0.181063 1 0.818937
0 0.742811 1
0.135552 1 0.864448
0 0.545486 1
0 0.569215 1
0 0.347734 1
1 0.495156 0
0.168584 1 0.831416
0.607142 1 0.392858
1 5.96046e-08 0
0 0.241929 1
0 0.312598 1
0 0.478637 1
0 0.303898 1
0 0.885578 1
0 0.858861 1
0.311299 1 0.688701
0 0.308852 1
0 0.561272 1
0.105417 1 0.894583
0 0.556886 1
0.717059 1 0.282941
0 0.425353 1
0 0.566201 1
0 0.343991 1
0.237803 1 0.762197
0.590458 1 0.409542
0.190638 1 0.809362
0 0.965065 1
0.00306539 1 0.996935
0 0.818185 1
1 5.96046e-08 0
0 0.998687 1
0 0.675731 1
0.198121 1 0.801879
1 0.204495 0
0 0.593609 1
