# vtk DataFile Version 3.0
Particle simulation
ASCII
DATASET POLYDATA
POINTS 400 float
7.16668 7.6831 1.12
0.252214 3.76827 0.492044
7.55238 5.24452 7.32551
10 3.50927 1.13023
4.04026 5.67592 9.49268
0.84932 2.49945 0
8.43912 5.44132 10
4.04077 4.36638 6.89027
3.02631 3.24925 10
4.62751 1.0685 7.26342
6.24972 0.677155 7.07827
8.66546 5.47351 4.78665
8.86102 9.6525 6.79302
5.82304 7.91916 6.62998
6.63912 5.61571 7.55694
2.42078 4.91038 5.61215
0.16021 1.61544 8.08783
5.32894 0.741448 4.81223
8.52026 8.64355 1.73462
0.724311 8.69704 0.985654
1.8303 1.47656 7.0568
8.90096 7.69932 2.27169
7.15379 2.95297 0.710442
7.12192 8.78105 3.82729
7.93444 0.552569 4.03737
3.26116 2.05147 6.35704
3.79665 0.856144 4.93619
8.51423 9.27373 2.65714
5.72435 2.65488 9.82708
0.629899 0.448393 9.11145
0.00185257 0.219082 3.62157
9.09634 8.0944 3.54978
5.3466 6.24244 9.38322
1.34756 6.92081 6.17618
5.78999 5.06588 6.00698
1.53486 8.32603 0.0887755
8.05396 3.18425 9.53054
6.12888 2.77635 6.10316
7.91959 4.14289 8.5591
4.17443 9.58593 6.77934
5.1175 3.70411 7.38421
4.64119 0 7.48117
7.41009 0.214466 3.60881
4.5945 1.86662 6.90841
1.89491 7.15694 9.71146
9.73878 5.54944 0.706773
6.28228 1.85681 8.0695
0.94076 0.211928 7.77096
8.39516 8.14421 9.34114
5.00255 2.61578 2.40457
8.29625 5.4043 0.826172
5.22641 2.44218 4.66901
1.15067 1.37134 8.19975
0.95745 4.68078 9.59617
7.93638 6.91703 6.84728
6.0331 3.74296 1.15593
8.01652 8.59626 1.41005
0.479417 0.968991 2.46851
4.06295 8.55901 4.33634
3.40445 3.53151 1.34226
7.84567 0.687304 3.87869
1.24551 1.2741 3.93591
1.00642 8.54685 1.83255
8.3278 8.24464 7.8026
3.8311 2.67728 8.46927
0.92486 9.77563 3.26803
8.24231 5.83227 8.42835
8.64154 2.6952 1.0608
1.98261 9.71577 4.01762
9.25939 4.49671 6.75122
0.091935 0.66291 2.32233
2.25146 4.57186 2.27888
0.771037 1.62666 7.10918
5.9202 7.82143 1.80027
0.230084 4.17087 9.08928
9.26749 8.31326 5.08795
3.15859 9.27841 7.22742
5.65507 4.74715 5.91191
3.62894 4.18537 6.82106
8.59036 0 3.0947
4.1348 1.94432 1.77782
9.22689 2.17902 1.89132
7.29657 8.46941 9.02881
5.54442 8.90976 1.51063
3.73278 6.06079 3.5788
7.27367 1.66981 1.17231
8.47715 0.210955 8.81611
5.48651 2.25669 5.05415
2.37001 1.41465 7.55178
2.71097 1.40403 9.32922
2.99084 2.92587 9.17292
6.96157 5.43356 1.95637
6.60638 0.145264 7.98846
0.262365 9.64424 7.87345
6.96081 1.23833 3.98917
9.55905 2.20296 6.23832
5.1542 0 10
1.73836 1.19132 5.23242
7.44095 4.07439 5.62856
9.57702 9.92895 1.3406
4.25159 8.49583 7.07541
4.31696 8.92647 3.92459
4.30027 0.462368 2.06317
8.45936 4.61751 2.76228
7.71072 5.27469 7.22815
5.99958 3.51661 3.69596
2.47651 1.99252 4.71267
0.431049 1.03527 5.59659
7.03784 8.71418 4.56951
5.89078 1.13146 5.82959
5.4766 9.75439 9.47828
8.69724 1.20579 6.60237
2.58679 5.19568 8.41406
0.719248 7.79334 7.77916
2.24548 6.13258 7.76973
5.59695 2.16863 3.01529
7.12774 3.52279 10
8.48909 3.46681 1.13059
6.59942 0.417336 4.92713
4.99021 2.6916 8.18761
7.20775 6.1419 7.52731
8.25041 3.58311 4.01266
2.80001 1.17622 9.02331
1.04245 7.73763 8.79352
8.06359 6.20498 8.82225
0.654102 0.717761 3.14508
7.27009 2.53535 8.58587
3.60876 6.46066 3.9708
7.3097 0.929063 2.61393
0.163004 5.18965 1.02852
5.8105 9.28493 4.45354
8.43749 2.38605 7.7097
10 6.01223 0.775632
10 0 10
5.84643 3.52296 3.59329
5.43182 9.81919 9.27367
2.56907 7.26995 3.20665
7.06982 8.666 0.993451
5.15648 0.723227 5.99111
10 2.48499 2.08451
5.26893 0.38967 4.81889
8.70347 0.746676 0.113366
8.84857 3.89239 2.8881
4.25965 6.10475 8.64244
7.95941 6.57021 7.01964
3.07681 2.52531 4.93625
5.32736 7.8484 3.92921
7.50919 1.12083 7.91084
6.13158 0.95044 7.92448
1.83449 5.54108 1.53567
5.63189 0.263019 4.94305
8.76917 7.80718 8.05838
7.52582 6.92549 0.95098
7.65338 7.35557 4.20053
3.08079 2.44166 9.51205
5.43738 9.37032 6.98721
5.64453 9.59209 0.849892
7.02299 2.24149 7.37881
9.48726 3.41068 7.36384
8.52307 8.13256 4.0754
9.88617 8.83246 8.16349
1.84636 7.83142 0.661492
9.44351 0.276533 8.63311
5.33551 9.92923 7.51376
6.65206 4.56651 1.413
5.87674 0.25495 0.785895
7.35117 8.75409 0.227237
5.90042 5.30252 3.76538
6.14529 1.9084 3.25586
9.62465 9.04169 0.477679
0.306045 0.12332 6.33437
7.19323 0.224388 3.16321
1.51777 7.14453 3.18795
5.27162 0.190422 3.49868
4.23329 6.99173 0.836683
0.80595 8.22407 9.87532
0.305135 2.53062 8.09
7.84612 3.07021 8.96109
8.56651 2.57404 5.52769
4.15833 8.39786 2.34444
8.07884 1.18023 6.85306
5.37958 1.36648 6.81912
5.51617 8.9122 4.00997
0.949386 9.0935 1.1008
9.83335 3.47076 5.36501
8.55207 10 1.44686
5.59367 0.496447 4.96172
9.15527 3.10455 7.67124
8.2909 2.96377 1.27278
8.66267 0.0400617 2.96202
6.27873 8.9995 7.34792
3.77825 0.949077 9.72128
5.22461 6.92032 7.61518
5.36707 6.84765 3.94295
0 1.41297 8.59003
5.87483 9.80972 8.58585
1.77029 1.11482 3.96516
9.02572 4.45447 4.62612
8.98766 0.0345627 8.03896
4.04033 0.558966 9.45433
5.42669 0.400543 4.8896
7.9742 4.03261 1.65124
3.2809 4.60403 5.01454
7.92238 1.36175 7.52113
6.89859 2.23174 0.902535
7.89377 4.4618 4.37443
2.69851 4.73569 8.82734
1.7978 2.62276 0.242497
5.99714 8.40958 2.29339
8.72662 7.85981 8.94629
5.34303 0.49268 4.98677
1.09814 1.09173 3.1849
8.2706 5.91644 2.38251
2.08812 0.955107 3.53059
3.9029 2.24063 3.8638
4.52277 8.56682 1.62348
6.04614 0.533409 5.11964
4.21307 8.29245 10
7.32912 1.56245 8.14557
5.65536 3.58295 8.36131
8.18477 2.57639 4.63616
0.762829 5.47879 8.49089
5.35549 4.71255 4.46536
6.08053 0.450981 4.65107
4.5451 4.54614 0.60435
1.0052 8.2664 9.80997
0.907115 9.09944 1.20118
4.02025 1.61532 7.31489
5.24728 0.310727 4.88405
1.4989 4.56476 7.87505
5.78628 7.92458 7.55278
2.79257 6.85425 9.53963
5.74813 3.32433 6.56513
4.00737 1.75392 7.21811
0.190793 7.99119 3.97736
7.6216 3.59728 8.046
5.44684 2.22369 9.54532
4.71658 9.22623 7.45738
5.51 0.425804 4.8819
4.53761 3.92235 1.61851
5.87328 0.471135 4.76445
9.03628 1.59764 1.31561
0 5.08251 4.8784
2.01197 7.35342 0.309605
7.76292 7.58032 3.76351
3.39577 6.62549 10
7.32926 0.911149 5.88692
5.00852 3.64856 2.53915
0.298704 3.12553 2.02832
6.20806 0.930356 2.56973
6.22099 0.482221 4.74043
4.23679 0.108657 3.45437
5.15234 9.14346 4.3462
5.60575 5.05226 5.92075
0.385752 1.19452 2.21483
9.5446 3.53806 1.8469
5.28117 4.65752 1.37832
1.9147 0.750168 8.0575
3.15794 9.68182 5.47223
5.64704 1.96003 2.17259
7.03281 2.32267 1.05176
6.76355 7.94504 1.12713
7.48871 7.15828 5.74085
7.34135 4.4261 7.21188
5.82476 8.69647 7.08292
6.88685 0 1.40684
1.20148 4.07502 3.41215
9.66412 8.19109 3.20137
1.79487 8.61527 5.52936
1.67365 8.06897 6.40393
5.99588 0.260632 4.82228
7.6785 2.21196 0
9.13388 5.09765 1.30499
0.899212 7.53326 7.18443
2.7138 4.53594 10
6.05128 0.554519 2.2413
6.46769 7.36348 0.136325
5.20509 7.03547 7.50811
3.4813 3.53227 0.646425
5.51888 0.28835 4.65632
5.59411 8.26576 8.39287
4.62561 0.752723 5.85381
6.24738 8.85239 3.38103
1.8138 4.67442 8.63717
2.33613 7.46913 8.07539
0.0655231 3.58186 7.16055
6.67358 0.77565 4.93046
8.90312 8.50581 6.32786
8.89448 6.39475 8.70743
2.49461 0.424423 8.74812
10 0.62059 7.63078
5.69256 3.38016 6.65776
8.05869 0.489816 0.240261
1.18867 1.25609 2.6561
4.21484 0 10
1.62479 0.517171 8.70041
5.78513 0.185527 4.66452
5.70716 0.167653 4.79873
4.97509 0.452039 4.92115
5.98356 0.166197 4.95374
4.54401 7.40529 4.29153
6.9313 0.641323 1.90718
5.68701 0.0878105 4.90582
0.166576 0.0998335 7.12524
5.98333 0.239755 5.25788
1.16095 2.02348 6.08232
5.63549 0.145977 4.95737
5.5377 0.32225 4.97238
9.54878 8.32158 0.442151
2.46126 5.39857 10
0.299145 8.11625 7.46571
4.91412 7.03162 9.47073
0.128637 0 5.54368
6.41985 0.385893 4.78422
8.19802 4.69826 4.5572
5.65839 5.90885 8.47524
5.63937 2.06372 4.20885
9.41382 9.20523 0.274793
6.05598 2.94376 3.9429
8.29352 7.93056 3.69157
3.0029 1.87818 5.71907
9.82436 9.16119 0
1.82142 0.498715 8.88706
5.61796 0.286303 4.92959
6.19101 0.42373 4.40362
2.34876 6.52655 0.0423702
6.0908 0.117992 4.77054
5.67518 1.37879 8.17286
1.64187 1.49927 7.38519
5.38308 0.394747 5.1487
0.579797 7.38497 7.49609
2.09567 8.04535 1.35068
7.17596 2.41842 3.17129
6.57919 8.77299 9.35154
9.76052 1.21632 8.70052
1.2806 8.3451 6.27684
3.21757 5.96691 9.62011
5.67304 0.36026 4.95583
3.40898 9.17996 9.02078
2.85988 5.70295 4.45809
3.67233 0.460287 8.57751
4.55276 6.05456 4.41616
9.07472 10 1.21875
1.45201 0.476409 8.84296
5.29437 0.236056 5.26514
5.34314 0.417907 4.22501
9.92315 0.424168 6.06498
5.70878 0.081317 4.60925
5.04792 0.21143 4.90369
2.02899 5.39838 7.61474
5.26953 0.535765 5.35862
5.62364 0.498015 4.4467
5.54274 9.88095 5.01168
8.32084 8.41352 9.2851
3.40942 1.50688 9.61301
5.19699 0.328096 5.10799
1.42741 3.49942 2.86997
4.37771 9.08628 1.38994
5.54113 0.277077 5.25726
5.45026 0.334561 5.11976
9.01624 4.15081 2.81829
1.56143 0.41158 8.49462
1.61129 0.451502 8.68978
5.59456 0.21626 5.06495
5.86903 0.147735 5.21121
8.98253 1.70721 1.82698
1.71224 0.621785 8.41001
9.21265 6.46169 8.59975
1.26146 0.167763 8.62966
5.03082 2.30633 1.29577
9.70122 0.198845 6.20532
7.0653 0.136309 9.93099
5.83984 7.45586 1.4341
6.02207 0.567843 4.70815
5.16394 0.352363 4.95316
9.65854 0.113927 6.51779
1.68242 0.613147 8.33425
2.01253 0.913414 8.07887
5.59932 7.69402 9.4723
4.76958 0.133119 5.01102
5.41685 0.533875 4.8083
5.3972 0.226915 5.13755
9.09234 0.22716 3.91308
5.49683 0.399447 4.99706
1.75429 4.76929 8.17028
1.65577 0.54693 8.68496
5.71539 0.306794 4.73362
5.92079 0.163254 5.01416
2.76014 6.28964 8.39846
1.69193 2.03735 4.91434
5.42005 0 4.89222
5.37301 0.614938 5.16982
1.64793 0.54847 8.32826
5.21345 0.439735 4.89569
9.2781 7.81509 5.20752
1.80504 1.232 7.84585
5.5527 0.30262 4.80973
9.07947 0.170598 3.32639
0.0255442 1.04817 5.54543
1.57564 8.46577 1.3671
POINT_DATA 400
SCALARS particleColor float 3
LOOKUP_TABLE default
1 5.96046e-08 0
1 0.765468 0
0.685468 1 0.314532
0.906143 1 0.0938571
0.985444 1 0.0145556
1 5.96046e-08 0
1 5.96046e-08 0
1 0.512896 0
1 5.96046e-08 0
0.95756 1 0.0424398
0.664064 1 0.335936
1 0.553521 0
0.263446 1 0.736554
1 5.96046e-08 0
1 0.579022 0
1 0.161929 0
1 0.704851 0
0 0.790256 1
1 0.905149 0
0.575738 1 0.424262
0.717804 1 0.282196
1 5.96046e-08 0
1 5.96046e-08 0
0.721289 1 0.278711
0.933947 1 0.0660526
1 5.96046e-08 0
1 5.96046e-08 0
1 0.124007 0
0.999034 1 0.000965774
0.206672 1 0.793328
1 0.0133032 0
1 5.96046e-08 0
1 0.274735 0
0.902954 1 0.0970458
1 5.96046e-08 0
1 0.939784 0
0.551381 1 0.448619
1 0.633306 0
0 0.547078 1
1 0.603422 0
1 5.96046e-08 0
1 5.96046e-08 0
1 5.96046e-08 0
1 5.96046e-08 0
0 0.341547 1
1 5.96046e-08 0
1 5.96046e-08 0
1 0.23354 0
0.647551 1 0.352449
1 0.963718 0
1 5.96046e-08 0
1 5.96046e-08 0
1 0.645102 0
1 0.142498 0
1 5.96046e-08 0
0.0141128 1 0.985887
1 5.96046e-08 0
0.0869272 1 0.913073
1 5.96046e-08 0
0 0.988706 1
0.917188 1 0.082812
1 0.200766 0
1 5.96046e-08 0
0.468092 1 0.531908
1 5.96046e-08 0
1 0.310425 0
1 5.96046e-08 0
0.526095 1 0.473905
0 0.899962 1
1 0.11864 0
1 0.492383 0
1 5.96046e-08 0
0.985114 1 0.0148861
1 0.834858 0
0.77883 1 0.22117
1 0.923615 0
0.560254 1 0.439746
1 0.403408 0
0 0.228284 1
1 5.96046e-08 0
0.795759 1 0.204241
1 0.369713 0
1 0.947499 0
0.706101 1 0.293899
1 0.463227 0
1 0.290345 0
1 5.96046e-08 0
1 5.96046e-08 0
1 0.141273 0
1 0.504376 0
1 5.96046e-08 0
1 0.642345 0
0.840017 1 0.159983
1 0.549745 0
0.286706 1 0.713294
0 0.592103 1
1 5.96046e-08 0
1 5.96046e-08 0
0 0.688325 1
1 5.96046e-08 0
1 5.96046e-08 0
1 5.96046e-08 0
0.94892 1 0.0510803
0.617058 1 0.382942
1 5.96046e-08 0
1 0.761893 0
1 5.96046e-08 0
0.862797 1 0.137203
0.674954 1 0.325046
0.681092 1 0.318908
1 5.96046e-08 0
1 5.96046e-08 0
1 5.96046e-08 0
0 0.935666 1
0 0.757385 1
1 0.231337 0
1 5.96046e-08 0
0.376674 1 0.623326
0.834713 1 0.165287
1 5.96046e-08 0
0.925971 1 0.0740286
0.493307 1 0.506693
1 0.870902 0
1 5.96046e-08 0
1 0.861071 0
0.1296 1 0.8704
1 0.0295295 0
1 0.198104 0
1 5.96046e-08 0
1 0.604514 0
0.278517 1 0.721483
1 0.184954 0
0 0.677866 1
1 5.96046e-08 0
1 0.898153 0
0.786464 1 0.213536
1 5.96046e-08 0
1 0.816422 0
0 0.692701 1
0.832672 1 0.167328
0 0.41309 1
0.459172 1 0.540828
0 0.961026 1
1 0.318097 0
1 5.96046e-08 0
1 0.300023 0
0.790742 1 0.209258
0.427902 1 0.572098
0.109947 1 0.890053
0.587443 1 0.412557
0 0.453793 1
0.277927 1 0.722073
1 0.293028 0
1 5.96046e-08 0
1 0.683327 0
1 0.864923 0
0.318438 1 0.681562
1 0.329041 0
0.291571 1 0.708429
1 0.0103986 0
0.550158 1 0.449842
1 5.96046e-08 0
1 0.709564 0
0 0.838541 1
1 0.569777 0
0.747842 1 0.252158
1 5.96046e-08 0
0.814645 1 0.185355
1 5.96046e-08 0
0.0805191 1 0.919481
0.778742 1 0.221258
1 0.868598 0
1 5.96046e-08 0
1 0.402984 0
1 5.96046e-08 0
1 0.525448 0
1 0.585434 0
1 0.483853 0
1 5.96046e-08 0
1 5.96046e-08 0
0.97298 1 0.0270202
0.469158 1 0.530842
1 0.560827 0
1 0.753305 0
1 0.424119 0
1 0.302696 0
0 0.536576 1
1 0.036171 0
1 0.624778 0
1 0.828859 0
0.851594 1 0.148406
0.20554 1 0.79446
0.8429 1 0.1571
0.642289 1 0.357711
1 5.96046e-08 0
1 5.96046e-08 0
0.4391 1 0.5609
1 5.96046e-08 0
0.517421 1 0.482579
1 0.584302 0
0 0.306641 1
0.610233 1 0.389767
1 5.96046e-08 0
1 0.337382 0
1 5.96046e-08 0
1 0.514784 0
1 5.96046e-08 0
1 0.785977 0
0.38117 1 0.61883
1 5.96046e-08 0
0 0.836027 1
1 0.981612 0
1 5.96046e-08 0
0.0494851 1 0.950515
1 0.524125 0
1 0.184559 0
0 0.757309 1
0.809069 1 0.190931
1 0.593494 0
1 5.96046e-08 0
1 5.96046e-08 0
1 5.96046e-08 0
1 5.96046e-08 0
0 0.599638 1
1 5.96046e-08 0
0.380263 1 0.619737
0.0839568 1 0.916043
0 0.906535 1
0 0.303824 1
1 5.96046e-08 0
0.734998 1 0.265002
0.709672 1 0.290328
0.757069 1 0.242931
0 0.589264 1
0.720656 1 0.279344
0 0.975408 1
1 0.366723 0
1 0.502331 0
0 0.260876 1
1 5.96046e-08 0
0.0052453 1 0.994755
1 5.96046e-08 0
1 0.998767 0
1 0.6928 0
1 5.96046e-08 0
1 0.764652 0
1 0.750657 0
1 0.0453932 0
1 0.539539 0
1 0.401592 0
0 0.462249 1
0.726503 1 0.273497
1 0.255006 0
1 5.96046e-08 0
0.610528 1 0.389472
0.957162 1 0.0428382
0.0489613 1 0.951039
0 0.387443 1
0.72636 1 0.27364
0.621199 1 0.378801
1 5.96046e-08 0
1 5.96046e-08 0
1 5.96046e-08 0
1 5.96046e-08 0
1 5.96046e-08 0
0.230911 1 0.769089
1 0.409602 0
1 0.869992 0
1 0.912485 0
1 0.593495 0
0 0.607021 1
0.974934 1 0.0250661
0.864129 1 0.135871
1 0.0846224 0
0.426269 1 0.573731
0.94794 1 0.0520601
0.5504 1 0.4496
1 5.96046e-08 0
1 0.134944 0
0 0.843514 1
1 5.96046e-08 0
1 0.282574 0
0.333104 1 0.666896
1 0.805648 0
1 0.0662708 0
1 0.919061 0
0 0.614955 1
1 5.96046e-08 0
1 0.603054 0
0 0.949814 1
1 0.512595 0
1 0.279708 0
0.795286 1 0.204714
1 5.96046e-08 0
1 5.96046e-08 0
0 0.508462 1
0 0.582218 1
0 0.775151 1
0 0.785093 1
0 0.239207 1
1 5.96046e-08 0
1 0.325541 0
0 0.740511 1
0.267063 1 0.732937
0 0.606656 1
1 5.96046e-08 0
0 0.630561 1
0 0.318068 1
0.757181 1 0.242819
1 0.510918 0
0.962675 1 0.0373253
0.803845 1 0.196155
0.533016 1 0.466984
0.0768092 1 0.923191
0.261919 1 0.738081
1 0.938681 0
1 5.96046e-08 0
0.427627 1 0.572373
1 0.367022 0
1 5.96046e-08 0
1 0.578161 0
0.400888 1 0.599112
0 0.392876 1
0 0.194562 1
0 0.610894 1
0.187877 1 0.812123
0 0.835784 1
1 0.255726 0
0 0.743089 1
0 0.571049 1
0 0.738484 1
1 0.739778 0
0 0.571181 1
1 0.758593 0
0.816734 1 0.183266
1 5.96046e-08 0
0.487924 1 0.512076
0 0.356999 1
1 5.96046e-08 0
1 0.0141243 0
0.563897 1 0.436103
0.357825 1 0.642175
0.822781 1 0.177219
0 0.61622 1
0 0.697992 1
0 0.329062 1
0 0.507542 1
0 0.49755 1
0 0.829863 1
0.952946 1 0.0470544
0 0.697757 1
0 0.358109 1
0.533501 1 0.466499
1 0.523183 0
0.142165 1 0.857835
0 0.609498 1
1 0.749665 0
1 0.233623 0
0.0462637 1 0.953736
0 0.777725 1
0 0.875572 1
0 0.469044 1
0 0.189307 1
0.0432611 1 0.956739
0 0.668658 1
1 5.96046e-08 0
0 0.440426 1
1 0.95781 0
0.00833932 1 0.991661
1 5.96046e-08 0
0 0.805466 1
0.930394 1 0.0696061
0.655502 1 0.344498
0 0.729732 1
0.00136449 1 0.998636
0 0.944954 1
0 0.28365 1
0 0.344992 1
1 0.77817 0
0 0.716419 1
0 0.610336 1
0 0.364279 1
1 0.611037 0
0.133174 1 0.866826
1 0.462532 0
0 0.476436 1
0 0.75913 1
0 0.825711 1
1 0.393952 0
0 0.924613 1
0 0.361954 1
0 0.971964 1
0 0.898284 1
0 0.805016 1
1 0.874361 0
0 0.420148 1
0 0.801728 1
0.244746 1 0.755254
1 5.96046e-08 0
0.985421 1 0.0145788
