# vtk DataFile Version 3.0
Particle simulation
ASCII
DATASET POLYDATA
POINTS 400 float
1.50616 1.2579 2.71129
1.67315 2.78578 2.78795
0.0965056 2.06578 0.901396
1.72437 0.69225 1.22217
9.12668 0.225271 3.05256
3.99673 7.77316 4.699
9.2799 3.9018 0.227827
1.95681 4.79927 2.79326
5.77657 1.36847 2.4815
9.73001 0.542317 3.18391
1.78303 0.52757 1.08107
1.4502 1.34447 3.16203
1.06884 1.05535 2.07535
1.68163 0.838009 1.39926
9.17657 0 3.11753
6.2852 5.55412 9.28207
4.49886 3.2418 0.966447
1.79709 0.918743 0.771616
5.0655 3.48909 4.1746
9.71717 0.62937 3.17841
1.39905 0.844907 2.15437
8.11349 1.88647 8.46484
2.53228 2.2678 8.00715
9.49351 0.382334 3.01563
5.58128 3.95935 7.989
1.38894 0.908837 1.41397
9.57954 0.508459 6.72888
1.17676 1.47663 3.81979
4.08409 0.771156 3.99594
3.03503 0.32892 1.62654
7.35756 1.56041 2.06114
8.82216 0.963308 1.08854
4.75889 0.591455 8.90877
9.491 0.338975 3.01461
1.75474 2.20189 2.50771
1.52618 0.870657 1.22976
5.9447 0.25986 8.23084
2.17907 0.417502 2.01825
4.80781 0.199914 1.51972
1.49561 1.28507 3.4694
1.43108 0.823948 1.25283
6.75787 3.32647 2.92631
5.62448 2.81641 3.61592
9.78206 0.88282 2.60161
7.99841 0.381857 9.01054
5.20981 0.411535 1.98656
7.54187 0.425439 3.24749
1.76295 0.845475 0.716353
5.22297 0.426259 1.80608
8.03135 1.00857 0.116999
0.579242 1.85615 1.4124
6.70766 3.31372 2.87832
4.46114 0.340352 4.5462
9.92958 0.860331 2.81749
8.01778 0.332121 9.06853
5.17373 0.462701 2.01868
3.88504 0.445717 7.32348
2.04318 0.566723 0.936544
5.27415 0.47656 1.74607
4.01968 0.374391 9.54739
4.56478 0.766075 4.6246
4.64326 0.392799 4.33846
3.19503 0.368437 9.13238
9.55991 0.361803 3.04408
6.24735 0.49471 7.8265
7.12031 0.786673 9.77311
4.36091 0.7684 4.81776
0.529077 1.43865 1.306
5.26844 0.630056 1.80781
3.64013 0.464556 7.50988
4.75088 0.448518 4.09667
1.10274 1.66042 2.91898
6.16813 0.425881 7.11638
9.57758 0.336754 3.0426
8.22728 0.0559047 9.27682
3.57426 0.464572 9.58393
4.35644 0.684555 4.82942
4.51188 0.837515 7.68773
5.11989 0.514687 1.67874
4.14511 0.722726 7.54347
2.75371 0.409796 2.08839
1.50134 1.66572 2.86693
1.7677 1.16138 3.16145
2.14205 0.663496 2.59235
5.25324 0.731655 6.96447
4.00625 0.251719 6.8681
5.01881 1.13993 6.98075
2.0465 0.413593 2.85596
5.10612 0.204141 0.265012
8.74417 0.342466 1.40021
2.55541 0.256665 1.84187
2.3844 1.36522 3.18011
3.63351 0.944729 5.29611
2.16283 0.7121 2.59038
5.20211 0.719694 6.92486
4.01062 0.201116 6.83488
3.6227 0.461944 7.79396
2.09945 0.301075 0.623257
3.51114 1.26303 8.67566
8.76292 0.317277 1.44529
1.77918 0.506219 2.86091
3.08081 0.773855 5.37867
2.71528 0.383071 2.41242
7.32879 1.35472 2.05304
9.74871 0.225362 0.403629
2.20627 0.358196 0.696826
3.81694 0.334673 7.2862
4.76474 0.21957 1.61207
5.18962 0.39393 1.8605
8.19012 0.435225 0.571706
0.483801 1.83741 1.07067
9.58988 0.193603 3.09561
2.19022 0.430598 1.50752
9.02602 0 1.47837
1.90115 1.0899 0.562121
1.97603 0.538136 0.717796
3.81513 0.499293 7.61298
5.60147 0.752504 2.35068
5.24343 0.429261 1.69096
1.14355 0.879883 1.41183
1.95681 0.707932 2.3832
6.23006 1.75435 2.33752
3.72892 0.319177 9.6224
3.81916 0.976756 3.73989
0.404888 1.00894 9.24374
1.71024 1.04552 3.13279
2.25117 0.86141 0.664737
9.77196 0.547759 3.13365
3.55103 2.9213 8.5963
1.90303 1.69575 3.10113
1.92624 0.642696 2.38396
4.93172 0.0890068 1.57169
4.91474 0.490965 6.45087
4.10156 0.909466 4.12932
3.40374 0.183427 7.57478
1.75503 0.984081 3.01053
9.78077 0.176966 8.72224
9.72791 0.52693 3.11367
3.78815 0.800567 7.3499
4.92587 0.0747872 4.53784
2.90823 0.303493 2.17194
4.88699 0.119423 4.3883
1.97306 0.21806 0.747094
1.67907 1.08597 3.32347
2.54558 0.294177 1.50943
1.96513 0.855018 1.09136
7.72836 0.125508 9.54662
2.63782 0.287296 1.92739
3.03015 0.438983 2.50164
3.83482 0.275316 1.90338
2.91278 0.301053 2.1618
4.96213 0.029291 4.40493
2.02962 0.743825 1.98614
4.66004 0.442377 4.38585
1.79007 0.193051 0.844022
1.81325 0.826215 1.11575
7.73448 0.20122 9.39252
2.50096 0.440878 1.84721
4.61999 0.621032 4.72073
1.82656 0.545077 1.1799
2.05731 0.645854 1.57274
0.474428 1.76409 1.03686
5.18231 1.29633 7.08426
2.30103 0.983481 1.91098
0.571428 1.89293 1.39097
5.03162 0.121141 4.60448
3.65783 0.36534 7.39055
3.95052 0.384062 7.02151
6.83643 0.159957 8.90408
6.92357 1.33707 0.624999
2.22463 0.517359 2.10181
2.17423 0.250087 2.38971
5.34412 0.714836 6.72839
1.45605 1.01793 3.18854
2.71148 0.58725 1.66448
2.90967 0.46208 0.199327
4.01466 0.633669 7.5514
3.8898 0.57517 7.3361
4.01847 0.605993 7.48553
4.39756 0.431377 2.19349
2.18557 0.629539 2.46048
2.05035 1.1041 3.29533
6.43406 0.0930259 8.09477
1.51543 2.12836 2.24657
3.21119 0.125931 7.76772
3.14678 0.571547 2.60024
2.91348 0.534487 2.41923
3.72734 0.828473 5.48839
1.62046 0.745213 1.49496
2.35791 0.454789 1.88627
2.2017 0.59465 2.47222
2.86874 0.65609 2.6336
5.48343 0.705238 6.74674
1.94246 0.288836 0.996293
4.20934 0.74029 7.59306
2.07804 0.40491 1.52529
2.7413 0.517852 2.30409
3.23638 3.66674 4.20032
2.02473 0.8784 3.14172
1.88715 0.834312 3.00029
2.75717 0.573074 2.47184
5.09392 0.545266 2.10629
6.29422 0.728256 8.43582
4.83199 0.491253 4.50385
3.7521 0.380922 9.44881
3.6739 0.655432 7.83985
1.8608 0.864265 0.577984
2.03638 1.32701 3.11315
3.04374 0.527344 0.481406
8.83157 0.511034 1.33731
2.9453 0.249268 2.16975
5.41892 0.780788 1.83599
5.25751 0.4941 7.02743
4.50724 0.592738 4.79993
3.59445 0.436309 9.43466
3.66932 0.607597 7.83952
1.8755 0.834682 0.611623
1.22626 1.19363 1.38791
1.74174 0.546083 1.21087
8.65133 0.46837 1.51913
9.34693 2.36 3.48947
0.533689 1.11357 9.89978
5.28118 0.64694 6.84045
2.53558 0.424463 2.12925
4.26953 0.285384 7.46042
1.73589 2.25722 2.27099
9.7989 1.83922 2.74762
2.18858 0.571964 1.93535
2.21364 0.825609 2.20655
4.21221 0.584202 4.50094
9.59747 0.324228 2.9633
3.47636 0.85278 7.68579
7.71746 0.412772 9.21622
2.48698 0.406984 2.11283
5.48655 0.823408 6.76048
1.30136 1.7102 2.88052
6.90234 1.24263 9.82591
2.22141 2.04187 2.2711
3.22537 0.862645 0.271871
2.44721 0.341586 1.40243
2.19838 0.442923 1.95686
2.10251 0.661085 2.6465
1.6356 0.820049 0.727573
3.1152 0.411385 1.81293
3.48128 0.598071 7.29298
1.83955 0.473691 1.99079
1.70091 0.850532 2.03792
4.19148 0.195663 6.77996
5.16393 0.151544 1.63479
3.72686 0.509091 7.64778
2.43315 0.400642 2.34716
6.20295 1.34447 2.73397
3.69398 0.520351 7.21752
2.8811 0.547427 2.03151
8.1369 0.590784 8.75636
2.03323 0.640668 2.33524
8.67897 0.415611 1.62264
4.69701 0.647926 7.56635
5.16148 0.165349 1.65182
3.7252 0.486496 7.68993
1.60951 0.645044 2.39007
7.54046 2.59773 2.62732
4.87348 0.568243 4.67496
9.79329 0.730716 3.19028
3.83584 0.296235 9.42255
3.25394 0.265906 2.41528
9.64952 0.317828 0.490058
4.00601 0.671829 7.86058
7.69718 0.158827 8.94486
1.45891 1.22493 0.393248
1.69851 0.52763 2.21264
7.6055 2.57004 2.56779
1.55191 2.48244 2.07121
9.70789 0.398304 3.08656
3.42697 0.115676 7.45565
5.00463 0.871499 6.74593
9.88337 0.764611 2.85888
9.28465 3.89503 9.55583
7.88761 0.169578 9.07853
2.15379 0.733269 2.3677
8.16728 0.274407 0.715661
5.05097 0.0756676 2.10291
5.36195 0.340703 1.52729
9.59734 0.814478 3.24494
5.93058 0.650193 8.59911
6.3198 0.772587 8.45413
2.85044 0.00721939 1.38992
1.41933 0.495035 1.085
4.22633 0.56551 4.67598
6.59298 0.800854 8.05835
8.06002 0.266429 0.548569
5.0411 0.328412 2.05559
2.2593 0.284663 0.89119
9.56847 0.854922 3.26005
3.95521 1.25508 7.98229
3.80709 1.1153 8.21169
2.42924 0.722904 0.903582
1.71891 2.15501 2.42172
1.79997 0.452563 2.52631
2.46905 0.547059 1.48863
8.31032 0.521275 0.47126
4.7066 0.49805 4.73231
2.7277 0 2.29842
5.05114 0.454637 1.24563
2.75019 0.243465 1.88788
5.04215 0.592433 1.69167
1.97074 0.758744 0.652576
2.23067 0.765047 0.359011
2.15381 0.821276 2.13629
1.67467 0.613858 1.16672
9.77262 0.456498 2.95369
4.67547 0.598673 4.57484
7.86473 0.389239 9.13977
3.34216 0.405557 1.78586
2.8667 0.300344 1.85721
9.2909 0.407593 0
2.13514 0.525933 0.746062
4.79607 0.761086 4.09723
5.14086 0.533432 1.87402
1.71659 0.867255 0.743453
4.66834 0.151314 4.65165
1.66015 1.4639 3.06262
3.97826 0.773256 7.64016
2.66797 0.425097 1.48959
8.55557 0.555961 1.28989
8.81427 0.275972 1.20309
2.07143 0.263944 1.26298
5.07741 0.100286 2.23082
8.90643 0.18211 1.2031
2.90546 0.365109 1.90625
4.68188 0.0629302 4.70755
2.88189 0.21997 2.23988
3.64877 0.585299 7.42722
2.63954 0.405221 1.60601
8.56809 0.497006 1.30092
4.65933 0.714729 4.33307
2.1177 0.471389 0.970876
1.97914 0.6969 2.85792
8.85801 0.556829 1.19756
2.49322 0.957176 0.240677
3.95677 1.00393 4.0573
2.79923 0.569057 2.04872
5.22242 0.902996 6.66205
4.81422 0.466066 4.65495
2.87311 0.289247 2.17936
2.08889 0.569206 0.791008
4.83339 0.445059 2.13068
1.97387 0.831592 1.46128
2.18084 0.766937 0.843709
1.43838 0.837154 1.11619
2.2062 0.205581 1.68184
2.44379 0.490378 1.91973
5.2184 0.761572 6.46013
4.8288 0.463511 4.66834
2.45036 0.261278 2.12904
1.52578 0.42314 1.34981
5.11945 0.660718 2.03199
4.36244 1.07108 7.90498
2.01953 0.728134 0.717458
2.31507 0.433576 2.8112
4.96197 0.540275 2.08973
4.05995 0.738294 4.69363
4.59109 0.400974 6.656
2.00242 0.332142 0.993567
2.58173 0.275112 0.563785
7.80039 0.335405 9.2485
3.72494 0.114564 7.44234
3.66447 0.65467 7.82078
4.05353 0.468599 7.85151
2.66389 0.427737 2.00893
4.95495 0.551668 2.10517
4.17107 0.738917 4.68669
5.03803 0.943002 6.83837
2.12958 0.655555 0.738733
2.81211 0.805069 0.429818
7.99344 0.447407 8.93925
3.68656 0.148473 7.463
3.63848 0.892299 7.44521
4.24368 0.339319 7.36988
1.97306 1.09564 1.0535
2.13613 0.558635 0.930471
2.51748 0.458916 2.02849
4.05366 0.309106 7.28427
2.41176 0.476136 1.94067
9.49402 0.724473 2.99548
5.37055 1.20961 6.89583
2.54552 0.437831 2.09652
2.36648 0.70398 2.12388
9.63109 0.967005 2.61779
4.95958 0.366428 1.93066
2.15212 0.599943 0.882439
2.60533 0.441402 2.07672
4.07166 0.242955 7.29319
2.75127 0.152652 1.88375
9.47531 0.674456 2.95081
5.09594 0.681382 6.59875
2.58308 0.437644 2.11938
2.31769 0.582188 2.41501
8.95261 0.605663 1.03427
4.96465 0.405179 1.91814
POINT_DATA 400
SCALARS particleColor float 3
LOOKUP_TABLE default
0 0.726181 1
0 0.631528 1
0 0.369082 1
0 0.446051 1
0 0.702713 1
0.924911 1 0.0750889
0 0.265684 1
0 0.117718 1
0 0.931117 1
0 0.527231 1
0 0.192348 1
0.146301 1 0.853699
0 0.530743 1
0 0.740506 1
0 0.804111 1
0 0.527033 1
0 0.53853 1
0.0976794 1 0.902321
0.677065 1 0.322935
0 0.462137 1
0 0.490815 1
0.0555904 1 0.94441
0 0.365171 1
0 0.520128 1
0.0890041 1 0.910996
0 0.330907 1
0 0.747753 1
0 0.757153 1
0 0.589004 1
0 0.259708 1
0.323129 1 0.676871
0 0.461642 1
0.866602 1 0.133398
0 0.823378 1
0 0.495362 1
0 0.31719 1
0 0.536938 1
0 0.423476 1
0 0.584738 1
0 0.800247 1
0.0559322 1 0.944068
0 0.763032 1
0 0.649708 1
0 0.927426 1
0 0.580775 1
0 0.682761 1
0.0763457 1 0.923654
0 0.823847 1
0 0.23054 1
0.0970826 1 0.902917
0 0.397736 1
0 0.704108 1
0 0.600787 1
0 0.206588 1
0 0.545823 1
0 0.613643 1
0 0.568005 1
0 0.683029 1
0 0.413334 1
0 0.884445 1
0.0171982 1 0.982802
0.0504616 1 0.949538
0 0.99223 1
0 0.630302 1
0 0.535937 1
0 0.90169 1
0 0.623708 1
0 0.406977 1
0 0.330104 1
0 0.343679 1
0 0.872905 1
0 0.61989 1
0 0.880277 1
0 0.652431 1
0 0.788572 1
0 0.438926 1
0 0.607673 1
0 0.449581 1
0 0.352182 1
0 0.686631 1
0 0.328422 1
0 0.306054 1
0.137617 1 0.862383
0 0.324083 1
0 0.455383 1
0 0.441138 1
0 0.74895 1
0 0.969462 1
0.880626 1 0.119374
0 0.598665 1
0 0.312577 1
0 0.331937 1
0.254133 1 0.745867
0 0.393922 1
0 0.46832 1
0 0.369183 1
0 0.635698 1
0 0.923937 1
0 0.743902 1
0 0.68172 1
0 0.533291 1
0.949685 1 0.0503148
0 0.616805 1
0 0.519772 1
0.12336 1 0.87664
0 0.556838 1
0 0.926736 1
0 0.244804 1
0 0.216072 1
0 0.720726 1
0 0.420411 1
0 0.417091 1
0 0.417452 1
0 0.521675 1
0 0.348897 1
0 0.576897 1
0 0.481864 1
0 0.606529 1
0 0.189155 1
0 0.535943 1
0 0.61184 1
0.1434 1 0.8566
0 0.460842 1
0 0.570749 1
0 0.539584 1
0 0.644903 1
0 0.428253 1
0 0.747986 1
0 0.757388 1
0 0.707929 1
0 0.501002 1
0 0.521571 1
0 0.350122 1
0 0.443724 1
0 0.793563 1
0 0.645941 1
0.00306639 1 0.996934
0 0.789157 1
0 0.699383 1
0 0.730476 1
0 0.385142 1
0.0249054 1 0.975095
0.602616 1 0.397384
0 0.503917 1
0 0.382809 1
0 0.488021 1
0.214756 1 0.785244
0 0.869294 1
0 0.414037 1
0 0.6349 1
0 0.437933 1
0 0.791118 1
0 0.716514 1
0 0.825609 1
0 0.512781 1
0 0.812511 1
0 0.56144 1
0 0.674563 1
0 0.370864 1
0 0.608817 1
0 0.377601 1
0.0140481 1 0.985952
0 0.532465 1
0 0.67036 1
0 0.516341 1
0 0.916169 1
0 0.657276 1
0.000795812 1 0.999204
0 0.348067 1
0 0.636117 1
0.0121193 1 0.987881
0 0.885458 1
0 0.867106 1
0 0.812571 1
0 0.382034 1
0 0.697586 1
0 0.49653 1
0 0.52129 1
0 0.871965 1
0 0.501639 1
0 0.311926 1
0 0.444074 1
0 0.762181 1
0 0.655911 1
0 0.754308 1
0 0.403422 1
0 0.623999 1
0 0.291809 1
0 0.682513 1
0 0.496219 1
0 0.364543 1
0 0.498988 1
0 0.139492 1
0.145254 1 0.854746
0 0.645121 1
0 0.27992 1
0 0.667509 1
0 0.834204 1
0 0.659826 1
0 0.701427 1
0 0.838709 1
0 0.536392 1
0 0.791382 1
0 0.274717 1
0 0.810584 1
0 0.216029 1
0 0.561028 1
0 0.576116 1
0 0.677181 1
0 0.712189 1
0 0.613954 1
0 0.667005 1
0 0.740784 1
0.0827984 1 0.917202
0 0.901288 1
0 0.263332 1
0 0.583971 1
0 0.986322 1
0.142666 1 0.857334
0 0.384917 1
0 0.825701 1
0.0824302 1 0.91757
0 0.240575 1
0 0.560609 1
0 0.923457 1
0 0.742855 1
0 0.776656 1
0 0.478966 1
0 0.760604 1
0 0.892682 1
0 0.862437 1
0 0.930861 1
0 0.334125 1
0 0.419969 1
0 0.383945 1
0 0.999281 1
0.204067 1 0.795933
0 0.544015 1
0 0.945439 1
0 0.813775 1
0 0.743449 1
0 0.81675 1
0 0.846671 1
0 0.786742 1
0 0.924991 1
0 0.903347 1
0 0.835568 1
0 0.837196 1
0 0.373003 1
0 0.401749 1
0 0.858936 1
0 0.145635 1
0 0.499975 1
0 0.914803 1
0.318758 1 0.681242
0 0.442441 1
0 0.307948 1
0 0.464121 1
0 0.234155 1
0 0.280875 1
0 0.483861 1
0 0.601348 1
0 0.901638 1
0.155385 1 0.844615
0.224695 1 0.775305
0 0.831226 1
0 0.903639 1
0.20187 1 0.79813
0 0.678231 1
0 0.756772 1
0 0.40392 1
0.568923 1 0.431077
0 0.502484 1
0.346638 1 0.653362
0 0.763168 1
0.00420059 1 0.995799
0 0.905664 1
0.119188 1 0.880812
0 0.98817 1
0 0.425624 1
0 0.614398 1
0 0.0528953 1
0 0.747632 1
0 0.750001 1
0 0.762976 1
0 0.903112 1
0 0.880694 1
0 0.647317 1
0 0.27604 1
0 0.705006 1
0 0.8011 1
0 0.430081 1
0 0.499433 1
0 0.710885 1
0 0.737001 1
0 0.872629 1
0 0.28254 1
0 0.663071 1
0 0.514086 1
0 0.777307 1
0.19245 1 0.80755
0 0.601934 1
0 0.869744 1
0 0.755936 1
0.128115 1 0.871885
0.0586013 1 0.941399
0 0.877733 1
0 0.829456 1
0 0.958451 1
0.145491 1 0.854509
0.179377 1 0.820623
0 0.857418 1
0.300824 1 0.699176
0 0.752572 1
0 0.939761 1
0 0.667141 1
0 0.641202 1
0.0131975 1 0.986803
0 0.886329 1
0 0.774352 1
0 0.922643 1
0 0.234187 1
0 0.299798 1
0 0.716815 1
0 0.306709 1
0.193375 1 0.806625
0 0.598958 1
0 0.645647 1
0 0.482999 1
0 0.658846 1
0 0.847306 1
0 0.639396 1
0 0.541957 1
0 0.629716 1
0 0.469457 1
0 0.86065 1
0 0.483491 1
0 0.660899 1
0 0.566004 1
0 0.62427 1
0 0.545586 1
0 0.256215 1
0 0.578336 1
0 0.266544 1
0 0.686183 1
0 0.753173 1
0 0.317734 1
0 0.838285 1
0 0.681198 1
0 0.715672 1
0 0.539184 1
0 0.550848 1
0 0.668999 1
0 0.240231 1
0 0.502079 1
0 0.647616 1
0 0.900497 1
0 0.608366 1
0 0.474488 1
0.128685 1 0.871315
0 0.72503 1
0 0.784334 1
0 0.452015 1
0 0.537797 1
0 0.512496 1
0 0.564135 1
0 0.571837 1
0 0.710666 1
0 0.656784 1
0.386375 1 0.613625
0 0.759238 1
0 0.744834 1
0 0.651622 1
0 0.487062 1
0.085496 1 0.914504
0 0.699975 1
0 0.515678 1
0 0.805056 1
0 0.741526 1
0 0.825298 1
0 0.658148 1
0 0.343291 1
0 0.609602 1
0 0.0279888 1
0 0.800111 1
0 0.883838 1
0.256241 1 0.743759
0 0.614841 1
0 0.821165 1
0.0174766 1 0.982523
0 0.567914 1
0 0.453994 1
0 0.816638 1
0 0.412511 1
0 0.694585 1
0 0.698741 1
0.142314 1 0.857686
0 0.647147 1
0.167622 1 0.832378
0.0907416 1 0.909258
