# vtk DataFile Version 3.0
Particle simulation
ASCII
DATASET POLYDATA
POINTS 400 float
1.44696 0.893917 4.64683
2.49633 7.61416 3.33837
2.87403 3.0291 7.11428
9.94773 0.573862 8.23348
8.10902 0.45933 3.73374
1.1639 1.72358 4.84312
1.80282 4.83648 3.37942
1.89807 5.94191 3.6585
8.55887 2.01432 5.49354
5.32658 4.51207 5.97963
0.880392 5.83467 2.03696
9.41714 3.66796 4.5222
2.22699 6.85998 8.48437
1.95306 6.83549 3.91898
0.446949 2.16097 5.32342
7.11107 2.22286 6.19225
5.48715 6.56767 0.846884
5.56464 2.53025 5.89802
9.05053 7.44513 1.18426
1.9867 2.93732 6.5179
5.82449 3.56847 3.18597
4.00223 6.92015 2.14991
0 7.05908 5.19178
3.1177 8.28794 7.93621
0.504405 4.9005 4.85597
2.56139 6.66355 4.46507
5.44479 9.43002 3.58437
1.05306 9.52899 5.94573
2.64629 7.06734 6.40524
6.23977 5.58192 0.569825
7.38409 1.28256 4.87079
9.96309 1.11241 10
5.34726 1.67644 6.92129
8.46241 8.653 5.80988
6.57223 1.07698 8.99337
1.67927 3.48345 9.81027
9.6348 2.83448 2.04577
5.24695 0.499164 2.50205
5.15691 7.35163 7.97635
7.72885 1.5663 3.91383
5.87281 0.43493 5.2527
7.03036 8.93728 2.40831
0.973747 5.07379 7.4773
9.27521 2.80476 8.97453
3.70644 6.32908 8.70231
8.66353 5.36861 3.94092
8.80403 2.28678 1.3632
5.46296 2.31909 2.62603
7.77073 5.04037 4.03737
0.835666 0.824267 3.69847
3.26371 0 1.92262
7.52451 0.660558 6.13592
5.25806 3.22631 2.5498
7.86691 3.40726 2.78933
9.3146 1.87399 5.23347
3.3036 3.83296 1.6021
0 9.7099 6.9978
4.21363 2.53853 2.78137
7.72887 5.23826 6.77887
9.19676 2.62467 8.3517
3.25914 3.44077 0.545323
0.329199 1.67826 4.13768
6.15056 4.82264 3.52533
3.94639 7.25106 1.03203
2.65921 7.30292 7.57079
1.60518 7.25919 4.721
9.09219 3.55009 0
7.7716 9.82797 5.78862
8.59624 2.14836 5.22194
0.264226 5.37466 4.61843
1.7348 6.26029 5.03908
3.29318 5.07756 4.62785
1.10624 1.92706 0.547321
4.89152 1.42889 4.32028
4.03983 2.81409 3.89695
0.905101 5.16372 6.56812
1.20772 1.25641 3.30733
0.686547 1.70314 9.68989
6.78869 7.39654 2.92613
0.430679 3.31678 6.33857
5.46414 1.64851 8.6566
4.58903 8.60961 5.76261
6.83143 1.99509 6.64538
4.16719 1.826 4.9913
8.68673 6.63938 5.76272
7.89621 0.454792 8.32386
2.22244 4.60317 0.495136
3.13059 8.19784 5.18434
8.02767 0.752208 8.76581
1.48209 5.66435 4.38313
4.79253 0.625734 1.35345
1.58164 0.688342 9.46225
1.07476 7.99232 0.0231113
5.81764 2.37935 6.2909
8.66589 3.66311 9.3667
4.80199 0.0917632 6.17563
9.18033 4.2016 0.581091
5.50679 6.32738 1.1579
2.37523 3.60084 2.76775
7.0598 6.84853 5.17336
6.81802 4.38635 6.51243
4.44395 9.4707 8.0345
6.56348 2.01024 8.53005
0.33353 6.05742 1.57048
1.88018 3.23453 2.15329
8.34972 0.580757 1.47785
2.71587 2.90828 8.35534
4.32613 8.86482 2.17293
4.54727 6.19125 3.5821
7.02219 4.74523 8.14822
1.65122 2.7383 1.71264
6.4659 3.96119 6.83689
1.54478 4.2609 8.14949
9.69407 7.19024 4.38478
2.52327 5.66321 7.11316
6.47781 9.2059 0.356158
1.83267 9.86246 1.53025
5.22895 1.7082 0.137656
6.50365 6.63682 4.12731
9.47365 9.60521 1.00594
8.30231 7.66934 9.27418
1.85156 0.72605 6.99112
1.3424 0.231594 8.41141
9.54198 1.30001 3.0503
3.26229 1.51162 4.44284
7.30836 2.97938 3.57856
7.36188 1.669 4.02474
4.16776 2.75812 5.4361
2.04034 1.1194 1.88368
0.161252 9.33473 7.02754
6.80891 4.15679 9.48636
8.44285 4.62379 7.00915
9.59723 2.20532 6.92824
10 0.692603 7.14065
0.675031 7.53503 3.08331
5.56812 5.96375 4.64075
7.8814 4.14321 0.0968585
9.3828 3.66174 6.7624
1.97626 9.48531 5.73113
3.76856 8.55532 0.776245
6.05366 5.99575 7.52962
10 5.20436 4.01199
3.98143 3.94844 2.20172
0.474989 2.79885 1.36877
8.8339 7.01161 9.51548
0 1.93248 3.04227
8.84312 2.16695 5.08167
7.8051 9.64193 4.97728
4.53353 7.67309 7.80033
9.55047 3.1731 8.92457
7.5498 0.0598675 7.64006
9.51384 0.144843 5.55949
6.82092 2.22663 9.09786
4.67964 3.45419 4.23933
1.39964 4.39174 8.07088
8.93984 3.31441 1.73276
8.16448 7.89441 3.64536
5.11442 1.63765 6.06324
0 1.60516 2.53076
9.76485 7.92924 3.03893
6.40804 2.70612 1.59856
1.98607 1.12241 0.23541
8.458 3.40287 1.41635
0.245552 0.866804 8.34513
7.6326 4.89928 5.8014
3.17438 1.52212 6.14976
1.86505 0.608152 7.20236
10 1.76536 1.40655
0.803053 1.64909 9.08297
9.35715 3.32174 6.78423
1.57127 8.0697 3.53923
6.26719 5.41377 5.0195
1.08289 3.48686 1.02742
0.0902379 1.72474 0.999902
2.74673 8.42644 1.50569
6.69859 1.09275 4.62618
0.32855 8.9126 6.15793
9.11722 1.5063 2.56624
6.14005 9.78753 2.11981
3.90597 8.06235 0.295684
7.53832 8.13622 3.65832
4.78168 5.0557 10
3.50998 7.75028 5.79061
9.5662 7.4254 8.77265
9.52256 1.40816 3.80351
1.77915 4.34245 7.50174
8.48666 6.76627 9.71975
7.90335 7.49237 10
7.93341 4.25593 8.21762
1.97937 8.15104 4.73943
2.9362 1.46321 4.81652
4.11456 2.23294 0.348329
1.3959 0.902425 4.81055
2.91207 5.23839 5.75726
8.03523 0.937256 7.45861
2.29131 2.61962 9.94876
9.84659 5.37722 4.45935
2.83483 3.52288 1.59462
9.9623 9.69941 9.95879
2.13725 3.25439 0.478315
1.16909 5.60683 6.14208
8.28196 6.305 5.36727
5.43632 9.23491 2.69371
4.77133 0.661756 9.44452
5.71004 6.80242 10
6.61243 6.68469 9.56015
9.37841 9.32464 2.59789
5.93882 5.30579 2.1654
1.12304 9.49139 1.78383
2.92865 6.07109 3.30825
6.86016 7.97858 8.60031
4.73973 3.59867 3.34097
6.12499 3.46094 3.23236
4.25942 9.77772 4.53348
3.95905 3.239 2.07654
0.105006 4.02499 2.86293
2.6404 0.778092 2.04787
3.09416 8.95007 4.4726
9.05795 0.746455 7.61646
7.16095 8.02062 8.32887
0 9.63831 9.1957
1.23487 1.85274 2.50122
3.21876 1.11735 9.20689
7.92259 0.366077 7.30406
3.59839 4.29758 2.22509
1.787 1.68985 9.86074
3.13905 4.20394 3.21043
3.36314 8.09337 0
7.84897 0.217255 7.504
6.17692 9.28743 2.92242
9.57871 1.29226 8.09556
0.717141 8.40701 9.21924
10 2.27233 5.98101
5.03043 9.7233 3.32111
5.99413 9.82784 2.39172
3.41403 4.909 8.17531
8.46766 3.74945 3.14145
5.45234 4.55018 7.26428
7.68838 0.630653 7.45703
7.80064 8.32239 3.51872
7.76505 0.303239 7.64841
7.667 5.67209 5.44459
7.48133 6.65806 4.33117
8.93903 7.24604 6.92628
9.02717 6.35646 2.27783
9.12781 1.25896 4.01875
4.93926 1.53984 0.441287
8.279 3.40612 4.01164
2.79948 4.79613 9.48786
2.89219 5.12206 2.21216
9.32792 7.56492 8.64486
7.02361 6.3111 5.44263
6.33507 4.57337 9.5191
9.01134 2.51348 8.15273
6.97813 4.31639 9.05247
2.17624 8.23043 2.39563
7.48766 4.1196 1.09249
1.47688 1.5919 0.567553
8.55375 0.158024 4.87005
1.4749 5.48232 0.889842
0.202292 8.38489 3.26821
1.53219 3.95429 2.15175
5.2413 8.89089 2.4162
9.24009 7.60916 2.51064
5.22431 8.72352 7.17866
5.00044 1.78313 7.15752
2.04265 0 5.39034
9.91626 5.40692 9.31339
1.58086 7.30619 4.24908
9.56555 2.50929 6.34845
1.86118 4.40391 9.48366
6.77163 0.373544 10
7.76602 2.3953 9.3905
0.445207 4.6462 9.52758
1.38495 0.957897 9.29622
1.95251 6.06722 1.04678
9.09825 10 3.26105
2.47689 5.49689 6.87302
7.53282 8.83814 3.0374
9.90911 3.03486 9.0923
9.42035 0.839433 9.63964
7.29539 2.15185 9.12697
1.31427 5.6756 1.54712
9.29437 9.66808 7.06294
6.11412 9.11761 1.36917
4.14212 6.07032 1.96084
8.85257 3.63428 0.578045
8.33839 8.5218 5.38054
1.96564 2.54678 9.90847
6.17934 3.38474 1.9689
1.16295 7.49513 0.05671
2.08608 9.01771 2.98349
1.75769 7.38752 6.70292
8.79769 5.45706 9.79761
9.08915 7.61994 5.56286
0.944973 9.04207 2.1153
7.09311 0.719186 7.45382
9.06157 0.184524 3.71562
7.46541 0.390519 7.73923
4.85362 0.488667 6.324
1.14677 7.04927 6.89765
2.54058 3.4846 7.1773
8.33665 0.418855 7.76619
7.79347 7.36001 7.7518
7.71189 0.543796 7.46863
2.81245 2.97781 7.05536
10 0.152655 5.87025
7.44414 0.113196 7.68088
3.13762 5.57915 6.49945
4.90249 2.50327 5.98972
3.72977 8.2771 0.290076
1.92593 7.74144 3.12229
1.80876 5.69438 9.9172
7.44446 0.498257 7.58058
1.77195 9.22497 1.57488
2.34946 1.44916 0.940982
8.34102 2.08602 7.84181
7.99916 0.321648 8.06967
8.6035 9.33998 2.54333
0.835941 0.295603 7.12816
9.87528 2.74792 1.97379
0.194826 0.262123 2.86898
1.17495 0.995986 8.85134
7.47005 0.445542 7.22072
7.5408 0.514142 7.15188
5.25865 6.01619 4.68371
9.99839 1.16187 9.16552
9.26369 4.24449 2.39035
7.56971 8.49439 7.38521
7.55776 0.210491 7.40867
2.52987 2.01177 7.17321
4.51449 0.134501 6.96316
6.84908 3.68036 6.49355
4.94861 2.34203 8.86942
4.25459 5.08875 3.81138
3.66214 0.661385 7.0588
6.16782 9.07495 9.09725
7.78438 0.541739 7.07888
9.91445 2.95504 9.09256
9.30009 1.76509 3.88836
10 0.858282 8.24725
9.54635 4.70675 8.01099
1.16001 4.62748 9.98912
1.65756 0.39673 8.55024
8.64348 4.42318 8.68902
2.76302 0.444532 9.2271
5.69906 0.336539 3.06836
7.44999 5.08684 4.45317
7.56969 0.552495 7.5925
6.40837 7.47653 1.5542
7.61326 0.646233 7.69552
7.53664 0.0777016 7.36897
9.61604 2.86738 9.64341
5.17662 8.18914 4.01394
2.4492 0.929011 4.88114
7.90604 0.108067 7.54823
0.895844 6.10586 3.92878
7.90321 7.19686 3.32541
7.00781 0.920549 8.29203
7.57544 0.273555 7.53062
2.03857 0.0182332 5.53894
1.15091 0.145203 8.30038
1.74949 0.534375 8.91098
7.42563 0.173252 7.74125
9.57802 7.99185 5.65644
9.84268 1.42968 5.44911
1.5849 0.591609 8.56101
0.994713 9.50465 0.608411
6.87024 9.83963 0.246264
0.0913398 1.46017 8.59622
5.37431 0.0928167 2.8256
8.24831 9.67747 0.0435178
7.65336 5.46057 5.7936
7.96291 0.242081 7.40273
7.72149 0.31521 7.06403
9.47456 8.85722 0.508573
1.53336 0.610684 8.63507
9.23445 7.5555 3.52511
3.31474 1.743 5.07486
7.5778 0.177818 7.34505
7.75421 0.463355 8.72009
7.53382 0.382428 7.70214
9.74787 2.04052 6.0243
7.0977 0.080129 7.65378
2.22635 1.53602 2.72829
1.69923 0.660319 8.56156
7.80805 0.1635 7.72224
7.48737 0.370284 7.80554
8.73511 6.2139 7.86147
7.03263 0.548967 7.08407
7.62018 0.123942 7.73093
7.53472 0.194535 7.6157
5.7836 2.54291 2.71932
7.66298 0.39553 7.80776
0.23434 8.81037 1.64292
3.23759 4.08261 4.45529
7.69459 0.0806455 7.72853
0.107708 0.974351 0
1.87774 7.84809 9.24934
5.07471 5.75282 9.63109
POINT_DATA 400
SCALARS particleColor float 3
LOOKUP_TABLE default
1 0.528031 0
1 5.96046e-08 0
0.734926 1 0.265074
0.990783 1 0.00921667
1 0.712902 0
0.852472 1 0.147528
0.639096 1 0.360904
1 0.191212 0
1 5.96046e-08 0
1 0.190451 0
1 0.962645 0
0.553709 1 0.446291
1 5.96046e-08 0
1 5.96046e-08 0
1 5.96046e-08 0
1 5.96046e-08 0
1 5.96046e-08 0
0.832403 1 0.167597
0 0.929938 1
1 0.361551 0
1 0.530105 0
1 5.96046e-08 0
1 5.96046e-08 0
1 5.96046e-08 0
1 5.96046e-08 0
1 5.96046e-08 0
0.733686 1 0.266314
0.691586 1 0.308414
1 0.883943 0
0.18086 1 0.81914
1 5.96046e-08 0
1 5.96046e-08 0
1 0.150951 0
1 0.796461 0
1 0.275964 0
1 0.413519 0
1 0.540144 0
0.840502 1 0.159498
1 5.96046e-08 0
1 0.640348 0
1 5.96046e-08 0
1 0.939861 0
0.684151 1 0.315849
0.799524 1 0.200476
1 0.794743 0
0.760919 1 0.239081
1 0.649935 0
1 0.821085 0
1 0.346253 0
0 0.421839 1
1 0.784024 0
0.37376 1 0.62624
1 5.96046e-08 0
1 0.772559 0
1 5.96046e-08 0
0.51665 1 0.48335
1 0.231061 0
0.419344 1 0.580656
1 5.96046e-08 0
1 5.96046e-08 0
1 0.592733 0
1 5.96046e-08 0
1 5.96046e-08 0
1 0.158569 0
0.288329 1 0.711671
1 0.15056 0
1 0.129372 0
1 0.237378 0
1 0.0944859 0
1 5.96046e-08 0
1 5.96046e-08 0
1 0.865271 0
0 0.788261 1
1 5.96046e-08 0
1 5.96046e-08 0
0.959822 1 0.0401779
0.817423 1 0.182577
1 5.96046e-08 0
1 0.122973 0
1 5.96046e-08 0
1 5.96046e-08 0
1 0.991379 0
0.802503 1 0.197497
1 5.96046e-08 0
1 5.96046e-08 0
1 0.915054 0
1 0.466009 0
0.639525 1 0.360475
0.489961 1 0.510039
1 5.96046e-08 0
0.792219 1 0.207781
1 5.96046e-08 0
0 0.586598 1
1 5.96046e-08 0
1 5.96046e-08 0
0.612994 1 0.387006
0.0812496 1 0.91875
1 5.96046e-08 0
1 0.896689 0
1 0.951453 0
1 0.406516 0
1 0.404175 0
1 5.96046e-08 0
1 0.923118 0
1 0.890856 0
0.633432 1 0.366568
0.698311 1 0.301689
1 0.855877 0
1 5.96046e-08 0
0.890557 1 0.109443
1 5.96046e-08 0
1 0.327931 0
1 0.449359 0
1 0.427078 0
1 5.96046e-08 0
0.320905 1 0.679096
1 5.96046e-08 0
1 0.664374 0
1 0.229802 0
0.969624 1 0.0303761
1 5.96046e-08 0
1 5.96046e-08 0
0.801313 1 0.198687
1 5.96046e-08 0
1 5.96046e-08 0
1 0.772923 0
1 0.832829 0
1 0.184382 0
1 5.96046e-08 0
0.279709 1 0.720291
1 0.313595 0
0.348046 1 0.651954
1 0.950555 0
1 0.636496 0
1 5.96046e-08 0
1 0.818074 0
0 0.883436 1
1 0.907812 0
1 5.96046e-08 0
1 0.2847 0
1 0.775161 0
1 5.96046e-08 0
1 0.37028 0
1 0.346599 0
1 5.96046e-08 0
1 0.473534 0
1 0.128756 0
1 5.96046e-08 0
1 0.582915 0
1 0.806336 0
0 0.430651 1
1 0.218537 0
1 0.419819 0
1 0.975985 0
1 5.96046e-08 0
0.728763 1 0.271237
1 5.96046e-08 0
1 5.96046e-08 0
1 5.96046e-08 0
0.78963 1 0.21037
1 5.96046e-08 0
0.740814 1 0.259186
1 5.96046e-08 0
1 0.841836 0
1 5.96046e-08 0
1 0.197951 0
1 0.468619 0
1 5.96046e-08 0
1 0.99394 0
0.4867 1 0.5133
0 0.474314 1
1 0.957171 0
1 0.665687 0
1 0.924015 0
1 5.96046e-08 0
0.399211 1 0.600789
1 0.672521 0
0.466957 1 0.533043
1 5.96046e-08 0
0.924572 1 0.0754281
0.442408 1 0.557592
1 5.96046e-08 0
1 0.441054 0
1 0.998475 0
1 0.287095 0
1 0.895163 0
1 5.96046e-08 0
0.243765 1 0.756235
1 0.35994 0
1 0.606992 0
1 0.494147 0
1 5.96046e-08 0
1 0.648268 0
1 5.96046e-08 0
0.526339 1 0.473661
0 0.619964 1
1 5.96046e-08 0
1 5.96046e-08 0
0.852949 1 0.147051
1 5.96046e-08 0
0.744182 1 0.255818
0.786863 1 0.213137
1 5.96046e-08 0
1 5.96046e-08 0
1 5.96046e-08 0
0.836132 1 0.163868
1 5.96046e-08 0
1 0.462283 0
0.993573 1 0.00642699
0.884014 1 0.115986
1 0.724208 0
1 5.96046e-08 0
1 0.403326 0
1 5.96046e-08 0
0.346469 1 0.653531
0 0.757931 1
1 0.681016 0
1 0.406575 0
0.147701 1 0.852299
1 0.843143 0
1 5.96046e-08 0
1 5.96046e-08 0
0.816384 1 0.183616
0.213068 1 0.786932
1 5.96046e-08 0
1 5.96046e-08 0
1 0.664934 0
0.650097 1 0.349903
0 0.378544 1
0.467007 1 0.532993
0.150559 1 0.849441
1 5.96046e-08 0
1 5.96046e-08 0
1 0.226285 0
0.807145 1 0.192855
1 0.856229 0
0.73477 1 0.26523
1 5.96046e-08 0
0 0.763118 1
1 5.96046e-08 0
0.027499 1 0.972501
1 0.369149 0
1 0.266947 0
1 5.96046e-08 0
1 5.96046e-08 0
1 0.225979 0
1 0.265031 0
1 5.96046e-08 0
0.145785 1 0.854215
1 5.96046e-08 0
1 0.247099 0
0.936877 1 0.0631231
1 0.760949 0
0.740106 1 0.259894
1 0.942516 0
1 0.957562 0
0.624483 1 0.375517
0.158145 1 0.841855
1 0.947691 0
1 5.96046e-08 0
1 5.96046e-08 0
1 0.329411 0
1 0.780214 0
1 5.96046e-08 0
0.510682 1 0.489318
0.54918 1 0.45082
1 5.96046e-08 0
1 0.157478 0
0.116363 1 0.883637
1 0.381573 0
1 5.96046e-08 0
1 5.96046e-08 0
0.633876 1 0.366124
1 0.220198 0
0.761575 1 0.238425
1 5.96046e-08 0
1 5.96046e-08 0
1 5.96046e-08 0
1 5.96046e-08 0
1 5.96046e-08 0
0.616673 1 0.383327
1 5.96046e-08 0
1 5.96046e-08 0
1 0.988475 0
1 0.954934 0
1 0.293193 0
1 0.149559 0
0 0.787303 1
1 0.0665955 0
1 5.96046e-08 0
1 0.927609 0
1 0.741867 0
0 0.458112 1
1 0.632767 0
1 5.96046e-08 0
1 0.505315 0
0 0.425564 1
1 5.96046e-08 0
0 0.348386 1
0 0.992775 1
1 5.96046e-08 0
1 5.96046e-08 0
0 0.441363 1
1 0.377495 0
0 0.501758 1
1 5.96046e-08 0
0 0.939302 1
0 0.568198 1
1 5.96046e-08 0
1 5.96046e-08 0
0.910723 1 0.0892771
0.0282009 1 0.971799
1 5.96046e-08 0
0 0.629763 1
1 5.96046e-08 0
1 0.666138 0
1 0.86549 0
0 0.735371 1
1 5.96046e-08 0
1 0.705037 0
1 0.68587 0
1 0.608534 0
0 0.802913 1
0 0.905115 1
0 0.433937 1
0.548958 1 0.451042
0.874747 1 0.125253
1 0.971616 0
1 5.96046e-08 0
0 0.608322 1
0 0.861719 1
0.453877 1 0.546123
1 5.96046e-08 0
1 5.96046e-08 0
1 0.433908 0
1 0.622144 0
1 5.96046e-08 0
0 0.548834 1
1 5.96046e-08 0
1 5.96046e-08 0
1 5.96046e-08 0
1 5.96046e-08 0
1 0.383946 0
0 0.331436 1
0.571221 1 0.428779
0.22493 1 0.775069
0 0.455409 1
1 5.96046e-08 0
0 0.804505 1
0.959945 1 0.0400549
0 0.95291 1
0 0.800325 1
1 0.283177 0
1 5.96046e-08 0
0 0.59188 1
0 0.659545 1
1 0.542173 0
1 0.0944973 0
0 0.816947 1
0 0.478112 1
1 0.00774956 0
0 0.435581 1
0 0.773489 1
0 0.352917 1
1 5.96046e-08 0
0.737705 1 0.262295
0 0.430092 1
1 5.96046e-08 0
1 0.694755 0
0.730088 1 0.269912
0 0.483949 1
1 5.96046e-08 0
1 0.0218357 0
0 0.63563 1
0 0.479022 1
0.317946 1 0.682054
0 0.626033 1
1 5.96046e-08 0
1 0.748593 0
0 0.709223 1
0.475006 1 0.524994
0 0.510862 1
1 0.453687 0
0 0.688241 1
1 0.240829 0
0 0.623082 1
0 0.980658 1
0 0.221735 1
1 5.96046e-08 0
0.10786 1 0.89214
0 0.374876 1
0.0737592 1 0.926241
1 5.96046e-08 0
0 0.197746 1
0.140384 1 0.859616
0.232916 1 0.767084
0 0.420281 1
1 0.856672 0
0.71499 1 0.28501
1 5.96046e-08 0
