# vtk DataFile Version 3.0
Particle simulation
ASCII
DATASET POLYDATA
POINTS 400 float
0.788256 0 3.37493
0.881689 9.46301 1.84771
1.9512 1.13041 8.15907
9.46017 0.432502 6.32715
9.53836 1.32146 4.75032
1.52527 1.20176 3.11753
1.54133 3.25561 3.40051
4.06544 6.81201 2.50013
8.60225 0.51447 4.58875
7.17781 3.44626 7.96173
0.478266 7.25534 0.987052
9.61365 4.92211 4.99574
1.93696 3.65922 8.44666
1.08319 2.27653 0.526088
0.233387 0.331413 2.25261
8.22683 4.60889 4.45918
5.51451 5.61001 3.05105
5.26501 1.48106 4.43824
9.66435 7.40474 0.546837
3.55811 1.00225 5.63477
7.29801 5.38222 3.05092
0.965718 7.75241 0.914766
8.52084 1.22138 6.72734
0.380478 9.7685 8.20604
0 7.05188 3.68691
4.84324 7.66895 2.65957
6.70638 9.92349 2.30744
2.61559 9.30868 3.87354
0.790391 6.84758 6.8737
6.49749 5.52898 0.842104
8.46032 0.698968 0.718861
0.435847 8.74828 7.5155
7.04163 1.52494 6.33767
9.02919 9.64182 4.5022
8.8073 0.148421 7.62808
3.62186 1.90471 9.43225
8.12814 1.41873 2.64425
6.33572 0.441465 3.69688
2.67764 4.03331 5.05036
5.69089 1.63503 4.50686
3.75562 2.41106 3.29616
7.4021 9.76235 3.94858
0.335102 3.88815 8.47779
10 1.8338 7.75492
3.35811 8.21533 7.73286
8.30281 7.06021 4.0765
6.64471 1.6398 0.321957
6.4615 3.73103 2.02367
6.22436 4.41458 5.32025
0.712507 0 3.88348
2.43735 2.49947 1.0179
8.80744 0.211351 6.82173
8.1313 6.24929 3.33407
8.23841 1.39998 2.80354
8.15616 3.41813 2.84327
2.92197 2.93912 0.446261
2.64091 8.28844 6.32892
3.26809 3.08739 1.84803
5.28893 4.37348 4.4588
4.01087 8.86602 5.55476
3.63689 2.05541 1.91133
2.06839 5.29472 2.81332
0 9.53302 2.33871
5.77241 8.53458 2.77443
4.06086 6.94089 8.46491
3.84173 4.85952 5.77496
7.44026 2.47753 2.9682
9.7589 8.14937 4.9039
7.4428 1.8003 6.77276
1.13158 2.97278 3.27336
4.64435 7.75943 6.3998
3.80304 5.71228 6.42078
1.62243 1.74218 0.515718
8.80679 4.0616 9.23172
7.19334 7.62377 10
2.59889 5.37516 5.12658
0.630245 0.996612 1.39547
4.81419 1.17625 6.64756
8.27679 6.93874 0.551542
1.56669 7.85054 6.35282
2.72607 0.718977 9.92937
3.53265 10 6.1595
8.66095 2.17171 6.12026
2.92533 0.955583 7.2168
2.26416 0.970371 8.5668
7.24414 0.22635 10
0.551046 6.25428 0.496104
1.68097 7.43416 4.94403
8.81183 0.0369912 9.06816
0.68469 8.36875 1.46921
3.79906 0 0.097403
1.35318 0.197198 6.42627
1.23831 8.34449 0.590506
5.68767 0.599989 8.70803
9.68391 5.4082 6.40525
5.2175 0.596213 7.76148
9.10529 4.66959 0
3.96817 7.04041 0.761639
1.20291 5.11931 1.79074
7.80541 7.28099 2.85703
4.29821 3.5733 7.12489
4.98918 9.47699 5.50494
4.66893 5.36236 5.84886
2.07304 6.6464 2.69179
1.94218 2.20864 0.281769
6.93368 0.347951 1.97116
2.09936 1.47569 7.78635
3.62279 9.57422 4.10831
8.71246 7.51343 8.44798
8.32057 5.31389 9.74248
0.762804 0.76744 1.98646
5.8138 5.9499 8.1467
2.59538 6.15832 8.55526
7.54014 8.27281 3.52309
0.763006 4.01505 9.54268
7.25719 9.53139 0.362988
4.90901 9.04462 2.071
5.37172 1.24262 2.35098
6.80107 8.51161 2.12985
8.43291 9.90125 1.89182
7.94235 8.63137 8.45608
3.31261 3.88399 3.6358
1.78472 1.53271 7.65884
8.26942 1.65953 0.863422
4.69021 3.28502 2.40555
9.13541 2.56599 1.73676
8.49952 1.63389 2.7724
6.14458 3.81457 7.43635
1.0932 2.13391 0.652344
0.854538 9.87323 5.9494
5.38607 2.74561 8.828
7.99504 5.57526 7.84113
8.45306 3.81815 6.3881
6.60156 1.45771 7.89171
0.412409 7.35919 8.56201
6.94372 5.26655 5.56537
8.76603 4.32531 0.148439
8.43025 2.06308 6.43285
1.00136 9.84385 3.73883
6.16779 8.12131 0.378906
5.38026 8.11226 7.54463
7.95641 2.21506 6.61087
5.52993 2.91896 4.17739
2.15635 1.76167 0.582405
6.35037 4.76591 6.98921
2.97172 3.7945 1.90191
7.22426 3.95681 3.80712
9.15695 7.39003 9.21712
5.58353 5.37574 8.33405
9.53264 1.41671 9.81132
7.74702 0.246322 7.67432
9.8529 2.50454 5.15526
8.33044 2.36719 7.16848
4.30816 1.38617 4.10789
0 5.9524 8.60699
8.27716 2.42651 0.457673
5.32141 7.82945 5.17159
0.298386 4.59472 7.99038
2.5854 4.92921 2.8452
9.87753 9.20366 3.97092
4.84187 5.50484 0.399641
1.59746 1.02706 1.64686
5.53098 8.28923 8.96076
0.19903 2.93527 8.28769
6.74863 4.90087 2.72664
5.16637 2.91651 7.11716
1.17683 1.55322 5.59955
7.93519 0 0.588323
1.23185 1.92034 8.99032
9.64579 3.04782 7.85869
1.50272 7.22861 4.05179
5.08585 4.19213 4.42624
0.171385 0.941379 0.880289
0.217477 0.885183 2.46965
0.621722 5.23126 1.24546
7.04081 0.423647 5.79814
0.823517 9.29601 6.91125
8.46036 1.49546 2.68606
8.91532 6.60004 0.608769
4.1958 8.86156 1.94202
6.86301 7.87641 5.10729
0.653506 10 4.79111
2.36999 5.27989 4.96483
9.82776 6.47749 9.75724
8.24048 2.91355 5.75354
1.43523 6.09038 8.51831
6.69359 4.83657 9.16698
8.4873 7.66712 8.31081
6.88811 5.93572 10
4.42371 8.65802 5.45487
3.45125 2.19597 7.13782
6.90555 3.56512 2.49846
0.273356 0.945685 3.94412
4.54823 2.64282 7.79163
7.20329 0.255372 8.60124
2.51328 2.3064 9.65359
9.7159 2.89062 2.37389
3.18778 6.24084 2.49897
9.49731 7.64289 9.5513
0.840188 6.2283 1.31444
2.30339 4.84134 5.64417
6.6053 5.87468 4.17816
3.59155 8.08435 0.386984
1.75997 4.49827 9.27868
10 8.66888 5.25323
7.39151 7.07444 9.52888
8.64058 9.63269 0.5611
5.01852 7.52161 2.39552
0 9.36607 0.255167
1.99922 5.1781 4.20931
7.95152 6.95177 6.72499
2.92269 2.03811 0
7.9252 2.49051 2.35594
4.50845 7.17987 6.90575
5.09358 3.9688 2.11719
0.843807 3.27584 3.81073
4.35324 0.14557 0.677091
3.08198 9.92159 2.15645
9.8897 0.841522 6.68792
5.29307 7.68096 8.89627
9.82468 0 3.84336
0.55974 1.67246 4.71296
3.68302 1.21466 9.89275
8.69446 0.314152 6.51017
8.48661 0 3.15658
0.903075 5.23747 9.49364
2.33737 5.85643 4.5337
2.68898 9.52967 0.286579
7.37621 0.365667 7.67582
6.21104 9.56403 1.6124
9.11319 2.09654 7.85334
5.53628 5.05836 4.17883
8.51314 3.41522 3.07218
3.90263 9.02533 5.58841
6.04988 9.28769 1.20659
4.86341 3.50166 9.07937
9.49302 5.06875 2.12446
1.9064 2.68752 7.49786
7.95306 0.0941655 7.62136
6.44146 5.45689 2.64459
7.59572 0.930576 7.38009
6.42728 6.75682 3.83469
9.24775 8.21912 5.32956
8.93776 6.36588 9.74618
4.46748 8.23367 8.02497
6.88302 2.04721 3.0265
5.89286 1.50254 2.09191
9.74094 1.14655 5.59003
3.01849 5.26178 9.30211
4.44137 7.87613 1.71431
9.41766 8.76864 9.54653
6.55029 7.77563 6.38435
4.68734 4.94468 8.64413
9.40554 2.84306 8.2437
5.18078 2.65124 9.09428
1.51133 7.86791 4.30446
7.6368 5.69078 0.870843
1.92426 0.965018 1.17447
7.22007 1.16297 3.76511
0 8.61837 3.87667
1.34923 8.14065 6.15551
3.0292 4.10607 4.37845
6.98356 10 1.56434
10 9.2358 8.05107
6.52445 9.18866 6.61641
6.63474 1.23305 7.84085
4.9853 6.22998 1.28939
7.82595 4.24164 7.60885
1.48037 7.63556 3.70909
9.80783 3.79226 8.26815
5.19453 1.66014 7.36579
6.7304 3.34501 6.50309
8.73032 1.93271 9.23041
2.38454 3.10039 9.29146
1.10568 0.621287 9.67514
1.18862 4.04298 3.03043
7.58942 6.56197 1.13663
4.2862 3.62812 8.67413
6.60138 5.81164 7.81282
8.18196 8.16386 7.88665
9.34876 1.99123 9.75478
5.54528 0.741075 8.00202
1.40847 7.93796 1.43961
9.75411 7.29658 8.69588
7.85509 9.7316 0.266721
4.0343 4.73394 0.272413
9.71622 5.96406 0.0932522
9.1798 9.56246 5.20807
0.350384 4.31472 9.42976
3.48368 7.30171 5.28288
3.19109 7.16787 0.0273277
4.28673 9.91621 3.84764
1.85021 7.16827 6.97667
9.80646 3.57824 9.0413
9.06165 9.2473 2.2979
2.88643 9.0187 3.45396
7.04992 0.698462 7.12242
5.91936 0.438714 0.85205
7.60855 0.396718 7.47611
5.34004 0.889491 6.49364
3.45935 8.52752 7.97008
0.342085 1.92548 5.21066
7.68403 0.461554 7.5744
5.09767 7.79953 7.94634
7.8672 0.311158 7.50519
5.31904 0 5.21979
9.08303 0.447631 5.93213
7.79421 0.241091 7.50348
0.409522 8.02683 5.24612
2.35137 4.11447 8.51628
3.91207 8.31996 1.92235
1.87873 8.68249 3.26856
2.47089 7.51697 5.96459
7.84689 0.094585 7.46499
5.49247 1.28576 4.50085
1.42971 0 0.341112
9.70126 1.0053 8.12268
8.3912 0.426543 7.68342
9.09943 9.85083 2.84817
0 0.968397 9.06489
7.81896 1.53668 2.78461
0.66566 0.841024 4.99714
1.73197 0.351298 8.68309
7.61418 0.117413 8.05163
7.80439 0.58829 7.35165
4.06583 5.95106 4.21696
9.70011 0.543582 7.56471
9.16939 3.10258 2.34631
4.98003 7.29786 9.70631
7.62169 0.146263 7.78096
2.43995 2.37938 7.92116
5.63586 0.654682 6.60836
5.17217 6.32436 8.37929
10 8.07774 8.64054
4.7999 6.95879 5.27296
1.29791 0.156559 6.96724
10 8.86312 7.02244
7.42825 0.489629 7.25824
7.6972 5.47262 7.95878
9.56807 4.3122 4.53633
2.32911 9.14537 2.32856
7.08601 7.70541 5.66642
0.186475 5.85181 8.18884
1.43016 0.401988 8.58726
8.24056 3.04272 8.85225
4.15168 1.75249 9.88609
5.6081 0.376015 2.66198
8.01381 2.73216 5.58053
7.48921 0 7.38138
6.33715 8.05893 0.298784
7.82759 0.491144 6.98274
7.93057 0.504115 7.59052
8.9516 5.08931 9.41868
3.62482 5.4838 2.49805
2.12008 0.517724 5.29618
7.31102 0.180031 7.49018
0.324153 4.83501 5.73061
9.2359 4.67666 4.51829
7.43628 0.508839 7.59236
7.58786 0.427922 7.68816
4.00284 1.90198 3.69611
1.17534 0.0288982 8.33264
1.32962 0.273801 8.24609
7.71683 0.357519 7.40413
8.04704 4.02861 9.08057
9.48099 0 5.868
1.5358 0.204483 8.5059
2.74251 6.17364 5.75375
4.94965 9.92469 0.0701979
1.61169 0.745347 8.69772
5.9289 0.470214 2.81702
4.87435 7.55892 3.84043
5.31096 3.91178 6.44196
7.30923 0.100328 7.80959
7.78888 0.61892 7.16708
10 10 0.305366
1.52968 0.271778 8.45947
9.21381 4.66201 6.84494
5.19639 1.8736 6.58257
7.46848 0.311818 7.94821
7.10194 0.966739 7.69448
7.59304 0.169395 7.40003
8.6833 0.279936 4.18919
7.96636 0.200681 7.69951
1.09847 3.74106 1.70582
1.45032 0.0968772 8.55434
7.26649 0.373348 7.71913
7.61317 0.219897 7.39647
8.71526 8.27878 8.4272
6.82187 0.965828 7.83947
7.58482 0.442784 7.45149
7.32404 0.7642 7.60276
5.01112 0.552654 1.01817
7.57811 0.30771 7.49969
0.30303 9.62756 2.51152
2.89597 4.54546 3.02219
7.6225 0.212425 7.61373
0.553834 1.36496 1.83555
0.747136 7.30357 9.54416
2.10767 7.64619 8.87681
POINT_DATA 400
SCALARS particleColor float 3
LOOKUP_TABLE default
1 5.96046e-08 0
0.826983 1 0.173017
1 0.467539 0
1 0.883476 0
1 0.100839 0
0.863836 1 0.136164
0.770085 1 0.229915
1 0.53977 0
0.915292 1 0.084708
1 0.0468744 0
1 0.0828838 0
0.913039 1 0.0869607
1 5.96046e-08 0
1 5.96046e-08 0
1 5.96046e-08 0
1 5.96046e-08 0
1 0.50216 0
0.825236 1 0.174764
0 0.836308 1
1 0.212617 0
0 0.532277 1
1 5.96046e-08 0
1 5.96046e-08 0
1 0.289067 0
1 0.637053 0
1 0.418973 0
1 0.438717 0
1 5.96046e-08 0
0.405521 1 0.594479
0.937606 1 0.0623941
1 5.96046e-08 0
1 5.96046e-08 0
0.706418 1 0.293582
0 0.932129 1
1 5.96046e-08 0
1 0.231373 0
1 0.759315 0
0.988378 1 0.011622
1 5.96046e-08 0
1 0.705269 0
1 5.96046e-08 0
1 0.360567 0
0.709392 1 0.290608
0.679871 1 0.320129
1 0.420312 0
0.680016 1 0.319984
1 0.201646 0
0.699503 1 0.300497
0.818158 1 0.181842
0.598423 1 0.401577
1 5.96046e-08 0
0.772312 1 0.227688
1 5.96046e-08 0
1 0.979049 0
1 5.96046e-08 0
0.537809 1 0.462191
1 0.096087 0
0.80703 1 0.19297
1 5.96046e-08 0
1 5.96046e-08 0
1 5.96046e-08 0
1 5.96046e-08 0
1 0.835368 0
1 0.174235 0
1 0.761908 0
1 5.96046e-08 0
1 5.96046e-08 0
1 0.761734 0
0.973992 1 0.0260077
1 0.965663 0
1 5.96046e-08 0
0.435061 1 0.564939
0.06365 1 0.93635
1 5.96046e-08 0
1 5.96046e-08 0
1 0.519403 0
1 0.746763 0
1 5.96046e-08 0
1 0.815859 0
1 5.96046e-08 0
1 5.96046e-08 0
0.712665 1 0.287335
1 0.983783 0
1 0.436547 0
1 5.96046e-08 0
0.741918 1 0.258082
1 0.302335 0
0.681192 1 0.318808
0.774014 1 0.225986
1 5.96046e-08 0
0 0.968036 1
1 0.447992 0
0 0.845867 1
1 0.348345 0
1 0.252446 0
1 0.900376 0
0 0.503588 1
1 5.96046e-08 0
1 0.427756 0
1 0.370445 0
1 0.243685 0
1 0.40422 0
1 5.96046e-08 0
1 0.86851 0
1 0.717211 0
1 0.897427 0
0.855486 1 0.144514
1 0.788636 0
1 5.96046e-08 0
1 0.732039 0
1 5.96046e-08 0
1 0.111241 0
1 0.873489 0
1 0.43893 0
1 5.96046e-08 0
1 0.698943 0
1 5.96046e-08 0
1 0.840979 0
1 0.253339 0
1 0.441544 0
1 5.96046e-08 0
1 5.96046e-08 0
1 0.616037 0
1 5.96046e-08 0
1 5.96046e-08 0
1 0.282106 0
0.424677 1 0.575323
1 5.96046e-08 0
1 0.23367 0
0.281392 1 0.718608
0.863363 1 0.136637
0.614591 1 0.385409
0.900523 1 0.0994771
1 5.96046e-08 0
1 5.96046e-08 0
0.764431 1 0.235569
0.477362 1 0.522638
0.807357 1 0.192643
0.949226 1 0.0507739
1 5.96046e-08 0
1 0.76149 0
1 5.96046e-08 0
1 0.250237 0
0.94918 1 0.05082
1 5.96046e-08 0
1 5.96046e-08 0
1 0.337451 0
1 5.96046e-08 0
1 0.679038 0
1 0.485063 0
0 0.597585 1
1 0.893858 0
1 0.425307 0
1 0.588712 0
1 5.96046e-08 0
0.891253 1 0.108747
1 5.96046e-08 0
1 5.96046e-08 0
1 5.96046e-08 0
0.409676 1 0.590324
1 5.96046e-08 0
0.593546 1 0.406454
1 5.96046e-08 0
1 0.96261 0
1 5.96046e-08 0
1 0.528332 0
1 5.96046e-08 0
1 5.96046e-08 0
1 0.0948281 0
1 0.00325555 0
0 0.915122 1
0.189708 1 0.810292
1 5.96046e-08 0
0.08741 1 0.91259
1 0.0806955 0
0.416412 1 0.583588
1 0.385324 0
1 5.96046e-08 0
1 5.96046e-08 0
0.911251 1 0.0887486
1 0.940886 0
1 5.96046e-08 0
1 5.96046e-08 0
1 0.619395 0
1 0.0791431 0
1 0.91613 0
1 0.266527 0
1 0.800437 0
1 0.466965 0
1 0.377571 0
1 0.649681 0
1 5.96046e-08 0
1 5.96046e-08 0
1 5.96046e-08 0
0.563578 1 0.436422
0 0.624544 1
1 5.96046e-08 0
1 5.96046e-08 0
1 5.96046e-08 0
1 5.96046e-08 0
0.829946 1 0.170054
1 0.553438 0
1 5.96046e-08 0
1 5.96046e-08 0
1 5.96046e-08 0
0.280601 1 0.719399
1 0.0247402 0
1 0.257426 0
1 0.354358 0
0.471868 1 0.528132
1 0.539286 0
1 5.96046e-08 0
0.873065 1 0.126935
1 5.96046e-08 0
0 0.98195 1
1 0.543721 0
1 0.458178 0
1 0.0776802 0
0.61022 1 0.38978
1 0.623755 0
1 5.96046e-08 0
1 5.96046e-08 0
0.945348 1 0.0546522
0.186262 1 0.813738
1 5.96046e-08 0
1 5.96046e-08 0
1 0.749511 0
0.610635 1 0.389365
0 0.302646 1
1 5.96046e-08 0
0 0.39956 1
1 5.96046e-08 0
1 5.96046e-08 0
1 5.96046e-08 0
0 0.442733 1
1 0.974311 0
1 0.985788 0
1 5.96046e-08 0
0 0.464369 1
1 5.96046e-08 0
0 0.437993 1
0.952495 1 0.0475053
1 0.0173621 0
0.931812 1 0.0681877
1 5.96046e-08 0
1 0.701218 0
1 0.74242 0
1 5.96046e-08 0
0.974611 1 0.0253887
1 5.96046e-08 0
0.430573 1 0.569427
0.619939 1 0.380061
1 0.0628239 0
1 0.94445 0
1 0.311771 0
0.880351 1 0.119649
0.589317 1 0.410683
0.0937739 1 0.906226
1 0.738721 0
1 5.96046e-08 0
1 5.96046e-08 0
1 0.548633 0
0.871309 1 0.128691
1 5.96046e-08 0
0.499617 1 0.500383
1 0.777647 0
1 5.96046e-08 0
1 5.96046e-08 0
0 0.809617 1
0.503762 1 0.496238
1 5.96046e-08 0
1 5.96046e-08 0
1 0.702303 0
1 0.266395 0
1 0.950389 0
1 0.184795 0
1 5.96046e-08 0
1 5.96046e-08 0
1 5.96046e-08 0
1 5.96046e-08 0
0.981313 1 0.0186868
1 0.492037 0
1 0.859833 0
1 5.96046e-08 0
1 0.110856 0
1 5.96046e-08 0
1 0.140169 0
0.942363 1 0.0576372
1 0.900698 0
1 5.96046e-08 0
1 0.918991 0
1 0.648287 0
0.746645 1 0.253355
1 0.819105 0
1 5.96046e-08 0
1 0.725823 0
0 0.132447 1
1 5.96046e-08 0
0 0.585881 1
0.0793788 1 0.920621
1 0.554856 0
1 5.96046e-08 0
0.115141 1 0.884859
1 0.180456 0
0 0.608256 1
1 5.96046e-08 0
0 0.725954 1
0 0.706504 1
1 5.96046e-08 0
1 5.96046e-08 0
0.963882 1 0.0361179
0 0.858184 1
1 5.96046e-08 0
0 0.257776 1
1 5.96046e-08 0
1 0.349908 0
1 5.96046e-08 0
0 0.683644 1
1 5.96046e-08 0
1 0.420424 0
1 0.441377 0
1 0.32729 0
0 0.90004 1
0 0.487105 1
0 0.62534 1
0.498068 1 0.501932
0.199047 1 0.800953
1 0.677835 0
1 5.96046e-08 0
0 0.711099 1
0.0894714 1 0.910529
0.197201 1 0.802799
1 5.96046e-08 0
1 5.96046e-08 0
1 0.848128 0
1 0.31268 0
1 5.96046e-08 0
0 0.760555 1
1 0.589876 0
1 5.96046e-08 0
1 5.96046e-08 0
1 5.96046e-08 0
1 0.855064 0
0 0.676738 1
0.318761 1 0.681239
1 0.568383 0
0 0.470019 1
1 0.251422 0
0 0.479088 1
1 5.96046e-08 0
0 0.540806 1
0 0.645181 1
1 5.96046e-08 0
1 5.96046e-08 0
0 0.757125 1
0 0.659708 1
1 0.71661 0
1 5.96046e-08 0
0.268248 1 0.731752
0 0.319349 1
1 5.96046e-08 0
0 0.55707 1
0 0.428282 1
0 0.333794 1
1 5.96046e-08 0
0.747311 1 0.252689
0 0.357783 1
1 5.96046e-08 0
0.869355 1 0.130645
1 0.663652 0
0 0.501824 1
1 5.96046e-08 0
1 0.175251 0
0 0.612948 1
0 0.765247 1
0.275522 1 0.724478
0 0.399429 1
1 5.96046e-08 0
1 0.310005 0
0 0.374544 1
0.486704 1 0.513296
0 0.323442 1
1 0.442974 0
0 0.986342 1
1 0.415497 0
0 0.382365 1
0 0.862147 1
0 0.526829 1
1 5.96046e-08 0
0 0.931065 1
0 0.195104 1
0 0.274944 1
1 0.396058 0
0 0.651375 1
0 0.92626 1
0.985235 1 0.0147648
0 0.791301 1
0.697748 1 0.302252
1 0.629748 0
1 5.96046e-08 0
