# vtk DataFile Version 3.0
Particle simulation
ASCII
DATASET POLYDATA
POINTS 400 float
3.38614 4.16539 6.69594
0.713385 6.23247 3.85781
7.88091 2.12646 9.61697
9.38512 6.27764 4.0582
9.62167 4.14898 5.39971
9.64031 7.27408 5.65027
3.81524 7.56698 6.69575
7.45404 7.8821 8.80621
0.236798 8.08492 8.68358
3.1378 7.73246 1.18672
4.40557 1.82226 4.94498
3.77542 2.49742 7.56516
2.51358 0.559545 8.91378
6.78509 9.50018 3.91864
3.60789 8.44143 9.49466
7.9615 8.02635 9.89049
9.23571 8.6011 9.09224
3.33924 0.490618 1.67625
3.51183 4.00227 1.11652
7.85364 6.74464 8.78712
3.34004 0.515214 1.78973
8.19484 0.17041 7.50122
9.16078 0.674998 1.45023
3.9636 4.01909 0.790018
7.54126 1.63206 3.07247
8.60756 6.9419 3.14016
8.98834 6.04674 8.41805
0.1996 4.17563 8.3942
1.88637 7.33688 0.432941
5.53417 3.23553 2.78997
0.510163 2.64974 4.11211
6.20773 6.65961 0.497964
3.41596 2.73695 7.44263
7.42552 9.77866 1.10664
5.41021 8.75074 1.84507
7.48905 2.05516 3.87719
5.20424 9.29401 2.91845
3.62898 0.282706 2.26057
6.36906 3.47111 2.71934
3.55046 6.39717 4.88111
6.61416 8.90655 4.13267
3.74418 6.39388 5.49353
0.681372 3.65294 6.89824
0.885395 4.00715 0.44138
6.67379 0.585477 2.1362
7.45235 8.33646 2.32714
3.9891 3.01697 4.92108
3.6468 8.24428 3.07259
8.23305 2.5194 0.580633
7.61746 0.284449 6.07555
8.96114 8.69237 0.582462
6.53152 8.01898 6.94822
6.38266 3.26393 6.19912
5.78899 4.02346 7.30167
9.23544 5.16767 1.90446
3.66368 1.39679 7.84433
0.472501 3.02917 0.832264
6.35622 2.50511 3.06939
1.29128 1.34329 6.52954
3.85044 9.11158 5.93987
1.67117 4.80822 7.82326
6.24411 0 8.68595
8.58047 1.06719 3.83273
7.90767 8.0689 0.96116
4.74876 5.65677 8.83732
8.45453 0.61351 6.77043
7.90576 0.2045 2.87632
8.53356 5.10721 4.14446
3.26017 4.4445 2.74379
9.09678 2.78398 6.96982
4.25543 1.43778 2.76657
5.76679 8.56647 6.20747
6.10728 3.192 7.52404
6.71936 1.65438 6.90983
8.11314 7.6196 6.055
9.61444 0.764258 0
1.84381 2.0283 0.93159
4.39073 10 9.1574
2.2939 4.5736 0.992756
5.76075 0.956885 8.90401
3.46827 0.137125 1.68431
0.345954 1.71864 0.843798
2.32991 1.15297 8.61919
8.71411 6.95011 9.70016
5.76894 0.0715636 8.93232
4.40379 3.99998 0
5.94665 7.8806 4.50368
9.26661 5.57987 7.11571
4.1597 2.84213 1.61995
2.36435 4.26455 9.12017
2.78167 0.395736 2.06787
1.8245 8.64152 9.94544
1.49573 0.238742 9.8716
2.2535 3.87389 8.8175
5.00582 9.94353 9.5381
5.88117 0.374509 3.33764
0 0.170389 3.73105
5.06729 7.76891 9.71886
8.1869 9.34237 0.864343
3.64773 8.97446 8.68437
3.66818 0.534592 2.29277
2.091 4.99301 7.90444
7.32654 5.2897 0.428147
8.95663 3.47765 7.91587
1.10461 8.99265 8.11836
0.920006 7.02786 1.7318
5.63303 0.544996 2.63337
1.61679 8.63103 4.35056
3.00496 8.14044 8.66323
4.1545 6.93901 9.05773
2.00268 4.47255 9.89139
0.69452 2.96423 4.31411
8.7012 6.05929 1.07045
1.49542 1.50646 6.90166
2.59217 0.567197 0.529316
1.12375 10 3.1802
1.48828 0.16824 8.73228
7.08746 5.1274 3.56183
5.58836 0 4.88568
9.60353 4.63358 8.87703
2.12706 2.9945 0
9.54816 9.86395 4.88855
4.82674 9.89782 4.06863
3.68175 6.66751 2.94582
6.57544 8.12646 6.46902
3.37288 0.155812 1.91925
2.47067 1.05986 5.02605
4.58633 6.4791 7.1348
0 2.17237 1.20696
4.28458 4.6708 4.82217
0.772472 9.13427 5.63967
5.00263 7.9158 5.07461
9.47333 10 3.82728
0.250337 2.35939 0.70434
2.27089 4.22715 9.9177
0 5.72231 5.18304
7.17312 0.00183967 9.62576
2.93029 5.50229 6.3113
4.96956 1.71293 8.68055
8.20617 7.71171 1.90286
3.72118 0.479831 2.48607
8.74492 7.99475 0.503295
6.06566 3.90226 7.78874
8.65752 9.42607 1.94204
2.61077 0.468477 0.328106
5.81767 0.0984819 0.467069
9.62862 2.72522 7.43894
1.16642 9.9315 0.534474
1.09562 1.47112 7.51322
9.4932 2.0082 5.98157
2.78745 0.471681 1.99519
4.04264 4.6114 0.48912
6.75648 6.03453 4.26138
2.90876 0.525611 1.96624
4.88517 3.02022 4.08129
5.17518 0.0752489 5.50685
5.1408 6.39212 1.98002
3.78361 1.68434 9.56786
9.39438 9.37744 0
9.85323 3.12934 2.61274
7.63973 2.63348 0.513771
7.31925 5.83284 3.57426
9.78281 6.51396 0.193175
8.15537 8.84721 5.67117
0.0737175 4.28634 2.76229
9.82876 9.51689 4.88213
5.23868 8.71626 4.69109
8.50924 8.9308 3.45156
8.97645 7.53894 7.06267
5.83911 6.92917 4.48169
3.24311 0.453813 2.00171
9.76456 8.43339 3.91273
0.311542 4.98674 2.87722
8.10811 0.17058 6.58445
2.39066 3.63229 5.7812
1.81712 8.82098 4.38847
1.29405 2.67954 1.19011
8.36054 8.59401 5.76135
1.62949 5.10903 6.69772
0.511062 9.29672 6.98326
3.50802 0.268079 2.16129
7.62662 6.686 0.462481
5.26994 8.1715 5.6463
6.65062 8.78502 2.38808
2.63849 0.673799 1.22125
1.54364 8.95628 7.26386
3.53523 0.551353 2.1765
4.53575 9.47445 8.85449
2.35841 0.345208 2.1543
2.44245 0.487166 0.0717172
3.32638 0.549175 2.37595
3.36599 0.202309 2.12734
9.61434 3.20936 8.0887
8.40977 0.171411 4.63067
7.51401 5.45541 9.3929
4.35863 1.05555 1.41901
2.16302 3.07164 8.97443
0.0716017 9.3349 3.28935
3.58082 0.871279 2.69149
3.36264 0.167181 2.40254
3.68183 0.188754 1.96628
7.58909 5.15227 9.1698
4.99946 0.283178 8.32912
9.57759 4.61072 2.87703
3.68696 9.58192 0.670609
4.38455 0 6.18992
3.19771 0.371569 1.42805
0.845862 0.517303 7.2851
4.6676 1.47245 8.56024
2.58916 1.49724 5.40202
3.04357 0.498132 2.17894
3.75653 0.412148 1.7838
5.23673 7.34556 9.71733
2.42462 4.86746 5.26302
3.60378 4.67934 3.23696
3.92431 0.300942 8.78668
3.17542 0.616247 1.83774
2.28347 0 4.07967
2.38701 5.6419 2.06368
5.45401 2.64669 2.15927
0.565917 0.2626 0.573808
4.37229 3.73759 4.9439
6.64652 3.05917 0.782751
3.25324 0.611129 1.81666
8.93988 5.80202 3.62529
6.07432 9.19688 3.45091
9.70452 7.815 1.68652
3.26903 0.507163 1.83098
3.63384 0.525691 1.36273
5.06599 6.3588 7.36685
0.917864 9.75245 4.69031
1.80825 5.20455 0.886838
3.21995 9.56246 7.69978
3.28165 0.0925276 1.74761
1.59583 0.594287 8.88653
9.71169 7.13055 1.81505
3.29734 8.89794 1.35841
7.25833 5.8213 9.29735
2.97138 0.432677 2.01607
6.61853 0.296661 2.95098
3.81229 0.27778 1.79247
3.24853 0.198732 2.21722
3.7864 0.227447 1.23675
3.707 0.441564 1.36102
7.65953 7.25642 6.3148
4.5982 6.69852 6.74693
8.96927 8.82625 5.96859
8.24949 3.16338 0.737993
0.266874 4.55489 2.72842
4.85052 8.441 6.46684
2.65435 0.204663 2.16819
10 9.11296 5.35414
7.87527 9.05489 0
3.97195 0.232037 9.40876
7.4934 1.5744 6.8893
3.32641 0.498532 1.57309
8.40271 7.09022 0.00526821
1.29474 0.408751 8.899
0.859377 3.37621 9.89927
1.48142 0.599484 8.88408
3.81534 0.621428 2.2637
7.35231 2.78188 8.76595
9.34953 1.03894 9.56847
1.37336 0.241455 0.440262
0.139099 1.1681 6.71192
5.35473 2.22414 0.067187
5.90876 1.13407 2.78333
1.46263 0.366155 8.8531
1.44138 6.41441 3.52943
3.12993 0.230296 2.31259
3.59713 0.434669 1.92644
9.49332 3.4678 7.85421
7.56977 8.64909 4.88382
4.72042 3.14808 4.4421
5.84241 1.0783 2.74184
1.34329 0 9.78234
9.02354 7.01287 3.04637
7.31093 2.74649 2.7378
6.54691 2.87658 8.75177
3.28598 0.30517 1.96998
1.95865 0.29909 6.69491
7.75713 0.644422 0.345056
1.15414 4.76673 5.56939
3.90348 0.655323 7.29058
1.59975 3.72689 9.99218
6.32373 8.19864 4.51538
3.45787 0.594483 1.69665
4.67385 0.689516 6.25497
7.84575 8.4174 6.15558
6.624 4.46143 6.94611
2.76 8.22462 8.34737
4.73792 4.65258 0.563512
2.8098 0.331336 1.60911
3.16454 1.9788 3.11357
0.0620888 1.12769 7.83782
1.37235 0.341282 8.57328
3.15544 0.213065 1.85542
3.6264 0.204494 1.55603
4.14246 0.50201 1.24508
3.48724 0.385386 2.10154
4.18011 2.26909 1.85948
8.97305 3.42574 2.77996
4.18388 0.795437 4.08862
1.16236 9.84129 6.70849
3.25092 0.210431 1.89922
3.63271 0.777004 5.16987
3.19127 0.232203 1.60137
3.14909 0.0955321 1.90837
0.463008 2.87914 5.17936
9.08721 6.84112 3.22298
6.27995 0.406277 3.26708
9.55583 1.57506 2.32796
4.66492 7.93524 1.6048
3.56828 0.661272 1.76107
3.05761 0.751558 7.6998
4.60871 3.21178 1.15855
3.56723 0.879059 2.91261
5.70168 5.56326 1.14892
7.33983 2.52695 1.62838
6.65012 9.29582 0.975783
1.29919 0.446856 8.81362
6.82499 0.878522 9.82275
1.2843 0.292323 8.89883
3.67356 0.560208 1.92643
1.68119 0.12063 6.56735
5.79922 2.61476 0.584556
3.51752 0.161326 1.50103
1.73315 7.54397 4.86465
8.49354 1.89895 7.03472
3.51091 0.513965 2.28365
2.1194 2.64364 10
2.67769 0.0589189 1.52279
2.8457 0.971832 9.40553
3.68409 0.108117 0.941174
7.66161 0.846791 0.356279
6.22481 1.07618 4.27196
1.89249 5.41435 8.15148
3.57452 0.210816 2.03781
0.851213 3.44632 6.59846
6.2078 5.06708 3.64061
5.01644 4.3129 3.89012
9.27515 9.79552 5.10256
2.74048 0.89915 9.50142
1.53906 0.550941 8.89126
3.30527 0.171714 2.17529
3.09236 0.348719 2.59981
7.63314 0.240214 0.832972
3.67549 0.566281 2.39128
3.06581 0.5792 1.4606
5.85441 7.3504 6.60479
3.41315 0.293686 2.12015
3.28825 0.6529 1.83715
0.165744 4.4958 3.13729
1.60665 0.779443 7.92731
2.88042 0.395526 1.8252
3.55988 0.632652 1.97725
3.55167 0.745844 3.20754
2.82703 1.19324 9.72416
3.01834 0.231195 2.00228
3.34814 0.461551 2.11784
7.59543 0.438709 0.445805
1.48894 0.373466 8.76095
1.4413 0.400595 8.92161
3.53492 0.152538 2.17371
3.9511 0.190714 1.41317
7.44564 0.346055 0.299051
1.44083 0.590829 9.1254
8.27658 7.59127 2.35519
1.48973 0.289402 8.62871
0.641445 0.885808 7.76382
7.71366 0.632986 0.461163
2.07091 1.48567 8.74914
2.35677 0.492028 8.14555
3.82745 0.361568 2.34357
3.1397 0.279171 1.79166
7.82929 0.440913 0.43448
1.33299 0.382923 9.24731
1.45272 0.701708 8.80747
4.10715 0.147978 8.55929
3.73254 0.219213 2.36632
3.34909 0.557711 2.1813
3.49531 0.397757 1.79637
4.10421 0.245165 8.43267
3.86252 0.168927 1.9936
8.47885 0.324413 3.25353
1.17717 0.644777 8.46151
3.31452 0.173322 1.77043
3.43059 0.419902 2.29055
7.57402 2.70009 4.34687
9.97531 0.0468883 3.85613
3.37535 0.173555 2.2258
3.22661 0.380862 1.88797
1.89116 0.557913 8.61657
3.00888 0.475689 1.82282
3.66938 0.390967 3.59071
1.35371 0.206542 8.98361
3.32177 0.219187 1.64785
1.6939 0.22442 7.88577
6.74309 0.115531 2.37352
7.8469 0.805433 0.487382
POINT_DATA 400
SCALARS particleColor float 3
LOOKUP_TABLE default
1 5.96046e-08 0
0.911106 1 0.0888944
0.598012 1 0.401988
0.0231086 1 0.976891
1 0.0366051 0
0 0.666981 1
1 0.845827 0
1 0.492511 0
0.782051 1 0.217949
1 5.96046e-08 0
0 0.979083 1
1 0.839911 0
1 5.96046e-08 0
0.47924 1 0.52076
1 0.81616 0
0.0366238 1 0.963376
0.239172 1 0.760828
0 0.669912 1
0.957472 1 0.0425276
1 5.96046e-08 0
0 0.645538 1
1 5.96046e-08 0
1 5.96046e-08 0
1 0.734067 0
1 0.523671 0
0 0.53588 1
0.320958 1 0.679042
0.837572 1 0.162428
0.944999 1 0.0550008
1 5.96046e-08 0
1 5.96046e-08 0
0.313719 1 0.686281
0.962123 1 0.0378768
1 0.767309 0
1 5.96046e-08 0
1 0.0174963 0
0.455897 1 0.544103
0 0.543792 1
0.422111 1 0.577889
1 5.96046e-08 0
1 0.989286 0
1 5.96046e-08 0
1 0.486353 0
0 0.948729 1
0 0.73843 1
1 5.96046e-08 0
1 0.019408 0
1 5.96046e-08 0
0.547371 1 0.452629
0.926269 1 0.0737315
0.722943 1 0.277057
0.589763 1 0.410237
1 5.96046e-08 0
1 5.96046e-08 0
1 5.96046e-08 0
0.940187 1 0.0598131
0.487482 1 0.512518
0.397818 1 0.602182
1 5.96046e-08 0
1 0.575348 0
1 5.96046e-08 0
1 5.96046e-08 0
0.928742 1 0.0712575
1 0.322299 0
0.563723 1 0.436277
1 5.96046e-08 0
1 0.915239 0
1 5.96046e-08 0
0.0515234 1 0.948477
1 5.96046e-08 0
1 5.96046e-08 0
1 0.526224 0
1 5.96046e-08 0
0 0.639285 1
1 0.869066 0
1 5.96046e-08 0
1 5.96046e-08 0
1 0.185179 0
0 0.306626 1
0.531584 1 0.468416
0 0.831416 1
0.276919 1 0.723081
0 0.345099 1
1 5.96046e-08 0
0.582037 1 0.417963
0.469933 1 0.530067
1 0.348018 0
0.564059 1 0.435941
0.125226 1 0.874774
1 5.96046e-08 0
0 0.377716 1
0.908158 1 0.0918425
1 0.697184 0
1 5.96046e-08 0
1 0.932287 0
1 5.96046e-08 0
0.964797 1 0.0352029
0.955286 1 0.0447143
0.750079 1 0.249921
0.00945275 1 0.990547
0 0.740278 1
0 0.617018 1
1 0.814923 0
0.0108881 1 0.989112
1 5.96046e-08 0
1 0.691949 0
1 0.710772 0
0.504709 1 0.495291
1 0.756893 0
1 0.693534 0
1 0.922568 0
1 0.795212 0
1 5.96046e-08 0
1 5.96046e-08 0
0 0.645297 1
1 0.743398 0
0 0.401023 1
1 5.96046e-08 0
1 0.374912 0
1 0.0657536 0
1 5.96046e-08 0
1 0.898393 0
1 5.96046e-08 0
0.512222 1 0.487778
0.798464 1 0.201536
0 0.988708 1
0.99926 1 0.000740349
0.21259 1 0.78741
0 0.783181 1
1 0.886815 0
1 5.96046e-08 0
1 0.263732 0
1 5.96046e-08 0
0 0.739249 1
0.597473 1 0.402527
1 5.96046e-08 0
1 0.976324 0
1 0.587144 0
0.351771 1 0.648229
0.413574 1 0.586426
0 0.706615 1
1 5.96046e-08 0
1 5.96046e-08 0
1 5.96046e-08 0
0.127422 1 0.872578
0.0987886 1 0.901211
0.533767 1 0.466233
1 0.611227 0
1 0.739454 0
1 0.610186 0
0 0.440673 1
1 5.96046e-08 0
1 5.96046e-08 0
0 0.534738 1
1 5.96046e-08 0
0 0.662408 1
0 0.939682 1
1 5.96046e-08 0
1 0.400175 0
1 0.138422 0
1 5.96046e-08 0
1 0.688578 0
1 0.571266 0
1 5.96046e-08 0
0.431553 1 0.568447
1 0.966821 0
0.232433 1 0.767567
0.152588 1 0.847412
1 0.98424 0
1 0.875473 0
0 0.535721 1
1 5.96046e-08 0
0 0.952125 1
1 0.854023 0
0 0.604318 1
1 0.0742866 0
0.300638 1 0.699362
1 0.413999 0
1 0.427404 0
1 5.96046e-08 0
0 0.653174 1
0 0.946871 1
0 0.750267 1
1 0.563362 0
1 5.96046e-08 0
0.603587 1 0.396413
0 0.6326 1
1 5.96046e-08 0
0 0.442912 1
0 0.791257 1
0 0.487696 1
0 0.749088 1
0 0.941367 1
1 0.0036568 0
0.316426 1 0.683574
0.460124 1 0.539876
1 0.51326 0
0.706702 1 0.293298
0 0.676812 1
0 0.219887 1
0 0.336844 1
1 0.147606 0
1 5.96046e-08 0
0 0.887059 1
1 5.96046e-08 0
1 0.760847 0
0 0.688442 1
1 0.807164 0
0.87086 1 0.12914
1 5.96046e-08 0
0 0.396666 1
0 0.24991 1
1 5.96046e-08 0
1 5.96046e-08 0
1 0.578343 0
0 0.339047 1
0 0.625746 1
0.32888 1 0.67112
0.116889 1 0.883111
0 0.534026 1
1 5.96046e-08 0
0.507127 1 0.492873
1 0.895188 0
0 0.856735 1
1 0.511593 0
1 5.96046e-08 0
0.0644184 1 0.935582
0 0.930784 1
0 0.306459 1
1 5.96046e-08 0
1 5.96046e-08 0
1 5.96046e-08 0
1 5.96046e-08 0
0 0.866484 1
0 0.612397 1
1 0.925624 0
1 0.0751665 0
1 0.983075 0
0 0.693044 1
1 5.96046e-08 0
0 0.168723 1
0.0951579 1 0.904842
0 0.729221 1
0 0.607049 1
1 5.96046e-08 0
0.410345 1 0.589655
1 5.96046e-08 0
0 0.567583 1
1 5.96046e-08 0
0.800606 1 0.199394
0.130394 1 0.869606
1 5.96046e-08 0
1 5.96046e-08 0
1 0.253208 0
1 5.96046e-08 0
0 0.807693 1
0.994795 1 0.00520492
0.0333858 1 0.966614
0.434191 1 0.565809
0 0.194036 1
0 0.904951 1
0.412229 1 0.587771
0.379265 1 0.620735
0.448602 1 0.551398
0.0670701 1 0.93293
1 0.606822 0
0 0.776039 1
0 0.377885 1
1 0.803394 0
0 0.895171 1
0.0338378 1 0.966162
0 0.931976 1
1 5.96046e-08 0
1 5.96046e-08 0
0.115558 1 0.884442
0.659416 1 0.340584
0 0.529701 1
1 5.96046e-08 0
1 5.96046e-08 0
0 0.425832 1
0.0728889 1 0.927111
0 0.642036 1
1 0.947467 0
1 0.839158 0
1 5.96046e-08 0
1 0.278763 0
0 0.495639 1
0 0.946851 1
1 5.96046e-08 0
1 5.96046e-08 0
0.559222 1 0.440778
1 5.96046e-08 0
0 0.560257 1
0 0.818298 1
0.206735 1 0.793265
0 0.475327 1
0 0.306068 1
0 0.546355 1
0.50685 1 0.49315
0 0.458152 1
0.293838 1 0.706162
0.430555 1 0.569445
0 0.918529 1
1 0.935298 0
0 0.86421 1
0 0.812958 1
0 0.260659 1
0 0.744347 1
0.332612 1 0.667388
0.284717 1 0.715283
1 5.96046e-08 0
1 5.96046e-08 0
0.833068 1 0.166932
0 0.383202 1
1 5.96046e-08 0
0.810884 1 0.189116
0 0.813897 1
1 5.96046e-08 0
0.852975 1 0.147025
1 5.96046e-08 0
0.392758 1 0.607242
1 5.96046e-08 0
0 0.805728 1
0 0.772721 1
0 0.749369 1
1 0.0776947 0
0 0.870585 1
0.634384 1 0.365616
1 0.8941 0
0 0.290651 1
1 5.96046e-08 0
0 0.510058 1
0 0.396136 1
0 0.672627 1
0 0.627565 1
1 0.0960993 0
0.463184 1 0.536816
0 0.303183 1
0 0.921822 1
1 0.289226 0
0.896415 1 0.103585
0.986584 1 0.0134158
0 0.502693 1
0 0.198026 1
0 0.522519 1
0 0.554154 1
0 0.451294 1
0 0.53782 1
0 0.384952 1
0.680449 1 0.319551
0 0.945062 1
0 0.371406 1
0.379372 1 0.620628
0 0.905459 1
0 0.981747 1
0 0.975487 1
0 0.969411 1
0 0.361022 1
0.312226 1 0.687774
0 0.514635 1
0 0.860673 1
0 0.3057 1
0 0.82131 1
0.156339 1 0.843661
0 0.51534 1
0 0.520793 1
0 0.359209 1
1 0.0444772 0
0 0.871968 1
1 0.753249 0
0 0.814697 1
0.562015 1 0.437985
0.324153 1 0.675847
0 0.781179 1
0 0.893259 1
0 0.258997 1
0 0.747498 1
0.276814 1 0.723186
0 0.536192 1
0 0.658709 1
0 0.62232 1
0 0.652195 1
0 0.824906 1
0 0.569115 1
0 0.970406 1
0 0.547578 1
0 0.331154 1
0 0.366117 1
1 0.566024 0
0.173606 1 0.826394
0 0.856257 1
0 0.826142 1
0 0.613352 1
0 0.291265 1
0 0.809613 1
0 0.678311 1
0 0.407479 1
0.787091 1 0.212909
0.0829235 1 0.917076
0 0.489151 1
