# vtk DataFile Version 3.0
Particle simulation
ASCII
DATASET POLYDATA
POINTS 400 float
2.26771 9.46478 2.64374
0.609852 7.29901 1.53468
8.93375 6.36302 6.90895
4.41172 0.873026 0
2.71416 5.26798 1.64258
5.74386 0.0114222 5.98681
4.07302 6.39832 0.266194
2.3286 7.85689 5.34725
4.78122 3.58264 0.933153
3.51184 8.5882 1.47731
3.14397 5.69486 2.01263
1.23862 8.83298 6.67809
6.8732 5.37048 8.99461
2.10242 4.97708 2.94654
7.26429 6.25747 7.05389
3.09344 1.87545 9.98929
0 1.71602 7.4411
2.24573 1.59004 0.313994
3.96864 7.34288 5.38475
4.95831 8.12893 3.06346
4.32305 3.36958 0.707843
8.64557 0.679638 4.98367
0.605358 0.436829 1.41569
2.74014 5.34561 7.46587
4.80427 8.93589 3.48294
4.137 3.05533 9.23424
3.80165 0.178751 9.87662
2.51431 0.419578 2.31033
8.5759 5.14071 1.13596
9.96031 9.64791 3.75585
3.47688 1.39759 0
6.64274 5.85952 3.0226
7.82035 0.969779 7.78009
1.52613 2.05291 9.32246
7.47214 9.32588 9.18725
1.11551 8.89839 8.16608
3.30017 10 10
8.86166 8.81809 4.70274
4.5527 1.16249 4.90948
0.624835 0.156262 7.37706
8.42561 7.72558 2.95118
4.05346 7.88538 9.88284
7.28475 4.22729 4.92038
2.99165 6.01212 2.42563
2.68977 4.26134 0.784553
5.46785 9.69275 0.631465
1.11905 2.17475 8.86418
8.26551 6.0939 0.236037
0.890979 2.63565 7.14038
1.63926 7.21938 1.55298
4.876 4.27699 7.4398
2.63509 6.59689 3.75176
9.33309 9.20364 2.57812
5.46175 5.33118 0.65186
4.41651 5.67034 5.52934
4.60003 0.173995 4.4599
7.98565 0.843338 7.723
5.17547 2.56791 1.85898
0.533518 2.76739 1.72403
0.926422 7.26129 8.45615
3.02417 8.20603 1.47632
5.72382 6.09277 5.79519
7.10869 0.944425 9.30381
0.843431 1.94985 9.84587
5.1169 4.00899 0
3.0557 3.28424 0
2.4593 6.32083 4.5838
7.63265 3.43575 0.0701526
4.14672 0.728824 0.285733
1.66343 3.57278 2.42605
8.13039 6.29651 6.81735
9.46698 2.72312 0
6.44092 1.1552 6.89714
8.62716 4.07219 6.92934
3.65083 2.32696 5.1418
7.2301 2.35498 7.9311
6.79538 9.01152 0.326751
7.01202 4.91228 8.82072
2.89298 10 2.10417
8.31836 3.35817 0
7.39563 2.13234 5.15405
4.80413 0.700821 8.97982
3.87231 2.81321 2.52876
1.0304 7.6263 4.91955
6.39928 9.34452 6.04514
0.231047 3.73484 1.9158
9.73918 6.22339 2.04249
0.036138 3.87513 0.0982187
5.50321 4.71823 8.47365
10 9.38674 8.70092
0.000979811 6.19413 2.69751
0.0776746 1.77529 3.55298
3.27473 3.38121 10
2.66478 8.72157 0.194109
5.47136 9.19505 3.92384
1.20606 1.08002 3.6669
8.5202 8.97495 2.1113
7.71103 2.40092 6.12131
3.03264 6.02099 0.188275
1.94865 4.24781 4.89196
8.83011 4.92245 9.02818
4.5645 5.26153 3.24453
2.96227 0 4.58462
8.79303 4.57875 7.99258
4.62698 0.382047 6.24397
1.13146 8.41546 6.57156
5.96534 4.14527 4.8431
1.84454 1.12775 5.08875
9.69415 7.26992 3.66793
2.37178 6.58787 3.85657
4.59725 6.79541 3.42104
1.92474 4.48143 0
9.41357 5.10198 0.319921
0.244883 8.45929 1.32026
9.58108 1.66451 9.2185
3.52663 0.273664 3.03253
1.37509 5.42012 3.20113
2.85157 6.002 6.08033
4.47048 1.47762 10
3.9782 1.07874 0.549801
1.03989 4.30546 5.28313
10 5.20045 8.87782
9.48557 2.01158 4.20858
2.77547 0.643236 2.31215
4.62579 8.19735 5.42953
1.65506 7.38782 6.00878
4.50232 6.4678 5.79761
4.03052 6.14118 0
6.84155 2.29438 2.755
7.75021 9.12231 9.67628
3.48721 3.68739 5.72108
0.442709 4.32187 6.56143
7.27367 8.19822 4.30678
8.22353 9.80922 6.24839
6.4353 1.4092 7.37314
9.99475 1.52267 8.0037
6.29485 6.0638 3.0787
9.80843 3.04674 5.15987
9.25578 7.5152 5.28463
4.87701 6.76176 3.13958
3.42049 4.88842 8.80337
7.67603 5.31936 2.76481
0 9.69609 5.54542
3.0723 6.23694 7.26484
0.211564 2.18019 9.65746
8.32965 5.75031 5.07172
3.93106 6.83374 3.44879
2.49255 1.59594 1.25158
0.927685 6.01731 2.65714
5.71325 1.37286 8.30249
7.65341 0.403974 7.46996
6.67719 0.473179 3.79439
0.252068 0.00299892 4.66521
9.40206 0.712438 7.40216
6.31225 3.2677 8.0796
0.901837 7.22042 4.78714
7.39734 1.25314 7.60052
0.484872 0.237842 5.32153
2.64067 8.70176 0.223327
5.2633 6.66229 8.63197
1.77649 5.82702 5.10269
3.36618 0.533069 1.73214
8.98197 3.19156 1.98393
0.33628 6.41601 8.12538
8.86758 9.27158 0.37425
9.27671 8.39151 4.26527
7.52761 5.4859 9.07235
7.83165 9.42513 6.16886
0.671615 5.19963 7.44551
4.95843 1.12179 3.48432
0.623197 9.26267 5.94366
0.549508 6.24866 0
3.75149 8.79298 5.91305
3.18769 0.544578 8.73622
7.39626 10 3.22208
10 5.91285 1.84922
6.91047 5.83043 4.64288
4.62671 4.36763 5.89374
8.22843 9.77757 6.78851
9.49212 3.87997 4.87688
1.38048 4.80882 4.17359
10 4.54486 7.28733
3.05159 1.19115 7.25334
8.08528 3.01407 3.89697
0.121144 7.86874 5.5564
1.30967 6.04959 2.79753
7.51629 0.528983 7.55628
6.1059 9.74177 5.31665
0.832725 7.17621 1.97864
4.64788 8.2606 5.46196
2.36864 7.50554 8.95228
1.13723 7.22394 6.78033
3.13313 2.03227 8.18407
1.53932 0.704089 1.77421
2.42873 1.31216 8.8656
7.05871 1.47327 9.66935
0.442695 5.76353 9.71766
3.54902 3.44731 8.3229
4.05387 7.10307 9.28466
9.40555 5.33017 7.36421
8.80144 1.33336 5.59221
2.36574 1.66315 1.15231
7.51215 7.36137 0.51871
7.81951 9.81513 0.0489033
4.97555 9.66207 6.80288
8.59111 4.31544 7.47512
3.14453 0 7.62413
8.38004 10 8.45133
0 5.93397 2.30114
0.40175 7.88345 0.991101
3.52887 2.56337 2.62423
3.57205 5.71539 5.0023
9.39995 0.66239 5.17412
6.917 9.34893 10
7.18917 7.7041 2.70755
10 0.808308 5.46413
8.49083 8.09016 8.60785
0.466292 0.969231 5.26203
3.083 8.46229 7.56453
6.45292 6.3491 2.49904
3.20285 9.63229 6.24503
1.83356 9.05052 1.19968
8.41712 1.78003 4.96464
8.31249 1.183 5.40182
1.59405 6.83677 0
0.348808 7.40649 9.00575
7.22625 9.61591 8.49479
4.1559 0 2.88915
7.63362 0.404124 7.3205
5.62847 1.42487 5.33177
1.85295 4.29647 4.32944
9.02636 1.69158 4.84843
6.78551 3.22003 0.743368
4.51178 4.05573 0.467701
3.55829 9.64854 0.988709
8.78672 7.0797 4.83471
6.9267 6.32756 5.27547
9.18884 8.57894 6.77705
7.82202 0.603307 7.13333
2.14807 8.12691 1.93729
7.28893 0.0292342 7.72092
1.36191 5.74624 5.00046
3.01658 0.817013 6.86964
9.85732 5.64079 0.901411
9.05691 4.53074 1.64359
3.24386 2.20552 6.16338
4.37871 9.7541 8.21552
7.49436 1.39036 1.09472
4.92506 9.07991 1.07027
0.732131 2.8534 6.47523
7.54347 3.71303 5.90328
1.03217 4.42915 2.51501
0.910854 5.47189 2.42965
5.51031 0.361248 1.86436
3.25316 3.85859 5.47555
1.43127 2.8453 8.34237
4.45448 5.7294 5.6195
3.48408 0.198019 8.84473
2.19807 10 2.88283
2.17712 9.36737 6.06375
0.697608 1.05299 2.38933
8.69461 4.41653 6.80622
8.35582 0.389304 5.64556
8.93664 9.40871 7.26717
6.58781 6.01792 2.86934
6.11267 3.71092 6.93771
3.15299 3.93846 0.490546
6.56354 4.29689 0.385741
3.89135 9.75381 8.21399
5.01059 6.30427 0.706257
2.66947 8.83523 1.13888
3.35761 0.369337 9.4407
7.42609 5.74858 0.163467
8.72382 9.32186 4.64729
5.64617 10 5.3583
0.942268 7.36743 5.18329
1.91165 7.09577 0.152057
0 8.02235 0.451272
7.82845 9.81961 9.10054
0.744064 1.31058 3.58269
1.43347 8.26745 7.07921
4.58364 3.14238 8.72902
1.62271 8.28115 3.20111
2.73384 6.63838 0.10794
10 4.00053 0.77534
2.44419 0.770613 8.41458
3.46793 3.20387 3.58608
3.12168 2.82902 6.09881
0.796507 9.97128 0.432176
7.75715 2.2264 9.42259
9.6717 2.5973 0.32943
5.79579 0 6.4571
6.06431 6.54884 9.14179
4.69823 0.435222 4.85952
6.98517 7.03965 3.29307
7.54834 4.69248 7.30316
7.16927 0.911038 7.26595
8.08825 0.597322 6.7723
7.40331 0.610155 7.41399
8.33707 0.117513 7.32963
8.6892 3.72534 4.72585
3.76123 8.81735 2.75344
7.27938 0.52581 7.26227
0.573743 4.40511 8.61559
7.6828 0.627387 7.05382
0 5.01105 3.37913
8.76791 1.50886 5.73544
7.7195 0.309034 7.50966
9.86741 0 5.76745
1.54059 3.10859 1.10206
7.56403 3.82496 5.87675
0.7595 6.55574 8.9091
0.86683 2.5407 0.878524
7.76691 0.418054 7.50493
0 2.74481 5.80581
5.34562 7.21524 8.48119
4.24964 9.28621 0.692439
7.48141 0.344745 7.58646
0 1.97827 3.82082
2.4393 2.7027 3.29154
3.06883 9.92435 8.1177
4.40449 3.64669 9.50607
1.51701 0.964653 8.13589
7.57378 0.667826 7.23691
7.45527 0.48935 7.59562
2.34359 8.1813 3.97517
8.95183 1.54098 5.99691
1.77932 10 0.680822
9.89229 9.79771 6.73199
7.85423 0.503982 7.39672
7.36302 5.70385 8.35656
7.34045 0.860837 4.09282
5.26207 0.994928 3.29275
5.18433 8.16147 2.72231
7.20442 3.66595 7.07231
8.73014 2.68311 6.14352
9.79395 6.04834 9.201
7.50918 0.147601 7.34774
0.0228418 0.464524 5.63521
5.79158 2.9823 9.83387
8.78854 6.44096 3.75146
3.5948 10 5.65388
0.213724 8.71686 0.205874
1.52999 0.815321 8.10936
7.8742 0.994706 6.68626
4.27812 0.281115 5.40794
7.93027 1.5606 1.01344
7.04952 0.0250379 8.381
7.48425 0.308493 7.32579
7.63991 6.26019 4.46545
7.92915 0.0307886 7.20635
7.79578 0.739743 7.49993
0.680701 9.59894 1.47385
2.34842 5.65476 8.04665
3.43945 6.46968 6.72727
7.66111 0.377992 7.12042
8.54388 0.468624 7.54239
4.48966 5.72072 7.14855
8.07764 1.05856 7.13053
7.20022 0.616432 7.43585
4.34729 2.54502 5.94403
1.56376 0.860337 8.17234
1.41437 0.912421 8.44884
7.66909 0.662639 7.22054
2.43038 9.27361 6.53171
2.26788 9.12526 8.94753
1.50612 0.912101 8.11265
7.91037 5.57818 1.10859
3.5083 7.52588 0.780599
6.4173 9.35644 6.9283
7.82158 1.39962 0.883367
10 8.00358 6.71317
0.265391 7.9768 4.8891
8.09986 0.335597 7.26638
7.75471 0.348151 7.55863
7.90942 4.90715 1.47455
1.52038 0.970098 8.09531
5.43119 3.76326 4.82428
3.87177 0.567005 4.22585
7.73041 0.851987 6.77462
7.26401 0.114037 7.6373
7.70919 0.671111 7.45454
1.66383 9.35469 3.05853
7.44324 0.501982 7.08436
2.67723 5.44605 8.7439
1.52514 0.981465 8.02326
7.45666 0.29219 7.68583
7.79247 0.675692 7.26071
3.43088 5.20738 7.85838
8.48402 3.33688 5.83048
7.27625 0.718436 7.31347
7.52006 0.400501 7.63626
6.30351 9.35447 6.44308
7.39791 0.721441 7.18229
2.77653 5.80684 5.80516
1.04605 1.07062 9.5216
7.56658 0.217373 7.53112
2.77834 3.95596 4.64173
8.78058 4.66659 1.16141
5.05293 3.40387 0.535585
POINT_DATA 400
SCALARS particleColor float 3
LOOKUP_TABLE default
0.1559 1 0.8441
0.552191 1 0.447809
1 5.96046e-08 0
1 0.101753 0
1 5.96046e-08 0
1 0.852738 0
0.734378 1 0.265622
1 5.96046e-08 0
0.330295 1 0.669705
1 5.96046e-08 0
0.93432 1 0.0656796
1 5.96046e-08 0
1 0.430634 0
1 0.0651811 0
1 5.96046e-08 0
1 5.96046e-08 0
1 0.498233 0
0 0.73111 1
0.413434 1 0.586566
1 5.96046e-08 0
0 0.414941 1
1 5.96046e-08 0
1 5.96046e-08 0
1 5.96046e-08 0
0.595702 1 0.404298
0.353136 1 0.646864
1 0.709074 0
1 5.96046e-08 0
0.982288 1 0.0177118
1 5.96046e-08 0
1 0.457271 0
1 5.96046e-08 0
0.416187 1 0.583813
1 5.96046e-08 0
1 5.96046e-08 0
1 5.96046e-08 0
1 0.931815 0
1 5.96046e-08 0
1 5.96046e-08 0
0.346943 1 0.653057
1 5.96046e-08 0
1 5.96046e-08 0
1 0.369841 0
1 5.96046e-08 0
1 0.0618809 0
0.998844 1 0.00115633
1 5.96046e-08 0
0.150028 1 0.849972
0.115455 1 0.884545
1 5.96046e-08 0
0.647787 1 0.352213
1 0.444774 0
1 5.96046e-08 0
0.0117404 1 0.98826
1 0.875321 0
1 0.873231 0
1 0.516354 0
0.772781 1 0.227219
0.0192611 1 0.980739
0 0.339898 1
1 5.96046e-08 0
0.72513 1 0.27487
1 5.96046e-08 0
1 5.96046e-08 0
1 5.96046e-08 0
0.122414 1 0.877586
1 5.96046e-08 0
0.756743 1 0.243257
0 0.687098 1
1 0.891308 0
0.898184 1 0.101816
1 5.96046e-08 0
1 0.822419 0
0.369058 1 0.630942
1 0.471522 0
1 0.209836 0
0.818159 1 0.181841
1 5.96046e-08 0
1 5.96046e-08 0
1 5.96046e-08 0
1 5.96046e-08 0
1 5.96046e-08 0
1 5.96046e-08 0
1 5.96046e-08 0
1 0.115569 0
1 0.505256 0
1 0.72375 0
1 5.96046e-08 0
1 0.456377 0
1 5.96046e-08 0
0.457096 1 0.542904
0.0817141 1 0.918286
1 0.388081 0
0.956142 1 0.043858
1 5.96046e-08 0
1 5.96046e-08 0
1 5.96046e-08 0
1 5.96046e-08 0
0.852323 1 0.147677
1 0.403352 0
1 0.727121 0
0.881688 1 0.118312
1 5.96046e-08 0
1 0.861748 0
0.578467 1 0.421533
1 5.96046e-08 0
0 0.67114 1
1 5.96046e-08 0
1 5.96046e-08 0
1 5.96046e-08 0
1 0.907426 0
1 5.96046e-08 0
1 0.161791 0
0 0.957902 1
1 0.809875 0
1 0.582579 0
1 5.96046e-08 0
1 5.96046e-08 0
0.872282 1 0.127718
1 5.96046e-08 0
1 5.96046e-08 0
1 5.96046e-08 0
1 5.96046e-08 0
1 5.96046e-08 0
1 0.791979 0
1 5.96046e-08 0
0.986827 1 0.0131733
1 5.96046e-08 0
0.734531 1 0.265469
1 0.43915 0
0.650188 1 0.349812
1 0.852698 0
1 0.960425 0
1 5.96046e-08 0
1 0.166017 0
1 0.53878 0
0.50098 1 0.49902
0.633011 1 0.366989
1 0.246027 0
1 0.635909 0
0.763719 1 0.236281
0.0226465 1 0.977354
1 5.96046e-08 0
1 5.96046e-08 0
0.839039 1 0.160961
1 0.128853 0
1 0.0282466 0
0.801865 1 0.198135
1 5.96046e-08 0
1 5.96046e-08 0
0 0.572685 1
1 5.96046e-08 0
1 5.96046e-08 0
1 5.96046e-08 0
1 5.96046e-08 0
0.229296 1 0.770704
1 0.735711 0
1 0.393436 0
1 0.60419 0
1 0.0981547 0
1 0.0442271 0
0.917626 1 0.0823738
1 0.551708 0
0.162934 1 0.837066
1 5.96046e-08 0
0.852792 1 0.147208
1 5.96046e-08 0
1 0.921306 0
0 0.766028 1
1 5.96046e-08 0
0.516724 1 0.483276
1 0.26345 0
1 0.375872 0
0.756822 1 0.243178
1 0.5791 0
0.986325 1 0.0136746
1 5.96046e-08 0
1 0.611283 0
0.749989 1 0.250011
1 0.697455 0
0.84839 1 0.15161
1 5.96046e-08 0
0.740203 1 0.259797
1 0.383592 0
1 0.810433 0
1 5.96046e-08 0
0 0.740721 1
1 5.96046e-08 0
0 0.545947 1
1 5.96046e-08 0
0.862704 1 0.137296
1 5.96046e-08 0
1 5.96046e-08 0
0 0.812076 1
0.81381 1 0.18619
0.728283 1 0.271717
1 5.96046e-08 0
1 5.96046e-08 0
1 5.96046e-08 0
0.283556 1 0.716444
0 0.614 1
1 0.624876 0
1 0.765819 0
1 5.96046e-08 0
1 5.96046e-08 0
0 0.736821 1
1 0.472322 0
1 5.96046e-08 0
1 5.96046e-08 0
1 5.96046e-08 0
0.288666 1 0.711334
1 0.839726 0
1 0.314025 0
1 5.96046e-08 0
0.549357 1 0.450643
0.162292 1 0.837708
0.136256 1 0.863744
1 5.96046e-08 0
1 0.328608 0
1 5.96046e-08 0
1 0.649139 0
1 0.446348 0
0 0.816106 1
0 0.254164 1
1 0.54255 0
1 5.96046e-08 0
0.0171259 1 0.982874
1 0.976902 0
0 0.506776 1
1 0.389421 0
0.826489 1 0.173511
0.374582 1 0.625417
0 0.656568 1
1 5.96046e-08 0
0.519792 1 0.480208
0.0439089 1 0.956091
1 0.532908 0
1 5.96046e-08 0
0 0.461734 1
1 5.96046e-08 0
0 0.411421 1
0.392248 1 0.607752
1 0.935503 0
0 0.7118 1
1 0.627748 0
0.311636 1 0.688364
1 0.684312 0
1 5.96046e-08 0
1 5.96046e-08 0
1 0.598103 0
1 0.326299 0
0.73004 1 0.26996
1 5.96046e-08 0
1 5.96046e-08 0
1 0.525346 0
0.0150941 1 0.984906
1 5.96046e-08 0
0.0629488 1 0.937051
0.253569 1 0.746431
0 0.747704 1
1 0.609341 0
0.62638 1 0.37362
1 5.96046e-08 0
1 0.0725917 0
0.474259 1 0.525741
0.00667382 1 0.993326
1 5.96046e-08 0
1 0.121003 0
0.21864 1 0.78136
1 5.96046e-08 0
0.281089 1 0.718911
1 5.96046e-08 0
1 0.511267 0
1 0.997364 0
1 0.509345 0
1 5.96046e-08 0
1 0.993803 0
1 0.268761 0
1 5.96046e-08 0
1 5.96046e-08 0
1 0.541909 0
1 0.607675 0
1 5.96046e-08 0
1 0.618491 0
1 5.96046e-08 0
1 0.595098 0
1 0.738648 0
1 0.236763 0
1 5.96046e-08 0
1 5.96046e-08 0
0.708978 1 0.291022
1 5.96046e-08 0
0.406613 1 0.593387
1 5.96046e-08 0
1 0.59653 0
0.894642 1 0.105358
0 0.299303 1
0 0.501258 1
0 0.611417 1
0 0.729227 1
0.101669 1 0.898331
0.519697 1 0.480303
0 0.650474 1
0.213 1 0.787
0 0.121988 1
1 5.96046e-08 0
0 0.486731 1
0 0.436187 1
0.412344 1 0.587656
0.96876 1 0.0312395
1 0.992669 0
1 5.96046e-08 0
1 5.96046e-08 0
0 0.314568 1
1 5.96046e-08 0
0.917204 1 0.0827963
1 5.96046e-08 0
0.250646 1 0.749354
1 5.96046e-08 0
0.162389 1 0.837611
0.720421 1 0.279579
0.703127 1 0.296873
0 0.774739 1
0 0.703335 1
0 0.635218 1
0.00925615 1 0.990744
0 0.47808 1
0.172407 1 0.827593
1 0.534268 0
0 0.515824 1
0.723199 1 0.276801
1 0.783949 0
1 5.96046e-08 0
1 5.96046e-08 0
0.0136142 1 0.986386
0 0.84228 1
1 0.956694 0
0 0.34688 1
1 5.96046e-08 0
1 0.500066 0
1 5.96046e-08 0
1 5.96046e-08 0
0.578182 1 0.421818
0 0.901283 1
0 0.277059 1
1 5.96046e-08 0
0 0.829777 1
0 0.631428 1
0 0.617802 1
1 5.96046e-08 0
0 0.881103 1
0 0.28862 1
0.666171 1 0.333829
1 0.540063 0
0.884853 1 0.115147
0 0.591547 1
0.451053 1 0.548947
1 5.96046e-08 0
0 0.531793 1
0 0.71449 1
1 5.96046e-08 0
0 0.774449 1
0 0.519593 1
0 0.519312 1
1 0.731269 0
1 5.96046e-08 0
0 0.326 1
0.734102 1 0.265898
0.264671 1 0.735329
1 5.96046e-08 0
0 0.713749 1
1 5.96046e-08 0
1 0.741734 0
0 0.620955 1
0.00497374 1 0.995026
0.428005 1 0.571995
0 0.351144 1
1 5.96046e-08 0
0.856359 1 0.143641
0 0.549825 1
0 0.711739 1
0 0.367544 1
1 0.204332 0
0 0.886873 1
1 5.96046e-08 0
0 0.503911 1
0 0.564848 1
0 0.43597 1
1 0.289352 0
1 0.87646 0
0 0.385768 1
0 0.913068 1
0.741388 1 0.258612
0 0.412945 1
1 5.96046e-08 0
1 5.96046e-08 0
0 0.31806 1
1 0.663861 0
1 0.969215 0
1 0.689156 0
