# vtk DataFile Version 3.0
Particle simulation
ASCII
DATASET POLYDATA
POINTS 400 float
8.4393 8.18276 0.849113
7.98796 4.68254 0
8.39703 6.65937 10
0.524786 5.15053 8.71553
1.01321 3.47205 3.93626
3.17865 6.1789 9.25939
5.76574 6.52105 3.42727
9.21914 8.37759 2.94297
1.50056 3.55225 3.87375
9.36573 1.9123 4.44691
9.30901 1.98245 7.02546
6.64291 8.25603 5.79603
4.87975 7.32742 1.07335
8.16747 7.06379 0.786224
6.74818 2.92321 5.16479
6.6946 3.66035 0.861684
3.72958 8.31294 1.51773
0.440021 5.31602 5.48332
9.19252 7.84489 4.4949
5.6231 1.98571 2.21237
0.588655 0.303581 7.59495
9.22498 9.77038 4.38374
4.03297 9.44271 4.8598
6.89009 3.65462 3.60954
9.52352 9.77413 0
1.58435 1.31703 6.97314
2.84956 5.49591 8.12707
3.69375 8.08993 2.63915
5.20292 2.54587 5.7548
1.77076 8.96489 6.28514
2.88667 1.95518 0.653555
2.36042 9.00501 6.38736
3.96928 8.96043 5.26515
8.01056 9.30659 8.61195
4.56546 6.401 8.67707
7.28551 4.73224 9.65879
3.74354 9.94313 1.51822
9.00675 0.997699 5.49924
2.15175 0.504852 8.08491
8.98477 3.8655 5.86663
5.28596 1.03111 7.9897
3.80313 4.06259 6.85579
8.52711 2.01798 6.33744
5.71518 7.04228 9.91534
5.78155 8.65591 5.95189
6.79713 3.11552 8.546
6.21356 6.13049 5.35855
8.74001 4.53198 1.09272
0 8.51528 3.66761
9.36833 9.77166 4.34867
0.0820843 9.09367 1.50506
5.3972 2.10224 2.58051
3.39117 4.66542 4.27597
9.05768 6.21079 5.43315
9.36496 8.12494 3.42525
8.75782 6.22186 5.93504
7.2569 4.26728 2.33439
0.704578 6.82278 7.62229
0.0308148 2.86983 7.19606
7.01553 3.24494 1.61875
1.09863 5.10602 8.45271
2.6178 7.92794 6.8312
9.14204 6.6707 1.97721
2.84004 3.43827 10
0.295728 8.23119 8.60285
2.27214 1.46147 1.72225
2.03802 9.20082 9.10749
4.24495 2.32507 0
4.22388 0.296467 0.455828
8.59187 0.0127691 7.0492
7.20061 1.77713 3.47284
7.12154 8.90191 8.73833
6.64667 6.31031 10
2.41693 5.54564 1.99298
2.2584 5.62034 9.76461
7.69839 1.12498 6.61378
1.9486 1.44529 8.43714
8.89821 0 6.5191
0.9475 3.65402 1.19928
9.78324 2.65373 9.20646
3.25729 1.94409 6.80826
7.52841 7.2132 0.508068
7.75771 0.22719 5.87067
2.23698 3.36518 8.18057
5.66035 3.1656 0
9.8813 1.67322 1.00251
8.59996 5.17701 0
0.487667 8.58864 1.41571
2.31875 1.29329 1.28027
7.87247 0.321558 9.83454
9.87536 8.21346 6.01797
9.19824 1.98578 7.52551
2.75578 8.63458 6.29399
0 5.71269 3.93534
9.36313 3.77106 6.82018
8.59462 6.67601 3.99323
3.01929 4.15395 0.960314
2.5225 2.59664 0.909545
9.17667 2.70932 3.14184
7.44657 3.76983 4.12773
8.54725 6.03275 7.08208
9.18448 6.55384 8.71052
7.60573 9.59274 2.88776
7.49099 3.92169 8.88141
4.68 0.0281489 7.12354
8.54255 6.78467 3.27683
7.31876 7.81012 9.32769
3.32342 2.98293 6.8114
3.8253 0 0.580732
1.0112 8.61909 1.96864
0.785896 7.85739 4.23823
3.48242 9.26118 5.14911
8.57052 7.74222 9.17237
4.10415 1.37227 6.03109
8.45895 0.604642 6.81908
9.04133 4.05906 6.5778
2.81924 9.55079 1.42534
2.64689 4.42592 1.03297
7.89342 4.17045 4.86216
9.13367 0.893344 2.91944
8.45581 9.17377 1.67021
8.29316 1.91366 6.96574
5.44135 2.93324 9.55531
0.756191 8.54748 10
8.45996 6.00691 1.31522
4.29081 3.57606 0.717784
4.40323 0.648941 7.21161
2.51046 6.53307 10
3.86473 2.76735 5.87599
3.9052 1.70715 7.97897
4.47476 6.84217 4.892
7.68274 9.18209 7.33593
2.20948 3.56787 6.00186
4.61271 0.591366 0.230669
3.96226 5.86062 4.37827
8.54856 2.55741 9.92136
2.66553 4.68164 3.61043
8.3649 2.76207 7.70412
8.7533 2.17245 0.133531
5.47396 5.96535 10
2.60701 4.34385 3.42655
8.76107 4.43984 6.6221
8.57836 8.48791 1.29751
5.82826 7.05909 9.67078
5.27109 0.734725 4.76558
1.27849 9.90127 4.92977
1.49316 6.20354 0.472013
7.75731 4.17947 5.73567
8.86805 0.131268 8.28577
2.37194 3.07951 8.47656
6.93772 0.746721 7.83394
9.52526 4.64558 4.33734
7.69457 2.3034 4.02177
1.07206 9.36045 3.2636
1.49515 4.60911 9.27058
2.76371 0.771209 0.0940806
1.78828 4.37687 2.83869
3.44907 1.0157 1.43885
0.423648 8.2409 2.05257
6.21835 6.34613 5.53495
0.230088 3.41985 8.29253
9.60329 0 9.13862
2.53934 7.66599 6.19032
7.17582 3.01906 8.85902
1.51378 3.29375 2.87504
7.97766 2.68867 1.15655
6.95392 6.88528 4.85583
5.88505 10 1.87776
3.97925 6.5766 0.569343
0 8.22828 3.41594
9.76251 0.829815 10
7.59952 2.43401 8.70624
5.08975 2.31507 2.59464
1.32328 7.8961 1.09343
7.85908 8.51556 7.93155
7.19106 9.26785 3.81905
5.49968 6.1076 9.66834
0.897546 0.963208 1.79764
9.86864 6.04215 1.12463
3.96073 10 8.11845
6.77798 0 7.35161
9.49065 1.38881 9.93805
3.17198 3.18243 9.4633
6.84666 0.554071 9.28215
3.88761 9.52493 1.65382
2.59627 2.83758 9.16525
1.6395 4.70225 3.06848
5.18399 4.70437 4.11356
9.03666 10 9.66449
8.22715 6.82334 1.67199
0.743623 8.63923 6.46455
8.648 0.350831 3.11229
2.92991 6.63914 6.93794
9.25284 9.92492 2.69674
9.25029 3.84417 9.4414
2.56577 0.792517 8.4484
1.14746 9.48512 7.48626
7.58899 4.14365 0.710005
0.785781 2.89318 7.08869
2.66188 1.18736 4.282
0.189369 5.0926 8.2825
10 7.88311 5.8794
5.91851 5.91197 1.04118
0 9.25804 8.21619
0.98139 3.90302 0.353197
4.47958 6.17929 0.15164
0.729845 1.82564 0.617903
8.52676 3.49994 7.28658
9.17342 5.66152 4.9534
6.5921 1.41811 6.30487
1.55487 1.05603 9.89827
2.06582 8.27354 8.68764
5.32074 8.2785 9.82019
9.67569 6.02818 6.88353
3.55931 3.59962 3.42457
3.39492 1.72631 8.35608
6.14128 6.12562 0
1.5167 4.89228 2.2447
7.01503 1.77863 9.56059
0.728075 2.37252 1.22038
0.955758 7.08915 6.61326
2.49364 3.49601 8.31503
8.88549 4.79143 1.65061
8.024 9.26133 6.8821
1.06276 7.55293 4.02312
9.14908 7.18111 2.27308
0.886603 4.84525 5.65562
0.384777 5.07797 4.77639
7.07906 0.2023 7.4795
8.10062 8.64507 6.68372
7.62723 2.9851 6.3724
9.23455 4.66779 2.6574
5.30019 9.02742 6.86373
2.8279 8.99432 0
9.82983 2.39306 3.73655
8.31132 5.49227 2.38157
2.73985 1.64262 6.92348
7.34292 2.12504 4.15941
4.81675 8.19516 8.28005
3.08785 2.94122 2.61702
7.08757 0.399786 7.71211
9.30856 1.67374 5.6069
0.0423873 9.17092 0.834854
7.07615 6.14836 3.81569
9.05115 9.77278 2.3753
3.88296 1.35153 6.83412
8.55338 0.184006 1.60576
2.86917 5.74741 8.02707
0.0355297 5.42499 8.6298
0.178059 0.832737 1.53597
3.63956 1.41206 6.55487
1.14243 0.353128 4.88055
1.03388 1.06774 0.491386
8.88885 7.79345 6.10068
1.48851 0.861271 8.77101
1.43066 6.06212 5.86247
3.36315 1.75379 3.40075
7.89245 1.27378 5.46637
7.0354 3.44909 3.70636
8.03149 1.44749 6.58023
8.01835 5.11504 6.68708
5.95351 9.40691 4.17238
1.27536 1.87858 9.14783
7.15295 3.52248 2.06155
7.95571 6.20416 4.54282
1.89284 0 5.05914
9.76755 7.41737 8.21261
0.11112 0.175267 2.48559
0.417972 4.48443 0.836345
1.64218 5.03352 1.01433
1.70174 0.686056 9.24374
1.28378 6.51135 5.6357
2.25611 2.97044 8.64407
4.23946 0.959487 6.51625
5.91448 6.97076 3.36705
8.70143 1.05753 5.51447
7.78326 8.34247 2.00378
7.42008 9.49396 3.5645
0.426512 6.70378 1.4106
8.31141 2.05734 7.81416
0.117863 4.72034 5.56212
2.18592 0.979755 8.71787
5.71253 3.69754 5.027
8.79116 1.7785 8.35859
0.875039 2.46308 7.22406
5.11508 0.0985771 10
0.977114 2.17824 6.24955
4.33825 1.16058 2.42053
7.5447 2.4688 1.6879
3.91461 0.349258 5.73167
9.62736 7.28753 3.32567
8.4524 8.33534 1.46092
3.6131 8.66881 9.21151
7.56247 7.17356 8.78163
7.63651 0.943868 1.74493
6.0965 3.14627 5.98077
4.5461 1.00309 7.88687
0.979434 2.53747 2.06252
6.78478 0.348135 7.9461
1.94246 0.904416 2.33376
9.07232 0.867164 1.45627
1.114 5.40674 7.38365
6.49067 0.444488 5.31597
4.41513 0.808562 1.74878
7.33039 0.0660351 7.37835
2.01002 0 7.88458
4.79134 9.26664 5.68168
7.20346 0.385664 7.56801
7.82739 5.29598 5.74279
3.35766 0.0109269 4.5898
2.38849 9.45792 6.30234
1.39606 0.408116 9.86083
4.9482 9.37859 6.93614
6.87161 0.855179 6.47632
9.21641 3.46357 2.99198
2.12688 2.15996 1.25066
0 8.78626 2.84528
6.69748 0.573841 5.36821
5.36374 7.83072 8.37016
2.60744 4.28082 3.41168
3.54662 9.31881 1.97934
8.23579 5.04621 2.60871
1.37969 6.98581 4.56215
7.66257 0.272895 4.46424
7.16396 0.095215 7.40443
6.61198 9.39039 4.02139
4.21698 9.20065 4.65096
0.35629 7.50714 4.94284
6.95525 0.47642 8.52079
7.01344 0.596631 7.77152
3.69953 0.38005 9.32877
1.79758 0.923877 2.49424
8.98322 3.74912 9.42139
7.11591 5.4857 9.73605
9.51725 7.50345 5.10297
4.58667 2.4677 6.14217
2.72764 3.55574 8.17109
7.25046 0.202251 7.71217
2.92782 7.47343 0.476597
1.00369 7.50486 3.99854
4.94603 5.61328 7.22489
5.51893 6.50494 0
3.66572 9.33811 0.780722
1.85029 1.04326 10
0.961692 4.37915 0.636852
9.10369 4.44911 1.13429
1.43619 0.397945 2.61664
9.80681 0.770429 2.08168
6.66853 0.156142 7.47761
5.40029 6.96077 1.00266
6.96604 0.641267 7.67345
7.04133 0.406201 7.62767
7.66182 6.51504 6.93837
4.53958 5.78611 4.66911
7.57826 0.570492 0.44445
7.29718 0.639565 7.57791
2.68376 8.05683 6.59938
3.09817 1.95007 1.40522
7.43202 0.508896 4.81949
7.18335 0.357272 7.88565
3.69158 8.52629 4.42813
6.95915 2.95498 7.13175
3.33577 1.86754 9.5307
6.80551 0.365766 7.79156
7.04849 3.98471 0.90132
3.32623 3.38406 1.15041
3.27607 2.2511 9.58625
3.01267 3.27742 6.20836
2.10759 0 8.21733
3.40145 2.63577 9.91142
1.58075 0.581313 2.71647
4.91433 5.393 8.80168
8.81061 7.36176 4.48039
6.8017 0.31078 7.64082
6.75231 0.345526 7.80748
9.39002 4.297 5.60836
3.2023 2.22452 9.47292
7.28143 0.567868 5.16166
6.51085 7.22758 2.96583
6.89905 0.181346 7.93914
7.15319 2.12933 9.42361
7.13078 0.819176 7.74395
0.676724 1.73618 5.23095
6.70279 0.644315 8.1559
5.29129 5.37674 2.03559
3.20624 2.11084 9.53085
7.36389 0.368432 7.72029
6.90357 0.767646 7.52194
6.02429 4.52309 6.22545
9.29028 8.08223 9.82565
6.8834 0.216323 7.97715
6.79922 0.267249 7.88441
0.735389 5.4908 6.40488
6.69198 0.889006 7.70799
0.800426 1.75795 7.63586
8.04299 1.05485 0.609048
6.9291 0.274666 7.27713
7.09043 2.51983 5.02169
9.32599 8.57586 9.19136
7.12272 1.382 0.610386
POINT_DATA 400
SCALARS particleColor float 3
LOOKUP_TABLE default
1 0.962013 0
1 0.964374 0
0.95391 1 0.0460905
1 5.96046e-08 0
0 0.700838 1
0.479842 1 0.520158
1 0.165098 0
0.870124 1 0.129876
0.284327 1 0.715673
1 5.96046e-08 0
0.397795 1 0.602205
0.469131 1 0.530869
1 5.96046e-08 0
1 5.96046e-08 0
0.88237 1 0.11763
1 0.599639 0
0.224556 1 0.775444
0.660188 1 0.339812
0.0993614 1 0.900639
1 0.7671 0
1 5.96046e-08 0
1 0.088883 0
1 5.96046e-08 0
0.284352 1 0.715648
0.531137 1 0.468863
1 5.96046e-08 0
1 5.96046e-08 0
0.790345 1 0.209655
1 0.979679 0
1 5.96046e-08 0
1 5.96046e-08 0
1 0.586172 0
1 0.341917 0
0.0295584 1 0.970442
0.978164 1 0.0218363
1 0.505437 0
0 0.960158 1
1 0.563176 0
1 5.96046e-08 0
1 5.96046e-08 0
1 5.96046e-08 0
0.490297 1 0.509703
0.976164 1 0.0238355
1 0.338658 0
0 0.424644 1
0.756762 1 0.243238
1 5.96046e-08 0
1 0.166288 0
1 0.608417 0
0.559765 1 0.440235
1 0.748785 0
0.0434437 1 0.956556
0.858764 1 0.141236
1 5.96046e-08 0
1 0.601764 0
0.889633 1 0.110367
0.761843 1 0.238157
1 0.898791 0
1 0.394369 0
1 5.96046e-08 0
1 0.432783 0
1 0.803689 0
1 5.96046e-08 0
1 5.96046e-08 0
0.605557 1 0.394443
1 0.380923 0
1 5.96046e-08 0
1 0.891011 0
0.363385 1 0.636615
1 5.96046e-08 0
1 0.4872 0
1 5.96046e-08 0
1 0.685015 0
1 0.248525 0
1 5.96046e-08 0
1 5.96046e-08 0
1 5.96046e-08 0
1 5.96046e-08 0
0.61679 1 0.38321
0.625851 1 0.374149
1 0.275563 0
1 0.928527 0
0 0.381416 1
1 0.172724 0
1 5.96046e-08 0
0 0.433304 1
1 5.96046e-08 0
0 0.904564 1
0 0.974018 1
0.994705 1 0.00529486
1 0.549357 0
0.783296 1 0.216704
1 0.111859 0
1 0.011018 0
1 0.966586 0
1 5.96046e-08 0
1 0.51647 0
0.526151 1 0.473849
0 0.694603 1
0.694626 1 0.305374
0 0.487927 1
0.878379 1 0.121621
1 5.96046e-08 0
1 5.96046e-08 0
0.502771 1 0.497229
1 5.96046e-08 0
1 5.96046e-08 0
1 0.398461 0
1 0.919459 0
0.772253 1 0.227747
1 5.96046e-08 0
1 0.452615 0
1 5.96046e-08 0
1 5.96046e-08 0
0.476853 1 0.523147
0.140385 1 0.859615
1 0.738523 0
0.416429 1 0.583571
0.949313 1 0.0506865
0.330189 1 0.669811
0.778214 1 0.221786
1 5.96046e-08 0
0.829689 1 0.170311
1 5.96046e-08 0
1 0.823717 0
1 5.96046e-08 0
1 0.514793 0
0.823249 1 0.176751
0 0.965017 1
1 0.386413 0
1 0.940037 0
1 0.30163 0
0 0.621421 1
0.728883 1 0.271117
1 5.96046e-08 0
0 0.815612 1
0.109104 1 0.890896
1 0.530204 0
0.860342 1 0.139658
1 5.96046e-08 0
0.487903 1 0.512097
1 0.584261 0
1 0.417325 0
0.647994 1 0.352006
1 5.96046e-08 0
1 0.737082 0
1 5.96046e-08 0
1 5.96046e-08 0
0.318316 1 0.681684
1 0.0739213 0
0 0.239385 1
0.705342 1 0.294658
1 5.96046e-08 0
0.701667 1 0.298333
0.837122 1 0.162878
1 0.732381 0
1 5.96046e-08 0
1 5.96046e-08 0
0.949692 1 0.0503076
1 5.96046e-08 0
1 0.851012 0
0 0.934023 1
1 0.123157 0
1 5.96046e-08 0
1 5.96046e-08 0
1 5.96046e-08 0
0.316613 1 0.683387
1 5.96046e-08 0
0.661102 1 0.338898
0.312099 1 0.687901
1 5.96046e-08 0
0.480227 1 0.519773
1 0.361286 0
0 0.550474 1
1 5.96046e-08 0
0.639741 1 0.360259
1 0.656104 0
1 5.96046e-08 0
0 0.316395 1
1 5.96046e-08 0
0.0354335 1 0.964566
0.597641 1 0.402359
1 0.628336 0
1 5.96046e-08 0
1 5.96046e-08 0
0 0.949833 1
1 5.96046e-08 0
1 5.96046e-08 0
1 5.96046e-08 0
1 5.96046e-08 0
1 0.93944 0
1 0.0417372 0
0.641657 1 0.358343
1 5.96046e-08 0
0 0.919568 1
1 0.352417 0
0.577806 1 0.422194
0.0871838 1 0.912816
1 0.69141 0
0.97439 1 0.0256096
1 5.96046e-08 0
1 5.96046e-08 0
1 0.680411 0
1 5.96046e-08 0
1 5.96046e-08 0
1 0.909326 0
1 5.96046e-08 0
0.451891 1 0.548109
1 0.268721 0
1 0.843496 0
1 0.720968 0
0.962668 1 0.0373316
0.268938 1 0.731062
1 0.796237 0
1 0.925209 0
1 5.96046e-08 0
1 0.457995 0
1 0.122412 0
0.170455 1 0.829545
1 0.285915 0
1 5.96046e-08 0
1 0.254846 0
0.72475 1 0.27525
1 0.702977 0
1 5.96046e-08 0
1 5.96046e-08 0
0.972281 1 0.0277192
1 5.96046e-08 0
0 0.501266 1
0.0152651 1 0.984735
0.59469 1 0.40531
1 0.336638 0
1 5.96046e-08 0
1 5.96046e-08 0
1 0.780489 0
1 5.96046e-08 0
0.675039 1 0.324961
1 5.96046e-08 0
1 5.96046e-08 0
1 5.96046e-08 0
0 0.805784 1
1 5.96046e-08 0
1 5.96046e-08 0
0.69445 1 0.30555
1 0.359543 0
1 5.96046e-08 0
1 5.96046e-08 0
1 5.96046e-08 0
0.901061 1 0.0989392
1 0.78201 0
1 0.550569 0
1 0.330999 0
1 5.96046e-08 0
1 0.164825 0
0.428422 1 0.571578
0.687206 1 0.312794
0.244375 1 0.755625
0 0.99631 1
1 0.155389 0
1 0.572323 0
0.0995348 1 0.900465
1 5.96046e-08 0
0.705406 1 0.294594
1 0.456363 0
1 5.96046e-08 0
0 0.68073 1
1 5.96046e-08 0
1 0.364496 0
1 5.96046e-08 0
1 0.257018 0
1 5.96046e-08 0
1 0.256543 0
1 5.96046e-08 0
1 5.96046e-08 0
0.901037 1 0.0989627
0.970646 1 0.029354
1 0.442704 0
1 0.0545653 0
1 5.96046e-08 0
1 0.44973 0
1 5.96046e-08 0
1 5.96046e-08 0
0.718888 1 0.281112
1 0.72179 0
0 0.293648 1
1 0.649168 0
0.704689 1 0.295311
1 5.96046e-08 0
1 0.0429513 0
1 5.96046e-08 0
0.054024 1 0.945976
1 5.96046e-08 0
1 5.96046e-08 0
1 0.518673 0
1 5.96046e-08 0
0.929849 1 0.0701512
1 5.96046e-08 0
0 0.751384 1
0 0.68957 1
0.160206 1 0.839794
1 0.69394 0
1 5.96046e-08 0
1 0.967043 0
1 5.96046e-08 0
0 0.562622 1
1 5.96046e-08 0
1 5.96046e-08 0
0 0.830375 1
1 5.96046e-08 0
1 0.972851 0
0 0.843056 1
0.966637 1 0.0333627
1 5.96046e-08 0
0 0.707802 1
0.651046 1 0.348954
1 5.96046e-08 0
1 5.96046e-08 0
0 0.882778 1
1 0.734881 0
0.309146 1 0.690854
0 0.788279 1
1 5.96046e-08 0
0.698989 1 0.301011
0 0.868413 1
0 0.346626 1
1 5.96046e-08 0
0.666257 1 0.333743
0.372142 1 0.627858
1 0.891331 0
0 0.417663 1
0.320619 1 0.679381
0 0.890061 1
1 0.968077 0
1 5.96046e-08 0
1 5.96046e-08 0
1 0.687779 0
1 0.855931 0
0 0.360493 1
0.633412 1 0.366588
0.228483 1 0.771517
1 5.96046e-08 0
1 0.34578 0
1 5.96046e-08 0
0.19291 1 0.80709
1 0.905191 0
1 0.805646 0
0 0.419253 1
1 5.96046e-08 0
0 0.468308 1
1 5.96046e-08 0
0.221827 1 0.778173
0 0.814726 1
1 0.984614 0
1 0.435728 0
0.259945 1 0.740055
0 0.369023 1
1 0.523773 0
0.16784 1 0.83216
0.186856 1 0.813144
0 0.523897 1
0.381969 1 0.618031
1 5.96046e-08 0
0 0.753532 1
0 0.324868 1
0.376625 1 0.623375
0.0601141 1 0.939886
0 0.299764 1
1 0.995037 0
1 0.294764 0
0 0.676185 1
0 0.601887 1
1 5.96046e-08 0
0.689652 1 0.310348
0 0.193974 1
0 0.478531 1
0.609007 1 0.390993
0 0.444356 1
0 0.290447 1
1 5.96046e-08 0
0 0.467336 1
0 0.636656 1
0 0.557423 1
0.793783 1 0.206217
0 0.331936 1
1 5.96046e-08 0
0 0.235425 1
0 0.543859 1
0 0.211942 1
1 5.96046e-08 0
0.316397 1 0.683603
0 0.198032 1
0 0.538712 1
0.554138 1 0.445862
0 0.161646 1
0.262238 1 0.737762
1 5.96046e-08 0
0 0.45121 1
1 0.313059 0
0.567743 1 0.432257
1 5.96046e-08 0
