# vtk DataFile Version 3.0
Particle simulation
ASCII
DATASET POLYDATA
POINTS 400 float
9.37733 1.84945 6.67249
0.361774 2.34656 9.57436
9.84363 0.545972 9.79007
3.62404 7.51226 0.466468
2.06458 4.92613 7.33779
6.72787 7.39205 6.70244
5.44044 8.78044 5.53872
1.36786 7.58559 8.04314
6.16053 0 2.30591
2.16764 2.08431 0.525971
9.83813 1.23703 8.66901
3.72288 1.07329 2.40136
8.98616 9.33497 2.12449
3.73746 3.159 8.69673
3.17915 2.59635 4.67176
1.06796 0.928008 3.87511
2.26234 0 8.7629
0.355222 6.21515 1.04754
1.58418 9.26722 7.75517
8.17181 3.23281 3.91735
7.37567 8.24142 6.37792
1.34929 8.19727 3.66509
8.72841 6.17518 1.00832
5.82022 0.710963 2.4156
3.68854 9.46733 6.65016
3.16292 5.35638 3.2839
2.60719 2.89048 8.1186
0.659063 8.1173 9.34955
5.89342 5.6878 3.43142
3.6259 3.52612 6.62935
8.48731 0.593951 3.33067
0.555577 6.15616 7.32468
7.77629 7.68486 3.83427
6.27392 7.65788 0.135198
4.23668 9.39116 6.63361
3.49222 6.3907 4.54419
7.39527 5.94113 7.70163
1.46237 6.1128 1.34717
4.12456 0.886937 4.2401
9.73836 9.2387 7.74416
3.15193 8.30286 7.74598
8.97277 0.612784 9.13629
5.63478 2.62112 5.18421
7.98637 9.5916 3.2178
7.67692 6.78084 4.55506
5.81876 7.61178 1.96212
9.61198 5.68527 7.42454
6.09227 8.35959 2.66469
2.11963 0.0533751 5.79576
0.87774 3.92225 7.34647
3.89611 5.65968 5.37878
5.47916 8.17091 6.065
5.08346 3.39787 4.3446
0.592888 6.29383 7.66991
9.18482 5.19259 9.66816
5.46721 3.96689 8.87766
9.73385 7.63583 5.05276
5.69445 0.870016 6.00241
3.29216 3.52571 6.96016
8.52221 8.43337 6.88306
5.97386 7.48728 10
6.35644 5.73118 1.15383
8.16678 5.00028 9.62721
8.74343 0.615232 2.40158
6.13794 3.69816 0
7.31707 5.71294 3.47262
8.7807 5.2906 9.10102
6.88513 5.73294 2.75987
3.56033 7.561 8.77115
2.52481 1.42935 9.9199
9.49361 5.31768 8.12986
7.63698 4.75398 3.03196
0.351016 8.37913 4.3104
5.49352 7.31788 6.80677
5.68979 0.902862 9.93629
0.535251 0.495949 8.40843
5.84813 8.93302 9.48076
4.8573 3.5104 7.37804
6.80461 2.36946 8.02734
9.74426 5.41491 3.46641
9.62366 5.79963 1.30279
4.88432 3.23166 0
6.24617 7.67883 3.28779
9.15955 7.60352 7.49968
4.79893 1.41722 6.99156
8.2713 1.2689 9.42128
3.08038 7.2521 9.56522
7.179 2.41174 5.72867
1.87863 10 0.811367
0.432174 6.43638 6.91426
3.01185 5.26714 6.53464
9.08666 9.34785 7.9286
0.541084 1.8983 7.72292
9.43086 6.84645 9.15372
7.42834 3.15178 6.15091
1.37228 9.52926 9.08274
8.76901 4.80477 7.58859
2.18069 6.48193 0.487379
7.43159 9.70244 3.29323
3.25276 7.13673 8.51799
4.03163 4.34479 2.89435
2.61814 6.66967 8.09818
0.878039 0.0475227 1.07998
5.36748 1.75705 3.2389
6.40224 5.88707 1.14617
4.07001 9.5778 7.06154
4.41943 1.6436 0.782244
8.24654 2.62828 5.86096
8.6151 3.19557 1.31215
1.17438 4.99021 4.5495
4.94949 1.08309 9.61785
6.14096 1.95375 7.4993
0.623985 1.66672 7.0067
6.43277 5.19505 5.03004
8.50121 0.357526 9.71001
8.28579 9.16009 4.16964
4.41002 0 5.75594
7.61757 5.56649 4.16838
10 8.51966 5.06985
0.570698 9.56211 0.829737
1.0299 3.17943 9.61817
1.57668 9.35921 4.53811
6.18511 8.15438 8.49136
6.95068 7.93613 7.68275
0.861873 5.08198 7.19584
8.49369 3.54746 3.24075
7.8647 8.85204 5.04232
3.96058 8.40449 9.74507
6.44942 2.69427 2.56646
3.39977 8.75699 3.31915
8.39991 5.42212 0.642549
7.63916 6.52939 8.34516
1.14863 2.25122 3.37965
9.87007 4.45413 8.06094
2.16123 6.84562 4.33993
8.21052 4.30861 8.25523
1.88714 0.14424 2.65075
5.63538 3.30873 1.98927
6.51587 0.917159 1.88851
7.84935 1.96353 8.32038
6.82742 0.362498 6.42745
2.55876 3.44188 8.15501
9.49918 6.57919 6.04457
7.38297 2.06964 8.01805
3.68031 6.66291 8.25408
4.80047 3.8926 7.49437
3.31541 1.74129 0.199964
0.876057 2.26025 4.53865
9.17479 0.0263327 6.66594
10 1.80842 7.27258
6.81965 0.386786 6.47641
4.7008 1.55617 9.56593
0 9.2859 6.97394
4.16922 6.65675 3.9487
4.09802 2.97116 2.55936
2.69631 5.2018 5.77187
1.61464 7.8352 2.55641
0.893172 0.735125 6.59709
3.60647 4.90614 2.77561
0.837687 9.49485 10
6.05726 3.74943 3.17825
7.50274 0.937694 10
2.73418 2.71642 2.45894
4.58821 2.96751 4.67679
10 2.74697 8.33243
1.51035 1.12458 2.80585
4.41736 1.64882 7.64084
9.69987 7.21981 2.4585
7.32946 6.22472 9.49663
8.33159 2.0168 0.0206646
5.63067 6.51842 8.31104
5.35289 5.37527 7.19262
2.14584 6.02037 0.610293
3.71617 7.79404 7.30967
9.5788 8.65963 5.69943
3.88842 8.01151 0.0724872
4.96162 2.2197 8.57701
9.75768 2.74902 6.4439
7.39395 2.61144 1.87975
8.39502 3.48585 7.07402
5.12312 4.01848 4.07555
7.45266 9.92226 3.03073
0.459131 5.75245 8.10214
1.90955 1.16768 0.499223
8.9571 0.873231 8.65442
5.91026 10 4.4557
6.8146 0.456161 6.06991
3.24254 2.39046 4.8466
0.0685887 4.00786 8.35296
1.86482 4.97365 3.31008
4.18322 5.92517 0
6.8495 4.52839 2.42288
7.75758 1.38612 1.87495
8.11012 1.78856 0.879303
4.78084 4.57565 9.7755
5.87773 1.74923 3.45939
1.08854 9.78844 4.45976
5.36062 7.82656 6.37086
0.524332 3.13092 3.80768
8.3104 8.48176 9.7852
6.83127 0.358585 6.18199
7.40006 8.91248 3.88156
7.63999 8.86456 6.48301
7.81543 2.50223 6.43057
4.59827 7.04322 3.59249
3.9893 7.80603 9.39205
9.20211 7.40905 0.963962
8.50864 8.51579 8.11994
6.63025 6.48082 6.19868
6.39393 4.09765 3.04624
6.91879 0.275816 5.84939
1.54797 7.87413 9.19588
1.19141 9.02114 3.77556
1.6422 9.95121 7.82204
3.47137 3.01143 2.56651
1.72146 9.81797 9.15778
8.82171 0.955089 4.99783
1.75956 4.82562 6.34646
7.37887 4.23946 7.35741
2.97382 3.01087 0.283886
5.60563 9.31632 2.49004
7.38118 2.4459 5.13454
5.6659 7.74436 1.51487
8.88932 0.855176 5.07466
0.0584713 0 9.46979
7.33799 5.77854 10
3.47889 0.43844 1.16529
5.6128 6.87879 7.24754
6.7782 0.116152 6.36707
3.2261 3.40629 4.78579
1.15581 1.80563 1.79767
8.9994 8.06791 1.77245
8.28973 4.81063 3.45219
6.99876 8.30739 4.69115
5.41017 3.07801 0.333404
6.56851 10 2.45769
6.58869 2.21595 2.83281
1.44951 1.01226 7.07362
6.86198 0.300276 6.24281
7.65059 8.19446 6.71328
8.83837 0.823202 5.34303
4.65405 8.22326 8.16072
2.53826 5.62767 6.85706
10 7.41765 8.30574
5.8176 9.3231 4.08491
6.1535 4.37484 2.07322
9.83452 9.28924 7.8953
4.98995 1.83555 5.13803
2.24805 8.85561 3.50656
4.92665 1.49134 4.42337
9.14835 1.00486 5.28905
7.75045 2.26124 4.49786
0.330288 4.15859 5.10225
4.24021 9.41299 6.51107
1.36032 0 0.40265
6.99956 2.06665 3.35592
2.10843 8.30477 9.63224
4.50487 2.59021 9.76108
4.9166 3.57685 8.05526
7.80971 1.20733 1.11953
6.65037 6.6221 7.43798
6.91384 2.90094 6.16213
4.48291 8.85171 5.28546
6.40161 5.89328 6.5724
8.64251 0.689864 7.78066
8.36028 2.48879 5.74336
0.165533 2.87033 2.88538
3.70157 9.01204 6.21479
6.80753 6.42966 5.81511
5.7474 9.19763 7.42712
5.6976 1.2385 4.78498
4.89138 2.33584 4.53486
7.36121 1.35664 4.76002
7.83755 6.86263 5.37095
8.46048 0 4.2246
0.347753 4.28546 8.42261
8.34472 2.26934 7.61546
0 4.47346 8.85894
8.98344 1.45161 3.50782
6.90759 0.488083 5.97788
2.27133 8.33544 5.08043
9.01115 7.63229 6.36297
1.76438 8.99576 3.01775
9.6221 5.26453 4.65979
4.9987 1.48682 4.34996
8.28568 2.26582 2.88267
3.35096 5.35185 1.49963
4.3882 6.87174 5.26259
0.146045 3.8744 1.03771
3.42725 1.52214 0.908474
2.36067 10 0.935532
8.9142 7.77959 1.4204
8.92529 0.557252 10
3.48685 3.45676 6.24931
0.71321 0.237746 1.11234
0.211382 0.427393 8.98549
6.53428 0.334435 6.55054
6.97939 0.349471 6.23558
6.48766 0.454186 6.73279
6.24537 0.20291 5.9919
0.580435 0.186893 1.11427
5.21163 6.40996 3.56939
7.01721 0.328187 6.19779
6.3042 8.48984 0.290663
6.98473 0.205902 6.05121
5.60116 1.64302 0
6.58287 0.279424 6.19266
6.91963 0.471947 6.18005
2.91605 10 7.76503
6.82364 1.69023 2.56856
9.27145 0.356404 4.90827
0.230869 1.56173 5.64632
6.30086 1.57163 7.78404
7.52352 0.0905381 6.53187
0 5.36131 5.65108
9.00884 8.81646 4.28113
6.39216 1.64692 4.20112
2.12347 1.74038 3.55529
2.18406 5.38006 5.34374
6.10897 4.78777 5.44679
0.764258 6.26273 9.37595
1.39774 6.41423 4.41291
0.204989 0.313741 9.07956
6.69523 0.407612 6.21638
6.37563 0.405192 6.62
6.30671 9.23313 9.63657
6.59639 0.161243 5.78309
9.01165 1.5874 0.559617
3.61857 2.68223 9.1572
6.8776 0.166056 6.4269
7.30866 0.843671 5.31998
3.48277 8.00958 7.84326
7.13579 1.53552 3.17954
5.75429 8.81131 9.20504
9.82939 0.457492 7.41291
3.78641 4.8184 0.168281
5.15914 9.95245 0.247194
6.70828 0.284023 6.33893
8.57631 2.04002 5.52961
1.01251 7.98326 7.19521
8.11316 6.03719 3.47379
1.44029 2.62646 2.39889
3.11207 4.00629 8.87237
0.26648 0.311426 9.02478
6.21434 0.404457 5.45312
5.18506 0 4.10406
8.76695 1.74111 8.74054
6.34948 0.239848 5.81677
6.91467 0.459256 6.22274
1.47923 1.90817 1.52402
7.30085 0.458175 6.10212
6.55027 0.498271 6.43935
2.35501 3.01478 9.80535
4.82368 7.81687 5.26451
5.18994 4.49463 1.24206
6.97407 0.485999 6.53395
3.87867 7.582 8.7925
0.21544 6.61456 7.17203
6.42298 0.375404 6.29017
6.7239 0.162841 6.37065
3.30548 2.99731 1.81289
0.191568 0.553399 9.23324
0.108828 0.605804 9.05098
6.45481 0.214873 6.28486
6.99545 0.422691 6.5189
8.62994 4.64659 1.47139
0.22663 0.476878 9.1579
2.09987 1.67282 3.91903
7.85557 2.94236 9.35413
8.55475 1.0879 2.52772
9.04922 1.53926 8.70726
7.78649 7.97072 8.4677
7.19578 1.14317 6.28976
6.71769 0.257705 6.7844
6.99643 0.281668 5.91728
8.78778 1.70894 8.30498
0.35031 0.511057 9.0233
1.00297 3.24364 7.73922
3.00432 2.71946 7.61931
8.98018 0.777259 5.04255
6.79379 0.0787069 5.96994
6.84531 0.117544 6.06145
2.45788 7.54941 4.37703
6.52501 0.128829 6.46233
0.465644 9.54005 5.51538
0.261356 0.445205 8.99297
6.74079 0.156538 5.93974
7.15911 0.442143 6.17256
8.43918 3.32594 6.69249
0.186625 5.55287 8.81151
6.62501 0.376118 6.16668
6.75673 0 6.43835
1.83539 2.44401 6.97596
6.72847 0.248894 6.43527
1.80886 1.01756 4.45197
4.59134 2.62457 9.23046
6.84969 0.214021 6.11621
1.26298 7.73518 4.25758
7.49319 9.20156 4.25319
3.94187 6.56001 7.35828
POINT_DATA 400
SCALARS particleColor float 3
LOOKUP_TABLE default
1 0.055184 0
1 0.831006 0
0.0928834 1 0.907117
1 5.96046e-08 0
1 0.151911 0
1 5.96046e-08 0
1 0.275186 0
1 0.799999 0
1 0.540195 0
0.444965 1 0.555035
0.350246 1 0.649754
1 5.96046e-08 0
0 0.873786 1
0.38402 1 0.61598
0.89992 1 0.10008
0.739017 1 0.260983
0.924429 1 0.0755708
1 5.96046e-08 0
0.326623 1 0.673377
1 5.96046e-08 0
1 5.96046e-08 0
1 5.96046e-08 0
1 0.119064 0
0.484903 1 0.515097
0 0.669975 1
1 0.699061 0
1 5.96046e-08 0
1 5.96046e-08 0
1 0.608261 0
0.483238 1 0.516762
1 0.614066 0
1 0.680715 0
1 0.215878 0
1 5.96046e-08 0
0.866811 1 0.133189
1 5.96046e-08 0
1 5.96046e-08 0
0.0878629 1 0.912137
0.546793 1 0.453207
0.238842 1 0.761158
1 5.96046e-08 0
1 5.96046e-08 0
1 5.96046e-08 0
1 0.618682 0
0.247901 1 0.752099
0.86528 1 0.13472
1 5.96046e-08 0
1 5.96046e-08 0
0.971996 1 0.0280039
1 5.96046e-08 0
0.681927 1 0.318073
1 5.96046e-08 0
0.68663 1 0.31337
0.614849 1 0.385151
1 0.784398 0
1 0.764258 0
1 0.00748032 0
0 0.922342 1
0.878106 1 0.121894
0.871276 1 0.128724
1 0.0689674 0
1 5.96046e-08 0
1 5.96046e-08 0
1 0.341871 0
1 5.96046e-08 0
1 5.96046e-08 0
1 0.559441 0
1 0.0967065 0
1 5.96046e-08 0
0 0.655573 1
0.874585 1 0.125415
1 5.96046e-08 0
1 0.580632 0
1 0.624965 0
0 0.57601 1
0.908717 1 0.0912825
0.664297 1 0.335703
1 5.96046e-08 0
0.438758 1 0.561242
0.293403 1 0.706597
0.692188 1 0.307812
1 0.669883 0
1 0.879588 0
0.360082 1 0.639918
1 0.156317 0
1 0.783031 0
0.704242 1 0.295758
1 0.328561 0
1 5.96046e-08 0
0 0.938993 1
0.854908 1 0.145092
1 5.96046e-08 0
0.0647779 1 0.935222
0.403302 1 0.596698
1 5.96046e-08 0
1 0.142294 0
1 0.976936 0
1 5.96046e-08 0
1 5.96046e-08 0
1 0.00489414 0
0 0.530044 1
1 5.96046e-08 0
1 5.96046e-08 0
1 5.96046e-08 0
0.0421537 1 0.957846
0.00489562 1 0.995104
0.998084 1 0.00191641
0.828398 1 0.171602
1 0.924509 0
0.298536 1 0.701464
0.590475 1 0.409525
0 0.392649 1
1 0.139849 0
0.167418 1 0.832582
0.0288617 1 0.971138
1 5.96046e-08 0
1 5.96046e-08 0
1 5.96046e-08 0
1 0.801159 0
1 5.96046e-08 0
1 0.503865 0
1 5.96046e-08 0
1 0.960978 0
1 0.201005 0
1 5.96046e-08 0
1 5.96046e-08 0
1 0.301061 0
1 5.96046e-08 0
1 5.96046e-08 0
1 0.651461 0
1 5.96046e-08 0
1 5.96046e-08 0
0.831598 1 0.168402
1 5.96046e-08 0
0.458365 1 0.541635
1 0.649784 0
1 0.431555 0
1 5.96046e-08 0
1 0.522954 0
1 0.0782917 0
0 0.539512 1
1 5.96046e-08 0
0.853875 1 0.146125
1 0.121479 0
1 5.96046e-08 0
1 0.851156 0
1 5.96046e-08 0
1 5.96046e-08 0
1 0.714269 0
1 5.96046e-08 0
0 0.543498 1
1 0.671058 0
0 0.840735 1
1 5.96046e-08 0
0.409451 1 0.590549
0.791624 1 0.208376
0.387574 1 0.612426
1 5.96046e-08 0
0.394557 1 0.605443
1 5.96046e-08 0
1 5.96046e-08 0
1 5.96046e-08 0
0.986307 1 0.0136928
0.868222 1 0.131778
1 0.935928 0
0.789065 1 0.210935
1 0.57549 0
1 5.96046e-08 0
0.438626 1 0.561374
0.031336 1 0.968664
1 5.96046e-08 0
0.970902 1 0.0290985
1 5.96046e-08 0
0.776819 1 0.223181
1 0.624706 0
1 5.96046e-08 0
0 0.581506 1
1 5.96046e-08 0
1 5.96046e-08 0
0.0873069 1 0.912693
1 0.0718126 0
0.909371 1 0.0906294
0.569315 1 0.430685
1 0.826516 0
1 5.96046e-08 0
1 5.96046e-08 0
0 0.090548 1
1 0.879083 0
1 5.96046e-08 0
1 0.887194 0
1 5.96046e-08 0
1 0.243841 0
1 5.96046e-08 0
0.618447 1 0.381553
1 0.0283011 0
0.521923 1 0.478077
0 0.843585 1
0.0652484 1 0.934752
1 5.96046e-08 0
0.741929 1 0.258071
0 0.782242 1
1 5.96046e-08 0
0.486295 1 0.513705
1 5.96046e-08 0
1 5.96046e-08 0
1 5.96046e-08 0
0.41941 1 0.58059
1 0.570852 0
1 5.96046e-08 0
1 5.96046e-08 0
0 0.258392 1
1 0.605451 0
0.784912 1 0.215088
1 0.707578 0
1 5.96046e-08 0
1 0.782569 0
0 0.440454 1
1 0.454233 0
1 5.96046e-08 0
1 5.96046e-08 0
1 5.96046e-08 0
1 5.96046e-08 0
1 0.672112 0
0 0.407238 1
1 5.96046e-08 0
1 0.48358 0
0.560406 1 0.439594
1 0.833715 0
0 0.434096 1
0.811388 1 0.188612
1 0.540736 0
1 0.0396866 0
0.58776 1 0.41224
0.829642 1 0.170358
1 0.971589 0
1 5.96046e-08 0
1 5.96046e-08 0
0 0.399456 1
0 0.165554 1
1 0.690548 0
0 0.763796 1
0.641911 1 0.358089
1 5.96046e-08 0
1 5.96046e-08 0
1 5.96046e-08 0
0 0.946893 1
0.285903 1 0.714097
1 0.77451 0
0.777094 1 0.222906
1 0.0119987 0
0.118622 1 0.881378
1 5.96046e-08 0
1 5.96046e-08 0
1 5.96046e-08 0
1 5.96046e-08 0
0.440491 1 0.559509
1 0.662165 0
0 0.615962 1
1 5.96046e-08 0
1 0.836876 0
0 0.89972 1
1 0.282517 0
1 0.682017 0
1 5.96046e-08 0
1 5.96046e-08 0
0 0.825083 1
1 5.96046e-08 0
1 5.96046e-08 0
1 5.96046e-08 0
1 0.501381 0
0.0237078 1 0.976292
1 0.360576 0
0.718018 1 0.281982
1 0.109997 0
0.596039 1 0.403961
1 0.87649 0
1 5.96046e-08 0
0.762947 1 0.237053
0.877204 1 0.122796
0 0.871594 1
1 5.96046e-08 0
0.929656 1 0.070344
1 5.96046e-08 0
0.37931 1 0.62069
1 5.96046e-08 0
1 0.298791 0
1 5.96046e-08 0
1 5.96046e-08 0
1 0.585257 0
1 5.96046e-08 0
1 5.96046e-08 0
1 0.194616 0
0.449001 1 0.550999
1 0.643001 0
1 5.96046e-08 0
0 0.572098 1
0 0.424725 1
0 0.945527 1
0 0.693935 1
0 0.37712 1
0.873182 1 0.126818
1 5.96046e-08 0
0 0.401122 1
0.932543 1 0.0674567
0 0.872686 1
0.162052 1 0.837948
0 0.545633 1
0 0.199094 1
1 5.96046e-08 0
1 0.543159 0
1 5.96046e-08 0
1 0.784545 0
1 5.96046e-08 0
0 0.85661 1
1 5.96046e-08 0
1 5.96046e-08 0
0.986903 1 0.0130967
0.163844 1 0.836156
0.0821362 1 0.917864
1 5.96046e-08 0
0.0616457 1 0.938354
1 0.755674 0
0 0.248096 1
0 0.446418 1
0 0.700994 1
1 0.450928 0
0 0.702735 1
0.480356 1 0.519644
0.862306 1 0.137694
0 0.301168 1
0 0.895444 1
1 5.96046e-08 0
1 0.298443 0
0 0.988379 1
1 5.96046e-08 0
1 5.96046e-08 0
0.674606 1 0.325394
0 0.365881 1
1 5.96046e-08 0
0.933367 1 0.0666329
1 5.96046e-08 0
0.450148 1 0.549852
1 5.96046e-08 0
0 0.411046 1
0 0.167394 1
0 0.535372 1
0 0.668875 1
0 0.315584 1
0 0.612093 1
0.473824 1 0.526176
0 0.896408 1
0 0.910673 1
1 5.96046e-08 0
1 0.866507 0
0.450638 1 0.549362
0 0.231853 1
0 0.78741 1
1 0.716732 0
0 0.874668 1
0 0.598513 1
0.589413 1 0.410587
0 0.466267 1
0 0.602608 1
0 0.776126 1
0 0.633384 1
1 5.96046e-08 0
0 0.500573 1
1 0.585625 0
1 5.96046e-08 0
0.959219 1 0.0407815
0 0.397209 1
0 0.991231 1
1 0.338929 0
0 0.890704 1
0 0.821415 1
0 0.645164 1
0 0.817701 1
0.421136 1 0.578864
1 5.96046e-08 0
0 0.554523 1
0 0.492314 1
0 0.498063 1
1 5.96046e-08 0
0 0.826246 1
1 5.96046e-08 0
0 0.420149 1
0 0.84013 1
0 0.84843 1
1 5.96046e-08 0
1 0.87876 0
0 0.72351 1
0 0.443773 1
0.255921 1 0.744079
0.120727 1 0.879273
1 0.511055 0
0.0405896 1 0.95941
0 0.957085 1
1 0.751477 0
1 0.252163 0
0.580614 1 0.419386
