# vtk DataFile Version 3.0
Particle simulation
ASCII
DATASET POLYDATA
POINTS 400 float
4.49657 8.90482 1.04557
1.8393 3.12075 4.83719
4.94181 4.62055 3.06609
5.71078 10 1.59022
9.28677 7.74197 6.11338
2.96742 5.44208 4.21765
6.44916 9.27888 5.13166
0.53385 0.690611 0.98488
2.2417 7.38036 0
7.21022 2.98653 0.133584
5.11336 3.77353 7.18866
8.91486 4.45911 8.01903
9.91387 5.41225 2.32717
7.64962 10 1.43213
3.12882 7.31544 6.48154
8.12764 4.39132 8.28514
9.6213 3.28978 0
8.3377 8.20612 4.5074
1.5304 8.76843 7.11959
6.33412 2.38167 0.830496
1.93523 3.12046 3.00183
7.1539 7.01333 5.08516
4.95419 7.27995 4.80973
6.88739 8.24537 5.14528
3.55513 8.39295 8.85166
7.85103 3.58419 9.7167
4.08885 7.16945 2.44573
2.47503 7.14714 6.21899
1.677 0.564501 6.23907
8.30033 3.93673 7.56591
3.19976 2.75848 3.78818
7.90969 0.088983 7.05872
9.10937 0.611715 0.742024
6.75285 3.58784 0.868985
7.18518 1.65601 3.71366
0.795457 1.81322 3.58037
1.73693 3.32111 8.30238
2.20517 6.79287 6.94538
0.867307 1.92614 2.50494
0.363174 4.25159 6.14934
10 2.42955 4.34314
6.50231 5.08989 2.25472
6.36973 7.25065 4.65697
5.99662 6.94601 4.99206
9.63415 5.03067 3.52875
2.95303 2.90312 0.580967
0.852583 7.56705 0.892462
1.57057 8.95395 3.30825
1.69126 3.25044 3.20411
0.0784057 1.25569 9.08275
8.61576 1.70179 6.897
4.14734 0.422148 10
3.67647 6.17134 2.85003
2.24313 4.8063 0.270679
2.61859 4.16085 3.1173
1.04497 2.78504 3.09911
2.50566 1.68898 5.84798
8.80546 2.82214 4.86677
1.72536 1.13895 7.48951
2.57958 9.66069 3.85233
0.095768 5.2957 4.04915
0.332394 9.94117 10
3.73119 1.11913 3.94784
5.28088 5.76925 3.102
7.89341 8.74548 0.499081
2.66667 9.11369 9.27131
4.77291 1.32849 0.0553226
9.89077 10 3.79976
8.96177 5.30538 6.26297
1.87698 5.96442 7.50938
4.26655 4.84221 6.03145
6.48848 2.95243 7.35597
6.02704 1.73732 0.0486728
7.35805 0.466022 5.524
9.74405 3.17724 6.52728
3.42797 3.16076 2.03971
4.77502 5.08667 2.9939
6.2199 10 2.40498
2.52206 9.95147 4.1118
7.90863 4.17456 4.38478
2.45491 7.48022 6.09517
7.22815 9.73092 4.93894
7.76724 1.09925 2.81724
0.0223478 8.57908 8.00314
7.47212 2.7667 3.46456
3.23159 2.79301 6.62901
8.49506 2.18486 7.1824
6.27173 9.96603 1.14826
7.85013 0.454786 8.63958
7.21745 8.24778 8.56487
0.595462 7.96124 2.54288
0.871223 2.69759 1.15409
2.75121 8.92366 1.0233
6.80519 3.27417 6.97661
10 7.33405 2.2745
1.8919 3.28399 4.80778
8.61596 5.54453 7.44094
5.68319 9.36829 3.31738
4.23206 1.08649 0.471464
9.39145 9.08462 8.94283
6.64757 4.57227 9.15844
9.54929 0.523944 7.75797
6.52433 4.39861 0.0731632
2.89568 0.287378 9.14864
0.610636 3.04213 9.80113
0 5.91817 4.7443
9.71136 7.81159 5.00908
1.54129 7.44501 5.83819
9.00573 5.75683 6.23467
6.15047 4.80728 5.58684
3.50033 0.549695 6.10489
8.32553 10 9.56111
8.47319 1.03424 7.15696
8.65279 0.493338 4.03199
4.22302 8.28619 5.78656
0.117156 4.7476 1.8619
7.57459 4.4446 7.80477
7.27443 0.166557 4.71579
1.51229 7.61628 1.45342
8.65627 3.27426 6.60257
0.554944 0 10
8.76025 9.00253 2.86091
3.25488 9.52351 8.14321
5.25347 5.01851 6.13776
6.69294 1.26447 0
1.10226 4.59451 0.154663
6.65971 0 8.22162
6.43451 2.28378 7.311
9.87916 0.691498 4.63466
6.50822 0.327663 8.07237
8.121 7.74193 1.71817
3.42958 4.21157 1.37533
0.385333 1.31652 6.35862
3.8634 9.03745 6.95405
1.5438 5.96531 0.809606
5.77735 8.08459 2.42851
7.99585 6.51707 3.39558
2.97765 4.32209 1.37434
3.92881 5.38306 0
7.85612 3.16009 6.53852
8.60889 0.110147 9.89354
4.88782 3.03159 7.91211
5.33836 5.12626 10
4.83556 1.07764 0.408396
3.61712 4.61029 8.84158
7.96545 1.58393 0.112756
4.6708 4.97573 8.52179
2.72398 1.4788 6.77378
4.9735 6.30894 0.554892
6.08632 5.73509 6.43357
7.5918 0.320605 7.14308
2.39959 1.88614 4.24922
8.37991 1.15809 4.19539
6.30914 0.069627 0.280678
7.95125 1.05719 4.67026
1.4453 4.60248 8.14951
9.99943 5.79855 3.21791
7.74877 0.286123 5.00895
2.29857 4.26997 0.780943
0.540568 4.55591 5.74993
9.46453 1.4835 4.64685
9.90295 7.27096 0.770114
7.84308 9.56822 0.751961
3.04354 8.69757 5.39259
2.19013 5.59591 4.2607
1.41243 3.82967 0.800802
3.80579 3.27795 9.73852
0 0.773544 9.62973
0.479824 1.23477 2.19884
7.75647 3.43425 9.50488
2.69981 1.27069 3.09018
5.44714 4.08537 6.77612
3.39998 0.183727 1.54656
5.40091 0.787652 7.22932
4.03155 6.14294 5.57801
0.618924 6.77363 8.14818
1.95978 3.11461 6.47968
2.35948 4.60056 7.05708
0 0.214064 7.39323
4.1634 9.24962 7.58364
0.173397 2.92501 7.45371
7.62148 6.83328 4.10685
1.96941 3.47857 3.96025
9.14763 5.49448 4.67091
6.01155 0.711227 0.0712647
4.08727 3.35498 3.99112
7.87241 0.352938 7.10756
2.97276 3.75935 1.94466
2.77877 8.81562 0.882141
6.29096 6.23092 5.3729
0.431032 8.54708 7.38763
0.0607027 1.23521 8.75129
0.527108 6.09581 2.69834
6.69128 7.99795 0.226174
5.22102 4.25323 3.83474
5.5304 7.37538 0.633301
8.12798 1.99913 2.7368
8.78188 9.23875 8.44654
7.92432 1.87235 0
3.66683 6.50037 4.13767
7.63973 0.281296 5.77858
8.19029 8.21141 3.19964
3.32814 0.278076 5.6936
5.86194 4.97882 7.85337
1.91028 2.90545 1.31449
9.38756 5.54049 4.22333
1.06574 3.19534 0.680529
4.20001 9.15115 0.890395
2.20488 8.36152 3.85175
7.06423 0.663007 6.38566
6.4332 0.734243 7.93136
2.68319 4.01059 7.88311
8.49577 0.917423 1.16507
1.36522 4.64509 5.11112
4.99443 1.09348 8.55711
9.37675 6.04471 7.76368
5.81516 0.446231 8.74481
8.13848 6.37386 7.70552
1.56922 6.23297 0.960308
8.33477 2.81902 6.28115
1.197 4.69244 7.84776
2.59531 8.86604 0.839057
5.18991 2.35391 7.71974
7.51237 0.152065 6.37791
8.57348 3.07545 10
1.2699 9.06987 1.69617
1.08048 8.99996 7.87556
2.14784 3.39667 6.58263
7.402 0.341911 7.07617
7.76006 1.73869 8.60782
7.52092 0.5236 3.7389
6.7973 2.11902 9.34253
7.63951 2.18791 2.47841
2.23932 1.14822 7.51873
2.15526 8.46016 9.66077
8.03603 1.55201 2.79133
0.89212 4.48434 3.12115
1.40633 2.93071 8.39226
7.48608 0.363052 7.15096
1.75555 5.2489 9.63546
7.31552 0.38331 7.06485
4.24238 0.886702 6.75259
9.33573 5.91769 7.99299
5.07279 8.17049 3.28353
0.187485 7.92043 1.9501
8.21218 9.66966 1.35949
1.56887 3.81359 9.01357
4.05685 4.85546 8.87469
1.81053 1.0699 10
8.78471 7.40279 8.38372
6.93066 3.59618 2.56971
0.286629 0.380755 1.93647
9.92792 7.83384 6.93492
1.4092 5.76674 4.95703
9.5277 9.33169 9.14597
1.50474 0.513381 0.674537
5.91498 6.45637 7.94199
8.66977 1.52684 5.17967
0.0368013 2.47234 8.64223
8.06159 9.64849 3.20598
9.53042 0.813482 2.39486
7.27227 8.01949 3.15386
4.73578 3.93139 9.2259
7.46566 8.7592 1.93484
9.79313 3.86348 6.93099
7.91739 7.51152 2.5373
3.29699 1.24069 2.86772
3.88952 3.56355 4.67815
4.57477 9.01438 1.27636
3.38913 1.78261 7.30725
9.61273 0 2.71843
10 1.84056 0.881269
4.36724 6.08127 7.38161
5.82975 0.177587 0.940253
3.66964 0.279126 5.7071
6.90598 6.09466 6.56562
5.58732 8.94649 4.06447
5.14739 0.207148 5.90481
6.26527 6.76793 3.24242
7.7845 0.340898 6.55011
7.70699 6.10938 1.06348
6.21906 2.81122 2.89016
5.23877 1.94473 8.90578
0.244408 2.70599 7.43009
8.73772 9.50785 7.55894
7.19818 1.85628 0
8.1139 0.160631 8.44015
2.95914 7.52354 9.36191
8.03753 9.83577 0.460442
5.53311 8.55718 3.33482
5.70564 9.19311 3.58281
8.73557 3.11538 7.81036
9.58405 7.39971 4.96903
3.09912 2.86984 6.88459
0.75076 7.57068 3.20702
1.02224 0.215585 8.68906
7.76589 0.21251 7.41438
7.70735 0.4171 6.17204
7.31162 0.404536 7.06912
7.24004 0.575583 7.16331
2.49282 8.45116 6.35835
7.57627 5.03869 8.44215
7.4574 0.485636 7.36469
1.86888 3.27288 8.84722
7.54762 0.474166 7.04156
2.26521 3.94667 8.19832
7.65685 0.385234 6.07589
7.39912 0.283967 7.19774
0.582744 9.47806 2.61084
3.21719 7.91229 10
9.49665 6.66625 2.09905
1.6355 3.31975 6.46605
2.7239 0.617541 7.74679
7.73984 0 7.07021
3.27228 6.30315 2.78323
4.75149 4.84036 6.17224
9.57216 3.46879 5.81462
7.886 0.8449 6.31668
8.69568 7.78752 1.92614
3.29406 4.09663 8.25168
8.22304 6.17984 4.97714
0.405687 0 7.6694
0.996856 0.238758 8.6412
7.54193 0.25456 7.42072
7.16252 0.253039 7.32693
1.26537 7.75305 9.37996
7.48205 0.0804895 6.12438
2.70888 0.396787 9.311
8.00081 4.89291 2.12408
7.75858 0.3357 7.25706
2.03145 9.35364 2.41051
8.43061 2.01733 1.99779
6.09831 8.52227 1.21111
0.864434 0.269111 0.884732
1.9569 1.05216 9.91092
3.86335 5.23943 0.352885
7.37043 3.93232 2.56798
7.58791 0.253358 7.329
7.652 0 9.48453
0.270476 8.28895 2.69802
9.6982 9.57827 1.50944
1.81342 7.41367 5.96578
7.64359 9.79857 1.64981
0.903556 0.270384 8.71115
7.107 0.14914 7.34037
4.93313 0.864483 3.70481
9.42344 1.14605 1.85027
7.58382 0.0662606 7.69489
7.21352 0.316629 7.03016
0.346288 4.80698 8.32853
7.19006 0.31333 6.8921
7.35265 0.59033 7.28516
0.681608 6.55548 3.08487
5.69958 3.98963 6.99705
3.73746 8.05975 4.99706
7.63254 0.529862 7.10277
6.88785 5.67379 5.21955
1.82069 0.151901 6.86207
7.70992 0.6044 6.18725
7.77438 0.297457 7.35168
3.0152 8.26758 9.19038
0.633598 0.188462 8.89781
0.977859 0.124441 8.81822
7.57042 0.137777 6.94913
7.39469 0.26911 7.3051
4.53202 7.63083 5.25337
1.10062 0.441802 8.80456
1.1915 5.83621 0.181603
5.70028 9.37988 8.57601
6.20767 6.97296 0.187426
9.75201 1.40531 1.50575
0.827078 5.1997 0.33495
0.281754 0.7229 2.70966
7.24388 0.656298 7.17449
7.69919 0.103749 7.39782
7.8545 0.519575 7.06428
1.08865 0.434326 8.73948
2.80688 2.22147 0.835217
2.78971 7.08346 9.8059
7.14267 0.87081 7.56394
7.44113 0.111578 6.81973
7.49648 0.447558 7.25889
6.17972 1.62424 6.99126
7.49993 0.410657 6.76988
1.75489 7.78539 7.05611
1.05105 0.314693 8.66513
7.69921 0.265571 6.67462
7.63413 0.457395 7.37115
7.56821 8.2387 2.35625
7.83098 7.74318 0.504121
7.11155 0.346937 7.04166
7.45585 0.0592687 7.3468
3.50185 8.17918 3.14718
7.39572 0.374473 7.18296
4.49655 1.28707 0.878749
8.91915 6.61615 5.47435
7.65319 0.136462 7.22402
9.63859 7.62764 5.19885
1.03115 5.96005 8.39612
3.98546 1.80651 8.45444
POINT_DATA 400
SCALARS particleColor float 3
LOOKUP_TABLE default
1 0.814975 0
0 0.610598 1
0.592068 1 0.407932
1 5.96046e-08 0
1 5.96046e-08 0
1 0.369098 0
1 0.111729 0
0.786979 1 0.213021
0.598432 1 0.401568
0.395684 1 0.604316
1 0.101499 0
1 0.0910446 0
1 0.780473 0
1 5.96046e-08 0
1 5.96046e-08 0
0.474699 1 0.525301
1 0.994382 0
0.679114 1 0.320886
0.160227 1 0.839773
1 5.96046e-08 0
0.969911 1 0.0300893
1 5.96046e-08 0
0.56171 1 0.43829
1 0.724089 0
1 5.96046e-08 0
0.849182 1 0.150818
1 5.96046e-08 0
1 5.96046e-08 0
1 0.573596 0
1 5.96046e-08 0
0.942123 1 0.0578772
0 0.551792 1
1 0.57055 0
1 5.96046e-08 0
1 0.904923 0
1 5.96046e-08 0
1 5.96046e-08 0
1 0.89989 0
1 5.96046e-08 0
1 5.96046e-08 0
1 5.96046e-08 0
1 0.297597 0
1 5.96046e-08 0
1 5.96046e-08 0
0.566537 1 0.433463
1 0.683861 0
1 5.96046e-08 0
0 0.900792 1
0 0.775151 1
1 0.0111967 0
0.338365 1 0.661635
1 5.96046e-08 0
1 0.75578 0
0.551461 1 0.448539
1 5.96046e-08 0
1 0.378013 0
1 5.96046e-08 0
0 0.983239 1
0 0.425923 1
1 0.943842 0
1 5.96046e-08 0
0.739826 1 0.260174
1 0.649778 0
1 0.628115 0
1 5.96046e-08 0
0.0691958 1 0.930804
0.654811 1 0.345189
0.931504 1 0.0684959
1 0.805527 0
0 0.602707 1
1 0.281771 0
0.351277 1 0.648723
1 0.209414 0
1 0.0251003 0
1 5.96046e-08 0
0.801533 1 0.198467
0 0.717198 1
1 5.96046e-08 0
0.544886 1 0.455114
1 0.0862084 0
0.00389878 1 0.996101
0.928289 1 0.0717109
1 5.96046e-08 0
1 5.96046e-08 0
1 5.96046e-08 0
1 5.96046e-08 0
0.127154 1 0.872846
1 5.96046e-08 0
1 5.96046e-08 0
1 0.781242 0
1 5.96046e-08 0
0.475606 1 0.524394
1 5.96046e-08 0
0.899139 1 0.100861
1 5.96046e-08 0
1 5.96046e-08 0
1 5.96046e-08 0
0.746302 1 0.253698
1 0.936259 0
1 5.96046e-08 0
1 0.367087 0
1 0.78718 0
1 0.342409 0
1 0.850948 0
1 5.96046e-08 0
1 5.96046e-08 0
0.010062 1 0.989938
1 5.96046e-08 0
1 5.96046e-08 0
1 5.96046e-08 0
1 0.396421 0
1 5.96046e-08 0
0 0.713968 1
1 0.800676 0
1 0.892856 0
1 0.703264 0
0.954756 1 0.0452443
0.340283 1 0.659717
1 5.96046e-08 0
1 0.197327 0
1 5.96046e-08 0
1 5.96046e-08 0
1 0.949195 0
1 5.96046e-08 0
1 5.96046e-08 0
0.675553 1 0.324447
0.58488 1 0.41512
0 0.684079 1
0 0.967394 1
1 0.549877 0
0.902473 1 0.0975266
1 5.96046e-08 0
1 5.96046e-08 0
1 0.500392 0
1 5.96046e-08 0
1 5.96046e-08 0
0 0.913455 1
1 5.96046e-08 0
1 5.96046e-08 0
1 5.96046e-08 0
0 0.863764 1
1 0.441294 0
1 0.54351 0
1 5.96046e-08 0
1 0.968194 0
0.803643 1 0.196357
1 5.96046e-08 0
0.977014 1 0.0229855
1 5.96046e-08 0
0.747023 1 0.252977
0 0.506798 1
0 0.965208 1
1 5.96046e-08 0
0.16319 1 0.83681
1 0.11774 0
1 0.84599 0
0 0.644199 1
1 5.96046e-08 0
1 0.879433 0
1 5.96046e-08 0
1 0.96395 0
0.803673 1 0.196327
0.828337 1 0.171663
0 0.575248 1
1 5.96046e-08 0
1 5.96046e-08 0
0.87949 1 0.12051
0.670917 1 0.329083
0.395133 1 0.604867
1 5.96046e-08 0
0.99218 1 0.00781977
1 5.96046e-08 0
1 5.96046e-08 0
0.335009 1 0.664991
1 0.812581 0
1 5.96046e-08 0
1 5.96046e-08 0
1 0.472628 0
0.717189 1 0.282811
1 5.96046e-08 0
0.670625 1 0.329375
1 5.96046e-08 0
1 5.96046e-08 0
1 0.624693 0
0 0.70518 1
0.863641 1 0.136359
0 0.730693 1
1 5.96046e-08 0
0 0.90959 1
1 5.96046e-08 0
1 5.96046e-08 0
1 0.477355 0
1 0.508097 0
1 5.96046e-08 0
1 5.96046e-08 0
1 0.853647 0
0 0.867726 1
1 5.96046e-08 0
1 5.96046e-08 0
1 0.167111 0
0 0.575725 1
1 5.96046e-08 0
1 0.252585 0
1 0.688849 0
1 5.96046e-08 0
1 5.96046e-08 0
1 0.312875 0
0.0460221 1 0.953978
1 5.96046e-08 0
1 5.96046e-08 0
0.37914 1 0.62086
1 5.96046e-08 0
1 5.96046e-08 0
1 5.96046e-08 0
1 5.96046e-08 0
0.559085 1 0.440915
0.247274 1 0.752726
0.677967 1 0.322033
0.89452 1 0.10548
1 5.96046e-08 0
0.23887 1 0.76113
1 0.040072 0
0.672488 1 0.327512
0 0.459927 1
1 0.221102 0
0.22559 1 0.77441
1 0.934608 0
1 5.96046e-08 0
0 0.497191 1
1 5.96046e-08 0
1 5.96046e-08 0
0 0.566589 1
0 0.451635 1
0.327013 1 0.672987
1 0.67305 0
1 5.96046e-08 0
1 0.767428 0
1 0.0716109 0
0 0.71524 1
1 5.96046e-08 0
0.0203387 1 0.979661
0 0.445397 1
0.662066 1 0.337934
0.219353 1 0.780647
0.41525 1 0.58475
1 5.96046e-08 0
0.45369 1 0.54631
1 5.96046e-08 0
0 0.877738 1
1 5.96046e-08 0
0.703237 1 0.296763
0 0.923611 1
1 5.96046e-08 0
1 0.749284 0
1 0.903304 0
0.965142 1 0.0348582
1 0.888307 0
1 0.218728 0
0.875825 1 0.124175
0.274824 1 0.725176
0.659826 1 0.340174
1 0.141628 0
1 0.588045 0
1 0.110814 0
1 0.276263 0
0 0.85484 1
1 0.806182 0
1 0.718095 0
0.798238 1 0.201762
1 5.96046e-08 0
1 5.96046e-08 0
0.567177 1 0.432823
1 0.96399 0
1 5.96046e-08 0
1 5.96046e-08 0
1 5.96046e-08 0
1 5.96046e-08 0
1 5.96046e-08 0
1 5.96046e-08 0
0 0.946702 1
0.591011 1 0.408989
1 0.651312 0
1 0.47672 0
1 5.96046e-08 0
1 5.96046e-08 0
0.987089 1 0.0129113
1 0.624612 0
1 5.96046e-08 0
0.718506 1 0.281494
1 5.96046e-08 0
1 0.786881 0
1 0.450278 0
0 0.677701 1
1 0.763601 0
0 0.914624 1
0.0581839 1 0.941816
0 0.63073 1
0 0.764903 1
0 0.276497 1
0 0.142326 1
1 0.939138 0
1 0.696469 0
0 0.264611 1
0.0407312 1 0.959269
0 0.487646 1
0.756101 1 0.243899
0 0.327622 1
0 0.545844 1
1 0.234639 0
1 0.982134 0
1 0.699017 0
1 5.96046e-08 0
1 0.891333 0
0 0.41843 1
1 0.126959 0
0.878375 1 0.121625
1 0.875249 0
0 0.945773 1
1 5.96046e-08 0
1 0.693029 0
1 0.236307 0
0.93318 1 0.0668203
0 0.362343 1
0 0.400925 1
0 0.378337 1
1 0.121841 0
0 0.549872 1
1 0.389182 0
0.221429 1 0.778571
0 0.484409 1
0 0.909672 1
1 5.96046e-08 0
0.781796 1 0.218204
1 0.39578 0
1 0.90191 0
1 0.395448 0
1 5.96046e-08 0
0 0.519214 1
1 0.603368 0
0.14196 1 0.85804
0.431512 1 0.568488
0 0.6104 1
0.366143 1 0.633857
0 0.479991 1
0 0.786286 1
0.21 1 0.79
0 0.875251 1
0 0.653814 1
0 0.677591 1
1 0.778652 0
0 0.9998 1
0 0.817248 1
0.360581 1 0.639419
1 5.96046e-08 0
1 5.96046e-08 0
0 0.46941 1
1 5.96046e-08 0
1 0.0958701 0
0 0.742419 1
0 0.827881 1
1 5.96046e-08 0
0 0.539832 1
0 0.193628 1
0 0.354743 1
0 0.570201 1
1 5.96046e-08 0
0 0.557935 1
0.819712 1 0.180288
1 0.195168 0
0.589565 1 0.410435
0 0.315263 1
1 5.96046e-08 0
0.485005 1 0.514995
0.137459 1 0.862541
0 0.784726 1
0.743633 1 0.256367
0 0.311698 1
1 0.0513023 0
1 0.786466 0
0 0.54366 1
0 0.660477 1
0 0.866688 1
0.316192 1 0.683808
0 0.59598 1
1 5.96046e-08 0
0 0.431414 1
0 0.572352 1
0 0.837621 1
1 5.96046e-08 0
1 0.795233 0
0 0.587747 1
0 0.5216 1
0.872954 1 0.127046
0.120806 1 0.879194
1 0.603497 0
0 0.857939 1
0 0.547838 1
0.514303 1 0.485697
1 5.96046e-08 0
0 0.93447 1
