# vtk DataFile Version 3.0
Particle simulation
ASCII
DATASET POLYDATA
POINTS 400 float
9.48503 1.46343 9.72001
1.01951 8.28484 7.49088
0.869704 0.816079 5.79163
2.38042 0.431711 1.8693
9.09017 1.11958 2.98164
7.49995 6.88698 5.56071
9.75684 0.223428 1.34262
7.66854 3.94651 1.00843
7.84399 8.24525 6.48085
4.7751 0.719441 6.05212
8.62716 3.70313 1.80661
5.71194 0.620413 2.86189
9.91161 5.20353 9.81824
7.88618 0.615779 1.6713
4.48372 2.34298 0.769007
8.46397 5.40298 8.78676
0.964604 6.30126 0.14773
3.06428 0.372536 1.36068
1.29038 2.8549 0.356007
1.92513 1.5476 6.17433
2.52864 0.268348 1.84174
9.43948 0.773577 6.72378
9.51069 2.49522 9.82199
2.82481 1.27415 1.95846
5.8628 5.38499 3.63217
3.66205 0.0761639 1.0638
4.89594 7.41385 6.35836
1.37919 0.0883566 1.41861
8.19008 0.986341 7.26511
5.50949 1.19715 0.263969
7.18668 8.16932 8.16069
5.69446 3.58652 9.19996
8.98556 0.543198 7.89152
4.69364 0.659065 0.117979
5.29702 0.987817 1.92101
1.41273 2.6654 0.876231
1.80536 10 3.06675
3.51026 0.376667 1.78298
5.87918 0.459385 1.25059
1.12557 2.23517 3.86303
3.69348 0.22954 4.28769
9.77013 0.193114 5.83463
8.23466 4.39295 8.7989
0.17231 4.33042 9.30876
7.36046 0.806786 6.71697
6.00192 0.147006 1.63284
4.86713 0.436696 6.29473
3.43098 0.33432 2.60256
6.71048 0.255165 1.86056
6.37936 3.91266 0.241198
0.916685 3.46846 3.06458
7.59723 9.39527 6.13977
9.63013 0.612035 7.97247
4.69672 0.233727 6.28725
9.2089 0.205025 7.81807
6.67665 0.277044 2.03867
7.82977 0.685718 8.22219
0.944852 0.810323 5.58102
6.43045 0.493035 1.63874
8.56404 9.47271 0
9.4076 6.82127 5.64841
6.26898 1.40242 9.33653
1.72282 0.251624 3.62888
4.55354 0.709584 6.3648
5.62607 8.17777 3.98411
2.60599 0.441929 2.04029
5.98948 0.583406 8.11853
1.04948 3.41247 2.72222
6.55855 0.573216 1.8852
4.60166 0.43513 8.72603
7.74183 0.559577 8.57653
3.55103 0.436248 2.04518
6.68311 6.95539 2.75785
4.81669 0.579068 6.18145
8.85739 0.118513 7.54774
7.51843 0.811653 4.50662
6.1165 0.603934 8.1094
5.14183 0.668726 8.86056
7.72577 2.03815 1.22133
0.995656 8.23824 9.76651
3.36063 0.502521 1.99371
3.62547 0.860391 2.00229
4.06977 0.363731 3.02022
2.05591 0.568691 1.7586
5.18555 0.791687 9.69318
5.78881 0.970548 8.95977
6.05288 1.2825 9.39982
6.34819 2.3408 1.45722
8.96286 3.44863 1.63109
9.00165 0.228393 1.85972
3.26504 0.740533 2.16948
3.29606 0.538305 2.09535
0.938553 0.754893 7.44597
1.96847 0.541354 1.78177
5.19001 0.758675 9.54022
5.16527 0.92578 9.11473
6.39261 0.754408 8.43168
0.0409369 0.667279 1.35799
8.64334 0.0912094 8.34829
9.04696 0.215197 1.86273
3.71792 1.26225 1.50865
4.4766 1.39329 0.787172
0.571459 2.22661 1.33958
9.87178 0.0643644 9.94672
7.23275 6.93302 0
3.37691 0.535903 1.8315
4.64477 0.412874 8.40497
6.78693 0.308415 2.25751
6.31713 0.263279 1.78866
9.25563 0 1.54419
7.79544 8.77909 9.73561
4.93471 0.295777 6.59709
2.5108 0.46098 2.6484
9.40287 0.333432 2.07828
3.6154 0.484259 1.8436
2.32183 0.264654 3.81376
5.76799 0.621785 8.76025
6.07077 0.152357 2.16419
6.27122 0.18978 1.77713
6.1373 1.15526 4.43405
3.45114 0.52742 1.91451
4.73782 8.68036 1.19329
6.96097 7.70831 8.75782
8.16786 0.569693 3.97927
9.1138 0.75711 7.84963
2.85029 0.80225 2.42999
3.20671 0.206123 1.56794
4.78212 0.68696 6.04114
9.02919 3.07395 4.08187
0.584065 3.09115 7.85205
3.20689 0.789319 2.09515
6.48397 2.64095 1.54944
4.9103 0.250444 8.49509
7.1883 0.774315 6.34671
9.60035 0 1.14516
2.66233 0.128657 1.01844
8.73677 9.32152 2.70876
4.75419 0.603937 6.15905
3.76382 1.90153 9.02136
9.33818 0.32852 8.14795
3.13068 0.435849 1.94092
5.04314 0.3265 8.84877
0 4.52432 2.55118
6.25967 1.12906 4.52251
3.46269 0.300529 2.00751
2.088 0.148438 1.62978
7.05174 0.794238 6.14209
0.886792 4.32588 0.950375
2.3735 0.704845 1.25702
4.02423 0.229408 0.362173
3.12053 0.443735 1.94476
8.49399 0.730299 6.97465
4.8657 1.78634 0.624943
4.73572 0.436607 8.60126
4.05044 4.27038 0.375665
5.40341 0.829068 1.71688
8.47029 0.79096 6.67588
3.75031 0.647209 1.59116
6.91659 0.73607 6.5982
2.01198 0.651097 2.04204
1.07195 2.22022 1.09379
0.857364 0.641083 5.55253
5.61381 0.647926 9.04872
3.71204 0.734966 1.93202
0.972113 3.59428 2.85351
9.42098 0.498639 8.0022
5.26772 0.803235 8.15663
5.75169 0.696705 8.58501
6.20492 4.47076 5.9672
9.00333 8.66783 8.17764
3.92971 0.811102 1.49966
3.19696 0.269745 2.15523
6.04883 0.723456 3.08574
3.09624 0.245715 1.4689
2.37119 0.0879847 1.20965
1.2248 2.41159 0.315093
5.59279 0.504246 8.98762
5.06862 0.655565 8.20435
5.75621 0.833141 8.51831
4.01295 3.24315 9.12271
2.09825 0.583405 1.75154
3.07339 0.251468 2.99606
9.85262 5.34328 7.58441
3.49264 0 2.1329
5.70671 0.346565 8.64641
3.48818 0.793277 2.10586
2.60937 0.789752 1.38351
1.03628 0.996104 7.53935
7.18957 1.11464 6.04918
2.09867 0.19881 1.4765
1.97609 0.593793 1.7929
2.38094 0.0828215 1.28218
5.64551 0.091382 8.36524
1.93684 3.62306 4.27859
1.76483 6.4434 8.88331
2.50113 0.440376 1.35913
2.02887 0.574206 2.48515
6.87192 5.29572 8.48153
2.42098 0.157312 1.35646
3.75651 0.440982 1.43593
3.48496 0.664619 2.09096
6.35938 0.311913 1.86541
6.79458 0.669995 6.50043
4.90526 0.207531 8.32087
7.93245 4.1273 3.40609
5.72693 0.834013 8.86637
3.32532 0.469716 2.30175
0.610143 0.513063 5.55088
0.935319 0.569653 5.35596
9.12216 0.265295 2.17911
2.40639 0.412783 1.79198
5.77668 0.433702 1.96456
5.62567 0.122217 9.25283
8.95507 0.342977 8.04946
4.05663 1.05172 6.4851
5.84482 0.659224 8.90215
3.34806 0.440992 2.33646
4.02556 0.744131 1.65362
2.9846 0.280512 1.16409
9.23856 0.210949 1.7593
5.55612 0.548016 9.21866
5.22856 0.390714 8.69912
4.65334 0.5539 8.58549
3.64675 0.656267 1.58155
5.61795 0.482128 8.65442
3.22035 0.537995 1.52455
1.61404 2.67434 0.846109
2.29802 0.20391 1.43442
2.08794 0.286462 1.56344
6.56009 0.662176 8.11185
4.7526 0.313894 5.57281
6.1874 0.757186 8.32015
7.0324 0.969623 6.33714
3.23532 0.336267 1.56149
6.36692 0.524371 8.06954
3.51579 1.19061 1.35998
6.85185 0.366148 7.39754
2.55247 0.560499 1.79832
2.71763 0.391469 1.48924
0.918079 0.468377 5.46606
2.09173 0.244994 2.71191
4.05934 0.81727 1.94852
3.52054 0.880816 2.0341
2.01249 0.595018 2.25463
6.49559 0.489522 8.54008
3.36903 0.120418 2.83972
1.67182 1.03395 2.39857
4.02029 0.207534 8.23263
6.82533 0.454006 1.95218
5.37088 0.353564 8.81545
3.31319 0.510628 1.72585
3.81393 0.0959794 0.484388
5.44579 0.42408 8.52955
2.81325 0.109936 1.53148
6.99767 0.956412 6.15386
3.31452 0.464837 1.57033
9.25288 0.218458 1.56974
4.59466 0.420096 8.36172
6.03078 0.15885 2.01353
5.4082 0.296351 8.80622
2.18164 0.667041 1.62125
2.85357 8.32959 5.79888
5.19295 0.500829 8.297
6.60891 2.17765 1.31999
6.08318 0.457473 8.59777
0.081677 4.29402 9.09629
4.3833 0.233773 1.10627
5.50759 0.662729 8.33219
7.14303 0.803346 6.50045
3.46442 0.42755 2.04247
3.2396 0.5459 2.25376
3.0997 1.25841 3.46341
5.2475 1.14218 1.98249
4.30115 0.733984 1.61818
5.14045 0.502506 8.46371
4.71573 0.54479 8.09812
4.513 0.815457 6.25428
4.65089 9.06489 6.9493
7.21278 0.409408 7.28289
1.95954 0.554303 1.805
8.93039 0.309229 1.99012
5.89266 0.263181 1.9425
6.9143 2.17644 1.02294
4.78322 0.405594 6.03505
5.99892 0.967241 4.28047
7.20202 0.557755 6.18331
3.54694 0.430656 1.79819
2.58091 0.956699 2.0888
9.04827 0.177681 8.00991
9.3431 6.6421 3.1669
7.94611 0 1.37137
6.70254 0.371329 1.60288
1.8467 0.461397 1.58758
4.57228 0.631865 6.18835
5.27509 0.73667 8.90241
5.75366 0.2105 8.55486
2.9948 0.925324 2.34414
3.53173 0.899645 1.7073
4.43291 0.508812 0.884112
3.56279 0.636368 1.43526
8.94621 0.36555 2.11738
9.02973 0.227729 8.04621
1.90954 0.423111 4.02238
6.29249 0.398085 1.59105
3.67288 0.321762 1.25089
1.4527 0.723583 2.21587
1.74282 1.17969 1.41942
2.26465 0.440976 1.57322
2.10292 0.109783 3.74951
2.73226 0.180261 1.61193
6.40581 0.44614 7.36261
8.44681 0.774179 6.93663
7.31696 0.9234 6.49258
2.08176 0.775156 2.27404
3.40499 1.0276 2.50725
5.84513 0.859796 9.32045
1.92471 0.832678 1.16074
5.36391 0.367171 1.58777
6.23682 0.396628 1.58784
3.88134 0.646837 2.0945
5.65867 0.0745101 8.4116
3.49529 0.342804 2.09738
5.9107 0.333557 8.63156
2.17544 0.14877 1.11092
9.29782 0.241773 2.10608
8.92234 0.180717 1.88058
2.02198 0.587646 2.15327
5.81636 0.458912 1.97072
9.31122 0.154497 1.71213
2.025 0.520305 2.26063
5.70221 0.182531 8.22312
3.40713 0.368404 2.25299
5.52065 0.518691 8.34222
3.54163 0.765273 1.77063
9.03216 0.207855 1.82575
4.33883 0.288694 7.95513
5.58565 1.2222 1.73757
2.08618 0.270445 1.51278
8.51139 0.44898 2.48627
3.938 0.906197 2.19066
6.09421 0.732711 8.90676
3.99611 0.135261 1.79923
5.57841 0.143798 8.67284
4.58487 0.596651 8.40445
3.44274 0.578205 1.7803
3.40005 0.590873 1.66567
6.66077 0.218965 1.8553
2.17027 0.456485 1.51862
3.40787 0.512373 1.76459
3.17346 0.75528 2.47176
3.38769 0.631622 1.95524
3.80709 0.547172 2.25694
5.84021 0.202695 8.15201
4.515 0.5485 8.30969
2.21121 0.57608 1.2912
1.9568 0.410647 1.91687
6.08858 0.342976 1.821
4.7818 0.588147 9.33173
3.33307 0.708053 2.34824
3.52621 0.623045 1.85689
6.21195 0.315006 1.52099
6.12565 0.493522 8.13922
5.36493 0.601115 8.66767
2.09184 0.409381 1.26065
2.58913 0.329919 1.73764
6.92376 0.872592 6.3994
5.64024 0.540217 8.93242
4.6168 0.555329 9.10984
5.53547 0.184102 8.8536
1.76022 0.741241 2.09554
6.19275 0.409169 1.51437
8.56669 0.841482 7.05616
5.64285 0.528807 8.48494
2.01778 0.612557 2.21148
2.94321 0.792419 2.08373
7.03325 0.976185 6.44658
5.23801 0.667413 8.78573
5.80951 0.455142 8.62328
5.92381 0.890662 9.0049
3.42474 0.333584 1.72416
2.37058 0.188389 1.11743
1.9117 0.508164 1.84329
5.57666 0.69079 8.95257
3.53708 0.220157 1.58808
4.83232 0.809782 6.21621
5.86538 0.826704 8.73206
3.33075 0.432682 2.01421
3.85929 0.648317 1.79443
4.82428 0.379195 5.37733
5.74313 0.396636 2.19679
2.39003 0.193481 1.14899
2.12056 0.45495 1.80717
5.81914 0.448091 8.42339
3.06712 0.120718 1.81858
4.81411 0.849763 6.31718
6.24259 0.383681 8.66607
3.4181 0.42371 2.14389
3.73 0.802639 2.09323
8.40103 0.316751 2.18671
5.71493 0.409028 2.21367
POINT_DATA 400
SCALARS particleColor float 3
LOOKUP_TABLE default
0 0.362122 1
1 5.96046e-08 0
0 0.499023 1
0 0.436811 1
0 0.160069 1
1 0.808991 0
0.563552 1 0.436448
0 0.672498 1
0.21709 1 0.78291
0 0.507301 1
0.40281 1 0.59719
0.100056 1 0.899944
0.0463788 1 0.953621
0 0.654881 1
0 0.5899 1
0 0.63306 1
0 0.256069 1
0 0.341031 1
0.40638 1 0.59362
0.51211 1 0.48789
0 0.551556 1
0.252259 1 0.747741
0 0.991078 1
0 0.930961 1
1 0.611786 0
0 0.341238 1
0.909786 1 0.0902143
0 0.421972 1
0 0.723162 1
0 0.903435 1
0 0.434899 1
0.595632 1 0.404368
0 0.716022 1
0 0.423621 1
0.486127 1 0.513873
0 0.501381 1
1 0.452026 0
0 0.241468 1
0 0.426395 1
0 0.406067 1
0 0.76131 1
0.0422629 1 0.957737
0 0.615647 1
0 0.410505 1
0 0.513727 1
0 0.466701 1
0 0.763711 1
0 0.571479 1
0 0.526772 1
1 0.273592 0
0 0.378301 1
0 0.210215 1
0 0.638016 1
0 0.999587 1
0 0.396472 1
0 0.262255 1
0 0.838207 1
0 0.858756 1
0 0.78639 1
0.574205 1 0.425795
1 5.96046e-08 0
0 0.705 1
0 0.817228 1
0 0.757814 1
0.0750571 1 0.924943
0 0.949645 1
0 0.962045 1
0 0.950223 1
0 0.364867 1
0 0.566803 1
0 0.871832 1
0 0.901065 1
1 5.96046e-08 0
0 0.544003 1
0 0.682222 1
0 0.39527 1
0 0.606366 1
0 0.457289 1
0 0.708413 1
0.301968 1 0.698032
0 0.734946 1
0 0.643456 1
0 0.624834 1
0 0.476631 1
0 0.632641 1
0 0.460305 1
0 0.911482 1
0.131937 1 0.868063
0 0.729806 1
0 0.713229 1
0 0.722672 1
0 0.909095 1
0 0.566485 1
0 0.500181 1
0 0.47434 1
0 0.219045 1
0 0.236897 1
0.0558341 1 0.944166
0 0.778071 1
0 0.59649 1
0 0.277208 1
0.142168 1 0.857832
0 0.456327 1
0 0.399375 1
0.499486 1 0.500514
0 0.161779 1
0 0.564719 1
0 0.447476 1
0 0.368012 1
0 0.416082 1
0.962054 1 0.0379461
0 0.628127 1
0 0.48266 1
0 0.647281 1
0 0.583378 1
0 0.795366 1
0 0.371926 1
0 0.730495 1
0 0.398873 1
0 0.811583 1
0 0.713212 1
1 0.245592 0
0.0429514 1 0.957049
0.0611703 1 0.93883
0.0224494 1 0.977551
0 0.441809 1
0 0.811698 1
0 0.871094 1
0.997325 1 0.00267482
0.284469 1 0.715531
0 0.778983 1
0 0.829834 1
0 0.635667 1
0 0.139721 1
0.383914 1 0.616086
0 0.292177 1
0.352177 1 0.647823
0 0.742545 1
0 0.684112 1
0 0.73715 1
0 0.636296 1
0.107864 1 0.892136
1 5.96046e-08 0
0.14164 1 0.85836
0 0.77479 1
0 0.522011 1
0 0.421992 1
0 0.446005 1
0 0.571324 1
0.406014 1 0.593986
0 0.636692 1
0 0.433867 1
0 0.892776 1
0 0.241555 1
0 0.112298 1
0 0.692974 1
0 0.949509 1
0 0.555081 1
0 0.690355 1
0 0.518184 1
0.0892856 1 0.910714
0.156681 1 0.843319
0 0.68178 1
0 0.702634 1
0 0.57802 1
0 0.627823 1
0 0.271542 1
0 0.657208 1
0 0.349206 1
1 5.96046e-08 0
0 0.279319 1
0.0756965 1 0.924303
0.710171 1 0.289829
0 0.817373 1
0.0148571 1 0.985143
0 0.841378 1
0 0.446116 1
0 0.536423 1
0.0801122 1 0.919888
0 0.775439 1
0 0.483743 1
0 0.340815 1
0 0.589166 1
0 0.98714 1
0 0.901695 1
0 0.693296 1
0 0.566725 1
0 0.666082 1
0 0.884428 1
0 0.547303 1
0 0.392393 1
0 0.178301 1
0 0.846155 1
0 0.327143 1
0.664482 1 0.335518
0 0.556606 1
0 0.165323 1
0 0.426023 1
0 0.351037 1
0.00996165 1 0.990038
0 0.466315 1
0 0.608715 1
0 0.627742 1
0 0.613416 1
0.608774 1 0.391226
0 0.890477 1
0 0.538961 1
0 0.439002 1
0 0.828244 1
0 0.530308 1
0 0.17563 1
0 0.441923 1
0 0.725352 1
0 0.321918 1
0 0.461745 1
0 0.433031 1
0 0.605458 1
0 0.49951 1
0.159314 1 0.840686
0 0.844729 1
1 5.96046e-08 0
0.264986 1 0.735014
0 0.448331 1
0 0.220147 1
0 0.56975 1
0 0.333152 1
0.322585 1 0.677415
0 0.663378 1
0 0.686835 1
0 0.98669 1
0 0.824143 1
0 0.545024 1
0 0.699224 1
0 0.354692 1
0 0.702823 1
0 0.812821 1
0 0.885184 1
0 0.354004 1
0 0.475574 1
0.326797 1 0.673203
0 0.465333 1
0 0.831976 1
0 0.740345 1
0 0.738073 1
0 0.519354 1
0 0.854019 1
0 0.959452 1
0 0.784971 1
0 0.548093 1
0 0.212259 1
0 0.704 1
0 0.42004 1
0 0.399598 1
0 0.978622 1
0.151182 1 0.848818
0 0.581673 1
0.0158324 1 0.984168
0.189244 1 0.810756
0 0.261151 1
0 0.0925811 1
0 0.245736 1
0.0253827 1 0.974617
0.0273077 1 0.972692
0.180251 1 0.819749
0 0.506046 1
0.827993 1 0.172007
0 0.744698 1
0 0.576476 1
0 0.783423 1
0 0.514857 1
0 0.13627 1
0.634459 1 0.365541
0 0.628711 1
0.123145 1 0.876855
0 0.214256 1
0 0.753633 1
0 0.384622 1
0 0.27037 1
0 0.874295 1
0 0.461359 1
0 0.641912 1
0 0.707257 1
0.264252 1 0.735748
0 0.98296 1
0.129605 1 0.870395
0 0.802 1
0 0.561126 1
0 0.579434 1
0.117423 1 0.882577
0.38919 1 0.610811
0.15964 1 0.84036
0 0.192548 1
0 0.682738 1
0 0.50224 1
0 0.314337 1
0 0.976632 1
0 0.912932 1
0 0.564914 1
0 0.241685 1
0 0.76571 1
0 0.0994587 1
0 0.184064 1
0 0.315616 1
0 0.989773 1
0 0.66866 1
0.582784 1 0.417216
0 0.109273 1
0 0.338318 1
0 0.43757 1
0 0.366443 1
0 0.545652 1
0 0.649362 1
0 0.584574 1
0 0.617559 1
0 0.464143 1
0.185607 1 0.814393
0 0.735947 1
0 0.710448 1
0 0.665705 1
0 0.743775 1
0 0.80146 1
0.393629 1 0.606371
0 0.460084 1
0 0.529231 1
0 0.833035 1
0 0.892015 1
0 0.705908 1
0 0.742855 1
0 0.685665 1
0 0.519877 1
0 0.807018 1
0 0.654499 1
0 0.595004 1
0 0.170706 1
0.0739388 1 0.926061
0 0.402064 1
0 0.166022 1
0 0.751623 1
0.175774 1 0.824226
0 0.555175 1
0 0.875994 1
0 0.625146 1
0 0.471436 1
0 0.415775 1
0 0.667924 1
0 0.435339 1
0 0.428116 1
0 0.626917 1
0 0.376346 1
0.0131591 1 0.986841
0.559059 1 0.440941
0 0.422202 1
0 0.512412 1
0 0.573234 1
0 0.763094 1
0 0.802489 1
0.117816 1 0.882184
0 0.409861 1
0 0.666975 1
0.0241178 1 0.975882
0 0.171671 1
0 0.98007 1
0 0.865607 1
0 0.805734 1
0 0.815806 1
0 0.591585 1
0 0.262909 1
0 0.449369 1
0 0.586124 1
0 0.969266 1
0 0.388701 1
0 0.36163 1
0 0.659292 1
0 0.919376 1
0 0.604081 1
0 0.282018 1
0 0.521858 1
0 0.739316 1
0 0.569934 1
0 0.752735 1
0 0.443685 1
0 0.536278 1
0 0.581323 1
0 0.595525 1
0 0.694522 1
0 0.682006 1
0 0.688304 1
0 0.356133 1
0.138018 1 0.861982
0 0.180481 1
0 0.130435 1
0 0.44278 1
0 0.710126 1
0 0.196769 1
0 0.777057 1
0 0.626468 1
0 0.643919 1
0 0.946068 1
0 0.589946 1
0 0.248384 1
