# vtk DataFile Version 3.0
Particle simulation
ASCII
DATASET POLYDATA
POINTS 400 float
2.25036 0.982329 5.23886
2.13013 3.88082 2.30123
0.365553 2.48675 2.08412
2.16813 0.542767 0.716435
9.82519 1.47614 3.24957
7.32734 4.24896 4.70964
8.82231 3.90029 0.73329
1.80037 4.66202 2.54824
6.00034 1.80309 1.99853
9.00511 0.230209 3.28898
1.88181 0.426516 0.775361
1.86429 2.14323 2.5139
1.62329 1.46654 3.40984
1.90937 0.583231 0.692006
9.75721 1.53268 3.0346
7.2389 5.31077 9.92952
4.02552 4.36522 0.856798
2.236 0.564514 1.38604
3.95128 6.8496 6.14667
9.05073 0.30806 3.32019
2.65736 0.470244 2.8616
6.3449 2.6255 9.93114
1.96782 2.68392 7.60693
8.7854 0.623924 3.42781
7.49218 5.65959 8.544
2.65044 0.326729 0
9.2141 0.155005 6.30561
2.02639 1.89368 3.7757
4.55049 0.974459 4.43444
2.21084 0.752726 2.495
8.02736 2.34227 2.43394
9.09377 0.414604 1.52736
2.35138 2.32044 8.2095
8.77799 0.605408 3.37573
2.07963 2.09733 2.94866
2.27595 0.56124 0.338014
7.31243 0.249956 8.21323
2.75822 0.279633 2.26621
5.34202 0.978643 2.19584
1.17769 1.02463 2.02757
3.37268 0.181322 1.24124
7.21286 4.61711 3.38581
5.29725 4.11706 4.29921
9.56791 2.67101 3.25547
8.95554 0.211772 9.76049
5.38945 0.389369 1.9723
9.88064 1.22568 3.05311
2.15436 0.893677 1.09903
5.40809 0.3766 1.91763
1.16131 0.175138 0.831276
0.607757 2.4958 1.78607
7.24353 4.54172 3.41059
5.47357 0.158193 4.89192
8.91591 0.176813 3.40044
9.0384 0.223768 9.67171
5.43379 0.440124 2.08754
3.93729 0.40579 8.23631
2.361 0.430432 0.413965
5.43669 0.348504 1.86426
1.45762 0.549188 8.69243
4.63756 0.834108 5.40972
4.47554 0.507638 5.97972
1.6297 0.677211 8.84612
8.98219 0.359693 3.25066
6.59334 0.332471 6.59361
7.19581 1.35034 7.54621
4.44312 1.38019 4.41035
0.438354 2.34433 1.61355
5.41436 0.655532 1.84542
4.24764 0.208853 7.89378
4.43887 0.920245 6.13709
1.98466 2.41645 2.56863
6.81754 0.0163194 9.73383
9.00393 0.35268 3.26896
7.68779 0.625952 8.87929
3.66711 0.323357 7.9573
4.45224 1.41636 4.43931
4.01414 0.666343 8.06264
5.44042 0.373533 1.84126
4.76966 0.363989 7.34871
2.70792 0.385446 2.0728
1.4608 1.18395 2.83983
1.63894 2.22628 2.30936
2.84962 0.348814 1.79946
5.1941 0.69345 6.95068
5.08076 0.716316 7.97135
5.0928 0.736596 6.8381
3.6315 0.867033 2.12849
4.48598 1.4983 1.40523
9.21275 0.247167 1.34745
2.55269 0.325942 2.25403
1.89806 0.625452 2.57793
2.90696 1.80375 6.48745
2.87244 0.363491 1.80553
5.19023 0.679167 6.99719
5.08427 0.698711 7.98062
3.86375 0.226307 7.96127
2.22855 1.03117 0.435056
5.12274 0.372807 7.79061
9.26556 0.271318 1.36368
2.69815 0.923532 2.05387
0.132578 0.371365 8.07593
2.56336 0.319287 1.98422
7.00442 1.85652 3.38875
9.14346 0.379328 0
2.14862 0.696317 0.435091
5.25928 0.52027 7.42319
5.27562 0.411084 2.08594
5.42171 0.408543 1.89551
9.97858 0.428926 0.187427
0.444308 2.41826 1.45764
8.88406 0.932394 3.28076
1.59876 0.555324 0.622456
9.0136 0.137563 1.17362
2.02925 0.277953 0.878265
1.84522 0.661642 0.977218
4.18466 0.155615 7.98233
5.05561 0.0933922 1.62974
5.48994 0.376457 1.79028
2.78531 0.0134424 0.0747098
2.9601 0.428469 2.15645
7.79314 2.38541 2.74591
3.57613 0.314067 8.31234
4.62679 0.202534 5.64288
0.787206 1.18074 8.78523
2.02938 0.845144 2.86596
1.45877 0.528213 1.00766
9.1513 0.640578 3.36342
2.72405 2.77172 9.86544
1.34991 1.16455 3.04042
3.03474 0.331456 2.15875
5.32772 0.355211 1.93739
5.23168 0.981283 7.22862
4.54099 1.00981 4.56134
3.12527 0.445818 8.16397
2.42953 1.11224 2.80375
8.68464 0.647644 6.97983
9.14215 0.658756 3.37423
3.88665 0.276472 7.7286
5.3994 0.65137 4.86483
2.19026 0.548753 1.74766
5.21905 0.885462 4.75515
2.09399 0.752847 2.01384
2.40268 0.325417 2.06151
2.5606 0.216494 2.37509
2.00568 0.535275 0.894627
9.51605 0.143942 9.36702
2.51508 0.630789 2.2825
2.01539 0.555297 1.65999
3.6932 0.301725 2.35123
2.19891 0.540376 1.74951
5.45825 0.796987 4.75372
2.06587 0.971349 3.36401
4.44151 0.738303 5.37156
2.16643 0.788396 1.08977
2.42605 0.712224 0.699562
8.75421 0.25211 9.86132
2.65162 0.508918 1.85783
5.60121 0.644098 5.17087
1.82657 0.77562 0.617768
3.18712 0.281839 2.5153
0.305241 2.50372 1.37213
5.38102 0.719221 6.8201
2.69209 0.893792 2.35741
0.592201 2.48815 1.81147
5.48074 0.699338 4.9093
4.3979 0.240432 7.69609
4.66221 0.509865 7.82302
6.28665 0.90547 8.24989
6.75922 5.59933 0.7181
3.09142 0.203422 2.4189
2.15858 0.823441 0.802207
5.19482 1.16205 6.92862
2.02677 2.38054 2.3204
2.69778 0.757005 2.39976
3.28245 0.728809 0.870259
3.97511 0.122036 7.86019
4.0505 0.203953 7.7756
3.74093 0.293954 7.95503
3.78881 0.901139 2.21661
2.8629 0.233826 1.75657
2.13749 0.845154 3.00183
6.34685 1.04262 8.38008
1.86799 1.96609 2.68732
4.63885 0.271801 7.89103
2.07009 0.214398 1.5722
2.21913 0.0676995 1.64802
2.8146 2.09204 6.4393
2.74076 0.517201 0.2385
2.62164 0.634583 2.58252
2.86822 0.246003 1.771
2.30658 0.708211 1.50146
5.36858 0.964436 6.80299
1.98695 2.05054 0.156404
3.887 1.65608 8.52845
2.7987 0.286667 2.46906
1.5845 0.43713 2.07894
1.60327 4.20026 5.28276
1.93898 0.772426 2.9004
2.15908 0.680612 2.92788
1.79264 0.439426 2.15842
5.54458 0.527364 1.58783
6.77101 0.71542 8.67411
4.32817 0.834423 5.42287
3.37812 0.340853 8.71356
4.44767 0.0672375 7.86136
2.1033 0.749194 1.36405
1.22362 1.62248 2.75887
3.38996 0.595291 0.466051
9.47104 0.376445 1.32269
2.13338 0.278544 1.72161
5.71388 0.755292 2.23646
4.78841 1.12004 6.98015
5.53153 0.267175 5.01659
3.54745 0.259806 8.88487
4.45214 0.102689 7.85503
2.10892 0.76571 1.35245
2.75798 0.157762 0.110477
2.38859 0.652162 0.925887
9.34688 0.332845 1.2034
9.77994 3.99441 3.74498
0.564953 1.15989 8.47687
5.31055 0.569513 6.90926
2.67782 0.544162 1.94629
4.54645 0.0973864 7.86038
1.901 1.39937 2.88935
8.64996 0.435621 3.83571
2.56223 0.563166 2.82166
2.94009 0.21498 2.13022
4.65795 0.283566 5.23728
8.97492 0.967536 3.19191
4.81676 0.708267 7.89411
8.80221 0.203523 9.80205
2.75285 0.393552 1.96917
5.38452 1.06238 6.85152
3.01072 0.357636 2.54
8.46666 0.226295 9.85281
1.12301 1.85341 3.08358
3.33752 1.10408 0.507454
2.44961 0.304884 2.60016
2.82346 0.43294 2.10507
2.58528 0.119997 1.63051
2.19822 0.836973 1.2608
2.0476 0.493498 2.00353
4.39497 0.678332 8.10373
2.39105 1.22855 3.2543
3.28621 0.187386 2.29968
3.93842 0.710372 8.12433
5.36289 0.186864 1.95802
4.26966 0.282135 8.04079
2.53326 0.746095 1.80989
4.98183 0.379681 1.5976
4.1116 0.476576 8.239
1.69617 0.654241 2.48697
8.33603 0.153058 9.82933
3.01572 0.227099 1.98241
9.33445 0.335408 1.56424
3.56154 0.0827637 7.90388
5.38783 0.249359 1.99226
4.28628 0.30398 8.06743
3.22716 0.248884 1.97035
9.61174 3.67208 3.75194
4.75788 0.802801 5.38793
9.32032 0.376957 3.04448
3.45116 0.333723 8.40019
1.32915 0.93379 0.633966
8.62968 0.370402 1.62247
3.90862 1.16082 8.3278
8.62828 0.068279 9.56545
2.57518 0.249412 0.525756
3.05202 0.297149 2.29745
9.84966 3.61995 3.64755
1.76031 0.970418 3.49378
9.30951 0.668992 2.95323
4.3929 0.978697 7.79536
5.6107 0.712574 7.37316
8.41072 0.537717 3.43384
7.94335 6.07513 9.81506
8.79251 0.416885 9.94091
2.98408 0.480321 1.80923
9.75589 0.18606 0.219794
5.43633 0.238905 1.57269
5.25647 0.120631 1.93233
9.24392 0.255708 3.38314
6.64725 0.472079 8.88457
7.44951 0.988606 8.46171
2.03964 0.651393 2.85819
2.53755 0.490543 0.94318
5.6726 0.366323 4.75388
6.72528 0.957728 9.06992
9.81936 0.216248 0.145617
5.15895 0.239592 1.89844
1.72379 0.834323 0.698335
9.03768 0.380792 3.43163
3.99612 1.46389 8.2754
4.07062 1.12607 8.05683
1.64912 0.48957 1.03669
2.11771 2.0396 2.66181
2.98714 0 1.87235
2.5952 0.777127 2.5028
9.7163 0.412611 0.055055
5.58893 0.527197 5.21743
2.14447 0.546959 1.28691
5.25264 0.537994 2.56816
2.13371 1.1601 2.71283
5.65991 0.506741 1.80353
2.01674 0.76335 1.4031
2.04713 0.538675 1.53806
2.27963 1.05857 3.04981
2.26903 0.4323 0.308309
9.2893 0.528168 3.50254
5.5766 0.78713 5.10673
8.85798 0.279859 9.93001
1.75699 0.107631 2.01057
2.21086 1.14197 2.69582
8.88887 0.29129 1.7172
1.79036 0.461811 0.991312
5.47062 0.0806654 5.50649
5.42693 0.481222 2.1427
2.76683 0.144899 2.26022
5.08935 0.776846 5.0507
1.62791 1.23244 2.97962
3.9585 0.339761 8.16438
2.55154 0.1812 2.09774
9.19253 0.473215 1.18736
9.11786 0.137306 1.32862
2.62039 0.667861 1.94986
5.57131 0.395355 1.57337
9.53611 0.232106 1.11253
2.31346 0.690658 1.94936
5.13587 0.854696 5.0971
2.39339 0.563889 1.75303
4.30123 0.58174 8.14808
2.73173 0.107501 2.30375
9.42803 0.313045 1.3589
4.63859 0.428394 5.40058
1.60353 0.486912 0.871317
2.03823 1.15794 2.93579
9.77598 0.20167 1.28523
1.32681 0.303754 1.27026
4.45688 0.706794 5.52103
2.52165 0.608246 1.9037
5.46758 0.846305 6.98552
4.43453 0.748352 5.50585
1.93412 0.501928 1.77059
2.05329 0.400459 0.752518
5.26315 0.368551 1.62967
2.53634 0.26352 2.01851
2.05646 0.516651 0.916064
2.45088 0.190571 0.830747
1.74516 0.602321 0.577336
2.47522 0.442937 2.00858
5.43907 0.522026 6.78873
4.42948 0.754028 5.52144
2.35314 0.277044 1.93282
2.37714 0.868605 0.378536
5.09383 0.183236 1.38872
3.92622 0.486152 8.16606
1.90434 0.543322 0.851787
1.34202 1.20358 2.9115
5.14672 0.467552 2.10422
5.63046 0.609233 4.71657
3.68014 0.417851 8.24152
1.54233 0.606913 0.767845
1.39547 1.06296 1.10248
8.85056 0.206141 10
4.32858 0.745726 8.04408
4.66272 0.00512565 7.64499
4.04242 0.181961 7.87287
1.50022 1.22425 2.95445
5.14977 0.460108 2.12549
5.67635 0.621725 4.63481
5.16994 0.64537 6.79457
1.56263 0.46373 1.10382
1.52353 0.413299 1.34108
9.00985 0.201622 9.8772
4.31231 0.686539 8.04922
4.06009 0.359101 7.58816
4.07192 0.456616 8.22322
2.29254 0.602862 0.401621
1.76325 0.477272 0.796299
2.87143 0.314053 1.99767
3.97769 0.250472 7.99819
2.66347 0.365774 1.97817
8.75215 0.265301 3.02675
5.28435 0.981136 6.64193
1.8048 1.15546 3.08257
2.96859 0.461557 2.18537
9.335 0.452368 3.73973
5.53777 0.279779 1.35719
1.79361 0.468951 0.739209
2.88833 0.332775 2.13672
3.92009 0.234935 8.0889
2.58268 0.193314 2.23367
8.80477 0.279492 3.00797
5.20086 0.36165 6.99625
1.83112 1.12922 3.02946
2.76332 0.220469 1.62621
8.86325 0.356156 1.03588
5.54537 0.306932 1.35147
POINT_DATA 400
SCALARS particleColor float 3
LOOKUP_TABLE default
0.308996 1 0.691004
0 0.479308 1
0 0.975455 1
0 0.560553 1
0.21944 1 0.78056
0.989656 1 0.0103441
0 0.483085 1
0 0.152377 1
0 0.583397 1
0 0.218241 1
0 0.171903 1
0 0.996841 1
0 0.69621 1
0 0.967141 1
0 0.642606 1
0 0.462253 1
0 0.456643 1
0 0.969735 1
0.603071 1 0.396929
0 0.183171 1
0 0.856525 1
0 0.86651 1
1 0.991102 0
0 0.596748 1
0.030956 1 0.969044
0 0.71499 1
0 0.500754 1
0 0.568178 1
0 0.788289 1
0 0.515346 1
0 0.901423 1
0 0.845349 1
0 0.561288 1
0 0.705627 1
0 0.164539 1
0 0.500051 1
0 0.319264 1
0 0.415692 1
0 0.327108 1
0 0.602807 1
0 0.479777 1
0 0.736852 1
0 0.572588 1
0 0.691942 1
0 0.618031 1
0 0.687969 1
0.0454944 1 0.954506
0 0.639711 1
0 0.242545 1
1 5.96046e-08 0
0 0.363893 1
0 0.356396 1
0 0.602349 1
0 0.416372 1
0 0.874209 1
0 0.522784 1
0 0.461914 1
0 0.477105 1
0 0.110951 1
0 0.461975 1
0 0.384519 1
0 0.398908 1
0.695022 1 0.304978
0 0.595343 1
0 0.560009 1
0.00859255 1 0.991407
0 0.566775 1
0 0.946433 1
0 0.247591 1
0 0.380966 1
0 0.638236 1
0 0.628816 1
0 0.834714 1
0 0.562495 1
0 0.643956 1
0 0.858466 1
0 0.678916 1
0 0.549108 1
0 0.725314 1
0 0.459993 1
0 0.523328 1
0 0.191289 1
0 0.259872 1
0 0.296083 1
0 0.474031 1
0 0.828463 1
0 0.596654 1
0 0.862895 1
0 0.518822 1
0 0.51697 1
0 0.606187 1
0 0.578798 1
0 0.447085 1
0 0.243247 1
0 0.661041 1
0 0.594947 1
0.139318 1 0.860682
0 0.251262 1
0.0215715 1 0.978429
0 0.556608 1
0 0.524804 1
0.369311 1 0.630689
0 0.743285 1
0 0.805461 1
0 0.50603 1
0 0.453673 1
0 0.325811 1
0 0.779086 1
0 0.193277 1
0.264039 1 0.735961
0 0.607233 1
0 0.64798 1
0 0.308231 1
0 0.689912 1
0 0.365678 1
0 0.658345 1
0 0.473433 1
0 0.699032 1
0 0.233171 1
0 0.629423 1
0 0.340145 1
0 0.874242 1
0 0.537384 1
0 0.583754 1
0 0.902939 1
0 0.671177 1
0 0.3248 1
0 0.50086 1
0 0.536952 1
0 0.629341 1
0 0.248651 1
0 0.972901 1
0 0.547285 1
0 0.494995 1
0 0.451089 1
0 0.485375 1
0 0.873304 1
0 0.7234 1
0 0.567259 1
0 0.390652 1
0 0.363964 1
0 0.788067 1
0.186304 1 0.813696
0.104672 1 0.895328
0 0.194937 1
0 0.555862 1
0 0.942848 1
0 0.696711 1
0 0.701004 1
0 0.493232 1
0 0.35345 1
0 0.605903 1
0 0.833589 1
0 0.711847 1
0 0.857484 1
0 0.751118 1
0 0.882991 1
0 0.605127 1
0 0.475609 1
0 0.569846 1
0 0.378518 1
0 0.689925 1
0 0.827429 1
0 0.632393 1
0 0.56895 1
0 0.740949 1
0 0.437545 1
0 0.420926 1
0 0.483813 1
1 5.96046e-08 0
0 0.814001 1
0 0.831316 1
0 0.441334 1
0 0.670348 1
0 0.478678 1
0 0.69979 1
0 0.661656 1
0 0.544643 1
0 0.904892 1
0.0491073 1 0.950893
0 0.263889 1
0 0.24941 1
0.367742 1 0.632258
0 0.312886 1
0.00534265 1 0.994657
0 0.287825 1
0 0.462818 1
0.0556939 1 0.944306
0 0.737132 1
0 0.273013 1
0 0.158353 1
0 0.805988 1
0 0.667903 1
0 0.512121 1
0 0.600913 1
0 0.671502 1
0 0.383494 1
0 0.810505 1
0 0.501706 1
0 0.619599 1
0 0.491317 1
0 0.408595 1
0 0.5442 1
0 0.656276 1
0 0.623221 1
0 0.370547 1
0 0.413694 1
0 0.398216 1
0 0.250966 1
0 0.395895 1
0 0.376377 1
0 0.72694 1
0 0.998252 1
0 0.947422 1
0 0.461121 1
0 0.472875 1
0 0.482503 1
0 0.616859 1
0.0738665 1 0.926134
0 0.420925 1
0 0.62802 1
0.986105 1 0.0138951
0 0.460538 1
0 0.275092 1
0 0.976379 1
0 0.696877 1
0.202691 1 0.797309
0 0.430555 1
0 0.9124 1
0 0.33109 1
0 0.522404 1
0 0.791572 1
0 0.860474 1
0 0.382952 1
0 0.663603 1
0.245546 1 0.754454
0.332718 1 0.667282
0 0.55613 1
0 0.265492 1
0 0.822515 1
0 0.747166 1
0 0.370369 1
0 0.290644 1
0 0.457804 1
0 0.848607 1
0 0.528134 1
0 0.778753 1
0 0.537757 1
0 0.68046 1
0 0.266398 1
0 0.409612 1
0.279993 1 0.720007
0 0.354073 1
0 0.496696 1
0 0.487002 1
0 0.802831 1
0 0.219276 1
0 0.938092 1
0 0.580827 1
0 0.252612 1
0 0.896598 1
0 0.99975 1
0 0.931728 1
0 0.569771 1
0 0.789617 1
0 0.99115 1
0.217971 1 0.782029
0 0.734456 1
0 0.570257 1
0 0.846144 1
0 0.999907 1
0.430952 1 0.569048
0.0489417 1 0.951058
0 0.762895 1
0 0.191839 1
0 0.509942 1
0 0.892889 1
0.0163166 1 0.983683
0 0.82313 1
0 0.114122 1
0 0.225119 1
0 0.533742 1
0 0.980215 1
0 0.867888 1
0 0.493852 1
0 0.508417 1
0 0.923643 1
0 0.340504 1
0 0.240159 1
0 0.941509 1
0 0.610904 1
0 0.602059 1
0 0.795751 1
0 0.875039 1
0 0.336894 1
0 0.646526 1
0 0.44331 1
0 0.52648 1
0 0.432741 1
0 0.661035 1
0.326553 1 0.673447
0 0.360128 1
0.189971 1 0.810029
0 0.249716 1
0 0.584059 1
0.165324 1 0.834676
0 0.729727 1
0 0.742055 1
0 0.844928 1
0 0.800137 1
0.0236182 1 0.976382
0 0.671351 1
0.105639 1 0.894361
0 0.428931 1
0 0.689196 1
0 0.919247 1
0 0.892334 1
0 0.648355 1
0 0.662559 1
0.0762637 1 0.923736
0 0.55004 1
0 0.670204 1
0 0.762688 1
0 0.708627 1
0 0.0962206 1
0 0.880561 1
0 0.962133 1
0 0.975473 1
0 0.54195 1
0 0.719204 1
0 0.53707 1
0 0.478609 1
0 0.310277 1
0 0.43242 1
0 0.701028 1
0 0.544551 1
0 0.606563 1
0 0.536501 1
0 0.480416 1
0 0.779601 1
0.477761 1 0.522239
0 0.508572 1
0 0.205415 1
0 0.629085 1
0 0.320018 1
0 0.737323 1
0 0.610691 1
0.175268 1 0.824732
0 0.798958 1
0 0.500589 1
0 0.946499 1
0 0.616542 1
0 0.943178 1
0 0.685247 1
0 0.471276 1
0 0.493277 1
0 0.249986 1
0.165127 1 0.834873
0 0.688523 1
0 0.710864 1
0 0.708548 1
0 0.485715 1
0 0.696464 1
0 0.868036 1
0 0.182789 1
0 0.526605 1
0 0.542242 1
0 0.57734 1
0.131738 1 0.868262
0 0.977361 1
0 0.795271 1
0 0.25516 1
0 0.612375 1
0 0.223215 1
0.445817 1 0.554183
0 0.795375 1
0 0.659207 1
0 0.638988 1
0 0.974532 1
0.0382958 1 0.961704
0 0.482359 1
0 0.627193 1
0 0.882246 1
0 0.24688 1
0 0.888408 1
0 0.512098 1
0 0.681786 1
0 0.692274 1
0 0.768877 1
0 0.582898 1
0 0.650931 1
0 0.552166 1
0 0.717848 1
0 0.513484 1
0 0.839382 1
0 0.70626 1
0 0.558955 1
0 0.919216 1
0 0.816809 1
0 0.473118 1
