# vtk DataFile Version 3.0
Particle simulation
ASCII
DATASET POLYDATA
POINTS 400 float
4.42467 9.27324 9.8435
1.5092 6.66819 6.80786
1.55685 7.58249 3.27369
5.56977 2.52424 8.40255
9.95482 3.82544 8.73232
8.01731 8.43505 4.87439
7.43184 2.48526 7.16176
10 0.42335 1.70222
4.33071 3.693 4.50157
2.91057 1.33674 9.71557
0.639101 6.21795 4.93374
5.61497 6.1195 2.22126
9.17044 8.47499 9.79845
8.20924 3.64052 9.67697
9.84383 2.27025 4.61545
8.59718 9.89291 2.35062
4.32469 10 3.63617
4.19882 0.729896 2.62876
3.81927 5.07906 7.9479
4.23062 3.97658 9.41434
3.91822 0.510693 2.6147
2.19866 2.21266 3.85792
2.03867 0.842525 1.23443
4.757 1.80458 6.89172
1.35503 6.72273 3.26839
0.745534 2.10982 4.15655
1.14396 1.06965 9.32112
7.99864 3.71141 7.67342
7.4119 1.65932 9.44901
3.20957 3.86194 9.52561
1.31315 9.73029 5.13377
8.67093 3.4381 1.80505
7.68822 9.25441 0.122617
10 8.73687 4.88863
8.42771 9.84167 8.63701
9.39697 0 4.72834
3.3256 2.92129 3.54941
5.70868 0.372111 3.28591
5.88539 8.53216 7.145
9.56926 1.58978 9.52619
3.38868 3.23306 3.0686
8.40592 0.904511 9.90452
7.87644 1.19014 3.88465
4.06655 0 0.951389
1.22861 5.4964 9.75924
4.04563 2.98492 3.43538
3.52295 4.86042 0.994458
7.54452 6.57494 0.894743
5.6049 8.37061 2.85469
6.96051 9.38617 9.09755
8.01689 6.67456 1.87774
3.68595 2.97998 4.47249
8.53266 1.53785 2.04745
5.62516 8.49838 6.73322
10 4.49703 5.94764
1.36507 1.38975 5.5297
4.04233 7.00623 3.19165
0.857712 1.32328 9.62342
9.46255 4.56619 9.98292
2.33789 2.47587 7.60287
1.98983 6.84751 6.47294
8.84354 8.16536 2.10284
2.51859 4.43126 8.28769
2.86544 0.646333 7.79428
2.94844 0.147336 8.03457
3.11948 6.49573 7.91019
0.243708 4.03632 2.51724
1.21142 1.70448 2.75049
1.35427 6.59577 8.05157
2.90544 1.59938 4.86076
2.70321 8.03384 7.84028
2.67461 6.92808 4.50682
1.10762 10 6.26448
7.04141 4.99638 0.551854
6.20207 1.70543 3.04102
9.4339 0.142818 0.290524
8.64992 1.98171 7.40116
8.44089 7.60244 2.25083
5.1787 3.57024 6.30335
9.57556 6.96196 9.00605
4.17341 0.74371 3.80687
4.44517 4.20559 4.17856
8.61416 3.24174 2.7198
1.57761 7.86565 5.32674
8.28878 8.26406 5.43727
9.07907 9.32633 1.10103
2.03101 6.10027 3.84932
2.73387 0.729151 9.64476
0.231712 9.16321 8.55116
6.23595 6.79032 7.37499
3.85501 0.197772 2.70891
7.8906 7.34777 1.37325
5.3311 1.30907 8.67935
7.36839 8.50146 0.331861
7.4605 5.37996 7.12656
2.21785 0.491666 3.08977
0.339314 2.76045 0
7.1096 2.94352 8.0146
3.60321 4.8454 9.57295
8.92103 6.22722 6.40644
0.891277 9.82571 2.92076
5.47366 6.60537 2.02661
7.75461 1.82588 1.69748
3.38473 4.23967 8.3771
5.41227 3.98928 9.23044
5.97873 3.01931 5.08597
7.81205 0.989756 6.87937
0.630175 0.988808 6.29809
0.716204 9.62017 4.69462
9.72405 4.95101 6.9036
3.24509 4.07402 4.82269
9.15773 2.78198 3.49181
9.00473 3.09677 5.88947
3.87016 5.48513 4.53646
2.52715 0.226007 2.37077
2.56023 8.05042 5.75598
1.13743 0.785613 7.94846
7.64891 1.62587 5.15017
0.737479 1.43364 7.76425
2.79831 3.64968 1.83094
5.14768 1.99132 4.19122
8.87772 8.58557 8.9828
6.14663 8.35438 5.96508
7.29478 1.03388 1.61349
7.08053 4.07749 3.63527
2.86916 3.20832 3.01533
4.37384 0 3.51947
7.71641 6.07824 7.57532
8.38359 1.98738 7.4708
0.866577 7.52343 0.616439
7.86948 8.33654 7.14019
4.87492 2.10949 5.68938
0.449343 0.34407 8.47426
6.89108 4.92481 1.40297
1.29457 6.72257 8.20677
1.96057 9.74 9.95237
8.59184 9.66313 3.73221
8.43106 5.29193 8.62833
9.67508 0.311281 2.40279
9.70436 3.83277 0.807716
4.32963 0.498949 2.79971
0.718514 6.01108 4.13946
1.44156 3.1205 1.26703
8.70475 8.0688 7.55708
2.29863 9.84276 1.4948
0.939285 2.36055 4.49517
3.10222 9.8479 0.963864
7.18716 4.8027 6.13462
2.11423 4.66761 7.95518
6.68004 1.86381 0.374515
4.37941 0.55849 3.40819
10 3.57225 1.43702
8.67277 0.458439 8.1509
4.0823 0.543886 3.0654
6.04618 2.46885 8.32596
8.99613 9.63436 6.79759
9.47259 9.86082 9.98922
9.12839 4.68696 6.98841
1.64269 10 6.94008
7.61638 3.62134 10
9.61377 0.276229 8.36186
0.592355 0.129233 10
3.95324 5.18101 5.97581
4.30881 0.225553 9.79027
10 3.97465 0.593137
0.549937 0.0776879 8.59618
6.52884 3.20489 8.62607
6.36677 9.23914 4.18444
5.22733 5.42626 6.29076
2.82876 1.60703 10
4.10043 0.178429 3.59628
5.07517 4.48068 8.93846
9.71726 0.167432 10
2.77947 2.84994 10
9.14706 0 7.4293
1.23806 4.66064 6.5915
5.86657 8.87802 4.24017
2.94827 7.15681 5.70032
8.74258 6.06558 6.45216
2.82411 5.13929 5.46858
4.69346 0.270766 3.36464
3.41326 3.48762 3.48868
0 9.02531 3.23685
2.21549 8.48699 1.39008
8.49019 5.26661 9.69302
4.59544 6.18685 1.8101
4.12058 0.577495 3.09695
8.22917 4.5012 6.51934
2.76391 0.322991 2.50675
2.50967 0.0725743 3.0126
4.43182 0.514288 2.98668
4.16629 0.136566 3.55135
8.72731 9.47063 1.22595
0.65129 4.03825 5.29339
4.97358 3.94862 8.0618
3.35588 5.38652 9.18053
10 1.01222 5.94066
4.96684 0.67149 7.75141
6.44677 1.01333 4.55098
4.11014 0.569535 3.64256
4.21278 0.501289 2.98329
2.18703 1.84372 6.49042
2.61002 1.60761 6.25795
9.51272 4.56039 0.860628
5.34666 4.26849 2.20929
8.59277 1.38921 4.47332
5.52477 3.25838 4.37886
0.996805 3.44307 5.49598
1.76389 9.78607 2.7912
3.94398 6.67044 5.04226
4.40149 0.688623 3.04099
4.21344 0.638081 3.21432
2.58008 3.71432 3.27804
10 9.18254 7.24031
9.3986 0.734743 7.04109
5.36508 2.8754 4.6974
4.03109 0.374779 3.24491
6.83469 3.78477 6.64457
0.364979 7.88025 0.537095
1.7482 4.2808 4.08254
10 0.711624 3.71368
1.33391 8.37882 1.30772
8.91205 1.29539 7.79446
4.00072 0.404188 3.74818
1.52015 2.76819 6.09858
4.62278 2.82362 5.07336
0.936719 6.13027 8.18946
3.59633 0.804662 2.19204
4.34402 0.451847 2.84487
7.97278 4.41251 3.84142
2.64027 9.46174 9.37127
4.18381 8.54181 1.87966
7.37555 0.909508 1.43029
4.47614 0.46247 3.16709
1.37134 0.434279 8.39384
7.16827 5.67951 1.38891
1.41412 1.04068 9.5089
3.05608 7.60878 8.67493
4.05735 0.533722 3.28895
4.59266 3.26383 8.33573
4.40011 0.558367 3.30855
5.55898 0.0961968 2.89853
2.15373 0.718183 3.30066
4.44185 0.635867 2.91789
2.16646 8.08849 2.03896
8.91932 6.23418 9.2195
5.56353 6.03981 3.69596
8.84495 0.277042 2.30214
7.40312 8.80451 4.36136
1.12854 1.08155 3.55965
4.48161 0.569537 3.18591
8.50575 1.21446 9.63901
1.56245 2.57258 6.87721
9.88959 9.58352 3.65947
0.466425 1.89584 9.82581
2.4292 1.68899 3.16095
3.9044 7.29217 4.0789
1.37969 0.774391 8.3963
3.1139 8.4667 5.17033
1.49942 0.471392 8.48539
1.8133 7.47777 6.58649
4.79084 8.61345 7.15764
0.382713 0.917613 9.14509
2.4923 9.26763 0.123954
10 5.9132 8.60855
9.23622 9.40516 9.31635
2.01313 9.87106 1.1519
0.964951 0.839956 8.33906
8.83105 6.2669 6.10597
6.05481 3.82329 0.0684763
4.04618 0.65083 3.20642
5.17563 5.82351 5.11491
6.0028 0.282394 1.32223
9.57822 2.91868 7.0129
7.08231 2.3948 0.243089
7.3668 6.78032 3.27336
3.0869 2.73279 6.2836
8.17171 9.28697 2.9731
1.27145 1.98959 5.98444
4.0179 0.448164 2.82462
3.81465 6.48402 5.30553
9.4512 0.331831 1.2289
1.18408 4.76402 4.77155
5.81471 4.55521 1.24351
4.92686 6.52721 5.16623
2.92608 4.19007 2.18155
3.91544 0.558008 3.08396
1.92435 2.09764 5.06503
7.03039 1.37431 2.17947
9.00273 3.07384 3.03339
0.939337 2.36025 1.00327
7.72904 5.26514 1.72681
4.65972 0.339427 3.87881
6.3781 3.00479 1.86544
5.66481 5.85894 0.66518
1.37341 0.739004 8.05537
4.18932 0.190359 2.93043
4.35422 0.695846 2.85048
4.27625 0.601028 2.52541
4.19785 0.594023 2.77916
8.69072 2.53694 8.28967
3.30542 3.25454 3.84029
3.70073 0.39062 2.58109
2.45028 4.01551 2.59015
4.16235 0.76747 3.4224
9.73058 4.77276 3.90723
3.90563 0.405587 2.65497
4.20555 0.572654 2.77159
1.09684 4.73654 4.3716
8.56539 5.33807 5.92997
8.90112 9.48804 9.57848
9.41558 1.70201 9.4496
4.12796 4.90408 2.89926
4.08819 0.345565 3.08143
3.00383 8.94351 7.50579
1.17019 9.88982 9.64925
7.7215 4.24992 1.21899
2.18555 0.846305 9.99693
0 3.26809 9.36741
7.11216 0.749078 0
1.33073 0.809647 8.14497
3.0749 1.42184 5.7058
0.917191 0.442892 8.30577
4.30687 0.62911 3.26202
1.52913 0 2.74507
7.93 2.93423 10
4.42214 0.890397 2.75801
0.840744 6.89281 0.535081
0.426387 5.63494 7.93228
4.28543 0.572577 2.71993
2.81582 5.19256 1.6091
0.944661 5.62858 2.27217
2.67619 1.97586 7.28164
0.0954151 2.842 0.349038
9.02866 0.155172 1.29644
1.37982 8.25363 0.17289
4.44891 1.56138 8.34652
4.41446 0.480277 3.10871
0.897628 4.93251 9.65322
6.32861 8.99901 3.29962
9.33357 4.77052 8.43529
2.01247 3.03496 4.43848
1.29369 4.33052 6.54392
1.18174 0.717098 8.14479
4.4087 0.715758 3.0078
3.81224 0.728326 2.05972
9.40568 0.644003 1.26657
4.52007 0.522287 2.53946
4.79285 0.500994 2.7232
8.84577 1.90945 4.29694
4.28688 0.455561 2.3395
4.23009 0.362754 2.65433
0.758057 4.51085 1.84307
7.23683 1.2755 5.5663
2.65136 0.177818 2.35344
4.38309 0.503379 3.72925
5.72257 1.90865 5.50127
5.68307 7.82677 7.44343
4.39832 0.778936 3.39161
4.05744 0.784714 2.82659
9.24815 0.598518 1.34123
1.23049 0.775439 8.11882
1.51317 0.724399 8.30594
3.79253 0.889895 3.55146
4.39793 0.420678 3.66615
9.05938 0.700344 1.22956
1.1679 0.369355 8.68393
1.09484 4.48252 1.37759
1.27252 0.734513 8.1892
5.80835 1.682 4.58896
8.96551 0.890529 1.65466
1.57295 2.87575 4.2113
1.43069 6.39537 4.95442
4.74488 0.738278 2.68044
4.19691 0.438529 3.45009
9.32811 0 1.12743
1.20094 0.357873 8.04169
1.24007 0.867532 7.75041
1.72541 3.08867 9.31572
4.55227 0.450036 2.84343
4.25633 0.807829 2.44849
4.03084 0.415263 2.57055
1.72985 3.01467 9.53479
4.20416 0.402572 3.14462
8.52432 3.66365 9.49442
1.25133 0.430427 8.16829
4.44346 0.543174 2.73769
4.05889 0.554002 2.58871
9.05919 0.448417 0
3.41414 0.343271 8.22589
4.34083 0.906591 2.85464
4.21154 0.565186 2.96424
1.45969 1.02084 7.88365
4.34372 0.40039 3.20136
0 4.15237 4.6471
1.4746 0.976638 8.34465
4.39488 0.500429 2.87819
0.882632 7.99852 2.35194
1.49357 2.20597 3.91973
9.9212 0.433893 0.992456
POINT_DATA 400
SCALARS particleColor float 3
LOOKUP_TABLE default
1 0.614464 0
0.289735 1 0.710265
0.542953 1 0.457047
1 5.96046e-08 0
0.699205 1 0.300795
1 5.96046e-08 0
0.234387 1 0.765613
1 5.96046e-08 0
0.883073 1 0.116927
0.917197 1 0.0828035
0.126049 1 0.873951
1 5.96046e-08 0
1 0.250106 0
1 0.914414 0
1 5.96046e-08 0
1 5.96046e-08 0
1 5.96046e-08 0
0 0.437507 1
0.217846 1 0.782154
1 5.96046e-08 0
0 0.508731 1
1 5.96046e-08 0
1 5.96046e-08 0
1 5.96046e-08 0
0.656763 1 0.343237
1 5.96046e-08 0
0.177208 1 0.822792
1 5.96046e-08 0
0 0.957964 1
0.145903 1 0.854097
1 5.96046e-08 0
1 0.963349 0
1 0.928698 0
1 5.96046e-08 0
1 0.893648 0
1 0.389439 0
1 5.96046e-08 0
0 0.271244 1
1 5.96046e-08 0
1 0.409497 0
1 0.534087 0
1 0.309285 0
1 0.811368 0
1 5.96046e-08 0
1 5.96046e-08 0
1 0.410156 0
1 0.449663 0
1 5.96046e-08 0
1 0.121321 0
1 5.96046e-08 0
1 5.96046e-08 0
1 0.251114 0
1 5.96046e-08 0
1 5.96046e-08 0
1 5.96046e-08 0
0.748021 1 0.251979
1 0.929332 0
0.289089 1 0.710911
0.576808 1 0.423192
1 5.96046e-08 0
1 5.96046e-08 0
0.74892 1 0.25108
0.44629 1 0.55371
0.0380063 1 0.961994
1 0.90874 0
1 5.96046e-08 0
0 0.819955 1
0.277993 1 0.722007
0.696412 1 0.303588
1 0.211895 0
1 5.96046e-08 0
0.624378 1 0.375622
1 5.96046e-08 0
0.117822 1 0.882178
1 5.96046e-08 0
1 0.898263 0
0.45371 1 0.54629
1 0.580807 0
1 0.386463 0
1 5.96046e-08 0
0 0.566393 1
1 0.547094 0
0.37769 1 0.62231
1 5.96046e-08 0
0.172669 1 0.827331
1 0.909026 0
1 0.869146 0
0.476373 1 0.523627
0 0.989985 1
1 0.929351 0
0 0.26393 1
0.801478 1 0.198522
1 5.96046e-08 0
1 0.539891 0
0.607683 1 0.392317
1 0.0195233 0
1 0.0991461 0
1 5.96046e-08 0
0.573534 1 0.426466
0.701612 1 0.298388
1 5.96046e-08 0
0.435393 1 0.564607
1 5.96046e-08 0
1 0.498986 0
1 5.96046e-08 0
0 0.885708 1
1 5.96046e-08 0
0.564594 1 0.435406
1 5.96046e-08 0
1 5.96046e-08 0
1 0.644452 0
1 5.96046e-08 0
1 0.638991 0
1 5.96046e-08 0
0 0.808399 1
1 5.96046e-08 0
0 0.634894 1
1 0.616864 0
0 0.509869 1
0.0179495 1 0.982051
1 5.96046e-08 0
1 5.96046e-08 0
0.9465 1 0.0535004
1 0.36512 0
1 0.395581 0
0.547541 1 0.452459
0.734311 1 0.265689
1 5.96046e-08 0
1 0.944046 0
1 0.890975 0
1 0.0820026 0
1 5.96046e-08 0
0.504643 1 0.495357
1 5.96046e-08 0
1 5.96046e-08 0
0.487038 1 0.512962
1 5.96046e-08 0
1 0.303632 0
1 0.443693 0
0 0.589354 1
0 0.660178 1
1 5.96046e-08 0
1 5.96046e-08 0
1 5.96046e-08 0
1 0.701787 0
1 5.96046e-08 0
1 0.170985 0
0.849857 1 0.150143
1 5.96046e-08 0
1 0.516001 0
0 0.30883 1
1 0.0118721 0
0.84277 1 0.15723
0.0667713 1 0.933229
1 5.96046e-08 0
0.760767 1 0.239233
1 5.96046e-08 0
0.210995 1 0.789005
1 0.440417 0
0.857831 1 0.142169
1 0.892099 0
1 5.96046e-08 0
1 5.96046e-08 0
1 5.96046e-08 0
1 0.616437 0
1 0.484808 0
0 0.95673 1
1 5.96046e-08 0
1 5.96046e-08 0
1 0.209955 0
0 0.80342 1
1 5.96046e-08 0
1 5.96046e-08 0
1 0.810481 0
1 5.96046e-08 0
0 0.638725 1
1 5.96046e-08 0
1 5.96046e-08 0
0.277116 1 0.722884
1 5.96046e-08 0
0 0.768355 1
1 5.96046e-08 0
0.14993 1 0.85007
1 5.96046e-08 0
1 0.0834752 0
1 5.96046e-08 0
0 0.529474 1
1 0.944647 0
0 0.710545 1
0.652868 1 0.347132
0.0132962 1 0.986704
0.12409 1 0.87591
1 5.96046e-08 0
0.549675 1 0.450325
1 0.168647 0
1 5.96046e-08 0
1 0.369393 0
0.560098 1 0.439902
0.730264 1 0.269736
0 0.876828 1
0 0.397413 1
1 5.96046e-08 0
0.657217 1 0.342783
1 5.96046e-08 0
1 5.96046e-08 0
1 5.96046e-08 0
1 5.96046e-08 0
0.348089 1 0.651911
1 0.519947 0
1 0.480413 0
0 0.597628 1
0 0.524373 1
0 0.968324 1
1 0.748496 0
1 5.96046e-08 0
1 5.96046e-08 0
0 0.610864 1
0.263592 1 0.736408
1 5.96046e-08 0
1 5.96046e-08 0
0.917586 1 0.0824144
0.28645 1 0.71355
1 5.96046e-08 0
0 0.419484 1
1 5.96046e-08 0
0.896254 1 0.103746
0.194659 1 0.805341
0 0.315535 1
0 0.248896 1
1 0.836796 0
1 0.446905 0
1 5.96046e-08 0
1 5.96046e-08 0
0 0.489938 1
0 0.0652118 1
0.591285 1 0.408715
1 5.96046e-08 0
0.330125 1 0.669875
0 0.649123 1
0 0.928363 1
0 0.225709 1
0 0.718723 1
0.415386 1 0.584614
0.0190791 1 0.980921
1 0.385618 0
1 5.96046e-08 0
0.58561 1 0.41439
1 5.96046e-08 0
0.283485 1 0.716515
0.00537264 1 0.994627
0.220437 1 0.779563
0.626274 1 0.373726
1 0.252555 0
1 5.96046e-08 0
0.0334884 1 0.966512
0.646144 1 0.353856
1 0.712447 0
0 0.159739 1
1 0.384969 0
0 0.357852 1
1 0.673913 0
1 0.834781 0
1 5.96046e-08 0
1 5.96046e-08 0
1 5.96046e-08 0
1 0.374413 0
0 0.880913 1
0 0.741274 1
1 0.103094 0
1 0.758186 0
0 0.729307 1
1 5.96046e-08 0
1 5.96046e-08 0
1 0.653196 0
1 0.481399 0
0.844311 1 0.155689
0.694798 1 0.305202
1 5.96046e-08 0
0.765526 1 0.234474
0 0.171039 1
1 0.29427 0
0 0.320739 1
1 0.351643 0
0.97802 1 0.0219797
0.947258 1 0.0527418
1 5.96046e-08 0
0 0.251387 1
0 0.907494 1
0.735902 1 0.264098
1 0.842148 0
1 5.96046e-08 0
1 0.947172 0
0 0.558575 1
1 5.96046e-08 0
1 5.96046e-08 0
0 0.63019 1
0 0.403657 1
0 0.561268 1
0.462443 1 0.537557
0 0.519307 1
1 5.96046e-08 0
1 5.96046e-08 0
0 0.909975 1
1 0.735213 0
0 0.773478 1
1 5.96046e-08 0
0 0.557607 1
0 0.860301 1
0.862756 1 0.137244
0.106558 1 0.893442
0.452988 1 0.547012
1 5.96046e-08 0
0.616504 1 0.383496
0 0.566429 1
1 5.96046e-08 0
0.422775 1 0.577225
0.553123 1 0.446877
1 5.96046e-08 0
1 5.96046e-08 0
0.520997 1 0.479003
0 0.909857 1
1 5.96046e-08 0
0 0.460266 1
0 0.368827 1
0 0.795738 1
1 5.96046e-08 0
0 0.993073 1
1 0.121277 0
0.28826 1 0.71174
0 0.402577 1
1 0.0707301 0
0.59176 1 0.40824
0.721803 1 0.278197
0.394924 1 0.605076
0 0.197771 1
1 5.96046e-08 0
1 0.957366 0
0 0.352784 1
1 5.96046e-08 0
0.432828 1 0.567172
0.258726 1 0.741274
1 5.96046e-08 0
0.136339 1 0.863661
0 0.278823 1
0 0.993435 1
0 0.687634 1
0 0.873533 1
0 0.806524 1
0.08521 1 0.91479
0.49512 1 0.50488
0 0.470115 1
0 0.608908 1
1 5.96046e-08 0
1 5.96046e-08 0
0 0.478246 1
0 0.378912 1
1 0.585595 0
0.956099 1 0.0439011
0.315049 1 0.684951
0 0.472608 1
0 0.176733 1
0 0.526457 1
0 0.185902 1
0 0.98061 1
0 0.477165 1
0 0.822095 1
0 0.616743 1
1 0.938506 0
0 0.187869 1
1 0.292895 0
0 0.665704 1
0.630187 1 0.369813
1 5.96046e-08 0
0 0.209483 1
0.0771485 1 0.922851
0 0.892544 1
0 0.572405 1
0.255256 1 0.744744
0.443427 1 0.556573
0 0.535917 1
0 0.449758 1
0 0.420868 1
0 0.919697 1
0 0.426149 1
1 0.842731 0
0 0.514099 1
0 0.749273 1
0 0.599265 1
1 5.96046e-08 0
0.106749 1 0.893251
0.05842 1 0.94158
0 0.751711 1
0.0999209 1 0.900079
0 0.52241 1
1 0.772691 0
0 0.453208 1
0 0.920021 1
0.340433 1 0.659567
0.256442 1 0.743558
0 0.606293 1
