# vtk DataFile Version 3.0
Particle simulation
ASCII
DATASET POLYDATA
POINTS 400 float
4.66132 1.00543 9.55362
1.62093 4.47577 2.13547
0.711391 2.547 2.49402
2.32422 0.262362 0.839326
8.66926 1.67883 3.77928
8.40124 1.2054 4.72727
8.9738 3.66283 2.43158
2.81081 4.65462 1.4775
6.75535 3.58084 1.14722
8.03008 0.86029 4.01956
2.93979 0.206749 0.477592
2.49191 1.59583 2.08079
6.01459 4.86728 4.82226
3.83885 0.15076 0.787767
8.19844 2.07573 3.82973
8.82839 4.41468 9.04852
3.23662 5.7471 0.674048
1.38487 1.31042 3.39438
2.09426 8.86791 9.43344
8.07202 0.936545 3.83221
3.85384 0.491947 2.90081
0.780352 0.649533 5.15405
2.22426 5.77756 6.89819
7.59783 0.960368 3.56963
9.61782 8.00283 9.46899
3.97969 0.304566 2.10968
5.5745 8.04706 3.4287
2.5237 0.957578 2.14611
6.01873 0.768875 5.69115
2.02786 0.00207543 2.62232
9.6319 3.93477 3.90504
9.54643 0.190037 1.07254
3.3804 1.50087 7.70545
7.64018 0.880722 3.56118
2.17879 1.47258 3.15242
1.14218 0.12001 0.81376
7.26166 0.421288 9.37269
2.59549 0.463528 2.15499
6.03957 0.402373 0.586879
3.49934 0.239047 0.567635
3.4356 0.370681 2.77376
8.07438 6.15861 4.24237
4.75185 5.79431 5.43803
9.58633 4.91287 3.9849
9.15187 0.155998 8.82933
5.67966 0.532412 2.17404
8.33259 2.39767 3.89591
2.51531 0.568522 0.986765
5.66315 0.388325 1.90215
8.6403 5.07351 4.23181
0.383254 3.12777 2.44503
8.03346 6.21697 4.20699
5.72356 0.612968 5.40635
7.56819 0.563816 3.45011
9.87443 0.463236 8.33941
5.74891 0.489178 2.08444
4.40679 0.906161 8.4793
2.69252 0.483591 0.806623
5.5976 0.382085 1.89366
0.213165 2.80627 8.1702
5.55748 1.39828 7.33069
4.63954 0.18331 6.71902
1.42703 0.0450108 3.78292
8.21948 0.801487 3.73013
7.37563 0.587431 5.93209
9.37278 0.0890064 5.80764
6.0406 0.869481 5.49267
0.397283 3.28659 2.73031
5.52352 0.177593 1.97456
4.32018 0.561509 8.33372
4.92257 0.797462 6.96829
2.10945 1.36653 2.13405
8.4372 1.26498 6.14512
8.18606 0.830936 3.7397
7.23974 0.445768 9.75008
6.3899 0.986729 9.0776
6.0303 0.835902 5.50165
4.2868 0.534387 8.56011
5.68969 0.112391 1.84348
5.1126 0.347141 7.87443
2.44192 0.378415 1.96701
2.48934 0.198446 3.09939
2.64171 1.58494 2.50338
2.62449 0.329705 1.82763
5.12301 0.1584 7.45431
4.89537 0.186487 7.97867
5.04048 0.183229 7.30411
7.17788 0.169055 1.7785
4.06596 1.71256 1.74001
9.52236 0.390704 1.32534
2.31581 0.483481 2.08351
2.06231 0.71526 0.461512
1.68354 3.01802 8.60432
2.66193 0.305586 1.82933
5.11364 0.151745 7.49502
4.91331 0.0713458 8.06117
5.12441 0.269538 8.21104
2.30485 0.752819 0.766262
5.41251 1.42171 7.06919
9.46808 0.385913 1.30054
2.4938 0.0858344 1.97552
3.40915 0.311461 9.32978
1.41353 0.182494 1.39731
7.36141 0.572972 5.2109
8.81911 1.25334 0.0328145
2.6988 0.258535 1.08487
5.1463 0.203415 7.61227
5.59766 0.291389 1.87757
5.71433 0.389877 1.92603
9.371 0.538891 1.14421
0.448522 3.5088 2.32057
7.50392 0.563238 3.71005
3.00177 0.552751 2.42267
9.58497 0.308447 1.22891
2.70115 0.36283 0.799242
1.72405 0.573242 0.789976
4.60009 0.78952 8.321
5.41699 0.423521 1.29194
5.7572 0.425308 1.92637
1.18021 0.104731 0.656967
2.50944 0.400851 2.04515
8.47918 3.81684 2.17108
5.71611 1.19216 8.57833
5.30058 0.29206 6.98361
3.26611 0.0581517 9.87012
1.68153 0 2.93412
3.37513 0.438377 0.934042
7.6354 0.778363 3.49484
1.38913 2.14915 8.13211
3.87537 0.443965 1.41873
2.5429 0.3109 2.09811
5.74642 0.156199 1.7992
4.89779 0.091602 7.81779
5.98516 0.807697 5.93458
5.19984 0.685794 6.32928
1.82163 0.651056 2.97349
1.41165 4.62335 7.13528
7.64189 0.76612 3.50071
4.11383 0.54083 7.91166
6.28673 0.767358 5.82969
2.90323 0.159739 1.52402
6.67773 0.663706 6.36787
1.20757 1.35657 5.20514
1.44817 0.603297 0.468799
2.18577 0.628812 2.1194
2.39252 0.298065 1.08969
9.79521 0.474896 8.30616
1.66189 0.56494 3.20845
2.75089 0.612543 0.846914
1.6325 0.214032 2.26782
2.8921 0.151622 1.52856
6.54069 0.752006 5.89388
2.24207 1.88783 2.34979
5.27701 0.557856 6.73359
2.71996 1.78023 0.472362
2.60102 0.488159 1.10592
9.09429 0.240419 8.70608
2.36417 0.291034 2.06329
6.64053 0.614215 5.79388
2.63857 0.442159 2.2062
1.21845 0.0403397 1.09215
0.330857 2.9008 2.73156
4.71917 0.39018 7.50229
2.0229 0.541224 3.11938
0.513662 2.89303 2.41464
6.41978 0.890345 5.79064
4.70732 0.411612 8.42435
4.64683 0.910412 8.09531
6.33347 2.63025 8.8033
5.44032 5.61794 0.544774
1.7221 0.325528 0.878371
2.34617 0.568788 0.673554
4.13184 0.6568 8.78693
2.24872 1.39471 2.40061
1.83437 0.582875 3.09091
1.08666 0.434202 1.14644
4.29335 0.709323 8.19771
4.18412 0.5187 7.99526
3.98048 0.455558 8.2269
1.87523 0.687358 0.179503
2.60803 0.29231 1.8516
1.80021 0.171099 2.73915
6.42357 2.64265 8.8638
2.19578 1.76544 2.25173
4.5898 0.328644 7.33334
2.86421 0.58718 1.83947
2.65122 0.460796 0.514839
1.6278 2.93403 8.36205
3.25501 0.453404 3.63722
2.40701 0.450058 2.17609
2.6242 0.301691 1.82338
2.61638 0.790045 0.799949
4.98395 0.0171192 7.26347
2.14438 3.38674 1.45977
5.49326 5.40305 9.32069
2.50809 0.219636 1.95836
3.08175 0.19127 2.65928
0.653241 4.59894 7.08682
1.78425 0.248782 2.83907
1.81879 0.121275 3.0857
3.19105 0.405039 2.2649
5.52049 0.280945 2.13862
8.97281 0.436888 8.55193
5.07821 0.48561 6.6264
6.22231 0.523678 6.84098
4.76307 0.709064 8.50708
2.17853 0.556828 2.06748
3.039 0.433019 1.02681
1.92071 0.248148 0.667606
9.50184 0.25944 1.29123
2.7717 0.42081 1.96953
5.95127 0.510617 2.29553
5.1596 0.829803 8.52835
6.41795 0.731924 6.32854
6.24313 0.391264 7.04002
4.682 0.645776 8.43619
2.19412 0.5811 2.03273
2.15805 0.517766 1.9141
1.41957 1.21918 3.05698
9.27308 0.311462 1.20118
8.14309 5.50078 5.04635
1.70378 0.265819 7.4221
5.04435 0.334808 7.39071
2.182 0.275383 1.79469
4.83351 0.469867 8.37581
2.27479 0.589405 1.80921
8.22981 2.49316 4.43905
2.56812 0.483127 2.21325
2.11452 0.58988 1.74575
4.81025 0.093877 7.58909
7.66167 0.549733 3.60428
4.25149 0.527206 8.709
9.22566 0.218162 8.84155
2.39106 0.491525 1.93274
4.86887 0.0536935 7.46994
1.87186 0.676053 1.47348
9.74882 0.352317 8.7638
3.8391 0.483953 1.79463
2.01455 0.437112 0.518221
1.6477 0.314974 3.22443
1.9387 0.365641 1.99119
1.54982 0.35063 2.99277
2.56531 0.66461 2.23275
3.25278 0.222704 2.30205
4.32413 1.15593 8.57888
2.14127 0.143113 3.20965
2.00262 0.787732 0.765826
4.32342 0.74055 8.40646
5.67655 0.525924 1.69905
4.31638 0.833475 8.38863
2.70346 0.341569 0.648492
5.39769 0.879634 1.74972
4.40666 0.932345 8.32696
3.21793 0.334249 1.43444
9.08725 0.42154 8.8754
2.39788 0.40144 1.81049
9.11092 0.182558 0.940669
4.82982 0.0441106 8.23996
5.67411 0.565361 1.7113
4.34505 0.826377 8.36762
1.53188 0.252267 3.09443
7.92731 5.46027 5.13197
5.30044 0.711366 6.7635
8.00123 0.779227 3.85109
4.39369 0.821197 8.15169
3.93293 0.613522 3.32409
8.56666 0.126392 3.45711
4.09237 0.608436 8.56955
9.12577 0.205934 8.82023
2.77264 0.631938 1.04127
1.6373 0.0677507 3.08216
7.9052 5.08707 5.0435
3.03714 0.117511 1.42589
8.21178 0.713919 3.55973
4.75195 0.57757 8.52893
4.5108 0.387762 6.63021
7.54491 0.878864 3.76551
5.70787 9.21813 9.04447
9.49375 0.223795 9.02429
2.45126 0.145628 1.73533
8.64254 0.0725792 1.03807
5.55461 0.471206 1.93255
6.03324 0.732966 1.8956
7.9399 0.863217 3.62526
7.78346 0.446863 8.314
8.3018 0.521228 8.31702
1.72523 0.37985 2.92423
3.17292 0.0402027 1.47673
6.42818 1.06282 5.79192
8.21958 1.1497 6.42607
8.66674 0.126179 0.94043
5.7388 0.579439 1.8564
3.36649 0 2.47878
7.98109 0.760161 3.67986
4.30218 0.816332 8.82568
4.43343 0.227312 8.28561
2.44651 0.229056 1.0006
2.28738 1.47638 2.74878
2.44045 0.56515 1.87833
1.83713 0.391247 2.82837
9.55342 0.19083 1.50207
6.56087 0.839709 5.73921
3.45619 0.705802 0.788116
5.68574 1.00486 2.2547
2.05042 0.0666393 2.29033
5.66947 0.431797 1.66952
3.46781 0.380384 2.25096
2.24687 0.45454 1.71358
1.89959 0.351604 2.52956
3.73864 0.372932 2.25731
8.58094 0.465564 3.70705
6.12726 0.635522 5.50229
9.38488 0.168908 8.79838
3.20265 0.513337 2.61441
2.50715 0.319663 1.89551
8.48346 0.21042 3.54089
2.35705 0.0293361 1.98882
6.34824 0.699249 6.4827
5.69775 0.394264 1.89775
2.92048 0.2296 1.28267
5.46335 0.281891 8.33348
2.9718 0.219864 1.34808
4.49876 1.14851 8.41297
1.80673 0.260906 1.82977
9.3254 0.40246 1.43679
9.55658 0.408289 0.912199
2.42818 0.173061 1.78493
5.28423 0.354894 1.92985
9.65529 0.238235 1.40232
2.62662 0.385236 2.09598
5.42273 0.393037 8.35522
2.33032 0.160569 1.91189
4.45844 0.886076 8.27894
2.45957 0.638143 2.01859
9.10571 0.166497 0.908176
4.94368 0.731171 7.09587
3.41785 0.372903 2.54461
1.52354 0 2.82943
9.23155 0.378803 1.24168
3.45305 0.356802 2.79161
4.83757 0.0050032 7.77788
2.24601 0.500831 1.75994
4.87795 0.0808031 7.23887
5.25707 0.420277 6.70392
2.64945 0.399022 2.23256
2.43157 0.293681 1.01265
5.75482 0.486488 1.99976
2.3847 0.175555 0.879828
2.52763 0.184389 0.824591
2.48452 0.416442 1.08345
3.82479 0.32008 2.90379
2.45183 0.53456 2.1928
4.9128 0.220303 7.45214
5.20333 0.449666 6.70815
2.88711 0.414089 1.92002
2.95852 0.270742 2.13497
5.33219 0.158895 1.4602
4.45326 0.968738 8.67188
2.18813 0.149016 0.851508
1.5747 0.178164 2.63049
6.04605 0.601446 2.16787
6.46235 0.547376 5.81944
5.38411 0.601555 8.51378
3.48643 0.196363 2.59664
2.07972 1.05411 0.585031
9.33408 0.255809 8.89242
4.68014 0.440141 8.22078
5.13847 0.562171 8.56308
4.51328 0.391464 8.65044
1.96256 0.217744 1.74809
6.05191 0.599023 2.16832
6.47709 0.546849 5.85491
4.99262 0.373719 7.36251
1.97881 0.0522306 1.145
2.46772 0.391105 1.49498
9.00031 0.229353 8.70452
4.65523 0.554431 8.30342
4.31466 0.723538 8.39494
5.42662 0.427932 8.57023
2.85358 0.671579 0.818594
2.22926 0.0763218 1.11393
2.66113 0.289782 1.71112
5.14149 0.408996 8.52009
2.43316 0.328996 1.91648
7.79074 1.06128 3.76304
4.35306 0.836406 8.73417
1.9027 0.388019 2.93271
2.71909 0.258391 2.17135
8.1117 0.674075 3.66426
5.61069 0.468107 1.43602
2.2533 0.110466 1.08512
2.58543 0.295281 1.88107
5.20233 0.280048 8.43836
2.27239 0.623929 2.15854
7.81301 1.06335 3.75868
4.84236 0.654336 7.50183
1.89841 0.367645 2.94264
1.65329 0.216947 2.18672
9.39235 0.558762 0.830907
5.63201 0.507647 1.45311
POINT_DATA 400
SCALARS particleColor float 3
LOOKUP_TABLE default
0.233653 1 0.766347
0 0.517119 1
0 0.788721 1
0 0.274719 1
0 0.531128 1
0.203544 1 0.796456
0 0.468673 1
0 0.743829 1
0 0.472609 1
0 0.654547 1
0 0.543722 1
0 0.18455 1
1 0.873427 0
0 0.36913 1
0.170759 1 0.829241
0 0.52666 1
0 0.328713 1
0 0.324695 1
0.206462 1 0.793538
0 0.727143 1
0 0.487291 1
1 5.96046e-08 0
0.0954001 1 0.9046
0 0.472058 1
0 0.715268 1
0 0.222501 1
1 5.96046e-08 0
0 0.554997 1
0.306096 1 0.693904
0 0.599073 1
0.407474 1 0.592526
0 0.684271 1
0 0.752053 1
0 0.479409 1
0 0.476438 1
0 0.87291 1
0 0.669811 1
0 0.516865 1
0 0.46501 1
0 0.979635 1
0 0.901069 1
0 0.449859 1
0 0.453982 1
0 0.526595 1
0.0299703 1 0.97003
0 0.569571 1
0.571898 1 0.428102
0 0.90653 1
0 0.263146 1
1 0.612833 0
0 0.343964 1
0 0.763469 1
0 0.300702 1
0 0.449812 1
0 0.77976 1
0 0.675892 1
0 0.776285 1
0 0.671591 1
0 0.248526 1
0 0.571319 1
0.585248 1 0.414752
0 0.801324 1
0.394333 1 0.605667
0 0.675394 1
0 0.800345 1
0 0.78106 1
0 0.607552 1
0 0.692823 1
0 0.552259 1
0 0.616772 1
0.334294 1 0.665706
0 0.719906 1
0.111571 1 0.888429
0 0.684985 1
0.273697 1 0.726303
0 0.828933 1
0 0.653032 1
0 0.315709 1
0 0.45059 1
0 0.893405 1
0 0.72784 1
0 0.406233 1
0 0.3871 1
0 0.206201 1
0 0.331247 1
0 0.265205 1
0 0.68827 1
0 0.856032 1
0 0.228094 1
0 0.431132 1
0 0.396497 1
0 0.596269 1
0.0190964 1 0.980904
0 0.297677 1
0 0.200946 1
0 0.264111 1
0 0.251169 1
0 0.58216 1
0.177796 1 0.822204
0 0.414008 1
0 0.828525 1
0 0.826008 1
0 0.470871 1
0 0.637844 1
0 0.537921 1
0 0.620389 1
0 0.807805 1
0 0.956685 1
0 0.221962 1
0.0534025 1 0.946598
0 0.488777 1
0 0.907307 1
0 0.623937 1
0 0.302069 1
0 0.510546 1
0 0.236378 1
0 0.702524 1
0 0.523123 1
0 0.154293 1
0 0.689171 1
0 0.442819 1
0 0.379955 1
0 0.806919 1
0 0.912908 1
0 0.704342 1
0 0.312898 1
0 0.39816 1
0 0.442432 1
0 0.54284 1
0.00247296 1 0.997527
0 0.588257 1
0 0.713476 1
0 0.760117 1
0.137968 1 0.862032
0 0.740155 1
0 0.154368 1
1 5.96046e-08 0
0 0.769688 1
0 0.509201 1
0 0.542672 1
0 0.253213 1
0 0.717676 1
0.114229 1 0.885771
0.635206 1 0.364794
0 0.418284 1
0 0.476124 1
0 0.448195 1
0 0.142587 1
0 0.838525 1
0 0.480482 1
0 0.277394 1
0 0.414108 1
0 0.81657 1
0 0.689583 1
0 0.441252 1
0 0.256334 1
0 0.642061 1
0 0.215448 1
0 0.613472 1
0 0.737349 1
0 0.51281 1
0 0.727184 1
0 0.355199 1
0 0.744258 1
0 0.391938 1
0 0.269105 1
0 0.959106 1
0 0.620652 1
0 0.854744 1
1 0.0566804 0
0 0.468974 1
0 0.751307 1
0 0.755507 1
0 0.613899 1
0 0.791321 1
0 0.693493 1
0 0.785392 1
0 0.353283 1
0 0.338456 1
0 0.930392 1
0 0.527422 1
0 0.403687 1
0.124487 1 0.875513
0 0.390844 1
0 0.261226 1
0 0.429055 1
0 0.986508 1
0 0.67579 1
0 0.836187 1
0 0.747493 1
0 0.511832 1
0 0.52365 1
0 0.902619 1
0 0.406312 1
0.796975 1 0.203025
0 0.803859 1
0 0.516132 1
0 0.590469 1
0 0.913365 1
0 0.77628 1
0 0.325253 1
0 0.7504 1
0 0.929344 1
0 0.437718 1
0.328562 1 0.671438
0 0.565977 1
0 0.552796 1
0 0.938788 1
0 0.282373 1
0 0.644791 1
0 0.693553 1
0 0.53898 1
0 0.534697 1
0 0.564682 1
0 0.937666 1
0 0.351107 1
0 0.482846 1
0.176484 1 0.823516
0 0.361648 1
0 0.491066 1
0 0.935355 1
0 0.813742 1
0 0.344922 1
0 0.389602 1
0 0.432357 1
0 0.843178 1
0 0.349076 1
0 0.892962 1
0 0.546765 1
0.106321 1 0.893679
0 0.383481 1
0 0.960338 1
0 0.46604 1
0 0.369309 1
0 0.715052 1
0.0397419 1 0.960258
0 0.670088 1
0 0.547843 1
0 0.711801 1
0.0195099 1 0.98049
0 0.864171 1
0 0.98463 1
0 0.455584 1
0 0.618976 1
0 0.503663 1
0.126137 1 0.873863
0 0.923753 1
0 0.685707 1
0 0.597758 1
0 0.338548 1
0 0.674819 1
0 0.96617 1
0 0.529615 1
0 0.697514 1
0.0368546 1 0.963145
0 0.965477 1
0 0.411621 1
0 0.467354 1
0 0.617002 1
0 0.44781 1
0 0.254046 1
0.309181 1 0.690819
0 0.47586 1
0.102296 1 0.897704
0 0.800971 1
0.0211068 1 0.978893
0.0157825 1 0.984218
0 0.51963 1
0.12766 1 0.87234
0 0.712695 1
0.0143366 1 0.985663
0 0.766871 1
0 0.746023 1
0.0967019 1 0.903298
0 0.878292 1
0 0.759422 1
0 0.614214 1
0 0.897503 1
0 0.354795 1
0 0.404335 1
0 0.966554 1
0 0.783299 1
0 0.887939 1
0 0.788675 1
0 0.480412 1
0 0.639952 1
0 0.902263 1
0 0.894402 1
0 0.735933 1
0.178999 1 0.821001
0 0.233997 1
0.0892308 1 0.910769
0 0.670911 1
0 0.537501 1
0 0.735813 1
0 0.477691 1
0.0271205 1 0.97288
0 0.597526 1
0 0.975399 1
0 0.589346 1
0 0.754902 1
0 0.373538 1
0 0.710974 1
0 0.445408 1
0 0.379596 1
0.253622 1 0.746378
0 0.746607 1
0 0.864219 1
0 0.837363 1
0 0.733703 1
0 0.327231 1
0 0.493836 1
0 0.812491 1
0.00694882 1 0.993051
0.107684 1 0.892316
0.114445 1 0.885555
0 0.984596 1
0 0.684158 1
0 0.988382 1
0 0.644244 1
0 0.963592 1
0 0.553876 1
0 0.551826 1
0 0.343827 1
0 0.842874 1
0 0.925131 1
0 0.750922 1
0 0.5323 1
0 0.881936 1
0.0852773 1 0.914723
0.167114 1 0.832886
0 0.900298 1
0 0.329163 1
0 0.72453 1
0 0.436833 1
0 0.792665 1
0 0.718326 1
0 0.515532 1
0 0.988763 1
0 0.495133 1
0.0427669 1 0.957233
0.0338799 1 0.96612
0 0.273783 1
0 0.809342 1
0 0.690218 1
0 0.476463 1
0 0.782257 1
0 0.900355 1
0 0.307484 1
0 0.723332 1
0 0.473021 1
0 0.853451 1
0.161334 1 0.838666
0 0.924785 1
0 0.754089 1
0 0.691319 1
0 0.584474 1
0 0.880276 1
0 0.786805 1
0 0.209365 1
0 0.452175 1
0 0.636462 1
0 0.245243 1
0 0.277563 1
0.0144142 1 0.985586
0 0.177052 1
0 0.494924 1
0 0.665721 1
0 0.951217 1
0.185109 1 0.814891
0 0.574143 1
0 0.505908 1
0 0.76014 1
0 0.724521 1
0.430401 1 0.569599
0 0.727004 1
0 0.784249 1
0 0.821651 1
0 0.301929 1
0.0218883 1 0.978112
0 0.349706 1
0 0.511678 1
0 0.179675 1
0 0.454165 1
0 0.764355 1
0.066281 1 0.933719
0 0.72776 1
0 0.499005 1
0.265031 1 0.734969
0 0.517421 1
0 0.372948 1
0 0.694539 1
0 0.24372 1
0 0.654834 1
0 0.620908 1
0 0.579066 1
0 0.910927 1
0 0.51952 1
0 0.601204 1
0 0.515231 1
