# vtk DataFile Version 3.0
Particle simulation
ASCII
DATASET POLYDATA
POINTS 400 float
1.81411 0.770514 7.53029
4.91685 0.794488 5.33986
9.23074 8.9404 5.51683
2.6478 5.13639 6.08756
6.83425 8.16141 9.51185
5.43699 2.60499 3.59978
6.92067 2.75857 2.97924
9.5281 3.59487 3.86365
0.354719 3.76009 6.29367
7.18374 7.75113 5.13266
4.64144 9.65646 1.73779
5.75254 9.26936 5.15089
5.78972 0.385034 4.35342
5.2328 2.74916 1.63353
8.30244 8.21331 6.11831
10 4.74236 7.34072
3.83758 2.96551 8.00454
3.24745 0.249768 0.909049
1.32472 9.03162 5.55543
7.01058 5.06178 5.70964
3.64445 0.145645 0.668063
1.0972 0.99834 3.9054
2.93859 7.15035 0
7.35134 4.45591 3.36582
2.42102 8.66285 8.5449
0.547626 5.50765 5.69406
8.36195 8.10652 5.77915
8.04143 0 7.03223
9.01594 3.96655 7.60947
9.66617 7.97743 1.58729
3.25565 3.1005 10
4.01353 8.01895 0.873856
9.21867 8.11429 5.88606
1.92576 7.03461 6.77142
1.03889 9.51506 2.20205
7.11205 9.26889 6.24877
6.35322 5.31734 1.29635
3.71681 0.196355 0.607193
2.37054 0.71736 2.17435
2.71476 0.66506 7.66471
8.8354 1.96404 9.39105
7.77788 9.24797 2.84012
8.85291 7.20576 7.64441
9.88567 0.890401 0.896881
6.60625 1.03848 1.25229
2.67797 7.55291 4.77592
5.09151 2.43656 9.46384
8.76969 3.21071 9.05382
7.08525 0.32159 0.491672
4.51998 1.87117 8.73046
5.64683 6.30617 8.24937
6.95535 8.31239 0.162719
9.39359 4.75005 8.66362
8.94089 0.100636 1.89988
0.289413 4.85195 3.33792
6.56488 0.459394 1.32344
5.78655 2.10386 7.45579
7.6115 4.80157 4.07059
7.07426 2.06745 5.18063
2.34246 6.3838 5.16118
0.601439 9.55028 8.01582
8.91181 4.19424 10
5.58578 4.59239 2.60264
2.15449 5.85489 7.1308
4.213 8.2203 0.56521
5.14544 6.50587 1.61504
4.47335 0.393656 2.29123
6.37435 7.27825 9.05613
5.64898 6.05384 4.57112
8.73385 9.87539 2.01577
2.1948 4.06248 3.58983
9.41849 4.66583 1.31023
5.94673 9.29147 5.29761
0.216439 3.20326 2.426
8.33727 8.42253 9.56046
3.44193 4.58702 9.79817
4.27579 4.12481 0.919918
4.21795 7.02107 4.22282
4.31627 7.46856 3.25146
7.61998 7.79139 2.73294
3.43248 0.580519 0.644434
5.66912 7.57555 5.17469
4.34048 0 7.29027
1.27038 9.45228 0.472808
7.26008 3.60072 5.3993
0.3741 6.03429 9.02609
3.0017 4.71469 4.87309
0.644017 2.82511 0.970368
6.02964 3.68959 8.37533
1.18482 8.25798 3.62069
3.61768 0.0668849 0.625236
8.72775 5.2403 4.07996
5.88585 6.31898 6.96689
0.236872 0.555289 9.61586
2.37268 5.16095 0
9.35963 9.46609 6.65056
10 10 10
9.46849 6.24468 2.31869
2.17542 1.76829 6.94667
9.56092 3.05213 6.49013
3.63995 0.380402 1.08469
9.04985 1.72957 9.52613
1.75734 0.40158 1.83165
1.98648 9.76529 6.13971
9.05919 5.16624 9.01363
4.612 1.39309 8.37995
2.13839 4.53108 2.00587
8.34448 1.10687 3.56875
8.58249 0.749953 1.1669
4.30035 2.22651 9.02988
2.95189 1.69484 3.65147
2.92904 1.05634 4.52169
9.90238 5.12333 4.54594
1.35575 1.78439 0.109882
2.75111 0.724081 2.07666
7.28959 5.82521 8.42457
3.76513 0.198692 9.51209
6.39812 2.58499 0.594463
9.34467 2.46575 4.75939
3.45819 8.13317 7.10526
3.60231 0.529615 1.31519
0 5.8576 7.44991
6.95075 6.68608 7.70409
9.4733 1.1795 9.76165
5.9083 5.1217 7.93219
3.17095 0.589314 0.842394
1.06902 8.51533 5.08658
0.189973 1.30607 8.18069
8.65107 1.56244 9.73291
1.70072 5.08616 1.19766
2.21794 5.18947 8.6202
0.106199 1.42216 3.19917
3.86261 2.28831 4.66459
9.71274 7.22722 0.40528
1.07502 0.294809 5.14938
0.553358 3.02041 1.8899
7.75481 3.1002 6.61161
4.33985 0.236616 5.92213
7.42746 8.83953 9.63352
4.09846 2.94926 2.91998
2.80227 0.447439 0.542131
0.842405 5.68308 5.61325
6.84584 2.48792 0.60105
9.12735 3.0675 2.05829
2.90226 0.770315 1.92174
8.11378 1.73717 8.39117
5.48964 0.271518 1.83678
1.27326 2.54676 4.77541
8.833 4.88671 0.887206
3.83087 0.40989 2.07946
2.99884 0.266893 0.772709
1.56964 1.3898 8.27173
1.4167 1.30749 8.03024
3.7993 0.186742 0.554368
1.68719 1.73699 0.823171
6.3155 0.542252 1.22398
5.59925 4.95698 7.09938
4.84783 1.56664 6.63549
9.58968 4.20319 9.11991
9.08311 1.4612 3.84033
5.26638 0.54619 2.28816
7.46348 1.61277 9.51945
4.63254 4.01493 7.40767
4.81817 1.33692 5.39363
8.46459 5.41601 0.366058
6.25678 1.53781 0.189132
7.41593 4.60981 7.04862
8.54885 8.83025 7.28651
6.31544 3.58519 3.30153
1.17923 2.28583 6.05638
3.6268 0.379472 0.884912
5.11687 3.97739 4.13377
9.78298 0.718991 1.97415
1.64853 7.30945 3.89648
1.57938 0.594334 5.24572
4.38423 5.98118 3.23599
2.08593 1.70978 8.73706
2.55653 5.6417 0.772103
1.92219 1.75909 2.68216
8.01372 6.4006 0
3.00627 0.293686 0.824028
6.74619 9.79941 4.65976
7.12167 4.54131 7.11422
6.44915 2.20952 4.92714
4.62935 5.93637 3.29443
6.50945 4.58534 6.49707
3.44765 0.346472 0.491939
2.99813 6.36734 3.40996
6.47936 0.647252 0.700941
3.91833 0.286015 0.763999
3.22549 0.126881 0.900069
3.23008 0.308737 1.47727
7.31304 8.70679 3.45089
0.16195 9.51101 8.86252
4.75905 3.9533 8.07412
2.94609 0.191529 0.587642
0.0473642 1.13597 2.88781
4.76846 0.499908 7.14284
3.43335 0.246555 1.22453
3.21277 0.303407 0.531383
3.00437 0.253945 0.715527
7.25469 0.381244 0.392776
1.11943 2.69794 5.28852
4.28254 0.142425 6.34005
0 0 0
2.34573 1.34609 7.00781
3.01487 0.466902 1.34842
8.60205 0.150862 6.87613
8.43298 0.167049 3.73346
0.171368 1.23466 6.79781
3.08485 0.181705 0.520402
2.72198 0.736556 1.01145
10 7.09986 8.51142
9.76412 1.12946 9.91836
0.864916 9.17978 7.85296
4.08124 0.112506 9.32854
3.53664 0 1.08116
3.56237 0.242092 1.25756
1.79492 1.03141 1.15263
3.42428 0.0161475 1.20753
5.57121 1.39874 0.336465
3.78459 9.0244 5.60734
3.73284 1.15655 6.29538
3.46022 0.203046 1.53733
1.45361 7.43404 1.28261
3.54647 1.31183 4.01506
1.23793 0.223342 2.93356
3.31024 0.458633 1.14962
3.07041 0 0.991131
9.14334 7.69222 0.264439
10 0.464191 6.96862
2.20894 0.338249 9.30242
0.807768 0.399308 0.903503
2.98684 0.155755 1.10933
4.07888 0.285822 8.67062
1.89414 3.87806 5.64989
9.61718 4.1226 9.63724
0.81314 2.16141 5.61018
3.73784 0.830553 0.887568
0.55889 4.2084 8.64352
3.23926 0.306388 0.764223
3.32475 0.262008 0.489274
3.28186 0.32387 1.05197
3.68437 0.450725 0.945934
3.68185 0.262137 9.22057
5.08094 4.61806 5.14955
1.44728 0.634456 5.18207
0.58469 1.39796 2.65413
3.11295 7.95022 1.33983
1.37517 2.62173 5.88259
3.33817 0.276085 0.468537
3.7056 9.24012 1.45141
4.2733 0.144588 8.38267
5.30135 0.465828 4.72278
6.81572 0.798849 0.840664
3.0173 0.271241 0.419073
8.36063 1.9012 3.84931
4.05425 0.204922 8.62492
0.950319 5.96065 7.91133
4.00554 0.282915 8.59962
3.68502 0.441074 0.943109
6.75016 8.45204 0.463334
4.24965 0.174978 6.20411
5.97973 4.08308 2.06353
4.42363 0.471226 8.59942
9.35035 7.48042 5.20932
6.34847 0.559214 1.18214
4.22241 0.277949 8.98854
4.27261 1.98766 3.19966
3.28189 0.380926 0.880022
3.36428 0.431918 0.760208
7.51448 7.39002 2.79247
2.21569 7.21743 3.03139
3.61473 4.69081 2.32669
7.79105 4.83269 6.31279
3.7151 1.18746 6.13011
4.81675 4.54001 0.802028
8.51701 0.134493 9.62541
2.87372 0.418609 5.06868
3.14072 0.450279 0.488797
5.47959 0.171827 1.88901
6.77411 0.224251 0.293889
8.63846 4.00543 8.08786
7.92876 1.80064 4.23322
7.96272 5.08291 0.255762
8.78312 0 2.57987
3.23155 0.652412 0.753823
4.21308 0.844651 8.83864
8.59796 8.11854 5.5322
1.6373 1.91651 2.31239
1.80116 3.7216 8.17336
9.70212 1.0367 0.286442
3.09994 0.317556 0.795989
0.831104 0.574688 7.03484
4.08711 0.0304709 7.92889
4.03948 0.458379 9.09944
3.26062 0.310349 0.306396
3.1635 0.307759 0.574573
7.18373 4.53798 6.01515
3.15806 0.279986 0.381704
1.64831 2.25266 6.97169
4.35594 0.0484267 6.52422
9.8069 2.49994 7.10838
9.25079 3.9463 0.469813
2.89697 0.595012 0.867876
0.59742 0.504111 7.04053
3.08908 0.434103 1.42819
3.08378 0.668831 0.76393
0.141475 1.42712 2.4916
4.77823 4.61744 0.801434
0.0465514 0.321369 9.10268
1.72377 1.03226 3.84307
4.37756 2.33314 3.54489
3.21041 0.470623 0.730877
8.62484 1.23801 8.9049
0.177477 0.678412 7.21491
3.08873 3.21775 9.43827
1.11062 5.42582 8.32096
8.08447 1.74318 4.16365
6.77319 5.98742 1.71802
4.22139 0.0143936 8.36146
1.43966 0.978118 3.80601
4.18572 0.52938 9.23023
2.98306 0.384857 0.962879
5.50907 0.160419 1.90485
5.05692 4.83438 0.801598
3.3241 0 1.42365
0.693931 0.653637 5.53518
7.30997 9.72661 5.24408
3.64096 0.404668 1.10847
9.32219 4.88895 4.91779
2.95887 0.246235 0.91732
3.9532 0.230391 8.64712
3.18259 0.562828 1.55497
6.85693 0.546222 0.114172
6.00844 3.92731 1.9409
0.684615 5.97857 7.96329
3.34845 0.486133 0.65414
3.62442 3.22792 6.23031
5.25047 0.527063 8.24704
2.14314 1.06518 7.2952
7.65906 1.95711 9.70075
3.63054 0.0527434 8.62036
3.87905 0.22712 8.59075
3.38076 0.376741 0.653565
3.1222 0.526224 1.23884
7.14949 0.749991 0.30247
3.64096 0.388443 0.879008
2.87632 0.765581 0.684824
9.40385 4.68704 9.38648
3.61407 0.616298 0.886934
3.22796 0.375826 0.614117
5.78617 0.348352 8.50481
4.32225 0.217504 8.31376
3.09321 0.649147 0.986035
3.67088 0.357708 0.686892
5.22052 0.0708191 2.07926
3.50449 0.180538 8.4154
3.12874 0.494113 0.810599
3.29965 0.33102 1.18237
6.92684 0.305867 0.0980316
3.86605 0.22536 8.81973
4.26919 0.61729 8.71882
3.09096 0.197495 1.47769
3.49688 0.242957 0.514689
7.27608 1.02639 0.645448
4.10785 0.484889 8.72559
0.0936162 0.326129 9.5133
3.37068 0.270537 8.88886
5.83614 3.57211 1.75767
7.01734 0.348142 0.0129657
1.06587 1.97161 5.76415
3.88319 0.477721 8.95455
3.62647 0.304884 1.02847
3.00557 0.293333 0.647764
7.09772 0.615941 0.359511
4.11554 0.399669 9.25339
4.19586 0.405259 9.41226
3.39645 0.56419 8.33906
3.47294 0.219579 1.23289
3.56605 0.399054 0.995877
2.88787 0.360896 0.917012
3.34289 0.626958 8.32982
3.19018 0.689791 0.841198
0.553666 0.603229 6.93908
3.99615 0.21639 8.6164
3.22509 0.247892 0.419159
3.32983 0.356216 0.812574
4.43198 3.54182 8.18276
6.72344 0.805925 0.299961
3.37079 0.28205 1.11067
3.08424 0.284842 0.935355
3.59075 0.113287 8.60986
3.01687 0.517493 0.734813
0.592913 0.0216108 7.13431
4.20946 0.127394 8.78095
3.20991 0.256103 0.386219
1.36896 0.544437 5.62179
6.92636 0.609766 0.302151
6.76844 0.640501 0.205527
POINT_DATA 400
SCALARS particleColor float 3
LOOKUP_TABLE default
0 0.674512 1
0.760835 1 0.239165
0 0.588796 1
1 5.96046e-08 0
1 0.505391 0
0.523439 1 0.476561
1 0.739977 0
0.180408 1 0.819592
0 0.745977 1
1 5.96046e-08 0
1 0.0982 0
0.272841 1 0.727159
1 0.613224 0
1 0.0646112 0
1 5.96046e-08 0
1 0.152136 0
1 5.96046e-08 0
0 0.641636 1
0.124514 1 0.875486
1 0.319297 0
0 0.539901 1
0.983182 1 0.0168177
1 0.785464 0
1 0.775779 0
1 0.0422934 0
1 5.96046e-08 0
0 0.74882 1
0.25156 1 0.74844
0.467304 1 0.532696
1 0.869254 0
1 5.96046e-08 0
0.908221 1 0.0917794
0.0125475 1 0.987453
1 0.347565 0
1 0.911525 0
1 0.583558 0
0.258577 1 0.741423
0 0.559887 1
1 0.693283 0
0.294856 1 0.705144
1 5.96046e-08 0
0.0271931 1 0.972807
1 0.393173 0
0.0863902 1 0.91361
0.0984751 1 0.901525
0 0.590969 1
0 0.518724 1
0.546521 1 0.453479
0 0.828996 1
0 0.950941 1
0.705404 1 0.294596
1 0.733968 0
0.260443 1 0.739557
0.321467 1 0.678533
1 0.176226 0
0 0.339739 1
0 0.454496 1
0 0.51137 1
0.412579 1 0.587421
0.890138 1 0.109862
0 0.782541 1
1 5.96046e-08 0
1 0.0599848 0
1 5.96046e-08 0
0.0841589 1 0.915841
1 5.96046e-08 0
0.124598 1 0.875402
1 5.96046e-08 0
1 5.96046e-08 0
0.527721 1 0.472279
0 0.885005 1
0.10984 1 0.89016
0.579666 1 0.420334
1 5.96046e-08 0
0.146855 1 0.853145
0.635005 1 0.364995
0 0.453833 1
0.148805 1 0.851195
0 0.677913 1
0 0.763381 1
0 0.213654 1
1 0.612931 0
0.921316 1 0.0786837
1 5.96046e-08 0
0.381079 1 0.618921
0 0.987168 1
0.963214 1 0.0367862
1 5.96046e-08 0
0.920413 1 0.0795866
0.392724 1 0.607276
0 0.175128 1
0 0.713155 1
0.947241 1 0.0527591
0.817656 1 0.182344
0 0.97091 1
0 0.80493 1
1 5.96046e-08 0
0 0.938484 1
0.421944 1 0.578056
0.996282 1 0.00371808
0 0.58068 1
0 0.508995 1
0 0.777685 1
1 0.60323 0
0 0.976704 1
1 0.903312 0
0.732427 1 0.267573
0 0.467798 1
1 0.819205 0
1 5.96046e-08 0
1 5.96046e-08 0
1 0.519173 0
0.830534 1 0.169466
0.475396 1 0.524604
0 0.58423 1
1 5.96046e-08 0
0 0.606763 1
0.462958 1 0.537042
0.587962 1 0.412038
1 0.234958 0
0 0.276975 1
0.0117502 1 0.98825
0.444056 1 0.555944
0.639939 1 0.360061
0.486887 1 0.513113
0 0.525123 1
0.434274 1 0.565726
0 0.358089 1
0.384199 1 0.615801
0 0.793347 1
0.445894 1 0.554106
1 0.464485 0
0.250831 1 0.749169
1 0.936972 0
0 0.918611 1
0 0.602874 1
1 0.341152 0
0.0784716 1 0.921528
0.634763 1 0.365237
0.52565 1 0.47435
0 0.334863 1
1 5.96046e-08 0
0.119241 1 0.880759
1 0.99979 0
0 0.117265 1
0.861577 1 0.138423
0.0197288 1 0.980271
1 0.381719 0
0.428321 1 0.571679
0.0199703 1 0.98003
0 0.371317 1
0 0.70244 1
0 0.897787 1
0 0.727821 1
1 0.0538769 0
0 0.875673 1
1 0.27545 0
1 0.031238 0
0.44113 1 0.55887
1 5.96046e-08 0
0.185783 1 0.814217
0 0.751608 1
0.0451088 1 0.954891
1 0.818225 0
0 0.695927 1
1 0.282894 0
1 0.835653 0
1 5.96046e-08 0
1 5.96046e-08 0
0.997566 1 0.00243384
0 0.668162 1
0.140174 1 0.859826
0.542335 1 0.457665
1 5.96046e-08 0
0 0.962806 1
1 0.26222 0
0 0.617983 1
1 5.96046e-08 0
0.322778 1 0.677222
0.896665 1 0.103335
0 0.627091 1
1 0.685136 0
0.756938 1 0.243062
1 5.96046e-08 0
1 0.661892 0
0.26628 1 0.73372
0 0.611905 1
1 0.965566 0
0.0429679 1 0.957032
0.0560654 1 0.943935
0 0.378319 1
0 0.30861 1
1 0.963576 0
1 0.536502 0
1 0.346117 0
0 0.353969 1
0 0.202628 1
0.195963 1 0.804037
0 0.568264 1
0 0.719822 1
0 0.779448 1
0 0.215846 1
1 0.484101 0
0 0.674594 1
1 5.96046e-08 0
0.316754 1 0.683246
0 0.47296 1
1 5.96046e-08 0
0.846977 1 0.153023
1 5.96046e-08 0
0 0.23656 1
0 0.494292 1
1 5.96046e-08 0
0 0.837577 1
1 5.96046e-08 0
0 0.504294 1
0 0.681864 1
0 0.667846 1
1 5.96046e-08 0
0.0189796 1 0.98102
0.276246 1 0.723754
0.92391 1 0.0760902
0.0461353 1 0.953865
0 0.798677 1
1 5.96046e-08 0
0.0810891 1 0.918911
1 0.202231 0
0 0.930811 1
0 0.416799 1
0 0.983803 1
1 5.96046e-08 0
0.779006 1 0.220994
0.0484774 1 0.951523
0 0.320018 1
0 0.573032 1
0.283059 1 0.716941
0 0.783769 1
0.579919 1 0.420081
0 0.473713 1
1 0.862859 0
0 0.561014 1
0.295248 1 0.704752
0 0.582741 1
0 0.709698 1
0 0.683638 1
1 5.96046e-08 0
0 0.633605 1
0 0.624197 1
1 5.96046e-08 0
1 0.9386 0
0 0.895053 1
0.93875 1 0.0612503
0 0.766898 1
1 0.944572 0
0 0.49495 1
0 0.800047 1
0.122582 1 0.877418
0 0.592415 1
0 0.810596 1
0 0.38958 1
0 0.22352 1
1 0.159723 0
0 0.873044 1
1 0.491845 0
0 0.676721 1
0.83183 1 0.16817
0.152121 1 0.847879
0 0.413751 1
0.102239 1 0.897761
0 0.92679 1
0 0.680408 1
0.245385 1 0.754615
1 5.96046e-08 0
0 0.850888 1
0 0.713697 1
0 0.927217 1
0.0305465 1 0.969454
1 5.96046e-08 0
1 5.96046e-08 0
0 0.433794 1
0 0.377537 1
0 0.547419 1
0 0.999833 1
1 0.776947 0
1 5.96046e-08 0
0.329271 1 0.670729
0 0.349667 1
0.866423 1 0.133577
1 0.74759 0
0.902081 1 0.0979187
1 5.96046e-08 0
0 0.708235 1
0.262115 1 0.737885
0 0.956234 1
0 0.939684 1
0 0.624754 1
0 0.370903 1
0 0.828736 1
0.346473 1 0.653527
0 0.848107 1
1 5.96046e-08 0
0 0.244586 1
0.136461 1 0.863539
1 0.0877835 0
0 0.608637 1
0 0.785079 1
0 0.955383 1
0 0.328071 1
0.0551581 1 0.944842
0 0.702152 1
1 0.0101056 0
0.0278367 1 0.972163
0.264581 1 0.735419
0 0.735524 1
0 0.90202 1
0 0.922688 1
0.781311 1 0.218689
0 0.957287 1
0 0.595302 1
0 0.520688 1
0 0.588681 1
0.190734 1 0.809266
0 0.493244 1
0.13541 1 0.86459
0 0.509673 1
1 0.789196 0
0 0.700784 1
1 5.96046e-08 0
1 0.968491 0
0 0.48915 1
1 0.688873 0
0 0.847404 1
0 0.612021 1
0 0.293413 1
0 0.417702 1
1 5.96046e-08 0
0 0.858422 1
0 0.520584 1
1 0.0224798 0
0 0.782119 1
0 0.839608 1
0.216578 1 0.783422
0 0.38953 1
0 0.42143 1
0 0.377567 1
0 0.165093 1
0 0.708617 1
0 0.415749 1
0.0359938 1 0.964006
0.778293 1 0.221707
0.183696 1 0.816304
0 0.834907 1
0.207663 1 0.792337
0 0.431086 1
0 0.906103 1
0 0.450564 1
0.496645 1 0.503355
0.152715 1 0.847285
0.168066 1 0.831934
0 0.374266 1
0 0.644772 1
0 0.206642 1
0 0.239715 1
0 0.055939 1
0.00306467 1 0.996935
0 0.668491 1
0 0.364888 1
0 0.954376 1
0 0.497703 1
0 0.663564 1
0 0.57937 1
0 0.55726 1
0.0249784 1 0.975022
0 0.758304 1
0.233606 1 0.766394
0 0.630518 1
0 0.599527 1
0 0.686382 1
0 0.362918 1
0 0.831868 1
0 0.67293 1
0 0.505277 1
0 0.640818 1
0.011941 1 0.988059
0 0.480746 1
0 0.439784 1
0 0.370827 1
0 0.469834 1
0 0.919023 1
0 0.503623 1
0 0.696955 1
0 0.534168 1
0 0.631471 1
0 0.608855 1
0 0.90129 1
0 0.689589 1
0 0.404087 1
0 0.146348 1
0.12038 1 0.87962
0 0.649183 1
