# vtk DataFile Version 3.0
Particle simulation
ASCII
DATASET POLYDATA
POINTS 400 float
2.56954 2.28025 2.28141
1.11234 4.14054 6.20835
7.41945 0 5.02085
9.56055 4.25389 7.51562
5.65734 0.899794 6.89356
9.40896 7.33844 8.28704
10 3.23238 6.52222
5.41917 2.4694 0.530824
5.70746 4.82608 9.15752
5.9064 1.8247 7.46628
2.17678 4.16039 2.91074
1.00291 5.03804 0.562744
6.25631 8.61257 6.37367
0.740215 4.80364 0.716494
1.48445 7.97186 0
9.6632 3.11951 9.24577
5.03144 5.1129 8.851
3.3962 0.191669 2.22749
8.17736 9.59876 0.524921
0.394239 6.23492 9.83739
3.43999 0.598674 2.07907
5.3312 8.10351 8.18166
0 6.73742 7.79517
8.37941 6.93715 2.89335
6.00247 9.77148 1.71302
9.21631 7.68562 3.30777
5.90477 4.02188 6.9139
3.10534 2.44861 7.581
3.98919 2.05422 3.0577
5.38645 3.3908 5.59251
8.77322 8.72758 7.50773
6.76994 1.51274 2.08714
2.37055 3.40276 2.49735
8.02502 6.69954 2.53199
0.841207 3.52575 0.613762
2.72649 6.66877 3.45001
7.68127 6.48298 6.63827
3.73319 0.430198 2.41515
10 1.07958 10
9.57845 6.90594 8.16802
7.66203 6.64671 1.18228
6.69202 4.8696 3.91892
1.49641 3.25779 8.26775
6.80912 4.30671 0.0700208
6.41741 2.07344 4.76744
9.5516 8.87726 9.15646
2.32024 4.3454 9.53479
4.33383 8.92694 2.39098
0.285558 6.20168 4.41791
5.76011 2.35256 0.448764
7.12701 0.698098 6.23468
8.16174 8.94119 8.6646
3.79376 7.06909 3.1088
9.67994 6.75271 2.22652
7.32667 7.95917 8.93481
0.380057 0.720839 8.839
0.363279 5.04109 2.24496
5.50142 1.56501 5.76814
0.639219 3.45928 7.15031
2.85889 6.71118 5.14681
0.566471 5.66185 1.36533
4.86609 4.61341 6.14809
2.99916 0.450513 6.51628
0.695348 8.70796 4.67935
4.3728 9.33334 9.58333
5.19085 2.57292 5.34121
7.69597 1.31267 6.77847
5.3565 4.61331 7.60715
0 4.21865 1.09359
5.73629 0.0183605 3.86362
7.99956 3.42081 7.62522
8.42425 8.6736 6.26221
1.8185 8.83247 4.20794
8.9919 1.56544 5.86504
8.92039 0.14443 4.00993
0 9.84806 5.58972
0.593288 8.89971 4.58484
3.93168 2.2456 10
1.28083 8.11752 0.669102
9.76431 3.6058 8.42927
3.29034 0.0364609 2.13602
0.834601 3.57857 1.67557
3.50965 0.101825 9.02481
0 8.19363 2.7964
4.29202 4.87651 3.60474
8.73785 1.00945 7.5035
9.65329 1.56559 3.2265
4.44238 7.1184 9.19187
4.2422 6.45101 1.96552
1.05129 1.06571 4.26412
3.65209 0.316021 2.08507
2.91608 6.73767 3.9642
7.60813 0 2.26538
8.79467 5.48816 0.846917
7.7489 8.16442 5.83033
0.352365 5.7501 2.76083
8.40545 7.80654 8.37119
9.42408 8.78149 6.08924
7.60846 3.3241 5.76227
1.90974 6.35796 9.49655
3.29203 0.845676 0.2084
5.08914 4.44183 5.68843
8.75635 7.80142 1.52305
7.8171 1.00198 8.92235
4.11198 1.3378 4.37223
1.30208 7.22758 8.62445
0.457203 2.88991 1.75698
1.0089 8.66249 8.96866
1.4809 2.51126 6.171
9.8333 8.39115 6.75758
4.66466 8.69948 8.21379
2.1116 7.99261 9.6124
1.22367 7.68179 1.27073
2.49397 0.924284 4.17631
4.29386 0.758713 1.4059
7.13514 2.71283 6.7189
0.489744 0.286415 8.51565
0.750921 6.13198 4.77441
0.118794 0.319142 5.14841
6.56575 8.66284 3.51772
8.40329 3.45374 6.46535
6.95827 7.21537 0.647729
6.33841 0.327668 7.87312
6.48412 5.05549 4.68429
5.46011 9.27349 7.39644
3.52078 0.314706 0.822701
5.55172 2.22277 0.694616
5.28324 8.77951 3.80495
2.67613 1.34233 2.91894
8.59275 6.04828 1.31892
6.8305 8.72627 4.81679
7.1927 8.71641 6.0923
3.39284 9.14071 1.89429
3.11946 1.37491 2.42897
5.46978 9.09178 8.0438
5.59573 5.79431 3.62201
0.617789 1.49074 8.1278
4.3398 6.52809 8.60634
10 4.62639 6.63734
8.89564 7.68931 3.07456
3.54947 0.556964 1.8118
4.97585 2.82205 8.36075
9.24449 1.04896 1.24113
0 2.07024 7.9543
4.45536 0.336127 1.52987
9.36222 2.1403 2.01387
8.55012 1.09634 0
8.69108 9.68905 0.469256
0.000143602 1.82354 8.33496
1.38151 2.22328 9.73872
3.82568 0.180543 1.98139
3.3014 2.88213 7.87478
0.317484 4.7805 4.28228
3.30067 0.513758 2.15141
0.185043 0.472452 2.47543
9.48316 1.33088 5.481
8.953 5.7668 0.364447
5.81242 6.25373 3.72275
0 8.48129 4.23999
4.24779 6.31297 9.68339
2.12514 6.26991 8.16618
4.15169 5.0644 2.10158
2.64835 3.78333 3.62161
0.994144 6.4598 5.3884
1.93252 9.98942 2.78131
7.61524 7.00923 0.672514
3.18066 5.64504 1.35585
9.72489 7.43263 4.35094
3.37044 4.02619 8.54412
5.28698 7.53425 1.44151
3.29751 0.258122 2.60452
3.53099 3.6322 7.65016
1.21981 7.02245 2.9453
7.21908 3.71919 7.90402
0.971992 6.75696 6.07008
2.50296 2.2923 1.16288
6.91539 8.74606 3.56788
6.28708 9.04888 3.83919
4.3672 5.9281 2.84948
4.19137 3.02881 4.16572
3.92285 0.348536 2.44988
8.08613 0.662267 6.25186
4.38121 8.74651 9.10347
0.666107 2.90598 4.83201
7.75134 7.09277 1.68774
0.244352 5.79794 4.49742
3.80438 0.321062 2.3002
5.59103 6.01566 4.02708
4.49272 0.387977 2.4326
4.0887 0.451499 1.18139
3.48596 0.578819 2.09176
3.32425 0.104311 2.44674
9.6949 2.24255 2.95388
10 3.0528 9.23021
8.27336 9.25912 8.04381
4.99752 3.05379 0.614751
1.82224 7.77264 9.74923
3.50921 2.82136 1.12888
3.6207 0.450412 7.04543
3.2962 0.309204 2.24297
3.81422 0.426072 2.56818
6.3423 7.72444 1.19037
2.4095 5.73409 3.67496
8.19221 5.37786 2.64515
9.50059 6.48246 9.70372
4.13899 0 5.36767
5.15077 0.534644 3.04618
9.71096 2.87017 9.68008
5.89645 0.420227 9.29295
2.57961 3.25341 0.819285
3.57152 0.455312 2.37783
3.54709 0.195104 2.23347
1.28885 2.38002 6.81019
8.11716 1.83688 2.50016
1.22705 2.86096 2.24469
4.15653 1.27881 8.68641
3.08434 0.477794 2.44018
1.56086 1.26726 4.40847
1.21993 4.30288 5.50928
3.27371 9.19983 4.35873
7.12545 7.33162 0.757544
10 3.45424 4.24334
9.58625 0.440651 0.0624495
2.91805 0.120566 2.82705
8.5315 0.245369 0.94395
1.7415 6.18245 4.39962
9.56587 4.59953 6.95706
4.11396 0.598117 2.73454
3.20517 0.455135 2.43516
3.44781 9.46075 3.17875
8.79117 6.13072 4.70582
4.1172 6.94092 7.35747
7.98082 1.98168 5.40073
3.2194 0.404123 2.90261
0.406549 0.167593 8.19963
8.79755 2.84067 4.2052
8.61381 1.64389 6.50371
3.25994 1.2227 8.88768
3.36445 0.479829 1.89729
3.90083 9.98078 9.98646
3.83461 0.318237 2.22104
4.42642 0.318404 2.57288
2.28288 0.329863 3.64756
3.31536 0.753899 2.74156
2.95243 2.28288 4.70487
5.40058 8.66422 3.55702
0 1.37505 6.44015
10 0.633809 6.03389
2.64429 2.92335 1.30331
6.86573 6.44623 2.72058
3.83826 0.510399 2.06518
6.32931 9.86418 1.56887
1.97329 1.37294 7.18408
9.39275 3.69944 2.71283
1.743 4.09522 3.37399
2.06372 0.279779 3.52484
1.59786 2.74602 7.41865
0.268556 0.156646 8.52623
2.42524 8.33109 5.86288
0.460468 0.142133 8.28705
3.70081 0.434322 1.62439
8.01183 0.529016 9.22187
4.92482 1.62652 5.70744
0.0186662 0.247383 3.38385
0.278749 0.516186 4.29718
2.59687 2.0605 7.10761
4.28466 0.363363 4.51905
0.585487 0 8.30664
0.384256 9.89906 0.93299
3.67934 0.153397 2.6129
3.08932 0.687649 2.57507
2.18989 10 7.94821
8.58521 0.854185 4.53373
4.35869 6.06602 4.71639
4.39678 0.711014 4.65711
0.0678013 0.987503 6.37715
8.50564 5.59054 5.68574
1.84591 1.39346 4.81751
3.59423 0.186634 9.51073
3.50401 0.448609 2.36158
1.43029 1.93644 9.34334
8.12492 0.674408 0.413824
9.58178 5.76758 2.88439
4.28324 0.695139 2.16323
5.30699 0.766189 7.71527
9.3159 9.56728 3.74346
3.39068 0.284593 1.85881
4.00111 0.164899 4.17727
1.17115 4.58092 5.42655
5.73012 9.82185 1.95134
7.26608 5.09894 6.62086
3.62267 7.06217 6.51521
3.12201 0.321236 2.79388
1.72918 5.32688 3.1816
5.4189 2.14056 9.23501
0.807749 0.17793 8.47286
3.22835 0.599689 2.35667
3.56735 0.255654 2.26758
2.88453 0 3.34975
3.34287 0.378916 2.46845
9.34714 6.14999 0.0234079
9.42187 0.57197 0.320143
3.50781 1.01966 0.306307
3.28702 7.05536 7.46412
3.48058 0.0568451 2.12658
8.86979 3.37331 9.21796
3.18027 0.42854 2.20213
3.27498 0.140874 2.41182
1.3471 2.76144 7.31128
8.24293 5.56129 5.26131
0 5.21468 2.46493
7.14695 0.189972 3.86997
5.06022 8.26907 2.01762
3.57396 0.407379 1.92069
3.69673 9.76988 6.26563
4.26494 6.04442 2.13743
3.49489 0.309569 0.326026
0.753439 0 0.82568
1.29039 6.78856 7.45083
8.11786 8.73867 4.04086
0 0.446709 8.90774
6.6196 7.11874 8.38621
0.716635 0.0538733 8.73554
4.05201 0.22022 2.04653
0.0553194 0.534873 9.21333
3.3273 0.504193 0.839692
3.59655 0.222282 2.47998
6.82244 2.35338 1.5823
7.21042 8.01575 9.54462
3.48589 0.28207 2.37089
5.91268 6.5767 2.83191
3.42688 0.0718324 2.06287
1.51747 2.02326 9.36893
2.48744 0.299326 3.39023
8.03969 0.766785 0.594358
5.01153 0.821182 9.58687
5.44697 6.01751 5.69633
3.69832 0.484947 2.19298
1.74168 1.5622 9.84853
4.14079 3.86742 4.25638
4.61879 5.4987 1.69224
9.85603 8.89441 2.11728
1.62346 1.92088 9.31416
0.382601 0.0719368 8.24094
3.36969 0.418694 2.0218
2.99324 0.112739 1.70634
7.84057 0.204658 0.134956
3.73663 0.229818 2.37438
3.3084 0.473202 1.77579
7.80602 6.82867 0.318232
3.31276 0.501572 2.77504
3.3522 0.508616 2.0763
1.6283 7.21432 2.84974
3.57759 3.00479 2.08174
3.052 0.476469 1.69818
3.64345 0.459615 1.71718
3.31517 0.498171 0.385117
1.11865 1.55087 9.02264
4.10903 0.182016 1.95562
3.26076 0.206796 2.63179
8.14812 0.620452 0.502237
0.456699 0.317908 8.4345
0.354478 0.0877315 8.27058
3.39969 0.205174 1.33886
3.81734 0.224525 2.26782
7.97906 0.301069 0.794182
0.896325 0.175073 8.97659
8.08695 1.84725 3.29439
0.271124 0.315812 8.54468
8.5055 3.5848 4.83404
7.9806 1.14181 0.383602
3.4909 0.328201 9.0618
3.6706 0.43523 7.97236
3.89211 0.220119 2.42706
3.54153 0.585855 1.77282
8.03197 0.937712 0.360422
0.672408 0.315923 8.58723
0.739182 0.380513 8.71851
3.52418 0.514739 8.39006
3.80366 0.526552 2.27949
3.27439 0.168736 2.36982
3.57143 0.502262 2.27163
3.66101 0.72865 8.60545
3.99983 0.385488 2.42972
9.37011 0.935851 0.318332
0.233795 0.0603106 8.18494
3.30147 0.441033 1.98727
3.44457 0.349697 2.57753
9.77298 3.3483 9.04368
8.46673 0.529189 6.5978
3.29421 0.336496 2.92529
3.29453 0.754851 2.40141
0.592675 0.0145787 8.46819
3.1927 0.570014 2.33078
3.45681 0.871191 0.647019
0.527307 0.370552 8.35933
3.30833 0.341481 1.96183
0.180258 0.861483 3.67466
5.06332 0.274455 3.83044
7.80834 0.830864 0.387393
POINT_DATA 400
SCALARS particleColor float 3
LOOKUP_TABLE default
0.770244 1 0.229756
0 0.29453 1
1 5.96046e-08 0
1 0.162753 0
1 0.914451 0
0 0.768052 1
0.37027 1 0.62973
1 5.96046e-08 0
0.329563 1 0.670437
1 5.96046e-08 0
0.615718 1 0.384282
0.99373 1 0.00627005
1 5.96046e-08 0
1 0.575656 0
1 0.620873 0
1 0.795712 0
1 0.383042 0
0 0.582029 1
1 0.974291 0
1 0.910728 0
0 0.6172 1
1 5.96046e-08 0
1 0.0374979 0
0.961931 1 0.0380688
1 0.0835919 0
0 0.790022 1
0.829455 1 0.170545
0.0799957 1 0.920004
1 0.795567 0
1 0.766498 0
0.757934 1 0.242066
0.530528 1 0.469472
1 5.96046e-08 0
0 0.788921 1
1 0.405749 0
1 5.96046e-08 0
0.54563 1 0.45437
0 0.753061 1
1 5.96046e-08 0
1 5.96046e-08 0
1 0.993898 0
1 5.96046e-08 0
1 5.96046e-08 0
1 0.891984 0
0.556826 1 0.443174
1 5.96046e-08 0
1 5.96046e-08 0
1 5.96046e-08 0
1 0.407182 0
0.979699 1 0.020301
1 5.96046e-08 0
0.432156 1 0.567844
1 5.96046e-08 0
0.954637 1 0.0453629
1 0.621839 0
0.33938 1 0.66062
0.0355801 1 0.96442
0.756421 1 0.243579
1 5.96046e-08 0
1 5.96046e-08 0
1 5.96046e-08 0
1 0.388992 0
0 0.575005 1
1 0.51825 0
0 0.933648 1
1 0.290212 0
1 5.96046e-08 0
1 0.630026 0
0.805682 1 0.194318
0 0.81428 1
0 0.884669 1
0.867191 1 0.132809
1 5.96046e-08 0
0 0.851164 1
0.284534 1 0.715466
1 5.96046e-08 0
1 5.96046e-08 0
1 5.96046e-08 0
0.845356 1 0.154644
0.157926 1 0.842074
0 0.35109 1
1 0.991844 0
0.0353661 1 0.964634
1 5.96046e-08 0
1 0.881757 0
1 0.747952 0
1 0.743056 0
1 5.96046e-08 0
0.699568 1 0.300432
0 0.709333 1
0 0.319903 1
1 0.879695 0
1 5.96046e-08 0
1 5.96046e-08 0
0 0.574585 1
1 0.822784 0
1 5.96046e-08 0
1 0.890341 0
1 0.812152 0
1 5.96046e-08 0
0 0.896402 1
0.981344 1 0.0186563
0.728823 1 0.271177
1 0.527781 0
1 5.96046e-08 0
1 0.302158 0
1 0.961901 0
0.521306 1 0.478694
1 0.933808 0
1 0.0523987 0
0.664836 1 0.335164
1 0.853289 0
1 0.673558 0
1 5.96046e-08 0
0 0.873239 1
1 0.19723 0
0 0.344834 1
1 5.96046e-08 0
1 0.449036 0
1 0.992383 0
1 5.96046e-08 0
0.183576 1 0.816424
1 0.132206 0
1 5.96046e-08 0
0.643161 1 0.356839
0 0.530299 1
0.603176 1 0.396824
0 0.310832 1
0.0532718 1 0.946728
0.457738 1 0.542262
0 0.557094 1
0.901477 1 0.0985234
1 5.96046e-08 0
0.471809 1 0.528191
0.933686 1 0.066314
1 0.25375 0
0.724436 1 0.275564
1 5.96046e-08 0
0.885969 1 0.114031
0 0.900361 1
0 0.436185 1
1 5.96046e-08 0
1 5.96046e-08 0
1 5.96046e-08 0
0 0.796717 1
0.839859 1 0.160141
0.570667 1 0.429333
0.150071 1 0.849929
0.431976 1 0.568025
1 5.96046e-08 0
0 0.686256 1
1 5.96046e-08 0
1 0.823434 0
0 0.846289 1
1 5.96046e-08 0
1 5.96046e-08 0
0.465123 1 0.534877
1 0.664068 0
1 5.96046e-08 0
1 0.437903 0
1 5.96046e-08 0
0.114167 1 0.885833
1 0.665425 0
1 0.766481 0
0.665973 1 0.334027
0.91843 1 0.0815704
1 0.0807747 0
0.759491 1 0.240509
1 5.96046e-08 0
0 0.982836 1
0 0.725625 1
1 5.96046e-08 0
0 0.658428 1
1 0.263256 0
0.0728222 1 0.927178
1 5.96046e-08 0
1 5.96046e-08 0
1 0.379684 0
1 0.775462 0
1 0.53469 0
0 0.533307 1
1 5.96046e-08 0
0.581711 1 0.418289
1 5.96046e-08 0
1 5.96046e-08 0
0.883897 1 0.116103
0 0.725988 1
1 5.96046e-08 0
0 0.438882 1
0 0.379503 1
0 0.728444 1
0 0.876094 1
1 5.96046e-08 0
0.473599 1 0.526401
1 0.612245 0
0 0.589463 1
1 5.96046e-08 0
1 0.411684 0
0.789553 1 0.210447
0 0.94831 1
0 0.320334 1
1 5.96046e-08 0
1 0.441594 0
0 0.70121 1
1 0.00555456 0
1 5.96046e-08 0
0.368138 1 0.631862
0.836276 1 0.163724
0 0.60598 1
1 5.96046e-08 0
0 0.865956 1
0 0.401314 1
1 0.0945041 0
1 0.776654 0
0.573446 1 0.426554
0 0.802922 1
0 0.657363 1
0.75614 1 0.24386
0 0.588861 1
1 5.96046e-08 0
1 0.160821 0
1 0.779698 0
0 0.487593 1
0 0.701085 1
0.576773 1 0.423227
1 5.96046e-08 0
0 0.684181 1
0 0.453088 1
0 0.539664 1
1 5.96046e-08 0
1 0.655172 0
1 0.151368 0
1 5.96046e-08 0
0 0.507346 1
0 0.652576 1
0.301689 1 0.698311
1 5.96046e-08 0
0.204681 1 0.795319
0 0.70014 1
1 0.618014 0
0 0.597296 1
0 0.736751 1
0.474153 1 0.525847
0 0.483597 1
1 5.96046e-08 0
0.944133 1 0.0558667
1 5.96046e-08 0
1 0.685973 0
1 5.96046e-08 0
1 0.599736 0
0 0.870524 1
0.109119 1 0.890881
1 5.96046e-08 0
0.935477 1 0.0645227
1 0.221122 0
0 0.668832 1
1 5.96046e-08 0
0 0.277444 1
1 5.96046e-08 0
0 0.684915 1
0 0.824359 1
1 0.893383 0
0 0.737575 1
0.361342 1 0.638658
0 0.621116 1
1 5.96046e-08 0
1 0.860352 0
0 0.660709 1
0.559706 1 0.440294
0 0.735406 1
0 0.775496 1
1 5.96046e-08 0
1 5.96046e-08 0
1 5.96046e-08 0
0 0.875235 1
0.307902 1 0.692098
0 0.782997 1
1 5.96046e-08 0
1 0.581693 0
0 0.424446 1
0.508003 1 0.491997
0 0.381999 1
1 5.96046e-08 0
0.48588 1 0.51412
1 0.807127 0
1 0.185632 0
0 0.654599 1
0 0.999477 1
1 5.96046e-08 0
1 0.333783 0
0.47502 1 0.52498
1 5.96046e-08 0
0 0.843911 1
0.777689 1 0.222311
0 0.910918 1
0 0.668049 1
0 0.427543 1
0 0.624254 1
0 0.707321 1
0 0.221048 1
1 5.96046e-08 0
1 0.853318 0
0.189428 1 0.810572
0.440684 1 0.559316
0 0.476779 1
1 5.96046e-08 0
0 0.57495 1
0 0.655213 1
1 0.709686 0
0 0.686956 1
1 5.96046e-08 0
0.971081 1 0.0289189
0 0.971244 1
0 0.567141 1
1 0.73659 0
0.373197 1 0.626803
0.205297 1 0.794703
1 5.96046e-08 0
1 5.96046e-08 0
0.910725 1 0.0892755
0 0.57633 1
0.358246 1 0.641754
0 0.348548 1
0 0.545715 1
0 0.539303 1
1 0.765828 0
0 0.827108 1
1 5.96046e-08 0
1 0.723559 0
0 0.579972 1
1 5.96046e-08 0
0.459018 1 0.540982
0 0.446046 1
0 0.911542 1
0 0.536533 1
1 0.124289 0
0.663522 1 0.336478
0 0.38446 1
0.835449 1 0.164551
1 5.96046e-08 0
1 5.96046e-08 0
0.579672 1 0.420328
0 0.47604 1
0 0.420003 1
0 0.635321 1
0 0.532796 1
0 0.343117 1
0 0.988893 1
0.0881179 1 0.911882
1 0.538921 0
0 0.680514 1
0 0.525078 1
0 0.897787 1
1 0.823358 0
0 0.526602 1
0 0.583482 1
0 0.678905 1
0 0.895602 1
0 0.635401 1
0 0.215898 1
0 0.561268 1
0 0.421272 1
0 0.272905 1
0 0.518212 1
0.0214666 1 0.978533
0 0.446207 1
0 0.241258 1
1 0.99806 0
0 0.195198 1
1 5.96046e-08 0
0 0.453014 1
0.143942 1 0.856058
0.711361 1 0.288639
0 0.834226 1
0 0.652644 1
0 0.570918 1
0 0.706448 1
0 0.890119 1
0 0.499901 1
0 0.817357 1
0 0.722419 1
0 0.482692 1
0 0.571595 1
0 0.670484 1
0.0704849 1 0.929515
0 0.75923 1
0 0.466705 1
0 0.518754 1
1 5.96046e-08 0
0 0.988187 1
0 0.383196 1
0 0.351495 1
0.164332 1 0.835668
0 0.588115 1
0 0.322732 1
0 0.436462 1
0 0.603475 1
0.973305 1 0.0266946
0.97089 1 0.0291102
0 0.709113 1
