# vtk DataFile Version 3.0
Particle simulation
ASCII
DATASET POLYDATA
POINTS 400 float
5.24524 5.49699 5.85096
0.75178 5.59828 5.65267
2.64196 9.51827 9.26896
1.48202 7.19933 8.96952
6.77143 5.38736 3.89264
7.29918 7.80298 9.84782
7.80157 0.0827246 8.87968
0.372917 9.57839 6.4436
5.52429 4.25938 2.77893
4.06403 1.0523 6.41364
0.71471 5.99225 0.863131
5.11315 5.98887 0.938636
9.88196 1.45553 0.860784
5.99814 0.230701 3.44895
4.42196 7.02858 8.27919
0.945845 5.64763 8.21173
2.88043 2.89765 7.91789
3.63209 0.358765 2.54886
7.03674 6.66628 8.48917
2.00316 0.0901146 2.79635
3.65482 0 2.51576
0 6.56261 2.30366
8.39191 5.99047 5.20987
3.37987 1.72102 0
1.86621 8.53686 0.366219
10 10 8.37814
1.27485 1.87891 7.9034
2.82307 7.92395 8.47272
9.54506 0 5.80577
2.32068 0.274181 8.72993
4.34149 9.87444 4.42763
8.7637 8.61654 0.105774
6.2225 9.1699 1.46519
0.388897 0.90302 4.20912
3.37125 5.06694 3.06357
0 10 5.36056
9.19798 5.43428 5.08005
4.87255 0.440692 3.62359
5.30429 0 2.17337
0.71984 2.3671 8.61489
3.73888 0.954121 1.67646
9.45815 7.80097 4.7471
6.81425 8.52021 6.97907
5.19083 4.07963 0.384372
9.0927 3.76836 7.17958
2.72978 0.0647084 9.53375
1.98664 9.91156 3.28668
4.02476 2.07247 9.31292
4.68676 1.80011 6.21615
5.03891 7.03798 9.05856
5.284 4.7723 2.08623
9.19526 1.86014 7.58932
7.25658 7.57063 1.69576
4.58183 1.54927 5.53942
4.47363 2.44419 5.20533
1.51734 0.787223 7.50603
2.23279 8.82156 0.561
1.43247 1.52021 7.71484
6.23872 3.72707 8.78392
0.217286 5.36729 1.88489
3.44115 5.92947 0.515435
2.4962 8.72705 4.16385
4.17422 0.824672 7.66091
1.27127 4.52894 9.35186
2.69014 7.01232 7.55592
0.54961 8.74802 2.21059
0.198777 7.89988 3.4276
3.14665 1.26375 2.40398
1.39452 9.35595 6.0718
6.55024 2.907 7.27431
3.45593 9.88314 1.84779
4.99005 0.0400307 6.11177
6.71681 6.16265 8.85173
9.81248 3.88286 3.20741
8.685 1.27397 4.6568
6.17254 4.15695 9.36984
6.60393 2.53061 10
7.66941 7.17008 9.34836
6.31087 5.96121 4.19553
6.52795 9.59782 6.94313
3.63135 0.62363 2.34848
5.7826 1.8991 1.48696
7.18179 1.34643 8.3744
8.53417 0.471302 7.65702
6.70363 8.99527 1.29688
7.8784 5.20161 6.67988
6.59221 2.86097 2.11821
2.03076 2.96678 6.93199
2.29525 9.33474 7.02801
4.27009 6.58747 2.14275
3.87724 0.504528 3.19705
4.20685 0 0.216956
6.63644 6.35348 1.28991
5.8852 0.731541 8.30771
4.67117 6.41932 8.781
9.0204 7.73725 1.29894
9.67674 5.01511 8.65872
4.37075 8.81991 1.46054
8.44598 4.39181 9.07799
6.93463 4.72282 2.43439
4.19119 2.63043 0.799955
9.37283 5.52624 3.21765
7.31614 2.68258 0.65732
2.28917 6.61259 7.7206
5.31601 5.80821 1.99015
5.06277 2.37318 4.98464
5.98355 10 7.26367
1.29827 5.63159 9.23612
7.60401 3.03816 5.61746
9.83303 1.38085 1.97456
9.74267 7.61389 3.5084
0.032823 9.77879 7.06747
2.74065 2.91424 5.07766
6.92687 9.36445 6.61446
2.86018 0.12944 2.28745
6.7324 3.82751 5.44409
0.732285 0.49925 8.36782
6.73504 6.4814 3.21343
0.659561 1.08078 3.1436
5.04418 3.8148 0.559767
8.24146 7.93102 6.33238
4.61064 7.37665 5.67072
0.735843 6.59963 0.746
3.91532 2.18861 4.16387
7.89284 8.25693 5.43037
3.71171 1.65772 1.38849
9.19373 1.05416 2.47841
5.36816 2.29538 3.18779
3.97136 1.57173 4.57472
7.46886 7.53892 2.36339
1.63811 0 1.06466
4.22952 6.75536 4.63023
6.89549 5.42473 9.25434
3.22911 6.32199 10
7.10827 4.83846 0.196564
6.58965 8.37306 3.97773
7.94452 7.53738 0.660438
5.33894 0.368981 1.03151
8.62829 8.77499 3.86967
9.94215 6.53408 0.523437
3.76834 0.512251 2.91738
9.28877 8.7814 0.304911
0.859592 9.39586 9.97755
3.46912 3.5872 2.08879
4.12337 3.24183 0.213839
8.46817 2.68193 8.95431
7.44421 7.18647 0.408985
8.65479 5.41292 2.83993
7.39295 2.64398 3.19471
10 9.05675 6.47768
3.77795 0.166175 2.63296
4.65822 10 6.43152
8.11953 2.57679 7.14334
3.64034 0.272521 2.98245
1.23234 8.72927 10
2.47325 6.72352 5.85916
9.27441 8.05938 1.45996
5.98655 6.61551 2.87702
8.5803 2.39758 7.05616
2.59222 5.81765 1.09455
8.90389 7.20739 2.61147
1.3595 3.27186 3.67918
0.811158 6.87139 3.68796
3.52554 3.86564 2.29187
3.53428 3.35727 0.6712
8.11252 2.81371 4.43388
3.55828 0.781938 6.37792
3.81712 8.64653 1.71642
1.57685 2.93097 9.77033
8.23214 3.43495 2.74723
4.29682 0.165933 2.18416
8.39623 1.69446 10
2.82201 8.72452 4.14772
8.83827 9.82617 1.41282
0.992834 9.8682 6.07883
0.842427 4.08485 8.18657
2.19577 7.15132 6.52459
5.60649 3.0656 6.55732
9.60642 3.96376 2.46448
4.30423 3.51438 0.302751
3.09597 0.286112 2.59332
4.10158 2.99379 5.43374
1.14442 9.10236 5.97376
8.65038 0.534473 6.73156
1.09351 7.83938 3.27621
8.53526 1.69828 10
3.70909 0.115917 2.77042
10 0 2.63312
3.07928 0.13003 2.24441
2.92202 0.659693 2.79849
3.92833 0.248269 2.99008
3.98101 0.176372 2.35307
0.358588 2.24803 0.0765635
4.82014 3.28014 9.2728
8.7512 1.211 7.79958
7.54721 4.36727 3.86624
1.97316 0 8.2913
5.00731 1.95806 7.87809
3.15209 0.369565 4.3549
3.88455 0.397704 2.41702
3.94907 0.338168 2.86626
7.66958 8.13026 1.61103
0.807972 3.44696 8.40766
4.77933 3.203 4.28385
4.8212 6.52753 6.40444
8.50731 2.85205 5.72693
8.07748 0.599171 7.94905
4.80917 3.67606 8.04799
4.74031 3.0553 8.49581
0.893774 7.28813 7.42053
3.96658 0.57396 3.17119
3.94433 0.393265 2.29827
1.68347 1.02457 1.05529
0.963802 2.79469 6.43147
2.12424 4.05613 2.06214
8.27757 6.42319 7.78079
3.80584 0.0656196 2.17868
3.85691 1.78645 3.63668
2.31649 3.14933 6.57833
8.07821 4.74354 8.63626
9.57982 7.24626 0.312451
5.26727 9.11234 0.0487675
4.87778 0.555283 3.47988
3.95194 0.206876 1.95093
9.79831 9.07128 0.485925
4.50973 3.68145 0.420326
6.55957 5.26119 9.89768
3.59475 0.526709 2.83146
3.55031 0.314573 2.57841
8.60457 7.35034 1.53337
7.53704 3.65916 7.68807
1.59492 6.29816 1.34527
1.57317 7.95819 4.4528
4.38574 0.457784 2.24593
0.641286 0.580539 8.32923
7.70098 2.97461 4.53373
5.596 5.15188 9.69336
3.02483 3.14272 8.64716
3.62103 0.430091 2.91504
0.80009 7.54675 9.96525
3.85817 0.224455 2.66519
3.09199 0.558934 2.59312
10 7.77228 3.01195
4.30221 0.7974 2.7318
8.01665 4.41642 4.36851
6.61567 7.24828 0.180425
5.37254 5.82605 3.8638
5.6306 7.03539 5.74915
4.39286 9.41067 0.959685
0.270601 0.184905 2.22013
4.1631 0.662517 3.27912
2.24291 2.58441 4.23002
10 5.77426 3.36995
8.44948 4.60265 4.24395
0.608674 2.18661 9.4637
0.119759 0.0742932 3.39897
6.18852 9.23867 7.04412
0.777501 0.498702 8.2401
2.59369 2.30427 4.67054
0.646497 0.550389 8.38145
3.32359 0.81694 3.78372
8.21063 3.19922 9.48411
1.65915 1.95169 6.15696
7.30548 4.75496 3.31214
0.978412 2.92955 6.16794
6.03131 3.74517 5.18867
0.110193 4.49001 2.38071
0.303746 0.793621 8.33639
3.76182 10 6.89551
1.0175 1.57062 1.72107
3.66619 0.626128 1.88994
7.20766 3.05623 9.73052
7.09793 9.77435 6.59472
2.5533 1.72368 7.00606
6.50336 0.0151305 4.81521
5.69527 6.14621 3.40933
7.65901 2.71298 5.89693
5.42257 2.65162 7.67772
7.68576 2.35832 9.83452
3.76926 0.219787 2.71587
9.60513 9.61864 4.23226
8.64229 0.667777 0.877637
3.98302 7.25406 5.5862
1.35765 0.930063 1.48837
8.45638 2.63485 9.41307
3.04106 9.10629 8.36321
3.8607 0.14974 2.55248
0.103648 0.454135 5.64705
9.54455 0.0150081 4.94246
6.78492 2.79818 9.66542
7.10248 3.70333 7.96443
0.44132 6.12787 3.65873
4.35809 0.359407 1.89645
2.27837 1.73788 9.95925
3.33025 1.50543 5.65353
0.422046 0.583521 8.65324
3.51943 0.345865 2.72624
4.07577 0.436761 2.89368
4.2551 0.358055 1.98632
3.54276 0.303216 2.66136
3.37515 3.16867 4.51074
7.39292 0.451082 0.0282408
3.89769 0.407554 3.07433
4.118 6.60808 2.45337
4.03353 0.61774 2.25128
1.977 5.24256 6.3101
3.52608 0.431767 2.54852
3.65066 0.59507 2.71103
1.29804 1.87469 8.6987
8.7339 3.46156 6.40268
6.75082 7.77031 8.9148
0.604892 0.266123 5.30055
1.73723 6.65555 1.50936
3.70276 0.106107 2.39516
8.04305 3.48024 6.06497
1.33182 9.72338 6.55579
3.63735 2.98405 0.464224
5.59332 8.26759 3.22262
6.98905 0.979771 3.33492
8.36214 6.37181 1.16807
0.395191 0.896683 8.46136
8.06116 9.67171 8.6271
0.675791 0.584181 8.70982
4.08345 0.0926237 2.51651
0.427805 0.412348 6.24438
8.86964 1.20663 5.41884
4.24182 0.496658 3.14954
7.62727 5.52415 1.38463
3.77734 7.55623 9.52538
4.08792 0.319597 2.28509
2.49187 6.53736 5.281
2.44177 1.65592 0.128782
0.259065 0.776193 5.7087
0.191951 1.26511 1.7866
8.65009 0.367423 0.61729
1.93685 1.16337 6.54834
9.47497 6.26152 2.58541
4.01886 0.223566 2.35738
0.795061 2.76295 8.79941
8.16698 3.84197 9.67847
9.25046 7.11607 4.222
7.75741 8.48643 2.75943
0.659479 4.00451 8.43859
0.696547 0.497951 8.40558
3.76886 0.518553 2.17324
4.64773 0.49992 3.66447
8.56787 0.212431 0.560313
3.97606 0.08253 2.60942
4.48345 0.519376 2.99409
8.40077 2.59802 4.16184
4.10643 0.333698 2.26128
3.69113 0.093113 2.5342
2.25328 8.96538 3.69655
7.01461 10 2.96085
3.60865 0.364562 2.44709
4.11162 0.214247 2.44526
3.29852 1.91956 1.11648
1.0074 4.41266 9.05799
4.36756 0.599519 2.90898
3.56435 0.427201 2.75774
8.78674 0.654039 0.907619
0.757576 0.523514 8.33829
0.548418 0.62375 8.4029
3.362 0.699243 3.06742
3.73789 0.395926 2.73804
9.06469 0.446804 1.01406
0.531672 0.366347 8.92988
1.97867 1.90256 0.112617
0.790733 0.401791 8.26969
3.51627 1.17852 3.5985
8.58518 1.16829 0.751667
1.51895 2.33017 7.46577
5.36829 3.19129 1.32495
4.18313 0.352587 2.62821
3.83081 0.498063 2.41833
8.42772 0.501557 0.921714
0.678051 0.852547 8.31162
0.517548 0.668306 8.27755
2.60308 1.66242 8.86413
4.31416 0.395856 2.28863
3.93406 0.109926 2.28878
3.66095 0.0720333 2.51715
2.46289 1.48848 8.97369
4.03918 0.266043 2.70586
8.23857 2.76048 1.64238
0.821221 0.737828 8.52444
3.83659 0.500369 2.1768
3.9438 0.22585 2.44007
5.29845 9.94356 9.567
3.33016 2.00074 9.2786
3.7087 0.51156 2.95333
3.50586 0 2.64489
0.400524 0.70703 8.18946
3.64008 0.19473 2.82968
4.0099 1.85916 1.7092
0.406459 0.486053 8.26235
3.81426 0.608361 2.22747
0.856067 5.32289 0.896719
0.716279 1.01324 2.89963
8.63643 0.544476 0.907441
POINT_DATA 400
SCALARS particleColor float 3
LOOKUP_TABLE default
0.319344 1 0.680656
0 0.554165 1
1 5.96046e-08 0
1 5.96046e-08 0
0.674111 1 0.325889
0 0.937127 1
0.979801 1 0.0201986
1 5.96046e-08 0
0.765672 1 0.234328
1 0.34106 0
0 0.964561 1
1 0.371901 0
1 5.96046e-08 0
0.813864 1 0.186136
1 5.96046e-08 0
1 5.96046e-08 0
1 0.553606 0
0 0.777019 1
1 5.96046e-08 0
1 5.96046e-08 0
0 0.326554 1
1 5.96046e-08 0
1 5.96046e-08 0
1 5.96046e-08 0
0.0200728 1 0.979927
1 5.96046e-08 0
0.384456 1 0.615544
1 5.96046e-08 0
0.920019 1 0.0799813
0.827409 1 0.172591
0.348683 1 0.651317
1 0.958116 0
1 0.826574 0
1 5.96046e-08 0
1 0.630428 0
1 5.96046e-08 0
1 5.96046e-08 0
0 0.363345 1
1 5.96046e-08 0
1 0.524865 0
1 5.96046e-08 0
1 0.0221993 0
1 0.298214 0
1 0.65874 0
1 5.96046e-08 0
1 5.96046e-08 0
1 0.424123 0
1 5.96046e-08 0
1 0.248959 0
1 5.96046e-08 0
1 5.96046e-08 0
0.733101 1 0.266899
0 0.750141 1
1 5.96046e-08 0
1 0.974905 0
0 0.955537 1
0.776875 1 0.223125
0 0.818114 1
0.522782 1 0.477218
0 0.561577 1
1 0.630123 0
1 0.394 0
0 0.470872 1
0.734746 1 0.265254
1 5.96046e-08 0
1 0.870536 0
1 5.96046e-08 0
0.758955 1 0.241045
1 0.33887 0
0.437728 1 0.562272
1 5.96046e-08 0
1 5.96046e-08 0
1 0.718583 0
0.227933 1 0.772067
0 0.898743 1
0.69951 1 0.30049
1 0.462527 0
1 5.96046e-08 0
0.804605 1 0.195395
0.826397 1 0.173603
0 0.600049 1
1 5.96046e-08 0
0.725527 1 0.274473
1 5.96046e-08 0
0.241952 1 0.758048
1 0.809132 0
1 0.980672 0
1 0.142761 0
0.780692 1 0.219308
1 0.438068 0
0 0.741628 1
1 0.487889 0
1 5.96046e-08 0
1 5.96046e-08 0
1 0.970227 0
1 5.96046e-08 0
1 5.96046e-08 0
1 5.96046e-08 0
0 0.50732 1
1 5.96046e-08 0
0 0.969023 1
0.181457 1 0.818543
0.680567 1 0.319433
0.63804 1 0.36196
1 5.96046e-08 0
1 5.96046e-08 0
1 5.96046e-08 0
0 0.867743 1
1 5.96046e-08 0
1 0.0386044 0
1 0.616511 0
1 5.96046e-08 0
1 0.695615 0
1 5.96046e-08 0
0 0.492652 1
1 0.352395 0
0 0.744193 1
1 0.175086 0
0.656562 1 0.343438
0.273475 1 0.726525
1 5.96046e-08 0
1 0.628586 0
1 5.96046e-08 0
1 5.96046e-08 0
0.352783 1 0.647217
0 0.510742 1
0.370051 1 0.629949
1 5.96046e-08 0
0 0.482709 1
0.895872 1 0.104128
1 5.96046e-08 0
1 5.96046e-08 0
1 5.96046e-08 0
1 5.96046e-08 0
1 5.96046e-08 0
1 0.14124 0
1 5.96046e-08 0
1 5.96046e-08 0
1 0.94702 0
0.400537 1 0.599463
0 0.476564 1
1 0.0448878 0
1 5.96046e-08 0
1 5.96046e-08 0
0.961891 1 0.0381087
1 5.96046e-08 0
1 0.878753 0
0.584625 1 0.415375
1 0.659787 0
1 5.96046e-08 0
0 0.465543 1
1 0.235839 0
1 0.394652 0
0 0.388271 1
1 5.96046e-08 0
1 0.337437 0
0.646421 1 0.353579
1 0.854913 0
1 5.96046e-08 0
1 0.305288 0
1 5.96046e-08 0
0.66507 1 0.33493
1 5.96046e-08 0
0.18836 1 0.81164
1 0.419145 0
0.842644 1 0.157356
1 0.782073 0
1 0.0549521 0
0.642715 1 0.357285
0.503578 1 0.496422
0 0.666196 1
1 5.96046e-08 0
0 0.645483 1
1 5.96046e-08 0
0.148802 1 0.851198
0.182177 1 0.817823
1 5.96046e-08 0
1 5.96046e-08 0
0.637528 1 0.362472
1 0.114791 0
0 0.489483 1
1 5.96046e-08 0
0.254453 1 0.745547
1 0.0742357 0
1 5.96046e-08 0
1 5.96046e-08 0
0 0.247971 1
1 5.96046e-08 0
0 0.58238 1
0 0.307988 1
0 0.396377 1
0 0.970546 1
1 0.577353 0
0.754355 1 0.245645
1 0.232462 0
1 5.96046e-08 0
1 0.330798 0
1 5.96046e-08 0
1 5.96046e-08 0
0.0365822 1 0.963418
0 0.444487 1
1 5.96046e-08 0
1 0.414568 0
1 5.96046e-08 0
1 0.347906 0
1 5.96046e-08 0
0.988934 1 0.0110664
0.409516 1 0.590484
0.372633 1 0.627367
1 5.96046e-08 0
0 0.299519 1
0 0.285327 1
0.630717 1 0.369283
1 5.96046e-08 0
0.766505 1 0.233495
1 5.96046e-08 0
0 0.676055 1
0 0.939815 1
1 5.96046e-08 0
1 5.96046e-08 0
0.790348 1 0.209652
1 0.300808 0
1 0.992144 0
0 0.81554 1
1 0.247933 0
1 0.602578 0
1 0.883756 0
0 0.970994 1
0 0.305072 1
1 0.249182 0
1 0.914721 0
1 0.791947 0
1 5.96046e-08 0
0 0.250533 1
0 0.600175 1
0.342468 1 0.657532
0.906467 1 0.0935332
0.0747811 1 0.925219
0 0.489947 1
0.608675 1 0.391325
0 0.606621 1
0 0.942979 1
1 5.96046e-08 0
0 0.772607 1
1 0.278807 0
0.615572 1 0.384428
0.751887 1 0.248113
1 5.96046e-08 0
1 5.96046e-08 0
0.390663 1 0.609337
0 0.612818 1
1 5.96046e-08 0
1 5.96046e-08 0
1 0.721514 0
0.905017 1 0.0949825
0 0.528523 1
1 5.96046e-08 0
0 0.357536 1
1 5.96046e-08 0
0 0.936777 1
1 0.648854 0
0.176846 1 0.823154
0.417342 1 0.582658
1 5.96046e-08 0
0.883518 1 0.116482
1 0.211484 0
0.674299 1 0.325701
0 0.58406 1
1 5.96046e-08 0
0 0.337108 1
0 0.390295 1
1 5.96046e-08 0
1 5.96046e-08 0
1 0.877321 0
1 0.626306 0
1 0.434526 0
0.579406 1 0.420594
1 5.96046e-08 0
1 5.96046e-08 0
0 0.422718 1
1 5.96046e-08 0
0 0.423634 1
1 0.250273 0
0 0.46576 1
1 0.866402 0
1 0.531069 0
0 0.49245 1
0.856555 1 0.143445
1 5.96046e-08 0
1 5.96046e-08 0
0.184912 1 0.815088
1 0.150038 0
0 0.462508 1
1 5.96046e-08 0
1 0.358764 0
0 0.390102 1
0 0.760719 1
0 0.512539 1
0 0.997611 1
0 0.445333 1
1 5.96046e-08 0
0 0.403065 1
0.35972 1 0.64028
1 0.478975 0
0 0.563982 1
1 5.96046e-08 0
0 0.459391 1
0 0.744656 1
0.575931 1 0.424069
0 0.678135 1
1 0.256591 0
1 0.949007 0
1 0.579292 0
0 0.637928 1
1 5.96046e-08 0
1 0.9604 0
0 0.5992 1
1 5.96046e-08 0
1 5.96046e-08 0
0 0.884549 1
0 0.708445 1
0 0.662238 1
0 0.57119 1
0 0.500477 1
0.437309 1 0.562691
1 0.722825 0
0 0.703704 1
1 0.827405 0
0.461603 1 0.538397
0 0.271852 1
1 5.96046e-08 0
0.636367 1 0.363633
0.255257 1 0.744743
0.279519 1 0.720481
0 0.479525 1
0.768399 1 0.231601
0.219097 1 0.780903
0 0.566366 1
0.313462 1 0.686538
1 0.0516433 0
0.795283 1 0.204717
0.142698 1 0.857302
0.703492 1 0.296508
0 0.522837 1
0 0.447405 1
0 0.778798 1
0 0.358383 1
0.0033123 1 0.996688
0 0.335338 1
1 0.687151 0
0 0.624796 1
0 0.78566 1
0 0.544049 1
0.847837 1 0.152163
0.207362 1 0.792638
0 0.975572 1
1 0.881771 0
0.88475 1 0.11525
0.00945628 1 0.990544
0 0.622372 1
0 0.526146 1
0 0.752767 1
0 0.486224 1
0 0.985861 1
0 0.767988 1
0 0.354568 1
0 0.306332 1
0 0.892717 1
0 0.628923 1
1 5.96046e-08 0
0 0.467221 1
0.395109 1 0.604891
1 5.96046e-08 0
0 0.722478 1
0 0.916156 1
0 0.586404 1
0 0.648515 1
0.071659 1 0.928341
0 0.722203 1
0 0.441759 1
0 0.705259 1
0 0.62282 1
0 0.427221 1
0 0.510098 1
0.282808 1 0.717192
0 0.687513 1
0 0.494284 1
0 0.650571 1
1 5.96046e-08 0
0.231404 1 0.768596
0.154602 1 0.845398
0 0.41103 1
0.210668 1 0.789332
0 0.836082 1
0 0.417597 1
0 0.521734 1
0 0.568845 1
1 0.937769 0
1 0.428848 0
0.338059 1 0.661941
