# vtk DataFile Version 3.0
Particle simulation
ASCII
DATASET POLYDATA
POINTS 400 float
1.17946 0.292496 9.49862
2.46775 2.74838 6.13073
6.73442 8.57549 8.76533
5.31409 3.68454 2.61003
8.43833 1.99393 9.58778
6.52195 6.74432 0.00883317
5.84685 5.95595 5.15801
8.60978 4.4504 3.588
6.13485 2.02792 0.856742
1.0113 0.531642 7.81016
4.94963 2.26985 4.47327
8.90431 2.84756 9.92488
4.74146 4.73063 3.10335
1.02064 1.98669 5.53884
1.29513 1.8509 5.86086
2.90514 2.23262 5.73272
4.02617 3.98291 3.38521
3.41603 0.205443 0.880271
8.67816 4.53782 9.31509
9.91003 0.160837 3.76774
3.26937 0.458467 1.00242
6.76225 3.16953 9.12805
2.69577 3.31035 4.86299
3.56428 8.91991 0.365277
9.76641 1.82499 6.92213
2.22928 4.08713 9.02725
9.06181 2.51298 0
0.185858 0.676735 8.50687
5.22867 7.35778 0.817845
6.19101 2.76003 9.31279
2.54833 3.08284 3.0308
0.974863 6.63755 5.11154
0.212935 8.64309 8.78992
9.26112 2.33089 3.36991
9.9365 8.41087 5.14958
6.91676 9.31197 9.2556
5.03128 1.06184 9.02655
3.13872 0.0918459 1.30729
7.48883 2.7015 1.50814
1.37668 2.69533 8.58261
8.4173 4.8155 3.67026
6.97204 2.48303 9.43042
9.05675 6.30934 6.84268
10 8.71351 5.11913
9.8412 0.273751 4.34098
5.60605 0.604195 0.913758
7.56222 5.38697 7.32733
6.91901 1.89619 6.98356
5.61491 0.576753 0.830395
2.07853 3.90465 7.94812
3.99159 6.01773 6.67137
3.8698 0.566153 2.53693
7.78563 0.910034 4.84596
7.88428 3.33309 3.63226
5.41738 2.10706 7.80564
5.76747 0.625725 1.00816
9.0447 2.28085 3.01324
0.123048 1.01965 6.07265
6.25093 1.24045 1.6499
5.09667 2.06259 0
0.554877 2.69846 8.747
4.27692 3.82329 3.36392
8.03307 3.44808 6.27557
0.785249 1.09209 9.1327
4.02705 6.15377 3.43615
1.42198 0.0469282 9.31752
1.24005 2.58954 8.72075
4.02688 1.83955 1.13032
6.2471 1.54765 1.72782
4.76931 0.819381 9.6055
9.87287 0.0444423 6.49801
3.36834 0.824695 2.44135
8.49272 6.49846 5.93628
0.59724 0.686479 9.416
1.43374 2.13743 9.14801
6.68995 2.88425 10
3.32009 0.546189 7.06254
4.13887 0.227852 8.73486
0.243434 3.25504 1.48072
7.03479 2.07136 8.63598
3.27375 0.426003 1.24465
5.17875 1.20479 4.54247
1.68806 1.0341 4.42528
3.7063 0.137301 0.832764
0.185712 0.666874 7.57041
1.94081 0.69982 8.13816
6.18566 5.39301 5.52429
2.95784 0.33433 6.06033
0.212477 7.97995 2.40646
6.76784 0.319991 0.867496
3.3312 0.224716 1.62488
3.25175 0.214122 1.61986
1.45813 2.34163 8.63574
2.96677 0.951524 4.426
0.748916 1.3347 9.36821
2.65723 4.3688 1.13668
8.18568 8.06717 0.70366
3.40088 4.71939 6.76338
6.40991 5.91082 5.01736
6.85478 0.357241 0.733749
3.34906 0.275169 1.2424
3.1484 2.62022 4.26005
3.95773 0.583969 5.58901
4.47518 6.6633 8.15053
5.40228 2.63213 6.7809
1.38749 0.576766 1.19249
9.82472 0.869876 9.75097
5.52025 0.421934 0.552641
4.38707 0.965044 0.849986
7.48766 8.97503 8.50043
6.47865 9.31794 0.269681
2.4739 0.068602 8.66138
9.64503 5.1879 0.584612
4.60912 0.784807 0.591278
3.71448 0.264642 0.699226
1.4371 0.721403 5.95059
5.50271 0.361496 8.42291
9.04622 1.93112 3.16807
9.57027 0.435511 7.29383
4.54323 9.07374 2.51855
3.48838 0.405721 1.40652
6.33441 0.876982 7.68313
6.14911 9.28908 0
5.27657 5.00705 8.62365
5.3067 1.72758 7.74886
3.86991 0.593179 1.05486
6.63662 4.4712 2.13553
0.929973 1.06217 9.18829
0.943419 0.581161 9.75328
1.17851 7.6831 6.42954
3.87986 0.72609 1.25139
5.23343 4.11709 9.19739
6.34439 5.63193 5.9875
5.86107 0.0380093 7.04183
0.446768 8.18081 8.17356
1.23344 1.39106 1.21491
6.40252 7.44635 6.71583
1.11022 1.20722 9.20796
9.04112 1.36306 7.65011
5.11416 0.592174 8.65201
3.01503 0.358317 1.14578
5.60136 4.70146 8.74228
2.76794 2.31797 7.77966
8.39186 1.24151 8.74539
3.20555 0.362063 1.35388
4.87004 1.1099 4.12248
9.71257 0.508842 4.31957
1.26808 1.14481 0.595701
3.23127 0.800872 2.51358
1.66393 2.49651 10
2.91516 0.442032 1.10523
6.99058 2.11835 6.33619
1.29519 0.00739167 9.31831
0.274 1.6945 9.16345
5.14156 6.57411 7.29323
5.47512 0.274477 1.15096
9.21522 0.287572 3.60183
4.94318 0.864611 0.680383
8.16117 2.24125 6.17163
3.69391 1.89452 1.10346
5.27533 1.28109 0.136456
3.76591 1.27694 5.71051
5.97601 1.04446 9.596
1.6637 0.762147 0.495758
1.18208 1.95907 0.178129
9.95717 1.65592 8.18026
5.95289 0.167028 6.82131
5.29612 0.610698 8.02574
2.28939 6.9618 2.94132
3.13754 2.16404 4.21014
3.15158 0.531531 1.34306
5.59687 1.11939 2.23736
5.28338 4.65748 3.52926
0.63245 0.398899 0.0665605
3.18518 0.285816 4.65603
8.62696 6.32448 0.396312
2.29792 0.346847 8.09306
3.20955 0.609094 7.13259
0.321746 0.612673 9.7215
2.90899 2.1002 0.731392
3.03127 0.0941409 0.933287
8.42266 8.77439 7.07431
1.9912 2.04365 0.70692
4.62268 0.564351 0.689358
5.70306 0.786566 7.66356
5.07488 0.710141 0.339656
3.463 0.354756 1.36978
9.78959 5.60484 6.52113
9.96004 0.0201417 3.91832
3.07691 0.257689 1.26081
3.1989 0.217374 1.30852
3.39188 0.343273 1.11372
0.247238 1.85199 6.98761
1.0103 1.19807 1.14728
3.35657 8.73609 5.51081
3.73566 0.203663 1.02804
3.16662 0.273884 4.76393
1.32625 4.02857 1.46793
3.31035 0.431497 1.14307
3.15882 0.622286 0.948358
3.27663 0.35719 1.41383
5.43552 0.812005 0.950343
9.79024 0.31038 4.37747
2.09789 0.485776 8.09926
6.1166 8.75358 6.82056
5.22356 0.392049 8.34973
3.05183 0.251966 1.03214
4.03212 0.0142756 8.75135
0.964406 0.908616 3.81787
6.8692 0.338532 0.81434
3.62013 0.137186 0.756487
3.73327 0.521879 0.840559
9.23517 4.16398 10
6.22058 0.831207 8.30066
0.550276 1.14469 9.4662
5.13259 0.495846 8.77126
3.35617 0.641166 0.980912
3.67032 0.115162 0.953622
1.77605 5.25267 9.44531
6.94776 0.18372 0.762125
2.18779 5.25256 6.68389
9.57181 1.74863 8.79293
4.71732 0.605184 7.96928
3.45124 0.0697227 1.08299
5.56874 0.301968 7.82117
2.95283 0.18992 1.21099
8.28874 5.88929 0.411441
3.54484 0.336737 1.06126
3.09209 0.695044 1.55639
7.82896 0.942572 4.66115
3.32604 1.36914 5.75745
5.82236 0.150483 7.55889
9.70265 0.443305 4.21374
3.37894 0.167848 0.657317
4.9995 0.214951 8.40754
1.20788 0.728782 4.45479
1.59587 0.221248 8.00865
3.83595 0.988008 5.29298
3.52811 0.133815 1.19308
7.31212 0.835372 1.21706
3.27894 0.228794 0.99607
3.44165 0.166373 1.46146
3.40781 0.471897 0.893511
3.03191 0.527103 0.853619
4.83945 0.396059 8.71103
1.17918 0.601948 1.25676
1.6571 1.13737 4.78997
4.87046 2.06913 7.53475
1.49918 0.635042 0.335617
5.82861 0.524346 8.06654
3.23256 0.425295 0.858954
6.78591 5.44401 5.46376
5.48635 0.552763 8.0213
4.14858 0.899047 5.42508
9.32848 0.198728 4.0317
3.18029 0.350529 0.996979
6.4769 2.17365 1.35666
5.32651 0.659908 8.00676
5.31237 0.874344 3.20697
5.37622 0.590345 8.07522
2.95009 0.115046 1.05318
8.80645 1.65611 3.51171
2.24348 0.460741 8.1007
1.10047 0.624097 2.90353
5.45598 0.942784 8.30436
9.30711 1.13813 5.44988
4.89801 0.0712359 0.79494
4.82004 0.481418 8.42686
9.69079 0.2142 4.34803
3.16518 0.0621415 0.56931
3.16163 0.428435 1.31444
5.50297 1.06383 1.16351
4.00869 0.640089 1.45193
3.73134 0.730417 5.2385
5.79304 0.650868 9.0758
5.56979 0.519563 8.04574
2.69442 2.83187 8.18604
1.50097 9.79821 7.292
0.918124 0.797366 3.57712
3.2192 0.386241 1.31137
7.04475 0.46227 0.970355
5.62553 0.595094 0.857184
3.75412 4.90577 6.19163
2.44003 0.311283 8.42554
8.83418 5.46331 7.48809
9.50251 0.0404576 4.56988
3.63311 0.191979 1.10445
5.24209 1.03138 4.21228
6.3503 0.867826 9.88793
2.89571 8.41751 5.04749
9.73152 0.0366985 1.06026
5.63387 0.897792 1.15308
2.97155 0.420685 1.55746
0.947838 1.1868 9.24279
5.13237 0.710333 8.76348
5.22485 0.746844 8.68672
3.48793 0.461957 1.0749
3.53393 0.320668 1.32025
5.05739 1.14614 4.21407
3.57798 0.307642 1.11335
5.56685 0.197885 0.777001
5.38047 1.73253 7.78294
2.86957 2.68682 8.08182
5.95099 0.526492 2.56715
3.00046 0 0.872684
0.954197 0.418823 8.6528
3.82185 0.368405 1.0372
2.91402 0.134043 1.19263
1.63652 0.529873 8.29407
3.65763 0.624179 5.38426
5.41753 0.0412552 8.10262
7.03546 2.11169 6.27396
9.99895 0.324949 3.93082
3.18247 0.643021 1.58797
5.22201 1.33373 4.38837
0.972257 1.10267 9.47042
5.7685 1.09314 1.2677
5.57717 0.86319 3.10699
6.59949 1.62744 1.67769
3.36017 0.798173 2.54131
5.83453 0.733577 8.11574
1.57729 1.05549 4.83841
5.40009 0.520205 8.75866
4.03253 0.396424 1.39052
7.15416 0.355123 1.06299
6.8492 0.382859 0.789998
3.42315 0.123992 1.49291
5.32883 0.563981 1.0107
4.61781 0.663707 2.25561
2.80793 0.597314 0.92378
9.8024 1.58013 7.99281
3.50361 0.317795 1.17835
5.39971 0.243114 8.50527
3.60177 0.187302 0.630188
5.07574 0.225394 0.786743
8.80143 5.07339 7.82481
5.66324 0.780147 3.15721
3.29464 0.0620788 1.07149
5.71007 1.92412 1.53987
3.08834 0.342056 4.69188
5.47402 0.253021 8.44163
3.1724 0.258158 4.73954
5.09998 0.57075 8.13416
5.22208 0.361889 8.24319
3.50861 0.0939995 1.22968
3.34249 0.0991394 1.21462
5.28223 0.651541 1.02266
3.28407 0.147185 1.00551
3.3094 0.033993 0.899531
3.2897 0.159953 4.86089
2.88366 0.0687815 1.25574
2.96335 0.378402 1.36792
6.16135 0.757856 9.59753
5.71797 0.742049 7.87008
3.66337 0.151948 1.497
3.6785 0.125719 1.03323
5.62469 0.298763 0.54207
5.05896 0.37284 8.36909
3.84368 0.32426 1.13752
3.15174 0.0747811 1.08531
5.70686 0.534683 0.634513
5.53449 0.761142 8.2378
5.64313 0.837859 8.68963
3.36587 0.248873 1.01587
3.95956 0.661381 1.02342
9.61909 0.359323 3.85819
5.10759 0.349412 8.81163
5.23856 0.744344 7.90194
5.39506 0.836736 8.69561
4.56643 1.11285 0.665511
5.70169 0.466912 0.664903
7.00792 2.0941 6.23231
5.43857 0.683651 8.45807
2.82487 0.212474 1.06628
3.32991 0.140502 1.18182
9.63833 0.465359 4.18068
5.46714 0.661805 8.22409
5.84629 0.377128 8.43729
5.57602 0.439366 8.23641
3.34584 0.347996 1.28937
2.94748 0.339056 1.51908
3.4012 0.128491 0.981408
5.41234 0.576057 8.20617
3.45197 0.399218 0.883147
1.11896 1.00905 9.42121
5.29475 0.440569 8.59542
2.8486 0.350712 1.39879
3.04279 0.420199 0.992757
9.3178 2.49915 5.76841
5.6364 0.573034 1.05439
3.05908 0.393528 1.48389
3.34858 0.276927 1.08774
5.45833 0.516035 8.47481
3.38439 0.23245 1.32298
0.892211 1.0541 9.28176
5.34325 0.564093 8.51751
2.8646 0.360563 1.32845
3.53837 0.120636 4.73682
6.63258 0.584936 0.78385
5.63812 0.564995 1.07861
POINT_DATA 400
SCALARS particleColor float 3
LOOKUP_TABLE default
0 0.392703 1
1 0.966568 0
1 5.96046e-08 0
1 0.423804 0
1 0.658973 0
1 5.96046e-08 0
0 0.632241 1
1 0.518786 0
0 0.624342 1
0 0.85081 1
0.572114 1 0.427886
1 0.500216 0
1 5.96046e-08 0
0 0.785065 1
1 5.96046e-08 0
1 5.96046e-08 0
1 0.440624 0
0 0.511544 1
0 0.717361 1
0 0.321079 1
0 0.289385 1
0.136266 1 0.863734
1 5.96046e-08 0
1 0.599096 0
1 0.867056 0
0.148315 1 0.851685
0.667971 1 0.332029
0.0707701 1 0.92923
0.494706 1 0.505294
0.118779 1 0.881221
0 0.770372 1
0 0.864917 1
0 0.551399 1
0 0.99026 1
1 0.317894 0
1 5.96046e-08 0
0.456571 1 0.543429
0 0.627794 1
0 0.74751 1
0.305579 1 0.694421
1 0.592033 0
0.859206 1 0.140794
1 0.473053 0
1 5.96046e-08 0
0 0.752236 1
0 0.69747 1
0.672516 1 0.327484
0.00370416 1 0.996296
0 0.659175 1
1 5.96046e-08 0
0.873089 1 0.126911
1 0.107051 0
0 0.292945 1
1 0.0222533 0
0 0.216202 1
0 0.886405 1
0.911527 1 0.0884728
0 0.819876 1
0 0.559077 1
1 0.761029 0
1 5.96046e-08 0
1 0.779054 0
1 0.690289 0
0 0.863423 1
0 0.962849 1
0 0.200437 1
0.0429924 1 0.957008
1 5.96046e-08 0
0.0025061 1 0.997494
0 0.463155 1
0 0.626048 1
0 0.991161 1
0.426531 1 0.573469
0 0.689968 1
0 0.979412 1
1 5.96046e-08 0
0 0.748152 1
1 0.590155 0
0.358487 1 0.641513
0.809318 1 0.190682
0 0.71405 1
0 0.795699 1
0 0.906541 1
0 0.417249 1
0 0.598528 1
0 0.692276 1
0.57299 1 0.42701
1 0.27806 0
0.0673542 1 0.932646
0 0.83778 1
0 0.392417 1
0 0.956919 1
0 0.941955 1
0 0.196605 1
0 0.745101 1
1 5.96046e-08 0
1 0.478634 0
1 0.95424 0
1 5.96046e-08 0
0 0.466009 1
0 0.501389 1
0.223195 1 0.776805
0 0.743867 1
1 0.809098 0
1 0.573301 0
0 0.527533 1
0 0.813444 1
0 0.75606 1
0 0.898817 1
1 0.56076 0
0.242691 1 0.757309
0 0.962782 1
0.0158996 1 0.9841
0 0.277406 1
0 0.431337 1
1 0.71548 0
0 0.716477 1
0.624819 1 0.375181
0.815589 1 0.184411
1 0.0102996 0
0 0.64896 1
1 0.899027 0
1 5.96046e-08 0
0.529458 1 0.470542
0.144254 1 0.855746
0 0.542202 1
1 5.96046e-08 0
0.198089 1 0.801911
0.077433 1 0.922567
0.296479 1 0.703521
0 0.709343 1
0.686977 1 0.313023
0 0.7723 1
0.715138 1 0.284862
1 0.961428 0
0 0.476707 1
0.810997 1 0.189003
0 0.528608 1
1 5.96046e-08 0
0 0.563514 1
0 0.679915 1
0.20525 1 0.79475
0 0.879801 1
0.118797 1 0.881203
0 0.871254 1
0 0.295113 1
0 0.383233 1
0.182587 1 0.817413
0 0.491181 1
1 5.96046e-08 0
0 0.708409 1
0.0855254 1 0.914475
0.126845 1 0.873155
0.749288 1 0.250712
0 0.911341 1
0 0.808981 1
0 0.970461 1
0 0.86586 1
0.566478 1 0.433522
0 0.987475 1
0.167146 1 0.832854
0 0.809013 1
0 0.34123 1
0 0.693219 1
1 0.835651 0
0 0.7069 1
0 0.378243 1
0 0.826169 1
1 5.96046e-08 0
0.90681 1 0.0931901
0 0.713197 1
0 0.806113 1
0 0.579373 1
0 0.604282 1
0 0.278893 1
0.781268 1 0.218732
0 0.731426 1
0 0.439609 1
1 0.912472 0
1 0.371194 0
0 0.406665 1
1 0.557118 0
0 0.83951 1
0 0.80303 1
0 0.498589 1
0 0.43211 1
0 0.612689 1
1 5.96046e-08 0
0 0.428899 1
0 0.712346 1
0 0.442905 1
0 0.627056 1
1 0.180195 0
0.34921 1 0.65079
1 5.96046e-08 0
0 0.743944 1
0 0.822226 1
1 5.96046e-08 0
0 0.152273 1
0 0.827925 1
0 0.879373 1
0 0.195807 1
0.387584 1 0.612416
0 0.438412 1
1 0.551844 0
0 0.389616 1
0 0.825557 1
1 5.96046e-08 0
0 0.591459 1
0 0.487444 1
0 0.180424 1
0 0.906919 1
0.539264 1 0.460736
0 0.797015 1
0.0548426 1 0.945157
0 0.30657 1
0 0.542932 1
0.000253229 1 0.999747
0.521771 1 0.478229
0 0.813997 1
0.775382 1 0.224618
0 0.585192 1
0 0.445279 1
0 0.814585 1
0 0.596985 1
0 0.971873 1
0.596457 1 0.403543
0 0.517792 1
0 0.280746 1
0.649267 1 0.350733
0 0.336733 1
0 0.330667 1
0 0.734408 1
0 0.36576 1
0 0.0622004 1
0.0430291 1 0.956971
0 0.781324 1
0 0.520998 1
0 0.617696 1
1 5.96046e-08 0
0 0.979815 1
0 0.923444 1
0.202393 1 0.797607
0 0.926819 1
0 0.311316 1
0 0.365707 1
0 0.402015 1
0.561134 1 0.438866
1 0.964768 0
0 0.896606 1
0 0.489721 1
0.463368 1 0.536632
0 0.513116 1
0 0.65787 1
0 0.791948 1
0 0.755117 1
0.564881 1 0.435119
0 0.851229 1
0 0.992264 1
0 0.369544 1
0 0.867657 1
0.846888 1 0.153112
0 0.375259 1
1 5.96046e-08 0
0 0.477755 1
1 0.826843 0
0 0.855124 1
0 0.418995 1
0 0.333389 1
0 0.910319 1
0.167609 1 0.832391
0.103236 1 0.896764
0.18817 1 0.81183
0 0.701587 1
0 0.873594 1
0 0.73566 1
0 0.85681 1
1 0.420756 0
0.282294 1 0.717706
0 0.358814 1
0 0.720252 1
0 0.840569 1
1 5.96046e-08 0
0 0.907027 1
0 0.452625 1
0 0.80913 1
0 0.489427 1
0 0.836704 1
0 0.508701 1
1 0.545007 0
0 0.199957 1
0.0462423 1 0.953758
0 0.792432 1
0 0.698611 1
0 0.689429 1
0 0.248566 1
0 0.863429 1
0 0.732635 1
0.417303 1 0.582697
0 0.799033 1
0.623445 1 0.376555
0 0.537552 1
0.48286 1 0.51714
0.491779 1 0.508221
0 0.359951 1
0 0.850078 1
0.191907 1 0.808093
0 0.384436 1
0 0.706394 1
0 0.315031 1
0 0.314339 1
0 0.564703 1
0 0.771168 1
0 0.611861 1
0 0.410976 1
0 0.862276 1
0.147664 1 0.852336
0 0.830426 1
0 0.642653 1
0 0.805265 1
0 0.329295 1
0 0.600735 1
0 0.874221 1
0 0.326772 1
0 0.4519 1
0 0.3279 1
0 0.580999 1
0 0.844473 1
0.606095 1 0.393905
0 0.805767 1
0.199016 1 0.800984
0 0.756659 1
0 0.455068 1
0 0.726564 1
0 0.253997 1
0 0.369715 1
0 0.642025 1
0 0.734222 1
0 0.517544 1
0 0.759768 1
0 0.634182 1
0.409725 1 0.590275
0 0.640237 1
0 0.944254 1
0 0.477524 1
0 0.817448 1
0 0.817795 1
0 0.869001 1
0 0.863978 1
0 0.73323 1
0.00244433 1 0.997556
0 0.521098 1
0 0.754925 1
0 0.435196 1
0 0.71327 1
0 0.666678 1
0 0.755673 1
0 0.532334 1
0 0.537272 1
0 0.738131 1
0 0.425406 1
0 0.553979 1
0 0.0910481 1
0 0.19744 1
0 0.935043 1
0.279333 1 0.720667
0 0.659832 1
0.571651 1 0.428349
0 0.681194 1
0 0.555998 1
0 0.303865 1
0 0.19604 1
0 0.658868 1
0.243848 1 0.756152
0 0.937697 1
0 0.612 1
0 0.785016 1
0 0.474539 1
0 0.68759 1
0 0.650843 1
0 0.632677 1
0 0.452548 1
0.218367 1 0.781633
0 0.619011 1
0 0.734146 1
0 0.554699 1
0 0.607854 1
0 0.485237 1
0.26658 1 0.73342
0 0.316419 1
0 0.677484 1
0 0.761344 1
0.210536 1 0.789464
0 0.416247 1
0 0.616692 1
0 0.61628 1
0 0.59166 1
0 0.573063 1
0 0.619412 1
0 0.495805 1
