# vtk DataFile Version 3.0
Particle simulation
ASCII
DATASET POLYDATA
POINTS 400 float
4.63198 5.07715 5.3955
1.01152 5.35746 5.54725
3.29587 7.5269 8.98938
7.22694 2.34064 0
5.86402 4.87478 3.76802
7.21654 7.72523 9.43611
7.35106 0.670755 7.72135
1.83614 7.67212 8.19077
5.74229 4.1471 3.98117
5.82326 0.760995 5.88898
0.612362 4.85088 0.367588
3.60476 5.45275 1.26845
9.32641 0.292345 1.09986
5.48268 0.690705 2.81549
3.593 8.30713 6.45763
2.93126 5.05402 8.82887
1.82889 1.65845 8.11499
3.5184 0.133003 2.27585
7.75775 7.01383 6.60067
1.89492 0.377683 5.21763
3.71666 0.318145 2.37029
10 5.75429 0.477909
7.04385 6.80995 6.86539
0.681144 2.86998 3.03603
2.38994 8.23662 0.413076
6.87966 6.8888 6.32761
1.94614 2.05682 7.20025
2.40553 4.17954 7.14436
9.53186 0.383576 5.04533
1.17905 0.10829 8.161
4.94059 9.56668 4.85326
8.51535 7.30673 0.343148
5.13807 10 1.02611
1.57454 0.903342 6.66743
2.40974 4.03117 2.29159
2.62054 7.12703 5.10968
8.84792 3.0906 6.76273
4.69152 0.533627 3.63818
8.37423 1.85131 6.14596
0.912511 2.94817 8.85109
5.41316 0.189465 1.70185
8.94942 8.91607 3.15918
5.22505 9.70133 7.60506
6.46306 3.95494 0
7.32307 5.41527 6.66905
4.75521 1.86929 5.16998
2.46167 9.92162 4.92128
3.07164 0.688718 8.01987
3.95557 3.35304 6.35555
6.89807 4.69038 6.55592
4.02518 7.16197 3.64498
9.36189 2.66366 8.1045
7.99121 7.52131 1.91115
6.44276 0.327489 4.90165
5.10307 3.11548 5.43243
1.02292 0.662173 7.58372
1.79691 8.14125 1.23024
1.82192 2.12806 7.6391
5.94983 3.65029 9.80401
0.0238447 5.56042 1.74763
2.96352 7.25497 1.20022
1.24673 7.75615 4.22878
3.96534 0.598629 7.5645
0.922912 5.25163 8.59976
3.27852 8.05483 7.65684
1.41186 9.75157 2.67978
0.72702 9.29925 6.77166
3.608 0.802875 3.38704
1.30618 8.53476 4.56997
7.05675 2.0902 7.14388
4.06333 8.44931 3.6694
5.49502 1.90717 6.19321
6.07161 7.35468 9.50972
9.15876 3.42616 3.36938
8.65082 0.730549 4.85878
5.56383 4.53455 9.86392
5.3831 3.40488 9.01008
7.11835 6.43658 5.62071
5.43523 6.41401 3.53105
7.25769 9.3909 7.46309
3.69936 0.164109 2.31877
7.889 1.29991 0.863893
6.47537 0.775553 9.00728
6.73502 1.91016 8.93525
6.19616 8.61797 0.677468
8.15808 4.62772 7.87565
7.44055 2.09943 2.81575
2.57872 4.95447 6.94378
2.48581 8.84171 5.97801
3.61301 5.39415 2.30668
3.57494 0.234328 3.28947
3.35832 1.68927 0.835731
4.85104 7.7362 4.47664
3.52073 1.06168 10
5.11613 7.29035 7.87035
8.67645 9.07243 2.48366
8.90486 5.77731 10
7.08574 7.84365 3.91784
8.424 4.22036 8.67306
6.11211 3.03409 0.486879
3.6664 2.40777 0.687679
10 5.44721 3.67908
7.60025 3.70716 0.361201
3.14248 5.94103 7.89995
7.6806 3.64184 5.4631
3.42344 3.21617 5.79982
0.830636 0.387744 10
1.20892 6.15341 9.43995
5.55509 1.60889 4.61111
9.46502 2.96317 0.861965
9.28821 8.20329 4.37944
0.979651 9.09877 8.98388
2.15495 3.96613 4.32926
8.43395 9.31543 5.32911
3.04894 0.464559 2.38008
7.94705 2.57162 6.00882
0.425732 0.647027 8.59851
5.69885 7.95605 2.55523
0.670382 0.815579 1.94603
5.28079 4.55098 0.396506
6.10157 7.1786 1.72082
4.67218 7.94662 4.417
0.357699 5.5801 2.45579
6.78347 1.84075 5.0593
7.22093 8.75222 5.7378
3.84682 1.55481 1.18549
8.52801 1.32739 2.00501
5.33468 4.66805 1.62549
3.72891 1.42866 4.4065
8.4891 7.44457 2.07224
0.257854 2.11575 1.05364
1.97335 7.52271 4.61164
8.3733 6.29464 8.10807
1.37002 8.58198 6.62393
2.40216 7.45238 2.57653
7.84198 8.12462 2.62891
0 6.33075 6.78209
4.86778 1.85743 0.134898
8.83375 9.79086 4.51001
9.94741 7.13427 0.271142
4.00658 0.493395 2.72482
8.01134 9.75867 1.26532
2.94429 9.26598 8.55949
3.01693 6.02319 4.0215
4.31154 2.15541 0.652845
9.66874 2.45567 7.23634
8.20761 6.01022 0.289245
8.98646 6.20172 2.2464
6.22047 2.44146 4.19136
8.68489 7.38929 7.16329
3.54408 0.265966 2.62629
3.78038 8.71952 7.77829
6.57389 3.04935 6.4826
3.62519 0.400155 3.16006
0.387917 8.25297 7.50631
0.878424 5.88231 6.00062
9.44771 7.6702 0.631522
5.34009 7.61758 2.23587
10 0.454666 5.68479
1.59418 6.10632 0.420786
9.3604 8.15718 0.822514
2.00224 3.56141 3.1227
6.74758 6.47061 5.53412
3.45894 4.31715 2.89969
3.33459 5.04787 0.823649
8.32047 3.21786 3.30032
2.74745 0 5.31483
5.468 7.62247 2.3303
0.989102 2.04344 10
7.6889 4.205 2.45127
3.84715 0.163743 2.06884
8.24499 1.10605 4.53297
2.35829 8.6282 3.67698
9.68474 8.32695 0
0.45579 9.5304 6.0335
0.934793 3.42712 7.73326
3.73983 7.67149 8.9405
7.49027 5.31071 8.71208
9.98947 4.51291 1.69988
5.19261 2.10655 0.167327
3.25508 0.1072 2.39465
4.96744 5.28595 6.46075
1.91706 9.31064 6.5101
7.17238 0.659557 7.88608
3.27979 8.36442 2.19888
4.654 7.25118 6.98817
3.63772 0.287442 2.72958
7.79496 2.1292 1.76216
3.31657 0.176835 2.62253
3.16159 0.693453 2.77866
3.71254 0.437623 3.0506
3.78385 0.148226 2.80756
1.21857 1.49387 0.0216898
5.55194 3.24113 9.9202
9.80511 2.99302 7.84969
5.14416 6.73949 6.42707
0.941997 1.99636 8.14447
7.5286 2.37105 6.79474
2.45532 0.287082 6.64339
3.438 0.0957007 2.70666
3.79138 0.42923 2.56297
8.43384 10 3.85983
0.760021 3.90006 7.29722
5.6402 5.00773 4.19446
4.62801 4.81643 6.81858
7.60745 5.36672 5.41289
7.64548 0.68404 6.78186
5.5359 3.46467 8.59118
5.09261 2.21666 8.55172
0.815958 5.9282 5.55639
3.90074 0.414279 3.25821
3.93435 0.205 2.41687
1.25288 0.802011 2.03649
2.81248 1.86832 6.13168
2.75352 3.50536 2.70257
6.92054 4.61885 8.53183
3.91609 0.529582 2.30257
3.41491 2.03656 3.41828
2.36235 5.24704 7.52006
9.06472 2.26407 9.54669
9.35845 8.45726 0.348956
5.86624 8.396 1.46414
5.86715 0.192345 2.82591
3.87477 0.250273 2.35183
9.53581 7.18941 0.447463
5.03576 4.88975 0.304965
7.85144 5.06505 9.39548
3.49499 0.471164 2.23256
3.59047 0.352346 2.48387
10 8.13322 1.63041
7.57686 3.92633 6.90506
1.82666 6.39915 2.6532
0.598093 9.62813 5.98586
4.28009 0.423249 2.09578
0.333576 0.505677 8.32679
8.51636 2.63713 4.80003
6.19165 3.79122 9.34981
3.0182 2.43254 8.73152
3.50047 0.384984 3.08628
1.70732 8.07461 9.85835
3.52185 0.324839 2.51103
2.9374 0.254443 2.14368
8.30151 9.58739 5.17417
4.374 0.794637 2.28078
9.3295 3.3411 4.56701
5.92732 7.9724 0.174735
4.67151 5.23683 3.77021
8.21141 4.62825 7.08067
6.93105 8.62254 0.109899
0.436319 0.774367 2.17785
3.76193 0.615462 3.38341
0.936795 4.11055 2.81124
8.08578 7.41938 2.30741
8.84486 4.71314 3.04512
0.697078 3.18264 8.54123
0.464711 0.0168206 3.39387
4.33949 8.15523 7.58773
0.494129 0.700983 8.43579
5.09523 1.18031 2.20036
0.216321 0.599949 8.22737
3.97695 0.418383 3.23841
8.63529 2.61579 9.77668
2.15113 2.05362 5.52811
0.690277 0.72638 9.5984
0.631107 2.03769 5.56457
5.1151 2.95982 3.77501
0.502987 3.53922 2.74676
0.535423 0.568134 8.14956
2.41005 9.40434 5.16568
1.17882 1.40602 1.59685
3.76689 0.565417 1.7496
5.19788 4.93562 9.76149
6.2568 7.07894 4.87061
1.53659 0.768989 6.27234
5.47763 0.923589 5.10365
4.38425 4.95248 4.19169
7.92495 3.57502 6.1118
4.87256 1.38965 5.39657
9.75409 2.79086 9.97283
3.82644 0.382577 2.45576
6.69838 6.94131 2.45551
8.45974 0.632912 0.83241
5.59688 7.83888 4.70041
1.61444 0.986298 1.3023
8.96747 1.71112 9.74725
4.43267 9.38249 9.18161
4.01457 0.301322 2.69455
1.28587 0.116284 5.53084
8.00543 0.563158 6.52506
6.006 4.32846 8.6016
7.76804 4.14912 7.50452
1.47625 6.47756 4.25845
4.48908 0.283508 2.07363
7.41991 2.1937 7.98586
4.47666 3.00423 6.43422
0.595607 0.44334 8.38153
3.69848 0.555703 2.36289
4.01519 0.243812 2.56411
4.17494 0.05353 1.56889
3.81143 0.197147 2.48134
1.85518 3.33678 7.25527
7.55173 0.626612 0.141378
3.5857 0.0373677 2.37775
3.52214 6.57245 3.23875
4.11903 0.193229 2.39308
3.62861 6.95938 4.35358
3.8784 0.350698 2.62193
3.66717 0.23773 2.29005
1.73858 1.24227 9.40242
8.46508 3.37598 6.24306
5.62545 8.67396 7.80179
1.42176 0.773742 5.12715
2.37483 7.45541 0.636234
3.702 0.37998 2.76198
10 5.02144 5.81976
2.27608 8.97698 5.91044
3.69701 2.54977 0.495727
7.19419 9.67492 2.28862
8.94074 2.50792 1.03161
8.48195 6.9081 1.34837
0.272641 0.444088 8.23694
7.79669 10 8.53006
0.874271 0.543939 8.55838
3.69773 0.297418 2.64315
0.646535 0.821756 6.88799
7.76544 0.990072 4.41465
4.00923 0.185189 2.81576
8.57636 4.46901 1.63819
4.69701 7.79339 9.68571
3.94795 0.226872 2.25644
4.86718 4.83595 6.78411
2.62371 0.981961 0.48144
0.383368 0.202682 6.41959
0.452711 1.11415 2.66859
8.53517 0.657463 0.735721
1.72438 0.847729 7.54982
9.93724 6.19331 3.06877
3.73816 0.457796 2.49285
0.961696 2.2153 8.51264
9.0576 2.08583 9.6571
10 8.08997 3.39825
8.13415 8.80636 3.05898
1.00839 3.28096 9.06812
0.375697 0.645793 8.34868
3.58892 0.476797 2.40369
4.54526 0.670804 3.29437
8.54374 0.392893 0.497234
3.58615 0.214844 2.14615
4.28733 0.630007 2.83785
7.80582 3.63391 3.61584
4.28259 0.434073 2.12545
3.62981 0.339784 2.20466
2.31742 8.53055 3.78778
6.57866 8.69834 2.29341
4.27604 0.323115 2.70409
3.64404 0.177922 2.87863
3.97581 1.11856 0.367752
0.361486 3.49032 9.29842
3.76241 0.147179 3.04639
3.76215 0.0909476 2.50293
8.75844 0.348625 0.980834
0.426492 0.544505 8.65429
0.512874 0.614522 8.22486
3.31698 0.25372 3.39842
3.37461 0.410732 2.74426
8.81692 0.346813 0.92425
0.614469 0.446376 8.87299
2.71244 1.57754 0.158387
0.500356 0.619977 8.65452
1.9397 0.585151 5.15228
8.64069 0.837968 0.572571
2.21274 1.94104 7.76202
2.62498 2.20743 6.35239
3.79312 0.14709 2.27882
3.5823 0.587226 2.85396
8.64578 0.799407 0.798735
0.627347 0.976621 8.4842
0.702222 0.34711 8.71351
2.66453 1.35666 8.89931
3.92534 0.459077 2.37254
3.98739 0.0533406 2.06851
3.80007 0.475386 2.4356
2.79584 1.50883 8.78273
3.7382 0.465219 2.61827
9.02209 2.70552 1.46683
0.434162 0.484735 8.16788
3.58209 0.407475 2.2203
4.13274 0.272327 2.23213
6.96884 8.59252 9.8352
4.22591 1.96305 9.13899
4.22456 0.153357 2.52415
3.59299 0.485624 2.5393
0.0400804 0.457688 8.46667
3.57656 0.452417 2.32863
3.78101 1.49269 1.36255
0.397599 0.419076 8.23626
3.57027 0.383556 2.17912
0.518111 5.37511 0.261696
1.86119 0.884074 2.0233
8.0514 0.623785 0.679086
POINT_DATA 400
SCALARS particleColor float 3
LOOKUP_TABLE default
0.321878 1 0.678122
0 0.4189 1
1 5.96046e-08 0
1 5.96046e-08 0
1 0.805237 0
0.547985 1 0.452015
1 0.824718 0
1 5.96046e-08 0
1 0.887055 0
1 0.0996317 0
1 0.669535 0
1 0.538243 0
1 5.96046e-08 0
1 0.323905 0
1 5.96046e-08 0
1 5.96046e-08 0
1 0.606898 0
0 0.262534 1
1 5.96046e-08 0
1 5.96046e-08 0
0 0.787849 1
1 5.96046e-08 0
1 5.96046e-08 0
1 5.96046e-08 0
0 0.933645 1
1 5.96046e-08 0
0.395886 1 0.604114
0.762596 1 0.237404
1 0.961678 0
1 0.758967 0
0.6937 1 0.3063
1 0.936102 0
1 0.83991 0
1 5.96046e-08 0
1 0.0205856 0
1 5.96046e-08 0
1 5.96046e-08 0
0 0.655889 1
1 5.96046e-08 0
1 5.96046e-08 0
1 5.96046e-08 0
1 5.96046e-08 0
1 5.96046e-08 0
0.811262 1 0.188738
0.124782 1 0.875218
1 5.96046e-08 0
1 0.224668 0
1 5.96046e-08 0
1 0.773088 0
1 5.96046e-08 0
1 5.96046e-08 0
0.437276 1 0.562724
0.938456 1 0.0615438
1 5.96046e-08 0
0.117081 1 0.882919
0 0.0798638 1
0.501247 1 0.498753
0.365309 1 0.634691
0.359847 1 0.640153
0.100034 1 0.899966
1 0.524499 0
1 0.909547 0
0 0.559876 1
0.638926 1 0.361074
0.235968 1 0.764032
1 0.887021 0
1 5.96046e-08 0
0.863868 1 0.136132
1 0.379476 0
0.69437 1 0.30563
1 5.96046e-08 0
1 0.210515 0
1 0.736833 0
0.241319 1 0.758681
0 0.89151 1
1 0.76056 0
1 5.96046e-08 0
1 5.96046e-08 0
0.795726 1 0.204274
1 0.572275 0
0 0.670771 1
1 5.96046e-08 0
0.774299 1 0.225701
1 5.96046e-08 0
0.439696 1 0.560304
0.720674 1 0.279326
1 0.967497 0
1 0.274623 0
0.819063 1 0.180937
1 0.966185 0
0 0.464602 1
1 0.657672 0
1 5.96046e-08 0
1 5.96046e-08 0
1 0.985252 0
1 5.96046e-08 0
1 5.96046e-08 0
0.276698 1 0.723302
0 0.739478 1
1 5.96046e-08 0
0 0.958444 1
0.188651 1 0.811349
0.658496 1 0.341504
0.728805 1 0.271195
1 5.96046e-08 0
1 0.312497 0
1 5.96046e-08 0
0 0.84588 1
0.177045 1 0.822955
1 0.122079 0
0.973452 1 0.0265481
0 0.520369 1
1 0.915153 0
1 5.96046e-08 0
0 0.58898 1
1 0.115851 0
0 0.359978 1
1 5.96046e-08 0
0.817888 1 0.182112
0.787383 1 0.212617
1 5.96046e-08 0
0.763889 1 0.236111
1 5.96046e-08 0
1 0.406983 0
0.339578 1 0.660422
0 0.236285 1
0.359733 1 0.640267
1 5.96046e-08 0
0 0.506892 1
0.293195 1 0.706805
1 5.96046e-08 0
1 5.96046e-08 0
1 5.96046e-08 0
1 5.96046e-08 0
1 5.96046e-08 0
1 0.218593 0
1 5.96046e-08 0
1 5.96046e-08 0
0.689031 1 0.310969
1 0.926767 0
0 0.603393 1
1 0.384982 0
1 5.96046e-08 0
1 5.96046e-08 0
0.568933 1 0.431067
1 5.96046e-08 0
1 0.859451 0
0.566631 1 0.433369
1 0.656746 0
1 5.96046e-08 0
0 0.437604 1
1 5.96046e-08 0
1 0.359576 0
0 0.30727 1
1 0.373924 0
1 0.0939779 0
0.265422 1 0.734578
1 0.942507 0
1 5.96046e-08 0
1 5.96046e-08 0
1 5.96046e-08 0
0.103047 1 0.896953
1 5.96046e-08 0
0.797559 1 0.202441
1 0.214325 0
0.880976 1 0.119024
1 0.570682 0
1 5.96046e-08 0
0.662124 1 0.337876
0.485057 1 0.514943
0 0.74455 1
1 5.96046e-08 0
0.458079 1 0.541921
1 5.96046e-08 0
0.306288 1 0.693712
1 0.695783 0
1 5.96046e-08 0
1 5.96046e-08 0
0.940607 1 0.0593933
1 0.403763 0
0 0.579652 1
1 5.96046e-08 0
0.244814 1 0.755186
1 0.803223 0
1 5.96046e-08 0
1 5.96046e-08 0
0 0.578732 1
1 5.96046e-08 0
0 0.846142 1
0 0.603439 1
0 0.446065 1
0 0.994866 1
1 5.96046e-08 0
0.917248 1 0.082752
1 0.0437047 0
1 5.96046e-08 0
1 5.96046e-08 0
1 5.96046e-08 0
1 5.96046e-08 0
0 0.559686 1
0 0.729406 1
1 5.96046e-08 0
0.488409 1 0.511591
1 0.0454618 0
1 0.40284 0
1 5.96046e-08 0
0.71708 1 0.28292
0.549219 1 0.450781
0.394525 1 0.605475
1 5.96046e-08 0
0 0.424589 1
0 0.324005 1
0.403544 1 0.596456
1 0.479442 0
0.06849 1 0.93151
1 5.96046e-08 0
0 0.658092 1
0 0.758171 1
0.433799 1 0.566201
1 5.96046e-08 0
0.772318 1 0.227682
1 0.910335 0
0.620166 1 0.379834
0.22138 1 0.77862
1 0.223515 0
1 0.541786 0
1 0.8982 0
0 0.930929 1
0 0.467476 1
0.637004 1 0.362996
0 0.763153 1
0.964698 1 0.0353022
1 5.96046e-08 0
0 0.494901 1
0 0.336247 1
0.428427 1 0.571573
1 0.775925 0
0.099894 1 0.900106
0 0.259179 1
0.621355 1 0.378645
0 0.421817 1
0 0.636316 1
1 5.96046e-08 0
0 0.556004 1
1 0.45724 0
0.757685 1 0.242315
0.512702 1 0.487298
1 0.490409 0
1 5.96046e-08 0
1 0.0606738 0
0 0.9189 1
1 5.96046e-08 0
1 5.96046e-08 0
0.805671 1 0.194329
0.761039 1 0.238961
0 0.53256 1
1 5.96046e-08 0
0 0.866915 1
1 5.96046e-08 0
0 0.252118 1
0.229577 1 0.770423
0.531907 1 0.468093
0.586294 1 0.413706
1 0.846215 0
0.681042 1 0.318958
1 0.201711 0
0.864975 1 0.135025
0 0.699578 1
1 5.96046e-08 0
0.0141365 1 0.985864
0 0.406258 1
1 5.96046e-08 0
1 5.96046e-08 0
1 0.689313 0
0.510138 1 0.489862
1 0.307289 0
0.0649523 1 0.935048
1 5.96046e-08 0
0.858188 1 0.141812
0 0.467466 1
1 5.96046e-08 0
0 0.471055 1
1 0.151841 0
0 0.28537 1
1 0.430998 0
1 0.534934 0
0 0.369997 1
1 0.776142 0
1 5.96046e-08 0
1 5.96046e-08 0
0.996412 1 0.00358802
1 5.96046e-08 0
0 0.421431 1
1 5.96046e-08 0
1 5.96046e-08 0
0 0.546679 1
0 0.676712 1
0 0.791646 1
0 0.44912 1
0 0.570331 1
1 5.96046e-08 0
0 0.468912 1
0.549549 1 0.450451
0.340375 1 0.659625
0 0.75678 1
1 5.96046e-08 0
0 0.590793 1
0 0.806616 1
0.59037 1 0.40963
0 0.461824 1
1 0.268016 0
0.105987 1 0.894013
0.846733 1 0.153267
0 0.54989 1
1 0.679896 0
1 0.647666 0
0.303871 1 0.696129
1 5.96046e-08 0
1 5.96046e-08 0
0 0.862508 1
0 0.787588 1
0 0.644237 1
0 0.502213 1
0 0.844963 1
0 0.493735 1
0.899002 1 0.100998
0.0479757 1 0.952024
1 0.810497 0
0.455794 1 0.544207
0 0.519291 1
1 5.96046e-08 0
0.23214 1 0.76786
0.686022 1 0.313978
0.439192 1 0.560808
0 0.640214 1
0.936841 1 0.0631592
0.659508 1 0.340492
0 0.562082 1
0 0.743985 1
1 5.96046e-08 0
1 0.621598 0
0 0.665355 1
0.508039 1 0.491961
0 0.372566 1
0 0.715554 1
0 0.35215 1
0 0.81842 1
0 0.743234 1
0 0.810371 1
0.482765 1 0.517235
0 0.0639443 1
0 0.47992 1
0 0.793175 1
1 0.484149 0
0 0.654257 1
0 0.865294 1
0 0.423037 1
1 0.941179 0
0.263148 1 0.736852
0 0.694712 1
0 0.444179 1
0 0.463039 1
0 0.383844 1
0 0.811851 1
0 0.360518 1
0 0.982597 1
0 0.780405 1
1 0.20015 0
0 0.877222 1
1 5.96046e-08 0
0.0634144 1 0.936586
0.0509017 1 0.949098
1 5.96046e-08 0
0 0.895594 1
0 0.647955 1
0 0.51714 1
0 0.606248 1
0 0.371834 1
0 0.408031 1
0 0.992339 1
0 0.487162 1
0 0.454473 1
0 0.754454 1
0 0.673733 1
0.210886 1 0.789114
0 0.968485 1
0 0.665379 1
0 0.220648 1
1 5.96046e-08 0
0.430212 1 0.569788
0 0.985834 1
0 0.910654 1
0 0.758635 1
0 0.765783 1
0.509546 1 0.490454
0 0.518513 1
0 0.786329 1
0.0131733 1 0.986827
0.821985 1 0.178015
0 0.392307 1
