# vtk DataFile Version 3.0
Particle simulation
ASCII
DATASET POLYDATA
POINTS 400 float
1.97977 9.65592 2.49532
0.474593 6.87882 1.3606
9.46688 7.56083 6.46546
4.24688 0.969757 1.15114
2.70729 4.41479 0.563129
5.85365 0.520494 6.43384
4.4781 6.85639 0.174399
1.87619 7.11825 6.0336
4.42447 3.83495 0.911904
4.98054 6.73507 0.545415
3.07569 5.32184 2.52681
2.17726 8.2369 6.69859
7.4486 5.86016 8.48427
1.97782 5.83441 2.49492
8.36211 7.26902 7.66999
4.6135 3.76199 8.5982
0.564387 1.14442 7.09105
2.29068 1.75606 0.482217
3.90826 7.52902 5.80875
3.86312 7.63577 2.79651
4.37634 3.42464 0.852475
9.71479 2.43274 3.09081
0.158202 0.677815 0.707845
1.93818 6.21243 7.21566
5.03472 9.13114 3.91384
4.44162 3.26294 9.51912
3.43902 0.0323966 9.30456
2.01536 0.591388 2.45251
9.10664 5.05944 0.737292
9.97714 9.10433 2.65965
3.1131 1.00268 1.02982
6.4035 5.39928 4.473
7.7602 1.20512 8.16794
0.828065 2.88961 8.02443
8.02024 8.62785 9.72471
0 9.63378 8.32875
3.4253 9.69746 9.16237
8.99093 7.95677 3.65359
3.99525 2.0525 4.46086
0.739531 0.00152212 7.67158
7.66189 6.95035 3.18841
3.09496 8.38577 9.14148
7.82652 4.81493 4.56777
2.21092 6.88759 2.96633
3.32614 4.94399 0.545951
5.00365 9.27306 0.420977
1.78633 0 7.28583
7.90146 6.17811 0.310918
0.653753 2.56399 6.86876
1.70853 6.21848 1.68373
5.23453 3.88281 7.55177
2.37334 6.93217 2.96296
9.07504 9.57836 4.48739
5.30507 5.58574 0.390208
4.14458 5.06511 5.72003
5.14409 0.349641 4.92529
7.39787 0.292016 7.89808
5.68264 2.3812 2.08378
0.477235 2.60976 1.40537
0.802487 7.28105 8.38499
1.51148 7.04903 3.28069
5.27111 6.4358 5.76683
6.3459 1.93525 9.76216
0.243846 2.57304 8.49503
4.37081 3.55025 0.762666
3.0195 3.40988 0.387263
3.1749 6.3764 3.89904
8.08237 3.74007 0.2717
4.18635 0.562164 0.182073
1.66737 3.76491 3.09571
7.53949 6.21263 6.76109
9.19738 3.66746 1.36012
6.76852 1.32043 7.56859
8.72639 3.74582 7.09099
3.35676 3.01605 5.51915
7.4931 2.02479 8.75866
6.71769 9.50772 0
6.24442 4.4949 9.41036
2.15806 9.36987 3.78792
7.64487 1.89015 1.19282
7.9838 1.01449 6.01217
5.31178 1.60244 9.09694
3.14369 2.451 3.19935
0.847305 3.83042 6.32523
5.52104 9.68422 6.12252
0.884061 4.00849 2.43118
9.25141 5.81198 1.71466
0.434307 3.26744 1.15453
5.04046 4.59202 7.778
5.92964 6.21322 2.87591
0.391553 6.40235 2.51071
0.18551 1.95836 3.79671
3.64213 2.80363 9.18501
2.94157 8.34175 0.11947
6.59925 10 4.64227
2.40512 1.08106 5.48128
9.16486 8.06117 2.47944
8.2617 1.88232 5.27888
2.72395 5.52715 0
1.91644 3.49246 4.47827
8.69299 5.65959 9.08348
4.93634 4.76613 3.29807
3.1154 3.91671 2.12434
9.12463 3.97384 8.15125
5.11469 0.164898 6.27746
1.56566 7.63647 7.09575
6.01206 4.3098 4.98265
2.41877 1.95626 4.59729
9.61653 6.53807 4.45624
2.15283 5.68941 4.85373
4.32301 6.27104 3.74495
7.28321 7.21495 4.39032
8.96111 4.5729 0.430157
0 8.27156 1.37972
9.60573 2.2652 8.81541
3.20299 0.626948 3.72357
0.807058 6.27816 3.21011
2.58191 6.82631 5.61252
4.19349 1.08643 9.66527
4.74119 0.341386 0
1.63129 3.51666 3.90826
3.5989 10 4.43891
9.56122 1.05076 3.92561
2.47424 0.446061 1.29538
4.0213 7.69654 5.5408
1.23108 8.16739 5.498
4.31631 6.7925 6.33539
5.74078 5.33668 0.524701
7.03312 2.3605 2.2198
8.13389 9.5199 9.68654
3.84313 4.00657 5.44222
0.420289 3.74133 6.15176
7.63141 7.59481 3.97366
9.1415 10 6.15498
6.78985 2.01059 7.91935
9.59815 1.60391 7.29438
6.0513 6.44002 3.23805
9.80459 3.42125 4.98704
9.75193 6.96585 5.82577
4.21453 6.51387 3.57677
3.94468 4.65206 8.87688
7.64137 5.15922 3.06036
0.974043 9.5591 4.75495
1.55552 4.46261 7.54134
0.0816932 1.71175 9.8656
8.54446 5.26974 5.87056
4.73778 6.28668 3.77292
2.12014 1.78225 1.60823
0 4.3103 1.8869
7.06364 4.82097 8.90469
7.60848 0.29546 7.33384
5.44168 0.0617242 4.4126
1.28022 0.0518888 5.41826
7.29327 0.696324 4.94912
6.54595 2.42011 8.8306
1.16525 7.42729 4.89744
7.99707 1.17767 8.08468
0 0.187898 4.64755
1.99469 8.81819 0.549417
4.53005 6.9642 9.1842
1.62921 5.14361 5.76351
3.71061 0.761854 1.25357
9.08208 3.99396 2.05156
0.360255 6.13765 7.86125
9.02163 5.55412 4.65536
9.7589 8.02286 4.18684
8.19812 7.77227 10
8.40455 9.7995 5.89736
0.698308 5.44656 7.40392
6.15923 1.27258 3.67918
0.311599 9.56055 6.19686
0.876953 7.05504 0.371481
4.14891 9.15915 6.59715
3.04257 0.754858 9.21151
7.83199 8.96582 3.17214
9.79452 6.45658 1.58109
6.59803 6.59175 3.68097
5.2576 3.93753 6.10669
7.97203 9.98556 7.03173
9.45083 3.29464 4.4215
1.27141 4.33754 3.78212
7.88402 7.26054 4.39696
2.6672 0.835906 7.47147
7.91596 2.88947 4.7409
0.00844836 7.25168 5.26217
0.982385 5.66616 3.75158
7.65744 0.506811 7.34226
5.75982 9.55031 6.35924
0.670885 7.27395 1.9287
5.49266 7.7489 4.49386
2.27574 8.00549 9.29621
2.33059 7.10826 6.34692
5.84219 5.26217 8.78589
1.31156 0.627927 1.65468
1.94807 1.08381 8.5929
7.35304 1.20259 10
1.79823 10 3.23468
3.08101 3.19094 7.47157
3.46644 6.31212 10
9.56007 5.1909 7.73355
8.60697 1.39474 5.67601
2.70428 1.07821 1.47125
7.86755 7.89695 0.883175
7.59967 9.70416 1.29643
8.32518 6.93996 10
8.58453 4.04387 7.38945
3.3662 0.977104 7.03982
6.00797 8.31689 9.09074
2.42295 2.96178 5.39719
0.662561 9.31992 0
3.26511 2.56876 2.98972
4.25091 5.42079 5.17451
9.51803 1.15943 5.8834
8.07117 9.41577 9.02467
6.98523 7.45106 3.16947
9.59878 0.653162 5.31557
8.76073 8.33136 8.70328
0.337736 1.63236 3.97576
2.74677 8.87991 8.27217
6.86591 5.47301 1.89163
2.47835 9.58178 6.61583
1.45957 9.15051 1.95433
8.67886 1.70919 5.11256
8.25061 1.16821 5.40741
1.70135 7.6188 0.130166
0 6.80711 8.25078
7.4948 9.64095 8.67466
4.44642 0.695939 3.28192
7.47665 0.399726 7.35892
5.60879 1.11371 4.52175
1.36932 4.68073 4.31608
8.77303 1.52846 5.22583
6.80418 3.0418 0.866575
4.79641 4.75171 0.13214
3.12467 9.6188 1.23906
8.81023 7.33867 4.60989
7.11303 5.57653 5.54595
8.09309 8.69807 5.77518
7.87749 0.475028 7.13746
1.22452 8.67289 1.75206
7.3836 0.0903435 7.64749
1.32579 5.35255 5.27261
3.36224 0.575507 6.41073
9.76874 5.78663 1.06195
9.58834 5.07375 1.81266
2.8595 2.32913 6.38541
3.9636 9.80176 8.64248
8.26019 3.67285 0
4.67502 8.50442 1.78972
1.40397 2.67707 6.84964
7.59835 3.89231 5.07954
0.872838 3.93024 2.4689
1.31149 4.26871 3.04942
6.79308 0.121397 0.93218
3.64735 4.14845 4.81184
1.55973 2.9207 8.11291
3.59186 5.29431 6.17436
3.74022 0.3388 9.10027
1.97356 9.55334 2.9048
2.26606 9.43709 5.86011
0.232536 0.528455 2.01761
8.92035 4.46846 6.38015
8.06971 1.61409 6.04265
7.93084 9.41388 7.1494
6.56243 5.60699 2.60981
5.93953 3.88175 6.71219
3.43543 1.31951 5.25494
7.35935 4.66644 0
4.21991 9.89654 8.49277
3.95756 7.42138 0
2.43671 8.49519 1.04094
4.11447 0.203801 8.81315
7.36634 6.18826 0.882888
8.78936 8.6785 4.50644
6.24978 9.62725 4.98507
0.613135 6.50769 4.08056
1.41735 7.09337 0.54396
0.36733 8.84458 0.783881
8.93474 8.77546 9.68386
1.57861 1.00774 4.27696
2.14489 8.60846 6.91785
3.88967 3.07059 9.1539
0 10 3.61666
2.43046 7.29757 0.417423
7.50448 1.33449 3.84746
3.21304 0.547393 8.63239
3.06335 2.62294 3.83259
2.65434 2.1377 6.46601
1.35118 9.63714 2.09388
8.65429 1.73469 9.34507
9.64927 2.23358 0.760669
5.10614 0.751392 5.57286
6.3828 6.2944 9.36493
5.65581 0.497069 4.41869
6.63399 7.75429 3.32782
7.0286 4.40262 7.49639
7.24247 0.85041 7.33715
7.92408 0.597166 6.85756
7.4677 0.438592 7.30537
8.146 0.232693 7.42333
8.80444 3.53365 5.00799
3.87866 9.29335 2.85442
7.27337 0.718905 7.33429
0.807045 4.07888 8.61149
7.6547 0.601314 7.09198
6.46993 0 7.76876
8.65028 1.41086 5.69374
7.58554 0.368243 7.43253
9.96759 0.440485 5.81949
1.28447 2.55244 0.88124
7.74279 3.29859 5.55251
1.56659 5.75644 9.45455
0.4567 2.64144 2.08589
7.68086 0.348082 7.51314
2.61925 0 8.59977
5.91606 7.03613 8.68891
4.69367 9.58205 1.73924
7.75273 0.196877 7.32968
0.811777 1.35078 3.27456
2.4475 2.66041 2.91027
2.60824 9.89608 7.82224
4.45451 3.07634 9.6392
1.37757 0.828559 8.084
7.51051 0.855821 7.19231
7.60134 0.461074 7.41599
2.51414 8.38339 4.25969
8.99717 1.54143 5.8311
2.01376 9.66832 0.50221
9.84389 9.18522 7.23134
7.8303 0.549628 7.54352
7.77827 6.01837 8.36265
6.87127 1.17115 3.6228
5.87802 0.332624 2.63679
5.88787 8.7759 2.23645
6.90103 3.57496 7.18067
9.00153 2.73315 6.11183
10 5.78621 8.61397
7.51788 0.293006 7.38521
0.763511 0.766765 5.33721
5.54106 2.23547 9.56966
8.64632 4.46027 4.78221
1.20009 6.85395 3.84011
0.100547 8.85048 0
1.41631 1.06485 8.11436
7.89325 0.913599 6.77498
3.61104 2.0195 6.43971
8.11594 1.41632 0.927252
7.2579 0.0401903 8.40598
7.60233 0.192624 7.43241
7.71825 8.11647 3.44978
7.85433 0.161387 7.4793
7.75975 0.70118 7.39236
0.566534 9.79854 0.988619
2.13722 5.8499 7.24638
3.93587 6.60085 7.07796
7.58522 0.505581 7.28557
8.61665 0 7.45961
6.06371 4.07702 6.6114
8.12676 1.13937 7.00333
7.08662 0.494505 7.30051
3.69676 1.50091 6.41218
1.62157 0.779223 7.98161
1.54424 0.946618 8.48298
7.7028 0.489199 7.21018
2.35064 10 6.41991
1.72213 8.01383 9.13747
1.5042 0.996528 8.15084
7.47028 5.88599 0.788691
3.76404 7.32336 0.56383
5.34933 9.80045 6.59589
7.87418 1.55646 0.745988
2.64505 3.59529 2.94491
0.566131 8.40325 4.35424
8.18675 0.171523 7.29251
7.72851 0.667023 7.49232
7.88693 4.62986 1.85562
1.54412 0.984144 8.17354
6.55789 3.15583 5.05943
3.61872 0.765538 3.63851
7.7848 0.988371 6.87366
7.24531 0.139685 7.60135
7.77836 0.574776 7.40205
0.994609 8.85297 3.55198
7.37858 0.45743 7.38309
3.87184 4.46996 7.19412
1.64355 1.02115 8.0372
7.30341 0.25097 7.70518
7.90519 0.625902 7.2791
3.84937 4.6654 8.40664
8.94228 3.838 5.65525
7.27015 0.599107 7.24981
7.31147 0.584436 7.58511
6.24246 9.54752 5.88239
7.45393 0.700169 7.07981
3.23456 6.24527 6.76562
1.30189 0.315691 8.421
7.57665 0.305967 7.43028
3.51589 4.21787 4.85543
9.33543 4.51956 0.868874
5.10566 2.77573 0.280319
POINT_DATA 400
SCALARS particleColor float 3
LOOKUP_TABLE default
0.11449 1 0.88551
0.0572617 1 0.942738
1 5.96046e-08 0
1 5.96046e-08 0
1 5.96046e-08 0
0.79437 1 0.20563
1 0.856763 0
1 5.96046e-08 0
0.289232 1 0.710768
1 5.96046e-08 0
0.941275 1 0.0587252
1 5.96046e-08 0
1 5.96046e-08 0
1 5.96046e-08 0
1 5.96046e-08 0
1 5.96046e-08 0
1 5.96046e-08 0
0 0.72293 1
0.312985 1 0.687015
1 5.96046e-08 0
0 0.747499 1
1 5.96046e-08 0
1 5.96046e-08 0
1 5.96046e-08 0
0.591309 1 0.408691
0.437396 1 0.562604
1 0.179027 0
1 5.96046e-08 0
1 0.812612 0
1 5.96046e-08 0
1 5.96046e-08 0
1 5.96046e-08 0
0.224361 1 0.775639
1 5.96046e-08 0
1 5.96046e-08 0
1 5.96046e-08 0
1 5.96046e-08 0
1 5.96046e-08 0
1 5.96046e-08 0
0.849748 1 0.150252
1 5.96046e-08 0
1 5.96046e-08 0
1 0.377597 0
1 5.96046e-08 0
1 0.617628 0
1 0.993776 0
1 5.96046e-08 0
0.224303 1 0.775697
0 0.977453 1
1 5.96046e-08 0
0.656405 1 0.343595
1 0.0603896 0
1 5.96046e-08 0
0.13764 1 0.86236
0.968751 1 0.0312495
1 0.672691 0
1 0.420752 0
0.776592 1 0.223408
0.198087 1 0.801913
0 0.713784 1
1 5.96046e-08 0
0.717971 1 0.282029
1 5.96046e-08 0
1 5.96046e-08 0
1 5.96046e-08 0
0.790907 1 0.209093
1 0.162885 0
0.794244 1 0.205756
0 0.862537 1
1 0.805506 0
0.803659 1 0.196341
1 5.96046e-08 0
1 0.555855 0
0 0.910187 1
1 0.480998 0
1 0.205723 0
0.808318 1 0.191682
1 5.96046e-08 0
1 5.96046e-08 0
1 5.96046e-08 0
1 5.96046e-08 0
1 5.96046e-08 0
1 5.96046e-08 0
1 5.96046e-08 0
1 0.363339 0
1 0.246977 0
1 0.931416 0
1 5.96046e-08 0
1 0.45464 0
1 5.96046e-08 0
0.482438 1 0.517562
0 0.994966 1
1 5.96046e-08 0
1 0.945334 0
1 5.96046e-08 0
1 5.96046e-08 0
1 5.96046e-08 0
1 5.96046e-08 0
0.861924 1 0.138076
1 0.254284 0
1 0.738436 0
0.891169 1 0.108831
0.453318 1 0.546682
1 0.851881 0
1 0.984219 0
1 0.238039 0
0 0.662301 1
1 5.96046e-08 0
1 5.96046e-08 0
1 5.96046e-08 0
0.723061 1 0.276939
1 5.96046e-08 0
1 5.96046e-08 0
0 0.846506 1
1 0.819448 0
1 0.429689 0
1 0.230041 0
1 0.22675 0
1 0.558312 0
1 5.96046e-08 0
1 5.96046e-08 0
1 5.96046e-08 0
1 5.96046e-08 0
1 5.96046e-08 0
1 0.176927 0
1 5.96046e-08 0
0.980947 1 0.0190531
1 5.96046e-08 0
0.733177 1 0.266823
1 5.96046e-08 0
0.746525 1 0.253475
1 0.948094 0
1 0.369724 0
1 0.354233 0
1 0.50411 0
1 0.539914 0
0.236741 1 0.763259
1 0.695249 0
1 0.239105 0
1 0.301929 0
0.684097 1 0.315903
0.0283081 1 0.971692
1 5.96046e-08 0
1 5.96046e-08 0
0.392409 1 0.607591
1 0.123047 0
1 0.079857 0
0.515694 1 0.484306
1 5.96046e-08 0
1 5.96046e-08 0
0 0.37273 1
1 5.96046e-08 0
1 5.96046e-08 0
1 5.96046e-08 0
1 5.96046e-08 0
0 0.907361 1
1 0.754509 0
1 0.587848 0
0.949413 1 0.0505872
1 0.10175 0
1 0.380639 0
1 0.934271 0
1 0.563121 0
0 0.706842 1
1 5.96046e-08 0
0.859966 1 0.140034
1 5.96046e-08 0
1 0.626442 0
0 0.75437 1
1 5.96046e-08 0
0.509654 1 0.490346
1 5.96046e-08 0
1 0.380709 0
0.281465 1 0.718535
1 5.96046e-08 0
1 0.980654 0
1 5.96046e-08 0
1 0.601104 0
1 0.759899 0
0.994044 1 0.00595593
0.70226 1 0.29774
1 5.96046e-08 0
0.270129 1 0.729871
1 0.381926 0
1 0.599209 0
1 0.232156 0
0 0.80438 1
1 5.96046e-08 0
0 0.900763 1
1 5.96046e-08 0
0.883775 1 0.116225
1 5.96046e-08 0
1 5.96046e-08 0
0 0.815492 1
0.907624 1 0.0923762
0.42361 1 0.57639
1 5.96046e-08 0
1 5.96046e-08 0
1 5.96046e-08 0
0.287488 1 0.712512
0 0.693973 1
1 0.822373 0
1 0.774177 0
1 5.96046e-08 0
1 5.96046e-08 0
0.310083 1 0.689917
1 5.96046e-08 0
1 5.96046e-08 0
1 5.96046e-08 0
1 5.96046e-08 0
0.78188 1 0.21812
1 0.442848 0
1 0.534832 0
1 5.96046e-08 0
0.987254 1 0.0127456
0.68716 1 0.31284
0.128613 1 0.871387
1 5.96046e-08 0
1 0.334027 0
1 5.96046e-08 0
1 0.415814 0
1 0.397926 0
0.169817 1 0.830183
0 0.221719 1
1 0.657334 0
1 5.96046e-08 0
0 0.977895 1
1 0.296758 0
0 0.397844 1
1 0.385272 0
0.901096 1 0.0989041
0.678479 1 0.321521
0 0.66633 1
1 5.96046e-08 0
0.520521 1 0.479479
0.0349656 1 0.965034
1 0.522332 0
1 5.96046e-08 0
0 0.380939 1
1 5.96046e-08 0
0 0.526819 1
0.80965 1 0.19035
0.733079 1 0.266921
0.177256 1 0.822744
1 0.477144 0
0.706214 1 0.293786
1 0.552363 0
1 5.96046e-08 0
1 0.291055 0
1 0.920466 0
1 0.865891 0
0.106076 1 0.893924
1 5.96046e-08 0
1 5.96046e-08 0
1 0.689339 0
0 0.649551 1
1 0.0484839 0
0.164883 1 0.835117
0.714152 1 0.285848
0 0.658821 1
1 0.601704 0
0.335702 1 0.664298
1 5.96046e-08 0
1 5.96046e-08 0
0.48772 1 0.51228
0.208384 1 0.791616
1 5.96046e-08 0
1 0.125443 0
0.425706 1 0.574294
1 5.96046e-08 0
0.399802 1 0.600198
1 0.351737 0
1 0.605603 0
1 0.986145 0
1 0.132062 0
1 5.96046e-08 0
0.929804 1 0.0701964
1 0.0353893 0
1 5.96046e-08 0
1 5.96046e-08 0
1 0.631902 0
1 0.329696 0
1 5.96046e-08 0
1 0.297271 0
1 5.96046e-08 0
1 0.493027 0
1 0.764309 0
1 0.596809 0
1 5.96046e-08 0
1 5.96046e-08 0
0.71665 1 0.28335
1 5.96046e-08 0
0.413141 1 0.586859
1 0.133047 0
1 0.856686 0
1 0.662465 0
0 0.596423 1
0 0.754157 1
0 0.675282 1
0 0.671661 1
0.79995 1 0.20005
0.508392 1 0.491608
0 0.518966 1
0.222682 1 0.777318
0 0.373623 1
1 5.96046e-08 0
0 0.571778 1
0 0.624927 1
1 0.147024 0
0.98112 1 0.0188801
0.829389 1 0.170611
1 5.96046e-08 0
1 5.96046e-08 0
0 0.490475 1
1 5.96046e-08 0
0.920586 1 0.0794145
1 5.96046e-08 0
0.0338771 1 0.966123
1 5.96046e-08 0
0.163729 1 0.836271
0.82416 1 0.17584
0.559276 1 0.440724
0 0.266296 1
0 0.341611 1
0 0.841004 1
0.35192 1 0.64808
0 0.817393 1
0.558961 1 0.441039
1 0.382162 0
0 0.398588 1
0.1449 1 0.8551
1 0.528454 0
1 5.96046e-08 0
1 5.96046e-08 0
0.0970029 1 0.902997
0 0.840178 1
1 0.952199 0
0 0.734263 1
1 5.96046e-08 0
1 0.131917 0
1 5.96046e-08 0
1 5.96046e-08 0
1 0.757786 0
0 0.530172 1
0 0.631047 1
1 5.96046e-08 0
0 0.624639 1
0 0.760894 1
0 0.495795 1
1 5.96046e-08 0
0.0799389 1 0.920061
0 0.632156 1
0.601592 1 0.398408
1 0.205605 0
0.344599 1 0.655401
0 0.80097 1
0.406144 1 0.593856
1 5.96046e-08 0
0 0.451304 1
0 0.523798 1
1 5.96046e-08 0
0 0.350611 1
0 0.320076 1
0 0.57786 1
0.896723 1 0.103277
1 5.96046e-08 0
0 0.155683 1
1 0.779831 0
0.600219 1 0.399781
1 5.96046e-08 0
0 0.617081 1
1 5.96046e-08 0
1 0.74831 0
0 0.428451 1
0 0.895561 1
0.43501 1 0.56499
0 0.178183 1
1 5.96046e-08 0
1 0.73365 0
0 0.526753 1
0.0257753 1 0.974225
0 0.505869 1
1 5.96046e-08 0
0 0.972949 1
1 5.96046e-08 0
0 0.347833 1
0 0.344281 1
0 0.346244 1
1 0.185392 0
1 0.924918 0
0 0.552066 1
0 0.729397 1
0.770396 1 0.229604
0 0.385771 1
1 5.96046e-08 0
1 5.96046e-08 0
0 0.634813 1
1 0.198602 0
0.802196 1 0.197804
0.830054 1 0.169946
