# vtk DataFile Version 3.0
Particle simulation
ASCII
DATASET POLYDATA
POINTS 400 float
0.82878 0.282483 9.76604
3.95796 2.04097 8.83395
6.15202 5.97361 2.10976
0.23586 8.68844 5.39144
3.13186 4.85836 1.43443
8.07947 2.00027 4.33391
7.83191 2.08105 5.14563
7.24612 5.25937 1.1187
3.95996 4.05479 1.84194
3.30885 4.93135 3.25112
6.44944 2.00112 4.9777
0.170932 6.19819 3.41861
6.0017 2.69819 1.87481
5.40862 9.15823 6.03992
9.95361 5.00758 7.30847
6.93578 0.622543 4.19903
2.78276 1.68178 4.1366
2.90458 0.312882 0.640513
3.35731 1.96339 6.74155
6.86341 0.260662 8.72293
2.99414 0.433493 0.646758
5.01697 9.69854 4.68087
3.16771 6.18748 0.289393
0.532978 5.81275 8.17354
3.01761 5.68008 7.3441
3.66054 3.95431 2.4201
3.40847 6.27432 5.83572
6.94389 0.597013 1.60031
1.87232 7.78941 0.935924
2.67729 7.83853 9.17222
5.36043 6.27046 1.33992
1.1354 7.76779 7.86961
9.50415 7.98252 1.113
8.86149 0.0635566 7.58502
3.28545 2.36131 1.97047
8.55386 6.28912 1.37102
2.04185 2.6638 8.68159
2.97653 0.240851 0.966242
9.44322 3.22864 3.26347
3.55429 1.01811 3.23809
1.10011 5.08324 4.76502
5.13395 1.80247 2.6394
3.26139 9.64214 2.93449
5.5517 5.60663 8.39679
5.89736 0.28498 1.6972
2.86686 1.2949 1.16664
6.87734 4.19565 9.55033
9.41334 0.129929 4.97367
6.60908 0.225039 2.01579
3.49466 2.03201 6.91465
2.38112 9.86998 5.30692
1.17959 6.50787 5.89912
9.96839 3.50176 1.91975
2.61968 7.71596 8.44912
2.64149 0.301456 6.44595
5.82186 0.274236 1.37177
8.87101 5.46913 9.45486
6.33819 3.11623 2.93294
4.8234 3.34424 4.99633
6.59074 0.0943687 8.6248
0.0441546 5.42917 9.28892
9.58953 0.084835 3.88551
1.50622 4.58593 3.00999
0.48973 0.415709 8.33324
0.277038 5.80306 7.20973
4.48099 0.922588 4.34172
3.1001 1.71563 4.99403
9.68001 0 8.49562
7.69324 6.71639 9.51401
4.54885 5.1795 1.31495
4.7002 2.42554 8.10725
6.08875 2.34087 1.65527
2.59629 6.65831 3.65911
1.04379 5.33466 6.47524
5.66221 5.5821 7.2512
2.49735 5.31459 0.448486
3.01844 2.49702 4.31765
9.77684 4.9977 7.06819
7.72716 1.25825 4.61034
8.56257 7.44672 3.66997
3.3747 0.303595 0.505036
7.81726 0.275137 7.45443
3.29569 1.27339 0.13454
3.42815 0.0959189 1.47335
8.18079 9.43277 9.64174
1.1374 1.75342 8.33863
7.57147 9.46786 8.6619
8.40609 9.25315 5.06085
1.55846 0.470024 7.21863
5.98473 4.08728 0.843722
2.7394 0.472783 0.219491
6.75483 6.63094 1.24943
0.831044 5.64752 1.8334
3.52235 0.700875 7.86778
1.32209 0.0874199 6.67841
0.480229 8.23843 6.38872
7.49933 0.862772 10
6.47489 0.380762 6.31249
3.87593 4.89724 7.33477
8.24461 1.20948 0.364593
3.29778 0.255035 0.871873
4.49348 10 6.5447
0.950243 2.15611 6.99769
0.943826 0.979922 3.76034
7.6032 2.73486 9.93067
3.10605 5.34367 2.97394
2.03239 1.27736 8.30462
6.54519 0.611697 0.770499
4.48609 0.781246 2.42354
4.30308 4.43829 2.11319
1.16246 1.0567 3.12176
5.09111 0.206044 8.85547
4.10471 2.70356 4.92133
4.25788 0.330976 0.582011
2.92705 0.388411 0.779142
1.878 2.96496 6.22647
4.6478 0.176663 7.86076
6.69362 4.27932 9.59451
9.63768 3.0469 0.491371
1.56415 7.41399 3.53915
2.81733 0.167703 0.320901
9.87154 2.56438 0.100532
9.82426 0.749953 9.01524
2.52253 0.145792 8.93073
0.824584 9.84304 4.29468
3.40925 0.230304 0.924295
2.26401 1.34209 8.89991
0.486632 0.466354 8.75779
4.45668 1.71244 6.97657
2.39748 8.37769 1.09608
2.89021 0.707378 5.32003
3.70408 4.92857 7.497
7.05545 1.57983 2.89824
9.21901 0.959571 1.33458
3.38493 0.338574 7.69491
1.19791 1.85419 2.53561
0.342733 0.692454 2.04882
1.30885 0.51603 7.79348
9.54278 8.69463 0.914176
5.26806 0.536262 7.6548
3.43991 0.466375 1.04703
4.75823 8.88864 3.11655
3.13648 5.60503 7.24149
1.71933 3.17918 4.24684
3.60016 0.256395 0.722663
8.69892 2.41281 7.93521
7.67087 0.309561 1.7463
0.66121 6.75323 2.91517
6.02929 2.69105 1.92396
5.87109 2.08245 7.59133
3.47849 0.406279 1.10107
3.25534 1.73099 5.85177
1.2044 0.591082 8.14683
3.76231 0.578921 0.437163
9.09174 1.89445 8.712
5.06254 0.662641 1.80449
6.60232 2.9218 0.0947795
6.56475 0.212655 0.731699
4.16078 0.567304 8.69297
7.28719 2.02467 4.20699
7.77253 3.27354 1.09542
9.66756 0.391552 9.46447
3.8447 1.3349 6.49867
6.08013 6.25657 7.6198
8.66578 2.32161 0
8.17414 9.49059 7.43892
2.00989 0.673094 5.97901
9.54079 0.697271 7.6686
6.89523 9.6742 9.76288
2.13876 0.0571215 6.3166
3.32018 0.56727 0.785869
8.61021 2.62013 2.90493
7.65284 3.35688 2.28384
2.32848 5.99155 0
1.38478 0.360977 7.15564
0.823828 5.65786 3.62364
1.48645 0.747117 6.07017
0.245127 0.866935 4.2795
0.551995 0.303215 9.94298
7.04724 8.97229 9.32591
2.74292 0.174917 0.664065
1.44405 7.14936 3.90244
1.12265 1.86016 8.11305
8.00327 2.22392 0.879997
5.19278 0.152415 7.64884
8.35107 1.72383 4.69421
3.63703 0.320872 0.835331
1.3097 1.10826 8.30584
7.30709 0.497418 1.44409
3.07542 0.141496 0.549803
3.37069 0.380778 0.581837
3.29257 0.474123 0.72746
1.4924 5.0905 2.1738
10 7.61592 0.249077
8.87326 1.42305 1.32861
3.09392 0.0738267 0.462851
2.25905 0.89407 4.72104
7.78706 3.20977 4.08003
2.82275 0.348665 0.712735
3.50735 0.012287 0.199868
3.54601 0.345899 0.871563
6.27437 0.0951913 1.10696
6.77324 0.437782 1.40196
1.8679 1.02518 6.15666
8.34881 9.76881 1.98303
4.75468 0.431064 8.44695
2.89334 0.0259715 0.676698
0.0492371 5.29995 2.91836
3.53754 1.89194 1.36451
6.74555 2.34638 0.0478562
3.47289 0.285568 0.469627
3.28486 0.165071 0.359424
7.77515 4.20958 5.81542
8.82154 0.969132 6.64678
9.51229 1.59766 7.96377
4.87494 0.314104 8.1362
2.9799 0.677502 0.332464
2.83317 0.443951 0.426806
9.74042 5.58917 1.67829
3.15217 0.400773 2.14755
6.33322 6.34266 0.416748
7.65633 5.43585 3.17117
4.88742 0.252821 8.27018
2.74015 0.137194 0.538613
7.59571 0.951475 6.40976
4.07213 0.0961701 2.03482
5.64229 3.68889 0.566332
3.46983 0.398972 1.20873
2.97058 0.661753 0.865331
9.49917 3.84495 0.218471
7.09342 3.64238 7.60803
5.04177 0.376574 8.10368
7.53906 0.629839 1.86485
2.95247 0.202976 0.0790358
4.34339 0.437177 8.13812
1.61515 1.52618 2.82725
6.69843 10 9.29029
1.99222 1.09502 4.99781
3.56444 0.0832009 0.823205
0.468583 2.64808 3.39635
3.43792 0.0437396 0.522771
3.47394 0.348822 0.966291
3.1867 0.495087 0.671749
3.29824 0.0929123 0.450553
5.0133 0.366703 8.16034
1.49076 6.43343 3.00227
0.4773 0.416436 5.5981
1.54274 0.882456 6.55612
2.47259 6.28404 2.20736
8.48556 0 9.13568
2.95117 0.447924 0.3212
0.802478 8.15427 7.10369
4.30758 0.327056 8.24258
5.00725 0.262494 3.96067
7.89648 0.469039 1.80973
3.22868 0.324131 0.238437
6.40192 1.32941 7.47017
4.48059 0.455113 8.12762
2.69873 3.59289 5.04755
4.46674 0.203427 8.17771
3.03036 0.129691 0.694111
9.82086 1.71943 0.267348
1.81816 0.9572 6.17266
4.28174 1.32572 4.36151
5.19775 0.0843645 8.3486
1.46945 8.88181 6.29729
6.70612 0.127556 2.07425
4.0213 0.50564 7.90508
7.43309 0.0103123 1.55319
3.55712 0.434272 0.927937
3.42574 0.248688 0.526104
9.59312 3.7007 0.237267
9.82241 0.596485 2.53084
3.31644 2.69941 3.95408
5.86362 1.5989 7.4631
4.01357 0.246249 8.91507
2.81301 2.55424 4.24381
8.9805 9.17941 0.758567
3.80859 2.04845 1.94832
3.31218 0.392406 0.401696
6.59227 0.163257 2.14919
6.1372 0.542782 1.22141
8.18467 2.63263 0.197983
1.86701 0.591817 6.02122
1.99923 7.6835 4.99211
7.84826 1.26406 0.652017
3.36596 0.349947 0.575321
7.99413 0.528931 7.4701
5.33905 2.32908 7.29458
0.591007 0 1.72408
2.08687 0.0836339 8.03181
6.32542 0.384686 0.581843
3.08476 0.563908 1.0147
0.620793 0.315006 8.56633
4.26967 0.565585 8.56174
4.22309 0.436204 7.99414
3.51566 0.266833 0.382759
3.70628 0.425105 0.849393
8.58905 2.43035 7.84634
3.52798 0.380641 0.18664
1.42598 2.0459 1.70669
1.71452 1.09923 6.40475
4.90803 0.469598 3.14767
1.20006 3.52149 4.48741
2.89657 0.106221 0.750407
0.0906421 0.280678 8.56451
3.4852 0.210318 0.306996
3.00858 0.075315 0.586092
1.75909 0.3993 5.555
2.98472 2.62521 4.50346
4.14133 0.529628 7.73518
3.56755 1.43251 5.91378
7.38145 0.0901515 1.42616
3.41858 0.758698 0.846495
8.64827 2.75495 7.63291
0.697887 0.14751 8.19652
9.18529 0.45319 3.77724
3.01658 3.34445 5.43878
5.65782 1.88558 7.59503
5.87957 2.11652 1.83748
4.8031 0.202546 7.95827
0.391166 0.426127 5.78492
4.12908 0.156044 8.28702
2.97537 0.453105 0.855639
6.57659 0.150944 2.21837
8.6049 1.28358 0.236702
3.16823 0.278699 0.674611
5.5398 0.735311 1.25123
1.82167 6.31383 2.76442
2.95018 0.0450803 0.310039
9.34064 5.11484 0.820915
3.50483 0.378202 1.10521
4.4172 0.25006 8.00644
3.59603 0.382917 0.368631
5.92426 0.443975 1.18572
5.26851 9.83938 6.79551
3.38252 3.50742 5.25543
3.36279 0.0537947 0.538977
9.35599 0.470537 9.15292
3.41311 0.444803 7.60118
4.83278 0.233935 8.8029
2.91008 0.439437 7.44861
4.56395 0.598991 8.29299
4.35772 0.138156 8.40378
3.45857 0.16062 0.41215
2.86933 0.158567 0.645636
6.30203 0.324917 1.22378
3.49399 0.133544 0.572976
3.41871 0.351894 1.12325
3.6653 0.152893 7.84527
3.32775 0.265816 1.07544
3.14267 0.478437 0.534765
5.82852 1.00392 7.33086
4.9834 0.386808 7.88038
3.62051 0 1.25868
3.64128 0.227709 0.316782
5.90453 0.694065 1.26008
4.53784 0.397616 8.56684
3.98242 0.281574 0.303221
3.06427 0.224908 0.740482
5.98522 0.614921 1.62468
4.68863 0.163361 8.10214
4.5812 0.100788 7.82929
2.82626 0.379851 0.818005
3.911 0.434014 0.50339
7.59573 0.381873 2.08749
4.82547 0.242439 8.3053
9.34726 0.890909 6.65092
5.03891 0.488295 8.59115
8.75273 1.63796 0.415636
5.95393 0.601817 1.52882
3.36699 1.67106 5.84796
4.12417 0.455668 7.8113
3.27124 0.549296 0.426183
2.65951 0.18667 0.526117
7.83421 0.125678 1.66254
4.69602 0.208085 8.11446
4.40922 0.0705804 8.1021
5.3181 0.32273 8.19054
3.23362 0.385509 0.78522
3.07022 0.128763 0.448378
2.84407 0.330126 0.814997
5.09306 0.321762 8.28017
3.43431 0.38626 1.32863
0.600546 0.469822 8.32341
4.32274 0.289764 8.12042
3.14427 0.300458 0.408289
3.32035 0.536337 0.912829
4.64239 5.33998 6.72383
5.99563 0.00136371 1.47079
2.95675 0.338843 0.420377
3.14994 0.387358 0.641063
3.93201 0.199251 7.88387
2.83285 0.256843 0.473481
0.536448 0.413984 8.37502
4.14023 0.357182 8.12533
3.19152 0.32149 0.424476
1.11593 0.288714 7.04148
5.14809 0.555174 1.44668
5.9887 0 1.47334
POINT_DATA 400
SCALARS particleColor float 3
LOOKUP_TABLE default
0.1965 1 0.8035
0.380662 1 0.619338
0.7327 1 0.2673
0.664711 1 0.335289
1 5.96046e-08 0
1 5.96046e-08 0
1 5.96046e-08 0
0.115823 1 0.884177
0 0.671856 1
1 0.573788 0
0.137657 1 0.862343
0.76785 1 0.23215
0.88376 1 0.11624
0.52372 1 0.47628
0.00565269 1 0.994347
1 5.96046e-08 0
0.480367 1 0.519633
0 0.428468 1
0.555223 1 0.444777
1 0.843948 0
0 0.533429 1
0.171469 1 0.828531
1 0.570277 0
0.602678 1 0.397322
0.959123 1 0.0408765
1 0.858177 0
0.269557 1 0.730443
0.581315 1 0.418685
0.97159 1 0.0284095
0.932064 1 0.0679365
1 5.96046e-08 0
0.543 1 0.457
0.898849 1 0.101151
0.572699 1 0.427301
0.287387 1 0.712613
1 0.645836 0
1 5.96046e-08 0
0 0.507444 1
1 5.96046e-08 0
0.873802 1 0.126198
1 5.96046e-08 0
0.423912 1 0.576088
0.9385 1 0.0615004
0.946757 1 0.0532427
0.0267216 1 0.973278
0.590719 1 0.409281
0.227253 1 0.772747
0 0.904575 1
0 0.805042 1
1 5.96046e-08 0
0 0.646247 1
0.468543 1 0.531457
0.0934339 1 0.906566
0.228119 1 0.771881
0 0.781642 1
0 0.498895 1
0.741894 1 0.258106
0 0.836124 1
0 0.444079 1
1 0.767302 0
0 0.991542 1
0 0.963453 1
0 0.743485 1
0 0.568678 1
0.931075 1 0.0689247
1 0.582077 0
0.499399 1 0.500601
1 5.96046e-08 0
0.107435 1 0.892565
0.0307014 1 0.969299
0.0278236 1 0.972176
0 0.908353 1
1 0.298 0
1 5.96046e-08 0
0.00410297 1 0.995897
1 0.487628 0
0 0.760618 1
0.591823 1 0.408177
0.323592 1 0.676408
0.449346 1 0.550654
0 0.866633 1
0 0.781873 1
1 0.902133 0
0 0.618206 1
1 5.96046e-08 0
0 0.801733 1
0 0.948362 1
1 5.96046e-08 0
0.263806 1 0.736194
0 0.95725 1
0 0.418356 1
1 0.51607 0
1 5.96046e-08 0
0 0.719142 1
0.192773 1 0.807227
0.587091 1 0.412909
1 0.600703 0
0 0.913523 1
0.528139 1 0.471861
0 0.881619 1
0 0.457455 1
1 0.282333 0
0.118893 1 0.881107
0 0.544106 1
0 0.916683 1
1 0.801461 0
1 0.62921 0
0 0.549003 1
1 5.96046e-08 0
0.604699 1 0.395301
1 0.671183 0
1 0.68124 0
1 0.889481 0
0 0.682492 1
0 0.940833 1
0 0.62817 1
0 0.236885 1
1 0.530417 0
0.822335 1 0.177665
0.664712 1 0.335288
0 0.795535 1
0.693351 1 0.306649
0.0962181 1 0.903782
1 0.733389 0
0.0746506 1 0.925349
0 0.540796 1
0.727749 1 0.272251
0 0.598272 1
1 0.651632 0
1 5.96046e-08 0
1 5.96046e-08 0
1 0.878182 0
0.878639 1 0.121361
0 0.649652 1
0 0.848605 1
0 0.944923 1
0.173745 1 0.826255
0 0.954044 1
1 0.0499477 0
0 0.299531 1
0 0.391746 1
0.611269 1 0.388731
1 0.557179 0
0.83722 1 0.16278
0 0.651673 1
0.122651 1 0.877349
0 0.508293 1
0.92186 1 0.0781404
0 0.818486 1
0.899612 1 0.100388
0 0.268356 1
0 0.537397 1
0 0.404881 1
0 0.938645 1
1 5.96046e-08 0
0 0.685769 1
0 0.458311 1
0 0.59209 1
0.837809 1 0.162191
0.236281 1 0.763719
0 0.652036 1
0.488255 1 0.511745
0 0.810918 1
1 5.96046e-08 0
0.430231 1 0.569769
0.480827 1 0.519173
1 5.96046e-08 0
0 0.823725 1
1 5.96046e-08 0
0.172702 1 0.827298
0 0.637615 1
0.963159 1 0.0368406
1 0.383948 0
0.250511 1 0.749489
0.0456842 1 0.954316
0.957396 1 0.0426036
0 0.753447 1
0.407182 1 0.592818
0 0.560632 1
0.0411052 1 0.958895
0 0.2983 1
0.970432 1 0.0295684
1 0.986845 0
0 0.771613 1
0 0.716939 1
0.129463 1 0.870537
0 0.405231 1
1 5.96046e-08 0
0 0.872813 1
0 0.900003 1
0 0.660146 1
0 0.890713 1
1 5.96046e-08 0
1 5.96046e-08 0
1 5.96046e-08 0
0 0.432853 1
0 0.991618 1
1 0.793534 0
0 0.538525 1
0 0.490037 1
0 0.279206 1
0 0.477737 1
0.21947 1 0.78053
0 0.430046 1
0.768168 1 0.231832
0 0.424626 1
0 0.221146 1
1 5.96046e-08 0
0 0.801652 1
0.908734 1 0.0912661
0 0.383392 1
0 0.861982 1
1 5.96046e-08 0
0.00895506 1 0.991045
1 0.727219 0
0 0.676799 1
0 0.427015 1
0 0.681246 1
1 0.43416 0
0.413323 1 0.586677
1 0.714949 0
0.16965 1 0.83035
0 0.789636 1
0 0.819328 1
0 0.340007 1
0 0.389456 1
0 0.811913 1
0 0.900765 1
0 0.12881 1
0.229712 1 0.770288
0.184105 1 0.815895
0.051682 1 0.948318
0 0.649421 1
0 0.580195 1
0 0.182612 1
0 0.72045 1
1 0.965334 0
0 0.757588 1
0 0.834915 1
1 5.96046e-08 0
0 0.586152 1
0.0864737 1 0.913526
0 0.945335 1
0 0.701738 1
0 0.864426 1
0 0.960039 1
0 0.755459 1
0 0.912456 1
1 5.96046e-08 0
0.338233 1 0.661767
0 0.511456 1
1 0.922405 0
0 0.734189 1
0 0.770906 1
0 0.659087 1
0 0.446431 1
0 0.694237 1
0 0.718878 1
0 0.808818 1
0 0.388703 1
0 0.993782 1
1 0.587185 0
0 0.596124 1
0.200912 1 0.799088
0 0.255418 1
1 0.855199 0
0 0.900111 1
0 0.415768 1
0 0.889351 1
0 0.82262 1
0 0.788981 1
0.948348 1 0.0516523
1 0.621415 0
0 0.737896 1
0 0.68925 1
0 0.541902 1
0 0.48511 1
0.482198 1 0.517802
0 0.554058 1
0 0.251881 1
0 0.80436 1
0 0.160665 1
0.398239 1 0.601761
0 0.70898 1
1 5.96046e-08 0
0.263675 1 0.736325
0 0.845095 1
0.296871 1 0.703129
0.0190522 1 0.980948
0.447462 1 0.552538
1 5.96046e-08 0
0 0.54203 1
0 0.919928 1
0 0.404892 1
0 0.730161 1
0 0.766438 1
0 0.568499 1
0 0.470112 1
0 0.830356 1
0 0.415552 1
0 0.647505 1
0 0.653084 1
0.00322813 1 0.996772
1 5.96046e-08 0
0 0.607604 1
0 0.425995 1
0.0536035 1 0.946396
0 0.474034 1
0.464029 1 0.535971
0 0.783172 1
0 0.481474 1
0 0.519472 1
0 0.893133 1
0 0.390283 1
0 0.827707 1
0 0.5833 1
0.49986 1 0.50014
0.114126 1 0.885874
0 0.82301 1
0 0.430988 1
0 0.682452 1
0 0.881257 1
0 0.609206 1
0.298658 1 0.701342
0 0.183225 1
0 0.507481 1
0 0.765477 1
0 0.420855 1
1 5.96046e-08 0
0 0.917898 1
0.929264 1 0.0707355
0 0.698515 1
0 0.283543 1
0.0549416 1 0.945058
0 0.38295 1
0.227505 1 0.772495
0 0.298049 1
0 0.629851 1
0 0.768755 1
0 0.416774 1
0 0.883479 1
0 0.915633 1
0 0.76781 1
0 0.286692 1
0 0.341606 1
0 0.639472 1
0 0.304447 1
0 0.443991 1
0.231712 1 0.768288
0.288188 1 0.711812
0.257246 1 0.742754
0 0.458941 1
0.0677735 1 0.932227
0 0.466154 1
0 0.431135 1
0 0.516419 1
0 0.997006 1
0 0.954221 1
0 0.228787 1
0 0.568672 1
0 0.739264 1
0 0.684277 1
0 0.731577 1
0 0.268401 1
0 0.554614 1
0 0.526163 1
0 0.862573 1
0 0.859469 1
0 0.416591 1
0 0.544904 1
0 0.600529 1
0 0.641665 1
0 0.529481 1
0 0.994239 1
0 0.746137 1
0 0.793106 1
0 0.664953 1
0.168784 1 0.831216
0 0.653351 1
0 0.566686 1
0.111764 1 0.888236
0 0.306301 1
0.00745862 1 0.992541
0 0.428142 1
0 0.483782 1
0 0.366468 1
0 0.921732 1
0 0.414735 1
1 0.457393 0
0 0.662231 1
0 0.935365 1
0 0.518272 1
0 0.595389 1
0 0.572369 1
0.0413366 1 0.958663
0 0.474942 1
0 0.737632 1
0 0.898794 1
0 0.557547 1
0 0.355913 1
