# vtk DataFile Version 3.0
Particle simulation
ASCII
DATASET POLYDATA
POINTS 400 float
2.4489 1.95343 1.81179
1.12901 4.07548 6.27951
7.81828 1.03313 7.31614
9.46224 4.88417 6.7813
6.00309 0.603787 7.41149
9.41224 7.19986 8.05755
9.69176 3.53679 6.49724
3.90812 3.39777 0.119831
5.54859 4.89771 9.53473
5.19104 2.32503 8.1902
2.54442 4.01171 3.21034
1.35436 4.87812 1.09575
5.94363 9.53851 4.76708
0.246695 5.27155 1.1448
1.11067 8.39465 0.51134
9.42834 3.76993 9.16454
5.84101 5.37088 9.09717
3.23163 0.2691 2.21383
7.64894 10 0.446131
0.87843 6.69838 10
3.34933 0.742006 2.12616
5.90864 8.85301 8.59627
0.692181 6.14278 7.27685
7.96506 6.83718 2.377
6.70326 9.90461 2.14065
9.23584 7.66887 3.51632
6.43141 4.2948 7.02389
2.93193 2.63549 7.79833
3.43759 2.34424 2.67084
6.03487 3.46054 5.24431
9.26503 8.82945 7.79771
6.68778 1.9787 1.91303
3.90855 2.64616 3.13291
8.08315 6.58001 2.72687
1.20091 4.27658 0.393509
0.901542 2.23148 3.31926
7.60012 6.8718 6.31948
3.57374 0.384634 2.21444
7.59165 1.03339 7.496
9.97255 7.47335 7.80811
7.71674 7.28979 1.2728
6.36216 4.10448 4.75878
2.42049 2.54444 7.76646
6.11588 4.25409 0.0233403
6.30727 1.79629 4.34846
9.74186 9.40503 8.00118
2.44336 3.90834 9.85664
5.37807 10 1.87049
1.07731 6.0075 4.29962
5.96986 2.11973 0
8.59962 0.0572379 4.58497
8.22933 9.42844 8.4734
2.71986 6.86237 3.21526
9.83998 7.29746 1.92217
7.41467 8.51529 9.45344
0.748957 0.778405 9.05666
0.575545 4.80765 2.20982
5.86241 1.28381 5.4116
0 4.88783 6.56032
3.28961 6.81932 6.34984
0.273936 4.73016 1.82749
5.62596 4.32557 6.29253
3.16026 0.546306 6.42235
0.52904 9.30058 4.14548
4.39724 9.04267 9.48318
5.54198 1.78559 5.83625
8.34372 4.17691 8.93121
5.51458 5.2307 8.0655
0.39713 3.79318 1.46497
5.72092 0.0746073 3.62088
7.82679 3.1486 7.90643
9.06391 8.80697 6.39472
1.30196 8.395 3.44582
9.23605 1.56197 5.96826
8.77156 0.534284 4.07909
0.56016 8.64964 5.15917
1.47056 9.04948 4.09092
3.6405 0 7.60874
0.960412 7.67038 0.528122
10 3.34859 8.27178
3.23233 0.031977 2.22644
0.584302 4.17416 1.40604
3.29857 0.291307 9.17718
0.507404 6.99952 1.87993
4.17016 4.40793 4.11148
8.32569 0.727978 6.94896
9.56791 2.30307 3.05782
4.59717 5.96642 9.31327
4.47828 6.02664 1.6493
0.98441 0.953038 4.45681
3.69168 0.287693 2.01665
2.83239 6.95879 4.6237
3.78827 1.8759 5.39922
8.1363 5.18964 1.87949
7.62521 8.18486 5.99685
0 5.29999 2.32163
7.31341 6.71529 8.07235
8.84693 8.65111 6.53358
7.66695 3.74914 5.17998
1.63396 7.42324 9.76189
3.39144 0.669977 0.449684
4.56032 4.30612 6.00972
8.89033 8.22897 1.87503
8.2629 0.404112 9.18915
4.13959 2.4098 4.92208
1.11752 7.58421 7.82249
1.16427 2.85003 1.80717
1.07599 9.00275 8.60661
1.08457 3.02384 6.3928
9.96774 9.06058 7.39325
4.5081 8.21141 8.40187
1.92079 7.42501 9.22722
1.77618 8.05768 0.899486
1.25246 0 5.65891
4.2364 0.767865 1.13061
6.64624 3.4465 6.41618
0.576154 0.284031 8.43503
0.252289 5.27683 5.72924
0 0.594479 5.94056
6.75807 9.06288 3.98399
7.8287 4.51152 7.30938
7.10682 7.40877 0.911491
6.93154 0.152273 8.23485
5.59223 5.84699 4.64921
5.47651 8.98189 7.87816
3.55758 0.244953 0.960249
5.28028 2.33143 0.991215
5.35936 8.64633 3.85843
2.59228 1.512 2.61208
8.32308 5.70739 1.5875
6.91033 8.73702 4.70086
7.66994 9.0506 6.0177
2.30147 8.36973 1.36974
2.67914 1.33635 2.22594
5.09449 8.69435 8.36169
5.05815 5.68808 4.31044
0.188529 1.40133 8.51564
4.25677 6.92884 9.52624
9.84202 4.1 6.93081
9.19493 7.58997 3.0714
3.46645 0.476143 1.92958
4.83624 1.80072 9.18768
8.1131 2.88825 0.413708
0.401078 0.660278 6.52175
4.33094 0.563212 1.39709
8.89872 2.03836 1.63492
8.6295 0.797523 0.629922
8.33446 9.65122 0.593763
0.476616 1.67828 8.43037
0.460503 3.76315 9.91291
3.69872 0.371523 2.0841
4.21454 2.19556 7.25475
0.383689 4.99214 4.0176
3.54905 0.555769 2.03723
0.061681 0.237414 1.96243
9.65257 0.877764 5.80514
8.72915 5.6232 0
5.8125 5.64783 4.22865
1.58048 6.61253 5.8962
4.81403 6.27588 9.70369
1.28338 5.44512 8.89078
4.26105 5.33917 1.85492
3.43631 3.7457 3.47282
1.70328 6.66987 5.30191
1.81742 9.4512 2.80056
7.49077 7.48374 1.03198
3.85849 6.1752 0.903901
9.83494 8.00151 4.36784
3.92496 4.86285 8.38373
5.10362 7.79151 1.51138
3.20543 0.329131 2.39546
4.31515 4.50204 6.37403
1.30607 6.84986 2.97029
7.46426 3.15779 8.52039
1.24758 6.53827 6.11469
2.71561 3.11855 0.684205
5.54158 8.37949 5.86948
6.29399 9.25328 3.0325
3.75925 6.04575 3.24762
3.64225 3.50292 4.56979
3.73787 0.320562 2.45199
6.67578 4.41678 5.15915
4.63022 8.78673 9.57758
2.32227 3.49244 3.77726
6.87872 6.54854 1.53462
0.132215 6.31968 4.77784
3.6955 0.512388 2.37073
7.42135 4.46639 4.75959
4.42691 0.307729 2.33584
4.0465 0.456091 1.0831
3.60413 0.584588 1.89475
3.42023 0.198657 2.17647
10 2.06865 3.86208
9.67438 3.06545 8.87391
8.20762 10 8.17111
5.12232 3.05465 0.644793
1.99281 6.52035 9.66506
2.93382 3.33415 0.707737
3.90972 0.392377 6.56022
3.35995 0.165369 1.99003
3.72313 0.392024 2.60618
6.17724 10 0.230772
2.05211 5.52775 2.84851
8.40218 5.31259 2.57216
10 6.81841 8.90792
5.2956 0.511273 5.81134
4.70155 0.514542 2.99658
9.87207 2.74059 9.76085
5.93874 0.31271 9.24848
2.75492 4.5452 1.9034
3.82085 0.404753 2.25969
3.49162 0.237636 2.34951
1.52022 3.29239 7.01461
8.79576 2.08315 2.35886
0.851846 2.69662 1.85454
4.10414 1.006 8.702
3.23451 0.627826 2.38635
1.38492 0.768654 4.65982
1.36109 4.35427 5.39555
5.51269 6.58017 6.66028
6.4893 6.70964 0.816822
9.36762 2.85669 4.40131
9.68447 0.590714 0.0731975
3.00224 0.305671 2.69345
8.37829 0.0873629 0.850689
1.15059 6.42011 5.24799
9.5858 4.57886 6.76247
4.08401 0.443432 2.74488
3.1455 0.523848 2.5666
2.82094 9.41131 4.00187
8.08677 6.35244 4.46686
3.72966 7.10745 6.50807
9.00268 1.25749 4.38843
3.24147 0.27048 2.77575
0.51649 0 8.29087
8.49203 3.00975 3.97517
9.18113 2.48357 6.03979
3.4043 1.57566 8.85567
3.55645 0.426733 1.79609
4.12444 9.43931 9.38421
3.63368 0.357765 2.28613
4.19361 0.229999 2.58614
2.42323 0.449335 3.22758
3.23228 0.677717 2.84713
2.29995 3.32103 4.67385
5.29023 8.51273 4.14374
1.00145 0.696972 6.92932
9.7973 0.262045 5.37812
1.8454 2.06574 1.17587
7.50128 6.92463 2.71606
3.8918 0.22992 2.05435
6.52574 9.9295 1.52418
3.87032 0 8.59011
9.01125 3.58521 3.21241
2.24008 3.69206 2.7081
2.28708 0.355967 3.60491
2.24495 2.14766 6.83456
0.297381 0.168527 8.60555
6.19114 5.60353 2.91657
0.640634 0.0616869 8.3828
3.53819 0.515221 1.86002
7.51727 0.938634 9.09581
4.92112 1.74284 5.78687
0.0155376 0.261585 2.93997
0.371846 0.683916 4.17626
2.50388 2.79853 8.57273
4.52373 0.846765 4.56804
0.752578 0.133857 8.3908
0.192128 10 0.466495
3.86406 0.27885 2.66725
2.93058 0.662363 2.3907
3.0524 9.34575 7.8117
9.166 1.89663 5.62416
5.08884 6.89428 4.63853
4.54997 0.609227 4.51839
0.411314 0.881929 6.69118
8.53645 5.74987 5.45384
1.34047 1.28752 6.16027
2.83722 0 9.54554
3.38349 0.429312 2.28752
1.45346 1.6631 9.72326
8.00084 0.695688 0.477589
8.791 4.84852 4.27651
4.59977 0.849216 2.47786
4.63593 0.967243 7.90324
9.65795 9.49634 2.87405
3.40377 0.464571 1.99662
3.9517 0 4.21612
0.675812 5.01266 4.73704
6.17373 9.97224 1.2543
7.0076 5.281 6.99047
2.58707 7.12676 5.78345
3.39885 0.272123 2.75713
1.65418 4.87667 3.1252
5.26187 1.98525 9.16796
0.894961 0.237682 8.31541
3.14086 0.491415 2.36633
3.5992 0.173321 2.42986
2.70238 0.238561 3.26293
3.35792 0.441332 2.4679
8.20838 5.83471 0.645324
9.75006 1.05975 0
3.46795 0.794477 0
3.17136 7.17651 7.90879
3.60367 0.00593957 2.17344
8.23464 1.841 8.93367
3.24539 0.351395 2.37117
3.14963 0.0375659 2.31777
1.1043 3.11812 6.696
8.30301 5.65908 5.09696
0.855771 4.41595 1.94239
7.65332 0.321267 3.48373
5.29744 8.28382 2.23258
3.53939 0.579055 1.93941
3.2113 9.76701 6.60383
4.38845 5.90237 1.71794
3.40796 0.493572 0.68539
0.132558 1.09602 1.66616
3.00097 4.58038 5.59705
7.55542 8.80209 4.31852
0.170115 0.310098 8.91547
6.64287 6.71997 8.59145
0.617947 0.0754373 8.65642
3.94915 0.384796 2.07507
0.126733 0.458626 9.32116
2.72246 0.848643 0.67888
3.6767 0.131949 2.69044
6.0738 2.99203 2.05203
7.45581 7.36076 9.41833
3.5009 0.33098 2.18236
4.69116 7.97472 1.40329
3.84291 0.274677 2.21437
1.497 1.90316 9.263
2.69048 0.13737 3.50785
8.05928 0.850882 0.420374
5.97996 0.984416 9.4313
4.97431 5.9784 5.97291
3.59994 0.403842 2.13282
1.72389 1.84785 9.27647
3.06565 3.90485 3.70512
3.80324 4.66475 1.76985
9.50949 8.53462 1.96593
1.69995 1.81167 9.37484
0.52129 0.0734465 8.29897
3.29265 0.261587 1.9338
3.01096 0.0886966 1.55097
7.81802 0.30651 0.226543
3.56176 0.426194 2.16679
3.55389 0.530978 2.05075
7.88232 7.07008 1.12982
3.47 0.403656 2.61663
3.29949 0.628857 2.02156
1.35276 7.08624 2.7298
3.19403 2.65596 2.63511
3.23384 0.402452 1.78095
3.60308 0.563097 1.61012
3.18948 0.358129 0.368397
1.43256 1.56007 9.12541
4.11726 0.151245 1.77579
3.22676 0.251596 2.57173
8.12094 0.460051 0.50206
0.567185 0.235073 8.38218
0.35302 0.167108 8.30736
3.33722 0.0754981 1.4189
3.52957 0.243323 2.45203
7.882 0.336211 0.675538
0.895098 0.228075 9.0168
8.39532 2.42412 3.20805
0.299541 0.275526 8.4738
9.53891 3.05231 3.38649
7.97522 0.985011 0.477047
3.44257 0 9.19842
3.74032 0.760465 8.45604
3.69972 0.256173 2.202
3.65659 0.429968 1.70119
7.85573 0.897852 0.313204
0.677616 0.0985189 8.65346
0.68813 0.55463 8.91304
3.64008 0.41518 8.43042
3.77323 0.396287 2.04141
3.39402 0.342024 2.22484
3.45861 0.561755 2.34148
3.7502 0.556062 8.56433
3.75823 0.354923 2.48346
9.40289 0.626037 0.118617
0.20072 0.024853 8.01124
3.23457 0.336762 1.93826
3.47257 0.348528 2.38832
9.37147 2.49079 9.27914
8.65094 0.367462 6.38199
3.31879 0.222823 2.8777
3.2356 0.695855 2.48266
0.929452 0.102978 8.38887
3.06835 0.575688 2.22282
3.3871 0.76251 0.588284
0.561265 0.338813 8.50254
3.27341 0.220427 1.85412
0.290542 0.353821 4.12357
5.52212 0.0914728 4.26578
7.93344 1.00613 0.287261
POINT_DATA 400
SCALARS particleColor float 3
LOOKUP_TABLE default
1 0.714588 0
0 0.302502 1
1 5.96046e-08 0
1 0.134724 0
1 0.909483 0
0.0506551 1 0.949345
0.931871 1 0.068129
1 5.96046e-08 0
0.0544797 1 0.94552
1 5.96046e-08 0
0.28059 1 0.71941
0.996636 1 0.00336421
1 5.96046e-08 0
1 0.581863 0
1 5.96046e-08 0
0.866422 1 0.133578
1 0.391243 0
0 0.476509 1
0.578729 1 0.421271
1 0.918474 0
0 0.33008 1
1 5.96046e-08 0
1 5.96046e-08 0
0.989847 1 0.010153
1 5.96046e-08 0
0 0.215778 1
0.824091 1 0.175909
0.101728 1 0.898272
1 0.69353 0
1 0.767572 0
1 0.541516 0
0.519541 1 0.480459
1 5.96046e-08 0
0 0.403791 1
1 0.415808 0
1 5.96046e-08 0
0.536562 1 0.463438
0 0.866595 1
1 5.96046e-08 0
1 5.96046e-08 0
0.828163 1 0.171837
1 5.96046e-08 0
1 5.96046e-08 0
1 0.891097 0
0.56325 1 0.43675
1 5.96046e-08 0
1 5.96046e-08 0
1 5.96046e-08 0
1 0.626244 0
0.354052 1 0.645948
1 5.96046e-08 0
1 0.891153 0
1 5.96046e-08 0
0.944587 1 0.055413
1 0.74876 0
0.224184 1 0.775816
0 0.890464 1
0.383531 1 0.616469
1 5.96046e-08 0
1 5.96046e-08 0
1 5.96046e-08 0
1 0.63099 0
0.247118 1 0.752882
1 5.96046e-08 0
0 0.926249 1
1 5.96046e-08 0
1 5.96046e-08 0
1 0.639097 0
1 0.6387 0
0 0.496735 1
0.82647 1 0.17353
0.937365 1 0.0626345
1 5.96046e-08 0
0 0.747859 1
0.596434 1 0.403566
1 5.96046e-08 0
0.827014 1 0.172986
1 5.96046e-08 0
0.251354 1 0.748646
0.102757 1 0.897243
0 0.396517 1
1 0.892263 0
0 0.917794 1
1 5.96046e-08 0
1 0.874031 0
1 0.573369 0
1 0.84903 0
1 5.96046e-08 0
0.912814 1 0.0871864
0 0.923353 1
0 0.0663077 1
1 0.883323 0
1 5.96046e-08 0
1 5.96046e-08 0
0 0.854707 1
1 0.633012 0
1 5.96046e-08 0
1 0.954251 0
1 0.600173 0
0 0.76183 1
0.0603361 1 0.939664
1 0.871666 0
0.719909 1 0.280091
0.491638 1 0.508362
1 5.96046e-08 0
1 0.306736 0
0.99252 1 0.00747967
0.513248 1 0.486752
1 0.794627 0
1 5.96046e-08 0
0.548465 1 0.451535
1 0.92375 0
1 0.554745 0
1 5.96046e-08 0
0 0.803475 1
1 0.206309 0
0 0.428098 1
1 5.96046e-08 0
1 0.452776 0
0.903291 1 0.0967094
1 5.96046e-08 0
0.149806 1 0.850194
1 5.96046e-08 0
1 5.96046e-08 0
0.966658 1 0.0333423
0 0.340351 1
0 0.924408 1
0 0.928057 1
0.287597 1 0.712403
0.99336 1 0.00663996
0 0.367731 1
0.728622 1 0.271378
1 5.96046e-08 0
0.464686 1 0.535314
0.783357 1 0.216643
1 0.488988 0
0.613938 1 0.386062
1 5.96046e-08 0
0.953051 1 0.0469488
0.138391 1 0.861609
0 0.659928 1
1 5.96046e-08 0
1 5.96046e-08 0
1 5.96046e-08 0
0.135847 1 0.864153
0.669975 1 0.330025
1 0.66372 0
0.505854 1 0.494146
0.56135 1 0.43865
1 5.96046e-08 0
0 0.916502 1
1 5.96046e-08 0
1 5.96046e-08 0
0 0.799026 1
1 5.96046e-08 0
1 5.96046e-08 0
0.228844 1 0.771156
1 0.473148 0
1 5.96046e-08 0
1 5.96046e-08 0
1 5.96046e-08 0
0.0681052 1 0.931895
1 0.716401 0
0.947296 1 0.0527037
0.677595 1 0.322405
0.684679 1 0.315321
1 0.0870615 0
0.747822 1 0.252178
1 5.96046e-08 0
0.671936 1 0.328064
0 0.742222 1
1 5.96046e-08 0
0 0.52124 1
1 0.375892 0
0.268357 1 0.731643
1 0.668212 0
1 5.96046e-08 0
1 0.601968 0
1 0.777292 0
1 0.464244 0
0 0.690226 1
1 5.96046e-08 0
0.578187 1 0.421813
1 5.96046e-08 0
1 5.96046e-08 0
0.774359 1 0.225641
0 0.611084 1
1 5.96046e-08 0
0 0.352776 1
0 0.224772 1
0 0.596445 1
0.0168015 1 0.983199
0.569266 1 0.430734
0.919856 1 0.0801444
0.931718 1 0.0682817
0 0.272575 1
1 0.825747 0
1 0.223196 0
0.710783 1 0.289217
0 0.78233 1
0 0.412685 1
1 5.96046e-08 0
1 5.96046e-08 0
0 0.704606 1
1 0.00943023 0
1 5.96046e-08 0
0.448815 1 0.551185
1 5.96046e-08 0
0 0.20772 1
1 5.96046e-08 0
0 0.747054 1
0 0.476388 1
1 0.184285 0
1 0.634936 0
0.672827 1 0.327173
0 0.983725 1
0 0.654519 1
0.786145 1 0.213855
0 0.629261 1
1 5.96046e-08 0
1 0.472238 0
1 0.238707 0
0 0.790492 1
0 0.89229 1
1 0.433541 0
1 5.96046e-08 0
0 0.455392 1
0 0.585497 1
0 0.311136 1
1 5.96046e-08 0
1 0.66299 0
1 5.96046e-08 0
1 5.96046e-08 0
0 0.697732 1
0 0.671042 1
0.241023 1 0.758977
1 5.96046e-08 0
0.132471 1 0.867529
0 0.595966 1
1 0.116903 0
0 0.769167 1
0 0.847543 1
0.148436 1 0.851564
0 0.506628 1
1 5.96046e-08 0
0.471451 1 0.528549
1 5.96046e-08 0
1 0.922243 0
1 0.52229 0
1 0.4285 0
0 0.772748 1
0.370391 1 0.629609
1 5.96046e-08 0
0.940518 1 0.0594818
1 0.363269 0
0 0.989891 1
1 5.96046e-08 0
0 0.380917 1
1 5.96046e-08 0
0 0.578352 1
0.0826966 1 0.917303
0 0.891687 1
0.0781775 1 0.921823
0.34644 1 0.65356
0 0.627372 1
1 5.96046e-08 0
0 0.924735 1
0 0.731228 1
0.557395 1 0.442605
0 0.605334 1
0 0.668475 1
1 5.96046e-08 0
1 5.96046e-08 0
1 5.96046e-08 0
0 0.453272 1
0.527094 1 0.472906
0.18417 1 0.81583
1 5.96046e-08 0
1 0.897594 0
0 0.437472 1
0.199065 1 0.800935
0 0.472999 1
1 5.96046e-08 0
0.348912 1 0.651088
1 0.810312 0
1 0.184746 0
0 0.720436 1
0 0.408923 1
1 5.96046e-08 0
1 5.96046e-08 0
0.47059 1 0.52941
1 0.555859 0
0 0.892505 1
0.0687636 1 0.931236
0.609879 1 0.390121
0 0.348494 1
0 0.445321 1
0 0.373793 1
0.0926663 1 0.907334
0 0.215655 1
1 5.96046e-08 0
0.651605 1 0.348395
0.0695757 1 0.930424
0.437675 1 0.562325
0 0.414055 1
1 5.96046e-08 0
0 0.652397 1
0 0.376647 1
1 0.625115 0
0 0.598309 1
1 5.96046e-08 0
0.968697 1 0.0313026
0 0.675645 1
0 0.378635 1
1 0.0950621 0
0.555201 1 0.444799
0.275685 1 0.724315
1 5.96046e-08 0
1 5.96046e-08 0
0.909547 1 0.0904533
0 0.960316 1
0.356339 1 0.643661
0 0.581578 1
0 0.769676 1
0 0.462185 1
0.915596 1 0.0844042
0 0.455943 1
1 5.96046e-08 0
1 0.965298 0
0 0.608934 1
1 5.96046e-08 0
0.384701 1 0.615299
0 0.751073 1
0 0.582165 1
0 0.6777 1
1 5.96046e-08 0
0.664391 1 0.335609
0 0.533503 1
0.910942 1 0.0890582
1 5.96046e-08 0
1 0.00456089 0
0.58788 1 0.41212
0 0.347247 1
0 0.602089 1
0 0.440807 1
0 0.413993 1
0 0.699218 1
0.0203903 1 0.97961
0.168979 1 0.831021
1 0.173801 0
0 0.924708 1
0 0.139633 1
0.236979 1 0.763021
1 0.540142 0
0 0.986436 1
0 0.263187 1
0 0.272848 1
0.346651 1 0.653349
0 0.42475 1
0 0.432263 1
0 0.432298 1
0 0.530731 1
0 0.40951 1
0 0.543246 1
0.0391353 1 0.960865
0 0.685752 1
0 0.283122 1
0.991607 1 0.00839305
0 0.565177 1
1 5.96046e-08 0
0 0.844387 1
0 0.896597 1
0.838261 1 0.161739
0.0811042 1 0.918896
0 0.571886 1
0 0.358109 1
0 0.611609 1
0 0.606765 1
0 0.605717 1
0 0.848122 1
0 0.878548 1
0 0.386315 1
0 0.666053 1
0 0.991246 1
0.293188 1 0.706812
0 0.57078 1
0 0.311602 1
0 0.728849 1
1 0.310095 0
0 0.593021 1
0 0.600625 1
0 0.527924 1
0 0.78853 1
0 0.31665 1
0 0.790445 1
0 0.574183 1
0 0.225054 1
1 0.968815 0
0.933447 1 0.0665526
0 0.592528 1
