# vtk DataFile Version 3.0
Particle simulation
ASCII
DATASET POLYDATA
POINTS 400 float
1.08025 0.291521 1.64727
1.41288 1.47087 2.08718
0.886081 0.809308 0.9685
2.19918 0.555065 0.656917
9.62982 0.621917 3.78182
1.33224 9.44238 4.6905
9.7347 3.74695 0.0313895
2.08196 4.75016 2.98927
6.08295 1.97055 2.46625
9.98956 0.353202 2.46787
2.2171 0.728671 0.708873
2.55588 0.305546 3.01854
1.30855 0.513511 0.976211
2.14271 0.450676 0.567186
9.77231 0.34749 3.80431
5.52225 5.58987 8.57726
4.87752 2.18413 1.05417
2.15914 0.321312 2.56674
7.20734 0.823941 1.61827
9.95799 0.412754 2.50856
1.22405 0.643565 1.73111
9.52837 1.13633 7.08761
2.25741 2.42181 7.37518
9.69308 0.689 2.35152
3.88246 2.59694 7.42909
1.05578 0.335751 1.5459
8.15061 0.6323 7.06749
1.27932 1.27469 2.51394
4.19285 0.221285 4.18769
2.7943 0.300223 2.00779
7.29327 0.405528 1.63426
9.17551 0.365356 1.39483
7.62943 2.69293 9.95122
9.62934 0.675603 2.34785
1.3687 2.25745 2.44409
1.03228 0.341004 1.47966
5.84358 0.76108 8.0498
1.84819 0.811975 2.1041
5.15868 0.409981 2.22527
2.28927 0.924025 2.70917
0.538939 1.1924 1.16207
6.30523 1.97706 2.44863
5.22463 1.50255 3.29994
8.92205 0 3.23697
7.10513 0.513344 8.44386
5.08813 0.450124 1.72715
5.6729 0.376948 3.8491
2.40611 0.796845 1.09699
4.80075 0.321678 2.0274
7.16174 1.30597 1.5618
0.433811 1.12012 0.748846
6.28175 2.039 2.42898
3.98765 0.575693 4.40316
9.33136 0.0942147 2.84616
7.11721 0.495558 8.45795
5.07185 0.482354 1.75593
3.70141 0.419117 7.33647
1.76401 0.758546 1.25413
4.76509 0.321406 2.01969
4.75294 0.314313 9.28168
5.24224 0.106476 3.6389
5.01438 0.47621 3.75363
4.35609 0.177424 8.97933
9.96948 0.752075 2.54411
6.47817 0.833382 8.11535
6.18377 1.21371 9.25306
4.27723 0.0843791 3.88425
0.288276 1.12923 0.801367
4.63502 0.412059 1.8292
3.9511 0.735281 6.9777
4.97638 0.279776 3.94155
0.896453 1.28359 3.06847
4.80763 0.895815 6.98166
9.99291 0.750747 2.54816
6.74234 0.648598 8.05935
4.03045 0.178667 9.96957
4.29711 0.0921778 3.87721
3.12812 0.445943 6.907
4.68976 0.415162 1.91832
3.35555 0.273818 7.17768
2.52772 0.441459 2.12637
0.881905 1.23191 2.92743
1.84935 0.143349 2.98197
1.44632 0.624336 2.90288
4.90405 0.710941 6.80775
3.51572 0.654619 7.56669
4.92065 0.53453 6.23497
1.29473 0.778212 2.50741
5.30898 1.84106 3.87359
8.20928 0.353617 1.29399
2.66807 0.340329 2.37426
1.18618 0.489689 2.98934
4.43329 0.23612 4.12993
1.45538 0.603572 2.92032
4.83143 0.660672 6.82879
3.48607 0.622062 7.57806
4.04668 0.737944 6.84496
1.96136 1.2498 1.37878
2.71396 1.07503 9.89818
8.18502 0.383127 1.28636
1.65209 0.937853 2.69916
6.25276 0.0759858 3.27115
2.32194 0.433203 1.19995
7.13886 0.369268 1.72572
9.46028 0.531429 0.964799
1.7447 0.974878 1.26485
3.47718 0.750285 7.42684
5.09142 0.691169 1.94975
4.80162 0.314059 1.97715
8.34297 0.430064 1.49438
0.448653 1.13755 0.586936
9.57661 0.659163 2.37142
2.78395 0.484209 2.32921
7.98441 0.913734 0.865479
2.12386 0.196409 1.41154
2.07641 0.809252 1.51133
3.83967 0.447544 7.0579
4.59429 0.313904 1.70369
4.8369 0.327477 1.90887
1.46177 0.412855 2.18871
1.69118 0.725342 3.25621
4.94535 0.773015 2.68614
4.13522 0.209513 9.90464
4.00839 0.201559 3.99646
1.44674 0.719795 8.75636
2.03061 1.01278 3.04692
2.11984 0.43203 1.02809
9.83229 0.268168 2.54029
4.38271 2.72532 7.36665
1.66468 0.0689883 2.99747
1.68124 0.66684 3.23362
5.0625 0.577183 2.2793
5.26628 0.735669 6.81195
4.09313 0.101119 3.86228
4.20186 0.9157 7.14006
2.06161 1.05446 3.13275
9.02107 1.22239 9.94864
9.81277 0.278735 2.56314
3.69597 0.141181 7.31964
3.9232 0.724063 3.74004
2.49179 0.445349 2.04593
3.79917 0.869754 4.30293
1.85478 1.07031 3.52326
2.20464 0.972162 2.59855
2.22615 0.690196 2.24442
2.12822 0.459933 0.604192
7.26667 0.944055 7.94121
1.6837 0.670089 1.99418
2.47161 0.200572 1.84934
2.4827 0.790271 1.34496
2.49293 0.43714 2.04283
3.68003 0.805075 4.23886
3.22831 0.162314 2.0049
4.75999 0.219521 3.74568
2.39195 1.00427 0.947427
2.13233 0.421088 1.25153
7.24813 0.818542 8.10436
2.70193 0.230877 2.43204
3.87552 0.307865 4.39878
2.28247 0.54433 0.811393
1.87313 0.63686 0.607713
0.636946 1.02717 1.31413
4.88846 0.572737 6.21142
1.55462 0.615468 2.76863
0.441617 1.15591 0.737895
3.54464 0.525536 3.89604
3.67981 0.578748 7.34542
3.50315 0.398392 7.05428
7.04779 0.916528 8.79523
5.80328 0.730055 0.822589
1.78873 0.795475 0.545072
2.80521 0.943755 2.53607
4.96796 0.589708 6.55626
2.393 0.721512 2.74793
2.55079 0.0971483 2.3772
1.62387 0.672039 1.29761
3.44595 0.363922 7.15386
3.59218 0.457571 7.28023
3.71199 0.43511 7.20793
5.48109 0.453753 1.28886
1.70365 0.550025 2.04656
1.6794 0.675404 2.6823
5.83602 0.856571 8.27134
1.47933 1.94522 2.21764
4.33395 1.14125 6.90959
2.34045 0.405714 1.72525
2.52784 0.455993 1.67859
4.47079 0.068065 3.63038
1.79062 0.546404 2.14541
2.73063 0.212578 2.20543
1.71034 0.556567 2.03579
2.46302 0.048098 1.69988
5.02055 0.601445 6.73085
2.15521 1.68291 1.91087
3.29877 0.548165 7.06784
1.88301 0.844307 1.78957
2.65869 0.32148 1.68201
4.54286 3.08101 3.33437
1.69528 0.535071 2.58154
1.80205 0.752948 2.78971
2.81404 0.0424817 1.95078
5.00393 0.288846 1.78593
5.51521 0.298789 7.15828
3.74353 0.333594 3.9277
4.1891 0.111704 9.34253
3.765 0.504728 6.78744
2.13095 0.438535 1.3692
1.5364 0.455897 2.8715
1.99605 0.64729 1.45663
8.3498 0.480469 1.14283
2.52511 0.636146 2.03512
4.51171 0.0430285 1.96081
5.18849 0.617369 6.51486
4.35344 0.337344 3.86323
4.09699 0.226605 9.36971
3.7593 0.483472 6.8081
2.14731 0.416557 1.3933
1.59532 0.530857 2.21915
2.29293 0.788793 2.77769
8.26404 0.505387 1.24589
8.87492 1.40311 2.49609
1.03965 0.910373 8.88145
4.89273 0.547823 6.72248
2.6659 0.093848 1.8784
3.01769 0.798921 7.32845
1.48071 2.35436 2.26382
8.13064 1.44447 4.05775
2.80736 0.290493 1.93009
1.77069 0.310989 1.39222
4.26696 0.233283 4.01862
9.12923 0.341811 2.8567
4.04234 0.998347 6.89837
6.96937 0.636081 8.20494
2.64439 0.122661 1.90316
4.86577 0.484135 6.7182
1.75583 2.39766 2.10935
6.6304 0.489635 8.51505
0.928937 2.25423 2.24353
2.62924 0.198045 2.14987
1.48168 0.880991 2.31529
2.08202 0.651441 1.29115
1.59898 0.832181 2.93138
2.43051 0.522389 1.11236
2.17266 0.557901 2.48074
4.28299 0.464609 7.34364
3.41407 0.150073 1.72422
1.20062 0.577936 1.15488
3.21952 0.675108 7.56262
4.81038 0.330082 1.99371
3.82797 0.565405 6.79091
1.921 0.614233 1.42249
6.28871 2.10721 2.27524
3.84613 0.560385 7.40608
2.6378 0.391007 2.17104
7.11145 0.21516 8.76222
2.97169 0.335417 1.91164
8.29744 0.656285 1.1662
2.93233 0.369778 7.18713
4.80635 0.318543 1.97502
3.80087 0.546508 6.83832
3.14585 0.141885 2.05554
5.80238 1.60409 2.01911
4.7228 0.287568 3.35153
9.74353 0.565451 2.59568
4.28508 0.171799 9.34521
2.03091 0.559471 2.07979
9.21203 0.57272 1.32753
3.42373 0.476122 6.61178
7.43225 0.614105 8.33369
2.52207 0.11528 1.77597
3.08334 0.300357 2.09394
5.67596 1.62168 2.07858
1.61222 1.9041 2.41596
9.0638 0.476165 2.97659
4.2045 0.738787 7.33633
5.34246 0.686732 7.00435
9.475 0.277171 2.87365
9.41497 1.99203 8.93936
7.36678 0.70087 8.32991
2.12277 0.273643 2.02728
7.30848 0.355461 0.925088
4.83754 0.633349 1.63462
4.89348 0.600369 2.26209
9.68209 0.410268 2.37312
6.08276 0.581738 7.72137
6.01136 0.562263 7.97604
1.65178 1.08691 1.87221
2.8778 0.751643 1.46669
4.14593 0 4.17594
5.83015 0.327471 7.66152
7.13151 0.331322 0.94287
4.88207 0.596118 1.67725
1.99992 0.893682 1.48788
9.65342 0.362344 2.36367
3.65869 0.681023 6.66278
3.54667 0.0116725 6.48684
1.8093 0.475081 0.761885
1.47178 2.24396 2.38098
1.83113 1.05936 3.08777
1.45166 0.680366 1.05331
7.4319 0.584321 0.856952
3.81503 0.341112 4.08172
2.00503 1.27117 2.73237
4.84999 0.422448 2.43765
2.30346 0.554458 1.24606
5.01134 0.215658 1.71175
2.03807 0.529669 1.6067
2.57285 0.318495 1.79422
2.93761 0.382964 1.56391
1.27426 0.749435 2.38711
9.15582 0.540667 2.8233
3.9965 0.314788 4.27224
7.16335 0.758211 8.64683
1.90107 0.613642 2.31128
2.26754 0.675792 1.2679
8.87272 0.664025 1.0042
2.12 0.613103 1.08704
3.77603 0.698171 4.65723
4.57873 0.509084 1.70058
2.22411 0.533969 1.29643
3.75193 0.641067 4.08295
2.00224 0.185236 3.05883
3.52762 0.332864 6.85719
2.67524 0.611509 2.4408
8.279 0.463419 1.16998
8.24895 0.683265 1.16022
1.84173 1.04357 1.02591
4.86951 0.328146 1.60609
8.18474 0.451063 0.990714
1.84224 0.495319 1.94956
3.81771 0.671845 4.26116
2.3056 0.283996 2.02926
3.74717 0.504571 7.1286
2.65833 0.613879 2.41893
8.10632 0.561236 1.03028
4.10106 0.305542 4.35164
1.94084 0.948984 1.01444
2.31314 0.353976 1.46437
8.04965 0.624577 1.01305
1.70851 0.340446 1.56185
4.5624 0.0257351 4.32789
2.38351 0.344261 1.99846
4.9255 0.621219 6.90686
3.86089 0.26788 3.84575
2.07785 0.650957 1.76891
1.87297 0.557328 0.99763
4.98407 0.225648 1.64223
1.09844 0.694719 1.39552
1.87086 0.535675 0.898627
2.55984 0.555422 0.835387
2.86673 0.568344 2.35858
2.2716 0.543659 1.91002
4.94508 0.862816 6.91311
3.86307 0.273099 3.8297
2.133 0.729612 1.56793
2.25032 0.837895 1.53813
5.05431 0.456594 1.80033
3.16889 0.19409 6.66834
2.02855 0.476536 0.983948
2.0176 0.82938 0.576643
5.20778 0.340627 1.51666
4.42342 0.0333788 3.87971
5.38266 0.807252 7.06663
2.05617 0.969149 1.00328
1.53933 0.952572 1.26767
7.05407 0.591241 8.4106
3.95905 0.632346 7.22231
3.74764 0.568973 6.96139
3.48795 0.263024 6.98078
1.77235 0.719746 0.452733
5.22451 0.330691 1.52515
4.46788 0 3.84904
5.02392 0.595327 6.86346
1.87323 0.76508 1.18095
2.72347 0.312207 2.20183
6.91153 0.390124 8.5064
3.91717 0.645418 7.23927
3.74683 0.313782 7.26477
3.244 0.550628 7.36904
0.994004 0.298513 1.52756
2.09443 0.558211 1.09792
2.58718 0.383345 2.18197
3.40615 0.82456 7.48668
2.78943 0.283605 2.21052
9.67889 0.55426 2.62419
5.10327 0.314397 6.50428
2.93733 0.379026 1.5722
2.85398 0.216216 1.91115
9.19689 0.0914207 2.87494
5.01546 0.41198 1.79201
2.0845 0.590667 1.04455
2.57702 0.441292 2.08274
3.46431 0.738817 7.45353
2.58457 0.511071 2.19865
9.66357 0.516383 2.60402
5.24178 0.81407 6.8782
2.8785 0.369282 1.551
2.53608 0.363929 1.29678
7.95719 0.395389 1.28392
5.00114 0.401287 1.83111
POINT_DATA 400
SCALARS particleColor float 3
LOOKUP_TABLE default
0.12876 1 0.87124
0 0.54256 1
0 0.974242 1
0 0.395508 1
0 0.703131 1
1 0.432518 0
0 0.331937 1
0 0.133497 1
0 0.868956 1
0 0.449323 1
0 0.212849 1
0 0.429338 1
0 0.241231 1
0 0.509085 1
0 0.546823 1
0 0.524987 1
0 0.605524 1
0 0.799016 1
1 0.762331 0
0 0.536662 1
0 0.72794 1
0.0810899 1 0.91891
0 0.35025 1
0.0761404 1 0.92386
0 0.953638 1
0 0.779813 1
0 0.742047 1
0 0.581009 1
0 0.433342 1
0 0.780666 1
0.0821965 1 0.917803
0 0.599974 1
1 0.604586 0
0 0.895056 1
0 0.398629 1
0 0.660217 1
0 0.18642 1
0 0.289104 1
0 0.31937 1
0 0.936943 1
0 0.638527 1
0 0.978949 1
0 0.719154 1
0 0.348135 1
0 0.51234 1
0 0.46665 1
0 0.280733 1
0.0381136 1 0.961886
0 0.110696 1
0.759351 1 0.240649
0 0.458929 1
0.416394 1 0.583606
0 0.827044 1
0 0.505492 1
0 0.865868 1
0 0.322966 1
0 0.786616 1
0 0.389753 1
0 0.273669 1
0 0.254668 1
0 0.66235 1
0 0.297373 1
0 0.918449 1
0 0.747493 1
0 0.232503 1
0 0.571874 1
0 0.955057 1
0.247993 1 0.752007
0 0.38459 1
0 0.563037 1
0 0.966589 1
0.110309 1 0.889691
0.0630876 1 0.936912
0 0.880684 1
0 0.87062 1
0 0.580805 1
0.024187 1 0.975813
0 0.710258 1
0 0.311318 1
0 0.696237 1
0 0.443054 1
0 0.448848 1
0 0.597703 1
0 0.283507 1
0 0.495954 1
0 0.330467 1
0 0.912508 1
0 0.567966 1
0.978622 1 0.0213775
0 0.21827 1
0 0.390512 1
0 0.694921 1
0.150682 1 0.849318
0 0.101724 1
0 0.445385 1
0 0.180611 1
0 0.503735 1
0 0.583022 1
0 0.74875 1
0 0.316678 1
0 0.434096 1
0 0.942507 1
0 0.621055 1
0 0.492388 1
0.11947 1 0.88053
0 0.404702 1
0 0.724689 1
0 0.412053 1
0 0.149466 1
0 0.433349 1
0 0.306522 1
0 0.68442 1
0 0.6425 1
0 0.410924 1
0 0.645568 1
0 0.225536 1
0 0.169295 1
0 0.859537 1
0 0.260557 1
0 0.669711 1
0 0.290198 1
0 0.720055 1
0 0.358799 1
0.0824852 1 0.917515
0.155838 1 0.844162
0 0.827087 1
0 0.744284 1
0 0.428653 1
0 0.768192 1
0 0.288944 1
0 0.313115 1
0 0.608237 1
0 0.585828 1
0 0.735648 1
0 0.31148 1
0 0.884444 1
0.470045 1 0.529955
0 0.460561 1
0 0.348992 1
0 0.931175 1
0 0.554539 1
0 0.324416 1
0 0.947728 1
0 0.703278 1
0 0.57943 1
0 0.598365 1
0 0.583719 1
0 0.581987 1
0 0.318275 1
0.294339 1 0.705661
0 0.532099 1
0 0.293207 1
0 0.348753 1
0 0.598009 1
0 0.537679 1
0 0.392294 1
0 0.571095 1
0 0.673212 1
0 0.565924 1
0 0.720823 1
0 0.489163 1
0 0.332598 1
0 0.863696 1
0.0968852 1 0.903115
0 0.390427 1
0 0.485433 1
0 0.312421 1
0 0.81532 1
0 0.548937 1
0 0.692119 1
0 0.767213 1
0 0.408877 1
0 0.494701 1
0 0.706192 1
0 0.208648 1
0.107494 1 0.892506
0 0.442172 1
0 0.291798 1
0.0119669 1 0.988033
0 0.566361 1
0 0.439175 1
0 0.805615 1
0 0.897048 1
0 0.762056 1
0 0.287585 1
0 0.844354 1
0 0.404577 1
0.199455 1 0.800545
0 0.375308 1
0 0.391784 1
0 0.431915 1
0 0.649669 1
0 0.560826 1
0 0.608155 1
0 0.218241 1
0 0.243986 1
0 0.557309 1
0 0.859379 1
0 0.300891 1
0 0.752974 1
0.119799 1 0.880201
0 0.682688 1
0 0.9237 1
0 0.655913 1
0.193367 1 0.806633
0 0.372953 1
0 0.505262 1
0 0.531674 1
0.0753489 1 0.924651
0 0.648455 1
0 0.184472 1
0 0.841707 1
0 0.820331 1
0 0.362669 1
0 0.593215 1
0 0.379522 1
0 0.497213 1
0 0.947481 1
0 0.62919 1
0 0.879276 1
0 0.595828 1
0.20259 1 0.79741
0 0.338379 1
0 0.28281 1
0 0.541217 1
0 0.54734 1
0.0808782 1 0.919122
0 0.626027 1
0 0.653055 1
0 0.622956 1
0 0.813102 1
0 0.94648 1
0.107016 1 0.892984
0 0.211294 1
0 0.569405 1
0 0.427071 1
0.184027 1 0.815973
0 0.402426 1
0.404247 1 0.595753
0 0.580997 1
0 0.558126 1
0 0.532789 1
0.00540379 1 0.994596
0 0.690939 1
0 0.757343 1
0 0.503793 1
0 0.505269 1
0 0.84424 1
0 0.745137 1
0 0.587946 1
0 0.797217 1
0 0.578987 1
0.125164 1 0.874836
0.16676 1 0.83324
0 0.548081 1
0 0.447563 1
0 0.964275 1
0 0.597361 1
0 0.758791 1
0 0.563269 1
0 0.605884 1
0.540502 1 0.459498
0 0.224685 1
0 0.334485 1
0 0.926033 1
0.225337 1 0.774663
0.251637 1 0.748363
0 0.561932 1
0.502557 1 0.497443
0.342712 1 0.657288
0 0.766256 1
0 0.519986 1
0 0.922073 1
0 0.424841 1
0 0.235871 1
0.0376242 1 0.962376
0 0.438818 1
0.382849 1 0.617151
0 0.654576 1
0 0.570628 1
0 0.544109 1
0 0.784818 1
0 0.760733 1
0 0.609514 1
0 0.469132 1
0.0591255 1 0.940874
0 0.779966 1
0 0.447761 1
0.0723002 1 0.9277
0 0.88875 1
0 0.338116 1
0 0.451431 1
0 0.393327 1
0 0.696916 1
0 0.99248 1
0 0.758382 1
0 0.674934 1
0 0.541981 1
0 0.27398 1
0 0.522761 1
0 0.352153 1
0 0.745788 1
0 0.707421 1
0 0.802056 1
0.043326 1 0.956674
0.190875 1 0.809125
0 0.352308 1
0.136608 1 0.863392
0 0.968415 1
0 0.874701 1
0 0.954778 1
0 0.83818 1
0 0.642868 1
0 0.978989 1
0 0.881778 1
0 0.910439 1
0 0.592721 1
0.219741 1 0.780259
0 0.506633 1
0.0706117 1 0.929388
0 0.925494 1
0 0.88139 1
0 0.897011 1
0 0.600857 1
0.187774 1 0.812226
0.0486644 1 0.951336
0 0.662032 1
0 0.872578 1
0 0.528379 1
0 0.530312 1
0.0751563 1 0.924844
0 0.61987 1
0.0758919 1 0.924108
0 0.491008 1
0 0.907001 1
0 0.663015 1
0 0.562393 1
0 0.841104 1
0 0.381891 1
0 0.856568 1
0 0.139821 1
0 0.512161 1
0.0529454 1 0.947055
0 0.500453 1
0 0.544612 1
0 0.783684 1
0 0.421881 1
0 0.251583 1
0 0.872226 1
0 0.5549 1
0 0.499372 1
0 0.363608 1
0 0.530045 1
0 0.401305 1
0 0.514638 1
0 0.898777 1
0 0.777129 1
0.129015 1 0.870985
0 0.616777 1
0.161123 1 0.838877
0 0.259871 1
0 0.589319 1
0 0.602449 1
0 0.441802 1
0 0.845524 1
0 0.638834 1
0 0.648987 1
0 0.486506 1
0 0.536577 1
0 0.972581 1
0 0.285216 1
0 0.409101 1
0 0.895832 1
0 0.402829 1
0.542554 1 0.457446
0 0.660732 1
0 0.556706 1
0 0.908995 1
0 0.584473 1
0 0.148271 1
0 0.876509 1
0 0.304256 1
0 0.55089 1
0 0.117091 1
0 0.941596 1
0 0.633992 1
0 0.880971 1
0 0.654284 1
0.519463 1 0.480537
0.115837 1 0.884163
0 0.912929 1
0 0.306268 1
0 0.532218 1
0 0.721242 1
0 0.982071 1
0 0.50135 1
0 0.919 1
0 0.319957 1
0 0.703561 1
0.133579 1 0.866421
