# vtk DataFile Version 3.0
Particle simulation
ASCII
DATASET POLYDATA
POINTS 400 float
3.50379 3.84124 4.16096
1.03621 4.89295 5.32389
5.25801 3.45575 3.25764
10 1.11022 9.64082
4.88236 2.9581 4.87928
8.80438 7.67293 10
8.22005 1.88826 6.54251
7.72564 3.12688 6.71259
5.78908 4.91182 6.74921
10 0.397109 4.22856
0.0626572 4.4731 1.37344
1.13263 5.05026 0.772747
7.66397 3.40016 7.18467
3.49645 3.09328 1.01711
2.73366 9.37213 3.14685
6.70003 2.23402 9.02866
0.762142 1.91131 8.22606
3.95086 0.516118 2.27809
9.39726 7.52772 2.21256
1.08067 3.00764 9.14299
3.82727 0.402053 2.36711
1.71185 4.98089 5.96549
3.38751 9.42093 9.10648
8.72247 5.42888 7.68118
3.72952 8.07815 1.13736
0.774503 0.93532 1.62642
3.55999 2.88661 7.09839
3.47403 2.04221 6.8676
6.52145 0.695796 4.88403
1.83301 1.68041 6.71088
6.38681 8.37154 5.88614
7.83421 4.3563 0.317893
2.47403 7.21927 0
7.23758 7.66777 7.8202
0.678768 0 1.58933
8.74353 0 4.20882
9.92352 1.16267 10
4.29753 0.463935 2.78375
1.3615 7.47756 3.10729
5.39611 4.87913 9.87111
7.17443 3.77918 1.04142
7.50825 8.232 0
2.03731 6.58342 9.25101
9.68868 4.21562 0.743062
6.83498 3.83814 6.12647
10 5.33062 5.20924
2.03594 7.2323 6.30102
0.316952 3.31375 5.12368
1.61329 5.43874 5.60947
7.72426 0 1.13646
0 7.96279 7.54729
8.99054 5.58486 8.19813
9.3873 7.40672 2.85171
9.2494 3.72126 3.56452
5.91757 4.72331 6.48733
0.929681 0.257051 8.06196
0.707201 6.59405 2.34262
3.81566 2.41265 6.657
4.16306 1.61394 9.79652
1.2382 6.09906 0.393163
1.78936 10 0.464021
0.858125 5.96438 4.9156
3.32625 0.162901 7.21452
0.0922913 6.75616 6.90791
3.59908 8.85645 9.22837
3.23374 6.88626 3.82365
4.04595 5.99108 5.01612
4.59429 1.19449 5.43798
0.895114 6.42617 1.38213
6.8707 0.648453 5.96767
6.15851 5.69807 6.53507
5.90783 6.10445 5.75185
4.38 9.4769 8.03986
8.26239 2.40223 4.16748
8.53422 0.084104 4.82258
3.22602 6.77545 7.70102
2.66056 6.16277 7.03939
5.39982 7.80528 2.23184
3.4648 7.37527 2.03596
8.89181 6.32347 8.63805
3.8691 0.649215 2.29989
6.24306 0.57591 0.561214
4.90248 0.0597219 8.99864
3.05581 7.17849 7.58144
4.9013 7.16054 1.07103
9.57176 2.59781 9.75238
9.41968 0.299032 4.70312
3.18158 8.56851 7.74263
3.52441 7.48658 4.04246
2.36568 2.93867 3.28971
3.28078 0.342671 2.77996
2.95823 4.63893 0.829347
0.866464 7.23429 8.9098
2.57947 6.68033 4.64877
6.68775 8.64106 6.65647
2.62762 7.76739 4.30668
8.46178 7.88603 10
8.55479 8.27033 5.09122
8.24825 3.94663 7.38749
3.8413 0.915096 5.59571
3.33535 1.85412 0.133994
7.71843 5.23163 4.71225
7.71239 5.64786 0.535667
5.34326 3.61646 8.07045
5.38387 1.24548 4.08776
2.21889 5.29316 8.41575
9.00533 2.43451 5.52264
1.00818 7.27002 9.89828
3.54557 0.0431834 5.4122
9.04812 5.81824 2.25625
7.1779 9.4109 6.14811
1.7907 9.8955 9.28011
0.843475 5.96971 2.56867
8.21926 5.33429 1.90769
4.09937 0.31489 2.32548
8.93474 0.528696 7.71845
0.274627 0.369445 8.34662
3.20811 10 0
0.483665 0.361196 0.613772
5.50054 6.88606 1.22171
8.97105 2.00611 1.18747
4.94848 8.35689 1.59318
3.2553 3.05705 5.59449
9.38321 1.17605 4.84305
5.64283 9.78327 6.15717
3.76073 0.97731 0.374315
7.04209 1.9008 0.780812
5.67117 8.11969 1.50898
3.1763 1.05415 4.02416
9.71691 6.55279 0.862688
8.15762 8.29967 9.0651
5.0827 8.15098 4.74641
8.41177 8.42763 4.78766
4.03478 2.72766 1.72183
6.0357 9.70236 6.43029
9.36897 7.06342 0
1.12185 2.65006 7.2832
4.64886 4.54923 4.65832
9.27368 7.6488 5.90097
8.99521 8.15761 2.784
3.85573 0.112024 1.90184
6.32334 7.05705 4.39217
7.13615 4.41492 5.27948
1.86023 9.6644 7.29152
4.23565 0.139691 1.65921
9.43594 2.62056 4.16999
10 3.26459 0.437009
9.86726 8.27056 1.04996
3.06493 1.94971 6.20074
5.59696 3.21579 8.966
3.87276 0.387311 2.18133
1.06743 5.83462 9.34761
3.26347 3.82512 5.19889
3.33479 0.226182 2.88897
0.241159 4.79977 5.49845
4.51009 3.99997 5.54917
9.93426 6.98277 0.946993
5.54504 9.91289 2.18559
5.41061 5.08635 1.90373
1.16631 6.37015 5.74874
6.85335 9.6966 3.874
3.83417 4.0078 2.56906
1.62492 5.0896 4.10506
2.33344 5.55227 4.675
2.54042 8.04664 2.28155
7.54215 5.26088 1.87239
0.280129 2.74569 3.45093
7.98975 6.52221 3.09778
0.263598 0 9.31376
6.47016 5.87962 1.78557
3.34681 0.476019 2.63105
0.245937 0 7.58809
1.99751 7.86468 3.40436
8.83509 5.57919 4.04053
0.0424145 8.20836 5.85569
0.375051 1.41541 5.22183
7.94011 9.45855 5.38544
7.71674 7.6222 8.06635
7.8927 5.61949 0.093536
5.59169 0.553492 1.77673
4.19872 0.47262 2.11229
7.17661 9.95019 9.01714
3.26147 8.99307 7.88257
3.9608 0.0514159 9.67556
7.76601 9.74705 0
0.676255 3.98094 3.78924
3.80056 0.344606 2.06645
2.22799 7.17741 0.00071317
4.25684 0.687805 3.13273
4.20209 0 2.23392
3.23021 0.1516 2.99252
3.15265 0.655829 3.25756
6.07597 0.505476 0.0735257
7.48378 3.32107 9.22371
8.71775 5.86782 8.63629
0.530504 6.70891 5.84486
0.77305 7.25914 8.34848
7.36687 2.02734 4.16686
2.35627 0.00407949 9.4558
3.35289 0.427878 3.15348
3.60853 0.19674 1.94952
9.63227 3.33365 9.3304
2.03107 5.43824 6.22356
7.14237 5.64533 3.01007
6.81754 4.62949 7.95825
2.35053 1.87904 0.528702
7.14065 0.694332 4.15609
7.72401 3.16281 9.8446
5.43168 1.05422 9.16684
1.63073 2.20726 2.47304
2.95121 0.198465 2.78766
3.5604 0.49635 2.25572
0.27498 0.741611 4.57716
5.34328 0.182373 4.2939
2.4744 3.84971 3.0268
4.53284 2.3942 9.09279
3.60978 0.276097 2.69813
2.1679 2.36229 3.38471
1.24206 4.415 6.24647
5.0598 2.92966 4.35411
9.57892 9.96386 0.384311
7.90194 6.39116 3.47007
7.92291 0.0525173 1.58032
3.42149 0.746941 3.16847
8.94043 3.29212 0.850914
4.67168 5.92844 0
9.96759 5.00648 7.76797
4.0458 0.202364 1.93441
4.0245 0.257949 2.07505
7.18091 9.58754 0.523409
8.73387 5.15001 6.15927
2.45013 6.73365 5.44321
3.22977 6.06459 9.63064
3.41283 0.267301 2.42006
0.33728 0.356683 8.63884
9.96456 2.20312 5.06743
6.6596 1.75562 7.91487
3.04209 0.496182 8.76428
3.44903 0.234573 2.91604
3.47375 9.29075 9.55476
3.86801 0.314164 2.16243
4.0285 0.66492 2.32439
4.65163 5.13098 10
3.84282 0.081675 1.83497
6.57551 1.37691 4.58864
5.36412 9.68159 1.48625
2.01658 2.82579 5.0674
9.08216 2.60554 9.98709
8.40508 6.43154 0.639008
3.20949 3.93626 2.33947
3.11297 0.295145 2.58415
2.53063 7.51214 1.32448
3.48319 7.89829 0.580677
9.21085 4.50712 0
1.08353 4.4145 6.66725
1.49357 0.532429 3.20614
1.17676 5.4746 10
0.241032 0.323957 8.5306
8.51188 4.01335 3.76936
0.4403 0.39896 8.71469
4.33196 0.107342 1.60077
9.8568 1.00019 9.44637
4.55435 2.12455 5.72359
0.112777 0.158154 6.32406
0.024127 0.17805 4.54613
3.67967 1.06572 0
2.53716 1.5804 3.55962
0.23133 0.47086 8.71076
1.29511 9.55319 3.11043
2.62713 0.542257 1.61199
3.95938 0.0102616 2.50278
1.37424 7.57889 8.60417
6.90062 2.88655 1.36006
0.416842 2.29343 5.04726
3.9241 0.933243 4.66242
2.59716 3.37779 4.68037
8.20385 4.41173 6.32348
4.36315 1.00495 0.776098
6.97284 1.36593 9.22818
3.66685 0.2613 2.19585
1.86921 2.43177 7.90213
8.28516 0.580248 0.583819
8.33604 9.68222 1.93406
2.08237 0.463297 1.56466
9.13282 0.00251423 7.21007
7.37134 9.79109 8.09573
3.51233 0.398935 2.12921
3.66793 1.05919 5.0304
4.07423 2.14479 10
5.05204 7.224 5.17839
8.45605 4.56107 5.58996
8.06191 6.93385 7.06759
3.3067 0.331134 2.55804
4.11974 8.83732 4.75702
5.13919 3.81037 8.32239
0.170594 0.461046 8.41405
3.93024 0.0344023 2.18943
3.35203 0.443759 1.93332
3.62104 0.644902 2.22152
3.8294 0.377498 2.12831
3.70064 0.527156 6.21815
8.36808 0.777697 0.644588
3.41034 1.03004 1.43556
3.67974 6.75207 5.21128
3.4127 0.741117 2.39238
7.62247 9.1792 0.584557
3.91437 0.268646 2.06933
3.89769 0.533497 2.23601
2.15125 0.75122 9.57792
7.94099 4.55719 6.35708
3.09336 9.13422 5.29752
3.93966 0.394814 5.15897
3.89721 8.62733 0.818348
3.61249 0.387263 2.67269
6.44115 7.5004 5.23049
3.29973 7.58392 3.97351
3.5596 0.931694 0.734089
8.96647 5.81151 0
5.2558 6.95416 5.30293
9.72031 8.27851 2.51771
0.637137 0.481562 8.47924
7.20164 8.80996 8.31171
0.0261443 0.437045 8.3021
3.45089 0.436745 2.37274
0.553304 0.0232757 7.60599
6.0127 0.530068 2.24669
3.27051 0.480575 1.6772
8.95111 2.02748 2.17866
6.00172 9.15546 10
3.35092 0.433502 2.5883
8.81522 0.512002 9.94094
2.6308 0.530226 1.73875
1.30358 0.906687 8.74051
1.3636 0.231994 3.36737
8.36883 0.602187 0.52192
0.669407 0.215142 9.34793
7.81027 6.15418 4.3134
3.45356 0.197331 2.51966
1.28319 1.51174 8.40387
9.22379 1.67744 7.22774
7.30121 9.32838 2.3241
9.09896 9.62383 2.80606
0.746766 2.34957 9.22063
0.347103 0.355199 8.66687
3.6968 0.168561 2.73412
4.06252 0.606952 3.00316
8.32071 0.867627 0.935452
3.70191 0.431845 2.45595
3.07266 0.0625594 1.90798
7.94428 4.86598 1.37862
3.40333 0.208613 2.47715
3.82465 0.314448 2.49016
1.76234 7.96004 3.22741
5.44444 5.79733 0.680347
3.90742 0.236106 2.4595
3.32398 0.332463 3.04448
3.56677 1.27862 0.743155
0.831519 2.35263 9.25251
2.97444 0.477805 2.86632
3.8554 0.505631 2.07937
8.13596 0.812901 0.391699
0.270364 0.336277 8.29879
0.202659 0.468954 8.67078
3.79667 0.492034 2.53994
3.96677 0.324953 2.07666
8.01437 0.947787 0.27883
0.0855818 0.459213 7.92101
5.64343 0.148922 2.39359
0.250309 0.284417 8.29402
2.10089 2.29733 8.63079
8.28528 0.182405 0.810803
2.98555 1.40351 8.06516
2.04736 0.405167 5.98932
3.47765 0.481306 2.34435
3.38773 0.0902116 3.04318
8.17683 0.34822 0.549735
0.0112162 0.0356612 8.39615
0.0754858 0.560833 8.26178
3.14392 1.11509 8.79505
3.17042 0.186415 2.6333
3.52542 0.595747 2.61686
3.67005 0.240582 2.26344
3.23767 1.21689 8.71529
3.5859 0.202726 2.06775
9.87367 2.0035 0.955985
0.462162 0.503341 8.73348
3.75478 0.22177 2.7449
3.44345 0.375577 2.40481
8.5665 5.91201 8.55393
6.75391 1.13682 8.1822
3.65355 0.35237 1.87305
3.9435 0.199701 2.16329
0.784312 0.551109 8.43711
3.97262 0.158531 2.25419
3.71928 0.772072 0.210168
0.22111 0.377538 8.65963
3.77236 0.263878 2.7506
0.207801 3.26969 1.19967
3.10616 0.696205 0.324135
8.58242 0.552639 0.585457
POINT_DATA 400
SCALARS particleColor float 3
LOOKUP_TABLE default
0.492205 1 0.507795
0 0.705908 1
1 5.96046e-08 0
1 0.406072 0
0.487324 1 0.512676
0.332047 1 0.667953
0.369842 1 0.630158
1 5.96046e-08 0
0.648561 1 0.351439
1 0.574456 0
0.31734 1 0.68266
0.504693 1 0.495307
1 5.96046e-08 0
1 0.594292 0
1 0.0389975 0
1 5.96046e-08 0
1 5.96046e-08 0
0 0.0771862 1
1 0.437962 0
1 0.619381 0
0 0.807514 1
1 5.96046e-08 0
1 5.96046e-08 0
1 5.96046e-08 0
0.221652 1 0.778348
1 5.96046e-08 0
0.493103 1 0.506897
0.338167 1 0.661833
0.450611 1 0.549389
1 0.551752 0
0.318598 1 0.681402
1 0.959141 0
1 5.96046e-08 0
1 5.96046e-08 0
0.818766 1 0.181234
1 5.96046e-08 0
1 5.96046e-08 0
0 0.575582 1
1 5.96046e-08 0
1 0.0128778 0
0.946654 1 0.0533462
1 0.667804 0
1 5.96046e-08 0
1 0.844154 0
0.21459 1 0.78541
1 5.96046e-08 0
0.952752 1 0.0472475
1 5.96046e-08 0
0.238001 1 0.761999
1 5.96046e-08 0
1 5.96046e-08 0
1 0.407228 0
1 5.96046e-08 0
1 0.94434 0
1 0.563558 0
0 0.777677 1
0.315206 1 0.684794
0.467063 1 0.532937
1 5.96046e-08 0
1 0.464268 0
1 0.975918 0
1 0.227687 0
0 0.587521 1
0.605606 1 0.394394
0.60688 1 0.39312
1 0.0316363 0
1 5.96046e-08 0
1 0.723642 0
1 0.765083 0
1 0.801846 0
1 0.799995 0
1 0.225103 0
1 0.120477 0
0.369833 1 0.630167
0 0.644297 1
1 0.136663 0
1 0.123492 0
1 5.96046e-08 0
0.776422 1 0.223578
1 0.34224 0
0 0.486233 1
1 5.96046e-08 0
0 0.859415 1
1 5.96046e-08 0
1 0.919836 0
1 0.938237 0
1 0.375748 0
1 0.482586 0
0.885417 1 0.114583
0.609219 1 0.390781
0 0.566403 1
1 0.756412 0
1 5.96046e-08 0
1 5.96046e-08 0
0.516444 1 0.483556
1 0.739108 0
1 0.590506 0
0.295769 1 0.704231
0.170259 1 0.829741
1 5.96046e-08 0
0 0.595055 1
0.747516 1 0.252484
0.559185 1 0.440815
1 5.96046e-08 0
1 5.96046e-08 0
1 0.748453 0
1 5.96046e-08 0
0 0.796633 1
0.995392 1 0.00460798
1 5.96046e-08 0
1 0.892322 0
0 0.866008 1
0.903518 1 0.096482
1 5.96046e-08 0
0 0.925872 1
0.615081 1 0.384919
0 0.189779 1
1 0.352877 0
1 0.21881 0
1 0.949429 0
1 5.96046e-08 0
0.45623 1 0.54377
1 0.5133 0
1 0.103186 0
0 0.83451 1
0.0990134 1 0.900987
0.34457 1 0.65543
1 5.96046e-08 0
0 0.59276 1
0.328241 1 0.671759
1 5.96046e-08 0
1 5.96046e-08 0
1 5.96046e-08 0
1 5.96046e-08 0
0.674333 1 0.325667
1 5.96046e-08 0
0 0.750555 1
1 5.96046e-08 0
1 0.907717 0
0 0.67933 1
0 0.602512 1
1 5.96046e-08 0
1 5.96046e-08 0
1 5.96046e-08 0
0 0.617742 1
0.545098 1 0.454902
0.993083 1 0.00691664
0.737118 1 0.262882
1 0.45535 0
1 5.96046e-08 0
0 0.70489 1
1 0.0268331 0
0.807533 1 0.192467
0 0.767749 1
1 0.201288 0
1 5.96046e-08 0
0.376021 1 0.623979
1 5.96046e-08 0
1 5.96046e-08 0
1 5.96046e-08 0
1 5.96046e-08 0
0 0.848377 1
1 0.547545 0
0.97684 1 0.0231599
1 0.807739 0
0.780794 1 0.219206
1 0.247818 0
0.96669 1 0.0333096
1 0.801283 0
0.440089 1 0.559911
0 0.549583 1
1 5.96046e-08 0
0 0.639381 1
1 0.198366 0
0 0.920588 1
1 5.96046e-08 0
1 5.96046e-08 0
1 0.415943 0
1 0.191571 0
1 5.96046e-08 0
0 0.345025 1
1 5.96046e-08 0
0.330762 1 0.669238
1 5.96046e-08 0
1 5.96046e-08 0
0.0221048 1 0.977895
0 0.615025 1
1 5.96046e-08 0
0 0.649498 1
0 0.831727 1
0 0.363643 1
0 0.386105 1
1 5.96046e-08 0
0.437278 1 0.562722
0.965785 1 0.0342154
1 5.96046e-08 0
1 5.96046e-08 0
1 5.96046e-08 0
0.668021 1 0.331979
0 0.443837 1
0 0.26608 1
1 5.96046e-08 0
0.562117 1 0.437883
0 0.687071 1
1 0.40943 0
1 5.96046e-08 0
0.544463 1 0.455537
0.796295 1 0.203705
0 0.58983 1
1 5.96046e-08 0
0 0.493165 1
0 0.365645 1
1 0.665326 0
1 0.98705 0
0 0.973354 1
0.355192 1 0.644808
0 0.750802 1
0.00993655 1 0.990063
0 0.623993 1
1 5.96046e-08 0
1 0.922885 0
1 0.430184 0
0.697832 1 0.302168
0 0.777369 1
1 0.501406 0
1 0.451634 0
0 0.619946 1
0 0.802906 1
0 0.387549 1
1 0.162365 0
0.699403 1 0.300597
0.361901 1 0.638099
1 5.96046e-08 0
0 0.71585 1
0 0.406088 1
0 0.278268 1
0.907998 1 0.0920017
0.137861 1 0.862139
0 0.721234 1
0.431704 1 0.568296
0 0.475372 1
0.0450665 1 0.954933
1 5.96046e-08 0
0 0.776305 1
1 0.145898 0
0.455536 1 0.544464
0.744877 1 0.255123
1 5.96046e-08 0
1 5.96046e-08 0
1 5.96046e-08 0
0 0.974606 1
1 5.96046e-08 0
1 5.96046e-08 0
0.73224 1 0.26776
1 0.834874 0
0.137024 1 0.862976
1 0.16003 0
0 0.72889 1
1 5.96046e-08 0
0 0.307326 1
0 0.965429 1
0.724935 1 0.275065
0.641428 1 0.358572
0.990445 1 0.0095548
0 0.680597 1
1 5.96046e-08 0
0.640202 1 0.359798
0 0.678051 1
0.336253 1 0.663747
0.173059 1 0.826941
0 0.658749 1
1 0.246081 0
1 5.96046e-08 0
1 5.96046e-08 0
0.0543946 1 0.945605
1 0.622332 0
0.328985 1 0.671015
1 0.20341 0
1 0.485225 0
0 0.179599 1
0 0.682228 1
0 0.690421 1
1 5.96046e-08 0
0.43916 1 0.56084
1 0.280363 0
1 0.0421979 0
0 0.737822 1
0.263391 1 0.736609
1 5.96046e-08 0
1 0.391811 0
0 0.467891 1
1 5.96046e-08 0
0 0.992873 1
1 0.385359 0
0.489789 1 0.510211
0 0.946675 1
0 0.320173 1
0 0.321731 1
0.256897 1 0.743103
0 0.511036 1
1 5.96046e-08 0
0.0294307 1 0.970569
0 0.374075 1
0.335656 1 0.664344
0 0.52576 1
1 5.96046e-08 0
0 0.824345 1
0 0.573312 1
0.874696 1 0.125304
0.398704 1 0.601296
1 5.96046e-08 0
1 0.753751 0
0.298105 1 0.701895
0 0.740982 1
1 5.96046e-08 0
0.528683 1 0.471317
0.210928 1 0.789072
1 5.96046e-08 0
1 5.96046e-08 0
0.362085 1 0.637915
0 0.847142 1
0 0.958092 1
0 0.992927 1
0 0.765655 1
0 0.93592 1
1 0.865012 0
0 0.34234 1
1 0.326811 0
0.492951 1 0.507049
0 0.101562 1
1 5.96046e-08 0
0 0.624857 1
0.539758 1 0.460242
0 0.363815 1
0 0.663939 1
1 0.147992 0
0.660453 1 0.339547
0 0.243647 1
0 0.539183 1
1 5.96046e-08 0
1 0.267524 0
0.0702067 1 0.929793
0 0.83053 1
0 0.16531 1
0 0.500535 1
0 0.854638 1
0 0.814471 1
0 0.800412 1
0 0.640627 1
0.880738 1 0.119262
0 0.774461 1
0 0.376472 1
0.213604 1 0.786396
1 0.525693 0
0.308321 1 0.691679
0 0.602901 1
0 0.213059 1
0 0.76287 1
0 0.640245 1
0 0.513343 1
0 0.712186 1
0 0.524112 1
0 0.282146 1
0.32738 1 0.67262
0 0.679132 1
0 0.264195 1
0 0.704894 1
1 0.8619 0
0 0.718488 1
1 5.96046e-08 0
0 0.687885 1
0 0.692534 1
0.677876 1 0.322124
0 0.780172 1
0 0.645444 1
0 0.305378 1
0 0.300835 1
0 0.784051 1
0 0.460982 1
0 0.414398 1
0 0.47747 1
0 0.457961 1
0 0.751418 1
0 0.5871 1
0 0.835945 1
0 0.669381 1
0 0.356819 1
0 0.345787 1
0.393564 1 0.606436
0.973525 1 0.0264746
0 0.947369 1
0 0.820482 1
0 0.503109 1
0 0.42387 1
0 0.272649 1
0 0.771786 1
0 0.590082 1
1 0.860358 0
1 0.520354 0
0 0.373994 1
