# vtk DataFile Version 3.0
Particle simulation
ASCII
DATASET POLYDATA
POINTS 400 float
5.09009 7.6273 1.60452
10 9.70991 1.58083
8.83676 3.504 7.46129
9.50985 1.93735 10
5.6172 8.43221 1.10048
7.90274 6.38261 2.1363
2.99789 5.31444 0.599183
4.49357 3.02799 3.93995
4.54236 7.28652 10
3.52757 3.57851 3.39859
0.356427 0.920147 4.31531
8.8037 5.02012 2.25366
4.35769 5.81678 8.60666
6.346 1.00096 3.0198
0 10 7.51957
2.75753 2.59789 2.54012
1.85451 5.97562 8.78208
9.70162 1.19149 6.3941
1.73001 8.46874 9.15339
8.05999 0.844743 1.95669
7.37745 2.3209 5.57392
4.22412 2.01533 5.20294
3.22198 8.00435 6.07726
8.90187 2.55038 4.27559
3.3988 6.44187 5.07164
7.69605 9.78549 7.51166
5.44565 5.13081 0
3.69073 9.61823 9.21836
2.77237 8.90422 8.32706
1.81618 3.00528 3.42325
3.44978 0.784403 2.93648
4.19772 1.13803 8.98465
9.89029 7.6398 9.00331
9.55922 2.49855 1.0425
2.01383 5.94178 6.08567
3.25432 9.6788 2.99998
4.9632 9.94416 6.9584
3.57696 6.90919 5.67321
9.2298 3.1838 1.37354
9.5852 3.76549 5.08943
8.28987 6.40714 7.50027
0.285629 6.54968 5.97461
2.4261 1.50062 0.0247096
8.33631 5.9815 7.51505
7.84326 4.95302 0.571731
4.92098 9.37141 9.36399
9.40659 3.45478 0.196599
5.62832 1.18337 6.27959
1.40431 0.469578 9.77573
7.24886 9.28262 7.40089
3.82149 1.7078 8.1824
3.45568 5.6553 0.752586
1.3687 1.00935 2.81088
0.817278 3.8196 4.84468
2.59615 5.16325 1.57554
3.93682 0.801513 4.43818
6.36651 7.47809 3.55148
5.59635 1.78009 6.6689
3.52703 0.789692 5.08637
8.23641 8.64692 8.38486
1.65008 8.06252 1.28565
4.74493 6.01465 5.11865
2.49215 7.2579 8.14143
9.88421 7.38314 3.7274
4.23581 10 7.60834
8.75021 4.03236 8.52235
6.67014 4.52059 3.08129
8.67931 3.13267 4.16587
3.11517 6.81887 0.865938
2.83679 0.236222 7.42681
9.73216 0 5.25472
10 3.66493 3.32826
0.800566 2.73462 0.432019
9.22191 2.36567 1.05349
8.26635 3.18187 8.81349
0.085426 4.98036 5.46637
5.13459 5.31645 7.67405
3.92863 5.95687 7.2002
4.46281 0 7.16589
8.89451 7.89931 4.64631
4.14976 6.15473 1.79911
0.202443 1.73542 7.95756
3.33042 7.01242 4.46135
0.604643 6.83621 4.98057
8.35197 6.72537 1.45714
0.926103 1.39438 2.52389
7.73793 0 9.78848
4.34905 1.52699 4.9246
1.7367 5.38864 4.31239
1.90112 7.45257 3.21254
3.6101 0.575488 8.98574
8.33432 2.35974 6.91687
6.68796 3.57183 8.63246
5.20029 2.77524 1.12271
8.12586 3.25999 2.4846
0.253921 8.56047 8.68555
3.5846 5.24527 7.94975
9.36492 1.69018 9.64803
1.39108 2.39709 6.81119
6.7708 2.1003 2.96639
2.04727 2.64536 5.06858
8.21212 3.84435 0.627175
0.979195 0.590499 8.13771
5.64651 5.51887 8.75371
3.61245 5.36887 1.23274
1.77544 8.52349 3.36835
1.83384 6.82313 1.1139
5.57135 5.88047 4.03633
6.37089 8.72154 4.90822
5.0509 8.57623 1.35057
6.52048 0.225492 8.84986
5.88429 2.74418 6.66231
3.22516 0.87832 6.33047
3.00879 9.75872 4.32813
9.7683 0.990204 9.72267
0.650822 0 4.24288
5.69345 0 6.37219
4.45706 3.64634 6.31881
3.75871 9.30764 0.725328
4.06255 4.27418 9.05766
1.14646 9.86174 6.27581
5.18585 2.63174 2.77613
3.04598 0.830761 0.369151
5.14587 1.27945 1.91182
4.84424 0.84241 2.43492
1.80932 6.0589 3.39834
5.10651 8.78231 9.60033
2.04347 5.44129 3.67427
1.87968 6.47559 3.47616
1.41986 2.19574 1.69454
8.00576 2.29118 1.12139
9.47433 4.04829 6.80455
7.16897 1.79911 5.49094
8.22893 1.7534 2.03097
3.87893 2.23331 1.46516
7.26157 5.69269 1.19291
2.98286 1.76534 6.5736
0.455958 6.50242 2.75717
1.13525 10 2.20998
8.87038 8.82851 6.01425
7.21243 0.255033 6.68535
9.98279 8.22105 5.54889
7.68021 6.59885 8.82139
7.84179 7.5133 7.08121
0.115179 2.12024 7.38306
6.20516 5.89504 5.40919
7.5657 4.87405 9.1627
10 5.3445 5.1597
0.980081 7.41208 4.31355
2.56412 2.7346 5.14386
7.24501 0.189785 6.5167
8.66052 1.62391 6.82495
0.818493 3.30917 8.91299
4.70984 8.26038 1.62788
4.33106 1.32746 8.87299
0.126224 1.84662 7.68371
6.4679 6.61917 5.60313
7.78091 1.12767 9.67255
3.96336 5.10652 2.46984
6.88873 5.53158 2.47776
2.42731 9.7775 9.2609
10 5.77393 4.33784
6.41941 2.05458 1.1171
5.15324 9.86603 5.33475
0 1.20179 4.94785
0.190967 1.59154 0.742493
9.273 3.53661 9.32303
8.15469 6.1434 0.207412
6.25546 7.79776 2.89362
10 0.0952457 0.205286
4.55763 1.8451 3.93757
8.6998 0.466808 3.90239
8.22896 6.81015 3.99006
6.60478 1.71265 9.07263
5.99276 9.04276 9.56319
4.47863 2.17162 1.85976
5.52748 6.63318 9.85707
1.17018 5.44487 0.51725
0.709789 8.01494 9.82053
9.81941 3.94714 1.62451
1.06618 0.617314 9.66343
2.97937 2.90568 8.73752
5.50097 7.10459 6.41068
1.5019 3.19354 8.5113
7.5648 8.87846 2.82149
6.61674 9.41835 1.164
7.42888 0.260514 6.75664
5.4173 9.08301 1.94619
9.68506 5.75352 4.58038
3.61011 1.0574 6.93314
7.68216 3.65179 0.155141
8.36418 3.45583 9.40347
6.3211 8.6667 5.09791
7.33727 4.38709 7.46642
7.36625 1.80045 3.85593
3.89059 9.75498 5.79402
5.55882 7.15304 3.74399
5.50944 6.39624 9.15698
6.04339 5.70101 6.22391
8.81489 6.18944 4.41405
6.27011 0.713163 6.33335
1.2554 10 2.89346
2.80781 9.95652 6.54799
1.08248 0.567774 0.88579
8.13282 3.97254 5.79314
6.4326 8.16306 4.8222
4.07396 0.653919 1.98311
0 8.34391 6.85076
4.44765 8.11672 2.21383
7.62139 8.00247 0.384085
7.49423 0.153054 6.52265
4.12878 0.45255 8.68393
2.52303 4.83238 6.96682
6.55159 0 8.69656
9.97498 3.20817 9.46384
4.42305 7.84174 8.57482
7.8983 0.854122 5.91108
5.5278 6.61654 3.00608
5.20506 4.76668 0.357627
5.89006 7.74019 6.51498
2.79678 4.64507 0.878865
9.97335 9.4988 3.10797
6.57661 2.45132 3.83857
7.81821 0.812225 6.0077
3.92912 9.29566 2.37504
6.01128 5.56392 4.10741
1.785 8.72984 1.91622
7.24547 9.28311 0.614594
7.12774 0.730926 6.82408
2.69943 3.59314 0.109358
3.62237 0.461077 4.56426
8.368 7.04196 3.00536
7.60231 2.3845 1.31973
4.36747 3.63734 5.54504
2.73369 5.19844 4.70965
9.50459 3.74049 0
4.67082 6.60481 9.43811
3.94245 1.69494 3.85103
7.19411 0.3372 6.78411
3.09528 6.07609 9.58355
7.73731 0.74646 6.03724
0 1.5127 6.95701
5.1836 5.50475 9.66868
3.39809 3.37091 6.11201
8.3879 4.29833 1.21545
8.99611 7.32188 5.73081
7.74641 6.9674 5.2904
8.42394 10 5.15284
3.88414 6.86626 5.02072
2.70002 5.13964 3.04166
9.0093 0.56576 8.97534
6.57097 0.582285 0.884012
4.67015 4.82934 5.92454
4.82855 3.77785 6.27883
3.24592 5.42792 1.48605
10 3.31693 6.3355
7.4882 0.634054 7.51125
5.19943 5.63582 7.90688
2.61519 1.42392 1.57546
7.63786 2.5597 1.22298
8.97121 8.05858 7.39996
7.18832 8.97374 0.311242
4.352 6.57145 7.7819
1.0348 4.58167 4.07806
0.634096 3.03657 2.03148
5.80849 6.02005 4.44567
7.73177 9.2573 5.63164
1.08431 6.0308 8.87762
9.58908 1.45267 6.45157
1.40881 7.64653 7.39476
8.94408 0.307975 2.69252
7.10004 1.34921 9.5171
2.48082 3.3781 6.84028
6.86774 3.53561 8.42499
9.54565 5.87108 2.5543
8.20909 4.38367 8.7104
3.00598 3.19464 5.06262
7.21022 9.51107 7.35249
8.88107 3.5847 5.87311
6.24313 0.5858 6.17269
7.05528 0.638661 9.76898
9.91264 9.93875 6.54128
0.839905 0.925247 2.35846
9.56566 6.75707 7.30781
8.63595 8.48605 3.50132
8.50701 6.54652 0.0917709
6.33065 3.53009 9.5685
4.57188 1.23127 4.94844
5.77632 5.67683 1.9465
3.64153 7.27621 2.74379
9.95272 3.86196 0.517764
10 8.73197 5.12585
5.76721 3.02202 7.40692
3.99025 0 9.5289
6.44639 5.96732 9.7347
0.490837 0.266806 9.79894
7.4502 0.348163 6.53613
6.43762 0.550686 6.42072
7.06142 0.602816 7.03536
6.94739 0.41685 6.51679
1.2384 2.76693 3.276
3.011 5.55841 6.89477
7.08515 0.456846 6.67781
7.06053 7.01105 4.02835
7.00771 0.333204 6.71572
8.19913 2.9152 4.65865
6.49976 0.536085 6.45711
7.16337 0.401215 6.70613
7.35545 2.04402 9.29795
2.02507 5.52143 0.321347
6.45324 0.562941 1.06547
4.77022 1.95164 9.89495
9.07979 7.70738 3.86198
6.94693 0.505414 6.68945
9.35332 7.47529 6.77272
5.27688 2.27881 2.87935
4.16611 6.59007 1.26201
5.46783 3.41179 2.66052
0.645017 1.67789 8.69699
7.85215 3.18104 7.642
7.98819 3.51135 9.88974
1.43854 5.95246 1.30425
0.297198 0.343218 9.87497
7.42918 0.409305 6.84158
7.14895 0.757741 6.8454
3.4022 4.62019 2.22164
7.3462 0.778251 6.22308
6.0563 0.407893 0.672953
8.20216 8.94186 10
7.21125 0.352908 6.52273
9.38499 5.56592 5.12661
1.95627 0 1.22743
2.31978 3.26649 4.69955
4.54677 4.34709 7.67343
6.05513 8.28284 8.05408
4.04995 0.481893 8.51079
4.00701 8.88055 5.91016
7.39653 0.369565 6.72143
0 7.89088 4.80534
0.546223 6.36545 2.9198
2.57214 2.67788 0.768392
0.405711 0 6.7609
3.56589 7.08099 4.95042
0.35245 0.338262 9.81126
6.82587 0.292377 6.15919
1.76413 2.46275 3.31167
8.6252 1.88415 5.99529
7.13899 0.416129 6.19306
7.22518 0.448436 6.62409
1.53534 2.78133 1.78386
7.56178 0.189909 6.87938
6.84435 0.217767 6.77562
7.81491 8.91247 2.94566
0.843664 3.85409 8.63046
0.346004 0.643286 8.6278
7.07255 0.172323 6.54772
3.92482 6.13821 2.47076
0.136975 9.80052 0.282073
7.08417 0.362498 6.8761
7.40327 0.329912 6.71053
2.69165 9.17206 2.12909
0.173843 0.249884 9.86041
0.248936 0.356953 9.80097
7.24741 0.53748 6.99205
7.45816 0.283823 6.46967
5.49731 7.60055 5.17109
0.305006 0.0937558 9.74971
8.2448 1.65525 9.23288
10 1.05458 8.66669
9.68342 6.08383 8.09668
8.74473 1.6912 6.1322
5.85098 5.511 10
4.8723 3.30305 7.44276
7.637 0.475837 7.00219
7.35912 0.0680541 6.3004
8.73587 1.7804 6.97539
0.318179 0.167373 9.78222
5.00616 7.31995 3.90365
9.05199 4.12955 0.236058
7.78913 0.59515 5.83349
7.22764 0.54852 6.68249
7.3003 0.550916 6.82361
8.97992 9.40641 2.90383
7.29956 0.738993 6.93886
8.19263 0.265059 8.48577
0.452048 0.221696 9.82534
7.45348 0.414805 6.96457
7.63178 0.188712 6.69442
3.71866 2.13901 6.99905
3.92107 2.23044 8.10653
7.32224 0.486806 6.69937
7.20628 0.761736 6.58325
7.46713 5.63126 8.00112
7.04466 0.749213 7.05651
3.14223 1.51456 8.12041
6.08512 5.66286 8.57232
7.58336 0.571606 6.30967
2.59727 6.5152 1.33093
7.98124 9.35409 1.2264
5.81615 4.59408 6.72239
POINT_DATA 400
SCALARS particleColor float 3
LOOKUP_TABLE default
0.858469 1 0.141531
1 5.96046e-08 0
0.204228 1 0.795772
1 5.96046e-08 0
1 5.96046e-08 0
1 0.626999 0
0.629827 1 0.370173
1 0.18144 0
0.586767 1 0.413233
0 0.876247 1
1 5.96046e-08 0
0.237733 1 0.762267
1 5.96046e-08 0
1 0.273825 0
1 5.96046e-08 0
0.317394 1 0.682606
0.946355 1 0.0536447
1 5.96046e-08 0
1 0.93036 0
1 5.96046e-08 0
1 0.171277 0
1 0.0230651 0
1 0.856526 0
0 0.653583 1
0.366128 1 0.633872
1 0.260339 0
1 5.96046e-08 0
1 0.639298 0
1 0.30947 0
1 5.96046e-08 0
1 0.680249 0
0.691446 1 0.308554
0.431818 1 0.568182
1 5.96046e-08 0
1 0.979499 0
1 5.96046e-08 0
1 5.96046e-08 0
1 0.846017 0
1 0.794682 0
1 5.96046e-08 0
1 5.96046e-08 0
1 5.96046e-08 0
1 5.96046e-08 0
1 5.96046e-08 0
0.403767 1 0.596233
1 0.0937117 0
0.90857 1 0.0914299
1 5.96046e-08 0
0 0.432941 1
0.0852296 1 0.91477
1 5.96046e-08 0
1 0.40469 0
0.322594 1 0.677406
1 0.890709 0
1 5.96046e-08 0
0.717423 1 0.282577
0 0.992022 1
0 0.829684 1
0 0.955959 1
0.849742 1 0.150258
1 0.0192096 0
1 5.96046e-08 0
0.801047 1 0.198953
1 5.96046e-08 0
1 0.0287553 0
1 0.741 0
0.50143 1 0.49857
1 0.911271 0
1 5.96046e-08 0
0.871121 1 0.128879
0.927337 1 0.0726633
1 5.96046e-08 0
1 0.656528 0
1 5.96046e-08 0
0 0.949496 1
1 5.96046e-08 0
0.209751 1 0.790249
1 0.930048 0
0.500136 1 0.499864
0 0.629217 1
1 0.872125 0
1 0.0150562 0
0.821287 1 0.178713
1 5.96046e-08 0
1 0.67569 0
1 0.344789 0
1 0.645561 0
1 5.96046e-08 0
1 5.96046e-08 0
1 0.0986885 0
0.58001 1 0.41999
1 5.96046e-08 0
1 0.303724 0
1 0.0756936 0
0.654627 1 0.345373
0.191365 1 0.808635
0.842569 1 0.157431
1 5.96046e-08 0
1 5.96046e-08 0
1 0.756776 0
1 0.0480018 0
1 5.96046e-08 0
1 5.96046e-08 0
1 0.848512 0
1 5.96046e-08 0
0.491645 1 0.508355
0.82546 1 0.17454
0.395792 1 0.604208
1 5.96046e-08 0
1 0.108876 0
1 0.354298 0
0.826829 1 0.173171
0.647383 1 0.352617
1 5.96046e-08 0
0 0.833466 1
1 5.96046e-08 0
1 5.96046e-08 0
1 5.96046e-08 0
1 5.96046e-08 0
1 0.220642 0
0.995181 1 0.00481856
0.933917 1 0.0660826
1 0.312479 0
1 5.96046e-08 0
1 5.96046e-08 0
1 0.766329 0
1 0.600441 0
1 0.7805 0
1 0.295241 0
0.455665 1 0.544335
0 0.97344 1
1 0.161331 0
1 5.96046e-08 0
0.462885 1 0.537115
1 0.894261 0
1 5.96046e-08 0
1 5.96046e-08 0
1 5.96046e-08 0
1 5.96046e-08 0
1 5.96046e-08 0
0 0.726126 1
1 5.96046e-08 0
0.471444 1 0.528556
0.939293 1 0.060707
1 5.96046e-08 0
1 5.96046e-08 0
1 0.0830451 0
1 0.0737449 0
1 0.58828 0
1 5.96046e-08 0
0 0.470364 1
0.374543 1 0.625457
1 0.131862 0
1 0.321152 0
0.803724 1 0.196276
0 0.642062 1
0.178284 1 0.821716
1 0.59817 0
0 0.784151 1
1 5.96046e-08 0
0.92597 1 0.0740302
1 5.96046e-08 0
0.667472 1 0.332528
1 0.807723 0
1 0.357785 0
0.897124 1 0.102876
0.873296 1 0.126704
1 5.96046e-08 0
1 5.96046e-08 0
0 0.684792 1
1 0.922974 0
0 0.999841 1
1 5.96046e-08 0
0.425677 1 0.574323
0 0.62699 1
1 5.96046e-08 0
0.975508 1 0.0244921
1 5.96046e-08 0
1 0.625441 0
0.520868 1 0.479132
0.834872 1 0.165128
1 5.96046e-08 0
0.431793 1 0.568207
1 0.501962 0
1 5.96046e-08 0
1 5.96046e-08 0
0 0.60459 1
0.651311 1 0.348689
1 0.982877 0
1 5.96046e-08 0
1 5.96046e-08 0
1 0.265732 0
1 0.900932 0
1 5.96046e-08 0
1 0.511086 0
1 0.424997 0
1 0.054328 0
0.172593 1 0.827407
1 0.301334 0
0 0.746971 1
0 0.277123 1
1 5.96046e-08 0
0 0.789013 1
0.599804 1 0.400196
0.557466 1 0.442534
1 0.633736 0
1 5.96046e-08 0
0.0834502 1 0.91655
1 5.96046e-08 0
0.997327 1 0.00267315
0 0.62353 1
1 5.96046e-08 0
0.407633 1 0.592367
0.975387 1 0.0246127
1 0.415172 0
0.193448 1 0.806552
0 0.305438 1
1 5.96046e-08 0
1 0.321284 0
1 5.96046e-08 0
1 5.96046e-08 0
1 0.676643 0
1 5.96046e-08 0
0 0.459614 1
1 5.96046e-08 0
1 0.749765 0
0.958825 1 0.0411747
1 0.543993 0
0 0.506871 1
0.511523 1 0.488477
1 5.96046e-08 0
0 0.918804 1
0.581031 1 0.418969
1 0.759856 0
1 5.96046e-08 0
1 5.96046e-08 0
1 5.96046e-08 0
0 0.749255 1
0 0.339511 1
0.695197 1 0.304803
0 0.95345 1
1 0.930259 0
1 0.462533 0
1 5.96046e-08 0
1 0.153591 0
1 5.96046e-08 0
0 0.478403 1
1 5.96046e-08 0
1 5.96046e-08 0
0.242037 1 0.757963
1 5.96046e-08 0
0.186947 1 0.813053
1 0.308511 0
1 0.0877486 0
0.275172 1 0.724828
1 0.65761 0
1 5.96046e-08 0
0 0.84476 1
1 5.96046e-08 0
1 0.847868 0
0.694474 1 0.305526
0.850807 1 0.149193
1 5.96046e-08 0
1 0.15227 0
1 5.96046e-08 0
0.0935169 1 0.906483
1 0.00707465 0
0.356595 1 0.643405
1 5.96046e-08 0
0.773069 1 0.226931
1 5.96046e-08 0
1 5.96046e-08 0
1 0.337681 0
0.925885 1 0.0741146
1 5.96046e-08 0
0.927446 1 0.072554
1 5.96046e-08 0
1 0.22549 0
0.847622 1 0.152378
0 0.525955 1
1 0.597004 0
0.874096 1 0.125904
0.0308584 1 0.969142
0.230853 1 0.769147
1 5.96046e-08 0
1 5.96046e-08 0
1 5.96046e-08 0
1 5.96046e-08 0
1 0.531383 0
1 5.96046e-08 0
1 5.96046e-08 0
0.607339 1 0.392661
0.688042 1 0.311958
1 0.779874 0
0.843863 1 0.156137
0 0.55607 1
0 0.75626 1
0 0.438185 1
0 0.738617 1
0 0.319405 1
0.399211 1 0.600789
0 0.635961 1
0 0.312289 1
1 0.595368 0
0 0.665455 1
1 0.747857 0
0 0.401269 1
0 0.514127 1
1 0.433082 0
0.808388 1 0.191612
1 5.96046e-08 0
0.224057 1 0.775943
1 0.401609 0
0.0196593 1 0.980341
1 5.96046e-08 0
1 5.96046e-08 0
1 5.96046e-08 0
1 5.96046e-08 0
1 0.965972 0
1 0.370429 0
1 0.575444 0
0.621936 1 0.378064
0 0.642466 1
0 0.367361 1
0 0.635674 1
1 5.96046e-08 0
0 0.396372 1
1 0.858262 0
1 5.96046e-08 0
0 0.5803 1
0.560579 1 0.439421
1 5.96046e-08 0
1 5.96046e-08 0
0.614975 1 0.385025
1 0.135882 0
1 0.204865 0
0.744408 1 0.255592
0 0.382377 1
1 5.96046e-08 0
0.355973 1 0.644027
1 0.630691 0
1 5.96046e-08 0
1 0.708262 0
0 0.431851 1
0 0.707665 1
1 0.264776 0
0 0.543653 1
0 0.179469 1
0 0.687527 1
1 0.647513 0
0.000979503 1 0.999021
0 0.308582 1
0.67931 1 0.32069
0.945274 1 0.0547257
1 0.143054 0
0 0.439003 1
0.855841 1 0.144159
1 0.896844 0
0.245975 1 0.754025
0 0.656692 1
1 0.871331 0
0 0.443938 1
0 0.605736 1
0.0369515 1 0.963048
0 0.575238 1
1 5.96046e-08 0
0 0.494812 1
1 0.541179 0
1 5.96046e-08 0
1 0.84918 0
0.00895804 1 0.991042
0.497274 1 0.502726
1 0.699692 0
0 0.354108 1
0 0.325168 1
0 0.487327 1
0 0.506387 1
0.70175 1 0.29825
1 5.96046e-08 0
0 0.611128 1
0 0.941536 1
0 0.632202 1
1 5.96046e-08 0
0 0.587719 1
1 5.96046e-08 0
0 0.730268 1
0.189518 1 0.810482
0 0.567465 1
1 5.96046e-08 0
1 0.981111 0
0.0852816 1 0.914718
0 0.380494 1
0.160619 1 0.839381
0 0.295062 1
0.653872 1 0.346128
0.876917 1 0.123083
0 0.222121 1
0.192011 1 0.807989
0 0.261867 1
0 0.813051 1
