# vtk DataFile Version 3.0
Particle simulation
ASCII
DATASET POLYDATA
POINTS 400 float
0.289931 0.414616 7.88137
2.22592 0.606005 7.81163
8.49449 9.42972 4.69222
4.52329 0 4.25269
8.91639 4.16865 8.94852
5.83929 0.365214 6.03768
3.53435 3.28444 3.38769
7.09244 1.88717 1.72405
2.17441 3.83362 5.79501
2.15334 6.65521 2.34024
2.10136 4.79695 0.883679
4.21788 9.16345 2.40151
4.41112 7.28234 4.81691
6.19342 6.35728 1.30132
5.67345 6.67095 4.16873
3.24887 5.05 6.53671
7.21421 1.02483 6.48937
3.18789 0.305899 0.793849
1.97354 6.81859 7.70821
3.54934 3.253 7.81023
2.84119 0.461646 0.860332
0.694267 1.57507 0.177882
0.440868 7.70843 6.90562
4.35007 5.66078 0.202159
5.06828 8.90928 5.27234
1.54645 3.97014 5.73399
7.55147 7.86221 6.68955
9.67357 0.505991 4.42709
9.73559 6.75005 9.46255
6.88983 5.82094 2.37344
8.08715 10 6.20323
2.24404 8.53308 1.93034
8.29658 7.27097 9.40513
3.9626 7.57579 7.9394
0.494819 5.3559 3.83228
2.8752 5.31007 8.38899
5.43751 4.86231 4.17264
2.78718 0.41594 0.991737
0.184173 5.55824 1.50729
4.38989 0.403685 9.57878
5.59585 1.492 4.07151
9.21409 7.2814 2.7113
9.73109 8.94647 2.5374
9.74227 0.841121 1.58546
4.96138 0.773094 0.966586
2.0993 5.66548 3.7857
5.40383 0.96596 7.98717
8.36883 2.1454 9.03109
6.70369 0.260918 1.38665
5.92425 0.767123 6.09971
3.94843 9.62055 5.8071
2.59464 9.42704 1.07783
9.40482 4.69548 7.15488
8.26632 2.47532 4.86272
0.167963 1.84826 5.31699
6.90397 0.267825 0.993297
7.17818 0.766333 7.80499
6.69168 5.55723 3.93464
3.9342 1.47347 5.56684
0.162331 3.48 6.39801
0.420645 9.22417 8.85357
5.0668 1.16415 2.85001
3.75485 1.44713 2.47956
0.0523943 1.0026 7.96016
2.39994 5.86407 0.487922
9.37419 8.29253 3.10515
1.54292 0.292176 2.29605
9.46636 5.07181 0
7.82313 7.16696 0
6.03109 8.77871 3.14134
4.18868 3.74474 5.59819
8.22957 5.43824 1.05153
4.33013 9.37827 2.14113
2.14705 6.36727 2.10275
9.03687 4.84715 9.20772
7.02016 5.24109 6.0402
4.05182 3.71024 1.95019
5.88773 6.86023 4.38214
6.47068 7.01052 4.96605
8.43965 7.42374 1.37184
3.17655 0.532525 0.807501
6.81764 2.50702 4.11022
1.65219 1.20951 9.14922
0.28744 4.1693 3.92865
3.1915 2.28071 7.31491
0.513637 3.76425 8.14217
0.361766 0.858386 0.663943
2.38789 0.750831 9.55586
3.40184 2.98773 9.20325
3.26502 9.97024 1.89228
2.79926 0.318565 0.83249
9.09166 6.60423 3.81925
3.88468 9.11059 9.24011
1.68298 0.0176301 9.91353
0.126509 4.08858 2.07325
7.40362 9.73455 7.32665
6.03703 2.98047 6.3276
8.47736 4.45693 3.57346
0.602573 0.0338317 5.44174
8.112 2.58915 3.94195
3.42287 0.512233 0.87816
8.09157 0.906155 9.6369
0 1.1838 3.64104
1.20296 5.84808 5.16208
8.89359 5.56817 7.81309
7.61385 1.18735 8.90065
6.09386 2.70825 3.71036
6.54984 0.118856 2.54816
7.04943 0.200449 2.62174
9.4899 7.72474 5.74047
4.43036 8.86074 4.17306
7.06546 0.0415983 0.219874
9.79707 6.1071 4.34661
0.526052 1.28216 0.55327
3.59172 0.625087 1.44037
4.99967 0.716053 0
4.33939 0.23894 8.33639
7.61936 2.99846 1.22244
8.15011 2.66581 2.61908
3.59789 9.86575 1.81164
3.01706 0.566353 0.41338
4.14561 4.99832 7.30901
8.61616 4.27535 8.16514
6.15863 0.44874 9.26668
3.49616 6.73946 9.79108
3.50166 0.572266 0.791603
2.03255 6.21935 7.27014
0.621941 0.836179 7.79665
9.38326 0.787883 8.62507
1.25997 9.41804 5.59757
0.604976 3.58003 4.92797
0.0804189 3.8563 0.687826
5.24225 0.380208 4.3256
9.23924 8.78916 0.806974
1.80019 0.42482 7.59301
0.0984217 2.33168 0.835544
3.80534 4.33104 3.49819
3.00699 1.36147 6.26431
7.57165 9.91695 7.74553
6.05024 2.18733 4.9663
3.7417 0.326537 0.991662
4.03511 7.55548 7.47715
5.49543 2.38915 0.796096
6.27332 1.0542 1.11403
3.52222 0.678442 1.08256
9.19665 2.09173 9.87075
5.97336 0.61394 1.42786
1.73321 0.721617 7.44568
8.09017 5.48138 0.837764
2.72457 0 0.364596
3.59459 0.21346 0.842845
2.43618 1.40518 7.29902
2.78181 0.943429 7.53344
3.0169 0.420036 0.686681
4.87144 0.47295 8.14134
7.17385 0.558315 0.604527
8.64319 2.24496 2.61907
5.00069 0.550509 4.12159
9.42855 1.73123 9.00738
4.48337 5.19004 9.23923
7.51655 1.5447 0.199088
7.11963 0.366723 9.39433
3.93179 2.3826 6.51979
9.0155 0.0597259 0.456941
8.71308 4.81014 0.155042
6.54111 3.73078 4.34628
2.56646 3.21815 2.83415
10 1.93322 10
1.26174 1.92656 6.19005
1.65064 1.21979 5.71236
2.98296 0.200796 0.809653
6.32756 2.40126 5.34526
5.25555 0.468195 0.909747
0 5.25388 0
0.486651 0.32566 5.57762
2.6419 1.94105 6.6433
2.51317 1.70046 7.12428
1.13073 5.53546 1.64225
1.17936 0.59925 5.16747
8.3567 8.74467 2.69416
3.26685 0.289621 0.719372
6.35903 6.54831 8.35207
2.99295 3.04196 8.36683
10 6.13819 1.06769
3.56408 1.64955 6.88793
7.46279 3.89349 9.15679
3.05778 0.475886 1.07108
3.84166 10 0
8.12981 0.0502916 1.46323
2.60882 0.389208 1.29897
3.38083 0.114302 0.531353
3.27981 0.488041 0.205323
9.49298 7.35027 1.59698
3.92867 4.03404 6.07518
5.36794 0.446292 9.35216
3.55042 0.17946 0.768736
0.766586 0.93271 3.75504
5.12866 0.528947 4.70393
3 0.512083 0.52873
3.41022 0.257618 0.736597
3.40071 0.310782 1.06342
6.64369 0.378731 1.03721
0.948042 0.216959 1.96544
3.29314 0.761237 6.38395
1.0273 7.93112 7.21974
3.96089 0.326595 6.59266
3.39585 0.165988 0.315236
6.10946 2.23848 7.94684
5.52663 1.86859 3.08213
3.22614 8.02713 1.94337
3.38138 0.363431 1.07892
3.97233 0.107463 0.509003
3.35318 9.3994 8.40934
9.36471 0.768368 8.34693
6.23947 2.07255 2.79529
4.28865 0.373401 8.41256
2.83269 0.426142 0.453257
2.96116 0.125614 0.328871
0.441527 0.804429 9.77669
2.99466 0.683504 1.40134
8.10386 2.482 1.18133
7.1236 5.60164 2.51568
4.2497 0.216517 6.68502
2.98789 0.586736 0.351543
6.8362 2.3796 0.784687
4.01756 1.55873 4.44003
3.17748 3.36868 1.09989
3.52436 0.516624 1.05365
3.37404 0.317707 0.631705
9.33751 6.06715 1.45309
9.78199 1.63729 8.02843
1.49177 0.187084 9.86763
3.93646 0.489839 0.565214
3.55745 0.611875 0.359931
4.21597 0.351594 8.78437
0.229664 3.12824 3.94762
9.15049 1.38678 9.08572
1.97025 0.0546802 6.44258
3.01357 0.922514 0.53615
4.5834 1.98414 9.80666
3.16979 0.276715 0.925876
3.74618 0.564119 1.26361
3.28045 0.325044 0.779176
2.96517 0.608638 0.59804
4.60812 0.460627 8.54567
6.12826 2.27592 6.50763
0.718981 0.120735 5.55996
0.871995 0.903672 3.65997
7.23821 1.37041 8.27999
2.23952 1.41041 7.17565
2.9545 0.189414 1.01073
2.13338 8.91614 5.79287
3.82786 0.37257 8.65372
7.21293 0.127939 2.84986
6.26735 0.0746117 1.17717
3.54684 0.307216 0.905308
7.2254 1.06416 5.11142
4.08623 0.497809 8.64691
1.6309 5.00432 6.97342
4.14386 0.389199 8.67847
2.89541 0.419782 0.436174
9.9967 7.08526 0.79444
3.32458 0.69002 6.41478
5.19752 6.51899 2.9774
3.59563 0.820898 8.68974
7.35124 8.15916 1.62789
6.7521 0.567256 0.676591
4.1866 0.304821 8.30468
5.01856 1.00747 1.50671
3.50149 0.250041 0.804261
3.12417 0.657888 0.864678
8.2375 7.09203 1.21105
4.54379 6.70588 6.95973
3.19926 2.75953 3.21128
6.70867 5.85328 8.68901
4.37182 0.253339 6.50941
4.17467 3.97829 1.77866
10 6.38737 5.08186
4.89301 2.8737 3.06015
3.46442 0.608733 0.942377
6.22956 0.256536 0.976304
7.08103 0.659407 0.88406
9.15513 3.37984 5.8852
3.60121 1.28883 1.19344
7.2487 0.726864 7.36467
9.16137 0.498804 0.371489
3.19717 0.58673 0.708283
7.662 0.620702 7.89599
9.83104 6.33138 8.04006
2.27875 8.69654 8.05318
9.73542 3.44784 8.92783
7.86167 0.171336 1.24175
3.59537 0.304895 0.959785
0.819633 0.318772 7.45759
4.03607 0 9.51491
4.02236 0.412092 8.3313
3.40152 0.64114 1.11305
3.28156 0.586268 1.14195
8.98954 4.25972 8.46313
3.69678 0.344022 0.884371
0.841579 3.41885 3.73679
3.5466 0.575196 6.38905
7.9818 1.22354 4.04347
6.48222 8.82984 0.0568565
3.44573 0.313059 0.823156
0.634573 1.05514 8.07852
3.43914 0.544451 0.9193
3.49543 0.391425 0.596923
0.452373 0.722524 3.20597
4.25324 4.0237 1.65836
3.44404 0.467779 8.48515
1.56804 0.652954 5.68108
5.41779 1.02022 1.65902
3.60907 0.5026 0.64716
9.11095 2.18014 9.95761
1.13892 0.341889 7.5428
4.96256 2.17375 5.8793
1.00238 5.19538 6.99037
6.94225 0.976048 5.27351
7.51238 6.05588 1.35506
4.28266 0.274511 8.76578
1.05375 0.449645 5.61337
3.7987 0.348937 8.11884
3.35558 0.758677 0.642587
6.24134 0.242127 0.928839
6.53689 3.15042 1.18103
3.1418 0.617966 0.211087
5.58395 0.570999 3.79626
2.77354 9.64696 2.54166
2.87647 0.247967 0.460056
9.33728 8.37587 1.0553
3.64829 0.166702 0.974307
3.90609 0.312363 8.42871
3.43975 0.419991 0.0982615
6.59064 0.419129 1.13777
3.80553 0.345814 6.69508
1.32996 5.34121 6.75612
3.36838 0.331328 0.659156
1.97957 0.796743 7.69617
5.05747 0.46098 8.40055
4.60182 0.319427 6.36079
7.24074 0.418597 9.26154
4.65594 0.216841 8.64101
4.32245 0.247954 8.59865
3.02186 0.462985 0.896828
3.39581 0.497092 0.293018
6.77161 0.585602 1.31507
3.07545 0.359456 0.502417
3.50448 0.904135 1.22246
8.06892 2.03861 9.36203
3.02669 0.735809 0.863383
3.69976 0.418405 0.694928
3.17446 0.49314 8.50288
4.14041 0.568596 8.84008
3.47319 0.283477 0.936335
2.85918 0.549137 0.962789
7.27522 0.659092 0.577891
4.42691 0.439797 9.17215
3.69141 0.138305 0.446961
3.35934 0.463346 0.194985
6.74488 0.11735 1.0792
4.13032 0.310484 8.58768
3.87229 0.454491 8.53377
3.37754 0.409579 0.246175
3.28615 0.0692371 0.903803
5.83485 0.473375 1.24288
3.99104 0.647734 8.51855
4.06797 0.382153 8.27752
4.72352 0.0581919 8.6617
6.61471 3.12185 0.903261
6.73085 0.216345 1.01966
1.33125 1.12744 5.94088
3.96542 0.304669 8.48049
3.14554 0.680499 0.288666
3.06115 0.433536 0.95256
6.84871 0.451768 1.40776
3.86235 0.470361 8.50737
4.15661 0.655854 8.102
4.68426 0.556703 8.75155
3.02659 0.0398843 0.610601
2.85095 0.38737 0.317105
3.59805 0.200453 0.388977
4.61382 0.225427 8.67999
3.72719 0.222682 0.729654
0.411352 1.22839 7.99039
3.97634 0.289397 8.48254
3.51299 0.310871 0.85795
3.49499 0.315197 0.771448
6.65586 2.48305 8.40604
6.71644 0.585455 1.08576
2.94909 0.137003 0.427961
3.13464 0.293374 0.668963
4.31562 0.207036 8.66479
3.32241 0.581363 0.586633
0.192538 0.800769 7.70763
4.12467 0.182658 8.21092
3.52714 0.325689 0.822865
0.415943 0.286042 6.07138
6.03406 0.228801 1.2863
6.83642 0.423503 1.0111
POINT_DATA 400
SCALARS particleColor float 3
LOOKUP_TABLE default
0 0.470411 1
0.275377 1 0.724623
0 0.49183 1
0.994394 1 0.00560552
1 5.96046e-08 0
0.429084 1 0.570916
1 5.96046e-08 0
1 0.919345 0
0 0.827861 1
1 5.96046e-08 0
0.121058 1 0.878942
1 0.911122 0
1 5.96046e-08 0
0.814578 1 0.185422
0.330972 1 0.669028
1 5.96046e-08 0
1 5.96046e-08 0
0 0.383085 1
0.482025 1 0.517975
1 0.899609 0
0 0.591572 1
1 0.753459 0
1 5.96046e-08 0
0.590739 1 0.409261
1 5.96046e-08 0
1 5.96046e-08 0
0 0.50777 1
0.253251 1 0.746749
0.869492 1 0.130508
1 0.827237 0
1 5.96046e-08 0
0.484504 1 0.515496
0.846763 1 0.153237
1 0.1667 0
0.581522 1 0.418478
1 0.0621381 0
0.25683 1 0.74317
0 0.378184 1
1 0.727587 0
0.0242128 1 0.975787
1 5.96046e-08 0
0.315464 1 0.684536
0.562554 1 0.437446
0.708188 1 0.291812
0 0.632621 1
0.316764 1 0.683236
0.135467 1 0.864533
0 0.889047 1
0 0.826215 1
0.93337 1 0.0666299
0.738805 1 0.261195
0.430906 1 0.569094
0.0405638 1 0.959436
1 0.875198 0
0 0.823713 1
0 0.377964 1
0.215847 1 0.784153
0 0.455601 1
0.662417 1 0.337583
0.526938 1 0.473062
0 0.728868 1
1 5.96046e-08 0
0.349317 1 0.650683
0 0.496222 1
0.498107 1 0.501893
1 0.930799 0
0.192675 1 0.807325
1 5.96046e-08 0
1 5.96046e-08 0
0.377521 1 0.622479
0.177122 1 0.822878
0 0.928865 1
0.434697 1 0.565303
0.600289 1 0.399711
1 0.587689 0
1 0.754075 0
0 0.753048 1
0.403014 1 0.596986
0 0.29972 1
0 0.952225 1
0 0.628111 1
0 0.719939 1
1 0.996075 0
0 0.867066 1
1 0.878185 0
0.131996 1 0.868004
1 0.213492 0
1 0.0331149 0
0 0.901546 1
0.722077 1 0.277923
0 0.437161 1
0 0.490886 1
1 0.272125 0
0 0.837316 1
0.402517 1 0.597483
0.941324 1 0.0586759
0.83417 1 0.16583
0.00504662 1 0.994953
0.830351 1 0.169649
0.141659 1 0.858341
0 0.67112 1
1 0.845572 0
0.10322 1 0.89678
0.700422 1 0.299578
0 0.644544 1
1 5.96046e-08 0
1 5.96046e-08 0
0.0970368 1 0.902963
1 5.96046e-08 0
1 5.96046e-08 0
0.925612 1 0.0743884
1 0.518993 0
0 0.901913 1
0.0848298 1 0.91517
0 0.703423 1
1 5.96046e-08 0
0 0.696908 1
0.33841 1 0.66159
0 0.882405 1
0.318834 1 0.681166
0 0.437848 1
1 0.856946 0
0 0.673984 1
0.561103 1 0.438897
0.813626 1 0.186374
0 0.405186 1
0.00553483 1 0.994465
0 0.728032 1
0.48783 1 0.51217
1 5.96046e-08 0
1 0.105585 0
1 0.552999 0
0.733816 1 0.266184
1 0.334586 0
0.310182 1 0.689818
0 0.60557 1
0.526911 1 0.473089
0 0.768661 1
0.282557 1 0.717443
0 0.979078 1
0 0.0061275 1
1 5.96046e-08 0
0.31364 1 0.68636
0.789666 1 0.210334
0 0.692603 1
0.0383524 1 0.961648
0 0.593405 1
0.92227 1 0.0777302
0.772757 1 0.227243
0.424483 1 0.575517
0 0.169202 1
0 0.90724 1
0 0.841382 1
0 0.906292 1
1 5.96046e-08 0
0 0.606848 1
1 0.527585 0
0.324277 1 0.675723
0.79645 1 0.20355
1 5.96046e-08 0
0 0.60722 1
0.387778 1 0.612222
0.0966053 1 0.903395
1 5.96046e-08 0
0 0.31769 1
0 0.954525 1
1 5.96046e-08 0
1 5.96046e-08 0
1 0.559805 0
0 0.605694 1
0 0.756386 1
0.358639 1 0.641361
1 0.685906 0
1 5.96046e-08 0
0 0.800945 1
1 0.62839 0
0 0.347791 1
0.456632 1 0.543368
0.696543 1 0.303457
0.181239 1 0.818761
0 0.550816 1
0.640944 1 0.359056
0.794174 1 0.205826
1 5.96046e-08 0
1 0.901455 0
0.170093 1 0.829907
0 0.654583 1
1 0.788014 0
0 0.644383 1
0 0.821128 1
0 0.278441 1
0 0.519283 1
1 0.62075 0
1 5.96046e-08 0
0.923161 1 0.0768392
0 0.332348 1
0 0.98991 1
0.663736 1 0.336264
0 0.424535 1
0 0.739752 1
0 0.3602 1
0.225432 1 0.774568
0.750187 1 0.249813
0 0.345317 1
1 5.96046e-08 0
0.13316 1 0.86684
0 0.355224 1
0.790494 1 0.209506
0 0.886188 1
0.692237 1 0.307763
0 0.41575 1
0 0.395827 1
1 5.96046e-08 0
0.0268618 1 0.973138
1 5.96046e-08 0
0 0.903611 1
0 0.854175 1
0 0.292233 1
1 0.9382 0
0.0294658 1 0.970534
0.048727 1 0.951273
1 5.96046e-08 0
0 0.874653 1
0 0.715465 1
1 5.96046e-08 0
0 0.135442 1
0.657861 1 0.342139
0 0.939562 1
0 0.812819 1
0 0.784295 1
0 0.859598 1
0 0.81174 1
0.44222 1 0.55778
0 0.447434 1
0 0.428093 1
0 0.527767 1
0.208602 1 0.791398
0 0.359147 1
0 0.761949 1
1 0.687074 0
0 0.323499 1
0.00797591 1 0.992024
0 0.724775 1
0 0.697462 1
0.0209653 1 0.979035
1 5.96046e-08 0
0 0.481741 1
0 0.978481 1
1 5.96046e-08 0
0.659469 1 0.340531
0 0.626715 1
0.806196 1 0.193804
0 0.89008 1
0.019048 1 0.980952
0 0.286061 1
0 0.966977 1
0.65182 1 0.34818
0 0.385495 1
0 0.562462 1
0 0.382913 1
0 0.529648 1
1 0.795758 0
0 0.622413 1
1 0.576638 0
0 0.469257 1
0.936223 1 0.0637771
0 0.67956 1
0 0.132885 1
0 0.705251 1
0 0.866609 1
0 0.255907 1
0.140755 1 0.859245
0.818348 1 0.181652
0 0.604482 1
0.499438 1 0.500562
0 0.530326 1
0 0.225911 1
1 0.298699 0
0 0.691114 1
0 0.358225 1
0 0.943972 1
0 0.613543 1
0.102803 1 0.897197
1 0.347174 0
1 5.96046e-08 0
0.36891 1 0.63109
0 0.450795 1
0.887254 1 0.112746
0.588332 1 0.411668
1 5.96046e-08 0
1 5.96046e-08 0
0 0.655156 1
0.372406 1 0.627594
0 0.465352 1
0 0.583054 1
0 0.761499 1
0 0.635919 1
0 0.237088 1
0.98728 1 0.0127203
0 0.892561 1
0 0.841289 1
0 0.658022 1
0.256208 1 0.743792
1 5.96046e-08 0
0 0.819261 1
0 0.189705 1
0.167771 1 0.832229
0 0.505493 1
0 0.486161 1
0 0.693847 1
0 0.829886 1
0 0.758413 1
0 0.810681 1
0 0.41231 1
0.103042 1 0.896958
0 0.59169 1
0.74487 1 0.25513
0 0.733583 1
0 0.279675 1
0 0.917907 1
0 0.74968 1
0.148773 1 0.851227
0 0.51339 1
0.0408691 1 0.959131
0 0.599349 1
0.207336 1 0.792664
0 0.89232 1
0 0.824965 1
1 0.488753 0
0 0.381921 1
0.991201 1 0.00879854
0 0.432317 1
0 0.107127 1
0 0.61866 1
0 0.433129 1
1 0.397376 0
0 0.78107 1
0 0.73616 1
1 0.485905 0
0 0.706708 1
0.445301 1 0.554699
0.0906103 1 0.90939
0 0.722114 1
0 0.415106 1
0 0.288761 1
0 0.309514 1
0 0.777627 1
0 0.556092 1
0 0.672693 1
0.307709 1 0.692291
0.0572509 1 0.942749
0 0.499445 1
0 0.601647 1
0 0.867238 1
0 0.972616 1
0 0.550076 1
0 0.385073 1
0 0.632494 1
0 0.838764 1
0 0.122469 1
0 0.278541 1
0 0.66245 1
0.0193875 1 0.980613
0 0.673098 1
0 0.976267 1
0 0.737006 1
0 0.331078 1
1 0.24745 0
0 0.789379 1
0.0359222 1 0.964078
0 0.191561 1
0 0.777142 1
0 0.861197 1
0 0.551322 1
0 0.960782 1
0 0.629262 1
0 0.844503 1
0 0.626676 1
0 0.698289 1
0 0.255286 1
0 0.432649 1
0 0.375635 1
0 0.648058 1
0 0.879467 1
0 0.47945 1
0 0.432224 1
0 0.728974 1
0 0.437155 1
0.488927 1 0.511073
0 0.897099 1
0 0.397895 1
0 0.438345 1
0 0.718884 1
0 0.59591 1
0.357612 1 0.642388
0 0.474545 1
0 0.710602 1
0 0.271013 1
0 0.791096 1
0.0487856 1 0.951214
