# vtk DataFile Version 3.0
Particle simulation
ASCII
DATASET POLYDATA
POINTS 400 float
1.58456 0.386097 1.2059
2.11162 0.816405 0.0896752
1.89526 0.871234 3.45916
1.45147 0.514289 1.54077
6.21644 0.667577 5.08488
3.9195 9.45774 5.3721
7.76144 2.03205 1.51571
2.53041 3.41411 3.69164
6.28906 0.188806 1.09894
7.62971 0.721117 1.98783
1.58873 0.336653 1.30761
0.451792 0.160575 1.29896
1.94003 0.852231 3.53258
1.48268 0.468318 1.51319
6.22134 0.857484 5.18535
2.78833 4.55798 6.05172
3.72546 0.831152 2.14682
1.60281 0.740856 2.944
6.73977 0.466529 0.806893
7.55738 0.733963 1.96552
2.8663 0.755003 2.42531
4.81455 0.66043 3.12908
1.27246 1.81365 5.11064
7.54016 0.894711 1.8398
4.24644 0.183247 3.64817
1.89949 0.638149 3.78716
5.86169 1.23565 6.29802
1.37227 0.538562 2.72011
4.64788 0.980921 2.19874
1.76162 0.498533 0.891393
5.53189 0.333206 0.693119
7.19063 0.989781 2.2078
7.80503 2.32484 6.61121
7.52676 0.951468 1.81118
0.808127 0.641096 2.30477
1.90927 0.683155 3.75788
5.73851 1.24749 6.32659
1.44434 0.527131 2.92413
4.66682 0.753779 1.77567
0.397229 0.153111 1.27177
1.75264 0.354078 1.67527
3.93611 0.864223 0.153303
2.67572 0.437464 1.52316
6.98451 1.0059 1.60361
2.6543 0.478909 5.96131
4.391 1.128 2.0767
0.690874 0.145935 0.695515
2.1858 0.668047 3.1577
4.5199 0.602013 1.38652
5.12093 1.42564 5.29351
1.70228 0.290684 1.7312
3.93356 0.851173 0.151764
2.52013 0.215659 1.3304
6.97527 1.02731 1.61524
2.67198 0.526123 5.90924
4.3672 1.12338 2.08225
3.53083 0.868011 5.98129
2.25771 0.617869 3.19224
4.50408 0.608295 1.33018
5.67273 1.1552 6.18252
5.42881 0.831851 2.14699
0.75582 0.0212124 2.46839
5.30855 0.214645 7.03849
6.96209 0.320224 0.843935
5.57094 0.309329 7.11331
4.86906 0 6.73153
2.88021 0.775645 2.70383
1.64797 0.108778 2.57226
4.32198 0.674644 1.49535
2.65524 0.0695486 4.66377
5.41824 0.848181 2.13684
2.16371 1.2062 1.54565
5.77846 0.141032 7.52151
6.99371 0.309365 0.871432
5.56604 0.304492 7.10269
4.44395 0.496885 6.0635
2.90331 0.76127 2.67022
2.74529 0.853627 6.23991
4.33009 0.664973 1.50289
2.7397 0.0871796 4.66395
1.34456 0.464049 0.901894
2.31592 1.23795 1.42691
2.2139 0.699887 0.34533
2.82402 0.521881 2.13234
4.81938 0.579878 6.40977
2.78013 0.361081 5.69675
4.33781 0.867888 5.88153
1.40178 0.205448 2.27136
1.14208 0.677752 4.79212
5.8713 0.183157 0.842526
1.46862 0.642478 1.00812
2.5307 0.82861 1.6758
3.76861 0.550914 0.206864
2.83549 0.540071 2.10345
4.81357 0.582645 6.43683
2.7761 0.311449 5.69841
3.63539 0.901998 5.86048
1.6763 0.376451 2.79664
0.867518 0.533363 5.02862
5.87877 0.20297 0.8548
2.565 0.195211 1.98219
7.01301 0.585317 0.762293
1.6852 0.502148 2.43385
7.33634 0.537286 0.608071
5.87816 0.436777 1.45461
2.18668 0.57628 2.86286
3.3386 0.248272 5.53901
3.38557 0.849474 2.08564
4.5822 0.545105 1.40713
5.7091 0.00150245 0.781969
2.21147 0 1.15024
6.97864 0.418899 0.743704
1.55586 0.540593 1.24012
5.77992 0.323349 0.465242
1.63338 0.181224 2.31791
2.29203 0.631065 2.87723
3.327 0.387066 5.53646
4.0095 0.550918 1.71838
4.57847 0.588184 1.34235
1.32344 0.735926 0.624774
2.88836 0.598845 2.17233
4.50014 1.2022 2.19838
4.75159 0.314116 5.7912
4.54334 0.637323 3.23558
3.42707 0.72533 5.65808
1.38677 0.725431 0.909775
1.85045 0.0118036 2.83992
7.01671 1.31592 1.53325
4.36649 1.30978 6.03272
2.60045 0.756487 1.68969
2.89128 0.600639 2.18994
4.61305 0.930628 2.09002
5.46653 0 7.21396
4.63058 0.673946 3.20429
3.85273 0.841208 5.88198
2.7686 0.848438 2.29605
2.39903 0.401041 4.53226
7.00476 1.30157 1.53455
2.52256 0.165412 5.6184
1.61938 0.705382 1.36008
1.45124 0.611391 0.917427
2.47809 0.766048 2.54258
1.97409 0.755652 0.249403
1.825 0.681419 1.43153
2.18948 0.640557 0.154553
1.83844 0.260706 3.12047
5.6528 0.711895 6.90851
1.30992 0.273267 2.10872
1.74351 0.269969 3.16069
1.77452 0.475591 3.54696
1.45661 0.605261 0.91782
2.50639 0.728653 2.51649
2.14365 0.938169 0.260304
3.29619 0.796841 2.12402
2.0664 0.799451 0.129075
1.86478 0.448789 2.99359
5.71986 0.661436 6.86585
1.10653 0.123369 1.94462
3.00803 1.11663 1.6594
1.63144 0.801664 2.89114
2.21587 0.701095 3.78908
3.76833 0.324604 2.84192
4.97222 0.793881 6.17848
1.81361 0.595999 2.60412
1.22976 0.313218 1.57161
3.50066 0.986659 1.86466
3.17673 0.586264 5.76926
2.99652 0.33384 5.5165
2.28725 0.475733 5.73487
2.9288 1.16376 2.00909
2.20797 0.682215 3.82821
1.59253 0.386754 1.51318
4.91689 0.763852 6.14464
1.71877 0.701683 1.67129
1.2739 0.334505 1.51001
3.70773 0.823743 2.06714
2.94923 0.333613 5.7804
3.04655 0.443472 5.48171
2.69817 0.442753 5.7688
2.98387 1.16478 2.02394
1.58067 0.902634 1.12782
0.607467 0.08435 1.35767
5.44172 1.15637 6.1129
0.737986 0.968509 2.44276
3.49584 0.431575 5.73108
2.0112 0.886297 3.35046
1.40666 0.59123 3.18035
3.80936 0.339014 3.90242
0.968211 0.616753 0.771312
1.50837 0.605383 1.47951
1.5536 0.900961 1.14096
1.40164 0.429733 1.378
4.91331 0.884263 5.95605
0.895644 1.01998 2.44426
3.42766 0.148891 5.51652
1.74594 0.364934 3.41328
1.40847 0.543121 3.18488
7.69526 0.164244 0.773625
0.987352 0.564721 0.803096
1.53261 0.536873 1.44202
1.5969 0.176145 1.46429
3.54755 0.801773 1.9666
3.06977 0.139369 5.89683
2.96463 0.944082 1.90997
5.07834 1.17321 6.4829
3.16376 0.607926 5.38292
1.96168 0.352093 2.7288
1.76098 0.0281446 3.37383
3.45736 0.839086 1.76179
6.12329 0.0129078 0.730236
1.54217 0.509636 1.22633
3.61883 0.614341 2.24734
4.26726 0.787562 5.86402
3.26141 0.953636 1.74752
5.07468 1.15466 6.50738
3.13905 0.595174 5.35381
1.95819 0.363387 2.76126
1.25309 0.0295555 2.86927
2.45909 0.931953 1.74003
5.92347 0.100062 0.746628
6.90706 1.01556 1.70376
3.306 0.256665 5.43564
4.56528 0.748124 5.77027
1.44469 0.35879 1.5176
4.70219 0.985341 5.75193
1.09969 0.291289 2.38761
4.38061 0.561164 6.05058
1.5256 0.276867 1.76553
1.94782 0.687817 3.58768
0.680635 0.14546 0.684285
6.94104 1.00365 1.7818
3.19016 0.442175 5.64768
4.65941 0.270581 6.38414
1.41934 0.404783 1.49311
4.77486 0.961653 5.91599
0.93291 0.250345 2.33979
4.79562 0.224906 6.47995
1.76228 0.0988487 2.34135
1.77244 0.310162 0.10607
0.549047 0.180854 0.870443
1.57037 0.372032 1.57874
0.718979 0.0721693 1.42073
2.15599 0.488501 3.35094
3.38307 0.955661 2.59912
2.42153 0.249505 5.54441
2.74993 0.652808 1.95351
1.98375 0.419587 2.88635
4.70737 1.062 5.5646
4.27243 0.669778 1.86841
2.93995 0.218229 5.80461
1.55015 0.395956 1.51774
1.43803 0 3.68158
2.39051 0.352132 5.67604
3.3427 0.972478 2.61752
2.36083 0.463328 5.57106
0.82637 1.06175 2.32225
6.42209 0.478214 0.988639
4.45908 0.62243 5.66731
4.30591 0.695729 1.83388
2.95871 0.210681 5.78015
0.693186 0.922496 2.30729
0.584108 1.06183 2.11378
0.214137 0.583707 0.924222
7.69181 0.683043 2.10131
5.02883 1.11568 6.63725
3.53628 0.979157 2.30054
7.48095 0.827997 0.807882
2.76638 0.404617 5.58816
5.96902 0.946032 6.22479
1.52172 0.53925 2.58296
0.773284 0.888642 2.35182
0.623941 0.965173 2.24779
1.59222 0.341272 2.05495
7.37052 1.08981 2.04092
5.05963 0.918085 6.30347
3.60057 0.15651 5.64538
7.03979 0.767857 0.531082
0.234681 0.817432 6.25915
5.9475 0.999273 6.24594
1.3473 0.682608 2.69953
5.5559 0.249072 0.658834
4.31755 0.829333 1.94891
3.34752 0.851975 1.96655
7.36856 0.906951 1.94872
3.60254 0.43007 6.262
5.71733 0.43925 6.87696
1.07976 0.280152 2.30992
1.75005 0.309704 2.67909
2.39962 0.76058 1.68657
0.68642 0.570294 5.30403
5.4362 0.223316 0.609962
4.3447 0.814497 1.89374
1.81805 0.491745 2.97122
7.2991 0.921173 1.90534
3.36828 0.950833 5.86789
3.10118 0.459883 6.29764
1.26563 0.222544 2.48406
1.5234 0.345381 2.83451
2.16821 0.257843 1.84198
3.2005 1.17102 2.21194
6.10875 0.16243 0.984746
2.33623 0.602675 1.71549
1.19826 0.470337 2.83038
4.91171 0.602156 1.21447
1.75121 0.15412 3.1458
4.06358 0.943168 0.276453
1.94876 0.178317 2.76711
1.07015 0.269163 0.780621
2.87269 0.826264 1.77621
1.207 0.346135 0.74575
7.47113 0.158157 0.891669
2.22503 0.619989 1.75456
3.75188 0.260088 6.54255
2.38505 1.00241 1.43574
1.74775 0.250022 3.16209
7.36204 0.820582 0.6825
1.86201 0.226231 2.75062
1.8508 0.642687 1.03184
3.40541 0.910921 1.99597
1.22387 0.419101 0.559635
2.4174 1.02042 1.64517
0.61035 0.31136 0.610843
2.57544 0.30013 6.02152
1.85152 0.737587 1.97601
5.89147 0.198664 0.664095
5.97659 0.162647 0.869098
1.54563 0.584008 2.48046
4.62821 1.00796 2.03582
5.66096 0.311827 0.833959
2.23442 1.08021 1.2443
2.39426 0.8427 1.6326
1.37942 0.483508 0.95557
2.66565 0.265996 6.02521
1.78351 0.829313 2.0035
6.04371 0.182102 0.760003
2.12463 0.516887 1.0622
1.47896 0.581295 2.54183
3.35072 0.9995 2.45887
5.70712 0.366169 0.653886
2.45526 0.368087 2.04217
2.38377 0.594629 1.68093
1.5639 0.747024 1.18126
4.99891 0.790464 6.18455
2.65831 0.836504 1.75446
1.89281 0.180371 2.99406
1.71773 0.0370246 2.49938
4.30918 0.667307 2.09051
2.02394 0.364911 3.06703
1.54108 0.0353644 2.31688
4.59118 0.893058 1.84262
1.66641 0.253419 1.39881
1.57903 0.651734 1.13438
4.95116 0.859075 6.26013
2.65455 0.84586 1.74219
1.83831 0.338106 2.99312
1.67773 0.105619 2.60882
4.23064 0.630967 2.03271
2.83797 0.270101 6.48974
1.587 0.017556 2.34493
1.64682 0.0045637 2.77184
4.21316 0.884056 2.06807
2.52467 0.517776 1.31094
5.10912 0.241245 5.92756
2.03759 0.921301 3.11158
2.60223 0.806763 1.49476
2.62437 0.515923 5.38146
2.63037 0.433197 5.6206
3.23785 0.569828 5.82525
2.70367 0.528825 5.42027
0.961174 1.37057 2.50156
4.22788 0.868744 2.068
2.48954 0.493148 1.27802
4.72421 0.656028 5.71577
2.03688 0.915269 3.14856
1.59245 0.459322 3.00416
2.63122 0.380808 5.40619
2.62675 0.459238 5.58149
3.47854 0.821445 5.74755
3.48548 0.761968 5.85802
0.892512 1.02918 2.35282
1.31713 0.726371 0.699598
1.37431 0.812574 1.27754
2.77994 0.524062 5.92914
1.6124 0.823575 1.13059
7.44328 0.963073 1.67637
5.00665 0.2974 5.9327
3.85146 0.841421 1.73007
3.4331 0.829608 2.50077
6.99107 0.55763 0.326958
4.59038 0.626695 1.55839
1.28995 0.718634 0.739497
1.33627 0.796586 1.35356
2.71525 0.550364 5.91864
1.3237 0.296759 0.967711
7.4473 0.926374 1.69864
4.99314 0.239189 5.98013
3.90227 0.82069 1.70405
3.39461 0.83578 2.46266
5.51729 0.101131 0.741069
4.60483 0.641233 1.54588
POINT_DATA 400
SCALARS particleColor float 3
LOOKUP_TABLE default
0 0.360675 1
0 0.969052 1
0 0.817648 1
0 0.481238 1
0 0.995894 1
1 5.96046e-08 0
0 0.57366 1
0 0.340037 1
0 0.694008 1
0 0.635956 1
0 0.418557 1
0 0.745961 1
0 0.820822 1
0 0.437313 1
0 0.965207 1
0 0.592871 1
0 0.808487 1
0 0.363131 1
0 0.788143 1
0 0.731349 1
0.00137786 1 0.998622
0 0.642654 1
0 0.409906 1
0 0.604193 1
0 0.702469 1
0 0.797712 1
0 0.313448 1
0 0.184856 1
0 0.681539 1
0 0.134847 1
0 0.576981 1
0 0.41864 1
1 5.96046e-08 0
0 0.534031 1
0 0.828665 1
0 0.876774 1
0 0.759937 1
0 0.203828 1
0 0.32492 1
0 0.461467 1
0 0.699124 1
0 0.839675 1
0.0519426 1 0.948057
0 0.389149 1
0.328473 1 0.671527
0 0.427587 1
0.580033 1 0.419967
0 0.702251 1
0 0.225443 1
0 0.589496 1
0 0.645712 1
0 0.553537 1
0 0.907676 1
0 0.411316 1
0.200239 1 0.799761
0 0.428595 1
0 0.540288 1
0 0.497389 1
0 0.0953686 1
0 0.961483 1
0 0.485514 1
0 0.786495 1
0 0.891686 1
0 0.487106 1
0 0.5699 1
0 0.650881 1
0 0.390871 1
0 0.957106 1
0 0.144281 1
0.0425649 1 0.957435
0 0.489987 1
0 0.749814 1
0 0.494176 1
0 0.282656 1
0 0.267661 1
0 0.483313 1
0 0.358497 1
0 0.393906 1
0 0.169733 1
0.088973 1 0.911027
0 0.483187 1
0 0.131558 1
0 0.701858 1
0 0.439883 1
0 0.277635 1
0 0.752613 1
0 0.85395 1
0 0.39422 1
0 0.547141 1
0 0.379823 1
0 0.389979 1
0 0.4521 1
0 0.774082 1
0 0.451749 1
0 0.27686 1
0 0.86091 1
0 0.602737 1
0 0.649409 1
0 0.82216 1
0 0.36208 1
0 0.624584 1
0 0.617296 1
0 0.314044 1
0 0.265829 1
0.180803 1 0.819197
0 0.423449 1
0 0.533224 1
0 0.499991 1
0 0.573559 1
0 0.919858 1
0 0.468784 1
0 0.932942 1
0 0.599717 1
0 0.960712 1
0 0.866482 1
0 0.252806 1
0 0.233665 1
0 0.616993 1
0 0.263614 1
0 0.515886 1
0 0.213043 1
0 0.466978 1
0 0.677013 1
0 0.447282 1
0 0.96632 1
0 0.693639 1
0 0.910345 1
0 0.272716 1
0 0.650346 1
0 0.84222 1
0 0.183263 1
0 0.526485 1
0 0.736941 1
0 0.782928 1
0 0.441351 1
0 0.863985 1
0 0.783385 1
0 0.247321 1
0 0.665834 1
0.208056 1 0.791944
0 0.334288 1
0 0.63193 1
0.025779 1 0.974221
0 0.697513 1
0 0.552914 1
0 0.325202 1
0 0.698826 1
0 0.528804 1
0 0.718208 1
0.00599397 1 0.994006
0 0.342487 1
0 0.491582 1
0 0.562069 1
0 0.19355 1
0 0.207736 1
0 0.508405 1
0 0.720466 1
0 0.412601 1
0 0.400929 1
0 0.564669 1
0 0.594126 1
0 0.657774 1
0 0.650983 1
0.068266 1 0.931734
0 0.470559 1
0 0.496758 1
0 0.508076 1
0 0.487573 1
0 0.550514 1
0 0.650086 1
0 0.283225 1
0 0.891069 1
0 0.64961 1
0 0.652951 1
0 0.545024 1
0 0.828951 1
0 0.284759 1
0 0.362621 1
0 0.402682 1
0 0.665783 1
0 0.968166 1
0 0.832964 1
0 0.813951 1
0.0285013 1 0.971499
0 0.529502 1
0 0.684146 1
0 0.342527 1
0 0.674239 1
0 0.514504 1
0 0.796791 1
0.0146107 1 0.985389
0 0.605987 1
0 0.530932 1
0 0.920223 1
0 0.316716 1
0 0.476216 1
0 0.351189 1
0.189746 1 0.810254
0 0.309181 1
0 0.81659 1
0 0.732481 1
0 0.909037 1
0 0.909339 1
0 0.54318 1
0 0.816595 1
0 0.30634 1
0 0.591288 1
0 0.528248 1
0 0.352861 1
0 0.268963 1
0 0.390923 1
0 0.422321 1
0 0.621474 1
0 0.704976 1
0 0.870747 1
0 0.313285 1
0 0.686403 1
0 0.765129 1
0 0.848128 1
0 0.490924 1
0 0.57536 1
0.269649 1 0.730351
0 0.820269 1
0 0.60531 1
0 0.50466 1
0 0.785393 1
0.365433 1 0.634567
0 0.479299 1
0 0.484641 1
0 0.504313 1
0 0.584693 1
0 0.978177 1
0.00795848 1 0.992042
0 0.498447 1
0 0.594648 1
0 0.7767 1
0 0.787011 1
0 0.402393 1
0 0.760874 1
0 0.394096 1
0 0.762047 1
0 0.630783 1
0 0.252284 1
0 0.402823 1
0 0.0943046 1
0 0.982742 1
0 0.836009 1
0 0.661163 1
0 0.564752 1
0 0.766097 1
0 0.719098 1
0 0.935855 1
0.109185 1 0.890815
0 0.356634 1
0 0.243984 1
0.230304 1 0.769696
0 0.376967 1
0 0.363575 1
0 0.646534 1
0 0.75887 1
0 0.88047 1
0 0.43021 1
0 0.756919 1
0 0.364374 1
0.0368018 1 0.963198
0.219735 1 0.780265
0 0.630949 1
0.00899055 1 0.991009
0 0.344919 1
0 0.603901 1
0 0.68232 1
0 0.835354 1
0.256773 1 0.743227
0 0.728892 1
0 0.619999 1
0 0.844717 1
0 0.552103 1
0 0.505121 1
0 0.316059 1
0 0.824058 1
0 0.878721 1
0 0.693862 1
0.321216 1 0.678784
0 0.872819 1
0 0.919881 1
0 0.955008 1
0 0.481839 1
0.0353502 1 0.96465
0 0.975731 1
0 0.735726 1
0 0.735089 1
0 0.519629 1
0 0.623882 1
0 0.90278 1
0 0.420623 1
0 0.824729 1
0 0.535231 1
0.144283 1 0.855717
0 0.407992 1
0 0.797678 1
0.00440551 1 0.995595
0 0.96218 1
0 0.608826 1
0 0.811416 1
0.0736699 1 0.92633
0.0287103 1 0.97129
0 0.605551 1
0 0.333102 1
0 0.704713 1
0 0.540019 1
0.212594 1 0.787405
0 0.828432 1
0 0.82026 1
0 0.761735 1
0.0420162 1 0.957984
0 0.68089 1
0 0.506624 1
0.221842 1 0.778158
0 0.948481 1
0 0.488322 1
0 0.575615 1
0 0.778983 1
0 0.611226 1
0 0.45377 1
0 0.976348 1
0.325945 1 0.674055
0 0.980957 1
0 0.347209 1
0 0.504968 1
0 0.87912 1
0 0.627517 1
0 0.576132 1
0 0.692169 1
0 0.380996 1
0.246312 1 0.753688
0 0.926069 1
0 0.961314 1
0 0.461239 1
0 0.415987 1
0 0.754853 1
0 0.993299 1
0 0.488996 1
0 0.965313 1
0 0.59738 1
0 0.92651 1
0.083017 1 0.916983
0 0.51133 1
0 0.947646 1
0 0.665865 1
0.117101 1 0.882899
0 0.747093 1
0 0.353111 1
0 0.56767 1
0 0.578224 1
0 0.989051 1
0.223557 1 0.776443
0 0.473658 1
0 0.430568 1
0 0.360766 1
0 0.886151 1
0 0.937583 1
0.0331207 1 0.966879
0 0.589749 1
0 0.327614 1
0 0.577277 1
0.104816 1 0.895184
0 0.144545 1
0 0.354046 1
0 0.643579 1
0 0.232044 1
0.0133668 1 0.986633
0.138012 1 0.861988
0 0.872754 1
0 0.403173 1
0.442123 1 0.557877
0.196981 1 0.803019
0 0.204322 1
0 0.546289 1
0 0.625102 1
0.0689497 1 0.93105
0 0.550081 1
0 0.212686 1
0 0.908 1
0 0.595182 1
0.113538 1 0.886462
0 0.809499 1
0 0.623483 1
0 0.660725 1
0 0.846167 1
0 0.782014 1
0 0.631172 1
0 0.258496 1
0 0.733775 1
0 0.594447 1
0.154156 1 0.845844
0 0.230132 1
0 0.51463 1
0 0.451172 1
0 0.840872 1
0 0.707797 1
