# vtk DataFile Version 3.0
Particle simulation
ASCII
DATASET POLYDATA
POINTS 400 float
0.469376 1.32813 8.10529
0.742698 0.610313 8.6166
7.97609 9.77051 4.04214
3.07074 4.11634 3.59568
4.76768 0 7.36597
6.97182 0.271 8.23936
0.643305 2.64329 8.04584
6.90788 2.06951 0.234952
3.47165 3.98539 5.42389
4.68994 1.67026 0.0906131
3.46372 3.59906 2.58062
2.53744 8.22074 0.424562
1.95451 6.90726 5.45194
6.72221 8.04305 3.68715
7.29904 6.1228 5.57982
3.79886 3.73559 1.94217
0.997867 3.89803 5.69223
3.19089 0.484922 0.541132
2.31514 4.89451 8.42706
0.250224 2.41953 8.19601
3.67773 0.440871 0.483965
1.68262 4.6285 2.01843
5.68844 9.2097 9.86927
2.71417 5.97181 2.80153
9.56977 7.99604 0.49809
10 0 0
7.08008 7.56242 7.39126
9.32372 0.316189 2.42253
6.81286 7.49963 7.16325
6.00946 5.11906 5.3008
7.36603 4.10194 4.50562
0.837133 9.18869 3.80934
8.31377 7.14737 7.37131
7.20844 4.57127 8.4203
0.696351 3.64739 4.37404
0 2.04236 9.08277
4.23578 4.59902 5.83818
3.60304 0.39979 0.698622
2.71632 8.69578 0.682637
4.74739 0.499798 8.34966
3.86663 7.69264 5.67682
9.33959 5.60428 2.13786
7.64409 9.45411 1.12773
9.13968 2.45459 3.69692
4.6636 0.672937 0.0959512
2.07191 3.59599 3.07268
5.73202 0.905606 7.4936
7.9772 1.43406 6.99859
6.58548 0.280122 1.9795
5.73799 2.06337 3.28496
2.98615 8.97789 5.30558
1.07066 9.38756 2.50063
9.60321 4.41342 5.46613
6.03385 5.03521 5.7175
0.957344 0.750181 5.32667
6.53216 0.383363 1.25302
8.44887 1.12302 7.91655
6.52434 5.28389 3.63722
1.19453 1.20207 5.70313
2.10146 2.12822 6.982
0.299197 8.10298 9.37467
0.896781 7.5522 3.40092
2.4365 0.4528 2.16259
0.743771 0.508097 8.03523
1.96362 4.37647 1.80962
7.64687 5.93315 1.27859
0.0328981 0.0170766 1.07412
4.06555 0 6.59923
1.85364 0.625915 5.87535
4.88218 7.59685 2.34993
5.42983 2.90533 6.88498
7.32916 4.75849 1.83605
2.62159 8.10648 0.165421
1.27135 6.4321 4.42926
9.85529 1.54345 7.87729
9.53524 5.57468 3.32804
3.83639 3.5479 2.17626
7.33256 6.02042 5.1374
6.52162 5.24173 4.70655
8.74371 6.70955 0.464276
3.50261 0.143986 0.577817
8.02552 1.52557 5.96786
2.59044 0.631043 5.76999
0.387469 2.50623 3.29313
0.526002 0.325113 7.53818
1.29906 2.22321 7.69961
1.66482 1.47515 4.11521
0.292198 0.451134 4.15986
1.99558 1.70358 9.89527
3.99426 7.88647 0.855634
3.58235 0.543218 0.542775
8.78758 7.89981 3.33319
3.09244 9.23629 5.14721
2.24822 0.30768 8.62443
0.666608 2.68453 4.01816
5.07638 9.25403 8.89672
7.96652 1.6754 5.65283
7.8166 3.14247 4.40997
0.227685 2.36871 5.33161
7.77798 2.00613 2.16811
2.93803 0.24985 0.382116
7.15779 4.28136 9.27804
2.05182 1.60153 4.68789
0.961632 3.73839 3.86104
8.68229 5.34884 8.72385
9.7958 3.01236 6.6797
9.43221 1.50134 6.12144
6.87385 0.532532 1.31134
3.99038 0.225639 6.66751
6.77731 8.2476 3.55577
3.109 7.58516 3.78189
9.94787 0.244978 3.28711
8.26099 8.3311 4.67635
1.81325 0.48214 0.608792
3.52838 0.308031 0.200984
2.94615 4.27949 4.72847
3.93555 0.497053 8.30841
8.76235 4.19675 2.0193
9.47116 0.700186 1.61628
3.47638 8.06437 0.612757
3.04896 0.312698 0.558531
7.12844 4.61096 5.49004
9.62743 2.59082 9.44538
3.60165 0.171586 9.24881
2.1485 7.84797 7.70738
3.31682 0.246275 0.883263
2.15903 5.03482 9.09939
0.174967 0.940213 8.25952
9.36952 0.593917 7.63083
5.45665 6.41392 9.6516
5.01376 2.03296 2.95694
0.804707 7.17079 2.7317
7.11843 0.877769 4.73579
9.55042 6.69697 1.13292
2.27374 0.239641 9.12847
0.605656 1.87871 0.143977
2.42506 4.04791 1.23385
2.20615 1.1513 7.36755
7.37145 9.5863 5.04668
6.26904 0.607109 5.9628
3.06618 0.44701 0.393079
4.60571 8.53796 7.09934
4.66241 2.37797 3.06086
3.78789 0.0561886 2.08867
3.21681 0.0704914 0.219372
9.8809 2.58023 9.03006
6.35129 0.195219 0.852515
2.19512 1.77744 9.55767
6.97383 5.12572 1.79916
3.1629 1.32083 2.51793
3.17604 0.554138 0.489694
2.64274 1.15123 6.58138
2.2053 1.12051 7.24213
2.87763 0.327995 1.5891
10 1.01396 3.67069
6.97693 0.472347 1.05661
7.47906 2.3593 1.06796
5.59941 0.188587 3.14243
8.83076 1.09817 9.13404
0.687554 2.54514 5.04185
8.60842 1.58519 0.246684
7.54163 1.20269 9.41276
2.79488 2.55387 5.4132
8.58107 1.70618 4.41002
9.37251 4.13036 0.541198
6.33584 5.55471 4.63956
2.31005 1.8379 0.160354
4.26895 1.22995 8.27059
0.924631 4.6362 7.77246
1.85609 0.284776 6.24044
3.09128 0.743136 0.190036
8.03319 1.70313 5.97756
1.77607 0.9221 0.209686
3.57818 2.54871 9.00795
0.403298 0.306547 5.68582
1.86282 1.15004 9.70943
2.70177 1.30036 6.58708
2.36774 4.35522 1.00176
0.111807 0.626612 7.67026
9.66749 8.65474 4.13586
3.00591 0.456195 0.534688
5.86706 5.94647 9.10711
2.04161 2.16028 9.12477
0 10 3.07122
3.52035 0.206848 8.4681
8.31762 3.38972 8.61897
3.17859 0.312864 0.116598
3.30989 6.5091 3.99309
7.43016 0.330314 1.79257
3.25188 0.502272 1.56148
3.34621 0.677713 0.753241
2.86018 0.370533 0.972727
6.24991 5.62861 0.515055
8.29199 1.28668 3.36192
5.97901 1.01759 6.22858
3.2018 0.530449 0.595242
1.03482 0.305608 4.12909
5.92735 0.275031 1.9532
3.42753 0.338482 0.802609
3.43439 0.374474 0.549455
3.2169 0.477906 0.438216
6.63184 0.258317 2.18149
2.97367 0.478468 0.797672
2.7252 0.159391 6.18624
3.38536 9.87969 5.53341
4.74227 0.264091 6.91931
3.13754 0.532756 0.939287
4.21554 3.48164 9.81335
4.75036 2.42449 2.75422
4.8491 9.5944 0.898518
3.33943 0.484361 0.281637
3.0201 0.482267 0.720686
9.41381 9.09556 4.86565
9.18255 0.354553 7.85039
10 4.58171 2.5723
4.27153 0.504015 7.81804
3.81747 0.432024 0.859703
3.5919 0.669818 0.968333
3.06972 1.2945 6.37947
3.6305 0.0772929 0.320558
9.22423 1.02425 2.22582
8.07938 5.59554 0.182018
4.93837 0.521462 6.7701
2.99088 0.241631 0.757818
9.27605 0.996723 4.84353
4.14433 1.09935 3.64964
4.14636 4.87761 0.30237
2.76376 0.251047 0.215502
3.11368 0.484573 0.779788
9.15209 5.38918 1.09432
9.45891 2.90549 8.36325
2.23731 0.343165 8.70301
5.75535 0.432558 0.71427
3.07104 0.226287 0.909364
4.33441 0.30157 8.47296
0.486295 3.29145 3.11192
9.16678 1.28506 9.29838
1.81252 0.812818 5.92567
3.11059 0.300631 0.170849
8.12322 0.6149 9.27724
3.47689 0.385808 0.467936
2.60131 0.244516 0
3.61091 0.589422 0.930408
3.79798 0.156687 0.815609
4.05337 0.36152 7.64957
7.42301 3.1737 10
0.196793 0.59263 6.4078
1.02475 0.309063 3.74631
4.11631 7.94948 7.28031
4.1947 0 8.43883
3.21786 0.638638 0.209157
1.38172 8.41606 7.90463
4.58482 0.461589 7.81381
5.79384 0.719931 0.65328
5.86478 0.806171 1.12142
3.08041 0.483629 0.280148
6.70554 0.549804 5.87142
4.44686 0.0932021 8.41071
1.43987 4.91733 6.11548
4.5006 0.305764 8.62762
3.67449 0.286015 0.862479
8.22547 3.53812 2.27488
2.78263 0.200791 6.1628
5.53696 9.68629 2.86702
3.0732 0.429782 8.55473
5.04671 8.98394 0.517759
7.7126 0.273053 0.780828
4.15963 0.491175 8.37906
6.41129 0.196721 0.805095
3.49926 0.633575 0.904543
3.54224 0.184547 0.493284
9.22815 6.39309 0.928238
5.95664 4.9632 5.36945
3.17697 2.78515 4.29415
5.93943 5.31711 9.96377
5.09943 0.183794 6.88654
3.81933 3.33804 2.55795
7.97289 7.64861 2.35369
4.87388 1.76872 2.5505
3.2663 0.244932 0.424356
7.353 0.445128 1.25749
6.46514 0.190459 1.14691
9.55477 3.27028 4.11121
1.41893 0.827663 2.41551
5.84376 7.43592 6.05236
8.0859 1.82093 0.200112
3.41468 0.108241 0.653662
10 0.557042 7.61767
7.31657 4.94697 8.21879
2.93053 4.86109 5.54508
0.860569 8.9357 6.79378
7.63782 0.145157 1.82162
2.56931 0.560523 0.0804247
0.713572 0.533352 7.60491
4.6688 0.796842 8.57946
4.20584 0.454085 8.36749
3.35127 0.139433 0.201755
3.42253 0.291931 0.36568
9.8513 2.51517 9.08654
3.21362 0.381912 0.342492
0.404315 2.80382 3.50591
2.86333 0.0708232 6.06018
6.77041 0.274357 3.46274
5.04212 0.825806 0.19459
3.05686 0.444913 0.625239
0.0293066 0.575489 8.05018
2.98959 0.443186 1.60568
3.13208 0.25969 0.773988
1.30823 0.114262 4.42136
3.91922 3.32392 2.55948
4.71121 0.428235 8.22105
2.04942 0.542825 6.06148
6.28885 0.262671 0.617318
3.17402 0.315152 0.668975
9.9434 2.49485 8.82305
0.997791 0.561805 7.66359
7.51823 0.638672 4.94145
1.87748 4.65335 6.24779
6.31828 0.368766 6.19095
7.60394 4.80806 1.60049
4.3148 0.328293 8.32716
0.16 0.294461 6.18619
4.44329 0.300561 8.73869
2.65894 0.11139 0.818994
7.32925 0.464575 1.33714
7.22739 2.91663 0.959567
3.4429 0.154657 1.20931
5.60245 0.289559 3.0657
1.08029 9.7227 2.74705
3.64006 0.425386 0.845828
9.2656 8.33036 0.639988
3.09385 0.657722 0.498559
4.4404 0.504294 8.26635
3.11823 0.292988 1.40451
6.50884 0.262693 1.41864
3.69175 3.80327 8.81819
1.56363 4.42475 6.51176
3.41652 0.30345 0.691555
5.42937 0.36944 8.69923
3.43799 0.362619 8.39332
4.45583 0.324432 7.12058
6.37662 0.295372 9.07547
4.04035 0.591932 8.68758
4.31425 0.315727 8.73517
3.58969 0.300161 0.46591
3.0975 0.26512 0.982798
6.50858 0.0312133 1.86885
3.55615 0.338909 0.772694
3.08438 0 0.774266
6.69585 0.419774 9.20317
3.87515 0.154187 0.906656
3.10725 0.431868 0.608304
3.5675 0.574491 8.83393
4.44054 0.365676 8.27143
3.3579 0.635453 0.808664
3.76572 0.23623 0.340155
6.72364 0.209964 1.32704
4.18322 0.105753 8.88713
3.54101 0.534588 0.677108
3.233 0.353544 1.09465
6.52028 0.660754 1.41314
4.54101 0.251626 8.54051
4.56415 0.216733 7.98718
3.04599 0.428538 1.10239
3.68494 0.69035 0.345877
5.93976 0.660759 1.18489
4.59677 0.0567234 8.54623
7.5881 0.42887 7.30818
3.88646 0.458236 8.88762
7.42956 2.81765 0.497053
6.49617 0.655639 1.38409
2.00742 0.121892 6.26113
4.12568 0.509335 8.18535
3.50413 0.138784 1.01079
3.07432 0.344205 0.470272
6.10123 0.277107 1.11888
4.6599 0.0822698 8.59328
4.30995 0.117897 8.52139
3.91453 0.246555 8.08105
3.42029 0.711825 0.688666
3.55022 0.39716 0.954789
3.0096 0.604243 0.900816
3.90791 0.484435 8.15499
3.19145 0.551909 0.810126
0.448672 0.521174 8.13554
4.36665 0.575612 8.28911
3.21853 0.480057 0.491674
3.2119 0.441229 0.554864
7.55879 0.268775 7.52206
6.19673 0.319602 1.60397
3.43726 0.651996 0.851406
3.31636 0.526948 0.625074
4.02434 0.696387 8.08023
3.04112 0.280881 0.704409
0.6939 0.913508 8.3553
4.22257 0.67349 8.47313
3.21722 0.449173 0.556457
0.498909 0.338962 5.83077
6.07694 0.752525 1.08829
6.14503 0.243915 1.58847
POINT_DATA 400
SCALARS particleColor float 3
LOOKUP_TABLE default
0 0.407438 1
0.158293 1 0.841707
0 0.904942 1
1 0.495997 0
1 5.96046e-08 0
0.878166 1 0.121834
1 5.96046e-08 0
0 0.76623 1
0.0530154 1 0.946985
1 5.96046e-08 0
0.446851 1 0.553149
0.581635 1 0.418365
1 5.96046e-08 0
0.845523 1 0.154477
0 0.595687 1
1 5.96046e-08 0
0 0.787895 1
0 0.595807 1
0 0.997371 1
0.653946 1 0.346054
0 0.528046 1
1 0.608647 0
1 5.96046e-08 0
1 0.732783 0
1 5.96046e-08 0
1 5.96046e-08 0
0 0.820072 1
0.645925 1 0.354075
1 5.96046e-08 0
0.931411 1 0.0685894
1 5.96046e-08 0
0.468624 1 0.531376
0.851376 1 0.148624
1 0.639156 0
0 0.956833 1
1 5.96046e-08 0
0.391974 1 0.608026
0 0.719777 1
1 0.329522 0
0.584323 1 0.415677
1 5.96046e-08 0
0.723949 1 0.276051
0.550918 1 0.449082
0.812156 1 0.187844
0.67798 1 0.32202
0.334619 1 0.665381
0.626123 1 0.373877
0.560477 1 0.439523
0 0.599671 1
1 0.789992 0
0 0.356309 1
0.410701 1 0.589299
0.0504542 1 0.949546
1 0.887252 0
0.118736 1 0.881264
0 0.645153 1
0.548927 1 0.451073
0 0.614106 1
0.829691 1 0.170309
0.418254 1 0.581746
0 0.782561 1
1 5.96046e-08 0
1 0.998192 0
0 0.481392 1
0.362395 1 0.637605
1 0.891267 0
0.586263 1 0.413737
1 5.96046e-08 0
1 5.96046e-08 0
0.244801 1 0.755199
0.219954 1 0.780046
0 0.727031 1
0.5637 1 0.4363
0.500722 1 0.499278
1 0.559961 0
1 0.759182 0
0 0.757098 1
0.343984 1 0.656016
1 0.940859 0
0 0.779007 1
0 0.36598 1
0.957292 1 0.042708
1 0.865266 0
0 0.7883 1
1 5.96046e-08 0
0 0.367374 1
1 5.96046e-08 0
1 5.96046e-08 0
0.445487 1 0.554513
0.953466 1 0.0465339
0 0.594482 1
0.48124 1 0.51876
1 0.481879 0
0.0678924 1 0.932108
0.290511 1 0.709489
0.708542 1 0.291458
0.419192 1 0.580808
0.0512848 1 0.948715
0.889381 1 0.110619
0.160067 1 0.839933
0 0.182832 1
1 0.924283 0
0.161612 1 0.838388
0.711532 1 0.288468
0 0.918068 1
0.905513 1 0.0944867
1 0.852077 0
0 0.91791 1
1 0.197301 0
1 5.96046e-08 0
1 0.0234358 0
1 0.692065 0
1 0.938704 0
0.115484 1 0.884516
0 0.931688 1
1 5.96046e-08 0
0 0.372008 1
1 0.707235 0
0 0.671996 1
0.763041 1 0.236959
0 0.643887 1
0.975733 1 0.024267
1 0.111707 0
0.699276 1 0.300724
0.437361 1 0.562639
0 0.625323 1
0.54217 1 0.45783
0 0.665185 1
0.256129 1 0.743871
1 5.96046e-08 0
1 5.96046e-08 0
1 0.179117 0
0.58935 1 0.41065
0.479404 1 0.520596
0 0.716506 1
0 0.78125 1
1 0.980337 0
0.113614 1 0.886386
1 0.540305 0
0.510599 1 0.489401
0 0.477878 1
0 0.906029 1
0.912809 1 0.0871909
0.989214 1 0.0107865
0 0.296106 1
0 0.985168 1
0 0.273637 1
1 0.829589 0
0.309171 1 0.690829
0.520272 1 0.479728
0 0.433519 1
0 0.632862 1
0 0.685498 1
0 0.686598 1
1 5.96046e-08 0
0 0.558066 1
0.203942 1 0.796058
0 0.473604 1
0.641287 1 0.358713
1 5.96046e-08 0
0 0.661231 1
0.00621884 1 0.993781
0 0.889092 1
1 0.563733 0
0 0.677143 1
0.484025 1 0.515975
1 5.96046e-08 0
0.942072 1 0.0579276
1 0.589848 0
0.597346 1 0.402654
0 0.310696 1
1 0.687438 0
1 0.830973 0
1 5.96046e-08 0
0.0433491 1 0.956651
1 0.0147172 0
0 0.37767 1
0.921651 1 0.0783485
0.800196 1 0.199804
0.61861 1 0.38139
0 0.57078 1
1 0.926083 0
0.777667 1 0.222333
1 5.96046e-08 0
0 0.663198 1
1 0.889475 0
0 0.323011 1
1 5.96046e-08 0
0 0.220075 1
0 0.461636 1
0 0.310683 1
0 0.563576 1
1 0.8164 0
1 5.96046e-08 0
1 0.751346 0
0 0.39143 1
0 0.820212 1
0.946121 1 0.0538793
0 0.635944 1
0 0.717738 1
0 0.634479 1
0 0.65822 1
0.813315 1 0.186685
0 0.404214 1
0.764314 1 0.235686
0 0.478039 1
0 0.433398 1
0.765399 1 0.234601
0 0.657879 1
1 0.406199 0
0 0.216806 1
0 0.691774 1
1 5.96046e-08 0
0 0.980649 1
1 5.96046e-08 0
0 0.21878 1
0 0.524325 1
0 0.254718 1
1 5.96046e-08 0
0.51261 1 0.48739
1 0.768821 0
0 0.75248 1
0.264744 1 0.735256
0 0.790416 1
0 0.714753 1
0 0.823107 1
0 0.866029 1
0 0.685408 1
0 0.750651 1
0 0.626101 1
0.0805044 1 0.919496
0.00962859 1 0.990371
0.1523 1 0.8477
0 0.666207 1
0 0.398907 1
0 0.407128 1
1 0.124541 0
0 0.829572 1
0.0243166 1 0.975683
1 0.798301 0
0 0.47849 1
0 0.325925 1
0 0.658569 1
0 0.235463 1
0 0.177704 1
1 5.96046e-08 0
0 0.628779 1
0 0.807028 1
1 5.96046e-08 0
1 0.987738 0
0 0.602448 1
0.0861566 1 0.913843
0 0.120434 1
0.741339 1 0.258661
0 0.213371 1
0 0.596418 1
0 0.458393 1
0 0.150412 1
0 0.728415 1
0 0.466502 1
0 0.485561 1
0.458775 1 0.541225
0 0.710111 1
1 5.96046e-08 0
0 0.716276 1
1 0.48697 0
0 0.678391 1
0 0.354411 1
0.321709 1 0.678291
0 0.897444 1
0 0.502635 1
0.360281 1 0.639719
0.791084 1 0.208916
0 0.155925 1
0.839636 1 0.160364
0 0.416024 1
0 0.390249 1
0.810976 1 0.189024
0 0.82636 1
0 0.381903 1
0 0.612723 1
0 0.775233 1
0.106537 1 0.893463
1 5.96046e-08 0
1 5.96046e-08 0
0 0.805575 1
0 0.324394 1
0 0.705987 1
0.603785 1 0.396215
1 5.96046e-08 0
1 5.96046e-08 0
0 0.707938 1
0 0.460227 1
0 0.637587 1
0 0.869531 1
0 0.773918 1
0 0.461307 1
0 0.651066 1
0 0.991673 1
0 0.929764 1
0.510848 1 0.489152
0 0.833823 1
0.464305 1 0.535695
1 5.96046e-08 0
0 0.898188 1
0 0.36775 1
0 0.442226 1
0 0.338818 1
0 0.705314 1
0 0.89777 1
0 0.825578 1
0 0.79917 1
0 0.761302 1
0 0.794801 1
0 0.849558 1
0 0.235157 1
0.780387 1 0.219613
0 0.676482 1
0.203024 1 0.796976
0 0.434759 1
0 0.539538 1
0 0.387159 1
0 0.816791 1
0 0.905266 1
0 0.522 1
0 0.386684 1
0 0.418327 1
0.147803 1 0.852197
1 5.96046e-08 0
0 0.531452 1
0 0.69924 1
0 0.78545 1
0 0.28447 1
0 0.583625 1
0 0.377188 1
1 0.273853 0
0 0.593516 1
0 0.67842 1
0.934846 1 0.065154
0 0.813685 1
0 0.324475 1
0 0.33005 1
0 0.577837 1
0 0.551198 1
0 0.0913492 1
0 0.303637 1
0 0.55162 1
0 0.400019 1
0.117384 1 0.882616
0.713313 1 0.286687
0.0512781 1 0.948722
0 0.763449 1
0 0.752592 1
0 0.896017 1
0.134411 1 0.865589
0 0.294826 1
0.31165 1 0.68835
0.025426 1 0.974574
0.271996 1 0.728004
0 0.270552 1
0 0.311764 1
0 0.598751 1
0 0.491235 1
0 0.417413 1
0 0.843651 1
0 0.908032 1
0 0.486505 1
0.900796 1 0.0992044
0 0.830419 1
0 0.809075 1
0 0.370526 1
0 0.702884 1
0 0.960726 1
0 0.638045 1
0.146474 1 0.853526
0 0.394604 1
0 0.749539 1
0 0.589725 1
0 0.864376 1
0 0.462618 1
0 0.760255 1
0 0.178307 1
0 0.730299 1
0.130711 1 0.869289
0 0.153292 1
0 0.34903 1
0 0.754516 1
0 0.751414 1
0.951409 1 0.0485906
0 0.0220502 1
0 0.761528 1
0 0.634946 1
0 0.577439 1
0 0.594752 1
0 0.631086 1
0 0.31927 1
0 0.62604 1
0 0.826619 1
0 0.484925 1
0 0.55408 1
