# vtk DataFile Version 3.0
Particle simulation
ASCII
DATASET POLYDATA
POINTS 400 float
5.99709 1.79746 9.50484
0.876008 4.04537 2.33628
0.448667 2.81488 2.97498
2.66343 0.657604 0.977337
9.07071 1.07896 3.66841
7.06333 2.84117 5.01576
8.26778 3.76084 2.33172
3.7524 4.9735 0.784157
7.67146 4.40224 0.321688
7.40377 1.035 3.67083
3.95034 0.396293 0.85576
2.39191 1.24717 2.68775
8.51698 6.73782 5.78452
3.64837 0.616206 0.755451
7.59378 2.52385 3.51475
9.46418 3.88457 8.69611
2.92107 6.12818 0.600949
1.48879 0.588898 2.97195
1.35145 7.51684 9.60559
7.30307 1.08023 3.77998
3.23513 0.370094 2.41802
0.867674 0.613551 1.01286
3.61443 6.84334 6.6147
7.8836 0.241724 3.96508
8.85346 8.76845 9.83899
3.24977 0.499028 2.41763
10 4.71368 0
2.94547 0.340438 2.1061
7.4892 0.42223 6.49943
1.74707 0.524478 3.19022
8.3219 6.27209 4.48787
9.20339 0.391525 1.3763
4.1228 0.593056 8.45047
7.76303 0.427168 3.86336
1.92318 0.495181 3.10465
0.697115 0.692547 0.885961
6.71983 0.842941 9.8716
2.17731 0.236031 1.51724
6.22266 0.674567 0.0401779
4.42221 1.46981 1.53736
3.5077 0.186739 4.4662
8.33688 6.55794 4.5828
4.53369 6.29354 5.89355
8.18603 3.30214 4.60119
8.60353 0.0979299 8.33187
5.73059 0.407467 1.70744
7.1405 2.44204 6.05452
2.86037 0.2065 1.5727
5.68051 0.258728 1.86772
6.56151 7.31218 6.38948
0.440643 3.69742 2.6142
8.42271 6.53683 4.66455
6.25191 0.348825 5.8031
7.65081 0.925283 3.79831
8.97669 0.25382 8.59197
5.69796 0.485589 1.76888
4.50018 0.76554 8.47162
2.72723 0.32595 1.68624
5.7778 0.318387 1.913
0.639495 3.51726 7.82128
6.46083 2.04972 9.58548
5.05468 0.725319 8.0697
2.4731 0.518894 1.41339
7.34243 1.07371 3.73073
7.42614 0 5.02307
8.32742 0.475178 5.19576
6.96923 0.414326 6.74654
0.534201 3.45067 2.67989
6.0088 0.461406 1.74343
4.87015 1.00763 8.71036
5.31725 0.497232 8.58031
2.71888 1.17584 2.33956
9.00497 1.74007 4.62916
7.36733 1.07833 3.74475
6.9092 0.973372 9.83621
7.40237 0.363538 9.60936
6.93847 0.391843 6.7508
4.92255 0.805513 8.33607
5.8123 0.839513 1.63084
4.02806 0.185522 7.33813
2.37358 0.21125 1.39288
1.62201 0.378429 2.98819
2.02395 1.15529 2.04461
2.05464 0.346717 1.95154
4.54596 0.47284 7.45303
4.87373 0.360054 7.29683
4.81871 0.605757 7.71377
8.47722 0.668808 1.79056
4.10688 1.1907 1.43827
9.1868 0.251801 1.02228
2.4635 0.0380182 1.70564
1.63603 0.572333 0.736721
1.21368 2.95758 9.48355
2.07001 0.368558 1.9726
4.55128 0.4778 7.49096
4.79616 0.525203 7.45466
4.9897 0.704998 8.7853
2.31087 0.377357 0.542748
4.50482 0.0571228 5.85019
9.21417 0.269315 1.02324
2.37978 0.642449 0.816724
4.37624 0.026464 10
0.452225 0.666196 0.519221
7.28798 0.481985 6.64364
8.07447 1.65366 0.196887
2.70213 0.576473 1.66624
4.58983 0.498765 8.45572
5.71096 0.624134 1.62653
5.73096 0.271599 1.87529
9.69859 0.144987 1.80413
0.580846 2.40217 3.19455
7.59288 0.959701 3.71251
3.90668 0.298948 2.8119
9.18096 0.339547 1.1487
2.5052 0.35292 1.69739
2.56387 0.221275 0.618769
4.54403 0.601047 8.59345
5.86884 0.32169 2.20715
5.78406 0.328365 1.88055
0.807361 0.558411 0.875546
2.2671 0.151297 1.73142
9.28242 3.68202 2.15563
6.36285 2.38363 8.56961
4.79059 0.609779 7.70604
4.64535 0.486026 8.3269
1.8253 0.651271 3.14049
2.95841 0.348899 1.17525
7.64538 0.707948 3.96736
0.981341 2.06097 7.34669
3.63664 0.447998 0.500157
2.27561 0.223631 1.65652
5.66325 1.14346 1.49011
4.9946 0.657802 7.97835
7.68595 0.431714 6.37318
4.9169 0.506596 6.19219
1.82753 0.0978237 2.88747
1.9558 5.06623 9.51727
7.7399 0.699902 4.01931
4.96016 0.268168 7.7316
6.67524 0.532173 6.29561
2.57483 0.526585 1.77063
6.46084 0.529943 6.09367
0.0803109 0 6.72794
0.386351 0.207896 1.19738
2.62093 0.0395135 1.54386
2.88322 0.687277 0.704582
8.66387 0.267765 8.4073
2.00543 0.0692282 2.62755
2.3845 0.139072 1.96293
2.29228 0.29058 2.92565
2.57827 0.511755 1.79741
6.37223 0.711937 6.36358
2.5916 0.341574 2.03291
4.90448 0.202212 7.88611
2.90475 2.43019 0.458932
2.58055 0.504791 1.14558
8.75011 0.285721 8.13862
2.47526 0.281673 1.63479
6.26342 0.674614 6.31991
3.15392 0.514134 2.14425
0.735634 0.83061 1.07219
0.379759 2.70294 3.12698
5.15038 0.333164 7.484
1.62899 0.531134 2.6726
0.417308 3.57985 2.54792
6.55787 0.474525 6.52516
5.73184 0.505066 8.69491
4.83771 0.35462 8.64934
6.10005 3.1481 8.88698
8.85749 2.29918 1.08353
2.61888 0.426835 0.736961
2.02583 0.116629 0.96935
4.25389 0.627025 8.9423
2.40336 1.37615 2.11459
2.09988 0.0510271 2.81825
1.01505 0.708269 0.62179
4.86873 0.79234 8.79358
4.89822 0.841428 8.89032
4.84854 0.712802 8.12028
2.48216 0.143225 1.92084
2.03982 0.449792 1.97397
1.85649 0.495034 3.16084
6.71261 3.10631 9.2008
2.57694 0.727336 2.28075
5.25651 0.227158 7.66222
1.81329 0.100047 2.22855
2.83428 0.98964 1.26159
1.12587 3.01921 9.28885
3.32553 0.197127 3.87539
2.24111 0.2119 1.77352
2.08239 0.463824 1.98659
2.50447 0.0680799 1.84229
4.76093 0.717734 8.13139
2.20736 3.74954 1.98112
6.676 7.95979 9.95444
2.22786 0.539296 2.07593
3.87471 0.688572 2.56505
1.25051 5.06299 9.44923
2.10898 0.25688 2.64145
1.53266 0.849462 3.06475
3.63749 0.476992 2.78864
5.97116 0.496998 1.64137
9.40245 0.556201 8.76563
5.41071 0.287403 8.06669
8.16856 0.173722 7.5348
4.58052 0.590471 8.32797
2.86466 0.19991 1.84651
3.5149 0.324132 0.449317
2.30752 0.5755 0.82996
9.08288 0.171011 1.12626
1.93771 0.26489 2.01105
5.7307 0.145223 1.5792
4.67107 0.150296 8.01785
6.69906 0.519512 6.1602
6.73165 1.05852 4.95866
4.59553 0.773265 8.48632
2.88069 0.222959 1.82883
3.71586 0.336331 2.53312
1.35177 0.747434 2.927
9.31591 0.221661 1.17479
6.89282 5.68632 5.46486
3.01437 0.467979 7.2824
4.84124 0.238293 7.51131
2.62393 0.277364 1.83098
4.85135 0.524518 8.35522
2.84314 0.413548 1.90318
7.10841 2.52463 3.38213
2.14637 0.175411 1.81433
2.92832 0.091384 2.24728
4.92464 0.826599 9.02133
7.45481 1.02638 3.86931
5.46908 0.593102 7.70644
8.47437 0.197343 8.14484
2.31515 0.190792 1.70876
4.89969 0.684738 8.17056
2.25621 0.173089 3.29778
8.64788 0.216608 8.04644
3.28509 0.357739 2.70568
2.27751 0.247446 1.12843
2.35253 0.609459 1.81764
3.19025 0.521019 2.11526
1.95353 0.19528 2.81069
2.58599 0.116023 1.70742
3.70615 0.608436 2.94186
5.10864 0.0913941 8.24577
2.00234 0.72132 2.72115
3.0037 0.494319 0.363703
4.836 0.553956 8.5323
5.71172 0.210535 1.97818
4.92932 0.634313 8.54889
2.37878 0.527269 0.907129
5.72926 0.851611 1.60323
4.99589 0.415806 8.50111
1.89038 0.540587 0.692702
8.69387 0.368066 8.1045
2.38931 0.266684 1.44618
9.19274 0.35808 1.4439
4.89752 0.742724 8.14585
5.68615 0.255313 1.98379
4.98279 0.605545 8.54335
2.19318 0.317042 2.75367
7.05657 5.8571 5.60971
4.86439 0.0544285 7.88829
7.79277 0.378846 3.90045
4.55091 0.699858 8.68683
4.34513 0.371963 4.33497
7.45877 0.929506 4.40823
5.44101 0.619482 8.1239
8.55365 0.346854 8.42672
2.60868 0.389445 0.882436
1.98731 0.763985 2.92467
7.70149 6.62842 5.47126
2.32912 0.731948 0.843806
7.56395 0.326972 4.38736
4.9482 0.315452 7.94291
5.29139 0.360393 8.68474
7.69508 0.526744 3.78411
4.81368 9.86974 8.73623
8.35057 0.0874567 7.87102
2.26654 0.46157 2.08367
9.64336 0.321317 1.07234
6.08955 0.381372 2.16038
5.34627 0.0375154 1.73216
7.17125 0.617352 3.944
9.73463 0.0512148 8.53083
9.05338 0.0569338 8.52371
1.89953 0.332252 3.11645
2.35017 0.800426 2.30874
6.60268 0.428802 6.29769
8.78827 1.68624 4.89546
9.6059 0.477944 1.24964
6.01283 0.330661 2.26691
3.74264 0.748563 2.82984
7.3638 1.10065 3.64742
4.8609 0.410539 7.97284
5.30917 0.759378 8.2861
2.23648 0.574946 2.20061
2.65956 1.17356 1.86487
2.47995 0.104874 1.09594
1.85559 0.504816 2.90862
9.16646 0.441469 0.996825
6.58287 0.497691 6.30012
3.67616 0.512853 0.842825
5.85307 0.11567 1.80249
2.81302 0.555273 1.36641
5.63334 0.312965 1.81034
3.39432 0.764648 2.77675
2.39263 0.229583 1.97433
2.499 0.19246 1.40056
3.31244 0.418022 2.8944
7.32694 0.318623 4.0797
6.97155 0.654056 6.46794
8.57231 0.162174 8.04418
3.67875 0.332511 2.60603
2.84802 0.459411 1.17116
6.83371 1.23149 3.81469
2.07327 0.573068 2.58903
6.66572 0.607589 5.35345
5.6503 0.514478 1.92149
2.43633 0.699565 1.10575
4.78836 0.570752 9.18989
2.11828 0.742834 0.817014
4.83262 0.176604 8.44715
3.21034 0.429603 2.05947
9.43484 0.107061 1.06126
9.15021 0.590272 1.35593
2.38138 0.618927 2.32186
6.28234 0.312778 1.99136
8.68657 0.299899 0.953706
3.30081 0.50023 2.40434
4.72731 0.662553 9.13848
2.39618 0.364035 1.75
4.71798 0.507203 8.61168
2.29702 0.429433 1.45907
9.43606 0.537898 1.37764
5.10191 0.182489 8.05049
3.59551 0.545698 2.69686
2.11872 0.609262 3.18892
9.20872 0.45766 1.07118
2.90073 0.509652 1.98546
4.89625 0.942926 8.63543
2.52837 0.489038 1.6488
4.92355 0.44442 7.90322
4.95668 0.163071 7.84637
2.14522 0.17039 1.37513
2.7769 0.591806 1.49623
5.83762 0.196602 1.94186
2.21891 0.752253 0.592725
2.72288 0.645514 1.66193
2.69842 0.44488 1.00346
3.13707 0.559855 2.2552
2.95997 0.335096 1.91151
4.73791 0.344246 7.59703
4.80671 0.210906 7.90086
1.9811 0.473805 2.18835
3.34791 0.576055 2.49605
6.32103 0.6129 2.36639
4.36609 0.645534 8.61454
2.64709 0.729928 1.76231
2.05985 0.503949 3.19574
5.50923 0.181809 1.68231
6.58582 0.943216 6.30853
4.5535 0.334268 8.07405
3.42425 0.598336 2.56153
2.29494 0.864942 0.951797
8.44774 0.228243 8.10722
4.98071 0.575509 8.45842
4.9233 0.279358 8.24269
5.2469 0.745582 7.89627
2.66058 0.55139 0.514558
5.48465 0.210175 1.6873
6.48528 0.839411 6.32563
4.74678 0.681313 7.73517
2.66331 0.790493 1.09675
1.7751 0.502286 0.381572
8.66148 0.183983 8.33735
5.05183 0.303434 8.127
4.87769 0.788522 8.40425
4.39933 0.535528 8.20934
2.42417 0.0315062 2.0435
2.93379 0.691141 1.46332
2.00491 0.490979 1.99332
4.70295 0.57751 8.10882
2.31743 0.35456 1.72033
7.46266 0.831301 3.58112
4.56844 0.638319 8.39098
1.73228 0.419558 3.00153
2 0.419943 1.59991
6.99515 0.73258 3.73939
5.91408 0.298116 2.35083
2.9189 0.680691 1.47566
2.17271 0.390321 1.8061
4.69454 0.728299 8.24187
2.63684 0 1.30417
7.44605 0.82793 3.58998
5.10107 0.0931663 7.41181
1.73324 0.4124 3.01056
3.02207 0.426469 1.83875
9.80056 0.0740111 1.79631
5.93057 0.314565 2.37124
POINT_DATA 400
SCALARS particleColor float 3
LOOKUP_TABLE default
0.283918 1 0.716082
0 0.577812 1
0 0.448045 1
0 0.203692 1
0 0.463158 1
0.484654 1 0.515346
0 0.376505 1
0 0.727975 1
0.333242 1 0.666758
0 0.839358 1
0.0293246 1 0.970675
0 0.469076 1
0.2621 1 0.7379
0 0.13282 1
0 0.967491 1
0 0.561445 1
0 0.28326 1
0 0.661418 1
0.0706258 1 0.929374
0 0.516514 1
0 0.428739 1
1 0.233094 0
0.0595949 1 0.940405
0 0.32827 1
0 0.675336 1
0.132358 1 0.867642
1 0.0609569 0
0 0.753259 1
0 0.721557 1
0 0.683171 1
0.776856 1 0.223144
0 0.64009 1
0.0238542 1 0.976146
0 0.272711 1
0.120631 1 0.879369
0 0.695938 1
0 0.633076 1
0 0.350217 1
0 0.301178 1
0.208698 1 0.791302
0 0.258709 1
0 0.273821 1
0 0.412031 1
0.542317 1 0.457683
0 0.280491 1
0 0.583385 1
0.233168 1 0.766832
0 0.375276 1
0 0.248691 1
1 0.972615 0
0 0.5456 1
0 0.697603 1
0 0.643302 1
0 0.197261 1
0 0.558695 1
0 0.38271 1
0 0.836138 1
0 0.689219 1
0 0.198132 1
0 0.524227 1
0.587851 1 0.412149
0.128826 1 0.871174
0.608294 1 0.391706
0 0.584487 1
0 0.756889 1
0 0.762805 1
0 0.626391 1
0 0.955574 1
0 0.547671 1
0 0.556987 1
0.0261973 1 0.973803
0 0.294317 1
0.427308 1 0.572692
0 0.64985 1
0.127961 1 0.872039
0.0247855 1 0.975214
0 0.808577 1
0 0.623307 1
0 0.647273 1
0 0.467308 1
0 0.0694251 1
0 0.72732 1
0 0.543003 1
0 0.216111 1
0 0.291879 1
0 0.327962 1
0 0.635526 1
0 0.834519 1
0.0703552 1 0.929645
0 0.493364 1
0 0.475609 1
0 0.557048 1
0 0.883691 1
0 0.151671 1
0 0.35238 1
0 0.364421 1
0 0.589779 1
0 0.509335 1
0.415187 1 0.584813
0 0.340663 1
0 0.909126 1
0 0.700938 1
0 0.695707 1
0 0.901449 1
0 0.510055 1
0 0.446517 1
0 0.904713 1
0 0.72888 1
0 0.516691 1
0 0.296965 1
0 0.842906 1
0.0188491 1 0.981151
0 0.374698 1
0 0.198934 1
0 0.786285 1
0 0.772152 1
0 0.560102 1
0.0810287 1 0.918971
0 0.514987 1
0 0.414634 1
0 0.293587 1
0 0.457083 1
0 0.933224 1
0.0768415 1 0.923159
0.55003 1 0.44997
0 0.318536 1
0 0.626149 1
0 0.40975 1
0 0.542313 1
0.0725718 1 0.927428
0 0.465108 1
0 0.526583 1
0 0.249935 1
0.267991 1 0.732009
0 0.320791 1
0 0.526928 1
0.502517 1 0.497483
0 0.484918 1
0.040526 1 0.959474
0 0.471066 1
0 0.682344 1
0 0.650286 1
0.271132 1 0.728868
0 0.620794 1
0 0.341126 1
0 0.532781 1
0.159531 1 0.840469
0 0.33867 1
0 0.695864 1
0 0.770343 1
0 0.672465 1
0 0.627547 1
0.0976901 1 0.90231
0.222244 1 0.777756
0 0.38395 1
0 0.525596 1
0 0.74128 1
0 0.310185 1
0 0.885188 1
0 0.226464 1
0 0.77069 1
0 0.774231 1
0 0.546125 1
0 0.696947 1
0 0.690261 1
0 0.548963 1
0 0.182048 1
0 0.65778 1
0 0.333535 1
1 0.240913 0
0 0.667876 1
0 0.524642 1
0 0.509451 1
0 0.800474 1
0 0.560476 1
0.482684 1 0.517316
0 0.529278 1
0 0.947738 1
0.110131 1 0.889869
0.489318 1 0.510682
0 0.240139 1
0 0.824658 1
0 0.554562 1
0 0.880332 1
0 0.28978 1
0 0.53828 1
0 0.62343 1
0 0.922648 1
0.104034 1 0.895966
0 0.777391 1
0 0.289201 1
0 0.903952 1
0 0.725639 1
0 0.372277 1
0.705566 1 0.294434
0 0.497535 1
0 0.313287 1
1 0.697922 0
0 0.557781 1
0 0.327647 1
0 0.731272 1
0 0.648716 1
0 0.715689 1
0.0602138 1 0.939786
0.249536 1 0.750464
0 0.41436 1
0 0.389673 1
0 0.542402 1
0 0.555348 1
0 0.618635 1
0 0.548766 1
0 0.704528 1
0 0.654729 1
0 0.754113 1
0 0.951114 1
0 0.3195 1
0 0.509973 1
0.00176367 1 0.998236
0 0.989374 1
0 0.762864 1
0 0.891032 1
0 0.80452 1
0 0.452713 1
0 0.282301 1
0 0.235277 1
0 0.803912 1
0 0.897695 1
0 0.996592 1
0 0.552735 1
0 0.809477 1
0 0.342175 1
0 0.566851 1
0 0.683777 1
0 0.329527 1
0 0.849166 1
0.156355 1 0.843645
0.4131 1 0.5869
0.00368402 1 0.996316
0 0.769325 1
0.265691 1 0.734309
0.00944725 1 0.990553
0.121983 1 0.878017
0 0.608662 1
0 0.685837 1
0 0.759993 1
0.0544143 1 0.945586
0 0.824426 1
0 0.849237 1
0 0.660931 1
0 0.617164 1
0 0.839573 1
0 0.951081 1
0 0.27457 1
0 0.772985 1
0 0.663723 1
0 0.514358 1
0 0.579248 1
0 0.693771 1
0 0.683398 1
0 0.696362 1
0 0.480179 1
0.600507 1 0.399493
0 0.904644 1
0 0.731254 1
0.0577014 1 0.942299
0 0.6676 1
0 0.758423 1
0 0.644118 1
0 0.451176 1
0 0.715603 1
0 0.904508 1
0.0452141 1 0.954786
0 0.801904 1
0 0.987765 1
0 0.751249 1
0.424536 1 0.575464
0 0.941136 1
0 0.697685 1
0 0.861546 1
0 0.126202 1
0 0.807378 1
0 0.483978 1
0 0.96311 1
0 0.447158 1
0 0.932482 1
0 0.673149 1
0 0.572793 1
0 0.957651 1
0 0.547235 1
0 0.943409 1
0 0.722382 1
0 0.576737 1
0 0.450315 1
0 0.966689 1
0.0767289 1 0.923271
0 0.256402 1
0 0.85417 1
0 0.698516 1
0 0.379567 1
0 0.787594 1
0 0.941869 1
0 0.645188 1
0.0246276 1 0.975372
0 0.920058 1
0 0.768637 1
0.260731 1 0.739269
0 0.923404 1
0 0.765665 1
0.195922 1 0.804078
0 0.775928 1
0.290182 1 0.709818
0 0.885021 1
0 0.76709 1
0 0.908995 1
0 0.600627 1
0 0.755717 1
0 0.488272 1
0 0.703184 1
0 0.626741 1
0 0.734498 1
0 0.710872 1
0 0.588808 1
0 0.586705 1
0 0.826741 1
0 0.862868 1
0 0.969332 1
0 0.394357 1
0 0.333957 1
0 0.373327 1
0 0.450077 1
0 0.659662 1
0 0.735548 1
0 0.589554 1
0 0.686777 1
0 0.250735 1
0.038547 1 0.961453
0 0.863028 1
0 0.506485 1
0 0.942317 1
0 0.696125 1
0 0.778135 1
0 0.813693 1
0 0.455818 1
0.178279 1 0.821721
0 0.45935 1
0 0.568201 1
0 0.735844 1
0 0.455413 1
0 0.761912 1
0 0.401484 1
0 0.933268 1
0 0.441053 1
0 0.992407 1
0.321423 1 0.678577
0 0.811871 1
0 0.412577 1
0 0.494995 1
0 0.939645 1
0 0.883725 1
0 0.472113 1
0 0.692068 1
0 0.401832 1
0 0.804469 1
0 0.378024 1
0.257893 1 0.742107
0 0.503026 1
0 0.284795 1
0 0.983386 1
0 0.664966 1
0 0.661505 1
0 0.706284 1
0 0.52552 1
0 0.774604 1
0 0.8624 1
0 0.647149 1
0 0.8755 1
0 0.654187 1
0 0.714652 1
0 0.688092 1
0 0.910514 1
0 0.360711 1
0 0.452654 1
0 0.37832 1
0 0.439213 1
0 0.771105 1
0.181398 1 0.818602
0 0.63565 1
0 0.442984 1
0 0.596754 1
0 0.648859 1
0 0.377289 1
0 0.296073 1
0 0.77614 1
0 0.233558 1
0.0502436 1 0.949756
0.0297548 1 0.970245
0 0.619314 1
0.100015 1 0.899985
0 0.498062 1
0 0.661029 1
