# vtk DataFile Version 3.0
Particle simulation
ASCII
DATASET POLYDATA
POINTS 400 float
1.76656 4.39573 8.14972
7.34288 9.04859 1.92135
9.65947 7.49042 6.76134
6.5157 8.18022 6.9407
0 9.14692 7.42198
9.15058 9.07344 1.61481
1.81432 6.73428 9.80036
4.05877 5.02245 1.80133
9.36387 6.14703 7.32469
9.51212 2.08022 6.46521
7.28553 2.82393 8.45981
0.46144 0.566792 0.619546
3.36818 8.70572 7.69032
5.8267 9.57665 8.05561
5.32606 2.68777 8.30627
6.24077 4.48722 4.61341
7.44618 8.05747 8.93829
3.04529 0.10638 1.20376
0.542974 1.502 8.39781
6.88721 1.01611 7.01799
2.902 0.441014 1.46002
6.75604 8.7662 3.39602
9.68776 2.5649 9.13978
2.98729 3.53661 2.96998
4.66158 5.5442 1.53199
9.63511 9.19222 1.15759
9.94323 8.70573 7.04931
8.11309 10 9.36169
8.92544 4.14031 4.35602
0.0876396 6.70176 7.20068
2.3684 4.50892 7.97894
8.11171 2.24834 1.89054
9.47451 3.4486 1.44348
1.07183 4.17829 5.17726
8.36707 1.25293 8.50464
5.70936 4.73791 1.18428
3.54059 9.63543 2.69825
3.06237 0.137127 1.95111
9.46418 3.96041 1.00741
0.615472 7.87004 8.35364
4.365 2.03922 7.16555
1.32102 9.9073 9.7736
6.3102 6.81852 2.58737
5.4525 0.244006 2.21947
8.05794 0.444977 0.356787
6.78074 3.02896 2.83941
5.93247 9.34728 7.59579
9.55483 0.828056 0.437709
5.1919 1.68092 2.18766
8.78579 1.11343 1.44747
3.84293 4.36223 7.62135
2.20207 6.5775 1.5648
9.40218 5.75075 5.6495
2.16704 10 4.34967
1.99107 0.362929 3.8903
5.62705 0.40527 2.12444
0.942255 6.59912 0.590154
7.0591 6.53293 0.27202
3.49652 4.12849 4.5213
6.78128 7.98084 2.48557
1.15765 0 4.28288
0.65019 9.02319 0.546514
2.07514 1.78152 2.87396
8.76058 6.41242 3.39936
8.25236 2.4584 9.49914
7.45464 8.0999 3.26794
8.67357 2.0365 6.73786
6.37227 7.73144 8.37908
4.64138 4.47989 6.64917
2.23687 9.29393 4.78663
1.36068 4.20062 2.33687
3.56133 1.40258 0.963366
8.55896 2.00366 6.07867
2.97976 0.527433 5.20062
3.65486 5.04325 9.38265
6.23148 1.72348 6.78119
1.86091 6.60052 6.12595
2.57342 6.29745 2.72292
0.278915 5.75144 2.07606
3.90385 5.86026 0.826273
3.29356 0.0952993 1.11839
5.07322 3.58941 6.99689
2.6988 0.327708 8.16653
3.56651 6.72725 4.49258
9.45298 3.39401 8.18223
0.55537 9.36072 8.04174
8.80317 10 3.91674
6.04423 5.87602 7.58353
5.29238 1.77862 6.77532
10 3.97905 4.55858
2.84272 0.289813 1.46423
3.34955 9.53767 2.08399
3.47795 6.71829 7.60189
2.15252 6.08094 8.46773
5.93678 4.52411 3.27972
7.72457 5.67804 8.56008
8.66305 7.92485 6.47794
0.284967 8.9662 5.51978
5.71915 5.87996 3.47337
0 9.82806 1.79141
3.30835 0.0425278 1.57778
4.60554 3.8647 8.85222
5.43174 4.19212 0.55799
3.97811 0 0.944295
7.83362 10 7.4659
1.39239 2.51385 7.14759
4.66415 9.50973 1.21893
6.37686 6.26528 3.24022
8.91504 5.73646 9.95065
7.63464 2.25707 7.34813
8.47078 6.43862 7.00058
10 7.31162 6.79832
5.40657 5.67438 10
8.3014 0 0.702507
0.867352 0.587282 1.2164
8.64153 2.35496 0.857005
2.67147 0.523532 9.65139
9.63731 2.95509 9.21258
7.23306 0.712356 5.61393
9.22741 6.6314 2.71575
1.93547 5.48012 2.86285
4.73291 2.78866 5.17015
7.24333 7.14266 5.6716
4.12545 4.0138 9.37773
8.84384 4.92429 1.86052
3.42055 0.40412 0.851362
0.124701 3.73154 7.75751
2.66981 3.34219 9.13078
6.43453 1.77155 4.05014
0.476039 5.60078 8.75664
6.36089 8.04045 5.06169
5.02531 4.97855 1.33405
1.14633 5.17945 8.88363
7.56635 1.13639 1.17682
0.0886588 0.242042 6.58638
9.50523 4.46625 1.58891
5.62019 0.776329 9.04314
4.43089 0.709029 7.30326
7.08473 5.39698 9.34767
0.821182 5.84411 0.881489
3.6163 0.375316 1.84083
8.11272 4.378 2.85385
0 0.090927 0.66947
0.528282 9.0699 4.22858
0.578429 0.608077 1.27352
2.59734 4.79151 4.79262
2.11041 2.6351 8.6574
5.60164 7.21754 8.94257
1.54111 2.02701 0.701702
8.67269 4.42769 3.29196
3.0632 0.502165 1.46354
7.98778 6.4845 0.373955
8.4228 1.71005 7.35338
2.76487 0.242715 1.45541
10 1.22524 0.658022
5.66175 0.305007 2.04588
0.0842461 9.52638 0.533453
0.140995 1.72191 1.1185
9.87234 9.00938 8.72036
2.52567 2.04095 8.16137
3.99996 1.36523 6.42193
8.9355 4.71978 8.77152
3.78585 7.62524 7.09186
0.725958 1.62075 9.65481
4.45996 0.716046 1.88529
0.0395463 0.397106 5.21287
6.44488 7.71428 8.30586
10 2.16654 5.86313
8.96368 0.919003 7.18046
3.33742 7.67693 8.80883
3.05263 0.0627218 1.67692
2.5035 9.04284 3.87128
3.39738 0.27116 4.1606
0.121753 2.20126 2.88604
3.13042 1.01033 5.8584
8.62798 7.04976 5.80561
1.87875 0.200705 6.27844
8.01591 7.19511 8.73831
5.84557 1.91556 5.76208
7.93332 3.45417 6.65264
3.50708 0.451858 1.70867
4.63839 6.51668 1.11711
6.62426 7.79496 7.98352
1.12291 7.18473 7.49203
7.42421 6.55888 5.28451
7.44008 2.23626 0.192546
3.58179 0.359725 1.78072
0.344439 1.64005 9.28027
4.82123 0.845319 1.53257
0.640713 0.784919 1.71023
3.33334 0.516778 1.66632
3.43451 0.103087 1.89283
8.04522 6.07993 7.19997
3.75953 9.55263 8.92947
6.95989 3.8502 3.86061
3.32745 0.426856 2.03102
6.90966 2.21781 4.1988
0.383594 2.12502 9.49364
3.33246 0.0218103 2.13094
3.30774 0.171211 1.71299
3.44085 0.580766 1.58947
7.93683 2.20069 1.85958
3.56807 7.59035 6.70023
7.27208 2.59077 4.08543
4.88237 1.80065 1.31643
2.94796 2.80158 9.56497
3.50438 0.167374 1.1612
9.37678 0.798575 2.14187
2.61639 0.529662 9.39736
4.79196 0.169493 8.76063
3.35124 0.514306 1.71702
3.36679 0.477208 1.29583
0.421017 4.51293 6.1968
1.15862 5.96306 8.80405
7.144 2.05501 7.88783
3.52682 1.35644 10
3.11571 0.702328 1.6106
4.6532 1.19174 2.37793
4.2864 7.20237 4.25892
4.97243 0.299829 1.39987
6.78194 9.5764 6.39017
1.26964 2.66352 9.35873
2.25666 4.27864 5.50684
2.98216 0.0562755 1.77348
7.18285 3.42121 9.04207
1.47871 2.00408 5.39648
5.51309 8.80095 4.67233
3.52935 0.813485 1.53519
3.29902 0.59484 1.07693
9.52312 4.24084 5.95021
9.56009 5.7901 7.31024
8.49119 1.66094 9.53027
2.59522 1.45116 4.64315
3.23002 0.60374 0.858276
2.59083 0.857743 9.52199
5.19535 9.13777 5.24186
8.27586 0 5.27655
2.971 5.67708 6.35276
3.15839 0.317627 1.01926
6.52622 7.61161 1.68628
3.30739 0.429413 1.20574
3.46364 0.555575 2.25601
3.09007 0.320265 0.896941
3.01462 0.624595 1.15097
5.44782 0.101512 8.0708
2.67423 2.13158 9.12132
4.02315 1.10551 6.37698
5.34913 1.21798 0.542805
4.25711 8.15896 7.93939
0.079621 5.8703 3.90008
3.08681 0.45047 1.44861
6.31526 6.36957 2.05473
2.51644 0.513571 9.09038
1.45127 5.96007 2.22339
7.22064 0.429699 0.26896
3.293 0.261259 1.58814
2.45275 6.4107 1.66644
2.31171 0.720404 9.23146
0.241732 5.89891 8.3854
2.63022 0.729731 9.62028
3.09228 0.244303 1.25327
8.24636 6.43664 0
7.03932 1.93176 4.13643
4.18093 1.42998 2.86075
2.72699 0.552987 9.14849
8.58866 9.3695 1.50982
7.14025 0.526197 0.726126
2.43975 0.603187 9.60314
1.90598 5.76999 9.86196
2.81548 0.232466 1.28498
3.40149 0.511041 1.14243
8.0502 6.25428 7.75621
0.674232 0.331473 8.30786
4.11761 9.45178 3.59457
7.3082 0.988249 0.0377302
3.59742 1.75642 3.75424
9.49489 6.7056 0.956166
2.96878 0.753759 8.89657
0.314006 5.62708 4.46541
3.16567 0.227578 1.37825
3.52202 0.728445 4.16094
7.24794 0.451647 1.16751
8.92865 1.86248 2.04946
6.47461 0.691526 7.65895
9.37681 8.41802 7.18755
4.49695 1.63197 0.994893
3.64375 0.174848 1.4207
3.02747 1.20998 5.15497
0 0 8.27357
9.97956 7.93784 7.35454
7.3295 8.16506 4.15278
10 1.06271 5.35497
3.08766 0.313031 1.57334
1.60851 0.623757 5.3598
3.45937 0.605503 9.24105
2.56689 1.0358 9.28816
3.45364 0.288636 1.89073
3.71178 0.458513 1.48137
0.565924 1.63547 3.26437
3.03442 0.290402 1.91682
2.8788 0.497793 3.67839
7.65228 2.42147 3.68642
9.49676 1.46876 6.91945
3.11911 7.21903 0.855797
3.7207 0.176472 1.45367
1.81923 0.284062 5.83114
3.3871 0.308144 2.00266
3.07661 0.0626594 1.53213
4.23541 0.929913 0.574743
9.66469 6.54347 1.1197
10 1.2244 9.69414
3.78234 9.04397 6.48718
1.40837 5.5946 9.61113
3.0365 0.362242 1.32017
8.15595 1.10967 9.63248
3.89348 0.598242 5.03319
0.838202 1.80619 5.49463
1.76172 5.45321 8.36574
6.6715 0.819768 6.73546
1.13706 7.5147 2.2152
2.4012 0.322177 9.88118
4.92685 5.60308 4.20122
2.4915 0.689631 9.00119
3.5691 0.527599 1.22973
3.63436 0.621574 3.98326
5.80081 8.47944 0.638957
3.33307 0.591685 1.30544
7.07971 7.6677 4.27041
2.62039 5.78581 0.619657
3.13606 0.196774 1.44795
6.11226 0.728326 6.10899
2.90794 0.421992 0.902458
4.05295 0.674177 9.56908
3.22445 0.352172 0.54489
7.30332 0.644857 1.01793
3.90739 5.86621 6.2697
0.260234 5.88763 8.30709
3.18714 0.225865 1.31426
5.11688 9.05352 2.48665
9.96847 4.94307 9.2468
3.65921 2.07389 7.63416
9.48239 5.95012 9.90771
4.04446 0.703525 9.5288
2.64302 0.647127 9.57134
3.47041 0.31877 1.20476
3.24902 0.379955 1.51331
7.69226 0.820476 1.24021
3.13052 0.177833 1.3292
3.6111 0.24819 1.30763
8.37911 9.88283 9.08827
3.2345 0.5856 2.2461
3.11282 0.464793 1.32517
0.596311 1.78031 3.88457
2.74097 0.618928 9.06199
3.16934 0.26096 1.02584
3.348 0.306327 0.889581
3.22961 0.815479 5.79215
3.77339 0.978973 9.18004
3.81113 0.472268 1.05283
3.25161 0.268669 1.84636
6.93782 0.623734 0.960333
2.72871 0.903156 9.54927
2.71845 0.735454 9.21162
3.16412 0.454155 0.87802
2.97124 0.343283 1.35668
7.45591 0.138477 1.62068
2.51273 0.859275 9.60406
0.178931 9.30154 0.766623
2.31137 0.552814 9.66275
3.01972 7.83491 2.03389
6.99235 0.730092 0.916817
6.87088 5.05188 4.29034
3.05473 0.176523 8.25937
3.01596 0.217828 1.46686
3.87011 0.416932 1.34472
7.61403 0.438555 1.13739
2.78535 0.734117 8.80874
2.70366 0.816632 9.53068
4.12777 0.649482 9.37015
3.20377 0.507585 1.11111
3.55131 0.111251 1.55946
2.85661 0.252467 1.94079
4.18911 0.700341 9.26907
2.79059 0.229902 1.44253
1.5144 0.903525 5.4831
2.28987 0.638224 9.57922
3.45651 0.371382 1.52085
3.25306 0.250367 1.47407
1.7613 6.03417 1.48978
6.96636 0.83103 0.528732
3.37718 0.231758 1.81779
3.28516 0.366331 1.89804
2.67926 0.809135 9.38857
3.29086 0.370923 1.85294
1.60785 0.774029 5.57569
2.51716 0.786595 9.37532
3.42371 0.420713 1.62472
3.98455 0.482574 5.16638
7.38291 0.851356 0.613158
7.00693 0.609329 1.0095
POINT_DATA 400
SCALARS particleColor float 3
LOOKUP_TABLE default
1 5.96046e-08 0
0.424058 1 0.575942
0 0.598905 1
1 5.96046e-08 0
1 5.96046e-08 0
0.112957 1 0.887043
1 0.0692896 0
1 5.96046e-08 0
1 0.624151 0
1 5.96046e-08 0
0.891255 1 0.108745
1 0.212423 0
0.214384 1 0.785616
0.625619 1 0.374381
1 5.96046e-08 0
1 0.799503 0
0 0.819486 1
0 0.556302 1
0 0.817931 1
1 5.96046e-08 0
0 0.201134 1
1 5.96046e-08 0
0.332404 1 0.667596
0.894919 1 0.105081
1 0.633921 0
0.361006 1 0.638994
0 0.671907 1
1 5.96046e-08 0
0.607241 1 0.392759
1 5.96046e-08 0
0 0.638382 1
1 5.96046e-08 0
1 5.96046e-08 0
0.335134 1 0.664866
1 5.96046e-08 0
1 5.96046e-08 0
1 0.41189 0
0 0.265292 1
0.589229 1 0.410771
0.879713 1 0.120287
1 0.158619 0
0.817474 1 0.182526
0.161983 1 0.838017
1 0.482862 0
0 0.554294 1
1 5.96046e-08 0
0.938229 1 0.0617712
0.361667 1 0.638333
0 0.42151 1
1 0.956933 0
0.291742 1 0.708258
1 0.999379 0
0.170994 1 0.829006
0.365882 1 0.634118
1 0.781838 0
0.0800564 1 0.919944
1 0.681577 0
1 5.96046e-08 0
0.372669 1 0.627331
0.0207134 1 0.979287
0.855535 1 0.144465
0 0.948694 1
1 0.362348 0
0 0.525648 1
1 0.833095 0
1 0.20572 0
0 0.928187 1
1 0.086089 0
0.397479 1 0.602521
1 5.96046e-08 0
0.986707 1 0.0132933
0.195767 1 0.804233
0.952826 1 0.0471742
0.122049 1 0.877951
1 5.96046e-08 0
1 0.277125 0
0.420795 1 0.579205
0.143289 1 0.856711
0.0651861 1 0.934814
0.821274 1 0.178726
0 0.173563 1
1 0.452102 0
0.997483 1 0.00251657
1 0.389648 0
0 0.443638 1
0.201586 1 0.798414
1 5.96046e-08 0
0.609878 1 0.390122
0 0.967229 1
1 5.96046e-08 0
0 0.445587 1
0 0.537639 1
1 0.741696 0
1 5.96046e-08 0
1 0.0298196 0
0.0925783 1 0.907422
1 5.96046e-08 0
1 0.871356 0
1 0.192266 0
1 0.994857 0
0 0.931461 1
0.136827 1 0.863173
0.132434 1 0.867566
0.46645 1 0.53355
1 5.96046e-08 0
1 5.96046e-08 0
1 5.96046e-08 0
1 0.847121 0
0 0.434187 1
0.553178 1 0.446822
1 5.96046e-08 0
1 5.96046e-08 0
1 5.96046e-08 0
1 5.96046e-08 0
0 0.655327 1
0.863272 1 0.136728
0 0.488817 1
0.499871 1 0.500129
0.90845 1 0.0915502
0 0.52048 1
0.989218 1 0.0107821
1 5.96046e-08 0
1 5.96046e-08 0
0.303965 1 0.696035
0.400442 1 0.599558
0 0.49763 1
1 0.641102 0
0 0.881373 1
0.449914 1 0.550086
0.929753 1 0.0702466
0 0.997912 1
1 5.96046e-08 0
0 0.743282 1
0.63906 1 0.36094
0 0.432191 1
1 5.96046e-08 0
0.772357 1 0.227643
0 0.731861 1
1 5.96046e-08 0
0.0690346 1 0.930965
0 0.505235 1
1 0.107071 0
1 5.96046e-08 0
1 5.96046e-08 0
0.156825 1 0.843175
0.0712 1 0.9288
1 0.849941 0
1 0.629895 0
0 0.256814 1
0.413162 1 0.586838
0 0.631746 1
1 0.263592 0
1 0.732413 0
0 0.468012 1
1 5.96046e-08 0
0 0.718775 1
1 0.962818 0
1 0.611739 0
0 0.846088 1
1 0.766414 0
0 0.869199 1
0 0.555588 1
0.704206 1 0.295794
0.991535 1 0.00846493
0.808392 1 0.191608
1 5.96046e-08 0
0.229514 1 0.770486
1 0.5925 0
1 0.0455258 0
1 5.96046e-08 0
0 0.458851 1
0 0.732978 1
0 0.816132 1
0.244705 1 0.755295
0 0.914871 1
1 0.22964 0
0.4426 1 0.5574
1 0.738387 0
1 0.940343 0
0.439916 1 0.560084
0 0.560068 1
0.446962 1 0.553038
0 0.815237 1
0 0.87131 1
0.927169 1 0.0728307
0.441125 1 0.558875
0 0.677309 1
0.833759 1 0.166241
0 0.532612 1
0 0.931893 1
0 0.469703 1
0 0.408683 1
0 0.774557 1
1 5.96046e-08 0
1 5.96046e-08 0
0 0.795956 1
1 0.329033 0
1 0.467434 0
0 0.65511 1
0 0.575192 1
0 0.631508 1
0.191828 1 0.808172
0.571383 1 0.428617
0.0543091 1 0.945691
1 5.96046e-08 0
0 0.614086 1
0 0.32042 1
1 0.70971 0
0.679154 1 0.320846
1 5.96046e-08 0
0 0.290338 1
0 0.746309 1
1 5.96046e-08 0
1 0.226117 0
0.955359 1 0.044641
0 0.547843 1
0 0.290053 1
0 0.9698 1
0.34569 1 0.65431
0 0.285067 1
1 5.96046e-08 0
0.186812 1 0.813188
1 0.670062 0
0 0.786535 1
0.588614 1 0.411386
1 5.96046e-08 0
1 0.959587 0
0 0.67722 1
0 0.502355 1
1 0.63802 0
1 0.338334 0
0 0.796046 1
0.833195 1 0.166805
0 0.539736 1
0 0.336353 1
0.42402 1 0.57598
0.733124 1 0.266876
1 0.871546 0
0 0.820669 1
1 5.96046e-08 0
0 0.677148 1
0 0.990719 1
0 0.237479 1
0 0.171621 1
0 0.746839 1
0.208192 1 0.791808
0.0678677 1 0.932132
0 0.816047 1
0.599875 1 0.400125
1 0.963353 0
0.171963 1 0.828037
1 5.96046e-08 0
0 0.863057 1
1 0.443323 0
0.0596076 1 0.940392
0.0924105 1 0.907589
1 5.96046e-08 0
0 0.363816 1
0 0.893236 1
0 0.286734 1
0 0.793158 1
1 5.96046e-08 0
0 0.943889 1
0.446936 1 0.553064
0 0.416037 1
1 0.680586 0
0 0.852212 1
0 0.432944 1
0.309845 1 0.690156
0 0.595149 1
0.0144237 1 0.985576
0.301464 1 0.698536
1 5.96046e-08 0
0.247286 1 0.752714
0 0.67488 1
0 0.925485 1
0 0.896168 1
1 5.96046e-08 0
1 5.96046e-08 0
0 0.348961 1
0 0.552143 1
0 0.708617 1
1 0.826695 0
0.460447 1 0.539553
0.578881 1 0.421119
1 5.96046e-08 0
0 0.462269 1
0.712908 1 0.287092
1 5.96046e-08 0
1 5.96046e-08 0
1 5.96046e-08 0
0.042999 1 0.957001
0.100673 1 0.899327
0.252839 1 0.747161
0.151772 1 0.848228
0 0.801387 1
0 0.219983 1
0 0.560817 1
0.18086 1 0.81914
0 0.368243 1
0.881164 1 0.118836
0 0.645653 1
0.343911 1 0.656089
0 0.59721 1
0 0.364754 1
0 0.377778 1
0 0.539205 1
0 0.503932 1
0 0.445378 1
0 0.680334 1
0 0.987969 1
1 5.96046e-08 0
0.122939 1 0.877061
0 0.513378 1
0 0.5696 1
0.117912 1 0.882088
0 0.578193 1
0.596071 1 0.403929
0 0.559451 1
0.707587 1 0.292413
0 0.0960828 1
1 5.96046e-08 0
0 0.696607 1
0 0.759605 1
0 0.688193 1
0 0.858156 1
0 0.779025 1
1 0.97275 0
1 5.96046e-08 0
0 0.680295 1
1 0.883715 0
0 0.86255 1
0 0.622686 1
0 0.339474 1
0 0.347694 1
1 5.96046e-08 0
0 0.134984 1
0 0.386388 1
0.970477 1 0.0295231
0.579306 1 0.420694
1 0.730842 0
0.429798 1 0.570202
0 0.376238 1
0 0.327568 1
0 0.272826 1
0 0.970069 1
0 0.684611 1
0 0.796465 1
0 0.718991 1
0 0.818182 1
0 0.528177 1
0 0.443763 1
0.248087 1 0.751913
0.231226 1 0.768774
0 0.994093 1
0 0.823128 1
0 0.675483 1
0 0.568735 1
0 0.860922 1
0 0.686055 1
0 0.584704 1
0 0.475619 1
0 0.524378 1
0 0.972632 1
0 0.81731 1
0 0.471896 1
0 0.492111 1
1 0.497877 0
0 0.988195 1
1 5.96046e-08 0
0 0.179573 1
1 0.394735 0
0.178098 1 0.821902
0 0.957952 1
0 0.642913 1
0 0.699838 1
0 0.273889 1
0.0460111 1 0.953989
0 0.840219 1
0 0.991295 1
0 0.734654 1
0 0.491667 1
0 0.347644 1
0 0.604011 1
0 0.890762 1
0 0.341766 1
0 0.502267 1
0 0.416817 1
1 5.96046e-08 0
0 0.811325 1
0 0.830375 1
0 0.682935 1
0.104032 1 0.895968
0 0.61212 1
0.138251 1 0.861749
0 0.529004 1
0 0.448351 1
0.219207 1 0.780793
0 0.944989 1
0 0.521337 1
