# vtk DataFile Version 3.0
Particle simulation
ASCII
DATASET POLYDATA
POINTS 400 float
5.83271 1.70469 9.60102
0.953948 4.0957 2.31434
0.396967 2.84913 3.01523
2.63762 0.649549 0.957377
9.0308 1.14318 3.67948
7.19775 2.64924 4.94431
8.31449 3.77487 2.29324
3.65824 4.94603 0.853492
7.52183 4.31641 0.458207
7.49353 1.09818 3.58639
3.81586 0.301446 0.897767
2.33793 1.30174 2.67778
8.40602 6.57196 5.72498
3.65257 0.619994 0.776626
7.65165 2.56794 3.65684
9.4006 3.942 8.73135
2.95262 6.09448 0.608259
1.42812 0.675921 2.94633
1.42573 7.65636 9.68447
7.38505 1.10125 3.78999
3.2623 0.338446 2.47515
0.729546 0.629071 1.45175
3.47541 6.74117 6.64305
7.86623 0.255788 3.91574
8.9299 8.69631 9.80199
3.39087 0.488703 2.2956
9.75538 5.05143 0.143047
2.91981 0.46075 2.08839
7.37609 0.455608 6.48304
1.8231 0.485331 3.11678
8.43727 6.00524 4.44996
9.18965 0.414169 1.27406
4.02001 0.692399 8.36043
7.74013 0.444799 3.82887
1.99081 0.662012 3.14688
0.800906 0.732137 0.915046
6.67289 0.900026 9.94542
2.13374 0.219458 1.5514
6.20435 0.651762 0
4.43819 1.29986 1.43423
3.4872 0.223517 4.47321
8.34708 6.51404 4.58595
4.55551 6.24803 5.848
8.34708 3.4782 4.51274
8.59595 0.141228 8.34636
5.80108 0.342533 1.71642
7.25319 2.47713 5.88878
2.86536 0.254931 1.53444
5.68441 0.29543 1.88566
6.74938 7.15098 6.16429
0.39366 3.6301 2.57726
8.34292 6.5508 4.58278
6.16053 0.353593 5.7493
7.66024 0.899281 3.81546
9.04196 0.306918 8.5543
5.72911 0.435636 1.79172
4.42848 0.877016 8.43334
2.78137 0.391337 1.61057
5.78169 0.34186 1.89058
0.596862 3.45058 7.85617
6.39697 2.03392 9.33188
4.99037 0.773273 7.9016
2.32292 0.508114 1.63191
7.40097 1.14966 3.74101
7.43264 0.0837382 5.13463
8.43196 0.440975 5.25695
6.9327 0.470778 6.66805
0.563218 3.36757 2.54908
5.92646 0.496474 1.75595
4.82397 1.07948 8.67645
5.34426 0.566211 8.42805
2.71532 1.16228 2.29307
8.89043 1.76653 4.83323
7.39838 1.17703 3.77287
6.9085 0.787278 9.83361
7.43751 0.472628 9.73368
6.88209 0.446614 6.643
4.82599 0.819905 8.30371
5.73671 0.812661 1.70135
4.07856 0.188411 7.39633
2.37097 0.200538 1.39599
1.73949 0.367851 3.01033
2.05806 1.23299 2.07337
2.07027 0.315395 1.94474
4.55549 0.43911 7.42
4.86654 0.346136 7.34863
4.87323 0.525894 7.6732
8.34729 0.623247 1.78935
3.9947 1.30033 1.51945
9.26346 0.253788 0.994971
2.43885 0.0983565 1.74934
1.6329 0.649845 0.687425
1.22477 3.06155 9.38192
2.07222 0.353072 1.95306
4.53346 0.435452 7.45533
4.76824 0.523089 7.50787
5.05834 0.65113 8.74221
2.30532 0.410022 0.465514
4.66395 0.198853 5.94566
9.25994 0.250714 0.996431
2.33856 0.632958 0.960643
4.27169 0.0137225 9.95105
0.521379 0.574691 0.523852
7.35121 0.452461 6.51228
8.14893 1.61804 0.18048
2.75759 0.54949 1.62594
4.67345 0.407688 8.37207
5.78983 0.602037 1.53847
5.67253 0.331127 1.85767
9.73428 0.15702 1.77279
0.530383 2.47023 3.08426
7.51241 0.825726 3.65056
3.85057 0.296153 2.83772
9.16403 0.363835 1.13453
2.49894 0.433567 1.59596
2.45099 0.213726 0.560186
4.54785 0.693352 8.5959
5.89409 0.316097 2.03066
5.71231 0.364161 1.85243
0.858733 0.537423 0.915559
2.22607 0.167632 1.75132
9.22599 3.6805 2.20564
6.30186 2.24302 8.58445
4.8431 0.567637 7.54161
4.48419 0.394767 8.50328
1.80932 0.676549 3.09727
3.05908 0.344459 1.15243
7.6051 0.677124 3.92266
1.02212 2.0742 7.42523
3.7668 0.566298 0.51974
2.2122 0.266342 1.66326
5.59764 1.14426 1.54707
5.02974 0.662348 7.95724
7.56802 0.414013 6.20127
4.88211 0.53617 6.21895
1.79078 0.0731999 2.96232
1.73568 5.05723 9.40357
7.67904 0.682099 3.97052
4.78985 0.278211 7.75084
6.69674 0.565496 6.22876
2.67632 0.483441 1.74793
6.55469 0.551974 6.14077
0.193037 0.0512814 6.57566
0.309111 0.23372 1.13526
2.58458 0.0116456 1.57656
2.88481 0.599988 0.714882
8.82444 0.370987 8.42031
1.96831 0.088128 2.66479
2.45397 0.141482 1.87155
2.27109 0.218657 2.82301
2.6758 0.465341 1.77201
6.33717 0.715966 6.26624
2.57492 0.495922 2.1262
4.97404 0.125626 7.713
2.88627 2.36961 0.460275
2.62553 0.439443 1.11055
8.82709 0.274489 8.233
2.49099 0.325755 1.65549
6.20054 0.788635 6.25375
3.14138 0.543618 2.12503
0.802945 0.803156 0.967853
0.491269 2.66732 3.07583
5.10561 0.271824 7.4355
1.61274 0.417821 2.68355
0.420834 3.6488 2.6385
6.51764 0.494932 6.44661
5.71282 0.483211 8.70284
4.85669 0.438511 8.58314
6.14183 3.11464 8.89978
8.57379 2.64358 0.97569
2.54429 0.346203 0.745807
2.04386 0.0590821 0.907246
4.18135 0.624652 8.9847
2.39089 1.45341 2.22098
2.15971 0.0421011 2.8882
1.09992 0.51027 0.73774
4.87983 0.878845 8.78908
4.78953 0.882202 8.78554
4.66989 0.700928 8.08164
2.36113 0.0558324 1.72565
2.05911 0.42621 1.9993
1.74413 0.42637 3.12658
6.66527 3.05044 9.14592
2.56553 0.869967 2.30576
5.22063 0.208309 7.63685
1.89573 0.131459 2.23874
2.86209 1.0248 1.16901
1.21196 2.9216 9.20988
3.32722 0.206921 3.69349
2.24732 0.156619 1.8891
2.09108 0.430928 2.02005
2.5234 0 1.71094
4.71385 0.693505 8.024
2.20106 3.71768 1.92898
6.55773 7.70853 10
2.20346 0.608269 2.11317
3.84441 0.670864 2.60301
1.15055 4.99012 9.08849
2.14118 0.173691 2.61881
1.54626 0.877423 3.02053
3.51917 0.458463 2.77399
5.89003 0.464121 1.70297
9.45127 0.486699 8.84768
5.47581 0.299527 7.90478
7.97718 0.214086 7.46957
4.5993 0.654215 8.34406
2.8496 0.205567 1.90876
3.44075 0.336951 0.400869
2.21903 0.582156 0.807124
9.15459 0.23555 1.09291
1.94676 0.321006 2.08153
5.72276 0.239459 1.6468
4.68366 0.0628985 8.08009
6.65493 0.459095 6.25963
6.72865 1.02508 5.11196
4.58032 0.822129 8.47368
2.85275 0.216934 1.90797
3.59257 0.397956 2.4419
1.27498 0.856589 3.02101
9.43268 0.266168 1.1597
7.01534 5.76054 5.49795
2.88331 0.452178 7.29637
4.86172 0.232532 7.43971
2.584 0.289481 1.81029
4.87598 0.525387 8.32523
2.87055 0.28411 1.89369
7.2288 2.43924 3.36971
2.20213 0.0917402 1.94444
2.8559 0.136895 2.27893
4.92477 0.731918 8.92712
7.45393 0.981725 3.83478
5.40933 0.636638 7.76373
8.53583 0.232922 8.23251
2.34184 0.146024 1.72423
4.85419 0.585754 8.08245
2.21243 0.0780266 3.13825
8.85691 0.311868 8.00647
3.33109 0.288552 2.56242
2.21396 0.186679 1.03687
2.21723 0.555568 1.96732
3.05486 0.614888 2.13976
1.77429 0.166935 2.77405
2.64443 0.155135 1.77912
3.60074 0.633395 2.97461
5.03881 0.195181 8.25459
2.14983 0.66714 2.79583
2.9363 0.607245 0.328924
4.70731 0.501791 8.55108
5.64079 0.168913 1.90656
4.86555 0.71363 8.5455
2.44719 0.466897 0.802887
5.72525 0.97309 1.50397
4.96671 0.434577 8.53024
1.99571 0.518419 0.761111
8.69436 0.266269 8.14488
2.38783 0.19277 1.4045
9.09853 0.345358 1.45377
4.84455 0.643887 8.12286
5.62825 0.19022 1.91219
4.90275 0.686381 8.55949
2.11417 0.311967 2.75691
7.12628 5.65029 5.46101
4.90549 0 7.75552
7.87536 0.293728 3.92263
4.40267 0.736751 8.60245
4.30558 0.401294 4.23643
7.53355 0.83052 4.42467
5.34054 0.614463 8.15819
8.62726 0.33656 8.43086
2.70871 0.439342 0.844396
1.89391 0.734938 3.0374
7.62149 6.48064 5.43248
2.42722 0.792341 0.90888
7.70046 0.378928 4.45966
4.94356 0.219395 8.02112
5.23476 0.287893 8.46845
7.7494 0.510941 3.6395
4.9031 9.93536 8.76705
8.4234 0.108302 7.99131
2.26336 0.481563 2.07879
9.54301 0.351374 1.15464
6.1571 0.417116 2.18353
5.33799 0.162949 1.63494
7.18511 0.606561 3.87234
9.59666 0.0737497 8.46657
8.94459 0.0686703 8.54277
1.87809 0.41316 3.16034
2.48632 0.731172 2.2683
6.56686 0.353125 6.26388
8.78917 1.56745 4.99604
9.51918 0.462859 1.33
6.06013 0.302506 2.34453
3.80175 0.768342 2.78941
7.48435 1.20504 3.65087
4.726 0.36915 8.08078
5.29062 0.721874 8.27984
2.23927 0.521259 2.07033
2.60064 1.26467 1.82601
2.46676 0.157372 1.12743
1.84185 0.384079 2.86256
9.29892 0.436163 1.07793
6.49056 0.515896 6.25031
3.71557 0.351955 0.809052
5.94625 0 1.83385
2.74494 0.565266 1.47295
5.51565 0.208963 1.67394
3.32849 0.629872 2.74999
2.29951 0.144531 1.98181
2.32187 0.157373 1.48014
3.4403 0.415224 2.88851
7.53776 0.303084 4.05461
6.85017 0.721736 6.42311
8.48447 0.168892 8.13505
3.60231 0.352351 2.73354
2.93357 0.458104 1.22117
6.9254 1.1644 3.86608
2.13258 0.52196 2.57004
6.63095 0.667408 5.44658
5.72 0.441031 1.94251
2.55513 0.723096 1.11018
4.87893 0.527571 9.25064
2.1988 0.700001 0.850497
4.7834 0.259467 8.45622
3.07461 0.424848 2.07223
9.50264 0.16867 0.952279
9.22334 0.456271 1.30821
2.36801 0.682411 2.31688
6.25725 0.361467 1.99737
8.62792 0.317932 0.948332
3.26596 0.546594 2.35796
4.80466 0.589213 9.16049
2.28314 0.396284 1.71983
4.62728 0.48959 8.64211
2.30984 0.316881 1.45613
9.40799 0.50863 1.36945
5.13347 0.312899 7.9439
3.68271 0.442028 2.65298
2.06321 0.625382 3.12856
9.06594 0.397225 1.0829
2.99571 0.518079 2.0495
4.89278 0.902874 8.51349
2.45583 0.390799 1.59302
4.94436 0.452628 7.83141
5.08762 0.214433 7.71216
2.07508 0.193103 1.3927
2.79991 0.570186 1.40795
5.9096 0.265503 2.01124
2.2184 0.79886 0.533783
2.71729 0.649219 1.53639
2.69094 0.508198 0.985481
3.249 0.545655 2.36001
2.9883 0.392291 1.94647
4.60207 0.364449 7.50784
4.96042 0.253256 7.75213
2.06746 0.563005 2.23866
3.30289 0.626374 2.48737
6.25389 0.658294 2.37655
4.27781 0.711726 8.72346
2.56238 0.693881 1.64923
2.02428 0.434994 3.18879
5.53597 0.236662 1.77882
6.55697 0.959668 6.25114
4.62757 0.265168 8.15982
3.4738 0.587264 2.52531
2.16686 0.70464 0.920516
8.49265 0.189781 8.16547
5.02066 0.600041 8.45515
5.07093 0.282886 8.30992
5.26774 0.834642 7.95687
2.56479 0.549132 0.56682
5.52088 0.262246 1.78506
6.45609 0.869841 6.24986
4.81757 0.578128 7.70915
2.52583 0.754163 1.10204
1.73281 0.541514 0.471431
8.76938 0.149261 8.42692
4.99842 0.211114 8.14361
4.85805 0.851221 8.50217
4.49955 0.485674 8.22832
2.53593 0.0938358 1.96479
2.92447 0.680684 1.40547
2.04252 0.426497 1.99092
4.74859 0.570129 8.15076
2.37375 0.333579 1.76082
7.5862 0.86118 3.58674
4.46163 0.734202 8.52287
1.75686 0.467532 3.09149
2.01142 0.405865 1.67072
6.93023 0.735998 3.66543
5.81728 0.266515 2.38391
2.90076 0.651404 1.42381
2.16335 0.36249 1.76706
4.80561 0.694095 8.29565
2.65949 0.0188723 1.33036
7.60679 0.892509 3.5853
5.10057 0 7.26972
1.74476 0.423556 3.11148
2.89346 0.344609 1.93725
9.75204 0.0112673 1.81781
5.82365 0.294081 2.37781
POINT_DATA 400
SCALARS particleColor float 3
LOOKUP_TABLE default
0.0286133 1 0.971387
0 0.542664 1
0 0.357568 1
0 0.285678 1
0 0.458172 1
0.489317 1 0.510683
0 0.375208 1
0 0.729358 1
0.335572 1 0.664428
0 0.643948 1
0.0695479 1 0.930452
0 0.472091 1
0.670992 1 0.329008
0 0.227947 1
0 0.710848 1
0 0.557779 1
0 0.287575 1
0 0.640368 1
0.0659363 1 0.934064
0 0.564568 1
0 0.449416 1
1 0.369574 0
0.06308 1 0.93692
0 0.43392 1
0 0.679201 1
0 0.975054 1
1 5.96046e-08 0
0 0.732602 1
0 0.789204 1
0 0.768066 1
0.621274 1 0.378726
0 0.729325 1
0 0.948777 1
0 0.249572 1
0 0.918234 1
0 0.669327 1
0 0.396809 1
0 0.327743 1
0 0.303952 1
0.200375 1 0.799625
0 0.514293 1
0 0.0597666 1
0 0.416034 1
0.53821 1 0.46179
0 0.402854 1
0 0.548651 1
0.232157 1 0.767843
0 0.425867 1
0 0.29013 1
1 0.969829 0
0 0.476762 1
0 0.749643 1
0 0.558268 1
0 0.246441 1
0 0.613643 1
0 0.546909 1
0 0.649366 1
0 0.633266 1
0 0.228157 1
0 0.528824 1
0.979634 1 0.020366
0.0651368 1 0.934863
0.648617 1 0.351383
0 0.502543 1
0 0.877021 1
0 0.764442 1
0 0.774101 1
0 0.768399 1
0 0.692197 1
0 0.458099 1
0.0131622 1 0.986838
0 0.374083 1
0.677151 1 0.322849
0 0.411392 1
0.19192 1 0.80808
0.168346 1 0.831654
0 0.896101 1
0 0.617539 1
0 0.632877 1
0 0.498687 1
0 0.109993 1
0 0.860576 1
0 0.634233 1
0 0.2522 1
0 0.311182 1
0 0.486503 1
0 0.697845 1
0 0.836505 1
0 0.862573 1
0 0.420442 1
0 0.596929 1
0 0.541817 1
0 0.994032 1
0 0.195813 1
0 0.371034 1
0 0.453679 1
0 0.569302 1
0 0.41107 1
0.728582 1 0.271418
0 0.307763 1
0 0.810297 1
0 0.800847 1
0 0.793829 1
0.13965 1 0.86035
0 0.512599 1
0 0.445851 1
0 0.900635 1
0 0.589445 1
0 0.416134 1
0 0.326378 1
0.0805503 1 0.91945
0 0.881729 1
0 0.494208 1
0 0.134748 1
0 0.675514 1
0 0.756843 1
0 0.541367 1
0.157649 1 0.842351
0 0.451624 1
0 0.328348 1
0 0.288474 1
0 0.457241 1
0.151398 1 0.848602
0.0331321 1 0.966868
0.427367 1 0.572633
0 0.331655 1
0 0.517146 1
0 0.40806 1
0 0.541465 1
0 0.949853 1
0 0.40295 1
0 0.520174 1
0 0.225959 1
0.187105 1 0.812895
0 0.363256 1
0 0.439035 1
0.861788 1 0.138212
0 0.620904 1
0 0.931101 1
0 0.364041 1
0 0.694916 1
0 0.773224 1
0.460646 1 0.539354
0 0.605652 1
0 0.389716 1
0 0.585532 1
0.015289 1 0.984711
0 0.455625 1
0 0.75463 1
0 0.798526 1
0 0.681674 1
0 0.608012 1
0.0295479 1 0.970452
0.168423 1 0.831577
0 0.38964 1
0 0.474601 1
0 0.70616 1
0 0.314659 1
0 0.73107 1
0 0.196887 1
0 0.985186 1
0 0.766505 1
0 0.576468 1
0 0.723498 1
0 0.348456 1
0 0.716466 1
0 0.27607 1
0 0.790875 1
0 0.64472 1
1 0.24524 0
0 0.612454 1
0 0.484823 1
0 0.370426 1
0 0.719017 1
0 0.507913 1
0.417056 1 0.582944
0 0.405892 1
0 0.966059 1
0 0.991028 1
0.403479 1 0.596521
0 0.340989 1
0 0.744169 1
0 0.815607 1
0 0.796505 1
0 0.401181 1
0 0.665891 1
0 0.575436 1
0 0.67159 1
0 0.654492 1
0 0.680607 1
0 0.323938 1
0 0.820303 1
0 0.62806 1
0 0.375396 1
0.710876 1 0.289124
0 0.33091 1
0 0.496749 1
1 0.923693 0
0 0.448464 1
0 0.284416 1
0 0.728409 1
0 0.871457 1
0 0.700007 1
0.0329004 1 0.9671
0.24063 1 0.75937
0 0.434997 1
0 0.426067 1
0 0.424397 1
0 0.495394 1
0 0.811289 1
0 0.57186 1
0 0.928053 1
0 0.555703 1
0 0.775293 1
0.140025 1 0.859975
0 0.171215 1
0 0.522883 1
0.061178 1 0.938822
0 0.790665 1
0 0.698784 1
0.10127 1 0.89873
0 0.80525 1
0 0.380272 1
0 0.347029 1
0 0.223887 1
0 0.732464 1
0.0928896 1 0.90711
0 0.87795 1
0 0.598051 1
0 0.921253 1
0 0.439254 1
0 0.684628 1
0 0.705027 1
0 0.276009 1
0 0.835726 1
0.259355 1 0.740645
0.228346 1 0.771654
0 0.995216 1
0 0.658666 1
0.287327 1 0.712673
0 0.923552 1
0 0.995105 1
0 0.603833 1
0 0.651986 1
0 0.917187 1
0.0428899 1 0.95711
0 0.791127 1
0 0.782918 1
0 0.622692 1
0 0.597568 1
0 0.783539 1
0 0.73713 1
0 0.357358 1
0 0.850522 1
0 0.794618 1
0 0.398308 1
0 0.471668 1
0 0.767783 1
0 0.63647 1
0 0.732915 1
0 0.560612 1
0.253461 1 0.746539
0 0.876023 1
0 0.571466 1
0 0.950465 1
0 0.666041 1
0 0.86161 1
0 0.805458 1
0 0.603759 1
0 0.632945 1
0.0112131 1 0.988787
0 0.917955 1
0 0.72981 1
0 0.928714 1
0 0.677594 1
0.511496 1 0.488504
0 0.741492 1
0 0.694313 1
0.139635 1 0.860365
0 0.149993 1
0.0093284 1 0.990672
0 0.334477 1
0 0.983527 1
0 0.557548 1
0.101422 1 0.898578
0 0.823537 1
0 0.604707 1
0 0.980407 1
0 0.321701 1
0 0.621411 1
0 0.839821 1
0 0.370206 1
0 0.39894 1
0 0.754829 1
0.0345161 1 0.965484
0 0.422354 1
0 0.957674 1
0 0.625078 1
0 0.523612 1
0 0.742455 1
0 0.974389 1
0 0.550478 1
0 0.962175 1
0 0.684426 1
0 0.804229 1
0.00590348 1 0.994097
0.0249194 1 0.975081
0 0.691295 1
0.168837 1 0.831163
0 0.895486 1
0.42855 1 0.57145
0 0.97688 1
0 0.795803 1
0 0.923133 1
0 0.527877 1
0 0.986253 1
0 0.50435 1
0 0.70339 1
0 0.789307 1
0 0.703439 1
0 0.533889 1
0 0.732293 1
0 0.734988 1
0 0.916838 1
0 0.751985 1
0.162989 1 0.837011
0 0.343565 1
0 0.510533 1
0 0.15135 1
0 0.401482 1
0 0.667894 1
0 0.657258 1
0 0.481963 1
0 0.742954 1
0 0.477425 1
0.0635921 1 0.936408
0 0.756464 1
0 0.686893 1
0 0.795324 1
0 0.657492 1
0 0.870663 1
0 0.821746 1
0 0.42419 1
0.108354 1 0.891646
0 0.37862 1
0 0.510368 1
0 0.697455 1
0 0.221093 1
0 0.749147 1
0 0.435535 1
0 0.994074 1
0 0.403922 1
0 0.855706 1
0.308012 1 0.691988
0 0.782779 1
0 0.292745 1
0 0.559837 1
0 0.740257 1
0 0.937687 1
0 0.565603 1
0 0.843491 1
0 0.442434 1
0 0.842534 1
0 0.362088 1
0.293515 1 0.706485
0 0.630474 1
0 0.198985 1
0 0.879918 1
0 0.541895 1
0 0.804906 1
0 0.837076 1
0 0.457922 1
0 0.896229 1
0 0.883478 1
0 0.806896 1
0 0.73526 1
0 0.581935 1
0 0.652686 1
0 0.832188 1
0.0173305 1 0.982669
0 0.455222 1
0 0.636132 1
0 0.454381 1
0 0.443013 1
0 0.778565 1
0.070135 1 0.929865
0 0.627838 1
0 0.614674 1
0 0.409484 1
0 0.534957 1
0 0.49344 1
0 0.314778 1
0 0.807422 1
0 0.439991 1
0 0.936611 1
0 0.75341 1
0 0.597963 1
0.144062 1 0.855938
0 0.391585 1
0 0.658598 1
