# vtk DataFile Version 3.0
Particle simulation
ASCII
DATASET POLYDATA
POINTS 400 float
3.93845 9.79095 1.84579
0.880852 7.74393 2.02773
7.87737 4.61668 7.51787
4.45019 0.67822 1.40262
2.91585 6.57826 3.20125
5.49804 0.31814 5.4231
3.4314 5.64843 0.298871
3.09008 8.93342 4.39659
5.13599 3.17626 0.611202
1.0042 9.48897 2.69859
3.13928 6.29692 1.40215
0 9.49469 6.6504
6.26351 4.69184 9.29862
2.17411 3.79399 3.60022
5.62326 4.67 5.94659
0.931031 0.70078 9.08942
0.728477 2.49365 7.99081
2.22348 1.36522 0.0536188
4.11555 7.13109 4.73243
6.70276 8.90114 3.30228
4.47868 3.45367 0.631449
4.66944 1.20902 8.31588
2.51005 1.6629 2.4691
4.11737 4.05953 7.99585
4.70193 8.60924 3.0619
4.86119 3.27745 8.18337
4.30453 0.728921 9.68181
3.65848 1.76527 1.89087
7.82576 5.07279 1.69499
9.84125 9.81968 5.44868
3.99799 1.94051 1.09836
6.94958 6.75191 0.885012
7.86468 0.558201 7.08424
2.46528 0.790579 9.63779
5.60975 9.75552 10
2.78878 7.78794 7.92207
3.12484 9.56679 9.12738
8.71526 10 6.05329
5.39913 0 5.59918
0.446625 0.564767 6.95265
9.68247 8.71563 2.71877
5.49216 5.29372 9.59276
6.4721 3.33847 5.44928
4.12093 4.70321 1.55958
1.44914 2.98432 1.33425
6.14746 9.87835 0.960683
4.72871 5.7071 9.55037
8.80904 5.95742 0.128409
1.2969 2.7638 7.48985
1.45893 8.59192 1.09176
4.33821 4.86091 7.27184
2.85041 5.99501 4.90191
6.44162 6.50944 0
5.66258 5.07664 1.07892
1.59841 7.19372 0.262296
3.82662 0.0859094 3.98449
8.78564 1.60293 7.37692
4.38668 2.87411 1.53094
0.661028 2.96554 2.15553
0.859604 6.97579 8.70107
4.96431 10 0.697232
6.40225 5.51541 5.88775
8.31081 0 8.75965
1.73151 0.201817 9.28711
6.20482 4.56564 0.989665
3.11413 3.11627 0.540179
1.41664 5.96175 5.67562
6.54633 3.03796 0.719375
4.28206 1.09258 0.570796
1.67383 3.2851 1.38449
9.26837 6.44194 7.10198
7.9444 1.24506 1.37843
5.89078 1.07376 6.19024
8.4878 4.8372 6.83903
4.09192 1.28597 4.57577
6.87014 2.88057 6.658
6.88964 8.2894 0.874296
8.23487 5.90897 8.03506
2.54371 7.83128 0.764933
10 6.66625 1.08641
6.56315 3.8801 3.88173
4.04266 0.270977 8.80415
4.63837 3.12331 1.56966
4.07805 8.88832 2.84969
7.7131 8.88356 6.10557
0.371689 3.27287 1.18394
9.61734 6.61244 2.40903
0.238902 4.7793 0.633787
5.83969 4.87473 9.15348
4.69518 8.10897 6.51025
0.237671 5.78469 2.83811
0 1.48436 3.19699
2.77972 4.19902 9.12143
1.71564 9.46761 1.02828
3.49831 7.95486 2.55908
0.35472 1.26936 0.943914
8.42055 9.67756 2.05717
6.80733 3.05131 7.39953
3.39404 6.98288 0.397592
0.718052 5.62023 6.91675
9.03579 3.80939 8.94524
4.00673 5.99728 3.16422
10 6.40508 6.49846
8.26008 5.43994 7.66189
3.91747 0.697811 6.18374
0.521087 9.68201 5.87721
5.75235 3.78892 4.62873
0.918714 0 5.81292
8.6619 8.52382 2.37061
2.99777 8.0291 2.17919
5.16863 7.68346 2.71833
3.19376 0.417293 4.99326
9.753 6.15726 1.51248
0.642373 8.64121 1.10639
9.54515 0.756253 9.82125
4.31819 0.120685 2.05891
2.14253 3.89314 2.97858
3.27084 4.96616 6.91813
4.88597 2.05705 9.41374
2.83334 2.11356 1.15318
3.77528 5.26636 5.8138
3.41103 0 7.22432
9.81333 3.73452 4.37577
3.07465 2.34574 3.83788
5.52578 9.06822 5.39754
1.92269 6.09761 7.32685
4.88342 5.82576 4.89069
1.52026 7.32182 0.733703
6.5542 2.18784 3.55779
6.79268 8.67261 8.44869
2.80169 3.24251 5.91596
0.545041 5.28783 7.39636
6.78472 8.94614 4.76847
6.65471 9.21692 6.49125
5.9138 0.395511 6.24658
9.76204 1.36862 9.18564
6.8175 5.56979 2.80104
9.22125 2.54695 5.36242
8.37811 8.20797 4.34493
5.59011 7.18813 2.72834
2.58078 5.28988 8.70342
7.72801 5.55222 2.32147
1.42829 8.58054 6.79085
5.41455 8.91008 6.77606
0.815598 2.80995 9.1805
8.00568 6.46213 3.87431
2.76096 7.65297 2.89513
2.90588 1.43579 0.583816
2.49881 8.61683 3.90464
3.69941 2.09692 7.3563
7.65961 0.573048 7.60172
8.77028 1.93301 3.14133
0.667432 0.012767 3.63335
8.73486 2.86774 10
5.97047 4.53437 6.87076
0.456756 6.98006 4.71512
6.54747 1.24834 6.89994
1.13851 0.470882 6.40053
4.2147 8.72822 0.510288
6.17926 6.60785 7.91145
1.7292 6.76894 4.11507
2.60652 0.310973 2.65566
8.83179 1.98059 1.8825
0.356217 7.00531 8.62736
5.54374 7.64123 2.51125
8.44121 9.05243 4.50118
6.36641 1.87606 7.60502
7.16826 9.13737 6.61778
0.562873 4.71936 7.28747
3.39083 0.877476 3.14462
0.819769 8.9961 5.53676
0.0583412 5.03174 0.396386
3.17783 8.2343 4.86325
3.39584 0.0413066 8.02513
6.74266 8.98496 3.297
9.65793 5.31061 2.37662
7.45988 4.6632 6.15183
3.68036 5.00543 5.57433
9.39476 8.93216 6.78093
9.00467 4.49904 5.34395
1.49651 5.43681 4.80079
4.77177 2.72664 9.03671
3.44347 1.47778 6.88246
8.33925 3.1936 2.63107
0.602558 8.71557 5.95039
1.4544 6.55863 1.19785
7.3362 0.448706 7.72947
6.51153 10 3.73293
0.902489 7.14241 1.77125
3.19133 8.77427 6.80241
2.50799 6.74826 8.43639
0 7.55823 6.91335
0 1.0035 7.26136
1.79234 0.889508 1.96188
3.15931 1.50236 9.1558
6.5593 1.74484 9.03
0.80549 0 6.06628
4.45138 3.85465 9.79973
4.93407 10 9.61378
9.69836 3.23309 6.58517
8.92645 1.40493 5.66008
2.03785 2.4358 0.811674
7.00244 6.60587 0
8.09813 9.3522 0.748513
0 8.36556 2.00719
8.612 4.66761 7.42759
2.87644 0.906706 8.52295
9.27723 7.5096 7.42982
3.37033 10 0.867042
0 5.90464 2.47102
4.182 2.78981 2.01267
10 5.66311 9.93346
9.37166 0 4.1369
6.77945 7.41869 6.66299
7.37657 7.70975 2.40144
9.37573 0.479359 5.80697
8.08599 7.72102 8.46471
0.592583 0 7.15097
3.6218 7.89938 6.44095
5.84747 7.60049 3.4992
4.34204 9.80875 5.51325
2.47282 8.88748 0.00607258
8.07528 1.8148 4.78276
8.62655 1.28586 5.49253
1.55656 5.7204 0.172006
1.0036 8.30378 10
6.74741 9.67114 8.38128
3.50114 0.652834 2.34416
7.84037 0.481139 7.33578
5.71058 1.80957 6.57799
2.62242 3.66949 4.51112
9.5015 2.04879 4.08643
7.35144 3.39335 0
4.262 2.76764 1.87012
4.3134 9.63507 0.529147
8.88489 6.80779 5.29995
6.64238 7.29913 4.68191
6.12566 2.65352 7.62879
7.64051 0.754365 7.21442
3.50435 7.29779 2.27273
7.10027 0.05818 7.99025
1.77867 6.38484 4.64413
2.6915 1.37681 7.69968
9.63495 5.1735 0.417913
8.20673 3.74233 1.30334
3.7318 2.25996 5.77382
4.795 9.01043 7.54066
5.19417 1.80763 2.54997
5.13061 10 0
5.32557 1.2159 2.37895
7.4904 3.72124 7.10961
1.50971 5.38257 2.89852
0.379091 7.2008 1.50884
3.54912 0.708576 3.25649
2.32415 3.39529 5.69899
0.910229 2.38082 9.12273
5.62337 6.3223 4.64756
3.0347 0.192916 8.42692
2.47993 9.30997 2.7103
2.21942 9.10677 6.61017
1.35732 1.8087 3.05218
8.32132 4.17248 7.5491
8.81227 0.720806 4.99826
9.6575 9.65207 6.91109
6.68988 6.54887 3.23849
6.35188 3.51776 7.40124
2.72722 7.83608 2.86757
5.37822 3.78703 0.951593
3.26913 9.68921 7.90154
6.49702 4.4721 1.63757
3.07849 9.17003 1.45878
2.01672 0.764437 9.80858
7.55824 5.04731 0.406886
8.6902 10 4.96347
4.87874 9.38822 6.00488
0.755078 9.31664 6.47398
2.53555 7.01216 0.341476
0.52732 6.9978 0
6.01182 9.35019 8.20603
0.240264 1.7238 2.62055
0.217861 7.77434 7.10323
4.50459 3.06329 8.8173
4.11529 5.58035 2.62328
3.39078 5.51825 0.265996
6.70397 7.99224 1.84327
1.27675 1.20869 8.23421
4.07479 4.06791 3.21632
3.82575 3.73077 5.49123
0 9.80603 0.99913
6.47595 3.09532 9.70236
9.62202 3.18675 0.156194
6.80616 0.976175 7.64735
5.61441 6.88659 8.67158
3.14298 0.17232 5.54027
7.55533 6.33199 2.91825
8.34766 5.11506 7.04078
7.18799 0.874014 7.19622
8.23553 0.618323 6.78884
7.43168 0.742451 7.53078
8.58978 0.118188 7.19581
9.12694 4.18777 4.57534
3.63262 8.09731 2.63753
7.49904 0.271111 7.25485
0.223789 4.88709 8.62175
7.71985 0.642772 7.17048
6.2758 8.44034 1.28737
9.01058 1.47514 5.8386
7.77882 0.34746 7.53071
9.49961 0.949466 5.52804
2.25738 4.13292 1.27569
7.26711 4.34454 6.43705
0.270013 7.81115 7.88584
1.41217 2.42708 0.354876
7.72638 0.531035 7.38134
6.8163 8.68196 8.44102
4.64606 7.1073 8.1973
3.59192 8.64724 0.299052
7.16505 0.619734 7.84346
0.983163 2.8697 4.54354
2.427 2.75877 3.86344
4.09544 9.60277 8.48959
4.0401 4.08476 9.00885
1.70414 1.01125 8.17773
7.71377 0.30198 7.3642
7.3607 0.467442 7.69753
2.0573 7.87575 3.60764
8.75744 1.45026 5.88867
1.67416 9.35927 0.901223
9.56915 9.63133 5.98297
7.69994 0.42927 7.16864
6.54015 4.95832 8.75553
7.8044 0.341829 4.52361
4.11388 1.98069 4.30971
4.07799 7.05569 3.59592
7.66153 3.77928 6.85103
8.13044 2.83178 6.05895
9.52237 6.47215 10
7.58418 0.176377 7.38254
0.46501 1.77079 5.95886
6.21126 4.06091 9.92074
5.06902 9.37885 2.20032
7.07661 6.88303 8.45368
0.786603 8.29083 0.714241
1.6753 0.712815 8.17424
7.81932 0.952183 6.71993
5.33344 1.07996 3.69656
7.53099 1.50457 1.04486
6.87061 0.0189656 8.06067
7.42567 0.611093 7.27046
7.35841 3.67224 6.07605
7.93143 0.0458251 6.89631
7.73842 0.617327 7.52855
0.930947 9.31075 2.20727
2.80963 5.24081 9.34788
2.53967 5.91867 6.2396
7.74176 0.31899 7.08284
8.25483 1.08903 7.57637
2.15717 8.29074 7.89427
7.85737 0.741964 7.32573
7.60897 0.71089 7.56354
5.32309 4.10382 5.2418
1.36787 1.06238 8.30687
1.3251 0.837097 8.15872
7.58935 0.767679 7.31916
2.43681 8.32513 6.46066
3.13455 9.62755 8.74909
1.52365 0.84517 8.10206
8.50653 5.02556 1.54328
3.37296 7.91878 1.24379
7.92125 8.69459 7.23908
7.75837 1.4027 1.23359
3.98486 4.97319 1.58896
0.431777 6.85003 5.99719
7.74713 0.625079 7.28508
7.6412 0 7.51931
8.05123 5.34809 0.946556
1.47664 0.781783 8.11948
3.88405 4.76926 4.47659
4.25179 0.148114 4.95055
7.69214 0.556596 6.82477
7.48946 0.573181 7.61038
7.53796 0.650977 7.45188
2.83697 10 2.268
7.66619 0.602268 6.86321
0.876956 6.94199 9.56826
1.40164 0.776663 8.26188
7.75991 0.448725 7.44694
7.49959 0.615852 7.29868
2.59595 5.86603 6.82305
7.98925 2.34676 6.22544
7.48927 0.723004 7.44915
7.84144 0.172853 7.50971
6.47456 9.05299 7.25879
7.44785 0.608464 7.47885
1.90424 5.58494 4.31828
0.558313 2.99459 9.22194
7.58057 0.305026 7.59292
2.14739 3.49404 5.22771
7.87128 5.11717 1.66077
4.78017 4.47045 1.03603
POINT_DATA 400
SCALARS particleColor float 3
LOOKUP_TABLE default
1 5.96046e-08 0
0.30441 1 0.69559
1 5.96046e-08 0
1 0.409473 0
1 5.96046e-08 0
0.732084 1 0.267916
1 0.852308 0
1 5.96046e-08 0
0.215049 1 0.784951
1 5.96046e-08 0
0.810594 1 0.189406
1 0.921426 0
0.833051 1 0.166949
1 0.518438 0
1 5.96046e-08 0
1 5.96046e-08 0
1 0.740067 0
0 0.664417 1
0.418786 1 0.581214
1 5.96046e-08 0
0 0.42263 1
1 5.96046e-08 0
1 5.96046e-08 0
1 5.96046e-08 0
0.114102 1 0.885898
1 5.96046e-08 0
0.78436 1 0.21564
1 5.96046e-08 0
0.751956 1 0.248044
1 5.96046e-08 0
1 0.268497 0
1 5.96046e-08 0
0.728356 1 0.271644
1 5.96046e-08 0
1 5.96046e-08 0
1 5.96046e-08 0
1 0.810813 0
1 5.96046e-08 0
1 0.0804062 0
0.0616888 1 0.938311
1 5.96046e-08 0
1 5.96046e-08 0
1 0.358153 0
1 5.96046e-08 0
1 5.96046e-08 0
0.694371 1 0.305629
1 5.96046e-08 0
0.154251 1 0.845749
0.111259 1 0.888741
1 0.0906529 0
0.634935 1 0.365065
1 0.263089 0
1 5.96046e-08 0
0.303918 1 0.696082
1 5.96046e-08 0
0.758185 1 0.241815
1 0.750952 0
0.957177 1 0.0428228
0 0.981373 1
0 0.909796 1
1 5.96046e-08 0
0.993202 1 0.00679821
1 5.96046e-08 0
1 5.96046e-08 0
1 5.96046e-08 0
0.15066 1 0.84934
1 5.96046e-08 0
1 5.96046e-08 0
0.125213 1 0.874787
1 0.686473 0
1 0.611447 0
1 5.96046e-08 0
0.916979 1 0.0830213
0.567749 1 0.432251
1 0.457275 0
1 0.013908 0
0.900252 1 0.0997477
1 5.96046e-08 0
1 5.96046e-08 0
1 5.96046e-08 0
1 5.96046e-08 0
1 0.730127 0
1 0.630414 0
1 5.96046e-08 0
1 0.234714 0
1 0.884804 0
0.505327 1 0.494673
1 0.278246 0
0.257495 1 0.742505
1 5.96046e-08 0
0.136534 1 0.863466
0.163959 1 0.836041
1 0.398997 0
1 5.96046e-08 0
1 5.96046e-08 0
1 5.96046e-08 0
0.967587 1 0.0324128
1 5.96046e-08 0
1 0.848754 0
1 5.96046e-08 0
1 0.710144 0
0.867517 1 0.132483
1 5.96046e-08 0
1 0.783982 0
0.571209 1 0.428791
1 5.96046e-08 0
0 0.948436 1
1 0.0798181 0
1 5.96046e-08 0
1 5.96046e-08 0
1 0.431667 0
1 5.96046e-08 0
1 5.96046e-08 0
0.130227 1 0.869773
1 0.799008 0
1 0.396947 0
1 5.96046e-08 0
1 0.251278 0
0.861069 1 0.138931
1 5.96046e-08 0
1 5.96046e-08 0
1 5.96046e-08 0
1 5.96046e-08 0
1 5.96046e-08 0
1 0.504928 0
1 5.96046e-08 0
1 0.402643 0
1 5.96046e-08 0
0.736713 1 0.263287
1 5.96046e-08 0
0.636367 1 0.363633
1 0.116573 0
1 0.97331 0
1 5.96046e-08 0
1 5.96046e-08 0
1 0.387637 0
0.353 1 0.647
0.614337 1 0.385663
1 0.0800382 0
0.743756 1 0.256244
1 0.943162 0
0.0143564 1 0.985644
1 5.96046e-08 0
1 5.96046e-08 0
1 0.455803 0
1 0.140901 0
1 5.96046e-08 0
0.606828 1 0.393172
1 5.96046e-08 0
1 5.96046e-08 0
0 0.334445 1
1 5.96046e-08 0
1 0.121906 0
1 5.96046e-08 0
1 5.96046e-08 0
0.0426766 1 0.957323
1 0.779271 0
1 0.42489 0
1 5.96046e-08 0
0.810923 1 0.189077
1 0.455877 0
1 0.523871 0
1 0.534588 0
0.943165 1 0.0568352
1 5.96046e-08 0
1 0.805235 0
1 5.96046e-08 0
0.690279 1 0.309721
0.310277 1 0.689723
1 5.96046e-08 0
0 0.843816 1
1 0.248087 0
1 0.0720826 0
0.696884 1 0.303116
1 0.564579 0
0.68174 1 0.31826
1 5.96046e-08 0
1 0.620615 0
1 5.96046e-08 0
0.67868 1 0.32132
0.804134 1 0.195866
1 5.96046e-08 0
0 0.58945 1
1 0.385995 0
1 0.858196 0
1 5.96046e-08 0
0 0.45203 1
1 5.96046e-08 0
0 0.495607 1
1 5.96046e-08 0
0.877268 1 0.122732
0.83866 1 0.16134
1 5.96046e-08 0
0 0.882172 1
0.632255 1 0.367745
0.726461 1 0.273539
1 5.96046e-08 0
1 5.96046e-08 0
1 5.96046e-08 0
1 5.96046e-08 0
0 0.402396 1
0.728307 1 0.271693
0.722118 1 0.277882
1 0.540835 0
1 5.96046e-08 0
0 0.708684 1
1 0.381478 0
1 5.96046e-08 0
1 5.96046e-08 0
1 5.96046e-08 0
1 0.78903 0
1 5.96046e-08 0
1 0.728851 0
1 5.96046e-08 0
0 0.699072 1
0.454414 1 0.545586
0.147857 1 0.852143
1 5.96046e-08 0
1 0.0955604 0
1 5.96046e-08 0
1 0.264604 0
1 0.203806 0
0 0.774953 1
0 0.929563 1
1 0.71946 0
1 0.415524 0
0.149835 1 0.850165
1 0.980553 0
0 0.392445 1
1 0.309354 0
1 0.83079 0
0.950204 1 0.049796
1 0.88074 0
1 5.96046e-08 0
0.951523 1 0.0484772
0.109516 1 0.890484
1 0.644971 0
1 5.96046e-08 0
0 0.500252 1
1 5.96046e-08 0
0 0.859564 1
0.871122 1 0.128878
0.911371 1 0.0886292
0.303815 1 0.696185
1 0.570999 0
0.265643 1 0.734357
1 0.80566 0
1 5.96046e-08 0
0.964514 1 0.0354865
1 5.96046e-08 0
1 0.494878 0
1 0.385908 0
1 5.96046e-08 0
1 5.96046e-08 0
1 0.94425 0
1 0.235461 0
1 5.96046e-08 0
0.420844 1 0.579156
0.484039 1 0.515961
0.482605 1 0.517395
1 0.346344 0
0.668999 1 0.331001
1 0.315497 0
0.447317 1 0.552683
0.266541 1 0.733459
0.167523 1 0.832477
1 5.96046e-08 0
1 0.292489 0
0.292982 1 0.707018
1 5.96046e-08 0
0.112653 1 0.887347
1 5.96046e-08 0
0.90144 1 0.0985597
0.122348 1 0.877652
1 0.633707 0
1 5.96046e-08 0
0.770426 1 0.229574
1 0.597933 0
1 5.96046e-08 0
1 0.602371 0
1 0.126724 0
0.520117 1 0.479883
1 5.96046e-08 0
1 0.149133 0
1 5.96046e-08 0
1 0.380661 0
1 0.752028 0
1 0.481461 0
1 5.96046e-08 0
1 5.96046e-08 0
0.519895 1 0.480105
1 5.96046e-08 0
0.776557 1 0.223443
1 5.96046e-08 0
0.777825 1 0.222175
0.932029 1 0.067971
0 0.224673 1
0 0.387926 1
0 0.278768 1
0 0.598342 1
0.793815 1 0.206185
0.45958 1 0.54042
0 0.750871 1
0.198553 1 0.801447
0 0.363491 1
1 5.96046e-08 0
0 0.497183 1
0 0.173438 1
1 0.823946 0
1 0.267474 0
0.609698 1 0.390302
1 5.96046e-08 0
1 0.584629 0
0 0.438675 1
1 5.96046e-08 0
0.433758 1 0.566242
1 0.24827 0
0 0.810994 1
1 5.96046e-08 0
0.160603 1 0.839397
1 0.787766 0
0.576777 1 0.423223
0 0.250632 1
0 0.815441 1
0 0.126085 1
0.348741 1 0.651259
0 0.657794 1
1 0.527691 0
0.992633 1 0.00736713
0 0.575294 1
1 0.278416 0
0.499269 1 0.500731
1 5.96046e-08 0
1 5.96046e-08 0
0.166941 1 0.833059
0.545745 1 0.454255
0.568077 1 0.431923
0 0.361179 1
1 0.0183774 0
1 0.681283 0
1 5.96046e-08 0
1 5.96046e-08 0
0.88991 1 0.11009
0 0.1975 1
0 0.312689 1
1 5.96046e-08 0
0 0.784058 1
0 0.922782 1
0 0.658597 1
1 5.96046e-08 0
0 0.56722 1
0 0.42608 1
0.67236 1 0.32764
1 0.123849 0
1 0.431156 0
0 0.159246 1
0.452469 1 0.547531
1 5.96046e-08 0
0.0855591 1 0.914441
0 0.944926 1
1 5.96046e-08 0
0 0.416555 1
0 0.77228 1
0 0.288751 1
0.630605 1 0.369395
1 0.0487641 0
0 0.16883 1
0.926847 1 0.0731526
0.253384 1 0.746616
1 5.96046e-08 0
0 0.740021 1
1 5.96046e-08 0
1 5.96046e-08 0
0.101846 1 0.898154
0 0.44214 1
0.353023 1 0.646977
0 0.432631 1
1 5.96046e-08 0
0.82045 1 0.17955
0 0.711541 1
0.19231 1 0.80769
0 0.411041 1
1 0.0356908 0
0 0.639381 1
1 5.96046e-08 0
0 0.626423 1
0 0.927434 1
0 0.645761 1
1 5.96046e-08 0
1 0.733554 0
0 0.672304 1
0 0.740648 1
0.84712 1 0.15288
0 0.766834 1
1 5.96046e-08 0
1 5.96046e-08 0
0 0.351991 1
1 0.953543 0
1 0.563104 0
1 0.613767 0
