# vtk DataFile Version 3.0
Particle simulation
ASCII
DATASET POLYDATA
POINTS 400 float
2.7966 9.09373 4.47934
0.425767 7.19625 2.52446
8.41504 5.08712 7.39226
9.10689 3.94863 1.12143
4.46431 7.19358 7.63742
5.48622 9.99191 9.84641
9.58546 4.60096 9.06763
3.96838 3.19047 7.02167
5.91488 8.07332 3.12505
3.89592 1.22126 7.17988
5.61555 0.786605 6.5423
7.95542 5.77075 5.78173
8.59716 9.98932 6.65778
6.23407 7.97391 8.14811
5.83053 6.41016 8.04477
2.37497 5.58381 6.85533
0.631207 0.742553 7.59831
5.68955 0.523929 5.03694
9.03596 9.18445 1.02967
0.708736 8.93249 1.71403
1.6157 2.13857 6.75328
9.05995 7.93128 4.80902
6.06833 1.68398 1.76287
6.55955 8.36282 3.32632
7.95558 0.999201 4.7519
1.75266 2.76029 5.58486
5.00277 1.71497 6.05568
8.04141 8.17698 1.85048
6.22549 2.81024 9.32357
0.137294 0.775826 9.1159
0.334316 0.356489 2.37429
9.00731 6.75949 4.28726
4.3523 7.24513 8.83807
1.65775 6.85056 7.06327
6.07155 6.46014 7.33451
0.968683 7.70778 0.416234
7.95197 3.87916 9.70743
5.46929 2.08691 6.80213
7.76749 3.82678 8.5607
5.11999 9.73578 6.14092
3.60712 5.50577 9.45724
0 0 10
8.41782 0.540635 1.6823
3.09455 1.81534 6.2109
1.82424 7.11437 9.42645
8.42658 4.23944 0.145002
4.51613 2.12185 10
0.226448 0.468988 7.87854
9.22184 8.08863 9.11726
3.15487 3.9687 1.53591
7.02802 5.61438 0.0425413
3.38643 4.73999 7.08527
1.20492 1.28453 7.03494
0 4.891 10
9.22858 7.54384 7.28345
6.36544 4.0235 1.39985
6.7258 4.39232 5.73066
0.00216548 1.12472 2.10494
6.58479 6.56388 2.07974
3.16014 3.68012 1.36511
7.63759 1.44189 4.44257
0.43174 2.30557 4.07485
1.38844 6.34575 0
8.64654 7.36465 7.76914
1.90996 0.25385 6.84232
1.61872 9.43173 2.17057
7.44848 7.85769 7.4203
8.20484 2.74861 1.74851
2.1067 9.28206 4.02237
9.77671 5.02803 6.01835
0.553295 1.25176 3.43494
5.67672 6.22111 0.929363
0.990529 1.94497 7.92562
5.14251 8.43712 1.61338
0.296248 4.18344 8.6134
9.21564 7.33432 5.38741
2.76928 9.13867 7.88087
6.91052 5.27056 6.37851
3.85486 4.20416 6.92572
6.42184 3.71754 6.19844
3.79664 2.75992 1.80861
10 1.39176 2.4814
7.84897 8.33699 8.53732
4.64828 8.86127 1.32044
3.75357 6.02924 2.43701
6.83628 0.610046 1.83337
7.71905 0.835325 10
4.51493 1.57496 6.47235
3.53532 2.23608 7.28978
1.91285 0.704868 8.91506
1.40265 4.62157 9.70091
5.84832 5.58795 1.76699
5.67575 0.555257 8.22789
1.04946 9.5237 6.94888
7.59224 1.30443 3.65203
9.54126 2.28056 6.5187
6.14772 2.62248 9.06363
2.66241 0 5.93358
7.58562 4.17955 5.34075
8.79695 8.82133 2.5506
3.64856 7.17485 6.04966
5.30298 10 5.69654
4.7352 0.676475 2.8957
8.49559 3.64582 0.903033
6.63068 4.30001 6.62538
5.98416 2.41247 3.53861
2.26496 3.3983 5.42585
0.889416 1.1701 6.22678
7.83658 8.5278 4.43969
5.07725 1.38069 5.61505
5.337 9.09326 7.82992
8.85981 0.482408 5.37386
3.98996 5.68721 7.13268
0.340679 7.38721 7.24479
2.34065 6.41099 8.13757
6.46326 2.62485 4.21073
8.95736 2.57682 9.34257
8.84572 3.42717 1.5385
6.12104 0.14091 4.58681
3.58623 3.18254 7.96257
7.90155 6.03773 8.1119
8.53335 3.30945 3.39404
3.83184 1.19934 9.29438
2.68814 6.16701 9.76721
8.5991 6.96517 8.38488
0.417218 1.07897 2.71521
6.8853 2.06796 9.76027
2.65241 5.19465 4.72092
6.11722 2.32928 0.609146
1.23511 1.456 0
6.23543 9.40916 4.34553
9.35195 1.92768 8.67662
9.66604 5.7862 0.95854
0 10 3.6037
5.19421 3.79151 4.28979
4.96481 9.18725 9.06111
3.86223 8.043 3.66795
7.65922 9.2338 0
4.7497 0.888119 5.80288
9.1102 1.59147 1.62077
5.4779 0.385054 5.06465
7.94967 0.403434 0.544958
8.85598 4.44068 2.63237
3.34148 4.27606 9.62188
7.24076 5.47728 8.96578
1.89569 2.34277 5.31626
3.88377 8.05871 3.94798
7.18047 2.00016 7.46772
6.12626 0 7.9996
2.59416 5.33969 1.48938
5.77799 0.218824 4.93609
8.34011 7.66667 7.53299
8.07024 6.99173 0
8.23761 6.58891 6.16807
3.9987 2.12554 8.92928
4.30397 9.28869 6.62526
6.15983 9.35285 1.17538
6.83448 0.988751 7.9259
9.52679 2.8365 8.08002
8.25791 9.15724 2.96134
9.9438 8.37744 7.60841
3.39739 5.50936 2.58951
8.99887 0.451377 8.47159
5.46472 9.76688 7.75951
6.29424 5.40451 2.24318
5.95048 0.0957155 0.068258
7.46914 8.81568 0.467923
5.88545 4.61418 3.18152
7.07695 2.58712 3.97328
9.41393 8.50495 0.316568
0.114582 0.252228 5.20465
8.00733 0.457264 2.42664
2.08213 5.6738 1.80433
4.85097 0.234421 4.54089
6.33166 5.78944 0.454804
1.35378 8.09011 9.52896
1.22054 2.16906 8.78207
6.8062 1.8081 9.16531
8.93192 1.42188 6.72353
3.03172 7.45346 3.03464
7.8118 0.878239 7.60915
4.70865 1.00444 6.43535
6.63094 9.05906 3.67968
1.43006 8.29387 0.779694
9.58337 2.7549 4.32514
7.94896 9.32932 2.31757
5.56952 0.412502 5.14872
10 2.7188 8.57921
8.65782 3.93694 0.691284
8.28599 0.0746306 4.1601
6.15058 8.17102 7.80853
3.96964 0.507172 8.38559
4.3474 7.28544 7.22957
5.91856 6.50744 3.44804
4.82473 5.70496 4.21383
1.61265 9.2357 7.85393
1.55902 1.55669 4.3198
10 4.95059 3.81223
8.88759 0.215773 8.66583
3.92534 1.37486 9.65601
5.59215 0.363214 4.97734
9.20002 4.91142 2.75282
2.34333 3.2077 4.83241
8.79287 1.9291 7.14465
6.93186 3.95287 0.446987
7.94429 3.79253 3.64613
2.77941 3.85019 9.55579
1.22407 1.90367 0.121707
5.55421 8.80241 1.97617
9.63631 8.97061 8.97033
5.55972 0.634337 5.14259
0.0360984 1.08825 2.97238
7.70829 0 4.47099
1.95023 1.24371 3.20333
4.66332 1.38348 4.32928
4.84905 9.07114 0.368374
6.3297 0.395142 5.20354
4.10705 7.8839 9.14217
7.95753 1.9521 7.26412
10 10 0
8.761 3.57683 5.97503
3.06531 2.07149 10
6.84797 5.91391 5.18866
6.37874 0.417969 4.67492
4.89168 3.69721 0.254269
1.33624 8.03759 9.97198
0.536258 9.2189 1.07875
3.90703 1.99836 7.39331
5.29178 0.416831 4.86104
2.38979 3.52238 6.97146
5.47058 8.6432 7.43976
2.45771 6.60035 9.77594
5.06509 3.93576 6.35477
4.13041 1.76543 7.45103
0.262963 7.19465 3.669
7.50481 3.55857 8.46538
5.5027 2.10247 9.72922
5.81673 10 7.69927
5.41919 0.334745 4.98817
0 0 6.47404
6.28287 0.553677 4.93799
7.47825 0.339356 0
0.595663 4.28952 4.96208
1.39526 8.30259 0.139318
8.76595 6.10205 4.90098
4.06837 6.30898 9.25248
7.80452 1.90111 6.0615
4.60648 2.9772 3.72797
0.746761 4.13279 2.55081
6.84972 0.57853 1.41023
6.35833 0.519078 4.8675
4.9547 0.0438977 3.9799
4.32993 8.42894 4.96744
7.46713 4.59093 7.24689
0.880013 1.32345 2.75657
9.94982 4.35605 1.23808
5.79663 4.70553 1.34664
2.06435 0.909003 8.15422
2.3623 9.38743 5.354
5.37882 2.60807 2.55264
6.15812 0.274635 0.978219
9.94356 9.81832 6.79177
0 5.72042 2.59425
6.61967 2.48972 5.24236
6.4352 9.62427 8.87724
6.55676 0.645683 1.90728
0.447526 3.08543 3.48024
9.01846 7.73457 2.4065
2.58722 8.61141 5.92007
1.3014 7.50849 7.34336
5.83832 0.103521 5.05399
7.79653 1.43359 0.58739
9.78002 4.73873 0.228279
0 6.99048 6.79974
1.98878 5.04662 9.46639
5.89958 0.00617947 2.73357
6.25304 7.83605 0.224135
3.48493 8.85334 9.39451
2.54318 2.55563 0.986413
5.40459 0.369763 5.15884
10 9.02295 3.09628
3.65672 0.518404 6.62857
5.88317 8.66315 3.9487
2.70706 4.55833 8.32006
1.52683 6.38069 8.56799
0.262093 4.12953 6.31292
6.78425 0.718031 4.94239
7.35654 10 7.84058
7.96871 6.54881 8.7803
2.39221 0.119473 8.3949
9.2792 0.189681 7.2669
5.33831 3.47952 7.75045
7.8359 0.714938 0.344549
2.3597 0 1.85059
8.40607 3.14638 6.88574
1.47231 0.546664 8.61067
5.49974 0.324544 4.95275
5.52948 0.25504 5.1801
5.08159 0.431523 5.28097
5.79162 0.244234 4.84759
4.41042 8.86437 2.92052
6.00325 0.118327 2.71999
5.45675 0.489704 5.03028
0.164003 0.0563562 6.48921
6.09779 0.199206 5.29494
1.46969 3.3478 6.94034
5.78393 0.0978163 4.8732
5.65365 0.37288 4.97668
9.75752 7.7218 0.722425
1.84801 5.0744 9.38767
0.178948 7.78731 7.51243
4.40426 7.45873 9.20093
0.358741 0.548998 6.25354
6.572 0.489504 4.44708
8.26939 4.02125 4.15582
5.61724 6.77011 7.97682
7.06954 3.07733 5.08861
9.46865 9.5913 0.63616
5.10479 3.34048 4.6826
7.78826 4.84585 6.44044
3.46037 2.61935 4.77136
9.16849 9.48762 0.528746
1.54094 0.391848 8.80372
5.52652 0.344014 4.99304
5.93289 0.28303 4.42691
1.5759 6.78855 0.281173
5.89747 0.20882 5.19699
5.30773 2.48831 7.59444
1.96628 1.36521 7.58203
5.54548 0.447859 5.1952
0.844113 7.69736 7.65603
1.31996 9.04389 1.66129
7.12823 2.5998 3.08433
6.2941 7.6885 9.34076
9.58116 1.21608 9.58172
2.28607 9.45773 5.00678
3.95783 5.98095 9.48794
5.60868 0.421679 4.99027
1.45184 8.93714 9.04286
3.78977 5.44865 5.26875
4.10981 1.15649 9.4842
5.07987 6.03405 3.9994
8.65381 9.18665 1.33631
1.53168 0.229822 8.7613
5.14712 0.0990779 5.13141
5.44877 0.357568 4.25895
9.81654 0.231809 6.46182
5.88909 0.268013 4.69644
5.30531 0.586767 4.7935
2.71007 6.22097 7.76481
5.3684 0.749496 5.18612
5.65192 0.563619 4.64783
5.9161 9.40852 4.30481
8.47552 9.24626 8.86267
2.96193 1.34435 8.96905
5.16223 0.465608 4.87008
0.419065 3.72011 3.52871
5.68189 8.35322 1.49617
5.84705 0.455218 5.38077
5.56032 0.0630273 4.85876
8.57965 4.00776 2.77607
1.44446 0.4409 8.65593
1.53244 0.502068 8.56839
6.02558 0.212779 4.93314
5.67866 0.21486 5.33442
10 3.39857 0.0755575
1.52979 0.429693 8.43037
9.22261 5.78327 8.07213
1.01575 0.23596 8.79165
4.33263 4.25908 4.47649
9.9819 0.471534 6.39267
6.59335 0.333415 9.67773
5.35991 8.35917 1.80471
5.60963 0.494029 4.74796
5.05778 0.157426 5.25026
9.65275 0.278048 6.68587
1.6946 0.443591 8.49686
1.92895 0.886385 8.16367
6.26357 6.80792 9.50255
5.30633 0.417719 5.04548
5.25289 0.353973 4.76487
5.40719 0.451211 5.04695
8.50203 0.117029 4.65465
5.89271 0.0305432 4.98155
2.10174 4.23934 9.27123
1.45595 0.537831 8.66013
5.85798 0.423472 5.07589
5.8304 0.476043 5.20406
3.29567 5.0548 7.93123
1.8384 2.38615 4.71954
5.55415 0.370447 4.9155
5.75962 0.603713 4.8807
1.96881 0.49937 8.27535
5.28792 0.0848652 5.09848
9.77425 7.74392 4.75173
1.95796 1.02911 7.77142
5.47674 0.215528 4.61208
8.48868 0.0938124 3.62138
0.283642 0 5.3148
1.6315 9.26566 1.46744
POINT_DATA 400
SCALARS particleColor float 3
LOOKUP_TABLE default
1 5.96046e-08 0
1 5.96046e-08 0
0.689644 1 0.310356
0.992985 1 0.00701493
1 5.96046e-08 0
1 5.96046e-08 0
1 5.96046e-08 0
1 0.83016 0
1 5.96046e-08 0
0.549368 1 0.450632
0.78753 1 0.21247
1 0.305803 0
0 0.848717 1
1 5.96046e-08 0
1 0.275867 0
1 0.170184 0
1 0.76356 0
0.0945367 1 0.905463
1 0.83283 0
0.450082 1 0.549918
0.500227 1 0.499773
1 5.96046e-08 0
1 5.96046e-08 0
0.747369 1 0.252631
0.705386 1 0.294614
1 5.96046e-08 0
1 5.96046e-08 0
1 0.110841 0
0.280655 1 0.719345
0.191702 1 0.808298
1 0.284465 0
1 0.391388 0
1 5.96046e-08 0
0.904256 1 0.0957438
1 5.96046e-08 0
0.887661 1 0.112339
0.430464 1 0.569536
1 0.618652 0
0.0612057 1 0.938794
1 0.826958 0
1 5.96046e-08 0
1 5.96046e-08 0
1 5.96046e-08 0
1 5.96046e-08 0
0 0.785303 1
1 5.96046e-08 0
1 5.96046e-08 0
1 0.9661 0
1 0.961479 0
1 5.96046e-08 0
1 5.96046e-08 0
1 5.96046e-08 0
1 0.633656 0
0.760666 1 0.239334
1 5.96046e-08 0
0.00404273 1 0.995957
1 5.96046e-08 0
0.146662 1 0.853338
1 5.96046e-08 0
0 0.578152 1
0.933688 1 0.0663118
1 0.355183 0
1 5.96046e-08 0
0.895433 1 0.104567
1 5.96046e-08 0
1 0.30601 0
1 5.96046e-08 0
0.632224 1 0.367776
0 0.917105 1
1 0.735833 0
1 0.306273 0
1 5.96046e-08 0
0.833783 1 0.166217
0.858668 1 0.141332
0.315489 1 0.684511
1 0.98982 0
0.563444 1 0.436556
1 0.041537 0
0 0.684775 1
1 5.96046e-08 0
0.779288 1 0.220712
0.998236 1 0.0017643
0.518555 1 0.481445
0.985008 1 0.014992
1 0.700968 0
1 0.246985 0
1 0.256416 0
1 5.96046e-08 0
1 0.0106497 0
1 0.694752 0
1 5.96046e-08 0
1 0.820011 0
1 0.299914 0
1 0.548056 0
0.63375 1 0.36625
0 0.587271 1
1 5.96046e-08 0
1 0.0179839 0
0 0.68272 1
1 5.96046e-08 0
1 5.96046e-08 0
1 5.96046e-08 0
0.94493 1 0.0550702
1 5.96046e-08 0
1 5.96046e-08 0
1 0.658614 0
1 5.96046e-08 0
0.585867 1 0.414133
0.678927 1 0.321073
0.895259 1 0.104741
1 5.96046e-08 0
1 0.124714 0
1 5.96046e-08 0
0.870552 1 0.129448
0.005387 1 0.994613
1 5.96046e-08 0
1 5.96046e-08 0
0 0.810389 1
0.492989 1 0.507011
1 5.96046e-08 0
0.980171 1 0.0198294
0.450894 1 0.549106
1 0.905706 0
1 5.96046e-08 0
0.907685 1 0.0923148
0.361675 1 0.638324
1 0.591588 0
1 5.96046e-08 0
1 5.96046e-08 0
1 5.96046e-08 0
0 0.754489 1
1 0.179333 0
0 0.897598 1
1 5.96046e-08 0
1 0.891867 0
0.667246 1 0.332754
1 5.96046e-08 0
1 0.776453 0
0.00934601 1 0.990654
1 5.96046e-08 0
0 0.7333 1
0.984456 1 0.0155444
0.178452 1 0.821548
1 5.96046e-08 0
1 5.96046e-08 0
1 0.404422 0
1 0.0159642 0
1 0.622462 0
0.864209 1 0.135791
0.591974 1 0.408026
0 0.244487 1
0.265086 1 0.734914
0.860853 1 0.139147
1 5.96046e-08 0
1 0.719355 0
1 0.601426 0
0.32492 1 0.67508
1 0.268474 0
1 0.826991 0
1 5.96046e-08 0
0.493135 1 0.506865
1 5.96046e-08 0
0.817822 1 0.182178
0.164756 1 0.835244
1 0.411753 0
0.568611 1 0.431389
1 5.96046e-08 0
0.828233 1 0.171767
1 0.44644 0
0.266667 1 0.733333
1 0.402078 0
1 0.447804 0
1 5.96046e-08 0
1 0.740483 0
1 5.96046e-08 0
0.879343 1 0.120657
1 0.580251 0
1 5.96046e-08 0
1 5.96046e-08 0
1 5.96046e-08 0
0.744853 1 0.255147
0.594876 1 0.405124
1 0.721116 0
0.925436 1 0.0745636
1 0.414504 0
1 0.518814 0
0 0.417957 1
0.947172 1 0.0528281
1 0.719128 0
1 0.156714 0
1 0.908295 0
1 5.96046e-08 0
1 0.932575 0
0.649704 1 0.350296
1 5.96046e-08 0
1 5.96046e-08 0
0.217274 1 0.782726
1 0.481481 0
0.587782 1 0.412218
0.757876 1 0.242124
0 0.44051 1
1 5.96046e-08 0
1 5.96046e-08 0
1 0.834477 0
1 5.96046e-08 0
0.787323 1 0.212677
1 5.96046e-08 0
1 0.996335 0
0.473664 1 0.526336
1 0.517032 0
0 0.526733 1
1 0.758596 0
1 5.96046e-08 0
0 0.920723 1
1 0.512138 0
1 0.42883 0
0 0.618047 1
1 0.818943 0
1 0.83963 0
1 5.96046e-08 0
1 5.96046e-08 0
1 5.96046e-08 0
1 5.96046e-08 0
0 0.647509 1
1 0.59833 0
0 0.639831 1
0 0.70905 1
0 0.66097 1
0 0.309634 1
1 5.96046e-08 0
0.407961 1 0.592039
0.695054 1 0.304946
0.896241 1 0.103759
0 0.487219 1
0.737227 1 0.262773
0.0618986 1 0.938101
0.647321 1 0.352679
1 0.279925 0
0 0.390268 1
1 5.96046e-08 0
0 0.909454 1
1 5.96046e-08 0
1 0.984984 0
1 0.5275 0
1 5.96046e-08 0
1 0.849284 0
1 0.766074 0
1 0.248202 0
1 0.553839 0
1 0.128929 0
0 0.362134 1
1 0.981566 0
1 0.501178 0
1 5.96046e-08 0
0.458857 1 0.541143
1 0.798803 0
0.0472603 1 0.95274
0 0.517041 1
0.732463 1 0.267537
0.606697 1 0.393303
1 5.96046e-08 0
1 5.96046e-08 0
1 5.96046e-08 0
1 5.96046e-08 0
1 5.96046e-08 0
0.985783 1 0.0142171
1 0.653547 0
1 0.673511 0
0.45561 1 0.544389
1 0.665884 0
0 0.691009 1
0.989058 1 0.010942
1 0.308872 0
0.682299 1 0.317701
1 0.414071 0
0.314057 1 0.685943
0.244777 1 0.755222
1 5.96046e-08 0
1 0.248945 0
0.0771694 1 0.922831
1 5.96046e-08 0
1 0.464598 0
0.416509 1 0.583491
0.609461 1 0.390539
1 0.146422 0
1 0.9283 0
0 0.263136 1
1 5.96046e-08 0
0.780934 1 0.219066
0 0.97155 1
1 0.99935 0
1 0.680934 0
0.220955 1 0.779045
1 5.96046e-08 0
1 5.96046e-08 0
0 0.313134 1
0.00218108 1 0.997819
0 0.864406 1
0 0.766973 1
0 0.581636 1
1 5.96046e-08 0
1 0.196155 0
0 0.981222 1
0.328539 1 0.671461
0 0.159367 1
1 5.96046e-08 0
0 0.309982 1
0 0.190733 1
0.229069 1 0.770931
0.996002 1 0.0039975
0.400512 1 0.599488
0.256533 1 0.743467
0.705329 1 0.294671
0 0.577459 1
0.853642 1 0.146358
0.949049 1 0.0509515
1 5.96046e-08 0
0 0.794061 1
1 0.480943 0
1 5.96046e-08 0
1 0.176822 0
0.993416 1 0.00658363
0 0.837867 1
0 0.276135 1
0 0.652486 1
1 0.983684 0
0.0284596 1 0.97154
1 0.389069 0
0 0.838299 1
0 0.366361 1
0 0.767982 1
1 0.202709 0
0 0.433887 1
1 0.73681 0
0.81671 1 0.18329
1 5.96046e-08 0
0.601231 1 0.398769
0 0.233795 1
1 5.96046e-08 0
1 0.634388 0
1 5.96046e-08 0
0.35833 1 0.64167
1 0.973844 0
0 0.526166 1
0 0.476281 1
0 0.349212 1
0.0932021 1 0.906798
0 0.659248 1
0 0.988182 1
1 0.610957 0
0 0.632343 1
0 0.593166 1
1 0.809372 0
0.790081 1 0.209919
0.626638 1 0.373362
0 0.535034 1
1 0.357532 0
1 5.96046e-08 0
0 0.648476 1
0 0.712534 1
0 0.762081 1
0 0.457763 1
0 0.381094 1
0 0.794054 1
0 0.498138 1
1 5.96046e-08 0
0 0.548293 1
0.654494 1 0.345506
0 0.473829 1
1 5.96046e-08 0
0 0.735736 1
0.420071 1 0.579929
1 0.494732 0
0 0.983015 1
0 0.590149 1
0 0.455807 1
0 0.537965 1
0 0.309956 1
1 0.764332 0
0.45451 1 0.54549
0 0.509682 1
0 0.56765 1
0.903067 1 0.0969325
0 0.972188 1
1 0.559317 0
0 0.484422 1
0 0.765192 1
0 0.718597 1
1 5.96046e-08 0
0.111966 1 0.888034
0 0.971273 1
0 0.991049 1
0 0.505319 1
0 0.782254 1
0 0.325566 1
0 0.56956 1
0 0.240371 1
0.735393 1 0.264607
0.981464 1 0.0185356
0.368775 1 0.631225
