# vtk DataFile Version 3.0
Particle simulation
ASCII
DATASET POLYDATA
POINTS 400 float
4.05437 4.9121 7.45894
1.11044 6.64897 3.57341
7.781 2.48134 9.24083
9.35312 6.15645 3.73499
10 4.58668 4.5999
9.64392 7.26825 5.43025
3.28176 8.02518 6.80573
8.06243 7.5092 8.40961
0.311174 8.39643 8.52901
4.00578 8.22091 0
4.5803 1.59741 5.09907
3.82656 2.33233 8.17659
2.04877 1.36294 9.30718
7.06696 9.82708 3.69207
4.25836 8.72164 9.63554
7.93218 8.28651 9.83804
9.26963 9.00569 9.05247
3.18482 0.608235 1.63794
3.19398 3.73779 1.59595
8.4593 5.84318 8.53012
3.24799 0.337966 1.70715
7.60483 1.42748 7.65697
7.6546 1.94505 0.878925
3.56127 3.49911 0.4526
6.93119 1.08901 2.97458
8.72084 6.8065 3.06762
9.05957 6.22219 8.81024
0.778703 4.3464 8.3407
2.35494 7.75012 0.288627
4.48856 2.65317 2.32235
0.0968974 1.8207 3.01766
6.23489 7.08766 0.441889
3.26324 2.25295 7.12654
6.89839 9.36725 0.79046
5.91734 7.81157 2.01752
7.7086 1.40751 4.59951
4.79415 9.39106 2.68813
3.45361 0.303706 2.31037
6.74396 3.1843 2.82812
5.43553 5.67245 4.9345
6.44194 8.51018 4.63905
3.34464 7.61332 4.26547
0 4.00835 6.73144
0.791325 3.86476 0.704387
6.65199 0.419279 1.96781
6.62489 8.70089 3.44888
4.45699 3.27903 5.48278
4.31776 9.19298 3.24593
8.57006 2.21309 0.34838
7.93336 0.424481 6.63006
9.3425 8.8727 0.168252
6.0018 7.65666 6.62521
7.01064 1.08481 8.15566
5.40551 2.99817 8.65116
9.32466 4.56791 1.04948
3.74752 1.30777 7.21571
0.586958 2.83793 1.284
6.19199 2.98363 3.05595
0.716134 0 7.0118
3.87672 8.68664 5.25679
2.24412 5.69378 8.39361
5.33361 0.448301 9.24631
9.14828 1.31194 3.68334
8.51595 7.80569 1.57482
4.64069 5.24257 8.54775
7.75952 0 6.09697
7.60993 0 3.43501
8.93012 3.921 3.20743
3.51664 4.4066 3.1363
8.23996 3.39992 7.24798
3.83557 2.0462 1.65234
5.3418 7.91683 5.85998
6.81622 2.68865 8.86973
6.54034 1.6942 7.03033
8.01873 8.23076 6.42279
9.60002 1.98943 0.673432
1.73368 1.19166 1.69089
4.21293 9.47549 10
2.34048 4.60276 1.10946
5.33766 0.68373 9.07517
3.35836 0.382885 1.59489
0.233537 1.45747 0.555842
2.23582 1.23845 8.55803
6.85809 8.49515 7.59188
6.17996 0.0358705 9.09786
4.17326 4.2806 0.616457
5.39263 8.54625 4.81722
9.05825 6.05032 7.08862
4.1924 2.54128 1.82088
3.49082 5.41949 9.70672
2.78366 0.379234 1.94505
1.59593 8.79483 9.37934
1.52207 0.967294 9.69079
1.69014 3.61412 7.61516
4.6079 9.60576 10
6.09341 1.11035 4.03773
0.300326 0.175771 3.12018
4.54817 7.97946 9.39932
7.85262 9.78177 1.03124
3.75376 8.64806 8.74119
3.70512 0.392297 2.46497
1.88016 5.05359 7.93019
7.07234 4.76461 0
8.88618 3.44911 7.50883
0.662764 8.04968 7.11587
1.02966 6.37604 1.34552
6.21413 1.0846 2.69538
1.6686 8.72101 3.92925
3.49744 8.66934 8.78113
3.46883 6.60091 9.07257
1.58195 3.9455 10
1.10271 2.64932 3.7972
9.58492 5.34595 1.06024
0.0309079 2.49588 10
2.40855 0.536928 0.398879
0.561874 9.42254 2.89025
1.57657 0.285476 8.77938
7.68309 6.50041 2.37455
5.86636 0.337273 4.14728
9.86784 3.7332 9.15456
3.86803 1.49978 2.0049
9.78812 9.22798 5.11545
3.73992 8.52759 3.03625
3.55457 6.40569 3.35181
6.90984 7.92261 6.10043
3.40463 0.100216 2.22888
2.16003 0.890575 5.54575
4.47887 6.42153 7.46148
0.23049 2.04228 1.03197
3.84925 5.1532 5.07654
2.03623 9.27132 5.67215
4.16158 7.56877 5.11455
9.56893 9.17876 4.02381
0.447914 2.39239 0.849116
2.03435 3.77568 9.8846
0.560125 5.60222 3.68997
7.74577 0.319022 9.75664
3.43708 4.97524 6.63843
4.52481 1.49139 8.64614
7.8557 7.90191 1.66905
3.82006 0.528927 2.27989
9.19836 9.01474 0.369438
6.45246 2.89031 8.13827
9.19451 8.51752 2.52647
2.40356 0.486084 0.615306
5.62236 0.141435 0.233534
9.60552 2.86484 7.93342
0.388806 9.80268 0.615294
1.29778 1.69801 6.82941
9.69592 1.34272 5.60017
2.92792 0.452764 1.91961
2.49143 4.9714 1.72463
4.76174 6.13038 4.37888
2.84554 0.353007 1.95387
6.17681 2.01518 4.94442
5.31197 0.0344646 5.42672
4.96807 6.62706 2.08328
3.58224 1.4194 8.58771
9.41381 9.49225 1.36815
9.21293 2.72742 2.03191
5.97453 3.51405 2.27444
7.58836 5.57719 4.24456
9.8136 7.07094 0.112253
8.87795 8.07743 5.90504
0.0369311 3.91883 2.51429
9.84757 9.22841 5.49116
5.09092 8.58871 5.01692
8.18319 8.83922 3.27791
9.17767 6.91105 7.15858
6.17086 6.27449 4.52032
3.10882 0.51721 2.04445
9.18973 8.74144 5.03913
0.139766 4.75964 2.83722
7.54053 0.255098 6.17435
2.44987 3.44306 5.75241
2.38066 9.22985 4.89893
0.952769 2.7275 0.872138
8.64755 8.46002 6.50823
2.39775 5.03528 7.0651
1.24 10 7.03634
3.68691 0.29637 2.07003
7.44045 6.93086 0.410286
5.25823 8.40556 5.72344
5.99489 9.00106 2.80343
4.17279 0 1.72593
1.83066 8.55865 7.46467
3.72338 0.488136 2.16181
3.70276 8.91777 8.21497
2.52442 0.318807 2.17498
2.28829 0.341557 0.22978
3.40782 0.412 2.28221
3.36353 0.423142 2.23229
9.53911 3.50241 8.14228
8.29959 1.09084 4.2589
7.3293 5.14289 9.34595
4.18085 0.742796 1.73396
2.87835 2.76776 9.2537
0.0331922 9.60388 3.76244
3.50384 0.756783 2.5164
3.3228 0.239592 2.37947
3.73474 0.137667 2.00704
7.94877 5.13616 10
5.96618 1.20487 9.47093
9.31869 4.54915 2.99946
3.077 9.05235 2.008
4.01567 0.412937 5.68479
3.25196 0.564553 1.53728
0.23857 0.445708 6.94646
4.11234 1.43629 8.70675
1.532 0.758449 4.26874
3.12819 0.383689 2.20965
3.79093 0.458966 1.81031
5.88132 5.46065 9.83147
1.45477 5.07689 6.20709
4.05589 4.9949 3.51382
4.0458 0.240685 8.71989
3.17049 0.397237 1.90101
2.68834 0.268558 4.03384
2.48195 5.7505 1.72483
5.48747 2.6096 2.0666
1.93422 0.351952 0.39978
3.96931 3.94136 5.03049
6.21212 3.38208 0.377742
3.12256 0.639253 2.04978
9.45341 6.09923 4.24006
7.2941 9.52478 2.3954
9.92179 7.65222 1.44638
3.44866 0.286485 1.96214
3.64247 0.435676 1.44267
5.54859 5.59965 6.25659
0.305955 8.55861 5.011
2.58707 4.71184 1.87304
4.76253 7.93232 8.77485
3.23282 0.114433 2.03041
1.6181 0.529837 9.05761
9.88362 7.74517 1.44628
2.65503 9.44248 0.938336
7.84701 6.04674 9.31788
3.01813 0.348668 1.80021
6.46562 0.382827 2.11131
3.78728 0.292003 1.74053
3.58723 0.120172 2.2481
3.61675 0.404981 1.26415
3.59978 0.275268 1.42028
8.834 6.29486 6.53273
4.44881 6.30898 7.02055
9.63096 9.63638 5.04491
8.19589 3.05919 0.591171
0.757769 5.35421 3.10283
4.25789 8.48322 6.46667
2.83645 0.51732 2.01149
9.31267 8.42067 5.84903
0.311143 0.140416 5.26105
3.45204 0.0798106 10
7.90629 1.24383 8.16438
3.3115 0.38307 1.35126
7.83921 7.44445 0.241451
1.6104 0.288127 8.83542
0.89168 3.74365 9.60395
1.5194 0.557309 8.93666
3.7533 0.671918 1.97715
7.49036 3.13273 8.55736
9.49205 1.0633 10
1.3666 0.267051 0.881991
0.297966 1.22377 7.02104
5.81939 1.59391 0.0859224
6.07932 0.951233 2.74355
1.42827 0.283344 8.88515
1.486 6.00813 4.09918
2.91495 0.150154 2.14685
3.25072 0.381156 1.94651
9.71806 3.55057 7.72901
7.48493 7.50655 3.90037
3.32746 2.42961 4.7681
5.95849 1.1355 2.43507
1.29972 0.192586 9.25275
8.95242 6.96221 2.94104
7.9085 3.56813 2.19024
7.84936 2.99714 8.72801
3.16822 0.320369 1.90508
2.06784 0.185143 6.38057
7.81338 0.748048 0.52174
0.577068 5.09994 5.44773
3.69725 0.859841 7.94397
2.50728 4.31959 9.99793
5.77651 7.99998 5.21015
3.54637 0.694249 1.6664
4.61523 0.447428 6.45133
8.9229 7.29921 7.41238
5.66159 3.84792 7.59468
2.58817 8.56116 8.10422
5.50279 4.19331 0
2.8089 0.318609 1.80238
3.1482 1.80131 3.31728
0.020654 1.35471 7.58828
1.37233 0.29333 8.74175
3.1147 0.208332 1.93436
3.7517 0.298326 1.64273
4.31129 0.912941 1.08154
3.36571 0.333406 2.17515
3.79699 2.30862 1.71814
8.9611 3.7718 3.09977
4.42822 0.713192 4.24816
0.820623 10 6.1403
3.40641 0.443594 1.8379
3.38444 0.797276 5.07047
3.19327 0.244817 1.70891
2.96681 0.25605 1.89042
0.621359 2.54942 4.93392
9.01996 7.14035 2.89787
5.23134 0.174074 4.06403
9.70388 2.20113 3.22389
4.59131 7.91652 2.20496
3.53129 0.626845 1.6486
4.11628 0.0774115 7.58269
4.54113 2.92733 1.72821
3.44686 1.00966 3.08325
10 10 1.08714
6.81429 2.36116 1.894
5.50461 9.38703 0.487892
1.60336 0.436432 9.14175
5.30833 2.27746 9.91137
1.48582 0.337805 8.70752
3.8631 0.580086 1.79884
1.68543 0.139001 6.3377
6.77702 2.79894 0.53351
3.63513 0.207964 1.77035
2.08703 7.51842 4.45837
7.99151 1.54574 6.70559
3.50935 0.532492 2.18207
0.811014 0.741958 4.64045
2.61884 0.128385 1.40891
2.93152 0.995476 9.508
3.52844 0.139301 0.827648
7.85375 0.804441 0.453049
5.69249 1.52058 3.61226
1.63672 5.2358 8.46184
3.51336 0.246555 1.9546
0.8234 3.75925 6.5385
6.59653 5.38841 4.38761
5.57518 4.1961 4.14711
9.74739 9.48081 5.46041
2.89876 0.873909 9.54516
1.49769 0.581635 8.91339
3.26652 0.210671 2.00258
3.02788 0.285308 2.42222
7.62326 0.148679 0.920768
3.59902 0.649591 2.24882
3.15971 0.559384 1.38594
5.83494 7.17999 6.98183
3.41594 0.139486 2.36129
3.27768 0.544635 1.75223
0 4.17549 3.34583
1.57239 0.894144 8.20502
2.84233 0.281049 1.55042
3.63458 0.626238 1.67303
3.6912 0.775866 3.48481
2.93914 1.17407 9.70187
3.3169 0.314164 1.69141
3.29398 0.550044 2.2175
7.44948 0.251366 0.361939
1.52047 0.447606 8.82764
1.6761 0.360886 8.93289
3.45153 0.0763777 1.81541
3.80069 0.319649 1.3884
7.43774 0.51209 0.349449
1.35633 0.615732 9.07484
7.47997 8.13021 2.19744
1.74379 0.277165 8.71298
0 1.09988 8.12657
7.57865 0.415663 0.449241
2.00776 1.15471 8.35385
1.95872 0.411908 7.95407
3.71337 0.531788 2.16152
3.36905 0.184504 1.64896
7.79374 0.550181 0.422006
1.42663 0.560097 9.05389
1.49079 0.544464 9.1941
4.13595 0.362697 8.57303
3.75293 0.153094 2.15493
3.46448 0.684489 2.11277
3.31324 0.315304 1.90628
4.17123 0.382584 8.64839
3.65278 0.234813 1.961
8.10689 0.280433 3.22695
1.34522 0.689778 8.4003
3.33232 0.217437 1.68048
3.37545 0.474904 2.18729
7.47889 2.80959 3.55259
9.72276 0.0937165 3.56643
3.28667 0.223718 2.45875
3.11385 0.2224 2.05558
1.91945 0.630379 8.4572
2.95214 0.406805 1.84123
3.46132 0.434875 3.71381
1.51842 0.379744 8.87241
3.33755 0.286158 1.55281
1.60588 0.474571 8.45398
6.8936 0.418856 2.31185
7.73862 0.654499 0.404722
POINT_DATA 400
SCALARS particleColor float 3
LOOKUP_TABLE default
1 5.96046e-08 0
0.848638 1 0.151362
0.648542 1 0.351458
0 0.855968 1
1 0.0417134 0
0 0.667349 1
1 0.853247 0
1 0.566799 0
1 0.407423 0
1 5.96046e-08 0
0 0.987359 1
0.700774 1 0.299226
1 5.96046e-08 0
0.471279 1 0.528721
1 0.811472 0
0.356091 1 0.643909
0.22738 1 0.77262
0 0.397941 1
0.882585 1 0.117415
1 5.96046e-08 0
0 0.622975 1
1 5.96046e-08 0
1 5.96046e-08 0
1 0.797194 0
1 0.49952 0
0 0.773261 1
0.31619 1 0.68381
0.83424 1 0.16576
0.937347 1 0.0626533
1 5.96046e-08 0
1 5.96046e-08 0
0.301952 1 0.698048
0.701093 1 0.298907
1 0.760879 0
1 5.96046e-08 0
1 5.96046e-08 0
0.55521 1 0.44479
0 0.617873 1
0.493115 1 0.506885
1 5.96046e-08 0
1 0.973615 0
1 5.96046e-08 0
0.664371 1 0.335629
0 0.954159 1
0 0.647828 1
1 5.96046e-08 0
0.722293 1 0.277707
1 5.96046e-08 0
0.554511 1 0.445489
0.910551 1 0.0894494
0.663512 1 0.336488
1 0.0436286 0
1 5.96046e-08 0
1 5.96046e-08 0
1 0.084304 0
0.554843 1 0.445157
0.52605 1 0.47395
0.759273 1 0.240727
1 5.96046e-08 0
1 0.569245 0
1 5.96046e-08 0
1 5.96046e-08 0
0.924183 1 0.0758171
1 0.243277 0
0.573261 1 0.426739
1 5.96046e-08 0
0.716145 1 0.283855
1 5.96046e-08 0
1 0.528243 0
1 5.96046e-08 0
1 5.96046e-08 0
1 0.431717 0
1 5.96046e-08 0
0 0.726568 1
1 0.650489 0
1 5.96046e-08 0
1 5.96046e-08 0
1 5.96046e-08 0
0 0.584836 1
0.459922 1 0.540078
0 0.848675 1
0.180292 1 0.819708
0 0.652476 1
1 5.96046e-08 0
0.287606 1 0.712394
1 0.655411 0
1 5.96046e-08 0
0.782078 1 0.217922
0.0267282 1 0.973272
1 5.96046e-08 0
0 0.451925 1
0.905279 1 0.0947212
1 0.743665 0
1 5.96046e-08 0
1 0.583936 0
1 0.636573 0
1 0.852553 0
1 0.953939 0
0.741028 1 0.258972
0 0.954306 1
0 0.53479 1
0 0.961133 1
1 0.806541 0
0.754013 1 0.245987
1 5.96046e-08 0
1 0.682119 0
1 0.769716 0
0.189376 1 0.810624
1 0.556818 0
1 0.688419 0
1 0.984335 0
1 0.790222 0
1 5.96046e-08 0
1 5.96046e-08 0
0 0.920302 1
1 0.236636 0
0 0.726267 1
1 5.96046e-08 0
1 0.0892922 0
1 0.0551328 0
1 5.96046e-08 0
1 0.749229 0
1 5.96046e-08 0
0.518471 1 0.481529
0.469572 1 0.530428
0 0.873171 1
0.823139 1 0.176861
0 0.663688 1
0.302344 1 0.697656
1 0.894785 0
1 5.96046e-08 0
1 0.259324 0
1 5.96046e-08 0
0 0.903042 1
0.44934 1 0.55066
1 5.96046e-08 0
1 0.981794 0
1 0.579542 0
0.860663 1 0.139337
0.517634 1 0.482366
0 0.771757 1
1 5.96046e-08 0
1 5.96046e-08 0
1 5.96046e-08 0
0 0.918422 1
0.359616 1 0.640384
0.581935 1 0.418065
1 0.609337 0
1 0.74294 0
1 0.600501 0
0 0.645799 1
1 5.96046e-08 0
1 5.96046e-08 0
0 0.564854 1
1 5.96046e-08 0
0 0.902539 1
0 0.930667 1
1 5.96046e-08 0
1 5.96046e-08 0
1 0.133547 0
1 5.96046e-08 0
1 0.684714 0
1 5.96046e-08 0
1 5.96046e-08 0
0.176247 1 0.823753
0.818758 1 0.181242
0.00653673 1 0.993463
0.155478 1 0.844522
0.810925 1 0.189075
1 0.668796 0
0 0.294704 1
1 5.96046e-08 0
0.0842543 1 0.915746
0.934387 1 0.0656133
0 0.615555 1
1 0.73214 0
0.678915 1 0.321085
1 0.809005 0
1 0.426396 0
1 5.96046e-08 0
0 0.525213 1
0.111537 1 0.888463
0 0.492297 1
1 0.566038 0
1 5.96046e-08 0
0.612519 1 0.387481
0 0.494659 1
1 5.96046e-08 0
0 0.728896 1
0.00181252 1 0.998187
0 0.745691 1
0 0.655015 1
0.011621 1 0.988379
1 5.96046e-08 0
0 0.995952 1
0.304448 1 0.695552
1 0.509002 0
0.796745 1 0.203255
0 0.727733 1
0 0.45256 1
0 0.141753 1
0.880976 1 0.119024
1 5.96046e-08 0
0 0.889596 1
1 5.96046e-08 0
1 0.999798 0
0 0.692653 1
0.858207 1 0.141793
0.529257 1 0.470743
1 5.96046e-08 0
0 0.592534 1
0 0.164506 1
1 5.96046e-08 0
1 5.96046e-08 0
0 0.65054 1
0 0.845195 1
0 0.830269 1
0.496914 1 0.503086
0.113411 1 0.886589
0 0.147425 1
1 5.96046e-08 0
0.203787 1 0.796213
0.568854 1 0.431146
0 0.749667 1
1 0.568379 0
1 5.96046e-08 0
0 0.8729 1
0 0.901783 1
0 0.492535 1
1 5.96046e-08 0
1 5.96046e-08 0
1 5.96046e-08 0
1 5.96046e-08 0
0 0.911876 1
0 0.558957 1
1 0.912451 0
1 0.2694 0
0.818127 1 0.181873
0 0.713067 1
1 5.96046e-08 0
0 0.348226 1
0 0.930964 1
0 0.772005 1
0 0.633969 1
1 5.96046e-08 0
0.782318 1 0.217682
1 5.96046e-08 0
0 0.574221 1
1 5.96046e-08 0
0.799781 1 0.200219
0.277753 1 0.722247
1 5.96046e-08 0
0.965936 1 0.0340644
1 5.96046e-08 0
1 5.96046e-08 0
0 0.627976 1
1 0.643696 0
0 0.893468 1
0.424954 1 0.575046
0 0.418228 1
0 0.949903 1
0.14533 1 0.85467
0.378654 1 0.621346
0.00449383 1 0.995506
0.162412 1 0.837588
1 0.539147 0
0 0.798114 1
0 0.090114 1
0.365519 1 0.634481
0 0.794752 1
0.0775627 1 0.922437
0 0.559186 1
1 5.96046e-08 0
1 5.96046e-08 0
0 0.808759 1
0.891854 1 0.108146
0 0.279488 1
1 5.96046e-08 0
1 5.96046e-08 0
0 0.348433 1
0.132762 1 0.867238
0 0.415983 1
1 0.953132 0
0.0219289 1 0.978071
1 0.0570992 0
1 5.96046e-08 0
0 0.230172 1
1 0.206537 0
1 5.96046e-08 0
1 5.96046e-08 0
0.1915 1 0.8085
1 5.96046e-08 0
0 0.716104 1
0 0.831231 1
0 0.721777 1
0 0.758868 1
0 0.288373 1
0 0.567446 1
0.169526 1 0.830474
0 0.424011 1
0.0676738 1 0.932326
0.823944 1 0.176056
0 0.920599 1
1 0.937969 0
0 0.782216 1
0 0.812102 1
0 0.532993 1
0 0.757286 1
0.341524 1 0.658476
0.245347 1 0.754653
1 5.96046e-08 0
1 5.96046e-08 0
0.833455 1 0.166545
0 0.435389 1
1 0.432184 0
1 0.675791 0
0 0.605257 1
1 5.96046e-08 0
0.856215 1 0.143785
1 5.96046e-08 0
0.103238 1 0.896762
1 5.96046e-08 0
0 0.920003 1
0 0.494144 1
0 0.80431 1
1 0.153959 0
0 0.992832 1
0.634969 1 0.365031
1 0.888235 0
0 0.434466 1
0 0.823841 1
0 0.371921 1
0 0.668957 1
0 0.528485 1
0 0.797885 1
1 0.514331 0
0 0.981491 1
0 0.436848 1
0.497789 1 0.502211
1 0.29333 0
0.898651 1 0.101349
1 0.853642 0
0 0.768268 1
0 0.250001 1
0 0.643245 1
0 0.837999 1
0 0.208374 1
0 0.679196 1
0 0.496656 1
0.139167 1 0.860833
0 0.573917 1
0 0.596117 1
0 0.824447 1
0 0.986309 1
0 0.680784 1
0 0.880967 1
0 0.922185 1
0 0.685467 1
0.293123 1 0.706877
0 0.17896 1
0 0.445761 1
0 0.367317 1
0 0.433644 1
0.0851385 1 0.914862
0 0.883131 1
0 0.620215 1
0 0.404591 1
1 0.243692 0
0 0.661348 1
1 0.678471 0
0 0.635703 1
0.546707 1 0.453293
0.417361 1 0.582639
0 0.946223 1
0 0.742389 1
0 0.641164 1
0.0176076 1 0.982392
0.116846 1 0.883154
0 0.835372 1
0 0.796676 1
0 0.431387 1
0 0.739648 1
0 0.619899 1
0 0.913008 1
0.606803 1 0.393197
0 0.726214 1
0 0.344247 1
0 0.478437 1
1 0.567576 0
0.172197 1 0.827803
0 0.495578 1
0 0.582268 1
0 0.424736 1
0 0.358313 1
0 0.681408 1
0 0.973489 1
0 0.309281 1
1 0.819987 0
0.00268772 1 0.997312
0 0.762839 1
