# vtk DataFile Version 3.0
Particle simulation
ASCII
DATASET POLYDATA
POINTS 400 float
1.3796 1.03993 0.839341
1.19315 1.00585 0.215538
0.689277 0.946507 2.24139
0.813622 0.976697 0.352092
0.852781 1.15983 2.94517
0.83927 1.04167 2.0271
0.847691 1.14344 3.64438
0.817122 1.14892 2.6107
1.1761 0.966991 4.08353
1.37759 1.05914 3.50566
1.38618 1.04856 0.831126
1.20145 0.973982 0.233408
0.716907 0.977831 2.26989
0.810704 0.966815 0.393227
0.886469 1.15463 2.98754
0.838423 1.03421 2.05391
0.828302 1.12132 3.75642
0.816381 1.15439 2.5973
1.16422 0.945839 4.10946
1.39462 1.06605 3.43386
0.208723 0.922345 0.814158
0.594314 0.986491 0.251528
0.195189 0.903912 2.20433
0.350692 0.921144 0.443145
0.204456 1.15437 2.94749
0.160098 1.02282 1.95803
0.259456 1.1143 3.61589
0.206945 1.12967 2.63305
0.595517 0.981429 4.13776
0.344592 0.993542 3.39621
0.206495 0.928589 0.813951
0.594439 0.955419 0.294678
0.179084 0.95195 2.25665
0.348497 0.92114 0.435843
0.180214 1.15653 2.96744
0.159193 1.00664 1.98278
0.269071 1.11129 3.58356
0.200646 1.1411 2.58764
0.600508 0.971795 4.17703
0.372019 0.984421 3.40659
1.07259 1.03449 0.86825
1.89398 1.27422 0.0506227
2.43861 1.26865 1.81292
2.3178 1.20489 0.694671
1.87847 1.19145 3.12761
1.9834 1.2269 2.12493
1.93294 1.15482 3.34657
1.90485 1.20933 3.00305
1.67712 1.23476 4.10396
0.968779 1.10212 3.25961
1.06941 1.02678 0.835127
1.887 1.26985 0.0143314
2.42928 1.23622 1.83532
2.31624 1.17626 0.709859
1.89984 1.2016 3.19032
2.01707 1.20625 2.08708
1.89693 1.14478 3.5594
1.92237 1.20284 2.9544
1.70749 1.23423 4.13116
0.992287 1.11732 3.20878
1.01705 1.12975 0.877683
1.26334 1.15192 0.0951647
1.10317 1.04248 1.73537
1.11436 1.15453 0.557628
0.627485 1.15247 2.96122
0.507463 1.09499 2.12268
1.04232 1.18026 3.62053
0.996715 1.18201 3.19362
1.45874 1.204 4.09495
0.964263 1.16096 3.18648
1.02768 1.11363 0.832928
1.27388 1.15383 0.0947903
1.09964 1.0382 1.69632
1.10613 1.15051 0.58585
0.614309 1.14778 2.97846
0.506645 1.10909 2.1872
1.03297 1.1843 3.59553
1.0044 1.22424 3.05677
1.43327 1.20778 4.07738
0.970367 1.16595 3.14588
2.14686 1.25991 0.96454
2.48852 1.342 0.0441225
2.12966 1.21387 1.75204
2.69421 1.28462 0.651887
2.76937 1.16435 2.91969
2.85432 1.22007 2.03053
2.77603 1.17602 3.75988
2.82731 1.175 2.8985
2.51372 1.26202 4.19711
2.04728 1.19462 3.12809
2.15775 1.24608 0.922079
2.49807 1.31873 0.0549044
2.1306 1.22148 1.81589
2.68352 1.27974 0.701941
2.75886 1.16391 2.93061
2.83572 1.2233 2.07196
2.77763 1.17353 3.80187
2.83935 1.18101 2.86372
2.55954 1.25757 4.13806
2.05734 1.19743 3.06946
2.03263 1.26088 0.965847
2.19576 1.31261 0.0892872
1.80869 1.24364 1.79583
2.0922 1.26458 0.621061
2.04562 1.18069 2.9875
1.98238 1.27628 1.98223
1.87856 1.20201 3.71253
1.7417 1.19521 3.00236
2.13886 1.23132 4.1051
1.80599 1.19655 3.09321
2.03796 1.25433 0.931424
2.16667 1.31384 0.0860866
1.79084 1.24811 1.8662
2.07819 1.25794 0.697587
2.07825 1.17906 2.97645
1.97372 1.27138 1.9753
1.865 1.20596 3.66656
1.74009 1.22037 3.09166
2.14746 1.22266 4.13927
1.79899 1.20592 3.04772
3.49932 1.10338 0.964454
3.47616 1.04843 0.092632
3.33437 1.28024 1.85274
3.50499 1.22797 0.743214
3.75422 1.17912 3.00117
3.87591 1.12605 1.98732
3.58066 1.15432 3.68552
3.73721 1.18956 2.79977
3.49433 1.12365 4.0452
3.60329 1.14147 3.18153
3.50238 1.08549 0.93458
3.49021 1.05497 0.099081
3.32738 1.28212 1.92501
3.48574 1.22075 0.755632
3.75497 1.1879 3.02902
3.87347 1.12987 2.04158
3.59575 1.14417 3.78947
3.71226 1.19649 2.85503
3.49384 1.11996 4.06281
3.5805 1.13557 3.2184
2.53116 1.24212 0.868181
2.81963 1.18952 0.113423
2.64568 1.28202 1.7994
2.6898 1.25636 0.677141
2.59255 1.19631 2.98237
2.47411 1.21737 2.05361
2.59702 1.1649 3.75273
2.57657 1.212 2.88821
2.82801 1.15538 4.03407
2.6412 1.19715 3.24926
2.54513 1.23687 0.87453
2.82175 1.19729 0.0553803
2.65497 1.33355 1.89837
2.7696 1.26456 0.697158
2.59996 1.20102 3.0086
2.4761 1.21567 2.04635
2.59197 1.15909 3.79145
2.58133 1.21173 2.911
2.84764 1.15506 4.06118
2.64047 1.20378 3.17843
4.12029 0.944313 0.972862
4.40342 0.860738 0.0948615
3.91125 1.00922 2.22855
4.26024 0.901673 0.411172
4.24423 1.13346 2.90138
4.15033 1.11206 2.04314
4.08953 1.0668 3.83003
4.26326 1.15904 2.67371
4.18708 0.894049 4.15575
4.04595 1.02054 3.19851
4.10553 0.905519 0.946153
4.3898 0.843286 0.105174
3.91438 1.01046 2.26015
4.23744 0.901602 0.434048
4.26352 1.15487 2.98334
4.13934 1.10755 2.07454
4.10154 1.07273 3.77851
4.24727 1.15023 2.74991
4.18522 0.852833 4.17295
4.04175 1.02813 3.17487
3.45576 1.01894 1.03699
3.13733 1.04221 0.137012
3.64971 1.04802 2.22688
3.4057 0.941004 0.532719
3.53639 1.17761 3.01312
3.57314 1.07956 1.94754
3.56513 1.06519 3.7524
3.54958 1.17309 2.863
3.41936 0.987643 4.02174
3.65053 1.02652 3.28791
3.46533 1.00245 1.03831
3.15952 1.02646 0.178456
3.64363 1.0288 2.21092
3.42743 0.941692 0.554476
3.55519 1.17755 3.01295
3.57674 1.0666 1.97096
3.5491 1.06451 3.79477
3.53436 1.18044 2.75269
3.40221 0.992574 4.04183
3.63434 1.03085 3.26929
1.37443 1.14096 0.831681
1.20001 1.26113 0.261656
0.699728 1.26343 2.23368
0.83646 1.20064 0.382839
0.798196 1.05593 2.89114
0.798751 1.12298 2.06641
0.845451 1.02334 3.68225
0.778529 1.06693 2.63913
1.16007 1.22853 4.04316
1.37186 1.14217 3.47754
1.37697 1.12099 0.861902
1.21223 1.27605 0.249399
0.707024 1.25563 2.26196
0.816699 1.20211 0.412179
0.789521 1.05608 2.89054
0.808047 1.13559 2.09387
0.844137 1.02303 3.67802
0.780519 1.05975 2.55574
1.17058 1.20633 4.07127
1.38389 1.13511 3.4397
0.232559 1.21026 0.792013
0.462346 1.21143 0.286867
0.217434 1.28676 2.21114
0.387473 1.23246 0.440257
0.230415 1.06993 2.88532
0.165791 1.14599 1.98631
0.281025 1.07753 3.61654
0.229766 1.07971 2.65222
0.508115 1.17349 4.18505
0.403691 1.17355 3.40997
0.246725 1.21316 0.785588
0.402992 1.2041 0.389955
0.208009 1.26174 2.23133
0.384019 1.21879 0.469078
0.224197 1.0671 2.90317
0.170272 1.14232 1.97581
0.29201 1.08309 3.59033
0.247586 1.10049 2.59269
0.512963 1.18956 4.12613
0.403652 1.18881 3.38223
1.0604 1.16848 0.857885
1.88864 0.904922 0.0535029
2.3661 0.954869 1.79166
2.28943 1.04018 0.771634
1.89188 1.07287 3.0825
1.98506 0.924031 2.1191
2.05292 1.0648 3.39688
2.11205 0.99052 3.48215
1.94123 0.928375 4.03578
0.91745 1.07365 3.22539
1.05631 1.17114 0.850742
1.93315 0.918962 0.0419589
2.37831 0.976939 1.81069
2.29972 1.02151 0.702156
1.89595 1.08265 3.15677
1.98483 0.92407 2.12298
2.01568 1.08105 3.31331
2.12192 0.993021 3.44585
1.89781 0.928158 4.06801
0.935593 1.07785 3.17144
0.971092 1.09691 0.856396
1.46471 1.03382 0.055965
1.17795 1.14367 1.72095
0.965625 1.09256 0.49
0.638047 1.06535 2.96291
0.49567 1.0808 2.15437
0.774355 1.0262 3.70291
0.738117 1.01513 3.41637
1.38896 1.01417 4.0497
1.0546 1.01925 3.20018
0.971645 1.09449 0.816864
1.44142 1.03183 0.0509065
1.17899 1.14762 1.69631
0.950486 1.0869 0.544186
0.624283 1.06976 2.93007
0.502112 1.08881 2.20166
0.764252 1.0209 3.56042
0.732542 1.03493 3.36836
1.40357 1.00914 4.06385
1.0579 1.0269 3.14753
2.09993 0.970445 0.914714
2.49065 0.872872 0.0601719
2.01647 1.00545 1.74038
2.8729 0.911761 0.616008
2.75881 1.10555 2.91181
2.87843 0.993783 2.05366
2.88976 1.03848 3.71799
2.88979 1.02555 2.94949
2.59164 0.962052 4.16749
1.91438 1.0212 3.13369
2.10705 0.955505 0.866591
2.47651 0.865751 0.0574636
2.01561 1.00179 1.80084
2.87097 0.902811 0.714142
2.74388 1.0951 2.85569
2.88702 0.98849 2.03214
2.87967 1.03096 3.77357
2.89211 1.03713 2.9464
2.50879 0.93512 4.19203
1.93064 1.03279 3.07724
1.99932 0.958431 0.892377
2.25828 0.86708 0.0732452
1.78469 0.987319 1.76105
2.15221 0.962266 0.593201
2.08833 1.03015 2.94127
1.76591 0.889145 2.09973
1.77884 0.988899 3.73615
1.7293 1.04163 3.1464
2.21657 0.951815 4.15406
1.74751 1.00753 3.10551
1.99849 0.955336 0.904652
2.2661 0.873001 0.0742273
1.78935 0.986305 1.82636
2.14406 0.960707 0.690796
2.07813 1.02527 2.92798
1.77033 0.883068 2.03865
1.7499 0.989589 3.77651
1.70622 1.0507 3.08169
2.16112 0.947883 4.15151
1.73942 1.01257 3.06452
3.53973 1.0984 0.921984
3.53709 1.14259 0.132407
3.35898 0.920258 1.82782
3.48794 0.994696 0.687639
3.75221 1.05166 2.97347
3.89016 1.02392 2.00313
3.62557 1.04596 3.72805
3.74147 1.00809 2.88569
3.49956 1.09067 4.04593
3.63738 1.04985 3.26629
3.56125 1.09448 0.900853
3.51414 1.15192 0.127619
3.3739 0.926974 1.92246
3.47933 0.994205 0.724371
3.76494 1.0565 3.00771
3.89115 1.02685 2.01749
3.61648 1.04763 3.7721
3.76423 1.02625 2.85831
3.46212 1.06363 4.07185
3.64143 1.05915 3.19809
2.59586 0.96518 0.793971
2.50424 0.964678 0.119582
2.67851 0.941062 1.78506
2.81459 0.943836 0.635314
2.63923 1.08174 2.93851
2.53652 1.00783 2.04521
2.58398 1.03827 3.75213
2.57729 1.03311 2.9536
2.71956 1.01464 4.04254
2.6419 1.03338 3.36779
2.61607 0.974283 0.776642
2.50897 0.959062 0.0964836
2.68127 0.941927 1.91314
2.79142 0.938709 0.671289
2.63455 1.08947 2.9884
2.53409 1.00639 2.03156
2.58314 1.03786 3.80944
2.58059 1.03273 2.97949
2.74097 1.01224 4.05164
2.61772 1.01925 3.29649
4.0284 1.18442 0.994835
4.34788 1.25457 0.165602
3.90219 1.16399 2.23019
4.1955 1.24536 0.43317
4.23397 1.07707 2.87253
4.1493 1.0392 2.02796
4.09692 1.10455 3.80542
4.24769 1.08344 2.71447
4.14946 1.27406 4.06639
4.02729 1.16515 3.23111
4.02707 1.18253 0.964636
4.31825 1.26824 0.167339
3.90104 1.16889 2.26409
4.1851 1.24285 0.434763
4.24106 1.07275 2.93528
4.14073 1.04425 2.03978
4.10605 1.12167 3.77431
4.24292 1.06928 2.73167
4.15345 1.18815 4.14036
4.02614 1.15808 3.24854
3.44452 1.22329 1.02896
3.15098 1.23113 0.205919
3.67394 1.18863 2.21404
3.39686 1.25519 0.509112
3.60459 1.06225 2.9534
3.6309 1.08352 1.96045
3.58025 1.11703 3.74243
3.58156 1.05626 2.83232
3.4029 1.18759 4.01124
3.6516 1.20499 3.31078
3.43283 1.20877 1.0493
3.18175 1.21811 0.251873
3.67161 1.18819 2.24018
3.39948 1.25338 0.568077
3.60088 1.06138 2.95716
3.62968 1.0949 1.98515
3.55676 1.11893 3.77307
3.58252 1.05845 2.77863
3.45045 1.22205 3.99825
3.64266 1.20494 3.2887
POINT_DATA 400
SCALARS particleColor float 3
LOOKUP_TABLE default
0 0.608441 1
0 0.838947 1
0 0.974343 1
0 0.941981 1
0 0.686603 1
0 0.672732 1
0 0.790671 1
0 0.720491 1
0 0.727486 1
0 0.836102 1
0 0.580837 1
0 0.762545 1
0 0.944578 1
0 0.825356 1
0 0.73073 1
0 0.683297 1
0 0.809946 1
0 0.921071 1
0 0.775212 1
0 0.893323 1
0 0.469215 1
0 0.80057 1
0 0.915847 1
0 0.961216 1
0 0.690858 1
0 0.965649 1
0 0.950792 1
0 0.896754 1
0 0.721896 1
0 0.687494 1
0 0.338641 1
0 0.708598 1
0 0.918558 1
0.0352345 1 0.964766
0 0.710838 1
0 0.85516 1
0 0.862804 1
0 0.829744 1
0 0.752412 1
0 0.737078 1
0 0.832278 1
0 0.682503 1
0 0.878454 1
0 0.957727 1
0.0373938 1 0.962606
0 0.791837 1
0 0.786893 1
0 0.679041 1
0 0.534216 1
0 0.916657 1
0 0.878724 1
0 0.613711 1
0.0758536 1 0.924146
0 0.97957 1
0.166875 1 0.833125
0 0.905586 1
0 0.814398 1
0 0.677312 1
0 0.480964 1
0 0.925661 1
0 0.967088 1
0 0.648296 1
0 0.892809 1
0.0520744 1 0.947926
0 0.850145 1
0 0.963687 1
0 0.676261 1
0 0.569944 1
0 0.613215 1
0.0216965 1 0.978304
0 0.959693 1
0 0.777894 1
0 0.783726 1
0 0.90139 1
0 0.989597 1
0 0.976668 1
0 0.768707 1
0 0.548454 1
0 0.582524 1
0.0433943 1 0.956606
0 0.834363 1
0 0.52694 1
0 0.687896 1
0 0.789739 1
0 0.809111 1
0 0.62624 1
0 0.843756 1
0 0.896835 1
0 0.566885 1
0 0.938821 1
0 0.818278 1
0 0.524786 1
0 0.687913 1
0 0.742779 1
0 0.952058 1
0 0.576143 1
0 0.845868 1
0 0.700191 1
0 0.607798 1
0.0832573 1 0.916743
0 0.662406 1
0 0.526813 1
0 0.861902 1
0 0.83989 1
0 0.770405 1
0 0.613468 1
0 0.633728 1
0 0.712446 1
0 0.635512 1
0.096607 1 0.903393
0 0.622177 1
0 0.603292 1
0 0.974909 1
0 0.819172 1
0 0.858967 1
0 0.663853 1
0 0.616506 1
0 0.700816 1
0 0.649236 1
0.259329 1 0.740671
0 0.817273 1
0 0.816946 1
0 0.62461 1
0 0.861911 1
0 0.873252 1
0.0256181 1 0.974382
0 0.890563 1
0 0.91335 1
0 0.814369 1
0 0.949314 1
0 0.830393 1
0 0.853168 1
0 0.678359 1
0 0.89505 1
0.035007 1 0.964993
0 0.995054 1
0 0.94673 1
0 0.978902 1
0 0.812052 1
0.0274237 1 0.972576
0 0.61637 1
0 0.591244 1
0 0.765869 1
0 0.994971 1
0 0.94975 1
0 0.707941 1
0 0.930369 1
0 0.932812 1
0 0.768804 1
0 0.805121 1
0 0.643009 1
0 0.576431 1
0 0.810157 1
0 0.889342 1
0.0609271 1 0.939073
0 0.804674 1
0 0.958924 1
0 0.795635 1
0 0.730503 1
0 0.978088 1
0 0.469432 1
0 0.609609 1
0.145119 1 0.854881
0 0.710661 1
0 0.757396 1
0 0.902688 1
0.074239 1 0.925761
0 0.840881 1
0 0.692067 1
0 0.845549 1
0 0.595959 1
0 0.551203 1
0.050545 1 0.949455
0 0.819002 1
0 0.798706 1
0 0.811138 1
0 0.926697 1
0 0.889063 1
0 0.740392 1
0 0.850217 1
0 0.479024 1
0 0.811971 1
0 0.760701 1
0 0.849172 1
0 0.865586 1
0 0.748868 1
0 0.912704 1
0 0.735144 1
0 0.787196 1
0 0.801027 1
0 0.522156 1
0 0.781864 1
0.00902261 1 0.990977
0 0.826488 1
0 0.843439 1
0 0.705571 1
0 0.894473 1
0 0.708848 1
0 0.796333 1
0 0.713149 1
0 0.529829 1
0 0.620552 1
0 0.899179 1
0 0.68014 1
0 0.646282 1
0 0.428953 1
0 0.649855 1
0 0.649771 1
0 0.739425 1
0 0.880623 1
0 0.482403 1
0 0.777338 1
0 0.791049 1
0 0.621669 1
0 0.631743 1
0 0.488043 1
0 0.556724 1
0 0.723222 1
0 0.646286 1
0 0.839236 1
0 0.274413 1
0 0.934433 1
0 0.929764 1
0 0.786378 1
0 0.623414 1
0 0.688416 1
0 0.845068 1
0 0.852781 1
0 0.972871 1
0 0.624191 1
0 0.193741 1
0 0.826643 1
0 0.765424 1
0 0.840325 1
0 0.618732 1
0 0.812952 1
0 0.820289 1
0 0.796286 1
0 0.789671 1
0 0.474676 1
0 0.599814 1
0 0.468218 1
0 0.753639 1
0 0.993126 1
0 0.981959 1
0 0.731647 1
0 0.575941 1
0 0.714457 1
0 0.539049 1
0 0.738933 1
0 0.602024 1
0 0.458518 1
0 0.97206 1
0 0.87847 1
0.100074 1 0.899926
0 0.702951 1
0 0.737669 1
0 0.720412 1
0 0.51953 1
0 0.79461 1
0 0.930558 1
0 0.457438 1
0 0.706626 1
0 0.908688 1
0 0.744799 1
0 0.853911 1
0 0.669023 1
0 0.518451 1
0 0.55641 1
0 0.843989 1
0 0.864764 1
0 0.41188 1
0 0.716734 1
0 0.744424 1
0 0.862095 1
0 0.840014 1
0 0.700005 1
0 0.576518 1
0 0.405878 1
0 0.890568 1
0 0.788877 1
0 0.592066 1
0 0.432392 1
0 0.821267 1
0 0.699459 1
0 0.407932 1
0 0.758678 1
0 0.820217 1
0 0.583788 1
0 0.875392 1
0 0.577604 1
0 0.489659 1
0 0.440136 1
0 0.771819 1
0 0.86579 1
0 0.494433 1
0 0.722587 1
0 0.633679 1
0 0.485938 1
0.0142293 1 0.985771
0 0.52847 1
0 0.357272 1
0 0.784335 1
0 0.759715 1
0 0.592083 1
0 0.54326 1
0 0.431207 1
0 0.54774 1
0 0.443718 1
0.0380419 1 0.961958
0 0.616612 1
0 0.41038 1
0 0.981234 1
0 0.712748 1
0 0.794984 1
0 0.595754 1
0 0.5536 1
0 0.52923 1
0 0.543464 1
0.160368 1 0.839632
0 0.658706 1
0 0.700465 1
0 0.56491 1
0 0.794157 1
0 0.838279 1
0 0.855804 1
0 0.791125 1
0 0.903341 1
0 0.709961 1
0 0.897069 1
0 0.646393 1
0 0.717375 1
0 0.693434 1
0 0.783227 1
0 0.87562 1
0 0.88745 1
0 0.807896 1
0 0.80694 1
0 0.685808 1
0 0.982198 1
0 0.521009 1
0 0.821124 1
0 0.669116 1
0 0.776522 1
0 0.854601 1
0 0.625608 1
0 0.742869 1
0 0.744716 1
0 0.778911 1
0 0.590134 1
0 0.522821 1
0 0.813711 1
0 0.816984 1
0 0.82975 1
0 0.990205 1
0 0.693847 1
0 0.77536 1
0 0.602382 1
0 0.612709 1
0 0.762398 1
0 0.644225 1
0 0.491918 1
0.05277 1 0.94723
0 0.607679 1
0 0.670651 1
0 0.791004 1
0 0.903286 1
0 0.756597 1
0 0.837604 1
0 0.82423 1
0 0.607229 1
0 0.359684 1
0 0.98835 1
0 0.622546 1
0 0.690878 1
0 0.755402 1
0 0.886061 1
0 0.824541 1
0 0.59039 1
0 0.847514 1
0 0.5638 1
0 0.82277 1
0 0.767123 1
0 0.755649 1
0 0.844225 1
0 0.560402 1
0 0.735107 1
0 0.558806 1
0 0.846182 1
0 0.756748 1
0 0.481428 1
0 0.788324 1
0 0.658909 1
0 0.719456 1
0 0.871708 1
0 0.529382 1
0 0.736803 1
0 0.556064 1
0 0.821411 1
0 0.690203 1
