# vtk DataFile Version 3.0
Particle simulation
ASCII
DATASET POLYDATA
POINTS 400 float
4.96399 2.78336 5.73026
4.85595 3.81508 5.71619
2.59807 4.6312 4.93849
9.14602 1.69434 9.33465
5.45638 2.9267 1.75517
0.498851 2.49989 7.95614
0.0504963 5.20312 2.23861
1.15393 3.75084 6.67771
8.19289 7.95823 7.74332
2.08901 6.69661 2.56817
3.28928 3.18846 1.88252
7.51032 1.67759 3.83305
3.21723 8.97546 9.10505
7.31404 7.29276 10
0.644611 6.74454 9.44506
4.32873 1.0464 9.92595
2.46396 7.89447 1.25018
6.40334 3.87225 8.18185
8.87576 7.56124 2.3549
1.28745 4.85429 9.72611
4.72817 0.278662 3.10636
7.54244 4.67925 4.99966
10 10 10
9.8991 5.45449 7.119
2.30162 0.22738 4.76193
2.93549 5.98123 8.18986
0 9.98053 5.02216
2.04866 9.50713 8.83687
2.35285 5.39756 3.63543
5.61727 5.58256 2.7892
3.47989 3.65813 8.6938
0.713314 7.99177 5.25887
0.653504 2.74358 6.81109
7.50459 7.25838 6.96294
4.14167 3.99008 9.2602
1.53603 6.08464 8.94696
8.16063 5.07614 0.635384
3.99028 1.26863 0.202903
8.87395 7.27811 7.77647
8.35682 3.48825 2.59451
9.73859 2.54875 9.37012
6.34885 6.51296 0.154027
2.3476 8.33792 5.4912
8.91798 5.2932 9.55696
4.07375 2.43872 9.47955
9.43581 3.4457 1.4098
8.86121 2.94492 3.68506
4.87312 0.648893 3.07978
9.73772 5.8129 2.04654
1.95086 0.570143 5.64076
4.06574 3.02889 4.07189
4.92786 0.179423 5.41749
0 1.46004 3.90119
0 0 0
6.29904 0.379389 9.45585
5.01765 4.47637 4.6269
3.18516 8.41895 8.04792
6.35899 2.89446 4.83006
7.04231 3.53516 9.41927
0 5.01232 0
2.13524 5.13975 3.57525
3.94029 2.94562 4.99701
3.61914 8.35792 2.14193
0.571233 4.77321 1.14185
0.56937 8.66988 6.77187
0.523195 9.83949 3.57585
7.27521 2.09194 4.05001
4.95318 8.29322 7.1171
8.21189 0.31397 3.13931
7.6277 4.04506 9.10732
1.88137 6.31525 0.917889
2.90076 5.06722 0.25996
0.25862 3.14471 0.479778
3.52803 9.13492 3.47317
5.48267 4.35178 3.15308
1.36141 6.93655 6.15957
0.528942 1.58207 1.37519
4.84612 7.95868 5.81056
3.98458 7.57661 7.77759
1.33753 3.49372 6.89832
9.8001 6.53942 6.26074
5.17935 4.36827 6.27858
5.48851 2.40999 5.99993
6.08863 4.05455 0.0164987
8.11637 5.05632 0.843927
9.47552 1.02736 4.66854
5.38457 1.63834 2.79098
3.98108 9.26989 7.34748
6.02439 0.575572 9.62862
4.54866 1.23134 8.98885
5.42887 1.82318 4.8758
2.53387 1.1137 7.13855
0.610108 6.88385 0.0931271
8.65389 2.16408 0.826867
5.95284 0.279049 5.05255
3.97391 1.38196 4.67229
10 1.64969 0.917463
9.62907 5.05509 5.84989
4.57289 0.96205 4.02354
6.41756 4.56632 8.85011
9.3093 5.56441 6.83682
3.40088 9.35232 8.51296
2.40334 8.10426 0.246957
1.28227 5.13814 0
1.18253 4.3303 3.48804
9.59508 2.41192 0.895717
5.44938 5.89811 7.52585
5.60126 7.42574 1.01772
3.98453 2.15958 3.22641
4.8878 5.16036 5.65274
5.68633 7.44077 1.94242
9.5066 0.263898 3.7139
0 3.41454 4.58279
7.81531 4.55247 7.23552
5.19321 8.27499 1.77614
5.07526 8.78509 1.45247
2.42106 7.86948 0.133418
3.69431 3.98802 1.30162
0 4.4983 0.879395
5.25145 7.95133 2.80099
2.66994 4.35188 7.7805
0.131444 2.32965 7.47793
0.463404 4.34596 9.4997
3.86885 6.65033 5.1984
0.208779 0.675493 8.27206
1.98347 6.69905 8.06914
4.87136 1.20924 6.32061
2.90672 0.766261 3.31027
4.541 1.48067 6.18423
3.31442 9.56468 7.96412
8.43715 7.46987 9.13042
6.22323 6.54722 4.28581
8.69522 0.507068 7.01303
6.4523 0.13329 6.34436
1.56905 3.54096 3.1763
4.87662 5.05383 4.8043
6.29036 3.78089 0.460954
9.48207 6.35084 7.14689
0.52082 9.29292 9.73905
0.530174 8.46562 3.74017
8.00789 1.12298 7.53755
6.93883 10 0
0 3.87761 1.22833
1.03471 5.5133 2.38464
8.82095 9.17956 5.31312
2.52844 1.44632 3.99682
8.75932 0.444868 7.69035
0.360268 6.17597 2.85072
4.67042 9.70004 7.61602
8.99731 5.32911 9.70698
7.6884 0.510618 7.58882
9.83868 2.71706 5.94622
3.34379 1.59995 8.08172
3.72273 5.18429 2.20686
6.18735 2.2198 2.79416
8.58804 5.33354 4.30003
7.70649 5.96956 0.387289
6.29714 9.45703 1.29837
3.24339 2.49504 3.64804
1.10433 5.57784 9.05972
9.11743 0.584072 3.71985
4.08836 3.70139 3.82933
0.336788 3.30645 8.8491
0.591321 1.74871 9.2702
0.407396 2.84806 5.61974
0 0.758527 4.26228
1.90727 3.91518 9.79799
5.80491 3.40897 6.2023
1.2037 1.30383 7.47909
9.42683 1.55954 6.96048
8.67285 8.57749 2.03888
5.24794 9.98922 5.23635
2.77614 5.12293 3.78639
1.1048 2.68322 0.997575
9.73728 7.04862 0.625937
7.31302 3.26145 3.50146
1.4966 0.900316 2.97948
8.98264 4.80368 2.60395
0 4.98613 6.99045
3.90367 7.26276 1.76533
7.62533 8.21237 0
4.65396 6.63231 9.16969
4.48466 8.82875 5.67948
10 3.9036 10
9.34769 0.0579161 0
3.23988 2.04297 7.08833
8.07701 9.51775 6.95063
6.55123 6.99611 7.27779
9.18856 1.85866 4.72421
1.00396 6.1459 3.74728
2.41822 0.672604 1.29821
0.559606 0.589157 1.6499
5.14697 2.20634 6.04156
8.23641 6.31383 3.31612
9.40003 0.801072 5.10799
1.95381 3.25862 9.07211
9.14656 9.44979 7.59324
8.38239 0.243531 7.9525
9.52445 6.37469 9.52936
4.64466 1.46535 0.277957
2.24582 10 7.28988
3.33519 7.5868 5.4801
7.18485 9.37949 5.42527
9.94781 7.31314 7.76886
1.47224 1.92421 3.95457
4.01369 6.85621 7.72577
1.42209 7.56672 8.11631
8.58169 0.169044 0.510547
2.92695 7.19574 4.71023
5.84251 6.08665 3.68619
7.43404 9.84543 9.93626
7.1309 4.97218 9.4315
0.619014 4.97209 4.36341
6.03827 4.87376 0.642183
4.26538 3.37037 3.01932
1.27679 4.77809 1.27969
0.256557 1.62673 5.64281
6.35824 1.915 10
7.68012 0.0692259 9.11885
8.71271 8.39279 8.86195
7.1425 2.19382 0.938958
3.18655 9.13097 0.819327
1.50047 0.90251 7.6991
6.46319 0.269322 8.75003
2.19829 8.11491 8.35079
8.13278 2.98946 2.25419
3.14837 0.488481 1.05813
4.92657 6.5797 1.22682
7.38398 0.641356 7.63959
5.67101 7.70002 4.37093
4.87302 1.08719 9.77931
8.68138 0 0.912059
8.2882 9.54657 8.41248
8.26961 7.60893 0.186166
7.39764 9.6825 5.93372
0.963154 6.474 6.67215
6.11528 1.49506 4.86177
9.44376 7.84845 7.14985
7.28262 0.0562689 7.86519
6.36201 7.58271 4.22138
7.44235 0.849835 7.40896
10 3.14118 8.61313
10 1.07231 9.10973
9.28082 9.22211 0.177981
6.02348 2.91489 4.21577
7.50398 0.911391 4.56875
4.05029 0.358787 2.55488
6.43159 7.32171 0.83177
2.4025 4.36815 7.84088
0.24973 0.437872 8.42985
9.45684 6.05174 5.00858
8.11098 4.84919 3.25384
4.57949 6.93454 0
4.66334 3.78168 9.13101
9.29234 7.5055 9.62425
3.47382 8.87624 1.28521
6.49581 2.49194 1.7289
0.527379 2.67774 0.127715
2.93782 3.38713 2.5578
3.67142 0.376635 2.72041
4.2662 1.12019 2.9126
0.171809 3.892 1.13586
2.3825 8.57377 4.99251
8.76057 5.53679 3.71852
2.07195 8.55008 8.18073
3.8221 2.36832 5.0998
8.13412 7.99115 7.39976
7.79101 7.09382 8.83975
1.95846 7.25941 6.50674
9.44331 0.498849 2.03933
6.87961 5.26222 8.22705
7.63543 3.10546 6.5135
8.81104 4.2486 0
5.88641 0 2.16954
3.14087 2.7077 6.86208
3.71043 9.87843 1.0426
6.4673 7.71787 2.99303
5.76103 7.01544 1.70365
9.6471 7.58498 2.62827
9.22499 5.99836 4.82666
9.45727 2.13365 9.92349
9.75355 6.00145 8.36787
0.85344 2.11277 4.12569
0.140773 6.3083 1.28384
4.23971 7.10985 3.70988
5.56683 10 5.39112
8.85857 3.2299 1.64637
7.17658 6.92377 7.79873
6.62798 0.170146 8.78585
9.40925 2.60429 2.86128
0.813326 8.53487 0.238452
10 0 6.83992
1.12144 5.23587 5.88771
7.18159 8.90503 8.98859
7.66312 5.02596 8.89725
2.31616 8.31162 0.174681
6.08451 0.696148 9.54257
6.40254 0.61184 9.64973
7.64055 0.657033 7.35903
2.77668 0.482394 6.33627
1.02981 1.23959 7.1282
6.03358 4.81903 9.60189
8.10885 0.200034 7.78928
7.03309 9.05681 9.05921
7.39033 0.189701 8.00074
0.644448 9.20837 9.82051
0 8.65289 9.38128
7.69169 0.462112 7.37143
8.5164 1.34447 7.8049
8.27994 3.24112 0
3.39605 6.71118 1.73036
3.72059 8.07543 4.56517
8.16057 2.16523 6.03501
7.39251 0.0811228 7.93767
9.44506 1.36601 9.77357
3.04637 2.42495 1.95305
5.87892 4.15741 7.65699
6.82616 0.284451 7.51987
8.86641 8.15339 8.74524
2.60762 0.977605 2.79867
8.06925 5.022 0.796029
1.26934 1.14991 0.34747
0.627954 1.81751 8.80764
7.86245 0.306429 6.5843
7.61375 0.330675 8.17581
7.74086 5.68564 5.62093
7.27497 0.323634 8.98627
6.04752 6.34167 5.36851
9.16472 9.54067 3.00866
7.54051 0.394069 7.65013
2.86897 2.30296 7.1976
3.4112 0.563201 6.24209
8.44685 0 3.43565
2.82063 4.05631 9.27654
1.07581 0.856217 0.954994
7.8775 1.10289 7.0287
1.02706 5.90469 2.73798
7.26434 0.229766 8.06416
7.49606 1.0397 8.73238
7.85811 2.92181 3.15195
8.77913 0.494088 2.00933
6.59625 0.333847 8.43182
2.97454 0.607341 8.69581
2.03159 1.14348 8.88935
9.87866 7.33764 8.29006
1.14019 0.498985 7.67561
4.76524 0.612539 3.19484
6.01862 9.65623 1.32454
7.46968 0.104414 7.56598
6.43808 6.24267 4.99429
7.30668 0.33908 7.79009
7.62796 0.592421 7.82903
7.03707 8.88515 7.58463
9.67055 8.77998 5.38967
4.17432 1.51142 4.31492
7.32314 0.521687 7.3955
3.32434 8.59052 1.85235
7.08014 8.3807 1.95382
8.1312 0.24335 6.46182
7.64809 0.763337 7.5959
0.476398 1.08463 6.34153
2.00535 1.46506 9.3487
1.68677 0.911311 8.57045
7.6886 0.653924 7.32505
5.28298 8.83333 1.24855
8.07894 4.10426 4.68887
1.66366 1.04087 8.94638
5.62862 6.38315 3.28489
9.96653 8.53841 1.48633
2.26283 0.789163 8.80349
4.62568 0.493468 2.91498
6.94903 7.21254 7.2633
8.72876 8.54983 4.91816
7.39238 0.47531 7.77788
7.32458 0.354959 8.16279
8.63135 6.65313 1.06687
1.6832 1.03213 8.89593
9.78463 8.42458 1.49938
0.930985 0.778165 1.93799
7.53582 0.640779 7.74614
8.4378 0.00104693 9.11512
7.61312 0.476904 7.26446
7.95749 6.81495 7.33447
8.06245 0.606925 7.63632
4.21554 1.97709 5.02551
1.84309 1.01381 8.92155
7.46255 0.524678 7.36178
7.57732 0.508962 7.4431
4.63115 1.46028 2.13586
9.07379 0.161102 7.68938
7.66586 0.773994 7.47706
7.43763 0.78954 7.46169
6.50338 6.50438 5.45259
7.65692 0.550466 7.50641
1.08893 8.70871 0
8.35991 0.564062 6.85055
7.66975 0.625244 7.60867
2.34084 0.947932 3.10134
4.16919 9.3688 6.75901
10 1.29791 8.08686
POINT_DATA 400
SCALARS particleColor float 3
LOOKUP_TABLE default
1 0.848668 0
0.441566 1 0.558434
0.15913 1 0.84087
0 0.996862 1
1 0.750895 0
0.821203 1 0.178797
1 5.96046e-08 0
1 0.496921 0
1 5.96046e-08 0
1 0.189513 0
1 0.970831 0
0.90138 1 0.0986201
0.743996 1 0.256004
1 5.96046e-08 0
1 0.147628 0
1 0.0336937 0
0.906571 1 0.0934294
0 0.771073 1
0 0.947758 1
1 0.623674 0
0.742252 1 0.257748
1 0.383664 0
1 5.96046e-08 0
1 5.96046e-08 0
0.665185 1 0.334815
1 5.96046e-08 0
1 0.575378 0
0.716455 1 0.283545
1 5.96046e-08 0
0.522372 1 0.477628
1 5.96046e-08 0
1 5.96046e-08 0
1 0.358873 0
0 0.704823 1
1 0.427789 0
1 0.644178 0
1 0.844196 0
0.349358 1 0.650643
1 5.96046e-08 0
1 5.96046e-08 0
1 5.96046e-08 0
0.696121 1 0.303879
1 0.257039 0
0.241153 1 0.758847
1 0.770647 0
1 0.279823 0
0 0.854014 1
0.415145 1 0.584855
1 5.96046e-08 0
1 0.656633 0
1 0.674192 0
0.520111 1 0.479889
1 0.313377 0
1 5.96046e-08 0
1 0.152856 0
1 0.743526 0
1 0.607644 0
0.690681 1 0.309319
1 0.0236807 0
1 5.96046e-08 0
0.499266 1 0.500734
1 0.184647 0
1 5.96046e-08 0
1 0.374638 0
0.811819 1 0.188181
0.387014 1 0.612986
1 5.96046e-08 0
0.87508 1 0.12492
1 0.644248 0
1 5.96046e-08 0
1 0.0569977 0
1 5.96046e-08 0
0.234756 1 0.765244
1 5.96046e-08 0
1 5.96046e-08 0
0.613495 1 0.386505
1 5.96046e-08 0
1 5.96046e-08 0
1 5.96046e-08 0
1 5.96046e-08 0
1 5.96046e-08 0
1 0.0251261 0
0 0.878144 1
1 5.96046e-08 0
1 5.96046e-08 0
0.317069 1 0.682931
1 0.263328 0
1 0.722817 0
0.97763 1 0.0223702
1 5.96046e-08 0
1 0.89191 0
1 0.747629 0
0.025621 1 0.974379
1 5.96046e-08 0
1 5.96046e-08 0
0.332857 1 0.667143
0.545866 1 0.454134
1 5.96046e-08 0
0.996924 1 0.00307596
1 0.0213701 0
0.765129 1 0.234871
0.584092 1 0.415908
1 5.96046e-08 0
0.0276673 1 0.972333
0 0.723537 1
0.555342 1 0.444658
1 0.484817 0
1 0.877225 0
1 5.96046e-08 0
1 0.661959 0
1 5.96046e-08 0
1 0.137921 0
1 0.778186 0
1 0.0502682 0
1 5.96046e-08 0
0.185045 1 0.814955
1 0.996419 0
0.669546 1 0.330454
1 5.96046e-08 0
1 5.96046e-08 0
1 5.96046e-08 0
1 5.96046e-08 0
1 5.96046e-08 0
1 5.96046e-08 0
1 0.721443 0
1 5.96046e-08 0
0.894938 1 0.105062
0.976907 1 0.0230926
1 5.96046e-08 0
1 0.29629 0
0.79174 1 0.20826
1 0.845342 0
0.607527 1 0.392473
0.664837 1 0.335163
1 5.96046e-08 0
0 0.286407 1
0.233679 1 0.766321
1 5.96046e-08 0
0.929799 1 0.0702011
1 0.658049 0
1 5.96046e-08 0
1 0.687688 0
1 0.776915 0
0.64412 1 0.35588
1 0.637584 0
0.848794 1 0.151206
1 0.864698 0
1 5.96046e-08 0
0.0306728 1 0.969327
1 0.960337 0
0 0.367873 1
0.532341 1 0.467659
1 0.976144 0
0.438203 1 0.561797
1 5.96046e-08 0
0.950322 1 0.0496781
1 5.96046e-08 0
1 5.96046e-08 0
1 0.284331 0
1 5.96046e-08 0
1 0.904988 0
1 0.07276 0
1 5.96046e-08 0
0.851443 1 0.148557
1 5.96046e-08 0
0.714066 1 0.285934
1 0.573405 0
1 5.96046e-08 0
1 5.96046e-08 0
1 5.96046e-08 0
1 5.96046e-08 0
1 0.199969 0
1 5.96046e-08 0
0 0.765258 1
1 5.96046e-08 0
0.378508 1 0.621492
1 5.96046e-08 0
0.734666 1 0.265334
1 5.96046e-08 0
0.248572 1 0.751428
1 0.709921 0
1 5.96046e-08 0
0.516085 1 0.483915
1 5.96046e-08 0
0.505682 1 0.494318
0.38991 1 0.61009
1 0.273847 0
0.686483 1 0.313517
1 0.787882 0
0.672654 1 0.327346
1 0.774981 0
1 0.826428 0
1 0.353182 0
1 5.96046e-08 0
1 0.280946 0
0 0.779153 1
1 0.302465 0
1 5.96046e-08 0
0.6503 1 0.3497
1 0.247462 0
1 0.363874 0
1 5.96046e-08 0
0.869777 1 0.130223
1 5.96046e-08 0
1 5.96046e-08 0
0.984783 1 0.0152171
1 5.96046e-08 0
1 5.96046e-08 0
1 0.605839 0
1 0.913593 0
0.489741 1 0.510259
1 5.96046e-08 0
1 5.96046e-08 0
1 5.96046e-08 0
0.188369 1 0.811631
1 0.842893 0
1 0.565466 0
1 5.96046e-08 0
0.225155 1 0.774845
0.816751 1 0.183249
1 5.96046e-08 0
1 5.96046e-08 0
0 0.94205 1
0.15297 1 0.84703
1 5.96046e-08 0
1 5.96046e-08 0
1 0.647463 0
0.419236 1 0.580764
0 0.312084 1
0.200799 1 0.799201
1 5.96046e-08 0
1 5.96046e-08 0
1 5.96046e-08 0
1 0.879812 0
1 0.641554 0
1 0.882666 0
0.927252 1 0.0727476
1 0.534368 0
0 0.713452 1
1 5.96046e-08 0
0 0.33444 1
1 0.746556 0
1 5.96046e-08 0
1 5.96046e-08 0
1 5.96046e-08 0
0.892928 1 0.107072
1 0.946354 0
1 0.161995 0
0.0421228 1 0.957877
1 5.96046e-08 0
1 0.766961 0
0.669499 1 0.330501
1 5.96046e-08 0
1 5.96046e-08 0
1 0.684008 0
1 0.725321 0
0 0.838984 1
0 0.893604 1
1 5.96046e-08 0
1 0.0600271 0
1 5.96046e-08 0
0.628871 1 0.371129
1 0.810639 0
1 0.379936 0
0.958543 1 0.0414568
0.747189 1 0.252811
1 5.96046e-08 0
0.635518 1 0.364482
0.437637 1 0.562363
1 5.96046e-08 0
1 5.96046e-08 0
1 0.432772 0
1 5.96046e-08 0
1 5.96046e-08 0
1 5.96046e-08 0
1 0.639092 0
1 5.96046e-08 0
1 5.96046e-08 0
1 0.2793 0
1 5.96046e-08 0
0.487058 1 0.512942
1 0.0405937 0
1 0.550178 0
1 5.96046e-08 0
1 0.98302 0
1 0.38756 0
0.55769 1 0.44231
1 0.782309 0
1 5.96046e-08 0
1 5.96046e-08 0
0.513429 1 0.486571
1 5.96046e-08 0
0.609436 1 0.390564
1 0.615062 0
1 0.249391 0
1 0.872523 0
0.575768 1 0.424232
1 5.96046e-08 0
0 0.681581 1
0 0.905146 1
1 5.96046e-08 0
1 0.691761 0
0 0.441983 1
1 5.96046e-08 0
0 0.543264 1
1 5.96046e-08 0
1 5.96046e-08 0
0 0.346391 1
1 5.96046e-08 0
1 5.96046e-08 0
0.484034 1 0.515966
1 5.96046e-08 0
1 5.96046e-08 0
0 0.636919 1
1 5.96046e-08 0
0 0.865349 1
0.791912 1 0.208088
0 0.368128 1
1 5.96046e-08 0
1 0.190061 0
0.819243 1 0.180757
0.23482 1 0.76518
0 0.853063 1
0 0.757012 1
0 0.576612 1
0 0.991253 1
1 0.874127 0
1 5.96046e-08 0
1 0.156981 0
0 0.348149 1
0.516218 1 0.483782
0.117511 1 0.882489
1 0.361401 0
1 5.96046e-08 0
1 5.96046e-08 0
1 0.674953 0
1 5.96046e-08 0
0 0.839288 1
1 0.393634 0
1 0.353927 0
1 5.96046e-08 0
1 5.96046e-08 0
1 0.476303 0
0 0.788138 1
0.533894 1 0.466106
0.807213 1 0.192787
0 0.799578 1
1 5.96046e-08 0
0 0.639107 1
1 0.630259 0
0 0.79486 1
0 0.658717 1
1 5.96046e-08 0
1 0.448742 0
0.328863 1 0.671137
0 0.390857 1
0.868117 1 0.131883
1 0.600638 0
0.574502 1 0.425498
0 0.623396 1
1 5.96046e-08 0
0 0.76069 1
0 0.189134 1
0 0.407735 1
1 5.96046e-08 0
0.74525 1 0.25475
0 0.754195 1
1 5.96046e-08 0
0.877296 1 0.122704
0.782044 1 0.217956
0 0.971608 1
1 5.96046e-08 0
1 0.716589 0
0 0.416267 1
0 0.182885 1
0 0.844052 1
0 0.517197 1
1 5.96046e-08 0
1 0.16811 0
0 0.741513 1
0 0.302908 1
0 0.67126 1
1 5.96046e-08 0
0 0.528019 1
1 0.586129 0
0 0.453233 1
0 0.870319 1
0 0.738942 1
1 5.96046e-08 0
0 0.982978 1
0 0.273151 1
0 0.806862 1
1 0.431874 0
0 0.840349 1
0.265738 1 0.734262
1 5.96046e-08 0
0 0.674688 1
1 5.96046e-08 0
1 0.132818 0
1 5.96046e-08 0
