# vtk DataFile Version 3.0
Particle simulation
ASCII
DATASET POLYDATA
POINTS 400 float
6.13014 2.50543 4.68146
0 3.55625 10
0.906169 0.901138 5.9965
6.3409 1.01078 6.02619
7.6035 0 3.45974
9.5582 0.718371 5.09404
7.16171 6.22607 9.7567
1.16275 9.67884 1.27594
9.69758 0.303729 5.37304
7.13798 2.36086 6.69279
7.25179 0.0792127 2.23465
6.65159 9.46323 3.77572
9.45398 0.705504 2.68563
9.25059 4.39962 3.26452
0.749379 1.64939 2.89874
2.54345 6.58519 0.566137
8.2937 3.74291 4.58431
4.85136 0.275864 3.79566
9.96865 6.87019 9.81026
4.13339 6.81005 7.17346
1.05238 1.8707 0.433635
4.98274 7.97418 0.477616
5.46678 1.47639 1.38202
0.509347 3.13441 5.21546
9.43619 8.8954 5.14932
2.75402 0.590437 6.69528
10 5.70999 0.662445
8.46762 7.09868 1.81398
9.53773 0.725792 4.74623
2.9792 0.476221 8.57009
2.04935 4.42793 4.53235
9.62558 0.77952 2.72037
0 10 7.86371
1.91472 7.78067 8.98835
7.86311 4.32244 5.32725
7.16549 8.12816 1.85915
5.71193 6.01386 8.07813
8.01633 0.143896 0.572341
1.53728 8.44971 9.02727
1.88193 9.24198 1.27293
9.43709 4.52878 8.62112
9.83398 9.33409 0.754541
1.79781 8.22301 5.39396
4.47597 2.05137 8.42069
4.46007 9.80935 8.60296
5.48706 2.09583 3.47014
8.42805 2.15161 6.76119
2.2017 6.39063 0.398677
0.101809 0 4.27234
1.07911 7.78817 9.54579
0 3.16309 0.422184
8.13931 9.88758 8.45405
0.132067 1.11385 9.89458
1.75781 6.81766 2.56571
3.71606 6.25041 6.18643
1.79249 2.3372 0.569445
4.08403 2.26522 3.50935
3.30934 0.179875 8.87959
2.42072 8.21924 1.01667
7.9609 4.23954 5.50421
1.80022 8.86452 4.10299
7.49846 2.75262 9.02262
0.342129 5.67869 5.53594
5.12542 8.55334 8.20525
0.992718 5.7174 0.152804
6.65706 0.82264 9.08196
8.02161 4.24673 0
2.17064 4.45057 3.23194
0.827469 2.83093 9.73371
0.561109 5.51026 0.234175
7.9811 2.48477 3.00811
7.19223 6.77967 4.01854
4.92711 9.70639 4.71173
2.49536 2.11855 7.65999
0 2.49667 6.76199
8.3361 1.43479 3.11529
7.46943 3.43873 8.73059
9.0112 3.42134 9.10584
1.20031 4.37489 8.75626
9.2284 0.103337 1.03042
5.08772 7.71225 6.42911
0.0188349 7.58524 6.05534
2.06879 8.28611 4.25218
2.63899 4.96341 1.55474
4.47088 0.421817 7.74845
9.1541 2.52804 6.29466
1.84667 8.85096 5.97732
1.02367 4.12659 8.8262
0.293762 6.56027 4.87493
3.97847 7.59961 6.28466
4.10951 0.164817 4.11793
8.63574 7.42173 7.25118
5.43051 6.39741 1.87075
5.09786 1.11856 7.81307
4.63686 4.1649 2.92659
3.11611 6.37914 3.58761
8.48858 2.08875 0.689101
6.66239 3.63837 4.65225
3.90537 6.64681 5.66497
1.07084 6.97596 1.82223
0.771495 1.51318 9.19567
7.79693 9.24746 2.70969
9.61756 1.13543 6.47181
4.93362 1.24155 0.759692
2.37873 4.98188 5.86455
1.47501 8.18965 6.78222
8.26235 0.809512 7.26734
1.81368 6.59466 0.127368
3.46439 4.68285 6.71857
9.43623 4.64942 0.309804
1.18613 10 5.45086
7.11654 3.58916 8.56846
0.598762 5.62914 0.615472
8.42889 3.60554 5.17646
2.43775 3.29148 5.62429
5.3887 3.77001 6.37456
1.60271 1.12626 1.36464
1.83389 5.17303 3.66612
2.44415 2.1505 8.60928
4.92246 8.55497 1.85698
1.45549 4.96831 0.08726
7.15675 6.43728 3.60703
6.11455 9.05628 9.89961
7.07639 10 7.97347
1.84814 0.899408 5.61235
3.53408 1.32994 8.04894
5.01633 7.815 3.33547
7.91364 3.76789 7.49965
6.66539 6.96917 8.22738
6.13012 1.595 2.82746
1.94551 6.08756 5.9311
5.33897 6.23263 1.59497
7.87182 8.7082 6.21026
4.30972 7.40076 1.95288
5.93696 4.35947 5.73268
2.29005 1.58562 4.30055
1.98874 6.50418 3.99141
3.52716 3.1005 7.2589
8.07404 6.58346 6.45627
9.74805 5.47476 3.78647
4.61859 0.412824 4.12331
9.09726 7.62768 8.319
8.2214 6.46701 6.63793
2.92105 0.578291 2.24492
1.39536 0 10
4.54843 0.770164 3.6536
8.44126 1.58645 1.72513
1.99301 1.0479 4.02837
8.57951 5.22406 2.31957
6.64697 0.936172 10
4.60681 0.493812 3.78463
1.34102 10 4.83678
4.99281 5.81433 0.833414
1.93749 1.28377 9.54855
7.05784 6.87406 8.87537
0.172233 4.37069 3.35847
4.15997 5.60386 8.94449
4.71485 9.79404 4.14152
2.73404 6.9483 7.76627
9.20341 4.44571 2.90832
1.25672 0.829791 3.18903
4.73509 0.456997 5.0729
10 6.77961 6.8928
4.5223 2.5431 8.10619
3.90534 0.105648 4.56011
2.53807 9.34198 3.24199
6.31228 1.72715 6.36254
0.836741 9.22234 9.20261
3.18075 5.94409 4.77782
5.10385 1.56387 4.76682
7.03963 10 7.31331
3.10514 2.93435 5.07172
1.27429 7.91297 3.20487
8.20812 0.997896 7.03421
2.05224 5.78787 0.243333
3.8616 0.267932 6.04401
3.4779 0.544863 7.27633
0 6.84679 6.1806
6.26337 9.598 1.37811
3.57564 7.86203 8.58304
1.80595 0.723868 1.33749
7.51967 1.13657 0.0294927
0.251281 5.69343 0.387192
1.39384 3.36572 7.32257
8.968 0.56898 8.44698
1.28906 4.55567 8.98136
4.79115 0.383625 3.92475
7.26027 9.49416 6.8095
7.35904 5.5838 9.31622
9.16407 0.0703527 5.68779
6.30318 0.538323 7.44929
5.17568 0.397075 3.09169
2.00676 5.17836 0.563469
5.69836 8.70466 7.15529
1.93145 2.4292 2.95129
4.90125 4.56473 9.54783
2.43897 1.33572 1.52991
9.26535 3.89077 2.78428
9.33013 1.24 2.18146
3.27217 0.526084 3.45385
4.57723 0.438072 3.62115
0.383701 5.10214 3.42293
6.64272 8.38731 1.37498
9.55797 1.07439 3.08463
0.608907 8.30434 3.58142
7.69964 1.59132 3.18717
7.81679 0.719636 9.99385
3.45856 7.77765 8.26645
2.01591 1.47096 6.36392
6.86524 0.182716 3.62366
4.66521 0.348257 3.73197
4.71865 0.491266 3.36687
0.0414436 6.62302 0.0932617
0.207793 4.22259 3.99189
3.21736 0.319888 4.23354
0.25168 4.54479 3.42287
4.35403 0.614258 3.61402
5.34292 7.68721 3.31296
4.07521 0.248191 9.28659
0.0431074 8.66848 6.37133
6.07758 8.32954 9.43201
0.946899 0.566097 0
6.16028 3.39893 6.85456
5.59236 0.287821 3.85689
3.60741 4.40364 1.75935
7.71238 1.54789 4.57145
7.90399 5.11879 4.26795
4.50963 0.505485 3.12185
4.75053 0.322878 3.85864
7.67461 6.46018 0.328358
4.23281 2.67773 9.73647
1.46712 9.29553 1.42097
1.35724 0.414765 8.927
5.36177 0.363583 4.11533
2.02763 0.657703 7.54021
2.41329 3.65358 2.1229
3.28951 9.47382 8.53318
8.19791 4.20625 5.978
4.7196 0.364711 3.97015
0 5.67528 8.3196
4.76051 0.35913 3.55409
8.07926 0.292645 0.8638
3.34196 1.65253 4.12723
8.81247 2.1783 0.750775
8.33639 0.959062 3.06229
9.94407 4.42365 0.123526
5.7761 2.91012 8.07362
8.54898 9.53253 0.164758
10 5.68528 0
8.185 1.38918 0.254157
4.91839 0.535019 3.85386
0.931378 3.19089 6.83332
1.43591 4.27683 4.26321
1.7114 2.80142 0.933791
9.40771 9.31988 5.18981
3.4104 5.04432 1.95201
4.90553 3.44686 7.32942
1.64768 0.578377 7.69985
2.77694 9.60524 7.49183
5.9107 7.22537 8.6519
0.896056 9.83562 0.429896
1.06064 1.60447 3.21752
2.50176 7.86854 2.87177
8.52641 6.49521 2.42444
10 0.860778 6.14589
2.48908 9.57492 5.62251
2.49697 0.447189 0.622787
2.71327 0.0794068 8.40368
2.16753 4.71981 5.74567
3.56876 4.84539 2.6709
4.62564 0.274921 3.98186
3.1484 9.09753 0.148318
5.66477 8.21698 3.39403
8.98585 3.32304 2.71775
5.13194 6.62973 6.62618
6.31663 0.516365 6.58775
4.44585 4.83159 9.24778
3.73619 9.80719 9.68747
9.05583 5.97358 4.92274
5.20251 0.337084 3.92747
5.77953 3.08939 2.02193
9.25262 0.930528 2.07409
1.58541 5.0317 9.75529
3.28214 6.01592 3.66232
7.57704 3.47803 4.15856
7.47533 8.54798 7.52024
4.25315 0.532753 3.86027
7.61155 5.552 0
3.39177 4.95139 2.35257
7.97802 1.3245 9.36866
8.68606 8.82724 6.12838
0.355762 9.25162 9.76751
8.71357 3.97836 5.98401
2.47553 1.91345 3.48525
4.02368 2.78013 8.05616
2.00763 0.729774 7.81429
4.60175 0.61772 3.84275
4.56918 0.291138 3.98333
5.64365 0 3.72842
4.87534 0.470561 3.55295
9.99325 9.99302 2.48685
1.57486 2.90619 6.16039
4.93366 0.682726 3.97534
3.53733 3.90858 0.806518
4.38197 0.375278 3.32155
6.77537 8.77997 9.82835
4.81255 0.0972338 4.08894
4.70895 0.499753 3.94931
3.84122 7.68189 2.79625
6.41203 7.39039 5.25869
8.94534 7.58283 3.38765
9.96256 4.76071 7.9887
7.28937 7.33513 0.14046
4.31072 0.459471 4.13946
8.08429 1.81058 9.52974
8.79592 6.88852 0
6.26281 3.50627 0.744813
2.98422 5.40722 8.36335
0.417416 1.23987 5.59215
1.01989 2.63266 5.71634
1.53009 0.504063 8.26658
5.13301 5.34156 8.73285
1.72776 0.742414 7.62895
4.82087 0.238583 4.18002
4.20595 0.391416 3.83422
9.15852 8.72759 7.39297
4.80455 0.405134 3.87413
6.82909 0.523637 0.511048
7.31719 5.479 4.02516
4.93912 0.377738 4.01136
1.18073 1.21409 9.74333
1.17014 2.82748 2.70036
2.26979 8.02295 2.17859
8.0601 7.4699 4.7254
9.1974 0.228669 2.50772
3.49631 8.06466 7.91359
1.62083 8.04756 6.24036
4.75696 0.247964 4.01864
3.65969 0.242548 8.53378
7.1475 2.85172 7.98107
7.17673 8.01886 4.22119
7.00132 9.43178 3.61948
1.83828 1.4175 7.97859
1.84855 0.740239 7.54712
4.61768 0.0962973 3.69527
4.671 0.595414 3.36933
9.74401 0.637812 0.694951
5.27009 0.557965 4.2309
4.90641 0.751645 4.40821
7.38645 0.726472 6.04156
5.36002 0.384447 3.98967
4.76077 0.516139 4.24493
2.97742 5.85246 9.82873
9.4655 1.70385 0.322191
2.10861 3.40435 5.51731
4.59916 0.577647 3.50114
8.95782 5.15156 8.33941
7.94828 6.91094 8.56313
4.39325 0.417173 3.9681
4.67623 0.216192 3.78806
9.24912 0.895106 1.89612
1.88927 0.661878 7.60965
2.0529 0.734959 7.71977
5.45078 0.111836 3.84321
4.66749 0.700668 3.2623
9.34692 0.100976 2.76687
2.16694 0.616436 7.81261
3.62033 6.58824 6.32074
1.80253 0.46865 7.72636
4.76004 9.11862 4.6812
9.16166 0.369489 2.85031
1.5023 10 1.82846
0.414797 8.80514 8.26667
3.96651 0.507446 3.46062
4.08535 0.498887 3.53206
9.49124 0.432605 2.45793
1.89576 0.671823 7.74885
1.68034 0.674296 8.48632
0.946301 0.166111 6.65509
5.28351 0.334894 3.96697
5.24658 0.313709 3.89692
4.71729 0.518487 3.87366
3.41107 6.88236 9.49873
4.69477 0.514673 4.05706
4.50477 9.87302 4.20777
1.89224 0.632666 7.83616
4.79623 0.315207 3.94432
4.58808 0.249469 3.87429
1.43383 7.69602 9.4061
6.0261 1.613 7.2787
5.05689 0 3.88729
5.05639 0.413766 3.82148
2.26343 0.492477 7.77924
4.40741 0.683652 3.75449
8.55424 0.332008 0.734665
1.60142 0.318742 7.77586
5.18379 0.147661 3.83572
4.91448 4.75065 2.60625
8.34364 9.37159 3.06214
9.51497 0.694146 1.84927
POINT_DATA 400
SCALARS particleColor float 3
LOOKUP_TABLE default
0.924807 1 0.0751932
1 5.96046e-08 0
1 0.980477 0
1 0.836599 0
0.887508 1 0.112492
1 0.306431 0
1 5.96046e-08 0
1 0.432398 0
1 5.96046e-08 0
1 5.96046e-08 0
0 0.784356 1
1 5.96046e-08 0
1 0.639644 0
1 0.563216 0
1 0.0647191 0
1 0.516728 0
1 5.96046e-08 0
0 0.672862 1
1 5.96046e-08 0
1 5.96046e-08 0
0 0.515139 1
1 5.96046e-08 0
1 0.266716 0
0.658589 1 0.341411
0.637956 1 0.362044
1 5.96046e-08 0
0.988107 1 0.0118931
0.714325 1 0.285675
1 0.254742 0
0.686165 1 0.313835
1 5.96046e-08 0
0 0.865857 1
1 5.96046e-08 0
0 0.420663 1
0.744244 1 0.255756
0.159752 1 0.840248
0.556689 1 0.443311
0.0281427 1 0.971857
1 5.96046e-08 0
0 0.577908 1
0 0.866339 1
0.627586 1 0.372414
1 5.96046e-08 0
1 5.96046e-08 0
0 0.712849 1
1 0.619801 0
0.0471447 1 0.952855
1 5.96046e-08 0
1 0.296267 0
1 5.96046e-08 0
1 5.96046e-08 0
1 0.464029 0
1 0.841393 0
1 0.226464 0
1 5.96046e-08 0
0.653838 1 0.346162
1 0.289757 0
0.637381 1 0.362619
1 5.96046e-08 0
1 0.934519 0
1 5.96046e-08 0
1 0.127989 0
0.501939 1 0.498061
0 0.556598 1
0.647016 1 0.352984
0.0663272 1 0.933673
0.280369 1 0.719631
0.699942 1 0.300058
0.447713 1 0.552287
0.0732803 1 0.92672
0.432148 1 0.567852
0 0.996426 1
1 0.0266132 0
0.387413 1 0.612586
1 5.96046e-08 0
0.332284 1 0.667716
0.735021 1 0.264979
1 5.96046e-08 0
1 0.173311 0
1 0.309666 0
1 0.728932 0
1 0.213878 0
1 5.96046e-08 0
1 5.96046e-08 0
1 5.96046e-08 0
0.39297 1 0.60703
0.405987 1 0.594013
0.41104 1 0.58896
0.692427 1 0.307573
1 5.96046e-08 0
0 0.494072 1
0 0.431479 1
1 5.96046e-08 0
1 5.96046e-08 0
0.612245 1 0.387755
1 5.96046e-08 0
1 5.96046e-08 0
1 5.96046e-08 0
0 0.618504 1
1 5.96046e-08 0
1 5.96046e-08 0
1 5.96046e-08 0
1 5.96046e-08 0
0 0.960774 1
1 0.297183 0
1 0.338525 0
1 5.96046e-08 0
0.906446 1 0.0935538
1 0.554736 0
1 5.96046e-08 0
1 0.724785 0
1 0.36826 0
1 0.763831 0
1 0.00818068 0
0 0.194329 1
1 0.469937 0
1 5.96046e-08 0
1 0.635764 0
0.256175 1 0.743825
0.129418 1 0.870582
1 0.704854 0
1 5.96046e-08 0
1 0.239107 0
1 5.96046e-08 0
1 5.96046e-08 0
0 0.534474 1
0.325133 1 0.674867
1 5.96046e-08 0
0 0.92243 1
1 5.96046e-08 0
1 0.0394989 0
1 5.96046e-08 0
1 5.96046e-08 0
0.758707 1 0.241293
1 5.96046e-08 0
1 0.115213 0
1 5.96046e-08 0
0.737074 1 0.262926
1 5.96046e-08 0
0 0.718657 1
0 0.483207 1
1 0.216171 0
1 5.96046e-08 0
1 0.475924 0
1 5.96046e-08 0
0.778849 1 0.221151
1 0.989827 0
0.915641 1 0.084359
0.90401 1 0.0959898
0 0.813643 1
0 0.317951 1
1 5.96046e-08 0
1 5.96046e-08 0
0.502578 1 0.497422
1 0.775568 0
1 5.96046e-08 0
0.693791 1 0.306209
1 0.609382 0
1 5.96046e-08 0
0 0.380342 1
1 5.96046e-08 0
0.51303 1 0.48697
1 5.96046e-08 0
1 5.96046e-08 0
1 5.96046e-08 0
0.454322 1 0.545678
1 5.96046e-08 0
0.119266 1 0.880734
1 5.96046e-08 0
1 0.163762 0
1 0.222042 0
0.831095 1 0.168905
0.810175 1 0.189825
0.384464 1 0.615536
1 0.116853 0
1 0.641388 0
1 5.96046e-08 0
1 0.6347 0
1 5.96046e-08 0
0.847741 1 0.152259
0.283491 1 0.716509
1 0.184857 0
0.521478 1 0.478522
0 0.608547 1
1 5.96046e-08 0
1 5.96046e-08 0
0 0.603127 1
0.307167 1 0.692833
1 0.458359 0
1 0.994237 0
0.15472 1 0.84528
0 0.481984 1
0.917987 1 0.0820131
1 0.798155 0
0 0.469026 1
1 0.569699 0
0.655419 1 0.344581
0.926844 1 0.0731558
0.656161 1 0.343839
0 0.59531 1
0 0.321063 1
1 0.606258 0
0.610122 1 0.389878
1 5.96046e-08 0
0.760288 1 0.239712
1 5.96046e-08 0
0.896267 1 0.103733
1 0.808969 0
1 0.634513 0
1 0.618958 0
0 0.627518 1
0 0.212739 1
0 0.810487 1
0.981458 1 0.0185418
1 0.0621917 0
1 5.96046e-08 0
0 0.502192 1
1 0.75382 0
1 0.855534 0
1 5.96046e-08 0
0.429021 1 0.570979
1 5.96046e-08 0
1 5.96046e-08 0
0 0.408652 1
1 0.909659 0
1 5.96046e-08 0
0.625646 1 0.374354
0 0.857968 1
0 0.849325 1
1 5.96046e-08 0
0.712432 1 0.287568
1 5.96046e-08 0
0.706868 1 0.293132
0 0.784861 1
0 0.45182 1
1 5.96046e-08 0
1 5.96046e-08 0
1 5.96046e-08 0
0 0.511493 1
1 5.96046e-08 0
0 0.831515 1
0 0.706322 1
1 0.939328 0
0.571324 1 0.428676
1 5.96046e-08 0
0.981796 1 0.0182043
1 5.96046e-08 0
1 5.96046e-08 0
1 5.96046e-08 0
1 5.96046e-08 0
0 0.65749 1
0.979379 1 0.0206214
1 5.96046e-08 0
1 0.822732 0
1 5.96046e-08 0
0.96478 1 0.0352197
0.829887 1 0.170113
0 0.252738 1
1 0.422848 0
1 5.96046e-08 0
1 0.241169 0
1 0.731415 0
0.436658 1 0.563342
1 0.439657 0
1 5.96046e-08 0
1 5.96046e-08 0
1 0.986107 0
0.345806 1 0.654194
1 5.96046e-08 0
1 0.978993 0
0 0.682287 1
0 0.774055 1
1 0.614377 0
0.680651 1 0.319349
0.602308 1 0.397692
0.297868 1 0.702132
1 0.486777 0
1 5.96046e-08 0
1 5.96046e-08 0
0 0.532802 1
1 5.96046e-08 0
0 0.752147 1
0.78583 1 0.21417
1 5.96046e-08 0
1 5.96046e-08 0
1 5.96046e-08 0
0 0.351262 1
0.0376704 1 0.96233
1 0.926345 0
1 5.96046e-08 0
1 0.806954 0
1 0.763165 0
1 5.96046e-08 0
1 5.96046e-08 0
1 5.96046e-08 0
0 0.383004 1
0.0477394 1 0.952261
0 0.647937 1
0 0.501828 1
0 0.376103 1
1 5.96046e-08 0
1 5.96046e-08 0
0.154223 1 0.845777
1 0.64593 0
0 0.71744 1
1 0.139901 0
0 0.814334 1
0 0.155378 1
1 0.276051 0
0.511706 1 0.488294
1 0.798273 0
1 5.96046e-08 0
0 0.75215 1
0 0.841169 1
1 5.96046e-08 0
0.158181 1 0.841819
1 5.96046e-08 0
0.684186 1 0.315814
1 5.96046e-08 0
1 0.92731 0
0 0.653577 1
1 5.96046e-08 0
0 0.857092 1
0 0.54561 1
0.162464 1 0.837536
1 0.380491 0
0 0.671711 1
1 0.790289 0
1 0.575481 0
0 0.327097 1
0 0.720662 1
0.329408 1 0.670592
1 5.96046e-08 0
0.403808 1 0.596192
0 0.414416 1
1 5.96046e-08 0
1 0.836954 0
0 0.5124 1
1 5.96046e-08 0
1 0.552844 0
0.0444243 1 0.955576
1 5.96046e-08 0
0.0928223 1 0.907178
0 0.273706 1
0 0.810603 1
0.114055 1 0.885945
0.0308492 1 0.969151
0 0.575455 1
0 0.612314 1
1 0.415306 0
0 0.45233 1
0 0.372741 1
0.719273 1 0.280727
1 5.96046e-08 0
0 0.819035 1
0 0.640602 1
1 0.66017 0
0.480557 1 0.519443
0 0.462241 1
0 0.735796 1
0.0199888 1 0.980011
0 0.566985 1
0 0.44441 1
0.0953351 1 0.904665
0 0.578585 1
0.00369919 1 0.996301
0 0.304607 1
0 0.58629 1
0 0.499695 1
1 0.171702 0
0.132916 1 0.867084
0.137864 1 0.862136
1 0.535395 0
0 0.351351 1
0 0.301492 1
0 0.531461 1
0 0.794069 1
0 0.606283 1
0 0.86858 1
0.133027 1 0.866973
0 0.525504 1
0 0.670324 1
0.0971102 1 0.90289
0 0.769979 1
0.380174 1 0.619826
0 0.537936 1
0 0.724924 1
0 0.627922 1
0.552915 1 0.447085
0.297947 1 0.702053
0 0.917901 1
0 0.970328 1
0 0.907538 1
0 0.748559 1
1 5.96046e-08 0
0.106184 1 0.893816
0 0.552416 1
0.556451 1 0.443549
1 0.0118943 0
0 0.849385 1
