# vtk DataFile Version 3.0
Particle simulation
ASCII
DATASET POLYDATA
POINTS 400 float
0.549749 1.101 8.99875
5.91468 1.88792 6.65701
4.93056 2.53086 1.86925
0.653175 9.30675 8.51634
1.62154 3.3962 1.40114
2.10398 3.30829 0.687763
7.6451 4.84354 0.648066
7.84751 7.26157 0.621499
4.67879 3.94976 0.984292
4.98008 1.76176 0.397853
8.26159 1.51566 6.15929
2.47365 4.14183 4.94009
8.50369 3.73397 0.241096
4.18013 6.58848 7.18789
7.55007 4.38251 8.15679
6.71268 0.420735 4.35733
5.22101 0.970325 5.61296
3.53103 0.365719 0.74744
4.80474 2.02162 7.51324
9.27656 0.632547 8.06733
3.40012 0.115523 0.737675
5.47587 7.58209 6.05076
7.36429 4.45938 2.37676
1.30423 3.44577 8.78956
5.63106 4.41271 6.3682
1.40254 1.14923 4.90553
1.15982 5.40153 4.94021
4.48111 0.166813 0.739488
0.537071 8.35709 3.32484
0.747845 8.96187 9.82363
1.20602 2.12679 0.905882
0.652138 5.681 8.94684
8.45977 9.62026 2.37928
7.62399 1.84654 5.49664
4.95715 0 0.587415
6.66052 9.05282 0
2.05827 9.62408 2.51286
3.41378 0.22928 0.320927
9.47701 1.58377 4.57946
2.97924 2.59264 0.488428
2.35729 6.18037 8.78955
4.36551 0.0519682 4.79993
0.783352 8.81545 5.76175
4.14107 8.42259 9.14855
7.38082 0.340889 2.10349
4.73726 1.26838 1.11077
6.78236 4.90961 9.23881
8.09147 0.216595 6.2383
6.30089 0.191493 1.79862
2.16916 2.3696 9.59972
2.62971 8.92878 6.28555
1.23611 4.50321 8.06438
9.59537 2.91824 0.204702
0.657515 9.28968 8.04636
3.08713 0.637734 5.13392
6.11587 0.117623 0.946119
7.66638 7.85445 8.71384
5.35219 1.3696 1.67912
4.34327 3.32975 4.26458
9.45162 0.410138 8.69468
0.421465 4.90224 8.52753
9.35557 1.0159 2.29857
2.8885 6.78053 2.3359
0.644366 0.160337 8.57604
1.52958 7.88615 9.80419
2.93134 0.265137 8.34217
1.86668 2.47304 7.97989
5.15345 3.05415 8.70084
8.28621 5.79303 8.78846
4.65237 4.45003 3.24166
4.06551 1.33854 9.31492
5.53632 2.25718 1.81054
6.41578 7.25639 4.03638
0.149097 3.80403 0
5.00642 7.74314 7.82301
2.5459 6.63442 1.05102
2.7057 2.0177 4.98691
7.88367 4.07514 8.12808
7.31295 1.21906 3.31872
7.05296 6.46743 5.93269
3.12679 0.0952819 0.784075
7.44579 0.366709 7.4627
3.14746 2.01455 4.00525
3.36449 0.469795 0.316791
7.15882 1.16824 9.40074
0.584846 1.30575 8.91768
8.09592 8.66515 8.74925
6.74283 3.93718 9.5608
1.41682 1.29289 6.26242
6.56052 2.65123 1.04797
3.76805 0.0444499 1.17018
5.80603 3.09468 0.695095
0.273966 4.48027 5.49726
3.15036 0.276701 6.56944
0.782436 0.469029 8.03476
2.44807 9.84918 2.75738
8.38134 1.79706 5.93386
5.83937 0.429384 7.96487
5.38964 2.45802 8.98886
8.10042 1.34147 0.689129
3.15726 0.123525 0.380558
2.88434 4.24512 2.80214
0.488572 1.65489 8.16278
3.19535 1.6462 3.62581
7.32289 1.05679 9.46543
1.70876 5.1586 1.77132
1.09924 2.0298 8.60112
5.60348 0.343075 1.31836
6.94455 0.105009 7.24812
3.12739 2.48319 0
2.6013 1.05049 3.49911
1.71103 2.57317 9.4211
6.28855 1.30853 4.85122
4.83131 0.268115 0.720048
3.89583 0.347289 0.612018
1.38161 1.86047 6.13048
4.66339 0.520908 8.44814
7.55987 5.32709 6.10641
9.35326 3.7555 2.93566
1.56348 7.05158 3.54257
3.05021 0.711851 1.23528
9.48861 0.938554 2.66321
7.35317 0.184044 9.98187
5.2902 2.17806 6.63373
0.0303618 8.50585 2.51825
3.0549 0.181352 0.508894
0.205313 1.09494 6.76374
0.546455 0.390296 8.17358
0.812659 2.18649 5.98275
2.11272 5.92111 5.13191
7.39495 0 6.89503
5.19381 3.43976 9.57163
4.95518 3.3334 1.57557
7.75623 0.164261 1.8853
4.03837 0.370058 7.24983
1.81586 1.48226 2.86491
0.922552 1.70033 0.954908
0.939179 1.55527 8.73939
5.85368 7.10495 4.68823
4.9545 0.199647 8.13899
3.14258 0.386076 0.428318
6.51013 9.67011 0.588143
1.70397 9.17857 8.93713
5.52295 3.07647 5.86796
2.94501 0.10968 0.487278
7.96174 2.10765 6.95269
7.94091 0.418646 2.39311
1.59838 9.1349 0.65449
5.21007 2.00847 2.02797
6.30486 1.89309 9.16468
3.07782 0.366092 0.397428
4.24702 1.90737 5.68401
0.611722 0.593939 8.54249
2.92319 0.77099 1.21633
3.29668 5.26832 7.31203
5.4503 0.615117 0.771245
7.14969 0.540042 0.203006
5.89572 0.580905 0.806278
1.0353 0.855396 7.73801
5.56914 2.78158 3.65795
5.78515 2.80763 0.735125
7.64437 0.582553 7.32597
4.85122 1.87184 7.66057
4.15936 5.28984 2.31618
7.01087 1.50081 4.27558
9.39138 7.71947 9.14631
0 0.133073 8.4923
8.50859 0.108505 8.90671
9.15616 6.12342 6.55889
0.584597 0.664461 8.12651
3.15905 0.706351 0.495626
9.19352 4.64858 1.40034
9.27839 3.71212 3.2971
1.88279 4.86144 2.22163
2.52672 0.379373 6.6677
1.89033 7.02663 1.14624
1.38561 0.688157 6.50425
1.92635 1.94131 4.80445
0.498033 0.39215 8.70143
8.41653 9.1575 8.2173
3.71015 0.408018 0.690998
0.637874 8.09581 1.70648
4.69634 1.31641 9.46385
8.51908 0.936828 0.552545
5.35166 0.316085 7.55768
8.22606 1.26221 2.79358
2.80283 0.281567 0.432638
0.854311 4.85961 2.28668
8.40753 0.525649 2.79283
3.49733 0.552051 0.981803
3.18175 0.514117 0.722874
3.06945 0.429443 0.432838
3.54621 6.2436 4.69569
0.12044 1.3286 0.187965
9.08569 0.976564 6.11722
3.3499 0.545967 0.975642
3.21821 1.02326 5.19842
7.56178 5.47469 7.77718
3.53768 0.133157 0.615824
2.89032 0.562004 1.20937
2.91894 0.352923 0.447204
5.44629 0.841087 1.15925
8.49432 0.257354 2.90478
1.30845 0.946284 6.58476
7.52763 8.72415 0.94638
4.35919 0.178936 8.18634
3.62455 0.551924 0.681318
3.57907 5.35828 2.10893
2.74186 2.11641 1.41397
7.58475 1.47321 0.110672
3.11474 0.448246 0.845421
3.0925 0.619925 1.09411
10 0.819837 2.59698
7.68071 1.28421 6.87223
7.17095 2.70787 8.77876
5.26834 0.329039 7.90313
3.51648 0.419998 1.11216
3.79798 0.330721 1.14052
5.77972 8.20536 4.29571
5.11417 0.565412 0.102259
4.18081 8.96332 3.00843
7.34294 4.85766 5.40759
4.02802 0.555482 8.44892
3.29878 0.583399 0.917423
7.41476 0.989143 6.6511
3.48021 0.264009 0.734775
7.11064 2.39767 1.01636
2.90076 0.355546 0.254412
3.49766 0.366091 0.384689
9.39275 2.99498 0.290468
6.44991 2.08581 5.91771
5.68634 0.0822619 7.87261
7.82831 0.18028 2.16821
3.37264 0.51549 1.37663
4.7178 0.363653 8.27898
1.58124 1.2178 3.36268
6.89768 3.61191 9.13876
2.82087 1.4023 5.3741
2.87384 0.508626 0.371851
6.80055 4.00142 2.2836
3.07334 0.31431 0.809387
2.74533 0.339203 0.125836
3.61414 0.198748 1.0539
3.26387 0.411557 0.882542
5.24462 0.269999 8.02406
1.68534 4.95979 1.70973
0.826027 0.510217 5.41972
2.33087 0.0413345 6.93456
1.50271 5.08041 1.85891
8.80602 0.663369 8.03517
3.46081 0.408931 0.990876
1.13737 8.62698 5.49599
4.48101 0.289703 8.04597
4.25763 0.456811 4.67919
7.6322 0.169096 2.61188
3.37338 0.401259 1.03728
5.74317 1.9787 7.18537
4.45904 0.0938314 8.46121
3.9692 2.92572 5.10679
4.40405 0.285422 8.16392
3.59277 0.392845 0.953044
9.82385 6.77078 0.86445
1.36119 0.893121 6.58881
5.85928 0.165431 5.72307
5.10983 0.620855 7.69291
0.550262 5.37697 6.86747
5.6435 0.418083 0.938804
4.92048 0.202928 8.21267
8.00406 0.631574 2.94383
3.16921 0.131353 0.826594
3.03477 0.189021 0.80671
7.5347 1.61786 0.22568
5.50436 1.0983 1.62389
2.61602 1.79873 5.36842
6.10187 1.80993 7.94117
5.25908 0.346048 7.70559
2.73357 2.06814 4.85115
9.74211 9.904 2.53688
2.82713 2.28005 0.908134
3.18572 0.199462 0.8903
5.93963 0.463551 1.36659
5.73564 0.190709 1.03276
8.33571 0 1.79539
1.12765 0.862087 6.36519
9.17063 3.30474 9.84125
9.67147 0.145238 0.940524
3.03872 0.0523524 0.711076
8.04335 1.08706 7.07279
6.21063 1.81378 8.00551
1.58871 4.32795 2.5406
5.91995 0.619188 4.31803
5.90507 0.144824 1.91423
3.37575 0.545903 0.158911
0.842627 0.206393 8.57561
4.64463 0.392975 8.05742
4.8517 0.298445 8.50575
3.15624 0.204136 1.00983
2.80691 0.141145 0.430048
7.85158 2.36361 6.98642
3.10276 0.240352 1.18233
0.536378 1.06268 1.04954
1.89142 0.378125 6.68511
4.41527 0.626097 5.06417
0.643337 1.61051 8.52944
3.59163 0.474159 0.684196
0.75963 0.264475 8.21811
3.07339 0.598574 1.28081
3.5174 0.301056 0.84487
1.80805 0.296211 8.40121
2.74166 2.11557 5.01613
4.76189 0.0232011 8.60908
4.36415 1.78951 5.87426
8.16689 0.868488 2.67555
3.16462 0.628547 0.434774
8.243 2.2726 6.79393
0.69573 0.295421 8.71581
9.647 0.908229 2.55094
3.74476 3.13549 4.88775
5.23131 1.7685 6.86577
5.12321 1.83664 2.06759
4.29733 0.315183 8.64933
0.76337 0.372491 5.32794
4.88308 0.65432 8.22571
2.92498 0.428043 0.574557
6.16459 0.311987 1.64093
8.07312 1.65042 0.58896
3.24678 0.141836 0.610841
6.31006 0.187381 1.11547
0.79702 5.10077 2.30794
3.61296 0.622942 1.27923
10 2.79653 3.73356
2.93537 0.460845 0.23035
4.58927 0.454772 8.5608
2.89645 0.245046 0.870166
5.87415 0.0505957 1.08502
6.66867 7.20675 6.31431
3.87509 2.87736 4.68008
3.14406 0.392219 0.892983
9.57877 0.610669 7.88602
3.13963 0.3972 6.51602
4.25399 0.278039 7.76679
3.5577 0.170865 6.83812
4.51074 0.359752 8.36742
4.81931 0.31604 8.2432
2.97689 0.354095 0.870318
3.58588 0.232405 0.598298
5.54491 0.427376 1.12823
3.01057 0.392959 0.767271
3.019 0.0533 0.716414
2.84139 0.290314 6.69713
4.0881 0.194991 0.593447
3.49068 0.213618 0.8163
6.03693 1.78995 7.85063
4.26532 0.212127 8.52914
2.83073 0.389338 0.230827
2.84748 0.274597 1.01709
5.91962 0.323054 1.18107
4.58762 0.0560101 8.17288
2.5983 0.350199 0.919978
3.43368 0.28014 0.466765
6.03861 0.160937 1.17555
4.81369 0.347607 8.29421
4.77237 0.39948 8.54846
3.54104 0.315834 0.442535
2.66296 0.417205 0.733615
7.91479 0.608056 2.38077
5.03739 0.30445 7.71018
6.97132 0.864313 6.7319
4.06155 0.245382 7.93422
8.38931 1.4966 0.652412
6.0413 0.179704 1.07691
4.25994 1.91735 5.67753
4.72644 0.410322 8.63685
3.33225 0.0597761 1.02394
3.67819 0.344763 0.90381
8.05006 0.51587 2.30391
4.73663 0.270415 8.38904
4.52219 0.437265 8.43752
4.62672 0.542861 8.0865
3.12642 0.459268 0.516257
3.43777 0.565348 1.05224
3.62163 0.408049 0.492054
4.89138 0.640994 7.84639
3.11835 0.313551 0.00148886
0.638032 0.459236 8.79716
4.75889 0.47465 8.41618
3.44041 0.416098 0.814864
3.25903 0.193191 0.354533
0 6.33684 8.84584
5.81029 0.641598 0.775633
3.49181 0.395827 1.06548
3.15178 0.380409 0.745104
5.07428 0.713898 8.48058
3.56023 0.273855 0.840094
0.524877 0.691689 8.9617
4.97891 0.476217 8.34282
3.37054 0.431166 0.861025
2.42929 0.368794 6.75796
6.46395 0.31439 0.943124
5.79447 0.640211 0.762852
POINT_DATA 400
SCALARS particleColor float 3
LOOKUP_TABLE default
0 0.8867 1
0.37265 1 0.62735
0.652871 1 0.347129
0.636193 1 0.363807
0.51443 1 0.48557
1 5.96046e-08 0
1 5.96046e-08 0
0.049378 1 0.950622
0 0.953233 1
1 5.96046e-08 0
0.471303 1 0.528697
0.763894 1 0.236106
1 0.908895 0
0.583458 1 0.416542
0.135045 1 0.864955
1 0.128376 0
0.526963 1 0.473037
0 0.537323 1
0.0682518 1 0.931748
0.42467 1 0.57533
0 0.524859 1
0.728652 1 0.271348
1 0.443132 0
1 0.355405 0
0.523722 1 0.476278
0.462316 1 0.537684
0.327716 1 0.672284
0.305119 1 0.694881
0.0827978 1 0.917202
0.215922 1 0.784078
0.0551316 1 0.944868
0 0.370938 1
1 0.58088 0
0 0.543285 1
0.639531 1 0.360469
1 5.96046e-08 0
1 5.96046e-08 0
0 0.506379 1
0 0.507305 1
0.580844 1 0.419156
1 5.96046e-08 0
0.569411 1 0.430589
0.767661 1 0.232339
1 0.632189 0
0 0.894054 1
0 0.44424 1
0 0.269975 1
0.224502 1 0.775498
0 0.674211 1
1 5.96046e-08 0
0 0.867064 1
0.517074 1 0.482926
0.13743 1 0.86257
1 0.661634 0
0.18695 1 0.81305
0 0.521482 1
0.557042 1 0.442958
0.543999 1 0.456001
0 0.444519 1
1 0.703046 0
0 0.327635 1
0.59852 1 0.40148
0.728962 1 0.271038
0 0.491782 1
0.770938 1 0.229062
1 0.650947 0
0.817932 1 0.182068
0.690205 1 0.309795
0.350703 1 0.649297
0.0560965 1 0.943903
0 0.498656 1
0 0.329667 1
0.520176 1 0.479824
1 5.96046e-08 0
0.165249 1 0.834751
1 5.96046e-08 0
0 0.635479 1
0.68825 1 0.31175
0.569955 1 0.430045
0.473635 1 0.526365
0 0.640588 1
0 0.436727 1
0.441639 1 0.558361
0 0.617403 1
1 0.42839 0
0 0.840869 1
0 0.535158 1
1 5.96046e-08 0
0.0679952 1 0.932005
0 0.741533 1
0 0.500264 1
1 0.832703 0
0.351742 1 0.648258
0.0692027 1 0.930797
0 0.702945 1
1 0.410462 0
1 0.367077 0
0.0744678 1 0.925532
1 0.896856 0
0 0.615216 1
0 0.2282 1
1 5.96046e-08 0
0.80779 1 0.19221
1 0.45428 0
0 0.892572 1
0 0.546696 1
0.695953 1 0.304047
0 0.365651 1
1 5.96046e-08 0
1 0.740083 0
0.940998 1 0.0590019
0.0333548 1 0.966645
0.602297 1 0.397703
0 0.873058 1
0 0.405624 1
0 0.697886 1
0 0.499444 1
1 0.855302 0
1 0.508676 0
1 0.790389 0
0 0.68157 1
0.863035 1 0.136965
1 0.723935 0
1 0.673831 0
1 0.912958 0
0 0.566363 1
1 0.778888 0
0 0.488789 1
0.398107 1 0.601893
1 0.586383 0
1 5.96046e-08 0
0.564515 1 0.435485
0 0.856945 1
0 0.899286 1
0 0.548551 1
0 0.686387 1
0.905574 1 0.0944262
0 0.658093 1
1 0.48254 0
0 0.762876 1
0 0.719988 1
0.979848 1 0.0201516
1 0.93749 0
1 0.811903 0
0 0.316089 1
0 0.937465 1
0 0.438051 1
1 0.939192 0
0 0.531173 1
1 0.493471 0
0 0.645378 1
0 0.853128 1
0 0.95412 1
0.222688 1 0.777312
0.132245 1 0.867755
0 0.840477 1
0.0923597 1 0.90764
0.149579 1 0.850421
1 0.990733 0
0 0.954355 1
0 0.939179 1
1 0.951753 0
0.306638 1 0.693362
1 0.58345 0
1 0.425258 0
1 0.956793 0
1 5.96046e-08 0
0 0.756542 1
1 0.484461 0
0.362232 1 0.637768
0 0.139442 1
0.0742151 1 0.925785
1 0.906346 0
0 0.672499 1
0 0.435759 1
1 0.574018 0
0 0.998462 1
0 0.469825 1
0.492555 1 0.507445
0.324986 1 0.675014
0 0.454717 1
1 0.807467 0
1 0.633581 0
0 0.452319 1
0 0.687727 1
0.218292 1 0.781708
0 0.333139 1
1 5.96046e-08 0
0 0.680106 1
0 0.507216 1
0 0.437136 1
0 0.75572 1
0.692496 1 0.307504
0 0.572416 1
1 0.554807 0
0 0.572078 1
0 0.955969 1
1 0.788436 0
0 0.346254 1
0 0.207116 1
0 0.403015 1
0 0.320786 1
0 0.588789 1
0 0.584982 1
1 0.443167 0
0 0.466132 1
0 0.560079 1
0.998133 1 0.0018667
0 0.807589 1
0 0.927785 1
0 0.443057 1
0 0.627619 1
1 5.96046e-08 0
0 0.919763 1
1 0.0802816 0
0 0.329792 1
0 0.864172 1
0 0.394373 1
1 0.825773 0
0.607317 1 0.392683
1 0.877698 0
0.187507 1 0.812493
0 0.360363 1
0 0.973089 1
0 0.356003 1
0.482729 1 0.517271
0.0640604 1 0.93594
0 0.94366 1
0 0.804605 1
0.148101 1 0.851899
0.230734 1 0.769266
0 0.466925 1
0 0.699235 1
0 0.657949 1
0 0.746506 1
0.0354845 1 0.964515
1 0.0234771 0
0 0.524452 1
0 0.647133 1
1 5.96046e-08 0
0 0.833108 1
0 0.747104 1
0 0.890745 1
0 0.82869 1
0 0.576354 1
0 0.97107 1
0 0.548258 1
0 0.878961 1
0.508222 1 0.491778
0.0922548 1 0.907745
0 0.722985 1
0 0.984776 1
0 0.838317 1
0.559219 1 0.440781
0 0.75769 1
0 0.612046 1
0 0.906632 1
0 0.542309 1
0 0.567459 1
0 0.61718 1
0 0.635219 1
1 0.366827 0
0 0.602685 1
1 0.193079 0
0 0.362389 1
0.932377 1 0.0676233
0 0.977961 1
0.0163287 1 0.983671
0 0.454074 1
0 0.997057 1
0 0.847566 1
0.875115 1 0.124885
1 0.375321 0
0 0.837318 1
0.263965 1 0.736035
0 0.742812 1
0.15558 1 0.84442
0.401532 1 0.598468
0 0.293989 1
0 0.234237 1
0 0.940876 1
0 0.410282 1
1 0.887308 0
0 0.223089 1
0.36841 1 0.63159
0.533237 1 0.466763
0 0.563048 1
0 0.790919 1
0 0.995261 1
1 0.118762 0
1 5.96046e-08 0
0 0.306012 1
0 0.727566 1
0 0.489783 1
0 0.639027 1
0 0.782619 1
0 0.474777 1
0 0.389725 1
0 0.798809 1
0 0.441891 1
0 0.615063 1
0 0.657395 1
0 0.655094 1
1 0.808317 0
0 0.791142 1
0 0.660693 1
0 0.802321 1
0 0.583366 1
0 0.696643 1
0 0.969074 1
0 0.637262 1
0 0.565988 1
0 0.410877 1
0 0.817578 1
0 0.875302 1
0 0.623648 1
0.424911 1 0.575089
0 0.94896 1
0 0.415709 1
0 0.63269 1
0 0.561806 1
0 0.974223 1
0 0.416053 1
0.358522 1 0.641478
0 0.725467 1
0 0.667399 1
0 0.481119 1
0 0.5502 1
0.337891 1 0.662109
0 0.529105 1
0.593206 1 0.406794
0 0.413559 1
0 0.498408 1
0 0.98145 1
0 0.403619 1
0.837011 1 0.162989
0 0.897342 1
0 0.760666 1
0.223123 1 0.776877
0 0.398724 1
0 0.774873 1
0 0.612842 1
0 0.916939 1
0 0.556745 1
0 0.47697 1
0 0.334787 1
0 0.463195 1
0 0.550847 1
0.250158 1 0.749842
0 0.576234 1
0 0.631619 1
0 0.681694 1
0 0.989829 1
0 0.0853384 1
0 0.812538 1
0 0.574901 1
0 0.979068 1
0 0.907118 1
0 0.44879 1
0 0.297633 1
0 0.573265 1
0 0.788848 1
0 0.789106 1
0 0.36588 1
0 0.730161 1
0 0.958908 1
0 0.675874 1
0 0.733061 1
0 0.446632 1
0 0.304287 1
0 0.638328 1
0 0.647547 1
0 0.477944 1
0 0.963394 1
0 0.752827 1
0 0.656928 1
0 0.580381 1
0.204196 1 0.795804
0 0.855329 1
0 0.405383 1
0 0.781739 1
0 0.24423 1
0 0.83575 1
0 0.751052 1
0 0.64242 1
0 0.38781 1
0 0.75022 1
0 0.650892 1
1 0.391652 0
0 0.515965 1
0 0.666718 1
0 0.562828 1
0 0.518174 1
0 0.364891 1
0 0.384124 1
0 0.353775 1
0 0.721214 1
0.0367408 1 0.963259
0 0.748108 1
0 0.477165 1
