# vtk DataFile Version 3.0
Particle simulation
ASCII
DATASET POLYDATA
POINTS 400 float
8.6699 0.515515 9.53745
6.63394 8.10004 5.01823
0.391047 0.671117 6.15329
2.76659 0.46015 1.65911
8.69406 0.467807 3.75452
7.76456 5.63342 3.35219
6.63639 0.156543 2.42644
9.48668 2.40223 2.01786
8.35149 8.61379 9.88187
4.19834 0.268871 7.05167
9.52208 3.97836 2.72881
7.51431 4.31003 2.48615
9.5756 1.78913 9.3256
6.87357 2.81755 0.164384
6.3205 2.4369 1.62246
9.88518 5.49994 9.53063
0.670873 4.75434 0.0764825
3.05542 0.506208 1.34026
1.41311 3.03816 3.82565
1.49023 3.18938 4.06494
2.17813 0.346599 1.56475
9.73372 2.85505 1.84247
9.51801 1.34409 9.57713
1.64814 0.958623 1.27494
0.970562 9.67038 1.83775
4.24525 0.775836 0.218052
0 3.64863 10
0.469462 0.742714 1.00423
8.91896 0.136472 5.41437
7.04201 1.83836 1.11138
5.09559 6.73764 9.29766
4.58702 4.85214 7.79402
9.65844 0.29036 7.2622
3.8165 0.401663 1.74603
7.25245 2.1957 1.3092
2.61554 3.20753 0.555539
2.57249 5.49473 0.474187
3.57921 0.547534 2.57017
6.74095 0.37702 2.32748
0.121952 1.66738 4.54704
2.39663 0.29151 5.66856
9.83487 1.58632 6.25998
7.24295 2.58338 9.23696
1.85711 3.86988 7.34453
7.35469 1.27892 5.69391
5.93995 0.37995 1.41222
4.18072 1.03108 5.34295
6.0446 0.918836 4.21393
5.72433 0.40623 1.59609
8.36881 2.25983 1.35391
1.76197 2.81394 2.90239
4.71611 4.61571 7.44597
8.23929 0.270685 8.00561
3.9356 0.113561 7.31563
8.14267 0.0379548 7.87858
5.70778 0.701769 1.81898
9.27313 0.772354 9.40411
0.776693 0.307331 7.2657
5.87244 0.525069 1.39602
9.66899 8.90618 3.80941
5.65571 8.55027 6.77054
6.06563 1.6811 9.20395
2.49185 0.175993 4.27681
4.11392 0.511703 7.01416
2.62577 8.93699 2.77459
0.279511 0.28154 3.29263
4.68721 0.800999 9.45725
1.57122 2.42867 3.10875
5.60767 0.60778 1.46898
5.37996 0.456412 8.16887
9.74214 0.596426 7.41541
3.42311 0.518752 2.30299
7.59019 2.20767 1.86609
4.08473 0.388802 7.03652
9.38342 0.658743 7.68111
7.65786 0.248938 1.71225
4.73225 0.833795 9.5591
5.70559 0.48914 8.7189
8.24698 0.245692 0.156041
0.841024 8.72028 9.86108
3.97654 0.0300216 1.70037
3.1582 0.56915 1.96723
3.0077 0.513354 1.40742
2.73722 0.459611 1.58169
3.42378 0.238577 9.38857
5.5493 0.413946 8.17778
5.80631 0.82848 9.44027
4.73825 3.12553 1.86694
9.45016 3.8661 2.47634
8.92598 0.359267 1.44782
3.93844 0 1.59784
4.07854 0.0546511 1.47611
1.14352 0.235986 6.51783
2.9243 0.441368 1.16006
3.49478 0.120447 9.40231
5.96368 0.403018 8.08539
5.26494 0.58669 8.7388
1.12036 1.26827 0.826024
9.56438 0.770559 7.94802
8.98537 0.320677 1.48759
3.77365 0.631452 1.4143
5.70796 1.4321 0.349048
1.97861 0.717174 1.01618
9.22696 1.10307 9.1528
6.40569 2.94978 1.9414
3.33522 0.599194 2.55887
4.72274 0.172725 8.15823
5.71874 0.672081 1.89328
6.36488 0.280282 1.42765
8.6471 0.304887 1.19001
8.95716 8.10838 9.72512
3.94335 0.471966 7.29112
3.0882 0.578218 3.00007
7.65166 0.127826 2.32349
3.53091 0.439897 2.19701
2.11588 0.539825 4.57712
5.63336 0.298558 8.30219
5.9924 0.58782 1.65822
6.3155 0.40585 1.41594
7.72099 0.646489 6.74645
3.23847 0.682662 2.06986
4.76366 6.26762 1.66411
7.05439 9.73024 5.23512
6.7191 0.364192 3.88223
8.71477 0.287321 8.07056
3.66914 0.172415 1.58984
4.33404 1.22095 3.72113
4.10819 0.19437 7.1896
3.51273 5.32501 6.83508
0.687697 7.66678 8.31396
3.87661 0.439205 1.20842
4.79651 3.27699 1.82472
5.02405 0.342773 8.12696
7.38784 0.830847 5.90613
6.51452 0.846776 4.57514
2.02211 0.488357 1.9569
10 9.63 0
3.99842 0.515098 7.12293
3.65137 2.37679 6.98439
8.11445 0.482149 7.98847
3.72263 0.029835 1.69154
3.78842 1.46534 9.49998
7.75651 6.99001 9.13678
7.78731 0.414988 6.88942
3.54311 0.793439 1.78277
2.76986 0.152597 1.6361
7.35046 1.15264 5.72474
1.02698 5.41953 0.0243607
2.13665 0.5566 1.67614
2.78075 1.07855 4.25817
3.7299 0.014303 1.68632
8.56223 1.362 6.97655
2.21797 0.840344 1.7223
6.10451 0.408624 8.55364
4.40154 4.07943 0.350148
6.48265 0.371911 1.67426
8.95012 1.48893 6.96265
3.56864 0.683399 2.52858
7.13746 0.745835 6.36591
2.54723 0.427517 1.46027
2.91286 3.06675 1.08361
0.509393 0.79002 6.34139
5.70167 0.51175 8.4054
3.5285 0.616289 1.83811
1.73496 2.52685 2.94628
8.20011 0.349922 8.167
5.57773 0.864458 8.88046
5.6955 0.513961 8.81093
6.99482 3.57892 5.42066
4.10033 8.19342 0
2.73227 0.776101 2.47421
4.09765 1.46802 3.6136
6.16563 0.289169 1.27292
2.65282 0.691473 2.02446
2.99112 0.856998 2.2321
2.84519 3.38645 0.584025
5.67732 0.241276 8.67883
5.78753 0.812842 8.92104
7.57754 0.220735 6.75852
3.48166 4.74468 7.45585
2.72316 0.487344 1.60569
3.91739 0.0695647 0.890117
8.45248 5.48376 6.42496
3.37082 0.847344 1.6743
5.1844 0.255601 9.14274
3.8486 0.169184 1.71338
2.28703 0.542848 2.10324
1.27829 0.467659 6.76163
7.35608 0.837767 6.19822
2.78412 0.417286 1.83003
2.70891 0.504585 1.66885
2.39823 0.340279 2.06383
7.16094 0.183643 8.00669
0.877099 3.03939 4.45917
4.15408 4.02492 5.34491
2.35464 0.676921 2.31239
3.05271 0.368361 1.11858
8.08638 4.62444 8.20992
2.48196 0.492435 2.06085
3.8654 0.637173 1.28632
3.66593 0.458625 1.9401
6.27391 0.4096 1.72839
7.33381 1.07356 5.93768
5.02447 0.0432358 7.9629
10 7.81256 0.988735
5.33338 0.114406 8.32453
3.72352 0.000384361 1.4686
0.281077 0.530607 7.50276
1.09304 0.403612 7.42862
9.22845 0.187675 1.60605
2.8521 0.439294 1.70358
6.22528 0.336649 1.763
5.32725 0.473286 7.83147
7.84776 0.108858 8.03926
5.85275 0.318579 6.95714
5.33237 0.318814 8.50691
3.74217 0 1.48723
3.00162 0.543696 1.96739
4.29177 1.15144 3.35764
8.89293 0.263019 1.40871
3.01711 5.87195 2.55793
5.89683 0.393493 8.2632
6.02848 0.537867 8.75383
3.59033 0.73219 2.36957
5.8037 0.0743737 8.31304
3.26784 0.6149 2.45878
3.26405 3.06158 1.04688
2.24115 0.435075 1.88231
3.17718 0.243847 1.71155
7.29809 0.281105 7.78203
2.29264 0.328472 5.52833
5.10447 0.463133 8.74856
7.54367 0.952785 5.7663
3.0284 0.448022 2.68029
6.19092 0.725782 8.81215
3.29273 0.551542 1.38939
5.16098 0.0392598 9.24718
2.60559 0.601371 1.7956
1.92409 0.474284 1.51499
0.878069 0.32905 7.42495
4.10813 0.63247 2.15759
1.77481 0.0376081 1.76691
3.04859 1.00662 1.71737
3.00484 0.607636 1.28043
5.0363 0.333637 9.16876
2.99426 0.752657 1.16381
0.652746 0.712433 0.862476
7.16085 0.601452 9.5667
5.90854 0.664702 1.66363
5.4034 0.0312801 8.51
3.22972 0.511992 2.28728
2.6116 0.314635 3.49139
5.35338 0.126997 8.30547
1.93216 0.26345 1.63179
7.00742 0.808543 5.9039
3.38139 0.650553 2.39898
8.14053 0.0639416 1.31755
6.3663 0.510505 8.84435
6.44087 0.0798849 1.81731
5.44207 0.0436347 8.40239
3.06638 0.616025 1.42183
1.97452 5.17098 4.94643
5.76541 0.730111 8.62683
7.76117 2.76845 1.70241
5.05972 0.162565 8.89277
2.0507 4.0787 7.62075
2.20171 0.405717 2.20168
5.53005 0.402093 8.09967
7.26715 0.614104 6.14189
3.01413 0.29616 1.90487
3.75569 0.0435079 1.25985
0.747316 1.46442 0.0583202
6.7717 0.46261 2.23209
2.68595 0.160686 2.96288
5.75404 0.32311 8.27926
6.08835 0.792795 8.76026
3.95657 0.258729 7.12283
4.82239 9.91776 7.00133
4.00451 0.340818 9.2738
2.85011 0.541838 1.80699
8.85902 0.497592 1.56348
6.3274 0.10526 1.68254
8.69348 2.75914 1.45727
3.46511 0.173896 7.4898
7.27456 0.94003 6.33289
7.3769 0.679152 6.16963
3.55555 0.504676 2.57431
3.90652 0.441585 1.12176
8.91349 0.0722392 8.37334
7.69082 9.29296 6.02819
8.61564 0.60335 3.33549
5.8556 0.49544 1.28696
3.23537 0.367172 1.46386
4.2648 0.426466 7.12446
5.59504 0.205037 8.24425
5.30979 0.405704 8.77229
3.72588 0.641912 1.2985
2.92179 0.496088 2.37874
1.91516 0.919046 2.61135
2.78042 0.675125 2.69375
9.08624 0.17892 1.73239
7.92523 0.262844 8.13289
1.66776 0.698698 4.52001
5.59468 0.803034 1.42015
3.10648 0.42977 2.72975
0.382838 0.59385 1.51972
3.89095 1.10915 1.87855
3.09461 0.411454 1.39016
2.35544 0.590766 4.53245
2.24955 0.325367 1.98486
6.50349 0.738644 8.62754
8.53065 1.3129 7.00377
7.74202 1.06264 6.12052
3.27142 0.340824 1.05972
3.771 0.35318 1.06714
3.40789 0.245933 9.05518
3.64487 0.840753 2.60769
6.48403 0.186295 2.32964
6.11009 0.439347 1.2858
2.51375 0.502268 1.31495
5.42102 0.0636823 8.82255
3.35814 0.0552375 2.10172
5.37204 0.12001 8.85087
2.19036 0.381074 1.42935
9.22256 0.217818 1.92062
9.07699 0.250318 1.51067
2.4217 0.569041 1.18225
6.34661 0.795725 1.29668
7.54173 0.172518 1.8637
3.08067 0.326909 1.75409
4.72086 0.134402 8.98299
2.93295 0.253485 1.98873
5.72216 0.276074 8.52094
3.30703 0.80498 2.18228
7.29888 0.210351 1.88744
6.96205 0.635167 8.37054
7.1457 0.230293 1.95485
2.69071 0.314773 1.57837
9.49753 0.0992683 1.14705
2.39432 0.821998 1.17192
5.45144 0.301238 8.47348
1.94634 0.0930611 1.94486
5.6302 0.10101 8.27763
6.46991 0.627998 8.4989
3.5521 0.703726 2.48946
3.52361 0.509371 2.41908
6.43197 0.367709 1.70898
2.85136 0.440572 1.45949
3.45458 0.518464 2.49244
1.83182 0.797961 1.01612
3.13191 0.207409 1.9368
2.49574 0.45475 1.43538
4.70131 0.0721419 9.17228
6.30482 0.556231 8.34063
2.54511 0.867758 1.26698
2.7688 0.610623 1.9968
6.73355 0.578466 1.19669
6.04276 0 7.98255
3.88224 0.345852 1.63391
3.2878 0.706532 1.70081
5.97489 0.353379 1.41565
5.1365 0.410442 8.84532
5.45315 0.513304 8.69784
2.92289 0.630591 2.18465
3.38385 0.377476 1.84233
7.24384 0.626557 6.32987
5.68215 0.235555 8.59326
6.57517 0.725083 8.74545
5.5546 0 8.5537
2.30632 0.60303 1.13907
5.98688 0.264437 1.39941
8.62805 1.26359 6.91557
5.27428 0.228848 8.46048
3.05439 0.378926 0.865125
3.99887 0.407244 1.27916
7.6236 0.911671 5.81643
5.45559 0.11906 8.33178
5.68407 0.28388 8.61201
5.6808 0.648803 8.40438
3.57248 0.394607 2.3811
2.45071 0.232297 1.80037
2.73069 0.528113 1.86575
5.67511 0.456305 8.2938
3.54357 0.327835 2.22063
4.04713 0.20195 6.97216
5.23088 0.247723 8.50666
2.86599 0.336513 1.96092
3.26253 0.519451 1.82569
2.09545 0.333464 5.42473
5.83595 0.338694 1.99822
2.47565 0.298137 1.91327
2.82186 0.565726 1.60609
5.18508 0.325878 8.64262
3.11717 0.226062 2.42326
4.06065 0.205593 7.02629
5.16577 0.39812 8.80973
2.8808 0.33737 1.92712
2.59976 0.439603 1.52804
8.63935 0.303851 1.31284
5.82198 0.3569 1.95567
POINT_DATA 400
SCALARS particleColor float 3
LOOKUP_TABLE default
0.299451 1 0.700549
1 5.96046e-08 0
0 0.530095 1
0 0.865682 1
0 0.644597 1
0.489556 1 0.510444
0.370544 1 0.629456
0.917129 1 0.0828707
0 0.736794 1
0.123343 1 0.876657
0.169691 1 0.830309
1 0.154544 0
0.171291 1 0.828709
1 0.0970319 0
0 0.682494 1
0 0.421755 1
0 0.776692 1
0 0.598279 1
0 0.843172 1
1 0.978305 0
0 0.454139 1
1 0.997943 0
0.399444 1 0.600556
0 0.861634 1
1 0.894001 0
0 0.44215 1
1 5.96046e-08 0
0 0.784128 1
0 0.721188 1
0.0432285 1 0.956771
0 0.962178 1
0.0207104 1 0.97929
0.451425 1 0.548576
0.216972 1 0.783028
0 0.802084 1
0 0.560758 1
1 0.918233 0
0 0.201663 1
0 0.616334 1
0 0.452921 1
0 0.965383 1
0 0.544716 1
0 0.881992 1
0.499511 1 0.500489
0 0.733276 1
0 0.55386 1
0 0.330092 1
0.00662108 1 0.993379
0 0.281703 1
0 0.582221 1
0 0.676666 1
1 5.96046e-08 0
0 0.940852 1
0 0.914322 1
0 0.398582 1
0 0.269854 1
0.374294 1 0.625705
0 0.346012 1
0.186577 1 0.813423
0.378337 1 0.621663
1 0.66265 0
0 0.558535 1
0 0.543393 1
0 0.159242 1
0.0489814 1 0.951019
0 0.7707 1
0 0.602695 1
0 0.709613 1
0 0.633669 1
0 0.525019 1
0 0.950309 1
0 0.637501 1
1 0.143413 0
0 0.706203 1
0.069246 1 0.930754
0.3635 1 0.6365
0 0.352585 1
0 0.705481 1
0.784784 1 0.215216
0 0.809283 1
0 0.810147 1
0 0.759877 1
0 0.794513 1
0 0.456951 1
0 0.521363 1
0 0.708216 1
0 0.90552 1
0.00950802 1 0.990492
0 0.790168 1
0 0.56593 1
0 0.556853 1
0 0.513577 1
0 0.488293 1
0 0.648949 1
0 0.402774 1
0 0.506647 1
0 0.516046 1
0.178629 1 0.821371
0 0.920693 1
0 0.30229 1
0 0.853412 1
0 0.453024 1
0 0.728942 1
0 0.215013 1
1 0.565279 0
0 0.311157 1
0 0.382961 1
0 0.551137 1
0 0.722566 1
0 0.963171 1
0.218733 1 0.781267
0.102621 1 0.897379
0 0.442705 1
0 0.717898 1
0 0.202428 1
0 0.909398 1
0 0.559602 1
0.0696259 1 0.930374
0 0.783844 1
0.263087 1 0.736913
0 0.329127 1
0.733024 1 0.266976
0.215154 1 0.784846
0.0335352 1 0.966465
0 0.306593 1
0 0.902152 1
0 0.581423 1
0 0.526187 1
1 0.780474 0
1 0.975724 0
0 0.0714147 1
0 0.971843 1
0 0.787959 1
0 0.858595 1
0 0.632245 1
0 0.614154 1
1 5.96046e-08 0
0 0.379432 1
0 0.658093 1
0 0.534439 1
0 0.476936 1
0 0.657053 1
1 5.96046e-08 0
0.343862 1 0.656138
0 0.32374 1
0 0.425234 1
0 0.676496 1
0 0.575678 1
0 0.676122 1
0.151455 1 0.848545
0 0.506792 1
0 0.177508 1
0.412255 1 0.587745
0 0.923474 1
0 0.160313 1
0 0.743891 1
0 0.46468 1
0 0.559928 1
0 0.540279 1
0 0.730904 1
0.236433 1 0.763567
0 0.477629 1
0 0.587505 1
0 0.416938 1
0 0.756184 1
0 0.524956 1
0 0.444819 1
0 0.562144 1
0 0.693186 1
1 5.96046e-08 0
0 0.48229 1
0 0.825222 1
0.075269 1 0.924731
0 0.527704 1
0 0.620903 1
0.573692 1 0.426308
0 0.449024 1
0 0.569815 1
0.00180151 1 0.998199
0 0.70173 1
0 0.435045 1
0 0.981696 1
0 0.579932 1
0 0.933126 1
0 0.592303 1
0 0.726536 1
0 0.678391 1
0 0.483028 1
0 0.863242 1
0 0.354037 1
0 0.489088 1
0 0.140523 1
0 0.975547 1
0.238951 1 0.761049
0.168824 1 0.831176
0 0.366305 1
0 0.606536 1
0 0.478749 1
0 0.261174 1
0 0.945031 1
0 0.320249 1
0 0.457805 1
0 0.653818 1
0 0.290613 1
0.42201 1 0.57799
0 0.948098 1
0 0.53334 1
0 0.702005 1
0 0.858388 1
0 0.485952 1
0 0.915015 1
0 0.485701 1
0 0.864587 1
0 0.876889 1
0 0.631894 1
0 0.766865 1
0 0.532983 1
0 0.490826 1
0 0.507652 1
0 0.590039 1
1 5.96046e-08 0
0.582219 1 0.417781
0 0.546364 1
0 0.179233 1
0 0.272994 1
0 0.681337 1
0.0764191 1 0.923581
0 0.332643 1
0 0.375668 1
0.162234 1 0.837766
0 0.514427 1
0 0.641331 1
0 0.104874 1
0 0.661339 1
0 0.815683 1
0 0.892666 1
0.0593212 1 0.940679
0 0.900518 1
0 0.370144 1
0.026392 1 0.973608
0 0.686433 1
0 0.634687 1
0 0.163287 1
0.184899 1 0.815101
0 0.556749 1
0 0.98444 1
0 0.95635 1
0.145097 1 0.854903
0 0.754312 1
0 0.589878 1
0 0.434354 1
0.0105514 1 0.989449
0 0.245667 1
0 0.997973 1
0 0.451879 1
0 0.713204 1
0 0.441921 1
0 0.526317 1
0 0.184581 1
0 0.467555 1
0 0.48196 1
0.130649 1 0.869351
0 0.599502 1
0.320126 1 0.679874
0 0.711351 1
0 0.533489 1
0 0.960869 1
0 0.83763 1
0 0.451341 1
0 0.611971 1
0 0.134962 1
0.329396 1 0.670604
0 0.648879 1
0 0.420951 1
0 0.818788 1
0 0.728389 1
0.646522 1 0.353478
0 0.571318 1
0.420915 1 0.579085
0 0.467737 1
0 0.570036 1
0 0.743782 1
0 0.534805 1
0 0.462746 1
0.38078 1 0.61922
0 0.41832 1
0 0.460044 1
0 0.960644 1
0 0.631462 1
0.318385 1 0.681615
0.0278825 1 0.972117
0 0.296848 1
0 0.820727 1
0 0.540617 1
0 0.574191 1
0.0717111 1 0.928289
0 0.545841 1
0 0.79404 1
0 0.508679 1
0 0.192469 1
0 0.613026 1
0 0.578358 1
0 0.400164 1
0 0.957599 1
0 0.495449 1
0.0730541 1 0.926946
0 0.520382 1
0 0.403728 1
0 0.999321 1
0 0.801271 1
0.0417726 1 0.958227
0 0.258221 1
0 0.643621 1
0 0.99415 1
0 0.659094 1
0.319776 1 0.680224
0.032302 1 0.967698
0 0.655352 1
0 0.607583 1
0 0.626442 1
0 0.685172 1
0.119151 1 0.880849
0 0.63337 1
0 0.659885 1
0 0.450576 1
0 0.13688 1
0 0.444622 1
0 0.240976 1
0 0.541958 1
0 0.985744 1
0.0585012 1 0.941499
0 0.740225 1
0.0453286 1 0.954671
0 0.303502 1
0 0.938906 1
0 0.803493 1
0 0.821918 1
0 0.494206 1
0 0.949396 1
0 0.370913 1
0.155283 1 0.844717
0 0.866346 1
0 0.831931 1
0 0.351844 1
0 0.669115 1
0 0.531531 1
0 0.326526 1
0 0.741647 1
0 0.274992 1
0 0.473129 1
0 0.952284 1
0 0.280205 1
0 0.744833 1
0 0.340219 1
0 0.456688 1
0 0.386507 1
0 0.362882 1
0 0.702855 1
0 0.328124 1
0 0.591404 1
0 0.198779 1
0 0.843739 1
0 0.71627 1
0 0.235322 1
0 0.991098 1
0 0.72832 1
0 0.365688 1
0.158726 1 0.841274
0 0.599041 1
0.172969 1 0.827031
0 0.0153513 1
0 0.493275 1
0 0.362536 1
0 0.603478 1
0 0.312849 1
0 0.91514 1
0 0.677759 1
0 0.551667 1
0 0.600494 1
0 0.752886 1
0 0.784479 1
0 0.421373 1
0 0.676086 1
0 0.424108 1
0 0.612184 1
0 0.443625 1
0 0.546182 1
0 0.434679 1
0.811746 1 0.188254
0 0.719096 1
0 0.606067 1
0 0.456543 1
0 0.460749 1
0 0.924817 1
0 0.332307 1
0 0.634143 1
0 0.504786 1
0 0.974826 1
0.231095 1 0.768905
0 0.664885 1
