# vtk DataFile Version 3.0
Particle simulation
ASCII
DATASET POLYDATA
POINTS 400 float
5.85804 5.89316 6.31774
0.492044 5.82341 5.75809
1.97512 9.0891 7.73932
1.77222 9.25471 5.93054
7.57934 5.68003 4.16655
7.65579 7.30687 9.02654
8.32797 0.212876 9.9741
1.93034 8.97803 4.90328
5.17891 4.63156 1.09576
2.51206 1.20444 7.05328
1.13558 5.76932 1.52976
6.75987 6.60923 0.689606
9.70573 2.62552 2.552
6.54951 0.99228 4.35291
5.12562 5.51972 10
0.595625 6.22554 7.59457
3.9242 4.11589 7.68353
3.94062 0.484004 2.95881
6.28793 6.09276 9.69627
2.20186 0.499837 0.240591
3.78001 0.375128 2.75595
6.05414 0 5.39788
9.75186 5.24543 3.51841
5.99965 0.517685 2.45378
1.81572 9.16221 0.500242
7.84299 7.75634 10
1.03447 1.68086 8.36008
3.47422 8.59402 9.96034
8.53374 0.415379 6.58178
3.11925 0.697984 8.80505
3.67715 9.35612 3.99447
9.13091 9.94228 0.0293409
7.56915 8.49954 1.81796
1.89648 2.61939 1.64662
4.41887 5.80738 3.96281
1.66151 8.1286 5.54686
9.81548 8.07979 3.44436
4.76677 0.487825 3.56606
2.12154 1.44433 0.585272
2.36998 1.57652 8.65859
2.06584 2.14669 1.89895
9.61107 6.26678 5.76175
8.08469 7.39685 6.37274
3.66967 3.86375 0.834067
9.29316 1.45573 7.84916
0.76901 0.837781 8.00214
1.51601 9.72217 1.65063
4.8902 3.54003 9.5834
5.14284 0 5.74267
3.14829 9.41792 9.24747
6.55834 2.15957 1.14155
8.83593 0.658766 7.10832
7.60872 8.75352 3.05751
2.74202 3.72838 6.25658
3.02131 1.68484 4.85669
2.11187 0.95757 7.44252
2.19544 9.14539 0.168696
0.916562 1.5385 8.03132
6.58566 4.04238 8.27902
0.488382 4.99885 2.20117
3.67792 4.14678 0.355587
3.87186 9.70156 3.90135
4.28642 1.13626 7.64228
1.42346 3.60882 9.93943
1.4497 5.45046 7.83664
0.129337 7.72879 1.74139
0.995986 6.48434 0.0784739
2.67088 1.71764 1.25
0.923328 10 7.61835
6.03957 3.6945 7.24975
2.92152 9.25781 0.0129776
4.4407 0.937043 5.96152
7.57856 5.19098 8.03957
9.70333 4.15909 2.89068
8.6964 1.93367 4.90172
6.7411 3.7084 7.96375
7.85446 1.79429 8.81073
7.78625 8.29085 8.1225
7.55455 5.18879 4.51029
4.87872 7.82994 8.78569
3.75245 0.754734 2.51509
3.66437 2.47348 2.10111
7.64483 1.92231 7.45202
9.8829 2.33443 6.65943
6.87568 9.16389 2.00235
7.57058 5.75405 5.37949
5.70471 3.60141 1.33716
1.13557 1.30793 7.08639
2.05838 9.80585 8.09766
4.62029 8.03216 2.70044
4.23007 0.776787 2.93773
5.04207 1.2764 0.185708
8.44563 4.99248 0.772515
8.34316 2.20449 6.679
4.38265 5.74998 9.64007
6.86865 6.34323 0.425707
8.38371 4.23722 7.31744
0 9.23707 1.34759
7.97101 4.50286 9.35659
7.67676 6.40464 4.46121
4.49803 3.18795 0.746279
8.72746 6.99651 1.69827
7.03202 1.64231 0.953439
1.74108 7.02883 7.54212
2.75605 8.39822 0.50411
7.18826 1.5447 4.29325
4.82721 0.642223 1.76678
1.36499 4.66546 8.91533
10 4.53773 7.20264
9.60097 0.28561 3.6673
8.84645 6.808 2.15374
1.50609 8.29138 0
3.63943 1.63199 5.26303
6.2165 8.97182 5.4999
2.8724 0.0483004 2.1853
5.6029 4.87887 5.30545
0.799172 0.514482 8.1003
7.7027 4.88436 3.80691
0.549393 1.32356 3.96537
4.49901 3.36052 0.282575
8.68324 7.66987 9.01778
4.69325 6.59049 7.09051
1.75328 7.38329 0.577383
0.810593 1.87588 3.01484
8.56476 7.74595 5.12295
3.61025 2.22194 1.79447
9.82095 0.766686 2.63255
5.23688 0 4.74328
4.2087 2.19 4.74867
6.29189 7.65429 1.83923
3.80379 1.52492 3.35823
6.48569 5.97231 4.64883
5.20621 4.61336 9.77924
5.02201 4.05805 7.68344
9.30881 2.10363 1.10254
5.3165 8.51407 5.38535
7.72345 2.41 2.80715
5.77647 0.705214 2.38343
8.52983 7.62464 3.14284
9.74205 6.27837 0.88671
3.56967 0.291639 2.9045
9.06576 6.46011 3.23402
0.584086 7.92947 9.35814
4.55641 0.484968 0
4.04871 4.58464 0.0256193
7.3705 2.58277 9.78679
6.36193 8.35194 0.464851
8.96741 4.9702 3.52536
8.42505 2.86144 2.0407
9.04269 9.60402 5.73507
4.04062 0.347136 2.55233
5.53605 9.09584 5.08476
9.71753 2.04134 7.89709
3.82908 0.31531 2.5437
4.06878 6.55971 5.08023
3.97321 7.45902 5.69368
9.02546 8.27203 2.38699
6.61836 5.71646 3.55713
6.993 4.28292 8.4694
3.59026 5.51329 2.55396
8.80228 6.25249 4.40939
0.696565 2.81549 4.43336
6.60544 0 10
2.91407 4.1834 2.31691
3.93799 1.56879 0.415564
7.36232 2.55939 5.33278
4.16716 1.67724 7.37385
2.42306 9.85734 1.07129
1.64226 3.46446 9.70572
8.68695 2.77011 2.99077
4.44958 0.400551 2.40041
5.56113 2.17269 6.29964
2.70286 9.11282 4.27516
7.69779 9.37268 2.65557
1.50728 9.11243 6.1581
0.0944139 4.4772 8.22369
0.918425 7.55457 3.70054
3.79822 0.799327 4.35761
9.36877 3.56173 3.38222
3.45197 5.03241 0.32318
3.07633 0.63957 2.75982
3.6042 0.513509 4.31182
0.815735 9.35687 5.52715
10 0.13182 5.45535
0.331352 7.30044 4.35487
2.38904 8.4737 7.70721
3.87862 0.314708 2.57082
8.70938 1.43791 3.27361
2.84397 0.178646 2.10765
2.92675 0.414939 2.63266
4.02405 0.296775 2.67989
4.07379 0.655094 2.02773
1.80069 2.9539 0.151094
4.19524 3.30676 8.26309
7.87922 0 7.83695
9.95994 1.92803 1.17646
3.33453 1.42482 8.84897
2.38694 1.85743 8.47636
4.04618 0.451277 1.98466
4.34235 0.559685 2.1637
3.96747 0.268995 2.93315
6.70732 5.9417 0
1.26363 3.13023 9.9652
3.79912 1.15676 4.25991
4.83153 8.21291 5.89769
3.06075 10 0
8.70792 0.557321 8.83151
4.0889 3.5733 7.89399
4.35759 4.14384 8.08685
1.0221 8.6123 9.27813
3.98433 0.579322 2.91649
3.94465 0.446519 2.32604
1.84782 1.3635 0.250383
0.670251 3.73458 6.18472
1.50534 4.77685 1.39686
9.60391 8.24413 7.12666
3.8257 0.293206 2.39309
4.05559 1.74735 4.38139
1.6667 0.13504 5.38867
7.17551 7.14489 8.01656
10 5.72747 0.519373
4.64889 10 0.637084
3.89024 0.737594 4.37875
4.10034 0.687449 1.9345
8.88417 1.26228 1.56621
4.20011 2.27868 1.12812
5.47136 5.30131 9.99056
3.92386 0.304442 3.23021
3.87613 0.260579 2.75975
7.19387 6.77741 0.957754
6.91838 3.50037 8.96237
1.51469 6.63512 0.163653
2.5587 6.2006 3.01952
4.08243 0.297588 2.40728
0.868815 0.653655 8.49976
7.36672 3.05164 4.26584
5.06344 6.20542 9.89465
3.03145 3.8372 8.5628
3.92119 0.345281 2.55652
0 7.0032 9.82625
4.11278 0.25854 2.69369
3.51175 0.597141 3.13602
8.68431 5.73795 1.33823
4.07593 0.529743 3.26701
7.03905 5.79825 3.94916
7.76328 6.6248 0.798569
6.32039 6.52858 3.72916
2.46826 10 4.30725
1.85368 9.6602 1.99942
0.811803 0.914713 2.27003
4.35716 0.443991 2.8884
3.8807 1.40966 5.82505
8.27652 4.02358 4.05824
7.63525 4.25986 5.59881
0.578762 1.17268 9.84174
0.103486 0.11607 3.40407
8.56956 9.83467 6.61955
0.708935 0.519009 8.4103
0.252929 3.57082 6.85031
1.0133 0.570623 8.50951
2.30217 1.69968 4.52122
7.93711 3.81283 9.21975
1.54316 1.40004 7.2151
3.392 8.61127 2.58112
1.41965 3.61498 7.02128
6.98889 4.75104 6.2597
0.569584 5.62755 1.86882
0.506407 0.694938 8.68189
5.11292 9.56874 8.62579
0.367816 1.47678 1.65329
3.77293 0.495771 2.31926
9.05714 1.28598 9.35092
7.84214 8.67324 8.22442
3.3649 2.39384 7.99722
7.53421 0.524134 4.62254
6.90249 6.97402 2.6479
6.97323 2.12791 5.63624
6.25532 3.63997 10
5.71336 1.91984 9.44133
3.72961 0.198369 2.78149
8.76575 8.8748 6.16095
8.9353 0.486277 0.851894
2.45219 6.88999 6.27178
1.3718 0.80276 1.55578
7.72393 3.82254 8.82932
1.74902 8.86876 7.78937
3.66066 0.26127 2.44057
0.566423 1.04992 5.52491
9.47435 0.249936 3.39478
7.58068 1.37044 8.70588
6.94762 3.23532 7.91453
2.40639 6.13278 3.08737
3.94482 0.419605 2.03305
1.40605 5.59358 8.80342
2.31263 0.301573 4.86462
0.59318 0.728656 8.55109
3.739 0.0805686 2.94032
3.91586 0.54911 3.08139
4.15879 0.587655 2.68963
3.63657 0.451915 2.8086
4.41634 2.83475 1.97541
7.23449 0.259863 0.141204
4.21439 0.950767 3.34095
5.13416 6.35268 0.973442
3.80668 0.61281 2.2726
0.230489 3.58717 8.36278
3.47773 0.278231 2.59396
3.76259 0.514339 3.11187
0.724846 2.53315 8.01203
8.8733 3.8097 6.30409
8.00652 7.02972 10
0.412944 0.209162 5.87644
0.916626 5.4415 2.1896
3.88464 0.129673 2.2304
5.51179 1.16718 6.07618
0.389712 9.95119 6.94354
4.02091 3.30764 0.68929
3.89983 6.76342 3.95117
5.06405 0.219768 5.21747
8.24234 5.81981 0.987757
0.794592 0.842602 8.5419
8.32563 9.32772 8.72414
0.348957 0.600318 8.45745
4.13856 0.257023 2.3523
0 0.0825474 5.22742
10 1.40462 5.95505
4.17092 0.82424 3.20039
6.51646 6.68284 0.773311
2.85768 7.30338 9.36506
3.99364 0.384047 2.50366
0.24801 8.22223 4.11612
1.70095 2.54907 0.55022
0.169439 0.864161 5.2159
0.546655 1.5124 1.14982
8.6265 0.215137 0.869719
1.99566 2.19884 5.35772
8.54208 4.77302 3.35195
4.10944 0.111612 2.38356
0.599099 3.39525 9.2344
7.54577 5.22608 8.80268
9.12971 6.90335 5.63188
6.66755 7.10562 1.26879
0.383802 4.65055 7.83202
0.862277 0.587693 8.35061
4.13642 0.288084 2.30646
4.95111 0.368 3.76106
8.76536 0.511749 0.977237
4.16089 0.340866 3.02243
4.15965 0.402129 3.06756
8.92594 1.45502 5.07591
3.71689 0.198987 2.63503
3.90137 0.197928 2.96199
2.73838 9.08797 4.19952
7.393 9.08832 3.68942
3.0685 0.282124 2.38123
4.23638 0.425578 2.02267
3.0799 2.36223 2.22462
1.88711 5.70947 8.91972
4.56151 0.887611 2.70135
3.64691 0.614298 2.87079
8.64356 0.754214 0.77637
0.76189 0.560522 8.13011
0.723401 0.516707 8.56142
3.7786 0.775354 2.49651
4.14911 0.194924 2.55145
8.71564 0.731078 0.842341
0.571441 0.615693 8.37441
1.87139 1.97945 0.42538
0.732065 0.63091 8.18108
5.53402 0.842969 1.61956
8.65343 0.832661 1.04547
1.13843 2.05704 6.97359
8.35557 4.14522 1.48528
4.15366 0.502777 2.90572
4.11974 0.117785 2.08886
8.63558 0.241582 0.736405
0.644448 0.276429 8.2619
0.508052 0.874721 7.98655
2.66118 1.95381 9.3706
4.21418 0.208211 2.29343
3.80818 0.483216 2.78852
3.72961 0.14812 2.73291
2.48981 1.75227 8.89819
4.01046 0.103308 2.6328
7.6336 2.75637 2.04381
0.757183 0.654124 8.63922
4.13195 0.340243 2.51546
3.62196 0.274793 2.77449
3.62806 9.39056 9.29879
2.02724 1.62463 9.03494
3.26193 0.616373 3.01726
3.86803 0.455667 2.68034
1.17803 0.736882 8.25226
3.92726 0.133343 2.99209
3.68434 1.98625 1.53475
0.817683 0.815128 8.54198
4.12752 0.342768 2.54779
0.864534 6.74424 1.51908
0.218022 1.24729 4.12052
9.29553 0.587831 0.993725
POINT_DATA 400
SCALARS particleColor float 3
LOOKUP_TABLE default
0.308425 1 0.691575
0 0.539197 1
1 5.96046e-08 0
1 5.96046e-08 0
0.284851 1 0.715149
0.567487 1 0.432513
0.888297 1 0.111703
1 5.96046e-08 0
1 0.292628 0
1 0.684927 0
0.331159 1 0.668841
1 0.178949 0
1 5.96046e-08 0
1 0.840693 0
1 5.96046e-08 0
1 0.796352 0
1 0.539086 0
0 0.76017 1
1 0.676058 0
1 5.96046e-08 0
0 0.90545 1
1 5.96046e-08 0
1 5.96046e-08 0
1 5.96046e-08 0
0.14908 1 0.85092
1 5.96046e-08 0
0 0.655903 1
1 5.96046e-08 0
1 0.990446 0
0.49207 1 0.50793
0.688716 1 0.311284
1 0.919117 0
1 0.897105 0
1 5.96046e-08 0
1 0.64136 0
1 5.96046e-08 0
1 5.96046e-08 0
0 0.384467 1
1 5.96046e-08 0
1 0.23475 0
1 0.163564 0
1 0.45128 0
1 0.287245 0
1 0.580837 0
1 5.96046e-08 0
1 5.96046e-08 0
1 0.420014 0
1 0.158818 0
0.916071 1 0.0839289
1 5.96046e-08 0
1 5.96046e-08 0
0.991236 1 0.00876367
1 5.96046e-08 0
1 5.96046e-08 0
1 0.291068 0
0 0.934207 1
0.190749 1 0.809251
0.207503 1 0.792497
0.00956248 1 0.990438
0 0.873835 1
1 5.96046e-08 0
1 0.413784 0
0 0.721701 1
0.797018 1 0.202982
1 0.216217 0
0.879445 1 0.120555
1 5.96046e-08 0
1 0.795929 0
1 0.325692 0
0.412466 1 0.587534
1 5.96046e-08 0
1 0.992815 0
1 0.625571 0
0.173319 1 0.826681
0.281699 1 0.718301
1 0.393696 0
1 0.0469826 0
1 5.96046e-08 0
1 0.610939 0
1 5.96046e-08 0
0 0.388163 1
1 5.96046e-08 0
1 0.895499 0
1 5.96046e-08 0
0.144994 1 0.855006
1 0.817976 0
1 0.897299 0
1 0.0552332 0
0.920171 1 0.079829
1 0.691121 0
0 0.720683 1
1 0.653484 0
1 5.96046e-08 0
1 5.96046e-08 0
0.609983 1 0.390017
1 5.96046e-08 0
1 5.96046e-08 0
1 5.96046e-08 0
0.275792 1 0.724208
1 5.96046e-08 0
0.118176 1 0.881824
1 5.96046e-08 0
0.702684 1 0.297316
0 0.770178 1
1 5.96046e-08 0
1 5.96046e-08 0
1 5.96046e-08 0
0.855604 1 0.144396
1 5.96046e-08 0
1 5.96046e-08 0
1 5.96046e-08 0
1 5.96046e-08 0
1 0.328563 0
1 5.96046e-08 0
0 0.402411 1
0.950921 1 0.0490786
0 0.320843 1
1 5.96046e-08 0
0.458223 1 0.541777
0.290548 1 0.709452
1 5.96046e-08 0
1 0.595138 0
1 0.481554 0
1 5.96046e-08 0
0.366274 1 0.633726
0.231157 1 0.768843
0.268529 1 0.731471
1 5.96046e-08 0
0.166983 1 0.833017
0.783253 1 0.216747
1 5.96046e-08 0
1 5.96046e-08 0
1 5.96046e-08 0
1 5.96046e-08 0
1 5.96046e-08 0
1 0.142974 0
1 5.96046e-08 0
1 0.468698 0
1 0.927567 0
0 0.564548 1
0 0.410486 1
1 5.96046e-08 0
1 5.96046e-08 0
1 5.96046e-08 0
1 0.767819 0
1 0.882071 0
1 0.632486 0
0.217709 1 0.782291
1 0.398006 0
1 5.96046e-08 0
0 0.491095 1
1 0.224542 0
1 0.054633 0
0 0.824779 1
1 5.96046e-08 0
1 0.656276 0
0.46744 1 0.53256
0.707523 1 0.292477
1 5.96046e-08 0
1 0.301397 0
1 5.96046e-08 0
0.674875 1 0.325125
1 5.96046e-08 0
0.0407195 1 0.959281
1 0.133982 0
1 0.761187 0
1 0.842406 0
1 5.96046e-08 0
0 0.770599 1
0.149016 1 0.850984
0 0.539831 1
1 5.96046e-08 0
0.0198493 1 0.980151
1 0.169856 0
0.301578 1 0.698422
0.0100901 1 0.98991
1 5.96046e-08 0
1 5.96046e-08 0
0.462259 1 0.537741
1 5.96046e-08 0
0 0.559914 1
1 5.96046e-08 0
0 0.657843 1
1 0.535431 0
1 0.302382 0
1 5.96046e-08 0
0 0.628189 1
1 0.0478048 0
0 0.428203 1
0 0.583276 1
0 0.630151 1
0 0.727537 1
1 0.561543 0
0.862777 1 0.137223
0.839128 1 0.160872
1 5.96046e-08 0
1 5.96046e-08 0
1 5.96046e-08 0
1 5.96046e-08 0
0 0.645965 1
0 0.0997228 1
1 5.96046e-08 0
1 0.777449 0
1 5.96046e-08 0
1 0.446359 0
1 5.96046e-08 0
0.451991 1 0.548009
0.0522177 1 0.947782
0.838215 1 0.161785
1 5.96046e-08 0
0 0.469712 1
0 0.158934 1
0.392473 1 0.607527
1 0.467959 0
0.751702 1 0.248298
1 5.96046e-08 0
0 0.878767 1
0.560625 1 0.439375
1 5.96046e-08 0
1 5.96046e-08 0
1 0.730348 0
0.789543 1 0.210457
1 0.882529 0
0 0.727555 1
1 5.96046e-08 0
1 0.759462 0
0.671941 1 0.328059
0 0.731337 1
0 0.6485 1
1 0.412347 0
0.959218 1 0.040782
0.943949 1 0.0560508
1 5.96046e-08 0
0 0.79572 1
0 0.251743 1
0 0.409288 1
0.92151 1 0.0784895
0.0511728 1 0.948827
0 0.765658 1
0.190629 1 0.809371
0 0.281711 1
0.0869204 1 0.91308
1 5.96046e-08 0
0 0.990823 1
1 0.274033 0
1 0.754407 0
0.772602 1 0.227398
1 5.96046e-08 0
1 5.96046e-08 0
0.371571 1 0.628429
0 0.762043 1
1 5.96046e-08 0
1 5.96046e-08 0
1 0.570542 0
0.648545 1 0.351455
0 0.318367 1
1 5.96046e-08 0
0 0.451069 1
1 5.96046e-08 0
0 0.269798 1
1 0.683885 0
0.106551 1 0.893449
0.612358 1 0.387642
1 5.96046e-08 0
0.235649 1 0.764351
1 0.691114 0
1 0.996254 0
0 0.807796 1
1 5.96046e-08 0
0.544705 1 0.455295
0 0.957642 1
1 5.96046e-08 0
1 5.96046e-08 0
1 0.395063 0
0.906147 1 0.0938531
1 0.536725 0
0.450079 1 0.549921
1 5.96046e-08 0
1 5.96046e-08 0
0 0.161315 1
1 5.96046e-08 0
0 0.40808 1
1 0.700862 0
0 0.227192 1
1 0.67105 0
0.983631 1 0.0163692
0 0.32842 1
0.404987 1 0.595013
1 5.96046e-08 0
1 0.394175 0
0 0.490126 1
1 5.96046e-08 0
0 0.827803 1
1 5.96046e-08 0
1 0.343014 0
0 0.586939 1
0 0.602398 1
0 0.335212 1
0.186137 1 0.813863
0 0.452153 1
1 5.96046e-08 0
0 0.419643 1
0 0.801592 1
1 0.312938 0
0 0.447844 1
1 5.96046e-08 0
0 0.344894 1
0 0.623954 1
0.269188 1 0.730812
0 0.726105 1
1 0.69594 0
0.552153 1 0.447847
1 0.594428 0
0 0.464331 1
1 5.96046e-08 0
0.370873 1 0.629127
0.141046 1 0.858954
1 5.96046e-08 0
1 5.96046e-08 0
0 0.906679 1
0 0.762547 1
0 0.680594 1
0 0.571672 1
0 0.498906 1
0.575953 1 0.424047
0.374962 1 0.625038
0 0.465884 1
1 0.126721 0
0.467776 1 0.532224
0 0.437501 1
1 5.96046e-08 0
0.82751 1 0.17249
0 0.36877 1
0.286757 1 0.713243
0 0.541187 1
1 0.769949 0
1 5.96046e-08 0
0 0.161886 1
0.470535 1 0.529464
1 0.684269 0
1 0.472138 0
1 5.96046e-08 0
0.107843 1 0.892157
0 0.300013 1
0 0.840316 1
0 0.419871 1
0 0.966508 1
0 0.73101 1
0 0.756811 1
1 0.509287 0
0 0.89414 1
0 0.72785 1
0.530592 1 0.469408
0.865492 1 0.134508
0 0.635264 1
0 0.565493 1
0.58957 1 0.41043
1 0.654736 0
0 0.445922 1
0 0.319167 1
0 0.139325 1
0 0.124545 1
0 0.338365 1
0.159086 1 0.840914
0 0.64225 1
0 0.858578 1
0.243513 1 0.756487
0 0.695562 1
0 0.497253 1
1 5.96046e-08 0
0.0294952 1 0.970505
1 0.613788 0
1 5.96046e-08 0
0 0.468032 1
0 0.710194 1
0 0.840861 1
0 0.748153 1
0 0.265715 1
0 0.621823 1
0 0.497886 1
0 0.949801 1
0 0.718099 1
0 0.63049 1
0 0.278386 1
0.599702 1 0.400298
0 0.406334 1
0 0.814302 1
0 0.65854 1
1 0.178652 0
1 0.987187 0
0 0.44154 1
0.0384331 1 0.961567
0.0691341 1 0.930866
0 0.477068 1
0 0.973213 1
0 0.937064 1
0 0.913438 1
1 0.836935 0
1 0.668586 0
0 0.596453 1
