# vtk DataFile Version 3.0
Particle simulation
ASCII
DATASET POLYDATA
POINTS 400 float
6.06783 0.749397 9.03483
7.67827 5.30602 7.85802
0.291864 1.40362 7.00466
4.16743 0.435648 2.50441
9.04472 0.843818 5.51629
4.29 3.99611 1.17191
3.12725 0.71568 0.793143
7.74562 2.82859 2.22872
8.3042 5.05856 8.40295
2.45523 0.733897 7.72917
7.66287 3.94139 3.13356
6.63803 9.60122 9.60184
9.37966 0.234719 9.07883
3.41801 9.74738 1.64384
6.57926 3.34352 2.77894
8.85178 5.26513 9.85905
0.891552 4.60673 0.335596
2.82661 0.0768497 2.46475
0.69043 4.61563 6.66363
3.04614 1.09844 2.58153
2.76773 0.333945 1.5811
8.13375 2.43228 1.57985
9.37421 2.96122 7.27102
1.403 1.82288 0.545977
2.28427 6.52719 0.338082
3.16747 0.382504 1.83912
4.2777 0.698088 5.9662
0.997742 1.54137 0.102507
8.80254 0.258582 4.06389
8.40352 2.14327 1.79936
2.97724 4.9029 9.87351
3.82652 5.19581 4.36859
6.62566 1.12091 5.25805
2.72964 0.281782 3.4109
8.31242 2.23948 1.50532
4.63033 3.67084 0.203806
5.48375 2.10384 1.36888
2.58383 0.323941 1.29979
7.01291 0.303847 2.19457
0.556719 0.829403 5.41987
0.119912 0.267889 5.96363
9.5343 2.94965 6.69825
6.17821 0.588406 9.55589
3.89773 2.54259 5.50568
7.48053 0.657407 5.75097
6.18001 0.345611 1.4965
3.46629 1.21299 4.76053
9.2402 0.743645 5.15294
6.11058 0.469222 1.38861
7.47121 3.08511 2.24593
3.03551 1.70291 3.23637
9.50808 3.10405 3.64956
8.29808 0.190129 8.84959
3.86896 0.145613 7.71314
7.28472 0.545124 8.46812
6.60294 0.436534 1.01091
9.64877 2.58146 7.208
1.45579 0.376557 8.87984
5.84911 1.76955 0.236604
9.96093 4.52732 5.00765
2.1013 9.8616 0.957507
6.14691 3.08693 8.68529
0.36925 0.464381 3.18588
3.29031 0.203388 7.95955
0.0947465 9.32957 1.62873
0.994958 0.21264 4.15462
4.17352 1.29276 9.43855
2.79118 0.827726 1.85555
6.16108 1.89706 0.13435
5.23471 0.763763 8.49728
8.08624 0.0458288 7.13622
2.84815 0.140361 1.46566
3.1187 0.694319 7.30847
3.19522 0.288292 7.98392
8.0483 0.227573 6.89724
8.53021 1.0902 0.398749
4.09737 1.18219 9.40911
5.43152 0.827232 7.97413
9.31996 4.5004 0.0287718
0.69453 6.16957 9.58325
3.56283 0.816033 1.1144
3.25277 0.0365277 1.90978
1.31497 0.674425 1.83954
3.53706 0.45895 1.84464
1.46565 0.525578 9.54681
5.32725 0.764889 8.6049
4.80262 0.672866 6.37169
3.25642 2.65867 2.32421
7.32022 3.90388 3.74441
8.74185 0.20358 1.14214
3.38847 0.705218 0.904041
3.48719 0.630564 0.731221
0.253361 0.956059 5.50468
4.17717 0.0719702 2.85789
1.54431 0.662032 9.57049
5.03124 0.450267 9.03832
4.94293 0.41772 9.90339
2.13432 2.45794 0.464859
8.7691 1.18931 7.06098
8.75025 0.192416 1.15655
2.74233 0.325549 2.38132
5.88653 0.15005 2.48411
3.74029 0.697146 2.51847
9.15057 0.849834 9.58355
4.2223 1.60181 0.459376
2.48265 0.366602 1.2607
6.7289 1.26663 8.77848
6.56406 0.515753 1.19531
5.63508 0.458505 2.02915
8.4649 0.290216 1.39242
7.35334 8.47243 8.39867
3.35666 0.053597 8.33678
3.59797 0.731414 1.17976
5.44544 0.571465 1.62028
2.69267 0.215098 1.13062
0.466096 1.05052 5.74027
5.31687 0.643159 8.11763
7.31191 0.105242 2.47394
5.57232 0.597175 1.90101
7.31277 0.536935 8.72192
3.05291 0.499415 1.63491
4.29886 0.863655 6.80747
7.28022 7.92629 2.02626
3.80792 2.61567 6.5705
7.1194 0.99969 8.59114
3.54718 1.10181 1.33508
4.7682 1.73632 4.5282
3.23136 0.359783 7.90095
0 5.19149 8.78383
2.23502 8.83765 4.52038
3.56467 0.806011 1.31665
3.15862 2.76411 2.49493
6.71424 1.1732 8.71099
7.85178 0.445414 6.19745
3.47364 2.47418 4.49293
1.7612 0.783651 1.042
4.72655 8.60605 3.99513
3.34274 0.22071 7.9814
3.70275 3.18943 5.71817
7.55356 0.993057 8.16906
3.36329 0.596872 1.15926
2.85591 2.98087 9.17576
6.42231 0.622307 1.2696
7.11382 0.429221 8.90962
2.90844 0.578146 2.1967
3.39221 0.0169539 2.22696
7.23158 0.717425 5.64701
0.784566 4.40186 0.326452
2.53637 0.00528683 2.6585
0.799209 0.825309 5.12618
3.40966 0.578805 1.14037
8.79814 1.4487 6.98971
0.798583 0.0763891 3.64248
7.37116 1.77998 9.76597
3.52045 2.98603 0
6.50451 0.4231 1.4305
7.65081 0.972332 5.66828
2.40395 0.271815 1.30888
7.74554 0.753542 5.4637
4.12319 0.402477 1.29218
5.175 3.96785 2.50976
0.257717 1.32504 6.88002
5.15938 0.354912 9.24529
3.38946 0.196715 1.89013
2.67251 1.53164 3.40738
8.25581 0.281945 8.61573
6.47062 0.44126 7.68864
5.17709 1.11543 8.01715
8.48483 1.99228 5.34896
0 4.16493 10
3.13148 0.25218 1.21379
4.66063 1.83588 4.9194
5.8027 0.233453 1.68788
3.25567 0.289965 1.45486
3.64648 0.974777 2.26157
4.41454 3.52 0.229292
5.64508 0.770617 8.32287
5.93455 0.674546 8.54364
9.50474 1.37063 7.20232
0.917363 8.5739 4.52985
3.5147 0.451391 1.88918
3.44716 0.377381 2.66472
7.12604 5.29018 5.32654
3.02924 0.604847 2.26834
5.25612 0.195471 8.89313
3.21505 0.809478 0.871405
3.55244 0.166532 1.6675
0.505923 1.30709 6.97993
7.98877 0.799833 5.99011
2.99995 0.345381 1.91348
3.41223 0.321933 1.95341
3.13241 0.276762 1.89924
9.55432 0.931578 7.35625
1.26279 2.38618 4.6008
4.99396 5.05373 0.115006
3.54381 0.29998 1.1916
4.13255 0.427318 2.8397
9.2369 3.66182 7.9526
2.98036 0.357531 1.87992
2.74224 0.464235 2.8868
2.73206 0.198939 1.79177
5.92623 0.707797 1.72345
7.78756 1.13883 5.45193
6.12604 1.06084 8.80888
8.78038 9.46815 0.763375
5.68775 0.455813 8.57593
3.1185 0.328834 2.36008
0.879829 0.266234 8.73691
1.27345 0.394273 8.6258
8.65956 0.247628 1.00208
3.74562 0.363675 2.2453
6.4436 0.24184 1.26323
5.05885 0.361293 9.89209
7.20439 0.708317 8.60052
7.76643 0.68784 8.39592
5.61238 0.854338 8.4012
3.16014 0.394852 2.33952
2.8029 0.337262 2.04334
4.61833 1.79758 4.46877
8.87522 0.295793 0.779453
3.79032 9.4904 10
7.13123 1.48034 9.4965
6.14828 0.479596 8.48896
2.64852 0.385395 1.15002
5.57862 0.731072 8.45297
2.74822 0.279413 1.45066
5.36583 3.78486 0.0732906
3.42535 0.363563 1.99538
3.04276 0.122669 2.2935
8.0865 0.372632 8.88455
0.102109 1.2427 6.19637
5.14498 0.346681 8.95259
7.72633 0.84013 5.42102
3.12318 0.345416 1.21469
5.26116 0.489276 8.11364
1.76764 0.403979 2.07963
4.32814 1.03882 9.25035
3.89907 0.8031 2.36007
3.42855 0.550963 2.12208
1.38247 0.570105 8.60568
3.28479 0.580406 0.817203
3.29842 0.172203 1.56183
3.23886 0.864469 2.08798
3.64267 0.176846 2.37042
5.16076 0.46368 9.0755
1.6867 0.819582 1.5982
0.915859 1.60371 0.202843
9.59809 0.520841 8.53068
5.679 0.798074 1.48576
5.92475 0.56351 8.38884
2.78037 0.216989 1.78159
2.69028 0.589742 4.95482
5.65602 0.629973 8.2151
4.30065 0.710328 2.62306
7.35945 0.576228 5.50433
2.81315 0.423616 1.47693
8.66905 0.765919 0.0489618
5.01954 0.453465 8.54179
6.1819 0.413722 1.75324
5.7985 0.601075 8.28628
3.25259 0.504512 2.15363
2.20236 3.15753 4.75688
5.70854 1.1281 8.35949
9.37562 0.486145 0.640522
5.10513 0.577803 8.98223
3.73431 2.77631 5.62436
2.87782 0.614872 1.11942
5.43479 1.02125 8.98055
7.63094 0.790864 5.60839
2.91461 0.174156 1.37348
3.02842 0.47743 2.56128
0.512214 0.254347 3.42842
7.10468 0.334515 2.55006
3.82049 0.57808 0.466753
5.93256 0.790838 8.79127
4.96542 0.711527 8.46437
4.03129 0.411344 7.41244
4.0971 8.26959 7.40321
2.02348 0.454079 9.97226
3.27941 0.310427 1.77434
8.49477 0.173493 1.15193
6.03984 0.243678 1.46727
9.32266 2.51049 1.82274
3.14745 0.378471 8.11395
9.35948 2.03044 7.24023
7.6538 0.927048 5.6233
2.76353 0.297679 1.34697
2.38508 0.121848 2.70145
6.15159 0.210606 7.81865
6.1255 9.02489 8.73887
9.0842 0.308571 3.85881
5.87665 0.657277 1.31082
3.34892 0.830938 1.39398
3.34235 0.198905 7.81618
5.88997 0.705838 8.10626
5.59881 0.595248 8.51568
2.72847 0.215532 2.37471
2.94325 0.560155 1.7081
3.93708 0.437294 0.351447
3.14384 0.45363 1.26042
8.7002 0.243396 1.47434
7.33183 0.479277 8.65331
2.59618 1.08834 6.18536
6.43482 0.116607 2.24626
3.54592 0.610986 0.969252
0.450279 1.2471 1.13915
2.31973 0.847424 1.83995
3.06401 0.286881 2.35281
2.38258 1.12131 6.37579
4.18506 0.427156 2.54769
5.20046 0.465382 8.07307
8.77774 1.39538 7.03807
7.56793 0.509083 5.9933
3.02987 0.148667 2.30779
2.45414 0.44013 2.71506
1.0974 0.662656 9.4794
2.32958 0.643913 1.20221
6.09284 1.00583 1.23571
5.91536 0.500512 1.69454
3.4277 0.311113 2.04131
5.42068 0.555923 8.58123
1.4228 0.562317 1.7931
5.39866 0.701504 8.41728
3.26476 0.280322 2.52474
9.00987 0.440235 1.38674
8.66866 0.261676 0.984761
3.3587 0.563486 2.36803
5.93424 0.90656 1.43052
6.3536 0.0506156 2.67752
3.13097 0.0651016 1.62775
6.85059 0.916182 8.43773
3.32735 0.0518578 1.60494
5.57157 0.55867 9.06222
2.76497 0.532057 1.49241
6.23448 0.205723 1.7727
9.36008 1.64092 7.09272
5.63457 0.746875 1.74273
3.28341 0.256083 2.0163
8.27747 0.131217 1.08851
3.39911 0.458066 2.08121
5.82563 0.607934 8.62106
3.60486 0.296475 1.64238
5.64431 0.350388 8.72984
4.98802 0.227567 8.21022
2.78037 0.45074 1.27082
2.69668 0.189037 1.27336
6.11072 0.636808 1.70958
3.14795 0.371299 1.95928
2.63794 0.29461 1.33398
3.68184 0.613298 2.67314
2.25258 0.421543 1.49841
3.46881 0.498236 2.21832
6.42058 0.580724 7.89854
5.17309 0.547052 8.40338
3.33216 0.697819 2.51337
3.03775 0.511204 1.87145
6.16159 0.694971 1.4735
5.30092 0.0649026 9.11295
2.57621 0.194028 2.14409
2.85796 0.556988 1.68369
6.15392 0.206113 1.22343
5.55279 0.883326 8.72923
5.87372 0.977911 8.51612
2.84689 0.395967 1.93119
2.55296 0.297678 1.88915
7.7109 0.56188 5.70416
5.70104 0.770846 8.3239
4.96758 0.210905 7.78325
5.92734 0.531199 8.45784
3.83202 0.581684 2.71724
6.1847 0.299698 1.1832
8.69294 1.3816 6.87827
5.50664 0.769707 8.30123
3.56176 0.514665 2.67435
2.73554 0.393896 2.514
7.58873 0.39317 5.66458
5.82282 0.680943 8.19851
5.72446 0.863811 8.46233
5.2534 0.916719 8.16527
2.98197 0.116663 1.16631
3.13851 0.194951 2.27978
3.08225 0.41775 1.8946
5.79668 0.915474 8.3089
2.77551 0.0328776 1.71106
3.30649 0.416067 7.96667
5.45469 0.78389 8.33826
3.3557 0.203898 2.00917
3.0112 0.257032 2.01803
4.44702 1.68629 7.30985
6.6224 0.0968945 1.14329
3.07788 0.234659 2.2471
3.43749 0.435488 1.83476
5.52933 0.884966 8.51444
3.24241 0.0327938 1.23699
3.28209 0.338202 7.99182
5.61016 0.880135 8.53882
3.29815 0.173918 1.94914
3.14503 0.411381 2.16513
8.97196 0.139864 0.629191
6.61188 0.107609 1.16757
POINT_DATA 400
SCALARS particleColor float 3
LOOKUP_TABLE default
0 0.710917 1
0.955581 1 0.0444186
0 0.729423 1
0 0.635562 1
0.243494 1 0.756506
0.466046 1 0.533954
0.531698 1 0.468302
0 0.730396 1
1 0.857299 0
0 0.64737 1
0 0.607441 1
1 5.96046e-08 0
0 0.491841 1
0.986444 1 0.0135557
0 0.451344 1
0 0.397656 1
0.322689 1 0.677311
0 0.211626 1
0.169252 1 0.830748
0 0.937929 1
0 0.663438 1
0.384259 1 0.615741
0.750443 1 0.249557
0 0.613509 1
0.571554 1 0.428446
0.0935796 1 0.90642
1 5.96046e-08 0
0.0505476 1 0.949452
0 0.254779 1
0 0.59261 1
0 0.996028 1
0.183222 1 0.816778
0.253612 1 0.746388
0 0.598256 1
0 0.438487 1
0 0.90543 1
0.257805 1 0.742195
0 0.646457 1
0 0.3641 1
0 0.935141 1
0 0.741812 1
0 0.509596 1
0 0.983093 1
0.620413 1 0.379587
0 0.586801 1
0 0.510505 1
0 0.314555 1
0.498706 1 0.501294
0 0.447788 1
0.415524 1 0.584476
0 0.804169 1
1 5.96046e-08 0
0 0.362275 1
0 0.48217 1
0 0.416786 1
0 0.415092 1
0.121947 1 0.878053
0 0.790222 1
0 0.713519 1
1 5.96046e-08 0
1 0.682402 0
0 0.458271 1
0.941597 1 0.0584031
0 0.49356 1
0 0.696597 1
0 0.43196 1
0 0.223212 1
0.254959 1 0.745041
0 0.936027 1
0 0.817067 1
0.264081 1 0.735919
0 0.594727 1
1 0.643568 0
0.0138226 1 0.986177
0 0.8898 1
0 0.619839 1
0 0.280338 1
0 0.648499 1
0.502845 1 0.497155
0 0.91549 1
0 0.180041 1
0 0.52679 1
0 0.549544 1
0 0.333261 1
0 0.552432 1
0 0.466321 1
0.423803 1 0.576197
0.142214 1 0.857786
0 0.866696 1
0 0.686655 1
0 0.345127 1
0 0.605039 1
0 0.498315 1
0 0.322538 1
0 0.494177 1
0 0.62808 1
0 0.877367 1
0 0.806322 1
0 0.735815 1
0 0.43048 1
0 0.63781 1
0.206939 1 0.793061
0 0.812258 1
0 0.723603 1
0.36748 1 0.63252
0 0.627915 1
0.122379 1 0.877621
0 0.25926 1
0 0.331922 1
0 0.61421 1
0 0.660571 1
0 0.864652 1
0.149763 1 0.850237
0 0.520778 1
0 0.665375 1
0.352017 1 0.647983
0 0.546735 1
0 0.867185 1
0 0.266205 1
0 0.485922 1
0 0.40102 1
1 5.96046e-08 0
0.267267 1 0.732733
0.310317 1 0.689683
0 0.460513 1
0 0.415414 1
0 0.923319 1
0 0.355534 1
0 0.928042 1
0.647849 1 0.352151
0 0.422323 1
0 0.415875 1
0 0.246855 1
0 0.846292 1
0.542543 1 0.457457
0 0.199123 1
1 5.96046e-08 0
0 0.524597 1
0.680213 1 0.319787
0 0.475396 1
0 0.585698 1
0 0.567331 1
1 5.96046e-08 0
0 0.242899 1
0 0.475342 1
0 0.59385 1
0 0.53215 1
0.53556 1 0.46444
0 0.954083 1
1 5.96046e-08 0
0 0.5117 1
0 0.297389 1
0 0.997361 1
0 0.653946 1
0 0.715416 1
0 0.430429 1
0.345733 1 0.654267
0 0.570261 1
0 0.884928 1
0 0.516883 1
0 0.875657 1
0 0.825378 1
0 0.418215 1
0 0.644891 1
0 0.677107 1
0 0.517124 1
0 0.792529 1
0 0.477131 1
0 0.770852 1
1 5.96046e-08 0
0 0.789741 1
0 0.617869 1
0 0.968367 1
0 0.806401 1
0 0.409668 1
0 0.834649 1
0 0.819555 1
0 0.821426 1
0.276967 1 0.723033
0.881601 1 0.118399
0 0.359215 1
0.0610639 1 0.938936
0 0.5913 1
0 0.700816 1
0 0.0472362 1
0 0.284549 1
0 0.764566 1
0.019846 1 0.980154
0 0.294128 1
0 0.318963 1
0 0.362377 1
0 0.585433 1
0.0610563 1 0.938944
0.159 1 0.841
1 5.96046e-08 0
0 0.55992 1
0 0.541167 1
0 0.545836 1
0 0.629712 1
0 0.513754 1
0 0.476849 1
0 0.428948 1
0 0.605164 1
0 0.288251 1
0 0.902079 1
0 0.306086 1
0 0.980867 1
0 0.427644 1
0 0.280183 1
0 0.731203 1
0 0.112634 1
0 0.61494 1
0 0.588938 1
0 0.972067 1
0.449921 1 0.550079
0 0.529548 1
0 0.854205 1
0 0.557384 1
0 0.622131 1
0 0.501857 1
1 0.34769 0
0 0.863574 1
0 0.817439 1
0 0.557849 1
0 0.903553 1
0 0.514403 1
0.132748 1 0.867252
0 0.42248 1
0 0.372698 1
0 0.790489 1
0 0.682832 1
0 0.800746 1
0 0.791438 1
0 0.348479 1
0 0.784178 1
0 0.894252 1
0 0.387352 1
0 0.126655 1
0 0.75419 1
0.09662 1 0.90338
0 0.568657 1
0.109249 1 0.890751
0 0.375261 1
0 0.516428 1
0 0.463189 1
0 0.830043 1
0.256072 1 0.743928
0.399081 1 0.600919
0 0.667379 1
0 0.379601 1
0 0.147316 1
0 0.513867 1
0 0.372294 1
0 0.895917 1
0 0.440434 1
0 0.51251 1
0 0.591164 1
0 0.504875 1
0 0.652247 1
0 0.288106 1
0 0.497829 1
0 0.908696 1
0 0.896301 1
0.203182 1 0.796818
0 0.965795 1
0.952256 1 0.0477442
0 0.940024 1
0 0.225469 1
0 0.557776 1
0 0.715784 1
0 0.800191 1
0.590258 1 0.409742
0 0.618155 1
0 0.83457 1
0 0.561346 1
0 0.546701 1
0 0.297559 1
0 0.666741 1
0 0.948439 1
0 0.432692 1
0 0.964775 1
0 0.550984 1
0.627213 1 0.372787
0.787471 1 0.212529
0 0.841378 1
0 0.29973 1
0 0.371825 1
0 0.621861 1
0 0.781663 1
0.177536 1 0.822464
0 0.703784 1
0 0.48301 1
0 0.771868 1
0 0.819987 1
0 0.4115 1
0 0.809146 1
0 0.427125 1
0 0.86858 1
0.326181 1 0.673819
0 0.36968 1
0 0.392433 1
0.026795 1 0.973205
0.351588 1 0.648412
0 0.868568 1
0 0.523451 1
0 0.824075 1
0 0.639546 1
0 0.456671 1
0 0.611343 1
0.0509962 1 0.949004
0 0.859188 1
0 0.600972 1
0 0.796847 1
0 0.902798 1
0 0.673261 1
0.584962 1 0.415038
0 0.937599 1
0 0.704518 1
0 0.606435 1
0 0.992151 1
0 0.547963 1
0.232415 1 0.767585
0 0.819079 1
0 0.654293 1
0 0.537953 1
0 0.810911 1
0 0.412712 1
0 0.226464 1
0 0.481152 1
0 0.965738 1
0 0.964125 1
0 0.414779 1
0 0.661271 1
0 0.683162 1
0.101776 1 0.898224
0.31967 1 0.68033
0.432048 1 0.567952
0 0.495685 1
0 0.791262 1
0.0370204 1 0.96298
0 0.799095 1
0.179614 1 0.820386
0 0.15718 1
0 0.917932 1
0 0.433275 1
0 0.230718 1
0 0.381261 1
0 0.79817 1
0 0.210654 1
0.0903743 1 0.909626
0 0.763722 1
0 0.374677 1
0 0.516862 1
0 0.564144 1
0 0.896638 1
0 0.309064 1
0 0.774625 1
0 0.788444 1
0 0.246418 1
0 0.928815 1
0 0.0988845 1
0 0.967666 1
0 0.705639 1
0 0.273583 1
0.00897664 1 0.991023
0 0.4152 1
0 0.604966 1
0 0.0783454 1
0 0.381733 1
0 0.820741 1
0 0.229479 1
0 0.10447 1
0 0.517603 1
0 0.725517 1
0 0.388346 1
0 0.677239 1
0 0.325668 1
0 0.750146 1
0 0.529813 1
0 0.357596 1
0 0.737118 1
0 0.274614 1
0 0.903655 1
0 0.384127 1
0 0.569867 1
0 0.421058 1
0 0.714929 1
0 0.603834 1
1 5.96046e-08 0
0 0.382073 1
0 0.710785 1
0 0.343809 1
0 0.560831 1
0 0.515536 1
0 0.342731 1
0.103148 1 0.896852
0 0.61778 1
0.424173 1 0.575827
0 0.558598 1
0 0.475628 1
