# vtk DataFile Version 3.0
Particle simulation
ASCII
DATASET POLYDATA
POINTS 400 float
9.6831 1.672 9.76828
4.27144 6.97442 8.36372
0.691224 1.04997 5.45493
2.50481 0.299476 1.83411
9.20988 1.10348 3.03702
5.80643 7.158 6.1419
8.81139 0 1.12657
7.9145 4.34854 1.28721
7.71044 8.0894 5.49645
5.00752 0.692254 6.00403
8.50326 3.16973 1.25892
6.15536 0.24365 3.62963
10 6.04257 9.94807
8.03928 0.156779 1.5354
4.4774 2.02151 0.386364
8.09441 4.93218 8.61451
1.12238 6.42709 0.18428
3.23623 0.456632 1.71378
1.27204 2.03931 0.680509
2.92694 0.958628 6.64037
2.25854 0.339338 1.32173
8.97532 0.264476 7.53151
9.16113 3.19027 9.98103
3.42713 1.40033 2.41853
7.14173 3.93063 4.07708
3.5336 0.118248 1.30608
3.8323 6.62381 7.21995
1.60861 0 1.16297
8.61221 1.25271 7.36872
4.97863 0.826539 0.560268
7.23859 7.59418 8.64382
5.9859 3.1946 7.97442
8.89445 0.826827 7.84438
5.18335 0.882884 0.281899
4.85377 0.632024 2.60334
1.20918 2.45986 0.787921
3.45439 8.09676 3.749
3.4176 0.624495 1.92492
5.62524 0.415321 1.51907
1.38968 2.32573 3.68303
4.14042 0.556084 4.00204
9.63253 1.02468 5.72269
8.39683 5.17563 8.63529
0.335435 4.17155 9.41152
7.38505 0.998659 6.35426
6.0073 0.140523 1.47374
4.70548 0.424438 6.66588
2.98346 0.40567 2.42291
6.50717 0.555739 1.8142
5.35177 4.37886 2.20558
0.852833 3.56189 2.73604
7.58241 9.2977 5.99092
9.96989 0.667535 7.8885
5.14935 0.74103 5.80495
9.28708 0.451462 8.00702
6.55941 0.285947 2.09374
7.51934 0.764275 8.06176
1.04184 0.482681 4.93459
5.87266 0.108011 1.72879
8.01236 8.8486 1.34504
9.50599 6.30741 2.95719
5.96182 1.02427 9.2324
2.34309 0.038165 3.67943
5.02505 0.449283 5.81778
6.29925 7.84485 4.18518
3.21834 0.345579 1.4353
6.68624 0.758075 8.06049
0.817956 3.89798 2.89207
6.29162 0.30448 1.90339
4.83252 0.574581 9.12576
7.38934 0.494202 8.03521
3.22348 0.629411 1.449
4.93074 8.23615 4.33401
4.83498 0.565004 5.90834
8.48203 0.217194 7.95555
7.25426 0.838728 4.69422
6.54379 0.726839 8.07908
5.30441 0.592601 9.21496
7.68347 2.29803 1.73809
1.05324 7.11125 9.63867
3.80952 0.489366 1.72985
3.62605 0.773577 2.35646
3.70585 0 2.80141
1.98514 0.675069 2.0636
5.40373 0.675625 9.34776
5.8643 0.535843 9.01958
6.32827 1.3487 8.98173
6.88412 1.92837 0.929852
8.30746 3.68207 1.71362
9.32059 0.34885 2.26511
3.57209 0.240368 2.09339
3.64134 0.347367 2.4964
0.914972 1.2598 7.81759
1.91954 0.389356 1.89496
5.41241 0.684673 9.27713
5.34352 0.818775 9.12054
6.33656 0.510633 8.39666
0.343811 0.450821 2.14813
8.38606 0.243335 7.73874
9.31947 0.353868 2.23427
3.67283 1.15253 1.75216
4.51125 1.51425 1.69961
0.652718 2.5407 1.03972
9.73329 0.165305 9.6932
7.24466 7.8896 1.13049
3.40305 0.468416 1.74772
4.64843 0.773745 8.4675
6.44821 0.288372 2.19889
6.28993 0.25168 1.94224
9.03936 0.371019 1.87521
6.64757 7.52802 9.51025
4.7349 0.67596 5.8353
2.0122 0.532012 2.36422
9.57162 0.267478 1.88786
3.4491 0.603557 1.5407
1.8216 0.0604714 3.46158
5.78005 0.632537 8.59095
6.28011 0.319315 2.44245
6.35408 0.328312 1.93928
5.63585 1.36346 3.96229
3.39654 0.913396 2.047
4.73102 6.64279 2.26003
7.55763 7.93055 8.9602
8.87253 0.513141 4.49666
8.53065 0.117053 8.01255
2.75274 0.507252 2.21694
3.27814 0.25776 1.09197
5.02793 0.816208 5.91811
9.82813 2.55642 3.08949
0.483202 2.26438 7.18471
3.43148 1.08067 2.43177
6.90158 2.12874 1.4239
5.10433 0.741142 8.75907
7.02546 0.865851 6.40321
9.48727 0.399575 1.1122
2.387 0.244025 1.16438
9.18792 8.8367 1.80584
4.98563 0.449306 5.92023
3.88866 1.65964 9.39522
9.57302 0.417056 8.27577
3.46347 0.197259 1.85233
5.61677 0.843279 8.34918
2.54476 2.73338 7.48348
5.65101 1.28163 3.96511
3.60752 0.838919 2.22712
1.87773 0.206297 1.64314
7.19853 0.809593 6.50989
0.952709 4.07937 1.22426
1.92771 0.35148 1.39877
4.24938 0.0285612 0.532109
3.47421 0.189391 1.84943
8.30064 0.543209 6.89498
4.45542 2.41507 0.374343
4.61783 0.66746 8.35426
3.95804 4.26177 0.38238
5.09076 1.072 1.77031
8.31535 0.562651 7.25947
3.75701 0.88981 1.85079
6.85938 0.444342 6.80202
2.05027 0.37277 2.07742
0.258513 2.5197 1.12514
0.748981 1.2278 5.61117
5.72294 0.990252 9.04011
3.77364 0.540855 1.47442
0.770705 3.47958 2.95308
9.54059 0.20727 8.17084
5.163 0.807918 8.4057
5.71557 0.891999 8.86009
6.22596 4.51849 6.2487
5.76637 7.25496 10
3.8653 0.845658 1.71423
3.2121 0.754191 1.45106
5.51303 0.117362 3.1699
3.32822 0.560881 2.08912
1.97224 0.650161 1.12346
0.985625 2.29362 0.295936
5.51671 0.766667 8.85237
5.09222 0.517774 8.77389
5.50711 0.657039 9.32404
4.15276 2.78915 9.56135
1.94882 0.661214 2.07119
3.09891 0.104485 2.73179
9.72632 5.24745 7.88953
3.50911 0.461196 2.79513
5.90743 0.86101 8.97814
3.65313 0.309071 2.12656
2.4683 0.2847 1.77928
0.802159 1.11158 7.61854
6.9671 0.563822 6.73111
2.17357 0.251298 1.82231
1.97003 0.603021 2.07758
2.40791 0.27658 1.23803
5.1874 0.568251 8.72177
2.1119 3.81624 4.31007
1.01214 7.09831 9.86654
2.20904 0.264538 1.74904
2.01703 0.596632 2.3896
6.55233 5.41352 8.55301
2.30448 0.135281 1.41254
3.64667 0.968319 2.13497
3.63392 0.653668 2.20077
6.36304 0.144152 1.63567
7.32131 0.893059 6.29735
4.66391 0.849167 8.43856
7.36782 3.09864 4.04224
5.4809 0.170367 8.71578
3.06986 0.427972 2.46804
0.816474 0.463317 5.27012
1.11774 0.496466 4.9111
9.03183 0.30084 2.21145
2.33986 0.331073 1.63632
5.96512 0.195225 2.10813
5.17695 0.646736 9.31542
9.31727 0.336495 7.95312
4.47878 0.979843 6.15464
5.53932 0.433161 8.69688
3.05643 0.448773 2.44635
3.97138 0.88963 1.47362
2.36931 0.22451 0.706744
9.3531 0.310929 2.27663
2.24758 2.96343 6.68457
6.1993 0.761094 8.58989
4.51963 0.590193 8.53654
3.68304 0.639831 1.80315
5.78575 0.489269 8.33187
3.52191 0.478124 1.65941
0.682349 2.54057 1.10963
2.11208 0.0608739 1.48444
2.5623 0.454983 1.58922
5.89993 0.910197 8.58589
5.29404 0.607883 5.93526
5.94306 0.853985 8.48616
7.33706 0.978573 6.32509
3.109 0.337131 1.71768
5.78787 0.470401 8.38884
3.15166 1.17589 1.84026
7.19577 0.612192 6.93634
2.54878 0.6349 1.80334
2.51221 0.174479 1.26424
1.17669 0.575152 4.79359
1.97301 0.575665 2.20596
4.01941 0.1834 1.92619
3.44602 1.1843 2.13117
1.88204 0.28938 2.32233
6.42625 0.800484 8.62196
2.73141 0.308891 2.84729
2.39964 0.658011 2.31953
3.98704 0.659758 8.63961
6.71474 0.596267 1.95007
5.48088 0.502153 8.58356
3.17802 0.207596 1.45764
4.24965 0.123291 0.0461764
5.29898 0.397258 8.64761
3.32407 0.762243 1.61578
6.5004 0.628264 6.62702
3.40859 0.173795 1.67572
8.70446 0.024274 1.72466
4.22898 0.901212 8.31699
6.20547 0.388773 1.99593
5.44243 0.537289 8.64021
2.01959 0.574146 1.52606
3.08491 9.10194 6.02321
4.62892 0.929942 8.47935
6.22696 2.45367 1.18916
5.57904 0.347755 8.5861
0.795834 3.91988 9.77887
4.47199 0.745925 0.494426
5.63577 0.649642 8.15608
6.75088 0.714213 6.73341
3.31197 0.606992 1.62342
3.33659 0.464518 2.15123
3.92919 2.26284 3.78201
5.03886 0.766773 2.17816
4.22601 0.312979 0.762843
5.17278 0.424448 8.583
4.36527 0.637579 8.6268
4.49062 0.685821 6.29575
4.46234 8.93765 6.96965
6.63161 0.609023 6.91878
1.90329 0.675361 1.94728
8.80742 0.121037 1.94237
6.18189 0.539682 2.06252
6.33544 1.66779 1.37159
4.30935 0.557903 6.16477
5.99736 0.669588 3.80613
6.68618 0.609302 6.56156
3.68073 0.754159 1.87513
2.1556 0.676586 2.39141
9.75161 0.530638 8.21866
9.7779 5.88564 2.41393
7.69759 0.524146 1.21359
6.3491 0.30461 1.7684
2.47774 0.286951 1.52512
5.07418 0.507586 5.96979
5.47147 0.394215 8.69007
5.8226 0.442531 7.95746
2.80752 0.282639 2.58625
3.43211 0.273448 1.83928
4.3685 0.278937 0.951978
3.01887 0.390895 1.68283
9.01047 0.237554 2.02589
9.18196 0.38843 8.00857
1.87208 0.265625 3.67932
5.82079 0.115917 1.45716
3.14553 0.131632 1.31924
2.47741 1.13713 2.81469
1.88115 0.945414 1.57172
2.31147 0.362208 1.37823
1.88456 0.354161 3.68756
2.79943 0.201263 1.77396
7.08489 0.272345 7.28684
8.25704 0.63138 6.91746
7.06981 0.955354 6.1737
2.07876 0.282556 1.93727
3.44052 0.841951 1.93792
6.49995 0.536849 8.80131
1.68123 0.630899 1.70473
5.60311 0.683028 2.15327
6.3974 0.0959057 1.89458
3.48908 0.992772 1.78629
6.13822 0.471994 8.58369
3.09831 0.0874666 1.1875
6.0706 0.549521 8.66178
2.28395 0.0486447 1.09137
9.28534 0.591601 2.0736
9.1774 0.379234 2.40881
1.84004 0.672201 1.73938
6.06464 0.298769 1.49384
9.0493 0.216059 1.4233
2.02292 0.474684 2.42442
6.02147 0.279903 8.22151
3.03389 0.591711 2.31329
5.90805 0.300723 8.65626
3.54417 0.473681 1.77433
9.60425 0.0806507 1.63096
4.56581 0.547857 8.01635
5.28172 1.02645 1.83384
1.98858 0.801626 1.68209
9.43417 0.391737 1.78978
3.59569 0.967351 1.77305
6.21464 0.334769 8.34724
3.91504 0.177358 2.05706
5.65559 0.22002 8.36527
4.43462 0.475865 8.28494
3.74411 0.433127 1.88769
3.47817 0.707254 1.84431
6.6848 0.321538 1.83933
2.03183 0.655578 1.32497
3.51236 0.683001 1.78603
3.88264 0.685276 1.93181
3.15043 0 1.12175
3.45305 0.822044 1.97083
5.74051 0.107245 8.1984
4.40498 0.495299 8.32149
1.92529 0.718664 1.2666
1.83565 0.575871 2.33471
6.79192 0.460039 1.52351
4.86707 0.547164 8.80535
3.26764 0.450632 2.56872
3.53752 0.678897 1.30326
6.34022 0.2882 1.71819
6.55293 0.529615 7.89497
5.36746 0.561685 9.23298
1.96807 0.516434 1.99375
3.23227 0.276824 1.93569
6.7807 0.659191 6.47608
5.69039 0.695594 8.72241
4.939 0.428048 9.0499
5.40336 0.723131 8.55793
2.52836 0.472617 1.96562
6.37147 0.175483 1.70887
8.2268 0.542527 6.77817
5.20433 0.551562 8.5868
2.19826 0.644758 1.5059
3.47349 0.872479 2.30906
7.15739 0.8256 6.25417
5.36403 0.349012 8.50216
5.65848 0.89566 8.84477
5.53773 0.36985 8.68589
3.73331 0.807146 1.70543
2.41875 0.339949 1.53272
2.00188 0.726711 1.97373
5.74208 0.357611 8.61383
3.12927 0.398759 1.44373
4.96565 0.537286 5.79261
5.40402 0.351018 8.84075
3.05347 0.499085 1.6798
3.49481 0.627829 1.63201
5.49151 0.450895 5.6416
5.89213 0.24306 2.01266
2.3752 0.315338 1.45426
2.09427 0.57491 2.07155
5.39288 0.658258 8.87751
3.19836 0.386618 1.63378
4.98941 0.500281 5.71502
5.58509 0.325368 8.62874
3.09037 0.53715 1.76344
3.22776 0.31288 1.53989
8.52949 0.596997 1.88828
5.88725 0.268094 1.99826
POINT_DATA 400
SCALARS particleColor float 3
LOOKUP_TABLE default
0 0.340996 1
1 5.96046e-08 0
0 0.884435 1
0 0.363324 1
0 0.164192 1
1 0.813271 0
0 0.867119 1
0 0.648204 1
0.221768 1 0.778232
0 0.671655 1
0 0.0495263 1
0.106465 1 0.893535
0.0171618 1 0.982838
0.151962 1 0.848038
0 0.866588 1
0 0.933931 1
0 0.238075 1
0 0.686339 1
0.814212 1 0.185788
0.526139 1 0.473861
0 0.748688 1
0.471093 1 0.528907
0.0303657 1 0.969634
0 0.928763 1
1 0.0484943 0
0 0.725265 1
0.92468 1 0.0753199
0 0.47488 1
0 0.555664 1
0.384483 1 0.615517
0.420703 1 0.579297
0.604513 1 0.395487
0 0.111064 1
0.0846434 1 0.915357
0 0.67887 1
0 0.857563 1
1 5.96046e-08 0
0 0.430218 1
0 0.555836 1
0 0.398172 1
0 0.745813 1
0.0131934 1 0.986807
0.340653 1 0.659347
0.340894 1 0.659106
0 0.89139 1
0 0.340163 1
0 0.287116 1
0 0.515096 1
0 0.380084 1
1 0.279499 0
0 0.241296 1
0 0.226712 1
0 0.228265 1
0 0.770965 1
0 0.622409 1
0 0.51878 1
0.0533043 1 0.946696
0.161544 1 0.838456
0 0.617979 1
1 0.738944 0
1 5.96046e-08 0
0 0.681056 1
0 0.502492 1
0 0.982284 1
0 0.822067 1
0.119742 1 0.880258
0 0.530692 1
0 0.65079 1
0 0.760137 1
0 0.686261 1
0.189118 1 0.810882
0 0.520028 1
1 5.96046e-08 0
0 0.421732 1
0.00788669 1 0.992113
0 0.393019 1
0 0.734671 1
0 0.570417 1
0 0.695195 1
0.673125 1 0.326875
0 0.386379 1
0 0.420418 1
0 0.75844 1
0 0.458277 1
0 0.935193 1
0 0.5566 1
0 0.436415 1
0 0.509027 1
0.143545 1 0.856455
0 0.333312 1
0 0.54953 1
0 0.366983 1
0 0.550405 1
0 0.391521 1
0 0.607611 1
0 0.68056 1
0 0.402573 1
0.0632787 1 0.936721
0 0.754743 1
0 0.558189 1
0 0.659072 1
0.121208 1 0.878792
0 0.633481 1
0 0.475771 1
0.933195 1 0.0668047
0 0.150106 1
0 0.310492 1
0 0.859857 1
0 0.223048 1
0 0.757167 1
1 0.608489 0
0.201287 1 0.798713
0.0203328 1 0.979667
0 0.504056 1
0 0.343038 1
0 0.679216 1
0 0.289789 1
0 0.459481 1
0 0.28605 1
0.31235 1 0.68765
0 0.258798 1
1 0.220024 0
0 0.631033 1
0.0631721 1 0.936828
0.0179655 1 0.982035
0 0.537125 1
0 0.158072 1
0 0.686758 1
1 0.21778 0
0.307524 1 0.692476
0 0.436288 1
0.217801 1 0.782199
0 0.648506 1
0 0.164277 1
0.544082 1 0.455918
0 0.706148 1
0.3651 1 0.6349
0 0.62524 1
0 0.532844 1
0 0.549636 1
0 0.561252 1
0 0.927363 1
0.824563 1 0.175437
0 0.744848 1
0 0.604107 1
0 0.447833 1
0 0.582087 1
0 0.465685 1
0 0.664876 1
0.359608 1 0.640392
0 0.46398 1
0 0.6053 1
0.0347076 1 0.965292
0 0.641475 1
0 0.115793 1
0 0.617709 1
0 0.187937 1
0 0.46827 1
0 0.286352 1
0 0.0621818 1
0 0.772194 1
0 0.497029 1
0 0.244803 1
0 0.440049 1
0 0.67861 1
0 0.305289 1
0 0.663029 1
0 0.456602 1
0 0.344503 1
1 5.96046e-08 0
0 0.63703 1
0 0.81385 1
0.13479 1 0.86521
0 0.88778 1
0 0.725566 1
0 0.497933 1
0 0.408955 1
0 0.833359 1
0 0.915644 1
0 0.796367 1
0 0.483255 1
0 0.63243 1
0 0.841904 1
0 0.856474 1
0 0.526327 1
0 0.528127 1
0 0.91487 1
0 0.652675 1
0.108445 1 0.891555
0 0.586356 1
0 0.327251 1
0 0.415758 1
0 0.962521 1
0 0.305414 1
0.615159 1 0.384841
0 0.556474 1
0 0.560878 1
0 0.416153 1
0 0.492173 1
0 0.946013 1
0 0.22668 1
0 0.366267 1
0 0.692665 1
0 0.933433 1
0.338597 1 0.661403
0 0.611827 1
0 0.338789 1
0.0186843 1 0.981316
0 0.804882 1
0 0.549722 1
0 0.46045 1
0 0.335688 1
0 0.99372 1
0 0.535919 1
0.077049 1 0.922951
0 0.748424 1
0 0.202838 1
0 0.454582 1
0.225028 1 0.774972
0 0.708079 1
0 0.841757 1
0.123166 1 0.876834
0 0.501831 1
0 0.55553 1
0 0.258676 1
0 0.566217 1
0.490158 1 0.509842
0 0.482176 1
0 0.303695 1
0.180546 1 0.819454
0 0.639913 1
0 0.618211 1
0 0.635029 1
0 0.319704 1
0 0.982732 1
0 0.834544 1
0 0.871196 1
0 0.376663 1
0 0.597544 1
0 0.155003 1
0.0871529 1 0.912847
0 0.829324 1
0 0.132984 1
0 0.279006 1
0 0.607154 1
0 0.691014 1
0 0.93196 1
0 0.707952 1
0 0.734151 1
0 0.402237 1
0 0.225963 1
0.0816282 1 0.918372
0 0.404745 1
0.0685844 1 0.931416
0 0.906329 1
0 0.248681 1
0 0.551914 1
0 0.126466 1
0 0.495909 1
0 0.550833 1
0 0.375124 1
0 0.997961 1
0 0.791806 1
0 0.41367 1
0 0.730164 1
0 0.441688 1
0 0.736264 1
0 0.505936 1
0 0.562855 1
0 0.496425 1
0 0.422817 1
0.612218 1 0.387782
0 0.56942 1
0.290227 1 0.709773
0 0.586137 1
0 0.484544 1
0 0.517047 1
0 0.287134 1
0 0.80661 1
0 0.447284 1
0 0.29843 1
0 0.494895 1
0 0.449799 1
0 0.56428 1
0 0.689904 1
0 0.974179 1
0 0.345725 1
0 0.984696 1
0 0.526638 1
0.00915527 1 0.990845
0.0204603 1 0.97954
0 0.870626 1
0 0.678071 1
0 0.900249 1
0 0.714764 1
0 0.384053 1
0 0.771396 1
0 0.700103 1
0 0.481774 1
0 0.754607 1
0 0.273965 1
0 0.855312 1
0 0.997692 1
0 0.392964 1
0 0.848196 1
0.254323 1 0.745677
0 0.913245 1
0 0.306341 1
0 0.484126 1
0 0.408647 1
0.188091 1 0.811909
0 0.655444 1
0 0.504154 1
0 0.682367 1
0.0939924 1 0.906008
0.0998596 1 0.90014
0 0.990953 1
0 0.834891 1
0 0.380657 1
0 0.625381 1
0 0.837703 1
0 0.989364 1
0 0.393719 1
0 0.685538 1
0 0.403812 1
0 0.617756 1
0 0.542121 1
0 0.77938 1
0 0.449418 1
0 0.389214 1
0 0.942836 1
0 0.23671 1
0 0.516168 1
0 0.422468 1
0 0.626291 1
0 0.957063 1
0.222836 1 0.777164
0 0.468936 1
0.438948 1 0.561052
0 0.948329 1
0 0.778862 1
0 0.890173 1
0 0.648295 1
0 0.287687 1
0 0.102312 1
0 0.404221 1
0 0.675202 1
0 0.0992876 1
0 0.167652 1
0.0904835 1 0.909516
0 0.662568 1
0 0.842322 1
0 0.679725 1
0 0.501294 1
0 0.54708 1
0 0.502578 1
0 0.558663 1
0 0.921779 1
0 0.511357 1
0 0.2448 1
0 0.710516 1
0 0.65236 1
0 0.396041 1
0.0605102 1 0.93949
0.0661206 1 0.933879
0 0.430632 1
0 0.428496 1
0 0.91999 1
0 0.56161 1
0 0.973369 1
0 0.777865 1
0 0.344186 1
0 0.558681 1
0 0.872064 1
0 0.948633 1
0 0.463087 1
0 0.496099 1
0 0.402917 1
0.0940089 1 0.905991
0 0.549084 1
0 0.710302 1
0 0.404343 1
0 0.554927 1
0 0.596137 1
0 0.637788 1
0 0.721627 1
0 0.498905 1
0 0.752333 1
0.0394951 1 0.960505
0 0.990048 1
0 0.713591 1
0 0.374767 1
0 0.715679 1
0 0.832068 1
0 0.595265 1
0.160416 1 0.839584
0 0.681034 1
0 0.973278 1
0 0.768782 1
0 0.842112 1
