# vtk DataFile Version 3.0
Particle simulation
ASCII
DATASET POLYDATA
POINTS 400 float
6.85161 7.7029 9.17955
2.65044 6.83635 3.47573
8.10926 4.54355 7.4726
9.29897 6.34609 5.23033
7.49072 6.23369 1.46243
9.55319 7.371 4.45251
0.998328 9.83171 7.62253
9.22769 6.12346 7.02814
3.09435 9.81837 8.21457
7.37726 9.6214 7.23341
5.3527 0.586502 5.67108
3.70992 1.97093 9.87846
0.183728 3.80319 9.22401
7.04602 9.90163 1.33147
6.70755 10 9.70654
7.66015 9.49326 8.36521
9.40531 9.24695 8.89342
3.17534 0.220443 1.86412
1.95266 2.6321 3.45924
8.89968 2.10353 7.38297
3.19344 0.271102 1.82624
4.66925 6.25507 9.66282
1.83172 7.41898 1.95143
2.24075 1.87368 0.460244
4.19645 0.663485 2.7039
9.51353 7.38456 2.55452
9.24529 6.63617 10
2.99492 5.33465 8.29681
4.22926 9.36384 0.424326
1.74158 1.74222 0.412285
6.81844 2.68541 0.924448
6.16085 8.66146 0.429604
3.97985 1.03861 5.89288
5.17737 7.61198 0.558571
8.27185 3.67655 3.02664
8.97096 2.03815 7.54709
2.87269 9.71878 2.55235
2.95042 0.328149 1.78006
8.03688 1.89492 3.37532
8.7537 5.75603 1.42746
5.7499 6.88117 6.66796
1.56413 6.30099 0.705068
2.40019 4.77201 5.95663
0.307518 3.0912 1.87732
6.76742 0.499296 2.02955
3.28276 9.80058 7.82789
5.19474 5.32245 6.06211
7.00917 7.05162 3.34618
10 0.882003 1.0048
9.29649 0.639612 8.63631
8.89163 10 1.77305
3.04576 5.8747 4.99171
9.30925 9.24393 3.11438
3.25234 2.71905 4.19069
8.72382 3.60615 2.20688
3.69922 1.0736 5.55231
1.33218 1.71437 2.4442
6.49534 5.07066 2.65498
0.478072 4.787 5.81241
4.37783 7.59703 2.47029
4.64135 8.89034 8.57512
2.74585 4.40773 8.09437
8.06371 2.263 3.07005
9.74397 6.32418 4.0307
4.48612 3.35021 7.27
4.44142 3.03531 4.46463
7.25179 0.908517 4.89314
9.95873 0.371351 0.36758
5.87355 5.64805 5.18709
5.39864 6.04703 8.85047
1.837 4.72869 4.44855
3.97108 6.03971 3.68759
9.12985 1.17404 4.56517
5.85164 2.01904 7.59723
10 9.43021 7.51725
4.41881 6.8037 4.43147
1.32123 2.51637 4.4557
4.12514 7.33896 4.78229
2.04946 4.81477 1.71914
4.08445 0.0359687 9.3025
3.15709 0.683167 1.77047
0.380732 0.443435 0.74813
1.26878 1.46243 7.99175
0.729221 2.57549 1.23028
7.59447 0.733817 9.69929
3.11851 5.52875 3.2478
2.71114 8.04107 6.86642
8.85367 7.87775 6.72777
4.39555 1.63971 3.37526
7.99671 10 6.8689
3.5714 0.269878 1.65813
1.17191 9.26215 6.82167
1.59141 4.54409 9.21614
0.762285 2.56695 2.81232
2.71608 7.67955 7.08605
5.74522 2.06736 5.82288
0.862667 0.575043 1.23598
3.10188 8.38449 7.90796
7.7251 7.98158 2.28918
3.32614 8.36976 8.19889
3.33885 0.0910305 2.58588
0.835311 5.19887 9.15812
6.33543 2.2418 2.31847
8.01845 3.07313 5.39077
1.98529 4.14254 3.15327
1.40809 3.99611 0.116698
7.69283 3.53606 2.29709
2.43578 8.67728 2.93353
5.56476 9.7835 9.01674
0.501173 5.12755 8.81739
0.773406 2.19401 9.0249
2.73547 1.35045 1.72959
6.45001 1.08909 0.183967
2.23069 8.07647 6.54305
1.61302 0.22812 0.898393
2.43225 6.72437 1.73047
1.81013 0.660295 9.11341
9.65806 6.99016 3.71387
6.30434 2.9275 1.62223
8.80852 0.258171 9.59352
8.71763 7.45586 8.65718
9.46867 6.78033 6.6243
0 3.33967 1.06173
3.04586 5.31921 4.97577
8.09033 7.03572 4.8234
3.43722 0.356528 2.90247
0.730787 0.0868272 7.3376
3.92464 5.23905 8.37994
1.70025 2.23819 0.480344
2.85331 7.51852 5.8622
6.70788 9.82208 5.3475
0.81402 6.04539 5.23204
2.54565 5.66223 4.7586
0 2.5109 0.409678
0.190457 2.0629 9.19655
2.68002 4.23845 1.08371
9.49261 1.13147 9.94354
4.88069 3.48217 7.92785
2.08677 0.919863 8.94251
5.13092 9.62889 1.28309
3.43779 0.310095 1.1856
8.98553 7.64611 4.87917
8.83693 2.70996 9.7063
7.84001 4.82171 4.9172
1.63649 0.0786417 0.731384
4.86255 1.41884 0.943501
8.97681 3.26711 9.45967
3.03798 9.5591 1.459
2.10641 2.56632 4.0942
9.2137 2.1089 4.07456
3.71901 0.242694 1.70675
2.73676 6.89072 3.47407
0.579636 3.35067 8.82018
3.30584 0.189952 1.78878
8.3818 3.03638 8.37987
5.90421 0.870305 4.87025
4.26511 7.55868 2.53911
3.05953 0.720724 4.99425
9.86234 9.95306 6.05679
6.74781 1.29962 0.592611
0.627312 7.1934 9.11063
8.63372 4.56025 6.92434
6.77543 9.19505 2.8105
7.14129 5.45343 7.04975
0.278513 2.68059 1.6885
8.5027 7.90312 6.94702
5.46685 8.47296 6.29253
7.2449 8.37831 2.48513
9.47016 4.5849 7.89159
7.55167 3.23935 4.95294
3.23964 0.136378 1.93734
6.79667 9.44077 8.80424
0.802621 3.07857 3.54259
5.58038 1.02713 4.70612
2.68668 2.64691 5.63729
5.04696 9.55677 7.04204
0.3687 2.28258 1.08319
8.23513 8.45626 8.70736
5.47625 4.40684 8.66108
4.2793 5.70226 7.84596
3.62165 0.530338 1.52235
6.75893 8.92345 0.297631
5.13248 8.29559 5.74446
3.29367 9.1108 4.46099
10 4.48439 3.87289
1.28038 7.04089 6.49024
3.7187 0.174854 1.72658
1.50911 6.80417 7.70242
3.90331 0.334634 1.7454
1.58119 0.456796 0.852292
3.43671 0.225786 1.44799
3.32446 0.549934 2.01834
9.92731 4.17319 7.74008
7.7811 4.72845 2.76181
7.68313 3.94893 9.86021
3.65834 0.6809 1.24562
5.66691 1.36956 9.43423
0.694314 8.80824 5.68728
3.06436 0.0740137 1.43308
3.20657 0.440936 1.52842
3.24106 0.517679 1.99933
8.33216 4.92863 6.07378
10 4.52302 4.82743
8.77208 3.75477 3.53924
0.351108 7.51653 6.76774
3.96708 1.75581 6.92827
3.58034 0.340945 2.16644
2.10266 0.0383892 5.66143
2.33645 0.669225 8.70165
3.03814 2.40879 0.173282
3.55104 0.230908 1.77337
3.19844 0.345852 1.80429
8.25679 2.43358 6.00672
3.43094 5.77026 10
4.70462 4.59119 4.33815
4.36393 0.929625 8.66874
3.31123 0.3034 2.0377
4.43403 1.42456 3.46094
2.96384 6.14471 0.424953
5.41427 2.54868 1.89015
7.30846 3.19641 0.270317
3.2433 3.2873 6.29746
4.78904 4.35014 1.31623
3.23371 0 2.33842
9.89988 6.51551 3.6618
9.31166 8.52247 3.79188
8.86219 8.71686 0.18025
3.78401 0.157583 2.25399
3.19507 0.297676 1.98761
7.66126 2.28117 1.84426
3.55235 3.74399 6.29378
5.57328 2.86255 5.39627
9.53082 1.57118 4.32587
3.3026 0.634758 2.56518
1.7231 0.357259 9.05214
8.96164 8.40762 0.268975
0.292751 7.6094 0.503332
9.76659 6.85876 9.82498
3.56247 0.294629 1.46885
6.34572 3.65832 1.78296
3.01669 0.496259 1.73012
4.06169 0.440205 1.80833
2.99712 0.444334 1.99078
3.02444 0.370859 1.99616
4.89995 2.45555 8.45143
3.97563 5.62451 8.5033
5.47096 6.3869 1.40221
7.73838 2.73736 0.150328
3.096 8.9279 4.29102
1.92441 8.69046 6.52008
4.07079 0.709856 1.34579
5.62105 5.37822 7.79412
0.73391 0.923598 7.0624
1.50962 3.28734 6.7591
9.57729 0.0907531 5.72806
3.37738 0.108327 1.1471
5.20911 8.13997 0.601501
2.00602 0.713467 8.7873
1.35149 5.06993 8.50852
1.85308 0.466775 8.97928
3.07767 0.119946 1.18197
8.11852 4.04027 7.81978
9.90136 1.17517 7.10394
1.66681 0.224746 2.17341
0.575848 1.55623 8.04074
7.81195 1.30103 0.88795
6.85836 0.924221 1.68122
1.97424 0.710632 9.0752
0.894024 5.43345 5.70712
3.05851 0.446076 1.40199
2.56374 0.130215 1.8584
9.73479 4.32018 7.99218
6.4686 3.63501 0
2.32558 0.340554 7.43357
7.0269 0.497836 1.92753
1.80545 1.03642 6.99305
8.96436 7.13158 2.22686
9.94195 6.81546 0
7.4719 3.24613 9.30792
3.24867 0.37786 1.75741
2.01092 0.111259 5.38221
7.56483 0.300749 0.580187
2.62868 6.38264 4.89924
4.19795 0.425104 9.26108
5.81705 6.23079 9.84529
3.13906 6.35372 8.50422
3.53317 0.168993 1.81409
2.10088 0.926223 3.89181
5.00373 2.49069 8.00507
1.96922 1.15601 9.85099
2.43031 9.24473 6.63992
8.44506 2.0662 3.40477
3.60097 0.324549 2.3129
3.32558 0.662778 4.10358
0.991559 1.2277 7.86351
1.9004 0.721528 9.58661
3.36037 0.469993 2.03255
3.44184 0.637413 2.06123
3.76591 0.671135 2.45171
3.06342 0.325722 1.89994
1.64709 1.14597 0.524003
8.8027 4.40792 3.32295
5.75466 0.195325 5.39763
0.304513 9.16619 3.83509
3.72012 0.544452 1.65809
2.75761 0.256126 4.78832
3.33644 0.468171 2.20311
3.1673 0.545986 1.81305
1.34248 1.21768 3.87367
8.80891 6.96746 2.34136
2.27924 0.838653 6.68149
9.50382 4.63636 6.73386
3.97683 7.85032 4.69816
3.21535 0.121247 1.73323
7.448 0.817581 7.98201
3.89144 1.01947 3.42701
3.10988 1.0856 4.2937
1.66476 7.50532 7.13611
5.89936 1.14901 3.46939
1.96426 9.30742 1.38558
1.97524 0.408598 9.37869
0.578086 7.83396 9.56258
2.0096 0.77079 8.74032
3.47477 0.28168 1.63225
2.06101 0.000540104 5.23961
9.74953 3.48722 0.39066
3.40526 0.559177 2.58856
3.59136 7.47093 2.65853
5.65396 0 4.60597
3.17092 0.223762 1.4647
0.321591 0.660687 4.53859
3.4041 0.56561 1.82058
3.32448 1.00891 9.73176
3.0506 0.476105 1.71567
7.44128 0.224522 0.708306
3.66571 2.68787 1.29761
1.1619 4.61995 8.59571
3.0944 0.50045 1.64905
0.082204 5.5904 6.40636
7.61067 6.74884 6.92812
7.75187 4.0062 4.90442
8.75383 7.94476 7.11338
3.3624 0.857878 9.65394
1.90524 0.383896 8.96096
3.30196 0.533092 1.5175
3.44253 0.37045 1.20699
7.64222 0.426845 0.516875
3.09663 0.134336 1.3486
3.70055 0.194785 1.97736
6.46805 7.64 8.25567
3.29305 0.39475 2.31107
3.33158 0.106259 1.75828
0.399865 3.55054 3.07115
1.81541 0.298245 9.43263
3.43672 0.267687 1.46956
3.31542 0.114213 1.32871
3.09979 0.72942 4.32595
3.31554 0.75995 9.61709
4.01586 0.640204 1.34373
3.23688 0.152818 1.84665
7.49065 0.273578 0.559721
1.83319 0.459288 9.08257
1.73784 0.639506 8.79755
3.13341 0.569577 1.12374
2.81544 0.539153 2.04686
7.93548 0.531277 0.792695
2.0919 0.354834 8.78277
5.65107 9.26809 0.918558
1.5892 0.661668 9.17258
4.26196 2.19811 8.5133
7.43846 0.267389 0.521814
1.18725 0.274698 7.11533
0.835708 0.585602 7.66081
2.93814 0.349244 1.39331
3.72995 0.561896 1.72661
7.60193 0.460705 0.716124
2.11433 0.526702 8.36481
1.79342 0.30327 9.27991
4.14004 0.557328 8.8131
3.08161 0.549368 1.33938
3.52092 0.145872 1.55121
2.99802 0.330192 2.09306
4.23049 0.695419 8.83835
2.76461 0.519241 1.77661
5.79383 0.457598 3.89724
2.16754 0.471413 9.01558
3.34501 0.552398 1.84
3.21091 0.242257 1.50843
6.23236 3.21111 0.634326
8.71255 0.24179 2.40764
3.2455 0.461846 1.91486
3.26657 0.412907 2.00966
1.59446 0.568228 8.70673
3.43055 0.235336 2.04264
3.22715 1.29477 4.0114
1.97495 0.67714 8.67821
3.36936 0.489156 1.94419
1.58353 0.541309 9.1015
6.40582 1.01397 1.90761
7.26309 0.0544169 0.46389
POINT_DATA 400
SCALARS particleColor float 3
LOOKUP_TABLE default
1 5.96046e-08 0
0.290128 1 0.709872
0.0355096 1 0.96449
1 0.706279 0
1 5.96046e-08 0
0.114469 1 0.885531
1 0.635745 0
1 5.96046e-08 0
1 0.707311 0
1 5.96046e-08 0
0.452289 1 0.547711
1 0.543378 0
1 0.687304 0
1 0.977469 0
1 0.80424 0
0.667236 1 0.332764
1 0.996999 0
0 0.647563 1
0.903705 1 0.0962951
1 5.96046e-08 0
0 0.660413 1
1 5.96046e-08 0
1 5.96046e-08 0
0.970569 1 0.0294313
1 0.159116 0
0 0.799405 1
0 0.840453 1
0.811715 1 0.188285
0.994314 1 0.0056861
0.290567 1 0.709433
1 5.96046e-08 0
0.250485 1 0.749515
1 5.96046e-08 0
0.907793 1 0.0922073
1 5.96046e-08 0
1 5.96046e-08 0
0.470768 1 0.529232
0 0.654437 1
0.56711 1 0.43289
1 5.96046e-08 0
1 0.945642 0
1 5.96046e-08 0
0.875598 1 0.124402
0.533539 1 0.466461
0 0.828947 1
1 5.96046e-08 0
0.679081 1 0.320919
1 5.96046e-08 0
1 0.611215 0
0.684221 1 0.315779
1 0.512835 0
1 5.96046e-08 0
0.237435 1 0.762565
1 5.96046e-08 0
1 5.96046e-08 0
0.230808 1 0.769192
0.285107 1 0.714893
0.590478 1 0.409522
1 5.96046e-08 0
1 0.699052 0
1 5.96046e-08 0
1 5.96046e-08 0
1 0.0124059 0
1 0.499837 0
1 0.432086 0
1 5.96046e-08 0
0.234272 1 0.765728
1 5.96046e-08 0
1 0.64893 0
1 5.96046e-08 0
1 5.96046e-08 0
1 0.781018 0
1 5.96046e-08 0
0 0.710474 1
1 5.96046e-08 0
1 5.96046e-08 0
1 5.96046e-08 0
1 5.96046e-08 0
0 0.721857 1
1 0.566682 0
0 0.530156 1
1 0.99545 0
0.330388 1 0.669612
1 5.96046e-08 0
0.268035 1 0.731965
1 0.673963 0
1 5.96046e-08 0
0.55786 1 0.44214
1 0.898829 0
1 5.96046e-08 0
0 0.668376 1
1 0.992929 0
1 0.151714 0
1 5.96046e-08 0
1 0.349291 0
0.726866 1 0.273134
0.629669 1 0.370331
0 0.809608 1
1 0.939502 0
1 0.468296 0
0 0.66926 1
0.032049 1 0.967951
0.260915 1 0.739085
1 0.936825 0
1 5.96046e-08 0
1 0.540878 0
0.967291 1 0.0327092
0 0.945543 1
1 0.883756 0
1 0.768636 0
0.739223 1 0.260777
1 0.614081 0
1 5.96046e-08 0
1 5.96046e-08 0
0 0.726618 1
1 0.692259 0
0 0.684106 1
1 5.96046e-08 0
0.024858 1 0.975142
0.980969 1 0.0190309
1 5.96046e-08 0
1 0.251762 0
1 5.96046e-08 0
0.411683 1 0.588317
0.491254 1 0.508746
0 0.141644 1
0.735513 1 0.264487
0.315386 1 0.684614
0.452915 1 0.547085
1 0.972318 0
1 5.96046e-08 0
1 0.162054 0
1 5.96046e-08 0
0.65302 1 0.34698
0.807795 1 0.192205
0.439859 1 0.560141
0 0.811455 1
0 0.572405 1
0.574286 1 0.425714
1 0.409148 0
0 0.846067 1
0.54213 1 0.45787
1 5.96046e-08 0
1 5.96046e-08 0
0 0.936123 1
0.332491 1 0.667509
0.546308 1 0.453692
1 0.773334 0
1 0.756328 0
1 5.96046e-08 0
0 0.384745 1
1 5.96046e-08 0
1 5.96046e-08 0
0 0.870226 1
1 5.96046e-08 0
0.175118 1 0.824882
0.162182 1 0.837818
1 0.983675 0
1 5.96046e-08 0
1 5.96046e-08 0
1 5.96046e-08 0
0 0.761402 1
1 5.96046e-08 0
1 5.96046e-08 0
0.222547 1 0.777453
1 5.96046e-08 0
0 0.170562 1
0.300738 1 0.699262
1 0.918672 0
1 0.394002 0
0 0.608216 1
1 5.96046e-08 0
0 0.852864 1
0.508542 1 0.491458
0 0.660732 1
1 0.0508181 0
0.17175 1 0.82825
0.66107 1 0.33893
1 0.255684 0
1 5.96046e-08 0
0 0.563683 1
0.884058 1 0.115942
0 0.943405 1
1 5.96046e-08 0
1 5.96046e-08 0
1 0.00474429 0
0 0.704243 1
0.497228 1 0.502772
0.0449712 1 0.955029
0.0111965 1 0.988804
0 0.730702 1
0 0.810573 1
0 0.934746 1
1 5.96046e-08 0
1 0.540884 0
0 0.467211 1
1 0.209363 0
1 0.757581 0
0.0832447 1 0.916755
0 0.739923 1
0 0.686945 1
1 0.906256 0
1 5.96046e-08 0
0 0.253164 1
1 5.96046e-08 0
0.388449 1 0.611551
0 0.622243 1
1 0.675766 0
1 0.733189 0
1 5.96046e-08 0
0 0.670855 1
0 0.721788 1
1 5.96046e-08 0
1 5.96046e-08 0
0.183117 1 0.816883
0 0.690162 1
0 0.86047 1
0.618819 1 0.381181
0.0799899 1 0.92001
0 0.164632 1
1 5.96046e-08 0
0.0543382 1 0.945662
1 0.896668 0
0 0.646137 1
0.00191051 1 0.998089
1 5.96046e-08 0
0.855381 1 0.144619
0 0.560261 1
0 0.641893 1
1 5.96046e-08 0
1 5.96046e-08 0
1 5.96046e-08 0
1 5.96046e-08 0
0 0.346567 1
0 0.86638 1
0.139135 1 0.860865
1 5.96046e-08 0
1 5.96046e-08 0
0 0.36915 1
1 5.96046e-08 0
0 0.554548 1
0 0.834563 1
0 0.824142 1
0 0.63318 1
1 5.96046e-08 0
0.0149439 1 0.985056
1 5.96046e-08 0
0 0.724919 1
1 5.96046e-08 0
0.398705 1 0.601295
0.0363776 1 0.963622
1 5.96046e-08 0
0.516569 1 0.483431
1 5.96046e-08 0
1 5.96046e-08 0
0 0.495315 1
1 0.90609 0
0 0.590387 1
0.334582 1 0.665418
0 0.70665 1
0 0.585366 1
1 0.0714729 0
1 0.420961 0
0.00615066 1 0.993849
0 0.68275 1
1 5.96046e-08 0
0 0.593612 1
0 0.442159 1
0.608154 1 0.391846
0 0.866693 1
0 0.335687 1
0.0518221 1 0.948178
1 5.96046e-08 0
1 5.96046e-08 0
0.0789727 1 0.921027
0.893662 1 0.106338
0 0.884852 1
1 5.96046e-08 0
1 5.96046e-08 0
0 0.400361 1
0 0.999944 1
0 0.867638 1
1 0.0292937 0
0.208822 1 0.791178
1 0.522491 0
1 0.033281 0
0 0.60217 1
1 0.129312 0
1 5.96046e-08 0
1 5.96046e-08 0
0.956305 1 0.0436953
1 5.96046e-08 0
0 0.573873 1
0.25384 1 0.74616
0.222048 1 0.777952
0 0.442159 1
0 0.338708 1
0 0.695753 1
0.870148 1 0.129852
0 0.693888 1
1 5.96046e-08 0
0 0.7774 1
0.462295 1 0.537705
0.986369 1 0.0136312
0 0.665816 1
0 0.707772 1
0 0.156925 1
0 0.844489 1
0.489761 1 0.510239
0 0.898451 1
1 0.669298 0
1 0.0733137 0
1 0.890509 0
0 0.423024 1
1 0.368648 0
0.508456 1 0.491544
0.0122299 1 0.98777
0.467377 1 0.532623
0.314804 1 0.685196
0.058649 1 0.941351
0 0.616173 1
1 5.96046e-08 0
0 0.436111 1
0 0.98843 1
0 0.885512 1
1 5.96046e-08 0
0 0.58038 1
1 0.768646 0
1 0.202137 0
0 0.517406 1
0.370371 1 0.629629
0.0746711 1 0.925329
0 0.836181 1
0.240493 1 0.759507
0 0.810101 1
1 0.549345 0
0 0.526992 1
0 0.227867 1
0.649946 1 0.350054
1 0.81241 0
0.70092 1 0.29908
0.431823 1 0.568177
0 0.635145 1
0 0.67198 1
0 0.243382 1
0 0.607864 1
0 0.782959 1
0 0.514173 1
0 0.467243 1
0.124648 1 0.875352
0 0.90209 1
0 0.448193 1
0.457611 1 0.542389
0 0.942393 1
0 0.913417 1
0 0.763002 1
0 0.844379 1
0.160422 1 0.839578
0 0.510553 1
0 0.732115 1
0 0.501017 1
0 0.423081 1
0 0.30275 1
0 0.416515 1
0 0.653517 1
0 0.725564 1
0 0.72949 1
0.680779 1 0.319221
0 0.05423 1
1 5.96046e-08 0
0 0.898008 1
1 0.708049 0
0 0.571476 1
0 0.650166 1
0 0.580351 1
0.00337805 1 0.996622
0 0.523065 1
0.0577033 1 0.942297
0 0.458469 1
0 0.587123 1
0 0.732356 1
0 0.689288 1
0 0.0729514 1
0 0.255893 1
1 0.97365 0
0 0.616155 1
0 0.410526 1
0 0.36943 1
1 0.945995 0
0.167758 1 0.832242
0.121113 1 0.878887
0 0.883145 1
0.0595281 1 0.940472
0 0.521188 1
0 0.658892 1
0 0.588279 1
0 0.492639 1
1 0.546888 0
0 0.14578 1
0 0.44637 1
