# vtk DataFile Version 3.0
Particle simulation
ASCII
DATASET POLYDATA
POINTS 400 float
7.1228 7.34049 7.80904
0.354775 6.3558 5.78095
0.317568 7.78953 5.48334
9.77073 1.93495 4.26926
9.2975 5.26653 6.09328
9.66009 9.57109 0.505046
8.85673 1.48453 8.49853
6.15987 5.0347 1.41238
4.35853 5.18527 1.9242
0.693353 0.804141 9.01505
1.20412 5.9489 3.34237
8.91369 9.59802 0.0194936
8.89462 5.12521 6.84498
7.66702 2.58141 7.24899
7.26975 1.24025 7.48065
4.34042 8.38028 5.16054
4.21229 6.66634 5.49673
4.2016 0.323034 3.17774
4.71355 4.24229 7.13493
2.9429 1.84668 3.58225
4.39911 0.607826 3.09044
3.9143 10 8.09922
6.79458 2.04427 0
8.88388 1.01484 9.05582
2.29578 8.86029 1.46207
2.66084 1.88838 6.8186
0.0287291 1.62589 9.66733
5.38893 1.25645 8.76279
7.46457 1.04247 8.90991
3.78354 2.5226 9.36245
0.900246 9.72761 4.09813
9.81015 7.06952 1.09658
10 7.79594 1.66519
5.54359 5.56583 2.42356
6.90262 7.72141 5.92161
6.20349 4.20714 5.81107
6.90626 7.07146 0.555605
5.17175 0.335549 3.58104
2.04597 7.47464 8.86286
6.8299 0.0994049 8.94359
1.73801 3.08674 0.0872347
8.60669 2.80283 7.44668
9.22375 4.31115 5.09685
0 2.08932 0.622083
5.40071 2.39391 8.75351
1.87172 3.29308 1.13333
0.299102 7.85388 0.633027
7.20754 7.58117 7.4582
5.10931 4.09292 4.48782
4.45677 1.90852 9.31469
9.18819 2.57538 0.537655
6.97534 0.971028 5.48235
9.52509 5.68275 9.22178
1.67361 7.77543 8.72276
0.551322 0.302456 3.75183
2.49334 1.57545 6.96103
2.28307 9.05678 1.50696
0 1.51914 9.46221
8.30144 5.22867 8.88257
1.01934 1.78153 3.63026
2.56407 1.89548 4.05132
6.67914 9.16597 3.17996
4.11582 3.36104 7.45614
1.81316 1.04008 8.66311
1.02767 2.38121 8.54686
0.290124 0.430375 3.07193
1.60143 4.46389 2.74621
0.0234834 2.0103 1.40947
0.297124 8.36005 9.67212
4.56039 4.79771 7.30324
1.64002 10 3.00826
3.32291 3.99653 5.34839
9.48009 3.46556 6.28813
8.17781 4.49725 1.18964
9.81899 3.42569 5.7531
8.94812 1.6817 4.31379
10 0.705292 6.27818
8.21961 9.31456 2.05212
9.00481 4.37238 4.65669
3.72393 1.35858 0.842997
4.36227 0.0122021 3.17894
0.686032 3.47401 3.51308
7.81417 3.40697 4.9465
7.79389 6.08421 3.84989
7.58223 8.76303 3.71981
7.41354 7.46622 1.75948
3.65569 5.05589 0.888306
1.22287 0.618954 9.03999
1.11642 9.80504 9.69543
5.99129 8.94174 4.52813
4.41478 0.66958 2.48894
6.77459 4.53083 0.9006
8.34209 1.44764 4.68528
7.01474 6.27442 4.41068
5.81036 5.82376 8.90691
1.68539 2.9784 1.23214
4.28413 2.61575 4.16728
7.15856 5.34709 8.0353
5.99113 4.88233 9.78
9.12815 9.02978 6.41033
4.05869 5.70893 10
7.10713 7.8616 0.664047
4.30108 6.87793 5.91192
0 6.0461 7.21123
1.82209 7.43525 5.74467
8.23046 1.19105 4.65219
0.326134 9.17147 6.96221
1.25569 1.55996 7.87651
5.72319 7.77101 9.11181
8.87954 2.2132 8.9623
6.19089 4.97173 1.32844
6.31606 2.93879 10
5.9223 1.09508 6.16694
8.5524 8.2096 8.38423
2.78648 0.151178 2.51679
2.52737 7.40276 5.8799
1.08763 0.77583 8.65771
9.8313 0.887336 4.7561
0.157928 1.60255 6.76372
3.57962 2.89271 1.4722
0 2.77578 6.35631
7.54506 2.09883 0
4.0368 8.0969 3.32863
3.54242 0.663455 0.421675
9.89921 6.39982 4.35438
2.54985 3.03116 2.24886
7.12263 0.309758 2.85731
5.62611 3.24501 9.35912
5.9649 1.9343 5.67313
3.98974 7.66439 0.48811
8.92537 5.23318 9.0909
8.67589 3.81762 4.56868
1.55841 2.59939 8.12159
9.65744 1.12762 1.94488
2.9745 2.93077 4.83957
1.50091 9.55977 8.61737
2.03033 5.07205 9.49549
6.79414 3.02357 4.9491
8.9932 4.06558 0
9.51452 4.97258 0.839256
4.32006 0.647489 2.59054
4.33821 6.08763 9.02192
0.992502 2.34212 6.25504
7.41546 4.07337 4.1123
3.38571 7.81819 0.453572
4.94315 1.65243 7.76239
3.62521 9.46066 0.57879
9.87623 4.68742 5.40251
7.67596 2.58683 8.52561
6.94027 5.82748 2.67803
4.00646 0.493439 2.75333
8.03811 6.55273 1.97469
8.47651 0 9.74312
4.55242 0.602419 2.06005
9.54799 0.848644 4.07824
7.66093 9.09629 6.19679
9.93604 9.14113 5.56837
8.54046 4.59817 5.75844
2.41898 7.04795 8.98029
5.9706 4.64522 6.26074
9.38729 3.27767 8.99718
0.279585 1.41441 6.28931
6.20117 3.48636 5.85182
2.64327 3.49368 4.04148
6.20146 1.6111 0.121335
3.48986 1.07071 8.1681
5.42413 2.58821 9.91564
1.62738 8.54479 1.01445
0.399717 4.14026 9.85296
5.57032 2.36718 4.38749
3.6282 0.427911 3.02299
0.83181 3.5688 2.041
6.01418 6.0206 6.9002
4.86104 6.28364 6.84513
3.18142 6.78972 5.7667
0.555572 4.76011 7.40736
2.63041 8.47716 0.949093
0.292085 3.33604 0.870454
9.0519 3.9756 5.1002
3.63051 9.24967 2.51662
3.52562 0.975534 3.04484
2.43697 2.32596 1.38839
0.462221 9.89794 4.691
6.74997 3.57175 1.3188
4.56172 6.24198 6.33603
7.90542 0.656409 1.74728
4.29636 0.503612 2.38877
7.13588 3.98588 4.26479
2.7467 0.328324 2.36684
2.61716 0.164123 2.1265
4.27246 0.674215 2.09409
4.25509 0.838204 1.96904
5.31766 5.81426 0.924726
2.56249 3.55777 6.994
5.96183 2.11213 9.14063
6.99074 2.26869 3.09719
6.01239 3.56949 9.68199
2.35058 1.23429 8.96159
5.6667 0.132076 1.91132
4.12133 0.372366 2.3673
4.09955 0.595515 2.59528
4.58782 1.05019 3.30071
2.30883 2.41841 8.39163
6.89241 10 8.49141
5.37846 8.94406 4.69322
1.21874 9.63369 3.76909
8.95357 2.57908 8.67212
2.51673 3.69753 6.57514
3.29239 6.80978 5.95809
2.11359 9.02242 7.74025
3.98779 0.267728 2.41527
4.13813 0.45899 3.18838
2.40518 2.57239 1.493
5.00356 7.05985 7.24218
3.48292 9.27891 5.22898
8.12641 7.51569 5.48937
4.36357 0.58028 3.35252
5.15138 3.03359 6.46137
0.917823 3.2566 2.02522
4.56795 8.16249 6.24722
9.25895 2.55023 1.74715
3.03074 8.81162 2.14728
2.43804 4.13681 1.8886
4.1537 0.424346 2.83572
5.4933 6.84916 9.79473
3.67399 0.733539 3.11998
2.30048 5.71406 8.99209
4.20181 0.541367 2.79563
4.07593 0.607136 2.78273
6.53551 5.17005 1.59992
4.05294 5.59532 9.81662
1.4758 8.03802 1.23773
4.55743 1.53124 0.197649
3.79673 0.595079 3.19098
0.966991 0.863107 8.14022
7.41862 3.722 3.64196
2.4077 5.1103 9.15134
3.048 5.50473 8.35191
4.3645 0.453974 2.29835
1.8361 4.97267 9.50635
3.9298 0.56401 2.76408
5.02122 0.221792 3.38203
4.69802 2.18405 1.40193
3.58155 0.115399 3.32545
4.89255 9.78286 2.53249
9.18342 6.04183 4.13444
7.76378 6.51729 3.49144
3.13767 4.40221 0.218798
3.25604 9.59005 3.47233
1.22876 0.174764 2.25842
3.66518 0.319032 2.0488
8.26123 0.213566 8.55241
3.16939 0.27133 5.22113
7.00431 4.23368 6.00146
0.503983 0.764863 9.54636
0.800752 0.33588 3.599
7.21236 8.72329 6.03695
1.04405 0.661539 8.11303
1.82829 7.96753 8.51242
0.727009 0.835181 8.18252
0.135532 4.63771 6.18697
6.29364 5.97872 7.5566
0.592787 0.422745 8.78946
10 2.50742 6.91633
4.10111 8.4625 9.1416
8.77625 7.5528 8.07739
1.77158 8.00072 0.821905
1.50578 0.513345 8.02622
8.49068 8.42194 8.44275
2.74238 2.12147 0.256077
4.46576 0.302167 3.61157
8.90241 2.39709 7.20158
9.0743 4.18528 6.86288
6.30773 3.05851 8.97132
9.81538 1.65587 2.66185
9.73903 8.20447 2.05797
5.55579 2.14035 5.47324
8.70621 5.44302 6.00851
1.14323 1.50877 7.81891
4.34862 0.640953 2.73839
6.04335 7.18351 8.77711
8.82025 0.492772 1.0272
0.832178 6.05784 7.49705
2.8891 2.57399 1.55675
6.54697 5.61317 7.92892
0.171892 7.14445 5.07998
4.45046 0.540008 3.02756
1.03327 1.59262 4.60819
8.11446 1.08487 0
10 0.608377 5.82156
5.81183 2.13393 10
7.99348 6.33113 1.31395
3.97127 0.339077 3.65609
9.2212 7.30044 5.41004
0.795244 2.22892 3.57581
1.06368 0.623927 8.30149
4.26122 0.848282 2.60525
4.0735 0.338486 2.60688
3.58764 0.148492 3.69629
4.33588 0.407443 2.76997
5.9262 2.10137 2.2279
3.79524 8.36427 8.36203
4.43246 0.75187 2.60521
5.27577 5.31265 1.06622
4.28848 0.276798 3.29748
4.27897 2.76663 7.46077
4.53059 0.642502 2.96834
4.3012 0.405304 2.63125
0.244041 3.17827 6.35671
9.09074 4.91404 5.9452
9.89729 7.76722 9.87543
2.99705 1.39798 6.92421
1.4568 4.48914 3.10307
4.19508 0.724583 3.12234
0 3.89599 5.98807
0.518418 9.48861 8.26762
5.43203 3.91683 0.873985
0 2.85086 6.1701
1.25271 2.27666 8.17212
7.97887 3.16456 0.423424
1.03292 0.524069 8.29062
6.21411 5.57453 6.41694
1.40051 0.843223 8.22775
4.01003 0.493853 3.02381
1.08323 0.702569 3.33603
8.58428 1.83461 7.10095
3.87654 0.0732679 2.48955
4.01167 9.45807 0.699287
0.780034 6.47238 8.74796
4.02807 0.50195 3.067
2.22859 8.40383 0.935137
0.0672227 4.43359 0
1.76736 2.04193 5.16121
0.68675 1.76621 0.838201
9.28917 0.763694 1.05702
2.07597 4.04567 2.41099
6.38798 0.83818 5.96006
3.94384 0.687866 3.04473
0.691636 3.7755 9.59564
6.64558 7.99799 5.97376
9.75142 5.62441 9.59666
1.89049 0.725285 2.48919
0.535844 4.46334 7.12581
1.00295 0.732942 8.39649
3.86998 0.584035 3.19718
4.27357 0.238729 3.41582
9.01617 0.340004 0.912489
3.7931 0.499243 2.73355
3.44608 0.399022 2.47371
9.8259 0.700365 6.86181
4.13124 0.658279 3.10477
4.155 0.713645 2.73356
1.1459 8.49305 1.74961
8.38261 6.71967 5.05592
2.90589 0.234209 2.19317
4.04137 0.548435 2.83102
3.84914 3.17961 3.58506
3.53827 9.29843 8.49651
3.62876 0.0728237 2.73456
4.38975 0.251238 2.74504
9.11509 0.373865 1.04444
1.04926 0.803462 8.51681
0.880378 0.780909 8.15374
4.57533 0.366439 2.22877
3.96026 0.713124 2.63817
9.2012 0.246638 1.17681
1.20174 0.90316 8.11455
2.36538 2.14122 0.359992
1.07533 0.635087 8.38372
9.3089 0.503422 1.84885
9.28084 0.703932 0.758637
1.5204 0.77407 5.38649
5.13439 6.24388 9.33188
3.76947 0.37567 2.78077
4.04753 0.774175 3.00886
9.1106 0.803499 1.25204
1.15657 1.06337 8.49495
1.21071 0.431735 8.89143
2.23662 2.54018 9.12806
3.77889 0.652921 3.25992
4.18478 0.346253 3.02058
4.3427 0.693932 2.9181
2.25185 2.30373 9.72481
4.12402 0.721178 2.85163
8.01309 2.91375 5.90312
1.12837 0.920319 8.19617
3.92605 0.545997 3.05905
4.34427 0.559425 2.86536
4.43443 5.25761 4.43915
0.708108 0.525871 7.88187
4.32429 0.260221 2.57635
4.18739 0.453674 2.78548
0.655698 0.508895 8.52704
4.0732 0.697818 2.47019
2.71952 3.22104 2.72327
0.913902 0.380103 8.16942
3.93698 0.607864 3.06404
0.0802393 10 2.10039
1.41191 1.63311 5.73181
8.50288 0.322071 1.16281
POINT_DATA 400
SCALARS particleColor float 3
LOOKUP_TABLE default
1 5.96046e-08 0
0.0369904 1 0.96301
0.415074 1 0.584926
1 5.96046e-08 0
0.89996 1 0.10004
1 5.96046e-08 0
0.484296 1 0.515704
1 5.96046e-08 0
0.754589 1 0.245411
0.750075 1 0.249925
0.0571666 1 0.942833
1 5.96046e-08 0
1 5.96046e-08 0
1 0.916095 0
1 5.96046e-08 0
1 5.96046e-08 0
1 5.96046e-08 0
0 0.259908 1
1 0.619058 0
1 5.96046e-08 0
0 0.441555 1
1 5.96046e-08 0
1 5.96046e-08 0
1 5.96046e-08 0
1 0.43921 0
1 5.96046e-08 0
0.456056 1 0.543944
1 5.96046e-08 0
0.416141 1 0.583859
0.244616 1 0.755384
0.970684 1 0.0293161
1 5.96046e-08 0
0.811298 1 0.188702
1 5.96046e-08 0
1 0.544354 0
1 5.96046e-08 0
1 5.96046e-08 0
0 0.319816 1
1 5.96046e-08 0
1 0.113649 0
1 0.460675 0
1 0.156311 0
1 0.574783 0
1 0.749171 0
1 5.96046e-08 0
1 5.96046e-08 0
1 0.136343 0
1 5.96046e-08 0
1 0.362499 0
1 5.96046e-08 0
1 5.96046e-08 0
1 0.819638 0
1 5.96046e-08 0
1 5.96046e-08 0
1 0.768199 0
0 0.849902 1
0 0.859098 1
0.17372 1 0.82628
0.423657 1 0.576343
1 5.96046e-08 0
1 5.96046e-08 0
0.563486 1 0.436514
0.512887 1 0.487113
1 0.994003 0
1 0.676882 0
1 5.96046e-08 0
0.636424 1 0.363576
0.929815 1 0.0701846
0.534498 1 0.465502
0 0.825475 1
1 5.96046e-08 0
0.965572 1 0.0344284
0.409875 1 0.590125
0.590206 1 0.409794
0.555106 1 0.444894
1 5.96046e-08 0
0.895232 1 0.104768
1 5.96046e-08 0
1 0.660207 0
1 5.96046e-08 0
0 0.471507 1
1 0.779938 0
0.644284 1 0.355716
1 5.96046e-08 0
0.157388 1 0.842612
1 0.54192 0
1 0.852027 0
1 0.99883 0
0.00539142 1 0.994609
1 0.512643 0
0 0.514814 1
1 0.90573 0
1 5.96046e-08 0
1 5.96046e-08 0
0.405227 1 0.594773
1 5.96046e-08 0
1 5.96046e-08 0
1 5.96046e-08 0
0.24071 1 0.75929
1 5.96046e-08 0
1 5.96046e-08 0
0.203239 1 0.796761
1 5.96046e-08 0
0.607851 1 0.392149
1 5.96046e-08 0
1 0.363706 0
1 5.96046e-08 0
1 0.80746 0
1 5.96046e-08 0
1 5.96046e-08 0
1 0.303762 0
1 5.96046e-08 0
1 0.990764 0
1 5.96046e-08 0
0 0.49874 1
1 5.96046e-08 0
0 0.661101 1
1 0.435279 0
0.248014 1 0.751986
0 0.864303 1
1 5.96046e-08 0
1 5.96046e-08 0
1 0.778397 0
1 5.96046e-08 0
0.140192 1 0.859808
0 0.787838 1
0.823341 1 0.176659
1 5.96046e-08 0
0.998468 1 0.00153166
0.602799 1 0.397201
1 5.96046e-08 0
1 0.453637 0
1 0.478593 0
1 5.96046e-08 0
1 5.96046e-08 0
1 5.96046e-08 0
1 5.96046e-08 0
1 0.837436 0
1 0.0421164 0
0 0.830183 1
0 0.832716 1
1 5.96046e-08 0
1 5.96046e-08 0
1 5.96046e-08 0
0.991255 1 0.00874472
0.838159 1 0.161841
0.938511 1 0.0614894
0.262128 1 0.737872
1 5.96046e-08 0
1 5.96046e-08 0
0 0.389636 1
1 0.208031 0
0.117613 1 0.882387
0 0.153916 1
1 5.96046e-08 0
1 0.0926288 0
1 0.20878 0
1 0.928575 0
1 5.96046e-08 0
1 0.312725 0
1 5.96046e-08 0
1 0.980957 0
1 5.96046e-08 0
1 5.96046e-08 0
1 0.670108 0
1 5.96046e-08 0
1 0.973949 0
1 5.96046e-08 0
0.482325 1 0.517675
1 5.96046e-08 0
0 0.597262 1
1 5.96046e-08 0
1 5.96046e-08 0
1 5.96046e-08 0
1 5.96046e-08 0
0 0.695148 1
1 0.178086 0
1 5.96046e-08 0
0.40584 1 0.59416
1 5.96046e-08 0
0 0.534126 1
1 0.370737 0
0 0.627225 1
1 5.96046e-08 0
1 0.0868652 0
1 5.96046e-08 0
0 0.140748 1
0.325243 1 0.674757
0 0.457787 1
0 0.708589 1
0 0.480176 1
0 0.63933 1
1 5.96046e-08 0
0 0.937384 1
1 0.592686 0
1 5.96046e-08 0
1 5.96046e-08 0
1 0.80943 0
0.928407 1 0.0715931
0 0.76159 1
0 0.361489 1
1 5.96046e-08 0
0.410711 1 0.589289
1 5.96046e-08 0
0.77809 1 0.22191
1 5.96046e-08 0
1 0.419984 0
1 0.954012 0
1 0.186374 0
1 0.70618 0
0 0.304018 1
0 0.712054 1
0.392904 1 0.607095
1 5.96046e-08 0
1 5.96046e-08 0
1 5.96046e-08 0
0 0.503246 1
0.424335 1 0.575665
1 0.0749599 0
1 5.96046e-08 0
1 0.866959 0
0.26497 1 0.73503
1 5.96046e-08 0
0.0762203 1 0.92378
1 5.96046e-08 0
1 0.889929 0
1 0.458433 0
0 0.745398 1
0 0.299383 1
1 0.96223 0
1 0.782781 0
0 0.929326 1
1 5.96046e-08 0
0 0.747633 1
0 0.381086 1
1 0.960752 0
0.468655 1 0.531345
0 0.992188 1
0 0.370294 1
1 0.824669 0
0 0.364125 1
0 0.666981 1
1 5.96046e-08 0
0 0.244669 1
1 0.148165 0
1 0.233715 0
0 0.576623 1
1 5.96046e-08 0
1 5.96046e-08 0
0.393308 1 0.606692
0 0.262235 1
1 5.96046e-08 0
1 5.96046e-08 0
1 5.96046e-08 0
0 0.978663 1
0.132752 1 0.867248
1 0.117745 0
0 0.47666 1
1 5.96046e-08 0
0 0.384198 1
1 0.729115 0
1 0.875221 0
0.232875 1 0.767125
1 5.96046e-08 0
1 5.96046e-08 0
1 0.730468 0
0.881175 1 0.118825
0 0.539368 1
1 0.339354 0
1 0.439882 0
0 0.588045 1
1 0.334301 0
1 5.96046e-08 0
1 0.0732368 0
0.745771 1 0.254229
0.943271 1 0.0567286
0.36613 1 0.63387
1 0.0850333 0
1 0.25128 0
0 0.247784 1
1 0.286191 0
0 0.082054 1
1 0.969801 0
1 0.219911 0
0.823796 1 0.176204
1 5.96046e-08 0
0 0.489262 1
0 0.347974 1
0.466801 1 0.533199
1 0.441828 0
1 5.96046e-08 0
1 5.96046e-08 0
0 0.972295 1
1 5.96046e-08 0
1 5.96046e-08 0
0 0.457086 1
0 0.426766 1
0 0.533524 1
0 0.458231 1
0 0.235619 1
1 5.96046e-08 0
1 5.96046e-08 0
0.0662441 1 0.933756
1 0.787065 0
0 0.95484 1
1 5.96046e-08 0
0 0.531448 1
0 0.733345 1
0.332657 1 0.667343
0 0.854074 1
0.314981 1 0.685019
1 0.551639 0
0.787596 1 0.212404
0 0.620587 1
1 5.96046e-08 0
0 0.970595 1
0 0.68818 1
1 5.96046e-08 0
1 0.329337 0
0.829513 1 0.170487
0 0.667424 1
1 5.96046e-08 0
0 0.60664 1
0 0.765071 1
0.223133 1 0.776867
0.213449 1 0.786551
0 0.657396 1
1 0.369664 0
0.0717932 1 0.928207
0 0.405115 1
1 5.96046e-08 0
0.372743 1 0.627257
0.819655 1 0.180345
0 0.984486 1
0 0.530066 1
1 0.515201 0
1 5.96046e-08 0
0 0.423417 1
0 0.837972 1
1 0.669875 0
1 0.433065 0
1 5.96046e-08 0
0 0.916351 1
0 0.577699 1
0 0.801776 1
0 0.991181 1
0 0.840103 1
0 0.751076 1
0 0.339102 1
0.867346 1 0.132654
0 0.843014 1
0 0.614303 1
1 5.96046e-08 0
0.984975 1 0.0150249
0 0.277148 1
0.229207 1 0.770793
0 0.995052 1
1 0.592869 0
0 0.784586 1
0 0.257289 1
0 0.3639 1
0 0.462496 1
0 0.287536 1
0.0490241 1 0.950976
0 0.804471 1
0.111724 1 0.888276
0 0.89939 1
0 0.541294 1
0 0.431423 1
1 0.0933273 0
0 0.972718 1
0.298909 1 0.701091
1 5.96046e-08 0
0 0.474292 1
0.236248 1 0.763752
0 0.521964 1
0 0.712261 1
0 0.318052 1
0 0.662473 1
0 0.661244 1
0 0.752518 1
0 0.453297 1
0 0.445686 1
0 0.659746 1
1 5.96046e-08 0
0 0.593831 1
0 0.660216 1
0 0.759369 1
1 5.96046e-08 0
0.917406 1 0.0825943
0.251059 1 0.748941
0 0.636863 1
0 0.863361 1
0 0.140492 1
0.665418 1 0.334582
0 0.48237 1
0 0.857624 1
0.285642 1 0.714358
0 0.652405 1
0 0.453108 1
