# vtk DataFile Version 3.0
Particle simulation
ASCII
DATASET POLYDATA
POINTS 400 float
3.67267 1.19704 3.88903
4.83074 0 1.34976
4.05339 5.71278 6.9718
5.12553 2.13067 0.117055
3.86756 1.68641 7.21136
9.02234 3.90511 9.52339
3.19779 8.73632 3.17972
3.3019 8.78856 5.47536
4.94108 1.83845 6.58806
8.97397 3.18173 7.18235
9.11301 0.0997837 9.54857
7.41592 4.50812 0.330183
9.46086 7.10697 7.76584
2.76016 9.09265 0.976447
8.79559 2.58797 4.78489
3.04996 2.00162 0.462944
4.14319 5.25099 9.72576
4.30338 0.0705251 4.47315
4.91671 6.4312 4.35305
0.584985 9.19915 0.888427
1.63093 0.594661 9.83438
6.31957 8.08045 8.05453
9.77297 6.68534 4.53297
9.794 9.0432 6.20741
8.56934 2.85638 0.910591
9.26766 4.19307 8.66189
1.59035 4.78376 0.287352
9.65935 3.2359 6.81744
4.07268 1.96015 9.11248
2.99981 1.66757 8.57943
4.66898 0.90788 8.2004
9.52892 2.85847 2.3751
8.90778 2.28679 6.50363
0.0312364 7.1645 2.05816
2.5868 0 1.79947
5.11872 9.8717 1.54842
8.28945 0.415548 8.27524
8.35897 3.54828 2.41407
8.52376 4.44267 7.68863
2.59064 9.90801 5.09064
8.07358 3.60561 2.62794
0.352381 7.75421 7.12796
1.99192 2.75009 8.3123
9.30822 1.17409 9.77394
2.44547 7.34042 9.66035
7.12075 9.31588 7.29147
1.19905 0.103596 2.74325
4.25389 5.30119 6.46962
5.72441 9.56197 9.05462
4.7898 3.50085 0.621375
4.67658 5.56671 5.16166
1.40651 2.24404 10
0.690497 1.78443 5.62661
6.81303 4.22981 6.72542
2.64739 4.47593 5.84696
4.36238 2.52985 0.29444
0.99845 6.90444 4.70199
2.67662 0.101069 4.89095
9.1229 7.80441 1.40292
5.15328 2.67275 1.49436
8.43007 2.34397 0.500022
4.4517 3.12178 1.85909
2.85435 3.7734 5.06372
9.87518 9.63547 9.75261
6.03504 4.6913 0.98355
1.84185 7.06508 6.00451
9.65599 2.19565 3.08605
8.86149 2.96304 0.464908
1.5815 7.45684 4.60591
5.07836 1.68563 9.49967
2.54885 0.0032909 2.03794
10 3.20802 0
0.446899 2.71208 3.85264
7.73595 4.80274 2.94773
2.15874 5.37717 9.77793
9.04975 8.12319 2.85224
0.623402 9.63271 6.85366
2.31523 2.07408 1.88122
4.05133 4.55162 6.54823
9.83249 9.56061 1.90337
6.44138 1.79749 1.43935
6.53493 5.29957 0
3.5397 8.57147 7.4987
9.68871 6.81527 1.80866
2.46862 7.06052 7.72274
9.43887 8.79201 3.16178
5.31205 5.04962 1.59186
9.24469 5.43994 4.26692
4.14162 1.9346 8.84894
7.47961 1.75475 7.03711
10 6.53352 1.74188
7.0252 4.44864 2.86095
8.2461 0.999223 7.27712
4.43077 8.38245 9.18777
6.35319 0.178003 4.56165
9.74735 2.06837 4.20488
0 9.80658 4.15488
3.05668 7.85661 2.11186
7.25595 3.53485 5.78592
7.903 1.38309 7.03547
3.91333 7.90331 6.72789
0.553315 4.12704 0.0382647
2.48214 2.08236 2.44443
6.63322 3.90332 5.49174
7.18483 9.22482 4.26691
5.04 8.67291 3.84189
2.39906 5.85498 2.52159
3.52498 0.925774 3.39295
3.5295 9.51749 5.29324
9.64599 1.26914 6.25496
8.09571 5.72929 3.73281
6.9754 3.67014 7.70419
0.961772 2.32112 9.1259
1.16163 9.37197 6.23696
1.7191 4.04062 7.16262
2.74879 2.07311 1.55767
0 8.2893 5.34994
6.02887 2.80522 1.61332
8.3859 0.736263 8.4279
8.66173 0.367883 8.99645
4.07418 4.44613 3.51089
6.91678 3.66691 6.41746
1.54551 0.543742 9.59502
9.3806 1.84598 9.45426
7.93992 0.438819 9.59055
2.47983 0.0889944 4.73048
8.57144 6.14183 3.60763
8.0492 9.61829 2.24453
6.07303 9.13234 8.7319
3.47201 10 0.448332
1.58031 8.79938 5.32265
3.73725 5.94873 3.5828
6.54942 2.23894 0.650148
2.89982 2.75083 2.59222
10 0.839699 1.38337
5.51988 6.53966 8.69856
4.47053 4.106 0.0575107
4.89114 8.40012 4.25169
6.71482 0.22146 7.02503
7.44109 4.27653 3.4071
5.63654 0.346606 4.69778
9.4221 0.23278 2.87787
10 2.65304 3.25406
8.23193 9.28082 9.23419
7.77541 7.64721 0
9.45344 2.0882 4.08745
7.54735 4.46936 4.00286
8.97962 0.717446 8.78253
8.37496 1.43853 9.94796
2.84291 5.57747 3.06962
5.36982 0.23244 4.54083
8.53547 8.93775 8.17227
4.52222 7.41593 5.8126
6.57946 7.93849 8.99812
1.58576 3.73829 6.11194
9.73537 9.86829 9.13223
3.25838 8.44098 2.91922
10 6.18664 4.75
6.2929 4.71813 3.82406
9.33225 3.02297 8.76466
8.75762 8.82832 9.1855
1.61904 9.66221 7.77265
8.37347 6.33911 6.98496
3.81104 8.53054 7.05208
9.66294 0.467754 3.92022
6.1797 2.34724 4.02993
3.55322 4.76306 2.54044
6.99303 7.43999 6.89844
1.32762 1.71174 4.77486
8.95642 9.11929 0.112338
0.0775731 0.732505 9.38837
4.6293 1.29744 6.78141
0.51296 6.37525 8.34989
8.1071 4.73077 0.277916
8.78535 7.25795 8.16226
1.69224 8.96329 7.83868
4.50226 4.63862 3.87774
9.69596 7.05565 7.55819
5.9276 8.47505 0
8.95976 6.54784 1.24622
9.58028 1.92453 4.50903
6.37332 1.92093 8.93422
1.96638 8.89443 4.46843
1.32144 7.23673 4.01303
8.80876 7.36211 9.86725
6.31179 4.0696 3.56562
5.20693 0.52011 4.76891
8.85345 6.03717 4.11659
7.56074 2.12225 3.0259
8.03875 0.579964 1.97558
5.80945 6.81703 6.60368
3.59944 0.606972 6.97214
8.50524 6.93064 10
2.86688 7.968 7.19611
0.593875 3.29011 6.81829
0.310139 4.60888 10
2.85752 0.738775 1.83712
2.93042 1.87592 8.80704
9.33707 1.41771 5.67144
2.28783 4.24579 5.81585
5.4041 0.425174 4.50193
4.16788 3.66128 2.2874
5.96939 7.42793 3.05664
3.69124 3.79366 9.43925
7.20087 5.90943 9.75212
7.31394 7.4032 6.87373
3.26176 9.03773 4.47265
4.26259 5.9306 3.0559
8.58204 4.55276 1.27339
4.06705 2.78754 10
5.52216 0.595663 4.66191
4.3632 0.793961 3.71881
0.149818 3.55087 0.867223
1.92911 0.447665 4.32232
1.25524 6.32643 2.52755
2.81823 6.59241 8.42751
4.7566 0.455849 4.69443
5.14235 7.96917 3.143
3.55965 3.94412 10
3.37519 9.22545 2.25834
4.61596 2.10884 0.608538
7.85701 5.66343 7.0073
5.46896 2.13233 0
4.70406 0.260733 4.66824
2.99169 8.69146 6.33147
1.20285 9.39935 5.5865
1.06643 9.09535 1.73267
4.26314 0.712315 6.02747
5.59922 0.371596 4.33528
3.11647 8.79817 5.3578
8.3688 4.50877 8.99805
4.63762 7.26168 7.02666
8.70265 0.544729 7.47476
4.27004 0.489202 6.1606
0.389913 7.40796 5.75322
8.2345 3.69357 7.03374
7.38863 3.64471 4.88604
5.32349 7.93983 9.76849
5.2156 0.412427 4.58196
7.76816 1.42604 4.63455
4.95204 0.369549 4.88809
9.34751 1.95042 3.38012
4.60086 8.51584 4.60947
5.03664 2.68607 1.38201
4.45817 5.89142 0
0.173774 10 6.14041
3.7262 4.08832 2.81489
5.53318 7.48832 4.42253
2.70746 2.59344 0.982026
2.94402 0.238934 6.4961
4.9825 0.367566 4.78741
2.04564 0.108271 1.97056
9.20392 6.95716 2.15523
0.0836153 8.82533 2.53289
2.95179 2.91789 1.49399
8.59679 1.34688 2.60579
3.53622 4.21723 0
1.90414 0.590543 8.43178
6.34631 9.8962 6.39124
7.44828 0.624845 0.827777
5.8245 9.42369 0.410956
6.35009 8.80672 1.72265
3.0195 1.15897 0.323095
8.41813 5.13586 3.35933
1.82853 3.46791 0.180699
9.83692 4.38126 0.974334
4.5453 8.15787 3.04774
9.19711 8.59626 7.43897
2.48339 9.07296 4.46842
1.46651 8.43084 0.684391
5.62378 0.272205 4.72781
5.49221 5.99186 5.19854
9.42094 7.60972 1.94094
5.20738 9.903 9.12091
5.44756 5.84605 6.25254
6.61032 3.27301 0.319809
8.13452 5.21098 3.34596
5.89712 1.60464 6.18941
8.31822 7.52736 1.77263
5.87977 0.577013 4.90275
7.75974 1.67871 5.13513
7.51684 0.598175 3.63075
6.1954 8.71276 0.536303
4.77932 6.05196 9.48485
6.85284 6.64833 5.14835
1.93543 0.683804 7.50011
4.59989 0.222078 4.60671
1.43848 0 0.891746
8.18959 6.72868 9.63698
2.97942 2.26954 9.917
3.56122 5.06543 9.63385
8.87757 4.71571 2.34624
7.0817 1.9645 0.753733
3.2276 5.5437 7.06281
5.58285 0.419634 2.0791
1.72968 0.853192 8.0712
5.51422 0.480769 4.58219
5.61472 0.400599 4.80709
5.99955 0.40469 4.90629
5.22651 0.36242 4.33871
9.65981 3.43471 8.72992
9.76694 1.8228 1.94368
5.70228 0.452999 4.50079
0.400453 0.520731 9.7638
4.70873 0.126281 4.5701
1.6845 2.90893 2.06243
5.35249 0.0324303 4.54177
5.39744 0.308546 4.57431
9.35168 7.3031 0.859466
5.62452 6.18906 5.8855
4.55068 7.94242 8.89285
8.4502 3.34903 9.70433
1.36487 4.68253 3.30397
4.46417 0.186487 4.36538
8.04197 8.03255 6.95717
6.09182 1.32784 8.60079
0.879517 4.66593 0.508101
9.49219 6.488 2.42006
9.69596 1.0129 1.61268
4.01987 8.96778 4.93528
1.21704 1.26298 8.12151
7.56548 7.08913 3.17949
1.86952 0.953011 8.24409
5.17894 0.249457 4.63968
4.99375 0.100306 5.00737
3.77198 7.46177 0.721493
5.14572 0.282341 4.93679
8.42724 3.51468 9.93372
0.865504 0.229785 9.54661
5.45545 0.444162 4.74825
0 7.79137 7.70418
1.96983 3.43459 0.333083
8.09563 2.97056 2.78019
7.94713 4.37743 9.19053
9.25443 1.39591 5.80851
4.35819 2.17932 6.51381
0.562613 1.96903 9.87681
5.27299 0.351802 4.66959
7.53961 9.96043 9.16222
1.76254 7.94785 0.764935
3.44129 0.451102 6.96054
3.24336 6.83465 8.55315
9.94122 5.43566 0.427362
1.82397 0.694831 8.28154
5.67555 0.164263 4.27639
5.52358 0.0712954 5.29188
9.49518 0.246926 5.14768
5.19798 0.413394 4.67739
5.77069 0.488428 4.35413
1.45071 3.28812 7.49681
5.64199 0.777732 4.26611
5.17212 0.426676 4.95049
3.63458 8.46441 7.86667
7.90666 4.29636 9.31052
3.95226 1.69581 8.97314
5.59042 0.529337 4.20481
5.60343 2.27882 0.266171
0.420254 6.37495 3.27316
5.54517 0.387192 4.78762
5.34221 0.163946 4.38493
9.95044 2.91577 3.37448
1.76972 0.711447 8.1158
1.74879 0.913371 8.15358
5.52152 0.185739 4.50515
5.37142 0.436899 4.61788
8.30181 2.90223 5.15574
1.85808 0.835076 8.12879
8.51332 6.76451 9.65433
1.774 0.967829 8.18133
8.65484 3.23003 7.16405
9.47865 0.368229 4.97931
7.78872 1.69228 6.24709
8.67068 4.59969 2.01864
5.01377 0.435431 4.54729
5.87768 0.298062 4.68167
9.66012 0.615255 5.16632
1.86952 0.636983 8.27967
2.00011 0.613811 8.51471
2.79702 6.36985 8.2573
6.23218 0.553105 4.4713
5.16337 0.321876 4.38938
5.45972 0.407267 4.5
8.5849 2.15322 1.1262
5.48448 0.18292 4.58032
0.541395 6.31456 3.87675
1.76165 0.823269 8.09502
5.3395 0.427373 4.82756
5.16513 0.385682 4.76698
1.30788 9.14579 8.26528
1.45609 0.801511 5.46634
5.35491 0.0907478 4.49909
5.75996 0.763451 4.19822
2.27317 0.586671 8.09271
5.68396 0.325118 4.64762
4.82182 7.41771 6.78875
1.8789 0.199994 8.81163
5.15969 0.168895 4.2366
7.63047 2.32526 0.691433
4.51676 5.69754 6.22271
4.17849 3.86213 0.0422646
POINT_DATA 400
SCALARS particleColor float 3
LOOKUP_TABLE default
0.698255 1 0.301745
1 0.07727 0
0.505005 1 0.494995
1 0.512577 0
1 0.779486 0
1 0.799632 0
1 5.96046e-08 0
0.728095 1 0.271905
1 5.96046e-08 0
1 0.760447 0
0.0471012 1 0.952899
1 0.335297 0
0.278183 1 0.721817
1 5.96046e-08 0
1 5.96046e-08 0
1 5.96046e-08 0
1 5.96046e-08 0
0 0.657932 1
1 0.897971 0
0.156666 1 0.843334
1 0.332437 0
1 5.96046e-08 0
0.729265 1 0.270735
1 0.881676 0
1 0.649379 0
1 5.96046e-08 0
1 5.96046e-08 0
1 5.96046e-08 0
0.209034 1 0.790966
0.808516 1 0.191484
1 0.216815 0
1 5.96046e-08 0
1 0.335895 0
0.563544 1 0.436456
0.958723 1 0.0412769
0.587008 1 0.412992
0 0.989558 1
0.468435 1 0.531565
0 0.494683 1
0.421367 1 0.578633
1 0.632633 0
1 0.908747 0
1 5.96046e-08 0
1 5.96046e-08 0
0 0.642174 1
1 5.96046e-08 0
1 5.96046e-08 0
1 5.96046e-08 0
0.707486 1 0.292514
1 5.96046e-08 0
1 5.96046e-08 0
1 5.96046e-08 0
1 5.96046e-08 0
1 0.116255 0
1 0.519665 0
0 0.747495 1
1 0.790842 0
0 0.77315 1
1 5.96046e-08 0
0.501685 1 0.498315
0.750089 1 0.249911
1 0.699073 0
1 5.96046e-08 0
1 5.96046e-08 0
1 5.96046e-08 0
1 0.946798 0
1 5.96046e-08 0
0 0.833563 1
0.375632 1 0.624368
1 5.96046e-08 0
1 5.96046e-08 0
1 5.96046e-08 0
1 0.281778 0
1 0.50616 0
1 0.226605 0
0.167253 1 0.832747
1 0.98847 0
1 5.96046e-08 0
0 0.894923 1
1 0.79933 0
1 0.619323 0
0.356545 1 0.643455
1 5.96046e-08 0
1 0.715017 0
1 0.813627 0
1 5.96046e-08 0
1 5.96046e-08 0
1 5.96046e-08 0
1 5.96046e-08 0
1 0.0108269 0
1 5.96046e-08 0
1 5.96046e-08 0
0.592422 1 0.407578
1 0.489062 0
0 0.658394 1
0.507083 1 0.492917
0.56506 1 0.43494
1 5.96046e-08 0
0 0.718343 1
1 0.964334 0
0.455425 1 0.544575
0.811661 1 0.188339
1 5.96046e-08 0
0.45222 1 0.54778
1 5.96046e-08 0
1 0.231777 0
1 0.00737351 0
1 0.192597 0
0.401746 1 0.598254
1 5.96046e-08 0
1 5.96046e-08 0
1 5.96046e-08 0
1 0.773252 0
1 0.86522 0
0.064539 1 0.935461
1 5.96046e-08 0
1 5.96046e-08 0
0.781778 1 0.218222
0.849694 1 0.150306
1 5.96046e-08 0
1 0.864884 0
0.642339 1 0.357661
1 0.0210705 0
1 5.96046e-08 0
1 0.119927 0
0.773264 1 0.226736
0.305676 1 0.694324
1 0.63263 0
1 5.96046e-08 0
1 0.238187 0
0.637318 1 0.362682
1 5.96046e-08 0
1 0.0159585 0
0 0.917986 1
0.798476 1 0.201524
0.484491 1 0.515509
1 5.96046e-08 0
0.360325 1 0.639675
0.202934 1 0.797065
0.677926 1 0.322074
0 0.630549 1
0.607784 1 0.392216
0.300832 1 0.699167
1 0.751491 0
1 5.96046e-08 0
1 5.96046e-08 0
0.488719 1 0.511281
0.379622 1 0.620378
0.110466 1 0.889534
1 0.373813 0
0 0.506113 1
1 0.981533 0
1 0.677275 0
0.761739 1 0.238261
1 5.96046e-08 0
1 0.540362 0
1 0.215184 0
1 0.407077 0
1 0.50278 0
1 5.96046e-08 0
0.777647 1 0.222353
1 5.96046e-08 0
1 5.96046e-08 0
0 0.833582 1
1 5.96046e-08 0
0.585181 1 0.414819
0.491962 1 0.508038
1 5.96046e-08 0
1 5.96046e-08 0
0.284671 1 0.715329
0 0.674679 1
0.953834 1 0.0461658
0 0.407664 1
1 0.0465322 0
1 5.96046e-08 0
0.632942 1 0.367058
1 0.151966 0
1 0.450487 0
1 5.96046e-08 0
1 5.96046e-08 0
0.619117 1 0.380883
0.0321677 1 0.967832
0.744501 1 0.255499
1 0.726835 0
1 5.96046e-08 0
1 5.96046e-08 0
0 0.281611 1
1 0.235479 0
1 5.96046e-08 0
1 5.96046e-08 0
0.442535 1 0.557465
1 0.212307 0
0.992829 1 0.00717062
0.909096 1 0.0909036
1 0.700361 0
1 5.96046e-08 0
0 0.577387 1
1 5.96046e-08 0
0.456736 1 0.543264
1 0.153651 0
0 0.281984 1
0.79642 1 0.20358
0.256133 1 0.743867
1 5.96046e-08 0
1 0.498156 0
0.832061 1 0.167939
1 5.96046e-08 0
1 0.937225 0
0.42477 1 0.57523
1 0.366281 0
0 0.292688 1
0 0.646654 1
0.980972 1 0.0190279
0 0.710388 1
1 0.466837 0
1 5.96046e-08 0
0 0.46208 1
1 5.96046e-08 0
1 5.96046e-08 0
0.855603 1 0.144397
1 5.96046e-08 0
1 5.96046e-08 0
1 5.96046e-08 0
0 0.63703 1
1 5.96046e-08 0
1 0.571226 0
0.659535 1 0.340465
0 0.774086 1
0 0.425614 1
1 5.96046e-08 0
0.975658 1 0.024342
0.835146 1 0.164854
0.802394 1 0.197606
0 0.929856 1
1 0.482707 0
0.0615443 1 0.938456
1 0.92204 0
1 0.234641 0
0 0.285706 1
1 0.446711 0
0 0.644161 1
0.511263 1 0.488737
1 0.119439 0
1 5.96046e-08 0
1 5.96046e-08 0
1 0.937378 0
1 5.96046e-08 0
1 5.96046e-08 0
1 5.96046e-08 0
1 0.315265 0
0 0.242472 1
0.238927 1 0.761073
1 5.96046e-08 0
1 5.96046e-08 0
1 0.0581993 0
0 0.87829 1
0.524648 1 0.475352
0 0.590566 1
0.348124 1 0.651876
0.898958 1 0.101042
1 5.96046e-08 0
0.860553 1 0.139447
1 5.96046e-08 0
1 5.96046e-08 0
1 5.96046e-08 0
1 5.96046e-08 0
1 0.627488 0
1 0.145277 0
1 0.873098 0
1 5.96046e-08 0
0 0.788112 1
1 5.96046e-08 0
0.14204 1 0.85796
1 0.729261 0
1 0.872295 0
0.379104 1 0.620896
0.706762 1 0.293238
1 0.309418 0
1 0.176114 0
0 0.459373 1
1 0.543937 0
0 0.789653 1
1 0.184095 0
1 5.96046e-08 0
1 5.96046e-08 0
1 0.220579 0
0 0.928266 1
1 5.96046e-08 0
0 0.39921 1
0 0.994704 1
1 5.96046e-08 0
1 0.690188 0
1 0.540125 0
1 5.96046e-08 0
1 5.96046e-08 0
0 0.450603 1
0 0.924612 1
0 0.688163 1
0 0.502221 1
0 0.50381 1
1 5.96046e-08 0
1 0.696122 0
0 0.984663 1
0.551672 1 0.448328
0 0.570712 1
1 5.96046e-08 0
0 0.580042 1
0 0.285404 1
1 0.432245 0
1 0.605215 0
0.574016 1 0.425984
1 0.451633 0
1 0.746801 0
0 0.616194 1
0.811045 1 0.188955
1 0.63835 0
1 5.96046e-08 0
0.922679 1 0.0773206
1 0.327235 0
1 5.96046e-08 0
0 0.606768 1
1 0.531375 0
0 0.280181 1
0 0.278817 1
0.154903 1 0.845097
0 0.725599 1
0 0.596317 1
1 5.96046e-08 0
1 5.96046e-08 0
0 0.23002 1
0 0.625503 1
1 0.302738 0
0.684637 1 0.315363
1 5.96046e-08 0
0.577612 1 0.422388
1 5.96046e-08 0
0.744932 1 0.255068
0 0.486529 1
1 5.96046e-08 0
1 5.96046e-08 0
0.937421 1 0.0625787
1 0.724136 0
1 0.581322 0
0 0.686614 1
0 0.562505 1
0 0.735286 1
0.409385 1 0.590615
0.0340772 1 0.965923
0.011121 1 0.988879
0.91143 1 0.0885704
0 0.400172 1
0 0.91492 1
0.472327 1 0.527673
0.594014 1 0.405986
0 0.94769 1
0 0.385395 1
1 0.794345 0
1 5.96046e-08 0
0 0.57793 1
0 0.875759 1
0.509122 1 0.490878
0 0.554224 1
0 0.317353 1
0 0.869227 1
0 0.924454 1
0.267433 1 0.732567
0 0.516272 1
1 0.94986 0
0.281872 1 0.718128
1 5.96046e-08 0
0 0.386252 1
1 0.460123 0
1 0.413878 0
0.00324023 1 0.99676
0 0.845067 1
0.039459 1 0.960541
0 0.763556 1
0 0.774048 1
1 5.96046e-08 0
0 0.480358 1
0 0.849476 1
0 0.451964 1
1 0.943138 0
0.126633 1 0.873367
0.540065 1 0.459935
0 0.41731 1
0 0.720727 1
0 0.774162 1
0.300429 1 0.699571
0 0.742062 1
0 0.751561 1
0 0.598197 1
0 0.97483 1
0.182838 1 0.817162
1 5.96046e-08 0
0 0.651986 1
0 0.416677 1
1 0.544686 0
1 0.849863 0
0.876262 1 0.123738
