# vtk DataFile Version 3.0
Particle simulation
ASCII
DATASET POLYDATA
POINTS 400 float
1.61656 1.22079 0.359687
1.0791 3.86323 6.39644
8.1515 1.07694 8.39867
9.49167 5.42373 5.6073
6.6946 0 8.44735
9.60962 7.16526 7.52044
8.59655 4.18366 6.48564
0.82372 5.11061 3.09477
4.6633 5.48961 9.87163
3.76033 3.31392 9.63804
2.92035 3.57504 3.63521
1.97272 4.54478 2.28454
5.30697 8.18455 1.54698
0.952765 6.19048 2.00785
0.370224 8.89954 2.48445
9.01623 4.90513 8.95122
7.39478 5.63089 9.81943
3.19636 0.527113 2.25023
6.91203 8.99634 0.437987
1.98419 7.70357 9.49519
3.24639 0.636452 2.25944
6.99969 9.89368 9.3984
2.67427 4.94172 6.24022
7.07787 6.52583 1.64458
8.0471 8.38565 2.81522
9.39376 7.50281 3.39529
7.48231 4.83806 7.24679
2.44585 2.94319 8.13898
2.27658 3.2251 2.16229
7.25802 3.72674 4.62606
9.20345 9.66613 8.30688
6.52347 2.89885 1.5648
6.63217 1.17515 4.16136
8.17593 6.92088 2.85581
1.93766 5.7458 0
4.07851 10 2.87503
7.43782 7.63767 5.68189
3.26056 0.292524 1.84505
1.55085 8.21532 1.4992
7.39618 8.40028 7.24828
7.55964 8.32651 1.42397
5.88415 2.53152 6.49822
4.44713 1.28173 6.88059
4.72941 4.13707 0.103295
6.05671 1.25922 3.55356
9.91334 9.91036 5.67351
2.70032 2.72123 6.8038
7.48713 6.67378 0.87058
2.49294 5.4549 4.02909
6.25455 1.6546 0.959717
8.75037 4.55435 1.48674
8.24037 9.90992 7.97718
0.552175 6.45759 3.3623
9.76764 8.3754 1.31357
7.58337 9.50902 9.36883
1.43929 0.680423 9.45295
0.421423 4.3258 1.80963
6.46946 0.889596 4.8508
2.13547 7.80458 5.40775
3.59643 7.59296 8.05748
0.0551015 2.99288 2.99381
7.11757 3.66756 6.41638
4.12336 0.490744 6.21341
2.21724 9.80525 3.03587
4.56868 8.58667 9.35864
6.57031 0.841547 6.55659
9.63287 10 5.87373
5.75474 6.51632 8.98753
1.33965 4.02051 1.84326
5.80489 0.189285 4.10346
7.24795 2.46732 9.01736
10 8.85346 6.85028
0.260392 7.51434 1.93012
9.69764 1.84658 6.11186
8.81302 1.78569 4.28368
2.70553 6.23226 4.32778
1.21279 10 3.13643
3.46669 5.87389 1.71648
0.489943 7.04513 0.331843
9.14764 2.78149 8.26746
3.27809 0.349723 2.41527
0.228418 4.39489 1.36271
3.13562 0.316918 9.5362
2.35168 4.6202 0
3.92645 3.459 5.12496
7.49033 0 5.61995
10 3.53553 3.33737
5.54295 3.56295 10
4.60618 5.08295 1.12772
1.1802 0.447726 5.01354
3.60329 0.365694 2.03136
2.72222 7.34512 5.97642
3.86798 7.11547 9.24836
6.9881 4.98146 3.67188
7.29672 8.4388 6.37474
0.913401 4.04896 1.3993
4.96342 4.48782 7.61025
8.01788 8.54531 7.26377
7.89628 4.72049 3.9901
1.85679 7.52706 9.70863
3.3875 0.319157 0.944152
3.8384 4.65849 6.45588
9.23086 8.74955 2.30758
8.51327 0.5604 9.69557
4.05256 4.3454 6.19647
0.748401 8.28569 6.21856
2.16563 2.37743 2.00951
1.21018 9.67151 7.88249
0.478827 4.11012 6.76163
8.90543 10 8.7525
4.29109 7.40408 8.72701
1.42499 6.21387 8.90966
2.82244 8.86496 0.289192
1.22087 2.54791 8.56181
4.01652 0.536619 0.857299
5.6124 4.95354 5.90163
0.710158 0.0366815 8.37961
0.969255 3.5482 7.56708
0.605072 1.05858 7.64849
7.0996 9.82443 4.89783
6.65272 6.62468 9.06079
7.63762 7.85344 1.6102
8.13964 2.33494 9.00904
4.03824 7.13841 4.31852
5.32263 8.25736 9.03366
3.61599 0.318051 1.13044
4.8722 2.52468 1.39871
5.32257 8.07582 4.4534
2.29681 1.56832 1.71577
7.61521 4.6132 2.39742
6.99198 8.89289 4.46076
8.70552 9.48236 5.82366
0 6.79684 0
1.92801 1.52475 2.08878
4.38718 7.8701 8.82255
4.39087 5.62605 5.75679
0.683714 1.46765 9.12796
3.77371 7.97715 8.34435
9.31539 3.09878 7.47808
9.67465 7.50028 3.60322
3.3642 0.247416 2.32625
5.3984 0.307691 9.10177
5.87218 6.51383 1.81263
1.71756 2.18261 3.93059
3.92345 0.92651 0.8104
8.13472 1.92544 1.42981
8.71295 0.13957 2.01862
7.21458 9.6551 0.70999
0.936545 1.10007 8.75875
1.7557 6.68206 9.5557
3.28187 0.640356 2.35319
5.89773 0.866394 6.00999
2.56716 5.58695 3.94613
3.91131 0.357555 1.88892
0.267508 3.38043 0.941426
6.28757 0.220971 6.47682
8.01926 5.51965 0.568934
5.5168 4.54345 5.34424
4.8253 2.8214 9.17924
5.93073 6.07162 7.9578
0.063724 3.90917 9.61143
4.50904 5.71893 1.08709
4.88187 3.8088 3.16702
2.99617 7.13122 5.25099
1.58721 8.36298 2.83905
7.47713 8.04218 1.84846
5.21416 7.22375 0
9.99878 9.12749 4.40165
5.03398 6.5244 8.06294
4.91755 8.67102 2.25459
3.28849 0.508887 1.98734
5.65841 5.59199 4.12301
1.34923 6.77497 2.70546
8.20423 2.02476 9.25958
1.7319 6.15841 5.96007
2.50641 4.60992 0.202659
3.36191 7.42545 10
6.41038 9.64826 1.27279
2.56362 6.30078 4.00537
2.65728 4.40894 5.32568
3.22081 0.333364 2.33781
3.7286 9.07215 2.77317
4.76322 9.06757 9.55232
5.60259 4.59327 1.84775
5.17564 5.55109 0.867193
0 7.34564 5.31565
3.31552 0.574115 2.36851
9.74631 1.43623 6.38614
4.14685 0.315307 2.2804
4.08135 0.682628 0.952781
3.69859 0.310403 1.70998
3.62893 0.572213 1.74401
9.78461 1.86792 4.86811
8.92468 3.19199 7.9745
8.20028 8.66884 8.53953
5.28442 3.01797 0.573105
1.53636 5.99313 8.49184
1.82543 4.16184 0
3.79266 0.371212 5.57282
3.51977 0.145661 1.6086
3.43724 0.240833 2.45484
5.98484 3.95572 8.04378
1.19336 4.75803 1.13473
8.82212 5.17029 2.4262
8.73086 7.46205 7.20242
6.38744 1.62785 6.65704
4.00348 0.618035 2.68946
7.8135 2.27269 9.59426
6.12047 0.643238 9.29843
3.08453 7.08487 4.11049
4.05388 0.227432 2.01074
3.35002 0.477304 2.47515
2.00058 4.9035 7.40785
10 2.50852 1.46084
0.433102 2.53563 1.03062
3.72432 0.507454 8.59733
3.60572 0.581579 2.21604
0.647095 0 4.96905
1.58001 4.56035 4.94397
10 1.33116 9.59757
5.32282 5.46798 1.21894
8.05295 1.59985 4.66406
9.68563 1.11477 0.241256
3.40472 0.651426 2.30361
7.97289 1.72275 0.536016
0.346399 6.90866 7.15498
9.49603 5.13535 6.07389
3.91778 0.11496 2.5258
3.20618 0.498631 2.65156
1.56719 9.30067 5.64812
6.67652 6.77905 3.9935
2.61688 7.24752 4.91099
8.97267 0.430001 2.23129
3.40847 0.155696 2.29861
0.76721 0.350729 8.62984
8.2737 3.40889 3.21845
9.72354 3.83419 5.11717
3.78271 2.21324 8.81793
3.83409 0.279036 1.85961
4.8324 7.91128 8.40193
3.14946 0.419824 2.34467
3.54755 0.240659 2.51123
2.81942 0.482977 2.69409
3.11486 0.325175 2.76109
0.982654 5.36709 4.75946
5.20619 8.39281 4.79257
2.91562 1.15688 7.8642
9.26752 0.385792 4.22421
1.60756 0.698444 0.708944
8.87277 7.42426 2.65368
3.74413 0.272737 2.10601
6.46979 9.12042 1.83559
7.48321 3.38992 8.32648
8.21708 2.93993 4.26638
3.38809 3.13398 1.6016
3.00044 0.349049 3.45073
3.44514 1.01112 5.6241
0.697849 0.243751 8.63628
6.17446 0 2.59701
0.774378 0.185483 8.57001
3.21598 0.466906 2.51486
7.13805 1.27207 8.87739
5.91073 1.64784 6.13502
0.119681 0.206304 2.20734
0.50701 0.423687 4.08988
2.42429 4.44044 7.78057
4.86486 0.921086 4.36739
0.778923 0.371107 8.5663
0.240104 9.72935 0.437933
4.0541 0.523917 2.54862
2.93844 0.434499 2.03969
4.83424 7.49616 7.62853
9.95008 4.01147 7.82545
6.5192 8.67576 4.34098
4.80398 1.01548 4.37484
1.10471 0.628017 7.14531
8.41912 5.87081 4.74845
0 0.953455 8.7447
1.43226 0.49412 9.43771
3.28208 0.321097 2.11373
1.60873 1.15611 9.62506
7.79676 0.749798 0.418867
7.11389 2.82426 7.08949
4.82614 0.699416 3.20366
3.3125 1.20385 8.43965
9.60842 9.34269 1.13525
3.49208 0.618991 2.34944
4.04225 0.110339 4.45856
0.245323 5.73265 3.0595
7.41718 8.86119 0
6.29208 5.63245 7.99347
1.31573 6.73041 4.76198
3.88542 0.244873 2.42315
1.71478 4.1251 3.0249
4.23926 1.15813 9.26903
0.716088 0.183911 8.2761
3.28792 0.215542 2.32025
3.54379 0.278984 2.59175
2.33353 0.717841 3.19009
3.43144 0.420868 2.26583
6.16549 5.0393 1.51915
9.75959 1.51189 0.81397
3.22712 0.206069 0.790231
2.94004 7.40703 8.79815
3.73334 0.290181 2.29038
7.30701 0.890273 7.31788
3.54494 0.259067 2.57614
3.18383 0.177059 2.11065
0.661142 3.80838 5.6191
8.60355 6.03393 5.00527
3.0765 3.16027 0.891331
8.66606 0.572087 2.71123
5.40926 8.0224 2.01532
3.40906 0.576267 2.13847
2.24044 8.22962 7.28022
4.76454 5.5201 0.903028
3.19976 0.835067 1.12311
4.79292 4.9594 3.57948
6.5665 0 1.88618
6.34845 8.81919 4.82824
0.789533 0.155817 8.98452
7.01766 5.89916 8.70519
0.551986 0.268294 8.30434
3.39772 0.590055 2.18547
0.464645 0.197942 9.09286
1.55574 1.5134 0.436584
3.70907 0.188567 2.78319
4.55161 4.27312 2.98518
7.95389 6.14573 9.10989
3.50528 0.457723 1.86922
2.44137 8.92516 2.20511
4.38443 0.684086 2.51234
1.76927 1.56678 9.13365
2.85186 0.18017 3.52785
7.87495 0.912959 0.16487
7.88148 0.838406 8.91702
4.02899 5.88842 6.52608
3.29858 0.257132 2.05852
1.4619 2.17461 8.39698
1.31071 3.88174 2.49109
2.35429 3.16908 2.0898
8.74424 8.1258 1.93454
1.67851 1.55026 9.2126
0.782046 0.228987 8.59091
3.33454 0.124329 1.85895
3.33032 0.130486 1.46736
7.94257 0.726741 0.633708
3.21033 0.649884 1.84296
3.89169 0.415024 2.60171
7.66247 7.91978 2.59973
3.67843 0.184095 2.06046
3.40919 0.530776 2.07526
0.950925 6.51582 2.87063
2.57246 1.84452 3.71098
3.77572 0.242741 2.20101
3.45854 0.523411 1.85837
3.277 0.396676 0.525654
2.03565 1.85801 9.50903
3.80083 0.284132 1.68975
3.36526 0.469171 2.26313
7.8006 0.443261 0.47506
0.738545 0.0435851 8.45381
0.699182 0.21225 8.53421
3.23881 0.0530258 1.84646
2.99964 0.434437 2.58576
7.89831 0.690122 0.227847
0.646896 0.403199 8.90055
8.90361 3.76048 3.34472
0.751764 0.060956 8.34037
8.38178 2.00822 0.63699
7.88739 0.414216 0.4134
2.95525 0.715847 9.54305
3.97409 1.04536 9.40592
3.1702 0.482447 1.82622
3.69019 0.15587 1.94847
7.86022 0.70587 0.439738
0.591762 0.32328 8.47031
0.567244 0.598778 9.15626
4.02381 0.478633 8.62409
3.43388 0.156345 1.76135
3.6582 0.638382 1.96135
3.25181 0.394979 2.34914
3.90303 0.289702 8.45488
3.07745 0.302297 2.36169
9.87451 0.307853 0.472491
0.518095 0.354445 8.1504
3.40509 0.206636 2.02973
3.48528 0.381033 1.90512
8.84303 1.06202 10
8.89204 0.248949 6.06977
3.42087 0.204902 2.3061
3.28175 0.241773 2.42937
1.05579 0.340441 8.29424
3.22692 0.390358 2.10715
3.23842 0.214852 0.430362
0.651366 0 8.60359
3.41492 0.213733 1.94979
0.646451 0.112745 4.89553
6.34829 0.358224 4.16428
8.1498 0.929202 0.363913
POINT_DATA 400
SCALARS particleColor float 3
LOOKUP_TABLE default
1 0.00225139 0
0.118601 1 0.881399
0.1098 1 0.8902
0 0.867465 1
1 0.899387 0
0 0.672388 1
0.919805 1 0.0801953
1 5.96046e-08 0
0.982809 1 0.0171909
1 5.96046e-08 0
0 0.911968 1
1 0.964012 0
1 5.96046e-08 0
1 5.96046e-08 0
1 5.96046e-08 0
0.844414 1 0.155586
1 0.394681 0
0 0.434305 1
1 0.878679 0
1 0.56911 0
0 0.712381 1
1 5.96046e-08 0
1 5.96046e-08 0
0.728207 1 0.271793
1 5.96046e-08 0
0 0.952158 1
0.821225 1 0.178775
0.0484251 1 0.951575
1 0.83135 0
1 0.925426 0
1 5.96046e-08 0
0.49761 1 0.50239
1 5.96046e-08 0
0.79865 1 0.20135
1 0.552365 0
1 5.96046e-08 0
0.518542 1 0.481458
0 0.434262 1
1 5.96046e-08 0
1 5.96046e-08 0
0.357163 1 0.642837
1 5.96046e-08 0
1 5.96046e-08 0
1 0.880978 0
0 0.974875 1
1 5.96046e-08 0
1 5.96046e-08 0
1 5.96046e-08 0
1 0.60619 0
0.983693 1 0.0163069
1 5.96046e-08 0
0 0.662126 1
1 5.96046e-08 0
1 0.971065 0
1 5.96046e-08 0
0.532244 1 0.467756
0.476057 1 0.523943
0.633825 1 0.366175
1 5.96046e-08 0
1 5.96046e-08 0
1 5.96046e-08 0
1 0.58285 0
0.793158 1 0.206842
1 0.221189 0
0.317618 1 0.682382
1 5.96046e-08 0
1 5.96046e-08 0
1 0.638168 0
0.539432 1 0.460568
0.884115 1 0.115885
1 0.625234 0
0.472302 1 0.527698
1 5.96046e-08 0
0.0436988 1 0.956301
1 0.700844 0
1 5.96046e-08 0
1 0.756557 0
1 5.96046e-08 0
0.728888 1 0.271112
0.978813 1 0.0211869
0 0.813287 1
0 0.612243 1
0 0.686328 1
1 5.96046e-08 0
1 0.858475 0
1 0.171835 0
0.88197 1 0.11803
1 5.96046e-08 0
0.297399 1 0.702601
0.203619 1 0.796381
0 0.384179 1
0.963455 1 0.0365447
1 5.96046e-08 0
1 5.96046e-08 0
0 0.844017 1
1 0.323737 0
1 5.96046e-08 0
0.731257 1 0.268743
1 0.677625 0
0 0.635307 1
0 0.725251 1
0 0.980441 1
0 0.881225 1
1 0.461019 0
1 5.96046e-08 0
1 0.315765 0
0.668743 1 0.331257
0.497286 1 0.502714
0.950622 1 0.0493783
0.877035 1 0.122965
0.176745 1 0.823255
1 0.494762 0
1 0.888635 0
1 5.96046e-08 0
0 0.452817 1
1 0.28321 0
0 0.355872 1
1 5.96046e-08 0
1 0.136099 0
0.849463 1 0.150537
1 5.96046e-08 0
0.936635 1 0.0633652
1 5.96046e-08 0
1 0.0538015 0
1 0.605845 0
0 0.399782 1
0 0.916922 1
0.707786 1 0.292214
0.514038 1 0.485962
1 0.567697 0
0 0.491399 1
0.71964 1 0.28036
1 5.96046e-08 0
0 0.915405 1
0.685467 1 0.314533
1 0.628203 0
1 0.930382 0
1 5.96046e-08 0
0.823123 1 0.176877
0 0.806387 1
0 0.639024 1
1 5.96046e-08 0
1 5.96046e-08 0
1 5.96046e-08 0
0.128986 1 0.871014
0.0758909 1 0.924109
1 0.599918 0
1 0.954565 0
0.0709699 1 0.92903
1 5.96046e-08 0
0 0.714586 1
1 5.96046e-08 0
1 5.96046e-08 0
0 0.567298 1
1 5.96046e-08 0
1 5.96046e-08 0
0.451415 1 0.548585
1 0.882691 0
1 5.96046e-08 0
1 5.96046e-08 0
1 5.96046e-08 0
0.71586 1 0.28414
1 0.791625 0
1 0.944853 0
0.70085 1 0.29915
0.423807 1 0.576193
1 0.0995358 0
0.780888 1 0.219112
1 5.96046e-08 0
0.741869 1 0.258131
0 0.624729 1
1 5.96046e-08 0
0 0.637167 1
0.968125 1 0.0318748
0 0.830281 1
1 0.395098 0
1 5.96046e-08 0
1 0.378496 0
1 0.940688 0
1 0.759098 0
0 0.791043 1
1 5.96046e-08 0
0.733971 1 0.266029
1 5.96046e-08 0
1 5.96046e-08 0
0.753441 1 0.246559
0 0.777672 1
1 5.96046e-08 0
0 0.676378 1
0 0.659678 1
0 0.56398 1
0 0.558128 1
0.603001 1 0.396999
0.585462 1 0.414538
0.345339 1 0.654661
0 0.277636 1
0.674333 1 0.325667
1 0.910451 0
0 0.811813 1
0 0.418519 1
0 0.71302 1
1 5.96046e-08 0
1 5.96046e-08 0
0 0.711945 1
1 5.96046e-08 0
0.208856 1 0.791144
0 0.723871 1
1 0.0752781 0
0 0.696839 1
1 5.96046e-08 0
0 0.363203 1
0 0.395692 1
1 0.568607 0
1 0.611219 0
0.617034 1 0.382966
0 0.808972 1
0 0.728842 1
0.461112 1 0.538888
0.150992 1 0.849008
1 5.96046e-08 0
1 0.0462115 0
1 0.639885 0
0.347904 1 0.652096
0.0349242 1 0.965076
1 0.366437 0
1 5.96046e-08 0
1 0.274954 0
0 0.72534 1
0 0.414339 1
1 5.96046e-08 0
1 0.669326 0
1 0.253675 0
1 5.96046e-08 0
0 0.96793 1
0 0.560841 1
0.641754 1 0.358246
1 5.96046e-08 0
0.112063 1 0.887936
0 0.389964 1
1 5.96046e-08 0
0 0.482603 1
0.218468 1 0.781532
0 0.865249 1
0 0.768225 1
1 5.96046e-08 0
0 0.635164 1
1 5.96046e-08 0
1 0.673145 0
0.925153 1 0.0748473
0.557733 1 0.442267
0.084608 1 0.915392
0 0.960371 1
1 5.96046e-08 0
1 0.657086 0
1 0.722082 0
0.107542 1 0.892458
1 5.96046e-08 0
0 0.945877 1
1 5.96046e-08 0
0 0.568123 1
0 0.961107 1
0 0.610037 1
1 0.584647 0
0.0552369 1 0.944763
0 0.904636 1
1 5.96046e-08 0
0 0.447467 1
0 0.417019 1
1 0.417358 0
0 0.441756 1
0 0.765303 1
1 5.96046e-08 0
1 5.96046e-08 0
1 5.96046e-08 0
0.127184 1 0.872816
0.0649227 1 0.935077
0 0.584244 1
1 5.96046e-08 0
1 0.300433 0
0 0.220176 1
0.708895 1 0.291105
0 0.386094 1
1 5.96046e-08 0
0.1437 1 0.8563
1 0.751358 0
1 5.96046e-08 0
0 0.490921 1
0 0.427221 1
1 5.96046e-08 0
1 0.32448 0
1 0.570282 0
1 0.60495 0
0 0.842387 1
0.397802 1 0.602198
1 0.38258 0
0 0.682478 1
0 0.609532 1
0 0.418157 1
0 0.555881 1
0 0.494671 1
1 5.96046e-08 0
0.319524 1 0.680476
0.576467 1 0.423533
0.431935 1 0.568065
0 0.683274 1
0.436284 1 0.563716
0 0.404205 1
0 0.784438 1
0.386081 1 0.613919
0 0.860577 1
1 5.96046e-08 0
1 0.754768 0
0 0.891818 1
0 0.698305 1
1 0.0767619 0
0.362561 1 0.637439
0 0.417699 1
1 5.96046e-08 0
1 5.96046e-08 0
0.577659 1 0.422341
0 0.84431 1
0.477172 1 0.522828
0 0.522207 1
0.0756046 1 0.924395
0.186576 1 0.813424
1 0.927576 0
0 0.525619 1
1 5.96046e-08 0
1 0.9445 0
0 0.271958 1
1 5.96046e-08 0
0 0.633902 1
0 0.371252 1
0 0.855442 1
0 0.350353 1
1 5.96046e-08 0
0.66638 1 0.33362
0 0.390853 1
0 0.917237 1
1 5.96046e-08 0
1 5.96046e-08 0
0.443965 1 0.556035
0 0.761749 1
0 0.47729 1
0 0.300021 1
0 0.782279 1
0 0.742101 1
0 0.368355 1
0 0.750617 1
1 0.488097 0
0 0.91567 1
0 0.654661 1
0 0.898683 1
1 0.824323 0
0 0.906805 1
0 0.942736 1
0 0.679748 1
0 0.482515 1
0 0.976653 1
0 0.732377 1
0 0.73761 1
0 0.317847 1
0 0.940628 1
0.0165541 1 0.983446
0 0.547784 1
0 0.885907 1
0 0.733767 1
0.972515 1 0.0274855
0 0.875109 1
1 5.96046e-08 0
0 0.635238 1
0.284915 1 0.715085
0.190347 1 0.809653
0 0.678717 1
0 0.696004 1
0 0.600478 1
0 0.919494 1
0 0.457989 1
0 0.199474 1
0 0.638666 1
0 0.304621 1
0 0.490183 1
0 0.495238 1
0 0.857788 1
0.182127 1 0.817873
0.27506 1 0.72494
0 0.51444 1
0 0.590536 1
1 0.28381 0
0 0.647877 1
0.219872 1 0.780128
0 0.833947 1
0 0.536114 1
0 0.785362 1
0 0.862615 1
0 0.407366 1
0 0.601057 1
0.400224 1 0.599776
0.386503 1 0.613497
0 0.660519 1
