# vtk DataFile Version 3.0
Particle simulation
ASCII
DATASET POLYDATA
POINTS 400 float
0.461101 1.90828 8.66992
6.34646 0.805323 4.04075
2.7482 0.182631 0.568865
2.15717 9.49783 8.36032
0 3.12355 3.32971
5.77315 4.58054 7.83564
4.92819 7.29918 3.25282
8.39878 8.97282 0.165733
5.28067 2.33586 0.455776
4.56349 0.0488922 5.60109
9.37886 2.8372 6.60635
4.55523 1.98416 6.17104
7.84766 5.86387 2.26972
3.12718 3.33208 9.063
4.98565 3.27316 8.95481
4.18776 0.374903 1.67569
8.16463 0.393532 7.4282
3.13665 0.42696 0.913036
6.75698 1.69035 8.3657
9.66698 0.956423 6.35107
3.23602 0.501823 0.872686
5.89654 4.68383 7.30649
10 2.89718 5.75027
3.46934 0.329548 5.72556
7.97717 3.11933 5.90412
0.258176 1.43366 6.56955
1.3903 4.51048 4.17528
2.7252 0.75733 0.772345
0.377082 8.78711 2.56248
1.30958 9.47679 9.95297
1.24823 1.70634 1.24545
1.74481 6.39763 9.82547
5.81384 8.96857 5.7491
7.1943 1.11203 4.9409
6.40291 2.9813 0.649827
1.9706 5.91194 1.16697
2.32374 0.464836 4.87307
3.12847 0.620839 1.25689
9.89209 2.21865 4.04057
2.56276 3.02648 3.59007
5.54119 7.71147 1.42689
4.16309 0.921109 6.94811
0.656727 7.28788 7.62528
2.82113 8.79877 5.83038
8.95323 0.49444 2.96267
5.58116 0.660906 1.26022
7.20467 4.6292 9.13646
6.70494 0.635641 7.23936
5.40931 0.413302 0.54236
1.82274 5.6445 5.3249
2.85758 7.60206 7.18262
0.723491 1.41032 9.80691
8.77666 2.38518 0.995456
2.70053 9.70395 4.68043
3.89073 1.60065 5.4454
5.51838 0.762144 1.17493
8.12147 9.83615 7.03638
3.47289 0.415652 0
3.83877 2.92067 4.14553
9.77113 1.19982 6.43515
0.863137 4.66896 8.17203
7.76568 1.54086 1.59033
4.46708 8.87574 0.926375
0.6123 0.704506 8.4521
2.83496 9.82924 7.04799
0.973201 1.88738 7.03301
0.671409 2.99648 9.93407
3.10104 3.39239 6.4548
7.59554 4.78272 6.4318
4.74726 3.65724 5.00782
6.24625 0.554177 9.69425
4.50392 1.85094 2.53443
8.32508 9.17486 4.12269
1.11544 1.68147 7.98494
4.43097 9.66358 8.31649
8.32029 8.30447 1.93815
2.82282 1.58716 5.4364
5.43446 2.99229 8.91837
4.79856 0 2.80568
6.43918 5.91343 7.32738
3.18785 0.823729 0.81645
6.84511 1.10673 6.38867
2.47768 2.08919 6.0184
2.45912 0.367535 0.555116
3.86939 0.312733 8.24217
0.468439 1.33987 8.60376
8.92828 7.31569 7.76955
2.14011 1.06717 3.37903
0.783008 3.27769 5.13273
7.01251 1.01641 1.18327
3.73238 0.321942 1.55967
8.46995 0.68739 1.27751
0.563156 3.55776 8.37161
2.63837 0.169903 6.3221
0.49085 0.748324 8.95735
5.41655 7.32322 0.968789
9.26738 4.78252 3.33011
4.78185 0.442119 9.53297
8.16744 0.705102 9.48656
7.80357 0.919554 0.726401
3.32034 0.643688 1.15507
1.36922 2.2179 0.714331
2.91349 0.776505 8.85882
3.41006 5.22184 6.37858
7.63312 0.766708 9.35311
1.74626 3.83183 1.53401
4.07275 1.66159 8.66576
5.79703 0.16305 0.5147
3.27506 0.640783 1.25341
1.10184 0.17984 2.52109
5.03437 3.45875 2.85288
0.657653 3.43898 8.39422
7.81404 3.15912 3.99881
5.69083 0.932858 1.28844
2.79046 0.367082 0.982765
0.92741 0.63304 6.14742
4.77415 0.282622 8.18486
8.39009 4.87589 3.02028
7.80212 3.53958 6.29341
5.63465 6.77674 3.08736
3.56275 0.167651 1.09623
8.95949 1.65314 5.69125
4.566 2.91833 7.04495
8.73276 3.97983 5.78913
1.49881 5.93248 4.79072
2.75309 0.608679 0.423304
1.80645 2.82029 4.35905
0.55011 0.553201 8.6164
0.838967 1.24826 6.69021
0.688039 8.14413 3.70011
2.38584 0.70615 1.89302
6.92853 3.91462 7.65931
5.30107 3.76193 0.625038
7.14593 0.321547 2.88109
4.23393 0.802164 6.6398
2.29776 0.844412 3.51812
2.61265 3.78842 0.691143
0.16242 0.903404 8.69314
1.91687 6.12294 7.20756
4.66216 0.440891 8.613
3.01954 0.457828 0.468436
8.03062 8.98499 4.33425
0.320494 7.28744 9.50445
7.77248 2.01508 6.45032
3.41885 0.737675 1.0776
7.27778 2.0481 6.40474
8.48732 0.34366 3.12387
3.34368 8.72551 1.55284
4.82741 1.87879 2.13885
6.10738 1.85082 4.55982
3.05014 0.527717 0.511187
5.14278 1.98894 5.77309
0.867742 0.203049 8.84717
2.46939 1.58567 3.2213
4.18277 5.60117 8.26432
6.30737 0.106872 1.23076
7.4709 1.24166 0.694629
5.122 0.267815 1.29179
1.92152 2.04894 9.8334
4.17728 3.15305 2.94261
4.89556 2.94673 0.624832
5.18473 0.941815 5.41639
6.0174 1.48366 8.66538
2.79445 3.56032 0.0903041
4.88567 0.372319 7.9833
9.40414 4.54522 9.23459
5.86607 0.48619 2.12466
7.0643 0.418586 9.42455
8.06497 3.23949 3.44024
0.808705 0.0096788 10
3.34955 0.105638 0.988457
9.95995 4.06739 0.392136
6.58456 4.11882 3.79706
1.18804 4.13224 1.31127
3.23388 0.133076 5.92182
4.40935 8.68692 0.375046
1.33099 0.357812 7.02581
2.88101 1.6628 5.73459
1.00639 0.701328 7.41964
8.73361 7.52849 7.98429
2.9159 0.513356 0.888262
4.10838 9.69395 1.27497
5.48368 0 6.75161
7.47383 1.17075 0.628093
4.57212 0.374361 8.62398
8.43062 0.917339 1.22447
3.51315 0.462397 1.01628
3.75197 7.51926 2.42401
8.3515 0.189803 2.99791
3.2148 0.223049 0.628013
3.50215 0.201488 0.858824
3.45502 0.217546 1.04934
3.59519 7.18674 6.87305
0.309788 0.420164 1.20666
6.18472 3.83447 8.33911
3.5529 0.272175 0.54872
3.87214 0.417783 4.98461
6.17713 7.64491 8.79465
3.13547 0.536037 0.974541
3.40986 0.237813 0.594419
3.32033 0.383788 0.706431
5.70661 0.0121626 0.557383
8.2333 0.695742 2.89272
1.20279 0.588586 7.16985
2.89547 8.2882 1.21552
5.23053 0.420848 8.46401
3.07538 0.353587 0.877973
6.53997 4.37895 3.0094
2.47947 2.18953 0.357336
8.28075 0.881283 1.35463
3.69485 0.321385 0.631493
3.75914 0.00775679 0.458749
9.33125 3.59152 1.47437
6.79882 0.439162 7.11421
4.9315 3.06575 8.88786
4.66392 0.274469 8.22721
3.19698 0.305111 0.649796
2.82956 0.363629 0.464246
2.63142 9.34937 6.40344
6.41116 0.288963 2.87218
2.25368 8.17779 5.43233
7.55772 4.82849 7.04443
5.3684 0.138909 7.96054
3.54876 0.622217 0.605207
7.02914 0.379143 7.27974
2.36329 0.484076 0.816117
7.07459 1.47907 1.05053
3.488 0.295158 1.29944
3.14175 0.335074 1.12418
8.77874 2.5279 0.759757
5.38511 0.484254 5.9722
4.65772 0.535733 8.00537
8.70861 0.410284 3.19335
3.54668 0.277183 0.401866
4.94793 0.289458 8.5483
1.69628 1.03221 3.47846
5.37337 1.22088 7.75864
2.28436 1.82889 5.37552
3.42786 0.32493 1.21947
8.30171 4.73141 10
3.32527 0.855381 0.853413
3.80652 0.422468 1.37495
2.90121 0.496228 0.210636
2.8883 0.261477 0.73839
4.55953 0.240855 8.47592
1.59236 3.75678 1.62233
1.18353 0.458223 5.20013
2.84104 0.851367 6.8824
1.37328 3.98267 1.70093
7.93269 0.216731 7.36666
3.20272 0.288074 0.746896
0.358579 9.80049 5.30307
5.21652 0.338801 8.68339
3.81271 1.35513 6.63774
8.78028 0.715582 2.96698
3.31295 0.311542 0.600149
5.1345 1.91839 5.92045
5.09244 0.476587 7.89649
4.55563 2.5987 4.72133
5.1273 0.538165 8.56351
2.93187 0.479411 0.52523
8.60698 8.25254 2.14591
1.26076 0.598607 7.14486
7.90178 5.28148 6.21638
4.85254 0.0472459 8.2423
0.462798 2.72596 6.37177
5.50431 0.456236 0.814652
4.88783 0.556141 8.70364
8.49391 0.384483 2.97613
3.05066 0.738155 0.263465
3.2121 0.537133 1.03808
7.18472 0.219951 0.352211
2.54771 1.76784 1.31645
3.05695 1.51294 5.22927
6.56683 2.1809 8.92006
4.91712 0.345263 8.24564
2.55792 1.86069 5.44626
7.73476 8.58669 3.54048
2.35684 2.15598 0.0994322
3.44973 0.492063 0.690165
5.46266 0.368316 0.426668
5.8881 0.249185 1.09849
8.28789 4.2947 4.48345
1.13529 0.38358 7.54599
9.85079 5.46232 9.52199
8.64768 0.281165 2.6681
3.36406 0.674861 0.918195
6.97779 1.75189 6.17589
6.14145 2.32828 8.69566
4.04153 8.45363 2.21278
9.48477 0.0710983 1.84703
5.99199 0.399756 0.892551
3.24129 0.211088 1.4066
0.467973 0.734815 8.36506
4.88117 0.0899257 8.30492
4.78254 0.245856 7.94763
3.52015 0.597962 0.528188
3.61796 0.54782 1.11435
7.25066 1.63984 6.06079
3.60493 0.467012 0.417269
0.610673 0.884903 0.805943
2.98339 1.06704 6.70481
3.30855 0.628178 5.15916
2.70171 0.753202 9.19087
3.02497 0.469526 0.963453
0.66064 0.781342 8.85638
3.64061 0.196212 0.767702
3.20236 0.599157 0.684066
0.285026 0.245587 8.95635
2.90449 1.51228 5.41748
4.92002 0.637232 8.30133
5.24895 1.83254 5.53362
8.54269 0.180005 3.18816
3.39858 0.251365 0.836039
7.39965 1.60986 6.16897
0.297105 0.802782 8.52977
7.51999 0.954568 1.29521
4.66433 2.91829 4.40901
5.22346 2.19274 6.01265
4.80519 1.74085 2.22997
5.21002 0.492907 7.85898
1.10617 0.272692 5.07109
4.61928 0.0971928 8.33937
4.1563 0.398535 0.942333
5.38068 0.405746 0.350291
7.84927 1.02945 0.601631
3.13994 0.658001 0.796104
6.07682 0.0484425 0.912757
0.116746 3.12905 1.5694
2.94424 0.171815 0.135871
9.01259 0.515459 5.60723
3.50811 0.287218 1.24721
5.00326 0.331303 7.89861
3.88827 0.434049 0.69245
5.63471 0.556601 0.944636
7.91946 4.25614 6.87675
4.43938 2.53275 4.31566
3.61525 0.51798 0.656502
9.85616 0.601356 6.33839
2.84281 0.357273 6.00292
5.22731 0.479547 8.34496
2.3869 0.393492 6.23024
5.18077 0.142076 8.09696
4.69165 0.431988 8.42076
3.35188 0.461964 0.775214
3.0427 0.654928 1.0564
6.14653 0.134801 0.91284
3.69233 0.455177 0.773651
3.31295 0.690192 1.1436
3.20733 0.221079 6.10968
2.51302 0.500375 1.04294
3.09934 0.421564 0.831081
5.82637 1.79678 8.30365
5.2765 0.402643 7.93443
3.39786 0.451008 1.02093
3.51406 0.502331 0.653589
5.37502 0.401336 0.503527
5.17989 0.683122 8.10736
3.66603 0.373063 0.687405
3.12332 0.582395 1.1729
5.63677 0.391301 0.976064
4.62828 0.306156 8.30264
4.72167 0.31477 8.01931
3.11617 0.417023 1.13223
3.59542 0.244119 0.83156
8.71404 0.411584 3.14622
4.77225 0.338553 8.44301
7.41244 0.629902 7.03641
5.37111 0.325797 8.28358
7.53911 0.551638 0.589935
5.65266 0.418763 0.920206
5.104 1.96053 5.82488
5.00612 0.113591 7.88192
3.21147 0.782103 0.332772
2.91587 0.508145 0.667791
8.47093 0.56019 3.16378
4.84261 0.352676 8.15172
5.06178 0.704647 7.89232
4.74572 0.082867 8.46691
3.41944 0.265038 1.00096
3.13595 0.215072 0.449272
3.01611 0.443921 1.08375
4.55619 0.191062 8.7165
3.41481 0.381809 1.47988
0.586025 0.538797 8.44299
4.82408 0.277263 8.10074
3.21237 0.325215 0.899598
3.29117 0.429286 1.21678
5.11954 3.92266 8.83515
5.83327 0.211953 1.24942
3.09527 0.29278 0.459813
3.40681 0.3559 0.783133
4.60638 0.0230403 8.14484
3.0706 0.527354 0.790311
0.612521 0.544613 8.10285
4.67621 0.12797 8.21582
3.24613 0.292602 0.827063
3.16417 0.115031 6.1737
5.51363 0.47462 0.939648
5.83605 0.2089 1.2786
POINT_DATA 400
SCALARS particleColor float 3
LOOKUP_TABLE default
0 0.329301 1
0.474465 1 0.525535
1 0.848176 0
1 0.261233 0
0.414878 1 0.585122
1 5.96046e-08 0
0 0.69378 1
0 0.98907 1
0 0.289435 1
1 0.605199 0
1 0.858236 0
0.852235 1 0.147765
1 5.96046e-08 0
1 0.686585 0
0.876899 1 0.123101
0.482438 1 0.517562
1 0.983912 0
0 0.524893 1
0.167641 1 0.832359
0.410207 1 0.589793
0 0.559118 1
0.978065 1 0.0219349
1 0.665327 0
1 0.313936 0
0.320556 1 0.679444
0 0.809508 1
1 0.936161 0
0.534661 1 0.465339
0.000229839 1 0.99977
0.984005 1 0.0159948
0 0.332743 1
0.539326 1 0.460674
1 0.461991 0
0 0.585852 1
1 0.924578 0
1 5.96046e-08 0
1 0.589338 0
0 0.33216 1
0 0.634368 1
1 0.642758 0
1 0.820496 0
0.229103 1 0.770897
0.711371 1 0.288629
1 5.96046e-08 0
0 0.85557 1
0 0.963591 1
0 0.305752 1
0 0.647632 1
0 0.972654 1
1 5.96046e-08 0
0 0.920761 1
1 0.576776 0
0 0.745756 1
1 0.0136908 0
0 0.541732 1
0 0.396422 1
1 0.638941 0
0.428149 1 0.571851
0 0.457745 1
0 0.513977 1
0 0.35291 1
0.121316 1 0.878684
0.608612 1 0.391388
0 0.673678 1
1 0.664904 0
0.156791 1 0.843209
0 0.894418 1
0.683094 1 0.316906
0.910034 1 0.0899662
0.0829875 1 0.917013
0.724766 1 0.275234
0 0.211088 1
0.143206 1 0.856794
0 0.613051 1
0.104443 1 0.895557
1 5.96046e-08 0
0 0.627028 1
1 0.697201 0
0.380047 1 0.619953
0 0.720892 1
0 0.514963 1
0 0.722593 1
0.237164 1 0.762836
0 0.445984 1
0.985055 1 0.0149454
0 0.804519 1
0.28302 1 0.71698
0.336237 1 0.663763
0.188698 1 0.811302
0 0.451378 1
0 0.391489 1
0.758953 1 0.241047
1 0.653962 0
0 0.450945 1
0 0.658699 1
1 5.96046e-08 0
0.680597 1 0.319403
0.0404038 1 0.959596
1 5.96046e-08 0
0 0.920097 1
0 0.298931 1
1 5.96046e-08 0
0.352264 1 0.647736
1 0.443366 0
0.0586641 1 0.941336
0 0.657153 1
0.645767 1 0.354233
0 0.586929 1
0.100686 1 0.899314
1 0.908788 0
0.834463 1 0.165537
0.381225 1 0.618775
0.598135 1 0.401865
0 0.733085 1
0 0.469702 1
0 0.813143 1
0 0.676664 1
0.751009 1 0.248991
0 0.266391 1
1 0.469681 0
0 0.670921 1
1 5.96046e-08 0
1 0.211612 0
0.0258282 1 0.974172
0.732632 1 0.267368
0 0.583528 1
0.474728 1 0.525272
0 0.379918 1
0.0787285 1 0.921272
0.126523 1 0.873477
0 0.533041 1
0.438661 1 0.561339
0.702448 1 0.297552
0 0.571344 1
0.639664 1 0.360336
0 0.935383 1
0.659429 1 0.340571
0 0.769558 1
1 0.503448 0
0 0.783371 1
0 0.631461 1
1 0.383993 0
1 0.383671 0
0.180889 1 0.819111
0 0.285666 1
0 0.927404 1
0 0.919702 1
0.498337 1 0.501663
0 0.325802 1
1 0.513652 0
0 0.616574 1
0 0.728584 1
0 0.366555 1
0.936399 1 0.0636008
0 0.46478 1
0 0.339689 1
0 0.855318 1
0 0.48354 1
1 0.949713 0
0 0.873607 1
0 0.703234 1
0 0.949222 1
0 0.766374 1
0.485538 1 0.514462
1 0.652253 0
0.182065 1 0.817935
0.357822 1 0.642178
0 0.573217 1
1 5.96046e-08 0
0.253509 1 0.746491
0 0.511054 1
0.0299869 1 0.970013
0.471157 1 0.528843
0.327384 1 0.672616
0 0.309817 1
0.709586 1 0.290414
0 0.732343 1
0 0.69858 1
0 0.804274 1
0.748759 1 0.251241
0 0.404466 1
1 0.478235 0
1 0.702165 0
0 0.720281 1
0 0.565242 1
0.435483 1 0.564517
0 0.718515 1
1 5.96046e-08 0
0 0.554663 1
0 0.643353 1
0 0.387124 1
0 0.193195 1
0.196265 1 0.803735
0 0.502776 1
1 0.319978 0
0 0.571523 1
0 0.448734 1
1 5.96046e-08 0
0 0.438048 1
0 0.827303 1
0 0.840843 1
0 0.389849 1
0 0.518685 1
0 0.517171 1
1 0.453924 0
0 0.251203 1
0 0.857401 1
1 0.965383 0
7.66732e-05 1 0.999923
0 0.503346 1
0 0.416858 1
0 0.366308 1
1 5.96046e-08 0
0 0.840531 1
0 0.700225 1
0 0.462988 1
0 0.871254 1
0 0.557787 1
0.65566 1 0.34434
0 0.977165 1
1 0.71226 0
0.650964 1 0.349036
0 0.811716 1
0 0.698014 1
0 0.953553 1
0 0.991044 1
0.638869 1 0.361131
0 0.512564 1
0 0.769432 1
0.409193 1 0.590807
0.165587 1 0.834413
0 0.915979 1
0.206828 1 0.793172
0 0.790004 1
0 0.431196 1
0 0.920716 1
0.351752 1 0.648248
0 0.74262 1
0 0.686147 1
1 5.96046e-08 0
0 0.296916 1
0 0.758381 1
0 0.439016 1
0 0.840515 1
0 0.640808 1
0 0.574622 1
0 0.753719 1
0.144159 1 0.855841
0 0.864873 1
0 0.650937 1
0 0.680184 1
0.452121 1 0.547879
0 0.668247 1
0 0.948378 1
0 0.706805 1
0 0.675985 1
0.279344 1 0.720656
0 0.847225 1
0 0.576572 1
0 0.472252 1
0 0.409746 1
1 5.96046e-08 0
0 0.723815 1
1 5.96046e-08 0
0 0.959883 1
0.562508 1 0.437492
0 0.88229 1
0 0.817999 1
0 0.291438 1
0 0.742075 1
0.0692189 1 0.930781
0 0.594529 1
0.240324 1 0.759676
0 0.757073 1
0 0.449009 1
0.178254 1 0.821746
0.177139 1 0.822861
1 0.879064 0
0 0.782342 1
0 0.352373 1
0 0.521417 1
0 0.592261 1
1 0.495675 0
0 0.565815 1
0.350679 1 0.649321
0 0.952295 1
0 0.684329 1
0 0.537799 1
0 0.393686 1
1 0.443836 0
0 0.408735 1
0.26587 1 0.73413
0 0.488206 1
0 0.0850474 1
0 0.693351 1
0 0.693835 1
0 0.395023 1
0 0.324631 1
0.0816831 1 0.918317
0 0.359796 1
0.0281025 1 0.971897
0 0.744015 1
0 0.10761 1
1 5.96046e-08 0
0 0.750625 1
0 0.347166 1
0.0798196 1 0.92018
0 0.508375 1
0.28277 1 0.71723
0 0.793217 1
0 0.741021 1
0 0.800801 1
0 0.384649 1
0.0318479 1 0.968152
0 0.817323 1
0 0.61365 1
0.272356 1 0.727644
0 0.385917 1
0.577521 1 0.422479
0 0.781195 1
0 0.680834 1
0 0.912397 1
0 0.512698 1
0 0.70019 1
0 0.508637 1
0 0.707254 1
0 0.71187 1
0 0.975246 1
0.240068 1 0.759932
0 0.512817 1
0 0.926686 1
0 0.44882 1
0 0.243023 1
0 0.716707 1
0 0.589882 1
0.0980377 1 0.901962
0 0.960954 1
0 0.665383 1
1 0.768876 0
0 0.464753 1
0 0.59201 1
0 0.380902 1
0 0.568531 1
0 0.418215 1
0 0.852278 1
0 0.38433 1
0 0.403591 1
0 0.472098 1
0.0342359 1 0.965764
0 0.713546 1
0 0.355042 1
0 0.738269 1
0 0.524599 1
0 0.44513 1
0.29009 1 0.70991
0 0.853411 1
0 0.772704 1
0 0.500978 1
0 0.939566 1
0 0.437271 1
0 0.800369 1
0 0.781068 1
0 0.915839 1
0 0.238588 1
0 0.993429 1
0 0.468438 1
0 0.991908 1
0 0.242834 1
0 0.795629 1
0 0.471899 1
0 0.756512 1
0 0.916638 1
0 0.401597 1
0 0.763653 1
0 0.557688 1
0 0.992736 1
0 0.606394 1
0 0.702415 1
0.233025 1 0.766975
0 0.415166 1
0 0.69463 1
0 0.293411 1
0.0414972 1 0.958503
0 0.396476 1
0 0.362001 1
0 0.188288 1
0 0.78084 1
0 0.575334 1
1 5.96046e-08 0
0 0.517564 1
0 0.339138 1
0 0.308682 1
0 0.770077 1
0 0.398203 1
0 0.760423 1
0 0.352477 1
0 0.836117 1
0 0.853696 1
0.0514354 1 0.948565
0 0.595065 1
