# vtk DataFile Version 3.0
Particle simulation
ASCII
DATASET POLYDATA
POINTS 400 float
0.163054 9.02907 2.58974
0.169761 7.05748 0.803183
6.56397 4.19179 2.14574
1.47464 0.265087 7.10283
3.72146 0 9.09138
4.4228 1.83749 6.88784
6.23135 8.50743 0.479101
0.586576 2.92345 9.86382
3.58059 4.65089 1.03821
9.5606 0 4.59257
2.74309 2.88772 5.86326
5.10783 3.73366 8.742
10 8.10722 7.09237
0.603335 8.27777 2.39036
5.36112 8.14676 9.83434
9.57787 7.33947 3.43256
5.34828 1.09925 5.31928
3.14368 2.67123 0.365715
3.79281 8.34163 7.49478
3.90677 5.01635 1.49141
3.14118 4.37723 0.468696
3.41458 8.42817 8.7639
9.84501 8.29749 3.7968
0.399499 8.63072 7.09899
7.35975 8.2009 6.90937
5.90749 2.90428 9.10411
1.24793 4.57993 5.80954
0.553065 8.91651 0
6.08197 3.28566 0.94355
9.13805 6.1368 5.47849
0.375861 2.20118 6.91311
5.14912 1.99849 7.93768
7.96936 2.24905 9.11975
5.90857 6.95335 1.07371
2.87608 0 3.5611
7.40507 4.77179 7.99363
3.21865 6.94431 4.49019
8.96303 2.92907 3.21298
0 6.70103 1.49569
2.12925 2.20833 9.46437
2.81416 1.84868 5.54912
0.317432 9.98624 7.25634
8.06055 8.23295 2.57707
2.60446 7.05362 5.56049
6.5472 8.00336 0.771294
1.93371 7.13997 1.30368
3.3011 3.15551 4.88914
4.89113 7.90973 0.0296532
0.659643 1.51116 3.78472
2.36582 2.38491 4.5418
6.46709 1.67623 7.98142
0.0432064 7.62823 2.11136
6.45097 6.21641 1.55353
4.43873 5.85948 0.0747764
0.979389 2.1529 8.13888
8.91233 0.992735 8.06879
2.69458 4.34994 9.82409
8.36573 1.53719 3.41416
0.457624 2.26405 1.10946
0.701269 7.51528 8.01738
8.68231 2.31097 5.04351
2.86313 7.91554 6.03335
1.85995 7.61324 5.68892
0.245223 1.60767 6.73446
0.735682 1.43828 6.5922
1.75064 4.74437 3.36625
7.3504 6.08227 0.774317
9.16164 5.63927 0.365246
5.12235 1.04676 0.793019
0.266318 4.83738 6.42739
4.05638 6.49869 6.68424
0.914186 10 9.38538
9.75816 1.37342 8.04665
9.10881 2.86265 7.32605
1.0822 6.76042 8.20174
10 1.14762 4.58518
6.30582 7.41312 1.09352
2.25098 1.82046 5.72803
5.87185 7.39005 9.61367
8.38254 3.33855 8.72725
7.61285 6.07879 9.25701
8.39076 6.90796 8.85313
1.05338 1.73908 6.44707
8.07301 7.74432 9.66821
0.722154 7.63696 7.56968
5.13866 3.98263 5.73011
8.55729 3.05637 1.23851
2.83934 1.2663 7.17763
2.55182 3.92986 3.32272
8.20943 3.81141 2.85704
2.37855 7.09615 1.57913
0.662321 1.60962 3.99275
6.20297 0.276065 5.41381
4.8093 6.04606 3.31529
6.15014 2.29008 9.0941
6.45898 2.66808 4.45026
6.55436 2.63446 4.57417
7.28247 3.21814 0.889943
1.4433 2.70141 1.27835
0 0 1.58833
7.87027 10 9.41524
7.11414 1.61604 4.02344
1.10739 3.12494 0.0837565
8.25239 1.67033 9.19414
9.02394 1.48615 6.37966
6.53541 4.0018 8.28452
6.74341 5.17209 6.15638
5.76044 7.04493 1.31632
3.76725 2.76351 9.5205
0.790766 0.680064 10
1.24152 3.77293 6.55318
5.41881 4.30573 0.207886
8.13658 2.91198 3.9691
2.90348 6.97989 1.44267
8.93385 5.88869 7.19037
2.00374 2.33899 8.22981
3.45436 9.7671 4.14553
0 9.60011 4.24308
3.52242 1.94748 6.64091
8.94188 5.01146 5.57464
5.91842 2.89207 5.00183
9.16179 8.47264 6.01075
4.27082 5.11663 0
0.829662 5.25337 6.92815
6.15624 5.75924 4.45614
1.55133 9.73301 3.8304
4.9571 6.35549 9.10799
8.22997 0.579129 6.84928
7.55555 2.80121 0.778885
8.80487 6.38027 4.05055
6.7835 6.10968 3.53341
0.927236 0.813155 5.53771
9.26617 4.64069 1.52655
4.10377 8.09275 4.38756
9.03018 5.77498 8.53364
9.20405 2.76033 3.886
6.27131 9.02857 3.63856
5.82939 5.06025 2.81623
7.49354 7.33596 9.66942
1.74606 4.00622 6.09302
6.23213 2.09991 9.26017
7.86668 3.45828 4.08569
8.86992 3.87086 0.432675
6.34206 0.326123 1.32024
0.512627 0.393511 8.79084
9.37011 1.93749 9.42021
8.78687 3.24388 4.8965
0.611818 1.29954 5.14408
9.07441 8.78878 3.85567
7.96557 6.39215 8.65316
7.67952 0.565091 7.32523
1.12528 8.96471 9.09991
4.99872 0.303806 9.34908
8.13224 3.94489 0
8.03884 3.44826 4.34756
2.49878 9.66588 5.37822
8.67117 2.00558 8.58663
4.03729 0.400163 0.62486
0.0121951 9.1389 2.33133
0.917782 8.93402 6.31278
1.93656 1.80162 8.22122
6.67572 2.60834 0.227923
9.40818 7.82214 1.43286
0.30323 6.49133 6.71091
3.75081 1.70948 8.32508
6.39684 6.75673 4.03505
9.83121 0.695434 6.06217
6.90381 6.63714 5.19527
0.377467 4.93545 5.60816
5.65898 2.01364 4.27791
1.78987 7.68186 7.83376
4.11563 7.85946 2.69122
6.96057 8.64062 9.61724
2.26295 0.890972 8.14779
9.85652 1.35914 3.35297
7.0336 8.7152 0.0599924
3.67944 9.78432 1.71867
9.23366 1.86894 8.05987
6.08258 5.85233 8.63454
9.65998 0 3.53285
0.809518 4.90775 4.88873
10 0 3.47709
2.83452 1.30222 8.63307
6.90225 3.04886 9.22347
2.4638 3.43549 3.47128
4.31363 5.11116 9.50836
7.59671 0.520481 7.467
2.08708 9.88775 8.49923
0.261603 6.99721 0.862412
8.90599 5.1899 1.04952
1.23651 6.9493 9.84571
3.18449 5.45076 5.87446
1.92745 3.11987 7.57815
0.724428 0.424109 0.671151
1.65783 0.0794674 6.66371
9.38352 0.317303 7.78341
2.04897 9.81793 10
0 0.272325 3.06582
0 1.47928 3.46538
9.59085 5.33897 9.53716
8.14083 1.27604 5.35959
4.77131 2.88904 3.56416
10 8.3008 3.06996
9.36658 4.01538 8.77738
6.53412 5.22931 7.95741
9.04146 1.95574 7.83123
3.62463 7.32021 4.20976
5.09035 3.25389 5.3971
0 10 6.69379
1.2872 2.03455 8.545
0.203521 0.915442 7.06433
7.85757 3.07049 6.97272
8.18345 3.1638 7.96745
4.40433 1.37213 0
3.98913 5.6532 5.56442
7.04717 1.13583 5.73224
9.35708 8.93121 8.26284
1.94721 8.31148 0.163508
1.06927 9.99998 7.13109
8.26565 0 0
0.0331172 9.68791 7.95056
1.23302 9.72338 6.64713
9.6533 1.05745 6.75429
8.17897 1.41996 5.538
3.06396 9.27786 2.56145
0.781708 4.49964 4.65019
10 9.87645 9.92573
6.14842 5.62413 5.57592
7.87067 0.46788 7.14889
7.53988 2.68342 0.279
1.17378 3.24591 0.799655
7.41818 0.810761 7.14565
7.90259 1.57274 1.44267
7.35293 9.63777 7.45077
0 9.35909 2.12335
8.69481 7.35135 3.03578
8.55428 1.07214 8.36705
4.09677 8.59187 0.672233
7.40958 0.543863 7.44261
4.74348 6.55669 0.900667
7.75836 0.859587 6.89254
2.31447 1.67816 8.95528
4.98255 1.18798 5.52053
9.36691 6.67936 3.64277
7.21202 8.53934 1.61764
0.171408 2.57832 8.08942
1.40252 5.54924 9.0983
7.49143 4.85235 10
2.86446 5.12084 5.90811
3.83082 1.91948 9.25441
8.10503 2.94945 1.21544
0.174543 2.44222 1.85257
5.63882 2.93228 8.77716
3.77513 3.19942 6.82111
5.2153 6.03247 0.959397
2.92447 1.47125 6.35176
0.908563 2.31238 7.14987
6.4289 0.44287 9.94158
0.224016 7.49731 2.19654
3.49874 9.25443 5.27769
3.28087 2.64606 1.40642
9.51665 5.74677 3.85976
5.61034 7.64085 6.93838
2.25339 9.14243 6.22397
6.32441 3.05478 0.705217
6.23382 5.53068 4.86384
1.51749 1.35743 8.94712
6.61272 7.61641 5.28694
4.98797 9.25582 8.25702
2.98109 6.29609 5.24064
0.0114394 8.27819 0.392968
6.08494 0.561449 5.67363
7.44015 7.14405 5.30035
8.81143 5.08508 2.93163
9.67482 6.13013 2.91302
1.43259 2.45738 2.41325
3.0177 6.59276 2.1861
0.954718 6.11653 0.854172
6.30754 4.64159 5.32474
6.93775 0.504003 7.23936
6.16466 9.2224 5.36065
0.478891 1.14569 9.53476
8.17374 0.885607 6.16674
0.250661 8.15477 2.88661
1.78137 3.84301 8.45523
6.56376 0.692919 8.07966
0.205873 0.364832 5.00409
0.734119 0 8.36775
4.75913 6.91293 9.23915
5.82211 1.43486 8.52911
9.68031 0.576895 3.91584
0.770261 5.60354 1.13609
7.7114 5.3852 9.04052
8.82666 1.05777 1.33409
3.69742 9.91679 2.65128
4.38039 1.36256 8.17863
7.99196 0.109027 7.26196
7.31192 0.265351 7.97173
7.56517 0.574492 7.37186
7.01434 0.666612 7.10451
8.99649 6.50802 6.30164
4.60531 6.40155 3.38326
7.81679 0.113649 7.21058
2.73324 2.01539 8.24027
7.56873 0.334543 7.40868
3.24013 8.51086 8.85424
8.2806 1.28917 5.51095
7.8725 0.4766 7.32993
7.06965 4.32955 5.08075
0.303413 1.15837 0.82933
8.63552 0.236444 3.25508
6.1077 0.492109 5.84177
1.50487 0.913774 5.21766
7.86037 0.682865 7.28743
5.30086 5.91198 6.32442
9.28694 6.09694 9.93056
7.30217 9.01572 8.11261
7.79634 0.671309 7.08891
3.73 0 1.43792
1.20517 3.37393 0.408053
0.943581 9.48611 6.38749
4.20161 0.26035 9.6879
1.41027 0.856845 8.33824
7.75922 0.0817657 7.49917
7.53622 0.522604 7.48602
2.51133 9.41262 5.97623
8.04394 1.23622 5.59528
3.37116 6.70644 1.19583
9.68087 5.75983 7.67518
7.61148 0.430141 7.11849
8.66357 8.48168 6.81175
3.43775 3.11926 1.30485
9.04666 5.73397 1.84228
9.74099 6.91336 0
4.44218 3.77852 8.37041
8.69919 3.54351 6.08836
8.84697 3.25417 5.52079
7.61356 0.351267 7.12947
5.36073 7.55934 1.58984
4.01859 2.17982 6.60146
6.06957 5.01576 3.96562
1.022 4.4618 8.25856
4.37009 9.9306 3.3366
1.313 0.785374 8.10667
7.21523 0.0540267 7.73046
0.627385 7.70993 6.13409
8.55447 1.27092 0.216014
7.80063 0.680661 6.71966
7.41869 0.678868 7.03402
4.37367 6.48369 1.18297
7.2722 0.694512 7.04064
7.57732 0.439306 7.57316
1.4511 9.1606 0.980751
0.150742 8.07213 2.7241
3.81129 7.9685 9.20512
7.75471 0.287735 7.13017
9.38657 4.3109 7.49226
7.06707 1.98554 3.14309
7.29471 0.191814 7.39504
8.16283 0.53874 7.56493
1.90751 2.59801 7.97534
1.63838 0.945625 8.44674
1.31396 0.763193 8.24496
7.5899 0.626225 7.31244
2.66385 4.72187 5.60015
3.58512 1.11052 8.01547
1.45784 0.851051 8.18606
5.061 7.34875 0.792627
7.08547 8.49561 1.4493
0.566571 8.33158 4.54032
8.55894 1.62663 0.315621
9.68329 5.78221 8.38593
0.984216 8.64696 0.904355
7.07411 0.852212 7.29942
7.59504 0.214811 7.26727
8.3898 2.6417 4.35792
1.39669 0.882364 8.14352
5.80727 0.167752 7.42586
1.91831 2.30031 0
7.2717 0.132146 7.59459
7.8972 0.65209 6.94584
7.47599 0.541246 7.4894
4.14431 5.09159 6.58428
7.78311 0.451615 7.01748
8.82906 2.52117 3.38152
1.56165 0.856911 8.18388
8.03377 0.811253 7.02187
7.37837 0.468851 7.39873
6.58024 1.68447 7.34869
9.96873 5.2739 3.96938
7.77523 0.499876 7.41125
8.07222 0.326321 7.28171
4.2866 9.92025 1.81603
7.60851 0.246543 7.61068
7.75423 9.68825 6.95229
3.68693 2.75031 1.99767
7.62315 0.427016 7.39325
7.13154 5.15658 6.12533
6.94309 4.64604 3.44037
4.33556 0.32687 3.20273
POINT_DATA 400
SCALARS particleColor float 3
LOOKUP_TABLE default
0.426622 1 0.573378
0.468595 1 0.531405
1 5.96046e-08 0
1 5.96046e-08 0
1 5.96046e-08 0
0.781951 1 0.218049
0.257745 1 0.742255
1 5.96046e-08 0
0.410469 1 0.589531
0.443188 1 0.556813
1 0.831217 0
1 0.6548 0
0.799119 1 0.200881
1 5.96046e-08 0
1 5.96046e-08 0
0.726619 1 0.273381
1 0.921008 0
1 0.836233 0
0 0.878669 1
1 5.96046e-08 0
0 0.665548 1
1 5.96046e-08 0
0.453018 1 0.546982
0 0.923487 1
1 0.392283 0
0 0.964558 1
1 0.159362 0
1 5.96046e-08 0
1 5.96046e-08 0
1 5.96046e-08 0
1 5.96046e-08 0
0.296 1 0.704
1 0.410444 0
1 5.96046e-08 0
1 5.96046e-08 0
0.130262 1 0.869738
1 0.113632 0
1 5.96046e-08 0
1 5.96046e-08 0
0.166649 1 0.833351
1 5.96046e-08 0
1 0.48654 0
1 5.96046e-08 0
1 5.96046e-08 0
1 0.718427 0
1 0.849244 0
0.70011 1 0.29989
0.593392 1 0.406608
0.521987 1 0.478013
0.224038 1 0.775962
0 0.791902 1
1 5.96046e-08 0
1 5.96046e-08 0
0 0.574051 1
1 5.96046e-08 0
1 0.626425 0
1 5.96046e-08 0
0.348161 1 0.651839
1 0.792251 0
0.381561 1 0.618439
1 5.96046e-08 0
0 0.656016 1
1 5.96046e-08 0
0.53845 1 0.46155
1 5.96046e-08 0
1 0.89342 0
1 0.631728 0
0 0.827636 1
0.374984 1 0.625016
0 0.991173 1
0.755849 1 0.244151
1 5.96046e-08 0
1 0.162152 0
0 0.646077 1
1 0.403175 0
1 5.96046e-08 0
0.292077 1 0.707923
1 5.96046e-08 0
1 5.96046e-08 0
1 5.96046e-08 0
1 5.96046e-08 0
1 0.57682 0
0.778338 1 0.221662
1 0.599776 0
1 0.464768 0
1 0.45847 0
1 0.0666467 0
1 5.96046e-08 0
1 5.96046e-08 0
0.806652 1 0.193348
0.272429 1 0.727571
0.117289 1 0.882711
1 0.331584 0
1 0.906538 0
1 5.96046e-08 0
1 5.96046e-08 0
1 5.96046e-08 0
1 5.96046e-08 0
0.389368 1 0.610632
1 0.683329 0
1 0.806275 0
1 0.882005 0
0.937226 1 0.062774
0.740467 1 0.259533
1 0.97203 0
1 5.96046e-08 0
0.436441 1 0.563559
1 5.96046e-08 0
1 5.96046e-08 0
1 5.96046e-08 0
1 0.442373 0
1 5.96046e-08 0
0.764656 1 0.235344
1 0.774001 0
1 0.794689 0
1 0.896638 0
1 0.212848 0
1 5.96046e-08 0
1 0.902797 0
1 5.96046e-08 0
1 5.96046e-08 0
1 5.96046e-08 0
1 5.96046e-08 0
1 5.96046e-08 0
1 0.281712 0
0.311998 1 0.688002
1 5.96046e-08 0
1 5.96046e-08 0
0.786176 1 0.213824
1 5.96046e-08 0
1 0.955014 0
0 0.911279 1
1 5.96046e-08 0
1 5.96046e-08 0
1 5.96046e-08 0
0.9479 1 0.0520995
0 0.932868 1
1 0.797981 0
1 0.595598 0
1 0.819535 0
0.55499 1 0.44501
1 0.838749 0
1 5.96046e-08 0
1 5.96046e-08 0
0.546213 1 0.453787
1 5.96046e-08 0
0.794887 1 0.205113
1 0.967697 0
1 5.96046e-08 0
0.764509 1 0.235491
0 0.573916 1
1 5.96046e-08 0
1 0.567816 0
1 5.96046e-08 0
1 5.96046e-08 0
0.209788 1 0.790212
1 0.394253 0
0.758875 1 0.241125
0.300531 1 0.699469
1 5.96046e-08 0
1 0.906461 0
0.707706 1 0.292294
1 0.772214 0
0 0.88459 1
1 0.555096 0
0.720023 1 0.279977
1 0.625471 0
1 0.575902 0
1 0.846882 0
0.732912 1 0.267088
1 0.862634 0
1 5.96046e-08 0
1 5.96046e-08 0
0.860013 1 0.139987
1 5.96046e-08 0
1 0.713711 0
1 5.96046e-08 0
1 0.826479 0
1 0.531517 0
1 0.685807 0
0.0346921 1 0.965308
1 5.96046e-08 0
0.581948 1 0.418052
0.444732 1 0.555268
1 0.607742 0
1 5.96046e-08 0
0 0.597289 1
1 5.96046e-08 0
0.255598 1 0.744402
1 5.96046e-08 0
1 5.96046e-08 0
0.109051 1 0.890949
1 5.96046e-08 0
1 0.760894 0
1 5.96046e-08 0
1 0.806573 0
1 5.96046e-08 0
1 5.96046e-08 0
1 5.96046e-08 0
0 0.998458 1
0 0.589139 1
1 0.51347 0
1 5.96046e-08 0
1 5.96046e-08 0
1 5.96046e-08 0
0.609396 1 0.390604
1 5.96046e-08 0
1 0.448792 0
1 5.96046e-08 0
1 5.96046e-08 0
0.988999 1 0.0110011
1 0.873529 0
1 0.904342 0
1 5.96046e-08 0
1 0.0818638 0
0.709785 1 0.290215
1 0.24354 0
1 5.96046e-08 0
1 0.18592 0
1 5.96046e-08 0
0 0.881185 1
1 5.96046e-08 0
0.378246 1 0.621754
0.236017 1 0.763983
1 0.445213 0
0.535165 1 0.464835
0.407927 1 0.592073
1 5.96046e-08 0
0 0.288735 1
1 5.96046e-08 0
1 0.000109136 0
0.348806 1 0.651194
0.124686 1 0.875314
1 5.96046e-08 0
0.993809 1 0.00619149
0.444663 1 0.555337
1 5.96046e-08 0
1 5.96046e-08 0
0 0.458032 1
1 5.96046e-08 0
0 0.361381 1
1 0.00759792 0
0.839771 1 0.160229
0.490611 1 0.509389
1 0.473379 0
0.340206 1 0.659794
1 0.201175 0
1 5.96046e-08 0
1 5.96046e-08 0
0.957689 1 0.0423114
1 0.919757 0
0.200931 1 0.799069
1 5.96046e-08 0
1 5.96046e-08 0
1 0.335646 0
0.789333 1 0.210667
1 0.746731 0
0.896517 1 0.103483
0.749715 1 0.250285
0 0.966441 1
0.767812 1 0.232188
0.115308 1 0.884692
1 5.96046e-08 0
1 5.96046e-08 0
0.707407 1 0.292593
0.273005 1 0.726995
1 0.306874 0
1 5.96046e-08 0
1 0.624536 0
1 5.96046e-08 0
1 5.96046e-08 0
0.777144 1 0.222856
1 0.657389 0
1 0.955926 0
1 0.398859 0
1 5.96046e-08 0
1 0.277033 0
1 0.746052 0
1 5.96046e-08 0
0 0.495226 1
1 0.254386 0
1 0.671484 0
0.46605 1 0.53395
1 0.310288 0
1 5.96046e-08 0
1 0.596232 0
0.594286 1 0.405714
0.642765 1 0.357235
1 5.96046e-08 0
1 5.96046e-08 0
1 0.645468 0
1 5.96046e-08 0
0.422231 1 0.577769
1 0.828833 0
0.636544 1 0.363456
0.957625 1 0.0423749
0 0.436357 1
0 0.482218 1
0 0.499044 1
0 0.132553 1
1 0.571528 0
1 5.96046e-08 0
0 0.187218 1
0.225369 1 0.774631
0 0.569331 1
1 0.393564 0
0 0.55261 1
0 0.399922 1
1 0.789663 0
1 5.96046e-08 0
0.862223 1 0.137777
1 5.96046e-08 0
0.533634 1 0.466366
0 0.520235 1
1 0.630391 0
0.506897 1 0.493103
1 5.96046e-08 0
0 0.988371 1
1 5.96046e-08 0
0.49215 1 0.50785
1 5.96046e-08 0
0.811535 1 0.188465
0 0.736534 1
0 0.195287 1
0 0.535374 1
0 0.700922 1
0 0.797191 1
1 0.681859 0
1 5.96046e-08 0
0 0.664516 1
1 5.96046e-08 0
1 0.537325 0
1 0.746089 0
1 5.96046e-08 0
0.198682 1 0.801318
1 0.65375 0
0.870346 1 0.129654
0 0.577658 1
1 5.96046e-08 0
1 5.96046e-08 0
1 0.436583 0
0.832262 1 0.167738
0.204028 1 0.795972
0 0.665493 1
0 0.307229 1
1 5.96046e-08 0
0 0.529438 1
0 0.863753 1
0 0.259818 1
1 5.96046e-08 0
0 0.894052 1
0 0.644003 1
0.350761 1 0.649239
1 0.417121 0
0.722007 1 0.277993
0 0.495241 1
1 0.611178 0
1 0.541174 0
0.0775581 1 0.922442
0 0.265312 1
1 5.96046e-08 0
0 0.565556 1
0 0.736068 1
0 0.36053 1
1 0.927847 0
1 5.96046e-08 0
0 0.294843 1
1 0.47567 0
1 0.437297 0
0.812477 1 0.187523
0 0.575575 1
1 5.96046e-08 0
1 0.463745 0
0 0.474757 1
0 0.929199 1
0 0.835229 1
0 0.167763 1
1 0.0192115 0
1 0.545718 0
0.051986 1 0.948014
0 0.863088 1
0 0.503809 1
1 5.96046e-08 0
0 0.835289 1
1 5.96046e-08 0
0 0.611052 1
0 0.172235 1
0 0.765437 1
1 0.22087 0
0.784016 1 0.215984
0 0.806851 1
0 0.493396 1
1 0.373896 0
0 0.748126 1
1 5.96046e-08 0
1 5.96046e-08 0
0 0.56554 1
0 0.415465 1
1 5.96046e-08 0
1 0.538982 0
