# vtk DataFile Version 3.0
Particle simulation
ASCII
DATASET POLYDATA
POINTS 400 float
5.92135 0.555984 9.14377
7.30041 5.07499 7.66204
0.164433 1.36486 6.83747
4.30913 0.511615 2.71159
9.31321 1.00202 5.6386
4.03563 3.73064 0.855002
2.71161 0.759553 0.665368
7.61534 2.90219 2.45048
8.10777 4.51371 7.89971
2.34557 0.895864 7.68272
7.39633 3.93815 3.38478
5.77661 8.8007 9.60506
9.37284 0.581745 8.9587
3.03406 9.23919 1.80823
6.59126 3.42362 2.902
8.73695 5.21942 9.81207
1.15298 4.63398 0.487304
2.84476 0.191802 2.48472
0.887696 4.80372 6.93469
3.20372 0.814287 2.64404
2.89415 0.17368 1.6442
8.11937 2.14733 1.94994
9.57399 7.04991 10
1.27745 1.76404 0.680885
2.61059 6.15833 0.507123
2.88905 0.294926 2.06442
6.03842 2.09378 4.46386
1.00389 1.81333 0
8.95933 0.23108 3.9915
8.16394 2.28754 1.62777
2.74187 4.67942 9.81026
3.74202 5.21438 3.98798
6.35996 1.36553 5.06232
2.54503 0.336929 3.44641
8.23472 2.34056 1.72338
4.90614 3.4707 0.174196
5.77214 1.85597 1.53954
2.58948 0.476729 1.18636
7.08728 0.36577 2.39351
0.554035 0.736615 5.74137
0 0.303502 5.89317
9.47318 3.04365 6.93249
5.91444 0.744882 9.25953
3.91257 2.22084 5.24888
7.52091 0.558743 5.55384
6.13025 0.498635 1.37967
3.1824 1.04435 4.77732
8.76157 0.952771 5.37865
6.14068 0.578559 1.48298
7.16132 2.97942 2.0979
3.0427 1.45027 3.21882
8.52423 1.94099 4.56195
8.2619 0.343716 8.69214
3.92953 0.305552 7.745
7.24122 0.705765 8.49584
6.50743 0.529724 1.0937
9.89166 2.60218 7.00424
1.50553 0.401665 9.00297
5.95865 1.87259 0.412206
9.894 3.44269 4.61494
1.70637 9.98769 0.311614
6.15594 3.22351 8.62767
0 0.554244 3.38349
3.14962 0.305054 8.02808
0.284239 9.35357 1.50141
1.08849 0.27411 4.09413
4.10792 1.14203 9.34305
2.85315 0.443133 1.59127
6.19247 2.06984 0.258292
5.16965 0.807867 8.25244
7.68042 0.109442 7.02642
2.84239 0.0920418 1.3044
2.63996 0.995932 7.87191
3.12902 0.126496 8.17326
8.12362 0.265786 6.75439
8.68767 0.993984 0.121114
4.16591 1.25199 9.39377
5.21916 0.782835 7.96273
9.12567 4.95352 0.0431577
0.678253 5.86654 9.55238
3.48001 0.75962 1.13149
3.26309 0.199338 1.75983
1.29585 0.653978 1.92321
3.55696 0.432624 1.79306
1.38543 0.719617 9.49984
5.36954 0.868812 8.53178
4.46127 0.798997 5.98846
2.97809 2.49341 2.52747
7.14353 3.86768 3.67884
8.64774 0.30543 0.947909
3.4305 0.580155 0.943053
3.57745 0.457021 0.762282
0.39301 0.897755 5.42015
4.25584 0.137962 2.88172
1.3792 0.556013 9.51976
5.08841 0.278506 9.16962
4.88474 0.409884 9.70465
2.21329 2.63782 0.288392
8.88203 1.51885 6.9246
8.66776 0.273347 0.96954
2.68559 0.487189 2.40083
6.13031 0.28155 2.80395
3.94301 0.718991 2.69398
9.40348 0.772686 9.33674
4.05842 1.98985 0.614038
2.34446 0.331658 1.2109
6.99823 1.37092 8.8797
6.52039 0.474907 1.29551
5.62742 0.547275 2.05193
8.71741 0.21897 1.24766
7.25206 8.52442 8.21361
3.31912 0.141805 8.52821
3.5582 0.928556 0.8847
5.4921 0.547195 1.49083
2.63229 0.265808 1.00948
0 0.980808 5.82471
5.30253 0.537021 8.01933
7.30189 0.0983557 2.4659
5.56734 0.649582 1.86583
7.14063 0.599958 8.60747
2.96645 0.432624 1.54877
4.31459 1.70853 7.87001
7.30531 7.70623 1.66972
3.56139 2.8681 6.81745
7.01567 1.05138 8.60122
3.41796 0.997469 1.34716
4.7276 1.80044 4.8598
3.31599 0.381244 7.97073
0.220882 5.14145 8.99067
2.40694 8.53725 4.09887
3.53615 0.771011 1.1198
3.20331 2.6654 2.50451
6.72717 1.23188 8.68624
7.61633 0.375171 6.29301
3.17069 2.86423 4.60634
1.74356 0.829481 1.05843
2.96873 7.20818 5.59319
3.35973 0.249226 8.07066
3.84854 3.564 6.00174
7.52074 1.05999 8.32578
3.26245 0.43042 1.17892
2.7523 3.12965 9.13974
5.79978 1.1778 0.378435
7.17253 0.421321 8.78393
2.86491 0.625279 2.12199
3.45185 0.0498835 2.0843
7.37409 0.684656 5.47453
0.520721 4.2059 0.249236
2.70595 0.0906598 2.64866
2.32294 1.67421 4.48231
3.2788 0.459185 1.1737
8.82365 1.28977 6.9597
0.749241 0.128515 3.6965
7.26033 1.86959 9.68077
3.36223 2.85541 0.120015
6.57383 0.438617 1.36952
7.49257 0.637384 5.33332
2.37907 0.338571 1.16893
7.84157 0.566771 5.60029
3.92984 0.494576 1.18507
5.41917 4.1139 2.55074
0.283241 1.54817 7.01664
5.29318 0.347632 9.17843
3.17909 0.30441 2.01392
3.01854 1.60729 3.39054
8.27935 0.383657 8.83258
6.34806 0.505663 7.52042
5.25463 1.18223 8.12156
8.65039 1.79637 5.341
0.994913 5.11932 9.34133
3.08503 0.482932 1.10249
4.80608 1.66646 4.75805
5.69924 0.0546301 1.54741
3.43079 0.340773 1.30651
3.65814 1.02446 2.36935
4.70829 3.78273 0.28266
5.82555 0.748962 8.55345
5.60815 0.731758 8.53529
9.81319 1.02477 7.21338
0.598247 8.99753 4.21087
3.534 0.38571 1.81411
3.34599 0.321156 2.93394
6.97865 5.24905 5.20449
3.0084 0.531825 2.02445
5.24477 0.261723 8.91686
3.36147 0.739279 0.926222
3.6241 0.383368 1.58761
0.656019 1.2569 7.00999
7.973 0.778086 5.86062
3.08154 0.419814 1.90733
3.42281 0.237889 1.92892
3.0739 0.327833 2.08354
9.71681 1.36952 7.15413
1.08297 2.04614 4.61852
4.94033 5.77937 0.282732
3.63591 0.385936 1.10197
4.06071 0.401186 2.91463
8.94465 0 1.09195
2.95502 0.266905 2.0604
2.60517 0.519975 2.75628
2.73457 0.251696 1.62869
6.03074 0.596874 1.72332
7.74981 1.13482 5.32661
6.19644 1.00639 8.77647
8.64487 9.24854 0.91605
5.58487 0.574259 8.5404
2.97796 0.0599341 2.33875
1.0594 0.26563 8.84015
1.22841 0.473713 8.67796
8.54523 0.251243 0.879187
3.6575 0.389972 2.27651
6.46112 0.073646 1.26994
5.1014 0.462485 9.8514
7.08679 0.718007 8.86271
7.94642 0.829606 8.79453
5.5454 0.939602 8.39993
3.01203 0.140303 2.29714
2.80785 0.36594 2.21359
4.55286 1.85024 4.55179
8.77847 0.222647 0.712975
4.42204 9.14577 9.48841
7.42553 1.47426 9.66704
5.96235 0.322474 8.32408
2.69829 0.302612 1.06151
5.80246 0.578091 8.33134
2.77254 0.14797 1.38933
5.52027 3.64988 0.0401774
3.27298 0.419453 2.05113
3.03268 0.0925517 2.24496
7.96429 0.351962 8.93785
0.0327287 1.34943 6.27057
5.22937 0.580359 8.81425
7.88892 0.939326 5.56609
3.17325 0.260032 1.25637
5.01653 0.557853 8.0778
1.52822 0.688103 2.04932
4.17715 1.23674 9.29444
3.89444 0.761151 2.4269
3.40873 0.417375 2.35567
1.414 0.650544 8.93441
3.40999 0.698282 1.01424
3.61461 0.175425 1.52579
3.35788 0.795482 2.08224
3.48833 0.342258 2.27151
5.17911 0.554721 9.09261
1.67734 0.908372 1.37913
1.24906 1.78726 0.358204
9.11557 0.564407 8.67944
5.52469 0.698585 1.54295
5.83641 0.495127 8.36391
2.81005 0.235996 1.72492
2.98149 0.84273 4.992
5.69387 0.600765 8.19403
4.26021 0.478245 2.84916
7.3431 0.527636 5.52508
2.91023 0.50482 1.41243
8.79815 0.943179 0.146615
5.14136 0.374708 8.64182
6.30713 0.366719 1.82633
5.75498 0.633365 8.23549
3.31923 0.361929 2.02844
2.50079 3.12937 4.772
5.90117 1.17076 8.51421
8.99205 0.669955 0.531087
5.23764 0.735703 8.74307
3.99911 2.44575 5.07317
3.19146 0.562312 1.23548
5.44657 1.04113 8.92798
7.66377 0.838162 5.76478
3.05172 0.0655563 1.46257
2.85808 0.255073 2.53983
0.861928 0.40931 3.79333
7.06167 0.408352 2.56131
3.66463 0.473503 0.290176
6.04237 0.798138 8.64726
4.89338 0.767828 8.4677
3.982 0.351896 7.42476
4.01652 8.06684 7.44787
1.70211 0.547128 9.90753
3.31571 0.191378 1.78718
8.4735 0.0095071 1.34278
6.14463 0.150687 1.50489
9.85168 2.53833 1.90957
2.86795 0.45292 8.44998
9.40337 2.0784 7.4671
7.6376 0.816074 5.70635
2.83116 0.396896 1.41417
2.55544 0.290286 2.78282
6.04746 0.307247 8.0695
5.95158 8.84864 9.04006
8.83107 0.25726 3.79729
5.86172 0.783522 1.32001
3.12166 0.846523 1.3687
3.13266 0.0854209 7.88034
5.91328 0.697896 8.07685
5.56566 0.405224 8.58615
2.70887 0.317105 2.26129
2.90211 0.761119 1.74768
4.11282 0.805722 0.403563
3.02432 0.474352 1.27712
8.7757 0.315065 1.42046
7.05125 0.584607 8.87157
2.57546 1.1334 6.68023
6.27772 0.0418899 2.59265
3.45273 0.786132 1.00687
0.380848 1.00602 1.25061
2.19176 0.892213 1.76769
3.04898 0.268279 2.16292
2.36065 1.11503 6.41371
3.99989 0.456899 2.85693
5.11843 0.575786 7.8836
8.90578 1.31633 6.973
7.84152 0.520469 5.90957
2.81329 0.223292 2.11189
2.32741 0.32807 2.76021
0.756005 0.760757 9.58633
2.19135 0.793974 1.16625
6.14158 0.908833 1.49283
5.85536 0.585725 1.49918
3.65154 0.247133 2.1491
5.40509 0.616646 8.71865
1.40586 0.543404 2.19133
5.45111 0.545363 8.61935
3.37798 0.289212 2.63201
8.80295 0.406989 1.45278
8.55363 0.321359 0.870774
3.47012 0.566307 2.35218
5.9622 0.779086 1.38997
6.25083 0.111964 2.42817
3.0421 0.257265 1.36116
7.15912 0.896883 8.70047
3.38115 0.031758 1.66088
5.62114 0.541335 9.20295
2.74506 0.58113 1.31815
6.03187 0.258924 1.38739
9.39598 2.04525 7.22047
5.40662 0.87691 1.40953
3.24786 0.219948 1.86795
8.58456 0.0484443 0.970419
3.5905 0.601212 2.23887
5.55864 0.700254 8.46004
3.75415 0.109815 1.91471
5.65789 0.434914 8.64624
5.04359 0.206108 7.90184
2.83559 0.496897 1.39787
2.77046 0.197321 1.29462
6.163 0.533142 1.71019
3.04375 0.263107 1.74278
2.71829 0.295158 1.29267
3.77647 0.863448 2.79027
2.55954 0.312764 1.57871
3.47169 0.512609 2.28927
6.45622 0.400893 7.91795
5.36965 0.661489 8.30736
3.55465 0.471011 2.58465
2.96253 0.480873 1.86844
6.25796 0.65108 1.26015
5.39918 0.0857978 9.09154
2.63858 0.152947 2.15495
3.18525 0.484229 1.65928
6.23003 0.289498 1.2681
5.37065 0.930642 8.88234
5.7431 1.106 8.5564
2.82798 0.328427 1.9221
2.38147 0.114908 1.87353
7.70981 0.496173 5.719
5.77903 0.744172 8.52079
5.02982 0.256979 7.90779
5.89835 0.686344 8.49742
3.54031 0.621695 2.67582
6.21167 0.376062 1.24238
8.79271 1.35282 7.00096
5.49892 0.604306 8.38183
3.41259 0.381123 2.45828
2.84488 0.299669 2.55931
7.56465 0.506894 5.46715
5.7786 0.759834 8.34814
5.86701 0.664821 8.4401
5.34872 1.01321 8.16184
3.06873 0.128907 1.25962
3.19483 0.071893 2.37698
3.0196 0.362093 1.86382
5.88906 1.05345 8.22843
2.92269 0.126578 1.64138
3.19509 0.41736 7.8975
5.43987 0.851235 8.43679
3.48465 0.17699 2.12587
3.2017 0.395934 1.99422
6.75985 2.72953 8.22143
6.47411 0.115823 1.28328
3.15201 0.117084 2.37646
3.3883 0.305189 1.80668
5.42412 0.711173 8.50646
3.27619 0.0581782 1.3114
3.19395 0.365397 7.96208
5.4579 1.06485 8.69068
3.40534 0.171967 2.08911
3.49678 0.622099 2.33499
8.74205 0.276372 0.787771
6.43573 0.146237 1.27213
POINT_DATA 400
SCALARS particleColor float 3
LOOKUP_TABLE default
0 0.832144 1
0.469025 1 0.530975
0 0.553438 1
0 0.840319 1
0 0.885951 1
0.472533 1 0.527467
0.296301 1 0.703699
0 0.854964 1
1 0.68247 0
0 0.581441 1
0.274567 1 0.725433
1 5.96046e-08 0
0.293141 1 0.706859
0.995624 1 0.00437641
0 0.444824 1
0 0.401688 1
0 0.790784 1
0 0.410478 1
0.16341 1 0.83659
0.0401362 1 0.959864
0 0.63489 1
0.378567 1 0.621433
1 5.96046e-08 0
0 0.584428 1
0.579967 1 0.420033
0.0867192 1 0.913281
1 5.96046e-08 0
0 0.852111 1
0 0.667367 1
0.142405 1 0.857595
0.00404526 1 0.995955
0.182627 1 0.817373
0.243043 1 0.756957
0 0.592649 1
0 0.891559 1
0 0.999576 1
0.264858 1 0.735142
0 0.534028 1
0 0.807253 1
0.12521 1 0.87479
0 0.437172 1
0 0.904362 1
0.373976 1 0.626024
0.133143 1 0.866858
0 0.705142 1
0 0.615024 1
0.84923 1 0.15077
0.731739 1 0.268261
0 0.433317 1
0 0.969378 1
0 0.784035 1
1 5.96046e-08 0
0 0.805148 1
0 0.593701 1
0 0.5845 1
0 0.536483 1
0 0.936988 1
0 0.315408 1
0 0.767342 1
1 5.96046e-08 0
1 0.684313 0
0 0.447324 1
0.219206 1 0.780794
0 0.582863 1
0 0.695303 1
0 0.386312 1
0 0.638807 1
0.491621 1 0.508379
0 0.622997 1
0 0.765955 1
0.256757 1 0.743243
0 0.484793 1
1 0.550362 0
0 0.68164 1
0 0.384962 1
0.148751 1 0.851249
0 0.457915 1
0 0.677466 1
0.491917 1 0.508083
0 0.927302 1
0 0.339813 1
0 0.722341 1
0 0.339235 1
0 0.190022 1
0 0.559651 1
0 0.402761 1
0.600746 1 0.399254
0.0973496 1 0.90265
0 0.56609 1
0 0.722386 1
0 0.417108 1
0 0.585666 1
0 0.53842 1
0 0.360856 1
0 0.695185 1
0 0.698783 1
0 0.571304 1
0 0.798199 1
0.248064 1 0.751936
0 0.7341 1
0 0.462904 1
0.295978 1 0.704022
0 0.805686 1
0.234701 1 0.765299
0.35719 1 0.64281
0 0.407258 1
0 0.864471 1
0 0.416648 1
0 0.289359 1
0 0.996569 1
0 0.657675 1
0 0.594976 1
0.0154335 1 0.984566
0 0.414803 1
0 0.382214 1
0 0.89251 1
0 0.416607 1
0 0.607567 1
0 0.212281 1
0 0.678684 1
0 0.437872 1
1 5.96046e-08 0
0.273481 1 0.726519
0.303329 1 0.696671
0 0.337957 1
0 0.5556 1
0.0862512 1 0.913749
0 0.341267 1
0 0.929945 1
0.654384 1 0.345616
0 0.683492 1
0 0.467224 1
0 0.213575 1
0 0.774537 1
0.533196 1 0.466804
0 0.183641 1
1 5.96046e-08 0
0 0.278192 1
0.485311 1 0.514689
0 0.587581 1
0 0.594629 1
0 0.557738 1
1 5.96046e-08 0
0 0.530001 1
0 0.268488 1
0 0.562677 1
0 0.762172 1
0 0.859548 1
0 0.759208 1
1 5.96046e-08 0
0 0.568214 1
0 0.582486 1
0 0.815227 1
0 0.49014 1
0 0.721916 1
0 0.273229 1
0.478415 1 0.521585
0 0.474382 1
0 0.735738 1
0 0.799788 1
0 0.869586 1
0 0.636327 1
0 0.465404 1
0 0.835412 1
0.215623 1 0.784377
0 0.79678 1
0 0.605026 1
0 0.450616 1
0 0.779911 1
1 5.96046e-08 0
0 0.777059 1
0 0.9353 1
0 0.695171 1
0 0.680166 1
0 0.371605 1
0.275319 1 0.724681
0 0.879716 1
0.0524757 1 0.947524
0.454355 1 0.545645
0.873452 1 0.126548
0 0.31889 1
0 0.826562 1
0 0.593741 1
0 0.811392 1
0 0.26993 1
0 0.615097 1
0 0.710269 1
0 0.322117 1
0 0.476897 1
0 0.332227 1
0 0.250422 1
0 0.598306 1
0.741299 1 0.258701
0.169494 1 0.830506
1 0.233131 0
0 0.455223 1
0 0.24925 1
1 5.96046e-08 0
0 0.594263 1
0 0.634734 1
0 0.544484 1
0 0.497879 1
0 0.375464 1
0 0.296357 1
0 0.91077 1
0 0.555905 1
0 0.880869 1
0 0.71355 1
0 0.380767 1
0 0.415846 1
0 0.361904 1
0 0.470008 1
0 0.372783 1
0 0.813912 1
0.369519 1 0.630481
0 0.258988 1
0 0.905922 1
0 0.520142 1
0 0.418809 1
0 0.402869 1
1 0.343196 0
0.0852344 1 0.914766
0 0.915364 1
0 0.362108 1
0 0.872159 1
0 0.413681 1
0 0.536814 1
0 0.543456 1
0 0.16778 1
0 0.284612 1
0 0.386952 1
0 0.876503 1
0 0.687624 1
0 0.313006 1
0 0.741749 1
0.227048 1 0.772952
0 0.928579 1
0 0.310042 1
0 0.826142 1
0.00938114 1 0.990619
0 0.853043 1
0 0.909234 1
0 0.468003 1
0 0.825228 1
0 0.237836 1
0 0.720993 1
0.235113 1 0.764887
0.575292 1 0.424708
0 0.584397 1
0 0.35847 1
0 0.242003 1
0.998774 1 0.00122589
0 0.137615 1
0.03454 1 0.96546
0 0.149629 1
0 0.404131 1
0 0.814677 1
0 0.562635 1
0 0.387611 1
0 0.227874 1
0 0.642066 1
0 0.909773 1
0 0.732281 1
0.38338 1 0.61662
0 0.986018 1
1 0.816941 0
0.0710864 1 0.928914
0 0.230132 1
0 0.443857 1
0 0.556399 1
0 0.889195 1
0.615455 1 0.384545
0 0.207231 1
0 0.655931 1
0 0.557047 1
0 0.193774 1
0 0.369485 1
0 0.677558 1
0.264738 1 0.735262
0 0.361817 1
0 0.662781 1
0 0.424829 1
0.626574 1 0.373426
0.217059 1 0.782941
0 0.627353 1
0 0.49697 1
0 0.425955 1
0 0.819386 1
0 0.932948 1
0.182887 1 0.817113
0 0.853727 1
0 0.380392 1
0 0.688221 1
0 0.735636 1
0 0.05137 1
0 0.549624 1
0 0.482937 1
0 0.543344 1
0.143801 1 0.856199
0 0.377407 1
0 0.414243 1
0.112958 1 0.887042
0.494142 1 0.505858
0.31267 1 0.68733
0 0.628408 1
0 0.834507 1
0 0.435635 1
0 0.606257 1
0 0.188416 1
0.0972279 1 0.902772
0 0.645466 1
0 0.46689 1
0 0.886998 1
0 0.906572 1
0 0.495257 1
0 0.965103 1
0 0.539539 1
0 0.895208 1
0 0.684581 1
0 0.703468 1
0 0.431303 1
0.163225 1 0.836775
0 0.776627 1
0 0.427277 1
0 0.765603 1
0 0.422754 1
0 0.342504 1
0 0.488048 1
0 0.936966 1
0.0600857 1 0.939914
0.306253 1 0.693747
0 0.235755 1
0 0.384146 1
0 0.524662 1
0.392644 1 0.607355
0.320419 1 0.679581
0.220481 1 0.779519
0 0.459768 1
0.108247 1 0.891753
0 0.813824 1
0.0283357 1 0.971664
0.0593185 1 0.940681
0 0.452466 1
0 0.990794 1
0 0.46616 1
0 0.295789 1
0 0.378871 1
0 0.769443 1
0 0.312032 1
0 0.802378 1
0.0992717 1 0.900728
0 0.200306 1
0 0.569766 1
0 0.804502 1
0.0140671 1 0.985933
0 0.273122 1
0 0.704409 1
0 0.591465 1
0 0.29155 1
0.0335394 1 0.966461
0 0.454797 1
0 0.670823 1
0 0.538964 1
0 0.227965 1
0 0.676699 1
0 0.14456 1
0 0.657468 1
0 0.592502 1
0 0.544827 1
0 0.919083 1
0 0.363421 1
0 0.689251 1
0 0.561585 1
0 0.951589 1
0 0.490105 1
0 0.721231 1
0 0.601234 1
0 0.735332 1
0 0.39996 1
0 0.447374 1
0 0.411288 1
0 0.277919 1
0 0.43667 1
0 0.639828 1
0 0.392075 1
0 0.362498 1
0 0.473753 1
0 0.722632 1
1 5.96046e-08 0
0 0.747913 1
0 0.508437 1
0 0.47083 1
0 0.631409 1
0 0.452975 1
0 0.264978 1
0 0.76614 1
0 0.514554 1
0.304701 1 0.695299
0.0892629 1 0.910737
0 0.705672 1
