# vtk DataFile Version 3.0
Particle simulation
ASCII
DATASET POLYDATA
POINTS 400 float
4.04725 2.05042 5.66137
7.07953 3.26379 2.68571
2.31052 5.92923 6.79447
2.60706 2.22728 1.37161
4.51229 0.44047 5.48892
7.24002 2.16231 8.3764
1.71705 9.48105 0
2.6833 9.72852 4.84498
9.37402 5.96154 8.65463
9.59299 3.4987 7.11352
9.56986 0.463811 8.97037
5.36063 4.30049 3.02728
9.93901 6.13204 8.34854
0.330494 9.45393 2.03629
5.95711 1.29493 3.87145
2.58409 0.314516 4.46445
8.53364 5.97396 8.88624
4.53814 0.638321 4.53793
2.83091 5.58773 5.54565
0.129997 9.35379 0.462736
1.67969 1.41797 7.14826
5.27306 8.49559 3.01291
8.04637 5.81594 3.67711
7.85983 7.49873 7.5618
9.26855 3.78893 1.71881
7.42018 8.81981 4.34358
4.54628 8.37063 2.06372
8.20881 0.522177 9.55366
5.25242 1.49105 8.10737
3.78976 2.25496 8.88854
6.40785 1.18464 9.98969
9.60729 2.10341 2.5582
9.92462 0.466746 4.21667
0.118421 7.22192 0.25727
2.24654 1.32304 1.87557
6.45348 8.9395 1.93961
8.99881 0.516824 7.95911
9.34423 2.86531 2.06335
9.02187 4.52114 7.38858
1.65561 9.32616 3.62315
8.18247 5.10464 0.523785
2.13382 8.93049 5.93458
1.0888 5.43364 3.87124
5.83975 1.30586 7.16032
2.9577 7.13064 9.39662
6.22225 8.73223 9.14203
10 1.98418 9.48856
6.67386 8.37403 4.46942
4.90824 8.06995 8.85191
4.18762 6.5271 1.19743
1.97965 5.80416 8.17645
8.14444 2.4141 7.19199
0.855728 1.47797 2.42709
9.68491 3.34764 5.50718
1.17724 4.97975 4.10857
3.50189 1.91299 1.07197
1.53844 9.33377 3.90261
3.1941 0.113845 5.84723
8.49805 1.53902 6.86459
6.18 2.09415 3.14416
9.15579 3.87446 0.530598
5.60196 5.03792 0
2.54627 9.6733 1.28169
6.74241 7.61938 6.58101
0.537886 4.1423 8.66232
3.14985 5.5653 7.38589
7.94065 3.13619 1.82267
8.52104 2.68407 0.59489
1.3823 5.98834 5.2594
3.37631 0.296709 6.33558
4.10723 0.49356 3.34026
9.89016 4.4569 1.99853
0.318899 5.42589 2.19039
7.06891 3.757 4.10048
0.166802 7.02669 7.89295
9.02723 6.70527 2.35663
2.23218 9.03664 5.88143
4.07212 0.812663 0.483555
4.02292 5.54753 6.73345
8.62212 7.2527 1.83393
7.58412 4.07142 0.772036
5.59501 6.43506 0.781931
2.38394 5.96041 6.09272
7.7358 5.28425 2.21997
1.15941 8.48993 9.27577
9.92986 7.92166 5.6839
1.68895 8.16336 3.47486
9.32766 7.25065 9.193
7.2085 3.75191 9.74388
10 0.79984 4.64309
4.41284 8.36022 3.19766
3.44664 4.21162 4.35663
9.04422 1.02503 7.78456
6.45464 6.69517 9.36347
6.17627 0.610874 4.22043
9.21646 2.66635 3.00265
1.39398 8.19508 3.60366
6.44604 9.24356 0.281093
6.41445 4.18884 5.47339
8.92924 1.65808 9.01901
3.04739 6.57411 6.72554
0.0692612 2.52788 0.932103
1.82401 5.26737 4.50277
6.5294 3.20696 7.2058
3.46203 9.48771 2.61163
3.92045 7.79207 3.58667
3.68211 8.57527 2.44378
5.83195 3.05762 2.8031
2.5498 9.73091 4.89722
5.5184 1.78058 5.91173
10 3.0928 0.471249
6.02454 4.31056 3.71862
0.14262 0.233595 7.96634
0.613934 8.66758 4.16778
2.26268 2.71171 7.62127
1.21189 3.38746 3.61658
4.50124 10 2.67032
4.83621 1.99555 2.96977
10 0.710813 9.55978
3.46516 2.22474 9.80314
2.43055 3.16794 2.0867
5.94827 3.2083 6.82022
3.52249 2.65191 9.14687
4.44848 3.63398 2.06686
9.48122 4.06435 8.71609
3.57463 0.232816 6.02268
9.07674 7.01692 2.31844
9.56069 8.46646 1.58624
2.04729 1.47488 2.69026
5.73239 7.20512 1.77889
0.381506 9.32417 6.67398
2.28829 8.20675 1.20337
4.37173 0 0.429561
1.19917 2.55316 2.48418
7.99045 0.121144 0.41838
5.24943 4.90588 8.97603
7.26738 2.64835 3.68627
4.32266 9.40886 5.21684
6.89279 1.2903 7.74784
8.03872 4.60882 3.61085
5.25234 0.481719 4.31249
9.75312 0.447048 4.68863
9.42108 1.37992 2.56184
8.88691 7.093 9.14758
4.08409 3.52347 3.86966
6.20264 1.91643 3.6256
7.87117 3.28616 3.42325
9.02884 0.382893 9.16846
9.04214 1.0731 8.61165
5.19364 4.75569 4.02824
5.51427 0.579324 4.4901
9.51383 6.1257 8.56109
3.48511 7.31677 7.8211
5.2 6.58331 9.75194
4.01771 4.0533 3.55706
8.0872 8.96778 8.53773
2.31681 8.53466 5.34747
8.014 8.07739 3.00014
4.6179 4.50052 1.43054
9.94278 0.870504 8.75658
8.08107 7.54404 7.04046
1.98818 6.91102 8.92968
6.25565 9.54582 5.66812
3.27695 6.96491 7.27003
6.45881 4.3914 7.46186
6.51213 3.25043 5.57533
2.95505 3.16289 2.67182
7.51673 2.77132 7.82475
1.59273 4.3576 9.70141
8.23724 7.85054 0.468097
0.894648 0.521102 9.57735
3.14785 1.80456 8.09692
0.685454 6.22662 8.50454
9.19096 7.44002 2.2985
0.0189469 3.51891 1.59803
2.61433 8.7045 8.37609
7.00118 4.8312 1.16462
7.8003 8.76385 7.19767
5.87008 8.19926 3.73771
9.16227 5.40502 3.06498
8.1274 1.90535 3.20373
5.59094 1.01227 10
0.378161 8.80456 3.96573
1.70293 6.3364 5.98873
7.9047 10 6.25797
3.67019 1.51989 6.81511
5.33906 0.251919 4.38676
8.94674 7.79353 1.49526
7.3746 5.58598 3.79325
6.25531 0.408442 5.78121
6.33683 5.38698 7.31874
2.78316 0 4.2323
9.86619 7.34833 7.53841
1.94789 8.56739 8.64223
0.077842 1.62272 8.66019
8.83712 2.9229 3.3674
2.10346 0.376573 1.06048
0.409966 0.158039 9.9403
8.61223 1.13174 5.38929
0.990897 4.37882 4.9112
5.37239 0.351681 4.54284
2.4346 3.13408 1.97654
7.05172 7.78106 2.21181
1.78414 6.77269 9.4482
8.50793 7.94508 7.91569
6.45693 8.69831 8.29219
6.70457 8.46635 2.36278
4.14824 7.6246 4.62231
10 3.50924 0.94721
1.54941 1.05776 9.57621
5.41389 0.24638 4.35649
4.98834 0.755257 3.67791
1.01248 3.89235 1.31397
2.63993 0.238039 4.27852
0 8.84674 1.72879
2.56444 4.62032 9.96621
4.89165 0.462548 4.61169
4.33819 8.17097 0.79748
1.81271 7.25317 8.21071
1.50951 9.08282 0.832511
2.06364 4.41369 3.06676
5.34942 6.93357 9.23591
7.08725 5.32215 4.60233
4.33858 0.386291 4.27522
1.92495 7.67101 8.79028
2.70869 9.47664 3.41152
0.641268 9.63156 2.14263
4.45309 0.134243 5.5569
5.25162 0.440785 4.61888
6.82091 8.60851 1.36111
9.56285 3.12816 9.55388
4.73261 7.35815 5.18954
9.44448 0.950361 7.8943
4.32899 0.0987513 5.67847
0.838398 4.76322 6.76503
8.75077 3.6894 5.49482
8.56914 4.77167 2.95424
6.19657 5.55988 7.92585
5.35794 0.349189 4.55279
9.47899 3.55038 5.23376
5.65771 0.406927 4.23268
9.97685 1.69028 2.31311
6.5875 10 4.24127
6.67233 0.27964 2.81719
2.63775 2.14073 2.63429
2.10257 8.48659 6.11347
2.36246 6.76783 1.25885
6.35121 9.20473 7.83209
5.09088 6.32222 4.65297
1.05204 1.21107 8.99604
5.03721 0.368889 4.47627
2.76037 1.12768 1.12444
7.1722 4.11179 0.850505
3.05294 9.99985 0.507166
4.03921 4.69169 3.83969
7.99038 2.1022 2.67849
3.94989 4.24571 2.43969
2.29569 0.64846 8.39924
7.60568 9.71345 7.29246
8.74121 1.92206 0.200044
3.24661 8.33214 1.87194
5.38057 9.24906 0.69511
6.36104 1.27606 2.81163
3.68706 1.71711 0.380681
0.783563 0 3.82314
8.1442 7.28425 2.90446
7.44925 7.10648 1.55373
8.1394 6.68368 9.39847
4.83692 9.23298 5.14604
0.479124 4.7207 2.72073
4.88067 0.40947 4.50519
3.41386 7.86825 8.19213
8.90179 8.65587 1.50041
7.27915 9.25409 9.62458
7.00681 6.53197 3.7434
7.35313 3.61923 0.833481
8.28976 3.21505 3.69152
2.88684 0.243719 7.59439
8.39424 9.45279 2.05383
5.12908 0.366361 4.52892
6.94537 2.33307 3.29866
7.69531 0.39311 2.94513
5.1676 6.50189 1.78167
7.8515 6.58211 7.08601
9.08955 2.8228 3.18012
3.49377 0.0623173 4.7017
4.27261 0.523566 4.40915
5.66631 6.76183 6.01345
7.37612 6.70332 9.5476
4.05356 2.34398 9.34199
0.74902 5.72193 6.27822
10 5.98382 0.477779
5.14018 2.99873 0.364757
5.59245 7.49362 8.76173
10 3.67038 0.411985
1.99477 0.793393 8.26914
4.94451 0.123828 4.5675
4.93179 0.253175 4.42531
5.35359 0.763604 4.5271
5.20957 0.269013 4.77621
7.30718 0.481052 7.67275
9.23164 2.73051 4.87225
4.82068 0.14048 4.69559
0.283684 0.631638 7.68959
4.7455 0.403295 4.81346
3.62807 5.55878 0
5.68264 0.579138 4.37721
5.42197 0.487127 4.45294
8.01909 5.08071 1.95703
6.77164 6.42427 4.17868
6.26995 8.13965 10
9.30085 0.982707 9.80295
2.09792 6.94675 2.27383
4.48349 0.416796 4.4264
8.14049 9.78941 7.84855
7.34139 0 6.42707
6.09325 7.97362 2.07493
7.95951 5.78896 4.12997
7.43996 0.753493 0.247408
0.889782 9.0713 8.89732
2.0215 0.906861 8.30949
6.95177 5.55743 5.53817
1.76685 0.551151 8.11906
5.60188 0.531102 4.40791
4.16804 0.504998 4.1072
4.60212 7.93658 1.25094
4.92822 0.199467 4.53556
9.47248 5.07095 7.52302
0.432832 2.98297 6.08699
5.30101 0.330162 4.33594
0.96214 7.33418 7.78754
1.42283 0.433208 0.587802
10 4.34429 1.94386
8.86479 0.48416 9.18572
9.56521 1.94788 4.8718
8.60706 2.62345 2.10292
0.348086 0 9.0675
5.60737 0.442151 4.34187
4.07432 8.44643 9.0303
4.91639 9.61049 5.18919
4.49293 1.39676 5.51884
2.09099 7.44914 8.41471
8.98639 2.81746 2.19644
1.79308 0.95693 8.068
5.06025 0.575104 4.81241
5.30017 0.598594 4.02403
9.7502 0.792074 4.52295
5.76525 0.155167 4.17561
5.69881 0.127904 4.17263
2.29977 3.3587 7.20677
5.66538 0.220158 4.66726
5.38638 0.414031 4.04676
1.64811 8.54998 8.10527
8.63646 2.15138 8.47043
3.17132 2.23231 8.47065
5.20774 0.295937 4.76662
7.22149 1.18029 1.9766
0.125271 3.28444 6.18705
5.58989 0.380299 4.57593
5.4928 0.767805 4.67944
9.12912 2.03085 4.04229
1.78993 0.85317 8.24209
1.86107 0.644627 8.24084
5.93795 0.512773 4.50618
5.14208 0.127809 4.7997
9.40657 2.14803 4.8676
1.76226 0.749872 8.24076
7.01442 6.65511 9.30377
1.69097 0.299064 8.02492
9.61852 0.431448 8.97676
9.73842 0.547545 4.59572
6.15695 0 8.15138
9.61512 2.56328 3.38311
4.21713 0.392243 4.52748
4.77476 0.482942 4.46223
9.45203 0.121882 4.41726
1.74601 1.06958 8.02482
1.95374 0.722525 8.10789
1.72511 4.32918 8.62437
6.02726 0.264848 4.33035
5.25709 0.644594 4.45515
5.2093 0.305486 4.6481
7.04643 3.69559 0.715063
5.69613 0.893142 4.40184
0.00542012 6.13762 2.24182
1.93816 0.763381 8.24708
5.48749 0.340648 4.17001
5.45631 0.135819 4.58007
1.61275 8.90816 7.31543
1.07715 0.0837035 5.74409
5.36917 0.757158 4.42545
5.82037 0.259319 4.57941
1.48586 0.978446 7.78543
5.01036 0.733205 4.39747
1.72205 6.49998 6.30487
2.1783 1.10389 8.11801
5.4519 0.55907 4.58884
4.5859 2.56193 0.158275
5.72603 7.42004 6.65328
5.41553 2.23138 0.960013
POINT_DATA 400
SCALARS particleColor float 3
LOOKUP_TABLE default
0.943761 1 0.0562386
1 5.96046e-08 0
0.351704 1 0.648296
1 0.658302 0
1 0.98575 0
1 0.840459 0
0.810862 1 0.189138
0.978537 1 0.0214633
1 5.96046e-08 0
0.864152 1 0.135848
1 0.961863 0
1 5.96046e-08 0
0.233369 1 0.766631
1 5.96046e-08 0
1 0.55778 0
1 5.96046e-08 0
1 5.96046e-08 0
0 0.218996 1
1 0.606614 0
0.840821 1 0.159179
1 0.709034 0
0.751717 1 0.248283
1 0.170128 0
1 0.545425 0
1 0.358349 0
1 5.96046e-08 0
1 5.96046e-08 0
1 5.96046e-08 0
0.468723 1 0.531277
0 0.726357 1
0.462845 1 0.537155
0 0.823878 1
1 0.473426 0
0.567389 1 0.432611
0.397985 1 0.602015
0.803038 1 0.196962
0.754637 1 0.245363
0 0.88815 1
0.218371 1 0.781629
0.58327 1 0.41673
1 0.995443 0
1 0.621385 0
1 5.96046e-08 0
1 5.96046e-08 0
0 0.665157 1
1 5.96046e-08 0
1 5.96046e-08 0
1 5.96046e-08 0
1 0.057824 0
1 5.96046e-08 0
1 5.96046e-08 0
1 0.598973 0
1 0.273357 0
1 0.656291 0
1 0.566997 0
0.0540067 1 0.945993
1 0.449764 0
0.605881 1 0.394119
1 0.653661 0
1 0.993142 0
0.771358 1 0.228642
1 0.40426 0
1 0.746007 0
1 5.96046e-08 0
1 5.96046e-08 0
1 0.977934 0
0.626366 1 0.373634
0 0.629927 1
0.552309 1 0.447691
1 0.141891 0
0.586211 1 0.413789
0.490713 1 0.509287
1 0.825278 0
0.370813 1 0.629187
1 0.669905 0
0.348798 1 0.651202
1 5.96046e-08 0
1 0.440205 0
0 0.854028 1
0.952994 1 0.0470064
0.994482 1 0.00551814
0.452513 1 0.547487
1 0.443103 0
1 0.468364 0
0.948644 1 0.0513563
1 5.96046e-08 0
1 5.96046e-08 0
1 5.96046e-08 0
1 5.96046e-08 0
1 5.96046e-08 0
1 5.96046e-08 0
1 5.96046e-08 0
1 0.498238 0
1 0.852947 0
0 0.946286 1
0.443886 1 0.556114
1 0.358298 0
1 5.96046e-08 0
0.256777 1 0.743223
1 0.839724 0
0.372371 1 0.627629
0.562384 1 0.437616
1 5.96046e-08 0
0.942739 1 0.0572613
1 5.96046e-08 0
1 5.96046e-08 0
1 0.893229 0
1 0.481297 0
0.920401 1 0.0795993
1 5.96046e-08 0
1 5.96046e-08 0
1 5.96046e-08 0
0.822667 1 0.177333
1 5.96046e-08 0
0.762422 1 0.237578
0.990851 1 0.00914949
1 5.96046e-08 0
0.585 1 0.415
0.766427 1 0.233573
1 5.96046e-08 0
1 0.677896 0
0 0.359339 1
1 0.252264 0
1 5.96046e-08 0
1 5.96046e-08 0
0 0.831026 1
0.882248 1 0.117752
1 5.96046e-08 0
1 5.96046e-08 0
1 5.96046e-08 0
0.824003 1 0.175997
1 0.118829 0
1 0.134292 0
0.817988 1 0.182012
1 5.96046e-08 0
0.449201 1 0.550799
1 5.96046e-08 0
0.0279111 1 0.972089
0.275858 1 0.724142
0.119632 1 0.880368
0 0.45616 1
0.856377 1 0.143623
0.428184 1 0.571816
1 5.96046e-08 0
1 5.96046e-08 0
1 5.96046e-08 0
0 0.969654 1
0.254423 1 0.745577
0.59793 1 0.40207
0.368693 1 0.631307
0 0.188176 1
1 5.96046e-08 0
0.216976 1 0.783024
0.447183 1 0.552817
1 5.96046e-08 0
1 5.96046e-08 0
1 0.497227 0
1 0.293071 0
1 0.755687 0
1 5.96046e-08 0
1 0.873137 0
1 0.475022 0
1 5.96046e-08 0
0.881656 1 0.118344
1 5.96046e-08 0
0.564595 1 0.435405
0.886705 1 0.113295
1 5.96046e-08 0
1 5.96046e-08 0
0.319872 1 0.680128
0.812423 1 0.187577
0.655934 1 0.344066
0 0.845105 1
1 0.0770913 0
1 5.96046e-08 0
0 0.910368 1
1 5.96046e-08 0
0.971595 1 0.0284054
1 5.96046e-08 0
1 0.930425 0
1 0.601724 0
0.671218 1 0.328782
0 0.684667 1
0.765276 1 0.234724
1 5.96046e-08 0
1 5.96046e-08 0
0 0.492537 1
1 0.774503 0
1 0.174417 0
1 5.96046e-08 0
0.552189 1 0.447811
0.836372 1 0.163628
1 0.550815 0
0.191957 1 0.808043
1 0.769406 0
0.710532 1 0.289468
0.0136335 1 0.986367
1 5.96046e-08 0
0 0.284077 1
0.969837 1 0.0301634
0 0.13428 1
0 0.938664 1
0.520192 1 0.479808
1 0.731599 0
1 0.0342319 0
0.864328 1 0.135672
1 5.96046e-08 0
1 0.839295 0
0.751868 1 0.248132
1 0.486167 0
0 0.363355 1
0 0.587921 1
1 0.401951 0
0 0.760126 1
1 0.316253 0
0.674222 1 0.325778
0 0.700119 1
0.820316 1 0.179684
1 5.96046e-08 0
1 5.96046e-08 0
1 5.96046e-08 0
1 0.3309 0
1 5.96046e-08 0
0 0.536114 1
1 5.96046e-08 0
1 0.263226 0
0.517217 1 0.482783
0 0.500087 1
0 0.535546 1
1 5.96046e-08 0
0.432725 1 0.567275
1 0.875033 0
1 5.96046e-08 0
0 0.792876 1
1 0.849385 0
1 0.883828 0
1 0.635218 0
1 5.96046e-08 0
0 0.409369 1
1 0.148765 0
0 0.678885 1
0 0.547489 1
0.923218 1 0.0767816
1 0.828802 0
1 5.96046e-08 0
0.638492 1 0.361508
1 0.249442 0
1 5.96046e-08 0
1 5.96046e-08 0
1 0.264103 0
0 0.473439 1
0.406691 1 0.593309
1 5.96046e-08 0
1 0.328106 0
1 0.779918 0
0 0.75361 1
1 0.616524 0
0 0.401156 1
0.779213 1 0.220787
1 0.98317 0
1 5.96046e-08 0
1 0.230974 0
1 5.96046e-08 0
1 5.96046e-08 0
1 5.96046e-08 0
1 5.96046e-08 0
1 5.96046e-08 0
0.606162 1 0.393838
1 0.717255 0
1 5.96046e-08 0
0 0.490171 1
1 5.96046e-08 0
0 0.887406 1
0.956291 1 0.0437092
1 0.761274 0
0.298349 1 0.701651
0.844728 1 0.155272
1 5.96046e-08 0
1 5.96046e-08 0
0.0826432 1 0.917357
0.122354 1 0.877646
0 0.50897 1
1 5.96046e-08 0
1 0.218148 0
1 5.96046e-08 0
1 5.96046e-08 0
0 0.635793 1
1 5.96046e-08 0
1 0.674316 0
0.138401 1 0.861599
1 5.96046e-08 0
1 0.926699 0
1 0.664362 0
1 5.96046e-08 0
1 5.96046e-08 0
0 0.366724 1
0 0.406232 1
0 0.465016 1
0.0924511 1 0.907549
0 0.41712 1
1 5.96046e-08 0
1 0.297664 0
0 0.684748 1
1 0.448862 0
0 0.7149 1
1 5.96046e-08 0
0 0.613822 1
0 0.182618 1
1 0.355192 0
1 0.746791 0
0.842156 1 0.157844
1 5.96046e-08 0
1 0.782056 0
0 0.850089 1
0.336488 1 0.663512
1 0.595179 0
1 5.96046e-08 0
0.841493 1 0.158507
1 0.366556 0
1 5.96046e-08 0
0.201313 1 0.798687
1 0.509846 0
0 0.21738 1
0 0.358738 1
0 0.754734 1
0.280991 1 0.719009
0 0.796738 1
1 0.587191 0
1 5.96046e-08 0
0 0.275378 1
0.0354417 1 0.964558
1 0.185548 0
1 0.439726 0
1 5.96046e-08 0
0 0.946595 1
1 5.96046e-08 0
0.161808 1 0.838192
0 0.292636 1
1 0.577969 0
1 5.96046e-08 0
0.609313 1 0.390687
1 5.96046e-08 0
1 5.96046e-08 0
0 0.565216 1
0 0.492222 1
0.0276601 1 0.97234
0 0.448982 1
0 0.482925 1
0 0.976924 1
0.0309538 1 0.969046
0 0.683519 1
0 0.561179 1
1 0.933433 0
1 0.478751 0
0.0391519 1 0.960848
0 0.547898 1
1 0.133573 0
1 5.96046e-08 0
0 0.987659 1
0 0.256871 1
0.0440438 1 0.955956
0 0.445766 1
0 0.262463 1
0 0.595246 1
0 0.712686 1
0.689325 1 0.310675
0 0.473781 1
0 0.60385 1
0 0.601444 1
1 5.96046e-08 0
0.0928295 1 0.90717
1 0.342742 0
1 5.96046e-08 0
0 0.461048 1
0 0.72839 1
0 0.667018 1
0 0.415317 1
0 0.929514 1
0.793168 1 0.206832
0 0.968164 1
0 0.794685 1
0 0.444924 1
1 5.96046e-08 0
0 0.395963 1
0.704455 1 0.295545
0 0.294363 1
0 0.178665 1
0 0.843849 1
0 0.993843 1
0 0.774092 1
0 0.728686 1
0 0.982442 1
0 0.930464 1
0 0.660257 1
1 0.360627 0
0.225585 1 0.774415
0 0.815414 1
1 0.436529 0
0.378419 1 0.621581
0.879652 1 0.120348
