# vtk DataFile Version 3.0
Particle simulation
ASCII
DATASET POLYDATA
POINTS 400 float
0.921774 0.240414 1.07088
1.40127 0.725847 1.72621
1.68983 0 0.997764
1.83094 0.513564 0.977946
9.80808 0.710126 4.02626
0.491466 6.50203 4.68482
9.97227 3.56524 0.307543
2.16539 4.63893 3.11994
6.38952 1.69112 2.01922
9.00771 0.45252 2.40743
1.89703 0.507633 0.850036
2.57166 0.267082 2.31167
1.37794 0.466784 1.03051
1.9076 0.57988 1.03516
9.72861 0.634408 4.10507
5.01361 5.53523 8.10739
5.13015 1.40047 1.11291
2.42888 0.545855 3.21069
8.17827 0.462427 0.475848
9.08542 0.440231 2.3478
1.50796 0.257488 0.875687
9.29906 0.557756 6.16946
2.07416 2.446 6.95387
9.30513 0.0952339 2.41564
4.14013 1.99594 6.86247
1.07597 0.370217 1.39376
7.18528 0.652643 7.35007
1.8691 0.381696 2.41684
4.46743 0.169669 3.78894
2.21204 0.271618 2.10931
6.82475 0.313741 1.33837
9.71652 0.44914 1.12309
9.7366 5.01189 9.4565
9.31163 0.0636918 2.39223
1.33236 1.91274 2.1585
0.989476 0.315912 1.37491
5.91283 0.560754 8.1062
1.4679 0.47662 2.27203
4.65695 0.422966 2.38004
2.08419 0.0745954 1.93161
0.327372 0.545359 0.50314
5.54707 1.27361 1.78284
5.58858 0.550809 3.30697
8.79444 0.400306 3.22435
6.50667 0.842242 7.85619
4.79868 0.364695 1.74633
5.0308 0.650495 3.47691
2.12937 0.20938 2.00039
4.95038 0.368742 1.61514
7.00488 0.956908 2.71941
0.459674 0.694128 0.823945
5.55655 1.22502 1.84042
3.30758 0.488037 3.56534
8.79532 0.462324 2.86878
6.5361 0.804019 7.90626
4.76729 0.299443 1.72059
3.32813 0.561498 6.45915
2.3236 0.383981 1.27713
4.90416 0.365628 1.65226
4.24545 0.286958 9.03649
5.41033 0.671996 3.63655
4.44874 0.0710911 3.34571
4.41115 0.107684 8.38741
9.08579 0.183207 2.28427
6.23773 0.446501 7.9171
5.58591 1.17988 8.78683
3.63453 0.516717 3.58258
0.752226 0.610895 0.792805
5.00276 0.241303 1.79391
3.90496 0.875548 6.59476
4.5352 0.915584 3.20211
0.89015 1.06014 2.48821
4.39276 0.230933 6.2357
9.09357 0.239215 2.2655
5.96078 0.60957 7.98475
4.35023 0.0239334 9.1217
3.61632 0.483957 3.62204
2.60372 0.217465 6.80204
5.00632 0.25158 1.74333
3.70078 0.674157 6.56135
2.40889 0.333069 1.71484
0.813733 0.985604 2.43244
1.8757 0.44045 2.41056
1.81112 0.717092 2.91523
5.10733 0.43767 6.57592
3.5661 0.613216 7.4504
4.86805 0.285403 6.76062
2.07484 0.851842 2.3519
4.76987 1.98492 6.42338
7.935 0.682446 0.913017
2.53912 0.350919 1.75249
1.68031 0.0159933 2.66876
4.86871 0.176088 2.89864
1.82086 0.74525 2.96373
5.10489 0.443866 6.58826
3.54333 0.602042 7.48334
3.2618 0.404254 6.84815
1.79067 0.607373 2.10377
2.17537 0.864296 8.88943
7.94499 0.70673 0.909701
1.73597 0.821823 2.90249
6.71199 0.190071 2.13142
1.74907 0.736647 1.10734
7.55377 0.496012 0.81624
9.0362 0 2.49641
2.13434 0.200572 1.42259
3.68792 0.199555 6.62689
4.60309 0 1.80846
4.94337 0.396079 1.58909
7.9935 0.738119 0.85562
0.486392 0.668481 1.13105
9.45738 0.0527925 2.40063
2.8031 0.396909 2.60491
7.79368 0.284575 1.35082
2.66943 0.594851 2.11269
2.149 0.26583 1.48075
3.38719 0.523313 6.98591
5.06729 0.492994 1.47241
4.86806 0.365699 1.74664
2.15672 0.537781 2.94013
1.74688 0.787597 2.87943
4.70161 0.0289764 2.06225
4.43805 0.229234 9.10583
4.73541 0.133769 4.17939
1.63533 0.659344 8.47467
2.3644 0.231439 2.77225
2.04562 0.859359 1.68564
9.29068 0.481443 2.22298
3.54695 2.13044 6.74024
1.5952 0.45793 2.6612
1.7473 0.780597 2.87918
4.78098 0.260911 2.18779
5.09785 0.696815 7.15136
4.66943 0.0958787 4.26914
3.65591 0.529076 6.67746
1.55386 0.252748 2.30249
8.29508 1.44636 8.09455
9.26225 0.495645 2.26136
3.44156 0.88198 6.98159
3.28347 0.098673 4.10702
2.42728 0.288991 1.63147
3.548 0.338411 4.01394
1.75035 0.667516 3.8037
2.5039 0.068729 1.8811
2.17055 0.655361 2.99694
1.90815 1.05028 0.94533
6.38949 0.504222 8.26518
1.59211 0.382428 2.11725
2.53645 0.49293 1.837
0.92736 0.188777 1.09945
2.4274 0.291729 1.63193
3.62763 0.451761 4.07644
2.95665 0.225501 1.85261
4.27913 0.365913 3.57432
1.75989 0.843914 1.34359
2.15918 0.573498 1.3236
6.40549 0.646213 8.15032
2.25068 0.557099 1.48545
3.78178 0.453733 3.31455
2.2213 0.282714 1.73092
2.19448 0.904052 0.200065
0.505131 0.660671 0.608702
5.16296 0.203973 7.10024
1.45568 0.0171394 3.14131
0.467056 0.636158 0.78825
3.84662 0.309818 3.84739
3.46536 0.461514 6.91011
3.66167 0.71483 7.64327
7.035 0.764246 7.86066
5.02903 0.299454 0.932115
2.17997 0.896043 0.321954
2.33576 0.144381 1.87855
4.98422 0.313038 6.70515
2.11379 0.431745 1.6721
2.68989 0.576925 1.91217
1.22027 1.25232 2.18687
3.4864 0.526887 6.87636
3.56906 0.498008 6.83453
2.92063 0.41708 6.78931
5.07863 0.315857 0.970874
1.6293 0.581618 1.54683
2.02555 0.223371 2.25027
6.44228 0.366279 7.67493
1.21654 2.2559 2.29597
4.13006 1.07323 6.63355
1.76416 0.699797 0.853867
2.28389 0.419867 1.66509
5.19384 0.646732 3.34895
1.9129 0.820276 2.46777
2.33793 0.519269 1.9543
1.65511 0.559525 1.53907
2.21285 0.866193 1.63247
4.8673 0.302224 6.5977
1.6757 2.31607 2.1679
3.67443 0.422665 7.123
2.03185 0.484437 1.82814
2.27377 0.479127 2.02217
5.41385 2.61204 2.75707
1.91602 0.811654 2.59424
1.79612 0.624875 1.76827
1.7349 0.843726 1.34936
4.61145 0.42705 2.05275
5.01292 0.774426 6.38692
3.76146 0.417882 3.82072
4.95176 0 8.82586
3.40575 0.440643 6.94006
2.31793 0.440086 1.71055
1.64607 0.726547 2.45524
1.18308 0.362038 2.00757
7.42379 0.582572 1.16351
2.56724 0.0779974 1.93182
4.53976 0.297108 1.28984
4.6709 0.105745 6.7043
4.34359 0.232053 3.9185
5.10829 0.104088 8.73381
3.39384 0.440592 6.95568
2.31181 0.445734 1.71402
2.4662 0.881873 2.44751
2.17352 0.689834 2.87171
7.59019 0.557776 0.998482
8.6413 1.01113 2.07059
1.89034 0.492428 8.17219
5.10963 0.581276 6.75321
2.57113 0.56411 2.12346
3.9821 0.142585 6.7976
1.17583 1.92966 2.35729
7.13334 0.753624 4.83297
2.90523 0.266912 2.27515
2.30297 0.891157 0.984628
4.06907 0.429254 3.94969
8.7835 0.802712 2.18415
4.46131 1.15993 6.82403
6.21422 0.750505 7.99974
2.55787 0.542927 2.05964
5.14513 0.677633 6.76612
1.3604 1.79326 2.35133
7.3992 0.878421 7.47211
1.76451 1.85743 2.35542
2.02559 1.06273 3.09498
1.82163 0.691499 3.09504
2.08142 0.416203 1.08115
1.86636 0.850962 2.95196
2.07968 0.147998 1.96222
1.57859 0.818918 1.95401
3.05613 0.501518 6.68326
2.74233 0.555173 2.18186
1.96071 0.438147 1.45649
3.83862 0.564839 7.44906
4.95399 0.452388 1.68664
3.1962 0.468524 6.82568
2.08461 0.480629 0.819125
6.08735 1.63219 1.99627
3.19084 0.41874 6.19368
1.60829 0.800888 1.84781
6.65462 1.10712 7.6906
3.06487 0.148497 1.96835
7.48347 0.403808 1.12644
3.20261 0.40055 6.7198
4.94347 0.44286 1.68294
3.24743 0.44799 6.79163
2.92344 0.519404 1.81819
4.83323 1.23727 2.29418
4.38233 0.0349217 4.0266
9.27281 0.263501 2.29599
5.10472 0.0739826 8.88414
1.14064 0.371692 0.815201
7.79934 0.521998 1.6045
3.78194 0.46469 7.23294
6.09866 0.887059 7.64244
3.35835 0.456339 2.5681
3.00323 0.553059 1.82878
4.7437 1.23572 2.402
0.939283 2.28153 2.18431
9.4345 0.326431 2.52433
3.49661 0.301152 6.86088
4.22042 0.749168 6.45878
9.52314 0.528821 2.07589
7.97436 1.03938 8.83366
6.35645 0.720788 7.8088
2.73536 0.42478 1.53059
7.26891 0.545541 1.34799
4.85285 0.0365616 2.18224
5.15728 0.210452 2.13736
9.36583 0.503065 2.53996
5.82827 0.619688 8.32814
5.88735 0.739119 8.19222
1.34725 0.349165 2.17948
2.70057 0.0499596 1.93072
3.61079 0.67295 3.37933
5.12821 0.818665 6.49548
7.57521 0.676072 1.26895
4.79777 0.092016 2.12064
1.8751 0.595716 1.3512
9.38873 0.427485 2.60999
3.88564 0.937377 6.85895
2.98976 0.751809 6.52274
2.21416 0.741902 1.88328
1.12727 1.87444 2.13288
1.63862 0.569498 2.8281
1.34357 0.26666 1.09684
7.33644 0.413786 1.34757
3.96112 0.290471 3.40654
1.43318 0.337366 3.11451
4.94307 0.266166 1.20525
1.26637 0.450948 1.23338
4.41041 0.621056 2.15853
2.42526 0.339961 1.61143
2.56184 0.31594 2.83993
2.61128 0.736891 2.43744
2.40802 0.490437 2.96685
8.99913 0.448136 2.25662
3.85466 0.271505 3.27054
6.46296 0.666231 7.73637
1.32114 1.05801 2.18062
1.34245 0.357149 1.24249
7.1438 0.410018 1.24881
2.18109 0.432645 1.84636
3.54923 0.5934 3.25686
5.09569 0.257021 1.822
2.81738 0.342241 2.15296
3.82424 0.165081 3.46941
1.30827 0.706708 2.34921
3.38504 0.51857 6.36184
2.49811 0.554755 2.03419
7.40404 0.560825 1.05844
7.82613 0.500422 0.698654
2.46102 0.0846629 1.645
4.77751 0.351043 2.25337
7.87189 0.657297 1.35342
1.55346 0.798786 2.34221
3.78974 0.123091 3.27787
2.40518 0.401666 1.43568
3.33597 0.434933 6.38712
2.5143 0.574825 2.02882
7.55223 0.575203 1.21051
3.54462 0.447194 3.43956
2.34015 0.244827 1.62749
2.17858 0.531137 0.886518
7.93935 0.50026 1.22597
1.71698 0.978895 2.29143
3.83617 0.29588 3.63812
2.70932 0.419102 1.9912
4.75919 0.552658 6.36711
3.65611 0.464486 3.87199
2.07541 0.446321 0.856064
1.7897 0.639663 1.86351
4.67893 0.511849 2.17582
1.85243 0.241369 1.38885
1.98619 0.760418 1.95315
2.1877 0.554585 1.73337
2.24109 0.0673276 1.73345
2.70267 0.203465 1.91989
5.14721 0.465235 6.75289
3.67387 0.464719 3.86575
1.98337 0.392445 0.920481
2.37135 0.264289 1.42696
4.67967 0.373956 2.12717
3.56233 0.577416 6.34557
1.99047 0.746793 1.76922
2.1213 0.769925 0.290228
4.64394 0.318447 1.9675
3.82256 0.442091 4.05329
4.91987 0.653454 6.78294
2.19031 0.193658 1.64009
1.47124 0.0953749 1.94152
6.53485 0.884138 7.85603
3.43644 0.317923 6.8805
3.40675 0.407755 7.20213
3.62648 0.597848 7.13265
2.08192 1.0485 0.540789
4.6591 0.335701 1.98257
3.74586 0.454209 4.05369
4.89215 0.966302 6.83902
2.32659 0.374341 1.47455
1.73947 0.479656 3.25481
6.67829 0.996706 7.84939
3.44337 0.280216 6.84168
3.29408 0.780946 7.07214
3.95865 0.399167 6.78736
1.49338 0.262972 1.4375
2.33311 0.385978 2.07595
2.36543 0.370013 1.76894
3.77416 0.130035 6.72511
2.33769 0.37428 1.89265
9.16584 0.309703 2.18686
4.96827 0.668684 6.87572
1.79438 0.448159 2.29891
2.04826 0.582495 1.5993
8.55 1.36512 1.94794
4.4916 0.306878 2.19476
2.35969 0.376197 2.12335
2.3701 0.341062 1.80582
3.70531 0.198772 6.75723
2.41846 0.130459 1.60974
9.18124 0.254468 2.15485
4.98965 0.577005 7.03075
1.8405 0.478468 2.30277
1.82087 0.690054 1.43317
8.29129 0.68881 0.989333
4.48591 0.29844 2.21544
POINT_DATA 400
SCALARS particleColor float 3
LOOKUP_TABLE default
0 0.60877 1
0 0.809883 1
0 0.671193 1
0 0.584687 1
0.00243422 1 0.997566
1 5.96046e-08 0
0 0.466216 1
0 0.161617 1
0 0.837701 1
0 0.671159 1
0 0.561632 1
0 0.770724 1
0 0.639015 1
0 0.611804 1
0 0.583741 1
0 0.528991 1
0 0.662648 1
0 0.245761 1
0 0.764452 1
0 0.622508 1
0 0.430171 1
0.455513 1 0.544487
0 0.348159 1
0 0.245067 1
0 0.962532 1
0 0.819046 1
0 0.854311 1
0 0.870401 1
0 0.570343 1
0 0.616113 1
0 0.763482 1
0 0.44393 1
1 0.606902 0
0 0.419394 1
0 0.342959 1
0 0.954547 1
0 0.387088 1
0 0.317817 1
0 0.674314 1
0 0.741478 1
0 0.632249 1
0 0.849773 1
0 0.914317 1
0 0.495855 1
0 0.643965 1
0 0.757139 1
0 0.955725 1
0.143991 1 0.856009
0 0.176978 1
0 0.902797 1
0 0.713146 1
0 0.607973 1
0 0.711761 1
0 0.492799 1
0 0.760608 1
0 0.561079 1
0 0.521184 1
0 0.483592 1
0 0.220212 1
0 0.40801 1
0 0.658815 1
0 0.732493 1
0 0.295364 1
0.193585 1 0.806415
0 0.210413 1
0 0.592075 1
0 0.58772 1
0 0.46908 1
0 0.412583 1
0 0.123204 1
0 0.689737 1
0 0.883987 1
0 0.531123 1
0.204215 1 0.795785
0 0.619123 1
0.170617 1 0.829383
0 0.546712 1
0 0.196532 1
0 0.229961 1
0 0.24494 1
0 0.340197 1
0 0.301178 1
0 0.773523 1
0 0.521863 1
0 0.375278 1
0 0.537515 1
0.00996797 1 0.990032
0 0.648762 1
1 0.700253 0
0 0.487447 1
0 0.77427 1
0 0.721549 1
0 0.675794 1
0 0.437311 1
0 0.198557 1
0 0.538551 1
0 0.797609 1
0.0619019 1 0.938098
0.239764 1 0.760236
0 0.525185 1
0.0332566 1 0.966743
0 0.962823 1
0 0.275411 1
0 0.742145 1
0.290046 1 0.709954
0 0.697517 1
0 0.374537 1
0 0.264292 1
0 0.347083 1
0 0.907815 1
0 0.707613 1
0 0.898314 1
0 0.294798 1
0 0.624651 1
0 0.617716 1
0 0.450375 1
0 0.568286 1
0 0.818874 1
0 0.228625 1
0 0.916901 1
0 0.743127 1
0 0.915274 1
0.109993 1 0.890007
0 0.294869 1
0.426488 1 0.573512
0 0.509122 1
0 0.653383 1
0.0663341 1 0.933666
0 0.751118 1
0 0.777856 1
0 0.761141 1
0 0.987164 1
0 0.73637 1
0 0.591966 1
0 0.986862 1
0 0.879418 1
0.374759 1 0.625241
0 0.941636 1
0 0.582 1
0 0.850842 1
0 0.391774 1
0 0.905411 1
0 0.60983 1
0 0.940736 1
0 0.622113 1
0 0.2427 1
0 0.86374 1
0 0.236697 1
0 0.377125 1
0 0.920011 1
0 0.387391 1
0 0.981276 1
0 0.741794 1
0 0.680711 1
0 0.955328 1
0 0.410199 1
0 0.868153 1
0 0.762147 1
0 0.910183 1
0.027868 1 0.972132
0 0.223544 1
0 0.867443 1
0 0.510381 1
0 0.531298 1
0 0.801002 1
0 0.729399 1
0 0.762487 1
0 0.216171 1
0.377091 1 0.622909
0 0.516405 1
0 0.411592 1
0.0994436 1 0.900556
0 0.485966 1
0.0177068 1 0.982293
0 0.736907 1
0 0.862946 1
0 0.537804 1
0 0.523379 1
0 0.519092 1
0 0.788182 1
0 0.396122 1
0 0.519535 1
0 0.508048 1
0 0.482592 1
0 0.584114 1
0 0.534894 1
0 0.664303 1
0 0.850998 1
0 0.304606 1
0 0.660425 1
0 0.438514 1
0 0.425083 1
0 0.550634 1
0 0.964602 1
0 0.623235 1
0 0.568157 1
0 0.471295 1
0 0.878983 1
0 0.117549 1
0 0.81083 1
0 0.834203 1
0 0.522532 1
0 0.798885 1
0 0.383768 1
0 0.689553 1
0 0.215639 1
0 0.54699 1
0 0.649031 1
0 0.399657 1
0 0.596132 1
0 0.291163 1
0 0.858577 1
0 0.576428 1
0 0.445102 1
0 0.211115 1
0 0.356422 1
0 0.455836 1
0 0.560959 1
0 0.864824 1
0 0.495385 1
0 0.223376 1
0 0.907038 1
0 0.359256 1
0 0.524817 1
0 0.696719 1
0 0.259649 1
0.103796 1 0.896204
0 0.376305 1
0 0.13852 1
0 0.737132 1
0 0.61285 1
0 0.570246 1
0 0.534433 1
0 0.509794 1
0 0.579354 1
0 0.844529 1
0 0.703397 1
0 0.20308 1
0 0.908455 1
0 0.78821 1
0 0.246082 1
0 0.796622 1
0 0.769639 1
0 0.567974 1
0 0.830901 1
0.13954 1 0.86046
0 0.832152 1
0 0.861087 1
0 0.494041 1
0 0.44141 1
0 0.25556 1
0.0755427 1 0.924457
0 0.437808 1
0 0.675013 1
0.334117 1 0.665883
0 0.535225 1
0 0.835634 1
0.241008 1 0.758992
0 0.496654 1
0 0.50564 1
0 0.879586 1
0.15253 1 0.84747
0 0.711316 1
0.146959 1 0.853041
0 0.868796 1
0 0.861551 1
0.437088 1 0.562912
0 0.501759 1
0 0.890566 1
0 0.345707 1
0 0.753029 1
0 0.384766 1
0 0.654372 1
0.189477 1 0.810523
0.402007 1 0.597993
0 0.870155 1
0 0.623207 1
0.331557 1 0.668443
0.108917 1 0.891083
0 0.263688 1
0 0.856236 1
0 0.46402 1
0 0.969831 1
0 0.78209 1
0 0.307148 1
0.0968143 1 0.903186
0 0.791474 1
0 0.996241 1
0 0.349597 1
0.486744 1 0.513256
0 0.737507 1
0 0.381155 1
0 0.808736 1
0.00973416 1 0.990266
0 0.806013 1
0 0.63198 1
0.0861814 1 0.913819
0 0.738266 1
0 0.806512 1
0 0.461799 1
0 0.3002 1
0 0.454885 1
0 0.687575 1
0 0.582085 1
0 0.548779 1
0 0.578009 1
0 0.319574 1
0 0.586571 1
0 0.90247 1
0 0.666391 1
0 0.831667 1
0 0.507022 1
0.00641933 1 0.993581
0 0.233433 1
0 0.586033 1
0.204485 1 0.795515
0 0.607878 1
0.219366 1 0.780634
0 0.684877 1
0 0.76889 1
0 0.996076 1
0.093574 1 0.906426
0 0.395785 1
0 0.94363 1
0 0.655244 1
0 0.829807 1
0.00979945 1 0.990201
0 0.522947 1
0 0.776772 1
0 0.299094 1
0 0.805089 1
0 0.467078 1
0 0.0439142 1
0.0855291 1 0.914471
0 0.286228 1
0 0.772257 1
0.142644 1 0.857356
0 0.938003 1
0 0.519476 1
0 0.586954 1
0.209353 1 0.790647
0 0.394761 1
0 0.649647 1
0 0.317133 1
0 0.5241 1
0 0.749745 1
0 0.335501 1
0 0.960352 1
0 0.903853 1
0.342979 1 0.657021
0 0.867506 1
0 0.289781 1
0 0.705431 1
0 0.242743 1
0 0.262462 1
0.168384 1 0.831616
0 0.954651 1
0.0263912 1 0.973609
0 0.701835 1
0 0.954215 1
0 0.906074 1
0 0.896653 1
0 0.869857 1
0 0.985435 1
0 0.561969 1
0.156362 1 0.843638
0 0.824608 1
0 0.525298 1
0 0.722724 1
0.0107972 1 0.989203
0 0.942359 1
0 0.946343 1
0 0.647412 1
0 0.93514 1
0.0532386 1 0.946761
0 0.828126 1
0 0.861619 1
0 0.758295 1
0 0.49675 1
0 0.79471 1
0 0.626673 1
0 0.611466 1
0 0.887928 1
0 0.914291 1
0 0.442469 1
0 0.559009 1
0 0.830565 1
0 0.751669 1
0 0.986646 1
0 0.544763 1
0 0.611054 1
0 0.442527 1
0 0.805156 1
0 0.65553 1
0 0.495564 1
0 0.787137 1
0 0.751582 1
0 0.691331 1
0.0273359 1 0.972664
0 0.469555 1
