# vtk DataFile Version 3.0
Particle simulation
ASCII
DATASET POLYDATA
POINTS 400 float
8.02794 4.65612 5.60419
4.48665 2.67341 3.87631
2.98 5.73835 3.12696
7.80316 4.25971 3.54926
3.05586 5.21942 0.110495
0.330308 2.83681 9.54214
3.81907 0.348909 0.221171
3.89904 2.11108 9.77713
9.00092 9.84823 9.88352
0.420734 9.50624 0.0334466
4.8519 1.43515 2.75774
6.11256 8.40287 9.46499
4.68582 6.49162 8.99242
8.59476 2.20921 5.99061
0.240983 9.43854 7.11099
1.80619 3.43865 7.18028
0.638402 9.02284 1.11836
4.90371 5.60558 9.19232
9.97503 7.85875 3.13399
4.87059 6.19887 6.8466
3.52122 3.14195 3.43382
9.39222 2.19555 8.03994
8.68735 3.65839 1.20562
5.59843 1.48628 5.55028
3.40363 2.58023 5.16774
7.34751 5.84963 8.91685
4.12855 9.55182 6.43254
2.01548 7.84637 8.99433
8.73727 3.22264 0.0270189
4.62672 5.54482 5.44561
3.62167 4.1111 5.43392
7.87824 0.496325 0.863733
0.779547 4.57492 3.59077
6.57651 6.58101 7.74524
2.38123 6.91274 7.5259
3.96156 8.59124 8.48097
5.87062 7.31368 0.165813
4.97826 0.486577 2.79738
9.48472 5.51073 3.09621
4.73959 0 2.77119
6.72719 0.705304 7.09437
4.95758 4.28781 2.62803
4.1105 8.66742 2.9398
9.7415 6.76821 8.89319
4.4402 0.920419 9.80423
9.57394 0.979133 1.2386
8.32831 4.18512 4.82409
3.61159 3.29155 3.65798
7.5248 4.60024 10
3.85332 1.02097 8.83196
3.93048 5.03412 4.07889
2.29148 0.900939 4.71427
1.66446 2.79312 7.40795
1.7047 4.53419 9.98454
2.98533 1.90542 7.49608
6.80127 5.21528 7.33365
5.46915 4.7576 9.45829
7.22192 4.93932 5.86351
3.62685 2.18714 6.42285
4.50784 8.55681 5.43684
0.223025 7.94353 4.31742
8.10173 7.35474 7.19621
6.64735 1.20597 6.64273
0 4.12364 5.05647
0.829716 9.755 6.16383
1.96198 8.00917 2.50343
5.52631 0.487474 10
2.16087 6.31602 8.20678
4.07097 1.10086 3.94743
4.9778 4.7126 4.06141
5.41597 5.6735 3.80122
3.00833 9.51881 0.621122
1.32913 3.44119 1.49474
9.72477 6.39591 9.81937
8.91198 8.9586 0.395086
3.33885 6.63093 8.42774
6.49206 1.49838 3.95179
9.33281 3.45635 3.02763
1.60091 8.3566 8.77291
4.12121 9.33961 9.02367
6.17199 9.95308 3.56626
5.26192 1.11367 5.9082
5.62477 1.85848 6.31868
8.83837 5.26205 3.16472
6.92342 0.715228 4.68584
10 1.20855 3.00926
8.28309 0.275174 5.99328
1.40173 9.39375 8.55206
5.01808 1.37353 8.34997
5.89922 1.86526 8.42927
4.94327 3.23547 7.82355
3.60122 0.553015 2.89508
5.25417 8.03103 1.13161
8.54893 0.783905 5.14083
0 2.61061 3.12424
4.40692 2.65979 2.60004
8.78927 0.262554 0.512034
6.04809 3.05443 10
6.86442 0.833533 5.24593
5.28932 1.80141 8.11402
7.61918 7.53568 9.00284
0.978269 8.95292 6.89462
5.35466 0.558298 5.38728
3.12038 5.51513 0.577532
1.06211 3.75858 3.49494
8.87672 4.62162 1.31571
9.43595 8.68099 5.94086
9.4859 6.58099 3.20599
8.65173 9.35423 9.52703
2.37686 7.35325 3.48114
9.40416 9.70989 1.03131
9.09582 3.15339 2.09056
0.250701 4.3215 0.919043
6.15906 2.94522 9.25697
7.28036 9.00903 2.04077
5.36912 7.86787 2.00669
4.35365 7.74292 0.588191
2.34147 6.34045 2.56626
6.30691 0.175385 10
0.68459 6.28272 7.74898
0.791759 2.10398 7.79028
1.46913 4.20151 4.32999
3.30043 9.14979 9.24451
1.57803 9.1548 7.3749
2.5741 1.76401 8.48681
1.33889 3.567 7.19089
2.65345 1.56791 7.82087
2.35045 4.23255 0
8.38877 2.8481 8.95485
10 7.48254 7.29115
4.99935 8.34756 7.66962
3.98708 9.4648 0.414094
6.25811 2.41381 6.62604
3.28775 0.478016 5.8893
3.73394 2.8804 9.02629
6.47807 3.972 5.5255
4.61435 3.45725 0.317789
8.09889 10 7.34665
2.85345 8.70913 7.81816
3.44613 8.10398 6.84456
8.99329 2.12812 7.56879
5.45801 7.93539 1.44882
3.41396 3.85506 3.47833
0.836276 7.39532 4.58909
6.20689 9.05525 1.66247
5.77381 4.11252 4.16495
7.60827 0.749781 9.64458
3.72785 1.79892 9.41898
5.30687 7.36699 7.82159
9.21152 7.43443 9.44292
7.3034 0.661968 7.61938
8.85137 5.01486 6.27521
2.35286 4.36352 5.91058
2.95552 7.05756 0.735708
9.37437 1.04341 1.65359
9.87568 7.0203 6.62517
5.76826 3.65649 6.29991
1.2861 2.56925 3.51204
8.99226 7.29456 5.96054
4.5829 8.5548 5.03167
7.92 1.61639 5.52119
6.42729 4.55892 5.88472
5.2235 9.82631 4.5076
0.262988 4.17668 8.62684
6.97502 8.2948 2.54621
0.640774 0.853451 4.76696
2.21964 3.78291 2.8542
0.275336 3.78543 9.53231
5.50898 2.7635 9.4688
8.60705 2.17638 8.48032
1.93861 2.89037 9.33685
8.50748 8.90665 8.76662
2.5925 3.45831 9.91956
1.08831 3.51588 0.207178
5.24785 2.53015 1.78994
8.33175 5.40956 1.784
2.37395 1.89469 4.66732
7.08831 5.78828 3.03486
3.62458 1.26477 7.38848
2.52047 4.29371 1.4611
7.87432 6.15742 4.43206
3.44586 6.14192 9.99107
2.11815 4.66547 3.48074
5.60652 6.6403 3.43105
8.22645 1.64473 2.19245
4.54528 2.32753 7.67208
4.7995 7.31889 5.03626
5.55509 6.4295 4.60964
9.24684 1.07583 1.62986
3.12524 3.47354 2.77575
1.5322 2.61071 1.35783
4.0229 0.657673 3.74065
8.33305 3.57408 7.06568
1.70834 5.71901 9.60251
9.4538 1.7931 0
1.75031 9.05107 8.78717
8.12555 7.94755 9.91026
1.61109 1.67495 6.86102
8.12041 3.80755 9.87963
6.21879 6.403 0.27805
6.28967 7.53883 8.056
9.18129 8.12904 0.3498
5.72277 5.75324 9.8839
7.9663 6.87082 5.80144
7.01634 2.02871 1.44454
1.0553 7.08806 5.99351
4.69051 4.42889 0.594867
8.99738 3.96786 0.562903
6.54737 7.11176 9.48479
8.84296 5.17082 5.07646
9.05919 8.0329 9.157
8.70396 6.76462 8.58925
3.56109 6.05879 5.39612
6.85829 1.31014 1.59516
3.88451 2.47302 6.97088
3.04037 5.0541 1.21695
2.1187 0.449936 9.72016
3.69753 8.9361 6.72313
7.56762 0.823328 9.60768
8.48189 5.93179 9.28332
1.81591 0.827036 9.40335
7.01391 5.34916 3.05874
0.536411 2.08723 6.21987
6.42586 1.07733 7.72548
0.884165 2.05662 0.563537
8.2035 3.78877 2.16208
1.99967 1.40748 0.406632
5.44139 10 10
7.4872 0.449494 7.57366
5.83735 6.30205 5.74483
1.91183 3.38967 8.60934
5.08383 5.69162 4.95051
7.70181 4.58276 3.80411
9.15979 0.104792 4.91425
9.37638 7.40372 7.8543
1.36503 8.76639 5.48164
3.43624 0.316092 6.76137
9.90718 9.23866 9.24512
7.69938 0.94804 8.39217
4.7498 0 7.92219
7.46001 0.288335 7.85299
2.62753 5.41402 10
3.45151 2.96106 0.555658
9.31074 9.84924 4.28879
0.920145 0.577664 9.59797
4.14298 1.0038 3.38979
2.26883 1.04625 6.54138
3.75459 9.56583 0.946976
1.3413 3.18742 5.84246
4.27978 6.33347 8.429
6.45587 4.66098 0.784085
9.75296 5.17967 0.212761
4.0418 2.37743 7.63313
0.658718 6.36497 9.6701
8.24183 9.176 8.2489
4.58114 9.75593 5.39322
5.565 2.18265 2.11025
1.77352 4.1393 1.17565
6.22344 8.59716 0.74835
5.74519 1.96042 5.36147
10 6.02735 8.01126
0.873297 2.87085 3.90582
0.197195 8.3265 7.23046
7.99421 4.74924 8.96658
0.639072 9.8447 7.28897
2.16097 2.83527 4.18185
1.9083 6.7344 2.41583
10 9.46447 9.17783
1.40112 6.25963 7.14799
9.69121 2.92961 1.39497
1.99231 7.08555 4.61734
8.28029 6.96339 2.8697
0 4.81168 8.60258
9.77211 10 6.9832
6.43958 1.59572 2.22268
5.10185 9.26102 0.225041
0.414908 0 9.53471
10 7.28796 1.78855
8.72666 3.77895 5.27187
9.85618 7.70293 1.29118
7.31674 3.09315 8.87935
8.52407 9.22773 6.03615
3.33148 0.547557 7.78663
5.25637 3.28789 6.98954
3.36272 4.5586 6.22258
6.26964 6.57131 5.80834
6.75906 2.93349 2.76902
4.02959 5.09569 9.38571
8.73331 1.5782 7.21814
6.46839 6.331 7.64128
3.6603 9.77151 0.317833
3.92873 7.5281 0.0577167
1.01085 3.57587 3.02763
4.37274 8.34685 8.68002
6.54516 1.61477 5.22416
5.26587 6.20735 1.16219
3.40095 0.0161958 9.93626
1.85273 0.504699 6.6244
7.3545 0.363326 7.76891
1.73247 0.872673 5.85371
3.55918 7.77629 9.9841
8.88259 4.71126 7.18149
6.98565 0.918807 7.51331
3.6787 9.42612 10
7.32051 0.655369 7.69079
1.83906 3.29018 6.12189
6.45029 1.21272 3.21414
7.33785 0.621181 7.94558
8.12574 2.16242 8.00628
8.23059 1.67393 4.55763
4.03527 6.82128 3.20064
9.3795 8.35313 8.62881
7.22652 0.439988 2.4576
7.46442 0.984904 7.38831
2.97403 5.11654 5.47817
5.87965 1.79452 1.97707
5.40777 5.57925 8.96321
7.81753 0.621966 7.58913
7.44649 7.80851 0.930879
3.26141 1.65619 0.00151512
5.70036 7.33857 0.503462
0.568711 2.12293 2.55161
0.267771 3.23707 10
9.00608 0.881576 5.72837
7.33852 0.629221 7.461
9.345 4.09939 6.38665
4.48943 1.30215 9.3321
4.04399 7.215 9.47721
7.19205 9.30502 0.819481
7.55464 0.653289 7.60353
2.43186 1.35267 8.18202
1.55952 0.729467 5.46356
9.67362 1.77099 0.608877
8.09001 5.85412 6.96066
2.32608 2.00077 1.63266
9.39227 1.01228 8.43383
6.62347 2.69644 2.43578
7.63279 0.711792 7.64223
3.19217 4.59283 7.08826
6.22054 6.35827 3.02316
1.96288 10 8.06899
2.89467 3.46779 6.67316
3.62019 2.04116 7.37515
2.9556 0.100842 9.86402
7.64906 9.86381 5.75044
0.189379 1.90728 6.25871
3.83342 1.15887 3.1587
2.6977 7.52726 0.870815
7.53656 0.937781 7.65944
5.81984 5.86351 7.79533
7.66959 1.00637 7.2903
7.3788 0.580192 7.54027
3.33778 0 5.19979
6.17472 5.18714 7.00029
5.84526 1.72882 3.12551
7.502 0.605417 7.87116
5.05629 9.21492 0.486843
6.78334 4.4699 1.17561
9.17044 0.234809 5.92288
7.38913 0.299075 7.79689
1.50944 2.6434 1.81634
2.05207 1.71369 9.10912
2.33015 1.89315 9.02152
7.4434 0.452477 7.75154
0.275899 5.77524 0.478134
5.98134 7.69816 4.19143
2.36413 1.6947 9.03046
9.81558 3.79949 7.19725
8.98073 6.91197 4.42406
2.58052 0.47515 9.75132
3.71813 1.3684 3.10588
4.67511 4.30018 6.73901
6.73724 8.86401 3.87869
7.48159 0.601849 7.36441
7.6029 0.780202 7.30052
7.86016 8.23695 1.57494
2.33539 1.72412 9.01361
8.78248 5.53218 5.52704
1.06966 3.3019 1.41757
7.67948 0.486169 7.50438
7.30522 0.886857 10
7.2882 0.44664 7.96638
4.96062 6.59689 4.72781
7.06544 0.489357 7.43998
4.64676 5.0652 7.01186
2.39001 1.57238 9.13789
7.40481 0.628071 8.01029
7.42276 0.383977 7.61249
0.641985 2.63461 1.46062
9.70757 1.14613 7.96449
7.37757 0.396966 7.63839
7.69078 0.478596 7.72106
6.86573 9.65871 6.6596
7.17928 0.390731 7.59588
0.285155 8.03159 2.77079
3.29794 6.5039 8.88967
7.1922 0.522273 7.48707
8.19963 5.37158 0
7.08493 9.35771 3.18562
6.12122 1.61728 7.16585
POINT_DATA 400
SCALARS particleColor float 3
LOOKUP_TABLE default
1 0.987181 0
0.311213 1 0.688787
0 0.476496 1
1 5.96046e-08 0
0.802003 1 0.197997
0.259996 1 0.740004
1 5.96046e-08 0
1 0.744124 0
0.756797 1 0.243203
1 0.895111 0
0.364878 1 0.635122
1 5.96046e-08 0
0 0.979205 1
1 5.96046e-08 0
0.751672 1 0.248328
1 0.20128 0
0.610355 1 0.389645
0.63324 1 0.36676
0 0.536599 1
1 0.213708 0
0.858566 1 0.141434
1 0.331258 0
1 5.96046e-08 0
1 5.96046e-08 0
0.308763 1 0.691237
1 0.301472 0
1 0.590219 0
0.942497 1 0.0575033
1 5.96046e-08 0
0.735932 1 0.264068
1 5.96046e-08 0
1 5.96046e-08 0
1 0.715197 0
0 0.862529 1
0.956273 1 0.0437272
1 0.826768 0
0.889411 1 0.110589
0.876857 1 0.123143
1 0.0765302 0
1 5.96046e-08 0
1 5.96046e-08 0
1 0.286869 0
1 0.900491 0
0.645075 1 0.354925
0.422392 1 0.577608
1 0.941978 0
0.231632 1 0.768368
0.474257 1 0.525743
1 5.96046e-08 0
1 0.855567 0
0 0.976634 1
0.843085 1 0.156915
1 0.420481 0
1 5.96046e-08 0
1 0.164281 0
0.735879 1 0.264121
1 0.256115 0
0.880483 1 0.119517
1 0.295253 0
1 5.96046e-08 0
1 0.992331 0
1 5.96046e-08 0
1 5.96046e-08 0
1 5.96046e-08 0
0 0.668697 1
0.43364 1 0.56636
1 5.96046e-08 0
0.687739 1 0.312261
1 0.0723887 0
1 5.96046e-08 0
1 5.96046e-08 0
1 0.0367492 0
0 0.970649 1
1 5.96046e-08 0
1 5.96046e-08 0
1 0.948988 0
1 5.96046e-08 0
1 5.96046e-08 0
1 0.848797 0
1 5.96046e-08 0
1 5.96046e-08 0
1 0.736613 0
0 0.80834 1
1 0.598387 0
1 5.96046e-08 0
0 0.967226 1
1 0.445668 0
1 0.589088 0
0.416492 1 0.583508
0.582068 1 0.417932
0.788061 1 0.211939
1 0.367345 0
1 0.142628 0
1 0.441418 0
1 5.96046e-08 0
0.24536 1 0.75464
0.295963 1 0.704037
1 5.96046e-08 0
0.669602 1 0.330398
1 0.81322 0
0.668056 1 0.331944
0.672924 1 0.327076
1 5.96046e-08 0
0.105803 1 0.894197
0 0.755126 1
0.472423 1 0.527577
1 0.0957055 0
1 0.576238 0
1 5.96046e-08 0
1 0.895911 0
1 0.730419 0
0.637202 1 0.362798
1 0.939669 0
0.497519 1 0.502481
1 0.54807 0
0.616826 1 0.383174
0 0.95658 1
0.673413 1 0.326587
1 5.96046e-08 0
1 5.96046e-08 0
1 5.96046e-08 0
1 0.920195 0
1 5.96046e-08 0
1 5.96046e-08 0
1 0.636761 0
1 5.96046e-08 0
0.544394 1 0.455606
1 0.772364 0
1 0.100147 0
1 5.96046e-08 0
1 0.783581 0
1 5.96046e-08 0
0.700932 1 0.299068
1 0.726775 0
1 5.96046e-08 0
1 0.837308 0
0 0.783693 1
0.413468 1 0.586532
1 0.858584 0
1 0.652759 0
1 0.584868 0
1 0.885681 0
1 0.699758 0
0.215891 1 0.784109
1 5.96046e-08 0
1 0.264638 0
0.642158 1 0.357842
1 5.96046e-08 0
0.568029 1 0.431971
0.331302 1 0.668698
0 0.188229 1
0.213572 1 0.786428
1 5.96046e-08 0
0.29478 1 0.70522
1 0.0322431 0
0.850861 1 0.149139
1 5.96046e-08 0
1 5.96046e-08 0
1 5.96046e-08 0
1 5.96046e-08 0
0.948864 1 0.0511355
0 0.931601 1
1 5.96046e-08 0
0.327981 1 0.672019
1 5.96046e-08 0
0.248521 1 0.751479
1 5.96046e-08 0
1 5.96046e-08 0
1 0.27131 0
1 0.73499 0
1 5.96046e-08 0
1 0.361286 0
1 5.96046e-08 0
0.231776 1 0.768224
1 5.96046e-08 0
0.398417 1 0.601583
1 0.938839 0
0.0754473 1 0.924553
1 5.96046e-08 0
0.760947 1 0.239053
1 0.219418 0
1 5.96046e-08 0
1 5.96046e-08 0
1 5.96046e-08 0
0.636168 1 0.363832
0 0.65589 1
1 0.890368 0
0.997365 1 0.00263524
1 0.439679 0
1 0.547187 0
0.871599 1 0.128401
1 0.795613 0
0.942708 1 0.057292
1 5.96046e-08 0
0.898692 1 0.101308
1 5.96046e-08 0
0.151644 1 0.848356
1 5.96046e-08 0
0.599562 1 0.400438
1 0.187502 0
1 0.792189 0
1 5.96046e-08 0
1 5.96046e-08 0
1 5.96046e-08 0
1 5.96046e-08 0
0.467062 1 0.532938
1 5.96046e-08 0
1 0.250831 0
1 5.96046e-08 0
1 0.987385 0
0.600718 1 0.399282
1 0.602477 0
1 0.473437 0
1 0.0384202 0
1 5.96046e-08 0
0.721192 1 0.278808
1 0.769933 0
1 5.96046e-08 0
0 0.987035 1
1 0.287672 0
1 5.96046e-08 0
1 5.96046e-08 0
0.584525 1 0.415475
1 5.96046e-08 0
1 5.96046e-08 0
1 5.96046e-08 0
0.603534 1 0.396466
1 5.96046e-08 0
0 0.366733 1
0 0.886337 1
1 5.96046e-08 0
1 5.96046e-08 0
1 5.96046e-08 0
1 5.96046e-08 0
0.540275 1 0.459725
0.770156 1 0.229844
0.93133 1 0.0686703
0.655973 1 0.344027
0 0.78121 1
1 5.96046e-08 0
0 0.57479 1
1 5.96046e-08 0
1 5.96046e-08 0
1 0.236324 0
1 5.96046e-08 0
0.815237 1 0.184763
1 0.326846 0
1 0.803984 0
1 0.730506 0
1 5.96046e-08 0
1 5.96046e-08 0
1 0.504858 0
1 5.96046e-08 0
1 0.541665 0
1 0.228446 0
1 5.96046e-08 0
0 0.418391 1
0.0328512 1 0.967149
1 5.96046e-08 0
0.974212 1 0.025788
1 5.96046e-08 0
1 5.96046e-08 0
0.491436 1 0.508564
1 0.477404 0
1 0.70801 0
0.350293 1 0.649707
1 5.96046e-08 0
1 0.884605 0
0 0.609876 1
0.636706 1 0.363294
1 5.96046e-08 0
1 5.96046e-08 0
1 5.96046e-08 0
1 5.96046e-08 0
1 5.96046e-08 0
1 5.96046e-08 0
1 5.96046e-08 0
1 5.96046e-08 0
1 0.253567 0
1 5.96046e-08 0
0.598818 1 0.401182
1 0.354692 0
1 5.96046e-08 0
1 5.96046e-08 0
1 0.888784 0
1 5.96046e-08 0
0.213588 1 0.786412
1 0.465759 0
0.980373 1 0.0196271
1 5.96046e-08 0
0.678723 1 0.321277
1 5.96046e-08 0
1 0.870953 0
1 0.926917 0
1 0.0755616 0
0.796583 1 0.203417
0.355691 1 0.644309
1 5.96046e-08 0
0 0.430156 1
0.425955 1 0.574045
1 5.96046e-08 0
0.647191 1 0.352809
0 0.720477 1
0.914114 1 0.0858865
0 0.827173 1
1 5.96046e-08 0
1 5.96046e-08 0
0 0.317003 1
1 0.870776 0
1 5.96046e-08 0
0 0.787284 1
1 5.96046e-08 0
1 5.96046e-08 0
0 0.771655 1
1 5.96046e-08 0
1 0.578464 0
0.499939 1 0.500061
0.00104164 1 0.998958
1 5.96046e-08 0
0.446141 1 0.553859
0.768446 1 0.231554
0.52967 1 0.47033
0 0.610478 1
0 0.463146 1
0 0.992773 1
0.866987 1 0.133013
0.933118 1 0.0668822
1 0.559323 0
0.931878 1 0.068122
0 0.404222 1
0 0.686743 1
0 0.706712 1
0.855119 1 0.144881
1 5.96046e-08 0
1 0.408601 0
0.367579 1 0.632421
1 5.96046e-08 0
0 0.925181 1
1 5.96046e-08 0
0.300127 1 0.699873
1 5.96046e-08 0
1 0.365688 0
0.554144 1 0.445856
0 0.996659 1
1 5.96046e-08 0
0.46086 1 0.53914
0 0.596175 1
1 5.96046e-08 0
0 0.664752 1
0 0.912157 1
0 0.451984 1
0 0.969366 1
1 5.96046e-08 0
1 5.96046e-08 0
0.970952 1 0.0290484
0 0.502993 1
1 0.2864 0
0.794746 1 0.205254
0.146492 1 0.853508
0 0.474912 1
1 5.96046e-08 0
0 0.748573 1
0 0.220999 1
0 0.383611 1
1 0.227207 0
1 0.594838 0
0 0.841884 1
1 0.0496423 0
0.853156 1 0.146844
0 0.426299 1
0 0.766589 1
1 5.96046e-08 0
0.421751 1 0.578249
0 0.348821 1
0 0.432692 1
1 5.96046e-08 0
0 0.716831 1
1 0.144448 0
1 0.685396 0
0 0.601145 1
0 0.745446 1
0 0.91369 1
1 5.96046e-08 0
0.111164 1 0.888836
0.543053 1 0.456947
0 0.698207 1
0 0.678228 1
0 0.891568 1
1 5.96046e-08 0
0 0.468024 1
0 0.236253 1
0 0.479566 1
0.893649 1 0.106351
0 0.798684 1
0.931516 1 0.0684843
1 5.96046e-08 0
0 0.662626 1
1 5.96046e-08 0
1 0.75975 0
1 0.68123 0
