# vtk DataFile Version 3.0
Particle simulation
ASCII
DATASET POLYDATA
POINTS 400 float
0.319889 1.29672 0.33643
0.325176 1.30233 0.205627
0.349516 1.30847 1.23487
0.349216 1.30784 1.30086
0.344544 1.30799 2.14852
0.334785 1.31394 2.43456
0.334763 1.31403 3.01823
0.33225 1.31331 3.44065
0.303295 1.30673 4.17827
0.309359 1.29779 4.1766
0.324644 1.30061 0.361253
0.316691 1.29525 0.237624
0.348322 1.30621 1.25521
0.349934 1.30846 1.31259
0.342805 1.30789 2.15289
0.334934 1.31392 2.43223
0.332754 1.31335 3.07578
0.33519 1.31227 3.39231
0.314424 1.31596 4.14461
0.312089 1.29695 4.14291
0.389428 1.31165 0.306926
0.312885 1.30217 0.193934
0.215363 1.30738 1.24151
0.226864 1.31694 1.30272
0.224173 1.31511 2.15204
0.237011 1.31488 2.43885
0.238232 1.3143 3.01592
0.23227 1.30896 3.4318
0.313837 1.29631 4.18875
0.397779 1.31106 4.20652
0.387477 1.31395 0.328061
0.313625 1.30114 0.225133
0.214695 1.30638 1.26213
0.225946 1.31448 1.31618
0.223796 1.31431 2.1565
0.23655 1.31433 2.43579
0.234386 1.31353 3.07432
0.230867 1.31299 3.3915
0.314639 1.29821 4.1685
0.396491 1.31176 4.17425
0.968024 1.31559 0.293691
1.14383 1.31475 0.270085
1.21709 1.31072 1.20147
1.21319 1.3107 1.31247
1.23658 1.31282 2.14704
1.23227 1.31257 2.45962
1.20614 1.29542 3.03768
1.19917 1.29952 3.47501
1.1482 1.31454 4.11374
0.966138 1.30629 4.22671
0.969463 1.31638 0.322868
1.14157 1.31634 0.280163
1.21615 1.31062 1.23421
1.2149 1.31206 1.32647
1.23506 1.31151 2.14504
1.23177 1.31103 2.43706
1.21142 1.2965 2.94495
1.2043 1.29202 3.42891
1.14917 1.31528 4.08375
0.966828 1.30877 4.18259
1.45054 1.31413 0.297095
1.53734 1.31594 0.247597
1.43157 1.312 1.20251
1.37757 1.29235 1.30901
1.31765 1.31453 2.15205
1.3271 1.31042 2.44116
1.34522 1.2905 2.98575
1.3547 1.27951 3.4369
1.53768 1.30656 4.10333
1.45058 1.30316 4.22659
1.45136 1.31512 0.327228
1.53738 1.31623 0.274645
1.43262 1.31257 1.22154
1.37863 1.29427 1.30496
1.31791 1.3131 2.14854
1.32661 1.31009 2.43264
1.34351 1.28728 3.05291
1.36039 1.28056 3.51747
1.53533 1.30828 4.07014
1.45014 1.30658 4.17741
1.95559 1.31355 0.294174
2.04577 1.31536 0.244937
1.97543 1.31177 1.20558
2.09103 1.31313 1.32737
2.14973 1.31117 2.14007
2.13653 1.30417 2.44314
2.10752 1.30496 2.9999
2.08615 1.30241 3.4426
2.05714 1.30418 4.1212
1.95786 1.30284 4.22937
1.95671 1.31475 0.32457
2.04571 1.31555 0.272532
1.97505 1.31099 1.22979
2.09157 1.31371 1.34112
2.14848 1.3096 2.13888
2.13794 1.30055 2.43546
2.10348 1.30574 3.04818
2.07859 1.30315 3.51064
2.05569 1.30581 4.07692
1.95772 1.30648 4.17991
2.44984 1.31365 0.295141
2.53875 1.31531 0.245535
2.46296 1.31075 1.20075
2.52473 1.31073 1.33301
2.39336 1.31063 2.14097
2.412 1.29318 2.45451
2.41504 1.29029 3.01294
2.41898 1.2858 3.45116
2.54 1.3035 4.11317
2.4454 1.30319 4.22756
2.45096 1.31485 0.325727
2.53886 1.31543 0.273496
2.46297 1.30968 1.22696
2.52518 1.31098 1.356
2.39358 1.30913 2.13736
2.41121 1.29194 2.4278
2.4149 1.2898 3.03564
2.42196 1.28668 3.48805
2.53856 1.30494 4.07165
2.44528 1.30709 4.17862
2.9947 1.31462 0.293063
3.07356 1.31667 0.233071
2.99482 1.31335 1.19721
3.04777 1.31032 1.32531
3.10901 1.31086 2.14612
3.09718 1.30889 2.44337
3.09299 1.30749 3.00743
3.08392 1.30577 3.44184
3.08082 1.30602 4.12925
3.01293 1.30671 4.2273
2.99601 1.31612 0.321618
3.07257 1.31708 0.25898
2.9951 1.31213 1.22318
3.04878 1.31045 1.34578
3.1083 1.30851 2.14115
3.09838 1.30787 2.43538
3.0925 1.30628 3.04697
3.07837 1.3064 3.49609
3.07878 1.30787 4.08822
3.01284 1.30964 4.18032
3.27868 1.30278 0.311679
3.4961 1.3168 0.249097
3.34532 1.31206 1.21424
3.50005 1.31454 1.32567
3.33211 1.31075 2.14923
3.34337 1.30735 2.45543
3.34424 1.3042 2.99926
3.34341 1.3006 3.42412
3.49506 1.3114 4.12705
3.27465 1.2996 4.19639
3.27676 1.30354 0.340754
3.49601 1.31629 0.28377
3.34587 1.30902 1.24299
3.49919 1.31328 1.3568
3.33281 1.3089 2.14694
3.34304 1.30553 2.43499
3.34405 1.30316 3.05224
3.34868 1.3014 3.49578
3.50223 1.31263 4.08183
3.27379 1.30187 4.14726
4.24344 1.30427 0.362887
4.19668 1.31758 0.224621
4.20327 1.31623 1.24363
4.15602 1.31929 1.31409
4.23159 1.31575 2.14631
4.22773 1.31299 2.43619
4.22844 1.31133 3.0064
4.22158 1.30943 3.41849
4.18849 1.31818 4.15838
4.2427 1.30717 4.14446
4.24281 1.3089 0.383099
4.19154 1.31609 0.245554
4.20316 1.31517 1.26071
4.15842 1.31833 1.33162
4.23072 1.3145 2.14776
4.22826 1.31221 2.43024
4.22594 1.31069 3.06891
4.21517 1.31052 3.48556
4.19027 1.32139 4.14039
4.2406 1.30997 4.11775
4.11652 1.30082 0.355576
4.11889 1.30997 0.1958
4.13551 1.30704 1.22942
4.14196 1.30951 1.30724
4.138 1.30995 2.15199
4.1552 1.31175 2.44081
4.15538 1.311 3.00576
4.15054 1.30906 3.45287
4.1364 1.31322 4.17706
4.12461 1.30257 4.15148
4.11382 1.30688 0.380441
4.12207 1.30174 0.231917
4.13443 1.30689 1.25218
4.14046 1.31006 1.31767
4.13872 1.30921 2.1547
4.15482 1.31133 2.43659
4.15218 1.31042 3.06941
4.14993 1.3081 3.39918
4.14341 1.31676 4.14401
4.12222 1.30095 4.12098
0.321343 1.12832 0.33602
0.318474 1.12598 0.231218
0.347658 1.1373 1.23493
0.343985 1.13776 1.2966
0.337976 1.13017 2.14465
0.333922 1.13614 2.44594
0.33289 1.13441 3.01376
0.330903 1.12632 3.43832
0.313494 1.12203 4.18961
0.309347 1.12639 4.17448
0.322552 1.12902 0.36081
0.322527 1.13475 0.236121
0.345758 1.1375 1.25708
0.346833 1.13822 1.30996
0.337332 1.12993 2.14971
0.333705 1.13212 2.43503
0.332478 1.13038 3.07299
0.332266 1.1259 3.39192
0.318359 1.13109 4.15577
0.311291 1.12508 4.14106
0.387841 1.13669 0.303366
0.415952 1.14715 0.211169
0.214166 1.13836 1.24257
0.218949 1.13151 1.29589
0.222348 1.12675 2.14979
0.238966 1.13911 2.45216
0.240574 1.13869 3.01018
0.229967 1.13116 3.40563
0.44889 1.15948 4.1652
0.394985 1.13331 4.2084
0.382949 1.13617 0.329051
0.416776 1.14726 0.241257
0.214688 1.13885 1.25987
0.217668 1.13453 1.31019
0.221312 1.12581 2.15408
0.236789 1.13518 2.43975
0.233036 1.13365 3.07019
0.230566 1.12888 3.38941
0.448388 1.16343 4.13391
0.395274 1.13433 4.1741
0.968247 1.13131 0.293829
1.12314 1.14737 0.260234
1.20966 1.12226 1.20192
1.21433 1.12363 1.31038
1.23477 1.1256 2.14919
1.23058 1.13853 2.4629
1.2067 1.11874 3.03105
1.18558 1.14542 3.5613
1.12234 1.16212 4.10255
0.963576 1.13065 4.22306
0.968981 1.13163 0.322139
1.12203 1.14689 0.285091
1.20973 1.12241 1.23482
1.21582 1.12365 1.3251
1.23371 1.12414 2.14716
1.23066 1.13677 2.44051
1.20976 1.12746 2.91818
1.19144 1.13697 3.53261
1.12401 1.16236 4.08667
0.963802 1.13317 4.17839
1.4509 1.12866 0.295364
1.53807 1.13202 0.247488
1.43486 1.13629 1.19736
1.46408 1.15312 1.31525
1.31686 1.12915 2.15554
1.32877 1.141 2.44252
1.42108 1.15364 2.98414
1.45567 1.15664 3.44924
1.53699 1.15097 4.09042
1.4507 1.12975 4.22178
1.45218 1.12972 0.325833
1.53811 1.13258 0.274786
1.43539 1.13703 1.22062
1.46443 1.153 1.32926
1.3165 1.12739 2.15204
1.32851 1.14067 2.43756
1.41704 1.15047 3.04652
1.4632 1.15946 3.52279
1.5365 1.15251 4.06342
1.45044 1.13197 4.17273
1.95566 1.12804 0.29269
2.04567 1.13152 0.244603
1.97336 1.13326 1.20411
2.0813 1.14605 1.32217
2.14953 1.12503 2.14319
2.13271 1.14478 2.45334
2.08814 1.15372 3.00397
2.06266 1.15694 3.44994
2.05151 1.1504 4.10068
1.95658 1.12872 4.22422
1.95688 1.12926 0.323487
2.04578 1.13201 0.272527
1.97297 1.13316 1.22988
2.0814 1.14561 1.34482
2.14878 1.12322 2.14253
2.13326 1.14199 2.46292
2.08478 1.15381 3.04596
2.05382 1.16078 3.51545
2.05169 1.15273 4.07017
1.95649 1.131 4.17507
2.44975 1.12787 0.293655
2.53956 1.13133 0.245087
2.46405 1.13316 1.20048
2.52665 1.13826 1.33283
2.39347 1.13081 2.14394
2.46705 1.15579 2.44254
2.46424 1.15271 2.99842
2.46613 1.15098 3.44538
2.5395 1.14886 4.09636
2.44481 1.12777 4.22203
2.45116 1.12905 0.324621
2.53973 1.13173 0.273348
2.46401 1.13256 1.22735
2.52698 1.13791 1.35663
2.3931 1.1291 2.14217
2.46703 1.15581 2.44332
2.43873 1.143 3.04338
2.47085 1.15396 3.50778
2.53958 1.15102 4.06554
2.44497 1.13019 4.17351
3.00223 1.13199 0.290518
3.073 1.13298 0.233344
2.99355 1.13375 1.19762
3.04565 1.13965 1.32658
3.10632 1.13646 2.15253
3.08615 1.15642 2.45935
3.08056 1.15418 2.99996
3.07159 1.15257 3.44399
3.07476 1.15111 4.10807
3.00087 1.13059 4.22582
3.00237 1.13236 0.319404
3.07247 1.134 0.259535
2.9937 1.13301 1.22397
3.04647 1.13899 1.34805
3.1064 1.13401 2.1492
3.08625 1.15383 2.44465
3.08142 1.15145 3.04821
3.06569 1.15577 3.50553
3.07464 1.15302 4.08058
3.00034 1.13238 4.17929
3.28174 1.12994 0.308817
3.49624 1.13133 0.246353
3.34605 1.12437 1.21498
3.50253 1.13567 1.32568
3.33182 1.12684 2.15388
3.34267 1.1415 2.46048
3.34215 1.13856 2.9941
3.33886 1.1347 3.42488
3.49803 1.1445 4.12018
3.27455 1.12286 4.1904
3.2804 1.12863 0.337487
3.4962 1.13266 0.281242
3.34627 1.122 1.24447
3.50153 1.13458 1.35782
3.33207 1.12467 2.15148
3.34184 1.13929 2.44038
3.34091 1.13557 3.05123
3.3456 1.13978 3.50621
3.50564 1.14961 4.0743
3.27433 1.12417 4.14294
4.25106 1.13829 0.360437
4.19942 1.13737 0.224621
4.2043 1.13304 1.24301
4.15365 1.14175 1.31733
4.23327 1.12876 2.14889
4.22449 1.1433 2.45106
4.2244 1.14143 3.00077
4.22013 1.13458 3.41788
4.18347 1.14366 4.15348
4.24722 1.12925 4.14495
4.24995 1.13766 0.377914
4.19428 1.13822 0.246524
4.20412 1.13267 1.2611
4.15598 1.14013 1.3354
4.23333 1.12724 2.15032
4.22521 1.13998 2.43502
4.22512 1.138 3.06595
4.20975 1.14123 3.49493
4.18462 1.14641 4.13391
4.244 1.13063 4.11794
4.1157 1.13475 0.356096
4.12725 1.13122 0.223435
4.14147 1.13258 1.23232
4.14602 1.12923 1.30558
4.14519 1.12671 2.1507
4.1567 1.13617 2.45299
4.15667 1.13352 3.00105
4.14984 1.12947 3.45321
4.14143 1.13073 4.1828
4.12384 1.1316 4.14878
4.11554 1.13488 0.378519
4.12615 1.13628 0.226925
4.14325 1.13207 1.25482
4.14619 1.12961 1.31653
4.14487 1.12621 2.15389
4.15588 1.13242 2.44004
4.15195 1.13061 3.06666
4.15074 1.12711 3.39785
4.14964 1.13465 4.15144
4.12261 1.12963 4.11939
POINT_DATA 400
SCALARS particleColor float 3
LOOKUP_TABLE default
0 0.986098 1
0.0750662 1 0.924934
0 0.939967 1
0.0541932 1 0.945807
0 0.925961 1
0 0.898365 1
0 0.871599 1
0 0.916241 1
0 0.878442 1
0 0.995166 1
0.109727 1 0.890273
0 0.884709 1
0.0906012 1 0.909399
0 0.920497 1
0.00525099 1 0.994749
0 0.867391 1
0 0.874576 1
0 0.896982 1
0 0.875554 1
0.0754007 1 0.924599
0 0.78734 1
0 0.95095 1
0 0.883758 1
0.000996301 1 0.999004
0 0.874742 1
0 0.834981 1
0 0.800799 1
0 0.869159 1
0 0.819324 1
0 0.806532 1
0 0.864312 1
0 0.772128 1
0.0571324 1 0.942868
0 0.852837 1
0 0.963919 1
0 0.803135 1
0 0.813223 1
0 0.833517 1
0 0.713391 1
0 0.875415 1
0 0.776977 1
0 0.851628 1
0 0.824635 1
0 0.938415 1
0 0.840142 1
0 0.791098 1
0 0.706712 1
0 0.69379 1
0 0.693351 1
0 0.750379 1
0 0.82463 1
0 0.669023 1
0 0.993309 1
0 0.798284 1
0 0.911017 1
0 0.774175 1
0 0.70306 1
0 0.671986 1
0 0.6247 1
0 0.820906 1
0 0.806059 1
0 0.783379 1
0 0.680831 1
0 0.805062 1
0 0.798173 1
0 0.755952 1
0 0.617911 1
0 0.603616 1
0 0.59951 1
0 0.762077 1
0 0.855712 1
0 0.736969 1
0 0.828517 1
0 0.695041 1
0 0.873227 1
0 0.725171 1
0 0.623632 1
0 0.588721 1
0 0.58139 1
0 0.842211 1
0 0.798199 1
0 0.79081 1
0 0.676382 1
0 0.814173 1
0 0.755019 1
0 0.706937 1
0 0.632756 1
0 0.608336 1
0 0.618262 1
0 0.753379 1
0 0.84633 1
0 0.74464 1
0 0.839641 1
0 0.666437 1
0 0.835688 1
0 0.663023 1
0 0.630795 1
0 0.599046 1
0 0.596265 1
0 0.830876 1
0 0.803468 1
0 0.788181 1
0 0.679895 1
0 0.771446 1
0 0.71856 1
0 0.617615 1
0 0.59433 1
0 0.576158 1
0 0.606829 1
0 0.772432 1
0 0.850654 1
0 0.742631 1
0 0.838949 1
0 0.632253 1
0 0.800953 1
0 0.598402 1
0 0.593189 1
0 0.577274 1
0 0.585643 1
0 0.844121 1
0 0.777667 1
0 0.824632 1
0 0.665201 1
0 0.791873 1
0 0.724189 1
0 0.678028 1
0 0.636344 1
0 0.626711 1
0 0.651432 1
0 0.758428 1
0 0.827842 1
0 0.77029 1
0 0.822008 1
0 0.652283 1
0 0.798222 1
0 0.64341 1
0 0.638773 1
0 0.620439 1
0 0.623546 1
0 0.832326 1
0 0.873957 1
0 0.716615 1
0 0.781132 1
0 0.777494 1
0 0.782199 1
0 0.727579 1
0 0.695995 1
0 0.700721 1
0 0.604622 1
0 0.899336 1
0 0.931202 1
0 0.686717 1
0 0.955781 1
0 0.625825 1
0 0.860497 1
0 0.702898 1
0 0.698933 1
0 0.685077 1
0 0.584926 1
0 0.978712 1
0 0.944059 1
0 0.926557 1
0 0.845035 1
0 0.872086 1
0 0.834505 1
0 0.80461 1
0 0.769071 1
0 0.772366 1
0 0.790928 1
0.00653204 1 0.993468
0.0363907 1 0.963609
0 0.855975 1
0 0.999482 1
0 0.74601 1
0 0.910945 1
0 0.77266 1
0 0.773438 1
0 0.753804 1
0 0.787444 1
0.0623658 1 0.937634
0.101617 1 0.898383
0.203643 1 0.796357
0 0.971087 1
0.0824092 1 0.917591
0 0.960095 1
0 0.903681 1
0 0.871561 1
0 0.921135 1
0.0497564 1 0.950244
0.11058 1 0.88942
0.221856 1 0.778144
0.0247783 1 0.975222
0.123974 1 0.876025
0 0.972206 1
0.0336553 1 0.966345
0 0.876532 1
0 0.88876 1
0 0.897234 1
0 0.936951 1
0.183321 1 0.816679
0.0221876 1 0.977812
0.169903 1 0.830097
0 0.981568 1
0.080414 1 0.919586
0 0.91225 1
0 0.927467 1
0 0.901406 1
0 0.964705 1
0.0981374 1 0.901863
0 0.988161 1
0.0885099 1 0.91149
0 0.970963 1
0.12097 1 0.87903
0 0.953759 1
0 0.985242 1
0 0.911716 1
0 0.906438 1
0 0.920478 1
0 0.973496 1
0.0573297 1 0.94267
0 0.91052 1
0 0.945275 1
0 0.947086 1
0.114759 1 0.885241
0 0.934036 1
0 0.889676 1
0 0.857963 1
0 0.960403 1
0 0.815352 1
0 0.886179 1
0 0.963423 1
0 0.876892 1
0.0808194 1 0.919181
0 0.977545 1
0.0137066 1 0.986293
0 0.881451 1
0 0.883543 1
0 0.900761 1
0 0.680404 1
0 0.91772 1
0 0.834355 1
0 0.959319 1
0 0.855119 1
0.00767645 1 0.992324
0 0.873719 1
0 0.838539 1
0 0.814006 1
0 0.735737 1
0 0.730962 1
0 0.805433 1
0 0.855184 1
0 0.784306 1
0.00977372 1 0.990226
0 0.881728 1
0 0.946277 1
0 0.826659 1
0 0.787403 1
0 0.779083 1
0 0.715189 1
0 0.843907 1
0 0.853532 1
0 0.851324 1
0 0.763775 1
0 0.833155 1
0 0.862625 1
0 0.817572 1
0 0.691679 1
0 0.651404 1
0 0.674995 1
0 0.821138 1
0 0.88518 1
0 0.812177 1
0 0.887577 1
0 0.72358 1
0 0.941284 1
0 0.793227 1
0 0.709772 1
0 0.617904 1
0 0.641554 1
0 0.873066 1
0 0.846927 1
0 0.861624 1
0 0.74296 1
0 0.889301 1
0 0.816107 1
0 0.768299 1
0 0.700386 1
0 0.676896 1
0 0.697036 1
0 0.816713 1
0 0.876622 1
0 0.823411 1
0 0.889001 1
0 0.75582 1
0 0.900457 1
0 0.751016 1
0 0.704141 1
0 0.640011 1
0 0.658725 1
0 0.865245 1
0 0.852675 1
0 0.85855 1
0 0.743629 1
0 0.836296 1
0 0.796092 1
0 0.678741 1
0 0.657698 1
0 0.665646 1
0 0.689263 1
0 0.836622 1
0 0.881517 1
0 0.821375 1
0 0.889184 1
0 0.712605 1
0 0.881886 1
0 0.64571 1
0 0.700155 1
0 0.638471 1
0 0.652103 1
0 0.879345 1
0 0.821424 1
0 0.896472 1
0 0.727941 1
0 0.851617 1
0 0.791159 1
0 0.706943 1
0 0.685893 1
0 0.689221 1
0 0.71902 1
0 0.799663 1
0 0.855527 1
0 0.848979 1
0 0.872714 1
0 0.729351 1
0 0.876812 1
0 0.696288 1
0 0.695016 1
0 0.657888 1
0 0.679909 1
0 0.848222 1
0 0.858157 1
0 0.823571 1
0 0.816692 1
0 0.852135 1
0 0.833239 1
0 0.779029 1
0 0.760884 1
0 0.776255 1
0 0.696745 1
0 0.911036 1
0 0.901406 1
0 0.794738 1
0 0.986104 1
0 0.723877 1
0 0.918519 1
0 0.765339 1
0 0.765848 1
0 0.75006 1
0 0.650775 1
0 0.965609 1
0.0243023 1 0.975698
0.0549032 1 0.945097
0 0.92837 1
0 0.944173 1
0 0.917663 1
0 0.862954 1
0 0.838348 1
0 0.863395 1
0 0.9023 1
0.051999 1 0.948001
0.0688545 1 0.931146
0 0.995036 1
0.06101 1 0.93899
0 0.842157 1
0 0.994747 1
0 0.85515 1
0 0.851838 1
0 0.820911 1
0 0.868969 1
0.0770245 1 0.922976
0.105004 1 0.894996
0.242933 1 0.757067
0 0.985462 1
0.0816479 1 0.918352
0 0.939647 1
0 0.923033 1
0 0.897386 1
0 0.957506 1
0.112165 1 0.887835
0.0809485 1 0.919051
0.165972 1 0.834028
0.0343543 1 0.965646
0.115012 1 0.884988
0 0.966868 1
0.0126663 1 0.987334
0 0.909845 1
0 0.913027 1
0 0.916103 1
0 0.94783 1
0.143587 1 0.856413
