# vtk DataFile Version 3.0
Particle simulation
ASCII
DATASET POLYDATA
POINTS 400 float
5.93969 2.2155 3.59379
2.02049 2.26881 9.17462
0.875651 0.328293 5.30183
7.32608 0.783174 6.38521
7.78048 0.328589 4.19223
9.44981 0.49528 4.74875
8.41061 5.58758 8.08834
1.52629 10 2.45976
9.87083 0.0771359 3.95497
7.65514 3.87877 5.61777
7.42345 0.159701 1.94697
5.29595 9.77469 2.13057
9.61953 0 1.82955
9.27878 4.57966 2.16015
1.22288 1.8531 4.31262
1.82783 5.45004 0.253055
9.57342 2.23078 3.62426
4.60441 0.507972 3.77241
8.90049 7.95158 9.92172
5.08845 6.61217 5.83972
1.12199 1.68047 0.27393
3.33136 8.00263 0.423923
6.78178 1.23726 1.10743
0.477955 2.80154 4.67922
8.88207 9.37095 5.14197
4.1391 0.246261 8.29894
9.57218 5.06063 0
8.73004 7.39487 1.06447
8.6434 1.05775 5.11255
2.61547 0 8.19574
3.6443 5.03966 4.81597
9.24881 0.437401 2.70049
1.76064 9.34811 8.85369
1.81671 7.59912 9.05375
8.2025 4.72812 5.88168
6.89723 8.45086 2.24846
4.9703 6.05039 8.55073
7.77605 0.0330928 0.332228
0.728923 7.12674 9.73344
2.00451 9.18475 1.65346
9.57633 4.37038 8.39814
9.84309 9.59116 1.51703
3.50775 6.48254 7.31812
1.10094 2.8458 4.20613
4.11551 9.76878 8.6691
5.94143 1.97842 4.72785
8.63881 1.791 6.45082
1.95969 5.44942 0.90911
1.32896 0.518207 3.82314
1.32072 9.65253 8.23088
4.80287 7.19011 3.76326
8.01615 9.65853 7.2428
0.289439 2.0542 9.73684
2.96288 7.63005 2.70756
4.96137 5.04961 7.15834
1.6777 2.85877 0.168586
4.79479 1.57391 4.43102
2.82316 0.798692 8.78785
1.38506 9.52659 1.73611
7.39662 4.92791 5.53123
0.504145 7.18167 3.2087
7.50687 2.12649 7.6784
0 5.46023 6.15983
5.13814 8.32204 8.35887
1.55153 5.27717 0.481613
6.97937 0.641994 9.60003
8.55396 3.95964 0.267841
1.71813 4.40801 3.9421
1.04038 2.58292 9.24638
0.452857 5.84901 0.0293148
8.10527 2.82192 2.3954
7.05413 6.87572 4.42305
5.38958 8.52171 5.43079
2.22647 2.71249 7.86756
1.18072 1.87109 7.98995
8.32613 1.19326 3.73002
7.54278 3.08741 9.36919
8.24906 1.01785 9.41599
0.582417 3.19188 8.73639
7.85464 0 1.18941
4.50891 6.79223 6.93477
1.01119 6.72336 6.61272
2.56401 9.43351 4.38369
4.11189 6.24146 1.1229
2.95059 1.29633 8.16928
9.05458 3.10997 5.85638
2.32 9.17306 6.36488
0.537913 3.98628 8.48788
0.796382 5.90258 5.01816
5.94275 9.40137 8.0373
4.22281 0.150983 4.31175
8.75676 7.35288 7.09932
4.7811 4.00812 0
3.97234 1.98519 7.05192
4.69084 4.89572 2.40591
2.8811 6.42061 5.16938
6.74484 3.63453 0.219171
7.20298 0.540845 3.49515
3.62223 6.81516 5.84517
0 8.14789 3.41184
1.2097 2.00922 7.52623
8.76149 9.82769 2.88591
9.40299 0 5.37341
4.83593 1.33278 0.303877
3.07393 4.13931 4.97538
1.33015 9.12415 6.04074
7.1074 3.09754 8.38269
1.04514 6.30106 0
4.3543 4.03551 7.24212
8.09711 5.99116 0.63245
1.13671 9.55658 6.51668
8.10324 3.19732 9.42226
0 6.33777 0
9.41119 3.31116 6.289
2.28058 3.19567 5.48458
5.84297 3.49647 5.23051
0.378478 0 1.95867
2.3478 6.19855 3.91226
1.8702 1.92535 8.69785
4.51285 8.76316 1.54045
2.07877 5.95112 0.105975
5.53701 7.43509 3.78219
5.07113 9.26199 9.13127
9.18762 6.1889 8.41202
3.24495 0.875619 4.9839
3.42062 1.31663 8.05445
4.64527 7.40577 3.15628
10 5.53994 8.85555
6.87763 6.62246 8.44014
7.77554 0.976362 1.83291
3.05258 5.94709 4.88206
6.63222 7.48385 0.637988
9.17175 7.53124 6.87062
3.86508 8.28629 2.29128
7.4052 4.58274 6.01469
1.67446 2.24235 3.21247
2.78224 7.56976 2.81627
3.46515 2.1471 7.38863
8.7029 7.1768 6.54466
9.75375 5.43381 3.43281
4.73051 0.471462 3.84958
8.83764 8.56941 7.3333
8.1178 7.42836 6.73656
3.83999 0.146044 1.50196
6.07066 9.873 6.20538
5.28899 0.336099 3.49356
8.2103 2.53937 1.57218
1.48801 0.907907 3.23991
8.0557 5.91088 1.94791
6.67425 1.0803 9.41328
4.74438 0.377381 3.7428
2.98845 8.19905 4.02553
6.248 5.18472 0.454839
2.57101 0.912869 9.4202
6.3846 7.10594 9.71884
1.06317 4.23191 5.08455
5.03562 5.52132 8.52287
5.4099 9.50825 4.92708
3.18892 7.38217 6.30515
9.4063 4.43211 2.70222
0 2.4148 4.74081
5.17459 0 4.66653
5.23129 2.71479 9.2232
5.21667 4.01572 8.15984
0.951275 2.3026 3.86289
2.60426 8.85927 2.70937
7.15766 1.69839 7.96592
0.227537 9.33325 9.37784
2.14132 5.56016 6.48808
4.88577 2.83189 5.35293
8.00606 8.86093 6.69205
3.65027 2.70757 4.38304
1.02706 8.63284 3.39669
8.08997 0.321649 7.08272
1.42641 6.15275 1.41797
3.63812 0.784364 5.21961
5.36397 0.419872 5.60474
1.40256 6.64641 6.07278
7.68444 9.00269 2.04264
3.05949 6.9731 8.49364
2.08227 0.508274 1.73646
8.18955 1.77799 0.977751
0.191537 5.10456 0.11437
1.15951 3.02003 7.39184
7.77503 1.74561 9.87824
3.61284 10 6.77602
4.83599 0.159258 3.90479
7.01721 9.44245 7.34442
6.5273 4.91452 10
8.1782 0.0566316 5.74409
6.25228 0.766101 6.84689
5.30553 0.2244 3.1579
1.36267 5.70919 0
6.55869 8.33931 6.58695
1.66284 2.65812 2.80622
4.34663 5.50018 9.9286
3.06824 1.33606 1.00506
9.52701 3.67285 2.13617
9.67994 1.60729 1.59886
3.4516 0.301555 3.56527
4.69439 0.367273 3.77133
0.212637 5.91363 4.09419
5.96097 8.59999 1.02291
7.09951 0.430072 1.47807
0.246622 7.56714 3.81129
8.26245 3.32156 2.29669
6.98119 0.825594 9.47545
3.24388 7.10554 8.99803
1.08792 1.20147 7.036
7.50936 0.695267 2.81226
4.82622 0.193502 3.66138
4.6488 0.431718 3.46505
0.281554 6.87094 0.103894
0.45383 4.67396 4.72772
3.36665 1.56271 5.05465
0.822567 5.90104 2.66533
4.5574 0.703467 3.68168
6.0397 7.18924 3.98341
4.83346 0.802224 9.24088
0.0107769 8.33746 4.80329
6.54764 8.76773 9.74274
1.37401 3.02845 2.49956
4.68261 2.60509 6.02159
5.37298 0.191812 3.87863
3.52062 3.41716 1.62981
7.95115 3.1385 5.25346
8.40817 5.14425 4.69841
4.37879 0.67936 3.51082
4.7781 0.585338 3.60185
1.91865 1.61652 5.16418
3.53437 3.15156 9.67838
2.88754 9.24643 1.70043
1.10994 0.297965 8.1248
5.17109 0.345155 4.40849
1.84284 0.734191 7.72334
1.95133 4.95261 3.40906
2.51512 8.29356 6.20578
8.42601 5.09734 7.78631
4.6217 0.208591 3.96113
0.739955 4.58288 7.29149
4.89202 0.493624 3.94274
7.92433 0.35344 0.513619
3.03831 1.01684 5.00648
9.10594 1.50577 0.485224
7.13175 1.58854 3.69009
9.16173 3.85863 0.00237136
6.63757 5.61764 5.45588
6.83976 9.34242 0.352902
5.76492 9.29256 6.41578
6.45881 1.56412 0.600209
4.97229 0.221594 3.9451
1.10641 2.67472 7.65323
2.68727 1.0463 1.07138
2.28837 2.02331 0.569018
10 8.10207 3.90934
2.53594 4.90138 1.90166
4.29489 2.88477 6.96209
1.6791 0.50818 7.72607
1.72302 9.62668 6.75821
5.198 5.56997 9.66298
0 9.90208 1.44562
1.62507 0.990982 3.94205
2.92283 8.37325 2.58511
8.50685 6.05296 3.62204
8.34821 1.24877 5.11574
5.0256 8.40163 3.94501
2.12483 1.28279 0.232235
2.16394 0.223854 8.41504
0.909658 4.224 3.86453
4.42947 5.13075 2.22081
4.44543 0.454798 3.78734
3.3998 8.93806 0.391432
4.81167 7.56097 3.95875
9.24053 3.10452 2.18163
4.87917 7.41496 6.93772
5.96293 0.24449 7.05877
4.42075 5.78576 10
7.15353 7.73333 9.63239
6.68518 8.05095 5.75623
4.93978 0.257531 3.98593
5.27891 4.47871 2.47428
9.27529 0.64423 1.94805
1.19688 5.33128 9.28729
2.434 5.09327 5.02119
8.09868 1.71441 5.35836
7.21363 9.63847 8.84827
4.35642 0.584284 3.70248
7.60377 5.83794 0.689241
3.12244 4.50298 1.47413
8.84039 2.4566 10
7.62421 8.99274 6.47978
0.274725 9.61926 8.76245
9.67839 5.96568 6.46792
4.53084 1.64162 1.79081
4.4635 1.57023 7.22642
1.87686 0.768595 7.66581
4.53801 0.2221 3.53803
4.53094 0.303864 3.6837
5.59575 0.196539 3.96421
4.83461 0.456225 3.43426
9.01204 9.92154 3.93971
3.28955 2.34183 5.43448
4.54674 0.392359 3.59954
3.94013 4.38096 1.89138
4.67286 0.558445 3.2126
5.41299 9.23638 9.9942
4.75875 0.223305 3.78692
4.6996 0.385239 3.92136
3.83289 8.67892 1.98476
6.09225 7.28687 5.9277
8.52398 7.51476 2.38137
8.69068 4.34274 6.70059
7.58233 7.12065 0.230126
4.40617 0.254532 3.73394
7.53905 0.83909 8.76987
8.86997 7.34945 0.536214
8.79097 2.60145 2.12181
2.38058 4.97158 8.74204
1.88269 0.33338 5.94918
0.609846 2.63897 4.53092
1.80817 0.36718 8.142
4.41467 6.8371 8.2688
1.59454 0.404431 7.61227
4.68012 0.411618 3.90834
3.7614 0.212878 3.72286
10 8.85341 8.38334
4.90306 0.350963 4.12001
5.96668 0 0.945126
8.59755 5.30119 4.17608
4.95775 0.302971 3.8635
1.23445 0.969304 10
1.58834 2.92358 3.24306
3.81649 7.44569 2.65077
7.37406 7.29752 4.36849
9.26316 0.376124 2.39
6.35014 10 9.45298
1.92157 8.77179 6.94953
4.78234 0.48896 3.85565
4.09768 2.15039 6.70119
7.21346 1.70765 7.58427
7.00905 8.50455 4.24115
7.85635 9.39763 5.00512
1.786 0.999901 8.33599
1.86091 0.578458 7.66061
4.40387 0.186349 3.44657
4.50039 0.489786 2.97311
9.6983 0.908927 0.320732
5.13303 0.260213 4.21052
4.73524 0.477749 4.44609
7.83494 0.345967 4.8945
5.12551 0.38252 3.81915
4.90621 0.427282 4.22767
3.07098 5.04359 9.94315
9.11484 1.2507 2.04884
2.35916 3.30591 5.25153
4.73287 0.637467 3.29918
9.74251 4.15563 8.60434
8.03583 7.08445 7.85722
4.35153 0.296634 4.05842
4.60404 0.509405 3.98508
9.21781 1.14546 2.237
1.96286 0.472238 7.58959
1.91386 0.602863 7.56779
5.22448 0.616131 3.96926
4.83206 0.45044 3.35248
9.16297 0.594087 2.66941
2.12536 0.594118 7.6409
3.43531 6.51348 6.21131
1.89557 0.401854 7.89018
3.69426 8.36481 4.30774
9.41594 0.13467 2.39087
1.29058 9.50422 1.42154
1.50089 9.03744 9.07896
3.88859 0.41845 3.48257
4.14366 0.563431 3.44915
9.30362 0.423181 2.30097
1.8045 0.87614 7.90408
1.69745 0.342789 8.3503
1.14242 0.51553 6.50599
4.76322 0.415963 3.67076
5.31225 0.495153 3.92024
4.85159 0.355405 4.08841
3.17894 6.50156 9.81221
4.65566 0.747119 3.85568
4.81191 9.40706 4.71334
1.78408 0.801682 7.71712
4.81035 0.254216 3.63265
4.66031 0.115706 4.03813
1.17787 8.13014 9.87681
6.66932 1.35124 7.37837
5.03991 0.468785 3.55567
4.68042 0.592512 3.59211
2.01282 0.603915 7.4093
4.73196 0.677644 3.56512
9.22113 0.663059 1.91199
2.0112 0.310473 8.08956
4.95952 0.164119 3.66331
5.52927 4.53011 2.74848
7.04777 8.87227 2.7349
9.82266 0.605134 1.95903
POINT_DATA 400
SCALARS particleColor float 3
LOOKUP_TABLE default
1 0.498872 0
1 5.96046e-08 0
0.645222 1 0.354778
1 0.835705 0
0.926069 1 0.0739305
1 0.296715 0
1 5.96046e-08 0
1 0.546029 0
1 0.307165 0
1 5.96046e-08 0
0.929003 1 0.0709974
1 5.96046e-08 0
1 0.957952 0
0.680375 1 0.319625
1 0.0542992 0
1 0.140297 0
1 5.96046e-08 0
0 0.523471 1
1 5.96046e-08 0
1 5.96046e-08 0
0 0.56823 1
1 5.96046e-08 0
1 0.381994 0
0.739142 1 0.260858
0.395008 1 0.604992
1 5.96046e-08 0
1 0.812394 0
1 0.988291 0
1 0.919705 0
0.0685127 1 0.931487
1 0.0194207 0
0.240794 1 0.759206
1 0.569596 0
0 0.455442 1
0.395948 1 0.604052
0.435411 1 0.564589
1 0.787235 0
0 0.605776 1
1 5.96046e-08 0
0.398745 1 0.601255
0 0.421531 1
0.621917 1 0.378083
1 5.96046e-08 0
1 5.96046e-08 0
0 0.714971 1
1 0.162083 0
0.059531 1 0.940469
1 5.96046e-08 0
1 5.96046e-08 0
1 5.96046e-08 0
1 5.96046e-08 0
1 0.310968 0
1 0.470981 0
1 0.00788909 0
1 5.96046e-08 0
0 0.993496 1
1 0.280902 0
0.702901 1 0.297099
1 5.96046e-08 0
0.439903 1 0.560097
1 5.96046e-08 0
1 5.96046e-08 0
0.507206 1 0.492794
0 0.571469 1
1 0.947579 0
0.394685 1 0.605315
0.62605 1 0.37395
0.38727 1 0.61273
0.0407148 1 0.959285
0.0500359 1 0.949964
1 0.983476 0
0.119122 1 0.880879
1 0.0943812 0
0.37194 1 0.62806
1 5.96046e-08 0
0.33884 1 0.66116
0.453753 1 0.546247
1 5.96046e-08 0
1 0.836536 0
1 0.113554 0
1 0.877781 0
1 5.96046e-08 0
0.56334 1 0.43666
1 5.96046e-08 0
1 5.96046e-08 0
0.643173 1 0.356827
0.411893 1 0.588107
0.433282 1 0.566718
0.706404 1 0.293596
1 5.96046e-08 0
0 0.413441 1
0.0161951 1 0.983805
1 5.96046e-08 0
1 5.96046e-08 0
1 0.747275 0
1 5.96046e-08 0
1 5.96046e-08 0
0.634274 1 0.365726
0.602691 1 0.397309
1 5.96046e-08 0
1 5.96046e-08 0
1 5.96046e-08 0
1 5.96046e-08 0
0 0.957402 1
1 5.96046e-08 0
1 0.864525 0
1 5.96046e-08 0
0.598761 1 0.401239
1 0.545525 0
1 5.96046e-08 0
1 0.463245 0
1 0.445928 0
1 0.679463 0
1 0.157028 0
0 0.905687 1
1 0.466163 0
1 5.96046e-08 0
1 0.650892 0
0.196032 1 0.803968
0.122804 1 0.877196
1 0.932534 0
1 5.96046e-08 0
0.697167 1 0.302833
1 5.96046e-08 0
1 5.96046e-08 0
0 0.811202 1
0.00932108 1 0.990679
1 5.96046e-08 0
0 0.935932 1
1 5.96046e-08 0
1 0.20375 0
1 5.96046e-08 0
1 5.96046e-08 0
1 0.393881 0
1 0.254668 0
1 0.155407 0
1 5.96046e-08 0
1 0.861487 0
1 0.888034 0
0 0.720781 1
0 0.813933 1
1 0.227908 0
1 0.794534 0
1 0.469959 0
1 0.391642 0
0.688272 1 0.311728
1 0.984911 0
0.722184 1 0.277816
0.890996 1 0.109004
0.731472 1 0.268528
0 0.388353 1
1 5.96046e-08 0
1 0.342875 0
0.742844 1 0.257156
1 0.779183 0
1 5.96046e-08 0
1 0.703724 0
0.754632 1 0.245368
1 5.96046e-08 0
0.347313 1 0.652687
1 5.96046e-08 0
0.526644 1 0.473356
1 5.96046e-08 0
1 5.96046e-08 0
1 5.96046e-08 0
0.658227 1 0.341773
1 5.96046e-08 0
0.476973 1 0.523027
1 5.96046e-08 0
1 0.179284 0
1 5.96046e-08 0
0.835581 1 0.164419
0.647596 1 0.352404
0.401992 1 0.598008
1 0.296422 0
1 5.96046e-08 0
1 5.96046e-08 0
1 5.96046e-08 0
1 5.96046e-08 0
1 0.943845 0
0.00491747 1 0.995082
1 0.419324 0
0 0.897835 1
0.362962 1 0.637038
0.25669 1 0.74331
1 5.96046e-08 0
0 0.172726 1
0.0531982 1 0.946802
1 0.449206 0
1 0.972949 0
0.300778 1 0.699222
0 0.463753 1
0.909089 1 0.0909108
1 0.792352 0
0.393085 1 0.606915
1 5.96046e-08 0
0.448642 1 0.551358
0.499346 1 0.500654
0.454127 1 0.545873
0 0.765449 1
0 0.527996 1
1 0.97684 0
0.605388 1 0.394612
1 5.96046e-08 0
0.56296 1 0.43704
1 5.96046e-08 0
1 0.772479 0
0.788234 1 0.211766
1 0.679447 0
0.890709 1 0.109291
0 0.277659 1
0 0.43822 1
0 0.330938 1
0.745795 1 0.254205
1 5.96046e-08 0
1 5.96046e-08 0
0 0.60273 1
0.910964 1 0.089036
1 0.0899011 0
1 5.96046e-08 0
0.353858 1 0.646142
1 5.96046e-08 0
1 5.96046e-08 0
0 0.565346 1
0.903442 1 0.0965585
1 0.751793 0
0.10415 1 0.89585
0 0.979886 1
0 0.482543 1
1 5.96046e-08 0
0.702463 1 0.297537
0.929794 1 0.0702058
0.701283 1 0.298717
0 0.621127 1
0 0.635 1
1 5.96046e-08 0
1 5.96046e-08 0
1 5.96046e-08 0
0 0.239011 1
1 5.96046e-08 0
0 0.77307 1
0.0957019 1 0.904298
1 0.502125 0
0.586704 1 0.413296
0.276813 1 0.723187
1 0.678633 0
1 5.96046e-08 0
1 5.96046e-08 0
0.907995 1 0.0920052
1 5.96046e-08 0
0 0.538468 1
0.803898 1 0.196102
1 5.96046e-08 0
0.972716 1 0.0272839
1 5.96046e-08 0
0.458942 1 0.541058
0.869779 1 0.130221
0 0.459696 1
1 0.142016 0
1 5.96046e-08 0
1 0.168292 0
1 0.789764 0
0.430751 1 0.569249
1 0.433643 0
1 5.96046e-08 0
1 5.96046e-08 0
0.999337 1 0.000662684
0.0588513 1 0.941149
1 5.96046e-08 0
1 0.744097 0
0 0.618658 1
0.707179 1 0.292821
1 0.379625 0
0.516544 1 0.483456
0.714253 1 0.285747
0.112748 1 0.887252
1 0.901154 0
1 5.96046e-08 0
1 5.96046e-08 0
0 0.715034 1
1 5.96046e-08 0
0 0.456839 1
1 0.358957 0
1 5.96046e-08 0
1 5.96046e-08 0
1 5.96046e-08 0
0 0.626067 1
0.571544 1 0.428456
0.264004 1 0.735996
1 0.096097 0
1 0.71599 0
0.649878 1 0.350122
1 5.96046e-08 0
1 5.96046e-08 0
1 0.0345613 0
0 0.557231 1
0 0.774092 1
0 0.63981 1
0 0.861267 1
0 0.312916 1
1 5.96046e-08 0
1 5.96046e-08 0
0.171177 1 0.828823
1 0.840219 0
0 0.70773 1
1 5.96046e-08 0
0.198621 1 0.801379
0 0.39706 1
1 0.944407 0
0.514206 1 0.485794
1 0.797172 0
1 5.96046e-08 0
0 0.762426 1
0.0708561 1 0.929144
1 0.981774 0
0.711981 1 0.288019
1 5.96046e-08 0
0.693512 1 0.306488
1 5.96046e-08 0
1 0.0913616 0
0 0.730376 1
1 5.96046e-08 0
0 0.567314 1
0 0.909294 1
0 0.830772 1
1 0.38214 0
0 0.246564 1
1 0.782018 0
1 0.222231 0
0 0.408025 1
0 0.732872 1
0.433854 1 0.566146
1 5.96046e-08 0
1 0.728835 0
0 0.604256 1
1 5.96046e-08 0
1 0.834131 0
0 0.584178 1
1 5.96046e-08 0
1 0.552392 0
0.0275827 1 0.972417
1 5.96046e-08 0
0.18399 1 0.81601
0 0.550065 1
0 0.647392 1
0 0.498585 1
0 0.902889 1
0 0.838574 1
0 0.867432 1
1 0.0858567 0
0 0.854438 1
0 0.607648 1
0.869001 1 0.130999
1 5.96046e-08 0
0 0.762922 1
0 0.301865 1
1 0.48963 0
0.476364 1 0.523636
0 0.349895 1
0 0.52732 1
0 0.505223 1
0 0.217804 1
0 0.547623 1
0.134215 1 0.865785
0 0.843712 1
0 0.969891 1
0 0.744157 1
0 0.772478 1
0 0.317699 1
1 0.492067 0
0.114434 1 0.885566
0.452513 1 0.547487
1 5.96046e-08 0
0 0.334136 1
0 0.483039 1
0 0.450759 1
0 0.0999844 1
0.00154557 1 0.998454
0.259187 1 0.740813
0.307393 1 0.692607
0 0.332855 1
0 0.492213 1
0.109594 1 0.890406
0 0.581019 1
0.961685 1 0.0383153
0 0.349447 1
0 0.463827 1
0 0.355832 1
0.234257 1 0.765743
0.828269 1 0.171731
0.122183 1 0.877817
0 0.885441 1
0 0.970895 1
0 0.846585 1
1 5.96046e-08 0
0 0.880441 1
0 0.828642 1
0.022722 1 0.977278
1 5.96046e-08 0
0 0.53489 1
