# vtk DataFile Version 3.0
Particle simulation
ASCII
DATASET POLYDATA
POINTS 400 float
1.37124 0.233426 1.0334
1.63932 0.722314 1.40071
2.53312 0.804422 2.12908
1.89197 0.139017 1.73667
8.22858 0.832338 4.63695
6.04248 0.819667 4.67419
9.02477 3.05531 0.825331
2.32183 4.26116 3.36496
6.12127 0.239375 0.650309
8.36496 0.499831 2.14227
1.93747 0.176105 1.95883
1.37012 0.501684 0.548323
1.59411 0.503443 2.25099
1.84219 0.176021 1.72
8.31875 0.877115 4.51663
4.05992 5.26356 7.22639
5.31885 0.0221669 2.08857
2.18274 0.416551 2.61066
9.78707 0.150899 0.156581
8.42791 0.43264 2.2051
2.2673 0.851739 1.33584
6.35889 0.528875 4.11237
1.73058 2.32215 6.16392
8.22213 0.342434 1.97729
3.83531 1.36298 5.70773
2.23094 0.610764 0.87154
6.09221 0.70794 7.44836
2.66101 0.756202 2.1197
4.84413 0.243381 3.63221
1.98212 0.148643 1.39023
6.87436 0.50459 0.89125
8.73602 0.595979 1.00189
3.95095 9.19072 8.23709
8.17157 0.369367 1.96734
1.19261 1.58333 2.17026
2.20299 0.523388 0.871342
5.96679 0.617682 7.58844
1.96637 0.407679 3.03933
4.87714 0.484157 1.70931
1.77315 0.932918 0.786815
1.08585 0.565439 0.792252
4.59633 0.107943 0.716097
4.005 0.624286 3.85636
8.75152 0.0575712 2.31038
5.33113 0.670253 6.58406
4.53167 0.458992 1.97385
3.34457 1.29653 1.4397
2.00413 1.10528 3.25883
4.37289 0.243086 1.95224
6.86385 0.283756 5.01073
0.985225 0.533026 0.970052
4.60865 0.054607 0.762589
3.78406 0.600626 2.84407
8.7424 0.050002 2.28575
5.39087 0.681766 6.57074
4.55649 0.461828 1.96101
3.50298 0.252809 6.62138
2.25987 0.520815 3.06367
4.38816 0.251036 2.01305
5.0265 0.766872 7.9139
5.20312 0.946561 2.81168
2.4688 0.849842 3.20372
5.03203 0.992787 8.0986
8.19514 1.03269 1.4524
5.52208 0.282945 7.97123
4.8761 0.456198 7.53167
3.52261 0.668471 3.06174
1.09239 0.597767 0.478145
4.4072 0.222248 2.1508
3.35616 0.229206 6.65251
5.16072 0.976714 3.21734
2.40243 0.149626 1.29536
4.5328 0.792183 6.14679
8.17068 0.991128 1.44781
5.64759 0.553836 7.84296
4.93798 0.30137 6.81858
3.52235 0.655335 3.02439
3.28688 0.61585 6.18656
4.43205 0.226476 2.16487
3.3642 0.194608 6.65384
1.72079 0.445774 1.58678
2.19616 0 1.27415
1.13587 0.577623 1.41463
2.58674 0.0817374 2.03955
4.6715 0.373343 6.78246
3.25903 0.197492 5.95418
5.54396 0.533531 6.62637
2.47454 0.756533 2.31615
1.70533 1.19722 10
6.57779 0.418534 1.23087
1.52831 0.30551 1.1185
2.52933 0.782654 2.23673
4.50931 0.142039 0.659691
2.58507 0.103743 2.07262
4.69573 0.394856 6.77955
3.26621 0.212365 5.93883
3.11629 0.550945 6.04051
1.76752 1.13759 3.10131
1.79322 0.0323698 7.06506
6.59004 0.456026 1.20872
2.47016 0.534039 2.41731
7.5823 0.913328 0.227942
2.1244 0.354668 1.65539
7.71233 0.141202 1.1581
8.45068 1.275 1.52195
2.18975 0.446453 2.8347
2.80086 0.499508 6.2616
5.21699 0.110954 1.65584
4.41597 0.234943 1.92258
6.52417 0.539664 1.18864
0.698426 0.414353 0.851465
8.23729 0.678317 1.49305
1.8734 0.313123 1.7728
6.70667 0.419141 0.760989
2.00288 0.19487 2.60901
2.25377 0.447337 2.72967
3.31276 0.479661 6.16887
4.13285 0.277654 1.95787
4.39347 0.243561 2.06573
2.07033 0.377153 2.4649
2.613 0.124309 2.00432
4.87511 0.619313 1.16719
4.92303 0.544643 7.22566
5.00579 0.45713 3.5159
3.59627 0.360822 7.35355
2.11797 0.512906 1.58876
1.83089 0.686737 3.10039
8.77245 0.417097 2.02488
4.86849 0.921927 6.86612
2.65415 0.501082 2.21097
2.60325 0.137942 2.01146
4.8797 0.257366 1.93224
4.62043 0.334602 6.23312
4.87465 0.550356 3.54987
2.9327 0.477023 6.42619
1.79948 0.651159 0.831397
4.5808 0.589195 7.65712
8.75968 0.398388 2.03296
3.30378 0.29647 6.21398
3.81759 0.985941 3.07306
1.81639 0.254835 1.62788
3.6678 0.755645 2.27446
1.55902 0.300725 1.88582
1.36555 0.640316 0.840245
1.48221 0.124122 2.22431
1.91884 0.371968 1.79809
5.09087 0.769978 7.96796
2.16508 0.343243 3.02165
2.34459 0.267538 2.5486
0.89696 0.0859197 0.550381
1.82277 0.252009 1.628
3.68751 0.879791 2.37907
1.06981 0.533402 1.34816
3.13038 0.303401 3.34383
1.6672 0.81822 1.51212
2.12065 0.20676 2.15174
5.06578 0.716377 7.9967
1.92497 0.673887 0.936136
3.54816 0.804554 3.30692
2.14502 0.441692 2.89723
1.74055 0.205128 1.49434
1.42386 0.680098 1.30252
4.65666 0.219022 6.27935
2.656 0.607651 1.70782
0.893649 0.513466 0.979048
3.17781 0.431904 3.0594
3.02274 0.477686 6.45166
3.40774 0.302695 5.8552
5.17612 0.635594 6.81599
4.54246 0.219515 2.63046
1.70168 0.273847 1.55885
1.74687 0.889462 0.77599
4.71343 0.296961 6.38884
1.73979 0.902402 0.959247
1.24399 0.296937 1.19647
1.95411 0.443963 2.90631
3.22694 0.243765 6.31504
3.19743 0.474556 6.16912
3.66295 0.113894 6.38126
4.53637 0.232603 2.61549
1.97257 0.494753 0.916029
2.20754 0.612175 1.0557
6.31316 0.70545 7.14494
0.689746 1.20281 2.21661
2.90752 0.238639 6.56078
2.12099 0.44321 1.91189
2.56737 0.547984 2.54007
4.91605 1.33633 2.57294
1.70122 0.0502367 2.509
1.63468 0.560361 1.02649
1.94018 0.503759 0.918843
1.83287 0.229113 1.52214
5.00766 0.594684 6.51005
0.749714 0.972858 2.13621
3.10115 0.197595 6.14693
2.47359 0.632954 2.03055
2.51626 0.534527 2.49761
7.04695 1.5635 1.67463
1.65978 0.0512103 2.57824
1.89571 0.694941 0.999758
1.44455 0.00465584 0.867649
4.5411 0.348265 1.48473
2.80951 0.159005 6.55821
3.18996 0.600859 2.87828
5.99204 0.752438 7.65294
3.15975 0.46059 5.96253
2.17905 0.231583 2.73241
2.64673 0.328778 2.30336
2.73224 0.546978 2.97502
7.08318 0.716057 0.978914
1.44899 0.411918 1.4675
5.25746 0.221102 1.973
5.65067 0.700226 6.65057
3.15468 0.54324 2.84425
5.96848 0.749359 7.652
3.19107 0.446805 6.00315
2.15154 0.233086 2.7448
1.99211 0.977082 2.13976
1.3518 0.239874 2.18171
6.9152 0.490464 1.13048
8.23281 0.408111 2.09762
1.29018 0.066252 6.63068
4.55317 0.334676 6.51432
1.5195 0.165436 1.39603
4.97788 0.611274 6.63851
1.01286 1.18599 2.30381
5.4586 0.951575 6.44079
1.33327 0.171782 1.38692
1.53321 0.123323 1.60853
2.88292 0.248408 2.4392
8.18843 0.46114 2.09943
3.65164 0.456418 6.20851
5.53273 0.551905 8.03479
1.52383 0.151785 1.35414
4.81921 0.628197 6.38429
1.22353 1.41655 2.35836
6.21912 0.770703 7.61495
0.888089 1.56805 2.14829
1.52014 0.147613 2.15922
2.49528 0.333711 1.93652
1.86398 0.158863 1.7753
2.03737 0.437386 1.61689
2.28758 0.246648 2.73811
1.90591 0.177929 1.3586
3.75094 0.319328 6.28845
1.00521 0 2.45999
2.14857 0.261452 2.85337
2.8741 0.544104 5.96407
4.2531 0.584315 2.01925
3.70465 0.147997 6.04692
1.85483 0.129796 1.93614
4.77882 0.0935758 1.63897
3.7847 0.105015 6.79521
1.95354 0.172741 1.26188
4.73484 0.159761 6.51366
0.943623 0.344045 2.6963
6.98871 0.338537 1.26337
5.2111 0.225603 6.79169
4.2537 0.625821 2.03371
3.72929 0.140904 6.07243
1.07401 0.0226706 2.21996
3.1949 0.25327 3.46857
3.06371 0.876474 2.59291
8.48068 0.258115 2.12661
5.93956 0.862627 7.45557
0.546316 0.0684121 1.05365
5.84763 0.543521 1.04002
3.36456 0.261195 5.75849
5.74489 0.157113 8.12244
1.1309 0.0957944 2.30875
1.0476 0.0399078 2.26727
3.12871 0.27429 3.39292
0.904985 1.39963 1.93528
7.97275 0.453512 2.27326
3.27373 0.442172 6.45515
2.45951 0.196757 6.64947
8.19216 0.832709 1.91796
4.80486 0.24167 5.60286
5.72397 0.151071 8.11544
1.36546 0.118695 2.51926
7.58397 0.550632 0.925405
4.83006 0.122645 1.59605
4.74914 0.309637 1.81417
8.1188 0.802824 2.11632
6.66624 1.07534 7.32296
6.24446 1.20528 7.20008
2.91337 0.585183 2.49834
1.36991 0.8643 3.02635
3.52607 0.74972 3.05228
2.01157 0.0423318 6.83623
7.66842 0.624882 0.848854
4.81514 0.107906 1.60365
2.23233 0.804565 1.65827
8.11248 0.808577 2.0835
3.14721 0.524897 6.25532
3.76446 0.47976 6.53974
2.33677 0.592289 2.41488
0.999997 1.75063 2.13016
2.58425 0.586355 1.96084
2.31222 0.320093 1.83016
6.91097 0.49178 1.09438
3.52255 0.493136 3.14152
2.78447 0.761878 1.5398
4.26297 0.121 2.68933
0.893541 0.120838 0.572087
4.60474 0.868178 1.07148
2.06921 0.288763 2.58197
1.9083 0.401773 2.60145
1.1569 0.275543 2.47715
1.80631 0.464951 2.42496
7.82401 0.754304 2.0294
3.51693 0.505017 3.12433
5.17937 0.673341 6.37002
2.09448 0.0456197 1.4636
0.926512 0.0652056 0.552309
7.23527 0.390566 0.892639
2.11891 0.278838 2.57688
3.40145 0.898092 3.59494
4.47747 0.228482 1.59677
1.76503 0.503297 2.29172
3.3541 0.291655 3.31324
1.08224 1.93962 2.65853
3.67024 0.145563 6.68124
1.69039 1.06317 0.661779
6.66995 0.536198 0.885138
6.96227 0.528286 0.912877
1.99823 0.621041 3.01688
4.88321 0.52409 1.64204
6.63654 0.398297 1.09345
2.77518 0.0316209 2.44007
3.37468 0.281618 3.29228
1.76971 0.175881 1.86099
3.62769 0.110606 6.70799
1.74815 1.01997 0.711253
6.73815 0.657874 0.984265
3.48009 0.746012 3.24823
2.03517 0.611871 3.06896
1.3861 0.194407 1.63338
6.71251 0.450723 0.918423
2.32981 0.602722 2.51657
3.69873 0.314931 3.17906
1.59015 0.64498 1.37041
4.6505 0.867756 6.89095
3.36702 0.599068 2.82347
1.92146 0.215476 1.93614
2.56777 0.134587 2.50879
4.78151 0.290479 1.58257
2.10213 0.34295 2.96244
2.54727 0.380895 2.44255
1.63305 0.6363 2.97934
1.81193 0.472723 0.81385
1.5325 0.5661 1.35043
4.84742 0.492733 6.55036
3.38402 0.585467 2.82627
1.84195 0.177525 1.81977
2.14384 0 3.00624
4.82165 0.343406 1.54878
3.50365 0.0725918 6.38313
2.59994 0.313831 2.58008
1.77937 0.151763 3.0106
4.74041 0.261402 1.20594
3.74571 0.520505 2.72647
4.4936 0.477011 6.86575
2.24694 0.647045 2.74769
2.63827 0.743087 2.97587
5.36963 0.801922 6.3388
3.60888 0.0983585 6.17144
3.21409 0.428563 6.31063
3.0919 0.162011 6.11939
1.37333 0.32854 2.23463
4.72304 0.283424 1.22032
3.74729 0.50157 2.68548
4.48236 0.998486 6.65316
2.24605 0.727437 2.87098
1.10148 1.34801 2.13632
5.40847 0.841012 6.43009
3.61739 0.126966 6.19867
3.26056 0.621262 6.31318
2.86195 0.482203 6.43287
2.24379 0.320491 1.67153
1.98758 0.319463 2.12415
1.56607 0.592907 1.41432
3.06462 0.35117 6.46799
1.88077 0.657136 0.840203
8.05728 0.487063 1.77265
4.60236 0.446218 6.73993
2.21549 0.105973 2.7016
1.71237 0.149583 1.38134
8.76624 0.13589 2.63454
4.35544 0.213402 1.79648
2.01654 0.336232 2.1562
1.56907 0.545622 1.38361
2.98302 0.328219 6.50218
1.78105 0.069614 1.64138
8.05639 0.513456 1.77644
4.64842 0.55754 6.74663
2.24225 0.105844 2.72396
1.8072 0.224596 1.37651
6.39147 0.409509 1.35697
4.36609 0.203022 1.78516
POINT_DATA 400
SCALARS particleColor float 3
LOOKUP_TABLE default
0 0.552894 1
0 0.484674 1
0 0.780673 1
0 0.159099 1
0 0.761079 1
1 5.96046e-08 0
0 0.504615 1
0 0.232109 1
0 0.430847 1
0 0.598514 1
0 0.429153 1
0 0.746852 1
0 0.52273 1
0 0.141642 1
0 0.545793 1
0 0.547668 1
0 0.358085 1
0 0.550195 1
0 0.773593 1
0 0.602298 1
0 0.317853 1
0.1028 1 0.8972
0 0.361484 1
0 0.582733 1
0 0.683678 1
0 0.806956 1
0 0.738893 1
0 0.305501 1
0 0.970017 1
0 0.716109 1
0 0.321875 1
0 0.736588 1
1 5.96046e-08 0
0 0.614061 1
0 0.674361 1
0 0.659921 1
0 0.459411 1
0 0.529354 1
0 0.361334 1
0 0.972034 1
0 0.581158 1
0.114585 1 0.885415
0 0.775653 1
0 0.870773 1
0 0.742581 1
0 0.776467 1
0.121942 1 0.878058
0 0.460209 1
0 0.191886 1
0.238636 1 0.761364
0 0.468493 1
0 0.920195 1
0 0.864196 1
0 0.612752 1
0 0.777477 1
0 0.732514 1
0 0.516114 1
0 0.466006 1
0 0.230715 1
0.278663 1 0.721337
0 0.51329 1
0 0.896994 1
0 0.821361 1
0 0.662867 1
0 0.424159 1
0 0.48274 1
0.0592113 1 0.940789
0 0.376455 1
0 0.653205 1
0 0.743063 1
0 0.504262 1
0 0.848548 1
0 0.559369 1
0 0.38561 1
0 0.345972 1
0.217859 1 0.782141
0 0.981266 1
0 0.780025 1
0 0.658131 1
0 0.926105 1
0 0.691523 1
0 0.667556 1
0 0.938352 1
0 0.82949 1
0 0.671623 1
0 0.760842 1
0 0.776912 1
0 0.597402 1
0.8712 1 0.1288
0 0.474369 1
0 0.116744 1
0 0.609093 1
0 0.928286 1
0 0.87226 1
0 0.573916 1
0 0.737577 1
0 0.565958 1
0 0.557145 1
0.48986 1 0.51014
0 0.445009 1
0 0.863809 1
0 0.612288 1
0 0.45855 1
0 0.432622 1
1 0.944787 0
0 0.903871 1
0 0.744247 1
0 0.393084 1
0 0.349078 1
0 0.265284 1
0 0.56304 1
0 0.42516 1
0 0.762335 1
0 0.437984 1
0 0.648066 1
0.00667003 1 0.99333
0 0.694028 1
0 0.463169 1
0 0.333569 1
0 0.938205 1
0 0.220162 1
0 0.514695 1
0 0.655738 1
0 0.25823 1
0.0437396 1 0.95626
0 0.57638 1
0 0.811214 1
0 0.18978 1
0 0.944966 1
0 0.945648 1
0 0.173711 1
0 0.340334 1
0 0.56762 1
0 0.519636 1
0 0.710839 1
0 0.821305 1
0.536428 1 0.463572
0 0.437869 1
0 0.758742 1
0 0.900285 1
0 0.546616 1
0 0.178728 1
0 0.926469 1
0 0.741693 1
0 0.985389 1
0 0.850555 1
0 0.491244 1
0 0.370782 1
0 0.622696 1
0.136443 1 0.863557
0 0.587577 1
0 0.407564 1
0 0.551578 1
0 0.712874 1
0 0.629417 1
0 0.414791 1
0 0.457306 1
0 0.452382 1
0 0.307324 1
0 0.467395 1
0.00777154 1 0.992228
0.264426 1 0.735574
0 0.388886 1
0 0.847827 1
0 0.370786 1
0 0.241894 1
0 0.385802 1
0 0.600501 1
0.122518 1 0.877482
0 0.35355 1
0.2088 1 0.7912
0 0.318451 1
0 0.407959 1
0 0.558535 1
0 0.403521 1
0.220156 1 0.779844
0 0.513873 1
0 0.535865 1
0 0.122831 1
0 0.344528 1
0 0.679124 1
0 0.927258 1
0 0.562836 1
0 0.465259 1
0 0.645353 1
0 0.902409 1
0 0.559169 1
0 0.615281 1
0 0.425952 1
0 0.622078 1
0 0.678547 1
0 0.452405 1
0 0.505434 1
0 0.733356 1
0 0.757296 1
0 0.830739 1
0 0.566965 1
0 0.921252 1
0 0.33115 1
0 0.587532 1
0 0.390271 1
0 0.266724 1
0.285339 1 0.714661
0 0.671757 1
0.238509 1 0.761491
0 0.458968 1
0 0.634993 1
0 0.96166 1
0 0.600985 1
0 0.782375 1
0 0.663266 1
0 0.976205 1
0 0.715617 1
0 0.686281 1
0 0.844347 1
0 0.402176 1
0 0.561713 1
0 0.676368 1
0 0.376247 1
0 0.868938 1
0 0.863069 1
0 0.439761 1
0 0.555687 1
0 0.361658 1
0 0.730191 1
0 0.279672 1
0.230942 1 0.769058
0 0.721568 1
0 0.845861 1
0 0.893394 1
0 0.690071 1
0.163121 1 0.836879
0 0.754145 1
0 0.506775 1
0 0.377174 1
0 0.708909 1
0 0.586524 1
0.0564995 1 0.943501
0.106702 1 0.893298
0 0.796113 1
0 0.354417 1
0 0.817344 1
0 0.639358 1
0 0.796562 1
0 0.573487 1
0 0.425184 1
0 0.929439 1
0 0.652923 1
0 0.0897649 1
0 0.597657 1
0 0.308875 1
0.874195 1 0.125805
0 0.778821 1
0 0.653293 1
0.0553752 1 0.944625
0 0.838261 1
0 0.808816 1
0 0.418519 1
0 0.134132 1
0 0.564898 1
0 0.614164 1
0.163374 1 0.836626
0.269556 1 0.730444
0 0.587252 1
0 0.644274 1
0.0221129 1 0.977887
0 0.525154 1
0 0.597379 1
0 0.665549 1
0.0519007 1 0.948099
0 0.453674 1
0 0.857326 1
0 0.888768 1
0 0.863414 1
0.0465915 1 0.953408
0 0.213591 1
0 0.613761 1
1 0.373643 0
0 0.855995 1
0 0.630003 1
0 0.769194 1
0 0.634449 1
0 0.853071 1
0 0.469333 1
0 0.452815 1
0 0.559717 1
0 0.131604 1
0 0.582087 1
0 0.635788 1
0 0.904032 1
0 0.553815 1
0 0.927579 1
0 0.591826 1
0 0.56065 1
0 0.97035 1
0.202531 1 0.797469
0 0.515644 1
0 0.67073 1
0 0.742335 1
0 0.669907 1
0.197258 1 0.802742
0 0.778741 1
0 0.266948 1
0 0.497225 1
0 0.625785 1
0 0.62851 1
0 0.71949 1
0 0.965051 1
0 0.589148 1
0 0.731107 1
0.0693252 1 0.930675
0 0.52374 1
0 0.932535 1
0 0.789206 1
0 0.252665 1
0 0.542579 1
0 0.625993 1
0 0.576396 1
0 0.653086 1
0 0.316757 1
0 0.629732 1
0 0.613687 1
0.0559784 1 0.944022
0 0.15324 1
0.000588731 1 0.999411
0.202396 1 0.797604
0 0.828013 1
0 0.308307 1
0 0.957065 1
0 0.644674 1
0.0246692 1 0.975331
0 0.339979 1
0 0.79888 1
0 0.33742 1
0 0.72069 1
0 0.806834 1
0 0.894065 1
0 0.947114 1
0 0.357958 1
0 0.938008 1
0 0.546057 1
0 0.333516 1
0 0.793732 1
0 0.416526 1
0 0.920988 1
0 0.772322 1
0 0.296933 1
0.175022 1 0.824978
0 0.726488 1
0 0.978972 1
0 0.270942 1
0 0.624607 1
0 0.228534 1
0 0.490696 1
0 0.834905 1
0 0.526152 1
0 0.409811 1
0.542579 1 0.457421
0 0.80724 1
0.223746 1 0.776254
0 0.442109 1
0 0.359831 1
0 0.590151 1
0 0.559369 1
0 0.526866 1
0 0.788367 1
0 0.368449 1
0 0.64277 1
0 0.815367 1
0.114202 1 0.885798
0 0.418837 1
0 0.694022 1
0 0.270743 1
0 0.310887 1
0.0417902 1 0.95821
0.0787646 1 0.921235
0 0.35609 1
0 0.636048 1
0 0.702219 1
0.189373 1 0.810627
0 0.431155 1
0 0.598283 1
0 0.659356 1
0 0.354127 1
0 0.679587 1
0.0762979 1 0.923702
0 0.796223 1
0 0.850551 1
0 0.919121 1
0 0.725007 1
0 0.29097 1
0 0.493744 1
0 0.717409 1
0 0.44861 1
0 0.497021 1
0 0.495753 1
0 0.934232 1
0 0.682965 1
0 0.619835 1
0 0.732518 1
