# vtk DataFile Version 3.0
Particle simulation
ASCII
DATASET POLYDATA
POINTS 400 float
0.316151 0.661291 1.08177
0.228039 0.546056 1.26022
2.18059 0.675283 4.9704
0.37454 0.767922 0.804327
4.03058 0.813235 5.85854
1.15073 2.36497 4.85114
5.73903 0.312276 0
2.81846 1.56621 4.14866
4.87099 0.0453125 0.411863
6.00954 1.20589 1.51028
0.371472 0.62785 1.11412
0.836339 0.610927 0.892227
1.90525 0.827035 4.69939
0.430806 0.766998 0.802474
4.00123 0.744957 5.89402
1.19867 2.13971 4.99839
0.639284 0.310201 3.10191
1.12321 0.674455 3.48896
4.68932 0.713754 0.548269
6.01931 1.21212 1.55383
4.46989 0.958869 1.0516
5.49368 1.08339 1.64658
1.75056 0.597945 4.12675
6.17354 1.01015 1.39074
2.96185 0.573255 3.32849
1.28505 0.739716 4.32586
5.25847 0.500506 5.17255
0.868718 0.839096 3.37939
3.30762 0.830126 1.86373
0.550695 0.793449 0.269042
4.57364 0.818954 0.890709
5.76922 1.13839 1.67925
1.98527 1.50052 5.49531
6.18334 1.0324 1.40736
2.83295 0.56927 3.16268
1.32604 0.773178 4.28026
5.26468 0.593493 5.23375
0.798856 0.775733 3.27937
3.25783 0.825211 1.57324
0.7651 0.689748 0.59515
0.585438 0.442632 1.49161
4.35221 0.630158 2.12486
0.413079 0.165209 2.28812
5.87475 1.03632 1.31514
2.16654 0.475239 4.44318
3.73647 0.569623 2.15825
3.45406 0.576729 3.75262
0.979445 0.803251 2.93758
3.13924 0.937874 1.76048
2.79281 1.1953 5.61366
0.574046 0.451533 1.4782
4.36766 0.632156 2.11924
0.397586 0.333705 2.27289
5.86969 1.02853 1.34671
2.15709 0.500577 4.48324
3.74846 0.550521 2.14931
2.03716 0.494524 4.5083
0.943027 0.801319 2.87082
3.08705 0.929329 1.76021
2.89692 0.750576 4.58717
5.88443 1.20945 1.46429
0.522659 0.795905 0.654022
5.27945 1.67945 4.9509
5.44958 0.593691 0.864411
4.87502 1.07293 4.26445
4.60867 1.27153 4.86318
2.2956 0.917548 1.57245
1.27814 0.882721 4.41394
3.17792 0.966845 1.58089
1.48919 1.16824 3.07974
5.82799 1.148 1.51019
0.711988 0.940439 0.425359
4.87531 0.595042 5.02415
5.42148 0.579368 0.807816
4.7192 1.09811 4.42267
4.512 1.05827 4.84652
2.30762 0.933236 1.54012
2.65116 1.22786 4.89839
3.20858 0.936711 1.56487
1.52062 1.21005 3.10313
0.176565 0.460628 0.781654
3.18165 1.10772 1.85577
1.98885 0.578076 1.89984
3.80504 0.264623 1.51434
4.1504 0.617021 4.87563
2.67473 0.4381 4.68671
4.10934 0.394718 5.36056
1.12197 0.614071 2.96274
1.82482 0.503813 1.83135
5.20174 0.847701 0.16915
0.336428 0.449797 0.633641
3.2327 1.10411 1.84713
1.9331 0.701448 2.08129
3.80458 0.27466 1.52949
4.14295 0.613214 4.8884
2.68367 0.508123 4.67686
1.98384 0.466401 4.47554
1.12785 0.470615 2.86447
1.94402 0.586106 1.78315
5.1854 0.826365 0.163847
3.56055 0.155777 2.80552
4.62988 0.809621 0.252314
1.06916 0.440715 2.67994
5.23043 0.784888 1.11689
0.72942 0.646766 2.32479
1.33365 0.575635 3.15285
3.05906 0.793662 4.8664
2.62985 1.14698 1.51127
3.06939 0.959599 1.58913
5.02057 0.768759 0.185199
3.59407 0.248961 2.77414
4.67597 0.798006 0.21303
2.07401 0.623563 1.37119
5.2147 0.661717 0.696552
1.54762 1.17747 3.64659
1.34127 0.555165 3.14436
2.95706 0.746574 4.93413
2.06885 0.691502 1.71165
3.13908 0.970158 1.59514
2.44039 0.783606 1.66836
2.53534 0.669789 2.05485
3.67076 0.505459 1.74469
4.99446 0.406289 5.23343
2.96805 0.981748 2.28685
2.24851 0.993893 5.03463
1.58571 0.627431 1.39118
0.706007 0.323826 0.163027
5.74837 0.82672 0.818936
2.18556 1.19256 5.09664
1.53091 0.767917 1.57429
2.53607 0.670264 2.08161
3.79837 0.490532 1.8472
5.31245 0.960231 5.37388
2.91218 0.947202 2.24821
2.26652 0.963407 4.96989
3.20237 0.662963 2.26725
0.176396 0.270512 0.152707
5.78598 0.841997 0.800543
2.30625 1.02218 5.01586
1.2392 1.06865 1.23192
0.511578 0.499832 1.12915
1.99058 0.643362 0.769642
2.38671 0.718284 1.21402
2.06893 0.654367 1.66308
1.89845 0.25203 1.70265
0.999976 0.169784 2.87493
5.03098 0.606641 5.25617
1.94112 1.3608 3.71305
1.10246 0.755382 2.84429
0.98474 0.250956 2.40374
0.504156 0.503014 1.12464
2.01345 0.639228 0.76214
1.88381 0.700496 1.80417
1.91474 0.53381 1.63935
1.99097 0.406807 1.71358
1.00162 0.153324 2.90942
5.19467 0.593146 5.24954
1.64189 1.27663 3.13113
1.36628 1.03239 1.63422
1.15179 0.714612 2.23142
1.21287 1.11733 0.967399
3.15931 1.45672 1.90803
4.30062 0.414053 5.13149
1.67372 0.880249 1.84796
1.82104 0.385985 1.24885
3.31504 1.07345 1.3466
2.48701 0.437846 4.93838
3.00786 0.736207 5.11261
2.56886 0.696495 5.17539
1.5152 0.760863 1.88652
1.21179 1.12335 0.966033
2.53856 0.619751 2.30364
4.29179 0.424084 5.1697
1.9379 1.02711 1.9344
1.80463 0.404407 1.24717
3.38605 1.0462 1.28258
2.45593 0.499276 4.88377
2.63506 0.80207 5.08582
2.54611 0.700652 5.22645
1.46125 0.764967 1.90764
2.82617 0.918532 2.02462
0.815569 0.508751 0.94561
3.67782 1.11228 5.86715
1.42017 0.492519 0.5299
2.03042 0.884349 4.64783
0.909432 0.976402 3.37578
0.72341 0.927076 3.20731
3.71805 0.956323 1.88333
2.71122 1.0891 1.89682
3.51993 0.661771 2.10513
2.8363 0.907909 1.99583
0.611831 0.716496 1.14531
4.23039 0.315533 5.04198
1.36986 0.516559 0.582006
2.02578 0.689728 4.53683
0.856307 1.1393 3.33422
0.709415 0.91362 3.23413
4.45157 1.04296 1.42298
2.81903 1.07369 1.8159
3.56268 0.662504 2.11894
0.210919 0.860613 1.06374
0.417299 0.818731 0.50387
4.37255 0.838595 5.63065
0.274314 0.633241 0.813636
3.8599 0.667114 4.8853
2.9285 0.558301 5.18422
1.82221 0.749737 3.41066
1.20867 0.196616 3.17017
1.79514 0.581853 3.64818
5.14503 0.765172 0.189235
0.234901 0.773201 1.02841
1.47705 0.698313 0.925114
3.90736 0.463208 5.57428
0.348085 0.707626 0.745988
3.8481 0.677598 4.87851
2.9003 0.545544 5.19833
1.82154 0.750895 3.39073
1.46391 0.671099 3.32553
1.83032 0.585874 3.59261
5.32742 0.763255 0.0497813
5.681 0.968519 0.789815
4.24286 0.734467 6.18619
5.09438 0.75941 5.86847
2.00642 0.531698 1.63097
3.8635 0.707501 4.72061
1.22717 1.1826 3.72429
5.22093 0.766081 5.69086
1.66376 0.706612 2.97844
1.17016 0.9952 2.11591
1.78448 0.537616 2.60023
5.61665 0.986735 0.820996
4.30643 0.640868 6.12081
5.20158 0.81163 5.79235
2.04904 0.546417 1.63197
3.88492 0.700854 4.69975
1.24661 1.18271 3.696
5.18135 0.711029 5.72883
1.93455 1.16034 3.63457
1.69488 0.820548 2.14824
1.88846 0.523853 2.60158
0.234108 0.780193 0.726837
2.42996 0.937537 1.5661
1.40641 0.734749 3.35275
4.41909 0.781967 1.12749
2.0725 0.653838 4.9072
3.64041 0.496444 0.985222
1.7305 0.497548 3.33101
5.12989 1.21352 4.96381
3.73736 0.736389 1.92548
2.83536 0.735438 4.62335
0.222733 0.79951 0.686343
2.84272 0.580417 0.652459
2.74134 1.14741 5.19343
4.45186 0.789298 1.18568
2.21489 0.458246 4.95236
3.07956 0.941413 1.37137
5.47688 0.440932 0.340861
5.13312 1.33854 4.78146
3.73579 0.680866 1.96179
2.8545 0.715646 4.67666
2.35208 0.759075 1.23387
2.2453 0.775226 0.711667
3.4758 0.481396 2.13594
5.78264 1.18714 1.28406
4.10742 0.472526 5.19941
2.0932 1.21708 3.1057
4.93443 0.697811 0.438565
2.08852 0.548361 4.80546
3.79591 0.464741 4.90564
0.902641 0.262454 2.83801
2.26513 0.756024 1.31054
2.32381 0.704713 0.684988
4.7966 0.854801 0.862179
5.92389 0.848223 1.55962
3.70836 0.430935 4.95281
2.00244 1.1802 4.98406
4.93042 0.669024 0.694953
2.65696 0.264067 4.56819
3.80406 0.423709 4.92075
0.990235 0.285502 2.75661
5.39884 0.355788 0.698688
4.1355 0.771216 1.78999
0.922966 0.623557 2.89988
5.4403 0.942185 0.908294
2.28085 0.688283 4.88782
3.74474 1.06868 4.78203
0.876573 0.674009 2.99766
1.36347 0.860267 3.70081
1.22416 0.876142 1.61673
2.48079 1.04346 1.35806
5.31828 0.258862 0.742469
4.1313 0.765426 1.77276
1.08543 0.742475 3.10969
5.44775 0.968296 0.911711
2.11662 0.444733 4.49964
3.71825 0.959061 5.00818
0.901721 0.641603 3.00826
2.20823 0.538772 1.81423
1.45233 0.534772 1.65552
4.58939 0.661938 1.59948
5.86378 0.198094 0.373329
0.543869 0.692357 1.15516
0.505458 1.01212 3.47629
1.94241 0.146133 1.54345
1.64531 0.557845 3.82919
3.99743 0.820499 2.12176
1.81845 0.639313 3.38783
2.65665 0.902509 1.90767
2.45266 1.01055 1.5165
2.61864 0.820746 1.99378
5.77883 0.297299 0.350873
0.572914 0.657869 1.17878
2.512 0.724331 5.2894
2.46632 0.427264 2.14619
1.59387 0.649582 3.82706
5.4276 0.136612 0.788541
1.78031 0.632052 3.47527
1.08256 0.348169 0.382257
2.66595 1.08005 1.6864
2.49135 0.76777 2.07496
2.4401 0.595716 1.87556
2.76754 0.785917 1.76595
2.01238 0.219079 5.11424
2.31319 0.930211 2.2981
5.45745 0.299183 0.324604
2.84673 0.788851 2.24185
1.64709 0.454458 3.43195
3.90237 0.913278 1.50206
5.19585 0.782446 0.166466
2.93053 0.639277 1.99518
2.45633 0.697173 1.90131
2.24306 0.484319 1.35702
2.10378 0.245666 5.06039
2.35104 0.921345 2.21804
5.43577 0.367629 0.380443
1.43855 0.297251 0.414339
1.63109 0.38805 3.47844
3.91479 0.861851 1.44237
5.10869 0.747237 0.254689
2.24919 0.889277 1.80497
0.486659 0.774521 1.02214
0.326468 0.695173 1.14653
4.16896 0.512406 4.6844
0.66329 0.989008 0.453644
0.844841 0.0662969 2.96347
0.904505 0.803471 2.59484
3.04075 1.10028 1.93612
1.47232 0.612757 3.72569
1.00697 0.296163 2.63197
1.52432 1.09105 1.71628
0.591853 0.802317 0.936089
0.371825 0.588772 1.1487
4.35537 0.411942 4.77864
0.649283 0.987781 0.471125
0.851457 0.019377 2.94237
0.906153 0.741657 2.52493
3.04978 1.09973 1.93665
2.84852 0.5319 5.45514
1.02694 0.267881 2.61187
0.988924 0.866784 2.51992
2.44486 0.648701 1.94945
0.95808 0.679003 0.734906
4.14346 0.254695 4.58367
1.35276 0.757188 2.34305
2.31669 0.92645 1.41061
1.40444 0.731277 3.91181
2.36377 0.620762 4.79918
2.64346 0.861486 4.98613
2.49232 0.597009 5.15102
1.24078 0.726873 1.16937
2.44527 0.635659 1.97266
0.889769 0.657478 0.770225
4.1109 0.272663 4.57671
1.38115 0.745616 2.33554
1.8583 0.741408 0.54865
1.40255 0.71783 3.91893
2.3354 0.613011 4.84225
2.64323 0.875008 5.00716
2.77849 0.631904 5.07983
1.3237 0.587097 1.02374
2.73577 0.808803 1.99054
0.565025 0.346546 0.922354
2.39932 0.574635 4.37223
0.656489 0.751391 0.411063
5.2479 0.954507 1.10771
4.2854 0.414425 5.01665
2.10126 0.754819 1.99457
4.07992 0.610915 1.31514
4.71157 0.939333 0.451306
4.26351 0.868858 1.45274
2.71943 0.786491 1.97489
0.560681 0.307404 0.968824
2.39106 0.563513 4.38413
0.371923 0.75997 0.391369
5.22471 0.977068 1.08315
4.26729 0.479053 5.00656
2.08667 0.741178 1.9929
4.04511 0.662864 1.33251
4.77393 0.918128 0.707931
4.24684 0.869043 1.44522
POINT_DATA 400
SCALARS particleColor float 3
LOOKUP_TABLE default
0 0.349446 1
0 0.500493 1
0 0.684929 1
0 0.561896 1
0 0.526554 1
0.3252 1 0.6748
0 0.725276 1
0 0.506408 1
0 0.437209 1
0 0.74172 1
0 0.146164 1
0 0.326254 1
0 0.515412 1
0 0.564867 1
0 0.288337 1
0.146727 1 0.853273
0 0.689084 1
0 0.414396 1
0 0.429805 1
0 0.794545 1
0 0.34582 1
0 0.776498 1
0 0.482387 1
0 0.537416 1
0 0.580518 1
0 0.433801 1
0 0.329484 1
0 0.630331 1
0 0.491696 1
0 0.680828 1
0 0.471125 1
0 0.658774 1
0 0.610586 1
0 0.687527 1
0.0302891 1 0.969711
0 0.386734 1
0 0.195684 1
0 0.689175 1
0 0.781749 1
0 0.617745 1
0 0.608708 1
0 0.343035 1
0 0.709076 1
0 0.17086 1
0 0.318385 1
0 0.176934 1
0 0.372066 1
0 0.61547 1
0 0.391065 1
0 0.642065 1
0 0.558495 1
0 0.224073 1
0 0.647756 1
0 0.199161 1
0 0.326011 1
0 0.248144 1
0 0.512687 1
0 0.586103 1
0 0.457163 1
0 0.874215 1
0 0.852193 1
0.19401 1 0.80599
0 0.570339 1
0 0.938832 1
0 0.651202 1
0 0.995522 1
0 0.482845 1
0 0.319937 1
0 0.305604 1
0 0.524598 1
0.0491383 1 0.950862
0 0.746587 1
0 0.581761 1
0 0.973532 1
0 0.590234 1
0 0.44056 1
0 0.384925 1
0 0.471463 1
0 0.401738 1
0 0.538763 1
0 0.518987 1
0 0.362726 1
0 0.869485 1
0 0.444709 1
0 0.587182 1
0 0.773508 1
0 0.45697 1
0 0.483705 1
0.213373 1 0.786627
0 0.181909 1
0 0.489422 1
0 0.469364 1
0 0.836159 1
0 0.602126 1
0 0.460958 1
0 0.666534 1
0 0.439509 1
0 0.607784 1
0.0963028 1 0.903697
0 0.25067 1
0 0.491138 1
0 0.903829 1
0 0.461241 1
0 0.509873 1
0 0.929567 1
0 0.45013 1
0 0.632123 1
0 0.362348 1
0 0.610748 1
0 0.289571 1
0 0.343334 1
0 0.908342 1
0 0.241398 1
0 0.477173 1
0 0.526229 1
0 0.240907 1
0 0.644738 1
0 0.630325 1
0 0.665423 1
0 0.875726 1
0 0.459423 1
0 0.340923 1
0 0.73338 1
0.120869 1 0.879131
0 0.55773 1
0 0.418198 1
0 0.655789 1
0 0.507774 1
0 0.529084 1
0 0.360966 1
0 0.502313 1
0 0.479769 1
0 0.155074 1
0 0.918299 1
0 0.261377 1
0 0.899444 1
0 0.995809 1
0 0.539642 1
0 0.538026 1
0 0.512582 1
0 0.458144 1
0 0.309317 1
0 0.648166 1
0.0505966 1 0.949403
0 0.816988 1
0 0.466553 1
0 0.709209 1
0 0.656148 1
0 0.364821 1
0 0.706929 1
0 0.418619 1
0 0.452916 1
0 0.76894 1
0 0.745876 1
0 0.679588 1
0 0.560648 1
0 0.656629 1
0 0.691654 1
0 0.757821 1
0 0.569053 1
0 0.626547 1
0.129114 1 0.870886
0 0.858111 1
0 0.961203 1
0 0.505244 1
0.174375 1 0.825625
0 0.918916 1
0 0.419009 1
0 0.975031 1
0 0.566042 1
0 0.736249 1
0 0.461435 1
0 0.831769 1
0.0626797 1 0.93732
0 0.604571 1
0.181666 1 0.818334
0 0.672421 1
0 0.381632 1
0.086178 1 0.913822
0 0.599102 1
0 0.911825 1
0 0.16839 1
0 0.636806 1
0 0.544105 1
0 0.385481 1
0 0.483596 1
0 0.357641 1
0.16832 1 0.83168
0.115524 1 0.884476
0 0.522848 1
0 0.952081 1
0 0.224553 1
0 0.728194 1
0 0.361409 1
0 0.531761 1
0 0.366569 1
0 0.47431 1
0 0.68565 1
0.0861649 1 0.913835
0 0.653482 1
0 0.391844 1
0 0.66347 1
0 0.463899 1
0.168441 1 0.831559
0 0.42905 1
0 0.762087 1
0 0.597776 1
0 0.708577 1
0 0.872867 1
0 0.744427 1
0 0.204799 1
0 0.318618 1
0 0.315991 1
0.00389065 1 0.996109
0 0.482424 1
0 0.593207 1
0 0.587642 1
0.0622652 1 0.937735
0 0.966407 1
0 0.199986 1
0.0507518 1 0.949248
0 0.840073 1
0 0.659461 1
0 0.38445 1
0 0.596588 1
0 0.649168 1
0 0.964044 1
0 0.370139 1
0 0.255471 1
0 0.404255 1
0.0434534 1 0.956547
0 0.67108 1
0 0.467253 1
0 0.334412 1
0 0.572111 1
0 0.725787 1
0 0.55501 1
0 0.407882 1
0 0.431061 1
0 0.349968 1
0 0.436289 1
0.0225298 1 0.97747
0 0.96874 1
0 0.348521 1
0 0.575568 1
0 0.518183 1
0 0.380419 1
0.434358 1 0.565642
0 0.787864 1
0 0.499012 1
0 0.413896 1
0 0.771587 1
0 0.900607 1
0 0.392622 1
0 0.501729 1
0 0.957303 1
0 0.899027 1
0 0.871598 1
0 0.84161 1
0 0.552785 1
0.113264 1 0.886736
0 0.571751 1
0.139904 1 0.860096
0 0.843241 1
0 0.329577 1
0.420063 1 0.579937
0 0.752312 1
0 0.826629 1
0 0.766034 1
0 0.584057 1
0.141502 1 0.858498
0 0.292375 1
0.141697 1 0.858303
0 0.726515 1
0 0.684689 1
0 0.904605 1
0 0.584109 1
0 0.672507 1
0 0.762084 1
0 0.746665 1
0.159202 1 0.840798
0 0.560856 1
0.141576 1 0.858424
0 0.933707 1
0 0.781519 1
0 0.548262 1
0 0.821243 1
0 0.509612 1
0 0.646418 1
0 0.652184 1
0.240388 1 0.759612
0 0.409271 1
0 0.566996 1
0 0.885538 1
0 0.568995 1
0 0.95129 1
0 0.765662 1
0 0.918137 1
0 0.650379 1
0 0.315665 1
0 0.786528 1
0.00544814 1 0.994552
0 0.613356 1
0 0.68109 1
0 0.618123 1
0 0.467574 1
0 0.412725 1
0 0.771501 1
0 0.633022 1
0 0.659318 1
0 0.285654 1
0 0.852 1
0.269029 1 0.730971
0 0.46892 1
0 0.719086 1
0 0.580161 1
0 0.256624 1
0 0.370686 1
0 0.655878 1
0 0.606427 1
0 0.379027 1
0 0.774552 1
0 0.474164 1
0 0.382809 1
0 0.50475 1
0.334198 1 0.665802
0 0.659079 1
0 0.0588663 1
0 0.622168 1
0 0.924029 1
0 0.332517 1
0 0.480967 1
0 0.373327 1
0 0.282046 1
0 0.205274 1
0 0.460104 1
0 0.682178 1
0 0.291266 1
0.00026795 1 0.999732
0 0.814419 1
0 0.928793 1
0 0.616897 1
0 0.792756 1
0 0.316847 1
0 0.77593 1
0 0.278025 1
0 0.63603 1
0 0.613778 1
0 0.433408 1
0 0.97671 1
0 0.758601 1
0 0.604194 1
0 0.725834 1
0 0.270582 1
0 0.534024 1
0 0.282989 1
0 0.487175 1
0.251435 1 0.748565
0 0.66301 1
0 0.659114 1
0.0886378 1 0.911362
0 0.602846 1
0.0637324 1 0.936268
0 0.781562 1
0 0.819581 1
0 0.88778 1
0 0.705577 1
0 0.340732 1
0 0.72441 1
0 0.645676 1
0.0379026 1 0.962097
0 0.800601 1
0 0.752249 1
0 0.580522 1
0 0.892175 1
0 0.832008 1
0 0.747817 1
0 0.470332 1
0 0.774338 1
0 0.605386 1
0 0.815777 1
0 0.362802 1
0.0698091 1 0.930191
0 0.4699 1
0.0772935 1 0.922706
0.118084 1 0.881916
0.0156987 1 0.984301
0 0.56296 1
0 0.775357 1
0 0.379207 1
0 0.669241 1
0 0.41581 1
0 0.991848 1
0 0.122598 1
0.125314 1 0.874686
0 0.898261 1
0 0.903258 1
0 0.444454 1
0 0.485965 1
0 0.474426 1
