# vtk DataFile Version 3.0
Particle simulation
ASCII
DATASET POLYDATA
POINTS 400 float
1.98945 0.561901 9.6564
0.788327 1.35446 9.66646
3.70351 1.77315 5.86223
4.5313 2.39999 8.27729
5.32833 0.557471 5.99379
2.71309 7.58645 8.17731
4.82261 4.36206 3.09391
7.31245 3.23646 4.51111
7.94458 1.2357 0.911498
2.1424 1.36181 9.01569
2.46967 1.00536 1.79177
3.28973 5.60103 5.83802
9.90786 2.21048 4.65005
1.71738 1.47682 3.2616
1.68497 3.02164 0
5.84026 2.96911 8.54397
2.1399 5.57267 0.597562
3.35783 0.396393 1.61479
6.88391 5.30968 9.40492
8.45859 0.13171 4.84819
3.30965 0.361884 1.43276
7.94836 2.388 7.73774
0.261295 8.54593 0.3242
1.31372 4.52384 1.27514
9.5089 1.9395 3.58573
1.387 4.41622 9.59591
7.29004 0.799552 4.07288
0 0.135377 8.29049
8.16568 4.53955 1.52962
7.29936 3.80481 7.37768
2.55164 3.50073 4.53983
0.121858 6.29618 3.3225
0.793172 9.8957 7.33642
7.18595 0.374593 2.01404
7.11419 3.43227 6.91899
7.5403 10 0.860434
6.96619 0.0343884 9.13544
3.81517 0.328161 0.917938
6.71872 2.36703 0.124594
1.29444 0.807765 8.55822
9.80853 1.20912 4.79678
7.50696 3.28121 8.11399
4.76306 4.40144 4.74768
0 2.99672 6.15721
8.96385 0.206327 4.13723
5.6215 0.692685 0.968434
4.10419 3.84608 6.97829
7.81439 3.73081 6.37739
5.12965 0.520322 1.13076
6.91642 3.41469 4.54082
4.18218 3.9265 4.30583
8.9943 4.26038 0.283309
8.16203 0.239903 6.62245
4.586 0.780593 7.11923
5.96056 1.96832 8.708
5.44124 0.542883 0.844552
8.67722 2.37521 5.90662
1.11759 1.30657 7.57359
6.30283 1.62535 0.515983
3.47824 5.39651 2.77157
4.21371 3.35529 4.42039
0 5.75086 6.62791
9.91059 1.28871 9.93862
1.17864 0.729284 9.64297
2.57729 7.68002 2.95114
1.06356 1.29982 9.72954
2.07075 1.02647 8.21797
4.67312 4.52705 0.0772918
6.17446 1.52715 0.457393
5.48615 0.35019 8.51655
9.61309 0.553859 4.74764
2.93086 0.164735 2.4575
6.1433 4.79104 6.62401
1.66315 0.781798 9.70555
0.299057 1.00959 7.97031
2.28807 1.49434 2.14006
3.49752 0.28519 7.97993
6.18627 0.241584 8.16609
3.06096 4.19106 0.554428
10 0.189094 8.892
3.2813 0.0720528 1.20882
4.43937 0.859929 3.36278
1.05466 1.44568 4.37557
2.75398 0.387884 1.5882
0.319996 0.0159362 8.98917
3.00646 0.453711 8.88657
4.92753 3.85259 3.62275
3.46835 0.607865 6.98279
0.943285 9.8722 1.1342
6.98081 0.135894 1.04834
3.53568 0.362677 0.793496
2.20474 0.515169 1.04066
1.45098 0.8226 8.58325
3.04386 0.239047 4.18596
1.98311 0.549172 9.4364
4.33584 2.46109 6.18938
7.45829 4.97052 3.748
5.19325 7.22367 4.93386
4.01005 0.0158606 5.15044
7.01343 0.280221 0.866434
3.2945 0.283339 1.21604
5.53506 1.62165 2.10124
3.4419 0.38231 4.5564
5.72825 2.90009 5.79742
2.06506 4.98235 8.35093
1.06481 0.418798 0.910595
9.14587 0.948988 9.46556
5.61774 0.941875 1.35539
5.78739 0.844563 1.44711
10 5.42239 5.05086
7.08027 9.2898 2.39084
2.30327 0.345439 8.3229
7.39353 4.54953 0.487647
4.80857 0.7327 0.474832
3.77377 0.583626 1.07201
0 0.529379 1.02067
5.48476 0.413221 8.34514
8.01418 1.11792 2.78981
8.96529 0.780035 3.54124
0 7.25068 7.11712
3.51867 0.112376 0.812831
5.83803 4.24906 4.32149
7.3392 3.23945 4.50473
2.74556 5.12314 9.72866
5.86633 1.70129 8.54404
2.64139 0.214202 1.29414
9.87609 3.16302 7.25025
1.30802 0.813308 9.83969
0.224286 0.0643157 9.24464
1.97111 4.5398 7.93031
4.19174 0.237166 2.31241
2.23473 2.29058 8.77307
8.4939 4.09084 7.1553
5.15678 0.864887 9.54702
1.89239 8.32679 9.81711
0.458587 0.144435 0.498992
6.80865 9.07737 9.74132
1.29674 0.824722 9.82702
4.21682 3.04395 7.47507
5.40994 0.132966 8.2249
3.89131 0.315248 1.31317
3.0731 4.80931 9.5687
2.24924 2.5445 9.45349
6.03237 1.54363 8.85844
3.45457 0.0529473 1.04271
4.08226 0.86338 3.27366
8.87357 0.324139 4.59275
0.235533 0 0.890967
3.12765 0.0479649 2.51919
5.16854 2.36875 4.26717
4.01877 0.263545 1.28482
7.89121 1.85982 6.56313
0.833126 1.41708 9.73206
4.47523 2.87281 7.8781
5.6488 7.79072 4.11017
5.69295 0.960853 0.86785
9.58492 0.398659 5.48805
4.09697 0.459859 0.759099
9.74226 1.68574 2.90181
2.87809 2.27488 0.44278
5.96619 0.288477 2.22442
3.25147 1.97858 6.01695
5.49602 0.148127 9.55471
2.63005 0.12219 0.0466819
6.17764 1.50422 2.94128
9.52983 1.76013 8.99927
5.44303 0.63602 9.0138
5.42382 0.660031 8.74978
8.32478 5.62625 7.37329
5.63115 1.49864 1.83
3.68008 0.533564 1.08554
3.74554 0.297704 2.2528
5.72777 2.89755 2.77889
0.257392 0.456132 0.821261
3.48899 0.718718 4.01977
8.55862 3.58036 0
3.01056 0.0281005 8.47333
3.63818 0.263581 8.07806
3.998 0.348573 7.46777
0.190375 2.9872 1.47507
3.65959 0.454484 1.56763
3.76553 6.7828 9.79698
3.6008 2.76607 1.75874
3.49317 0.100542 0.935191
5.57909 0.342122 8.23707
4.4172 0.421622 0.477893
3.19517 0.430313 1.06474
4.09925 2.72953 1.84897
8.788 0.125351 4.55586
3.54514 0.527138 1.21019
3.59453 0.437973 1.09711
3.37875 0.593319 1.41825
6.03852 0.132647 3.97783
0.275322 0.437886 0.337909
8.71589 3.80375 1.30033
2.80154 0.698752 1.48962
3.84595 0.642351 4.26002
0.466568 0.465197 7.23788
3.27772 0.534358 1.31622
3.5641 0.811644 1.62843
3.4865 0.365419 0.856162
5.4444 0.516661 0.835894
9.03434 0.273292 4.16861
3.07284 0.548715 8.60441
9.37065 7.71283 10
5.71014 0.656424 8.40486
3.72666 0.829193 1.55737
1.93255 3.37082 9.34152
0.55338 0.128312 5.50107
7.00422 0.394383 0.819209
2.87098 0.482937 1.73887
4.85077 0.822114 0.374815
9.69655 3.03181 6.0859
5.54786 2.07416 8.18285
1.68318 1.49112 8.33632
5.77328 0.255406 7.93462
3.35137 0.763285 1.50778
2.78023 0.439619 1.50764
2.76128 3.38694 9.59206
7.29077 0.086675 0.934973
3.21849 3.60938 2.88491
9.27051 1.87127 8.62478
5.35355 0.398254 8.69137
3.11513 0.524092 1.5273
5.31281 0.315358 9.14486
3.44485 0.579961 1.2677
10 8.50263 0.2117
3.20595 0.581585 1.46137
3.41382 0.202963 1.01235
7.87557 0.226723 6.70685
2.89911 1.73516 5.81775
5.52389 0.536289 8.49471
9.19203 0.535678 4.69755
3.17407 0.541749 1.80452
5.84885 0.569552 8.27914
1.159 1.77081 4.2578
2.09488 1.36759 8.34246
4.2257 0.350148 4.71653
3.07454 0.465959 1.23204
2.93743 1.74187 6.13375
3.18526 0 1.52737
3.12586 0.393501 1.12258
2.81453 0.0784796 1.77704
3.74519 0.668088 1.65085
5.86896 0.425397 8.02168
1.18496 0.327811 0.805707
1.32057 1.7879 3.51834
6.72329 1.7035 8.94814
4.29301 0.316621 0.799326
4.71932 0.349015 8.59222
3.39853 0.306073 1.54693
7.76707 5.39933 6.23994
5.54914 0.569194 8.37398
3.92693 0.373112 5.0878
9.17494 0.416393 4.59195
3.44056 0.275908 1.5368
7.28758 0.634297 0.357449
5.16497 0.338379 8.97678
5.52132 0.00524 2.14647
5.63037 0.517506 8.57053
3.70768 0.420804 1.44871
8.75499 0.96576 2.79125
3.04455 0.235801 8.57319
6.95409 5.11507 7.19755
5.29802 0.384392 8.47951
6.39269 0.777991 3.27728
2.92539 0.477399 1.83346
6.02952 0.278366 8.1775
8.85235 0.345087 4.47985
3.41435 0.729899 2.32154
3.71127 0.819293 1.02516
3.65922 0.328736 0.411644
5.69134 0.220709 2.36874
3.90777 0.751557 4.53244
4.67471 0.387347 7.97457
5.2041 0.641885 8.68368
2.6036 2.77581 9.59692
3.32901 10 2.43067
0.584904 0.195363 5.65417
3.52377 0.35796 1.11643
7.15915 0.332064 0.513993
5.81137 0.522439 1.12769
0 0.454265 0.163624
2.43056 0.514245 8.28951
9.29958 4.97322 7.4897
9.37595 0.484464 4.43563
2.99976 0.144023 1.39496
4.31685 0.604541 3.37317
5.00407 0.0197717 8.68657
1.84206 4.98066 8.52665
9.31927 0.188162 0.923914
5.45692 0.455997 0.434527
3.76035 0.024764 0.877017
1.22947 0.736506 9.89575
5.60414 0.447867 7.90339
5.71476 0.445633 7.91663
3.05905 0.178369 1.26009
3.16745 0.122964 1.10542
4.46371 0.683029 3.46751
3.10276 0.273017 1.33684
7.35605 1.06284 0.405246
6.1164 1.61127 8.49247
3.0751 2.63853 9.65615
3.33639 0.728001 5.36001
3.7513 0.254131 1.58323
0.247073 0.248788 8.50695
2.73701 0.120685 0.969768
3.78233 0.208508 1.09217
2.15955 1.58942 8.54222
3.98093 0.238556 4.84318
5.57609 0.833492 8.66512
7.94861 1.97443 6.68871
9.02436 0.391814 4.56441
3.47148 0.14672 0.830093
4.23125 0.928779 3.45126
1.08883 0.736378 9.39888
3.59908 0.237656 0.466123
5.59391 0.0562217 2.22489
5.19463 0.163762 0.964533
2.80028 0.159002 2.43106
5.33901 0.299319 8.3754
0.895558 1.59475 4.54921
5.58453 0.0703183 7.935
2.66462 0.366677 1.07282
7.25819 0.35633 0.586089
6.95274 0.284388 0.811978
3.17749 0.174083 0.967154
5.72574 0.563564 1.03436
5.56324 0.621683 0.980278
3.7923 0.337824 1.4347
9.46117 1.38276 8.69683
3.28623 0.579968 1.5861
5.60025 0.372708 8.09449
3.10177 0.301985 1.93482
6.00891 0.863785 1.35836
9.28439 5.1188 7.91249
5.98524 0.456065 2.04168
3.33141 0.462076 1.37722
7.51423 0.31518 0.275666
3.53864 0.66767 3.9224
5.59323 0.752541 8.5199
3.52144 0.559753 4.68469
5.67032 0.606547 8.49318
5.59127 0.419011 8.49816
3.08301 0.437748 1.19835
3.20944 0.287458 1.4185
5.62553 0.565528 1.1711
3.41079 0.59083 1.43964
3.3244 0.494261 1.73398
3.10788 0.639308 4.2381
3.93024 0.263762 1.3456
3.72367 0.1586 1.00151
5.13631 0.106627 9.37282
5.07064 0.384011 8.77172
2.89319 0.398436 0.982807
2.93874 0.577728 1.32477
5.74447 0.718567 1.31647
5.79658 0.529753 8.2541
2.74939 0.449578 1.2337
3.36371 0.336242 1.43132
5.49807 0.69596 1.18218
5.22253 0.391313 8.33208
5.25256 0.18018 8.06531
3.21212 0.487589 1.4176
3.11404 0.595997 1.47835
9.29576 0.486754 4.41258
5.87556 0.410492 8.323
5.88429 0.0446029 9.55669
5.58842 0.432522 8.17156
2.97935 0.41794 1.17278
5.44231 0.717552 1.17392
7.93512 1.92617 6.57123
5.51241 0.375892 7.9362
3.80738 0.135231 1.36662
3.24083 0.322029 0.979132
8.96167 0.407106 4.69297
5.23497 0.207588 8.21634
4.8268 0.355575 8.47835
5.56976 0.330985 8.37812
3.50492 0.548218 1.36597
3.75933 0.523664 0.810252
3.05969 0.432628 1.35471
5.37413 0.211499 8.2988
3.31753 0.373574 1.73847
1.42056 0.662522 9.99159
5.55504 0.201589 8.01373
3.76472 0.553389 1.03484
3.66583 0.120283 1.53569
9.15958 2.0802 3.15325
5.51198 0.587392 1.28249
3.66569 0.488724 0.797543
3.30736 0.561453 1.18205
5.17831 0.564526 8.07607
3.16848 0.388074 1.25938
1.11631 0.819681 9.94642
5.42322 0.342384 8.1709
3.73123 0.550833 1.02567
3.4278 0.557172 4.18461
6.86637 0.61141 0.746413
5.49999 0.569057 1.29802
POINT_DATA 400
SCALARS particleColor float 3
LOOKUP_TABLE default
0 0.737371 1
1 0.201236 0
0.194472 1 0.805528
1 0.584525 0
1 5.96046e-08 0
1 5.96046e-08 0
0 0.924598 1
0 0.834814 1
0 0.845171 1
0 0.555079 1
0.57616 1 0.42384
1 5.96046e-08 0
0 0.828832 1
0 0.567999 1
1 5.96046e-08 0
0.215057 1 0.784943
0 0.443755 1
0 0.406777 1
0 0.863208 1
0 0.718431 1
0 0.61494 1
0.324908 1 0.675092
1 5.96046e-08 0
0.952793 1 0.0472071
0.0172868 1 0.982713
0 0.854371 1
1 0.187108 0
0.575909 1 0.424091
1 0.980844 0
0.52182 1 0.47818
0 0.687025 1
0 0.879305 1
0.0390848 1 0.960915
0.287106 1 0.712894
0.240748 1 0.759252
1 5.96046e-08 0
0.292974 1 0.707026
0 0.323742 1
0 0.852113 1
0 0.871428 1
0.0406596 1 0.95934
0 0.384713 1
1 0.868345 0
1 5.96046e-08 0
0 0.663093 1
0 0.636093 1
0.567734 1 0.432266
0.0279336 1 0.972066
0 0.387807 1
0 0.887745 1
0.452777 1 0.547223
1 0.187146 0
0.291107 1 0.708893
0.24166 1 0.75834
0 0.631186 1
0 0.728583 1
0.0196302 1 0.98037
0 0.47545 1
0 0.769645 1
0.735611 1 0.264389
1 0.410875 0
1 0.243692 0
1 5.96046e-08 0
0 0.31205 1
0 0.904203 1
0 0.935297 1
0 0.488335 1
0 0.94726 1
0 0.567807 1
0 0.802262 1
0 0.753568 1
0 0.577058 1
0.155667 1 0.844333
0 0.722919 1
0 0.791127 1
1 5.96046e-08 0
0.0131633 1 0.986837
0 0.611428 1
0.333614 1 0.666386
0.0149033 1 0.985097
0 0.611083 1
0 0.471994 1
0 0.983304 1
0 0.243837 1
0.293705 1 0.706295
0 0.347596 1
0.745426 1 0.254574
0.462076 1 0.537924
0.00168546 1 0.998315
0 0.414878 1
0 0.358711 1
0 0.257555 1
0 0.445441 1
0 0.563708 1
0 0.488326 1
0.3086 1 0.6914
0.762893 1 0.237107
0 0.947324 1
1 5.96046e-08 0
0 0.445377 1
0 0.616482 1
0.294077 1 0.705923
0 0.445279 1
0.631618 1 0.368382
1 0.675069 0
0 0.577007 1
0 0.797641 1
0 0.514998 1
0.200601 1 0.799399
1 5.96046e-08 0
0.501962 1 0.498038
0 0.283792 1
0 0.605983 1
0 0.523988 1
0 0.697171 1
1 0.869823 0
0 0.922141 1
0 0.640705 1
0.478256 1 0.521744
1 5.96046e-08 0
0 0.280463 1
1 0.960279 0
0.641717 1 0.358283
0.257208 1 0.742792
0.0918695 1 0.90813
0 0.600231 1
0 0.761438 1
0 0.253974 1
0 0.798841 1
1 0.369933 0
0 0.240554 1
0.737286 1 0.262714
0.817836 1 0.182164
0 0.947544 1
1 0.47275 0
0.315373 1 0.684627
1 0.532555 0
0 0.696161 1
1 0.561625 0
0 0.673208 1
0 0.4481 1
0.421387 1 0.578613
0.277271 1 0.722729
0 0.388717 1
0 0.883718 1
0 0.777933 1
0 0.838918 1
0 0.805556 1
0 0.422005 1
1 0.147149 0
0 0.566029 1
0 0.951553 1
0 0.690805 1
1 0.826604 0
1 0.239243 0
0 0.344238 1
0 0.832316 1
0 0.484962 1
0.901067 1 0.0989332
0 0.679195 1
0.32805 1 0.67195
0 0.795953 1
0 0.584692 1
0 0.288446 1
0.984082 1 0.0159177
0 0.545763 1
0 0.976021 1
0 0.300247 1
1 5.96046e-08 0
0.969795 1 0.0302055
0 0.638499 1
0 0.910506 1
0 0.473256 1
0 0.960843 1
0 0.195279 1
0 0.276102 1
0 0.847181 1
0 0.502255 1
0.372889 1 0.627111
1 0.801493 0
0 0.339099 1
1 0.480738 0
0.404505 1 0.595495
0 0.850685 1
0 0.920834 1
0 0.781806 1
0 0.483577 1
1 5.96046e-08 0
0 0.520565 1
0 0.515038 1
0 0.573359 1
0 0.494039 1
1 0.237545 0
0.207341 1 0.792659
1 5.96046e-08 0
0 0.244355 1
0 0.498576 1
1 5.96046e-08 0
0 0.511104 1
0 0.736737 1
0 0.709641 1
0 0.561378 1
0.281539 1 0.718461
0 0.61908 1
1 5.96046e-08 0
0 0.428124 1
0 0.624705 1
0 0.414133 1
0.504829 1 0.495171
0 0.303759 1
0 0.335494 1
0 0.662944 1
0.0416172 1 0.958383
0 0.489879 1
0.443475 1 0.556525
0 0.188933 1
0 0.444001 1
0 0.842546 1
0 0.737437 1
0 0.367839 1
1 0.994791 0
0 0.948031 1
0 0.964155 1
0 0.818789 1
0 0.563607 1
0 0.888261 1
0.296633 1 0.703367
0 0.679017 1
0 0.742639 1
0 0.609501 1
0 0.314142 1
0.0778786 1 0.922121
0 0.588663 1
0 0.42245 1
0 0.73373 1
0 0.890983 1
0 0.780155 1
0 0.571754 1
0 0.789641 1
1 0.915436 0
0 0.367773 1
0 0.810639 1
0 0.721819 1
0 0.778964 1
0 0.603657 1
0 0.801797 1
0.252023 1 0.747977
0.38715 1 0.61285
0.198123 1 0.801877
0 0.563677 1
0 0.649923 1
0 0.85917 1
0 0.524348 1
0 0.635901 1
0.0599504 1 0.94005
0 0.628329 1
0.703039 1 0.296961
0 0.757205 1
0 0.242539 1
0 0.483397 1
0 0.659527 1
0 0.800955 1
0 0.689805 1
1 5.96046e-08 0
0 0.712542 1
1 5.96046e-08 0
0.243661 1 0.756339
0 0.503585 1
0 0.724253 1
0 0.390622 1
0 0.692412 1
0.557255 1 0.442745
1 0.970714 0
0 0.738616 1
0 0.436999 1
0 0.545992 1
0 0.641114 1
1 5.96046e-08 0
0 0.392058 1
0 0.444913 1
0 0.593407 1
0 0.27608 1
0.946103 1 0.0538967
0 0.446303 1
0 0.699321 1
0.0112747 1 0.988725
0 0.273611 1
0 0.320783 1
0 0.815496 1
0.592218 1 0.407782
0 0.203504 1
0 0.865629 1
0 0.7166 1
0 0.516169 1
0 0.644217 1
0 0.0309604 1
0 0.767358 1
0 0.791619 1
0.432515 1 0.567485
0 0.792773 1
0 0.494259 1
0 0.469577 1
0.102076 1 0.897924
0.632355 1 0.367645
0 0.449628 1
1 0.986309 0
0.146599 1 0.853401
0 0.354514 1
0 0.779928 1
0 0.631946 1
0 0.692096 1
0 0.857628 1
0 0.527644 1
0 0.689436 1
0 0.623909 1
0.188684 1 0.811316
0.139334 1 0.860666
0 0.792931 1
0 0.582114 1
0 0.185596 1
0 0.614534 1
0 0.743575 1
0 0.737921 1
0 0.425616 1
0 0.172566 1
0 0.18994 1
0 0.464074 1
0 0.851139 1
0.246909 1 0.753091
0 0.927679 1
0.0313856 1 0.968614
0 0.812208 1
0 0.947566 1
0 0.472992 1
0 0.582499 1
0 0.644659 1
0 0.634901 1
0 0.578436 1
1 0.93797 0
0 0.361338 1
0 0.90903 1
0 0.213628 1
0.0307725 1 0.969227
0.13303 1 0.86697
0 0.262061 1
0 0.6653 1
0 0.721543 1
0 0.638633 1
0 0.718066 1
0 0.480009 1
0 0.920694 1
0 0.484005 1
0 0.884378 1
0 0.381179 1
0 0.705647 1
0 0.418168 1
0 0.677854 1
0 0.842141 1
0 0.292875 1
0 0.644726 1
0 0.472749 1
0 0.257205 1
0 0.532417 1
0 0.142598 1
0.302829 1 0.697171
0 0.638128 1
0 0.709417 1
0 0.695988 1
0 0.828041 1
0.426853 1 0.573147
0 0.532501 1
0 0.170689 1
0 0.37862 1
0 0.9669 1
0 0.592328 1
0 0.381388 1
0 0.611677 1
0 0.790817 1
0 0.615806 1
0 0.686683 1
0 0.334219 1
0 0.233598 1
0.263578 1 0.736422
0 0.686255 1
0 0.265272 1
0 0.388232 1
0 0.753707 1
0 0.542274 1
1 0.0842392 0
0 0.651398 1
0 0.296045 1
0 0.274118 1
0 0.693479 1
0 0.700011 1
0 0.755573 1
0 0.358894 1
0 0.627739 1
0 0.694191 1
0 0.459967 1
0 0.818835 1
