# vtk DataFile Version 3.0
Particle simulation
ASCII
DATASET POLYDATA
POINTS 400 float
2.00614 2.50698 5.00975
8.40279 8.08422 1.13282
9.48683 7.87035 6.01664
2.79762 9.69396 2.02836
6.23478 9.83602 3.72903
8.10461 7.95664 0.198974
6.93013 0.763271 9.34877
5.01645 4.56338 2.69433
3.34134 4.51519 7.6046
2.99298 2.66674 4.68098
8.85263 0.277062 7.10112
4.77165 4.77788 6.76516
4.39582 7.3931 7.13795
4.84326 6.02886 9.15747
2.17605 4.06691 5.33544
5.2967 0.189606 0.304346
5.62886 9.25355 9.3893
3.75311 0.331053 1.53551
1.47222 2.66133 7.69302
0.581026 4.42724 2.45256
3.4494 0.401753 1.0214
3.91878 1.11882 7.32223
8.44845 5.25489 6.29937
7.64105 3.70656 4.67392
8.55309 7.15898 1.70901
8.40966 9.04229 0.0586479
9.74582 7.98428 6.48443
0.956531 4.80189 9.99639
9.99531 2.40908 7.92112
4.40146 8.69928 8.57903
1.13465 4.59014 8.04623
7.99937 6.99181 2.56943
1.50788 8.33798 10
1.25185 2.62555 7.86227
3.55821 4.13448 1.28154
1.39518 6.17677 3.92353
9.30097 9.41784 0.25667
3.43607 0.320326 0.760176
5.05944 4.26665 1.46064
0.193475 7.02311 8.82057
1.01687 4.14644 1.36184
3.46638 9.74099 8.0728
6.50638 8.90181 0.729314
9.01309 3.14826 0.227553
9.37708 0.953556 1.49411
3.79617 3.94052 7.60258
4.79194 5.7941 9.14382
9.76271 1.513 2.36003
6.05352 1.10187 1.60954
5.87308 2.39463 3.24511
4.31778 1.04628 8.72915
5.94643 6.85268 0.123904
8.74 4.0304 7.75781
4.72639 6.56113 2.23071
0.388977 4.56118 0.290426
5.52161 0.00991044 2.0844
3.57927 4.87892 3.82147
8.51004 1.98216 1.45103
7.23633 4.29937 4.30869
5.57564 9.15652 3.78452
0.794746 2.34013 8.34488
1.32021 9.79326 2.50027
2.05099 6.41674 0.821851
8.61736 6.97417 0.199693
8.36054 5.02221 6.49834
7.41705 3.12658 3.54777
8.70787 1.01115 4.54528
5.84635 5.80799 4.43276
2.51063 1.82168 5.97365
8.44592 8.35169 0.825764
0.506514 0.967658 1.65072
5.9351 1.53078 0.49331
9.71768 5.08734 9.46128
3.82935 0.344197 2.63155
7.91058 7.45528 9.63155
2.127 3.10898 6.99819
2.92413 4.33961 3.63609
1.13354 6.37614 4.88195
1.85814 6.96284 3.37599
5.77074 8.13348 3.42565
3.27027 0.11807 1.38076
7.78581 7.67542 8.21231
7.00116 1.48185 9.94374
8.785 2.27963 8.72634
9.90189 3.4752 7.35538
0.107752 9.13366 8.71044
0.471287 3.28161 10
3.90106 1.90326 9.74113
7.4873 3.39155 7.79175
0.385815 6.61148 5.09029
3.65882 0.420111 1.1203
6.20873 7.40732 2.54042
8.60233 3.5737 6.975
4.20591 0.528284 9.13114
9.49762 5.1608 2.9359
8.95781 7.79951 8.80974
1.99508 1.41923 2.42148
6.368 9.08745 2.27518
5.05931 4.60156 8.60787
4.21327 6.99593 4.23907
3.12811 0.888529 0.456833
7.30126 2.62755 9.81804
5.14248 4.32974 1.93378
0.616175 4.8572 0.709452
7.88782 7.56585 9.91568
0.564999 4.04668 9.96172
1.15201 6.27388 0.161687
8.50965 1.78362 3.08771
9.95281 3.45978 6.89477
7.83577 0.338354 8.54875
4.5005 6.40405 6.78365
5.07059 4.55469 9.85185
4.08845 2.076 9.86721
2.85433 2.19879 2.75693
2.22772 0.706783 1.54548
8.82149 2.25901 5.97754
3.31371 0.52772 9.17791
9.05351 3.57607 6.11751
8.73072 1.70556 9.66159
6.87112 5.85182 5.293
2.23762 2.20279 0.215915
0 7.8722 4.49593
5.24573 9.64014 9.84196
6.57546 2.96914 9.54997
7.95016 3.10847 0.530235
3.18904 0.0909232 1.46528
0.558259 6.71312 2.34027
1.63887 2.17141 8.40292
9.18511 2.75348 5.66869
1.53061 4.74983 5.64364
4.03869 7.66107 6.59856
1.34432 4.46264 6.36268
3.13368 5.34124 9.39752
9.81072 1.2512 0.107165
0.221489 0.16956 5.47861
4.39787 2.06991 7.63122
0.845716 1.01012 8.91075
4.70273 0.439281 8.4602
5.27903 8.68982 3.14191
1.59348 4.0163 0.493254
2.78551 0.328059 1.03361
5.03331 1.7882 1.94431
1.64489 1.02437 0
9.34614 6.6824 2.38399
2.24601 0.720372 1.62997
0.288534 4.03736 7.36698
2.28708 0.398134 5.62398
6.43704 3.96885 2.96677
3.68384 2.3654 1.03109
8.91077 2.2173 2.89648
3.2582 0.331433 1.28383
1.42531 0.922335 7.91779
3.26817 3.02842 9.54045
3.64523 0.0323596 1.07725
0 2.29646 4.02766
5.28142 0.404623 1.77564
2.6483 7.95909 4.19184
2.38994 6.29027 6.05346
8.35237 8.00656 9.35491
0.261084 3.75947 5.01589
4.16382 0.728395 4.21158
8.3953 4.04496 9.34066
3.00601 4.7742 9.78793
0.559947 3.30464 8.9465
7.50419 0.742289 1.40557
6.55899 8.74349 2.46673
7.36733 6.81791 9.86007
6.07112 3.9675 9.65064
8.88933 5.17552 2.86331
2.1656 0 0.962037
3.46244 0.122804 1.0219
3.26268 9.06598 4.27678
3.70234 0.251099 4.01565
4.52345 2.0061 0.332169
3.05822 0.826406 5.45119
6.98417 8.94806 2.54455
0.378456 1.19236 9.00818
7.6093 2.13226 5.12744
2.32725 2.51725 2.74327
7.69398 3.46323 2.97442
3.02465 0.516587 1.28411
6.38824 4.83135 0.982486
7.64807 6.88922 9.51871
3.21632 8.83065 8.03332
6.55743 9.02391 2.02599
6.61274 1.46711 2.17173
3.91251 0.0956089 1.59292
1.2816 0.637637 9.75662
5.88677 0.296295 2.11943
2.20305 1.03615 1.83994
3.35805 0.50909 1.23731
3.18633 0.320102 0.800634
7.14544 6.8836 5.45345
7.45849 3.65106 1.31644
5.70599 7.004 2.79208
3.01814 0.57283 0.879505
1.52113 2.01085 0.276275
3.41705 0.426287 9.61646
3.39639 0.205249 0.75851
3.28861 0.280077 1.10271
3.10029 0.651764 1.08253
7.77878 1.16235 1.82323
2.7702 5.21679 9.73728
6.06246 1.49329 5.07645
7.91529 9.22973 8.48787
2.03584 2.20986 8.56462
2.92777 0.175566 1.30912
3.53302 0.610504 2.70246
6.30978 0.356062 6.5641
0.210584 2.17323 9.55412
3.10413 0.49061 1.00852
3.3307 0.46286 1.67244
9.56718 6.13729 3.88692
4.88331 3.23246 8.46064
8.43217 0.0804836 8.92935
2.75057 0.437631 8.71427
3.21726 0.724088 0.894577
3.15912 0.0920884 1.03703
2.90466 5.95273 7.96498
3.26628 0.294928 1.60141
2.62591 1.32477 5.68035
1.45035 5.16369 9.86383
4.33687 2.44821 6.11486
3.54548 0.279646 0.877311
7.35504 6.16058 6.65522
8.32042 8.32839 7.35923
3.89092 6.00956 8.40995
3.62503 0.306373 1.68533
3.22725 0.578583 1.50644
9.27359 9.49658 8.31669
3.32148 4.18111 7.14224
8.45397 1.56051 9.15475
0.428405 0.200078 1.28578
3.10677 0.62192 1.68933
3.09946 0.589594 9.42805
3.88204 6.8144 8.5769
8.614 3.98842 6.65166
0.660225 3.15309 4.26965
3.33966 0.140165 1.50926
9.0051 2.96954 7.12417
3.30014 0.476748 1.47131
4.07572 0.4755 1.85873
3.34617 0.357391 1.66438
3.41909 0.381252 1.1933
4.16677 0.113347 7.9266
0.254981 0.888061 7.59259
2.85268 0.673857 5.22665
2.59222 0.549907 1.45665
6.24521 3.60074 9.59863
2.49586 0.674398 3.20831
3.60683 0.457179 1.16928
8.39462 6.10434 2.48064
2.99626 0.465675 8.87261
2.78579 1.13351 7.05011
6.81873 1.33135 0.374722
3.23968 0.266855 1.23899
9.9113 2.79417 0.198135
3.20813 0.532991 9.51783
0.469244 6.19812 9.59386
3.20537 0.602968 9.57823
3.6579 0.100185 1.43622
1.92474 1.62159 3.08497
5.88764 1.13456 4.95339
5.91721 2.26156 0.908286
3.11171 0.378509 9.3579
8.34085 8.7122 6.54397
7.52367 0.378826 0.645177
2.96973 0.615356 9.47263
2.75019 4.31779 7.23313
3.30935 0.180293 1.36218
3.42868 0.433588 1.37408
6.8196 7.3639 5.7376
9.52013 3.99405 4.3846
4.29797 7.80241 1.94309
6.91628 0.835933 1.95702
4.19245 2.30725 5.29166
7.69275 6.15209 0.558001
9.87861 9.78584 4.60352
2.50656 9.46954 2.50907
3.17857 0.212812 1.09796
3.75718 0.767648 4.03948
6.95544 0.746918 0.787567
9.8246 1.23143 2.41182
8.12741 1.48237 5.96061
9.4956 10 5.30138
5.11067 9.25908 9.01662
3.06831 0.0709739 1.22546
3.89318 0.133781 6.87016
5.03122 1.60502 0
8.46921 5.6355 10
4.07061 0.253693 5.29998
8.11949 2.34379 2.92845
4.23241 0.710434 1.71116
0.948158 0.303371 6.04286
4.77379 0.446579 8.35112
2.96675 0.655084 9.46708
3.13754 0.381514 0.767712
3.12456 0.503915 1.05542
3.04183 3.37276 5.27637
3.29654 0.390724 0.810005
7.70562 0.166773 7.03377
6.16077 1.43787 4.84434
9.39465 3.03176 9.39273
5.16909 3.74572 0.0799563
2.79967 0.228637 1.36312
0.922912 0.754395 5.98233
3.07856 0.376954 0.635365
3.1363 0.189899 1.1188
3.11755 0.602413 1.56739
7.77261 6.06353 0.282031
5.27108 1.52483 9.38786
0 3.82131 2.02201
2.30955 4.49942 7.3896
3.39641 0.220823 1.09453
7.9553 1.04066 9.10282
3.1528 1.15527 5.10305
0.622757 2.32282 5.98971
0.360297 6.15595 9.5637
7.78994 1.51297 5.56925
3.90584 5.83345 1.20856
3.36424 0.72495 8.86502
2.12479 1.58863 0.723962
2.70542 0.511445 8.86992
3.36403 0.376505 1.56915
4.00824 0.566873 4.01355
4.3549 9.86385 0.352714
3.28133 0.640701 0.901022
9.42556 8.19026 9.26365
10 9.35603 8.86536
3.53313 0.130437 1.51023
8.99489 1.03583 9.75295
3.12748 0.35893 1.4825
4.16017 0.806472 9.06998
3.18413 0.281145 2.06601
7.32591 0.706975 0.760927
5.09886 6.79596 7.49281
0.459934 5.94048 9.46751
3.29604 0.238287 1.28984
7.80695 7.66518 0.438578
9.44514 2.14453 8.76295
0.448085 0.790733 8.51693
8.49538 4.17501 9.56633
4.25216 0.765608 9.15967
3.14584 0.634169 9.59169
3.14993 0.313312 1.41849
3.1442 0.257266 1.53747
7.20541 0.888791 0.681992
3.63269 0.0789682 1.47407
2.94484 0.0637721 1.02905
7.91475 8.42947 9.6413
3.08629 0.460076 0.463704
3.45115 0.316805 1.15469
2.49535 0.204502 0.72026
3.16654 0.602274 8.83282
3.0049 0.0323262 1.43789
3.56376 0.144424 1.58497
4.04149 0.465492 4.16416
4.25626 0.972587 9.21778
2.7012 0.376292 1.49594
3.32477 0.258351 1.26323
7.00712 0.855709 0.718453
3.29732 0.649445 9.53815
3.12525 0.474644 9.34027
3.23313 0.6285 1.94814
3.42704 0.456275 0.967188
6.9249 1.18646 0.286608
3.07491 0.566212 9.45615
1.53695 4.75606 5.45207
2.72419 0.427506 9.39302
10 3.38528 9.20675
6.9816 0.725806 0.72901
5.22693 7.75476 2.37812
4.27446 0.848265 9.77692
3.58898 0.320226 1.34089
2.86472 0.598547 1.16066
6.92755 0.644678 0.59448
3.12522 0.544322 8.82592
3.02708 0.390228 9.94775
3.99077 0.414662 9.35598
3.48276 0.559927 1.76896
3.48513 0.125601 1.26206
3.12249 0.357802 0.915614
3.93081 0.372034 9.36467
3.43178 0.45532 1.19347
0.943026 0.859154 6.09737
2.83402 0.452947 9.44424
3.23819 0.482671 0.82499
3.4346 0.195881 1.30023
2.66274 1.02238 3.44069
7.13942 0.701961 0.590523
3.26252 0.316709 1.38911
2.96337 0.41409 1.08339
2.79959 0.671998 9.21528
2.9466 0.238975 0.840062
1.21599 0.547252 6.23007
3.02599 0.721018 9.16618
3.23924 0.519051 0.92543
3.33519 0.870554 5.15895
7.60651 0.586192 0.545326
6.98601 0.697025 0.853991
POINT_DATA 400
SCALARS particleColor float 3
LOOKUP_TABLE default
0 0.695194 1
1 0.707008 0
0 0.877557 1
1 5.96046e-08 0
1 5.96046e-08 0
0.267177 1 0.732823
1 0.366758 0
0.417596 1 0.582404
1 0.294165 0
1 5.96046e-08 0
1 0.142702 0
1 5.96046e-08 0
0.820607 1 0.179393
1 5.96046e-08 0
1 5.96046e-08 0
1 0.762607 0
0.93327 1 0.0667303
0 0.612782 1
1 0.000596464 0
1 5.96046e-08 0
0 0.592016 1
0 0.890012 1
0.365431 1 0.634569
0.373433 1 0.626567
1 0.713855 0
1 0.815356 0
0 0.963677 1
0.735283 1 0.264717
0.551081 1 0.448919
1 0.485869 0
0 0.689849 1
0.13923 1 0.86077
1 5.96046e-08 0
1 0.831561 0
1 0.574652 0
1 5.96046e-08 0
0.943377 1 0.0566226
0 0.345315 1
0.854502 1 0.145498
1 0.509024 0
1 5.96046e-08 0
0.335525 1 0.664475
1 5.96046e-08 0
1 0.978902 0
0 0.925453 1
1 5.96046e-08 0
0.0981247 1 0.901875
0 0.925935 1
0 0.665748 1
1 5.96046e-08 0
0.517055 1 0.482945
0.515176 1 0.484824
0 0.753369 1
0.971276 1 0.0287237
1 0.278418 0
0 0.45197 1
1 0.535667 0
0.329191 1 0.670809
0.632775 1 0.367225
0 0.530959 1
0.619609 1 0.380391
1 0.946438 0
1 0.73025 0
0.95407 1 0.0459304
1 0.238408 0
1 5.96046e-08 0
0.994434 1 0.00556582
1 5.96046e-08 0
0.258497 1 0.741503
1 0.221184 0
1 0.747218 0
0.975972 1 0.0240281
0.726587 1 0.273413
0 0.905079 1
0 0.995567 1
0.243766 1 0.756234
0.288637 1 0.711363
0 0.461442 1
0 0.915534 1
0 0.993492 1
0 0.469963 1
1 0.121842 0
0.747135 1 0.252865
1 5.96046e-08 0
0.241552 1 0.758448
0 0.681343 1
1 5.96046e-08 0
1 0.693021 0
0.370793 1 0.629207
0.37356 1 0.62644
0 0.123177 1
0 0.998203 1
1 0.633021 0
0.335837 1 0.664163
0.532559 1 0.467441
0.421136 1 0.578864
1 5.96046e-08 0
1 5.96046e-08 0
0.538098 1 0.461902
1 5.96046e-08 0
0 0.0733568 1
0 0.573678 1
0.323995 1 0.676005
1 0.667103 0
0 0.667814 1
0.977641 1 0.0223588
0.11709 1 0.88291
0.207498 1 0.792502
0.973367 1 0.0266326
1 0.274573 0
1 5.96046e-08 0
1 5.96046e-08 0
1 0.313189 0
0.441647 1 0.558353
0.029866 1 0.970134
1 5.96046e-08 0
0 0.491156 1
1 0.967102 0
0.25686 1 0.74314
0.584512 1 0.415488
1 5.96046e-08 0
1 5.96046e-08 0
1 0.252996 0
0.740171 1 0.259829
0 0.695404 1
0 0.402234 1
1 0.685415 0
0 0.848289 1
0.0661588 1 0.933841
1 0.0122856 0
0.222672 1 0.777328
1 0.728069 0
0 0.351578 1
0.495012 1 0.504988
0 0.489625 1
1 5.96046e-08 0
1 0.515683 0
0.0244366 1 0.975563
1 5.96046e-08 0
0.127092 1 0.872908
0 0.0677847 1
1 5.96046e-08 0
1 5.96046e-08 0
1 5.96046e-08 0
0 0.33902 1
1 0.736295 0
1 0.219507 0
1 5.96046e-08 0
0.687364 1 0.312636
1 0.937095 0
0 0.564441 1
1 5.96046e-08 0
0.725026 1 0.274974
0 0.573961 1
1 5.96046e-08 0
0 0.657938 1
1 0.960643 0
1 0.0507193 0
0.0330224 1 0.966978
1 5.96046e-08 0
0.33795 1 0.66205
0.256664 1 0.743336
0.473426 1 0.526574
0.0145557 1 0.985444
0.596508 1 0.403492
1 5.96046e-08 0
0.333972 1 0.666028
1 5.96046e-08 0
1 0.825443 0
1 5.96046e-08 0
0 0.437409 1
0.201428 1 0.798572
0 0.598593 1
1 5.96046e-08 0
0 0.482905 1
0.183979 1 0.816021
0.00756997 1 0.99243
1 0.893783 0
0.200346 1 0.799654
0 0.854903 1
0 0.437864 1
0.362894 1 0.637106
0.337018 1 0.662982
1 5.96046e-08 0
0.747152 1 0.252848
0.0724556 1 0.927544
0 0.324884 1
0.512153 1 0.487847
0 0.332554 1
0 0.37712 1
0 0.363972 1
0 0.834647 1
0 0.640423 1
1 5.96046e-08 0
1 5.96046e-08 0
0 0.460867 1
0.648422 1 0.351578
0 0.357752 1
0 0.617144 1
0 0.714136 1
0 0.577882 1
0 0.366431 1
0.727322 1 0.272678
0.312002 1 0.687998
1 5.96046e-08 0
0.314108 1 0.685892
0 0.768651 1
1 5.96046e-08 0
0.539542 1 0.460458
1 0.996311 0
0 0.439951 1
0 0.658718 1
1 5.96046e-08 0
0.260027 1 0.739973
1 5.96046e-08 0
0 0.696653 1
0 0.583932 1
0 0.942373 1
0.399895 1 0.600105
0.306241 1 0.693759
1 5.96046e-08 0
0.858998 1 0.141002
0 0.541604 1
0.0390672 1 0.960933
1 0.831701 0
1 5.96046e-08 0
0.806594 1 0.193406
0 0.969205 1
0 0.611281 1
1 5.96046e-08 0
1 0.579985 0
0 0.568318 1
0 0.0878326 1
0 0.220316 1
0 0.417317 1
0.814957 1 0.185043
1 0.950451 0
0 0.515244 1
0 0.962324 1
1 5.96046e-08 0
0 0.563772 1
0 0.533 1
0 0.403856 1
0 0.728231 1
0 0.41813 1
1 0.530957 0
0 0.825043 1
0.552334 1 0.447666
1 0.565258 0
0.526533 1 0.473467
0 0.970019 1
1 0.387066 0
0 0.524694 1
0.782915 1 0.217085
0 0.508964 1
0.0202258 1 0.979774
1 0.894969 0
0 0.585699 1
0 0.545693 1
0 0.284583 1
0 0.115657 1
1 0.860708 0
0.382352 1 0.617648
1 0.248176 0
0 0.78775 1
1 5.96046e-08 0
0 0.714204 1
0 0.398146 1
0.462443 1 0.537557
0 0.733921 1
0 0.909743 1
0.411777 1 0.588223
1 5.96046e-08 0
0 0.547878 1
0.932356 1 0.0676439
0 0.50067 1
0 0.92939 1
1 0.760726 0
1 0.671877 0
0 0.311699 1
0 0.576547 1
0 0.295344 1
1 0.123615 0
0.439788 1 0.560212
0.0998035 1 0.900197
1 5.96046e-08 0
0 0.656613 1
0 0.6926 1
1 5.96046e-08 0
1 5.96046e-08 0
1 5.96046e-08 0
0.445763 1 0.554237
0 0.585809 1
0 0.9347 1
0 0.910459 1
0.0768581 1 0.923142
0 0.385343 1
0 0.945186 1
0.931928 1 0.0680723
0 0.732658 1
1 0.692352 0
0 0.226776 1
0 0.562114 1
1 0.85995 0
0 0.34578 1
0 0.97973 1
0 0.713568 1
0 0.507874 1
0.512932 1 0.487068
0 0.704032 1
0.587417 1 0.412583
1 0.792215 0
0.634477 1 0.365523
0 0.635375 1
0 0.804637 1
0.456503 1 0.543497
0 0.889988 1
0.0901141 1 0.909886
0 0.917365 1
0.0129651 1 0.987035
0 0.656431 1
0.78873 1 0.21127
0.0336206 1 0.966379
0.0294367 1 0.970563
0 0.534882 1
0.108393 1 0.891607
0 0.827209 1
1 5.96046e-08 0
1 5.96046e-08 0
0 0.369606 1
1 0.971126 0
0 0.876414 1
0 0.582413 1
0 0.25974 1
0 0.700369 1
1 0.118105 0
0.046167 1 0.953833
0 0.40774 1
1 5.96046e-08 0
1 0.736864 0
0 0.955538 1
0 0.667411 1
0 0.427565 1
0 0.0737644 1
0 0.74429 1
0 0.554188 1
0 0.737896 1
0 0.124042 1
0 0.837921 1
0 0.753688 1
0 0.738467 1
0 0.594568 1
1 0.0681226 0
0 0.68842 1
0 0.793805 1
0 0.781826 1
0.379944 1 0.620056
0 0.997225 1
0 0.67971 1
0 0.747305 1
0 0.741463 1
0 0.59476 1
0 0.862526 1
0 0.182873 1
0 0.78221 1
0 0.584112 1
0 0.682132 1
1 5.96046e-08 0
0 0.633844 1
1 5.96046e-08 0
0 0.546131 1
1 0.127837 0
0 0.397729 1
0 0.89261 1
0.0553818 1 0.944618
0 0.985813 1
0.0937539 1 0.906246
0 0.78052 1
0 0.344937 1
0 0.560659 1
0 0.732472 1
0 0.885149 1
0 0.168888 1
0 0.99689 1
0 0.491857 1
0 0.187841 1
0 0.403696 1
0 0.117968 1
1 5.96046e-08 0
0.000572656 1 0.999427
0 0.831003 1
0 0.449496 1
0 0.974903 1
0 0.580374 1
0 0.60197 1
0 0.218672 1
0 0.420062 1
0 0.85888 1
0 0.858916 1
0 0.850522 1
