# vtk DataFile Version 3.0
Particle simulation
ASCII
DATASET POLYDATA
POINTS 400 float
1.30685 0.738214 0.959634
1.35435 0.828504 0.138223
1.37839 0.674122 3.91582
1.45545 0.568343 0.67538
5.32406 0.722586 5.43598
2.28347 3.55446 5.79231
7.1216 1.31812 1.83514
2.62427 2.90492 3.83865
5.32123 0.502069 0.261848
6.62906 1.35537 1.4509
1.23973 0.772389 0.923589
0.663359 0.672169 1.25261
1.40599 0.642264 3.98781
1.36856 0.602049 0.697519
5.24914 0.603082 5.47365
2.21612 4.11244 5.52312
2.4982 0.867721 2.69002
1.65471 0.0953889 2.77721
5.88708 0.232139 0.666307
6.68256 1.31019 1.49744
3.44882 1.32369 2.19482
5.06273 0.87747 2.67279
1.06631 1.45681 4.63667
6.72508 1.05039 1.63804
3.77982 0.664194 3.11618
1.60072 0.647163 4.18015
5.41307 0.825666 5.71172
1.64675 0.270295 2.79271
4.10568 0.835422 1.27871
1.31503 0.650365 1.38142
5.74068 0.226308 0.825795
7.25467 1.00111 1.2953
3.78398 2.48698 5.87263
6.70239 1.09784 1.61403
1.22217 0.883044 3.10631
1.64962 0.670942 4.22094
5.54339 0.768739 5.87351
1.6387 0.268521 2.63625
4.07102 1.03189 1.58757
0.75554 0.620933 0.956153
1.24114 0.934203 1.86635
3.54304 0.869135 0.524698
1.62428 0.515047 0.17203
7.02258 1.03602 1.83892
1.6944 0.781159 5.06988
4.26986 0.769762 1.66651
0.323049 0.914279 2.04579
1.70995 0.964042 3.13224
4.15637 1.08922 1.95248
4.32103 1.6146 5.36195
1.23452 0.924167 1.87137
3.5457 0.867121 0.487322
1.71796 0.634826 0.303413
7.01255 1.02323 1.83639
1.70652 0.780912 5.04039
4.23507 0.732224 1.61941
3.02695 0.436578 5.54882
1.65727 0.930757 2.97788
4.10977 1.08712 1.8991
4.69743 0.897206 6.25229
5.27999 0.503205 1.13648
1.1646 0.232581 1.35795
5.35196 0.314597 5.88648
6.74973 0.506672 0.329364
5.8539 0.669964 6.96427
5.44708 0.743588 5.9442
2.6171 0.852159 2.67372
1.62223 0.813049 3.51106
4.34462 1.01421 1.75004
2.30901 0.488909 3.80872
5.14206 0.589014 1.10723
1.51816 0.256506 1.56471
5.573 1.04778 6.52191
6.75446 0.500898 0.352773
5.90918 0.798175 6.88111
5.17735 0.544582 5.99166
2.61033 0.86412 2.62463
2.47713 0.159553 5.9181
4.36401 1.01072 1.7792
2.30192 0.55982 3.82916
1.04648 0.458598 0.858517
2.43738 0.451955 1.80034
2.25145 0.865842 0.413036
3.17428 0.940164 2.19222
4.61549 0.5407 5.32059
3.0501 0.48387 5.23734
4.30255 1.11729 6.28017
1.28915 0.402992 2.61733
0.460162 0.716723 4.26845
5.39279 0.484924 0.73974
1.35982 0.344085 1.11119
2.60017 0.7801 1.80366
3.86254 0.912127 0.644908
3.17978 0.93195 2.1549
4.61344 0.581012 5.32709
3.04047 0.476597 5.28172
3.08663 0.380823 5.54418
1.5239 0.315414 2.63902
0.710241 0.521857 4.04739
5.36118 0.512873 0.769853
2.46073 1.20824 2.48798
6.67144 0.159984 0.527052
1.58013 0.228685 3.11039
6.65709 0.0636268 0.676118
4.43743 1.13972 2.15964
1.62322 0.279528 2.74162
2.97609 0.530013 5.42021
2.83854 0.86935 2.3404
4.26443 0.974857 1.95521
5.32588 0.685979 0.798553
2.51885 0.978507 1.74341
6.82831 0.387918 0.561937
1.81404 0.813091 1.58377
5.37218 0.433427 1.25908
1.25066 0.79555 2.95856
1.65152 0.285 2.76328
2.97019 0.48227 5.53478
3.5473 1.09979 2.26864
4.20955 1.05345 1.9315
1.4361 0.362415 1.51468
2.78481 0.889442 2.02209
4.1542 0.634081 1.34136
4.8434 0.75013 6.44684
3.42628 0.312891 3.28739
2.59019 0.540197 5.82116
1.89074 0.524777 1.48468
0.98762 0.719833 2.2001
6.97983 0.8446 1.76272
3.74868 0.428992 5.72905
2.11937 0.377443 1.32155
2.77982 0.902632 2.01868
4.05653 0.794486 1.6439
5.71769 0.841386 6.75662
3.53957 0.355805 3.25543
2.63866 0.529376 5.58748
3.30096 0.631939 2.78467
2.7178 0.992505 3.79466
6.96938 0.848633 1.78649
3.06073 0.840244 5.64785
0.693536 0.204639 0.495055
1.408 0.447722 1.135
2.5693 0.75608 1.47815
2.28148 0.798704 0.227193
2.7531 0.86754 1.8638
2.21714 0.788603 0.0857613
1.55771 0.470375 3.25526
5.37527 0.801609 6.68039
1.10428 0.275853 2.63953
1.68985 0.428409 2.45251
1.86642 0.651636 4.41623
1.40603 0.456481 1.13967
2.55766 0.844672 1.49342
2.38602 0.822188 0.277244
3.23073 0.911657 2.1543
2.46788 0.81433 0.0918075
1.46751 0.26319 3.20051
5.35799 0.718037 6.63516
1.60466 0.522373 2.98383
2.31917 0.584381 1.87167
1.58258 0 3.13017
1.35648 0.347462 3.23883
4.22185 0.449498 3.69217
4.49976 0.481681 5.65738
1.02178 0.230318 3.39636
1.45542 0.840211 1.80707
3.52335 0.490634 2.26529
2.6515 0.346637 5.47286
3.02074 0.51876 5.51661
2.40312 0.7277 5.46673
2.26621 0.50185 1.49512
1.28502 0.297316 3.20634
1.97387 1.23067 1.1749
4.53684 0.481379 5.66512
2.70996 0.803562 1.63532
1.42742 0.867856 1.83389
3.64601 0.433043 1.84093
2.78357 0.55243 5.42001
2.84025 0.486316 5.55234
2.45637 0.572948 5.47635
2.24483 0.511934 1.49923
2.25389 1.17314 1.53619
0.585455 0.682945 1.24387
5.77379 0.836283 5.85141
0.316306 0.829738 1.6787
3.00108 0.918278 5.74796
2.04876 0.307782 2.57544
1.86133 0.214192 2.47511
4.17629 0.523983 2.84776
0.944127 0.283585 0.926958
2.15898 0.939526 1.39438
2.27034 1.17366 1.53376
1.77227 0.772577 0.927488
4.66877 0.460524 5.8869
0.295889 0.74463 1.62061
3.2047 0.741572 5.59913
1.67296 0.485277 2.55019
1.85827 0.232885 2.48658
5.87284 0.655722 0.433409
1.06861 0.319584 0.873739
2.05125 0.952834 1.44268
1.25011 0.931479 0.790003
2.12382 0.896819 1.82378
3.57514 0.954775 5.35733
2.5051 0.775877 1.62038
4.49339 0.25477 5.30193
2.63916 0.307354 5.8004
1.08341 0.359963 2.50441
1.71442 0.886904 2.8565
2.59371 0.890284 2.19039
5.45794 0.574845 0.65797
1.28378 0.644109 0.97402
2.88535 1.19231 2.25461
4.28335 1.16304 6.32401
2.41501 0.740631 1.76159
4.47812 0.257732 5.30375
2.67592 0.281753 5.83173
1.07608 0.375858 2.52498
2.02393 0.949391 2.85385
2.90368 0.800612 1.73837
5.697 0.550243 0.710825
7.09071 1.10287 1.62747
3.96437 0.373266 5.61512
4.8126 0.80778 5.43707
1.59001 0.828835 1.66738
4.64576 0.414399 5.75554
2.0886 0.384938 2.90422
5.10468 1.15074 4.92143
1.27449 0.538272 2.47307
1.41363 0.682405 3.60986
0.432845 0.583242 1.36125
7.0477 1.08661 1.67909
3.75045 0.466807 5.50526
4.84279 0.849866 5.38306
1.56907 0.86366 1.66662
4.57206 0.428641 5.73055
2.18793 0.385817 2.94726
4.76315 0.907863 5.39098
1.48945 0.70111 3.0997
1.64859 1.1951 0.318238
0.559609 0.701832 1.25234
1.23537 0.731179 0.669212
0.383714 0.78958 0.992152
1.36904 0.479843 2.76575
3.60484 0.703551 1.76735
3.07269 0.747381 5.68343
3.69861 1.14436 1.93794
0.967357 0.289061 2.44404
5.08671 0.378774 6.25361
4.13871 1.05303 1.94413
2.97174 0.674715 5.21821
1.2774 0.732493 0.703904
1.26418 0.960202 2.50036
2.50867 1.00797 5.78425
3.55557 0.719395 1.75089
3.11829 0.485952 5.65652
1.37374 0 2.94563
6.51888 0.244653 0.461031
5.01349 0.74094 6.06648
4.15157 1.06675 1.93604
2.91528 0.6737 5.20083
0.880381 1.2385 2.02206
0.768276 0.975973 2.03839
1.0159 0.426495 1.389
6.45118 1.25249 1.38708
4.54721 0.220474 5.22157
3.61899 0.339919 3.32993
6.60206 0.159988 0.526935
2.64998 0.465059 5.29843
5.45558 1.04391 5.95057
1.81656 0.15704 2.86032
0.944624 1.22294 2.10425
0.828706 0.868727 2.11565
2.86896 1.28147 1.85458
6.82459 0.971082 1.50522
5.7747 1.10714 5.9088
2.46898 0.963653 5.83147
6.84251 0.0342435 0.679863
0.704681 0.977108 5.70803
5.40656 1.05611 6.0065
2.02282 0.0654805 2.73111
6.34992 0.340799 0.752736
4.29564 0.944612 1.69156
2.32355 0.785476 3.05019
6.74975 1.1904 1.5618
2.90014 0.848658 5.27808
5.42606 1.32248 5.74048
1.35734 0.371994 2.61779
1.06603 0.448858 2.69815
1.88669 1.15008 1.27474
1.02188 0.647843 3.87662
6.44101 0.345983 0.875937
4.32174 0.983261 1.7184
1.76304 0.653653 3.13349
6.74895 1.24943 1.57726
3.21756 0.303901 5.60703
4.04915 0.920421 5.39417
1.34966 0.406359 2.55438
2.5638 0.716692 2.76263
2.08736 1.25945 1.29759
3.8033 0.413161 2.09591
5.03443 0.676609 0.540852
1.57735 0.731575 0.763853
1.91487 0.508005 2.89996
3.93726 0.806365 2.09141
1.87055 0.499209 3.97977
3.63278 0.936797 0.696552
1.13464 0.512201 2.53332
1.39065 0.702905 1.03014
2.93968 0.918102 2.47191
1.19244 0.605006 1.02454
6.29776 0.75776 0.346547
1.60633 0.753456 0.749079
2.70436 1.14184 5.02013
2.58672 0.527925 1.99443
1.81218 0.543928 3.99908
6.53208 0.162577 0.647505
1.20036 0.487092 2.52324
0.37192 0.362759 1.03313
2.49973 0.817372 2.37672
1.15355 0.498409 1.21313
2.37876 0.462784 1.64717
1.60297 0.606078 1.00268
3.21657 0.357176 5.76163
2.47106 0.786361 1.30672
5.1848 0.454116 0.873837
5.81161 0.379498 0.346836
1.53328 0.883894 2.90874
3.947 0.920255 1.662
5.7271 0.469005 0.655591
2.93752 0.58635 2.47198
2.41535 0.650089 1.611
1.7507 0.723332 1.36597
3.1902 0.494791 5.79818
2.5617 0.702325 1.27787
5.06322 0.37135 0.830534
0.647989 0.532102 1.13975
1.60092 0.874179 2.83054
3.54115 0.78166 1.8492
5.63057 0.3388 0.783728
2.79355 1.24986 1.97125
1.34243 0.877404 0.956097
1.25045 0.420019 1.03741
4.13089 0.780699 5.7808
1.85963 0.839277 1.39784
1.51087 0.742189 3.37272
1.54025 0.999357 3.0863
4.46142 0.945579 1.37321
0.991428 0.41784 2.47363
1.73161 0.738543 3.21987
4.59859 1.1588 1.66997
1.3938 0.941644 0.904494
1.30462 0.457125 1.05714
4.46607 0.447664 5.53449
1.86175 0.832481 1.38084
1.51905 0.794061 3.37766
1.5665 0.923156 2.99968
4.42605 0.98458 1.40062
2.87519 0.62023 5.06864
1.67985 0.741208 3.17514
1.4676 0.917456 2.67006
4.46712 0.689145 1.34349
1.58695 0.49843 0.676888
4.30166 0.994426 5.98858
1.59832 0.139913 3.11373
2.60553 0.873281 2.14817
1.84522 0.795486 5.49351
2.91689 0.538914 5.55743
2.93435 0.616998 5.57257
2.87353 0.456122 5.78641
0.638496 0.766225 1.78147
4.45745 0.701669 1.33595
1.43095 0.481114 0.777242
4.19715 0.935836 6.05607
1.64294 0.150977 3.08116
2.8479 0.951433 2.92092
1.82491 0.730531 5.50943
2.9161 0.562562 5.53098
2.97866 0.536907 5.64302
2.70776 0.430504 5.5303
0.730372 0.652836 1.53025
1.06476 0.252464 1.05746
1.56001 0.267047 0.9016
2.01831 0.578516 5.14391
1.62273 0.563089 1.21804
6.47767 1.12625 1.5768
4.35371 1.02626 6.06822
4.75307 0.842747 1.67553
3.46683 0.726694 1.9411
7.01474 0.0862798 0.92425
3.99674 1.06887 2.07867
1.07485 0.278408 1.07729
1.59868 0.314812 0.858779
1.99922 0.580516 5.14164
1.44249 0.781812 1.09857
6.45112 1.10401 1.59385
4.42442 0.99759 5.93284
4.75908 0.835652 1.66816
3.49734 0.792672 1.89176
5.61011 0.559562 0.891114
4.01556 1.06007 2.07081
POINT_DATA 400
SCALARS particleColor float 3
LOOKUP_TABLE default
0 0.35712 1
0 0.356265 1
0 0.952249 1
0 0.406744 1
0 0.761405 1
1 5.96046e-08 0
0.108942 1 0.891058
0 0.39069 1
0 0.741135 1
0 0.626645 1
0 0.215139 1
0 0.43241 1
0 0.433063 1
0 0.342652 1
0 0.868092 1
0 0.755516 1
0 0.923826 1
0 0.289513 1
0 0.769025 1
0 0.69965 1
0 0.559938 1
0 0.322912 1
0 0.440519 1
0 0.918227 1
0 0.526172 1
0 0.342904 1
0 0.500078 1
0 0.399335 1
0 0.368754 1
0 0.420901 1
0 0.466648 1
0 0.841803 1
1 5.96046e-08 0
0.0972324 1 0.902768
0 0.74439 1
0 0.445607 1
0 0.694332 1
0 0.287394 1
0 0.322331 1
0 0.365681 1
0 0.543863 1
0 0.387657 1
0 0.98695 1
0 0.714454 1
0 0.349676 1
0 0.720847 1
0.220049 1 0.779951
0 0.721478 1
0 0.752331 1
0 0.502334 1
0 0.481017 1
0 0.380807 1
0 0.963921 1
0 0.619664 1
0 0.435151 1
0 0.64216 1
0 0.831925 1
0 0.823153 1
0 0.736731 1
0 0.910431 1
0.127313 1 0.872687
0.146379 1 0.853621
0 0.992993 1
0 0.594918 1
0.0128855 1 0.987114
0.0852923 1 0.914708
0 0.167727 1
0 0.380588 1
0 0.589151 1
0 0.812628 1
0.135715 1 0.864285
0 0.697345 1
0 0.703273 1
0 0.416807 1
0 0.688522 1
0 0.75767 1
0 0.063623 1
0 0.72057 1
0 0.572464 1
0 0.305809 1
0 0.238616 1
0 0.540849 1
0 0.390546 1
0 0.700119 1
0 0.862748 1
0 0.527959 1
0 0.481567 1
0 0.537085 1
0 0.832841 1
0 0.459441 1
0 0.265574 1
0 0.546764 1
0.0121528 1 0.987847
0 0.648866 1
0 0.788396 1
0 0.465318 1
0 0.79601 1
0 0.635666 1
0 0.69242 1
0 0.360407 1
0 0.673426 1
0 0.778922 1
0 0.452404 1
0 0.962545 1
0.301155 1 0.698845
0 0.75807 1
0.0519235 1 0.948076
0 0.426424 1
0 0.526482 1
0 0.375897 1
0 0.950018 1
0 0.637042 1
0 0.409552 1
0 0.43011 1
0 0.710943 1
0 0.927397 1
0 0.81319 1
0 0.437119 1
0 0.438369 1
0 0.392686 1
0 0.647748 1
0 0.387435 1
0 0.640792 1
0 0.534038 1
0 0.619734 1
0 0.39744 1
0 0.679942 1
0 0.2347 1
0 0.907489 1
0 0.499731 1
0 0.564676 1
0 0.563257 1
0 0.663896 1
0 0.779797 1
0.111762 1 0.888238
0 0.272828 1
0.536095 1 0.463905
0 0.303281 1
0 0.464933 1
0 0.601305 1
0 0.276109 1
0 0.751362 1
0 0.713014 1
0 0.542122 1
0 0.654528 1
0 0.421037 1
0 0.569293 1
0 0.914052 1
0 0.533997 1
0 0.59236 1
0 0.305054 1
0 0.914162 1
0 0.685689 1
0 0.124933 1
0 0.39559 1
0 0.50222 1
0 0.368576 1
0.0457112 1 0.954289
0 0.603781 1
0 0.29638 1
0 0.952255 1
0 0.495846 1
0 0.649257 1
0 0.324062 1
0 0.56132 1
0 0.206594 1
0 0.183852 1
0 0.668391 1
0 0.637115 1
0 0.509529 1
0 0.847816 1
0 0.425524 1
0 0.92459 1
0 0.560419 1
0 0.618287 1
0 0.468723 1
0 0.252429 1
0 0.67056 1
0 0.595048 1
0 0.411286 1
0 0.796906 1
0 0.384501 1
0 0.64405 1
0 0.666059 1
0 0.866643 1
0 0.800252 1
0 0.134699 1
0 0.943392 1
0 0.759181 1
0 0.531993 1
0 0.778666 1
0 0.330099 1
0 0.821877 1
0 0.71832 1
0 0.675735 1
0 0.589398 1
0 0.325345 1
0.319134 1 0.680866
0 0.728986 1
0 0.724565 1
0 0.645487 1
0 0.897127 1
0 0.136743 1
0 0.783324 1
0 0.717682 1
0 0.29417 1
0 0.781306 1
0 0.665662 1
0 0.818098 1
0 0.833243 1
0 0.602023 1
0 0.759748 1
0 0.348663 1
0.114737 1 0.885263
0 0.798424 1
0 0.299075 1
0 0.763402 1
0 0.322513 1
0 0.814137 1
0 0.66237 1
0 0.420045 1
0 0.708733 1
0 0.211069 1
0 0.289592 1
0 0.406846 1
0 0.704275 1
0 0.472783 1
0.114067 1 0.885933
0 0.588451 1
0 0.828738 1
0 0.457318 1
0 0.376307 1
0 0.27592 1
0 0.250373 1
0 0.390674 1
0 0.728765 1
0 0.685359 1
0 0.552122 1
0 0.585733 1
0 0.889732 1
0 0.221765 1
0 0.642154 1
0 0.898725 1
0 0.520381 1
0 0.616558 1
0 0.831849 1
0 0.13108 1
0 0.577143 1
0 0.769536 1
0 0.643969 1
0 0.247517 1
0.120516 1 0.879484
0 0.642868 1
0 0.395655 1
0 0.477645 1
0.0146976 1 0.985302
0 0.525773 1
0 0.606278 1
0 0.897573 1
0 0.598304 1
0 0.523715 1
0 0.634754 1
0.298448 1 0.701552
0 0.778823 1
0 0.758612 1
0 0.739847 1
0 0.974426 1
0 0.88909 1
0 0.409371 1
0 0.517931 1
0 0.48336 1
0 0.799925 1
0.0866214 1 0.913379
0.0275692 1 0.972431
0 0.798327 1
0 0.892377 1
0 0.835006 1
0 0.493921 1
0 0.470976 1
0 0.592463 1
0 0.542301 1
0 0.761715 1
0 0.707826 1
0 0.857608 1
0 0.99434 1
0.0420965 1 0.957904
0 0.864067 1
0 0.498118 1
0 0.456337 1
0 0.776322 1
0 0.562043 1
0 0.754974 1
0 0.578631 1
0 0.766568 1
0 0.928375 1
0 0.82082 1
0 0.624003 1
0 0.843932 1
0 0.534336 1
0 0.378934 1
0 0.531573 1
0.050052 1 0.949948
0 0.667058 1
0.396416 1 0.603584
0 0.672551 1
0 0.83555 1
0 0.867375 1
0 0.660588 1
0 0.355279 1
0 0.764058 1
0 0.714602 1
0 0.992744 1
0 0.973687 1
0 0.480801 1
0 0.856802 1
0.185693 1 0.814307
0 0.732962 1
0 0.477834 1
0 0.507991 1
0 0.680769 1
0 0.513405 1
0.119175 1 0.880825
0.101552 1 0.898448
0 0.522121 1
0 0.369867 1
0.0312782 1 0.968722
0.0239263 1 0.976074
0 0.517827 1
0 0.622287 1
0 0.710016 1
0 0.557351 1
0 0.355298 1
0.0927269 1 0.907273
0 0.508644 1
0 0.286347 1
0 0.802215 1
0.185085 1 0.814915
0 0.613125 1
0 0.743459 1
0 0.403865 1
0.0462397 1 0.95376
0 0.462971 1
0 0.432132 1
0 0.600487 1
0 0.866551 1
0 0.408095 1
0 0.37773 1
0 0.61385 1
0 0.61217 1
0.129971 1 0.870029
0 0.604368 1
0 0.228136 1
0 0.569662 1
0 0.635597 1
0 0.968192 1
0 0.708462 1
0 0.34896 1
0 0.811902 1
0 0.721856 1
0 0.456208 1
0 0.426512 1
0.306411 1 0.693589
0 0.583325 1
0 0.985004 1
0 0.473787 1
0 0.340721 1
0 0.569393 1
0 0.723661 1
0 0.622419 1
0.0942975 1 0.905702
0 0.512087 1
0.341714 1 0.658286
0 0.481101 1
0 0.980411 1
0.0772326 1 0.922767
0 0.24179 1
0 0.664042 1
0.315692 1 0.684308
0 0.517508 1
0 0.678328 1
0 0.73028 1
0 0.634203 1
0 0.532664 1
0 0.694439 1
0 0.53488 1
0 0.670075 1
0 0.356619 1
0 0.569338 1
0.245442 1 0.754558
0 0.366243 1
0 0.757804 1
0 0.569128 1
0 0.728641 1
0 0.494792 1
0 0.423907 1
0 0.816969 1
0 0.303788 1
0 0.691823 1
0 0.419226 1
0 0.414057 1
