# vtk DataFile Version 3.0
Particle simulation
ASCII
DATASET POLYDATA
POINTS 400 float
4.99169 0.12743 9.46416
5.9779 4.23551 6.97614
0.111009 1.47158 6.4125
4.04856 0.447415 3.42422
9.66761 1.47143 5.68733
3.17422 2.21579 0.518728
1.26766 0.837636 0.556297
6.55277 3.02046 2.36872
7.80971 2.33092 6.2553
2.21261 1.67174 8.12129
5.92868 3.57771 4.24806
1.31843 5.8341 0
9.57678 1.16005 8.46903
1.69023 7.42962 2.38357
6.94816 3.93589 3.4512
8.33508 5.02853 9.64764
1.49364 4.28433 0.807956
2.93156 0.536235 2.31142
1.57813 5.43114 7.88341
3.96043 0.249707 2.62103
3.40282 0.313796 1.80075
8.19082 1.66294 2.57908
9.03611 1.45888 9.42497
1.22093 2.14716 0.33453
3.75273 4.83641 1.09877
2.15016 0.287146 3.31951
9.00106 6.73831 0.475362
1.59627 2.23348 0.966248
8.67951 0.122239 3.71239
7.56385 2.59388 2.01427
1.96178 3.81969 9.52546
3.44627 5.24846 2.65587
5.43001 2.19081 4.37725
2.10568 0.309357 3.04822
7.60163 2.28866 2.16706
6.15864 3.66976 0.128185
6.78148 0.94996 2.13994
2.74283 0.545014 1.04369
7.20761 0.512295 2.65615
0.147537 0.530479 6.31216
1.00084 1.0145 5.76271
9.88709 2.60399 7.37079
4.91375 0.858709 7.74987
4.40118 1.34164 3.99177
7.75221 0.550047 5.1914
5.98333 0.571856 1.34722
1.5012 0.107036 5.43239
8.02849 2.03085 5.84113
6.09839 0.336288 1.52882
6.88759 2.93316 2.65356
3.50241 1.27994 3.46943
5.44441 1.16388 8.41645
7.91452 0.889893 9.24479
3.88709 0.432532 7.49998
6.87949 1.18083 9.04222
5.78467 0.337822 1.8585
9.57591 2.99626 7.00949
1.01943 0.710031 9.43618
6.04857 2.13127 0.737828
9.0362 0 3.25651
0.304952 9.48461 1.44353
6.73726 3.221 8.05618
1.59913 0.699994 4.36417
2.98112 0.095382 8.36357
0.966609 9.67981 0.774871
0.941047 0.96644 4.05166
4.00501 1.37445 9.21027
3.13825 0.615589 0.785711
6.13203 2.01478 0.665596
5.03114 0.460128 7.52946
7.01982 0.262531 6.18058
2.91344 0.571312 1.14038
0.756982 1.72128 9.13196
2.93037 0.432357 8.3651
7.55408 0.227491 6.44724
9.26869 0.883133 0.761239
3.91431 1.35147 9.36767
4.72742 0.4112 7.96882
8.44563 6.50855 0.0935083
1.15694 4.35745 9.13877
3.27804 0.344085 1.05535
3.15274 0.632085 1.32192
1.18572 0.951928 2.81218
3.1087 0.112714 1.72598
0.720823 0.596688 9.43533
5.75817 0.730148 8.41684
3.26705 1.21116 4.64605
2.75386 2.01878 2.77156
6.72076 3.76721 3.26094
8.41549 0.399356 0.733613
3.64456 0.493232 1.33469
3.58507 0.443135 0.725256
0.683838 0.50928 6.14698
4.00422 0.90559 3.1009
0.750381 0.833903 9.44499
5.476 0.246605 9.59025
5.31165 0.491008 9.16425
2.52844 3.2518 0.18651
4.79372 3.79493 6.8404
8.36405 0.404563 0.703759
2.8241 0.357153 2.43775
6.52587 0.150754 3.47848
4.28334 0.357821 3.3275
9.57146 0.990403 8.03283
2.62839 3.51651 0.257245
2.38363 0.643791 1.03911
7.62567 0.995826 8.84461
5.85422 0.358589 1.6306
5.76699 0.720326 1.50974
9.2716 0.273758 0.472436
6.89759 8.67549 7.56594
2.67342 0.424192 8.35713
3.98713 1.3239 0.167759
5.94296 0.65947 1.22206
2.68438 0.658768 1.16782
0.937421 0.399057 5.88808
4.89254 0.543986 7.78251
6.89661 0.788748 2.74788
5.82479 0.519466 1.23905
6.94203 1.24678 8.9709
2.93121 0.167728 1.22144
4.36962 4.63469 9.36248
7.39313 6.90512 0.42183
2.69855 3.72072 7.68175
7.00637 0.93391 8.95205
2.97458 0.0672937 1.13099
4.61977 1.75414 5.15133
2.79573 0.227319 8.36253
1.56832 5.0058 9.56934
3.00868 7.45496 2.62358
3.34234 0.26593 0.579628
2.60982 2.15433 3.00537
7.31498 0.770291 8.82723
6.79725 0.273103 6.57233
1.54926 4.19403 5.20584
2.04365 0.928292 1.29407
1.58204 2.28472 9.52058
2.80599 0.20458 8.33577
4.35918 4.84099 6.99206
6.61907 0.878833 9.22269
2.80868 0.194783 1.62323
2.34594 3.6661 9.0771
4.10517 3.75197 1.85608
7.04153 1.36564 8.60382
3.03071 0.105281 1.83959
3.23469 0.603896 1.52363
8.08789 0.474086 5.35416
0.171607 3.90324 0.189304
3.27221 0.742723 2.25677
7.61174 4.73446 2.26382
2.77668 0.162943 1.6195
9.16066 1.16922 6.95592
1.0475 0.986704 4.22168
7.76721 1.60147 9.83495
3.60757 2.70823 0.628825
5.93722 0.336836 1.3759
7.44319 0.162626 4.97692
2.81721 0.619886 1.04919
7.69679 0.56931 5.86422
2.64749 0.658481 0.943301
6.3641 4.45179 2.71942
0.441289 1.2395 6.76361
5.7235 0.645391 8.65086
2.61905 0.398241 2.45943
3.84996 1.01795 2.966
7.9668 0.875627 9.26458
6.04105 0.537882 7.32388
5.71718 0.57935 8.76704
8.52902 0.718012 5.42556
3.36709 8.77593 7.48683
3.16055 0.840564 1.19563
4.49689 1.5838 4.257
5.7021 0.687429 1.09989
3.5698 0.773086 0.895656
3.97604 0.685482 3.00112
6.12027 3.44719 0.0562898
5.99732 0.683671 8.85776
4.82922 0.853189 8.29598
9.57474 0.0137134 7.31932
0.287205 9.74935 3.09441
3.11316 0.159409 1.72614
3.06316 0.245646 3.39105
6.46281 5.0742 4.77732
3.12471 0.00702584 1.19363
5.62016 0.777283 8.98891
3.78777 0.255189 1.50946
3.40257 0.756618 1.27018
0.126791 1.71743 6.85176
7.49901 0.496849 5.21801
3.30628 0.184131 1.85712
3.06917 0.259994 1.7996
2.97624 0.296212 2.5022
0 1.32185 6.05584
0.556798 0.763882 4.52002
4.75264 8.2882 2.26185
3.32238 0.819721 1.07358
4.02627 0.527063 3.01573
6.23414 7.18664 2.60367
2.98956 0.254787 2.55272
2.60788 0.168902 2.07154
3.24829 0.4405 1.10853
6.39834 0.172047 1.19154
7.62405 0.340074 5.44428
5.95929 0.623656 8.50891
8.17057 8.44902 1.45041
5.42092 1.07481 8.42994
2.78594 0.613684 2.06357
1.78421 0.913338 9.38227
1.35754 0.62961 9.76683
8.60232 0.300314 0.787859
2.99963 0.331599 2.31709
6.12642 0.489792 1.53686
5.14752 0.302333 8.91679
6.77473 1.04295 8.9342
8.52716 0.480281 9.63735
5.49657 0.664418 8.63455
2.7261 0.540403 2.0612
3.11076 0.239807 2.49064
4.51361 1.7518 5.38474
8.26874 0.449586 1.09676
7.26227 7.30764 7.79643
7.56078 1.97291 9.81151
5.22438 0.38789 7.80484
3.10738 0.282071 1.4709
6.23981 0.225038 8.07794
3.17036 0.382745 1.39026
5.37948 3.4395 0.288572
2.76573 0.225655 2.24379
3.10536 0.465944 1.98496
8.20303 0.932648 9.02957
0.456195 1.50404 7.01258
5.857 1.09947 8.16707
7.84499 0.499936 5.93051
3.0532 0.338289 1.80607
5.05892 0.671538 7.84117
0.768437 0.883502 2.35751
4.01347 1.22158 9.21968
3.6511 0.413015 2.82958
3.30924 0.0974168 2.69591
1.02493 0.51996 9.85689
3.60235 0.526815 1.64688
3.96177 0.490937 1.53669
3.59512 0 2.27692
2.79286 0.535699 1.84675
5.70457 0.566101 8.75035
2.11604 0.788738 0.759388
1.46147 2.27962 0.807798
7.39312 0.768401 9.52274
5.65039 0.469205 1.53798
5.40842 0.882344 8.51366
3.29237 0.381656 1.46621
4.91087 2.39138 4.35129
5.67353 0.775374 8.70618
3.80857 0.156345 3.20832
8.09265 0.688947 5.55466
3.17623 0.257985 1.35629
9.11718 0.971137 0.514809
5.90097 0.629607 9.02468
6.14276 0.376143 1.3829
5.48815 0.843716 8.67016
3.22504 0.0971568 1.61247
4.10671 3.00438 4.62288
6.19993 0.567132 8.88025
7.7993 0.667623 0.466319
6.00199 0.946622 8.04557
4.87972 0.876745 3.96204
3.93707 0.184318 1.72359
5.54275 0.590212 8.20059
7.87043 0.372223 5.50848
3.28635 0.40284 1.91846
2.59963 0.401754 2.1283
1.5415 0.475412 4.43663
7.32385 0.498712 2.78396
3.37724 0.452003 1.08958
5.70216 0.629244 8.07527
5.54516 0.819501 8.35957
3.78149 0.513809 7.96191
10 8.37876 7.17711
0.234064 0.879392 8.81987
3.15518 0.304805 1.9024
8.68517 0.463897 1.18655
6.32961 0.570019 1.38011
9.07839 2.72482 2.32043
2.9127 0.229469 8.71549
9.61955 2.97815 7.74713
7.87828 0.38973 5.55121
3.26743 0.303005 1.66163
3.29058 0.567643 2.2124
5.31302 1.01666 9.00392
4.7852 7.88332 9.90102
8.88951 0.103714 3.59169
6.03792 0.437756 1.57658
2.65173 0.103863 1.2065
3.05999 0.416953 8.46317
5.55291 0.598531 8.73053
5.5371 0.627656 8.81191
3.24071 0.338019 1.7492
2.92787 0.477501 1.8276
3.39658 1.38444 0.62472
2.88501 0.173241 1.55585
8.51604 0.258555 0.514255
6.84461 1.17808 8.89805
2.41625 1.14539 7.37737
6.29722 0.381254 3.71628
3.05667 0.476238 1.42559
0.137838 0.131316 1.64068
1.7335 0.864924 0.813111
3.15549 0.287405 1.37991
2.35879 1.18948 7.71994
3.91078 0.488267 3.32403
5.05154 0.657405 7.93256
9.30433 1.22816 6.93291
7.89491 0.778797 5.24029
2.78423 0.441581 1.44072
2.93472 0.167704 2.27852
1.11557 0.667873 9.48582
1.74865 0.866796 1.17
6.15371 0 1.84296
5.89135 0.656731 0.978888
3.64051 0.252342 2.53031
5.57183 0.835543 8.66525
1.41061 0.867008 2.4839
5.61745 0.501344 9.02616
3.68893 0.423201 2.38912
8.17555 0.0347759 0.835328
8.61334 0.36505 0.774597
3.56937 0.12087 2.19213
6.33973 0.104965 1.45932
5.98636 0.572376 1.33217
2.72415 0.732667 0.951287
8.06271 0.714165 9.26434
3.12709 0.471791 2.01341
5.46349 0.410594 8.91103
3.07899 0.194798 1.15032
5.66348 0.849283 0.71394
9.61114 2.788 7.91854
5.70461 0.521406 0.860724
3.03507 0.328864 1.48554
9.20867 0.371854 0.705858
3.97478 0.644611 2.99119
5.02538 0.914355 8.16501
3.55575 0.442926 2.84003
5.50456 1.12014 8.29452
5.18737 0.934032 7.6782
3.29108 0.110114 1.82669
3.30689 0.427931 1.70513
6.26329 0.269173 1.2129
2.91228 0.280952 1.15703
3.33201 0.339901 1.60547
3.99613 0.864227 2.7359
3.94488 0.150387 1.82602
3.25828 0.181144 2.27551
5.65572 0.258354 8.25331
5.99795 0.959545 8.50812
3.86446 0.0416557 2.43023
3.09426 0.0413649 1.80258
6.27042 0.142629 1.41722
5.51242 1.12035 8.57001
3.44014 0.375282 2.09351
3.76708 0.0234337 1.78382
6.19328 0.528254 1.66909
5.32381 0.644977 8.69835
5.2582 0.638024 8.49313
3.2575 0.189854 1.76415
2.97886 0.404962 1.76738
7.77527 0.728335 5.41929
5.56644 0.612763 8.77903
5.66617 1.02774 8.64861
5.21885 0.939509 8.47451
2.60484 0.220154 1.98195
6.22023 0.44989 1.67813
9.1098 1.25918 6.9474
5.64417 0.603965 8.8266
2.85414 0.124095 1.30921
3.30344 0.165035 2.0335
7.78727 0.77057 5.3876
5.33207 0.78387 8.82211
5.66994 0.427902 8.37325
5.73651 0.647556 8.74701
3.18181 0.484836 1.93739
3.17555 0.356891 2.21294
3.09975 0.160693 1.75636
5.52709 0.6808 8.58526
3.36444 0.57697 1.49994
2.9225 0.27936 8.47632
5.59267 0.73267 8.68786
3.38928 0.436739 2.33711
3.51901 0.325669 1.83007
8.05981 6.7996 9.0845
5.85646 0.752363 1.68732
3.23278 0.307722 2.20568
2.9587 0.159143 1.80152
5.57511 0.518501 8.52664
2.97565 0.615482 1.85063
2.92181 0.220997 8.54045
5.37588 0.710809 8.63534
3.39251 0.437031 2.36824
4.18752 0.670714 2.95282
8.19845 0.29834 1.13886
5.87288 0.734521 1.71167
POINT_DATA 400
SCALARS particleColor float 3
LOOKUP_TABLE default
0 0.891508 1
0.48939 1 0.51061
0 0.0465681 1
0 0.566859 1
0 0.478309 1
1 0.201078 0
0.203898 1 0.796102
0 0.885581 1
1 0.255718 0
0 0.766965 1
0.36595 1 0.63405
1 5.96046e-08 0
0.246528 1 0.753472
1 0.97285 0
0.0724516 1 0.927548
0 0.418166 1
0 0.516552 1
0 0.354764 1
0.143705 1 0.856295
0.0241516 1 0.975848
0 0.609081 1
0 0.465977 1
1 5.96046e-08 0
0 0.906255 1
0.609756 1 0.390244
1 0.638042 0
1 5.96046e-08 0
0.476237 1 0.523763
0 0.424832 1
0.00220889 1 0.997791
0.241812 1 0.758188
0.181483 1 0.818517
0.218784 1 0.781216
0.51719 1 0.48281
0 0.589779 1
0.149137 1 0.850863
0.323639 1 0.676361
0 0.255667 1
0 0.601528 1
0 0.554958 1
0.263142 1 0.736858
0 0.520155 1
0.61253 1 0.38747
0.595242 1 0.404758
0 0.212709 1
0 0.493424 1
0.661152 1 0.338848
0 0.976193 1
0 0.580582 1
0.0988363 1 0.901164
0 0.704248 1
1 5.96046e-08 0
0.0832774 1 0.916723
0 0.512094 1
0 0.481393 1
0 0.784154 1
0 0.976764 1
0 0.916101 1
0 0.784692 1
1 0.384898 0
1 0.814419 0
0 0.706071 1
1 0.870782 0
0 0.820633 1
0.216612 1 0.783388
0.196677 1 0.803323
0 0.606986 1
0.145426 1 0.854574
0 0.562906 1
0 0.566187 1
0 0.337998 1
0 0.574017 1
0.940919 1 0.059081
0 0.622729 1
0.279866 1 0.720134
0 0.678672 1
0 0.770095 1
0 0.263145 1
0.453789 1 0.546211
0.0162024 1 0.983798
0 0.361064 1
0 0.462048 1
0 0.738382 1
0 0.679547 1
0 0.700952 1
0 0.406923 1
0.59309 1 0.40691
0.0214029 1 0.978597
0 0.962916 1
0 0.322761 1
0 0.414303 1
0 0.47024 1
0 0.978122 1
0 0.852509 1
0 0.510319 1
0 0.322335 1
0 0.74089 1
0 0.90308 1
1 5.96046e-08 0
0 0.363556 1
0 0.593099 1
0 0.805849 1
0 0.646086 1
0.19635 1 0.80365
1 0.752408 0
0 0.620456 1
0 0.821651 1
0 0.583836 1
0 0.907983 1
0 0.74405 1
0 0.649155 1
0 0.655646 1
0 0.833956 1
0 0.530768 1
0 0.507901 1
0 0.612795 1
0 0.584292 1
0 0.40827 1
0 0.881083 1
0 0.897641 1
0 0.35116 1
1 5.96046e-08 0
0.295855 1 0.704145
0.279443 1 0.720557
0 0.484812 1
0 0.888214 1
0 0.466776 1
0 0.585003 1
0.294129 1 0.705871
0.677717 1 0.322283
0 0.478086 1
0 0.450622 1
0 0.712842 1
0 0.770184 1
0.826458 1 0.173542
0 0.513846 1
1 5.96046e-08 0
0 0.873776 1
0.453917 1 0.546083
0.128842 1 0.871158
0 0.607884 1
0 0.941085 1
1 5.96046e-08 0
0.171638 1 0.828362
0 0.740044 1
0 0.721823 1
0 0.669797 1
0 0.415196 1
0 0.653974 1
1 5.96046e-08 0
0 0.525226 1
0 0.225818 1
0 0.690691 1
0.0717272 1 0.928273
0.248373 1 0.751627
0 0.834006 1
0 0.614581 1
0 0.74233 1
0 0.379156 1
0.202795 1 0.797206
0.245571 1 0.754429
0 0.628362 1
0 0.906875 1
0 0.414727 1
0.0255542 1 0.974446
0 0.530163 1
0 0.204615 1
0.15155 1 0.84845
0.524382 1 0.475618
1 5.96046e-08 0
0 0.290589 1
0 0.971547 1
0.121118 1 0.878882
0 0.497641 1
0.0356338 1 0.964366
0 0.937026 1
0 0.0911835 1
0 0.501815 1
0.229097 1 0.770903
0.36104 1 0.63896
0 0.614551 1
0 0.310563 1
0 0.604055 1
0 0.606211 1
0 0.67129 1
0 0.750785 1
0 0.523278 1
0 0.701227 1
0 0.45043 1
0 0.378856 1
0 0.509284 1
0 0.194458 1
1 5.96046e-08 0
0.397316 1 0.602684
1 0.264807 0
0 0.518314 1
0 0.279676 1
1 5.96046e-08 0
0 0.349664 1
0 0.814458 1
0 0.569105 1
0 0.389506 1
0 0.96569 1
0 0.699477 1
0 0.941739 1
0 0.111237 1
0 0.529487 1
0 0.914515 1
0.207721 1 0.792279
0 0.0932505 1
0 0.640511 1
0.0194489 1 0.980551
0 0.99552 1
0 0.845862 1
0 0.504691 1
0 0.417615 1
0 0.681919 1
0 0.31838 1
0 0.353865 1
0 0.439079 1
1 5.96046e-08 0
0 0.459154 1
0 0.886564 1
0 0.862984 1
0 0.341629 1
0 0.667706 1
0 0.500517 1
0 0.38335 1
0 0.4244 1
0.0427403 1 0.95726
0.0914553 1 0.908545
0 0.688732 1
0 0.820212 1
0 0.694933 1
0 0.563675 1
0 0.693571 1
0.0405197 1 0.95948
0 0.48556 1
0 0.094878 1
0 0.739952 1
0 0.743831 1
0 0.366576 1
0 0.517119 1
0 0.731576 1
0 0.847753 1
0 0.515384 1
0 0.876367 1
0.573966 1 0.426034
0 0.701939 1
0 0.760122 1
0 0.48416 1
1 0.767588 0
0 0.699484 1
0 0.456349 1
0 0.576646 1
0 0.425232 1
0.1093 1 0.8907
0 0.683975 1
0 0.909648 1
0 0.654476 1
0 0.518503 1
0.376491 1 0.623509
0 0.771723 1
0 0.822282 1
0 0.543473 1
0.194891 1 0.805109
0 0.592906 1
0 0.736047 1
0 0.816336 1
0 0.631871 1
0 0.84864 1
0 0.532559 1
0 0.85957 1
0.395401 1 0.604599
0 0.702977 1
0.0014343 1 0.998566
0 0.359476 1
1 5.96046e-08 0
0 0.905998 1
0 0.463522 1
0 0.864379 1
0 0.55301 1
0.0579252 1 0.942075
0 0.686603 1
0.388098 1 0.611902
0 0.525774 1
0 0.62342 1
0.1247 1 0.8753
0.077522 1 0.922478
0.577342 1 0.422658
0 0.943054 1
0 0.856584 1
0 0.809221 1
0 0.389652 1
0 0.99644 1
0 0.735728 1
0 0.872088 1
0 0.839136 1
0 0.888318 1
0 0.540222 1
0.0551422 1 0.944858
0 0.57984 1
0 0.777064 1
0.201938 1 0.798062
0 0.982307 1
0 0.871316 1
0.15761 1 0.84239
0 0.654652 1
0.438651 1 0.561349
0 0.346077 1
0 0.191432 1
0 0.530997 1
0 0.723577 1
0 0.753986 1
0.251568 1 0.748432
0.046963 1 0.953037
0 0.2196 1
0 0.487362 1
0 0.333086 1
0 0.522761 1
0 0.438552 1
0 0.423366 1
0 0.333035 1
0 0.414537 1
0 0.860114 1
0 0.23733 1
0 0.558497 1
0 0.565825 1
0.506685 1 0.493315
0 0.15817 1
0.0440925 1 0.955907
0 0.550991 1
0 0.730535 1
0 0.623261 1
0 0.601812 1
0 0.471169 1
0.0689296 1 0.93107
0 0.285567 1
0 0.428846 1
0 0.826037 1
0 0.132631 1
0 0.939397 1
0 0.437435 1
0 0.77462 1
0 0.659483 1
0 0.658761 1
0 0.257403 1
0 0.463794 1
0 0.700346 1
0 0.578261 1
0 0.916065 1
0 0.541685 1
0.155521 1 0.844479
0 0.417192 1
0 0.36486 1
0 0.460699 1
0 0.844836 1
0.0251647 1 0.974835
0 0.756343 1
0 0.241245 1
0 0.595858 1
0 0.76691 1
0 0.731244 1
0 0.578041 1
0.279117 1 0.720883
0 0.55022 1
0 0.508649 1
0.33998 1 0.66002
0 0.540239 1
0.15258 1 0.84742
0 0.384077 1
0 0.41759 1
0 0.523112 1
0.0666055 1 0.933395
0 0.871393 1
0 0.699491 1
0 0.324228 1
0 0.532493 1
0 0.894078 1
0 0.597826 1
0 0.640242 1
0 0.358074 1
0.143942 1 0.856058
0 0.150077 1
0 0.749005 1
0 0.263108 1
0 0.440817 1
0 0.490697 1
1 5.96046e-08 0
0 0.47626 1
0 0.694722 1
0 0.428597 1
0 0.551157 1
0 0.57322 1
0 0.937304 1
0 0.923243 1
0 0.268764 1
0 0.836017 1
0 0.317763 1
0 0.570609 1
