# vtk DataFile Version 3.0
Particle simulation
ASCII
DATASET POLYDATA
POINTS 400 float
1.2677 0.741436 0.774778
1.23577 0.819811 0.17724
1.46687 0.409351 4.24121
1.29532 0.698607 0.618353
4.99263 0.764978 5.6637
3.17474 2.60553 5.78177
6.76835 0.835903 1.77916
2.65556 2.71754 3.88766
5.09308 0.759262 0.269378
6.4476 1.45188 1.37901
1.24138 0.728023 0.809688
0.564093 0.733405 1.10588
1.42443 0.45575 4.12904
1.2838 0.688598 0.637038
4.92428 0.711123 5.72971
2.08709 3.71868 5.45192
2.08864 0.871296 2.81234
1.70273 0.235632 2.68273
5.53089 0.203781 0.53191
6.42802 1.42979 1.38588
3.63909 1.11832 2.03618
5.11845 0.926114 2.53213
0.997657 1.32015 4.47866
6.52166 1.03366 1.28066
3.70088 0.36271 3.17717
1.63155 0.543625 4.06345
5.20491 0.837012 5.65043
1.79683 0.216243 2.76867
4.20764 0.81227 1.18604
1.14684 0.603589 1.41403
5.63896 0.26559 0.578824
6.87049 1.03396 1.11232
2.39783 3.24584 5.66383
6.45648 1.07492 1.22744
1.61415 0.776423 3.25339
1.61844 0.502351 4.08762
5.20333 0.825625 5.85614
1.74671 0.211966 2.67808
4.11435 1.10854 1.72193
0.810271 0.746453 0.962299
1.01653 1.00678 1.78839
3.52266 0.885933 0.714101
1.3281 0.804424 0.00665781
6.73471 1.13671 1.69322
1.63637 0.714975 5.03949
4.26848 0.78099 1.32624
0.837307 0.968244 2.39988
1.41855 0.733349 3.01029
3.95125 1.20233 2.1468
4.07333 1.61875 5.37358
1.0038 0.982952 1.81837
3.52921 0.86909 0.732585
1.34043 0.722669 0
6.75636 1.1476 1.69314
1.62121 0.715774 5.08044
4.25975 0.764438 1.33593
2.73711 0.258463 5.43377
1.314 0.738732 2.97841
3.97112 1.1939 2.15558
4.34751 0.641589 6.17736
5.30517 0.354108 0.570816
1.35237 0.556053 0.867488
5.24964 0.715343 5.53238
6.52845 0.270221 0.384373
5.8486 1.09908 6.6032
5.55277 1.12458 5.64284
2.61849 0.88936 2.58203
1.63958 0.839437 3.65805
4.16937 1.12984 1.95411
2.21729 0.84322 3.76734
5.10846 0.447822 0.545737
1.24726 0.149104 1.37111
5.50185 1.26926 6.41942
6.58677 0.269631 0.365763
5.73252 0.996968 6.6695
5.42396 0.865753 5.88487
2.61937 0.877212 2.61025
2.5204 0 5.6045
4.13792 1.11917 1.93488
2.24002 0.79813 3.74591
1.15106 0.415011 0.921829
2.50958 0.278523 1.8355
2.31913 0.72805 0.199653
3.28849 1.20539 2.17386
4.4637 0.53082 5.01259
3.05333 0.617214 5.54848
4.46569 1.02193 6.1665
1.2826 0.359457 2.86907
0.522289 0.687964 3.8155
5.26863 0.624234 0.849528
1.30936 0.298937 1.10231
2.55567 0.568456 1.8819
3.38806 0.737145 0.70325
3.28491 1.20648 2.20086
4.46452 0.497345 5.01368
3.0465 0.560731 5.56208
2.67338 0.442828 5.51621
1.40588 0.194137 2.90099
0.655469 0.624134 3.74929
5.25822 0.58103 0.827259
2.64792 1.37574 2.62008
6.46768 0.0362091 0.703687
1.43893 0.221847 3.22555
6.34987 0.0864055 0.45394
3.7867 1.19644 2.15889
1.27188 0.279533 2.82787
2.71845 0.86407 5.60312
2.63692 0.815089 2.37115
4.14771 1.10295 2.12843
5.49515 0.584555 0.803912
2.65008 1.27668 2.01854
6.70513 0.0723754 0.649063
1.82969 0.975594 1.51893
5.22108 0.529151 1.01829
1.45087 1.03788 3.1293
1.22871 0.214059 2.76169
2.72497 0.76588 5.53986
3.30033 1.10228 2.25887
4.08521 1.10444 2.06877
1.41755 0.481594 1.63699
2.69945 1.1476 1.92943
4.12159 0.745531 1.23964
4.96085 0.993351 6.29939
3.29317 0.331354 3.1666
2.58145 0.314669 5.58058
1.93461 0.6372 1.64265
0.823775 1.01177 2.06913
6.96322 1.05721 1.72737
3.60839 0.129232 5.49054
1.96871 0.606892 1.38734
2.70497 1.13151 1.93273
4.07429 0.624742 1.50856
5.49618 0.827659 6.50258
3.23198 0.434954 3.16516
2.33422 0.271214 5.34729
3.38434 0.70341 2.78581
2.35076 1.20923 3.20422
6.99197 1.06696 1.72501
3.1967 0.62602 5.64823
0.641665 0 0.509012
1.39511 0.525621 0.989693
2.60123 0.778854 1.14486
2.09197 0.795622 0.378657
2.91122 0.954328 2.02965
2.35425 0.690806 0.374221
1.46138 0.655402 3.11948
5.58389 0.71964 6.49105
1.31953 0.619009 2.85145
1.43309 0.437647 2.59231
1.64578 0.816899 4.2216
1.39749 0.515578 0.984604
2.63214 0.776708 1.11041
2.37939 1.01076 0.350757
3.16224 0.928467 2.16824
2.26719 0.787727 0.355781
1.37296 0.490055 3.08228
5.47889 0.709913 6.49067
1.80723 0.649551 3.38866
2.21623 0.393676 1.73774
1.65185 0.115344 2.96826
1.19098 0.286328 2.78648
3.99528 0.29337 3.69346
4.44815 0.61436 5.35118
1.16535 0.168834 3.43706
1.593 1.06637 1.80864
3.56776 0.607151 2.29571
2.73292 0.480053 5.45933
2.83359 0.730964 5.63272
2.65711 0.751917 5.25789
2.09173 0.515339 1.36488
1.17228 0.217462 2.80868
2.18074 1.25488 1.25712
4.40041 0.656235 5.30095
2.91173 0.756246 1.73542
1.61499 1.04597 1.77512
3.63788 0.702139 1.92926
2.9046 0.607941 5.52142
2.85898 0.777883 5.58909
2.61494 0.710051 5.2616
2.13701 0.501579 1.35862
2.47337 0.810006 1.66403
0.51316 0.62263 1.11983
5.57676 0.674473 6.03309
0.361968 0.78819 1.29438
2.67326 0.642473 5.50996
1.7129 0.0664941 2.49183
1.82891 0.177039 2.50521
4.1348 0.942581 2.58129
1.2485 0.325821 1.22345
2.40194 0.865354 1.36997
2.46409 0.802259 1.63817
1.57821 0.773274 0.834519
4.33479 0.38025 5.61921
0.441113 0.852317 1.299
2.87138 0.771521 5.64833
1.47945 0.319636 2.42767
1.82762 0.14278 2.49391
5.25709 0.528945 0.2777
1.29685 0.302638 1.17978
2.37458 0.853823 1.30757
1.41394 0.780285 0.569618
1.76895 0.736896 1.56563
3.58302 0.90538 5.44787
2.1833 0.666037 1.77509
4.46483 0.121084 5.02655
2.62507 0.458212 5.74423
0.901353 0.617481 2.68021
1.47836 0.978341 2.72208
2.3068 0.824443 2.38091
5.13927 0.616245 0.864299
1.13688 0.755305 0.793866
2.56549 1.07299 2.05237
4.32031 0.98615 6.11128
1.99152 0.533038 1.9002
4.46114 0.119007 5.03495
2.61862 0.454842 5.72472
0.902757 0.60529 2.65993
2.17336 0.942931 2.88014
2.60615 0.827777 2.06214
5.39032 0.624714 0.848723
6.94623 0.953607 1.827
3.88225 0.71383 5.67758
4.81659 0.707054 5.41154
1.68738 0.904284 1.56719
4.41484 0.398392 5.75234
2.24166 0.666917 3.02104
5.30607 1.05915 4.96199
1.12829 0.600071 2.97845
1.25027 0.474753 3.53871
0.693497 0.827574 1.52725
6.99283 0.965811 1.82489
3.73539 0.565171 5.6739
4.92375 0.835337 5.33131
1.65325 0.897831 1.56164
4.44786 0.390949 5.76197
2.32287 0.651173 3.09026
4.97157 0.951894 5.21649
1.51253 0.895087 3.26802
1.80207 1.12719 0.561567
0.738883 0.813081 1.563
1.24553 0.75961 0.800411
0.70243 0.81125 0.939554
1.06228 0.448498 2.46897
3.66494 0.644594 1.61283
3.2909 0.690135 5.61452
4.06888 1.01228 2.14196
0.992148 0.403027 2.54252
5.08995 0.212736 6.33537
4.14876 1.20509 1.64212
2.82358 0.785517 5.50504
1.22486 0.761485 0.778837
1.44979 1.03268 1.97308
2.73673 0.746193 5.56956
3.66361 0.621933 1.67739
3.25568 0.596313 5.59712
1.84447 0.257872 2.95858
6.68721 0.355663 0.363285
5.17876 0.542905 6.21226
4.16446 1.24437 1.62121
2.81756 0.800654 5.46571
0.887323 0.919659 1.95235
1.07094 0.846182 2.00607
1.4784 0.878289 1.30217
6.19868 1.29462 1.30937
4.41807 0.0143885 5.18519
3.63201 0.146324 3.50484
6.39879 0.536353 0.588242
2.94772 0.665966 5.63983
5.36203 0.838574 5.79878
1.62824 0.343949 2.9634
0.868943 0.92531 1.97572
1.16623 0.717791 2.07153
3.34435 1.0788 1.80369
6.39841 0.856455 1.47207
5.73464 0.96747 5.56205
2.25707 0.997377 5.47667
6.63664 0.382807 0.448946
0.861348 1.01268 5.52432
5.36713 0.808777 5.80192
1.80199 0.344797 2.83028
6.63649 0.248675 0.582395
4.07824 0.744254 1.52077
1.96107 0.68219 3.07375
6.62896 1.43267 1.78475
2.64923 0.577573 5.01847
5.18909 1.14521 5.33888
1.70217 0.512271 2.76646
1.29353 0.387668 2.57412
1.74981 0.952516 1.36881
1.26358 0.57588 3.51722
6.7081 0.234307 0.694415
4.12843 0.754439 1.49857
1.50452 0.516472 3.01733
6.56088 1.39945 1.73614
2.74961 0.256219 5.49674
4.30595 0.881169 5.10044
1.60883 0.423968 2.75833
2.72843 1.06178 2.55555
2.07334 1.364 1.20585
3.75363 0.476819 1.8564
5.1677 0.843177 0.507498
1.05543 0.631926 0.708835
2.09129 0.291799 2.80696
3.47778 1.29194 2.1016
1.70328 0.811133 4.15613
3.8034 1.13398 0.775988
0.864624 0.524096 2.72179
1.49931 0.890225 1.15286
2.81597 0.764098 2.47775
1.42711 0.83802 1.0995
6.08169 0.851938 0.554152
1.11861 0.638246 0.622682
2.44563 1.01999 4.73751
2.59844 0.820633 1.97258
1.75139 0.861043 4.16897
6.16291 0.465002 0.475215
0.932257 0.535483 2.71253
0.22496 0.468722 1.13792
2.42341 0.645349 2.35137
1.36356 0.73179 1.28001
2.294 0.697403 1.79353
1.79098 0.713222 1.50155
3.12534 0.718127 5.3196
2.69444 0.745066 1.30137
5.18728 0.422998 0.724166
5.53264 0.589943 0.827252
1.70059 1.26235 3.0445
3.92534 0.970722 1.4853
5.58485 0.69908 0.587664
3.12678 0.733392 2.71998
2.34522 0.905994 1.67321
1.74349 0.743734 1.5216
3.15838 0.759985 5.32674
2.70078 0.790598 1.31045
5.24414 0.379234 0.77056
0.326197 0.43892 1.19002
1.70437 1.31414 3.06431
3.66765 0.86385 1.62728
5.49689 0.655936 0.604095
2.90775 1.07809 1.87273
1.04369 0.56074 0.719659
1.19376 0.63916 1.02643
4.1102 0.662822 5.61176
1.56765 0.714224 1.34098
1.45736 1.07017 3.1226
1.58212 0.797072 3.21824
4.45838 0.758939 1.4914
1.09673 0.523835 2.29486
1.5225 0.850437 3.37584
4.11456 0.777199 1.7401
1.25312 0.615692 0.768297
1.2613 0.567029 1.00353
4.28622 0.459015 5.38706
1.56084 0.699152 1.34853
1.41586 1.14364 3.17977
1.55502 0.691077 3.26979
4.3954 0.76305 1.50323
2.93398 0.674315 4.80433
1.59361 0.85264 3.43637
1.49394 0.79076 2.94429
4.36494 0.820047 1.59313
0.993446 0.771067 0.794355
4.16215 1.08375 6.13277
1.27059 0.0707424 2.7912
2.67095 0.711745 2.2653
1.7785 0.645099 5.34787
3.12613 0.638907 5.49932
2.79668 0.50908 5.31009
3.03998 0.305407 5.58774
0.494449 0.555563 1.24904
4.3645 0.810245 1.60857
0.873504 0.731128 0.88675
4.40652 1.00091 6.15382
1.25727 0.0593249 2.81385
3.0034 0.720699 2.40855
1.79456 0.681297 5.32789
3.14026 0.67588 5.4668
2.64705 0.300929 5.22245
2.64464 0.29703 5.46398
0.597695 0.505166 1.23446
1.2113 0.429742 1.35085
1.42295 0.474322 0.661496
1.80305 0.813134 5.0104
1.45441 0.289253 1.23439
6.70828 0.979974 1.49022
4.13495 1.08688 5.91301
4.67463 0.946614 1.74972
3.51158 0.581821 1.71562
6.4177 0.0589465 1.07138
3.9582 0.944314 1.93647
1.18854 0.390975 1.37726
1.41696 0.483603 0.673281
1.81568 0.808763 5.01274
1.49718 0.558506 1.18328
6.66261 0.991774 1.4764
4.15084 1.21532 5.89588
4.67569 0.948417 1.75377
3.54731 0.55208 1.69122
5.69663 0.567474 0.909764
3.95169 0.938236 1.94035
POINT_DATA 400
SCALARS particleColor float 3
LOOKUP_TABLE default
0 0.478114 1
0 0.176288 1
0 0.62905 1
0 0.563309 1
0 0.819057 1
0 0.651883 1
0.0937568 1 0.906243
0 0.407736 1
0 0.602276 1
0 0.435112 1
0 0.437363 1
0 0.320665 1
0 0.596803 1
0 0.325061 1
0 0.774812 1
0.383249 1 0.616751
0 0.786555 1
0 0.456224 1
0 0.84948 1
0 0.457455 1
0 0.793947 1
0 0.317604 1
0 0.451805 1
0 0.646408 1
0 0.912625 1
0 0.178548 1
0 0.359304 1
0 0.162966 1
0 0.261745 1
0 0.281582 1
0 0.728939 1
0.00839703 1 0.991603
0.0657068 1 0.934293
0 0.561712 1
0 0.888123 1
0 0.406609 1
0 0.57507 1
0 0.248731 1
0 0.468324 1
0 0.170176 1
0 0.571174 1
0 0.733603 1
0 0.971973 1
0 0.646029 1
0 0.416676 1
0 0.486406 1
0.332987 1 0.667013
0 0.820316 1
0 0.446364 1
0 0.499774 1
0 0.514533 1
0 0.385294 1
0.0826442 1 0.917356
0 0.688283 1
0 0.30533 1
0 0.460667 1
0 0.672479 1
0 0.733352 1
0 0.479234 1
0 0.849377 1
0.0846686 1 0.915331
0.316071 1 0.683929
0.302848 1 0.697152
0 0.778912 1
0.201674 1 0.798326
0 0.743535 1
0 0.2552 1
0 0.221769 1
0 0.700919 1
0 0.567279 1
0.12291 1 0.87709
0 0.768973 1
0 0.17384 1
0 0.863122 1
0 0.862051 1
0 0.86526 1
0 0.209808 1
0 0.756533 1
0 0.658613 1
0 0.922359 1
0 0.298907 1
0 0.129421 1
0 0.344781 1
0 0.382766 1
0 0.501426 1
0 0.825757 1
0 0.577788 1
0 0.442529 1
0.243233 1 0.756767
0 0.216654 1
0 0.305323 1
0 0.282759 1
0 0.817902 1
0 0.455443 1
0 0.562279 1
0 0.731382 1
0 0.842692 1
0 0.542479 1
0 0.660473 1
0 0.115534 1
0 0.470002 1
0 0.670817 1
0 0.38863 1
0 0.735708 1
0.27922 1 0.72078
0 0.680522 1
0 0.555512 1
0 0.379315 1
0 0.583895 1
0 0.465913 1
0 0.737746 1
0 0.77843 1
0 0.218783 1
0.034366 1 0.965634
0 0.818803 1
0 0.755141 1
0 0.490216 1
0 0.646158 1
0 0.38799 1
0 0.374224 1
0 0.326218 1
0 0.430374 1
0 0.653865 1
0 0.427612 1
0 0.780418 1
0 0.442365 1
0 0.713356 1
0 0.621199 1
0 0.69868 1
0 0.751496 1
0 0.391083 1
0 0.244362 1
0 0.720071 1
0 0.413263 1
0 0.637365 1
0 0.0901402 1
0.515686 1 0.484314
0 0.636846 1
0 0.624573 1
0 0.314947 1
0 0.506496 1
0 0.493677 1
0 0.241812 1
0 0.451223 1
0 0.658644 1
0 0.605064 1
0 0.500104 1
0 0.882953 1
0 0.808328 1
0 0.916038 1
0 0.488734 1
0 0.478904 1
0 0.355634 1
0 0.219175 1
0 0.89397 1
0 0.650125 1
0 0.608754 1
0 0.7333 1
0 0.419028 1
0 0.796389 1
0.0157877 1 0.984212
0 0.827552 1
0 0.74844 1
0 0.539452 1
0 0.470731 1
0 0.478122 1
0 0.555691 1
0 0.509419 1
0 0.758412 1
0 0.392465 1
0 0.957634 1
0 0.40994 1
0 0.727653 1
0 0.383286 1
0 0.432291 1
0 0.677078 1
0 0.397419 1
0 0.370024 1
0 0.708111 1
0 0.401505 1
0 0.995716 1
0 0.157016 1
0 0.808446 1
0.106247 1 0.893753
0.0579983 1 0.942002
0 0.841003 1
0 0.494071 1
0.365396 1 0.634604
0.0234689 1 0.976531
0 0.549522 1
0 0.971531 1
0 0.717542 1
0 0.880258 1
0 0.867769 1
0 0.850484 1
0 0.591448 1
0 0.456188 1
0.312129 1 0.687871
0 0.85403 1
0 0.788086 1
0 0.628011 1
0.065918 1 0.934082
0 0.42904 1
0 0.650328 1
0 0.290094 1
0 0.670787 1
0 0.505071 1
0 0.534384 1
0 0.497016 1
0 0.473899 1
0 0.3772 1
0 0.857475 1
0 0.772569 1
0 0.793709 1
0 0.375574 1
0 0.756397 1
0 0.498366 1
0 0.395465 1
0 0.92977 1
0 0.767278 1
0 0.660928 1
0 0.676894 1
0 0.17284 1
0 0.38445 1
0 0.627458 1
0 0.703168 1
0 0.461444 1
0 0.907104 1
0 0.451966 1
0 0.746574 1
0 0.616832 1
0 0.418141 1
0 0.180102 1
0 0.435503 1
0 0.456692 1
0 0.680353 1
0 0.49752 1
0 0.369997 1
0 0.758979 1
0 0.58629 1
0 0.459765 1
0 0.857431 1
0 0.697197 1
0 0.167867 1
0 0.440366 1
0 0.84357 1
0 0.682146 1
0 0.171546 1
0 0.498595 1
0 0.78983 1
0 0.419318 1
0.340273 1 0.659727
0.195633 1 0.804367
0 0.29507 1
0 0.452166 1
0.140937 1 0.859063
0 0.223268 1
0 0.592556 1
0 0.451891 1
0 0.754078 1
0 0.806727 1
0 0.600698 1
0.271865 1 0.728135
0 0.0591649 1
0 0.333265 1
0 0.145484 1
0 0.587663 1
0 0.908891 1
0 0.756235 1
0 0.682621 1
0 0.894799 1
0 0.608229 1
0.108218 1 0.891782
0 0.633484 1
0 0.856784 1
0 0.910568 1
0 0.990835 1
0 0.491427 1
0 0.795865 1
0 0.962645 1
0 0.789452 1
0 0.517831 1
0 0.925499 1
0 0.360487 1
0 0.657992 1
0.130842 1 0.869157
0 0.711827 1
0 0.532487 1
0 0.746336 1
0.137359 1 0.862641
0 0.878474 1
0 0.678126 1
0 0.706468 1
0 0.255651 1
0.142022 1 0.857978
0 0.929639 1
0 0.743 1
0 0.818497 1
0 0.33421 1
0 0.860258 1
0 0.498378 1
0 0.918974 1
0 0.451128 1
0.200882 1 0.799118
0 0.881865 1
0 0.141654 1
0 0.273086 1
0 0.268396 1
0 0.437583 1
0 0.512416 1
0 0.582811 1
0 0.972628 1
0 0.728804 1
0 0.71873 1
0 0.562023 1
0 0.719342 1
0 0.504011 1
0 0.61434 1
0 0.19159 1
0 0.624829 1
0 0.640632 1
0.11824 1 0.88176
0.136631 1 0.863369
0 0.281928 1
0 0.445476 1
0.367394 1 0.632606
0 0.669 1
0 0.248449 1
0 0.626647 1
0 0.644885 1
0 0.410728 1
0 0.26635 1
0 0.974396 1
0 0.322289 1
0 0.760496 1
0 0.527848 1
0 0.704978 1
0 0.51839 1
0 0.719635 1
0 0.609227 1
0 0.733698 1
0 0.431582 1
0 0.440287 1
0 0.756606 1
0 0.665841 1
0 0.6329 1
0 0.687261 1
0 0.374468 1
0 0.491945 1
0.27584 1 0.72416
0 0.847565 1
0 0.32991 1
0 0.340197 1
0 0.71075 1
0 0.647541 1
0 0.608546 1
0 0.659448 1
0 0.149181 1
0 0.395512 1
0 0.888473 1
0 0.819026 1
0.155752 1 0.844248
0 0.155263 1
0 0.897637 1
0 0.281943 1
0 0.686285 1
0 0.28659 1
0 0.398365 1
0 0.630641 1
0.344001 1 0.655999
0 0.718026 1
0 0.992648 1
0 0.40806 1
0 0.961449 1
0.255827 1 0.744173
0 0.754451 1
0 0.201506 1
0 0.799352 1
0 0.140048 1
0 0.801293 1
0 0.778116 1
0 0.963672 1
0 0.782221 1
0 0.645576 1
0 0.496963 1
0 0.296961 1
0 0.571388 1
0 0.687563 1
0.193952 1 0.806048
0 0.42953 1
0 0.70116 1
0 0.885876 1
0 0.741661 1
0 0.460774 1
0 0.681194 1
0 0.58268 1
0 0.74432 1
0 0.530412 1
0 0.38929 1
0 0.390037 1
