# vtk DataFile Version 3.0
Particle simulation
ASCII
DATASET POLYDATA
POINTS 400 float
1.6123 0.562054 1.36984
2.37905 0.537505 0.24375
2.29569 0.575835 3.4459
1.51164 0.421637 1.68365
6.53219 0.71252 4.99804
5.87924 7.82506 5.23203
7.95093 2.21055 1.41216
2.49912 3.56619 3.64264
6.42856 0.31502 1.23203
7.76512 0.87062 2.03242
1.56938 0.498766 1.52332
0.466193 0.0922136 1.11349
2.25629 0.607971 3.34045
1.54845 0.429222 1.67291
6.52146 0.882693 5.11485
2.97907 4.68883 6.22792
3.95528 0.854605 1.87554
1.68023 0.775538 2.89183
7.29292 0.361952 0.802049
7.83061 0.865818 2.04611
2.70292 0.342725 2.38123
4.51795 0.641778 3.32489
1.34118 1.91494 5.26863
7.62915 0.715284 1.76437
4.03701 0.22388 4.05951
2.14987 0.615354 3.29843
5.7053 1.16197 6.32262
1.50455 0.428303 2.6741
4.79302 1.11265 2.25973
1.63929 0.500812 0.92112
5.65774 0.0133241 0.579376
7.10459 0.92881 2.1002
5.61006 3.70797 6.85509
7.63355 0.674612 1.77832
0.698113 0.677112 2.00829
2.09774 0.557778 3.27018
5.77578 1.17039 6.54141
1.59458 0.421665 2.928
4.64076 0.84087 1.75418
0.412524 0.109786 1.33177
1.75016 0.186926 1.39336
3.96079 0.71213 0.0776367
2.8583 0.625499 1.95342
6.93688 1.21896 1.73028
3.14527 0.1803 6.21626
4.59949 0.937999 2.03884
1.03801 0.219044 0.328156
2.16509 0.323731 3.14193
4.63508 0.533741 1.47925
5.38143 1.30117 5.28364
1.69978 0.165307 1.44769
3.97607 0.749726 0
2.6593 0.0924431 1.71343
6.93336 1.19469 1.73131
3.12589 0.198691 6.15984
4.59506 0.907697 1.97872
3.71655 0.653536 5.94125
2.109 0.424665 3.28171
4.58359 0.574112 1.51525
6.15909 1.0258 6.27534
5.33631 1.00388 2.30407
0.773589 0.129181 2.81735
5.49756 0.276841 7.43613
7.21597 0.433518 0.865715
5.36782 0.169746 7.16201
4.73288 0.193598 6.92409
3.04549 0.729227 2.43385
1.72108 0.00981483 2.16921
4.48711 0.578049 1.56595
2.71247 0 5.09771
5.45767 0.840808 2.39657
2.4913 1.29845 1.38817
5.69591 0.0856395 7.58665
7.17913 0.446921 0.831413
5.59074 0.26468 7.05977
4.38833 0.778042 5.97363
3.01278 0.749731 2.48226
2.89602 0.846659 6.11386
4.50025 0.639331 1.59198
2.65952 0.0300902 5.10562
1.55451 0.57687 0.944752
2.28605 1.13704 1.40124
1.96083 0.716584 0.435474
2.64008 0.738245 2.11537
4.89568 0.604289 6.446
2.72355 0.305676 6.02531
4.56942 0.605005 5.60406
1.49285 0.0573828 2.3571
1.12301 0.717062 5.14351
6.02164 0.0870172 0.818868
1.514 0.463544 1.06905
2.55152 0.570448 1.6917
3.98718 0.504742 0
2.64255 0.744909 2.13582
4.90995 0.621182 6.39862
2.73066 0.339063 6.06807
3.58523 0.905076 6.09896
1.69561 0.17762 3.03132
0.826061 0.515858 5.56163
6.01111 0.120161 0.861692
2.68476 0.165659 1.75002
7.19232 0.286047 0.893068
1.54488 0.376518 2.39247
7.28528 0.669858 0.675645
6.40718 0.106473 1.16149
2.12103 0.686073 3.0459
3.35366 0.527524 5.73172
3.60605 0.80258 1.97441
4.66042 0.515769 1.43949
6.20162 0.116356 0.751358
2.09624 0.162863 1.01686
7.25909 0.351262 1.0242
1.32946 0.538205 1.04926
6.01287 0.0553036 0.357437
1.80526 0.47254 2.20632
2.18315 0.688987 2.96933
3.29323 0.480169 5.67623
4.31016 0.491833 1.60034
4.60868 0.542114 1.49069
1.21756 0.745206 0.602344
2.88415 0.742341 2.14295
4.48185 1.09076 2.28782
4.82245 0.452862 5.59481
4.90589 0.70531 3.13522
3.8023 0.498593 5.68423
1.12138 0.559901 0.86155
2.09648 0.111541 3.12387
7.10594 1.12509 1.64924
4.66921 1.27481 6.13734
2.64606 1.08913 1.86584
2.88095 0.739904 2.1237
4.61694 0.753539 2.00408
5.24727 0.364962 7.12855
4.82544 0.638037 3.186
3.95765 0.718691 5.89259
2.63583 0.928652 1.91635
2.50128 0.554174 4.49696
7.12376 1.14948 1.63499
2.47607 0.0638514 5.75098
2.02191 0.497856 1.62818
1.51895 0.615725 0.912568
2.6955 0.589999 2.74313
1.69117 0.623031 0.287647
1.40366 0.553334 1.27512
1.873 0.6737 0.201615
1.88545 0.353246 2.93477
5.88789 0.273394 6.93889
1.53747 0.408901 2.13341
1.62189 0.379639 3.3943
1.79403 0.599725 3.01709
1.51284 0.622919 0.916124
2.70333 0.699977 2.72542
2.07884 0.803966 0.393056
3.3976 0.930756 2.14957
2.12815 0.621536 0.193439
1.90213 0.580573 2.86586
5.83513 0.337712 6.98246
1.15247 0.0814439 1.81444
3.19359 0.944012 1.77806
1.7968 0.740488 2.72155
2.26898 0.799619 3.76314
3.62533 0.149315 2.59414
4.94191 1.01937 6.37383
2.13584 0.448905 2.36403
1.50712 0.242027 1.39241
3.43317 1.0749 1.9504
3.41553 0.47611 5.76809
2.8769 0.475479 5.8081
2.71634 0.357927 5.63401
3.28888 1.14268 2.11114
2.20514 0.770735 3.71466
1.41114 0.0884466 1.55308
4.96287 1.05348 6.27865
1.412 0.442407 1.55221
1.56866 0.314037 1.30432
3.61032 1.1418 2.18882
2.92385 0.316762 5.85741
3.12471 0.526069 5.68557
2.9036 0.386219 5.64963
3.26278 1.1464 2.12141
1.30764 0.333697 1.07298
0.409775 0.178673 1.16802
5.45109 1.10089 6.60744
1.11412 1.25015 2.49925
3.34469 0.223707 5.67803
1.8593 0.795247 3.59588
1.42603 0.494875 3.22313
4.29401 0.317128 3.89784
1.31307 0.462287 0.901019
1.39633 0.178318 1.33679
1.32127 0.329794 1.04889
1.34691 0.305633 1.51969
4.62604 0.91139 6.10227
1.04331 1.22935 2.4962
3.26474 0.227297 5.66545
1.75307 0.239733 3.50407
1.42561 0.525585 3.22073
8.08164 0.0873621 0.641779
1.21098 0.438717 0.851769
1.46052 0.174751 1.2767
1.82088 0.22014 1.5416
3.93992 0.778958 2.06509
2.75286 0.0450273 6.04507
2.98167 0.912236 2.18044
5.2867 1.20808 6.80889
3.25313 0.5367 5.4715
1.96435 0.448943 3.05729
1.61497 0.144851 3.3343
3.61277 0.862726 1.99308
5.9749 0.135507 0.889975
1.44467 0.649018 1.30791
3.75916 0.742249 2.05648
4.48168 0.617863 5.66199
3.4045 0.854898 2.18599
5.26962 1.20995 6.75752
3.28521 0.539211 5.51659
1.98473 0.451111 3.08296
1.21848 0.171039 2.71316
2.18082 0.81702 1.86337
5.9003 0.223195 0.979004
7.28763 1.02267 1.76967
2.67445 0.504185 5.65349
4.54135 0.708004 6.18367
1.54025 0.292543 1.27104
4.68735 0.974091 6.04809
0.836266 0.475465 2.22125
4.38697 0.296905 6.585
1.56931 0.463429 1.44613
2.10783 0.544243 3.45976
0.898498 0.135271 0.760444
7.25576 0.978475 1.80456
2.70368 0.423936 5.8469
4.97798 0.252786 6.79271
1.5189 0.323769 1.2609
4.74847 0.945675 6.17898
0.737438 0.44603 2.21495
4.93819 0.370978 6.71775
1.66516 0.086708 2.25301
2.20936 0.407317 0.257321
0.723114 0.299702 0.938411
1.5805 0.492568 1.81293
0.905817 0.0904385 1.18146
2.12697 0.586409 3.35998
3.21019 0.776096 2.55243
2.56016 0.310127 5.68631
2.37331 0.497838 2.09982
2.20559 0.380282 3.10803
4.38839 0.914192 5.68456
4.41224 0.845074 1.67098
2.85809 0.426688 6.08029
1.58889 0.502587 1.78196
1.94745 0.317719 3.67024
2.67797 0 5.47462
3.2048 0.795119 2.49784
2.46137 0.387248 5.7267
0.778611 1.32101 1.99774
6.33493 0.507124 0.933728
4.38218 0.651009 5.83491
4.43708 0.825365 1.63978
2.8126 0.431959 6.08829
0.54958 0.75317 2.47799
0.897952 0.916131 2.38601
0.378729 0.701673 0.769439
7.68849 0.731819 1.9761
5.33603 1.11152 6.8174
3.37836 1.07099 1.71901
7.48732 0.906624 0.661744
2.94488 0.484499 6.07038
5.89743 1.14497 6.37772
1.31284 0.613557 2.6724
0.673994 0.75084 2.46915
0.975361 0.779927 2.59005
1.2491 0 2.04964
7.42747 0.661327 1.99167
4.72603 0.769074 6.1947
3.66381 0.169759 5.38519
7.21979 0.756091 0.487567
0.0780142 0.746549 6.44286
5.92307 1.07282 6.35644
1.09978 0.793885 2.73508
5.29272 0.0868423 0.722485
4.18911 0.534772 1.90388
3.76554 0.847442 1.58271
7.63067 1.00043 2.14174
3.93284 0.0674171 6.59043
5.46905 0.19589 7.32725
1.40278 0.27841 2.27177
2.18341 0.219204 2.73385
2.66856 0.44182 1.93233
0.949101 0.469196 5.37582
5.37578 0.111185 0.799636
4.25236 0.570294 1.89167
1.78892 0.158929 2.82233
7.62911 1.05946 2.15238
3.33664 0.721638 5.98519
2.67095 0.266446 6.22118
1.60801 0.179346 2.45746
1.08217 0.299238 2.79173
2.21798 0.207028 1.93258
2.91307 1.20095 2.20009
6.43183 0.173856 0.769062
2.59098 0.63261 2.09326
1.40516 0.220819 2.61711
4.69312 0.772004 1.03968
1.81826 0.358046 2.56079
4.15082 1.04665 0.358925
1.8072 0.355152 3.07034
1.10786 0.539494 0.784882
2.71496 0.668137 1.54212
1.36565 0.670401 0.82113
7.80172 0.392755 1.15684
2.54113 0.647672 2.04991
3.87169 0.157122 6.5217
2.25749 1.26106 1.38531
1.7342 0.437917 2.58739
7.14038 0.916575 0.653468
1.84743 0.354458 3.02706
2.35059 0.604832 1.15482
3.77359 0.678681 1.86748
1.34399 0.667225 0.72885
2.40236 1.07449 1.7834
0.493845 0.149238 1.02082
2.5411 0.481232 5.73859
1.58639 0.588313 1.95767
6.11666 0.0875097 0.645088
5.79112 0.145962 1.32798
1.70513 0.871656 2.43468
4.5344 1.01206 1.9603
5.80996 0.300872 0.569349
2.10418 1.11186 1.04666
2.41268 1.06434 1.69321
1.20095 0.441133 1.01773
2.56324 0.552887 5.77045
1.61684 0.581436 1.97495
6.20808 0.108196 0.708016
2.45236 0.357498 1.22957
1.70149 0.872244 2.54773
3.24648 1.05187 2.42615
5.71086 0.224534 0.565567
2.48644 0.138195 1.87116
2.76674 0.498847 1.94241
1.54314 0.778447 1.30137
5.27682 0.636769 6.20522
2.82514 0.688351 1.85318
1.8925 0.570088 2.66766
1.71159 0.240878 2.42019
4.33433 0.634254 2.11312
2.3284 0.505565 3.07656
1.44653 0.138421 2.23908
4.15938 0.487045 2.05231
1.54468 0.10571 1.55724
1.56366 0.703678 1.25893
4.9147 0.891343 6.38099
2.82517 0.692319 1.8798
1.87167 0.703519 2.72502
1.71582 0.29035 2.67078
4.30412 0.669926 2.13584
2.85779 0.24781 6.40102
1.5295 0.102986 2.34619
1.86058 0.213587 2.86165
4.2613 0.759721 2.40529
2.69222 0.694527 1.89126
5.06572 0.196391 6.09931
2.01545 0.841934 3.06372
2.46098 0.588796 1.47581
3.09898 0.184948 5.73166
2.74687 0.445353 5.66253
3.29454 0.484605 5.63331
2.73711 0.15789 5.5174
0.880506 1.02059 2.38592
4.24971 0.773264 2.40361
2.61356 0.678818 1.98014
5.07447 0.543745 5.83088
2.02885 0.854905 3.01978
1.16432 0.0122742 2.85039
3.13258 0.169011 5.76139
2.73432 0.447057 5.64252
3.45816 0.546871 5.58808
3.6987 0.676769 5.9134
0.700955 1.04201 2.7779
1.48719 0.674432 1.06448
1.49431 0.712249 1.19629
3.14252 0.41369 5.93921
1.45314 0.427952 1.2629
7.81746 0.607874 1.95787
5.16009 0.11812 5.8718
3.68409 0.775452 2.06821
3.15517 0.747572 2.5708
6.85144 0.76754 0.785734
4.61372 0.434074 1.34122
1.51473 0.703353 1.06808
1.49592 0.733783 1.24102
3.05964 0.430776 5.93963
1.4469 0.233296 1.15109
7.81034 0.650877 1.92816
5.08563 0.367735 5.9157
3.75759 0.791032 2.05842
3.19434 0.811035 2.53133
6.05097 0.131347 0.886508
4.60192 0.413681 1.35268
POINT_DATA 400
SCALARS particleColor float 3
LOOKUP_TABLE default
0 0.498503 1
0 0.737871 1
0.0029116 1 0.997088
0 0.401697 1
0 0.740374 1
1 5.96046e-08 0
0 0.562241 1
0 0.323357 1
0 0.354131 1
0 0.324074 1
0 0.533986 1
0 0.64223 1
0 0.900586 1
0 0.329555 1
0 0.739353 1
0 0.584773 1
0 0.668675 1
0 0.263053 1
0.311827 1 0.688173
0 0.434677 1
0 0.800224 1
0 0.472756 1
0 0.400771 1
0 0.35549 1
0.0682993 1 0.931701
0.203308 1 0.796692
0 0.417891 1
0 0.4271 1
0 0.317088 1
0 0.377508 1
0 0.699611 1
0 0.408079 1
1 5.96046e-08 0
0 0.689543 1
0 0.504038 1
0.149026 1 0.850974
0 0.39266 1
0 0.468106 1
0 0.232139 1
0 0.259989 1
0 0.67083 1
0 0.52941 1
0.0456614 1 0.954339
0 0.457671 1
0.148995 1 0.851005
0 0.66936 1
0.151335 1 0.848665
0 0.667993 1
0 0.329471 1
0 0.584721 1
0 0.660981 1
0 0.507673 1
0 0.879021 1
0 0.487152 1
0.144913 1 0.855087
0 0.738456 1
0 0.603049 1
0 0.570088 1
0 0.558672 1
0 0.989556 1
0 0.477577 1
0 0.725651 1
0 0.84507 1
0 0.645531 1
0 0.402368 1
0 0.600806 1
0 0.702716 1
0 0.792881 1
0 0.550416 1
0 0.830858 1
0 0.470695 1
0 0.718348 1
0 0.29753 1
0 0.748207 1
0 0.0203534 1
0 0.664773 1
0 0.536986 1
0 0.463503 1
0 0.493624 1
0 0.853918 1
0 0.488515 1
0 0.266605 1
0 0.539462 1
0 0.623157 1
0 0.210594 1
0 0.612095 1
0 0.834514 1
0 0.392594 1
0 0.85076 1
0 0.345847 1
0 0.374893 1
0 0.560014 1
0 0.636432 1
0 0.570078 1
0 0.237139 1
0 0.651198 1
0 0.455555 1
0 0.553204 1
0.25878 1 0.74122
0 0.371093 1
0 0.521921 1
0 0.757145 1
0 0.43573 1
0 0.430727 1
0.487832 1 0.512168
0 0.466187 1
0 0.742405 1
0 0.553849 1
0 0.134263 1
0.0458748 1 0.954125
0 0.550853 1
0 0.60916 1
0 0.584061 1
0 0.711347 1
0 0.635694 1
0 0.408255 1
0 0.426249 1
0 0.762998 1
0 0.440603 1
0 0.213693 1
0 0.347467 1
0 0.38699 1
0 0.462981 1
0 0.821158 1
0 0.819004 1
0 0.626476 1
0 0.787708 1
0 0.606151 1
0 0.713594 1
0 0.645746 1
0 0.411411 1
0 0.389198 1
0 0.889803 1
0 0.116678 1
0 0.334499 1
0 0.851225 1
0 0.330988 1
0 0.665725 1
0 0.27365 1
0 0.989885 1
0 0.0905643 1
0 0.676301 1
0 0.48624 1
0.0599129 1 0.940087
0 0.601506 1
0 0.510474 1
0.0122088 1 0.987791
0 0.546807 1
0 0.505619 1
0.142937 1 0.857063
0 0.12946 1
0 0.607524 1
0 0.60051 1
0 0.382623 1
0 0.543293 1
0 0.315296 1
0 0.89989 1
0 0.307 1
0 0.685846 1
0 0.536056 1
0 0.245776 1
0 0.685728 1
0 0.53652 1
0 0.783601 1
0 0.81548 1
0 0.306738 1
0 0.524937 1
0 0.756631 1
0.0680524 1 0.931948
0 0.854137 1
0 0.445639 1
0 0.54676 1
0 0.597741 1
0 0.953518 1
0 0.804117 1
0 0.59329 1
0 0.193166 1
0 0.536049 1
0 0.515679 1
0 0.63674 1
0.322766 1 0.677234
0 0.85446 1
0.0763687 1 0.923631
0 0.854981 1
0 0.540748 1
0 0.60897 1
0 0.347844 1
0.130697 1 0.869303
0 0.927677 1
0 0.904217 1
0.272194 1 0.727806
0 0.319131 1
0 0.665632 1
0 0.338859 1
0 0.61183 1
0 0.232752 1
0 0.161982 1
0 0.692846 1
0 0.658653 1
0 0.692118 1
0 0.421884 1
0 0.746029 1
0 0.70558 1
0 0.569373 1
0 0.859977 1
0 0.49879 1
0 0.742003 1
0 0.595267 1
0 0.680258 1
0 0.598702 1
0 0.29753 1
0 0.697022 1
0 0.726418 1
0.0193461 1 0.980654
0 0.541218 1
0 0.595944 1
0 0.661704 1
0 0.680807 1
0 0.551248 1
0 0.399585 1
0 0.798924 1
0.513677 1 0.486323
0 0.798049 1
0 0.514133 1
0 0.712687 1
0 0.733811 1
0.139788 1 0.860212
0 0.843061 1
0 0.561833 1
0 0.483024 1
0 0.709799 1
0.0905611 1 0.909439
0.0783067 1 0.921693
0 0.511779 1
0 0.557531 1
0 0.590265 1
0 0.56483 1
0 0.327648 1
0.0859178 1 0.914082
0 0.426455 1
0 0.392223 1
0 0.662524 1
0 0.291974 1
0 0.682513 1
0 0.603839 1
0 0.7594 1
0 0.558331 1
0 0.884592 1
0 0.565958 1
0 0.685862 1
0 0.454279 1
0.378356 1 0.621644
0 0.814669 1
0 0.660425 1
0 0.612105 1
0 0.631654 1
0 0.31436 1
0 0.462119 1
0 0.450469 1
0 0.792971 1
0 0.444526 1
0.0453949 1 0.954605
0 0.515717 1
0 0.517391 1
0 0.622784 1
0.176017 1 0.823983
0 0.370191 1
0.00796589 1 0.992034
0 0.581432 1
0 0.425462 1
0 0.292149 1
0.0193621 1 0.980638
0 0.818772 1
0 0.873467 1
0 0.766774 1
0 0.46995 1
0 0.427398 1
0 0.510048 1
0 0.435544 1
0 0.464878 1
0 0.503117 1
0 0.561769 1
0.0156156 1 0.984384
0 0.57112 1
0.381753 1 0.618247
0.190769 1 0.809231
0 0.766455 1
0 0.800554 1
0 0.957917 1
0 0.846322 1
0 0.377489 1
0 0.486857 1
0 0.703843 1
0 0.826438 1
0 0.649985 1
0.0299785 1 0.970021
0 0.76405 1
0 0.76414 1
0 0.205644 1
0 0.53854 1
0 0.626772 1
0 0.909986 1
0 0.860884 1
0 0.650544 1
0.265919 1 0.734081
0 0.098299 1
0 0.807213 1
0 0.670767 1
0 0.663339 1
0 0.827357 1
0 0.823816 1
0 0.958432 1
0 0.455287 1
0 0.531314 1
0.2231 1 0.7769
0 0.463277 1
0 0.651032 1
0.0300612 1 0.969939
0 0.87477 1
0 0.800212 1
0 0.241446 1
0.00632396 1 0.993676
0 0.748231 1
0 0.728867 1
0 0.683455 1
0 0.752959 1
0 0.516351 1
0 0.362499 1
0 0.668782 1
0 0.281525 1
0 0.414232 1
0 0.281349 1
0 0.798138 1
0 0.798176 1
0 0.668363 1
0 0.778927 1
0 0.640062 1
0 0.298826 1
0 0.439197 1
0 0.517941 1
0 0.926501 1
0 0.286139 1
0 0.479016 1
0 0.477691 1
0 0.968012 1
0 0.787762 1
0 0.107978 1
0 0.536025 1
0 0.500273 1
0.24528 1 0.75472
0 0.443863 1
0 0.306294 1
0 0.124349 1
0 0.546229 1
0 0.790187 1
0 0.950694 1
0 0.286726 1
0 0.479453 1
0 0.402179 1
0 0.881699 1
0 0.632637 1
0.40728 1 0.59272
0 0.308941 1
0 0.373629 1
0 0.535396 1
0.405676 1 0.594324
0 0.372132 1
0 0.460691 1
0 0.824441 1
0 0.940969 1
0 0.501865 1
0.610388 1 0.389612
0 0.769401 1
0 0.427199 1
0.171056 1 0.828944
0.311859 1 0.688141
0 0.440474 1
0 0.746567 1
0 0.419931 1
0 0.713185 1
0 0.968238 1
0 0.546994 1
0 0.715505 1
0 0.989067 1
0.141365 1 0.858635
0 0.28027 1
0 0.826979 1
0 0.638145 1
0.104071 1 0.895929
0 0.425748 1
0 0.902652 1
0 0.623509 1
0 0.77885 1
0 0.543578 1
0 0.991937 1
0 0.356142 1
0 0.887304 1
0 0.490259 1
0.257586 1 0.742414
0 0.457872 1
