# vtk DataFile Version 3.0
Particle simulation
ASCII
DATASET POLYDATA
POINTS 400 float
2.27024 2.11184 5.51888
7.96183 6.49268 2.15878
9.64705 7.82589 6.01269
8.2023 9.76672 6.41315
7.85768 9.84125 0.534652
7.55043 6.52293 0.948717
8.81825 0 9.07439
5.60915 4.46357 3.92077
0.837708 3.79352 7.19726
0.709314 5.45629 0.728729
10 2.37582 5.56441
6.89522 6.11417 9.4138
4.68854 5.88912 6.44819
4.67187 4.08822 6.92593
6.4938 7.28411 3.80139
5.47364 1.46766 1.20839
3.94379 9.47484 9.93056
3.82462 0.100044 1.20147
1.21359 5.32566 6.52705
4.15997 5.69676 0.318955
2.88752 0.332788 1.10267
3.3411 1.63805 6.9253
7.16732 5.64347 5.164
8.68226 4.36019 4.50368
10 7.67878 3.35833
9.7957 7.37321 3.34414
9.63012 8.06406 5.67584
0.640799 3.4169 9.24929
9.34934 2.00773 8.90021
5.99665 9.09368 6.76318
0.629724 4.01965 8.07194
7.17972 7.2808 1.81247
8.82304 5.257 2.52312
2.2482 1.21652 9.15185
2.44257 5.86664 0.336503
4.52335 3.4388 1.14575
8.94704 8.50226 1.25337
3.03562 0.297034 0.919547
4.26583 3.23078 2.20122
0.298625 4.8717 7.56446
0.514038 7.36209 0.908241
4.28886 9.1336 6.83369
6.62687 9.7666 3.62546
7.90746 2.88636 1.33193
9.89582 0.890114 2.02164
1.17449 6.49499 2.55852
4.76415 4.87618 9.44602
9.9329 1.99557 3.93405
6.31128 0.848384 1.2414
3.46071 3.29661 5.1451
4.28579 0.199395 9.52959
7.3771 7.24871 0.0691198
8.67891 3.78714 8.28627
5.74522 5.07988 1.4434
0.503787 7.04661 0.358391
5.69844 0.572351 2.06754
4.41305 3.37206 5.5565
8.68008 0.669549 1.58574
8.97398 3.81691 4.79724
5.02576 9.6982 3.83968
0.94137 4.00087 9.30991
3.35828 9.97063 4.05996
3.6075 7.874 0.117407
7.09599 7.51922 1.56085
7.22775 5.89864 4.77633
4.9051 1.43954 2.55267
6.89536 0.846271 4.28525
5.14048 2.73859 1.38438
2.09399 0.6508 6.1888
9.45916 9.1381 1.05848
0.109422 2.71525 0.41268
7.16472 3.55273 1.33471
9.04399 6.21587 9.10448
3.07639 0.996287 2.64941
8.21862 8.17254 9.99578
0.672027 3.05616 7.74729
3.16123 4.04027 2.58739
0.673151 6.7123 4.77397
2.4904 7.21006 3.26465
6.31271 8.07839 4.11765
3.47197 0.35106 1.11006
8.62673 8.65949 7.05535
8.37258 0.540008 8.60156
9.38995 0.305912 9.867
9.12457 3.92283 6.22097
0.127761 8.54714 8.99608
5.72394 6.85275 9.92501
2.94399 0.81953 7.96708
8.65974 4.0547 8.36701
1.38839 6.52459 4.60838
3.26239 0.25912 1.26595
6.81801 6.71705 2.91651
9.90377 3.86659 6.34477
3.19834 0.499146 9.76722
8.38587 5.23481 3.08642
9.4531 8.70984 7.8725
3.26952 4.57639 2.80548
8.86131 8.33012 0.967589
4.32718 3.92825 9.46263
5.74652 6.19691 6.80264
2.85243 0.678893 0.437603
7.49 2.64113 9.43562
4.24433 3.14368 1.63368
0.18571 6.16571 1.90861
8.15491 7.31126 9.63824
0.540614 3.88098 8.93286
0.44329 5.89838 0.851963
8.55636 0.968538 3.23408
9.44269 2.20648 5.94162
5.3174 0.921223 9.41039
1.61109 3.05358 6.92188
0.351736 1.41686 9.53423
5.5597 0.371423 8.78692
2.22881 2.44208 1.56349
2.60822 0.577764 2.06459
8.41049 5.26203 7.82133
3.09351 0.534757 9.57009
8.12726 3.42217 4.3769
9.01289 2.19087 9.46337
5.8425 5.63829 6.5109
2.7409 0.712134 0.37721
3.99299 2.68304 8.67743
4.5544 9.94971 7.64891
7.86709 2.38371 9.73133
8.37108 2.99488 0.860765
3.17363 0.545527 1.269
0.720844 7.76646 0.308803
1.66222 1.86678 8.34148
9.77902 2.67522 6.66831
1.48986 4.68126 4.30065
3.61175 7.10024 7.70906
0.676761 3.78302 8.53675
3.01144 4.94341 9.09743
9.75405 2.68607 0.40056
0.280822 0.402633 5.06624
2.2373 1.01198 10
2.4009 1.21522 8.91161
4.84408 0.678113 7.80031
2.47547 4.59601 0.89159
2.16286 3.37334 1.28321
3.17779 0.315638 1.2142
3.70987 4.41941 4.48592
9.56753 0 0
5.92526 5.9881 9.71459
2.53522 0.775795 1.84476
2.27591 3.38475 7.93576
4.41262 0.441972 3.86921
6.41393 2.7099 0.322828
5.05025 2.43922 1.98798
7.01324 1.31988 3.22768
3.09829 0.441841 1.33448
1.25334 1.93863 9.58196
1.77266 2.79101 9.84816
2.9895 0.414848 1.34093
5.91904 5.68967 4.43164
5.89318 0.309406 1.83217
3.61144 7.5397 5.92088
3.26089 8.52788 7.74483
8.08909 7.17317 9.9203
0.282603 2.48058 2.01328
3.87743 0.526959 3.16297
8.30101 3.66573 9.72921
2.44981 3.75073 9.7622
0.859103 2.54914 7.95008
8.18693 2.0043 1.54683
8.3237 6.61521 6.18619
8.61922 6.37389 9.39109
3.52542 5.85223 6.49452
8.99681 7.01095 1.67114
5.80853 0 1.01545
3.11699 0.387881 0.777629
3.6557 7.91843 4.47586
3.8061 0.0353438 4.49957
6.68473 0.889134 2.46419
2.74218 0.843508 5.04272
6.12064 9.69411 1.42705
0.0126503 0.549369 8.82381
7.48676 0.219891 3.96305
2.54283 2.67041 1.76986
7.91059 3.34568 2.16274
3.53003 0.15424 1.3183
7.035 5.97809 0.498795
8.24196 6.30637 9.80177
5.22505 10 5.50748
6.31692 9.69512 1.02534
6.743 1.92101 2.90063
3.62989 0.212932 1.24962
1.41366 1.67889 8.70109
5.55762 0.252533 2.09178
2.33801 0.825663 1.81797
3.36047 0.220962 1.48938
3.58668 0.0882492 0.489596
6.66778 7.49012 5.10799
6.61326 1.4368 4.09106
4.06286 9.31963 4.35148
3.1478 0.159515 1.32886
0.882453 1.30566 0.601429
3.13267 0.617596 9.51498
3.51285 0.185673 0.548391
3.40477 0.165322 1.60274
3.48376 0.121381 0.876058
7.59437 0.9697 1.36973
3.12488 4.60619 8.36345
5.50028 0.752891 5.26623
6.6642 5.31664 6.94275
0.994693 1.96483 8.01053
3.35478 0.317778 0.707374
1.63187 0.266664 4.40653
7.58965 0.686634 5.79208
2.14342 2.57732 9.48285
3.35103 0.440283 1.17057
3.8104 0.368449 1.46072
3.06009 9.81689 9.16023
5.97311 2.62309 8.58232
6.31416 2.58678 9.09327
2.91028 0.0250175 8.82751
2.92054 0.24467 0.744762
2.69182 0.433266 0.741874
2.73366 5.49299 9.3885
2.68519 0.295321 0.82014
1.1364 4.18912 1.38413
1.48254 6.80071 8.89797
4.11907 2.16399 5.59118
3.15931 0.051882 0.230377
7.11165 7.39163 4.59548
4.29998 4.35226 6.30942
3.36936 5.66924 9.82551
3.13773 0.447006 0.825879
3.58218 0.475925 1.25105
10 9.49933 5.50563
0.882784 4.24607 7.56882
8.0637 1.22566 9.2246
0.509375 0.0360746 1.09474
3.24709 0.434307 1.38535
3.22558 0.418816 9.32124
3.32038 5.05294 9.77121
8.4501 4.16184 7.49839
0.394032 3.12457 4.54009
2.97582 0.756207 1.52572
5.81065 9.00867 9.66749
3.5852 0.114457 1.18958
3.54417 0.181224 1.38756
3.26012 0.257568 1.08941
3.04973 0.508278 0.922921
4.53608 0.183283 8.28527
2.98291 0 8.44196
3.15098 1.09768 5.31046
1.73723 1.30016 2.17965
7.82688 1.62679 9.13845
1.86717 1.09637 4.06863
3.94074 0.0700001 1.1588
6.57048 7.87416 2.07084
3.20186 0.39061 8.37611
3.25282 0.976121 8.76479
7.06117 0.809582 0.544633
3.40033 0.255017 1.90783
9.46877 2.64406 1.30273
3.07458 0.437597 9.20766
0.626611 6.13714 10
3.14613 0.376593 9.19675
3.35286 0.336142 1.34921
0.741362 2.92492 1.94393
5.60787 1.01849 5.57822
6.906 2.94096 1.57869
3.42166 0.743941 9.11413
7.86871 7.82547 8.07273
7.60884 0.034193 0.311759
3.37584 0.428541 9.45056
2.83805 3.93045 6.37636
2.83312 0.312459 1.1652
3.82959 0.492816 1.13351
6.65954 7.24563 4.67429
6.65517 5.04886 0.626376
4.05157 7.20125 2.04455
6.56066 2.46684 3.15449
4.19674 2.20242 5.94507
7.12073 5.75497 0.089444
9.41195 8.33506 6.38576
1.38606 8.59439 4.06701
3.26142 0.495782 1.13321
4.40877 0.691268 3.89178
7.13348 0.698835 0.447781
9.95413 2.48195 4.12713
8.35199 1.79147 5.06091
9.60477 9.5307 4.2828
7.51761 7.87831 5.99932
3.63886 0.491074 1.23964
3.62983 0.34055 7.36216
0 4.87879 7.13084
0.770889 9.47781 9.43843
0.644668 6.15034 0
8.02546 2.21137 1.61977
3.37151 0.178907 1.55265
0.963084 0.178115 6.56636
4.24224 0.0840392 8.08914
3.47757 0.687183 8.81866
3.45901 0.377319 1.04367
3.69497 0.326868 0.812139
4.70571 4.12601 4.78888
2.91016 0.287586 1.37616
9.67223 0.465971 8.10456
5.62097 0.934152 5.21945
9.31661 3.18425 10
6.28092 2.00441 0.600568
3.42724 0.282229 1.27883
0.870715 1.03394 6.27913
3.24168 0.276763 0.237633
3.08937 0.178737 1.26867
1.92477 1.04179 1.98501
6.8852 5.96266 0.346832
3.77359 1.48465 9.59143
0.77046 1.74042 1.95963
3.2688 3.75764 6.2327
3.05341 0.563469 1.28165
8.16039 0.867347 8.74648
2.48385 0.356179 5.54855
1.30359 2.50119 6.5146
0.145892 5.86703 9.92792
8.8703 1.77718 5.46538
4.451 5.095 0.778801
3.05265 0.13715 9.08476
0.527083 1.87087 0.94185
3.33949 0.279515 8.32161
3.91283 0.562267 1.31386
4.18201 0.74712 3.80372
3.81401 8.90003 0.249089
3.26903 0.153284 0.480764
6.15035 5.89555 8.85074
9.01967 9.97608 9.4292
3.39914 0.216633 1.45325
9.85195 2.29826 8.14279
2.71976 0.241409 1.09128
4.35819 0.776764 9.34124
3.2859 0.423731 1.32657
6.68965 0.715629 0.504141
4.94663 6.52007 4.93389
0.655773 6.35066 9.98179
3.33203 0.212521 1.19768
9.1876 6.43287 2.55263
7.48228 1.36883 9.45367
0.374479 1.37197 9.46478
8.14964 3.62565 9.38138
4.21599 0.849044 9.28775
3.20863 0.353624 9.23713
3.68856 0.241196 1.10271
3.24848 0.415408 1.60805
7.53185 0.546094 0.381905
3.39092 0.369237 1.26567
3.47171 0.523725 0.64258
7.97079 7.44555 9.98472
2.91948 0.747929 0.503529
3.10664 0.543958 1.19624
4.33233 0.167454 1.68287
3.36385 0.301422 8.86375
3.07596 0.45657 0.777144
3.59102 0.418815 0.972873
4.10737 0.861047 3.29264
4.07278 0.667711 8.77368
2.56035 0.344121 1.6885
3.40055 0.41186 1.68189
6.87261 0.626357 0.521693
3.08891 0.331511 9.17209
3.46176 0.538437 9.13821
3.23157 0.248868 1.33788
3.03329 0.0655531 0.859324
6.94008 1.26271 0.448905
3.22374 0.364864 9.40409
1.62497 3.10946 6.64608
3.40139 0.367671 9.54571
5.90436 1.06881 3.90369
6.90148 0.690333 0.500301
3.48518 5.93065 3.37976
4.19155 0.549971 9.51099
3.20267 0.697724 1.52072
3.84246 0.199277 0.86365
7.29347 0.832861 0.95112
3.28876 0.530277 8.33801
3.54401 0.661655 9.17762
4.07902 0.533937 9.29387
3.42691 0 1.30198
3.748 0.30292 1.52481
2.89505 0.250506 1.48858
4.16728 0.536053 9.27751
2.80741 0.00392735 1.20183
0.941679 0.922723 6.33711
3.4335 0.5086 9.32333
3.41409 0.29186 1.03454
3.32096 0.360375 1.29838
4.23155 9.96063 4.2983
6.74139 1.18767 0.537513
3.5688 0.0794467 1.5555
3.39574 0.229104 1.40468
3.73649 0.408815 9.31213
3.26585 0.520355 1.38861
0.665646 0.208618 6.17239
3.29241 0.317 9.48977
3.43524 0.262697 1.07655
2.74053 0.867888 4.95112
7.22175 0.932006 0.376789
6.87528 0.589324 0.444562
POINT_DATA 400
SCALARS particleColor float 3
LOOKUP_TABLE default
0 0.715529 1
1 0.914761 0
0.117877 1 0.882123
1 5.96046e-08 0
1 5.96046e-08 0
0.917378 1 0.0826222
1 0.0344645 0
0.428495 1 0.571505
1 0.472913 0
1 5.96046e-08 0
1 0.40532 0
1 0.737045 0
0.745972 1 0.254028
1 0.177572 0
1 5.96046e-08 0
1 0.752264 0
1 0.260798 0
0 0.423183 1
1 0.235838 0
1 5.96046e-08 0
0 0.4829 1
0 0.868858 1
1 0.378738 0
0.416147 1 0.583853
1 0.981639 0
1 5.96046e-08 0
0 0.971992 1
1 5.96046e-08 0
0 0.315361 1
1 0.638618 0
0.0861216 1 0.913878
0.91947 1 0.0805304
1 5.96046e-08 0
1 0.603967 0
0.735561 1 0.264439
1 5.96046e-08 0
1 0.448658 0
0 0.453108 1
0.282643 1 0.717357
1 0.330369 0
1 5.96046e-08 0
0.773027 1 0.226973
1 0.125769 0
0 0.956595 1
0.369218 1 0.630782
1 5.96046e-08 0
0 0.976988 1
1 0.303106 0
0 0.133326 1
1 5.96046e-08 0
0.968213 1 0.0317866
0.526462 1 0.473538
0 0.97009 1
0.998222 1 0.00177801
1 0.19899 0
0 0.488521 1
1 0.782841 0
0.364389 1 0.635611
0.564856 1 0.435144
0.0696826 1 0.930317
0.977784 1 0.0222159
1 0.318685 0
1 0.752693 0
1 5.96046e-08 0
0.436846 1 0.563154
1 5.96046e-08 0
0.295731 1 0.704269
1 5.96046e-08 0
0.328475 1 0.671525
0 0.724979 1
1 0.6333 0
1 0.618257 0
1 0.770653 0
0.170226 1 0.829774
0 0.793618 1
0.897856 1 0.102144
0 0.939506 1
0 0.771207 1
0 0.58063 1
0 0.871284 1
0 0.512079 1
0.0215701 1 0.97843
1 0.742351 0
1 5.96046e-08 0
0.221893 1 0.778107
0 0.768731 1
0.811855 1 0.188145
1 5.96046e-08 0
0.757193 1 0.242807
0 0.357869 1
0 0.621399 1
0.0119802 1 0.98802
0.115243 1 0.884757
0.0919574 1 0.908043
1 0.701396 0
0.39794 1 0.60206
1 5.96046e-08 0
1 0.256199 0
0.226251 1 0.773749
1 0.530893 0
0 0.756146 1
0 0.550857 1
0.672478 1 0.327522
1 0.994816 0
0 0.618488 1
0.628401 1 0.371599
0 0.884481 1
0 0.721436 1
0.422316 1 0.577684
1 0.417367 0
1 5.96046e-08 0
0.303783 1 0.696217
1 0.839029 0
0.450307 1 0.549693
0 0.377453 1
1 5.96046e-08 0
0 0.387694 1
0.83829 1 0.16171
0.56792 1 0.43208
1 0.916153 0
0 0.364506 1
1 5.96046e-08 0
1 0.799113 0
0 0.882566 1
1 0.612064 0
0 0.492229 1
1 0.989816 0
0 0.44877 1
0.253263 1 0.746737
0.0255721 1 0.974428
0.371957 1 0.628043
1 0.467834 0
0.600506 1 0.399494
0.460091 1 0.539909
0 0.472385 1
1 0.117909 0
1 5.96046e-08 0
0 0.625261 1
1 5.96046e-08 0
0.421158 1 0.578842
0 0.882947 1
1 5.96046e-08 0
1 5.96046e-08 0
1 0.884295 0
0 0.595652 1
1 0.914281 0
0.0724769 1 0.927523
0.802335 1 0.197665
0.581068 1 0.418932
0.455165 1 0.544835
0 0.357857 1
0 0.295738 1
0.499047 1 0.500953
0 0.795129 1
1 5.96046e-08 0
0 0.535144 1
1 0.953417 0
1 0.0770824 0
0 0.630188 1
1 5.96046e-08 0
0 0.738218 1
0 0.646284 1
0.307657 1 0.692343
0.453578 1 0.546422
0.789737 1 0.210263
1 5.96046e-08 0
0.325153 1 0.674847
1 5.96046e-08 0
1 0.841744 0
1 5.96046e-08 0
0 0.5448 1
0.361212 1 0.638788
0.959288 1 0.0407116
1 5.96046e-08 0
0 0.46693 1
1 0.659571 0
0 0.716346 1
0.942549 1 0.0574508
0.415037 1 0.584963
0 0.859967 1
0 0.508487 1
0.674436 1 0.325564
0.605989 1 0.394011
1 5.96046e-08 0
0 0.606863 1
0.640088 1 0.359912
0 0.90657 1
1 0.736219 0
0 0.585511 1
0 0.562691 1
0 0.401444 1
0 0.178443 1
0 0.94154 1
1 5.96046e-08 0
1 0.441406 0
0 0.710027 1
0.197884 1 0.802116
0 0.691574 1
0 0.256789 1
0 0.413397 1
0 0.494898 1
0 0.812998 1
0.348039 1 0.651961
0 0.650645 1
1 5.96046e-08 0
0 0.87017 1
0 0.705497 1
1 0.501051 0
0.586309 1 0.413691
0.911948 1 0.0880518
0 0.797909 1
0 0.699793 1
1 5.96046e-08 0
0.503673 1 0.496327
1 5.96046e-08 0
0 0.460245 1
0 0.628606 1
0 0.406454 1
1 0.978389 0
0.0436794 1 0.956321
1 5.96046e-08 0
1 0.86979 0
0 0.544545 1
0 0.426236 1
1 0.178616 0
1 5.96046e-08 0
0.328184 1 0.671816
0 0.93035 1
0 0.816183 1
1 5.96046e-08 0
1 0.244499 0
0 0.928258 1
0 0.385267 1
0 0.958359 1
0 0.285878 1
1 0.644318 0
0 0.96708 1
0 0.455005 1
0 0.343361 1
1 5.96046e-08 0
0 0.250955 1
0.243689 1 0.756311
0 0.537194 1
0 0.498391 1
0 0.44052 1
1 5.96046e-08 0
0 0.541528 1
0 0.773274 1
1 5.96046e-08 0
0 0.966109 1
0 0.696608 1
0.999627 1 0.000372648
0 0.820317 1
0.841503 1 0.158497
0 0.838044 1
0 0.246068 1
0.118841 1 0.881159
0 0.652717 1
0 0.809237 1
0 0.477716 1
0 0.741344 1
1 0.910787 0
0 0.574937 1
0.459878 1 0.540122
0 0.14001 1
0 0.747004 1
0 0.639468 1
0 0.798461 1
0.162626 1 0.837373
0 0.420029 1
0 0.408395 1
0 0.680601 1
1 5.96046e-08 0
0 0.756353 1
0.513042 1 0.486958
0 0.730727 1
0 0.85136 1
1 0.0796648 0
1 5.96046e-08 0
0 0.333277 1
0 0.548056 1
0 0.366665 1
0.0574346 1 0.942565
0 0.78181 1
0.161354 1 0.838646
1 5.96046e-08 0
0 0.376456 1
0 0.873096 1
1 5.96046e-08 0
1 5.96046e-08 0
1 5.96046e-08 0
0.714668 1 0.285332
0.465238 1 0.534762
0 0.329636 1
0 0.488061 1
0 0.739715 1
0 0.721712 1
0 0.520528 1
0.690585 1 0.309415
0 0.55976 1
1 0.601586 0
0.870449 1 0.129551
0 0.673295 1
0.968418 1 0.0315816
0 0.868511 1
0 0.560205 1
0 0.364371 1
0 0.644817 1
0.326663 1 0.673337
0 0.769955 1
0.50128 1 0.49872
0.269914 1 0.730086
0.285627 1 0.714373
0 0.27735 1
0 0.529953 1
0 0.44241 1
0.0498216 1 0.950178
0 0.852877 1
0.155883 1 0.844117
0 0.899802 1
0 0.541489 1
1 0.000187516 0
0 0.639065 1
0 0.526437 1
0 0.790947 1
0.139388 1 0.860612
0 0.535442 1
1 5.96046e-08 0
0.596265 1 0.403735
0 0.751121 1
0.49842 1 0.50158
0 0.530105 1
0 0.540631 1
0.267386 1 0.732614
0 0.375703 1
1 0.620972 0
0 0.803691 1
0 0.485946 1
1 0.301991 0
1 0.978772 0
0.812932 1 0.187068
0.226605 1 0.773395
0 0.5472 1
0 0.684079 1
0 0.217438 1
0 0.710923 1
0 0.485986 1
0 0.735842 1
0 0.579765 1
0.870375 1 0.129625
0 0.409533 1
0 0.481297 1
1 5.96046e-08 0
0 0.358461 1
0 0.733239 1
0 0.623314 1
0 0.384101 1
0 0.519966 1
0 0.449839 1
0 0.200354 1
0 0.424796 1
0 0.110728 1
0 0.286184 1
0.243316 1 0.756684
0 0.404786 1
0 0.887587 1
0 0.625558 1
1 0.888439 0
0.0229186 1 0.977081
1 5.96046e-08 0
0 0.376018 1
1 0.293747 0
0.0359768 1 0.964023
0 0.617384 1
0 0.744934 1
0 0.414734 1
0 0.519368 1
0.0964876 1 0.903512
0 0.520318 1
0 0.84806 1
0 0.462657 1
0 0.459828 1
0 0.472669 1
0 0.421016 1
0 0.674274 1
0 0.687692 1
0 0.757999 1
0 0.278594 1
1 0.0563998 0
0 0.200846 1
0 0.494134 1
0 0.601532 1
0 0.594752 1
0 0.810875 1
0 0.71138 1
0 0.518009 1
0 0.57726 1
0.23822 1 0.76178
0.0724327 1 0.927567
0 0.983931 1
