# vtk DataFile Version 3.0
Particle simulation
ASCII
DATASET POLYDATA
POINTS 400 float
4.4857 8.89217 0.684502
1.75554 3.07374 4.80678
5.04389 4.75302 3.26867
6.17198 9.24641 2.81053
8.90329 8.06749 6.59921
3.28793 5.66571 4.02155
6.04897 9.03274 5.02857
0.259036 0.76713 0.91032
2.06258 7.377 0.0907437
7.02581 2.95216 0
5.25621 4.1256 6.89087
8.96324 4.87013 7.76707
9.884 5.07855 2.1766
8.11533 9.69294 3.1158
3.44113 8.21128 7.65436
7.98362 4.28094 8.44724
9.81065 3.42001 0.396069
8.41604 8.41495 4.67176
1.44525 8.691 6.96661
6.76274 2.06674 0.427659
1.85551 3.06715 3.3124
6.56133 7.74848 4.77343
4.71712 7.23037 4.89772
7.23805 8.16025 5.03643
2.82525 8.91215 8.95635
7.98678 3.84173 9.80803
4.26899 6.69428 2.84879
1.99687 6.42722 4.90136
1.98813 0.377315 6.41272
8.15366 4.34617 7.85089
3.32937 2.53691 3.59636
7.99122 0.104242 7.02118
9.05036 0.709354 0.355502
7.20782 3.92461 0.434493
7.27858 1.46358 3.4415
0.397728 1.63257 3.14247
2.09431 3.06984 8.76825
1.94881 7.00484 7.0442
0.439749 1.48712 2.35916
0.159073 4.9669 5.89555
9.56623 1.21526 5.7638
6.75143 4.74122 2.11931
7.19837 7.09998 5.15295
5.61837 7.26131 4.55795
9.5622 4.78352 3.55219
2.9399 2.55104 0.73304
1.03126 7.94831 1.2153
1.47216 8.84413 3.32684
1.81568 3.22635 3.22136
0.418937 0.907484 9.1871
8.73339 1.87943 6.95509
4.49472 0.282413 9.52232
3.61513 5.93082 2.57361
2.17984 4.68998 0.489761
1.74976 4.29498 2.65348
0.894659 2.98744 2.74372
1.25283 3.3797 7.21571
8.77985 2.9202 4.99346
1.76214 1.18212 7.53101
2.68139 9.52129 3.55994
0.789696 5.46105 3.98137
0.166197 9.97107 9.94654
3.39145 1.0281 4.11526
5.4468 6.03704 2.86666
6.96132 7.89321 1.46063
2.661 9.24181 9.39246
4.72619 1.05984 0.041342
10 9.77727 3.90818
9.13583 5.36193 6.57653
1.89692 5.91386 7.4261
4.68704 4.67862 6.00282
6.49347 2.79924 7.51789
5.82893 1.82156 0.46016
6.93355 0.566632 5.28857
8.96091 2.66856 6.21229
3.36566 3.44296 1.97013
4.84897 5.0094 3.04454
6.63186 9.76736 2.65196
2.39361 9.73334 4.14182
7.88589 3.71634 4.22643
2.3621 7.60455 6.15319
6.98658 9.86595 5.09593
8.10867 1.24872 2.25883
0.387242 8.20801 7.92074
7.84282 2.60996 3.00579
2.44023 3.06182 6.21967
8.64563 2.18214 7.29154
6.11848 9.54818 0.765508
8.19956 0.68037 8.2488
7.03754 8.40353 8.84452
0.279391 7.8433 3.01356
1.08252 2.77296 1.05946
2.27913 9.29183 0.821255
6.54886 3.29003 7.15616
7.18888 10 0
2.87995 2.4599 3.85584
8.84451 5.77133 7.97981
5.85328 9.25304 3.51941
4.51507 1.27591 0.457609
9.7031 9.56082 9.25987
6.21837 4.53837 9.08016
9.19364 0.482375 7.83458
6.71367 4.79101 0
2.71639 0 9.04125
0.320207 3.51426 9.4584
0.733309 6.27853 4.18165
9.87706 7.8173 4.99213
0.770646 8.72299 4.32685
8.53201 5.89484 6.07503
5.36224 3.98522 6.45105
3.68904 0.499189 5.71889
8.96933 9.85923 8.76651
8.3675 1.06984 7.19491
8.86255 0.247159 4.19876
4.10447 7.96533 5.72138
0.163399 4.81031 1.48952
7.51388 4.69619 7.99724
7.18537 0 4.83083
1.32809 7.03775 1.40116
8.55448 2.9745 6.25999
0 3.01547 9.36452
10 10 1.42762
3.03525 9.55174 7.88701
5.68153 4.42105 6.53991
6.22034 1.17686 0.383723
1.06197 4.34268 0.261389
6.50005 0.0830104 8.23801
6.44123 2.17829 7.27142
9.73571 0.639663 4.68172
6.33839 0.330538 8.4417
7.98165 7.4697 1.64739
3.70425 4.50264 1.03396
0.252883 1.79136 6.83291
4.14553 8.80523 7.15063
1.23248 5.63309 1.23244
5.45227 8.3833 2.75439
8.09216 6.40675 3.35994
3.37982 4.0991 1.75343
3.59354 4.97302 0.334188
8.21343 3.55635 6.05871
8.52695 0 9.85526
4.58265 3.28653 8.06207
5.50753 4.96271 9.74497
4.51601 1.43955 0.971913
3.79672 4.87007 8.95454
8.1835 1.41568 0
4.32391 5.40284 8.72146
2.92495 1.46044 6.51748
6.22652 6.42444 0
6.33092 5.62563 6.53979
7.62474 0.353954 7.21233
2.31029 1.77308 4.31709
7.95315 1.3624 4.36805
6.40151 0.164457 0.41964
7.59894 1.02829 4.34557
1.37139 4.28324 8.2891
9.90925 5.85445 3.21159
7.10456 0.243754 5.2047
2.52767 4.00635 0.751465
0.292798 4.01923 5.99958
9.32716 1.18323 4.7097
9.81563 7.5474 0.837399
8.04588 9.37629 0.866169
3.13816 8.69803 5.38506
2.61471 5.94757 4.16629
1.92607 3.70391 0.728939
3.5527 3.26986 9.55949
0.140914 0.625556 9.84544
0.329207 1.0738 2.13256
7.72259 3.90264 9.21613
2.69385 1.18902 2.77184
4.89151 4.56957 6.18904
2.93551 0.773859 1.16659
5.60937 0.721089 7.25451
3.84745 6.37503 5.78581
1.01954 6.62591 8.44288
2.21743 2.95249 5.96082
2.02779 4.78054 6.8735
0.00601496 0.360668 7.16608
3.87244 9.62958 7.84407
0.197182 2.68352 7.58448
7.28594 7.3996 3.73282
2.39861 3.92907 3.79369
9.37689 5.69779 4.42355
6.06858 0.639065 0
4.04241 3.09623 4.15109
7.75688 0.32276 7.12424
3.17374 3.44437 2.48855
2.90148 8.83175 0.967039
6.83462 5.58769 4.91564
0.929272 8.88116 7.40046
0.416685 1.19302 8.96793
0.651049 5.72416 2.56567
6.99099 8.40493 0
4.62822 4.53473 3.50439
5.36222 7.3645 0.945611
8.23784 2.08893 2.7559
8.10424 9.59966 8.84394
7.08948 3.89348 2.36529
3.26527 6.50367 3.89042
7.55067 0.268577 5.80908
8.38931 7.6673 3.00748
3.1025 0.668838 5.62084
6.20802 4.83889 7.76816
2.33665 3.25457 1.09485
9.15537 5.83534 3.77308
1.30201 2.86333 0.497251
4.09528 9.25662 0.802668
1.76849 7.98487 3.66993
7.7809 1.69235 5.46093
6.49997 0.816474 7.72996
2.31414 4.41635 7.53645
8.70585 0.790246 0.598042
1.83659 3.66502 5.60107
5.46282 1.29493 8.72578
9.58401 6.06862 7.91418
5.99372 0.3532 8.78744
8.2909 6.14959 7.6496
1.84489 6.08761 0.984658
9.19126 1.87936 6.68937
1.21582 4.51291 7.75186
2.80564 8.85627 0.393072
4.9206 2.32477 7.77245
7.53582 0.130764 6.44687
8.83887 2.79384 9.68321
1.17222 9.18957 1.56569
0.787915 8.9663 7.70342
1.56628 2.81704 6.01835
7.40157 0.323985 7.15623
7.76235 0.918884 8.97875
7.7218 0.26229 2.80418
6.77089 2.15689 9.26124
7.58399 2.19051 2.42878
2.02135 1.14528 7.53923
1.99736 8.36706 10
7.96427 1.17375 3.14603
0.723041 4.67386 2.85273
1.81125 2.85225 8.65275
7.57887 0.312274 7.09863
1.18688 6.03473 8.58683
7.39496 0.286301 6.9525
4.23033 0.959144 6.74982
9.42028 6.17065 8.0568
4.89275 8.15949 3.19441
0 8.05777 1.92735
8.80812 8.59561 0.679743
1.75847 3.95904 8.99286
4.52913 5.02859 8.44368
1.70425 1.12079 9.89039
8.28218 7.92419 8.37512
7.00377 3.86622 2.59641
0.383059 0.458043 2.02564
9.72526 7.30884 6.88194
1.20446 5.9951 5.16863
9.63891 9.40405 9.466
1.26226 0.663371 0.520124
6.03033 6.78342 7.98102
8.72696 1.36806 4.74872
0 2.32846 8.91379
8.2124 9.79509 3.20284
9.5766 0.552475 2.46376
7.15195 8.15707 3.59329
4.87146 3.65746 9.48393
7.89472 8.77494 1.71764
10 3.95812 7.32277
7.83206 7.40697 2.49626
3.01787 1.15438 2.65237
3.99127 3.32124 4.94974
4.74189 8.84068 1.10333
0 4.93714 4.0548
10 0.0819745 2.78341
9.71293 1.82629 0.743681
4.17591 5.99805 7.11809
5.42338 0 1.18187
3.67681 0 6.2535
6.96153 6.46556 6.18995
5.06239 9.29864 4.37847
5.41745 0.694293 6.16974
6.83129 7.41727 3.76152
7.65497 0.406088 6.49203
7.62559 6.12316 0.814289
6.47301 2.87054 2.60116
5.02928 1.77326 8.58603
0 2.94149 6.99993
9.16261 9.28158 7.88993
6.92313 1.82044 0.289008
8.45465 0 8.32534
3.31814 7.73562 9.67474
8.13839 9.8433 0.195538
5.91554 9.01655 2.97725
5.40889 9.33024 3.4177
9.05916 2.90138 7.98008
9.52976 7.43779 4.87899
2.88259 2.91376 7.18161
0.665218 7.62526 3.09531
0.987224 0.0826667 8.79673
7.68448 0.27631 7.40284
7.61468 0.349069 6.11995
7.34068 0.438925 7.06176
7.22688 0.584577 7.14607
2.16726 8.36026 6.39816
7.34897 5.26079 8.6534
7.4363 0.509453 7.33479
1.78489 3.41414 8.79743
7.58249 0.402386 7.03128
2.52283 3.81715 8.16976
7.66157 0.422682 6.11459
7.39517 0.364552 7.23776
0.459385 9.51246 3.05277
3.16418 8.09999 9.96687
9.40678 6.88893 2.39506
2.7542 2.49037 4.87116
2.85711 0.608705 8.06868
7.68692 0.0110799 7.09844
3.19781 5.85362 2.92903
4.52526 4.85567 5.96095
9.67912 3.1383 5.76281
7.86311 0.781206 6.17607
9.31744 10 3.94372
3.36224 4.17441 8.6196
7.80246 5.99996 5.02399
0.60534 0.00884634 7.43858
0.952854 0.264047 8.6728
7.56877 0.308466 7.39332
7.12106 0.23988 7.28216
1.56699 7.58842 9.04584
7.45642 0.05819 6.20851
2.56317 0.539033 9.69408
7.87988 4.75544 2.03985
7.7354 0.26257 7.27949
2.13685 9.34099 2.3044
8.77711 2.49928 2.31943
5.95299 8.3553 1.01763
0.760538 0.558284 0.580054
1.80947 0.742313 9.96033
3.78301 5.34216 0.765542
7.16984 4.21673 2.96912
7.60823 0.229529 7.40874
7.43957 0.230605 9.40039
0.169039 8.25047 2.54397
9.8317 9.76536 1.45499
1.8417 7.4233 5.8696
7.83223 9.89978 1.72041
0.854011 0.3316 8.71953
7.1346 0.135246 7.46637
4.85966 0.935751 3.87623
9.45818 1.22318 1.96731
7.56406 0.148984 7.76125
7.29327 0.2982 7.10632
0.537607 4.77151 8.64044
7.34086 0.294378 6.82795
7.38143 0.524466 7.17107
0.495857 6.43014 3.07128
5.83688 3.58966 7.43617
4.27785 7.90207 4.73734
7.56738 0.513292 7.14121
6.68727 5.14869 5.09394
1.58531 0.364421 7.22731
7.7634 0.535029 6.10162
7.68703 0.247449 7.25933
1.48427 8.01157 10
0.650677 0.164817 8.98197
1.00843 0.120338 8.80991
7.59822 0.138259 7.00064
7.41184 0.192997 7.35767
4.65856 7.81981 5.73927
1.05618 0.377477 8.85316
0.953203 5.8166 0
5.32527 9.27034 8.83153
6.35112 7.0465 0.394317
9.77108 1.38564 1.54997
0.701968 4.81515 0
0.173237 0.675659 2.92421
7.10506 0.636087 7.04981
7.73951 0.0779332 7.51812
7.75466 0.256662 7.12494
1.08651 0.383108 8.74363
2.81929 2.43397 0.392448
2.76679 7.2197 9.46665
7.07825 0.905535 7.51207
7.44343 0.124267 6.92794
7.55936 0.375384 7.15266
6.09928 1.81679 7.0514
7.48751 0.464027 6.68823
1.52188 7.49856 6.66931
1.02639 0.250864 8.68474
7.66051 0.179779 6.68241
7.67253 0.340369 7.30845
7.18267 8.57708 2.04797
7.84446 7.70349 0.866515
7.0365 0.402682 7.01587
7.38713 0.10355 7.31989
3.70849 8.08313 3.35593
7.37095 0.47511 7.02979
4.13239 1.12824 0.888541
8.92018 6.73981 5.54324
7.70947 0.20507 7.20681
9.81127 7.75599 5.0718
0.860635 6.00494 7.83816
4.13858 1.80054 8.47152
POINT_DATA 400
SCALARS particleColor float 3
LOOKUP_TABLE default
0.869873 1 0.130127
0 0.613395 1
0.497361 1 0.502639
1 5.96046e-08 0
1 5.96046e-08 0
1 0.570251 0
1 0.108772 0
0.704234 1 0.295766
1 0.770496 0
0.396583 1 0.603417
1 0.42368 0
1 0.0969581 0
1 0.77523 0
1 5.96046e-08 0
1 5.96046e-08 0
0.245806 1 0.754194
1 0.244864 0
0.674637 1 0.325363
0.1472 1 0.8528
1 5.96046e-08 0
0.778472 1 0.221528
0.595274 1 0.404726
0.766812 1 0.233188
1 0.963134 0
1 5.96046e-08 0
0.742824 1 0.257176
1 5.96046e-08 0
1 5.96046e-08 0
1 0.570907 0
1 5.96046e-08 0
0.790356 1 0.209644
0 0.424196 1
1 0.674716 0
1 5.96046e-08 0
1 0.546266 0
1 5.96046e-08 0
1 5.96046e-08 0
1 0.610875 0
1 5.96046e-08 0
1 0.123974 0
1 5.96046e-08 0
1 0.293118 0
1 5.96046e-08 0
1 5.96046e-08 0
0.572223 1 0.427777
1 0.674608 0
1 5.96046e-08 0
0 0.905194 1
0.0222563 1 0.977744
1 0.14497 0
0 0.974507 1
1 5.96046e-08 0
1 0.813549 0
0.873266 1 0.126734
1 5.96046e-08 0
1 0.380688 0
1 5.96046e-08 0
0 0.979657 1
0 0.679501 1
0.699336 1 0.300664
1 0.0575485 0
1 0.458267 0
1 0.648423 0
1 0.63204 0
1 5.96046e-08 0
0 0.753792 1
0.61584 1 0.38416
1 0.220313 0
0.621085 1 0.378915
0 0.605752 1
1 0.326831 0
0.0665504 1 0.93345
1 0.269626 0
1 0.1053 0
1 5.96046e-08 0
0.778385 1 0.221615
0.0527236 1 0.947276
1 5.96046e-08 0
0.576382 1 0.423618
1 0.0807596 0
0.51916 1 0.48084
0.925773 1 0.0742266
1 5.96046e-08 0
1 5.96046e-08 0
1 5.96046e-08 0
1 5.96046e-08 0
0.0978781 1 0.902122
1 5.96046e-08 0
1 5.96046e-08 0
1 0.783683 0
1 5.96046e-08 0
0.473776 1 0.526224
1 5.96046e-08 0
1 0.950431 0
1 5.96046e-08 0
1 5.96046e-08 0
1 5.96046e-08 0
0.53976 1 0.46024
1 0.988113 0
1 5.96046e-08 0
1 0.366633 0
1 0.786518 0
1 0.347533 0
0.821692 1 0.178308
1 5.96046e-08 0
1 5.96046e-08 0
0 0.781915 1
1 5.96046e-08 0
0.951345 1 0.0486547
1 5.96046e-08 0
1 0.702058 0
1 5.96046e-08 0
0.0806748 1 0.919325
1 0.796768 0
1 0.894424 0
1 0.704208 0
0.795929 1 0.204071
0.36403 1 0.63597
1 0.685089 0
1 0.0876852 0
1 5.96046e-08 0
1 5.96046e-08 0
0.773644 1 0.226356
1 5.96046e-08 0
1 5.96046e-08 0
0.440868 1 0.559132
1 0.328483 0
0 0.840329 1
0.0228029 1 0.977197
1 0.702484 0
0.95974 1 0.0402604
1 0.507997 0
1 5.96046e-08 0
1 0.497158 0
1 5.96046e-08 0
1 5.96046e-08 0
0 0.917816 1
1 5.96046e-08 0
1 5.96046e-08 0
1 5.96046e-08 0
0 0.868367 1
1 0.444751 0
1 5.96046e-08 0
1 5.96046e-08 0
0.350991 1 0.649009
0.807011 1 0.192989
1 5.96046e-08 0
0.977358 1 0.022642
1 5.96046e-08 0
0.749289 1 0.250711
0 0.425356 1
0 0.969437 1
1 5.96046e-08 0
0.117877 1 0.882123
1 0.2988 0
0.980863 1 0.0191371
0 0.650664 1
1 5.96046e-08 0
0.706181 1 0.293819
1 0.448545 0
1 0.835176 0
0.798152 1 0.201848
0.580672 1 0.419328
0 0.57525 1
1 5.96046e-08 0
1 5.96046e-08 0
0.879654 1 0.120346
0.582571 1 0.417429
0.44499 1 0.55501
1 5.96046e-08 0
1 0.866832 0
1 5.96046e-08 0
1 5.96046e-08 0
0.336818 1 0.663182
1 0.816278 0
1 5.96046e-08 0
1 5.96046e-08 0
1 0.475097 0
0.840294 1 0.159706
1 5.96046e-08 0
0.675836 1 0.324164
1 5.96046e-08 0
1 5.96046e-08 0
1 0.427447 0
0 0.644388 1
1 0.920021 0
0 0.963593 1
1 5.96046e-08 0
0 0.688727 1
1 5.96046e-08 0
1 5.96046e-08 0
1 0.324562 0
0.850204 1 0.149796
1 5.96046e-08 0
1 5.96046e-08 0
1 0.853462 0
0.141956 1 0.858044
1 5.96046e-08 0
1 5.96046e-08 0
1 0.167146 0
0 0.610664 1
1 5.96046e-08 0
1 0.489225 0
1 0.686734 0
1 5.96046e-08 0
1 5.96046e-08 0
1 0.308584 0
0 0.815231 1
1 5.96046e-08 0
1 5.96046e-08 0
0 0.789767 1
1 5.96046e-08 0
1 5.96046e-08 0
1 5.96046e-08 0
1 5.96046e-08 0
0.539264 1 0.460736
0.438378 1 0.561622
1 0.99796 0
0.769894 1 0.230106
1 5.96046e-08 0
0.270552 1 0.729448
1 0.315221 0
0.673126 1 0.326874
0 0.367248 1
1 5.96046e-08 0
0.22208 1 0.77792
1 0.865531 0
1 5.96046e-08 0
0 0.510213 1
1 5.96046e-08 0
1 5.96046e-08 0
0 0.564207 1
0 0.132054 1
0.69471 1 0.30529
1 0.495191 0
1 5.96046e-08 0
1 0.770382 0
1 5.96046e-08 0
0 0.624893 1
1 5.96046e-08 0
0 0.9574 1
0 0.439537 1
0.537638 1 0.462362
0.108206 1 0.891794
0.411762 1 0.588238
1 5.96046e-08 0
0.404253 1 0.595747
1 5.96046e-08 0
0 0.96706 1
1 5.96046e-08 0
0.91348 1 0.0865205
0.0329927 1 0.967007
1 5.96046e-08 0
1 0.826737 0
0.933126 1 0.0668737
1 0.909197 0
1 0.893714 0
1 0.105522 0
0.878596 1 0.121404
0 0.945089 1
0.963763 1 0.0362375
1 0.143291 0
1 0.58409 0
1 0.573865 0
1 0.277463 0
0.127691 1 0.872309
1 0.621222 0
1 0.922528 0
0.855907 1 0.144093
1 5.96046e-08 0
1 5.96046e-08 0
1 0.649697 0
1 0.962554 0
1 5.96046e-08 0
1 5.96046e-08 0
1 5.96046e-08 0
1 5.96046e-08 0
1 5.96046e-08 0
1 5.96046e-08 0
0.00940643 1 0.990594
0.59071 1 0.40929
1 0.652184 0
1 0.516683 0
1 5.96046e-08 0
1 5.96046e-08 0
1 0.360913 0
1 0.853305 0
1 0.116345 0
0.332119 1 0.667881
1 5.96046e-08 0
0.932722 1 0.0672784
1 0.447356 0
0 0.641427 1
1 0.764278 0
0.193755 1 0.806245
0 0.831929 1
0 0.768149 1
0 0.637511 1
0 0.305262 1
0 0.133249 1
1 0.884567 0
1 0.699823 0
0 0.338948 1
0 0.896303 1
0 0.568525 1
0.581416 1 0.418584
0 0.355573 1
0 0.48192 1
1 0.235064 0
1 5.96046e-08 0
1 0.702384 0
1 5.96046e-08 0
1 0.891179 0
0 0.721105 1
1 0.248579 0
0.644826 1 0.355174
1 0.869818 0
0.094393 1 0.905607
1 5.96046e-08 0
1 0.208285 0
1 0.234044 0
1 0.896434 0
0 0.465146 1
0 0.469285 1
0 0.326336 1
1 0.119854 0
0 0.559821 1
1 0.938744 0
0.225492 1 0.774508
0 0.556984 1
0 0.910192 1
1 5.96046e-08 0
0.785179 1 0.214821
1 0.394078 0
0.862858 1 0.137142
1 0.628564 0
1 0.0753402 0
0 0.334403 1
1 5.96046e-08 0
0 0.988307 1
0.787533 1 0.212467
0 0.644829 1
0.363484 1 0.636516
0 0.260117 1
0 0.713298 1
0.20789 1 0.79211
0 0.821251 1
0 0.591267 1
0 0.815174 1
1 0.778087 0
0.0431582 1 0.956842
0 0.936834 1
0.734517 1 0.265483
1 0.848512 0
1 5.96046e-08 0
0 0.629818 1
1 5.96046e-08 0
1 0.0984009 0
0 0.743251 1
0 0.927159 1
1 5.96046e-08 0
0 0.484343 1
0 0.23017 1
0 0.480063 1
0 0.451276 1
1 5.96046e-08 0
0 0.691687 1
0.82011 1 0.17989
1 0.193808 0
0.587908 1 0.412092
0 0.571001 1
1 5.96046e-08 0
0 0.707312 1
0 0.970935 1
0 0.567207 1
0.806438 1 0.193562
0 0.575256 1
1 0.263014 0
1 0.764803 0
0 0.554188 1
0 0.819796 1
0 0.890724 1
0.49394 1 0.50606
0 0.394655 1
1 5.96046e-08 0
0 0.537258 1
0 0.583935 1
0 0.952901 1
1 5.96046e-08 0
1 0.794598 0
0 0.387404 1
0 0.598713 1
0.874811 1 0.125189
0 0.932065 1
1 0.874028 0
0 0.852751 1
0 0.583726 1
0.748384 1 0.251616
1 5.96046e-08 0
0 0.934719 1
