# vtk DataFile Version 3.0
Particle simulation
ASCII
DATASET POLYDATA
POINTS 400 float
5.53115 6.70025 0
0.998147 4.0843 3.13034
7.97011 4.09077 9.27081
8.14317 6.88272 0.732185
8.43839 6.34614 3.27251
8.54945 8.8512 5.53086
4.94103 0 3.47533
4.39192 2.75391 9.02437
0.784008 4.87981 0
0.12483 0.866664 5.21807
1.57182 1.62425 5.3969
2.78141 7.85201 7.93593
8.04368 8.30974 4.3791
6.71478 8.05184 4.82533
0.81569 5.72784 7.4855
1.23349 8.84755 6.72736
6.83749 5.68784 6.6166
3.92957 3.77611 5.65194
6.18268 7.5763 6.00618
2.34386 8.42351 1.88403
1.92276 9.01999 1.19421
7.89549 5.65621 1.28395
0.159224 6.75091 9.94604
3.22927 4.79194 0.207812
7.80298 6.09638 9.20397
6.69862 7.14025 0.711288
5.64594 5.28372 10
9.66245 3.4778 2.55922
8.08701 2.90132 5.95312
1.28111 1.91364 9.7835
3.36551 1.00505 3.81017
8.21206 1.90843 6.49419
4.11518 4.06041 7.40167
2.45522 5.63414 7.04298
9.14827 3.97339 4.42569
10 10 6.71888
6.97633 8.40446 9.10934
0 3.20818 3.54539
5.02558 2.08657 7.65294
8.2463 9.40615 6.99719
5.19318 6.21763 1.33457
2.17061 0 9.18866
9.75193 2.92761 8.56334
4.44649 0.834688 0.445042
3.50082 6.28125 7.39166
0.36965 2.35026 0.77439
3.99586 6.00126 0.366295
2.86701 3.23902 4.80861
2.6736 3.0276 5.66568
10 8.48101 9.85829
4.05203 7.23199 0.375534
4.34331 4.76655 0.103717
0.237282 1.04033 0.634565
0.646193 7.77496 1.84164
7.12947 8.44272 5.17381
7.98804 7.95907 2.53207
7.60122 7.569 3.04224
0.753153 1.12561 1.60652
3.87802 4.84274 5.51432
3.72178 7.02299 1.1649
7.9932 8.42379 6.55092
0.687394 4.83796 7.47067
9.32042 7.78899 7.11488
9.08945 2.75579 9.05937
10 8.51631 1.73986
3.11227 8.5585 1.58386
6.59654 3.60013 1.26307
5.7423 4.33494 8.28543
6.4854 0.808604 4.11282
6.6361 2.50124 6.58694
2.50822 5.79378 8.56852
1.95808 7.50798 3.64514
2.80912 0.26919 8.12037
0 8.51158 1.34807
3.39116 3.79541 5.49916
5.57803 5.59044 2.75058
4.46062 3.81518 7.69809
9.47309 8.07184 7.06204
7.10721 3.39798 9.05994
5.08509 1.16854 0
2.1389 8.14305 0.334186
6.28214 0.47424 6.46164
9.18787 8.80647 7.10615
4.03163 8.68381 3.05395
2.16011 4.31407 3.34338
3.20629 1.70718 4.39459
3.4946 5.13882 7.62079
3.17189 0.979701 5.83336
9.0702 7.20108 7.78861
0.503187 1.60059 4.90552
6.45985 6.45457 8.41665
4.21186 3.53182 6.7811
0.212678 7.45897 6.81406
7.71549 9.59567 1.71404
8.25429 1.47444 3.80263
2.39465 6.11481 10
7.43467 4.5695 7.43409
6.0473 0.819275 8.45257
9.21395 4.66809 4.20605
1.76269 2.52147 8.91447
0.774346 1.69066 0.120994
7.72841 5.07196 7.18157
6.01601 0.194599 7.44171
1.04034 8.30526 6.03171
0.606456 2.47411 1.52191
3.18575 3.24018 7.2259
0.545801 9.14278 7.36758
3.89769 3.66563 9.89052
8.18999 6.4801 4.50477
1.02963 0.216251 4.83556
3.01547 5.24659 2.34851
7.86774 1.82729 2.35604
8.65027 8.9088 0.764324
6.43494 2.37444 5.11489
2.05638 4.88971 9.41579
7.87879 2.90409 9.73632
1.88025 1.84894 6.04802
8.92736 3.86959 2.17511
1.63636 3.75136 8.22194
3.41975 6.10182 7.59779
8.52099 5.69506 8.6245
2.09111 7.27575 1.41529
9.97069 1.01001 8.90686
6.5703 7.70975 9.80912
7.81813 9.73602 2.83451
1.576 3.47321 10
4.62555 3.12894 4.39077
2.43609 1.49432 9.83954
0.533449 8.56944 9.85661
9.78416 3.95167 7.04562
9.28683 7.00764 1.70662
7.42792 1.2115 4.6753
6.50185 4.86707 2.71062
10 3.88993 6.42504
0 5.39256 9.83604
1.91888 4.88412 9.60827
7.8625 7.56334 9.66242
8.63117 8.49342 3.95202
1.79641 0.231166 5.27139
0.994644 7.14218 1.27688
6.02747 0.364808 5.63117
0.364522 1.8226 1.85059
8.42956 5.24972 0.67211
1.2492 6.6708 8.62693
1.35454 1.28893 1.71808
3.49347 1.1288 9.39562
0.167671 9.73664 4.41485
0 6.85654 1.91972
6.67161 8.58422 9.71843
5.1994 0.672573 0.418207
6.1586 0.522863 5.20726
7.29291 4.01459 6.4585
5.81453 6.8486 6.01478
10 5.55901 2.31075
7.18547 1.30437 4.16316
1.47887 8.6192 1.38093
9.35719 6.99306 0.894743
3.43792 5.70101 9.90387
8.60359 1.10645 8.4048
8.12441 5.48201 1.92452
9.64117 3.3461 4.9426
6.33912 5.0996 4.28644
0.962972 1.86701 8.1369
9.72627 6.11101 9.2154
2.96938 9.37741 6.01923
6.15658 0.139576 2.98497
3.68316 10 8.43931
3.71601 0.456871 0.941254
9.33153 6.67102 6.7245
8.21516 4.89712 0.40095
2.44223 3.19812 0.934258
4.07373 5.86151 1.75292
10 1.48679 2.26557
7.51956 6.83059 9.06059
2.99474 1.3685 7.63501
6.79455 4.6868 0
9.22611 1.59911 6.97817
1.04818 2.235 8.27691
8.70145 6.05653 7.43983
3.0273 0.225041 7.47383
8.95199 0.570417 7.47554
1.13206 3.7524 3.11381
9.26511 8.20627 5.14193
7.09923 3.24226 6.0318
8.76682 4.39239 0.255848
4.16061 5.65672 10
5.91818 0.315988 5.34069
8.20016 1.12645 8.35251
3.95706 9.75973 0.416215
8.56828 5.54362 4.24465
4.1417 5.65483 3.47575
1.93763 7.36857 7.83919
0 7.94334 7.69381
7.90691 2.99873 1.80023
4.25474 3.39366 6.46156
5.01143 6.67448 8.76836
0.352976 4.50835 5.79787
5.86892 9.854 0.681375
9.51168 1.68583 9.3909
3.78792 8.71727 8.13139
6.11474 0.416151 5.37965
2.79347 1.70225 0.877601
3.12092 1.94587 6.23838
8.45903 3.82922 1.02554
5.05897 6.89288 9.71244
9.42477 1.07609 0.858485
4.2945 4.52507 2.56948
3.60779 5.93365 3.08753
0.40974 8.74698 1.78909
9.23685 1.77169 7.67993
5.88016 0.513249 5.75909
7.18953 5.40698 2.49105
7.40764 1.52842 7.37731
1.27422 2.738 1.58802
9.5519 2.82169 8.16033
5.48842 9.68081 4.17861
8.0404 0.46913 4.71194
1.99607 5.35998 3.50308
3.64502 2.43628 9.70665
6.94097 9.04624 2.98334
7.48949 9.44475 6.3982
5.21549 8.92183 4.03753
5.29683 9.28126 9.30387
7.97498 0.41961 4.78434
6.67277 0.577557 4.01402
2.65725 8.49341 6.1886
4.13177 9.79745 2.13128
3.50609 3.27901 7.15206
5.74162 0.513395 5.47273
8.26369 0.925605 0.070188
3.55959 8.41893 5.72963
0.487187 6.17329 3.86106
2.61185 8.2584 5.95493
3.49385 4.02155 7.3195
2.15168 2.16993 0
6.15998 1.76147 9.77709
8.55748 0.406051 4.02513
6.2477 2.97096 8.37214
5.93504 0.368549 5.52807
1.86931 4.51634 4.61059
7.89687 0.358739 4.74584
3.38689 5.59625 5.07981
0.295039 0.666249 0.0762116
1.89664 7.19685 0.196876
10 3.4554 5.38946
8.60905 4.91926 5.6936
9.70644 5.46484 9.32559
1.48896 0.402902 7.79704
1.81168 9.14146 6.85377
9.80762 0.823459 3.68108
7.93469 0.342829 4.72859
9.7073 2.62627 8.1357
0.358738 1.72424 9.80623
2.09604 1.22497 7.43013
6.03092 0 3.51989
8.46609 9.61364 10
8.44167 3.92204 5.86378
2.7726 0.0863244 9.02016
1.36563 3.13464 8.14286
0.0707159 10 3.38154
6.3154 6.34768 3.22932
1.18439 6.30243 5.5764
2.84094 1.62416 10
4.70802 7.00877 6.52656
7.85893 7.1805 5.70122
5.97536 4.42187 5.42731
1.02062 2.12387 2.90309
1.73116 0.109621 1.6749
3.59976 4.55405 3.27723
1.96559 3.31695 7.90655
6.36236 0.0803139 5.41909
7.59162 0.940331 5.09912
8.85893 0.375716 5.6801
0.430297 8.24226 4.93121
1.83248 9.63667 3.706
7.06616 1.32948 5.44074
5.89415 8.05519 4.5144
4.895 2.62488 1.26011
3.38383 0.764374 3.64204
6.15521 0.507076 5.38617
7.93571 4.02685 4.6984
1.39844 3.61963 4.84951
3.73518 8.0423 9.01412
9.25667 2.27744 2.28052
0.888528 2.84278 8.93401
1.58344 8.52009 1.37328
4.89445 1.24939 5.74867
9.13249 7.69525 1.18802
2.91076 2.35725 6.71512
0.166199 0.336519 5.55093
1.70524 0.691714 2.5671
0.394846 4.70355 6.54103
7.15823 1.91445 5.69841
8.32059 3.93765 2.77487
4.51562 2.76559 7.43848
0.817027 0.260362 8.63833
6.18217 0.603692 5.13612
6.11309 0.595692 5.47668
5.9208 0.706537 5.28395
6.31276 0.467126 5.19631
2.54888 4.18949 1.83298
0.45271 3.53101 8.18454
6.00153 0.683342 5.30176
3.39065 5.03323 2.06553
5.99701 0.205325 5.80721
2.31344 7.87736 7.5378
6.17248 0.586809 5.22792
6.04078 0.374602 5.2832
8.20949 2.79664 1.66486
1.17852 3.03763 5.44458
1.87581 7.24569 7.17295
1.05038 9.88722 2.54471
2.35916 1.70779 7.60058
7.04421 0.545577 6.21305
8.85278 5.55732 2.37323
8.30746 7.47219 4.79469
5.23522 8.8156 7.85353
6.24908 8.54806 4.97371
0.0852076 5.71739 9.53617
0.845525 0.91334 4.5161
8.85738 8.30489 2.46294
6.87221 9.47114 2.5157
0.965992 0.314499 8.36986
5.88385 0.374246 5.39691
6.22231 0.992901 6.30626
1.58644 7.01741 3.18614
6.55888 0.318212 5.46672
0.0698757 9.51004 3.10343
3.48796 0.235686 8.46571
5.81446 0.498179 5.60588
3.86768 5.01323 9.16652
0 5.1039 3.6205
8.8647 4.51446 4.77284
9.81108 1.39398 8.63347
5.19132 7.36394 7.32313
2.99325 1.65933 8.63547
8.94144 5.54812 5.69807
5.87838 0.320895 5.36995
8.37231 0 3.5394
9.07101 2.59281 8.88484
7.07837 8.1567 1.6333
7.46624 5.00209 1.13379
8.59428 2.90708 8.25133
0.784481 0.154736 8.40457
5.73403 0.282183 5.51233
5.71798 0.943526 6.32552
9.58284 0.429826 8.50071
6.31739 0.552029 5.28778
5.61831 0.839406 5.32213
7.23183 6.02216 9.48361
5.50952 0.83137 5.77201
6.36704 0.499061 4.92748
6.40279 6.61345 0.442483
9.53212 4.34157 5.42231
0 0.926145 5.12152
5.56173 0.588941 5.2374
2.79577 4.45267 9.47375
6.56993 2.38257 2.3615
6.02748 0.643198 5.82434
5.84723 0.186185 5.30027
6.41233 5.0605 1.1532
0.895485 0.0748007 8.62049
0.972536 0.32678 8.56812
5.68455 0.250845 5.47505
6.06507 0.463753 5.64763
6.66792 6.79519 3.41319
0.837917 0.179339 8.46517
9.81253 0.882964 0.836044
0.410135 0.234518 9.03795
4.64497 3.43429 5.31872
9.36639 0.766953 8.6472
6.09661 0.94286 9.02532
0.167097 5.75514 0.841122
6.39466 0.526003 4.87599
5.78319 0.333688 5.36721
9.84936 0.566245 8.18098
0.872246 0.215301 8.50991
3.0562 0.0239396 9.01795
7.34798 1.79146 8.15749
7.83058 0.364548 4.9914
5.81512 0.234954 5.1876
5.74513 0.651829 5.33032
5.38632 2.31679 7.89842
5.80695 0.129312 5.55802
8.62082 6.14559 4.68981
0.894731 0.239634 8.63202
6.34835 0.386019 5.59183
6.27406 0.607595 5.45256
1.98323 7.88392 2.35467
0.176538 4.67227 5.22988
6.07053 0.726156 5.42794
5.82568 0.615677 5.53008
2.86512 0.0506504 8.87547
5.79573 0.152263 5.66475
8.59186 2.5564 6.26418
3.1464 0.308586 8.8849
5.89512 0.309625 5.03585
2.44755 0.746466 8.70236
1.55344 4.60869 7.10563
1.13629 8.59247 4.11902
POINT_DATA 400
SCALARS particleColor float 3
LOOKUP_TABLE default
1 5.96046e-08 0
1 5.96046e-08 0
0.661742 1 0.338258
0 0.597124 1
1 5.96046e-08 0
1 5.96046e-08 0
1 0.755491 0
0.653938 1 0.346062
1 5.96046e-08 0
0 0.863449 1
1 0.876369 0
0.744022 1 0.255978
0.425909 1 0.574091
1 0.590079 0
1 0.41067 0
1 0.507223 0
1 5.96046e-08 0
1 5.96046e-08 0
0.943645 1 0.0563555
0.3133 1 0.6867
1 5.96046e-08 0
1 5.96046e-08 0
1 5.96046e-08 0
0.399271 1 0.600729
0.997422 1 0.00257778
1 5.96046e-08 0
1 5.96046e-08 0
0.559526 1 0.440474
0.748706 1 0.251294
0.157963 1 0.842037
1 0.111207 0
1 5.96046e-08 0
1 5.96046e-08 0
1 0.909446 0
1 5.96046e-08 0
1 5.96046e-08 0
0 0.829916 1
0.683859 1 0.316141
0.216317 1 0.783683
0.130416 1 0.869584
1 5.96046e-08 0
1 5.96046e-08 0
1 5.96046e-08 0
1 5.96046e-08 0
0.120861 1 0.879139
1 0.657589 0
1 0.129145 0
0.660897 1 0.339103
1 5.96046e-08 0
1 5.96046e-08 0
1 0.394655 0
1 5.96046e-08 0
1 0.880386 0
1 0.368221 0
1 0.321082 0
1 0.855976 0
1 5.96046e-08 0
0.44611 1 0.55389
1 0.354807 0
0 0.811289 1
1 5.96046e-08 0
0.374975 1 0.625025
1 5.96046e-08 0
1 5.96046e-08 0
1 5.96046e-08 0
0 0.655967 1
1 5.96046e-08 0
1 0.686798 0
1 5.96046e-08 0
1 0.960937 0
1 5.96046e-08 0
1 5.96046e-08 0
0.346872 1 0.653128
0.127854 1 0.872146
0.125109 1 0.874891
0.461136 1 0.538864
1 5.96046e-08 0
0.797514 1 0.202486
0.55737 1 0.44263
1 5.96046e-08 0
0.331581 1 0.668419
0.87439 1 0.12561
0 0.884473 1
0.639917 1 0.360083
0.818809 1 0.181191
0 0.689785 1
0.513889 1 0.486111
1 0.386797 0
0.880361 1 0.119639
0 0.538602 1
1 0.338857 0
1 0.162964 0
1 0.210103 0
1 0.561234 0
0 0.962863 1
1 5.96046e-08 0
1 5.96046e-08 0
1 0.650653 0
0.954359 1 0.0456405
1 5.96046e-08 0
1 0.065071 0
1 5.96046e-08 0
0.113873 1 0.886127
1 5.96046e-08 0
0.996057 1 0.00394255
1 5.96046e-08 0
1 0.743986 0
0.324198 1 0.675802
0.2686 1 0.7314
0.72091 1 0.27909
1 0.913111 0
0.795016 1 0.204984
1 0.761648 0
1 0.294836 0
0.231332 1 0.768668
0.991513 1 0.00848716
1 0.0102475 0
0 0.745916 1
1 5.96046e-08 0
1 5.96046e-08 0
0.0807169 1 0.919283
1 5.96046e-08 0
0.36979 1 0.63021
1 5.96046e-08 0
0.940641 1 0.059359
1 5.96046e-08 0
0.819068 1 0.180932
0.761992 1 0.238008
1 5.96046e-08 0
1 5.96046e-08 0
0.896028 1 0.103972
1 0.45325 0
0.926376 1 0.0736237
1 5.96046e-08 0
1 0.967702 0
1 5.96046e-08 0
1 5.96046e-08 0
0.303655 1 0.696345
0 0.355463 1
1 5.96046e-08 0
0 0.58571 1
1 0.043568 0
0.498699 1 0.501301
1 5.96046e-08 0
1 5.96046e-08 0
0.22707 1 0.77293
0.270044 1 0.729956
1 5.96046e-08 0
1 5.96046e-08 0
1 5.96046e-08 0
0 0.590096 1
0.191848 1 0.808152
1 5.96046e-08 0
1 5.96046e-08 0
0.544572 1 0.455428
1 0.725889 0
0.778093 1 0.221907
1 0.640263 0
0.592955 1 0.407045
1 0.635073 0
0.56962 1 0.43038
1 5.96046e-08 0
1 0.0703995 0
0.76886 1 0.23114
0.752999 1 0.247001
0 0.549501 1
1 5.96046e-08 0
1 0.2974 0
0.556359 1 0.443641
0.228727 1 0.771273
1 0.982487 0
1 5.96046e-08 0
1 0.901076 0
1 5.96046e-08 0
1 5.96046e-08 0
1 0.0815974 0
1 5.96046e-08 0
0.584948 1 0.415052
1 0.108466 0
1 0.482243 0
0.62978 1 0.37022
0.717014 1 0.282986
0.961661 1 0.0383388
1 5.96046e-08 0
1 0.274796 0
1 0.0612788 0
0 0.334505 1
0 0.782227 1
1 5.96046e-08 0
1 5.96046e-08 0
0.920469 1 0.079531
1 5.96046e-08 0
0.119874 1 0.880126
1 0.775814 0
1 5.96046e-08 0
1 5.96046e-08 0
0 0.916038 1
0.487007 1 0.512993
0 0.616788 1
1 5.96046e-08 0
0 0.35351 1
1 5.96046e-08 0
1 0.26082 0
1 5.96046e-08 0
1 0.190991 0
1 5.96046e-08 0
1 5.96046e-08 0
1 5.96046e-08 0
0.834097 1 0.165903
1 0.806614 0
0 0.645738 1
1 5.96046e-08 0
1 5.96046e-08 0
0 0.753039 1
1 0.939179 0
0.871132 1 0.128868
0 0.913262 1
0.766729 1 0.233271
1 5.96046e-08 0
1 5.96046e-08 0
1 0.244404 0
1 5.96046e-08 0
1 0.678866 0
0 0.383063 1
0.526621 1 0.473379
1 0.522006 0
1 0.324732 0
0.126404 1 0.873596
0 0.403043 1
1 0.0190943 0
0.0713197 1 0.92868
0.895303 1 0.104697
0.0443725 1 0.955628
0.111031 1 0.888969
0.93132 1 0.0686805
0.123714 1 0.876286
0.822416 1 0.177584
1 0.093315 0
0 0.443423 1
1 5.96046e-08 0
0 0.414147 1
1 5.96046e-08 0
1 5.96046e-08 0
1 0.182102 0
0.668061 1 0.331939
0.757507 1 0.242493
0.214909 1 0.785091
1 0.623118 0
0.816868 1 0.183132
0.626038 1 0.373962
0 0.810801 1
0.735539 1 0.264461
1 5.96046e-08 0
1 5.96046e-08 0
1 5.96046e-08 0
1 5.96046e-08 0
1 5.96046e-08 0
0 0.512482 1
1 0.268523 0
1 5.96046e-08 0
0.23064 1 0.76936
1 5.96046e-08 0
1 5.96046e-08 0
1 5.96046e-08 0
0.0898041 1 0.910196
0 0.858214 1
0.265168 1 0.734832
1 5.96046e-08 0
1 0.478657 0
1 0.0334998 0
0 0.793013 1
0.678227 1 0.321773
1 5.96046e-08 0
0.230473 1 0.769527
1 0.526411 0
0.02451 1 0.97549
1 5.96046e-08 0
1 5.96046e-08 0
1 5.96046e-08 0
0 0.868327 1
1 5.96046e-08 0
1 5.96046e-08 0
1 5.96046e-08 0
1 0.419158 0
0.395473 1 0.604527
0.876897 1 0.123103
0.105074 1 0.894926
1 5.96046e-08 0
1 0.421357 0
0.217071 1 0.782929
1 0.390909 0
1 0.935102 0
1 0.81412 0
0.650119 1 0.349881
1 5.96046e-08 0
0 0.539586 1
0 0.610438 1
0 0.454259 1
0 0.92977 1
0 0.651221 1
1 0.93409 0
1 0.326823 0
0 0.425221 1
1 0.0708897 0
0 0.856285 1
1 0.719101 0
0 0.673087 1
0 0.0613613 1
1 0.981525 0
0.421435 1 0.578565
0 0.889786 1
1 0.0850253 0
1 0.228069 0
0 0.242719 1
1 5.96046e-08 0
1 0.262711 0
1 0.193783 0
1 0.981657 0
0.794441 1 0.205559
1 5.96046e-08 0
1 5.96046e-08 0
0 0.95486 1
0 0.390798 1
0 0.25629 1
0 0.218117 1
0 0.70818 1
0 0.587272 1
1 0.362524 0
0 0.722352 1
0 0.311986 1
0.926544 1 0.0734557
1 0.993281 0
0.962201 1 0.0377989
1 0.347434 0
1 5.96046e-08 0
1 5.96046e-08 0
1 0.88402 0
0 0.315524 1
1 5.96046e-08 0
1 0.929282 0
1 5.96046e-08 0
0.142547 1 0.857453
1 5.96046e-08 0
0 0.550489 1
0 0.985932 1
0 0.26534 1
0 0.723769 1
0.0743734 1 0.925627
0 0.636184 1
1 5.96046e-08 0
0 0.402897 1
0 0.78964 1
1 0.806535 0
1 0.199891 0
0.976275 1 0.0237246
0 0.575911 1
1 0.798937 0
1 5.96046e-08 0
0 0.740708 1
0 0.667692 1
0.0912895 1 0.908711
0 0.639291 1
0 0.609152 1
0 0.809077 1
0 0.45676 1
1 5.96046e-08 0
0 0.320342 1
1 5.96046e-08 0
0 0.61622 1
1 5.96046e-08 0
0 0.795735 1
0.923544 1 0.076456
0.670156 1 0.329844
0 0.681219 1
0.189197 1 0.810803
0 0.79595 1
0 0.521113 1
0.100231 1 0.899769
0.869476 1 0.130524
0 0.877204 1
0 0.725977 1
0 0.18533 1
1 5.96046e-08 0
0 0.743329 1
1 5.96046e-08 0
0 0.520565 1
0 0.597196 1
0 0.225889 1
1 5.96046e-08 0
0.310433 1 0.689567
0 0.826425 1
0 0.887472 1
0 0.4104 1
0 0.642993 1
1 0.312982 0
0 0.527404 1
0 0.195172 1
1 0.542485 0
0.532058 1 0.467942
0.331598 1 0.668402
