# vtk DataFile Version 3.0
Particle simulation
ASCII
DATASET POLYDATA
POINTS 400 float
1.85947 5.45064 8.80276
0.268444 8.09383 6.39246
9.734 5.13245 7.71678
8.59151 4.81768 1.33957
4.94149 9.17888 5.11437
6.70317 5.52428 4.02156
9.49594 3.48172 7.85297
3.89442 1.69454 7.26492
9.64755 8.05152 2.78916
2.90953 0.770645 6.71733
4.51159 1.15377 6.09902
6.88439 6.06338 7.29725
8.13694 9.87066 6.50113
6.59347 8.26702 9.85025
4.56881 7.77069 8.64379
2.41836 6.42009 8.7389
0.691031 0 6.97683
6.01997 0.0131099 5.27664
10 9.73838 0
0.603132 9.69058 1.87657
1.32938 2.99648 6.37184
9.72301 7.61375 8.52652
4.68899 0 3.1205
5.79254 7.80338 2.66329
7.63905 2.04077 5.31559
0 3.58165 4.42473
10 5.07458 2.05543
7.66852 6.76111 0.972538
6.74808 2.94551 8.47162
0.295563 1.19867 9.12185
1.00682 0.540463 0.7088
8.73295 4.59185 5.67126
3.08267 8.89794 8.47554
2.11267 6.6856 8.28863
6.19247 8.30808 9.09132
0.718344 6.51314 0.701935
7.76495 4.75432 9.97795
4.32548 0.619718 6.55202
7.21726 3.04886 8.60208
6.48256 9.90852 5.37043
1.47657 7.72691 8.65571
10 0 0
9.41504 1.06463 0
1.09262 1.72993 5.30264
1.76926 6.94947 8.97031
6.69883 2.43847 0.290937
2.34856 2.27724 8.07651
0.0696334 1.34831 7.65248
9.2591 9.55573 8.26328
0 5.82794 0
5.33704 5.88076 0.470178
0.926064 7.8684 10
0.91329 1.48357 5.60801
0.810189 6.2356 8.57622
9.40689 8.49028 7.81847
6.50209 4.96205 1.3786
0.17433 0 9.09167
0.271874 1.34745 1.74715
9.78724 3.78592 0.477072
2.87771 4.03955 1.30039
7.54126 2.05117 5.12704
0.336423 3.70504 4.28572
2.03503 3.53409 1.81182
8.55674 6.61185 7.52469
0.480539 1.43296 4.56103
2.36136 9.06209 0.646032
6.38472 10 6.07574
7.64031 2.86385 2.65423
4.32024 9.34396 6.875
9.3988 5.37683 5.1873
1.30182 2.12657 4.77372
10 8.25432 4.53554
1.54459 1.7798 8.99037
4.15019 9.38823 1.35707
0.888743 4.18647 7.9789
9.90617 6.77413 4.79605
2.25019 8.93861 8.75214
8.63578 6.13096 6.92522
4.03509 4.21735 7.20441
3.36385 8.93495 10
3.29068 3.86831 1.80701
9.28519 0.451175 3.0831
8.5855 8.14669 7.882
3.86399 8.62865 1.17415
3.65372 5.78724 0.96923
5.92444 0.360008 2.65424
6.65843 1.71243 8.79781
2.88919 0.526695 8.2785
5.15273 3.23028 7.01394
0.761757 0.143055 8.21751
0.29196 5.86609 9.50485
4.94201 5.67473 2.16008
4.40819 1.45671 8.1271
2.09892 9.34925 5.71611
8.65025 1.37016 3.68071
9.35492 2.2033 6.99899
6.76224 5.8363 8.49685
3.91279 1.24007 6.92478
7.92338 4.12834 5.15195
7.62723 6.3652 3.97638
2.84452 5.39981 4.68198
6.44288 8.95765 8.16781
5.32112 0.869503 3.97957
7.44651 0 2.59047
5.07232 2.92198 5.71699
6.20146 0.856177 3.79159
1.76054 4.98556 5.96054
1.49669 1.43634 7.10898
8.90156 8.26557 4.2666
3.8248 1.49529 5.55444
5.17086 8.17426 5.64964
9.03223 0.293014 3.71094
5.72796 6.37505 5.61423
0.340274 6.74299 6.26549
2.05036 6.56779 8.83482
7.81087 3.19005 5.24619
9.20624 1.20582 8.4465
9.33357 3.53669 1.74261
5.3834 0.733232 4.25507
1.76803 3.77981 7.72636
8.73673 6.20085 9.37833
8.85157 2.97431 2.60228
5.14845 1.22544 9.88521
4.82783 4.50332 9.29332
9.32835 7.85726 7.48075
0.219015 1.59108 2.55209
6.28588 0.978113 9.0127
1.28009 3.26432 5.95053
4.45166 4.24915 1.28095
3.04813 2.9468 1.91725
6.65399 9.13525 3.57237
9.84184 1.26852 10
9.21881 5.46239 1.19357
10 1.25032 5.67556
4.10471 3.77911 5.63572
4.37748 8.31374 8.71482
5.64833 9.05665 4.55217
8.40915 9.94293 0.992483
4.22533 1.3501 5.708
7.42999 0 1.62909
5.80886 0.351465 5.2469
6.69948 0.210622 0.859674
8.55547 4.77623 2.37662
2.05347 1.65833 9.66714
6.28946 4.07093 9.25075
0.220092 2.21485 5.71721
1.92658 8.43054 3.50196
3.65635 1.39566 10
6.44629 1.27855 8.53349
3.06337 4.77437 1.09652
5.81467 0.354973 4.9849
8.33314 6.87863 7.34679
8.60936 7.10659 0.857842
9.07146 5.70103 8.81789
5.20438 1.63637 8.1338
2.96652 9.45741 5.95636
7.01401 9.14506 1.47152
6.4865 0.233376 8.64244
9.76173 1.97566 9.57914
7.77212 9.81885 1.21894
9.6658 7.59767 6.99458
5.593 2.58574 5.10558
8.07752 1.01401 8.42876
5.91787 9.23673 8.1028
5.45458 6.62877 2.84521
6.10072 0.479044 0.458832
6.96155 4.25247 2.1954
5.86549 3.68267 2.40304
8.03752 3.5826 4.36487
9.13576 7.73648 0.102191
0.0692161 0.607677 3.80199
9.63246 1.31738 0.617855
3.36056 3.90863 0.447319
4.24779 0.704838 5.86482
8.86305 4.52152 2.7187
2.4909 10 7.64823
2.54428 1.71531 9.81742
5.6139 0.504913 10
9.30909 0.0215193 8.3629
1.52958 6.18053 3.95491
7.58331 0.554156 8.65798
3.94054 0.632586 5.67356
7.73014 9.30405 3.644
1.84434 7.48505 0
9.25007 1.78669 2.93864
7.38541 8.52795 3.67686
5.52363 0.250071 5.12875
9.20305 2.1977 9.28858
9.3814 5.12386 0.315274
8.0714 0.351434 6.18266
5.90128 7.00606 8.21575
3.75149 1.04984 4.38739
3.37829 7.79772 6.87252
6.43843 6.02477 2.64743
10 9.13191 0.950987
1.70487 8.45661 3.56178
1.27436 2.13095 4.7965
8.94986 5.77534 2.83642
8.97643 0.924743 9.32399
3.93211 2.68088 9.59344
5.73105 0.338801 5.1478
9.12235 8.17525 7.38179
1.04354 1.31736 4.68653
10 2.60867 6.35889
6.83068 6.13898 2.4035
8.34399 3.05005 3.25077
2.56202 3.13596 7.85947
0.464264 0.7214 0.551509
4.5969 9.13362 1.45691
9.4112 7.4455 9.53582
5.79587 0.379745 5.14789
0.894829 1.18931 2.56463
3.53951 4.80791 8.68167
1.76636 1.61479 2.76699
5.71623 0.187538 4.98559
5.3748 9.74558 0.663504
6.5936 0.277206 5.03243
3.95258 7.22915 7.88087
8.30967 2.55425 5.76167
0 10 10
9.51242 4.9335 7.77478
6.25782 1.32635 8.56707
8.84306 7.45935 6.20542
6.76688 0.488844 4.81582
5.39837 2.59703 1.18281
1.08723 8.03048 9.41127
0.308085 9.11093 1.64467
4.04538 2.17185 7.49258
5.64792 0.463013 5.0373
3.57765 2.1188 5.76667
5.18155 9.6603 7.26043
2.01206 6.13343 8.81454
4.1967 4.8073 6.0554
3.88283 2.16796 7.56505
0.35919 6.11886 3.25785
7.69224 3.71868 8.94648
5.57502 2.08802 8.56828
7.49812 8.78333 8.32533
5.51464 0.304991 5.18244
4.59665 3.69229 9.00159
6.84269 0.457446 4.98544
5.23528 0.892743 1.50185
1.41735 3.15297 5.15333
0.774601 9.37002 0.215112
9.77685 5.01811 5.56881
4.86597 5.67741 8.59642
8.46768 3.00862 6.6892
3.29831 2.23571 5.45318
1.34417 5.46207 3.24747
7.44505 0 0
6.61119 0.472124 4.96368
6.0281 0.275659 4.87868
3.19874 7.5266 5.79009
9.91581 3.64822 8.79979
0.737626 1.17826 3.26489
9.75229 5.1303 0.559818
6.97133 4.28448 1.46433
2.12828 1.05207 8.14318
2.14072 6.5239 6.89477
5.02119 3.45839 3.05936
5.52562 1.13063 1.04159
7.80779 9.0818 3.8874
6.70184 1.30507 8.45686
5.64589 0 2.56025
7.29159 9.64413 9.29204
6.30839 1.46494 2.52535
0.286253 2.06966 3.43261
7.82977 7.02241 1.16083
2.64045 9.61657 4.38042
0.655425 6.89157 8.60295
5.45292 0.249792 5.26617
7.87894 0.305061 1.22662
9.82991 4.0571 2.50726
0.816787 6.72633 6.71045
0.614414 6.21547 8.20294
5.82739 0.251281 3.38689
5.96683 8.45241 0.672406
1.21774 9.29483 8.77468
1.31821 1.30239 1.53857
5.44014 0.447521 5.55607
5.58141 5.42127 2.2435
2.69211 0.920247 8.03932
5.46895 8.66247 4.77941
4.11367 4.39659 7.58668
1.3737 4.24035 9.19815
0.524185 4.84602 5.18275
6.4339 0.340724 4.84889
4.90463 8.40346 9.41779
6.92242 6.43284 8.32225
2.1825 0.120046 7.91438
8.40079 0.971466 6.84815
4.83129 3.55197 9.20895
7.74725 0.895716 1.28092
3.92107 1.10186 0.776576
8.1944 7.25445 2.8321
1.38508 0.232773 8.5806
5.28258 0.554917 5.41142
5.36401 0.542132 5.38014
5.57625 0.296835 5.47063
5.39151 0.462114 4.92428
4.29073 9.68998 1.26842
4.68291 0.466962 3.74005
5.32601 0.7563 5.13735
0.181294 0.28799 5.55848
6.00345 0.269501 5.0671
1.88134 5.09982 8.08436
5.8269 0.405323 4.9098
5.6401 0.403644 5.01993
10 7.03374 1.078
1.31009 4.53927 8.71202
1.13572 7.16046 7.57204
3.65488 7.84477 8.38681
0.594599 0.660293 7.33011
6.5352 0.55024 4.54372
8.08673 2.89528 3.01442
6.01051 7.51066 7.94356
9.02901 4.50747 6.19737
9.13206 9.82155 0.911272
4.09458 4.24739 5.26387
7.28848 0.923178 10
4.51592 3.6633 3.11322
8.6774 9.86445 1.43163
1.18852 0.343706 8.38697
5.4899 0.462686 5.08647
5.51947 0.152285 4.81845
0.200677 7.27943 0.670156
5.37586 0.488189 5.44952
4.74977 4.0351 6.67421
2.32193 0.860108 8.08108
5.73173 0.36524 4.92868
0.952045 7.82982 7.64984
0.383915 9.74655 1.97825
6.90545 2.74272 3.71468
6.18332 5.79608 9.42926
9.63405 1.44411 9.33256
1.91356 7.89167 1.11368
4.99635 6.15363 8.91352
5.4513 0.364306 5.06578
0.321991 6.13779 9.71346
5.11906 5.04294 6.23364
4.73247 3.68063 8.30434
5.66433 5.8403 3.5432
8.34961 7.66719 1.36101
1.48445 0.37867 8.46103
5.30376 0.239634 4.87497
5.6516 0.217441 4.63431
9.67158 0.423384 7.07692
5.87181 0.539136 5.12986
5.86451 0.718693 4.95294
3.23862 7.5415 8.35638
5.66608 0.530969 4.79797
5.61863 0.36506 5.27091
6.85753 8.8195 3.44754
8.71776 9.8475 8.3215
2.40293 0.981243 8.01134
5.55366 0.471839 4.7485
0.418153 3.63583 4.55138
7.27881 7.36425 1.72649
5.99141 0.51789 5.10649
5.76367 0.146308 4.66542
8.37181 4.44359 2.58418
1.43758 0.425294 8.69132
1.32889 0.330656 8.6119
6.26473 0.325072 4.81028
5.38707 0.480718 5.05814
8.96388 5.62997 0.981408
1.35235 0.319731 8.80077
8.91799 4.55851 7.13164
1.26878 0.490396 8.80823
4.65668 6.65091 9.54873
9.73105 0.374384 6.84488
5.95058 0.621432 9.08916
4.65889 9.80443 2.01266
5.12239 0.218986 5.11827
5.35799 0.151541 5.37404
9.96503 0.462181 6.6597
1.34511 0.301997 8.75565
1.959 0.687348 8.19434
6.8799 6.04545 9.44
6.23499 0.646905 5.04632
5.38347 0.167905 5.03354
5.65258 0.552286 4.87187
7.53111 0.403548 4.9889
6.16561 0.304055 4.93924
3.16094 3.29312 9.81411
1.41566 0.24425 8.53694
5.70712 0.431656 5.39698
5.46541 0.622999 5.15806
3.80885 3.26539 7.29869
2.27626 3.00183 4.8659
5.73001 0.781223 5.11837
6.02384 0.216224 4.66998
2.11677 0.610262 8.33261
5.63089 0.155517 5.25815
9.42673 7.2595 4.99831
2.19248 0.820302 8.00071
5.50267 0.293234 4.80425
7.43007 0.450227 4.37666
0.619807 1.302 5.10662
1.63084 9.90901 1.78504
POINT_DATA 400
SCALARS particleColor float 3
LOOKUP_TABLE default
1 5.96046e-08 0
1 5.96046e-08 0
1 0.858755 0
0.56356 1 0.43644
1 5.96046e-08 0
1 5.96046e-08 0
1 0.131683 0
1 0.638992 0
1 5.96046e-08 0
0.627799 1 0.372201
1 0.784706 0
1 0.146637 0
0 0.783567 1
1 0.483928 0
1 0.0976056 0
1 5.96046e-08 0
0.264482 1 0.735518
0 0.779478 1
1 0.0393947 0
0.517468 1 0.482532
0.47943 1 0.52057
1 5.96046e-08 0
1 5.96046e-08 0
0.758827 1 0.241173
1 0.95204 0
1 0.155068 0
1 5.96046e-08 0
1 0.97835 0
0.611206 1 0.388794
0 0.869321 1
1 0.286842 0
1 5.96046e-08 0
1 5.96046e-08 0
1 0.723763 0
1 5.96046e-08 0
0.864414 1 0.135586
0.408196 1 0.591804
1 0.0206887 0
0.362864 1 0.637136
1 0.634926 0
1 5.96046e-08 0
1 5.96046e-08 0
1 0.499941 0
1 5.96046e-08 0
0 0.605873 1
1 5.96046e-08 0
1 5.96046e-08 0
0.349007 1 0.650993
1 5.96046e-08 0
1 5.96046e-08 0
1 0.261529 0
1 5.96046e-08 0
1 0.867144 0
1 5.96046e-08 0
1 0.671983 0
0.395409 1 0.604591
1 5.96046e-08 0
0 0.826097 1
1 5.96046e-08 0
0 0.947081 1
0.524971 1 0.475029
1 0.463979 0
1 5.96046e-08 0
0.189702 1 0.810298
1 5.96046e-08 0
1 0.498619 0
1 5.96046e-08 0
0.625514 1 0.374486
1 5.96046e-08 0
0.968814 1 0.0311859
1 0.147329 0
1 5.96046e-08 0
0.836987 1 0.163013
1 0.889871 0
0.315352 1 0.684648
0.638228 1 0.361772
0.568003 1 0.431997
1 0.0180194 0
0.0475578 1 0.952442
1 5.96046e-08 0
1 0.901944 0
1 0.985354 0
0.523017 1 0.476983
0 0.808425 1
1 0.747198 0
1 0.839479 0
1 0.281784 0
1 5.96046e-08 0
1 0.270492 0
1 0.855378 0
1 0.924601 0
0.452943 1 0.547057
1 0.57382 0
1 0.54561 0
0.606193 1 0.393807
0 0.788679 1
1 5.96046e-08 0
1 5.96046e-08 0
0 0.813243 1
1 5.96046e-08 0
1 5.96046e-08 0
1 5.96046e-08 0
0.786789 1 0.213211
1 5.96046e-08 0
1 5.96046e-08 0
1 0.434466 0
1 0.409097 0
0.622373 1 0.377627
0.684504 1 0.315496
0.813747 1 0.186253
1 5.96046e-08 0
1 0.3324 0
1 5.96046e-08 0
1 0.834573 0
0.32192 1 0.67808
1 0.263402 0
1 5.96046e-08 0
0 0.816499 1
0.47934 1 0.52066
1 0.411272 0
1 0.692774 0
0.331114 1 0.668886
1 0.859036 0
1 5.96046e-08 0
1 0.668724 0
0 0.423417 1
1 5.96046e-08 0
1 5.96046e-08 0
1 5.96046e-08 0
1 5.96046e-08 0
0.863144 1 0.136856
1 0.757671 0
0 0.928294 1
1 5.96046e-08 0
1 0.214363 0
0.685977 1 0.314023
1 5.96046e-08 0
1 0.835395 0
0.165126 1 0.834874
1 5.96046e-08 0
0 0.405235 1
0.926388 1 0.0736121
0 0.972901 1
1 5.96046e-08 0
1 5.96046e-08 0
1 0.385782 0
1 5.96046e-08 0
1 5.96046e-08 0
1 0.895325 0
0.897118 1 0.102882
0 0.350904 1
0.939682 1 0.0603183
0.246928 1 0.753072
1 5.96046e-08 0
1 0.625095 0
1 0.762343 0
0.453352 1 0.546648
0.941699 1 0.0583013
1 0.324219 0
1 0.0798384 0
0.500221 1 0.499779
1 5.96046e-08 0
0.960324 1 0.0396761
0.302167 1 0.697833
1 0.871025 0
0.17073 1 0.82927
1 5.96046e-08 0
0.846463 1 0.153537
1 0.90023 0
0.288288 1 0.711712
1 0.878919 0
1 5.96046e-08 0
1 5.96046e-08 0
1 0.529216 0
1 5.96046e-08 0
1 5.96046e-08 0
1 0.110888 0
1 0.580931 0
1 5.96046e-08 0
1 5.96046e-08 0
0.650156 1 0.349844
0.928906 1 0.0710937
0.603549 1 0.396451
0.467934 1 0.532066
1 0.401555 0
1 0.511167 0
0 0.175921 1
0.676294 1 0.323706
1 0.488257 0
1 5.96046e-08 0
1 0.997284 0
1 5.96046e-08 0
0.711158 1 0.288842
0.668666 1 0.331334
1 5.96046e-08 0
1 5.96046e-08 0
0.122227 1 0.877773
1 0.512143 0
0.447093 1 0.552907
1 0.416642 0
0 0.254679 1
1 5.96046e-08 0
1 5.96046e-08 0
1 0.963747 0
1 5.96046e-08 0
0.377573 1 0.622427
1 0.10002 0
1 0.77299 0
1 0.98449 0
1 0.581908 0
0 0.639871 1
1 0.828923 0
1 5.96046e-08 0
0 0.906007 1
1 0.216424 0
0.859391 1 0.140609
0 0.604555 1
0.913846 1 0.0861543
1 0.247171 0
1 5.96046e-08 0
1 5.96046e-08 0
1 5.96046e-08 0
1 5.96046e-08 0
0 0.583278 1
1 0.792678 0
0.269645 1 0.730355
0.382391 1 0.617609
0 0.261369 1
0 0.769752 1
1 5.96046e-08 0
0.628452 1 0.371548
0.851021 1 0.148979
1 0.961446 0
0.07871 1 0.92129
0.759359 1 0.240641
0 0.439577 1
0.883967 1 0.116033
1 5.96046e-08 0
0 0.403197 1
1 5.96046e-08 0
0 0.761578 1
1 5.96046e-08 0
1 0.669765 0
0.716182 1 0.283818
0 0.674035 1
0.578098 1 0.421902
0.967445 1 0.032555
1 5.96046e-08 0
1 0.572843 0
0.568897 1 0.431103
0 0.535106 1
1 0.740543 0
1 0.488684 0
1 5.96046e-08 0
0 0.973929 1
1 5.96046e-08 0
0.96146 1 0.0385398
0 0.335138 1
1 5.96046e-08 0
0.587468 1 0.412532
1 0.810682 0
1 5.96046e-08 0
1 5.96046e-08 0
1 5.96046e-08 0
1 0.291008 0
0.536108 1 0.463892
0.775912 1 0.224088
1 5.96046e-08 0
1 5.96046e-08 0
1 0.776165 0
0 0.815248 1
0.8017 1 0.1983
1 5.96046e-08 0
0 0.892099 1
1 5.96046e-08 0
0.333144 1 0.666856
0.226748 1 0.773252
1 5.96046e-08 0
1 0.233214 0
0 0.358192 1
1 5.96046e-08 0
1 0.456941 0
0.39217 1 0.60783
1 5.96046e-08 0
1 5.96046e-08 0
1 0.940453 0
0 0.947051 1
1 5.96046e-08 0
0.707211 1 0.292789
0 0.873209 1
0.801966 1 0.198034
1 0.606854 0
0.686832 1 0.313168
1 5.96046e-08 0
1 5.96046e-08 0
0 0.487767 1
0 0.626251 1
0 0.389228 1
0 0.916802 1
0 0.715063 1
1 5.96046e-08 0
1 0.468322 0
0 0.179904 1
0.557587 1 0.442413
0 0.609131 1
1 5.96046e-08 0
0 0.617041 1
0 0.160382 1
0.206206 1 0.793794
0.411694 1 0.588306
0.75878 1 0.24122
0.934186 1 0.0658142
1 0.948931 0
0 0.555189 1
1 0.41811 0
1 0.28218 0
1 5.96046e-08 0
0 0.948925 1
0.926728 1 0.0732718
1 5.96046e-08 0
1 5.96046e-08 0
0.33032 1 0.66968
0 0.551636 1
0 0.197024 1
0.0224316 1 0.977568
1 0.674197 0
0 0.955168 1
1 0.0985786 0
0.482676 1 0.517324
0 0.493657 1
0 0.270813 1
1 0.83665 0
0.0340217 1 0.965978
1 5.96046e-08 0
1 0.780767 0
1 5.96046e-08 0
1 0.985249 0
0 0.22584 1
1 5.96046e-08 0
1 0.381825 0
1 5.96046e-08 0
0.163385 1 0.836615
1 0.533907 0
0 0.708612 1
0 0.731494 1
0 0.921272 1
0 0.810196 1
0 0.843178 1
0 0.916046 1
1 0.700409 0
0 0.979739 1
0.0860081 1 0.913992
0.854212 1 0.145788
0.288903 1 0.711097
1 0.97504 0
0 0.821743 1
1 0.949537 0
1 0.153667 0
0 0.624827 1
0 0.517109 1
0.204123 1 0.795877
0 0.412269 1
0 0.713313 1
0 0.297448 1
0 0.804694 1
1 5.96046e-08 0
0 0.509898 1
1 0.286597 0
0 0.835402 1
1 5.96046e-08 0
0 0.973922 1
0.357743 1 0.642257
1 0.724741 0
0 0.90162 1
0 0.753247 1
0 0.526749 1
0 0.863038 1
0 0.395522 1
0 0.935729 1
0.237616 1 0.762384
0 0.694477 1
0 0.463055 1
0.457049 1 0.542951
0 0.78891 1
1 0.502426 0
0 0.449271 1
0 0.484903 1
0 0.635607 1
1 0.396679 0
0.0808552 1 0.919145
0 0.481254 1
0 0.674823 1
0 0.362499 1
0 0.840468 1
0.356278 1 0.643722
0 0.749972 1
0 0.612389 1
1 0.668417 0
0.929284 1 0.0707158
0 0.959709 1
