# vtk DataFile Version 3.0
Particle simulation
ASCII
DATASET POLYDATA
POINTS 400 float
0.291243 1.88524 8.78456
6.36116 0.307793 3.17282
1.82524 0.605233 0.0459179
2.62832 8.684 6.79627
0.860397 3.03008 4.03248
7.98692 5.01285 8.30725
5.12927 7.1212 3.62648
8.59924 9.56567 0
4.92773 2.4764 0.430763
3.99397 0.218772 7.07078
8.3677 3.09476 6.5014
5.39085 1.18514 6.56129
6.08378 6.8548 2.84617
2.70907 2.05542 9.97458
4.0564 2.70562 9.00128
3.60161 0.0703468 0.896739
8.91293 0.0815221 8.37601
3.06014 0.496954 0.615381
7.49201 1.77253 8.56516
9.66023 1.45329 5.99051
3.22625 0.236842 0.711382
6.00078 3.55969 7.9721
8.30618 2.69623 7.28758
4.00111 1.21981 4.56688
8.48797 3.06772 6.57644
0.264693 1.34115 6.56238
2.67899 4.15703 3.89712
2.14706 0.56436 1.63333
0.919842 8.88828 2.20227
2.30671 8.62345 10
1.38614 1.78098 1.08557
2.23252 6.654 8.97369
4.85168 8.31868 6.97449
7.03842 0.815627 4.73889
6.89906 4.10427 1.24979
0.629773 3.82193 1.92294
1.50866 0.246731 6.23055
3.38204 0.559174 1.07106
9.8268 2.33404 3.70291
2.2343 3.12509 5.05172
5.69234 7.8624 0.44558
4.44113 0.930513 7.59617
1.36885 6.70516 8.28553
1.5856 6.92692 4.59486
8.9275 0.596682 3.43073
5.94724 0.107961 1.09191
7.59721 4.6558 9.06418
6.57981 0.803894 7.34835
5.30738 0.402658 0.0631464
3.77953 6.76476 3.7208
3.08426 7.13204 7.46034
0.375081 0 9.18352
8.54053 2.35815 1.17375
4.16168 9.12379 3.45645
4.05192 1.73869 5.73036
5.55324 0.861991 1.06817
8.33625 8.39306 6.45401
2.71528 0.1319 0.773017
3.74542 2.65022 4.25762
9.64538 0.89794 5.9434
1.02375 4.55469 8.04276
7.32147 1.93058 1.14596
5.02239 9.28414 0
0.30262 0.504773 8.51759
3.12231 9.64483 5.68141
0.493267 1.84182 7.56972
0.547558 2.94107 9.35902
2.3547 3.48596 5.63806
7.04944 4.58066 5.31267
4.78176 3.33953 5.65006
7.34496 0.318647 9.11598
4.53592 1.78603 2.39541
8.69248 9.62322 4.32286
1.35115 1.5882 8.29975
4.22171 9.53801 8.49593
10 7.68619 2.63589
3.01646 1.60565 5.62608
4.07229 2.37876 9.13198
3.95237 0.39531 2.64369
6.3489 5.64238 7.71198
3.46128 0.452516 0.796847
6.81385 1.39364 5.93608
2.05852 1.7658 6.62428
2.36988 0.436151 0.875477
2.85822 0.823555 7.83344
0.573997 1.18564 8.1226
8.78187 6.82143 8.05124
1.53027 0.653594 3.64244
0.657727 3.95567 4.76923
7.06574 0.763506 1.2004
3.56273 0.491003 1.42564
9.43243 0.152789 1.41028
0.759005 3.25438 8.88873
2.60593 0.25869 6.03447
0.829263 0.814273 8.76718
6.51705 6.791 2.93949
9.63369 5.65329 2.75775
4.28011 0.39571 10
8.83889 2.49835 9.37887
7.26088 0.873287 0.973167
3.47542 0.471371 1.15041
0.857763 5.60668 2.65642
3.2515 0.343774 8.32131
3.3633 6.40669 7.58891
7.85923 1.39076 9.78442
1.37083 3.50723 1.35291
5.14674 1.49491 8.68906
5.61435 0.140477 0.539573
3.93189 0.516647 1.19585
0.367281 0.614716 3.44463
5.57912 4.53322 2.89744
0.54925 3.54392 8.68648
8.37635 3.70441 3.29548
6.05301 0.887196 1.20441
2.51565 0.353143 0.957807
0.821884 0.268496 6.53149
4.9293 0.540102 8.02333
8.62391 4.59676 1.922
8.10151 3.24638 6.32683
7.0971 7.39099 2.70247
3.46594 0.438321 0.667747
7.79479 2.36587 7.15269
3.53949 4.1109 6.06764
9.29598 4.09365 6.14529
2.05169 5.03888 5.31487
2.93661 0.779212 0.715664
2.20565 3.15287 3.57201
0.408727 0.613628 8.7526
1.22352 1.17734 7.29678
0.626697 8.87719 3.75487
2.6133 0.904464 1.78285
7.54255 4.53593 7.25746
5.69364 3.75836 1.67784
7.06828 0.415305 3.23638
3.86057 1.8959 6.66545
2.41277 1.09856 3.13496
3.38089 4.23804 0.150746
0.408106 0.397823 8.65885
0.727203 5.58633 8.23268
4.86463 0 8.44481
3.17981 0.332317 0.904671
8.90928 8.20439 5.39811
0.08692 5.88831 8.55538
8.21913 1.47142 6.5359
3.46268 0.638949 1.15818
6.8654 1.56454 5.88994
8.88819 0.380536 3.42983
3.20297 7.76451 1.31774
4.50106 1.65243 2.40611
5.95202 1.83155 2.91649
3.1658 0.324273 0.908707
5.48716 1.90017 5.83884
0.709535 0.589632 8.72641
2.24511 1.72544 4.47103
4.39637 5.72898 8.43924
6.16979 0.178637 1.38284
7.81855 1.21453 1.02718
5.40671 0.530756 1.06772
3.07053 2.68585 9.32613
4.01115 3.03054 2.40294
4.94786 2.33563 0.321218
4.97419 0.529339 5.03712
6.19543 1.38182 8.90211
2.13656 3.16091 0.10857
4.1123 0.135208 9.11682
9.26854 3.89351 8.81843
6.64507 0 2.61011
6.52421 0.433804 9.37623
6.28037 2.59717 2.68236
0.82985 0.723058 9.29105
3.4676 0.375205 1.21667
9.47292 3.64352 0.168058
5.76762 4.27076 3.44891
1.40402 3.40379 0.94176
3.18417 0.224093 5.9478
5.04995 9.47422 0.565228
1.07398 0.291371 7.48163
2.94814 1.35692 5.6288
1.49936 0.393524 7.23821
9.24871 6.85961 7.23401
2.97071 0.592057 0.698717
5.47613 9.55915 2.14376
5.19288 0.66318 5.2144
7.22811 0.863317 0.647567
4.34379 0.301297 8.61346
7.74333 0.578296 0.93871
3.815 0.481406 1.19188
4.59437 8.40286 4.72275
8.75542 0.324197 2.96169
3.07474 0.585258 0.85615
3.37153 0.411524 1.06053
3.38129 0.259188 0.971524
3.08279 7.53093 7.49939
0.797779 0.531005 0.997716
5.01547 5.03817 8.80846
3.38198 0.61438 0.694749
3.52112 0.18469 5.23252
5.67361 8.40464 6.9423
3.26625 0.276674 0.898161
3.67655 0.572709 0.426951
3.66502 0.394029 1.07092
5.8042 0.118692 0.44933
8.33728 0.413718 2.68388
1.28024 0.465232 7.50339
1.83149 8.95836 1.77724
5.10739 0.297327 8.35063
3.02159 0.794445 0.801831
7.49371 3.80769 3.76069
2.13605 2.07168 0.159857
8.28992 0.707927 1.41278
3.43359 0.448908 0.532453
3.53446 0.34699 0.556023
9.04272 5.43857 0.294874
6.9079 0.266868 7.53224
4.67449 2.88563 8.66717
4.61567 0.180253 8.38702
3.06342 0.0296468 0.613264
2.63382 0.258132 0.441191
1.88392 9.69749 7.01099
5.84975 0.293044 2.81026
2.09844 7.39083 6.56275
7.94058 3.73549 7.33728
5.83137 0.164886 8.00506
3.17339 0.751543 0.727608
6.70425 0.122459 7.24215
2.6633 0.41353 1.34441
7.65256 0.439934 0.931527
3.68505 0.318271 1.05326
3.14441 0 1.20425
8.49388 2.13237 1.54535
4.81853 0.25014 5.95433
4.56125 0.235699 8.56963
9.0496 0.0738748 3.49798
3.11288 0.374936 0.248986
4.71975 0.214363 8.27403
1.86647 0.687762 3.71516
4.60866 0.742818 7.58838
2.37462 1.47566 5.741
3.65941 0.636933 1.10563
7.03681 4.75013 7.51534
3.33433 0.657306 0.686479
3.66157 0.261749 1.68921
2.91359 0.198899 0.38518
3.33421 0.676453 0.689093
4.57975 0.0317888 8.40826
1.49238 3.54809 1.45011
1.17547 0.139919 5.01903
3.51622 1.15015 6.77665
1.25094 3.63729 1.93179
7.70454 0.348409 7.00822
3.07997 0.198643 0.469631
1.22746 9.74186 5.25031
5.24741 0.481259 8.18525
3.73042 1.39943 7.07782
9.15007 0.545507 3.11277
2.9596 0.245876 0.558549
5.23303 2.24503 5.3657
5.53259 0.302627 8.04512
4.79365 2.52626 4.20879
5.18133 0.5627 8.24217
3.02248 0.585805 0.809518
8.58454 6.76943 2.23674
1.21388 0.481628 7.53088
9.32903 6.89261 6.5232
4.68383 0.357303 8.72609
1.21984 2.03776 6.21426
5.94919 0.197241 1.01313
4.71254 0.0919234 8.24557
8.65792 0.275841 3.15935
3.21095 0.44019 0.842945
3.60132 0.785725 0.632447
7.30726 0.659679 0.498775
1.68313 1.75789 1.41682
2.69402 1.75722 5.67735
6.35065 2.13786 9.05871
4.33314 0.422463 8.49929
3.30155 1.59511 5.47078
6.98928 8.79029 4.70951
2.43621 2.21276 0.225085
3.33761 0.314502 0.828281
5.47712 0.49234 0.674577
5.68153 0.0908469 1.0024
8.85654 5.65977 5.23344
0.969518 0.436597 7.49625
9.43859 5.6697 8.76088
8.70418 0.441755 3.41313
3.69063 0.461983 0.796464
7.08045 1.83055 6.01835
6.32148 2.01161 8.93594
5.02983 10 1.94301
9.6809 0.0935886 1.68828
5.55182 0.412575 0.217894
3.04562 0.150666 1.30429
0.466476 0.648972 8.4499
5.02532 0.324293 8.40381
4.96418 0.0946989 8.34657
3.28256 0.398638 0.53432
3.58973 0.345338 1.13007
6.69302 1.75518 6.16588
3.36738 0.307133 0.548725
0.739655 0.320216 1.29674
3.09094 1.09654 6.50354
3.51269 0.462244 5.10842
3.93918 0.460361 7.11254
3.07185 0.682247 0.60438
0.684105 0.69157 8.8451
3.42272 0.224741 0.188456
2.99289 0.61499 0.804373
0.267604 0.903712 8.78806
2.92339 1.85639 5.34761
4.82979 0.414586 7.89505
5.41913 2.03602 6.02351
8.68661 0.475614 3.01282
3.25995 0.0150597 1.27447
7.0001 1.49758 5.83973
0.098874 0.749883 8.68152
7.13644 0.80864 0.52876
4.65023 2.87 4.38301
4.87967 1.78376 5.23397
4.44833 1.71829 2.44717
5.42929 0.663886 8.0311
1.38042 0.484152 5.15195
4.83296 0.442154 8.38895
3.71868 0.674405 1.10723
5.28631 0.395255 0.537875
7.28385 0.792737 0.851853
3.42638 0.556184 1.13968
5.51059 0.279643 1.18683
0.113255 2.39114 1.28747
2.80912 0.475225 0.379945
8.93179 0.175744 6.11329
3.64854 0.381486 1.29099
4.86573 0.384376 8.11153
3.39173 0.250593 0.520257
5.5081 0.189894 1.03272
8.17829 4.30497 7.41063
4.87557 2.33564 4.24946
3.24009 0.700627 0.794414
9.47262 0.723093 5.18118
2.93594 0.313973 5.86072
5.11811 0.664254 8.44988
2.53696 0.237928 6.32455
4.80237 0.0694018 8.12382
4.76991 0.212313 8.16346
3.69425 0.705619 0.85847
3.14845 0.581603 1.18445
5.84616 0.136923 1.17477
3.3589 0.588231 0.902849
3.51224 0.573483 0.502176
3.23599 0.0511911 5.77542
2.48772 0.383725 1.05104
2.89753 0.225427 0.958602
6.24155 1.68234 8.60509
5.31904 0.476479 7.85469
3.81426 0.798202 1.38138
3.7812 0.689942 0.56674
5.75995 0.198987 0.425233
4.89122 0.375981 8.2672
4.05028 0.474232 0.790047
3.12673 0.60339 1.23992
5.43253 0.360072 0.54096
5.08271 0.309914 8.07399
5.22421 0.454457 8.2576
3.32393 0.402101 1.00844
4.0388 0.181359 0.816914
8.57151 0.300242 2.96714
4.9125 0.327755 8.86479
7.28735 0.373364 7.06234
5.4897 0.399517 8.59362
7.43963 0.470189 0.779532
5.47215 0.316988 0.543949
5.51739 1.95147 5.87369
5.02445 0.0820659 7.8745
3.0197 0.369424 0.803235
3.27672 0.574828 0.594246
9.00189 0.349246 3.38985
4.98681 0.260112 7.95947
5.14529 0.617895 8.37051
5.18262 0.659814 8.18867
3.5321 0.336581 1.14538
3.16496 0.553045 0.909531
3.20851 0.547489 0.881428
5.13068 0.549614 8.51508
3.51695 0.251475 1.13461
0.390551 0.773471 8.5465
4.7621 0.314071 8.17848
2.95524 0.490103 1.13927
3.09452 0.219251 1.04023
6.9861 2.89031 7.80621
5.89002 0.505527 1.12822
3.23326 0.340021 0.784207
3.43682 0.4174 0.655639
4.70429 0.468602 7.96083
3.2102 0.430935 1.00326
0.291614 0.902521 8.42471
4.89893 0.227264 8.35271
2.94322 0.499059 1.12794
2.88609 0.343637 5.74031
5.05241 0.549581 0.97967
5.8703 0.500392 1.11905
POINT_DATA 400
SCALARS particleColor float 3
LOOKUP_TABLE default
0 0.307458 1
1 0.871357 0
1 0.117288 0
1 0.25092 0
0.876346 1 0.123654
1 0.758591 0
0 0.703064 1
0 0.967304 1
0 0.942996 1
1 0.405497 0
0.309877 1 0.690123
0.847796 1 0.152204
1 5.96046e-08 0
0 0.476438 1
0.524453 1 0.475547
0.603957 1 0.396043
0.851167 1 0.148833
0 0.342755 1
0.15719 1 0.84281
0 0.464768 1
0 0.202048 1
0.998474 1 0.00152642
1 5.96046e-08 0
1 5.96046e-08 0
0.161868 1 0.838132
0.28492 1 0.71508
1 0.930153 0
0.65007 1 0.34993
0 0.99665 1
0.999479 1 0.000521243
0 0.700394 1
0.533359 1 0.466641
1 0.453082 0
0 0.603924 1
1 0.943537 0
1 5.96046e-08 0
1 0.594661 0
0 0.795221 1
0 0.764417 1
1 0.519522 0
0.380537 1 0.619463
0.0598774 1 0.940123
0.723637 1 0.276363
1 5.96046e-08 0
0 0.616164 1
0 0.889624 1
0.0237725 1 0.976228
0 0.198526 1
0 0.397959 1
1 5.96046e-08 0
0 0.798947 1
1 5.96046e-08 0
0 0.98545 1
1 0.00694895 0
0 0.533158 1
0 0.324317 1
1 0.617733 0
0.795495 1 0.204505
0 0.478708 1
0.570907 1 0.429093
0 0.364584 1
0.0994001 1 0.9006
0.591929 1 0.408071
0 0.521587 1
1 0.643047 0
0.0656687 1 0.934331
0 0.965885 1
0.960453 1 0.0395471
0.913879 1 0.086121
0.093572 1 0.906428
0.182023 1 0.817977
0 0.825418 1
0 0.869885 1
0 0.60842 1
0.746778 1 0.253222
1 0.0648277 0
0 0.129968 1
1 0.820382 0
0.491991 1 0.508009
0 0.734412 1
0 0.808414 1
0.193338 1 0.806662
0.210743 1 0.789257
0 0.664087 1
0.0928986 1 0.907101
0 0.761768 1
0 0.680366 1
0.000574824 1 0.999425
0.168026 1 0.831974
0 0.536592 1
0 0.587013 1
1 0.870359 0
0 0.857549 1
0 0.434404 1
0 0.521591 1
1 5.96046e-08 0
0.661865 1 0.338135
0.040017 1 0.959983
1 0.208627 0
0 0.74945 1
0 0.555194 1
1 5.96046e-08 0
0.332285 1 0.667714
1 0.459494 0
0.256461 1 0.743539
0 0.884728 1
0.649582 1 0.350418
0 0.885337 1
0 0.832443 1
1 0.472761 0
0.777073 1 0.222927
0.967299 1 0.0327014
0.610401 1 0.389599
0 0.503526 1
0 0.360492 1
0 0.827874 1
0 0.360689 1
0.756784 1 0.243216
0.425362 1 0.574638
0.722435 1 0.277565
0 0.90748 1
1 0.213491 0
1 0.226458 0
0.0218913 1 0.978109
0.834326 1 0.165674
0 0.787617 1
0.401525 1 0.598475
0 0.329966 1
0.119262 1 0.880738
0.10289 1 0.89711
0 0.509853 1
0.520174 1 0.479826
0.702565 1 0.297435
0 0.51858 1
0.768151 1 0.231849
0 0.615978 1
0.567268 1 0.432732
0 0.705444 1
1 0.170589 0
0 0.669588 1
0 0.812354 1
1 0.674039 0
1 5.96046e-08 0
0 0.929486 1
0 0.580047 1
0.357112 1 0.642888
0 0.761856 1
0.590904 1 0.409096
0.21842 1 0.781579
1 0.513355 0
0 0.718073 1
0 0.718885 1
0.148249 1 0.851751
0.933833 1 0.0661669
0 0.45492 1
0 0.549326 1
0 0.821921 1
0 0.905334 1
0.388542 1 0.611458
0 0.878727 1
0.0908374 1 0.909163
0 0.597999 1
0 0.271291 1
0.13914 1 0.86086
1 0.809142 0
0.201826 1 0.798174
0.836364 1 0.163636
0 0.532401 1
1 0.0377012 0
0.877219 1 0.122781
0 0.660498 1
0.044778 1 0.955222
0.611541 1 0.388459
0.213118 1 0.786882
0 0.486939 1
0.235833 1 0.764167
0.0324084 1 0.967592
0 0.48834 1
0 0.799398 1
0.943051 1 0.0569486
0 0.476929 1
1 0.937445 0
1 0.615053 0
0 0.905249 1
0 0.289115 1
0.113731 1 0.886269
0 0.195257 1
1 5.96046e-08 0
0 0.853765 1
0 0.552418 1
0 0.571854 1
0 0.525453 1
0.517436 1 0.482564
0.0634088 1 0.936591
1 0.399945 0
0 0.678239 1
0 0.877825 1
1 5.96046e-08 0
0 0.368876 1
0 0.466752 1
0 0.593595 1
0 0.565841 1
0 0.736418 1
0 0.787887 1
0.944145 1 0.0558548
0 0.55309 1
0 0.375683 1
1 0.953138 0
0.355764 1 0.644236
0 0.762003 1
0 0.66623 1
0.0752603 1 0.92474
1 5.96046e-08 0
0 0.411165 1
0.170107 1 0.829893
0 0.410491 1
0 0.552455 1
0 0.162299 1
0.537339 1 0.462661
0 0.420598 1
1 0.957601 0
0.653053 1 0.346947
0 0.554997 1
0 0.72645 1
0 0.41061 1
0 0.733869 1
0.69954 1 0.30046
0 0.551508 1
0 0.25057 1
0 0.869576 1
0.118368 1 0.881632
0 0.980284 1
0 0.316914 1
0 0.705938 1
0 0.580881 1
0 0.638205 1
0.456444 1 0.543556
0 0.93454 1
0 0.459554 1
1 0.425441 0
0 0.782854 1
0 0.396524 1
0 0.699826 1
0 0.817058 1
0 0.614363 1
0 0.773358 1
0 0.55234 1
0.221593 1 0.778407
0 0.628482 1
0 0.932575 1
0 0.297124 1
0.657979 1 0.342021
0 0.870934 1
0 0.290656 1
0 0.784205 1
0 0.418732 1
0 0.646033 1
0 0.569682 1
0.0831472 1 0.916853
0 0.650202 1
0 0.720891 1
0.696277 1 0.303723
0 0.423143 1
1 5.96046e-08 0
0 0.679969 1
0.578344 1 0.421656
0 0.781264 1
0 0.990788 1
0 0.650189 1
0.280358 1 0.719642
0 0.682335 1
0.100206 1 0.899794
0.798301 1 0.201699
0 0.736275 1
0 0.778613 1
0 0.661974 1
0 0.91696 1
1 0.882386 0
0 0.720677 1
0 0.404539 1
0 0.462183 1
0 0.270132 1
1 0.514668 0
0 0.547491 1
0.345188 1 0.654812
0.101284 1 0.898716
0 0.521075 1
0 0.507376 1
0 0.950954 1
1 5.96046e-08 0
0 0.686252 1
0.186347 1 0.813653
0 0.555713 1
0 0.607105 1
0 0.902865 1
0 0.678177 1
0 0.644858 1
0 0.408098 1
0 0.388419 1
0 0.735159 1
0 0.933511 1
0 0.716748 1
0.0861966 1 0.913803
1 5.96046e-08 0
0 0.503363 1
0 0.492417 1
0 0.76003 1
0 0.390201 1
0.611836 1 0.388164
0 0.492735 1
0 0.682491 1
0 0.549278 1
0 0.446698 1
0 0.602226 1
0.147387 1 0.852613
0 0.437752 1
0.050611 1 0.949389
0 0.813233 1
0.0128149 1 0.987185
0 0.336266 1
0 0.46846 1
0 0.336942 1
0 0.677808 1
0.0854229 1 0.914577
0 0.569659 1
0.247891 1 0.752109
0 0.690892 1
0 0.904052 1
0.346696 1 0.653304
0 0.933811 1
0 0.939878 1
0 0.461461 1
0 0.662815 1
0.00472882 1 0.995271
0 0.490035 1
0 0.848272 1
0 0.668983 1
0 0.704715 1
0.678542 1 0.321458
0 0.535286 1
0 0.374264 1
0 0.900334 1
0 0.751149 1
0 0.577839 1
0 0.294623 1
0 0.574708 1
0 0.838065 1
0 0.718888 1
0 0.873936 1
0 0.61299 1
0 0.326845 1
0 0.082202 1
0.304614 1 0.695386
0 0.347176 1
0 0.397085 1
0 0.182513 1
0 0.476598 1
0 0.874696 1
0 0.345861 1
0 0.489205 1
0 0.615926 1
0 0.584168 1
0 0.703962 1
0 0.55577 1
0 0.350091 1
0 0.127057 1
0 0.124625 1
0 0.719869 1
0 0.440443 1
0 0.537356 1
0 0.533422 1
0 0.377321 1
0 0.57118 1
0.153985 1 0.846015
0 0.697334 1
0 0.693826 1
0 0.156112 1
0 0.945184 1
0 0.851898 1
0 0.322921 1
0 0.893763 1
0 0.650689 1
0.169379 1 0.830621
0 0.903217 1
0 0.513497 1
0 0.356525 1
0 0.281146 1
0 0.555887 1
1 5.96046e-08 0
0 0.573763 1
0 0.815977 1
0 0.258301 1
0 0.867265 1
0 0.427878 1
0.133079 1 0.866921
0 0.549412 1
0 0.401621 1
0 0.52341 1
0 0.151796 1
0 0.374146 1
