# vtk DataFile Version 3.0
Particle simulation
ASCII
DATASET POLYDATA
POINTS 400 float
9.76232 1.74857 9.78759
5.57221 6.44338 5.57581
0.73501 1.31461 5.39619
2.47755 0.31079 1.70548
9.25777 1.09017 3.05918
5.12903 7.25954 6.37438
8.52826 0.10866 1.14026
8.02369 4.47851 1.41125
7.65702 8.02019 5.10269
5.06454 0.5014 5.86857
8.461 3.20056 1.28364
5.96461 0.0506153 3.83264
9.9669 6.37132 10
7.99231 0.0244821 1.1956
4.60766 2.07991 0.159082
8.15929 4.68411 8.5678
1.18549 6.47056 0.1989
3.39006 0.454701 1.88161
1.08136 1.7949 1.17114
3.32766 0.716171 6.82678
2.13626 0.379431 1.1323
8.74588 0.0922405 7.94248
9.0213 3.46142 9.83269
3.68551 1.36395 2.57175
7.70734 3.14314 4.24672
3.389 0.282091 1.45394
3.40685 6.30092 7.56459
1.7475 0.0307976 1.07846
8.7903 1.28881 7.39709
4.70412 0.587539 0.749607
7.3866 7.45937 9.06713
6.10247 3.03097 7.4842
8.86448 0.792826 7.82928
5.35744 1.03806 0.52787
4.72391 0.556977 2.75381
0.964746 2.30469 0.666572
4.11401 7.32827 4.0219
3.39665 0.757359 1.91867
5.61341 0.328625 1.69053
1.49532 2.35509 3.61102
4.31919 0.679834 3.88778
9.57748 1.35043 5.67792
8.24899 5.53471 8.54765
0.690503 3.90655 9.62488
7.20251 0.968191 6.1461
6.02641 0.248323 1.50447
4.62137 0.464165 6.69335
2.84995 0.474288 2.3923
6.37856 0.508902 1.84357
4.94073 4.55847 2.99133
0.833106 3.61527 2.71075
7.57648 9.25181 5.93138
9.97704 0.618329 7.92391
5.18068 0.886699 5.65061
9.30708 0.456975 8.18907
6.38852 0.350842 2.00344
7.25239 0.523663 8.05295
1.12447 0.307443 4.65322
5.73924 0 1.7773
7.57012 8.37463 1.91481
8.95511 5.98296 1.77747
5.85834 0.919888 9.03385
2.48262 0.0908282 3.68832
5.25069 0.502777 5.63603
6.4987 7.66026 4.19527
3.50893 0.299408 1.24203
6.83335 0.702223 8.07152
0.671073 3.78002 3.00278
6.20218 0.100064 1.88373
5.03647 0.621212 9.24075
7.35481 0.73335 7.76298
3.14649 0.624708 1.32162
4.29961 8.78614 5.03481
4.98574 0.601797 5.86115
8.34568 0.370981 8.16516
7.14859 0.84269 4.76925
6.78854 0.665438 8.06599
5.44779 0.574143 9.32904
7.66656 2.39512 1.9448
1.06095 6.60523 9.74475
3.85884 0.548392 1.65208
3.52799 0.669947 2.36672
3.513 0.168345 2.67919
1.94284 0.569211 2.17618
5.4519 0.608098 9.03981
5.80841 0.38285 8.93418
6.35757 1.22575 8.89895
6.92382 1.78452 0.978628
8.02719 3.5415 1.49031
9.37753 0.39232 2.30754
3.68519 0.149527 2.00397
3.68741 0.314001 2.59279
0.848779 1.27714 7.93838
2.02887 0.452165 1.96696
5.46759 0.603968 9.09935
5.46026 0.611488 9.10173
6.23579 0.426891 8.38461
0.46496 0.35737 2.46418
8.45655 0.270653 7.52104
9.35051 0.378554 2.38478
3.61412 0.962617 1.89323
4.53552 1.54473 2.06725
0.667508 2.62689 0.87765
9.6779 0.270617 9.59179
7.47098 8.48283 1.74384
3.43303 0.469692 1.71037
4.56874 0.836354 8.41993
6.24502 0.302451 1.96449
6.29019 0.325581 1.91851
8.99123 0.464587 2.09136
6.10207 6.96066 9.40693
4.73832 0.833667 5.50735
1.78607 0.602557 2.13427
9.44942 0.233939 1.77261
3.33988 0.629801 1.56733
1.63669 0.0861522 3.53763
5.72471 0.552472 8.55398
6.37885 0.399602 2.3316
6.32433 0.399033 1.91234
5.41381 1.23627 3.70308
3.45669 0.961315 2.074
4.7283 5.82089 2.68672
7.68971 7.94057 8.84101
9.1544 0.483653 4.70362
8.30445 0.116752 7.94932
2.76637 0.342417 2.15508
3.28967 0.276609 1.07426
5.09405 0.567592 5.90957
9.01912 2.34254 2.69253
0.442857 1.9268 6.91777
3.5598 1.11461 2.45176
6.79291 1.81653 1.13048
5.23886 0.870925 8.84104
6.99114 0.858492 6.39673
8.99195 0.520183 1.19318
2.22111 0.286297 1.34357
9.36838 8.6359 1.44467
5.0571 0.605166 5.77948
3.96399 1.54057 9.50152
9.63415 0.42771 8.09681
3.59996 0.276889 1.75594
5.87541 0.90822 8.22348
2.05917 3.07019 7.32697
5.4751 1.36013 3.74943
3.59528 1.02755 2.20422
1.92787 0.368436 1.64348
7.13732 0.891676 6.6463
0.979076 3.97389 1.33382
1.84107 0.222765 1.53104
4.22089 0.263837 0.913309
3.5826 0.270361 1.76158
8.1785 0.403595 6.89337
4.15463 2.46095 0.352791
4.49624 0.808808 8.27857
3.92109 4.25146 0.385066
5.11809 1.13347 1.95364
8.30274 0.528573 7.29083
3.63918 0.859383 1.96195
6.89106 0.491825 6.88947
2.05854 0.412297 2.06741
0.160215 2.68556 1.22303
0.623247 1.17335 5.47441
5.75176 0.970072 8.95809
3.66221 0.482411 1.40082
0.738602 3.70925 2.84401
9.48467 0.28262 8.22849
5.1323 0.691513 8.61314
5.67605 0.786966 8.96443
6.23438 4.53071 6.3613
4.53728 6.7129 9.01651
3.70203 0.759243 1.85843
3.33997 0.8077 1.24513
5.62507 0.419784 3.40322
3.49508 0.699918 2.27494
1.87828 0.811472 1.25644
1.11532 2.27933 0.452166
5.53088 0.764633 8.71661
5.18298 0.458708 9.02258
5.34886 0.527258 9.50312
4.20869 2.60068 9.73681
1.92509 0.558759 2.18838
3.09091 0.190526 2.52194
9.48068 5.20225 8.01158
3.47143 0.684964 2.92322
5.87234 1.01437 9.01874
3.64421 0.173983 2.0173
2.3304 0.0690405 1.89463
0.765272 1.32865 7.67807
6.81077 0.375128 6.98214
2.23042 0.423428 1.89935
2.01818 0.590395 2.16684
2.34552 0.385992 1.30536
5.10049 0.804156 8.88709
2.18192 3.88665 4.32266
0.726382 7.40176 9.87659
2.07369 0.271811 1.86636
2.04336 0.556234 2.18697
6.42449 5.45377 8.5816
2.24867 0.305833 1.42502
3.50155 1.07407 2.37049
3.60881 0.644407 2.1101
6.28453 0.253864 1.67928
7.39856 1.06371 6.2749
4.46032 1.02075 8.5446
7.08791 2.87919 4.30502
5.40567 0.0760647 8.57622
2.95733 0.426162 2.46037
1.06928 0.538088 5.00612
1.0526 0.560045 4.68978
9.11316 0.336811 2.0322
2.25767 0.331596 1.50783
6.09775 0.211218 2.07096
5.07913 0.912838 9.19099
9.4779 0.402646 8.01437
4.74763 0.763068 5.98944
5.38461 0.383222 8.51239
2.98426 0.424714 2.45369
3.80387 0.860829 1.50715
2.06061 0.483203 0.736358
9.21321 0.450617 2.36944
2.43584 2.86039 6.91686
6.54222 0.827099 8.56783
4.53132 0.659514 8.36808
3.57915 0.597988 1.95105
5.8503 0.456309 8.30674
3.59177 0.460282 1.83253
0.221312 2.39747 1.06971
2.13448 0.244883 1.50224
2.65214 0.448899 1.60328
5.57754 0.819926 8.80778
5.34903 0.754322 6.01073
5.82459 0.724973 8.62891
7.32885 0.782435 6.35604
3.17451 0.41903 1.76177
5.52388 0.438423 8.58654
3.1358 1.04025 2.08798
7.11966 0.665621 6.65138
2.50282 0.494339 1.77257
2.29973 0.146363 1.26864
1.17132 0.551369 4.82674
1.96172 0.737889 1.9105
3.81357 0 1.89912
3.44946 1.11875 2.15057
1.94541 0.357586 2.23364
6.23727 0.851035 8.57766
2.60096 0.386501 2.6714
2.62955 0.452987 2.30571
4.07259 0.847008 8.74926
6.47471 0.464081 1.89173
5.55348 0.58492 8.53399
3.17235 0.173402 1.40825
4.58579 0.17928 0.00106245
5.3415 0.4998 8.72777
3.62164 0.895442 1.7504
6.57697 0.479798 6.87384
3.3917 0.226537 1.7556
8.63193 0.0826592 1.87732
4.26937 0.903833 8.36335
6.31918 0.44056 1.89423
5.50399 0.660909 8.54937
1.96133 0.467687 1.53946
3.17744 9.40402 6.11294
4.39641 0.852723 8.54479
6.3711 2.33383 1.20372
5.34162 0.39442 8.61288
0.791678 3.95795 9.87964
4.5186 0.860775 0.318197
5.73457 0.533114 8.27664
6.64113 0.558016 6.71986
3.30761 0.621835 1.47905
3.42177 0.466273 2.01943
4.26099 2.65775 3.90944
5.03505 0.599465 2.18757
4.29424 0.095745 0.439749
5.32625 0.472747 8.72589
4.33424 0.626177 8.74652
4.54285 0.575521 6.16609
4.38692 8.87989 6.9778
6.52783 0.630032 6.66662
2.03181 0.64332 2.04494
8.89292 0.209584 1.92368
6.33285 0.435411 2.02464
6.25736 1.75331 1.42764
4.39475 0.725318 6.24811
5.99235 0.574394 3.58361
6.58387 0.757814 6.8143
3.61338 0.84157 1.87097
1.89689 0.492741 2.44578
9.88415 0.564018 8.23077
9.84449 5.68823 2.21598
7.79338 0.686139 1.4668
6.13609 0.237834 1.94541
2.68808 0.276106 1.50776
5.23139 0.508399 5.72216
5.60106 0.28354 8.54438
5.84729 0.544912 7.91833
2.86332 0.0605848 2.59657
3.37696 0.0845275 1.86736
4.21204 0.214351 0.869104
2.92543 0.248457 1.84328
9.10555 0.258174 2.01788
9.43158 0.50743 7.94042
1.96001 0.157764 3.41141
5.78449 0.0519964 1.56275
2.93062 0.155156 1.47497
2.88252 1.05134 2.8208
1.99568 0.655823 1.68994
2.30576 0.260469 1.37209
1.78768 0.223912 3.58787
2.84372 0.341035 1.77728
7.37633 0.367596 7.03899
8.07521 0.55964 6.95464
6.98526 0.829722 6.25324
2.05294 0.202357 1.73693
3.49733 0.624681 1.64696
6.59945 0.464169 8.45396
1.79623 0.494592 1.99925
5.77111 0.781185 2.32803
6.40335 0.179574 1.99455
3.32967 0.950147 1.68247
6.21455 0.728262 8.62527
3.00902 0.146512 0.912957
6.02649 0.662061 8.59989
2.39694 0.179946 1.2883
9.19082 0.459497 2.05902
9.35865 0.463783 2.3565
1.9328 0.598398 1.59728
6.23017 0.12339 1.44332
8.89365 0.180413 1.43141
2.01039 0.542419 2.27194
6.08291 0.575905 8.32076
2.9912 0.626393 2.29168
5.97393 0.313542 8.78706
3.48843 0.357218 1.79077
9.69048 0.282374 1.68018
4.65009 0.732189 8.302
4.9499 0.828613 1.92341
1.98344 0.874752 1.7973
9.79332 0.199157 1.58308
3.37539 0.804793 1.61275
6.12093 0.26698 8.1377
3.72401 0.424623 2.10323
5.70311 0.428194 8.31517
4.42056 0.585287 8.35067
3.70796 0.472005 1.89081
3.55064 0.637489 1.92259
6.45873 0.423378 1.84881
2.00702 0.621044 1.35042
3.55218 0.674722 1.8193
3.99225 0.606245 1.61725
3.09906 0.191564 0.972119
3.28385 0.850157 1.76572
5.72069 0.253599 8.41022
4.52067 0.610356 8.41006
1.91048 0.606406 1.43199
1.98802 0.639576 2.35866
6.92136 0.389984 1.59296
5.00526 0.487822 8.537
3.20448 0.307491 2.49222
3.49219 0.601925 1.31002
6.37965 0.24265 1.95888
6.67863 0.706403 8.02534
5.39192 0.601583 9.32408
1.99171 0.600894 2.3205
3.58191 0.369637 1.90152
6.84717 0.574251 6.58348
5.65898 0.678506 8.58273
5.21502 0.518704 8.88174
5.39001 0.862733 8.49852
2.76075 0.292726 1.82428
6.38273 0.156676 1.97273
8.20879 0.441324 6.8603
5.13469 0.50391 8.74627
2.20222 0.504797 1.25471
3.76554 0.797786 2.26912
7.25845 0.74495 6.30435
5.51919 0.297245 8.50732
5.56922 0.905451 8.92881
5.32325 0.208499 8.48411
3.72833 0.941688 1.80527
2.32526 0.379695 1.74315
2.08152 0.626032 2.0445
5.7205 0.312319 8.4437
3.01367 0.512109 1.53879
5.03115 0.384583 5.70103
5.24451 0.218319 8.77183
3.1179 0.481334 1.52671
3.25566 0.583771 1.67009
5.52277 0.546756 5.97186
6.17921 0.199731 1.82346
2.3247 0.376377 1.68134
1.98542 0.621293 2.13625
5.24898 0.666873 9.04899
3.34367 0.614152 1.56936
5.04663 0.357289 5.67657
5.24135 0.467854 8.59131
3.10271 0.540776 1.53859
3.03423 0.172582 1.36027
8.75509 0.502028 1.74609
6.14354 0.189733 1.84366
POINT_DATA 400
SCALARS particleColor float 3
LOOKUP_TABLE default
0 0.332913 1
1 5.96046e-08 0
0 0.5671 1
0 0.509979 1
0 0.167298 1
1 0.814875 0
0 0.883698 1
0 0.620616 1
0.223836 1 0.776164
0 0.799918 1
0 0.661207 1
0 0.882615 1
0.0155798 1 0.98442
0 0.952258 1
0 0.756098 1
0 0.664227 1
0 0.231555 1
0 0.71343 1
0.682215 1 0.317785
0.531876 1 0.468124
0 0.555725 1
0.616125 1 0.383875
0.0208737 1 0.979126
0 0.875141 1
1 0.0879472 0
0 0.98341 1
0.930734 1 0.069266
0 0.615391 1
0 0.569505 1
0 0.780881 1
0.373935 1 0.626065
0.608206 1 0.391794
0 0.250337 1
0 0.944703 1
0 0.560393 1
0.0596679 1 0.940332
1 5.96046e-08 0
0 0.345407 1
0 0.680096 1
0 0.395596 1
0 0.739858 1
0.00157636 1 0.998424
0.0793595 1 0.92064
0.885843 1 0.114157
0 0.706714 1
0 0.408326 1
0 0.340706 1
0 0.303668 1
0 0.70698 1
1 0.281779 0
0 0.564792 1
0 0.234044 1
0 0.452714 1
0 0.343266 1
0 0.511686 1
0 0.893573 1
0.134703 1 0.865297
0 0.70225 1
0 0.317296 1
1 5.96046e-08 0
1 5.96046e-08 0
0 0.918593 1
0 0.339923 1
0 0.587106 1
0 0.830161 1
0 0.89711 1
0 0.423454 1
0 0.705641 1
0 0.372317 1
0 0.871612 1
0 0.859517 1
0 0.313078 1
1 5.96046e-08 0
0 0.667906 1
0 0.539034 1
0 0.392746 1
0 0.789822 1
0 0.416845 1
0 0.690196 1
0.00250475 1 0.997495
0 0.26823 1
0 0.459742 1
0.0970308 1 0.902969
0 0.510078 1
0.00295377 1 0.997046
0 0.621443 1
0 0.557999 1
0 0.644979 1
0.252042 1 0.747958
0 0.261823 1
0 0.437359 1
0 0.283818 1
0 0.411635 1
0 0.553948 1
0 0.67021 1
0 0.765271 1
0 0.39718 1
0.066474 1 0.933526
0 0.533009 1
0 0.279243 1
0 0.983701 1
0.114808 1 0.885192
0 0.461644 1
0 0.467802 1
1 5.96046e-08 0
0 0.137823 1
0 0.504086 1
0.0435268 1 0.956473
0 0.227384 1
0 0.623616 1
1 0.600233 0
0 0.866814 1
0 0.861804 1
0 0.498697 1
0 0.371952 1
0 0.468914 1
0 0.39066 1
0 0.723635 1
0 0.151194 1
0 0.629893 1
0 0.270215 1
1 0.209779 0
0 0.472145 1
0.0642042 1 0.935796
0.0774953 1 0.922505
0 0.491617 1
0 0.139718 1
0 0.92661 1
1 0.215103 0
0.316821 1 0.683179
0 0.366921 1
0.545659 1 0.454341
0 0.600697 1
0 0.162169 1
0.648471 1 0.351529
0 0.855425 1
0.370416 1 0.629584
0 0.608865 1
0 0.540902 1
0 0.585664 1
0 0.563017 1
0 0.830183 1
0.771946 1 0.228054
0.276136 1 0.723864
0 0.508907 1
0 0.695525 1
0 0.337593 1
0 0.473851 1
0 0.509277 1
0.0306959 1 0.969304
0 0.585184 1
0 0.38677 1
0 0.649866 1
0 0.52184 1
0 0.119255 1
0 0.639346 1
0 0.277335 1
0 0.613407 1
0 0.300717 1
0 0.341758 1
0 0.269494 1
0 0.780934 1
0 0.403026 1
0 0.525065 1
0 0.838537 1
0 0.56923 1
0 0.906981 1
0 0.48801 1
0 0.343325 1
1 5.96046e-08 0
0 0.917432 1
0 0.597586 1
0.478706 1 0.521294
0 0.794213 1
0 0.613537 1
0 0.947218 1
0 0.443725 1
0 0.800837 1
0 0.593885 1
0 0.804893 1
0 0.456472 1
0 0.841787 1
0 0.843878 1
0 0.705487 1
0 0.388745 1
0 0.55309 1
0 0.678521 1
0 0.922932 1
0 0.815299 1
0 0.60209 1
0 0.270026 1
0 0.559409 1
0 0.752512 1
0 0.29711 1
0.275818 1 0.724182
0 0.540636 1
0 0.778349 1
0 0.412739 1
0 0.623856 1
0 0.715045 1
0 0.483928 1
0 0.634006 1
0 0.279888 1
0 0.748966 1
0.0648318 1 0.935168
0 0.472319 1
0 0.370822 1
0.50894 1 0.49106
0 0.426129 1
0 0.637019 1
0 0.486462 1
0 0.74008 1
0 0.798105 1
0 0.725017 1
0.382433 1 0.617567
0 0.609433 1
0 0.390987 1
0 0.768141 1
0.233583 1 0.766417
0 0.434316 1
0.185192 1 0.814808
0 0.936733 1
0 0.585209 1
0 0.540281 1
0 0.145514 1
0 0.552491 1
0.348443 1 0.651557
0 0.783944 1
0 0.284214 1
0.308369 1 0.691631
0 0.229127 1
0 0.847239 1
0 0.613 1
0 0.444564 1
0.0341909 1 0.965809
0.00297192 1 0.997028
0.00888443 1 0.991116
0 0.676886 1
0 0.781803 1
0 0.432866 1
0 0.847877 1
0 0.901113 1
0 0.470195 1
0 0.739258 1
0 0.685264 1
0 0.822629 1
0.0462477 1 0.953752
0 0.759622 1
0.223919 1 0.776081
0 0.277489 1
0 0.158327 1
0.0446247 1 0.955375
0 0.408987 1
0.0335021 1 0.966498
0 0.872784 1
0 0.472134 1
0 0.57172 1
0 0.532787 1
0 0.49657 1
0 0.351182 1
0 0.360365 1
0 0.98703 1
0 0.732277 1
0.00369197 1 0.996308
0 0.713889 1
0 0.303352 1
0 0.424296 1
0 0.805666 1
0 0.508751 1
0 0.282994 1
0 0.656454 1
0.603389 1 0.396611
0 0.303204 1
0 0.971685 1
0 0.744802 1
0 0.14456 1
0 0.5343 1
0 0.294414 1
0 0.71021 1
0 0.633078 1
0 0.605311 1
0 0.806601 1
0 0.522367 1
0 0.767045 1
0 0.949415 1
0 0.739532 1
0 0.314857 1
0 0.91146 1
0 0.22506 1
0 0.767936 1
0 0.7891 1
0 0.687728 1
0 0.573187 1
0 0.767536 1
0 0.581557 1
0 0.347766 1
0 0.466691 1
0 0.300877 1
0 0.533301 1
0 0.564777 1
0 0.4567 1
0 0.933942 1
0 0.646693 1
0 0.52656 1
0 0.7655 1
0.462124 1 0.537876
0.234847 1 0.765153
0 0.272256 1
0 0.924318 1
0 0.483576 1
0.20215 1 0.79785
0 0.610801 1
0 0.661827 1
0 0.640661 1
0.0901375 1 0.909863
0.198457 1 0.801543
0.223737 1 0.776263
0 0.784563 1
0 0.57696 1
0 0.591665 1
0 0.763808 1
0 0.627204 1
0 0.465989 1
0.0558994 1 0.944101
0 0.742997 1
0 0.629192 1
0 0.664309 1
0 0.662476 1
0 0.567353 1
0 0.822458 1
0 0.967794 1
0 0.148751 1
0 0.336399 1
0 0.282342 1
0 0.629494 1
0.28185 1 0.71815
0.111381 1 0.888619
0 0.440679 1
0 0.965347 1
0.01601 1 0.98399
0 0.607416 1
0.154397 1 0.845603
0 0.716786 1
0 0.757834 1
0 0.387383 1
0 0.352764 1
0 0.97146 1
0 0.38922 1
0 0.164078 1
0 0.89172 1
0 0.811638 1
0 0.730209 1
0.0739303 1 0.92607
0 0.744577 1
0 0.820476 1
0 0.599252 1
0 0.502688 1
0 0.977354 1
0 0.593856 1
0 0.484984 1
0 0.740653 1
0.0331999 1 0.9668
0 0.188526 1
0 0.743084 1
0.143282 1 0.856718
0 0.544423 1
0 0.470351 1
0.249688 1 0.750312
0 0.15366 1
0.0299348 1 0.970065
0 0.831652 1
0 0.785293 1
0 0.514944 1
0 0.854162 1
0 0.823275 1
0 0.383121 1
0 0.524648 1
0 0.391271 1
0 0.737221 1
0 0.487246 1
0 0.705926 1
0 0.580211 1
0 0.512469 1
0 0.498975 1
0 0.470943 1
0 0.505266 1
0 0.524859 1
0 0.656141 1
0.0275386 1 0.972461
0.125782 1 0.874218
0 0.763586 1
0 0.410391 1
0 0.516378 1
0 0.831116 1
0 0.304489 1
0 0.989556 1
0 0.675774 1
0 0.666492 1
0.123954 1 0.876046
0.138097 1 0.861903
