# vtk DataFile Version 3.0
Particle simulation
ASCII
DATASET POLYDATA
POINTS 400 float
6.5188 3.8896 2.09852
9.12088 9.76351 1.60553
7.01946 6.7415 6.25472
1.85241 0 9.10974
0.941484 1.53381 2.75927
4.44706 7.71851 9.77183
6.27816 2.72419 7.09502
7.46813 8.45692 3.2655
1.65329 1.66948 2.52084
6.02019 0.310604 9.20549
9.17915 1.39881 9.68219
2.33687 9.72371 8.90828
3.32517 9.87824 6.28924
6.82481 9.37984 0.324032
9.86669 1.60935 2.93304
7.42321 7.19505 6.26297
7.35666 8.48811 6.2726
4.09251 3.49945 5.42466
7.7874 8.99242 3.33248
0.327594 0.574477 3.19164
7.73281 4.6092 2.28431
0.924903 5.30923 1.82818
1.66642 4.93094 8.17913
9.77823 1.69132 2.90873
7.45879 9.15711 2.02371
2.98408 3.21193 9.06918
8.41373 2.47843 9.55075
5.54156 9.1181 0.548857
8.26997 1.28222 7.87076
9.93388 9.35419 8.27915
0.565175 6.68045 4.87329
1.62058 9.1648 0.354202
6.16344 5.21925 6.40867
8.69122 7.61636 9.34355
7.9063 2.31201 7.77219
9.26374 2.36718 8.59093
5.68508 8.66542 2.75373
3.91852 0.204066 5.86199
1.25752 2.78729 4.02465
5.0672 1.20189 1.63501
4.67564 7.39007 3.42773
6.25191 6.56988 5.39846
7.43409 1.72294 9.63509
2.62051 3.55284 8.97071
6.97038 6.07834 7.14745
6.77381 5.21399 7.97977
5.06809 2.29295 0
7.69322 2.6828 2.74872
2.02493 6.04964 6.97506
8.92057 9.58428 3.00835
1.46402 8.6575 3.35233
7.13224 3.83789 1.98
3.20105 4.01511 5.48375
6.14904 6.68636 2.2944
7.86583 7.42928 5.65391
5.81776 5.04104 2.51761
5.60306 6.71023 0.317926
1.94894 4.26011 6.08989
1.50273 2.42469 8.10882
8.71716 7.10719 1.53585
1.65919 0 9.04856
1.33695 8.86568 2.23625
5.6126 4.17706 7.1547
10 2.91945 1.16199
2.05699 10 8.82454
0.811689 1.80483 3.27034
4.70868 7.97453 5.10123
6.15149 0.860157 4.32221
7.89669 0.474039 1.77811
7.4081 2.32706 8.7327
4.98314 1.80066 0.66275
6.43864 8.72061 6.80428
9.03444 7.11 7.27846
6.49452 9.58009 4.41274
8.13513 10 7.31827
1.98351 7.41862 3.4158
2.04721 3.60965 5.55438
1.59411 4.43581 6.43622
1.85433 3.27323 1.30991
9.62175 0.669908 7.95368
3.86307 2.33834 5.22459
9.86574 3.22034 3.95005
8.64555 1.6662 5.47817
0.692115 0.968656 10
3.19528 7.35642 8.58772
9.55231 1.81924 2.67543
0 7.91994 4.30861
0.724741 4.0654 0.857246
4.73388 3.68234 5.97377
9.32441 1.76852 9.44686
9.91384 6.31097 0.348378
7.65821 3.19668 10
6.88268 7.07308 8.61938
1.30976 3.5178 9.39025
9.77101 0 8.52868
4.73701 8.21923 9.60817
0 7.64693 2.68605
0.989944 0.812315 0.21956
8.27588 3.19978 3.15092
6.38825 6.06034 9.45766
8.67152 3.88314 6.309
7.76331 3.8841 9.27113
8.31046 7.60682 10
4.19304 0.584532 7.04519
7.64425 0.462638 7.87669
3.26447 8.02592 8.30687
2.78143 3.10325 2.7621
0.253452 6.55966 1.15861
2.55828 3.07223 3.14198
1.25674 8.81065 5.43315
5.47818 8.96509 10
0.435956 7.23995 5.17904
8.38485 5.78545 6.47195
6.29398 4.96162 0.330502
7.37739 3.28438 5.4959
7.92238 0.557861 7.98208
0 6.35846 1.12976
3.82223 3.22996 2.64331
2.39326 2.72635 4.02463
9.5044 0.476697 0.0583353
8.81517 9.58806 1.24092
6.71422 0.815481 0.345802
1.98569 5.58436 9.44529
5.14829 6.15172 9.92992
4.8164 9.54254 0.21498
5.83013 9.11199 10
9.07984 1.14752 7.08992
2.8584 3.05033 6.81503
4.10237 0.432038 3.38686
4.42577 0.384155 8.75643
8.15354 1.79344 3.62091
8.89719 9.687 4.69739
1.51682 4.10018 5.37748
6.24444 0.505979 2.53908
0.134868 7.97171 9.73975
8.78909 3.75862 8.81201
0.771923 4.51327 4.71649
6.34633 7.12574 6.84523
5.1633 0.302837 2.58259
3.53624 2.68497 1.7721
4.90748 6.56642 2.85042
9.04497 1.14238 7.02909
8.10849 4.14832 1.25395
6.95177 5.28392 7.92569
8.85794 0.523268 1.23198
1.29143 8.5483 6.62405
0.260291 7.6876 3.02707
5.3624 4.71609 6.47425
5.28606 2.34521 8.53268
7.10573 0.537829 6.20733
6.84614 0.490006 7.60758
9.25254 0.545548 4.83003
4.78653 7.67949 7.4287
2.21702 9.87512 6.58596
0.178856 7.76887 9.54286
0.322303 4.217 1.18578
3.63298 7.5903 6.85551
3.30055 8.41304 7.50325
0.856755 5.54951 5.6797
7.03597 0.54971 5.70043
1.87771 5.46681 5.88672
7.75175 2.1838 9.05959
7.85717 9.07106 8.90405
9.42754 2.3416 8.16749
3.34604 7.8944 6.95268
6.30119 6.0117 6.73121
9.39437 7.53093 5.00003
4.91689 4.92355 8.51356
1.18932 8.45218 3.92635
3.39558 7.92809 3.01185
5.85949 5.556 6.15936
7.16618 0.882947 7.68766
9.38902 5.05997 0
9.01896 7.1846 2.24615
5.97312 4.30919 4.4455
5.71902 9.97587 6.92413
1.47632 8.09854 9.58316
3.03864 3.76144 0
8.94953 5.83831 1.16936
9.9233 0.0266442 3.78643
6.43777 1.36922 8.35407
8.21104 0.453038 7.92862
4.01429 2.6728 7.77685
0 3.09753 5.92642
8.22533 8.92148 3.56027
1.68371 3.94641 8.2712
8.53599 4.31922 5.89671
1.70547 5.46526 2.42428
7.87684 6.63035 7.25127
6.40362 9.48522 1.41964
0.515221 5.59852 0.824807
7.75487 1.23101 0.49105
0.10581 7.55403 7.42225
8.18946 6.65698 5.59695
8.87811 4.36592 6.39236
1.11369 5.83066 8.84251
5.71895 8.48426 7.18968
7.06323 3.54604 2.20163
7.50808 6.44317 2.21831
2.64665 1.35875 6.3211
4.089 7.04111 8.24552
2.15552 4.91264 4.20234
2.10929 8.31338 3.50147
7.58181 7.92935 4.21331
0.689063 0.889693 5.29322
8.30355 4.89686 1.55114
2.5496 2.31303 3.98685
4.97107 2.49081 8.71056
8.1589 2.13778 10
7.76374 2.46108 3.32204
0.123649 1.90602 9.75079
0.810305 9.90891 9.66816
3.04675 9.38502 9.62784
8.43978 2.54295 2.54166
6.5717 4.64343 0.843504
0 9.56439 6.1834
1.45774 6.49927 2.46922
7.46284 5.80799 2.91853
6.13858 1.70316 9.85701
5.48668 4.33571 0.777998
2.29533 3.46872 7.77509
1.48592 4.9402 6.15155
6.23487 2.01078 3.86614
6.13643 7.45539 9.25904
6.89814 9.21422 1.53258
5.34761 2.48487 7.33244
0.358514 8.11714 9.69559
3.3128 5.53885 7.18664
6.63859 0.434659 8.14984
7.33794 9.56338 7.61099
7.57116 1.0079 3.85578
7.92833 6.14846 2.9786
6.07668 7.25831 9.61012
0.512326 8.23812 5.45801
8.10204 3.32727 1.56554
1.47924 1.52453 1.50576
7.97718 5.9267 7.98091
4.95282 1.57309 0.951922
0.743959 3.91337 8.82192
1.10221 8.25242 8.9158
6.76221 0.504692 7.62525
7.54317 4.95858 1.21969
2.24765 5.5124 8.46523
6.85005 4.8297 0
8.38374 7.90332 5.24118
7.76213 0.432836 1.43594
6.77985 1.06433 8.91126
2.48942 5.78635 9.59632
2.23175 5.837 9.12056
2.44742 4.17687 0
9.60461 0.463332 8.89605
5.05455 0.470107 0.27501
2.7581 2.49259 1.38773
8.85423 5.23973 0.492435
6.62131 1.23837 8.63223
0.79444 6.33864 4.19966
2.64798 1.83643 4.71426
9.64651 1.61486 7.76763
7.52809 2.28763 2.64168
7.22117 2.84042 3.28861
6.93383 7.055 6.85603
3.70484 5.03803 2.27302
0.0880653 1.64633 8.02962
7.79154 4.76464 9.28768
9.27363 5.00634 9.24797
0.24777 2.21567 4.73565
5.07075 8.09193 6.81033
1.69477 1.19936 0.254728
3.40439 0 3.12718
2.39425 4.21851 1.49276
5.18022 1.46536 5.27836
3.1922 3.3295 9.81219
2.48426 0.203213 9.08678
1.01227 0.796196 9.969
2.57217 8.78385 2.78373
4.85703 3.57227 8.27547
7.88478 4.8574 1.69296
8.12219 7.78513 4.5006
4.68715 6.58111 9.2771
7.43128 2.61653 7.53146
1.56983 9.81607 4.7561
5.28487 4.22604 5.01668
2.75124 5.75626 3.02595
8.7344 4.76652 4.58582
1.1754 0.881839 5.97909
5.52078 1.60624 4.81673
1.83618 2.37255 6.51072
9.39995 0.310763 6.96399
1.70243 7.11799 1.60229
7.57275 8.27183 7.65332
8.3898 8.62414 5.40717
8.53914 4.35216 2.65584
6.65597 9.28399 4.35104
9.98381 5.03716 9.91683
5.90779 4.26139 1.76392
4.16398 0.533252 7.72389
7.89901 8.66499 8.1358
2.47099 2.20921 3.24716
6.75335 0.533581 7.46581
1.87231 0.608752 0.366975
4.23629 0.891048 0.403438
4.79097 3.07452 0.339859
6.76115 0.776825 2.6212
7.07888 1.18076 1.54918
6.43591 0.32815 8.26316
8.26858 6.31258 0.939948
1.19383 4.46646 0.219245
6.51724 0.256642 7.65155
8.82991 0.774703 2.62781
2.83301 1.13439 1.73673
0.908032 9.20406 7.63934
0.458917 1.90479 9.862
6.85659 9.43781 0
4.64111 1.47286 6.20555
6.34604 0.830752 5.53936
2.59653 5.79316 1.06414
9.45275 3.84001 2.83143
6.9335 0.845531 2.75199
6.38066 8.81931 3.42117
0.576663 4.35471 6.07794
5.93905 8.74492 3.18381
8.7321 0.566274 5.50534
4.49092 4.50356 7.95716
5.86757 0.615175 4.26859
6.51139 0.437297 7.96813
0.463764 1.6542 9.48827
1.85344 5.2168 3.72019
0.677341 7.06612 2.08629
7.12409 2.85424 5.27595
6.8212 0.376823 7.82093
3.41917 2.99551 9.50269
1.80249 0.749037 0.444115
8.73883 4.14437 6.74129
0 0.606508 7.77795
7.43447 7.62436 6.3207
2.24956 1.87024 4.85804
1.21745 4.79082 6.3115
6.49793 0.138913 7.65568
6.23849 4.266 0.338553
0 9.40807 0
1.9473 1.09757 2.08929
9.35028 2.20268 2.61925
1.13766 7.22848 3.89161
1.78905 0.814308 9.64873
2.10402 0.246302 1.03782
9.43583 9.24747 1.43634
1.81639 0.167059 2.15034
6.83992 3.41405 0.633877
7.23371 0.269452 7.83916
5.46729 2.71443 2.59084
6.60804 0.584742 8.01924
6.52095 0.234449 7.91592
9.28492 4.80003 7.38982
8.24701 9.31779 2.60876
7.09041 0.882813 1.07111
6.51941 0.377639 8.00834
4.73116 6.7385 3.82389
1.76241 2.76141 3.65236
5.10388 0.0642833 6.16253
6.83798 0.35532 7.61407
5.41379 9.21233 1.99502
0.143579 3.82034 1.22172
3.55237 2.47655 9.76193
6.76114 0.298701 7.59076
7.00489 3.52353 2.15665
5.35069 1.9852 1.5233
3.51596 2.64715 9.81837
2.00568 3.4534 5.71765
1.23006 2.27628 4.0488
3.39542 2.06423 9.61535
1.64438 0.174541 2.14435
7.81954 9.92674 5.38921
9.6802 7.25749 7.9692
6.725 0.233468 7.54857
6.7432 0.0569483 7.57269
8.73083 9.46504 2.02193
3.56754 2.71879 9.89718
5.44327 0.423491 3.34832
5.88726 1.94022 8.79609
6.76941 0.0452035 7.46664
6.41157 2.1758 9.66047
6.94553 0.541436 7.53771
1.53561 3.17648 9.46752
6.86247 0.258285 7.35353
0.663267 9.8605 0.417545
3.52685 2.75841 9.78022
6.74282 0.3096 7.66755
6.79675 0.537247 7.513
5.63381 1.41449 5.30733
7.7669 9.40484 8.74076
6.82386 0.199429 7.8162
6.8394 0.212137 7.83665
1.22377 4.38341 4.35927
6.79737 0.730896 7.49232
1.16381 2.44859 6.14898
1.82117 4.17012 1.99275
6.75621 0.430832 8.06107
8.26164 1.17183 7.30819
7.78183 9.40516 8.22797
7.65358 0.975876 3.61712
POINT_DATA 400
SCALARS particleColor float 3
LOOKUP_TABLE default
1 0.377132 0
1 5.96046e-08 0
1 0.768985 0
1 0.957584 0
0.19854 1 0.80146
0 0.696151 1
1 0.0981767 0
1 0.0388243 0
0.709773 1 0.290227
1 0.161931 0
1 0.448512 0
1 5.96046e-08 0
1 0.360884 0
1 5.96046e-08 0
0.147779 1 0.852221
1 5.96046e-08 0
1 5.96046e-08 0
1 5.96046e-08 0
0.369813 1 0.630187
1 0.918816 0
1 5.96046e-08 0
1 5.96046e-08 0
1 5.96046e-08 0
1 0.555384 0
0.43556 1 0.56444
1 5.96046e-08 0
1 5.96046e-08 0
1 0.549325 0
1 0.721047 0
1 5.96046e-08 0
1 5.96046e-08 0
1 5.96046e-08 0
1 0.691284 0
0 0.622158 1
1 5.96046e-08 0
0.671138 1 0.328862
0.844826 1 0.155174
0.982084 1 0.0179163
1 0.0439333 0
1 5.96046e-08 0
1 5.96046e-08 0
0.919175 1 0.0808246
0.701433 1 0.298567
0.181419 1 0.818581
1 0.50703 0
1 0.938546 0
1 0.501536 0
0.189086 1 0.810914
1 0.751455 0
0.509836 1 0.490164
1 0.66837 0
0.895014 1 0.104986
1 0.0379596 0
1 5.96046e-08 0
1 5.96046e-08 0
0.998107 1 0.00189292
0.73104 1 0.26896
0.868625 1 0.131375
1 0.727733 0
1 0.861873 0
1 0.868483 0
1 5.96046e-08 0
1 0.0380263 0
1 5.96046e-08 0
1 5.96046e-08 0
0.574632 1 0.425368
1 5.96046e-08 0
1 5.96046e-08 0
1 0.290516 0
0.270412 1 0.729588
1 5.96046e-08 0
1 5.96046e-08 0
0.802547 1 0.197453
1 5.96046e-08 0
1 5.96046e-08 0
1 5.96046e-08 0
1 0.323196 0
1 5.96046e-08 0
0 0.947936 1
0.556091 1 0.443909
0.114885 1 0.885115
1 0.355165 0
0 0.921997 1
0.901195 1 0.0988047
1 5.96046e-08 0
0.429825 1 0.570175
1 5.96046e-08 0
1 5.96046e-08 0
1 5.96046e-08 0
0.370673 1 0.629327
1 0.681173 0
0 0.775139 1
1 0.875902 0
1 0.22748 0
0.745398 1 0.254602
1 5.96046e-08 0
1 0.814338 0
1 5.96046e-08 0
0.493705 1 0.506295
1 0.280734 0
1 5.96046e-08 0
0.552239 1 0.447761
1 0.0562215 0
1 0.311767 0
0.535914 1 0.464086
1 5.96046e-08 0
1 5.96046e-08 0
1 5.96046e-08 0
0.95236 1 0.0476404
0 0.978453 1
1 5.96046e-08 0
0.688057 1 0.311943
0.0459801 1 0.95402
1 5.96046e-08 0
0.47302 1 0.52698
1 0.62674 0
0.955387 1 0.0446134
0 0.936995 1
1 5.96046e-08 0
0.823901 1 0.176099
0 0.923295 1
1 0.143305 0
1 0.210386 0
1 0.104941 0
1 0.69771 0
1 5.96046e-08 0
1 0.637166 0
1 0.581459 0
0.819861 1 0.180139
0.802628 1 0.197372
1 5.96046e-08 0
1 0.619197 0
0.333306 1 0.666694
0.0860929 1 0.913907
1 5.96046e-08 0
1 0.748228 0
0.332146 1 0.667854
1 0.856112 0
1 5.96046e-08 0
1 5.96046e-08 0
1 0.968356 0
0.672601 1 0.327399
1 0.750716 0
0.601756 1 0.398244
1 0.377524 0
0.419631 1 0.580369
1 0.52608 0
1 5.96046e-08 0
1 0.435203 0
1 0.210483 0
0 0.913023 1
1 0.210948 0
1 5.96046e-08 0
0.658507 1 0.341493
1 0.912677 0
1 0.904958 0
1 0.0659721 0
1 5.96046e-08 0
1 0.413478 0
1 5.96046e-08 0
0.751026 1 0.248974
1 0.96609 0
1 0.208469 0
1 0.257085 0
1 0.852108 0
1 5.96046e-08 0
0.0705283 1 0.929472
1 5.96046e-08 0
1 0.0229044 0
0.9954 1 0.00459987
1 5.96046e-08 0
0.474263 1 0.525737
1 0.380347 0
1 5.96046e-08 0
1 5.96046e-08 0
0.614848 1 0.385152
1 0.917687 0
0.91367 1 0.0863299
0.143413 1 0.856587
1 5.96046e-08 0
0 0.614963 1
0.556823 1 0.443177
0.172186 1 0.827814
1 5.96046e-08 0
1 0.662296 0
0 0.271742 1
1 5.96046e-08 0
1 0.351631 0
1 0.524355 0
1 0.704818 0
1 5.96046e-08 0
0.821075 1 0.178925
0.0920169 1 0.907983
1 0.854123 0
0 0.986937 1
1 5.96046e-08 0
1 5.96046e-08 0
0 0.535592 1
1 5.96046e-08 0
0.385969 1 0.614031
1 0.62225 0
1 5.96046e-08 0
1 0.313908 0
1 5.96046e-08 0
1 0.0390909 0
1 0.345821 0
1 0.65979 0
0.613513 1 0.386487
1 5.96046e-08 0
0.945053 1 0.0549472
0 0.981158 1
0.215902 1 0.784098
0.16258 1 0.83742
1 0.118904 0
0.642382 1 0.357618
1 5.96046e-08 0
1 0.350625 0
1 0.181371 0
0 0.753689 1
1 0.0972009 0
1 0.12907 0
1 0.945173 0
1 0.375471 0
1 0.881418 0
1 5.96046e-08 0
1 5.96046e-08 0
1 0.0740731 0
1 5.96046e-08 0
0 0.471309 1
0.0650313 1 0.934969
0.57081 1 0.42919
1 5.96046e-08 0
1 5.96046e-08 0
1 5.96046e-08 0
0 0.970318 1
1 5.96046e-08 0
1 5.96046e-08 0
0.825083 1 0.174917
1 5.96046e-08 0
1 5.96046e-08 0
0 0.355828 1
1 5.96046e-08 0
1 5.96046e-08 0
0.916045 1 0.0839548
0.645747 1 0.354253
1 5.96046e-08 0
1 5.96046e-08 0
0.516493 1 0.483507
1 0.66872 0
1 0.548136 0
1 5.96046e-08 0
1 0.1865 0
1 0.27732 0
1 0.318003 0
1 0.119548 0
0.0961346 1 0.903865
0.477749 1 0.522251
0.833957 1 0.166043
1 0.107898 0
0.410893 1 0.589107
0 0.740053 1
1 0.232592 0
0.800738 1 0.199262
1 5.96046e-08 0
1 0.543506 0
0.486365 1 0.513635
1 0.181731 0
0.163958 1 0.836042
1 0.214121 0
1 0.809825 0
1 5.96046e-08 0
0.855276 1 0.144724
1 0.489027 0
1 0.625788 0
0.750822 1 0.249178
1 5.96046e-08 0
1 0.769944 0
1 0.46688 0
1 5.96046e-08 0
1 0.863258 0
1 0.930197 0
1 5.96046e-08 0
1 0.647034 0
1 0.686546 0
0.280071 1 0.719929
1 0.411058 0
0 0.812539 1
1 5.96046e-08 0
1 5.96046e-08 0
1 5.96046e-08 0
0.975453 1 0.024547
1 0.266779 0
1 0.42901 0
0 0.795365 1
1 5.96046e-08 0
0.631452 1 0.368548
1 5.96046e-08 0
0 0.839261 1
0 0.451822 1
0 0.983958 1
0.868501 1 0.131499
1 5.96046e-08 0
0.607596 1 0.392404
1 0.793217 0
0 0.441116 1
1 5.96046e-08 0
1 5.96046e-08 0
0.0459013 1 0.954099
1 0.267341 0
0.159525 1 0.840475
0.530672 1 0.469328
1 0.735146 0
1 5.96046e-08 0
0.885842 1 0.114158
1 0.0434298 0
1 0.29671 0
1 5.96046e-08 0
0 0.863807 1
1 0.898284 0
0.988576 1 0.0114241
0.572312 1 0.427688
1 0.989793 0
1 5.96046e-08 0
0.148948 1 0.851052
0 0.453101 1
1 5.96046e-08 0
1 0.725641 0
0.115594 1 0.884406
0.838182 1 0.161818
0 0.480239 1
0.399249 1 0.600751
0 0.59098 1
0.950729 1 0.049271
1 5.96046e-08 0
1 5.96046e-08 0
0.560716 1 0.439284
0.731456 1 0.268544
0 0.606356 1
1 5.96046e-08 0
1 5.96046e-08 0
1 5.96046e-08 0
1 5.96046e-08 0
1 5.96046e-08 0
0.0766834 1 0.923317
1 0.858314 0
0.899918 1 0.100082
0 0.868184 1
1 0.7916 0
0 0.246349 1
1 0.350443 0
0.014969 1 0.985031
0 0.705394 1
0.179631 1 0.820369
1 0.363955 0
0 0.781795 1
0 0.771987 1
0.611119 1 0.388881
1 0.853989 0
0.589561 1 0.410439
0 0.67381 1
0.314217 1 0.685783
1 5.96046e-08 0
0 0.762316 1
0 0.400644 1
0.674477 1 0.325523
0.294922 1 0.705078
0 0.591217 1
0 0.786401 1
0.938581 1 0.0614193
0 0.491181 1
0 0.467073 1
1 5.96046e-08 0
1 0.812831 0
0 0.223529 1
0 0.50164 1
1 5.96046e-08 0
0 0.543313 1
1 0.551551 0
1 5.96046e-08 0
0 0.556718 1
0 0.427098 1
0 0.769362 1
1 0.677383 0
0 0.820508 1
1 5.96046e-08 0
0 0.339493 1
0 0.81944 1
0 0.836002 1
1 5.96046e-08 0
0.336544 1 0.663456
0 0.598698 1
0 0.658744 1
0.313792 1 0.686208
0 0.659562 1
0 0.703434 1
1 5.96046e-08 0
0 0.448187 1
1 0.684494 0
0.754367 1 0.245633
0.996907 1 0.00309259
