# vtk DataFile Version 3.0
Particle simulation
ASCII
DATASET POLYDATA
POINTS 400 float
1.56183 0.3798 9.17876
1.50545 2.01476 8.4828
9.08159 6.32548 8.42329
5.05103 2.99918 5.94248
8.54718 1.17916 8.07182
4.3006 7.23542 4.55026
5.36598 4.63736 4.45627
7.67749 3.56521 4.6005
7.24908 1.6381 1.16069
2.04466 0.935155 8.40599
3.53138 1.48187 3.02307
6.23292 3.83034 7.71667
8.96907 2.41033 3.93293
1.08287 1.76842 4.28538
0.220929 2.8798 2.17399
4.99389 3.08683 7.69946
2.46089 5.38758 1.29657
3.10895 0.323575 1.09598
7.68699 4.9969 9.40507
9.35564 0.472377 4.49636
3.24197 0.185551 1.38993
6.98389 2.58661 8.60087
1.03684 6.32565 2.2694
2.75577 5.96957 0.886507
8.90667 2.51693 4.29119
1.70093 4.69299 9.85461
9.21782 1.77822 2.28232
0.522934 0.126036 10
6.84911 5.83602 0.975247
7.28032 3.28697 8.76648
2.67873 3.44348 3.87266
0.487432 6.46602 4.08924
0.185675 9.24928 7.88186
8.05632 0.925649 2.76033
8.37897 5.38821 6.30334
0 0 4.10024
6.28065 0.221064 9.88334
3.62569 0.478588 0.827187
6.76946 2.68115 0.83283
1.66238 1.42895 8.61637
9.29054 2.19421 4.27781
7.0854 3.84413 8.07931
6.53157 5.29752 5.36419
4.59948 4.2268 9.43882
9.23849 0.281743 4.449
5.4431 0.481382 0.893633
5.4793 4.90472 6.75404
7.45015 3.00423 6.67561
5.65668 0.460704 0.669273
4.73934 0.79156 6.84705
4.11021 4.81986 5.13665
7.00454 1.95115 0.634096
7.87085 0.528176 5.99227
5.35156 1.5265 6.11798
5.50683 1.68908 7.95312
5.09466 0.373022 0.76866
8.74162 2.06485 4.90498
0.708296 1.21013 6.95652
6.39497 1.57495 1.01628
3.53056 3.78621 2.1796
3.52224 2.26974 5.95716
2.21642 4.72105 5.34753
8.79215 1.25628 8.37628
1.18526 1.03451 9.97035
3.19862 7.04946 3.159
1.38592 0.819012 9.43158
1.68786 1.38208 8.69241
4.7743 3.60343 0.309167
6.22347 1.51651 0.986592
5.30021 0.551312 9.00373
9.66948 0.61448 5.68556
3.14718 0.412786 2.41861
7.11721 5.13157 6.10779
1.0641 1.0686 9.87447
0.522563 1.39003 8.60484
5.43247 10 5.88866
3.47044 0.148054 7.56153
5.42431 0.736985 8.21862
1.85345 3.81345 0.951409
8.99659 0.555262 8.84795
3.47902 0.363028 1.28964
4.4491 0.89386 3.66697
1.36364 1.48087 4.71836
3.22893 0.393554 1.48463
0.0327923 0.321603 8.26189
2.52039 0.0295106 8.25909
5.32928 5.07695 4.04508
5.01286 0.259857 7.13443
0.630082 9.08478 1.67945
7.12178 0.444074 0.741235
3.52382 0.328483 1.38313
2.36343 0.367541 1.3304
1.49875 1.65357 8.66237
2.83363 0.766149 4.48583
1.46013 0.527964 9.51872
0.222447 0.892444 2.70033
7.74004 6.07459 2.44351
5.08328 6.94187 5.42933
4.30705 1.58613 4.41702
7.09607 0.366671 0.827803
3.29237 0.295045 0.927653
4.61981 1.8835 2.76853
3.88917 0.717444 4.75843
5.01036 4.13783 6.79117
3.11495 3.56486 7.33585
1.42044 0.52498 1.04081
9.36901 0.045081 9.80745
5.67466 0.680783 1.44312
5.03538 1.18385 1.31372
9.0399 8.33537 8.38938
6.8142 10 1.14484
2.70631 0.530851 8.11539
8.11868 5.03878 0.414686
4.62275 0.768067 0.496166
3.95873 0.530413 0.802691
0.744518 0.475756 2.95374
5.73883 0.916026 8.40287
8.91043 1.35246 2.99143
9.73125 0.196378 4.95032
1.9471 9.10614 5.1463
3.74398 0.374664 0.905137
6.0512 2.82774 5.76199
9.46598 4.78698 3.54429
4.12863 4.81283 9.12167
5.69102 1.8714 8.13835
3.02026 0.0223431 1.01695
9.10943 3.72261 5.51096
1.03348 0.945382 9.85833
0.135996 0.204958 9.10676
2.00663 6.47837 7.3582
3.91885 0.426904 2.0467
3.4677 3.08987 9.8518
7.75843 5.22552 6.20072
5.17465 0.524828 8.51234
0.790431 10 9.36707
0.532717 0.508509 1.06884
6.75667 8.24829 8.84031
1.02559 0.858764 9.73738
4.33956 1.00938 7.01899
4.97775 0.487973 8.21309
3.65696 0.208966 1.52347
3.84709 5.08466 9.34039
2.66514 2.82419 8.94927
6.92484 1.73698 8.60631
3.20038 0.555759 0.932517
4.90369 0.848211 3.94448
9.30338 0.187102 4.05348
0.217203 0.564454 1.04041
2.92356 0.418206 2.52723
5.39155 1.55218 5.72388
3.69724 0.166583 1.58617
7.47133 2.04246 6.56995
1.26994 0.702091 9.34902
2.45184 2.61345 8.29652
4.76351 6.55137 5.94593
5.80041 0.583118 1.32544
9.80136 0.228701 5.02231
4.20495 0.625328 0.39169
9.65139 2.92935 4.48762
2.93413 2.22882 1.13505
6.04132 0.208019 1.25284
3.15346 1.61295 5.79358
5.97157 0.334438 9.60694
2.39213 0.243028 0.0451706
3.95489 1.96489 1.79071
9.57529 1.6993 8.25265
5.69424 0.309958 7.91333
5.28539 0.197363 8.61853
5.92414 9.84591 5.22159
4.46905 2.26732 2.97086
3.68571 0.00125403 1.25678
4.51538 0.454376 2.09836
5.5423 3.52379 3.07191
0.593561 0.68049 0.231608
3.64549 0.332393 4.44789
8.81758 4.43859 0.351614
2.51643 0.23213 8.48672
3.38175 0.186378 7.60892
2.66462 0.154955 8.58098
1.17147 0.557005 1.18451
3.64703 0.422486 1.25593
5.6203 7.93449 8.57883
3.23453 1.97782 0.746018
3.98197 0.768194 0.836851
5.77332 0.0595971 7.94579
4.78766 0.993686 0.736445
3.55187 0.19937 1.4713
6.4583 4.18343 3.92707
9.19854 0.640989 4.31856
3.23355 0.474559 1.26296
3.22971 0.315341 0.951882
3.07223 0.193787 1.13058
3.53675 0.903184 5.31384
0.509779 0.183667 0.257008
6.61957 6.02561 2.0083
3.04526 0.398861 1.49871
3.4732 0.394332 4.33331
0.433459 1.50057 5.02476
3.33795 0.122004 1.11743
3.83158 0.0176243 1.21105
3.66652 0.201622 1.57421
5.60828 0.495153 0.949299
9.19429 0.727047 3.6239
2.48215 0 8.49739
8.60098 8.00579 8.76947
5.37231 0.465983 8.2269
3.35158 0.830764 1.29096
2.50792 1.88483 9.29765
0.545626 0.372154 4.81267
7.10493 0.323393 0.890983
3.30914 0.361361 1.19123
4.59054 0.644207 0.592812
9.87946 3.67344 7.2207
5.94984 1.80297 8.44893
0.958288 1.75028 8.6509
5.52203 0.592059 8.35002
3.02488 0.0640625 1.31201
2.66535 0.470081 0.995991
2.38688 3.82195 9.42432
6.80389 0.552038 0.698033
2.40319 4.55355 4.41658
9.69959 1.71284 8.53706
4.73896 0.242498 8.096
2.76369 0.47306 1.44277
5.30378 0.66064 8.75786
2.81654 0.391246 1.61196
9.22641 7.46024 0.284578
3.10146 0.176274 1.01487
3.2823 0.275146 1.40385
7.98546 0.579529 5.69895
3.49201 1.68665 5.92658
5.76581 0.39978 7.63598
9.24881 0.0457359 4.3143
3.22804 0.259598 1.04664
5.35228 0.736099 8.43827
1.26225 1.76631 3.95395
1.68279 1.13211 8.33139
3.70708 0.407803 5.32223
3.31217 0.48516 0.932888
4.74734 2.29734 4.89431
3.16765 0.691749 1.41325
3.19844 0.556925 1.79894
2.52595 0.506136 1.52715
3.87277 0.0829179 1.53767
5.59048 0.627562 8.30418
1.2363 0.361135 1.05561
1.52802 1.08781 4.22934
6.46538 1.42022 8.77004
3.21561 0 0.323075
4.73992 0.45202 8.62465
3.16263 0.229459 1.5414
7.18293 5.55903 6.7454
5.70091 0.348536 8.02611
3.81701 0.384258 5.11556
9.68365 0.358596 4.64199
2.93169 0.351197 1.46286
6.6234 1.32244 0.143326
4.75445 0.387769 8.52037
5.77543 0.304463 2.65335
5.51669 0.30778 8.1931
3.79987 0.382498 1.53822
8.35914 1.39386 2.77039
2.47582 0.106571 8.43147
7.44192 7.01451 2.04402
5.38879 0.158156 8.68829
6.89391 1.82708 5.17824
4.15753 0.512298 1.575
5.26022 0.549162 8.39882
9.23607 0.353859 4.23236
3.28086 0.65022 1.90988
3.69733 0.43243 0.651644
4.68819 0.773859 0.275948
4.79899 0.695729 2.10403
4.03274 0.590984 5.17696
4.72084 0.460821 8.57179
5.06318 0.337739 8.5665
2.9244 2.56708 8.84459
0.827387 9.93706 4.5141
0.738791 0.509739 4.71129
3.16104 0.234192 1.17056
6.96401 0.274151 0.903305
5.40716 0.872361 1.23226
1.31798 1.86228 2.07752
2.64316 0.188423 8.33456
9.07996 5.17203 7.86405
9.35009 0.44587 4.07055
3.24374 0.401737 1.17874
4.49813 1.133 3.79418
5.51007 0.51175 9.26979
1.88729 5.93384 6.94655
9.49595 0.0903583 0.982346
5.16861 0.115634 0.972574
3.34799 0.444349 0.738266
1.12082 0.953835 9.7984
5.84438 0.45271 8.17083
5.52429 0.388959 8.38303
3.01437 0.329074 1.66485
2.87555 0.335606 0.919685
4.67091 0.936748 3.84043
2.81417 0.336554 1.46102
6.98122 0.934013 0.3091
5.46045 1.91116 8.22842
2.71421 2.69686 8.87267
4.61973 1.14017 4.19532
3.60148 0.551685 1.44708
0.350457 0.300534 10
3.07593 0.55978 0.382553
3.57536 0.448686 1.30762
1.7532 0.949267 7.99381
4.12955 0.611832 5.09091
5.36688 0.65356 8.18222
7.59426 1.93986 6.40378
8.99641 0.190285 4.62475
3.13159 0.31668 1.52594
4.49273 0.810799 3.54017
1.20162 0.977906 9.47982
4.50719 0.666772 0.270756
5.73505 0.283918 2.53753
5.85485 0.96867 1.06039
3.20423 0.425267 2.64971
5.47562 0.251192 7.97142
1.426 1.26914 4.58635
5.80487 0.543185 7.86468
3.06087 0.176965 1.08545
6.88313 0.249315 0.901271
7.11505 0.29111 0.931763
3.54493 0.440285 1.05931
5.873 0.935533 1.14965
5.34698 0.624494 1.93302
3.01453 0.127754 1.65769
9.93847 1.75091 8.83219
3.11059 0.164013 0.852135
5.40378 0.869771 8.51476
2.87476 0.389589 1.31463
5.75109 0.738564 0.937926
9.09757 5.15765 7.49988
5.51768 0.121256 2.64178
2.99275 0.46551 1.42818
6.49507 0.783026 1.36012
3.55242 0.401741 4.46187
5.18481 0.546287 8.08494
3.54036 0.406953 4.24528
5.79634 0.558236 8.81218
5.95465 0.830099 8.66194
3.42562 0.388815 1.35174
3.51336 0.442268 0.856795
5.89242 0.887469 1.07677
2.91368 0.361356 1.46714
3.31274 0.38409 0.749494
3.18826 0.476968 4.28772
2.99459 0.539863 0.809501
3.63523 0.263575 1.03296
5.66232 0.643698 9.576
5.58533 0.341409 8.59241
3.53421 0.543515 1.13571
3.21357 0.37266 1.55491
5.53896 0.941786 1.37376
5.30783 0.657048 8.73472
3.33051 0.232863 1.4841
3.65957 0.456975 1.01535
5.46686 0.562675 0.93802
5.67005 0.348657 8.41471
5.30437 0.320102 8.33175
3.34767 0.276608 1.23546
4.14417 0 1.45026
9.20832 0.103475 4.79151
5.17217 0.615896 8.02797
4.98942 0.447279 9.53911
5.11283 0.151936 8.20503
4.08952 0.185245 0.904559
5.52063 0.555939 0.91813
7.54245 2.0477 6.36677
5.50957 0.468297 8.54937
3.33254 0.690701 1.87678
3.55912 0.381073 1.61149
9.31725 0.160031 4.37981
5.57451 0.464713 8.71395
4.91758 0.615988 8.27421
5.67695 0.504583 7.87231
3.15494 0.162571 0.900025
3.66862 0.189566 1.25923
3.42732 0.388837 1.36089
5.97234 0.296647 7.61988
3.11277 0.159452 1.06727
0.941974 1.02401 9.72515
5.66364 0.684095 8.4262
3.76387 0.183452 0.875451
3.56635 0.255727 1.23957
8.61443 2.5807 4.66922
5.49759 0.475787 0.607763
3.63595 0.169776 1.33234
3.16051 0.248226 1.49981
6.00476 0.501043 8.29791
3.39854 0.296523 0.923224
1.20155 0.922447 9.76154
5.79776 0.549341 8.23815
3.75555 0.160528 0.931968
2.97863 0.582529 4.29594
7.24561 0.0639017 0.945081
5.50388 0.474222 0.648872
POINT_DATA 400
SCALARS particleColor float 3
LOOKUP_TABLE default
0 0.463704 1
1 0.914015 0
1 5.96046e-08 0
1 0.490561 0
1 5.96046e-08 0
1 5.96046e-08 0
0.912695 1 0.0873045
0 0.63946 1
0 0.844988 1
0 0.891176 1
0.709072 1 0.290928
1 5.96046e-08 0
1 5.96046e-08 0
0.560743 1 0.439257
1 0.440143 0
0.212349 1 0.787651
1 0.570053 0
0 0.553465 1
0 0.876046 1
0.311609 1 0.688391
0 0.343818 1
0.325585 1 0.674415
1 5.96046e-08 0
1 5.96046e-08 0
1 0.37905 0
0 0.60392 1
1 0.300227 0
0.217139 1 0.782861
0.798721 1 0.201279
0.227632 1 0.772368
0 0.689868 1
0 0.872196 1
0.0611646 1 0.938835
0.313246 1 0.686754
1 0.180618 0
1 5.96046e-08 0
0.0454537 1 0.954546
0 0.227329 1
0 0.748679 1
0 0.767458 1
0.758589 1 0.241411
0 0.878496 1
1 0.911858 0
1 5.96046e-08 0
0 0.782928 1
0 0.55614 1
1 0.703289 0
0 0.91365 1
0 0.800543 1
1 5.96046e-08 0
0.223621 1 0.776379
1 5.96046e-08 0
0 0.711219 1
1 0.22405 0
0 0.692228 1
0 0.122447 1
0.279951 1 0.720049
0 0.811636 1
0 0.933371 1
1 0.786716 0
1 5.96046e-08 0
1 0.230801 0
1 5.96046e-08 0
0 0.335798 1
0 0.928877 1
0 0.718208 1
0 0.888997 1
0 0.981657 1
0 0.573344 1
0 0.436343 1
0.0489644 1 0.951036
0 0.562815 1
0.291796 1 0.708204
0.078813 1 0.921187
0 0.773468 1
1 5.96046e-08 0
0 0.921807 1
0.0858328 1 0.914167
0.343699 1 0.656301
0.587014 1 0.412986
0 0.755571 1
0 0.541681 1
0 0.748486 1
0 0.71 1
0 0.655257 1
0.366316 1 0.633684
0 0.972402 1
0.612223 1 0.387777
0.0295182 1 0.970482
0 0.777684 1
0 0.688516 1
0 0.471591 1
0.276993 1 0.723007
0 0.588821 1
0 0.799112 1
1 5.96046e-08 0
0.740119 1 0.259881
0.936581 1 0.0634193
1 0.98411 0
0 0.112682 1
0 0.282958 1
0.814617 1 0.185383
0 0.659595 1
0.83688 1 0.16312
1 0.976518 0
0 0.518626 1
0.335044 1 0.664956
0 0.514373 1
0 0.58552 1
1 5.96046e-08 0
0.361143 1 0.638857
0 0.373304 1
0.0996191 1 0.900381
0 0.22991 1
0 0.471235 1
1 0.449528 0
0 0.173122 1
0.170806 1 0.829194
0.745261 1 0.254739
1 5.96046e-08 0
0 0.520113 1
1 0.936121 0
1 5.96046e-08 0
0.533672 1 0.466328
0 0.23914 1
0 0.641745 1
1 5.96046e-08 0
0 0.499851 1
0 0.262113 1
0.613825 1 0.386175
0 0.565654 1
0.943878 1 0.0561221
0.406231 1 0.593769
0.3511 1 0.6489
0.753049 1 0.246951
0.608175 1 0.391825
0.644732 1 0.355268
0 0.727264 1
1 0.979191 0
0 0.541322 1
0 0.4191 1
0.178727 1 0.821273
0 0.720351 1
0.278432 1 0.721568
0 0.708458 1
0 0.854951 1
0 0.622087 1
0 0.285083 1
0 0.166324 1
1 5.96046e-08 0
0 0.6108 1
0 0.68565 1
0.0652437 1 0.934756
1 0.875607 0
0.929311 1 0.0706888
0 0.805743 1
0 0.757825 1
0 0.526333 1
1 0.775129 0
0 0.9324 1
0.215608 1 0.784392
0 0.457104 1
0 0.699358 1
0 0.249519 1
1 0.383174 0
0 0.905171 1
0.276559 1 0.723441
0 0.531695 1
1 5.96046e-08 0
0.17388 1 0.82612
0 0.365744 1
0 0.669958 1
0.10869 1 0.89131
0 0.978421 1
0 0.930571 1
0 0.930645 1
0 0.478267 1
0 0.592628 1
1 0.948539 0
1 5.96046e-08 0
0 0.545967 1
1 0.49672 0
0.548322 1 0.451678
0 0.568129 1
0 0.322818 1
0 0.596542 1
0 0.443546 1
1 5.96046e-08 0
0 0.817576 1
0 0.645007 1
0 0.453475 1
0 0.533376 1
1 5.96046e-08 0
0 0.872589 1
1 5.96046e-08 0
0 0.823257 1
0 0.735346 1
1 0.149371 0
0 0.194688 1
0 0.962173 1
0 0.628151 1
0 0.385556 1
0 0.39096 1
0 0.781961 1
1 0.540627 0
0 0.492241 1
0 0.683092 1
0.737858 1 0.262142
0.0316859 1 0.968314
0 0.218596 1
0 0.922233 1
0 0.855942 1
1 0.486081 0
0 0.822268 1
0 0.64011 1
0 0.78984 1
0 0.764553 1
0 0.44824 1
0 0.586729 1
0 0.458505 1
0.988276 1 0.0117237
0 0.952298 1
0 0.680478 1
0 0.368195 1
0 0.640374 1
0 0.763202 1
0.325204 1 0.674796
0 0.573659 1
0 0.84068 1
0.122233 1 0.877767
0.0335464 1 0.966454
0 0.651981 1
0 0.360149 1
0 0.93592 1
0 0.656151 1
0 0.756486 1
0 0.343611 1
0 0.917568 1
0 0.598978 1
1 5.96046e-08 0
0 0.640881 1
0 0.516837 1
0 0.721242 1
0 0.760579 1
0 0.779027 1
0 0.35173 1
0 0.771506 1
0.0660844 1 0.933916
0.174102 1 0.825898
0 0.451354 1
0 0.50817 1
0 0.65698 1
0 0.3044 1
0 0.34053 1
0 0.338092 1
0 0.595404 1
0 0.840527 1
0 0.743341 1
0 0.920015 1
0 0.591046 1
0 0.357273 1
0 0.944039 1
0 0.782471 1
1 5.96046e-08 0
0 0.243762 1
1 5.96046e-08 0
0.175607 1 0.824393
0 0.957192 1
0 0.694383 1
0 0.820648 1
0 0.770629 1
0.0675722 1 0.932428
0.0488638 1 0.951136
0 0.783544 1
0 0.922552 1
0 0.485566 1
0.26778 1 0.73222
1 5.96046e-08 0
0 0.914771 1
0 0.423701 1
0.0024204 1 0.99758
0 0.442687 1
1 5.96046e-08 0
0 0.918896 1
0 0.730347 1
0 0.518651 1
0 0.660568 1
0 0.593148 1
0.148259 1 0.851741
1 0.472116 0
0 0.219659 1
0 0.736052 1
0 0.847327 1
0 0.307341 1
0 0.58358 1
0 0.680017 1
0 0.515053 1
0 0.378717 1
0 0.382521 1
0 0.279684 1
0.144094 1 0.855906
0.0553844 1 0.944616
0.088435 1 0.911565
0.782242 1 0.217758
0 0.504896 1
0 0.734176 1
0 0.67628 1
0 0.551374 1
0.134711 1 0.865289
0 0.538878 1
0 0.851644 1
0 0.273646 1
0 0.419691 1
0 0.912131 1
0 0.991438 1
0 0.993316 1
0.268983 1 0.731017
0 0.666009 1
0.116113 1 0.883887
0 0.555265 1
0 0.466 1
0 0.790575 1
0 0.657038 1
0 0.85154 1
0 0.842284 1
0 0.387549 1
0 0.580368 1
0 0.396601 1
0 0.675242 1
0 0.868731 1
0 0.878872 1
0 0.622846 1
0 0.419234 1
0 0.978489 1
0 0.892049 1
0 0.8283 1
0 0.865216 1
0 0.429892 1
0.56072 1 0.43928
0 0.870854 1
0 0.62409 1
0 0.765108 1
0 0.223389 1
0 0.251764 1
0 0.520109 1
0 0.440016 1
0 0.461414 1
0 0.73063 1
0 0.979279 1
0 0.332702 1
0 0.945917 1
0 0.544463 1
0 0.461046 1
0 0.727349 1
0 0.888805 1
0 0.692104 1
0 0.334001 1
0 0.597773 1
0 0.871972 1
0 0.434274 1
0 0.616044 1
0 0.513903 1
0 0.685101 1
0 0.371557 1
0 0.748758 1
0 0.352187 1
0 0.553277 1
0 0.909223 1
0 0.345947 1
0.100347 1 0.899653
0 0.617011 1
0 0.456546 1
0 0.649137 1
0 0.785644 1
0 0.490137 1
0 0.649263 1
0 0.630294 1
0 0.451261 1
0 0.30103 1
0 0.473335 1
0 0.811299 1
0 0.447755 1
0 0.675212 1
0 0.816461 1
0 0.86724 1
0 0.569448 1
0 0.614148 1
0 0.754543 1
0 0.777439 1
0 0.473568 1
0 0.750258 1
0 0.496004 1
0 0.773367 1
0 0.3304 1
0 0.798317 1
0 0.300546 1
0 0.5259 1
0 0.621077 1
0 0.587066 1
0 0.291569 1
