# vtk DataFile Version 3.0
Particle simulation
ASCII
DATASET POLYDATA
POINTS 400 float
9.18548 2.2802 9.97104
1.70941 0.464881 8.46498
0.288822 2.05259 4.58012
1.74614 0.356443 1.08179
9.71268 0.76805 3.26964
1.85939 7.88655 7.74926
7.38778 1.78288 2.00228
7.14211 5.3092 0.998413
8.17064 6.80267 2.79058
5.91528 0.145623 5.2699
6.69049 2.8212 0.731707
4.41623 1.12193 3.53811
9.44586 8.66497 8.66659
5.99032 0.946831 1.83337
4.12363 2.77347 1.32042
8.96001 2.64595 8.12441
1.78505 6.68778 0.33779
3.55779 0.849613 2.4922
0.522703 1.04542 5.67899
6.08318 0.294207 6.04725
2.58164 0.296588 2.02733
5.28756 0.718434 8.24328
7.24257 5.39184 7.99472
5.83408 1.4333 3.49432
4.15035 2.85628 6.05351
3.78322 0.891972 2.4229
0.165633 3.51014 9.04445
3.23853 0.880407 2.07212
9.90909 0.359809 9.00493
3.50398 0.192311 0.583017
9.84234 8.97954 8.80375
7.40812 1.24416 2.78207
7.55113 1.26643 8.19138
5.43702 1.23901 3.33734
3.71896 0.316522 2.40592
0.45504 2.1751 0.779681
9.0749 0.503571 6.45151
2.89268 0.51836 1.63425
6.8254 0.807344 1.55037
2.49893 2.43827 2.92701
5.07532 0.742498 2.99021
9.05458 4.24942 5.25257
6.66016 8.23611 7.71478
2.68383 2.41625 7.70932
7.07364 0.317351 7.19697
6.07344 0.270891 1.65568
4.24304 0.582706 8.15591
3.23437 0.649044 1.46404
6.36333 0.271373 1.98375
1.07324 8.21328 8.08388
0.106006 3.97965 2.84006
7.52017 8.6201 5.36577
9.4003 0.516117 8.0853
5.90156 0.539134 5.22692
8.86644 0.594857 8.4765
6.41152 0.507281 2.06039
5.07499 0.255726 8.25555
1.62148 0.628917 3.29054
6.76308 0.207668 1.97158
3.10979 5.8982 5.6835
9.12327 4.15978 3.71448
5.55537 0.691184 7.87819
3.39159 0.475927 3.64346
5.99949 0.411023 4.98703
7.41426 6.05977 2.83122
5.49973 0.526997 1.00165
8.28881 0.199139 7.8231
0.249 3.96647 2.57164
6.14673 0.224794 1.84211
5.32491 0.713318 8.32343
5.73479 0.823488 7.55175
3.14159 0.77581 2.01929
2.29328 1.43291 6.76985
5.99742 0.378116 5.0918
7.74778 0.894391 8.04502
6.89577 0.525428 6.48811
8.28086 0.241486 7.89378
5.52365 0.44266 7.96398
7.64997 1.19577 3.19733
0.144675 3.9028 7.80778
2.62976 0.21123 1.76664
2.94504 0.467497 1.48356
2.63823 1.49087 1.34462
2.30269 0.34852 1.73679
5.52958 0.34109 7.96338
5.56296 0.597365 8.51966
5.06113 0.440349 7.86997
7.28181 1.62294 0.82236
6.8728 2.49449 0.348681
9.62032 0.294182 1.81401
2.72017 0.931179 1.27344
3.05415 0.418031 1.24431
0.264928 2.08907 8.6161
2.47145 0.409437 1.64329
5.5145 0.359614 8.02019
5.3256 0.758868 8.35948
4.4944 0.981259 9.27062
2.25503 0.720988 4.07263
6.61255 0.754736 7.08632
9.60556 0.34825 1.83645
1.90639 0.65854 1.62769
6.04552 0.430398 5.09331
0.398046 2.11859 0.941923
9.1761 0.750686 8.17595
9.88017 7.08969 9.21485
3.19036 0.339504 1.62181
4.27255 1.33714 9.12483
6.28109 0.479211 2.04921
6.2722 0.37379 1.94264
9.29035 0.206955 1.7099
1.15254 1.85902 7.65211
5.8364 0.0328981 5.77544
2.677 0.147914 1.45382
9.2281 0.328245 1.66583
3.22613 0.616153 1.5253
1.54893 0.845933 2.1947
5.58799 0.520598 8.89248
5.86011 0.697519 2.14172
6.22457 0.334749 1.94166
2.92306 0.36762 1.49642
2.85606 0.486562 1.41001
6.54772 6.13207 9.60011
7.65974 5.47724 9.72034
6.99105 0.68867 6.20086
7.69933 0.105297 8.07772
3.47262 0.722945 1.33105
3.74544 0.57387 2.21733
5.70759 0.267738 5.36883
2.76816 0.373113 2.09867
0.687527 0.570684 4.33649
2.84217 0.455634 1.35386
6.04014 0.0344141 1.8676
5.27515 0.738675 8.56196
6.86923 0.269612 7.22405
3.76574 0.108296 2.69939
2.22906 0.493549 2.38698
8.20252 6.54814 3.07782
5.98648 0.439775 5.29339
4.81283 0.838417 9.64823
9.08445 0.682901 7.99091
3.07531 0.149864 1.64214
8.71003 0.714749 8.06294
2.36724 2.58529 8.72085
3.00113 0.395043 1.68469
3.10816 0.260956 1.3414
2.10051 0.264837 2.47914
7.13596 0.262936 7.16654
1.22956 2.77618 2.37459
1.89027 0.493768 2.5195
2.12426 0.582168 2.72522
3.06396 0.161814 1.64245
7.81096 0.39008 7.43177
3.08152 2.4272 0.827909
4.38528 1.25085 9.22734
3.56999 3.9578 0.410583
3.61531 0.433019 2.67341
7.83533 0.384139 7.33893
2.48802 0.505112 1.50684
7.02297 0.268942 6.98787
2.34187 0.46568 2.16056
0.268875 2.0234 0.737955
0.30781 1.9966 4.41292
5.4451 0.502544 7.87173
2.32524 0.271841 2.23564
0 4.13964 2.92123
8.70537 0.76014 8.20825
6.02973 0.759204 8.84823
5.06121 0.529339 9.23045
6.31435 4.45114 7.43103
5.41215 1.13225 2.37294
2.11506 0.522861 1.61589
2.92654 0.900584 2.13753
6.24509 0.547167 4.53196
2.91508 0 1.1825
2.4659 0.416758 2.41467
0.816144 1.65825 0.638707
5.35415 0.705751 8.92751
5.47309 0.408638 8.1011
5.77507 0.615133 8.08385
4.17504 0 7.607
2.30826 0.33755 1.70102
3.61914 0.443062 1.19418
7.59751 5.02697 9.59972
3.21546 0.325533 1.12967
5.43852 0.297281 8.22033
3.0055 0.871399 1.55032
2.21716 0.538131 2.69767
0.369861 2.35225 8.71343
7.22529 0 6.50894
2.51024 0.485814 2.21422
2.23424 0.303332 1.68516
2.30237 0.535867 2.5856
5.62578 0.331697 8.42602
2.43406 4.24337 3.85797
1.72112 7.90739 7.33525
2.24994 0.241699 1.85329
2.23348 0.243527 1.54969
5.21004 5.64043 8.85322
2.37468 0.492081 2.89948
3.4691 0.260619 0.779251
3.01868 0.423401 1.63835
6.07147 0.391482 1.67733
6.93879 0.306978 6.79433
4.34207 1.63999 9.36935
8.8989 1.73634 6.65118
5.90375 0.461956 9.07217
3.18936 0.467124 1.53463
1.62259 0.524874 3.35541
1.61341 0.437656 2.32671
9.21256 0.410619 1.81913
2.43359 0.251699 1.92074
5.93278 0.348558 2.10304
5.73804 0.0200192 8.54276
8.58181 0.542864 8.36853
5.55532 0.654475 5.67163
5.90576 0.710179 9.06603
3.16302 0.484973 1.51806
1.85319 0.728247 2.06239
2.71221 0.057711 3.25516
9.34106 0.263783 1.8428
1.6025 5.16869 6.36133
8.59191 0.533057 8.02675
4.2703 1.37889 8.94656
3.14707 0.400498 1.50511
5.22374 0.523528 9.10747
3.11288 0.157945 1.43165
4.16095 2.45481 0.908081
2.15004 0.340689 2.78676
3.49671 0.840173 1.83188
5.12167 0.426102 8.87693
5.95702 0.453209 5.26423
5.53806 0.779999 8.69004
7.13461 0.345379 6.79999
2.87243 0.324436 1.72012
5.3879 0.490924 8.6707
4.00286 0.981611 2.12992
7.1874 0.227323 7.33644
2.40042 0.543903 1.45426
2.20863 0.298315 2.6076
1.39105 0.487764 2.61665
2.2674 0.540376 1.72555
2.61092 1.25583 1.00468
2.74791 0.606286 1.3388
2.21838 0.32537 1.3497
5.48691 0.619396 8.82572
3.25652 0.294493 1.15184
3.08499 1.06368 1.49957
5.8366 0.185626 8.76658
6.5724 0.131711 1.89809
5.24453 0.681576 8.73048
3.3676 0.434003 2.17315
5.89334 1.15821 1.43866
5.23649 0.531383 8.48399
3.76475 0.0782197 2.95219
6.9609 0.0434745 6.4846
3.01338 0.109788 1.63604
8.79712 0.0959461 1.50093
5.54079 0.370547 8.90981
6.13729 0.283508 1.9055
5.23632 0.707043 8.70571
1.97183 0.632999 2.57218
3.8493 8.6093 6.35484
4.27144 1.15275 9.04089
5.95121 0.903322 1.41535
5.84117 0.453379 8.58185
2.28075 2.6561 7.58636
5.43641 0.606228 0.449751
5.22527 0.629388 8.66498
6.8394 0.0767235 6.85106
3.15467 0.694187 1.94295
2.84456 0.287794 1.93458
6.54677 6.21125 4.70467
3.60853 0.505923 2.78135
5.63148 1.17935 0.653984
5.17303 0.330573 8.39614
4.18667 1.11854 9.52067
5.71094 0.32604 5.18448
3.67044 8.13544 7.05514
6.71925 0.265341 6.2713
2.37034 0.251673 1.74135
9.02929 0.327513 1.61713
6.03819 0.198568 2.16794
5.61419 0.741946 1.03765
5.78817 0.239857 4.55512
5.69657 0.333831 4.06271
6.99728 0.469077 6.52848
2.68762 0.530076 1.58209
3.32422 0.363288 1.2063
9.39686 0.595505 7.89233
9.92311 3.95884 0.385388
9.7443 0.638092 1.9757
6.10794 0.257055 2.06398
3.20218 0.623699 2.04558
6.10147 0.394305 4.88001
5.07822 0.312046 9.16236
4.85846 0.574045 9.03301
3.55308 0.604722 0.869399
3.39154 0.612915 1.77303
2.68687 0.462056 2.43636
3.09303 0.32643 1.40526
9.38001 0.258193 1.66547
9.55874 0.557015 8.09498
1.52565 0.0790369 3.46112
6.00324 0.0711074 1.75775
1.4845 0.395711 2.87525
7.04724 0.167999 2.04143
1.68011 0.586015 2.48227
2.41493 0.331448 2.81274
1.72365 0.392314 3.55132
3.18722 0.535901 1.97949
6.21993 0 5.21193
7.90196 0.222658 7.50187
7.17962 0.226396 6.88539
2.37109 0.125901 2.05454
3.07757 0.680594 2.26198
6.62419 0.392335 5.27424
3.60536 0.564424 0.923603
5.85604 1.37131 1.22837
6.33035 0.529657 1.96085
3.37433 0.91714 1.93248
4.88785 0.0522043 9.04997
3.66893 0.236009 2.91217
5.36214 0.594781 8.74006
1.85287 0.392119 2.35002
9.52195 0.106 1.84607
9.3741 0.502009 1.95469
2.12241 0.538395 1.83278
6.05519 0.0297138 1.61504
9.54191 0.299182 1.94052
2.26685 0.399035 1.61671
4.8581 0 8.97165
3.27695 0.739801 1.57362
5.55928 0.301389 8.51323
3.28102 0.247286 1.73992
9.27666 0.4374 1.91412
4.46695 1.17088 8.92721
3.11106 0.149859 2.77571
2.69093 0.749539 1.59949
9.11258 0.380209 1.89847
3.52308 0.9057 2.14167
5.12993 0.465242 9.25014
3.30295 0 1.63496
5.21016 0.476555 8.69904
4.48881 1.40828 9.15837
3.25584 0.372052 1.65785
2.98406 0.251386 1.65388
6.50476 0.40837 1.98654
1.9912 0.779761 2.42674
2.97784 0.344845 1.56465
2.66942 0.528794 2.37334
3.57234 0.32956 2.60761
3.25668 1.01071 2.19226
5.57466 0.186387 8.32751
4.39266 1.42852 9.19225
1.96118 0.647773 1.99671
2.40089 0.329312 1.43871
5.84239 0.472139 1.6318
5.33038 0.669991 8.93994
3.2698 0.331762 1.64621
2.96195 0.410491 1.46653
6.29609 0.518204 2.127
8.05578 0.154675 7.2702
5.54388 0.357617 7.9069
2.16913 0.264473 1.07318
2.24945 0 1.82717
7.11225 0.304159 7.00769
5.50106 0.64292 8.80949
4.95595 0.329097 8.24608
5.28585 0.932009 8.61469
2.95229 0.750273 2.07769
6.32006 0.483971 2.10897
7.73285 0.383541 7.51129
5.42933 0.602973 8.26549
2.30941 0.629315 2.95389
1.96156 0.273759 1.64299
7.31931 0.299767 6.89768
5.29608 0.293914 8.68752
5.55798 0.955816 8.31482
5.60738 0.449899 8.91949
2.56353 0.856912 1.31793
2.58281 0.210361 1.60547
2.28758 0.267075 1.70757
5.45362 0.563499 8.7404
3.07678 0.584971 1.58394
5.90984 0.350012 5.32519
5.5464 0.539773 9.05856
3.03236 0.555407 1.98014
3.39321 0.695341 1.70345
6.43009 0.122781 4.79587
5.63132 0.20793 2.08541
2.66798 0.199963 1.62971
2.37777 0.407217 1.74168
5.56305 0.776322 8.15175
2.81097 0.440045 1.48234
5.89336 0.367628 5.33519
4.60768 1.17685 9.23362
3.05152 0.689082 2.05367
3.87917 0.5358 2.21081
8.74096 0.400451 1.89301
5.66154 0.178851 2.10243
POINT_DATA 400
SCALARS particleColor float 3
LOOKUP_TABLE default
0 0.419115 1
1 5.96046e-08 0
0 0.656142 1
0 0.38432 1
0 0.22776 1
1 0.692349 0
0 0.750931 1
0 0.62568 1
0.2739 1 0.7261
0 0.657132 1
0.301631 1 0.698369
0 0.577431 1
0.399453 1 0.600547
0.112402 1 0.887598
0 0.130103 1
0 0.767301 1
0 0.196558 1
0 0.452113 1
1 0.906301 0
0 0.939481 1
0 0.814392 1
1 0.917993 0
0 0.958787 1
0 0.272059 1
1 0.404851 0
0 0.828111 1
1 0.878754 0
0 0.836488 1
0 0.630947 1
0 0.598562 1
0.324291 1 0.675709
0.999927 1 7.31349e-05
0 0.133407 1
0 0.751846 1
0 0.921813 1
0.0196066 1 0.980393
0.0614274 1 0.938573
0 0.575637 1
0 0.341045 1
0 0.388811 1
0 0.989351 1
0 0.891576 1
0 0.985398 1
0.159824 1 0.840176
0 0.328994 1
0 0.608745 1
0 0.886213 1
0 0.338028 1
0 0.51162 1
0.305728 1 0.694272
0 0.55735 1
0 0.317762 1
0 0.725348 1
0 0.781446 1
0 0.465684 1
0 0.538797 1
0 0.624668 1
0 0.380952 1
0 0.248668 1
0.993628 1 0.00637174
0.28978 1 0.71022
0 0.530366 1
0 0.286386 1
0 0.641959 1
0.245908 1 0.754092
0 0.630913 1
0 0.274606 1
0 0.542231 1
0 0.615466 1
0 0.813797 1
0 0.839978 1
0 0.795539 1
1 5.96046e-08 0
0 0.801368 1
0 0.816084 1
0.147135 1 0.852865
0 0.444821 1
0 0.484312 1
0 0.980394 1
0.293505 1 0.706495
0 0.62784 1
0 0.406434 1
0 0.412445 1
0 0.525899 1
0 0.699385 1
0 0.881422 1
0 0.72801 1
0 0.674694 1
0 0.549815 1
0 0.614181 1
0 0.410175 1
0 0.884683 1
0 0.542473 1
0 0.487092 1
0 0.846778 1
0 0.733462 1
0 0.902524 1
0 0.758384 1
0 0.825971 1
0 0.568747 1
0 0.72773 1
0.775322 1 0.224678
0 0.590582 1
0.323649 1 0.676351
1 0.0294676 0
0 0.472196 1
0 0.743781 1
0 0.757758 1
0 0.413281 1
0.231488 1 0.768512
1 0.770069 0
0 0.312813 1
0 0.9062 1
0 0.451211 1
0 0.385536 1
0 0.391774 1
0 0.36236 1
0 0.796925 1
0 0.267543 1
0.53173 1 0.46827
0 0.693418 1
1 5.96046e-08 0
0.214898 1 0.785102
0.812488 1 0.187512
0 0.613295 1
0 0.446797 1
0 0.389257 1
0 0.863532 1
1 0.113481 0
0.310998 1 0.689003
0 0.664199 1
0.157926 1 0.842074
0 0.556095 1
0 0.841047 1
1 0.887812 0
0 0.332161 1
1 0.838072 0
0 0.851808 1
0 0.62188 1
0 0.420658 1
0 0.750268 1
0 0.786002 1
0 0.764426 1
0.570645 1 0.429355
0 0.748632 1
0 0.799643 1
0 0.619775 1
0 0.558141 1
0 0.493623 1
0.277253 1 0.722747
0 0.687932 1
0 0.323736 1
0 0.345953 1
0 0.423468 1
0 0.189886 1
0 0.299135 1
0 0.890334 1
0 0.53031 1
0 0.391506 1
0 0.338264 1
0 0.706862 1
0 0.770108 1
0 0.633241 1
0 0.622863 1
0 0.206268 1
0 0.273978 1
0 0.720339 1
0 0.471655 1
0 0.352531 1
1 5.96046e-08 0
0 0.654692 1
0 0.730656 1
0 0.727978 1
0 0.727312 1
0 0.518567 1
0 0.538683 1
0 0.541633 1
0 0.857978 1
0 0.0955549 1
0.0341908 1 0.965809
0 0.461116 1
0 0.198796 1
0 0.836762 1
0.482843 1 0.517157
0 0.807152 1
0 0.649455 1
0.0728645 1 0.927135
0 0.536234 1
0 0.655541 1
0 0.3229 1
0 0.558774 1
0 0.427278 1
0 0.846466 1
0 0.318951 1
0.452601 1 0.547399
0 0.669941 1
0 0.800254 1
0 0.396954 1
0 0.172086 1
0.0614986 1 0.938501
0 0.692793 1
0 0.565917 1
0 0.969664 1
0 0.757123 1
0.326487 1 0.673513
0 0.237294 1
0 0.498116 1
0 0.284181 1
0 0.804649 1
0 0.571838 1
0 0.240329 1
0 0.805501 1
0 0.372789 1
0 0.604261 1
0 0.558467 1
0 0.536805 1
0 0.504378 1
0 0.682729 1
0 0.607962 1
0 0.475511 1
1 0.907062 0
0.441885 1 0.558115
0 0.524331 1
0 0.38201 1
0 0.521512 1
0 0.402726 1
0.320297 1 0.679703
0 0.762258 1
0 0.572685 1
0.0121901 1 0.98781
0 0.472835 1
0 0.751891 1
0 0.396808 1
0 0.835059 1
0 0.918532 1
0 0.495596 1
0 0.772163 1
0 0.995725 1
0 0.228627 1
0 0.88126 1
0 0.559998 1
0 0.582829 1
0 0.706347 1
0 0.935416 1
0 0.743192 1
0 0.965144 1
0 0.925257 1
0 0.588773 1
0 0.159475 1
0 0.110997 1
0 0.539838 1
0 0.810427 1
0 0.317023 1
0.0665711 1 0.933429
0 0.580344 1
0 0.530185 1
0.0959341 1 0.904066
0 0.86652 1
0 0.601888 1
0 0.313024 1
0 0.168659 1
0 0.738988 1
0 0.30993 1
0 0.858469 1
0 0.435836 1
0.714192 1 0.285808
0.198133 1 0.801867
0 0.877822 1
0 0.263803 1
0 0.387749 1
0 0.432021 1
0.255611 1 0.744389
0 0.888791 1
0 0.538312 1
0 0.0501989 1
0 0.18068 1
0 0.347667 1
0 0.375501 1
0 0.81065 1
0 0.388416 1
0 0.177428 1
0 0.669047 1
0.224711 1 0.775289
0 0.233996 1
0 0.886246 1
0 0.621572 1
0 0.517997 1
0 0.981132 1
0 0.599655 1
0 0.845593 1
0 0.55375 1
0 0.388676 1
0 0.99416 1
0 0.80756 1
0 0.38327 1
0 0.678005 1
0 0.904924 1
0 0.84426 1
0 0.902384 1
0 0.858499 1
0 0.606634 1
0 0.649179 1
0 0.264974 1
0 0.744314 1
0 0.280122 1
0 0.679082 1
0.0824151 1 0.917585
0 0.438927 1
0 0.713333 1
0.108809 1 0.891191
0 0.702557 1
0 0.551041 1
0 0.74944 1
0 0.684629 1
0 0.43971 1
0.117023 1 0.882977
0 0.683729 1
0.318297 1 0.681703
0 0.267103 1
0 0.480335 1
0 0.153556 1
0 0.716461 1
0 0.838002 1
0 0.760859 1
0 0.647137 1
0 0.618363 1
0 0.707857 1
0 0.506662 1
0.21454 1 0.78546
0 0.85311 1
0 0.238498 1
0 0.312651 1
0 0.748762 1
0 0.519517 1
0 0.784117 1
0.0895891 1 0.910411
0 0.525077 1
0 0.69595 1
0.523436 1 0.476564
0 0.492279 1
0 0.77214 1
0 0.182429 1
0 0.791974 1
0 0.644487 1
0 0.527889 1
0 0.310997 1
0 0.610958 1
0 0.427609 1
0 0.217391 1
0 0.599646 1
0 0.624172 1
0 0.391868 1
0.0694053 1 0.930595
0 0.751891 1
0 0.470223 1
0 0.914343 1
0.126207 1 0.873793
0.234717 1 0.765283
0 0.499926 1
0 0.960381 1
0 0.602912 1
0 0.424614 1
0 0.476739 1
0 0.60124 1
0 0.800498 1
0 0.689746 1
0 0.54146 1
0 0.860535 1
0 0.440029 1
0.246177 1 0.753823
0 0.698189 1
0 0.426319 1
0 0.889882 1
0 0.657868 1
0 0.879184 1
0 0.467765 1
0 0.240505 1
0 0.100235 1
0 0.935016 1
0 0.212454 1
0 0.73222 1
0 0.303069 1
0 0.311833 1
0 0.98725 1
0 0.838985 1
0 0.929555 1
0 0.460004 1
0 0.597072 1
0.0594995 1 0.9405
0 0.301653 1
0 0.728127 1
0 0.410034 1
0 0.774806 1
0 0.812483 1
0 0.764179 1
0 0.230508 1
0 0.44006 1
0 0.194459 1
0 0.837265 1
0 0.384653 1
