# vtk DataFile Version 3.0
Particle simulation
ASCII
DATASET POLYDATA
POINTS 400 float
1.40994 0.150907 1.03729
1.67717 0.779603 1.35971
2.55433 0.729961 2.23202
1.87079 0.153527 1.74213
8.1187 0.8467 4.69603
6.44063 0.407189 4.62362
8.9616 3.01346 0.85985
2.33226 4.22813 3.38129
6.11117 0.215572 0.584088
8.289 0.546132 2.09939
1.96444 0.112232 1.94444
1.25767 0.518632 0.500841
1.63264 0.490999 2.32714
1.83912 0.198234 1.72658
8.22934 0.871384 4.5257
3.99634 5.2376 7.16765
5.31005 0.0803372 2.09401
2.19417 0.337335 2.56782
9.89354 0.122681 0.221095
8.34263 0.472728 2.17353
2.27929 0.840937 1.38574
6.20253 0.469718 4.04053
1.70767 2.30604 6.11125
8.18958 0.431211 1.99472
3.84598 1.30474 5.61171
2.27103 0.55235 0.984273
6.00591 0.69443 7.36331
2.61472 0.740211 2.13165
4.81583 0.37975 3.55335
1.89087 0.0768799 1.36822
6.8918 0.541996 0.924675
8.61464 0.599578 0.996872
3.51196 9.46146 8.1558
8.17963 0.46849 1.98672
1.14248 1.4984 2.22178
2.26087 0.484885 0.955151
5.97306 0.683152 7.62613
2.03947 0.434749 3.07873
4.84198 0.502197 1.75395
1.61631 0.933408 0.75332
1.04187 0.649352 0.777424
4.52207 0.275568 0.701619
3.89858 0.678677 3.81058
8.65722 0 2.21854
5.22278 0.683223 6.52833
4.47022 0.507001 1.8722
3.21921 1.28635 1.30387
1.97823 1.05107 3.30527
4.36972 0.26878 1.97047
6.78672 0.414008 5.14804
0.98728 0.603395 0.938123
4.52292 0.173376 0.72264
3.66953 0.682872 2.82285
8.66943 0 2.23679
5.26758 0.680959 6.53528
4.51453 0.496009 1.85293
3.56341 0.198543 6.59576
2.23073 0.554661 3.12626
4.39773 0.286082 2.02442
5.11058 0.856875 7.7426
5.12521 0.928452 2.78385
2.32161 0.86522 3.20256
5.12785 0.960258 8.00845
8.14447 0.96769 1.38049
5.54185 0.2209 7.99688
4.87144 0.417778 7.46206
3.50257 0.707379 2.89254
1.13339 0.6442 0.473603
4.3697 0.323236 2.1542
3.30403 0.339894 6.64459
5.10257 0.953787 3.16243
2.50894 0.069734 1.25205
4.57849 0.821005 6.22163
8.16946 0.969495 1.38799
5.63052 0.574309 7.89344
4.95482 0.380562 6.63467
3.48709 0.671961 2.86724
3.35072 0.634726 6.07641
4.35394 0.300666 2.17849
3.28243 0.320374 6.62477
1.64005 0.365163 1.58564
2.25838 0.122426 1.2456
1.14943 0.47037 1.30379
2.67235 0.178802 1.99505
4.69396 0.364922 6.67427
3.15852 0.213367 5.88066
5.58856 0.505006 6.50962
2.43302 0.836825 2.35547
1.49216 1.12623 9.82763
6.51584 0.386222 1.26615
1.52471 0.300823 1.13683
2.52696 0.695951 2.18597
4.50811 0.0533818 0.534796
2.66686 0.209609 2.01954
4.71802 0.397304 6.68755
3.17514 0.25778 5.87209
3.1963 0.550511 5.99235
1.83096 1.20123 3.12069
1.79871 0.180224 6.86874
6.52466 0.424008 1.21832
2.46214 0.615064 2.30033
7.63334 0.927018 0.314048
2.0988 0.379016 1.72229
7.68495 0.0831933 1.12678
8.32146 1.29109 1.20854
2.11109 0.397187 2.95144
2.7595 0.38784 6.2316
5.20481 0.0496508 1.63851
4.41401 0.282679 1.89041
6.53409 0.546189 1.14651
0.646723 0.451562 0.919089
8.20156 0.693409 1.43459
1.8107 0.297604 1.66486
6.63863 0.398918 0.774576
1.92747 0.267098 2.58597
2.21184 0.40212 2.8839
3.26064 0.380666 6.19332
4.20252 0.249117 1.94473
4.41399 0.291585 2.04836
2.0192 0.298701 2.34163
2.6077 0.159565 2.01129
4.79911 0.588321 1.18901
4.96186 0.559028 7.1257
5.04816 0.46007 3.51249
3.69853 0.332615 7.21787
2.04033 0.481688 1.54357
1.84307 0.817141 3.128
8.75572 0.443447 2.0274
4.93185 0.785384 6.90677
2.72057 0.359904 2.21274
2.60039 0.164098 2.0001
4.85575 0.300591 1.95892
4.64862 0.407162 6.2852
4.92138 0.485361 3.58058
3.0397 0.454773 6.38362
1.92097 0.684285 0.781335
4.32835 0.592848 7.63435
8.7591 0.468718 2.04949
3.3198 0.418979 6.23418
3.80715 0.895184 2.95593
1.7511 0.197037 1.60481
3.67655 0.765742 2.24817
1.58794 0.322596 1.73732
1.28278 0.567555 0.787031
1.43043 0.0851866 2.07518
1.90323 0.484211 1.88087
5.01761 0.735462 7.96466
2.21229 0.340099 2.98287
2.37523 0.31156 2.63623
1.05075 0.0597837 0.654428
1.74777 0.196871 1.60092
3.64018 0.911793 2.3436
1.05426 0.506615 1.26258
3.20017 0.313618 3.2497
1.74566 0.849445 1.45166
2.10534 0.240139 2.20949
5.03744 0.65734 8.03418
1.98194 0.696242 0.978879
3.57128 0.849274 3.31301
2.11942 0.411196 2.83119
1.72746 0.12357 1.63865
1.61776 0.679596 1.37952
4.65676 0.154883 6.27749
2.75204 0.536436 1.6352
0.932474 0.559806 0.969658
3.14178 0.418132 3.04917
3.00069 0.422386 6.42911
3.31023 0.314952 5.84256
5.02244 0.533724 6.79835
4.48647 0.227069 2.61591
1.68347 0.191044 1.73939
1.72763 0.857736 0.813194
4.71548 0.25191 6.33887
1.66855 0.95733 0.939228
1.19268 0.339182 1.20045
2.08106 0.305958 2.83304
3.14531 0.236902 6.29315
3.21231 0.387777 6.16102
3.64845 0.0997535 6.38059
4.48216 0.216492 2.60967
1.88738 0.566267 0.929645
2.0619 0.60552 1.00929
6.24311 0.691097 7.08567
0.665219 1.14722 2.16969
2.84953 0.324783 6.53721
2.10102 0.41982 2.05757
2.57574 0.542995 2.63181
5.01224 1.36867 2.57015
1.68626 0.083671 2.44901
1.56572 0.636374 1.02816
1.85415 0.571167 0.943166
1.82549 0.303119 1.51575
4.99529 0.51799 6.47972
0.865852 0.968399 2.10254
2.98954 0.142297 6.13696
2.39902 0.701344 2.12302
2.52336 0.551669 2.58931
7.15582 1.48575 1.60247
1.66979 0.0756522 2.53041
1.82051 0.726591 1.05212
1.43523 0.0179536 0.929963
4.56579 0.339494 1.44937
2.65222 0.280581 6.48436
3.12688 0.5667 2.79378
6.04422 0.798909 7.46091
3.12817 0.396107 5.9866
2.15181 0.291516 2.81392
2.61951 0.466245 2.37779
2.82244 0.569597 2.94059
6.9875 0.654651 0.91776
1.41018 0.315284 1.43384
5.14527 0.106495 1.95802
5.66029 0.653043 6.54276
3.17971 0.561028 2.73525
5.98771 0.776587 7.51673
3.17789 0.391055 6.03664
2.11874 0.291755 2.80862
1.89646 1.03434 2.13446
1.38275 0.186062 2.18196
6.81462 0.501697 1.02892
8.20951 0.297239 2.1839
1.28821 0.115044 6.57701
4.63544 0.373084 6.50153
1.47213 0.190807 1.37008
5.03173 0.588518 6.74386
0.96675 1.18727 2.30264
5.36363 0.988079 6.61657
1.30558 0.143905 1.27453
1.53794 0.17368 1.73861
2.77223 0.260173 2.34257
8.17469 0.377976 2.17598
3.46956 0.517036 6.20671
5.50886 0.435365 7.99829
1.46362 0.196485 1.31714
4.86664 0.641823 6.42221
1.13115 1.34636 2.34346
6.12749 0.751703 7.63965
1.02481 1.47245 2.19884
1.59744 0.244884 2.02539
2.43344 0.304451 1.82439
1.87601 0.106447 1.79827
2.03957 0.521785 1.51172
2.22249 0.165513 2.7557
2.01369 0.236003 1.40642
3.82814 0.270288 6.26419
1.05857 0.0729556 2.45818
2.02043 0.32348 2.91038
2.93592 0.549011 6.05216
4.26385 0.592859 2.0248
3.63883 0.117686 5.98003
1.87779 0.112563 1.97825
4.53208 0.278633 1.66147
3.8275 0 6.73477
2.03513 0.234111 1.29645
4.57824 0.107887 6.45789
0.85798 0.236937 2.71429
6.87126 0.396684 1.2382
5.27012 0.222213 6.82738
4.25744 0.627373 2.05547
3.64938 0.12285 6.02798
1.02927 0.00479791 2.30911
3.03663 0.198087 3.56213
2.9543 0.813478 2.42575
8.3867 0.257515 2.10303
5.96732 0.905825 7.36249
0.699716 0.138482 1.05266
5.86401 0.471153 1.08477
3.33596 0.207831 5.68071
5.78333 0.200277 8.02906
0.973374 0.0482839 2.2535
1.07254 0 2.32548
2.99022 0.253112 3.41244
0.781029 1.40065 2.01363
7.9715 0.56029 2.36756
3.41113 0.338159 6.4662
2.42686 0.210004 6.64858
8.17528 0.849296 1.81949
4.37144 0.198734 5.57418
5.71484 0.220679 7.99289
1.27227 0.0951565 2.55885
7.46002 0.570102 0.944519
4.87374 0.217733 1.59906
4.85715 0.263518 1.89175
8.04535 0.782047 2.12935
6.61046 1.10287 7.36434
6.15345 1.19138 7.20735
2.90152 0.601666 2.49063
1.373 0.842028 3.11972
3.4831 0.83709 3.01323
1.87362 0.00862109 6.88187
7.57785 0.63381 0.840721
4.89002 0.239947 1.62322
2.17703 0.856847 1.71947
8.0366 0.755737 2.08634
3.11369 0.608984 6.12325
3.65613 0.5812 6.40805
2.28344 0.646231 2.37634
0.967687 1.65235 2.09085
2.68442 0.654028 1.94113
2.37344 0.228062 1.8296
6.71785 0.475909 1.13282
3.64609 0.513545 3.11268
2.78382 0.798231 1.51494
4.27231 0.123455 2.7708
0.969087 0.0678037 0.525808
4.58663 0.835938 0.974587
2.102 0.282174 2.69588
1.93889 0.288334 2.49398
1.17871 0.266453 2.38285
1.76508 0.379013 2.35103
7.67346 0.821377 1.96642
3.58552 0.516471 3.07302
5.05578 0.728539 6.29684
2.18482 0.0367336 1.37024
0.953526 0.0880279 0.530231
7.30215 0.334069 0.911349
2.06584 0.307676 2.66067
3.33995 0.830557 3.56845
4.58012 0.259381 1.58578
1.75453 0.458367 2.26717
3.312 0.259429 3.22389
1.06429 1.84647 2.69396
3.64551 0.0819221 6.52094
1.68052 1.05579 0.6397
6.55264 0.437872 0.823267
6.89825 0.503192 0.726781
1.99843 0.492382 3.06284
4.85543 0.562604 1.62381
6.63273 0.505109 1.20969
2.80051 0.072691 2.34527
3.33711 0.174398 3.16708
1.76395 0.175896 1.80519
3.64045 0.0779363 6.58092
1.724 0.997919 0.666191
6.65365 0.589568 0.935934
3.35085 0.772909 3.23098
1.98541 0.474283 3.08781
1.52384 0.130405 1.67016
6.7552 0.436083 0.956523
2.38458 0.718322 2.42944
3.74238 0.386773 3.21148
1.55328 0.622254 1.33647
4.59211 0.857469 6.77418
3.30146 0.608088 2.80492
1.93394 0.0979592 2.03168
2.47292 0.213403 2.47671
4.78964 0.242778 1.57489
1.94373 0.331878 3.07368
2.47649 0.47754 2.43827
1.75015 0.717877 2.90367
1.80031 0.431744 0.827423
1.51435 0.483003 1.29223
4.84169 0.459674 6.53315
3.30484 0.600403 2.81832
1.83088 0.0771458 1.91347
2.17875 0.0475318 3.04738
4.77508 0.314228 1.50938
3.48734 0.108653 6.1317
2.51716 0.413191 2.54821
1.77301 0.268969 3.1749
4.72578 0.292644 1.14167
3.7618 0.548472 2.77631
4.50662 0.565787 6.82792
2.17705 0.589482 2.76558
2.66083 0.672929 2.92976
5.2727 0.816763 6.25333
3.65787 0.0632244 6.16362
3.19985 0.3561 6.38675
3.10679 0.290265 6.1572
1.26605 0.388399 2.37141
4.70947 0.303217 1.15551
3.79991 0.562316 2.76706
4.47601 1.03547 6.67741
2.20417 0.712137 2.89633
1.01702 1.41742 2.00365
5.26364 0.764402 6.36054
3.66877 0.0984922 6.20007
3.1708 0.644189 6.36248
2.97128 0.443861 6.43427
2.09336 0.249289 1.77551
1.91838 0.308447 2.11187
1.47463 0.557032 1.42424
3.10063 0.281972 6.39216
1.86433 0.686279 0.888106
7.95686 0.52076 1.73587
4.58311 0.622736 6.74285
2.34291 0.133907 2.68599
1.85074 0.171615 1.38933
8.71768 0.270756 2.68406
4.31195 0.270185 1.89237
1.96972 0.331237 2.14683
1.49306 0.533845 1.41047
3.01159 0.247777 6.42018
1.76106 0 1.6261
7.99412 0.556405 1.74477
4.62074 0.606289 6.8062
2.39344 0.135516 2.72901
1.91297 0.261316 1.3637
6.48512 0.433624 1.32368
4.32021 0.239878 1.89073
POINT_DATA 400
SCALARS particleColor float 3
LOOKUP_TABLE default
0 0.471917 1
0 0.447427 1
0 0.857293 1
0 0.263293 1
0 0.469319 1
1 5.96046e-08 0
0 0.507629 1
0 0.237256 1
0 0.249913 1
0 0.611927 1
0 0.328505 1
0 0.800053 1
0 0.564226 1
0 0.162559 1
0 0.855031 1
0 0.549406 1
0 0.394587 1
0 0.503358 1
0 0.774929 1
0 0.683733 1
0 0.344092 1
0 0.916689 1
0 0.363135 1
0 0.705583 1
0 0.68676 1
0 0.811165 1
0 0.5827 1
0 0.432894 1
0.140315 1 0.859685
0 0.6501 1
0 0.312798 1
0 0.773988 1
1 5.96046e-08 0
0 0.65351 1
0 0.859174 1
0 0.6523 1
0 0.506735 1
0 0.488855 1
0 0.374901 1
0 0.865444 1
0 0.442431 1
0 0.910806 1
0 0.811863 1
0 0.726329 1
0 0.740561 1
0 0.712649 1
0.126733 1 0.873267
0 0.437555 1
0 0.263461 1
0.156021 1 0.843979
0 0.368905 1
0.0193027 1 0.980697
0 0.894351 1
0 0.703611 1
0 0.864035 1
0 0.700839 1
0 0.566214 1
0 0.402681 1
0 0.274511 1
0.0565886 1 0.943411
0 0.567183 1
0 0.992921 1
0 0.94295 1
0 0.568752 1
0 0.408712 1
0 0.442493 1
0.0302569 1 0.969743
0 0.359202 1
0 0.617488 1
0 0.715231 1
0 0.658473 1
0 0.754401 1
0 0.66267 1
0 0.445704 1
0 0.351237 1
0.295121 1 0.704879
0 0.916031 1
0 0.676744 1
0 0.635851 1
0 0.931879 1
0 0.718287 1
0 0.976913 1
0.0490343 1 0.950966
0 0.824939 1
0 0.773029 1
0 0.65506 1
0 0.699265 1
0 0.449542 1
1 0.47905 0
0 0.27618 1
0 0.195114 1
0 0.663323 1
0 0.602657 1
0 0.833869 1
0 0.683568 1
0 0.641403 1
0 0.539696 1
0 0.526391 1
0.41824 1 0.58176
0 0.30036 1
0 0.827105 1
0 0.645726 1
0 0.480973 1
0 0.411906 1
0.995304 1 0.00469649
0 0.853038 1
0 0.726637 1
0 0.348246 1
0 0.372096 1
0 0.371068 1
0 0.465464 1
0 0.444774 1
0 0.796832 1
0 0.456616 1
0 0.621431 1
0.000265873 1 0.999734
0 0.744355 1
0 0.691926 1
0 0.389662 1
0 0.923805 1
0 0.368081 1
0 0.633607 1
0 0.72387 1
0 0.0950292 1
0.144156 1 0.855844
0 0.647548 1
0 0.725592 1
0 0.349281 1
0.0205685 1 0.979432
0 0.891361 1
0 0.282593 1
0 0.339486 1
0 0.578606 1
0 0.637568 1
0 0.817496 1
0 0.690828 1
0.337048 1 0.662952
0 0.342222 1
0 0.662634 1
0.0624192 1 0.937581
0 0.510179 1
0 0.121662 1
0.00692443 1 0.993076
0 0.759147 1
0 0.911225 1
0 0.704577 1
0 0.389158 1
0 0.416993 1
0 0.630224 1
0.0275305 1 0.97247
0 0.524777 1
0 0.308273 1
0 0.645516 1
0 0.751694 1
0 0.646841 1
0 0.455166 1
0 0.209417 1
0 0.326499 1
0 0.173212 1
0 0.500878 1
0 0.968313 1
0.278253 1 0.721747
0 0.227098 1
0 0.730492 1
0 0.421315 1
0 0.124579 1
0 0.467675 1
0 0.652518 1
0.184708 1 0.815292
0 0.56703 1
0.145691 1 0.854309
0 0.365002 1
0 0.302992 1
0 0.468318 1
0 0.353634 1
0.239228 1 0.760772
0 0.489415 1
0 0.574883 1
0 0.160319 1
0 0.397215 1
0 0.784167 1
0.049936 1 0.950064
0 0.526035 1
0 0.421235 1
0 0.66358 1
0 0.933648 1
0 0.494584 1
0 0.676391 1
0 0.501382 1
0 0.538376 1
0 0.719898 1
0 0.39939 1
0 0.458307 1
0 0.727457 1
0 0.596653 1
0 0.839084 1
0 0.521704 1
0 0.924881 1
0 0.443345 1
0 0.550502 1
0 0.520551 1
0 0.304545 1
0.218029 1 0.781971
0 0.586314 1
0.207208 1 0.792792
0 0.526614 1
0 0.681572 1
0 0.986802 1
0 0.618236 1
0 0.959055 1
0 0.64612 1
0 0.98517 1
0 0.768536 1
0 0.585467 1
0 0.934362 1
0 0.490145 1
0 0.609341 1
0 0.532987 1
0 0.393386 1
0 0.954766 1
0 0.643898 1
0 0.421081 1
0 0.678052 1
0 0.364749 1
0 0.636912 1
0 0.347278 1
0.203728 1 0.796272
0 0.672513 1
0 0.839294 1
0.0123983 1 0.987602
0 0.548678 1
0.247813 1 0.752187
0 0.823301 1
0 0.498863 1
0 0.463262 1
0 0.814327 1
0 0.730292 1
0.0705891 1 0.929411
0.149039 1 0.850961
0 0.774167 1
0 0.214016 1
0 0.683861 1
0 0.549539 1
0 0.755446 1
0 0.484697 1
0 0.643447 1
0 0.838342 1
0 0.842181 1
0 0.211689 1
0 0.549551 1
0 0.194802 1
0.842637 1 0.157363
0 0.743075 1
0 0.66521 1
0 0.90475 1
0 0.823249 1
0.0177468 1 0.982253
0 0.29288 1
0 0.278652 1
0 0.600834 1
0 0.602857 1
0.014323 1 0.985677
0.373349 1 0.626651
0 0.672829 1
0 0.539207 1
0.2507 1 0.7493
0 0.57164 1
0 0.403446 1
0 0.797121 1
0 0.825567 1
0 0.404265 1
0 0.713745 1
0 0.836603 1
0 0.724884 1
0.0183641 1 0.981636
0 0.176651 1
0 0.572554 1
1 0.376559 0
0 0.898892 1
0 0.60894 1
0 0.766019 1
0 0.711697 1
0 0.705817 1
0 0.537108 1
0 0.596907 1
0 0.685998 1
0 0.207458 1
0 0.609861 1
0 0.481213 1
0 0.967659 1
0 0.690794 1
0 0.900078 1
0 0.529448 1
0 0.608196 1
0 0.819387 1
0.26544 1 0.73456
0 0.393185 1
0 0.86114 1
0 0.622257 1
0 0.591213 1
0.233234 1 0.766766
0 0.703307 1
0 0.156225 1
0 0.386679 1
0 0.500764 1
0 0.655636 1
0 0.788661 1
0 0.961902 1
0 0.656587 1
0 0.78025 1
0 0.818363 1
0 0.526253 1
0 0.814828 1
0 0.672697 1
0 0.356385 1
0 0.416794 1
0 0.667105 1
0 0.67553 1
0 0.733193 1
0 0.434596 1
0 0.688439 1
0 0.787646 1
0.0876346 1 0.912365
0 0.292163 1
0 0.816719 1
0.0313782 1 0.968622
0 0.942551 1
0 0.286836 1
0 0.800871 1
0 0.761315 1
0 0.900265 1
0 0.419782 1
0 0.924233 1
0 0.354048 1
0 0.747883 1
0 0.735823 1
0 0.946743 1
0.0671486 1 0.932851
0 0.387011 1
0 0.859684 1
0 0.579649 1
0 0.36465 1
0 0.869136 1
0 0.349924 1
0 0.768523 1
0 0.892965 1
0 0.211445 1
0 0.979062 1
0 0.731386 1
0.027459 1 0.972541
0 0.262744 1
0 0.6189 1
0 0.181282 1
0 0.458462 1
0 0.671336 1
0 0.934496 1
0 0.413164 1
0.514001 1 0.485999
0 0.876007 1
0.166741 1 0.833259
0 0.359381 1
0 0.478716 1
0 0.739603 1
0 0.66192 1
0 0.674735 1
0 0.74793 1
0 0.197534 1
0 0.588232 1
0 0.917042 1
0.000833742 1 0.999166
0 0.307196 1
0 0.74244 1
0 0.192006 1
0 0.418241 1
0 0.927751 1
0.164963 1 0.835037
0 0.202988 1
0 0.58861 1
0 0.884298 1
0.281707 1 0.718293
0 0.438888 1
0 0.567401 1
0 0.701669 1
0 0.413478 1
0 0.544705 1
0 0.991031 1
0 0.774668 1
0 0.854096 1
0 0.869187 1
0 0.769258 1
0 0.336625 1
0 0.445753 1
0 0.763216 1
0 0.23229 1
0 0.415161 1
0 0.349459 1
0 0.848671 1
0 0.62549 1
0 0.904489 1
0 0.826157 1
