# vtk DataFile Version 3.0
Particle simulation
ASCII
DATASET POLYDATA
POINTS 400 float
7.78526 4.47552 5.74143
4.41047 2.70845 4.07575
2.96264 5.68913 3.18576
7.97137 3.87207 4.16067
3.22384 5.00038 0
0.359572 2.68098 9.67661
3.35374 0 0.110585
3.63965 2.26122 10
9.25513 9.92461 10
0.28049 9.23724 0.203605
4.77644 1.51988 2.5632
6.20782 9.20192 10
4.63667 6.64357 9.01691
8.8758 2.67626 6.3551
0.231115 9.72343 7.15865
2.07474 3.23793 7.50362
0.425601 8.88359 1.19534
4.96326 5.52676 8.9416
10 7.88305 3.0526
4.50425 6.05434 7.09133
3.68446 2.88266 3.44652
9.6138 2.44906 7.75099
6.49932 1.82969 0
6.08414 1.87255 5.67687
3.31772 2.3928 5.10355
6.95382 5.88042 9.13
3.75323 9.60105 6.30433
2.15592 8.06426 9.18282
9.36863 2.5716 0.310307
4.70543 5.52031 5.1713
2.99684 4.1294 5.77724
7.33347 1.30725 1.20247
0.72114 4.40234 3.92244
6.70415 6.62169 7.6972
2.53428 6.62859 7.52094
3.79381 8.27373 8.46511
6.11104 7.14621 0.059316
4.82464 0.330575 2.57837
9.50319 5.60519 3.5736
7.3698 0.775002 6.3856
7.0679 2.05299 5.88954
5.19698 4.44443 2.27908
3.95826 8.89305 3.1549
9.58205 6.61689 9.05242
4.43758 0.705115 9.89761
9.57909 1.23065 1.01009
8.37106 4.07837 4.65654
3.75765 3.09757 3.64351
7.78138 5.35565 9.76349
3.70606 0.894261 8.53537
3.93923 4.87492 4.10224
2.57875 0.860222 4.80537
1.92778 2.81533 7.07061
3.81687 6.32701 7.9755
3.29905 1.82995 7.84067
6.6313 5.12872 7.11998
5.25389 5.11332 9.64666
7.19467 4.69251 5.67745
3.75222 2.0747 6.83994
4.46296 9.04373 5.10107
0.320344 7.68487 4.13469
7.72162 6.90845 7.01479
7.28555 2.0582 6.09089
0.545296 3.4167 3.71032
0.762502 9.84028 6.1834
1.83118 8.18047 2.60092
5.97531 0.612636 9.08211
2.35859 6.46073 8.33913
4.54396 1.02468 3.85622
5.64388 4.04945 4.52159
5.10302 5.76804 3.31899
3.00473 9.03209 0.704122
1.37213 3.43027 1.34085
9.25353 6.80718 9.23302
9.27465 7.67264 0.834444
3.27269 6.82472 8.15799
5.99041 1.45206 3.57143
9.6664 4.21054 2.42084
1.80283 8.23821 9.04076
3.80868 8.93543 8.85701
6.66711 9.67885 3.89081
5.25401 0.743428 5.96577
5.52684 1.9457 6.29436
8.6097 5.09922 2.8822
6.99925 0.358104 4.3286
9.99047 1.1944 3.16796
8.01062 0.18443 5.68102
1.64884 9.51561 8.84183
5.09419 1.28875 8.55404
5.87556 1.66645 8.59677
5.0256 3.08074 7.58623
3.44813 0.589151 3.30338
4.8275 7.91175 0.958204
8.69027 0.92006 4.7639
0.597646 2.40054 2.5338
4.28827 2.51871 2.69082
8.89987 0.131768 0.384025
6.41237 3.34402 9.82456
6.66326 0.697063 5.1163
5.34891 2.08632 8.32882
7.75239 7.36308 8.83487
1.22955 8.91565 7.00262
4.72473 0 4.82273
2.9606 5.42748 0.568611
1.16498 3.81107 3.44817
8.92735 4.3903 1.26141
9.0515 8.45631 6.12984
9.14083 6.70536 3.04139
8.28066 8.93937 10
2.60862 7.1709 3.66534
9.08291 9.85543 1.16117
9.16673 2.91927 2.20518
0.243928 4.22013 1.24378
6.20463 2.96993 9.49856
7.16757 9.19081 1.69473
5.15799 8.02802 1.97594
4.22086 7.72212 0.505448
2.43291 6.09614 2.47575
7.22817 0.533988 9.96208
1.2389 6.47169 7.15761
0.600871 1.72839 8.15009
1.31239 4.04004 4.5896
2.98702 9.57538 9.3697
1.19218 9.4655 7.15
2.36618 1.63798 8.79398
0 5.17722 8.59545
2.8884 1.52117 7.73397
2.39539 3.92298 0.286072
7.96472 2.81607 8.7259
9.57459 7.7657 7.12008
5.35014 8.35462 7.77656
4.28473 9.07401 0.86729
6.47248 2.23649 6.66308
3.64937 0.40238 5.96162
3.50646 2.43817 8.46006
6.1478 4.01235 5.39429
4.73315 3.49917 0.288615
8.21023 9.97561 7.33027
2.62476 8.91861 7.98893
3.18104 8.14177 6.56234
9.30081 1.9838 7.78106
5.28323 8.09204 1.18995
3.08349 3.77207 3.30777
0.924243 7.24572 4.48844
6.53158 9.38733 2.23887
5.37048 3.90285 4.18506
7.79156 0.808256 9.83538
3.36545 2.18215 8.82546
5.1827 7.59389 7.8277
9.2034 7.25208 9.56513
7.32815 0.645142 7.61109
8.99482 4.89524 6.20304
2.14345 3.66461 6.01744
3.03184 6.88209 0.830721
9.71646 1.08568 1.299
10 6.89677 6.37507
5.88899 3.73672 5.71122
0 3.78446 4.45409
8.48005 6.79741 5.71412
6.36411 10 3.76544
8.18915 1.55333 5.35693
6.37286 4.62869 5.75903
4.7368 9.2502 5.10945
0.367032 3.98384 8.62648
6.17814 8.64218 1.72333
0.588001 0.96358 4.60105
2.15611 3.7593 3.47416
0.907981 3.89473 9.76757
5.11492 2.62434 9.64587
8.7834 1.84615 8.45764
2.56465 2.23526 8.19635
8.14136 9.04438 8.56829
2.62932 3.62639 9.35963
1.09157 3.45272 0.40033
5.72613 2.96504 1.60381
8.24744 5.25073 1.92858
2.09139 1.81292 4.49601
7.2647 5.77096 3.02615
3.31969 0.874767 7.85399
2.6081 4.5693 1.48924
7.75591 6.34272 4.02496
2.87336 6.65122 9.93409
2.77764 5.2942 3.96723
4.48522 7.76118 2.57329
8.37007 1.48868 2.0254
4.50683 2.34158 7.5719
5.1072 7.4764 5.08158
5.75762 6.50468 4.85853
9.34112 0.843254 1.97317
2.90998 3.81683 2.81379
1.67186 2.50022 1.10554
3.7434 0.539185 3.53847
8.03681 3.47083 6.99988
2.26614 6.33841 10
9.52177 1.71124 0.157673
1.73178 8.5254 8.83229
8.26269 8.04371 10
2.20847 1.598 7.25468
8.27075 4.02073 9.91975
6.11924 5.94589 0.294932
5.96553 7.67387 7.95519
10 8.0942 0
5.78604 6.42927 10
8.09253 7.35153 5.94081
6.48955 1.69304 1.08341
1.23714 7.09112 6.15326
4.27733 4.75356 0
9.14528 3.55538 0.431913
6.39154 6.83007 10
8.58033 5.25716 4.89237
8.86919 8.21598 9.16882
9.01522 6.51733 8.59434
3.16026 5.97456 5.30541
6.73838 0.843704 1.4876
4.27183 2.82344 6.52205
2.87104 5.10493 0.994693
1.92 0.58576 10
2.95788 9.47679 6.99865
7.66713 0.714539 9.5385
8.72831 6.24392 9.49625
1.19002 0.616773 10
6.70447 5.84389 2.7211
0.372408 1.93805 6.35845
6.18138 0.654801 8.27289
2.0907 2.63462 0
6.57108 4.86671 3.75369
2.17938 1.26843 0.271088
2.71669 9.14444 7.42588
7.53953 0.427496 7.5527
5.77989 6.337 5.61497
1.43387 3.1794 8.68478
5.71762 5.11763 4.42069
7.69928 5.01538 4.22067
9.14193 0.908074 4.46003
9.25176 7.60691 7.94247
1.17002 8.56077 5.55238
3.62854 0.155931 6.56409
9.8196 9.06243 9.05556
7.70514 0.819273 8.39119
6.05485 0.634833 6.31249
7.54696 0.256642 7.83227
3.19952 4.76395 9.3272
2.63804 2.56394 0
9.27666 9.90047 3.83311
1.43775 0.26952 10
4.38718 0.997247 3.56309
2.45124 0.909787 6.15977
3.98233 9.80507 0.795635
1.41114 3.5272 5.98707
3.74617 5.63368 8.59061
6.79479 4.82765 1.19742
9.62668 5.23595 0.60318
3.36943 1.76679 7.00162
0.329359 6.12675 9.63592
8.56306 9.4791 8.38164
4.05818 9.56046 4.86884
5.61356 2.20266 2.15505
1.6187 4.09872 1.11712
6.97876 8.20507 0.4989
5.61566 1.96975 5.06273
9.67999 5.65979 7.46003
0.633929 3.18767 3.5476
0.39645 8.33157 7.08613
8.00082 4.68188 8.55324
0.44208 9.66201 7.5572
2.37799 2.79696 4.14909
2.45253 7.12111 2.8401
9.76874 9.76387 9.15206
1.32565 6.27895 7.21169
9.79414 2.77411 1.19963
0.996156 7.68398 3.4597
8.33776 6.57019 3.17395
0.12645 4.14312 9.33124
8.51001 9.14136 7.93979
6.16942 1.72028 2.65009
4.80971 9.45677 0.95004
0 0.594292 10
8.96583 7.24436 1.53628
8.91376 4.16095 5.10508
9.83729 8.15597 1.63261
7.49856 3.04724 9.06489
8.6509 9.61436 6.2028
3.10677 0.319887 7.27
6.43659 2.206 7.74539
3.41789 4.83963 6.0233
5.70222 6.69016 5.57512
6.90354 3.02916 2.66867
4.35971 5.24742 9.59805
8.99244 1.38229 7.18284
6.69129 6.00095 7.27243
3.40499 9.67075 0.280632
4.34475 8.38123 1.20174
0.945641 3.75137 3.32564
4.64294 8.55693 8.69068
6.73243 1.8923 5.57803
5.05027 6.35549 1.02273
3.62385 0.0255858 9.95238
2.18426 0.536551 7.02809
7.3743 0.429696 7.78441
1.94583 0.941157 5.92543
3.39227 7.20364 9.72433
8.71622 4.84791 7.34738
7.08512 0.858969 7.48769
3.9688 9.54286 9.98938
7.2945 0.672761 7.82363
1.70854 4.04106 6.56898
7.35795 2.03782 3.71174
7.32502 0.661167 7.9144
8.19689 1.84349 7.87551
8.52287 1.82218 4.14701
3.96544 6.79618 3.09402
8.8117 8.54749 8.23513
7.56521 0.294306 2.8004
7.50243 0.867733 7.42051
3.56081 4.45429 5.84334
5.50143 1.92908 1.99044
5.56594 5.3895 8.9784
7.73418 0.517617 7.49195
7.55087 7.84467 1.62642
3.23165 1.58621 0.227685
5.88757 7.12217 0.446329
0.661271 1.9632 2.3795
0.213457 3.20868 9.98474
8.97531 0.819295 5.76021
7.24489 0.606657 7.5935
9.13593 4.31356 6.31372
4.66078 1.05429 9.22749
4.13395 7.3062 9.09309
7.31583 9.41304 0.54632
7.50666 0.698533 7.59356
2.39754 1.45 8.13524
1.52525 0.75217 5.57268
9.60536 1.65699 0.333127
8.73684 5.67869 7.22291
2.0336 1.73348 1.46421
9.4926 0.963035 8.2378
6.20767 2.92605 2.04384
7.53095 0.6958 7.75481
3.74469 4.23835 7.18838
6.28067 6.15647 3.06416
1.27981 9.26302 8.70184
3.16914 3.16752 6.83502
3.6234 1.8205 7.50575
2.88427 0.159708 10
7.98214 9.56213 6.01556
0 1.81536 6.37613
3.92105 1.12162 3.18341
3.36975 7.80504 0.881176
7.44147 0.919163 7.60805
5.88953 5.84945 7.66267
7.72689 1.04395 7.26086
7.4868 0.521879 7.43771
3.64914 0.559792 5.31211
6.51052 5.60359 6.7431
5.57395 1.66216 3.29196
7.58109 0.618882 7.84991
5.1005 9.23049 0.0379719
6.7692 4.76418 1.2055
8.99945 0.246844 6.0029
7.38812 0.3208 7.7216
1.31378 2.44732 1.20841
1.99722 1.76549 9.20692
2.30465 1.87913 9.0435
7.40992 0.486921 7.79276
0 6.12518 0.358601
6.14025 7.34426 4.28419
2.30442 1.59339 8.95654
9.49409 3.94143 6.85354
8.99963 7.05167 4.15273
2.59256 0.541173 9.73026
3.78357 1.27656 3.0486
4.81191 4.49616 7.22917
6.88718 9.00049 3.99669
7.48408 0.583903 7.41904
7.60877 0.710009 7.28888
7.92914 8.66755 1.30299
2.25818 1.63714 8.99211
8.87676 5.86156 5.19739
0.957554 3.01965 1.18342
7.59504 0.449709 7.46724
7.24123 0.805542 9.9903
7.31711 0.594233 7.97682
5.18872 7.18184 5.04541
7.21802 0.390039 7.46167
4.59224 4.87328 6.85369
2.36423 1.50755 9.04621
7.39164 0.592831 8.11569
7.46207 0.525734 7.61346
0.895744 2.19441 1.15274
9.74782 1.08187 7.97914
7.34507 0.379452 7.6259
7.65025 0.410673 7.71877
6.84785 9.35805 6.57649
7.19326 0.521154 7.5832
0.468574 8.14226 2.53482
4.07055 6.00845 9.18291
7.28457 0.465789 7.47188
8.78899 4.96367 0.190604
6.8452 9.43899 3.45663
6.46614 1.44979 7.14179
POINT_DATA 400
SCALARS particleColor float 3
LOOKUP_TABLE default
1 0.810729 0
0.308909 1 0.691091
0.247184 1 0.752816
1 5.96046e-08 0
0.73966 1 0.26034
0.189289 1 0.810711
1 5.96046e-08 0
1 0.746437 0
0.75524 1 0.24476
1 0.890645 0
0.362652 1 0.637348
1 5.96046e-08 0
0.45854 1 0.54146
1 5.96046e-08 0
0.775438 1 0.224562
1 0.288254 0
0.613479 1 0.386521
0.634989 1 0.365011
0 0.534998 1
1 0.211904 0
0.733812 1 0.266188
1 0.563443 0
1 5.96046e-08 0
1 5.96046e-08 0
0.313927 1 0.686073
1 0.301862 0
1 0.590923 0
0.898438 1 0.101562
1 5.96046e-08 0
0.736451 1 0.263549
1 5.96046e-08 0
1 5.96046e-08 0
1 0.715661 0
0 0.865399 1
1 0.918414 0
0.859408 1 0.140592
0.696267 1 0.303733
0.879859 1 0.120141
1 0.0776438 0
1 5.96046e-08 0
1 5.96046e-08 0
1 0.288866 0
1 0.904239 0
0.792899 1 0.207101
0.218848 1 0.781152
0.785214 1 0.214786
0.223157 1 0.776843
0.680373 1 0.319627
1 5.96046e-08 0
1 0.853498 0
0 0.982508 1
0.843891 1 0.156109
1 0.523845 0
1 5.96046e-08 0
1 0.344327 0
0.819091 1 0.180909
1 0.26061 0
0.960941 1 0.0390593
1 0.305614 0
1 5.96046e-08 0
1 0.737448 0
1 5.96046e-08 0
1 5.96046e-08 0
0.353744 1 0.646256
0 0.664112 1
0.42934 1 0.57066
1 5.96046e-08 0
0.665537 1 0.334463
1 0.127591 0
1 5.96046e-08 0
1 5.96046e-08 0
1 0.140755 0
0.0652594 1 0.934741
1 5.96046e-08 0
1 5.96046e-08 0
0.954446 1 0.0455537
1 5.96046e-08 0
1 5.96046e-08 0
1 0.934764 0
1 5.96046e-08 0
1 5.96046e-08 0
1 0.730912 0
0 0.762012 1
1 0.596022 0
1 5.96046e-08 0
0 0.970531 1
1 0.444427 0
1 0.854692 0
0.551987 1 0.448013
0.426454 1 0.573546
0.791187 1 0.208813
1 0.298895 0
1 5.96046e-08 0
1 0.190522 0
1 5.96046e-08 0
0.24945 1 0.75055
0.299608 1 0.700392
1 5.96046e-08 0
0.672556 1 0.327444
1 0.827689 0
0.671791 1 0.328209
0.676218 1 0.323782
1 5.96046e-08 0
0.243078 1 0.756922
0 0.580017 1
0.478085 1 0.521915
1 0.0930205 0
1 0.578017 0
1 5.96046e-08 0
1 0.892879 0
1 0.732647 0
0.642358 1 0.357642
1 0.937942 0
0.75237 1 0.24763
1 0.615519 0
0.616342 1 0.383658
0 0.51741 1
0.678676 1 0.321324
1 5.96046e-08 0
1 5.96046e-08 0
1 5.96046e-08 0
1 0.917476 0
1 5.96046e-08 0
1 5.96046e-08 0
1 0.772901 0
1 5.96046e-08 0
0.108323 1 0.891677
1 0.282684 0
1 5.96046e-08 0
1 5.96046e-08 0
1 0.785014 0
1 5.96046e-08 0
0.704694 1 0.295306
1 0.78078 0
1 5.96046e-08 0
1 0.881305 0
0 0.781786 1
1 0.826451 0
1 0.906985 0
1 0.653312 0
1 0.793471 0
1 0.746222 0
1 0.467965 0
0.0587055 1 0.941294
1 0.75211 0
1 0.456277 0
0.371635 1 0.628365
1 5.96046e-08 0
0.677309 1 0.322691
0.482907 1 0.517093
0 0.326942 1
0.400009 1 0.599991
1 5.96046e-08 0
0.299668 1 0.700332
1 0.364731 0
0.853273 1 0.146727
1 5.96046e-08 0
1 5.96046e-08 0
1 5.96046e-08 0
1 5.96046e-08 0
0.950039 1 0.0499606
0.0674581 1 0.932542
1 5.96046e-08 0
0.256607 1 0.743393
1 5.96046e-08 0
0.245353 1 0.754647
1 5.96046e-08 0
1 5.96046e-08 0
1 0.269535 0
1 0.762886 0
1 5.96046e-08 0
1 0.418529 0
1 5.96046e-08 0
0.233636 1 0.766364
1 5.96046e-08 0
0.402516 1 0.597484
1 0.937444 0
0 0.937023 1
1 5.96046e-08 0
0.802869 1 0.197131
1 0.221724 0
1 5.96046e-08 0
1 5.96046e-08 0
1 5.96046e-08 0
0.639612 1 0.360388
0 0.655145 1
1 0.937145 0
0.99561 1 0.00439
1 0.761205 0
1 0.581582 0
0.75961 1 0.24039
1 0.587982 0
0.944631 1 0.0553687
1 5.96046e-08 0
1 5.96046e-08 0
1 5.96046e-08 0
0.689833 1 0.310167
1 5.96046e-08 0
0.594763 1 0.405237
1 0.181867 0
1 0.360546 0
1 5.96046e-08 0
1 5.96046e-08 0
1 0.14881 0
1 5.96046e-08 0
0.466999 1 0.533001
1 5.96046e-08 0
1 0.245625 0
1 5.96046e-08 0
0.913971 1 0.0860294
0.596602 1 0.403398
1 0.464233 0
1 0.472272 0
1 0.312446 0
1 0.596248 0
0.872325 1 0.127675
1 0.704845 0
1 5.96046e-08 0
0 0.870242 1
1 5.96046e-08 0
1 5.96046e-08 0
1 5.96046e-08 0
0.868282 1 0.131718
1 5.96046e-08 0
1 5.96046e-08 0
1 5.96046e-08 0
0.606666 1 0.393334
1 5.96046e-08 0
0 0.21939 1
0.0683537 1 0.931646
1 5.96046e-08 0
1 5.96046e-08 0
1 5.96046e-08 0
1 5.96046e-08 0
0.457008 1 0.542992
0.774346 1 0.225654
0.774856 1 0.225144
0.414142 1 0.585858
0 0.806508 1
1 5.96046e-08 0
0 0.504555 1
1 5.96046e-08 0
1 5.96046e-08 0
1 0.236961 0
1 5.96046e-08 0
0.940426 1 0.0595739
1 0.32439 0
1 0.970936 0
1 0.735721 0
1 5.96046e-08 0
1 5.96046e-08 0
1 0.505636 0
1 5.96046e-08 0
1 0.538291 0
1 0.510017 0
1 5.96046e-08 0
0 0.583214 1
0.034283 1 0.965717
1 5.96046e-08 0
0.548722 1 0.451278
1 5.96046e-08 0
1 5.96046e-08 0
0.491325 1 0.508675
1 0.476469 0
1 0.827516 0
0.351328 1 0.648672
1 5.96046e-08 0
1 0.717102 0
0 0.817821 1
0.640136 1 0.359864
1 5.96046e-08 0
1 5.96046e-08 0
1 5.96046e-08 0
1 5.96046e-08 0
1 5.96046e-08 0
0 0.831202 1
1 5.96046e-08 0
1 5.96046e-08 0
1 0.299802 0
1 5.96046e-08 0
0.701902 1 0.298098
1 0.359764 0
1 5.96046e-08 0
1 5.96046e-08 0
0.986875 1 0.0131249
1 5.96046e-08 0
0.208232 1 0.791768
1 0.467833 0
0.98926 1 0.0107404
1 5.96046e-08 0
0.507245 1 0.492755
1 5.96046e-08 0
1 0.75132 0
1 0.930452 0
1 5.96046e-08 0
0.793619 1 0.206381
0.355455 1 0.644545
1 5.96046e-08 0
0 0.562034 1
0.280623 1 0.719377
1 5.96046e-08 0
0.644209 1 0.355791
0 0.896991 1
0.945195 1 0.0548049
0 0.710855 1
1 5.96046e-08 0
1 5.96046e-08 0
0 0.367275 1
1 0.86472 0
1 5.96046e-08 0
0 0.788455 1
1 5.96046e-08 0
1 5.96046e-08 0
0 0.930551 1
1 5.96046e-08 0
1 0.565233 0
0.504503 1 0.495497
0.0828563 1 0.917144
1 5.96046e-08 0
0.447896 1 0.552104
0.943774 1 0.0562258
0.25859 1 0.74141
0.111368 1 0.888632
0 0.791338 1
0 0.944077 1
0.754001 1 0.245999
0.975991 1 0.0240093
1 0.480417 0
0.929871 1 0.0701287
0 0.392754 1
0 0.698413 1
0 0.898122 1
1 0.82379 0
1 5.96046e-08 0
1 0.405015 0
0.657285 1 0.342715
1 5.96046e-08 0
0 0.961095 1
1 5.96046e-08 0
0.523949 1 0.476051
1 5.96046e-08 0
1 0.361727 0
0.589934 1 0.410066
0.0694348 1 0.930565
1 5.96046e-08 0
0.174138 1 0.825862
0 0.365494 1
1 5.96046e-08 0
0 0.740148 1
0 0.912731 1
0 0.237368 1
0 0.829865 1
1 5.96046e-08 0
1 5.96046e-08 0
0.880256 1 0.119744
0 0.420707 1
0.986791 1 0.0132089
1 0.774976 0
0.171179 1 0.828821
0 0.623714 1
1 5.96046e-08 0
0 0.555163 1
0 0.407755 1
0 0.348403 1
1 0.231581 0
1 0.589717 0
0 0.740966 1
1 5.96046e-08 0
0.850447 1 0.149553
0 0.300043 1
0.0128505 1 0.98715
1 5.96046e-08 0
0.480929 1 0.519071
0 0.536034 1
0 0.525009 1
1 5.96046e-08 0
0 0.692063 1
1 0.263922 0
1 0.957018 0
0 0.68195 1
0.0878147 1 0.912185
0 0.934193 1
1 5.96046e-08 0
0.224831 1 0.775169
0.586192 1 0.413808
0 0.788332 1
0 0.442968 1
0 0.88498 1
1 5.96046e-08 0
0 0.593939 1
0 0.139939 1
0 0.552007 1
0.89937 1 0.10063
0 0.873588 1
0.929459 1 0.0705408
1 5.96046e-08 0
0 0.738889 1
1 5.96046e-08 0
1 0.494823 0
1 0.678708 0
