# vtk DataFile Version 3.0
Particle simulation
ASCII
DATASET POLYDATA
POINTS 400 float
2.80256 0.307181 6.48841
1.84839 4.66247 2.37647
0.181175 3.13922 2.20046
2.42058 0.630894 0.445227
9.2696 1.88621 3.50727
8.88162 2.52879 4.7146
8.70879 3.89303 1.27921
2.22246 4.16849 2.12679
6.11783 2.35801 1.68063
8.64895 0.754686 3.49153
1.84511 0.568075 0.853637
2.45158 2.1934 2.51648
2.63386 2.22901 3.74168
2.75793 0.769313 0.660542
9.6433 1.65696 3.60733
7.68395 5.12166 9.68284
3.80463 4.81395 0.805628
2.03442 0.316231 2.46553
3.43132 8.3423 7.06697
8.5842 0.635717 3.4177
3.12091 0.0686941 3.13646
5.43987 2.85938 9.37328
0.345963 3.61194 7.40848
8.70504 0.371823 3.24312
8.38394 6.3775 8.803
3.15687 0.0770858 0.830573
3.97605 3.81811 10
1.67239 1.37769 2.88942
4.81222 1.07029 4.58524
1.90473 1.03403 3.16834
8.19839 2.92923 2.91736
9.59317 0.255874 1.01779
2.60682 2.16377 7.87705
8.68283 0.353738 3.31203
1.93684 2.25295 2.27604
2.45871 0.591051 0.547827
7.78683 0.818241 8.51039
2.56479 0.41687 1.9882
5.17397 0.517811 2.13787
1.41641 1.09921 1.3391
3.80058 0.155358 1.1613
7.43137 5.11029 3.60424
5.14454 4.6485 4.61808
9.63563 3.4096 3.48342
9.36133 0.346265 9.65421
5.45015 0.49046 1.89357
9.48977 2.18562 3.55373
2.26839 0.949797 0.943438
5.40574 0.329347 1.74911
2.81272 1.39598 1.33425
0.435583 2.61896 1.66745
7.48742 5.07284 3.65499
5.95252 0.361459 5.2295
9.04136 0.620448 3.25531
9.75335 0.235868 9.79849
5.41004 0.489387 1.8501
4.39579 0.339914 8.00414
2.29266 0.872127 0.721405
5.4623 0.35872 1.82288
0.906187 1.27926 8.79826
4.5489 0.479094 5.78582
4.7147 0.678529 5.85947
0.204505 0.77984 7.67632
8.68753 0.45671 3.45882
6.85465 0.617022 6.09089
8.03454 1.05301 6.90902
4.86875 1.10795 4.76666
0.528933 2.49954 1.98425
5.40006 0.0947806 1.86004
4.22554 0.382075 8.24437
4.74064 0.965058 5.91059
1.7995 1.80804 2.48953
7.04115 0.165891 8.75266
8.67235 0.443554 3.4547
7.48508 0.778727 7.83263
4.40471 0.116136 7.62401
4.85394 1.07196 4.76403
4.07826 0 8.28189
5.37446 0.312735 1.77219
5.3286 0.572227 8.01019
3.06541 0.229678 2.04447
1.30319 1.28184 2.89006
2.28251 2.13102 2.82008
2.85034 0.248523 2.31186
5.35856 0.751411 7.16485
5.1675 1.03433 8.32408
5.37331 0.807298 7.17341
4.33648 0.886297 2.00122
4.43742 1.90199 1.81855
9.38043 0.219235 1.31654
2.77706 0.232309 2.25606
2.17078 0.47319 1.96362
2.50781 2.39773 7.07878
2.84323 0.27941 2.29807
5.38626 0.775233 7.11644
5.15919 1.04725 8.28935
4.58288 0.786497 8.53216
2.21234 0.391125 0.583254
5.36139 0.254986 7.97182
9.35199 0.23539 1.28178
2.84019 0.132402 1.93023
1.21565 0.391633 9.12774
2.38698 0.474764 1.55351
7.06405 1.4077 4.21602
9.05001 0.0447624 0.241072
2.45542 0.63869 0.80409
5.32973 0.865435 6.8598
5.34504 0.29811 1.554
5.40934 0.323021 1.79856
9.45296 0.234228 0.289751
0.498116 2.66882 1.82847
8.7483 0.108997 3.53101
1.73623 0.497648 0.979961
9.53704 0.35342 1.52224
1.96708 0.729234 0.956272
1.65462 0.116353 1.17268
4.3762 0.51734 8.17699
5.73129 0.787726 2.18007
5.36909 0.360707 1.88666
2.57656 0.687995 0.694182
2.65931 0.212289 2.168
8.39037 2.87066 2.44143
3.50963 0.374571 8.06474
4.57966 0.254288 5.74812
1.40733 0.73352 8.83065
1.66992 0.910538 2.88731
1.83501 0.662819 0.660145
8.41302 0.26536 3.31089
2.33812 2.62638 9.3945
2.31472 1.05768 2.86234
2.67195 0.300441 2.11319
5.4956 0.29772 1.62522
5.29489 0.418553 6.70716
4.74915 1.48267 4.75785
4.21542 0.171915 8.30019
2.1547 0.894096 2.53684
8.76986 1.3449 1.27554
8.4751 0.247454 3.34101
4.497 0.550248 8.12301
5.9311 0.589296 5.27233
1.99582 0.308575 1.85342
5.95389 0.959574 5.00585
1.87165 0.737089 3.42545
3.47114 0.0445406 1.73253
2.85058 0.430549 1.98941
2.40094 0.7676 0.554874
9.53994 0.318735 9.96928
1.9767 0.484739 2.30482
1.82339 0.535403 1.20013
3.16096 0.347191 2.68137
2.00905 0.299371 1.85573
5.7846 0.473217 5.36446
2.40562 1.45182 3.32013
4.63927 0.282849 5.65463
2.1989 0 0.828119
2.36274 0.768125 0.627382
8.76594 0.277754 9.35987
3.05613 0.122602 2.30941
5.80461 0.540093 5.06098
1.60546 0.250501 0.727277
2.98378 0.335861 2.01144
0.671896 2.56744 2.16746
4.99432 0.970641 7.22454
2.02857 0.693813 2.83632
0.446547 2.60141 1.68002
5.83674 0.523681 5.3129
4.42778 0.15698 8.15964
4.18728 0.391665 7.95256
6.25799 1.70227 8.56693
2.22562 8.95724 0.669568
2.56713 0.406265 1.4782
2.33303 0.367069 0.240384
5.418 0.321873 7.0249
2.07797 1.97447 2.70171
2.43846 0.690657 2.53894
3.46666 0.710984 0.789817
4.57115 0.692679 8.31283
4.50672 0.491218 8.14004
4.85441 0.484385 8.22431
3.24263 1.27129 1.69203
2.8349 0.39646 2.32325
1.81833 1.13455 2.7655
6.39893 1.30949 8.34296
2.05381 2.3597 2.51658
5.31004 0.587197 7.82157
2.12012 0.678431 1.70651
1.9842 0.69514 1.47773
2.44909 2.33743 6.84731
2.9508 0.058498 0.646877
2.77396 0.326038 2.2496
2.84523 0.359716 2.32241
1.82906 0.799552 1.00334
5.19328 0.485371 7.3087
2.03103 2.48648 0.521347
3.93782 2.0081 8.45443
2.52491 0.262884 2.39084
2.09605 0.313886 1.62186
0.841159 4.37369 5.78789
2.01942 0.809403 2.67436
1.86699 0.809069 3.0837
2.42482 0.517749 2.26882
5.28757 0.189299 2.18995
6.92372 0.549593 9.18074
4.91506 0.423441 6.01989
3.86974 0.246194 7.87355
4.17833 0.575162 8.2919
2.24551 0.663018 1.45286
1.62365 1.12373 3.20627
3.08765 0.916015 1.02257
9.15981 0.192124 1.33198
2.07313 0.551243 1.91746
5.61874 0.283587 1.94972
5.53229 0.263019 7.66396
5.85459 0.787082 5.52797
3.6048 0.320523 7.70481
4.15135 0.514484 8.26566
2.23053 0.650514 1.49961
2.54015 0.77478 0.503214
2.00233 0.147125 1.94298
9.26796 0.205672 1.45334
9.69143 4.05054 4.11617
0.907588 0.582724 7.5637
5.24916 0.839823 7.10277
2.85773 0.100208 2.00667
3.88212 0.425225 8.42164
1.94295 0.489749 3.30498
9.17407 1.23397 3.6064
2.69234 0.64406 2.04956
2.76298 0.59201 1.66072
4.44067 0.740806 5.74773
8.64249 0.124892 3.57225
4.65621 0.080703 7.65014
8.78966 0.289981 9.29678
2.98276 0.255054 2.05057
5.186 0.373428 7.24299
2.95716 0.106871 1.07313
9.8239 0.186841 9.44852
1.72476 0.736146 2.64869
3.15746 0.106712 0.982965
1.97442 0.475263 2.62529
2.33217 0.29942 1.6127
2.36069 0.673088 2.08082
2.02839 0.587018 1.29338
2.18158 0.415932 2.22092
4.69713 0.495442 7.74146
2.20085 0.987722 3.15757
2.35854 0.510193 1.64929
3.86676 0.173828 8.07912
5.52027 0.527184 1.47831
4.04004 0.450558 8.16663
2.06427 0.244039 1.78933
5.27213 1.17563 1.68445
4.24866 0.449959 7.92087
2.55894 0.862693 2.63633
9.21684 0.415911 9.31149
3.00682 0.28992 1.90226
9.22337 0.264448 1.05437
4.30613 0.726948 8.36632
5.48853 0.464957 1.4543
4.02428 0.422036 8.16043
3.01216 0.203775 1.88719
9.24545 4.40655 4.13547
4.86089 0.690272 5.72924
8.83721 0.218266 3.63305
3.77729 0.363528 7.83393
1.26052 0.600167 0.390714
9.48386 0.408171 2.32539
4.48369 0.443699 7.79639
9.03987 0.493412 9.59491
2.04021 1.15393 0.564624
3.12415 0.0403378 1.62632
9.41536 4.35423 4.03915
1.78795 0.269973 3.24254
8.89787 0.228082 3.7067
4.20764 0.146527 8.28583
4.96423 0.635042 7.11412
8.90961 0.104523 3.49224
7.31742 7.01697 9.59929
9.58734 0.105774 9.55603
2.65853 0.139254 2.27951
9.90357 0.635161 0.226253
5.42935 0.443178 2.15863
5.74184 0.655688 1.45491
8.29278 0.707854 3.23473
7.28046 0.881111 8.8332
7.73567 0.184733 8.44539
1.69193 1.0224 3.2066
1.96888 0.49253 0.510275
5.67417 0.790648 5.27055
7.00525 0.572589 8.93021
9.8407 0.578197 0.0629392
5.66708 0.663588 2.05846
2.00477 0 1.27596
8.52426 0.581854 3.21046
4.195 0.710099 8.37108
4.12049 0 8.18108
2.12826 0.485966 0.934319
1.86253 2.22631 2.52612
2.58042 0.707929 2.24391
2.13335 0.814346 2.44454
9.36264 0.187 0.206795
5.73479 0.686966 5.05079
1.136 0.131229 1.17566
5.49348 0.530724 1.69845
1.84192 1.09226 3.17174
5.38259 0.345198 1.23402
2.45898 0.378933 2.03305
2.85919 0.301681 2.24411
1.83887 1.31419 2.51212
1.79211 0.495521 1.26381
8.82981 0.354923 3.26756
5.70211 0.470444 5.06858
9.59362 0.191318 9.4679
1.98209 0.607849 1.87965
1.90323 1.16475 3.15713
9.43614 0.309784 2.30484
2.07835 0.520873 0.213409
5.8636 1.04763 4.78578
5.29438 0.42343 1.74742
2.75622 0.627454 2.81723
4.79003 0.855304 5.42697
1.96973 0.632768 2.7636
4.45603 0.571185 8.07782
3.15405 0.44624 2.23364
9.3954 0.0729698 1.44112
9.51703 0.731983 1.11666
2.68874 0.0810567 2.59342
5.19114 0.299362 2.15448
9.27366 0.312269 1.43951
2.3528 0.414408 1.32434
4.84897 0.748982 5.34215
2.62468 0.152577 2.19433
4.12985 0.348621 8.0095
3.00906 0.501435 1.87946
9.12384 0.416346 1.1338
4.48391 1.01178 5.76913
1.96157 0.334838 1.27644
1.61516 0.799406 2.84586
9.00901 0.401386 1.21409
2.06337 0.330442 1.69797
4.74958 0.633058 6.43748
2.83828 0.297955 1.89376
5.06975 0.616654 6.97085
4.75294 0.530989 5.98945
2.19526 0.359545 1.75383
2.39927 0.681404 0.423258
5.57979 0.348449 2.20087
2.81973 0.557094 2.90591
2.46676 0.744287 0.31621
2.0287 0.877223 0.33135
1.56543 0.19113 0.952984
2.32196 0.497962 1.58882
4.83844 0.855364 6.70977
4.75966 0.522416 5.96674
2.29232 0.428612 1.85351
2.00483 0.185491 0.977564
5.74061 0.494702 2.27125
4.19734 0.715414 8.50791
2.18477 0.521115 0.380199
1.61115 1.12804 2.79684
5.69222 0.452923 2.02017
5.69224 0.626386 5.39226
3.53119 0.239486 8.14327
1.85235 0.148376 1.29107
2.04017 0.220211 0.679609
8.91058 0.339814 9.23154
4.16817 0.0982674 8.18013
4.23281 0.575416 8.43923
4.55181 0.364949 8.4779
1.32685 1.16998 2.76468
5.70213 0.444239 2.03565
5.73058 0.661837 5.44833
5.27971 0.878591 7.12644
2.08391 0.48333 0.618556
2.65771 0.316708 2.18734
9.18804 0.329718 9.49744
4.16665 0.000368062 8.17004
4.29546 0.532868 8.34305
3.83187 0.139806 8.28896
2.31737 0.961376 0.913037
2.31108 0.523651 0.537822
2.94798 0.279309 2.01054
3.66294 0.304822 8.39856
2.95496 0.277723 2.02467
8.61808 0.710786 3.57364
5.34084 0.623771 7.3153
2.17996 1.13386 3.02209
2.85543 0.232383 2.17376
8.29953 0.570589 2.8796
5.4171 0.37966 1.87649
2.28348 0.546561 0.584154
2.91352 0.270354 1.9986
3.76475 0.306677 8.30035
3.0884 0.406132 1.98277
8.64032 0.729204 3.56583
5.25872 0.918072 6.71419
2.20254 1.14354 3.0683
3.20178 0.237393 2.09378
9.76426 0.44166 1.39329
5.42968 0.410179 1.84882
POINT_DATA 400
SCALARS particleColor float 3
LOOKUP_TABLE default
0.327358 1 0.672642
0 0.726515 1
0 0.424073 1
0 0.360374 1
0.304592 1 0.695408
1 0.980096 0
0 0.48337 1
0 0.869713 1
0 0.547826 1
0 0.606832 1
0 0.116974 1
0 0.143125 1
0.118264 1 0.881736
0 0.522542 1
0 0.778444 1
0 0.476506 1
0 0.419449 1
0 0.826698 1
0.569081 1 0.430919
0 0.722135 1
0 0.480322 1
0.159529 1 0.840471
0.618194 1 0.381806
0 0.284338 1
0.00542827 1 0.994572
0 0.903854 1
1 5.96046e-08 0
0.201207 1 0.798793
0 0.713309 1
0 0.75627 1
0 0.710493 1
0 0.474407 1
0 0.394106 1
0 0.490628 1
0 0.625496 1
0 0.622648 1
0 0.5297 1
0 0.292119 1
0 0.738011 1
0 0.701786 1
0 0.304455 1
0 0.767688 1
0 0.537876 1
0 0.660305 1
0 0.506116 1
0 0.416102 1
0 0.241098 1
0 0.336464 1
0 0.169534 1
1 5.96046e-08 0
0 0.3676 1
0 0.590389 1
0 0.819133 1
0 0.588963 1
0 0.379149 1
0 0.490927 1
0 0.482975 1
0 0.394568 1
0 0.29152 1
0 0.813682 1
0 0.743813 1
0 0.768716 1
0.689194 1 0.310806
0 0.486203 1
0 0.541162 1
0.178487 1 0.821513
0 0.420608 1
0 0.842858 1
0 0.38254 1
0 0.719901 1
0 0.629824 1
0 0.552089 1
0 0.964889 1
0 0.403384 1
0 0.416833 1
0 0.807092 1
0 0.521874 1
0 0.249102 1
0 0.640599 1
0 0.975031 1
0 0.173087 1
0 0.102907 1
0 0.446821 1
0 0.349234 1
0 0.299344 1
0 0.525664 1
0 0.657471 1
0 0.523171 1
0 0.489732 1
0 0.524368 1
0 0.583125 1
0 0.78189 1
0 0.619954 1
0 0.300382 1
0 0.29168 1
0 0.359753 1
0 0.534424 1
0 0.90159 1
0 0.646787 1
0 0.637324 1
0 0.835361 1
0.317158 1 0.682842
0 0.380938 1
0 0.825146 1
0 0.371782 1
0 0.220948 1
0 0.611824 1
0 0.772407 1
0 0.134758 1
0 0.782691 1
0.174482 1 0.825518
0 0.822268 1
0 0.489928 1
0 0.558201 1
0 0.378019 1
0 0.307341 1
0 0.451825 1
0 0.734462 1
0 0.220262 1
0.144544 1 0.855456
0 0.279952 1
0 0.613244 1
0 0.364468 1
0 0.564228 1
0 0.756719 1
0 0.356461 1
0 0.705619 1
0 0.478319 1
0 0.546392 1
0 0.853827 1
0 0.406804 1
0 0.860036 1
0 0.40189 1
0 0.732452 1
0.179989 1 0.820011
0 0.676041 1
1 5.96046e-08 0
0 0.349911 1
0 0.98187 1
0 0.409545 1
0 0.0793299 1
0 0.876414 1
0.236154 1 0.763846
0 0.854249 1
0 0.632344 1
0 0.600868 1
0 0.537454 1
0 0.397634 1
0 0.587847 1
0 0.733314 1
0 0.0947898 1
0 0.664581 1
0 0.460997 1
0 0.767675 1
0 0.455253 1
0 0.625711 1
0 0.22434 1
0 0.194347 1
0 0.607897 1
0 0.498336 1
0 0.988888 1
0 0.559016 1
0 0.418012 1
0 0.870305 1
0 0.239771 1
0 0.466551 1
0 0.730607 1
0 0.825579 1
0.109255 1 0.890745
1 5.96046e-08 0
0 0.860369 1
0 0.391246 1
0 0.781498 1
0 0.777938 1
0 0.562446 1
0 0.364258 1
0 0.501881 1
0 0.832008 1
0 0.63447 1
0 0.637324 1
0 0.521337 1
0 0.376742 1
0 0.389886 1
0 0.401761 1
0 0.572361 1
0 0.373637 1
0 0.665026 1
0.0354532 1 0.964547
0 0.43302 1
0 0.790211 1
0 0.514186 1
0 0.666813 1
0 0.602301 1
0 0.480213 1
0 0.250432 1
0 0.523936 1
0 0.948424 1
0 0.802603 1
0 0.281814 1
0 0.688856 1
0 0.672472 1
0 0.307581 1
0 0.404787 1
0 0.407367 1
0 0.880237 1
0 0.759614 1
0 0.463917 1
0 0.904657 1
0 0.487047 1
0 0.391591 1
0 0.196149 1
0 0.980326 1
0.084071 1 0.915929
0 0.515657 1
0.160076 1 0.839924
0 0.691619 1
0 0.468575 1
0.108861 1 0.891139
0.084206 1 0.915794
0 0.271362 1
0 0.801651 1
0 0.974401 1
0 0.616672 1
0 0.467633 1
0 0.781989 1
0 0.760741 1
0 0.815876 1
0 0.864514 1
0 0.404769 1
0 0.963335 1
0 0.789971 1
0 0.644944 1
0 0.833958 1
0 0.347351 1
0 0.525121 1
0.0421683 1 0.957832
0.325612 1 0.674388
0.394512 1 0.605488
0.143763 1 0.856237
0 0.62919 1
0 0.459256 1
0 0.618545 1
0 0.532979 1
0 0.322762 1
0 0.469321 1
0 0.77982 1
0.0716842 1 0.928316
0 0.711224 1
0 0.356904 1
0 0.187165 1
0 0.702507 1
0 0.743702 1
0 0.405234 1
0 0.748342 1
0.106512 1 0.893488
0 0.578777 1
0 0.416855 1
0.134842 1 0.865158
0 0.291732 1
0 0.222352 1
0 0.846949 1
0.536486 1 0.463514
0 0.563212 1
0.0778448 1 0.922155
0 0.632484 1
0 0.888719 1
0 0.389664 1
0.187915 1 0.812085
0 0.572779 1
0 0.638785 1
0 0.553451 1
0 0.339869 1
0 0.679102 1
0.440101 1 0.559899
0.153975 1 0.846025
0 0.799579 1
0 0.857341 1
0 0.982231 1
0 0.666827 1
0 0.533594 1
0 0.500432 1
0 0.627752 1
0 0.351953 1
0 0.530895 1
0 0.734717 1
0 0.443041 1
0 0.521223 1
0 0.899685 1
0.100797 1 0.899203
0.209674 1 0.790326
0 0.51754 1
0 0.481927 1
0 0.548506 1
0 0.338508 1
0.169679 1 0.830321
0 0.740435 1
0 0.404071 1
0 0.679367 1
0 0.522465 1
0 0.508166 1
0 0.739433 1
0 0.311685 1
0 0.590954 1
0.237904 1 0.762096
0 0.43859 1
0 0.594196 1
0 0.99259 1
0.130115 1 0.869885
0 0.550893 1
0 0.929599 1
0.194137 1 0.805863
0 0.56017 1
0 0.934513 1
0 0.990527 1
0 0.78477 1
0.406313 1 0.593687
0 0.637394 1
0 0.986876 1
0 0.716708 1
0 0.378925 1
0 0.486075 1
0 0.576954 1
0 0.457538 1
0 0.406527 1
0 0.118867 1
0 0.459014 1
0 0.583787 1
0 0.821148 1
0 0.816814 1
0 0.510582 1
0 0.779855 1
0 0.579223 1
0 0.567913 1
0 0.384138 1
0 0.466363 1
0 0.573494 1
0 0.46772 1
0 0.245035 1
0 0.87773 1
0.168738 1 0.831262
0 0.477559 1
0 0.778636 1
0 0.158205 1
0 0.49124 1
0 0.53738 1
0 0.534494 1
0 0.456572 1
0 0.473383 1
0 0.329408 1
0 0.67927 1
0 0.67374 1
0 0.340002 1
0 0.548943 1
0 0.314941 1
0 0.377834 1
0 0.779289 1
0.0115849 1 0.988415
0 0.546832 1
0 0.520742 1
0 0.595149 1
0 0.769051 1
0 0.854401 1
0 0.551952 1
0 0.792014 1
0.375221 1 0.624779
0 0.541938 1
0 0.661658 1
0.15398 1 0.84602
0 0.538742 1
0 0.688722 1
0 0.696911 1
0 0.736369 1
0 0.799147 1
0 0.825121 1
0.624347 1 0.375653
0 0.534991 1
0 0.488036 1
0.0626812 1 0.937319
0 0.517781 1
0 0.51781 1
0 0.621099 1
0 0.45935 1
0 0.352494 1
0 0.488459 1
0 0.675618 1
0.0703907 1 0.929609
0 0.401805 1
0 0.777621 1
0.130903 1 0.869097
0.032795 1 0.967205
0 0.55408 1
0 0.487667 1
0 0.324232 1
0 0.590586 1
0 0.700451 1
0 0.794243 1
0 0.493485 1
0 0.899868 1
0 0.930672 1
0.0332825 1 0.966717
