# vtk DataFile Version 3.0
Particle simulation
ASCII
DATASET POLYDATA
POINTS 400 float
2.8735 1.87559 1.7976
10 7.02517 0
1.56812 3.44323 1.69044
7.14565 3.27853 7.91269
9.38335 0.22954 6.77232
2.0079 3.46276 0.484017
7.26655 2.77187 6.82178
3.91849 7.3691 7.86419
8.60314 0.625119 3.78118
8.20328 9.3944 0
8.40422 3.88649 3.70724
2.7111 2.24047 8.40474
9.38608 4.98893 3.07296
8.76934 4.57492 1.60611
3.79742 3.10779 8.07559
3.25552 0 1.1435
1.39342 7.55558 2.98938
4.77812 0.268586 3.38107
5.09546 8.57682 9.39552
9.62165 6.16163 0.180968
2.49522 0.613252 0.955198
4.92209 7.99573 0.248084
7.61657 1.35504 0.0570217
0.156373 0.881822 1.5418
4.8651 7.45423 6.45834
7.69396 8.33985 0.777023
6.75191 2.32036 5.30385
9.20326 9.24049 4.34815
2.5222 3.30468 10
0 1.84472 7.73111
9.63629 7.62175 7.32525
7.41953 1.12633 1.8084
4.99366 9.23966 7.2948
1.85594 7.15492 9.79057
9.44117 5.86339 7.30779
5.28793 8.76333 3.52166
1.9001 3.83079 8.9158
7.09179 0.316636 1.20746
4.9383 1.62573 4.09139
4.89035 8.39494 4.98788
7.70233 2.67436 9.05759
9.42195 8.69942 5.22148
5.34155 1.87021 2.4483
7.01873 3.33045 4.56532
2.80937 9.88494 9.76853
10 1.0193 9.0966
8.2352 0.120621 4.01106
1.37734 0.687713 9.27175
6.79133 4.70457 1.40515
7.4802 3.80492 8.78766
1.41602 3.75497 7.46691
4.36038 5.26934 2.14159
3.77295 6.43886 5.06826
7.35647 7.15579 4.44359
9.123 0 6.25944
0.70968 3.9648 1.73821
7.23547 2.15454 9.36522
0.109677 1.73546 9.40477
3.71859 4.48416 0.69051
5.2781 8.84605 6.26965
9.6049 1.11043 5.27009
7.51305 1.503 1.18044
1.90671 5.37156 9.23225
5.06512 5.39622 9.78552
4.46384 3.85379 4.53666
9.64238 3.59461 5.48633
8.16733 1.7384 1.58633
1.93095 3.84436 6.7168
1.2988 0 7.2307
0.346045 4.40936 0.222682
9.71635 4.08669 3.10321
6.39603 8.7192 5.14774
6.95251 4.0403 9.13887
1.599 4.87956 8.6109
9.4598 4.11892 3.74285
8.9709 0.404038 8.54907
7.98741 1.27679 3.76139
8.49992 5.33503 0
0.656217 0 9.8096
1.63196 3.27836 0.631932
2.79406 2.34923 9.95713
7.10521 1.58853 7.85185
6.32166 9.79564 3.59889
8.52992 6.3113 1.70394
5.8776 7.37453 9.88137
9.20926 6.67632 5.28663
1.67647 8.993 8.51481
2.25604 1.28418 7.15421
1.60168 5.34335 6.2145
0 3.77803 2.04716
5.23421 0.33145 4.11732
9.35477 8.95621 4.58216
1.9119 6.91918 1.5795
0.260852 6.06861 4.57678
6.61258 8.97629 1.42343
1.56223 4.79419 4.89078
1.93805 7.79881 9.33291
3.27344 0.503265 3.43852
1.41873 6.4675 7.1548
7.83652 3.45508 6.93839
3.23147 4.85808 0.445541
4.31009 0.64582 3.59213
2.37382 7.84548 2.56445
4.75415 0.0874922 3.99649
6.88882 0.55492 0.613296
2.29219 6.88944 4.50906
1.26744 9.71695 4.79364
1.26737 3.82312 1.66793
9.31758 0.289317 9.48177
0.970865 8.208 9.42409
1.6249 6.11515 9.9796
8.98037 2.25453 6.09087
5.16287 7.99763 3.12303
4.48268 0.544933 8.32015
2.28851 2.11494 4.43719
8.51544 1.28729 0.277614
9.29536 9.39537 6.26512
4.35117 9.35137 3.95434
0.203512 2.30527 9.17501
2.69413 8.9787 0
4.93021 10 0.748692
4.85506 6.15678 0.882066
0.353764 9.43486 9.74302
9.06857 8.76777 6.35607
8.89106 1.48631 3.52897
4.10818 1.14384 9.73169
4.01265 4.86021 3.87135
8.77081 9.61991 5.60409
8.00411 4.7018 9.47534
3.67498 7.01385 3.86023
9.01717 5.83108 0.620083
5.281 3.99442 6.36408
3.58658 2.35502 9.11255
1.15185 8.57072 2.40989
3.89209 7.09582 8.12496
0.715999 6.54435 0.868578
7.18866 5.06594 4.7432
6.33541 5.52907 7.84424
8.02697 8.69159 9.6137
10 4.99645 1.89918
4.4369 0.436751 3.63103
9.86417 6.55152 4.10727
8.16615 9.64638 4.52475
7.54398 4.51166 3.49342
5.29972 9.05108 8.94415
9.00181 1.73287 3.23476
9.22469 6.1608 1.68332
1.13133 0.206149 0.755576
4.8783 8.10812 1.12498
6.75391 0.331452 5.87128
4.45671 0.332708 3.44054
6.38953 3.96984 3.66594
9.28293 2.71009 0.696448
3.65242 0.979628 6.48904
2.44138 9.38032 4.04907
5.49896 5.21827 9.78806
8.35483 6.96333 6.85211
8.0606 7.17307 8.30388
5.02786 7.41606 0.850004
8.88466 4.44056 1.29465
9.48501 8.7063 3.62513
6.5202 3.29339 3.00493
0.624985 3.14705 7.4021
8.58406 10 7.07557
1.68736 5.88863 4.7093
4.22521 5.15696 0.670366
8.7661 1.00815 0.843983
4.82978 9.48202 9.90932
4.21906 5.76556 7.07592
3.1204 8.74407 6.29212
7.16259 1.61288 3.69133
6.9457 0.644694 0.233655
1.38066 8.01297 5.70338
5.91846 0.743714 7.32281
1.46686 8.29684 7.03599
1.14786 1.78452 0.86756
1.16511 7.35932 4.4848
9.38954 7.03492 7.66868
2.48798 1.65358 3.25202
1.43193 2.95683 10
3.04973 0.864343 3.74584
8.89628 4.77209 5.21648
0.504666 7.17132 1.78645
0.652207 0.158092 9.22551
6.86066 2.44087 8.15617
9.35686 6.19305 1.56892
4.44903 0.325134 3.17195
7.8538 7.98219 8.89297
2.5542 2.13203 4.57799
3.30039 0.390607 5.31467
5.24342 0.147866 5.23101
4.82469 0.473848 4.29027
3.50798 8.42487 2.14005
8.87009 6.56113 3.87841
0 3.02498 1.84752
2.78637 9.36928 4.05801
5.88381 0 2.65336
9.1966 2.7359 1.16477
8.73907 2.11202 2.44249
3.69187 0.432828 3.07643
4.39611 0.396631 3.37149
0.926282 9.74556 7.18988
2.87197 7.96546 0.92288
8.6409 5.93013 9.27382
1.95694 4.21807 3.4954
5.95437 9.45033 2.50402
3.1337 2.05154 5.90948
1.18448 3.81511 5.95763
0.126688 3.09693 5.1116
9.48693 3.06926 0.131891
4.4728 0.205437 3.46677
4.71846 0.189565 3.66824
0.252736 5.48016 2.18606
3.8344 5.84047 6.67944
2.09257 7.80666 10
1.91679 8.4646 0.380321
4.42419 0.624707 3.56727
8.61967 4.70806 5.65134
8.34022 5.29672 8.97933
0.602036 5.08141 0.266
7.77918 7.62046 8.29079
0.401063 9.38691 8.59332
0.307983 5.19996 1.24788
3.94277 0.542009 3.25235
3.41747 1.71709 0.756463
9.85528 7.85737 8.9547
7.16705 5.32281 5.90788
5.29016 0.0840924 4.25561
4.62242 0.369263 3.55386
5.68556 1.79223 9.35518
1.78048 5.96009 8.59976
7.36673 8.21866 1.90772
3.36418 0.580083 6.7064
4.41074 0.43353 3.56325
1.69052 0.398761 7.8458
1.21772 9.02805 9.97969
3.48995 2.0842 6.11593
7.11988 8.76691 9.82332
4.44907 0.343293 3.27817
4.73278 0.449376 1.26353
4.40073 0.330772 3.69564
6.69985 0.168824 1.39754
3.67546 1.89365 5.89591
7.7126 0.833195 1.97656
6.29363 3.5896 1.66671
6.18563 2.77912 3.10414
6.07827 3.11492 7.42729
0.317916 8.63879 3.43563
8.32873 8.43424 9.47523
2.62533 3.46536 2.71353
4.52516 0.602773 2.91781
0 2.39379 9.49134
10 6.92071 8.28852
4.28687 2.52615 3.78165
4.1583 1.46607 2.35169
0.58013 4.57184 0.372624
1.43003 0.209632 3.11218
1.49841 0.211228 7.8424
1.347 9.12026 2.23068
2.64739 0.211461 6.30044
7.9319 8.5169 5.94659
2.74513 4.69303 7.13679
1.26577 6.78757 1.5626
9.2551 2.32812 9.01162
1.36298 2.27735 0
7.30473 0.964993 2.08654
1.33437 5.62535 1.84878
1.40617 0.587724 7.47592
2.37519 0.694445 3.13283
7.69325 6.00642 2.15068
4.69174 0.236722 3.65091
3.06243 6.44335 0.998535
1.26815 5.97312 3.96156
9.00311 2.07578 1.14367
1.3117 6.11753 10
4.97394 0.727037 9.17802
2.81465 9.20801 5.59724
9.7152 2.2003 6.41165
5.78784 1.45942 1.65976
4.64274 0.461216 3.15039
3.44197 9.35158 1.52473
9.49692 0.464913 2.26128
0.213644 4.30593 5.06163
1.51797 1.91841 7.77337
7.19227 5.81197 8.21282
7.20122 4.49722 4.54926
4.65159 0.35055 3.63612
7.32614 9.73342 3.10118
4.3855 2.94092 0.831184
8.98868 4.4253 4.1367
5.34168 8.80893 9.69074
0.329026 8.76938 4.79535
3.05043 6.56838 8.26853
9.20612 0.868487 1.09208
5.33898 6.27814 3.87099
1.76146 0.363456 8.0768
4.62231 0.657525 3.59542
4.46628 0.16915 3.49231
3.86362 0.134582 3.87474
4.68917 0.254814 3.39879
3.94471 9.67405 9.90713
9.31005 1.82217 1.26731
4.55493 0.662715 3.48507
3.30482 6.415 6.59089
4.37677 0.254385 3.96774
0.883568 8.61209 4.47097
4.49394 0.243983 3.26689
4.41381 0.46311 3.28002
4.82551 9.03938 1.23094
6.84157 5.63331 7.78294
8.45935 8.18457 2.17653
2.57943 2.18179 0
9.23295 6.04919 0.970101
4.63885 0.466188 3.65644
9.83145 3.42347 9.99833
6.53683 8.75986 4.05132
6.55312 4.2059 2.69931
0.513171 3.19512 8.72566
8.01868 6.92451 6.86329
2.96518 3.09327 0.336468
1.45258 0.167186 7.93289
3.24563 6.81426 5.87416
1.72534 0.571732 7.75759
4.60615 0.218144 3.73341
4.93098 0.474691 3.54696
2.21518 9.95022 5.44246
4.39695 0.688926 3.00312
2.87662 1.15321 1.12621
7.23935 5.30892 5.86198
4.51534 0.378237 3.27202
1.69174 0.521165 7.76763
1.65615 0.604744 3.17291
10 4.69545 6.91393
3.27498 5.37078 3.27536
9.45842 0.67827 1.76715
2.32142 6.20611 5.40991
3.66331 7.53738 6.78865
4.61253 0.34564 3.6054
6.70429 9.09651 0.389251
7.7893 3.64004 4.93637
5.5902 8.79663 5.121
9.13108 8.54661 9.5829
1.53295 2.44819 7.09173
1.71343 0.161877 7.83494
4.80411 0 3.54227
4.92356 0.455865 4.28938
9.49365 0.603649 1.10197
4.53913 0.762253 3.10821
4.70277 0.909237 2.78941
10 1.2853 0
4.46276 0.41296 3.28143
4.37789 0.671792 3.29213
2.65655 1.47135 8.07621
5.34385 5.23299 5.30542
2.57198 1.85936 4.64699
4.62757 0.315058 4.02272
9.45393 2.67157 8.36701
9.82522 9.82226 3.4254
4.67105 0.492992 3.16765
4.51919 0.0787436 3.11092
9.59374 0.786444 1.46112
1.87558 0.149729 7.8689
1.79738 0.120206 7.91976
3.9695 0.2124 3.01095
4.67943 0.413181 3.96319
9.53142 0.596932 1.9567
1.87146 0.231645 8.38995
2.2364 7.85602 6.07688
1.70899 0.199634 7.964
2.97705 3.49514 2.38527
9.29045 0.916494 2.14674
0.0279034 8.07315 2.18001
7.43099 8.51694 5.18796
5.21147 0.528495 3.47249
4.92025 0.155966 3.84893
9.67565 0.608142 1.80828
1.76663 0.602511 8.09268
1.74534 0.646756 7.98375
0.80921 3.36053 8.8713
4.89879 0.261865 3.54821
4.19304 0.288776 3.06783
4.34677 0.642794 3.01969
1.06908 4.56635 8.5394
4.58056 0.479033 3.62761
7.68877 6.98757 7.73348
1.80507 0.40926 8.17144
4.57276 0.159758 3.43025
4.23461 0.374046 3.10559
0.551819 9.65824 7.4126
9.12822 0.0357914 7.65953
4.50556 0.176131 3.58244
4.98272 0.348645 3.5231
2.01105 0.0938957 8.16593
4.37234 0.560256 3.70756
6.20088 6.64399 7.5642
1.35611 0.095826 7.62309
4.73366 0.127186 3.29479
7.46239 3.85626 2.69739
1.94967 5.5621 0.139734
9.469 0.753513 1.69331
POINT_DATA 400
SCALARS particleColor float 3
LOOKUP_TABLE default
1 5.96046e-08 0
1 5.96046e-08 0
1 0.39173 0
1 5.96046e-08 0
0.509454 1 0.490546
1 5.96046e-08 0
0.482842 1 0.517158
1 0.0384861 0
1 5.96046e-08 0
1 5.96046e-08 0
1 5.96046e-08 0
1 5.96046e-08 0
1 5.96046e-08 0
1 0.00932103 0
1 5.96046e-08 0
1 5.96046e-08 0
1 5.96046e-08 0
0 0.484257 1
0 0.832579 1
1 5.96046e-08 0
0.430537 1 0.569463
1 5.96046e-08 0
1 0.346716 0
0.540733 1 0.459267
1 0.755354 0
1 5.96046e-08 0
1 0.552693 0
0.474612 1 0.525388
1 5.96046e-08 0
0.151011 1 0.848989
1 0.459402 0
0.193572 1 0.806428
0.794059 1 0.205941
0.87792 1 0.12208
0 0.860013 1
0.787863 1 0.212137
1 0.675047 0
0 0.569692 1
1 5.96046e-08 0
1 0.610493 0
1 0.825116 0
0.976361 1 0.0236394
0 0.863414 1
1 5.96046e-08 0
0 0.715595 1
1 0.806875 0
0.696814 1 0.303186
1 0.319943 0
1 0.170621 0
1 5.96046e-08 0
1 0.0514543 0
1 5.96046e-08 0
1 0.117372 0
1 5.96046e-08 0
1 5.96046e-08 0
0 0.928047 1
1 0.56341 0
0 0.39486 1
1 5.96046e-08 0
1 0.697708 0
1 5.96046e-08 0
1 0.748579 0
0.466873 1 0.533127
1 0.201475 0
1 0.838014 0
1 5.96046e-08 0
0.930233 1 0.0697672
0.784647 1 0.215353
0.691151 1 0.308849
0 0.706219 1
1 5.96046e-08 0
0.377602 1 0.622398
1 5.96046e-08 0
1 5.96046e-08 0
1 5.96046e-08 0
1 0.852494 0
1 5.96046e-08 0
1 5.96046e-08 0
0 0.582203 1
1 5.96046e-08 0
1 5.96046e-08 0
1 0.300722 0
0.460116 1 0.539884
1 5.96046e-08 0
1 5.96046e-08 0
0.191617 1 0.808383
0.354093 1 0.645907
0.405744 1 0.594256
0.232337 1 0.767663
1 5.96046e-08 0
0 0.655172 1
0.614452 1 0.385548
1 5.96046e-08 0
1 0.988903 0
1 5.96046e-08 0
1 5.96046e-08 0
1 5.96046e-08 0
0.819153 1 0.180847
0 0.949727 1
1 5.96046e-08 0
1 5.96046e-08 0
1 5.96046e-08 0
1 5.96046e-08 0
1 0.621024 0
1 0.706601 0
1 5.96046e-08 0
1 5.96046e-08 0
0.0820817 1 0.917918
1 5.96046e-08 0
1 5.96046e-08 0
0.645653 1 0.354347
0.469827 1 0.530173
1 5.96046e-08 0
1 5.96046e-08 0
0 0.81879 1
1 5.96046e-08 0
1 5.96046e-08 0
0.69745 1 0.30255
0.51901 1 0.48099
0.862436 1 0.137564
1 0.712147 0
1 5.96046e-08 0
1 0.753716 0
1 0.442162 0
0.57098 1 0.42902
0.866328 1 0.133672
0.750999 1 0.249001
0.562265 1 0.437735
0.104699 1 0.895301
1 5.96046e-08 0
1 5.96046e-08 0
1 5.96046e-08 0
1 5.96046e-08 0
0.078711 1 0.921289
1 5.96046e-08 0
1 0.116995 0
1 5.96046e-08 0
1 5.96046e-08 0
1 5.96046e-08 0
0 0.620138 1
0 0.26815 1
1 0.0724772 0
1 0.48169 0
1 5.96046e-08 0
1 0.425202 0
1 0.28746 0
0.655267 1 0.344733
1 0.876673 0
1 0.598828 0
0.487489 1 0.512511
0 0.531687 1
1 0.889458 0
0.631849 1 0.368151
0.158869 1 0.841131
1 0.329918 0
1 0.634011 0
0.0252796 1 0.97472
0.389186 1 0.610814
0.440097 1 0.559903
0.468663 1 0.531337
1 5.96046e-08 0
0 0.64289 1
1 5.96046e-08 0
1 0.21138 0
0.905899 1 0.0941005
1 0.816406 0
1 5.96046e-08 0
0.830292 1 0.169708
1 5.96046e-08 0
1 5.96046e-08 0
1 5.96046e-08 0
1 0.199143 0
1 0.443226 0
0.431972 1 0.568028
1 0.466505 0
1 0.336294 0
1 5.96046e-08 0
1 5.96046e-08 0
1 5.96046e-08 0
0.765402 1 0.234598
0 0.891456 1
1 0.252126 0
0.0895903 1 0.91041
1 5.96046e-08 0
0.292726 1 0.707274
1 5.96046e-08 0
0 0.324441 1
0.989283 1 0.0107166
0.399278 1 0.600722
0.879585 1 0.120415
0 0.573963 1
0 0.654763 1
1 0.855933 0
1 0.0559292 0
1 0.89391 0
1 5.96046e-08 0
1 0.435442 0
0.708361 1 0.291639
0.892818 1 0.107182
0 0.244325 1
0 0.707363 1
1 0.904256 0
1 0.466255 0
1 5.96046e-08 0
0.81817 1 0.18183
1 5.96046e-08 0
1 0.241875 0
0.276255 1 0.723745
1 0.521435 0
1 0.967902 0
0 0.586942 1
0 0.70792 1
0.298875 1 0.701125
0.511541 1 0.488459
1 5.96046e-08 0
1 5.96046e-08 0
0 0.682361 1
0.802799 1 0.197201
1 0.350593 0
1 0.776589 0
0.346456 1 0.653544
1 5.96046e-08 0
1 5.96046e-08 0
0 0.717033 1
1 5.96046e-08 0
1 0.754138 0
1 0.690607 0
0 0.678262 1
0 0.372037 1
1 5.96046e-08 0
0 0.753176 1
0.462724 1 0.537276
1 0.0757774 0
0 0.94739 1
0 0.733756 1
1 5.96046e-08 0
1 5.96046e-08 0
0.975448 1 0.0245517
0 0.688005 1
1 5.96046e-08 0
0.0387982 1 0.961202
0.269226 1 0.730774
0 0.476921 1
1 0.3948 0
0.432798 1 0.567202
0.933402 1 0.0665977
1 5.96046e-08 0
1 0.0355937 0
0.918767 1 0.081233
1 0.654689 0
0 0.60844 1
0.781447 1 0.218553
1 0.637609 0
1 5.96046e-08 0
1 5.96046e-08 0
0.774796 1 0.225204
1 5.96046e-08 0
0 0.254953 1
1 0.613605 0
0 0.796364 1
1 5.96046e-08 0
1 5.96046e-08 0
0.963422 1 0.0365779
1 5.96046e-08 0
1 5.96046e-08 0
1 5.96046e-08 0
0.735276 1 0.264724
0 0.573895 1
0.743753 1 0.256247
0.123254 1 0.876746
0 0.709917 1
0 0.619029 1
0.416228 1 0.583772
1 0.466654 0
1 5.96046e-08 0
0.360904 1 0.639096
1 0.1707 0
1 5.96046e-08 0
0.787496 1 0.212504
0 0.340073 1
0.949651 1 0.0503493
0 0.798127 1
0.668853 1 0.331147
1 5.96046e-08 0
1 5.96046e-08 0
1 5.96046e-08 0
0 0.886387 1
0.657606 1 0.342394
0.508394 1 0.491606
1 0.178334 0
1 0.327522 0
1 0.461979 0
1 5.96046e-08 0
1 5.96046e-08 0
1 5.96046e-08 0
0 0.524048 1
0 0.666747 1
0 0.166764 1
0.0547277 1 0.945272
0 0.388044 1
1 5.96046e-08 0
1 5.96046e-08 0
0 0.828824 1
1 0.822099 0
0 0.862192 1
1 5.96046e-08 0
0 0.899081 1
0 0.558617 1
0 0.846759 1
0.180362 1 0.819638
1 0.801041 0
1 5.96046e-08 0
0.000780731 1 0.999219
0.0959976 1 0.904002
1 0.399931 0
1 0.615518 0
0.732208 1 0.267792
1 0.74003 0
1 5.96046e-08 0
0.659657 1 0.340343
0 0.55445 1
1 5.96046e-08 0
0 0.920306 1
0 0.368912 1
0.271268 1 0.728732
1 5.96046e-08 0
0 0.341048 1
0.298381 1 0.701619
0.356671 1 0.643329
0 0.436664 1
0.5045 1 0.4955
1 0.818398 0
1 5.96046e-08 0
0 0.919826 1
0 0.473897 1
1 5.96046e-08 0
0.157464 1 0.842536
0 0.526482 1
1 5.96046e-08 0
1 0.257093 0
0.579406 1 0.420594
1 0.542455 0
0.179251 1 0.820749
0 0.478774 1
0 0.659257 1
0 0.35102 1
0 0.898667 1
0 0.525188 1
0 0.670031 1
0.625845 1 0.374155
0 0.944407 1
0 0.279536 1
0.284684 1 0.715316
1 5.96046e-08 0
0 0.545189 1
0 0.596408 1
0.168178 1 0.831822
0.612345 1 0.387655
0.206114 1 0.793886
0 0.612442 1
0 0.80237 1
0 0.188538 1
0 0.433684 1
0.327747 1 0.672253
0.0511865 1 0.948813
0.172568 1 0.827432
0 0.973159 1
0 0.745249 1
0 0.370347 1
1 0.495352 0
0 0.744503 1
0.167589 1 0.832411
1 5.96046e-08 0
0 0.395328 1
0.0524854 1 0.947515
0 0.935516 1
0 0.516424 1
0.384442 1 0.615558
0.536742 1 0.463258
0 0.621199 1
0 0.66787 1
0 0.143439 1
0 0.49287 1
0 0.607015 1
1 0.497324 0
0 0.482941 1
0 0.422362 1
0 0.430154 1
0.648767 1 0.351233
1 0.517462 0
0.362098 1 0.637902
0 0.198263 1
0 0.669608 1
0 0.722514 1
1 0.0578075 0
0 0.500036 1
0 0.577384 1
1 0.877602 0
1 0.577206 0
0.202561 1 0.797439
