# vtk DataFile Version 3.0
Particle simulation
ASCII
DATASET POLYDATA
POINTS 400 float
1.07829 0.551709 0.0574257
1.65707 0.754701 0.783887
1.02989 0.566609 4.12076
1.44191 0.630785 0.82173
0.951162 0.794494 3.85369
0.490886 0.437442 2.36089
0.903178 0.486909 3.43849
0.98307 0.270114 2.0437
2.62242 0.801404 2.71394
3.12434 0.965021 1.33819
1.11615 0.589939 0.0336413
1.67483 0.804221 0.756816
0.98488 0.520157 4.11939
1.39193 0.643716 0.831234
0.995959 0.783871 3.93352
0.48963 0.418582 2.33063
0.948564 0.58561 3.62079
0.857694 0.421396 2.3246
2.6371 0.771614 2.66661
3.13086 0.983344 1.30078
1.92513 0.760825 0.247029
2.01392 0.970665 0.421579
1.78663 0.639952 4.36743
2.72621 0.812001 0.65896
1.79455 0.930252 3.94362
1.1706 0.895177 2.42466
2.70914 0.995466 3.87216
0.739859 0.35544 2.13377
2.14671 0.935087 2.95127
0.925625 1.08523 1.76559
1.93594 0.763698 0.252194
2.10556 0.91221 0.580462
1.75972 0.668334 4.33117
2.74302 0.814468 0.658401
1.79023 0.930269 3.93667
1.17696 0.970428 2.45965
2.68603 1.00881 3.79795
0.765145 0.444053 2.24238
1.94757 0.898878 3.0752
0.95794 1.06274 1.76772
1.06666 0.770724 0.182242
3.42999 0.845698 1.27859
3.76744 0.83904 3.39165
3.66483 0.890434 0.632044
3.1093 0.853916 4.53614
3.14112 1.00766 1.92444
3.12398 0.95886 3.15199
3.16236 0.950355 3.9551
1.84062 1.01794 2.88633
0.135677 0.929412 2.44887
1.0892 0.791534 0.190346
3.41585 0.810684 1.28239
3.77459 0.911922 3.44425
3.65866 0.874288 0.646089
3.10521 0.839817 4.58186
3.09137 0.994081 1.92816
3.0967 0.88086 4.60076
3.12568 0.962577 3.9904
1.81163 1.01333 2.87085
0.154297 0.902966 2.40833
1.44997 1.1119 0.244722
0.772544 0.875833 1.12675
0.380829 1.09633 3.00793
1.64256 0.856904 0.910459
1.38062 0.952526 3.55169
1.1585 0.660396 2.44537
1.31231 0.794959 3.39901
0.10759 0.959537 2.33694
1.76033 1.00746 2.99529
0.229329 1.0093 2.19323
1.46096 1.14535 0.254886
0.733158 0.842848 1.11013
0.419245 0.992357 3.10907
1.62536 0.886358 0.811563
1.35557 0.959759 3.60909
1.12321 0.68381 2.4494
1.28161 0.812218 3.38071
0.0268158 1.01864 2.70044
1.80012 0.989576 3.01776
0.254378 0.998937 2.24625
2.09173 0.779237 0.138941
3.27684 0.955065 1.36136
1.85427 0.887085 2.93686
3.40253 0.950476 0.336857
2.60015 0.851736 4.31975
2.21468 0.889929 1.88281
2.95538 0.783635 4.215
2.4354 0.939523 2.47007
3.42102 1.06589 2.91272
2.00095 0.412766 2.00837
2.112 0.802551 0.160763
3.30714 0.919957 1.32333
1.82847 0.901274 3.02893
3.439 0.944523 0.324936
2.67284 0.82338 4.33225
2.24692 0.898114 1.8843
3.02907 0.673065 4.26662
2.42969 0.951349 2.39413
3.51828 1.04407 2.96337
2.05784 0.406143 2.0304
3.3653 0.953533 0.145628
2.41346 0.93312 0.78025
2.24783 0.877621 3.0431
2.15366 0.863181 0.327261
1.54577 0.793224 4.04369
1.95032 0.705681 2.23655
1.20884 0.924219 3.32161
2.09651 0.89549 3.44544
1.6869 0.965627 2.85915
2.32652 0.518097 1.97071
3.30972 0.942133 0.176968
2.36154 0.913694 0.726643
2.04751 0.905183 3.26468
2.16377 0.853165 0.401532
1.55232 0.806496 4.07646
1.94856 0.695607 2.21088
1.23115 0.924183 3.23725
2.14585 0.909533 3.49755
1.65325 0.955221 2.89014
2.39089 0.501118 1.88086
3.27579 0.794303 0.0528547
3.03631 0.949792 1.25361
4.51879 0.680233 3.08994
3.97922 0.656646 0.335027
3.78761 0.646202 3.60109
4.23953 0.232683 2.24925
3.44691 0.116055 4.73995
3.86797 0.919773 2.13098
3.82271 0.701338 3.45661
4.05567 0.229136 1.85175
3.27807 0.797254 0.0190319
3.02113 0.930341 1.24388
4.46654 0.703748 3.04147
3.8499 0.667584 0.308864
3.78401 0.607069 3.62324
4.26798 0.253294 2.21024
3.5345 0.12447 4.81597
3.88704 0.939144 2.13225
3.81004 0.676988 3.49345
3.93325 0.504065 1.8481
1.80723 0.780852 0.205664
1.65051 0.881222 0.741778
1.37443 0.633506 2.88698
1.3841 0.768836 0.583941
0.875591 0.865547 3.91373
1.9883 0.464767 2.33914
2.90178 0.912142 4.03675
1.35774 0.960845 3.37558
0.860415 0.866019 3.00891
1.67684 0.420063 1.84171
1.81851 0.787189 0.217811
1.62973 0.869592 0.735372
1.39861 0.693837 3.04751
1.44573 0.795003 0.643792
0.937536 0.895449 3.81936
2.00535 0.468944 2.39392
2.8611 0.912414 3.98366
1.44864 0.977309 3.28835
0.915264 0.855081 3.09029
1.65517 0.454137 1.84292
2.30584 1.01989 0.405549
3.17193 0.92055 0.407101
3.33768 0.908989 3.57184
3.47988 0.535509 0.538391
2.07947 0.915314 3.74721
1.92363 1.02678 2.61468
2.62745 0.977776 4.36544
1.92171 1.01925 2.33767
2.12342 1.03833 2.72431
2.67199 0.798072 1.40379
2.33164 1.00524 0.401902
3.19071 0.876713 0.326076
3.36256 0.906826 3.57928
3.53921 0.521968 0.516179
2.15478 0.943722 3.78151
1.98637 1.03914 2.62358
2.61042 0.922345 4.38964
1.93617 0.983605 2.45235
2.09919 1.10996 2.71535
2.68023 0.801769 1.42509
3.56648 0.609307 0.217114
1.24807 0.746821 0.532979
3.46197 0.932787 3.52305
1.18911 0.836752 0.50687
3.78284 0.553435 3.35951
3.93817 1.01664 3.5312
2.6692 0.571061 4.46743
4.0528 0.968093 2.08329
3.14135 0.85693 2.82539
4.0627 0.835664 1.83154
3.56261 0.613196 0.242776
1.122 0.713181 0.653649
3.39409 0.941199 3.58344
1.14879 0.836641 0.508949
3.78536 0.572695 3.37966
3.89668 1.08106 3.53237
2.6139 0.557788 4.46014
3.9923 0.982224 2.02162
3.15842 0.858843 2.84972
4.06223 0.864185 1.79509
1.13926 0.75078 0.0472271
0.645968 0.675301 0.862279
1.02697 0.729015 4.15432
1.35989 0.704097 0.695924
0.948207 0.510518 3.81784
0.290327 0.702014 2.45472
1.43555 0.428217 3.1843
0.645955 0.91955 2.25096
2.37604 0.743942 2.89429
3.06084 0.783638 1.3805
1.15091 0.796039 0.00644526
0.901657 0.705371 0.603335
1.03671 0.739822 4.09455
1.36973 0.693451 0.63573
0.961004 0.509124 3.81552
0.27494 0.712183 2.41787
1.42476 0.427743 3.17771
0.45409 0.704376 2.64915
2.39753 0.704962 2.91273
3.0594 0.780158 1.37922
2.25467 0.61125 0.404528
2.44099 0.543752 0.191658
1.66679 0.714761 4.32064
2.55346 0.63815 0.566526
1.8054 0.57681 3.97045
1.2168 0.490406 2.83909
2.80096 0.362692 3.82053
0.903223 0.799732 2.35228
2.81314 0.709965 2.89394
0.790704 0.489159 1.94705
2.2208 0.636064 0.395423
2.34598 0.563006 0.272425
1.68776 0.73733 4.28923
2.55372 0.63593 0.507039
1.78822 0.574057 3.96981
1.2423 0.496979 2.86017
2.80213 0.358859 3.81009
0.851411 0.727255 2.3756
2.78183 0.712733 2.78923
0.801695 0.498108 1.95553
1.17131 0.561013 0.406221
3.36587 0.48993 1.29048
3.61758 0.59219 3.60067
3.65674 0.653814 0.624033
3.0087 0.522779 4.51931
3.07485 0.65448 1.8769
2.50692 0.645576 3.06941
2.55545 0.660613 1.62115
3.03533 0.567248 2.86531
0.155354 0.756539 2.33438
1.14479 0.56717 0.390396
3.46838 0.46779 1.23054
3.60153 0.549251 3.67616
3.66815 0.666347 0.662376
3.01646 0.512571 4.5286
3.06089 0.65275 1.92436
2.86714 0.628133 3.36164
2.58556 0.64189 1.65912
3.00005 0.565387 2.82
0.164429 0.764733 2.32924
1.69211 0.206458 0.285231
0.836407 0.388333 0.989407
0.395078 0.498434 3.08255
1.72924 0.468594 0.858902
1.53855 0.484727 3.5578
1.16295 0.473318 2.66489
1.9015 0.450596 3.07364
1.14917 0.332807 3.3858
1.13951 0.431546 3.45137
0.462516 0.484544 2.07895
1.71485 0.224869 0.30791
0.884369 0.380154 0.987978
0.34391 0.505753 3.0646
1.72394 0.484981 0.903016
1.54324 0.481894 3.63674
1.12537 0.532867 2.49783
1.91116 0.468706 2.95699
0.278777 0.507208 1.92783
1.16927 0.447684 3.43776
0.470382 0.477394 2.13867
3.003 0.544517 0.424554
3.25217 0.499532 1.26621
2.21712 0.739087 3.11022
3.49925 0.455915 0.52795
2.62557 0.433313 4.44907
1.7662 0.802273 2.05022
3.00314 0.804288 4.33822
1.65604 0.663721 2.55485
3.79203 0.476981 2.84168
2.29178 0.734182 2.60608
2.91982 0.520174 0.428159
3.22734 0.478586 1.25218
2.20925 0.750983 3.21981
3.50265 0.495714 0.438417
2.69235 0.455571 4.53528
1.79516 0.798864 2.05577
3.04788 0.853093 4.25364
1.77369 0.664692 2.4153
3.74274 0.504321 2.85338
2.40155 0.735911 2.46562
3.62447 0.513951 0.209214
1.90208 0.494138 0.799752
2.47461 0.655573 3.3841
2.06831 0.420156 0.452653
1.57435 0.405733 4.02621
2.90129 0.625339 1.96092
1.23187 0.590187 3.11545
2.46555 0.816058 2.26081
1.93911 0.585818 2.72923
2.60973 0.703883 2.30475
3.62929 0.510384 0.229968
1.82972 0.515159 0.787344
2.38522 0.680027 3.48236
2.05194 0.468055 0.537016
1.45671 0.4556 4.01432
2.87516 0.563461 2.12318
1.17767 0.598722 3.17996
2.22356 0.565078 3.08464
1.81985 0.584367 2.68575
2.70961 0.694952 2.25338
3.45975 0.762471 0.0127109
3.41759 0.314525 0.748201
4.09775 0.673672 3.51634
3.39025 0.403928 0.379489
3.27433 0.581514 3.33834
3.76389 0.455946 2.48314
2.61305 0.740673 4.41818
3.94728 0.58427 1.97021
3.69496 0.495838 2.70286
3.81041 0.729876 1.90869
3.39808 0.73695 0.00369624
3.29659 0.302091 0.851043
4.15806 0.701258 3.49912
3.38544 0.391002 0.373412
3.21056 0.596927 3.30128
3.68578 0.472417 2.83352
2.65402 0.727365 4.42866
3.92319 0.53465 2.0121
3.69755 0.52666 2.70306
3.81038 0.754907 1.88946
1.42137 0.484036 0.327699
1.33619 0.603816 0.766765
1.62173 0.580793 3.32359
1.29512 0.412309 0.674107
1.05685 0.504103 3.897
2.02251 0.78744 2.18136
2.18199 0.466885 3.51777
1.62061 0.580341 3.07497
1.06735 0.44079 3.02306
1.81192 0.776157 1.97003
1.43697 0.471813 0.328335
1.32485 0.616076 0.784533
1.69166 0.650071 3.33023
1.29982 0.412693 0.620812
1.00873 0.494983 3.95151
2.0726 0.840931 2.17424
2.13826 0.476487 3.47505
1.74404 0.634093 2.93729
1.07127 0.435937 3.07387
1.68788 0.794489 2.15294
1.67349 0.631318 0.258753
2.31096 0.674797 0.77208
3.48025 0.75034 3.54284
3.04647 0.516279 0.698686
2.05253 0.43357 3.7133
1.57907 0.691854 3.11818
2.54108 0.386225 4.24225
1.96365 0.488236 2.59423
2.14525 0.67601 2.83709
2.71136 0.877515 1.4913
1.68128 0.638496 0.268298
2.37619 0.677683 0.77055
3.47889 0.734988 3.51007
3.05719 0.505372 0.707469
2.04634 0.42959 3.79286
1.57639 0.689827 3.15746
2.58179 0.392024 4.25729
1.95245 0.480713 2.53862
2.1232 0.578002 2.87346
2.73228 0.879863 1.52669
3.57079 0.836494 0.273864
1.33095 0.636764 0.602343
3.39057 0.746145 3.53215
1.02055 0.567126 0.486663
3.62891 0.628012 3.29181
3.6666 0.548108 3.72237
2.60661 0.554254 4.40631
4.10395 0.489804 2.13534
3.23127 0.745738 3.01081
4.07761 0.860417 1.94049
3.53334 0.860839 0.246394
1.40124 0.636589 0.594204
3.38953 0.738679 3.50214
1.06961 0.566371 0.536802
3.63878 0.626823 3.3048
3.63273 0.520457 3.75626
2.61204 0.546115 4.39362
4.11006 0.484893 2.1747
3.37724 0.747582 3.01258
4.08079 0.881018 1.91565
POINT_DATA 400
SCALARS particleColor float 3
LOOKUP_TABLE default
0 0.390182 1
0 0.760796 1
0 0.97051 1
0 0.559659 1
0 0.61245 1
0 0.334698 1
0 0.552181 1
0 0.584065 1
0 0.827749 1
0.0136783 1 0.986322
0 0.407161 1
0 0.687321 1
0.00458071 1 0.995419
0 0.505955 1
0 0.618086 1
0 0.248025 1
0 0.382649 1
0 0.485518 1
0 0.807653 1
0.248072 1 0.751928
0.229869 1 0.770131
0 0.890761 1
0.012418 1 0.987582
0.0187255 1 0.981274
0 0.739313 1
0 0.21697 1
0.114932 1 0.885068
0 0.640291 1
0 0.766216 1
0 0.644909 1
0.21002 1 0.78998
0 0.857995 1
0.154282 1 0.845718
0.106017 1 0.893983
0 0.748727 1
0 0.238223 1
0 0.964112 1
0 0.665499 1
0 0.683923 1
0 0.656132 1
0 0.600766 1
0 0.41673 1
0.00145363 1 0.998546
0 0.665812 1
0 0.37347 1
0 0.364063 1
0 0.531824 1
0 0.644828 1
0 0.41586 1
0 0.36441 1
0 0.612866 1
0 0.325958 1
0.104359 1 0.895641
0 0.671408 1
0 0.337048 1
0 0.305282 1
0 0.680815 1
0 0.70266 1
0 0.471817 1
0 0.445267 1
0 0.689113 1
0 0.125467 1
0 0.831287 1
0.108632 1 0.891368
0 0.822993 1
0 0.795939 1
0 0.864228 1
0 0.619322 1
0 0.700985 1
0 0.190563 1
0 0.66094 1
0 0.261228 1
0 0.596311 1
0.0268583 1 0.973142
0 0.982816 1
0 0.751675 1
0 0.818908 1
0 0.545695 1
0 0.546388 1
0 0.142699 1
0 0.549286 1
0 0.811293 1
0 0.670515 1
0 0.897229 1
0 0.746952 1
0 0.518937 1
0 0.402703 1
0 0.620307 1
0 0.692215 1
0 0.722501 1
0 0.537169 1
0 0.671258 1
0 0.820804 1
0 0.951477 1
0 0.773129 1
0 0.632156 1
0 0.447663 1
0 0.657751 1
0 0.622388 1
0 0.609067 1
0.0156618 1 0.984338
0 0.47796 1
0 0.745713 1
0 0.553482 1
0 0.298062 1
0 0.540712 1
0 0.603941 1
0 0.302856 1
0 0.171549 1
0 0.491361 1
0 0.989981 1
0 0.455512 1
0 0.741513 1
0 0.760749 1
0 0.301359 1
0 0.593884 1
0 0.590903 1
0 0.246186 1
0 0.229089 1
0 0.682539 1
0.0544587 1 0.945541
0 0.519642 1
0 0.622806 1
0 0.539362 1
0 0.402895 1
0 0.463047 1
0 0.513505 1
0 0.595105 1
0 0.402333 1
0 0.404271 1
0 0.952946 1
0 0.630021 1
0 0.384437 1
0 0.594634 1
0 0.535171 1
0 0.363017 1
0 0.841582 1
0 0.83229 1
0 0.458388 1
0 0.335178 1
0 0.379883 1
0 0.838588 1
0 0.697292 1
0 0.928048 1
0 0.889637 1
0 0.516472 1
0 0.685059 1
0 0.808035 1
0 0.574892 1
0 0.265248 1
0 0.384334 1
0 0.7504 1
0 0.825003 1
0 0.854837 1
0 0.85636 1
0 0.649845 1
0 0.576205 1
0 0.71732 1
0 0.572124 1
0 0.294294 1
0 0.966856 1
0 0.455272 1
0 0.630182 1
0.169219 1 0.830781
0 0.991652 1
0 0.998611 1
0 0.429594 1
0.226771 1 0.773229
0.222995 1 0.777005
0 0.673153 1
0 0.875038 1
0 0.493525 1
0 0.521463 1
0.273885 1 0.726115
0.115242 1 0.884758
0 0.904382 1
0 0.374118 1
0.237752 1 0.762248
0.332017 1 0.667983
0 0.75622 1
0 0.771684 1
0 0.998659 1
0 0.772643 1
0.313601 1 0.686399
0 0.608544 1
0.0580631 1 0.941937
0 0.948649 1
0 0.668031 1
0 0.743273 1
0 0.611569 1
0 0.744997 1
0.0811356 1 0.918864
0 0.623516 1
0.362191 1 0.637809
0 0.655813 1
0 0.987435 1
0.109113 1 0.890887
0 0.675502 1
0 0.647991 1
0 0.550212 1
0 0.378869 1
0 0.521468 1
0 0.739516 1
0 0.356054 1
0 0.67722 1
0 0.88009 1
0 0.932329 1
0 0.849128 1
0 0.669314 1
0.0523379 1 0.947662
0 0.424482 1
0 0.331759 1
0 0.776067 1
0 0.425058 1
0 0.627546 1
0 0.816609 1
0 0.903719 1
0 0.967948 1
0 0.723939 1
0.202896 1 0.797104
0 0.899951 1
0.0817576 1 0.918242
0 0.856927 1
0 0.612528 1
0 0.645297 1
0 0.682861 1
0.0259232 1 0.974077
0 0.897523 1
0 0.833108 1
0 0.482359 1
0 0.940691 1
0.0301359 1 0.969864
0 0.951391 1
0 0.582934 1
0 0.5631 1
0 0.625208 1
0 0.931109 1
0 0.828461 1
0 0.739476 1
0 0.409576 1
0 0.275129 1
0 0.698418 1
0.262975 1 0.737025
0 0.616431 1
0 0.706769 1
0 0.687425 1
0 0.732224 1
0.212526 1 0.787475
0 0.690398 1
0 0.400438 1
0 0.315463 1
0 0.739047 1
0.287405 1 0.712595
0 0.464709 1
0 0.552221 1
0 0.652385 1
0 0.626197 1
0.170334 1 0.829666
0 0.752314 1
0 0.355596 1
0 0.957301 1
0 0.34486 1
0 0.574136 1
0 0.758388 1
0 0.74031 1
0.157331 1 0.842669
0.160554 1 0.839446
0.0206572 1 0.979343
0 0.664386 1
0 0.586712 1
0 0.958777 1
0 0.663833 1
0 0.562092 1
0 0.623256 1
0 0.892669 1
0.0818773 1 0.918123
0.135748 1 0.864252
0 0.636719 1
0 0.586581 1
0 0.60251 1
0 0.863298 1
0 0.903027 1
0 0.897867 1
0.057191 1 0.942809
0 0.930012 1
0 0.867783 1
0 0.724737 1
0 0.876548 1
0 0.893567 1
0 0.909583 1
0 0.857681 1
0 0.847253 1
0 0.885007 1
0.0490226 1 0.950977
0 0.580161 1
0 0.941166 1
0 0.643013 1
0 0.883015 1
0 0.713898 1
0 0.965969 1
0.165735 1 0.834265
0 0.942836 1
0.0321876 1 0.967812
0 0.849341 1
0 0.672003 1
0.0191124 1 0.980888
0 0.718424 1
0 0.795663 1
0 0.395237 1
0 0.767675 1
0.244253 1 0.755747
0 0.935124 1
0 0.993613 1
0 0.876906 1
0 0.575086 1
0.0660345 1 0.933966
0 0.660245 1
0 0.448096 1
0 0.432431 1
0 0.861076 1
0 0.457888 1
0 0.868733 1
0.0396374 1 0.960363
0.298252 1 0.701748
0 0.746451 1
0.0619481 1 0.938052
0.539577 1 0.460423
0 0.658781 1
0 0.830443 1
0 0.845883 1
0 0.498443 1
0 0.702711 1
0 0.981418 1
0.196051 1 0.803949
0 0.769349 1
0.378269 1 0.621731
0.455709 1 0.544291
0 0.690854 1
0 0.586839 1
0 0.968018 1
0 0.918647 1
0 0.563042 1
0 0.962165 1
0 0.98875 1
0 0.696718 1
0 0.871835 1
0 0.753467 1
0 0.740862 1
0 0.536307 1
0 0.793361 1
0 0.909303 1
0 0.666654 1
0.149962 1 0.850038
0 0.966907 1
0 0.72195 1
0 0.858043 1
0 0.70739 1
0 0.725664 1
0 0.616438 1
0 0.67271 1
0.0771746 1 0.922825
0.008127 1 0.991873
0 0.412257 1
0 0.665871 1
0 0.935314 1
0.310187 1 0.689813
0 0.651508 1
0.101352 1 0.898648
0 0.88086 1
0 0.937043 1
0.0561467 1 0.943853
0.0101595 1 0.989841
0 0.344125 1
0 0.715631 1
0.0451231 1 0.954877
0.323556 1 0.676444
0 0.608462 1
0.122772 1 0.877228
0 0.901755 1
0 0.856358 1
0 0.265483 1
0 0.784181 1
0 0.276069 1
0.0254847 1 0.974515
0.000215209 1 0.999785
0 0.908216 1
0.0284663 1 0.971534
0 0.69146 1
0 0.414932 1
0 0.337017 1
0 0.304018 1
0 0.823528 1
0 0.326309 1
0 0.925284 1
0.0694017 1 0.930598
0 0.971419 1
0 0.980109 1
0 0.562284 1
0 0.396212 1
0 0.412224 1
