# vtk DataFile Version 3.0
Particle simulation
ASCII
DATASET POLYDATA
POINTS 400 float
1.47346 0.00238127 1.10244
1.86752 0.782842 1.07111
2.58912 0.315796 2.63071
1.71501 0.268206 1.75187
7.79665 0.837415 4.66723
8.04025 1.20606 4.67175
8.70893 2.83628 0.997927
2.37397 4.08618 3.44663
6.07407 0.209668 0.528604
7.92083 0.576191 1.97469
1.88002 0.0441884 1.84735
0.786755 0.59014 0.49681
1.87368 0.256584 2.56724
1.76592 0.256871 1.73987
7.72046 0.861826 4.81622
3.74202 5.12395 6.93272
5.12052 0.303953 1.98622
2.23818 0.12498 2.50819
9.56383 0 0.479151
7.91882 0.596177 1.96188
2.28398 0.635813 1.57052
5.66224 0.200787 3.96337
1.61605 2.23181 5.9006
8.10538 0.787497 2.1623
3.88839 1.06156 5.22795
2.30136 0.268858 1.47937
5.87599 0.892498 7.18029
2.3804 0.504622 2.25586
5.06421 0.899542 3.26573
1.47875 0.0438592 1.39768
6.79448 0.530041 1.07891
8.01447 0.725048 1.07308
1.75598 9.15221 7.83062
8.14883 0.743789 2.18469
0.729616 1.07928 2.30949
2.34714 0.353814 1.45704
6.01494 0.937779 7.50226
2.26255 0.477594 3.05157
4.57715 0.349185 1.83534
1.11594 0.800749 0.693824
0.954264 0.749171 0.797477
4.30176 0.620777 0.575849
3.42364 0.882595 3.54914
8.21922 0.324066 2.01084
4.72586 0.600006 6.33308
4.32152 0.458922 1.5646
2.70068 1.21661 0.773016
1.80093 0.814804 3.27068
4.392 0.527799 2.02144
6.41885 0.712021 5.24697
1.03043 0.683485 0.766124
4.29923 0.687387 0.552211
3.17158 0.848134 2.77644
8.2207 0.351977 1.98928
4.64005 0.59419 6.35584
4.35108 0.440914 1.53871
3.83109 0.0171323 6.37457
1.97736 0.5872 3.17702
4.36756 0.513699 1.99313
5.4322 1.04212 7.29576
4.87423 1.09328 2.81386
1.60848 0.83935 3.15149
5.40796 0.54011 7.59072
8.09533 0.759128 1.1189
5.71767 0.22022 7.9426
4.70419 0.412345 7.21647
3.42832 0.733608 2.31467
1.3005 0.690064 0.685008
4.27953 0.57181 1.98453
3.08124 0.674472 6.35852
4.86674 0.911246 2.6954
2.80068 0.292474 1.11615
4.8645 0.752089 6.68687
8.08224 0.714347 1.1167
5.54843 0.419995 8.00372
4.86162 0.78456 6.02882
3.40169 0.736954 2.36222
3.45717 0.437506 5.76207
4.25059 0.579986 2.01031
3.01368 0.726012 6.30668
1.46887 0 1.55275
2.35227 0.727467 1.22499
1.28722 0.0581594 0.781437
2.8363 0.672637 1.9041
4.90082 0.535434 6.22718
2.92748 0.399635 5.80884
5.53851 0.503856 6.12423
2.27166 0.867885 2.4324
0.639499 0.832499 8.41582
6.39076 0.438186 1.097
1.49395 0.331796 1.31151
2.57064 0.289819 2.05885
4.45807 0.153195 0.35057
2.84171 0.63911 1.89118
4.88666 0.516894 6.23123
2.9407 0.423094 5.84254
3.45789 0.322923 5.97823
2.08256 1.12696 3.28003
1.6323 0.426728 6.14768
6.39297 0.413109 1.11629
2.46093 0.80832 1.90717
7.90104 1.00483 0.723784
1.88532 0.350079 1.98835
7.50179 0.0725465 0.95659
7.6826 0.982486 0.188531
1.8367 0.240241 3.27828
2.78913 0 6.21377
5.00177 0.197045 1.6834
4.41306 0.533354 1.89397
6.72183 0.407596 0.958703
0.727057 0.579659 1.13993
8.03955 0.909658 1.1666
1.53525 0.19304 1.25359
6.46549 0.429073 1.05702
1.74681 0.530533 2.51436
1.92826 0.237095 3.3471
3.05199 0.0699984 6.25662
4.7046 0.407354 1.91588
4.37693 0.51076 1.91385
1.75729 0.0301083 1.82857
2.63244 0.475453 2.07091
4.44366 0.336763 1.29867
5.03037 0.589463 6.54167
4.93778 0.402071 3.54931
4.0676 0.25033 6.62028
1.64275 0.246077 1.38724
1.92742 1.17817 3.25617
8.45166 0.563782 2.18516
5.13247 0.181738 6.83906
2.83185 0.10031 2.20115
2.63387 0.48146 2.08134
4.61155 0.428285 1.84255
4.89667 0.623605 6.62569
5.06034 0.409007 3.48147
3.47144 0.21684 6.11135
2.2523 0.792864 0.797229
3.50072 0.443474 7.27242
8.43214 0.515385 2.17507
3.23462 0.690072 6.26743
3.54074 0.376439 2.5114
1.53236 0.0907066 1.56619
3.6292 0.833469 2.39034
1.79868 0.311078 1.1095
0.955647 0.230865 0.672894
1.35223 0.0468859 1.51649
1.84705 0.753708 2.17822
5.03062 0.576703 7.96419
2.2366 0.380837 2.70892
2.37202 0.516693 2.95818
1.5649 0.151088 1.06911
1.53833 0.0833208 1.56841
3.48844 0.786555 2.3721
1.18156 0.299045 0.819403
3.45821 0.42952 2.80949
2.01511 0.708814 1.0917
1.99906 0.41285 2.43683
4.99158 0.615019 7.90755
2.01039 0.681996 1.1693
3.57866 0.816535 3.17293
2.06343 0.246651 2.63378
1.75655 0.0342258 2.22454
2.40057 0.467324 1.611
4.68329 0.193197 6.3755
2.95626 0.28997 1.51413
1.2213 0.634457 0.850435
3.14869 0.401494 3.02555
3.04798 0.187298 6.1681
2.92707 0.329475 6.02273
4.4256 0.244507 6.49239
4.1586 0.232689 2.52616
1.74301 0.0155561 2.36969
1.63773 0.661558 1.04539
4.70781 0.252315 6.30894
1.47408 0.91147 0.785992
1.15797 0.468343 1.14318
2.58266 0.0790401 2.53639
2.9602 0.350336 6.17505
3.24775 0.0810052 6.18503
3.53643 0.130779 6.29487
4.15815 0.219786 2.51219
1.49876 0.873771 1.05381
1.33599 0.637236 0.890455
5.87868 0.854281 7.17096
0.863923 1.11992 2.0339
2.70654 0.588653 6.2709
2.0004 0.246192 2.64967
2.51068 0.453543 2.88266
5.30559 1.06326 2.80875
1.67763 0.302261 2.1178
1.45049 0.833614 1.04148
1.52865 0.866622 1.04406
1.77137 0.464963 1.54912
4.78248 0.386208 6.44587
1.23894 1.23074 2.1053
2.72074 0.189268 6.20458
2.1724 0.801474 2.56175
2.513 0.489394 2.88503
7.59867 1.13528 1.33896
1.75538 0.293284 2.17731
1.53497 0.701449 1.17019
1.36185 0.301571 1.29424
4.7931 0.334057 1.44369
2.25058 0.647113 6.24079
3.00476 0.466043 2.56319
6.12969 0.952777 6.88034
3.16298 0.142782 6.26542
2.01721 0.541225 3.09143
2.41053 0.92213 2.64963
3.24348 0.595846 2.72658
6.44582 0.25832 0.815996
1.43134 0.0262214 1.23787
4.62961 0.478664 1.80674
5.55782 0.437045 6.0856
3.33685 0.660217 2.53137
6.13268 0.937373 6.92906
3.18314 0.157353 6.29082
2.04154 0.538596 3.0738
1.65495 1.10515 2.1293
1.51914 0.0096417 2.22142
6.37695 0.434242 0.719882
8.21778 0.189978 2.34583
1.63442 0.308517 6.56766
5.05224 0.601664 6.50053
1.37688 0.388449 1.25154
5.09554 0.463717 6.97688
0.833423 1.35507 2.1599
4.84459 0.806376 7.19689
1.32642 0.219496 0.86399
1.78975 0.329972 2.19795
2.26129 0.431069 1.94131
8.23752 0.202135 2.3175
2.69385 0.494182 6.22581
5.64901 0.0239509 7.83229
1.33666 0.436782 1.2274
4.99497 0.576567 6.61908
0.682853 1.24592 2.12099
5.64382 0.738447 7.48701
1.32132 1.07605 2.37093
2.0053 0.492215 1.43022
2.07052 0.233001 1.4359
1.82522 0.0969274 1.87509
1.94338 0.680377 1.13722
1.95341 0.150347 2.83905
2.28107 0.47135 1.61884
3.83781 0 6.20297
1.29697 0.296574 2.36441
1.74055 0.574348 3.12775
3.371 0.358595 6.45533
4.42489 0.351805 2.02173
3.26353 0.147083 5.89317
1.88194 0.159335 2.06013
3.76943 0.942312 1.92241
3.7957 0.511962 6.30769
2.22358 0.491648 1.55684
4.14277 0.158723 6.23412
0.722382 0.360152 2.57657
6.27923 0.611994 0.934143
5.22323 0.475952 6.81653
4.43215 0.3196 2.00638
3.22332 0.161958 5.94686
1.03922 0.138174 2.64371
2.46245 0.0894677 3.66096
2.3412 0.37792 1.79692
7.94538 0.509507 2.09188
6.17193 0.861514 7.09817
1.57045 0.564243 1.00123
6.18155 0.134629 1.12638
3.19817 0.128104 5.75056
5.58925 0.581317 7.5858
0.64288 0.172773 2.28861
1.16375 0.199892 2.58307
2.55284 0.211177 3.41091
0.661326 1.30043 2.40632
8.13496 0.852665 2.38236
3.86092 0.130139 6.32275
2.50456 0.377677 6.40119
8.00613 0.688333 1.51584
2.54105 0.0905314 5.88935
5.64403 0.56215 7.61233
0.882726 0.0916579 2.47151
6.93738 0.549677 0.900055
4.82873 0.635451 1.68981
5.12576 0.161917 2.02711
7.88058 0.446258 1.99711
6.03255 0.991301 7.43858
5.82653 0.733194 7.34256
2.678 0.589529 2.44861
1.69645 0.768187 3.45039
3.34206 0.853359 2.79536
1.25884 0.208819 6.76932
6.93711 0.498791 0.957329
4.88437 0.682911 1.70025
1.95834 0.78893 1.96083
7.89297 0.465998 2.03026
3.09177 0.605754 5.74712
3.00656 0.678774 5.84003
2.20374 0.697841 2.26649
0.847701 1.00837 2.14641
2.89079 0.740459 1.97718
2.53415 0.0245098 1.88676
6.0996 0.399373 1.17019
3.90212 0.671903 2.87913
2.59584 0.691569 1.63965
4.39459 0.282659 2.71828
1.2922 0.172255 0.663274
4.50897 0.413616 0.652541
2.21279 0.388672 3.17671
2.04644 0.0369815 2.01193
1.39957 0.105375 2.03515
1.71862 0 1.97143
7.39165 0.961013 1.73404
3.7894 0.675887 2.83988
4.61921 0.749327 6.29116
2.38511 0.25588 1.12814
1.26936 0.230628 0.681265
7.43453 0.300183 1.00251
2.01426 0.453564 3.09701
3.20692 0.452711 3.20528
4.98461 0.453541 1.62649
1.80014 0.091074 2.10803
3.1449 0.327292 2.75631
0.953693 1.14662 2.41127
3.46564 0.0497843 5.86112
1.62511 0.7031 0.837769
6.33485 0.192954 0.81062
6.51288 0.385349 0.381136
2.07595 0 3.04999
4.60958 0.404892 1.62818
6.59069 0.705897 1.36295
2.67283 0.503423 1.90903
3.13891 0.144844 2.708
1.77278 0.21186 1.54197
3.5681 0.109207 5.9129
1.56667 0.750371 0.791251
6.45224 0.242731 0.909715
2.98388 0.69529 2.97381
1.98313 0 2.98349
2.18496 0.0651297 1.84094
6.76186 0.503901 1.12723
2.59704 0.894459 2.07189
3.70157 0.822103 3.07638
1.48261 0.345162 1.20531
4.56276 0.65828 6.29516
3.08 0.615902 2.79857
1.86857 0.321949 2.27402
2.03733 0.636567 2.38724
4.73183 0.26669 1.61374
1.61219 0.38687 3.30883
2.18219 0.780686 2.43888
2.38807 0.780889 2.6394
1.70747 0.453107 1.10118
1.49696 0.131408 1.16969
4.80863 0.453694 6.45666
3.08225 0.61492 2.78423
1.78939 0.250743 2.1696
2.18595 0.719155 3.00184
4.58662 0.281296 1.49994
3.33614 0.336117 5.33864
2.13971 0.784908 2.40331
1.99374 0.780222 3.49678
4.63282 0.458839 1.15025
3.66415 0.747918 3.09339
4.81211 0.918372 6.50188
1.95465 0.193739 2.8797
2.63266 0.284666 2.57966
4.70214 0.634836 6.25518
3.65483 0.108946 6.24677
3.13274 0.138397 6.43937
3.23234 0.723166 6.34761
0.929433 0.287132 2.77251
4.61998 0.468382 1.15777
3.67568 0.76863 3.1541
4.65383 0.845775 6.71411
2.02083 0.366727 2.9572
0.66209 1.5382 1.86255
4.56837 0.3918 6.31334
3.64727 0.0857191 6.22591
2.90412 0.41549 6.38618
3.50332 0.195803 6.21623
1.41185 0 2.1679
1.67856 0.170255 2.02893
1.30825 0.245571 1.34391
3.27208 0.163625 6.00452
1.70009 0.70228 1.18375
7.84258 0.756545 1.80606
4.67235 1.10718 6.64914
2.71627 0.478992 2.64302
2.3095 0.393544 1.52833
8.34323 0.726919 2.41124
4.35972 0.549671 2.24174
1.73166 0.190955 2.065
1.31884 0.310693 1.39755
3.28939 0.16645 5.99156
1.69931 0.31035 1.6394
7.83387 0.726894 1.80707
4.66507 0.754775 6.77097
2.77634 0.483083 2.67471
2.25241 0.424353 1.45577
6.91022 0.537031 0.872311
4.3556 0.582246 2.23838
POINT_DATA 400
SCALARS particleColor float 3
LOOKUP_TABLE default
0 0.284926 1
0 0.679626 1
0 0.838064 1
0 0.19117 1
0 0.893649 1
1 5.96046e-08 0
0 0.52019 1
0 0.258188 1
0 0.184105 1
0 0.472487 1
0 0.453888 1
0 0.593649 1
0 0.721352 1
0 0.16572 1
0 0.476935 1
0 0.556936 1
0 0.649445 1
0 0.0521376 1
0.161735 1 0.838265
0 0.657856 1
0 0.714344 1
0 0.942752 1
0 0.370618 1
0 0.295095 1
0 0.699299 1
0 0.869082 1
0 0.390431 1
0 0.586418 1
0 0.84461 1
0 0.73793 1
0 0.461174 1
0.144044 1 0.855956
1 5.96046e-08 0
0 0.377804 1
0 0.708612 1
0 0.99403 1
0 0.680676 1
0 0.220966 1
0 0.518362 1
0 0.84908 1
0 0.195008 1
0 0.584268 1
0 0.951051 1
0.276866 1 0.723134
0 0.952523 1
0 0.377893 1
0.145242 1 0.854758
0 0.541397 1
0 0.373084 1
0 0.619624 1
0 0.32391 1
0 0.33132 1
0 0.624991 1
0.236396 1 0.763604
0 0.959855 1
0 0.259066 1
0 0.708426 1
0 0.509692 1
0 0.404623 1
0 0.834371 1
0 0.148515 1
0 0.900772 1
0.00554522 1 0.994455
0 0.663408 1
0 0.456876 1
0 0.46377 1
0 0.587845 1
0 0.706127 1
0 0.381342 1
0 0.922749 1
0 0.781034 1
0 0.754204 1
0 0.907242 1
0 0.529 1
0 0.553178 1
0 0.734793 1
0 0.640524 1
0 0.667193 1
0 0.555898 1
0 0.793562 1
0 0.356534 1
0 0.756411 1
0 0.867044 1
0 0.65707 1
0 0.539443 1
0 0.405609 1
0 0.956863 1
0 0.470027 1
1 0.474976 0
0 0.653794 1
0 0.248166 1
0 0.542511 1
0 0.789566 1
0 0.656709 1
0 0.601655 1
0 0.301198 1
0 0.677099 1
0 0.598911 1
0 0.814607 1
0 0.499569 1
0 0.493917 1
0 0.696737 1
0 0.678099 1
0 0.681789 1
0.53893 1 0.46107
0 0.368387 1
0 0.347711 1
0 0.881323 1
0 0.342407 1
0 0.390277 1
0 0.518851 1
0 0.666084 1
0 0.779465 1
0 0.509279 1
0 0.272595 1
0 0.583649 1
0 0.207093 1
0 0.85107 1
0 0.320074 1
0 0.894367 1
0 0.604478 1
0 0.59524 1
0.0598 1 0.9402
0 0.382544 1
0 0.345885 1
0 0.856565 1
0 0.403995 1
0 0.962903 1
0 0.730524 1
0 0.874566 1
0 0.672599 1
0 0.679408 1
0 0.703934 1
0 0.470193 1
0 0.831016 1
0 0.458711 1
0.664148 1 0.335852
0.0306668 1 0.969333
0 0.363101 1
0 0.96528 1
0 0.239546 1
0 0.539851 1
0 0.846177 1
0 0.513699 1
0 0.973914 1
0 0.545875 1
0 0.485995 1
0 0.408685 1
0 0.485764 1
0.11956 1 0.88044
0 0.232643 1
0 0.631918 1
0 0.889351 1
0 0.893853 1
0 0.774452 1
0 0.420175 1
0 0.3646 1
0 0.437432 1
0 0.633548 1
0 0.224317 1
0 0.848049 1
0.249758 1 0.750242
0 0.635652 1
0 0.273309 1
0 0.66327 1
0 0.277594 1
0 0.656644 1
0 0.645609 1
0.01644 1 0.98356
0 0.484357 1
0 0.811804 1
0 0.656426 1
0 0.446585 1
0 0.566588 1
0 0.399755 1
0.0206807 1 0.979319
0 0.300596 1
0 0.181083 1
0 0.465183 1
0 0.44095 1
0 0.587823 1
0.0910678 1 0.908932
0 0.855848 1
0 0.592364 1
0 0.580547 1
0 0.955259 1
0 0.331149 1
0.0195446 1 0.980455
0 0.672272 1
0 0.0954376 1
0 0.563918 1
0 0.0631866 1
0 0.517809 1
0 0.633497 1
0 0.401474 1
0 0.652491 1
0 0.422207 1
0.131543 1 0.868457
0 0.848059 1
0 0.451732 1
0 0.808334 1
0 0.331507 1
0 0.466072 1
0 0.16925 1
0 0.28063 1
0 0.522622 1
0 0.423162 1
0 0.667324 1
0 0.779579 1
0.0607533 1 0.939247
0 0.380028 1
0.413549 1 0.586451
0 0.507698 1
0 0.31287 1
0 0.779353 1
0 0.373089 1
0 0.502597 1
0 0.37055 1
0 0.359811 1
0 0.634197 1
0 0.393501 1
0 0.568418 1
0 0.503553 1
0 0.367609 1
0 0.197601 1
0 0.366533 1
0.203684 1 0.796316
0 0.617724 1
0 0.832236 1
0.0255994 1 0.974401
0 0.0877006 1
0 0.975224 1
0 0.423456 1
0 0.290108 1
0 0.22584 1
0 0.477856 1
0 0.725314 1
0 0.556743 1
0.167772 1 0.832228
0 0.833222 1
0 0.350897 1
0 0.620355 1
0 0.514731 1
0 0.460606 1
0 0.451728 1
0 0.340908 1
0 0.507619 1
0 0.872595 1
0 0.482039 1
0 0.740779 1
0 0.326256 1
0.315922 1 0.684078
0.0160472 1 0.983953
0 0.557224 1
0 0.697576 1
0.063263 1 0.936737
0 0.828392 1
0 0.856005 1
0 0.521611 1
0 0.687113 1
0 0.551066 1
0 0.941523 1
0.549722 1 0.450278
0 0.915531 1
0 0.418136 1
0.583171 1 0.416829
0 0.93889 1
0 0.602886 1
0.0797525 1 0.920247
0 0.662862 1
0 0.523202 1
0 0.782035 1
0 0.602829 1
0 0.628131 1
0.0792637 1 0.920736
0 0.999676 1
0 0.600406 1
1 0.301162 0
0 0.802251 1
0 0.521236 1
0.0735607 1 0.926439
0 0.533436 1
0 0.243767 1
0 0.485693 1
0.402211 1 0.597789
0 0.95913 1
0 0.523251 1
0 0.973015 1
0 0.627712 1
0.128713 1 0.871287
0.474183 1 0.525817
0 0.528051 1
0 0.691822 1
0 0.357872 1
0 0.519909 1
0.318225 1 0.681775
0 0.126839 1
0 0.856226 1
0 0.290794 1
0 0.23697 1
0 0.467999 1
0 0.521165 1
0 0.839552 1
0 0.720359 1
0.0154867 1 0.984513
0 0.962718 1
0 0.617076 1
0.071732 1 0.928268
0 0.869345 1
0 0.73182 1
0 0.424665 1
0 0.455578 1
0 0.684385 1
0 0.691398 1
0 0.943831 1
0 0.102646 1
0 0.713344 1
0.11942 1 0.88058
0 0.407069 1
0 0.679132 1
0 0.927974 1
0.660096 1 0.339904
0 0.928042 1
0.0444402 1 0.95556
0 0.232888 1
0 0.79273 1
0 0.389207 1
0 0.651596 1
0 0.342056 1
0.162604 1 0.837396
0 0.90884 1
0 0.35139 1
0 0.972695 1
0 0.94049 1
0 0.334687 1
0 0.885674 1
0 0.399908 1
0 0.889903 1
0 0.297426 1
0 0.620039 1
0 0.797962 1
0 0.624351 1
0 0.861639 1
0 0.297564 1
0 0.886233 1
0 0.836601 1
0 0.527413 1
0 0.24021 1
0 0.491002 1
0.0931447 1 0.906855
0 0.743895 1
0 0.363136 1
0 0.371257 1
0 0.228131 1
0 0.728992 1
0 0.847197 1
0 0.363521 1
0 0.795139 1
0 0.630208 1
0 0.736811 1
0 0.538236 1
0 0.68375 1
0 0.799507 1
0 0.597301 1
0 0.770586 1
0.219965 1 0.780035
0 0.376631 1
0 0.476472 1
0 0.264628 1
0 0.729503 1
0 0.566834 1
0 0.640673 1
0 0.937751 1
0 0.711063 1
0 0.620576 1
0 0.991661 1
0 0.345055 1
0 0.681233 1
0.00251161 1 0.997488
0 0.919484 1
0 0.363766 1
0 0.630757 1
0 0.585633 1
0 0.615516 1
0 0.449485 1
0 0.481986 1
0 0.804908 1
0 0.758949 1
0.418939 1 0.581061
0 0.47047 1
0 0.522569 1
0 0.659103 1
0 0.732395 1
0 0.594221 1
0 0.406613 1
0 0.635477 1
0 0.766209 1
0 0.616463 1
0 0.684063 1
0 0.45811 1
