# vtk DataFile Version 3.0
Particle simulation
ASCII
DATASET POLYDATA
POINTS 400 float
6.51781 0 8.92465
0.254389 4.33922 8.33102
8.13767 0 9.38642
9.30743 2.06516 4.85672
4.54212 1.78628 7.91803
4.75091 4.90036 9.62454
4.56457 9.75031 8.75207
2.56307 9.54942 8.09668
5.85721 3.07343 0.0429292
1.16727 1.10628 1.48258
9.39819 1.8207 6.83788
1.07573 3.65767 4.60101
9.72203 9.77009 1.32205
2.24487 3.05242 9.45191
3.45996 0.882099 6.06854
0.480988 0.793223 5.53839
3.70614 2.97771 9.30592
3.97963 10 3.49054
0.810365 9.25764 8.94992
10 5.4867 0.370296
7.78528 3.07689 9.62221
3.5853 3.74682 5.84299
8.94741 6.40589 4.31265
4.38928 0.106645 1.6092
4.68032 9.43121 7.67856
0.980852 3.80555 1.64663
6.23289 1.22762 9.21913
6.90378 1.58656 7.39771
6.83037 3.31122 1.80039
3.39843 4.24136 7.01704
6.46903 0.941782 6.01471
2.98293 6.94013 5.14931
7.33302 5.63229 1.01775
4.80793 3.79334 0.600838
5.68806 7.57715 4.51537
0.645219 1.7686 9.44059
4.10628 9.11635 8.39627
0.327506 6.53436 1.00084
2.24898 1.02467 5.02987
9.35838 9.48231 8.34404
8.28793 5.75266 3.69266
3.05097 6.28632 6.25163
6.22412 1.96028 0.957561
8.3199 6.62926 3.53592
8.5223 6.51781 5.50318
5.26126 5.81241 1.15151
10 8.61485 9.11222
5.20049 2.68822 1.4998
2.76874 0.257702 3.26995
0.0707987 1.81659 3.84706
5.84248 6.43188 4.36949
7.43556 5.4968 8.47277
6.78351 6.02123 3.13307
0 5.547 9.54805
9.87104 5.32031 6.77394
7.13282 6.11457 10
7.15313 5.20802 7.17972
5.65978 1.71546 5.58592
2.91644 5.0958 6.50031
6.36661 7.84016 5.29554
7.89181 5.20315 5.64381
6.21714 9.0516 0
9.28654 2.40211 7.20425
8.49768 0.383464 0.253447
2.53445 10 3.93711
6.36215 9.06316 0.128568
9.4799 3.74293 8.22721
5.05023 7.66447 4.65865
2.45537 9.72762 7.55531
1.62638 1.29551 9.3073
7.96367 7.44787 5.79874
8.92583 1.83222 6.43985
0.368212 5.96952 5.41923
4.07602 7.38842 4.29083
6.10598 0.526838 9.33035
0.895235 1.92907 6.697
6.95388 9.07405 8.85229
6.08347 0.240291 8.94943
7.66805 2.39585 9.27462
9.59924 4.02931 2.67035
7.54103 7.40682 1.55524
7.49257 2.39519 2.22967
7.59332 7.24397 5.31544
9.73343 8.70669 9.7901
1.95995 0.373437 9.50772
9.3168 1.08591 8.67283
2.12425 9.0748 9.86063
9.29127 0.874445 3.47388
4.43492 2.30815 8.32946
0.272238 6.02397 6.01639
4.12059 7.15338 5.75735
7.97867 7.30943 9.94444
0.165785 3.61458 7.16787
9.52821 8.02984 8.40769
5.62162 0 9.71303
1.15581 7.59775 7.77919
9.09524 5.62546 5.83956
3.19199 3.63973 2.36019
3.49578 7.40064 1.36994
3.02116 9.78082 9.7679
3.49764 3.73348 3.37805
4.21392 9.64738 8.84427
0.182983 4.8037 0.183119
4.74701 1.44982 1.11242
5.13513 5.90328 1.3056
3.98805 9.27954 7.03939
6.13795 0.259732 0.274373
9.4715 1.15504 6.21907
7.22857 1.19641 0.392007
1.33009 3.79908 4.37007
3.31294 0.224466 9.01895
6.21964 1.24039 7.56863
0 4.54551 9.66872
6.82973 3.88697 5.46434
9.779 0.179923 9.87181
9.49534 8.04216 0.226643
6.91622 2.3715 2.26381
3.8694 8.03899 7.73917
6.7288 9.83074 6.91722
5.70961 0 1.96449
1.82782 0.524062 9.49
1.30687 5.21453 5.38559
6.36819 9.93533 8.78086
4.60703 9.66293 9.0224
3.11115 7.53757 5.4338
9.67193 0 3.06469
5.26031 8.95646 2.344
9.3217 4.50223 6.06715
5.4343 2.02618 3.88115
4.22168 8.42722 4.98726
4.8782 7.61969 0.466465
4.08072 9.29038 9.38627
3.26759 1.88728 3.72031
7.57437 5.71181 10
3.11674 5.92657 5.78834
6.02558 2.50825 9.0204
1.16217 1.82887 0
2.37429 0.742991 3.52328
3.46764 0.457855 3.97614
6.7957 0.174017 8.56358
6.61141 0.219984 5.88616
5.87557 0.431084 6.19895
9.70218 6.25581 4.41971
5.569 0.812157 8.38475
1.22995 7.51807 9.8761
3.97651 1.69963 7.94574
1.11695 4.55803 4.5698
4.06926 0.944755 0.771505
9.92853 2.6192 7.47029
3.04068 8.56828 7.09785
6.93854 0.224211 6.1042
1.95621 3.56934 8.69698
0.731737 9.67019 6.75915
4.9444 7.63904 7.63853
5.21306 2.59354 0.935825
2.53251 6.30258 3.99211
0 7.92558 1.70408
0.51089 4.36394 7.8456
4.03076 3.30915 3.27608
5.05382 5.07658 5.28946
9.2883 1.46091 0.351748
5.45526 4.45629 9.00069
2.99103 0.411197 3.50024
5.96159 0.835935 5.4276
6.14205 4.12856 7.16738
3.65669 1.55171 3.0653
1.90862 3.14271 7.01169
10 6.28682 0.578619
7.1791 7.31047 8.95952
8.86439 2.19011 0.419847
0.599101 8.88299 9.35918
3.56055 6.56398 8.91563
1.98274 5.81404 9.12289
4.75659 9.77135 7.23124
7.68768 8.93228 2.75743
6.8251 4.15937 1.17722
4.91618 1.30574 9.01912
6.9758 6.0831 8.49873
9.11036 0.92635 0.982207
7.94832 3.56489 8.16237
6.62824 3.79827 2.08239
6.10305 8.54746 1.23403
2.05285 6.41009 8.83715
3.96084 0.878734 2.23975
9.82139 3.47372 8.92328
5.84069 2.36816 1.29784
6.65569 0.0756038 6.27943
4.73398 2.15267 5.027
5.15733 4.29702 5.27292
4.82706 6.11759 2.56031
9.35123 9.01977 0.894803
4.83394 6.95622 0.831235
5.03496 4.814 0.140415
8.62752 1.91045 0.770098
1.55897 5.99299 7.48038
4.5786 0.888376 2.68333
0.743072 8.96816 5.09911
5.73125 8.76728 5.16664
6.27214 3.36489 1.63852
9.71358 9.2547 9.66124
6.45275 0.0921681 6.21084
1.10917 1.97836 7.63453
8.79073 7.26529 5.83121
8.97654 5.89921 8.03978
1.53276 9.12545 3.46669
1.3696 9.01731 7.59979
9.55541 8.80934 0.381551
9.52308 7.13485 8.95975
6.92418 3.17592 0.166298
6.63897 8.33112 3.85185
6.54765 0.453974 6.09908
4.53944 7.60567 8.69121
2.86273 8.88239 0.931719
0.98877 8.86976 5.2345
0.673174 2.80015 0.25623
3.43916 9.5089 8.57076
9.53679 0.85642 5.06839
0.978628 2.01139 4.37088
6.36418 3.84086 9.76217
2.83118 7.49617 2.45438
1.78234 1.04113 6.18188
5.85611 0 7.43384
3.45966 8.71644 3.20816
9.62338 0.752849 5.14894
3.46541 3.65279 9.24592
6.00061 7.59652 5.75195
4.94865 1.8553 1.32843
3.43496 5.78137 8.81048
6.67056 0.457046 5.98322
4.98573 1.03319 4.83229
0.137722 3.922 0.110957
5.02456 7.41114 1.57791
6.63405 5.85372 3.94946
5.28575 9.79791 5.68805
5.39754 2.75705 3.38224
8.61998 0.671591 2.53541
8.17933 2.40942 2.59069
0.515084 1.34169 6.48266
6.58454 0.217579 6.11852
10 6.64814 6.89745
9.52172 0.726842 4.82906
6.70209 9.17417 9.08164
0.896163 9.01193 5.25279
8.36165 3.54648 5.84485
6.42295 4.14449 2.76946
6.61658 4.69573 3.12886
9.61721 9.93874 8.58169
4.1277 0.111563 2.85972
1.20479 8.19661 5.73868
6.72305 0.585867 7.84376
9.31251 0.917706 5.03989
3.44699 3.72498 7.17977
0.183161 0 10
0.487454 4.5373 7.11075
6.14376 5.77375 3.89666
7.95889 0.859964 1.14534
1.70945 6.67865 8.11039
4.0833 1.72788 9.43177
1.86052 4.92133 5.69155
5.71965 3.49081 1.50928
5.9992 7.3477 6.71049
6.05489 0.687665 9.55824
6.0266 9.86301 2.93827
9.15983 9.57017 1.7644
7.66669 6.1599 3.07945
9.36663 0.858009 6.25552
1.89812 4.72278 0.258877
7.26825 7.84872 5.304
4.9631 3.68251 6.57195
8.13423 7.79925 5.45445
5.23454 1.54507 5.13605
5.95834 3.33432 6.81551
8.91038 0.141219 2.96713
6.06285 7.7605 2.60186
10 1.65529 2.86765
2.87258 3.04063 9.25117
8.82121 1.60671 0.545934
2.56022 3.28393 8.7518
9.9357 2.38207 2.61486
6.30445 0.0547036 6.19228
0.800362 3.44299 2.48885
9.24605 5.72589 4.46041
1.1211 6.75876 3.39489
9.47303 3.94856 3.47997
9.1992 4.08162 0.53822
5.71588 3.43969 1.04789
2.60978 5.94317 5.21681
1.95329 10 4.41658
3.43363 3.85789 2.0807
7.82532 1.74741 0.364726
4.40189 9.3421 7.58971
7.84083 7.31907 1.03564
9.44095 0.3301 8.7116
5.89004 4.66623 5.29012
2.78784 2.10648 2.57324
0.314896 0.458052 8.81188
6.66668 0.133937 6.00299
6.25592 0.117512 5.9678
6.95443 0.073146 5.63178
6.86184 0.376792 5.78237
0.725333 0.953587 3.0141
8.48253 6.41675 1.47369
6.51484 0.244871 6.17501
3.94139 8.15961 1.0616
7.00221 0.814459 6.33442
4.02196 0.210199 1.97248
6.69403 0.204481 6.15517
6.5322 0.0846062 6.19426
1.50168 3.47245 7.31997
9.24187 0.946808 2.6032
7.43454 5.54765 9.13392
1.95271 3.59849 4.22727
4.43445 0.456355 4.67034
6.41032 0.808437 6.35257
4.60899 3.22307 1.92247
8.26414 5.12637 1.46832
4.1317 0.998785 6.34593
2.64842 2.40963 3.61601
3.4644 6.05553 5.18866
6.91196 10 3.22713
0.669055 6.79612 9.15702
4.20456 6.78302 5.8436
0.259351 0.669164 8.94785
6.74196 0.144101 6.13565
6.77122 0.442553 6.19322
6.41011 9.9473 7.41353
6.67034 0.519879 6.4347
6.86116 2.97593 0.130957
3.3378 2.09965 8.81378
6.61305 0.345461 6.04415
6.01378 0.180813 6.39413
8.50751 1.44709 0.540517
6.72752 4.213 1.1516
6.64629 10 8.37158
4.93174 4.52889 9.53967
0.302114 6.86686 1.66182
5.90525 8.60519 1.34818
6.75622 0.230849 5.99206
5.55008 1.97991 7.41941
3.2733 9.49207 8.99407
8.23946 0 6.78049
2.52185 3.88743 2.73243
6.09811 2.42314 6.43328
0.393283 0.680431 8.99884
6.20752 0.321815 5.8299
5.7552 0.415096 4.42009
9.07984 1.60643 8.85221
6.93385 0.272417 6.41151
6.75302 0.424783 6.14497
3.25025 1.30843 3.12876
6.03276 0.0654204 6.06403
7.338 0.424599 5.94476
0.449372 0.151945 5.50457
6.42952 5.80476 4.35929
3.82812 3.94815 0
6.59292 0.0898424 6.00504
3.57468 7.64796 9.53934
0.703924 4.0131 7.25657
6.84201 0.200989 5.70613
6.74639 0.335094 6.11894
1.85477 3.91494 1.21482
0.300104 0.621633 8.85271
0.325423 0.505714 8.77629
7.0111 0.287201 5.95381
6.31098 0.0614826 5.83568
0 9.43436 6.60645
0.278853 0.465034 8.84445
0.249868 0.644765 1.93004
0.613933 1.11596 7.56915
8.87837 1.62815 0
8.90606 1.62468 9.08189
7.10648 8.96376 9.16537
4.77895 0.0196579 4.83257
6.51558 0.218261 5.48346
6.47642 0.284551 6.65103
9.21989 1.35275 9.26013
0.413651 0.549428 9.01175
0.139081 2.5715 8.41329
6.70326 1.00671 10
9.42229 0.852002 4.90481
6.68775 0.500029 6.42733
6.58424 0.397447 6.27461
8.22127 5.40985 3.95565
7.00155 0.39339 5.82697
5.26794 3.3916 3.63895
0.348374 0.44559 8.84376
6.37149 0.304757 6.05425
6.14304 0.0747007 6.18419
8.83698 4.20781 1.66343
1.01615 6.73469 6.79114
6.58414 0.0934195 6.05784
6.73711 0.6381 5.90235
1.19363 1.75237 8.35268
6.76666 0.275133 5.69833
0.93186 1.26346 0.858335
4.17361 1.68287 9.86611
6.51554 0.230628 6.51583
1.67682 5.77637 5.50653
4.93397 8.68234 6.01317
2.81356 8.18065 7.16736
POINT_DATA 400
SCALARS particleColor float 3
LOOKUP_TABLE default
1 5.96046e-08 0
1 0.576915 0
0.884249 1 0.115751
1 5.96046e-08 0
1 5.96046e-08 0
1 5.96046e-08 0
1 5.96046e-08 0
0.180436 1 0.819564
1 5.96046e-08 0
0 0.793657 1
1 0.85362 0
1 0.0480407 0
0 0.642033 1
1 0.739394 0
0.66914 1 0.33086
1 0.971256 0
1 0.848668 0
1 5.96046e-08 0
0.391936 1 0.608064
1 5.96046e-08 0
1 5.96046e-08 0
1 5.96046e-08 0
1 5.96046e-08 0
1 0.999926 0
0.247484 1 0.752516
1 0.477252 0
1 5.96046e-08 0
1 5.96046e-08 0
0.463333 1 0.536667
0 0.382084 1
1 0.363274 0
1 5.96046e-08 0
1 0.669068 0
1 5.96046e-08 0
1 0.491989 0
1 5.96046e-08 0
0.780982 1 0.219018
0.134751 1 0.865249
0.543672 1 0.456328
0.282755 1 0.717245
1 5.96046e-08 0
1 5.96046e-08 0
1 0.0362436 0
1 0.465351 0
0.165971 1 0.834029
0.530309 1 0.469691
0.645182 1 0.354818
1 5.96046e-08 0
0.930254 1 0.0697464
1 5.96046e-08 0
1 0.903162 0
1 5.96046e-08 0
1 0.324966 0
0.462434 1 0.537566
1 0.376122 0
1 0.795433 0
1 5.96046e-08 0
0 0.835891 1
0 0.853887 1
1 0.804244 0
1 5.96046e-08 0
1 5.96046e-08 0
1 5.96046e-08 0
1 0.43527 0
1 5.96046e-08 0
1 5.96046e-08 0
1 0.502849 0
1 0.811107 0
1 5.96046e-08 0
0.694431 1 0.305569
1 5.96046e-08 0
1 5.96046e-08 0
1 0.960917 0
1 0.959783 0
0 0.398454 1
1 0.881284 0
1 0.269343 0
0.559985 1 0.440015
0.0230245 1 0.976976
0.339235 1 0.660765
0.855762 1 0.144238
1 0.105857 0
0.772271 1 0.227729
0.964738 1 0.0352623
1 5.96046e-08 0
1 0.0685475 0
0.353585 1 0.646415
1 0.367167 0
1 5.96046e-08 0
0 0.751019 1
0.17279 1 0.82721
1 0.226859 0
0.841679 1 0.158321
1 0.22127 0
1 5.96046e-08 0
1 5.96046e-08 0
0.267145 1 0.732854
1 0.580459 0
1 5.96046e-08 0
1 5.96046e-08 0
0.34799 1 0.65201
1 0.646109 0
1 5.96046e-08 0
1 5.96046e-08 0
0 0.494139 1
0.168477 1 0.831523
0.594011 1 0.405989
1 0.988856 0
1 0.437618 0
0.16209 1 0.83791
0.910845 1 0.0891548
0.360857 1 0.639143
1 0.104844 0
0.0993684 1 0.900632
1 0.742762 0
1 0.160032 0
1 0.0374346 0
1 5.96046e-08 0
1 5.96046e-08 0
1 5.96046e-08 0
1 5.96046e-08 0
1 5.96046e-08 0
1 0.881569 0
1 5.96046e-08 0
1 0.453156 0
1 0.107957 0
1 0.166489 0
1 5.96046e-08 0
0.531107 1 0.468893
1 5.96046e-08 0
1 5.96046e-08 0
1 5.96046e-08 0
0.274372 1 0.725628
1 5.96046e-08 0
0.58065 1 0.41935
1 0.77908 0
1 0.856203 0
1 5.96046e-08 0
1 5.96046e-08 0
1 5.96046e-08 0
0 0.374969 1
1 5.96046e-08 0
0 0.714973 1
1 0.180519 0
1 0.256239 0
0 0.673405 1
1 5.96046e-08 0
1 5.96046e-08 0
1 0.77063 0
1 5.96046e-08 0
0 0.876504 1
1 0.402295 0
0.353563 1 0.646437
1 0.441607 0
0.716984 1 0.283016
0.173195 1 0.826805
0.400482 1 0.599518
1 0.08874 0
0 0.659841 1
1 5.96046e-08 0
1 5.96046e-08 0
1 5.96046e-08 0
0.633181 1 0.366819
0.817339 1 0.182661
1 5.96046e-08 0
0 0.770139 1
1 0.580441 0
0.779985 1 0.220015
0 0.831556 1
0.0744061 1 0.925594
1 5.96046e-08 0
1 0.846175 0
1 5.96046e-08 0
1 5.96046e-08 0
1 5.96046e-08 0
1 5.96046e-08 0
0.0175477 1 0.982452
1 5.96046e-08 0
1 5.96046e-08 0
0 0.935482 1
1 0.503174 0
1 0.74939 0
0.980845 1 0.019155
1 0.402827 0
1 5.96046e-08 0
1 5.96046e-08 0
0 0.399775 1
0.226781 1 0.773219
1 5.96046e-08 0
1 0.589631 0
1 5.96046e-08 0
1 0.408561 0
1 5.96046e-08 0
0.335561 1 0.664439
1 5.96046e-08 0
1 0.177598 0
0.36509 1 0.63491
0.272371 1 0.727629
1 5.96046e-08 0
1 0.910091 0
0 0.46526 1
0.966759 1 0.0332412
1 0.890401 0
1 5.96046e-08 0
1 5.96046e-08 0
1 0.679894 0
1 5.96046e-08 0
0.804244 1 0.195756
0.90766 1 0.0923399
1 0.643813 0
0 0.728327 1
1 0.00649697 0
1 5.96046e-08 0
1 0.723346 0
1 5.96046e-08 0
0 0.852199 1
0 0.479121 1
1 0.179849 0
1 5.96046e-08 0
1 5.96046e-08 0
1 5.96046e-08 0
1 0.245437 0
1 0.795842 0
0 0.529645 1
1 5.96046e-08 0
1 5.96046e-08 0
1 0.622023 0
1 0.971331 0
0 0.199101 1
1 0.688374 0
1 0.132044 0
1 5.96046e-08 0
0.90891 1 0.0910896
1 0.947742 0
1 5.96046e-08 0
1 5.96046e-08 0
1 0.736442 0
0.125357 1 0.874643
0 0.410031 1
1 0.853948 0
0 0.713517 1
1 0.603562 0
1 5.96046e-08 0
1 5.96046e-08 0
1 0.107934 0
0 0.583066 1
0.0876237 1 0.912376
1 0.992097 0
1 0.843789 0
1 0.597653 0
0 0.874143 1
1 5.96046e-08 0
1 5.96046e-08 0
1 5.96046e-08 0
1 5.96046e-08 0
1 0.743968 0
0.703081 1 0.296919
0.172363 1 0.827637
1 0.187537 0
1 0.541472 0
0 0.914419 1
1 5.96046e-08 0
1 0.086434 0
1 5.96046e-08 0
0.546307 1 0.453693
0.753663 1 0.246337
0 0.534308 1
1 0.0498578 0
1 5.96046e-08 0
1 0.392325 0
0 0.503198 1
0.815533 1 0.184467
1 0.899103 0
1 0.534562 0
1 0.576713 0
1 0.561012 0
1 5.96046e-08 0
1 5.96046e-08 0
0.171947 1 0.828053
0 0.245684 1
1 5.96046e-08 0
1 0.156185 0
1 5.96046e-08 0
0.61406 1 0.38594
1 5.96046e-08 0
1 0.848868 0
1 0.133855 0
1 5.96046e-08 0
1 0.442731 0
1 5.96046e-08 0
1 0.884247 0
1 5.96046e-08 0
0 0.91486 1
0.646195 1 0.353805
1 5.96046e-08 0
0 0.439605 1
0 0.746943 1
0 0.239123 1
0 0.696979 1
0 0.661852 1
0 0.921512 1
1 0.434867 0
0 0.611239 1
1 0.739775 0
0 0.490649 1
1 0.22898 0
0 0.537951 1
0 0.515618 1
1 5.96046e-08 0
0.626465 1 0.373535
1 0.11101 0
1 0.814519 0
1 0.624313 0
0.115374 1 0.884626
1 5.96046e-08 0
1 5.96046e-08 0
1 0.748991 0
0.195713 1 0.804287
0 0.729739 1
1 5.96046e-08 0
0.893901 1 0.106099
1 0.47444 0
0 0.472276 1
0 0.581277 1
0.2594 1 0.7406
1 0.437153 0
0 0.462182 1
1 0.445064 0
0 0.775259 1
0 0.72322 1
0.6773 1 0.3227
1 0.123507 0
0.846862 1 0.153138
0.433141 1 0.566859
1 5.96046e-08 0
1 5.96046e-08 0
1 0.716287 0
0 0.386398 1
1 5.96046e-08 0
1 5.96046e-08 0
1 5.96046e-08 0
0.794058 1 0.205942
1 5.96046e-08 0
0 0.455955 1
0 0.805779 1
0 0.556822 1
0 0.468711 1
0 0.291493 1
0 0.984097 1
1 5.96046e-08 0
0 0.671943 1
0 0.621032 1
1 5.96046e-08 0
0.950815 1 0.0491845
0.464245 1 0.535755
0 0.947645 1
0 0.637259 1
0.830657 1 0.169343
0 0.496707 1
0 0.9509 1
0.679092 1 0.320908
0 0.467053 1
0 0.722784 1
0 0.550161 1
0 0.376713 1
1 5.96046e-08 0
0 0.475529 1
0.794142 1 0.205858
0 0.464945 1
1 5.96046e-08 0
0 0.879355 1
0.83168 1 0.16832
1 0.302049 0
0 0.599349 1
0 0.53701 1
0 0.338356 1
0 0.732554 1
0.181059 1 0.818941
1 0.21681 0
0 0.606389 1
0 0.60146 1
0 0.392124 1
1 0.168676 0
0 0.487954 1
1 5.96046e-08 0
0 0.492233 1
0 0.787121 1
0 0.422619 1
1 5.96046e-08 0
0.558529 1 0.441471
0 0.614393 1
0 0.439865 1
0 0.937844 1
0 0.568122 1
1 0.366444 0
0 0.871124 1
0 0.765273 1
0.975244 1 0.0247563
1 0.95358 0
0.574667 1 0.425333
