# vtk DataFile Version 3.0
Particle simulation
ASCII
DATASET POLYDATA
POINTS 400 float
1.24424 1.0156 2.18763
1.48692 2.06636 2.68002
0.20204 1.6486 1.16236
2.05804 0.771874 0.93224
9.50589 0.110156 3.5224
2.66449 9.12104 4.69475
9.5073 3.84203 0.103558
2.01938 4.79237 2.89126
6.45889 1.70753 2.64814
9.61864 0.618343 2.63969
1.95203 0.564363 0.941668
2.23333 0.605236 3.27207
1.26214 0.65671 1.51805
2.16889 0.874653 0.975158
9.18553 0.476257 3.55111
5.90373 5.58965 8.92966
4.68819 2.73062 1.01031
1.943 0.599051 1.73428
6.03024 1.88677 3.05207
9.63396 0.534433 2.6163
1.12608 0.645205 2.16038
8.82093 1.52906 7.77623
2.39485 2.36246 7.69117
9.82504 0.864453 2.94382
4.81692 3.21745 7.767
1.2048 0.879235 1.2902
8.86508 0.588038 6.89818
0.925105 1.52058 2.98163
4.06669 0.515297 4.01428
3.03871 0.505373 1.83616
7.21305 0.880967 1.90145
9.08253 0.833792 1.34488
6.03495 0.793174 9.54154
9.79742 0.930958 2.98438
1.73171 2.22859 1.97894
1.30339 0.861543 1.43033
5.97565 0.674351 8.15349
1.96575 0.573522 2.07197
4.74384 0.476962 1.7126
2.1438 1.44173 3.20859
0.7909 1.00494 1.25408
6.50586 2.74964 2.67213
5.2673 2.4064 3.64299
9.48044 0.346622 2.77524
7.54373 0.463993 8.73277
4.73575 0.377848 2.02381
6.57078 0.0637201 3.51589
2.1374 1.20659 0.623639
4.93373 0.498655 1.8195
7.68371 0 0.382776
0.535393 1.33352 0.874923
6.56834 2.75049 2.72956
4.27024 0.324436 4.57089
9.6973 0.529576 2.92265
7.50282 0.528821 8.70009
4.76199 0.359953 2.00504
3.87139 0.784627 7.50074
1.74329 0.863824 1.22704
4.95235 0.494913 1.80337
4.54478 0.402319 9.34124
4.88668 0.366097 3.79653
5.12144 0.220026 3.92962
4.18391 0.270601 9.85212
9.8579 0.849963 2.7746
6.48329 0.651749 8.1016
6.65656 1.28077 9.6902
4.62101 0.170668 4.63426
0.499508 1.74842 1.00626
5.03473 0.365091 2.01861
3.6566 0.415704 7.45323
4.98995 0.816612 3.96174
1.01406 1.44447 3.3771
5.6248 0.910144 7.19858
9.87087 0.849563 2.78089
7.72908 0.785472 8.71624
3.9871 0.249881 9.59769
4.62034 0.259047 4.62247
4.07699 0.485506 7.38404
5.03503 0.391232 1.94601
3.54347 0.633394 7.5851
2.80524 0.289727 2.26952
1.2608 1.40728 2.78322
1.59854 0.410743 3.3322
1.70981 0.668105 2.68244
5.2298 0.669293 6.66471
3.65394 0.475006 7.01396
5.06466 1.18985 6.4477
1.29307 0.439162 2.67843
5.34989 1.3262 1.74415
8.52556 0.601178 1.139
2.60259 0.576974 2.12725
1.8159 1.09848 3.01864
3.83646 0.268678 4.83199
1.71409 0.646424 2.66965
5.30242 0.702373 6.67398
3.63873 0.554803 7.04378
4.07425 0.742985 7.52916
2.05283 1.15468 1.03183
3.11235 1.18679 9.28725
8.50702 0.622871 1.14301
1.68732 0.365053 2.87955
4.93913 0.65671 4.48545
2.51031 0.467334 1.73587
7.35251 0.972772 1.84954
9.31041 0.675771 0.485121
1.83468 0.908873 0.966738
3.32705 0.527228 7.69109
5.00974 0.278782 1.71969
4.94939 0.497722 1.83972
8.15568 0.528407 1.09766
0.545826 1.35908 1.18645
10 0.395433 3.00251
2.34905 0.247751 1.78467
8.38104 0.72329 1.19937
1.84886 0.552233 0.849095
2.06368 0.644553 1.22553
3.66672 0.544781 7.26605
5.11948 0.372136 2.45371
4.91025 0.473653 1.94284
1.1804 0.832997 1.80313
1.91905 0.680299 2.87524
5.38892 1.189 2.5483
3.83493 0.309739 9.59418
3.62064 0.718875 3.63952
0.798384 1.02985 9.41107
1.57353 1.31391 3.04007
2.00339 0.408523 0.651961
9.77343 0.804342 2.71493
3.88182 2.91932 7.92352
1.97673 0.738316 3.12566
1.94674 0.741124 2.87082
4.7963 0.352225 1.50823
4.77164 0.521681 6.63987
3.86179 0.497014 3.79138
4.07645 0.703782 7.19962
1.99895 1.3752 3.226
9.75182 0.717337 9.4192
9.81891 0.803443 2.71002
3.78379 0.505042 7.02107
4.60277 0.676237 4.04692
2.7302 0.471537 2.41152
4.10954 0.368445 4.2607
1.78007 0.768713 2.19401
1.91533 1.21417 3.25547
2.28319 0.275456 1.71599
2.08697 0.384047 0.774245
7.63303 0.606292 8.30549
2.17706 0.811037 1.96789
2.66865 0.486148 2.2491
3.43695 0.746781 1.59881
2.73517 0.46746 2.40597
4.19767 0.496947 4.1902
2.64221 0.181498 1.92418
4.84985 0.548867 3.96553
2.30214 0.352392 0.909858
2.09974 0.949182 1.35494
7.49956 0.341988 8.80037
2.89426 0.371045 2.34827
4.1721 0.41392 4.5864
1.88286 0.880232 0.763011
1.84783 0.575232 1.14394
0.462118 1.43209 0.806534
4.94309 1.0819 6.34776
1.92468 1.19351 2.2756
0.520896 1.37569 0.891094
4.27514 0.622343 4.03101
3.86559 0.505552 7.07517
3.5147 0.248582 6.63292
6.81264 0.20905 8.77567
6.36367 1.05141 0.72345
1.74913 0.52695 1.34774
2.59566 0.836657 2.69623
5.18792 0.777137 7.13171
2.23256 0.836351 3.21345
2.63234 0.515318 1.95403
2.39832 0.219748 0.597978
3.94796 0.621235 7.24708
3.79038 0.523487 7.19661
4.25117 0.889463 7.34167
5.14615 0.374239 1.98919
1.96768 0.732375 2.37441
1.53642 1.04004 3.08763
5.78098 0.845281 8.08768
1.81679 2.44301 2.34186
4.01874 0.452668 7.18867
2.93368 0.224111 2.39731
2.69903 0.115836 2.09064
3.82025 0.602096 4.75785
1.5934 0.643049 1.93905
2.80041 0.431218 1.90793
1.95771 0.756599 2.37145
2.75617 0.558564 2.13669
5.06327 0.76663 6.94178
2.11146 0.766168 1.5072
3.83835 0.356288 7.22871
1.85791 0.582511 1.61597
2.84777 0.0940979 1.85184
3.88962 3.39154 3.76734
1.51896 0.679026 2.82558
1.70147 0.675672 3.29453
3.3106 0.250612 2.41989
5.06784 0.348692 1.56995
5.60666 0.262888 8.01278
4.57584 0.295287 4.34065
3.73348 0.340417 9.972
3.78862 0.400188 7.35437
2.14619 0.91292 0.991021
1.95189 0.811674 3.10363
2.68053 0.809336 0.85788
8.43218 0.466193 1.22439
2.60918 0.235882 2.23198
5.24276 0.686526 2.23648
4.95867 0.868263 7.09276
4.05009 0.257073 4.24165
3.84084 0.234898 9.96142
3.79208 0.444022 7.3517
2.11971 0.936234 0.967859
1.06979 0.510662 1.93098
1.89161 0.510177 2.15463
8.64979 0.473216 1.08427
9.19697 1.63788 2.91919
0.914099 0.881806 8.97959
5.27274 0.830473 6.83805
2.63206 0.545928 1.8704
3.26795 0.673848 7.60586
1.65062 2.12151 2.2713
8.87862 1.92139 3.47634
2.39794 0.356537 1.69402
1.77425 0.399708 1.80978
4.29991 0.391848 3.94162
9.82613 0.176744 3.1861
3.52789 0 7.42261
7.7589 0.347868 8.97292
2.70369 0.523996 1.94255
5.12278 0.74776 6.92306
1.15915 2.13629 2.41496
6.75064 0.699399 9.28326
1.28656 2.33529 2.34249
3.01227 0.447796 1.16637
1.77552 0.42432 1.83564
2.0831 0.789567 1.64366
1.57636 0.436935 2.607
2.18924 1.17045 0.770266
2.68774 0.261018 2.5195
4.24016 0.847581 7.45557
2.83844 0.529678 1.72046
1.08452 0.708873 1.45226
3.39654 0.393889 6.77929
4.96229 0.613343 1.92787
3.72637 0.512885 7.5833
2.17543 0.904575 1.94418
5.95396 1.70929 2.38394
3.88543 0.591381 7.76165
3.25381 0.0493513 2.10827
7.15642 0.502843 8.73485
2.34966 0.378591 2.29703
8.63882 0.400097 1.07577
4.04168 0.681389 7.26094
4.95988 0.622452 1.93515
3.74259 0.541214 7.51291
2.35086 0.62569 2.21499
6.62352 2.09487 2.13296
4.95473 0.196937 3.92406
9.88486 0.344342 2.47197
3.64798 0.330784 9.93094
2.87018 0.671996 2.71977
9.79242 0.388672 0.591535
3.51782 0.118395 7.01215
7.58704 0.408687 9.21283
1.65434 0.507392 1.08868
2.35528 0.587936 2.28568
6.81678 2.12643 2.20286
1.71485 2.01408 2.58889
9.36831 0.0903827 2.76696
3.7359 0.633489 7.06952
5.70823 0.573338 7.02403
9.37602 0.222901 2.99794
9.82116 2.96119 9.2476
7.27428 0.352894 8.85265
2.13432 0.704878 2.36208
7.54199 0.50012 0.639519
4.97919 0.596353 1.83634
4.69961 0.210987 1.63612
9.97141 0.407096 2.58758
5.91498 0.323298 7.95498
6.58314 0.595824 7.75166
2.39068 0.842275 1.54487
2.22866 0.671811 1.36413
4.44155 0.570693 4.64343
6.33521 0.7709 8.32765
7.77831 0.482204 0.740317
4.94893 0.398805 1.92731
2.23346 0.351591 1.24312
9.97625 0.471947 2.55492
3.78941 0.299731 7.39793
4.05534 0.430467 7.21225
2.1463 0.453615 0.590837
1.67313 2.2791 2.07329
1.82345 0.536046 2.83631
1.92047 0.917526 1.40883
7.44508 0.186989 0.863871
4.11273 0.543966 4.69308
2.40682 0.829843 2.63726
5.04717 0.365907 2.30164
2.80165 0.81006 1.42262
5.59032 0.341848 1.61254
2.10219 0.874645 1.27253
2.64048 0.650815 0.992306
2.52463 0.174442 1.50885
1.18359 0.709911 1.92378
9.8918 0.0410647 3.19115
4.04812 0.424562 4.7381
7.56179 0.347981 8.41843
2.601 0.0530153 2.15453
2.80096 0.623495 1.35375
10 0.343583 0.928624
2.05316 0.652189 0.610505
4.27133 0 4.74603
5.15186 0.257215 2.21761
1.50844 0.583339 0.7238
4.14876 0.801856 4.74779
1.94207 1.02463 3.10527
3.84043 0.587788 7.6669
2.58901 0.06198 2.0742
8.71912 0.411104 1.25291
8.29217 0.107015 1.65419
1.65778 0.837721 1.10896
4.9755 0.738611 1.72142
8.43477 0.715019 1.35802
2.37522 0.52695 1.69224
4.07762 0.752751 4.62688
2.83498 0.619128 2.34087
3.97385 0.608084 7.70686
2.61205 0.0814196 1.96135
8.83486 0.360039 1.35868
4.37593 0.0740948 4.25188
1.73 0.54168 0.923164
1.98248 0.704974 2.168
8.65248 0.295586 1.42517
2.21448 0.30322 0.856341
4.18363 0.335603 4.01546
2.42872 0.271429 1.99402
5.42036 0.599603 7.06515
4.49575 0.344887 4.26644
2.29986 0.460943 2.1591
2.38469 0.552589 0.580966
5.09503 0.479162 1.80199
1.24909 0.575759 1.36691
2.30992 0.369284 0.586219
1.71402 0.487717 0.76156
2.5499 0.453565 2.1923
2.12041 0.420021 1.88135
5.02162 0.361541 6.70959
4.50801 0.346848 4.25381
2.20752 0.593122 1.87156
1.72203 0.984236 1.58047
4.89655 0.0969558 1.55976
3.76075 0.526397 7.88177
2.18825 0.485244 0.656379
1.98373 0.206318 1.76486
4.73591 0.38836 2.0395
4.30324 0.518248 3.97422
4.97227 0.56222 6.41793
1.7279 0.678545 0.973186
2.26722 0.915958 0.740258
7.64914 0.477989 8.61638
3.60351 0.699541 7.24692
3.85372 0.311343 7.11935
3.74774 0.795707 7.18009
2.45934 0.120139 1.05625
4.74468 0.386963 2.04932
4.24633 0.485192 4.01697
5.09098 0.483146 6.50621
1.84502 0.505599 1.0115
3.20585 0.413939 1.01914
7.57531 0.478668 8.75516
3.65009 0.666506 7.22816
3.8856 0.288543 7.02272
3.40392 0.738562 7.42656
1.4064 0.871482 1.37233
2.03787 0.632619 0.473266
2.76992 0.308401 2.04549
3.39299 0.512811 7.32999
2.52521 0.422528 1.99783
9.66509 0.446212 2.65848
4.85516 1.05119 6.52541
3.15975 0.194989 1.54203
2.67139 0.314367 2.3925
9.81351 0.780368 3.14607
5.39212 0.323502 1.36285
2.03503 0.5992 0.516397
2.75761 0.252626 2.16253
3.32294 0.590852 7.36422
2.64419 0.471826 2.28551
9.66681 0.495085 2.70583
4.76858 0.443936 6.59714
3.13429 0.187558 1.53048
2.39061 0.394475 1.67114
7.99249 0.48704 1.10829
5.38584 0.332258 1.38025
POINT_DATA 400
SCALARS particleColor float 3
LOOKUP_TABLE default
0 0.732391 1
0.073509 1 0.926491
0 0.912107 1
0 0.522001 1
0 0.608446 1
0.899568 1 0.100432
0 0.274056 1
0 0.120694 1
0 0.435828 1
0 0.623139 1
0 0.480037 1
0 0.681084 1
0 0.83929 1
0 0.752846 1
0 0.682955 1
0 0.5248 1
0 0.571895 1
0.030652 1 0.969348
1 0.830345 0
0 0.548003 1
0 0.338227 1
0.0678205 1 0.93218
0 0.356006 1
0 0.833221 1
0.113377 1 0.886623
0 0.362508 1
0 0.744051 1
0 0.851324 1
0 0.221724 1
0 0.242326 1
0 0.302154 1
0 0.471443 1
1 0.413719 0
0 0.907796 1
0 0.180071 1
0 0.497666 1
0 0.280896 1
0 0.343384 1
0 0.739297 1
0 0.763972 1
0 0.369963 1
0 0.79992 1
0 0.958722 1
0.123576 1 0.876424
0 0.575998 1
0 0.357621 1
0.0884852 1 0.911515
0 0.492699 1
0 0.410919 1
0.346414 1 0.653586
0 0.604674 1
0 0.796201 1
0 0.425977 1
0 0.670307 1
0 0.518602 1
0 0.277834 1
0 0.259646 1
0 0.210564 1
0 0.520144 1
0 0.336797 1
0 0.898288 1
0 0.268558 1
0.0591284 1 0.940872
0 0.401896 1
0 0.510081 1
0 0.703032 1
0 0.791707 1
0 0.46612 1
0 0.795406 1
0 0.538292 1
0 0.14231 1
0 0.270958 1
0 0.819927 1
0 0.336124 1
0.395411 1 0.604589
0 0.655316 1
0 0.743748 1
0.0647753 1 0.935225
0 0.507975 1
0 0.705726 1
0 0.208067 1
0 0.516737 1
0 0.54566 1
0 0.523276 1
0 0.36367 1
0 0.64284 1
0 0.475777 1
0 0.448276 1
1 0.973133 0
0 0.57369 1
0 0.334777 1
0.0650367 1 0.934963
0 0.746555 1
0 0.465341 1
0 0.412856 1
0 0.708028 1
0 0.760217 1
0 0.577917 1
0 0.743209 1
0 0.520884 1
0 0.421946 1
1 0.945902 0
0 0.645583 1
0.409852 1 0.590148
0 0.171125 1
0 0.549288 1
0 0.311381 1
0 0.752925 1
0 0.200883 1
0 0.714222 1
0 0.627246 1
0 0.554092 1
0 0.560222 1
0.0248134 1 0.975187
0 0.929766 1
0 0.422357 1
0 0.351461 1
0 0.926074 1
0 0.452657 1
0 0.603298 1
0 0.462323 1
0 0.828027 1
0 0.700793 1
0 0.498059 1
0.209065 1 0.790935
0 0.296087 1
0 0.500723 1
0 0.333242 1
0 0.757622 1
0.0760077 1 0.923992
0 0.599187 1
0 0.742135 1
0 0.406402 1
0 0.62663 1
0 0.692624 1
0 0.303225 1
0.147219 1 0.852781
0 0.457397 1
0 0.748728 1
0 0.815842 1
0 0.311045 1
0 0.823387 1
0.483064 1 0.516936
0 0.761014 1
0 0.624144 1
0 0.534718 1
0 0.938543 1
0 0.536555 1
0 0.684521 1
0 0.902083 1
0 0.314797 1
0.0211253 1 0.978875
0 0.847045 1
0 0.254206 1
0 0.806083 1
0 0.429 1
0.207544 1 0.792456
0 0.526866 1
0 0.608607 1
0 0.429998 1
0 0.665708 1
0 0.81291 1
0 0.801289 1
0 0.616082 1
0 0.909575 1
0.00389814 1 0.996102
0 0.246966 1
0 0.175715 1
0 0.710461 1
0 0.65226 1
0 0.903411 1
0 0.536156 1
0 0.371415 1
0 0.611759 1
0 0.787649 1
0.0415272 1 0.958473
0 0.481479 1
0 0.42734 1
0 0.344238 1
0.0396057 1 0.960394
0 0.397816 1
0 0.448829 1
0 0.770466 1
0 0.416565 1
0.223066 1 0.776934
0 0.812333 1
0 0.642094 1
0.358742 1 0.641258
0 0.280879 1
0 0.382358 1
0 0.371093 1
0 0.9918 1
0 0.313056 1
0.368388 1 0.631612
0 0.85903 1
0 0.387391 1
0 0.375399 1
0 0.846133 1
0 0.460815 1
0 0.185492 1
0 0.471665 1
0 0.410612 1
0 0.976549 1
0 0.822821 1
0 0.802761 1
0 0.860819 1
0 0.606645 1
0 0.686351 1
0 0.69925 1
0 0.0997524 1
0 0.648535 1
0 0.885904 1
0 0.619111 1
0 0.567901 1
0 0.947652 1
0 0.753643 1
0 0.622812 1
0 0.698832 1
0 0.898799 1
0 0.206551 1
0 0.581276 1
0 0.923634 1
0 0.285574 1
0 0.453756 1
0 0.791559 1
0 0.586033 1
0.0647605 1 0.935239
0 0.365811 1
0 0.588742 1
0 0.176548 1
0 0.745836 1
0 0.848028 1
0 0.912798 1
0 0.364287 1
0 0.773647 1
0 0.79795 1
0 0.722739 1
0 0.931942 1
0.174038 1 0.825962
0 0.800127 1
0 0.294445 1
0 0.288535 1
0 0.697948 1
0 0.748839 1
0 0.665289 1
0 0.981958 1
0 0.690943 1
0 0.966303 1
0 0.379075 1
0 0.758659 1
0 0.522457 1
0 0.589453 1
0 0.252125 1
0 0.429201 1
0 0.710791 1
0 0.634181 1
0 0.691675 1
0.317914 1 0.682086
0 0.48916 1
0 0.704894 1
0.0288753 1 0.971125
0 0.895086 1
0 0.980496 1
0 0.446205 1
0 0.548382 1
0 0.903635 1
0 0.540097 1
0 0.879445 1
0 0.52103 1
0.315011 1 0.684989
0 0.883253 1
0.346752 1 0.653248
0 0.447681 1
0 0.877052 1
0 0.8688 1
0 0.135586 1
0 0.234865 1
0.148952 1 0.851048
0 0.67298 1
0 0.523808 1
0 0.614293 1
0 0.806487 1
0 0.822198 1
0 0.785185 1
0 0.595223 1
0 0.363415 1
0 0.959504 1
0 0.905041 1
0 0.516203 1
0 0.938866 1
0 0.389004 1
0 0.730574 1
0 0.600225 1
0 0.740683 1
0.33979 1 0.66021
0.407348 1 0.592652
0 0.654504 1
0 0.462777 1
0 0.622894 1
0 0.727424 1
0 0.425767 1
0 0.845331 1
0 0.869024 1
0 0.788699 1
0 0.301733 1
0 0.439499 1
0 0.55246 1
0 0.728929 1
0 0.756459 1
0 0.72096 1
0 0.601972 1
0 0.262929 1
0 0.452816 1
0.0635706 1 0.936429
0 0.424966 1
0 0.982118 1
0 0.420614 1
0 0.784075 1
0 0.58211 1
0 0.61905 1
0 0.644858 1
0 0.922349 1
0 0.729945 1
0 0.762533 1
0 0.389187 1
0 0.480268 1
0 0.642215 1
0 0.669466 1
0 0.52618 1
0 0.666124 1
0 0.695958 1
0 0.565289 1
0 0.23249 1
0 0.658262 1
0 0.434153 1
0 0.421809 1
0 0.539464 1
0 0.809681 1
0 0.807457 1
0.111814 1 0.888186
0 0.88615 1
0 0.406547 1
0 0.441949 1
0 0.859454 1
0 0.565007 1
0 0.264858 1
0 0.549943 1
0 0.491209 1
0 0.332305 1
0 0.869245 1
0 0.867414 1
0 0.045015 1
0 0.63994 1
0 0.787069 1
0 0.449043 1
0 0.48939 1
0 0.161223 1
0.468893 1 0.531107
0 0.340272 1
0.259991 1 0.740009
0 0.90039 1
0.00786402 1 0.992136
0 0.943085 1
0 0.586532 1
0 0.989181 1
0 0.72621 1
0 0.594238 1
0 0.627463 1
0 0.803529 1
0 0.870992 1
0 0.826289 1
0 0.829064 1
0 0.458091 1
0 0.355953 1
0 0.907615 1
0.0198521 1 0.980148
0 0.509376 1
0 0.56627 1
0 0.640023 1
0.0295765 1 0.970423
0 0.238676 1
0 0.120431 1
0 0.677389 1
0 0.314526 1
0 0.756133 1
0 0.784787 1
0 0.235684 1
0 0.648171 1
0.0637944 1 0.936206
0 0.132964 1
0 0.177968 1
0 0.117968 1
0 0.517879 1
0 0.535654 1
0 0.7246 1
0 0.280621 1
0 0.32739 1
0 0.701617 1
0 0.569433 1
0 0.188808 1
