# vtk DataFile Version 3.0
Particle simulation
ASCII
DATASET POLYDATA
POINTS 400 float
3.35479 0.180082 7.73797
2.33842 4.36023 1.93528
0.289954 3.37528 2.05162
2.29908 0.638128 0.67586
9.11058 2.1787 4.05352
9.86678 0.760558 4.71957
8.59526 3.83771 1.82513
1.87277 4.66272 2.22176
6.26328 2.86624 1.3864
8.28465 0.313432 3.38732
2.10558 0.622412 0.852634
1.90056 1.99359 2.72398
3.60172 3.01833 3.99533
3.11448 0.507469 0.755219
8.83243 2.40094 3.87619
8.12901 4.8845 9.43616
3.58374 5.21461 0.754458
1.90232 0.748287 3.26418
2.91135 9.78693 7.98726
8.32899 0.389795 3.40795
3.51086 0.135794 3.19993
4.19481 2.74741 8.52259
0.695082 4.49189 7.21004
8.56023 0.514822 3.79368
9.2757 7.04734 9.06199
3.35407 0.256217 1.66021
0.464542 7.63038 7.44449
1.7035 0.157424 2.28605
5.17529 1.18438 5.30769
1.51167 0.968724 3.3327
8.6944 3.36566 2.56375
9.20879 0.285189 1.28099
2.78826 2.03969 7.41786
8.55804 0.564574 3.72644
2.26989 1.96526 2.46452
1.97211 0.749186 0.897254
7.61588 0.743275 8.92645
2.77992 0.281867 1.87325
5.75107 0.0512587 1.46394
1.97283 0.879292 0.496909
3.66134 0.203418 1.46329
7.69378 5.51907 3.86204
4.99183 5.13186 4.93695
9.7029 4.108 3.7172
9.85147 0.304322 9.12457
5.4757 0.193264 1.636
8.96138 1.70886 3.71522
2.32856 0.338663 0.365376
5.58933 0.553162 1.84289
6.93953 2.46349 2.3489
0.506549 2.77635 2.2425
7.68742 5.59222 3.86002
5.82592 1.15964 5.5277
8.59218 1.16382 3.64695
9.52055 0.257984 9.33694
5.54437 0.204454 1.67381
4.57619 0.286141 7.97683
2.13513 0.495742 0.779261
5.49322 0.522518 1.8045
0.408785 1.91088 8.55401
5.04727 0.535278 6.24398
4.84623 0.623154 5.63465
0.610127 0.600036 6.09525
8.24256 0.479274 3.42816
7.11597 0.853504 5.58818
9.25413 0.599039 6.4807
5.1189 1.16207 5.02147
0.438787 2.93448 2.02939
5.51615 0.642792 1.79527
4.28591 0.714304 8.43164
4.71998 0.10153 5.61327
2.4318 1.92666 2.77376
7.77859 0.567149 7.86918
8.20752 0.462869 3.41156
7.5038 0.450028 7.89687
5.23708 0.388321 8.04761
5.1187 1.18885 4.99756
4.27348 0.701418 8.14601
5.40399 0.787992 1.94852
5.86426 0.440256 8.36021
2.55336 0.405485 2.18505
1.87152 0.846148 2.86393
2.0463 2.07043 2.3453
2.76086 0.416091 2.18875
4.93273 0.60897 7.07962
5.18382 0.903995 8.38186
5.13378 0.399214 7.25834
5.34788 0.752656 1.83481
4.29417 1.96457 1.90031
9.4516 0.422472 1.29428
3.00169 0.456272 1.92557
2.53388 0.230164 1.20118
2.10382 2.82251 7.54194
2.74576 0.374661 2.21025
4.93119 0.584065 7.15585
5.18113 0.834169 8.41836
4.8462 0.651311 8.34694
2.30536 0.0273195 0.937693
5.50568 1.05795 7.75026
9.40981 0.437904 1.25273
2.96003 0.794313 2.31951
2.17371 0.530774 9.22689
1.85616 0.314296 1.62118
7.12369 0.910811 5.0433
9.5464 0.553798 0.304739
2.17479 0.584241 0.43081
4.92749 0.531801 6.78689
5.81423 0.579314 1.89822
5.58547 0.506679 1.81943
8.97432 0.142271 0.255048
0.58854 2.52203 2.51962
8.43261 1.05156 3.55559
2.29888 0.226383 1.31478
9.34523 0.292014 1.08612
2.11098 0.680387 0.615466
1.52115 0.206884 0.990242
4.13647 0.489506 8.44883
5.90601 0.532484 2.2558
5.57399 0.462881 1.72287
1.94612 1.23715 1.02912
2.87533 0.425133 1.96282
8.66261 3.41031 2.974
4.32371 0.0227929 8.14779
4.9112 1.13706 6.10923
2.02517 0.209997 9.66482
1.88399 1.12376 3.01701
2.72094 0.47734 0.454015
8.44567 0.659895 3.50507
1.9522 2.43298 8.92355
2.97973 0.57539 2.73256
2.79508 0.347543 1.97149
5.54423 0.877818 2.01275
5.18173 0.742577 6.94704
5.25016 0.771355 4.8458
5.09982 0.289406 7.79023
1.67407 0.245399 2.8134
6.4485 3.03951 2.39215
8.37736 0.664249 3.44604
4.60338 0.59735 8.82811
5.97787 0.713796 5.55921
2.39741 0.405812 1.51626
5.9431 0.399095 5.6832
1.64956 0.995069 4.24115
3.96531 0.27109 1.11521
2.96729 0.244977 1.99577
2.36923 0.443927 0.500672
9.35388 0.278566 9.34858
1.88404 0.283571 2.4061
2.15219 0.215658 0.570224
2.14549 0.48741 2.37788
2.40971 0.398194 1.51937
6.16174 0.73583 5.50318
2.25155 1.51633 2.63432
4.94926 0.847715 6.43897
2.05894 0.835541 0.510658
2.09757 0.313551 0.485861
9.78163 0.257843 9.1465
2.63612 0.48873 2.09534
6.05687 0.920265 5.50343
1.62965 0.159037 1.39552
2.06786 0.326504 1.60501
0.44034 2.81896 1.85474
5.40265 0.28403 7.17062
1.38684 0.84879 3.10763
0.506914 2.73823 2.23336
6.08526 0.8358 5.41296
3.90703 0.789845 8.43371
3.8857 0.233974 8.68345
6.51438 1.81795 8.56841
1.16578 8.85303 0.621037
1.64889 0.723341 1.06247
2.43159 0.647616 0.801237
4.94706 0.367784 7.6192
2.13255 2.0414 2.7613
1.82489 0.351587 2.70502
2.53109 0.419139 0.755564
4.44076 0.520158 8.54529
4.438 0.672968 8.72139
4.88788 0.688975 8.37968
2.68101 1.48457 0.743628
2.749 0.289486 2.27021
1.57323 0.87136 3.05814
6.18147 2.14868 8.63594
2.26122 1.85376 2.55461
5.59335 0.499674 7.53084
2.48972 0.206892 1.77654
2.06158 0.750359 1.32816
2.16242 2.57522 7.51022
3.25986 0.31773 1.68696
2.84799 0.157406 1.67064
2.7216 0.323743 2.26596
2.12119 0.123448 0.466659
5.07259 0.549077 7.30446
2.07511 2.87435 0.88629
4.15088 2.45217 8.45986
2.90576 0.443495 1.65351
2.86674 0.462619 1.53747
0.0790437 4.49906 6.29303
1.88142 0.827378 2.96372
1.58221 1.21231 2.82898
3.21751 0.20456 2.08886
5.57003 0.563595 1.69735
7.88449 0.847803 8.82566
4.59006 0.631317 6.01397
4.39817 0.505478 7.40002
3.95842 0.526002 8.37435
2.12619 0.00257616 1.74608
2.23501 0.306354 2.71243
2.7581 0.688457 1.09067
9.56425 0.379284 1.18953
2.54634 0.276205 1.5924
5.05468 0.394529 1.49936
5.75919 0.30589 8.18349
6.05825 0.643091 5.07618
4.52826 0.495762 7.23895
3.9502 0.535317 8.36625
2.13007 0.0164929 1.70459
1.64381 0.659043 1.31264
1.85054 0.693679 2.93891
9.49464 0.44469 1.14441
8.95491 4.80444 4.46531
0.262119 0.103533 7.57577
5.11726 0.670183 7.22401
2.8706 0.535864 2.39713
3.91059 0.668167 8.20097
1.7858 0.138993 2.68772
9.27236 1.72006 3.2455
2.64852 0.0762228 1.52689
2.21406 0.130758 1.91779
5.13382 0.838799 6.33338
8.55585 1.02691 3.52365
4.01545 0.648238 8.38755
9.78771 0.29475 9.24618
2.67857 0.369322 2.28858
5.08332 0.672228 7.3174
2.92044 0.217821 0.0460271
9.35847 0.423311 9.20526
3.15703 0.079932 2.28022
2.82615 0.728053 1.06643
1.78868 1.20199 2.83315
1.91459 0.463527 1.54266
2.3175 0.493799 2.72145
2.0274 0.0311619 1.53298
2.95036 0.361021 2.01997
4.34988 0.0643991 8.09436
1.2473 0.84161 2.6342
1.52527 0.146867 1.22186
4.37154 0.37858 8.36698
5.51813 0.384252 2.03298
4.28999 0.305377 8.3421
2.06239 0.300526 1.52609
5.94715 0.723094 2.16308
4.36307 0.157352 8.40964
3.09261 0.306606 2.60253
9.925 0.312179 9.31245
2.51499 0.346303 2.51173
9.58735 0.387257 1.50679
5.0797 0.700684 8.47451
5.53466 0.42841 2.04676
4.28336 0.344303 8.31567
2.27315 0.588995 2.3788
8.68438 4.73745 4.42641
4.55222 0.500636 6.14362
7.95237 0.633564 3.33381
4.63963 0.239721 8.47874
2.54684 0.0124657 1.2412
9.68523 0.359648 2.80756
4.63328 0.533293 8.09226
9.86691 0.160581 9.04661
1.96652 0.656427 1.02381
2.40621 0.517225 1.86486
9.01049 4.64222 4.53954
2.28115 0.769426 2.37803
7.86604 0.955863 3.52575
3.89847 0.662487 8.28878
5.16161 0.752329 6.49931
8.77791 0.68493 3.33239
6.69148 7.91074 9.38353
9.83439 0.46402 9.24005
2.91128 0.522765 2.29804
9.3528 0.597308 0.208503
5.6198 0.56709 1.82306
5.24552 0.256429 1.95704
8.37171 0.256507 3.37586
7.59564 0.629601 9.00032
7.11949 0.415823 8.41396
1.85455 1.01404 2.71159
1.90479 0.826598 0.502716
6.23316 0.534701 5.70909
7.59209 0.468109 8.10679
9.2779 0.53409 0.239307
5.48391 0.241305 1.72152
2.28706 0.741121 1.84238
8.34141 0.399569 3.57546
4.38734 0.477694 8.03387
4.30045 0.956024 8.39942
2.4452 0.647235 0.400299
2.31704 2.04362 2.2708
2.39278 0.400404 2.50011
1.74579 0.413338 2.92415
9.03548 0.23403 0.583641
6.16101 0.755212 5.53506
1.66124 0.0946501 0.892831
5.60969 0.018992 1.33165
1.6977 0.665712 2.88115
5.4996 0.343282 2.26719
3.26978 0.112832 2.45886
3.19224 0.160839 2.45845
1.51442 0.600552 3.12498
2.11138 0.431056 1.91271
7.83368 0.805903 3.56672
6.21607 0.735472 5.77614
9.77938 0.40666 9.2432
3.00274 0.396599 1.49261
1.57577 0.513215 2.9492
9.79981 0.24845 2.71291
2.78578 0.738136 0.818263
6.03474 0.783183 5.15178
5.75761 0.306086 1.79931
2.50353 0.555584 2.34754
4.63819 0.340549 6.50163
2.42864 0.566347 2.45246
4.2654 0.0750728 8.22043
2.5398 0.23952 1.87419
9.36999 0.580427 1.08867
9.39062 0 1.47579
3.01105 0.709703 2.0489
5.78508 0.759068 1.83035
9.09805 0.284364 1.18773
1.82208 0.236916 1.50345
4.59474 0.469349 6.56363
3.17627 0.519937 2.26292
4.13329 0.149742 8.44291
2.58175 0.178773 2.10432
9.64414 0.155658 1.50036
4.99356 0.24918 6.22249
2.43408 0.380227 1.77827
2.00205 0.918809 2.95235
9.37235 0.153392 1.42673
3.33279 0.459718 2.22841
5.23245 0.623965 6.68798
2.9147 0.190084 2.54085
5.22767 0.789337 7.33372
4.72752 0.528782 6.02718
2.79217 0.364323 1.86441
2.36056 0.606053 0.675619
5.51231 0.615214 1.69121
2.81964 0.530937 2.2493
2.28091 0.498663 0.764966
2.176 0.857144 0.759093
2.45823 0.407057 1.7979
2.03993 0.208325 1.60337
5.36342 0.590402 7.45527
4.74286 0.517038 6.02283
2.37765 0.403215 1.62952
1.69799 0.327121 1.5861
5.76304 0.649378 2.24528
4.50114 0.0469605 7.88943
2.66071 0.758987 0.662041
2.12134 0.761052 3.05834
5.31265 0.347775 1.45269
6.13776 0.600759 5.43299
4.63847 0.306793 8.08279
2.72308 0.554352 1.90905
2.79273 0.830514 0.475772
9.60963 0.367395 9.2875
3.99574 0.780683 8.36899
3.74468 0.608065 8.25541
4.14017 0.790281 8.1362
2.3274 0.675504 3.19319
5.27976 0.350965 1.42487
6.10618 0.567887 5.46183
5.27201 0.317553 7.39673
2.78249 0.799729 0.438137
3.63443 0.632404 2.64658
9.51257 0.371088 9.08056
3.92892 0.577255 8.28516
4.41963 0.300811 8.59237
4.35636 0.447081 7.93904
2.0718 0.21675 0.73919
2.51598 0.741755 0.535093
2.6393 0.349631 2.38456
4.55453 0.509038 8.07915
2.71104 0.338083 2.34904
8.55978 0.256459 3.55475
4.786 0.16862 7.5889
1.80911 0.486453 2.63658
2.55407 0.342324 1.78672
8.06229 0.341945 3.56291
5.45744 0.445089 2.32048
2.54994 0.74667 0.495772
2.6261 0.345611 2.19145
4.49284 0.49564 8.16581
2.59657 0.272497 2.05703
8.55165 0.301175 3.55047
5.11803 0.693323 7.57935
1.78484 0.470687 2.61194
2.33729 0.454294 2.56905
9.35283 0.0780963 1.45779
5.45241 0.442092 2.29527
POINT_DATA 400
SCALARS particleColor float 3
LOOKUP_TABLE default
0.235784 1 0.764216
0 0.961219 1
0 0.278081 1
0 0.557155 1
0 0.359876 1
0.746611 1 0.253389
0 0.487223 1
0 0.724045 1
0 0.52464 1
0 0.542882 1
0 0.447506 1
0 0.449578 1
0.0924215 1 0.907578
0 0.461877 1
0 0.803191 1
0 0.493865 1
0 0.383165 1
0 0.763737 1
0.535467 1 0.464533
0 0.298192 1
0 0.381736 1
1 0.497994 0
0.137076 1 0.862924
0 0.354697 1
0 0.981002 1
0 0.525665 1
1 5.96046e-08 0
0.129255 1 0.870745
0 0.448386 1
0 0.424543 1
0 0.474304 1
0 0.830384 1
0 0.460382 1
0 0.524349 1
0 0.945894 1
0 0.580441 1
0.0367727 1 0.963227
0 0.235801 1
0 0.805751 1
0.155014 1 0.844986
0 0.735155 1
0 0.305532 1
0 0.504212 1
0 0.624695 1
0 0.586074 1
0 0.388329 1
0 0.659166 1
0 0.625615 1
0 0.325296 1
1 5.96046e-08 0
0 0.870091 1
0 0.672486 1
0 0.269699 1
0 0.632279 1
0.0446221 1 0.955378
0 0.215678 1
0 0.27761 1
0 0.495607 1
0 0.272343 1
0 0.714149 1
0 0.652152 1
0 0.360648 1
0.377692 1 0.622308
0 0.456169 1
0 0.524944 1
0.192183 1 0.807817
0 0.857117 1
0 0.468672 1
0 0.862788 1
0 0.158333 1
0 0.566364 1
0 0.632161 1
0.185017 1 0.814983
0 0.535556 1
0 0.868409 1
0 0.758644 1
0 0.485409 1
0 0.592543 1
0 0.295046 1
0 0.512234 1
0 0.550606 1
0.0210635 1 0.978937
0 0.753697 1
0 0.288252 1
0 0.309969 1
0 0.550147 1
0 0.626342 1
0.421192 1 0.578808
0 0.185079 1
0 0.278361 1
0 0.228122 1
0 0.511909 1
0.1855 1 0.8145
0 0.288718 1
0 0.315528 1
0 0.322886 1
0 0.510446 1
0 0.285681 1
0 0.536266 1
0 0.373276 1
0 0.434894 1
0 0.728262 1
0 0.539258 1
0 0.84642 1
0 0.70743 1
0 0.390276 1
0 0.507132 1
0 0.65582 1
0 0.127907 1
0 0.187251 1
0 0.109794 1
0 0.669786 1
0 0.611918 1
0 0.557454 1
0 0.566174 1
0 0.305667 1
0 0.40065 1
0 0.439377 1
0 0.103723 1
0 0.547211 1
0 0.195043 1
0 0.606551 1
0.119248 1 0.880752
0 0.781202 1
0.186581 1 0.813419
0 0.23023 1
0 0.821963 1
0 0.760794 1
0 0.558779 1
0 0.857278 1
0 0.311149 1
0 0.464423 1
0 0.794699 1
0 0.323098 1
0 0.897863 1
0 0.561118 1
1 5.96046e-08 0
0 0.675496 1
0 0.303395 1
0 0.539151 1
0 0.535231 1
0 0.812352 1
0 0.612644 1
0 0.943207 1
0 0.451556 1
0 0.569648 1
0.0401923 1 0.959808
0 0.301239 1
0 0.696073 1
0 0.927433 1
0 0.586808 1
0 0.694583 1
0 0.797856 1
0 0.705345 1
0 0.889044 1
0 0.277987 1
0.268209 1 0.731791
0 0.685433 1
0 0.701148 1
0 0.539656 1
0 0.842897 1
0 0.593633 1
0 0.429111 1
0 0.349964 1
0 0.865048 1
0 0.437659 1
0 0.578688 1
0 0.308571 1
0 0.516724 1
1 0.0949413 0
0 0.830026 1
0 0.764781 1
0 0.847208 1
0 0.706072 1
0 0.68794 1
0.142975 1 0.857025
0 0.431689 1
0 0.188918 1
0 0.497133 1
0.0718128 1 0.928187
0 0.434388 1
0 0.527132 1
0 0.839696 1
0 0.813587 1
0 0.433383 1
0 0.825082 1
0 0.496797 1
0 0.352754 1
0.262884 1 0.737116
0 0.423479 1
0 0.404702 1
0 0.794207 1
0 0.433693 1
0 0.449894 1
0.80067 1 0.19933
0 0.595777 1
0 0.535356 1
0 0.796799 1
0 0.578631 1
0 0.321597 1
0 0.537539 1
0.0683154 1 0.931685
0.264576 1 0.735425
0 0.367806 1
0 0.723746 1
0 0.4304 1
0 0.271172 1
0 0.965144 1
0 0.643722 1
0 0.437017 1
0 0.66563 1
0 0.34269 1
0 0.921348 1
0 0.438186 1
0.145736 1 0.854264
0 0.203426 1
0 0.255404 1
0 0.856881 1
0.180134 1 0.819866
0 0.478223 1
0.325267 1 0.674733
0 0.866587 1
0 0.729419 1
0 0.577138 1
0 0.544434 1
0 0.832513 1
0 0.740941 1
0 0.508078 1
0 0.507604 1
0 0.780947 1
0 0.518099 1
0.200043 1 0.799957
0 0.91553 1
0 0.475153 1
0 0.400791 1
0 0.740649 1
0 0.82999 1
0.44811 1 0.55189
0 0.798588 1
0 0.756218 1
0 0.187044 1
0 0.69851 1
0 0.403224 1
0 0.866529 1
0 0.793738 1
0 0.573281 1
0 0.693219 1
0 0.917039 1
0 0.719228 1
0 0.355572 1
0 0.682884 1
0.0297474 1 0.970253
0 0.359583 1
0 0.855365 1
0 0.807825 1
0 0.468696 1
0 0.446917 1
0 0.513284 1
0 0.629786 1
0 0.250602 1
0 0.659103 1
0 0.216122 1
0 0.611785 1
0 0.888534 1
0 0.796542 1
0.512351 1 0.487649
0 0.985472 1
0 0.907083 1
0 0.757034 1
0 0.954518 1
0.010138 1 0.989862
0.139247 1 0.860753
0.0170667 1 0.982933
0 0.957639 1
0.00124113 1 0.998759
0 0.507103 1
0.00466578 1 0.995334
0 0.948746 1
0 0.823054 1
0 0.506947 1
0 0.84331 1
0 0.659193 1
0 0.92482 1
0 0.814242 1
0 0.63969 1
0 0.483609 1
0 0.638383 1
0 0.663031 1
0 0.546657 1
0.602824 1 0.397176
0 0.775958 1
0 0.773484 1
0 0.730884 1
0 0.542323 1
0.0601365 1 0.939864
0 0.449561 1
0 0.621334 1
0 0.577886 1
0 0.583301 1
0 0.544887 1
0 0.496314 1
0 0.641796 1
0.109913 1 0.890087
0 0.400134 1
0 0.675478 1
0.09146 1 0.90854
0 0.761605 1
0 0.351576 1
0.0183515 1 0.981649
0 0.863031 1
0 0.612087 1
0 0.923348 1
0 0.445504 1
0 0.955259 1
0 0.69677 1
0 0.709269 1
0 0.772826 1
0.390998 1 0.609002
0 0.403438 1
0 0.815618 1
0.0627581 1 0.937242
0 0.540004 1
0 0.509778 1
0 0.846586 1
0 0.421688 1
0 0.760431 1
0 0.677387 1
0 0.784399 1
0 0.584474 1
0 0.611046 1
0 0.999133 1
0 0.485754 1
0 0.502509 1
0 0.633357 1
0 0.51706 1
0 0.885684 1
0 0.769845 1
0 0.435074 1
0.034583 1 0.965417
0.0926028 1 0.907397
0 0.492865 1
0 0.617456 1
0 0.376691 1
0 0.305521 1
0 0.576271 1
0 0.550046 1
0 0.600389 1
0.0883649 1 0.911635
0 0.568026 1
0 0.903586 1
0.339306 1 0.660694
0 0.237207 1
0.0635123 1 0.936488
0 0.239691 1
0 0.541078 1
0 0.624638 1
0 0.787994 1
0 0.646544 1
0 0.308339 1
0 0.613997 1
0 0.429499 1
0 0.55955 1
0.163713 1 0.836287
0.0433197 1 0.95668
0.260372 1 0.739628
0.316199 1 0.683801
0 0.417428 1
0 0.623576 1
0 0.590315 1
0 0.80945 1
0 0.459232 1
0 0.513118 1
0 0.602818 1
0 0.310856 1
0 0.317284 1
0 0.736466 1
0 0.890776 1
0 0.411187 1
0 0.819548 1
0 0.723268 1
0 0.265388 1
0 0.307384 1
0 0.891541 1
0 0.655952 1
0 0.702768 1
0 0.419699 1
0 0.926782 1
0 0.552632 1
0.0634517 1 0.936548
0 0.325381 1
0 0.221578 1
0 0.466167 1
0 0.682897 1
0 0.815749 1
0 0.624037 1
0.107801 1 0.892199
0 0.853799 1
0 0.858407 1
0 0.965261 1
0 0.458228 1
