# vtk DataFile Version 3.0
Particle simulation
ASCII
DATASET POLYDATA
POINTS 400 float
4.24224 0 10
2.95501 2.1362 5.40836
0.787468 1.6745 6.30417
2.76271 0.0788893 3.66473
9.79078 2.3895 5.73742
3.01772 2.48113 4.16101
0.836274 0.924073 1.06841
5.98105 3.03204 3.13876
8.55004 0.910174 2.86271
2.48727 1.58055 9.78651
2.49993 1.99316 3.76413
1.93472 4.15663 4.48388
9.16417 1.71379 6.42544
0.880092 3.29592 3.3484
8.98546 2.69147 4.60349
7.4165 4.41172 9.27178
1.67534 3.32839 0.323291
3.49433 0.638327 1.21735
3.40391 6.25694 9.40428
5.41418 1.36033 3.8602
3.08462 0.323332 1.75264
8.55829 0.428882 3.03503
6.27338 1.03216 5.81354
1.02174 3.22959 1.07304
6.35164 1.65029 2.67494
0.0512514 2.77299 6.42195
1.16198 6.83726 8.10679
1.84419 1.58391 2.94031
9.2964 0.0756825 2.60762
6.96264 2.44241 3.79222
2.00087 3.34075 7.43089
2.42207 5.15209 0
3.42566 5.55563 4.97284
3.60379 0.667521 0.362596
6.92999 2.45606 3.44343
8.64269 2.55664 0.246853
8.97406 0.586208 5.25662
3.49116 0.287871 1.67409
7.4522 0.619117 2.95749
0.965183 0.383984 6.11885
5.09797 1.66357 6.26115
9.06283 2.95191 7.5635
1.32229 1.70792 3.21748
6.60343 0.561822 2.618
8.02268 0.332571 4.93447
5.53813 0.696758 1.01049
1.01956 1.19497 8.25817
7.01143 2.6382 6.60285
5.35994 0.519074 1.34551
5.64623 3.20026 3.31262
5.24818 1.77615 3.31852
0.980814 6.57516 6.66538
8.13549 1.47596 9.66318
3.4068 0.177297 7.98178
6.65819 1.75595 9.78927
5.77747 0.78832 0.928751
9.83989 2.60959 10
0.316419 0.721999 8.53066
6.22686 1.7099 0.875972
6.12033 6.92709 2.56345
2.00888 7.91778 2.4782
1.77704 7.33187 0
5.37387 0.232596 7.75584
2.20643 0.304521 9.10529
0.794913 9.70934 1.80263
0.611655 1.62649 6.87509
3.58581 1.45578 9.30374
3.78267 2.99258 0.506396
6.08713 1.67602 1.18012
5.03639 1.28129 7.88373
6.55479 0.697964 5.0183
3.28163 0.0534879 1.36011
2.04746 3.10275 9.05887
2.18001 0.298384 9.06624
3.4428 0.16281 5.60951
9.79517 0.579152 1.13261
3.58079 1.19325 9.10724
4.84753 0.555853 7.79122
7.33369 9.81052 0.00785699
4.58953 3.11756 9.79616
3.10718 0.54913 1.5113
2.89355 0.421464 1.2815
0.587292 1.34639 3.557
3.62729 0.249804 1.7397
0.919884 0.893398 8.93525
5.0095 0.722441 8.71608
2.21554 2.21129 1.0208
1.08202 0.780309 4.45601
4.35317 6.2898 1.3379
7.94591 0.376774 0.215549
2.84437 0.290236 2.32233
1.99137 0.369449 1.53755
1.37407 0.351136 6.17819
3.68602 0.373571 3.53156
0.924481 0.512031 8.82674
4.47078 0.289897 9.72919
6.64382 1.25255 7.47633
3.24672 5.70353 1.57468
8.1245 8.76738 6.79678
7.88072 0.39034 0.219581
3.45839 0.768502 0.997382
7.19869 0.106325 4.92143
3.7568 0.27862 3.55223
9.89381 0.517529 5.47766
0 4.68139 4.06194
1.66052 0.678998 0.612162
8.85572 0.437245 9.93802
5.70458 0.172995 1.41259
6.83419 0.106271 1.06095
9.30192 1.67912 0.634647
6.54916 8.66226 5.90378
2.09762 0.217531 9.2395
5.2848 2.75676 0.11474
6.04597 0.24588 1.93801
3.52238 0.117493 1.52613
0.896092 0.589544 6.82248
5.02883 0.825247 7.61913
6.80491 0.987578 2.96879
6.78466 0.169238 1.0795
6.60981 1.92804 10
3.25507 0.418736 1.51578
4.91428 10 3.00297
7.54189 5.32372 1.43447
0.608213 4.82669 8.95804
6.82755 1.68341 9.98891
3.43031 0.725565 1.21179
6.89187 0.969437 7.67699
2.39973 0.0950679 9.1537
2.63456 0.76382 8.75859
4.38407 4.80064 0.379359
3.08646 0.663956 2.35141
1.18267 0.77326 4.60531
9.09212 0.855489 9.59573
6.17652 0.673405 5.70524
1.0984 6.73022 6.71633
1.64808 0.759272 0.75233
6.50565 4.85762 0.492128
2.39978 0.199232 9.10832
4.85537 9.55571 9.68807
5.55314 1.07948 8.86527
3.70115 0.337132 2.2222
0.0954504 5.13497 9.66465
0.260879 10 5.9064
6.87759 1.55044 9.59649
3.30837 0.675483 1.57998
2.95938 0.385164 1.24603
8.36555 0.0586394 5.19407
0.35909 3.03095 0.0523173
3.01254 0.588638 1.03043
4.53033 9.21865 1.2092
3.71192 0.291007 2.20609
9.81236 1.34205 6.95061
0.580714 1.80835 6.59011
7.71397 2.70807 8.64964
3.60931 4.44811 0.874509
5.59161 0.241498 1.04162
8.47043 0.439358 5.8417
3.30795 0.214136 2.05938
8.46378 0.368199 4.13504
2.13621 0.627655 0.478845
9.43025 2.92849 3.04751
0.728372 1.42278 6.53651
5.74489 0.325985 8.17919
3.68063 0.520765 1.62718
4.05851 1.1055 3.73132
8.03095 1.50898 9.7134
5.46851 0.709792 8.24917
5.52985 0.484187 8.70991
6.15983 0.24362 5.9297
8.52196 5.87724 3.43364
3.14552 0.420365 1.61091
2.6501 0.536242 0.639195
6.15034 2.04615 1.09078
1.44539 0.261689 0.812005
3.37033 0.215192 3.59157
8.74254 2.55598 0.159776
4.54121 0.840458 8.64678
4.98825 0.779948 7.94701
7.61299 1.34389 7.21947
0.826796 7.5851 0.561825
3.59859 0.298104 1.69993
4.81454 0.642222 3.47961
5.28375 4.49403 3.80094
3.22498 0.855435 1.6288
5.64617 0.590608 8.10252
3.16202 0.542511 2.73577
2.97278 0.360384 1.23813
1.37052 0.125374 6.91533
8.12285 0.184159 5.26758
3.26999 0.337417 1.74985
3.56423 0.294347 1.74152
3.52942 0.479725 1.01813
1.01431 0.999062 3.57363
1.47645 0.950877 2.31394
4.98797 6.93387 6.66553
3.04261 0.207689 1.35473
3.71435 0.207804 3.67968
1.76042 7.73001 2.64918
3.38793 0.350183 0.976671
3.98692 0.98029 0.977876
3.02507 0.372593 2.03452
5.33661 0.450389 1.49008
8.2964 0.523811 4.68245
4.76558 0.927048 8.6707
6.25534 6.82499 2.56227
5.73588 0.309032 8.79114
3.63545 0.183023 1.4263
1.95256 2.07242 9.4838
0.503345 0.808947 8.51673
7.82587 0.428222 0.258901
3.71432 0.606973 1.23058
6.01645 0.225682 1.20588
6.64944 1.02911 7.2871
6.25977 1.41619 10
7.49101 0.37898 9.36959
5.67783 0.550684 8.31975
3.58377 0.419226 1.38171
3.05736 0.400146 0.996065
3.83156 1.70297 6.69246
7.61057 0.621125 0.202748
7.92022 1.93756 3.92735
8.52443 0 10
5.48026 0.453206 7.8659
3.25498 0.32761 2.1856
5.31171 1.03806 9.10917
2.96496 0.196513 2.13117
6.03539 6.14135 0.149581
3.71799 0.48248 1.22538
3.2037 0.510081 1.71012
8.24514 1.75895 9.60231
1.11553 1.7735 6.17866
5.46081 0.39089 8.75246
8.55377 0.522501 5.05386
3.35412 0.344315 1.49632
4.88016 0.866154 7.57922
0.0913489 1.16151 3.68549
3.59202 1.48257 8.85587
4.02235 0.414043 3.83221
3.20708 0.287768 0.811704
0.518031 0.931294 9.3478
3.00803 0.846343 1.98062
2.61498 0.107566 2.08855
2.94005 0.118065 1.3914
3.6998 0.821922 1.65046
5.59189 0.465057 8.45057
1.95425 0.74063 0.563837
1.83944 3.89733 0.0698967
4.28158 1.15323 8.54395
6.63453 0.105661 0.946557
5.26159 0.390804 8.80445
3.03509 0.429082 2.15612
9.56545 4.0094 3.77689
5.59551 0.48437 8.57536
3.96349 0.385075 3.74205
7.87427 0.13897 4.94075
3.38497 0.554916 2.34085
10 0.125999 0.905936
5.39897 0.351865 7.91495
5.66323 0.914228 0.065488
5.5825 0.598841 8.45288
3.49547 0.146536 1.75852
7.40273 2.76816 3.07404
4.70827 1.027 8.56971
8.68742 1.00959 0.771596
5.24411 0.420331 9.01396
6.322 0.858579 2.70821
2.66702 0.590722 1.83028
5.78038 0.851537 9.11808
8.28245 0.0167159 5.35956
3.47545 0.349501 1.57017
3.65007 0.171033 1.20158
2.08142 1.41373 3.37791
7.25142 0.742939 2.82703
3.77936 0.266677 3.73018
5.11408 0.715504 8.84746
5.53858 0.687485 9.10781
3.32647 0.56534 8.09496
3.66913 9.51958 8.46867
1.13786 0.724479 9.34934
3.49204 0.317775 1.63353
7.9007 0.392864 0.518916
5.95158 0.540034 1.30682
5.13646 1.99489 2.78598
2.23504 0.186211 9.65813
9.84441 3.92748 7.9712
8.25256 0.343572 5.38664
2.99448 0.532857 1.8505
2.98274 0.547366 1.0741
5.69545 0.752044 9.09497
1.8005 5.46831 8.96492
8.89095 0.1728 2.26941
5.28216 0.716218 1.29565
3.76349 0.44553 1.44618
2.36541 0.0797055 9.02523
5.70959 0.382244 8.39983
5.67426 0.255145 8.35344
2.87906 0.529701 1.93828
3.2921 0.569707 1.50538
3.27155 0.797554 2.23734
3.18968 0.484843 2.05822
8.10531 0.166285 0.618133
6.7322 1.69003 9.82528
1.59887 2.40597 9.80359
6.80594 0.573009 6.09919
3.63379 0.484441 2.20855
0.249952 0.987838 2.53229
3.797 0.110415 1.87195
3.28361 0.363634 1.66293
2.43506 1.83752 9.36584
3.62499 0.169877 3.99183
4.93378 0.829287 7.64494
9.74489 1.4025 6.93781
8.51656 0.711881 5.20515
3.31291 0.508933 1.6796
3.30811 0.396093 1.06978
0.107233 0.744922 9.09447
4.03923 0.0642673 1.38568
5.81158 1.01245 0.189105
6.09278 0.140418 1.7774
3.12541 0.371905 1.25625
5.74618 0.74583 8.74884
0.759904 1.51726 3.81248
5.81683 0.419788 8.07105
2.77721 0.602786 1.05585
7.59142 0.0804047 0.399201
7.82049 0.479504 0.22242
3.07453 0.36568 1.10665
5.30415 0.619292 1.39336
5.48127 0.630338 1.65462
3.6709 0.354078 2.15418
7.85803 1.40344 9.49776
3.59539 0.436746 1.54598
5.91483 0.526925 8.41464
3.21725 0.508952 2.30843
6.08733 0.49523 1.6811
9.87176 4.1482 7.66419
5.57509 0.233895 1.57835
3.35622 0.330751 1.83177
9.42624 1.83105 0.788985
3.35821 0.340082 3.52971
4.86152 0.829533 7.72884
3.95046 0.00550267 3.58979
5.75473 0.0605003 8.84204
5.84316 0.269191 9.03904
3.01016 0.339598 1.50174
3.01321 0.538456 1.61135
5.42019 0.553785 1.38826
3.22469 0.179815 1.92492
3.07172 0.443155 1.52521
3.69613 0.426844 3.60611
2.40481 0.49667 1.8488
3.44523 0.538626 1.24339
5.44149 0.981202 9.02166
5.19779 0.579792 8.63124
2.89621 0.232336 0.809389
3.02529 0.182378 1.7106
5.69291 0.476084 0.973701
5.87749 0.228209 9.04934
2.7676 0.394439 1.33413
3.00158 0.387989 1.62587
5.79787 0.541971 1.44137
5.40774 0.652055 8.57783
5.73101 0.842695 8.62754
3.06233 0.277156 1.77605
2.93613 0.177452 1.70777
8.23667 0.240367 5.18785
6.00167 0.493542 8.66221
5.74886 0.627885 8.78149
6.07956 0.66782 8.71071
4.1095 0.84037 1.21177
5.86231 0.579562 1.4088
9.72902 1.34492 7.10473
5.86407 0.364464 8.40961
3.44532 0.266761 2.10787
2.85415 0.268066 1.34128
8.00494 0.412264 5.02922
5.66317 0.722246 8.42128
5.5096 0.380237 8.85454
5.59285 0.840865 8.42214
3.41343 0.490943 1.35624
3.24126 0.230546 1.24847
3.01355 0.287222 1.69677
5.8814 0.813534 8.13105
3.23596 0.590103 2.05726
2.38262 0.122797 9.05427
5.72579 0.703492 8.44853
3.4134 0.451474 1.04639
3.36503 0.585881 1.78439
1.16411 6.51038 4.20181
5.70446 0.478471 1.35686
3.31497 0.188249 1.25785
3.39136 0.159471 1.68843
5.4331 0.282817 8.41876
3.41635 0.547646 1.44875
2.30004 0.332949 9.0898
5.43459 0.79446 8.55836
3.43546 0.42192 1.07777
3.7555 0.342171 3.70973
7.71568 0.216242 0.363004
5.69591 0.434137 1.39837
POINT_DATA 400
SCALARS particleColor float 3
LOOKUP_TABLE default
0 0.430518 1
0.539158 1 0.460842
0 0.796111 1
0 0.895003 1
0 0.342623 1
1 0.860698 0
0 0.662909 1
0 0.855498 1
0.536403 1 0.463597
0 0.911111 1
0.363171 1 0.636829
1 5.96046e-08 0
0 0.410171 1
0.619857 1 0.380143
0.0924926 1 0.907507
0 0.467706 1
0 0.614089 1
0 0.401401 1
0 0.823275 1
0.18043 1 0.81957
0 0.515748 1
0 0.502891 1
1 5.96046e-08 0
0 0.327567 1
0.840058 1 0.159942
0 0.927682 1
1 5.96046e-08 0
0.256438 1 0.743562
0 0.720048 1
0.0827089 1 0.917291
0 0.696025 1
0.048313 1 0.951687
0.449714 1 0.550286
0.143598 1 0.856402
0.396169 1 0.603831
0 0.842092 1
0.627067 1 0.372933
0 0.493851 1
0 0.453471 1
0 0.515679 1
0.73787 1 0.26213
0 0.415518 1
1 5.96046e-08 0
0.427633 1 0.572367
0 0.422436 1
0 0.546559 1
0.303279 1 0.696721
0 0.473558 1
0 0.374709 1
0 0.755215 1
0.435283 1 0.564717
1 5.96046e-08 0
0.0475381 1 0.952462
0 0.797987 1
0 0.579863 1
0 0.4289 1
0 0.755861 1
0 0.373299 1
0 0.718282 1
1 0.100214 0
0.0691796 1 0.93082
1 5.96046e-08 0
1 0.889167 0
0 0.837486 1
0 0.697339 1
0.157287 1 0.842713
0 0.176647 1
0 0.857753 1
0 0.695811 1
0 0.288086 1
0 0.907147 1
0 0.447436 1
0.20754 1 0.79246
0 0.584406 1
0.532614 1 0.467386
0 0.464438 1
0 0.298128 1
0 0.434798 1
0.182157 1 0.817843
0.409375 1 0.590625
0 0.566423 1
0 0.455016 1
0 0.253233 1
0 0.784048 1
0 0.511943 1
0 0.510505 1
0.644124 1 0.355876
0.865794 1 0.134206
0.467746 1 0.532254
0 0.775836 1
0 0.2766 1
0 0.391977 1
0 0.636599 1
0.0572833 1 0.942717
0 0.820861 1
0 0.482102 1
0 0.67601 1
0.00393878 1 0.996061
1 5.96046e-08 0
0 0.706741 1
0 0.513931 1
0 0.478207 1
0 0.766398 1
0.482336 1 0.517663
1 0.765029 0
0 0.600769 1
0.0755364 1 0.924464
0 0.374668 1
0 0.915412 1
0 0.489837 1
0 0.736823 1
0.308773 1 0.691227
0 0.705218 1
0 0.582779 1
0 0.50625 1
0 0.18751 1
0 0.364277 1
0 0.418779 1
0 0.72912 1
0 0.492768 1
0 0.651176 1
1 0.280332 0
0 0.78659 1
0 0.862803 1
0 0.759861 1
0 0.771172 1
1 0.80256 0
0 0.368269 1
0.708289 1 0.291711
0.400463 1 0.599537
0 0.779939 1
0.0636337 1 0.936366
0 0.734179 1
0.367906 1 0.632094
0.230583 1 0.769417
0 0.819408 1
1 5.96046e-08 0
0 0.772308 1
1 0.799808 0
0 0.639293 1
0 0.200593 1
0 0.849555 1
1 0.501292 0
0 0.789506 1
0 0.528136 1
0 0.843693 1
0 0.964628 1
0 0.419777 1
0 0.696405 1
1 5.96046e-08 0
0 0.265697 1
0 0.516255 1
0.29974 1 0.70026
0 0.683721 1
0 0.780839 1
0 0.305829 1
0 0.505377 1
0 0.619472 1
0 0.837983 1
0 0.890076 1
1 0.828825 0
0 0.683659 1
0 0.617849 1
0.00707769 1 0.992922
0 0.717234 1
0 0.282439 1
0 0.867116 1
0 0.797295 1
0 0.619556 1
1 5.96046e-08 0
0 0.765591 1
0.745839 1 0.254161
0.279016 1 0.720984
0 0.889271 1
0 0.429919 1
0.506679 1 0.493321
0 0.767861 1
0 0.906939 1
0 0.897203 1
0.0934089 1 0.906591
0 0.643369 1
0 0.898575 1
0 0.637281 1
0 0.741743 1
0 0.421726 1
0 0.585851 1
0 0.776552 1
0.190223 1 0.809777
0 0.680061 1
0 0.463677 1
0 0.115414 1
0 0.540223 1
1 5.96046e-08 0
0.0367058 1 0.963294
1 0.447175 0
0 0.794645 1
0 0.75555 1
1 5.96046e-08 0
0 0.630601 1
0 0.414544 1
0 0.5706 1
0 0.624406 1
0 0.557568 1
0 0.374207 1
0.350471 1 0.649529
0 0.282376 1
0 0.435254 1
0 0.399374 1
0.0825127 1 0.917487
0 0.32766 1
0 0.825489 1
0 0.436203 1
0 0.885526 1
0 0.474968 1
0.0015098 1 0.99849
0 0.207671 1
0 0.766441 1
0 0.498138 1
0.0387962 1 0.961204
0 0.613079 1
1 0.201175 0
0 0.81511 1
0 0.988189 1
0 0.71327 1
0 0.832913 1
0 0.499628 1
0.121548 1 0.878452
0 0.590405 1
0 0.459333 1
0 0.781271 1
0.400172 1 0.599828
0.101621 1 0.898379
0 0.663435 1
0 0.838742 1
0 0.765965 1
0 0.895635 1
0 0.372014 1
0 0.393368 1
0 0.552339 1
0 0.737146 1
0 0.401995 1
0 0.252488 1
0 0.746599 1
0 0.421105 1
0 0.701151 1
0 0.1566 1
0 0.668046 1
0.239701 1 0.760299
0 0.505756 1
0 0.651414 1
0 0.16635 1
0.206122 1 0.793878
0 0.68977 1
0.0837583 1 0.916242
0 0.52803 1
0 0.16744 1
0 0.677395 1
0 0.464588 1
0 0.795213 1
0 0.516219 1
0 0.613901 1
0.144046 1 0.855954
0 0.46212 1
0 0.640166 1
0 0.443991 1
0 0.825827 1
0 0.867227 1
0 0.612438 1
0 0.406661 1
0 0.92471 1
0 0.720887 1
0 0.582104 1
0 0.41508 1
0.47359 1 0.52641
0 0.792604 1
0 0.650163 1
0 0.763703 1
1 5.96046e-08 0
0 0.919034 1
0 0.203963 1
0 0.877801 1
0 0.703057 1
1 0.912705 0
0.080858 1 0.919142
0 0.462206 1
0 0.942074 1
0 0.470604 1
0 0.889685 1
0 0.739509 1
0.383875 1 0.616125
0 0.548215 1
0 0.96344 1
0 0.680217 1
0 0.756577 1
0 0.777147 1
0 0.216811 1
0 0.432405 1
0 0.785284 1
0.213188 1 0.786812
0 0.655315 1
0 0.875247 1
0 0.474745 1
0 0.589363 1
0.281108 1 0.718892
0 0.72704 1
0 0.530388 1
0.595863 1 0.404137
0 0.82716 1
0 0.891704 1
0 0.886539 1
0 0.428199 1
0 0.58266 1
0 0.41308 1
0 0.849835 1
0.0571478 1 0.942852
0.0896265 1 0.910374
0.132732 1 0.867268
0 0.285913 1
0 0.423831 1
0.271425 1 0.728575
0 0.224828 1
0 0.998943 1
0 0.710596 1
0 0.305986 1
0 0.832827 1
0 0.712989 1
0 0.673973 1
0 0.349188 1
0.147948 1 0.852052
0 0.4684 1
0 0.946329 1
0 0.563904 1
0.0173227 1 0.982677
0 0.533671 1
0 0.87139 1
0.0187632 1 0.981237
0.0549544 1 0.945046
0 0.301763 1
0 0.702663 1
0 0.472011 1
0 0.237023 1
0 0.7415 1
0 0.294374 1
0 0.905359 1
0 0.427525 1
0 0.560368 1
0 0.432083 1
0 0.391762 1
0 0.799308 1
0 0.755598 1
0 0.754805 1
0 0.479869 1
0.373157 1 0.626843
0 0.689882 1
0 0.680815 1
0 0.462354 1
0 0.618244 1
0 0.759616 1
0 0.278916 1
0 0.813693 1
0 0.299608 1
0 0.668827 1
0 0.619813 1
0 0.130014 1
0.263937 1 0.736063
0 0.547894 1
0 0.16023 1
0.36053 1 0.63947
0 0.442135 1
0 0.611177 1
0 0.107989 1
0 0.647988 1
0 0.194647 1
0.119602 1 0.880398
0 0.578042 1
0 0.480306 1
0 0.657026 1
0 0.881735 1
0 0.56631 1
0 0.656341 1
0 0.325973 1
0 0.325853 1
0 0.782334 1
0 0.545531 1
0 0.305162 1
0 0.171466 1
0 0.631024 1
0 0.680987 1
1 5.96046e-08 0
0 0.743646 1
0 0.367463 1
0 0.259165 1
0 0.63265 1
0 0.786056 1
0 0.538175 1
0 0.488567 1
0 0.734053 1
0 0.537151 1
0 0.792254 1
0 0.701144 1
