# vtk DataFile Version 3.0
Particle simulation
ASCII
DATASET POLYDATA
POINTS 400 float
2.91916 0.236441 9.93415
0.127511 0.122801 5.50118
2.20985 1.91633 6.06818
2.88207 1.02873 7.95818
0.482197 0.201447 2.58143
2.22498 6.54073 8.38015
3.99894 2.44749 2.46705
6.42638 3.19711 4.25549
8.46505 0.583858 0.105908
2.13495 1.67285 9.23998
0.947081 0.407595 0
1.95984 8.08472 2.49863
8.97377 1.9503 5.4184
1.8533 1.47005 2.75008
5.16646 3.15505 5.11556
6.44051 3.48118 8.87244
2.04401 4.95789 0.298781
3.40446 0.492277 1.48438
5.67929 5.71262 9.4047
7.78528 0.719421 4.8109
3.4495 0.442246 1.25233
9.21464 2.26957 5.98387
2.78434 7.79022 3.81334
0.350144 3.69344 1.20062
8.97104 0.948146 3.25656
0.922526 3.92552 8.49926
4.44556 1.37292 6.61758
0.362353 1.23171 6.36666
10 2.29107 2.39919
7.57015 2.87505 5.67993
2.36099 3.5204 5.54058
0.695751 5.97519 2.17241
1.70442 8.74994 6.51826
6.10668 0.76343 1.15684
7.58721 3.39931 5.81664
9.10126 2.99076 0.396767
8.10138 0.391713 7.51419
3.33275 0.455198 1.47189
6.74115 1.5309 1.77097
1.26678 0.25417 8.40626
8.77491 0 5.3453
8.04553 3.24227 7.92343
2.47187 3.269 2.56556
8.48548 1.90434 1.44859
9.01714 0.714338 4.92598
5.6358 0.486854 1.63005
3.26921 2.40525 8.61803
6.17938 2.98596 7.43969
5.60752 0.60913 1.14184
6.71035 3.34809 3.95336
3.86559 2.68711 3.63857
8.13932 7.02329 2.47523
8.28814 0.433879 7.93718
3.79221 0.0918602 7.76255
6.45913 1.7413 9.06507
5.88491 0.628338 1.57279
8.73252 2.4034 7.63145
1.17163 1.53184 8.34035
6.3843 1.57386 0.144563
4.46863 7.73799 2.65805
3.62362 5.3652 3.3523
5.08794 7.72724 9.6248
9.41146 2.38973 8.50309
1.92403 0.609841 9.60615
1.73662 8.63677 2.6524
0.464129 1.46423 9.20865
2.75867 1.38987 8.67027
4.38123 5.16514 0.317088
6.21092 1.73984 0.142036
5.26823 0.141973 7.72891
8.67825 0.0809349 4.8033
3.02123 0.242516 2.2538
4.72551 4.28168 7.46685
1.5511 0.604216 9.60206
0.444869 0.260756 6.59172
9.14711 1.98897 0.682
3.68203 0.781685 8.81511
6.10451 0.642738 8.08512
5.01235 5.37238 0.051558
8.18787 1.0042 9.48106
3.34042 0.774917 1.37174
3.75851 0.448036 2.91989
0.797579 1.4535 4.035
2.88373 0.557996 1.2256
0.929101 0.554877 9.71169
4.02898 0.673042 8.3406
3.9792 3.35382 1.71971
1.43786 0.575957 6.38852
1.90923 8.73669 0.363065
7.35189 0.510292 0.315062
3.79064 0.236521 0.856066
2.21993 0.683223 1.19333
1.28639 0.4049 8.42101
3.80071 0.578416 4.04493
1.53096 0.660469 9.9898
4.02303 1.55241 7.89691
7.09451 3.14934 5.70686
4.51945 6.77251 3.77106
1.40129 3.29692 6.59435
7.35155 0.255331 0.501931
3.44954 0.552487 1.72898
6.55619 0.777598 2.91252
3.60099 0.692643 3.84932
6.81072 0.960134 4.76238
1.21424 5.12238 10
0.695365 0.294173 0.171062
9.68027 1.49565 9.13093
5.60956 0.267897 0.861739
6.50042 0.282702 1.21022
8.1506 1.61198 0.489973
7.01169 8.49575 3.87441
2.07817 0.348306 8.5127
6.66358 4.004 0.358564
4.79913 0.267065 0.75929
2.95107 0.265244 1.58622
1.56718 0 3.08807
5.30098 0.359369 8.00022
8.11559 0.933325 2.52526
7.55212 0.818051 1.88431
4.31609 3.77439 9.44293
3.34902 0.678306 1.52295
5.51827 6.31482 2.16075
7.6079 4.13013 3.37738
1.41721 4.75971 9.17669
6.32019 1.7383 9.07282
2.999 0.850955 1.6975
9.70845 2.8385 8.73509
1.7548 0.397702 9.39454
0.690533 0.414645 9.78135
1.3162 1.68632 9.09211
4.37678 0.32545 2.56081
0.70388 0.745824 7.45576
9.45292 2.0651 8.65921
5.21997 0.514553 8.70782
1.65214 6.98225 9.64381
1.41553 0.583987 0.493465
6.88661 9.67628 6.26226
1.72561 0.625209 9.61003
4.52968 5.77896 8.28893
5.88922 0.548669 8.34334
3.20255 0.488336 0.949674
1.17159 5.03323 9.72089
1.65479 5.13425 9.43787
6.39069 1.9505 9.11956
3.60871 0.89855 1.58203
3.99889 0.407535 2.94132
9.13776 0.558913 4.64843
0.00603076 1.254 0.304704
2.77447 0.182058 1.95922
1.98455 4.68859 3.48637
3.15618 0.512932 0.897448
8.52881 1.80805 6.86272
0.455584 1.7135 9.19682
7.04086 3.34168 7.08647
8.28317 10 2.16155
5.57239 0.329445 1.10667
9.14873 1.08235 4.53224
3.56403 0.174683 1.25524
9.29717 0.488624 0.618542
2.72607 1.82145 0.0404288
6.74211 1.33313 2.1636
2.45592 1.75653 5.85463
5.17776 0.650882 9.16868
3.01066 0.169016 0.0869492
9.10751 1.07348 3.51042
8.68179 1.92824 9.01786
5.0872 0.548775 9.95578
5.57822 0.0856696 8.26343
8.93044 2.6866 7.45489
7.54436 0.0510963 0.221353
3.26016 0.322819 1.34536
2.2885 0.106345 2.18892
5.80354 2.24826 2.44544
0.790829 0.277013 0.543243
3.52524 0.361637 4.47714
9.00541 2.90689 0.600456
3.78333 1.07537 8.58038
3.47713 0.855817 8.81999
5.28273 1.0726 7.10106
0.918577 5.11126 0.846886
3.04075 0.461768 1.28955
1.07829 4.82444 7.2074
4.031 3.60243 2.76355
3.08575 0.95898 1.60397
5.26156 0.545405 8.8483
3.70564 0.014056 0.49157
3.29975 0.364102 1.49032
0.680625 0.876985 2.62705
9.08156 0.608792 4.96192
3.49665 0.347399 1.28912
3.40524 0.390936 1.53392
3.4408 0.308659 1.6372
9.56173 1.62862 1.98955
0.701743 0.228252 1.0045
7.60917 0 7.38718
3.34745 0.153906 1.32442
3.35441 0.288478 4.26245
0.132425 4.55957 9.24298
3.45447 0.284303 1.69842
2.93485 0.485373 1.6442
3.48434 0.412451 0.853644
5.37165 0.548526 1.41074
8.80777 0.2298 5.51018
3.73745 0.706532 8.5011
4.12432 7.20716 7.24418
5.48744 0.0744675 8.39439
3.31306 0.0145593 1.36581
2.25068 2.86515 9.86932
0.396883 0.410618 6.56017
7.36859 0.342676 0.504514
3.00962 0.270259 1.5871
5.01748 0.356323 0.961544
8.94555 1.83974 6.14376
5.95874 1.64939 9.11425
3.628 0.548471 8.29245
5.37732 0.283705 8.48017
3.57001 0.177532 1.35705
3.80378 0.358958 1.74289
2.82156 2.22777 9.50302
7.04524 0.46613 0.374011
4.86061 2.04606 0.817933
9.76735 1.0465 9.45958
5.99896 0.413905 8.94034
3.89523 0.269245 1.01136
5.40419 0.493806 9.38613
3.85453 0.0763582 1.01359
8.27662 10 0.102383
3.60033 0.307226 1.6341
3.62914 0.612543 1.14655
7.8977 0.437222 7.86808
2.76066 2.04947 5.99782
5.34295 0.238187 9.52764
8.64642 0.328433 4.43932
3.48614 0.272886 1.60576
5.29775 0.380715 8.0035
0.363578 1.39925 4.28885
2.61285 1.29619 8.39571
3.59036 0.481472 4.21552
3.41398 0.277118 1.8831
1.79627 0.058544 7.18638
3.4679 0.902987 1.16678
3.72032 0.171866 0.839126
3.79913 0.68617 1.34438
2.90935 0.301199 1.14479
5.22057 0.205369 8.31306
0.681179 0.283246 0.2454
1.62826 2.67763 2.03569
5.029 1.5516 8.50318
5.66314 0.804031 1.43034
5.95857 0.24261 8.07658
3.50354 0.51568 0.904436
8.64082 4.99325 5.38734
5.35232 0.265488 8.6635
3.86098 0.532752 3.92217
8.53004 0.437306 4.57067
3.57753 0.558146 0.866789
8.83571 0.152119 1.35321
6.11034 0.381455 8.98499
5.54423 0.414838 1.79854
5.29076 0.309599 8.53146
2.96823 0.420831 1.13315
7.8422 0.79824 2.90201
3.88229 0.764526 8.65946
8.87009 1.01336 1.21594
5.64381 0.229258 8.11311
8.35548 2.17427 1.54858
2.0491 0.489318 1.15207
5.72383 0.202408 8.07091
9.04722 0.368137 4.87653
3.19232 0.0362575 1.40845
3.16088 0.0181002 1.83715
2.43164 0.840721 2.17573
6.57336 1.37305 2.19386
3.14246 0.381734 3.97146
5.47271 0.12418 7.98141
5.91461 0.0920427 8.26733
3.02456 2.65477 9.3771
7.08144 9.86342 0.989558
0.379748 0.458972 7.07562
3.47537 0.434633 1.46223
7.05549 0.283172 0.663438
5.27214 0.698041 1.27765
2.23754 1.73317 1.53163
2.30217 0.412121 8.82611
9.50087 4.73208 7.62652
8.32253 0.189327 4.9881
3.57208 0.674322 1.37324
3.87565 0.522795 2.75657
5.23028 0.451188 7.65949
1.97714 5.33752 9.07901
9.02137 0.381092 0.945156
5.91802 0.880147 1.28987
3.28752 0.819782 1.71432
1.66009 0.498646 9.55674
5.28022 0.15533 8.67607
5.38026 0.0510273 8.49331
3.83961 0.62651 1.01533
3.75975 0.788716 1.62861
3.83801 0.696992 2.82149
3.90525 0.568115 1.13674
7.53249 0.177853 0.351082
6.46265 1.83726 9.24411
2.02634 3.105 9.52192
4.06138 0.430658 5.99181
3.17447 0.619931 0.941841
0.434087 0.813202 5.96763
3.26058 0.294848 2.53521
3.20627 0.622321 1.25673
2.16842 1.81774 9.22564
3.67562 0.68754 4.11788
5.59921 0.216875 8.44346
8.66458 1.7636 6.917
8.70399 0.565939 4.59119
3.66389 0.649651 1.18082
3.85714 0.481969 2.6933
1.42126 0.127136 7.82253
2.84309 0.468479 2.1631
5.44526 0.245005 1.59188
4.86227 0.652862 0.797048
3.224 0.326092 1.83306
5.54557 0.546837 8.64282
0.731048 1.79954 4.13662
5.26646 0.694406 8.80299
3.59219 0.461829 1.74288
7.05288 0.131133 0.61266
7.28092 0.33141 0.385099
3.37266 0.644065 1.73228
5.27302 0.766197 1.2861
5.70279 0.933655 0.525611
3.44125 0.472258 0.755577
8.82354 1.7301 9.04989
3.52703 0.301076 1.54851
5.53234 0.62764 8.31013
3.65722 0.601141 1.1504
5.0852 0.419558 1.06781
9.492 4.81848 7.85366
5.97483 0.534913 0.989398
3.66414 0.375287 1.15896
8.22161 1.81297 0.454119
3.58276 0.341882 4.431
5.63159 0.0536335 8.66191
3.93996 0.447908 4.01112
5.03533 0.19796 7.76953
5.03305 0.129792 7.7092
3.43671 0.404587 1.50665
3.32005 0.512136 1.61916
5.39944 0.673945 1.26187
3.63912 0.198282 1.024
3.28806 0.293871 1.63982
4.01955 0.451663 4.29408
3.57871 0.360528 1.45293
3.14295 0.687257 1.55291
5.61614 0.943584 8.17248
5.62372 0.308354 8.17729
3.22727 0.29572 1.84772
3.64498 0.244483 1.28649
5.38213 0.575593 0.995422
5.31967 0.275119 8.0352
3.49695 0.391367 1.48869
3.07876 0.478963 1.45967
5.83674 0.59898 1.23536
5.68125 0.150159 8.23365
5.84891 0.418576 8.52772
3.46176 0.358204 1.32234
2.03354 0.456093 1.2903
8.62182 0.404235 4.68711
5.48826 0.25494 8.43858
5.2672 0.717189 8.33821
5.71951 0.257093 8.57493
2.35475 0.658874 1.72846
5.80248 0.548129 1.24047
8.46789 1.71514 6.85438
5.58477 0.151664 8.52366
3.41027 0.590923 0.628987
3.42738 0.407784 1.28961
8.84047 0.54365 4.50821
5.72583 0.30336 8.21977
5.92314 0.23921 8.509
5.26617 0.572723 8.64279
3.29887 0.323077 1.61468
3.17529 0.298573 1.52771
3.532 0.379526 1.29969
5.30197 0.714813 9.0794
3.51717 0.540583 1.22892
1.69548 0.405769 9.48822
5.46031 0.363954 8.4571
2.95976 0.255337 1.70399
3.12089 0.783435 1.15554
7.94732 0.0281813 0.589188
5.81197 0.606461 1.14172
3.28025 0.302177 1.53715
3.6204 0.246127 1.35854
5.51485 0.0683899 8.50948
3.51779 0.436735 1.71382
1.61227 0.363736 9.51689
5.49534 0.246751 8.36682
3.01617 0.241884 1.70619
3.84042 0.500988 4.37222
7.38442 0.0653193 0.706972
5.80253 0.592127 1.16122
POINT_DATA 400
SCALARS particleColor float 3
LOOKUP_TABLE default
0 0.882017 1
1 0.0109286 0
0 0.637922 1
1 5.96046e-08 0
1 5.96046e-08 0
1 0.928164 0
0.726508 1 0.273492
0 0.545189 1
0 0.82008 1
0 0.898825 1
0.497995 1 0.502005
1 5.96046e-08 0
0 0.941445 1
0 0.340196 1
1 5.96046e-08 0
0 0.534049 1
0 0.491469 1
0 0.600422 1
0 0.846409 1
0 0.65355 1
0 0.539811 1
0.793519 1 0.206481
1 5.96046e-08 0
0 0.270686 1
0.474023 1 0.525977
0 0.88144 1
1 5.96046e-08 0
0.63713 1 0.36287
1 0.639333 0
0 0.464213 1
0 0.686224 1
0.0193337 1 0.980666
0.367796 1 0.632204
0.227635 1 0.772365
0.701614 1 0.298386
0.0350029 1 0.964997
0.291957 1 0.708043
0 0.739795 1
0.865122 1 0.134878
0 0.677866 1
0.602077 1 0.397923
0 0.388753 1
1 0.618415 0
0.0164571 1 0.983543
0 0.731176 1
0 0.187324 1
0.644017 1 0.355983
0 0.514214 1
0 0.46595 1
0 0.781733 1
0 0.891073 1
1 5.96046e-08 0
0.210752 1 0.789248
0 0.527083 1
0 0.970379 1
0 0.474761 1
0.388576 1 0.611424
0 0.620925 1
0 0.826002 1
0.686393 1 0.313607
0.159934 1 0.840066
1 5.96046e-08 0
1 0.842278 0
0 0.550498 1
0 0.597184 1
0.0126733 1 0.987327
0 0.819062 1
0 0.760639 1
0 0.371428 1
0 0.473929 1
0.141229 1 0.858771
0 0.414141 1
0.171576 1 0.828424
0 0.464722 1
0.191225 1 0.808775
1 0.48429 0
0 0.642606 1
0 0.720694 1
1 0.694165 0
0.593465 1 0.406535
0 0.551399 1
0 0.872706 1
0 0.53147 1
0 0.369327 1
0 0.761811 1
0 0.630385 1
0.13098 1 0.86902
0.34268 1 0.65732
0.277904 1 0.722096
0 0.472958 1
0 0.264449 1
0 0.811632 1
0 0.67545 1
0 0.878997 1
0 0.742613 1
0.333506 1 0.666494
1 0.86007 0
0 0.964497 1
1 0.0267724 0
0 0.306437 1
0 0.397558 1
0.176616 1 0.823384
0 0.469265 1
0.674008 1 0.325992
0.303487 1 0.696513
0 0.545992 1
0 0.576788 1
0 0.186189 1
0 0.266117 1
0 0.638319 1
0 0.821363 1
0 0.182252 1
0 0.637846 1
0 0.901332 1
0 0.653106 1
1 5.96046e-08 0
0 0.493196 1
0.0897025 1 0.910298
0 0.554747 1
1 5.96046e-08 0
0 0.656238 1
1 0.995924 0
0 0.83913 1
0 0.896027 1
0 0.191853 1
0 0.390285 1
0.572016 1 0.427984
0 0.413253 1
0 0.686631 1
1 5.96046e-08 0
0 0.395094 1
0.420534 1 0.579466
0.52852 1 0.47148
0.592695 1 0.407305
0.738297 1 0.261703
0 0.438014 1
1 0.338468 0
0 0.702076 1
0.803643 1 0.196357
0 0.306296 1
0 0.410343 1
0.279108 1 0.720892
1 0.517156 0
0 0.906534 1
0 0.419782 1
0 0.334273 1
0 0.239122 1
0 0.805678 1
0 0.324972 1
1 0.461168 0
0 0.55164 1
0 0.760477 1
0.0526163 1 0.947384
0 0.737943 1
1 0.433321 0
0 0.589452 1
0 0.815661 1
0 0.923464 1
1 0.847798 0
0 0.591654 1
1 0.468597 0
0 0.743691 1
0 0.361662 1
0 0.430771 1
1 0.802075 0
0 0.898863 1
0 0.275789 1
0 0.607982 1
1 0.544319 0
1 0.274306 0
0 0.799311 1
0 0.857241 1
0 0.520656 1
0.297855 1 0.702145
0 0.597348 1
0.371844 1 0.628156
0 0.449935 1
0 0.691218 1
0 0.7656 1
0.023712 1 0.976288
0 0.253463 1
1 5.96046e-08 0
0 0.685406 1
0 0.607152 1
0 0.615841 1
0 0.903311 1
0 0.955136 1
1 5.96046e-08 0
0 0.643903 1
0 0.551628 1
0 0.591063 1
0 0.418968 1
1 5.96046e-08 0
0.346959 1 0.653041
1 5.96046e-08 0
0 0.77275 1
0 0.77949 1
1 5.96046e-08 0
0 0.406234 1
0 0.879849 1
0 0.761072 1
0 0.471077 1
0 0.0926212 1
0.037769 1 0.962231
1 5.96046e-08 0
0 0.377511 1
0 0.682587 1
0 0.516573 1
0.0532054 1 0.946795
0 0.295976 1
0 0.703504 1
0 0.551932 1
0.251013 1 0.748987
0 0.963687 1
0.839384 1 0.160616
0 0.496179 1
0 0.57993 1
0 0.562803 1
0.382636 1 0.617364
0 0.903489 1
1 0.9807 0
0 0.619276 1
0 0.60979 1
0 0.420346 1
0 0.787657 1
0 0.406828 1
0.630691 1 0.369309
0 0.597986 1
0 0.648414 1
0 0.674741 1
0.216522 1 0.783478
0 0.347147 1
0 0.504577 1
0 0.852846 1
0 0.826435 1
0 0.866408 1
0 0.770387 1
0 0.976215 1
0 0.457521 1
0.375234 1 0.624766
0 0.2923 1
0 0.762975 1
0 0.75065 1
0 0.602723 1
0 0.501918 1
0 0.930803 1
0.168196 1 0.831804
0 0.703313 1
0.382684 1 0.617316
0 0.632002 1
0 0.346654 1
0 0.876217 1
0 0.405656 1
0 0.911979 1
0 0.660702 1
0 0.449526 1
0.0666533 1 0.933347
0 0.479602 1
0 0.923184 1
0 0.656399 1
0 0.342529 1
0.00557303 1 0.994427
0 0.588745 1
1 5.96046e-08 0
0 0.82169 1
0.563581 1 0.436419
0 0.763024 1
0 0.999613 1
0 0.552493 1
0 0.947169 1
0 0.760418 1
0.415555 1 0.584445
0 0.483808 1
0 0.290534 1
0 0.897292 1
0 0.490366 1
0 0.956739 1
1 5.96046e-08 0
0 0.82105 1
0 0.603924 1
0 0.948797 1
0 0.530723 1
1 0.79511 0
0 0.450016 1
0 0.880014 1
0 0.25246 1
0 0.468143 1
0.207984 1 0.792016
0 0.835815 1
0.00276033 1 0.99724
0 0.465115 1
0 0.991052 1
0 0.728634 1
0 0.608425 1
0 0.474135 1
0 0.528668 1
0 0.434663 1
0 0.257201 1
0 0.878601 1
0 0.218795 1
0 0.928866 1
0 0.566851 1
0 0.52484 1
0 0.882842 1
0 0.454394 1
0.105706 1 0.894294
0 0.917341 1
0 0.689501 1
0 0.455079 1
0 0.823902 1
0 0.983332 1
0 0.336202 1
0 0.857259 1
0 0.909259 1
0.0681057 1 0.931894
0 0.829339 1
0.0230274 1 0.976973
0 0.946326 1
0 0.577626 1
0.212656 1 0.787344
0 0.470049 1
0 0.84892 1
0 0.508806 1
0 0.811486 1
0 0.604498 1
0 0.409123 1
0 0.483137 1
0 0.547948 1
0 0.627661 1
0 0.859041 1
0 0.754232 1
0 0.886579 1
0 0.733348 1
0 0.69721 1
0 0.674658 1
0 0.499354 1
0 0.915962 1
0 0.359738 1
0.0234386 1 0.976561
0 0.503383 1
0 0.989484 1
0 0.486519 1
0 0.803734 1
0 0.599941 1
0 0.557532 1
0 0.666698 1
0 0.467718 1
0 0.300945 1
0 0.867337 1
0 0.208324 1
0.389542 1 0.610458
0 0.493088 1
0.0319012 1 0.968099
0.0373042 1 0.962696
0 0.984625 1
0 0.649811 1
0 0.504976 1
0.129129 1 0.870871
0 0.934585 1
0 0.52448 1
0 0.205723 1
0 0.491127 1
0 0.443786 1
0 0.267984 1
0 0.515181 1
0 0.4416 1
0 0.854189 1
0.346874 1 0.653126
0 0.889817 1
0 0.5929 1
0 0.444757 1
0 0.818492 1
0 0.718451 1
0 0.867199 1
0.141897 1 0.858103
0 0.613334 1
0 0.777514 1
0 0.841162 1
0 0.214439 1
0 0.569189 1
0 0.932793 1
0 0.597955 1
0 0.541695 1
0 0.801416 1
0.0135676 1 0.986432
0 0.640389 1
0 0.275388 1
0 0.341385 1
1 5.96046e-08 0
0 0.746013 1
0 0.932094 1
0 0.38433 1
0.0862544 1 0.913746
0 0.529778 1
0 0.243015 1
0 0.481875 1
0 0.381921 1
0 0.618414 1
0 0.412825 1
0 0.581457 1
