# vtk DataFile Version 3.0
Particle simulation
ASCII
DATASET POLYDATA
POINTS 400 float
0.075875 7.8569 4.54445
1.54164 9.32061 1.88594
6.35204 1.3014 8.418
7.88772 7.21953 0.32615
9.36682 4.2032 7.42301
1.54947 3.05464 0.957105
2.76348 2.81417 0.614485
4.40246 6.57284 9.01358
2.8713 9.7486 7.40103
0.26189 0.355291 4.00663
4.16876 2.27452 5.15962
0.967198 8.36581 6.71586
9.08405 8.62451 2.00402
4.30685 7.22554 6.42232
2.35744 3.09594 8.87202
0.164706 6.35556 9.55726
8.58809 9.68988 7.52344
4.45911 5.3371 9.67859
3.62897 8.04049 7.87568
4.13701 7.68783 1.54602
4.219 9.01823 1.66209
6.24964 3.4463 2.42057
2.46323 9.25193 8.38577
2.17368 2.92422 0.54542
6.87145 8.79035 9.10412
7.9056 3.57464 1.44072
2.12337 7.7592 2.13072
9.36691 2.31277 4.32412
6.85259 2.37462 3.26362
2.71789 2.59157 9.39896
3.22025 0 8.3824
8.49481 5.22257 0
5.86044 0.691854 5.30941
3.03018 2.99599 3.34625
8.99585 1.10707 0.320685
0 1.66488 8.53452
5.99008 10 9.95096
1.08693 5.56593 2.02542
3.1343 2.24762 7.26356
8.34066 9.70209 8.9276
2.58364 5.71736 10
8.88077 10 0.99377
9.12589 1.01705 7.34071
6.16753 1.08006 0.954918
6.32558 6.72148 7.02118
1.74368 3.66152 0.411417
6.23121 7.80305 4.28986
3.85152 4.67641 3.69796
0.900237 1.73083 2.56403
6.05008 5.16763 5.43504
8.47739 7.23222 1.40167
7.36478 0.510779 3.45276
5.96614 6.3334 0.832726
0.293781 6.08139 4.75032
7.93293 6.60348 0.685893
9.62644 9.82175 5.20327
1.59165 2.65032 7.06128
3.61555 1.50523 4.38412
3.35736 9.99616 5.88263
4.24302 7.99487 1.32321
9.09241 3.52007 2.69952
0.854613 4.38373 3.14812
0.938518 6.001 0.0975256
8.90907 1.67879 7.14445
5.91753 3.17158 3.63624
0 2.69152 5.80086
7.88235 0 4.13506
4.47188 5.81362 8.98954
2.68196 3.50143 0.0610881
3.85275 0.878616 7.61081
4.53956 8.84999 2.80898
5.93701 4.1494 2.91915
2.5573 0.955559 6.71028
1.40024 7.52914 2.31345
4.81945 2.08914 6.35892
3.76143 4.81177 3.6187
8.46853 0.761928 8.20299
8.02175 5.49708 8.37098
9.66301 2.57398 9.78202
8.81227 2.00051 1.02783
2.44577 10 1.12607
6.22968 0.595607 9.19312
8.38434 7.84557 6.60651
6.14625 8.81133 5.75183
1.29812 2.18342 5.42749
3.00908 1.50953 3.63706
0.855576 6.91554 8.31204
5.1807 0.596937 1.97242
8.74511 9.83804 5.5462
0.0507263 2.62519 4.47985
9.77745 7.34349 7.00504
4.66014 0.314884 9.59728
0.585138 9.10588 5.63796
9.63326 9.06529 0.731263
6.37087 1.31168 3.92843
9.75896 0.824973 2.98647
9.00354 0.324253 6.75515
7.2005 3.42997 7.17099
6.17122 0 3.57215
1.02407 5.93961 9.28085
1.06191 0.457713 1.55421
6.34736 2.3336 8.6538
5.15726 2.89499 6.9161
2.2018 7.77079 2.59564
2.43296 3.84569 0.585914
0.64573 5.24817 9.29181
7.05662 4.75075 4.03026
5.51251 3.11269 8.17948
6.77914 5.47508 4.25082
0.432697 1.13612 4.54629
2.32007 3.41784 4.76526
6.6313 1.09584 4.55988
5.58791 9.50347 3.67147
10 0.197842 4.95958
3.87255 2.54759 9.65748
6.75549 2.64338 6.96736
1.23069 1.37039 2.35785
5.26655 5.04268 4.29263
1.03912 5.29589 8.67154
7.40601 6.84882 6.36015
6.85281 4.39777 8.68815
7.72906 5.11465 8.05529
8.47963 4.01464 8.26193
1.95737 0 3.14037
6.77417 8.95415 0.278133
4.01982 9.55838 3.24211
4.19204 6.09386 2.90992
5.46199 2.28097 8.18376
1.9687 5.76337 7.51743
7.79791 0.600146 10
4.3877 8.83326 0.158995
6.62109 2.15502 0.153197
5.22501 3.86043 3.32918
3.49746 2.1918 0.510596
1.10024 6.00516 8.56729
1.19366 1.72982 9.96736
4.30188 5.15572 7.63046
5.98196 7.06813 3.49976
0.754923 0.146349 5.04866
2.03568 8.41728 3.03431
6.24503 0.567572 5.50323
4.69693 5.68284 3.39646
8.90304 4.95787 2.52572
3.01084 8.86267 9.53835
2.4876 3.40747 3.40463
3.53605 0.295904 9.52862
0.517543 9.839 6.42303
5.94197 2.62103 9.48918
6.7542 8.0358 9.55361
7.58145 6.28635 0.377028
6.15445 0.297415 5.88568
4.91268 3.4421 7.18419
3.4691 5.70062 9.73401
8.25871 8.49099 2.87838
7.23878 1.58146 2.30323
3.46121 7.3782 1.02044
5.93893 7.12007 0.102607
2.47265 8.99188 9.1045
7.1367 1.62856 6.8186
9.03004 3.06769 0
8.54272 1.37504 4.52262
0.342691 9.04802 2.58438
0.342689 4.21207 8.12999
9.07724 3.97535 8.22268
0.469851 7.88946 7.19152
5.98018 0.975069 3.40178
2.98998 4.14257 7.72636
3.34688 4.0837 1.2124
7.87533 8.07956 7.67085
9.04239 3.16933 0.48298
5.16214 2.64277 2.26205
1.1582 10 3.09184
8.10217 3.54757 4.19874
9.50526 0.524368 7.99412
0.975301 4.74375 2.93527
9.3738 1.3633 2.14203
7.60122 0.829423 6.99592
0.766257 4.33532 8.14882
9.02817 10 5.34841
5.6295 1.80668 9.3826
9.89086 0.58674 5.09408
1.45733 5.24612 2.54021
8.04866 7.31475 8.38482
9.09581 2.65561 9.29576
8.66167 9.12081 2.84913
1.79269 2.46037 6.59827
6.33395 0.369121 5.78354
7.1465 1.90998 6.51708
2.53948 7.40445 0.956769
9.05304 8.26083 0.704534
0.597207 7.18279 0.946225
0.283597 9.64163 7.31659
0.545542 8.55595 7.87461
9.98517 0.244278 2.5286
9.52166 9.09644 1.5113
0.224659 5.13309 6.61754
0.433312 6.068 5.35011
6.18502 9.59088 2.25605
9.85927 0.108273 8.36277
3.31909 7.9268 5.05221
6.10324 0.359812 5.77238
0.204962 0.48313 3.69075
7.14334 2.53681 6.00651
0.563834 6.59519 6.11842
4.11394 2.77277 6.40212
5.62496 5.89108 2.35093
1.21158 8.13118 10
6.21109 9.76613 5.72784
1.86291 7.38075 1.78498
9.78406 2.40211 5.86008
6.27263 0.537775 5.40133
9.46814 8.70285 2.52698
8.40132 2.51713 7.33455
0.772419 3.37506 0.132054
6.49174 3.13313 9.5886
5.12953 9.90285 7.23259
8.89549 0.499997 4.68523
0.585421 4.29584 1.10164
7.24434 0 3.28056
1.73553 0.705864 9.607
7.27418 9.41618 2.77109
3.06809 10 1.48001
1.91221 9.73994 7.55096
9.027 0.63107 4.69541
4.54068 5.40051 2.46265
4.74091 7.68995 3.0842
8.97709 8.2219 0.359412
1.37716 3.91822 7.85681
6.40215 0.509283 5.60525
9.15155 1.16947 2.26023
1.32669 9.93987 4.94281
0.318413 6.37255 0.930355
3.13197 8.54566 4.90671
3.06286 5.75806 7.9145
3.78503 0.582043 3.83051
5.85637 0.214365 7.44764
9.2893 1.3238 2.07463
2.67882 2.02067 6.98079
6.26619 0.423136 5.60115
2.46334 1.26611 9.58865
8.79205 0.470448 4.71767
7.38852 7.26174 7.32734
1.32129 3.95156 2.24961
5.73067 4.16267 0.943351
8.73044 1.44193 3.94243
9.1892 5.43377 3.99045
9.35301 6.9748 9.74225
3.53161 0.171381 4.1725
0.818297 9.02343 9.74901
8.73295 0.978577 6.18883
8.75979 0.338406 4.66154
6.37235 4.46331 9.91306
0.837502 1.70206 7.64225
10 2.23352 0
6.31355 6.22909 1.15284
9.34027 5.70067 6.13564
3.76604 0.716709 9.40174
3.09362 0.0668823 9.31936
1.06166 7.51286 6.4778
1.62464 7.14015 1.29961
6.45428 8.14141 3.94639
3.46264 4.36614 0.88483
7.01909 3.77051 4.72975
1.69163 1.08641 5.60271
7.73565 6.49354 4.60727
5.86594 4.39331 6.59887
1.00669 4.0069 1.87389
5.29106 3.11151 2.54195
7.90074 1.43806 2.21014
6.49106 3.83003 6.25884
6.67366 0.929082 6.01392
7.13475 1.9852 7.82323
5.86568 2.55558 0
0.714707 10 3.95803
3.0769 7.11613 0.0493557
7.50352 0.997461 7.68375
1.5456 6.32496 8.24294
9.58123 0.41012 3.57396
8.54744 2.79505 1.08715
6.03646 0.35436 5.78804
4.83795 8.07617 9.40133
3.5869 4.47316 0.722147
1.3363 3.29631 6.93991
9.223 0.185004 0.140738
0.223833 10 10
2.1733 8.72526 0.902208
4.59533 3.17657 6.45494
6.2706 0.522558 1.8299
3.09276 0.309219 5.02449
1.40625 1.93171 3.62897
2.09004 4.48284 1.46194
0.689546 5.90345 9.03809
7.75066 0.626164 7.1482
9.47838 5.10078 2.49356
10 1.47841 8.61175
0.58674 0.478234 8.76513
5.99109 0.203672 6.01871
6.05832 0.193752 5.55899
6.09795 0.0541461 6.08671
5.80993 0.445549 5.30856
2.00784 1.30147 3.4367
4.05606 5.78716 7.08778
6.19056 0.171588 5.71721
3.87125 8.29549 5.78351
6.48573 0.872265 5.32837
2.08026 5.39712 5.94375
6.10105 0.298405 5.8666
6.14132 0.443692 5.77814
5.43926 0.832818 3.3621
1.91527 3.23053 2.63276
3.40011 6.64385 6.32995
2.72802 8.14946 0.643433
3.26406 1.50069 2.20697
6.56049 0.645376 5.71586
1.81621 10 9.57831
9.36968 6.74178 0.0292745
1.3008 5.26988 8.35378
6.0369 5.02982 4.47199
1.46236 6.1048 8.49112
3.62589 8.54102 0.613512
5.89412 10 5.75564
6.04281 8.30842 4.01352
0.459389 0.533517 8.60911
6.27626 0.590263 5.71317
5.92939 0.197515 5.70064
2.66122 7.89936 4.42607
5.77808 0.464995 5.55712
1.85408 7.48992 2.00801
4.72103 0.972447 8.83998
6.30282 0.435173 5.53418
4.8029 3.49566 9.30589
2.53657 2.43962 3.52657
9.19876 5.59209 4.38067
8.36726 3.86375 8.55758
10 1.79972 7.06886
7.73177 5.97689 5.06685
9.29807 4.72429 3.7387
6.35424 0.503528 5.6556
3.14836 6.98172 2.7399
7.60273 4.15641 9.43166
9.04973 4.85518 6.06807
6.86086 5.11004 0.511242
2.5192 0.62607 1.13039
0.557612 0.492459 8.51854
5.95809 0.579896 5.28992
6.84761 0.371566 5.76837
9.42078 0.801808 9.7317
6.06297 0.325944 5.76411
6.46944 0.0465319 5.71752
9.54613 2.37398 7.03709
6.50496 0.0949611 5.28024
6.06943 0.478779 6.02466
5.72526 5.2327 8.13274
8.8834 0 3.52251
1.11011 1.60682 4.242
6.42193 0.276982 5.75431
0.376247 5.17176 9.57866
3.00992 0.302335 4.43588
6.23329 0.28243 5.30184
6.36356 0.672968 5.74597
4.68852 4.79688 1.0628
0.689739 0.332483 8.56539
0.688675 0.544381 8.66402
6.58289 0.757757 5.63304
6.05418 0.315081 5.41277
4.66544 2.18588 4.74936
0.455331 0.437377 8.61583
6.84093 0.469602 0.705365
0.924562 0.477549 8.33292
8.81055 10 9.20252
9.72002 0.657504 9.18323
5.65778 3.90208 9.68003
1.61553 4.14511 1.58667
5.78893 0.407042 6.0088
6.27411 0.467232 5.90387
9.3746 0.972392 9.77994
0.381703 0.440328 8.69431
1.95015 0.703467 9.99611
9.03281 0.102683 7.52787
8.78591 0.539047 4.88753
6.31679 0.668962 5.94679
6.39977 0.355491 5.81964
7.37759 4.69133 9.39769
6.51487 0.723663 5.49998
3.75145 8.00439 1.87242
0.589957 0.513504 8.73118
5.87569 0.549013 5.46685
5.88861 0.293575 5.66603
9.14086 8.06542 1.15346
0.503513 5.77475 5.49331
6.15138 0.158716 5.61309
6.3945 0.319206 5.51663
2.06004 0.5012 9.67668
6.43772 0.618185 5.3553
5.54435 0.628723 9.56761
3.14716 0.0785844 9.1711
6.22221 0.560678 6.07853
2.65172 0.940151 9.51014
0.301946 5.80999 7.55647
0.287228 8.88128 5.9806
POINT_DATA 400
SCALARS particleColor float 3
LOOKUP_TABLE default
1 5.96046e-08 0
1 5.96046e-08 0
0.786592 1 0.213408
0 0.3082 1
1 0.055496 0
1 5.96046e-08 0
1 5.96046e-08 0
1 0.792397 0
1 5.96046e-08 0
0 0.835629 1
0.900921 1 0.0990787
0 0.513746 1
0.464389 1 0.535611
1 0.671422 0
1 0.739064 0
1 0.212194 0
1 0.120782 0
1 5.96046e-08 0
0.934929 1 0.0650715
0.997968 1 0.00203198
1 0.779151 0
1 0.441727 0
1 0.647342 0
0.329313 1 0.670687
0.606481 1 0.393519
1 5.96046e-08 0
1 5.96046e-08 0
0.407695 1 0.592305
0.97104 1 0.0289599
0.172468 1 0.827532
1 0.61291 0
1 5.96046e-08 0
1 0.275339 0
1 5.96046e-08 0
1 5.96046e-08 0
1 5.96046e-08 0
0.175439 1 0.824561
0.173046 1 0.826954
0.969949 1 0.0300509
0.304976 1 0.695024
1 5.96046e-08 0
1 5.96046e-08 0
1 0.522269 0
0.781854 1 0.218146
1 0.967846 0
0.485627 1 0.514373
1 5.96046e-08 0
1 5.96046e-08 0
1 0.0657004 0
1 5.96046e-08 0
1 5.96046e-08 0
1 5.96046e-08 0
1 5.96046e-08 0
0.91483 1 0.0851696
1 5.96046e-08 0
1 0.508773 0
1 5.96046e-08 0
1 0.692207 0
1 5.96046e-08 0
0 0.703183 1
1 5.96046e-08 0
1 0.498712 0
1 5.96046e-08 0
1 0.226798 0
1 5.96046e-08 0
1 5.96046e-08 0
1 0.474843 0
1 0.39704 0
1 5.96046e-08 0
1 0.948395 0
1 5.96046e-08 0
1 5.96046e-08 0
1 0.922512 0
0.062174 1 0.937826
0.940452 1 0.0595485
0.325783 1 0.674217
1 5.96046e-08 0
1 0.980533 0
1 0.957569 0
1 0.811463 0
0.893224 1 0.106776
1 5.96046e-08 0
0 0.653669 1
1 0.472802 0
0.867973 1 0.132027
0 0.233141 1
1 0.71184 0
1 0.315995 0
1 0.343095 0
0.309096 1 0.690904
0.556929 1 0.443071
1 0.086358 0
0.872294 1 0.127706
0.629164 1 0.370836
0.686369 1 0.313631
1 5.96046e-08 0
1 0.63057 0
0 0.631845 1
1 5.96046e-08 0
0.393094 1 0.606906
0.559585 1 0.440415
1 0.200502 0
1 5.96046e-08 0
1 0.094521 0
0.48152 1 0.51848
1 5.96046e-08 0
1 5.96046e-08 0
0.585966 1 0.414034
0.346062 1 0.653938
0.374477 1 0.625523
1 0.87204 0
0.0614964 1 0.938504
1 0.210404 0
0.880278 1 0.119722
0.704823 1 0.295177
1 0.0807523 0
1 5.96046e-08 0
1 5.96046e-08 0
1 0.596205 0
1 0.821654 0
0.35271 1 0.64729
1 5.96046e-08 0
0.648725 1 0.351275
1 5.96046e-08 0
0.840979 1 0.159021
1 5.96046e-08 0
1 0.748247 0
1 0.512505 0
1 0.523626 0
1 0.360264 0
1 5.96046e-08 0
1 5.96046e-08 0
0.0423116 1 0.957688
1 5.96046e-08 0
0.503465 1 0.496535
1 0.641017 0
1 5.96046e-08 0
1 0.943574 0
0 0.666357 1
1 0.00483668 0
0 0.183461 1
1 5.96046e-08 0
0.196256 1 0.803744
1 0.18017 0
1 5.96046e-08 0
0 0.905822 1
0 0.784465 1
1 5.96046e-08 0
1 0.817986 0
1 5.96046e-08 0
0 0.809559 1
1 5.96046e-08 0
1 0.664423 0
1 5.96046e-08 0
0.304407 1 0.695593
0.504519 1 0.495481
1 0.757885 0
1 0.386305 0
0.44661 1 0.55339
0.748992 1 0.251008
1 0.979648 0
1 5.96046e-08 0
1 0.188887 0
1 0.777157 0
1 0.348222 0
0.123985 1 0.876015
1 5.96046e-08 0
1 0.879032 0
0 0.742957 1
0.241555 1 0.758445
1 5.96046e-08 0
1 5.96046e-08 0
1 0.953156 0
1 5.96046e-08 0
1 5.96046e-08 0
1 0.252279 0
1 0.684875 0
1 5.96046e-08 0
0.623773 1 0.376227
0.790834 1 0.209166
1 0.155465 0
1 0.564311 0
1 0.531017 0
1 5.96046e-08 0
1 5.96046e-08 0
1 5.96046e-08 0
0 0.80454 1
0.730386 1 0.269614
1 5.96046e-08 0
1 0.3071 0
1 5.96046e-08 0
1 5.96046e-08 0
0 0.89594 1
1 0.247109 0
1 5.96046e-08 0
1 0.267661 0
0 0.761109 1
0.0233007 1 0.976699
0.592569 1 0.407431
1 0.0819782 0
0 0.445135 1
1 5.96046e-08 0
1 0.99562 0
1 5.96046e-08 0
1 5.96046e-08 0
1 5.96046e-08 0
1 5.96046e-08 0
1 0.48818 0
1 0.828494 0
1 5.96046e-08 0
0 0.479813 1
1 5.96046e-08 0
1 5.96046e-08 0
0.143009 1 0.856991
1 0.920104 0
0.866756 1 0.133244
0.21501 1 0.78499
1 0.992776 0
1 5.96046e-08 0
1 5.96046e-08 0
1 0.881306 0
1 5.96046e-08 0
1 0.685832 0
0 0.651129 1
1 5.96046e-08 0
0.930216 1 0.0697837
1 5.96046e-08 0
0 0.938193 1
0 0.256593 1
1 0.678327 0
1 0.0946882 0
0.820066 1 0.179934
0.296533 1 0.703467
0.233493 1 0.766507
1 5.96046e-08 0
0.757207 1 0.242793
0 0.614717 1
0.822447 1 0.177553
0 0.380928 1
1 5.96046e-08 0
0 0.399079 1
1 5.96046e-08 0
1 0.264483 0
1 5.96046e-08 0
0.50364 1 0.49636
0 0.827081 1
0.00838547 1 0.991615
1 5.96046e-08 0
1 0.976015 0
0.756534 1 0.243466
0 0.691577 1
1 5.96046e-08 0
1 0.905679 0
1 5.96046e-08 0
1 5.96046e-08 0
1 5.96046e-08 0
1 5.96046e-08 0
0 0.688517 1
1 0.210608 0
0.96255 1 0.03745
0 0.91543 1
1 5.96046e-08 0
1 5.96046e-08 0
1 5.96046e-08 0
0 0.64432 1
0 0.797721 1
0.252594 1 0.747406
1 5.96046e-08 0
1 5.96046e-08 0
1 0.0616413 0
0 0.681805 1
0.579705 1 0.420295
1 0.40876 0
0 0.838396 1
1 5.96046e-08 0
0.971179 1 0.028821
1 5.96046e-08 0
1 5.96046e-08 0
1 5.96046e-08 0
0 0.423036 1
1 5.96046e-08 0
1 0.554226 0
1 5.96046e-08 0
0.553863 1 0.446137
1 5.96046e-08 0
0.598721 1 0.401279
0.271446 1 0.728554
1 5.96046e-08 0
0.380436 1 0.619564
0.42633 1 0.57367
1 5.96046e-08 0
1 5.96046e-08 0
0.705186 1 0.294814
0.253573 1 0.746427
1 5.96046e-08 0
0 0.59785 1
0 0.204767 1
0 0.442272 1
0 0.314519 1
0 0.788643 1
1 0.983379 0
1 5.96046e-08 0
0 0.584562 1
1 0.00192827 0
0 0.417281 1
0.470635 1 0.529365
0 0.618017 1
0 0.585778 1
1 0.382361 0
1 5.96046e-08 0
0.411793 1 0.588207
0.809277 1 0.190723
1 5.96046e-08 0
0 0.987416 1
1 5.96046e-08 0
1 5.96046e-08 0
1 5.96046e-08 0
1 0.181464 0
0.110836 1 0.889164
1 5.96046e-08 0
1 5.96046e-08 0
0.362013 1 0.637987
0 0.34254 1
0 0.550192 1
0.286294 1 0.713706
0.137111 1 0.862889
0 0.60427 1
1 0.52575 0
1 0.983086 0
0 0.746697 1
0.547431 1 0.452569
1 0.363766 0
0.879098 1 0.120902
1 0.526583 0
1 5.96046e-08 0
1 5.96046e-08 0
0.597192 1 0.402808
0 0.607262 1
1 5.96046e-08 0
1 0.974374 0
1 5.96046e-08 0
0 0.875302 1
1 5.96046e-08 0
0 0.567236 1
0 0.968384 1
0.0539895 1 0.94601
0.236383 1 0.763617
0 0.814266 1
0 0.894506 1
1 5.96046e-08 0
0 0.982011 1
0 0.966015 1
1 5.96046e-08 0
1 0.886778 0
0.477831 1 0.522169
0.240376 1 0.759624
1 0.0200937 0
1 5.96046e-08 0
0 0.473167 1
0 0.97901 1
0 0.850427 1
0 0.724171 1
0 0.432891 1
0 0.406205 1
0 0.741627 1
1 5.96046e-08 0
0 0.354063 1
1 0.853805 0
0.154107 1 0.845893
1 5.96046e-08 0
0 0.587475 1
0.84672 1 0.15328
0.806749 1 0.193251
0.0858615 1 0.914138
0.0104865 1 0.989513
0 0.536919 1
0 0.11584 1
0.380575 1 0.619425
0.346758 1 0.653242
0 0.779998 1
0 0.644156 1
0 0.50436 1
1 0.382007 0
0 0.537789 1
1 5.96046e-08 0
0 0.721952 1
0 0.21879 1
0 0.640636 1
1 5.96046e-08 0
0.374821 1 0.625179
0 0.386042 1
0 0.824689 1
0.0440979 1 0.955902
0 0.44809 1
1 5.96046e-08 0
0 0.771272 1
0 0.375854 1
0.269019 1 0.730981
1 0.763832 0
0.494948 1 0.505052
