# vtk DataFile Version 3.0
Particle simulation
ASCII
DATASET POLYDATA
POINTS 400 float
7.89971 6.63057 1.71006
9.31278 5.8799 0.263239
7.7737 6.6438 8.52747
0.495861 3.02658 9.8559
1.45992 2.84019 3.5681
3.70658 6.96054 9.58749
5.5633 4.99897 4.87578
9.24156 9.58467 3.10446
0.928728 2.82096 3.66652
8.26547 0.659773 6.29062
8.28563 1.89675 7.68836
5.48122 8.54349 6.56722
4.69046 8.61302 3.16877
9.6805 8.54857 0.270722
8.17046 2.29407 4.24823
7.9163 0.38335 0
4.43212 8.1274 2.79257
0.72747 4.73688 5.18444
8.53544 8.17848 4.13653
3.40475 1.39634 2.69981
3.4706 1.956 5.55062
8.05502 8.92079 2.52412
1.33999 7.73686 6.20737
8.09451 3.18052 3.22752
8.72939 9.78189 0.778352
0.274229 0.646634 8.70066
4.97316 4.36374 9.16185
4.28872 8.35883 1.12029
6.46063 2.03146 6.399
4.54356 9.82105 6.61242
2.10393 3.80418 1.668
4.16564 9.50817 6.77656
4.82412 7.54682 5.80467
8.27746 8.61285 9.01515
5.77155 4.93787 8.33921
8.81468 3.8434 9.25168
4.59095 9.70864 2.33003
6.85537 0.369165 5.48585
0.410291 0.998278 6.5154
8.61228 1.49485 2.35441
5.10899 3.6452 2.9233
4.67858 4.94343 6.24045
8.94464 1.68533 8.10416
4.21681 5.45562 9.61999
6.10427 8.18057 6.20958
6.72451 3.89618 10
5.82172 4.79002 3.27483
9.76188 3.2872 1.93077
0.865839 7.32112 4.81188
8.45581 9.611 3.7999
0.693512 8.82641 1.94367
5.9854 2.62442 2.43625
3.88879 5.25062 3.06224
8.87673 9.84272 3.91047
8.76104 9.67838 3.08793
7.73493 5.85489 4.50665
6.93625 5.50548 1.42189
0.397614 6.38567 7.02413
0.300719 2.88057 9.24656
7.70038 4.73172 0
1.43719 3.23517 9.45942
1.36065 8.38121 5.47804
7.72312 5.56283 4.14244
2.69976 10 5.31576
0.369469 7.86068 9.3609
1.61377 0 2.4095
2.8091 9.65817 8.74722
4.84448 1.16813 1.47943
5.0381 0.0413279 1.15271
7.7623 0.752139 9.20285
6.49686 0.519123 2.20829
10 9.81444 9.35327
8.43374 6.59241 8.99964
3.89054 7.02294 2.9099
4.34501 7.33236 8.82626
7.8099 6.72005 1.55968
0 2.22397 7.45069
5.80837 2.71953 5.9026
1.26182 3.61645 0
9.7248 1.34585 8.74278
3.65997 2.40501 6.67911
8.55072 5.67977 1.70709
7.91782 0.696105 5.70048
1.07481 1.29766 8.78926
1.1504 1.47701 3.48127
9.99338 1.83737 1.29638
5.07404 8.22931 7.44573
0.640033 9.17683 0.905328
2.36292 2.01973 2.0753
8.45016 0.532009 9.42088
9.6819 7.55987 3.71756
8.43727 2.25461 8.48221
4.36922 7.69902 7.34434
0.585827 4.77106 6.2291
9.7133 2.50167 7.59925
6.90148 7.41869 5.5011
1.92376 5.45328 1.74565
2.79059 2.54381 2.22881
9.81347 2.76765 3.32311
7.41397 4.85678 6.20312
8.62214 5.8956 7.03956
8.52565 5.47738 9.60498
10 9.31253 5.5293
5.80421 2.3196 9.52748
5.64558 0.172993 7.57476
7.11107 7.09586 6.36619
5.17165 6.41334 7.19196
1.97064 4.04644 4.80804
3.25835 1.17688 1.48639
1.25489 8.51305 3.53669
2.62379 8.1709 6.56076
1.97971 8.59523 4.86037
9.76783 6.27316 7.90332
4.80111 2.41511 3.55798
7.99247 1.43174 6.53335
8.46329 3.26997 7.1377
1.67509 8.46756 0.0851277
3.15543 3.87246 1.68807
6.45096 3.97483 4.97554
9.75785 0.222695 2.15358
9.89789 9.3727 1.50609
7.82278 0.711638 4.25321
4.45622 4.023 9.28224
2.44831 9.23711 9.86908
7.02329 7.68167 1.11176
4.96676 5.88248 4.3067
6.21675 0.14399 6.95806
2.4919 5.34224 8.77583
4.14467 1.81615 5.37602
5.45623 1.26436 8.19907
5.82231 5.24008 4.39499
9.5094 9.3901 6.9573
2.40509 3.21117 5.85152
5.27788 0.140023 1.28679
1.91871 9.07825 6.69407
8.10552 2.39416 9.47511
1.93804 4.91238 3.94049
7.30988 4.41951 7.272
7.85888 1.09481 0.801724
9.29948 9.21935 4.95157
3.05401 5.08061 2.94215
8.60646 2.75904 7.29334
7.95427 7.16413 0
6.28561 6.28766 9.17929
7.1806 0.0662884 1.84704
0 9.53401 5.53705
0.555583 9.35625 2.23306
6.8484 0 9.71156
7.82132 0.706721 8.33624
4.11246 1.44936 7.6883
6.84041 0.456863 7.75203
9.75688 3.41321 4.23127
6.13479 4.07125 4.96606
1.51243 9.72533 4.54143
1.02435 5.92011 9.55915
1.93658 2.03694 0.526085
2.22062 5.71232 4.69239
10 5.58647 4.46129
0.0182312 7.28257 3.173
10 4.60885 5.83456
0.346803 4.41725 7.19524
9.11983 0.554923 9.70827
4.50276 8.4848 7.2294
8.73303 0.667804 8.59456
2.35217 4.99192 4.70283
9.64151 4.00074 6.93201
7.91784 7.38295 4.89203
5.74819 8.08111 4.32653
2.62624 6.96239 1.39075
1.241 8.6435 3.21711
8.3791 2.91373 8.58094
7.37046 1.36286 8.27981
6.72843 3.1795 1.54499
0 9.92805 1.01103
10 7.52963 7.42302
6.68247 9.58431 5.02134
3.98232 6.85474 9.78577
0.603178 2.26066 0.640632
9.6497 6.0715 1.25976
6.50308 6.06243 8.09832
6.41321 0.680001 7.66966
8.93781 0.582857 9.22561
3.49193 2.97188 9.28234
4.01394 0.767372 8.94186
5.82477 9.90206 2.47998
2.26814 3.41403 8.75314
3.52101 9.245 6.07322
2.2338 5.34689 3.52967
8.64994 8.92516 8.85298
7.48598 8.40917 0.0452853
0.590275 7.88148 4.73849
9.70273 0.490641 1.84164
1.66132 7.04981 7.14777
9.86622 8.65458 3.68663
8.92517 3.82282 8.36757
2.38571 1.30762 8.69827
2.42631 9.25136 7.5909
6.89325 3.77821 1.48937
2.28895 3.58935 6.45629
2.65603 0 5.06627
1.31903 5.51365 8.09262
4.74185 6.74763 0.945186
4.45093 6.71615 1.98228
3.08206 9.62424 8.84255
0.0240069 2.76731 1.97223
5.61858 5.84583 0.428934
0.715978 2.08179 0.984909
7.1337 3.04931 7.88188
8.93777 4.64991 7.04542
7.117 2.03885 5.37183
0.731088 0.249718 9.96799
0.715315 9.06859 9.06476
4.44313 8.72271 9.6737
8.99895 4.7807 5.41271
4.8393 3.73072 2.29465
2.08925 5.32438 7.63493
4.16878 6.47846 0.742103
3.82358 4.88388 3.95814
6.83093 2.32027 9.77149
2.38379 3.28918 0.273414
0.8556 5.4788 9.10983
0.86073 3.97406 7.45559
8.49237 4.02555 2.04995
7.34022 8.55683 8.67057
3.44861 8.25285 1.81854
7.71985 5.31602 4.00388
0.611697 5.55676 7.33337
1.19286 5.59281 8.66731
7.0011 0.197577 7.41131
8.42807 9.76564 7.43014
7.22135 2.6026 5.34505
9.49102 4.95778 0
5.54831 9.45612 8.39095
1.84176 10 2.06253
9.22758 3.03648 2.58223
5.22806 4.40596 0.249053
4.53578 3.04373 6.87945
6.35416 0.0333681 1.52887
2.88118 9.69371 8.91844
0.972673 5.386 5.84283
6.79217 0.0551646 7.81844
9.43943 3.07635 2.84875
0.692668 7.86456 3.53753
7.14424 5.4854 2.55115
9.81976 9.04114 3.86604
5.16801 0.920794 4.51146
9.36217 0.186862 4.40493
0 5.72372 8.52534
0.290678 5.88496 9.29289
0.693324 2.0825 1.23853
5.04273 1.45869 8.39671
2.82703 0.482528 3.32458
0.422089 0.21219 0.484996
8.72028 6.87459 3.90327
3.02837 0.307288 8.52552
0.175924 6.05813 5.48158
2.72044 1.66289 4.19765
8.43546 1.40889 6.16235
9.08373 3.18076 3.50367
7.48407 1.60746 4.81706
7.59326 5.90135 6.71001
5.24102 8.37763 3.43304
1.79138 1.09385 9.82986
8.80079 6.33483 2.80348
9.22027 6.0746 7.09267
1.27751 0.790197 4.97515
7.6768 9.45679 6.92031
0.639507 0.596253 1.2856
1.6627 2.81511 0.990382
0.27284 4.85622 0.91737
3.1257 1.39659 8.84055
2.41413 5.28214 7.38303
0.0568506 1.92826 10
3.04743 0.162607 7.93273
4.52983 7.57676 3.44187
8.37357 2.18533 6.11019
8.25748 6.79531 0.138796
9.73061 9.86252 3.96408
1.75795 8.42225 2.77042
8.5173 2.7891 10
0.859455 6.74441 4.96775
8.32141 2.17799 1.54453
4.47548 4.2546 4.63491
9.17159 2.8293 6.68477
0.968826 1.83163 7.3118
4.99781 0.576747 8.11882
0.227776 2.25075 6.27923
6.16766 0.36354 4.24716
5.77657 3.66038 0.443574
5.41374 2.39747 5.88082
9.78681 7.53351 3.63025
9.76836 6.80089 0.25429
5.49466 9.69075 7.28835
8.91406 6.29644 9.43095
9.53107 1.71855 1.67302
5.29446 1.66068 6.60157
0.899742 3.04528 9.92223
1.44438 2.49462 2.47154
7.00133 0.0916252 7.83679
1.79295 0.805543 1.6613
7.20208 0.614113 0.580671
1.15391 4.11864 4.55009
6.74678 0.852518 4.11567
5.68303 0.360453 0.423626
6.73217 0.510979 7.60203
4.52062 2.38142 4.55595
2.25299 7.79197 3.51127
7.45367 0.382014 7.7451
9.29648 3.34246 4.85227
3.23326 0.309034 3.05717
2.18826 9.2187 6.61288
0.946407 0.480081 10
6.08503 9.89584 4.63893
6.20107 0.968105 6.23258
8.15697 2.51453 3.59313
0 3.35153 1.31849
4.23261 2.71262 0
6.49085 0.687406 4.30337
5.72621 8.22568 6.52025
2.23782 4.26476 4.31392
4.12497 9.8524 1.9182
8.85353 2.73655 3.94988
1.36231 7.88891 3.80693
6.87168 0.569103 4.48315
6.80152 0.368465 7.7266
4.24684 6.27344 6.03666
3.53363 7.60632 4.36367
0.373564 7.03735 3.89161
6.81675 1.51137 7.20786
6.83777 0.243857 7.56974
3.49428 1.31301 9.82559
1.87069 0.897516 1.57881
9.06423 3.92542 8.2456
4.3254 3.70654 9.59564
9.35387 7.47712 9.68095
3.60361 1.85342 4.68009
0.609275 4.05244 7.57779
6.75376 0.51189 7.80675
2.96911 6.78051 1.37951
1.83942 7.3403 4.47208
3.80386 3.411 5.3814
7.08138 5.13897 0.943386
1.33176 8.46621 0.750502
1.08584 1.66291 9.52576
1.45342 2.72813 0.599122
9.97173 5.32242 0.047944
1.70254 0.313788 2.49754
8.86839 2.15489 2.20319
6.71426 0.335551 7.61626
5.29862 5.1524 0.53113
6.76367 0.102462 8.37266
7.26887 0.398803 7.3985
9.22822 5.71245 7.2405
6.00681 7.05765 3.9344
7.09251 1.17089 0.962831
6.81194 0.353692 7.57439
3.70281 7.41485 5.54723
1.70667 1.62926 1.52942
6.6542 0.583388 5.41958
6.71575 0.234482 7.75388
4.46942 9.08751 3.78139
6.71794 9.54024 4.28868
3.38802 2.54592 9.76998
6.98465 0.244423 7.72196
7.42402 4.30478 1.43503
3.95983 2.7881 1.31045
3.3872 2.21216 9.54779
1.91158 3.60407 5.69618
0.391957 1.35437 6.64148
3.44855 2.5181 9.76816
1.46882 0.235152 2.38917
5.9161 6.40736 6.78616
9.46504 7.41202 5.77529
7.02137 0.364758 7.74402
6.9868 0.568167 7.70226
9.22669 5.54462 5.76621
3.39208 2.24042 9.72266
7.05434 0.503406 4.68292
9.48298 4.35705 0.954725
6.98465 0.531769 7.7923
6.7581 1.60715 9.77876
6.63308 0.25993 7.85743
0 2.42212 6.70416
7.02678 0.21187 7.65981
2.73016 6.90503 0.604868
3.35526 2.27224 9.63591
6.57706 0.341007 7.74662
6.88355 0.262389 7.87324
10 2.00821 5.69875
8.67261 9.4181 9.02221
6.92775 0.407204 7.54045
6.89589 0.356377 7.51952
1.47501 4.65503 5.68065
6.97608 0.331471 7.81979
1.03684 2.0975 6.64476
5.79515 2.3944 1.10999
6.8972 0.236938 7.56243
8.58139 2.20062 6.35464
8.78582 9.202 9.40415
8.22743 0.0302402 1.23803
POINT_DATA 400
SCALARS particleColor float 3
LOOKUP_TABLE default
1 0.759337 0
1 0.586857 0
0.67724 1 0.32276
1 5.96046e-08 0
0.129903 1 0.870097
0.170019 1 0.829981
1 0.613313 0
0.566663 1 0.433337
0 0.75345 1
1 5.96046e-08 0
0.187872 1 0.812128
1 0.859654 0
1 0.377281 0
1 0.281437 0
1 0.829593 0
1 5.96046e-08 0
1 0.147722 0
0.861336 1 0.138664
0 0.970921 1
1 5.96046e-08 0
1 5.96046e-08 0
1 5.96046e-08 0
1 5.96046e-08 0
0.816145 1 0.183855
0.41989 1 0.580109
1 5.96046e-08 0
1 5.96046e-08 0
0.954578 1 0.0454216
0.917848 1 0.0821518
1 5.96046e-08 0
1 5.96046e-08 0
1 0.344308 0
1 0.92871 0
0.075207 1 0.924793
1 0.582693 0
1 0.792915 0
0.493605 1 0.506395
1 0.223783 0
1 0.338982 0
1 5.96046e-08 0
1 5.96046e-08 0
0.828762 1 0.171238
1 0.707545 0
1 0.28671 0
0.754081 1 0.245919
0.806607 1 0.193393
1 0.0763476 0
1 0.749666 0
1 0.711019 0
0.277922 1 0.722078
0.305762 1 0.694238
0.0390624 1 0.960938
0.518029 1 0.481971
1 5.96046e-08 0
1 5.96046e-08 0
1 0.848136 0
1 0.978803 0
0.551959 1 0.448041
1 0.48862 0
1 0.656888 0
1 0.391079 0
1 0.874795 0
1 5.96046e-08 0
1 5.96046e-08 0
0.270396 1 0.729604
0.800634 1 0.199366
1 5.96046e-08 0
1 0.548767 0
0.684878 1 0.315122
1 0.190339 0
1 0.465999 0
1 5.96046e-08 0
1 0.0890298 0
1 0.267245 0
1 5.96046e-08 0
1 5.96046e-08 0
1 0.740131 0
1 5.96046e-08 0
0.249706 1 0.750294
0.726361 1 0.273639
0.112855 1 0.887145
1 0.179007 0
0 0.986844 1
1 5.96046e-08 0
1 5.96046e-08 0
0 0.825333 1
1 5.96046e-08 0
1 5.96046e-08 0
0.120723 1 0.879277
0.372624 1 0.627376
1 5.96046e-08 0
0.557595 1 0.442405
1 0.705221 0
1 0.0678719 0
0.805888 1 0.194112
1 0.271654 0
0.939083 1 0.0609168
0.633552 1 0.366448
0.166606 1 0.833394
1 0.299914 0
0 0.368712 1
0.820586 1 0.179414
1 5.96046e-08 0
1 5.96046e-08 0
0.348591 1 0.651409
1 5.96046e-08 0
1 5.96046e-08 0
1 5.96046e-08 0
0.996435 1 0.00356454
1 0.696895 0
1 5.96046e-08 0
0.933842 1 0.0661585
1 0.278708 0
1 5.96046e-08 0
0.415369 1 0.584631
0.866531 1 0.133469
1 5.96046e-08 0
0.0484415 1 0.951558
1 0.150039 0
0.921764 1 0.0782362
0.774129 1 0.225871
1 5.96046e-08 0
0.803712 1 0.196288
1 0.0679729 0
1 0.46362 0
1 5.96046e-08 0
1 0.763851 0
1 0.865681 0
0.742424 1 0.257576
0 0.49799 1
1 5.96046e-08 0
0.951431 1 0.0485691
0 0.370894 1
0.784404 1 0.215596
1 5.96046e-08 0
0 0.700331 1
0.270466 1 0.729534
1 0.90119 0
0.921989 1 0.0780113
1 5.96046e-08 0
0.261456 1 0.738544
0.861145 1 0.138855
1 0.760556 0
0.208759 1 0.791241
1 5.96046e-08 0
0.493911 1 0.506089
1 5.96046e-08 0
1 5.96046e-08 0
0.704966 1 0.295034
1 5.96046e-08 0
0 0.700213 1
0.835829 1 0.164171
1 5.96046e-08 0
0.693871 1 0.306129
0.695652 1 0.304348
0.989474 1 0.0105262
1 0.545477 0
1 5.96046e-08 0
0.730725 1 0.269275
1 5.96046e-08 0
0.921687 1 0.0783131
0.580373 1 0.419627
1 0.188966 0
1 5.96046e-08 0
1 5.96046e-08 0
1 5.96046e-08 0
0.128971 1 0.871029
1 5.96046e-08 0
1 5.96046e-08 0
0.972412 1 0.0275877
1 5.96046e-08 0
0.72349 1 0.27651
1 0.493435 0
1 5.96046e-08 0
1 0.199389 0
0.624321 1 0.375679
1 0.919213 0
1 0.400032 0
0 0.312752 1
1 5.96046e-08 0
0 0.962472 1
0.864975 1 0.135025
0.535771 1 0.464229
1 5.96046e-08 0
1 0.774686 0
0 0.937791 1
1 5.96046e-08 0
1 5.96046e-08 0
1 0.78705 0
1 0.0839515 0
1 5.96046e-08 0
1 0.470122 0
0.632564 1 0.367436
1 0.327863 0
0.985752 1 0.0142477
1 5.96046e-08 0
0.58308 1 0.41692
0.216206 1 0.783794
1 0.859601 0
0.420955 1 0.579045
1 0.58391 0
1 5.96046e-08 0
1 0.685856 0
1 5.96046e-08 0
1 5.96046e-08 0
0.719804 1 0.280196
1 0.441971 0
0.900234 1 0.0997657
1 0.275351 0
0.0351175 1 0.964882
0.618315 1 0.381685
0.947972 1 0.0520282
0.183049 1 0.816951
1 0.328013 0
1 0.927459 0
1 5.96046e-08 0
1 0.648178 0
1 5.96046e-08 0
0 0.2403 1
1 0.542421 0
1 5.96046e-08 0
1 0.826817 0
1 0.231806 0
1 0.455122 0
1 5.96046e-08 0
1 5.96046e-08 0
1 0.523994 0
1 5.96046e-08 0
0 0.367686 1
0.671535 1 0.328465
0.416805 1 0.583195
1 5.96046e-08 0
1 0.626111 0
1 0.09576 0
0.773728 1 0.226272
1 5.96046e-08 0
1 5.96046e-08 0
1 5.96046e-08 0
1 5.96046e-08 0
1 5.96046e-08 0
0 0.364989 1
1 5.96046e-08 0
1 5.96046e-08 0
0.794825 1 0.205175
0.983973 1 0.016027
1 5.96046e-08 0
1 5.96046e-08 0
1 0.709842 0
0 0.837335 1
1 0.783408 0
1 5.96046e-08 0
1 0.25309 0
1 0.940309 0
1 0.152181 0
1 5.96046e-08 0
0.67468 1 0.32532
0.246934 1 0.753066
0.419725 1 0.580275
1 5.96046e-08 0
1 0.826848 0
0.0733751 1 0.926625
1 5.96046e-08 0
0.426047 1 0.573953
1 5.96046e-08 0
1 5.96046e-08 0
0.259194 1 0.740806
1 5.96046e-08 0
0.963324 1 0.036676
1 5.96046e-08 0
0.67319 1 0.32681
1 5.96046e-08 0
1 0.116595 0
1 5.96046e-08 0
1 0.707673 0
0.829572 1 0.170428
1 5.96046e-08 0
1 5.96046e-08 0
1 0.240402 0
1 5.96046e-08 0
0.790619 1 0.209381
1 0.460061 0
1 5.96046e-08 0
0.707119 1 0.292881
1 0.829016 0
0.203349 1 0.796651
1 0.656296 0
0.47293 1 0.52707
1 5.96046e-08 0
1 0.0305122 0
1 0.23842 0
0.0986383 1 0.901362
1 0.278834 0
1 5.96046e-08 0
0.9039 1 0.0960999
1 5.96046e-08 0
1 0.733102 0
1 5.96046e-08 0
0 0.753319 1
0 0.502434 1
0.111827 1 0.888173
1 0.365265 0
1 5.96046e-08 0
0.0439843 1 0.956016
1 0.69498 0
0.099766 1 0.900234
1 5.96046e-08 0
1 5.96046e-08 0
0 0.19651 1
1 5.96046e-08 0
0.919608 1 0.0803922
0 0.464025 1
0.237455 1 0.762545
1 5.96046e-08 0
0 0.8738 1
0.886969 1 0.113031
1 0.163848 0
1 5.96046e-08 0
0.679504 1 0.320496
1 0.437287 0
0.387141 1 0.612859
0.558461 1 0.441539
1 5.96046e-08 0
0 0.751729 1
0.20476 1 0.79524
0 0.963234 1
1 5.96046e-08 0
1 0.762498 0
0.109048 1 0.890952
0.825536 1 0.174464
0 0.550152 1
0.294845 1 0.705155
0 0.976023 1
0 0.944197 1
1 5.96046e-08 0
1 5.96046e-08 0
0.930122 1 0.069878
1 0.132431 0
0 0.870407 1
1 5.96046e-08 0
0 0.863112 1
1 5.96046e-08 0
1 0.317461 0
1 5.96046e-08 0
0.00565856 1 0.994341
0.821758 1 0.178242
1 5.96046e-08 0
0 0.752297 1
1 0.925451 0
0 0.655318 1
1 0.543224 0
0 0.853454 1
0 0.127204 1
1 0.805911 0
1 0.540746 0
0 0.746005 1
0.0549358 1 0.945064
0.596009 1 0.403991
0.902392 1 0.0976084
0 0.940767 1
0 0.72331 1
0.333041 1 0.666959
1 5.96046e-08 0
0 0.957402 1
0 0.286151 1
0 0.66026 1
0.0800988 1 0.919901
0 0.594772 1
0.363225 1 0.636775
1 5.96046e-08 0
0 0.747148 1
0 0.449227 1
1 0.150901 0
0.722718 1 0.277282
0 0.26745 1
0 0.375737 1
0.598257 1 0.401743
0 0.618206 1
0 0.90833 1
1 5.96046e-08 0
0 0.677032 1
0 0.913144 1
0 0.993632 1
1 0.36935 0
0.169331 1 0.830669
1 5.96046e-08 0
0 0.450437 1
0 0.867503 1
0 0.942426 1
1 5.96046e-08 0
1 0.623017 0
0 0.626035 1
0 0.554495 1
0.783791 1 0.216209
0.237175 1 0.762825
0.130919 1 0.869081
1 5.96046e-08 0
0 0.847069 1
1 5.96046e-08 0
0.261452 1 0.738549
1 5.96046e-08 0
