# vtk DataFile Version 3.0
Particle simulation
ASCII
DATASET POLYDATA
POINTS 400 float
6.93212 5.19571 3.63682
3.94189 2.72622 6.05462
10 2.16939 8.79474
3.65211 6.47985 7.02611
2.59291 10 4.78885
9.83777 8.75939 3.84928
4.7248 6.97441 2.75182
1.19108 3.56427 6.70027
5.99082 4.84438 6.6919
3.88282 3.70804 1.86693
5.46808 0.246141 7.38549
8.11235 2.27083 1.28971
5.76643 9.53763 3.54958
6.616 4.26315 6.73781
1.73725 3.85821 7.9527
2.11765 1.74129 0.375251
0.127972 3.55345 8.06044
5.70443 0.303002 2.5525
0.654289 9.54891 7.1739
5.94482 3.21425 10
7.15719 5.51275 1.10788
2.02943 6.35878 3.96858
5.512 6.83568 3.12036
8.13495 1.46628 4.38683
3.40696 8.22696 5.10471
6.1865 8.15862 8.09379
2.36991 1.17388 5.06119
3.89262 3.84759 9.29196
2.07567 9.80004 6.79861
4.14819 0.350216 5.46131
7.51964 0.950845 2.35845
2.62259 3.56333 9.33437
8.43109 9.29773 8.82701
10 5.74747 1.69413
0.107766 8.4993 7.40085
8.65658 8.47942 1.47301
1.68719 3.28434 6.17755
4.04396 5.47163 2.9812
7.06569 1.31291 2.62605
8.55372 7.88838 6.04153
5.27834 8.54797 8.35983
4.06669 9.36182 7.87282
1.46149 0.447522 6.96405
1.9514 6.77368 6.4694
6.89262 6.49229 1.97948
8.9045 9.33203 5.88732
9.52106 0.755265 3.05317
6.26282 5.64706 9.6714
1.27447 0.305957 9.3341
4.19854 7.26079 8.40212
0.172423 3.73493 6.97411
0.232703 8.54478 2.04676
1.93539 2.30275 2.67831
0.366088 6.13447 5.24434
7.91245 5.31483 0.818894
3.54747 0 6.7309
6.3133 8.7454 3.36441
5.56293 0.80909 6.37022
3.89841 0 5.31119
9.47728 8.74672 8.65462
3.14996 8.97723 4.10647
4.29442 3.36904 8.32429
4.67727 9.79464 8.68174
8.45751 2.10287 10
7.74156 4.78903 4.86375
8.32057 0.398822 9.44546
7.47517 5.02778 5.71048
8.5669 3.12193 0.544418
0.423401 1.94931 2.95326
3.15972 1.38141 8.97407
9.96762 2.29124 8.33663
5.83578 9.62072 2.41573
0.0880587 6.69293 1.31543
8.71353 6.11778 5.9803
6.78748 2.34914 8.95553
2.23814 1.47312 9.02264
5.43067 6.52195 9.09264
4.05239 9.38058 6.64327
6.46544 1.46027 7.78919
9.06611 7.39501 4.56633
7.36223 4.46637 0.938101
2.8901 3.52943 4.84686
4.57574 9.35958 1.63701
6.83385 8.83013 3.65803
9.77982 3.99601 1.96568
3.7839 1.62636 5.81315
5.0184 3.7518 8.66706
3.86879 4.76738 9.25979
7.88199 0.509985 8.10321
1.33877 10 8.14406
1.50227 2.1479 8.18352
9.97798 5.74891 0.527411
2.62494 1.06509 7.21267
8.1454 4.58645 4.13382
10 4.79241 1.04553
1.574 9.51289 9.98971
6.64894 4.26099 8.81535
7.10346 4.75183 7.26034
6.26674 3.58573 9.6898
10 4.56415 4.45632
3.76602 6.61098 1.59296
6.36281 5.4581 2.6539
9.36474 9.19663 7.63778
8.94522 4.80193 6.50249
10 6.04572 1.64259
2.89712 9.04594 5.84931
0.560102 4.63996 0.339253
6.83991 4.57701 4.67597
9.42902 5.67636 4.65796
1.46864 8.11732 3.55893
6.41903 1.30906 9.38105
5.82872 1.3145 7.89193
0.888725 0.288714 5.98174
9.40918 7.60851 1.94403
9.15902 0.390595 9.72872
3.68584 3.78643 8.50999
4.5233 9.05449 3.45051
7.70127 0 1.92783
2.5649 7.51508 2.36946
2.77957 0 6.30517
2.47454 7.76561 9.05768
3.72821 5.7219 3.73988
4.0791 2.63298 3.69001
9.09528 4.09101 1.46603
9.04677 0.954061 4.73166
4.33432 9.39763 3.79859
9.24074 9.2867 9.30021
2.41164 6.98827 7.27599
0.733309 9.72044 1.27292
1.91428 4.87479 0.152244
7.81223 0 0.829769
8.68139 0.118433 6.67721
7.10479 3.08248 7.951
7.7643 2.81714 1.65364
2.2452 5.27359 1.43076
9.65412 7.83548 6.53543
1.23322 0.410459 8.78651
5.69817 9.24605 2.5616
8.46419 4.61915 0.0605574
9.16358 6.14749 1.10626
7.12825 0.51537 6.36622
4.20075 4.67342 0.826453
8.86279 6.82594 9.57705
8.93835 8.59256 7.14632
5.22385 0.55939 9.12736
5.17565 9.794 5.4654
9.88434 2.23306 4.79626
4.17302 4.32626 8.55283
4.16734 4.28182 5.29772
1.10493 7.63486 0.687825
7.19322 0.584421 6.5708
10 1.02926 8.84843
0.914426 7.27379 7.46497
3.77028 6.82179 1.946
3.8691 2.26898 7.65976
0.932839 4.15284 6.90857
4.17505 7.60745 4.68805
4.92476 1.73777 7.24877
3.18325 5.69173 2.56396
3.3804 0.398402 1.91529
0.142535 7.80513 8.11021
9.5571 3.62054 8.23732
5.15648 0.598977 1.95259
4.57577 6.47056 5.13096
4.54164 1.04983 8.33493
0.275544 0.557178 1.66617
9.01942 1.33853 9.80456
2.0353 8.1596 6.18162
8.26363 0 8.38955
9.41128 1.50491 0.564118
7.22882 3.69114 6.31158
8.11824 2.25411 4.38347
7.02073 0.643417 9.44966
5.3616 3.4773 9.15449
7.3047 8.75433 9.84266
0.192775 6.84768 0.276277
4.80221 5.24525 8.14565
6.98356 2.83987 2.82893
4.18769 9.5971 7.22318
9.16583 3.62385 2.42616
2.78672 0.816103 8.34958
9.61999 8.95642 5.72286
4.08276 6.26451 7.22782
0.694682 2.06651 6.17574
7.6465 6.91046 5.79879
2.31113 0.969005 8.14653
6.91977 0.69125 6.37069
4.32252 8.1012 0.169975
5.32265 4.63102 7.09263
1.72605 3.42238 4.47587
3.16113 1.80771 1.16336
7.40695 1.61877 5.24065
7.9951 4.43402 4.04818
5.50426 1.53269 4.02412
9.79544 0.530802 6.51757
5.46538 6.15493 4.39599
2.24003 7.82934 5.328
5.17069 6.24972 8.25052
9.24691 3.75046 7.96778
8.50209 5.55691 5.89568
6.91157 0.456806 6.73091
3.32928 3.68437 1.13892
4.04496 9.33237 7.35202
2.19824 0.82713 2.60293
9.91652 0.339869 5.04789
9.63475 6.69554 7.42389
2.07676 2.61706 0.120047
3.39735 8.93608 7.03146
1.26647 2.10672 1.53119
6.49867 4.2684 1.29844
6.82985 0.560361 6.49537
1.9125 7.35212 9.05763
2.06423 7.34671 5.05526
5.18102 4.94166 8.71513
6.68905 2.6536 7.37013
1.73517 8.02661 8.30049
8.25181 0.808199 5.64896
3.3285 9.63115 8.53563
1.18771 3.87146 2.47788
6.68048 9.10268 4.25938
4.85876 1.06454 7.21771
9.33085 7.89295 0.846548
10 4.14143 0.504262
8.19085 0.875976 5.72963
3.3897 0.947263 7.4895
9.32559 5.8285 5.63716
1.2441 5.54868 0.389726
9.48852 10 3.38196
7.14318 0.162481 6.32117
2.00602 4.23001 2.55607
2.39253 6.99293 8.79716
8.7942 7.06588 1.59745
9.19609 3.66483 2.37326
8.03223 6.01051 4.50721
1.34083 4.45331 3.74729
4.43108 7.19216 5.04357
7.83627 3.98904 6.00822
1.88321 1.08542 4.8453
7.03424 0.55055 6.48164
4.48834 8.36362 7.95316
8.07051 0.634918 5.86785
1.86909 4.97401 7.1168
4.63494 1.28721 8.47301
5.55738 7.93672 8.15259
6.04969 0 3.17794
2.77582 5.79708 2.83852
8.93173 7.39861 5.82935
7.45847 6.69158 9.41293
3.24978 8.93099 1.02944
2.7366 4.04975 0.601587
8.41921 0.637812 5.49566
8.18224 0.857972 1.59554
2.52702 8.51906 2.1663
8.1108 0.00739139 1.65832
2.25733 4.1886 2.63394
6.08941 3.76533 6.09203
3.92816 6.22299 7.10813
4.81684 4.06075 8.68868
7.72688 2.68933 4.20025
8.55531 0 0.624153
9.19004 5.74543 8.02843
9.47284 7.96951 0.601512
3.55681 6.66363 9.41585
1.33637 0.919337 7.3323
2.14153 9.57257 5.60779
6.97232 4.63308 4.87883
8.21393 5.04073 8.44665
0.0903596 7.37819 9.1126
3.45294 7.34212 3.13795
1.31292 8.80184 9.40322
1.18149 7.09333 9.36018
5.42652 0.747973 2.63732
4.10854 1.88182 8.78284
9.09046 4.81089 9.80701
7.37947 1.41172 5.31896
4.8461 4.33841 8.51559
0.75621 8.12811 0.537091
4.61281 7.80718 8.33066
7.64526 2.22793 4.34553
6.88917 0.263957 6.69316
4.974 4.69747 9.26705
8.50417 8.97744 9.79553
2.18217 2.5285 3.12171
9.79416 7.26505 7.3767
4.83205 8.87378 7.61307
7.43109 3.81918 1.23358
5.35556 3.308 3.53161
10 1.89542 6.47435
3.35766 3.66677 0.312059
8.19578 3.51873 1.13539
4.27178 5.49873 7.0418
8.84316 10 4.34318
6.25647 0.441311 7.86319
0.97187 1.04867 9.47991
4.74305 4.15637 6.27732
0.176353 0.0063523 9.54984
6.88553 0.460863 6.50915
6.62895 0.494488 6.46098
7.29024 0.285219 5.97688
7.36021 0.508286 6.64042
1.84299 0.585874 1.69961
0.55955 5.67926 6.21237
7.07003 0.532853 6.52596
9.5069 8.3968 2.35046
7.20801 0.654243 6.51385
6.52768 2.61673 2.48758
6.86619 0.431549 6.56612
7.11389 0.66103 6.37811
9.98524 2.49089 8.26414
2.99786 4.08531 3.07973
6.18134 8.22909 9.74369
2.59131 1.03139 8.21886
7.6478 8.4915 7.51269
6.38581 0.549328 6.39717
5.65343 9.59812 9.16987
9.38408 0 7.40497
8.54668 8.00533 3.94883
1.9489 2.14779 0.785875
0.991648 1.58391 8.70259
2.75746 2.40758 9.75115
8.48018 5.64837 9.25927
2.05902 7.37124 0.665199
0.153025 0.226032 9.4624
6.9973 0.540709 6.24769
7.10848 0.160004 6.377
1.16861 6.31461 5.20503
7.05011 0.142355 6.97575
9.15645 0.445237 0.718554
6.59674 3.62603 7.31956
7.1531 0.335451 6.69426
9.25495 3.61796 5.34381
10 8.40945 7.60613
6.13068 1.2892 5.24952
5.6186 6.78316 9.02917
7.08618 3.66189 6.02289
8.28438 1.75824 4.73784
4.46318 9.36548 3.35302
6.99411 0.40745 6.36535
6.46629 9.77585 4.21023
0.355442 5.97339 4.59974
0.928398 6.52522 0.680273
0.000666939 7.83718 3.08178
1.35886 5.51738 7.48781
0.159488 0.264255 9.40118
7.57623 0.503719 7.18365
4.50735 2.01393 3.20599
8.63927 1.93802 7.54445
7.27695 0.469211 7.00982
7.07045 0.696575 6.54385
0.577057 2.67321 0.383261
6.44869 0.639642 6.22751
7.46814 0.763029 6.3587
6.37358 8.82934 5.8703
1.42978 6.93142 7.54243
5.46539 2.26641 7.3511
7.10933 0.639392 6.63746
3.0645 7.0392 5.27779
0.813292 8.90466 4.19205
7.04929 0.491358 5.99119
7.00785 0.314987 6.56999
2.13652 6.27163 3.02612
0.119989 0.274226 9.39112
0.153667 0.220573 9.36335
7.12479 0.237978 6.05493
6.73416 0.512724 6.59559
1.28778 3.68723 8.56349
0.227465 0 9.35553
5.10155 0.210664 8.78395
4.39405 7.71033 8.88063
9.79033 4.25059 7.96728
8.66057 1.71229 7.36444
7.50665 6.38456 8.37709
8.5856 2.12847 10
6.73539 0.472472 6.01919
6.89019 0.706864 6.96147
8.59418 1.79914 7.02241
0.111944 0.104218 9.58959
3.43378 5.48257 5.2952
4.62415 3.46863 2.66172
8.09285 1.02491 5.61978
7.19074 0.390823 6.52715
6.86841 0.375423 6.40746
4.28528 3.39042 3.39882
7.19232 0.0962522 6.17057
7.89069 4.39748 9.06956
0.195883 0.0537093 9.53816
6.77111 0.318376 6.17113
6.55705 0.432583 6.60594
1.18639 2.72148 3.5689
2.46213 3.09841 9.65276
6.74918 0.522081 6.4206
7.04573 0.085685 6.50807
5.51375 5.16389 7.4276
7.32129 0.206434 6.00026
4.11167 2.0094 9.2401
5.39482 4.01886 8.46926
6.78322 0.277264 6.93739
1.54596 7.70073 0.671277
8.79618 9.21032 0.187728
4.60927 4.24256 6.98445
POINT_DATA 400
SCALARS particleColor float 3
LOOKUP_TABLE default
1 0.968674 0
1 5.96046e-08 0
0.125101 1 0.874899
1 5.96046e-08 0
1 0.275835 0
0.592058 1 0.407942
0.775586 1 0.224414
1 0.912442 0
1 0.228199 0
0.125968 1 0.874032
1 5.96046e-08 0
1 0.623472 0
1 0.303199 0
0.820269 1 0.179731
1 0.741052 0
0.201153 1 0.798847
0.378578 1 0.621422
1 5.96046e-08 0
0.612112 1 0.387888
1 0.0851458 0
1 5.96046e-08 0
1 0.542876 0
1 0.878029 0
0 0.886479 1
0.0958974 1 0.904103
1 5.96046e-08 0
1 5.96046e-08 0
1 5.96046e-08 0
1 5.96046e-08 0
0.379617 1 0.620383
0.996563 1 0.00343686
1 0.864475 0
0.971061 1 0.0289388
1 0.13309 0
1 0.457296 0
1 5.96046e-08 0
1 5.96046e-08 0
0.305676 1 0.694324
0.8597 1 0.1403
0 0.948572 1
1 5.96046e-08 0
1 5.96046e-08 0
1 5.96046e-08 0
1 5.96046e-08 0
0.949661 1 0.0503394
1 5.96046e-08 0
1 0.513271 0
1 0.0377789 0
0.00558523 1 0.994415
1 0.842052 0
0.797461 1 0.202539
1 5.96046e-08 0
0.395155 1 0.604845
0.35028 1 0.64972
1 5.96046e-08 0
0.204251 1 0.795749
0.0749659 1 0.925034
0 0.543236 1
0.289284 1 0.710716
0.312336 1 0.687664
1 0.0983637 0
1 5.96046e-08 0
0.918563 1 0.0814371
1 5.96046e-08 0
1 5.96046e-08 0
1 5.96046e-08 0
0.438896 1 0.561104
0.757911 1 0.242089
1 5.96046e-08 0
0 0.423926 1
1 0.765109 0
1 0.161475 0
1 0.619706 0
1 5.96046e-08 0
0 0.776144 1
0.506666 1 0.493334
0 0.838568 1
0.940078 1 0.0599216
0 0.586443 1
0 0.289516 1
1 0.220736 0
1 0.4081 0
0.788583 1 0.211417
0.787805 1 0.212195
1 5.96046e-08 0
1 0.494052 0
1 0.864243 0
0.961223 1 0.0387774
1 5.96046e-08 0
1 0.182483 0
0.910178 1 0.0898217
1 5.96046e-08 0
1 0.589765 0
1 5.96046e-08 0
0.380972 1 0.619028
0.591349 1 0.408651
0.66358 1 0.33642
1 5.96046e-08 0
1 5.96046e-08 0
1 0.559696 0
1 0.373234 0
1 5.96046e-08 0
1 5.96046e-08 0
1 0.830884 0
0.0316629 1 0.968337
0.567872 1 0.432128
1 0.576668 0
0 0.500301 1
0.617375 1 0.382625
0.459779 1 0.540221
0 0.800165 1
0 0.962137 1
0.476526 1 0.523474
1 5.96046e-08 0
0.11396 1 0.88604
1 5.96046e-08 0
1 5.96046e-08 0
1 5.96046e-08 0
1 5.96046e-08 0
1 5.96046e-08 0
1 0.897841 0
1 0.861115 0
1 5.96046e-08 0
1 5.96046e-08 0
1 5.96046e-08 0
1 0.405663 0
1 0.953485 0
1 0.942149 0
1 5.96046e-08 0
0.902491 1 0.0975087
0.414554 1 0.585446
1 0.262035 0
1 5.96046e-08 0
1 0.219082 0
0.791609 1 0.208391
0.611988 1 0.388012
1 5.96046e-08 0
1 5.96046e-08 0
1 0.0878561 0
1 5.96046e-08 0
0 0.776668 1
1 5.96046e-08 0
0.300074 1 0.699926
1 0.101612 0
1 5.96046e-08 0
1 5.96046e-08 0
1 5.96046e-08 0
1 5.96046e-08 0
1 5.96046e-08 0
1 5.96046e-08 0
0 0.753106 1
0.718632 1 0.281368
0.198196 1 0.801804
1 5.96046e-08 0
1 0.740887 0
0.373379 1 0.626621
0.407142 1 0.592858
0.669349 1 0.330651
0 0.520589 1
1 5.96046e-08 0
1 5.96046e-08 0
0.684706 1 0.315294
1 0.592776 0
0.367695 1 0.632305
1 5.96046e-08 0
0.542281 1 0.457719
1 0.554759 0
1 5.96046e-08 0
1 5.96046e-08 0
0.099879 1 0.900121
1 0.68041 0
1 0.503348 0
1 5.96046e-08 0
0.821894 1 0.178106
0.335317 1 0.664683
1 0.145457 0
0.5735 1 0.4265
1 0.183913 0
1 5.96046e-08 0
1 0.178382 0
0.934895 1 0.0651054
0.328813 1 0.671187
0.314023 1 0.685977
1 5.96046e-08 0
1 0.281599 0
1 5.96046e-08 0
0 0.294292 1
1 5.96046e-08 0
1 5.96046e-08 0
0.352718 1 0.647282
1 0.3684 0
1 5.96046e-08 0
1 0.152884 0
1 0.658583 0
1 0.219425 0
0.922979 1 0.0770206
0.29349 1 0.70651
0.0983789 1 0.901621
1 5.96046e-08 0
0 0.903313 1
0 0.566311 1
1 5.96046e-08 0
0.0948797 1 0.90512
1 5.96046e-08 0
1 5.96046e-08 0
1 0.296594 0
1 5.96046e-08 0
1 0.700154 0
1 5.96046e-08 0
1 0.222575 0
0 0.679134 1
1 5.96046e-08 0
1 0.885873 0
1 0.578649 0
0.985526 1 0.0144743
0.404727 1 0.595273
0 0.51932 1
1 5.96046e-08 0
1 5.96046e-08 0
1 5.96046e-08 0
1 5.96046e-08 0
1 5.96046e-08 0
1 0.440392 0
0 0.594796 1
1 5.96046e-08 0
0.786329 1 0.213671
0.711546 1 0.288454
1 0.264367 0
0 0.580821 1
0 0.875574 1
1 5.96046e-08 0
0.0131402 1 0.98686
0.118183 1 0.881817
1 0.659158 0
1 0.564159 0
1 5.96046e-08 0
1 5.96046e-08 0
1 0.978842 0
0 0.494942 1
1 0.764775 0
0 0.492611 1
0.931301 1 0.0686992
1 0.182302 0
1 5.96046e-08 0
1 5.96046e-08 0
1 5.96046e-08 0
0.362951 1 0.637049
1 0.0634356 0
0.663774 1 0.336226
0.421785 1 0.578215
0 0.690702 1
0.498961 1 0.501039
1 5.96046e-08 0
1 5.96046e-08 0
0.470177 1 0.529823
0.197765 1 0.802235
1 5.96046e-08 0
0.106887 1 0.893113
1 5.96046e-08 0
0.38568 1 0.61432
1 0.728567 0
1 0.494432 0
0.831127 1 0.168873
1 5.96046e-08 0
1 5.96046e-08 0
0.54044 1 0.45956
1 5.96046e-08 0
0.849981 1 0.150019
1 5.96046e-08 0
1 0.68391 0
1 5.96046e-08 0
1 5.96046e-08 0
1 0.547698 0
1 0.963192 0
1 0.352973 0
0.786316 1 0.213684
1 5.96046e-08 0
1 0.940066 0
0.613319 1 0.386681
0 0.820556 1
1 5.96046e-08 0
0.261029 1 0.738971
0.138592 1 0.861408
0.278483 1 0.721517
1 5.96046e-08 0
1 5.96046e-08 0
1 0.681118 0
1 0.714935 0
0.819794 1 0.180206
1 5.96046e-08 0
1 5.96046e-08 0
0 0.854321 1
0.795615 1 0.204385
1 0.852412 0
1 0.102351 0
0 0.63714 1
0 0.776944 1
0 0.73345 1
0 0.201128 1
0 0.261184 1
0.709589 1 0.290411
0.833779 1 0.166221
0 0.757685 1
1 0.0443764 0
0 0.959714 1
0.459134 1 0.540866
0 0.867479 1
0 0.544064 1
1 5.96046e-08 0
0 0.890014 1
1 5.96046e-08 0
0.593689 1 0.406311
1 5.96046e-08 0
0 0.965947 1
1 5.96046e-08 0
1 5.96046e-08 0
1 5.96046e-08 0
1 5.96046e-08 0
1 0.880864 0
1 5.96046e-08 0
1 5.96046e-08 0
0.719573 1 0.280427
0 0.356092 1
0 0.0994188 1
0 0.639042 1
1 5.96046e-08 0
0 0.375588 1
0 0.935315 1
0.119081 1 0.880919
0 0.506135 1
0.338827 1 0.661173
1 5.96046e-08 0
0.318216 1 0.681784
0.468902 1 0.531098
1 0.549243 0
1 5.96046e-08 0
0.360056 1 0.639944
0 0.275675 1
1 5.96046e-08 0
0.415693 1 0.584307
1 5.96046e-08 0
1 5.96046e-08 0
1 0.915769 0
0 0.395358 1
0 0.307136 1
0 0.697033 1
0 0.505868 1
0 0.174693 1
0 0.582282 1
0 0.842947 1
0 0.533319 1
0 0.454702 1
1 0.49713 0
1 0.0180368 0
1 5.96046e-08 0
0.0403612 1 0.959639
0.599272 1 0.400728
1 0.783067 0
0 0.669661 1
0 0.260515 1
0.627461 1 0.372539
0 0.534368 1
0 0.637132 1
0 0.474454 1
0 0.869201 1
1 5.96046e-08 0
0 0.577859 1
1 0.70761 0
1 5.96046e-08 0
1 5.96046e-08 0
0 0.788074 1
0.0985943 1 0.901406
1 0.99182 0
0 0.374363 1
0 0.529716 1
0.144574 1 0.855426
0 0.916027 1
0.720407 1 0.279593
1 5.96046e-08 0
0 0.749726 1
0 0.519664 1
0 0.650581 1
1 5.96046e-08 0
0 0.354413 1
1 5.96046e-08 0
0 0.53368 1
0 0.672453 1
0 0.579578 1
1 5.96046e-08 0
0 0.513945 1
0 0.673289 1
0 0.683106 1
0.866303 1 0.133697
0 0.625127 1
1 0.416193 0
0 0.841447 1
0 0.286817 1
0.960471 1 0.0395289
0.544683 1 0.455317
0 0.535884 1
