# vtk DataFile Version 3.0
Particle simulation
ASCII
DATASET POLYDATA
POINTS 400 float
0.372853 1.33815 8.74742
4.92312 1.80599 0.227665
1.29829 4.30889 4.04653
4.08031 6.12398 2.13694
4.01748 3.27197 6.65178
10 5.89409 4.41225
5.74118 6.56311 4.62669
9.19222 7.98269 0.875807
5.15205 1.44161 0.139798
2.38034 0.52484 7.68265
6.84232 3.08296 5.85071
8.06086 1.38628 7.84136
1.11335 10 3.80642
2.44336 2.26828 8.37679
2.26615 1.01818 9.3426
1.34307 0.507753 1.80254
8.23775 1.35696 8.08348
3.58295 0.382925 1.20291
9.30909 2.58535 9.42039
9.82051 0.758259 4.77136
3.38037 0.622305 1.1108
6.05184 0.776468 9.61836
4.7193 1.13109 9.73847
4.33957 6.4825 2.72533
8.81584 2.31945 8.56411
2.28872 2.03614 7.24093
6.43489 3.64774 2.53237
1.2192 0.207363 4.85358
2.88868 9.92049 1.34678
5.06891 5.52178 9.68497
1.99646 2.04856 1.61582
1.82787 6.78664 6.90058
1.6254 7.48823 9.77416
7.53474 0.860414 3.89395
8.38751 7.37898 3.0497
4.77758 1.53768 5.78109
2.28133 1.11442 9.7216
3.41145 0.425046 0.787853
8.74774 2.58604 2.68994
1.20554 3.47759 8.54067
6.65014 7.51226 2.69061
5.50504 0.214785 9.03388
5.62914 6.38821 9.97686
3.29848 1.06079 0.922925
9.48243 0.33261 3.74421
6.08564 1.07001 1.01272
9.40064 5.1929 8.31665
7.04827 0.292556 7.29419
5.40377 0.578949 0.995774
9.15382 10 0.329611
3.87321 7.14124 9.68449
0.123154 5.31029 5.19298
7.94267 1.54552 2.77019
8.14939 6.6912 0.381976
4.4576 1.94884 6.76203
5.86761 0.505429 0.723269
9.26604 4.50132 4.55961
0.752373 0.20802 3.40889
5.02206 2.29104 3.28558
8.00031 1.53883 3.28081
1.19833 3.55637 7.87559
6.01799 2.93748 0.369534
6.73234 7.32089 2.54481
0.27557 0.841134 8.87299
3.78475 7.45877 1.42889
0.558942 0.743211 9.08392
0.215017 3.66164 9.00581
0.176507 1.67798 3.30127
5.63669 3.21915 2.64903
4.88278 2.28904 7.5753
9.40061 0.151139 8.00186
3.91469 1.39264 2.60774
9.7385 8.83827 5.06751
1.33623 0.80079 8.62286
3.05749 5.70329 9.0206
2.86088 4.57404 4.97219
3.14708 1.36185 6.30494
0.745717 1.60937 9.96539
1.46426 2.08838 2.3976
6.07806 4.73506 8.86576
3.37522 0.618348 1.0094
6.06903 1.51172 5.37228
0.854272 0.555996 6.1134
2.8913 0.432367 1.43938
1.73143 0.414421 8.0543
1.70013 0.146896 7.78002
8.51093 5.61087 7.30387
1.06611 0.523915 4.13842
0.281883 5.89543 3.67872
7.02028 0.419623 0.0992263
3.10087 0.364374 0.273518
6.6246 0.667756 1.53629
0.629146 3.52625 8.78059
3.35881 0.0724687 4.92458
0.208162 0.46971 8.78522
9.09012 6.35484 8.87897
8.97929 8.31105 1.33174
2.35262 1.64908 8.18351
9.26226 7.40978 7.73711
6.82993 0.161275 0.949724
3.25747 0.558646 0.749138
0.538203 4.22403 5.88972
3.6213 0.960252 5.95513
3.39593 9.4359 9.58969
9.40322 2.62807 7.87548
1.02801 2.15998 1.0856
8.33263 1.4437 9.34107
5.25439 0.324552 0.845004
4.42317 0.0802619 0.389822
2.99858 4.4071 5.93109
5.32062 6.31142 2.2149
1.05859 1.52741 9.90795
9.47841 4.97952 1.47128
5.6417 0.329716 0.643128
2.60108 0.482332 1.54395
1.42231 1.0524 8.86623
5.13682 0.514425 8.48065
9.34604 3.6709 2.03026
9.07917 2.14876 8.68129
9.79687 7.66885 1.35503
2.78319 0.531541 0.538644
6.54324 1.64581 9.19453
0.276961 7.09382 3.44172
8.51217 4.34095 7.21377
3.87317 2.84115 6.38024
3.96941 0.000944663 1.42184
3.6593 4.11462 1.4427
0.339569 0.877426 9.04945
1.42068 1.19611 9.41253
0.122227 9.55923 4.69206
3.00346 0.327588 0.639219
7.59178 4.78514 8.11291
6.36792 4.25025 4.32492
7.00576 0.650435 5.00026
2.28497 4.87903 7.3615
2.11162 1.35474 1.83964
5.60719 5.45844 2.75856
0.359136 1.03885 8.86229
4.49738 3.87701 9.88585
5.35869 0.857657 7.92916
3.56967 0.440209 1.07079
8.27772 5.96714 7.59222
2.2792 3.08038 7.43857
9.20828 0.394232 7.3267
3.2914 0.501921 0.7042
6.15646 1.7389 5.38144
9.19647 0.426299 3.56099
2.36126 4.76909 0.527096
3.93387 1.16822 2.41447
3.58991 2.35091 1.8199
3.62049 0.50313 1.12082
6.18 2.16059 6.21229
0.750341 1.21819 8.7483
1.61705 1.14124 8.2345
4.68044 5.94607 9.95758
5.11616 0.553605 0.133976
8.62451 0.0771542 2.0927
5.87321 0 0.873835
5.30084 0.621172 7.94632
3.74936 2.45022 0.724868
4.26784 2.21349 0.287545
4.44027 0.00188307 5.3141
6.5541 1.50287 9.49695
0.450541 2.36212 0.79763
2.6444 0.478954 6.20035
8.68253 2.04514 8.84043
6.96572 0.547832 4.94142
6.1281 0.397067 8.38111
2.16533 0.721226 0.511133
0.650121 2.09491 6.68412
3.27855 0.227496 0.671621
7.91398 2.2502 0.880786
5.35062 5.88065 2.9764
1.17505 2.27301 1.55741
3.08061 0.302134 5.48099
6.94116 9.10911 0.0707665
1.20278 0.294246 7.68555
3.08409 1.27892 6.20258
1.21615 1.05671 8.06363
7.65981 4.96247 4.26149
3.58716 0.335113 1.12177
8.07471 9.27625 4.44481
2.46335 0.96669 2.32006
6.48263 0.24283 0.86014
4.90313 0.146659 8.70114
6.12174 0.430896 1.11767
3.01384 0.378831 0.766525
7.31947 9.16374 9.41325
9.53594 0.0548705 3.67644
3.54621 0.112121 0.910023
3.26673 0.277998 0.749097
3.24326 0.350739 0.898134
1.69885 5.1923 9.36669
1.41169 0.840617 1.43172
1.66706 8.32586 9.77845
3.00964 0.154247 1.11999
2.6651 0.213023 5.5884
3.71149 8.90279 2.91312
3.30804 0.570428 0.940051
3.15287 0.205926 1.25029
3.1633 0.353594 0.864226
5.17826 0.445846 0.838545
9.68114 0.634062 3.87366
1.19148 0.495599 7.78032
1.90865 9.86833 3.37775
5.10604 0.417916 8.14054
3.61856 0.0315388 1.02476
9.84643 1.97443 6.17829
1.53306 1.70496 1.92289
6.95882 0.299505 0.330826
2.87793 0.371697 1.39502
2.50413 0.418615 1.50399
6.93618 6.442 4.49697
6.49815 0.408803 7.01399
2.21746 0.513159 9.54817
5.2869 0.705255 8.10463
3.50244 0.56742 1.162
3.85444 0.636482 1.30112
0.129451 8.51182 8.89486
6.39596 0.392066 2.03255
2.24892 6.06587 9.6574
9.10267 1.31381 7.37129
6.21338 0.309376 8.56579
3.27656 0.32603 1.07612
6.80752 0.138028 7.25829
4.0643 0.305632 1.07668
7.98328 2.81114 0.834062
3.03323 0.362425 0.851352
3.4899 0.765875 0.603324
7.53658 1.48556 2.86008
4.17404 0.0318983 5.43234
4.93469 0.714747 8.89919
9.3538 0.347868 3.40555
3.10055 0.424519 1.58703
5.4135 0.640676 8.1658
1.61916 0.554278 4.69518
2.60983 0.768551 7.7456
3.46031 1.38402 5.9129
3.09364 0.157972 0.792891
9.22246 3.84383 3.45835
3.32032 0.426952 1.11159
3.13024 0.599212 0.424315
3.81927 0.769813 1.4354
3.47259 0.0954389 1.22213
5.68625 0.68105 8.06847
1.19339 2.11131 0.943754
1.62658 0.15924 4.68474
4.52622 1.47591 7.15922
0.523474 2.14417 0.419928
6.27967 0.0294994 7.39409
3.54444 0.512467 1.28089
3.8341 7.68786 5.09206
4.87392 0.286966 8.3592
3.72223 1.2503 5.83091
9.16499 0.184821 3.95517
3.59082 0.520807 1.20864
5.16816 1.46403 3.36128
5.96954 0.418847 8.47212
5.20501 2.15199 4.05313
4.82749 0.438922 8.2927
3.70391 0.262505 1.16497
9.55763 3.56859 1.71444
1.16214 0.458763 7.82453
4.93863 8.77451 9.24007
4.89167 0.228378 8.39772
4.67795 0.135037 6.45103
5.99351 0.727182 0.9831
5.50244 0.937211 8.12756
9.30431 0.131076 3.63023
3.7088 0.461736 1.40849
3.18249 0.154629 1.03229
7.1454 0.694834 1.83848
1.34552 0.905757 0.262121
3.54346 1.05518 5.8191
6.5277 1.18081 9.21745
4.99793 0.369344 8.45807
2.89425 1.48467 6.20961
4.75284 9.30689 8.21662
1.77864 1.7764 2.02114
3.27526 0.535335 0.916679
6.02442 0.43229 0.893154
5.20575 0.563627 0.480023
8.47304 9.44015 8.23249
1.17471 0.37933 7.93397
8.26017 6.14825 7.67223
9.45251 0.100254 3.30421
3.04301 0.602155 1.02669
6.03759 1.3794 4.96876
6.6515 1.43542 9.59581
5.21424 8.13927 2.41659
9.92933 0.0912192 1.1966
5.44726 0.473584 1.15491
3.59264 0.72334 0.503123
0.461067 0.91438 8.83512
5.27149 0.291626 7.98819
5.00647 0.538619 8.21368
3.19918 0.649752 1.23314
3.09421 0.651839 0.755084
5.9283 1.16621 4.95001
3.02017 0.578517 1.16308
2.22755 0.427123 1.47539
4.36679 1.83897 6.91283
2.75074 1.93459 6.32858
6.54563 0.273913 1.55635
3.54387 0.282125 1.22645
0.227942 1.05595 9.03449
2.93647 0.653671 1.40711
3.68226 0.438353 0.994769
2.11027 0.861997 8.00515
3.26158 1.06476 5.97712
5.05505 0.67098 8.58029
6.09298 2.14565 6.13338
9.53819 0.192394 3.90003
3.40936 0.661183 0.575561
6.25092 1.55124 5.24035
0.542505 0.823866 8.71525
7.30949 0.0662981 1.1462
5.50053 1.9145 3.7814
5.26186 1.93634 3.68527
3.92497 1.52698 2.56249
4.50946 0.170826 8.53965
1.64431 0.197923 4.8794
5.16725 0.492008 7.99305
2.64491 0.171223 0.721555
6.04199 0.364769 1.06021
6.82899 0.0848456 0.827273
3.24717 0.504639 0.689627
5.47154 0.373072 0.402337
1.21665 0.804238 0.514041
3.99649 0.160431 1.54493
9.16512 1.72019 7.41731
3.05892 0.349767 0.599845
5.14184 0.508514 8.4439
2.94378 0.641386 1.46834
5.7616 0.735927 0.668477
8.04695 5.43136 7.66624
5.25669 1.91047 3.69635
3.32694 0.291017 1.05774
8.20155 1.44831 3.01483
2.87134 0.373458 5.37561
4.93957 0.294384 8.0767
3.23091 0.251753 4.94244
5.28651 0.540091 8.65368
5.21288 0.824487 8.42233
3.09231 0.212024 1.01474
3.44347 0.451689 0.654913
5.35666 0.615164 0.285475
3.1966 0.340774 1.00953
3.23644 0.386935 1.10115
2.91973 0.09615 5.57292
4.01332 0.577058 0.808832
3.69993 0.630123 0.79071
6.66974 1.12929 9.3947
4.75593 0.289084 8.80509
2.96421 0.100177 0.549532
2.93367 0.231087 1.24135
5.10787 0.698477 0.95502
5.1098 0.691771 8.45243
2.74744 0.335115 1.08942
3.54272 0.384129 0.71765
5.29891 0.44456 0.840955
4.99339 0.554447 8.45365
4.77381 0.370047 8.12602
3.26612 0.400163 0.932085
2.75358 0.565809 1.12207
9.70432 0.24351 3.94333
5.16647 0.578505 7.72431
6.37896 0.499938 7.66468
4.73129 0.238063 7.90922
6.18921 0.182379 0.978265
5.25761 0.487003 0.857971
6.06901 2.1401 6.13985
5.07386 0.481399 8.631
3.89799 0.599208 1.35864
3.36217 0.356762 1.27691
9.3561 0.432513 3.40326
5.03027 0.603807 8.71796
4.6521 0.418064 8.29851
4.97895 0.223411 8.27972
3.13525 0.370389 0.669389
3.57255 0.147769 0.84586
3.33248 0.332482 1.06503
5.03884 0.46106 8.05725
3.1236 0.535302 0.860768
0.463558 0.785558 9.04353
5.21711 0.671476 8.29822
3.68312 0.245487 0.677494
3.56854 0.639787 0.930754
9.62013 2.66803 7.9518
5.12372 0.303299 0.561824
3.5239 0.320039 0.964721
3.21222 0.366688 1.17359
5.38046 0.243445 8.46388
3.39046 0.45743 0.790665
0.476582 0.805124 8.68593
5.21311 0.484676 8.09882
3.69165 0.243294 0.610319
3.09746 0.141132 5.40573
6.4393 0.197987 0.816783
5.16357 0.311784 0.567315
POINT_DATA 400
SCALARS particleColor float 3
LOOKUP_TABLE default
0.0489941 1 0.951006
1 5.96046e-08 0
1 5.96046e-08 0
1 0.519511 0
1 0.329814 0
1 0.707279 0
0 0.66129 1
1 0.839988 0
0 0.549566 1
0.86555 1 0.13445
0 0.778997 1
1 0.685627 0
1 0.768183 0
0.128378 1 0.871622
1 0.803709 0
1 0.672136 0
1 5.96046e-08 0
0 0.504908 1
0.101692 1 0.898308
0 0.778054 1
0 0.574306 1
0.282054 1 0.717946
1 0.410041 0
1 0.629744 0
0.990899 1 0.00910056
0.282603 1 0.717397
0.643123 1 0.356877
0.588484 1 0.411516
0.56588 1 0.43412
1 0.999863 0
0 0.830435 1
0 0.858395 1
0.99949 1 0.000509739
0.408652 1 0.591348
1 0.999877 0
1 5.96046e-08 0
1 0.141223 0
0 0.783419 1
0 0.752726 1
0.0612814 1 0.938719
0 0.651184 1
0.306929 1 0.693071
1 0.192754 0
1 5.96046e-08 0
0 0.884522 1
0 0.199697 1
0.0280789 1 0.971921
0 0.833878 1
0 0.424602 1
1 5.96046e-08 0
0.111177 1 0.888823
1 0.209349 0
0.332731 1 0.667269
1 0.479877 0
0.200486 1 0.799514
0 0.901592 1
1 0.971519 0
0.627078 1 0.372922
0.219415 1 0.780585
0 0.844508 1
0.528256 1 0.471744
0.412113 1 0.587887
1 5.96046e-08 0
0 0.348794 1
1 0.546786 0
0 0.909316 1
0 0.420755 1
0.935941 1 0.0640593
0 0.845063 1
0.127977 1 0.872023
0.187296 1 0.812703
0 0.74161 1
0.17035 1 0.82965
0 0.514238 1
0.786149 1 0.213851
1 5.96046e-08 0
0 0.85164 1
0.736089 1 0.263911
0.107514 1 0.892486
0 0.777928 1
0 0.514212 1
0.103186 1 0.896814
0 0.91958 1
0 0.456508 1
0 0.763472 1
0 0.955342 1
0.203796 1 0.796203
0.0307341 1 0.969266
0.10676 1 0.89324
0.436949 1 0.563051
0 0.0967239 1
0.897482 1 0.102518
0 0.781876 1
0 0.858766 1
0 0.718113 1
1 5.96046e-08 0
0.568529 1 0.431471
0.775447 1 0.224553
1 0.192418 0
0 0.182863 1
0 0.466943 1
1 0.140037 0
0 0.858111 1
0.426553 1 0.573447
1 0.608577 0
0 0.936774 1
0.602778 1 0.397222
0 0.485844 1
0 0.631296 1
1 0.0167672 0
0.849033 1 0.150967
0.0843587 1 0.915641
0 0.464472 1
0.0655377 1 0.934462
0 0.356612 1
0.705578 1 0.294422
0 0.606504 1
1 0.0848312 0
0.781101 1 0.218899
1 0.170388 0
0 0.59659 1
0.714995 1 0.285005
1 0.494064 0
0.523639 1 0.476361
0 0.767915 1
0 0.283942 1
0.37673 1 0.62327
0 0.499479 1
0 0.637182 1
0.140735 1 0.859265
0.0117969 1 0.988203
0 0.851401 1
0 0.977047 1
0.923223 1 0.0767775
0.7064 1 0.2936
0 0.646174 1
1 0.562003 0
0 0.958899 1
1 0.0323628 0
0 0.568075 1
0 0.581254 1
1 0.489309 0
0 0.575664 1
0 0.823417 1
0 0.577225 1
0 0.363067 1
0 0.732964 1
0.657489 1 0.342511
0 0.592435 1
1 5.96046e-08 0
0 0.551882 1
0 0.398583 1
0 0.839716 1
1 0.88793 0
0.349565 1 0.650435
0 0.475304 1
0 0.686962 1
0 0.52256 1
0.909567 1 0.0904327
0.488127 1 0.511873
0.050654 1 0.949346
0 0.887943 1
0.0266732 1 0.973327
0 0.275643 1
1 0.3189 0
0 0.755478 1
0 0.472559 1
0.090435 1 0.909565
1 5.96046e-08 0
0.758932 1 0.241068
0 0.617149 1
0.47556 1 0.52444
0 0.850546 1
0 0.857867 1
0 0.455151 1
0.306131 1 0.693869
0 0.329118 1
0 0.753938 1
0.11163 1 0.88837
1 0.143521 0
0 0.587295 1
0.734513 1 0.265487
1 0.712103 0
0 0.899055 1
0 0.794772 1
0 0.756204 1
0 0.408964 1
1 0.937361 0
0 0.666943 1
0 0.233468 1
0 0.360935 1
0 0.669298 1
1 0.814431 0
0 0.76664 1
1 0.570945 0
0 0.333216 1
0 0.658274 1
1 0.115781 0
0 0.51976 1
0 0.793227 1
0 0.724021 1
0 0.711298 1
0.253252 1 0.746748
0 0.824987 1
1 0.62369 0
0 0.654767 1
0 0.373499 1
1 0.244775 0
0.443167 1 0.556833
0.0214724 1 0.978528
0 0.315942 1
0 0.74337 1
1 0.341672 0
0 0.77758 1
0.0670386 1 0.932961
0 0.365786 1
0 0.925622 1
0 0.707502 1
1 0.769754 0
0 0.559026 1
0.0847851 1 0.915215
0.134544 1 0.865456
0 0.642475 1
0 0.798296 1
0 0.669494 1
0 0.535719 1
0.389633 1 0.610367
0 0.580483 1
0 0.506576 1
0 0.766995 1
0 0.465314 1
0 0.673142 1
0 0.821048 1
0 0.532173 1
0 0.599152 1
0 0.767961 1
0 0.590128 1
0 0.413088 1
0 0.548169 1
1 0.662547 0
0 0.774921 1
0 0.534528 1
0 0.390474 1
0 0.774715 1
0 0.173002 1
0.180257 1 0.819743
0.0782594 1 0.921741
0.0456125 1 0.954387
0.388126 1 0.611874
0 0.900641 1
0 0.692382 1
0.702158 1 0.297842
0 0.774104 1
0.0121033 1 0.987897
0 0.820123 1
0 0.695179 1
0.0252464 1 0.974754
0 0.337495 1
0 0.840121 1
0 0.701964 1
0 0.488856 1
0.647965 1 0.352035
0 0.805128 1
1 5.96046e-08 0
0 0.96288 1
0.964862 1 0.035138
0 0.821772 1
0 0.686495 1
0 0.344227 1
0 0.97642 1
0.093459 1 0.906541
0 0.992462 1
1 0.964364 0
0 0.919109 1
0.246725 1 0.753275
0.173849 1 0.826151
0 0.925767 1
1 0.890824 0
0 0.580533 1
0 0.551533 1
0 0.63612 1
0 0.601186 1
1 5.96046e-08 0
0 0.82395 1
0 0.868971 1
0 0.355613 1
0 0.343919 1
0 0.304299 1
0 0.648797 1
0.983619 1 0.0163808
0 0.123189 1
0 0.840736 1
0 0.483012 1
0 0.575502 1
0 0.422222 1
0 0.593454 1
0 0.43725 1
0 0.503284 1
0 0.929949 1
0 0.508561 1
0.336876 1 0.663124
0 0.526586 1
0.39545 1 0.60455
1 5.96046e-08 0
0 0.580259 1
0.0598782 1 0.940122
0.236516 1 0.763484
0 0.277804 1
0 0.969254 1
0 0.574342 1
0 0.79915 1
0 0.237908 1
0 0.384092 1
0 0.76301 1
0 0.758212 1
0 0.834841 1
0 0.910586 1
0 0.402825 1
0.302214 1 0.697786
0 0.388705 1
0 0.0356198 1
0 0.414571 1
0 0.675683 1
0 0.544947 1
0 0.583693 1
0 0.22204 1
0 0.607646 1
0 0.580497 1
0.0865244 1 0.913476
0 0.705101 1
0.0822201 1 0.91778
0 0.552151 1
0 0.695379 1
0 0.812896 1
0 0.263546 1
0 0.794173 1
0 0.973229 1
0 0.754577 1
1 0.424802 0
0 0.322859 1
0 0.78095 1
0 0.357745 1
0 0.537355 1
0 0.252616 1
0 0.526154 1
0 0.726222 1
0 0.611015 1
0 0.789947 1
0.109169 1 0.890831
0 0.811997 1
0 0.591405 1
0 0.317141 1
0 0.433318 1
0 0.27488 1
0 0.747827 1
0 0.314028 1
0 0.423288 1
0 0.761674 1
0 0.529126 1
0 0.775057 1
0 0.93693 1
0 0.543518 1
0 0.384801 1
0 0.49807 1
0 0.960612 1
0 0.681874 1
0 0.436164 1
0 0.357665 1
0 0.629887 1
0.241246 1 0.758754
0 0.833804 1
0.162166 1 0.837834
0 0.640205 1
0 0.874801 1
0 0.585725 1
0 0.669753 1
0 0.285295 1
0 0.735029 1
0 0.809137 1
0 0.367187 1
0 0.591256 1
0 0.599117 1
0.199593 1 0.800407
0 0.972088 1
0 0.716166 1
0 0.356275 1
0 0.264268 1
0 0.749017 1
0 0.552063 1
0 0.338039 1
0 0.741317 1
0 0.423418 1
0 0.704961 1
0 0.46552 1
0 0.669065 1
0 0.230164 1
0 0.252478 1
0 0.660467 1
0 0.706911 1
0 0.325556 1
