# vtk DataFile Version 3.0
Particle simulation
ASCII
DATASET POLYDATA
POINTS 400 float
3.38742 0 9.67637
0.261671 0.42356 4.10715
2.25435 1.78219 6.19424
2.05199 0.378565 5.66641
2.2589 0.857456 0.866889
2.41151 5.61104 7.38741
3.2762 1.64356 2.09767
6.49433 3.12559 3.88798
8.46432 0.281561 0.427252
2.25592 1.91747 9.38217
0.299827 0 0.949173
5.53324 9.3655 1.07084
8.76794 1.85628 5.74205
2.03679 1.35196 2.51968
6.68548 3.08189 7.63763
6.67015 3.72563 8.9664
2.00139 4.65915 0.16599
3.33362 0.242944 1.24832
5.14391 5.8662 9.4046
7.4258 0.95471 4.70156
3.51046 0.192309 1.39268
9.31756 1.82407 4.95916
3.61791 5.74677 5.87552
0.508166 3.60981 1.1706
8.25049 0.641819 3.42995
0.71752 3.67984 8.01048
3.18135 2.69635 7.74856
0.397003 1.20566 5.22202
9.38136 0.997579 2.19005
7.4697 3.16437 5.45609
2.27625 3.50364 5.98536
1.10194 5.80703 1.66125
2.10941 8.02385 6.15463
5.4543 0.976488 0.731083
7.47464 2.89582 4.93029
9.45609 2.37696 0.781621
8.74017 0.493482 7.01963
3.05738 0.567724 1.70796
6.82304 1.13435 2.60305
1.36581 0.256769 7.99353
8.00383 0.481902 5.61881
8.28489 3.19945 7.83874
1.26853 2.67386 1.25576
8.13033 1.7318 2.10327
9.10404 0.47855 5.15998
5.56943 0.482026 1.48845
2.84939 1.8851 9.5051
6.21691 2.7476 7.20374
5.86808 0.569752 1.14464
6.28724 3.39699 3.90735
3.72669 2.2858 3.226
6.46316 8.22575 3.44942
8.07348 0.846017 8.46753
3.53768 0.0944629 7.9142
6.24844 1.95861 9.46308
5.57946 0.452659 1.53304
9.07491 2.42423 8.28582
0.974089 1.36494 8.60909
6.28459 1.7544 0.467902
4.90881 8.75314 2.6076
3.24368 5.99131 3.14663
7.54397 8.63815 8.64169
8.50919 1.56613 9.10554
1.81821 0.304871 9.3253
1.58688 8.95401 2.48354
0.283523 1.77091 8.59253
2.96815 1.28617 8.84869
4.24039 4.67945 0.361631
6.4461 1.58511 0.470656
5.03054 0.116536 7.7834
8.04894 0.394561 4.95277
3.12333 0.498073 2.12417
4.09538 4.02979 7.84144
1.75455 0.681739 9.55171
0.579147 0.311397 5.88542
9.18002 1.03186 1.0827
3.43283 0.96369 9.01069
5.73577 0.981731 8.05875
5.89074 6.61567 0
7.37512 1.61223 9.74295
3.54039 0.465899 1.62535
3.73679 0.432635 2.3431
0.559787 1.28321 4.02527
3.22201 0.545505 1.21311
0.993715 0.634589 9.93972
4.13171 0.999411 8.525
3.56422 3.1105 1.14647
0.713853 0.0779714 6.09506
2.48428 8.18646 0.072613
7.47852 0.167917 0.45857
3.73884 0.285547 1.09006
2.00437 0.383914 1.52122
1.38009 0.0832899 7.9866
3.99847 0.787577 4.28977
1.10271 0.405754 9.76282
3.90841 0.976731 8.70252
7.45789 2.22522 6.4698
4.21999 6.54649 3.25427
0 4.65299 6.98413
7.45548 0.324348 0.362143
3.3931 0.295325 1.47176
6.59592 1.07369 3.62686
3.88919 0.542205 3.95424
7.44399 0.205959 4.38326
1.0869 4.81737 8.74276
0.660888 0.340358 0.216635
9.87535 1.14379 9.33332
5.50879 0.38539 0.991842
6.48044 0.461791 1.22862
8.47966 1.85612 0.681563
6.77857 8.31841 4.33282
2.05238 0.360937 8.69991
6.33917 3.73604 0.301194
4.91923 0.0695854 1.27176
2.88295 0.485022 1.91159
2.16503 0.367284 5.27987
5.3621 0.607766 7.90512
7.46258 0.971905 2.65688
7.38027 0.640003 1.61801
6.19672 2.07432 9.32263
3.33979 0.672284 1.86039
5.37616 7.20742 1.20041
7.59237 4.43648 2.92022
0.950631 4.99244 9.08919
6.39938 1.84178 9.3318
3.31713 0.73373 1.74427
9.25052 2.20083 9.50307
1.97635 0.420791 9.5182
1.26845 0.784237 10
0.964832 0.584369 6.99691
4.14139 0.418242 2.82764
0.179522 0.141505 6.88093
10 1.34933 9.28059
5.41138 0.0751695 7.76489
1.16627 6.74106 8.64739
1.13684 0.600687 0.617175
6.92126 8.81001 4.71601
1.99251 0.280619 9.32817
4.61067 6.92615 8.57338
5.63968 0.382118 8.44507
3.0126 0.49074 1.05359
0.725448 4.98887 9.22154
1.50011 6.57886 8.92105
6.38626 1.5666 9.32453
3.36216 0.649638 1.7057
3.8209 0.38404 2.63871
8.93568 0.631016 4.62627
0.194114 1.73661 0.211134
2.68544 0.344987 1.75509
0.85052 5.81244 2.95566
2.94558 0.434278 1.06612
8.89573 1.63184 6.96904
0.213544 1.53889 8.65391
7.43202 3.27982 7.3712
9.65663 8.74069 1.49646
5.65157 0.578857 1.4762
8.66578 0.798745 4.48996
3.10473 0.480875 1.55623
9.14593 0.0942805 0.935202
2.55149 1.46705 0.0171358
7.76379 1.65669 1.59618
2.11175 1.95394 6.22652
5.29057 0.705238 8.97356
3.2066 0.370971 0.225338
9.74144 0.534932 3.36877
8.6525 2.06998 9.30691
5.2433 0.391485 9.89356
5.56929 0.292659 8.14235
7.73251 2.38695 6.6109
8.40639 1.5052 0.199705
3.30052 0.122357 1.72212
2.05189 0.407874 1.78517
5.83722 1.93418 2.29723
1.3909 0.699609 0.594241
3.8595 0.196724 4.40335
9.54861 2.59597 0.456616
4.08505 0.873156 8.40098
3.79871 0.875477 8.99517
5.75562 1.24573 7.12196
0.896981 5.71885 0.564591
3.11323 0.517235 1.20126
0 3.80202 5.9549
4.32576 3.83772 3.00764
3.23018 0.913469 1.92377
5.42424 0.321243 9.05194
3.24967 0.23789 0.933255
3.69298 0.312221 1.80021
0.688221 0 5.04602
8.96996 0.843312 4.95457
3.34621 0.580252 1.43836
3.1169 0.445538 1.54607
3.24542 0.35472 1.3945
8.35688 2.37443 1.82068
1.2549 0.181332 0.350337
5.65316 2.53685 10
3.77652 0.383663 1.4146
3.46374 0.0260674 3.99402
0.0163972 6.30437 6.60249
3.46782 0.219626 1.45831
2.98035 0 1.46607
3.61761 0.411965 1.41442
5.67677 0.447345 1.45244
8.6546 0.201426 5.4479
4.16685 1.14864 8.44901
1.79262 6.95692 5.87693
5.34764 0.278798 8.33437
3.05686 0.394539 1.24731
2.1643 2.74304 9.67971
0.26455 0.656484 7.22742
7.43258 0.212734 0.366111
3.52267 0.358685 1.34341
5.20169 0.423368 1.21999
8.19968 1.68765 6.44312
6.60016 1.93376 9.4121
4.69988 0.553385 8.71064
5.41629 0.278967 8.72321
3.3329 0.107683 1.25002
3.78761 0.473291 1.36905
2.99746 2.29681 8.64641
7.37442 0.59468 0
5.65302 1.34714 0
9.93142 1.39961 9.18297
6.1827 0.132455 8.84717
3.65869 0.321727 0.847995
5.2493 0.84282 9.40681
3.53639 0.345389 1.12913
7.41708 9.02991 0.0537982
3.30175 0.344697 1.27344
3.52233 0.282329 1.49752
7.89654 0.777172 8.17134
1.93606 1.85919 5.75121
5.27769 0.598875 9.62424
8.43382 0.178451 4.64673
3.4991 0.313253 1.068
5.01897 0.717381 8.02638
0.567832 1.79453 3.94445
3.12536 1.3232 8.58201
3.16197 0.309119 3.87841
3.48075 0.562337 1.64363
1.04853 0.268876 7.83091
3.60987 0.648779 1.14806
3.92303 0.473609 1.16317
3.78411 0.867942 1.01804
3.01229 0.0192771 1.18752
5.34887 0.464283 8.50272
0.776334 0.258976 0.150056
1.95439 3.15159 1.57805
4.78982 1.10593 8.5345
6.41358 0.463139 1.3401
6.2407 0.32413 8.03543
3.54231 0.30318 0.976793
9.02916 4.78726 5.00841
5.55697 0.229711 8.40024
3.43633 0.770075 3.82081
8.85876 0.500779 4.92417
3.33657 0.391458 0.87542
9.43778 0.248078 1.1691
6.13296 0.423521 8.69711
5.66498 0.752582 1.1755
5.50025 0.0156973 8.51071
3.11265 0.551427 1.37236
7.7476 1.13512 2.25859
4.03055 1.04965 8.33845
9.50594 2.34946 0.391527
5.72234 0.260318 8.3873
8.27169 1.87907 2.37343
2.10116 0.76585 1.12612
5.1989 0.241599 8.52679
8.87654 0.739896 4.69266
3.21106 0.220939 0.885629
2.89465 0.471179 1.87053
2.00974 1.48304 2.85671
6.67883 1.20059 2.36558
3.48912 0.339545 4.14891
5.89931 0.14367 8.46874
5.67005 0.0362497 8.11102
2.91333 1.94448 8.88943
8.74919 9.77517 3.30448
0.435508 0.614699 7.43714
3.17804 0.312213 1.59157
7.12104 0 0.163442
5.26212 0.494406 1.4386
3.26468 2.47066 2.28018
2.09657 0.358429 9.07223
9.57438 4.42028 7.71821
8.38019 0.228695 4.79608
3.74375 0.478813 1.28656
3.42995 0.221376 2.46221
5.61191 0.249906 7.60412
1.3 5.4344 9.56025
9.01304 0.408978 1.24983
5.75929 0.354647 1.69024
2.92442 0.642244 1.80909
1.92171 0.268107 9.45442
5.56429 0.369237 8.63131
5.37528 0.304446 8.71229
3.81041 0.466014 1.31734
3.48981 0.701285 1.58897
4.00348 0.101111 2.75639
3.61379 0.460444 1.18316
7.25427 0.0930378 0.698673
6.32752 1.75774 9.07934
1.89659 2.98968 9.67511
4.60506 0.43822 6.20095
3.16022 0.741245 0.943973
0.640724 1.2084 5.48261
3.73409 0.556982 2.90045
3.18056 0.643852 1.67728
2.17822 1.7094 9.31652
3.72793 0.732902 3.67956
5.399 0.622753 8.13401
8.71957 1.69713 6.92039
8.41938 0.217276 4.91178
3.30865 0.499576 1.70454
3.35316 0.548448 2.53743
1.32225 0.430873 7.64941
2.88225 0.602052 2.63508
5.59165 0.713104 1.03063
5.04925 0.84909 0.801028
3.45084 0.631725 1.09794
5.42518 0.157232 8.48909
0.223687 1.42738 4.1698
5.33557 0.731483 9.04408
3.92529 0.295251 1.63593
7.53081 0.2591 0.335844
7.4994 0.228045 0.439728
3.57558 0.644674 1.71895
5.70551 0.632202 1.15802
5.66213 0.764068 1.07604
2.98241 0.345692 1.03833
8.44431 1.80891 8.97435
3.30656 0.216917 1.10502
5.27574 0.608554 8.65518
3.56288 0.474304 0.817341
4.98402 0.385645 0.787962
9.58868 4.83427 7.79849
5.58569 0.771093 0.698718
3.43772 0.510877 1.29792
8.39797 1.62661 0.755099
3.85623 0.279118 4.2827
5.26836 0.493412 8.26875
3.78616 0.527388 3.81929
5.21883 0.679492 7.85078
5.46776 0.318441 7.77777
3.64182 0.508378 1.56869
3.61769 0.393529 1.29866
5.71342 0.595919 1.37208
3.48799 0.430872 1.21859
3.46349 0.412099 1.12814
3.80419 0.413178 4.30912
2.84288 0.621205 1.28909
3.16091 0.467549 1.76662
5.95763 0.812161 7.72837
6.07481 0 8.14606
3.70658 0.622289 1.81571
3.76641 0.501038 1.49306
5.4016 0.641631 1.37186
5.0763 0.739757 8.43492
3.86655 0.29472 1.64108
3.50165 0.486914 1.38967
5.60698 0.619482 1.21661
5.81012 0.130404 8.42978
5.66913 0.14514 8.58739
3.57173 0.357416 1.38473
2.01383 0.431825 1.13519
8.60519 0.309942 4.84843
5.09327 0.31691 8.33175
4.95972 0.677856 7.65846
5.2318 0.027557 8.4714
2.54204 0.217342 1.68967
5.61024 0.702555 1.19645
8.96756 1.74857 6.95384
5.30522 0.318166 8.72809
3.18212 0.768573 1.18807
3.69232 0.532158 1.85334
8.69683 0.582218 4.92546
5.73386 0.124534 8.6653
6.08429 0.442768 8.14069
5.45599 0.349114 8.53223
3.20355 0.256442 1.33737
3.22795 0.375712 1.99749
3.71606 0.470524 1.49488
5.49317 0.39547 8.91089
3.44088 0.141577 1.05801
2.08886 0.302643 9.53423
5.53999 0.242928 8.75191
3.14041 0.239421 1.75976
3.16717 0.43073 1.17481
6.25325 1.78988 0.226218
5.72043 0.317252 1.05043
3.21407 0.35657 1.98266
3.4122 0.396148 1.55899
5.97428 0.460985 8.49124
3.53668 0.343285 1.3006
1.7817 0.53119 9.49534
5.73873 0.246866 8.49234
3.11463 0.222462 1.78487
3.63558 0.336341 4.0081
7.42993 0.346167 0.327015
5.73955 0.354872 1.04241
POINT_DATA 400
SCALARS particleColor float 3
LOOKUP_TABLE default
0 0.891703 1
0.717375 1 0.282625
0 0.389292 1
1 5.96046e-08 0
1 5.96046e-08 0
1 0.912515 0
0.475025 1 0.524975
0 0.960063 1
0.125607 1 0.874393
0 0.363613 1
0.807405 1 0.192595
1 5.96046e-08 0
0 0.365344 1
0 0.649874 1
1 5.96046e-08 0
0 0.517429 1
0 0.513043 1
0 0.306997 1
0 0.839929 1
0.149522 1 0.850478
0 0.235812 1
0.57681 1 0.42319
1 5.96046e-08 0
0 0.281851 1
0.138107 1 0.861893
0 0.891505 1
1 5.96046e-08 0
0.666476 1 0.333524
1 0.984433 0
0 0.962279 1
0 0.687207 1
0.02533 1 0.97467
0.386844 1 0.613156
0.203662 1 0.796338
0.0200524 1 0.979948
0.298905 1 0.701095
0.211611 1 0.788389
0 0.372749 1
0 0.489459 1
0.0787766 1 0.921223
0.223949 1 0.776051
0 0.392882 1
1 0.738498 0
0.500318 1 0.499682
0 0.385682 1
0 0.612965 1
0.705522 1 0.294478
0 0.464666 1
0 0.271003 1
0 0.784477 1
0 0.907234 1
1 5.96046e-08 0
0.0213244 1 0.978676
0 0.643695 1
0 0.319399 1
0 0.732126 1
0.0308966 1 0.969103
0 0.591119 1
0 0.304449 1
0.664604 1 0.335396
0.14038 1 0.859619
1 5.96046e-08 0
1 0.887514 0
0 0.559947 1
0 0.577847 1
0.016745 1 0.983255
0 0.662087 1
0 0.783399 1
0 0.702183 1
0 0.298708 1
0 0.751383 1
0 0.497134 1
0.179358 1 0.820642
0 0.644291 1
0.711493 1 0.288507
0 0.633809 1
0 0.455648 1
0 0.737162 1
1 0.712997 0
0.581063 1 0.418937
0 0.770921 1
0 0.578696 1
0 0.815604 1
0 0.79647 1
0 0.741654 1
0 0.671973 1
0.138768 1 0.861232
0.70414 1 0.29586
0.293381 1 0.706619
0 0.518169 1
0 0.720364 1
0 0.644143 1
0 0.959122 1
0 0.206711 1
0 0.779339 1
0.689788 1 0.310212
0.854333 1 0.145667
0 0.972977 1
1 0.030538 0
0 0.266702 1
0 0.673685 1
0.167574 1 0.832426
0 0.492824 1
0.324754 1 0.675246
1 0.763319 0
0 0.650455 1
0 0.784166 1
0 0.695605 1
0 0.478287 1
0 0.72599 1
0 0.94471 1
0 0.615286 1
0 0.652917 1
0 0.749277 1
0 0.412553 1
1 5.96046e-08 0
0 0.301896 1
0 0.810792 1
0 0.532685 1
0 0.972702 1
0 0.382466 1
0.988123 1 0.0118772
0 0.825956 1
0 0.998497 1
0 0.613393 1
0 0.780499 1
0.763174 1 0.236826
0 0.18482 1
0.00864629 1 0.991354
1 5.96046e-08 0
0 0.890027 1
0.311416 1 0.688584
0.857011 1 0.142989
0.510844 1 0.489156
0.506239 1 0.493761
0 0.34756 1
1 0.0200408 0
0 0.648544 1
0.780616 1 0.219384
0 0.830464 1
0 0.389165 1
0.0600373 1 0.939963
1 0.357212 0
0 0.185548 1
0 0.871289 1
0 0.65638 1
0 0.816104 1
0 0.783887 1
0 0.539339 1
1 0.476572 0
0 0.463628 1
0 0.31649 1
0 0.966851 1
0 0.652542 1
1 0.00795889 0
0 0.611148 1
0 0.97293 1
0 0.820544 1
1 5.96046e-08 0
0 0.612973 1
0.645137 1 0.354863
0 0.518125 1
0 0.430732 1
0 0.510876 1
1 0.101321 0
0 0.25442 1
0 0.543873 1
0 0.728153 1
1 0.490532 0
1 0.0561975 0
0 0.451805 1
0.130545 1 0.869455
0 0.542087 1
0 0.594412 1
0 0.771341 1
0.0337062 1 0.966294
0 0.679992 1
0 0.442968 1
0 0.763148 1
0.00216843 1 0.997832
0 0.431497 1
1 0.588929 0
0 0.673027 1
0 0.670723 1
0 0.331732 1
0.267465 1 0.732535
0 0.459418 1
1 0.644926 0
0 0.402313 1
0 0.297689 1
0 0.189607 1
0 0.545495 1
1 5.96046e-08 0
0.6936 1 0.3064
1 0.699104 0
0 0.71209 1
0 0.458767 1
1 5.96046e-08 0
0 0.670108 1
0 0.582932 1
0 0.927471 1
0 0.547091 1
0 0.546297 1
0 0.528857 1
1 5.96046e-08 0
0 0.538859 1
0 0.773947 1
0 0.931028 1
0.447336 1 0.552664
0 0.17149 1
0.0191418 1 0.980858
0 0.618274 1
0.164437 1 0.835563
0 0.859315 1
0.656594 1 0.343406
0 0.243655 1
0 0.560206 1
0 0.825858 1
0.0486244 1 0.951376
0 0.686059 1
0.969874 1 0.0301258
0 0.575862 1
0 0.474428 1
0 0.645413 1
0 0.26824 1
0.0223363 1 0.977664
1 0.896066 0
0 0.728401 1
0 0.679203 1
0.301312 1 0.698688
0.320267 1 0.679733
0 0.775235 1
0 0.855339 1
0 0.695218 1
0 0.408557 1
0 0.44692 1
0.240203 1 0.759797
0 0.568748 1
0 0.773191 1
0.642784 1 0.357216
0 0.841694 1
0 0.837402 1
0 0.453673 1
0 0.525135 1
0 0.602217 1
0.0600892 1 0.939911
0 0.859239 1
0.0245465 1 0.975454
0.194292 1 0.805708
0 0.234004 1
0 0.543177 1
0 0.884727 1
0 0.489909 1
0 0.335606 1
0 0.614859 1
0 0.658957 1
0 0.786513 1
0 0.616313 1
0.196972 1 0.803028
0 0.480035 1
0 0.705775 1
0 0.993007 1
0 0.622785 1
0.601138 1 0.398862
0.0211176 1 0.978882
0.144665 1 0.855335
0 0.207184 1
0 0.95783 1
0 0.639827 1
0 0.788148 1
0 0.851227 1
0.523245 1 0.476755
0.175161 1 0.824839
0 0.984485 1
0 0.935053 1
0 0.602223 1
0.579943 1 0.420057
1 5.96046e-08 0
0 0.150059 1
0 0.291892 1
0 0.851461 1
0 0.557661 1
1 0.909569 0
0 0.908726 1
0 0.531745 1
0 0.626093 1
0 0.573934 1
0 0.640805 1
0 0.640779 1
0.647043 1 0.352957
0 0.817948 1
0 0.97746 1
0 0.679011 1
0 0.726686 1
0 0.571033 1
0 0.678017 1
0 0.895269 1
0 0.855147 1
0 0.683043 1
0 0.875455 1
0 0.629967 1
0 0.573637 1
0 0.940257 1
0 0.882613 1
0 0.402592 1
0.31993 1 0.68007
0.0420568 1 0.957943
0 0.712138 1
0 0.846091 1
0 0.525234 1
0 0.619862 1
0 0.746514 1
0 0.661747 1
0 0.983781 1
0 0.782759 1
0.0167529 1 0.983247
0 0.642181 1
0.112133 1 0.887867
0 0.535671 1
0.0698113 1 0.930189
0 0.637523 1
0 0.889663 1
0 0.434373 1
0 0.474222 1
0 0.881077 1
0 0.312303 1
0 0.503209 1
0 0.838753 1
0.294229 1 0.705771
0 0.905804 1
0 0.348285 1
0 0.551731 1
0 0.720081 1
0 0.51195 1
0 0.0668962 1
0 0.849213 1
0 0.785033 1
0 0.573437 1
0 0.455831 1
0 0.470708 1
0 0.866681 1
0 0.572316 1
0 0.831737 1
0 0.911189 1
0 0.107797 1
0 0.589333 1
0 0.507525 1
0 0.764141 1
0 0.648241 1
0 0.665901 1
0 0.762585 1
0 0.571976 1
0 0.660974 1
0 0.487467 1
0 0.783968 1
0 0.498822 1
0 0.714567 1
0 0.7115 1
0 0.135013 1
0 0.758364 1
0 0.443838 1
0 0.445233 1
0 0.641154 1
0 0.188442 1
0 0.442813 1
0 0.237888 1
0 0.190352 1
0 0.805983 1
0 0.567149 1
0 0.863631 1
0 0.316006 1
0 0.424038 1
0 0.38593 1
0.174039 1 0.825961
0 0.504301 1
0 0.637388 1
0 0.551492 1
0 0.478397 1
0 0.79105 1
0 0.474735 1
0 0.368993 1
0 0.228343 1
0 0.962501 1
0 0.355528 1
0 0.361141 1
0 0.205601 1
0 0.612664 1
0 0.857676 1
1 5.96046e-08 0
0 0.350212 1
0 0.356559 1
0 0.574851 1
0 0.490516 1
0 0.695917 1
0 0.735218 1
0 0.249654 1
0 0.580793 1
0 0.607318 1
0 0.856852 1
0 0.422082 1
