# vtk DataFile Version 3.0
Particle simulation
ASCII
DATASET POLYDATA
POINTS 400 float
0.738853 9.49265 2.63671
0.168558 7.27551 1.27415
7.7226 7.28329 4.1784
2.5494 0.90795 5.42625
3.36425 1.54587 6.78295
5.24886 1.30532 7.00778
5.62519 8.44488 0.243529
0.381626 4.31137 8.92531
3.73484 4.01042 0.692923
9.52764 0.927879 5.32965
2.69864 3.67561 4.67151
4.16459 5.03438 8.30891
9.60748 7.47316 7.58371
1.07697 9.54872 0.0227765
7.41768 9.9321 9.17751
9.57697 9.76529 3.89951
4.12134 0.782874 6.09574
2.22902 1.78408 1.23097
3.80233 8.29321 6.91622
0.305826 5.80636 1.76591
3.66107 4.45967 0.952122
2.08621 8.43718 4.06993
8.06131 6.80055 2.52824
0.0606976 8.24508 6.83312
6.50138 9.49819 5.89617
5.46723 3.27067 9.07554
2.14381 3.06726 7.04136
0.975684 6.3789 1.46932
7.87519 3.85709 0.42959
9.44796 7.1272 1.93415
1.31363 0.807158 5.00147
5.34717 3.19857 10
7.88915 1.93329 9.74052
3.26081 5.63713 3.45755
6.70793 4.38774 6.38561
5.26029 6.58109 8.35767
3.98677 7.62444 5.97429
9.84692 4.53315 0.450289
1.40947 5.25629 2.63475
1.68426 1.76474 8.7788
4.49386 3.59854 4.44694
0.75033 9.72678 7.66003
10 7.09906 3.13934
0.528727 9.5096 4.80099
5.40324 7.22515 0.112898
3.08352 7.58984 0.550515
4.11111 2.86872 5.48611
5.69133 6.9501 0.291347
0.580567 2.19134 4.92136
2.6852 2.19219 3.88858
6.29511 2.29007 7.91451
0.463055 8.19526 0.0181495
0 0 7.68209
4.71308 5.73954 0.103338
0.862099 3.33453 7.3703
7.71705 0.803308 7.01795
4.36336 2.7818 9.12044
7.59205 1.72121 3.01973
0.461745 2.39013 0
0.118013 7.18514 8.18024
6.73775 1.48078 10
3.32883 7.66489 5.73858
3.30737 5.75673 7.24667
0.24025 2.33061 6.88839
1.91557 1.93424 4.72107
2.56607 4.18985 2.42887
5.97019 6.37208 1.46096
10 5.19862 0.708651
4.88207 0.238123 0.435701
0.765622 4.78826 5.53613
5.20825 6.37472 6.74006
2.30353 7.8255 6.91104
8.99905 1.67701 9.79354
8.84631 3.26683 7.35326
2.06087 5.71759 7.22522
8.99396 0.27739 6.91654
6.45611 8.01237 1.41304
3.34518 2.87187 7.22183
2.97525 7.36284 8.13611
8.38024 1.30138 6.58953
9.55123 4.01718 9.31295
7.23596 5.50975 9.62898
1.54595 1.75661 5.59084
9.62758 7.40926 9.77994
2.2248 8.55961 7.06291
3.77729 4.17115 4.69746
8.87971 4.02057 0
2.01422 0.36937 5.21564
3.44248 4.15294 5.14477
7.66626 3.1499 1.89905
1.93738 7.06786 2.01904
0.6074 2.09144 4.05086
5.01316 1.33587 6.30687
4.09308 6.82373 2.25353
9.29775 5.19838 7.60662
5.32871 0.570635 8.53616
8.08373 4.38761 3.98939
9.43924 0.933724 2.08106
1.7445 3.39266 1.1106
0.955064 0.894502 2.38037
8.14451 8.56889 9.30466
6.40887 2.73009 3.57409
2.06525 3.99034 0.512169
9.32419 1.96817 8.59976
7.78785 1.10654 6.17323
4.96548 5.44113 7.83307
6.06715 4.88249 5.66331
4.64142 5.30385 2.22968
5.78789 3.64297 7.60588
0.546273 2.27055 8.43945
2.44113 4.92481 5.34584
7.27439 3.38415 1.15716
8.11647 3.41552 3.41814
1.8009 7.55431 1.42358
9.3936 4.61869 7.49522
2.35665 1.73511 6.78894
1.88896 8.82568 3.79395
1.08297 9.54195 4.40614
3.57572 0.734048 7.30341
7.40564 3.28027 3.32575
5.00013 0 1.23021
7.17824 10 9.54011
6.36322 2.59316 1.41995
1.09264 8.92488 3.56752
4.86989 6.0699 5.27321
1.25879 9.22915 4.47581
4.05138 7.35303 8.83246
10 1.8309 4.34133
7.37674 2.70083 0.190481
8.77139 8.03952 6.01605
5.72948 5.43327 4.1548
0.655725 1.47527 5.53688
9.45033 5.45199 2.33788
6.55646 8.92828 5.19001
8.26757 4.45554 10
9.1234 2.22709 4.92433
6.13004 8.33052 3.41143
7.23392 4.52168 3.43261
8.04546 6.22196 8.2751
2.38701 4.54919 5.49495
5.36024 2.98539 8.9831
7.50928 4.22988 3.8734
6.24772 5.61936 2.01822
3.7345 0.859626 3.92812
0.329332 0.251981 9.31206
9.54451 3.04556 8.92876
7.67431 4.16355 4.69886
0.816162 1.73018 3.87368
5.96437 3.54721 1.63045
8.58778 6.30212 9.97365
7.63635 0.640633 7.3804
1.03324 6.49673 7.35323
3.89442 0.505486 8.1956
1.14385 10 7.94007
7.44738 0.778162 6.91885
2.47176 8.94408 5.19075
8.57623 1.35868 10
2.60111 0.14767 1.96576
0.401762 8.94365 1.78297
2.10588 8.21632 7.99541
1.45105 2.89305 7.49406
5.68286 2.11324 0.499039
9.85514 6.77441 1.83958
0.518952 5.91306 6.7425
4.03758 1.73007 9.84639
7.67729 6.82796 4.05258
9.2495 0.0801558 4.8893
8.51904 7.88269 5.25104
0.190293 5.89079 6.80164
8.3477 1.9347 4.05449
1.39543 8.91755 7.34398
2.76868 10 1.92864
6.24435 9.78076 9.3403
2.6794 1.00209 9.31425
9.28246 3.96862 3.20563
7.95391 7.97802 0.431207
4.65185 8.81678 0.375376
8.04197 2.65139 7.362
6.72889 7.25185 8.10445
9.45584 1.2375 3.7444
0.930271 4.59377 4.27722
10 2.12092 10
2.40736 0.613022 7.98251
7.10296 2.90078 8.12945
1.61673 4.72597 4.0714
1.77045 5.09353 7.54179
7.79148 0.327206 7.1407
3.47784 9.65846 9.60635
0.0211593 6.56176 0.800861
9.08262 5.84678 0.826776
1.74561 9.33076 9.89931
3.52775 6.14289 5.72399
2.88194 0 8.41931
0.178476 0.0938379 1.10606
0 0.344905 7.1718
8.64718 0.2451 8.54327
10 4.29122 0
1.21226 1.40231 4.31851
1.09849 3.22811 5.88667
9.81601 5.19642 8.88113
8.28539 1.29142 5.45786
4.22475 1.41663 3.0281
9.28918 10 2.34103
8.57223 7.13608 6.28364
10 5.23775 9.00865
9.07816 2.53319 7.34521
3.54642 5.07776 4.87404
3.99443 1.79955 7.97448
0 7.99541 0
1.14204 2.43257 5.50101
1.27116 1.76339 5.70727
6.77613 3.73713 6.38135
8.78802 2.70438 7.51532
5.25071 1.99925 2.86026
4.99196 6.36689 4.68728
7.80588 0.298477 5.60959
9.85913 9.76686 8.48852
0.530107 5.97044 0.71422
1.42564 9.67203 8.8755
9.59092 1.85294 0.418067
0.166104 9.62035 7.66669
0.083352 9.36006 4.91186
9.72234 1.12391 6.34392
8.47366 1.60349 5.78237
2.72972 9.74758 1.52249
0.775631 4.39143 5.52749
9.144 9.96987 9.62866
5.59009 3.73791 4.89206
7.69165 0.554686 7.36938
6.72883 0.949699 1.63178
0.0742205 3.85108 2.13155
7.79871 1.14525 6.62323
7.4129 2.12727 1.32761
6.42701 8.35059 5.01531
1.2287 9.26489 2.06487
8.82402 7.85808 3.7428
7.80432 2.40559 6.98258
4.93049 9.70375 2.04143
7.40789 0.378393 7.51333
2.59089 8.2734 1.45216
7.74597 0.851898 7.09219
1.88923 3.00296 7.46257
4.6671 0.313232 5.42894
9.2748 6.37223 2.74734
8.45746 7.59454 1.70198
1.02927 2.23322 7.52473
2.36424 7.13463 9.14237
7.71982 10 6.59718
3.40179 6.41995 4.50268
3.04376 2.2777 8.57875
8.08029 3.77483 2.30731
0.424784 2.92408 2.09143
3.71763 0.287907 7.03772
7.52897 1.52088 4.26262
4.76107 5.42814 2.40494
2.46274 2.15657 6.88324
1.89946 3.14189 6.62763
5.3291 0 9.95025
0.808826 8.19795 2.4473
2.91524 9.49379 5.49296
2.68597 2.46877 0.703489
9.86123 4.95662 4.41563
6.67476 5.82271 6.77104
4.14201 9.80367 6.55144
6.44537 3.99811 1.45141
5.7882 5.02523 5.37142
2.65283 2.07379 10
9.14516 6.27204 3.09936
4.91922 9.59545 9.77192
0 8.86496 3.65255
0.608906 7.60045 0.253851
5.75976 0.266283 6.7679
7.40154 7.14368 3.70622
8.84904 6.1851 3.69927
8.93502 7.209 3.61804
0.542209 3.65923 0
1.15049 6.87499 1.96979
1.48121 7.57651 0
8.23266 5.59441 6.81067
5.19414 0 6.59056
4.87068 9.82165 5.84795
1.59396 1.78108 9.90205
8.25072 1.36134 5.17656
0.637448 9.7836 1.75327
10 3.58015 2.43342
5.7464 0.353997 9.34956
1.05216 0.802121 4.49984
1.33047 0.558136 7.67477
3.88196 7.224 8.4933
7.57135 0.135267 8.92863
9.69083 0.509748 2.76361
2.07758 4.11429 2.74364
7.47057 5.23017 9.85644
7.88381 0.839746 2.39753
5.16509 9.84674 3.0484
5.24839 2.28444 7.85578
7.92998 0.0894313 7.35717
7.29441 0.532139 7.80568
7.81765 0.405142 7.39152
7.14617 0.613582 7.26411
10 5.64752 5.93791
4.34838 8.14527 3.25834
7.80596 0.450843 7.3356
2.13798 2.729 8.51173
7.55334 0.306907 7.60268
4.65158 9.58003 9.38858
8.27427 1.44288 5.59966
7.59054 0.629126 7.25563
7.84768 3.18693 5.42892
0.256893 0.287528 0
8.29364 1.17241 3.96165
4.56704 2.33688 7.50632
0.820626 1.50797 4.49183
7.50934 0.607379 7.16898
5.28801 4.51629 7.06485
8.19783 6.28045 9.51977
6.47105 9.50747 6.10399
8.13731 0.398353 6.87431
4.41481 1.2901 2.19977
1.58374 2.9318 1.28323
0.273777 9.23654 6.62768
4.69228 1.18276 9.60184
1.60467 1.06455 8.30075
7.65781 0.471218 7.35693
7.75489 0.384319 7.09288
2.61503 9.13234 5.51487
8.10901 1.19557 5.21194
2.82417 7.90095 0.495164
9.76575 6.76327 10
7.35753 0.368296 7.22196
9.60006 7.5384 7.27975
4.62209 2.50911 2.08126
8.20617 3.47393 0
8.86148 8.67298 0.659579
5.22765 4.02973 8.20018
9.89077 3.08741 6.13374
9.00826 4.25985 6.37814
7.61953 0.749719 7.25857
4.0894 5.47424 3.00694
4.56475 0.333221 7.6484
5.54341 3.87076 4.61369
3.47587 10 5.38547
2.98893 9.82596 2.50807
1.53836 0.690944 8.19706
7.47311 0.334357 7.69898
0.72303 8.45139 9.45236
8.4026 1.65685 0.507691
7.91323 0.352733 7.45721
7.61859 0.645171 7.29913
5.71186 8.07412 0
7.20741 0.875295 7.51976
7.44778 0.167362 7.27751
0.999453 9.58594 0.456056
0.879073 7.19683 4.12933
4.23946 7.50244 8.21858
7.52111 0.4704 7.50478
9.00242 2.66546 7.2817
7.47711 2.24529 4.66255
7.58505 0.553956 6.8439
7.93582 0.349044 7.33959
2.23748 0.906975 9.5636
1.47223 0.993757 8.42482
1.34758 0.907534 7.94714
7.56016 0.410459 7.45179
2.42989 6.31463 5.92862
0.797127 3.45294 9.45323
1.48203 0.899642 8.19857
6.22243 7.09863 0.321224
5.88644 7.92719 0.744369
1.69087 8.44437 5.01792
8.37749 1.33275 0.397703
9.53828 4.95066 9.84626
1.16726 10 1.85243
7.40571 0.414095 7.40756
7.42008 0.697346 7.00761
8.24084 2.97589 3.46042
1.52674 0.865202 8.23133
8.61831 0.95614 6.19609
2.37955 1.35217 1.22459
7.62768 0.432946 7.57178
7.89114 0.997596 7.08655
7.43913 0.271944 7.26426
2.01792 6.76913 5.70875
7.73398 0.3904 7.67015
8.76246 0.501435 0.844893
1.46282 0.902339 8.1659
7.75329 0.641442 7.06648
7.33303 0.207354 7.38042
5.95149 2.65696 9.05521
9.78846 5.07761 4.75262
7.93839 0.274189 7.4649
7.68163 0.571148 7.0732
5.03659 9.84076 3.35998
7.77675 0.152853 7.59338
6.16673 8.40356 9.84824
2.22658 2.99688 3.56773
7.61291 0.706891 7.21127
6.63204 4.86334 5.89006
8.46877 4.64898 1.70139
4.75751 0.762483 1.68772
POINT_DATA 400
SCALARS particleColor float 3
LOOKUP_TABLE default
0.0711715 1 0.928829
0 0.729225 1
1 5.96046e-08 0
1 5.96046e-08 0
1 5.96046e-08 0
0.3683 1 0.6317
0 0.926253 1
1 5.96046e-08 0
0.0021119 1 0.997888
1 0.776019 0
1 0.843963 0
1 0.320423 0
0 0.989485 1
1 5.96046e-08 0
1 5.96046e-08 0
1 5.96046e-08 0
1 0.995228 0
1 0.606758 0
0 0.880572 1
1 5.96046e-08 0
0.440479 1 0.559521
1 5.96046e-08 0
1 5.96046e-08 0
0 0.872167 1
1 5.96046e-08 0
0 0.734468 1
1 5.96046e-08 0
1 5.96046e-08 0
1 0.244814 0
1 5.96046e-08 0
1 5.96046e-08 0
1 5.96046e-08 0
0.650842 1 0.349158
1 5.96046e-08 0
1 5.96046e-08 0
1 5.96046e-08 0
1 0.24868 0
1 5.96046e-08 0
1 5.96046e-08 0
0.458338 1 0.541662
1 5.96046e-08 0
0.723186 1 0.276814
1 0.247219 0
1 5.96046e-08 0
1 0.491773 0
1 0.602346 0
0.443452 1 0.556548
1 0.90487 0
1 0.91287 0
0.075991 1 0.924009
0.142176 1 0.857824
1 5.96046e-08 0
1 5.96046e-08 0
0 0.459355 1
1 5.96046e-08 0
1 0.460728 0
1 5.96046e-08 0
0.343181 1 0.656819
0.0644644 1 0.935536
0.172555 1 0.827445
1 5.96046e-08 0
0.702838 1 0.297162
1 5.96046e-08 0
0 0.982592 1
1 5.96046e-08 0
0.976062 1 0.0239385
1 0.63602 0
0.561031 1 0.438969
0.395964 1 0.604036
1 0.581331 0
0.758352 1 0.241648
1 5.96046e-08 0
1 5.96046e-08 0
0 0.744961 1
1 0.389291 0
1 5.96046e-08 0
0.5498 1 0.4502
1 5.96046e-08 0
1 5.96046e-08 0
1 5.96046e-08 0
1 5.96046e-08 0
1 5.96046e-08 0
0.56964 1 0.43036
1 0.594952 0
1 0.0547612 0
1 0.414043 0
1 0.963343 0
1 5.96046e-08 0
1 5.96046e-08 0
1 0.894083 0
0 0.949667 1
0 0.676515 1
1 0.335237 0
1 0.699353 0
1 5.96046e-08 0
1 5.96046e-08 0
1 5.96046e-08 0
1 5.96046e-08 0
0 0.954013 1
1 0.696847 0
1 0.783672 0
1 0.979426 0
1 0.948765 0
0.90886 1 0.0911402
1 0.88852 0
1 5.96046e-08 0
0 0.871713 1
1 5.96046e-08 0
1 5.96046e-08 0
1 5.96046e-08 0
1 5.96046e-08 0
1 5.96046e-08 0
0 0.741649 1
0.785499 1 0.214501
0.98425 1 0.0157495
1 0.439261 0
1 0.201185 0
1 0.834499 0
1 0.628375 0
1 5.96046e-08 0
1 5.96046e-08 0
1 5.96046e-08 0
1 5.96046e-08 0
1 5.96046e-08 0
1 0.542699 0
0.347782 1 0.652218
0.646118 1 0.353882
1 5.96046e-08 0
0.215617 1 0.784383
1 5.96046e-08 0
1 0.874233 0
0.110284 1 0.889716
1 0.608785 0
1 5.96046e-08 0
1 0.182301 0
0.776861 1 0.223139
0.327839 1 0.672161
1 0.450339 0
1 0.0106469 0
0.459065 1 0.540935
0.946657 1 0.0533425
0 0.884415 1
1 5.96046e-08 0
1 5.96046e-08 0
0.123606 1 0.876394
1 5.96046e-08 0
1 0.292561 0
1 0.800257 0
1 5.96046e-08 0
1 0.454545 0
0 0.225717 1
1 5.96046e-08 0
1 0.587512 0
1 5.96046e-08 0
1 5.96046e-08 0
0.0998512 1 0.900149
0.504767 1 0.495233
1 0.0268234 0
0.194333 1 0.805667
1 5.96046e-08 0
1 0.987404 0
0.734353 1 0.265647
0.923271 1 0.0767287
0.0912382 1 0.908762
1 0.677181 0
1 0.939756 0
1 0.879295 0
1 5.96046e-08 0
1 0.613139 0
1 5.96046e-08 0
1 0.992576 0
1 5.96046e-08 0
1 0.197503 0
0.823882 1 0.176118
1 5.96046e-08 0
0.992677 1 0.00732273
1 5.96046e-08 0
1 0.609259 0
1 0.551341 0
0.574958 1 0.425042
0.0480772 1 0.951923
1 5.96046e-08 0
0.618406 1 0.381594
0.786499 1 0.213501
1 0.515815 0
1 5.96046e-08 0
0 0.499857 1
1 5.96046e-08 0
0 0.430326 1
1 5.96046e-08 0
1 5.96046e-08 0
0.130609 1 0.86939
1 5.96046e-08 0
0.30323 1 0.69677
0.728997 1 0.271003
0.673991 1 0.326009
1 5.96046e-08 0
1 5.96046e-08 0
1 5.96046e-08 0
0.00333804 1 0.996662
0 0.48046 1
1 0.492997 0
1 0.807312 0
1 5.96046e-08 0
1 5.96046e-08 0
0.0965768 1 0.903423
1 5.96046e-08 0
1 5.96046e-08 0
1 5.96046e-08 0
1 5.96046e-08 0
1 5.96046e-08 0
1 0.884534 0
0.652181 1 0.347819
1 5.96046e-08 0
1 0.654123 0
0.727413 1 0.272587
0.685929 1 0.314071
1 5.96046e-08 0
1 0.222243 0
1 5.96046e-08 0
0 0.874669 1
1 5.96046e-08 0
0.0981439 1 0.901856
0 0.376601 1
1 0.852811 0
1 0.87829 0
0.384946 1 0.615054
1 0.0307852 0
0 0.56035 1
1 5.96046e-08 0
1 0.314627 0
0.0426401 1 0.95736
0.151893 1 0.848107
1 5.96046e-08 0
0.850361 1 0.149639
0.128518 1 0.871482
1 5.96046e-08 0
1 0.0247853 0
0 0.365301 1
1 5.96046e-08 0
0 0.478459 1
1 0.169361 0
0.195231 1 0.804769
0.451048 1 0.548952
1 0.633694 0
0.361635 1 0.638365
1 0.22091 0
1 5.96046e-08 0
1 0.259528 0
0.448217 1 0.551783
1 0.737974 0
0 0.891522 1
1 5.96046e-08 0
1 5.96046e-08 0
1 0.709962 0
0.800136 1 0.199864
1 0.667646 0
0.756999 1 0.243001
0.397918 1 0.602082
0.106137 1 0.893863
0.648919 1 0.351081
1 0.939047 0
1 5.96046e-08 0
1 5.96046e-08 0
0.715865 1 0.284135
0.609797 1 0.390203
1 0.871918 0
1 5.96046e-08 0
1 0.707636 0
1 5.96046e-08 0
0.332375 1 0.667625
0.884088 1 0.115912
1 0.500759 0
1 0.974859 0
1 0.11985 0
1 5.96046e-08 0
1 0.177061 0
1 5.96046e-08 0
1 5.96046e-08 0
1 5.96046e-08 0
1 0.653116 0
0.950447 1 0.0495533
0.944837 1 0.0551628
1 5.96046e-08 0
1 5.96046e-08 0
1 0.730567 0
0.713519 1 0.286481
0.691835 1 0.308165
1 5.96046e-08 0
1 5.96046e-08 0
1 0.774613 0
1 5.96046e-08 0
0.29513 1 0.70487
1 0.825364 0
1 0.579938 0
1 0.977804 0
0 0.345598 1
0 0.572712 1
0 0.475937 1
0 0.517199 1
0.861541 1 0.138459
1 0.57793 0
0 0.798578 1
0.591679 1 0.408321
0 0.11705 1
1 5.96046e-08 0
0 0.173757 1
0 0.566423 1
1 0.956999 0
1 0.978681 0
0.843985 1 0.156015
1 5.96046e-08 0
1 0.918216 0
0 0.619546 1
1 0.610008 0
1 0.786933 0
1 5.96046e-08 0
0 0.492645 1
1 5.96046e-08 0
0.737131 1 0.262869
0.736395 1 0.263605
0.559749 1 0.440251
0 0.304197 1
0 0.871564 1
0 0.607915 1
0.125052 1 0.874948
0 0.607989 1
1 0.894331 0
1 5.96046e-08 0
0 0.421931 1
1 5.96046e-08 0
1 0.742722 0
1 5.96046e-08 0
1 5.96046e-08 0
0.355364 1 0.644636
0.587933 1 0.412067
0.988394 1 0.0116059
0 0.586066 1
1 5.96046e-08 0
1 5.96046e-08 0
1 0.850358 0
1 5.96046e-08 0
1 0.0740103 0
0 0.454831 1
0 0.827705 1
1 5.96046e-08 0
0 0.792528 1
0.381605 1 0.618395
0 0.731742 1
1 5.96046e-08 0
0 0.693249 1
0 0.534287 1
0.39458 1 0.60542
1 0.277161 0
0.828783 1 0.171217
0 0.754454 1
1 0.236189 0
1 0.829569 0
0.12021 1 0.87979
0 0.872415 1
1 5.96046e-08 0
0 0.537303 1
0 0.465323 1
0 0.475829 1
1 0.237553 0
1 5.96046e-08 0
0 0.115735 1
0.750897 1 0.249103
1 0.548212 0
0.866577 1 0.133423
0 0.601486 1
1 0.286545 0
1 0.87348 0
0.113903 1 0.886097
0 0.752973 1
0.891183 1 0.108817
0 0.33204 1
1 5.96046e-08 0
1 0.545465 0
0.219991 1 0.780009
0 0.482682 1
0 0.507199 1
1 5.96046e-08 0
0 0.889038 1
1 5.96046e-08 0
0 0.526142 1
0 0.794666 1
0 0.33823 1
1 5.96046e-08 0
0 0.826701 1
0 0.289101 1
0 0.916724 1
1 0.163619 0
0 0.351484 1
1 5.96046e-08 0
1 5.96046e-08 0
0 0.38451 1
1 0.856353 0
1 5.96046e-08 0
1 0.523685 0
