# vtk DataFile Version 3.0
Particle simulation
ASCII
DATASET POLYDATA
POINTS 400 float
4.68996 2.53872 9.34246
0.128121 5.31728 9.20055
9.59106 5.14874 8.13905
8.22113 5.46943 1.45031
5.43755 9.68784 3.3238
1.75026 1.11473 1.21846
8.66415 2.6846 6.99615
4.01071 0.569816 7.51356
8.88116 5.09378 7.03636
2.32956 0.315284 6.38438
3.3813 1.37786 6.05061
6.13696 6.29353 8.51506
7.84416 9.69267 6.38559
6.63663 8.55136 9.50127
3.51671 9.16387 8.86111
2.16367 7.17424 10
0.42085 0.334115 6.3952
6.16327 0.155557 5.3214
9.14474 8.94764 0.91797
0.199966 9.87872 1.75621
1.03841 3.61331 5.9514
10 7.35876 9.4418
3.70082 0.996296 4.40794
5.21728 7.37349 2.16601
7.53473 3.04324 5.6222
1.00578 4.31757 3.56706
3.15532 10 7.05634
7.94923 6.00526 0.814219
7.48932 3.0075 7.96649
0.591126 1.5055 9.1263
1.51119 0.668143 0.249824
8.7361 3.06749 7.04953
1.64329 9.75448 8.70823
2.48597 6.35419 9.43909
6.33748 9.50478 9.6693
0.223274 6.02219 0.67086
7.62468 5.4004 9.91885
3.67428 0.212639 5.97278
6.86141 2.78746 8.71709
7.02603 9.77067 5.19552
0 9.30883 7.32517
0 5.79234 10
10 1.65153 0.936104
0 1.52359 4.62585
1.86425 6.72417 8.68442
5.40302 1.07744 0.581873
1.6349 3.05809 6.34713
0.295636 1.93443 7.37988
8.04534 8.32555 7.77149
1.63639 7.21942 0.967524
4.06881 6.07025 0.940357
0.263928 10 8.44312
0.642003 1.7043 4.42023
0.923986 8.17132 6.5727
8.39398 8.93927 7.99717
6.7612 5.40831 1.26072
1.88191 2.52304 6.38937
0.573218 1.41343 1.51695
9.04826 1.68837 1.90829
3.07364 4.58481 1.10076
7.68586 2.52858 5.96031
0.82234 4.52974 4.70226
2.45574 1.40567 3.11081
8.28226 6.3465 7.16171
1.89702 2.82881 2.82147
2.83586 8.84338 0.226392
6.09338 9.038 4.68902
7.30406 2.92493 3.35422
6.08681 7.36997 9.85352
10 4.66036 5.2887
1.79994 2.85577 5.94657
7.68317 9.91509 7.39704
1.96014 1.64563 9.78893
3.50769 9.75362 1.05729
1.35162 4.1 7.51934
9.65941 6.75934 4.40315
2.36461 9.11906 8.94021
9.88827 6.90372 7.25194
4.48903 4.15659 7.57105
1.09069 8.43402 8.17637
2.74098 4.75749 1.56677
8.70867 0 3.61972
9.185 8.24099 7.48464
3.58518 8.78069 1.21469
3.57883 5.59544 0
5.13981 0.745831 3.39499
5.88267 2.27912 8.03775
1.3281 0 9.63586
6.30059 3.92546 6.79927
0.00424576 0.637826 7.63856
1.19175 6.0478 10
4.35239 5.75092 2.56366
3.50219 2.25559 8.06985
3.24974 9.38436 4.99104
9.44375 1.40917 3.70223
8.25504 4.91748 2.82255
7.22869 8.30034 8.01851
4.71371 2.23477 7.85155
8.31308 3.9515 5.1069
6.74272 4.40647 4.88689
2.24149 4.05823 3.65623
6.84112 8.36078 9.9327
5.53294 0.829315 4.71326
6.67126 1.67705 5.14825
4.00804 1.80691 4.83835
6.23284 0.282805 3.91314
1.21698 6.27693 6.20673
1.97676 1.83886 7.7926
9.7003 8.05859 4.13679
3.17506 1.19549 5.55359
4.9296 7.548 3.94081
9.17979 0.733701 2.28109
7.03146 6.88063 4.4754
1.22687 6.11787 5.79843
1.96575 6.50656 9.37352
9.09743 3.29365 6.11391
8.01696 0.129374 7.83058
9.69947 3.60853 1.89568
4.93629 1.12646 4.06855
0.507248 4.23526 7.76598
9.49737 6.13551 10
0 0 4.38975
6.26795 0.966503 9.79472
6.40889 3.24503 8.5492
10 8.41136 6.5472
0.254637 1.75369 2.57547
5.77422 0 7.99958
0.208426 1.67401 6.61611
3.19786 5.62203 2.66492
4.29222 5.96118 3.15688
7.22209 8.54281 2.80178
9.34819 0.764179 9.06812
8.88635 5.26171 1.27185
5.34656 2.56592 0
3.16982 4.13075 6.38873
4.11632 7.63872 8.7833
7.01855 9.65846 5.36109
8.9206 9.75813 1.88528
3.60845 1.40165 5.61082
6.29958 1.06068 1.61459
5.87202 0.374556 5.15382
5.61111 0.199754 0.789242
8.14231 4.68407 2.41147
1.20495 0 9.15598
5.58461 3.04431 8.16433
0.537229 2.15135 6.05668
0.275291 8.72068 3.21693
1.99079 1.97732 0
6.81658 2.38239 8.77421
3.10611 3.81887 0.675127
5.69834 0.501019 5.07008
8.55216 5.93627 7.40808
8.745 7.32181 1.55169
9.56052 5.41742 9.55369
6.15714 1.387 7.66021
1.91456 9.824 5.07863
7.65349 8.96755 1.725
5.95633 1.08853 9.16364
9.51706 1.27543 9.8169
7.54974 9.30248 0
9.30803 7.03437 6.77966
7.04601 0.50781 7.22008
6.99778 1.0829 8.57284
6.67566 8.59056 8.43161
5.09023 7.47925 3.34376
6.4052 0.547232 1.09658
6.45301 0.880934 3.51699
5.85053 2.97373 1.81918
8.65998 4.29915 4.77694
8.92714 7.14983 0.0321564
0.133946 0.921053 2.76906
9.499 1.90241 0.371423
4.47789 2.68769 0.0859913
3.62496 1.21144 6.77417
9.57053 3.47359 4.47378
3.34374 9.11575 6.23769
3.48833 1.45219 9.65687
4.72436 0 9.55285
9.5516 0.498717 9.53987
0.386554 5.17028 4.67209
7.61873 0.428783 9.48317
3.51102 0.956279 5.12609
8.5445 9.26226 3.69525
2.00544 6.92046 0.353675
9.01259 0.918511 1.99268
6.96533 8.12225 4.74595
5.56247 0.337086 5.06662
9.04909 1.51385 9.87293
10 6.07554 0.10033
8.235 1.37158 8.33368
5.66378 6.60608 7.355
3.69715 2.09927 1.41649
2.68683 8.19301 6.59254
6.60703 5.72755 1.80773
6.99486 6.52175 3.80395
4.4575 7.90495 0.278062
1.24081 2.46044 5.11917
8.17227 6.42914 2.13
9.05501 1.49243 9.78431
3.80486 3.94717 9.64081
5.7147 0.410968 5.18289
7.89654 10 10
0 0 5.21574
4.82593 0.281614 10
6.65478 7.63359 3.95066
8.45904 2.35334 2.95495
1.35106 1.76387 6.76288
0 0 0.87386
3.67701 9.70013 1.25486
9.34841 6.34983 9.90789
5.81316 0.156633 5.02211
1.90615 1.66314 2.59626
0.25894 8.25862 4.75222
1.52538 1.76222 2.43328
6.51282 0.407542 5.52337
5.76938 9.89969 1.32692
6.81721 0.419909 4.75584
3.79041 6.79232 7.0691
8.03158 3.23774 4.20139
10 4.35209 0
10 6.0953 9.04157
8.56915 3.29048 7.61573
10 8.49422 7.17961
6.96531 0.502794 5.01689
5.77672 1.77041 1.7737
0.429594 8.34859 9.13232
0.242762 9.27127 2.38772
3.91873 2.20444 7.58625
5.93157 0.359356 5.20498
4.32093 1.01861 4.83898
4.98963 9.84781 7.08034
1.79786 5.96422 7.99817
3.68657 5.5522 5.85023
3.92718 2.59117 7.35068
0.43136 5.30171 2.94949
7.57648 3.39609 9.00114
5.58315 1.87625 7.49182
8.84222 7.82762 8.90816
5.68831 0.408964 5.24323
8.25375 6.21909 6.11051
7.06203 0.364057 4.84501
3.37872 1.94526 2.48353
2.26853 2.40697 5.52585
0.351442 10 0.332226
9.36979 5.03355 5.49826
5.54884 5.63902 8.32543
8.91776 3.53765 7.21865
2.25883 1.65132 6.92343
1.79223 6.44873 3.76997
7.90264 0.261487 0.567661
6.88389 0.356564 4.90596
6.76683 0.530035 5.60259
2.35035 6.83955 6.40708
9.23919 2.8488 9.87482
0.274538 1.05169 3.2259
9.20718 5.70012 2.14104
7.74351 4.23504 1.60813
2.35132 0.841566 8.07901
2.09796 4.46215 8.05493
4.60273 4.18707 3.35377
5.19393 2.13014 1.26589
5.65022 8.52887 1.26341
8.97657 5.34378 3.87578
5.00454 1.30552 0.56295
7.93389 9.10297 8.2301
6.16867 2.05038 3.01291
0.752973 1.17845 3.38514
6.23815 6.35317 0
2.7279 8.4604 3.21021
0.175495 6.32378 9.47489
5.25388 0.564734 5.2814
7.72129 0.159762 1.74736
9.51862 3.5979 4.96399
1.09219 6.66201 6.34605
0 6.99724 7.52204
5.80738 0.659082 3.84834
5.80976 8.97051 1.00479
0 8.13781 7.49337
0.370013 0.44357 1.92473
5.53367 0.435242 5.5218
2.37359 2.76866 5.60874
1.96048 1.22857 9.03541
5.10758 8.83121 5.27635
5.25073 4.14716 6.58825
1.28316 2.43601 9.65614
0.737169 5.41833 4.30814
6.04534 0.0941088 4.81772
5.00291 4.08709 9.4539
6.13758 6.10317 7.99551
2.01435 0.383285 7.5907
7.42617 0.804841 5.94262
4.19783 3.55884 10
7.76668 0.54188 2.04834
5.0921 1.91796 0
5.38719 10 0
1.29881 0.207245 8.65155
5.36165 0.565232 5.56511
5.37681 0.600555 5.3275
5.96495 0.275809 5.28087
5.27892 0.556646 5.16542
4.10533 8.6419 0.261811
3.85889 0.902629 4.28233
5.4175 0.624708 5.21253
0.738486 1.00765 4.17988
5.74225 0.436782 4.81814
2.17388 6.64063 9.17621
5.71353 0.600117 5.07793
5.61202 0.399056 5.10785
9.87963 6.50738 1.34469
0.8613 4.29245 8.25575
1.76972 7.05591 7.7605
2.9619 7.9928 7.7512
0.830693 0.237662 8.28137
6.56955 0.467856 4.99496
10 7.71274 0
6.53668 7.66763 9.2187
10 5.75958 6.47798
8.60232 9.97925 1.25646
3.45478 4.54609 5.95638
7.02288 1.36312 8.12482
5.62143 4.30864 1.89702
8.44081 9.92282 1.72357
1.21081 0.297287 8.33284
5.6014 0.425153 5.1476
5.29714 0.283986 5.30849
0.292419 7.20676 1.09951
5.09036 0.634414 5.35098
3.93041 5.3102 6.27817
2.40741 0.437343 8.51935
5.80577 0.321737 4.82559
1.05233 7.48118 7.57939
0 8.89512 2.13489
6.73837 2.83962 4.18744
6.66187 4.38994 9.53743
9.94062 1.87304 8.62144
1.19942 6.03856 1.45401
5.67443 5.89221 8.15116
5.50122 0.347547 5.15867
1.26405 3.93029 8.80598
6.0391 4.53762 7.01327
5.05399 5.47708 6.51981
6.10268 5.68469 3.20105
8.07997 6.25369 1.28932
1.20684 0.493373 8.45969
5.72118 0.490163 4.87567
5.85132 0.226174 5.1992
9.73105 0.552498 7.12814
5.65599 0.551506 5.39039
6.16856 0.461414 5.17885
3.76838 8.62346 8.75404
5.91212 0.139729 4.74889
5.5631 0.193982 5.5945
7.39071 8.70666 2.97084
9.02865 9.14367 7.87228
1.82709 0.571903 7.36211
5.99127 0.345425 4.96983
0.905987 3.68888 5.05537
8.79347 6.49703 1.60377
5.82102 0.389166 4.79065
5.86915 0.453242 4.81397
8.41496 5.10034 2.21043
1.26045 0.125959 8.5745
1.28573 0.100613 8.72832
6.24211 0.44921 4.87791
5.36898 0.576849 4.84367
8.2486 7.20087 2.00335
1.232 0.300156 8.73698
8.6726 3.39808 6.18333
1.63318 0.432993 8.559
2.73207 10 7.28344
9.5978 0.381349 7.2401
5.67929 0.956929 8.69671
4.00759 9.47357 1.7212
5.12196 0.13131 5.42884
5.80187 0.404229 5.23052
9.9373 0.504279 6.9953
1.07841 0.274529 8.7052
2.25378 0.606726 8.23293
6.78052 5.4398 9.3513
6.76635 0.537999 4.99426
5.70653 0.287951 5.29736
5.87046 0.383611 4.93142
6.67581 0.552193 4.86964
6.13831 0.660978 4.94144
4.09421 2.55773 9.24741
1.27534 0.184896 8.69379
5.46016 0.359437 5.31899
5.28121 0.445181 5.03119
4.19025 1.99931 6.95833
2.30832 3.26652 5.17445
5.77726 0.681773 5.2354
6.01952 0.0236275 4.80542
2.2199 0.854982 8.15681
5.87127 0.558598 5.20531
9.44533 6.49093 5.08323
2.38629 0.744578 8.40308
5.66122 0.449937 5.20674
6.56275 0.642766 5.40281
0.777046 2.26743 4.98385
1.69484 9.83428 2.01652
POINT_DATA 400
SCALARS particleColor float 3
LOOKUP_TABLE default
1 5.96046e-08 0
1 5.96046e-08 0
0.55448 1 0.44552
0.482418 1 0.517582
1 5.96046e-08 0
1 5.96046e-08 0
1 0.122447 0
1 0.717212 0
1 5.96046e-08 0
0.637815 1 0.362185
1 0.679517 0
1 0.0855245 0
0 0.687202 1
0.80534 1 0.19466
1 5.96046e-08 0
1 0.77758 0
0.559154 1 0.440846
0 0.589651 1
1 0.0301769 0
0.136486 1 0.863514
0.570426 1 0.429574
1 5.96046e-08 0
1 5.96046e-08 0
0.767582 1 0.232418
0.854628 1 0.145372
1 5.96046e-08 0
1 5.96046e-08 0
0.568876 1 0.431124
1 0.738574 0
0 0.856447 1
0.842333 1 0.157667
1 5.96046e-08 0
1 5.96046e-08 0
1 0.489907 0
1 5.96046e-08 0
0.438828 1 0.561172
0.352344 1 0.647656
1 0.816807 0
0 0.834841 1
0 0.810443 1
1 5.96046e-08 0
1 5.96046e-08 0
1 0.692095 0
1 0.857267 0
0 0.835181 1
1 5.96046e-08 0
1 5.96046e-08 0
0.59795 1 0.40205
1 5.96046e-08 0
1 5.96046e-08 0
1 0.263949 0
1 5.96046e-08 0
1 0.463199 0
1 5.96046e-08 0
1 0.941812 0
0.0643273 1 0.935673
1 5.96046e-08 0
0 0.843964 1
1 5.96046e-08 0
0.212446 1 0.787554
1 0.93641 0
0.835303 1 0.164697
1 5.96046e-08 0
0 0.985192 1
1 5.96046e-08 0
0.732623 1 0.267377
1 5.96046e-08 0
0.540515 1 0.459485
1 5.96046e-08 0
0.72698 1 0.27302
1 0.062126 0
1 5.96046e-08 0
0.839588 1 0.160412
0.353582 1 0.646418
0.135898 1 0.864102
0.291094 1 0.708906
0.00245743 1 0.997543
1 5.96046e-08 0
0.275577 1 0.724423
1 5.96046e-08 0
1 0.902978 0
0.458942 1 0.541058
0.424116 1 0.575884
0 0.49351 1
0.399332 1 0.600668
1 0.68279 0
1 0.829763 0
1 5.96046e-08 0
1 0.279362 0
1 0.85703 0
0.955133 1 0.0448667
0.451016 1 0.548984
1 0.572707 0
1 0.541187 0
0.605285 1 0.394715
1 5.96046e-08 0
1 5.96046e-08 0
1 5.96046e-08 0
0.00548968 1 0.99451
1 5.96046e-08 0
1 5.96046e-08 0
1 5.96046e-08 0
0.316083 1 0.683917
1 5.96046e-08 0
1 5.96046e-08 0
0.723224 1 0.276776
1 5.96046e-08 0
1 0.989622 0
0.688894 1 0.311106
0.369851 1 0.630149
1 5.96046e-08 0
1 5.96046e-08 0
1 5.96046e-08 0
1 0.076795 0
0 0.959779 1
1 5.96046e-08 0
1 5.96046e-08 0
0 0.813257 1
0 0.966704 1
1 0.350562 0
0.866008 1 0.133992
1 5.96046e-08 0
1 0.607116 0
1 5.96046e-08 0
1 0.672945 0
0 0.336743 1
1 0.413937 0
1 5.96046e-08 0
1 5.96046e-08 0
1 5.96046e-08 0
1 0.55752 0
1 0.477521 0
0 0.697836 1
1 5.96046e-08 0
1 0.614855 0
0.414323 1 0.585678
1 5.96046e-08 0
1 0.888257 0
0.444019 1 0.555981
1 5.96046e-08 0
0 0.308344 1
1 0.900159 0
0 0.704551 1
1 5.96046e-08 0
1 5.96046e-08 0
0.933355 1 0.0666452
1 5.96046e-08 0
1 5.96046e-08 0
1 0.500603 0
0.968869 1 0.0311306
0 0.410501 1
0.705426 1 0.294574
0.522174 1 0.477826
1 0.125922 0
1 0.913736 0
1 0.300669 0
0.435155 1 0.564845
1 0.56945 0
0.959007 1 0.0409928
1 0.998427 0
0.551588 1 0.448412
1 5.96046e-08 0
1 0.711621 0
1 0.629323 0
1 0.885042 0
0.407614 1 0.592386
1 5.96046e-08 0
0.860218 1 0.139782
1 0.905643 0
0.278411 1 0.721589
1 0.783158 0
1 0.172854 0
1 5.96046e-08 0
1 0.616909 0
1 5.96046e-08 0
1 5.96046e-08 0
1 0.76928 0
1 0.85609 0
1 5.96046e-08 0
1 5.96046e-08 0
0.769603 1 0.230397
0.864085 1 0.135915
0.650903 1 0.349097
0.36416 1 0.63584
1 0.233372 0
1 0.550616 0
0 0.358914 1
1 0.959491 0
1 0.769225 0
1 5.96046e-08 0
0.957228 1 0.0427723
1 5.96046e-08 0
0.702782 1 0.297218
0.833394 1 0.166606
1 5.96046e-08 0
1 5.96046e-08 0
0 0.990758 1
1 0.511337 0
0.57962 1 0.42038
1 0.443666 0
0 0.177655 1
1 5.96046e-08 0
1 5.96046e-08 0
1 5.96046e-08 0
1 5.96046e-08 0
0.586556 1 0.413444
1 5.96046e-08 0
0.446077 1 0.553923
1 0.864138 0
1 0.54658 0
0 0.408244 1
1 0.50098 0
1 5.96046e-08 0
0 0.901881 1
1 0.770322 0
0.673919 1 0.326081
0 0.829151 1
0.893682 1 0.106318
1 5.96046e-08 0
1 5.96046e-08 0
1 5.96046e-08 0
1 5.96046e-08 0
1 5.96046e-08 0
0 0.559282 1
1 0.854724 0
0.941528 1 0.058472
0.569383 1 0.430617
0 0.416857 1
0 0.593719 1
1 5.96046e-08 0
0.0646125 1 0.935387
0.669368 1 0.330632
0.558873 1 0.441127
0 0.957206 1
0.775986 1 0.224014
0 0.706666 1
1 0.73621 0
1 5.96046e-08 0
0 0.435344 1
1 5.96046e-08 0
0 0.403352 1
1 5.96046e-08 0
1 0.7414 0
0.243014 1 0.756986
0 0.683093 1
0.591389 1 0.408611
0.629877 1 0.370123
1 5.96046e-08 0
1 0.587048 0
0.562846 1 0.437154
0 0.620621 1
1 0.966027 0
1 0.479214 0
1 5.96046e-08 0
0.0367837 1 0.963216
1 5.96046e-08 0
0.590299 1 0.409701
0 0.778421 1
1 5.96046e-08 0
0.795986 1 0.204014
1 0.743477 0
1 5.96046e-08 0
1 5.96046e-08 0
1 5.96046e-08 0
1 0.284104 0
0.655381 1 0.344619
1 0.732206 0
1 5.96046e-08 0
1 5.96046e-08 0
1 0.691532 0
0 0.698144 1
0.581341 1 0.418659
1 5.96046e-08 0
0.226216 1 0.773784
0.849832 1 0.150168
0.206175 1 0.793825
0.465682 1 0.534318
1 5.96046e-08 0
1 0.473097 0
0 0.328926 1
1 5.96046e-08 0
1 0.536073 0
0.285681 1 0.714319
1 0.133668 0
1 5.96046e-08 0
1 0.656154 0
0 0.953541 1
1 5.96046e-08 0
1 0.996109 0
0 0.989578 1
1 0.372206 0
0.90453 1 0.0954702
0.830032 1 0.169968
1 5.96046e-08 0
1 5.96046e-08 0
0 0.340098 1
0 0.289502 1
0 0.216783 1
0 0.890174 1
0 0.578543 1
1 0.427361 0
1 0.903785 0
0 0.557976 1
1 5.96046e-08 0
0 0.840139 1
1 5.96046e-08 0
0 0.5253 1
0 0.214768 1
0.221785 1 0.778215
0.703239 1 0.296761
0.229275 1 0.770725
0.855114 1 0.144886
1 0.78403 0
0.0872681 1 0.912732
1 5.96046e-08 0
1 0.219594 0
1 5.96046e-08 0
0.55885 1 0.44115
1 0.805263 0
1 5.96046e-08 0
1 5.96046e-08 0
0 0.678903 1
0 0.202191 1
0 0.365289 1
0.169464 1 0.830536
0.249357 1 0.750643
0 0.525672 1
1 5.96046e-08 0
0.0544253 1 0.945575
0 0.176151 1
0 0.869047 1
0.809527 1 0.190473
0.0305882 1 0.969412
1 0.0989289 0
0.611394 1 0.388606
1 5.96046e-08 0
1 0.820948 0
0 0.311796 1
1 5.96046e-08 0
1 0.375151 0
1 5.96046e-08 0
0.16815 1 0.83185
1 0.0943409 0
0 0.612182 1
0.110572 1 0.889428
0.291436 1 0.708564
0 0.192385 1
0 0.644476 1
0 0.937352 1
1 0.330137 0
0 0.885218 1
0 0.531273 1
0.287133 1 0.712867
1 0.936581 0
0.845031 1 0.154969
0.0772519 1 0.922748
0.311601 1 0.688399
1 5.96046e-08 0
0 0.818632 1
0 0.865174 1
0.473462 1 0.526538
0 0.81872 1
0 0.293925 1
0 0.368494 1
0 0.317767 1
1 5.96046e-08 0
0 0.447684 1
1 5.96046e-08 0
0 0.868849 1
1 5.96046e-08 0
0 0.84219 1
0.00942882 1 0.990571
1 5.96046e-08 0
0 0.614397 1
0.194501 1 0.805499
0 0.939217 1
0 0.371829 1
0 0.776892 1
0.42337 1 0.57663
0.169948 1 0.830052
0 0.96808 1
0 0.678768 1
1 0.986733 0
0 0.646366 1
1 0.285319 0
0 0.554826 1
0 0.592559 1
0 0.542954 1
1 0.199895 0
0.0701781 1 0.929822
0 0.489277 1
0 0.480443 1
0 0.694534 1
0 0.930498 1
0.705108 1 0.294892
0 0.870951 1
0.0385103 1 0.96149
1 0.265692 0
0.896111 1 0.103889
0 0.700406 1
