# vtk DataFile Version 3.0
Particle simulation
ASCII
DATASET POLYDATA
POINTS 400 float
9.38355 2.2198 9.94207
4.27354 1.15484 9.21178
0.428248 1.99093 4.55322
1.63369 0.426265 1.04216
9.64086 0.842456 3.23641
0.358722 7.83375 7.86302
7.4073 1.46088 1.71977
7.42458 5.27978 1.12321
7.84871 6.67402 3.33251
5.64146 0.370395 5.32931
7.25437 2.79887 0.752445
4.55633 1.09538 3.78608
9.25956 8.55931 9.12711
6.47676 1.05352 1.85111
4.10494 2.59926 1.02961
8.83358 2.99131 8.19442
1.69039 6.67703 0.31586
3.68834 0.986728 2.4033
0.532236 0.21954 5.00821
5.88235 0.187046 6.42878
2.17057 0.333679 1.78101
5.88284 0.572134 9.14628
7.61814 5.27008 8.26074
5.72546 1.39586 3.50957
4.97093 1.86397 5.88972
3.47184 1.05233 2.44101
0.662533 3.96556 9.8486
2.93415 0.928635 1.87315
9.81656 0.342501 8.70365
3.62883 0.0010433 0.546824
9.8836 8.51615 8.96256
7.03506 1.58064 3.56246
7.70765 1.05509 8.06278
5.13888 1.10487 3.14323
3.89858 0.0484234 2.74822
0.411797 2.24963 1.13234
9.46171 0.694731 6.15554
3.18984 0.415487 1.7406
6.80983 0.738263 1.73319
2.34047 2.44868 3.03501
5.20354 0.980262 2.66791
9.13715 3.81523 5.31973
6.91103 7.83312 7.84628
2.42334 2.66594 8.18656
7.08979 0.26292 7.17624
6.28143 0.372725 2.01448
4.26685 0.186536 7.59027
3.07334 0.420706 1.52902
6.08685 0.439698 1.88856
1.90711 7.62133 7.46799
0.217148 4.17555 2.77189
7.52907 8.74339 5.45507
9.61219 0.728878 7.88682
5.9968 0.499627 5.47964
8.96607 0.511483 8.2847
6.36405 0.443788 2.1806
5.15231 0.462721 8.00239
1.57013 0.335025 3.49704
6.84624 0.205065 2.03214
3.79315 6.28028 5.08654
8.83102 4.3214 3.17213
5.40604 0.432522 7.82145
3.24872 0.438962 3.65091
5.73731 0.444643 5.23341
7.47522 6.69353 2.8961
5.41182 0.390869 0.796015
8.10158 0.361735 8.03022
0.154299 3.85038 2.8516
6.25459 0.128051 2.02528
5.72137 0.618821 8.52983
6.02962 0.940099 7.52149
3.39132 0.476481 1.80941
0.741904 3.45497 8.52559
5.68147 0.463654 5.36701
7.94015 1.09611 7.89324
7.01658 0.766131 6.02423
8.12311 0.338695 7.98504
5.47524 0.563672 8.18915
7.82637 1.43767 2.99455
0.289349 4.35304 8.2332
2.7837 0.196757 1.91911
2.86766 0.31139 1.45889
2.54668 1.45961 1.39826
2.11692 0.389359 1.74014
5.7263 0.318379 7.89989
5.39412 0.829248 8.28867
5.25536 0.290323 7.67367
7.0024 1.77438 0.863497
6.6998 2.83531 0.495602
9.60018 0.182931 1.7234
2.88327 0.915281 1.18375
3.06444 0.314749 1.78579
0.434166 2.15188 8.59863
2.23296 0.428898 1.80376
5.80516 0.29863 7.92668
5.32754 0.896928 8.21013
4.66564 0.834844 8.99719
1.94326 0.675307 4.28129
7.00173 0.371099 7.09078
9.60836 0.146885 1.70115
2.26887 0.677056 1.8509
5.50093 0.585261 4.58103
0.505099 2.31129 0.86371
9.27124 0.884504 8.63561
9.52066 7.91378 8.03711
3.22346 0.481466 1.76245
4.38644 1.53984 9.05843
6.25218 0.347027 2.2831
6.12675 0.416471 1.90739
9.41785 0.0848603 1.46727
1.75703 2.31432 8.37438
5.87821 0.0174059 5.79596
2.5724 0 1.21623
9.33696 0.416341 1.92655
3.22041 0.482157 1.74263
1.44953 0.80702 2.3281
5.56557 0.617705 8.6879
5.85914 0.58353 1.73892
6.11724 0.341268 1.92106
3.40099 0.76404 1.96228
3.2271 0.396684 1.61823
5.8117 3.79954 8.40045
7.66941 5.90369 9.55786
7.77301 0.547705 6.03463
7.6837 0.337179 8.08769
3.42054 0.73097 1.52926
3.57297 0.590139 2.15992
5.76438 0.568863 5.56371
3.53618 0.934212 0.999885
0.246983 0.890589 4.70308
3.18517 0.286552 1.47399
6.1519 0.220201 1.52715
5.49407 0.502957 8.79337
6.64961 0.352554 7.24609
4.58223 0.122273 2.33884
2.10747 0.559647 2.36554
8.6956 6.88826 2.1436
5.66597 0.602176 5.31888
4.68108 0.908253 9.84332
9.36706 0.59369 8.10827
3.16539 0.351356 1.90019
8.3674 0.595465 8.07852
2.57723 2.72666 8.39557
3.54858 0.628248 2.09999
3.25472 0.14956 1.63022
2.0313 0.136083 2.25376
7.04236 0.473296 6.9156
1.19001 2.98884 2.21026
2.02971 0.699694 2.45916
2.64209 0.779806 2.59877
3.15534 0.340384 1.88688
7.78464 0.204343 7.46523
3.25527 2.51868 0.830981
4.31534 1.43074 9.05135
3.62542 4.02771 0.406554
3.71444 0.345122 2.77261
8.11395 0.140278 7.31148
2.62614 0.246139 1.62917
7.00861 0.339263 6.83375
2.21194 0.329204 2.14029
0.622285 1.87673 0.585661
0.28864 1.85884 4.73628
5.26419 0.334817 7.91186
2.54785 0.201244 2.19422
0.281629 3.97553 2.74491
8.84925 0.639304 8.23859
6.00958 0.654694 9.18878
4.89276 0.460675 9.11119
6.30173 4.48725 7.26212
10 1.96947 0
2.29901 0.182186 1.7967
3.16573 0.556569 1.82355
6.10132 0.652416 4.2947
3.06125 0.36445 1.56425
2.46171 0.235758 2.44694
0.458204 1.90089 0.522396
5.37057 0.745043 8.65361
5.71109 0.649041 8.39579
5.57111 0.580888 8.14648
4.24607 0.397607 8.24996
2.17067 0.447616 1.76175
3.49055 0.546326 1.18659
7.80014 4.91869 9.37314
3.3664 0.148951 1.27565
5.24233 0.113354 8.35081
3.04328 0.94307 1.3211
2.1059 0.907871 2.47721
0.355243 2.04671 8.46041
7.32419 0.312668 6.67724
2.30606 0.425506 2.21844
2.17376 0.499715 1.75833
2.26427 0.660971 2.56158
5.74275 0.463322 8.80728
2.45295 4.22713 4.01437
1.15979 7.84774 7.24509
2.16586 0.19637 2.00141
2.19111 0.16953 1.31111
5.4018 5.6345 8.81033
2.24158 0.425682 2.73384
3.58062 0.611227 1.28642
3.04517 0.246523 1.38083
6.15161 0.270384 1.60002
6.80045 0.105379 6.49292
4.63423 1.4681 9.10746
8.75937 1.37984 6.11383
5.86356 0.620111 8.9947
2.92424 0.336524 1.52674
1.57363 0.502817 3.34148
1.6171 0.380696 2.77477
9.25683 0.473341 2.00249
2.33781 0.238012 1.79129
6.37418 0.175644 2.00138
5.70665 0.110475 8.4613
8.97011 0.671228 8.23603
5.57488 0.750293 5.46709
5.95841 0.826558 8.92071
2.90896 0.344146 1.55967
2.08801 0.35809 2.19122
2.38758 0.235429 3.1389
9.33202 0.153939 1.77421
0.651751 4.81616 6.58958
8.01005 0.495131 8.2682
4.32739 1.27771 8.9099
3.16466 0.325558 1.45809
5.11307 0.678524 8.96374
3.19209 0.431739 1.4508
3.61191 2.52926 0.810257
1.99533 0.187638 2.65591
3.63761 0.743588 1.85993
4.91948 0.15427 9.16348
5.91216 0.521861 5.31792
5.24643 0.834726 8.81696
7.05005 0.279518 7.06056
3.2551 0.439941 1.83909
5.16362 0.433799 9.03198
4.00579 0.745609 2.32881
7.30102 0.248537 6.86329
2.07849 0.659003 1.3261
2.20996 0.428674 2.68285
1.32683 0.451327 2.96886
2.17517 0.297507 1.531
2.72697 1.45815 1.26719
2.97818 0.324343 1.24687
2.11706 0.00082916 1.33722
5.28378 0.320435 8.63419
3.05408 0.289654 0.883896
3.51084 0.952823 1.58416
5.48784 0.356487 8.57794
6.39948 0.251996 1.96863
5.31 0.618206 8.68696
3.52458 0.538793 1.9669
5.61181 1.17953 1.12187
5.47894 0.544263 8.49404
4.11332 0.0546367 2.77923
6.76799 0.298667 6.61156
3.27191 0.327565 1.66242
9.36277 0.0684055 1.54735
5.32528 0.725217 9.08053
5.94583 0.382259 1.97194
5.27623 0.684162 8.6638
2.01276 0.544023 2.45765
3.76385 8.95744 6.32052
4.32202 1.32247 9.20981
5.99056 0.733753 1.09149
5.72446 0.571381 8.78866
1.95669 3.04214 7.59126
5.09008 0.541892 0.159532
5.14241 0.880521 8.7764
6.99393 0.34194 6.93489
3.19882 0.502451 1.78633
3.01903 0.425587 1.68659
6.22958 5.68203 4.59599
3.86086 0.11407 2.76939
5.40521 1.14597 0.688247
5.28418 0.439036 8.41716
4.22938 1.15375 9.32004
5.93008 0.313058 5.09831
3.78357 8.27653 7.04293
7.0174 0.547412 6.18127
2.30441 0.491307 1.735
9.22506 0.252116 1.75354
5.986 0.312361 2.26711
6.07267 1.12648 0.994365
5.81783 0.241338 4.67479
5.96627 0.339148 3.93176
7.23921 0.380184 6.71454
2.76886 0.236018 1.67407
2.88699 0.45782 1.0719
9.59247 0.52447 8.14129
9.91069 4.25545 0.674429
9.67471 0.67552 2.06418
6.28603 0.241344 1.93143
3.57839 0.825626 2.02851
5.67947 0.381774 5.14614
5.23023 0.5074 9.01845
4.9922 0.604066 9.30636
3.62639 0.791683 0.814283
3.34656 0.949399 1.70243
2.97172 0.610318 2.10113
2.9059 0.431892 1.84124
9.27014 0.150055 1.60525
9.56572 0.659039 8.01754
1.51416 0.260377 3.50208
6.39002 0.285313 1.84169
1.46005 0.48472 2.68266
6.45566 0.186646 1.9478
1.73476 1.00794 2.39201
2.16673 0.508037 2.79984
1.45373 0.43612 3.61698
3.63228 0.457889 1.9398
6.47492 0.413889 5.17251
8.06541 0.230964 7.33208
6.78428 0.284979 6.96797
2.1541 0.113476 1.82123
3.00834 0.666003 1.93062
6.76216 0.344071 5.60837
3.54686 0.380695 1.28415
6.40335 1.00815 1.24717
6.25384 0.247167 2.05114
3.31275 0.922084 1.78938
4.98977 0.165872 8.96058
3.59713 0.504686 2.55682
5.1855 0.286408 8.65485
1.60241 0.404997 2.35085
9.6637 0.414511 1.82568
9.30227 0.347425 2.08942
1.98852 0.548224 1.6237
6.05066 0.218031 2.0262
8.90475 0.267859 1.7364
2.19329 0.253157 1.32824
5.02085 0.291393 9.05908
3.25885 0.56749 1.50852
5.19591 0.47036 8.42874
3.32877 0.492863 1.72896
8.96482 0.421788 1.84455
4.34738 1.08108 8.63616
3.51528 0.172305 2.67804
2.57723 0.588481 1.87778
8.75897 0.586421 2.22859
3.47 0.83669 1.86544
5.12546 0.586758 9.39559
3.09704 0.238121 1.59754
5.33818 0.305721 8.94349
4.16053 1.14112 9.08512
3.24595 0.232534 1.69182
2.93475 0.465386 1.58654
6.49657 0.535049 1.90888
2.13068 0.753146 2.45769
2.92964 0.405898 1.55366
2.72837 0.390666 2.02495
3.58517 0.306982 2.34421
3.35507 0.850476 1.91634
5.54158 0.547767 8.83684
4.2276 1.12489 8.99263
2.11377 0.659387 2.16415
2.19176 0.325052 1.18257
5.47587 0.401651 1.69241
5.87504 0.803601 8.75857
2.98531 0.507933 1.5235
2.91252 0.360451 1.94323
6.2387 0.152534 1.82809
7.80243 0.261032 7.54534
5.61737 0.397859 7.91634
2.17974 0.270186 1.03142
2.66281 0.287433 1.85048
6.82612 0.275938 6.87866
5.53719 0.763265 8.68561
5.44944 0.206425 8.14286
5.5231 0.623922 8.69215
3.32423 0.951918 1.6058
6.24339 0.160223 1.82068
7.73688 0.269485 7.31372
5.76136 0.716551 8.49149
2.26423 0.763331 2.60806
2.35396 0.356007 1.33083
7.07722 0.398959 7.07934
5.25197 0.450508 8.65814
5.47253 0.705476 8.35523
5.87655 0.697732 8.91936
2.58752 0.622735 1.46209
2.33714 0.351507 1.87696
2.22177 0.40505 1.75016
5.43765 0.588806 8.85188
3.49787 0.495059 1.69503
5.63382 0.292022 5.40773
5.87212 0.623006 8.73911
3.20828 0.528065 2.03821
3.46869 0.51816 1.84847
5.75218 0.168432 4.89632
5.75752 0.213164 2.11901
2.42032 0.362793 1.86662
2.46814 0.439484 1.80317
5.82377 0.692562 8.21951
3.03212 0.238466 1.8171
5.65158 0.27039 5.39407
4.32001 1.26138 9.10738
3.22851 0.609389 2.09816
3.66832 0.657024 2.17891
9.06622 0.654652 2.04234
5.72894 0.235909 2.10583
POINT_DATA 400
SCALARS particleColor float 3
LOOKUP_TABLE default
0 0.424151 1
1 5.96046e-08 0
0 0.441924 1
0 0.226538 1
0 0.215421 1
1 0.0539383 0
0 0.924998 1
0 0.627287 1
0.255049 1 0.744951
0 0.803428 1
0.00171345 1 0.998287
0 0.57766 1
0 0.921895 1
0.00644001 1 0.99356
0 0.901102 1
0 0.750837 1
0 0.198252 1
0 0.435396 1
1 0.714991 0
0 0.872498 1
0.052202 1 0.947798
1 0.837003 0
0 0.963297 1
0 0.38507 1
1 0.391625 0
0 0.611632 1
1 0.886288 0
0 0.695911 1
0 0.647864 1
0 0.435284 1
0.286493 1 0.713507
0.640552 1 0.359448
0 0.809214 1
0 0.907838 1
0.00524963 1 0.99475
0 0.507093 1
0.0548677 1 0.945132
0 0.719313 1
0 0.432993 1
0 0.387708 1
0 0.831874 1
0 0.908896 1
0 0.999973 1
0.507358 1 0.492642
0 0.265535 1
0 0.974285 1
0.378046 1 0.621954
0 0.691235 1
0 0.642816 1
1 0.479163 0
0 0.205345 1
0 0.303285 1
0 0.56314 1
0 0.461538 1
0 0.539223 1
0 0.36044 1
0 0.723155 1
0 0.832048 1
0 0.12212 1
0.986684 1 0.0133159
0.285216 1 0.714785
0 0.653571 1
0 0.301703 1
0 0.8084 1
0.430363 1 0.569637
0 0.703023 1
0 0.818828 1
0 0.763181 1
0 0.400761 1
0 0.924377 1
0 0.558734 1
0 0.919953 1
1 5.96046e-08 0
0 0.85266 1
0 0.550076 1
0.0387478 1 0.961252
0 0.557993 1
0 0.539162 1
0 0.642899 1
0.28086 1 0.71914
0 0.377554 1
0 0.325278 1
0 0.186999 1
0 0.260778 1
0 0.305872 1
0 0.639058 1
0 0.637769 1
0 0.638121 1
0 0.971502 1
0 0.261121 1
0 0.361775 1
0.148209 1 0.851791
0 0.601109 1
0 0.632157 1
0 0.466139 1
0 0.279273 1
0 0.633661 1
0 0.76601 1
0.297947 1 0.702053
0 0.495524 1
0 0.933912 1
0.348832 1 0.651168
0 0.385724 1
0 0.827407 1
1 0.0391079 0
0 0.408106 1
0 0.338693 1
0 0.442461 1
0 0.314594 1
0 0.663114 1
1 0.869315 0
0 0.113786 1
0 0.483808 1
0 0.636748 1
0 0.581333 1
0 0.392211 1
0 0.501036 1
0 0.9287 1
0 0.152108 1
0.520201 1 0.479799
0 0.949739 1
1 5.96046e-08 0
0 0.916581 1
0.586701 1 0.413299
0 0.562156 1
0 0.491152 1
0 0.388719 1
0 0.651864 1
1 0.15022 0
0.456688 1 0.543312
0 0.89115 1
0 0.942632 1
0 0.855665 1
0 0.357816 1
0.62474 1 0.37526
0 0.29044 1
1 0.844696 0
0 0.61377 1
0 0.440277 1
0 0.785656 1
0 0.705939 1
0 0.778878 1
0 0.998219 1
0.379916 1 0.620084
0 0.673468 1
0 0.471379 1
0 0.685535 1
0 0.544141 1
0 0.51554 1
0 0.984314 1
0 0.67563 1
0 0.432791 1
0 0.483959 1
0 0.526394 1
0 0.175819 1
0 0.400389 1
0 0.70867 1
0 0.667523 1
0 0.277717 1
0 0.376655 1
0 0.986657 1
0 0.639956 1
0 0.458745 1
0 0.401605 1
0 0.960011 1
0 0.535629 1
0 0.692496 1
0 0.424356 1
0 0.348669 1
1 5.96046e-08 0
0 0.87122 1
0.217764 1 0.782236
0 0.920473 1
0.30266 1 0.69734
0 0.315505 1
0.183003 1 0.816997
0 0.619819 1
0 0.915995 1
0 0.583989 1
0.49856 1 0.50144
0 0.288095 1
0 0.411333 1
0 0.653892 1
0.00653917 1 0.993461
0 0.496421 1
0 0.441365 1
0 0.780183 1
0 0.976678 1
0 0.840961 1
0 0.52248 1
0 0.342749 1
0 0.251465 1
0 0.885668 1
0 0.320614 1
0.117751 1 0.882249
0 0.220842 1
0 0.417233 1
0 0.397359 1
0 0.564571 1
0.360884 1 0.639116
0 0.516921 1
0 0.321604 1
0 0.647643 1
0 0.92796 1
0.336096 1 0.663904
0 0.511657 1
0 0.573028 1
0 0.296202 1
0 0.953422 1
0 0.318333 1
0 0.415835 1
0.0241797 1 0.97582
0 0.463811 1
0 0.944854 1
0 0.564923 1
0 0.364774 1
0 0.591351 1
0.00425053 1 0.995749
0 0.905187 1
0 0.212549 1
1 0.901213 0
0.151144 1 0.848856
0 0.370471 1
0 0.125275 1
0 0.442504 1
0 0.665499 1
0.115294 1 0.884706
0 0.462605 1
0 0.318696 1
0 0.833656 1
0 0.255361 1
0 0.613222 1
0 0.605419 1
0 0.849551 1
0 0.795768 1
0 0.710876 1
0.0394112 1 0.960589
0 0.632456 1
0 0.398531 1
0 0.682005 1
0 0.662479 1
0 0.823212 1
0 0.832969 1
0 0.52231 1
0 0.769686 1
0 0.512308 1
0 0.934037 1
0.0200565 1 0.979944
0 0.630801 1
0 0.323057 1
0 0.600449 1
0 0.919847 1
0 0.559598 1
0 0.855194 1
0 0.752269 1
0 0.776509 1
0.366651 1 0.633349
0 0.876059 1
0 0.316434 1
0 0.281008 1
0 0.35003 1
0 0.72174 1
0 0.505798 1
0 0.695223 1
0 0.66639 1
0 0.646087 1
0 0.704619 1
0 0.415283 1
0 0.838433 1
0 0.580529 1
0 0.799863 1
0.270666 1 0.729334
0 0.925382 1
0 0.457273 1
0 0.469999 1
0 0.661377 1
0 0.503582 1
0 0.361562 1
0 0.870026 1
0 0.48253 1
0 0.698132 1
0 0.265403 1
0.230933 1 0.769067
0 0.459896 1
0 0.799288 1
0 0.70757 1
0 0.66055 1
0 0.868154 1
0 0.681817 1
0 0.832794 1
0 0.296424 1
0 0.512819 1
0 0.773189 1
0.120207 1 0.879793
0 0.672027 1
0 0.609772 1
0 0.23523 1
0 0.582562 1
0.0302056 1 0.969794
0 0.953187 1
0 0.30576 1
0 0.397178 1
0 0.648166 1
0 0.978061 1
0 0.487289 1
0.430864 1 0.569136
0 0.750041 1
0 0.716892 1
0 0.551169 1
0 0.786602 1
0.114656 1 0.885344
0 0.429823 1
0 0.750252 1
0 0.686939 1
0 0.825146 1
0 0.641115 1
0 0.934847 1
0.280059 1 0.719941
0 0.747467 1
0 0.377979 1
0 0.574129 1
0 0.92272 1
0 0.607406 1
0 0.378508 1
0 0.640595 1
0 0.435966 1
0 0.426527 1
0.0784297 1 0.92157
0.291563 1 0.708437
0 0.556914 1
0 0.888699 1
0 0.483294 1
0 0.820945 1
0 0.577933 1
0 0.541823 1
0 0.469019 1
0.0573557 1 0.942644
0 0.745861 1
0 0.792119 1
0 0.701961 1
0 0.230282 1
0 0.870023 1
0 0.566524 1
0 0.786165 1
0 0.232327 1
0 0.482618 1
0 0.260195 1
0 0.417785 1
0 0.144523 1
0 0.87083 1
0 0.530276 1
0 0.859191 1
0.354962 1 0.645038
0 0.675057 1
0 0.531787 1
0 0.563739 1
0 0.600274 1
0.116399 1 0.883601
0 0.714413 1
0 0.882092 1
0.00380332 1 0.996197
0 0.857044 1
0 0.238113 1
0 0.190654 1
0.10719 1 0.89281
0 0.524856 1
0 0.309298 1
0.119839 1 0.880161
0 0.956339 1
0.269723 1 0.730277
0 0.881168 1
0 0.543789 1
0 0.782464 1
0 0.90677 1
0.0512091 1 0.948791
0 0.770657 1
0 0.446382 1
0 0.755291 1
0 0.658461 1
0 0.748013 1
0 0.839391 1
0 0.350897 1
0 0.151061 1
0 0.796818 1
0 0.438585 1
0 0.921455 1
0 0.399893 1
0 0.490565 1
0.550225 1 0.449775
0 0.443793 1
0 0.791332 1
0 0.151792 1
0 0.540326 1
0 0.896546 1
0 0.463293 1
0 0.870575 1
0 0.457184 1
0 0.686416 1
0 0.963408 1
0 0.47183 1
