# vtk DataFile Version 3.0
Particle simulation
ASCII
DATASET POLYDATA
POINTS 400 float
9.21134 3.09141 5.4678
0.931902 0.997116 8.48368
9.18966 1.14624 9.34471
0.344276 9.57739 2.62436
0.588916 6.59438 6.72678
8.13348 8.96404 5.12911
5.66333 7.93415 3.96995
0.288011 6.11876 7.77181
6.19175 1.56837 3.78339
3.02797 2.68943 0
9.26082 0.769994 9.98418
5.25345 0.237595 0.787134
8.57909 9.15671 2.72444
4.61838 3.18215 8.47728
1.77947 3.11801 5.28828
1.48364 1.60795 2.40774
1.23856 1.1342 8.31644
2.13133 3.89682 0.166354
2.28004 10 7.13416
7.40382 0.707647 6.2433
7.22643 9.1601 3.92338
0 9.73665 3.77069
7.60779 6.26539 0.508404
6.71755 0.674825 3.34201
3.71122 9.3979 6.4175
4.18945 6.42153 4.57913
0.61973 9.44468 9.52014
2.50049 3.19181 9.85326
5.01867 7.19788 4.41714
3.74001 2.19368 6.56887
9.98816 1.21558 2.5381
1.56578 5.42886 8.65701
7.78435 9.00943 5.97558
7.27584 9.64801 0.759411
3.13881 9.98197 7.45796
5.9721 9.11749 1.20109
9.49643 2.54745 1.82041
2.28395 5.83752 1.59738
5.44433 0.306331 3.7619
9.22346 8.81365 7.31897
0 9.67006 9.95927
8.70987 3.67788 9.65353
5.16485 2.53398 7.53792
7.4792 9.2254 3.39935
6.90235 7.0451 4.23694
6.67655 8.70898 2.52533
9.69543 3.20464 6.17777
6.25911 9.28322 5.29495
1.67492 0.229376 7.29324
1.50005 4.96674 9.51623
2.76409 5.14745 6.00841
3.82622 9.70406 4.67277
3.88379 2.72892 4.17877
0.732125 6.42142 6.32824
8.03035 5.48249 7.0437
4.51229 2.42015 8.08512
8.35257 9.32484 3.88113
5.63301 0.100997 6.12542
4.05642 2.31576 6.29921
9.94501 9.11136 7.42666
4.99833 8.94679 8.19461
3.01207 0.504234 1.37171
7.00846 6.98892 9.51842
8.52366 0.812793 4.80011
8.36065 0 1.52771
7.45052 3.76417 5.62833
8.33634 5.83825 8.04558
8.6672 4.58399 1.6215
2.79594 4.37839 6.75608
2.88624 1.45325 9.51941
9.76025 4.16684 9.20343
7.01694 6.58588 0.915289
0.521381 10 3.30154
6.92426 7.20782 9.39907
5.5545 1.19377 9.5744
1.13883 0.234126 9.4994
5.70151 8.04035 9.76541
4.33561 6.02257 6.7471
6.24705 1.84634 7.48475
9.42618 6.26161 4.00993
9.59708 4.95864 1.18611
4.06335 3.64539 1.39426
5.36925 8.66957 0.935146
8.51138 7.73726 6.17067
6.44209 2.25146 5.49538
6.729 1.48979 8.45644
3.85372 6.15705 9.10517
5.88117 3.29545 6.84501
5.42416 6.64885 5.08803
0.548592 7.00874 8.14176
2.15056 4.21036 7.28182
9.43864 7.77675 5.33337
0.717728 0.901389 7.38305
9.40016 6.25947 8.1478
7.88471 4.36292 3.23619
2.2923 9.44301 8.37126
8.23831 4.26473 9.15145
3.54103 10 2.97423
10 8.09792 5.51704
4.69442 6.18846 7.06765
3.75423 5.25339 2.68927
0.516071 6.29573 5.85754
0.709655 1.44528 1.45193
7.44721 3.19999 4.5042
7.2841 5.61743 1.42152
3.63293 9.10552 6.4334
3.43272 2.94639 0.693436
7.80419 3.14514 5.40531
9.45046 4.19968 2.46034
1.25974 6.01898 4.32252
5.81125 1.64682 9.364
6.59528 2.13083 7.61114
0.872005 0 6.30163
6.17124 5.92477 4.97566
8.13538 0.525935 9.56833
6.98925 7.68483 7.01082
10 4.68562 7.71408
9.95917 3.89229 2.03905
8.30003 7.61559 4.17481
1.46122 7.21494 2.38327
2.12994 4.89736 9.98999
2.55252 9.14335 4.21988
6.05689 6.30764 7.40546
7.94674 6.81725 5.88988
2.79173 3.49847 8.7906
7.06239 6.22219 3.3126
8.96867 8.92969 6.44676
0.669746 9.69194 9.05277
4.59964 5.65228 1.05415
2.8989 7.39321 2.1409
9.72704 3.66308 0.692822
9.22376 4.40438 7.34614
0.555762 2.6275 3.17462
9.37066 4.07511 5.7944
0.0619069 6.4148 3.45165
9.50127 5.46088 7.44854
2.25372 0.505509 4.46017
7.60549 5.44941 1.22541
7.96943 1.20346 0.490504
8.7573 3.71091 5.77179
6.69534 0.415959 6.43315
0.378245 0 5.01126
9.44997 6.85802 7.45616
8.7895 4.07351 7.98708
8.50591 4.63395 9.36792
4.69322 5.28303 6.65082
5.26033 0 1.1678
0.444647 2.83164 7.00687
8.60463 0.900991 6.41258
7.10177 6.07409 4.32772
6.50757 0.307125 6.19828
6.39437 0.256247 10
0.306929 8.66385 7.10818
3.8126 6.30194 1.37715
3.77821 3.00327 3.96389
1.95627 4.60763 6.28554
2.44982 7.69824 3.21876
2.59474 0.635915 6.70889
3.86785 5.34113 2.37395
0.751134 6.66988 7.63797
4.0843 5.09671 4.85255
9.09575 0.615126 9.52625
3.65355 3.08806 2.07203
4.47656 4.22743 4.63366
8.52491 2.12241 8.95689
0.493184 1.39503 2.8317
6.09184 0.595754 8.04257
6.14172 9.76745 7.40293
7.50981 4.73094 9.7725
8.41753 2.09584 0.392773
8.90229 5.12167 7.34016
6.66439 4.79858 6.24854
4.23921 9.17397 3.15549
3.96692 6.48112 8.17241
8.93378 8.54673 7.34131
2.28388 10 0.141817
4.90851 2.81303 8.4182
9.20459 0.375953 5.28881
6.36885 5.00353 3.81075
8.83682 3.11105 6.01992
4.09663 3.07578 5.9161
8.21581 9.32167 4.22169
1.6439 5.71354 7.68114
0.482596 1.20237 1.67712
8.53634 2.92836 7.78224
2.23935 5.59652 2.16768
6.87843 0.156308 6.31904
3.16977 4.10593 3.83036
1.53344 4.19027 10
0.252919 4.39378 3.67134
0.981448 2.68802 0.586631
7.18233 2.1647 2.96605
9.47536 0.568012 2.85984
7.45525 0.485583 1.75578
6.81639 3.47945 8.67071
5.76478 3.1688 3.62824
1.66796 8.9849 4.21345
5.33435 7.26857 6.88709
3.14274 3.13138 6.99376
7.96601 7.5492 8.61495
7.25297 0.318138 6.16315
8.76705 3.58235 1.73586
6.58465 8.90095 7.17361
5.9252 1.00372 5.28488
6.3091 4.39877 4.02992
5.83348 7.06192 9.63959
8.93008 6.36439 1.41789
7.08188 9.84545 7.65482
6.02195 6.21357 6.23487
6.19551 0.335503 2.51745
6.92747 0.278675 6.29237
0.256744 9.25783 9.12944
1.15597 8.73488 4.73326
2.47426 8.89649 8.88457
4.84562 2.97658 4.08499
0.0112192 9.47971 9.03655
8.79314 0.730621 5.32372
2.09146 6.57452 7.8272
4.06488 4.22862 5.75824
5.76934 1.52105 0.825689
10 7.69438 6.47472
8.30052 4.47914 3.84604
7.18557 6.89505 0.72248
8.73302 0.830941 5.31199
1.02398 1.46965 8.60621
7.99917 5.57743 8.05252
2.47453 2.18021 0.837366
6.95611 7.88039 6.14047
6.70338 0.502941 6.48601
2.50482 3.77176 4.17894
1.4856 5.41225 5.21655
10 7.90228 1.5964
9.06435 4.19832 3.02088
8.72708 7.65946 4.30799
4.61323 3.40705 1.60629
3.5645 4.60184 6.67291
8.86218 0.39762 3.7086
0.726673 0.535354 6.70934
6.79857 0.332338 6.20443
6.19356 9.47315 6.63879
8.78743 0.780038 5.11308
3.43521 7.60682 7.75642
3.71646 3.33061 7.31622
8.51035 9.50698 9.88164
5.35366 7.60125 4.75143
4.12689 4.60335 0.366456
9.60377 8.48379 7.33819
6.02798 3.21745 6.88692
2.53939 9.20645 1.98552
4.12573 2.35621 2.33086
8.70378 1.15129 5.60041
10 1.96072 3.31519
0.743396 6.85786 1.96425
7.31957 6.44019 2.99898
0.863681 1.76064 2.51487
6.49832 2.66675 4.24343
1.79168 8.93766 7.62912
4.76726 3.08127 9.11605
6.76966 3.79066 10
9.10703 0.662784 0.968136
7.05255 5.877 7.7696
8.06214 4.1575 3.9981
4.00752 7.85563 6.65822
4.53607 3.5346 9.27126
6.49715 4.15649 9.58955
7.78218 3.26307 5.45831
2.25834 0 6.18116
1.63983 9.82812 7.72039
2.67272 8.547 1.78187
4.23203 9.94604 8.61961
7.92704 5.68219 0.859601
4.03175 1.42663 2.53307
6.36187 1.41838 6.01641
8.8688 6.10994 6.94709
7.50115 0.585207 4.65083
1.92793 4.3894 8.35656
5.76664 5.8851 7.44025
1.15904 5.77743 8.65707
8.23612 0 3.78299
7.40313 0.495493 6.24052
3.0057 9.29452 6.70414
8.37502 8.26158 7.59219
1.74863 6.15343 3.12873
9.73325 6.06974 5.44098
1.08874 4.00049 7.75031
9.48233 1.46482 3.85944
3.93373 4.75757 0.290787
5.91001 4.8847 5.79134
0.92919 3.79979 0.528623
1.11499 0.555418 1.63975
0.35569 8.32909 4.34001
8.31625 8.56896 2.85455
7.88778 0.724805 9.04526
2.01546 2.74567 7.37038
2.22149 1.30224 2.9005
0.161197 0.33072 9.27048
6.92748 0.393426 6.34367
7.41593 0.290199 6.41259
6.4699 0.559295 6.77319
6.50229 0.2386 6.21998
1.02764 0.040147 0
3.15585 6.28048 4.79383
6.82167 0.180001 6.26386
7.52001 8.28692 0.7311
6.43868 0.064306 6.23782
6.12827 2.28401 0.45967
7.17299 0.364082 6.28901
6.72942 0.202248 6.36377
5.73425 7.60009 8.04243
5.12386 2.68108 3.00519
7.03483 2.02038 0.41073
0.67503 0.275173 6.46755
7.56133 3.0783 8.98872
7.60324 0.38244 6.21033
2.01556 6.43549 8.17729
9.72161 5.80106 7.99719
0 1.5425 9.91452
1.26463 1.04722 3.89582
2.09416 4.70388 6.19143
2.31674 1.66539 6.67988
2.88123 6.09355 9.97131
1.21297 7.03905 3.29829
0.181669 0.51977 9.19728
6.74432 0.322553 6.49352
6.78913 0.602759 6.29346
5.04905 8.25353 7.91061
6.77272 0.62567 5.8409
10 0.958745 0.576015
4.76752 3.74695 8.06673
6.66381 0.464336 6.12091
7.84843 1.60865 5.1691
3.76797 0 1.30807
7.2684 0.0630969 4.07898
5.75048 8.2357 10
8.37372 1.2483 6.49138
6.59127 3.7223 1.33208
4.58947 9.69998 1.48316
6.7365 0.39018 6.44816
10 4.48584 4.83047
0.18519 7.17531 6.30315
5.47168 9.79929 1.47921
0.960252 2.21064 0.372085
1.32932 4.36395 9.77941
0.123593 0.532893 9.21066
6.54113 0.303399 5.95365
4.67836 0.615487 3.89369
8.79601 1.59834 7.99586
6.55591 0.333324 5.85284
6.72777 0 6.23059
0.511477 2.28018 0.865066
7.35248 0.317808 6.49671
6.34908 0 6.42784
4.04508 5.19764 8.74367
3.73169 9.42606 6.09671
8.46107 4.20702 2.91487
6.6861 0.232084 6.12683
3.4292 7.29445 7.95977
0.943179 7.9839 6.64384
6.80856 0.265969 6.8377
6.71536 0.570204 6.18449
2.84415 3.32888 2.68033
0.188892 0.346565 9.06084
0.181745 0.323279 9.12406
6.64946 0.585864 6.68489
7.07828 0.365987 6.28195
8.01277 1.34331 5.14944
0.178134 0.276908 9.0813
2.68812 1.39841 5.7601
2.45094 3.15792 9.69822
8.86666 2.18072 3.7884
8.51817 1.81707 8.36523
8.158 7.41766 8.1141
8.98287 1.39122 7.51959
7.01227 0.29976 6.77055
6.89009 0.156915 5.84043
8.83627 1.71428 8.35513
0.154249 0.317542 9.35066
1.8962 3.7901 6.895
0 3.53161 6.27272
8.60331 0.95546 5.30458
6.61634 0.287835 6.1757
6.94165 0.287945 6.31811
0.482657 3.37087 9.97205
6.51557 0.600926 6.61908
2.79386 8.23388 6.57933
0.15269 0.296488 9.28737
7.13128 0.474288 6.60372
7.19633 0.537559 6.14183
7.01229 1.73261 1.11648
1.11533 4.67369 9.44623
7.20568 0.202298 6.3957
6.80445 0.658395 6.31813
2.75763 3.43701 6.78076
6.54368 0.493068 6.80636
2.89118 1.77186 5.48357
4.86413 3.04058 9.39477
6.99437 0.535314 5.84668
1.48996 9.8858 2.98327
9.23663 9.04647 2.65183
4.48628 5.56096 7.44455
POINT_DATA 400
SCALARS particleColor float 3
LOOKUP_TABLE default
1 0.356125 0
1 0.660999 0
0.148988 1 0.851012
1 5.96046e-08 0
1 0.0572051 0
1 5.96046e-08 0
0 0.778898 1
1 0.810447 0
1 0.748289 0
0.328579 1 0.671421
1 0.91051 0
1 5.96046e-08 0
0.0527528 1 0.947247
0.404796 1 0.595204
1 5.96046e-08 0
1 0.699676 0
0.994007 1 0.00599313
1 5.96046e-08 0
0.28158 1 0.71842
1 5.96046e-08 0
1 5.96046e-08 0
0.879464 1 0.120536
1 0.945425 0
0.341858 1 0.658142
0 0.998657 1
1 0.400688 0
1 5.96046e-08 0
1 5.96046e-08 0
1 0.166434 0
1 0.988025 0
1 0.822471 0
1 0.93744 0
1 0.0433763 0
1 0.387451 0
0.728848 1 0.271152
1 5.96046e-08 0
1 5.96046e-08 0
0.0968626 1 0.903137
1 0.973678 0
0.280146 1 0.719854
1 5.96046e-08 0
1 5.96046e-08 0
1 0.459634 0
0.782563 1 0.217437
0.694951 1 0.305049
1 0.749082 0
1 5.96046e-08 0
1 5.96046e-08 0
0.597901 1 0.402099
1 0.126184 0
0.692813 1 0.307187
1 5.96046e-08 0
0.600576 1 0.399424
0.579053 1 0.420947
1 5.96046e-08 0
1 0.586295 0
1 0.104839 0
0 0.962004 1
0.602827 1 0.397173
1 0.988023 0
1 5.96046e-08 0
1 5.96046e-08 0
1 0.0632271 0
1 0.0855861 0
1 5.96046e-08 0
1 5.96046e-08 0
0.315599 1 0.684401
1 0.148878 0
1 5.96046e-08 0
0 0.654123 1
0.976919 1 0.0230805
1 5.96046e-08 0
1 0.927737 0
1 5.96046e-08 0
0 0.811022 1
0.668997 1 0.331003
0 0.904517 1
1 0.00422639 0
0.08461 1 0.91539
0.269526 1 0.730474
0.32139 1 0.678609
1 0.950795 0
1 0.0446913 0
0.943609 1 0.0563905
1 0.143378 0
1 0.786546 0
0.727189 1 0.272811
1 0.699213 0
1 5.96046e-08 0
1 5.96046e-08 0
0.836047 1 0.163953
1 5.96046e-08 0
0.362906 1 0.637094
0.418231 1 0.581769
1 5.96046e-08 0
0 0.839055 1
1 0.948405 0
1 5.96046e-08 0
1 5.96046e-08 0
1 5.96046e-08 0
0.780932 1 0.219068
1 5.96046e-08 0
1 0.948765 0
1 5.96046e-08 0
0.487979 1 0.512021
0.228007 1 0.771993
0.974405 1 0.0255951
0 0.348422 1
1 0.744309 0
0.269598 1 0.730402
0.088462 1 0.911538
0 0.857548 1
0.403432 1 0.596568
0 0.93075 1
0 0.469915 1
1 5.96046e-08 0
1 5.96046e-08 0
1 5.96046e-08 0
1 0.086071 0
1 5.96046e-08 0
1 0.572329 0
1 0.934489 0
1 0.0145431 0
1 0.18697 0
1 5.96046e-08 0
1 5.96046e-08 0
0.916488 1 0.0835121
1 5.96046e-08 0
1 5.96046e-08 0
1 0.78135 0
1 0.0584841 0
1 5.96046e-08 0
0.743054 1 0.256946
1 0.362974 0
1 5.96046e-08 0
0.939547 1 0.0604526
1 0.648291 0
1 5.96046e-08 0
1 0.712575 0
1 5.96046e-08 0
0 0.356867 1
1 5.96046e-08 0
0.57197 1 0.42803
1 0.05885 0
1 5.96046e-08 0
1 0.818798 0
1 5.96046e-08 0
1 5.96046e-08 0
0.646546 1 0.353454
1 5.96046e-08 0
0 0.388672 1
1 0.454617 0
0 0.866884 1
1 5.96046e-08 0
1 0.729387 0
0.364851 1 0.635149
0.293939 1 0.706061
1 0.784187 0
0 0.480855 1
1 5.96046e-08 0
1 5.96046e-08 0
1 0.337195 0
0.449771 1 0.550229
0.425692 1 0.574308
1 0.885618 0
0.10075 1 0.89925
1 0.560463 0
1 5.96046e-08 0
0.88103 1 0.11897
0 0.609959 1
1 5.96046e-08 0
1 0.889927 0
1 5.96046e-08 0
0.995047 1 0.00495279
1 0.677758 0
1 0.623682 0
0.103216 1 0.896784
1 5.96046e-08 0
1 5.96046e-08 0
0.291587 1 0.708413
1 0.481565 0
0.953433 1 0.0465666
0.680565 1 0.319435
1 0.625057 0
1 0.430877 0
1 5.96046e-08 0
0 0.543533 1
1 5.96046e-08 0
1 0.194196 0
1 0.877674 0
1 5.96046e-08 0
1 5.96046e-08 0
1 0.0631104 0
1 0.658556 0
1 5.96046e-08 0
0.815881 1 0.184119
0.432442 1 0.567558
0 0.930708 1
1 5.96046e-08 0
1 0.694338 0
0 0.358137 1
1 5.96046e-08 0
0.81068 1 0.18932
1 5.96046e-08 0
1 5.96046e-08 0
1 0.368701 0
0.430075 1 0.569925
1 0.590006 0
1 5.96046e-08 0
1 5.96046e-08 0
0 0.826744 1
1 0.509976 0
0 0.754181 1
1 5.96046e-08 0
1 0.616667 0
0.958984 1 0.0410159
0 0.66113 1
1 0.0926725 0
1 5.96046e-08 0
1 5.96046e-08 0
1 5.96046e-08 0
1 5.96046e-08 0
1 0.685726 0
0 0.481043 1
1 0.400198 0
1 0.478884 0
1 0.329536 0
1 5.96046e-08 0
0 0.607745 1
0 0.931101 1
1 5.96046e-08 0
0 0.732466 1
0.347605 1 0.652395
1 0.33932 0
1 0.821407 0
1 5.96046e-08 0
1 5.96046e-08 0
0.783236 1 0.216764
0 0.17381 1
0.991799 1 0.00820071
0 0.589758 1
0.94622 1 0.0537798
1 5.96046e-08 0
1 5.96046e-08 0
1 5.96046e-08 0
1 5.96046e-08 0
0.276409 1 0.723591
1 5.96046e-08 0
0.918098 1 0.0819024
1 0.520235 0
0 0.679342 1
1 0.819571 0
1 5.96046e-08 0
1 5.96046e-08 0
1 5.96046e-08 0
0.873679 1 0.126321
1 0.493101 0
0.410243 1 0.589757
1 0.0736267 0
0.529164 1 0.470836
0.23932 1 0.76068
1 5.96046e-08 0
0.958296 1 0.0417045
1 5.96046e-08 0
1 5.96046e-08 0
0.848322 1 0.151678
1 5.96046e-08 0
1 5.96046e-08 0
1 5.96046e-08 0
1 0.51185 0
1 5.96046e-08 0
1 5.96046e-08 0
1 0.870979 0
1 0.550569 0
0.488243 1 0.511757
1 0.983973 0
1 5.96046e-08 0
1 0.546265 0
0.483177 1 0.516823
0 0.695704 1
1 5.96046e-08 0
0.678226 1 0.321774
1 5.96046e-08 0
0.358046 1 0.641954
1 5.96046e-08 0
0.111349 1 0.888651
1 0.96608 0
1 5.96046e-08 0
0.540565 1 0.459435
1 5.96046e-08 0
1 5.96046e-08 0
1 0.93067 0
0.695599 1 0.304401
1 0.666524 0
1 5.96046e-08 0
0 0.478596 1
0 0.612885 1
0 0.36124 1
0 0.295932 1
0 0.722041 1
0 0.90633 1
1 0.416335 0
0 0.462444 1
0.479657 1 0.520343
0 0.637173 1
0.141926 1 0.858074
0 0.648372 1
0 0.462794 1
1 5.96046e-08 0
1 0.797436 0
1 5.96046e-08 0
1 0.559731 0
1 0.416174 0
0 0.830518 1
1 5.96046e-08 0
1 5.96046e-08 0
1 5.96046e-08 0
0.521844 1 0.478156
1 0.960245 0
1 5.96046e-08 0
1 5.96046e-08 0
0.485876 1 0.514124
0 0.258201 1
0 0.413907 1
0 0.833354 1
1 0.127521 0
0 0.57145 1
0.0902856 1 0.909714
1 0.825153 0
0 0.445407 1
0.666316 1 0.333684
1 5.96046e-08 0
1 0.997686 0
0.324578 1 0.675422
1 5.96046e-08 0
1 5.96046e-08 0
0.679977 1 0.320023
0 0.237404 1
1 5.96046e-08 0
0.271943 1 0.728057
1 5.96046e-08 0
1 5.96046e-08 0
1 0.307083 0
0 0.198313 1
0.175316 1 0.824684
0.41234 1 0.58766
0 0.752811 1
0 0.54965 1
0 0.250323 1
0.485504 1 0.514496
0 0.547397 1
0 0.31929 1
1 5.96046e-08 0
1 5.96046e-08 0
1 5.96046e-08 0
0 0.734063 1
0.495434 1 0.504566
0.815891 1 0.184109
0 0.68629 1
0 0.325555 1
0.901407 1 0.0985929
0 0.659232 1
0 0.879659 1
0 0.668919 1
0 0.587281 1
1 5.96046e-08 0
0 0.256089 1
1 0.450742 0
1 5.96046e-08 0
1 0.160204 0
0.063354 1 0.936646
0 0.680013 1
1 0.457837 0
0 0.527288 1
0 0.44412 1
0 0.282956 1
0 0.666977 1
0.709623 1 0.290377
1 0.114452 0
0 0.702963 1
0 0.711035 1
0 0.700137 1
1 5.96046e-08 0
0 0.664275 1
1 5.96046e-08 0
0 0.449113 1
0 0.791113 1
0 0.369586 1
1 5.96046e-08 0
0.795894 1 0.204106
0 0.510585 1
0 0.731273 1
0.927085 1 0.0729147
0 0.298105 1
0.975467 1 0.0245335
0 0.661516 1
0 0.225125 1
1 5.96046e-08 0
1 0.175018 0
0.0447476 1 0.955252
