# vtk DataFile Version 3.0
Particle simulation
ASCII
DATASET POLYDATA
POINTS 400 float
0.814142 0.122348 9.88057
4.17846 2.09576 8.81738
6.06524 5.70244 2.08384
0.151435 8.88561 5.56304
3.73373 4.02347 1.02352
7.68694 2.09943 3.87308
8.20142 2.32658 4.76174
7.29623 5.43162 1.07726
3.85995 4.01524 1.86882
3.4625 4.64469 3.01408
6.59215 1.9305 5.07712
0.345837 6.08599 3.62332
6.17302 2.76667 1.62467
5.30625 8.94948 6.13559
9.79908 4.97866 7.36156
7.69764 0.906883 4.13391
2.98642 1.62604 4.25939
2.92137 0.287601 0.576663
3.4874 1.85087 6.55111
7.17516 0.393367 8.61196
3.0268 0.492314 0.590011
5.05521 9.84976 4.79503
3.51742 6.04887 0.144696
0.457776 5.7205 8.40969
3.20642 5.44008 7.23806
3.47611 3.72599 2.61821
3.22936 6.20277 5.75398
6.71189 0.487958 1.55172
1.65295 7.84377 0.701943
2.51657 8.03289 9.3672
3.0435 4.70385 1.22458
0.951587 7.60881 7.9455
9.65048 8.10651 0.865251
8.76239 0.243193 7.42612
3.43938 2.27466 1.85248
8.84309 6.52483 1.25677
2.04641 3.32709 8.19325
3.01217 0.289395 0.908075
9.72161 2.76543 3.4453
3.43029 1.18014 3.00579
0.848174 5.16197 5.30557
5.05525 1.6649 2.81283
3.05269 9.58255 3.16944
5.43415 5.84669 8.57492
6.04284 0.359631 1.74149
3.11466 1.20847 1.17013
6.84554 4.36704 9.65337
9.30673 0.110726 5.07635
6.50041 0.300833 2.00623
3.39195 2.01279 7.49372
2.40184 9.93548 5.38847
1.1843 6.34621 6.07956
9.93533 3.44756 1.75087
2.4601 7.7561 8.56738
2.67922 0.242678 6.33753
5.83386 0.330741 1.31313
8.67293 5.64773 9.56195
6.27549 3.01146 2.86872
4.78503 3.34849 4.93405
6.8918 0.044344 8.8332
0.0320097 5.29105 9.20207
9.64847 0.123226 3.74295
1.5273 4.67515 3.09151
0.538363 0.495833 8.33764
0.138519 5.96172 7.44882
4.35813 0.782753 4.69695
3.05196 1.78915 5.2253
7.99476 0.473846 10
7.84242 6.68025 9.61314
4.55748 5.12411 1.47551
4.59833 2.29085 8.09173
5.98932 2.25159 1.72315
2.99885 6.56537 3.83577
0.998097 5.32496 5.834
5.58188 5.70399 7.32954
2.09046 5.33773 0.537251
3.01571 2.40324 4.40101
10 4.90844 7.17411
7.83142 1.28564 4.42041
8.43677 7.3705 3.85853
3.39472 0.445177 0.503825
7.81623 0.395679 7.40847
3.28392 1.31806 0.478085
3.46094 0.0663963 1.38139
8.54464 8.4526 9.66696
1.1752 1.63323 8.37895
7.63486 9.60426 8.61872
8.72487 9.62706 5.50326
1.49359 0.288148 7.13991
6.07243 3.95668 0.829621
2.79807 0.506982 0.231856
6.61422 6.26709 1.116
0.870135 5.37861 2.37132
3.58075 0.62185 7.80126
1.35138 0.222554 6.81846
0.342006 8.23867 6.1663
7.19845 0.849558 9.60784
6.4241 0.32931 6.44475
3.98609 4.90467 7.56145
8.32393 1.32145 0.412899
3.28064 0.315481 0.830045
4.36417 9.95416 6.24092
0.810511 2.13151 7.11581
0.989663 0.912128 3.79726
7.55044 2.59741 9.96534
2.75139 5.36318 2.89552
1.68487 1.45261 8.35938
6.48717 0.570747 0.826735
5.07071 0.727893 1.84874
4.34751 4.43607 1.85218
1.4525 0.802534 3.13569
4.79919 0 8.99666
4.24705 2.3921 4.98753
4.33329 0.350667 0.500722
3.03918 0.281637 0.767965
1.81393 2.88357 6.22278
4.65401 0.138782 7.8534
6.75242 4.27055 10
9.77754 3.14878 0.245461
1.33095 7.52788 3.62912
2.75974 0.282033 0.349918
9.84844 2.46871 0.362028
10 0.737965 9.05631
2.80735 0 8.73454
0.757273 9.92201 4.1509
3.43541 0.309555 0.955871
2.1616 1.11328 8.76416
0.555829 0.433094 8.81984
4.09248 1.84406 6.93751
1.59832 9.18933 2.03526
2.12685 0.672738 5.86049
3.78297 4.6008 7.59365
6.79751 1.72195 2.80152
9.14451 0.882599 1.33856
3.4455 0.464429 7.68505
1.14564 1.78997 2.66772
0.212698 0.554172 2.01039
1.30676 0.654883 7.86762
9.26453 8.50451 1.27196
5.23739 0.508001 7.68131
3.39567 0.425858 1.07109
4.90422 8.95916 2.90585
2.99891 5.95321 7.39671
1.97836 3.24487 4.38995
3.56308 0.337995 0.663265
8.56686 2.35625 7.81826
7.6799 0.360301 1.81246
0.495908 6.9665 2.7486
5.97124 2.58348 1.86654
5.94621 2.06295 7.89501
3.4556 0.37332 1.11978
3.33593 1.74714 5.81848
1.14073 0.610431 8.14093
3.74292 0.504307 0.302838
10 0.966165 9.37375
5.05162 0.734253 1.71756
6.65961 2.96732 0.0756795
6.59859 0.266442 0.657494
3.89695 0.467612 8.58157
7.0959 2.09258 4.18677
7.66584 3.27183 1.10922
9.84408 0.35107 9.29863
3.95631 1.40519 6.52119
5.85972 6.39184 6.99759
8.59062 2.30184 0.131693
8.27558 9.66138 7.5812
1.00494 0.605534 4.92628
9.61709 0.681043 7.77991
7.18419 9.2778 9.53885
1.98731 0.0519363 6.43692
3.31622 0.463951 0.766428
8.42408 2.84058 2.75769
8.0742 3.31347 2.38158
2.29192 5.96663 0.12711
1.5378 0.364283 7.23529
0.681036 5.75446 3.35053
1.40686 0.841869 6.05821
0.122564 0.694624 4.37541
0.537914 0.39005 9.91437
7.13696 9.07027 9.21701
2.76043 0.158912 0.62094
1.29516 7.06993 3.62454
1.44567 1.9331 8.08625
8.04891 2.10548 0.870058
5.26136 0.126622 7.55597
8.18465 1.67022 4.62971
3.65838 0.313429 0.772406
1.16077 1.53408 7.60819
7.36224 0.457539 1.571
3.05854 0.106579 0.69315
3.33636 0.300498 0.646961
3.25845 0.386073 0.614843
1.98986 5.22387 2.22921
8.08432 10 0.124539
9.09946 1.22762 1.82208
3.04957 0.0861731 0.517452
2.32054 0.904215 4.87233
7.79756 3.39815 4.3926
2.88447 0.411666 0.701906
3.49834 0.059178 0.265119
3.57761 0.317046 0.854503
6.19563 0.0954936 1.10326
6.90406 0.548172 1.50773
1.81892 1.03039 6.10559
8.58517 9.74293 1.81396
4.69785 0.468719 8.43077
2.87717 0.0236567 0.709325
0.344867 5.35305 2.4864
3.4466 1.94389 1.28372
6.79828 2.03588 0.0488977
3.43506 0.236909 0.455396
3.19057 0.177669 0.465157
8.88758 3.92657 6.50292
8.66599 0.96881 6.58746
9.76259 1.31731 7.98402
4.9192 0.267443 8.04491
3.03085 0.665144 0.379534
2.88857 0.386371 0.505866
10 5.82534 1.92011
3.27676 0.320738 1.9674
6.10794 6.5963 0.584527
7.63021 5.39307 3.35754
4.80379 0.205862 8.35836
2.67745 0.237824 0.603561
7.55791 0.95102 6.45121
4.1196 0.138504 2.02563
5.72398 3.61693 0.644395
3.43336 0.315357 1.09139
2.96848 0.649508 0.848085
9.61891 3.78751 0.371875
7.03979 3.51806 7.46717
5.20646 0.424085 8.07666
7.59071 0.658755 1.95417
2.88707 0.257375 0.122938
4.33021 0.425235 8.11379
1.7161 1.5445 2.76721
6.62574 9.7073 9.41187
2.08026 1.13279 4.91752
3.54369 0.0358296 0.695521
0 2.76142 2.9571
3.43649 0.136276 0.494685
3.30522 0.296164 0.936327
3.30534 0.491401 0.772939
3.40779 0.119346 0.477159
5.02134 0.356021 8.01834
1.42585 6.34981 2.88442
0.52453 0.505858 5.67097
1.66131 0.861284 6.64645
1.69058 6.26959 2.74921
8.67096 0.0098001 9.01655
2.95947 0.383425 0.267416
1.0048 8.08352 6.83566
4.31056 0.309679 8.12273
4.95217 0.175977 4.03591
7.95891 0.54738 1.76742
3.17428 0.285469 0.207271
6.41506 1.36636 7.5778
4.52686 0.534116 8.20303
2.77217 3.50094 4.9846
4.47825 0.222325 8.11751
3.08179 0.140595 0.849428
9.75503 2.1025 0.172129
1.74374 0.996565 6.12181
4.47258 1.27441 4.376
5.20873 0.0630641 8.38327
1.22064 8.70678 6.47953
6.72668 0.0866064 1.93298
4.01274 0.492371 7.83832
7.56059 0.081094 1.56951
3.60243 0.438407 1.05582
3.46984 0.330664 0.435099
9.33528 3.51766 0.179272
9.48009 0.409564 2.47254
3.19744 2.70416 3.97941
5.87987 1.52147 7.3814
4.07447 0.287053 8.86388
2.76542 2.51675 4.29612
9.10653 9.27339 0.945913
3.71782 2.04407 1.9384
3.29947 0.431836 0.398396
6.50909 0.132581 2.24795
6.15801 0.553429 1.23392
8.05234 2.46655 0.288163
1.88653 0.656069 6.11701
4.29666 4.88282 7.46702
7.92041 1.097 0.550238
3.42128 0.473868 0.543278
7.97164 0.317952 7.49787
5.37043 2.2155 7.17463
0.522413 0.321847 1.75174
2.29794 0.0445162 8.5327
6.33217 0.416594 0.665119
2.9872 0.482586 0.931583
0.572645 0.335273 8.60798
4.33382 0.480613 8.61812
4.17721 0.428835 8.11176
3.45997 0.327139 0.33737
3.68802 0.448723 0.7778
8.69681 2.40903 7.76446
3.46289 0.399744 0.17667
1.36775 1.98657 1.63957
1.71407 0.995603 6.4343
4.86896 0.407316 3.29598
1.07467 3.21554 4.9425
2.90213 0.0804665 0.653677
0.141877 0.283152 8.61257
3.42127 0.121824 0.171706
2.97931 0.14785 0.586273
1.78807 0.355945 5.79087
3.04116 2.57778 4.60959
4.15644 0.607566 7.73807
3.62561 1.47407 5.96121
7.41848 0.0604693 1.56568
3.36159 0.760689 0.876422
8.5159 2.77783 7.60828
0.627956 0.158855 8.26166
9.20224 0.65356 3.63299
3.16384 3.23885 5.40781
5.56139 1.96949 7.64087
5.82476 2.16049 1.82653
4.79204 0.277923 8.04119
0.402541 0.349664 5.66177
4.20483 0.123531 8.34454
2.79547 0.567191 0.878785
6.58861 0.127319 2.20384
8.67577 1.25322 0.269359
3.20306 0.375249 0.748215
5.52767 0.69082 1.19931
2.49536 6.18113 2.18372
3.00906 0 0.442099
9.39389 4.96842 1.09851
3.50299 0.281605 1.04237
4.41415 0.212307 8.03391
3.45715 0.327424 0.279563
5.95168 0.480069 1.1417
5.38519 10 6.75541
3.42677 3.52885 5.25424
3.29899 0.131617 0.564924
9.32479 0.416153 9.04265
3.39857 0.393793 7.55741
4.70088 0.288768 8.77382
2.82756 0.448311 7.32237
4.51562 0.505676 8.36375
4.36554 0.184306 8.39696
3.50842 0.18438 0.423432
2.88579 0.232213 0.719379
6.2542 0.339728 1.21978
3.46564 0.169298 0.630289
3.43045 0.46955 0.957957
3.56156 0.137431 7.6604
3.52205 0.194247 1.06276
3.0718 0.490337 0.558629
5.87929 1.16271 7.38786
4.96552 0.452085 7.91692
3.68166 0.056435 1.25113
3.69062 0.27937 0.270326
6.03225 0.599413 1.21778
4.45869 0.513211 8.63869
4.01028 0.280182 0.328664
3.04547 0.257985 0.826252
5.93577 0.57402 1.52095
4.76201 0.239924 8.0634
4.64176 0.20521 7.83004
2.85477 0.37158 0.850865
3.94915 0.35085 0.501789
7.60362 0.310333 2.13604
4.93332 0.328062 8.34124
9.22987 0.967001 6.67417
5.03048 0.489057 8.65936
8.66287 1.63532 0.414008
5.92784 0.581485 1.43542
3.46654 1.69218 5.81877
4.17909 0.402281 7.76928
3.28759 0.576163 0.58719
2.76057 0.22493 0.46713
7.79161 0.140476 1.78539
4.70443 0.302202 8.05871
4.43844 0.156877 8.27207
5.40797 0.269618 8.16364
3.27787 0.303147 0.784367
3.16055 0.0966954 0.604783
2.83436 0.281963 0.826845
5.20676 0.2005 8.27936
3.37117 0.354607 1.32766
0.557087 0.413954 8.2865
4.30573 0.243438 8.15536
3.06081 0.28795 0.534814
3.26011 0.522194 0.883606
4.31266 5.53403 6.90247
5.89367 0.0390047 1.48204
3.07656 0.26559 0.484411
3.20469 0.352682 0.585276
3.95979 0.11124 7.8502
2.88753 0.298297 0.53837
0.540823 0.244857 8.34503
4.09283 0.318946 8.17464
3.12786 0.304891 0.526871
1.25979 0.252769 7.03878
5.12486 0.472304 1.41418
5.94311 0.0188853 1.50469
POINT_DATA 400
SCALARS particleColor float 3
LOOKUP_TABLE default
0.0878441 1 0.912156
0.812475 1 0.187525
0.73834 1 0.26166
0.738204 1 0.261796
0.588371 1 0.411629
1 5.96046e-08 0
1 5.96046e-08 0
0.110263 1 0.889737
0 0.363591 1
1 0.569674 0
0.139907 1 0.860093
0.881115 1 0.118885
0.719362 1 0.280638
0.52866 1 0.47134
0 0.73431 1
1 5.96046e-08 0
0.480449 1 0.519551
0 0.446915 1
0.10663 1 0.89337
0.87226 1 0.12774
0 0.459269 1
0.166823 1 0.833177
1 0.568286 0
0.604762 1 0.395238
0.644504 1 0.355496
1 0.854452 0
0.2716 1 0.7284
0.465744 1 0.534256
0.970605 1 0.0293945
0.548293 1 0.451707
1 5.96046e-08 0
0.546719 1 0.453281
0.756615 1 0.243385
0.568589 1 0.431411
0.625514 1 0.374486
1 0.649318 0
1 5.96046e-08 0
0 0.679978 1
1 5.96046e-08 0
0.870693 1 0.129307
1 5.96046e-08 0
0.427402 1 0.572598
0.939616 1 0.060384
0.942318 1 0.0576819
0.00858659 1 0.991413
0.601714 1 0.398286
0.36322 1 0.63678
0 0.905359 1
0 0.628485 1
0.766543 1 0.233457
0 0.642612 1
0.472516 1 0.527484
0.0952348 1 0.904765
0.623786 1 0.376214
0 0.784715 1
0 0.559769 1
0.738205 1 0.261795
0 0.840648 1
0 0.443774 1
1 0.707151 0
0 0.996566 1
0.0619019 1 0.938098
0 0.739172 1
0 0.417452 1
0.928122 1 0.0718783
1 0.841166 0
0.540516 1 0.459484
1 5.96046e-08 0
0.108626 1 0.891374
0.0326532 1 0.967347
0.397169 1 0.602831
0.0626643 1 0.937336
1 0.296801 0
1 5.96046e-08 0
0.226527 1 0.773473
1 0.590978 0
0 0.562241 1
0.478051 1 0.521949
0.39049 1 0.60951
0.451252 1 0.548748
0 0.727082 1
0 0.652734 1
1 0.901875 0
0 0.550438 1
1 5.96046e-08 0
0 0.843011 1
0 0.940794 1
1 5.96046e-08 0
0.227957 1 0.772043
0.0779963 1 0.922004
0 0.491724 1
1 0.436071 0
1 5.96046e-08 0
0 0.905389 1
0.409785 1 0.590215
1 0.763193 0
1 0.990944 0
0 0.91557 1
0.543553 1 0.456447
0 0.810867 1
0 0.524019 1
1 5.96046e-08 0
0.129147 1 0.870853
0 0.764057 1
0 0.922089 1
1 0.801763 0
1 0.671615 0
0 0.669592 1
1 5.96046e-08 0
0.592309 1 0.407691
1 0.859593 0
1 0.712732 0
1 0.884326 0
0 0.652792 1
0 0.990382 1
0 0.632849 1
0 0.132769 1
1 0.821172 0
0.829645 1 0.170355
0.578275 1 0.421725
0 0.781966 1
0.694048 1 0.305952
0.0856455 1 0.914354
1 0.88742 0
0.0720159 1 0.927984
0 0.533173 1
0.821203 1 0.178797
0 0.487152 1
1 0.64006 0
1 5.96046e-08 0
1 5.96046e-08 0
0.956863 1 0.0431371
0.875921 1 0.124079
0 0.62692 1
0 0.77437 1
0.00619437 1 0.993806
0.23023 1 0.76977
0 0.983421 1
1 0.495471 0
0 0.436114 1
0 0.437887 1
0.609702 1 0.390298
1 0.883663 0
0.835941 1 0.164059
0 0.676306 1
0.0563322 1 0.943668
0 0.490168 1
0.917866 1 0.0821339
0.00237118 1 0.997629
0.775582 1 0.224418
0 0.319361 1
0 0.806397 1
0 0.424678 1
0 0.954708 1
1 5.96046e-08 0
0 0.508602 1
0.165212 1 0.834788
0 0.596089 1
0.76991 1 0.23009
0 0.979825 1
0 0.652158 1
0.504609 1 0.495391
0 0.934168 1
1 5.96046e-08 0
1 0.584045 0
0.476678 1 0.523322
1 5.96046e-08 0
0 0.981485 1
1 5.96046e-08 0
0.236978 1 0.763022
0 0.772873 1
1 0.677718 0
1 0.124654 0
1 0.658744 0
0 0.805237 1
0.992655 1 0.00734508
0 0.649996 1
0.4116 1 0.5884
0 0.38386 1
0.0562064 1 0.943794
0 0.38742 1
0.90243 1 0.0975695
0.824696 1 0.175304
0 0.739938 1
0 0.607474 1
0.277886 1 0.722114
0 0.412811 1
1 5.96046e-08 0
0.02136 1 0.97864
0 0.813518 1
0 0.670646 1
0 0.93887 1
1 5.96046e-08 0
1 5.96046e-08 0
1 5.96046e-08 0
0 0.519127 1
0.01548 1 0.98452
1 0.796506 0
0 0.585525 1
0 0.670356 1
0 0.235395 1
0 0.554068 1
0.138516 1 0.861484
0 0.514926 1
0.768705 1 0.231295
0 0.428641 1
0 0.216686 1
1 5.96046e-08 0
0 0.717748 1
0 0.611367 1
0 0.403629 1
0 0.948503 1
1 5.96046e-08 0
0 0.686975 1
1 0.512946 0
0 0.578761 1
0 0.575025 1
0 0.854291 1
1 0.437353 0
0.593244 1 0.406756
1 0.839207 0
0.170982 1 0.829018
0 0.707223 1
0 0.754572 1
0 0.340107 1
0 0.385565 1
0 0.954639 1
0.00434879 1 0.995651
0 0.315775 1
0.167382 1 0.832618
0.187897 1 0.812103
0 0.912473 1
0 0.588222 1
0 0.663147 1
0 0.255745 1
0 0.567291 1
1 5.96046e-08 0
0 0.949547 1
0 0.837441 1
1 5.96046e-08 0
0 0.720326 1
0.0882612 1 0.911739
0 0.917767 1
0 0.713451 1
0 0.795098 1
0.0648079 1 0.935192
0 0.47836 1
0 0.831697 1
0 0.687818 1
0.392093 1 0.607907
0 0.491819 1
1 0.742239 0
0 0.71274 1
0 0.774962 1
0 0.433382 1
0 0.383875 1
0 0.636653 1
0 0.61474 1
0 0.876487 1
0 0.396304 1
0 0.907256 1
1 0.360311 0
0 0.468243 1
0.272152 1 0.727848
0 0.111155 1
1 0.499663 0
0 0.742254 1
0 0.402872 1
0 0.916815 1
0 0.69134 1
0 0.682921 1
0.719568 1 0.280432
1 0.618674 0
0 0.892001 1
0 0.776135 1
0 0.662502 1
0 0.513399 1
0.615385 1 0.384615
0 0.821642 1
0 0.179775 1
0 0.485544 1
0 0.107678 1
0.41997 1 0.58003
0 0.676055 1
1 5.96046e-08 0
0.327177 1 0.672823
0 0.663289 1
0.213662 1 0.786338
0.0153303 1 0.98467
1 0.459173 0
1 5.96046e-08 0
0 0.697807 1
0.0301894 1 0.969811
0 0.412671 1
0 0.787724 1
0 0.738159 1
0 0.548088 1
0 0.552437 1
0 0.580663 1
0 0.477552 1
0 0.650825 1
0 0.728533 1
0.00548029 1 0.99452
1 5.96046e-08 0
0 0.625578 1
0 0.595106 1
0 0.865026 1
0 0.566155 1
0.616593 1 0.383407
0 0.63173 1
0 0.354395 1
0 0.507488 1
0.0182815 1 0.981719
0 0.453975 1
0 0.729649 1
0 0.813829 1
0.278554 1 0.721446
0.142592 1 0.857408
0 0.723882 1
0 0.529354 1
0 0.748713 1
0 0.808011 1
0 0.635605 1
0.0840365 1 0.915964
0 0.217052 1
0 0.416414 1
0 0.693179 1
0 0.44399 1
0 0.676616 1
0 0.999307 1
0.932006 1 0.0679937
0 0.723678 1
0 0.30721 1
0.0459789 1 0.954021
0 0.328908 1
0.222795 1 0.777205
0 0.100098 1
0 0.763215 1
0 0.674191 1
0 0.332884 1
0 0.950172 1
0 0.639582 1
0 0.83991 1
0 0.431593 1
0 0.350026 1
0 0.66242 1
0 0.462326 1
0 0.542723 1
0.235225 1 0.764775
0.270944 1 0.729056
0.142734 1 0.857266
0 0.442825 1
0.350919 1 0.649081
0 0.459077 1
0 0.592869 1
0 0.385418 1
0.0938536 1 0.906146
0 0.817409 1
0 0.26252 1
0 0.466162 1
0 0.955925 1
0 0.71797 1
0 0.790411 1
0 0.352239 1
0 0.536813 1
0 0.392294 1
0 0.782835 1
0.139841 1 0.860159
0 0.312305 1
0 0.691871 1
0 0.688079 1
0 0.486957 1
0 0.507027 1
0.0197849 1 0.980215
0 0.885568 1
0 0.864348 1
0 0.607202 1
0.16537 1 0.83463
0 0.454853 1
0 0.534645 1
0.0956252 1 0.904375
0 0.308069 1
0 0.875284 1
0 0.504839 1
0 0.501257 1
0 0.284513 1
0 0.946211 1
0 0.521301 1
1 0.46004 0
0 0.604549 1
0.00915843 1 0.990842
0 0.51491 1
0 0.485256 1
0 0.702271 1
0 0.911235 1
0 0.359052 1
0 0.792893 1
0.137103 1 0.862897
0 0.36632 1
0 0.546904 1
