# vtk DataFile Version 3.0
Particle simulation
ASCII
DATASET POLYDATA
POINTS 400 float
3.19701 0.0610081 7.38095
2.04828 4.40531 2.14251
0.226478 3.36527 2.10762
2.30213 0.728894 0.530074
9.10361 2.09303 4.08865
9.99183 1.27067 4.71815
8.6277 3.85842 1.66915
2.12281 4.57259 2.11344
6.20176 2.72495 1.45356
8.32531 0.482037 3.49236
1.98048 0.599454 0.893239
2.01008 2.11503 2.71355
3.32518 2.79771 3.92286
3.0636 0.633951 0.675687
9.02157 2.32002 3.70324
8.00185 4.95716 9.50664
3.64685 5.10504 0.769078
1.97205 0.559953 3.10558
3.05991 9.37909 7.72432
8.29838 0.494303 3.40923
3.40001 0.0787816 3.18971
4.6511 2.93367 8.83941
0.417049 4.24538 7.26674
8.63328 0.436883 3.71417
9.02091 6.86086 8.98799
3.26623 0.190038 1.51276
0.104869 6.54606 8.17464
1.61751 0.510479 2.37327
5.07708 1.27475 5.22845
1.58301 1.07566 3.35296
8.61612 3.2345 2.58322
9.31872 0.179363 1.07131
2.75867 2.05659 7.56702
8.66276 0.434253 3.67932
2.0972 2.13335 2.28591
2.16174 0.734967 0.889561
7.79326 0.812515 8.7122
2.71761 0.338048 1.85631
5.59116 0.0478457 1.68699
1.72416 1.00477 0.734877
3.68759 0.18949 1.22131
7.62293 5.46323 3.79531
5.03546 4.99866 4.84584
9.68388 3.91302 3.65011
9.75461 0.220222 9.27981
5.40183 0.156811 1.70776
9.16115 1.8437 3.73452
2.30088 0.509226 0.522933
5.52489 0.459307 1.81816
5.75113 2.1045 2.01062
0.529648 2.72038 1.95967
7.62616 5.39268 3.79451
5.85434 1.05431 5.4991
8.72443 1.0441 3.52369
9.63024 0.18344 9.61775
5.49336 0.179926 1.65881
4.55957 0.359099 7.93287
2.17137 0.644939 0.831505
5.49308 0.456427 1.76249
0.550895 1.73533 8.62379
4.96072 0.362062 6.14111
4.88854 0.697008 5.58901
0.461631 0.688234 6.51559
8.3479 0.527804 3.35044
7.04131 0.790843 5.73181
8.90567 0.733649 6.60308
5.02191 1.18367 4.81566
0.536328 2.99831 1.99692
5.39908 0.388053 1.84893
4.26479 0.736561 8.44124
4.73539 0.303173 5.59428
2.27266 1.79177 2.66946
7.53379 0.565835 8.18893
8.36207 0.533761 3.35506
7.5073 0.571335 7.68224
5.03647 0.289655 7.92609
5.02314 1.15856 4.84396
4.22646 0.494822 8.14294
5.34116 0.741567 1.89305
5.74571 0.543259 8.36758
2.70028 0.300277 2.10948
1.61493 1.04042 2.81714
2.2501 2.1135 2.49829
2.75299 0.344688 2.2593
5.01064 0.669637 7.05899
5.18202 1.04492 8.33566
5.31771 0.458166 7.1947
4.92996 0.864155 1.89717
4.33566 1.99763 1.92946
9.50018 0.442217 1.22659
3.03969 0.468562 1.97886
2.48511 0.259325 1.37153
2.1841 2.60951 7.23362
2.7807 0.333386 2.28179
4.98723 0.65532 7.0987
5.2187 0.917562 8.44103
4.78107 0.781355 8.40585
2.31184 0.025741 0.848676
5.46276 0.891771 7.83449
9.5262 0.428213 1.24229
2.98121 0.751741 2.17837
2.03526 0.684905 9.18321
1.97139 0.448076 1.63472
7.10665 1.05768 4.80693
9.48155 0.36012 0.352362
2.25823 0.579185 0.557655
5.05305 0.651016 6.7394
5.84352 0.516006 1.71192
5.53838 0.512582 1.80859
9.02565 0.125433 0.314102
0.609602 2.5181 2.47993
8.53705 0.869497 3.66064
2.16303 0.298157 1.18797
9.4496 0.446471 1.15728
1.99157 0.752516 0.718266
1.55897 0.140338 1.06304
4.21939 0.578705 8.39137
5.97012 0.645627 2.2696
5.58236 0.47385 1.7306
2.1331 1.21106 0.990075
2.81162 0.377962 1.9924
8.52139 3.2724 2.9034
3.98248 0.0507989 8.07036
4.78689 0.970125 5.94586
1.71336 0.175493 9.44184
1.82767 1.14528 3.03386
2.44518 0.461224 0.425757
8.46728 0.459261 3.34767
2.06246 2.49314 9.05811
2.80997 0.764844 2.82569
2.70546 0.296419 1.98796
5.5345 0.874754 1.86107
5.32635 0.608102 6.79666
5.14358 0.836807 4.9082
4.91271 0.179502 7.97716
1.74065 0.390448 2.69302
7.1494 2.58117 1.44151
8.46681 0.466547 3.36942
4.63974 0.549894 8.72709
5.88495 0.646475 5.45464
2.26238 0.365798 1.64891
6.0505 0.479833 5.42458
1.72438 0.897818 4.07988
3.98197 0.217559 1.42737
3.0547 0.301759 1.91255
2.42553 0.52876 0.360923
9.3145 0.320686 9.65754
1.89002 0.302845 2.32054
2.02347 0.242568 0.752262
2.41018 0.407555 2.5312
2.25256 0.368006 1.65061
5.95692 0.656627 5.56652
2.35231 1.49357 2.87312
4.87274 0.654599 6.30364
2.03033 0.540498 0.558997
2.09387 0.388009 0.43754
9.38217 0.333414 9.12585
2.81515 0.345176 2.16577
6.072 0.869905 5.27878
1.58366 0.180949 1.21552
2.33005 0.271308 1.69128
0.383002 2.68305 1.99277
5.34132 0.443843 7.18529
1.45536 0.743493 3.07611
0.483502 2.60396 1.99343
5.9585 0.852216 5.40745
4.04974 0.644753 8.47809
3.89862 0.220391 8.56688
6.31924 1.83272 8.53228
0.388595 9.42848 0.634903
1.91374 0.685865 1.17612
2.43487 0.461032 0.62522
5.08905 0.216823 7.43501
2.04153 2.00311 2.93026
2.02679 0.394996 2.62459
2.88778 0.488192 0.769161
4.52664 0.613537 8.51537
4.47681 0.679552 8.65778
4.9752 0.594728 8.31067
2.87325 1.46658 1.03479
2.73427 0.292263 2.39442
1.57042 1.01695 2.97486
6.36549 1.8709 8.58794
2.20677 2.11869 2.58248
5.57796 0.602778 7.62097
2.35155 0.436166 1.82209
2.02023 0.859572 1.40893
2.25721 2.63218 7.47884
3.16602 0.174535 1.32326
2.87579 0.0773852 1.76888
2.73611 0.311598 2.38261
1.92388 0.270058 0.568877
5.02205 0.438617 7.31084
2.06252 2.76844 0.782021
3.98945 2.18083 8.38455
2.7904 0.467717 1.83317
2.70344 0.418852 1.48279
0.296791 4.46814 6.14871
1.99456 0.884045 2.83762
1.57324 1.20843 2.93237
3.05906 0.333892 2.11457
5.38622 0.395751 1.93631
7.48377 0.750525 8.93234
4.70332 0.545216 5.99657
4.2843 0.434999 7.57203
3.97148 0.64273 8.42656
2.14156 0.0982769 1.67097
2.12357 0.491194 2.94771
2.87445 0.832043 1.13189
9.4633 0.453611 1.29854
2.39927 0.406416 1.71927
5.04874 0.307264 1.5681
5.78846 0.0994662 8.01021
5.9275 0.71023 5.12297
4.17315 0.471545 7.20786
3.92371 0.585459 8.37033
2.16768 0.103999 1.65253
1.85121 0.786598 1.14304
1.84596 0.468288 2.62552
9.34025 0.434243 1.19436
9.33248 4.64004 4.46559
0 0.213429 7.60371
5.18206 0.873215 7.20978
2.98321 0.40736 2.30461
3.75598 0.659823 8.22132
1.80373 0.0996058 2.94108
9.36374 1.55494 3.17273
2.69128 0.068295 1.58862
2.35458 0.24349 1.85613
4.95659 0.96476 6.20849
8.64708 0.871717 3.54956
4.19193 0.552012 8.05435
9.49151 0.318174 9.21366
2.82205 0.388988 2.21989
5.02703 0.582549 7.37346
2.98586 0.102445 0.253537
9.63285 0.484311 9.20773
2.7023 0.155327 2.43181
2.93427 0.49346 1.05751
1.84252 1.05276 2.64875
1.96875 0.484735 1.54426
2.30175 0.61867 2.51827
1.98698 0.10108 1.42572
2.66494 0.413531 2.08255
4.47253 0.0202454 7.91473
1.4459 0.874111 2.72889
1.64907 0.291776 1.35611
4.20631 0.141622 8.32968
5.46773 0.525721 1.82851
4.18732 0.353828 8.31778
1.96568 0.177451 1.66745
5.8012 0.99668 2.05385
4.39299 0.164563 8.28549
2.99546 0.53179 2.71472
9.77762 0.518603 9.31452
2.56218 0.265132 2.3768
9.52299 0.313206 1.34958
4.92896 0.770491 8.50667
5.49103 0.500907 1.83312
4.20552 0.354065 8.3261
2.42165 0.575614 2.21606
8.69205 4.70916 4.37079
4.4783 0.522913 5.97932
8.07556 0.410954 3.50628
4.44314 0.253708 8.26649
2.13966 0.0825153 0.955417
10 0.270516 2.62947
4.66736 0.262382 7.96451
9.63649 0.241351 9.1924
1.92124 0.934556 0.915049
2.65922 0.370222 1.69075
9.11146 4.45774 4.26932
2.15411 0.587024 2.64963
8.06207 0.832139 3.74241
3.89252 0.353762 8.36459
5.04438 0.782772 6.62192
8.98732 0.471141 3.28112
6.87032 7.66028 9.44517
9.93337 0.35246 9.4249
2.8083 0.426843 2.3963
9.52137 0.662207 0.0606179
5.60549 0.623904 2.01447
5.29873 0.442125 1.70202
8.30244 0.358179 3.16228
7.53659 0.760529 9.1128
7.29323 0.337963 8.3972
1.83929 1.1651 2.84918
1.78153 0.770445 0.37818
6.14097 0.679965 5.76923
7.41867 0.112936 8.42667
9.49349 0.673445 0.252974
5.67773 0.329817 1.8581
2.15912 0.57935 1.68481
8.40559 0.374578 3.40209
4.37921 0.140539 8.12973
4.30035 0.779517 8.34347
2.34923 0.547812 0.57067
2.20658 2.02254 2.15917
2.41244 0.579857 2.43176
1.83123 0.487937 2.76397
9.06101 0.15435 0.424864
6.08833 0.770369 5.33563
1.32566 0.028307 0.881195
5.63625 0.0894539 1.25393
1.73291 0.775471 3.06594
5.358 0.215713 1.95877
3.0542 0 2.38825
3.2302 0.0950022 2.48959
1.50861 0.828295 2.86876
1.88594 0.540004 1.80246
8.00228 0.830114 3.4317
6.00555 0.541368 5.62582
9.85302 0.302526 9.19657
2.75602 0.595026 1.53824
1.60769 0.620945 3.14385
9.90932 0.378953 2.6381
2.66178 0.727794 0.568186
5.97453 1.00679 4.80953
5.76285 0.213414 1.7477
2.56206 0.679136 2.55295
4.60291 0.488639 6.16251
2.31 0.612429 2.56139
4.40122 0.162433 8.14565
2.81424 0.304874 1.92194
9.30469 0.512838 1.21312
9.5625 0.114474 1.32045
2.97143 0.631693 2.27059
5.58461 0.776226 2.00736
8.97187 0.266392 1.27443
1.97629 0.236701 1.37303
4.52148 0.602017 6.25616
3.10688 0.366684 2.28434
4.08684 0.0698962 8.32376
2.73732 0.235685 1.96089
9.48712 0.0784348 1.4242
4.88353 0.535854 6.13009
2.31697 0.391525 1.55837
1.8563 0.872573 2.92073
9.06647 0.199388 1.46039
3.02771 0.524295 2.02266
5.11769 0.580193 6.57798
2.95978 0.061509 2.39266
5.19684 0.764542 7.21122
4.78435 0.483128 5.97976
2.61391 0.356539 1.80273
2.40477 0.763171 0.623044
5.6249 0.62724 1.86064
2.88054 0.631612 2.55856
2.36416 0.56167 0.593682
2.0753 1.01055 0.555235
2.13737 0.334783 1.51565
2.09084 0.271244 1.57147
5.11002 0.758743 7.25251
4.7984 0.484813 6.01412
2.34233 0.539208 1.6971
1.66935 0.209744 1.42077
5.83259 0.598574 2.45025
4.49647 0.242105 8.02998
2.61131 0.668263 0.594605
2.07689 0.948735 3.01229
5.45971 0.375255 1.48239
6.07096 0.478422 5.54529
4.26782 0.228268 7.99241
2.49797 0.442621 1.67313
2.67847 0.427135 0.497807
9.2166 0.287456 9.28001
3.98413 0.677113 8.25729
3.72292 0.732226 8.38886
4.32204 0.79754 8.19125
2.07812 0.830932 3.18183
5.44651 0.384737 1.46614
6.02333 0.454332 5.48178
5.41128 0.451467 7.40086
2.70459 0.734576 0.385197
3.53279 0.683678 2.6053
9.32006 0.289971 9.12712
3.88004 0.31968 8.21995
4.43523 0.299608 8.69209
4.12296 0.344783 7.91134
2.14236 0.410431 0.877414
2.53644 0.795319 0.518253
2.67968 0.269035 2.33013
4.24996 0.510761 8.13393
2.88263 0.242594 2.30134
8.70985 0.373816 3.66474
4.92435 0.217856 7.55751
1.98254 0.704382 2.76211
2.59128 0.188931 1.86064
7.91835 0.341003 3.26458
5.39832 0.422921 2.35989
2.55705 0.787238 0.492151
2.65788 0.224804 2.11872
4.2591 0.472115 8.20428
2.82262 0.384614 1.95688
8.6785 0.37722 3.6739
5.18728 0.975056 7.37644
1.95765 0.687801 2.70028
2.61547 0.403145 2.57172
9.58857 0.10805 1.63285
5.38598 0.391895 2.36861
POINT_DATA 400
SCALARS particleColor float 3
LOOKUP_TABLE default
0.239259 1 0.760741
0.200037 1 0.799963
0 0.249169 1
0 0.359364 1
0 0.407842 1
1 0.95848 0
0 0.485762 1
0.0877026 1 0.912297
0 0.522965 1
0 0.683677 1
0 0.294041 1
0 0.671912 1
0.0997065 1 0.900294
0 0.51223 1
0 0.945434 1
0 0.488606 1
0 0.393424 1
0 0.844977 1
0.545031 1 0.454969
0 0.359712 1
0 0.372131 1
0.157142 1 0.842858
0.144892 1 0.855108
0 0.681659 1
0 0.987864 1
0 0.656034 1
1 5.96046e-08 0
0.145739 1 0.854261
0 0.643003 1
0 0.392035 1
0 0.749889 1
0 0.591978 1
0 0.470739 1
0 0.58646 1
0 0.664088 1
0 0.574114 1
0 0.483299 1
0 0.298415 1
0 0.931354 1
0 0.983791 1
0 0.607192 1
0 0.725062 1
0 0.513711 1
0 0.635898 1
0 0.690794 1
0 0.292347 1
0 0.91448 1
0 0.91936 1
0 0.381928 1
1 5.96046e-08 0
0 0.773336 1
0 0.26596 1
0 0.598694 1
0 0.707705 1
0 0.649585 1
0 0.228932 1
0 0.176538 1
0 0.460833 1
0 0.196403 1
0 0.723001 1
0 0.703029 1
0 0.150854 1
0.375409 1 0.624591
0 0.410789 1
0 0.529295 1
0.188137 1 0.811863
0 0.33064 1
0 0.270314 1
0 0.741059 1
0 0.19814 1
0 0.775261 1
0 0.792296 1
0.269512 1 0.730488
0 0.512637 1
0 0.419363 1
0 0.819229 1
0 0.655664 1
0 0.77063 1
0 0.423249 1
0 0.477506 1
0 0.666818 1
0 0.841869 1
0 0.743056 1
0 0.313628 1
0 0.433433 1
0 0.172412 1
0 0.583002 1
0.0680177 1 0.931982
0 0.178723 1
0 0.22994 1
0 0.296321 1
0 0.696772 1
0 0.987711 1
0 0.207427 1
0 0.467034 1
0 0.27957 1
0 0.384827 1
0 0.330577 1
0 0.710788 1
0 0.20698 1
0 0.578529 1
0 0.675521 1
0 0.563796 1
0 0.840186 1
0 0.571109 1
0 0.616143 1
0 0.622701 1
0 0.56048 1
0 0.275 1
0 0.625988 1
0 0.423276 1
0 0.861522 1
0 0.626834 1
0 0.726119 1
0 0.432804 1
0 0.339662 1
0 0.426393 1
0 0.333278 1
0 0.286248 1
0 0.73782 1
0 0.397257 1
0 0.911038 1
0 0.931734 1
0 0.91121 1
0.190701 1 0.809299
0 0.284394 1
0 0.902403 1
0 0.693042 1
0 0.55495 1
0 0.733533 1
0 0.270536 1
0 0.54908 1
0 0.58064 1
0 0.804978 1
0 0.832594 1
0 0.76026 1
1 5.96046e-08 0
0 0.681521 1
0 0.542621 1
0 0.375392 1
0 0.656386 1
0 0.881366 1
0 0.618394 1
0 0.947244 1
0 0.280888 1
0 0.380009 1
0 0.718818 1
0 0.212124 1
0 0.684008 1
0 0.99132 1
0 0.64178 1
0 0.626714 1
0 0.697799 1
0 0.905469 1
0 0.937259 1
0 0.413238 1
0.125059 1 0.874941
0 0.750474 1
0 0.738836 1
0 0.644509 1
0 0.829171 1
0 0.675277 1
0 0.829862 1
0 0.5606 1
0 0.768648 1
0 0.346409 1
0 0.796739 1
0 0.572425 1
0 0.638954 1
1 0.101801 0
0 0.968879 1
0 0.771695 1
0 0.773572 1
0 0.241725 1
0 0.653951 1
0 0.98823 1
0 0.343598 1
0 0.446886 1
0 0.272874 1
0.00465169 1 0.995348
0 0.232317 1
0 0.522025 1
0.373744 1 0.626256
0 0.764107 1
0 0.393103 1
0 0.721754 1
0 0.233582 1
0 0.59989 1
0.0725747 1 0.927425
0 0.421786 1
0 0.215856 1
0 0.897058 1
0 0.185325 1
0 0.458375 1
0 0.223811 1
0 0.823361 1
0 0.595599 1
0 0.79824 1
0 0.396631 1
0 0.46703 1
0 0.867057 1
0 0.84178 1
0.218741 1 0.781259
0 0.607405 1
0 0.555348 1
0 0.285265 1
0 0.668276 1
0 0.996612 1
0 0.390893 1
0 0.519937 1
0 0.735136 1
0 0.505761 1
0 0.534592 1
0 0.60702 1
0 0.963998 1
0 0.173862 1
0 0.572486 1
0.038384 1 0.961616
0.0554417 1 0.944558
0 0.509185 1
0.0698975 1 0.930103
0 0.862046 1
0 0.35518 1
0 0.639929 1
0 0.349578 1
0 0.674476 1
0 0.425232 1
0 0.736712 1
0 0.774982 1
0 0.767261 1
0 0.708359 1
0.0851481 1 0.914852
0 0.846235 1
0 0.455779 1
0 0.306728 1
0 0.81422 1
0 0.904259 1
0.455247 1 0.544753
0 0.743236 1
0 0.698638 1
0 0.321682 1
0 0.65981 1
0 0.522787 1
0 0.849682 1
0 0.745414 1
0 0.982886 1
0 0.771849 1
0 0.751036 1
0 0.750084 1
0 0.364103 1
0 0.428015 1
0 0.918995 1
0 0.56606 1
0 0.755634 1
0 0.696843 1
0 0.65873 1
0 0.805218 1
0 0.607051 1
0 0.771369 1
0 0.259734 1
0 0.763675 1
0 0.447854 1
0 0.424644 1
0 0.983762 1
0.108947 1 0.891053
0.595205 1 0.404795
0.0373898 1 0.96261
0 0.903367 1
0.0961417 1 0.903858
0 0.777521 1
0 0.977519 1
0 0.763227 1
0.130885 1 0.869115
0.0704569 1 0.929543
0 0.879959 1
0 0.590866 1
0 0.714998 1
0 0.958248 1
0 0.535215 1
0 0.583214 1
0 0.419423 1
0 0.463784 1
0.0204566 1 0.979543
0 0.621143 1
0 0.491041 1
0 0.923429 1
0 0.578135 1
0 0.330256 1
0 0.663007 1
0.288235 1 0.711765
0 0.732679 1
0 0.684566 1
0 0.98728 1
0 0.606945 1
0 0.936881 1
0 0.872942 1
0 0.691468 1
0 0.481742 1
0 0.519383 1
0 0.721688 1
0 0.858192 1
0 0.699428 1
0 0.812734 1
0 0.378675 1
0 0.582881 1
0.156407 1 0.843593
0 0.861185 1
0 0.116867 1
0.0805492 1 0.919451
0 0.743453 1
0 0.884454 1
0.124515 1 0.875485
0 0.342838 1
0.00796426 1 0.992036
0 0.68586 1
0 0.554194 1
0.0601502 1 0.93985
0 0.797463 1
0 0.331518 1
0 0.564512 1
0.312616 1 0.687384
0 0.443006 1
0 0.596212 1
0 0.854665 1
0 0.76673 1
0.0221877 1 0.977812
0 0.873599 1
0 0.865026 1
0 0.27415 1
0 0.620414 1
0.203858 1 0.796142
0 0.569685 1
0 0.461263 1
0 0.728985 1
0 0.673048 1
0.111947 1 0.888053
0 0.649775 1
0 0.529991 1
0 0.705607 1
0.227471 1 0.772529
0 0.525099 1
0 0.634651 1
0 0.480358 1
0 0.17414 1
0 0.541016 1
0 0.405211 1
0 0.647483 1
0 0.772403 1
0 0.693588 1
0 0.601173 1
0.195283 1 0.804717
0 0.376247 1
0.103577 1 0.896423
0 0.0665978 1
0 0.28391 1
0 0.661631 1
0 0.321861 1
0 0.902285 1
0 0.559451 1
0 0.614847 1
0 0.612894 1
0 0.493868 1
0.14288 1 0.85712
0.0709489 1 0.929051
0.236832 1 0.763168
0 0.856661 1
0 0.612798 1
0 0.492493 1
0 0.636168 1
0.129053 1 0.870947
0 0.8034 1
0 0.255478 1
0 0.585532 1
0 0.628327 1
0 0.752455 1
0 0.490206 1
0 0.684158 1
0 0.146038 1
0 0.685497 1
0 0.809373 1
0 0.115452 1
0 0.412894 1
0.0608106 1 0.939189
0 0.485483 1
0 0.655869 1
0 0.592607 1
0 0.888241 1
0 0.444962 1
0 0.822261 1
0 0.274499 1
0 0.228683 1
0 0.382541 1
0 0.806825 1
0 0.715871 1
0 0.539664 1
0 0.992935 1
0 0.93283 1
0 0.94035 1
0 0.674654 1
0 0.146232 1
