# vtk DataFile Version 3.0
Particle simulation
ASCII
DATASET POLYDATA
POINTS 400 float
1.40525 0.484737 1.12065
1.67748 0.89109 0.198447
1.45457 0.949993 3.59698
1.55066 0.495638 1.02642
5.68457 0.635214 5.27512
0.653249 7.18459 5.60555
7.44111 1.70436 1.69341
2.58256 3.14104 3.77332
5.74117 0.189371 0.570222
7.02564 0.852552 1.75815
1.42708 0.515683 1.06259
0.604921 0.504046 1.41646
1.50924 0.846799 3.80456
1.48784 0.516005 1.04899
5.72332 0.73968 5.26661
2.47044 4.32027 5.75805
3.0915 0.811842 2.51473
1.59938 0.284882 2.93187
6.24006 0.484394 0.845666
7.04159 0.869165 1.73879
3.18111 1.30956 2.3614
4.98706 0.799724 2.85761
1.15794 1.62521 4.84732
7.0987 1.16359 1.95493
3.99317 0.58839 3.21233
1.74852 0.784616 4.1845
5.7696 0.883353 6.0451
1.41695 0.460768 2.77894
4.17981 0.831579 1.68412
1.60937 0.61085 1.14284
5.70762 0.439011 0.917529
7.48585 1.00291 1.77285
8.69222 0 6.20474
7.13169 1.09689 2.00506
0.989863 0.857743 2.829
1.70082 0.740918 4.17346
5.79889 0.923709 5.88558
1.47566 0.464186 2.76496
4.28353 0.741614 1.69544
0.681726 0.32525 1.0801
1.48751 0.70593 1.94779
3.78655 0.852752 0.490212
2.03596 0.336561 0.738041
7.18761 0.90366 1.72211
2.05292 0.768715 5.28922
4.2253 0.992187 2.03638
0.0713727 0.751589 1.44397
1.9508 1.02463 3.19845
4.42146 0.726272 1.52241
4.6645 1.57475 5.34118
1.51205 0.744103 1.9192
3.78955 0.840311 0.469887
2.1458 0.578546 0.755201
7.20549 0.904527 1.7093
2.03374 0.725887 5.3398
4.25023 1.01169 2.03508
3.26215 0.850286 5.71549
2.03263 0.937156 3.0332
4.45571 0.728494 1.57334
5.06224 1.176 6.2601
5.32788 0.697995 1.65244
0.945444 0.0431579 1.85513
5.37747 0.143122 6.38826
6.84255 0.513788 0.587779
5.75893 0.446889 7.09783
5.20879 0.341596 6.30744
2.67411 0.819327 2.70449
1.55443 0.55803 3.19393
4.39873 0.766503 1.55373
2.4749 0.391499 4.00222
5.4042 0.650524 1.67294
1.80049 0.65771 1.66574
5.63135 0.471646 6.87062
6.81817 0.520131 0.558902
5.76631 0.429484 7.09255
4.83589 0.310549 6.09205
2.6784 0.814907 2.74129
2.53787 0.504407 6.2055
4.40272 0.786021 1.53529
2.44589 0.30168 3.99246
1.05616 0.476082 0.878446
2.36819 0.956142 1.60546
2.23435 0.880617 0.198904
3.04545 0.550908 2.10547
4.73742 0.548788 5.96649
2.9045 0.456936 5.23027
4.14967 1.11688 6.24537
1.31913 0.437428 2.31943
0.642787 0.584614 4.6476
5.58796 0.384886 0.710775
1.35895 0.669378 1.02487
2.57903 1.01889 1.67484
3.95635 1.12343 0.450771
3.04355 0.556735 2.13684
4.74512 0.529358 5.94839
2.90838 0.490987 5.21065
3.45858 0.592672 5.6012
1.67556 0.525857 2.50469
0.804103 0.614914 4.51978
5.6001 0.359402 0.691972
2.3994 0.682893 2.31432
6.86477 0.59506 0.489889
1.72421 0.37897 2.77546
7.11497 0.362225 0.79482
5.06218 0.887091 1.8199
2.04468 0.365029 2.69791
3.21563 0.143923 5.37823
3.06091 0.94343 2.25146
4.26972 0.856064 1.52604
5.20554 0.374397 0.768947
2.42013 0.37727 1.43825
6.72192 0.578493 0.407879
1.76615 0.590021 1.52642
5.48419 0.429558 1.1242
1.29605 0.281846 2.69154
2.11652 0.450895 2.79467
3.22637 0.277907 5.52893
3.77429 0.939868 2.03086
4.30518 0.799879 1.57991
1.43168 0.409456 1.12642
2.81908 0.60924 2.12883
4.36697 0.842379 1.74295
4.75784 0.435085 6.36452
4.12409 0.486851 3.30465
2.84421 0.814107 5.8461
1.80537 0.602466 1.19629
1.29943 0.381065 2.35767
6.90514 1.03166 1.70648
3.98471 0.922967 5.83444
2.36064 0.341007 1.43088
2.82437 0.595128 2.12841
4.2637 1.11496 1.94497
5.88818 0.642935 7.10093
4.07118 0.373827 3.37134
3.28266 0.834239 5.82207
3.09758 0.587848 2.71496
2.73518 0.244333 4.48376
6.9115 1.02978 1.66986
2.79198 0.73334 5.52646
0.96218 0.626992 0.785744
1.31204 0.512478 1.12992
2.44029 0.811469 2.0479
2.54134 0.820742 0
2.36109 0.745835 1.65003
2.27629 0.95728 0.116656
1.65859 0.299248 3.25708
5.36449 0.827395 6.79089
1.0598 0.0848978 2.30002
1.90671 0.275251 2.65973
1.88734 0.409594 4.20715
1.30906 0.507056 1.1218
2.41308 0.756459 2.09256
2.16865 0.599096 0.0049121
3.23418 0.848852 2.09405
2.24771 0.808446 0.148279
1.64906 0.140835 3.14837
5.36579 0.906218 6.84229
1.29782 0.353365 2.39489
2.64018 0.996154 1.78337
1.47983 0.335144 3.13749
1.73167 0.482039 3.61434
4.11163 0.621335 3.3323
4.73531 0.412437 5.89456
1.18814 0.443703 3.15623
1.24364 0.577381 1.70755
3.50835 0.566015 2.02885
2.82713 0.477655 5.61891
3.107 0.294103 5.39114
2.18243 0.58137 5.74896
2.55731 0.766027 1.77193
1.76099 0.526221 3.56385
1.76124 1.00189 1.30388
4.74823 0.348356 5.9782
2.22586 0.828505 1.67549
1.19938 0.56711 1.77264
3.68878 0.383309 1.83269
2.819 0.474225 5.50166
2.93662 0.261644 5.46484
2.46398 0.456331 5.7795
2.51884 0.765964 1.76534
1.95922 1.3176 1.34145
0.681111 0.589573 1.41483
5.58961 1.10075 5.70409
0.442376 0.714101 2.03928
3.37843 0.864552 5.78976
2.17437 0.635081 2.87625
1.69237 0.402132 2.80281
3.81848 0.147045 3.40096
0.774255 0.490398 0.695824
1.82476 0.945526 1.51267
1.95621 1.31045 1.32516
1.73042 0.671126 1.10542
5.03441 0.650974 5.92802
0.380204 0.708978 2.03478
3.41663 0.44519 5.46561
1.78157 0.526926 2.96698
1.69243 0.443155 2.8003
6.65534 0.549182 0.811581
0.91447 0.551728 0.711433
1.71495 0.94575 1.5803
1.20919 0.69859 1.20427
2.77732 0.953269 1.9111
3.4436 0.711633 5.44582
2.82603 0.873871 1.57451
4.68857 0.699389 5.87104
2.89899 0.345583 5.63358
1.51193 0.212124 2.46451
1.85246 0.543438 3.18965
3.08678 0.889126 1.88231
5.90068 0.27023 0.602696
1.5569 0.423723 1.14912
3.25366 0.960944 2.36912
4.30095 1.08623 6.23345
2.97964 0.969672 1.50697
4.70132 0.694895 5.86748
2.87473 0.359528 5.62937
1.51882 0.197441 2.43844
1.67757 0.68689 2.89883
2.92273 0.839283 1.50431
5.88035 0.246184 0.540802
6.8776 1.13804 1.57095
3.95248 0.126268 5.50079
4.7225 0.821054 5.40591
1.47145 0.687188 1.70385
4.70857 0.661946 5.5784
1.68453 0.110367 2.66912
4.74447 1.03972 5.18653
1.44406 0.294753 2.03689
1.68 0.855137 3.64183
0.347859 0.399928 0.965464
6.8347 1.14063 1.50513
3.72932 0.40528 5.44787
4.58697 0.605346 5.66099
1.5018 0.647109 1.70272
4.76271 0.647959 5.58313
1.64569 0.149417 2.61239
4.58185 0.41951 5.80105
1.59898 0.397996 2.76153
1.47087 0.818833 0.0718059
0.417577 0.346962 0.845805
1.43072 0.494456 0.890173
0.312994 0.437571 1.33605
1.82429 0.46927 3.11189
3.50215 0.917415 2.22183
2.63288 0.531288 5.58304
3.35447 1.05076 1.73901
1.31073 0.389255 2.54983
5.0788 0.832977 5.91453
4.18765 0.743906 2.12457
2.98681 0.343846 5.2201
1.44712 0.479144 0.925803
1.07945 0.581972 3.18665
2.34535 0.962833 5.90759
3.55696 0.910737 2.21574
2.70389 0.440791 5.55559
0.91794 0.414225 2.8114
6.46964 0.187036 0.82921
4.83121 0.85619 5.82164
4.15727 0.699799 2.1571
3.03218 0.343071 5.23824
1.01943 1.23758 2.17566
0.549613 1.05908 2.11311
0.524616 0 1.25286
7.15216 1.01745 1.79197
4.69052 0.85425 5.70498
3.53668 0.643755 2.95845
7.00754 0.204411 0.66989
2.53079 0.315639 5.13914
5.63282 1.1419 6.09519
1.84964 0.177352 2.64755
0.927821 1.26608 2.12063
0.499739 1.1312 2.05074
2.18595 1.09266 2.0628
7.26783 1.32239 1.76194
5.42493 1.05854 6.25584
2.9859 0.609064 5.97287
6.87052 0.279572 0.83535
0.495792 0.915951 5.95298
5.6769 1.11497 6.04762
1.92488 0.136138 2.65157
6.1291 0.3817 0.786161
4.51651 1.12482 1.91679
2.78436 0.877348 2.74604
6.92999 0.863439 1.4502
3.19889 0.894433 5.78785
5.73723 0.960202 6.38471
0.961203 0.260753 2.46983
1.10354 0.467497 2.73435
2.14806 1.16379 1.31187
0.912215 0.655177 4.36375
6.06095 0.370131 0.672677
4.46002 1.09881 1.93524
1.84438 0.788261 3.15096
6.98653 0.848048 1.48058
3.48967 0.68916 5.67942
3.73939 0.691054 5.95213
1.06677 0.353605 2.47457
2.3238 0.462096 2.82204
2.08147 0.725007 1.55035
3.66576 0.628908 2.18458
5.29453 0.285691 0.85424
2.04743 0.733268 1.05427
1.44622 0.703433 2.98904
4.5763 0.422748 1.80925
1.808 0.244365 3.78901
3.54775 0.641558 0.244594
1.69207 0.284377 2.40935
1.22269 0.304967 0.850191
2.93095 1.0076 2.26005
1.06701 0.226706 0.865823
6.71735 0.29844 0.322388
1.97491 0.712261 1.14048
3.19794 0.826167 5.76682
2.53958 0.508958 1.80336
1.82595 0.165663 3.75696
7.24382 0.189054 0.775571
1.60806 0.299453 2.45007
0.856864 0.539076 1.06458
2.82852 1.07445 2.29818
1.05369 0.245267 0.885771
2.4789 0.565103 1.49032
1.15519 0.471346 0.490965
3.01482 0.158909 6.09631
2.13991 0.795239 1.65508
5.43304 0.544941 0.942061
6.01654 0.23061 0.137862
1.41187 0.153851 2.7817
4.27987 0.85156 2.02147
5.68856 0.178565 0.869955
2.58799 0.767998 2.00194
2.48126 0.49799 1.5847
1.69574 0.706934 1.08713
2.96587 0.156079 6.09195
2.14497 0.720658 1.68011
5.31908 0.608048 0.882365
1.24396 0.721376 1.10065
1.40517 0.0669618 2.69786
3.49811 0.704534 2.22426
5.74391 0.203498 0.924025
2.59532 1.02157 2.11114
1.82932 0.917052 1.25786
1.43048 0.360319 1.03094
4.3856 0.907945 6.04506
2.22777 0.931393 1.47762
1.67812 0.220718 3.40847
1.5705 0.845749 2.80744
4.28056 1.0033 1.62809
1.25672 0.289773 2.86362
1.76692 0.49819 2.77239
4.87201 1.31686 1.63264
1.5317 0.870662 1.13263
1.40087 0.444012 1.06734
4.85906 0.580855 5.80077
2.22526 0.937309 1.49728
1.70683 0.136268 3.34766
1.60822 0.918431 2.68037
4.32921 0.959484 1.59927
2.83362 0.48068 5.86318
1.67099 0.465612 2.67309
1.46904 0.726343 2.5872
4.38131 0.823285 1.34315
2.1382 0.334551 0.777055
4.66432 0.715048 5.86981
1.98072 0.511199 3.28519
2.6266 1.0331 1.8997
2.0264 0.757745 5.39911
2.66219 0.404546 5.59636
3.09018 0.606675 5.86318
2.71182 0.731148 5.67145
0.83542 1.14558 2.35083
4.37071 0.822519 1.35471
2.12269 0.340178 0.819619
4.20606 0.888082 5.84045
1.97463 0.512911 3.25992
2.41262 1.00198 3.13205
2.03966 0.822845 5.39073
2.65908 0.360467 5.64342
3.31799 0.842043 5.98889
3.03599 0.723753 5.64048
0.862443 0.873427 1.78404
1.09638 0.415123 0.66994
1.49492 0.440031 1.25192
2.15455 0.4685 5.49614
1.65996 0.950038 1.0851
6.6544 1.28525 1.65686
4.60462 0.792374 6.2145
4.375 0.784044 1.51268
3.52998 0.995729 2.14933
7.315 0.226577 0.37404
4.26522 1.06267 1.92348
1.11898 0.428515 0.634828
1.50462 0.42967 1.23221
2.23143 0.439836 5.5146
1.30624 0.783722 0.887231
6.67789 1.31344 1.63396
4.67223 0.528336 6.09062
4.31892 0.827091 1.54828
3.55344 0.974855 2.18384
5.32254 0.359764 0.614952
4.24596 1.06085 1.935
POINT_DATA 400
SCALARS particleColor float 3
LOOKUP_TABLE default
0 0.560237 1
0 0.565499 1
0 0.498912 1
0 0.677902 1
0 0.686275 1
1 5.96046e-08 0
0 0.686526 1
0 0.368077 1
0.0818162 1 0.918184
0.218826 1 0.781174
0 0.70558 1
0 0.31973 1
0 0.421496 1
0 0.685001 1
0 0.695978 1
0 0.607292 1
0 0.8388 1
0 0.567318 1
0 0.657075 1
0 0.933123 1
0 0.519791 1
0 0.325921 1
0 0.426356 1
0 0.656576 1
0 0.625435 1
0 0.334469 1
0 0.860079 1
0 0.454669 1
0 0.889344 1
0 0.672999 1
0 0.370095 1
0 0.81387 1
1 5.96046e-08 0
0 0.67906 1
0 0.550044 1
0 0.198303 1
0 0.438487 1
0 0.474487 1
0 0.757644 1
0 0.495525 1
0 0.504949 1
0 0.3786 1
0.210369 1 0.789631
0 0.269598 1
0 0.835597 1
0 0.555519 1
0.0557821 1 0.944218
0 0.301329 1
0 0.888666 1
0 0.564209 1
0 0.565804 1
0 0.410555 1
0 0.9144 1
0 0.396303 1
0 0.920987 1
0 0.747351 1
0 0.63648 1
0 0.489444 1
0 0.893641 1
0 0.569097 1
0 0.797365 1
0 0.78699 1
0 0.750894 1
0 0.497381 1
0 0.0809873 1
0 0.88405 1
0 0.199993 1
0 0.775929 1
0 0.332405 1
0 0.714888 1
0 0.797084 1
0 0.853649 1
0.10999 1 0.89001
0 0.499583 1
0 0.753023 1
0 0.628153 1
0 0.27804 1
0 0.663196 1
0 0.475063 1
0 0.64759 1
0 0.155694 1
0 0.860319 1
0 0.649352 1
0 0.453691 1
0 0.932189 1
0 0.298041 1
0 0.161695 1
0 0.343131 1
0 0.699418 1
0 0.352677 1
0 0.498785 1
0 0.21827 1
0 0.431839 1
0 0.508198 1
0 0.993959 1
0 0.212237 1
0 0.624965 1
0 0.264577 1
0 0.781343 1
0 0.46966 1
0 0.909237 1
0 0.752382 1
0 0.703439 1
0 0.688977 1
0.0904948 1 0.909505
0 0.498721 1
0 0.431475 1
0 0.366777 1
0 0.6581 1
0 0.657052 1
0 0.934025 1
0 0.198958 1
0 0.329461 1
0 0.445003 1
0.0162645 1 0.983736
0 0.580189 1
0 0.29484 1
0 0.677976 1
0 0.808583 1
0 0.836881 1
0 0.324982 1
0.0270536 1 0.972946
0 0.530045 1
0.273997 1 0.726004
0 0.593237 1
0 0.588356 1
0 0.906192 1
0 0.616168 1
0 0.78774 1
0 0.476794 1
0 0.352413 1
0 0.759838 1
0 0.765723 1
0 0.879921 1
0.0582277 1 0.941772
0 0.431092 1
0.527752 1 0.472248
0 0.641989 1
0 0.567628 1
0.0423355 1 0.957665
0 0.268079 1
0 0.820149 1
0 0.177648 1
0 0.776031 1
0 0.353079 1
0 0.257925 1
0 0.311615 1
0 0.453372 1
0 0.641488 1
0 0.597175 1
0 0.307339 1
0 0.774713 1
0 0.430585 1
0 0.201556 1
0 0.5227 1
0 0.361711 1
0 0.242341 1
0 0.977354 1
0 0.851333 1
0 0.735805 1
0 0.786292 1
0 0.950733 1
0 0.580062 1
0 0.769923 1
0 0.459557 1
0 0.540805 1
0 0.604066 1
0 0.229573 1
0 0.482548 1
0 0.837839 1
0.0195945 1 0.980406
0 0.640702 1
0 0.466111 1
0 0.72409 1
0 0.483706 1
0 0.189535 1
0 0.36937 1
0 0.190606 1
0 0.398994 1
0 0.859131 1
0 0.583395 1
0 0.408272 1
0 0.47737 1
0 0.536905 1
0 0.571104 1
0 0.692084 1
0 0.825731 1
0.285411 1 0.714589
0 0.451126 1
0 0.485693 1
0 0.594015 1
0 0.43042 1
0 0.496601 1
0 0.702604 1
0 0.538364 1
0 0.701395 1
0 0.784028 1
0.384736 1 0.615264
0 0.363702 1
0 0.449665 1
0 0.881922 1
0.0637635 1 0.936237
0 0.743624 1
0 0.383711 1
0.368977 1 0.631023
0 0.661796 1
0 0.707702 1
0 0.79579 1
0 0.769872 1
0 0.863201 1
0 0.491255 1
0 0.743771 1
0 0.395196 1
0 0.736916 1
0.34562 1 0.65438
0 0.710628 1
0 0.68224 1
0 0.906182 1
0 0.326666 1
0 0.534567 1
0 0.504974 1
0 0.30763 1
0 0.2401 1
0 0.333123 1
0 0.500668 1
0 0.860662 1
0 0.951599 1
0 0.590549 1
0 0.381264 1
0 0.638201 1
0 0.35918 1
0 0.187968 1
0 0.930818 1
0 0.400401 1
0 0.461664 1
0.13932 1 0.86068
0.125266 1 0.874734
0 0.830896 1
0 0.961423 1
0 0.722208 1
0 0.844331 1
0 0.871858 1
0 0.820487 1
0 0.827349 1
0 0.768273 1
0 0.631543 1
0 0.805363 1
0 0.913784 1
0 0.459072 1
0 0.643416 1
0 0.773486 1
0.237159 1 0.762841
0 0.335695 1
0 0.952361 1
0 0.674602 1
0 0.975487 1
0 0.53887 1
0 0.587882 1
0 0.434116 1
0 0.634667 1
0 0.292846 1
0 0.273058 1
0 0.819012 1
0.424714 1 0.575287
0.473596 1 0.526404
0 0.592064 1
0.0598889 1 0.940111
0 0.137201 1
0 0.479655 1
0 0.426744 1
0 0.208885 1
0 0.466738 1
0.120284 1 0.879716
0 0.702809 1
0 0.602496 1
0.109068 1 0.890932
0 0.646659 1
0 0.498221 1
0 0.541576 1
0 0.65898 1
0 0.397422 1
0 0.289636 1
0 0.9946 1
0 0.526625 1
0 0.920794 1
0.178705 1 0.821295
0 0.419621 1
0 0.33436 1
0 0.43343 1
0 0.916984 1
0 0.772825 1
0 0.171356 1
0 0.131887 1
0 0.600108 1
0 0.657377 1
0.099583 1 0.900417
0 0.261515 1
0 0.543352 1
0 0.990762 1
0 0.61999 1
0.0643277 1 0.935672
0 0.771448 1
0 0.728874 1
0.099428 1 0.900572
0 0.55801 1
0 0.705042 1
0 0.867139 1
0 0.603671 1
0 0.478225 1
0 0.500255 1
0.121112 1 0.878888
0 0.792125 1
0.717242 1 0.282758
0 0.508048 1
0 0.555423 1
0.167073 1 0.832927
0 0.650757 1
0 0.921402 1
0 0.691024 1
0 0.651556 1
0 0.486911 1
0 0.884286 1
0 0.551489 1
0 0.791321 1
0 0.446836 1
0 0.268301 1
0.134938 1 0.865062
0 0.832312 1
0 0.444217 1
0.081912 1 0.918088
0 0.0367182 1
0 0.507578 1
0 0.602857 1
0 0.992346 1
0 0.741937 1
0.0770018 1 0.922998
0.201797 1 0.798203
0 0.531917 1
0 0.156611 1
0 0.726992 1
0 0.87207 1
0 0.33651 1
0 0.643392 1
0 0.601481 1
0 0.842209 1
0 0.716887 1
0 0.688869 1
0 0.839668 1
0 0.885843 1
0 0.154023 1
0 0.635198 1
0 0.223473 1
0 0.765095 1
0 0.591197 1
0 0.975491 1
0 0.507835 1
0 0.652196 1
0.282867 1 0.717133
0 0.93189 1
0 0.576582 1
0 0.490277 1
0 0.670778 1
0 0.8731 1
0 0.769348 1
0 0.480264 1
0 0.54631 1
0 0.292651 1
0 0.325786 1
0 0.463947 1
0.0264742 1 0.973526
0 0.588289 1
0 0.89892 1
0 0.438901 1
0 0.690798 1
0 0.687603 1
0 0.489695 1
0 0.30935 1
0 0.555409 1
0 0.646696 1
0 0.514858 1
0 0.688389 1
0 0.723181 1
0 0.745879 1
0 0.487142 1
0 0.736521 1
0 0.591909 1
0 0.935077 1
0 0.438245 1
0 0.800018 1
0 0.7002 1
0 0.620782 1
0 0.758806 1
0 0.719144 1
0 0.418081 1
0 0.628913 1
0 0.84694 1
0 0.96917 1
0 0.408057 1
0 0.656706 1
0 0.697961 1
