# vtk DataFile Version 3.0
Particle simulation
ASCII
DATASET POLYDATA
POINTS 400 float
3.44389 1.9247 2.72278
0.143348 9.06386 0.723664
0.479177 0.649157 9.41474
8.65509 0.920827 4.64412
8.70882 3.40665 6.18355
1.90971 0.548297 1.40274
1.03568 1.4053 2.92404
6.43278 7.03667 1.6264
9.25626 0.530136 2.95612
9.29222 2.12272 9.60689
2.49079 9.07934 0
7.94946 6.05047 5.14652
1.39593 1.63995 8.40701
6.00625 3.21789 3.48376
1.20018 5.10658 0.171426
9.36869 6.90282 2.74553
5.42088 5.02609 5.08806
5.2988 0.897827 3.36902
9.8538 7.42749 0.178987
5.31326 1.12919 4.81575
7.32742 5.86744 2.90139
2.60291 9.13703 0
6.75176 8.73033 7.25774
2.75135 7.73915 8.4081
0.567146 8.88338 2.27889
6.10911 9.40145 1.19147
8.37154 8.52868 0.339485
5.00178 9.09236 2.24943
0.368549 6.59371 6.8188
7.00126 5.52899 2.85815
9.22028 3.19335 4.77381
7.8561 8.24426 8.37107
8.56615 1.64793 6.02037
10 9.47306 4.21978
8.63685 1.83637 6.25454
5.56671 0.156116 8.82786
6.85972 0 3.72553
6.96807 1.99514 5.02261
0.356857 1.03436 2.34881
3.63983 1.23795 4.50194
1.7071 4.21083 2.02243
7.77383 7.64573 5.48885
0.412651 2.64317 9.20064
9.76104 0.901063 6.13991
2.80549 9.87881 6.85929
8.3356 7.93202 3.6148
4.22459 0.673493 0.978258
7.57805 4.42963 1.24098
4.51805 3.75225 6.04702
0.705003 1.97252 2.71373
2.02478 5.1755 0.210288
9.75949 0.546498 7.69229
10 9.04545 5.33512
7.87277 0 2.78212
5.23663 5.27235 0.45466
2.05759 1.99385 0.554265
4.65581 7.11069 5.68641
2.47805 3.9552 0.629889
3.26174 3.15412 2.66798
5.37181 2.04991 3.79377
4.60769 1.38544 5.39227
4.56463 8.11196 0.825469
2.24785 8.72724 3.12582
7.68609 9.56966 4.32294
6.00383 6.92825 9.7667
6.06075 2.66577 7.34798
5.77229 0.690956 5.26217
8.20168 6.60026 4.25752
6.84491 1.00076 8.49095
1.62867 1.78014 2.78284
7.89993 9.01006 7.65874
3.75161 5.43249 7.80555
2.14566 2.07503 0.552304
1.64342 9.8565 4.77532
6.79778 3.58844 4.59703
3.47845 5.5265 2.84386
1.06107 0.402295 0.0788654
9.18618 5.53332 3.68622
7.44466 4.96894 0.478761
3.31755 8.87551 7.79185
0.824052 3.80778 6.84865
2.40056 7.79691 6.41901
9.99449 2.61943 5.48414
1.38126 0.371466 9.12528
4.52836 6.80325 7.89399
6.39603 0.0198147 7.81272
1.36353 8.16994 2.42874
0.590071 7.14854 4.28912
9.33671 1.63216 9.65544
3.30298 9.14513 1.9369
3.19866 0.867875 0.916797
1.68142 0.525519 3.9569
0.895458 8.48591 1.81394
5.78456 1.82794 9.26066
8.12225 3.45595 5.25264
5.25788 0.830534 9.08364
9.29828 4.57539 0.629324
2.44102 8.13351 3.31051
0.613798 6.4616 0.592386
8.57314 7.70827 0.39668
1.78108 2.5958 7.87948
5.36532 9.35919 3.19548
4.60124 7.38576 3.29823
3.80847 7.35864 3.65579
1.66798 0.782461 1.76067
5.60182 1.51139 3.0374
2.29422 0.451118 6.63492
3.2278 8.65472 5.84771
0.0969691 1.90588 5.36758
10 6.10136 8.64333
4.63006 2.39737 2.07871
3.83759 8.04037 10
3.5656 7.6178 8.95438
5.3204 9.48697 2.90329
2.07781 2.90201 6.14346
8.8457 7.81887 0.855566
7.47634 7.31793 2.4072
5.66218 1.44944 4.3891
6.98286 9.63258 0.274861
6.01262 9.16568 2.23734
3.79016 9.48308 8.23672
4.2854 8.29532 0.970952
2.67325 3.89391 7.52562
6.79781 4.45104 2.40918
6.35656 5.55752 0.538185
8.87703 1.83298 0
8.97963 1.84008 1.61288
7.9263 5.10866 9.62637
1.11702 2.52538 3.39079
1.40425 9.54244 4.18555
3.8098 1.33542 8.83278
6.88726 6.9501 8.45286
7.22181 5.18514 5.75629
3.1849 1.90944 8.77009
0.275393 10 7.92612
8.23149 4.33152 6.38278
9.67644 5.08666 0.375408
7.63206 1.15325 5.96328
0.00325152 9.78238 2.01554
9.49174 7.02114 2.08768
4.27745 9.58545 8.45346
5.76912 1.49993 9.46986
7.09663 1.75856 6.11815
3.55885 0.487564 0.948237
3.74045 2.68052 2.37309
6.29005 5.36993 0.569608
5.67997 5.68553 2.5671
6.528 3.93021 7.59271
6.97052 3.26636 8.62231
8.1592 0.0625597 8.27175
7.55107 0.574652 7.31496
9.98471 4.6583 4.8169
9.52483 1.79338 4.96789
3.36381 0.845126 3.34684
1.26009 7.47529 4.29828
6.65926 2.46036 0.685701
3.04131 7.26794 6.32344
10 6.45696 0.0639696
5.09781 6.8652 2.99626
9.52556 9.87701 5.00904
3.69632 8.32051 1.2092
1.94457 0.744154 2.74686
0.445688 4.41001 1.65916
0.0993494 4.88287 8.59856
8.29786 7.6166 0
5.87247 3.98927 9.14228
0.520454 4.56256 3.84799
5.69619 1.84791 4.26854
1.39247 2.2118 6.01092
7.2969 3.03489 9.73817
1.23462 7.66191 4.24195
4.47748 3.17526 3.96066
0.0979999 1.20177 1.10487
0.966389 0.820046 3.19244
0.988043 2.61469 0.744949
7.35566 0.399322 6.3489
2.93063 7.18173 7.76263
4.65914 6.20659 2.82319
8.11541 3.71361 4.7884
4.34111 8.52325 3.61438
5.89663 7.59323 6.87746
10 2.75885 0.771411
1.25535 2.761 4.11263
9.69892 5.82198 7.60348
6.36738 4.57795 7.47266
1.45374 7.68445 9.78831
5.3708 3.61037 8.04547
9.39492 7.9449 6.34648
5.84296 7.3873 7.26255
6.89458 10 6.06118
3.76292 2.64578 9.4543
9.32328 5.36193 4.67716
2.85634 3.19936 2.64886
5.28567 3.64254 3.08365
6.46889 0.757287 9.43054
3.22649 2.51329 8.73068
8.66222 0.696111 0
8.35409 7.10621 5.36749
8.82095 4.56735 9.17332
1.40538 8.90521 1.52305
4.43775 4.0787 5.40087
4.39122 5.25031 3.05977
1.61751 6.53833 3.0102
2.03576 9.93642 8.09278
4.14545 9.99708 0
7.92193 7.86734 8.7118
6.62174 8.06532 1.68011
3.87798 10 2.85781
1.37387 7.19882 2.33209
1.86692 4.11384 5.68166
9.02455 5.95836 4.74652
0 0.524329 5.10616
9.43089 2.01258 2.13787
4.62621 4.83217 8.96858
5.82909 3.87311 2.19263
2.61055 2.31486 4.52625
5.75907 1.20356 1.70302
2.80644 8.26251 0
8.97046 0 5.29455
3.302 7.15831 10
5.59873 9.40674 2.06955
2.39212 3.76553 6.76895
4.33868 1.88975 7.93974
9.55048 0.686059 5.54605
5.71033 6.53358 10
0 8.40857 7.92785
0.975938 7.07597 5.92397
1.9361 8.61147 0.431602
7.43379 0.482816 7.52363
6.28911 7.42229 0.17808
9.29848 2.149 7.85772
7.42993 3.70107 5.36959
5.24805 10 0.256631
2.99587 6.47939 7.72913
7.03382 9.15825 1.0198
5.69537 1.86768 10
9.51253 6.37384 1.40221
0.931719 0.399552 8.2585
7.52338 0.211881 7.67699
1.04607 3.14889 9.54839
7.1709 0.720791 7.19228
5.53322 7.62489 2.36577
7.85126 10 6.08912
9.58761 6.05293 8.06474
0 10 4.37832
6.01738 2.45666 2.66477
6.1597 0 3.70114
8.14085 1.27045 7.31914
3.21089 5.9363 7.46624
6.32956 10 6.82264
9.67028 10 9.9756
5.82439 9.10343 7.65393
3.15494 5.36068 6.08019
7.61301 3.31352 8.55852
3.62849 1.24347 8.39589
0.871773 6.6248 5.83503
7.8949 7.08202 0.507991
1.71157 0.731415 2.53203
5.75194 3.03373 2.17346
2.69505 7.99775 6.78366
2.45463 7.60673 8.66277
4.34636 4.41404 6.16887
8.05107 8.33184 1.08812
9.23955 9.45763 6.79877
7.4731 9.65 5.78975
8.20555 0.502925 8.49992
4.08875 5.53757 3.31167
5.73375 3.09782 5.87342
1.46745 7.34765 4.24528
9.49106 3.41241 9.75998
8.44853 1.12523 5.17398
6.22141 4.99832 4.16365
9.65818 1.76364 7.1544
4.26831 1.32276 8.34387
0.85253 2.59624 9.86249
0.763198 1.7516 5.23739
6.08374 4.91051 3.97062
6.65475 1.75564 9.30344
5.24869 2.25916 6.79658
5.63756 7.68785 5.46675
7.69828 2.94871 9.34122
4.07833 0 7.71293
0.251034 9.74744 0.879744
9.21219 3.87059 6.30309
8.84446 7.56969 1.61614
3.64307 3.19874 3.83107
8.03512 8.16612 0.739833
9.98902 8.85378 3.93798
0.420486 6.00381 8.4614
1.37697 9.0236 8.34444
4.89657 7.13187 0.144325
6.24964 8.97377 5.1404
0.813994 8.37992 6.00702
8.40844 2.27831 8.75198
6.09035 7.50855 0.178787
4.29781 9.40367 3.80519
7.1015 0.737171 7.23662
1.95332 0.24696 2.41766
7.83343 0.183513 7.39948
6.50431 0.960049 6.65931
5.20755 8.89447 8.09088
0.904988 2.4869 4.21074
7.05235 0.138247 7.35945
2.91782 9.18361 7.80004
7.46657 0.209922 7.64518
8.08364 3.9924 2.95728
9.15184 0.823206 5.98715
7.63448 0.627482 7.55398
2.1997 9.25356 4.87212
0.142916 5.5349 9.14407
4.92727 9.33421 3.44908
1.59598 9.38433 3.62692
8.15025 10 2.38078
7.63786 0.402768 7.68179
4.83721 10 6.66005
0.163023 1.966 2.3123
6.43307 0.651576 7.67898
7.81005 0.292847 7.12813
8.77361 9.47703 8.85112
1.12132 2.40887 8.92647
6.83391 0 3.57967
1.70166 2.37754 6.86899
1.37668 0.141033 8.22721
7.81844 0.0358491 8.01859
7.63621 0.075375 7.71923
2.65333 6.16369 3.82616
9.31054 0.928177 6.34752
7.11545 1.31216 2.25986
2.51463 7.03888 7.82182
7.69902 0.699046 7.58524
1.40182 1.75195 8.65539
6.10033 1.28572 6.42777
4.25987 8.03919 10
2.92117 5.14706 8.54923
5.43972 8.64435 6.70391
1.1061 0.284082 6.61988
7.84127 7.36695 5.01635
7.69573 0.218658 7.95277
7.15018 7.01282 7.99889
8.09486 6.54615 5.63394
5.63787 7.44091 2.75676
4.04734 10 3.84858
0.866251 7.15806 6.28735
1.39804 0.194389 8.29713
7.96909 2.18568 9.01183
5.15265 2.42962 7.84143
6.24136 0.616135 2.68732
9.33598 0.78357 6.79362
7.85954 0.67729 7.66176
5.31521 9.1489 3.10613
7.7017 0.0443763 7.06478
7.53114 0.554558 7.67531
6.46775 7.07461 8.20802
3.73273 2.27368 0
1.72109 0.181996 5.64304
7.51013 0.700326 7.72205
0.490638 3.50829 7.35948
9.14659 2.08349 5.80228
8.10565 0.0112742 7.12355
7.67221 0.221158 7.37623
6.34086 4.32934 1.69746
1.73843 0.266698 8.53445
1.43322 0.0107912 8.57472
7.70911 0.386746 7.61662
6.16637 0.565119 7.1356
8.37819 1.9297 6.42069
1.28604 0 8.40954
7.62973 1.56073 9.81991
3.15197 9.84849 0.505554
2.98788 0.975052 8.36624
5.9107 0.595007 2.55536
1.21195 4.11855 7.61298
2.90745 2.49714 6.91395
7.27181 0.563682 7.68984
7.58389 0.353956 7.95417
9.18819 8.64099 0.179531
1.30326 0.0216291 8.36809
7.93677 5.21808 8.84519
7.03464 1.1235 8.51309
7.79398 0.427517 7.56977
6.7086 0.785636 6.59197
7.7914 0.478116 7.61781
7.75297 1.89023 3.05523
8.12784 0.63945 7.2375
0.0152608 6.28989 0.612049
1.39066 0.190617 8.30395
7.6248 0.750586 7.25023
7.81467 0.372688 7.51315
4.77084 9.74596 3.19595
7.46555 1.383 8.36503
7.66122 0.298057 7.51652
7.74101 0.344348 7.47162
5.48256 1.49305 1.71248
7.70387 0.269615 7.33031
0.552242 9.9338 3.15277
2.17428 5.62476 1.49435
7.53369 0.656883 7.27305
0.721034 0.63345 3.50702
0.450274 6.90725 7.52748
0.0518664 9.63978 7.60001
POINT_DATA 400
SCALARS particleColor float 3
LOOKUP_TABLE default
1 5.96046e-08 0
1 0.981534 0
1 5.96046e-08 0
0.678656 1 0.321344
1 5.96046e-08 0
0.483887 1 0.516113
0.757802 1 0.242198
1 0.365304 0
1 0.679794 0
1 0.0703902 0
1 0.163444 0
1 0.632505 0
0.220429 1 0.779571
1 5.96046e-08 0
1 5.96046e-08 0
1 5.96046e-08 0
0.849329 1 0.150671
0.0370374 1 0.962963
0.392421 1 0.607579
1 5.96046e-08 0
0 0.725299 1
1 5.96046e-08 0
0.155776 1 0.844224
1 5.96046e-08 0
1 0.593263 0
1 0.37414 0
1 5.96046e-08 0
1 5.96046e-08 0
0.878968 1 0.121032
1 0.410147 0
1 5.96046e-08 0
1 0.637629 0
0.0521084 1 0.947892
1 0.944828 0
1 5.96046e-08 0
1 0.463235 0
1 0.40039 0
1 0.76136 0
1 5.96046e-08 0
0.770507 1 0.229493
1 0.00257415 0
1 0.305028 0
0.784345 1 0.215655
1 0.67438 0
1 5.96046e-08 0
0 0.893147 1
1 5.96046e-08 0
0.109365 1 0.890635
1 0.886957 0
1 0.399278 0
1 5.96046e-08 0
1 0.29529 0
1 5.96046e-08 0
0.528199 1 0.471801
1 5.96046e-08 0
0.842048 1 0.157952
0.517606 1 0.482394
0.66248 1 0.33752
0.311796 1 0.688204
1 5.96046e-08 0
1 5.96046e-08 0
1 5.96046e-08 0
1 5.96046e-08 0
1 0.475192 0
1 0.698305 0
1 5.96046e-08 0
1 0.0831366 0
1 5.96046e-08 0
1 0.965362 0
0.0307183 1 0.969282
1 5.96046e-08 0
0.606143 1 0.393857
0.894698 1 0.105302
1 5.96046e-08 0
1 5.96046e-08 0
1 0.542825 0
1 5.96046e-08 0
1 5.96046e-08 0
1 0.875126 0
1 5.96046e-08 0
1 5.96046e-08 0
1 0.72495 0
0.716672 1 0.283328
1 0.470052 0
1 5.96046e-08 0
1 0.20241 0
1 5.96046e-08 0
0 0.759483 1
1 0.960334 0
1 5.96046e-08 0
0.629682 1 0.370318
1 0.199289 0
0.456721 1 0.543279
1 5.96046e-08 0
1 0.201046 0
0.694803 1 0.305197
0.16048 1 0.83952
1 5.96046e-08 0
1 5.96046e-08 0
1 0.459369 0
1 0.0848757 0
1 0.694952 0
1 5.96046e-08 0
1 0.880158 0
1 0.0890466 0
1 5.96046e-08 0
0.518037 1 0.481963
1 0.211644 0
1 5.96046e-08 0
1 5.96046e-08 0
1 5.96046e-08 0
1 5.96046e-08 0
0.873543 1 0.126457
1 0.452929 0
1 5.96046e-08 0
1 0.448868 0
1 0.142971 0
0.949381 1 0.0506188
1 0.174609 0
1 0.150565 0
1 5.96046e-08 0
1 5.96046e-08 0
1 0.47909 0
1 5.96046e-08 0
1 0.30679 0
1 5.96046e-08 0
0.300454 1 0.699546
1 5.96046e-08 0
1 0.018991 0
1 5.96046e-08 0
1 0.686819 0
1 0.0639461 0
0.970597 1 0.0294026
1 5.96046e-08 0
1 5.96046e-08 0
0.7875 1 0.2125
0 0.629971 1
0 0.508423 1
1 0.297783 0
0.887728 1 0.112272
1 0.989874 0
1 5.96046e-08 0
1 5.96046e-08 0
1 5.96046e-08 0
1 5.96046e-08 0
1 5.96046e-08 0
1 0.315269 0
1 5.96046e-08 0
1 0.325004 0
1 5.96046e-08 0
0 0.241517 1
1 0.793643 0
1 0.526074 0
1 5.96046e-08 0
1 5.96046e-08 0
1 0.359612 0
1 0.915411 0
1 5.96046e-08 0
1 0.376024 0
0.51299 1 0.48701
1 5.96046e-08 0
0 0.747974 1
1 5.96046e-08 0
0.841803 1 0.158197
1 5.96046e-08 0
0.928548 1 0.0714524
1 5.96046e-08 0
1 5.96046e-08 0
1 0.788179 0
1 0.370167 0
0 0.57021 1
0.730104 1 0.269896
1 0.624149 0
0.675851 1 0.324149
1 0.186286 0
0.290683 1 0.709317
1 5.96046e-08 0
1 5.96046e-08 0
1 5.96046e-08 0
0.553901 1 0.446099
1 0.652394 0
1 5.96046e-08 0
1 5.96046e-08 0
1 0.930241 0
1 5.96046e-08 0
1 0.962683 0
0.555714 1 0.444286
1 0.8048 0
1 5.96046e-08 0
1 0.186793 0
0.785967 1 0.214033
1 5.96046e-08 0
1 5.96046e-08 0
0 0.956741 1
0.607068 1 0.392932
0.839069 1 0.160931
1 5.96046e-08 0
0.0770211 1 0.922979
1 0.128309 0
1 5.96046e-08 0
1 0.0895768 0
1 0.390761 0
1 5.96046e-08 0
1 0.569532 0
1 5.96046e-08 0
0.602525 1 0.397475
1 5.96046e-08 0
1 0.711537 0
1 5.96046e-08 0
0.973291 1 0.0267087
1 0.305015 0
1 5.96046e-08 0
0.197781 1 0.802219
1 5.96046e-08 0
0.365516 1 0.634484
0.986348 1 0.0136518
1 5.96046e-08 0
1 0.123769 0
1 0.923463 0
0.791429 1 0.208571
1 5.96046e-08 0
1 5.96046e-08 0
1 0.969361 0
0.0495042 1 0.950496
1 5.96046e-08 0
1 5.96046e-08 0
1 0.362456 0
1 0.988972 0
0 0.563423 1
1 0.203611 0
0.294374 1 0.705626
1 5.96046e-08 0
1 5.96046e-08 0
1 5.96046e-08 0
0.476191 1 0.523809
1 0.581903 0
0.999591 1 0.000409126
1 5.96046e-08 0
0 0.801799 1
1 5.96046e-08 0
0 0.791576 1
0.637574 1 0.362426
1 5.96046e-08 0
1 5.96046e-08 0
1 5.96046e-08 0
0 0.582546 1
1 0.824966 0
1 5.96046e-08 0
1 0.9801 0
1 5.96046e-08 0
1 0.800504 0
1 0.508048 0
1 5.96046e-08 0
0.929726 1 0.0702735
0.621965 1 0.378035
1 0.959449 0
0.970458 1 0.0295419
0.761285 1 0.238715
1 5.96046e-08 0
1 5.96046e-08 0
1 0.794265 0
0.861841 1 0.138159
1 0.853059 0
1 0.625526 0
0.351527 1 0.648473
0.731776 1 0.268224
1 5.96046e-08 0
1 0.156867 0
0.609924 1 0.390076
0.567424 1 0.432576
1 5.96046e-08 0
1 0.784988 0
0.732837 1 0.267163
1 0.219939 0
1 0.799765 0
1 5.96046e-08 0
0.652362 1 0.347638
1 5.96046e-08 0
1 5.96046e-08 0
1 5.96046e-08 0
1 0.755987 0
0.379401 1 0.620599
1 0.617057 0
1 5.96046e-08 0
1 5.96046e-08 0
1 5.96046e-08 0
1 0.00275052 0
1 0.732508 0
1 0.730249 0
0 0.254401 1
0.429641 1 0.570359
1 0.218789 0
0.890059 1 0.109941
1 5.96046e-08 0
1 5.96046e-08 0
0.727311 1 0.272689
0 0.331015 1
1 5.96046e-08 0
0 0.233904 1
0.325038 1 0.674962
0.998194 1 0.00180638
1 0.655552 0
0 0.196664 1
1 0.690507 0
0 0.39504 1
1 5.96046e-08 0
0 0.603309 1
0 0.411803 1
1 5.96046e-08 0
1 5.96046e-08 0
1 0.936798 0
0.0999953 1 0.900005
1 5.96046e-08 0
0 0.741252 1
1 5.96046e-08 0
1 5.96046e-08 0
1 5.96046e-08 0
0.0413897 1 0.95861
1 0.57149 0
1 5.96046e-08 0
0.69384 1 0.30616
0.779402 1 0.220598
0 0.994523 1
0 0.514477 1
0 0.458887 1
0.493016 1 0.506984
0.261905 1 0.738095
1 0.237529 0
1 5.96046e-08 0
0 0.616325 1
1 0.959865 0
0.0422198 1 0.95778
1 0.687098 0
1 5.96046e-08 0
1 0.66218 0
0.464378 1 0.535622
1 0.761333 0
0 0.49355 1
0.720593 1 0.279407
1 0.519505 0
1 5.96046e-08 0
1 5.96046e-08 0
1 0.813688 0
0 0.529645 1
0 0.494581 1
1 0.480713 0
0 0.40444 1
1 0.690426 0
0 0.549551 1
1 5.96046e-08 0
0 0.633787 1
0 0.717162 1
1 0.165089 0
1 5.96046e-08 0
0.341213 1 0.658787
0 0.675043 1
1 0.835902 0
1 5.96046e-08 0
0 0.692 1
0 0.386327 1
1 5.96046e-08 0
0 0.11858 1
0 0.696777 1
0 0.40141 1
1 5.96046e-08 0
1 0.885369 0
0 0.222466 1
1 5.96046e-08 0
0.87088 1 0.12912
1 0.52828 0
0 0.754609 1
1 5.96046e-08 0
1 0.157908 0
0 0.940566 1
0 0.686804 1
0.510641 1 0.489359
0 0.347404 1
1 5.96046e-08 0
1 0.18486 0
0 0.92749 1
0 0.874064 1
0 0.420023 1
1 0.224641 0
0 0.634875 1
1 5.96046e-08 0
0 0.437445 1
0 0.615551 1
0 0.629275 1
1 5.96046e-08 0
0 0.403408 1
0 0.404739 1
0 0.875782 1
1 5.96046e-08 0
0 0.602649 1
0.0763836 1 0.923616
1 0.969517 0
0 0.288148 1
0.817642 1 0.182358
1 0.634029 0
1 0.0250323 0
