# vtk DataFile Version 3.0
Particle simulation
ASCII
DATASET POLYDATA
POINTS 400 float
2.11219 1.63457 1.13742
1.14569 4.0065 6.35066
8.06373 1.40962 8.44706
9.42983 5.37683 6.02562
6.34885 0.303855 7.92942
9.55408 7.15023 7.74327
9.14415 3.86218 6.49144
2.43056 4.32779 1.66279
5.23138 5.18842 9.74326
4.47569 2.82144 8.91412
2.79489 3.78076 3.46489
1.69786 4.66821 1.64838
5.63094 9.73432 3.1605
0.130447 5.73297 1.57632
0.740448 8.64906 1.4979
9.22229 4.33949 9.05788
6.6179 5.50284 9.4583
3.15707 0.398399 2.22287
7.25072 9.61437 0.395379
1.36262 7.15791 9.75733
3.27781 0.75629 2.18852
6.45417 9.61865 8.99734
1.68323 5.54421 6.75854
7.50612 6.65851 1.99595
7.37746 9.14622 2.48183
9.23713 7.61165 3.51939
6.95806 4.5638 7.13387
2.69177 2.73933 7.97854
2.87588 2.75395 2.39436
6.65873 3.57252 4.92216
10 9.11272 8.02612
6.60563 2.44074 1.73891
5.39189 1.81946 3.64838
8.08604 6.61265 2.83654
1.56061 5.02349 0.173257
1.03316 2.63417 3.1218
7.51897 7.2567 6.00069
3.39703 0.325114 2.00622
4.59835 4.63188 4.4976
8.66739 7.94397 7.53298
7.70247 7.86842 1.2984
6.11087 3.34305 5.64152
3.4396 1.89208 7.30629
5.42264 4.19754 0.0254944
6.19712 1.51521 3.92949
9.83265 9.80725 6.82749
2.56428 3.41692 8.32703
6.42607 8.4387 1.36165
1.83288 5.80693 4.20596
6.1122 1.88913 0.366531
10 2.31451 2.96177
8.27394 10 8.17151
1.64596 6.65172 3.32172
10 7.83831 1.61782
7.49902 9.01412 10
1.08385 0.756186 9.25775
0.567599 4.55619 2.05991
6.16593 1.08866 5.1312
1.0258 6.31245 5.97032
3.43648 7.20049 7.24054
0.0764295 3.84614 2.41084
6.38456 3.98868 6.39194
3.59691 0.565481 6.39126
1.41176 9.60945 3.55086
4.43015 8.77633 9.37869
5.58697 0.880027 6.21709
8.98829 7.09042 9.43635
5.67267 5.84418 8.52385
0.901983 3.74377 1.72085
5.65289 0.157344 3.61695
7.50576 2.84033 8.38119
9.57877 8.84532 6.60822
0.781177 7.95663 2.68797
9.4461 1.68086 6.04335
8.76023 1.08981 4.20003
1.64104 7.44729 4.72861
1.30305 9.47213 3.6535
3.34963 1.91641 4.82065
0.713741 7.36187 0.405208
9.70289 3.0449 8.22751
3.22362 0.137448 2.32761
0.349507 4.43148 1.28981
3.14591 0.294361 9.40385
1.43821 5.80149 0.963463
4.0483 3.93543 4.61822
7.92797 0.40579 6.32597
9.74439 2.97378 3.2474
4.94463 4.77385 9.61656
4.60466 5.49159 1.39456
1.06506 0.743977 4.72857
3.68034 0.313539 2.01057
2.74674 7.17514 5.28397
0 4.4595 8.46033
7.54519 5.07054 2.80649
7.46097 8.3138 6.18579
0.341089 4.71634 1.83745
6.07064 5.62117 7.8902
8.3946 8.60791 6.89694
7.75479 4.23826 4.57539
1.80338 7.54666 9.79244
3.43716 0.48169 0.722295
4.139 4.39625 6.30529
9.07384 8.64109 2.206
8.38808 0 9.44236
4.09695 3.37763 5.56117
0.932959 7.93691 7.02053
1.71142 2.65797 1.90999
1.14309 9.33909 8.24455
0.729042 3.55337 6.64824
9.26839 9.6624 8.10891
4.4109 7.77267 8.58692
1.66746 6.88593 9.02072
2.31598 8.47876 0.578383
0 1.00768 7.09849
4.15682 0.656157 0.919554
6.11653 4.21182 6.12142
0.649351 0.17355 8.3573
0.122196 4.42406 6.67331
0.222191 0.847985 6.7474
6.92314 9.47034 4.43087
7.2541 5.56537 8.15341
7.33402 7.57071 1.22279
7.52468 1.24483 8.59657
4.78259 6.51585 4.47902
5.42085 8.63263 8.4478
3.58961 0.240156 1.05934
5.07624 2.43002 1.19496
5.40548 8.39276 4.07615
2.51987 1.60513 2.17467
7.98616 5.17923 1.96166
6.96271 8.74648 4.55467
8.18773 9.26844 5.92068
1.1455 7.56761 0.7256
2.2282 1.36959 2.1466
4.76381 8.27342 8.60823
4.68842 5.66858 5.03027
0.0878061 1.44168 8.87099
4.218 7.28927 9.47073
9.5515 3.5946 7.20748
9.51246 7.52324 3.27372
3.40257 0.350457 2.11321
5.03242 0.92013 10
6.98171 4.72362 0.412853
1.07965 0.0627124 5.20778
4.13652 0.809731 1.15556
8.48339 1.96942 1.48354
8.67637 0.472143 1.32716
7.84765 9.6757 0.690232
0.839175 1.39483 8.55883
0.215818 5.29911 9.85837
3.50835 0.55657 2.22494
5.04951 1.50614 6.64748
1.4505 5.21286 3.92301
3.77244 0.494 1.94795
0.00771217 1.81258 1.44942
7.94856 0.283131 6.08509
8.3742 5.57339 0.25237
5.70068 5.05252 4.81037
3.20289 4.71893 7.53772
5.33437 6.20701 8.8334
0.441619 4.61641 9.61538
4.30852 5.51246 1.51552
4.17814 3.74397 3.39305
2.35334 6.84219 5.24379
1.70232 8.90905 2.8198
7.40213 7.84172 1.41422
4.53632 6.70144 0.45195
9.94498 8.56647 4.38474
4.47947 5.69559 8.22334
4.91499 8.24706 1.81607
3.19848 0.43019 2.17499
5.03389 5.14773 5.1607
1.40869 6.81398 2.84914
7.86086 2.57141 8.95837
1.567 6.34786 6.06431
2.70548 3.89094 0.49026
4.23095 8.02562 8.17504
6.32385 9.45705 2.22964
3.15129 6.15948 3.64576
3.1274 3.97034 4.95204
3.49859 0.309997 2.41205
5.21879 8.11299 3.94515
4.75567 8.95994 10
3.95031 4.08334 2.73264
6.02023 6.02725 1.29121
0.0661076 6.83462 5.04674
3.52734 0.604481 2.39965
9.10862 2.9175 5.58506
4.31795 0.294258 2.29143
4.0483 0.524351 1.03478
3.67513 0.481603 1.75658
3.5361 0.393059 1.92749
9.91001 1.97025 4.3651
9.20746 3.15278 8.46631
8.16486 9.08879 8.4091
5.20337 3.03827 0.608949
1.7807 6.16966 9.07343
2.28003 3.72134 0.303626
3.90512 0.360212 5.99948
3.4485 0.114754 1.76954
3.59571 0.318597 2.5624
6.07805 7.88633 4.13133
1.58922 5.21394 2.00086
8.61215 5.2434 2.49918
9.49285 7.15042 8.11212
6.42077 1.39742 6.26143
4.24926 0.526998 2.86456
8.8298 2.52402 9.69367
6.00052 0.446208 9.26976
2.93024 5.83306 2.98752
3.98132 0.310662 2.12823
3.43131 0.357335 2.44229
1.74776 4.12622 7.22035
9.42619 2.28858 1.98998
0.627579 2.60828 1.43288
3.95491 0.687458 8.72124
3.42904 0.674943 2.31598
1.04131 0.348722 4.82459
1.46437 4.45004 5.24359
7.77348 3.9656 8.90553
5.91018 6.11586 0.927458
8.6856 2.25932 4.55441
9.67546 0.855218 0.0982095
3.16982 0.509564 2.52497
8.19759 0.920063 0.727409
0.692798 6.71066 6.20664
9.58804 4.63815 6.58686
4.02635 0.263651 2.66311
3.15429 0.54505 2.64695
2.19406 9.35795 4.82499
7.38164 6.56771 4.23018
3.24164 7.1976 5.70101
10 0.403811 3.31723
3.30385 0.163078 2.56783
0.645277 0.156809 8.4663
8.27276 3.20339 3.65924
9.767 3.2046 5.55943
3.59351 1.89641 8.8368
3.73001 0.359927 1.78987
4.46316 8.72875 8.83797
3.38186 0.393273 2.32654
3.90086 0.207154 2.56235
2.60518 0.469667 2.9231
3.15691 0.519331 2.86315
1.64748 4.35525 4.64282
5.20988 8.47379 4.56622
1.95854 0 7.39676
9.53241 0 4.80116
1.57765 1.36193 0.964787
8.23773 7.32142 2.65708
3.85277 0 2.07638
6.55864 9.49979 1.57115
5.74319 1.22329 10
8.67591 3.314 3.76596
2.82623 3.3721 2.13984
2.62856 0.415092 3.57157
2.84504 1.58135 6.22933
0.43729 0.215092 8.64337
10 2.82167 0
0.767074 0.0703593 8.49516
3.35936 0.535582 2.18177
7.34332 1.14665 8.98335
5.31247 1.83371 5.89793
0.0697084 0.248489 2.549
0.440749 0.698032 4.0206
2.46298 3.59622 10
4.74154 0.988381 4.50339
0.818807 0.309817 8.49208
0 9.89759 0
3.98186 0.422261 2.63502
2.87407 0.570414 2.20424
3.91492 8.46215 7.67518
9.72157 2.94961 6.73977
5.77602 7.76899 4.53091
4.62973 0.711824 4.41094
0.826061 0.718682 6.93724
8.44754 5.85283 5.04052
0.79182 1.13807 7.50247
2.16087 0.21084 9.49714
3.30073 0.370621 2.19556
1.52794 1.40618 10
7.86393 0.745249 0.495974
7.96837 3.86741 5.67821
4.83557 0.839172 2.85132
3.96488 1.16437 8.09121
10 9.42148 2.00465
3.45419 0.600067 2.17144
3.99697 0.0514304 4.33734
0.209806 5.37919 3.91568
6.7521 9.36825 0.635476
6.72732 5.45012 7.41639
1.90893 6.94856 5.28961
3.6691 0.244727 2.62906
1.68467 4.52609 3.09001
4.76904 1.68136 9.11552
0.847912 0.231862 8.23094
3.15567 0.340674 2.35662
3.59456 0.186302 2.53941
2.4729 0.510831 3.22454
3.39933 0.457518 2.39668
7.2007 5.4178 1.09273
10 1.37467 0.44267
3.38498 0.507624 0.304513
3.0557 7.29373 8.35347
3.69958 0.096136 2.23646
7.71372 1.01332 7.52614
3.38886 0.284575 2.51263
3.11868 0.0493114 2.20847
0.896796 3.43603 6.04868
8.48353 5.80794 5.11173
1.92202 3.70839 1.3978
8.15969 0.448639 3.09748
5.4433 8.13534 2.1874
3.4848 0.642911 2.01152
2.72587 9.00028 6.94203
4.59059 5.79692 1.25992
3.27435 0.722094 0.958184
2.65299 3.10106 2.48552
4.66857 2.38931 3.75569
6.9473 8.85989 4.61031
0.472393 0.200901 8.9679
6.81687 6.31622 8.68
0.541726 0.181062 8.49293
3.72188 0.522536 2.12747
0.250054 0.337684 9.26565
2.20847 1.15961 0.483673
3.71418 0.123105 2.80189
5.32516 3.62676 2.52176
7.70485 6.7552 9.26411
3.51678 0.405319 2.00361
3.56627 9.32589 0
4.16551 0.518139 2.36339
1.58843 1.65989 9.19265
2.81643 0.0673135 3.53238
7.97867 0.90564 0.232309
6.92891 0.898786 9.20997
4.50165 5.93537 6.2495
3.45627 0.304873 2.08994
1.58531 2.09005 8.75465
2.08145 3.88203 3.05272
3.08067 3.99067 1.91725
9.11343 8.18239 1.83559
1.66704 1.68877 9.34962
0.677756 0.135137 8.43221
3.27888 0.151341 1.87794
3.12906 0.100829 1.47067
7.8529 0.494014 0.414076
3.36665 0.585142 1.96776
3.77174 0.506043 2.3451
7.84094 7.44563 1.97931
3.6071 0.274278 2.35994
3.32538 0.639032 2.01647
1.06086 6.81361 2.75601
2.87525 2.24577 3.19819
3.51339 0.305456 1.96712
3.53102 0.589382 1.6647
3.15892 0.332194 0.424987
1.81347 1.71357 9.33145
4.01311 0.190269 1.68494
3.26543 0.352569 2.44611
7.99805 0.379027 0.507494
0.672768 0.0956971 8.38211
0.466991 0.225694 8.40234
3.27041 0.0199748 1.58827
3.22635 0.324352 2.56707
7.86568 0.458462 0.453909
0.813949 0.310153 8.9993
8.69782 3.05269 3.1874
0.463076 0.158521 8.37993
9.82215 2.56417 1.95698
7.95853 0.69188 0.469648
3.26912 0.307811 9.32401
3.83426 0.973472 8.99543
3.42743 0.364702 1.9804
3.71197 0.266566 1.77202
7.7904 0.83788 0.348442
0.627583 0.0194579 8.61094
0.618961 0.64158 9.05251
3.8529 0.433639 8.53089
3.63409 0.245528 1.86151
3.55106 0.527204 2.07911
3.34121 0.51799 2.37007
3.79825 0.366648 8.44975
3.41803 0.310987 2.45827
9.61792 0.363561 0.158094
0.297313 0.19707 7.99527
3.27901 0.242898 1.95605
3.49555 0.355714 2.14368
9.10163 1.75328 9.62607
8.77305 0.295845 6.24026
3.36053 0.166529 2.65718
3.22392 0.499367 2.49982
1.08938 0.235951 8.31705
3.07726 0.50844 2.14392
3.31047 0.522266 0.479356
0.595243 0.172201 8.60607
3.31719 0.176736 1.85397
0.444021 0 4.61113
6.04523 0.0692523 4.46026
8.09271 1.04412 0.299711
POINT_DATA 400
SCALARS particleColor float 3
LOOKUP_TABLE default
1 0.117559 0
0 0.427171 1
0.101807 1 0.898193
0.486152 1 0.513848
1 0.904461 0
0 0.757337 1
0.92581 1 0.0741895
1 5.96046e-08 0
0.988257 1 0.011743
1 5.96046e-08 0
0 0.910503 1
1 0.755139 0
1 5.96046e-08 0
1 5.96046e-08 0
1 5.96046e-08 0
0.855412 1 0.144588
1 0.392988 0
0 0.430813 1
1 0.860793 0
1 0.494119 0
0 0.358398 1
1 5.96046e-08 0
1 5.96046e-08 0
0.725418 1 0.274582
1 5.96046e-08 0
0 0.560142 1
0.826624 1 0.173376
0.138438 1 0.861562
1 0.586041 0
1 0.922848 0
1 0.782784 0
0.508568 1 0.491432
1 5.96046e-08 0
0 0.609542 1
1 0.425854 0
1 5.96046e-08 0
0.527532 1 0.472468
0 0.708168 1
1 5.96046e-08 0
1 5.96046e-08 0
0.553587 1 0.446413
1 5.96046e-08 0
1 5.96046e-08 0
1 0.881991 0
0.569738 1 0.430262
1 5.96046e-08 0
1 5.96046e-08 0
1 5.96046e-08 0
1 0.684704 0
0.979411 1 0.0205894
1 5.96046e-08 0
0 0.619677 1
1 5.96046e-08 0
0.93461 1 0.0653898
1 0.756482 0
0.0848439 1 0.915156
0.0387697 1 0.96123
0.38863 1 0.61137
1 5.96046e-08 0
1 0.233084 0
1 5.96046e-08 0
1 0.587491 0
0.651952 1 0.348048
1 5.96046e-08 0
0 0.766384 1
1 5.96046e-08 0
1 5.96046e-08 0
1 0.415618 0
0.618476 1 0.381524
0.381489 1 0.618511
1 0.644838 0
0.472477 1 0.527523
1 5.96046e-08 0
0 0.781831 1
0.963791 1 0.0362091
1 5.96046e-08 0
1 0.738268 0
1 5.96046e-08 0
0 0.980695 1
0.792455 1 0.207545
0 0.641906 1
0 0.463932 1
0 0.446388 1
1 5.96046e-08 0
1 0.866271 0
1 0.254406 0
0.892677 1 0.107323
1 5.96046e-08 0
0.577716 1 0.422284
0.401484 1 0.598516
0 0.253678 1
1 0.717678 0
1 5.96046e-08 0
1 5.96046e-08 0
0 0.849296 1
1 5.96046e-08 0
1 5.96046e-08 0
0.488118 1 0.511882
1 0.67042 0
0 0.327826 1
0 0.89326 1
0.293922 1 0.706078
0.397475 1 0.602525
0.501391 1 0.498609
1 5.96046e-08 0
1 0.311272 0
0.644087 1 0.355913
0.505242 1 0.494758
0.815423 1 0.184577
1 0.304081 0
0.155676 1 0.844324
1 0.948742 0
1 0.882275 0
1 5.96046e-08 0
0 0.659377 1
1 0.223091 0
0 0.518403 1
1 5.96046e-08 0
1 5.96046e-08 0
0.85633 1 0.14367
1 5.96046e-08 0
0.66113 1 0.33887
1 5.96046e-08 0
1 0.0465031 0
1 0.878176 0
0 0.314676 1
0 0.920596 1
0.447314 1 0.552686
0.55915 1 0.44085
1 0.57582 0
0 0.614625 1
0.724096 1 0.275904
1 5.96046e-08 0
0.130846 1 0.869154
0.878124 1 0.121876
1 0.628842 0
0.9078 1 0.0922001
1 5.96046e-08 0
0.962372 1 0.0376282
0.192765 1 0.807235
0 0.742355 1
1 0.189161 0
1 5.96046e-08 0
1 5.96046e-08 0
0.320103 1 0.679897
0.0769616 1 0.923038
1 0.68315 0
0.801759 1 0.198241
0.187187 1 0.812813
1 5.96046e-08 0
0 0.866913 1
1 5.96046e-08 0
1 5.96046e-08 0
0 0.643275 1
1 5.96046e-08 0
1 5.96046e-08 0
0.450056 1 0.549944
1 0.424801 0
1 5.96046e-08 0
1 5.96046e-08 0
1 5.96046e-08 0
0.492894 1 0.507106
1 0.819908 0
1 0.965624 0
0.689221 1 0.310779
0.369039 1 0.630961
1 0.0933152 0
0.736156 1 0.263844
1 5.96046e-08 0
0.889047 1 0.110953
0 0.703963 1
1 5.96046e-08 0
0 0.483408 1
1 0.931348 0
0 0.821975 1
1 0.559034 0
1 5.96046e-08 0
1 0.0616316 0
1 0.779061 0
1 0.752301 0
0 0.863667 1
1 5.96046e-08 0
0 0.924206 1
1 5.96046e-08 0
1 5.96046e-08 0
0.763891 1 0.236109
0 0.614452 1
1 5.96046e-08 0
0 0.47113 1
0 0.481023 1
0 0.542968 1
0 0.91214 1
0.600677 1 0.399323
0.810577 1 0.189423
0.334017 1 0.665983
0 0.27486 1
1 0.933147 0
1 0.795432 0
0.494147 1 0.505853
0 0.595231 1
0 0.604026 1
1 5.96046e-08 0
1 5.96046e-08 0
0 0.708185 1
1 5.96046e-08 0
0.394004 1 0.605996
0.248586 1 0.751414
1 5.96046e-08 0
0 0.706903 1
1 5.96046e-08 0
0 0.531372 1
0 0.484262 1
1 0.472041 0
1 0.470143 0
0.296724 1 0.703276
0.0841395 1 0.915861
0 0.676123 1
0.608648 1 0.391352
0 0.91975 1
1 5.96046e-08 0
1 0.398128 0
1 0.231202 0
0 0.821327 1
0.0628523 1 0.937148
1 0.396122 0
1 5.96046e-08 0
0.936048 1 0.063952
0 0.692393 1
0 0.180737 1
1 5.96046e-08 0
1 0.666185 0
1 5.96046e-08 0
1 5.96046e-08 0
0 0.847516 1
0 0.934825 1
0.42322 1 0.57678
1 0.293526 0
0.122251 1 0.877749
0 0.484762 1
1 0.0783257 0
0 0.76812 1
0.0432866 1 0.956713
0 0.956404 1
0 0.643535 1
1 5.96046e-08 0
0 0.847428 1
1 5.96046e-08 0
1 0.917826 0
1 0.772236 0
1 0.734018 0
0 0.544318 1
0.517074 1 0.482926
1 5.96046e-08 0
1 0.662666 0
1 0.370399 0
0.22046 1 0.77954
1 5.96046e-08 0
0 0.723159 1
1 5.96046e-08 0
0 0.404541 1
0.152834 1 0.847166
0 0.945911 1
0.989774 1 0.0102262
0.0537619 1 0.946238
0 0.872311 1
1 5.96046e-08 0
0 0.615962 1
0 0.375188 1
0.610644 1 0.389356
0 0.471435 1
0 0.66318 1
1 5.96046e-08 0
1 5.96046e-08 0
1 5.96046e-08 0
0 0.896943 1
0.216957 1 0.783043
0.049285 1 0.950715
1 5.96046e-08 0
1 0.816854 0
0 0.333448 1
0.104884 1 0.895116
0 0.323078 1
1 5.96046e-08 0
0.270315 1 0.729685
1 0.745106 0
1 0.183812 0
0 0.591449 1
0 0.432079 1
1 5.96046e-08 0
1 5.96046e-08 0
1 0.747952 0
1 0.432774 0
0 0.93396 1
0.0805516 1 0.919448
1 0.707089 0
0 0.369988 1
0 0.547412 1
0 0.347556 1
0 0.878533 1
0 0.399425 1
1 5.96046e-08 0
0.46559 1 0.53441
0.844241 1 0.155759
0.434759 1 0.565241
0 0.58459 1
0.433169 1 0.566831
0 0.568075 1
0 0.450888 1
0.976589 1 0.0234106
0 0.891078 1
1 5.96046e-08 0
0.966383 1 0.0336172
0 0.680959 1
0 0.428669 1
1 0.0859205 0
0.52484 1 0.47516
0 0.771043 1
1 5.96046e-08 0
1 5.96046e-08 0
1 0.920088 0
0.00759101 1 0.992409
0.367049 1 0.632951
0 0.700181 1
0 0.980532 1
0 0.846668 1
1 0.769557 0
0 0.159982 1
1 5.96046e-08 0
1 0.954905 0
0 0.488943 1
1 5.96046e-08 0
0.0535953 1 0.946405
0 0.849254 1
0 0.211448 1
0 0.453218 1
1 5.96046e-08 0
0.665343 1 0.334657
0 0.53481 1
0.474525 1 0.525475
1 0.0795463 0
1 5.96046e-08 0
0.58301 1 0.41699
0 0.540954 1
0 0.683952 1
0 0.218273 1
0 0.567557 1
0.0887929 1 0.911207
0 0.742307 1
0 0.945883 1
1 0.445367 0
0 0.985946 1
0 0.366336 1
0.0660439 1 0.933956
1 0.830783 0
0.128644 1 0.871356
0 0.55365 1
0 0.37912 1
0.12966 1 0.87034
0 0.613221 1
0 0.700091 1
0 0.601994 1
0 0.406283 1
0 0.739474 1
0 0.733627 1
0 0.851968 1
0.0210934 1 0.978907
0 0.595512 1
1 0.6567 0
0 0.909151 1
1 5.96046e-08 0
0 0.94098 1
0.835903 1 0.164097
0.502848 1 0.497152
0.0638403 1 0.93616
0 0.625534 1
0 0.433362 1
0 0.994574 1
0 0.417106 1
0 0.718098 1
0 0.765648 1
0 0.687259 1
0 0.451 1
0 0.454399 1
0.121367 1 0.878633
0.323963 1 0.676037
0 0.850779 1
0 0.436461 1
0 0.760191 1
1 0.510152 0
0 0.645209 1
0.0140667 1 0.985933
0 0.803883 1
0 0.379378 1
0 0.511484 1
0 0.971077 1
0 0.631774 1
0 0.365454 1
0 0.957234 1
0.578746 1 0.421254
0 0.422237 1
