# vtk DataFile Version 3.0
Particle simulation
ASCII
DATASET POLYDATA
POINTS 400 float
7.93107 2.4577 9.75327
0.458997 1.88309 3.80692
0.285304 2.26117 3.7847
2.91258 0.608793 1.61152
9.7491 0.0917866 3.4801
4.78591 6.01655 6.21397
7.4737 3.37228 2.98586
5.35309 5.29046 0.208003
9.91022 5.71125 1.14676
6.66679 0.568339 4.67028
5.22502 1.52926 0.206595
3.34223 0.0683859 2.30498
9.80027 9.40734 6.79672
3.78441 0.59593 0.612928
5.80985 2.5969 2.16897
9.69482 2.75825 8.09703
2.38462 6.55087 0.476679
2.86966 0.696812 2.42626
0.0886705 4.99489 8.26459
6.76829 0.573726 4.43484
3.81334 0.329616 2.73676
2.53679 0.368333 3.65871
5.12724 6.21739 5.98256
6.42735 1.20438 4.36863
2.60418 8.35298 7.87648
3.26076 1.09315 2.63257
5.15455 0.619467 3.85211
3.73458 0.665406 2.93552
9.20219 0.272996 8.6656
2.5156 0.495736 1.89903
8.86227 9.00231 6.75128
9.73833 0.107389 0.953202
6.46805 0.454896 8.88425
6.45436 1.1412 4.30727
2.27765 1.30035 2.19856
0.188308 1.24034 0.684024
7.35701 0.779309 8.66586
2.47226 0.35071 1.75049
6.5339 0.912157 0.723202
3.50255 2.1673 2.243
5.29045 0.139764 4.19943
8.48314 6.28985 4.90236
5.07133 9.08358 6.88191
5.39385 0.164529 6.11275
7.39712 0.207437 7.32082
6.43608 0.393233 1.92187
5.22478 1.69546 8.87217
1.94266 0.490322 1.88003
5.89981 0.348013 1.78899
2.96175 9.94064 9.93118
0.399636 3.89755 2.57452
7.97646 7.17408 4.88562
7.29021 0.0324885 7.73092
6.93807 0.202278 4.63178
8.74102 0.488175 7.95964
6.28991 0.592324 1.92737
5.83636 0.551173 8.99607
2.07248 0.758621 2.45236
5.92871 0.322493 1.84811
1.36426 4.5008 7.22811
8.40892 2.93116 7.14935
4.67202 0.12365 9.3009
4.06847 0.474608 1.65108
6.74211 0.424652 4.41047
7.46794 2.20838 3.09033
6.02113 1.1255 2.5636
7.14739 0.168392 6.9903
0.284241 4.162 2.78644
6.24628 0.393732 1.72859
5.53309 0.43824 8.85975
4.8623 0.122019 9.7497
2.56876 0.160738 3.02575
9.7765 2.36626 2.26977
6.76506 0.435133 4.44462
6.77429 0.766466 8.75751
7.07166 0.509241 8.58033
7.10251 0.116161 7.04688
4.80277 0.640002 8.13058
5.71733 0.124047 2.084
1.82121 1.65974 6.9173
2.60582 0.300011 1.76138
2.49294 0.314491 2.42248
2.79374 0.739628 1.64406
3.06482 0.68933 1.18366
5.28339 0 9.12488
5.06444 0.414705 8.6548
5.50938 0.0208065 9.01606
9.08944 0.289471 0.87338
5.71777 1.63781 0.734083
9.46669 0.271942 1.56535
2.37407 0.48802 1.77169
2.89846 0.011502 0.0323285
0.381034 2.87172 9.42764
3.08984 0.643038 1.1649
5.28845 0 9.07813
5.01656 0.420143 8.62162
4.7945 0.795086 9.56643
2.66175 0.305009 2.93478
4.92828 0.191545 6.36604
9.43752 0.298401 1.57376
2.17131 0.195151 0.3878
5.94193 0.475609 7.07855
0.247262 1.261 0.664943
7.50375 0.417104 6.78796
6.80858 2.10907 0.47581
2.40843 0.406661 1.75471
4.39716 1.02127 9.78621
6.24042 0.649007 1.78956
5.90689 0.327473 1.8505
9.28325 0.107331 1.02757
0.336957 2.44309 3.96216
6.50514 0 4.39393
3.46222 0.066436 2.64461
9.17951 0.259532 1.5781
2.22168 0.647429 1.73856
3.33335 0.672326 1.04137
5.23722 0.556943 7.816
6.11918 0.271114 2.88572
5.91437 0.276213 1.8705
0.664375 0.855386 0.863738
2.57137 0.304124 1.60348
9.86456 3.55774 1.30548
6.88865 3.72977 9.35845
4.79248 0.0786231 9.47833
7.5653 0.33219 6.33939
2.196 0.735037 1.92299
2.10233 0.427231 2.17097
6.41676 0.383747 4.53585
0.2881 1.68593 6.01146
1.90824 0.68095 2.09045
2.4809 0.37289 1.53314
5.8392 1.06182 2.26891
5.23951 0.384279 8.72635
7.10981 0.142679 7.36878
1.14424 0.388974 4.52294
1.80542 0.294199 2.70884
4.65194 5.74773 7.35103
6.55173 0.264903 4.62521
5.72617 0.329489 7.65978
7.35905 0.0822883 7.29438
2.75879 0.394348 1.76182
7.9584 0 7.68842
1.08217 1.37926 9.31669
0.333922 1.15941 0.769119
2.27006 0.1496 1.85685
2.65155 0.225838 2.20692
7.3457 0.0672398 7.0052
1.45276 1.07584 3.28255
2.153 0.49481 2.57068
1.57747 1.35404 3.18467
2.75712 0.391906 1.73853
7.57749 0.319479 7.58987
2.33432 1.44569 0.949768
4.47185 1.03889 9.74351
3.21889 3.30999 0.436101
2.57339 0.171117 2.14549
8.13456 0.227428 7.22923
2.76526 0.43558 1.61954
7.3216 0.107702 7.33597
3.83016 0.577569 2.57195
0.3897 1.55062 0.918348
0.278815 2.44643 3.55818
4.70488 0.0455408 8.94097
1.98633 0.190262 2.72312
0.39509 3.94502 2.74734
7.51083 0 7.39483
4.47088 0.239289 7.777
5.10936 0.491012 7.77412
6.39433 4.01742 8.50075
7.51201 2.12192 1.42818
3.20489 0.162052 1.55155
3.0101 0.0492927 2.21161
6.23546 0.316384 7.04588
2.69556 1.15889 1.31023
1.9247 0.364401 3.10591
0.885121 0.670605 0.932896
5.12264 0.701519 7.80499
5.17776 0.238258 8.51345
5.05343 0.130982 9.04976
3.67942 1.34873 4.26589
2.95552 0.647642 1.1721
1.92345 0.457799 2.12499
7.02402 4.34932 9.26099
2.37436 1.50276 0.905757
4.83587 0.144664 8.55771
2.72657 0.716135 2.29725
2.01606 0.953627 2.31752
0.306479 2.69685 9.61497
5.12563 0.417851 6.06847
3.03899 0.410232 1.54381
2.95823 0.6405 1.14452
1.80395 0.267223 2.80819
5.34006 0.297563 8.73039
2.31441 4.14117 2.86741
8.19711 9.11056 9.34509
2.96397 0.732181 1.34207
3.64455 0.557453 2.40837
3.99559 5.47296 9.12483
1.8627 0.454205 2.69421
3.09639 0.726419 1.80544
3.19076 0.243896 2.5903
6.05988 0.48313 1.68747
8.97992 0.404846 7.87431
4.66376 1.29717 9.73116
9.84849 1.28451 9.63838
5.04986 0.519102 8.03336
1.9474 0.294289 1.81707
2.85152 0.539162 1.20595
3.33483 0.300529 1.20878
9.23533 0.284715 1.51398
3.08087 0.550729 1.27922
6.48912 0.513998 2.10536
4.94989 0.123643 8.43719
7.78991 0.0136637 7.51277
7.02984 0.255733 3.83271
5.05811 0.730296 7.92882
1.9801 0.279482 1.77091
3.29537 0.369131 2.09254
3.78712 0.75811 2.30966
9.49977 0.336711 1.42858
5.55278 6.46198 6.38871
8.02468 0.293175 7.67099
4.38979 1.12821 9.94642
2.22114 0.352246 1.48906
5.15491 0.450496 7.90404
2.21998 0.281813 1.30163
5.8618 2.85335 2.52339
3.28151 0.251218 1.56
2.20666 0.491148 1.26515
5.00936 0.0982708 8.10819
6.81355 0.357874 4.81332
4.73915 0.693398 8.55582
7.84275 0.208928 7.32376
2.76724 0.323127 1.62235
4.90023 0.029003 8.62108
1.44213 0.554986 2.66974
7.62629 0.181835 6.60968
3.18154 0.830741 2.72971
2.71011 0.277017 2.5592
4.00663 0.692704 0.638414
3.54376 0.702002 2.71307
3.08719 0.85892 2.72339
2.82572 0.321643 1.84773
3.36429 0.280007 2.83957
4.76674 0.573493 8.169
2.24775 0.441256 2.98466
2.70824 0.977306 1.62372
4.65122 0.250203 7.97495
5.66559 0.409094 1.75359
4.93984 0.614743 8.14436
2.90468 0.0859354 2.20346
6.2076 0.54473 1.61916
5.14515 0.309464 8.19883
2.24916 0.144849 0.85081
7.79187 0.174561 7.45671
2.52218 0.223962 1.56698
9.35185 0.32167 1.61778
4.85011 0.266136 8.346
5.69664 0.335712 1.76236
4.9871 0.587158 8.11959
1.69544 0.622249 2.83859
5.06299 7.01875 6.60364
4.49029 1.02552 9.72384
6.30389 0.848518 3.38045
5.21258 0.226164 8.67871
3.0876 0.829457 6.03019
6.37396 0.878639 2.93472
4.61038 0.451334 8.33323
7.74474 0.209227 7.70839
2.78371 0.383554 2.28756
2.44879 0.342463 1.13698
8.04299 9.81813 5.30753
2.03252 0.119465 0.757697
6.53414 1.18845 3.249
5.07846 0.0446313 8.66376
4.13243 1.09794 9.10414
6.79652 0.418063 3.99897
3.76909 8.67409 8.3319
8.39412 0.0868187 7.58171
3.07707 0.591062 1.30356
9.0184 0.412364 1.71076
5.99546 0.345905 2.04339
6.3206 0.209169 1.83399
6.69776 0.450133 4.45703
8.259 0.133634 7.33474
8.45721 0.216319 7.73663
2.43317 0.533024 1.68151
2.04504 0.478612 3.19386
7.52771 0.219038 7.19532
9.94871 2.32953 2.07568
8.90319 0.505553 1.79524
6.11578 0.442679 1.96234
2.33786 0.529006 1.45222
6.75963 0.358241 4.61875
5.60662 0.261121 7.88204
5.0793 0.385187 8.20537
1.60322 0.656785 2.87958
2.18902 1.00751 1.45997
2.26031 0.463344 2.59306
2.12138 0.410009 2.06708
9.5747 0.471988 1.34577
7.55889 0.0451873 7.17171
3.44379 0.0932923 1.36647
6.61745 0.0256659 1.80738
2.57944 0.454614 1.92508
5.3905 0.330328 1.49957
3.42626 0.656594 2.3826
2.47388 0.226647 1.40978
3.13526 0.52928 1.22393
2.4197 0.256736 1.39175
7.22807 0.540987 4.07762
7.46714 0.24724 6.98084
7.5212 0.19057 7.06285
3.48713 0.20763 2.70659
2.39502 0.391079 2.11754
7.14989 0.224 4.99505
2.08807 0.534129 2.53319
6.54811 0.783483 2.20739
6.16396 0.709071 1.98439
2.78809 0.528618 2.0558
5.46335 0 7.76079
2.58298 0.767338 1.65265
4.81159 0.557519 8.11316
3.54981 0.48035 2.33165
9.63318 0.076677 1.53588
9.4697 0.558815 1.52461
2.87181 0.812318 1.14518
6.04804 0.274755 1.65842
9.00124 0.370277 1.36918
3.645 0.443562 2.46634
5.39535 0.0693131 7.67912
2.21511 0.590171 1.47357
4.7064 0.265514 8.20053
2.46887 0.301753 1.73465
9.16183 0.585543 1.84185
4.64886 1.0937 10
1.81767 0.264632 2.47047
2.28758 0.754055 1.76911
8.73658 0.571308 1.64496
2.41991 0.487987 1.54627
5.16313 0.287064 8.33059
2.09883 0.193999 1.50361
5.10098 0.32563 8.69685
4.7092 1.38693 9.88454
2.32768 0.349667 1.79
2.18033 0.382121 1.55547
6.35364 0.369211 2.19013
2.59764 0.659814 2.97992
2.11313 0.466491 1.43942
2.05821 0.590026 2.77082
2.04914 0.257678 1.15031
2.41213 0.503861 1.72516
5.14995 0.0805793 8.89515
4.7159 1.35511 9.9056
3.33626 0.883469 1.31615
3.70626 0.373199 2.4137
5.53668 0.72026 1.47816
5.8229 0.573855 7.80766
2.04685 0.468974 1.44955
2.21963 0.548999 2.01235
6.14626 0.55209 1.96051
7.71766 0.46842 7.4194
5.32888 0.040085 8.65988
3.86551 0.455606 2.38407
3.4875 0.171035 1.13039
7.51063 0.162266 7.21864
5.30767 0.464499 8.07551
5.61809 0.33887 8.38188
5.17034 0.783853 8.50918
2.2641 0.402013 2.59482
6.11749 0.536498 1.94557
7.59717 0.310785 7.58757
5.4207 0.168434 8.87602
2.38947 0.629234 1.81049
2.92422 0.414069 2.98257
7.95347 0.327228 7.6276
4.95454 0.0494975 8.31512
5.02655 0.782968 8.4108
5.65874 0.181627 8.27241
2.51826 0.510036 2.21155
2.175 0.434218 1.73361
2.87564 0.729455 1.24501
5.2602 0.31054 8.46952
2.85507 0.530318 1.67581
6.63999 0.335647 4.50852
5.80251 0.571807 7.91908
2.49218 0.53024 1.81601
2.50315 0.541054 1.77179
6.27734 0.340122 4.49282
5.63868 0.332342 1.92328
2.24221 0.42845 1.70329
2.93736 0.610463 1.18915
5.56336 0.407076 8.5308
2.57183 0.211084 2.06223
6.64397 0.376257 4.52495
4.61292 1.04885 9.66298
2.48783 0.628916 1.87391
2.08917 0.130067 1.52436
9.12003 0.234884 1.72743
5.66588 0.357655 1.91829
POINT_DATA 400
SCALARS particleColor float 3
LOOKUP_TABLE default
0 0.411855 1
0.181073 1 0.818927
0 0.747605 1
0 0.48207 1
0 0.372447 1
0.597128 1 0.402872
0 0.411288 1
0 0.627294 1
0 0.847438 1
0 0.245151 1
0 0.845185 1
0 0.557658 1
0.0537939 1 0.946206
0 0.891401 1
0.354124 1 0.645876
0 0.548419 1
0 0.221751 1
0 0.339303 1
0.152122 1 0.847878
0 0.48525 1
0 0.484467 1
0.534954 1 0.465046
0 0.897448 1
0 0.905278 1
1 5.96046e-08 0
0 0.937843 1
1 0.0815032 0
0 0.687906 1
0.0543055 1 0.945695
0 0.824505 1
0.158299 1 0.841701
0 0.458374 1
0 0.60013 1
0 0.476761 1
0 0.617505 1
0 0.417961 1
0 0.826223 1
0 0.491763 1
0 0.270157 1
0 0.413972 1
0.0197184 1 0.980282
0 0.496051 1
0.354828 1 0.645172
0.753372 1 0.246628
0 0.872456 1
0 0.435058 1
0.254554 1 0.745446
0 0.354603 1
0 0.228396 1
1 0.907374 0
0 0.232675 1
0 0.642592 1
0.165781 1 0.834219
0 0.512253 1
0 0.70126 1
0 0.421649 1
0 0.340071 1
0 0.381145 1
0 0.354057 1
0 0.450925 1
0.540265 1 0.459735
0 0.642631 1
0 0.898509 1
0 0.21673 1
0.0552766 1 0.944723
0.143038 1 0.856962
0 0.131359 1
0 0.883978 1
0 0.611431 1
0 0.26563 1
0 0.257767 1
0 0.537467 1
0.342223 1 0.657776
0 0.29507 1
0 0.801972 1
0.334324 1 0.665676
0 0.199049 1
0 0.63525 1
0 0.841775 1
0 0.93945 1
0 0.196715 1
0 0.516313 1
0 0.778977 1
0 0.485565 1
0 0.658149 1
0 0.707974 1
0 0.696958 1
0 0.94903 1
0.183378 1 0.816622
0 0.388227 1
0 0.775114 1
0 0.52184 1
0 0.662309 1
0 0.537735 1
0 0.574326 1
0 0.985281 1
0 0.858663 1
0 0.65185 1
0.12204 1 0.87796
0 0.469778 1
0 0.453604 1
0.611091 1 0.388909
0.0433813 1 0.956619
0 0.683065 1
0 0.476168 1
0 0.581154 1
0 0.997459 1
0 0.462306 1
0 0.253796 1
0 0.476318 1
0.0808791 1 0.919121
0 0.922315 1
0 0.328526 1
0 0.276961 1
0 0.375981 1
0 0.639297 1
0 0.275729 1
0 0.362765 1
0 0.109958 1
0 0.521224 1
0 0.343065 1
0 0.377377 1
0 0.663743 1
0.289168 1 0.710832
0.492305 1 0.507695
0 0.673519 1
0 0.794167 1
0 0.696281 1
0 0.566154 1
0 0.980916 1
0 0.511939 1
0 0.555725 1
0 0.533268 1
0 0.370799 1
0.91844 1 0.0815605
0 0.647213 1
1 0.933459 0
0 0.685098 1
0 0.693977 1
0.00725506 1 0.992745
0 0.672463 1
0.366642 1 0.633358
0.103204 1 0.896796
0.267591 1 0.732409
0 0.259355 1
0 0.741138 1
0 0.69352 1
0 0.759158 1
0 0.464221 1
0 0.954523 1
0 0.645466 1
0 0.479242 1
0 0.601746 1
0 0.552416 1
0 0.288813 1
0 0.463392 1
0 0.39996 1
0 0.47234 1
0 0.11274 1
0 0.528748 1
0 0.153208 1
0 0.555194 1
0 0.437098 1
0 0.587613 1
0 0.780976 1
0.196709 1 0.803291
0 0.342359 1
0 0.708058 1
0 0.395229 1
0.722318 1 0.277682
0 0.473331 1
0 0.580568 1
0 0.560723 1
0 0.692979 1
0 0.783341 1
0 0.744276 1
0 0.253982 1
0 0.7452 1
0 0.400362 1
0 0.814583 1
0 0.378208 1
0 0.704523 1
0.00472927 1 0.995271
0 0.303877 1
0 0.727194 1
0 0.486989 1
0 0.593796 1
0 0.440851 1
0 0.501757 1
0 0.509116 1
0 0.379202 1
0 0.584432 1
0 0.863961 1
0 0.33131 1
1 0.718856 0
0 0.401807 1
0 0.0417356 1
0 0.41269 1
0 0.741255 1
0.0803327 1 0.919667
0 0.333244 1
0 0.899757 1
0 0.21709 1
0.0102138 1 0.989786
0.0415313 1 0.958469
0 0.520362 1
0 0.520208 1
0.141823 1 0.858177
0 0.52066 1
0 0.369349 1
0 0.517572 1
0 0.550482 1
0 0.965494 1
0.15613 1 0.84387
0 0.515394 1
0 0.374508 1
0 0.52697 1
0.0275605 1 0.97244
0 0.892796 1
0 0.459422 1
0 0.696592 1
1 0.618522 0
0.0832742 1 0.916726
0 0.33318 1
0 0.275093 1
0 0.68779 1
0 0.369367 1
0 0.667786 1
0 0.711419 1
0 0.89019 1
0 0.498622 1
0 0.34758 1
0 0.800802 1
0 0.275184 1
0 0.592012 1
0 0.980634 1
0 0.818927 1
0 0.374218 1
0 0.338592 1
0 0.518964 1
0 0.420813 1
0 0.769504 1
0 0.675735 1
0 0.352173 1
0 0.822811 1
0 0.659014 1
0 0.764895 1
0 0.480453 1
0 0.40653 1
0 0.479986 1
0 0.388122 1
0 0.82607 1
0 0.591062 1
0 0.998041 1
0 0.704778 1
0 0.432959 1
0.298099 1 0.701901
0 0.548489 1
0 0.236242 1
0 0.33652 1
0 0.46605 1
0 0.933672 1
0 0.186982 1
0 0.831813 1
0 0.713679 1
0 0.741196 1
0 0.880852 1
0 0.548041 1
0 0.508086 1
0 0.56375 1
0 0.622553 1
0.143634 1 0.856366
0 0.307487 1
0 0.788867 1
0 0.769414 1
0 0.493888 1
0 0.392414 1
0 0.666967 1
0 0.51365 1
0 0.357027 1
0 0.349422 1
0 0.818251 1
0 0.855168 1
0.214844 1 0.785156
0.643444 1 0.356556
0 0.910512 1
0 0.831635 1
0 0.942607 1
0 0.952618 1
0.0678692 1 0.932131
0 0.399248 1
0 0.641663 1
0.091649 1 0.908351
0 0.307117 1
0 0.273995 1
0 0.956787 1
0 0.617053 1
0 0.342012 1
0 0.861381 1
0 0.978973 1
0 0.705086 1
0.237068 1 0.762932
0 0.90767 1
0 0.611313 1
0.128932 1 0.871068
0 0.777049 1
0.206356 1 0.793644
0 0.539133 1
0 0.939478 1
0 0.98712 1
0.124551 1 0.875449
0 0.568862 1
0 0.795205 1
0 0.421551 1
0 0.891639 1
0.197779 1 0.802221
0 0.782068 1
0.451894 1 0.548106
0 0.565781 1
0 0.697667 1
0 0.854027 1
0.322917 1 0.677083
0 0.828378 1
0 0.761331 1
0 0.772011 1
0 0.763486 1
0 0.867863 1
0 0.804492 1
0.264937 1 0.735063
0 0.372584 1
0 0.480565 1
0 0.363628 1
0 0.707054 1
0 0.694738 1
0 0.342681 1
0 0.531097 1
0 0.956967 1
0 0.967658 1
0 0.577436 1
0 0.819289 1
0 0.903663 1
0 0.561698 1
0 0.893064 1
0 0.819935 1
0 0.780938 1
0 0.78023 1
0 0.127888 1
0 0.464718 1
0 0.551217 1
0 0.537954 1
0 0.726098 1
0 0.918134 1
0 0.851577 1
0 0.426906 1
0 0.204405 1
0 0.398742 1
0 0.754618 1
0 0.665217 1
0 0.847431 1
0 0.911523 1
0 0.656179 1
0 0.559928 1
0 0.8717 1
0 0.569223 1
0 0.62612 1
0 0.898863 1
0 0.182174 1
0.296484 1 0.703516
0 0.599584 1
0.0494892 1 0.950511
0 0.745521 1
0 0.626981 1
0 0.381784 1
0 0.962038 1
0.0297982 1 0.970202
0 0.712178 1
0 0.285729 1
0 0.656077 1
0 0.0360871 1
0 0.721892 1
0 0.863393 1
0 0.348928 1
0 0.216867 1
0 0.306942 1
0 0.457087 1
0 0.211432 1
0 0.702082 1
0 0.735553 1
0.455359 1 0.544641
0 0.715737 1
0 0.876136 1
0 0.487201 1
0 0.276508 1
0 0.45248 1
0 0.654866 1
0 0.574622 1
0 0.777076 1
0 0.879737 1
0.371623 1 0.628377
0 0.787781 1
