# vtk DataFile Version 3.0
Particle simulation
ASCII
DATASET POLYDATA
POINTS 400 float
2.35827 1.97229 5.68858
7.86998 5.86021 2.41855
9.773 8.13563 6.00835
10 9.58746 7.83706
8.40188 9.80685 0.276998
7.31078 6.01051 1.23393
9.40121 0.275735 8.38584
5.92993 4.39093 4.25868
0 3.78413 7.18123
0 6.43661 0.850187
9.59504 3.07244 5.14182
7.18147 6.48203 10
4.80347 5.39715 6.16944
4.53694 3.60348 6.13178
7.92987 8.34679 3.29824
5.77671 2.09431 1.46922
3.36563 8.78324 9.88549
3.70864 0.100286 1.10588
1.12663 6.18043 6.20116
5.75387 5.98753 0.411227
2.80294 0.25561 1.18889
3.14855 1.80328 6.79299
6.71775 5.86119 4.42648
9.11874 4.46988 4.66434
9.50136 7.77785 3.82776
8.46253 6.70909 4.73149
9.40311 7.91564 5.59481
1.56547 2.94151 8.75922
9.41852 2.04796 8.92726
6.47804 9.26748 6.17106
0.51513 3.58691 8.00075
6.68284 7.49756 1.4955
9.75301 2.57687 0
2.49674 0.618784 9.63852
2.30838 6.39642 0.168252
5.27208 4.06666 1.72315
8.34425 8.30934 1.36476
2.94059 0.34266 1.02233
4.14628 2.8165 2.18764
0.282836 4.12814 7.06785
1.33663 8.47786 1.93793
4.59355 8.92033 6.38154
6.67685 10 4.55221
8.10349 2.6287 1.34654
9.48054 0.861119 2.19748
3.71753 7.28855 0.85284
4.75559 4.5637 9.52873
9.97173 2.47718 4.7056
6.35503 0.85041 1.23778
2.65525 3.55454 5.75427
4.19916 0.785176 9.79286
7.85399 7.37288 0.172373
8.50858 3.90362 8.46207
6.08483 4.57828 1.18096
0.452202 7.9379 0.538729
5.67756 0.562119 1.91079
4.69865 2.9761 6.10507
8.73676 0.224164 1.63064
9.3903 3.65923 4.72077
4.73832 9.90038 3.86627
0.857664 4.59395 9.54683
4.08131 9.85467 4.61096
4.11366 8.40707 0.0392704
6.56433 7.69848 2.40173
6.87268 6.0869 4.5614
4.06778 0.869351 2.22097
6.58613 0.683549 4.03816
4.78484 1.67929 0.488212
2.00317 0.219346 6.18196
9.52078 9.31369 0.909278
0.447098 3.28994 0
7.89649 3.62962 1.3002
8.77001 6.59577 8.55588
2.76161 1.21266 2.70043
8.19244 8.37805 9.83683
0.198715 3.06625 8.13858
3.28438 4.0583 2.3035
0.810966 6.75426 4.53532
2.66482 7.27991 3.22895
6.5026 8.03706 4.3448
3.46146 0.493921 1.09614
8.92966 8.80567 7.07035
8.80885 0.390906 8.02132
8.50567 0.122769 8.9516
9.14381 4.09353 5.94195
0.247485 8.34379 9.0913
5.45156 6.73759 9.40513
2.65333 0.491653 7.03378
9.16543 4.09377 8.46265
1.42576 6.56486 4.66009
3.10264 0.231784 1.35438
7.02997 6.4848 3.03102
9.81328 3.94685 5.97557
2.85318 0.463319 9.80989
7.62629 5.25558 3.03644
9.6182 9.00543 7.56009
5.51947 6.74878 5.22429
9.50407 8.19975 0.791493
4.1117 3.71483 9.73132
6.07706 5.85065 7.43213
2.66677 0.527474 0.456221
7.69731 2.58258 9.4179
3.82084 2.82371 1.75757
0.559845 6.56225 2.28269
8.3239 7.22535 9.62196
1.0116 3.79537 8.80217
0.303282 5.71708 0.636656
8.5537 0.732289 3.27042
9.32456 1.90991 5.5732
4.45543 0.936574 9.51275
0.525567 1.83346 6.70583
0.0870205 1.56514 9.80429
6.01201 0 8.37578
2.09893 2.83228 1.31524
2.67202 0.681213 2.07521
8.2442 6.28024 8.45236
3.00921 0.458951 9.59262
7.892 3.45237 3.81861
9.22054 2.2461 8.94693
5.41461 5.82903 7.03538
2.79314 0.60807 0.335275
5.46075 0.895329 10
4.24714 9.77494 7.01188
8.01338 2.19924 9.77476
8.00899 3.06342 1.59034
3.24922 0.572418 1.14079
0.715131 7.97249 0.255545
1.47599 1.83354 8.39423
10 2.49878 6.97068
1.48392 4.60694 3.9703
3.487 6.88871 8.08996
0.500832 3.67364 9.32217
2.79415 4.79174 8.57889
9.73516 3.15651 0.498359
0.3006 0.472475 4.92879
1.67925 0.588799 9.20156
3.67594 1.40952 9.12762
4.82266 0.649149 7.60232
1.67984 3.27281 0
2.3632 3.09243 1.63568
3.45013 0.307499 1.31979
3.26944 5.28875 5.33424
5.13145 2.46916 0.669457
6.26587 5.76983 9.76553
2.53648 0.775634 2.03368
2.93861 3.20605 8.00027
4.57941 0.638034 3.68185
5.99987 2.42947 0
5.50581 2.48466 2.24772
6.59674 1.07434 3.21878
3.17672 0.344396 1.27587
1.28581 1.94723 9.49043
1.52451 2.56639 9.72968
2.84515 0.591162 1.41188
8.52487 8.52673 7.31877
5.9822 0.228327 1.91717
3.93249 7.39205 6.49723
3.55121 9.2659 8.30863
8.04923 7.1114 9.93478
0.578752 1.79235 1.01711
3.85525 0.61206 2.94563
8.13509 3.63556 9.54385
2.25926 3.43137 9.54188
1.03733 2.31066 7.57258
8.29296 2.52686 1.73402
8.90005 4.4376 7.42985
8.93628 6.13598 9.36616
2.6566 6.33136 5.41256
9.00552 7.635 1.32649
7.29395 1.15557 2.6803
2.99569 0.505072 0.776439
3.85297 7.5139 4.47178
4.35363 0.331324 4.21997
7.39881 0.438559 3.45743
2.7066 0.906257 4.95176
5.93297 10 0.748251
0.142043 0.37017 8.73792
7.101 0.279906 3.70093
2.54302 2.5014 1.32805
7.98279 3.29865 1.89218
3.66783 0.112025 1.28921
7.22467 6.34131 0.168241
8.58439 6.22004 9.34418
5.91396 9.44435 4.70199
6.16226 9.88265 1.02485
6.86988 2.22273 3.36672
3.3937 0.360725 1.11959
1.4771 2.06784 8.04562
5.64826 0.410022 1.94773
2.42003 0.650032 1.80851
3.3504 0.112892 1.43908
3.61268 0.104009 0.455214
6.59613 7.60005 4.80668
3.94124 0.48873 6.46348
4.08841 10 4.79233
3.31353 0.0955588 1.46296
0.68421 1.30497 0.944128
3.07736 0.532591 9.29745
3.41576 0.19747 0.550882
3.44599 0.291498 1.6257
3.55992 0 0.895081
7.5333 0.931268 1.10255
3.35044 4.6356 8.07994
5.38744 0.853267 5.43865
4.4245 3.1975 4.63321
0.873549 1.76946 8.12977
3.50227 0.426425 0.595188
1.00638 0.178489 4.94455
8.06029 0.803348 5.5954
2.55441 2.73555 9.64671
3.42766 0.213542 1.28714
3.8457 0.230176 1.26981
1.02003 7.39705 9.87566
6.38001 2.44639 8.75746
5.65055 3.32505 9.08909
3.06128 0.00928118 8.79583
2.93447 0.0600553 0.792869
2.7419 0.549962 0.720846
2.92263 5.1056 10
2.68767 0.544556 0.585323
0.576184 6.44955 0
1.49012 7.33938 8.44552
3.99135 2.19449 5.54654
3.06423 0.122575 0.185515
6.7488 7.91556 3.90979
1.41037 1.44992 3.71119
3.17149 5.42942 9.96374
2.95585 0.379848 0.608842
3.60849 0.222969 1.14387
9.68241 9.0987 4.60937
0 3.99473 7.62881
7.75514 1.17887 9.08324
0.552405 0.0557689 0.999307
3.34572 0.21213 1.17303
3.31062 0.437857 9.265
2.98556 4.54355 9.89615
8.59532 4.12793 7.88039
0.262688 3.142 4.61049
2.95009 0.784206 1.42398
4.87126 9.62209 7.74517
3.5858 0.112212 1.12063
3.24295 0.166956 1.10664
3.27481 0.275389 0.937169
2.98766 0.35292 0.899679
4.60841 0.204887 8.18964
3.94757 0.402313 8.82618
3.00966 1.08469 5.14875
1.64486 1.38768 2.34504
8.45998 0.825766 8.68301
1.67639 1.16763 4.31362
3.85322 0.287428 1.2365
6.30354 8.33304 1.78512
3.37355 0.36627 8.18914
3.39258 0.826747 9.37607
7.09197 0.550124 0.521267
3.46298 0.297679 1.89408
9.25708 2.61795 1.60419
3.29584 0.35844 9.1796
0.524757 6.29961 9.74059
3.25123 0.282843 9.13691
3.19073 0.464934 1.24251
0.247121 3.18647 1.53975
5.5615 0.823219 5.46669
7.21131 3.38735 1.6028
3.45391 0.700443 9.13275
7.68869 7.69605 8.18166
7.61817 0.22993 0.208893
3.4842 0.292723 9.26193
3.1613 3.77443 6.12569
2.85315 0.412063 1.08194
3.77052 0.346886 1.12259
6.79304 7.22223 4.51291
5.05562 5.39266 0.850286
3.97221 6.97292 2.11021
6.37802 2.8083 3.35244
4.25328 2.02654 6.03296
6.84065 5.71483 0.1718
9.33096 7.48571 6.78119
0.988938 7.78421 4.56696
3.32272 0.45796 1.23446
4.49517 0.637288 3.71581
7.07814 0.718583 0.356316
9.93016 2.56234 4.45201
8.63077 1.85875 5.05579
9.6825 9.34441 3.95646
8.0557 6.58237 5.13718
3.71496 0.538117 1.25988
3.54205 0.559595 7.52617
2.68709 7.44135 10
5.37635 1.47255 0.0977722
0.977276 8.00939 1.33756
8.10117 2.03824 1.12627
3.00852 0 1.31144
0.841826 0.232694 6.4832
4.17588 0.0579678 8.2072
3.60531 0.51703 8.70526
3.50115 0.278211 1.26845
3.71732 0.167283 0.879084
5.22779 4.23648 4.62685
2.94509 0.262283 1.54211
9.46977 0.740002 8.46149
5.28538 0.578546 5.5353
9.30183 3.21481 9.71967
6.7633 1.62635 0.823395
3.66496 0.374763 1.19325
0.912411 0.865278 6.3566
3.32431 0.208866 0.321905
3.19125 0.375335 1.3208
1.52382 1.16758 2.16622
6.70471 5.83224 0.299225
3.26227 1.36329 9.64339
0.924896 1.41972 1.94905
3.26959 3.56249 5.90001
3.04502 0.477126 1.33845
8.22755 0.764933 8.8381
2.41263 0.230685 5.57749
1.55822 2.63051 6.76305
0.415974 5.926 9.93171
9.05208 1.90154 5.1606
4.57422 4.96197 0.543113
3.00593 0.0991366 9.23733
0 1.78964 1.7868
3.51543 0.341652 8.32976
3.8856 0.423897 1.17849
4.36234 0.661122 3.60018
3.64639 8.51575 0.194005
3.24934 0 0.494878
5.3737 5.2711 8.35935
8.89206 9.79465 8.95103
3.30059 0.390765 1.28252
9.77632 2.60632 7.76426
2.85337 0.229034 0.96266
4.24227 0.601533 9.32108
3.35243 0.397559 0.931278
6.67958 0.825394 0.460276
5.12652 6.2221 4.22554
0.536956 6.12491 9.78963
3.3477 0.376298 1.21676
9.5938 6.11636 3.28791
7.03838 1.03714 9.66433
0.276087 1.56382 10
8.16889 3.33059 9.6346
4.1414 0.683968 9.38404
3.28196 0.232635 9.09437
3.71432 0.264089 1.06901
3.37129 0.423898 1.38087
7.44629 0.461159 0.269517
3.2008 0.452716 1.16736
3.61607 0.599572 0.708894
8.17939 6.84879 9.99557
2.92434 0.688518 0.648423
3.04237 0.399039 1.25188
4.76585 0.316039 2.76883
3.31212 0.299722 8.99096
3.22968 0.585934 0.690554
3.42339 0.436539 0.871702
4.08018 0.81022 3.18395
4.10485 0.512281 8.85652
2.71589 0.418473 1.65073
3.37996 0.375175 1.58573
7.02373 0.644933 0.493852
3.09195 0.346065 9.17273
3.41342 0.566309 9.2211
3.31857 0.11002 0.981141
2.95531 0.128696 0.968254
6.90972 1.01864 0.642082
3.33911 0.478454 9.2575
1.7579 2.66025 7.15694
3.65259 0.517285 9.3811
4.3402 3.37789 1.26725
6.96925 0.69026 0.396523
2.89218 5.34113 3.71472
4.14354 0.48663 9.17702
3.0545 0.547299 1.4452
3.98977 0.0487195 0.898648
7.29828 0.869797 0.799396
3.26071 0.332538 8.33235
3.56292 0.620733 8.83651
4.17158 0.685746 9.30061
3.35647 0.0856673 1.04209
3.60658 0.39326 1.48964
3.04633 0.25668 1.54126
4.2475 0.663235 9.28784
2.76637 0.150866 1.19463
0.87823 1.03398 6.44205
3.63206 0.469879 9.26946
3.39677 0.204526 1.28019
3.25017 0.386887 1.26217
4.14591 9.1174 4.73419
6.77852 1.13062 0.479504
3.57555 0.198983 1.40187
3.57451 0.20792 1.41224
3.88229 0.349169 9.38479
3.46002 0.432417 1.52968
0.612336 0.139799 6.40726
3.38986 0.238782 9.54813
3.40587 0.178265 1.24854
2.50812 0.81499 5.22102
6.87954 0.885785 0.518863
6.93772 0.871264 0.32369
POINT_DATA 400
SCALARS particleColor float 3
LOOKUP_TABLE default
0 0.722572 1
1 0.904178 0
0 0.818514 1
1 5.96046e-08 0
1 5.96046e-08 0
0.927002 1 0.0729978
1 0.18758 0
0.399123 1 0.600877
1 0.603239 0
1 5.96046e-08 0
1 5.96046e-08 0
1 0.742703 0
0.756115 1 0.243885
1 0.171612 0
1 5.96046e-08 0
1 0.76227 0
1 0.197442 0
0 0.594311 1
1 0.246572 0
1 5.96046e-08 0
0 0.301609 1
0 0.86202 1
1 0.374075 0
0.571621 1 0.428379
1 0.273486 0
1 5.96046e-08 0
0 0.533616 1
1 5.96046e-08 0
0 0.515192 1
1 0.641167 0
0.962905 1 0.037095
0.892702 1 0.107298
1 5.96046e-08 0
1 0.779883 0
0.724547 1 0.275453
1 5.96046e-08 0
0.46073 1 0.53927
0 0.420288 1
0.484748 1 0.515252
1 0.184065 0
1 5.96046e-08 0
0.777376 1 0.222624
1 0.128573 0
0.255795 1 0.744205
0.370007 1 0.629993
1 5.96046e-08 0
0 0.988482 1
1 0.317612 0
0 0.135704 1
1 0.00755918 0
0.898631 1 0.101369
0.523551 1 0.476449
0 0.70414 1
1 0.992949 0
1 0.306706 0
0 0.689154 1
1 0.776607 0
0.376127 1 0.623873
0.273992 1 0.726008
0.0628833 1 0.937117
0.920531 1 0.0794691
1 5.96046e-08 0
1 0.566689 0
1 0.0816613 0
0.520227 1 0.479773
1 5.96046e-08 0
0.299918 1 0.700082
1 5.96046e-08 0
0.355416 1 0.644584
0 0.716248 1
1 0.641754 0
0.849697 1 0.150303
1 0.791284 0
0.157987 1 0.842013
0 0.784276 1
0.770745 1 0.229255
0 0.938852 1
0.162449 1 0.837551
0 0.576339 1
0 0.993071 1
0 0.236111 1
0 0.751291 1
1 0.720165 0
1 5.96046e-08 0
0.319935 1 0.680065
0 0.77825 1
0.814163 1 0.185837
1 5.96046e-08 0
0.0679653 1 0.932035
0 0.513319 1
0 0.38737 1
0.0202508 1 0.979749
0.77032 1 0.22968
0.0329409 1 0.967059
1 0.701696 0
0.610501 1 0.389499
1 5.96046e-08 0
0.308901 1 0.691099
0.232534 1 0.767466
1 0.687782 0
0 0.615797 1
0.0646064 1 0.935394
0 0.792875 1
0.998221 1 0.00177932
0 0.582622 1
0.101416 1 0.898584
0 0.830557 1
0 0.733189 1
0.667443 1 0.332557
1 0.248126 0
1 5.96046e-08 0
0.306966 1 0.693034
1 0.833024 0
0.3863 1 0.6137
0 0.470147 1
1 5.96046e-08 0
0 0.31478 1
0.837717 1 0.162283
0.973311 1 0.0266892
1 0.81983 0
0 0.482395 1
1 5.96046e-08 0
0.364573 1 0.635427
0 0.346833 1
1 0.335035 0
0 0.479818 1
1 0.0430267 0
0 0.875676 1
0.258354 1 0.741646
0.0282144 1 0.971786
0.377527 1 0.622473
1 0.935485 0
1 0.82252 0
0.0930325 1 0.906968
0 0.467103 1
1 5.96046e-08 0
1 5.96046e-08 0
0 0.566345 1
1 5.96046e-08 0
0.579106 1 0.420894
0 0.814936 1
1 5.96046e-08 0
0.237098 1 0.762902
1 5.96046e-08 0
0 0.565217 1
1 0.911274 0
0 0.735545 1
0.807953 1 0.192047
0.626733 1 0.373267
0.182533 1 0.817467
0 0.545197 1
0 0.294808 1
0 0.909784 1
0 0.517865 1
1 5.96046e-08 0
0 0.321908 1
1 0.950881 0
1 0.0858307 0
0 0.764872 1
1 5.96046e-08 0
0 0.683216 1
0 0.958631 1
0.551248 1 0.448752
0.455198 1 0.544802
0.666236 1 0.333764
1 5.96046e-08 0
0 0.804969 1
1 5.96046e-08 0
1 5.96046e-08 0
1 5.96046e-08 0
0 0.43894 1
0.371905 1 0.628095
1 0.696501 0
1 5.96046e-08 0
0 0.293085 1
1 0.981996 0
0 0.725352 1
1 0.286247 0
0.407272 1 0.592728
0.184522 1 0.815478
0 0.333287 1
0.457314 1 0.542686
1 0.877581 0
1 5.96046e-08 0
0.12185 1 0.87815
1 0.989681 0
0 0.925182 1
1 0.866558 0
0.0606282 1 0.939372
0 0.712952 1
0 0.356889 1
0 0.139615 1
0.285777 1 0.714223
1 5.96046e-08 0
0.912093 1 0.0879069
0 0.612164 1
0.314171 1 0.685829
0 0.855966 1
0 0.406495 1
0 0.466224 1
0 0.31231 1
0 0.916174 1
0 0.506722 1
0 0.720838 1
1 5.96046e-08 0
0 0.562342 1
0 0.487966 1
1 0.499811 0
0.583678 1 0.416322
0.186812 1 0.813188
0 0.702615 1
0 0.809832 1
1 5.96046e-08 0
0.409987 1 0.590013
1 0.15105 0
0 0.599248 1
0 0.452261 1
0 0.420006 1
1 0.439814 0
0.00898414 1 0.991016
1 5.96046e-08 0
1 0.87862 0
0 0.346376 1
0 0.38854 1
1 0.271358 0
1 5.96046e-08 0
1 0.975872 0
0 0.746875 1
0 0.800953 1
1 5.96046e-08 0
1 0.271557 0
0.974586 1 0.0254138
0 0.486122 1
0 0.907069 1
0 0.444332 1
1 0.51439 0
0.605297 1 0.394703
0 0.4537 1
0 0.41889 1
1 5.96046e-08 0
0 0.270233 1
0.178765 1 0.821235
0 0.309911 1
0 0.535794 1
0 0.392464 1
1 5.96046e-08 0
0.0389805 1 0.961019
0 0.466401 1
1 5.96046e-08 0
0 0.907817 1
0 0.888972 1
0 0.705471 1
0 0.826901 1
1 0.938179 0
0 0.610574 1
0 0.371223 1
0.119713 1 0.880287
0 0.801147 1
0 0.778563 1
0 0.468034 1
0 0.572708 1
1 0.915148 0
0.0405754 1 0.959425
1 0.849208 0
0 0.402328 1
0 0.753268 1
0 0.782093 1
0 0.711719 1
0.732446 1 0.267554
0 0.413077 1
0 0.700348 1
0 0.479712 1
1 5.96046e-08 0
0 0.7672 1
0 0.798447 1
0 0.454806 1
0.229804 1 0.770196
1 0.255792 0
1 5.96046e-08 0
0 0.529356 1
0 0.871568 1
0 0.379629 1
0.350375 1 0.649625
0.152963 1 0.847037
0.16715 1 0.83285
1 5.96046e-08 0
0 0.139732 1
0.0203478 1 0.979652
1 5.96046e-08 0
0.364189 1 0.635811
1 5.96046e-08 0
0.281505 1 0.718495
0.30603 1 0.69397
0 0.925744 1
0 0.457568 1
0 0.717889 1
0 0.763353 1
0 0.601472 1
1 0.834954 0
0 0.434442 1
1 5.96046e-08 0
0.36205 1 0.63795
0.112341 1 0.887659
1 0.999851 0
0 0.633806 1
0 0.65523 1
0 0.596728 1
0 0.732588 1
0.556299 1 0.443701
0 0.732926 1
0.698346 1 0.301654
0 0.909496 1
0 0.881082 1
0 0.489657 1
0 0.458651 1
0 0.537159 1
0.558865 1 0.441135
0.37111 1 0.62889
0.0118463 1 0.988154
0 0.856684 1
0 0.46716 1
0.0951368 1 0.904863
0 0.392544 1
0 0.849331 1
0.0473485 1 0.952652
0.458816 1 0.541184
0 0.275012 1
1 5.96046e-08 0
0.600377 1 0.399623
0 0.837565 1
0.491017 1 0.508983
0 0.711059 1
0 0.767808 1
0.0633877 1 0.936612
0 0.528024 1
1 0.616602 0
0.12529 1 0.874709
0 0.45738 1
1 0.29791 0
0 0.896385 1
0.572789 1 0.427211
0 0.886333 1
0 0.733131 1
0 0.384874 1
0 0.15566 1
0 0.964823 1
0 0.553775 1
0 0.550614 1
0 0.530488 1
0.68243 1 0.31757
0 0.739089 1
0 0.583863 1
1 5.96046e-08 0
0 0.64276 1
0 0.484552 1
0 0.593613 1
0 0.469341 1
0 0.661787 1
0 0.791427 1
0 0.646529 1
0 0.612353 1
0 0.348078 1
0 0.366631 1
0.00268916 1 0.997311
0 0.617083 1
0.0653199 1 0.93468
0 0.702685 1
0.917615 1 0.0823846
0.0370023 1 0.962998
1 5.96046e-08 0
0 0.40034 1
1 0.286186 0
0 0.969562 1
0 0.893365 1
0 0.428346 1
0 0.666768 1
0 0.713636 1
0 0.907592 1
0 0.510057 1
0 0.918826 1
0 0.745553 1
0 0.643569 1
0 0.356564 1
0 0.682091 1
0 0.206016 1
0 0.495315 1
0 0.765793 1
0 0.203691 1
1 0.588211 0
0 0.589205 1
0 0.857686 1
0 0.433555 1
0 0.320168 1
0 0.712086 1
0 0.960147 1
0 0.284108 1
0 0.574915 1
0 0.707347 1
0.13068 1 0.86932
0 0.782337 1
