# vtk DataFile Version 3.0
Particle simulation
ASCII
DATASET POLYDATA
POINTS 400 float
0.626868 1.79226 8.56043
6.3125 1.28043 4.88379
3.75219 0.956023 1.3294
1.68602 9.87959 9.92437
0.608653 3.20132 2.62694
2.26411 4.15558 5.32875
5.20416 6.89849 2.45674
8.19831 8.36428 0.331466
5.15257 2.9599 0.707905
5.1321 0.234651 4.13084
9.5971 2.42521 6.40435
3.79532 2.78384 5.7244
9.59461 4.91999 1.67458
3.40147 4.56615 8.20978
6.25193 3.52343 8.76394
4.66686 0.718169 2.41968
7.13754 0.497617 6.54604
3.3713 0.403095 1.10222
5.88759 1.68825 8.24864
9.90362 0.38233 7.07635
3.24811 0.625816 1.00425
5.74357 5.75148 6.84986
9.20756 3.21003 4.45559
2.73702 1.54398 6.78594
7.25675 3.72928 5.82419
0.957847 1.36564 6.47095
0.101616 4.84823 4.45344
3.42809 0.611764 0.0182866
0.0814141 8.67024 2.92269
0.312458 9.87367 9.90594
1.21023 1.80151 1.23973
1.2571 6.12557 9.6167
6.776 9.60278 4.52371
7.35018 1.39274 5.14292
5.90676 1.84264 0.0498591
3.45301 8.13845 0.658571
2.79415 1.86673 2.66224
3.08026 0.428912 1.06145
9.67628 2.08756 4.37823
2.80587 2.89277 2.05115
5.02997 6.92947 3.02223
3.94365 0.978821 5.99559
0 7.8549 6.96504
3.3182 10 7.07031
8.48927 0.296395 2.53181
5.30288 1.0751 1.19809
7.0511 4.7449 9.17368
7.20432 0.25292 6.94272
5.6357 0.334546 1.09517
0 4.5086 6.73878
2.77472 8.09824 6.85641
1.26019 2.61633 9.05374
9.10867 2.65398 0.394667
1.23939 9.91464 5.90441
3.6894 1.4418 5.15258
5.651 0.399533 1.23495
7.90668 9.34914 7.61876
4.17323 0.709923 0.57059
3.97911 3.14493 4.06505
9.72348 1.03343 6.60958
0.702529 4.76752 8.3013
8.16955 1.03309 1.89845
3.94187 8.25541 1.5348
0.625263 0.77797 8.58241
2.36027 9.1364 8.35337
1.79718 1.20582 9.18924
0.795261 3.03619 9.74123
3.84737 3.28313 7.27154
8.0084 5.08145 7.41764
4.71275 3.95926 4.36558
5.33914 0.895827 9.91132
4.88208 1.79839 2.21918
7.6504 8.48221 4.10694
0.536577 2.37875 4.88862
4.64022 8.97897 8.13704
6.22051 7.71091 1.61555
2.64818 1.68786 5.27816
6.25057 3.85639 8.63038
5.68321 0.321588 2.94211
6.52946 6.16878 6.94279
2.98881 0.701909 0.863181
6.97438 0.93515 6.81979
2.89268 2.24942 5.29169
2.7039 0.388907 0.386174
5.00204 0.0965105 8.75714
0.331655 1.30119 9.05035
8.78362 8.13165 7.79838
3.21418 0.323528 4.05981
0.889137 2.53193 5.51971
7.13979 1.64821 1.00595
3.85013 0.154497 1.51136
7.51409 1.46027 1.20911
0.231067 4.09387 7.36841
2.66516 0.445216 6.34967
0.266172 0.463323 8.71666
4.31304 8.52885 0.609964
8.89796 3.776 4.02854
5.27944 0.47329 9.03251
7.06833 0.599127 9.457
8.06017 1.13872 0.419007
3.14563 0.478511 0.884537
1.89985 0.566494 0.57254
2.15885 1.14468 10
3.42698 4.01543 5.21585
7.44949 0 9.1837
1.46305 4.23642 1.74324
2.99877 1.81257 8.64246
5.79299 0.494901 0.747696
0 0.468366 4.26207
1.8364 0.889392 1.59755
4.23547 2.47023 2.96918
0.902296 3.0699 8.58803
7.21742 2.54622 4.28289
5.16977 0.545422 1.17862
3.28852 0.520326 0.903479
1.02085 1.02845 5.80224
4.7438 0.0575817 8.43871
8.15627 5.13933 4.11856
8.12 3.62226 5.46686
4.07517 6.57328 3.36186
3.44707 0.222138 1.3864
9.85883 0.431008 4.38713
5.59931 1.70599 8.02819
7.74818 3.53464 5.75008
1.38001 6.81033 4.4568
2.78693 0.265118 0.312562
1.49259 2.49141 5.22337
0.648566 0.651492 8.37212
0.289183 1.52246 6.24276
0.74938 7.39537 3.64535
5.10929 0.477813 0
6.21754 3.22931 8.35969
4.9085 3.74981 0.157921
7.22359 0.212093 2.52579
4.21522 0.141862 6.90975
1.7208 0.963519 3.61523
1.98989 3.10823 0.697467
0.332342 1.25242 8.64572
3.10653 6.64385 6.18245
4.62465 0.706626 8.50303
3.02595 0.609812 0.237167
7.38435 9.3753 2.30551
0.747818 8.67088 9.85764
7.21613 2.50063 6.39999
3.20882 0.386979 0.845813
7.68173 2.23569 6.57243
8.32264 0.459709 2.63242
2.91609 9.43797 1.12217
4.96206 1.83682 2.21961
6.26273 1.8544 6.20316
3.05697 0.608142 0.267369
4.80045 1.9254 5.82768
0.631382 0.0936118 8.86006
2.53722 1.13634 2.28523
3.96916 5.45767 8.08939
6.13365 0.135358 0.870524
7.2333 0.900595 0.440438
5.14327 0.189412 1.34529
0.834563 1.53935 9.12764
4.59756 3.15823 3.32143
5.32429 2.76188 0.701331
5.68541 0.923578 6.15317
5.65354 1.91202 8.02663
3.30687 4.1589 0.797837
5.85541 0.728557 6.87072
9.86848 5.67893 9.99376
5.90396 0.612172 2.79878
7.79797 0.357723 9.33535
9.51153 4.19842 4.68155
0.685351 0.287949 9.50203
3.24371 0.310962 0.648613
9.78084 4.47557 0.616213
7.5097 4.08676 3.64765
1.32836 4.60257 1.96004
3.05586 0.149809 6.29548
3.64665 7.95193 0.431348
1.29489 0.763328 6.97337
2.61304 1.97232 5.2752
0.770157 0.648306 7.53055
8.50959 7.84429 8.42406
3.20376 0.32089 1.01442
2.63344 9.48207 0.808795
5.44262 0.514104 8.35339
7.92598 1.24287 0.874796
5.04609 0.338709 8.35497
8.86479 1.12743 1.77084
3.0045 0.35897 0.745479
2.77642 6.61041 0.0474153
8.33275 0.507722 3.12706
3.44447 0.171835 0.547849
3.48852 0.329135 0.633946
3.35897 0.496058 0.981696
3.96378 6.78499 6.29521
0.225737 0.865878 0.972251
7.31061 2.64686 7.75453
3.59308 0.091445 0.660042
3.64188 0.688896 5.0614
6.68064 6.86947 9.72215
3.18673 0.601995 0.91829
3.07838 0.190446 0.981341
2.95936 0.436291 0.472082
5.52012 0.347619 0.758543
8.44976 0.584797 3.18535
1.19564 0.574287 6.90785
4.60266 8.19518 1.09698
5.03634 0.494445 8.39149
3.40272 0.0672239 0.856845
5.47802 4.79893 2.75567
2.62513 2.246 0.426229
8.22903 0.976549 0.96216
3.64136 0.289834 0.875036
3.7331 0.171365 0.578769
7.99375 1.72877 2.65387
7.01524 0.651536 6.88666
5.48217 3.49125 9.22937
5.04157 0.359113 8.14318
3.39981 0.795225 0.850271
3.31279 0.543257 0.656213
3.75917 8.92202 5.60367
6.13648 0.58456 1.82498
2.95446 9.55414 4.55091
7.62519 5.32506 6.59174
4.66566 0.352795 8.05203
3.71927 0.140942 0.710402
7.24299 0.952752 7.07894
2.45811 0.474487 0.147824
6.73505 1.95378 1.04871
3.13701 0.451055 1.20762
3.31739 0.777667 0.812162
8.96772 2.65025 0.396664
5.86751 0.998124 5.70812
5.09314 0.478617 7.67206
8.13995 0.703035 2.63338
3.80009 0.320593 0.928912
5.02575 0.48169 8.5898
2.01699 1.20923 3.11678
6.14661 1.71442 8.08953
2.58979 2.0019 5.26096
3.1231 0.151607 1.04736
9.59451 4.47008 7.20447
3.23298 0.473839 1.02824
3.62515 0.519818 0.762163
3.05688 0.691002 0.413533
2.7403 0.0538091 0.833489
4.90486 0.562482 8.3734
1.65212 4.30108 1.61677
1.10507 0.451353 5.0821
2.49968 0.896218 6.67846
1.76886 4.14903 1.32793
8.22358 0.377412 7.63766
3.3958 0.609727 1.07548
0.260664 9.38969 5.35582
4.89629 0.288203 8.82254
4.19102 0.718307 6.20962
8.18434 0.386624 2.96867
3.60166 0.534729 0.895568
5.11898 1.79839 6.3263
4.62199 0.490536 7.9509
4.29199 2.8604 4.54942
4.8838 0.271077 8.63939
3.12375 0.307614 0.449456
9.04948 9.59978 1.67992
1.17206 0.515106 6.93969
6.55651 3.42471 6.15085
4.97913 0.195167 7.74753
0.113557 3.39847 6.52928
5.20181 0.550517 0.631132
5.04347 0.688967 8.80735
8.48588 0.497753 2.95148
2.96601 0.670903 0.101599
2.91549 0.146017 1.24289
7.18927 0.0506454 0.330418
3.35631 1.7623 1.18887
3.14522 1.44799 5.20945
6.22019 2.33318 8.47342
5.43579 0.174975 7.91422
2.01494 1.84067 5.32626
8.55514 8.97058 3.15191
2.47521 2.12919 0.736309
3.40732 0.525492 0.707662
5.47908 0.233395 0.465827
6.02914 0.465132 1.12081
8.09605 2.74755 3.54602
1.3856 0.638597 7.0068
9.77259 4.72853 9.9273
8.7722 0.212887 2.27221
2.95494 0.483046 0.984577
7.31868 1.47794 6.41347
6.45931 2.22762 8.54433
3.1775 6.99078 2.37399
8.93948 0.127814 2.17231
6.0705 0.148412 1.5986
3.52582 0.502408 1.0633
0.641409 0.604086 8.6102
4.61687 0.544655 8.09966
4.77403 0.53944 7.90829
3.57745 0.479976 0.828409
3.30986 0.54255 0.890171
7.85256 1.70666 6.26038
3.60506 0.512588 0.709194
0.0777529 0.861642 0.758498
2.60885 0.666751 7.1444
3.74215 0.495221 5.14831
1.83915 1.12516 9.78229
3.29908 0.226386 1.18796
0.348595 0.667231 8.52094
3.56894 0.474722 1.37648
3.46594 0.27407 0.747394
1.07473 0 8.80734
2.79303 1.3804 5.57221
5.03151 0.382405 8.68228
4.82011 1.92731 5.47119
8.41075 0.348333 3.07513
3.44004 0.746224 0.452141
7.42324 1.9785 6.49675
0.828044 0.563422 8.44655
8.06018 1.25394 1.79493
4.38252 2.503 4.66896
5.56088 2.14605 6.56542
4.94359 2.10212 2.11902
4.75336 0.150919 8.01945
0.928305 0.355783 5.30154
4.69236 0.0616346 8.20494
4.09757 0.0767193 0.722274
5.7432 0.298198 0.612511
7.99399 1.03195 0.599478
3.00943 0.390601 0.504397
6.45215 0.178569 0.756826
0.350238 3.85126 1.85132
3.22911 0.147359 0.392713
9.29588 1.20846 4.9271
3.1562 0.392035 0.858235
5.04981 0.283589 8.07153
3.86441 0.555106 0.948621
5.77989 0.580864 0.868749
7.26638 4.82886 6.36933
4.27774 2.98758 4.80077
3.66516 0.15789 0.692383
9.34416 0.978035 7.4482
2.86488 0.155853 6.39208
5.00891 0.102116 8.06178
2.87798 0.218507 6.13788
5.19511 0.503736 8.12553
4.8191 0.35856 8.52239
2.964 0.157035 0.780079
3.24568 0.382272 0.749747
6.0629 0.247444 0.829418
3.60619 0.229639 0.645028
3.05849 0.425289 1.4972
2.90905 0.316652 6.28795
2.97636 0.584428 0.794066
3.50487 0.630281 0.720968
5.76697 1.65848 8.40396
4.84584 0.272054 8.23172
2.90023 0.0678696 0.511877
3.01285 0.173182 0.951129
5.27241 0.57412 0.776541
5.23013 0.528493 7.97286
2.89976 0.32213 0.741404
3.32123 0.358825 0.754778
5.93337 0.441808 1.29007
4.44599 0.203607 8.52034
4.43127 0.117655 8.11271
3.14795 0.477286 0.927976
2.86818 0.543521 0.842388
8.55769 0.478382 3.21024
4.69317 0.246048 7.78604
7.15259 0.602171 7.23686
4.74559 0.320645 7.87252
7.69954 1.10256 0.472889
5.85979 0.441663 1.3529
4.793 1.97516 5.65938
4.89418 0.448038 8.25213
3.37535 0.778304 0.25638
2.91734 0.317915 0.905684
8.19685 0.433063 2.71035
4.66222 0.321227 8.47529
4.90001 0.264613 7.72418
4.30294 0.327628 8.49352
3.17036 0.433552 0.722218
3.19971 0.169639 0.336927
3.20733 0.359948 0.994053
4.26407 0.0569958 8.37092
3.24834 0.53719 1.20384
0.633849 0.614959 8.44622
4.92365 0.289144 8.22442
3.56354 0.342469 0.570559
3.45555 0.631016 0.985203
3.29643 4.83948 9.86811
5.7488 0.079428 1.04897
3.09668 0.452827 0.506086
3.2109 0.403365 0.957951
4.84321 0.288253 8.52389
3.16804 0.455505 0.641168
0.778864 0.376753 8.51268
4.69059 0.336761 8.17268
3.59985 0.325999 0.554853
3.30695 0.156647 6.2783
6.24216 0.251399 0.918159
5.7631 0.0869151 1.01811
POINT_DATA 400
SCALARS particleColor float 3
LOOKUP_TABLE default
0 0.373518 1
0.46276 1 0.53724
1 0.908525 0
1 0.436772 0
0.412846 1 0.587154
1 5.96046e-08 0
1 5.96046e-08 0
0.0109271 1 0.989073
0.558595 1 0.441405
1 0.607928 0
0.408956 1 0.591044
0.791489 1 0.208511
1 5.96046e-08 0
1 0.705273 0
0.881092 1 0.118908
0.43013 1 0.56987
1 0.937943 0
0 0.373776 1
0.566011 1 0.433989
0.44938 1 0.55062
0 0.159866 1
0.766468 1 0.233532
1 0.644889 0
1 0.341912 0
0.810339 1 0.189661
0 0.948467 1
1 0.941921 0
0.528717 1 0.471283
0 0.758894 1
0.695231 1 0.304769
0 0.147281 1
0.150224 1 0.849776
1 0.470717 0
0 0.5682 1
1 0.905534 0
1 5.96046e-08 0
1 5.96046e-08 0
0 0.651941 1
0 0.641661 1
1 0.640813 0
1 5.96046e-08 0
0.222948 1 0.777052
0.463797 1 0.536203
1 0.655445 0
0.184277 1 0.815723
0 0.601838 1
0 0.291555 1
0.10145 1 0.89855
0 0.922202 1
1 5.96046e-08 0
0 0.901056 1
1 0.943511 0
0.431872 1 0.568128
1 0.0935357 0
0 0.654532 1
0 0.706982 1
0.621443 1 0.378557
0.425922 1 0.574078
0 0.402979 1
0 0.663319 1
0 0.342493 1
0.0939896 1 0.90601
0.698018 1 0.301982
0 0.366848 1
1 0.654625 0
1 5.96046e-08 0
0 0.557791 1
0.68539 1 0.31461
0.376434 1 0.623566
0.0728257 1 0.927174
0.560994 1 0.439006
0.142302 1 0.857698
0.490919 1 0.509081
1 5.96046e-08 0
0.126494 1 0.873506
1 5.96046e-08 0
0 0.309486 1
0.495284 1 0.504716
0.607182 1 0.392818
0 0.707914 1
0 0.509991 1
0 0.856917 1
0.345555 1 0.654445
0 0.504084 1
0.996858 1 0.0031417
0 0.575841 1
0.408966 1 0.591034
1 5.96046e-08 0
0.542058 1 0.457942
0.40361 1 0.59639
0 0.290925 1
0.733249 1 0.266751
0.711781 1 0.288219
0 0.520723 1
0 0.707683 1
1 5.96046e-08 0
1 0.706853 0
0.110249 1 0.889751
1 0.599255 0
0 0.459578 1
0 0.752143 1
1 5.96046e-08 0
1 0.961373 0
1 0.589121 0
0 0.806774 1
0.0263235 1 0.973677
0.642415 1 0.357585
0 0.694161 1
1 5.96046e-08 0
1 0.920707 0
0.914525 1 0.0854752
0 0.65679 1
0.371659 1 0.628341
0.0666818 1 0.933318
0 0.984148 1
0 0.803634 1
0 0.355882 1
0.745539 1 0.254461
1 0.631771 0
1 0.7828 0
0 0.460043 1
1 0.247603 0
1 0.140678 0
1 0.398223 0
0.426138 1 0.573862
0 0.472194 1
0.482694 1 0.517306
0 0.314398 1
0 0.851017 1
0.150162 1 0.849838
1 5.96046e-08 0
1 0.806013 0
0.127191 1 0.872809
0 0.578083 1
0 0.841645 1
0.0513804 1 0.94862
0.345836 1 0.654164
0 0.616511 1
1 0.51074 0
0 0.309828 1
0 0.317837 1
1 5.96046e-08 0
1 0.660807 0
0 0.948628 1
0 0.918491 1
0 0.581508 1
0 0.648626 1
1 0.0761648 0
0 0.179406 1
1 0.513729 0
0 0.288654 1
0 0.470131 1
0 0.433752 1
0.39209 1 0.60791
0 0.475627 1
0 0.811116 1
0 0.650389 1
0 0.241306 1
1 0.836285 0
0 0.940158 1
0.0624217 1 0.937578
0.557267 1 0.442733
0.329445 1 0.670555
0.603892 1 0.396108
1 0.71171 0
1 0.50093 0
0 0.926353 1
0.200429 1 0.799571
1 0.127199 0
0 0.967328 1
0 0.775068 1
0 0.826329 1
0.421051 1 0.578949
0.141278 1 0.858722
0 0.911243 1
0.61332 1 0.38668
0 0.641838 1
0.0956554 1 0.904345
0 0.304718 1
0 0.572237 1
0 0.693842 1
1 0.379861 0
1 0.349087 0
0 0.8386 1
0 0.871252 1
0 0.953246 1
0 0.834654 1
1 5.96046e-08 0
0 0.678265 1
0 0.361154 1
0 0.484596 1
0 0.628295 1
0.208247 1 0.791753
0.221392 1 0.778608
1 0.46949 0
0 0.294136 1
0 0.885638 1
1 0.810488 0
0 0.297745 1
0 0.774443 1
0 0.49814 1
0 0.8566 1
0 0.722359 1
0 0.32177 1
1 0.311818 0
0 0.546213 1
0 0.540578 1
0.769292 1 0.230708
0 0.330533 1
0 0.686138 1
0 0.397446 1
0 0.59325 1
1 5.96046e-08 0
0 0.662843 1
0.580906 1 0.419094
0 0.57017 1
0 0.686957 1
0 0.936869 1
1 0.837249 0
0.675118 1 0.324882
1 0.332732 0
0 0.924003 1
0.214846 1 0.785154
0 0.800672 1
0 0.850241 1
0.0897996 1 0.9102
0 0.388253 1
0 0.734159 1
0 0.738096 1
0 0.613126 1
0.152022 1 0.847978
0 0.809561 1
0.081718 1 0.918282
0 0.88777 1
0 0.31227 1
0 0.625243 1
0.681488 1 0.318512
0 0.541158 1
0 0.62417 1
1 5.96046e-08 0
0 0.917224 1
0.157314 1 0.842686
0 0.591612 1
0 0.192945 1
0 0.733879 1
0 0.767059 1
0 0.570566 1
0 0.172998 1
0 0.694788 1
0 0.608407 1
0 0.628202 1
0.014352 1 0.985648
0 0.596134 1
0.453131 1 0.546869
0.165069 1 0.834931
0 0.633925 1
0 0.575065 1
0 0.638968 1
0 0.745631 1
0 0.609161 1
0 0.452158 1
1 0.404357 0
0 0.390583 1
1 5.96046e-08 0
0 0.778475 1
0.245303 1 0.754697
0 0.304366 1
0 0.210398 1
0 0.241652 1
0 0.313642 1
0 0.535344 1
0 0.308661 1
0.240428 1 0.759573
0 0.188292 1
0.0580028 1 0.941997
0 0.74452 1
0 0.501343 1
0.425415 1 0.574585
0.037757 1 0.962243
0 0.255451 1
0 0.376499 1
0 0.183341 1
1 0.184154 0
0.299976 1 0.700024
0.354995 1 0.645005
0.95879 1 0.0412098
0 0.680815 1
0 0.905847 1
0.00196199 1 0.998038
1 0.424058 0
1 0.359751 0
0 0.911102 1
0 0.967757 1
0 0.651381 1
0 0.6925 1
0 0.385038 1
0 0.664414 1
0 0.803201 1
0 0.885569 1
0 0.668686 1
0 0.981127 1
0.0765725 1 0.923428
0.0739582 1 0.926042
0.730761 1 0.269239
0 0.557486 1
0 0.838101 1
0 0.932501 1
0 0.650988 1
0.167398 1 0.832602
0 0.230001 1
0 0.771817 1
0 0.865922 1
0 0.74537 1
0 0.733994 1
0 0.734217 1
0 0.860532 1
0.374109 1 0.625891
0.0345591 1 0.965441
0 0.796557 1
0 0.262912 1
0 0.945997 1
0 0.507947 1
0 0.344198 1
0 0.698058 1
0 0.850047 1
0 0.117315 1
0 0.63109 1
0 0.434985 1
0.218844 1 0.781156
0 0.818442 1
0.988336 1 0.0116637
0 0.995043 1
0 0.420925 1
0 0.497407 1
0 0.290556 1
1 0.85643 0
0 0.839198 1
0 0.497481 1
0.472683 1 0.527318
0 0.583482 1
0 0.869705 1
0.114488 1 0.885512
0 0.593435 1
0 0.355518 1
0 0.527341 1
0 0.812969 1
0 0.335896 1
0 0.498365 1
0 0.640342 1
0 0.59572 1
0.11092 1 0.88908
0 0.572673 1
0 0.36419 1
0 0.978128 1
0.00391431 1 0.996086
0 0.927643 1
0 0.497774 1
0 0.567955 1
0.140473 1 0.859527
0 0.840554 1
0 0.515128 1
0 0.354709 1
0 0.427531 1
0 0.525391 1
0.0812583 1 0.918742
0 0.577962 1
0 0.871707 1
0 0.641998 1
0.202204 1 0.797796
0.13739 1 0.86261
0 0.629847 1
0 0.344763 1
0 0.818975 1
0 0.341317 1
0 0.550199 1
0 0.670139 1
0 0.489958 1
0 0.866042 1
0 0.835339 1
0 0.68048 1
0 0.182871 1
0 0.575035 1
0 0.795222 1
0 0.865893 1
0 0.402652 1
0 0.240336 1
0 0.596018 1
0 0.592445 1
1 5.96046e-08 0
0 0.437192 1
0 0.422467 1
0 0.447613 1
0 0.937652 1
0 0.364004 1
0 0.91288 1
0 0.446471 1
0 0.512952 1
0 0.280876 1
0.0800278 1 0.919972
0 0.507182 1
