# vtk DataFile Version 3.0
Particle simulation
ASCII
DATASET POLYDATA
POINTS 400 float
3.77993 9.84487 2.91027
0.517437 5.05303 2.08064
4.21516 2.88923 2.24201
2.87415 5.4123 5.24217
7.89724 4.85484 1.02587
0.784963 3.49505 5.37124
9.76414 9.20918 3.64377
4.3004 0.708361 2.21441
3.06559 6.65063 1.06895
9.04917 3.18972 1.86273
3.72575 0.377735 10
8.00927 0.0764589 9.87598
9.62381 8.25257 4.04657
3.57468 1.58493 8.61825
0 1.17262 2.50535
9.00918 5.14516 6.05767
7.64537 2.16364 2.24224
6.60051 5.80751 3.005
3.37385 8.58288 9.79945
1.18782 1.40603 2.142
2.13068 3.70917 1.06201
8.17715 0.525358 7.41005
7.2694 8.19438 3.841
3.33042 9.17055 6.35624
10 3.9937 8.63228
7.04951 0 8.92137
2.16622 8.84147 1.13465
9.41293 0.493885 6.89731
1.42748 1.60566 4.2698
9.57346 1.24741 6.96473
2.01775 4.42888 6.10785
6.88243 0.7174 7.49172
9.4091 0.67441 4.82688
1.0295 4.55025 9.05112
6.56841 4.45044 6.87735
3.94864 3.23533 6.61881
0.855825 4.57942 2.26421
5.61796 5.27061 5.22956
4.61772 6.41122 4.03183
3.20842 1.07218 7.50744
4.55266 7.66266 5.86089
4.24347 8.75313 3.67293
1.03364 8.28039 0.342465
10 3.25319 8.44087
9.04484 8.71225 2.30937
2.5783 5.86213 0.676979
0.415155 4.46085 1.7053
2.52063 10 1.6356
0.924589 1.75433 3.18881
1.68122 2.49814 7.38435
7.50557 0.0727456 7.02684
0.857131 2.64914 6.80255
3.80491 9.2382 4.79795
2.78997 5.19344 0.534764
9.46774 1.6652 7.63855
4.42622 1.78064 7.0759
6.93876 8.80482 3.90992
9.23344 1.78644 3.71852
1.46147 1.03693 5.72926
1.95576 9.35427 6.62161
3.83711 4.1158 6.00252
1.72489 9.25024 7.71322
5.24773 2.62379 1.65173
3.14975 2.69261 5.007
6.30808 5.62623 5.03675
1.49899 6.79066 7.33444
7.76811 3.76119 0.53306
9.03667 7.15552 2.57051
7.13679 4.70127 2.77375
1.33437 6.04974 7.98195
0.27879 6.43771 6.40282
8.6678 3.34938 5.22536
8.14685 0.599434 2.42159
9.46124 0.784445 7.36813
5.42256 8.69352 9.3435
5.18368 1.0888 3.57913
5.06402 6 1.9908
1.80024 5.75689 1.6911
4.13425 8.19827 4.45043
8.23938 9.64906 6.28931
2.72151 3.6811 1.42258
9.31955 9.89933 5.71579
4.44936 0.0735708 8.38982
2.27875 9.01823 8.82512
3.79598 5.04778 7.24212
10 0.883943 9.60049
7.49519 0.658476 5.93703
5.93328 6.5217 6.02343
2.47105 1.97055 4.67882
9.29693 6.48936 6.22403
2.1578 7.72773 1.05836
0.332135 1.02979 2.23855
8.06599 4.90004 2.83696
6.96711 3.73672 5.74577
7.48521 10 1.36734
5.05842 10 7.37308
0 5.69219 6.29474
3.58381 9.7845 2.07936
1.77414 0.319751 0.793951
5.93352 5.37417 4.83384
9.39142 5.11476 9.75009
8.70928 0.623776 6.70387
3.37264 0 0.755619
4.50711 2.19541 9.52281
4.20074 0.665884 8.27535
6.21577 0.935489 8.76823
8.4544 6.658 5.7865
8.6947 3.24701 5.60565
6.1571 2.58748 2.13823
7.61419 7.81319 1.59397
1.56398 1.50419 10
1.88747 7.75943 5.70911
8.38714 1.80531 6.3796
6.59819 3.20736 2.60031
5.42105 9.06526 6.52857
0.281175 3.86738 5.91464
9.15494 4.69299 6.27616
7.2647 3.13969 4.09052
2.99003 7.80759 3.27425
9.79993 5.56866 10
1.92551 0 1.16422
1.45857 0 5.20359
1.01293 2.05434 7.3484
1.64857 9.21099 0.61162
9.47804 2.61458 2.21372
1.57231 6.77767 0.893574
6.54162 2.45105 9.77887
6.23901 2.85282 7.89341
9.40386 2.20882 4.0616
8.57312 0.470471 4.4667
9.67049 9.64474 2.19566
0.271209 1.74384 4.27041
3.12607 1.86541 2.38024
1.07236 9.3577 4.64681
5.55018 10 2.58349
8.08881 5.51383 0.174549
7.17148 8.17936 4.06766
0.717688 6.54338 0.5995
6.29028 8.97326 3.82991
3.46925 0 9.73671
9.46281 1.05866 9.83324
8.71289 0.137087 6.41504
0.52038 4.08616 10
8.46933 1.50131 2.74832
1.49338 2.69166 8.78695
4.97865 3.34352 0.76061
7.94437 0.81592 6.54088
2.36061 1.14869 9.79167
4.51087 5.09993 6.10382
5.47706 7.18782 5.88375
7.49501 0.568598 7.24453
8.10154 0.584729 0
8.449 0.798358 3.55559
4.88861 0.591286 0.774599
9.17026 6.78083 10
1.48593 7.26428 7.65967
9.47609 4.14573 4.01953
8.05688 0.230786 2.21702
1.85339 7.14547 1.36664
2.51096 9.85092 3.4152
6.04736 0.0298696 8.14424
9.58054 4.80777 0.296256
6.66284 8.7783 0.0467889
1.66442 7.92462 5.95603
0.59021 3.41089 5.58932
2.12592 4.74947 2.06131
6.29716 3.1345 9.02144
1.72642 3.10349 6.88896
1.47092 1.9018 3.30348
7.27621 0.111928 7.88797
2.44194 3.18717 6.55049
9.19131 0.759678 7.92825
8.23859 2.90307 5.39276
2.79708 0.472803 6.23749
6.36345 4.18471 4.45672
2.67442 9.02359 5.11582
0.895099 5.74312 8.25358
5.71805 2.01192 9.19273
1.31037 1.51256 10
6.95514 4.93244 4.87541
0.497444 4.09298 6.54265
9.71278 1.42539 8.94566
0.965056 0.53234 6.56694
7.41352 4.15177 6.88771
4.99677 0.32231 0.760928
4.55678 5.61816 1.60252
7.9246 0.330449 6.99181
1.29567 7.27416 2.43146
1.25615 8.73265 0.157335
1.74549 8.88848 9.36524
2.41647 4.36279 7.71506
1.65215 2.82958 7.85324
0.318954 9.70514 4.71534
4.11357 4.62065 0.569411
8.91701 2.15164 5.3996
7.73581 5.57785 3.16753
7.11461 0.757811 1.96049
6.46958 6.00786 2.80691
6.31254 9.22065 7.31517
7.15305 6.4252 7.06166
7.69794 0.603649 5.95063
6.47303 7.86628 3.95953
6.13311 2.6248 5.60545
5.6146 8.94052 3.47821
2.37522 0.866259 3.22493
9.03425 2.21837 8.70795
0.846819 6.50507 2.19995
5.40107 7.45308 2.28857
5.85883 8.30469 5.24109
1.70748 6.6991 4.15228
4.25339 0.448291 9.90193
6.63427 0.241818 9.39007
7.21734 2.15994 6.47038
2.15582 7.8031 0.295129
0.506815 2.40022 7.97078
7.90192 4.1771 6.87604
6.53533 2.36578 8.20778
7.0586 2.59007 4.25874
0.513215 6.28294 0.687291
0 8.80954 2.3939
1.97671 7.18304 7.61063
1.63681 8.96208 5.53549
7.55977 2.6177 7.34574
8.08751 0.762837 5.68817
5.56218 5.60858 7.36165
1.23958 7.62886 2.42548
4.85068 9.00049 8.26987
7.8935 8.8785 9.28152
7.5584 0.373384 7.28763
7.63691 10 4.75974
5.46771 2.05387 8.06473
7.32 1.58015 9.42237
9.85098 0.755084 1.86628
5.103 1.00816 7.37617
3.82906 9.52316 6.36974
8.19419 4.79722 0.439002
4.40381 1.41284 7.11046
1.37426 4.09039 5.50454
7.39558 0.413741 7.40482
8.46354 0.933333 5.1979
7.42014 0.465857 7.7511
4.61488 0.669694 7.5932
7.71911 4.38971 6.69052
6.95274 7.87295 4.35827
3.12473 8.27594 0.823012
1.71318 3.67457 7.80622
0.876022 0 9.8933
0.781356 1.18481 1.90632
2.49521 1.60353 8.94288
7.66515 2.27611 8.60003
6.79698 0.992962 2.19885
0.414796 0.241227 1.28847
9.01536 8.52387 7.79143
8.9344 6.7916 5.30289
7.9093 7.75007 5.3989
2.80672 0.57946 2.4736
3.61037 2.52571 7.8464
9.56708 2.41166 7.11864
0.871133 4.71146 5.21573
6.30448 8.79015 4.43328
8.09695 2.30829 1.91858
8.59496 7.03112 0.524945
3.98508 7.53169 6.74275
3.48518 9.10609 3.75351
6.09458 1.77012 3.25172
8.33848 7.91551 3.12139
3.10209 1.05888 5.23044
3.31602 6.01944 3.32568
3.82105 9.98102 3.28376
3.63119 6.45933 3.46066
6.35329 5.23855 1.42143
8.07087 1.70382 2.44567
5.84789 6.49607 9.75956
9.89216 1.85669 1.17489
5.45645 2.85751 0.85632
5.11707 1.94689 10
9.63854 7.17641 1.90826
2.82494 2.46966 3.71838
0.0877508 0 0.490147
8.29092 0.197318 7.31767
9.01174 5.73514 3.49007
3.80041 2.11453 5.98458
6.27327 0.993566 9.41544
1.21177 2.98996 8.76682
4.24894 9.33585 5.9737
9.78401 1.47802 2.79266
5.21395 1.33835 7.36498
1.30513 4.85159 9.82873
5.56253 9.11907 3.41666
0 5.47209 5.46061
8.59111 6.52757 4.03393
4.81611 7.92976 5.35668
9.3811 7.20635 6.36881
6.27134 1.91514 3.92841
1.3946 8.44067 3.13143
1.19961 0.321747 8.57836
7.37006 0.47568 7.08724
7.84706 0.80535 6.75028
7.82917 0.320201 7.31053
7.89683 0.0674626 7.25801
5.844 9.79803 6.42743
7.60471 0.212193 5.5228
7.56468 0.350677 7.0225
1.4392 2.1906 10
7.39224 0.217105 7.41355
0 5.11739 7.78778
7.84539 0.800987 5.74495
7.55074 0.569205 7.20353
2.91468 8.09966 1.47279
2.27649 5.92254 6.2731
9.46099 4.80019 0.769805
5.81111 8.83832 3.5668
1.1667 1.17711 6.32984
7.22257 0.61081 7.21841
4.72337 9.67758 3.40516
6.98759 5.04031 7.89844
8.36878 5.82364 7.15271
7.58558 0.278127 7.57964
2.29729 7.91694 9.21709
2.0709 3.64613 4.55425
7.21683 8.7828 5.92942
1.88969 0.547294 9.22008
1.09148 0.52906 8.29483
7.5178 0.633059 6.932
7.86702 0.350842 6.96412
0.904881 9.34536 8.39623
7.80083 0.720645 5.85946
3.83364 1.79219 5.11084
8.80338 6.30128 3.04589
7.21853 0.298119 7.05352
2.40417 8.60434 4.13924
3.23825 1.39573 0
8.13861 9.65472 2.71505
2.37674 0 2.31748
2.77519 2.60021 9.64546
4.87914 4.97927 2.90239
9.2667 0.604867 1.45191
7.38645 0.52206 6.93049
9.61803 5.7332 5.00101
1.87649 6.67927 3.72543
7.98793 7.42899 2.65248
1.29092 7.40699 6.79396
6.62592 9.52385 1.57517
0.936877 0.667096 8.30642
7.91522 0.697493 6.76972
5.48096 0.6303 1.48424
9.21392 1.35264 1.01772
7.34026 0.831217 6.48058
7.77502 0.395987 7.27471
0.713071 4.3363 5.26909
7.51053 0.508745 7.65203
7.4753 0.170017 7.19053
1.5774 7.61046 2.88747
3.3887 7.9601 2.03938
0.558618 10 7.28517
7.35556 0.227953 7.29762
8.68321 9.28609 6.96095
3.99337 0.949347 2.62496
7.42785 0.250129 7.50768
7.3041 0.312938 7.10358
5.49277 9.67424 1.09562
1.41803 0.656618 8.49946
1.17507 0.500266 8.43024
7.42342 0.540501 7.34535
5.9908 1.53539 6.49211
7.4697 10 2.71188
1.1305 0.523957 8.46488
1.79225 5.79092 1.22843
9.25185 9.66523 5.90851
4.22836 7.11638 1.42302
9.22161 1.02524 0.855869
3.37592 9.65337 3.41265
0.337389 3.31622 0.914832
8.07116 0.0655532 7.46082
7.24563 0.679447 6.77284
8.50892 1.83778 6.29005
1.09493 0.538989 8.45415
2.8762 0.665618 5.09241
2.64827 6.07847 5.91483
7.87718 0.401718 6.81443
7.49459 0.623415 7.3894
7.38952 0.308605 7.18
9.31543 0.47602 7.19164
7.5453 0.238703 7.74004
2.97268 8.95412 9.79774
1.04913 0.485267 8.3548
7.33645 0.386194 7.45556
7.24192 0.203318 7.16139
9.63251 4.79155 4.51039
8.06473 7.27328 1.53162
7.96141 0.274904 7.37661
7.45274 0.606337 6.98878
0 10 0.713562
7.72829 0.275824 7.27331
7.32621 3.86006 0.267872
7.18753 4.00328 3.33342
7.45607 0.678097 7.10403
8.31338 6.7664 5.77945
2.77122 5.84046 8.03241
2.51173 0.692727 8.06363
POINT_DATA 400
SCALARS particleColor float 3
LOOKUP_TABLE default
0.469387 1 0.530613
1 0.496717 0
0.331842 1 0.668158
1 5.96046e-08 0
1 5.96046e-08 0
1 0.796017 0
1 0.691215 0
1 0.568954 0
0 0.655878 1
0.675161 1 0.324839
1 0.369319 0
1 0.0116656 0
1 0.94417 0
1 5.96046e-08 0
1 5.96046e-08 0
0.588146 1 0.411854
0.745945 1 0.254055
0.896291 1 0.103709
0.965118 1 0.0348821
1 5.96046e-08 0
0.0413263 1 0.958674
1 5.96046e-08 0
0.806389 1 0.193611
1 0.428545 0
1 5.96046e-08 0
0.437581 1 0.562419
1 0.113484 0
1 5.96046e-08 0
1 0.835235 0
1 0.00116551 0
1 0.997995 0
0 0.831209 1
1 0.638922 0
1 5.96046e-08 0
1 5.96046e-08 0
1 0.935782 0
1 5.96046e-08 0
1 5.96046e-08 0
1 5.96046e-08 0
1 0.0496592 0
1 5.96046e-08 0
1 0.258763 0
1 5.96046e-08 0
1 5.96046e-08 0
1 0.545685 0
1 0.971164 0
1 0.822405 0
0.488969 1 0.511031
1 0.749666 0
0.367534 1 0.632466
0.195905 1 0.804095
1 0.106526 0
1 0.58775 0
0 0.794341 1
1 5.96046e-08 0
1 5.96046e-08 0
1 5.96046e-08 0
0.0482826 1 0.951717
1 0.780158 0
0.602966 1 0.397034
1 0.194998 0
0.521482 1 0.478518
1 0.731224 0
1 0.437256 0
1 5.96046e-08 0
1 0.291796 0
1 0.175757 0
0.963366 1 0.0366337
1 5.96046e-08 0
0 0.772612 1
1 0.0942985 0
1 0.848626 0
1 0.344729 0
0.473954 1 0.526046
1 5.96046e-08 0
1 0.0796301 0
0 0.976835 1
1 5.96046e-08 0
0.909884 1 0.0901161
1 5.96046e-08 0
1 5.96046e-08 0
0.941967 1 0.0580327
1 5.96046e-08 0
0.962488 1 0.0375119
1 5.96046e-08 0
1 5.96046e-08 0
0.504011 1 0.495989
1 5.96046e-08 0
1 5.96046e-08 0
1 0.788425 0
0.111074 1 0.888926
0.722829 1 0.277171
1 5.96046e-08 0
0.537881 1 0.462119
1 5.96046e-08 0
1 5.96046e-08 0
1 5.96046e-08 0
0.475347 1 0.524653
0.633054 1 0.366946
1 5.96046e-08 0
1 0.8836 0
0.0112296 1 0.98877
1 0.32122 0
0.262594 1 0.737406
1 5.96046e-08 0
1 5.96046e-08 0
0 0.777736 1
1 5.96046e-08 0
1 5.96046e-08 0
1 5.96046e-08 0
1 0.483341 0
1 5.96046e-08 0
0.318835 1 0.681165
1 0.703331 0
0.315572 1 0.684428
1 0.0181094 0
1 5.96046e-08 0
1 5.96046e-08 0
1 0.148717 0
1 0.952888 0
1 5.96046e-08 0
1 5.96046e-08 0
1 5.96046e-08 0
1 5.96046e-08 0
1 0.941858 0
0.738588 1 0.261412
0.913938 1 0.0860623
0 0.482663 1
0.48733 1 0.51267
1 0.450169 0
0.477897 1 0.522103
1 0.378589 0
1 5.96046e-08 0
1 0.736966 0
1 5.96046e-08 0
1 0.927058 0
1 0.761532 0
1 5.96046e-08 0
1 5.96046e-08 0
1 5.96046e-08 0
1 0.105772 0
1 5.96046e-08 0
1 5.96046e-08 0
1 5.96046e-08 0
1 0.966133 0
1 0.842713 0
1 5.96046e-08 0
0.340878 1 0.659122
1 5.96046e-08 0
0 0.977862 1
0 0.591678 1
1 5.96046e-08 0
1 0.858323 0
0.251616 1 0.748384
1 5.96046e-08 0
0.4531 1 0.5469
0.158583 1 0.841417
1 0.0265108 0
0.497977 1 0.502023
1 5.96046e-08 0
1 5.96046e-08 0
0.31293 1 0.68707
0.195245 1 0.804755
0.271209 1 0.728791
0.435545 1 0.564455
1 0.863894 0
0.702366 1 0.297634
1 0.851216 0
0.100913 1 0.899087
1 0.514363 0
1 0.00987905 0
1 5.96046e-08 0
1 5.96046e-08 0
0.817003 1 0.182997
0.733251 1 0.266749
1 5.96046e-08 0
1 5.96046e-08 0
1 5.96046e-08 0
1 0.502873 0
1 5.96046e-08 0
0 0.741901 1
1 5.96046e-08 0
1 0.260936 0
0.735607 1 0.264393
0.760082 1 0.239918
1 5.96046e-08 0
0 0.439808 1
1 5.96046e-08 0
0.109605 1 0.890395
1 5.96046e-08 0
1 5.96046e-08 0
0.779237 1 0.220763
1 0.823642 0
1 0.64248 0
1 5.96046e-08 0
1 5.96046e-08 0
0 0.84453 1
1 5.96046e-08 0
1 5.96046e-08 0
1 0.462755 0
0 0.415698 1
0.924714 1 0.0752856
1 0.546079 0
1 5.96046e-08 0
1 5.96046e-08 0
1 5.96046e-08 0
1 0.765876 0
0.796131 1 0.203869
1 0.378567 0
1 5.96046e-08 0
1 0.820147 0
1 5.96046e-08 0
1 0.149061 0
1 5.96046e-08 0
1 5.96046e-08 0
0.711487 1 0.288513
1 5.96046e-08 0
1 5.96046e-08 0
1 5.96046e-08 0
1 5.96046e-08 0
1 0.962467 0
1 5.96046e-08 0
0.454077 1 0.545923
0 0.379314 1
1 0.22845 0
0.429546 1 0.570454
1 0.686457 0
1 5.96046e-08 0
0 0.406363 1
1 5.96046e-08 0
1 5.96046e-08 0
0 0.657665 1
0.315938 1 0.684062
1 5.96046e-08 0
1 0.650349 0
1 0.956542 0
1 5.96046e-08 0
1 0.853221 0
0 0.589614 1
1 5.96046e-08 0
0 0.45019 1
0.308466 1 0.691534
0.741653 1 0.258347
0.365842 1 0.634158
1 0.783594 0
1 5.96046e-08 0
1 0.565582 0
1 5.96046e-08 0
0 0.640682 1
1 5.96046e-08 0
1 0.200691 0
0.0361232 1 0.963877
0.998722 1 0.00127786
1 5.96046e-08 0
1 0.225066 0
0.719058 1 0.280942
1 5.96046e-08 0
1 0.975765 0
1 0.068473 0
0.93912 1 0.0608804
0.740534 1 0.259466
0.74567 1 0.25433
1 0.33942 0
1 0.577346 0
1 5.96046e-08 0
0 0.520964 1
1 0.706001 0
1 5.96046e-08 0
1 0.953509 0
1 5.96046e-08 0
1 5.96046e-08 0
0.391367 1 0.608633
0.624062 1 0.375938
1 0.761755 0
1 5.96046e-08 0
1 0.230673 0
1 0.762434 0
1 0.914044 0
1 5.96046e-08 0
0 0.478285 1
0.667756 1 0.332244
1 0.499013 0
0.325807 1 0.674193
1 5.96046e-08 0
1 5.96046e-08 0
1 0.507777 0
1 0.342734 0
1 0.782842 0
1 0.733363 0
1 0.205434 0
1 0.372756 0
1 5.96046e-08 0
0.358774 1 0.641226
1 0.272563 0
0 0.856223 1
0 0.840538 1
0 0.88934 1
0 0.585313 1
0 0.352303 1
0 0.324725 1
1 0.530496 0
1 5.96046e-08 0
0 0.489894 1
1 0.394316 0
0 0.29915 1
0.146255 1 0.853745
0 0.962791 1
0 0.391115 1
1 5.96046e-08 0
1 0.407331 0
1 0.699994 0
1 5.96046e-08 0
0 0.545522 1
0 0.490911 1
1 0.758243 0
0.736981 1 0.263019
0.701695 1 0.298305
0.143187 1 0.856813
1 5.96046e-08 0
1 0.403023 0
1 0.876341 0
0 0.997831 1
0 0.305283 1
0 0.531058 1
0 0.334733 1
0.886683 1 0.113317
0 0.312906 1
1 5.96046e-08 0
0.0841635 1 0.915837
0 0.219872 1
0.694231 1 0.305769
1 5.96046e-08 0
0.562376 1 0.437624
1 5.96046e-08 0
0 0.816011 1
1 0.945708 0
1 5.96046e-08 0
0 0.45255 1
1 5.96046e-08 0
0.539852 1 0.460148
1 0.983179 0
0 0.650123 1
0 0.996117 1
0 0.454053 1
0 0.575251 1
0.62264 1 0.37736
0 0.734375 1
0 0.523851 1
0 0.693896 1
1 0.854339 0
0 0.877209 1
0 0.743137 1
0.103583 1 0.896417
1 5.96046e-08 0
1 0.73717 0
0 0.472813 1
1 0.154503 0
1 0.0797281 0
0.224084 1 0.775916
0 0.818179 1
1 5.96046e-08 0
0 0.268473 1
0 0.331664 1
0 0.313225 1
0.637322 1 0.362678
1 5.96046e-08 0
0 0.914387 1
0 0.53567 1
1 0.460828 0
0.588889 1 0.411111
0 0.810941 1
1 5.96046e-08 0
1 0.856142 0
0 0.670613 1
0 0.436841 1
0.172589 1 0.827411
0 0.536679 1
1 5.96046e-08 0
1 0.00547129 0
0.0301969 1 0.969803
0 0.870169 1
0 0.742742 1
1 0.230261 0
0 0.370221 1
1 0.658272 0
0 0.556765 1
0 0.802808 1
0 0.635335 1
1 0.273383 0
0.394102 1 0.605898
0 0.271223 1
0 0.560588 1
1 0.76094 0
0 0.943081 1
1 0.0398125 0
0.563181 1 0.436819
0 0.466475 1
0.429221 1 0.570779
0.881074 1 0.118926
0.450162 1 0.549838
