# vtk DataFile Version 3.0
Particle simulation
ASCII
DATASET POLYDATA
POINTS 400 float
6.44888 2.0446 9.37298
0.690653 3.91215 2.40042
0.515783 2.65094 3.01246
2.67918 0.63536 1.00548
9.15052 0.947562 3.64625
6.79449 3.22209 5.15864
8.17436 3.72984 2.40868
3.94071 5.0255 0.645489
7.97072 4.57096 0.0486491
7.207 0.887078 3.87543
4.12761 0.617127 0.743189
2.51002 1.1229 2.66155
8.7389 7.0666 5.90361
3.65489 0.521681 0.708717
7.32166 2.4481 3.2079
9.59134 3.76678 8.62563
2.85795 6.19262 0.586329
1.67052 0.41754 3.01786
1.20289 7.23486 9.44782
7.20788 0.962906 3.72472
3.21369 0.486437 2.31309
1.04378 0.617007 0.0873097
3.89246 7.04472 6.558
7.85545 0.281401 4.05341
8.70059 8.90981 9.91299
3.02965 0.508067 2.6641
9.44255 4.03523 0.438087
2.99954 0.127623 2.11683
7.77061 0.381606 6.53322
1.64703 0.588626 3.24267
8.16335 6.88166 4.63231
9.26038 0.337976 1.51016
4.38451 0.400554 8.63799
7.77432 0.409682 3.97488
1.77638 0.169243 2.98151
0.541288 0.573529 0.835802
7.01217 0.776838 9.67483
2.32656 0.287096 1.49052
6.25927 0.717233 0.120534
4.30054 1.69136 1.69486
3.74018 0.172219 4.2777
8.36755 6.56757 4.63014
4.49006 6.38161 5.98466
7.86392 2.94707 4.7781
8.63122 0.107103 8.25329
5.60881 0.510524 1.76015
6.91512 2.36892 6.38601
2.79203 0.157304 1.67998
5.73085 0.227208 1.8343
6.18577 7.63163 6.83988
0.548309 3.69049 2.66143
8.45905 6.50235 4.70582
6.49681 0.385313 5.89818
7.54106 0.951082 3.76967
8.87578 0.149358 8.61977
5.6705 0.522242 1.74587
4.70373 0.493762 8.55342
2.57899 0.215983 1.85094
5.76459 0.264658 1.92933
0.724761 3.64769 7.75149
6.46554 2.01383 10
5.1395 0.574262 8.42199
2.78279 0.507475 0.978432
7.25933 0.864919 3.73373
7.41261 0.109899 4.79751
8.11835 0.540641 5.07339
7.03646 0.309669 6.87403
0.42735 3.70943 2.84837
6.08728 0.37205 1.75902
4.94779 0.780612 8.77759
5.25772 0.369846 8.88069
2.67293 1.19823 2.41463
9.12636 1.68165 4.34802
7.28061 0.825051 3.69567
6.8733 1.12455 9.81504
7.17095 0.309468 9.43622
7.08707 0.333147 6.8897
5.0838 0.693904 8.39963
5.90546 0.863683 1.49091
3.82015 0.221069 7.22177
2.39964 0.267998 1.41946
1.48354 0.454824 2.94293
2.00571 1.00136 2.00423
2.08032 0.426609 1.96384
4.59501 0.529376 7.56668
4.88145 0.391411 7.26745
4.71248 0.70825 7.8249
8.7503 0.750392 1.78533
4.41957 1.08017 1.32116
9.07581 0.298816 1.15018
2.50855 0.0128726 1.6257
1.69416 0.414055 0.793338
1.1158 2.8329 9.55083
2.10404 0.406137 1.98718
4.64353 0.54359 7.56801
4.85168 0.487009 7.39854
4.8017 0.802517 8.84648
2.32867 0.358955 0.752879
4.30938 0.101508 5.75257
9.11179 0.321911 1.15364
2.45014 0.632801 0.563289
4.58534 0.049004 9.90444
0.392187 0.834609 0.603456
7.14836 0.509024 6.8627
7.92554 1.72196 0.229702
2.57684 0.586315 1.75527
4.48142 0.708509 8.60665
5.58711 0.623202 1.84237
5.84624 0.193273 1.91656
9.71414 0.093416 1.81919
0.625835 2.37298 3.36425
7.66722 1.17785 3.86848
3.94914 0.354804 2.72825
9.23459 0.27957 1.16096
2.51373 0.194365 1.90311
2.78357 0.312296 0.768741
4.58861 0.44398 8.56509
5.85429 0.334566 2.4928
5.88597 0.242368 1.94623
0.65428 0.664698 0.834589
2.38743 0.193389 1.69847
9.39529 3.68212 2.05562
6.47822 2.67638 8.54777
4.71848 0.641625 8.07156
5.00224 0.685229 7.98476
1.86786 0.525232 3.16748
2.68326 0.392319 1.2414
7.69801 0.751077 4.03195
0.899783 2.03156 7.1896
3.37217 0.21599 0.525464
2.43787 0.177086 1.67622
5.82316 1.03914 1.41876
4.9013 0.594566 8.04731
7.76836 0.45104 6.76754
4.86367 0.324094 6.04535
1.94553 0.230098 2.74162
2.27082 5.08071 9.73259
7.7721 0.712465 4.06208
5.28527 0.276931 7.72113
6.58358 0.490987 6.42649
2.37788 0.558206 1.81187
6.32071 0.502928 6.08488
0.0676356 0.176981 7.0325
0.615772 0.255194 1.24617
2.65787 0.17045 1.50744
2.82346 0.805679 0.696486
8.34784 0.048848 8.28729
2.07607 0.0952585 2.6079
2.25267 0.195043 2.09408
2.24447 0.443631 3.12492
2.38387 0.559723 1.82605
6.51292 0.664148 6.50988
2.60944 0.0552855 1.79497
4.77413 0.400002 8.23158
2.94171 2.54841 0.456246
2.48883 0.624076 1.2109
8.50576 0.266064 7.98322
2.43317 0.213529 1.62351
6.51042 0.451017 6.44351
3.18133 0.427393 2.19779
0.619131 0.776259 1.16884
0.250303 2.76314 3.15773
5.18769 0.445331 7.6364
1.70773 0.736564 2.72997
0.473506 3.50247 2.47079
6.66464 0.479848 6.5874
5.702 0.541628 8.66249
4.79917 0.264955 8.7377
6.18427 3.18943 8.93828
9.42488 1.60745 1.29922
2.74363 0.611225 0.748764
2.03576 0.278153 1.09386
4.46437 0.629545 8.80466
2.43707 1.16408 1.92193
1.94939 0.15157 2.68463
0.784354 1.04697 0.485698
4.84056 0.596111 8.78336
5.07922 0.71384 9.05504
5.20002 0.675674 8.23236
2.70297 0.366203 2.25492
2.07115 0.454394 1.92115
2.08325 0.617906 3.15848
6.64614 3.22325 9.22578
2.57737 0.407556 2.18061
5.25685 0.3035 7.73359
1.70563 0.0806975 2.20119
2.75048 0.843972 1.44974
1.0294 3.12529 9.58278
3.39457 0.17086 4.38694
2.27851 0.353063 1.54806
2.10339 0.476363 1.90391
2.45402 0.282808 2.06928
4.88827 0.699384 8.37789
2.21995 3.81033 2.08539
6.91255 8.45937 9.86331
2.28296 0.354526 1.97736
3.86626 0.671419 2.53656
1.57563 5.20634 10
2.02039 0.440225 2.7402
1.55034 0.695951 3.12282
3.84584 0.540233 2.77605
6.05979 0.524608 1.5986
9.2934 0.563227 8.5513
5.21201 0.298883 8.38038
8.56925 0.0888397 7.71962
4.60764 0.46536 8.3068
2.84582 0.251418 1.71591
3.68291 0.374227 0.612501
2.50586 0.575839 0.884054
9.01896 0.142606 1.17825
2.00329 0.202541 1.85812
5.7272 0.0247471 1.54447
4.7094 0.383283 7.90082
6.7187 0.648614 6.06312
6.72918 1.04608 4.71736
4.66521 0.607039 8.49224
2.87501 0.279013 1.68182
3.90817 0.276307 2.76616
1.60459 0.47813 2.77605
9.06137 0.207287 1.1785
6.73573 5.65207 5.49166
3.39049 0.455791 7.25615
4.82343 0.294661 7.7111
2.67574 0.277755 1.84612
4.80381 0.538935 8.4051
2.76036 0.647493 1.89811
7.02399 2.67708 3.42962
2.11229 0.389158 1.55528
3.05688 0.0776485 2.12647
4.89296 0.959724 9.12887
7.41672 1.06327 3.86637
5.51212 0.469239 7.62448
8.41904 0.149322 7.97222
2.28976 0.32226 1.68583
4.96904 0.827922 8.35978
2.28857 0.403027 3.54393
8.21958 0.0522302 8.1804
3.23786 0.54208 2.94713
2.44599 0.396467 1.34537
2.64626 0.637889 1.52677
3.40838 0.309943 2.10093
2.29906 0.300744 2.8966
2.44064 0.110171 1.57261
3.87274 0.533454 2.78333
5.20751 0 8.2006
1.70695 0.75811 2.61534
3.12573 0.275617 0.502908
5.07855 0.663593 8.47078
5.88043 0.356735 2.05359
5.02124 0.466797 8.52296
2.264 0.662848 1.10271
5.75877 0.510959 1.83592
5.01167 0.435652 8.41982
1.71913 0.575972 0.54693
8.6434 0.450212 8.0678
2.41022 0.416604 1.57065
9.40437 0.39089 1.31501
4.98369 0.853642 8.22265
5.85918 0.392782 2.05113
5.08155 0.449384 8.48265
2.27828 0.332525 2.76765
6.8292 6.15064 5.81411
4.79559 0.260195 8.15401
7.58097 0.606495 3.88001
4.89575 0.603785 8.80346
4.16034 0.252115 4.55877
7.32671 1.09313 4.25352
5.55813 0.606978 8.06166
8.4617 0.282749 8.32267
2.39189 0.340662 0.976754
2.1403 0.732877 2.71099
7.86149 6.92103 5.54883
2.15728 0.557114 0.719979
7.30865 0.265836 4.15112
4.93537 0.521052 7.79726
5.33231 0.55301 9.0541
7.57018 0.588152 4.10907
4.63484 9.73555 8.67458
8.27292 0.0895015 7.70059
2.26934 0.405926 2.04626
9.73799 0.268243 0.962455
5.89045 0.298617 2.09955
5.46085 0.0860287 1.93249
7.20443 0.678867 4.04542
9.94759 0.0766725 8.68468
9.18991 0.104118 8.4697
1.93225 0.239761 2.98055
2.07771 0.872078 2.3512
6.66956 0.653189 6.38195
8.89418 1.92344 4.56728
9.6828 0.450531 1.09217
5.88405 0.384359 2.05572
3.58587 0.624661 2.86747
7.15279 0.817848 3.74033
5.12606 0.489441 7.76762
5.25827 0.78019 8.29147
2.23622 0.635125 2.40673
2.75063 0.936289 1.96162
2.50473 0.0713565 1.08426
1.88458 0.709692 3.03348
8.93751 0.373026 0.935715
6.76004 0.505896 6.40538
3.61374 0.80393 0.804465
5.62992 0.42233 1.79072
2.89512 0.516539 1.17952
5.92269 0.489218 2.09439
3.5612 0.936559 2.79498
2.5763 0.414119 1.89653
2.83078 0.301603 1.28639
3.12029 0.451686 2.81498
6.9823 0.418119 4.1031
7.14928 0.471041 6.56357
8.72459 0.197499 7.94344
3.79654 0.352313 2.37833
2.61525 0.466453 1.10193
6.77482 1.29987 3.7
1.94458 0.640715 2.66701
6.70376 0.534916 5.15486
5.57796 0.567683 1.8398
2.22917 0.601213 1.07376
4.61717 0.712466 8.96033
2.03977 0.759651 0.745396
4.93695 0.101117 8.38932
3.41191 0.44473 2.08413
9.22877 0.0892957 1.30854
9.04953 0.743739 1.39684
2.38159 0.459802 2.26257
6.20967 0.241768 1.99974
8.94537 0.264617 1.01408
3.35734 0.410427 2.51252
4.62238 0.796816 9.00617
2.6258 0.284146 1.80241
4.91522 0.578791 8.49697
2.31842 0.604091 1.50251
9.44032 0.511276 1.34234
4.9874 0 8.25748
3.40881 0.723885 2.76972
2.14225 0.518856 3.24196
9.48165 0.491499 1.09025
2.67839 0.451263 1.81939
4.88439 0.922994 8.86095
2.67966 0.63584 1.77866
4.86549 0.418972 8.06393
4.68145 0.140346 8.1343
2.36174 0.172123 1.4003
2.70012 0.591944 1.69459
5.65811 0.145634 1.79069
2.24799 0.594769 0.79155
2.70602 0.561812 1.91031
2.66808 0.343464 1.07613
2.92403 0.533464 2.02312
2.83453 0.243004 1.82002
5.04515 0.322529 7.82333
4.55311 0.187494 8.20236
1.88253 0.274607 2.03398
3.43217 0.43931 2.5152
6.36251 0.446684 2.27882
4.6404 0.51051 8.3659
2.80344 0.699636 1.96447
2.06692 0.621462 3.14294
5.52554 0.131157 1.56018
6.61167 0.769372 6.42935
4.48967 0.504343 7.92274
3.3218 0.569233 2.62603
2.58224 1.06561 0.994345
8.45156 0.263039 8.02668
4.85667 0.5323 8.44211
4.6283 0.329334 8.08842
5.13222 0.504626 7.81216
2.81542 0.540318 0.507987
5.51917 0.123049 1.55647
6.56503 0.680662 6.46728
4.65077 0.800438 7.83247
2.9024 0.778348 1.09925
1.91666 0.451002 0.329937
8.42503 0.264871 8.11031
5.10598 0.516756 8.08792
4.90079 0.59914 8.19632
4.30366 0.63451 8.20704
2.20489 0.00239859 2.12839
2.86603 0.646837 1.60524
2.02847 0.545606 1.97102
4.65998 0.581066 8.06269
2.23823 0.36879 1.65139
7.18998 0.816634 3.67247
4.83924 0.435089 8.12702
1.73207 0.345977 2.83782
2.07283 0.405228 1.51341
7.22663 0.777449 3.89728
6.102 0.378524 2.18306
2.88268 0.673018 1.59337
2.24266 0.414878 1.8862
4.52382 0.732519 8.15699
2.55481 0.123255 1.30939
7.15396 0.766186 3.67532
5.05315 0.36022 7.77999
1.75217 0.41592 2.80835
3.19814 0.57215 1.66419
9.74958 0.264251 1.72124
6.11 0.352079 2.21461
POINT_DATA 400
SCALARS particleColor float 3
LOOKUP_TABLE default
0.675634 1 0.324366
0 0.790641 1
0 0.628561 1
0 0.125293 1
0 0.473195 1
0.475356 1 0.524644
0 0.379367 1
0 0.725348 1
0.328647 1 0.671353
0 0.946514 1
0 0.898472 1
0 0.553765 1
0.25265 1 0.74735
0 0.330183 1
0.352839 1 0.647161
0 0.568893 1
0 0.274811 1
0 0.824039 1
0.0800419 1 0.919958
0 0.53646 1
0 0.480729 1
1 0.231805 0
0.0526908 1 0.947309
0 0.343204 1
0 0.667699 1
0 0.938488 1
1 0.0529837 0
0 0.629281 1
0 0.953079 1
0 0.319015 1
0.913821 1 0.0861791
0 0.403076 1
0.172273 1 0.827726
0 0.366721 1
0.103566 1 0.896434
0 0.562533 1
0.238645 1 0.761355
0 0.541537 1
0 0.29591 1
0 0.779307 1
0.0207832 1 0.979217
0 0.194041 1
0 0.404168 1
0.550568 1 0.449432
0 0.308184 1
0 0.481702 1
0.235274 1 0.764726
0 0.453252 1
0 0.235235 1
1 0.978148 0
0 0.375619 1
0 0.0581042 1
0 0.858795 1
0 0.424048 1
0 0.393013 1
0 0.094473 1
0.103295 1 0.896705
0 0.761007 1
0 0.155606 1
0 0.515115 1
0 0.751102 1
0.196588 1 0.803412
0.619564 1 0.380436
0 0.730001 1
0 0.768616 1
0 0.75966 1
0 0.542152 1
0 0.97421 1
0 0.33162 1
0 0.816919 1
0 0.98083 1
0 0.294712 1
0 0.788559 1
0 0.84383 1
0 0.329985 1
0 0.944182 1
0 0.561683 1
0 0.640806 1
0 0.470629 1
0.0638402 1 0.93616
0 0.252675 1
0 0.454541 1
0 0.483408 1
0 0.28395 1
0 0.477514 1
0 0.110773 1
0 0.547144 1
0 0.896881 1
0.0387896 1 0.96121
0 0.552398 1
0 0.273578 1
0 0.539655 1
0 0.456117 1
0 0.181701 1
0 0.451119 1
0 0.249175 1
0 0.675617 1
0 0.685733 1
0 0.782264 1
0 0.572605 1
0 0.739917 1
0 0.699728 1
0 0.590443 1
0 0.781952 1
0 0.505137 1
0 0.483081 1
0 0.810159 1
0 0.744706 1
0 0.388747 1
0 0.1457 1
0 0.454551 1
0 0.764531 1
0 0.366336 1
0 0.250621 1
0 0.756081 1
0 0.88628 1
0 0.479959 1
0 0.760781 1
0 0.405124 1
0 0.655303 1
0 0.457988 1
0 0.456998 1
0 0.985712 1
0.152782 1 0.847218
0.598951 1 0.401049
0 0.458652 1
0 0.94754 1
0 0.22507 1
0 0.544198 1
0 0.985643 1
0 0.524632 1
0 0.680689 1
0 0.469728 1
0.15246 1 0.84754
0 0.92481 1
0 0.752801 1
0.157029 1 0.842971
0 0.0718318 1
0 0.961641 1
0 0.473581 1
0 0.596218 1
0 0.374942 1
0.142031 1 0.857969
0 0.778473 1
0 0.479281 1
0 0.372699 1
0.208245 1 0.791755
0 0.244059 1
0 0.573565 1
0 0.796073 1
0 0.592923 1
0 0.662384 1
0.111388 1 0.888612
0.286392 1 0.713608
0 0.372595 1
0 0.466179 1
0 0.922198 1
0 0.223614 1
0.130609 1 0.86939
0 0.347512 1
0 0.465707 1
0 0.302635 1
0 0.631306 1
0 0.692846 1
0 0.283142 1
0 0.359999 1
0 0.214518 1
0 0.315085 1
0 0.49328 1
1 0.232244 0
0 0.664126 1
0 0.662789 1
0 0.851016 1
0 0.900331 1
0 0.724234 1
0.235838 1 0.764162
0 0.601312 1
0 0.767262 1
0.101919 1 0.898081
0.343143 1 0.656857
0 0.2321 1
0 0.757921 1
0 0.505568 1
0.0655686 1 0.934431
0 0.376142 1
0 0.279824 1
0 0.818797 1
0 0.999028 1
0.704746 1 0.295254
0 0.808347 1
0 0.277146 1
0 0.966087 1
0 0.869911 1
0 0.36625 1
0.694958 1 0.305042
0 0.698802 1
0 0.146774 1
0.71337 1 0.28663
0 0.722899 1
0 0.587041 1
0 0.637712 1
0 0.210231 1
0 0.754042 1
0.148915 1 0.851085
0.413581 1 0.586419
0 0.400235 1
0 0.4612 1
0 0.728938 1
0 0.625384 1
0 0.176434 1
0 0.560844 1
0 0.295349 1
0 0.837648 1
0 0.424059 1
0 0.675709 1
0 0.622206 1
0 0.479441 1
0 0.911166 1
0.276916 1 0.723084
0 0.763156 1
0 0.460133 1
0.496048 1 0.503953
0 0.699089 1
0 0.129343 1
0 0.195871 1
0 0.727516 1
0 0.442842 1
0.0125499 1 0.98745
0 0.553501 1
0 0.421574 1
0 0.176005 1
0 0.472738 1
0 0.503301 1
0 0.433547 1
0 0.70079 1
0 0.989565 1
0.351038 1 0.648962
0 0.898469 1
0 0.999719 1
0.252228 1 0.747772
0 0.866397 1
0.0906006 1 0.909399
0 0.604822 1
0 0.755358 1
0 0.358446 1
0 0.921626 1
0 0.88082 1
0 0.789435 1
0 0.728359 1
0 0.558123 1
0 0.76953 1
0.354906 1 0.645094
0 0.304142 1
0 0.65116 1
0 0.260966 1
0 0.614514 1
0 0.787309 1
0 0.42751 1
0 0.706017 1
0 0.549461 1
0 0.191792 1
0.183384 1 0.816616
0.0932889 1 0.906711
0 0.986633 1
0.161431 1 0.838569
0.0720272 1 0.927973
0 0.843354 1
0 0.341646 1
0 0.556559 1
0 0.725574 1
0 0.78519 1
0.0350432 1 0.964957
0 0.818433 1
0.0974228 1 0.902577
0 0.748949 1
0.20374 1 0.79626
0.0673034 1 0.932697
0 0.704531 1
0 0.484555 1
0 0.250915 1
0 0.357861 1
0 0.731502 1
0 0.901241 1
0 0.366746 1
0 0.753749 1
0 0.415359 1
0 0.508583 1
0 0.841048 1
0 0.758896 1
0.368867 1 0.631133
0 0.498884 1
0 0.807114 1
0 0.667902 1
0.112188 1 0.887812
0 0.98852 1
0 0.251912 1
0 0.590654 1
0 0.866893 1
0 0.0820761 1
0 0.685453 1
0 0.706476 1
0 0.579911 1
0 0.81125 1
0.163469 1 0.836531
0 0.590405 1
0.306505 1 0.693495
0 0.671877 1
0 0.836799 1
0.078651 1 0.921349
0 0.61578 1
0.0302239 1 0.969776
0 0.826624 1
0 0.460823 1
0 0.71011 1
0 0.780955 1
0 0.376243 1
0 0.517787 1
0 0.633732 1
0 0.32366 1
0 0.686491 1
0.0455036 1 0.954496
0 0.269672 1
0 0.409336 1
0 0.55256 1
0.0180757 1 0.981924
0 0.444797 1
0 0.571033 1
0 0.38944 1
0 0.963746 1
0 0.452531 1
0 0.670873 1
0 0.748787 1
0 0.761882 1
0 0.506313 1
0 0.229966 1
0 0.78432 1
0 0.775749 1
0 0.326574 1
0 0.791449 1
0 0.920933 1
0 0.679047 1
0 0.72593 1
0 0.535849 1
0.209896 1 0.790104
0 0.736298 1
0 0.685674 1
0 0.700277 1
0 0.86481 1
0 0.807959 1
0 0.408327 1
0 0.984889 1
0 0.602887 1
0.195536 1 0.804464
0.151636 1 0.848364
0 0.81901 1
0 0.487782 1
0 0.653237 1
0.265069 1 0.734931
0 0.754023 1
0 0.381884 1
0 0.323917 1
0 0.769171 1
0 0.696601 1
0 0.374561 1
0.0120188 1 0.987981
0 0.224468 1
0 0.422569 1
0.0171357 1 0.982864
0 0.914837 1
0 0.436612 1
0 0.45098 1
0 0.759035 1
0 0.502155 1
0 0.679388 1
0 0.486319 1
0.051625 1 0.948375
0 0.687051 1
0 0.891531 1
0 0.334937 1
0 0.672801 1
0 0.567696 1
0 0.210814 1
0 0.129887 1
0 0.276716 1
0 0.924217 1
0.320946 1 0.679054
0 0.515801 1
0 0.395252 1
0 0.94947 1
0 0.823658 1
0 0.440078 1
0 0.350919 1
0 0.506918 1
0 0.541862 1
0 0.922316 1
0.495452 1 0.504548
0 0.592251 1
0 0.78821 1
0 0.667342 1
0 0.777719 1
