# vtk DataFile Version 3.0
Particle simulation
ASCII
DATASET POLYDATA
POINTS 400 float
4.49702 9.64452 1.32302
5.95943 5.83647 1.796
7.18494 4.17187 6.18051
6.90603 2.27588 7.51644
0.648989 3.06868 6.63977
9.11368 9.72353 0.96732
1.24464 4.15674 0.822914
10 3.30068 2.60188
2.63345 7.79171 8.30719
3.32595 2.70312 4.24572
2.8616 1.88579 3.5527
9.51671 7.31517 2.40557
5.5282 3.42209 5.53451
5.76366 1.89916 0.20263
5.15068 1.21973 1.2613
3.73602 3.39684 5.43723
3.78844 7.14169 9.14875
8.76031 3.23119 7.78245
2.55674 7.6185 8.32156
2.28528 8.74224 6.11451
5.78311 0.502042 10
5.88348 2.18397 5.04895
0.788483 9.18613 8.96793
9.11679 4.03194 4.4527
3.74672 5.98417 7.3116
8.45067 9.59567 8.01242
9.83905 7.84421 6.44187
3.20102 6.50776 9.93038
7.96166 7.27443 9.33731
0.990047 6.28082 1.25268
3.97559 1.12447 2.18681
7.38045 0.864654 8.13364
9.04522 5.6953 6.84662
2.72298 1.43589 7.26218
4.84275 3.76831 3.85924
0.99981 2.58903 8.20581
9.35987 5.79634 0.579293
1.89494 7.21719 6.9616
1.71444 2.10113 8.87976
8.68243 0.885975 4.33637
1.96101 2.77007 7.99188
4.16458 2.92426 3.84803
5.56173 4.70983 5.16802
5.28994 6.72104 4.51049
8.7131 3.02787 2.35101
1.42864 6.95143 6.47621
9.18632 5.33354 5.96997
3.64372 2.36398 3.94422
1.41938 0 8.78805
9.77194 8.29183 1.54876
8.06851 0.148487 9.86558
5.94653 1.90897 0.409624
0.561382 1.40865 2.08988
0.693106 0.908539 5.1845
2.2853 5.05946 1.78297
2.73267 0.334322 2.02613
6.85735 4.71187 3.91282
7.22966 2.51917 6.36795
1.89899 0.0953163 5.81522
6.69674 8.65096 5.15866
7.06962 9.52971 1.76014
8.79858 8.38295 0
1.35199 3.86606 7.89769
9.32345 1.67198 2.40544
1.84243 5.8422 9.40022
5.76001 7.06203 8.24199
5.48996 4.27356 0.58244
9.58145 1.51551 8.42706
5.30855 9.79843 5.17176
2.55813 3.16639 6.31636
9.29399 1.83066 2.37721
7.80752 0.0565651 5.53556
1.45759 0 6.74816
2.99269 0.546543 1.81004
4.50142 0 4.99171
1.42506 9.56123 1.43896
5.13781 5.63732 7.0427
0 1.40253 6.99865
2.45913 2.18775 5.93645
8.21583 10 4.5726
2.28671 6.79428 4.13713
2.48678 2.01734 9.64794
4.4912 5.00198 7.98161
8.44072 2.29017 5.65943
2.2254 3.72012 6.01745
0.512546 0.327496 0.879039
9.39089 2.67341 8.94522
0.244946 5.18736 4.08378
2.23054 9.61491 0
1.77632 5.3962 0.72447
5.38708 1.37855 7.33293
6.09854 0.970081 8.02514
0 9.35901 8.67957
2.25693 1.36932 4.51742
5.20678 2.59747 3.3493
0.336436 7.28453 7.12598
3.64905 6.16272 4.964
9.56809 5.71082 7.52402
3.52283 3.54028 3.56359
5.02816 7.4285 7.37844
0.439711 0.371737 8.44261
2.23367 1.62661 4.22409
4.76087 7.70572 4.82364
3.32645 4.69256 9.81292
0 2.35419 5.933
4.0875 8.57765 2.22709
4.70204 7.20767 2.28262
1.18287 4.07205 6.23794
0.52709 8.28377 4.37787
9.18981 7.97596 0.867724
6.80253 1.22644 4.29762
6.30669 5.79008 7.67344
6.51774 0.249716 9.0303
2.39546 8.54366 9.62256
9.86146 2.25736 9.3256
1.79763 5.21285 0.000143558
0.774651 5.33823 0.408158
2.01383 9.65767 9.71298
9.30628 6.63459 1.11999
5.28705 7.44869 5.30265
0.160124 8.62252 3.58291
6.37879 0.726326 0.131463
0.636854 4.39288 4.71581
0.227589 4.50119 6.79872
6.05263 0.512696 6.5572
0.6781 2.41284 1.87442
4.04903 9.70963 9.93109
3.24906 2.73821 0.543275
3.92818 1.50671 4.5727
2.85965 1.06081 3.16528
6.60826 3.5391 1.30919
9.1884 8.8678 5.07617
8.4679 5.72903 10
9.20054 0.76793 5.45196
4.34738 0.665353 7.06263
4.5079 1.28634 3.69384
6.4546 5.90799 2.91058
4.95428 3.64438 4.85738
8.84364 4.84555 8.22086
1.78983 1.934 8.85866
7.49747 0.646152 6.51554
7.0625 8.63118 7.8513
9.43263 4.00042 4.61852
5.95204 5.54216 9.49717
2.17252 3.19493 6.48822
6.59004 0.364528 7.07378
4.8591 7.1141 8.27387
5.8194 9.34222 2.73445
2.13557 8.28581 6.58333
6.14424 0.83647 8.96296
7.4214 0.515177 6.98581
7.94894 1.89603 5.69464
0.804244 0.38786 8.67613
7.03876 3.8465 1.80534
4.25794 0.277456 5.46702
1.18902 0 7.65648
8.94223 6.90759 4.95315
9.49777 0.846889 9.4274
4.98964 3.30134 1.63363
9.69718 8.78151 7.1045
4.87376 7.73848 7.28862
9.1956 7.71025 0.266206
7.38688 4.08718 0.0103352
5.85038 9.93909 5.53946
5.45297 4.07346 1.45865
5.30958 2.58737 0.210505
6.687 0.7024 7.54595
7.51717 4.71594 3.29689
4.38907 6.25453 0.987171
8.28544 2.15107 2.47722
2.93501 0.152073 2.45685
5.35702 2.35675 6.49066
7.06965 1.59966 6.00255
9.09951 0.859122 9.02208
2.16768 9.25059 9.72361
9.33508 0.97838 4.14585
6.38277 4.25496 6.3719
10 8.41519 1.16081
1.36778 5.7074 7.84634
6.06048 8.07172 3.30037
0.223165 1.1728 8.75875
3.86211 2.48619 4.8686
8.06155 9.24605 3.43015
2.62079 4.70026 4.51089
9.92279 5.16076 2.71201
8.48222 3.90047 5.8964
7.19458 0.433558 6.94635
9.96485 5.55192 4.01769
7.80153 7.29142 3.75353
6.61765 5.54519 8.27914
8.38074 5.41686 2.35017
9.00423 4.90984 4.78684
4.48534 6.90126 5.2661
2.42913 3.31644 9.61129
5.93957 6.10035 7.34829
0.0635304 8.73927 6.91698
8.60996 5.36393 0
5.9427 7.96932 9.57706
1.11541 7.41999 6.04065
6.30698 8.12308 2.16278
6.52466 0.440962 6.19506
2.8062 4.46635 1.90715
2.62301 8.62904 5.17503
3.10037 0.110026 3.45853
9.77009 6.24474 8.92447
5.75449 8.02727 2.19288
10 1.91334 3.14655
2.67153 8.02707 5.65106
6.20515 5.86373 0.144729
7.16311 8.66361 1.50632
7.20124 0.810095 7.24239
9.01753 3.32812 5.65394
4.04467 3.35059 8.31428
7.08541 3.51716 8.12126
0.0753829 9.62883 8.14454
6.29906 9.66336 9.24108
6.98935 0.463338 6.5447
8.18581 1.83312 0.700826
9.3405 2.5831 0.286991
6.84194 2.20516 0.402745
1.17896 7.03061 5.4052
8.48605 9.46339 7.15216
1.99397 1.13353 7.20629
7.10659 0.37545 6.88536
6.59003 7.16134 5.30384
3.01179 6.49159 2.77255
1.46352 9.37296 1.24078
6.37592 8.51341 6.70472
7.67491 0.269316 6.91611
3.47046 2.56244 1.30628
4.85023 5.68628 0.780855
7.69853 4.57096 4.57738
7.79057 3.09668 0.159819
2.08977 1.05793 6.83614
10 7.61416 0.462665
1.79433 9.71824 4.43631
2.79383 10 6.60117
6.96841 0.85498 0
7.5174 0.285413 6.754
2.24497 3.86358 9.03341
6.97708 0.165705 7.22659
1.57047 0.205199 9.426
6.20542 9.82152 9.05684
2.04829 2.37934 4.79663
8.59194 8.32753 0.484191
6.95661 8.61653 8.84188
7.10401 6.40387 5.6534
8.12175 7.68882 0.054126
1.5486 4.07286 9.25145
1.13085 10 5.54772
9.07496 4.24572 6.84177
3.37504 1.17638 2.44007
7.57788 2.50721 8.74656
1.15174 7.06411 10
5.25255 6.32788 0.596943
7.43491 0 4.52183
9.55969 1.86469 7.91205
5.34272 4.78728 7.24452
0.625536 0.278161 4.46084
8.82429 4.55653 1.74641
8.46529 9.32933 6.35029
4.97028 7.21051 3.73693
5.00104 2.89326 2.34505
4.01517 7.96312 1.61124
2.98866 2.16568 1.09421
5.03145 7.054 4.07653
4.14321 5.3357 3.81175
2.69682 4.73933 7.42832
7.89775 2.11871 9.66804
2.8484 7.11083 5.95651
6.25222 3.93227 1.51075
0.675503 1.12506 4.70782
0.671419 4.46551 2.52723
4.50356 2.8378 7.4891
9.5806 10 0.15571
8.71088 4.59619 8.20845
5.57681 1.15921 9.17793
9.96294 9.45231 6.09374
7.23785 6.69283 7.19153
6.61068 0.353363 5.99916
8.25725 4.47603 7.99452
9.18527 8.34373 3.94011
0.775414 0.0118477 3.70875
9.15974 9.81084 3.74094
3.90063 7.30701 1.64052
4.62368 3.14865 1.69281
0.333205 8.42371 1.12074
3.80495 1.27033 0.129027
8.61466 8.70293 4.6333
2.96053 5.79499 3.54743
5.42622 5.41324 1.0206
9.6747 5.46428 6.83048
6.52917 6.49114 5.89271
3.66077 2.86414 0.604181
5.80426 6.66875 3.74154
0.658367 0.406447 9.86183
7.21839 0.524409 6.89851
6.71238 0.30462 6.1743
7.60531 0.194031 6.91479
7.63752 0.301407 6.88519
1.17894 4.58684 3.92776
8.23004 5.35929 9.30724
7.61241 0.273831 6.74538
2.99084 6.03843 5.06203
7.67646 0.362136 6.89045
8.75616 2.06166 5.84569
6.39084 0.267048 6.20328
7.49963 0.224503 6.87294
5.1713 5.29859 9.72491
1.90781 6.76526 1.02652
6.78165 7.00547 5.25381
6.25293 3.07103 8.73944
8.34167 3.59893 0.603959
8.16626 0.187824 6.62385
8.09004 1.87792 6.15873
1.80918 3.36293 0.328563
2.43631 3.01288 6.86163
6.89437 2.93955 5.47246
1.92333 3.71986 5.19827
8.75673 1.70871 4.40737
3.49257 0.621403 8.0509
0 1.47004 0.770842
0.513944 0.432226 9.65113
7.21493 0.273623 6.69947
7.4927 0.606843 6.66733
10 5.22534 2.13601
7.53136 0.402781 6.62889
4.19432 1.10011 2.56159
8.74939 6.89966 6.38786
7.45974 0.606634 6.86013
7.36388 6.95594 3.59382
3.56972 5.6909 6.75566
1.17984 5.67464 3.73695
2.13304 3.16944 5.44859
4.45767 8.49893 9.88731
0.971252 2.62337 8.96436
4.12093 8.52818 8.99294
7.33858 0.503864 6.80697
4.76911 5.41534 6.1834
0.216745 7.00742 0.154485
4.1294 1.70889 0.773376
0.292931 4.66537 9.64108
5.95922 8.3483 1.96338
0.576387 0.412218 9.67831
6.3435 0.584411 6.1047
1.36511 2.31236 6.71878
9.10873 1.7579 4.96476
7.52003 0.424606 7.25087
7.56091 0.299244 7.06665
0.514027 0.490586 4.34298
7.2603 0.506498 6.64903
7.8577 0.479992 6.59252
7.3658 6.45571 0
2.4819 0.344198 10
4.26105 3.21024 4.86742
7.64222 0.472529 6.94009
4.39571 6.28438 0.515856
0.631659 8.77609 3.75842
7.68999 0.598912 7.24591
7.24621 0.54546 6.65253
5.87168 8.37401 0.930592
0.304402 0.412159 9.73806
0.451942 0.500834 9.72662
7.36723 0.398074 6.88528
7.42731 0.557172 6.94955
7.19483 9.97897 4.61555
0.54489 0.209133 9.67336
8.91694 3.69648 7.43293
5.94139 6.64855 8.89703
9.84446 6.72434 4.496
9.14497 1.32253 4.9074
2.66454 4.31643 7.00718
2.35588 3.1367 5.74963
6.9856 0.304505 6.49076
7.39438 0.773649 7.23997
8.11028 2.19888 5.84509
0.50842 0.268131 9.75165
5.51889 9.1987 3.57492
6.03255 5.25543 1.4342
7.15333 0.207328 6.82255
7.46252 0.384144 7.09411
7.53298 0.326396 6.63476
8.32226 6.66473 7.44867
7.35086 0.191667 6.57808
5.2356 1.58413 4.36555
0.655964 0.330837 9.85469
7.33497 0.54902 6.69852
7.22089 0.661652 6.62681
3.95649 6.6811 9.1645
5.3263 0.869 7.49555
7.24529 0.265946 6.77498
7.59326 0.492283 6.83832
6.89205 7.45103 7.62331
7.51349 0.0671202 6.46806
1.64122 1.30015 4.91484
8.67467 8.64775 8.71706
7.14222 0.244522 7.06781
4.61143 7.78118 2.01062
5.46922 8.14856 0.440225
5.94975 3.96683 6.36914
POINT_DATA 400
SCALARS particleColor float 3
LOOKUP_TABLE default
0.147153 1 0.852847
1 5.96046e-08 0
0.210816 1 0.789184
1 0.313164 0
1 5.96046e-08 0
1 0.611113 0
0.103717 1 0.896283
0.972961 1 0.0270392
0.922539 1 0.0774611
0 0.500627 1
1 0.417193 0
0.669132 1 0.330868
1 5.96046e-08 0
1 0.833132 0
1 5.96046e-08 0
1 0.909388 0
1 0.846596 0
0.785388 1 0.214612
1 0.972687 0
1 5.96046e-08 0
1 0.828378 0
1 0.624373 0
1 0.799039 0
0 0.820536 1
0.389928 1 0.610072
0.657885 1 0.342115
1 5.96046e-08 0
0.271255 1 0.728745
1 5.96046e-08 0
1 0.0785807 0
0 0.859257 1
1 0.960742 0
0.96628 1 0.0337203
1 5.96046e-08 0
1 0.278468 0
1 5.96046e-08 0
1 5.96046e-08 0
0 0.567767 1
1 5.96046e-08 0
1 0.626705 0
1 5.96046e-08 0
1 5.96046e-08 0
1 5.96046e-08 0
1 5.96046e-08 0
0.473499 1 0.526501
1 5.96046e-08 0
1 5.96046e-08 0
1 0.685028 0
0 0.997967 1
1 5.96046e-08 0
1 0.876078 0
1 0.169204 0
1 0.966983 0
0.599273 1 0.400727
1 0.696522 0
0.776784 1 0.223216
0.498774 1 0.501226
0.853366 1 0.146634
0.262973 1 0.737027
1 0.590263 0
1 5.96046e-08 0
1 5.96046e-08 0
1 0.842362 0
1 5.96046e-08 0
1 5.96046e-08 0
1 0.73158 0
0.447784 1 0.552216
1 0.202203 0
1 0.0993703 0
0.7588 1 0.2412
0.912617 1 0.0873834
0.600526 1 0.399474
1 5.96046e-08 0
1 5.96046e-08 0
1 5.96046e-08 0
1 5.96046e-08 0
0 0.639695 1
1 5.96046e-08 0
0.557992 1 0.442008
0.922715 1 0.0772848
0.347425 1 0.652575
1 0.554836 0
1 0.64915 0
1 5.96046e-08 0
1 5.96046e-08 0
0.562977 1 0.437023
0.575729 1 0.424271
1 5.96046e-08 0
1 5.96046e-08 0
0.814041 1 0.185959
0.359608 1 0.640392
1 0.0994129 0
1 5.96046e-08 0
1 0.76719 0
0.92232 1 0.0776796
0.166222 1 0.833778
1 0.184904 0
1 0.900771 0
1 5.96046e-08 0
1 5.96046e-08 0
1 0.963462 0
1 5.96046e-08 0
1 5.96046e-08 0
0.388676 1 0.611324
1 5.96046e-08 0
1 0.84623 0
0.0701698 1 0.92983
1 5.96046e-08 0
1 5.96046e-08 0
1 5.96046e-08 0
1 0.445766 0
0.824503 1 0.175497
1 0.579083 0
1 5.96046e-08 0
0.52308 1 0.47692
1 5.96046e-08 0
1 5.96046e-08 0
1 5.96046e-08 0
1 5.96046e-08 0
1 0.313403 0
1 0.916729 0
1 0.73461 0
1 5.96046e-08 0
1 5.96046e-08 0
1 5.96046e-08 0
1 0.174317 0
0.761625 1 0.238375
1 0.585451 0
1 0.0703318 0
0.748558 1 0.251442
0 0.822925 1
1 0.173344 0
1 5.96046e-08 0
1 0.296409 0
1 5.96046e-08 0
1 5.96046e-08 0
1 5.96046e-08 0
1 0.0913903 0
1 5.96046e-08 0
1 5.96046e-08 0
0 0.679727 1
1 0.675025 0
1 5.96046e-08 0
1 0.989221 0
0.371429 1 0.628571
1 5.96046e-08 0
1 0.688565 0
1 5.96046e-08 0
0.132188 1 0.867812
1 5.96046e-08 0
0 0.619826 1
0.0848082 1 0.915192
0.736103 1 0.263897
1 0.249584 0
0.87452 1 0.12548
0.195382 1 0.804618
0.344295 1 0.655704
0.0541382 1 0.945862
0.00586501 1 0.994135
1 5.96046e-08 0
0.935453 1 0.0645471
1 0.926488 0
0.364677 1 0.635323
0 0.906696 1
1 5.96046e-08 0
1 5.96046e-08 0
1 5.96046e-08 0
1 0.147496 0
1 5.96046e-08 0
1 0.613243 0
0.116383 1 0.883617
1 5.96046e-08 0
1 5.96046e-08 0
0.820375 1 0.179625
1 0.725813 0
1 5.96046e-08 0
1 5.96046e-08 0
1 5.96046e-08 0
0.987378 1 0.0126216
1 5.96046e-08 0
0 0.602799 1
1 5.96046e-08 0
1 5.96046e-08 0
1 0.352772 0
1 0.772804 0
1 5.96046e-08 0
0 0.633605 1
1 5.96046e-08 0
0.491337 1 0.508663
1 5.96046e-08 0
1 0.700203 0
1 5.96046e-08 0
1 5.96046e-08 0
1 5.96046e-08 0
1 5.96046e-08 0
1 0.730747 0
1 0.953409 0
0 0.827937 1
1 0.189817 0
0.778557 1 0.221443
0 0.267522 1
1 5.96046e-08 0
0.266672 1 0.733328
0.627423 1 0.372577
1 5.96046e-08 0
1 0.945183 0
1 0.961964 0
0.852166 1 0.147834
1 5.96046e-08 0
0.798983 1 0.201017
0 0.116308 1
1 5.96046e-08 0
1 0.755077 0
0.434105 1 0.565895
1 5.96046e-08 0
1 0.808348 0
0 0.826622 1
1 5.96046e-08 0
1 0.0391887 0
1 5.96046e-08 0
1 5.96046e-08 0
1 0.26048 0
1 5.96046e-08 0
0.333941 1 0.666059
1 5.96046e-08 0
0.519281 1 0.480719
1 0.857866 0
1 5.96046e-08 0
0 0.557471 1
0.197242 1 0.802758
1 5.96046e-08 0
1 0.585891 0
0 0.631095 1
0.776679 1 0.223321
1 5.96046e-08 0
1 5.96046e-08 0
1 0.221917 0
1 5.96046e-08 0
0 0.635139 1
0.693494 1 0.306506
0 0.72785 1
0.821402 1 0.178598
1 0.29506 0
1 0.047789 0
1 0.14584 0
1 0.366538 0
0 0.845722 1
1 5.96046e-08 0
1 5.96046e-08 0
1 5.96046e-08 0
1 0.26668 0
1 0.945917 0
1 0.7302 0
1 0.513625 0
1 0.457577 0
0.967366 1 0.0326335
0.342984 1 0.657016
0 0.621397 1
0.949494 1 0.0505057
0.558269 1 0.441731
0.648408 1 0.351592
1 5.96046e-08 0
1 5.96046e-08 0
1 0.239195 0
1 0.172513 0
0 0.352798 1
1 5.96046e-08 0
0.503804 1 0.496196
1 0.425251 0
0 0.767572 1
1 5.96046e-08 0
1 5.96046e-08 0
1 0.428755 0
0.0694364 1 0.930564
0.726739 1 0.273261
1 0.70828 0
1 5.96046e-08 0
0.2572 1 0.7428
1 0.967911 0
0 0.503826 1
1 0.474605 0
0.723093 1 0.276907
0.30379 1 0.69621
1 0.49654 0
1 5.96046e-08 0
1 5.96046e-08 0
1 5.96046e-08 0
1 5.96046e-08 0
1 0.267305 0
1 5.96046e-08 0
1 0.10972 0
1 0.426234 0
1 0.457416 0
1 5.96046e-08 0
1 0.273592 0
0 0.430885 1
0 0.884989 1
0 0.742507 1
0 0.707657 1
0 0.254554 1
0.320401 1 0.6796
1 5.96046e-08 0
0 0.178114 1
1 0.82725 0
0 0.774496 1
0.941576 1 0.0584239
0 0.351135 1
0 0.583448 1
1 0.857171 0
0 0.788838 1
1 5.96046e-08 0
0.190486 1 0.809514
1 5.96046e-08 0
0 0.375196 1
1 5.96046e-08 0
0.834428 1 0.165572
1 5.96046e-08 0
0.302336 1 0.697664
1 0.599768 0
1 0.315624 0
1 5.96046e-08 0
1 0.335985 0
0 0.666201 1
0 0.369574 1
0 0.853756 1
1 0.744534 0
0.0651961 1 0.934804
0.668962 1 0.331038
1 5.96046e-08 0
0 0.417089 1
1 0.840845 0
1 5.96046e-08 0
0.92852 1 0.0714799
0.846447 1 0.153553
1 0.925893 0
1 0.591219 0
0.543126 1 0.456874
0 0.564962 1
1 0.125294 0
0.682561 1 0.317439
1 0.627217 0
1 0.0973828 0
1 0.679158 0
0 0.739966 1
0 0.55374 1
1 0.550931 0
0 0.712055 1
0 0.48263 1
0 0.65777 1
1 0.717324 0
0.00412166 1 0.995878
0 0.459637 1
0.776219 1 0.223781
1 0.884525 0
1 5.96046e-08 0
0 0.504662 1
1 0.957284 0
1 0.425171 0
0 0.695039 1
0 0.245484 1
1 0.823333 0
0 0.765067 1
0 0.447811 1
0 0.836198 1
0 0.868371 1
1 5.96046e-08 0
0 0.434392 1
1 0.481572 0
1 5.96046e-08 0
0.263219 1 0.736781
0 0.92608 1
1 5.96046e-08 0
1 0.8201 0
0 0.284913 1
0 0.428062 1
0 0.454983 1
0 0.345686 1
0.750288 1 0.249712
0.86929 1 0.13071
0.404327 1 0.595673
0 0.830403 1
0 0.739413 1
1 0.0423025 0
0 0.594091 1
1 0.297869 0
0 0.277952 1
0.00965947 1 0.990341
0 0.633811 1
1 5.96046e-08 0
0.83583 1 0.16417
0 0.877736 1
0 0.995678 1
0.50994 1 0.49006
0 0.414091 1
1 0.697137 0
1 0.452052 0
0 0.424268 1
0.706649 1 0.293351
0.701132 1 0.298868
0 0.797165 1
