# vtk DataFile Version 3.0
Particle simulation
ASCII
DATASET POLYDATA
POINTS 400 float
1.01806 0.391741 7.48728
3.47532 0.398521 6.94519
8.96743 9.3344 4.99951
5.77502 1.54418 5.1495
8.93059 8.20559 9.5895
5.21462 1.00423 4.75134
5.1507 3.5423 0.340586
8.75245 2.64791 3.37653
0.857804 3.76826 6.02241
6.76675 9.59886 2.64115
2.20509 6.34559 0.532186
5.24164 10 3.60135
5.33474 3.58706 4.29796
5.82326 5.11888 0.143149
5.83871 10 8.29777
6.49098 5.02196 10
8.38889 0.854003 7.08444
3.57279 0.450316 0.559643
1.79726 7.31473 6.23371
4.75259 3.83596 7.52532
2.91759 0.547046 0.681279
0.188639 0 1.85991
1.15608 7.56255 3.70181
5.49521 5.38468 1.61727
1.18574 9.17327 8.7893
9.06435 6.31609 0.591493
7.88164 7.99986 6.23384
8.91191 0.285852 5.64282
9.3849 5.62594 8.67241
8.36552 6.64008 0.222635
5.59634 7.21684 7.55448
3.22888 8.01578 0.615035
8.73301 7.44551 7.32467
2.24971 10 6.91389
0.521353 7.08549 3.33357
4.76108 7.99663 7.12647
6.1203 4.84342 2.89163
2.97142 0.457618 0.564086
1.27657 3.34306 1.90086
3.56211 0.0351498 8.79005
7.89227 8.95264 3.79198
8.26311 8.29881 2.95594
9.76841 7.76131 4.67826
9.28518 0.249848 0
5.65347 0.921037 0.253774
2.16133 6.97174 4.26039
5.15551 1.96752 8.75085
8.39918 2.60168 9.906
7.04294 0.733534 0.282998
5.27387 0.40725 7.58226
5.19214 7.95498 6.81196
4.37944 8.94841 0.351928
9.21156 5.29029 8.15144
8.86759 1.11467 3.55548
0.559878 2.6855 5.25515
6.52732 0.484908 0.979423
6.49494 1.60195 7.6789
7.12093 5.23206 3.99808
5.42678 1.56075 5.56805
0.891154 4.64492 5.83864
0.505659 9.95063 8.48879
8.30467 1.38805 6.26635
4.73925 2.57482 2.58561
0.360563 2.36459 10
3.0966 7.29639 0.0526745
9.31615 9.60918 3.22964
2.91795 0.335916 2.35361
8.60671 8.78489 3.52482
8.91867 9.1751 2.46303
7.49069 9.38215 3.08736
3.12568 3.94895 4.75346
8.74407 5.34672 0.156501
4.99463 10 3.97612
2.11884 5.97733 0.266432
8.62123 6.64069 10
5.25961 4.94921 7.9387
4.56363 4.44369 1.21548
5.62241 7.12963 4.18485
5.17937 7.19413 3.63497
7.89751 7.25405 1.89617
3.05327 0.147139 0.779918
6.13932 4.52889 4.34427
2.34183 0.362775 8.85714
0.484376 5.12268 3.88315
5.36517 3.02191 6.53886
0 4.85107 8.55467
1.69895 2.77924 2.64811
2.10747 2.22724 5.59471
4.26707 2.99564 8.61371
2.79384 8.97185 3.09197
3.22632 0.602654 0.869476
9.4491 5.70038 4.33032
4.65511 7.73183 8.8132
1.28681 0.151845 9.26117
1.09094 5.12309 1.07172
9.37157 9.77256 6.95657
4.44584 3.39284 8.43946
8.93988 5.31868 2.9879
0.981427 0.920326 6.09164
8.91121 2.24867 5.59178
3.63708 0.136227 1.18508
8.59216 0.834604 9.38578
1.03433 0.507258 2.76444
1.64459 7.48011 6.25015
9.54852 4.88841 7.66244
6.04857 0.619082 9.54929
4.05673 3.68917 2.58881
7.41692 0.595742 3.52625
9.58338 0.0499402 0.571654
7.69157 5.01425 7.43429
4.19696 0 0.517313
4.87624 0.327847 2.17714
9.0491 5.88342 4.04838
0.169599 1.23552 0.794217
3.1027 0.606502 1.72247
6.1998 3.00083 4.13615
4.39165 0.259531 9.11798
7.16584 2.20385 0.707577
8.86026 2.69439 2.85886
2.93285 9.12872 3.57053
3.48373 0.184264 0.867301
2.10718 5.47151 7.82756
8.15236 5.21123 8.01175
8.18581 0.60056 9.56885
4.73528 5.99718 9.21304
3.09637 0.167741 0.559528
1.83184 7.94698 6.67508
0.620352 1.10534 8.08982
9.41717 0.906899 9.14114
0.755402 7.35027 2.75974
1.06496 4.56404 6.69997
0.290809 1.2775 0.557876
3.94536 0.866715 3.8983
8.69878 9.67034 0.473969
1.66876 0.762281 6.03572
0.405597 2.76394 1.23363
4.97484 3.82449 4.91863
3.62839 1.00345 5.82218
7.51652 9.45783 8.51083
5.58187 2.79355 4.53531
3.11002 0.426868 0.665274
2.58046 0 0
6.20743 2.33446 0.238884
8.5979 1.93839 0.411659
3.18888 0.641576 1.64029
8.94825 1.81435 9.41258
5.45828 0.523365 1.5806
0.837683 2.06542 6.8091
9.2175 4.83966 0.22914
3.19502 0.755478 0.823496
3.21128 0.521774 0.640571
2.43452 1.35594 8.03273
2.24022 1.48026 7.91811
3.66736 0.51681 0.154374
1.19517 1.0475 3.83965
6.83604 1.01442 0.701017
7.26381 3.66974 4.48005
4.93668 0.156747 5.76234
9.53522 3.00185 9.25856
2.5252 0.603018 6.65677
6.32208 0.769858 1.06539
7.33204 1.07055 9.40786
4.44365 2.70772 6.92837
6.86079 0.252558 3.16802
8.31543 5.70615 0.141066
6.37582 0.79377 2.97468
5.29632 3.8816 4.93398
2.55584 5.06448 2.93218
3.07707 0 4.93883
1.29002 1.72698 5.878
3.55221 0.497263 1.19965
5.36743 2.60926 4.06238
7.73595 0 1.57585
7.39025 9.57483 5.37156
0.978559 0.272451 5.74681
3.71153 3.67947 5.0085
1.92966 1.38153 7.58954
0.330706 5.79123 1.83499
1.64562 1.35635 3.87138
7.63551 8.39213 1.46432
3.66093 0.431973 0.743511
6.66361 8.14263 6.93303
4.98668 4.22105 6.91881
0 3.82792 8.99695
3.73016 3.76089 5.21173
6.9461 4.27333 7.97628
3.53587 0.311065 1.09511
3.67592 8.30244 1.70469
7.61236 0.338222 0.311029
3.08035 0.410923 0.119401
3.22218 0.645719 0.84356
3.59038 0.341888 0.841916
8.92643 9.56769 1.82652
1.84774 7.41207 8.72414
5.26421 1.53466 9.34257
3.29238 0.585104 0.906891
0.616127 1.47127 3.01929
4.90644 0.126116 5.44024
3.37405 0.41036 0.513848
3.18685 0.4846 1.13339
3.51944 0.452483 0.442785
6.60936 0.572848 0.370403
0.105683 1.01656 3.525
4.10837 0.749432 6.56254
0.917585 5.31222 9.59236
2.98761 0.52034 6.73246
3.41179 0.437266 0.791721
8.14441 1.0984 7.34767
6.8431 1.32092 3.15653
1.90877 4.89623 4.42846
3.34415 0.50791 0.798159
3.57852 0.19307 0.985724
0.375948 8.31058 9.26058
9.37194 0.940435 9.40845
2.50088 6.11099 5.39152
3.82551 0.330077 9.12005
2.86837 0.774155 0.504308
2.98965 0.534153 0.676565
0.438867 0.432034 5.82884
3.22093 0.894503 1.79663
6.66909 2.76136 0.70599
5.44647 7.15552 4.67091
3.96458 0.520012 6.56168
3.7965 0.262689 0.731051
2.4582 4.68431 0.353378
3.99513 1.68606 4.43757
2.23544 1.8578 1.86057
3.94023 0.0404295 1.08668
3.51908 0.687156 0.597232
9.91479 6.90299 1.02905
9.47679 0.737398 7.66588
1.11043 0.289612 9.43306
2.12568 0.378765 0.812521
3.30412 0.364112 0.838663
3.90316 0.341255 8.30593
1.1191 3.58434 4.33914
9.72004 3.34723 8.97868
1.64109 0.837363 6.67212
3.25041 0 1.17854
2.107 2.93039 9.46831
3.24698 0.419822 0.626231
3.92852 0.176724 1.51956
3.07555 0.413071 0.37485
2.84068 0.262098 0.507677
4.3697 0.116487 9.46054
1.1293 5.47183 3.60531
0.838171 0.291811 5.64172
0.0787239 1.01144 2.98099
1.71901 7.04125 3.58822
1.8823 2.12364 6.73649
3.68384 0.518842 0.891435
2.83573 9.32095 3.87666
3.6135 0.486491 8.83511
6.8853 0.579332 3.23029
6.48512 0.401451 1.09707
3.43335 0.51974 1.31801
7.35323 1.39353 4.60285
3.94939 0.289445 8.43085
0.762766 5.55719 7.3816
3.97743 0.317951 8.40251
3.07397 0.342515 0.895918
9.37628 9.16805 0.023721
4.02539 0.667738 6.53722
4.30455 3.91266 3.66263
4.07965 0.118481 8.29798
9.08736 7.63167 3.1779
6.57373 0.108181 1.44441
4.02396 0.439723 8.84223
5.02336 1.59806 2.30852
2.81269 0.466191 0.462991
3.25839 0.200807 0.580495
8.08013 7.5984 2.03889
3.7931 7.44343 8.06383
3.38859 3.59366 2.52883
7.31708 5.04215 7.25271
3.92078 0.420883 6.62459
4.24534 4.05503 1.45236
8.98797 3.99321 6.88816
4.96925 3.61432 3.0597
3.23963 0.278601 0.900855
5.81298 0.00123057 1.46277
6.9736 0.661081 0.672548
8.87539 3.39817 7.127
5.61069 1.68855 3.02319
7.80232 2.04184 4.07181
9.40819 0.524765 1.05154
3.32102 0.0711294 0.732343
5.4709 1.26156 7.68209
9.3596 7.56182 7.59563
1.47826 5.45435 4.83986
6.68109 0 9.65288
9.05296 0.363657 1.38697
4.02679 0.207765 1.4245
0.840314 0.39823 7.79367
4.19854 0.578468 9.14517
4.34433 0.236862 9.06689
3.18236 0.376031 1.01766
3.36988 0.27513 0.50151
7.58056 5.18362 7.52405
2.96408 0.552967 1.17075
0.266009 3.33346 4.46297
3.88797 0.882521 6.4188
9.23035 2.52922 4.9494
7.49029 7.6032 0.189522
3.59657 0.169208 0.579475
0.289319 0.768513 7.30306
3.32039 0.27818 0.0864053
3.17113 0.216845 0.836741
0.342937 1.28947 3.38642
4.26606 4.05947 1.3877
2.76531 0.597906 9.0128
1.33042 0.872539 4.81803
4.57664 1.37103 2.09944
2.97887 0.291918 0.757297
9.02071 1.7262 9.27322
0.783198 0.374511 7.61191
3.87814 2.97015 7.54461
1.50754 5.53387 7.16623
7.69676 1.39015 4.6288
7.36189 6.19418 1.45163
3.77074 0.503131 8.47256
1.58004 0.615949 4.74064
4.15254 0.257701 8.53368
3.90442 0.271508 0.575144
5.74413 0.00199522 1.46082
6.04196 3.20867 1.11891
3.16388 0.66013 0.270776
4.19505 0.963672 4.55319
4.8075 9.56238 3.72918
3.23142 0.419853 0.83104
9.88796 7.05446 2.9567
3.14555 0.580064 0.409956
4.25492 0.453432 8.73099
3.19078 0.36172 1.29229
6.97003 0.317259 0.708544
4.65122 2.41818 4.96852
1.05722 5.34716 7.4798
3.00522 0.309469 0.88757
0 1.77858 6.44531
5.49215 0.107108 8.43864
3.28063 0.503915 6.19787
7.31191 0.784128 9.55475
4.40338 0.605831 8.68735
3.97808 0.429581 8.45378
3.26314 0.31084 0.717723
3.34928 0.290827 0.822884
6.74189 0.179029 0.411229
2.94744 0.390372 0.844956
3.48394 0.0668525 0.338011
9.46073 2.74345 9.33018
2.79192 0.00563785 0.235477
2.92484 0.398507 0.862605
4.52757 0.353363 8.56605
3.69906 0.340463 8.48523
3.18311 0.169015 0.259051
3.02099 0.305907 0.597746
6.46 0.26782 1.20869
4.47568 0.205304 8.14442
2.70339 0.580228 1.06509
3.31165 0.367891 0.946508
6.83065 0.698095 0.809689
4.04209 0.416771 8.36752
3.93263 0.0751363 8.89766
3.47499 0.49491 0.710426
2.76339 0.633299 0.807
6.36813 0.32089 1.04236
3.99069 0.153771 8.52063
1.72801 0.722481 9.40634
3.99005 0.527399 8.22195
5.99503 3.20605 1.31369
6.81389 0.595614 0.906423
1.25902 1.6252 5.78094
4.68251 0.304544 8.66547
2.97489 0.269613 0.954316
3.94439 0.349459 0.508099
6.79049 0.295109 0.383279
4.03772 0.342917 8.31632
3.77291 0.0703131 9.10304
3.98227 0.407753 8.56667
3.43863 0.631172 0.658993
3.47573 0.331097 1.10702
3.33956 0.509807 0.873508
4.05783 0.247912 8.61614
2.71971 0.33582 0.626044
0.430738 0.609497 7.46431
4.15583 0.481425 8.71444
3.14461 0.53096 1.06049
3.00869 0.407184 0.663086
5.7411 3.31882 8.41946
7.10738 0.195429 0.614412
3.58036 0.553966 0.861428
3.59418 0.454471 0.686296
4.54455 0.474586 8.69399
3.56289 0.181049 0.946424
0.387934 1.18756 7.23241
3.99395 0.614478 9.05112
3.14584 0.507617 1.10464
1.00119 0.2657 5.26769
6.96013 0.357191 0.997701
7.04463 0.346583 0.676437
POINT_DATA 400
SCALARS particleColor float 3
LOOKUP_TABLE default
0.170781 1 0.829219
0.509863 1 0.490137
0 0.498516 1
0.430287 1 0.569713
1 5.96046e-08 0
0.633672 1 0.366328
1 0.513943 0
1 0.623614 0
0.212066 1 0.787934
1 5.96046e-08 0
1 5.96046e-08 0
0.485851 1 0.514149
1 5.96046e-08 0
0.429543 1 0.570457
1 5.96046e-08 0
1 5.96046e-08 0
1 5.96046e-08 0
0 0.183826 1
0.490753 1 0.509247
0 0.955788 1
0 0.543405 1
0.762075 1 0.237925
1 5.96046e-08 0
0.596903 1 0.403097
1 5.96046e-08 0
1 5.96046e-08 0
0 0.497658 1
0.259466 1 0.740534
0.467269 1 0.532731
1 0.522364 0
1 5.96046e-08 0
0.496925 1 0.503075
0.860738 1 0.139262
1 0.723311 0
0.541532 1 0.458468
1 5.96046e-08 0
0.257273 1 0.742727
0 0.692649 1
0.972596 1 0.0274042
0 0.851233 1
1 5.96046e-08 0
0 0.919127 1
1 0.840461 0
0.180924 1 0.819076
0.000231645 1 0.999768
0 0.922471 1
0.0976015 1 0.902398
0 0.776054 1
0 0.846332 1
0.588912 1 0.411088
1 0.942029 0
1 0.976679 0
0 0.99105 1
0.614704 1 0.385296
0 0.786078 1
0 0.334131 1
0.104742 1 0.895258
0 0.480374 1
0.0178316 1 0.982168
0.834123 1 0.165877
0 0.691844 1
1 5.96046e-08 0
0.266734 1 0.733266
1 5.96046e-08 0
0.399884 1 0.600116
0.576748 1 0.423252
0.194408 1 0.805592
1 5.96046e-08 0
1 5.96046e-08 0
0.361554 1 0.638446
0.267183 1 0.732817
0.536292 1 0.463708
0.247027 1 0.752973
1 5.96046e-08 0
0.586437 1 0.413563
1 0.749602 0
0 0.496092 1
0 0.592513 1
0.570457 1 0.429543
0.195647 1 0.804353
0 0.297991 1
1 0.568873 0
1 0.814208 0
0 0.826347 1
0.935333 1 0.0646674
0.0295888 1 0.970411
1 0.436765 0
1 5.96046e-08 0
0 0.938862 1
0.462421 1 0.537579
0 0.623406 1
0.58036 1 0.41964
0.995561 1 0.00443858
0 0.321953 1
0.595659 1 0.404341
0.750045 1 0.249955
1 0.282985 0
0 0.973534 1
0 0.773847 1
0.524493 1 0.475507
0 0.20822 1
0.362372 1 0.637628
0.145881 1 0.854119
0.909655 1 0.0903447
0.186359 1 0.813641
1 0.974404 0
0.550551 1 0.449449
0.340155 1 0.659845
1 0.461439 0
1 5.96046e-08 0
1 5.96046e-08 0
1 0.620523 0
0 0.719646 1
0.110885 1 0.889115
0 0.514473 1
1 5.96046e-08 0
0 0.726143 1
0 0.951363 1
0 0.837206 1
1 0.116651 0
0 0.600999 1
0.857939 1 0.142061
0.46855 1 0.53145
0.770658 1 0.229342
0.489672 1 0.510328
0 0.337955 1
0.612554 1 0.387446
0 0.378285 1
0.0836918 1 0.916308
1 5.96046e-08 0
0.884984 1 0.115016
1 5.96046e-08 0
0 0.882296 1
0.46276 1 0.537241
0.259418 1 0.740582
0 0.558139 1
0.855528 1 0.144472
0 0.781893 1
0 0.740315 1
0.475707 1 0.524293
0 0.853037 1
1 5.96046e-08 0
0 0.962656 1
1 0.338542 0
0 0.696352 1
0.127349 1 0.872651
0 0.736391 1
0.549528 1 0.450472
0.521854 1 0.478146
0.340234 1 0.659766
0 0.512762 1
0 0.748189 1
0.1771 1 0.8229
0 0.499293 1
1 5.96046e-08 0
0 0.623283 1
1 0.756496 0
0.61746 1 0.38254
0.394516 1 0.605484
1 5.96046e-08 0
0.966905 1 0.0330952
0.590146 1 0.409854
0.0893764 1 0.910624
1 0.00182432 0
0.0523783 1 0.947622
1 5.96046e-08 0
1 5.96046e-08 0
1 5.96046e-08 0
1 0.718273 0
0 0.73004 1
0 0.658146 1
0 0.927342 1
1 0.862687 0
1 5.96046e-08 0
0 0.370302 1
1 0.571075 0
0 0.823637 1
0.0298708 1 0.970129
0.097826 1 0.902174
0.303164 1 0.696836
0 0.215016 1
1 0.541849 0
1 0.457143 0
1 5.96046e-08 0
1 0.476499 0
0.15823 1 0.84177
0 0.575618 1
1 0.999031 0
0.101888 1 0.898112
0.118661 1 0.881339
0 0.357871 1
0 0.827492 1
1 0.525594 0
1 5.96046e-08 0
0.361962 1 0.638038
0 0.538372 1
0 0.850662 1
0 0.897182 1
0 0.61979 1
0 0.399784 1
0 0.493461 1
0 0.399483 1
0.931175 1 0.0688251
0 0.586196 1
1 5.96046e-08 0
0 0.703636 1
0 0.925985 1
1 0.780777 0
0.153962 1 0.846038
1 5.96046e-08 0
0 0.585062 1
0 0.917778 1
1 0.137295 0
0.287932 1 0.712068
1 5.96046e-08 0
0 0.401516 1
0 0.42373 1
0 0.766872 1
1 5.96046e-08 0
0 0.599663 1
0.366428 1 0.633572
1 0.124133 0
0 0.840559 1
0 0.829124 1
1 5.96046e-08 0
0 0.0944498 1
0.690308 1 0.309692
0 0.233319 1
0 0.280239 1
0 0.953965 1
0 0.896389 1
0.215935 1 0.784065
0.301092 1 0.698908
0 0.951359 1
0 0.485987 1
0 0.865521 1
0.612874 1 0.387126
0.308946 1 0.691054
0 0.674738 1
1 0.701421 0
0 0.517075 1
0 0.560863 1
0 0.135689 1
0 0.53158 1
0 0.744939 1
1 5.96046e-08 0
0 0.583451 1
0 0.707849 1
1 5.96046e-08 0
0 0.730982 1
0 0.727618 1
0.798034 1 0.201966
0 0.147154 1
0.0315592 1 0.968441
0 0.429189 1
0 0.35045 1
0 0.343774 1
0 0.295027 1
0 0.874522 1
0 0.360279 1
0 0.64716 1
1 0.992731 0
0 0.771031 1
1 0.539563 0
0 0.986903 1
1 0.756282 0
0 0.502836 1
0 0.511217 1
0.419324 1 0.580676
0 0.451441 1
0 0.61523 1
0 0.8741 1
0 0.492994 1
0.0306483 1 0.969352
0.591051 1 0.408949
0.208201 1 0.791799
0 0.296213 1
1 0.268165 0
0.0525005 1 0.9475
0 0.659429 1
0 0.608346 1
0 0.663926 1
0.102092 1 0.897908
0.934014 1 0.0659858
1 5.96046e-08 0
0 0.969619 1
0 0.171239 1
0.818627 1 0.181373
0.340019 1 0.659981
1 5.96046e-08 0
1 5.96046e-08 0
0.490988 1 0.509012
0 0.223411 1
0 0.27333 1
0 0.989136 1
0 0.36332 1
0 0.741771 1
0 0.749081 1
0.326407 1 0.673593
0 0.576236 1
0 0.476074 1
0 0.799687 1
1 0.794743 0
1 5.96046e-08 0
0 0.45956 1
0.0739845 1 0.926015
0 0.60879 1
0 0.554225 1
0 0.77061 1
0 0.888856 1
0.149247 1 0.850753
0.0426074 1 0.957393
0 0.783172 1
0 0.601873 1
0 0.856838 1
0.195076 1 0.804924
0.574207 1 0.425793
0 0.592314 1
0.463492 1 0.536507
0 0.506457 1
0 0.61097 1
0.0553181 1 0.944682
0 0.923626 1
0 0.727225 1
0 0.515461 1
0.296396 1 0.703604
0 0.723837 1
0.94787 1 0.0521299
1 0.648962 0
0 0.826471 1
1 0.908663 0
0 0.692137 1
0 0.275693 1
0 0.912762 1
0 0.660948 1
1 0.566936 0
0 0.433883 1
0 0.434829 1
0.60318 1 0.39682
0 0.463606 1
0.359104 1 0.640896
0 0.295178 1
0 0.611206 1
0 0.559338 1
0 0.570884 1
0 0.818806 1
0 0.668248 1
0 0.449148 1
0.097277 1 0.902723
0.602358 1 0.397642
0 0.475297 1
0 0.701676 1
0.294319 1 0.705681
0 0.7616 1
0 0.602397 1
0 0.835414 1
0.0974763 1 0.902524
0 0.876551 1
0 0.743946 1
0 0.917453 1
0 0.445253 1
0 0.470967 1
0 0.347395 1
0 0.990243 1
0 0.685474 1
0.0337094 1 0.966291
0 0.498704 1
0.902408 1 0.0975919
0.133721 1 0.866279
0.206863 1 0.793137
0 0.403638 1
0 0.66312 1
0 0.480203 1
0 0.93279 1
0 0.475343 1
0 0.819592 1
0 0.755724 1
0 0.873416 1
0.286119 1 0.713881
0 0.78005 1
0 0.859151 1
0 0.880633 1
0 0.922448 1
0 0.905919 1
0 0.637235 1
0 0.199319 1
0 0.348309 1
0 0.244903 1
0.0302725 1 0.969728
0 0.35699 1
0 0.760759 1
0 0.194441 1
0 0.342152 1
0 0.383912 1
0 0.511368 1
0 0.465631 1
0 0.465941 1
0 0.872449 1
0.101525 1 0.898475
0 0.336923 1
