# vtk DataFile Version 3.0
Particle simulation
ASCII
DATASET POLYDATA
POINTS 400 float
1.24857 0.529125 1.04103
1.54548 0.419828 1.47237
2.48389 0.881264 1.85057
1.8878 0.240109 1.6845
8.59789 0.884623 4.46798
4.93228 1.9738 4.67631
9.21427 3.17495 0.721773
2.29054 4.35437 3.31596
6.07166 0.456779 0.989179
8.57491 0.279741 2.19307
1.8105 0.411024 1.87837
1.65949 0.456085 0.801235
1.50579 0.404221 2.02914
1.85806 0.213487 1.66994
8.54731 0.787161 4.48114
4.25066 5.33555 7.40259
5.30696 0.0994578 1.9997
2.18578 0.579964 2.78227
9.46768 0.229666 0
8.65783 0.270936 2.17742
2.18864 0.786443 1.16987
6.91184 0.582871 4.69714
1.7993 2.36458 6.32191
8.31446 0.259747 1.98717
3.80331 1.53184 5.99577
1.96112 0.744577 0.623533
6.32591 0.816918 7.73164
2.69295 0.704085 2.10194
4.94798 0.0511998 3.78515
2.16491 0.425963 1.51329
6.78074 0.419434 0.942783
9.09095 0.58413 1.0257
5.26793 8.37261 8.48097
8.24915 0.231813 1.97565
1.17554 1.76604 2.12287
1.91009 0.698045 0.70488
5.99781 0.59541 7.55467
1.80712 0.367397 2.8179
4.88195 0.298638 1.55293
2.16697 0.819599 0.890807
1.16887 0.232943 0.860088
4.77997 0.225532 0.857971
4.35672 0.441692 3.97575
8.9077 0.27172 2.4842
5.67193 0.6943 6.70338
4.63817 0.194549 2.20896
3.71816 1.31838 1.84807
2.03297 1.21084 3.0651
4.46699 0.203062 1.91607
6.92714 0.0821185 4.37911
0.9359 0.240348 0.959434
4.75459 0.174652 0.787251
3.97565 0.360079 2.88098
8.92394 0.276193 2.51678
5.66602 0.714557 6.67973
4.59531 0.200664 2.22854
3.34775 0.34942 6.65034
2.27617 0.407135 2.74645
4.43292 0.176794 1.96362
4.84807 0.540394 8.43518
5.2378 1.14581 2.95381
2.86169 0.736714 3.128
4.7871 0.886148 8.25204
8.32501 1.10597 1.71395
5.5952 0.520273 7.96196
4.88937 0.683515 7.82157
3.53237 0.511223 3.51005
0.970097 0.338603 0.64976
4.54438 0.050128 2.05411
3.58738 0 6.62374
5.28622 1.00541 3.18736
1.96288 0.431197 1.47871
4.44194 0.629331 5.98939
8.32993 1.12906 1.71254
5.73753 0.484459 7.78043
4.82124 0.177904 7.2728
3.5589 0.556176 3.5169
3.05027 0.38001 6.51008
4.59604 0.0888618 2.02661
3.65238 0.080188 6.67373
1.96161 0.551099 1.57605
1.92404 0.366701 1.43865
1.17286 0.820751 1.67591
2.34867 0.0494566 2.23204
4.66188 0.461452 6.96834
3.57168 0.255716 6.27271
5.34449 0.769938 6.86912
2.59087 0.401543 2.18308
2.34483 1.40427 9.36469
6.84884 0.574035 1.02665
1.58457 0.364445 1.13989
2.52959 0.888952 2.36225
4.69372 0.27284 1.11618
2.35095 0.0621577 2.21347
4.63466 0.430779 6.95983
3.55169 0.192908 6.27094
2.96228 0.443414 6.29102
1.60806 0.853693 3.04374
1.64335 0.169236 7.29724
6.83797 0.531377 1.06757
2.44103 0.2473 2.76896
7.43168 0.856659 0
2.10569 0.282198 1.50276
7.77552 0.419635 1.17368
8.69441 1.08814 2.40191
2.39505 0.516992 2.45823
3.0589 0.711122 6.39502
5.1488 0.331317 1.7591
4.428 0.177621 2.01292
6.65113 0.423465 1.22951
0.959908 0.205942 0.661852
8.3138 0.667329 1.78137
2.02668 0.307994 2.01521
6.94694 0.531031 0.96214
2.29755 0.106539 2.71512
2.35248 0.503056 2.29383
3.37584 0.626103 6.15036
4.15763 0.375266 2.00702
4.41496 0.156661 2.04256
2.28436 0.565445 2.88211
2.55133 0.109679 2.11668
4.98183 0.681784 1.15777
4.7686 0.48911 7.49431
4.74043 0.526897 3.55079
3.27482 0.416059 7.65524
2.29972 0.508414 1.77072
1.83856 0.265749 2.90566
8.63092 0.23165 2.11603
4.64721 1.20403 6.70184
2.38743 0.862601 2.23288
2.56198 0.103511 2.1255
4.85699 0.156813 1.73687
4.65609 0.149986 6.13907
4.85605 0.509256 3.48935
2.70561 0.462225 6.50022
1.50775 0.56364 1.03752
5.46683 0.561645 7.71467
8.63774 0.221228 2.08791
3.26775 0.0261305 6.18151
3.74666 1.11465 3.42938
1.99841 0.389716 1.7087
3.70363 0.737794 2.48638
1.52441 0.199652 2.34196
1.688 0.792314 1.02766
1.58472 0.273397 2.65914
1.90034 0.0237426 1.51729
5.20925 0.80055 7.93959
2.00057 0.403046 2.97279
2.2277 0.214404 2.34949
0.558951 0.2563 0.413713
2.00017 0.391947 1.71188
3.78258 0.650358 2.47003
1.22793 0.584488 1.54859
3.05949 0.310943 3.59597
1.45922 0.543323 1.64466
2.14953 0.197423 1.97403
5.18563 0.900601 7.8526
1.72766 0.585421 0.80682
3.43894 0.518627 3.19671
2.21844 0.496196 2.97896
1.78518 0.483891 1.11017
0.932959 0.561586 1.06488
4.72105 0.507137 6.3379
2.32843 0.779458 1.98543
0.888571 0.281387 0.930547
3.41862 0.532995 3.13574
3.13048 0.521067 6.42184
3.61001 0.259285 6.05997
5.65105 0.869282 6.71142
4.61188 0.211249 2.51006
1.7926 0.491315 1.04614
1.83715 0.931856 0.7509
4.72198 0.487469 6.60438
1.96922 0.620536 0.92493
1.49553 0.214995 1.19584
1.65024 0.811792 3.07793
3.48515 0.334996 6.34115
3.17802 0.609706 6.24238
3.60284 0.247521 6.36136
4.60506 0.219175 2.49568
2.1242 0.392776 0.902981
2.49529 0.599167 1.19299
6.48229 0.881985 7.47691
0.903519 1.3398 2.28772
3.12547 0.072551 6.54704
2.13252 0.437195 1.45227
2.46937 0.472261 2.24781
4.83748 1.05398 2.75771
1.7367 0.0626057 2.69482
1.88281 0.337025 1.06353
2.13882 0.396204 0.88698
1.82443 0.0791396 1.60155
5.02777 0.765225 6.64913
0.492597 1.1614 2.27965
3.51031 0.445129 6.22551
2.66586 0.390639 1.80021
2.4609 0.418113 2.23506
6.72033 1.79087 1.89112
1.6701 0.0795759 2.65835
2.04166 0.556526 0.782646
1.43607 0.127882 0.759974
4.57119 0.31704 1.68429
3.34292 0.0661984 6.69662
3.47751 0.622196 3.18286
5.80337 0.558493 8.07998
3.29229 0.557604 6.07461
2.25458 0.15846 2.4986
2.63478 0 2.12603
2.39813 0.482333 2.9768
7.29445 0.706149 1.14788
1.67947 0.639105 1.52591
5.46892 0.478149 1.94633
5.42918 0.789463 6.83351
3.22497 0.511345 3.23757
5.94109 0.611609 7.95921
3.25328 0.550428 6.04909
2.27204 0.159086 2.53023
2.34138 0.649124 2.15326
1.29197 0.318847 2.25759
7.11879 0.463235 1.27676
8.27011 0.764756 1.8312
1.53936 0.0414311 7.03575
4.46318 0.284911 6.59843
1.75599 0.172251 1.49685
4.76419 0.601763 6.34315
1.14371 1.34313 2.23122
5.66253 0.621926 6.00907
1.56125 0.324286 1.70503
1.64151 0.107236 1.21073
3.07286 0.269862 2.716
8.27941 0.69487 1.842
4.03439 0.160976 6.25452
5.64897 0.775588 8.03401
1.78039 0.144408 1.52919
4.7073 0.489246 6.3987
1.31387 1.6699 2.28146
6.33799 0.822246 7.44322
0.663588 1.78453 2.05119
1.26021 0.0679899 2.58008
2.62572 0.442995 2.32775
1.832 0.376496 1.64553
1.95662 0.128076 1.9306
2.39072 0.530546 2.64009
1.5503 0.100084 1.32541
3.38126 0.379549 6.35496
0.989594 0.232458 2.38476
2.50092 0.175736 2.58455
2.87176 0.47225 5.84835
4.33074 0.40344 1.98354
3.76175 0.28063 6.35846
1.8025 0.294991 1.68562
5.4685 0.246762 1.59091
3.51024 0.414581 6.82812
1.64446 0.0870561 1.30319
5.15084 0.482508 6.7096
1.29985 0.569159 2.54406
7.22409 0.308481 1.18984
4.91762 0.388941 6.62573
4.33346 0.373907 1.95551
3.76708 0.270196 6.30205
1.303 0.182838 2.09535
3.67757 0.542895 3.06204
3.4179 0.903878 3.15628
8.69704 0.354629 2.19433
5.9745 0.59635 7.84159
0.258277 0 0.972428
5.93142 0.611798 0.804079
3.4152 0.432187 6.22171
5.5784 0.136738 8.30602
1.65428 0.247276 2.45221
1.16691 0.212205 2.14944
3.66126 0.467015 3.23066
1.29648 1.42342 1.92184
8.16727 0.210469 1.85303
2.85575 0.642612 6.32827
2.59093 0.161162 6.6534
8.22895 0.6295 2.23724
5.97978 0.456316 6.00633
5.67585 0.122027 8.35662
1.63556 0.221026 2.30323
7.95406 0.554672 0.859715
4.60563 0.0646272 1.63924
4.41101 0.385457 1.54383
8.34753 0.707645 1.96418
6.60221 0.904769 7.21827
6.54349 1.00897 7.29903
2.80622 0.478856 2.51872
1.49956 0.864772 2.75815
3.58119 0.364517 3.21689
2.48094 0.175378 6.7366
7.82636 0.441841 0.972919
4.56182 0.07377 1.60568
2.36774 0.486873 1.51638
8.3582 0.739803 2.02138
3.28573 0.203543 6.61503
3.92255 0.0652452 6.86313
2.49339 0.332952 2.57252
1.13966 1.8619 2.33995
2.24564 0.353455 2.06362
2.05238 0.574167 1.81599
7.35531 0.540624 0.962712
3.17955 0.494002 3.19509
2.59811 0.561491 1.77747
4.37986 0.201153 2.30313
0.764285 0.260087 0.730466
4.74853 0.794591 1.41634
2.06149 0.333529 2.31125
1.92615 0.675352 2.94943
1.18569 0.220528 2.64398
2.01571 0.619628 2.65869
8.48047 0.475117 2.16836
3.30933 0.506627 3.26563
5.57279 0.554533 6.72308
1.72272 0.23054 1.77745
0.77407 0.230746 0.715315
6.89538 0.614978 0.946955
2.31485 0.244479 2.415
3.6185 0.943133 3.47923
4.30264 0.173683 1.75491
1.85774 0.516515 2.36949
3.47366 0.50245 3.43395
1.1337 2.01204 2.31505
3.64287 0.332179 7.01682
1.82861 0.855838 0.881642
7.08074 0.708992 1.17833
7.02999 0.553122 1.46312
2.05913 0.851265 2.82379
4.84815 0.235158 1.69249
6.72867 0.237878 0.792679
2.57676 0.0772939 2.67372
3.46125 0.669897 3.53377
1.86047 0.244293 1.90505
3.56913 0.288459 6.92972
1.83036 0.877539 0.909672
7.01876 0.640963 1.13276
3.78726 0.536895 3.19926
2.19274 0.884122 2.88298
1.15073 0.420937 1.47539
6.68522 0.523315 0.930456
2.17089 0.173012 2.79279
3.42494 0.281408 3.06718
1.72366 0.559451 1.47696
4.87189 0.770812 7.11374
3.61272 0.525685 2.99275
1.85737 0.524676 1.54729
2.75343 0.0385516 2.58523
4.72756 0.389131 1.65284
2.56229 0.4 2.5081
2.66778 0.127169 2.47167
1.48018 0.365372 3.13735
1.87143 0.676847 0.892706
1.67988 0.69492 1.53949
4.82494 0.576878 6.63286
3.60931 0.53623 2.97719
1.88998 0.482785 1.4845
2.04579 0.380189 2.73379
4.86198 0.351947 1.72795
3.53892 0.109287 7.06891
2.71601 0.0756867 2.61395
1.92977 0.0740302 2.42851
4.75683 0.219437 1.5743
3.58593 0.466873 2.68028
4.64983 0.232629 6.8383
2.43018 0.651524 2.68675
2.48815 0.807127 3.03393
5.63144 0.690422 6.78331
3.39326 0.321147 6.24096
3.25008 0.582816 6.08095
3.17014 0.0730243 6.09253
1.7747 0.0956598 1.79522
4.77144 0.199711 1.56223
3.52335 0.424392 2.64012
4.63996 0.704707 6.60719
2.33865 0.587051 2.73174
1.24637 1.22225 2.52729
5.73989 0.88326 6.70215
3.38464 0.289533 6.20964
3.45351 0.368997 6.13028
2.75733 0.522864 6.38224
2.53539 0.530387 1.4214
2.2002 0.335645 2.14199
1.85906 0.576869 1.36967
3.00518 0.561179 6.57193
1.89242 0.557691 0.822065
8.40699 0.437768 2.04009
4.75791 0.00359321 6.69713
1.85338 0.195011 2.71945
1.38269 0.183951 1.44021
8.85748 0.103714 2.22636
4.59881 0.124745 1.58041
2.17365 0.325991 2.15345
1.82676 0.513907 1.33171
2.99396 0.589695 6.58822
1.88379 0.406463 1.68801
8.35508 0.387756 2.02229
4.7906 0.336517 6.53249
1.80036 0.191492 2.67638
1.51273 0.158607 1.49119
6.33451 0.395706 1.25149
4.58853 0.161902 1.57852
POINT_DATA 400
SCALARS particleColor float 3
LOOKUP_TABLE default
0 0.650558 1
0 0.716934 1
0 0.54686 1
0 0.383207 1
0 0.541797 1
1 5.96046e-08 0
0 0.495891 1
0 0.216913 1
0.0239714 1 0.976029
0 0.678343 1
0 0.590031 1
0 0.875049 1
0 0.566621 1
0 0.249518 1
0 0.758662 1
0 0.542813 1
0 0.433236 1
0 0.443736 1
0 0.703437 1
0 0.614926 1
0 0.486211 1
1 0.996773 0
0 0.357081 1
0 0.193216 1
0 0.674638 1
0 0.803635 1
0 0.676666 1
0 0.197584 1
0 0.345262 1
0 0.719815 1
0 0.326611 1
0 0.718145 1
1 5.96046e-08 0
0 0.290798 1
0 0.343293 1
0 0.826075 1
0 0.15356 1
0 0.58622 1
0 0.559543 1
0 0.797386 1
0 0.723053 1
0 0.795224 1
0 0.904778 1
0 0.492688 1
0 0.701026 1
0 0.750934 1
0.119855 1 0.880145
0 0.447915 1
0 0.261266 1
0.552769 1 0.447231
0 0.664604 1
0 0.708233 1
0 0.512619 1
0 0.695789 1
0 0.487967 1
0 0.817324 1
0 0.310299 1
0 0.800548 1
0 0.26204 1
0.0382911 1 0.961709
0 0.600383 1
0 0.843806 1
0 0.617441 1
0 0.608965 1
0 0.585484 1
0 0.82779 1
0 0.832905 1
0 0.884132 1
0 0.413194 1
0 0.593856 1
0 0.346221 1
0.258538 1 0.741462
0 0.481193 1
0 0.847603 1
0 0.247702 1
0 0.896893 1
0 0.948049 1
0 0.960983 1
0 0.440641 1
0 0.745555 1
0 0.46594 1
0.141032 1 0.858968
0 0.653553 1
0 0.705791 1
0 0.26046 1
0 0.9879 1
0 0.753873 1
0 0.854402 1
0.86718 1 0.13282
0 0.83013 1
0 0.263735 1
0 0.21858 1
0 0.989333 1
0 0.65917 1
0 0.299359 1
0 0.990183 1
0 0.686027 1
0 0.745529 1
0 0.691435 1
0 0.707066 1
0 0.899664 1
0 0.433683 1
0 0.314169 1
0 0.697568 1
0.801645 1 0.198355
0 0.847325 1
0 0.719139 1
0 0.551521 1
0 0.15672 1
0 0.467104 1
0 0.830438 1
0 0.773222 1
0 0.461998 1
0 0.831467 1
0 0.646508 1
0 0.853494 1
0 0.102356 1
0 0.341037 1
0 0.240036 1
0.0218964 1 0.978104
0 0.417945 1
0 0.143875 1
0 0.605471 1
0 0.570743 1
0 0.875197 1
0 0.507738 1
0 0.987721 1
0 0.683111 1
0 0.730139 1
0 0.839117 1
0 0.342069 1
0 0.533172 1
0 0.323659 1
0 0.332076 1
0 0.366158 1
0 0.678096 1
0.800253 1 0.199747
0 0.54815 1
0 0.387137 1
0 0.784261 1
0 0.421145 1
0 0.582486 1
0.00598196 1 0.994018
0 0.877553 1
0 0.912117 1
0 0.808925 1
0 0.22031 1
0 0.448847 1
0 0.403911 1
0 0.670379 1
0 0.396312 1
0 0.589295 1
0 0.554762 1
0 0.437781 1
0 0.824578 1
0 0.365765 1
0 0.402867 1
0 0.436664 1
0 0.817856 1
0 0.170652 1
0 0.924644 1
0.0951834 1 0.904817
0 0.694862 1
0 0.940816 1
0 0.61333 1
0 0.705324 1
0 0.278821 1
0 0.685416 1
0.128779 1 0.871221
0 0.405198 1
0.0848028 1 0.915197
0 0.224462 1
0 0.675062 1
0 0.82063 1
0 0.614767 1
0 0.92424 1
0 0.564172 1
0 0.211922 1
0 0.414539 1
0 0.481577 1
0 0.201366 1
0 0.530524 1
0 0.963644 1
0 0.560543 1
0 0.571809 1
0 0.917703 1
0 0.683875 1
0 0.876804 1
0 0.392316 1
0 0.66852 1
0 0.324245 1
0 0.256224 1
0 0.388069 1
0 0.716424 1
0.0151589 1 0.984841
0 0.705205 1
0 0.582 1
0 0.912258 1
0 0.205847 1
0 0.548541 1
0 0.433567 1
0 0.545269 1
0.225064 1 0.774936
0 0.965801 1
0 0.931133 1
0 0.498365 1
0 0.472631 1
0 0.510345 1
0 0.78117 1
0 0.498389 1
0 0.670311 1
0 0.496878 1
0 0.580295 1
0 0.912835 1
0 0.656542 1
0 0.339817 1
0 0.520028 1
0.133991 1 0.866009
0 0.239419 1
0 0.358762 1
0 0.788791 1
0.314911 1 0.685089
0 0.210123 1
0 0.595964 1
0 0.717945 1
0 0.554904 1
0.261386 1 0.738614
0 0.909401 1
0 0.837817 1
0 0.642247 1
0 0.688732 1
0 0.870593 1
0 0.43387 1
0 0.691784 1
0 0.452981 1
0 0.582402 1
0 0.435432 1
0 0.440751 1
0.070713 1 0.929287
0 0.913241 1
0 0.54017 1
0 0.854362 1
0 0.625906 1
0 0.707937 1
0 0.842141 1
0 0.565927 1
0 0.909937 1
0 0.241868 1
0 0.619389 1
0 0.7289 1
0 0.739025 1
0.50376 1 0.49624
0 0.817047 1
0 0.702161 1
0.13894 1 0.86106
0 0.973445 1
0 0.47239 1
0 0.932189 1
0 0.779372 1
0 0.660312 1
0 0.69526 1
0.449674 1 0.550326
0.444807 1 0.555193
0 0.426292 1
0.0752559 1 0.924744
0 0.469433 1
0 0.624065 1
0.177666 1 0.822334
0 0.381684 1
0.170404 1 0.829596
0 0.600924 1
0.314134 1 0.685866
0 0.783903 1
0.156769 1 0.843231
0 0.889399 1
0 0.240649 1
0 0.777861 1
1 0.421716 0
0 0.429194 1
0 0.75146 1
0 0.61811 1
0 0.662169 1
0 0.803132 1
0 0.679088 1
0 0.574557 1
0 0.971037 1
0 0.47536 1
0 0.639948 1
0 0.881406 1
0.215433 1 0.784567
0 0.618149 1
0 0.677459 1
0 0.839095 1
0 0.663326 1
0 0.957862 1
0.0555283 1 0.944472
0 0.734474 1
0 0.596687 1
0 0.898595 1
0 0.727834 1
0 0.767474 1
0 0.547952 1
0 0.958754 1
0.0325613 1 0.967439
0 0.497505 1
0 0.87473 1
0 0.509617 1
0 0.850105 1
0 0.305283 1
0 0.762117 1
0.568743 1 0.431257
0 0.434239 1
0.171277 1 0.828723
0.145038 1 0.854962
0 0.758856 1
0 0.973631 1
0 0.502763 1
0 0.607298 1
0 0.47802 1
0 0.322831 1
0 0.610058 1
0 0.92883 1
0 0.580393 1
0 0.918938 1
0.0244014 1 0.975599
0 0.936966 1
0 0.552753 1
0 0.718013 1
0 0.582602 1
0 0.696354 1
0 0.822993 1
0 0.321894 1
0 0.488726 1
0 0.660058 1
0 0.68711 1
0 0.692409 1
0 0.688022 1
0 0.665461 1
0 0.236983 1
0.0661604 1 0.93384
0 0.678531 1
0 0.49092 1
0 0.656566 1
0 0.700462 1
0.00042238 1 0.999578
0 0.271719 1
0 0.246758 1
0.318823 1 0.681177
0 0.487796 1
0 0.569074 1
0 0.516246 1
0 0.530417 1
0 0.217654 1
0 0.625251 1
0 0.871312 1
0.127716 1 0.872284
0 0.382547 1
0.270621 1 0.729379
0 0.42511 1
0.340136 1 0.659864
0 0.899767 1
0 0.4342 1
0 0.667366 1
0 0.38056 1
0 0.391982 1
0.204397 1 0.795603
0 0.745762 1
0 0.465651 1
0 0.532794 1
0.380494 1 0.619506
0 0.87838 1
0 0.472712 1
0 0.895971 1
0 0.595556 1
0 0.712697 1
0 0.82766 1
0 0.676665 1
0 0.793745 1
0 0.107299 1
0 0.72738 1
0 0.448097 1
0 0.604456 1
0 0.404268 1
0 0.202803 1
0 0.952548 1
0 0.786229 1
0 0.739173 1
0 0.562403 1
0.156068 1 0.843932
0 0.682971 1
0 0.349207 1
0 0.557911 1
0 0.506575 1
0 0.765474 1
0 0.971328 1
0 0.715054 1
0 0.860049 1
0 0.567801 1
0 0.412549 1
0 0.619353 1
