# vtk DataFile Version 3.0
Particle simulation
ASCII
DATASET POLYDATA
POINTS 400 float
1.49854 0.462213 0.531122
1.52688 0.226551 0.213269
1.83039 0.208218 3.9524
1.40137 0.322281 0.457428
1.76081 0.39163 3.90907
0.4744 0.722286 2.16402
1.27287 0.960338 2.94911
1.0198 0.731652 2.82131
3.04545 0.0184827 2.02611
3.98964 0.220578 0.576536
1.45693 0.415284 0.566193
1.49466 0.233434 0.19002
1.8996 0.279613 3.94798
1.42974 0.319036 0.445538
1.77099 0.326995 3.86245
0.478682 0.736299 2.18097
1.11306 0.795541 3.44812
0.867677 0.801825 2.49874
3.05177 0 2.04467
3.97509 0.201396 0.58958
3.30547 0.569216 0.470605
2.99703 0.309096 0.169047
2.35649 0.173133 4.41555
3.62794 0.0719436 0.964149
2.25564 0.269962 4.59636
1.1621 0.670911 2.42702
3.96888 0.755561 3.93116
0.183993 0.788089 2.49408
2.43604 0.570954 2.28151
0.823436 0.642019 0.970306
3.31514 0.526202 0.491275
2.93 0.344356 0.00477303
2.39236 0.122275 4.41331
3.64052 0.0700901 0.975543
2.27614 0.266861 4.53205
1.13201 0.611142 2.44018
4.01277 0.751949 3.9996
0.17326 0.702787 2.42693
2.44945 0.51561 2.7119
0.934173 0.530379 0.943375
1.43979 0.186769 0.434936
3.16391 0.982675 1.75773
3.78937 0.696809 4.48398
3.66689 0.237692 0.843554
3.00638 0.519399 4.59415
3.19802 0.962538 1.51235
3.9213 0.711411 3.00164
3.25479 0.820536 4.41442
2.00663 0.723124 2.49615
0.663916 0.377185 2.17842
1.43723 0.188708 0.442676
3.14365 0.955299 1.7551
3.77888 0.632839 4.448
3.65269 0.211914 0.877355
3.0104 0.576546 4.57923
3.16794 0.936011 1.4867
2.95176 0.34134 4.73908
3.25647 0.835152 4.37691
2.01601 0.732548 2.5331
0.64814 0.401847 2.16144
2.25464 0.724862 0.397013
1.02293 0.50843 1.00142
1.2661 0.86013 3.58321
2.67654 0.39272 0.797692
2.19335 0.316621 3.8955
1.84113 1.02673 2.48798
1.6211 1.07455 2.65984
0.692727 0.361872 2.27362
2.12055 0.745271 2.33826
0.512785 0.293184 2.48271
2.23982 0.72407 0.40646
1.00114 0.517795 1.02142
1.28865 0.594048 3.10849
2.68641 0.374874 0.88225
2.24151 0.273464 4.05527
1.88419 0.998648 2.51018
1.63761 1.07607 2.63151
0.621261 0.508818 1.85531
2.08026 0.747124 2.34853
0.482266 0.315303 2.4526
1.55311 0.608858 0.406383
3.36971 0.779977 1.66361
1.45314 0.977481 3.33181
4.03109 0.393932 0.724063
3.11758 0.325203 4.82962
1.87166 0.720647 2.72743
2.54731 0.750033 4.37543
1.68081 0.705016 2.3082
3.73267 1.13049 2.84555
2.59953 0.903332 1.60183
1.57171 0.630073 0.378842
3.40027 0.763391 1.66256
1.31656 0.905628 3.43351
4.03912 0.384931 0.709161
3.07512 0.365807 4.83119
1.89103 0.717187 2.72636
2.47383 0.851697 4.38276
1.70069 0.708473 2.39083
3.75079 1.12676 2.80632
2.62977 0.885588 1.58226
4.27032 0.605107 0.152461
2.31278 0.733805 0.22256
2.11912 1.07413 3.29287
2.36293 0.580517 0.993723
1.53598 0.323113 3.81083
1.65194 0.769345 2.85462
1.17948 0.60814 2.84967
2.17031 0.822173 3.20669
2.03278 0.711302 2.55483
2.49931 0.813725 1.62379
4.22104 0.5903 0.165128
2.34067 0.754144 0.255829
2.18612 0.993873 3.32635
2.36774 0.576822 0.952583
1.40866 0.299983 3.75569
1.65998 0.777498 2.86216
1.14318 0.611784 2.93176
2.14172 0.770444 3.15925
2.04016 0.709978 2.51412
2.57509 0.880661 1.51662
2.8464 0.516301 0.626026
2.90547 0.864959 1.81842
4.65957 0.890501 3.50531
3.28115 0.997661 0.386318
3.2381 0.902154 3.26437
3.72222 0.592339 2.12653
2.96032 0.85343 4.91609
4.13395 0.617547 1.30423
3.23585 0.757614 3.65036
3.84492 0.611665 2.07653
2.82547 0.514463 0.646745
2.96265 0.849107 1.81033
4.54416 0.946957 3.46879
3.34039 0.991374 0.379563
3.26356 0.90682 3.24551
3.75807 0.756171 1.80917
2.63122 0.818685 4.63766
4.13246 0.63043 1.37938
3.2616 0.770332 3.62917
3.99566 0.626319 1.97109
1.77692 0.648794 0.366952
0.722941 0.187985 0.3005
0.914982 0.85906 3.55478
0.865798 0.484174 1.16616
0.588145 0.206421 3.7833
1.97241 0.976108 2.81752
3.58376 0.921929 4.06402
0.692837 0.546957 3.16928
0.6295 0.396695 3.11751
2.12694 0.665297 2.52395
1.78465 0.656552 0.373129
0.752099 0.18877 0.302472
0.993954 0.755195 3.82252
0.822904 0.456959 1.09483
0.57834 0.200336 3.78012
1.98552 0.971941 2.83102
3.58879 0.970357 4.07806
0.703046 0.5562 3.23584
0.564752 0.405168 3.05733
2.27717 0.571928 2.30854
1.19932 0.10854 0.461877
2.98196 0.382354 0.253756
3.71311 0.239502 3.82344
2.24648 0.596875 0.790829
0.874305 0.35739 3.97635
1.22789 0.86601 3.16057
2.80263 0.594059 4.26391
0.780188 0.585771 2.57617
0.806375 0.660398 2.23357
2.50994 0.470212 0.852767
1.17699 0.0930845 0.452334
3.07106 0.344353 0.327659
3.71214 0.243018 3.83845
2.13774 0.574555 0.885852
0.791206 0.321694 3.9684
1.18296 0.865401 3.18858
2.77293 0.646846 4.29901
0.785424 0.616953 2.46032
0.807262 0.589503 2.24639
2.52308 0.475857 0.895431
3.17674 0.0685507 0.488877
0.674804 0.150712 0.459396
3.46453 0.101005 3.94452
0.366455 0 0.94505
3.27133 0.948073 3.4708
3.51467 0.448135 4.23957
1.77062 0.699353 4.08619
3.81335 0.228825 1.54136
3.35987 0 2.63964
3.91808 0.281379 2.21837
3.1673 0.0792634 0.503847
0.735312 0.181261 0.390045
3.52503 0.137328 3.78343
0.337361 0.00119235 0.974752
3.26735 0.902427 3.493
3.5551 0.380419 4.26779
1.81044 0.685789 4.13138
3.92244 0.215309 1.65092
3.32747 0 2.59411
3.91673 0.258071 2.25937
1.43693 0.2901 0.556637
0.833242 0.515873 0.68424
1.86498 0.306789 3.81893
1.44746 0.246792 0.569341
1.49753 0.327259 3.75705
0.414999 0.348545 2.07558
1.3351 0.171176 2.64987
0.548607 0 2.87036
2.09687 0.844906 2.29201
3.81089 0.205516 0.44852
1.41627 0.230716 0.577738
1.40353 0.356157 0.383402
1.92747 0.314695 3.80063
1.4372 0.262411 0.643221
1.52188 0.324492 3.76103
0.404091 0.31627 2.10882
1.32585 0.176455 2.65198
0.362289 0.0539199 2.82285
2.05432 0.843781 2.27757
3.79969 0.20975 0.485604
3.05714 0.629947 0.655288
2.93571 0.694132 0.615745
2.61486 0.538334 4.28103
2.86016 0.618151 0.788449
1.99194 0.336352 4.23536
1.42903 0.186581 3.29408
3.89948 0.391369 3.94345
0.414492 0.0766064 2.80837
3.66015 0.214141 2.53396
0.35007 0.379856 2.41213
3.05887 0.599863 0.669444
2.84193 0.693995 0.536819
2.53551 0.477741 4.33883
2.86082 0.653699 0.847691
1.97824 0.339263 4.23276
1.40017 0.172598 3.29819
3.88396 0.393585 3.95356
0.454496 0.160416 2.76451
3.70555 0.214496 2.61983
0.382485 0.418617 2.35654
1.36218 0.510094 0.801126
3.57722 0.329206 1.58586
3.96755 0.217354 4.22704
3.56776 0.290376 0.793233
2.87289 0.554944 4.75368
2.80821 0.0984163 2.38486
2.00734 0.248588 2.66525
2.82808 0.360295 0.52528
3.45006 0.266092 2.55864
0.649505 0.536665 2.33166
1.37921 0.50796 0.801912
3.46082 0.366779 1.64704
3.94751 0.264351 4.15387
3.55508 0.247604 0.771162
2.89757 0.521781 4.79529
2.79769 0.0995838 2.42887
3.46589 0.142246 2.93223
2.83486 0.375645 0.483063
3.46442 0.26644 2.61923
0.661272 0.555312 2.29076
2.59316 0.370218 0.702722
1.47292 0.488445 0.323347
1.06027 0.612982 2.57023
2.34545 0.726775 0.754317
2.17717 0.328551 3.87011
1.78914 0.118973 2.95582
2.56188 0.362538 2.13543
2.0086 0.334627 3.93284
1.56947 0.227844 3.6395
0.760725 0.40952 2.28534
2.62842 0.385747 0.714505
1.55801 0.477375 0.302955
1.44798 0.468526 2.85497
2.31477 0.708864 0.721922
2.24932 0.348555 3.94287
1.80512 0.000288099 2.62297
2.54684 0.333637 2.19947
0.618263 0.412799 2.33353
1.5658 0.223271 3.64925
0.730465 0.423759 2.22286
3.71177 0.139724 0.308513
3.76409 0.336003 1.68065
1.92438 0.00894523 3.79511
3.82026 0.476743 0.915432
3.09502 0.609877 4.7892
1.50827 0.1863 3.02887
2.25885 0.114005 4.3558
1.35659 0.102521 2.78363
3.91346 0.089645 2.36684
2.91795 0.184678 2.6413
3.79055 0.179678 0.28287
3.79689 0.328501 1.70238
1.91824 0 3.69282
3.79155 0.438251 0.975768
2.9378 0.510664 4.57385
1.47014 0.187149 3.02457
2.21612 0.0901451 4.4071
1.49429 0.201841 2.51505
3.99257 0.0764898 2.32483
3.33785 0.113733 2.32207
4.06618 0.358028 0.191216
1.14455 0.261602 0.416948
2.30512 0.0710927 3.66428
1.47037 0.408806 0.982182
1.01321 0.471443 3.57913
3.43154 0.103344 2.02209
1.43358 0.067798 2.76899
3.09401 0.0275474 2.26187
1.92761 0.564822 2.44368
3.12942 0.105124 2.30582
4.08192 0.365762 0.10749
1.17971 0.24727 0.413291
2.32288 0.0747622 3.63187
1.44122 0.376309 0.911172
1.04591 0.438706 3.60141
3.21251 0.145665 2.52369
1.47427 0.0655236 2.73991
2.09933 0.408709 2.7232
1.951 0.547259 2.43161
3.05118 0.115873 2.33192
3.1934 0.673842 0.555722
2.99889 0.233746 0.154392
3.082 0.239453 3.97647
3.07932 0.534278 0.516545
3.24256 0.194873 2.92285
3.25273 0.31203 2.80301
1.90866 0.227909 4.11094
3.99646 0.39836 1.7818
3.24623 0.062231 2.70419
4.11068 0.106504 1.93701
3.25614 0.678624 0.558516
3.08866 0.28995 0.20841
3.05364 0.224368 4.01245
3.07954 0.533208 0.514578
3.26651 0.220539 2.94663
3.0985 0.33306 3.10028
1.9002 0.237719 4.08791
3.97437 0.483123 1.72114
3.21363 0.0433638 2.68305
4.13494 0.108983 1.91447
0.899826 0.325502 0.426261
1.25274 0.368904 0.226287
1.46888 0.0509703 3.89245
0.899498 0.465215 0.908173
0.715624 0.504013 3.59568
2.10423 0.228177 2.92415
2.08525 0.456805 2.58274
0.963681 0.137973 3.0557
1.09821 0.407267 3.18176
2.2429 0.159452 2.50564
0.8604 0.348731 0.412273
1.2712 0.376178 0.216346
1.51983 0.000818845 4.0895
0.873823 0.475175 0.938713
0.766958 0.493174 3.53765
2.07112 0.185299 2.93447
2.14131 0.443916 2.59927
1.1744 0.090329 2.94209
1.09598 0.426055 3.10671
2.16595 0.20956 2.47798
0.528086 0.624849 0.653884
1.05734 0.387262 0.3046
3.67596 0.675137 3.68453
2.54943 0.604528 0.66512
0.835272 0.428662 3.8361
0.521719 0.307402 3.90789
2.69884 0.37607 4.5144
0.806225 0.602645 2.7405
1.06238 0.674169 2.49936
2.4109 0.627116 0.65445
0.531852 0.637026 0.681336
1.01271 0.365763 0.29191
3.66005 0.689531 3.73317
2.55843 0.590599 0.681803
0.82672 0.440276 3.76461
0.516293 0.318419 3.90418
2.66937 0.350656 4.45575
0.82256 0.61791 2.80053
0.995197 0.689009 2.57474
2.39317 0.60808 0.645702
3.05018 0.514884 0.30378
0.77374 0.586311 0.385193
3.65395 0.678325 3.82299
0.814424 0.716373 0.872692
3.18362 0.156241 2.58133
3.58201 0.74454 4.0613
2.36978 0.0727981 4.22488
3.80657 0.50753 1.57168
3.5912 0.493803 2.79591
3.87333 0.411946 1.92249
3.09775 0.508304 0.294272
0.750299 0.585311 0.417073
3.65162 0.67231 3.84512
0.76009 0.71115 0.805371
3.20175 0.145433 2.60214
3.62236 0.742699 4.03013
2.38345 0.0657772 4.2232
3.79617 0.541752 1.53102
3.51662 0.514524 2.88657
3.87387 0.423817 1.90373
POINT_DATA 400
SCALARS particleColor float 3
LOOKUP_TABLE default
0 0.866393 1
0 0.490408 1
0 0.936012 1
0 0.751266 1
0.182099 1 0.817901
0 0.18707 1
0 0.586733 1
0 0.856409 1
0 0.939468 1
0.351227 1 0.648773
0 0.918343 1
0 0.534385 1
0.0569208 1 0.943079
0 0.614018 1
0.0570814 1 0.942919
0 0.183312 1
0 0.27031 1
0 0.109768 1
0 0.803706 1
0.238305 1 0.761695
0.197012 1 0.802988
0.148002 1 0.851998
0 0.772856 1
0.0449698 1 0.95503
0.0646207 1 0.935379
0 0.522489 1
0.0396892 1 0.960311
0 0.43868 1
0 0.806399 1
0.143813 1 0.856187
0.304711 1 0.695289
0.0619726 1 0.938027
0 0.74745 1
0.109354 1 0.890646
0.00795081 1 0.992049
0 0.495971 1
0.274691 1 0.725309
0 0.34762 1
0 0.617484 1
0.23912 1 0.76088
0 0.733962 1
0 0.569018 1
0 0.843158 1
0 0.687759 1
0 0.687888 1
0 0.552794 1
0 0.585945 1
0 0.432378 1
0 0.768521 1
0 0.64985 1
0 0.766231 1
0 0.54411 1
0 0.928103 1
0 0.728296 1
0 0.558543 1
0 0.708457 1
0 0.66908 1
0 0.436492 1
0 0.736716 1
0 0.853537 1
0.0777651 1 0.922235
0 0.463316 1
0.160515 1 0.839485
0.0555061 1 0.944494
0.184654 1 0.815346
0 0.74755 1
0 0.733694 1
0 0.991786 1
0 0.757579 1
0.00921108 1 0.990789
0 0.974799 1
0 0.593081 1
0.0705746 1 0.929425
0.0505596 1 0.94944
0.163427 1 0.836573
0 0.820632 1
0 0.77232 1
0.30794 1 0.69206
0 0.757813 1
0 0.990229 1
0 0.846833 1
0 0.604412 1
0 0.488184 1
0 0.860986 1
0 0.730537 1
0.0631361 1 0.936864
0 0.603618 1
0 0.826413 1
0 0.202014 1
0 0.846026 1
0 0.723243 1
0 0.484202 1
0 0.58542 1
0 0.882826 1
0 0.708983 1
0.00239873 1 0.997601
0 0.475106 1
0 0.72132 1
0 0.445408 1
0 0.983371 1
0 0.978055 1
0 0.759874 1
0 0.527037 1
0 0.772153 1
0 0.702394 1
0 0.609753 1
0 0.576842 1
0 0.306657 1
0 0.710073 1
0 0.490917 1
0 0.93783 1
0 0.467243 1
0 0.505656 1
0 0.674981 1
0 0.74401 1
0 0.498542 1
0 0.545846 1
0 0.584984 1
0 0.709279 1
0 0.264113 1
0 0.911486 1
0 0.472914 1
0 0.454507 1
0 0.865048 1
0 0.720342 1
0 0.587807 1
0.0256845 1 0.974316
0 0.924921 1
0 0.352047 1
0 0.503469 1
0 0.922892 1
0 0.537008 1
0 0.458459 1
0 0.536327 1
0 0.547889 1
0 0.756353 1
0 0.972012 1
0 0.74987 1
0 0.39026 1
0 0.388529 1
0 0.578752 1
0.0223563 1 0.977644
0 0.674906 1
0 0.730566 1
0 0.656321 1
0 0.37457 1
0 0.915818 1
0 0.704634 1
0 0.500133 1
0.120842 1 0.879158
0 0.563441 1
0.0470981 1 0.952902
0 0.719196 1
0 0.699672 1
0 0.61855 1
0 0.334037 1
0 0.778382 1
0 0.879159 1
0 0.48681 1
0.102812 1 0.897188
0.351583 1 0.648417
0 0.728144 1
0 0.547141 1
0.116073 1 0.883927
0.420331 1 0.579669
0 0.917435 1
0 0.596301 1
0.0349852 1 0.965015
0.41412 1 0.58588
0 0.877625 1
0.313892 1 0.686108
0 0.469512 1
0 0.70433 1
0.120697 1 0.879303
0.382305 1 0.617695
0 0.946656 1
0 0.600475 1
0.00326128 1 0.996739
0.348308 1 0.651692
0 0.806933 1
0 0.522611 1
0 0.351282 1
0 0.738601 1
0 0.465242 1
0 0.425974 1
0 0.865665 1
0 0.868093 1
0 0.714674 1
0 0.500121 1
0 0.790641 1
0 0.57805 1
0 0.199598 1
0 0.792171 1
0 0.811024 1
0 0.359601 1
0 0.8621 1
0 0.784423 1
0 0.686784 1
0 0.493138 1
0 0.729363 1
0.0682941 1 0.931706
0 0.661708 1
0.175922 1 0.824078
0 0.644301 1
0 0.594464 1
0 0.653037 1
0 0.314189 1
0 0.618432 1
0 0.802567 1
0.139516 1 0.860484
0.00455109 1 0.995449
0 0.833456 1
0 0.974894 1
0 0.614434 1
0 0.72774 1
0 0.586913 1
0 0.287591 1
0 0.396117 1
0 0.8359 1
0.0665239 1 0.933476
0 0.676112 1
0.0619819 1 0.938018
0 0.972458 1
0 0.355405 1
0 0.305483 1
0 0.284234 1
0.0648394 1 0.935161
0 0.552717 1
0 0.989965 1
0 0.860334 1
0 0.589462 1
0.21034 1 0.78966
0 0.893411 1
0 0.304805 1
0 0.227826 1
0 0.350315 1
0.0421287 1 0.957871
0 0.525108 1
0.0858851 1 0.914115
0 0.6985 1
0 0.419664 1
0 0.571832 1
0 0.247719 1
0 0.329267 1
0 0.254848 1
0 0.621011 1
0 0.813988 1
0.231497 1 0.768503
0 0.589301 1
0 0.764977 1
0 0.367129 1
0 0.574338 1
0 0.320446 1
0 0.379607 1
0 0.0732238 1
0 0.91245 1
0 0.889667 1
0.198236 1 0.801764
0 0.558279 1
0 0.75743 1
0.159683 1 0.840317
0.0642228 1 0.935777
0 0.952331 1
0 0.982996 1
0 0.665489 1
0 0.568789 1
0 0.901338 1
0 0.911256 1
0 0.510911 1
0 0.549261 1
0.225191 1 0.774809
0 0.888988 1
0.0869301 1 0.91307
0 0.835979 1
0 0.501777 1
0 0.667261 1
0 0.735974 1
0.0379231 1 0.962077
0 0.58819 1
0 0.469113 1
0 0.629588 1
0 0.741428 1
0 0.943841 1
0 0.287751 1
0 0.558136 1
0.0463429 1 0.953657
0 0.940101 1
0 0.579046 1
0 0.675997 1
0 0.792726 1
0 0.888052 1
0 0.652078 1
0 0.750455 1
0 0.315447 1
0 0.320035 1
0.0675281 1 0.932472
0.0799072 1 0.920093
0 0.520909 1
0 0.699388 1
0.0863296 1 0.91367
0 0.405575 1
0 0.856855 1
0 0.938866 1
0 0.890698 1
0 0.559719 1
0 0.410086 1
0 0.428175 1
0.086302 1 0.913698
0 0.261203 1
0 0.727408 1
0 0.460136 1
0 0.777511 1
0 0.534717 1
0 0.727745 1
0 0.470777 1
0 0.503004 1
0 0.592995 1
0 0.669772 1
0 0.29862 1
0 0.469105 1
0 0.851752 1
0 0.482795 1
0 0.943056 1
0.0138451 1 0.986155
0 0.7351 1
0.0384981 1 0.961502
0 0.984338 1
0 0.146069 1
0 0.551451 1
0 0.293022 1
0 0.883566 1
0 0.699385 1
0 0.826586 1
0 0.971607 1
0 0.717738 1
0 0.893276 1
0 0.965698 1
0 0.278019 1
0 0.675921 1
0 0.394909 1
0 0.510439 1
0 0.29398 1
0 0.656318 1
0 0.495325 1
0 0.32597 1
0 0.578365 1
0.0258563 1 0.974144
0 0.510152 1
0 0.243874 1
0 0.828901 1
0 0.528302 1
0 0.173389 1
0 0.5753 1
0 0.540625 1
0 0.291481 1
0 0.602469 1
0.0883958 1 0.911604
0 0.748872 1
0 0.325384 1
0 0.787959 1
0 0.936492 1
0.334613 1 0.665387
0 0.413466 1
0 0.456108 1
0.121615 1 0.878385
0 0.943352 1
0 0.50652 1
0 0.914878 1
0.0478134 1 0.952187
0.21917 1 0.78083
0.00926184 1 0.990738
0.349155 1 0.650845
0 0.470498 1
0 0.462317 1
0.0218914 1 0.978109
0.000387882 1 0.999612
0 0.433661 1
0 0.901375 1
0.1037 1 0.8963
0.11419 1 0.88581
0 0.867176 1
0 0.638611 1
0 0.548651 1
0 0.372787 1
0 0.939255 1
0 0.248578 1
0 0.341643 1
0 0.505437 1
0 0.643328 1
0.017051 1 0.982949
0 0.758934 1
0 0.602552 1
0 0.495305 1
0 0.36746 1
0 0.954566 1
0 0.14232 1
0 0.269002 1
0 0.494179 1
0 0.480325 1
0 0.856573 1
