# vtk DataFile Version 3.0
Particle simulation
ASCII
DATASET POLYDATA
POINTS 400 float
1.10828 0.14993 9.04232
3.53805 2.49066 3.6839
4.40465 6.77049 6.74299
5.42164 4.41535 0.0342472
6.56433 2.58786 8.35111
8.08787 6.40348 1.69702
6.09192 6.18274 5.25805
9.81967 5.93981 2.44024
5.66212 1.7862 0.508264
0.174392 0.656743 7.88546
5.91388 2.9192 5.40622
9.65692 2.59612 9.10513
1.78166 6.98998 3.33644
1.64738 2.06187 6.72626
1.47022 0.437239 8.44495
0.510684 1.51319 4.07973
5.71916 2.5776 4.97392
3.66548 0.338318 1.31347
9.87565 3.65638 9.93566
9.81862 0.28666 4.03782
3.447 0.0790167 1.10009
6.24859 1.16121 9.60871
3.674 1.08078 6.98311
4.11639 9.21446 1.24287
9.38876 1.2371 8.99164
2.44707 3.16452 8.3705
7.93599 3.02285 1.0853
0.822313 0.512176 6.96635
4.18864 8.38702 0.894317
6.41326 3.43687 9.51294
2.31558 2.66794 2.42086
1.34044 6.72499 5.87827
0.392244 8.13316 8.92387
8.78496 1.95448 3.32264
9.37981 9.48364 4.24963
8.96776 6.8363 8.57502
3.82022 1.20354 9.51032
2.98357 0.314409 1.37952
8.02836 2.67556 2.01463
0.832255 3.07013 8.84643
7.46922 6.06437 3.31661
6.25276 1.69967 9.54731
8.88925 6.30591 8.13416
7.28072 4.43693 2.10861
9.81261 0.272941 3.66333
5.75816 0.916826 0.935256
9.24367 5.51567 7.78558
6.63104 1.02546 6.90967
5.23 0.507362 1.10585
6.29293 6.64409 4.60745
3.95046 6.55327 8.37353
2.27669 2.64335 3.71014
7.62608 1.18394 3.82791
9.78383 4.64684 1.76796
4.92117 1.55986 7.54933
5.89981 1.07777 1.13799
9.76347 2.41053 2.93071
0.175619 0.835553 5.40973
5.98005 1.52573 2.57173
6.8293 1.55651 1.42223
0.792234 2.68209 9.55134
5.14901 3.53027 1.89747
7.49437 5.03294 4.72526
0.898767 1.0737 8.8819
4.16884 5.91819 2.26458
0.818995 0.100683 9.29194
1.04853 3.28429 8.72658
1.94631 0 2.07975
5.9941 2.35338 2.00653
4.91907 1.46324 8.79922
9.85151 0.0732191 7.08567
3.51987 1.02739 2.61403
9.36439 7.52478 5.56395
1.04853 0.587469 8.89483
2.15414 3.6796 9.89118
1.80685 1.10259 7.52895
3.25355 0.791331 6.68843
1.82799 0.449139 9.56854
0.483005 2.79503 1.8777
5.80769 3.81034 9.83155
3.07626 0.186023 1.06762
5.54454 1.3472 4.47509
1.21757 0.13183 5.06784
3.38312 0.31845 0.880173
0.852741 0.51432 7.54216
1.96849 0.494267 8.40513
7.43151 5.68963 6.28002
0.522922 0.372256 4.88348
0.0313203 7.11013 2.95171
6.97332 0.350745 1.01726
3.11059 0.343671 0.839314
4.53935 0.417645 1.69905
0.657922 3.43913 8.90252
3.17278 0.734348 4.4782
0.414256 1.4551 9.27111
5.06157 6.1392 4.55068
8.5258 10 0.266348
2.45562 3.52482 7.35104
7.63235 9.59249 6.18297
6.7528 0.42865 0.863802
3.18347 0.189442 1.28327
2.13952 2.1833 5.30698
3.53521 1.14774 5.60323
3.90533 8.55525 9.01473
7.80616 2.66965 7.01242
1.05717 0.991179 1.11532
9.93164 1.57722 9.70861
5.39167 0.47544 0.388367
4.30523 0.575571 0.122763
5.56377 7.04089 7.39929
6.02042 8.2914 1.01591
1.89114 0.625171 9.07742
9.71567 5.27113 0.904755
4.88087 0.980817 0.73243
3.15881 0.259769 1.32757
1.5918 1.27961 8.31449
4.88586 0.38705 8.31644
9.2012 2.75666 3.50531
8.95264 1.064 9.38935
6.54333 8.05733 0.463802
2.91152 0.0457255 1.16775
6.35173 0.271902 9.1967
3.05984 8.8927 1.7591
6.6409 4.59186 7.88004
4.64792 2.2935 7.15414
4.08125 0.529461 1.3022
4.72431 4.68013 0
0.788192 1.03175 8.71597
1.4597 1.1484 9.77675
0.567375 8.5107 5.6849
3.80874 0.289314 0.631962
6.64729 5.13682 8.44364
6.22218 5.02891 5.32104
6.45001 0.175814 6.03721
1.23457 6.78931 7.82554
1.43741 1.25072 1.24093
6.06943 6.9371 5.02328
0.309966 1.02505 9.25169
8.14029 2.6065 8.67642
5.50395 0.332544 8.58784
3.00771 0.297913 0.806292
6.32413 4.60199 8.7296
2.72062 2.71824 7.56455
9.77956 0.495232 8.37525
3.31115 0.339585 1.25492
5.38626 1.08464 4.53163
9.99899 0 4.05016
1.80012 2.69366 0
3.66118 1.12332 2.49557
0.6275 2.55289 6.32353
3.02276 0.253529 0.780988
6.72539 2.17837 6.25338
0.862502 0.407956 9.02865
0.511555 0.307571 10
5.12605 6.39701 8.30046
5.08368 0.601302 0.28609
8.93804 0.218776 2.92659
5.46871 0.676241 1.05477
7.11818 1.2923 6.99725
4.25382 2.01849 0.697672
4.37587 1.82347 0.287415
3.84391 0.559119 5.34742
6.55884 0.84649 9.70004
0.372037 1.19065 0.614483
1.77069 0.739862 2.83146
9.10122 1.94631 8.56528
6.39004 0.286122 6.35619
5.74065 0.968024 7.92909
0 4.31937 1.23112
2.23105 2.93285 5.37761
2.832 0.356669 1.01208
6.55054 1.60875 2.0622
5.22924 5.19701 3.25186
0.8272 1.11646 0.454835
3.08994 0.159184 5.0228
8.10866 7.76133 0.15116
1.71268 0.659386 8.02407
3.05705 0.887193 6.78954
0.59225 1.07388 9.63589
4.7603 3.32876 2.39348
3.00434 0.448658 1.18006
9.78608 9.01302 5.94738
0.276223 1.76681 0.252973
5.59605 0.471449 0.56
5.50384 0.859643 8.1106
5.26546 0.248055 0.812711
3.00442 0.259802 0.769417
8.61653 7.32077 8.62494
9.73273 0.444742 3.86319
3.43221 0.578329 0.967928
3.47791 0.425186 1.14835
3.56969 0.368342 1.16103
1.01065 2.84239 8.49771
1.88846 1.56564 1.67228
0.57813 9.81791 7.72634
3.54336 0.566735 0.830199
3.38067 0.119813 4.95917
2.3485 6.14107 0.582623
3.24213 0.180127 1.16121
2.67351 0.295953 1.18313
2.90676 0.282296 0.648083
5.74001 0.478984 1.02395
10 0.254669 4.80584
1.85207 0.405589 7.99877
4.31319 9.44726 5.34507
5.33942 0.685207 8.52349
3.42665 0.657036 1.22333
6.78844 0.671433 7.78144
1.27027 1.2743 2.85897
6.7527 0.391401 0.858163
3.32218 0.414252 1.22871
2.87727 0.0572851 1.47527
7.95773 5.0248 7.55984
6.16942 0.0315621 7.9317
1.12506 0.597347 9.84728
5.23505 0.420761 8.26116
3.70674 0.224855 1.09912
4.11886 0.249238 1.36804
1.4964 6.71152 9.49727
6.75964 0.378513 1.26048
2.21399 5.62466 8.39688
9.65412 1.78077 7.89021
5.3705 0.661936 8.3432
3.77312 0.515446 0.829415
5.88745 0.274301 7.37579
3.77422 0.541748 0.78553
8.15783 4.59363 0.592564
3.41197 0.365575 1.27698
3.15362 0.0263069 1.04996
7.80722 1.14494 4.04112
3.84376 0.780026 5.58454
5.41522 0.495372 7.85477
9.89294 0.160442 4.15487
3.46701 0.377165 1.39495
5.34783 0.615513 8.44481
1.64874 0.411194 4.88709
1.86062 0.137622 8.00893
3.93122 0.738255 5.61597
3.11602 0.575291 1.25214
9.02346 2.3826 0.862842
3.42707 0.527874 1.04601
3.36377 0.308331 0.478191
4.03081 0.189355 1.00978
2.70271 0.534431 1.0035
5.13081 0.500235 8.42924
1.24588 1.10368 1.17568
1.55431 0.801222 4.66668
4.74241 2.18605 7.07698
0.432415 1.66975 0.793941
6.35087 0.514629 7.92487
3.64002 0.109901 1.09143
5.57187 6.24004 4.98656
5.2211 0.64281 8.6254
3.44814 0.937002 5.67535
9.75578 0.411005 3.47222
3.82816 0.128552 1.02868
5.69055 2.19742 2.44316
6.01944 0.535152 8.30954
5.62096 1.24629 3.37336
5.37641 0.555916 8.56929
2.93059 0.484288 0.801648
10 2.83584 3.10176
1.77905 0.415429 8.04311
1.60489 4.19215 6.54699
5.47841 0.58344 7.95671
7.22846 0.580224 5.65361
5.53486 0.445797 0.334745
5.45253 0.307951 8.51289
10 0.41681 4.00352
3.51741 0.525184 0.393884
2.79434 0.658391 1.67449
6.46434 0.459139 1.81801
2.9172 0.0484497 0.547923
3.79129 1.11038 5.73168
6.57595 1.07806 9.52249
5.6227 0.951148 7.99821
2.58931 2.52239 7.363
3.00195 9.65287 9.37543
1.19746 1.25996 3.12299
3.48566 0.176013 0.979377
6.55188 0.326559 0.599338
5.47569 0.114901 0.462416
5.63793 7.50818 9.38874
1.5396 0.664718 7.68181
8.51203 5.15938 7.75711
9.79215 0.491275 4.05492
3.22176 0.206267 1.07857
5.47851 1.50672 4.85844
6.26325 0.988347 9.43463
3.88936 9.79718 3.91996
9.9082 0.0836085 1.11869
6.03668 1.02173 0.783203
3.33343 0.0623096 1.43838
0.688974 1.07188 8.9227
4.89779 0.544329 8.52315
5.24243 0.32345 8.27942
3.53451 0.065818 0.751339
3.63485 0.0550596 1.21693
5.78782 1.48157 4.90564
3.6299 0.124892 0.771008
4.32226 0.33943 1.38334
5.03269 1.86545 7.49583
3.06426 2.1727 7.25329
6.67526 0.0664051 1.40015
3.13781 0.541443 1.11431
1.11989 0.752519 8.8492
3.63768 0.0389954 1.85766
3.25328 0.338818 0.97479
2.49202 0.373708 7.82428
4.01114 1.06976 5.60558
5.26198 0.774579 8.49617
6.63155 2.15066 6.32673
9.70281 0.26876 3.7449
3.39002 0.0414579 0.71547
5.46146 1.17523 4.61002
0.30198 1.13898 9.33092
6.275 0.714098 1.56728
5.35476 1.3325 3.55158
5.87028 1.73827 2.24691
3.54038 1.04195 2.39597
5.22627 0.557547 8.35134
1.67897 1.01866 4.56622
4.81097 0.389364 8.71182
3.74492 0.49007 1.00168
6.48865 0.415367 0.497162
6.7931 0.507092 0.842213
2.97109 0.276462 1.02967
5.27757 0.24685 0.444354
2.71187 0.116912 1.29938
3.69101 0.260409 0.842471
9.65441 1.29384 7.78844
3.37183 0.366791 1.41067
5.18571 0.573713 8.11032
3.77774 0.157673 1.27898
5.39511 0.363004 0.782448
8.58748 5.63498 7.49621
5.32827 1.46917 3.5128
3.69175 0.552335 0.863169
6.54022 1.94553 1.57661
3.20007 0.258512 4.91509
5.36662 0.830275 8.61144
2.97556 0.0634996 5.41513
5.20471 0.496061 8.04346
4.96387 0.210922 8.31687
3.13362 0.494319 0.842695
2.97993 0.314482 1.42613
5.34572 0.0516677 0.576802
3.8318 0.484884 0.965075
3.34002 0.508744 1.68657
3.04977 0.244787 4.91942
3.81129 0.291964 1.47242
3.1272 0.113562 1.17077
6.32396 1.29889 9.71863
5.25661 0.543734 7.98589
2.89914 0.566501 0.916762
3.26894 0.484797 0.821799
5.47713 0.280579 0.571354
5.51249 0.527533 8.16606
3.10439 0.284028 0.77848
2.99033 0.390588 1.44154
5.34121 0.632381 1.22274
5.00263 0.354881 8.32702
5.22231 0.429415 8.40181
3.23621 0.35072 1.19053
2.92124 0.368722 0.912475
9.61486 0.274162 3.74094
5.4249 0.606774 8.64065
6.05082 0.143057 7.29287
5.59242 0.635747 8.56445
4.93091 0.70215 0.601969
5.32354 0.676954 1.22007
6.45947 2.13318 6.1958
5.12426 0.403138 7.97407
3.51323 0.432798 0.603952
3.08486 0.381559 0.669493
9.85994 0.162524 4.28445
5.12192 0.343648 8.00468
5.64651 0.667151 8.27938
4.89302 0.589637 8.66348
3.45881 0.335735 1.25212
3.11088 0.478491 0.833595
3.11267 0.442731 1.1018
4.82627 0.374996 8.96405
3.47799 0.140138 1.46217
0.622341 1.12129 8.64058
5.07969 0.367686 8.28042
3.13614 0.43992 1.23746
3.26735 0.0435197 1.34153
9.72716 2.58518 6.94881
5.37837 0.637833 0.927339
3.0743 0.350275 0.756304
3.51744 0.365485 0.804037
4.60191 0.624756 8.30606
3.05791 0.301266 1.15163
0.597446 1.07086 9.07922
4.97064 0.404613 8.4755
3.13224 0.416268 1.31165
3.03027 0.106996 5.03819
6.95685 0.316751 0.836245
5.42379 0.652998 0.912292
POINT_DATA 400
SCALARS particleColor float 3
LOOKUP_TABLE default
0 0.896766 1
1 0.197193 0
1 5.96046e-08 0
1 5.96046e-08 0
1 0.667868 0
1 0.398658 0
0 0.330844 1
1 0.788859 0
0 0.758262 1
0.117301 1 0.882699
0.222194 1 0.777806
0.526322 1 0.473678
1 5.96046e-08 0
0.433428 1 0.566572
1 0.16757 0
1 0.0693673 0
1 0.0318474 0
0 0.390208 1
0.326509 1 0.673491
0 0.642162 1
0 0.295866 1
1 0.560778 0
1 5.96046e-08 0
1 0.661888 0
1 0.67414 0
0.176819 1 0.823181
0.656856 1 0.343144
0.685809 1 0.314191
0.469612 1 0.530388
0 0.632637 1
0 0.789406 1
0 0.861143 1
0 0.576151 1
0.243456 1 0.756544
0.961916 1 0.0380837
1 5.96046e-08 0
0.141599 1 0.858401
0 0.422969 1
0 0.748617 1
0 0.569393 1
0.557239 1 0.442761
0.27199 1 0.72801
1 0.216942 0
1 5.96046e-08 0
0 0.633529 1
0 0.301586 1
0.719299 1 0.280701
0 0.731036 1
0 0.195616 1
1 5.96046e-08 0
0.783913 1 0.216087
1 0.176362 0
0.215469 1 0.784531
1 0.0376059 0
0 0.795909 1
0 0.322503 1
1 0.753648 0
0 0.74823 1
0.119181 1 0.880819
1 0.66226 0
0.813916 1 0.186084
0.697881 1 0.302119
1 0.714362 0
0 0.415933 1
1 5.96046e-08 0
0 0.681928 1
0.0585166 1 0.941483
1 0.538807 0
0 0.884039 1
0.129435 1 0.870565
0 0.602683 1
0 0.245375 1
0.400291 1 0.599709
0 0.850628 1
0.826595 1 0.173405
1 5.96046e-08 0
0 0.6778 1
1 0.304604 0
0 0.962447 1
1 0.528961 0
0 0.666729 1
0 0.506391 1
0.311436 1 0.688564
0 0.68598 1
0.0766806 1 0.923319
0 0.632996 1
0.286036 1 0.713964
1 0.373797 0
0.066612 1 0.933388
0 0.279872 1
0 0.938196 1
0.502423 1 0.497577
0.356878 1 0.643122
0 0.429024 1
0 0.47291 1
1 5.96046e-08 0
0.52933 1 0.47067
0.528887 1 0.471113
1 5.96046e-08 0
0 0.347181 1
0 0.336721 1
0.684004 1 0.315996
0 0.721566 1
1 0.839483 0
1 0.57416 0
0 0.59875 1
0 0.730905 1
0 0.387031 1
0 0.758901 1
1 0.0474536 0
0.810115 1 0.189885
0 0.840557 1
0 0.662794 1
0 0.410611 1
0 0.937859 1
1 0.355634 0
0 0.571262 1
0.647711 1 0.352289
1 0.149716 0
1 5.96046e-08 0
0 0.651888 1
0.7078 1 0.2922
1 5.96046e-08 0
0.593433 1 0.406567
0.420573 1 0.579427
0 0.417149 1
1 0.907037 0
0 0.0677721 1
0 0.43231 1
0.273187 1 0.726813
0 0.82771 1
0.679882 1 0.320118
0 0.948044 1
0 0.439153 1
0.665658 1 0.334342
0 0.661982 1
0.821043 1 0.178957
0 0.683916 1
1 5.96046e-08 0
0 0.391668 1
0 0.284274 1
0 0.939911 1
0 0.68092 1
1 0.896212 0
0 0.85882 1
0.167173 1 0.832827
0 0.524747 1
0.702093 1 0.297907
0.208549 1 0.791451
1 5.96046e-08 0
0 0.436841 1
0 0.357194 1
0 0.599115 1
0.719384 1 0.280616
0.337576 1 0.662423
0 0.793123 1
0 0.679702 1
0 0.967921 1
1 0.96923 0
0.0870286 1 0.912971
0.633659 1 0.366341
0 0.642555 1
0 0.51952 1
0.77338 1 0.22662
1 0.137091 0
0 0.879289 1
0.421609 1 0.578391
0 0.489922 1
1 5.96046e-08 0
0.282004 1 0.717996
0 0.590895 1
0.116423 1 0.883577
0 0.602105 1
0.361077 1 0.638923
0 0.626797 1
0.548862 1 0.451138
0 0.867112 1
0 0.546243 1
0.329643 1 0.670357
1 0.176275 0
0 0.57962 1
0.740054 1 0.259946
0.892116 1 0.107884
0.0773489 1 0.922651
0 0.729652 1
0 0.944447 1
0 0.557513 1
1 0.147546 0
0 0.767054 1
0 0.479323 1
0 0.446381 1
0 0.318848 1
1 0.0632614 0
0 0.502739 1
1 5.96046e-08 0
0 0.422367 1
0 0.507853 1
1 0.0827478 0
0 0.28873 1
0 0.577544 1
0 0.530041 1
0 0.303655 1
0 0.546726 1
0 0.498505 1
1 0.561761 0
0 0.107132 1
0 0.432086 1
1 0.10278 0
0.0603628 1 0.939637
0 0.487104 1
0 0.762451 1
0 0.997313 1
1 0.383989 0
0 0.760765 1
0 0.840612 1
0 0.718928 1
0 0.774478 1
0 0.535401 1
0.486755 1 0.513245
0 0.810508 1
0.767754 1 0.232246
0.0130006 1 0.986999
0.100551 1 0.899449
0 0.438016 1
0 0.808529 1
0 0.81446 1
0.342723 1 0.657277
0 0.429995 1
0.00550639 1 0.994494
0 0.842157 1
0.196214 1 0.803786
0 0.793062 1
0 0.476085 1
0 0.769249 1
0 0.718942 1
0 0.513022 1
0 0.756793 1
0 0.720008 1
0 0.522191 1
1 0.124324 0
0 0.828016 1
0 0.842879 1
0 0.720787 1
0 0.492778 1
0 0.802617 1
0 0.971234 1
0 0.141727 1
0 0.628207 1
0.0210689 1 0.978931
0 0.511306 1
0 0.567802 1
0.824241 1 0.175759
0 0.706585 1
0 0.754344 1
0 0.88391 1
0 0.425592 1
0.100434 1 0.899566
0 0.555978 1
0 0.265905 1
0 0.553796 1
0 0.538424 1
0.671034 1 0.328966
0 0.434204 1
1 5.96046e-08 0
0 0.702172 1
1 0.817952 0
0 0.969851 1
0 0.736218 1
0 0.541606 1
0 0.601658 1
0 0.226074 1
0.607608 1 0.392392
0.449388 1 0.550612
0 0.824561 1
0.291249 1 0.708751
0 0.357047 1
0.469911 1 0.530089
1 0.418839 0
0.0024707 1 0.997529
0 0.425643 1
0 0.56939 1
0 0.62592 1
1 5.96046e-08 0
0 0.951545 1
0 0.479638 1
0.173967 1 0.826033
0 0.681007 1
0 0.673327 1
0 0.777972 1
0.953343 1 0.0466571
0 0.190762 1
0 0.276851 1
0 0.806178 1
0 0.742128 1
0 0.69123 1
0 0.691803 1
0 0.40342 1
0 0.365921 1
0 0.568162 1
0 0.307592 1
0.47597 1 0.52403
0.0126114 1 0.987389
0.0203682 1 0.979632
0.891453 1 0.108547
0 0.757709 1
0 0.763095 1
0 0.752083 1
0 0.744964 1
0 0.687642 1
0 0.593365 1
0.00630292 1 0.993697
0 0.300628 1
0 0.27851 1
0.059993 1 0.940007
0 0.528055 1
0 0.708614 1
0 0.821188 1
0.115787 1 0.884213
0.139613 1 0.860387
0 0.531769 1
0.0222877 1 0.977712
0 0.84213 1
0 0.625517 1
0 0.911856 1
0 0.781263 1
0 0.176507 1
0 0.792314 1
0 0.484238 1
1 0.212862 0
0.108421 1 0.891579
0 0.927176 1
0 0.4362 1
0 0.723269 1
0 0.807574 1
0 0.716143 1
0 0.879295 1
0 0.877607 1
0 0.44141 1
0 0.891424 1
0 0.873257 1
0 0.570438 1
0 0.215618 1
0 0.541494 1
0 0.435938 1
0 0.52376 1
0 0.476251 1
0 0.696731 1
0 0.260308 1
0 0.599202 1
0 0.319499 1
0 0.915422 1
0 0.656717 1
0 0.43898 1
0 0.741506 1
0.0405657 1 0.959434
0 0.6052 1
0 0.710657 1
0 0.462621 1
0 0.903009 1
0 0.43016 1
0 0.516054 1
0 0.712165 1
0 0.980797 1
0 0.193405 1
0.330594 1 0.669406
0.0141836 1 0.985816
0 0.856096 1
0 0.969874 1
0 0.812718 1
0 0.995113 1
0 0.672833 1
0 0.771814 1
0 0.44921 1
0.0872197 1 0.91278
0 0.333227 1
0 0.749957 1
0 0.330609 1
0 0.807095 1
0 0.678952 1
0 0.499004 1
0 0.853467 1
0 0.417484 1
0 0.508762 1
0 0.397821 1
0 0.871542 1
0 0.506384 1
0 0.823794 1
0 0.471834 1
0.264046 1 0.735954
0 0.607824 1
0 0.728808 1
0 0.132331 1
0 0.378062 1
0 0.455381 1
0 0.461033 1
0 0.270074 1
0 0.74169 1
0 0.989764 1
0 0.733538 1
0 0.49458 1
