# vtk DataFile Version 3.0
Particle simulation
ASCII
DATASET POLYDATA
POINTS 400 float
3.19773 1.52251 1.31271
9.62433 6.25367 0.659911
1.48579 3.14841 1.97513
7.53524 2.95404 8.61136
9.28012 0 6.6201
2.63151 3.10253 0.986223
7.58217 2.94206 6.86114
3.64891 7.54256 7.54689
8.71583 0.707192 3.146
8.5177 9.09013 0.379425
8.87835 3.61721 3.20185
1.95544 2.81571 7.60759
9.35771 4.63878 2.68473
8.95708 4.49252 1.09183
3.51137 3.08207 8.68001
2.83191 0.28249 1.1095
2.04069 6.77109 2.36015
4.7873 0.239663 3.33346
5.20879 8.73647 9.31179
9.40557 6.22517 0
2.37752 0.814425 0.876788
4.35157 8.23224 0.208807
8.04814 1.26767 0.0855325
0.187648 1.00387 1.76206
5.09256 7.72035 6.33587
8.49487 7.74659 1.55405
6.94291 2.50571 4.9978
9.32264 9.05189 3.97115
2.95909 3.25081 9.54697
0.165036 1.74976 7.73082
9.25277 7.52106 7.14557
7.57789 1.06581 1.92926
4.74578 9.28324 7.45036
1.6157 7.04143 9.68863
9.34506 5.77124 7.25692
5.28376 9.04394 3.60949
2.10186 4.00474 9.19347
7.04453 0.283152 1.12647
4.56006 1.90248 4.54537
4.61176 8.62514 4.82684
7.98503 2.721 8.96716
9.61385 8.84982 4.99277
6.47794 0.985762 0.65197
6.90394 4.49652 5.75815
2.85463 9.93272 9.86608
9.72295 1.14135 8.89722
8.26644 0.019883 4.23036
1.54601 0.887062 8.91356
6.45552 4.41097 1.55824
7.04691 4.26148 8.75505
0 0 4.53911
4.59278 5.62008 2.44279
3.5288 6.08325 5.28056
7.17846 7.62357 4.26451
9.73573 0.39899 6.85609
0.720964 3.9329 1.59833
7.34541 1.99639 8.99501
0.16762 1.73484 9.41615
3.35004 4.82897 0.104063
5.46218 8.51247 6.23886
10 0.166703 4.53886
7.39086 1.20524 1.39329
1.96341 5.21011 9.13621
5.11686 5.78805 9.57134
4.27321 3.9403 4.24711
10 3.35231 5.90457
8.3567 1.85332 1.41408
1.91976 4.09307 6.73571
1.26138 0.233687 7.3945
0.388552 4.41492 0.355244
10 4.06992 2.68521
6.52543 8.67249 5.21327
6.86841 4.29886 9.78504
1.14895 4.79084 9.0563
8.89074 3.57291 4.32491
8.86893 0.415746 8.20919
8.45154 1.42457 4.3306
6.99984 4.87062 0.641956
0.665979 0.098851 9.79943
2.0083 2.95829 0.905079
2.80607 2.65166 10
6.74355 1.94641 7.64344
6.10279 9.69978 3.56518
9.11459 6.97439 1.42611
5.05723 8.44429 9.76273
9.18907 6.48202 5.257
1.89343 9.0029 8.56706
2.09297 1.42239 7.24273
1.63119 5.16371 6.122
1.13415 2.20061 0.447227
5.21808 0.408029 4.18353
9.18173 8.91077 4.76927
2.04313 9.22557 0
0.521705 5.88223 4.66471
6.42221 8.63309 1.06199
1.66357 4.96861 5.74841
1.019 8.63016 8.71138
3.53559 0.466309 3.38203
1.55489 6.51226 7.09214
7.22373 4.01327 7.8193
3.0519 4.63148 0
4.83056 1.26407 3.61788
2.78377 7.39502 1.9434
4.8143 0 3.62288
6.666 0.664057 0.853521
1.90627 7.19871 4.60006
1.56921 10 5.18521
1.33288 3.9294 1.56619
8.94923 0.577652 9.95282
1.4563 8.86353 8.84819
1.67394 6.34629 10
8.96309 2.21542 6.32975
4.7516 8.64304 2.96747
4.88938 0.815927 8.81083
2.2372 2.16584 4.53822
8.34104 1.51282 0
8.50469 8.7623 5.88981
4.33383 9.6245 3.8995
0.243926 2.34327 8.97896
2.85109 9.21446 0.117262
4.61982 9.8373 0.603447
4.70902 6.64975 1.17609
0.707528 9.51003 9.65736
8.90146 9.03268 6.66618
8.71689 1.41716 3.34358
4.0005 0.887442 9.59753
4.12792 5.12288 3.84542
8.75801 9.40018 5.84189
7.88694 4.84637 9.43999
4.33291 6.41026 3.41744
8.57694 5.79347 0.873609
5.9881 4.57109 5.88602
4.21822 2.591 9.04117
1.34364 8.62396 2.43154
4.64919 6.9435 7.98733
0.530696 6.29784 0.499957
6.91051 5.67651 4.11352
6.06354 4.92577 7.86061
8.09148 9.14623 10
9.98303 5.04161 1.98892
4.43746 0.447197 3.57945
9.72833 6.94893 4.35358
8.49354 9.85662 4.67645
7.28955 4.2581 3.1262
5.51209 9.03048 9.34375
8.57425 1.72589 3.45688
9.09315 5.98074 1.72628
0.890762 0.0338368 0.945174
5.14992 8.0639 0.837021
6.68767 0.308664 6.1066
4.4911 0.350641 3.5219
6.19323 4.25631 3.67668
9.15965 2.86591 0.491145
3.64974 0.944846 6.69997
2.71832 9.15687 4.367
5.25206 5.01358 10
8.19813 6.97115 6.98997
7.9081 7.33332 8.10253
5.09007 7.40241 0.996242
8.81822 4.55264 1.12501
8.90558 8.22751 4.85013
6.48237 3.17379 3.0918
10 10 10
8.30272 9.65302 7.20399
3.71232 6.94606 7.36043
4.14529 5.41391 0.430444
8.74209 0.515189 1.6801
4.54398 9.49768 9.81795
3.71824 5.72198 7.60016
3.30611 8.35258 6.26171
7.57744 2.10697 3.87932
6.70968 0.963781 0.520934
1.08189 8.27918 5.56314
6.1308 0.763718 7.22135
1.21281 8.14853 6.73477
1.28671 1.78892 1.28802
2.33023 6.90098 3.56936
8.8773 6.86774 7.58262
3.31731 0.582196 3.1719
1.52556 3.21049 9.89398
2.95739 0.758735 3.65259
9.17441 4.63098 4.95059
0.432631 7.02444 1.70844
0.693529 0 9.66811
6.92035 2.04666 8.12522
9.29601 4.93291 2.40791
4.49643 0.355805 3.21766
7.62616 8.202 8.81583
2.59917 2.24829 4.73132
3.59823 0.410776 5.39849
5.32482 0.168874 5.27412
4.93639 0.463877 4.22388
3.18645 8.29552 2.06387
9.34787 6.59204 3.98466
0.160973 3.04898 2.17146
2.9236 9.23223 4.60103
5.67308 0.159259 2.31963
9.2937 2.80116 0.870123
8.80553 2.18418 2.14622
3.67268 0.419085 3.10777
4.44436 0.359864 3.47919
0.831914 9.47942 6.98739
3.05527 8.30194 0.751014
7.26077 7.26763 10
1.77121 4.44431 3.55764
6.4819 9.17403 2.00638
3.43659 1.89131 6.26237
1.24174 3.90645 6.13802
0.0883213 2.78883 5.38256
9.74736 2.90389 0.313806
4.46198 0.222058 3.56153
4.7775 0.178512 3.74165
0.124535 5.59394 2.0583
3.63428 5.72004 6.67399
2.40443 7.56267 9.62253
1.90983 8.90439 0.0872967
4.51161 0.562405 3.63352
8.46719 4.93457 5.52324
8.13309 5.00369 9.22088
0.618308 5.40239 0.408385
7.78197 7.77923 8.42488
0.549929 9.17885 9.20178
0.615965 4.74941 0.631273
3.95768 0.568627 3.36422
3.41085 1.1293 0.745611
9.71056 7.58513 8.74564
7.60933 5.31356 5.80321
5.24446 0.0544807 4.33659
4.58946 0.308078 3.55632
6.14562 1.63395 9.147
1.70931 5.96816 8.64774
7.12734 8.22297 1.93796
2.82404 0.576143 6.78155
4.38127 0.468668 3.69692
1.78089 0.370079 7.77787
0.88431 9.73159 10
3.17729 2.6706 5.38803
7.38926 8.71634 9.64664
4.56803 0.379423 3.2753
4.52623 0.672592 1.6847
4.43901 0.305942 3.84421
6.89055 0.187401 1.2222
3.63927 1.91065 5.99953
7.96986 0.587839 1.80797
6.45647 3.49835 1.81239
6.2736 2.67178 2.82126
6.75739 0.792839 9.90082
0.635833 9.00134 3.33188
8.29935 8.29527 9.75841
2.76222 3.10469 2.57749
4.55275 0.637137 3.02815
0.299668 2.31406 9.54272
9.78325 7.29157 8.12727
4.04825 2.18054 3.48847
4.61196 1.94266 1.77659
0.295724 4.6555 0.461198
1.54019 0 3.46456
1.54278 0.217756 7.88359
1.13041 9.34572 2.4481
2.80599 0.307628 6.24769
7.33921 8.474 5.57431
2.80759 4.14225 6.94365
1.51949 7.04953 1.53728
9.58814 2.56547 8.68216
1.73252 2.20703 0.332696
8.0482 1.44305 1.51535
1.25188 5.41433 1.67254
1.36153 0.646304 7.4902
2.22533 0.94252 3.16303
7.5107 5.98207 2.17254
4.77516 0.230962 3.5727
3.16176 6.46224 1.01162
1.48984 6.03386 4.00215
9.172 2.07529 0.756734
1.44083 6.87424 9.60624
5.0471 0.615047 8.99706
2.87572 9.81387 5.72387
9.644 2.56358 6.75935
4.74219 2.25576 3.16625
4.63198 0.479913 3.1227
3.53631 9.13348 1.74255
9.52695 0.38747 2.32423
0.250827 4.44837 5.29374
1.00571 1.2734 8.219
7.67789 5.23024 8.73697
7.17658 4.89074 4.91415
4.78555 0.324255 3.61809
7.3794 9.46586 3.07112
4.24886 3.03965 0.648616
9.06799 4.30711 4.56
5.43577 9.07621 9.34724
0.330635 9.02652 5.08475
3.57812 7.10314 8.79243
9.775 0.974748 0.991693
5.28781 5.69161 4.06994
1.84284 0.353338 8.09063
4.66474 0.717912 3.58148
4.50636 0.204643 3.49471
3.87731 0.220324 4.01141
4.65322 0.279144 3.46947
4.328 9.74501 10
8.90605 1.38716 1.67927
4.44009 0.628723 3.40239
3.30114 6.46584 6.25956
4.41556 0.137021 4.00368
0.350992 8.70901 4.86934
4.47538 0.382436 3.19482
4.50079 0.492765 3.324
4.87801 9.12672 1.13626
6.67236 5.7458 7.76114
8.41218 8.14014 1.8184
2.97252 2.36224 0.324781
9.06767 6.09645 0.884395
4.76827 0.536061 3.56668
10 3.0936 10
6.74222 8.62167 3.74262
6.72783 4.1645 2.73336
0.190732 3.25544 8.80709
7.77076 6.45074 6.69396
2.75049 3.19952 0.468382
1.48644 0.264501 7.8754
3.24114 7.32114 5.97359
1.82663 0.639702 7.80726
4.62935 0.218526 3.65465
4.7101 0.381811 3.57132
2.81303 9.88526 5.96456
4.43433 0.622377 3.00132
3.00858 1.2462 1.17483
7.35438 5.20195 5.84274
4.45924 0.42667 3.2902
1.58722 0.375741 7.97547
1.73263 0.880606 3.01112
9.63097 4.90372 6.62846
3.41899 5.38553 3.32064
9.47118 0.636623 1.70747
0.595571 4.67774 3.50136
3.68379 7.65073 6.94026
4.57063 0.298475 3.53385
6.49787 9.98853 0.778501
7.7556 3.29177 5.21105
5.68756 9.0397 5.05862
9.35926 8.76532 9.32608
1.49953 2.20155 7.23402
1.72787 0.205311 7.78415
4.85974 0.113035 3.5652
4.86841 0.437056 4.22494
9.38386 0.685343 1.02758
4.47422 0.793415 3.11693
4.76705 0.951134 2.79453
9.84658 1.1723 0.189415
4.3202 0.454853 3.28278
4.37844 0.662557 3.25991
2.72908 1.62699 8.19928
5.78355 5.4498 5.69455
2.57716 1.99319 4.62116
4.63401 0.263654 4.07608
9.37592 2.84074 8.41302
9.7449 9.70436 3.65047
4.84552 0.494127 3.16414
4.59328 0.0449655 3.12002
9.53957 0.838431 1.58846
1.83086 0.140857 7.87774
1.84584 0.137096 7.95727
3.92537 0.0535872 3.14187
4.67088 0.432659 4.10376
9.55349 0.769475 2.04883
1.7329 0.309374 8.40543
2.32944 7.79261 6.02621
1.72778 0.18766 7.89988
2.98784 3.89969 2.47845
9.31626 0.982662 2.05088
0 8.16562 2.1218
7.05541 8.70762 5.64778
5.16524 0.476279 3.52948
5.05711 0.117646 3.86054
9.76441 0.536108 1.83355
1.8074 0.514714 8.01981
1.84575 0.710969 7.80533
0.880898 3.22923 8.65007
4.77238 0.29779 3.51601
4.14947 0.224599 3.12706
4.37679 0.64202 3.03482
1.19859 4.5928 8.55154
4.63896 0.39295 3.56796
7.44803 7.14851 7.50745
1.80109 0.350839 8.20523
4.54036 0.248553 3.45361
4.32372 0.376523 3.09635
0.420064 9.56883 7.56572
9.53881 0.000424106 7.65983
4.40531 0.00790066 3.57407
4.96456 0.321 3.52575
1.93883 0.0777092 8.24152
4.4034 0.48656 3.7887
6.28678 6.23408 7.30794
1.38776 0.127848 7.5637
4.66638 0.234029 3.29413
7.32473 3.83031 2.6564
2.2103 5.83323 0.279468
9.33949 0.609931 1.77918
POINT_DATA 400
SCALARS particleColor float 3
LOOKUP_TABLE default
1 5.96046e-08 0
1 5.96046e-08 0
1 0.48222 0
1 5.96046e-08 0
0.400506 1 0.599494
1 5.96046e-08 0
1 0.819211 0
1 0.287987 0
1 5.96046e-08 0
1 5.96046e-08 0
1 5.96046e-08 0
1 5.96046e-08 0
1 5.96046e-08 0
1 5.96046e-08 0
1 5.96046e-08 0
1 5.96046e-08 0
1 5.96046e-08 0
0 0.342201 1
0.29053 1 0.70947
1 0.442697 0
0.490378 1 0.509622
1 5.96046e-08 0
1 0.345579 0
0.537864 1 0.462136
1 0.759498 0
1 5.96046e-08 0
1 0.555336 0
1 0.363966 0
1 5.96046e-08 0
0.153965 1 0.846035
1 0.380475 0
0.261833 1 0.738167
0.793174 1 0.206826
0.724699 1 0.275301
0 0.863844 1
0.782188 1 0.217812
1 0.677662 0
0 0.603424 1
1 5.96046e-08 0
1 0.613855 0
0.820935 1 0.179065
1 0.974744 0
1 5.96046e-08 0
1 5.96046e-08 0
0 0.71316 1
1 0.808825 0
0.474791 1 0.525209
1 0.333705 0
1 0.167032 0
1 5.96046e-08 0
1 5.96046e-08 0
1 5.96046e-08 0
1 0.113106 0
1 5.96046e-08 0
1 5.96046e-08 0
0 0.872223 1
1 0.486355 0
0 0.357907 1
1 5.96046e-08 0
1 0.692674 0
1 5.96046e-08 0
1 0.671357 0
0.189218 1 0.810782
1 0.29684 0
1 0.839419 0
1 5.96046e-08 0
0.700665 1 0.299335
0.513212 1 0.486788
0.744352 1 0.255648
0 0.844373 1
1 0.256186 0
0 0.923534 1
1 5.96046e-08 0
1 5.96046e-08 0
1 5.96046e-08 0
1 0.852693 0
1 5.96046e-08 0
1 5.96046e-08 0
0 0.605163 1
1 5.96046e-08 0
1 0.586512 0
1 5.96046e-08 0
0.462468 1 0.537532
1 5.96046e-08 0
1 5.96046e-08 0
0.197464 1 0.802536
0.353816 1 0.646184
0.402184 1 0.597816
0.237564 1 0.762436
1 5.96046e-08 0
0 0.621259 1
0.568993 1 0.431007
1 5.96046e-08 0
1 0.985673 0
1 5.96046e-08 0
1 5.96046e-08 0
1 5.96046e-08 0
0.640604 1 0.359396
0 0.948008 1
1 5.96046e-08 0
1 5.96046e-08 0
1 5.96046e-08 0
1 5.96046e-08 0
1 0.673823 0
1 0.909687 0
1 5.96046e-08 0
1 5.96046e-08 0
0 0.9761 1
1 5.96046e-08 0
1 5.96046e-08 0
0.473811 1 0.526188
0.470773 1 0.529227
1 5.96046e-08 0
1 5.96046e-08 0
0 0.752847 1
1 0.298615 0
1 5.96046e-08 0
0.691632 1 0.308368
0.234855 1 0.765145
0.857859 1 0.142141
1 0.709679 0
1 5.96046e-08 0
1 0.754891 0
1 0.348455 0
0.597562 1 0.402438
0.871262 1 0.128738
0.745575 1 0.254425
0.963846 1 0.036154
0.147995 1 0.852005
1 5.96046e-08 0
1 5.96046e-08 0
1 5.96046e-08 0
1 5.96046e-08 0
0.213383 1 0.786617
1 5.96046e-08 0
1 0.114039 0
1 5.96046e-08 0
1 5.96046e-08 0
1 5.96046e-08 0
0 0.61748 1
0 0.318962 1
1 0.0771893 0
1 0.4846 0
1 5.96046e-08 0
1 0.276512 0
1 0.106665 0
0.376309 1 0.623691
1 0.873849 0
1 0.598194 0
0.488029 1 0.511971
0 0.546237 1
1 0.897464 0
0.731549 1 0.268451
0.295731 1 0.704269
1 0.134186 0
1 0.851938 0
0.26581 1 0.73419
0.812912 1 0.187088
0 0.966711 1
0.29638 1 0.70362
1 5.96046e-08 0
0 0.924796 1
1 5.96046e-08 0
1 0.207075 0
1 5.96046e-08 0
1 0.820523 0
1 5.96046e-08 0
0.821007 1 0.178993
1 5.96046e-08 0
1 0.386046 0
1 5.96046e-08 0
1 0.0591279 0
1 0.446853 0
0.431456 1 0.568544
1 0.464478 0
1 0.336357 0
1 5.96046e-08 0
1 5.96046e-08 0
1 5.96046e-08 0
0.760207 1 0.239793
0.0208667 1 0.979133
1 0.530361 0
0.0984276 1 0.901572
1 5.96046e-08 0
1 0.588805 0
1 5.96046e-08 0
0 0.440246 1
0.974021 1 0.0259787
0.197635 1 0.802365
0.879189 1 0.120811
0 0.572612 1
0 0.789834 1
1 0.853837 0
1 0.0562984 0
1 0.808632 0
1 5.96046e-08 0
1 0.437607 0
0.92132 1 0.0786797
0.891434 1 0.108566
0 0.237772 1
0 0.749156 1
1 0.897207 0
1 0.470881 0
1 5.96046e-08 0
0.813671 1 0.186329
1 5.96046e-08 0
1 0.0477513 0
0.273659 1 0.726341
1 0.517124 0
1 0.834497 0
0 0.586758 1
0 0.574865 1
0.295701 1 0.704299
0.415911 1 0.584089
1 5.96046e-08 0
1 5.96046e-08 0
0 0.76451 1
0.827896 1 0.172104
1 0.396664 0
1 0.873418 0
0.259636 1 0.740364
1 5.96046e-08 0
1 5.96046e-08 0
0 0.70275 1
1 5.96046e-08 0
1 0.749924 0
1 0.26712 0
0 0.591417 1
0 0.421456 1
1 5.96046e-08 0
0 0.522514 1
0.462606 1 0.537394
1 5.96046e-08 0
0 0.856521 1
0 0.706868 1
1 5.96046e-08 0
1 5.96046e-08 0
0.976362 1 0.0236383
0 0.75374 1
1 5.96046e-08 0
0 0.941917 1
0.574067 1 0.425933
0 0.673173 1
1 0.626781 0
0.435079 1 0.564921
0.909598 1 0.0904016
1 5.96046e-08 0
1 0.0398381 0
0.920055 1 0.079945
1 0.534973 0
0 0.720107 1
0.904983 1 0.0950172
1 0.242271 0
1 5.96046e-08 0
1 5.96046e-08 0
0.875171 1 0.124829
1 0.502392 0
0 0.369062 1
1 0.701149 0
0.168656 1 0.831344
1 5.96046e-08 0
1 5.96046e-08 0
1 0.790791 0
1 5.96046e-08 0
1 5.96046e-08 0
1 5.96046e-08 0
0.739643 1 0.260357
0 0.454709 1
0.766027 1 0.233973
0.124019 1 0.875981
0 0.693867 1
0 0.6179 1
0.414669 1 0.585331
1 0.457732 0
1 5.96046e-08 0
0.363853 1 0.636147
1 5.96046e-08 0
1 5.96046e-08 0
1 5.96046e-08 0
0 0.212692 1
0.953668 1 0.0463316
0 0.631636 1
0.665764 1 0.334236
1 5.96046e-08 0
1 5.96046e-08 0
1 5.96046e-08 0
0 0.834544 1
0.663402 1 0.336598
0.506022 1 0.493978
1 0.314202 0
1 0.321819 0
1 0.663898 0
1 5.96046e-08 0
1 5.96046e-08 0
1 5.96046e-08 0
0 0.504018 1
0 0.455189 1
0 0.324812 1
0 0.981315 1
0 0.502693 1
1 5.96046e-08 0
1 5.96046e-08 0
0 0.882029 1
1 0.969242 0
0 0.780162 1
1 5.96046e-08 0
0 0.95265 1
0 0.617445 1
0 0.843014 1
0.238553 1 0.761447
1 0.800345 0
1 5.96046e-08 0
0.164135 1 0.835865
0.0442489 1 0.955751
1 0.763408 0
1 0.613509 0
0.107577 1 0.892423
1 0.953008 0
1 5.96046e-08 0
0.657338 1 0.342662
0 0.715061 1
1 5.96046e-08 0
0 0.798192 1
0 0.497636 1
0.459709 1 0.540291
1 5.96046e-08 0
0 0.462729 1
0.0218039 1 0.978196
0 0.959143 1
0 0.462465 1
0.662766 1 0.337234
0.99285 1 0.00715041
1 5.96046e-08 0
0 0.919229 1
0 0.447759 1
1 5.96046e-08 0
0.153914 1 0.846086
0 0.578095 1
1 5.96046e-08 0
1 0.324462 0
0.631296 1 0.368704
1 0.545559 0
0.737534 1 0.262466
0 0.41436 1
0 0.776076 1
0 0.526549 1
0 0.943971 1
0 0.439577 1
0 0.466025 1
0.628337 1 0.371663
0 0.900586 1
0 0.203165 1
0.280298 1 0.719702
1 5.96046e-08 0
0 0.826665 1
0 0.450719 1
0.162933 1 0.837067
0.614967 1 0.385033
0.0576388 1 0.942361
0 0.496582 1
0 0.895886 1
0 0.281468 1
0 0.385217 1
0.275715 1 0.724285
0 0.861652 1
0.192989 1 0.807011
0 0.967397 1
0 0.748285 1
0 0.411384 1
1 0.498356 0
0 0.723026 1
0 0.876954 1
1 5.96046e-08 0
0 0.545801 1
0 0.864237 1
0 0.70953 1
0 0.734315 1
0.300387 1 0.699613
0.618575 1 0.381425
0 0.820008 1
0 0.591508 1
0 0.203772 1
0 0.804438 1
0 0.726742 1
1 0.780331 0
0 0.40973 1
0 0.590083 1
0 0.543124 1
0.338784 1 0.661216
1 0.516974 0
0.18797 1 0.81203
0 0.201097 1
0 0.641136 1
0 0.690446 1
1 0.0529916 0
0 0.451626 1
0 0.765233 1
0 0.884568 1
1 0.581109 0
0.282244 1 0.717756
