# vtk DataFile Version 3.0
Particle simulation
ASCII
DATASET POLYDATA
POINTS 400 float
2.6791 1.63784 6.28924
7.31659 3.80552 3.42062
9.28964 8.24956 5.58573
2.54891 8.44536 7.05456
9.93661 9.37571 6.23688
6.65306 4.80105 2.03284
9.44439 1.18405 6.33751
6.55331 4.29468 4.8243
1.78204 3.61894 6.7033
3.21539 8.73333 7.73317
8.29824 5.40293 3.67893
7.64783 7.63661 7.3933
5.14824 3.89772 5.33319
4.5792 1.4238 4.5259
7.30747 7.50469 1.24759
6.60618 3.58143 2.99905
1.63116 6.68487 9.19108
3.18071 0.413583 1.03517
0.850852 8.62071 5.29207
9.35215 6.19343 3.00411
3.0335 0.271465 1.30459
2.54097 2.14951 6.27975
5.67683 6.72979 3.03361
9.5804 4.1561 5.25483
7.19102 8.05153 5.23604
5.3278 3.587 7.44913
9.47976 8.21806 5.92276
4.32119 1.51799 7.28437
9.40504 2.52725 8.54072
7.66319 9.8916 4.53081
0.400095 1.89418 8.08185
5.35372 8.98827 1.19676
0.369639 7.86528 6.68586
2.3124 1.67204 9.02749
1.90582 7.96222 0.443315
7.52913 6.05724 3.53536
7.13215 7.5046 1.20802
3.01668 0.411077 1.32846
3.22414 1.99717 1.71076
0.909598 2.51923 6.76958
3.8068 8.17843 4.79613
5.53379 8.74062 5.07577
7.08583 8.77411 7.19637
8.70455 1.52128 0.832819
8.30581 0.737886 2.31559
8.06987 9.62586 7.04193
4.79327 3.60759 9.43052
9.53988 3.6576 6.10765
6.48134 0.795236 1.13675
1.5458 3.4179 7.45175
4.62293 2.81886 9.67974
9.28466 7.72182 0.482132
8.86996 4.37218 8.66071
7.10367 3.04994 0.393654
0.606575 10 1.0851
6.05528 0.381455 1.7599
5.10784 2.46622 6.97507
8.8357 1.62065 2.17477
9.58335 3.17545 4.83228
3.87599 9.26605 3.94605
0.542909 6.35803 9.68789
5.83832 8.48442 6.52607
4.9407 10 1.06807
4.90737 9.16495 4.06423
5.49968 6.38913 3.09688
1.58974 1.00468 1.15359
5.82913 0.408587 2.90262
4.80158 1.20468 3.72435
2.22628 1.56681 5.81738
9.71837 9.71925 0.340482
1.21785 4.39956 1.77483
9.24713 3.65461 1.67201
7.4536 7.57853 7.30155
1.78343 1.78028 2.78287
8.24779 9.44098 9.15528
1.15995 3.6188 8.94197
3.65383 4.08885 1.45181
1.94792 6.86281 4.34226
3.18807 7.46594 3.12188
6.99434 7.48239 4.26435
3.24187 0.270416 1.19508
9.96475 9.62339 7.30162
9.12536 0.304649 7.14346
6.01731 3.16435 6.11688
9.90629 4.26918 4.91729
0.60666 7.71019 9.37694
4.52853 6.30709 7.83578
1.69362 0.564474 4.36893
9.75903 4.01956 8.61459
0.719642 7.08837 4.43014
2.97183 0.434755 1.26998
7.61768 5.74231 3.36314
8.49037 4.55808 5.08339
1.97057 0.26282 9.66443
5.61816 5.33564 2.56845
9.68115 9.6176 6.73535
7.40764 5.09268 7.75766
9.88106 7.51596 1.31487
3.46525 3.05105 9.23969
7.20183 4.81845 9.4476
2.59507 0.185752 0.576228
8.4538 1.77665 9.80962
3.58957 1.90079 2.11629
1.17342 7.83276 3.42255
8.31727 6.39598 9.59296
2.01896 3.36766 8.74156
0.215723 5.44976 0
8.54569 0 3.37947
8.7649 1.3472 4.13471
1.68481 0.600964 9.73647
4.06339 2.85152 5.95776
0.346197 1.90779 8.65273
7.36892 1.62722 7.14238
2.70815 2.95469 1.75249
2.48653 0.779546 2.1749
8.23476 9.44191 9.93001
2.99907 0.207991 9.41182
7.11516 3.32118 2.13835
9.90248 2.13688 7.70664
4.32532 6.52983 8.72607
2.91918 0.168232 0.586091
10 7.0891 3.5367
5.14834 8.78064 7.24262
8.32205 2.25153 9.46611
6.99055 3.43055 3.80927
3.45024 0.086405 0.950086
0.112835 8.80691 2.64527
0.429281 1.50713 8.28176
9.12944 2.38883 8.13391
1.4661 4.36044 2.97927
3.11276 6.23055 9.23265
0.516835 3.4407 7.84246
3.2084 4.2648 6.6109
9.71667 4.22892 0.467616
0.529153 0.352269 4.9012
0.979074 0.84411 6.62604
6.74991 1.56504 9.57476
4.72479 0.471532 7.09757
1.19188 0.391842 4.02765
2.34266 2.7723 1.18446
3.88678 0.201909 1.31131
1.94814 7.87324 7.8792
5.72815 2.81918 0.252656
7.06609 4.97069 6.67684
2.64575 0.733928 2.1285
4.92672 2.64639 8.19378
4.7428 0.616215 3.06762
4.44641 2.31123 1.54184
6.92263 2.91697 2.42146
6.04234 0.347425 3.23442
3.59804 0.199111 1.04222
1.47612 2.02497 9.33433
1.31501 1.76338 9.16568
2.72515 0.692458 1.50705
0 0 2.26054
5.73116 0.532948 1.74438
4.89562 6.92557 8.22627
4.42217 7.86301 10
8.68207 6.62085 9.56167
0.491105 0.824205 0.239691
4.13719 0.811963 2.78892
7.91322 2.82112 9.6502
2.69444 2.84842 9.81462
1.94394 1.55275 6.95885
8.14576 4.16579 1.4364
9.30777 2.46423 8.7131
9.51133 5.71865 8.63343
0 7.66443 2.21656
10 10 0.0976403
8.11171 7.80147 8.16268
2.77645 0.509344 0.808319
4.44476 6.27677 4.45952
6.18236 1.05961 3.16835
9.55131 1.6771 6.74634
2.42688 0.931939 5.13612
5.65175 9.05104 0.537957
0.53022 0.276539 8.48023
5.7166 2.27085 2.64342
2.16627 2.44931 0.329217
8.08885 3.41756 1.1263
3.55684 0.355036 1.02476
7.64713 7.30757 1.19571
10 5.63962 8.56112
7.9134 6.94614 2.17098
5.41649 9.01951 0
6.35461 3.73968 4.39919
2.74912 0.472129 0.943862
1.87439 3.22176 6.11455
6.02464 0.42727 1.60114
3.02467 0.313936 1.94093
3.42095 0.365127 0.982516
3.37287 0.269472 0.557714
6.94117 7.68076 3.72489
5.77987 3.75182 5.73059
4.46783 7.3481 5.87154
3.73893 0.358212 1.35606
0.213886 1.58013 1.68755
3.61673 0.0363334 8.70289
3.04184 0.330805 0.833514
3.41849 0.441164 1.08976
3.58367 0.42608 1.25858
7.10447 0.849557 0.301437
2.9944 4.61703 7.69602
5.01784 0.313528 5.81661
2.60592 4.79062 2.24698
1.153 1.71058 8.44827
3.68408 0.408917 0.628413
1.34858 0.208583 6.22709
9.24048 0.769249 4.96237
2.2024 2.80591 9.38958
3.54363 0.127331 1.39418
3.33977 0.0693582 0.696959
8.29795 0 1.44976
7.5441 2.0155 9.40568
3.65296 5.38867 9.30007
3.78423 0.459099 8.88316
3.22044 0.486833 1.10637
3.17894 0.523762 0.674377
3.34255 3.85267 7.22472
3.0042 0.861472 0.16945
1.46 5.85057 6.38599
1.51287 8.93186 7.08817
4.13377 1.74983 6.02587
2.83792 0.519591 0.629686
5.25674 9.26981 2.78311
10 10 5.6651
2.31691 3.74793 8.03481
2.62969 0.313882 0.332215
3.46878 0.487097 0.977494
9.10694 8.35271 1.98099
3.61587 3.00138 7.23376
5.78756 0.451538 9.78319
0.657431 0.465262 0.653511
3.65469 0.147248 0.726576
3.65865 0.287998 9.02032
2.36457 4.10747 8.01361
8.75332 4.10657 9.37564
0.209891 3.17076 4.82167
3.0816 0.232157 0.942643
0 0 0
3.44083 0.396002 1.1001
2.56603 0.465023 0.489292
3.36142 0.345157 0.896887
3.08125 0.0705493 1.05638
4.21036 0.124719 8.08389
6.73648 2.0979 9.82022
2.08391 0.768823 5.01011
0.718106 1.20677 2.31361
9.57455 1.78456 6.98515
0.961975 1.50862 4.72693
3.07076 0.550499 1.25184
5.80929 8.10706 0.96756
3.88342 0.538869 7.79471
3.56907 0.409094 8.32074
7.19072 0.40583 0.117242
3.52856 0.308405 1.15269
8.622 2.51606 2.50856
3.86539 0.346929 9.10144
0.5391 5.9572 9.22975
3.69381 0.403141 9.10091
2.97486 0.331566 0.900877
2.08039 4.53846 0.554714
4.84185 0.333835 5.61009
9.25324 4.19982 1.54773
3.38937 0.0670466 9.25955
7.44015 7.2116 8.2395
7.1455 0.966521 0.185785
3.51534 0.349457 8.76956
3.69559 2.97426 4.94393
3.35367 0.372305 0.986533
3.23408 0.0139994 1.15944
6.85418 7.9825 4.22076
0 6.17061 6.9501
3.73412 6.26438 2.30718
6.72586 3.17421 4.31246
3.86732 1.9447 5.69819
6.12305 5.59276 0.328051
9.19153 4.93468 7.80602
0.121823 4.94721 5.76028
3.47537 0.06668 1.37253
4.91301 0.60815 3.04752
6.93442 0.874634 0.537595
9.74249 3.09796 6.25886
9.89834 2.00817 4.85876
9.39779 8.28259 2.91704
8.17053 3.63223 4.32563
3.45183 0.103268 1.14991
3.35403 0.733649 8.58515
9.49886 2.05733 3.201
4.51443 0.670221 1.20322
6.96014 4.95089 8.70573
8.59422 2.10346 0.644693
2.46348 0.614121 0.472992
0.189801 0.312793 6.43337
4.49095 0.23526 8.35531
3.64059 0.0518514 8.55913
3.43038 0.137427 1.59957
3.41463 0.112708 1.38901
7.13311 4.39874 4.58851
3.4174 0.304959 1.48453
6.17239 0.687054 9.51532
4.88765 0.362817 5.94542
9.25749 3.28294 8.62247
8.13994 0.267159 1.0977
3.74523 0.269054 1.01923
0.703214 0.654184 6.64085
3.46809 0.15624 1.14968
3.58833 0.494132 1.17328
0.621543 1.66162 2.61843
6.15635 5.56424 0.293464
2.08231 0.328124 9.52115
1.47733 0.875572 2.36879
3.51557 3.35198 5.30251
3.38236 0.0603044 1.19644
8.41361 0.812033 8.77198
1.93782 0.0451607 5.87674
2.33459 2.9138 7.96563
0.770971 6.42878 8.9945
9.37947 1.92565 4.77002
5.20082 4.76919 0
3.43169 0.469234 9.44376
0.732698 1.50278 2.65943
3.64045 0.350722 8.52395
3.18452 0.179127 0.904735
5.01103 0.580653 3.14155
3.83498 7.32209 0.134574
3.31388 0.544401 0.924945
3.02061 3.37661 6.91014
8.5674 9.37243 7.70233
3.05841 0.472038 0.754979
9.5734 2.96891 6.51772
3.60718 0.387713 0.892634
3.63692 0.270901 9.12252
3.44793 0.124795 0.314117
7.34429 0.916983 0.380438
5.71079 5.28879 2.12725
0.36031 5.8487 9.30179
3.34528 0.439521 1.22067
8.74948 5.17111 5.44852
6.92137 0.598239 9.02978
0.833411 2.02312 8.75147
7.94638 3.09981 9.7259
3.87942 0.213813 9.12341
3.65439 0.417987 9.11621
3.36062 0.260345 1.19587
3.5614 0.151205 0.657016
6.9971 0.443097 0.259734
2.95424 0.343863 1.00078
3.60771 0.193159 1.33491
8.5456 5.92649 9.6686
3.14161 0.066842 1.34493
3.30167 0.079665 1.27164
5.56001 0.948509 5.93565
3.40346 0.403717 9.4901
3.54839 0.359874 0.939697
2.93179 0.247467 1.04178
4.0791 0.581542 2.73065
3.90427 0.300455 9.49248
3.59451 0.436849 1.03459
3.34798 0.185245 0.802574
7.12995 0.992279 0.345868
3.7751 0.343891 9.15913
3.40099 0.15662 9.20967
3.54581 0.218915 0.415584
3.11063 0.609396 1.35082
6.83864 0.25409 0.58762
3.69823 0.303196 8.93867
1.44397 1.2844 8.03969
4.19726 0.570646 8.77938
1.32777 10 10
7.20644 0.989178 0.413021
1.2826 3.68448 4.58777
3.79336 0.442351 8.56766
3.03466 0.0184281 0.869294
3.50008 0.35188 1.30674
6.93416 0.789141 0.0565643
3.74561 0.0276349 8.47953
3.608 0.0860818 8.23046
4.15043 0.628341 9.29588
3.16 0.64233 0.681256
2.97588 0.312093 0.935955
3.73389 0.331707 1.10078
4.11755 0.639346 9.29025
3.33639 0.655562 1.06454
0.795313 0.441873 6.79749
3.85633 0.30631 9.09631
3.40006 0.254408 1.59687
3.25178 0.297063 1.06738
3.97213 7.40604 5.9724
7.2162 0.47936 0.340838
3.2827 0.509853 0.792014
3.57599 0.31226 1.02096
4.03594 0.477793 9.13473
3.63973 0.0160743 1.25818
0.859485 0.59575 6.78259
3.56383 0.414818 8.93467
3.35566 0.302351 1.52549
2.43632 0.887484 5.31549
6.42647 0.624163 0.769463
7.16089 0.960101 0.480068
POINT_DATA 400
SCALARS particleColor float 3
LOOKUP_TABLE default
0 0.656634 1
1 0.220582 0
0 0.862963 1
1 0.742136 0
1 5.96046e-08 0
0.470435 1 0.529565
1 0.730048 0
1 0.883956 0
0 0.770109 1
1 5.96046e-08 0
1 5.96046e-08 0
1 0.867367 0
0.812107 1 0.187893
1 0.238653 0
1 5.96046e-08 0
1 0.355013 0
1 0.171568 0
0 0.514076 1
1 0.733878 0
0.967336 1 0.0326635
0 0.667904 1
0.148419 1 0.851581
0.495871 1 0.504129
0.335158 1 0.664842
1 0.276933 0
1 5.96046e-08 0
0.0221695 1 0.977831
1 5.96046e-08 0
0 0.933804 1
0.914427 1 0.0855728
1 0.578981 0
0.334167 1 0.665833
1 5.96046e-08 0
1 0.129581 0
0.823065 1 0.176935
1 5.96046e-08 0
0.362037 1 0.637963
0 0.438193 1
0 0.851334 1
0.642374 1 0.357626
1 5.96046e-08 0
0.593867 1 0.406133
1 0.111269 0
0.506499 1 0.493501
0.0921877 1 0.907812
1 5.96046e-08 0
0.00406431 1 0.995936
0.312184 1 0.687816
0 0.491088 1
1 0.533757 0
1 0.734957 0
0.515346 1 0.484654
0.284141 1 0.715859
1 0.966449 0
0.977434 1 0.0225656
0 0.503765 1
0 0.883717 1
1 0.634409 0
0.383217 1 0.616783
0.348344 1 0.651656
1 0.910352 0
1 5.96046e-08 0
1 0.992326 0
1 0.432131 0
1 0.371727 0
1 5.96046e-08 0
0.212584 1 0.787416
1 5.96046e-08 0
1 0.875116 0
0.289179 1 0.710821
0.384312 1 0.615688
0.184121 1 0.815879
0.69455 1 0.30545
0.136257 1 0.863743
0.0803874 1 0.919613
0.418317 1 0.581683
0 0.937792 1
0.153574 1 0.846426
0 0.564777 1
0 0.784275 1
0 0.522315 1
1 0.214589 0
1 0.0506609 0
1 5.96046e-08 0
0.617892 1 0.382108
0 0.807185 1
0.742214 1 0.257786
1 5.96046e-08 0
0.678745 1 0.321255
0.0412339 1 0.958766
0 0.488169 1
0 0.811685 1
0.67406 1 0.32594
0 0.798958 1
1 0.776465 0
0 0.453766 1
1 5.96046e-08 0
0 0.828299 1
0.656945 1 0.343055
1 0.782169 0
0 0.294416 1
0 0.623894 1
0.415459 1 0.584541
0.884017 1 0.115983
0.492607 1 0.507393
0.135726 1 0.864274
0.0414856 1 0.958514
0 0.768473 1
0.55058 1 0.44942
1 0.164708 0
1 5.96046e-08 0
1 0.529771 0
1 0.396819 0
0.433656 1 0.566344
0 0.53453 1
1 5.96046e-08 0
0 0.382469 1
0.938224 1 0.061776
0.176896 1 0.823104
0.848962 1 0.151038
0 0.477785 1
1 5.96046e-08 0
0.390657 1 0.609343
0 0.425469 1
1 0.556254 0
0 0.34804 1
1 0.495342 0
0 0.838057 1
0.579476 1 0.420524
0.0369193 1 0.963081
0.394712 1 0.605288
1 5.96046e-08 0
0.946131 1 0.0538689
0.133647 1 0.866353
0 0.37988 1
1 5.96046e-08 0
1 5.96046e-08 0
0 0.552895 1
1 5.96046e-08 0
0.0946767 1 0.905323
0 0.296068 1
1 5.96046e-08 0
0 0.692754 1
1 5.96046e-08 0
0 0.464187 1
1 0.901888 0
0.361857 1 0.638143
1 0.822623 0
1 0.829873 0
0.299139 1 0.700861
0 0.335456 1
0 0.723512 1
0 0.279242 1
0 0.333258 1
1 5.96046e-08 0
0 0.87245 1
1 0.975644 0
1 5.96046e-08 0
0.0578804 1 0.94212
1 5.96046e-08 0
0 0.740319 1
0.0387764 1 0.961224
0.885128 1 0.114872
0.360744 1 0.639256
0.694799 1 0.305201
1 5.96046e-08 0
0.96573 1 0.0342702
1 5.96046e-08 0
1 5.96046e-08 0
1 5.96046e-08 0
0 0.328683 1
0.404098 1 0.595902
1 0.73466 0
1 5.96046e-08 0
0.104911 1 0.895089
0.790177 1 0.209823
0.0580838 1 0.941916
1 0.442886 0
0.0190468 1 0.980953
0 0.808925 1
0 0.688509 1
1 0.633379 0
0 0.924019 1
1 5.96046e-08 0
0.95668 1 0.0433203
0.480688 1 0.519312
0 0.432428 1
1 0.602881 0
0 0.683246 1
0 0.650475 1
0 0.632072 1
0 0.554087 1
0 0.704806 1
1 5.96046e-08 0
1 5.96046e-08 0
0 0.602943 1
0 0.649788 1
0.164131 1 0.835869
0 0.687379 1
0 0.945069 1
0 0.576517 1
0 0.834896 1
0 0.903239 1
0 0.715614 1
1 5.96046e-08 0
0 0.469602 1
0 0.532644 1
1 5.96046e-08 0
0.194109 1 0.805891
1 0.788222 0
0 0.568154 1
0 0.818898 1
1 5.96046e-08 0
0.810603 1 0.189397
1 0.123855 0
0 0.9602 1
0 0.848295 1
0 0.645442 1
1 5.96046e-08 0
0 0.380989 1
1 5.96046e-08 0
1 0.904948 0
0 0.609344 1
0 0.930062 1
1 0.70793 0
1 5.96046e-08 0
1 5.96046e-08 0
0 0.319691 1
0 0.687095 1
1 0.672936 0
1 5.96046e-08 0
0.887346 1 0.112654
0.0871693 1 0.912831
0 0.575471 1
0 0.491442 1
0.53157 1 0.46843
0 0.73598 1
0 0.696856 1
0.0477408 1 0.952259
1 5.96046e-08 0
0 0.328419 1
0 0.682865 1
0 0.35139 1
0 0.534531 1
0 0.650895 1
1 5.96046e-08 0
0 0.723056 1
0 0.659897 1
1 5.96046e-08 0
0 0.894299 1
0 0.864572 1
0.562685 1 0.437315
0 0.54308 1
1 0.305451 0
0 0.464936 1
0.203991 1 0.796009
0.123082 1 0.876918
0 0.361706 1
0 0.724909 1
0 0.504173 1
0 0.424777 1
1 5.96046e-08 0
0.0720446 1 0.927955
1 0.654786 0
0 0.423011 1
0.639583 1 0.360417
0.19242 1 0.80758
0 0.443511 1
0 0.8048 1
0 0.761337 1
0 0.540778 1
0 0.799416 1
1 5.96046e-08 0
0 0.799918 1
0.652854 1 0.347146
0 0.390188 1
0 0.672477 1
1 0.223701 0
1 5.96046e-08 0
0 0.260569 1
0 0.516059 1
0 0.294713 1
1 0.423059 0
0 0.872888 1
1 0.859476 0
1 0.193783 0
0 0.709432 1
0.339254 1 0.660746
1 5.96046e-08 0
0.778811 1 0.221189
1 5.96046e-08 0
0 0.997592 1
0 0.908931 1
0 0.399198 1
0 0.402149 1
0 0.210438 1
0 0.352404 1
0 0.752443 1
0.446784 1 0.553216
0 0.910158 1
1 0.116689 0
0 0.428187 1
0.21652 1 0.78348
1 0.934 0
0 0.72291 1
0 0.806616 1
0.120691 1 0.879309
0 0.703656 1
0 0.90237 1
0 0.772882 1
0.856537 1 0.143463
0 0.849935 1
0.480819 1 0.519181
0 0.652261 1
0 0.210252 1
0 0.993025 1
0.397126 1 0.602874
0 0.860348 1
0 0.959992 1
0 0.864877 1
0 0.887541 1
0.404991 1 0.595009
0 0.606399 1
0.174066 1 0.825934
0 0.959393 1
0.29898 1 0.70102
0 0.950951 1
1 5.96046e-08 0
0.683956 1 0.316044
0 0.463486 1
0.479687 1 0.520313
0 0.659092 1
0 0.675699 1
0 0.228232 1
0 0.539318 1
1 0.918246 0
0 0.848329 1
0 0.534117 1
1 0.0396971 0
0.00987622 1 0.990124
0.496589 1 0.503411
0.141416 1 0.858584
0 0.883439 1
0 0.755377 1
0 0.480834 1
0 0.388822 1
0 0.63643 1
0 0.391542 1
0.0345798 1 0.96542
0 0.54581 1
0 0.949703 1
0 0.65885 1
1 5.96046e-08 0
0 0.395833 1
0 0.953084 1
0 0.350264 1
0 0.807809 1
0 0.665969 1
0.252411 1 0.747589
0 0.642242 1
0 0.154315 1
0 0.947376 1
0 0.692703 1
0 0.427012 1
0 0.525181 1
0 0.580765 1
0 0.631686 1
0.763694 1 0.236306
0 0.491358 1
1 5.96046e-08 0
0 0.164608 1
1 0.748821 0
0 0.828519 1
0 0.877488 1
0.257664 1 0.742336
0 0.396973 1
0 0.790294 1
0 0.577982 1
0 0.923858 1
0 0.234019 1
0 0.757224 1
0 0.805043 1
0 0.73976 1
0 0.862731 1
0 0.835507 1
0 0.252457 1
0 0.500534 1
0 0.354881 1
0.837155 1 0.162845
0 0.617164 1
0 0.536713 1
0 0.687244 1
0 0.625865 1
0 0.784566 1
0 0.922131 1
0 0.994132 1
0 0.357351 1
0 0.816161 1
0 0.491363 1
0 0.793774 1
