# vtk DataFile Version 3.0
Particle simulation
ASCII
DATASET POLYDATA
POINTS 400 float
0.0744972 1.10957 3.32201
0.0581873 4.3767 4.87803
8.33047 0.480938 9.32296
9.42006 5.73461 4.89313
8.07578 1.98431 9.15234
9.62406 7.25179 6.64036
6.49048 5.55904 6.38833
8.57311 9.42521 8.09457
2.40451 6.65755 9.41485
0.735016 5.44355 6.42589
3.61928 2.78552 4.25157
2.73517 3.63001 4.63815
4.3323 1.87024 6.92583
4.12023 8.04918 3.89201
1.3773 9.49532 6.07072
8.15405 6.66729 8.94935
9.08307 6.73187 9.27117
3.64951 0.195601 2.23129
5.93078 6.38858 0.242601
4.75092 9.39672 9.69583
3.43484 0.114264 2.29983
9.14811 4.7932 8.54053
6.65523 2.47314 4.11839
5.29757 5.85203 0.177413
10 4.58261 3.50374
9.67629 7.09819 3.11382
10 5.54901 7.59364
1.3491 3.58489 8.37089
0.436644 5.1431 1.1728
9.65734 4.30998 3.43941
5.4191 6.84055 9.2002
6.19485 4.69206 0.868341
8.42174 1.50513 6.50134
9.71902 9.40983 2.68069
3.40743 8.30501 0.864726
6.19852 6.25536 0.372563
6.8899 8.74776 4.44207
3.41285 0.345778 1.75536
4.54137 4.15882 2.65613
2.61088 9.92915 5.79665
6.90496 9.5359 2.38344
5.12071 0.758576 9.66153
3.51126 2.05669 7.00501
2.29807 4.09466 0.301142
6.22624 0.415951 2.9892
9.45073 8.24951 1.60005
2.64933 0.605501 0.772724
7.8431 0 0.511434
5.67927 4.22772 2.78147
6.51977 0.610377 3.57683
0.895967 6.41156 6.20153
7.83139 9.12434 7.35734
3.52127 8.63256 1.2851
7.99451 8.6141 1.44962
8.49303 7.96262 5.80188
2.92681 0 9.72142
0.197356 3.66451 0.694573
7.28832 0.205277 3.51877
3.56088 7.04307 4.97194
3.73217 9.49321 9.01373
0.390157 0.0362605 5.31199
10 2.2039 6.58215
5.9874 0 4.83019
5.19374 9.19837 0.988965
5.23507 7.47215 10
10 0.672328 7.29695
10 2.56677 0.406708
6.65376 9.60729 8.41825
2.53319 4.46832 2.2943
7.88091 0.971922 5.80495
6.11391 0.768346 7.75923
7.64947 9.19276 7.44357
2.81625 5.63123 1.47293
8.53803 1.85066 6.08246
8.07497 4.57887 5.16829
6.12647 2.56491 2.25501
1.11707 6.60352 1.02479
5.34482 7.34267 5.36488
1.13873 5.37773 0.268615
7.34545 2.01892 8.02551
3.53063 0.659436 2.19294
0.301653 3.41421 1.64119
2.50233 1.35161 9.84485
6.43346 0 4.99501
3.73875 1.36441 7.32052
5.34919 2.3187 2.84008
8.32142 5.70887 3.61857
7.82459 1.13952 7.67229
4.70687 4.26484 0
1.33902 0.777938 6.24878
3.06833 0.330303 2.26525
2.68486 7.92731 8.49716
0.949958 1.95538 9.34605
4.75974 4.58591 7.13344
6.32099 9.03007 7.63518
3.34189 2.14142 0.230922
0.705515 0.0602369 6.46736
6.43896 8.08867 8.85916
8.46225 6.61018 1.64897
2.66339 7.94509 9.45369
3.12291 0.194416 1.4403
2.96505 5.57704 7.12385
8.20532 7.48401 1.83758
9.13406 2.52108 9.10752
3.06524 8.2015 8.56358
0.289395 10 3.38646
3.81235 1.23335 2.42472
1.58999 8.81172 6.34537
0.740834 6.25015 7.48696
7.14378 8.63247 10
3.20769 6.2462 9.28745
0.590642 4.15662 7.0454
4.94321 9.40789 1.07749
8.1451 7.99442 4.27801
3.3665 0.83451 0.251908
3.52489 7.64545 4.627
1.00332 0.609733 8.85037
4.02959 0 8.88594
3.10488 1.33041 9.24402
7.97507 8.08652 6.80199
3.29352 9.88054 6.17444
8.27866 8.93966 3.63322
9.36403 6.43769 8.37274
0.929661 9.65184 3.79203
5.05035 8.10564 8.75814
3.38803 0.643581 1.09764
3.85075 2.21455 2.79692
5.0662 7.66337 5.7537
0.845966 2.02909 1.2891
6.11465 2.32921 4.18905
3.09515 8.51587 5.69085
8.91796 9.53087 5.43556
4.96767 7.03774 2.62966
0.991173 2.02531 1.02744
3.43723 6.0146 9.31195
2.44905 5.71576 9.14894
3.51093 1.19903 9.60624
0.47127 8.58622 6.01754
7.29943 1.98063 8.32595
9.64094 7.2136 3.47316
3.27636 0.395038 2.72665
6.78778 3.36927 5.02961
4.43509 8.31796 5.66049
4.57588 7.6837 0.723528
3.47067 0.62077 0.449366
6.77171 0.985496 1.40168
9.29555 1.30035 4.6231
4.63965 9.7157 0.152689
0.407244 0.137233 10
8.3598 7.53702 8.04452
2.65597 0.264177 2.433
9.51154 1.81786 3.07981
6.94499 5.95677 4.32375
3.74392 0.176686 1.96098
2.10616 8.70348 1.20261
4.81882 0.943798 6.04188
6.40548 5.54583 1.53307
4.69206 3.10053 7.61443
7.90862 6.84895 1.4831
8.40387 4.91409 5.25951
5.78536 1.06369 4.67309
5.71986 6.03516 0.726643
7.51213 4.3993 2.05076
5.29818 8.84089 5.13555
1.09085 6.29987 3.279
8.74722 9.26648 3.28524
6.58876 8.92002 3.03302
9.49998 9.82509 4.16417
7.16096 9.74642 7.01056
5.13711 9.90163 3.66839
3.76663 0.212976 1.73943
8.09292 7.00172 0.653582
0.621587 5.58453 2.66346
9.61915 0.731725 9.02185
2.10158 4.95743 5.77681
0.603227 6.41462 2.03196
2.87115 3.41654 4.15839
6.97618 9.64267 2.34983
0.895212 5.93405 5.28769
1.14665 6.77166 6.39712
2.88883 0.481492 2.1318
7.68875 9.28672 1.04513
4.70696 8.35021 7.70376
8.94314 6.6901 0
2.197 3.35856 0.0367523
0.467089 9.35661 6.39454
2.91912 0.161445 2.08222
0.283453 5.98834 9.34019
2.97499 0.405497 2.18635
3.26202 0.641665 0.330963
3.45386 0.170477 2.11215
3.53728 0.455521 1.54899
9.41232 1.98686 7.21228
8.79391 2.12289 6.49525
8.30501 6.98169 9.08795
5.12786 2.33451 0
0.372412 5.03628 7.76901
1.14219 7.30472 1.49011
3.69067 0.677827 4.1262
3.56681 0.514216 1.74473
3.06797 0.504267 1.86504
5.49849 6.13746 6.07683
1.04566 2.28355 3.01173
9.60727 4.84394 2.32669
5.98766 8.75951 3.41157
5.87577 1.6988 7.25661
3.5591 0.35657 1.8261
4.05266 1.1737 8.70799
6.74618 1.81602 9.11722
3.92375 7.5976 8.81259
3.53948 0.236634 1.79015
3.11179 0.280454 1.99705
3.39614 7.76571 8.39165
6.75116 3.60258 1.02286
1.14218 3.30896 0.674312
3.93341 0.0970109 8.33263
3.60041 0.131018 1.88124
0.461583 0.68554 4.28589
1.95977 5.10463 3.58854
4.7632 4.34277 3.11079
2.62824 2.93215 1.17241
6.147 2.147 4.15908
8.93672 2.15678 1.85865
3.86646 0.140301 1.49076
7.82494 4.65171 0.886335
1.72769 7.66141 8.97065
9.15261 6.9835 3.41621
3.13947 0.446866 1.7833
3.50259 0.184422 1.83274
1.53136 9.0323 8.94061
3.79875 7.6248 3.10514
0.520933 6.91594 2.0663
2.20434 5.86541 2.79819
3.60159 0.606689 1.39674
0.871871 0.209892 8.59102
9.44375 5.60746 2.78766
6.61693 6.31331 3.34814
5.12025 3.75581 8.90703
3.46193 0.296867 2.32697
6.48706 3.72414 6.1262
3.09097 0.376745 2.13655
2.50428 0.625614 1.97926
3.85089 0.270518 1.7622
3.4896 0.318144 1.74092
2.71566 9.08818 5.09593
5.07808 7.1887 5.81713
6.02589 5.02797 9.99172
8.20795 2.10921 1.9164
1.25652 1.2467 1.08922
8.62644 7.29106 4.171
2.87133 0.767032 2.28536
7.07491 8.57289 2.6564
4.25976 6.76971 0.523551
6.30454 1.48819 6.31779
5.17799 2.42353 1.62695
3.45889 0.213876 2.93417
5.45798 2.35778 3.12669
1.16941 0.327616 8.60742
0 1.79369 9.61156
0.930886 0.296365 8.68769
3.19643 0.175695 3.05982
6.01609 1.59218 9.01502
8.40265 0.676916 8.28403
0.56323 0.0437275 0.935649
0.261466 0.881981 5.39638
3.59229 4.8182 1.47162
5.45033 1.2248 3.79515
0.896467 0.283443 8.70305
0.561589 8.7116 1.30123
4.14139 0.656777 2.37019
3.94258 0.18173 1.85003
8.24417 4.00892 8.67801
8.00648 7.76574 8.80407
9.63449 7.3669 4.10648
5.19404 1.07711 3.57643
1.59334 0.611993 8.52642
8.7354 6.36946 4.03157
4.55567 0.233081 4.84159
1.78757 1.98029 8.95121
3.58289 0.362322 2.06937
1.678 0.263873 7.85446
7.76645 0.52576 0.474516
4.39533 2.34347 6.05735
4.35076 0.27687 5.21322
0.98872 1.54134 9.51974
8.03693 8.59171 1.73283
3.23739 0.0417537 2.3554
4.30022 0.444725 5.06615
3.66348 7.72724 0
9.72621 7.28021 3.5116
4.42705 6.7947 9.78482
1.05843 5.92128 2.89604
3.8098 0.372302 1.54138
2.73108 2.91001 2.56847
1.83646 0.155766 9.37525
0.922396 0.413191 8.97229
3.73841 0.422174 1.95524
3.16767 0.436856 1.94242
2.71626 0.878778 2.49041
3.41909 0.264126 1.79363
5.34741 3.53371 1.83037
9.06982 1.8826 1.25955
3.25594 0.716339 2.68349
1.96452 8.10216 9.40051
3.26399 0.567533 2.20753
5.56499 0.513672 6.19228
3.69711 0.422398 2.12076
3.82412 0.59552 1.96534
0.40552 4.11611 5.6382
8.77887 6.4452 4.11911
8.03306 1.76967 0.46752
9.88996 0.0910624 0.777885
5.03592 7.99223 0.58422
3.24745 0.030144 2.40349
0.254649 4.78885 8.34489
4.54881 4.00903 0.182459
3.54553 0.221232 1.92983
7.77015 8.30353 9.27704
9.84967 3.9113 0.32134
8.32764 9.67473 3.15893
1.09782 0.384234 8.27095
7.89202 4.29136 8.47539
1.16494 0.405482 8.74744
2.73099 0.170081 2.36244
1.55067 0.395769 7.99245
1.13017 2.04906 0.0528909
3.28401 0.5004 1.71325
1.71978 6.55818 5.06582
9.4346 3.8633 8.44037
3.37113 0.222899 2.03627
4.0829 0 8.96721
3.92572 0.575493 2.50715
2.297 1.40593 9.30187
3.77354 0.42991 2.67288
7.84264 0.291364 0.535593
8.72961 0.686643 6.93464
3.00279 5.1322 7.26572
3.28073 0.454305 2.22002
1.10796 2.72121 7.56662
2.70391 4.1672 0.0517212
0.0921445 0.0815216 2.56211
8.81322 9.08778 3.13345
2.2275 1.39492 9.41736
0.894565 0.329121 8.64851
3.60667 0.564004 2.23252
3.93082 0.499813 2.1918
7.86442 1.00236 0.18951
3.2535 0.14396 2.13609
3.60129 0.161288 2.59008
7.00449 10 4.72132
3.4362 0.46069 1.35874
3.51724 0.0412683 2.26596
0.841651 5.75317 2.70487
1.84432 0.445855 5.86222
3.8658 0.398105 2.73284
3.22434 0.0724343 2.72075
3.47723 0.0723848 1.43556
2.14185 1.13856 9.09113
2.71211 0.451526 2.44759
3.60116 0.237807 1.66458
8.02468 1.07495 0.257079
0.951257 0.511019 8.79606
1.10452 0.383898 8.68048
3.50934 0.721936 2.82149
3.28414 0.34626 1.93205
7.83388 0.912773 0.440302
0.880244 0.237179 8.35574
8.83227 5.17602 2.6183
1.06628 0.503006 8.90189
3.56331 0.224263 6.14754
7.82286 0.687886 0.413355
2.76992 1.04467 9.85783
4.27272 0.715205 9.50773
3.14425 0.348663 2.18111
3.10394 0.488928 2.50202
7.66649 0.587329 0.302824
1.08071 0.42846 8.50507
0.960275 0.119144 8.37761
3.90699 0.42477 8.66251
3.11316 0.509164 2.21358
3.38165 0.1237 1.94522
3.43086 0.266157 1.99061
3.86426 0.33807 8.58798
3.16172 0.481596 2.06457
9.07675 0.344048 1.99442
1.33783 0.168302 9.19551
3.53497 0.486048 2.31171
3.44021 0.328134 1.89474
7.93888 1.38326 7.49095
9.39388 0.0811718 5.15978
3.54475 0.550345 1.30705
3.67261 0.311816 1.75586
0.524834 0.231949 8.97476
3.82434 0.217664 2.11487
3.61321 0.64412 1.58582
1.11029 0.630994 8.60173
3.5069 0.490157 2.43315
1.68884 0.189676 6.0967
6.56214 1.0724 3.03455
7.55247 0.313762 0.338537
POINT_DATA 400
SCALARS particleColor float 3
LOOKUP_TABLE default
1 5.96046e-08 0
0.489309 1 0.510691
0.356641 1 0.643359
0 0.685089 1
1 5.96046e-08 0
0 0.667947 1
0.905829 1 0.0941712
1 5.96046e-08 0
0.98867 1 0.0113299
1 5.96046e-08 0
0 0.942797 1
1 0.864351 0
1 0.956091 0
1 0.785187 0
1 0.186939 0
0.488832 1 0.511168
0.292261 1 0.707739
0 0.468225 1
1 0.730992 0
1 0.0801534 0
0 0.633536 1
1 5.96046e-08 0
1 5.96046e-08 0
0.94014 1 0.0598601
1 5.96046e-08 0
0.369277 1 0.630723
1 0.975438 0
0.102066 1 0.897934
1 0.840484 0
1 0.678727 0
1 5.96046e-08 0
0.453921 1 0.546079
1 5.96046e-08 0
1 0.575512 0
1 0.851828 0
1 5.96046e-08 0
0.453161 1 0.546839
0 0.636863 1
0 0.545163 1
1 5.96046e-08 0
0.363186 1 0.636814
1 5.96046e-08 0
1 0.814674 0
0.353801 1 0.646199
0 0.700954 1
1 0.218109 0
1 5.96046e-08 0
1 5.96046e-08 0
1 0.149412 0
1 0.865715 0
1 5.96046e-08 0
0.35548 1 0.64452
1 5.96046e-08 0
1 5.96046e-08 0
1 5.96046e-08 0
0.347584 1 0.652416
0 0.952049 1
1 0.967206 0
1 5.96046e-08 0
1 0.793922 0
1 5.96046e-08 0
1 0.482459 0
0.997894 1 0.00210583
1 0.488875 0
0.349554 1 0.650446
0 0.99025 1
1 0.0023154 0
1 5.96046e-08 0
0 0.693036 1
1 0.763786 0
1 5.96046e-08 0
1 0.722491 0
1 5.96046e-08 0
0.618174 1 0.381826
1 0.558036 0
1 5.96046e-08 0
1 0.229726 0
1 5.96046e-08 0
0.935285 1 0.0647151
0.0819977 1 0.918002
0 0.491377 1
0 0.988785 1
0.112431 1 0.887569
1 5.96046e-08 0
1 0.652511 0
1 0.147596 0
1 0.806111 0
1 5.96046e-08 0
0.53282 1 0.46718
1 5.96046e-08 0
0 0.287174 1
1 0.962508 0
0.542569 1 0.457431
1 5.96046e-08 0
0.671558 1 0.328442
1 5.96046e-08 0
1 0.882163 0
0.740817 1 0.259183
1 0.605558 0
0.120225 1 0.879775
0 0.645368 1
0.553918 1 0.446082
0.594613 1 0.405387
0.333151 1 0.666849
1 0.0487447 0
0.997725 1 0.00227529
0.665535 1 0.334465
0.590549 1 0.409451
1 0.88887 0
1 0.899942 0
1 0.970852 0
1 0.96137 0
1 5.96046e-08 0
1 5.96046e-08 0
0.150317 1 0.849683
1 0.367796 0
0 0.295955 1
1 5.96046e-08 0
1 5.96046e-08 0
1 0.330962 0
1 5.96046e-08 0
0.607444 1 0.392556
1 5.96046e-08 0
1 5.96046e-08 0
0.820932 1 0.179068
0 0.235227 1
0.919677 1 0.0803225
0 0.906679 1
0.272445 1 0.727555
1 0.30766 0
1 0.193461 0
1 0.196953 0
1 5.96046e-08 0
0.577015 1 0.422985
0.158767 1 0.841233
1 5.96046e-08 0
1 0.495478 0
1 5.96046e-08 0
1 0.597827 0
0 0.918801 1
0 0.124503 1
1 5.96046e-08 0
1 5.96046e-08 0
1 5.96046e-08 0
0 0.766103 1
0.327069 1 0.672931
1 0.795646 0
1 0.893615 0
0.569246 1 0.430754
1 5.96046e-08 0
0 0.372341 1
1 5.96046e-08 0
1 5.96046e-08 0
0 0.881867 1
1 5.96046e-08 0
0 0.41943 1
0.366402 1 0.633598
1 0.858969 0
1 5.96046e-08 0
1 0.215735 0
1 5.96046e-08 0
1 0.840981 0
1 0.800908 0
1 0.692401 0
0.403016 1 0.596984
0.874562 1 0.125438
0.452331 1 0.547669
0 0.965953 1
1 0.336805 0
1 0.919793 0
0 0.248495 1
1 0.259183 0
0.305845 1 0.694155
1 0.895088 0
0.0869641 1 0.913036
1 0.287385 0
1 5.96046e-08 0
1 0.109983 0
0.509602 1 0.490398
1 0.972505 0
0 0.229684 1
1 5.96046e-08 0
0.388594 1 0.611406
1 0.185442 0
1 5.96046e-08 0
0.318878 1 0.681122
0 0.195052 1
1 5.96046e-08 0
0 0.964734 1
0 0.496437 1
0 0.755034 1
0 0.681866 1
0.485588 1 0.514412
1 0.91892 0
0.506948 1 0.493052
0.158075 1 0.841925
0.273264 1 0.726736
1 0.42643 0
0.142511 1 0.857489
0 0.489809 1
0 0.247561 1
1 0.360843 0
1 5.96046e-08 0
0 0.638267 1
1 5.96046e-08 0
0 0.579429 1
0.090344 1 0.909656
1 5.96046e-08 0
0.416204 1 0.583796
1 5.96046e-08 0
0 0.868696 1
0 0.448846 1
1 5.96046e-08 0
1 5.96046e-08 0
1 0.56035 0
0 0.693734 1
0 0.851754 1
0.310039 1 0.689961
0.133949 1 0.866051
1 0.773457 0
1 0.287568 0
1 5.96046e-08 0
0.474353 1 0.525647
0 0.570175 1
1 0.663262 0
1 5.96046e-08 0
1 0.598421 0
0 0.745348 1
0 0.828196 1
1 5.96046e-08 0
1 0.390722 0
1 0.487456 0
1 5.96046e-08 0
0 0.369936 1
0 0.303218 1
0.115318 1 0.884682
1 5.96046e-08 0
1 0.959855 0
0 0.69492 1
1 5.96046e-08 0
0 0.528879 1
0 0.191363 1
0 0.946229 1
0 0.999973 1
1 5.96046e-08 0
0.264352 1 0.735648
1 5.96046e-08 0
1 0.763298 0
1 0.503679 0
1 0.0132609 0
0 0.792496 1
1 5.96046e-08 0
1 5.96046e-08 0
1 0.506168 0
1 5.96046e-08 0
0 0.816154 1
1 5.96046e-08 0
0 0.552149 1
0.808834 1 0.191166
0 0.652863 1
0 0.51558 1
0.0251692 1 0.974831
0.00464672 1 0.995353
0 0.985208 1
0 0.753197 1
0.813017 1 0.186983
0 0.7287 1
0 0.801742 1
1 0.302759 0
0 0.349681 1
0 0.508877 1
1 5.96046e-08 0
1 5.96046e-08 0
1 5.96046e-08 0
0 0.883049 1
0.219365 1 0.780635
0 0.528185 1
1 0.311195 0
1 5.96046e-08 0
0 0.1697 1
0.236639 1 0.763361
0 0.470696 1
1 5.96046e-08 0
0.893285 1 0.106715
0.968409 1 0.0315914
0.867257 1 0.132743
0 0.526639 1
0 0.708119 1
1 5.96046e-08 0
1 5.96046e-08 0
1 0.904389 0
1 5.96046e-08 0
0 0.940691 1
0.27079 1 0.72921
0.767507 1 0.232493
0 0.854323 1
0 0.388919 1
0 0.729548 1
0.387466 1 0.612534
0 0.223131 1
0.162951 1 0.837049
0.555556 1 0.444444
0.514459 1 0.485541
1 0.72779 0
0 0.779749 1
0.620291 1 0.379709
0 0.707657 1
0 0.450885 1
0.0371938 1 0.962806
0.158368 1 0.841632
1 5.96046e-08 0
0.757788 1 0.242212
0.441262 1 0.558738
0 0.298026 1
1 5.96046e-08 0
0 0.879102 1
0.24521 1 0.75479
1 5.96046e-08 0
1 0.866314 0
1 0.174357 0
0 0.468806 1
0.325833 1 0.674167
0 0.838503 1
0 0.29013 1
0 0.988327 1
1 5.96046e-08 0
0 0.901165 1
1 5.96046e-08 0
1 0.84811 0
0 0.379944 1
1 5.96046e-08 0
0.144294 1 0.855706
0 0.449486 1
0.334099 1 0.665901
0 0.34246 1
1 0.428499 0
0 0.522193 1
0 0.224485 1
0 0.765365 1
1 5.96046e-08 0
1 5.96046e-08 0
0.32879 1 0.67121
0 0.488896 1
0 0.403406 1
0 0.294951 1
0 0.739398 1
0 0.810867 1
0 0.735247 1
0 0.900793 1
1 0.91023 0
0 0.468026 1
0 0.357342 1
0 0.811257 1
1 0.594262 0
0 0.686274 1
0 0.113979 1
0.247638 1 0.752362
0 0.851377 1
0 0.609524 1
0 0.332614 1
0 0.368001 1
0 0.346129 1
0 0.476453 1
0 0.230146 1
0.0806107 1 0.919389
0 0.649092 1
0.0249964 1 0.975004
1 0.510601 0
0 0.559583 1
1 0.795947 0
0 0.529457 1
0 0.778398 1
0.74391 1 0.25609
0 0.954555 1
0 0.533714 1
0 0.460427 1
0.129344 1 0.870656
0 0.998846 1
0 0.353116 1
0 0.684593 1
0 0.535241 1
0 0.602357 1
0 0.448412 1
0 0.850748 1
0.3811 1 0.6189
0 0.144256 1
0 0.298872 1
0 0.49867 1
1 0.876822 0
0 0.992101 1
0 0.185157 1
0 0.683845 1
0 0.68874 1
0 0.40088 1
0.805785 1 0.194215
0 0.422907 1
0 0.27881 1
0 0.879471 1
0 0.880832 1
0 0.290589 1
