# vtk DataFile Version 3.0
Particle simulation
ASCII
DATASET POLYDATA
POINTS 400 float
0.280112 0.994408 7.90377
1.4555 0.732083 8.17632
8.15668 9.46838 4.47273
3.91116 2.02949 3.66463
6.79344 2.13138 8.18382
6.3163 0.400099 7.01512
2.18727 2.71497 5.88171
6.78976 1.85725 0.823352
2.82277 3.92766 5.60707
0.336973 4.24133 0.896276
2.78486 3.98645 1.59145
3.48254 8.76758 0.973404
3.53161 10 5.46949
6.45781 7.21243 2.49423
6.72905 6.25118 4.62778
0.568376 4.99373 4.10574
2.86255 3.04466 5.9632
3.01132 0.392023 0.838581
2.08113 5.71695 8.26959
1.89115 2.85258 8.1407
3.25114 0.177006 0.794683
1.16797 3.009 0.980812
2.98721 8.39487 8.68166
3.53212 5.82856 1.11687
7.31073 8.44869 2.90573
10 3.37531 8.5273
7.31564 7.73445 7.01506
9.69917 0.633803 3.55871
8.48286 7.23398 9.54493
6.68229 5.22219 3.89897
10 7.11129 5.35443
1.54059 8.87315 2.86984
8.09668 7.11468 9.01185
5.72361 6.01803 8.19298
0.474969 4.08832 4.1878
1.4376 3.68848 9.53971
4.9498 4.84637 5.08765
3.1606 0.35091 1.03752
1.1418 7.14078 1.1115
4.63882 0.548874 9.62782
4.41244 9.6511 7.88953
9.86902 6.4551 2.42458
8.68759 9.21255 1.83257
9.85558 1.66012 2.64119
4.65729 0.30561 0.484908
2.11403 4.61423 3.47699
5.54696 0.164366 7.54014
8.10724 1.82452 8.21362
6.46652 0.0225991 1.70906
6.2926 1.55092 4.96065
3.14856 9.20183 5.16119
1.76707 9.87757 1.80622
9.50402 4.56671 6.3105
7.11097 3.72959 5.25144
0.163787 1.1735 5.35492
6.8461 0.520773 1.12135
7.98886 0 7.82748
6.44644 5.71523 3.77659
2.56789 1.36279 5.63016
1.10184 2.73338 6.6647
0.359921 8.67584 9.11412
2.87257 4.21252 0.506748
3.09699 0.54734 2.35396
0.567968 0.899074 7.85395
1.90232 4.81155 0.926876
8.51053 7.1251 2.19187
0.544317 0.120376 1.89653
6.58031 2.55732 3.19639
4.89668 3.86446 2.92997
5.05762 8.26067 3.10057
4.81599 3.36764 6.24574
7.5428 5.46242 1.48338
3.43739 8.53782 1.26991
1.73309 6.4215 3.2805
9.41018 3.01987 8.28269
8.2777 5.42015 4.68412
4.04003 3.63464 2.19721
6.61239 6.32267 4.99413
6.26325 6.60325 4.8589
8.6987 6.58827 1.06415
3.49466 0.591198 0.639286
7.19322 2.1665 4.67702
2.26901 1.06649 7.56273
0.225185 3.34657 3.87247
1.76668 1.12026 7.38965
0.903324 2.95851 7.84752
0.753465 0.148592 1.22692
1.24877 0.206137 7.68298
2.49507 2.66479 9.16922
3.21606 9.26749 1.21563
3.02411 0.19327 0.610656
8.94188 6.91595 3.6172
3.5249 9.86269 7.22111
1.80777 0.264235 9.48895
0.270279 3.40162 2.9656
6.21748 9.49166 8.10866
7.19541 2.10372 5.68032
8.14698 3.81196 3.99171
0.363274 1.4023 5.29795
7.94499 2.3099 3.05503
3.14233 0.557478 0.508267
7.65685 2.65151 9.56319
0.95808 1.44356 4.18638
1.12402 4.69307 4.5165
8.83921 5.78282 8.21449
8.77481 2.18189 7.55345
8.01272 1.9167 5.14505
6.84463 0.256161 1.91688
5.41941 0.0453301 4.57021
9.05994 9.62324 4.54257
3.76968 9.95289 3.97747
8.76746 0.0667751 1.4593
9.38459 7.04434 4.54765
1.17443 0.891351 0.0972385
3.76576 0.673057 0.828666
3.97231 1.46196 2.07075
4.05843 0.585522 8.15266
8.45053 3.55908 1.35029
8.78065 1.55454 2.27314
3.9558 9.09906 1.56285
2.90978 0.643888 0.38319
5.68701 4.83955 6.44852
9.11138 3.8092 8.81726
4.92582 0.121422 9.29392
2.61107 7.24022 8.69807
3.53597 0.474295 1.0036
2.159 5.79121 7.98281
0.0706406 0.732422 7.84016
9.05365 0.711472 7.72897
3.35831 8.85102 7.62458
2.57351 2.64579 3.88893
0.262722 5.5671 1.7648
6.33946 0.559017 4.70124
9.48849 7.62447 1.27473
2.06094 0.280045 8.41789
0.217234 1.97484 0.573587
3.05187 4.39519 2.49138
2.58129 1.49016 6.86518
7.39149 9.98248 6.68123
6.19562 1.59291 5.63211
3.53421 0.371831 0.797799
4.67811 8.31685 7.8141
5.06378 2.43871 1.78841
5.00288 0.486488 1.69634
3.45137 0.288935 0.523904
9.5048 2.26266 9.37257
6.20316 0.303251 1.00701
2.15228 0.550055 8.53832
7.89036 5.40581 1.74911
2.79179 0.726711 1.43799
3.46744 0.34293 0.789993
2.68039 1.51649 6.74997
2.37625 0.859632 7.22803
2.81792 0.241907 1.21522
7.2012 0 8.05297
7.19964 0.3471 0.898891
8.26195 2.23123 1.53599
5.57947 0.337604 3.3809
8.89657 0.225011 9.22991
9.19438 10 8.25301
7.98915 1.63199 0.355336
7.23273 1.01812 9.1646
3.27236 2.422 5.95754
9.08875 0.563864 2.6594
9.02982 4.50882 0.34106
6.33442 4.47427 4.446
0.427743 2.65403 1.29312
10 0.658387 10
0.154448 3.24768 7.10115
1.70191 0.550143 5.88522
2.9431 0.476282 0.287338
6.99471 2.38947 6.13182
3.51785 0.920921 0.509461
0 2.10203 0
0.295222 0 5.48655
2.24928 0.564133 8.09273
2.6092 1.35319 6.8297
2.12055 5.27069 1.51966
0.675653 0 6.47164
9.01209 8.71197 3.41501
2.93994 0.48019 0.684661
6.37349 5.5082 9.51823
2.71529 2.32762 9.756
0 6.54461 6.66685
3.51211 0.604045 7.99598
7.83184 3.59275 10
2.99664 0.535112 0.501218
3.63235 8.22558 1.99398
7.95954 0.0644463 1.72857
2.87037 0.457738 1.70233
3.47063 0.221911 0.610292
2.90638 0.450154 0.453155
7.76383 6.35914 1.15887
5.7002 1.50842 4.24161
5.53154 0.276486 7.89188
3.4231 0.370787 0.541394
0.881572 0.419304 3.63411
5.26018 0.866415 3.24955
3.05707 0.249439 0.779715
3.57788 0.455672 0.36375
3.20564 0.48551 0.979226
6.89768 0.229136 1.79904
1.94454 0.112897 1.3558
3.12897 0.387564 6.23291
2.30931 9.16841 6.13094
4.68893 0.32309 6.64524
3.20721 0.522732 0.579334
5.1625 2.87233 8.88009
4.91479 2.25342 2.81199
3.98968 9.30348 1.33002
3.39699 0.272794 0.687326
3.64932 0.362668 0.408296
6.48608 9.9337 6.3554
9.60502 0.597961 8.1586
8.20151 0.120224 0.458405
4.38022 0.376659 7.90257
3.3861 0.0859524 0.708284
3.23762 0.365359 0.642796
1.52506 0 8.52348
3.25306 0.150339 0.516335
8.51847 2.05612 1.88226
7.8997 5.19868 0.637062
4.49068 0.307584 6.26901
2.67798 0.455103 0.566408
9.80066 0.834286 2.04565
4.0608 1.37417 4.25817
3.78755 4.3241 0.60474
2.91513 0.636092 0.715758
3.13227 0.0455567 0.85518
9.30519 5.82549 1.29418
10 2.25064 8.2874
1.97957 0.143735 9.32674
5.02194 0.338115 0.610803
3.2904 0.203158 0.434248
4.39611 0.174751 8.67451
0.487614 3.07152 3.57179
9.11721 0.557604 9.05234
2.06729 0.358276 6.39875
3.07536 0.86479 0.0640089
6.35226 1.27881 9.94916
3.38815 0.538831 0.720191
3.09128 0.571177 0.522146
3.5927 0.458291 1.10479
3.55869 0.382242 0.837899
4.38692 0.404487 7.834
9.31323 0 8.47327
0.51478 0.495539 6.02213
0.915146 0.463612 3.9443
9.2304 2.82635 9.93389
3.11626 0.755102 7.65924
2.81292 0.419137 0.551578
1.64179 8.58982 7.06809
4.30533 0.416376 8.06175
6.38285 0.256362 2.07908
6.11305 0.437475 1.10398
3.31853 0.292872 0.24371
6.56695 0.636897 5.79861
4.35416 0.329069 8.51951
1.48938 5.14218 6.4139
4.29184 0.189321 8.73588
3.34522 0.478231 0.409167
8.91239 5.22224 1.65293
3.1964 0.349549 6.23431
5.76626 8.4088 2.56728
3.40915 0.691562 8.90465
6.19898 8.58381 0.610458
7.37229 0.573852 0.508151
4.12095 0.444722 8.39489
5.46592 0.710822 1.01383
3.84802 0.473924 1.02054
3.33127 0.367927 0.868808
8.69712 7.3707 0.797297
5.21634 5.848 6.10979
3.24409 2.87274 3.94655
6.11418 6.37015 9.38562
4.41512 0.370722 6.6842
4.06831 3.6844 2.03668
9.01844 7.56561 3.64062
5.13443 2.19958 3.03635
3.37796 0.294938 0.676789
6.94603 0.483766 0.995776
6.77662 0.1865 0.87414
9.35495 3.33733 4.99821
2.20971 0.413346 0.00704345
6.58103 4.13024 10
8.59831 1.18338 0.201393
3.29515 0.62961 0.699133
8.89906 0.81568 7.82169
8.52253 5.33938 8.18341
2.8159 8.6166 9.70327
5.16341 6.2578 7.77443
7.61492 0.269482 1.53699
2.80002 0.5714 0.275128
1.07843 0.432904 7.49175
4.40614 0.555636 9.1466
3.92352 0.447042 8.04105
3.54679 0.276522 0.600374
3.37344 0.403251 1.00035
9.7086 3.29053 8.94722
3.67292 0.151455 0.333137
0.278569 3.26936 3.39645
2.96301 0.511602 6.3246
7.412 0.442714 3.64987
5.76217 4.84009 0.0366557
3.09069 0.7127 0.891668
0.283677 1.05553 8.05288
3.29994 0.486922 1.5309
3.35143 0.595531 0.675655
0.94326 0.759152 3.85855
3.94489 3.67308 2.10805
3.97492 0.238785 8.17167
1.54616 0.717818 6.09255
5.76341 0.540367 1.22112
3.61728 0.192696 0.746119
9.41326 2.40672 9.48407
0.736871 0.420999 7.47281
6.08961 1.44306 5.30473
1.24598 4.69054 6.86929
7.0513 0.810123 5.45567
7.17874 5.39999 1.69116
4.58319 0.191085 8.43246
0.327172 0.373197 6.1229
3.9566 0.565183 8.54819
2.70535 0.288136 0.84582
6.80191 0.507386 1.15184
7.02831 2.98588 0.621971
3.27526 0.134799 0.88479
5.5729 0.0514229 3.72819
1.93225 10 0.44186
3.21462 0.528696 0.507061
9.25237 8.52978 0.545744
3.43165 0.385695 1.05081
4.05731 0.421399 8.38392
3.30471 0.479878 0.602297
6.64597 0.52597 1.37376
3.74507 1.85444 7.63638
1.68676 4.97224 6.51428
3.65344 0.563171 0.558689
3.62148 0.0751956 8.17188
4.27942 0.561915 8.44914
4.79647 0.24436 7.13697
6.75181 0.229237 9.22784
4.21276 0.0497232 8.71357
4.22199 0.293837 8.8319
3.29243 0.410126 0.645106
3.13262 0.465146 0.554318
6.79087 0.250157 1.6728
3.50221 0.419142 0.51369
3.20872 0.599919 1.37508
7.52769 1.19605 9.32939
3.67106 0.673461 1.23998
3.62496 0.146589 0.621673
3.09989 0.603852 8.58185
4.59515 0.0679202 8.51193
3.48558 0.829739 1.14757
3.44393 0.333977 0.71342
7.06026 0.495118 0.574663
4.10872 0.283063 9.33507
4.04327 0.267663 0.375539
3.28398 0.354963 0.522098
6.60049 0.291136 1.11567
4.25453 0.264178 8.85202
4.32884 0.674816 8.10681
3.0213 0.250607 0.752474
3.89812 0.39747 0.535507
5.88478 0.93477 1.32094
4.23826 0.22 8.56084
6.09461 0.260064 7.91333
4.44101 0.255405 9.09172
6.87287 3.0461 1.14638
6.60846 0.263075 1.16013
1.80231 0.480597 5.75999
3.68971 0.611156 8.42925
3.43012 0.235675 0.416457
2.60869 0.321528 0.858423
6.45521 0.528002 1.39223
4.36102 0.22075 8.86454
4.44583 0.497024 8.09346
4.51917 0.7798 8.52771
3.08323 0.391831 0.785083
3.04617 0.513933 0.336054
3.20177 0.352018 0.612643
4.46954 0.630126 8.46522
3.828 0.634261 0.931237
0.473212 0.894478 8.15943
4.10577 0.398737 8.23774
3.57546 0.220267 0.423553
3.64513 0.346561 0.813609
7.1329 1.4629 7.95786
6.29896 0.375622 1.46791
2.89626 0.418322 0.566401
2.97136 0.354397 0.80378
3.88059 0.351517 8.34064
2.94902 0.407644 0.504599
0.526265 0.714319 8.52292
4.23898 0.38633 8.15905
3.48642 0.253463 0.398459
0.658009 0.417959 5.81145
5.82186 0.363418 0.961195
6.23436 0.512654 1.53275
POINT_DATA 400
SCALARS particleColor float 3
LOOKUP_TABLE default
0 0.860713 1
0 0.930829 1
0 0.48917 1
1 0.0966802 0
1 5.96046e-08 0
0.297902 1 0.702098
1 5.96046e-08 0
0 0.775631 1
0 0.821357 1
1 5.96046e-08 0
0.691429 1 0.308571
0.691194 1 0.308806
1 0.0885779 0
0.797565 1 0.202435
0.692499 1 0.307501
1 5.96046e-08 0
1 5.96046e-08 0
0 0.317216 1
0.563593 1 0.436407
1 0.892922 0
0 0.709554 1
1 0.624828 0
1 5.96046e-08 0
1 0.730621 0
1 5.96046e-08 0
1 5.96046e-08 0
0 0.516928 1
0.527979 1 0.472021
1 5.96046e-08 0
1 0.906217 0
1 5.96046e-08 0
0.476286 1 0.523714
1 0.605983 0
1 0.466608 0
0 0.745886 1
1 0.0430536 0
0.257357 1 0.742643
0 0.584136 1
1 0.318342 0
0.461736 1 0.538264
1 5.96046e-08 0
0.337973 1 0.662027
0.556463 1 0.443537
0.827837 1 0.172163
0.0845319 1 0.915468
0.34529 1 0.65471
0.03305 1 0.96695
0.551378 1 0.448622
0 0.444564 1
1 0.726344 0
0.0177398 1 0.98226
0.442749 1 0.557251
0.0450979 1 0.954902
1 0.89587 0
0.238395 1 0.761605
0 0.397007 1
0.0834628 1 0.916537
0 0.498439 1
0.664867 1 0.335133
0.408321 1 0.591679
0 0.755607 1
1 5.96046e-08 0
0.386779 1 0.613221
0 0.62064 1
0.52327 1 0.47673
1 0.911142 0
0.513858 1 0.486142
1 5.96046e-08 0
1 5.96046e-08 0
0.225363 1 0.774637
0.206149 1 0.793851
0 0.824832 1
0.865438 1 0.134562
0.500917 1 0.499083
0.984292 1 0.0157076
1 0.756817 0
0 0.571901 1
0 0.93606 1
0.309004 1 0.690996
0 0.867445 1
0 0.515053 1
0.873033 1 0.126967
1 0.544618 0
0.358833 1 0.641167
1 0.834299 0
0.157436 1 0.842564
1 5.96046e-08 0
1 5.96046e-08 0
0.580836 1 0.419164
0.503052 1 0.496948
0 0.685119 1
0 0.76659 1
1 0.394282 0
0.0127248 1 0.987275
0.644582 1 0.355418
0.703471 1 0.296529
0.526645 1 0.473355
0.0279959 1 0.972004
0.640716 1 0.359284
0.150516 1 0.849484
0 0.601293 1
1 0.897077 0
0.475828 1 0.524172
0.36192 1 0.63808
0 0.779633 1
0.921107 1 0.0788927
1 0.858876 0
0 0.915049 1
1 5.96046e-08 0
1 5.96046e-08 0
1 0.0511412 0
1 0.0621025 0
1 0.91705 0
0.08064 1 0.91936
0 0.89314 1
1 5.96046e-08 0
0 0.283901 1
0.189488 1 0.810512
1 0.95999 0
0.660031 1 0.339969
0 0.293711 1
1 0.854322 0
0.753815 1 0.246185
0.591648 1 0.408352
0.803698 1 0.196302
0 0.389237 1
0.741721 1 0.258279
0 0.630933 1
0 0.54805 1
1 5.96046e-08 0
1 5.96046e-08 0
1 0.661023 0
0 0.996103 1
0.0948322 1 0.905168
0 0.986778 1
0 0.829551 1
0.525455 1 0.474545
0.0179621 1 0.982038
0.326053 1 0.673947
0.220355 1 0.779645
0 0.762576 1
0 0.914684 1
0.312347 1 0.687653
0.710339 1 0.289661
0 0.860248 1
0 0.930476 1
0 0.542401 1
1 0.953723 0
0.0185253 1 0.981475
0.633126 1 0.366874
0 0.629263 1
0 0.303385 1
0 0.596364 1
0 0.491011 1
1 5.96046e-08 0
0 0.326024 1
0.202025 1 0.797975
0 0.610772 1
0.499735 1 0.500265
1 5.96046e-08 0
0 0.611832 1
0 0.819736 1
0 0.894321 1
1 0.177267 0
0 0.656561 1
0 0.926129 1
1 5.96046e-08 0
1 5.96046e-08 0
1 0.902681 0
0.40559 1 0.59441
0 0.620782 1
0.359472 1 0.640528
1 0.82931 0
1 5.96046e-08 0
0 0.25164 1
1 0.433339 0
0 0.718411 1
0.117317 1 0.882683
0.812877 1 0.187123
0.182311 1 0.817689
0 0.248736 1
0.56897 1 0.43103
0.522411 1 0.477589
1 5.96046e-08 0
0 0.879988 1
0.179393 1 0.820607
0 0.796694 1
1 5.96046e-08 0
0 0.79404 1
0 0.452058 1
0 0.68535 1
0 0.733989 1
1 0.828143 0
1 5.96046e-08 0
1 0.437797 0
0 0.524696 1
0 0.426592 1
1 0.937265 0
0 0.429647 1
0 0.0980458 1
0 0.559512 1
0 0.861509 1
0.422945 1 0.577055
0 0.477482 1
0.658119 1 0.341881
0 0.465525 1
0 0.681421 1
0.777742 1 0.222258
0 0.944264 1
0.831794 1 0.168206
0 0.75524 1
0 0.794629 1
1 5.96046e-08 0
0 0.866553 1
1 5.96046e-08 0
0 0.368887 1
0 0.816975 1
0 0.946461 1
1 5.96046e-08 0
0.33508 1 0.66492
0.137909 1 0.862091
0 0.771135 1
0 0.705775 1
0 0.41405 1
1 5.96046e-08 0
0 0.810878 1
0 0.888662 1
0 0.86058 1
0 0.323618 1
0 0.600319 1
0 0.833597 1
0 0.949305 1
0 0.918848 1
0 0.736177 1
0 0.24229 1
0 0.929881 1
0.605112 1 0.394888
0 0.75842 1
0 0.555214 1
1 0.644931 0
0 0.508223 1
0.293914 1 0.706086
0 0.315492 1
0 0.764248 1
0 0.743681 1
1 5.96046e-08 0
0 0.91923 1
0 0.673461 1
1 5.96046e-08 0
0.59322 1 0.40678
0 0.809 1
0.0802951 1 0.919705
0 0.706092 1
0.92288 1 0.0771203
0 0.708632 1
0 0.513165 1
0 0.400861 1
0 0.488623 1
0 0.619117 1
0 0.332258 1
0 0.74155 1
1 0.403352 0
0 0.778551 1
1 0.550928 0
0 0.618106 1
0.92835 1 0.0716504
0 0.747872 1
0 0.198831 1
0.106992 1 0.893008
0 0.35997 1
0 0.670937 1
0.0765989 1 0.923401
0.599381 1 0.400619
0 0.980642 1
0.104952 1 0.895048
0 0.79645 1
0.42837 1 0.57163
1 0.549788 0
0.275532 1 0.724468
0 0.585602 1
0 0.855626 1
0 0.550712 1
0.104271 1 0.895729
1 5.96046e-08 0
1 5.96046e-08 0
0.0200805 1 0.979919
0 0.596703 1
0.703889 1 0.296111
1 0.926034 0
1 5.96046e-08 0
1 5.96046e-08 0
0 0.579268 1
0 0.878366 1
0 0.253437 1
0 0.967466 1
0 0.235182 1
0 0.844291 1
0 0.668909 1
0.179463 1 0.820537
0 0.567356 1
0.0612413 1 0.938759
0 0.462637 1
0.278478 1 0.721522
1 5.96046e-08 0
0 0.320378 1
0 0.793243 1
0 0.293708 1
0 0.45419 1
0.491755 1 0.508245
0 0.756544 1
0 0.91029 1
0 0.335321 1
0.133507 1 0.866493
0 0.457625 1
0.198576 1 0.801424
0 0.326775 1
1 0.803295 0
0.0275646 1 0.972435
0.127117 1 0.872883
0.10221 1 0.89779
0 0.284158 1
0 0.710826 1
0 0.646127 1
0 0.790472 1
0 0.932658 1
0 0.655652 1
0 0.787803 1
0 0.504203 1
1 0.149854 0
0 0.72504 1
0 0.204335 1
0 0.838289 1
0 0.535778 1
0.319934 1 0.680066
0 0.335548 1
1 0.249197 0
0 0.666595 1
0 0.145251 1
1 0.674334 0
0.226019 1 0.773981
0 0.4818 1
0 0.555293 1
0 0.74015 1
0 0.114841 1
0 0.617184 1
0 0.725314 1
0 0.639328 1
0 0.459708 1
0 0.927535 1
0.604847 1 0.395153
0 0.845377 1
0 0.559789 1
0 0.527586 1
0 0.599082 1
0 0.274817 1
0 0.96318 1
0 0.775029 1
0 0.419828 1
0 0.431485 1
0 0.875773 1
0 0.7726 1
0 0.511074 1
0 0.725503 1
0 0.756087 1
0 0.758485 1
0 0.104423 1
0 0.733854 1
1 0.999962 0
0 0.897036 1
0 0.736338 1
0 0.490958 1
0 0.82848 1
0 0.337684 1
0 0.932614 1
0 0.454288 1
0 0.660463 1
0 0.791041 1
0 0.688523 1
0 0.870682 1
0 0.783954 1
0 0.862401 1
0 0.796238 1
0 0.744268 1
0 0.596671 1
0 0.73028 1
0 0.473158 1
0 0.462135 1
0 0.361679 1
0.480348 1 0.519652
0 0.407935 1
0 0.822663 1
0 0.292297 1
0 0.706941 1
0 0.411825 1
0 0.543069 1
0 0.682869 1
0 0.373322 1
0 0.228168 1
0 0.571096 1
0 0.61689 1
