# vtk DataFile Version 3.0
Particle simulation
ASCII
DATASET POLYDATA
POINTS 400 float
5.44915 0.272786 9.35316
6.54469 4.60118 7.2701
0.162105 1.44885 6.49341
4.28163 0.508377 3.25285
9.53684 1.27133 5.67794
3.5191 3.15979 0.2157
1.87928 0.800237 0.516462
6.99032 3.12824 2.54256
7.71492 3.41223 6.89324
2.28499 1.33629 7.91116
6.53112 3.75432 3.99909
2.29667 7.33442 5.54659
9.31412 1.21413 8.82585
2.26616 8.21103 2.13699
6.65625 3.60198 3.19763
8.50731 5.11623 9.71811
1.34764 4.44006 0.670533
2.88026 0.477826 2.44786
1.28223 5.16813 7.47682
3.62618 0.0959606 2.67388
3.1996 0.101567 1.73108
8.20611 1.78206 2.36537
9.60792 2.91141 2.37675
1.099 1.80017 0.524299
3.26324 5.40883 0.845205
2.50394 0.144707 2.5466
9.45827 4.79256 1.37145
1.21698 2.25201 0.419296
8.85754 0.184786 3.59563
7.77362 2.59059 1.66393
2.27112 4.22069 9.68377
3.57302 5.23974 3.22678
5.82856 1.843 4.67085
2.1738 0.435225 3.47225
7.87444 2.28904 2.1057
5.57418 3.60557 0.160122
6.34875 1.34798 1.88067
2.65363 0.607468 1.07422
7.23464 0.384441 2.79281
0.077929 0.584311 6.16837
0.417205 0.733124 5.71244
9.67163 2.90052 7.35602
5.30674 0.907952 8.4337
4.09122 1.82717 4.46529
7.67476 0.548098 5.20078
6.07967 0.681134 1.27263
2.20272 0.307183 5.14799
8.20055 1.57663 5.82545
6.15344 0.587312 1.57676
6.99196 2.75936 2.23359
3.17206 1.29629 3.42469
6.72791 0 6.75641
8.0569 0.77683 8.80343
3.9842 0.490451 7.42918
7.05658 1.10136 8.84788
6.10635 0.495918 1.54285
9.8348 2.93341 6.72787
1.23794 0.608905 9.15586
6.1717 2.1509 0.471045
9.46999 1.26166 3.82953
0.916498 9.88329 0.581303
6.48812 3.22797 8.3011
0.748428 0.690813 3.8271
3.09935 0.343138 8.15063
0.663225 9.3898 1.24677
1.01555 0.545912 3.82677
4.17015 1.2821 9.19204
3.02089 0.129208 1.04675
6.02232 1.93877 0.639301
5.13601 0.689124 7.77396
7.14959 0.344655 6.49004
2.85529 0.296389 1.12305
1.54439 1.43386 8.66068
3.10669 0.191465 8.41494
7.95475 0.234994 6.61372
9.17597 0.767641 0.399249
4.08664 1.17135 9.21502
4.82332 0.526169 8.03974
8.73708 5.848 0.0719295
0.893767 4.8405 9.10635
3.34181 0.526533 1.06691
3.22575 0.575809 1.52473
1.42951 0.717923 2.45417
3.40662 0.22075 1.74438
1.07662 0.670809 9.54414
5.60691 0.855927 8.38342
3.77857 1.03949 5.22201
2.914 2.39123 2.76237
7.08596 3.91539 3.38189
8.49809 0.307017 0.705712
3.56398 0.475734 1.14213
3.72048 0.354703 0.747648
0.613931 0.643806 5.69247
4.24582 0.580439 2.94968
0.986362 0.719383 9.49501
5.34816 0.130197 9.47655
5.13246 0.47491 9.43896
2.37124 2.98581 0
10 2.19154 6.83397
8.45496 0.357921 0.645281
2.69007 0.538568 2.4685
6.59469 0.253758 3.19456
4.25522 0.568542 3.07129
9.69461 0.618369 8.44599
3.40342 2.90308 0.666163
2.29387 0.410907 1.11374
7.43115 1.29795 8.89671
6.15054 0.297024 1.51515
5.64892 0.731274 1.86924
9.08105 0.134973 0.791336
7.04951 8.61663 7.84351
2.99041 0.387523 8.55209
3.66309 1.07137 0.351888
5.71483 0.660515 1.32105
2.58487 0.471793 1.05049
0.680305 0.69733 5.99711
5.08815 0.400624 7.88754
6.96206 0.662554 2.55529
5.65437 0.650937 1.5724
6.91911 0.946277 8.64969
2.83687 0.212301 1.34815
4.34604 3.38651 9.99509
7.35549 7.25434 0.95664
3.06834 3.3612 7.31134
6.92574 0.990991 8.74457
3.16885 0.504532 1.20043
4.58027 1.8065 5.09741
3.04546 0.230176 8.17972
0.998758 5.24129 9.56583
2.75079 7.92468 3.25585
3.36903 0.513602 0.730941
2.80013 2.21609 2.69529
7.07907 1.09611 8.69532
7.19026 0.232241 6.5059
2.23308 3.66061 4.94434
1.82215 0.981676 1.3177
0 4.40066 8.7893
3.0006 0.359648 8.09383
4.14033 4.29959 6.56764
7.13995 0.959684 8.89054
3.00269 0.195969 1.36699
2.54507 3.41542 9.06769
4.80536 2.63553 0.928041
7.20006 0.835703 8.49212
2.88015 0.408429 1.95691
3.41785 0.431947 1.78054
7.8826 0.472378 5.2915
0.321227 4.03884 0.214989
3.05602 0.567173 2.48131
5.3704 3.36024 3.19455
2.94853 0.233675 1.37863
9.06047 1.28779 6.96639
0.886312 0.771441 3.98898
7.36143 1.61326 9.59901
3.38671 2.46208 0.617724
6.31344 0.39009 1.23628
7.34342 0.055743 5.04048
2.51573 0.539339 1.01944
7.76505 0.448685 5.90642
3.22564 0.677444 0.968436
5.90753 4.39425 2.63269
0.446292 1.48456 7.00022
5.53814 0.398817 8.91953
2.78387 0.457915 2.27892
3.59998 1.37494 3.10804
8.08542 0.637774 9.11728
6.12721 0.570575 7.36377
5.49664 0.996058 8.45695
8.76 1.23121 5.20098
2.40056 7.21282 8.2468
3.08356 0.836151 1.10806
4.80507 1.62196 4.48135
5.61926 0.225553 1.25846
3.61249 0.564377 1.03
3.73486 0.923098 2.69574
5.58834 3.76447 0.211527
6.00431 0.687821 8.828
5.03047 0.812222 8.44422
9.84867 0.462269 7.28817
0 9.83302 3.57289
3.38748 0.196518 1.72983
3.1542 0.273421 3.25922
6.68389 5.15502 4.96039
3.05756 0.146414 1.52079
5.3762 0.549039 9.01517
3.70735 0.45063 1.22185
3.55713 0.704694 1.44894
0.421983 1.44975 6.97882
7.65062 0.604518 5.45227
3.25467 0.364723 1.90527
3.26816 0.181062 1.8972
3.00482 0.355007 2.39187
7.32897 1.7842 6.62543
0.723335 1.35428 4.65396
4.83308 7.21888 1.41366
3.54468 0.699722 1.02641
4.03035 0.450627 2.93807
7.39579 9.37787 10
2.96745 0.165561 2.40661
2.45172 0.369782 2.35854
2.98286 0.402081 1.28062
6.319 0.288186 1.42957
7.64625 0.80009 5.27557
6.16579 0.803756 8.62479
8.37384 8.79756 1.2214
5.41398 0.945966 8.43954
2.7758 0.320728 2.1782
1.62475 0.590816 9.07201
1.3173 0.512989 9.18726
8.61381 0.341149 0.785339
3.28845 0.439956 2.32511
6.35982 0.129592 1.37868
4.95923 0.449315 9.34722
6.86519 0.732746 9.05607
8.35224 0.717372 9.44933
5.45385 0.814985 8.50814
2.76569 0.188718 2.14058
2.95867 0.286676 2.47313
4.65508 1.79302 5.07138
8.4385 0.298002 0.92978
5.97924 8.16602 8.49959
7.69136 1.87409 9.91946
5.54388 0.263777 7.99621
2.87859 0.208911 1.17224
6.13271 0.382359 8.17878
2.9756 0.153865 1.31544
5.41428 3.35272 0.111678
2.9471 0.346298 2.17354
3.04861 0.293194 2.11174
8.10455 0.517638 8.8736
0.100154 1.41358 6.62054
5.58963 1.02299 8.43816
7.96308 0.826666 5.8896
3.14841 0.234692 1.50089
4.86261 0.668337 7.95208
0.925587 0.91098 2.09292
3.89808 1.37595 9.49069
3.73298 0.574401 2.66786
3.34495 0.164644 2.66718
1.3216 0.508723 9.59379
3.60785 0.757685 1.42085
3.9829 0.326398 1.54527
3.54792 0.308694 2.15207
3.08362 0.613625 2.03272
5.4057 0.576851 8.97712
1.87907 0.899667 0.879485
1.64199 2.07047 0.70663
8.21284 0.663054 9.26108
5.41552 0.499064 1.59611
5.56742 0.605955 8.36278
3.03936 0.345255 1.56138
4.00256 1.76034 4.71732
5.76896 0.653259 8.4372
3.99297 0.0981361 3.13338
7.73604 0.61508 5.55352
3.09322 0.437759 1.31423
8.87332 1.19855 0.322206
5.59574 0.430662 8.89715
6.35077 0.325716 1.70114
5.61721 0.734394 8.39568
3.34831 0.0623608 1.78528
3.42954 3.03323 4.69136
6.14744 0.931267 8.7886
8.12529 0.865744 0.371053
5.7064 0.944023 8.21205
4.48898 1.42292 4.2908
3.73642 0.33657 1.50331
5.47321 0.826387 8.55015
7.78784 0.640691 5.77623
3.25441 0.165259 1.689
2.59135 0.071836 2.3242
1.49664 0.353649 4.43669
7.28681 0.383371 2.4826
3.51797 0.452381 0.490741
5.97982 0.729129 8.24885
5.10233 0.80641 8.39691
3.85022 0.348089 7.88076
5.62401 7.87774 9.87959
0.743937 0.794178 9.18048
3.27549 0.148244 1.89239
8.64353 0.20916 1.43785
6.4055 0.315459 1.43615
9.52388 2.58223 2.08322
2.71572 0.372985 8.80226
9.4881 2.38514 7.53135
7.73432 0.429261 5.71967
3.05809 0.468339 1.55226
2.97923 0.582686 2.62775
5.72766 0.721416 8.67386
5.29839 8.38839 9.74437
8.74019 0.122385 3.92535
5.9288 0.766592 1.49237
2.74452 0.522639 1.2677
2.95308 0.266527 8.25094
5.79477 0.593564 8.35074
5.51402 0.357825 8.7101
2.93366 0.420481 1.98707
2.85286 0.786438 1.80104
3.87121 1.30376 0.609857
2.82297 0.35418 1.42212
8.75924 0.353012 0.994072
6.75156 0.956141 9.01402
2.28065 1.16624 7.18616
6.00558 0.186785 3.27991
3.22945 0.797686 1.21872
0.241985 0.512074 1.47351
1.97063 0.82685 1.36536
3.08701 0.267167 1.71916
2.56758 1.13491 7.00585
3.81469 0.507005 3.2935
5.04084 0.678244 7.83528
8.96401 1.23965 6.98182
8.09522 0.711382 5.50323
2.63271 0.411074 1.72933
2.53651 0.138912 2.65027
0.736961 0.80219 9.68867
1.92803 0.87942 1.14609
6.15997 0.32336 1.85804
5.88945 0.73182 1.12478
3.77532 0.221026 2.34186
5.47813 0.779957 8.80437
1.38046 0.741069 2.46805
5.60771 0.403129 8.93696
3.5607 0.405099 2.56571
8.34013 0.0879839 1.21895
8.62788 0.276111 0.78943
3.62091 0.374187 2.24975
6.08794 0.319181 1.38297
6.04612 0.306851 1.97424
2.83195 0.652545 0.990352
7.63009 0.761029 9.11714
3.319 0.278108 1.87997
5.58454 0.458262 9.19328
2.88538 0.395686 1.08697
5.80789 0.562858 0.761122
9.49096 2.60973 7.81076
5.34884 0.777003 0.968018
3.13157 0.260103 1.61589
9.16039 0.232167 0.813225
3.80558 0.675794 2.63687
5.13514 0.884381 8.20818
3.70421 0.136534 2.48231
5.57985 0.840382 8.36109
5.20245 0.602589 7.51863
3.06064 0.32861 1.65651
3.05827 0.365476 1.48654
6.21301 0.322521 1.41393
2.8758 0.157308 1.35477
3.07499 0.319163 1.37534
3.9669 1.04953 2.78348
3.43372 0.132505 1.69971
3.38632 0.375011 2.35822
6.10721 0.156415 8.00781
5.85468 0.906158 8.32431
3.87588 0.0748516 2.52666
2.93438 0.190414 1.86336
6.35354 0.337605 1.12223
5.46504 0.709184 8.90779
3.06421 0.242354 2.15152
3.6903 0.170955 1.70045
6.36568 0.542111 1.50244
5.18205 0.821009 8.89797
5.39205 0.991755 8.54944
3.00734 0.185932 1.87246
2.50408 0.1254 1.80633
7.68138 0.622445 5.61914
5.76888 0.64792 8.77601
5.32498 0.622889 8.25999
5.53306 0.954838 8.49769
2.97443 0.51304 2.34618
6.31648 0.482666 1.54286
9.09429 1.21094 6.95087
5.58091 0.475384 8.64209
3.05594 0.14397 1.82701
3.10158 0.10024 2.36218
7.55873 0.836122 5.32537
5.53062 0.814729 8.71984
5.85785 0.372305 8.3675
5.62331 0.919958 8.41648
3.1756 0.370889 1.62978
3.20591 0.128038 2.36627
2.98124 0.206442 1.82093
5.82783 0.985179 8.33253
3.24462 0.473439 1.52612
3.08729 0.19244 8.16871
5.51642 0.817194 8.64173
3.52649 0.310349 2.28058
3.50396 0.485243 1.93029
10 5.06117 10
6.00386 0.476405 1.56772
3.24493 0.0984239 2.38955
3.13531 0.0805489 1.83098
5.41659 0.443063 8.48036
3.1372 0.469035 1.60395
3.08309 0.233004 8.09943
5.27955 1.03346 8.78992
3.47475 0.343439 2.30589
4.04512 0.743034 2.61022
8.2534 0.399597 1.13376
6.04537 0.448672 1.58466
POINT_DATA 400
SCALARS particleColor float 3
LOOKUP_TABLE default
0 0.98211 1
0.480553 1 0.519447
0 0.622568 1
0 0.756822 1
0 0.49326 1
0.579118 1 0.420882
0.299672 1 0.700328
0.0951706 1 0.904829
1 0.666006 0
0 0.893869 1
0.418289 1 0.581711
1 5.96046e-08 0
0 0.603631 1
1 0.986346 0
0 0.711531 1
0 0.410669 1
0 0.505676 1
0 0.38684 1
0.152007 1 0.847993
0.306463 1 0.693537
0 0.545747 1
0 0.632388 1
1 5.96046e-08 0
0 0.598694 1
0.596924 1 0.403076
0 0.883922 1
1 5.96046e-08 0
0.144554 1 0.855446
0 0.684188 1
0 0.691887 1
0.020306 1 0.979694
0.181794 1 0.818206
0.229067 1 0.770933
0 0.577944 1
0 0.724775 1
0.371112 1 0.628888
0.279693 1 0.720307
0 0.160242 1
0 0.207304 1
0 0.830248 1
0.284951 1 0.715049
0 0.865044 1
0.706737 1 0.293263
0.543808 1 0.456192
0 0.451154 1
0 0.105109 1
0.871701 1 0.128299
0.244757 1 0.755243
0 0.252828 1
0 0.618055 1
0 0.561412 1
1 5.96046e-08 0
0 0.827252 1
0 0.349957 1
0 0.909791 1
0.129238 1 0.870762
0 0.911116 1
0 0.65482 1
0 0.598629 1
1 5.96046e-08 0
0.694046 1 0.305954
0 0.70579 1
0.537678 1 0.462322
0 0.379869 1
0 0.693321 1
0 0.644158 1
0 0.629823 1
0.101915 1 0.898085
0 0.539245 1
0 0.807985 1
0.416768 1 0.583232
0 0.502942 1
0.946423 1 0.0535766
0 0.480077 1
0 0.37959 1
0.0421723 1 0.957828
0 0.512216 1
0 0.645516 1
0.470107 1 0.529893
0.826065 1 0.173935
0 0.442075 1
0 0.57162 1
0.140606 1 0.859394
0 0.53681 1
0 0.773385 1
0 0.458308 1
0.595279 1 0.404721
0 0.387997 1
0 0.357127 1
0 0.180407 1
0 0.456517 1
0 0.133894 1
0 0.846206 1
0 0.864436 1
0 0.728492 1
0 0.609679 1
0 0.554146 1
0 0.654896 1
1 5.96046e-08 0
0 0.304893 1
0 0.207351 1
0 0.679971 1
0 0.805058 1
0.357746 1 0.642254
1 0.694875 0
0 0.320685 1
0 0.671081 1
0 0.841696 1
0 0.52465 1
0 0.897136 1
0 0.652495 1
0 0.835326 1
0 0.989788 1
0 0.491891 1
0 0.434494 1
0.169072 1 0.830928
0 0.484496 1
0 0.868673 1
0 0.642058 1
0 0.77346 1
0 0.441776 1
1 5.96046e-08 0
0.286149 1 0.713851
0.28957 1 0.71043
0 0.378945 1
0.0332995 1 0.9667
0 0.238291 1
0 0.836337 1
0.617982 1 0.382018
0.66763 1 0.33237
0 0.73335 1
0.226914 1 0.773086
0 0.908215 1
0 0.88303 1
0.83698 1 0.16302
0 0.494779 1
1 5.96046e-08 0
0 0.691221 1
0.467309 1 0.532691
0.354144 1 0.645856
0 0.690339 1
0 0.538828 1
1 5.96046e-08 0
0 0.989878 1
0 0.607911 1
0 0.787517 1
0 0.706706 1
0 0.403388 1
0 0.905188 1
1 5.96046e-08 0
0 0.767358 1
0 0.452544 1
0.0687594 1 0.931241
0 0.71738 1
0.602389 1 0.397611
0 0.706882 1
0 0.726119 1
0 0.456634 1
0 0.372795 1
0.232061 1 0.767939
0 0.857808 1
0 0.634222 1
0 0.644615 1
0 0.671871 1
0 0.880425 1
0 0.676719 1
0 0.370141 1
0 0.942314 1
0.0794891 1 0.920511
1 5.96046e-08 0
0 0.391846 1
0 0.340067 1
0 0.734546 1
0 0.632164 1
0 0.698037 1
0.53102 1 0.46898
0 0.268428 1
0 0.709746 1
0 0.982228 1
0.688487 1 0.311513
0 0.460161 1
0 0.414978 1
0 0.599303 1
0 0.995209 1
0 0.674208 1
0 0.771334 1
0 0.507969 1
0 0.92037 1
0 0.931583 1
0 0.348891 1
0 0.361002 1
0 0.403928 1
1 5.96046e-08 0
0.190561 1 0.809439
1 0.25126 0
0 0.586049 1
0 0.133067 1
1 5.96046e-08 0
0 0.476308 1
0 0.741683 1
0 0.776342 1
0 0.884839 1
0 0.807496 1
0 0.474298 1
0 0.928365 1
0 0.601202 1
0 0.790931 1
0.115141 1 0.884859
0.133042 1 0.866958
0 0.142031 1
0 0.591715 1
0 0.547351 1
0.0293998 1 0.9706
0 0.418188 1
0.0975808 1 0.902419
0 0.432789 1
0 0.741822 1
0 0.447451 1
0 0.92203 1
0 0.752915 1
1 5.96046e-08 0
0 0.662882 1
0 0.734688 1
0 0.543727 1
0 0.536934 1
0 0.481336 1
0 0.679097 1
0 0.550012 1
0 0.476546 1
0 0.690055 1
0 0.974916 1
0.061603 1 0.938397
0 0.570536 1
0 0.531678 1
0 0.270414 1
0 0.715663 1
0 0.152216 1
0 0.556516 1
0 0.435205 1
0.0100154 1 0.989985
0 0.56981 1
0 0.444111 1
0 0.991043 1
0 0.744536 1
0 0.574593 1
0 0.763429 1
0 0.600312 1
0.88913 1 0.11087
0 0.221434 1
0 0.548865 1
0 0.579679 1
1 0.763506 0
0 0.54395 1
0 0.57691 1
0 0.909431 1
0 0.385017 1
0 0.269863 1
0 0.934753 1
0 0.411462 1
0 0.5314 1
0 0.4958 1
0.375774 1 0.624226
0 0.740934 1
0.171472 1 0.828528
0.043763 1 0.956237
0.983153 1 0.0168466
0 0.860268 1
0 0.931359 1
0 0.619254 1
0 0.625972 1
0 0.651114 1
0 0.953981 1
0 0.501508 1
0 0.788779 1
0 0.690053 1
0 0.628534 1
0 0.67355 1
1 5.96046e-08 0
0.891984 1 0.108016
0 0.244407 1
0 0.590591 1
0 0.643724 1
0 0.998852 1
0 0.411931 1
0 0.90478 1
0 0.594906 1
0 0.451206 1
0 0.903551 1
0.338906 1 0.661094
0.692207 1 0.307793
0 0.319513 1
0 0.408788 1
0 0.910158 1
0 0.799247 1
0 0.736067 1
0 0.290627 1
0 0.661595 1
0 0.255343 1
0.0783162 1 0.921684
0 0.452348 1
0 0.886599 1
0 0.618786 1
0 0.499114 1
0.123422 1 0.876578
0 0.583576 1
0 0.855487 1
0 0.986891 1
0 0.71535 1
0.369106 1 0.630894
0 0.410123 1
0 0.175115 1
0 0.550314 1
0 0.73471 1
0 0.606535 1
0 0.759643 1
0 0.437544 1
0 0.491603 1
0.1459 1 0.8541
0 0.492445 1
0 0.317586 1
0 0.298639 1
0 0.376602 1
0 0.444044 1
0 0.421758 1
0 0.939061 1
0 0.200731 1
0 0.462007 1
0 0.815544 1
0.038592 1 0.961408
0 0.666328 1
0 0.72784 1
0 0.688651 1
0 0.372962 1
0 0.560659 1
0 0.89258 1
0 0.965153 1
0 0.604496 1
0 0.431985 1
0 0.697947 1
0 0.737922 1
0 0.570958 1
0.0185072 1 0.981493
0 0.855549 1
0 0.849938 1
0 0.705441 1
0 0.68899 1
0 0.66994 1
0 0.591564 1
0 0.684531 1
0 0.283142 1
0.366652 1 0.633348
0 0.378984 1
0 0.873087 1
0 0.752571 1
0 0.58954 1
0 0.53573 1
0 0.557995 1
0.106082 1 0.893918
0 0.819516 1
0 0.741946 1
0 0.513515 1
0 0.365954 1
0 0.75156 1
0 0.45557 1
0 0.705778 1
0 0.406207 1
0 0.306534 1
0.0880275 1 0.911973
0 0.774214 1
0.139671 1 0.860329
0 0.48843 1
0 0.429242 1
0 0.438247 1
0.221572 1 0.778428
0 0.668408 1
0 0.37776 1
0 0.667632 1
0 0.336335 1
0 0.851897 1
0 0.781393 1
0 0.339001 1
0 0.234892 1
0 0.595942 1
0 0.655663 1
0 0.697346 1
0 0.302177 1
0 0.372205 1
0 0.347844 1
1 5.96046e-08 0
0 0.991124 1
0 0.25455 1
0 0.474093 1
0 0.270752 1
0 0.893851 1
0 0.681572 1
0 0.377293 1
0 0.4187 1
0 0.769128 1
0 0.605518 1
0 0.956141 1
