# vtk DataFile Version 3.0
Particle simulation
ASCII
DATASET POLYDATA
POINTS 400 float
0.508338 0.993586 9.18446
5.70683 2.09302 7.11474
5.26853 3.16964 1.87056
0.444754 9.25972 7.95872
2.00557 3.51908 0.832517
3.06544 2.97381 0
8.34251 4.24758 1.29613
7.74727 6.93768 0.704366
4.46016 4.00718 1.20226
4.73652 2.30766 0.359882
7.96091 1.32621 6.01418
2.09603 4.521 4.716
8.03615 3.51885 0
4.38488 7.02658 6.99656
8.00092 4.42177 8.03096
7.55681 0.861673 4.23858
4.81574 1.11365 5.36997
3.48777 0.316908 0.595807
4.76901 2.00065 7.2945
8.87835 0.721786 8.23608
3.42673 0.11524 0.607573
5.39939 8.0963 5.82244
6.66486 4.75721 1.89444
0.879232 3.91804 9.39493
5.18003 4.57238 6.51974
1.81794 1.62738 4.40337
1.54643 5.55079 5.07929
4.85646 0.0553082 0.969699
0.0939433 8.28476 2.46392
1.04698 8.69253 9.80012
1.14836 2.19833 0.599807
0.293922 5.9593 8.81651
8.94085 9.42451 1.76658
7.80199 1.85863 5.71295
4.56892 0.438469 0.812562
7.62461 8.60201 0.228504
2.09614 9.30836 3.63393
3.44464 0.3132 0.248007
9.47301 1.41994 4.53338
3.02074 2.33222 0.90029
1.67881 6.00322 10
4.41335 0.169599 4.42225
1.17439 9.00208 5.28394
4.37617 7.96308 9.74233
7.16553 0.344704 2.02874
4.60583 1.26815 1.16816
6.71599 4.88904 9.26507
8.34721 0.160413 6.00041
6.35121 0.138091 1.93383
2.51066 1.88759 9.67483
2.58828 9.15725 6.12244
1.22669 4.84713 7.7035
9.80765 3.03121 0.252744
1.04692 9.11872 8.74211
3.01234 0.41595 5.35615
6.19884 0.269525 0.955894
7.70137 7.49497 9.08218
5.64464 1.61538 1.98918
4.43575 3.34258 4.37654
9.24011 0.433964 9.3193
0.341161 4.93191 8.59217
9.81616 1.09185 2.62984
2.58754 6.35031 2.56478
0.76936 0.169906 8.54069
1.29224 7.52011 9.41258
3.24416 2.23666e-05 7.67903
2.21568 2.36311 7.50381
5.47526 2.97678 9.1499
8.36558 5.98751 9.18012
4.63511 4.58142 2.92054
4.10239 1.41373 9.24629
5.52008 2.31428 1.83078
5.94234 6.87509 4.23265
0.298194 4.20243 0.93806
5.11105 7.38122 7.73329
1.45345 6.36312 0.927818
2.80587 2.06894 4.79555
8.25774 4.31344 7.93588
7.75885 1.34422 3.53982
7.30456 6.64045 5.55557
3.21725 0.366137 0.718907
7.56277 0.291811 7.4435
3.24525 1.86612 3.44487
3.50283 0.407248 0.477136
7.98238 1.38607 9.63715
0.796974 1.27342 8.69612
8.04114 8.90468 8.57396
7.80617 5.13426 9.52129
1.3933 1.04426 6.53761
6.40771 2.66733 1.04009
3.65997 0.107983 0.987658
5.29856 3.40368 0.539321
0.392832 4.50991 5.06855
3.30381 0.0820077 6.76888
0.95341 0.610516 7.95089
1.81592 9.55301 3.31321
8.12035 1.11907 6.60589
5.96211 0.287798 7.64471
4.95674 2.99703 8.82278
8.39494 1.44435 0.60739
3.16481 0.212975 0.356512
3.16951 5.26089 3.44511
0.0996527 1.77742 7.83544
2.91922 0.872149 3.40772
7.07558 1.31623 9.55095
1.78184 5.13621 1.85638
0.525474 2.02822 8.58347
5.68922 0.248741 1.28423
9.03472 0.070807 5.34228
3.43659 3.07794 0.401203
2.26936 0.771359 3.67931
2.16631 2.44888 9.62103
5.94982 0.483856 4.80889
4.77484 0.391789 0.435079
3.86331 0.21861 0.56764
1.37495 2.03736 6.20385
4.67146 0.54636 8.31081
7.21714 5.14662 6.70137
9.57667 3.74218 2.29645
0.845855 7.1794 3.59419
2.93704 0.805476 1.09033
9.45645 1.27403 2.16071
7.83854 0 9.84566
4.79999 1.64057 6.99983
0.151476 8.94647 2.85683
3.17894 0.321425 0.650395
0.615939 0.583813 7.10082
0.517877 0.283445 8.22766
1.38338 2.2496 6.03962
2.56884 5.50009 5.64002
5.53728 0.117155 8.96126
4.99509 3.57484 9.1027
5.08292 3.13574 1.91149
8.09153 0.255451 1.82575
3.94883 0.49167 7.3392
1.94123 1.41657 2.90768
0.581628 1.1312 1.24499
1.06218 1.51661 8.70682
6.69539 7.17099 4.05141
4.99756 0.0460181 8.07758
3.14903 0.198941 0.612531
6.21815 9.54968 1.00954
1.93941 8.60097 8.65706
4.84589 3.21842 5.65655
2.9558 0.256706 0.431114
8.15994 2.31086 7.14845
7.82891 0.381731 2.34196
1.21048 8.782 1.09082
5.26902 1.85194 1.93308
6.25575 1.91943 9.99493
3.10408 0.228858 0.592915
4.18747 1.83676 5.88065
0.686332 0.750205 8.37926
3.12073 0.546404 0.87253
3.12227 5.33627 6.98929
5.28036 0.719761 0.913639
7.12983 0.895092 0.165708
6.12277 0.666169 0.637169
1.49435 0.526742 7.50693
5.84673 2.66514 3.7541
6.08194 2.99707 0.786498
8.1724 0.499507 7.64202
4.42826 1.9213 7.54658
4.30343 5.75046 2.89206
7.17377 1.79802 3.49311
9.18851 8.29365 8.86174
5.77711 0.0903684 5.4472
8.78783 0.246595 8.7993
8.81862 6.66459 7.09528
0.668213 0.553191 7.73339
3.15895 0.558715 0.49333
8.99086 4.55661 1.67723
9.96874 3.45516 3.0742
1.96146 4.94607 2.21573
2.367 0.308843 6.74688
1.28697 6.84188 1.56841
1.54665 0.86811 6.2887
1.47579 1.3708 4.81272
0.576419 0.272454 9.12155
8.14458 9.35154 8.54973
3.64778 0.434587 0.575149
0.0791178 7.70419 1.95752
4.08801 1.56069 8.86182
8.44616 1.04632 0.434606
5.38902 0.271297 7.42461
7.94595 1.18446 3.08548
2.9677 0.297109 0.377726
0.288045 4.37624 3.13508
8.26029 0.327323 2.69203
3.37872 0.514273 1.10166
3.09993 0.366003 0.812682
3.04589 0.218587 0.294365
3.40564 6.1135 4.17031
0.200734 1.38944 0.029325
9.45911 0.692692 5.45393
3.23726 0.615905 0.986776
2.94718 1.15414 5.05293
7.81354 5.06736 7.22147
3.5738 0.156865 0.576842
2.96325 0.610426 1.14157
3.07185 0.282527 0.491819
5.51622 0.814849 1.2629
8.35095 0.444964 2.68614
1.25696 0.924029 6.372
8.36334 8.86645 0.903353
4.27242 0.163039 8.1894
3.49847 0.630442 0.687372
3.13601 5.36293 1.78209
2.92975 2.18436 1.53029
7.31818 1.63501 0.0728031
3.02994 0.389513 0.749306
2.94547 0.573907 1.1692
4.02741 1.33081 5.17906
7.96521 1.32155 6.79282
7.75445 1.96839 8.52737
5.24354 0.30136 7.787
3.47585 0.138089 1.04846
3.71042 0.220997 1.14841
6.35702 7.99177 3.92201
4.83025 0.342541 0.154307
4.5312 8.54178 2.56772
7.39517 4.96384 5.03486
4.02851 0.491512 8.53628
3.11632 0.746086 0.923656
7.37823 0.939413 6.766
3.7573 0.27082 1.10913
7.0331 2.79165 1.00902
2.95182 0.239338 0.0402294
3.43119 0.106833 0.401059
9.44096 3.03836 0.562944
6.55717 2.35505 6.19943
5.74593 0.139859 7.97429
7.85414 0.0155217 2.11665
3.16015 0.551066 1.26097
4.58445 0.224598 8.16045
1.35854 1.4165 3.17579
6.88821 4.67932 9.59232
2.79936 1.22586 5.37586
2.95327 0.494395 0.19919
6.17965 3.97317 0.832384
3.08616 0.541721 0.675641
2.59475 0.279962 0.208724
3.71003 0.0353736 1.14211
3.48837 0.518582 0.82913
5.17749 0.178173 7.85371
1.75721 5.30642 1.94711
0.835193 0.488794 5.28921
2.22345 0.0929626 6.85641
1.34416 5.43576 2.0033
9.30813 0.698371 8.20802
3.41531 0.213491 0.812428
1.22063 8.47923 5.67005
4.44536 0.256111 7.84197
4.41568 0.513422 4.28891
7.58811 0.303236 2.32756
3.2385 0.278636 0.896755
5.83223 1.83061 7.34723
4.54388 0.148838 8.58873
3.78527 2.93989 5.12629
4.3669 0.37276 8.03024
3.60636 0.43816 1.09754
10 5.95367 0.631457
1.30994 0.953022 6.34683
5.63441 0.280625 5.53105
5.17143 0.538072 7.83957
0.586349 6.01066 6.87293
5.96144 0.392078 1.13488
4.69809 0.152011 7.97627
7.96956 0.676114 2.75122
3.28533 0.0821778 1.07924
3.1823 0.362517 0.570925
7.89049 2.02567 0.116182
6.26004 0.876412 1.76555
2.48403 1.99389 5.19298
6.20214 1.46736 7.76873
5.02521 0.428641 7.83532
3.03215 2.12603 4.90543
10 9.92137 2.36115
2.81165 2.25902 0.986423
3.17313 0.181486 0.855993
6.1099 0.430844 1.58301
5.69789 0.166958 1.04081
8.23666 0.553846 1.41688
1.26114 0.884733 6.50753
8.99864 2.88911 9.77775
9.34101 0.305185 0.593729
3.17845 0.249457 0.608118
7.94631 0.959278 7.25266
5.84933 1.70208 7.7918
1.12464 3.6155 2.3944
5.13582 0.509776 5.86922
5.96936 0.246961 1.77514
3.19576 0.371964 0.09448
0.623717 0.172472 8.51687
4.70057 0.202043 8.21007
4.72559 0.206755 8.65229
3.05272 0.268049 0.868537
2.84995 0.140679 0.356589
7.87717 2.48105 7.04519
3.01253 0.213204 1.07849
0.795743 1.34443 1.06142
1.81688 0.333592 6.50377
4.52974 0.386836 5.02547
0.106697 1.7232 8.07689
3.51907 0.507805 0.477074
0.91902 0.285493 8.30165
2.99236 0.494228 0.97511
3.40303 0.479573 0.8178
1.98008 0.391512 8.28457
2.68931 2.2501 4.79347
4.59358 0.126409 8.39993
4.18133 1.80072 5.65399
8.0819 0.800589 2.57224
3.0591 0.306952 0.549426
8.33253 2.12376 6.98631
0.493124 0.366088 8.7733
9.97226 0.729466 2.6737
3.81867 3.32529 4.89633
5.24195 1.93717 6.94102
5.34366 2.02377 1.89167
4.3498 0.450265 8.68149
0.629115 0.402616 5.57285
4.86811 0.658805 8.33323
2.60598 0.605355 0.620385
6.20562 0.315477 1.85198
8.17534 1.75319 0.627891
3.31877 0.2717 0.748709
6.1604 0.107984 1.20768
1.04889 5.35831 2.34244
3.58413 0.634027 1.34855
9.86977 3.30928 3.45437
3.00227 0.311085 0.230656
4.47835 0.446714 8.54242
2.72253 0.131578 0.699512
5.93493 0.118706 1.2
6.43531 7.75752 6.39451
3.60504 2.84688 4.782
3.01473 0.549626 0.880989
9.57169 0.263927 8.02048
3.16578 0.387677 6.68016
4.08771 0.418217 7.89585
3.46775 0.301688 6.95842
4.38199 0.148846 8.469
4.67834 0.436398 8.17834
3.14855 0.43649 0.831269
3.55136 0.355002 0.694346
5.51135 0.456668 1.18627
2.93872 0.465076 0.827073
3.11029 0.249911 0.328334
2.84703 0.441519 6.79147
4.17921 0.116629 0.660904
3.3053 0.118935 0.850711
6.25346 2.00672 7.80127
4.36557 0.270521 8.48421
3.05429 0.55341 0.386757
3.04599 0.382905 0.838864
6.20511 0.163335 1.18331
4.36149 0.257479 8.34002
2.86836 0.329616 0.871164
3.35695 0.34648 0.579761
6.01673 0.121286 0.968178
4.91809 0.508861 8.16736
4.90606 0.561266 8.52335
3.55618 0.243189 0.462362
2.90711 0.210969 0.653767
7.86561 0.50964 2.10835
5.19526 0.405178 7.93479
7.2752 0.967974 6.54872
4.15788 0.233896 8.11556
8.28331 1.38444 0.69471
5.97729 0.124062 0.928515
4.06358 1.88843 5.78405
4.6795 0.264339 8.46178
3.29753 0 1.22949
3.77416 0.42783 0.758881
7.79958 0.582478 2.29967
4.75714 0.398075 8.1972
4.5005 0.63726 8.68552
4.89366 0.371574 8.04923
3.20677 0.302943 0.520137
3.50475 0.531322 1.22654
3.57709 0.353565 0.478452
5.14948 0.664262 7.89641
3.10203 0.228524 0.0858302
0.557345 0.240778 8.79493
4.62463 0.438596 8.41338
3.25788 0.365402 0.995919
3.15114 0.0723252 0.346044
0.892084 6.34168 8.41075
5.74446 0.705943 0.889862
3.60714 0.277039 1.09418
3.25696 0.277162 0.620013
4.92529 0.55657 8.2882
3.5806 0.315152 0.911925
0.478832 0.674116 8.8024
4.8612 0.371866 8.41159
3.19553 0.363242 1.00176
2.3357 0.370116 7.00544
6.14216 0.392658 1.07777
5.7894 0.715542 0.889661
POINT_DATA 400
SCALARS particleColor float 3
LOOKUP_TABLE default
0 0.596556 1
0.720519 1 0.279481
1 0.709186 0
0.696276 1 0.303724
1 0.89147 0
1 5.96046e-08 0
1 5.96046e-08 0
0.060408 1 0.939592
0 0.951022 1
1 0.191032 0
0.302081 1 0.697919
0.75611 1 0.24389
0.77285 1 0.22715
0.573435 1 0.426565
0.55561 1 0.44439
1 0.104533 0
0.469742 1 0.530258
0 0.490806 1
0 0.62562 1
0.303592 1 0.696408
0 0.39427 1
0.717879 1 0.282121
1 0.29419 0
1 0.361625 0
0.519918 1 0.480082
1 0.504592 0
0.323632 1 0.676368
0.353234 1 0.646766
1 0.000821412 0
0.223848 1 0.776152
0 0.967732 1
0.552604 1 0.447396
1 0.578081 0
0.327694 1 0.672306
0.917256 1 0.0827442
1 5.96046e-08 0
1 5.96046e-08 0
0 0.311041 1
0 0.518743 1
0.464027 1 0.535973
1 5.96046e-08 0
0.48065 1 0.51935
0.950452 1 0.0495484
1 0.625458 0
0 0.637651 1
0 0.433953 1
0 0.314065 1
0 0.925983 1
0 0.401811 1
1 0.467374 0
0 0.857476 1
0.508859 1 0.491141
0 0.666101 1
1 0.677735 0
0 0.925506 1
0 0.535514 1
0.565317 1 0.434683
0.501805 1 0.498195
0 0.44154 1
1 0.953466 0
0 0.324247 1
0.676339 1 0.323661
0.737884 1 0.262116
0 0.426847 1
0.77835 1 0.22165
1 0.647035 0
0.82009 1 0.17991
0.713216 1 0.286784
0.345478 1 0.654522
0.0515705 1 0.94843
0 0.456407 1
0 0.197731 1
0.917586 1 0.0824139
1 5.96046e-08 0
0.176357 1 0.823643
1 5.96046e-08 0
0 0.677776 1
0.402761 1 0.597239
0.543298 1 0.456702
0.469374 1 0.530626
0 0.951356 1
0 0.483477 1
0.910361 1 0.0896392
0 0.705098 1
1 0.497558 0
0 0.95877 1
0.0644589 1 0.935541
1 5.96046e-08 0
0.21344 1 0.78656
0 0.521432 1
0 0.737019 1
0.753142 1 0.246858
0.350926 1 0.649074
0 0.956876 1
0 0.743392 1
1 0.326979 0
1 0.00381094 0
0.157061 1 0.842939
1 0.787768 0
0.0938414 1 0.906159
0 0.334537 1
1 5.96046e-08 0
0.491631 1 0.508369
1 0.67025 0
0.0451618 1 0.954838
0 0.437669 1
0.743627 1 0.256373
0 0.439117 1
1 5.96046e-08 0
1 0.664204 0
0.424941 1 0.575059
0.760967 1 0.239033
1 0.23826 0
0 0.955559 1
0 0.437272 1
0 0.650204 1
0 0.427244 1
1 0.852383 0
0.940283 1 0.0597174
1 0.792423 0
0 0.609852 1
0.7148 1 0.2852
0.808314 1 0.191686
1 0.548409 0
0.68204 1 0.31796
0 0.749817 1
1 0.770894 0
0 0.350757 1
0.857015 1 0.142985
1 0.580336 0
1 5.96046e-08 0
0.654757 1 0.345243
0.374236 1 0.625764
0.146982 1 0.853018
0 0.528433 1
0 0.429477 1
1 0.663977 0
0 0.310081 1
1 5.96046e-08 0
0 0.438318 1
0 0.808391 1
0.596528 1 0.403472
1 0.927745 0
1 0.814183 0
0 0.538512 1
0.0627593 1 0.937241
0 0.385913 1
1 0.933234 0
0 0.591881 1
1 0.49385 0
0 0.743584 1
0 0.588462 1
0 0.664042 1
0.432664 1 0.567336
0.13005 1 0.86995
0 0.730895 1
0.0805516 1 0.919448
0 0.813567 1
0.769318 1 0.230682
0 0.958704 1
0.0822296 1 0.91777
0.790108 1 0.209892
0.29714 1 0.70286
1 0.733026 0
1 0.434456 0
1 0.966657 0
1 5.96046e-08 0
0.266236 1 0.733764
1 0.491964 0
0.220968 1 0.779032
0 0.550764 1
0.0772631 1 0.922737
1 0.570115 0
0 0.378283 1
0 0.668045 1
1 0.829897 0
0 0.952667 1
1 0.66286 0
0.234344 1 0.765656
0.474607 1 0.525393
0 0.41786 1
1 0.801261 0
1 0.264059 0
0 0.596522 1
0 0.374551 1
0.268338 1 0.731662
0 0.589938 1
1 5.96046e-08 0
0 0.817638 1
0 0.541219 1
0 0.623196 1
0 0.744117 1
0.695243 1 0.304757
0 0.568511 1
1 0.550787 0
0 0.37278 1
0.0424445 1 0.957556
1 0.782038 0
0 0.179969 1
0 0.40735 1
0 0.566611 1
0 0.410052 1
0.123512 1 0.876488
0 0.726205 1
1 0.445115 0
0 0.215675 1
0 0.447177 1
0.668432 1 0.331568
0 0.672698 1
0 0.930613 1
0 0.431441 1
0 0.482114 1
1 5.96046e-08 0
0 0.898559 1
1 0.0715328 0
0 0.371672 1
0 0.87138 1
0 0.470842 1
1 0.822364 0
0.489848 1 0.510152
1 0.870791 0
0.184251 1 0.815749
0 0.341752 1
0 0.674452 1
0 0.42147 1
0.357811 1 0.642189
0.214044 1 0.785957
0 0.680645 1
0 0.797139 1
0 0.790839 1
0.222797 1 0.777203
0 0.390941 1
0 0.441917 1
0 0.780045 1
0 0.647437 1
0.0850864 1 0.914914
1 5.96046e-08 0
0 0.57945 1
0 0.56884 1
1 5.96046e-08 0
0 0.75504 1
0 0.507514 1
0 0.551991 1
0 0.725279 1
0 0.634382 1
0.349076 1 0.650924
0 0.364505 1
0 0.691144 1
0.211883 1 0.788117
0.825097 1 0.174903
0 0.824669 1
0 0.615258 1
0 0.569735 1
0.248576 1 0.751424
0.0340896 1 0.96591
0 0.730224 1
0 0.678007 1
0 0.500258 1
0 0.615307 1
0 0.44507 1
0 0.41439 1
1 0.409049 0
0 0.808033 1
0.941424 1 0.0585758
0 0.615118 1
0.920505 1 0.0794947
0.16547 1 0.83453
0 0.970137 1
0 0.677293 1
0 0.808287 1
0.0215859 1 0.978414
0.572655 1 0.427345
1 0.633742 0
0 0.926332 1
0.0638581 1 0.936142
0 0.883064 1
0 0.781116 1
0 0.943866 1
0 0.220434 1
0 0.143634 1
0 0.835584 1
0 0.0689253 1
1 0.998393 0
0 0.741179 1
0.379285 1 0.620715
0.52945 1 0.47055
0 0.876592 1
0 0.723362 1
0.259746 1 0.740254
1 0.40131 0
1 5.96046e-08 0
0 0.652201 1
0 0.823719 1
0 0.753187 1
0 0.786741 1
0 0.617404 1
0 0.608852 1
0 0.293492 1
0 0.362002 1
0 0.458056 1
0.328137 1 0.671863
0 0.580075 1
0 0.960393 1
1 0.804002 0
0 0.642546 1
0 0.518451 1
0.0673812 1 0.932619
0 0.649274 1
0 0.691645 1
0 0.729613 1
0 0.953722 1
0 0.962363 1
0 0.493878 1
0.159963 1 0.840037
0 0.805264 1
0 0.666478 1
0.0257832 1 0.974217
0 0.495553 1
0 0.591194 1
0.143351 1 0.856649
0 0.446053 1
0 0.736009 1
0 0.35006 1
0.00687621 1 0.993124
0 0.627611 1
0 0.422182 1
0 0.650921 1
0 0.627968 1
0.13613 1 0.86387
0 0.188156 1
1 0.961784 0
0 0.544076 1
0 0.330138 1
0 0.756044 1
0 0.487419 1
0.826156 1 0.173844
0 0.885347 1
0 0.555392 1
0.0990741 1 0.900926
0 0.605074 1
0 0.756188 1
0 0.613074 1
0 0.764119 1
0 0.58498 1
0 0.630467 1
0 0.524616 1
0 0.167524 1
0 0.286317 1
0.370125 1 0.629875
0 0.506347 1
0 0.366049 1
0 0.633631 1
0 0.794043 1
0 0.476289 1
0 0.988988 1
0 0.962537 1
0 0.982006 1
0.0801657 1 0.919834
0 0.957228 1
0 0.508302 1
0 0.641158 1
0 0.64911 1
0 0.586479 1
0 0.237431 1
0.0771252 1 0.922875
0 0.837582 1
0 0.922729 1
0.252791 1 0.747209
0 0.720077 1
0 0.583954 1
0 0.436429 1
0 0.64927 1
0 0.761703 1
0 0.561813 1
0 0.535591 1
0 0.810938 1
0 0.720757 1
0 0.861066 1
0 0.994121 1
0 0.569703 1
0 0.509276 1
0 0.291507 1
0 0.808454 1
0 0.574608 1
0 0.729069 1
0 0.429264 1
0 0.789499 1
0 0.453724 1
1 0.0430592 0
0 0.424062 1
0 0.469209 1
0 0.581221 1
0 0.99938 1
0 0.246817 1
0 0.542292 1
0 0.579329 1
0 0.690029 1
0 0.715557 1
0.189637 1 0.810363
0 0.469459 1
