# vtk DataFile Version 3.0
Particle simulation
ASCII
DATASET POLYDATA
POINTS 400 float
5.75537 2.70027 7.81311
4.23993 6.77379 8.08699
0.732257 2.84836 8.70681
3.34019 2.1397 5.23763
6.38838 0.716962 0.64168
7.32457 0.575524 4.57877
3.69432 7.62363 7.5869
1.61598 8.88506 1.03447
4.41052 2.44268 5.89249
5.75409 1.27831 9.51425
7.55885 0.822842 3.52075
9.28641 7.27294 8.69928
9.36157 2.62433 5.37566
9.54185 4.28867 7.14814
0 0.921519 0
2.2507 9.90801 2.96929
3.7881 7.57443 7.8255
5.27325 0.476019 4.3088
7.369 4.52802 8.02941
2.10293 7.97692 8.73261
2.19317 2.22395 1.40265
9.51244 7.54353 0.896745
1.03312 1.84768 1.22028
1.64179 3.87849 7.53838
9.53605 7.14125 8.49497
0.256133 3.68003 2.83255
9.16472 7.56314 2.06123
7.76748 5.73313 3.45339
9.05438 0.133386 5.35061
3.94003 1.38505 9.72056
1.87718 2.56643 4.1132
9.72842 1.34141 2.61514
3.96406 6.84582 3.39308
1.64128 7.35263 8.34115
6.84168 3.00664 3.3018
8.36884 7.64178 0.469925
7.86921 5.14852 6.87875
8.93818 0.451745 1.29956
4.58226 9.06904 7.53428
0.706191 9.4753 0.314352
7.81185 7.75454 7.49941
8.63487 9.76908 1.15761
3.57089 8.62071 5.26885
6.94027 0.00732687 3.91399
4.94083 9.37694 8.9484
4.68107 2.42607 0.764132
8.48398 1.49285 7.71492
3.54695 9.56886 1.9616
1.96345 0.959163 5.61995
1.53674 0.667216 7.49684
9.36587 4.85269 4.84423
8.61603 8.98509 8.66824
0.51043 0.793734 8.37239
0.864222 4.32457 2.51278
0.347456 10 2.95684
0.0290042 0.402366 1.81605
1.97458 4.30709 0.747441
3.89578 0.809397 7.76171
4.59649 4.35254 0.805281
9.94111 1.72071 5.07197
4.46275 8.33553 4.28459
7.47598 4.68045 8.42829
2.79638 3.51307 1.56456
5.27709 9.25813 7.60315
1.14247 6.95987 0.778906
6.03141 1.30369 10
6.42455 5.05502 0.581285
3.84646 4.37831 1.32287
0.0527696 3.80514 9.19378
1.50028 4.02174 2.01474
7.6193 1.26014 4.74407
7.83722 5.93207 2.28968
3.25715 9.02836 2.26006
3.3127 0.239999 6.99368
2.56646 5.17645 2.70353
8.52249 2.41938 1.14535
6.44046 4.93289 6.69522
9.21186 9.45995 5.25202
2.76525 6.82349 9.77721
7.56017 0.853834 0.968023
7.49151 10 4.79786
1.81996 9.81676 4.44026
0.887444 3.47836 3.41235
0.963804 0.967274 2.29904
9.68038 4.4429 6.70946
9.67955 0.247857 8.32475
0.697523 6.76117 3.34924
3.22079 5.70758 9.28521
2.1577 9.56721 5.61882
0.751602 4.38644 2.49114
4.32293 0.57775 3.51504
7.90555 7.34002 7.71531
7.36312 8.32604 5.73732
8.27407 1.1947 9.04945
4.93497 3.42793 3.62972
4.77155 5.52316 0
7.83751 1.0518 2.60971
0 6.92025 8.77045
4.34466 6.46831 6.1246
4.35815 3.65746 1.97806
0.558299 0.895959 8.19443
5.07707 5.86304 2.75634
6.13328 5.61414 8.25919
5.54441 1.81919 3.96764
0.364263 7.25298 7.95932
1.56802 4.99743 5.12406
8.63178 3.24273 3.68706
5.75798 7.34245 1.10531
0.721574 6.69481 5.4834
7.31759 0.49555 2.19259
0.438975 7.50794 1.26102
3.67171 4.72511 6.00697
1.23509 4.26217 1.58969
5.42594 4.58485 2.30203
2.46871 3.15699 6.39557
4.22437 4.24914 9.70518
5.77221 3.66246 0.115829
0.292566 2.06323 3.00582
4.2443 2.68002 8.34398
4.96374 8.19116 3.62868
0.252543 2.0858 0.33892
9.01682 4.32933 4.33492
10 7.42039 8.73749
3.37343 1.81955 0.718752
1.34414 2.90549 8.65028
3.92075 0.345352 8.23849
7.39682 9.50446 2.30998
1.50987 0.678616 3.81558
5.91486 8.52642 8.21515
0 3.36272 3.74504
0.623402 6.39411 9.06761
1.51825 2.81945 3.50878
4.36678 8.20262 5.0702
4.4187 5.2134 2.09511
1.2635 3.76324 5.04627
3.44728 0.136891 6.9266
1.94051 3.50004 7.91052
3.68231 5.57843 6.74012
6.27538 4.71696 8.03059
9.50836 5.29387 4.2055
4.97741 0.478818 3.8282
9.81297 4.71062 9.34714
8.36376 4.15274 4.44087
3.67748 10 5.10612
10 3.23735 1.83752
2.28076 0.801736 4.17565
9.82099 0.665898 2.18788
4.36088 1.07433 6.61245
9.57167 3.01148 3.79011
6.04151 1.10579 7.51472
4.77165 0.402397 3.95912
2.39104 4.40371 8.15908
1.44338 7.58759 5.17496
0.273351 2.27365 9.30581
9.48889 6.31332 5.51611
1.95415 5.51773 0.294837
1.8739 6.37411 9.95938
2.9592 8.91604 2.46836
1.71507 5.68643 7.86437
9.34564 3.59113 3.50197
4.61529 1.64255 0.56815
3.50911 1.58968 6.19766
1.19292 4.89501 0
2.54898 0.723852 8.25388
8.79143 3.54717 5.70641
3.12637 9.21358 5.87486
3.54968 0.224339 2.09427
1.18503 7.40445 9.7798
6.14848 8.41536 0.456561
5.5812 1.47624 2.86404
4.09311 7.18382 8.67154
0.64025 3.87019 7.24903
1.32373 7.15381 5.09056
8.19526 4.30404 7.23344
3.70501 3.28085 2.7995
4.17379 2.67809 8.79389
2.32074 2.65655 9.25182
3.48071 8.00449 6.81207
1.76068 5.56578 0.300451
4.76729 9.81135 7.13028
1.45915 2.65175 1.43868
6.24161 0.184348 1.87128
0.468365 6.93006 1.0266
0.995438 3.57006 6.74257
8.45531 1.98423 3.95043
8.43214 6.67699 0
4.53623 0.385397 3.82268
7.85387 9.77631 4.7033
9.3927 8.5164 7.78008
8.63523 1.63165 6.8721
6.25807 0.170254 9.33745
4.43193 0.403404 3.15392
4.54689 5.13692 0.428438
3.27917 9.63581 8.63937
1.41324 2.91906 3.22108
5.78872 1.88051 7.42704
0 0.995474 1.21501
7.69868 3.43391 4.74238
8.74936 0.212601 3.85365
3.00203 1.74869 2.50916
4.65055 0.428068 4.0543
0.0805244 1.7889 1.23925
8.83925 7.06776 1.84106
6.1899 5.5973 7.74084
3.19654 9.09431 0.675859
6.73102 2.50551 6.07264
8.38087 1.54193 6.40818
4.82143 9.83278 7.4189
4.04504 0.679802 2.89904
5.1552 0.729447 6.29314
4.75054 0.491804 4.05695
4.45121 0.399798 4.038
0.7259 5.67704 1.16318
0.764493 2.72226 0.704579
2.93538 1.48791 2.72864
0.600278 0.48237 5.5171
4.56148 0.238688 3.90468
4.8061 9.34165 1.62614
1.79717 2.70694 8.95189
0.159699 9.2421 9.36963
4.38883 7.11026 8.4629
0.21912 4.08894 4.83644
9.72906 5.32094 9.63436
5.21539 0.358058 3.8713
4.07511 8.08737 1.81098
6.73096 2.22708 1.65082
5.07708 5.79756 2.19273
5.13957 0.460975 3.14575
4.90771 0.454142 4.27482
2.00996 5.33283 8.33686
6.47431 1.13962 9.83918
1.23967 9.71465 0.297566
2.32631 0.696772 9.5615
5.44836 0.24137 3.45237
1.78334 0.8263 8.10136
4.69398 0 0.64617
5.98291 8.67607 6.41301
8.09899 1.00447 0.390041
4.75121 0.501331 3.93883
1.85305 9.10699 9.34219
4.22934 0.489736 3.54333
8.99502 0.658783 1.43923
6.29039 3.61822 3.03426
8.8687 2.56705 1.56256
8.09055 9.46402 0
8.50924 6.19953 1.46133
3.31825 2.68175 6.82697
7.92309 9.40606 0.972263
0.901251 5.46964 6.59195
8.02172 0.164852 3.14815
4.40644 0.29692 3.91609
0.939255 3.90349 4.68074
8.33088 8.09541 8.11206
0 4.97534 1.53439
7.4423 8.46809 9.22479
6.06512 4.68216 2.60992
8.13387 4.60454 7.96449
2.2136 0.627205 7.99977
6.17176 9.56788 9.2968
7.96789 9.04964 5.68763
2.95752 8.89045 1.10216
0.803698 3.29497 0.955645
1.29166 6.15347 2.83532
3.67198 7.15832 5.47599
1.77291 4.58641 0
2.19735 3.124 7.01603
3.89892 1.75635 1.11927
5.49155 0.909453 9.16188
6.15472 7.00634 9.24999
2.00805 3.97426 4.81817
5.35081 0.514376 4.13477
2.12328 9.29232 0.819522
6.90537 8.92259 2.3663
9.80484 5.9893 4.52917
7.94579 6.71332 3.31595
7.26455 2.02843 4.96283
6.18668 2.13569 7.37002
6.31724 7.63581 9.71706
4.7479 0.471238 1.62231
5.45042 0.312683 3.92487
7.13146 0.709108 0.789506
8.90512 1.01534 2.02355
2.3917 4.14013 8.31499
6.08174 7.45902 0
6.73412 10 2.11719
8.231 5.25556 3.46726
5.03878 0.454438 3.93557
6.39337 2.91384 1.84263
3.93262 5.69429 4.96496
6.95494 1.34505 9.80908
7.87642 7.37616 2.01008
2.77577 8.43913 6.7828
5.57737 0.778969 4.0721
2.20446 4.33914 4.93816
2.60791 6.094 9.35282
1.89119 0.755102 7.81136
5.08043 0.392739 4.32808
5.25539 0.580368 4.12282
5.01938 0.725644 4.06486
4.54306 0.421914 4.44769
8.94675 9.2807 1.14711
2.13965 4.43759 7.80356
5.4748 0.357847 4.52946
2.00747 2.18713 1.29331
4.57161 0.485769 4.363
9.72786 8.18516 8.91946
4.80241 0.861558 3.99302
4.70078 0.416447 3.95962
3.88172 3.94759 4.49541
8.54395 7.70752 2.45297
9.95773 8.03534 6.38903
7.58986 5.90873 8.57983
6.30711 8.24072 0.304682
5.13134 0.546354 4.07444
9.99694 4.42156 8.86366
8.90488 5.29193 1.23345
0.525264 6.49676 6.97764
4.82165 6.23296 7.28669
2.47741 3.13183 4.62773
1.40715 4.64258 8.19515
1.47186 1.41432 8.40605
6.14887 0.205483 10
2.10373 0.458391 7.95503
4.89008 0.567271 3.81616
5.85704 0.506706 4.08374
6.91785 8.25616 4.38911
4.41128 0.537418 3.85826
9.22051 2.32724 0.629593
4.81919 5.19904 3.97597
4.52343 0.45094 3.86079
0.618939 2.47262 9.5559
2.04348 4.38451 3.62717
1.388 9.74639 1.72961
10 7.88986 5.7785
9.55169 0.679458 3.17767
2.51994 1.91937 4.20983
0.647235 5.80663 7.57098
4.83692 0.602285 3.96142
1.86557 2.4248 8.30672
7.29852 6.5121 8.98879
6.62852 6.20225 4.73482
3.97779 9.52246 0
2.10855 1.86577 7.02415
1.94633 0.544927 7.98222
5.25608 0.773092 4.49646
4.97082 0.256933 4.89662
9.57563 0.597521 2.31415
4.64587 0.39723 3.78484
5.05057 0.256705 3.57905
5.74626 0.726499 9.58815
4.9381 0.309917 4.10022
4.52319 0.417593 3.48968
2.228 8.15444 9.21221
9.78998 10 2.57939
2.3532 3.1846 6.17147
4.78659 0.334587 4.3877
9.4224 4.5841 10
5.85017 5.82449 9.55847
5.0571 0.53548 3.79877
4.90646 0.578259 4.07342
9.68915 0.023552 1.9467
1.99675 0.459329 7.91041
1.89858 0.683302 7.75625
5.13019 0.806851 3.94143
4.55003 0.21623 4.29336
9.39113 0.972872 3.15729
1.83309 0.747553 7.74754
4.41699 6.04131 5.76606
1.96979 0.744071 7.8771
7.49736 8.66246 5.85103
9.39052 0.612773 2.97424
2.49168 7.79556 3.52989
1.99802 8.32162 9.67932
5.36533 0.372054 4.26711
5.21085 0.434481 4.19488
9.32585 0.295891 3.35418
1.93335 0.808026 7.98924
1.76335 0.779805 7.58415
0.357929 0.47408 7.10239
5.44438 0.353231 4.0549
4.3689 0.481122 4.11144
4.53913 0.434274 3.89724
3.96713 7.73016 8.03875
4.97729 0.478919 3.94649
3.69166 8.52118 2.56055
1.8351 0.77369 7.84673
4.76831 0.555324 4.03796
4.76472 0.658089 3.9144
1.98219 7.80599 8.26309
4.34434 2.15448 6.93947
4.55573 0.939805 4.20337
5.17005 0.269351 4.28806
1.62436 0.805006 7.71118
4.78936 0.179127 4.026
6.21899 2.68477 1.26932
2.06776 1.16257 7.58961
4.8026 0.656615 4.29725
1.81254 4.01115 2.54059
9.13131 9.37939 3.6781
8.33679 1.47845 2.14324
POINT_DATA 400
SCALARS particleColor float 3
LOOKUP_TABLE default
1 0.659629 0
1 5.96046e-08 0
1 5.96046e-08 0
1 0.602388 0
1 0.838316 0
0.230783 1 0.769217
1 5.96046e-08 0
0.262256 1 0.737744
1 5.96046e-08 0
1 0.754857 0
0.268415 1 0.731586
1 5.96046e-08 0
1 0.481841 0
1 5.96046e-08 0
0.351588 1 0.648412
1 5.96046e-08 0
1 5.96046e-08 0
0 0.59257 1
1 5.96046e-08 0
1 5.96046e-08 0
0 0.862081 1
1 0.393824 0
1 5.96046e-08 0
1 0.995894 0
1 5.96046e-08 0
1 5.96046e-08 0
0.618117 1 0.381883
0.624092 1 0.375908
0.0262382 1 0.973762
0.2094 1 0.7906
1 0.310586 0
0 0.311989 1
1 5.96046e-08 0
0.534601 1 0.465399
0.802545 1 0.197455
1 0.885454 0
1 0.982208 0
0 0.766562 1
1 0.327205 0
0.153637 1 0.846363
1 5.96046e-08 0
1 0.820567 0
1 5.96046e-08 0
1 5.96046e-08 0
0.0528808 1 0.947119
0.805017 1 0.194983
0.335548 1 0.664452
1 0.850699 0
0.850161 1 0.149839
1 5.96046e-08 0
1 5.96046e-08 0
0.841821 1 0.158179
1 0.780139 0
1 0.843778 0
1 5.96046e-08 0
1 0.524957 0
1 0.3228 0
0 0.878942 1
1 5.96046e-08 0
1 0.739473 0
1 0.803911 0
1 0.756634 0
1 5.96046e-08 0
0 0.671992 1
0.857147 1 0.142853
0 0.570139 1
0.257289 1 0.742711
1 0.763975 0
0.0766323 1 0.923368
1 0.997483 0
0.72528 1 0.27472
0.230955 1 0.769045
0.622654 1 0.377346
0.778074 1 0.221926
1 5.96046e-08 0
0.889712 1 0.110288
0.724627 1 0.275373
1 5.96046e-08 0
0.767411 1 0.232589
1 0.836921 0
1 5.96046e-08 0
1 0.887502 0
1 5.96046e-08 0
1 5.96046e-08 0
1 5.96046e-08 0
1 0.829955 0
1 5.96046e-08 0
1 0.631229 0
1 5.96046e-08 0
1 5.96046e-08 0
0 0.799542 1
1 5.96046e-08 0
1 5.96046e-08 0
1 0.430258 0
0 0.681638 1
1 0.853735 0
1 0.294313 0
1 5.96046e-08 0
0 0.8173 1
1 5.96046e-08 0
1 0.764676 0
1 5.96046e-08 0
1 5.96046e-08 0
1 0.27183 0
1 0.596253 0
1 0.294111 0
1 5.96046e-08 0
1 5.96046e-08 0
0.876794 1 0.123206
1 5.96046e-08 0
1 5.96046e-08 0
1 5.96046e-08 0
0.404011 1 0.595989
1 0.180847 0
0 0.991235 1
0.941092 1 0.058908
1 0.0214672 0
1 0.735126 0
0.495759 1 0.504241
0.642034 1 0.357966
1 0.887958 0
1 0.531766 0
1 0.871316 0
1 5.96046e-08 0
1 0.228597 0
0 0.852763 1
1 0.566226 0
1 5.96046e-08 0
0.207824 1 0.792176
1 5.96046e-08 0
1 0.59859 0
1 5.96046e-08 0
1 0.0162832 0
0.424961 1 0.575039
1 5.96046e-08 0
1 0.824629 0
1 5.96046e-08 0
0.684794 1 0.315206
0.427497 1 0.572503
0 0.574511 1
0 0.550518 1
1 0.403507 0
1 0.658892 0
1 5.96046e-08 0
1 5.96046e-08 0
0.794455 1 0.205545
0.799027 1 0.200973
1 0.985436 0
0.585234 1 0.414766
0.724588 1 0.275412
0 0.308971 1
1 5.96046e-08 0
1 5.96046e-08 0
0.930163 1 0.0698373
1 0.276581 0
1 0.35976 0
0.942156 1 0.0578443
0.910192 1 0.0898079
1 5.96046e-08 0
0.414394 1 0.585606
1 0.500237 0
0.158375 1 0.841625
1 5.96046e-08 0
0.739509 1 0.260491
1 5.96046e-08 0
1 0.601703 0
1 5.96046e-08 0
1 5.96046e-08 0
1 5.96046e-08 0
1 0.761851 0
1 5.96046e-08 0
1 0.736612 0
0.324656 1 0.675344
1 0.147568 0
1 0.110329 0
1 0.576183 0
1 5.96046e-08 0
1 0.500877 0
1 5.96046e-08 0
1 0.593241 0
0.215798 1 0.784202
0.547879 1 0.452121
0.0600452 1 0.939955
0 0.483581 1
1 5.96046e-08 0
1 5.96046e-08 0
0 0.532364 1
0.505964 1 0.494036
1 0.397703 0
1 0.711771 0
0.562317 1 0.437683
0 0.603494 1
1 0.00218952 0
0.784813 1 0.215187
1 0.638105 0
1 0.284099 0
0 0.945529 1
0.60897 1 0.39103
0.317859 1 0.682141
1 0.259692 0
0 0.642579 1
1 0.367269 0
0.754354 1 0.245646
1 5.96046e-08 0
1 5.96046e-08 0
1 5.96046e-08 0
1 0.100584 0
0.263477 1 0.736523
1 0.498146 0
1 0.785928 0
0 0.631788 1
0 0.890817 1
0.412407 1 0.587593
1 5.96046e-08 0
0 0.426936 1
1 5.96046e-08 0
0 0.7361 1
0.381591 1 0.618409
1 5.96046e-08 0
0.930844 1 0.0691563
0.942445 1 0.0575551
1 5.96046e-08 0
1 5.96046e-08 0
0 0.676309 1
1 5.96046e-08 0
1 5.96046e-08 0
1 0.485692 0
0 0.579991 1
0 0.651126 1
1 5.96046e-08 0
1 0.838938 0
0.735711 1 0.264289
0 0.943285 1
0 0.0841887 1
0 0.633587 1
1 0.217851 0
1 5.96046e-08 0
1 5.96046e-08 0
0 0.46388 1
1 5.96046e-08 0
0 0.616126 1
0.186881 1 0.813119
1 5.96046e-08 0
0.162507 1 0.837493
1 5.96046e-08 0
1 0.752492 0
1 5.96046e-08 0
0.429801 1 0.570199
1 5.96046e-08 0
1 5.96046e-08 0
0 0.410809 1
0.67864 1 0.32136
1 5.96046e-08 0
0.883972 1 0.116028
1 5.96046e-08 0
1 0.750003 0
1 0.134591 0
0 0.448629 1
1 0.699024 0
1 0.00239336 0
0.236793 1 0.763207
0.840963 1 0.159037
0.433174 1 0.566826
1 5.96046e-08 0
1 5.96046e-08 0
1 5.96046e-08 0
1 0.840707 0
1 0.542895 0
1 5.96046e-08 0
1 5.96046e-08 0
0 0.397855 1
0.711417 1 0.288583
0.0847978 1 0.915202
1 0.542765 0
1 5.96046e-08 0
0.301347 1 0.698653
1 0.821244 0
1 5.96046e-08 0
1 5.96046e-08 0
0 0.261489 1
1 0.649086 0
0 0.725137 1
0 0.774873 1
1 0.531244 0
1 0.0980199 0
1 5.96046e-08 0
0 0.785861 1
1 5.96046e-08 0
0.801127 1 0.198873
0.789455 1 0.210545
1 5.96046e-08 0
1 0.0282306 0
1 5.96046e-08 0
1 5.96046e-08 0
1 5.96046e-08 0
0 0.505598 1
0 0.713759 1
0 0.339148 1
0.0135791 1 0.986421
0 0.198704 1
1 0.248862 0
1 0.49204 0
0 0.458347 1
1 0.216636 0
0 0.919057 1
1 0.556697 0
0 0.326163 1
0 0.249127 1
1 0.262156 0
1 0.170647 0
0.677212 1 0.322788
1 5.96046e-08 0
0.229926 1 0.770074
0 0.993511 1
1 0.637143 0
0.868618 1 0.131382
1 5.96046e-08 0
0.467446 1 0.532554
1 0.702096 0
0.814812 1 0.185188
0 0.480664 1
1 5.96046e-08 0
0 0.630094 1
0 0.502904 1
0 0.802568 1
1 0.77999 0
0 0.541284 1
1 0.833754 0
0.580842 1 0.419158
0 0.261597 1
0.880042 1 0.119958
1 5.96046e-08 0
1 0.64863 0
0.793748 1 0.206252
0 0.736543 1
1 5.96046e-08 0
1 0.823533 0
0 0.455508 1
1 0.984374 0
1 0.666796 0
0.592119 1 0.407881
1 0.429492 0
0 0.548668 1
0 0.259125 1
0 0.233741 1
0 0.504263 1
0.165816 1 0.834184
0 0.908124 1
0 0.654397 1
1 0.129498 0
0 0.689238 1
0 0.112985 1
0.59832 1 0.40168
1 5.96046e-08 0
0 0.825335 1
0 0.509997 1
1 0.673942 0
0.841238 1 0.158762
0 0.559611 1
0 0.897656 1
0 0.79249 1
0 0.289207 1
0 0.493745 1
0 0.816597 1
0 0.99942 1
0 0.798679 1
0 0.393336 1
0 0.586188 1
0 0.639505 1
0.684944 1 0.315056
0 0.795554 1
1 5.96046e-08 0
1 5.96046e-08 0
0.149996 1 0.850004
0 0.97782 1
0 0.603865 1
0 0.983492 1
0.0900101 1 0.90999
0 0.633925 1
0 0.753049 1
0 0.734953 1
0 0.674776 1
0.60338 1 0.39662
0.00654992 1 0.99345
1 0.521208 0
0 0.655151 1
0 0.483644 1
0 0.674497 1
0 0.543209 1
0.196312 1 0.803688
0 0.47645 1
0 0.692225 1
0 0.819512 1
0 0.8117 1
1 0.544882 0
0.09214 1 0.90786
0 0.596123 1
1 0.409971 0
0.553589 1 0.446411
0 0.840713 1
