# vtk DataFile Version 3.0
Particle simulation
ASCII
DATASET POLYDATA
POINTS 400 float
0.99606 0.0411471 1.26722
1.40061 1.2617 1.92552
1.14526 0.415871 0.887047
2.07423 0.429376 0.708236
9.93368 0.454016 3.9054
0.666122 8.34711 4.68837
9.8484 3.68616 0.134947
2.11325 4.7158 3.03827
6.14679 2.07825 2.10466
9.68038 0.411091 2.5211
2.21116 0.620724 0.723656
2.6133 0.220303 2.81353
1.30479 0.589768 0.915491
1.97686 0.359952 0.658938
9.82717 0.670779 3.88517
5.33151 5.57674 8.40106
4.97219 1.89764 1.0761
2.31146 0.366992 2.91518
7.59822 0.656077 1.01204
9.64765 0.38588 2.52381
1.33804 0.520426 1.37822
9.88209 0.926724 6.7433
2.18869 2.43824 7.21719
9.4255 0.279685 2.28648
3.72465 2.50861 7.1149
0.936923 0.0657475 1.5731
7.79339 0.641188 7.15214
1.45984 1.02813 2.46557
4.23935 0.0347964 4.1187
2.5072 0.104338 2.09042
7.07702 0.0627803 1.55365
9.35755 0.348273 1.17523
8.41962 3.5699 9.86297
9.45442 0.312016 2.30494
1.28094 2.1935 2.47142
1.00026 0.0631772 1.56203
5.83931 0.649403 8.08932
1.69487 0.710991 2.13281
5.04688 0.439634 2.35708
2.18212 0.546841 2.44348
0.39136 1.07232 0.792542
6.01121 1.65423 2.19356
5.38325 1.18271 3.2662
8.82968 0.108946 3.31308
6.86245 0.681724 8.31322
5.14867 0.312902 1.61818
5.52018 0.370846 3.75292
2.33979 0.349118 1.40273
4.82363 0.355111 1.89276
7.04939 1.29963 2.06749
0.389715 1.05378 0.894072
5.99291 1.57623 2.1847
3.62335 0.57817 4.12844
9.08972 0.106618 2.90029
6.8181 0.727498 8.28197
5.13954 0.404413 1.69065
3.54358 0.347643 6.98657
1.95295 0.630988 1.1919
4.85925 0.355541 1.84946
4.5953 0.16063 9.23485
5.32512 0.436256 3.68441
4.8654 0.416652 3.68021
4.31282 0.168732 8.61706
9.812 0.370882 2.33007
6.3839 0.718036 8.0588
5.95933 1.21002 9.08054
4.04739 0.243022 3.58801
0.545123 0.710757 0.661502
4.86796 0.445812 1.80299
3.99424 0.790542 6.73901
4.86679 0.15357 3.70445
0.846479 1.14118 2.69193
4.50954 0.62329 6.67705
9.78299 0.373359 2.32795
6.43816 0.477784 7.94205
4.13528 0.0590008 9.71939
4.07505 0.286245 3.56364
2.84292 0.400271 6.79604
4.81051 0.446748 1.79303
3.44452 0.386073 6.86628
2.46819 0.46025 1.95046
0.845228 1.2246 2.93669
1.94719 0.161012 2.74666
1.53418 0.624984 2.99373
4.86794 0.509972 6.86444
3.43878 0.662784 7.64229
4.7891 0.161797 6.34068
1.56344 0.922811 2.43937
5.10682 1.90236 4.82976
8.12626 0.53903 1.2493
2.63962 0.192712 2.24125
1.21251 0.218585 2.82411
4.56614 0.189286 3.57074
1.52803 0.604931 2.94685
4.87564 0.523222 6.87106
3.45999 0.64117 7.60199
3.86046 0.662799 6.71479
1.93291 1.12326 1.65668
2.51476 1.00591 9.75082
8.11116 0.542222 1.2583
1.64673 1.09685 2.73152
6.42497 0 2.84375
2.09691 0.559855 1.02248
7.29255 0.424447 1.49457
9.32247 0.327722 1.52355
1.81178 0.734838 1.35196
3.57131 0.643992 7.08034
4.87054 0.521697 1.96721
4.81419 0.31924 1.94675
8.39186 0.424306 1.24706
0.379652 1.03698 0.615374
9.57504 0.531796 2.13887
2.90518 0.494518 2.52913
7.8873 0.676748 0.885833
2.31872 0.331371 1.65866
2.06482 0.676119 1.56456
3.77095 0.532579 7.0213
4.65877 0.515788 1.41902
4.88998 0.364496 1.80781
1.69633 0.346857 2.43056
1.57757 0.760871 3.19634
4.75265 0.469758 2.58262
4.16503 0.175213 9.74238
4.40126 0.025339 4.23258
1.24936 0.740176 8.35513
2.22784 0.702685 3.02304
2.17413 0.734698 1.28108
9.77945 0.216857 2.43211
4.32373 2.37991 7.23345
1.59641 0.071939 2.91897
1.56935 0.754664 3.13355
5.02642 0.450011 2.47338
5.29041 0.830411 7.0703
4.35119 0.129513 4.1349
4.09974 0.793148 7.01528
1.91553 0.722736 2.8554
8.65569 1.46168 9.36783
9.81775 0.210048 2.40839
3.5945 0.370744 7.32747
3.51983 0.444845 3.81268
2.48632 0.283838 1.84125
3.63159 0.786801 4.32358
1.90627 0.994004 3.87934
2.31218 0.688236 2.37255
2.2304 0.757476 2.5207
2.08029 0.749796 0.755238
6.97008 0.872686 8.04798
1.56426 0.450552 2.03609
2.54213 0.232626 1.73869
1.8435 0.578162 1.20134
2.48565 0.294101 1.84473
3.69497 0.703465 4.34788
3.27189 0.26717 2.00316
4.59896 0 3.62718
2.18554 1.12286 1.05409
2.14229 0.323818 1.20994
6.99342 0.825563 8.01735
2.49613 0.344619 2.13114
3.91771 0.447576 4.06843
2.3275 0.302362 1.04662
2.07311 0.726364 0.486257
0.694549 0.881149 1.22851
5.05744 0.272175 6.52678
1.42844 0.258721 3.0817
0.376705 1.00411 0.884449
3.48869 0.361688 3.99209
3.5295 0.513914 7.33522
3.62947 0.554338 7.40274
7.1961 0.994965 8.59037
5.49746 0.532942 0.909058
2.06291 0.79673 0.306937
2.70836 0.738855 2.37177
4.89381 0.478905 6.43412
2.27744 0.678535 2.38969
2.63936 0.213936 2.37267
1.37459 0.997974 1.58954
3.30763 0.368492 7.06266
3.56748 0.541327 7.14731
3.30879 0.28639 7.05057
5.40894 0.444597 1.0362
1.65987 0.495137 1.87155
1.82298 0.384314 2.50431
6.07361 0.560108 7.94025
1.16793 1.92566 2.2998
4.3033 1.19516 6.92764
2.10035 0.572679 1.40505
2.51008 0.585526 1.61009
4.83933 0.155167 3.29758
1.89049 0.63851 2.25924
2.54791 0.283776 2.24319
1.63805 0.517009 1.87518
2.40845 0.404255 1.62558
5.03082 0.475035 6.52789
2.05391 1.94305 1.95964
3.27865 0.572192 7.12205
1.96067 0.815963 1.84313
2.54103 0.538313 1.78251
4.86948 2.91251 3.11788
1.81092 0.640983 2.57669
1.81118 0.735946 2.41761
2.36968 0.26533 1.70013
4.86139 0.514303 1.99513
5.49076 0.473018 6.74033
3.57264 0.389397 3.77481
4.69951 0.130948 9.11639
3.59642 0.562948 6.82301
2.09867 0.312935 1.50964
1.41857 0.517488 2.68796
1.60303 0.470005 1.69852
7.99325 0.536242 1.10673
2.54626 0.45282 2.02488
4.35214 0.0247687 1.63184
5.07803 0.253281 6.44762
4.43335 0.142625 3.8482
4.44806 0.111695 9.20561
3.60443 0.565262 6.77197
2.15115 0.287892 1.52167
1.97236 0.794224 2.31587
2.39988 0.896579 2.945
7.91336 0.494378 1.30237
8.71424 1.27111 2.28507
1.62398 0.722762 8.90625
4.85468 0.487945 6.73911
2.68807 0.132318 2.00858
3.25739 0.594243 7.14625
1.38307 2.08231 2.19222
7.75665 1.19276 4.34846
2.94736 0.249742 2.15663
1.96027 0.531476 1.14025
4.12145 0 4.08327
8.93911 0.479611 2.59088
4.2537 1.30643 6.7665
6.56412 0.856756 8.09305
2.63076 0.123705 1.96378
5.0195 0.675028 6.59391
1.80908 2.21304 2.22355
6.96414 0.477602 8.01254
1.22008 2.12445 2.2501
2.4692 0.619396 2.60732
1.47239 0.910474 2.60026
2.11314 0.489341 1.0839
1.75888 0.963118 3.05177
2.27216 0.165776 1.38899
1.97995 0.741194 2.26412
3.93379 0.392829 7.08622
3.35093 0.0771586 1.85039
1.44302 0.509829 1.24
3.51425 0.705799 7.80004
4.79384 0.104351 1.80477
3.70124 0.430013 6.63772
1.93459 0.448016 1.0798
6.42151 1.99599 2.39795
3.62506 0.511737 6.86355
2.20635 0.660486 2.0597
7.11677 0.410343 8.45473
3.07394 0.230953 1.81867
7.92677 0.412824 1.33084
2.77262 0.279948 7.13334
4.79111 0.10449 1.80999
3.6616 0.446713 6.66167
3.20681 0.0350747 1.92476
5.21209 1.47223 2.20058
4.62981 0.282682 3.50357
9.7521 0.593598 2.63702
4.52629 0.116797 9.02045
1.64483 0.416181 1.6272
8.74274 0.624307 1.59751
3.61879 0.622486 6.7922
6.94951 0.755491 7.80518
3.01529 0.217634 2.1828
3.1287 0 1.90122
5.42468 1.45879 2.11863
1.31574 2.08949 2.06322
9.21751 0.465104 3.02596
4.15034 0.601457 7.30328
4.83977 0.797873 6.8311
9.49676 0.450602 2.63899
8.96787 1.4942 8.78525
7.18967 0.660006 8.00824
2.33414 0.220272 1.79261
7.09471 0.508055 0.97234
4.87021 0.220528 1.83404
5.21105 0.544872 2.34079
9.56312 0.526262 2.61714
6.03915 0.708602 7.97293
5.59168 0.669694 8.10979
1.35305 0.877028 1.99016
2.97155 0.540252 1.51445
3.93276 0.305907 3.73851
5.70502 0.454813 7.27461
7.1456 0.381078 1.05495
4.87079 0.304799 1.77671
1.91247 0.987377 1.47343
9.55233 0.632199 2.56226
3.66933 1.05376 6.60733
3.1873 0.18172 6.41989
1.89183 0.677962 1.08984
1.40385 2.26094 2.55231
1.82985 1.09073 3.0937
1.36003 0.490456 0.94632
7.35049 0.539205 1.06262
3.92795 0.263664 3.74827
1.74069 1.03681 2.95863
4.76801 0.491764 1.97281
1.84963 0.381837 1.18401
4.52987 0.467178 1.84689
2.10779 0.400567 1.658
2.52151 0.180083 2.31532
2.96943 0.702089 1.88075
1.67585 0.630391 2.63256
8.84888 0.526663 2.58561
4.02636 0.272896 3.83452
6.84482 0.749591 8.53319
1.60593 0.944419 2.24885
1.84427 0.553687 1.23496
8.35705 0.658382 1.10327
2.08279 0.509945 1.38663
3.63233 0.954562 4.1047
4.62017 0.49564 1.53145
2.61473 0.577843 1.5647
3.70429 0.322388 3.73883
1.71984 0.0336152 2.80534
3.40824 0.422729 6.49566
2.66894 0.805477 2.30223
7.81781 0.715341 1.13367
8.20465 0.708948 0.725093
2.1298 0.775538 1.16131
4.92228 0.128698 1.95861
8.13956 0.293901 1.12091
1.64224 0.596478 2.1081
3.72108 0.272658 3.86622
2.26043 0.148595 1.80309
3.48828 0.491479 6.70369
2.67424 0.791868 2.39586
7.74638 0.573712 1.01733
3.92621 0.511798 4.11251
2.1809 0.890343 1.18277
2.44947 0.313928 1.12466
8.04552 0.702249 0.963205
1.63927 0.659733 1.84149
4.42327 0.0627901 4.19657
2.59634 0.502555 2.01301
4.72234 0.741561 6.5303
3.6833 0.30536 3.84907
2.03604 0.610373 1.46177
1.69625 0.632903 1.3185
4.83069 0.368553 1.85719
1.24347 0.564414 1.42149
1.79207 0.777083 1.271
2.63126 0.659342 1.05735
2.70639 0.322051 2.21782
2.4782 0.522928 1.92358
5.10552 0.916865 6.79478
3.69036 0.297093 3.86405
2.04102 0.610689 1.30316
2.41866 0.404361 1.42206
5.0576 0.663325 2.02018
3.23179 0.313828 6.19917
1.94361 0.676432 1.25463
2.01822 0.962033 0.145325
5.19171 0.441782 1.53955
4.24964 0.263878 4.01305
5.18827 0.775962 7.21803
2.19609 0.778831 1.13131
1.40658 0.64483 1.54972
6.78925 0.565867 8.41843
3.91911 0.343593 7.11966
3.61587 0.66199 7.11864
3.50648 0.133032 7.10619
1.63036 1.04971 0.476605
5.1755 0.438462 1.52951
4.32162 0.237611 4.00504
4.89744 0.930281 6.97935
2.06018 0.793901 1.25294
2.35294 0.216354 2.75688
6.86018 0.68351 8.26388
3.91156 0.372219 7.15228
3.46796 0.684096 7.28895
3.5477 0.440358 7.19552
1.05036 0.297693 1.54209
2.17401 0.54072 1.50964
2.48026 0.444587 2.1329
3.62216 0.550898 7.36835
2.7406 0.273376 2.21544
9.3415 0.508511 2.3334
5.17324 0.279988 6.75134
2.52615 0.474199 1.85385
2.69026 0.386016 1.69151
8.99209 0.758601 2.57253
4.61688 0.34966 2.12553
2.15293 0.529433 1.49966
2.44244 0.438652 2.04412
3.65153 0.520609 7.32477
2.56204 0.209835 1.97268
9.31679 0.561905 2.37229
5.33024 0.859937 6.96995
2.44994 0.443439 1.83236
2.39336 0.516637 1.27281
8.3336 0.518189 1.23088
4.60378 0.371986 2.12916
POINT_DATA 400
SCALARS particleColor float 3
LOOKUP_TABLE default
0 0.565732 1
0 0.613277 1
0 0.980178 1
0 0.378027 1
0 0.379309 1
1 0.417721 0
0 0.338628 1
0 0.14284 1
0 0.65324 1
0 0.920892 1
0 0.352199 1
0 0.551768 1
0 0.101669 1
0 0.412946 1
0 0.548534 1
0 0.525988 1
0 0.622424 1
0 0.651742 1
0.170656 1 0.829344
0 0.741928 1
0 0.807439 1
0.0881024 1 0.911898
0 0.348708 1
0 0.710759 1
0 0.714289 1
0 0.492224 1
0 0.741687 1
0 0.786749 1
0 0.475131 1
0 0.503932 1
0 0.563991 1
0 0.491207 1
1 0.586061 0
0 0.678973 1
0 0.386215 1
0 0.433171 1
0 0.368035 1
0 0.500788 1
0 0.519667 1
0 0.954016 1
0.0813114 1 0.918689
0.162736 1 0.837264
0 0.735077 1
0 0.369132 1
0 0.847667 1
0 0.216781 1
0 0.621532 1
0.131374 1 0.868626
0 0.533156 1
0 0.888914 1
0 0.478571 1
0 0.724573 1
0 0.967209 1
0 0.576536 1
0 0.677038 1
0 0.32471 1
0 0.801638 1
0 0.598931 1
0 0.465118 1
0 0.922425 1
0 0.674413 1
0 0.611633 1
0 0.430653 1
0.237042 1 0.762958
0 0.46401 1
0 0.572199 1
0 0.655185 1
0 0.6062 1
0 0.586928 1
0 0.367679 1
0.493981 1 0.506019
0 0.230304 1
0 0.881378 1
0.132909 1 0.867091
0 0.605803 1
0 0.80164 1
0 0.620771 1
0 0.517387 1
0 0.54502 1
0 0.75016 1
0 0.348489 1
0 0.704293 1
0 0.436093 1
0 0.321199 1
0 0.299077 1
0 0.151018 1
0 0.722303 1
0 0.719525 1
0.977533 1 0.0224673
0 0.652636 1
0 0.502217 1
0 0.644496 1
0.156593 1 0.843407
0 0.323672 1
0 0.403593 1
0 0.103405 1
0 0.596337 1
0 0.683418 1
0.114772 1 0.885228
0 0.493211 1
0 0.146838 1
0 0.945463 1
0 0.64368 1
0 0.804007 1
0.189832 1 0.810168
0 0.777787 1
0 0.918399 1
0 0.926166 1
0 0.445862 1
0 0.710223 1
0 0.74021 1
0 0.537967 1
0 0.226195 1
0 0.79799 1
0 0.829729 1
0 0.506828 1
0 0.407543 1
0 0.488267 1
0 0.14145 1
0 0.817824 1
0 0.363465 1
0 0.811084 1
0 0.749499 1
0 0.724072 1
0 0.297173 1
0 0.688275 1
0 0.743502 1
0 0.463121 1
0.0891081 1 0.910892
0 0.380765 1
0 0.384457 1
0 0.324773 1
0 0.45102 1
0 0.654636 1
0 0.580148 1
0.00558514 1 0.994415
0.666371 1 0.333629
0 0.517955 1
0 0.875078 1
0.0700268 1 0.929973
0 0.402898 1
0 0.529151 1
0 0.444622 1
0 0.91702 1
0 0.540757 1
0 0.667161 1
0 0.950142 1
0 0.307294 1
0 0.326512 1
0.342144 1 0.657856
0 0.414294 1
0 0.199395 1
0 0.180081 1
0 0.495893 1
0 0.614448 1
0 0.131279 1
0 0.657392 1
0 0.905396 1
0 0.944448 1
0 0.736932 1
0 0.502535 1
0 0.585781 1
0 0.96543 1
0 0.717432 1
0 0.247372 1
0 0.368627 1
0 0.393922 1
0 0.59542 1
0 0.686758 1
0.00991397 1 0.990086
0 0.574632 1
0 0.86253 1
0 0.293767 1
0 0.852056 1
0 0.584204 1
0 0.846136 1
0 0.227725 1
0 0.342734 1
0 0.726732 1
0 0.556857 1
0 0.405609 1
0 0.594611 1
0 0.944077 1
0 0.557767 1
0 0.340562 1
0 0.94242 1
0 0.108112 1
0 0.899598 1
0 0.404468 1
0 0.44009 1
0 0.344926 1
0 0.83736 1
0 0.358606 1
0 0.598011 1
0 0.314825 1
0 0.286333 1
0 0.478727 1
0 0.866476 1
0 0.344083 1
0 0.783662 1
0.192537 1 0.807463
0 0.532882 1
0 0.881609 1
0 0.130092 1
0 0.796219 1
0 0.379333 1
0 0.240294 1
0 0.378664 1
0 0.859003 1
0 0.770718 1
0 0.633201 1
0 0.617643 1
0 0.734692 1
0 0.475876 1
0.243889 1 0.756111
0 0.384769 1
0 0.222042 1
0 0.813325 1
0 0.127541 1
0 0.497863 1
0 0.602791 1
0.207646 1 0.792354
0 0.173468 1
0 0.49888 1
0.158799 1 0.841201
0 0.70055 1
0.0892856 1 0.910714
0 0.367305 1
0 0.914396 1
0 0.269992 1
0 0.722141 1
0 0.522698 1
0 0.662132 1
0 0.390558 1
0 0.367857 1
0 0.669825 1
0.17263 1 0.82737
0.0880482 1 0.911952
0.110314 1 0.889686
0 0.627772 1
0 0.333342 1
0 0.384669 1
0 0.872573 1
0 0.66973 1
0.177918 1 0.822082
0 0.901316 1
0 0.594111 1
0 0.686047 1
0 0.356589 1
0 0.583003 1
0 0.58065 1
0 0.509545 1
0.224425 1 0.775575
0 0.851586 1
0.140723 1 0.859277
0 0.294452 1
0 0.722461 1
0 0.334039 1
0 0.344226 1
0 0.494471 1
0 0.55604 1
0 0.745301 1
0 0.708921 1
0 0.422223 1
0 0.654854 1
0.209795 1 0.790205
0.0398459 1 0.960154
0 0.733111 1
0.311364 1 0.688636
0.114924 1 0.885076
0 0.515856 1
0 0.914506 1
0 0.923285 1
0 0.367466 1
0 0.643379 1
0.039188 1 0.960812
0 0.934104 1
0.489942 1 0.510058
0 0.999734 1
0 0.827999 1
0 0.44418 1
0 0.895977 1
0 0.484288 1
0 0.372609 1
0 0.739027 1
0 0.454898 1
0 0.751874 1
0 0.659734 1
0.120248 1 0.879752
0.0238621 1 0.976138
0 0.556481 1
0 0.778666 1
0 0.254373 1
0 0.447098 1
0 0.378805 1
0 0.92359 1
0.034901 1 0.965099
0 0.45848 1
0 0.422979 1
0 0.37164 1
0 0.557586 1
0 0.576258 1
0.11418 1 0.88582
0.256661 1 0.743339
0 0.79096 1
0 0.805847 1
0 0.346328 1
0 0.88622 1
0 0.838023 1
0.113641 1 0.886359
0 0.501183 1
0 0.925223 1
0 0.912698 1
0 0.680999 1
0 0.746538 1
0.450829 1 0.549171
0 0.634372 1
0.167801 1 0.832199
0 0.487762 1
0 0.828383 1
0 0.888698 1
0.10323 1 0.89677
0 0.561748 1
0 0.30448 1
0 0.782135 1
0 0.594565 1
0.130811 1 0.869189
0 0.653949 1
0 0.532546 1
0 0.529622 1
0.174602 1 0.825398
0 0.539203 1
0 0.754454 1
0 0.254354 1
0 0.485352 1
0 0.917203 1
0 0.786821 1
0 0.53788 1
0 0.184007 1
0 0.805493 1
0 0.885685 1
0 0.39705 1
0 0.551154 1
0 0.241686 1
0 0.830165 1
0 0.712323 1
0 0.754956 1
0 0.703937 1
0 0.929797 1
0 0.685305 1
0 0.932635 1
0 0.576064 1
0 0.430506 1
0 0.30296 1
0 0.729952 1
0 0.97344 1
0 0.438062 1
0 0.665024 1
0 0.743892 1
0 0.413665 1
0 0.588513 1
0 0.607955 1
0 0.53125 1
0 0.818366 1
0 0.962888 1
0 0.48943 1
0 0.619901 1
0 0.48923 1
0 0.357888 1
0 0.404519 1
0 0.576581 1
0 0.790279 1
0 0.414558 1
0 0.518583 1
0.118378 1 0.881622
0 0.896211 1
0 0.662586 1
0 0.744539 1
0 0.932557 1
0 0.351876 1
0 0.755087 1
0 0.326929 1
0.0245625 1 0.975437
0 0.398568 1
0 0.689912 1
0 0.491565 1
0.217208 1 0.782792
0 0.76191 1
0.312566 1 0.687434
0 0.701667 1
0 0.879416 1
0 0.267041 1
0 0.779891 1
0 0.708922 1
0 0.611877 1
0 0.359014 1
0.152389 1 0.847611
0 0.681596 1
0 0.648457 1
0 0.569603 1
