# vtk DataFile Version 3.0
Particle simulation
ASCII
DATASET POLYDATA
POINTS 400 float
7.11898 4.64841 2.06523
0.808644 2.32527 4.83299
8.23895 4.64031 9.8177
8.14466 6.64063 0.905879
7.48858 6.79212 1.99207
9.94184 9.16936 7.86524
5.7613 0.456216 4.16343
4.38006 2.04665 8.60716
2.52288 2.97445 2.89607
0.188658 0.686533 5.26062
0.640672 1.66207 5.87907
3.4744 7.60218 8.40441
7.8329 8.65921 4.95318
7.12554 9.07884 5.52333
0.177077 6.73049 7.97847
0.327599 9.66024 7.40512
5.01249 4.23293 6.38118
6.10072 1.02237 4.85499
6.82464 7.31544 5.34006
1.77379 8.78496 1.91657
1.09509 7.94963 2.40282
8.50239 6.01768 3.16314
0.505003 5.25356 8.94818
3.61512 5.36272 0.464963
7.76427 5.42665 8.47496
5.40798 6.73605 0
8.22714 2.63281 6.60096
9.0815 3.89986 2.04027
8.75982 2.81735 6.52967
0.846854 1.65605 9.50941
3.25026 1.09584 2.88594
8.715 1.02516 8.08645
3.72881 5.41785 8.18093
2.96828 5.9503 7.97332
8.39006 5.734 5.53507
0.809332 4.04936 0.305292
7.05303 7.92497 9.11119
0.570716 2.54804 3.96553
5.42267 2.24599 7.96555
8.21645 9.174 6.52234
4.08018 7.17671 2.61789
1.4251 3.92575 8.45827
9.29427 2.88517 6.33581
3.3259 1.12097 1.37407
2.8962 6.12772 7.57159
1.41793 1.84703 0.861018
3.25163 5.42811 0.945006
2.32982 3.08752 5.41299
3.85137 3.98996 6.339
8.38214 9.46094 7.3696
2.78452 7.19628 0.0944033
3.45646 5.98806 1.96448
0.044022 1.26878 0.265376
0.998415 7.9403 0.470177
6.83228 8.89066 6.22185
7.59326 7.34218 1.90992
9.40971 9.04385 1.53273
0.442689 0.560809 1.45969
4.36437 3.615 5.45755
3.49651 6.67337 1.14875
7.65713 5.84309 7.23613
0.193596 4.91434 7.01659
8.82433 5.51381 9.32574
8.49785 3.31362 7.53901
8.40075 10 1.1509
3.29006 8.777 1.74128
6.51047 4.85494 0.315767
6.05751 3.95859 7.24471
7.88139 0.398633 5.26679
7.37057 2.99515 6.29006
2.16723 4.9271 10
0.505635 8.26887 5.36692
2.6776 0.628743 8.72751
0.565105 8.89082 1.43755
3.03554 3.87385 5.76372
6.53022 5.94131 2.91102
3.12709 5.38125 7.5102
9.26472 9.06538 7.02709
6.49521 3.73567 8.76273
3.82186 0 1.31444
2.20153 7.49041 0.0866457
6.69158 0.485414 5.64831
9.48759 8.87345 7.2882
3.78481 8.52917 2.29565
2.51818 4.93589 2.80299
3.38923 1.46911 4.28416
4.06032 4.54941 7.54857
2.48064 0.978858 6.93757
9.74999 6.52282 7.50131
0.696908 1.64691 5.18792
5.17218 6.27091 8.80714
3.9902 4.35161 5.65556
0.735154 6.18479 7.16981
6.84414 9.58478 2.60477
8.73039 1.47664 3.78111
0.598663 7.51874 8.03181
7.42502 6.19969 7.59138
5.60202 0 9.07671
9.75538 4.15636 4.2846
2.91086 1.54509 8.08634
0.212924 0.663307 0.982949
7.72685 7.02607 7.16113
5.91529 0.0501211 6.91842
2.62822 7.13588 7.51813
0 1.72869 2.26688
4.63247 2.75871 5.93592
0.404916 10 6.84558
3.52334 3.30538 9.48822
8.61923 6.91389 4.36568
1.81824 0.551392 5.13799
3.4987 5.59265 1.44619
8.39188 1.8545 1.6392
9.32571 8.47401 0
5.35668 3.18011 5.18581
1.89934 5.45291 9.3889
8.36258 3.15867 8.91691
3.29596 1.46332 6.41671
9.34113 3.82605 2.39367
2.49289 2.81957 6.778
2.1138 5.54687 7.90795
8.9889 5.93707 8.70955
6.83955 3.66007 0.317693
9.53072 0.513188 9.08889
7.89776 10 6.01377
8.28568 10 3.63008
0.943945 1.38019 7.40692
4.57814 2.32584 4.86879
1.79998 1.14309 9.58095
0 9.4103 8.3711
8.53463 5.63875 6.25204
9.83599 7.67241 1.77796
7.70793 0.895156 5.84012
6.93929 5.31631 2.39149
7.31666 6.19761 8.58772
0.692075 5.42677 8.91366
2.89861 5.60494 9.21314
9.06325 8.16968 8.49914
9.25608 8.62533 4.21779
1.72619 0.343257 5.15071
2.13199 5.73639 1.25147
5.76645 0.392696 5.42727
0.566259 1.1938 1.41832
8.26608 4.95304 0
0.759153 5.24841 8.33324
3.21269 0.36901 3.7782
3.05385 1.50241 8.87595
0.132022 9.53299 3.87431
2.97451 8.76286 1.22127
6.9801 7.08225 9.47313
4.3396 0.0883352 0.361402
5.93001 0.350383 5.31883
7.60832 4.47722 6.57375
6.43808 7.50982 4.62375
9.41724 4.57939 4.59892
7.10664 1.17336 4.95791
0.840308 9.08297 2.11892
10 7.10577 1.63074
3.87693 4.61941 9.92297
8.60311 0.635621 8.92384
7.95532 6.52786 2.16648
10 3.97091 5.48724
8.0623 3.91048 7.01916
2.33737 1.61885 8.35043
9.13619 6.62241 9.6077
3.42915 9.84582 5.45407
6.19317 0.101354 2.81343
4.07313 7.5491 8.08306
4.65911 0.252581 0.358582
9.68835 6.04003 6.45665
8.44361 5.4891 0.415824
1.85571 2.86667 0.176757
5.85514 4.79515 2.02809
8.83942 0.938886 1.68528
6.78345 9.21854 9.78494
4.35257 0.550851 9.06541
6.05581 5.66777 1.17626
7.69465 1.56619 7.26499
1.70458 1.72494 8.40003
8.92374 4.8311 8.11838
2.17811 0.475606 6.84475
8.38508 0.42529 8.04139
1.67358 3.30619 3.61793
9.48095 8.61846 4.25334
5.78852 3.8356 4.53811
8.60422 3.0202 0
5.02427 6.50647 8.94216
6.0191 0.303333 5.40851
8.47426 0.742851 8.49109
6.45822 9.47794 0.336274
8.60655 4.90373 5.95808
4.68299 5.58852 4.25465
2.52721 6.11851 5.83602
0.500162 8.08678 7.3593
7.58685 3.64381 1.06945
2.40744 1.66594 7.87573
6.92877 6.97233 6.72182
0.614521 4.22666 5.54231
5.51619 9.58763 0.154085
9.75585 1.85339 9.32481
3.7653 7.54559 9.04545
5.93612 0.361724 5.3269
3.81903 3.78965 2.96609
1.74386 1.70084 6.36177
9.51427 3.0961 0.382786
5.4137 7.93742 9.25908
9.58946 0.175956 1.57246
3.10856 3.38979 3.35629
2.85724 4.19535 2.36301
1.11256 9.14385 1.38171
9.34698 2.73759 8.33098
5.79024 0.65808 5.47212
5.85989 4.38913 2.73559
5.79435 3.63672 5.40497
1.24566 2.41857 1.78287
9.73243 2.27272 7.55414
5.62114 9.52116 3.34182
7.63641 0.361902 4.82826
2.42505 5.68983 4.23912
0 3.04168 6.04594
10 7.62491 0
8.21412 9.37991 7.60577
6.51919 10 4.74058
6.31222 9.12453 9.82974
7.87791 0.510876 4.73089
6.71587 0.372973 3.30748
1.89492 8.85139 7.1844
2.92724 9.57672 2.66257
3.95099 3.08006 7.02881
5.77115 0.543265 5.29503
7.20244 0.893348 1.11603
3.962 8.56613 6.04067
0.8056 6.09438 4.74027
2.77178 7.76592 5.99999
3.65336 3.3968 7.16892
1.67924 2.81602 0.884392
6.48762 2.14886 10
8.05911 0 4.75653
7.42216 3.73638 8.98811
5.85282 0.336302 5.32488
3.77983 6.37282 2.6607
7.79347 0.303472 4.717
2.09169 4.99423 4.56177
0.618007 0.118586 1.91348
0.990134 8.12781 0.550053
9.51316 4.09552 5.33022
7.92507 5.11508 6.12458
9.88258 5.08133 8.89455
0.75092 0.195666 8.79646
1.96737 8.76115 6.04261
9.86676 0.690804 2.94098
7.67599 0.247094 4.86634
9.87238 2.20284 7.65744
0.0991197 3.0403 9.64
4.10258 0.855237 7.93594
0.421774 4.85888 0.745667
8.21223 9.14404 8.34191
9.85433 5.293 4.08126
2.6119 0.110028 9.06991
1.64194 1.91384 8.75178
1.46985 8.88803 3.43288
6.03884 5.48566 3.04588
0.353011 6.74445 7.74143
1.26111 4.07178 7.40009
4.47767 5.88913 4.86471
8.10758 7.59998 5.94899
5.9908 4.24427 4.98625
1.11727 1.50283 2.93172
0.463689 1.82546 1.41893
3.50756 5.26398 2.2267
0.678161 3.32345 8.28982
5.98127 0.237406 5.23223
7.56845 0.968769 4.31946
9.41606 0.210084 7.58275
0.599611 7.73423 5.19702
1.50521 9.89373 4.76
6.69553 1.44968 5.20061
6.53837 7.81689 3.39285
3.71626 3.80516 2.49636
2.33602 0.720424 3.80378
6.05134 0.479426 4.99979
5.81872 3.01756 6.3573
0.672215 2.99046 6.36588
4.10646 8.91729 7.47776
8.58594 2.82702 3.22879
1.27157 2.33274 9.40489
1.29899 7.77458 1.65695
4.95649 0.763278 5.49939
10 10 2.80023
3.14399 3.40448 7.48553
0.453271 0 5.84311
2.79523 0.304674 3.01691
1.13673 4.58737 7.24429
7.43584 1.74072 4.67146
7.8317 3.4129 2.38006
2.80891 4.32047 6.05368
1.0394 0.0919208 8.59143
6.13784 0.43426 4.95674
6.16 0.415474 5.29213
6.04137 0.791551 4.92724
6.24303 0.406677 5.50456
2.73194 5.06469 1.31761
0.319002 2.93302 7.20345
6.13484 0.484235 5.2371
2.95213 4.18047 1.01207
5.60189 0.306951 5.63511
2.31664 8.79295 8.20155
5.90691 0.342578 5.28507
6.02222 0.431845 5.29668
8.82364 3.48832 1.50768
0.875 3.38841 5.96592
1.73394 7.16601 7.4645
0.220379 9.80107 3.8112
2.02733 1.07935 8.64623
7.05293 0.440248 6.20778
3.10676 10 6.00622
7.99896 7.65661 6.25557
6.27228 9.70537 7.5521
6.73815 8.86202 4.19635
0.412606 5.3302 8.92342
2.46667 1.54092 6.08322
9.66806 7.45312 1.36643
7.27953 9.63284 2.16354
0.801502 0.170356 8.50138
5.91788 0.484439 5.34449
6.07372 0.932468 6.2528
1.53974 6.95756 2.77477
6.34889 0.252521 5.20583
0.958032 9.80639 3.82821
3.07164 0.347417 8.52829
5.82811 0.539565 5.68146
3.3326 5.60593 8.6485
0.945486 5.88786 3.45664
8.15101 4.02547 4.66645
9.02659 0.340905 8.92662
6.4953 5.66001 7.40806
1.97768 0.395184 10
8.1385 5.71577 6.34592
6.01096 0.420942 5.30542
5.1771 1.49179 5.37588
10 2.88005 8.47583
6.60031 9.23039 0.421044
7.63176 5.24779 1.61404
6.69201 3.26684 9.89036
1.01031 0.296584 8.44822
6.17395 0.386994 5.62904
5.65675 0.936922 6.25123
9.54688 0.567877 8.13194
5.84747 0.386247 5.06992
5.66905 0.468912 5.27871
6.21643 7.23976 9.84771
5.70139 0.899011 5.74209
6.0154 0.672933 4.95002
7.13025 7.2534 0.807683
9.65536 5.61443 6.00166
0.563192 0.726692 5.86055
5.83129 0.489352 5.47861
2.59736 4.36909 8.4024
7.33116 3.56572 1.82796
5.67977 0.504112 5.65515
5.79962 0.280953 5.61326
6.91855 5.15 1.17545
1.01988 0.120952 8.49124
1.03082 0.0732356 8.64902
5.40172 0.318476 5.5008
6.14686 0.344974 5.6781
7.10286 8.08086 2.99546
0.896202 0.129537 8.61884
9.02069 0.464942 1.79584
0.628346 0.259429 8.68348
3.2094 1.44307 3.4345
9.52374 0.5697 8.26654
6.02019 0 8.65279
0.788812 6.23607 0.590491
6.3983 0.735934 5.13254
6.07852 0.578225 4.98211
9.8547 0.635387 7.93182
0.777587 0.146635 8.62428
3.0804 0.23638 8.50769
7.09371 2.61359 8.49058
7.52867 0.526936 4.94819
5.98737 0.52602 5.06369
5.7788 0.619364 5.41351
4.80436 1.30627 6.60401
5.56751 0.0502053 5.52061
10 5.21814 5.54948
1.02992 0.105516 8.59183
6.15116 0.478937 5.28128
6.26879 0.583959 5.44835
0 6.0347 3.30663
0.534605 4.10649 5.56308
5.80231 0.427202 5.22476
5.59951 0.842159 5.58134
3.0139 0.267997 8.809
5.7665 0.14999 5.3373
9.09713 3.35353 5.58855
2.87433 0.192336 8.75026
5.86626 0.378448 5.20429
3.26901 0.590652 7.79103
1.56748 4.3448 6.39371
1.30514 8.69609 3.45319
POINT_DATA 400
SCALARS particleColor float 3
LOOKUP_TABLE default
1 5.96046e-08 0
1 5.96046e-08 0
0.649815 1 0.350185
0 0.611646 1
1 5.96046e-08 0
1 5.96046e-08 0
1 0.615191 0
0.669307 1 0.330693
1 5.96046e-08 0
0.369814 1 0.630186
1 0.946548 0
0.802874 1 0.197126
0.417088 1 0.582912
1 0.0268191 0
1 0.609116 0
1 5.96046e-08 0
1 5.96046e-08 0
0 0.362134 1
1 0.718484 0
0.421881 1 0.578119
1 5.96046e-08 0
1 5.96046e-08 0
1 5.96046e-08 0
0.67892 1 0.32108
1 0.990785 0
1 0.0186102 0
1 5.96046e-08 0
0.829536 1 0.170464
1 0.983551 0
0 0.949865 1
0.402637 1 0.597363
1 0.237384 0
1 5.96046e-08 0
0.36627 1 0.63373
1 5.96046e-08 0
0.581041 1 0.418959
0.377801 1 0.622199
1 0.445289 0
0.00659399 1 0.993406
0.00257808 1 0.997422
1 5.96046e-08 0
1 5.96046e-08 0
1 5.96046e-08 0
1 0.259905 0
0.672038 1 0.327962
1 0.649287 0
1 5.96046e-08 0
0.664212 1 0.335788
1 5.96046e-08 0
1 5.96046e-08 0
1 0.0938786 0
1 5.96046e-08 0
1 0.821455 0
1 0.0135349 0
0.720079 1 0.279921
1 0.937987 0
1 5.96046e-08 0
0.263314 1 0.736686
1 0.491619 0
0 0.863436 1
0.485272 1 0.514728
0.336721 1 0.663279
1 5.96046e-08 0
1 5.96046e-08 0
1 5.96046e-08 0
0 0.645363 1
1 5.96046e-08 0
1 0.681116 0
1 5.96046e-08 0
0.810318 1 0.189682
0.621108 1 0.378892
1 5.96046e-08 0
0.413524 1 0.586476
1 0.841987 0
0.462985 1 0.537015
1 0.739805 0
1 5.96046e-08 0
1 0.877254 0
0.421849 1 0.578151
1 5.96046e-08 0
0.636735 1 0.363265
0.687392 1 0.312608
0 0.437111 1
1 0.982382 0
0.977936 1 0.022064
0 0.671183 1
0.621971 1 0.378029
1 0.32021 0
1 0.88884 0
0.201809 1 0.798191
1 0.0440984 0
1 0.544128 0
1 0.0276237 0
1 0.775847 0
0 0.962836 1
1 5.96046e-08 0
1 5.96046e-08 0
0.955211 1 0.0447893
0 0.854371 1
1 5.96046e-08 0
1 0.132648 0
0.910526 1 0.0894745
0.118585 1 0.881415
1 5.96046e-08 0
1 0.285321 0
1 5.96046e-08 0
0.486013 1 0.513987
0.334004 1 0.665996
0.25626 1 0.74374
0.800263 1 0.199737
1 0.600176 0
0.794499 1 0.205501
1 0.777805 0
1 0.318548 0
0 0.878503 1
0.986928 1 0.013072
1 0.126638 0
0 0.918717 1
1 5.96046e-08 0
0.362753 1 0.637247
0.0260209 1 0.973979
1 5.96046e-08 0
0.560945 1 0.439055
1 5.96046e-08 0
0.935761 1 0.0642392
1 5.96046e-08 0
0.94218 1 0.05782
1 0.667777 0
1 5.96046e-08 0
1 5.96046e-08 0
0.508821 1 0.491179
1 0.67205 0
0 0.828493 1
1 5.96046e-08 0
1 0.252725 0
0 0.968871 1
1 5.96046e-08 0
0.963395 1 0.0366048
0 0.569808 1
1 5.96046e-08 0
0 0.719909 1
1 5.96046e-08 0
0.0988443 1 0.901156
1 5.96046e-08 0
1 5.96046e-08 0
1 0.815506 0
0.552126 1 0.447874
1 5.96046e-08 0
1 0.375431 0
1 0.246666 0
0 0.610352 1
0.0941201 1 0.90588
1 5.96046e-08 0
1 0.459535 0
0.728251 1 0.271749
1 0.920665 0
1 0.837231 0
1 0.59387 0
0.220533 1 0.779467
1 0.677832 0
0.96264 1 0.0373598
1 5.96046e-08 0
1 0.279181 0
0.758442 1 0.241558
0.743374 1 0.256626
0 0.944358 1
1 5.96046e-08 0
1 0.39798 0
0.743164 1 0.256836
0 0.951869 1
0.96186 1 0.0381403
1 5.96046e-08 0
1 0.0164762 0
1 5.96046e-08 0
1 5.96046e-08 0
1 5.96046e-08 0
1 0.0166254 0
0.865548 1 0.134452
1 0.254594 0
1 5.96046e-08 0
0.714103 1 0.285897
0.775943 1 0.224057
1 0.794707 0
1 5.96046e-08 0
1 0.119942 0
1 5.96046e-08 0
0 0.316662 1
0.290814 1 0.709186
1 5.96046e-08 0
1 5.96046e-08 0
1 0.863154 0
1 5.96046e-08 0
0.583073 1 0.416927
0.881486 1 0.118514
1 5.96046e-08 0
1 5.96046e-08 0
0.213149 1 0.786851
1 0.40822 0
0 0.606254 1
1 0.298962 0
0 0.477194 1
1 5.96046e-08 0
1 0.678991 0
1 5.96046e-08 0
1 5.96046e-08 0
0.495906 1 0.504094
1 5.96046e-08 0
1 5.96046e-08 0
0.454739 1 0.545262
1 0.176329 0
0 0.726199 1
1 0.328107 0
1 5.96046e-08 0
0 0.768241 1
1 0.394963 0
0.68711 1 0.31289
0 0.69781 1
0.891627 1 0.108373
1 5.96046e-08 0
1 5.96046e-08 0
1 5.96046e-08 0
1 5.96046e-08 0
1 0.417306 0
0 0.647327 1
0.791538 1 0.208462
1 0.340463 0
1 0.321851 0
0 0.538183 1
0 0.447905 1
1 0.0187024 0
0.066407 1 0.933593
0.89683 1 0.10317
0.0612781 1 0.938722
0.7596 1 0.2404
1 0.849325 0
0.11127 1 0.88873
1 0.851622 0
1 5.96046e-08 0
0 0.467262 1
1 5.96046e-08 0
0 0.488013 1
1 5.96046e-08 0
1 5.96046e-08 0
1 0.548439 0
0.380127 1 0.619873
0.592796 1 0.407204
0.226274 1 0.773726
1 0.504234 0
0.800917 1 0.199083
0.804957 1 0.195043
0 0.511104 1
1 0.896003 0
1 5.96046e-08 0
1 5.96046e-08 0
1 5.96046e-08 0
1 5.96046e-08 0
0.851167 1 0.148833
0 0.239938 1
1 0.0703437 0
1 5.96046e-08 0
1 0.880011 0
1 5.96046e-08 0
1 5.96046e-08 0
1 5.96046e-08 0
0.362847 1 0.637154
0.606795 1 0.393205
0.282775 1 0.717225
1 5.96046e-08 0
1 0.120347 0
1 0.875911 0
0.204158 1 0.795842
0.283258 1 0.716742
1 5.96046e-08 0
0 0.969443 1
1 0.143977 0
0 0.917699 1
1 0.521259 0
1 5.96046e-08 0
0.805144 1 0.194856
0 0.614659 1
1 5.96046e-08 0
1 5.96046e-08 0
0.374444 1 0.625556
1 0.426546 0
0.915011 1 0.0849888
0.860182 1 0.139818
0 0.971049 1
1 5.96046e-08 0
1 0.173584 0
0 0.865847 1
1 5.96046e-08 0
1 0.811717 0
1 0.808825 0
0.836614 1 0.163386
1 5.96046e-08 0
0 0.404862 1
0 0.409903 1
0 0.623408 1
0 0.606702 1
0 0.728286 1
1 0.577026 0
1 5.96046e-08 0
0 0.641037 1
1 0.201137 0
0 0.984207 1
1 0.733109 0
0 0.723891 1
0 0.274825 1
1 0.932415 0
0.660134 1 0.339866
0 0.436666 1
1 5.96046e-08 0
1 0.848572 0
0 0.571604 1
1 5.96046e-08 0
1 0.0740804 0
1 0.20478 0
0.939817 1 0.060183
0.651584 1 0.348416
1 5.96046e-08 0
1 5.96046e-08 0
0 0.927113 1
0 0.800645 1
0 0.208706 1
0 0.607962 1
0 0.926744 1
0 0.974433 1
1 5.96046e-08 0
0.1479 1 0.8521
0 0.173665 1
0.875576 1 0.124424
1 0.940708 0
0.666051 1 0.333949
1 0.402313 0
1 5.96046e-08 0
1 5.96046e-08 0
0.891904 1 0.108096
0 0.37327 1
1 5.96046e-08 0
0.827007 1 0.172993
1 5.96046e-08 0
0.415509 1 0.584491
1 5.96046e-08 0
0 0.639809 1
0 0.780497 1
0 0.325744 1
0 0.786624 1
0 0.949713 1
0.0624337 1 0.937566
1 0.216259 0
0 0.618844 1
0 0.87348 1
1 0.962472 0
1 0.214737 0
0.713011 1 0.286989
0 0.922304 1
1 0.79759 0
1 5.96046e-08 0
0.0226609 1 0.977339
0 0.604816 1
0 0.957792 1
0 0.570572 1
0 0.575381 1
0 0.272633 1
0 0.401314 1
1 0.589088 0
0 0.405934 1
1 5.96046e-08 0
0.314437 1 0.685563
1 5.96046e-08 0
0.449521 1 0.550479
1 0.838843 0
0.65978 1 0.34022
0 0.797361 1
0 0.804908 1
0 0.504162 1
0 0.312498 1
0.115524 1 0.884476
0.853591 1 0.146409
0 0.49632 1
0 0.728468 1
0 0.514286 1
1 5.96046e-08 0
0 0.391403 1
1 5.96046e-08 0
0 0.328134 1
0.0405694 1 0.959431
0 0.548612 1
1 5.96046e-08 0
0.651234 1 0.348766
0 0.888794 1
0 0.185907 1
0 0.717277 1
0 0.828639 1
0.329818 1 0.670182
0 0.637513 1
0 0.755464 1
1 0.530442 0
0.538287 1 0.461713
0.832567 1 0.167433
