# vtk DataFile Version 3.0
Particle simulation
ASCII
DATASET POLYDATA
POINTS 400 float
8.12913 2.45322 9.80154
0.65745 1.62328 4.15581
0.0720022 2.43957 3.8318
2.7926 0.664381 1.7281
9.86882 0.222109 3.44687
4.58328 6.7223 6.31626
7.33356 3.27428 3.10129
5.63557 5.31696 0.332804
9.64089 5.91282 1.3925
6.56679 0.383492 4.57117
5.44152 1.81804 0.227411
3.50902 0.39048 2.45582
9.53568 9.78618 6.98942
4.26369 0.667499 0.717592
5.3245 2.7875 2.15924
9.58037 2.53005 7.99131
2.28995 6.59603 0.454749
3.01766 0.676854 2.35296
0.0445686 4.52041 8.02794
6.82952 0.412829 4.28282
3.86569 0.545506 2.71659
2.85365 0.15746 4.30377
5.34803 5.9447 6.35263
6.18684 1.08868 4.20563
1.00105 7.57353 7.50866
3.55612 0.919908 2.31956
4.30462 0.911093 4.83839
3.79191 0.441641 3.08286
9.35371 0.310247 9.16313
2.6892 0.445857 1.48169
9.24098 9.24904 7.1779
9.5403 0.0341351 0.920718
6.84089 0.701133 8.73873
6.16884 1.14163 4.28874
2.53255 1.37369 2.14714
0.338649 1.38434 0.870013
7.51343 0.556379 8.43394
2.2541 0.325769 1.67872
6.58883 0.924654 0.843736
3.34408 2.23363 2.351
5.56094 0.462467 3.86595
8.58027 6.0629 4.94697
5.3222 9.68558 7.01342
4.71159 0.307343 6.42643
7.17247 0.274986 7.05695
6.33301 0.582006 1.94086
4.88585 1.53338 9.37044
2.14408 0.315004 1.86905
5.85878 0.372644 1.82988
2.19516 9.81717 9.7871
0.353888 3.96835 2.76066
7.80407 7.43148 4.93186
7.49516 0.225305 7.87764
6.97017 0.394822 4.75384
8.57018 0.282602 7.85399
6.15727 0.674233 1.91471
5.81719 0.651019 9.05505
2.16033 0.613589 2.60903
5.87928 0.37968 1.73466
1.49216 4.64493 7.12343
8.896 3.14869 6.607
4.90296 0.140834 9.0985
4.08497 0.4642 2.1183
6.63069 0.301487 4.53215
7.42764 2.64339 2.81312
5.7732 1.22147 2.00519
7.31612 0.153041 7.15821
0.32849 4.2859 2.58175
6.38587 0.30326 1.77072
5.50413 0.325197 8.68682
4.74371 0.0482293 9.53907
2.5856 0.534226 2.98255
10 2.59674 1.61724
6.59358 0.294947 4.47574
6.67123 0.845634 8.89273
6.88672 0.358517 8.15972
7.3348 0.178984 7.15972
4.76991 0.729033 8.0225
5.71235 0.209291 2.38342
1.44873 1.92729 6.86493
2.54237 0.386464 1.64753
2.68793 0.261497 2.23048
2.82744 0.979964 1.47363
3.07735 0.793593 1.25697
5.18489 0.229643 9.23042
5.20992 0.357956 8.89598
5.67095 0.0761347 9.12123
8.8005 0.560889 0.815583
5.9643 1.58736 0.490475
9.46826 0.22685 1.57372
2.36491 0.137036 1.77649
3.04708 0.070475 0.132754
0.17119 2.60517 9.45804
3.07578 0.828788 1.24705
5.13052 0.231843 9.2078
5.26886 0.366808 8.96996
4.73339 1.02307 10
2.71014 0.348148 3.21235
5.41045 0.365651 6.49962
9.50964 0.185444 1.56086
1.98705 0.115655 0.570949
6.30543 0.259021 6.42936
0.350392 1.62297 0.748165
7.73609 0.459879 6.86462
6.98234 2.47643 1.22709
2.49973 0.640095 1.64638
4.33835 1.37868 9.98465
6.07568 0.650671 1.96183
5.99228 0.389338 1.91761
9.26208 0 1.19317
0.37528 2.04618 4.14889
6.18399 0.351141 4.42621
3.32052 0.25545 2.67776
9.38138 0.32353 1.58192
2.29426 0.519007 1.55209
3.05113 0.417129 1.09577
5.13337 0.392935 7.91258
6.2902 0.267607 2.93499
5.96848 0.421356 1.87087
0.935062 0.664607 0.845229
2.42302 0.314844 1.71576
9.76298 3.50638 1.15546
7.12692 4.22776 9.21512
4.712 0.29549 8.82588
8.16081 0 6.43151
2.30738 0.579711 1.53861
2.46754 0.437364 2.35274
6.61331 0.149548 4.74246
0.165763 1.59031 5.77583
1.89601 0.767658 2.57584
2.349 0.219014 1.60837
5.93345 1.29703 2.33417
5.3535 0.125003 8.60619
7.32381 0.178071 7.09581
0.217236 0.385525 4.31692
1.73606 0.160899 2.80722
5.4295 5.84849 6.62588
6.67727 0.19276 4.75081
5.53716 0.0533598 7.73437
7.64347 0.365567 7.64532
2.81711 0.668675 1.62068
8.44859 0.315787 7.97694
1.28508 1.59323 9.77353
0.849241 0.993702 0.843646
2.35352 0.207992 1.78491
2.60309 0.338377 2.49443
7.31111 0.0453758 6.86453
1.44049 1.4929 3.25103
2.22519 0.346123 2.76422
1.29193 0.967655 3.02959
2.82501 0.65242 1.60023
7.81065 0.265038 7.62508
2.41916 1.71676 0.833066
4.48973 1.08937 9.953
3.27433 3.43582 0.432072
2.74336 0.408173 2.20238
8.14685 0.143759 7.17091
2.76535 0.272788 1.5847
7.44323 0.208335 7.24617
3.5027 0.534021 2.36967
0.319141 1.38289 0.775514
0.178564 2.34323 3.60094
4.86708 0.118882 8.95068
1.83146 0.429049 2.50304
0.254826 3.83378 2.80135
7.99532 0.290894 7.64006
4.54486 0.198927 7.68539
5.305 0.270168 7.73533
6.3817 4.10945 8.33184
6.51461 2.37758 0.545823
3.10659 0.0807947 1.51321
2.9289 0.138703 2.37556
6.18755 0.49615 6.80545
2.80279 1.39208 1.31869
2.01287 0.0634381 3.02051
0.62489 1.04345 0.676689
5.23309 0.579745 7.95294
5.15158 0.511585 8.27119
4.91929 0.153252 8.94433
3.76699 1.46223 4.64094
3.06257 0.737187 1.2017
1.94127 0.520016 1.79547
6.99805 4.28133 9.6549
2.35351 1.58061 0.960268
5.14996 0.0749235 8.51329
2.90281 0.463204 2.22401
2.08096 1.08222 2.38295
0.224787 2.8325 9.31409
5.25254 0.0501747 6.25848
3.09066 0.461691 1.71836
3.01248 0.692571 1.17495
1.90151 0.197496 2.89605
5.23635 0.466435 8.31801
2.3333 4.18085 3.02381
7.11538 8.9159 9.06442
3.14921 0.575769 1.29145
3.61332 0.51066 2.48079
4.18734 5.52294 9.08195
1.92059 0.268842 2.44335
3.18602 0.810751 1.24127
3.09807 0.278261 2.61533
6.29352 0.532587 1.53755
8.72289 0.354288 7.83739
4.88369 1.12575 10
9.69697 1.6134 9.27676
4.85271 0.397242 8.04366
2.22499 0.250381 1.93952
2.63196 0.299641 1.69993
3.09389 0.257654 1.18153
9.35914 0.449613 1.63603
2.98507 0.471969 1.15142
6.50304 0.301717 1.938
4.91447 0.228178 8.61409
8.26239 0.108623 7.72623
6.93382 0.554459 3.98992
4.90886 0.602447 7.98486
2.23615 0.230319 1.91278
2.8713 0.061663 2.10331
4.10574 0.65789 2.42052
9.34469 0.298276 1.36392
5.06559 6.40753 6.32279
9.10806 0.351176 7.60034
4.34802 1.39311 9.83884
2.325 0.271736 1.59085
5.26763 0.487086 7.91343
2.27476 0.630758 1.37936
5.81235 2.67478 2.14409
3.29874 0.241408 1.76593
2.01727 0.231974 1.38592
5.3656 0.190207 7.89128
6.95004 0.394732 4.73283
4.88478 0.660316 8.62495
7.46642 0.330032 7.22679
2.57409 0.500421 1.66489
5.14952 0.232621 8.37954
1.78881 0.140804 2.47274
7.4227 0.0722022 6.39522
3.31009 0.760757 2.51834
2.55038 0.309151 2.57618
3.74569 0.616751 0.739125
3.45632 0.620315 2.43839
2.9783 0.494631 2.48487
2.833 0.121252 1.91657
3.41186 0.228178 2.8124
4.97803 0.144494 8.20815
2.50629 0.558741 2.92388
2.33023 0.798055 1.68081
4.65644 0.414144 8.21112
5.7018 0.442626 1.65965
5.10147 0.422012 8.32916
2.94429 0.340745 2.19636
6.14654 0.119783 1.7809
5.33843 0.240817 8.38717
2.47294 0.413616 1.20345
7.49407 0.0483488 7.53664
2.40947 0.503195 1.51194
8.97336 0.535731 1.96138
4.9578 0.532825 8.23025
5.79312 0.441856 1.72172
5.11321 0.422239 8.24249
1.94183 0.397522 2.84355
4.64371 7.15814 6.73284
4.45807 1.17587 9.75987
6.44528 0.850095 2.88961
4.90313 0.324816 8.68895
3.11269 1.07765 6.29367
6.15523 1.19251 2.91792
4.8836 0.503652 8.50854
7.53151 0.176912 7.54958
2.91646 0.290337 2.38459
2.43298 0.59098 1.14306
7.90709 9.26663 5.24192
2.27308 0.143664 0.883892
6.18578 0.716883 3.03281
5.28826 0.165902 8.77683
4.32267 1.18262 9.58358
6.79643 0.24172 4.20783
3.62958 8.50746 8.07952
8.21277 0.24892 7.38112
3.15531 0.640284 1.30111
9.22707 0.450967 1.58304
6.06765 0.356407 2.24138
5.89267 0.200241 1.87508
6.43466 0.144753 4.86676
7.76615 0.0576583 6.7554
8.0417 0.38316 7.4536
2.64079 0.272041 1.5192
2.44401 0.651173 2.9571
7.73982 0.360639 7.57066
9.98043 2.26421 1.81423
8.85825 0.495122 1.61365
6.34627 0.448691 2.03562
2.01584 0.550455 1.19938
6.6608 0.259844 4.58268
5.45518 0.39213 7.8898
5.49975 0.510313 8.1946
1.84284 0.681984 2.58271
2.18477 0.982032 1.37658
2.0299 0.19921 2.84225
2.34965 0.530823 1.54687
9.44638 0.10018 1.30902
7.85222 0.153953 7.66725
3.16971 0.248296 1.78464
6.72219 0.258077 1.77429
2.49167 0.309631 2.36799
5.2355 0.453629 1.57915
3.11665 0.965299 2.59544
2.31134 0.353286 1.7419
2.89919 0.2991 1.55638
2.15846 0.132051 1.18899
6.88425 0.0387206 4.41531
7.61767 0.0436403 7.03125
7.18943 0.264767 7.01729
3.41732 0.33092 2.43825
2.7688 0.443199 2.27985
6.51588 0.198896 5.08936
2.22068 0.445805 2.17805
5.91701 0.418045 1.66785
6.0954 0.721201 1.82387
2.86755 0.592863 2.25591
5.68802 0.316055 8.03519
2.74033 0.887135 2.18014
4.90932 0.151063 8.24777
3.53287 0.562415 2.14334
9.66473 0.125425 1.74379
9.44121 0.671404 1.63388
3.2216 0.791878 1.45813
6.23368 0.350879 2.08253
8.57206 0.232543 1.40493
3.5498 0.58987 2.47456
5.59631 0.245864 7.95786
2.1788 0.368277 1.52807
4.69692 0.416761 8.48617
2.32641 0.668205 1.64064
9.1467 0.45982 1.8246
4.66554 1.02792 9.70485
1.53051 0.349402 2.34706
2.6649 0.518746 1.46545
8.8278 0.574131 1.81863
2.65432 0.450249 1.89549
5.33951 0.492008 8.0203
2.05636 0.461517 1.45508
5.34681 0.0308798 8.42992
4.4194 1.13143 9.92638
2.16267 0.201128 1.59677
2.39689 0.650871 1.40642
6.29109 0.439149 1.95174
2.49923 0.647896 3.04639
2.33808 0.579292 1.38512
1.92114 0.427997 2.89983
2.46702 0.334401 1.49558
2.7218 0.279163 1.91416
4.94717 0.375552 8.56314
4.49397 1.13699 9.95864
3.21059 0.763206 1.27057
3.47591 0.529867 2.43875
5.97466 0.544694 1.80101
5.57078 0.55436 8.12957
2.05632 0.689044 1.33743
2.58805 0.562602 1.60679
6.1285 0.293935 1.66211
7.73603 0.199221 7.67772
5.15579 0.168272 8.91138
3.83066 0.603544 2.59203
3.10308 0.518944 1.32637
7.12799 0.200444 7.07796
5.2998 0.411274 8.16002
5.79567 0 8.58454
5.33758 0.719724 8.50786
1.80988 0.372893 2.85677
6.13222 0.272484 1.65643
7.70332 0.23076 7.72742
5.43984 0.227341 8.87801
2.15199 0.640043 2.07403
2.87964 0.382597 3.33329
7.56311 0.278608 7.3968
5.11809 0.169734 8.43528
5.00442 0.754171 8.60948
5.50346 0.265789 8.30175
2.73185 0.208466 2.08025
2.53263 0.681616 1.55825
2.93661 0.767805 1.26986
5.16737 0.214672 8.47106
2.60644 0.465542 1.6035
6.5479 0.458992 4.68823
5.57225 0.411237 7.94352
2.54246 0.396772 1.4678
2.17567 0.370123 1.65202
5.93773 0.0782439 4.68299
6.15324 0.409508 1.97673
2.59053 0.65579 1.55332
3.14321 0.767507 1.27809
5.43491 0.305625 8.67087
2.64925 0.158778 1.94801
6.54008 0.451463 4.68846
4.72601 1.21113 9.88365
2.52224 0.478727 1.44478
2.15521 0.250176 1.96244
9.63496 0.399535 1.99716
6.14307 0.372251 1.9939
POINT_DATA 400
SCALARS particleColor float 3
LOOKUP_TABLE default
0 0.412118 1
0 0.902126 1
0 0.394749 1
0 0.344001 1
0 0.35947 1
0.432745 1 0.567255
0 0.41966 1
0 0.625685 1
0 0.83876 1
0 0.699782 1
0.038251 1 0.961749
0 0.943411 1
0.0436676 1 0.956332
0 0.806683 1
0 0.836896 1
0 0.563118 1
0 0.214039 1
0 0.365207 1
0.109849 1 0.890151
0 0.554321 1
0 0.512728 1
0.511867 1 0.488133
0.218269 1 0.781731
0 0.503665 1
1 5.96046e-08 0
0 0.95645 1
1 0.434589 0
0 0.536663 1
0.0529812 1 0.947019
0 0.913094 1
0.503328 1 0.496672
0 0.500427 1
0.221553 1 0.778447
0 0.782407 1
0 0.505553 1
0 0.771873 1
0 0.724168 1
0 0.450504 1
0 0.268287 1
0 0.408028 1
0.0855436 1 0.914456
0 0.512167 1
0.338681 1 0.661319
0.666604 1 0.333396
0 0.654211 1
0 0.469646 1
0.268253 1 0.731747
0 0.643649 1
0 0.159508 1
0.767736 1 0.232264
0 0.683256 1
0 0.627908 1
0 0.879623 1
0 0.498022 1
0 0.616454 1
0 0.381756 1
0 0.20145 1
0 0.528015 1
0 0.22704 1
0 0.439135 1
0.535133 1 0.464867
0 0.658996 1
0 0.986833 1
0 0.511092 1
0.0402659 1 0.959734
0.146582 1 0.853418
0 0.66385 1
0 0.415016 1
0 0.288892 1
0 0.535916 1
0 0.632095 1
0 0.844427 1
0.374021 1 0.625979
0 0.47808 1
0 0.330719 1
0 0.801013 1
0 0.718098 1
0 0.194529 1
0 0.574143 1
0 0.929075 1
0 0.426417 1
0 0.629682 1
0 0.546877 1
0 0.217335 1
0 0.538891 1
0 0.56228 1
0 0.382203 1
0 0.778058 1
0 0.799003 1
0 0.0679681 1
0 0.594666 1
0 0.41874 1
0 0.604386 1
0 0.39944 1
0 0.623232 1
0 0.799645 1
0 0.889753 1
0 0.551859 1
0 0.9331 1
0 0.164451 1
0 0.585153 1
0.39088 1 0.60912
0 0.711174 1
0 0.468378 1
1 5.96046e-08 0
0 0.478265 1
0 0.77895 1
0 0.530267 1
0 0.2807 1
0 0.435116 1
0 0.836567 1
0 0.974268 1
0 0.605206 1
0 0.5353 1
0 0.593478 1
0 0.811217 1
0 0.518567 1
0 0.359225 1
0 0.412128 1
0 0.605005 1
0 0.451494 1
0 0.382111 1
0.353222 1 0.646778
0.41965 1 0.58035
0.199346 1 0.800654
0.00167507 1 0.998325
0 0.826541 1
0 0.752085 1
0 0.572114 1
0.0475991 1 0.952401
0 0.401776 1
0 0.463967 1
0 0.611621 1
0 0.915045 1
0.918477 1 0.0815234
0 0.219004 1
1 0.666198 0
0 0.286708 1
0 0.72913 1
0.0941877 1 0.905812
0 0.598747 1
0.312422 1 0.687578
0.096145 1 0.903855
0.103405 1 0.896595
0 0.422556 1
0 0.572666 1
0 0.333402 1
0 0.753564 1
0 0.545208 1
0 0.881182 1
0 0.572956 1
0 0.51502 1
0 0.355426 1
0 0.476135 1
0 0.272468 1
0 0.634878 1
0 0.19755 1
0 0.237313 1
0 0.458896 1
0 0.843377 1
0 0.730949 1
0 0.558162 1
0 0.607757 1
0 0.737679 1
0 0.213032 1
0.224194 1 0.775806
0 0.243052 1
0 0.611 1
0 0.386611 1
1 5.96046e-08 0
0 0.220725 1
0 0.616898 1
0 0.852013 1
0 0.416693 1
0 0.635109 1
0.112215 1 0.887784
0 0.606922 1
0 0.71716 1
0 0.37 1
0 0.809482 1
0 0.382074 1
0 0.719186 1
0 0.741655 1
0 0.32783 1
0 0.84283 1
0 0.717783 1
0 0.226073 1
0 0.76149 1
0 0.999017 1
0 0.30783 1
0 0.344454 1
0 0.248244 1
0 0.960673 1
0 0.326804 1
1 0.715907 0
0 0.510003 1
0 0.241517 1
0 0.408173 1
0 0.510823 1
0.27391 1 0.72609
0 0.196601 1
0 0.425704 1
0 0.769201 1
0 0.639041 1
0.0300388 1 0.969961
0 0.442374 1
0 0.70813 1
0.258093 1 0.741907
0 0.536371 1
0 0.468909 1
0 0.213847 1
0 0.621816 1
0 0.829947 1
0.0278062 1 0.972194
0 0.807751 1
0 0.51483 1
0 0.668324 1
0.0715002 1 0.9285
0 0.658269 1
0 0.351311 1
0.178054 1 0.821946
1 0.919687 0
0 0.621884 1
0 0.388187 1
0 0.255283 1
0 0.736111 1
0.0758965 1 0.924103
0 0.352689 1
0 0.643575 1
0 0.91755 1
0 0.323343 1
0 0.446733 1
0 0.826556 1
0 0.635389 1
0 0.898582 1
0.243219 1 0.756781
0 0.502698 1
0 0.654462 1
0 0.337758 1
0 0.468859 1
0 0.719185 1
0 0.991895 1
0 0.3232 1
0 0.24976 1
0 0.965821 1
0 0.571359 1
0 0.95121 1
0 0.675511 1
0 0.238872 1
0 0.723861 1
0 0.577849 1
0 0.915386 1
0 0.549228 1
0.068975 1 0.931025
0 0.602359 1
0 0.684512 1
0 0.985667 1
0 0.637165 1
0 0.397384 1
0 0.594165 1
0 0.819537 1
0 0.92822 1
0 0.403031 1
0.0407071 1 0.959293
0 0.579177 1
0 0.728958 1
0 0.626395 1
0 0.770628 1
0 0.593998 1
0 0.296503 1
0 0.487213 1
0.160835 1 0.839165
0 0.627461 1
0.381365 1 0.618635
0 0.726778 1
0.319771 1 0.680229
0 0.692764 1
0 0.675831 1
0 0.714167 1
0 0.134996 1
0 0.540129 1
0 0.251881 1
0 0.892733 1
0 0.989373 1
0.521584 1 0.478416
0.104344 1 0.895656
0 0.629471 1
0.0909715 1 0.909029
0 0.935673 1
0 0.574135 1
0 0.38192 1
0 0.402133 1
0 0.658825 1
0 0.339924 1
0 0.446241 1
0 0.797157 1
0 0.882716 1
0 0.224473 1
0 0.837509 1
0.292762 1 0.707238
0 0.853055 1
0.280124 1 0.719876
0.181464 1 0.818536
0 0.598244 1
0 0.878606 1
0 0.37335 1
0 0.854064 1
0 0.877223 1
0 0.939504 1
0 0.579405 1
0.504072 1 0.495928
0 0.458109 1
0 0.659674 1
0 0.702007 1
0 0.806966 1
0.339568 1 0.660432
0 0.823408 1
0.945115 1 0.054885
0 0.42133 1
0 0.391163 1
0 0.996872 1
0.0455598 1 0.95444
0 0.893385 1
0 0.221574 1
0 0.454049 1
0 0.297423 1
0 0.938468 1
0 0.926936 1
0 0.728225 1
0 0.312907 1
0 0.911106 1
0 0.522512 1
0 0.66607 1
0 0.763411 1
0 0.452529 1
0 0.572839 1
0 0.470644 1
0.122829 1 0.877171
0 0.552711 1
0 0.778117 1
0 0.779761 1
0 0.608474 1
0 0.848969 1
0 0.963037 1
0 0.4839 1
0 0.690812 1
0 0.727955 1
0 0.363765 1
0 0.554834 1
0 0.542634 1
0.262347 1 0.737653
0 0.759801 1
0.0200504 1 0.97995
0 0.774749 1
0 0.635998 1
0 0.621919 1
0.37688 1 0.62312
0 0.965507 1
0 0.409591 1
0.20294 1 0.79706
0 0.770376 1
0 0.865651 1
0 0.808876 1
0 0.589813 1
0.334458 1 0.665542
0 0.728807 1
0 0.289625 1
0 0.678644 1
0 0.430887 1
0.0496087 1 0.950391
0 0.694836 1
0 0.354522 1
0 0.201008 1
0 0.599645 1
0 0.587688 1
0.0089192 1 0.991081
0 0.624935 1
0 0.442245 1
0 0.521544 1
0 0.787028 1
0 0.925493 1
0 0.249132 1
0 0.279307 1
0 0.652278 1
0 0.417212 1
0 0.778809 1
0 0.725402 1
0 0.742109 1
0 0.712901 1
0.181001 1 0.818999
0 0.825007 1
0 0.539261 1
0 0.573474 1
0 0.329824 1
0 0.262078 1
0 0.658673 1
0 0.938039 1
0 0.988055 1
0.0738695 1 0.926131
0.0548921 1 0.945108
