# vtk DataFile Version 3.0
Particle simulation
ASCII
DATASET POLYDATA
POINTS 400 float
1.04302 0.743612 1.05782
1.57066 0 1.5756
2.31481 0.620616 1.43415
1.78254 0.607541 1.49006
9.06467 0.824168 4.3442
3.08194 3.87773 4.67986
9.5301 3.35474 0.549177
2.23839 4.4901 3.23428
5.89762 0.976951 1.46969
8.89655 0.192909 2.09767
1.68412 0.57656 1.44897
2.27218 0.534236 1.40662
1.43657 0.146968 1.59886
1.87106 0.572194 1.50316
9.07699 0.745597 4.26417
4.56855 5.43592 7.69625
5.32501 0.647431 1.60754
2.25583 0.683142 2.99092
8.93537 0.341324 0.193542
8.80021 0.207751 2.12184
1.83072 0.353057 0.834253
7.92348 0 5.36608
1.91382 2.41567 6.58523
8.7357 0.37956 2.13722
3.81957 1.76164 6.49399
1.42437 0.771271 0.747416
6.66336 0.975717 7.69796
2.3896 0.289332 2.18734
4.81291 0.274969 3.90658
2.17875 0.73261 1.79629
6.78775 0.568939 1.22417
9.68153 0.545051 1.06628
7.46291 6.98948 8.88744
8.7984 0.405954 2.14983
1.11919 1.80826 2.27604
1.46614 0.82386 0.772755
6.1122 0.71558 7.90905
1.55559 0.29039 2.42443
4.58093 0.0357763 1.68194
2.37419 0.328235 1.16696
0.920199 0.121381 0.872212
5.00235 0.760709 1.10619
5.19705 0.0414962 3.78997
8.89427 0.603031 2.61197
6.01156 0.820301 7.05298
4.51868 0.132624 2.33268
4.33754 1.31796 2.54155
2.07514 1.08067 2.66474
4.70509 0.144041 1.87545
6.94256 0.435903 3.6321
0.776718 0 0.639002
5.0431 0.763609 1.22036
3.87747 0.218013 2.95105
8.84953 0.633268 2.58163
6.03676 0.807184 7.08302
4.58713 0.21487 2.28596
3.20057 0.435811 6.40857
2.32111 0.241052 2.03127
4.74486 0.173136 1.83375
4.55651 0.459508 8.94012
5.06453 0.960473 3.17749
3.60778 0.301803 3.00905
4.61618 0.365267 8.43114
8.57361 0.999466 2.2009
5.95828 0.8069 7.94425
5.11317 1.02383 8.29778
3.42093 0.420389 3.83356
0.654166 0.175957 1.10127
4.66805 0.279823 1.72987
3.88328 0.573275 6.61637
4.99487 1.18338 2.856
1.16615 0.730386 1.86059
4.39661 0.213817 5.93335
8.57811 1.02109 2.1959
5.9023 0.668232 8.09532
4.59385 0.417862 7.96328
3.40296 0.388994 3.8067
2.71036 0.117281 6.78607
4.63056 0.247759 1.74749
3.84051 0.534781 6.62451
2.1638 0.36096 1.58011
1.37476 0.877624 1.87377
1.47171 0.927961 2.01416
2.097 0.569089 2.60653
4.8225 0.508789 6.8454
3.82945 0.421608 6.9303
5.23203 0.950277 6.92308
2.50017 0.0785258 2.18657
3.41066 1.72975 8.30583
7.40041 0.591769 0.744015
1.93856 0.512435 1.3433
2.33418 0.626945 2.51899
5.04494 0.376796 2.00852
2.08486 0.570733 2.53528
4.85995 0.533529 6.83149
3.85118 0.477269 6.92496
2.90359 0.306907 6.80994
1.5065 0.183797 2.75531
1.57544 0.275132 7.41968
7.42323 0.623625 0.734282
2.20363 0.0395499 3.00924
7.09732 0.638323 0.619673
1.80659 0.438144 1.35747
7.94823 0.779662 0.823182
9.02416 0.489516 3.45513
2.58886 0.285681 1.89166
3.50862 0.409927 6.50965
4.94813 0.537586 1.84669
4.71214 0.161814 1.86386
7.1338 0.487996 0.940082
1.10524 0.0362935 0.791185
8.60001 0.45896 2.46343
2.3897 0.30053 2.368
7.33269 0.586207 1.52455
2.74355 0.322052 2.61955
2.46903 0.283736 1.75373
3.22499 0.3518 6.4274
4.79402 0.16894 1.97306
4.75555 0.178575 1.76365
2.48563 0.747611 3.29629
2.3076 0.359973 2.53388
4.91078 0.442364 1.29175
4.60301 0.242606 7.89588
4.68972 0.299964 3.68723
2.75673 0.472585 8.10809
2.43522 0.288488 2.17567
1.85727 0.16668 2.30749
8.41758 0.279088 2.27116
4.25173 1.5335 6.41303
1.97872 1.01991 2.33515
2.29727 0.368123 2.50813
4.54293 0.204053 1.50858
4.74228 0.146665 6.3217
4.57629 0.358954 3.74294
2.79106 0.302454 6.56865
1.31821 0.28614 1.50738
6.91827 0.618945 8.05965
8.4066 0.270637 2.29073
3.34442 0.369159 6.34782
3.48847 0.968344 3.96047
2.10575 0.481223 1.73102
3.87531 0.387768 3.08359
1.53413 0.226651 3.17746
2.37497 0.559328 1.22948
1.80761 0.462183 3.15674
1.73873 0.438465 1.16913
5.45739 0.804227 7.80212
1.77542 0.532559 2.53322
2.21743 0.349614 2.11936
0.342937 0.413211 0.733801
2.10857 0.48384 1.73648
3.74532 0.288967 2.92633
1.81864 0.432946 1.77325
3.35134 0.493016 3.76757
1.41306 0 1.68034
2.11663 0.467971 1.69904
5.46026 0.686123 7.87783
1.73923 0.479514 0.886124
3.35877 0.156669 2.99141
2.28674 0.589324 2.65861
1.96185 0.846755 0.552648
0.380968 0 0.549404
4.86132 0.723706 6.89425
1.84955 0.634581 2.52553
0.866917 0.0503239 0.684317
3.95717 0.624429 3.41579
3.37981 0.421378 6.27496
3.65889 0.360411 6.89676
6.3712 0.723117 6.70569
4.61262 0.127747 1.63405
1.99738 0.809163 0.467769
2.00567 0.429273 1.0358
4.89407 0.64049 6.88034
2.15666 0.204058 0.932649
2.13356 0.360303 1.3606
1.25192 1.18588 2.93909
3.7242 0.432063 6.43173
3.27296 0.393926 6.45942
3.25404 0.582594 6.35909
4.61182 0.105523 1.64391
2.01775 0.539321 1.03086
2.51268 0.524454 1.59601
6.57471 0.949535 7.83863
1.322 1.76224 2.24013
3.69464 0.310022 6.43261
1.8904 0.436734 0.827659
2.18884 0.166199 1.94624
5.34645 0.80841 3.44216
1.7608 0.494067 2.81834
2.16832 0.304018 1.30584
1.99445 0.534849 1.05848
1.82928 0.386626 1.71892
4.99196 0.64959 6.96057
0.636685 1.79328 2.46769
3.8967 0.494962 6.57077
2.57731 0.126233 1.66634
2.23739 0.198232 2.0355
6.17596 2.15019 2.25193
1.77784 0.495814 2.73237
1.96534 0.434959 0.86276
1.38143 0.652587 0.905555
4.6627 0.0491319 2.06973
4.21745 0.563349 6.64536
3.89041 0.461283 3.63431
5.49708 0.179136 8.41611
3.35916 0.414044 6.60244
2.48978 0.35549 2.11616
2.25469 0.558948 2.14614
1.68668 0.43066 2.57667
7.23311 0.365071 1.27642
2.20781 0.48456 1.62614
5.44751 0.49061 1.60395
5.03327 0.737861 6.90139
3.79175 0.498438 3.74225
5.58827 0.264766 8.31579
3.37143 0.435204 6.58975
2.49377 0.350834 2.09987
2.79771 0.120504 2.30906
1.36745 0.318416 2.521
7.29486 0.598887 1.1177
8.55906 0.987736 1.74494
1.80697 0.510851 7.94227
4.82793 0.407055 6.7089
2.187 0.506992 1.76578
4.40597 0.261505 6.33295
1.3006 1.94929 2.16034
6.2607 0.0976365 5.51129
2.24042 0.530062 2.01649
2.00401 0.542726 0.854343
3.47566 0.496702 3.28171
8.54256 1.00997 1.73825
4.27284 0.286631 6.51761
5.93008 0.544339 7.87621
2.19691 0.533841 1.8524
4.73831 0.259884 6.75877
0.963736 1.93089 2.06199
6.75394 0.861831 7.22056
0.965051 1.85225 2.16785
1.1957 0.561881 3.08018
2.46293 0.445783 2.95193
1.86487 0.583719 1.38185
1.80891 0.10576 2.33504
2.3728 0.72219 2.43542
1.25898 0.380988 1.50507
2.83302 0.475177 6.39144
1.50722 0.578077 2.24901
2.75538 0.257172 2.02275
3.29538 0.389903 6.23892
4.81211 0.262839 1.81171
3.38964 0.438678 6.78698
1.86905 0.62422 1.19008
6.12055 0.944305 1.72751
3.08034 0.513305 6.50375
1.25204 0.396437 1.60912
5.66102 1.15616 7.08155
2.12033 0.594739 2.28635
7.29907 0.725474 1.02224
4.27927 0.707239 6.42378
4.80675 0.250633 1.82343
3.33926 0.470094 6.80763
1.87692 0.613437 2.01383
4.15367 0.893688 2.55398
3.99499 0.432395 4.06067
8.66994 0.272867 2.12502
5.6082 0.222508 8.49751
0.42256 0.218392 0.637635
6.46011 0.428501 0.826131
3.41994 0.457893 7.05094
5.73296 0.459388 8.32827
2.63798 0.492517 2.6492
1.85489 0.574083 2.0698
4.18002 0.860142 2.83004
1.47962 1.69864 2.40475
8.89085 0.166435 1.56558
2.59472 0.533457 6.2761
3.06263 0.425673 6.56767
8.69891 0.0436746 2.26349
7.30589 1.0852 7.06278
5.50138 0.535467 8.19088
2.22999 0.454469 1.93346
8.02922 0.416889 1.18748
4.40449 0.479318 1.91423
4.28791 0.205863 1.45896
8.73854 0.224172 1.89413
6.18835 0.675085 7.61985
6.66304 0.438863 7.70072
2.158 0.130326 2.4327
1.8749 0.517643 2.41577
3.47737 0.195625 3.41128
3.70657 0.598314 6.24214
7.96763 0.402764 1.19729
4.46148 0.453984 1.96824
2.20542 0.00129068 1.38923
8.73124 0.190899 1.84459
3.71248 0.0495553 6.94554
3.59785 0.497717 7.00706
2.55365 0.0614408 2.6463
1.32264 1.70604 2.22807
1.76505 0.0660558 2.34461
1.58802 0.546505 1.57595
7.64551 0.584853 1.07304
3.25387 0.507847 3.26816
1.98382 0.102051 2.47101
4.84821 0.207126 1.32237
0.873582 0.390161 1.06955
4.93585 0.0871917 2.04727
2.31056 0.338037 1.94498
2.18773 0.822354 3.22276
1.68321 0.225774 2.70303
2.52269 0.577451 3.02709
9.34883 0 2.18484
3.34734 0.509167 3.34622
6.11195 0.874322 7.24791
1.32879 0.688751 2.0689
0.841151 0.462384 1.09309
6.44923 0.547287 1.26948
2.56395 0.280661 2.20113
3.79419 0.45461 3.08622
4.71441 0.172687 2.1482
2.26498 0.25909 2.50969
3.7306 0.856913 3.2908
1.24456 1.48006 1.83487
3.43157 0.354925 7.01722
2.1239 0.147958 1.33926
7.46912 0.440576 1.39958
7.19092 0.527843 1.57502
2.36088 0.682618 2.47374
4.47462 0.165685 1.84576
7.07989 0.548408 0.880826
2.067 0.504556 2.68639
3.72399 0.89493 3.40778
2.10634 0.509822 1.65282
3.46249 0.458157 6.84619
2.06258 0.159993 1.22246
7.39739 0.407327 1.26189
3.69131 0.260732 3.05702
2.36411 0.710254 2.42081
1.30945 0.680044 1.13928
7.08826 0.49472 1.25207
1.9733 0.324651 2.9097
3.16215 0.62395 3.07026
2.09273 0.222034 1.71307
5.15665 0.373824 7.05272
3.81289 0.428751 3.47617
1.85096 0.626135 0.901883
2.48415 0.261215 2.50467
4.58243 0.056481 1.94474
2.82745 0.346085 1.75777
2.48633 0.0752456 2.5044
1.59882 0.0859016 2.81916
1.97499 0.686155 1.1397
2.13814 0.325637 1.76304
4.6847 0.403282 6.70995
3.82909 0.424662 3.47228
1.93269 0.668187 1.00595
2.0722 0.896299 2.13474
4.50602 0.0514916 1.95166
3.61783 0.470619 7.4326
2.45251 0.115854 2.39529
2.30454 0.622045 1.4541
4.53715 0.122783 2.25347
3.2452 0.422546 3.12197
5.01523 0.235516 6.46965
2.4665 0.23437 2.4437
1.97355 0.449349 2.72013
6.02555 0.698039 7.17798
3.07301 0.677825 6.45382
3.3716 0.453827 6.27327
3.51828 0.701813 6.47724
2.40951 0.233639 0.969668
4.53339 0.150968 2.26519
3.3205 0.454643 3.15639
5.033 0 6.58354
2.40747 0.0863898 2.27125
1.41948 1.09337 2.93625
5.89495 0.536715 7.17055
3.08168 0.700812 6.47787
3.54377 0.0644299 6.29294
3.24011 0.461688 6.39437
2.42167 0.680638 1.19744
2.52001 0.290949 2.24276
2.16788 0.297568 1.40475
3.21339 0.598871 6.33919
1.92714 0.490024 1.1467
8.96853 0.185846 2.4191
4.89944 0.495887 6.58286
1.42001 0.468514 2.59297
1.41437 0.421003 1.56192
8.49973 0.739305 1.66081
4.93798 0.236314 1.70311
2.50449 0.294172 2.20789
2.1814 0.349805 1.43037
3.28309 0.563737 6.29317
2.03824 0.701025 1.63541
9.00147 0.236141 2.43858
4.84555 0.240983 6.42853
1.39395 0.458846 2.60378
1.42281 0.357903 1.64594
6.83279 0.548972 0.771783
4.95296 0.201995 1.6946
POINT_DATA 400
SCALARS particleColor float 3
LOOKUP_TABLE default
0 0.212946 1
0 0.255222 1
0 0.82481 1
0 0.456341 1
0 0.535714 1
1 5.96046e-08 0
0 0.482467 1
0 0.192594 1
0 0.938881 1
0 0.276731 1
0 0.548278 1
0 0.987093 1
0 0.694593 1
0 0.522561 1
0 0.768622 1
0 0.535944 1
0 0.960025 1
0 0.17772 1
0 0.697567 1
0 0.171707 1
0 0.83123 1
0.469341 1 0.530659
0 0.351636 1
0 0.830869 1
0 0.720234 1
0 0.672992 1
0 0.430793 1
0 0.974601 1
0 0.602845 1
0 0.342011 1
0 0.368162 1
0 0.71998 1
1 5.96046e-08 0
0 0.876858 1
0 0.187716 1
0 0.42751 1
0 0.608059 1
0 0.480511 1
0 0.64783 1
0 0.793282 1
0 0.674527 1
0.0256093 1 0.974391
0.086201 1 0.913799
0 0.46552 1
0 0.799835 1
0 0.474269 1
0.1438 1 0.8562
0 0.631158 1
0 0.332808 1
0 0.923492 1
0 0.270824 1
0 0.793071 1
0 0.3718 1
0 0.509211 1
0 0.747175 1
0 0.503585 1
0 0.522328 1
0 0.896098 1
0 0.450197 1
0 0.509667 1
0 0.566517 1
0.171385 1 0.828615
0 0.731756 1
0 0.55461 1
0 0.418809 1
0 0.639428 1
0 0.270992 1
0 0.680403 1
0 0.441232 1
0 0.848704 1
0 0.548005 1
0 0.932544 1
0 0.554412 1
0 0.654808 1
0 0.581053 1
0 0.882784 1
0 0.166728 1
0 0.380803 1
0 0.333322 1
0 0.470601 1
0 0.292719 1
0 0.923267 1
0 0.584894 1
0 0.808584 1
0 0.618423 1
0 0.772232 1
0 0.107882 1
0 0.549779 1
0.860841 1 0.139159
0 0.65958 1
0 0.67271 1
0 0.721834 1
0.193863 1 0.806137
0 0.747239 1
0 0.655629 1
0 0.747911 1
0 0.473092 1
0.0256056 1 0.974394
0 0.724147 1
0 0.820484 1
0 0.421405 1
0.4417 1 0.5583
0 0.542804 1
0 0.415643 1
0.256171 1 0.743829
0 0.740714 1
0 0.8138 1
0 0.294286 1
0 0.707142 1
0 0.841241 1
0 0.534785 1
0 0.979054 1
0 0.726154 1
0 0.743723 1
0 0.592974 1
0 0.625079 1
0 0.747634 1
0.15038 1 0.84962
0 0.537321 1
0 0.321346 1
0 0.698934 1
0 0.507013 1
0 0.887862 1
0 0.827596 1
0 0.826108 1
0 0.744155 1
0 0.941496 1
0 0.387096 1
0 0.939173 1
0 0.496313 1
0 0.751666 1
0 0.383336 1
0 0.496337 1
0 0.320681 1
0 0.46978 1
0 0.821261 1
0.643003 1 0.356997
0 0.196554 1
0 0.91926 1
0 0.695753 1
0 0.0906452 1
0 0.999666 1
0 0.916816 1
0 0.950098 1
0 0.467104 1
0 0.952632 1
0 0.476921 1
0 0.65366 1
0 0.402925 1
0 0.631021 1
0 0.0892954 1
0 0.943482 1
0 0.944802 1
0 0.74056 1
0 0.324122 1
0 0.590351 1
0 0.523609 1
0 0.3773 1
0 0.204068 1
0 0.562349 1
0 0.654192 1
0 0.885993 1
0 0.903376 1
0 0.96991 1
0 0.40468 1
0 0.583987 1
0 0.318176 1
0.155358 1 0.844642
0 0.869058 1
0.249875 1 0.750125
0 0.522775 1
0.0405184 1 0.959482
0 0.35388 1
0 0.348904 1
0 0.96571 1
0 0.787685 1
0 0.338394 1
0 0.506297 1
0 0.684588 1
0.288656 1 0.711344
0 0.513063 1
0 0.605414 1
0 0.458414 1
0.043382 1 0.956618
0 0.932002 1
0 0.748335 1
0 0.468481 1
0 0.937514 1
0 0.614004 1
0 0.49641 1
0 0.574483 1
0 0.667828 1
0 0.504708 1
0 0.975078 1
0 0.664522 1
0 0.388332 1
0 0.324925 1
0 0.897854 1
0 0.610982 1
0 0.55407 1
0 0.760009 1
0 0.36624 1
0 0.979185 1
0 0.492234 1
0 0.44384 1
0 0.665975 1
0 0.624825 1
0 0.884856 1
0.0656116 1 0.934388
0 0.357699 1
0 0.804557 1
0 0.56968 1
0 0.626354 1
0 0.875988 1
0 0.83089 1
0 0.792691 1
0 0.614206 1
0 0.812858 1
0 0.527399 1
0 0.365421 1
0 0.612181 1
0 0.805896 1
0 0.759027 1
0 0.821497 1
0 0.638732 1
0 0.729332 1
0.125117 1 0.874883
0 0.943012 1
0 0.979735 1
0.0446675 1 0.955332
0 0.495796 1
0 0.859969 1
0 0.568073 1
0 0.811668 1
0 0.574458 1
0 0.446713 1
0 0.768782 1
0 0.865134 1
0 0.772777 1
0 0.719901 1
0 0.325948 1
0 0.665854 1
0 0.288825 1
0 0.630419 1
0 0.504696 1
0 0.962744 1
0 0.673089 1
0.131033 1 0.868967
0.0412489 1 0.958751
0 0.719578 1
0 0.646437 1
0.022207 1 0.977793
0 0.781974 1
0 0.728073 1
0 0.983169 1
0.13188 1 0.86812
0 0.472948 1
0 0.677436 1
0.0234627 1 0.976537
0 0.803101 1
0 0.94627 1
0 0.649821 1
0.156226 1 0.843774
0 0.330702 1
0.0282216 1 0.971778
0 0.906132 1
0 0.88302 1
0 0.808936 1
0 0.594394 1
0.20531 1 0.79469
0.11369 1 0.88631
0 0.694569 1
0 0.8543 1
0 0.897791 1
0 0.35083 1
0.0373347 1 0.962665
0.0793376 1 0.920662
1 0.900534 0
0 0.654379 1
0.0345686 1 0.965431
0 0.588019 1
0 0.517658 1
0 0.424554 1
0 0.937979 1
0 0.842421 1
0 0.725395 1
0 0.966196 1
0 0.926366 1
0 0.241404 1
0.688296 1 0.311704
0 0.306692 1
0 0.596417 1
0 0.553282 1
0 0.820967 1
0 0.678181 1
0.0709642 1 0.929036
0 0.412143 1
0 0.681086 1
0 0.578488 1
0 0.687273 1
0 0.323324 1
0 0.476279 1
0.225703 1 0.774297
0.14147 1 0.85853
0 0.43323 1
0.328029 1 0.671971
0 0.547993 1
0 0.43423 1
0 0.874488 1
0 0.574354 1
0 0.682921 1
0 0.270471 1
0 0.690751 1
0 0.571343 1
0 0.463448 1
0 0.500072 1
0 0.295975 1
0 0.93929 1
0 0.93564 1
0 0.749099 1
0 0.409271 1
0 0.623865 1
0 0.307254 1
0.0155164 1 0.984484
0 0.520328 1
0 0.51423 1
0 0.817775 1
0 0.789575 1
0 0.918081 1
0 0.880947 1
0 0.482075 1
0 0.645353 1
0 0.383364 1
0.0101986 1 0.989801
0 0.352564 1
0 0.352092 1
0 0.868444 1
0 0.595856 1
0 0.740858 1
0 0.811686 1
0 0.313792 1
0 0.647807 1
0 0.574691 1
0 0.63299 1
0 0.728069 1
0 0.813215 1
0 0.769677 1
0 0.796899 1
0 0.482245 1
0 0.784264 1
0 0.544487 1
0 0.901746 1
0 0.405182 1
0 0.533347 1
0 0.546587 1
0 0.787947 1
0 0.665873 1
0 0.512425 1
0 0.771544 1
0.375349 1 0.624651
0 0.670024 1
0 0.947417 1
0 0.639701 1
0 0.797545 1
0.0821384 1 0.917862
0 0.579746 1
0 0.410915 1
0 0.815708 1
0.0490855 1 0.950915
0.185419 1 0.814581
0 0.666983 1
0 0.900779 1
0 0.483958 1
0 0.881996 1
0 0.693621 1
0 0.648642 1
0 0.572679 1
0 0.536602 1
0 0.948778 1
0 0.516701 1
0 0.294385 1
0 0.348569 1
0 0.692013 1
0 0.567691 1
0 0.726946 1
0 0.859339 1
0 0.479091 1
0 0.454579 1
0 0.979391 1
0 0.515519 1
0 0.367282 1
0 0.38484 1
0 0.72618 1
0 0.218602 1
0 0.67865 1
0 0.22977 1
0 0.333644 1
0 0.416181 1
0.0606531 1 0.939347
0 0.481478 1
