# vtk DataFile Version 3.0
Particle simulation
ASCII
DATASET POLYDATA
POINTS 400 float
5.87325 2.69432 7.0636
3.31741 6.13017 8.51993
1.03074 2.38189 7.6405
4.06671 1.90319 5.45903
6.69701 0.652363 1.29893
7.74911 0.596421 4.70484
4.40673 7.2766 8.19723
1.50379 8.94959 0.63578
0 1.20751 8.64522
5.98291 0.703071 9.00622
7.42487 0.609349 3.18595
10 7.65189 7.55045
9.13104 2.21443 4.68103
9.87262 4.32225 6.23895
0.150323 1.10086 0.434994
2.8911 8.69878 1.51966
4.87825 6.62867 6.9296
5.20466 0.316473 4.21221
8.18602 4.74168 8.70011
2.32445 7.54497 9.60816
1.94242 2.17334 1.21354
8.68419 7.7142 0.710546
2.00938 1.62783 1.25918
1.41072 3.49617 7.08769
9.51733 7.70318 7.49995
0.323279 2.93985 3.60843
9.31475 7.15066 1.76843
8.02277 6.065 3.20121
9.32456 0 5.19517
3.74494 1.17638 10
1.11805 3.03523 4.16782
9.77443 1.2544 2.65831
3.17364 7.51056 4.45228
1.53601 7.61682 8.73457
6.98177 3.29709 3.80107
7.81383 7.78485 0.869585
7.36996 5.54317 7.07329
8.76059 0.386235 1.39638
3.84941 9.5355 7.71941
0.91986 9.40857 0
7.9998 6.68312 7.9994
9.16943 9.44665 0.809734
1.56791 8.76785 3.10146
8.47515 0.400541 5.70492
4.85799 9.60822 8.70364
4.87215 2.38034 1.32653
8.40019 1.89523 7.55833
3.17131 8.95422 1.90306
1.47259 0.752883 5.32048
1.35587 0.0463358 8.09187
7.33991 3.29006 3.85112
8.47011 9.15506 9.21667
0.746942 0.569281 8.9797
0.448476 4.90059 2.43361
1.08055 9.47551 3.69367
0.732191 0.788245 1.60285
2.4332 3.85092 1.35982
3.79207 0.646117 8.0379
4.46355 5.21904 0.244873
9.42403 2.33731 5.0521
3.9881 8.8815 4.34462
7.45295 4.24301 8.97567
2.29619 4.51344 2.70359
5.18764 9.13699 7.76666
0.553951 6.69854 0.940473
6.17523 1.17839 9.84753
6.77945 4.88227 0.452111
3.36501 4.52866 1.84819
0.224925 3.59551 9.42413
1.17986 4.5649 1.73537
7.68055 1.52675 4.3103
7.59746 6.14678 2.53667
3.66983 9.05952 2.63883
3.12262 0.698271 7.17577
2.31817 4.09847 4.31226
8.41073 2.03217 1.57807
6.64626 4.55755 7.07056
9.53442 9.44984 6.1361
2.40613 6.60331 9.72011
8.24321 0.710295 0.850792
6.66776 9.69467 5.24766
1.32282 9.77192 4.76597
0.991025 4.68263 3.50252
0.321268 1.89001 2.31327
8.40201 3.57076 6.84918
9.49411 0.123403 7.83984
0 7.43419 4.2422
2.66232 5.18322 9.20557
1.25024 8.62111 5.13694
0 4.63578 3.13219
4.18548 0.432513 3.67117
8.27145 7.70177 7.39642
7.05162 9.12188 4.79384
7.58768 0.717974 8.87235
4.85472 3.59085 3.4982
4.34114 5.78597 0.434448
8.49368 0.51057 2.31717
1.9 8.55039 10
4.1276 6.40341 6.21549
3.65814 4.28902 1.04715
0.278676 0.277851 8.47745
5.68519 6.6629 2.77188
6.96891 4.6059 8.01957
5.4579 1.60269 3.03293
0.817412 6.75148 7.59684
1.73102 5.6192 5.75305
9.3917 2.33976 4.49043
4.78671 7.16449 0.911726
1.20214 6.32219 5.60394
8.07101 1.41038 1.73616
0.249958 8.49123 0.807209
4.56093 4.37971 6.61502
1.23771 4.41184 1.20635
6.08017 4.33982 2.88532
2.24046 3.26485 6.16789
4.46094 4.1665 9.64701
4.95439 3.14869 0.13589
0.617772 2.73278 3.0908
3.78337 2.64153 8.40262
5.14639 8.22245 3.11954
0 2.73323 0.282995
9.67456 4.74442 4.07001
9.52676 7.81586 9.01903
1.70661 3.62697 0.626368
0.514114 2.50719 8.4392
3.90869 0.656735 8.20044
6.81321 9.16834 2.78517
2.90019 0 4.5625
6.09371 8.16924 8.21518
1.03238 2.97873 3.70466
0.207801 6.32897 8.3912
2.13493 3.53854 2.90288
5.09242 8.83248 5.32404
4.48778 5.65253 1.94462
2.30303 3.8803 5.22472
3.21252 0.0663263 6.34364
0.933902 4.18183 7.08275
3.64783 5.03465 6.8554
6.5756 4.98438 7.75368
9.63505 5.41633 4.33201
4.88422 0.354642 3.93491
9.70303 5.39597 9.80286
8.38682 4.68982 4.92116
3.04906 7.55481 4.38647
7.93088 0 0
2.78868 0.96198 4.06691
9.44628 0.20537 2.22251
3.77338 1.13719 6.19315
9.59826 3.42448 3.41629
6.31733 0.750194 7.86409
4.6762 0.420603 3.92544
1.5203 5.68336 7.32699
2.2538 7.21736 4.14509
0.0644488 1.98917 9.42337
10 6.44392 6.25247
1.42494 5.22746 0.162813
2.41031 6.04528 9.77456
3.07788 9.35007 2.88167
1.86701 5.9074 8.93797
9.08803 3.85421 3.33667
4.09069 1.34029 0
3.74426 1.44825 5.91626
2.90029 6.51389 1.13097
2.83608 0.241366 8.14308
10 2.62127 5.67894
2.87862 9.53109 5.18938
4.14055 0.641888 2.99418
0.391357 8.06203 9.91648
5.40742 7.66899 0.0726199
5.51317 0.870496 3.2408
4.78645 7.91967 8.37857
1.2443 3.75628 6.75947
1.27492 7.2971 4.66385
8.29634 3.35892 7.2569
3.38506 3.851 2.09394
4.22607 2.15364 8.20619
1.08241 2.44503 10
2.70608 7.75302 6.65207
2.94754 6.75657 0
4.45153 9.73657 7.69338
1.31688 2.2326 1.33877
6.40748 0 1.42432
0.627399 6.73665 0.747324
1.12247 3.52311 6.75847
8.94704 1.38968 4.94749
10 4.45752 1.31371
4.55305 0.551444 3.81898
7.8202 9.72143 5.20343
8.95895 7.84572 8.11357
9.13853 1.27834 6.50825
6.26531 0 8.85082
4.57714 0.525806 3.1054
3.63417 5.16143 0.701421
3.79686 9.47338 8.4095
0.711686 2.81571 3.18478
5.50855 2.66674 7.78387
0.319007 1.11828 1.42894
8.01275 3.54259 4.32855
8.79023 0 3.47263
3.03225 1.09728 3.066
4.5741 0.508909 3.87773
0.191137 2.52764 1.69375
8.39564 7.3635 1.87697
7.20005 4.6149 6.63684
2.35151 9.14305 2.20808
6.87256 1.55809 5.3834
8.2743 1.21425 7.28434
4.53829 9.85932 7.33379
3.63279 0.797162 3.60544
5.53617 0.525857 5.70087
4.62284 0.627168 4.04861
4.50345 0.487493 3.75969
0.556498 5.83196 0.757908
0.550817 3.14867 1.63545
2.98002 1.44748 2.64312
0.440884 1.36587 5.07184
4.40437 0.181686 3.76204
4.72707 9.08464 1.99502
2.21994 1.77539 9.28859
0.128888 9.15348 10
4.84227 7.35994 8.82085
0 3.07387 3.90951
9.69044 4.88642 8.86899
5.41558 0.292253 3.84143
4.02058 7.0887 1.8838
7.02132 1.48454 2.32961
5.74126 5.58377 2.65041
5.05009 0.346272 3.02799
4.83537 0.2749 4.31949
4.31682 6.9632 6.25774
5.90405 1.56012 9.84729
0.726446 9.73066 0
2.08129 0.682277 9.75302
5.46009 0.235252 3.46542
1.86188 0.665796 8.04345
3.98786 0.547618 0.231847
5.32882 8.99211 7.44182
7.99326 1.88771 1.78011
4.80057 0.60298 3.87069
1.12756 8.18988 9.58876
4.28505 0.394458 3.39171
8.76193 0.516376 1.14709
5.37232 3.1325 3.10281
8.93014 2.64757 1.21076
8.73896 7.583 0.539681
9.0538 5.70395 1.18719
3.89114 1.58218 7.88902
8.45637 9.53686 0.998872
0.463545 8.49012 8.86228
8.86773 0.451875 2.47653
4.41006 0.434588 3.87021
0.874772 3.88211 5.23055
10 9.37695 9.35859
0.26715 4.43603 1.28626
7.87906 8.91069 8.32813
5.44705 4.88179 2.29976
7.2422 4.39759 7.80296
2.2465 0.711349 7.89976
5.45109 9.54707 9.04904
7.56151 9.68673 6.33337
2.55179 8.99323 0.935882
0.386021 2.85396 1.13921
1.56057 6.54147 2.84342
10 9.34121 3.71432
5.93617 2.88111 2.94361
1.61084 5.68881 7.41463
3.44033 1.21346 1.19701
4.82305 0.614033 8.94574
5.27411 6.44505 10
1.97922 4.57479 3.52466
5.25332 0.409574 4.11813
2.416 9.39157 0.388605
6.65395 8.71655 2.36155
9.3885 5.41836 4.04666
7.25448 6.45836 4.07862
7.14017 1.8174 5.36908
5.82492 2.52575 7.88249
3.79035 8.04812 9.90569
6.24045 0.758908 2.40114
5.48566 0.3203 3.87243
6.94482 0 0.99264
9.11908 1.11461 2.07298
2.23152 4.30061 8.43187
5.45914 7.42796 0.605051
6.91014 8.67043 2.54773
8.08594 5.96917 4.42152
4.8002 0.358304 3.89436
0 0.209396 0.614208
3.73444 5.5925 4.41374
7.11927 0.809976 10
8.73119 7.77229 3.0968
2.19301 8.59247 7.56859
6.21832 0 4.54546
1.34296 3.82823 4.71637
2.99751 5.44182 10
1.91699 0.632941 7.73428
4.98379 0.598492 4.34625
5.14239 0.574397 4.16751
5.23318 0.598199 3.85041
4.5391 0.428142 4.35724
9.11657 9.57704 0.333477
1.44121 4.22189 7.35084
5.46855 0.504788 4.54231
2.46515 2.70445 0.760968
4.33454 0.431082 4.1895
8.97972 8.27319 9.21404
4.82663 0.879066 4.08382
4.72086 0.390898 3.89708
3.96465 4.77757 4.13165
7.97801 7.68148 3.14792
9.96793 7.95745 5.79444
8.21143 5.66933 9.29447
6.57296 8.00973 0.224279
4.87781 0.640633 4.24264
9.57191 3.84821 9.18833
8.70999 5.71007 0.812409
0.280598 5.80145 5.70713
4.40521 6.11387 7.50378
1.85206 2.73291 4.88957
1.29088 4.08992 7.92356
1.46247 1.24675 8.46926
6.03023 1.35122 9.7681
2.2389 0.607239 7.95275
4.96087 0.432491 3.90443
5.61825 0.627847 4.01222
7.36152 8.35011 5.03048
4.39629 0.560502 3.70375
8.70364 1.94183 0.349542
5.33379 5.28108 3.99705
4.55147 0.466596 3.94734
0.993863 2.1115 9.39876
2.30307 2.2379 3.6608
0.6799 9.42957 1.80965
9.63975 7.6973 5.46297
9.6369 0.484702 3.10314
1.56258 3.24978 4.893
0.836478 6.32152 7.10572
4.81433 0.450142 4.01125
2.4291 2.13462 8.51027
7.14567 5.75437 8.79431
6.74688 6.71278 4.71497
4.64969 9.50918 0.545598
2.01947 1.79947 7.18228
1.97017 0.517951 8.01605
5.19968 0.685127 4.46144
4.90233 0.335842 4.7326
9.56362 0.433655 1.96271
4.88496 0.573383 3.83023
5.105 0.465224 3.66536
6.11557 1.17331 8.86304
5.12744 0.220105 4.11042
4.54757 0.394525 3.53085
2.52297 7.70666 9.1598
9.78322 8.31147 1.95111
2.51372 3.18184 6.02765
4.64177 0.290009 4.31774
9.0051 5.03526 9.34267
6.30451 6.0994 9.85282
4.97774 0.584883 3.66933
4.9284 0.363116 3.87148
9.6626 0.161634 1.74083
1.96656 0.582043 7.93175
1.85615 0.563844 7.8012
5.34379 0.734049 3.83167
4.39919 0.388733 4.03349
9.42259 0.835615 2.91434
1.74244 0.715607 7.7177
4.33081 6.19846 5.68347
1.94736 0.877085 7.74545
7.09762 9.00027 5.62178
9.17243 0.670469 3.05107
2.08075 8.50362 2.91802
1.37249 9.45189 8.69245
5.05979 0.452039 4.02698
4.91645 0.399319 4.04325
9.37929 0.229243 3.17469
2.03684 0.584648 7.77077
1.55624 0.86929 7.84106
0.488678 0.343534 7.00299
5.62146 0.275462 4.15685
4.51886 0.278787 4.09395
4.49045 0.436412 3.70907
3.75464 7.63817 8.47589
4.94297 0.172957 3.97925
4.10708 8.96566 3.06843
1.992 0.690466 7.73166
4.72574 0.564189 4.17159
4.73517 0.7738 3.77206
2.02517 7.62572 8.26632
4.72358 2.06294 7.00132
4.64101 0.901381 4.32256
5.26835 0.111485 4.32732
1.72074 0.784943 7.96268
4.53833 0.144118 4.03881
6.77857 2.21697 0.904977
1.79385 1.09375 7.37944
4.99039 0.591543 4.31172
2.68632 4.13076 2.61272
9.52172 9.66643 3.51236
8.50893 1.31761 2.0321
POINT_DATA 400
SCALARS particleColor float 3
LOOKUP_TABLE default
1 0.800085 0
1 5.96046e-08 0
0.936351 1 0.0636493
1 0.600728 0
1 0.72463 0
0.461452 1 0.538548
1 0.0440244 0
0.281344 1 0.718656
1 5.96046e-08 0
1 0.163354 0
0.274493 1 0.725507
1 5.96046e-08 0
1 0.659956 0
1 0.191786 0
1 0.875231 0
1 0.508733 0
1 5.96046e-08 0
0 0.618008 1
1 5.96046e-08 0
1 0.254763 0
0.184837 1 0.815163
1 0.438263 0
1 0.0364758 0
0.984296 1 0.0157037
1 5.96046e-08 0
1 5.96046e-08 0
0.606739 1 0.393261
0.472037 1 0.527963
0.0309453 1 0.969055
0.215631 1 0.784369
1 0.307951 0
0 0.367948 1
1 5.96046e-08 0
0.226367 1 0.773633
0.9411 1 0.0589002
1 0.887801 0
1 0.989041 0
0 0.569726 1
1 0.282993 0
0.131484 1 0.868516
1 0.545819 0
1 0.700103 0
1 5.96046e-08 0
1 5.96046e-08 0
0 0.865159 1
0.805949 1 0.194051
0.0931017 1 0.906898
1 0.534802 0
0.854194 1 0.145806
1 5.96046e-08 0
1 5.96046e-08 0
0.748856 1 0.251144
0.722536 1 0.277464
1 0.826839 0
1 5.96046e-08 0
1 0.510429 0
1 0.31688 0
0.418055 1 0.581945
1 5.96046e-08 0
1 0.453039 0
1 0.812585 0
1 0.992814 0
1 5.96046e-08 0
0 0.564623 1
0.961628 1 0.0383715
0 0.741822 1
0.262258 1 0.737742
0.522129 1 0.477871
0.083658 1 0.916342
1 0.742103 0
0.397421 1 0.602579
0.369311 1 0.630689
1 0.984781 0
0.42372 1 0.57628
1 5.96046e-08 0
0.252577 1 0.747423
0.725335 1 0.274665
1 5.96046e-08 0
1 0.344043 0
1 0.761842 0
1 0.147282 0
1 0.437313 0
1 5.96046e-08 0
1 5.96046e-08 0
1 5.96046e-08 0
1 0.068024 0
1 5.96046e-08 0
1 0.995174 0
1 5.96046e-08 0
1 0.0853587 0
0 0.689867 1
0 0.407118 1
1 5.96046e-08 0
1 0.423808 0
0 0.64677 1
1 0.153848 0
1 0.131521 0
1 5.96046e-08 0
0 0.429661 1
1 5.96046e-08 0
1 0.836072 0
1 0.117302 0
1 5.96046e-08 0
1 5.96046e-08 0
1 0.466515 0
1 5.96046e-08 0
1 5.96046e-08 0
1 0.039592 0
1 0.393479 0
1 5.96046e-08 0
1 5.96046e-08 0
1 5.96046e-08 0
0 0.860674 1
1 0.33952 0
0.0818573 1 0.918143
1 5.96046e-08 0
1 5.96046e-08 0
1 0.487934 0
0.241911 1 0.758089
0.641369 1 0.358631
1 0.898673 0
1 0.492234 0
1 0.106987 0
1 5.96046e-08 0
1 5.96046e-08 0
0.196922 1 0.803078
1 0.438657 0
1 5.96046e-08 0
0.218462 1 0.781538
1 5.96046e-08 0
1 0.597633 0
1 5.96046e-08 0
1 0.0235909 0
0.413838 1 0.586162
1 5.96046e-08 0
1 0.971301 0
1 5.96046e-08 0
0.696405 1 0.303595
0.530286 1 0.469714
0 0.528266 1
0 0.582359 1
1 0.66385 0
1 0.987285 0
1 5.96046e-08 0
1 5.96046e-08 0
0.508487 1 0.491513
0.722683 1 0.277317
1 0.474414 0
1 0.964054 0
0.732023 1 0.267977
0 0.298462 1
1 5.96046e-08 0
1 5.96046e-08 0
0.701235 1 0.298765
1 0.278233 0
1 5.96046e-08 0
0.926719 1 0.0732812
0.706696 1 0.293304
1 5.96046e-08 0
0 0.69838 1
1 0.322934 0
0.30516 1 0.69484
1 5.96046e-08 0
0.726629 1 0.273371
1 5.96046e-08 0
1 0.6063 0
1 5.96046e-08 0
1 5.96046e-08 0
1 5.96046e-08 0
1 0.840446 0
1 0.196513 0
1 0.61272 0
0.438687 1 0.561313
1 0.262622 0
1 0.116934 0
1 0.459323 0
1 5.96046e-08 0
1 0.497368 0
1 5.96046e-08 0
1 0.658079 0
0.539217 1 0.460783
0.764697 1 0.235303
0 0.980381 1
0 0.616042 1
1 5.96046e-08 0
1 5.96046e-08 0
0 0.386891 1
0.613644 1 0.386356
1 0.388755 0
1 0.95805 0
0.398756 1 0.601244
0 0.580379 1
0.300263 1 0.699737
0.97676 1 0.0232402
1 0.86509 0
1 0.405571 0
0.618877 1 0.381123
0.606557 1 0.393443
0.353145 1 0.646855
1 0.857256 0
0 0.557542 1
1 0.281683 0
0.492005 1 0.507995
1 5.96046e-08 0
1 0.41907 0
1 5.96046e-08 0
1 0.198606 0
1 0.888963 0
1 0.604453 0
1 0.782709 0
0 0.348753 1
0 0.832806 1
0.408475 1 0.591525
1 0.095165 0
0 0.514113 1
1 0.00140148 0
0 0.513186 1
0.388303 1 0.611697
1 0.413001 0
0.932515 1 0.0674849
0.759054 1 0.240946
1 5.96046e-08 0
1 5.96046e-08 0
0 0.561032 1
1 5.96046e-08 0
1 5.96046e-08 0
1 0.472171 0
0 0.529446 1
0 0.443761 1
1 5.96046e-08 0
0.876551 1 0.123449
0.765565 1 0.234435
0 0.943876 1
0 0.169789 1
0 0.610683 1
1 5.96046e-08 0
1 5.96046e-08 0
1 5.96046e-08 0
0 0.203785 1
1 0.342492 0
0 0.469793 1
0.242884 1 0.757116
1 0.0467543 0
0 0.937621 1
1 5.96046e-08 0
1 0.536901 0
1 5.96046e-08 0
0.900611 1 0.0993893
1 5.96046e-08 0
1 5.96046e-08 0
0 0.562568 1
0.560217 1 0.439783
1 5.96046e-08 0
1 0.961036 0
1 5.96046e-08 0
1 0.888946 0
1 0.0960063 0
0 0.426159 1
1 0.347908 0
1 0.0363137 0
0.759184 1 0.240816
1 0.899607 0
0.423411 1 0.576589
1 5.96046e-08 0
1 5.96046e-08 0
1 5.96046e-08 0
1 0.831936 0
1 0.853811 0
1 5.96046e-08 0
0.512015 1 0.487985
0 0.527961 1
0.355312 1 0.644688
0 0.742392 1
1 0.464473 0
1 5.96046e-08 0
0.786752 1 0.213248
1 0.547892 0
1 5.96046e-08 0
1 5.96046e-08 0
0 0.127038 1
1 0.69571 0
0 0.676461 1
0 0.767453 1
1 5.96046e-08 0
1 5.96046e-08 0
1 5.96046e-08 0
0 0.774249 1
1 5.96046e-08 0
0.803182 1 0.196818
0.800217 1 0.199783
1 5.96046e-08 0
1 0.0300065 0
1 5.96046e-08 0
1 5.96046e-08 0
1 0.316026 0
0 0.285555 1
0 0.623787 1
0 0.4888 1
0 0.933037 1
0 0.546282 1
1 0.738613 0
1 0.197936 0
0 0.486537 1
0.820848 1 0.179152
0 0.882904 1
1 0.560473 0
0 0.3747 1
0 0.149983 1
1 0.27268 0
1 0.432542 0
1 0.715563 0
1 0.369836 0
0 0.998894 1
0 0.873474 1
1 0.628697 0
0.723469 1 0.276531
1 5.96046e-08 0
0.470392 1 0.529608
1 0.55117 0
1 0.889692 0
0 0.695509 1
1 5.96046e-08 0
0 0.601466 1
0 0.588806 1
0.00152091 1 0.998479
1 0.475736 0
0 0.374908 1
1 0.883636 0
0.578993 1 0.421007
0 0.348622 1
0.292578 1 0.707422
1 5.96046e-08 0
1 0.643929 0
1 0.997091 0
0 0.659523 1
1 5.96046e-08 0
1 0.812741 0
0 0.528313 1
1 0.708415 0
1 0.44119 0
0.615897 1 0.384103
1 5.96046e-08 0
0 0.67711 1
0 0.250722 1
0 0.654842 1
0 0.86647 1
0.387038 1 0.612962
0 0.846725 1
0 0.859751 1
1 0.533018 0
0 0.507716 1
0 0.439361 1
0.727901 1 0.272099
1 5.96046e-08 0
0 0.184292 1
0 0.586605 1
1 0.132245 0
0.835869 1 0.164131
0 0.370859 1
0 0.756143 1
0 0.784468 1
0 0.593199 1
0 0.236731 1
0 0.703564 1
0.137423 1 0.862577
0 0.95899 1
0 0.135066 1
0 0.820015 1
0 0.425172 1
1 0.46155 0
0 0.43558 1
1 5.96046e-08 0
1 5.96046e-08 0
0.328402 1 0.671598
0.118614 1 0.881386
0 0.702375 1
0 0.828708 1
0 0.854557 1
0 0.641358 1
0 0.357986 1
0 0.82456 1
0 0.338669 1
0.229472 1 0.770528
0 0.682522 1
1 0.904236 0
0 0.523979 1
0 0.260896 1
0 0.270363 1
0 0.765836 1
0.199096 1 0.800904
0 0.625624 1
0 0.261285 1
0 0.843362 1
0 0.69488 1
1 0.53825 0
0.0136289 1 0.986371
0 0.635972 1
1 0.447375 0
0.647638 1 0.352362
0 0.882351 1
