# vtk DataFile Version 3.0
Particle simulation
ASCII
DATASET POLYDATA
POINTS 400 float
6.31764 6.17999 6.66783
0.264308 5.97293 5.77818
1.26274 8.29354 6.69852
4.26146 6.98414 1.85851
8.06255 5.79516 4.61845
8.48261 7.68093 6.96066
8.72278 0.416923 9.67167
3.19106 7.82545 3.82939
4.93173 4.88243 0
1.47333 1.16286 7.71437
1.23594 5.74922 2.13497
8.02683 7.02113 0.598328
9.29668 3.53334 3.79556
6.89656 1.41755 5.27009
5.57833 4.38812 9.14947
1.63334 6.74345 7.01058
4.76628 4.94119 7.71972
4.14154 0.460697 3.17487
5.72632 5.65233 8.78508
2.36106 0.813703 0.782938
4.00203 0.675269 2.93294
10 3.09807 7.76957
9.60063 4.64002 2.28943
7.83517 0.169926 4.37812
2.21047 9.73913 0.432156
6.26966 5.86589 9.07726
0.676922 1.6593 8.40116
4.01068 6.40565 9.57399
8.05172 0.728375 7.30727
3.66687 1.39307 8.73504
3.0901 9.09333 3.62883
9.40631 9.60228 0.117363
8.5056 8.18282 2.15441
3.04822 3.72755 0
5.22446 6.36051 4.52906
2.8929 6.9127 5.68835
9.11483 9.95697 2.12232
4.91911 0.366284 3.80469
0.0926056 3.13963 3.01336
3.61218 1.03324 8.70502
0.607769 2.62339 1.51707
9.36629 5.32589 6.30183
9.09096 6.52724 5.95541
2.54895 3.52059 0.845477
8.22262 0 8.32924
0.284929 1.61284 6.04632
1.31156 9.55656 0.525138
5.49702 4.77877 9.01583
5.23949 0.996772 5.36316
3.13969 6.87262 9.15689
7.54946 0.0655617 0.625871
8.39825 0 6.57109
8.15816 10 4.80444
1.20655 5.15402 6.65451
1.89024 1.02988 4.67021
2.50177 1.24275 7.25813
2.01927 9.37238 0.68303
0.709551 1.76067 8.68079
7.13352 4.21437 8.32797
0.740523 4.85285 2.47987
3.39304 1.90046 1.45543
4.88195 9.89298 3.81144
4.30414 1.74919 7.49099
1.55342 2.70321 9.76898
0.445475 4.48358 8.0313
0.669976 6.9103 1.41781
1.66621 5.52716 0.986143
1.86659 2.04216 0.0356033
0.329934 9.58601 8.72627
5.57841 4.20202 7.20843
2.3069 8.74696 0.629114
4.07065 1.87955 5.83
8.29316 4.50485 7.62285
9.0037 4.04089 2.67103
8.92176 2.38627 5.08947
7.20082 3.16903 6.9987
8.54675 0.879333 7.80435
7.81365 9.21071 6.32143
8.56826 4.87469 4.43801
1.38174 4.95724 7.40425
3.93214 0.586876 2.70455
2.232 2.8225 2.52875
7.89623 2.38378 6.55377
9.59354 3.64235 5.95671
7.08765 9.05394 2.51759
7.30072 6.11485 4.33488
5.05697 4.0452 0.655422
0.154454 0.609102 7.6638
1.89992 9.91474 8.89289
4.88424 9.06882 3.10075
4.45195 0.835365 2.75625
5.54407 2.28874 0.454845
9.83513 3.93708 1.93048
10 3.34454 5.71338
4.72479 5.83461 9.84506
5.1324 5.43445 0
7.3667 3.66579 6.2772
2.14837 8.08532 3.36896
7.3805 4.63825 9.50935
8.12102 7.38216 5.98733
4.40223 3.46082 0.824609
8.34484 7.88617 0.834892
6.70569 1.02469 1.07948
1.36908 7.04969 7.38357
0.83533 10 2.0157
8.77496 0.77791 3.90997
10 2.82839 0.850063
1.3534 3.78077 8.64841
8.8136 5.57814 8.40757
9.29097 0.98905 5.01408
8.05786 6.27325 0.758448
3.00426 6.49592 3.25649
4.333 0.417307 5.42356
7.92836 10 0
2.86738 0.317437 2.12737
4.93475 5.5528 5.46042
0.707971 0.734338 8.20882
8.49533 3.61782 4.20572
0.157679 1.42082 4.78483
3.99002 2.99999 0.456894
6.2172 6.573 7.65915
4.81656 6.03411 8.14565
2.43556 7.58037 1.37566
0.457627 1.61125 2.14853
9.0687 7.35241 4.89238
3.51032 2.61124 2.12526
9.1599 0.3922 2.81445
5.14551 1.15452 6.1256
4.48558 2.46751 4.88387
5.59744 7.69154 1.40466
5.39355 2.62366 5.14109
8.27794 5.42682 4.69308
3.99127 4.10922 9.09046
6.44803 2.4232 5.9718
7.40848 0 2.22393
4.19848 8.76641 6.43379
4.2986 0.759518 5.52918
6.08177 1.41102 3.15313
8.45599 6.75157 2.59772
9.67379 5.89693 0.872474
3.61967 0.218625 2.75348
7.67031 1.17152 6.20309
1.46021 6.81937 8.71628
5.44011 0.933838 1.26006
3.84981 5.56501 0.154005
6.59949 2.26186 9.14717
5.52945 9.17804 0.498551
9.12412 4.68031 4.09239
9.56162 2.72795 4.05871
8.2702 8.41019 5.04986
4.12668 0.470595 2.52308
6.19607 8.27985 4.16463
9.48253 1.61509 8.46002
4.10628 0.39245 2.26465
6.10955 4.93118 1.28752
5.02505 7.94068 5.81145
9.10731 8.52139 3.19002
6.99879 5.32152 4.26241
5.63265 5.10311 9.49685
4.3388 5.27471 3.64851
8.72606 5.52602 5.75783
0.199361 2.46292 4.99899
2.01886 7.24342 3.26494
2.45546 4.41143 2.33569
4.32533 0.184538 0.262191
6.41755 2.08948 6.1099
4.54491 1.95541 8.21264
1.28885 9.40569 0.597039
1.31296 3.70546 9.85826
7.85601 2.59558 0
4.27878 0.597866 2.57413
3.3898 2.48399 3.40748
2.70182 9.81714 4.1445
6.87361 8.58775 3.85898
1.88099 8.58172 5.99564
0.080576 4.41891 7.73411
0.277361 7.85789 1.83388
2.53889 0.363874 2.66764
9.52002 3.58627 3.89032
3.48244 7.01573 0.488434
3.10374 0.761146 2.85037
3.44555 0.734501 3.43601
0.709681 9.52949 5.2763
9.32425 0.200248 4.43939
1.62044 7.01767 4.838
0.960174 7.94338 5.99146
4.05639 0.519759 2.4547
7.8402 2.50048 3.62686
2.79228 0.120116 2.24644
3.05539 0.190802 2.37655
3.99474 0.41593 2.36602
4.17967 0.862244 1.89797
2.91048 3.37981 0.364961
3.65728 3.53861 7.43006
7.23218 0.619049 7.97683
9.31284 0.106566 0.38482
4.38349 2.35794 9.27601
0.52027 1.58568 8.75261
4.78296 0.497548 0.240527
4.47864 0.541575 2.05317
3.91003 0.353048 2.8155
6.06271 4.38186 0.921854
1.62111 3.07413 9.61994
3.68901 8.98147 10
4.98601 9.3853 5.47309
10 2.16308 6.05544
9.63403 1.20782 9.8497
3.66747 3.46762 7.95176
3.96183 4.82413 7.47065
1.11835 9.59512 9.72136
3.97676 0.385911 2.68539
4.00323 0.347431 2.49214
2.06217 1.80647 0.127136
1.77149 4.51768 6.31377
1.04117 5.30709 0.897895
9.77841 9.63636 6.60332
3.9849 0.61457 2.71642
4.33872 1.96534 5.16911
1.44057 0.799174 4.24057
6.4211 8.89242 7.57103
9.77768 4.7846 0.887706
4.18511 9.5895 1.27417
2.27862 0 0
4.1958 0.855546 2.14052
7.98841 3.35348 3.94643
3.89261 1.25688 1.57274
4.54937 5.19378 9.86645
4.17764 0.240533 3.24108
4.14663 0.324906 2.83468
6.21347 6.31608 0.249088
6.27309 3.88797 9.47833
1.47276 7.17871 0.281227
3.07828 4.76356 2.03181
3.7463 0.221085 2.59809
0.843719 0.639191 8.50677
7.29556 3.13559 4.22554
4.27662 6.24225 9.67383
3.03642 4.34776 8.49953
4.14664 0.243485 2.33594
0.408251 6.58523 9.72199
4.09215 0.401798 2.63695
3.99151 0.503314 3.38337
7.51852 4.44654 0.218447
3.84482 0.281611 3.45835
6.34515 6.95703 3.56568
8.44102 6.21144 1.40435
7.09694 6.73153 3.54848
0.0856166 8.28521 3.11534
0 9.76206 2.54059
1.52685 1.29385 1.84466
4.20372 0.300149 2.50364
5.20411 0.740376 6.84027
6.81413 2.63226 4.42522
7.03636 3.98684 6.62521
0.556329 0.401932 9.94329
0.258714 0.137102 3.4079
10 9.29596 6.45235
0.719624 0.75435 8.52653
0.581499 4.74794 8.49658
0.927019 0.681182 8.46113
1.58536 2.46945 5.13088
7.55894 4.24143 8.65307
1.18297 1.17646 7.67948
1.35453 4.4482 6.51179
1.56205 4.02756 7.44404
7.5281 5.59944 6.80402
1.14466 6.36421 1.52142
0.932497 0.524252 8.686
6.12625 9.235 9.92349
0.301279 1.39859 1.16353
4.0446 0.265191 2.81198
9.92614 0 8.69986
8.72705 7.76588 9.70871
3.85832 2.61972 9.06971
8.31479 1.17457 4.34277
7.84672 7.49891 2.07307
6.54633 2.0444 5.37342
6.9012 4.27517 8.72212
4.20092 1.64074 9.09296
3.85519 0.380334 2.73088
7.56377 8.09161 7.70834
8.97764 0.437536 0.937656
1.32048 6.61464 6.91446
1.0722 0.85625 2.06767
7.32978 4.72298 8.8003
1.04759 8.84187 7.3184
3.76298 0.442291 2.52347
0.842919 1.30518 5.12167
8.87755 0.554858 2.22199
8.41916 0.638375 8.16253
6.8791 3.25156 7.90344
4.09975 6.23471 2.57159
3.7055 0.453126 2.43135
3.74653 8.57863 7.69447
1.2121 0.436724 4.51567
0.911691 0.658719 8.29788
4.06451 0.165449 2.90383
3.82899 0.518626 3.04885
3.92531 0.558807 3.23527
3.95222 0.45935 2.87258
4.87389 2.75129 0
7.13334 0.0683572 0.346741
4.40978 1.11423 3.25305
5.9021 6.15184 0
3.77174 0.34 2.46652
0.780399 3.03092 10
3.71771 0.215149 2.73439
3.95588 0.326873 3.18805
0.395269 2.7285 7.51647
8.98164 4.13449 6.2141
8.9351 6.80951 9.55848
0.938706 0.5151 6.13295
0.184865 4.42565 2.52093
4.13289 0.375677 2.36615
3.81715 0.389263 5.86793
0 9.81654 7.33676
4.65635 3.49768 0.82381
2.62971 5.625 4.49758
3.76087 0.796675 6.27389
8.23317 5.1882 0.89413
1.03173 0.474986 8.47417
8.11185 8.50154 8.37096
0.461554 0.664862 8.20226
4.00485 0.482252 2.34994
0.275939 0.0324924 4.6146
9.47015 1.5428 6.35721
3.99911 0.842564 3.03525
5.76989 7.53456 0.183316
2.16792 7.10344 9.24481
3.89253 0.351015 2.72906
0.675392 9.35986 3.31417
1.0477 3.2031 0.675812
0.359298 0.938997 5.16635
0.791955 1.70423 1.12299
8.71623 0.438525 1.0336
2.05235 2.78387 4.47749
7.94107 3.60767 4.1922
4.05914 0.324618 2.50748
0.543811 3.83875 9.62484
7.31272 6.14501 7.96427
9.34734 6.5295 6.87105
5.31235 5.19468 0.417758
0 4.83595 7.76037
0.783042 0.735032 8.34736
4.29768 0.14164 2.59993
4.86654 0.461951 3.59228
8.92739 0.796406 1.14186
4.05499 0.629449 3.13793
3.71516 0.37903 2.94337
9.103 0.61934 5.75741
3.57943 0.269563 2.98439
4.04371 0.494444 3.08659
3.06737 9.24157 4.85694
7.73487 8.42305 3.97305
2.78122 0.216995 2.40773
4.13505 0.593269 1.97114
3.23852 2.63315 2.79753
2.35674 6.75799 8.74855
4.41601 0.863173 2.59781
3.89305 0.499028 2.89372
8.67344 0.620286 0.909524
0.712148 0.653896 8.27844
0.893155 0.649085 8.46347
4.17557 0.452354 2.14208
4.23377 0.18375 2.41435
8.47384 0.730835 0.759189
0.800627 0.861958 7.92516
2.01829 1.91005 0.694105
0.720953 0.787012 8.36464
7.22003 0.424026 0.347406
8.89913 0.248222 1.01772
1.47812 1.0339 6.43728
10 4.8258 3.79293
3.91387 0.484789 3.01227
4.27589 0.0413605 2.14188
9.02154 0.272628 0.779774
0.749229 0.178532 8.34875
0.750539 0.743651 8.09404
2.54095 2.0535 9.49069
3.89052 0.227157 2.47539
3.78749 0.597867 3.12371
3.95266 0.531304 2.88487
2.45502 1.99621 8.99529
3.88868 0.274494 2.55724
8.05194 2.75782 2.80338
0.679792 0.547943 8.39634
4.17172 0.173632 2.82939
3.63198 0.381122 2.99542
0.860394 9.35142 8.05037
1.21979 1.3971 8.65954
3.24435 0.516234 2.85384
4.22766 0.671336 2.71326
1.39444 0.578861 8.47833
4.10467 0.357147 2.83709
3.28852 2.30847 1.55748
1.0716 0.794936 8.64816
4.18954 0.0810114 2.78264
0.76865 7.78934 1.85676
0.934156 1.50113 4.87372
9.26617 0.587302 0.921081
POINT_DATA 400
SCALARS particleColor float 3
LOOKUP_TABLE default
0.300461 1 0.699539
0 0.676996 1
1 0.17269 0
1 5.96046e-08 0
0.35702 1 0.64298
1 5.96046e-08 0
0.33831 1 0.66169
1 5.96046e-08 0
0.7304 1 0.2696
1 0.565968 0
0.109156 1 0.890844
1 0.367669 0
1 5.96046e-08 0
1 0.8476 0
1 5.96046e-08 0
1 5.96046e-08 0
1 0.817202 0
0 0.467153 1
1 0.66949 0
1 0.538292 0
0 0.756396 1
1 5.96046e-08 0
1 0.0869578 0
1 5.96046e-08 0
0.413229 1 0.586771
1 5.96046e-08 0
0 0.889619 1
1 5.96046e-08 0
0.536786 1 0.463214
0.708497 1 0.291503
0.514738 1 0.485262
0.341975 1 0.658025
1 0.891877 0
1 5.96046e-08 0
1 0.762546 0
1 5.96046e-08 0
1 5.96046e-08 0
0 0.734406 1
1 5.96046e-08 0
1 0.0713507 0
1 5.96046e-08 0
1 0.755607 0
1 0.0477664 0
1 0.537799 0
1 5.96046e-08 0
1 5.96046e-08 0
1 0.652291 0
1 5.96046e-08 0
1 0.70491 0
1 5.96046e-08 0
1 5.96046e-08 0
0.708969 1 0.291031
1 5.96046e-08 0
1 5.96046e-08 0
1 0.334859 0
0 0.925752 1
0.0389764 1 0.961024
0.386042 1 0.613958
0.1927 1 0.8073
0 0.751246 1
1 5.96046e-08 0
1 0.855495 0
0.495413 1 0.504587
0.915911 1 0.0840892
1 0.123107 0
1 0.814139 0
1 5.96046e-08 0
1 5.96046e-08 0
1 0.356978 0
0.390382 1 0.609618
1 0.366177 0
1 0.959534 0
1 0.830127 0
0.583931 1 0.416069
0.0845904 1 0.91541
1 0.808952 0
1 5.96046e-08 0
1 5.96046e-08 0
1 0.912969 0
1 5.96046e-08 0
0 0.80859 1
1 0.0510103 0
1 0.903195 0
1 5.96046e-08 0
0.148403 1 0.851597
1 0.669736 0
1 0.904707 0
1 0.352483 0
0.701795 1 0.298205
1 0.706838 0
0 0.532246 1
1 0.668576 0
1 5.96046e-08 0
1 5.96046e-08 0
0.660011 1 0.339989
1 5.96046e-08 0
1 5.96046e-08 0
1 5.96046e-08 0
0.247877 1 0.752123
1 5.96046e-08 0
0 0.637709 1
1 0.549367 0
0.470703 1 0.529297
0 0.983087 1
1 5.96046e-08 0
1 5.96046e-08 0
1 5.96046e-08 0
0.872677 1 0.127323
1 5.96046e-08 0
1 5.96046e-08 0
1 5.96046e-08 0
1 5.96046e-08 0
1 0.0858445 0
1 5.96046e-08 0
0 0.526521 1
0.938407 1 0.0615933
0 0.688843 1
1 5.96046e-08 0
0.921068 1 0.0789315
0.223707 1 0.776293
1 5.96046e-08 0
1 0.587123 0
1 0.770252 0
1 5.96046e-08 0
0.376575 1 0.623425
0 0.966631 1
0.869151 1 0.130849
1 5.96046e-08 0
0 0.767154 1
0.602265 1 0.397735
1 5.96046e-08 0
1 5.96046e-08 0
1 0.0223997 0
1 5.96046e-08 0
1 5.96046e-08 0
1 0.0275234 0
1 5.96046e-08 0
1 0.811521 0
1 0.912927 0
0 0.7892 1
0 0.400307 1
1 5.96046e-08 0
1 5.96046e-08 0
1 5.96046e-08 0
1 0.969252 0
1 0.876812 0
1 0.644686 0
0.670098 1 0.329902
1 5.96046e-08 0
1 5.96046e-08 0
0 0.1813 1
1 0.201048 0
1 0.881336 0
0 0.791274 1
1 5.96046e-08 0
1 0.663465 0
0.847515 1 0.152485
0.791612 1 0.208388
1 5.96046e-08 0
1 0.298349 0
1 5.96046e-08 0
0.682412 1 0.317588
1 5.96046e-08 0
0.0327429 1 0.967257
1 0.0660015 0
1 0.345936 0
0.692079 1 0.307921
1 5.96046e-08 0
0 0.860523 1
1 5.96046e-08 0
0 0.714223 1
1 5.96046e-08 0
0.152603 1 0.847397
1 5.96046e-08 0
0.356449 1 0.643551
0.0909776 1 0.909022
1 5.96046e-08 0
1 5.96046e-08 0
0 0.920574 1
1 5.96046e-08 0
0 0.241569 1
1 0.304429 0
0 0.648237 1
1 0.0985392 0
1 0.184333 0
1 5.96046e-08 0
0 0.538185 1
1 0.372873 0
0 0.371255 1
0 0.815506 1
0 0.667884 1
0 0.455593 1
1 0.356876 0
1 0.994853 0
0.826931 1 0.173069
1 5.96046e-08 0
1 5.96046e-08 0
1 5.96046e-08 0
1 5.96046e-08 0
0 0.20724 1
0 0.411103 1
1 5.96046e-08 0
0.327349 1 0.672651
1 5.96046e-08 0
1 0.772855 0
1 5.96046e-08 0
1 5.96046e-08 0
0 0.85485 1
1 0.948555 0
1 0.408659 0
0 0.6804 1
0 0.522849 1
0.372341 1 0.627659
1 5.96046e-08 0
0.74073 1 0.25927
1 5.96046e-08 0
0 0.954637 1
0.842318 1 0.157682
1 5.96046e-08 0
1 5.96046e-08 0
1 0.903795 0
0.79776 1 0.20224
1 5.96046e-08 0
0 0.519706 1
1 5.96046e-08 0
1 0.661706 0
0.947064 1 0.0529356
0 0.451941 1
0 0.524896 1
1 0.416125 0
0.924032 1 0.0759683
0.273738 1 0.726262
1 5.96046e-08 0
0 0.735521 1
0 0.159279 1
0 0.384324 1
1 0.920748 0
0.0334717 1 0.966528
0 0.564619 1
0.203168 1 0.796832
0 0.374372 1
0.146077 1 0.853923
1 5.96046e-08 0
0 0.708417 1
1 0.113989 0
1 0.904476 0
0.457455 1 0.542545
1 5.96046e-08 0
1 0.35712 0
0.826387 1 0.173613
0.0012489 1 0.998751
1 5.96046e-08 0
1 5.96046e-08 0
1 0.495201 0
0.600991 1 0.399009
0 0.315809 1
1 0.404921 0
0 0.494561 1
1 5.96046e-08 0
0 0.458522 1
1 0.453621 0
0.842602 1 0.157398
0.0420697 1 0.95793
1 5.96046e-08 0
0.223516 1 0.776484
1 0.703972 0
0.980539 1 0.0194606
0.0172803 1 0.98272
1 5.96046e-08 0
1 0.758862 0
0.285212 1 0.714788
1 0.0328559 0
1 5.96046e-08 0
1 0.546338 0
1 0.635492 0
1 0.544168 0
0 0.832535 1
1 5.96046e-08 0
1 5.96046e-08 0
0 0.593333 1
1 5.96046e-08 0
0 0.230905 1
1 5.96046e-08 0
0.376967 1 0.623033
0.770063 1 0.229937
0.754476 1 0.245524
0 0.59572 1
0.0555422 1 0.944458
1 0.383518 0
1 0.447378 0
0 0.395826 1
1 5.96046e-08 0
0.0424101 1 0.95759
1 5.96046e-08 0
1 0.108771 0
0 0.910156 1
0 0.787665 1
0 0.254016 1
0.172883 1 0.827117
0 0.754624 1
1 0.186221 0
0 0.736136 1
0 0.493616 1
1 0.834815 0
0 0.823654 1
1 5.96046e-08 0
0 0.750452 1
0 0.565707 1
0.263587 1 0.736413
0 0.70973 1
1 0.878166 0
0.330926 1 0.669074
1 0.479105 0
0 0.906892 1
1 5.96046e-08 0
0 0.958473 1
0.470017 1 0.529983
1 5.96046e-08 0
1 5.96046e-08 0
0.789281 1 0.210719
0 0.819654 1
0.871142 1 0.128858
0 0.697486 1
0 0.534743 1
0.36915 1 0.63085
0.371297 1 0.628703
0 0.576006 1
1 0.499516 0
0.47264 1 0.52736
0 0.505014 1
1 5.96046e-08 0
0.88045 1 0.11955
0 0.727771 1
0 0.391192 1
0 0.759677 1
0.996 1 0.00399965
1 5.96046e-08 0
0 0.664074 1
0.00499442 1 0.995006
1 0.463841 0
1 0.551154 0
1 5.96046e-08 0
0 0.527846 1
0 0.362671 1
0 0.660559 1
0 0.544006 1
0 0.538578 1
0 0.642465 1
0 0.94912 1
1 0.794076 0
0 0.717965 1
0 0.718584 1
0.29126 1 0.70874
0.321487 1 0.678513
0 0.550958 1
0 0.422005 1
0.159419 1 0.840581
1 0.634832 0
0 0.550261 1
0 0.722211 1
0 0.482134 1
0 0.531609 1
0 0.619856 1
0.295936 1 0.704064
0 0.261259 1
0 0.334226 1
0 0.961318 1
0 0.672494 1
0 0.482024 1
1 5.96046e-08 0
0.330532 1 0.669468
1 0.522451 0
1 5.96046e-08 0
0 0.591772 1
0 0.377103 1
0 0.85367 1
0 0.344899 1
0 0.875939 1
0 0.337071 1
0 0.85126 1
0 0.604833 1
0 0.983139 1
0 0.661073 1
0 0.574758 1
0.769789 1 0.230211
0 0.618257 1
0 0.649132 1
0 0.482755 1
1 5.96046e-08 0
1 0.988741 0
0 0.519517 1
0 0.704237 1
0 0.617624 1
0 0.768961 1
0.0947945 1 0.905205
0 0.458019 1
0 0.574023 1
1 0.808225 0
0.961276 1 0.0387241
0 0.410567 1
