# vtk DataFile Version 3.0
Particle simulation
ASCII
DATASET POLYDATA
POINTS 400 float
0 0.778601 2.95232
0.116375 4.1656 4.99139
8.38042 0.293197 9.21012
9.4432 5.66701 4.98147
7.90333 1.73522 9.58314
9.62226 7.24441 6.75037
6.73616 5.36373 6.41593
7.14623 8.84943 7.49843
2.67785 6.51447 9.52784
1.12001 5.17249 6.98756
3.53191 2.88764 4.17452
2.61938 3.76191 4.30002
4.44353 2.66484 5.68477
3.68042 7.85331 3.70327
1.16576 9.48944 5.69327
8.24279 6.48758 8.89969
9.06611 6.51928 9.29105
3.6113 0.267352 2.27064
6.13256 6.6707 0.302524
4.40143 9.09361 9.54374
3.40485 0.0416703 2.32795
8.886 5.42368 8.83612
6.14292 2.80211 4.42612
5.54148 6.01283 0.366643
9.76284 5.05429 3.45651
9.87752 7.11413 3.08725
9.67778 5.46977 7.55216
1.50653 3.49788 8.34123
0.654966 4.88013 1.27879
9.35697 4.23935 3.58821
5.96551 7.30952 9.76331
6.23593 4.47134 0.955398
9.32412 1.12784 6.17347
9.43805 9.14543 2.79644
3.26413 8.06658 0.735791
5.89017 6.82822 0
7.03162 8.68388 4.62497
3.33706 0.325249 1.71632
4.52053 4.21299 2.77196
3.20498 10 5.9814
7.02128 9.41285 2.25531
5.23812 0.121943 9.32306
3.92467 1.87073 7.00516
2.55403 4.10504 0.348359
6.13282 0.469171 3.03058
9.638 8.34393 2.01251
2.6966 0 1.54346
8.61102 0.76682 0.345329
5.31344 4.41169 3.02064
6.52302 0.714554 3.20169
1.82024 8.09162 4.9771
7.88445 9.33629 7.42285
3.28505 7.91833 1.86761
8.25368 9.24386 0.78864
8.40372 8.28241 6.2213
2.86499 0.123208 9.89519
0.166785 3.7302 0.833487
7.24165 0 3.63769
3.76395 7.68308 4.78381
3.71903 9.36406 9.35526
0.577228 0 5.03925
9.66697 2.46984 6.51703
5.7544 0.0647766 5.0031
4.84129 9.32046 1.26901
5.28911 7.66895 9.91313
9.92772 0.548205 7.21752
9.81155 2.88699 0.073659
6.48104 9.2136 8.91843
2.43348 4.43613 2.24783
7.58719 0.856857 5.61071
6.31756 0.958346 8.31601
7.95339 9.0316 7.45299
2.41832 5.86967 0.827704
8.81016 1.89157 6.08194
8.16722 4.23316 5.05772
5.73793 2.92762 2.50512
1.09196 7.08632 1.2911
5.35241 6.95425 5.00671
0.904151 5.55953 0.152291
7.44058 2.14147 8.02092
3.50866 0.694233 2.24932
0.30168 3.57065 1.68405
2.59152 1.25833 9.98386
5.90103 0.494282 4.33812
3.64525 1.64859 6.99863
5.64282 2.06873 3.18687
8.57274 5.44733 3.5971
7.55532 0.192129 7.95034
4.65073 4.40993 0.196481
1.24271 0.658901 6.0295
3.12423 0.336982 2.25361
2.6643 7.86757 8.17749
0 0 10
5.03828 4.63879 6.70075
6.46403 8.90611 7.43397
3.03787 2.38065 0
1.21446 0.594621 6.65563
6.63633 8.14918 8.65973
8.39151 6.3774 1.94161
2.56853 7.85426 9.32295
3.11666 0.120868 1.38502
3.13734 5.48515 6.95057
8.35643 7.66821 1.89218
9.06791 2.37058 9.25468
3.25799 7.79779 8.282
0.290587 9.73138 3.65582
3.61371 1.40793 2.37739
1.52196 8.9606 6.56293
0.494777 6.03897 7.3566
7.41361 8.81382 9.88012
3.35376 6.51659 9.23325
0.706398 4.30142 7.3258
4.59504 9.7889 0.965515
7.27274 7.32533 5.40718
3.45277 0.864016 0.428855
3.78867 7.2643 4.78666
0.978514 0.531193 8.83202
3.58943 0.385105 9.54268
2.73054 1.33482 9.8373
7.77384 8.40273 6.56577
3.80691 10 6.81767
8.16852 8.8441 3.41057
9.8808 5.92828 8.78564
1.32058 9.33998 3.85577
4.88957 8.08757 9.01138
3.42238 0.648584 1.09299
4.00409 2.33794 2.54924
5.07394 7.76795 5.72415
0.964666 1.84223 1.27878
6.31691 2.60119 3.92259
3.50177 8.58596 5.59371
9.34946 9.70048 5.48407
4.47887 6.66587 2.46052
1.19163 2.07745 1.1907
3.55592 6.12753 9.23128
2.73031 5.69431 8.72341
3.18808 1.22951 9.52563
0.942051 9.16865 6.29166
7.69905 2.06045 8.29313
9.66441 7.28958 3.59863
3.27367 0.374939 2.70588
6.5964 2.81853 5.53884
4.36163 8.79416 5.36461
4.09353 7.35178 0.922249
3.54871 0.590106 0.39852
6.94452 1.11899 1.40215
9.25458 1.09157 4.32615
4.97948 9.64145 0.135074
0.543049 0.273485 9.82747
7.51607 8.56789 8.25156
2.71014 0.290172 2.4697
9.02308 1.42201 3.45083
6.40071 5.94776 4.28334
3.82808 0.0941327 1.947
1.84798 8.05375 0.894975
4.80081 0.954838 6.10761
6.61216 5.54196 1.44303
4.79516 3.28433 7.33065
9.49521 5.28523 2.88459
8.11507 5.09141 5.57262
5.11321 1.40639 5.29114
5.54905 5.9358 0.405211
7.18335 4.32892 2.19029
5.01609 8.58568 5.09159
1.23043 6.4708 3.25734
8.54364 9.05404 3.09512
6.78406 8.88035 2.81465
9.55246 9.9691 4.20451
6.87335 9.42645 7.17218
5.11112 10 3.51347
3.74557 0.263228 1.72886
7.79255 6.82869 1.07974
0.692121 5.78294 2.55151
9.42873 0.812865 9.30111
2.10536 5.13505 5.76089
0.791659 6.19982 1.73022
2.91928 3.89643 4.97999
6.81627 9.66899 1.9103
1.07018 6.04852 5.15316
1.28216 6.44554 6.30991
2.8669 0.486542 2.13316
7.28578 9.48048 1.194
4.69492 8.43733 7.91492
8.59085 6.43331 0.172981
2.63105 3.62641 0.0735046
0.356971 9.1033 6.25681
2.91465 0.157208 2.10368
0 4.92763 8.99243
3.13676 0.417167 2.23613
3.36548 0.692675 0.375074
3.4925 0.0918337 2.04249
3.57934 0.548516 1.54116
9.46785 1.84399 6.9527
8.73647 2.32318 6.714
8.32425 7.16813 8.99604
5.21333 2.47171 0.100564
0.525577 5.09166 7.71539
1.31429 6.87177 1.27696
3.66822 0.662634 4.31284
3.57807 0.485276 1.67058
3.05871 0.460623 1.89207
5.31008 6.22904 5.69166
0.622376 2.56622 2.40779
9.52522 4.86914 2.26608
6.26682 8.54572 3.86542
5.92804 1.77277 7.22849
3.6399 0.465637 1.93251
4.51432 1.33023 8.82567
6.68751 1.62273 9.26619
3.76775 8.55254 8.23682
3.6662 0.188858 1.78349
3.10506 0.326864 2.06686
3.19155 7.33829 8.28184
7.22843 3.40437 0.571799
0.887603 3.18172 0.3861
3.84938 0.10377 8.28991
3.64768 0.0364399 1.91552
0.25915 0.756806 4.3088
1.9123 5.04003 3.75797
4.5523 4.63936 3.04686
2.94813 3.2444 1.22771
6.36937 1.43862 4.26537
9.11497 2.13591 1.73748
3.88245 0.234201 1.54503
7.78953 4.35207 0.642388
1.43902 7.57074 9.76093
9.22632 6.74314 3.71486
3.2224 0.345369 1.85417
3.46641 0.178175 1.9678
1.00897 9.06928 8.52905
4.20859 7.48783 3.16512
0.707232 7.0591 2.38432
2.75523 5.34601 2.23135
3.60366 0.600978 1.47028
0.861237 0.231321 8.64013
9.42466 5.38729 2.75332
7.00526 6.00686 3.56927
4.88666 3.51712 8.8582
3.55888 0.251032 2.28678
6.26194 4.25375 6.41264
3.04058 0.38482 2.19898
2.54208 0.597238 2.01973
3.73789 0.343086 1.8832
3.39952 0.233782 1.86576
2.18363 8.67561 5.0729
5.13033 7.27635 5.59582
5.70998 4.6051 10
8.3404 1.89722 2.20488
1.32454 0.981817 0.777082
8.98882 7.2477 3.94563
2.98087 0.813613 2.26205
6.62004 8.43058 2.42296
5.70388 8.48861 0
6.57256 1.64167 6.04272
4.9257 2.50682 1.08493
3.44597 0.164914 3.04028
5.17224 1.77743 3.42762
1.18355 0.273776 8.57768
10 5.45149 3.13246
0.841866 0.363611 8.68203
3.13017 0.18725 3.04109
6.09745 1.61721 8.85599
8.10948 0.776928 7.97267
0.473216 0.0641198 1.06931
0.282947 0.723701 5.27653
3.43321 5.03466 1.60164
5.37667 1.23783 3.87079
0.812855 0.223723 8.70465
0.454759 9.0723 1.05843
4.17093 0.671175 2.35072
3.83683 0.15145 1.83602
7.82941 4.5234 8.49706
8.06088 7.39538 9.18637
9.27009 7.99463 4.16606
5.17 1.06605 3.73706
1.53028 0.659706 8.34347
8.72893 6.4288 4.16254
4.20285 0.479416 5.068
1.28136 1.84999 8.98905
3.54719 0.351236 2.06312
1.72851 0.358456 8.05778
7.83264 0.560116 0.428433
4.70069 1.39703 7.20994
4.45478 0.302386 4.87502
1.25251 1.44148 9.39281
8.19584 8.61341 1.41577
3.27503 0.0968103 2.42401
4.23645 0.349975 5.02083
3.19246 7.39214 0.391311
9.41696 7.46934 3.00639
4.65741 6.65047 9.56964
0.623218 6.03432 3.14604
3.92284 0.375219 1.63263
2.57161 3.02821 2.63426
2.02545 0.0183459 9.54105
0.807247 0.35072 8.95288
3.74243 0.382646 2.00536
3.20813 0.481203 2.05598
2.59085 0.945379 2.62718
3.40462 0.250187 1.80961
5.38064 3.7214 1.81938
9.07141 1.73375 1.12285
3.20479 0.605592 2.44593
2.07746 8.03455 9.71275
3.34392 0.634111 2.24417
5.79514 0.529949 6.32723
3.73673 0.405817 2.21823
3.77751 0.637563 1.97299
0.5069 4.23143 5.71226
8.69345 6.27204 4.19673
7.38957 1.8761 0.280378
9.98267 0.181144 1.03718
5.06823 7.98291 0.821753
3.22849 0.0344686 2.4219
0.519908 5.35403 8.34645
4.6676 4.15558 0.186442
3.46093 0.359394 1.78231
9.06777 9.65141 8.51087
10 4.08433 0.482011
7.96672 9.51511 3.39107
1.1454 0.340076 8.34983
7.7832 4.41332 8.54714
1.09747 0.401975 8.60239
2.71082 0.206576 2.37135
1.44623 0.305307 8.07072
0.615067 1.99293 0.105782
3.35033 0.523935 1.86277
2.06052 6.2796 4.80551
9.22425 4.13624 8.52598
3.37125 0.258675 1.97796
3.04582 1.11325 10
4.05523 0.639054 2.59177
2.21263 1.41035 9.29232
3.6647 0.481083 2.84899
7.85948 0.344487 0.541238
9.00539 0.855851 7.21292
3.05778 5.24525 7.24905
3.24899 0.43323 2.20122
1.14074 2.64784 7.66477
2.01982 4.19143 0
0 0 2.41061
8.81376 9.01944 2.98142
2.23066 1.44846 9.34514
0.855218 0.348647 8.65967
3.5997 0.540683 2.17613
3.94971 0.470308 2.07371
7.92331 1.05052 0.328786
3.18969 0.204653 2.04756
3.69005 0.147049 2.67833
7.11974 9.78127 4.47944
3.47941 0.386351 1.37704
3.53105 0.0250413 2.28186
0.890263 5.80492 2.82449
1.9191 0.61846 5.56601
3.9403 0.35474 2.72151
3.23609 0.0766436 2.68575
3.49451 0.0622736 1.25948
2.0926 1.29537 9.15394
2.79112 0.479571 2.35303
3.59343 0.305848 1.69286
7.96569 1.03027 0.209765
0.911303 0.492287 8.77212
1.14149 0.332178 8.70735
3.47756 0.685932 2.77618
3.18026 0.424914 2.0438
7.81904 0.990769 0.386589
0.740643 0.274439 8.3444
8.60516 4.9557 2.78535
1.12046 0.423428 8.85036
3.87081 0.334924 5.98636
7.75275 0.614618 0.385431
2.71641 0.971282 9.90408
4.364 0.841113 9.71203
3.06444 0.421465 2.06592
3.18123 0.424522 2.50418
7.75763 0.556453 0.315879
0.999189 0.523404 8.39995
0.8594 0.0953621 8.52392
3.93191 0.426321 8.66351
3.0823 0.437907 2.11189
3.44689 0.213063 1.91647
3.37364 0.221604 2.04761
3.91671 0.391946 8.64114
3.0378 0.489982 2.06241
9.12532 0.338157 1.77183
1.32331 0.21096 9.16394
3.56934 0.467588 2.32198
3.42643 0.352942 1.82298
7.96376 1.17934 7.83293
9.31811 0.0888438 5.30463
3.52653 0.5607 1.34099
3.64307 0.212198 1.82608
0.476969 0.257377 8.88512
3.82992 0.187318 2.13734
3.49817 0.530033 1.33366
1.07361 0.61081 8.55319
3.53374 0.497457 2.43462
1.62122 0.143845 5.98548
6.58874 1.0758 3.21743
7.56946 0.297966 0.376721
POINT_DATA 400
SCALARS particleColor float 3
LOOKUP_TABLE default
1 5.96046e-08 0
0.494397 1 0.505603
0.361605 1 0.638395
0 0.68861 1
1 5.96046e-08 0
0 0.668318 1
0.909509 1 0.0904912
1 5.96046e-08 0
0.991252 1 0.00874799
1 5.96046e-08 0
0 0.938867 1
1 0.700173 0
1 5.96046e-08 0
1 5.96046e-08 0
1 0.395774 0
0.251471 1 0.748529
0.298162 1 0.701838
0 0.547326 1
1 0.870654 0
1 0.0765654 0
0 0.5056 1
1 5.96046e-08 0
1 5.96046e-08 0
1 0.89366 0
1 5.96046e-08 0
0.233918 1 0.766082
1 0.974079 0
0.104892 1 0.895108
1 0.836247 0
1 0.926116 0
1 5.96046e-08 0
0.459369 1 0.540631
1 5.96046e-08 0
1 0.571729 0
0.858202 1 0.141798
1 5.96046e-08 0
0.454732 1 0.545268
0 0.531455 1
0 0.785192 1
1 5.96046e-08 0
0.286885 1 0.713115
1 5.96046e-08 0
1 0.274626 0
0.578668 1 0.421332
0 0.698188 1
1 0.219293 0
1 5.96046e-08 0
1 5.96046e-08 0
1 0.151656 0
1 0.650877 0
1 5.96046e-08 0
0.382402 1 0.617598
1 5.96046e-08 0
1 5.96046e-08 0
1 5.96046e-08 0
0.344273 1 0.655727
0 0.949541 1
0.231571 1 0.768429
1 5.96046e-08 0
1 0.791889 0
1 0.40742 0
1 0.40511 0
0.801766 1 0.198234
1 0.197537 0
0.344276 1 0.655724
0 0.994738 1
1 0.00602192 0
1 5.96046e-08 0
0 0.694682 1
1 0.762001 0
1 5.96046e-08 0
1 0.91689 0
1 5.96046e-08 0
0.667799 1 0.332201
1 0.738186 0
1 5.96046e-08 0
1 5.96046e-08 0
1 5.96046e-08 0
0.931888 1 0.0681122
0 0.940661 1
0 0.423003 1
0 0.98305 1
0.149569 1 0.850431
1 5.96046e-08 0
1 0.3562 0
1 5.96046e-08 0
1 0.803832 0
1 5.96046e-08 0
0.518885 1 0.481115
0.620882 1 0.379118
0 0.348418 1
0.974879 1 0.0251214
1 5.96046e-08 0
1 5.96046e-08 0
0.674217 1 0.325783
1 0.383582 0
1 5.96046e-08 0
0.739554 1 0.260446
1 0.702558 0
0.123127 1 0.876873
0 0.558904 1
0.582191 1 0.417809
0.481375 1 0.518625
0.337199 1 0.662801
1 5.96046e-08 0
1 0.703441 0
0.628196 1 0.371804
0.650084 1 0.349916
1 0.885388 0
1 0.902968 0
0.891333 1 0.108667
1 0.963863 0
1 5.96046e-08 0
1 5.96046e-08 0
0.206388 1 0.793612
1 0.0573594 0
0 0.511428 1
1 5.96046e-08 0
1 5.96046e-08 0
1 0.335083 0
1 5.96046e-08 0
0.613015 1 0.386985
1 5.96046e-08 0
1 5.96046e-08 0
0.82128 1 0.17872
0 0.212271 1
0.917351 1 0.0826492
0 0.660295 1
0.343109 1 0.656891
1 0.405098 0
1 0.447663 0
1 0.199058 0
1 5.96046e-08 0
0.598396 1 0.401604
0.106786 1 0.893214
1 5.96046e-08 0
1 0.975589 0
1 5.96046e-08 0
1 0.536291 0
0 0.900338 1
0 0.175897 1
1 5.96046e-08 0
1 5.96046e-08 0
1 5.96046e-08 0
0 0.594319 1
0.323426 1 0.676574
1 0.792353 0
1 0.892392 0
0.566102 1 0.433898
1 5.96046e-08 0
0 0.426718 1
1 5.96046e-08 0
1 5.96046e-08 0
0 0.719486 1
1 5.96046e-08 0
0 0.418439 1
0.366491 1 0.633509
1 0.861975 0
1 5.96046e-08 0
1 0.227065 0
1 5.96046e-08 0
1 0.721685 0
1 0.7998 0
1 0.688559 0
0.343881 1 0.656119
1 0.880475 0
0.791702 1 0.208298
0 0.960547 1
1 0.237721 0
0.46069 1 0.53931
0 0.336373 1
1 5.96046e-08 0
0.44534 1 0.55466
1 0.896443 0
0.0810434 1 0.918957
1 0.496679 0
1 5.96046e-08 0
1 0.185565 0
0.506855 1 0.493145
1 0.801406 0
0 0.136594 1
1 0.169014 0
0.386319 1 0.613681
1 0.182287 0
1 5.96046e-08 0
0.870604 1 0.129396
0 0.135311 1
1 5.96046e-08 0
0.0282294 1 0.971771
0 0.748507 1
0 0.678427 1
0 0.620385 1
0.826998 1 0.173002
0.830975 1 0.169025
0.265143 1 0.734857
0.153783 1 0.846217
0.0391942 1 0.960806
1 5.96046e-08 0
0.142974 1 0.857026
0 0.487187 1
0 0.316151 1
1 0.362055 0
1 5.96046e-08 0
0 0.636815 1
1 5.96046e-08 0
0 0.57478 1
0.0453161 1 0.954684
1 5.96046e-08 0
0.521135 1 0.478865
1 5.96046e-08 0
0 0.821725 1
0 0.509725 1
1 0.0798798 0
1 5.96046e-08 0
1 0.558544 0
0 0.572762 1
0 0.673645 1
0.308063 1 0.691937
0.135985 1 0.864015
1 0.767687 0
1 0.291572 0
1 5.96046e-08 0
0.3124 1 0.6876
0 0.664423 1
1 0.658808 0
1 5.96046e-08 0
1 0.64482 0
0 0.903048 1
0 0.848239 1
1 5.96046e-08 0
1 0.374942 0
1 0.615313 0
1 5.96046e-08 0
0 0.447272 1
0 0.331026 1
0.355471 1 0.644529
1 5.96046e-08 0
1 0.955778 0
0 0.694128 1
1 5.96046e-08 0
0 0.488678 1
0 0.377103 1
0.0955366 1 0.904463
0.0638857 1 0.936114
1 5.96046e-08 0
0.476943 1 0.523057
1 5.96046e-08 0
1 0.695828 0
1 0.5 0
1 0.418002 0
0 0.735136 1
1 5.96046e-08 0
1 5.96046e-08 0
1 0.508316 0
1 5.96046e-08 0
0 0.712565 1
1 5.96046e-08 0
0 0.382479 1
1 5.96046e-08 0
0 0.677015 1
0 0.423119 1
0.0931825 1 0.906818
1 0.357632 0
0 0.984444 1
0.210269 1 0.789731
0.8087 1 0.1913
0 0.644782 1
0 0.622799 1
1 0.307409 0
0 0.231483 1
0 0.672056 1
1 5.96046e-08 0
1 5.96046e-08 0
1 5.96046e-08 0
0 0.986585 1
0.207945 1 0.792055
0 0.872355 1
1 0.0809532 0
1 5.96046e-08 0
0 0.229735 1
0.393107 1 0.606893
0 0.531298 1
1 5.96046e-08 0
1 0.854356 0
0.874542 1 0.125458
1 0.851058 0
0 0.579891 1
0 0.744687 1
1 5.96046e-08 0
1 5.96046e-08 0
1 0.901994 0
1 5.96046e-08 0
0 0.880593 1
0.26742 1 0.73258
0.736472 1 0.263528
0 0.802636 1
0 0.387642 1
0 0.778461 1
0.194832 1 0.805168
0 0.155574 1
0.157106 1 0.842894
0.224842 1 0.775158
0.618497 1 0.381503
1 0.947964 0
0 0.668436 1
0.619918 1 0.380082
0 0.645528 1
0 0.383241 1
0.0331628 1 0.966837
0.261216 1 0.738784
1 5.96046e-08 0
0.75593 1 0.24407
0.453946 1 0.546054
0 0.162293 1
1 5.96046e-08 0
0.143595 1 0.856405
0.327908 1 0.672092
1 5.96046e-08 0
0.717946 1 0.282054
1 0.247913 0
0 0.619158 1
0.0819113 1 0.918089
0 0.969761 1
0 0.258412 1
0 0.962378 1
1 5.96046e-08 0
0.00151143 1 0.998489
1 5.96046e-08 0
1 0.852549 0
0 0.414605 1
1 5.96046e-08 0
0.0136637 1 0.986336
0 0.515311 1
0.292466 1 0.707534
0 0.339476 1
1 0.430793 0
0 0.768565 1
0 0.257485 1
0 0.768788 1
1 5.96046e-08 0
1 0.0745627 0
0.010202 1 0.989798
0 0.545192 1
0 0.274667 1
0 0.372267 1
0 0.746524 1
0 0.961792 1
0 0.756791 1
0 0.763437 1
1 0.906586 0
0 0.532787 1
0 0.161144 1
0 0.843088 1
1 0.877098 0
0 0.526931 1
0 0.22518 1
0.0740768 1 0.925923
0.0663725 1 0.933628
0 0.765917 1
0 0.449037 1
0 0.532369 1
0 0.304255 1
0 0.418292 1
0 0.400117 1
0.0403658 1 0.959634
0 0.580958 1
0 0.878383 1
1 0.836435 0
0 0.661798 1
1 0.797707 0
0 0.637491 1
0 0.617728 1
0.556077 1 0.443923
0 0.957129 1
0 0.609908 1
0 0.588505 1
0 0.990497 1
0.0866233 1 0.913377
0 0.151473 1
0 0.77543 1
0 0.692855 1
0 0.55901 1
0 0.558105 1
0 0.752874 1
0.381241 1 0.618759
0 0.333441 1
0 0.244494 1
0 0.467695 1
1 0.594472 0
0 0.991805 1
0 0.241712 1
0 0.760075 1
0 0.634879 1
0 0.231326 1
0.816546 1 0.183454
0 0.388481 1
0 0.168841 1
0 0.836333 1
0.120192 1 0.879808
0 0.27078 1
