# vtk DataFile Version 3.0
Particle simulation
ASCII
DATASET POLYDATA
POINTS 400 float
8.52527 2.41777 9.89809
0.5214 1.43727 4.4904
0.0468816 2.22458 4.03013
2.38071 0.379566 1.56392
9.95211 0.456267 3.38041
4.19832 7.87234 7.01229
7.28422 2.68051 2.79129
6.20052 5.34348 0.582408
9.10222 6.28948 1.88397
6.65119 0.173175 4.72391
6.45393 1.97596 0.312619
3.88112 1.04863 2.77295
9.20956 9.74899 7.77817
4.76332 0.852706 0.994595
5.24985 2.70637 1.80848
9.35149 2.04718 7.77987
2.10061 6.65987 0.410889
3.35982 0.341962 2.32794
0.31198 3.54496 7.55465
6.68106 0 4.42927
3.58452 0.735148 2.4539
3.48787 0.1276 5.5904
5.99068 5.73393 7.10797
5.56318 0.823175 3.75
1.2825 5.98814 6.77301
3.95502 0.093105 2.08392
2.47656 1.92831 6.36398
3.91044 0.201179 2.79905
9.65674 0.358263 10
2.91064 0.490409 0.968464
9.79535 9.66482 7.62778
8.99481 0.24834 1.1315
7.0004 0.951246 8.63231
5.58496 0.814391 3.80745
2.97346 1.28163 2.10276
0.506614 1.69435 0.793659
7.83843 0.0516907 7.73463
2.22728 0.432612 1.43158
6.69869 0.922984 1.08512
3.02715 2.3398 2.567
6.17392 1.43022 3.83567
8.77452 5.58252 5.03621
5.82393 9.51565 7.27643
3.6669 1.21814 7.02754
7.22545 0.0606509 6.66887
5.7892 0.329442 1.75862
4.18528 0.983536 9.68164
2.8904 0.237139 1.64746
6.22 0.502508 1.81435
0.661964 9.24514 9.14839
0.215685 4.0972 2.64663
7.47612 7.96983 5.03703
8.1839 0.697623 7.91386
6.36354 0.331241 4.63992
8.50443 0.342798 7.7513
5.87611 0.267894 1.75592
5.62003 0.592053 9.09887
2.07136 0.0213871 3.00533
6.10936 0.487788 1.888
1.74795 4.90672 6.91408
9.87015 3.55728 5.5223
5.49195 0.43616 8.62756
3.90533 0.591839 3.20351
6.53482 0.187947 4.86054
7.37416 3.96377 2.71133
5.63815 1.21449 1.43012
7.89544 0.323112 7.36621
0.197023 3.84982 2.85949
6.19894 0.478367 2.03231
5.06644 0.15851 8.25137
4.7522 0.0525082 8.69592
2.63584 1.05281 2.76925
7.38452 8.8113 1.56227
6.55842 0.164193 4.9297
7.18241 0.904699 8.50033
6.74552 0.305091 7.69303
7.86314 0.294411 7.36649
5.05115 0.377778 7.94299
6.20561 0.477856 2.86068
0.703769 2.4359 6.76017
2.33295 0.658066 1.35567
3.13729 0.402292 1.85774
2.94142 1.12091 1.0599
3.03364 0.55875 1.46013
4.91234 0.591993 8.87897
5.46604 0.101447 9.1257
5.54417 0.485782 9.02592
8.22994 0.995511 0.810598
5.80642 2.1506 0.208908
9.22908 0.380817 1.68774
2.4182 0.191196 1.66382
3.33918 0.280523 0.354112
0.00890863 2.56543 8.97643
3.01456 0.534834 1.46296
4.96361 0.578426 8.86962
5.48441 0.0845007 9.13981
4.2848 1.63097 9.55264
2.69333 0.573049 3.60808
5.93447 0.220678 6.46731
9.18594 0.440177 1.7023
1.68282 0.025343 1.10319
6.86309 0.181612 5.95118
0.611872 1.45753 0.832706
8.2681 0.00906908 7.04148
8.36167 4.28164 5.19091
2.64561 0.561195 1.27337
4.691 1.39276 9.69331
6.00402 0.210063 1.86996
6.26158 0.495538 1.79457
9.40574 0.553147 1.95101
0.718663 1.15962 4.49319
5.98654 0.65623 4.90675
3.09449 0.844984 2.33041
9.4615 0.354289 1.75568
2.70253 0.260417 1.29427
2.40448 0.356454 1.68835
5.21263 0.203206 8.51317
6.30062 0.577433 2.81706
6.26758 0.443423 1.83348
1.57791 0.77914 0.815554
2.21035 0.485301 1.71744
9.0047 3.7275 4.46092
7.26118 4.86534 9.84076
5.16563 0.606926 7.48919
8.73491 0.462878 6.99482
2.79186 0.146162 1.01957
3.35421 0.444537 2.55337
6.75315 0.24761 4.71898
0.0244673 1.3726 5.30458
1.84267 0.478075 3.46414
2.24886 0.462708 1.78005
6.09304 1.29354 2.29944
5.28361 0.174257 8.28883
7.7051 0.242437 6.73506
0.927009 0.35214 3.90489
2.12629 0.272708 2.90264
6.53732 6.14861 5.19572
6.54509 0.272352 4.63418
5.0148 0.47239 8.32371
8.43486 0.388887 8.11041
2.80273 0.724071 1.1582
9.93428 0.581972 7.81209
1.69089 1.99469 9.63453
1.55402 0.318456 0.736378
2.55631 0.69339 1.42254
2.56911 0.608158 2.84022
7.33926 0.362298 6.91202
1.36139 2.00356 2.92237
1.99929 0.146509 2.9492
1.11797 0.35747 2.88436
2.78541 0.739402 1.1629
8.00766 0.154003 7.59797
2.60249 1.96515 0.883455
4.58678 1.40994 9.72217
3.3852 3.66099 0.424014
3.20858 0.610375 2.38864
7.77109 0.207807 7.47459
2.52016 0.415138 1.58664
7.5444 0.26338 7.14998
2.82574 0.441248 2.27994
0.520346 1.43553 0.645898
0.148896 2.36182 3.97472
5.50446 0.615799 8.70689
1.72445 0.728696 2.36576
0.240969 4.22844 2.70858
8.64167 0.534651 8.01362
5.0008 0.336769 7.8347
5.65728 0.124249 8.27851
6.35644 4.26701 7.99404
3.30154 1.36237 2.16772
2.63469 0.496731 1.48144
2.76837 0.862972 2.4803
5.99622 0.252876 5.72971
2.86262 1.2597 1.18767
2.05259 0.316007 2.52264
0.101672 1.92221 0.806519
5.39996 0.0453202 8.59436
5.16212 0.5 7.91211
5.08689 0.433429 8.50517
4.21261 1.07619 5.85807
3.06217 0.617095 1.54012
2.60458 0.417452 1.14518
7.28839 4.45078 9.5304
2.55855 1.78546 1.03149
5.65862 0.727588 8.31612
3.01221 0.0509382 2.091
2.24579 0.793584 2.64844
0.11048 2.55747 9.25473
5.92686 0.571572 6.82922
2.90453 0.473956 1.95438
3.13364 0.664196 1.55729
2.11961 0.245796 2.75199
5.00911 0.472085 7.69913
2.37109 4.23373 3.33662
4.95191 8.50009 8.50307
3.13408 0.576146 1.21307
3.16387 0.603896 2.45206
4.57086 5.59643 8.99617
2.05973 0.157392 2.37687
3.11249 0.488255 0.455321
3.03598 0.652303 2.27826
6.33346 0.33186 2.05263
8.03486 0.143137 7.70382
4.40258 0.993384 9.53478
9.39394 2.24469 8.55352
5.02092 0.285893 8.42743
2.97495 0.388403 1.79537
2.1185 0.165995 2.63375
2.43087 0.698384 1.50384
9.40162 0.26188 1.71167
2.74721 0.588968 1.45623
5.96017 0.318533 1.62955
5.19917 0.810774 8.78653
8.82547 0.56562 7.87704
6.47689 0.543317 4.95079
5.03073 0.103662 8.45883
2.96604 0.415993 1.83957
1.97577 0.496495 2.04707
3.88231 0.303466 2.77843
9.31042 0.305791 1.81376
3.98818 6.04624 6.18621
9.97041 0.497194 8.00397
4.69092 1.1983 9.72991
2.63441 0.478334 1.81666
5.45802 0.311055 8.41287
2.5665 0.733218 1.68944
4.8174 2.72702 1.71679
2.80907 0.460967 2.18822
2.31201 0.178411 1.80551
5.82663 0.668819 7.90939
6.45768 0.13457 4.58402
5.43991 0.0915421 8.52137
6.93828 0.0510275 6.98423
2.15391 0.61431 1.47395
5.60042 0.66433 8.02921
2.73745 0.383077 2.25085
7.09715 0.122972 6.76311
3.44744 0.227307 2.04792
2.40724 0.519082 2.48148
3.03198 0.494968 1.30575
3.10659 0.316971 2.06291
2.72773 0.0660976 1.72755
2.61216 0.307079 1.99411
3.25565 0.651773 2.15461
5.53789 0.443614 8.56227
3.02186 0.68546 2.62026
1.98927 0 1.54442
5.35727 0.542225 8.79681
6.2619 0.40284 1.92648
5.47402 0.0918626 8.59691
2.8444 0.697887 2.30094
6.01555 0.421883 2.15228
5.3412 0.348816 8.66434
2.74615 0.809449 2.15854
7.24368 0.30432 7.30252
2.32684 0.780207 1.50701
8.43213 0.77851 2.03511
5.46864 0.515216 8.1485
6.3438 0.431076 1.93108
5.45867 0.12367 8.62372
2.3107 0 2.71234
4.13411 7.38509 6.46924
4.61087 1.33418 9.94654
5.97346 1.07503 2.14485
4.88782 0.459175 8.4593
3.16481 1.55013 6.78737
6.04925 1.22299 2.40499
5.63709 0.24252 8.64503
7.33114 0.275536 6.86249
3.00726 0.468278 2.25398
2.37859 0.677519 1.76656
7.61846 8.0871 5.098
2.8046 0.546254 1.60906
5.82978 0.102034 2.11741
5.44078 0.623946 8.65672
4.82235 1.34122 9.36184
6.4624 0.194777 5.14475
3.35056 8.14771 7.57476
7.35506 0.335376 7.2525
2.85547 0.713516 1.43072
9.60756 0.239497 1.75101
6.30534 0.480175 1.74076
5.46959 0.585537 1.5707
6.05854 0.190479 4.94846
6.52498 0.122692 6.03915
6.99885 0.138498 6.98706
2.76372 0.344749 1.42223
3.36641 0.51625 2.23461
8.14986 0.338435 8.21771
9.96449 2.9064 0.893793
8.9252 0.0994544 1.46986
6.27665 0.377622 1.74192
1.9335 0.369415 1.28799
6.45198 0.166283 4.85447
5.02802 0.466875 8.41502
5.6932 0.37403 8.19035
2.55897 0.192144 2.00414
2.55523 0.272596 1.50662
1.62532 0.210523 2.94052
3.02113 0.542859 0.866601
9.2145 0.574338 1.81993
8.09159 0.678201 8.15647
2.32871 0.662095 2.6371
6.06821 0.642314 1.93954
2.3657 0.293315 3.01966
6.08811 0.399506 1.90778
2.57382 0.795511 2.7999
2.2639 0.545725 2.17697
2.17963 0.253044 2.20635
1.94998 0.380173 1.35043
5.93245 0.588709 5.12078
7.52164 0.315661 7.40684
7.17195 0.151791 7.13711
3.1356 0.810307 2.09045
3.44418 0.485313 2.36273
5.56252 0.0659279 4.52807
2.69878 0.224707 1.20702
5.04194 0.25398 1.32493
6.05967 0.120763 1.79999
2.99828 0.33295 2.47521
5.38417 0.75635 8.57382
3.08793 0.383159 2.99328
5.53978 0.432042 8.64164
3.19432 0.539348 2.51132
9.14398 0.569303 1.61038
9.28402 0.0455819 1.6976
3.29678 0.388237 1.75756
6.29426 0.596016 2.19091
8.75227 0.406139 1.69414
3.1216 0.522031 2.33364
5.44302 0.735415 8.68213
2.56733 0.206349 1.7978
5.42339 0.484502 8.87417
2.4008 0.684944 1.34715
9.45725 0.194008 1.45886
4.4009 1.3659 9.80495
1.89597 0.53514 2.55647
3.0775 0.162502 1.13714
9.73269 0.209023 1.61857
3.02953 0.254891 2.36151
5.45717 0.493366 7.93263
2.67417 0.796201 1.54364
5.47504 0.490745 8.09234
4.42007 0.98374 9.66229
2.38264 0.476467 1.42773
2.87947 0.619233 1.45569
5.86067 0.422772 1.6482
2.26997 0.11583 2.71415
2.91153 0.519677 1.59285
1.88149 0.066617 2.79169
3.21667 0.598335 2.40642
3.0325 0.167487 2.15435
4.99266 0.653229 7.83992
4.35344 0.981391 9.62318
2.40187 0.329487 1.41513
3.03002 0.633788 2.40843
6.83301 0.0874311 2.29547
4.75727 0.0626002 8.74124
2.72549 0.572603 1.55744
3.12124 0.443902 0.897313
6.07049 0.267999 1.73921
7.80932 0.213984 7.81586
4.94971 0.634309 8.96223
3.15791 0.634604 2.52723
2.10267 1.02824 1.67145
7.25264 0.214908 7.04041
5.17993 0.225249 8.55229
5.2996 0.652479 8.83855
5.27289 0 8.338
1.65468 0.114066 3.00223
6.0584 0.250112 1.73099
8.01579 0.166152 7.49352
5.04573 0.390058 8.42737
2.12336 0.176653 2.34029
2.29603 0.53426 3.09221
6.91907 0.132559 6.86541
5.47309 0.576111 8.62777
5.1509 0 8.65488
4.87014 0.459415 8.37787
2.91275 0.136092 1.72399
3.20829 0.623989 1.27211
3.08402 0.571941 1.47638
5.16676 0.32222 8.38935
2.0614 0.341918 1.49422
6.64358 0.00562654 4.70943
4.77724 0.163554 8.44109
2.59071 0.386985 1.20025
2.24308 0.240085 1.42561
6.24695 0.296598 5.05001
6.73046 0.470702 1.78981
3.13287 0.651939 1.26915
2.9133 0.556888 1.46565
4.91309 0.196481 8.6754
2.64259 0.502886 1.50764
6.62004 0.0287421 4.73069
4.34501 1.31642 9.65032
2.60565 0.272859 1.16074
2.82694 0.63725 2.41747
9.80678 0.486002 1.64718
6.76201 0.47108 1.79354
POINT_DATA 400
SCALARS particleColor float 3
LOOKUP_TABLE default
0 0.414951 1
0 0.638576 1
0 0.861381 1
0 0.69922 1
0 0.273307 1
0.03317 1 0.96683
0 0.702552 1
0 0.623986 1
0 0.822291 1
0 0.782844 1
0 0.584679 1
0 0.581955 1
0.076827 1 0.923173
0 0.606866 1
0.0478493 1 0.952151
0 0.593034 1
0 0.202485 1
0 0.372821 1
0.140987 1 0.859013
0 0.658981 1
0 0.464958 1
0.470671 1 0.529329
0 0.94603 1
0.440093 1 0.559907
1 0.384183 0
0 0.872279 1
1 0.48172 0
0 0.58154 1
0 0.677143 1
0 0.384709 1
0.175461 1 0.824539
0 0.727601 1
0 0.499932 1
0 0.516558 1
0 0.467896 1
0 0.297603 1
0.21775 1 0.78225
0 0.366798 1
0 0.269767 1
0 0.398276 1
0 0.962847 1
0 0.544722 1
0 0.937631 1
0.649179 1 0.350821
0 0.302638 1
0 0.685657 1
0.260022 1 0.739978
0 0.811291 1
0 0.503736 1
0.779298 1 0.220702
0 0.680776 1
0 0.837029 1
0 0.955294 1
0 0.888729 1
0 0.46691 1
0 0.505308 1
0 0.406518 1
0 0.70577 1
0 0.534842 1
0 0.416847 1
0.525443 1 0.474557
0 0.94896 1
0 0.883868 1
0 0.259557 1
0.305255 1 0.694745
0 0.460119 1
0 0.553346 1
0 0.757504 1
0 0.489 1
0 0.639431 1
0 0.99353 1
0 0.465829 1
1 5.96046e-08 0
0 0.237282 1
0.187128 1 0.812872
0 0.491204 1
0 0.501846 1
0 0.708093 1
0.108763 1 0.891237
0 0.909018 1
0 0.284211 1
0 0.484104 1
0 0.31225 1
0 0.407087 1
0 0.639486 1
0 0.320427 1
0 0.628527 1
0 0.70766 1
0.104976 1 0.895024
0 0.513659 1
0 0.506113 1
0 0.465548 1
0 0.651001 1
0 0.505395 1
0 0.765694 1
0 0.183436 1
0 0.457833 1
0 0.367091 1
0 0.360104 1
0 0.57021 1
0 0.682415 1
0 0.427535 1
0 0.523304 1
0 0.935982 1
1 5.96046e-08 0
0 0.452505 1
0 0.769301 1
0 0.564043 1
0 0.195988 1
0 0.988155 1
0.229524 1 0.770476
0 0.56379 1
0 0.684029 1
0 0.466575 1
0 0.469523 1
0 0.959854 1
0 0.792322 1
0 0.586277 1
0 0.439556 1
0 0.821203 1
0 0.18378 1
1 5.96046e-08 0
0 0.785424 1
0.304005 1 0.695995
0 0.803414 1
0 0.619227 1
0 0.95766 1
0 0.547816 1
0 0.55109 1
0 0.899075 1
0 0.346454 1
0 0.41463 1
0 0.613253 1
0 0.156796 1
0.199232 1 0.800768
0 0.531513 1
0.598687 1 0.401313
0 0.4159 1
0.208733 1 0.791267
0 0.808268 1
0 0.39991 1
1 0.818769 0
0 0.792 1
0 0.822301 1
0 0.649358 1
0 0.331492 1
0 0.312753 1
0 0.606263 1
0 0.385307 1
0 0.709763 1
0 0.452031 1
0 0.0593491 1
0 0.977184 1
0 0.635501 1
0 0.240415 1
0 0.618939 1
0 0.832046 1
0 0.464375 1
0 0.127201 1
0 0.597353 1
0 0.750068 1
0 0.427291 1
0 0.873649 1
0 0.0938143 1
0 0.208093 1
0 0.640814 1
0 0.873283 1
0 0.792672 1
0 0.37135 1
1 5.96046e-08 0
0 0.971939 1
0 0.602151 1
0 0.987561 1
0 0.556815 1
0 0.690135 1
0 0.768038 1
0 0.839884 1
0 0.377299 1
0 0.831815 1
0.493008 1 0.506992
0 0.526592 1
0.00209655 1 0.997903
0.0955286 1 0.904471
0 0.841404 1
0 0.627549 1
0 0.172691 1
0 0.698454 1
0 0.354099 1
0.270071 1 0.729929
0 0.417106 1
0 0.391885 1
0 0.268809 1
0 0.298339 1
0 0.32059 1
1 0.709617 0
0 0.363667 1
0 0.757649 1
0 0.401369 1
0 0.340309 1
0 0.67491 1
0 0.673965 1
0 0.817073 1
0 0.807449 1
0 0.922227 1
0.00760736 1 0.992393
0 0.759815 1
0 0.753928 1
0.0709815 1 0.929018
0 0.960901 1
0 0.497743 1
0 0.647293 1
0 0.805122 1
0 0.466825 1
0 0.387483 1
0.381761 1 0.618239
0 0.846841 1
0 0.785684 1
0.00599289 1 0.994007
0 0.896393 1
0 0.591098 1
0.149958 1 0.850042
0 0.680915 1
0 0.465711 1
0 0.404435 1
0 0.74547 1
0 0.45979 1
0 0.98069 1
0 0.861273 1
0 0.755096 1
0 0.526526 1
0 0.906317 1
0 0.864111 1
0 0.547437 1
0 0.383352 1
0 0.39733 1
0.224943 1 0.775057
0 0.899735 1
0 0.595391 1
0 0.195343 1
0.437448 1 0.562552
0 0.628361 1
0 0.97296 1
0 0.518922 1
0.07814 1 0.92186
0 0.972063 1
0 0.784394 1
0 0.501412 1
0.120062 1 0.879938
0 0.848311 1
0 0.224333 1
0 0.22447 1
0 0.807673 1
0 0.336854 1
0 0.916706 1
0 0.698072 1
0 0.200196 1
0 0.484503 1
0 0.673679 1
0 0.604716 1
0 0.385466 1
0 0.173452 1
0 0.796668 1
0 0.33165 1
0 0.971812 1
0 0.521517 1
0 0.582409 1
0.202109 1 0.797891
0 0.625653 1
0 0.758402 1
0 0.511283 1
0 0.670263 1
0.521318 1 0.478682
0.256587 1 0.743413
0.388777 1 0.611223
0 0.381084 1
0 0.767682 1
0 0.917041 1
0 0.694594 1
0.0432041 1 0.956796
0 0.563907 1
0 0.48296 1
0 0.847826 1
0 0.755525 1
0 0.714073 1
0.32479 1 0.67521
0.276124 1 0.723876
0 0.457514 1
0.294551 1 0.705449
0 0.603807 1
0.18211 1 0.81789
0 0.457173 1
0 0.434929 1
0 0.543419 1
0 0.568911 1
0 0.838833 1
0 0.386399 1
0.173338 1 0.826662
0.0824112 1 0.917589
0 0.273261 1
0 0.765522 1
0 0.889396 1
0 0.323385 1
0.174716 1 0.825284
0 0.965234 1
0 0.641911 1
0.456823 1 0.543177
0 0.809529 1
0 0.350363 1
0 0.917296 1
0 0.623994 1
0.0246666 1 0.975333
0 0.736171 1
0 0.432395 1
0 0.485507 1
0 0.486364 1
0 0.711269 1
0.1588 1 0.8412
0.0497653 1 0.950235
0 0.406884 1
0 0.322583 1
0 0.793108 1
0 0.867515 1
0.0398303 1 0.96017
0 0.87781 1
0 0.585566 1
0 0.527558 1
0 0.602373 1
0 0.438987 1
0 0.962616 1
0 0.729287 1
0 0.876098 1
0 0.565873 1
0 0.949949 1
0 0.585645 1
0 0.515943 1
0 0.66209 1
0 0.890193 1
0 0.227031 1
0.147966 1 0.852034
0 0.583055 1
0 0.393753 1
0 0.792695 1
0 0.733077 1
0 0.366947 1
0 0.670366 1
0 0.580587 1
0 0.41447 1
0 0.839204 1
0 0.537568 1
0 0.477799 1
0.234856 1 0.765144
0 0.403852 1
0 0.788112 1
0 0.616079 1
0 0.978666 1
0 0.553654 1
0 0.538218 1
0 0.890274 1
0 0.961955 1
0 0.478883 1
0 0.73414 1
0 0.565655 1
0 0.30567 1
0.0856703 1 0.91433
0 0.879288 1
0 0.483814 1
0 0.51298 1
0.0399005 1 0.960099
0 0.484025 1
0 0.593081 1
0 0.589595 1
0 0.390205 1
0 0.731785 1
0 0.68622 1
0 0.933393 1
0 0.550772 1
0 0.309578 1
0 0.590777 1
0 0.493376 1
0 0.481535 1
0 0.552182 1
0 0.261607 1
0 0.315046 1
0 0.26095 1
0 0.541192 1
0 0.966188 1
0 0.208897 1
0 0.519265 1
0 0.925308 1
0 0.243252 1
0 0.508144 1
0 0.81601 1
0 0.471991 1
0 0.710392 1
0 0.47019 1
0 0.698348 1
0 0.276617 1
0 0.978828 1
0 0.8464 1
0 0.170149 1
