# vtk DataFile Version 3.0
Particle simulation
ASCII
DATASET POLYDATA
POINTS 400 float
6.14786 7.01669 10
2.3634 6.8301 3.43733
7.93139 4.20257 7.772
9.96823 6.30473 4.87254
8.16616 5.87621 2.20047
9.65475 7.2272 4.77019
1.64549 9.44697 7.34838
10 6.47578 7.37351
2.49379 9.44765 8.27185
6.5595 9.72966 5.33536
5.11695 0.881652 5.56145
3.778 1.98521 9.75633
0.621898 3.2705 9.65257
7.06979 9.94346 1.9972
6.1007 9.68029 9.95002
7.82632 9.08716 8.7007
9.37139 9.90295 8.93319
3.05353 0.382829 1.77573
2.26299 2.91441 2.99342
9.93988 3.06441 7.67489
3.13898 0.131042 1.75513
5.34252 5.05563 9.07151
3.33748 6.04742 1.0187
2.52199 1.98359 0.484191
4.89537 0.0448174 2.75458
9.33407 7.17255 2.60055
9.12031 6.58803 9.84255
2.4669 5.05168 8.2818
3.76068 8.96629 0.183803
2.09131 1.57028 0.648111
5.15744 1.03952 0
6.29763 8.31433 0.375756
3.64888 0 6.29125
5.42817 8.08188 0.124177
7.84095 4.60064 2.56341
8.66239 0.899581 6.76419
3.35147 9.63866 2.57185
2.96718 0.358106 1.98775
7.62592 2.15458 3.31325
7.87442 5.76607 2.37228
5.92291 7.29431 6.16073
2.02034 8.21305 0.624181
1.82973 4.59984 6.12704
0.509114 3.41403 1.49341
6.70354 0.335385 1.97795
4.09329 9.79676 6.80139
5.0103 4.81748 5.91728
6.30292 8.21747 3.27649
9.58108 1.2706 0.51653
8.9231 0.644569 8.22469
9.47479 9.72306 1.25679
3.8086 6.25127 5.46872
9.23542 7.88639 4.38083
3.88825 0.561763 6.25254
9.41423 3.81944 1.26976
3.64989 1.19843 5.96963
1.1527 1.99996 2.19047
6.40373 4.56117 2.75739
0.486827 4.19989 6.59187
4.13037 7.80321 3.19563
4.03476 8.11623 9.68243
3.32663 3.38831 8.95124
9.03632 2.02266 3.23519
10 6.8331 3.43779
4.19048 4.05761 7.40103
5.28858 2.31539 4.72353
7.33071 0.672546 4.56853
9.87861 1.15763 1.10628
5.29984 5.33185 4.76268
6.10897 5.39114 8.44984
2.40712 4.07189 2.5231
4.29685 6.47841 4.17569
8.59376 1.52728 6.43869
6.02381 1.94372 7.4555
9.38553 10 7.30913
5.71556 5.6077 3.47749
1.48049 1.376 3.73489
4.16254 7.85641 6.18716
2.22904 4.87871 1.69649
4.40689 0.0958761 9.94114
3.15963 0.786971 1.68013
0.186118 0.702831 0.284928
1.52649 1.45504 8.22349
1.00437 5.12175 1.07225
7.24084 0.565217 9.54893
3.3822 5.2226 2.58996
3.40392 9.15313 6.2855
8.87205 7.41441 6.79722
4.37339 1.89628 2.86137
6.87024 8.86076 7.84649
3.31836 0.24831 1.68444
1.0956 9.09097 7.4745
1.61699 3.60115 9.28411
0 2.81132 4.00809
3.12297 8.12711 7.72952
5.79087 1.82615 5.45194
0.860146 0.37969 1.65328
3.11796 8.57913 8.12215
7.64769 8.56496 1.89201
3.78731 8.16007 8.63963
3.48457 0 2.59591
1.04078 5.18416 8.83367
6.33281 2.95883 1.91809
8.23538 3.17301 5.92028
1.12788 5.1615 4.13207
1.36682 4.46554 0.199263
7.31497 2.94537 2.36871
2.20702 8.77529 3.12017
5.08432 9.84919 8.93239
1.14541 5.602 8.87082
1.03482 2.52652 9.21686
2.32728 1.68105 2.2465
7.62504 2.15746 0.245591
4.1361 0 5.71895
1.74024 0.132978 0.635479
1.4958 7.4048 2.02042
1.70007 0.757913 9.05128
9.58905 9.39181 1.81529
6.34993 2.35055 2.14945
9.08359 0.966474 10
9.12574 4.95808 8.93357
9.68438 7.3847 6.23416
0.91534 4.79074 0
3.17304 5.59672 4.56978
7.79521 7.26333 5.14266
3.43757 0.303145 2.84152
1.07812 0.18172 6.88978
4.05864 5.57176 7.92838
1.30659 2.15595 0.541983
3.07124 6.91162 5.67282
5.5752 9.87328 5.43465
1.63846 6.50412 5.2344
4.3022 6.56757 4.61338
0.469703 2.54676 0.732482
0.589209 2.58516 9.37403
2.18124 4.54423 1.31445
9.24121 1.16356 9.98422
4.90379 3.52602 7.72482
2.55475 0.997255 8.84892
5.90219 9.11261 1.54562
3.61537 0.40545 1.41339
8.97521 7.14599 4.98731
8.22121 0.748741 9.33347
8.70304 5.75633 4.30617
1.81206 0.278438 0.649656
5.03643 1.11546 0.673573
9.44548 3.25955 9.4214
2.84983 9.37587 0.769531
1.90425 2.35513 4.778
9.55157 0.98669 4.45596
3.56608 0.204826 1.74334
1.11859 6.34026 3.31591
1.66819 4.05065 7.7125
3.0935 0.0781593 1.83816
10 1.34891 7.50884
5.72519 0.760884 5.13748
4.44989 7.30835 2.39308
3.29287 0.627992 5.53565
9.89588 9.85625 4.94703
7.32088 1.53182 0
0.861664 6.26325 7.41805
8.39569 4.7867 6.25547
7.60525 8.76037 2.04621
8.34403 6.10805 6.76265
0.109436 2.87248 1.98563
9.4262 8.51832 6.67667
5.34931 8.3964 6.11487
7.3502 8.4941 2.81604
9.41652 5.17303 7.71212
7.21857 3.95742 4.74962
3.09724 0.231619 2.00731
7.33673 9.44695 9.25354
0.515184 3.40438 3.4578
6.15136 0.874214 4.85185
2.62748 2.85183 5.66607
4.33587 9.94373 6.487
0.123133 2.42973 0.852818
8.41722 8.40154 8.19293
4.66763 4.67086 8.3316
3.53801 6.92745 7.40775
3.7442 0.494976 1.66974
7.01056 8.40313 0.291534
5.18683 8.43626 5.60258
3.97884 9.97811 4.06578
8.66521 3.34961 3.31683
1.93936 7.43749 7.12496
3.82802 0.20311 1.87456
1.52826 7.2498 7.49617
3.55966 0.300363 1.92267
1.83542 0.512263 0.889218
3.50273 0.13095 1.65318
3.34999 0.6832 2.14704
9.91237 4.12167 7.66793
7.6458 3.99881 3.32989
7.54358 4.28054 9.88547
3.80161 0.636839 1.38173
4.99967 1.73757 9.96327
0.628878 9.37047 5.21032
3.16783 0.0774862 1.73981
3.23267 0.477483 1.79501
3.44894 0.415516 2.05886
8.25467 5.05765 7.08571
8.80756 3.64696 6.52763
8.71758 3.95826 3.45807
1.05332 7.81507 5.64893
4.23431 1.51548 6.64161
3.53458 0.530171 2.05735
1.46399 0.0452568 5.95063
2.93507 0.979326 8.73009
1.86315 1.9281 0.642574
3.50869 0.152486 1.94486
3.42398 0.423531 1.84697
7.69335 0 6.97128
1.95602 5.65002 9.05819
4.51264 4.72593 4.02732
4.41596 0.752768 8.54583
3.27784 0.0731646 2.04902
4.06353 1.1173 3.68298
2.76677 6.05276 0.708255
5.43614 2.57171 1.93256
5.87434 2.39644 0.253882
3.4248 3.4567 5.98072
5.16018 4.08242 0.791484
3.10168 0.152006 2.40146
9.98134 6.4439 3.95076
10 9.27307 1.61928
9.28559 8.22852 0.574104
3.79065 0.0371861 2.25213
3.37887 0.236288 1.86052
7.06663 3.14232 2.99688
2.53251 4.95353 5.97309
4.85261 3.36331 4.54342
9.29825 3.13323 6.12812
3.2348 0.567328 2.55151
1.55635 0.284732 9.10122
9.18511 8.47639 0.48777
0.878253 8.52529 0.0296649
9.73285 6.64989 9.53754
3.43992 0.229427 1.45748
6.46321 2.96856 0.48785
3.24466 0.501454 1.70623
4.11714 0.324536 1.98593
3.08552 0.581853 1.74885
3.13514 0.21383 1.83198
6.62411 3.43665 7.78308
4.09848 5.77031 8.35456
6.8578 7.50687 2.33701
7.8688 2.92754 0.214865
2.41286 8.01215 4.06865
2.48001 8.58633 6.46615
3.76074 0.846427 1.48002
6.53428 6.15119 7.30674
0.403831 0.560775 6.88929
1.96758 2.51401 7.6332
9.15459 0.269316 7.58608
3.37033 0.105785 1.07373
5.84658 7.93441 0.724996
2.0687 0.516232 8.76525
1.2386 4.72521 8.89157
1.68373 0.365294 8.94508
3.25353 0.296712 1.25462
8.02768 3.63728 8.24715
9.9196 1.11283 7.91565
1.59176 0.241208 1.85055
0.432923 1.4908 7.99154
7.23983 0.272872 0.745479
6.7007 0.869744 1.98457
1.79353 0.637591 9.00208
1.05604 5.5115 5.29908
2.8556 0.330826 1.522
2.55709 0.160216 1.90404
9.75346 4.02874 8.06359
6.82889 4.4809 0.952919
0.274879 0.424227 6.46379
6.76253 0.735098 2.17018
1.67531 0.899741 7.51463
8.92244 6.97719 2.54169
9.70121 6.00951 0.547559
8.72488 3.11736 8.80681
3.1257 0.368928 1.78004
1.82639 0.110785 5.56914
7.70497 0.495975 0.581478
1.71712 6.04943 5.03398
3.91176 0.490116 8.92759
5.0394 5.80141 9.94574
3.75343 6.87933 7.80211
3.62898 0.353912 1.77223
2.72013 0.497732 4.50092
6.87018 3.68862 9.68759
2.83113 1.88262 9.62406
2.52707 9.19102 7.15433
7.8059 2.56835 2.4141
3.37785 0.308831 2.30226
3.25531 0.945187 3.81807
0.80325 1.29158 7.56223
1.82828 0.61749 9.40632
3.26605 0.455712 2.07373
3.61407 0.63394 2.01265
4.06117 0.961682 2.05974
3.05494 0.287846 2.07095
2.51165 1.7024 1.09296
8.99085 4.35026 3.25793
5.28928 0.211528 5.02522
0.0236827 9.31678 4.40714
3.71892 0.690144 1.70735
2.81332 0.566672 4.87887
3.3149 0.467336 2.16646
2.98061 0.627234 1.85533
1.09641 1.53671 4.19757
8.67624 7.16755 2.30727
2.86575 0.850934 6.36325
9.77767 4.05581 5.91167
4.23401 7.85892 4.06605
3.31026 0.177741 1.63302
6.61507 0.567064 7.88218
3.9347 1.46581 3.1218
3.14575 1.22739 3.93735
10 5.53074 4.5665
5.88269 1.39589 3.11503
2.02026 9.61676 1.23932
2.0399 0.40758 9.45907
0.758333 6.45072 9.71029
2.02283 0.738982 8.65977
3.74028 0.357332 1.61641
2.21907 0.0373909 5.51887
9.50967 3.39137 0.389373
3.57869 0.530622 2.5069
3.19307 7.4652 3.15217
6.37228 0.34108 5.2961
3.29096 0.290863 1.64538
0 0.686891 4.56406
3.08146 0.517083 1.62266
3.2749 1.10484 9.716
3.10117 0.437519 1.33689
7.69293 0.306259 0.754736
4.24379 2.44462 1.81665
1.29125 4.66451 8.50345
3.16522 0.504397 1.71303
0.0848585 5.12564 6.46269
7.38822 6.41626 6.32337
7.20429 4.06092 4.83808
8.55935 8.09743 6.62492
3.24212 0.997337 9.77592
1.72499 0.319152 8.94763
3.27044 0.53576 1.54973
3.29348 0.291796 1.44615
7.64849 0.214698 0.742732
3.19153 0.297772 1.53227
3.65374 0.24394 1.7815
6.30977 7.53088 7.93721
3.33758 0.24226 2.46967
3.32775 0.0598088 1.71941
0.332793 3.83631 3.0532
1.75304 0.596232 9.17749
3.20102 0.169155 1.3406
3.48256 0.219069 1.23448
3.35068 0.628897 4.23252
3.19316 0.655265 9.48061
4.00254 0.586197 1.2523
3.25687 0.282531 2.05624
7.4677 0.247543 0.432219
1.69829 0.474349 9.06835
1.7451 0.538307 8.78835
3.1688 0.450044 1.10194
2.97713 0.625689 1.8481
7.93479 0.685852 0.6897
1.85378 0.301294 8.75833
6.01822 9.07994 1.07223
1.68162 0.594175 9.11251
3.14455 1.93964 8.46352
7.37912 0.226203 0.350852
1.60392 0 7.47348
0.965423 0.482687 7.69807
3.07178 0.5383 1.50559
3.80138 0.422089 1.632
7.54448 0.687278 0.600143
1.9599 0.577453 8.37541
1.71165 0.139214 9.43379
4.17201 0.496096 8.88283
3.30354 0.437845 1.44176
3.61658 0.348967 1.71071
2.91954 0.264498 2.15037
4.21048 0.654336 8.81526
2.83831 0.516838 1.83937
6.38272 0.21451 3.68974
2.10004 0.522683 8.79762
3.3694 0.563583 1.75628
3.22018 0.316958 1.66226
6.75433 3.14836 1.10063
8.9651 0.210657 2.69734
3.22621 0.468121 2.24358
3.15094 0.257421 2.16592
1.58071 0.637084 8.47423
3.26298 0.184855 2.04798
3.23887 1.05728 3.93882
1.8843 0.755965 8.63839
3.40407 0.531883 1.81257
1.44675 0.700839 9.81441
6.53143 1.00769 1.87769
7.3071 0.0973872 0.405543
POINT_DATA 400
SCALARS particleColor float 3
LOOKUP_TABLE default
1 5.96046e-08 0
0 0.877814 1
1 0.735588 0
1 0.705666 0
1 5.96046e-08 0
0.101776 1 0.898224
1 0.524047 0
1 0.552029 0
1 0.857037 0
1 5.96046e-08 0
0.163048 1 0.836952
0.491651 1 0.508349
1 0.550919 0
1 0.978209 0
1 0.799183 0
0.675969 1 0.324031
0.991239 1 0.00876099
0 0.660814 1
0.898335 1 0.101665
1 5.96046e-08 0
0 0.434557 1
1 5.96046e-08 0
1 5.96046e-08 0
1 0.687307 0
1 0.189913 0
0 0.904057 1
0 0.613625 1
0.817315 1 0.182685
1 0.998577 0
0.369315 1 0.630685
1 5.96046e-08 0
0.190712 1 0.809288
1 0.0164106 0
1 0.913875 0
1 5.96046e-08 0
1 5.96046e-08 0
0.472706 1 0.527294
0 0.634177 1
0.482562 1 0.517438
1 5.96046e-08 0
1 0.952698 0
1 5.96046e-08 0
0.878884 1 0.121116
0.49215 1 0.50785
0 0.447317 1
1 5.96046e-08 0
0.689862 1 0.310138
1 5.96046e-08 0
1 0.840367 0
0.684094 1 0.315906
1 0.50898 0
1 0.144645 0
1 5.96046e-08 0
1 5.96046e-08 0
1 5.96046e-08 0
0.236428 1 0.763572
0.277046 1 0.722954
0.601958 1 0.398042
1 0.0692382 0
1 0.756732 0
1 5.96046e-08 0
1 5.96046e-08 0
1 0.0432296 0
1 0.738308 0
1 0.774913 0
1 5.96046e-08 0
0.241113 1 0.758887
1 5.96046e-08 0
1 0.644267 0
1 5.96046e-08 0
1 5.96046e-08 0
1 0.787939 0
1 5.96046e-08 0
0 0.714235 1
1 0.369566 0
1 5.96046e-08 0
1 5.96046e-08 0
1 5.96046e-08 0
0 0.917398 1
1 0.773268 0
0 0.338535 1
0.712078 1 0.287922
0.000566244 1 0.999434
1 5.96046e-08 0
0.272789 1 0.727211
1 0.669399 0
1 5.96046e-08 0
0.317651 1 0.682349
0.685985 1 0.314015
1 5.96046e-08 0
0 0.802053 1
1 0.882804 0
1 0.156858 0
1 5.96046e-08 0
1 0.312267 0
0.349536 1 0.650464
0.39754 1 0.60246
0 0.909758 1
1 0.866793 0
0.847864 1 0.152136
0 0.480191 1
0.262684 1 0.737316
1 0.414898 0
0.759736 1 0.240264
1 5.96046e-08 0
0.867947 1 0.132053
1 0.707811 0
0 0.941762 1
0.737893 1 0.262107
1 0.576055 0
0.336596 1 0.663404
1 0.774949 0
1 5.96046e-08 0
1 5.96046e-08 0
0.0221963 1 0.977804
1 5.96046e-08 0
0 0.409731 1
1 5.96046e-08 0
1 0.496214 0
1 5.96046e-08 0
1 5.96046e-08 0
1 0.734669 0
1 5.96046e-08 0
0.537617 1 0.462383
0.485721 1 0.514279
0 0.29434 1
1 0.95677 0
0.7386 1 0.2614
0.165679 1 0.834321
1 0.961899 0
1 5.96046e-08 0
1 0.167674 0
1 5.96046e-08 0
0.820325 1 0.179675
1 0.850188 0
1 0.589932 0
0.323651 1 0.67635
0 0.899556 1
0.480009 1 0.519991
1 0.0262051 0
0 0.950644 1
0.553749 1 0.446251
1 5.96046e-08 0
1 5.96046e-08 0
0 0.812135 1
0.340643 1 0.659357
0.425179 1 0.574821
1 0.770482 0
1 0.753064 0
1 5.96046e-08 0
0 0.536457 1
1 5.96046e-08 0
1 5.96046e-08 0
0 0.679562 1
1 5.96046e-08 0
0 0.915557 1
0 0.904022 1
0.755583 1 0.244417
1 5.96046e-08 0
1 0.246483 0
1 5.96046e-08 0
1 0.672809 0
1 5.96046e-08 0
1 5.96046e-08 0
0.206014 1 0.793986
1 5.96046e-08 0
0 0.857558 1
0.060176 1 0.939824
0.846923 1 0.153077
1 0.416485 0
0 0.561299 1
1 5.96046e-08 0
0.512949 1 0.487051
0.886525 1 0.113475
0 0.649406 1
1 0.0553781 0
0.240456 1 0.759544
0.662235 1 0.337765
1 0.259036 0
1 5.96046e-08 0
0 0.598756 1
0.727283 1 0.272717
0 0.572602 1
1 5.96046e-08 0
1 5.96046e-08 0
1 0.0093438 0
0 0.534421 1
0.486441 1 0.513559
0.222116 1 0.777884
0 0.765501 1
0 0.709105 1
0 0.488223 1
0 0.559678 1
1 5.96046e-08 0
0.290125 1 0.709875
0 0.670321 1
1 0.213952 0
1 0.766354 0
0.121559 1 0.878441
0 0.843387 1
0 0.722013 1
1 5.96046e-08 0
1 5.96046e-08 0
0 0.78537 1
1 5.96046e-08 0
0.394646 1 0.605354
0 0.691128 1
1 0.947555 0
0.989491 1 0.010509
1 5.96046e-08 0
0 0.550488 1
0 0.707229 1
1 5.96046e-08 0
1 5.96046e-08 0
0.178976 1 0.821024
0 0.679979 1
0 0.634547 1
0.618348 1 0.381652
0.0830207 1 0.916979
0 0.15929 1
1 5.96046e-08 0
0.218295 1 0.781705
1 0.892245 0
0 0.646349 1
0 0.789364 1
1 5.96046e-08 0
1 0.561452 0
0 0.324413 1
0 0.699871 1
1 5.96046e-08 0
1 5.96046e-08 0
1 5.96046e-08 0
1 5.96046e-08 0
0 0.312052 1
0 0.472741 1
0.0392799 1 0.96072
1 5.96046e-08 0
0.963127 1 0.0368729
0 0.448062 1
1 5.96046e-08 0
0 0.734717 1
0 0.632384 1
0 0.899688 1
0 0.796852 1
1 5.96046e-08 0
0 0.737696 1
1 5.96046e-08 0
0 0.723278 1
1 5.96046e-08 0
0.797774 1 0.202226
0.110746 1 0.889254
1 5.96046e-08 0
0.733074 1 0.266926
1 5.96046e-08 0
1 5.96046e-08 0
0 0.146619 1
1 0.997201 0
0 0.624586 1
0.652617 1 0.347383
0 0.55291 1
0 0.858423 1
0.0146335 1 0.985367
1 0.500272 0
0.0055258 1 0.994474
0 0.48521 1
1 5.96046e-08 0
0.173666 1 0.826334
0 0.698654 1
0.350742 1 0.649258
0 0.764113 1
0 0.192412 1
0 0.893576 1
1 5.96046e-08 0
1 5.96046e-08 0
0.340473 1 0.659527
0.681743 1 0.318257
0.0506571 1 0.949343
1 5.96046e-08 0
1 5.96046e-08 0
0 0.355453 1
0 0.758906 1
0 0.665827 1
1 0.0582449 0
0.387059 1 0.612941
1 0.0745581 0
1 5.96046e-08 0
0 0.646384 1
1 0.0581749 0
1 5.96046e-08 0
1 5.96046e-08 0
0.462574 1 0.537426
1 5.96046e-08 0
0 0.72338 1
0.227019 1 0.772981
0.0340286 1 0.965971
0 0.762492 1
0 0.311635 1
0 0.521641 1
0.682599 1 0.317401
0 0.473925 1
1 5.96046e-08 0
0 0.672483 1
0.759516 1 0.240484
0.983617 1 0.0163828
0 0.392256 1
0.0660689 1 0.933931
0 0.203826 1
0 0.553784 1
0.661221 1 0.338779
0 0.635344 1
1 0.978279 0
1 5.96046e-08 0
1 0.933934 0
0 0.479889 1
1 0.365357 0
0.638185 1 0.361815
0.234996 1 0.765004
1 5.96046e-08 0
0.307994 1 0.692006
0.0480334 1 0.951967
0 0.215503 1
1 5.96046e-08 0
0 0.284631 1
0 0.77604 1
0.0104613 1 0.989539
1 0.0428297 0
0 0.5953 1
0.922181 1 0.0778193
1 5.96046e-08 0
0 0.742404 1
0 0.826374 1
0.170215 1 0.829785
0 0.205728 1
0.129175 1 0.870825
0 0.83558 1
1 0.54591 0
0 0.543057 1
0 0.34545 1
0.511795 1 0.488205
1 0.807129 0
0.706375 1 0.293625
0.64715 1 0.35285
0 0.672212 1
0 0.567759 1
0 0.198295 1
0 0.96779 1
0 0.887224 1
0 0.889949 1
0 0.700944 1
0.128107 1 0.871893
0 0.614267 1
0 0.124987 1
0 0.741589 1
0.256865 1 0.743135
0 0.830658 1
0 0.636419 1
0 0.875587 1
0 0.502232 1
0 0.297037 1
0 0.748097 1
0 0.364901 1
0 0.409017 1
0 0.340493 1
0 0.447542 1
0 0.892361 1
0 0.547822 1
0 0.772487 1
0.283315 1 0.716685
0 0.488849 1
1 5.96046e-08 0
0 0.455144 1
0.695028 1 0.304972
0 0.525282 1
0 0.828676 1
0 0.558148 1
0 0.70967 1
0 0.542147 1
0 0.596931 1
0 0.293611 1
0 0.886846 1
0 0.858464 1
0 0.254712 1
0 0.229751 1
0 0.397911 1
1 0.969477 0
0 0.765104 1
0 0.258617 1
0 0.566167 1
1 0.838154 0
0.168688 1 0.831312
0 0.930754 1
0 0.692959 1
0 0.640002 1
0 0.551893 1
0 0.821528 1
0 0.323066 1
0 0.42796 1
1 0.871812 0
0 0.548814 1
0 0.374004 1
