# vtk DataFile Version 3.0
Particle simulation
ASCII
DATASET POLYDATA
POINTS 400 float
9.24527 10 1.01282
5.9796 2.53764 0.803186
9.72258 6.30873 6.81066
2.76006 8.06187 6.07189
0.661521 4.46753 4.04914
2.2607 5.1989 8.61195
7.11539 8.83179 1.99859
9.53833 5.61469 3.85011
2.51633 5.10877 4.41463
8.07136 4.67813 2.15742
9.33841 1.38947 6.22605
6.41378 6.6666 2.79466
5.32494 5.13714 1.71535
3.27489 5.52946 1.93482
4.61481 3.98511 5.94314
4.75055 3.66721 0.800111
2.98361 8.51017 1.12103
2.55137 4.95904 5.54164
9.45157 7.27136 4.88415
7.35954 3.69868 0.454601
4.2004 3.74347 8.03602
9.37915 7.71628 5.95005
7.79605 7.30536 1.91672
4.84493 3.56216 4.41985
8.72935 8.78776 1.99897
4.97205 4.47271 5.39164
0.89703 7.68132 7.87452
2.43065 7.55881 4.5167
3.23479 4.55214 4.96781
2.42902 7.41788 7.13572
4.66141 0.917888 6.72884
0 9.74874 4.76055
2.70738 9.96886 3.5596
7.24845 9.36384 8.62491
2.99131 8.08825 9.46244
6.07157 6.62148 9.68698
3.71925 8.96478 1.64553
9.38725 1.44713 6.09412
4.84248 0.857458 9.29158
2.96986 8.40913 8.56096
4.97553 3.35157 6.75855
2.21535 2.58024 8.0289
7.55453 2.95804 3.92909
6.91122 9.57189 9.73037
5.08379 7.96852 6.53286
7.71048 2.3619 7.00198
6.86213 8.47083 8.73581
6.09772 6.85698 0
2.41589 9.93196 1.20411
9.74671 7.70305 5.98529
2.35533 8.29168 0.488577
3.46179 1.57796 2.76009
2.6637 4.2071 6.44829
3.08232 1.03037 8.68753
7.36167 5.98525 3.37189
9.91695 6.63874 7.85875
7.22717 2.20423 4.06981
3.15089 7.51111 8.2389
1.08936 2.81696 4.16948
6.17706 1.37556 5.08995
0.530774 7.87834 7.28362
4.58877 7.38703 8.34594
7.79453 9.45325 0.558115
7.98497 3.16458 4.75702
1.94618 9.0949 7.5428
3.17527 4.15552 0
1.80274 5.99159 3.73648
3.29382 3.85206 2.06392
3.13837 1.24949 1.12102
8.99117 2.24816 4.61834
8.50075 3.25704 6.10904
2.67224 6.37771 3.2352
4.11573 5.55311 7.71747
0.279679 2.89772 0.235024
0.795966 3.5059 7.74543
4.89095 1.4697 8.54024
4.78747 0.571125 9.24516
5.83424 5.84961 7.53847
0.652748 4.5856 2.65963
9.48398 4.65475 9.93066
1.31366 0.519515 5.00878
6.79449 9.69428 0.487655
8.00128 0.167401 6.13122
4.44351 6.05092 8.06048
6.23321 6.72654 10
9.75951 1.23678 0.667082
5.00468 0.596892 2.20837
0.669001 9.14167 0.526628
2.80739 1.46847 0.19655
6.99292 2.74906 8.98671
7.74957 6.77034 7.85771
8.8349 1.61364 5.47291
0.52444 9.94843 4.98593
1.86066 7.25791 0.399231
8.63597 4.83502 6.79307
8.1539 4.73803 1.11752
4.67502 1.65799 0.945822
1.85044 2.21657 1.3412
9.01684 2.66574 4.45553
7.54401 2.58931 2.10644
8.34056 6.63701 7.31137
8.73655 7.61391 7.36443
3.69463 6.05598 3.0306
10 5.87065 4.43141
3.05535 0.616459 6.02544
9.82784 6.33406 0
9.10851 9.06576 7.29211
4.87595 1.46391 9.49339
5.40156 2.77053 1.36979
0.161225 9.15181 0.216877
3.37725 6.84837 1.46176
5.62627 9.50051 4.90878
5.26486 9.5448 7.91754
3.78321 0.86369 9.00559
9.8519 0.962032 5.56086
9.50236 5.45424 5.8397
4.02318 9.07824 1.32365
1.57443 6.27118 0.18813
9.29919 3.58475 2.42708
6.72207 1.78034 4.75802
6.47787 8.32096 2.10066
9.36062 3.24568 8.9086
7.17347 1.14277 9.96469
3.54138 3.49075 9.47316
10 4.45949 2.68379
3.30711 0 7.69942
1.6882 1.82465 8.26681
2.71836 8.29102 7.28051
3.82657 3.42912 6.98925
1.0808 0.581938 8.83792
2.83286 8.42782 5.50596
4.81726 8.00521 8.78863
1.84143 3.55792 6.1432
3.06419 0.893607 0.837614
7.70576 0.655518 0.862009
9.19578 2.67661 9.05219
2.99834 4.11236 2.3992
9.6361 0 7.94782
9.92504 3.83584 1.51389
4.83955 4.42895 0.372017
1.74352 3.30476 4.96677
9.52377 5.54122 5.69673
8.85091 9.99147 4.66813
4.72475 8.30566 8.89825
1.72036 2.09118 9.38548
4.01329 8.29556 3.97072
2.55941 2.89983 3.75679
9.3833 8.04673 1.035
9.33805 1.03894 8.75028
0.469018 5.57089 9.63285
7.16318 0.27795 7.58859
8.36561 6.20248 4.70289
9.6912 0.918512 3.07893
0.287009 8.99168 2.03302
2.33332 2.24534 8.1108
4.03632 1.7854 1.68512
0.177829 3.45882 0.808401
8.1017 8.76725 3.98395
1.82312 9.54465 0.109697
0 8.57058 3.69121
1.79235 1.53188 9.86082
9.95153 1.09056 8.21334
0.308472 5.95979 4.74613
4.52507 6.36819 7.74161
0.0510785 0.899938 0
3.24147 0.446773 9.05076
5.78452 5.72262 4.49959
5.34952 5.20375 1.48868
6.02289 5.73283 1.04316
2.50892 7.98122 4.04938
7.83018 3.56518 5.39443
7.9293 4.08431 9.71723
3.36233 0.695981 3.80741
1.6785 7.12257 1.28101
4.97854 8.13945 6.87427
7.31564 9.86287 2.15443
7.10527 5.21085 9.60447
2.28142 1.65914 2.58225
9.48133 6.45109 0.784643
0.434139 2.16623 0.981623
7.69959 1.39553 7.69697
8.63157 2.53593 8.77315
2.86854 3.08235 6.24337
9.46763 3.87224 4.16982
0.6645 10 1.46439
3.5531 1.79319 9.75566
0.62097 2.97264 1.61381
9.55709 2.88185 4.2701
9.51665 7.36079 5.96047
10 3.42222 2.59832
0.466637 10 9.05719
7.32723 2.22942 4.31176
4.86143 5.72895 6.4506
6.90232 7.496 0.404767
9.27039 3.52817 8.28816
2.1554 3.5532 8.5103
0.68286 9.38754 7.50138
7.99536 4.82692 1.19443
1.2305 1.34467 8.07812
2.6307 3.36102 2.99465
3.60705 5.95609 9.17267
6.05974 8.81877 8.17033
8.8543 5.04337 1.27005
7.18897 6.41705 0.91063
2.53513 5.30356 5.89516
2.64565 7.3107 1.83271
4.49928 1.02881 4.49594
9.90688 5.78181 5.50477
9.83034 7.3535 2.02584
6.93809 0.59978 8.43225
3.70832 2.68751 9.67138
3.3945 7.70476 7.87142
7.1057 7.46678 9.4993
8.91301 8.12999 9.1637
1.21342 3.70203 4.72621
4.2566 1.02566 6.80588
8.8089 5.001 2.06519
2.15557 3.29194 0.804867
7.59345 2.06665 9.14421
1.7528 0.412976 3.38809
4.56492 9.44441 3.18266
5.08626 2.42817 9.48165
6.75741 4.17757 2.61161
9.27143 9.48168 4.10154
4.28901 6.88507 6.99472
7.71994 9.0897 1.74445
0.658655 4.57338 3.71638
4.51848 2.17288 0
6.97215 0.664046 7.87545
8.02967 7.81553 6.32727
8.63796 3.39511 8.04722
8.06409 5.68043 5.38206
5.56026 6.5036 4.26144
4.9444 7.15171 4.12404
8.60178 2.77028 4.17521
9.00359 7.11788 3.98525
2.00045 1.23342 8.43121
8.95599 5.5684 7.41729
7.55129 4.21468 8.49341
6.32954 0.937552 3.49279
7.10965 0.700643 7.54721
6.10342 1.49616 8.82498
2.55433 9.76969 3.5392
7.41722 7.35401 5.6767
7.00618 7.03048 0.609224
2.10469 0.602273 8.96683
3.59705 1.92938 4.0112
7.39056 4.86805 7.68148
0.354074 3.91408 6.63616
3.63189 1.32834 3.30071
1.15161 0.449696 4.66665
1.13823 0.711002 7.7264
3.46645 4.70574 3.49761
9.82063 8.93261 8.33298
0 1.01088 9.96704
3.63296 6.81478 6.48872
3.99026 1.73773 2.27476
7.19757 1.40885 4.23725
4.05888 4.59106 3.47346
9.6109 1.28678 9.03601
8.76023 4.24595 6.37027
8.34977 6.06776 6.07987
0.22777 3.36776 7.65004
6.77907 4.30544 4.42418
5.45731 6.64846 1.45324
1.91017 1.02716 4.77351
7.87565 3.81611 9.26271
2.22255 2.02075 4.51961
0.435998 6.18484 4.45581
5.44474 4.91068 1.03338
1.47437 0.779311 5.34561
0.0909538 7.81834 2.94994
5.95962 5.18774 5.42949
5.63264 2.80707 3.96354
7.3296 5.99688 2.27489
9.03266 1.42002 4.67907
7.11058 9.56227 3.63196
4.67081 8.56428 3.28833
1.17874 0.755349 8.28844
8.40597 0.802902 5.45498
3.44757 2.71691 6.56297
5.32876 0.517303 3.42201
7.84431 3.02826 5.9793
7.67104 0 9.26344
0.108058 1.80067 8.36633
5.94215 0.719977 9.75944
3.22456 1.96717 5.4168
1.79383 1.70999 0.794448
8.94087 1.17957 3.48421
1.10481 3.88454 5.82607
8.20422 7.84557 3.12141
5.30512 8.54933 4.82788
1.00794 6.71802 6.12555
4.87813 8.82597 8.3567
4.50609 1.80824 0.744808
7.08599 4.02905 4.08747
4.18113 0.942947 8.73544
0.330968 1.7812 0.905801
7.30653 0.595376 7.46597
1.47683 0.630674 3.56236
9.82508 0.550281 3.91063
5.87404 7.99586 9.10941
7.18873 0.131481 6.99685
2.18417 3.41213 3.9288
7.09399 0.756517 7.7455
3.04213 5.4337 4.91802
8.84304 8.19559 9.0872
6.59663 0.403544 7.89092
7.46102 7.83388 6.84576
3.52259 0.885403 7.2505
2.70879 8.6621 5.32001
3.01997 2.6216 9.42048
3.2617 7.50333 9.59378
7.16526 1.11819 7.10881
7.74328 4.02802 2.77077
5.69781 1.2711 0.794881
9.36327 0.0337865 8.10948
7.13291 0.0281092 6.48785
5.09197 7.63649 9.22533
3.22724 4.37902 2.79017
3.63351 9.43471 1.02677
8.99735 8.82974 0.755444
0.792206 5.56932 6.22995
8.63841 0.433706 4.50754
7.14897 0.660617 7.79352
9.35409 4.36796 0.779542
4.53216 8.5045 5.70686
0.70627 8.03464 5.68441
7.07015 2.01152 9.4877
7.03673 0.356684 7.61149
3.90469 1.64455 8.66788
1.4959 0.543849 3.42998
9.6329 3.67162 8.38658
7.85558 8.14538 7.50555
8.09835 9.44596 4.71876
5.85297 3.16893 8.11953
5.28266 2.4522 9.34201
7.0732 0.630465 7.52029
3.69595 8.09625 2.25013
0.30252 8.83196 3.09958
6.95819 9.00111 9.61075
3.01671 8.36528 2.36132
5.20634 8.50777 3.31718
2.48335 0.728948 9.22246
0.247783 6.18695 0.99865
6.80397 4.08894 2.53526
1.93281 1.16748 2.94969
7.1081 0.393914 1.67246
7.42101 0.682074 7.82951
4.68743 9.49914 3.05199
7.28008 0.857903 6.904
6.74922 0.423973 8.01653
5.0439 7.73786 6.51432
2.06513 3.55938 6.26887
8.4361 1.602 0.333731
6.83399 0.361354 7.78
0.519489 8.9454 8.7008
4.75149 1.47711 0.708959
8.72565 0.129244 4.62173
7.023 0.635861 7.46296
3.51358 10 7.05712
5.20905 1.91772 8.01134
2.90769 2.13264 9.25596
7.24609 0.494198 7.66738
6.24199 2.95712 0.249911
2.5768 4.34847 0.523176
3.12597 2.11563 9.59524
5.24122 2.60579 6.69381
5.1853 2.57941 10
2.87393 1.77449 9.13908
2.02382 0.932072 2.9634
2.76752 3.84313 7.13751
8.34351 7.73876 2.59767
7.25157 0.594157 7.81402
7.24601 0.568374 7.63855
9.5502 2.08807 5.63861
3.09649 2.20227 9.44828
6.82312 0.099551 6.01507
0.671762 8.82065 10
7.10156 0.712348 7.53943
7.44215 1.68628 9.24761
7.08113 0.235363 7.58511
1.70325 0.731203 3.18523
7.19346 0.412378 7.47579
9.04506 2.87131 4.50439
3.16785 2.17754 9.54731
6.99438 0.502808 7.54516
7.18517 0.2695 7.84027
0.967869 7.87344 6.80866
9.9826 6.94335 9.56511
7.14838 0.674259 7.47817
7.15256 0.601139 7.51856
0.964233 6.40244 7.48349
7.35262 0.172692 7.70302
0.261443 3.26913 8.01954
9.36431 2.47527 0.910094
7.12246 0.605151 8.05898
4.79782 4.60088 3.36952
9.65515 6.60828 9.39551
4.54995 0 4.74166
POINT_DATA 400
SCALARS particleColor float 3
LOOKUP_TABLE default
0.446404 1 0.553596
1 0.877359 0
1 0.293014 0
1 0.0885691 0
0.429086 1 0.570914
0 0.762541 1
1 0.528055 0
1 0.720587 0
1 0.566302 0
1 0.172029 0
0.974385 1 0.025615
1 5.96046e-08 0
1 0.564783 0
1 5.96046e-08 0
1 0.908374 0
0.943103 1 0.0568968
0 0.593268 1
0.565267 1 0.434733
0 0.149856 1
1 0.637417 0
1 5.96046e-08 0
0.91722 1 0.0827798
1 5.96046e-08 0
1 0.855126 0
1 0.635058 0
1 0.836033 0
1 5.96046e-08 0
0.540963 1 0.459037
1 5.96046e-08 0
1 0.81155 0
1 5.96046e-08 0
1 0.518569 0
1 0.831074 0
0.504179 1 0.495821
0.542387 1 0.457613
0.408306 1 0.591694
0 0.567078 1
0.315937 1 0.684063
1 5.96046e-08 0
1 5.96046e-08 0
1 5.96046e-08 0
1 0.54506 0
1 0.798185 0
0.413595 1 0.586405
0.646762 1 0.353238
0.443742 1 0.556258
1 0.235773 0
1 0.260549 0
1 5.96046e-08 0
1 5.96046e-08 0
0.714539 1 0.285461
0.203027 1 0.796973
0.77041 1 0.22959
1 5.96046e-08 0
1 5.96046e-08 0
0.488916 1 0.511084
1 0.453329 0
1 0.682152 0
1 0.810201 0
1 0.138556 0
1 0.69115 0
0.889166 1 0.110834
1 5.96046e-08 0
1 5.96046e-08 0
0.485547 1 0.514453
1 0.688136 0
1 5.96046e-08 0
0.825264 1 0.174736
0.723552 1 0.276448
1 5.96046e-08 0
1 0.596914 0
1 5.96046e-08 0
1 0.624346 0
1 0.349295 0
1 5.96046e-08 0
0 0.839442 1
0.525141 1 0.474859
1 5.96046e-08 0
0.328409 1 0.671591
0.616262 1 0.383738
1 5.96046e-08 0
1 0.815678 0
0 0.540317 1
1 0.139239 0
1 5.96046e-08 0
0 0.584866 1
0.791833 1 0.208167
0.604863 1 0.395137
0.416558 1 0.583442
1 0.794318 0
1 0.722737 0
1 0.593391 0
1 5.96046e-08 0
1 5.96046e-08 0
0.960476 1 0.0395237
1 5.96046e-08 0
1 0.597722 0
1 0.987829 0
0.557655 1 0.442345
0.840678 1 0.159322
0.229011 1 0.770989
1 0.134365 0
1 5.96046e-08 0
1 5.96046e-08 0
0.526445 1 0.473555
0.799696 1 0.200304
1 5.96046e-08 0
1 0.360185 0
1 0.22553 0
0.0261806 1 0.973819
1 5.96046e-08 0
1 0.901977 0
1 5.96046e-08 0
0.0685681 1 0.931432
1 0.635736 0
1 0.817791 0
0.448163 1 0.551837
0.817524 1 0.182476
1 5.96046e-08 0
1 0.481412 0
0.559789 1 0.440211
1 5.96046e-08 0
1 0.791066 0
1 5.96046e-08 0
1 0.992923 0
1 5.96046e-08 0
0.741557 1 0.258443
1 0.593256 0
0 0.944313 1
1 0.712921 0
1 0.775971 0
1 0.128478 0
0.397216 1 0.602784
0.767519 1 0.232481
1 5.96046e-08 0
0.299685 1 0.700315
0 0.877147 1
1 0.685932 0
1 0.452062 0
1 5.96046e-08 0
1 0.955496 0
0 0.581752 1
1 5.96046e-08 0
0.641299 1 0.358701
1 5.96046e-08 0
1 5.96046e-08 0
1 0.55815 0
1 5.96046e-08 0
0.852452 1 0.147548
1 5.96046e-08 0
0 0.166879 1
0.319515 1 0.680485
1 5.96046e-08 0
0.0278866 1 0.972113
1 0.907943 0
1 5.96046e-08 0
1 5.96046e-08 0
1 5.96046e-08 0
1 5.96046e-08 0
1 5.96046e-08 0
0.906285 1 0.0937155
0.42634 1 0.57366
1 5.96046e-08 0
1 5.96046e-08 0
1 5.96046e-08 0
1 5.96046e-08 0
0.286327 1 0.713673
1 5.96046e-08 0
1 0.288047 0
1 0.244123 0
1 5.96046e-08 0
0.446231 1 0.553769
0.63984 1 0.36016
0.249823 1 0.750177
1 5.96046e-08 0
0.112266 1 0.887734
0.0642571 1 0.935743
1 0.8897 0
0.690182 1 0.309818
0 0.745896 1
0.224189 1 0.77581
1 0.775889 0
1 0.577393 0
1 5.96046e-08 0
1 0.817636 0
0.119774 1 0.880226
0.0282003 1 0.9718
1 5.96046e-08 0
1 0.0191234 0
0.985643 1 0.0143566
1 0.593702 0
0.188757 1 0.811243
0.690425 1 0.309575
1 0.371473 0
1 0.410121 0
0.739177 1 0.260823
0.660614 1 0.339386
1 0.947922 0
1 0.926087 0
0.677229 1 0.322771
1 0.431279 0
1 5.96046e-08 0
1 5.96046e-08 0
1 5.96046e-08 0
1 5.96046e-08 0
0.0101341 1 0.989866
1 5.96046e-08 0
1 0.0146641 0
1 0.651446 0
1 0.304724 0
0.93745 1 0.0625498
0 0.905815 1
0.612037 1 0.387963
1 0.236099 0
0.448996 1 0.551004
1 0.808013 0
1 0.555692 0
1 5.96046e-08 0
0 0.617105 1
1 5.96046e-08 0
1 5.96046e-08 0
1 0.330634 0
1 0.918303 0
1 0.395787 0
1 5.96046e-08 0
1 5.96046e-08 0
0.304434 1 0.695566
1 5.96046e-08 0
0 0.175825 1
0 0.72326 1
0.707023 1 0.292977
1 5.96046e-08 0
1 0.404303 0
1 5.96046e-08 0
0 0.972443 1
1 0.231598 0
0.247459 1 0.752541
0.916407 1 0.0835926
1 5.96046e-08 0
1 5.96046e-08 0
0 0.675106 1
1 5.96046e-08 0
1 5.96046e-08 0
1 0.996495 0
1 5.96046e-08 0
1 5.96046e-08 0
1 5.96046e-08 0
1 5.96046e-08 0
0.930633 1 0.0693666
1 5.96046e-08 0
1 0.800206 0
1 5.96046e-08 0
1 5.96046e-08 0
0.517897 1 0.482103
1 0.786489 0
1 0.267185 0
0 0.58705 1
0.381664 1 0.618336
0.812087 1 0.187913
1 0.991097 0
0.811101 1 0.188899
1 5.96046e-08 0
0.504124 1 0.495876
0.72517 1 0.27483
1 0.538052 0
0 0.702099 1
1 5.96046e-08 0
1 0.446852 0
1 5.96046e-08 0
1 5.96046e-08 0
1 5.96046e-08 0
1 0.335555 0
1 5.96046e-08 0
1 0.515634 0
0.738236 1 0.261764
1 0.478422 0
1 0.581483 0
0.475654 1 0.524346
1 5.96046e-08 0
0.791328 1 0.208672
1 0.454527 0
0.585196 1 0.414804
0.794239 1 0.205761
1 5.96046e-08 0
0.791122 1 0.208878
0.228694 1 0.771306
0.840118 1 0.159882
1 5.96046e-08 0
1 5.96046e-08 0
1 5.96046e-08 0
0.719938 1 0.280062
1 5.96046e-08 0
1 5.96046e-08 0
1 0.854939 0
0.661869 1 0.338131
0.453621 1 0.546379
1 0.505518 0
0.44449 1 0.55551
0 0.429638 1
0 0.291518 1
1 0.111204 0
1 5.96046e-08 0
0 0.849393 1
1 0.678763 0
0 0.841272 1
1 5.96046e-08 0
1 5.96046e-08 0
0 0.530636 1
1 0.994504 0
0.587871 1 0.412129
0.473323 1 0.526677
1 0.592092 0
1 5.96046e-08 0
0 0.77532 1
1 0.205209 0
1 0.755894 0
1 5.96046e-08 0
0 0.712191 1
0.836966 1 0.163034
0.20717 1 0.79283
0 0.706727 1
1 5.96046e-08 0
0.688926 1 0.311074
0.338687 1 0.661313
0 0.752768 1
1 5.96046e-08 0
1 0.693329 0
0 0.562941 1
1 5.96046e-08 0
0 0.499664 1
0.544266 1 0.455734
0 0.989193 1
0.677842 1 0.322158
1 5.96046e-08 0
1 0.915588 0
0.666199 1 0.333801
1 0.821905 0
0 0.807898 1
1 5.96046e-08 0
0.834741 1 0.165259
1 5.96046e-08 0
1 0.754083 0
1 0.630201 0
0 0.568364 1
0.869682 1 0.130318
0.888118 1 0.111882
0 0.412635 1
0.986869 1 0.0131309
0 0.574589 1
1 0.460688 0
0 0.184184 1
0 0.450633 1
1 0.300299 0
1 5.96046e-08 0
0.216191 1 0.783809
0 0.33891 1
0.999382 1 0.000618279
0.77232 1 0.22768
0 0.767659 1
0 0.33322 1
1 0.514577 0
0.0274683 1 0.972532
0 0.466786 1
0 0.511825 1
1 0.868581 0
0 0.98109 1
0 0.445597 1
0.487618 1 0.512382
1 5.96046e-08 0
0 0.729703 1
0 0.866016 1
1 5.96046e-08 0
0 0.9286 1
0 0.666365 1
0 0.879054 1
0.90986 1 0.0901397
0 0.292535 1
0.854592 1 0.145408
1 5.96046e-08 0
0 0.873833 1
0 0.682498 1
0 0.564056 1
1 0.767196 0
0.130707 1 0.869293
1 5.96046e-08 0
0 0.539077 1
0 0.837671 1
0 0.362626 1
0 0.915083 1
0.862007 1 0.137993
0 0.610157 1
0 0.611756 1
1 0.86924 0
0 0.385315 1
0.745263 1 0.254737
1 5.96046e-08 0
0 0.318759 1
1 5.96046e-08 0
1 0.719836 0
1 5.96046e-08 0
