# vtk DataFile Version 3.0
Particle simulation
ASCII
DATASET POLYDATA
POINTS 400 float
4.40062 2.31684 5.78571
4.7136 4.37285 5.60993
2.60719 4.47702 5.28887
9.06168 1.61114 9.65713
5.93868 2.48692 2.11491
0.596949 2.40084 7.41048
1.00799 6.03893 2.85139
0.692357 4.12397 6.09665
8.23171 6.86392 7.25773
2.7046 6.22001 3.1086
2.73592 3.55863 1.952
7.95118 1.89181 4.05213
2.97704 9.48212 8.98391
6.37722 8.20428 9.32892
0.775064 5.98385 10
4.82387 0.63293 9.17635
3.07324 7.75886 1.16229
6.29594 3.68763 7.99847
8.76067 7.46956 2.13976
0.772472 4.61753 9.65913
4.82554 0.0730289 3.00005
6.95463 4.92079 4.40654
10 10 0
8.5323 6.06187 7.41924
1.99318 0.28837 4.7661
2.13522 5.97685 7.53908
0.650179 9.84618 4.76573
1.95855 9.64469 8.29509
0.785626 7.25974 4.33683
5.80319 5.59355 2.32264
4.37552 3.50131 9.54981
0.547133 9.33157 6.10437
1.45662 2.60781 7.10472
7.60347 7.44356 6.83314
4.42395 3.29194 9.61153
0.977721 5.55091 9.06696
8.5435 4.71011 1.08637
4.14284 1.38389 0.0989003
8.24221 8.15926 8.51016
9.23021 2.90669 2.69195
9.66599 1.93301 8.60903
6.47277 6.96257 0.0979065
1.92494 7.50259 5.9653
9.06608 4.99449 9.35716
3.90716 3.14004 9.32583
8.9655 3.66558 2.11547
8.97286 2.88061 3.43416
4.76592 0.21019 3.00868
9.60228 4.68705 1.57528
1.62699 0.997335 5.07942
4.06984 2.48191 3.57354
5.37881 0 5.54573
0.858057 0.918588 3.4625
0 0 10
6.84639 0 8.76677
4.59269 4.38209 4.01944
2.7236 8.91756 7.643
5.92602 2.70362 4.5338
7.86663 3.92733 9.80642
1.56356 3.69993 1.19104
2.50084 4.8004 3.48976
3.30835 2.27474 4.83636
1.16264 5.10439 4.48219
1.20736 5.25956 0.871199
1.02386 8.29787 6.88701
0.261598 9.86698 3.77084
7.59003 2.59953 3.16703
5.40722 8.63984 6.88067
8.92183 0 3.20531
5.74585 6.04591 10
1.32064 6.21326 1.71601
2.75311 4.51676 1.33918
0 2.82891 0.369733
2.29947 7.71465 2.31528
3.8962 6.21783 2.12945
0.858196 6.73562 6.32827
1.5974e-05 1.43645 3.00723
3.63073 5.53161 7.81455
4.48657 7.61709 6.83926
0.887032 2.25114 6.53517
8.84535 5.82958 6.68092
5.20999 5.35277 6.04369
5.65381 2.2895 6.20578
5.65111 3.73733 1.0149
8.42311 6.34754 0
9.24721 1.0897 5.05372
4.84233 2.1903 2.32092
4.10182 9.07276 6.67572
6.22655 0.712059 9.0607
4.18726 2.16288 8.08856
5.45729 1.5783 4.22375
2.32539 1.10934 7.85477
0.305054 7.02762 0.0698279
7.89185 2.45001 0
6.68883 1.07589 6.84487
4.21475 1.208 4.95132
9.86619 2.17973 1.04853
9.62981 5.33327 5.05648
4.12216 1.4282 3.87402
6.66538 5.1646 8.12914
9.76547 5.38419 6.571
3.62611 9.39505 8.98817
4.28349 9.36949 1.78858
0.9813 5.27652 0.187205
1.3081 4.15002 3.34524
9.84808 1.92323 0.938793
4.85459 5.35592 7.75127
5.31862 7.72947 0.487154
2.65213 1.08175 2.14147
5.36447 4.679 6.11478
4.99844 6.53172 1.87938
8.8143 0.193509 4.10627
0.0675785 3.32407 5.30923
8.28704 4.99812 6.49789
4.7515 7.79751 2.73449
5.33564 8.76534 1.15722
1.87927 8.21416 0.114827
3.97773 3.59277 1.0413
3.03787 5.38024 1.05068
6.02762 8.25768 1.98797
3.74859 6.2528 7.14722
0.270009 1.87142 8.35478
0 3.12118 9.31771
4.94505 5.76114 4.88628
0.100735 0.443637 7.66084
0 5.21781 7.09605
5.35754 1.27643 5.93329
3.14256 0.256401 3.64347
4.09573 0.828464 5.51929
2.49853 9.81572 7.68218
8.29261 6.86834 9.16701
6.43591 6.13099 4.86227
9.13023 0.193708 7.11907
7.01856 0.0980624 6.44257
1.08978 5.25477 2.28584
4.91166 5.11765 4.74508
6.62673 3.84912 0.387434
9.84478 5.40342 7.08667
0.170803 9.29535 9.89015
0 8.51862 3.17573
7.5616 2.11611 7.41348
7.48609 9.62979 0.452498
0.829791 4.03334 0.764195
1.07204 5.15133 2.05071
9.15459 8.99012 5.9962
2.28896 0.947342 3.70505
9.02333 0.155382 7.08177
1.7376 6.91307 1.72475
4.51206 10 7.62209
8.74996 4.84639 9.34788
7.61892 0.615832 7.58706
9.94623 2.22222 5.93089
3.92811 1.56641 8.60389
3.83573 4.8852 2.55845
5.18543 2.51607 3.79906
8.65955 5.00997 3.74771
8.37863 6.67168 0.354451
7.53188 9.2556 0.459349
2.62267 1.88828 3.39559
0.668059 2.84924 9.10902
8.57998 0.225731 3.37502
3.5853 3.02671 3.30763
1.95936 2.13811 6.87283
0.453545 1.19409 9.13356
2.75597 0.940622 7.30326
0.344815 0.458059 4.5967
2.05135 3.23721 9.80997
6.59784 3.215 5.2946
0.292017 1.01394 6.59837
9.52358 2.55627 6.83592
10 9.34307 4.82763
5.14211 9.62305 4.7016
2.56348 5.3389 2.68568
1.00505 2.63296 0.770871
8.13085 7.73401 0.586231
7.13202 2.86118 3.6229
1.61228 0 3.40318
9.21131 4.30951 2.55126
1.20196 6.23498 5.67266
3.81977 7.43476 1.41479
7.84002 8.3737 0.605043
6.80756 4.44718 9.05916
4.33224 9.30019 5.74185
6.29845 10 7.29347
9.55707 0.0423416 0.696585
2.7825 2.10075 7.09152
8.62643 10 7.48642
6.78541 7.115 7.77797
8.9403 2.24992 5.29035
0.693447 6.56347 3.89135
2.52095 0.337466 1.94646
0 0.919743 1.34349
4.42822 2.07984 5.54193
9.39534 4.46422 1.95341
9.08191 0.850292 5.93675
1.93482 3.07228 9.18971
9.30294 8.71088 7.10753
9.48673 0.00177053 6.6463
9.623 6.94995 9.58785
4.23788 0.654383 0.216112
1.55332 9.26964 7.18607
7.79221 7.17895 6.1512
7.16663 9.50957 4.86576
8.97606 6.10866 8.00554
0.518399 2.92854 5.19272
4.61176 6.87647 7.99194
2.92143 8.0957 9.38049
7.98346 1.26288 0.845742
2.5136 7.68624 4.25203
5.16249 6.16003 3.40161
7.21337 9.82455 9.62413
6.4634 4.86331 8.30996
1.80255 4.71226 4.15822
5.8781 6.12395 1.36875
3.96242 3.30532 2.77871
0.761875 4.51575 1.64533
0 1.51742 4.8846
8.80346 0 8.87432
7.8712 0.00103859 8.78301
8.37474 8.44369 8.70565
9.14532 3.24381 0.71952
2.71482 7.77529 0.958729
1.6039 0.746709 7.96225
6.59052 0.368067 8.44803
2.67669 9.37277 10
0 0 10
3.2688 1.18642 1.38247
4.69923 6.77161 0.865639
7.47682 0.552193 7.60381
5.75507 7.99272 4.11853
6.53441 0.615385 9.77618
7.20883 1.20238 2.33309
8.52487 9.30662 9.22699
7.74629 7.98438 0.146409
6.85368 9.83298 5.35839
1.39344 6.27047 7.02877
6.55332 1.89069 4.62661
10 7.24832 7.18523
7.18742 0.141615 7.67422
7.71788 3.54728 2.94581
7.40452 0.836005 7.49863
9.65434 3.66788 8.13601
7.05416 2.15012 9.84357
9.30776 9.03132 1.46321
6.90715 3.54946 3.16183
8.14622 0.895343 4.61833
4.23992 0.437621 1.93588
6.68191 6.60544 1.3962
2.50184 4.40656 8.16775
0.344212 0.429158 7.35539
9.63784 6.19726 5.71018
7.90536 5.0096 3.73881
6.74609 8.98584 2.46731
5.59321 3.41595 8.94207
8.94371 6.82755 9.75773
3.45002 8.69764 0.580577
6.73482 2.52208 1.59266
0.324115 2.5404 0
0 2.0337 2.98641
3.28808 0.171977 2.22845
3.50259 0 1.83656
0.273746 3.75249 0.654892
2.89738 8.60506 4.484
8.81166 5.91022 2.8763
2.63656 8.18891 8.24363
3.92911 2.2013 5.58855
9.36166 6.53854 8.47113
8.30473 6.88515 8.98555
2.14592 7.46206 5.97543
9.26659 0 3.01252
2.16068 3.25268 2.62319
7.49866 2.48012 7.06539
10 4.92101 2.90639
10 2.62421 7.43929
2.59799 2.77571 7.73754
3.23255 9.28459 0.861526
7.86502 9.22502 1.5113
10 7.15494 3.12016
9.20478 8.13039 2.03913
9.25232 4.50599 5.5233
9.73164 1.75652 9.74095
10 5.19528 8.88121
0.512064 2.66364 3.636
6.71359 0 1.30214
4.4382 7.5378 3.24097
5.58049 9.04054 5.30636
9.28851 3.23697 1.37512
7.46706 7.27369 7.27636
5.61744 0.0800863 9.10242
10 1.79022 2.02298
0.447661 8.2945 0.13456
7.85979 3.12685 3.44155
1.1541 5.55817 6.33677
7.45537 8.25213 9.24592
7.5932 5.56558 9.63242
1.70336 8.55896 0.261825
6.55414 0.822576 9.44253
7.29939 0.532689 8.55067
7.69548 0.442542 7.39605
3.01682 0.438463 6.50864
0.716066 0 6.68926
5.43231 4.56328 10
8.20615 0.218028 7.88222
7.8799 8.64322 8.67543
7.3455 0.0998672 7.8714
0.218053 8.04549 9.77289
3.48344 5.95398 9.6974
7.67815 0.536269 7.47578
7.41017 2.04559 7.69057
7.60383 3.19795 1.07523
3.55451 6.98089 1.31725
2.80688 7.15111 3.88516
6.90369 2.83333 6.66878
7.29444 0.248698 8.01698
9.95723 3.12766 8.19472
2.81495 2.43573 1.78615
6.29856 3.74018 7.51996
6.85449 0.309102 7.64995
8.95382 8.39202 10
2.3185 0.797055 3.67564
8.48542 4.59835 0.836711
1.08638 1.04013 0
0.851452 1.65881 8.80747
7.77487 0.476264 6.6186
7.65302 0.211225 8.02277
7.51931 5.81986 5.42183
7.92394 0.632881 9.10279
6.64328 6.00094 4.56602
9.58435 9.34415 3.81925
7.64425 0.44082 7.64907
3.18456 2.19171 6.84746
3.72082 0.369538 6.18726
8.12185 0.518033 4.08891
1.39008 3.49213 9.20819
2.01592 1.68738 1.49934
7.12025 0.990141 6.95716
0 6.39916 3.98297
7.51644 0.158986 7.98796
7.96023 0.517196 9.27666
8.20976 2.12946 3.30652
8.80575 3.77877 0
7.32851 0.173402 8.97616
2.83452 1.40809 8.89595
1.76559 1.09971 8.8279
9.74845 6.8213 8.38009
1.62937 0.293309 7.943
4.99106 0.569101 3.06804
6.32067 8.86528 2.07988
7.62112 0.150259 7.71236
6.42247 6.63073 4.33772
7.23117 0.142483 7.93188
7.47563 0.702889 7.88051
7.71167 5.33843 8.03685
9.81868 9.28812 5.23228
3.76182 1.57322 4.39669
7.41982 0.578664 7.50561
2.98917 8.15179 2.12819
7.10064 9.09852 2.20399
7.84801 0 6.80668
7.64264 0.542949 7.6368
0.648851 1.32164 7.46473
2.01158 1.24478 9.17691
1.64932 0.904439 8.62331
7.76835 0.559964 7.33699
6.58883 9.14897 1.7951
8.44124 3.67101 4.80539
1.72149 0.821023 8.93433
4.93132 6.86942 2.78567
9.48699 8.64068 1.10127
1.895 1.12945 8.47607
4.93236 0.36502 3.04935
7.62248 7.69013 5.74551
9.23725 8.0029 5.04248
7.45267 0.480291 7.63326
7.36433 0.353319 8.17469
8.77996 7.01639 1.06253
1.68317 0.865877 8.9241
10 9.14016 0.693481
1.04465 0.253591 2.7138
7.75291 0.596188 7.63601
8.46168 3.58662e-05 9.13554
7.60702 0.304314 7.38967
8.63454 5.60216 7.44094
7.89207 0.669637 7.54048
3.95132 1.36292 4.51752
1.71216 0.927358 8.87308
7.62791 0.579961 7.16362
7.65517 0.315367 7.39724
5.39919 2.26095 3.09159
8.76762 0.133871 7.52709
7.62636 0.667062 7.44962
7.70558 0.77844 7.4947
6.30885 5.77419 5.01228
7.53829 0.33128 7.43782
0.962684 8.6915 0.438429
6.27628 0.824425 6.00795
7.48442 0.662455 7.50739
1.18206 0.322401 2.98594
3.6165 9.12773 7.43969
9.1375 2.15053 8.32785
POINT_DATA 400
SCALARS particleColor float 3
LOOKUP_TABLE default
1 0.494512 0
1 5.96046e-08 0
0.163944 1 0.836056
0.116077 1 0.883923
1 0.744075 0
0.789502 1 0.210498
1 5.96046e-08 0
1 0.502095 0
1 5.96046e-08 0
1 0.106425 0
1 0.977202 0
0.615494 1 0.384506
0.743304 1 0.256696
1 5.96046e-08 0
1 0.138388 0
1 0.0288593 0
0.694935 1 0.305065
0.207666 1 0.792334
0 0.668996 1
1 5.96046e-08 0
1 0.173982 0
1 0.386859 0
1 5.96046e-08 0
1 5.96046e-08 0
1 5.96046e-08 0
1 5.96046e-08 0
1 5.96046e-08 0
1 0.896529 0
1 5.96046e-08 0
0.522135 1 0.477865
1 5.96046e-08 0
1 5.96046e-08 0
1 0.526689 0
0 0.58323 1
1 0.876628 0
1 0.63629 0
0.954438 1 0.045562
0.97242 1 0.0275805
1 5.96046e-08 0
1 5.96046e-08 0
1 5.96046e-08 0
1 0.906717 0
1 5.96046e-08 0
0.249654 1 0.750346
1 0.719923 0
1 0.205033 0
0.299144 1 0.700856
0.302016 1 0.697984
1 0.685848 0
1 0.807296 0
1 0.834603 0
0.524382 1 0.475618
1 5.96046e-08 0
1 5.96046e-08 0
1 0.0760313 0
1 0.742055 0
0.684253 1 0.315747
0.694765 1 0.305235
1 0.0282353 0
1 5.96046e-08 0
1 0.280912 0
1 0.180977 0
1 5.96046e-08 0
1 0.489596 0
0.819221 1 0.180779
0.895585 1 0.104415
1 0.332919 0
0.868426 1 0.131574
1 0.668775 0
1 5.96046e-08 0
1 0.201017 0
1 0.231423 0
0.494515 1 0.505485
1 5.96046e-08 0
1 5.96046e-08 0
0.778843 1 0.221157
1 5.96046e-08 0
1 5.96046e-08 0
1 5.96046e-08 0
1 5.96046e-08 0
1 5.96046e-08 0
1 0.215296 0
0 0.883114 1
1 5.96046e-08 0
1 5.96046e-08 0
1 0.575086 0
1 0.282195 0
0.337359 1 0.662641
0.44581 1 0.55419
1 5.96046e-08 0
1 0.887841 0
0.940498 1 0.0595024
0.0205922 1 0.979408
1 5.96046e-08 0
1 5.96046e-08 0
0.0161706 1 0.983829
0.567639 1 0.432361
1 5.96046e-08 0
1 0.943571 0
1 0.45955 0
0.548973 1 0.451027
0.630704 1 0.369296
1 5.96046e-08 0
0.396299 1 0.603701
0 0.918793 1
0.556351 1 0.443649
1 0.477323 0
0.965446 1 0.0345539
1 5.96046e-08 0
1 0.658496 0
1 5.96046e-08 0
1 5.96046e-08 0
1 0.729441 0
1 0.0554943 0
1 5.96046e-08 0
0.204416 1 0.795584
1 0.378733 0
0.678076 1 0.321924
1 5.96046e-08 0
1 5.96046e-08 0
1 5.96046e-08 0
1 5.96046e-08 0
1 5.96046e-08 0
1 5.96046e-08 0
1 5.96046e-08 0
1 5.96046e-08 0
0.893679 1 0.106321
0.986197 1 0.0138034
1 5.96046e-08 0
1 0.0965563 0
0.895982 1 0.104018
1 0.72177 0
0.630576 1 0.369424
0.838512 1 0.161488
1 5.96046e-08 0
0 0.555855 1
0 0.895173 1
1 5.96046e-08 0
1 0.185845 0
1 0.658823 0
1 5.96046e-08 0
1 5.96046e-08 0
1 0.268934 0
0.530514 1 0.469486
1 0.63478 0
1 0.710606 0
1 0.734731 0
1 5.96046e-08 0
0.0201665 1 0.979833
0.736459 1 0.263541
0 0.334863 1
0.543956 1 0.456044
1 0.302542 0
0.445701 1 0.554299
1 5.96046e-08 0
0.956309 1 0.0436911
1 5.96046e-08 0
1 5.96046e-08 0
1 0.276578 0
1 5.96046e-08 0
1 0.690271 0
1 0.00792503 0
1 5.96046e-08 0
0.594154 1 0.405846
1 5.96046e-08 0
1 0.794246 0
1 0.0636224 0
1 5.96046e-08 0
1 0.917426 0
1 5.96046e-08 0
1 5.96046e-08 0
1 0.383439 0
0.729468 1 0.270532
0 0.767667 1
1 5.96046e-08 0
0.355391 1 0.644609
1 5.96046e-08 0
0.945416 1 0.0545836
1 5.96046e-08 0
0.28343 1 0.71657
1 5.96046e-08 0
1 5.96046e-08 0
0.504861 1 0.495139
1 5.96046e-08 0
1 0.647143 0
1 0.764862 0
1 0.279979 0
0.734476 1 0.265524
1 0.794043 0
0.890532 1 0.109468
1 0.753827 0
1 0.831725 0
1 0.267547 0
1 5.96046e-08 0
0.679474 1 0.320526
0 0.663028 1
1 0.292964 0
1 5.96046e-08 0
0.905583 1 0.0944172
1 0.562975 0
1 5.96046e-08 0
1 5.96046e-08 0
0.45756 1 0.54244
1 5.96046e-08 0
1 5.96046e-08 0
0.984433 1 0.0155671
1 5.96046e-08 0
1 5.96046e-08 0
1 0.733979 0
1 5.96046e-08 0
0.940882 1 0.0591179
1 5.96046e-08 0
1 5.96046e-08 0
1 5.96046e-08 0
0.257296 1 0.742704
0.889156 1 0.110844
1 0.563891 0
1 5.96046e-08 0
0.283728 1 0.716272
0 0.924697 1
1 5.96046e-08 0
1 5.96046e-08 0
0.262683 1 0.737317
0 0.878076 1
1 5.96046e-08 0
1 5.96046e-08 0
1 0.6578 0
0.41438 1 0.58562
0 0.633634 1
0.192013 1 0.807987
1 5.96046e-08 0
1 5.96046e-08 0
1 5.96046e-08 0
1 0.0915025 0
1 0.403901 0
0.526108 1 0.473892
0.91986 1 0.0801404
1 0.525905 0
0 0.671956 1
1 5.96046e-08 0
0 0.390151 1
1 0.859693 0
1 5.96046e-08 0
1 5.96046e-08 0
1 5.96046e-08 0
0.999806 1 0.000194013
0.899513 1 0.100487
1 0.153249 0
0.0408277 1 0.959172
1 5.96046e-08 0
1 0.769219 0
0.666055 1 0.333945
1 5.96046e-08 0
1 5.96046e-08 0
1 0.451342 0
0.940844 1 0.0591558
0 0.83773 1
0 0.907069 1
1 5.96046e-08 0
1 5.96046e-08 0
1 5.96046e-08 0
0.525956 1 0.474044
1 0.811122 0
1 0.0629379 0
1 0.955898 0
0.579416 1 0.420584
1 5.96046e-08 0
0.993613 1 0.00638652
1 0.8191 0
1 5.96046e-08 0
1 5.96046e-08 0
1 0.410387 0
1 5.96046e-08 0
1 5.96046e-08 0
1 0.736923 0
1 0.415596 0
1 5.96046e-08 0
1 5.96046e-08 0
1 0.197743 0
1 5.96046e-08 0
0.518285 1 0.481715
1 0.0311633 0
1 0.557997 0
1 5.96046e-08 0
1 0.662603 0
1 5.96046e-08 0
0.675177 1 0.324823
1 0.750109 0
1 5.96046e-08 0
1 5.96046e-08 0
0 0.83922 1
1 5.96046e-08 0
1 0.882254 0
1 0.837651 0
1 0.256192 0
0.69799 1 0.30201
0.312056 1 0.687944
1 5.96046e-08 0
0 0.6489 1
0.153387 1 0.846613
1 5.96046e-08 0
1 0.68789 0
0 0.335644 1
1 5.96046e-08 0
0 0.415231 1
1 5.96046e-08 0
1 5.96046e-08 0
0 0.49674 1
1 5.96046e-08 0
1 5.96046e-08 0
0.864384 1 0.135616
1 5.96046e-08 0
1 5.96046e-08 0
0 0.580462 1
1 5.96046e-08 0
0 0.86494 1
0.915176 1 0.0848244
0 0.608043 1
1 5.96046e-08 0
1 0.0995598 0
0.852372 1 0.147628
0.238048 1 0.761952
0 0.802782 1
0 0.390755 1
0 0.701739 1
0 0.986397 1
1 0.746842 0
1 0.1755 0
1 0.223323 0
0 0.387058 1
0.168582 1 0.831418
0 0.810753 1
1 5.96046e-08 0
1 5.96046e-08 0
1 5.96046e-08 0
1 0.583924 0
1 5.96046e-08 0
0 0.792166 1
1 0.516613 0
1 0.725937 0
1 5.96046e-08 0
1 5.96046e-08 0
1 0.486752 0
0 0.964904 1
1 0.967126 0
0.742359 1 0.257641
0 0.912284 1
1 5.96046e-08 0
0 0.70616 1
0.935119 1 0.0648805
0 0.624488 1
0 0.443784 1
1 5.96046e-08 0
1 5.96046e-08 0
0.076302 1 0.923698
0 0.759036 1
1 0.620216 0
1 0.816065 0
0.488611 1 0.511389
0 0.763428 1
0.821629 1 0.178371
0.095192 1 0.904808
0 0.486153 1
0 0.467749 1
1 5.96046e-08 0
0.754192 1 0.245808
0 0.483354 1
0.542243 1 0.457757
0.98375 1 0.0162498
0.795115 1 0.204885
0.142622 1 0.857378
1 5.96046e-08 0
1 0.708244 0
0 0.683274 1
0 0.36251 1
0.612914 1 0.387086
0 0.501498 1
1 0.26777 0
1 5.96046e-08 0
0 0.753275 1
0 0.175928 1
0 0.655859 1
1 5.96046e-08 0
0 0.951404 1
1 0.41255 0
0 0.568187 1
0 0.608822 1
0 0.354052 1
1 5.96046e-08 0
0.176969 1 0.823031
0 0.592443 1
0 0.846302 1
1 0.406085 0
0 0.532376 1
1 0.853613 0
1 5.96046e-08 0
0 0.501636 1
1 0.586942 0
0.860861 1 0.139139
1 5.96046e-08 0
