# vtk DataFile Version 3.0
Particle simulation
ASCII
DATASET POLYDATA
POINTS 400 float
1.23497 0.965428 0.801919
1.6274 0.998487 0.744594
0.63522 1.06303 3.20037
1.09099 0.906819 0.150088
0.731263 0.743735 3.62904
0.756536 0.616544 2.17631
1.02027 0.620951 3.97976
0.650899 0.609123 2.09418
1.90551 0.971578 3.54877
2.1067 0.845161 2.6934
1.26228 1.00076 0.786246
1.59528 1.0377 0.728206
0.6034 1.03535 3.19003
1.126 0.90953 0.123141
0.677345 0.734574 3.56969
0.749364 0.60607 2.13246
1.04253 0.632113 3.85403
0.691532 0.578505 1.97397
1.8954 1.02629 3.54118
2.12707 0.868974 2.67104
0.443912 0.763692 0.657304
1.05658 0.752664 0.931805
0.889087 1.03168 3.03872
1.44171 0.940605 0.0910451
0.970032 0.738711 3.26533
0.870605 0.571193 2.2377
1.33205 0.594963 3.88615
0.891948 0.578409 1.97837
1.1253 0.672347 3.54202
0.808235 0.936157 2.7737
0.430904 0.839365 0.628501
1.11207 0.834647 0.82503
0.923501 1.00943 3.08457
1.44222 0.945475 0.0778674
1.00412 0.724642 3.24615
0.882796 0.581222 2.20547
1.30205 0.588745 3.90259
0.904406 0.590814 2.03899
1.08889 0.699471 3.48651
0.800992 0.946666 2.77403
1.30512 0.768364 0.578377
2.64996 0.710239 0.567309
3.05525 0.737872 2.5481
3.10765 0.802385 0.0964332
2.49691 0.750929 3.83312
2.67221 0.697705 1.63327
2.5072 0.80003 3.13426
2.4322 0.729179 3.29794
1.66262 0.64862 3.55819
0.520086 0.79123 2.50954
1.31315 0.778975 0.574524
2.64421 0.683787 0.592641
3.05142 0.725447 2.49471
3.10805 0.801363 0.105291
2.49375 0.726416 3.86972
2.63877 0.709499 1.65864
2.42477 0.741761 3.88157
2.44238 0.722929 3.30734
1.65825 0.642474 3.52023
0.486623 0.761558 2.58474
0.827325 0.545928 0.608049
0.889792 0.659902 0.732922
0.634604 0.610224 2.3708
0.784853 0.693447 0
0.44849 0.699329 3.32114
0.183451 0.485492 2.16345
0.824486 0.535281 3.99611
0.357136 0.734288 2.97385
1.41001 0.655062 3.59317
0.335092 0.782986 2.62107
0.828262 0.519498 0.585371
0.841978 0.650057 0.718354
0.634478 0.654862 2.52519
0.773406 0.697788 0
0.452648 0.689088 3.28901
0.164847 0.500593 2.20196
0.805283 0.548756 3.95791
0.339109 0.667828 3.13543
1.44665 0.659211 3.54563
0.341298 0.769091 2.66726
2.41178 0.684385 0.872276
2.87495 0.633694 0.564008
2.30849 0.713761 2.3682
2.8322 0.678 0.108202
2.78478 0.757307 3.48506
2.72938 0.720133 1.79637
2.95551 0.682951 4.42007
2.82743 0.721092 2.72514
2.98956 0.610449 3.62235
1.77802 0.658067 2.51154
2.37649 0.674287 0.903592
2.80707 0.659439 0.549477
2.3246 0.696948 2.25451
2.84577 0.675726 0.0935839
2.75267 0.752802 3.46834
2.70554 0.724582 1.82447
2.89745 0.684805 4.3563
2.79927 0.71309 2.79486
2.93229 0.625962 3.65051
1.78364 0.647727 2.53867
2.46535 0.680584 0.936273
2.11266 0.621705 0.451062
1.7155 0.556736 2.51463
1.98639 0.616579 0.283605
1.84146 0.784663 3.81228
1.99799 0.574198 1.76882
1.53778 0.681732 3.8581
1.78462 0.710925 3.21266
1.91699 0.651505 3.54826
1.58636 0.633455 2.57067
2.46531 0.673898 0.94139
2.16917 0.610247 0.476341
1.76908 0.554625 2.4175
1.98751 0.622986 0.236183
1.7955 0.777093 3.86911
2.0016 0.580329 1.77875
1.53634 0.683845 3.91023
1.79506 0.68891 3.09923
1.91042 0.662642 3.49608
1.57272 0.63276 2.61909
3.9167 0.789124 0.989369
3.38255 0.529619 0.710984
3.8871 0.617948 2.57873
3.70403 0.471632 0.401601
4.0014 0.620786 3.41282
4.25628 0.429427 1.95861
3.85901 0.427362 4.40266
4.116 0.61456 2.68822
3.81581 0.561725 3.58131
4.22868 0.726059 2.4104
3.91577 0.778886 0.965677
3.3615 0.52248 0.704787
3.85871 0.620596 2.46727
3.66877 0.465563 0.401319
3.98433 0.607651 3.38414
4.23926 0.405816 1.96814
3.85321 0.460451 4.3327
4.13895 0.623004 2.6471
3.82703 0.543896 3.60832
4.25733 0.732279 2.36672
1.97171 0.746247 0.864359
2.3698 0.786953 0.551161
2.05375 0.63441 2.46569
2.00643 0.691921 0.110172
2.07393 0.742522 3.43987
1.95925 0.692777 1.75248
2.39705 0.613181 4.31552
2.27552 0.654482 2.95927
2.1051 0.742521 3.63635
2.18773 0.70355 2.36511
1.98578 0.747365 0.875131
2.3741 0.772183 0.610356
2.04481 0.577515 2.30124
1.96346 0.671459 0.0823564
2.03108 0.729195 3.52488
1.96155 0.692021 1.74056
2.38872 0.604355 4.33673
2.26218 0.670538 2.98454
2.08644 0.747477 3.56685
2.19972 0.690692 2.36655
3.38873 0.88108 0.8069
4.0797 0.736797 0.372019
3.46006 0.885935 2.95608
4.39174 0.582109 0.0164186
3.4341 0.704616 3.34277
3.14032 0.639091 2.08415
3.32927 0.569725 4.24901
3.39435 0.646065 2.56975
3.47093 0.620721 3.70391
3.40373 0.97086 2.3653
3.39462 0.851529 0.793967
4.00199 0.693745 0.453132
3.44096 0.890317 2.90077
4.40039 0.603091 0.00416097
3.42785 0.689179 3.23495
3.13813 0.638039 2.05034
3.3277 0.533778 4.26843
3.40438 0.660917 2.46791
3.45575 0.597341 3.71579
3.41297 0.979117 2.37696
3.38093 1.12032 0.671646
2.36203 0.964804 0.703963
3.79971 0.835074 2.78154
2.71428 0.872349 0.240838
3.80427 0.701994 3.55111
3.68224 0.690923 2.25313
3.47317 0.68893 4.23648
3.77235 0.774548 2.61071
3.19136 0.994687 3.54121
3.70503 1.00397 2.33736
3.38689 1.10673 0.684781
2.46136 0.958857 0.624754
3.81646 0.891689 3.00913
2.68664 0.872026 0.241466
3.82069 0.69782 3.55011
3.71133 0.668045 2.21164
3.44699 0.686683 4.26029
3.78647 0.754031 2.70242
3.21926 0.985991 3.55307
3.69971 1.00102 2.33164
1.24956 0.922902 0.734234
1.40074 0.939794 0.772936
0.619198 0.87508 3.19631
1.18307 0.972953 0.207488
0.785628 1.20472 3.61159
0.684818 1.30887 2.29883
1.17055 1.27734 3.82538
0.64366 1.30126 2.06727
1.78583 0.885961 3.55522
2.18667 1.13283 2.55534
1.2517 0.948518 0.720079
1.36005 0.927832 0.843611
0.631897 0.892538 3.10767
1.20883 0.966526 0.220149
0.783795 1.20508 3.61088
0.668922 1.30653 2.2559
1.17037 1.27303 3.81879
0.655872 1.33737 2.02131
1.77815 0.925416 3.52518
2.18969 1.12816 2.5422
0.820386 0.985155 0.43624
1.21681 1.15752 1.06465
0.917928 0.893439 3.07558
1.49185 0.968368 0.1597
1.00501 1.1812 3.39338
0.95812 1.28082 2.35789
1.36793 1.28494 3.74561
0.931382 1.31056 1.99789
1.47478 1.10682 3.28587
0.789735 1.00518 2.67995
0.837248 0.998345 0.429001
1.30885 1.15696 0.962334
0.928475 0.914702 3.04979
1.50476 0.950573 0.190106
0.988688 1.16927 3.40433
0.958667 1.276 2.36583
1.3768 1.28638 3.73292
0.914959 1.29774 2.01583
1.49357 1.11305 3.35113
0.789787 0.979328 2.76132
1.31378 1.11332 0.477272
2.66354 1.22945 0.51446
2.95869 1.28086 2.57423
3.13136 1.08284 0.0334923
2.49389 1.1775 3.84455
2.69497 1.25306 1.61166
2.43694 1.21783 3.22717
2.50293 1.35799 2.85411
2.40423 1.26334 3.59891
0.500983 1.10891 2.51636
1.30658 1.11795 0.47348
2.59458 1.2486 0.575662
2.95711 1.29087 2.52645
3.10429 1.1108 0.100236
2.48856 1.1845 3.79481
2.69856 1.25379 1.59735
2.44362 1.17761 3.40936
2.51275 1.33656 2.88124
2.44505 1.26265 3.57769
0.465522 1.10558 2.60371
0.743888 1.36429 0.604573
0.911554 1.24148 0.731897
0.401583 1.23097 2.58519
0.903647 1.17791 0.0783084
0.467811 1.20503 3.32249
0.252058 1.41692 2.20935
0.899419 1.28522 3.83986
0.573797 1.29118 3.32866
1.25807 1.24668 3.54368
0.224289 1.23759 2.65879
0.749718 1.36243 0.599448
0.920834 1.23897 0.731822
0.415878 1.23639 2.58145
0.917268 1.17215 0
0.483897 1.20582 3.33269
0.267182 1.42065 2.28158
0.913745 1.28264 3.9204
0.47399 1.22809 2.98029
1.22425 1.25638 3.52971
0.228637 1.22414 2.71992
2.45249 1.25682 0.995855
2.92869 1.2442 0.578154
2.29557 1.22341 2.35573
3.05206 1.30091 0.108357
2.70528 1.21832 3.48664
2.61268 1.21596 1.86271
2.96342 1.21473 4.34419
2.67028 1.35119 2.69001
2.98688 1.24308 3.58463
1.68752 1.35315 2.56398
2.50697 1.27928 0.94036
2.91874 1.23235 0.574549
2.30648 1.23685 2.28477
3.05252 1.31614 0.0293476
2.77985 1.22217 3.67495
2.63064 1.21512 1.84944
2.95658 1.19442 4.39358
2.63781 1.34476 2.72937
3.07022 1.24585 3.55887
1.64455 1.34239 2.61098
2.52753 1.27551 1.02926
2.11442 1.2906 0.491331
1.77285 1.27215 2.60852
2.13145 1.22138 0.192089
1.82812 1.24225 3.79126
1.97779 1.41561 1.73685
1.43749 1.12695 3.88665
1.82074 1.23209 2.93491
1.889 1.20525 3.42681
1.74057 1.35416 2.61022
2.53805 1.27327 1.04559
2.13797 1.30743 0.495978
1.81339 1.26955 2.51382
2.11958 1.23694 0.170071
1.92236 1.24724 3.88234
1.98088 1.40101 1.76184
1.45942 1.12591 3.84541
1.86712 1.21414 3.12881
1.97272 1.19067 3.45677
1.69535 1.34568 2.6737
3.65711 1.07453 1.03325
3.48568 1.35443 0.753352
3.94322 1.33773 2.71401
3.6702 1.48871 0.307166
4.00257 1.27748 3.3749
4.20225 1.39171 2.10491
3.7049 1.403 4.27819
4.0856 1.34648 2.57671
3.82235 1.30484 3.41291
4.17503 1.27707 2.31339
3.65367 1.07052 1.02726
3.58531 1.35588 0.752728
3.92201 1.32926 2.62922
3.66304 1.48801 0.352096
3.99386 1.28183 3.37458
4.20846 1.38405 2.05235
3.68109 1.41529 4.29438
4.05755 1.31512 2.62066
3.82577 1.31989 3.41694
4.15337 1.27017 2.38218
2.01274 1.23692 0.868071
1.76282 1.14867 0.501635
2.05377 1.32604 2.55677
2.06413 1.24863 0.136798
1.94513 1.17719 3.6298
2.01273 1.21319 1.76036
2.29924 1.17565 4.20148
2.25409 1.29091 2.98335
2.06098 1.21169 3.55782
2.1572 1.29739 2.50352
2.02983 1.23467 0.860721
1.76861 1.13623 0.473413
2.05829 1.31176 2.35014
2.07863 1.24864 0.130536
1.95887 1.17774 3.57666
2.01317 1.21302 1.75409
2.28766 1.17682 4.19637
2.25425 1.29046 2.94946
2.05124 1.21139 3.51742
2.19535 1.30222 2.45173
3.02155 0.93239 0.773867
3.74155 1.10298 0.532584
3.37386 1.03883 2.96358
4.00079 1.15042 0.180336
3.37766 1.23278 3.40859
3.02101 1.23203 2.1844
3.14472 1.30203 4.20256
3.32239 1.24525 2.55278
3.25818 1.1215 3.39284
3.32832 1.0057 2.28466
3.02251 0.934381 0.762395
3.67388 1.13064 0.545427
3.3718 1.02549 2.93024
4.0114 1.15141 0.173209
3.38968 1.23272 3.30274
3.02352 1.23046 2.20823
3.17011 1.30847 4.19398
3.31881 1.2323 2.57432
3.25207 1.22563 3.31545
3.3303 1.00032 2.3045
3.40501 0.872491 0.623237
2.30001 0.901614 0.593227
3.69551 1.00477 2.94184
2.50003 0.937997 0.287776
3.65929 1.22392 3.65319
3.5567 1.15766 2.35965
3.32053 1.24946 4.20996
3.73398 1.17284 2.69395
3.16214 1.01221 3.48735
3.68132 0.91424 2.29892
3.38187 0.848502 0.667108
2.24047 0.913126 0.557591
3.69508 1.00063 2.93999
2.49166 0.948177 0.218829
3.66482 1.22546 3.65291
3.59255 1.17965 2.31372
3.3022 1.25052 4.22046
3.74709 1.16852 2.74697
3.09468 0.977779 3.49165
3.66971 0.902173 2.29186
POINT_DATA 400
SCALARS particleColor float 3
LOOKUP_TABLE default
0 0.578585 1
0 0.538533 1
0 0.77484 1
0 0.299863 1
0 0.637845 1
0 0.638839 1
0 0.299897 1
0 0.811165 1
0 0.852885 1
0.202543 1 0.797457
0 0.627292 1
0 0.559403 1
0 0.816131 1
0 0.425452 1
0 0.593634 1
0 0.625611 1
0 0.280269 1
0 0.549738 1
0 0.800292 1
0.0258564 1 0.974144
0 0.505239 1
0 0.600577 1
0.118285 1 0.881715
0 0.878967 1
0 0.6961 1
0 0.919228 1
0 0.93288 1
0 0.743526 1
0 0.845701 1
0 0.765994 1
0 0.505648 1
0 0.710988 1
0 0.971854 1
0 0.976179 1
0 0.740296 1
0 0.867074 1
0.0377621 1 0.962238
0 0.859269 1
0 0.846176 1
0 0.765915 1
0 0.34727 1
0.075592 1 0.924408
0 0.754956 1
0 0.725948 1
0 0.819625 1
0 0.577057 1
0 0.427998 1
0 0.602068 1
0 0.706449 1
0 0.879528 1
0 0.412616 1
0 0.989634 1
0 0.714707 1
0 0.735923 1
0 0.672978 1
0 0.567204 1
0 0.51351 1
0 0.660477 1
0 0.67247 1
0 0.842139 1
0 0.407508 1
0 0.804132 1
0 0.974252 1
0 0.149968 1
0 0.370193 1
0 0.56061 1
0 0.475077 1
0 0.60349 1
0 0.439482 1
0 0.409402 1
0 0.565668 1
0 0.707077 1
0.0631808 1 0.936819
0 0.330879 1
0 0.368053 1
0 0.432949 1
0 0.413863 1
0 0.533619 1
0 0.607974 1
0 0.395763 1
0 0.316991 1
0 0.79281 1
0 0.523109 1
0 0.375965 1
0 0.535623 1
0 0.396943 1
0 0.425645 1
0 0.303786 1
0 0.640769 1
0 0.589311 1
0 0.385051 1
0 0.78112 1
0 0.447992 1
0 0.282895 1
0 0.554946 1
0 0.541682 1
0 0.378899 1
0 0.309822 1
0 0.721097 1
0 0.486039 1
0 0.624273 1
0 0.552106 1
0 0.780961 1
0 0.393 1
0 0.782486 1
0 0.465115 1
0 0.313666 1
0 0.353264 1
0 0.717153 1
0 0.66046 1
0 0.775319 1
0 0.653656 1
0 0.768187 1
0 0.621513 1
0 0.72 1
0 0.482703 1
0 0.315922 1
0 0.339857 1
0 0.692449 1
0 0.305986 1
0 0.180763 1
0 0.721244 1
0 0.981319 1
0 0.459131 1
0 0.498001 1
0 0.414813 1
0 0.56228 1
0 0.313833 1
0 0.443481 1
0 0.803244 1
0 0.337368 1
0 0.68096 1
0 0.884703 1
0 0.454235 1
0 0.359855 1
0 0.603442 1
0 0.650474 1
0 0.206605 1
0 0.444082 1
0 0.675318 1
0 0.459311 1
0 0.652679 1
0 0.755199 1
0 0.676267 1
0 0.669098 1
0 0.468557 1
0 0.146317 1
0 0.455696 1
0 0.89945 1
0 0.974365 1
0 0.405319 1
0 0.568661 1
0 0.726645 1
0 0.698004 1
0 0.686197 1
0 0.556055 1
0 0.444399 1
0 0.405571 1
0 0.858423 1
0 0.79262 1
0 0.931259 1
0 0.47234 1
0 0.528222 1
0 0.119291 1
0 0.902138 1
0 0.795343 1
0 0.751466 1
0 0.830766 1
0.0455425 1 0.954458
0 0.838196 1
0 0.851673 1
0 0.470805 1
0 0.603597 1
0 0.1731 1
0 0.805601 1
0 0.925634 1
0 0.639115 1
0 0.850782 1
0 0.936638 1
0 0.967555 1
0 0.474705 1
0 0.819397 1
0 0.549563 1
0 0.933917 1
0 0.556706 1
0 0.672631 1
0 0.34934 1
0 0.445972 1
0 0.501373 1
0 0.901714 1
0 0.367564 1
0 0.83282 1
0 0.547699 1
0 0.855972 1
0 0.573951 1
0 0.639141 1
0 0.435052 1
0 0.494219 1
0 0.439456 1
0.001138 1 0.998862
0 0.617185 1
0 0.7794 1
0 0.832267 1
0 0.440561 1
0 0.61932 1
0 0.41242 1
0 0.259193 1
0 0.692921 1
0 0.880315 1
0.0853631 1 0.914637
0 0.609735 1
0 0.652092 1
0 0.896797 1
0 0.465376 1
0 0.638999 1
0 0.401778 1
0 0.2746 1
0 0.321527 1
0 0.802754 1
0.245014 1 0.754986
0.0326282 1 0.967372
0 0.884816 1
0 0.987302 1
0.0205326 1 0.979467
0 0.841881 1
0 0.818669 1
0.117864 1 0.882136
0 0.598727 1
0.00243006 1 0.99757
0 0.7981 1
0 0.960776 1
0 0.998532 1
0.11068 1 0.88932
0 0.982617 1
0 0.829236 1
0 0.887965 1
0.091955 1 0.908045
0 0.740216 1
0.096831 1 0.903169
0 0.827079 1
0 0.616923 1
0 0.902385 1
0 0.826036 1
0 0.76031 1
0 0.713228 1
0 0.64345 1
0 0.289201 1
0 0.594049 1
0 0.748974 1
0 0.828672 1
0 0.580588 1
0 0.896746 1
0 0.672951 1
0 0.875638 1
0 0.617545 1
0 0.625686 1
0 0.270589 1
0 0.659203 1
0 0.681017 1
0 0.802819 1
0 0.398078 1
0 0.910767 1
0.175749 1 0.824251
0 0.463905 1
0 0.495796 1
0 0.379956 1
0 0.490481 1
0 0.385123 1
0 0.537091 1
0 0.601694 1
0 0.654373 1
0 0.953781 1
0.215876 1 0.784124
0 0.545226 1
0 0.42791 1
0 0.501527 1
0 0.546098 1
0 0.562371 1
0 0.528629 1
0 0.583667 1
0 0.160699 1
0 0.669276 1
0 0.571012 1
0 0.30538 1
0 0.674422 1
0 0.596511 1
0 0.187632 1
0 0.542293 1
0 0.68297 1
0 0.330449 1
0 0.0411586 1
0 0.587883 1
0 0.56523 1
0 0.242504 1
0 0.714961 1
0 0.50018 1
0 0.531223 1
0 0.496541 1
0 0.746734 1
0 0.388829 1
0 0.694175 1
0 0.400173 1
0 0.867829 1
0 0.375515 1
0 0.806468 1
0 0.562613 1
0 0.428309 1
0 0.48968 1
0 0.787818 1
0 0.705552 1
0 0.833306 1
0 0.444072 1
0 0.814108 1
0 0.65194 1
0 0.74387 1
0 0.601822 1
0 0.36683 1
0 0.36946 1
0 0.712953 1
0 0.471479 1
0 0.501161 1
0 0.677037 1
0.0442205 1 0.955779
0 0.278466 1
0 0.233302 1
0 0.482892 1
0 0.319227 1
0 0.2846 1
0 0.69357 1
0 0.807606 1
0 0.513787 1
0 0.588341 1
0 0.854598 1
0 0.175751 1
0 0.316847 1
0 0.1188 1
0 0.502146 1
0 0.384938 1
0 0.59143 1
0 0.702753 1
0 0.486867 1
0 0.622818 1
0 0.818298 1
0 0.768448 1
0.00161529 1 0.998385
0 0.4365 1
0 0.301514 1
0 0.376747 1
0 0.801213 1
0 0.929419 1
0 0.399081 1
0 0.522538 1
0 0.670975 1
0 0.626465 1
0 0.867557 1
0 0.481565 1
0 0.271034 1
0 0.270779 1
0 0.88057 1
0 0.732821 1
0 0.963026 1
0 0.830275 1
0 0.610545 1
0 0.577872 1
0.011117 1 0.988883
0.0499817 1 0.950018
0 0.894873 1
0 0.914448 1
0.159426 1 0.840574
0.0108191 1 0.989181
0.0760929 1 0.923907
0 0.867231 1
0 0.67414 1
0 0.379073 1
0 0.904858 1
0 0.998128 1
0 0.871017 1
0 0.965095 1
0.158456 1 0.841545
0 0.888455 1
0 0.614824 1
0 0.959726 1
0 0.600001 1
0.0797761 1 0.920224
0 0.515058 1
0 0.888838 1
0 0.291736 1
0 0.478194 1
0 0.476042 1
0 0.889345 1
0 0.576695 1
0 0.997924 1
0 0.699543 1
0.134209 1 0.865791
0 0.56275 1
0 0.763927 1
0 0.345866 1
0 0.51531 1
0 0.425152 1
0 0.988057 1
