# vtk DataFile Version 3.0
Particle simulation
ASCII
DATASET POLYDATA
POINTS 400 float
5.27501 2.2939 8.9085
8.84516 8.91311 5.99102
0.863899 4.57045 8.00205
0 2.77225 3.97469
5.30886 0.549637 2.00187
6.52682 0.156361 5.91052
1.12149 8.91651 3.79342
2.28997 9.80138 2.97812
0 9.04796 3.79152
6.19875 2.65788 8.33066
8.91911 0.755504 5.52539
6.52786 5.37462 7.87676
9.54465 4.35094 8.90858
4.9054 5.86688 8.48973
1.68915 0.650764 2.0395
0.61927 5.80929 9.50389
1.30908 8.04263 8.57994
5.07049 0.37373 4.09235
1.7493 4.3263 6.89305
1.06311 9.6633 4.55028
2.33833 2.23165 3.5457
8.12801 7.42824 2.03487
3.01056 3.9974 2.3343
3.74856 5.30231 9.78353
9.8912 5.22673 6.96514
3.25486 6.93523 0.20984
7.43979 8.90128 2.59011
7.0247 3.37718 5.20804
7.64897 0.757048 6.14857
4.63635 2.32315 8.64878
4.95824 1.08688 6.6958
9.65437 1.60722 1.77345
7.2388 3.31775 0.886944
0.905754 6.78689 4.67074
4.62827 2.23358 0.433866
9.18598 7.17775 0.971189
9.88983 3.40475 7.24807
9.73609 1.05814 2.22803
8.11593 6.87221 7.16074
0.934036 9.8458 1.84573
8.06356 7.58465 3.73733
5.65666 9.75497 3.04128
8.16572 8.17977 4.3511
0.539362 0.827516 2.39747
4.6939 8.05945 9.68379
4.84244 2.02698 3.0717
7.56458 1.5977 6.64667
8.42375 1.97093 0.866214
3.29385 3.62694 8.45539
3.04612 7.47137 4.73948
4.46816 8.84601 8.58481
9.8575 6.61448 7.67903
0.441558 1.55138 3.04457
3.95646 3.12295 3.21554
1.85448 7.4248 0.313101
1.81476 0.429896 1.75449
0.346173 6.75732 1.32255
3.89447 0.178336 7.54441
5.98402 1.3192 3.59121
8.53323 0.791149 5.07488
7.20525 6.20707 2.77121
7.16175 6.31006 4.71087
4.33836 3.97038 0.0979504
5.1161 8.79113 6.66207
4.48867 10 5.48609
5.23502 2.68131 9.10296
6.24499 4.73373 0.247449
7.11279 2.66724 0.280259
0.57332 4.79041 8.01806
2.06845 1.96231 3.06959
5.98982 0.264348 4.84168
9.06054 5.28826 0.33093
1.46124 7.22883 0.0927469
4.81068 1.90851 5.54997
2.09269 10 3.14741
9.37764 4.40939 0.730202
5.10281 6.83873 5.10745
7.42099 4.0836 1.31301
3.76923 6.8319 7.41639
7.65138 4.0834 0.0749396
9.38334 7.81147 1.91382
3.68292 8.32173 2.67721
0.528032 1.51565 4.77541
4.18135 1.9457 2.22971
4.96846 8.66923 7.9072
9.6662 2.67247 9.56358
7.48596 4.37739 6.1648
5.43038 9.62533 9.35029
7.35378 7.30233 7.93692
5.17352 2.33949 0.508526
8.64007 8.03868 3.24948
2.89833 4.62914 6.41415
9.51614 5.19079 9.43016
9.10329 3.52598 9.9041
5.53511 2.22431 3.97009
6.96808 3.95786 1.98821
4.8894 4.19725 3.32796
6.8368 1.18792 4.00901
5.12726 5.27362 5.37827
7.52909 0.597556 6.84239
1.91414 3.41203 7.78003
2.36239 1.39677 1.36557
1.53573 10 9.22791
5.81488 2.51319 8.58414
0.87974 9.78778 9.84563
2.05286 0.550824 3.55144
5.81812 7.38552 0.605383
9.6793 6.54437 1.98603
0.85525 8.5197 4.86299
1.45513 1.83809 3.98764
4.47905 1.86851 8.36604
1.25987 4.98825 0.615903
1.28184 2.52196 4.80449
2.05555 6.09166 0.395631
2.55023 2.97055 7.2538
2.20783 4.74545 6.84407
10 6.39643 1.3046
1.68422 0.319156 3.01179
6.53416 2.28877 9.10102
3.72218 7.57572 7.24904
0.895858 1.13825 0.794764
5.50064 2.51052 6.53546
7.06991 5.50175 7.24747
8.99394 3.60663 7.30142
5.55264 6.27785 8.07127
4.03143 0.594002 7.16502
9.35844 8.9346 0.172655
3.07141 4.44813 0.182034
5.04003 9.96141 7.87407
7.54201 6.07829 3.52732
0.732498 8.18358 8.80729
0.282046 6.06674 2.11247
0.293755 4.7433 3.45893
3.53227 3.06161 2.51478
2.27581 3.33815 2.92546
4.6328 1.82629 9.27849
7.80634 0 8.48682
3.96367 8.27055 6.11431
6.78283 3.09274 8.11408
9.08394 5.2789 4.25655
5.05844 0.424988 4.37292
9.83995 2.34965 7.57721
9.10399 1.13125 0.174772
6.65233 0.170439 8.56309
2.35664 5.17447 10
0.820992 0.560472 4.02302
9.21383 1.98657 2.61664
6.66337 0.630125 8.244
9.37576 1.22064 5.39761
5.47591 3.12702 5.51145
5.0198 0.48906 4.27237
6.42023 1.18596 9.6979
1.41712 8.05612 9.82985
2.62228 4.40917 9.61731
7.15436 5.5645 1.02729
4.57998 7.28564 3.23475
0.98771 7.7413 9.24132
4.65288 8.73814 0.384553
2.10948 4.66007 3.01328
9.30293 1.17606 5.47939
6.37368 4.38552 3.53141
3.17132 3.09827 7.94286
2.03524 1.9136 4.15077
1.8647 3.65689 7.74124
2.93261 8.47108 6.23951
6.24205 5.52177 7.64646
0.381163 0.845845 1.48953
4.64769 3.26294 8.76258
6.4697 6.12118 8.99036
6.56122 4.81426 1.33971
1.92346 3.70402 9.85941
1.29739 3.00981 9.21605
1.36543 6.40082 8.76486
9.43194 8.83093 5.49765
5.55585 0 5.93084
3.74768 5.85999 9.64144
7.98506 3.84852 4.36918
5.23076 9.70847 6.75816
1.93961 1.89538 2.24837
6.76226 7.86982 5.22535
4.15553 2.6583 2.05564
6.72697 0.332095 5.41089
0 7.85579 2.43579
0.450929 5.15654 7.23335
6.73728 4.7969 0.736944
0.842247 5.06324 6.80601
5.14683 0.631043 4.34226
8.08323 9.62857 2.07584
9.08482 8.99474 6.11434
6.92347 1.03487 10
6.58254 2.61998 8.44082
3.29665 0.435388 3.29873
7.79155 6.14044 2.36579
0 9.58117 9.74757
1.41932 1.29087 7.18984
7.1399 0.419792 5.23011
0.8077 0.192879 0.198734
6.27785 2.92334 6.11197
8.349 0.845998 4.93613
1.18481 2.2181 2.99051
5.26243 0.56596 4.1719
0.976237 1.0401 0.129409
8.68167 7.1904 1.35819
1.49181 10 9.11102
7.51339 10 3.81014
6.24619 7.09961 9.23224
9.87272 4.1403 1.8952
5.55586 8.58253 6.85186
6.60614 0.952379 0.156833
3.09797 0.894967 10
5.20162 0.584296 4.27843
5.31737 0.480544 4.37342
0.497556 4.72349 3.0528
2.20731 1.34929 2.00208
2.21061 5.95471 0.846985
1.41145 2.09459 7.76141
5.48206 0.709237 4.31612
5.15167 9.06798 0.33739
0.323668 7.58969 7.77162
0.313757 9.62637 6.21778
1.62566 6.46783 6.38737
2.03151 8.84348 8.55511
6.88843 6.46192 8.15904
4.24363 0.695095 4.26217
1.05737 1.32657 5.70633
5.10343 5.9248 0.993605
1.86782 7.03081 1.76488
5.17372 0.437137 4.69819
4.99611 0.470535 3.94286
5.87306 1.8423 5.14122
8.45445 0.916016 9.72992
2.68756 8.82895 2.08412
4.01266 0.99852 8.62089
4.75173 0.715382 4.23199
1.74559 1.84817 8.02842
8.35282 2.33277 2.42913
9.23635 7.00129 1.19961
7.8183 1.98957 3.56883
5.07819 0.566225 4.24718
5.84797 7.30741 7.59923
5.29102 0.468907 4.46867
9.94361 1.50693 1.95857
10 5.58602 3.12873
8.32706 2.25254 2.92546
3.03765 4.14782 9.28227
5.52106 7.4403 3.69912
0 8.33297 2.07827
7.34373 9.91441 5.83502
9.56193 5.72667 5.20354
3.35063 0.873747 6.86853
5.38852 0.66415 4.29864
1.6409 3.31859 2.6789
0 1.17129 2.83252
2.03804 7.47762 2.12511
5.28793 6.33052 7.73491
9.58391 2.94422 3.76588
6.99775 3.60721 6.31599
1.49179 0.767442 7.73842
9.53607 9.57113 9.56052
9.80034 5.57459 2.60098
3.47939 5.15148 1.75567
2.46261 5.15259 0.0344636
6.4401 7.2449 9.49812
7.66526 8.93293 6.87108
9.18249 7.6645 9.90655
4.51788 5.68404 5.43532
7.25446 4.48415 0.492063
9.04944 3.6594 9.44884
8.99351 9.28446 7.01152
1.21403 0.135923 9.12141
4.8883 0.379341 4.23121
0.0213164 10 4.68643
8.11747 9.50404 1.58999
9.23893 7.44601 7.03538
9.05948 7.5507 0.582323
7.72265 3.04882 3.16102
7.43438 0.680482 5.38603
4.48427 4.34388 8.9362
1.40211 5.00074 0.970027
4.60322 0.593233 4.3321
6.48977 1.97291 0.690422
7.54558 1.13621 2.52338
3.42664 5.006 7.0436
9.29379 7.40659 3.163
7.26551 4.29498 0.240331
6.5172 2.32496 0.242479
5.2343 0.380423 4.42897
2.33008 1.14879 8.55366
5.47711 6.26654 7.49753
4.77073 2.36949 9.20409
3.90288 6.22025 1.76661
6.58734 7.5318 3.59854
0.316897 3.23845 2.11746
8.99315 8.61286 8.07009
1.38695 9.76172 7.22395
1.98325 0.802112 7.95646
5.13835 0.592965 4.07628
4.92178 0.433247 4.26589
4.3463 0.128257 4.22175
5.31312 0.499693 3.85096
0.767681 7.0785 1.00159
5.82653 3.8517 9.47455
4.80143 0.632725 3.89957
0.857194 0.400303 3.87195
5.75416 0.412475 4.04835
7.18587 10 5.36739
4.91858 0.107924 4.25457
5.11952 0.477202 4.23934
4.83333 2.44873 4.30003
9.22897 7.02648 0.172405
8.57783 8.27321 7.76611
5.43469 6.97571 8.74554
4.32619 9.85259 1.11767
5.24845 0.334998 4.13917
8.83597 7.07429 8.21492
9.5894 2.72147 3.21038
7.59357 9.78273 7.83517
6.342 6.26824 5.83868
4.23193 2.1445 1.98558
1.86218 7.11178 8.57264
2.12978 0.41209 7.76982
6.42333 2.65192 8.97923
1.9833 1.1192 8.01014
4.80363 0.379291 4.4139
5.12827 0.276214 4.48285
5.11987 8.48066 1.49884
5.53927 0.485317 4.36824
9.72379 4.17749 3.35874
2.40889 4.57962 3.62876
5.20719 0.540499 4.40025
0.793117 4.76324 9.24107
0 7.33181 2.40845
5.35521 7.71937 0.104695
8.8787 8.65889 9.38496
9.54703 1.02324 3.65139
0 5.02538 10
0.260545 3.1652 9.81568
4.91215 0.33447 4.33139
0.996126 5.46403 8.03817
7.98797 8.8386 9.71964
6.03673 3.59075 4.83405
0.536756 8.7528 3.53772
4.65247 0.397539 5.18777
1.867 0.886666 8.07068
4.8956 0.1746 3.87558
5.2258 0.559627 3.8852
9.99308 0.495925 3.51476
4.6785 0.466123 4.445
4.7357 0.609395 4.49824
4.21111 0.754974 8.65782
4.5866 0.727898 4.06642
5.12953 0.567426 4.6504
0.611499 9.50469 10
9.95852 4.14246 5.4445
2.84904 2.95533 7.00012
5.16261 0.593981 3.91571
9.23707 1.94331 6.46119
2.86114 2.55972 9.59728
4.89938 0.432127 4.45277
4.88729 0.334265 4.1085
9.94144 1.2894 4.15502
1.83955 1.09308 7.97627
1.89624 0.684588 8.02625
4.41089 0.166447 4.27793
5.4661 0.69441 4.12797
9.32672 0.896221 3.55219
1.78104 0.855031 7.98981
4.99048 6.21472 6.80568
1.88413 1.02955 7.90272
9.10762 5.5973 7.60819
9.98761 0.380646 3.32864
4.3077 4.64391 7.1457
5.49146 2.16045 7.12277
5.32646 0.475309 4.27359
5.16415 0.477705 4.22271
9.26606 1.38291 3.5567
1.97214 0.804927 7.85646
2.04505 0.736316 8.0976
0.0246529 2.21369 9.20383
4.09476 0.729948 4.24253
5.28464 0.443847 4.08694
5.39197 0.493901 4.24773
5.21347 6.32767 5.59087
4.7696 0.510148 4.24845
0.997428 7.86856 0.0693889
1.9777 0.816486 7.97437
5.03146 0.457748 4.31384
5.10107 0.426163 4.33352
1.75466 8.45795 7.81649
1.33371 1.23729 6.46364
5.19718 0.0115628 4.0519
4.44202 0.740304 3.92309
2.27839 0.661484 8.14428
5.26203 0.782153 4.32121
2.33737 4.82285 3.35311
1.73175 0.45366 8.31301
4.98069 0.332983 3.89415
1.30895 3.54853 1.3407
7.35164 8.61862 4.92774
7.75824 0.680266 1.95566
POINT_DATA 400
SCALARS particleColor float 3
LOOKUP_TABLE default
0.989397 1 0.0106033
1 5.96046e-08 0
1 0.887375 0
0.469707 1 0.530293
0.827266 1 0.172734
0.55481 1 0.44519
1 0.138467 0
0 0.93811 1
1 5.96046e-08 0
1 0.992134 0
1 0.936845 0
1 0.578819 0
1 0.566662 0
1 5.96046e-08 0
1 0.694551 0
1 5.96046e-08 0
1 5.96046e-08 0
0 0.641399 1
1 5.96046e-08 0
1 0.274232 0
0.270818 1 0.729182
0.530175 1 0.469825
1 0.232347 0
1 0.557216 0
1 0.0907634 0
1 0.212356 0
0.265851 1 0.734149
1 0.920444 0
0.366413 1 0.633587
0 0.365509 1
1 5.96046e-08 0
0 0.591358 1
1 0.0119096 0
1 0.297948 0
1 0.398321 0
0.513774 1 0.486226
0.659211 1 0.340789
0 0.621924 1
1 0.91262 0
0 0.996494 1
1 5.96046e-08 0
1 0.67622 0
1 5.96046e-08 0
1 5.96046e-08 0
0.505824 1 0.494176
1 5.96046e-08 0
0.138682 1 0.861318
1 5.96046e-08 0
1 0.05503 0
1 5.96046e-08 0
1 5.96046e-08 0
1 0.861718 0
1 5.96046e-08 0
1 5.96046e-08 0
1 0.872819 0
0.131608 1 0.868392
1 0.865334 0
0 0.665772 1
1 0.301538 0
0.987569 1 0.0124314
1 0.754619 0
1 0.545876 0
1 5.96046e-08 0
0.260596 1 0.739404
1 5.96046e-08 0
0.348135 1 0.651865
0.296607 1 0.703393
1 0.561806 0
0.319201 1 0.680799
0.575186 1 0.424814
0.100964 1 0.899036
0.341051 1 0.658949
1 0.486181 0
0.994748 1 0.00525188
1 5.96046e-08 0
0.745495 1 0.254505
0.617168 1 0.382832
1 5.96046e-08 0
0.483001 1 0.516999
1 0.499753 0
1 0.447014 0
0.731531 1 0.268469
1 0.672818 0
1 0.361942 0
1 5.96046e-08 0
0.724066 1 0.275934
1 5.96046e-08 0
1 5.96046e-08 0
1 5.96046e-08 0
1 5.96046e-08 0
1 5.96046e-08 0
1 5.96046e-08 0
1 5.96046e-08 0
1 0.770587 0
0 0.94046 1
0.233316 1 0.766684
1 0.306207 0
1 5.96046e-08 0
0 0.930595 1
1 5.96046e-08 0
1 0.76166 0
1 5.96046e-08 0
1 5.96046e-08 0
1 5.96046e-08 0
1 0.755481 0
1 5.96046e-08 0
1 5.96046e-08 0
1 0.105 0
0.432635 1 0.567365
1 5.96046e-08 0
1 5.96046e-08 0
1 5.96046e-08 0
1 0.660887 0
1 0.326794 0
0.348831 1 0.651169
1 0.527209 0
1 0.425476 0
1 0.814852 0
0.771375 1 0.228625
1 0.698878 0
1 0.981385 0
1 0.440916 0
1 0.928451 0
1 5.96046e-08 0
1 5.96046e-08 0
0 0.698523 1
0.823362 1 0.176638
1 5.96046e-08 0
0 0.302177 1
1 5.96046e-08 0
1 0.70239 0
1 5.96046e-08 0
1 5.96046e-08 0
0.902481 1 0.0975188
1 0.322393 0
0.864515 1 0.135485
1 5.96046e-08 0
0.592255 1 0.407745
0.136857 1 0.863143
0 0.572543 1
0 0.812105 1
0.713732 1 0.286268
1 5.96046e-08 0
1 5.96046e-08 0
1 5.96046e-08 0
1 0.68137 0
0 0.558379 1
0.633202 1 0.366798
1 0.559077 0
0.289828 1 0.710172
0 0.348878 1
1 5.96046e-08 0
1 0.11934 0
0.83051 1 0.16949
1 5.96046e-08 0
1 0.485117 0
0.49559 1 0.50441
1 0.68779 0
1 5.96046e-08 0
0.99719 1 0.00280952
1 0.272731 0
0.865937 1 0.134063
1 5.96046e-08 0
1 0.726226 0
1 5.96046e-08 0
1 0.45134 0
1 5.96046e-08 0
1 5.96046e-08 0
1 5.96046e-08 0
1 0.623943 0
1 0.969331 0
0.944217 1 0.0557835
1 5.96046e-08 0
1 5.96046e-08 0
1 0.427135 0
1 0.674491 0
1 5.96046e-08 0
0.418491 1 0.581509
1 5.96046e-08 0
1 0.972373 0
0.995081 1 0.00491935
1 0.423706 0
0.251373 1 0.748627
0.251006 1 0.748994
1 0.364772 0
1 5.96046e-08 0
0 0.852366 1
1 0.794445 0
0.779121 1 0.220879
0.647709 1 0.352291
1 0.523388 0
0 0.715351 1
1 5.96046e-08 0
0.488659 1 0.511341
1 0.302676 0
0.636505 1 0.363495
0.14957 1 0.85043
0.458569 1 0.541431
0 0.270324 1
0.547415 1 0.452585
0 0.256236 1
0.378783 1 0.621217
0.978643 1 0.0213565
1 5.96046e-08 0
1 5.96046e-08 0
1 5.96046e-08 0
1 5.96046e-08 0
0 0.962255 1
1 0.505361 0
1 0.671398 0
0 0.546787 1
0 0.945906 1
0.395941 1 0.604059
1 0.970904 0
1 5.96046e-08 0
1 0.800148 0
0 0.501257 1
0 0.926808 1
1 5.96046e-08 0
0.923567 1 0.0764326
1 0.863284 0
1 5.96046e-08 0
1 0.621729 0
0 0.361311 1
1 5.96046e-08 0
1 0.422868 0
1 0.597678 0
0.0704193 1 0.929581
0 0.643718 1
1 5.96046e-08 0
0.564679 1 0.435321
0.997073 1 0.0029273
1 0.71974 0
0.185057 1 0.814943
0 0.503106 1
1 5.96046e-08 0
1 5.96046e-08 0
1 0.165536 0
0 0.620267 1
1 5.96046e-08 0
0.0953556 1 0.904644
0.401383 1 0.598617
0.81035 1 0.18965
0 0.720361 1
1 5.96046e-08 0
1 0.359823 0
1 5.96046e-08 0
1 5.96046e-08 0
1 5.96046e-08 0
1 5.96046e-08 0
0 0.622255 1
0.580804 1 0.419196
1 5.96046e-08 0
0.95819 1 0.0418102
1 0.75614 0
1 0.0669578 0
1 0.118478 0
0 0.159216 1
0.940537 1 0.059463
1 5.96046e-08 0
1 5.96046e-08 0
1 0.856442 0
1 5.96046e-08 0
1 5.96046e-08 0
1 5.96046e-08 0
1 5.96046e-08 0
1 5.96046e-08 0
1 5.96046e-08 0
1 0.515629 0
1 5.96046e-08 0
0 0.471847 1
1 0.464489 0
0.0648651 1 0.935135
0.850665 1 0.149335
1 0.762371 0
0.272641 1 0.727359
1 0.845683 0
1 5.96046e-08 0
1 5.96046e-08 0
0 0.492223 1
1 0.886214 0
0 0.463286 1
1 0.169266 0
1 0.20348 0
1 5.96046e-08 0
1 0.270907 0
0 0.542498 1
1 5.96046e-08 0
0.624267 1 0.375733
0.364129 1 0.635871
1 0.088656 0
1 0.101701 0
1 5.96046e-08 0
1 5.96046e-08 0
1 0.478339 0
0 0.141287 1
0 0.771784 1
0 0.590951 1
0 0.601901 1
0 0.400608 1
1 5.96046e-08 0
1 0.163363 0
0 0.6779 1
1 0.721308 0
0 0.304311 1
1 5.96046e-08 0
0 0.519558 1
0 0.496161 1
0.763128 1 0.236872
0.382835 1 0.617165
0.696384 1 0.303616
0.428022 1 0.571978
0.693776 1 0.306224
0 0.939577 1
0.675452 1 0.324548
1 0.991325 0
1 5.96046e-08 0
0.0444199 1 0.95558
1 0.578598 0
0.122887 1 0.877113
0 0.951107 1
0.66543 1 0.33457
0 0.671612 1
0 0.54166 1
0.167987 1 0.832013
1 0.984654 0
0 0.629639 1
1 0.608706 0
0.536367 1 0.463633
0 0.734468 1
0.628074 1 0.371926
1 5.96046e-08 0
1 0.203714 0
1 0.549505 0
0 0.746709 1
1 5.96046e-08 0
0.956874 1 0.0431261
0 0.511838 1
1 0.495035 0
1 0.473418 0
0.650058 1 0.349942
1 5.96046e-08 0
1 5.96046e-08 0
0 0.678769 1
0 0.449917 1
0.222447 1 0.777553
0 0.499634 1
0 0.921537 1
0.109086 1 0.890914
1 0.906702 0
0 0.408504 1
0.00792227 1 0.992078
0.954832 1 0.0451679
1 5.96046e-08 0
0 0.518199 1
0 0.341264 1
1 0.237874 0
1 5.96046e-08 0
0 0.402546 1
0 0.779524 1
0.441489 1 0.558511
0 0.232999 1
0 0.404782 1
0 0.316296 1
0 0.723331 1
0 0.860058 1
0 0.390545 1
0.684763 1 0.315237
0 0.928839 1
1 0.596683 0
0 0.972151 1
1 5.96046e-08 0
1 5.96046e-08 0
0.0668798 1 0.93312
0 0.940086 1
0 0.476838 1
0 0.890868 1
0.0236545 1 0.976346
0.80539 1 0.19461
0 0.483033 1
0.155042 1 0.844958
0 0.400341 1
1 0.0100256 0
0.014576 1 0.985424
1 0.895356 0
0 0.295691 1
0 0.804767 1
0 0.762601 1
0 0.720338 1
1 0.709772 0
0 0.873564 1
0 0.594625 1
0.0845663 1 0.915434
0 0.627191 1
1 5.96046e-08 0
0 0.875939 1
0 0.856207 1
0.769727 1 0.230273
0.293254 1 0.706746
0 0.928674 1
