# vtk DataFile Version 3.0
Particle simulation
ASCII
DATASET POLYDATA
POINTS 400 float
4.06667 9.92462 2.97774
0.926089 4.5985 2.71735
4.35603 3.28545 2.36673
3.47164 6.33797 3.86905
8.44558 5.34033 2.04485
0.299343 4.01493 5.20319
9.93996 9.49346 4.17416
3.57982 0.490335 1.92425
2.99782 6.79853 0.927221
8.672 3.15183 1.46028
3.98834 0.992253 9.55632
8.19299 1.02247 9.9301
9.72443 7.70169 3.66121
4.30975 3.33764 6.63536
0.559805 0 1.33014
8.73832 4.93284 6.45345
8.02194 2.35221 1.82435
7.01144 6.29197 3.22594
2.8413 8.67461 9.85005
1.81628 3.36665 3.21192
2.10059 3.59845 1.38626
8.88696 0.74251 7.19684
6.68587 8.05274 3.96505
4.05743 8.93473 6.0529
9.16304 4.14878 8.20888
7.11288 0.599039 9.07288
2.57217 9.43018 0.551804
9.51219 3.22681 8.01887
0.867412 1.4755 4.69679
9.86837 0.412343 6.53935
2.11943 4.25499 5.47836
7.03514 0.630167 7.39215
9.35312 0.351598 4.11554
0.203494 3.12128 6.18966
6.54135 3.75135 6.14675
3.43893 3.0683 6.19748
0.430196 4.31215 3.56557
5.02865 6.8065 3.12787
3.97955 5.55138 3.82166
2.564 0.358374 7.29979
5.76872 9.23506 3.80806
4.66426 7.99761 3.38074
0 8.05395 1.20926
9.1413 4.71441 8.28712
9.5205 8.10152 2.56494
2.82451 5.29407 0.329138
0.206975 4.94657 1.2167
2.30798 9.89418 2.07015
1.00396 2.38609 3.15948
1.5047 2.4924 7.80311
7.76956 0.376479 6.96887
1.36358 2.02488 7.34959
3.83192 8.56485 4.28015
2.57546 5.0992 0.531576
9.17273 2.44253 6.74505
3.61708 1.94311 6.36172
8.43505 6.85111 2.3484
9.01033 2.00237 3.85329
1.79976 0.86679 6.35239
2.13585 9.38656 6.12534
3.06491 4.53246 5.68459
1.48859 9.54551 8.0426
5.1892 2.15801 2.17943
3.60149 3.3207 4.6535
7.24057 6.82714 3.9104
1.91044 7.40423 7.82379
6.89432 3.40233 0.708248
9.06969 7.70898 2.90412
7.68395 5.02938 3.58769
1.58331 6.10344 7.99031
1.12354 6.11479 6.32467
8.1169 3.4368 5.66681
7.78072 0.884515 1.75248
9.80987 0.495842 7.46397
6.43555 7.6034 8.82868
4.4366 1.38932 3.03365
4.9734 5.80142 2.22883
2.63798 6.65783 1.0087
3.68124 8.69289 4.39918
8.31374 8.28829 5.68874
2.62517 1.82628 4.3041
8.8502 9.92787 5.35971
5.12803 0.0237373 7.27556
1.70593 9.23013 8.76254
4.53722 4.5597 6.63794
8.89808 0.807521 9.7658
7.59651 1.08082 6.14107
6.00519 7.30321 5.0243
3.55856 1.69051 6.10764
8.84826 6.82745 6.66141
1.82361 7.89966 1.12632
0.325528 1.52452 2.12179
6.79359 5.59729 2.46237
7.17282 3.42735 6.09236
10 7.95979 4.34489
3.78542 9.15281 8.7831
0.92706 7.16057 6.53246
4.07691 9.85498 2.13732
2.26572 0.107565 0.729453
6.71022 6.16 5.95777
10 4.84316 9.72826
8.9547 0.702358 6.91209
4.06022 0.559295 0.903074
4.12969 2.05972 9.63686
3.36095 0.222942 8.64545
4.95681 1.88471 8.03731
8.67308 6.76516 5.72481
7.34016 1.62915 6.72434
7.99586 3.72901 5.27787
8.56851 8.90856 0.531322
1.99707 1.1835 9.08682
3.17508 8.21539 6.66264
8.63984 1.57699 6.5401
7.04448 2.65751 2.88047
5.13776 9.48062 6.35388
0.131233 4.14996 4.97328
10 4.08133 6.64566
7.69203 2.29953 4.10478
2.81279 8.58652 2.76263
9.36684 5.3338 9.52643
3.55794 4.79878 0.238991
0 1.41764 7.10166
1.61837 0 8.22719
2.41443 8.55642 2.08139
10 2.40529 1.8313
1.41343 6.42584 0.541028
6.6899 2.02423 9.67916
6.21759 2.74169 7.78037
9.68181 1.91226 4.27109
8.04361 0.390066 5.12292
10 10 2.14699
0.284032 2.16189 3.73253
2.49085 1.33221 3.12567
1.56094 9.70857 5.09305
4.65263 9.39259 1.95589
7.75038 5.99508 0.0116728
7.46414 7.55647 3.92836
0 6.26802 0.833689
5.96171 8.18168 3.10066
4.38408 0.430802 9.80409
9.12066 1.25566 9.81186
7.93205 0.765052 6.72305
2.94364 5.49352 8.75532
7.70446 0.938324 2.20622
1.99571 3.10827 8.69121
5.62852 3.05384 0.695937
7.36282 1.62966 7.04679
2.28494 1.3063 9.77497
3.00725 5.34958 4.99403
5.2671 7.18309 5.63286
7.38749 0.442748 7.13148
5.59787 0.143087 1.66343
9.098 0.517377 3.512
5.05476 0.595165 0.407222
8.76827 4.97535 7.8064
1.3593 6.83001 7.58518
9.59315 4.46849 3.8532
8.67468 0.310632 2.88814
1.7587 6.69711 1.06099
2.24044 8.83528 3.81776
6.75565 0.449659 7.35305
9.76725 5.14555 0.514691
6.88486 9.08961 0.0459499
2.02254 8.03166 5.76613
0.18308 3.52457 5.37738
1.52618 4.52539 1.76238
5.83733 3.28163 9.30816
1.20884 2.71744 7.27754
1.38247 1.65262 3.07781
7.5853 0.709878 8.35632
2.63254 2.64384 5.73634
10 0 8.73841
7.19267 2.29044 4.70874
3.28577 0.666691 6.52513
5.9195 4.50679 4.61703
1.97357 8.63795 5.74941
0.447549 5.20993 9.12679
5.02529 2.58185 8.70852
0.794655 1.01051 9.57426
6.31439 5.79124 5.20208
0.356428 3.97386 6.7042
10 2.45717 7.75678
0.482106 0 6.02846
7.6923 4.3562 6.42362
5.42167 0 0.752068
3.69863 5.48101 3.1007
8.02888 0.397321 6.99654
1.57164 6.55109 1.67563
1.46718 8.82103 0.450996
2.71639 9.63803 8.62414
1.78808 5.15161 7.51778
1.26222 2.42453 8.13343
0.322673 9.74179 4.30236
4.5853 5.23667 0.656658
10 2.4289 5.24918
7.40606 6.14881 2.31624
7.29236 0.958311 2.06818
7.40136 6.6791 4.02299
7.38407 9.05866 9.10506
6.5426 6.47111 6.48268
7.6956 0.542215 6.02969
6.69889 8.53754 3.93186
5.56083 2.04874 5.67555
4.3159 6.85703 6.70343
1.93368 0.111831 2.32445
9.19219 2.9238 7.95018
0.508091 5.89895 1.9429
5.30728 7.94737 1.97676
5.20765 8.88247 5.01791
2.53122 5.13842 6.06371
4.89229 0.176416 9.98339
5.75408 0.926972 9.80513
7.21235 2.08298 5.52411
1.63401 8.93308 1.33768
1.45703 2.00821 8.10605
8.09735 4.57603 7.19437
5.97181 1.43805 8.06731
7.92974 1.30171 4.94187
0.365883 6.15786 0.244673
1.4532 10 3.19355
1.88022 6.62954 7.92271
1.85261 8.86073 4.54564
7.08213 2.66022 7.36063
8.01925 0.647764 5.66839
6.10046 5.15274 7.95667
1.29221 8.02719 2.30177
4.13734 8.86702 8.02231
6.69035 7.82054 9.76051
7.54288 0.33674 7.15998
7.58765 8.4578 5.47662
5.98062 1.86067 9.35138
7.26844 1.71822 9.58083
9.79326 1.02385 2.03056
4.20082 0.19146 7.35289
3.53768 9.41174 7.03947
8.18097 4.28397 0
3.43663 2.13306 6.14857
1.01737 3.8581 6.06988
7.24795 0.470437 7.45265
6.98885 0 6.1607
7.36323 0.580923 7.77844
4.78444 0.943394 7.35032
8.12902 4.72754 6.84913
6.54248 8.05114 4.2828
2.60568 8.01389 1.30204
3.10036 5.03536 6.53748
1.10463 0.895594 9.5246
0 1.95724 4.28115
2.63425 1.52384 9.08135
8.35509 3.2559 8.51736
6.69291 1.66587 2.35473
0.222729 0.0881676 1.27772
9.23112 9.11726 7.6038
5.03453 4.79275 3.99148
8.24232 8.04754 6.20688
2.61375 0.37341 2.04306
4.18666 3.35734 7.9044
9.89104 2.18069 6.59275
0.727964 4.09857 5.97226
6.75404 8.99178 4.03635
8.55719 2.06062 2.10231
8.37725 7.12444 0
4.05609 6.72737 7.10623
4.24809 8.99477 3.52609
7.11036 2.37369 3.76383
8.38369 7.99916 3.04147
3.71051 1.16347 4.92776
4.06767 5.31974 2.40137
3.67902 9.75411 2.68729
1.1782 8.81222 1.13956
6.9613 4.17475 1.6785
8.35008 1.64579 2.09091
5.61483 6.45427 9.86183
9.26173 1.49489 0.95797
4.90825 2.52121 1.84507
5.44805 2.6763 9.45611
9.79659 7.2514 2.05098
3.20318 2.00785 4.06421
1.34912 1.28248 0
8.27153 0.193566 7.16008
8.58579 5.80305 3.103
4.24786 2.27656 5.30438
6.1014 1.2326 9.69293
1.62224 2.36042 9.85766
5.31348 9.492 6.25154
9.84356 1.65277 2.10927
5.89936 1.62016 7.94128
1.53526 5.50658 9.72765
5.96316 9.2111 2.8354
1.27523 5.86315 5.15473
8.07493 7.23077 4.05086
5.74235 6.60598 6.24833
9.53615 7.32807 6.05618
5.654 2.10703 4.56475
1.20047 8.23584 3.15581
1.08714 0.543188 8.55149
7.55072 0.250074 7.10625
7.91992 0.80403 6.58595
7.71682 0.254289 7.32447
7.79118 0.0464511 7.26748
5.11231 9.85276 6.39672
8.12429 1.65577 6.12525
7.53458 0.21198 7.02995
1.02991 2.77366 9.19383
7.31736 0.247197 7.42478
0.374771 4.89506 7.89018
7.70783 0.525618 5.8086
7.58803 0.445824 7.14893
2.44538 8.46119 0.659467
2.4241 6.01156 7.09203
9.55864 5.34396 0.240465
4.28628 10 5.38854
1.25034 1.31443 6.27312
7.38169 0.66229 7.18266
4.47678 9.06177 3.07045
6.61266 4.88321 7.49394
8.66875 5.55295 6.76204
7.75024 0.552446 7.38903
3.51628 5.30689 8.88116
2.3888 3.57074 5.35307
7.95023 8.51939 5.90868
1.48674 0.438244 9.05625
1.03331 0.529536 8.40851
7.4692 0.452098 6.96702
7.87077 0.403888 7.06487
0.542929 9.03475 8.79717
7.85768 0.711132 5.91656
3.81416 1.15847 5.94823
8.77781 6.08916 2.77014
7.24467 0.370209 7.03056
1.92868 8.84173 3.89171
4.34305 0.976361 0.0985233
7.7756 10 2.59606
1.57454 0.92683 2.74981
2.61583 2.38892 9.69919
4.78834 4.96967 2.23009
8.63951 1.37036 0.648735
7.33078 0.461069 6.83828
10 4.60019 5.84913
1.65761 7.11768 3.59412
8.36061 7.88203 2.33918
1.42495 7.38125 6.62829
6.81573 9.52354 1.3793
1.01842 0.624248 8.45619
7.75013 0.630066 6.6853
5.34924 0.709729 1.99699
9.44093 1.31 1.08206
7.42309 0.69581 6.60226
7.58317 0.406169 7.12357
0.446866 4.54388 5.86932
7.23013 0.494414 7.64376
7.41872 0.27735 7.40512
1.42651 7.31167 2.90037
3.93169 7.19225 3.13103
0 9.72471 6.85528
7.45282 0.165158 7.20919
8.1922 10 6.57813
3.58164 0.724953 3.47765
7.47976 0.379866 7.11067
7.49832 0.382848 7.30076
7.20451 10 2.69971
1.43451 0.58575 8.45331
1.20598 0.561232 8.39486
7.37567 0.553132 7.25435
6.43341 1.2567 6.62963
4.89575 7.79094 2.11444
0.974062 0.333907 8.54891
1.94022 5.73226 1.32703
8.6722 9.83191 6.4947
4.58361 7.10174 1.03762
9.23915 0.973337 1.12108
2.5194 8.64602 2.58293
0.551108 2.66416 1.09643
8.06497 0.0277622 7.6157
7.18681 0.635671 6.68325
8.26517 1.71392 6.54287
1.00604 0.392477 8.45222
2.7912 0.959949 4.18116
2.77046 6.59829 6.76161
7.83229 0.110306 6.98591
7.50862 0.579562 7.09499
7.28021 0.411458 7.35411
8.51797 0 7.00392
7.53785 0.141522 7.74731
2.74841 9.50843 9.8995
1.02308 0.349373 8.43152
7.49427 0.551661 7.30909
7.15005 0.361692 7.24689
10 5.52186 4.11937
7.9414 7.53485 1.17454
7.99502 0.22595 7.39538
7.61334 0.530136 7.05963
0.655168 9.5507 1.16539
7.71852 0.0949882 7.49271
6.80057 3.08389 0.0959644
7.37348 4.39015 3.67203
7.35682 0.546338 7.15618
8.58087 7.03798 5.55024
2.36444 5.81513 8.50067
2.85929 1.00262 8.17121
POINT_DATA 400
SCALARS particleColor float 3
LOOKUP_TABLE default
0.28985 1 0.71015
1 0.186467 0
0.321106 1 0.678894
1 5.96046e-08 0
1 5.96046e-08 0
1 0.651332 0
1 0.0317047 0
1 0.565822 0
0 0.703063 1
0.675997 1 0.324003
1 0.0129748 0
1 5.96046e-08 0
0.776975 1 0.223025
1 5.96046e-08 0
1 5.96046e-08 0
0.630161 1 0.369839
0.86275 1 0.13725
1 0.821054 0
1 0.346008 0
1 5.96046e-08 0
0.0451845 1 0.954816
1 5.96046e-08 0
0.540525 1 0.459475
1 0.604548 0
1 5.96046e-08 0
1 0.71797 0
1 0.345465 0
1 5.96046e-08 0
1 0.833122 0
1 0.395001 0
1 0.782739 0
0 0.730861 1
1 0.363972 0
1 5.96046e-08 0
1 5.96046e-08 0
1 0.93294 0
1 5.96046e-08 0
1 5.96046e-08 0
1 5.96046e-08 0
1 0.0412803 0
1 5.96046e-08 0
1 0.249206 0
1 5.96046e-08 0
1 5.96046e-08 0
1 0.440216 0
1 0.708932 0
1 0.830186 0
0.532322 1 0.467678
0.199246 1 0.800754
0.455852 1 0.544148
0.247033 1 0.752967
1 0.11832 0
1 0.568931 0
0 0.466731 1
1 5.96046e-08 0
1 5.96046e-08 0
1 5.96046e-08 0
0.0126962 1 0.987304
1 0.976568 0
0.616077 1 0.383923
1 0.156322 0
0.701353 1 0.298647
0.747354 1 0.252646
1 0.445773 0
1 5.96046e-08 0
1 0.466231 0
1 5.96046e-08 0
1 0.920498 0
1 5.96046e-08 0
0 0.893336 1
1 0.446071 0
1 0.898125 0
1 0.82803 0
0.790881 1 0.209119
1 5.96046e-08 0
1 0.0831854 0
0 0.984169 1
1 5.96046e-08 0
0.864645 1 0.135355
1 5.96046e-08 0
1 5.96046e-08 0
0.937936 1 0.0620638
1 5.96046e-08 0
1 0.962433 0
1 5.96046e-08 0
1 5.96046e-08 0
0.353612 1 0.646388
1 5.96046e-08 0
1 5.96046e-08 0
1 0.869841 0
0.203468 1 0.796532
0.360245 1 0.639755
1 5.96046e-08 0
0.357083 1 0.642917
1 5.96046e-08 0
1 5.96046e-08 0
1 5.96046e-08 0
0.835375 1 0.164625
0.63775 1 0.36225
1 5.96046e-08 0
0.46115 1 0.53885
0.201624 1 0.798376
1 5.96046e-08 0
0.266489 1 0.733511
1 5.96046e-08 0
1 5.96046e-08 0
0 0.983876 1
1 5.96046e-08 0
1 5.96046e-08 0
1 5.96046e-08 0
1 0.0720439 0
1 5.96046e-08 0
0 0.762104 1
1 0.694991 0
1 0.976386 0
1 0.335655 0
1 5.96046e-08 0
1 0.565255 0
1 5.96046e-08 0
1 0.215538 0
1 5.96046e-08 0
1 5.96046e-08 0
1 5.96046e-08 0
1 5.96046e-08 0
1 0.940657 0
0.280859 1 0.719141
1 0.202475 0
0 0.490961 1
0 0.998192 1
1 0.409851 0
0.469234 1 0.530766
1 5.96046e-08 0
1 5.96046e-08 0
1 0.742361 0
1 5.96046e-08 0
1 0.512544 0
0.332582 1 0.667418
1 0.238264 0
1 5.96046e-08 0
1 5.96046e-08 0
0.287762 1 0.712238
1 5.96046e-08 0
1 5.96046e-08 0
1 5.96046e-08 0
0.959082 1 0.0409184
1 0.833367 0
1 5.96046e-08 0
1 0.577599 0
1 5.96046e-08 0
0.531618 1 0.468382
0 0.571339 1
1 5.96046e-08 0
1 0.693199 0
0.262878 1 0.737122
1 5.96046e-08 0
0.351624 1 0.648376
0.148532 1 0.851468
1 0.455961 0
0.908366 1 0.091634
1 5.96046e-08 0
1 5.96046e-08 0
0.388063 1 0.611937
0.244668 1 0.755332
0.363906 1 0.636094
0.60006 1 0.39994
1 0.86022 0
0.83968 1 0.16032
1 0.447834 0
0 0.924199 1
1 0.558622 0
1 0.00358248 0
1 5.96046e-08 0
1 5.96046e-08 0
0.813173 1 0.186827
0.726563 1 0.273437
1 5.96046e-08 0
1 5.96046e-08 0
1 0.0581311 0
1 0.608581 0
1 5.96046e-08 0
0 0.747711 1
1 5.96046e-08 0
1 0.325248 0
0.77855 1 0.22145
0.155967 1 0.844033
0.892151 1 0.107849
0 0.243654 1
1 5.96046e-08 0
0.145677 1 0.854323
1 5.96046e-08 0
1 0.0404911 0
0.996122 1 0.00387812
1 5.96046e-08 0
1 0.651581 0
1 5.96046e-08 0
1 5.96046e-08 0
0.410444 1 0.589556
1 5.96046e-08 0
1 5.96046e-08 0
1 0.325571 0
0 0.153244 1
1 0.509902 0
1 0.537915 0
1 5.96046e-08 0
1 5.96046e-08 0
1 5.96046e-08 0
1 0.756422 0
0.716839 1 0.283161
1 0.213657 0
1 5.96046e-08 0
1 0.90889 0
1 5.96046e-08 0
1 0.148114 0
1 5.96046e-08 0
1 5.96046e-08 0
0.589097 1 0.410903
1 5.96046e-08 0
1 5.96046e-08 0
0.506871 1 0.493129
1 5.96046e-08 0
0.942422 1 0.0575783
1 0.0151798 0
0.453047 1 0.546953
0 0.639008 1
1 0.124762 0
0.130744 1 0.869256
1 0.554701 0
1 5.96046e-08 0
0 0.392424 1
1 5.96046e-08 0
1 5.96046e-08 0
0 0.913112 1
0.920553 1 0.0794467
1 0.881458 0
1 0.874294 0
1 0.947765 0
1 5.96046e-08 0
1 0.854027 0
0 0.283157 1
1 5.96046e-08 0
0 0.327972 1
0.126229 1 0.873771
0.613814 1 0.386186
0.422264 1 0.577736
1 0.85138 0
1 5.96046e-08 0
1 5.96046e-08 0
1 5.96046e-08 0
0 0.944011 1
1 5.96046e-08 0
0.502911 1 0.497089
0 0.65304 1
0.988013 1 0.0119869
1 5.96046e-08 0
1 0.360696 0
0.481805 1 0.518195
1 0.0809232 0
0.666787 1 0.333213
1 0.102958 0
0.927801 1 0.0721987
0.589191 1 0.410809
0.743762 1 0.256238
1 0.482096 0
1 0.357413 0
1 5.96046e-08 0
0 0.314015 1
0.903777 1 0.0962228
0.786187 1 0.213813
0.831 1 0.169
1 5.96046e-08 0
1 5.96046e-08 0
0.442026 1 0.557974
1 0.482731 0
1 0.371462 0
1 5.96046e-08 0
1 5.96046e-08 0
1 5.96046e-08 0
1 0.916464 0
1 5.96046e-08 0
0 0.583719 1
0.980735 1 0.0192653
1 0.501252 0
0.224921 1 0.775079
0.43112 1 0.56888
1 5.96046e-08 0
1 5.96046e-08 0
1 5.96046e-08 0
1 0.968856 0
1 0.886427 0
1 5.96046e-08 0
1 0.382053 0
1 5.96046e-08 0
0 0.919438 1
1 0.274992 0
0 0.864841 1
0 0.654772 1
0 0.766311 1
0 0.399418 1
0 0.509902 1
0 0.443172 1
1 0.313337 0
1 5.96046e-08 0
0 0.308259 1
0.149192 1 0.850807
0 0.323824 1
0.641571 1 0.358429
0 0.840981 1
0 0.536531 1
1 0.512766 0
1 0.590539 0
1 0.898548 0
1 5.96046e-08 0
0 0.694947 1
0 0.648994 1
1 0.772311 0
0.750995 1 0.249005
0.707437 1 0.292563
0.0545789 1 0.945421
1 5.96046e-08 0
1 0.395041 0
1 0.27737 0
0.911608 1 0.0883919
0 0.632895 1
0 0.700267 1
0 0.445503 1
0.892625 1 0.107375
0 0.196903 1
1 5.96046e-08 0
0.109246 1 0.890754
0 0.483513 1
0.740521 1 0.259479
1 5.96046e-08 0
0.791431 1 0.208569
0.280916 1 0.719084
0 0.825332 1
1 0.932466 0
1 5.96046e-08 0
0 0.181039 1
1 5.96046e-08 0
0.529582 1 0.470418
1 0.991032 0
0 0.610408 1
0 0.666236 1
0 0.87018 1
0 0.663364 1
0.401866 1 0.598134
0 0.510869 1
0 0.86293 1
0 0.836359 1
0.955933 1 0.0440671
0 0.79168 1
0 0.710548 1
0 0.968969 1
1 5.96046e-08 0
1 0.516036 0
0 0.492009 1
1 0.350326 0
1 0.0770559 0
0.27439 1 0.72561
0 0.829964 1
1 5.96046e-08 0
0 0.49238 1
0 0.214683 1
0 0.43653 1
0.643465 1 0.356535
1 5.96046e-08 0
0 0.392129 1
0 0.644592 1
1 0.201196 0
0.589243 1 0.410757
0 0.809183 1
1 5.96046e-08 0
1 0.845538 0
0 0.622902 1
0 0.278012 1
0 0.987354 1
0 0.382241 1
1 0.323943 0
1 5.96046e-08 0
0.034449 1 0.965551
0 0.951718 1
0 0.543757 1
1 5.96046e-08 0
0 0.330953 1
1 0.41586 0
0 0.439012 1
0 0.841732 1
0 0.647539 1
1 0.282679 0
0.38735 1 0.61265
0 0.239435 1
0 0.668066 1
1 5.96046e-08 0
0 0.591465 1
1 0.415667 0
0.778393 1 0.221607
0 0.682363 1
0.155776 1 0.844224
0.826566 1 0.173434
0.442465 1 0.557535
