# vtk DataFile Version 3.0
Particle simulation
ASCII
DATASET POLYDATA
POINTS 400 float
3.58143 2.70782 8.64655
1.18157 6.99075 6.14089
5.99431 0.960421 8.50323
2.33753 4.66542 9.30965
7.01935 1.12696 9.03506
2.75101 1.88986 6.16644
3.41019 7.50945 6.69284
3.54405 9.02791 7.73187
5.21894 6.18815 5.11437
0.71433 0.256893 2.42815
7.62758 2.37382 5.09446
0.116377 5.85051 6.14068
9.99262 9.68302 0.290421
0.267754 4.89899 7.90035
3.69055 0.592789 8.06087
0.263209 3.02421 7.50403
5.20622 5.7187 8.66408
8.0081 4.258 6.31483
0.714848 9.0636 9.57673
7.14893 7.84777 7.93533
6.44226 1.29268 3.8657
5.01817 2.10453 5.67559
5.55916 6.44162 7.33106
2.28623 0.795756 1.84107
5.62118 10 8.49305
2.37645 1.37371 1.5604
10 1.69839 4.54766
8.46308 0.880951 6.0796
6.74353 2.55494 0.24241
3.20574 3.83475 7.77686
5.02598 1.06957 8.57684
7.19432 9.59314 1.83429
6.77083 3.46273 1.0912
3.99944 0.539564 0.103537
7.00691 5.09077 2.48237
7.61319 4.51988 4.42229
4.25726 9.63938 9.34286
1.94737 6.69581 1.03744
0.373401 1.09962 5.81963
9.06262 9.17463 9.24936
6.20824 2.42697 0.203912
3.92918 4.37765 2.90103
7.0104 0.992666 3.75119
7.71166 3.36471 3.24176
10 6.73943 6.33271
3.94763 4.96324 0.87214
8.77953 9.8442 8.47474
2.39535 3.70739 7.67931
3.29436 0.531323 1.03216
2.25973 0.62309 0.459322
8.037 6.83608 3.26273
9.3163 3.15471 8.60353
8.73331 8.69931 1.88661
0.717139 4.82854 8.17214
8.15346 5.9864 2.8582
8.6801 7.84512 8.14766
3.50244 2.35091 9.27287
4.46998 1.6214 4.72531
3.25443 6.7241 5.99643
4.49173 7.93647 3.3012
9.71015 2.73583 1.81865
1.91168 4.4093 0.806522
5.37637 0.466447 4.21591
8.47621 0.127611 3.22093
0.828307 1.71811 6.21472
4.60834 6.02624 6.03117
9.95914 2.46492 6.33942
3.99577 9.73717 6.59674
1.20958 7.08299 3.87436
0.3186 0.282142 8.87524
6.12716 9.38684 2.09624
9.24428 0.470948 10
0.595082 3.84859 6.33539
3.08403 7.31822 3.39144
6.44175 0.252342 8.92748
2.50968 2.48738 4.58287
8.31456 5.3676 8.64729
6.48545 2.0564 10
8.62583 2.60687 9.71938
9.15244 2.73708 2.72832
5.45123 8.23966 1.40846
9.74107 1.63684 5.20882
8.35904 7.54741 6.23217
8.67007 9.95233 8.3032
1.15409 0.537265 8.27297
6.25222 1.40359 6.30466
1.16519 9.16461 9.93645
8.65343 0.221766 0.991722
10 10 3.06244
0.329721 4.84997 5.05051
6.2969 7.5721 5.9642
6.02621 3.86172 9.60347
0.202335 5.67097 6.67505
9.86232 9.40125 4.98349
4.85815 1.63719 6.40721
4.69618 4.07536 3.64302
9.75552 4.99763 5.52799
5.00362 3.5005 5.03841
0.385623 4.19151 7.48732
2.05254 7.44536 8.57157
3.24045 2.47387 3.11477
5.23182 6.88405 9.62693
1.84238 8.9131 2.55851
4.1666 4.45311 0.227046
3.95978 4.81205 0.789302
3.97057 7.81376 7.5395
8.15482 1.49913 0.850722
8.69031 1.15127 6.49939
6.10574 1.10892 2.94932
1.38661 2.77424 4.20364
2.08981 0.944474 7.3121
6.13685 0.197598 6.39264
1.89641 7.31283 7.14804
7.64763 2.52504 5.64637
6.81743 0.540978 9.56858
8.20787 6.08673 3.11206
3.8716 0.401724 0.789546
0.778482 7.93985 9.20841
3.97181 8.33432 7.29216
9.12013 6.54728 5.47348
4.49059 1.87858 9.82471
5.61697 1.36357 7.15777
7.34729 7.39818 8.11337
1.88933 5.88524 3.76224
5.68705 7.99126 3.31583
7.20389 4.09383 1.60205
4.37086 9.57528 2.50073
8.04748 3.14086 5.70218
3.95811 3.16361 5.16439
5.41349 4.70903 7.16354
1.56798 9.09528 0.274712
0.456554 7.24664 5.12845
4.17953 3.20871 3.57216
3.89536 10 6.09362
2.495 6.17974 6.56038
3.88612 0.984708 9.35858
0.318468 3.02322 3.12987
0.861865 3.20697 3.74097
0.303385 0.426016 4.68755
5.34574 3.28869 4.82102
6.4828 0.258061 6.1164
9.23313 6.61791 4.67195
9.85827 5.49941 3.82772
4.79358 4.13781 9.79265
0.164444 6.47208 6.39096
3.39056 1.13192 8.33932
0 6.97447 8.64101
8.17848 0.749307 3.1245
8.7688 5.08826 8.1429
7.78186 5.30082 0.50561
6.06462 0.358688 5.75197
0.282007 3.78731 9.94874
0.411345 7.87047 7.39919
5.48239 8.79643 9.01607
6.36477 1.58567 0.398046
2.57382 6.54133 2.6697
2.21307 7.67575 0.808597
1.49842 7.42069 8.6407
4.70235 2.62358 3.87901
8.74774 0 1.70916
8.08988 0.774977 2.67489
3.1698 7.13182 7.48215
1.95705 1.54093 5.5156
7.27214 0.974699 6.90028
2.65513 6.06403 6.73208
4.69451 1.36665 3.25555
2.44525 0.984251 7.08687
6.95812 6.0023 0.0969334
7.02728 8.46317 8.21721
9.60134 2.32729 0.0665175
5.65493 7.0155 5.26587
2.19389 7.70569 9.05546
6.50085 5.17416 5.91768
6.34378 5.80869 7.82515
4.98197 9.21624 0.708824
8.45473 1.96172 2.10392
5.62565 0.363713 9.91187
4.36436 9.19385 10
9.15799 5.77335 3.43361
7.47373 3.20796 9.25372
8.93076 2.41447 0.382051
4.12247 7.30108 0.231169
4.74607 7.06645 9.09164
6.13811 1.45956 5.37355
9.46805 7.97577 4.50705
1.10681 2.08003 1.61784
6.30937 0.464317 5.78034
5.87551 1.34939 5.66388
9.84153 5.31288 2.51807
7.40984 7.87877 2.32216
3.75562 0 0.808776
2.68574 8.24324 1.99657
2.52132 8.1081 4.13928
9.09065 0.951685 1.80137
2.01227 8.12405 4.03327
2.64155 3.38234 3.32564
0.96475 7.53576 5.25077
5.85775 9.89889 3.95778
9.5221 2.18346 6.20029
7.63754 8.60333 8.8559
6.61008 0.480792 5.78658
1.42362 1.14416 9.48812
9.47617 4.20025 5.82059
4.92873 9.71866 9.46275
2.30335 2.55743 3.34088
1.04442 9.39989 5.44136
5.97417 9.04405 3.92775
7.97771 7.82407 8.96069
4.849 5.00853 0.728714
7.9888 8.57513 4.70379
6.45902 0.082492 6.17528
6.86162 8.51096 5.89479
5.20475 5.82185 2.02829
0.233874 7.01563 3.31744
2.22066 2.82151 4.88134
4.58818 9.42949 9.45934
9.96964 0.564775 4.88935
0.490087 0.628682 2.20662
0.732352 2.3161 4.08198
9.53047 7.44763 5.35244
2.70121 8.54785 0
4.20081 3.63953 9.45958
1.26632 9.59449 4.90581
10 0.836215 4.82996
7.40755 8.34828 7.00188
5.14108 8.8181 1.83191
7.57798 4.32449 0.487299
1.28841 4.90466 9.85168
6.38932 0.0732182 6.0254
7.40412 1.10804 4.03072
0.172255 6.93527 2.4074
1.01892 6.47844 1.2309
4.65809 6.93763 4.26127
3.48166 8.18246 7.7066
4.7623 1.59213 7.65421
5.96128 0.580421 4.46761
9.68747 2.01386 2.08956
0.227266 2.38765 6.45509
6.45228 0.347257 5.9281
7.00097 4.6419 7.19163
9.95259 0.807447 4.82599
9.01215 9.95519 10
0.100135 8.1293 3.73551
7.68364 0.261763 3.70409
7.12005 0.826178 2.70203
7.39011 5.02693 3.82197
8.9928 8.55855 9.03345
3.92358 0.965499 0.329764
0.150107 8.56833 7.89398
7.88684 0.185939 9.87012
9.78242 0.51156 4.8481
0.0226341 5.2855 9.53132
0.750642 3.52453 6.13848
8.96435 3.10802 0
8.49737 7.98486 9.28286
9.50659 1.42776 1.36823
0.47793 4.46257 7.63644
3.87799 0.744584 9.95279
0.709788 7.84119 6.00165
3.63845 5.28856 0.497077
5.97176 7.42661 5.53469
5.50859 2.05458 6.04914
8.84267 7.88335 0.636221
6.36317 5.79126 3.72086
8.54309 5.76446 4.13639
8.48485 0.714463 6.83649
1.77519 4.77114 0.619465
9.1764 5.95026 4.59739
7.91836 1.0321 5.58519
10 6.00804 4.9211
5.62944 1.75295 5.59453
6.46978 2.88316 9.11815
9.21434 1.19409 1.38117
3.7389 8.72257 0.520372
7.03652 3.80107 1.46829
5.10166 0.540576 8.76417
5.60509 0.941717 2.33994
6.41783 2.68974 9.73103
9.11891 2.37375 1.69402
6.63045 0.422864 5.89416
0.510282 0.107384 1.70912
6.33412 4.48816 1.94374
0.134437 2.22607 3.57501
8.84152 2.44809 1.59923
0 8.80531 8.94777
3.83321 5.38277 0.914441
3.88664 5.08697 6.87274
0.982083 5.50202 3.91413
4.68123 2.40367 4.06659
6.47997 1.13668 2.22716
4.34222 8.45007 5.41348
4.17452 6.51989 4.39797
9.94247 0.726358 7.95988
7.56398 5.05911 3.70806
5.63954 3.23735 5.93032
0.488022 0.641326 8.85973
6.76731 0.528465 5.6033
6.68935 0.419103 6.1036
6.69736 0.532048 5.36047
6.7919 0.183291 6.34156
0.275669 1.92543 4.30193
8.99275 6.62847 1.14937
6.43799 0.320874 5.90809
1.10811 8.23869 2.18616
6.28452 0.128124 6.15136
2.74303 2.36255 4.30387
6.58755 0.386063 5.74055
6.41494 0.420855 5.86639
3.59574 0.872628 5.35063
7.96866 0.499735 2.5674
5.85868 6.89934 6.53415
2.70017 5.95043 2.77106
3.81079 0.324947 2.17735
5.54256 0.363013 5.65819
9.4816 0.146548 2.48695
8.59853 1.26902 10
2.2143 1.21632 7.58258
4.77983 2.54419 3.57389
2.84739 5.93738 6.5268
10 0 7.78465
3.06766 8.00441 8.69098
5.72799 7.9603 5.51771
0.376575 0.635458 8.70633
6.29904 0.311316 5.88465
6.85053 0.560477 5.14198
4.94741 9.18727 5.83662
6.73498 0.340124 6.03097
4.73366 4.81817 0.840249
4.19882 2.22028 9.52768
6.42455 0.184245 5.92229
5.56518 1.9333 7.82252
7.82233 1.54543 1.80454
7.60842 4.94661 0.595516
7.18501 7.20186 8.61974
0 8.9004 4.9648
6.42585 8.89578 2.7256
7.21527 6.53924 2.14975
6.27899 0.300801 6.00199
3.13739 7.00813 9.21142
6.11367 7.67586 9.52966
8.53938 1.33011 9.43151
4.711 4.81978 1.82161
9.52248 1.49936 3.54047
0.436983 0.6378 8.70913
6.83409 0.0607684 6.48045
6.07244 0.326019 4.96619
9.46632 1.10727 9.62964
6.53339 0.342464 5.90254
6.23632 0.699508 5.90376
6.3945 1.00058 4.58125
6.45141 0.564766 6.2576
6.28548 0.0429665 5.75491
5.2763 5.94398 1.08351
7.54046 3.97355 2.74169
2.46631 3.33889 1.94212
6.31752 0.419841 5.82829
2.46317 6.7263 9.96312
0.302947 2.05854 7.06796
6.4691 0.322807 6.33681
6.27834 0.189976 5.76233
0.318983 4.53001 1.1356
0.445447 0.619471 8.58045
0.602214 0.568505 8.7834
6.18651 0.303091 5.99937
6.63481 0.434737 6.07842
7.83395 3.61788 1.81755
0.338338 0.584352 8.72958
2.76497 0.303592 1.20857
0.0682148 0.917885 7.79219
9.05953 4.96166 4.24597
9.31955 1.24011 9.37197
6.09582 8.65751 9.50239
2.58868 1.99782 2.98003
6.8575 0.248897 5.73735
6.45671 0.211139 5.53719
9.13103 1.46367 9.48242
0.230743 0.509094 8.73702
1.18233 1.50835 8.91589
8.77367 0.807721 7.71131
9.99847 0.767205 4.93328
6.31308 0.0266638 5.68875
6.40629 0.133917 5.79166
9.66882 4.75511 6.89806
6.13157 0.151974 6.1196
7.65214 4.66922 1.61025
0.490264 0.602557 8.91878
6.79484 0.210297 6.25565
6.75809 0.387081 5.88823
6.44708 4.90755 4.72433
1.11564 6.80223 5.56489
6.64176 0.424708 6.04169
6.38823 0.196373 6.06251
0.997546 1.75179 9.06173
6.26828 0.231875 6.35291
0.869307 0.302161 4.18859
3.61946 0.847218 9.36146
6.51538 0.260957 5.47031
1.82223 3.73354 7.01571
2.32415 7.41522 6.44823
1.99451 9.61463 6.6891
POINT_DATA 400
SCALARS particleColor float 3
LOOKUP_TABLE default
1 5.96046e-08 0
1 5.96046e-08 0
0 0.982577 1
1 5.96046e-08 0
1 0.356139 0
1 5.96046e-08 0
1 5.96046e-08 0
0.568934 1 0.431066
1 5.96046e-08 0
0.39649 1 0.60351
1 0.956028 0
1 0.713035 0
0.0980859 1 0.901914
1 5.96046e-08 0
1 0.459628 0
1 0.547789 0
1 0.0613331 0
1 5.96046e-08 0
1 0.484827 0
1 5.96046e-08 0
1 5.96046e-08 0
0.632754 1 0.367246
1 0.58797 0
0.68435 1 0.31565
0 0.99812 1
1 5.96046e-08 0
1 5.96046e-08 0
0.157487 1 0.842513
0.552051 1 0.447949
0 0.728667 1
1 0.749277 0
1 5.96046e-08 0
1 0.618181 0
1 0.0589643 0
1 0.169954 0
1 5.96046e-08 0
0 0.866771 1
0 0.932302 1
0.476998 1 0.523002
0 0.764663 1
1 5.96046e-08 0
1 5.96046e-08 0
1 5.96046e-08 0
1 0.878334 0
0.355344 1 0.644656
0 0.966824 1
1 5.96046e-08 0
1 5.96046e-08 0
0.772869 1 0.227131
1 5.96046e-08 0
0.736135 1 0.263865
1 5.96046e-08 0
1 0.358007 0
0.959544 1 0.0404562
1 0.855521 0
1 0.843591 0
1 5.96046e-08 0
0.137177 1 0.862823
0.687216 1 0.312784
0.584111 1 0.415889
1 5.96046e-08 0
1 0.989086 0
1 5.96046e-08 0
1 0.921518 0
1 5.96046e-08 0
1 5.96046e-08 0
0.957164 1 0.0428357
1 0.898836 0
1 5.96046e-08 0
1 0.64914 0
1 0.615254 0
1 5.96046e-08 0
1 0.877079 0
0.113096 1 0.886904
0.948845 1 0.0511554
0.997857 1 0.00214326
1 5.96046e-08 0
1 0.91033 0
0 0.785508 1
0.0483503 1 0.95165
1 0.988127 0
1 0.308787 0
0 0.423136 1
0.781845 1 0.218155
1 0.904339 0
1 0.0678297 0
1 0.807782 0
1 0.700952 0
1 5.96046e-08 0
0.246199 1 0.753801
1 0.755186 0
1 5.96046e-08 0
0.827318 1 0.172682
1 5.96046e-08 0
0.256837 1 0.743163
1 5.96046e-08 0
1 0.980909 0
1 0.515007 0
1 5.96046e-08 0
0.230466 1 0.769534
0.661857 1 0.338143
1 0.336318 0
1 5.96046e-08 0
1 0.735099 0
1 0.835185 0
0 0.727079 1
1 5.96046e-08 0
1 0.586623 0
1 0.228064 0
0.0364917 1 0.963508
1 0.969074 0
0.297393 1 0.702607
1 5.96046e-08 0
0.633074 1 0.366926
1 0.906362 0
1 0.00952405 0
1 0.065511 0
1 5.96046e-08 0
1 0.330199 0
1 0.864149 0
1 0.240095 0
1 5.96046e-08 0
0.86551 1 0.13449
1 5.96046e-08 0
0.878487 1 0.121513
1 5.96046e-08 0
1 0.858268 0
1 0.999392 0
1 0.924867 0
1 5.96046e-08 0
1 0.457175 0
1 5.96046e-08 0
0 0.935973 1
1 5.96046e-08 0
0 0.827985 1
1 0.565934 0
1 5.96046e-08 0
1 5.96046e-08 0
1 0.850484 0
1 5.96046e-08 0
0 0.264077 1
1 5.96046e-08 0
0 0.969926 1
1 0.227256 0
1 5.96046e-08 0
0 0.811942 1
1 5.96046e-08 0
1 5.96046e-08 0
1 0.66683 0
1 5.96046e-08 0
0 0.456676 1
1 0.0847763 0
1 0.854332 0
1 5.96046e-08 0
0.245162 1 0.754838
0 0.935567 1
0.940608 1 0.059392
1 0.744483 0
1 0.201552 0
0.499104 1 0.500896
0.182345 1 0.817655
1 5.96046e-08 0
1 0.319168 0
1 0.680269 0
1 0.79331 0
0 0.796981 1
1 0.739662 0
1 0.562772 0
0 0.673923 1
0 0.521326 1
1 5.96046e-08 0
1 0.340208 0
0.243601 1 0.756399
1 5.96046e-08 0
1 5.96046e-08 0
1 0.986747 0
1 0.934266 0
1 0.0404229 0
1 5.96046e-08 0
0 0.94928 1
1 5.96046e-08 0
1 0.544686 0
1 0.560813 0
1 5.96046e-08 0
0.785004 1 0.214996
1 5.96046e-08 0
0 0.224422 1
0 0.525603 1
1 5.96046e-08 0
1 0.799463 0
1 5.96046e-08 0
1 5.96046e-08 0
1 5.96046e-08 0
0 0.748371 1
1 5.96046e-08 0
0.908917 1 0.0910833
0.411494 1 0.588506
0 0.977639 1
1 0.739556 0
1 5.96046e-08 0
0 0.200325 1
1 5.96046e-08 0
1 0.624455 0
1 5.96046e-08 0
1 5.96046e-08 0
1 5.96046e-08 0
1 5.96046e-08 0
1 0.807908 0
1 0.895515 0
1 5.96046e-08 0
0 0.731029 1
1 0.425849 0
1 5.96046e-08 0
1 0.594573 0
1 5.96046e-08 0
1 0.976408 0
0.0424625 1 0.957537
1 0.235805 0
1 5.96046e-08 0
1 5.96046e-08 0
1 5.96046e-08 0
1 5.96046e-08 0
1 0.56789 0
0 0.759805 1
1 5.96046e-08 0
1 5.96046e-08 0
1 0.156355 0
1 0.550275 0
0 0.295995 1
1 0.772634 0
1 0.155526 0
0.133809 1 0.866191
1 0.794068 0
1 0.169126 0
1 5.96046e-08 0
0.61273 1 0.38727
0.265439 1 0.734561
0.843786 1 0.156214
0 0.0989919 1
1 0.0444106 0
0 0.814876 1
1 0.885111 0
1 0.352173 0
1 0.528533 0
0.892 1 0.108
0.401521 1 0.59848
0 0.949904 1
1 0.992337 0
0.280957 1 0.719043
1 0.986165 0
0 0.253252 1
1 5.96046e-08 0
0 0.563912 1
1 5.96046e-08 0
1 5.96046e-08 0
1 5.96046e-08 0
1 0.604475 0
0 0.63014 1
1 0.8579 0
0.976866 1 0.0231338
0.00450503 1 0.995495
1 5.96046e-08 0
1 5.96046e-08 0
1 5.96046e-08 0
0.00268826 1 0.997312
1 0.0036419 0
0.0517723 1 0.948228
1 5.96046e-08 0
1 5.96046e-08 0
0.829668 1 0.170332
0.165699 1 0.834301
1 0.980209 0
1 0.50844 0
1 0.548114 0
1 0.159464 0
1 0.860259 0
1 5.96046e-08 0
1 5.96046e-08 0
0.775766 1 0.224234
0 0.598771 1
1 5.96046e-08 0
1 0.10869 0
1 5.96046e-08 0
0.906136 1 0.093864
1 5.96046e-08 0
1 0.824634 0
0.241215 1 0.758785
1 5.96046e-08 0
0.527102 1 0.472898
1 5.96046e-08 0
1 0.492868 0
1 5.96046e-08 0
0.356933 1 0.643067
0.844494 1 0.155506
1 0.195269 0
0 0.467782 1
0 0.434382 1
0 0.445222 1
0 0.573693 1
0 0.775786 1
0.810917 1 0.189083
1 5.96046e-08 0
0 0.702353 1
1 0.480186 0
0.111157 1 0.888843
1 5.96046e-08 0
0 0.690732 1
0 0.498877 1
0.823628 1 0.176372
1 5.96046e-08 0
0.206262 1 0.793738
1 0.858424 0
0.978586 1 0.0214142
0 0.738616 1
1 5.96046e-08 0
1 5.96046e-08 0
1 0.0725923 0
1 0.744139 0
0.934649 1 0.0653511
1 5.96046e-08 0
1 0.744952 0
0.406716 1 0.593284
0 0.378925 1
0 0.441587 1
0 0.762026 1
0.75747 1 0.24253
0.0870431 1 0.912957
1 0.527181 0
0.192753 1 0.807247
0 0.447055 1
0.0917849 1 0.908215
1 5.96046e-08 0
1 0.579052 0
1 0.934043 0
1 5.96046e-08 0
1 5.96046e-08 0
0.860733 1 0.139267
0 0.15541 1
1 5.96046e-08 0
1 0.772018 0
1 0.0482886 0
0.928971 1 0.0710291
1 5.96046e-08 0
0 0.610501 1
0 0.4301 1
0 0.770758 1
0 0.498025 1
0.155076 1 0.844924
0 0.433083 1
1 0.825624 0
0.0395699 1 0.96043
0.180636 1 0.819364
1 5.96046e-08 0
1 0.455792 0
0.939651 1 0.0603488
0 0.737512 1
0.674742 1 0.325258
1 0.719247 0
0 0.748132 1
0 0.591825 1
1 0.308065 0
0 0.429524 1
0 0.349421 1
0 0.846688 1
0 0.485367 1
1 5.96046e-08 0
0 0.341828 1
1 0.581321 0
0 0.480345 1
1 5.96046e-08 0
0 0.612006 1
1 0.266724 0
1 0.58719 0
0 0.951485 1
0 0.86948 1
0 0.87645 1
0 0.262344 1
0 0.979654 1
0 0.888631 1
0 0.782696 1
0 0.664659 1
0 0.648452 1
0.781725 1 0.218275
0 0.491038 1
1 5.96046e-08 0
0 0.47029 1
0 0.629268 1
0 0.458426 1
1 5.96046e-08 0
0 0.634862 1
0 0.82584 1
0.0813309 1 0.918669
0 0.880649 1
0 0.240526 1
1 5.96046e-08 0
0 0.462294 1
0 0.28136 1
1 0.699984 0
1 0.643382 0
0 0.983333 1
