# vtk DataFile Version 3.0
Particle simulation
ASCII
DATASET POLYDATA
POINTS 400 float
7.73513 6.33684 1.78275
9.60709 6.14472 0.319993
7.68988 6.62587 8.28142
0.690415 2.59034 10
1.41961 2.68474 3.47163
3.89471 7.06287 9.66481
5.53007 4.76358 5.12642
9.1438 9.83191 3.18668
0.9501 2.70358 3.63609
8.0089 0.503838 6.66345
8.19529 1.84911 7.85902
5.16568 8.58832 6.65357
4.49094 8.77684 3.56354
9.36099 8.85312 0.175782
8.44021 2.19264 3.99978
7.93996 0 0.777971
4.79496 8.15969 3.23403
1.06337 4.60176 5.23873
8.40307 8.23805 4.06961
2.91306 1.29596 2.76583
4.0426 2.29006 5.15463
7.12305 8.44538 1.81134
0.784517 7.38955 6.45384
8.3795 3.07626 3.19026
8.57057 9.70723 0.934022
0.548459 0.968479 9.03923
5.38331 4.12476 9.3722
4.38564 8.38962 0.814332
6.725 1.95663 6.55647
5.00639 9.60833 6.77461
1.94096 4.17001 2.08301
3.84719 9.47208 5.97223
4.99621 7.26895 5.90842
8.34305 8.49144 9.11246
6.0197 4.63046 8.26655
9.12145 3.6623 9.16909
4.68593 9.64973 2.48518
6.3768 0.279545 5.51802
0.0407369 1.14755 6.30687
8.1637 1.0231 1.68509
5.0711 4.18076 1.85251
4.86923 5.11188 6.07921
8.92848 1.70247 8.45919
3.88368 5.16222 9.53543
6.21984 7.96175 6.35686
6.72965 4.05779 9.75021
5.71941 4.53681 2.87097
9.52376 3.05131 2.09483
0.93699 7.10616 5.11953
8.41794 9.51012 3.65611
0.834851 8.7268 2.00342
6.10184 2.74108 2.39159
3.8501 5.19989 3.21846
8.45417 10 3.61167
9.42983 10 3.37235
7.51044 5.75499 4.22103
6.88241 5.72802 1.17634
0.63079 6.14701 6.95086
0.393539 2.8927 9.71056
7.84342 5.03824 0.189165
1.50024 2.85683 9.67157
1.24564 8.46957 5.10837
7.43868 5.41901 4.55777
3.62696 9.14477 4.4065
0.492626 7.78364 9.51251
1.43434 0.232018 2.57504
3.07434 9.50354 8.34709
4.97316 0.930926 1.78447
5.32447 0.101919 1.3192
7.67946 0.974401 9.60443
6.34675 0.146289 1.89061
9.58772 9.6279 9.0299
8.86851 6.64129 8.77575
4.18526 7.31546 3.09328
4.77575 7.706 8.68005
7.1102 7.78606 0.590506
0.270442 2.38331 7.23598
5.10232 3.27408 5.69234
1.35282 3.59154 0.183481
9.7038 1.07426 8.65635
3.68536 2.40011 6.4973
8.77449 5.37577 1.98746
8.00118 0.824366 5.67397
0.842082 0.875641 8.92601
0.217761 2.2118 4.14046
9.97485 1.79922 1.46257
4.34275 8.90166 8.97182
0.281013 10 0.541662
2.26409 2.14628 2.05066
8.57719 0.713985 9.32026
9.71237 7.40466 3.12706
8.29298 2.37457 8.6813
4.69102 7.57534 7.49554
0.71016 4.59821 6.62027
9.76341 2.2417 7.73783
6.68413 7.47656 6.05246
1.73577 5.67834 1.87187
2.80633 2.48389 2.47906
9.61225 2.7997 3.35888
7.37601 5.03226 6.61426
8.69894 5.92813 7.05548
8.39487 5.27167 9.78167
9.716 9.08438 6.03072
5.46116 1.97928 9.29131
5.86048 0.215002 7.61373
6.71811 7.28844 6.72582
4.83895 6.03491 6.64749
1.58705 4.27263 4.36286
3.1749 1.42084 1.69024
1.21618 8.50929 3.87036
2.96987 8.27359 7.05158
1.60836 8.41368 4.91235
9.53567 5.98532 7.64126
4.93687 2.6266 3.07381
7.89919 1.58609 6.39697
8.32637 3.01623 7.32455
1.43274 8.2084 0
3.24234 3.79749 1.81806
5.95813 3.83863 4.87054
9.93985 0.0829086 1.92697
10 9.40954 1.47327
7.71082 0.466473 3.73305
4.27836 4.23281 9.29449
2.75726 8.85792 9.85987
6.75889 8.0045 1.06039
5.10195 6.34082 5.02449
6.55774 0.286998 6.95864
2.49166 5.09218 8.52593
4.14753 1.59241 5.12508
5.42516 1.20739 8.15532
6.11442 4.81829 4.30032
9.81534 9.40897 6.85891
2.40354 3.25524 5.84731
5.33943 0.25882 1.49342
1.6236 9.7226 7.14476
8.09675 2.42651 9.41902
1.80091 4.99137 4.02492
7.10947 4.6887 7.18765
7.64723 0.866096 0.936578
8.59895 8.43773 3.93396
3.20859 5.29152 2.89797
8.66898 2.51068 7.27966
7.85917 6.80055 0.145717
6.34288 6.17693 9.02291
7.54892 0 1.24244
0.179141 9.41506 5.65851
0.484747 9.99261 2.34165
6.68765 0.554549 10
7.53792 0.899404 8.40169
4.46567 1.1148 7.52783
6.83383 0.326605 7.68907
9.59207 3.12821 4.29601
6.08497 4.53686 5.32205
1.6005 9.79536 4.797
0.92389 6.1657 9.59287
1.76867 2.29091 0.658213
2.35056 5.92587 5.01327
9.16335 6.44099 5.09761
0 7.07353 3.4611
9.50119 4.28785 5.88807
0.474468 4.59994 6.98811
8.97859 0.749697 9.7984
4.92924 8.53236 7.49493
9.01793 0.128948 8.49735
2.56018 5.29925 5.04245
9.28303 4.27765 8.03922
8.09603 7.43395 4.90774
5.64851 7.76407 4.83716
1.98569 7.16475 1.73174
1.58845 8.64722 3.10279
8.09361 3.23814 8.26612
7.35487 1.03468 8.19551
7.07448 3.37964 1.35458
1.63506 9.58855 1.16542
9.58593 7.37929 7.26976
6.54751 9.6622 5.24024
3.62219 7.00342 9.78031
0.942659 2.44027 0.473664
9.60591 6.07443 1.28679
7.03166 5.21902 7.51811
6.40585 0.798613 7.75475
8.85282 0.35746 9.04395
3.55997 2.89998 9.05299
3.4474 1.0212 8.58915
6.1506 9.80314 2.62101
2.20251 3.52637 8.67072
4.63096 10 7.47464
1.62464 5.40278 3.40722
8.56551 8.68111 8.63431
7.3543 8.72792 0
0.615656 7.57073 4.28006
9.41279 0.635409 1.64817
1.4076 7.129 7.18974
9.7268 8.36301 3.96442
8.85474 3.86791 8.02287
2.19409 1.85554 8.73847
2.68208 9.20167 7.61182
6.82215 3.76772 1.65608
2.59389 3.6977 6.27614
2.65485 0.173277 5.22312
1.66528 5.70802 8.11173
3.64081 6.48782 0
4.15687 6.87527 2.16907
3.70409 9.44479 8.25503
0 2.532 2.38279
5.83562 5.68451 0.540545
0.91811 2.14056 1.37831
6.8446 3.0157 7.99877
8.92551 4.44701 7.45096
7.30249 2.12091 5.24807
0.678958 0.541047 9.99601
0.445214 9.22466 9.14019
4.26858 8.80893 9.66797
8.90311 4.51367 5.0701
5.11918 3.74643 2.12434
1.86281 6.04202 7.45942
3.85347 6.53204 0.890005
4.32733 4.99878 3.92829
6.79224 2.27894 9.77193
2.72569 3.45576 0.127398
1.03386 5.21399 9.71428
0.496944 4.0191 7.31047
8.1509 3.77901 2.23769
7.21818 8.39533 9.04199
3.92463 8.38902 1.37922
7.43533 4.87757 4.38882
0.513309 5.8697 7.64711
1.49652 5.60551 9.42461
6.95444 0.250453 7.47737
8.30205 9.86328 7.43674
7.16704 2.43463 5.14779
9.97196 5.10467 0.416352
5.56755 9.1704 8.66195
1.65267 9.87034 2.48876
9.08465 3.16789 2.41862
4.75283 4.00712 0
4.95172 3.41267 7.02854
6.17935 0 1.08842
2.42354 9.37035 9.06326
0.544841 5.76433 6.54796
6.74274 0.0903457 7.82083
9.24381 3.3433 2.19345
0.96253 7.60804 4.11355
7.16283 5.38086 2.27432
9.63568 8.94388 4.0913
5.47938 0.847347 4.12313
9.04326 0.247188 4.97461
0.36973 5.65376 8.62162
0.441748 5.92542 9.26745
0.834463 2.39604 1.0423
5.59113 1.33368 8.85659
3.2126 0.482688 2.99508
0.633134 0.4234 0.646662
8.71555 6.68042 3.4703
3.53125 0.0951352 8.59454
0 6.08224 5.34064
2.5919 1.64176 4.35703
8.58234 1.48874 6.30545
9.54694 3.11191 3.34661
7.38847 1.6562 4.51638
7.50824 6.05567 6.71459
5.12169 7.92917 3.24071
1.61372 1.09825 9.57125
9.3697 7.93894 3.81603
9.44555 5.97994 7.63417
1.14845 0.949855 4.94859
7.37672 9.97095 6.87697
0.799384 0.742864 1.0456
1.85917 2.42143 1.27309
0.54568 4.81782 0.897977
3.36038 1.4537 8.37418
2.58845 5.03366 7.76177
0 1.72635 9.85691
2.8115 0.023455 8.19619
4.24152 7.75915 3.38121
7.95591 2.45536 6.36868
8.32557 6.54151 0
10 9.63668 4.05917
2.11744 8.20963 3.96167
8.46472 2.83743 9.66856
1.06631 7.16102 4.89843
9.63656 2.41191 0.148345
4.22807 4.36307 4.55649
9.1643 3.00242 6.43671
0.985173 1.66118 7.20761
5.0193 0.750336 7.75493
0.434811 2.25161 6.2343
6.54987 0.215404 4.61457
5.29433 4.09234 0.153347
5.70165 2.81872 5.87448
9.61597 7.61227 3.79742
9.53671 6.50576 0.508579
5.88851 9.91724 6.94215
9.06519 6.12201 9.53838
9.10479 1.9701 1.58416
5.14243 1.32528 6.67874
1.75955 3.79543 10
1.53737 2.4831 2.55334
7.02808 0.124965 7.75227
1.82993 0.756384 1.463
6.79437 0.620745 0.462666
1.61539 3.94447 3.9913
6.79324 0.868289 3.98706
5.87192 0.529244 0.138473
6.62503 0.555692 7.72244
4.9982 2.87517 3.87859
1.8023 7.46767 3.07965
7.42442 0.371252 7.77152
9.63355 2.95546 4.61583
3.16573 0.402056 2.77872
2.10276 9.12665 6.64844
0.747225 0.563487 9.98118
6.4087 9.73795 4.16614
6.06696 0.987747 6.18383
7.96217 2.38918 3.8124
0.320637 3.62343 1.36886
5.04547 1.50339 0.355633
6.51712 0.717866 4.02154
5.81057 8.35091 6.10541
2.09466 4.31857 4.53473
4.37673 9.69086 1.93738
8.89544 2.22659 4.22452
1.72574 7.52472 4.23947
6.70911 0.649844 4.54354
6.73388 0.465769 7.8079
3.77381 5.64711 6.43971
3.32361 7.31106 4.28324
0.391835 7.04787 3.63923
6.78831 1.66663 6.95191
6.8167 0.181087 7.59442
3.45323 1.49666 9.92495
1.82993 0.883325 1.46112
9.0849 3.90582 8.14154
3.76271 3.36257 9.39619
9.12075 7.47581 10
3.48783 1.73132 4.54202
0.210743 4.21031 7.42003
6.63646 0.527548 7.7767
3.34404 6.44455 1.29792
1.57635 7.84802 3.96067
3.55987 2.97238 5.05087
7.36613 4.89812 1.1753
0.870358 8.34835 1.08757
1.2063 1.61923 9.54181
1.56404 2.44602 0.622651
9.92536 5.99789 0
1.75313 0.203326 2.42733
8.54445 2.37525 2.0838
6.81788 0.395353 7.68863
5.27585 4.91439 0.790744
6.73692 0 8.42939
7.23965 0.372502 7.41119
9.50978 5.54341 7.23429
6.29434 7.31763 3.80891
7.0703 1.23223 0.98576
6.69628 0.239531 7.64262
3.83135 7.33374 5.33181
1.57209 1.61786 1.75941
6.57423 0.56983 5.52495
6.64504 0.268253 7.67356
4.65525 9.14566 3.61943
5.56591 10 3.76463
3.37608 2.6589 9.75618
6.99885 0.281657 7.69028
7.43421 4.22713 1.52728
4.08655 2.66597 1.34246
3.47572 2.27715 9.59123
1.76414 3.58391 5.59995
0.0678608 1.56997 6.21493
3.40578 2.43325 9.64756
1.49177 0.196911 2.33531
6.00615 6.70704 6.50795
9.56199 7.41848 6.04239
7.0073 0.373485 7.77177
7.0257 0.517972 7.68415
9.15772 5.78826 5.83658
3.42565 2.31205 9.77407
6.92735 0.483025 4.53064
8.96595 3.27757 1.90945
6.94519 0.555549 7.67831
6.66699 1.65502 9.89197
6.59645 0.122433 7.81468
0.15282 2.56447 7.05945
7.06582 0.145441 7.50909
2.22121 7.27402 0.404202
3.39369 2.25943 9.71878
6.47693 0.329863 7.73373
6.88637 0.13658 7.9138
9.49829 1.50229 5.59341
8.59451 9.70211 8.84168
6.91779 0.441672 7.47983
6.95983 0.387749 7.50677
1.51363 4.53137 5.46657
7.03838 0.14271 7.80157
1.07902 2.19947 6.57599
5.34187 2.64968 1.20353
6.8971 0.27789 7.72422
9.08447 1.99885 6.46321
8.59621 9.30953 9.40833
8.41659 0 1.66139
POINT_DATA 400
SCALARS particleColor float 3
LOOKUP_TABLE default
1 0.91495 0
1 0.588471 0
0.57914 1 0.42086
1 0.0622815 0
0.135409 1 0.864591
0.379937 1 0.620062
1 0.909192 0
0.686598 1 0.313402
0 0.746244 1
1 0.125341 0
0.205325 1 0.794675
1 0.998794 0
1 0.166576 0
1 0.285332 0
1 0.702946 0
1 5.96046e-08 0
1 5.96046e-08 0
1 0.787626 0
0 0.96869 1
1 5.96046e-08 0
1 5.96046e-08 0
1 5.96046e-08 0
1 5.96046e-08 0
0.852956 1 0.147044
0.421772 1 0.578228
1 5.96046e-08 0
1 5.96046e-08 0
0.954002 1 0.0459982
0.919244 1 0.0807558
1 5.96046e-08 0
1 5.96046e-08 0
1 5.96046e-08 0
1 0.924037 0
0.0233759 1 0.976624
1 0.57828 0
1 0.790064 0
0.158899 1 0.841101
1 0.070863 0
1 0.29516 0
1 5.96046e-08 0
1 5.96046e-08 0
0.825431 1 0.174569
1 0.84817 0
1 0.282967 0
0.745286 1 0.254714
0.803371 1 0.196629
1 0.073355 0
1 0.746023 0
1 0.694139 0
0.089025 1 0.910975
0.108733 1 0.891267
0.0349916 1 0.965008
0.0227105 1 0.977289
1 5.96046e-08 0
1 5.96046e-08 0
1 0.724875 0
1 0.966255 0
1 0.93172 0
1 0.156793 0
1 0.661454 0
1 0.362892 0
1 0.605242 0
1 5.96046e-08 0
1 5.96046e-08 0
0.272566 1 0.727434
1 0.960053 0
1 5.96046e-08 0
1 0.545411 0
1 0.960268 0
1 0.197641 0
1 5.96046e-08 0
1 5.96046e-08 0
1 0.0502042 0
1 0.270967 0
1 5.96046e-08 0
1 5.96046e-08 0
1 0.704124 0
1 5.96046e-08 0
0.25041 1 0.74959
0.732011 1 0.267989
0.112998 1 0.887002
1 0.175279 0
0 0.94091 1
1 5.96046e-08 0
1 5.96046e-08 0
0.0394818 1 0.960518
1 5.96046e-08 0
1 5.96046e-08 0
0 0.984515 1
0.476797 1 0.523203
1 5.96046e-08 0
0.658096 1 0.341904
1 0.726755 0
1 0.321365 0
0.811058 1 0.188942
1 5.96046e-08 0
0.934887 1 0.0651128
0.5625 1 0.4375
0.253748 1 0.746252
1 0.302176 0
0 0.514624 1
0.824643 1 0.175357
1 5.96046e-08 0
1 5.96046e-08 0
0.347911 1 0.652089
1 5.96046e-08 0
1 5.96046e-08 0
1 5.96046e-08 0
0.992018 1 0.0079816
1 0.965131 0
1 5.96046e-08 0
1 0.490507 0
1 0.275045 0
1 5.96046e-08 0
0.37034 1 0.62966
1 0.920131 0
1 0.509858 0
0.0509985 1 0.949002
1 5.96046e-08 0
0.954639 1 0.0453615
0.0905861 1 0.909414
1 5.96046e-08 0
0.668651 1 0.331349
1 0.0635026 0
1 0.468053 0
1 5.96046e-08 0
1 0.76609 0
1 0.861603 0
1 0.963479 0
0 0.474333 1
1 5.96046e-08 0
0.951073 1 0.0489268
0 0.268524 1
0.491914 1 0.508086
1 5.96046e-08 0
0 0.396031 1
0.0870658 1 0.912934
1 0.905683 0
1 0.943896 0
1 5.96046e-08 0
0.607266 1 0.392734
0.554385 1 0.445615
1 0.570164 0
0.212041 1 0.787959
1 5.96046e-08 0
0.496766 1 0.503234
1 5.96046e-08 0
1 5.96046e-08 0
1 0.888869 0
1 5.96046e-08 0
0 0.877741 1
1 0.967481 0
1 5.96046e-08 0
0.69237 1 0.30763
0.621047 1 0.378953
1 0.988874 0
1 0.548511 0
1 5.96046e-08 0
1 0.846278 0
1 5.96046e-08 0
0.844011 1 0.155989
0.557102 1 0.442898
1 5.96046e-08 0
1 5.96046e-08 0
1 5.96046e-08 0
1 5.96046e-08 0
0.127326 1 0.872674
1 5.96046e-08 0
1 5.96046e-08 0
1 0.789453 0
1 5.96046e-08 0
1 0.945921 0
1 0.336549 0
1 5.96046e-08 0
1 0.197535 0
0.628506 1 0.371494
1 0.649116 0
1 0.477715 0
0 0.312359 1
1 5.96046e-08 0
0 0.885823 1
0.828522 1 0.171478
0.513892 1 0.486108
1 5.96046e-08 0
1 0.773144 0
0 0.933446 1
1 5.96046e-08 0
1 5.96046e-08 0
1 0.950635 0
1 0.582126 0
1 5.96046e-08 0
1 0.720983 0
0.630804 1 0.369196
1 0.434316 0
1 0.854729 0
1 5.96046e-08 0
0.5842 1 0.4158
0.10028 1 0.89972
1 0.762467 0
0.416542 1 0.583458
1 0.602768 0
1 5.96046e-08 0
1 0.688259 0
1 5.96046e-08 0
1 0.0984207 0
0.773059 1 0.226941
1 0.316589 0
0.900863 1 0.0991375
1 0.272775 0
0.440043 1 0.559957
0.801696 1 0.198304
0.945074 1 0.0549262
0.180405 1 0.819595
1 0.324553 0
0.987898 1 0.0121021
1 5.96046e-08 0
1 0.868371 0
1 5.96046e-08 0
0 0.343079 1
1 0.544787 0
1 5.96046e-08 0
1 0.622096 0
1 0.228726 0
1 0.452925 0
1 5.96046e-08 0
1 5.96046e-08 0
1 0.271034 0
1 5.96046e-08 0
0 0.585626 1
0 0.967044 1
0.604371 1 0.395629
1 5.96046e-08 0
1 0.621933 0
1 0.0942196 0
0.538814 1 0.461186
1 5.96046e-08 0
1 5.96046e-08 0
1 5.96046e-08 0
1 5.96046e-08 0
1 5.96046e-08 0
0 0.367969 1
1 5.96046e-08 0
1 5.96046e-08 0
0.796912 1 0.203088
0.858975 1 0.141025
1 5.96046e-08 0
1 5.96046e-08 0
1 0.656409 0
0 0.960304 1
1 0.612377 0
1 5.96046e-08 0
1 5.96046e-08 0
1 0.943904 0
1 0.149824 0
1 5.96046e-08 0
0.220517 1 0.779483
0.24753 1 0.75247
0.333727 1 0.666273
1 0.0356696 0
0.934926 1 0.0650738
0.0681655 1 0.931835
1 5.96046e-08 0
0.901733 1 0.0982673
1 5.96046e-08 0
1 5.96046e-08 0
0.254603 1 0.745397
1 5.96046e-08 0
0.960622 1 0.0393775
1 5.96046e-08 0
0.674007 1 0.325993
1 5.96046e-08 0
1 0.0861025 0
1 0.74352 0
1 0.705566 0
1 0.902883 0
1 5.96046e-08 0
1 0.747584 0
1 0.836165 0
1 5.96046e-08 0
1 0.946798 0
1 0.174823 0
1 5.96046e-08 0
0.704817 1 0.295183
0.833818 1 0.166182
0.214786 1 0.785214
1 0.566153 0
0.283981 1 0.716019
1 5.96046e-08 0
1 5.96046e-08 0
1 5.96046e-08 0
0.525218 1 0.474782
1 0.27508 0
1 5.96046e-08 0
0.542879 1 0.457121
1 5.96046e-08 0
1 0.72796 0
1 5.96046e-08 0
0 0.753846 1
0 0.57406 1
0.258305 1 0.741695
1 0.444118 0
1 5.96046e-08 0
0 0.834238 1
1 0.697539 0
0.0137327 1 0.986267
1 5.96046e-08 0
1 5.96046e-08 0
0 0.247608 1
1 5.96046e-08 0
0.825714 1 0.174286
0 0.791326 1
0.313689 1 0.686311
1 5.96046e-08 0
0 0.87297 1
0.933086 1 0.0669143
1 0.450548 0
1 5.96046e-08 0
0.725362 1 0.274638
1 0.344328 0
0.627894 1 0.372106
0.816632 1 0.183368
1 5.96046e-08 0
1 5.96046e-08 0
0.159406 1 0.840594
0 0.87098 1
1 5.96046e-08 0
1 0.75791 0
0.534943 1 0.465057
0.822459 1 0.177541
0 0.428251 1
0.28971 1 0.71029
0 0.759708 1
0 0.653834 1
1 5.96046e-08 0
1 5.96046e-08 0
0.319153 1 0.680847
1 0.254298 0
0 0.739961 1
1 5.96046e-08 0
1 5.96046e-08 0
1 5.96046e-08 0
1 0.357774 0
1 5.96046e-08 0
0 0.782651 1
0.842069 1 0.157931
1 5.96046e-08 0
0 0.850462 1
1 0.53197 0
0 0.847425 1
1 0.865043 0
0 0.535859 1
0 0.250326 1
0.990675 1 0.00932503
1 0.544432 0
0 0.41905 1
0.0682006 1 0.931799
0.597828 1 0.402172
0.616482 1 0.383518
0 0.805909 1
0 0.68012 1
0.534954 1 0.465046
1 5.96046e-08 0
0 0.693613 1
0 0.308519 1
0 0.733395 1
0.0841493 1 0.915851
0 0.715742 1
0.0740314 1 0.925969
1 5.96046e-08 0
0 0.930531 1
0 0.423801 1
1 0.478185 0
0.722572 1 0.277428
0 0.195793 1
0 0.400231 1
0.592743 1 0.407257
0 0.571761 1
0.20806 1 0.791939
1 5.96046e-08 0
0 0.745168 1
0 0.927253 1
0 0.900448 1
1 0.516859 0
0.0259357 1 0.974064
1 5.96046e-08 0
0 0.559018 1
0 0.615591 1
0 0.801312 1
1 5.96046e-08 0
1 0.908984 0
0 0.426915 1
0 0.43853 1
0.516499 1 0.483501
0.20975 1 0.79025
0 0.788033 1
1 5.96046e-08 0
0.0114511 1 0.988549
1 5.96046e-08 0
0.321322 1 0.678678
1 0.086198 0
