# vtk DataFile Version 3.0
Particle simulation
ASCII
DATASET POLYDATA
POINTS 400 float
9.91442 1.28202 9.38998
3.90232 9.22552 1.50547
0.654921 0.31834 5.87406
2.14697 0.422564 1.33803
8.64224 0.785798 2.94179
9.18711 6.13646 4.16586
8.241 0.188288 2.10779
7.67644 2.58059 1.32034
8.16452 8.51921 8.84342
4.14967 0.6798 6.78207
9.49608 3.72001 2.11536
6.37632 2.67416 2.06453
9.69949 3.08976 9.50665
7.78864 0.432978 0.524348
5.63419 2.40434 1.23565
9.61219 5.50542 9.25657
0.977718 5.63789 0.0391871
3.09388 0.12205 1.09802
1.45785 2.94376 2.68007
0.240433 2.86108 5.05584
2.21655 0.630539 2.00199
9.95394 2.09803 3.89482
9.55347 0 9.70391
1.64599 0.092425 1.21517
2.79337 8.77539 2.56439
4.27294 0.771767 0.414343
7.58727 9.42032 4.35389
0.689246 0.539519 1.4716
8.54105 0.150523 6.12063
6.57673 1.87741 1.23673
5.9194 7.36531 8.92873
4.99502 4.42706 8.82348
9.24786 0.725503 7.99199
3.8603 0.560018 0.442362
6.43918 1.62791 1.02769
2.63831 2.94719 0.807731
1.1873 7.19577 1.42934
3.40235 0.589742 2.24327
6.42488 0.352787 2.26793
0.491704 1.91777 4.29504
2.62328 0.306795 4.97506
9.95046 0.967463 6.10327
7.58419 3.34188 9.13515
1.32957 4.38035 8.18303
6.78063 0.735947 6.1246
6.1984 0.346341 1.79059
4.46147 0.879412 5.56512
5.06604 0.663158 3.63177
6.01158 0.55724 1.64653
8.36152 2.84296 1.67661
1.32023 2.87788 3.09113
4.15685 2.71568 4.23586
7.99336 0.0556396 7.68738
4.39611 0.778608 6.66312
8.37185 0.459313 8.08867
6.02114 0.364263 1.51567
8.58845 0.61324 9.79578
0.735993 0.789576 6.86788
6.58518 0.0696483 2.05897
9.88808 9.47712 2.40595
7.03799 7.95447 9.03116
5.91122 1.0179 9.88934
1.94057 0.765853 4.4554
4.21048 0.196716 6.98332
3.73114 8.69848 3.2202
1.06206 0.44595 2.91084
4.97065 0.348115 9.38836
1.48611 2.99451 2.62455
6.29713 0.345222 1.9067
5.11349 0.156446 7.82972
9.36916 0.0717527 7.75477
3.58228 0.654529 2.59602
9.32725 3.95975 0.350145
4.23285 0.349213 6.97167
10 0.705709 8.32641
7.60304 0.30875 2.67222
5.08407 0.253191 9.14937
5.34337 0.163518 8.21445
7.54235 1.55137 0.308998
0.897993 9.62638 9.96913
3.43071 0.649704 1.96749
3.2263 0.0368855 1.66346
3.35948 0.549535 2.30229
2.81082 0.473046 1.33005
4.1293 0.609689 9.20021
5.72021 0.287357 8.63232
6.14757 1.66311 9.54318
5.358 2.9366 1.8648
9.96413 3.95165 2.43862
9.02528 0.173768 1.63209
3.37884 0.499064 1.89361
3.42346 0.479565 1.40408
1.33013 0.0677735 7.02942
2.57551 0.205522 1.26925
4.08803 0.671351 9.25972
5.4355 0.111653 8.71625
5.7083 0.0721166 8.32425
0.399793 1.08672 0.284449
9.76527 0.697715 7.67124
8.99621 0.189569 1.65961
3.9882 0.00610401 1.01797
5.24001 1.48545 0.126926
1.42685 1.31466 1.04631
9.5132 0.704312 9.49398
7.20417 4.53717 1.85331
3.49303 0.54688 2.18748
4.78558 0.203725 8.16207
5.80144 0.508625 1.38142
5.80347 0.52829 1.92356
9.20083 0.169181 1.94715
9.86965 9.14755 9.88547
3.99697 0.892783 6.62355
2.75413 0.542709 2.85529
7.96081 0.238922 1.73246
3.46101 0.627155 2.29329
2.44212 0.246509 4.10488
5.27489 0.228021 8.39949
5.67335 0.845187 1.08523
5.88052 0.403576 1.93794
7.05203 1.02561 5.62869
3.36617 0.582908 1.80283
4.75414 8.03686 0.768052
6.96657 9.41912 6.48301
7.16878 0.837413 4.14785
9.37307 0.179268 8.22857
3.96704 0.403602 2.14265
3.91614 0.994153 2.83405
4.17368 0.63967 6.79918
5.8558 4.36202 6.30664
0.0859622 5.93391 9.78925
3.74755 0.192405 1.38967
5.38483 3.07973 1.65399
4.48647 0.0924104 8.23961
7.21618 0.621856 6.46575
7.42758 0.337818 3.42606
2.47617 0.62435 1.72656
7.51539 9.57061 4.81241
4.27533 0.229321 6.85046
3.6928 2.2429 7.73485
8.35965 0.130709 8.04772
3.80666 0.580239 1.84947
4.1245 0.682436 9.5699
4.60277 10 6.71171
7.07567 1.1316 5.70375
3.36107 0.760621 1.56342
2.61608 0.476438 1.34133
7.10757 0.674405 6.34454
0.728592 4.81746 0.293043
2.41244 0.122368 1.59207
3.02289 0.586958 2.93747
3.80285 0.559318 1.84794
8.71044 1.29354 6.91186
3.40691 0 0.921975
5.35944 0.0276714 8.15282
4.27218 4.19098 0.359549
6.28375 0.20831 1.68462
8.39288 1.07717 7.07617
3.15634 0.412629 2.23351
7.66624 1.02651 5.93868
1.98337 0.405679 1.94665
2.37605 3.23774 0.374558
0.679828 0.336706 5.907
5.73054 0.244912 8.05955
3.3555 0.325458 2.2503
1.32897 3.15871 3.00628
8.23222 0.148469 7.79605
5.34343 0.272041 8.89416
5.54653 0.649752 8.52405
6.41537 4.11011 5.44854
7.73411 3.02394 6.73028
3.04236 0.24678 2.18702
4.11612 0.684428 3.03472
5.7486 0.905249 1.67081
3.0023 0.2473 1.456
2.82033 1.06907 2.0487
2.29457 2.59582 1.0154
5.57189 0.265328 8.2142
5.21454 0.173923 8.61849
6.94938 0.0591029 7.48842
3.6774 4.23269 8.06995
2.84083 0.476821 1.32004
3.74322 0.881609 1.81839
8.96832 5.47321 6.85213
3.2374 1.21236 1.17233
5.06006 0.317114 8.46482
3.38658 0.159927 1.77661
2.1993 0.140679 1.69034
1.23108 0.0183412 6.84998
7.67733 0.809803 6.41883
2.72483 0.420991 1.70758
2.8138 0.438706 1.29914
2.21943 0.66487 1.87433
6.76136 0.61973 8.25897
1.51669 3.05937 4.20305
3.53077 4.89532 6.52165
2.25099 0.506205 1.87051
2.46009 0.523712 1.40529
7.63895 4.91296 8.30999
2.20198 0.559585 1.91135
3.79088 0.424377 0.735793
3.46218 0.25497 1.70533
5.90994 0.361582 1.61695
7.58797 0.859212 6.19903
4.71018 0.360208 8.32694
9.28758 6.49603 1.87934
5.81715 0.818832 8.8701
3.81956 0.500721 1.20411
0.539216 0.555273 6.84658
0.674077 0.564961 6.63243
8.75698 0.24279 1.53139
2.12994 0.48852 1.26732
6.3702 0.396899 1.59249
5.834 0.563983 7.77757
8.73375 0.481787 7.91249
5.20283 0.248096 6.57062
5.49592 0.512919 8.75342
3.85227 0.49793 1.21279
2.91797 0.349477 2.24319
4.07337 0.99074 3.37791
9.10966 0.24942 1.69834
6.70215 3.78947 0.167781
4.43142 0.131683 7.96432
5.49975 0.113263 8.28682
3.34545 0.404812 2.42482
5.61825 0.423994 8.50886
3.71497 0.558264 2.42507
2.08815 3.02371 0.979108
2.21566 0.348668 1.65485
2.6018 0.675994 1.65807
6.83868 0.00961431 7.30306
3.20975 0.317545 5.47172
5.86352 0.133271 8.32345
7.1708 0.926125 6.31469
3.64508 0.67969 2.61421
6.64647 0.0864379 8.1862
4.03521 0.127912 1.36873
5.84885 0.415436 8.08516
2.09235 0.630084 1.27172
2.03761 0.550054 1.78295
0.785567 0.573691 6.76832
3.22089 0.579598 2.69225
2.68606 0.557483 1.80556
3.29961 0.546308 1.65703
2.42212 0.126551 1.09292
5.22919 0.181173 8.44642
3.83466 0.920178 1.53738
0.654556 0.222012 1.30947
5.97031 0.441916 8.67235
5.73695 0.733753 1.67468
5.89759 0.501489 8.51427
3.57469 0.632851 2.58507
3.54245 0.720359 2.54035
5.78816 0.392574 8.69434
1.65095 0.860548 1.58371
7.31974 0.994171 6.13637
3.66355 0.449667 2.53454
9.15743 0.302043 1.72226
6.12302 0.761007 8.72771
6.1356 0.597905 1.67784
5.84724 0.481146 8.60079
2.58317 0.439508 1.35092
2.29838 6.37588 5.26049
6.20759 0.511175 8.82903
7.61708 3.15773 1.21948
5.58551 0.456887 8.42177
1.06976 4.14775 8.02444
3.13235 0.658327 1.66992
5.6173 0.27841 9.05875
7.52948 1.16912 6.13744
3.50922 0.686257 1.92129
3.78159 0.426562 1.49367
1.61081 1.07902 1.33344
6.53767 0.0636561 1.48772
2.86561 0.716882 3.26063
5.83158 0.280655 8.8391
5.65367 0.270073 8.96378
4.97525 0.376787 6.72092
5.1034 9.2702 6.90045
5.7152 0.480003 8.67376
2.72237 0.416199 1.26017
8.91813 0.152336 1.43103
6.24386 0.755668 1.73823
8.11664 2.47352 1.25211
4.42479 0.395016 6.74875
7.00098 0.570767 5.41101
7.31708 1.00298 6.09885
3.4613 0.63085 2.14331
4.03993 0.0123957 1.54942
9.01159 0.345833 7.92215
8.29955 8.35753 4.97403
8.70803 0.670164 3.29663
5.96079 0.421554 1.86751
2.40313 0.504732 2.06829
3.99965 0.329911 6.90852
5.86519 0.258798 8.53463
5.19172 0.936717 8.95373
3.91822 0.0644886 1.33205
3.33387 0.104594 2.29688
2.74989 0.350348 2.29182
3.40789 0.51363 2.43788
8.929 0.308872 1.355
8.64004 0.276892 7.90335
2.08479 0.382349 4.16013
6.40502 0.0509357 2.00244
3.28573 0.655143 2.80216
0.710317 0.76035 1.61145
2.99156 0.40293 1.7486
2.50462 0.531564 1.44365
1.92764 0.314791 4.16217
1.87913 0.521871 1.53852
6.74604 0.0326762 8.34841
8.76771 1.25587 6.96074
6.89072 0.73808 6.1359
2.27274 0.242816 1.16604
3.47327 0.185329 1.72997
4.1195 0.542943 9.62583
3.04513 0 1.97535
6.69617 0.568987 2.10166
6.02223 0.343544 2.03777
2.94724 0.545424 1.8489
4.91847 0.49078 8.65736
3.72804 0.957981 2.8605
4.95506 0.374166 8.67154
2.28525 0.60597 2.12277
8.85499 0.284661 1.29232
8.88487 0.226534 1.6955
2.32445 0.613734 1.78488
5.98815 0.332779 1.64761
8.04101 0.295424 2.17213
2.67165 0.203211 1.06174
5.2893 0.726312 9.47445
3.49018 0.67925 1.53102
5.3941 0.0857152 9.01493
3.30759 0.266708 2.17401
8.25055 0.159712 2.1277
5.82208 0.275268 8.89046
6.56531 0.0388812 1.67063
2.65047 0.715854 1.44614
8.3964 0.403536 2.05691
2.8549 0.248648 1.65608
4.89922 0.511857 8.86271
2.69054 0.917551 2.03458
5.64396 0.724714 8.76785
6.10155 0.18176 8.5758
3.52925 0.338094 2.1842
3.39821 0.662061 2.31979
5.80004 0.419342 1.64253
2.44443 0.596172 1.38158
3.46729 0.645382 2.21148
1.93081 0.370979 1.73572
3.72165 0.835766 2.69896
2.9916 0.519658 1.59575
5.1669 0.814458 9.2715
6.26032 0.291134 8.80769
2.49217 0.442007 1.72901
2.76973 0.318332 1.41273
6.09671 0.488604 1.86285
5.6121 0.825498 8.88451
3.65008 0.127616 1.31625
3.5239 0.600037 2.25521
6.13038 0.411165 1.82929
4.90909 0.400807 9.43082
5.86246 0.0610988 8.51111
2.80827 0.488898 1.91801
2.21904 0.542443 1.53475
7.51185 1.15366 5.95662
5.59011 0.251223 8.29831
6.04684 0 8.07947
5.73289 0.763974 8.41073
1.34435 0.55167 1.70757
6.12124 0.503371 1.83378
8.68149 1.19906 6.84295
5.63702 0.367712 8.5496
2.51259 0.588164 1.73974
3.63798 0.180769 1.46207
7.06053 0.891776 6.4768
5.88926 0.277106 8.42322
5.40993 0.458034 8.5584
5.39694 0.0502437 8.4241
3.63351 0.731896 2.12182
2.35248 0.810567 2.13564
2.77478 0.425824 1.28859
5.7332 0.126979 8.46242
3.43156 0.750193 2.55041
4.24857 0.518003 6.99071
5.54887 0.11246 8.56434
3.39969 0.684057 2.00744
3.09571 0.283131 2.09861
3.30948 0.242224 5.65191
6.45266 0.433147 1.34095
2.30867 0.765676 2.03992
2.84941 0.381034 1.41423
5.66297 0.396104 8.7129
3.90847 0.848446 2.07534
4.293 0.563463 7.0313
5.431 0.302615 8.55945
3.37239 0.661451 1.80826
3.16504 0.23193 2.06113
9.47874 0.352632 1.26278
6.47367 0.40736 1.34392
POINT_DATA 400
SCALARS particleColor float 3
LOOKUP_TABLE default
0 0.658094 1
1 5.96046e-08 0
0 0.436751 1
0 0.359568 1
0.0347557 1 0.965244
0.477421 1 0.522579
0.481712 1 0.518288
0.524355 1 0.475645
0.208777 1 0.791223
0 0.450253 1
0 0.867341 1
0.454218 1 0.545782
0.116609 1 0.883391
0 0.688772 1
0 0.682506 1
0 0.626864 1
0 0.4255 1
0 0.191522 1
0.351927 1 0.648072
0.116999 1 0.883
0 0.467772 1
0.901786 1 0.0982144
0 0.874919 1
0 0.654337 1
1 0.661816 0
0 0.821499 1
1 5.96046e-08 0
0 0.343497 1
0 0.777535 1
0.0079546 1 0.992045
0 0.93851 1
0.0357273 1 0.964273
0 0.479775 1
0 0.92242 1
0.119506 1 0.880494
0 0.973067 1
1 0.946922 0
0 0.496434 1
0 0.503107 1
0 0.432829 1
0 0.673918 1
0 0.584433 1
0 0.67405 1
0 0.493819 1
0 0.53477 1
0 0.813884 1
0 0.346609 1
0.0158538 1 0.984146
0 0.753716 1
0 0.798515 1
0 0.323017 1
1 5.96046e-08 0
0 0.261853 1
0 0.25144 1
0 0.476127 1
0 0.667219 1
0 0.812363 1
0.0710216 1 0.928978
0 0.566619 1
0.464617 1 0.535383
1 0.65374 0
0 0.720983 1
0 0.631021 1
0 0.671142 1
0.0572596 1 0.94274
0 0.763137 1
0 0.670832 1
0 0.996546 1
0 0.72967 1
0 0.419558 1
0.502853 1 0.497147
0 0.381928 1
1 0.693685 0
0 0.584405 1
0 0.308777 1
0 0.847091 1
0 0.741344 1
0 0.548498 1
0 0.440989 1
0 0.768041 1
0 0.750279 1
0 0.240983 1
0 0.947522 1
0 0.365752 1
0.131977 1 0.868023
0 0.940688 1
0 0.204699 1
0 0.72721 1
0 0.784466 1
0 0.377417 1
0 0.895069 1
0 0.461741 1
0 0.46757 1
0 0.438781 1
0.12009 1 0.87991
0 0.695874 1
0 0.717876 1
0 0.640957 1
0 0.896164 1
0 0.181199 1
0 0.877651 1
0 0.449036 1
0 0.696318 1
0.185297 1 0.814703
0.555858 1 0.444142
0 0.377861 1
0 0.223891 1
0 0.802626 1
0 0.121596 1
0 0.56602 1
0.187716 1 0.812284
0 0.820848 1
0 0.263316 1
0 0.321753 1
0 0.262194 1
0 0.660774 1
0 0.474834 1
0 0.294666 1
0 0.36983 1
0 0.93767 1
0 0.45645 1
0.695911 1 0.304089
0.416077 1 0.583923
0 0.15829 1
0 0.807837 1
0 0.567075 1
0 0.761584 1
0 0.198648 1
1 0.668828 0
1 0.945962 0
0 0.543651 1
0 0.759812 1
0 0.164163 1
0 0.517014 1
0.609357 1 0.390643
0 0.655955 1
1 0.762312 0
0 0.343047 1
0 0.66557 1
0 0.427201 1
0 0.639403 1
0.291656 1 0.708344
1 5.96046e-08 0
0.36558 1 0.63442
0 0.379972 1
0 0.643814 1
0 0.520467 1
0 0.403819 1
0 0.382033 1
0.386601 1 0.613399
0 0.695326 1
0 0.388879 1
0.201079 1 0.798921
0 0.715842 1
0 0.133823 1
0 0.842066 1
0 0.374086 1
0 0.595813 1
0 0.429148 1
0 0.490677 1
0 0.595137 1
0 0.833632 1
0 0.411578 1
0 0.488211 1
0 0.365015 1
0 0.795827 1
0 0.791085 1
0 0.552743 1
0 0.665187 1
1 5.96046e-08 0
0 0.792267 1
0 0.933342 1
0.20058 1 0.79942
0 0.612877 1
0 0.352233 1
0 0.581163 1
0 0.0834127 1
0 0.884325 1
0.466897 1 0.533103
0 0.727715 1
0 0.372744 1
0.0800077 1 0.919992
0 0.580801 1
0 0.199003 1
0 0.459332 1
0 0.679529 1
0 0.705252 1
0 0.917581 1
0 0.476091 1
0 0.531013 1
0 0.478116 1
0 0.423872 1
0 0.526643 1
0 0.383695 1
0.697539 1 0.302461
0 0.706491 1
0 0.809989 1
0 0.456788 1
0 0.478827 1
0 0.573776 1
0 0.24531 1
0 0.120433 1
0 0.634456 1
0 0.349599 1
0.554678 1 0.445322
0 0.711549 1
0 0.435413 1
0.37151 1 0.62849
0 0.656279 1
0 0.552514 1
0 0.284641 1
0 0.372596 1
0 0.786776 1
0 0.709034 1
0 0.864411 1
0 0.784068 1
0 0.40604 1
0 0.18871 1
0 0.766843 1
0 0.616751 1
1 5.96046e-08 0
0.113161 1 0.886839
0 0.622473 1
0 0.303247 1
0 0.604505 1
0 0.435548 1
0.269254 1 0.730746
0 0.459864 1
0 0.723942 1
0 0.58618 1
0.452527 1 0.547473
0 0.726722 1
0 0.762213 1
0 0.671192 1
0 0.827465 1
0 0.822016 1
0.0815707 1 0.918429
0 0.597398 1
0 0.502411 1
0 0.756423 1
0 0.969428 1
0.243867 1 0.756133
0 0.881677 1
0 0.90636 1
0 0.908848 1
0 0.951224 1
0.384365 1 0.615635
0.713102 1 0.286898
0 0.732817 1
0 0.277844 1
0 0.46446 1
0.556344 1 0.443656
0 0.560916 1
0 0.363801 1
0 0.80403 1
0 0.476014 1
0.14845 1 0.85155
0 0.675632 1
0 0.652324 1
0 0.430731 1
0 0.833303 1
0.0916878 1 0.908312
0 0.651761 1
0 0.750144 1
0 0.991102 1
0.524461 1 0.475539
0.00260265 1 0.997397
0 0.422541 1
0 0.492091 1
0 0.336049 1
0 0.39343 1
0.824648 1 0.175352
0.0266913 1 0.973309
0 0.996699 1
0 0.387368 1
0 0.886407 1
0 0.536554 1
0 0.240582 1
0.829096 1 0.170904
0 0.436447 1
0 0.873259 1
0 0.496044 1
0.114569 1 0.885431
0.293034 1 0.706966
0 0.515349 1
0 0.801179 1
0 0.600946 1
0 0.735964 1
0 0.311523 1
0.3438 1 0.6562
0 0.839485 1
0 0.843968 1
0 0.937199 1
0 0.672677 1
0 0.652679 1
0 0.364163 1
0 0.87623 1
0 0.703626 1
0.457936 1 0.542064
0.138746 1 0.861254
0 0.490443 1
0 0.423682 1
0.036532 1 0.963468
0 0.855024 1
0 0.781001 1
0.23923 1 0.76077
0.310204 1 0.689796
0 0.546942 1
0 0.281124 1
0 0.519806 1
0 0.733193 1
0 0.614187 1
0 0.457883 1
0.0739026 1 0.926097
0 0.808434 1
0 0.635266 1
0 0.783411 1
0 0.794946 1
0 0.149986 1
0 0.584538 1
0 0.416272 1
0 0.738946 1
0 0.288512 1
0 0.453746 1
0 0.665784 1
0 0.242036 1
0 0.771012 1
0.103391 1 0.896609
0 0.724358 1
0 0.757775 1
0 0.414045 1
0 0.42307 1
0 0.536238 1
0 0.299632 1
0 0.692617 1
0.396702 1 0.603297
0.230555 1 0.769445
0 0.242658 1
0.096742 1 0.903258
0 0.79404 1
0 0.888974 1
0 0.850586 1
0 0.493718 1
0 0.811952 1
0 0.625884 1
0 0.544325 1
0 0.349732 1
0 0.482986 1
0 0.372195 1
0.121537 1 0.878463
0 0.625494 1
0 0.375731 1
0 0.698182 1
0 0.733975 1
0 0.866517 1
0 0.633044 1
0.360688 1 0.639312
0 0.983838 1
0 0.325182 1
0 0.806117 1
0 0.613857 1
0 0.227423 1
0 0.575385 1
0 0.646663 1
0 0.846239 1
0 0.262905 1
0 0.199338 1
0.0194058 1 0.980594
0 0.155492 1
0 0.531241 1
0 0.530751 1
0 0.359842 1
0 0.710943 1
0.21402 1 0.78598
0 0.681573 1
0 0.44802 1
0 0.799353 1
0 0.412377 1
0.0338043 1 0.966196
0 0.572959 1
0 0.277878 1
0 0.3368 1
0 0.814905 1
0 0.385862 1
0 0.624546 1
0 0.769752 1
0 0.680871 1
0 0.2279 1
0 0.733943 1
0 0.196397 1
0 0.306817 1
0 0.498868 1
0 0.705649 1
0 0.319479 1
0 0.469432 1
0.109735 1 0.890265
0 0.487916 1
0 0.856811 1
0 0.981636 1
0 0.238631 1
