# vtk DataFile Version 3.0
Particle simulation
ASCII
DATASET POLYDATA
POINTS 400 float
2.92631 3.07776 3.37737
1.15827 4.39725 5.67256
6.25741 1.56182 0
9.77423 2.76417 9.33294
4.79355 1.82559 5.56097
9.4348 7.30959 8.91123
9.16862 2.45421 6.58468
9.94002 0.562539 3.49471
5.7282 4.86438 7.97237
7.84104 0.351396 5.6048
0.85719 4.29339 2.09524
0 4.8917 0.286912
6.91201 6.01648 10
2.07285 3.97545 0.302815
2.20391 7.86441 1.6755
8.41945 0 9.1411
3.3221 4.12604 8.35569
3.82727 0.376006 2.28369
9.50396 8.89924 0.922395
0.455647 4.94539 9.4342
3.62935 0.0243355 2.16023
3.54379 6.53356 7.12865
1.53499 8.79442 9.4318
9.36847 6.672 4.21268
4.70269 8.88895 0.999077
7.38748 6.5705 1.78981
4.59325 3.50537 6.95833
3.45852 1.95229 6.96149
5.36364 1.32097 4.01725
3.60994 2.58025 6.07777
7.52657 8.47398 6.80117
7.28514 2.96619 0.779364
0.432952 5.43711 1.09368
9.24264 8.46456 3.18911
0 1.63149 1.16439
7.39723 6.03629 3.93278
8.40416 4.56796 8.01868
4.00786 0.366729 2.64911
6.85412 9.04993 5.47085
7.48993 5.98171 9.18345
7.46331 5.24475 1.13137
7.22339 6.78712 1.85749
0.322404 4.87587 9.81609
8.54222 4.4211 0.186722
6.63588 2.83541 5.77974
9.16035 7.38733 8.79414
2.0135 5.6075 7.43955
1.86338 6.14173 3.75241
0.927743 6.10832 5.13138
4.59863 3.02424 1.39903
3.38984 4.31699 10
8.50503 7.62675 8.22928
6.62002 7.33856 3.01483
9.44581 5.26226 2.90364
6.6732 6.34065 7.63686
0.464718 0.222713 8.43283
0.194665 5.73594 2.39716
4.54614 2.04224 6.27669
2.34665 0.00470769 8.75486
1.91852 6.4679 2.30634
1.26242 7.94539 0.261652
2.97381 5.20541 5.46227
2.95574 0.129262 6.97008
0.45493 7.67779 5.82032
3.6251 9.84645 9.96259
4.16324 4.71129 4.57491
5.90579 2.93707 1.11896
5.06043 2.92468 6.41415
0.704396 5.4039 0
5.73528 0.126649 4.62127
7.21453 4.4966 7.18475
6.6969 8.11935 5.64133
3.09925 9.91654 6.1239
8.57734 1.88353 5.12391
8.6937 0.00728258 4.36241
1.62133 8.55561 6.6661
1.04026 7.7813 5.85043
4.72323 8.08991 6.01713
2.37389 8.10719 1.04393
9.42354 4.5047 8.91535
3.59394 0.481458 2.06996
1.78874 2.06449 1.45489
4.19402 0.0219684 8.99661
1.50588 9.2123 5.15923
4.59666 6.03079 2.33788
9.76826 1.69597 8.88984
9.96205 0.0797699 3.61207
3.82501 9.86868 8.51994
3.86269 6.79154 3.06425
1.71705 1.67181 3.89891
3.41772 0.444381 2.40769
2.92435 5.9979 2.19089
6.45584 3.64564 3.22781
7.19525 10 1.79805
7.46376 8.76757 6.02129
1.29576 6.67655 3.55399
9.73195 9.64519 9.19393
9.45805 8.57287 5.57011
7.89805 3.45132 6.63002
2.63487 3.55983 8.69798
3.27432 1.33566 0.0311961
6.40379 4.87438 5.20988
8.28061 6.69732 0.911538
6.661 2.27265 8.44546
4.08365 0.694254 3.24626
1.76347 6.31885 9.75941
4.89466 2.88114 3.01704
0.896953 7.85595 9.77755
2.42388 1.1866 5.76128
8.78891 7.22613 4.58258
6.13059 9.99215 7.37552
2.22326 9.29362 9.67507
0 6.92647 1.81091
5.45587 2.99176 0.272375
4.35007 0.253156 1.98642
8.33023 0.828384 7.4425
0.281375 0.206968 8.44025
1.94217 8.33898 2.45584
0.354899 0.122256 3.01801
6.12948 7.91942 2.42782
9.6895 0.542534 4.41872
5.89735 7.77763 1.09514
4.74022 1.83 6.94065
8.69219 3.09397 4.67118
5.44511 9.88118 6.56251
3.50382 0.697257 0.204964
6.34408 2.22802 0.115492
5.39301 8.88492 3.08075
2.8557 1.10895 3.56107
9.4068 6.56426 0.597266
6.19208 8.67174 4.83129
6.81105 7.40581 5.93424
5.94835 9.56853 3.36064
4.16399 1.5219 3.06426
5.64979 9.76158 7.25677
7.29459 6.29473 1.88436
0.865131 2.15988 7.57775
4.65526 5.65962 6.72278
9.48767 5.9715 6.30248
8.80125 7.82725 3.10956
3.68585 0.409469 1.71876
5.71859 5.01833 6.51098
8.98174 1.65389 3.30967
1.03395 5.70676 9.20607
4.49238 0.0779089 1.72001
9.89308 2.42477 3.06412
8.31657 1.71482 1.0927
9.29295 9.32242 0.395814
1.31688 1.89603 7.47794
3.6568 0.913492 9.44298
3.97497 0.0448311 1.95633
0.933519 4.38784 9.42337
1.89191 4.28825 4.84553
3.05091 0.212938 2.48925
0.290435 2.70596 4.04703
6.83826 2.52118 5.18507
9.50327 6.20666 1.17341
5.55018 7.61155 2.57129
2.7799 8.30226 0.216016
2.8346 6.45435 8.10036
4.2564 8.27526 6.31807
4.09799 4.5153 2.39863
0.294365 4.33477 4.10596
0.587171 5.79099 4.91377
2.23825 9.32319 2.8594
7.8662 5.85422 0.434806
1.40685 4.26906 2.48725
9.26081 6.24432 4.10038
1.85491 1.69936 8.89779
5.79554 6.77521 1.41589
3.47582 0.278907 2.87048
1.45914 1.63032 9.62959
1.75582 7.64004 2.93475
7.85625 4.65312 6.00799
0.296561 7.35454 5.91501
1.34762 0 3.17209
10 9.78299 1.57566
6.85787 8.22479 6.07403
6.15014 5.85328 1.58574
5.50988 2.34771 3.1729
4.21413 0.423236 2.28118
9.09994 4.4864 8.99581
3.79846 8.82489 8.38814
1.89487 1.41014 7.32499
10 8.2899 1.48925
0.58741 4.95896 3.81664
3.89349 0.038452 2.09292
0.779853 10 1.83541
4.57362 0.550267 2.91703
4.27037 0.377461 1.65802
3.2202 0.21687 2.62337
3.17069 0.315621 2.99307
8.92992 2.23599 0.528944
8.72853 2.98269 10
8.33965 7.25667 8.54483
4.9165 2.70659 0.775378
1.58424 9.62424 8.69537
4.81147 1.78794 2.37209
2.81904 0.366717 8.18885
3.3608 0.630811 2.85104
3.84368 0.357 2.18221
7.93276 1.16495 6.38197
2.1285 5.69973 5.03992
7.66729 5.52386 2.82761
8.25206 5.62544 9.04504
0.34634 0 2.74718
6.09564 0.473431 3.43261
8.72139 3.26142 9.2912
5.67572 0.818042 9.46912
2.11744 0 0.925688
2.9798 0.351872 2.52717
3.58557 0.419583 2.07097
0.462755 0.339462 6.04012
6.64651 0.966589 3.53919
1.87426 3.38774 2.74357
4.18738 1.902 8.70502
3.19184 0.0857612 2.56358
1.83172 2.17452 3.78601
0.950252 4.38499 6.01071
1.40861 6.83589 0.767297
8.37287 8.68651 0.496495
9.02287 4.94119 3.83626
8.95334 0.134831 0.600358
2.99023 0.222202 3.17937
8.83284 1.49129 1.08637
3.24395 5.69327 2.18718
9.83263 4.78101 7.33344
4.13 0.619143 2.38484
3.64759 0.26287 2.06679
5.21517 9.62919 0.964517
9.78898 5.58565 5.3506
3.00779 6.92126 6.39844
5.57168 3.88749 8.11952
3.21881 0.524979 2.81508
0.265483 0.298097 8.54748
9.6321 2.47646 4.78367
7.40079 0.254026 7.37785
3.22071 0.204252 8.85422
3.15535 0.38405 2.37373
4.06252 9.50417 9.34394
4.05442 0.244779 2.14875
4.58704 0.701905 2.44842
2.82888 1.64316 5.88491
3.50795 0.450266 2.23423
4.67227 0 4.65547
5.40729 9.52903 2.45778
1.25574 2.3912 5.38095
9.55861 1.58657 7.88377
5.38516 4.94412 0.959442
5.15636 5.3252 2.56704
3.44296 0.787618 2.26915
4.729 8.95337 1.77731
1.05506 4.58721 3.84554
9.88555 3.96787 1.46387
1.27009 4.68401 4.90626
2.06461 0.384653 3.31424
0 4.03143 8.61596
0.496794 0.270096 8.26861
3.22974 7.70659 8.21436
0.176892 0.316883 8.4517
3.97022 0.220139 1.3042
9.26484 0.154716 9.33322
5.4281 1.81694 5.77161
0.186313 0.227034 4.76791
0.0316496 0.0173679 4.30125
3.11838 0.355063 3.57239
3.60365 0.594986 4.00604
0.0411794 0.454673 8.43137
0.864575 9.62953 2.09923
3.11272 0.241873 2.1851
3.66128 0.362207 2.81333
0.0336071 8.66724 8.28948
7.64006 1.18784 1.15853
2.42591 4.1041 4.83669
3.71083 0.676265 4.6771
0.917181 1.91303 5.72107
8.04553 5.19176 5.74921
3.01182 1.43392 1.44414
5.29069 0.666336 9.11892
3.69623 0.318518 2.34867
1.58959 2.3101 8.54233
8.03576 0.7076 0.561873
9.36299 8.15948 0
3.2064 0.0197217 1.61749
7.09997 0.367674 7.2735
8.46078 9.72746 5.91697
3.38993 0.116206 1.82055
4.38456 0.94726 4.64553
2.2387 3.14538 7.2911
5.25887 8.62861 3.51899
7.95675 4.60382 5.78342
8.30605 6.6876 9.50185
2.81903 0.427514 2.72435
2.99608 7.10294 4.06221
5.22308 2.85891 8.8585
0.204599 0.159568 8.78595
3.64499 0.41701 2.25652
3.40077 0.538337 1.96505
3.25146 0.489424 3.10006
3.46477 0.270287 2.27079
7.13884 3.08873 2.71811
8.83822 0.294839 0.729283
3.40985 1.10882 1.05101
3.7673 6.81753 6.30713
3.24653 0.591799 2.17058
9.73616 6.83909 5.0525
3.44306 0.464103 1.91491
3.7225 0.625608 2.45258
1.99307 1.84781 8.93791
8.40864 5.21981 6.22596
1.68664 7.29658 3.90625
5.97481 0.303472 4.84857
4.46717 8.21503 1.48022
3.52584 0.110333 2.18367
4.91031 8.60457 5.42015
3.80183 7.02387 2.9658
3.53168 0.231426 0.230823
4.62019 2.95364 0.715836
1.8475 9.4718 8.80008
9.52395 8.56294 3.34671
0.392852 0.745931 8.89262
6.87106 8.09249 8.19041
0.708842 0.260551 8.65415
3.91205 0.080645 2.15934
0.155745 0.545626 8.29703
4.84079 0.0869267 1.21887
3.31805 0.567565 1.83252
7.92424 0.351438 1.96877
6.60607 9.76949 9.7905
3.39654 0.343101 2.6298
9.10114 2.74366 6.33656
2.62146 0.191343 1.89369
1.46824 1.67157 9.37065
1.72994 0.351607 3.393
8.03222 0.469372 0.508399
2.77977 0.202917 9.73606
6.62862 6.09811 5.00487
3.66909 0.372211 2.39221
1.59526 1.35019 9.08059
6.71548 3.06561 5.65381
6.21853 7.32184 1.97901
9.58415 9.77672 2.49567
0.960456 2.038 9.158
0.303303 0.370492 8.50604
3.5928 0.554139 2.40016
3.40849 0.425389 2.36241
8.06844 0.339729 0.271775
3.93698 0.0881643 2.64727
2.98761 0.215617 1.55027
7.57863 6.14383 0.860114
3.07066 0.459686 2.75806
3.62989 0.156592 2.3388
1.54913 7.36632 3.17255
4.47865 4.22518 0.41331
3.1573 0.430084 1.88353
3.52533 0.177128 2.43791
3.69203 0.990146 0.638383
0.998702 2.1202 9.1987
3.63142 0.443347 2.58283
3.53473 0.383784 2.4409
8.00068 1.06076 0.421014
0.304448 0.155957 8.48987
0.449404 0.260258 8.46443
3.61227 0.622822 1.61166
4.16008 0.356082 1.95032
8.2412 0.712732 0.589101
0.475489 0.105017 8.3756
7.05406 0.635511 2.85129
0.507432 0.163163 8.39779
5.41008 3.42841 8.91009
8.10411 0.84165 0.377925
3.45107 1.02278 8.4667
3.14247 0.0652862 6.84622
3.93399 0.39273 2.6374
3.27099 0.502315 2.39328
8.20229 0.671253 0.632249
0.304937 0.421266 8.31642
0.413056 0.087122 8.10844
3.40863 0.976231 8.66582
3.552 0.451838 2.71832
3.29366 0.168779 2.64143
3.65874 0.172311 2.13021
3.28407 0.821845 8.60782
4.0442 0.32777 2.16661
9.73408 1.44318 0.686126
0.621611 0.42903 8.7813
3.66651 0.485389 2.40368
3.33671 0.347537 2.62635
9.44234 5.10526 8.42418
7.71015 1.02315 7.2011
3.27631 0.586137 2.44404
3.5711 0.286804 2.13989
0.118764 0.279041 8.45258
3.74814 0.273711 2.47791
3.57227 0.850657 0.478734
0.238319 0.0721947 8.3702
3.61783 0.603943 2.48536
0.118957 2.00118 2.43905
4.26751 0.698669 2.13412
8.20989 0.452494 0.703318
POINT_DATA 400
SCALARS particleColor float 3
LOOKUP_TABLE default
0.510587 1 0.489413
0.0347783 1 0.965222
1 5.96046e-08 0
1 0.40976 0
1 0.52455 0
0.730185 1 0.269815
0.390519 1 0.609481
1 5.96046e-08 0
0.437182 1 0.562818
1 5.96046e-08 0
0.680509 1 0.319491
0.14098 1 0.85902
1 5.96046e-08 0
1 0.933039 0
1 0.673072 0
1 5.96046e-08 0
1 0.441653 0
0 0.586682 1
0.41829 1 0.58171
1 0.61459 0
0 0.585759 1
1 5.96046e-08 0
1 5.96046e-08 0
1 5.96046e-08 0
0.440978 1 0.559022
1 5.96046e-08 0
0.434799 1 0.565201
0.0599598 1 0.94004
1 0.784036 0
1 0.56874 0
0.766026 1 0.233974
1 0.579585 0
1 5.96046e-08 0
1 5.96046e-08 0
1 0.524464 0
1 5.96046e-08 0
1 5.96046e-08 0
0 0.30274 1
1 5.96046e-08 0
1 0.0508059 0
0.718704 1 0.281296
1 5.96046e-08 0
1 5.96046e-08 0
1 0.893921 0
0.698633 1 0.301367
1 5.96046e-08 0
1 0.118164 0
1 5.96046e-08 0
0.661488 1 0.338512
1 0.989872 0
1 5.96046e-08 0
1 0.696803 0
1 5.96046e-08 0
1 0.971579 0
1 0.436769 0
0.389777 1 0.610223
0.0481269 1 0.951873
0.00978573 1 0.990214
1 5.96046e-08 0
1 5.96046e-08 0
1 5.96046e-08 0
1 0.476191 0
0 0.943945 1
1 0.937377 0
0.394244 1 0.605756
1 0.00634342 0
1 5.96046e-08 0
1 0.760495 0
1 0.999843 0
0.982102 1 0.0178977
1 0.963391 0
1 0.352338 0
1 5.96046e-08 0
0.377789 1 0.622211
0 0.55091 1
1 5.96046e-08 0
1 5.96046e-08 0
1 5.96046e-08 0
0.852982 1 0.147018
0.608899 1 0.391101
0 0.799951 1
1 5.96046e-08 0
0 0.861099 1
1 5.96046e-08 0
1 0.900912 0
1 0.758641 0
0.9092 1 0.0908001
1 5.96046e-08 0
0.505904 1 0.494096
0.570052 1 0.429948
0 0.507285 1
1 0.665917 0
1 5.96046e-08 0
1 5.96046e-08 0
0 0.947171 1
1 0.915355 0
1 0.144251 0
0.287397 1 0.712603
0.185486 1 0.814514
1 5.96046e-08 0
0 0.786037 1
0.771533 1 0.228467
0.564817 1 0.435183
1 0.851896 0
1 0.553851 0
0.91794 1 0.0820595
1 5.96046e-08 0
0 0.87264 1
1 0.96229 0
1 5.96046e-08 0
1 0.277002 0
0.718944 1 0.281056
0.548953 1 0.451047
1 5.96046e-08 0
0.0546585 1 0.945341
1 0.148039 0
0 0.325014 1
1 5.96046e-08 0
1 0.405589 0
0.690704 1 0.309296
1 5.96046e-08 0
0.499965 1 0.500035
1 0.214734 0
1 5.96046e-08 0
0.0950839 1 0.904916
0.114183 1 0.885817
0.170205 1 0.829795
0.301746 1 0.698254
0 0.552028 1
0.481159 1 0.518841
0 0.908423 1
0.182727 1 0.817273
1 5.96046e-08 0
0.525366 1 0.474634
0.135839 1 0.864161
1 5.96046e-08 0
0 0.812998 1
1 0.457973 0
1 0.879868 0
0 0.490178 1
0 0.409541 1
1 5.96046e-08 0
1 5.96046e-08 0
1 5.96046e-08 0
0 0.166771 1
0.444351 1 0.555649
0.514558 1 0.485442
0.69079 1 0.30921
1 0.524262 0
1 5.96046e-08 0
0 0.158126 1
1 5.96046e-08 0
0.876758 1 0.123242
0 0.554869 1
1 5.96046e-08 0
1 5.96046e-08 0
0.182061 1 0.817939
1 0.806377 0
1 5.96046e-08 0
1 0.439855 0
1 5.96046e-08 0
0 0.769965 1
1 5.96046e-08 0
1 0.779694 0
0.172245 1 0.827755
0.80145 1 0.19855
1 5.96046e-08 0
0.99196 1 0.00803959
1 5.96046e-08 0
0.418576 1 0.581424
0 0.206016 1
1 5.96046e-08 0
0.231446 1 0.768554
1 0.2378 0
0.346331 1 0.653669
1 5.96046e-08 0
1 5.96046e-08 0
1 5.96046e-08 0
1 0.0438165 0
1 0.836143 0
0 0.349403 1
1 5.96046e-08 0
0 0.781553 1
1 5.96046e-08 0
1 0.732431 0
0.304858 1 0.695142
0 0.239971 1
1 5.96046e-08 0
0 0.68397 1
0 0.756489 1
0 0.807048 1
0 0.743809 1
1 5.96046e-08 0
0.902415 1 0.0975849
1 0.774401 0
0.178102 1 0.821898
1 0.516295 0
1 0.538907 0
0.577906 1 0.422094
0 0.65739 1
0 0.576444 1
1 5.96046e-08 0
0.647315 1 0.352685
0 0.69354 1
1 0.667468 0
1 5.96046e-08 0
0.217422 1 0.782578
0 0.887662 1
0 0.581693 1
1 5.96046e-08 0
0 0.556781 1
0 0.351913 1
1 0.119406 0
1 0.631974 0
0 0.990397 1
0 0.743472 1
0 0.524469 1
0.102498 1 0.897502
0 0.888857 1
1 5.96046e-08 0
1 0.851231 0
1 0.803216 0
0.682911 1 0.317089
0 0.693739 1
0.663184 1 0.336816
1 5.96046e-08 0
0 0.685101 1
0 0.599782 1
0 0.730637 1
1 5.96046e-08 0
0.690193 1 0.309807
0.571267 1 0.428733
1 5.96046e-08 0
0 0.359115 1
0 0.630238 1
0.311665 1 0.688335
1 0.80752 0
0.163747 1 0.836254
0 0.693462 1
0.0160495 1 0.98395
0 0.116872 1
0 0.437557 1
1 5.96046e-08 0
0.0566198 1 0.94338
1 0.198955 0
0.829816 1 0.170184
0.33254 1 0.66746
1 0.271549 0
1 5.96046e-08 0
1 0.320262 0
0 0.6699 1
1 0.222394 0
1 5.96046e-08 0
0.694471 1 0.305529
1 0.923674 0
0 0.639351 1
1 0.547941 0
0 0.219987 1
1 5.96046e-08 0
0 0.587214 1
0 0.502644 1
0.684394 1 0.315606
0 0.611029 1
0.763503 1 0.236497
0 0.512717 1
1 5.96046e-08 0
0.601766 1 0.398234
0 0.730042 1
0.565864 1 0.434136
0 0.92897 1
0 0.852262 1
1 5.96046e-08 0
1 5.96046e-08 0
1 5.96046e-08 0
0 0.763077 1
1 0.225027 0
0 0.841894 1
1 5.96046e-08 0
1 0.925321 0
0 0.241363 1
0.0326587 1 0.967341
0 0.429124 1
1 5.96046e-08 0
0.672009 1 0.327991
1 0.751682 0
1 0.187636 0
0 0.160231 1
0.111939 1 0.888061
1 0.00708675 0
1 0.0541858 0
0.373632 1 0.626369
1 5.96046e-08 0
0 0.165863 1
1 0.362395 0
0.189456 1 0.810544
0 0.772451 1
0 0.755138 1
0 0.365931 1
0.0341546 1 0.965845
0 0.404926 1
1 5.96046e-08 0
0.00105708 1 0.998943
0 0.705707 1
0.422481 1 0.577519
0 0.687695 1
1 5.96046e-08 0
0 0.549298 1
0 0.656699 1
1 0.467212 0
0.124481 1 0.875519
1 5.96046e-08 0
1 0.347279 0
0 0.973156 1
0 0.55977 1
1 0.718757 0
1 0.967447 0
0 0.8157 1
1 5.96046e-08 0
1 5.96046e-08 0
0.91399 1 0.0860104
0 0.527812 1
0 0.984795 1
0 0.532797 1
0 0.500653 1
0.397893 1 0.602108
0.944566 1 0.0554336
0 0.750603 1
1 0.610236 0
1 0.750605 0
0 0.277567 1
1 5.96046e-08 0
0 0.79582 1
0 0.895609 1
0 0.977575 1
0 0.387796 1
1 0.274057 0
0.661723 1 0.338277
0 0.462079 1
0.517969 1 0.482031
1 5.96046e-08 0
1 0.260911 0
0.313706 1 0.686294
0.0642543 1 0.935746
0 0.669809 1
0 0.615533 1
0.328114 1 0.671886
0 0.743233 1
0 0.181441 1
0 0.329845 1
0.524334 1 0.475666
0 0.350993 1
0 0.534481 1
0 0.617912 1
1 5.96046e-08 0
0 0.724571 1
0.0723482 1 0.927652
0 0.724007 1
0.210246 1 0.789754
0.12925 1 0.87075
0 0.679881 1
0 0.28852 1
0 0.3171 1
0 0.674806 1
0 0.830684 1
0 0.252447 1
0 0.957639 1
0.298198 1 0.701802
1 0.927541 0
0 0.457988 1
1 5.96046e-08 0
0 0.829628 1
0.402256 1 0.597744
0.886922 1 0.113078
0 0.399398 1
0.0457009 1 0.954299
0 0.670728 1
0 0.80392 1
0.033654 1 0.966346
0.0269524 1 0.973048
0 0.627592 1
0 0.464367 1
0 0.328758 1
0 0.256697 1
0 0.421747 1
0 0.999942 1
0 0.650673 1
0 0.760061 1
0 0.256777 1
1 0.809995 0
0.539667 1 0.460333
0 0.834354 1
0 0.955634 1
0 0.950693 1
0 0.748871 1
0 0.390367 1
0 0.598114 1
0 0.752807 1
1 0.839727 0
1 0.255037 0
0 0.896739 1
