# vtk DataFile Version 3.0
Particle simulation
ASCII
DATASET POLYDATA
POINTS 400 float
0.486616 0.870138 9.31616
5.46567 2.21216 7.61205
5.45775 3.77678 1.90245
0.284266 9.19627 7.42587
2.38961 3.63803 0.263897
4.11006 2.69978 0.761881
9.17787 3.76238 2.03357
7.64704 6.60987 0.787232
4.24153 4.06068 1.42023
4.49295 2.84963 1.07965
7.59109 1.40874 5.77309
1.71841 4.89625 4.49191
7.56861 3.29981 0.277455
4.58963 7.46076 6.80524
8.64114 4.4207 7.81029
8.39624 1.32794 4.08407
4.4097 1.23347 5.12283
3.38593 0.268011 0.481123
4.62707 1.8453 7.12332
8.53414 0.704356 8.38844
3.40746 0.224559 0.502959
5.3229 8.60658 5.59413
5.96543 5.05111 1.41212
0.454237 4.38639 10
4.729 4.72812 6.67128
2.18511 2.10024 4.00497
1.93303 5.69613 5.21837
5.23041 0.00175254 1.14218
0.137819 8.20362 1.57023
1.3486 8.47581 9.69315
1.09069 2.26595 0.293733
0.0552092 6.36325 8.57817
9.3824 9.18641 1.09676
8.08063 1.61179 6.09508
4.22663 0.893178 0.998267
8.5887 8.14728 0.457008
2.08354 7.97613 4.67633
3.4142 0.391809 0.273468
9.46902 1.25218 4.48729
2.91703 2.06644 1.36233
1.00033 5.82214 8.97421
4.50566 0.634117 4.04281
1.59179 9.13794 4.81405
4.61128 7.49963 9.82187
6.98847 0.350403 1.9701
4.46393 1.21379 1.20153
6.71825 4.79211 9.4247
8.56043 0.0816906 5.79506
6.32392 0.163448 2.0128
2.73125 1.59692 9.05166
2.54685 9.38179 5.95934
1.21727 5.18712 7.34263
9.8536 3.14422 0.44064
1.38592 8.89978 9.49654
2.93831 0.212411 5.57424
6.17335 0.422542 1.03238
7.73636 7.13158 9.45052
5.87281 1.92259 2.2757
4.51645 3.35074 4.4981
8.89492 0.404094 9.87343
0.260857 4.95765 8.6568
9.87411 1.03343 2.87974
2.28657 5.91616 2.79366
0.816936 0.27276 8.49143
1.05489 7.15014 9.02096
3.56208 0.0961669 6.99206
2.56468 2.24926 7.02773
5.65051 2.89609 9.57959
8.43667 6.1387 9.53549
4.61786 4.70888 2.59942
4.15255 1.55085 9.00811
5.4525 2.24363 1.87168
5.49 6.50583 4.48092
0.447291 4.5969 1.87612
5.21568 7.01537 7.64357
0.318437 6.13299 0.84272
2.89954 2.22733 4.71982
8.44245 4.58422 7.83851
8.06161 1.51843 3.67651
7.55616 6.80955 5.17845
3.30386 0.614377 0.653116
7.7775 0.267308 7.44058
3.32772 1.63876 2.86155
3.58593 0.292657 0.695586
8.45311 1.56392 9.84353
1.11171 1.33247 8.51307
8.02435 9.33243 8.40411
8.8605 6.3475 8.60017
1.32716 0.705151 6.70076
6.19961 2.81178 0.950124
3.5011 0.242604 0.789987
5.27938 3.92059 0.188108
0.511698 4.53562 4.63984
3.44203 0.0229549 7.02366
1.13295 0.70719 7.76256
1.23425 9.25498 3.9477
7.76922 0.502269 7.29882
6.06861 0.0964035 7.37059
4.66423 3.63046 8.72917
8.61459 1.51248 0.537507
3.15187 0.34995 0.39479
3.45903 6.32504 4.11445
0.112994 1.82605 7.72527
2.49225 0.162563 3.29736
7.1811 1.60781 9.6665
1.82456 5.14299 2.1073
0 1.98195 8.55744
5.86046 0.204748 1.17534
9.33675 0.165803 3.42446
3.64163 3.58161 0.738717
2.10357 0.494915 3.7747
2.7425 2.12541 9.84249
5.55214 0 4.85743
4.7046 0.433681 0.114764
3.76614 0.101092 0.56385
1.36542 2.28639 6.19698
4.6958 0.452215 8.17097
7.06867 4.92895 7.38154
9.81149 3.71395 1.70131
0.12823 7.30331 3.64582
2.85279 0.814944 0.913589
9.54564 1.54252 1.77024
8.3239 0.155956 9.53699
4.36752 1.20834 7.43122
0.286097 9.21591 3.1444
3.30766 0.465069 0.796214
1.02715 0.0864931 7.49294
0.58415 0.213547 8.36049
1.92993 2.17146 6.20561
3.02495 5.07514 6.14813
3.64205 0.249976 10
4.80254 3.60706 8.58067
5.36493 2.95506 2.21604
8.43411 0.445022 1.69623
3.83416 0.588695 7.42509
1.86593 1.34694 3.04277
0.335661 0.636575 1.43859
1.03278 1.36447 8.64751
7.38343 7.4982 3.33127
5.00816 0 8.00823
3.16782 0.099545 0.804949
5.92616 9.42532 1.43095
2.17486 8.01945 8.37698
4.16882 3.35645 5.44513
3.03399 0.427785 0.393306
8.31923 2.49794 7.22294
7.72601 0.390113 2.25143
0.822582 8.42517 1.52714
5.38216 1.77894 1.80897
6.20664 1.94185 9.75092
3.16967 0.153055 0.798676
4.02767 1.76663 5.88781
0.7627 0.803726 8.22126
3.33971 0.237029 0.520612
2.94786 5.40029 6.66654
5.17286 0.794475 1.0994
7.11867 1.30561 0.120613
6.30907 0.70108 0.543883
2.03888 0.159638 7.71278
6.12432 2.54477 3.85025
6.47453 3.0829 0.918089
8.62221 0.437009 7.93602
4.16554 1.99706 7.30235
4.4475 6.20716 3.46793
7.48167 1.95194 2.73657
8.98563 8.86391 8.57718
10 0.150029 2.40571
9.18416 0.503755 8.67547
8.48109 7.20184 7.63166
0.830637 0.413826 7.40937
3.16611 0.293549 0.530616
8.65025 4.34603 1.86475
9.77005 3.15007 2.97716
1.95946 5.11739 2.09179
2.12782 0.204238 6.92001
0.726177 6.6081 1.95249
1.58193 1.06089 6.1669
1.07357 0.797804 4.71729
0.663223 0.182079 9.42795
7.83464 9.3495 8.87672
3.48941 0.396817 0.502808
0.166798 7.48078 2.29233
3.46642 1.73516 8.42931
8.33695 1.29281 0.393933
5.42481 0.229836 7.36497
7.65443 1.12463 3.44568
3.19805 0.302405 0.362482
0 3.90106 3.97612
8.09983 0.213574 2.56064
3.24388 0.414053 1.1653
3.06184 0.208539 0.875033
3.04827 0.0556086 0.229673
3.26071 5.92716 3.61857
0.281028 1.44636 0.047592
9.75438 0.290393 4.77008
3.11461 0.578529 0.956101
2.61505 1.2802 5.08658
7.87104 4.68937 6.58057
3.53655 0.259297 0.574782
3.09392 0.603687 1.00436
3.26304 0.225411 0.566707
5.61654 0.711081 1.3067
8.06195 0.635095 2.4319
1.32554 0.920581 6.18718
9.23857 9.04326 0.917455
4.25435 0.231647 8.21555
3.3149 0.580137 0.713573
2.69295 5.36367 1.45525
3.11319 2.24961 1.56941
7.10932 1.78781 0.0530621
3.02466 0.300614 0.650986
2.86243 0.498313 1.15305
0 1.91314 7.76669
8.25203 1.2027 6.72415
8.33795 1.22499 8.27599
5.18095 0.285924 7.73176
3.41826 0 0.937218
3.55467 0.134302 1.08068
7.0669 7.49321 3.57963
4.51374 0.159276 0.566151
4.88159 8.11632 2.12701
7.4474 5.06609 4.66212
4.1123 0.390155 8.59873
2.95204 0.775805 0.917488
7.31186 0.923182 6.74124
3.93996 0.276071 1.43226
6.88958 3.17256 0.994042
3.04598 0.143173 0.0685077
3.30466 0 0.482213
9.65551 3.07384 0.695567
6.66442 2.62036 6.48115
5.77023 0.24218 8.00107
7.88159 0.0526909 2.08244
2.96919 0.551816 1.03512
4.46881 0.148433 8.08721
1.33649 1.61129 2.89658
6.82741 5.83453 9.94086
2.83244 1.03732 5.20023
3.08359 0.380041 0.114468
5.09593 3.70573 0
3.14065 0.657917 0.563228
2.56535 0.227329 0.347624
3.75007 0.0509258 1.1642
3.64972 0.535602 0.76252
5.08456 0.174569 7.70134
1.78613 5.58578 2.17654
0.713637 0.40192 5.32768
2.1818 0.389415 6.76457
1.20223 5.69267 2.26749
9.84868 0.579793 8.3769
3.31567 0.0819396 0.610506
1.27753 8.37439 5.83619
4.40861 0.237107 7.74406
4.55069 0.368981 4.02055
7.66264 0.484563 2.01339
3.10572 0.191569 0.696866
5.95018 1.69718 7.58315
4.63446 0.288332 8.63067
3.54445 3.01499 4.97283
4.36136 0.41505 7.95953
3.54923 0.436641 1.19093
9.86725 5.13263 0.398465
1.25929 0.941127 6.19471
5.4124 0.745841 5.27399
5.19747 0.388007 8.03922
0.622437 6.64044 6.87839
6.2725 0.30105 1.32355
4.46754 0.180598 7.81484
7.99432 0.689031 2.44755
3.41335 0.123041 1.26504
3.33463 0.500465 0.374326
8.19583 2.36298 0.0200318
6.99062 0.590994 1.89747
2.44217 2.21089 4.90757
6.20516 1.23015 7.57233
4.81425 0.490052 8.04955
3.14224 2.17771 4.90195
9.79652 9.76116 2.18543
2.96683 2.25709 1.05581
3.18118 0.253191 0.768628
6.25896 0.320009 1.81042
5.7691 0.214415 1.09436
8.07563 1.00187 1.18852
1.49471 0.953192 6.56519
8.82665 2.46956 9.71425
9.01055 0.461209 0.246935
3.32376 0.492807 0.525601
7.83812 0.813653 7.33975
5.65478 1.64688 7.48938
0.660557 2.89913 2.2482
4.45147 0.383343 7.36369
6.12938 0.382089 1.58114
2.99155 0.158927 0.162998
0.425403 0.206303 8.49294
4.72679 0.0936637 8.40196
4.53438 0.174097 8.68487
3.0219 0.378813 0.670732
3.00172 0.217505 0.333566
8.08085 2.47676 7.14078
2.99634 0.249015 0.874051
0.96015 1.54383 1.16978
1.79262 0.333368 6.37402
4.62277 0.112724 4.86661
0.158604 1.91034 7.42851
3.38143 0.442266 0.339287
0.955951 0.320658 8.4385
2.97764 0.349079 0.59798
3.24052 0.582553 0.773239
1.94747 0.521393 7.82623
2.74932 2.23611 4.62498
4.414 0.336952 8.17197
3.92289 1.88379 5.5841
7.95667 0.612358 2.50049
3.01329 0 0.692795
8.28287 2.101 7.26313
0.357474 0.417682 8.8042
9.92654 0.740286 2.76579
3.86575 3.33699 4.93426
5.2265 2.11241 7.07927
5.62797 2.17432 1.74572
4.47001 0.545046 8.61585
0.625582 0.490343 5.6488
4.816 0.537207 8.41911
2.40315 0.711453 0.676425
6.219 0.286718 1.99128
8.33956 1.71193 0.647946
3.35367 0.434442 0.869688
5.93744 0.123608 1.23803
1.4315 5.63395 2.22462
3.49992 0.552501 1.2996
9.75668 3.87331 3.00526
3.12204 0.14576 0.338663
4.41062 0.384618 8.46211
2.67971 0.0875972 0.505674
6.03336 0.269904 1.25171
6.20195 8.30438 6.47471
3.4286 2.91944 5.01816
2.95493 0.613903 0.830834
9.46901 0.0751731 8.22894
3.20654 0.299886 6.94397
4.02662 0.503193 8.08511
3.27925 0.39407 6.99666
4.32261 0.0208695 8.52517
4.56311 0.509483 8.17048
3.34171 0.464203 0.749988
3.43873 0.46005 0.793878
5.58677 0.473574 1.20826
2.9732 0.480528 0.859243
3.21439 0.469986 0.0290938
2.88312 0.523391 6.88671
4.1725 0.0853018 0.74806
3.10589 0.132883 0.844845
6.31924 2.09386 7.70532
4.54899 0.349606 8.38416
3.31793 0.599391 0.612819
3.31673 0.470734 0.615608
6.37782 0.028561 1.14574
4.21392 0.482069 8.50982
3.26685 0.320858 0.76748
3.23835 0.392378 0.732778
5.9661 0.158204 0.825113
4.96737 0.610692 8.06221
4.94779 0.655058 8.40241
3.47448 0.213836 0.561238
3.2603 0.0632873 0.57376
7.8046 0.348016 1.95731
5.28671 0.50978 8.14725
7.67664 1.04894 6.53555
4.38797 0.244181 8.34577
8.21036 1.30961 0.644219
5.94855 0.142468 0.893909
4.03876 1.75962 5.91104
4.60199 0.162599 8.22521
3.27648 0.106576 1.31204
3.728 0.462022 0.609585
7.57718 0.546487 2.28797
4.76189 0.517781 8.03623
4.50357 0.709288 8.82919
5.13496 0.204444 8.06717
3.27929 0.147622 0.580853
3.5291 0.428131 1.28838
3.42433 0.277135 0.540727
5.35599 0.536473 7.98284
3.08581 0.181619 0.372687
0.482083 0.0824348 8.71448
4.5019 0.35003 8.37081
3.06692 0.305658 1.09193
3.04558 0.0740251 0.417744
1.66467 6.21302 8.08366
5.74701 0.693328 1.05854
3.65098 0.166981 1.04284
3.33744 0.198025 0.519764
4.68832 0.324319 8.07343
3.51582 0.35801 0.943174
0.476761 0.543684 8.61534
4.64864 0.272833 8.41964
3.04129 0.29173 1.05399
2.25172 0.288818 7.10124
5.73935 0.385557 1.22031
5.73835 0.682224 1.07049
POINT_DATA 400
SCALARS particleColor float 3
LOOKUP_TABLE default
0 0.56114 1
0.674523 1 0.325477
0.777878 1 0.222122
0.697602 1 0.302398
1 0.893457 0
1 5.96046e-08 0
1 5.96046e-08 0
0.0714565 1 0.928544
0 0.948956 1
1 0.197742 0
0.339585 1 0.660415
0.748374 1 0.251626
0.777277 1 0.222723
0.563437 1 0.436563
1 0.786235 0
1 0.063127 0
0.485048 1 0.514952
0 0.493083 1
0 0.896153 1
0.148456 1 0.851544
0 0.505039 1
0.707122 1 0.292878
1 0.297974 0
1 0.797978 0
0.516198 1 0.483802
1 0.827869 0
0.319643 1 0.680357
0.267471 1 0.732529
1 0.186498 0
0.191886 1 0.808114
0 0.965175 1
0.592486 1 0.407514
1 0.365178 0
0.657365 1 0.342635
0.896528 1 0.103472
1 5.96046e-08 0
1 5.96046e-08 0
0 0.304487 1
0 0.530201 1
0.6503 1 0.3497
1 5.96046e-08 0
0.895901 1 0.104099
0.947922 1 0.052078
0.911472 1 0.0885283
0 0.568372 1
0 0.563317 1
0 0.63445 1
0 0.929003 1
0 0.279292 1
1 0.986166 0
0 0.847946 1
0.500694 1 0.499306
0 0.759839 1
1 0.163783 0
0 0.933359 1
0 0.53106 1
0.573637 1 0.426363
0.415006 1 0.584994
0 0.44387 1
0.980561 1 0.0194389
0 0.321264 1
0.118058 1 0.881942
0.746842 1 0.253158
0 0.40343 1
0.785811 1 0.214189
1 0.579484 0
0.822324 1 0.177676
0.427839 1 0.572161
0.0411336 1 0.958866
0.0471599 1 0.95284
0 0.980391 1
0 0.435438 1
0.924494 1 0.0755059
1 5.96046e-08 0
0.187481 1 0.812519
1 5.96046e-08 0
0 0.600568 1
0 0.838766 1
0 0.961299 1
0.465198 1 0.534802
0 0.734729 1
0 0.697424 1
0.914626 1 0.0853741
0 0.801959 1
0.647173 1 0.352827
0.184983 1 0.815017
0.470982 1 0.529018
1 5.96046e-08 0
0.0681944 1 0.931806
0 0.882554 1
0 0.91187 1
1 5.96046e-08 0
0.350214 1 0.649786
0 0.910012 1
0 0.817345 1
1 0.261101 0
1 0.0739785 0
0.0379449 1 0.962055
1 0.755356 0
0 0.601457 1
0 0.447835 1
1 5.96046e-08 0
0 0.694517 1
1 0.441054 0
0.00013691 1 0.999863
0 0.887709 1
0.0531552 1 0.946845
0 0.707518 1
1 5.96046e-08 0
0.789542 1 0.210458
0 0.958627 1
1 0.802003 0
0.906025 1 0.0939748
0 0.936424 1
0 0.477221 1
0 0.610746 1
0 0.564985 1
1 0.856727 0
0.940789 1 0.0592114
1 0.794397 0
0 0.609996 1
0.459529 1 0.540471
0.805184 1 0.194816
1 0.814322 0
0.260019 1 0.739981
0 0.703823 1
1 0.707586 0
0 0.591979 1
0.601551 1 0.398449
1 0.574248 0
1 5.96046e-08 0
0.741045 1 0.258955
0.311945 1 0.688055
0.274258 1 0.725742
0 0.524659 1
0 0.608172 1
0.525926 1 0.474074
0 0.685038 1
1 5.96046e-08 0
0 0.222563 1
0 0.611884 1
0.599311 1 0.400689
1 0.917981 0
1 0.816403 0
0 0.573267 1
0 0.642379 1
0 0.435233 1
1 0.927227 0
0 0.576766 1
0.518259 1 0.481741
0 0.679272 1
0 0.636138 1
0 0.531187 1
0.580444 1 0.419556
0.127975 1 0.872025
0 0.677433 1
0.430002 1 0.569998
0 0.595981 1
1 0.847882 0
0 0.963181 1
0.395005 1 0.604995
0.693862 1 0.306138
0.0675302 1 0.93247
1 0.740073 0
1 0.544709 0
1 0.976502 0
1 5.96046e-08 0
0.508441 1 0.491559
1 0.499435 0
0.224952 1 0.775048
0 0.879746 1
0.425083 1 0.574917
0.623646 1 0.376354
0 0.763509 1
0.027934 1 0.972066
1 0.826158 0
0 0.617743 1
1 0.860765 0
0 0.947667 1
0.273141 1 0.726859
0 0.60504 1
0.491188 1 0.508812
1 0.822905 0
0 0.916928 1
0 0.213606 1
0.466578 1 0.533422
0 0.729571 1
1 5.96046e-08 0
0 0.743658 1
0 0.545077 1
0 0.470861 1
0 0.447579 1
0.949614 1 0.050386
0 0.413678 1
1 0.449896 0
0 0.437694 1
0.0633686 1 0.936631
1 0.816986 0
0 0.401191 1
0 0.638785 1
0 0.667377 1
0 0.500132 1
0.374984 1 0.625016
0 0.578501 1
1 0.169963 0
0 0.296195 1
0 0.659586 1
0.668395 1 0.331605
0 0.573597 1
0 0.717223 1
0 0.409138 1
0 0.334822 1
1 5.96046e-08 0
0 0.968881 1
1 0.0627641 0
0 0.233047 1
0 0.520706 1
0 0.607884 1
1 0.0451171 0
0.588478 1 0.411522
1 0.863843 0
0.181106 1 0.818894
0 0.491697 1
0 0.472505 1
0 0.196307 1
0.0420914 1 0.957909
0.292388 1 0.707612
0 0.584951 1
0 0.566139 1
0 0.826295 1
0.214924 1 0.785076
0 0.321426 1
0 0.33832 1
0 0.93949 1
0 0.420403 1
0.0281871 1 0.971813
1 5.96046e-08 0
0 0.867557 1
0 0.623843 1
1 5.96046e-08 0
0 0.451572 1
0 0.479461 1
0 0.317972 1
0 0.478314 1
0 0.503108 1
0.0311954 1 0.968805
0 0.581583 1
0 0.992477 1
0.218141 1 0.781859
0.759699 1 0.240301
0 0.780754 1
0 0.621311 1
0 0.239308 1
0 0.885161 1
0.125297 1 0.874703
0 0.778894 1
0.0383367 1 0.961663
0 0.535061 1
0.00867311 1 0.991327
0 0.19114 1
0 0.32965 1
1 0.39808 0
0 0.401667 1
0.698186 1 0.301814
0 0.793021 1
0.908634 1 0.091366
0.0900519 1 0.909948
0 0.828299 1
0.0231518 1 0.976848
0 0.659054 1
0 0.787471 1
0.402422 1 0.597578
1 0.57928 0
0.160169 1 0.839831
0 0.902309 1
0 0.965812 1
0 0.285937 1
0 0.949925 1
0 0.69005 1
0 0.415967 1
0 0.907799 1
0 0.407056 1
0.46309 1 0.53691
0 0.720736 1
0.390177 1 0.609823
0.525747 1 0.474253
0 0.855171 1
0 0.606394 1
0.103992 1 0.896008
1 0.391767 0
1 5.96046e-08 0
0 0.911551 1
0 0.940507 1
0 0.570734 1
0 0.628492 1
0 0.620397 1
0 0.705228 1
0 0.605177 1
0 0.836452 1
0 0.714458 1
0 0.675076 1
0 0.333096 1
0.0910153 1 0.908985
1 0.530562 0
0 0.646232 1
0 0.463502 1
0.256078 1 0.743922
0 0.591676 1
0.585054 1 0.414946
0 0.528001 1
0.0974046 1 0.902595
0 0.803774 1
0 0.808615 1
0 0.707889 1
0 0.888804 1
0 0.373493 1
0 0.57083 1
0 0.187469 1
0 0.743067 1
0.045602 1 0.954398
0 0.538781 1
0 0.280915 1
0 0.53264 1
0 0.638157 1
0 0.351917 1
0 0.599281 1
0 0.592257 1
0 0.713722 1
0.595158 1 0.404842
0 0.491996 1
1 0.841951 0
0 0.743748 1
0 0.400415 1
0 0.601598 1
0 0.585305 1
0.815314 1 0.184686
0 0.961327 1
0 0.244518 1
0 0.856556 1
0 0.925121 1
0 0.634777 1
0 0.677477 1
0 0.354656 1
0 0.356475 1
0 0.646414 1
0 0.56781 1
0 0.31371 1
0 0.19907 1
0.0650634 1 0.934937
0 0.385414 1
0 0.290092 1
0 0.613419 1
0 0.412001 1
0 0.723157 1
0.0959777 1 0.904022
0.112741 1 0.887259
0 0.548908 1
0 0.899599 1
0.319439 1 0.680561
0 0.622828 1
0 0.406885 1
0 0.4071 1
0 0.493567 1
0 0.483139 1
0.201281 1 0.798719
0 0.660275 1
0 0.706252 1
0.185704 1 0.814296
0.0586236 1 0.941376
0 0.318977 1
0 0.131499 1
0 0.55871 1
0 0.816437 1
0 0.419945 1
0 0.519171 1
0 0.643282 1
0 0.545698 1
0 0.361617 1
0 0.838005 1
0 0.525617 1
0 0.366206 1
0 0.637689 1
0 0.792696 1
0 0.97375 1
0 0.551377 1
0 0.502657 1
0 0.626008 1
0 0.407948 1
1 0.444337 0
0 0.581415 1
0 0.384169 1
0 0.40512 1
0.229524 1 0.770476
0 0.290874 1
0 0.764628 1
0 0.763384 1
0 0.482016 1
0 0.431856 1
0.29356 1 0.70644
0 0.633552 1
