# vtk DataFile Version 3.0
Particle simulation
ASCII
DATASET POLYDATA
POINTS 400 float
7.22292 5.39801 1.98224
9.80615 7.17504 0.481134
7.43381 6.6168 7.52439
1.11334 1.45115 9.60508
1.13636 2.17779 2.97949
4.29837 7.32892 9.9649
5.71439 4.02813 5.99273
8.97738 9.67154 3.51575
1.25936 2.30542 3.36615
7.21593 0.0405186 7.78038
8.40872 1.64136 8.82627
4.17489 8.73353 7.22998
3.98592 9.394 4.73849
8.40248 9.76088 0.0569639
9.29172 1.86356 3.4285
7.89513 3.109 3.22943
5.91666 8.15195 4.56208
2.27663 4.12271 5.31995
8.11685 8.52388 3.79207
1.40283 0.969671 2.95975
5.62714 3.32595 3.92452
4.39933 7.08573 0
0.333283 6.34174 7.19325
9.24703 2.60453 3.05927
8.09409 9.47735 1.40103
1.54279 1.94786 10
6.61376 3.40192 10
4.6034 8.52985 0.155976
7.38577 1.65984 7.05911
7.04073 9.47158 7.52881
1.45205 5.26162 3.32801
2.89183 9.35795 3.55925
5.54182 6.41703 6.12404
8.60503 8.17689 9.26427
6.76416 3.70235 8.04859
10 3.11313 8.9213
4.89398 9.41045 2.6988
5.20857 0.215402 5.64567
0.437248 1.84998 5.54312
6.83502 0 0
4.98136 5.60808 0.659512
5.40029 5.67626 5.64616
8.38952 1.81338 9.07109
3.0267 4.23565 9.25575
6.53641 7.25782 6.71333
6.74506 4.53673 9.00084
5.40803 3.62097 1.55976
8.66882 2.66042 2.48442
1.26715 6.53754 5.85641
8.15512 9.34309 3.13066
1.26373 8.46695 2.29725
6.45116 3.08519 2.25761
3.67071 4.92744 3.97078
7.33569 8.5977 2.80936
9.21132 8.90612 4.22618
6.82258 5.38209 3.43165
6.42259 6.22546 0.332558
1.29509 5.31759 6.61958
0.829223 2.69823 9.38072
8.26629 5.99975 0.747084
1.6504 1.67135 9.84727
1.09831 8.61276 3.91671
6.59877 4.89184 5.68722
6.45906 6.54582 1.6928
0.862095 7.54662 9.96734
1.05321 0.892876 2.91749
3.75889 8.87399 6.84368
5.38367 0.188793 2.66133
6.17655 0.41746 1.93771
7.43094 1.6353 9.5181
5.74921 0.502917 0.737241
8.27592 9.13501 8.06783
10 6.78206 8.10409
5.07959 8.33644 3.66528
6.0865 8.83816 8.18967
4.91588 10 1.11209
0.99497 2.96082 6.54436
2.52216 4.34152 5.59121
1.62582 3.51093 0.733926
9.60867 0.189867 8.35506
3.76152 2.37952 5.95185
9.44578 4.4579 2.82857
8.27154 1.19376 5.59103
0 0 9.39836
1.11917 4.41029 6.11804
9.81444 1.6995 1.97579
2.14888 9.59678 8.1687
0.430824 7.36185 0.2182
2.94593 2.67807 3.33294
9.11569 1.12172 9.19791
9.79917 6.94284 1.38541
7.91582 2.75818 9.40758
5.66485 7.20228 7.9303
0.96863 4.14451 7.81623
9.91372 1.45593 8.15358
5.8744 7.61614 7.86403
1.12025 6.42743 2.25496
1.1412 1.89312 1.87272
9.07018 3.05457 3.35721
7.097 5.48142 7.87694
8.98124 5.93736 7.12471
8.05673 4.63683 9.89399
9.00597 8.61921 7.88881
4.53253 0.849546 8.42075
6.56935 0.350997 7.74319
5.09736 7.54448 7.40963
3.93891 4.82708 4.98129
0.715818 5.11682 2.92067
2.92454 2.14683 2.30177
1.18289 8.57056 4.65834
4.00811 8.57577 8.52403
0.405939 7.91826 5.06549
8.70365 5.07956 6.74739
5.44851 3.46727 1.95278
7.64055 2.36818 5.97726
8.13269 2.02071 7.80319
0.817212 7.4041 0.594804
3.50308 3.56667 2.20803
4.47963 3.42415 4.55555
9.84541 0.0990907 1.16277
9.48085 9.51418 1.3748
7.37496 0.147295 2.17255
3.58354 4.95856 9.36955
3.68411 7.71446 9.83227
5.98873 8.83547 0.810483
5.54897 7.88399 7.16203
7.59011 0.698789 6.98399
2.62419 4.31143 7.7714
4.12818 1.10099 4.38013
5.16442 0.967959 8.15771
6.99078 3.54705 4.01632
9.59966 9.38575 6.08028
2.18026 3.68615 5.82152
5.59834 0.458197 1.96845
0.971848 9.34122 8.25493
8.20497 2.70573 9.16904
1.27266 4.95074 4.31914
6.65222 5.7059 6.99515
6.87629 0.280027 1.31563
6.38792 5.973 0.957696
3.91797 5.82604 2.95504
8.66821 1.94639 7.25203
7.86023 5.59104 0.555968
6.51468 5.83888 8.55376
9.55555 0.286195 0
0.716563 9.05232 6.02288
0.27224 9.23461 2.6674
6.11472 2.24991 8.50502
6.59665 1.52547 8.4796
5.59298 0.189275 6.9891
6.84551 0 7.55415
9.29423 2.11925 4.57062
5.64933 5.89894 6.27152
1.86472 9.99957 5.5637
0.555472 6.75722 9.574
1.13432 3.10372 1.00834
2.85308 6.41358 5.87403
6.64375 7.29363 8.89845
0.236736 6.46904 4.34842
8.05024 3.1202 6.12232
0.93282 5.00579 6.39552
8.4744 1.28709 9.76552
6.28052 8.67358 8.02202
9.8505 0.724853 8.29542
3.01969 6.50336 6.03351
8.09307 5.0291 9.33282
8.63059 7.58109 4.95484
5.27866 6.64546 6.48046
0.0652337 7.72503 2.85995
2.39707 8.54901 3.10755
7.23716 4.20547 7.32167
7.37623 0 8.03505
8.01893 4.11182 0.923874
6.54024 8.56417 1.62859
8.34372 6.92237 6.80999
6.13357 9.8945 5.94701
2.70253 7.47864 9.69582
1.93428 2.9686 0.164924
9.41115 6.06906 1.26445
8.68251 2.55165 5.6587
6.42851 1.0639 8.00033
8.57515 0 8.57506
3.7681 2.80529 8.4971
1.71894 1.92007 7.4598
7.07342 9.50427 3.04299
2.00564 3.85753 8.42345
8.06624 7.53245 9.17397
0 5.56455 3.03987
8.24703 7.88749 8.1184
6.95926 9.67829 0.614022
0.738165 6.62288 2.77236
8.70248 0.896608 1.15214
0.775663 7.30837 7.30711
9.15883 7.53489 4.72575
8.83078 4.08682 7.13067
1.61922 3.49341 8.85908
3.73063 9.19063 7.95279
6.80208 3.70176 2.0282
3.99555 4.28982 5.10665
2.65134 0.687221 5.69369
2.70401 6.28523 8.16907
0.340113 5.70301 1.83269
3.27467 7.34676 2.72945
5.36587 8.87408 6.51123
0.294239 1.82018 3.61447
6.78506 5.35899 0.982499
1.54518 2.35696 2.46109
5.97731 2.90895 8.34944
8.90748 3.72924 8.63261
7.69491 2.31947 4.51881
0.634074 1.38994 9.94042
0.162061 9.68697 9.36646
3.74494 9.06171 9.65077
8.61557 3.7067 4.04228
5.90082 4.08572 1.61209
1.05428 8.24137 6.94144
2.82323 6.57101 1.45444
5.65343 5.41563 3.56332
6.57897 1.86707 9.88613
3.80706 3.88658 0.21896
1.66981 4.49929 9.3
0.287233 4.39375 6.92061
7.1265 3.0335 2.8009
6.84527 7.95122 10
5.42571 8.73787 0
6.58275 3.71352 5.59267
0.11774 6.81928 8.45169
2.27492 5.58283 9.06221
6.81266 0.426419 7.81876
7.92397 9.94161 7.45655
7.21852 1.75221 4.55291
9.41339 5.54632 1.66134
5.67822 8.39515 9.43574
1.08539 9.47546 3.76745
8.79345 3.36568 1.8128
3.42825 2.89238 0.673962
6.19954 4.51361 7.47582
5.6476 0.740034 0
1.05064 8.3944 9.49771
0.284485 6.98438 8.91147
6.66813 0.316079 7.76796
8.57522 4.00224 0.313226
1.61622 6.84945 6.00663
7.23709 5.11306 1.46239
9.13712 8.46908 4.71294
6.42767 0.623969 2.96302
8.12434 0.553087 6.67539
1.46153 5.51726 9.02845
1.01081 6.0703 9.18393
1.37687 3.20489 0.504515
7.28552 0.97154 10
4.14127 0.443463 1.8344
1.36848 1.24976 1.15258
8.70135 6.09203 2.17142
5.03991 0.252817 8.80162
0.42542 6.14871 4.91781
2.80077 1.61578 4.87484
9.12942 1.9015 6.84578
9.27988 2.72359 2.95152
7.17825 2.09885 3.91355
7.25319 6.51274 6.72835
4.53499 6.70103 2.71205
0.926441 1.32522 8.85976
9.59056 8.89954 6.96366
9.82686 5.63869 9.21557
0.761261 1.42294 4.86891
6.4392 9.36786 6.78186
1.18682 0.975222 0.306377
2.36892 1.25368 2.14307
1.34967 4.63231 0.908326
4.09327 1.47585 7.0463
2.98023 4.30694 8.90734
0.971107 1.08551 9.40367
2.1037 0.165217 8.98659
3.54694 8.20412 3.09999
6.68101 2.93307 7.15363
8.24972 5.83928 0.830269
9.24489 8.94515 4.30311
3.14943 7.52781 7.53992
8.12277 2.75245 8.62485
1.51503 8.32345 4.79912
8.42183 3.10776 1.67543
3.4887 4.81127 4.12341
9.05301 3.70176 5.64781
1.0662 1.3296 6.6834
5.09943 1.31667 6.68923
1.1264 2.23752 6.19986
7.74892 0.0683405 5.67698
3.75993 5.39599 0.56705
6.34191 4.25853 5.79046
9.0817 8.01853 4.40032
8.97029 5.48776 1.28695
6.31887 9.72037 5.83372
9.51859 5.59285 9.86068
7.63928 2.92695 1.58813
4.71217 0.300596 7.04922
4.35569 5.97832 9.2622
2.05882 2.3603 2.9061
6.99511 0.361586 7.50484
1.80833 0.789195 0.997841
5.50883 0.646981 0.0992103
2.99055 3.52351 2.43657
6.72694 0.793585 3.5539
6.45956 0.980797 0.427322
6.42087 0.533089 8.04848
6.30725 4.19812 1.46192
0.500584 6.45007 1.67519
7.17258 0.310637 7.80038
9.75546 1.93663 3.82612
3.19117 0.709055 2.11553
1.6127 9.13509 6.99702
0.0482056 0.85777 9.97386
6.40698 9.57405 2.25945
5.67113 1.03479 6.03101
7.39317 1.86078 4.58782
1.29708 4.49765 1.45144
7.63762 0.782587 1.4401
6.80606 0.871026 3.31695
6.15867 8.62346 4.93669
1.44727 4.4493 5.21794
5.2208 9.21842 2.3033
8.83662 0.768248 4.8186
2.83518 6.38131 5.58915
6.3259 0.715456 4.62862
6.57394 0.609854 7.93809
2.35472 3.76222 7.64888
2.69353 6.41941 4.04193
0.351539 7.0695 2.92546
6.83603 2.19455 6.15492
6.80162 0.140761 7.75787
3.33441 2.07385 9.86572
1.83016 0.651657 0.976634
9.00111 3.94002 7.70817
2.07149 2.18332 8.68713
8.42139 7.46597 8.34633
2.68303 1.7718 4.26693
0.446522 4.4982 6.85003
6.40641 0.432332 7.66368
4.55071 5.54615 0.922318
0.960907 9.31626 2.314
2.85021 0.969416 3.91475
8.16599 3.99463 1.93828
0.276842 7.98889 2.09879
1.60752 1.28593 9.5505
1.99204 1.59173 0.754088
9.73257 7.90479 0.999275
1.61375 0 2.23307
7.86414 2.80164 1.44055
7.12953 0.431825 7.85369
5.19631 4.1222 1.55079
6.66842 0.232313 8.44129
6.98268 0.260043 7.58684
9.86238 5.20066 7.34497
7.15692 8.09171 3.43244
7.18199 1.19184 1.03483
6.49121 0 7.87616
4.21698 7.08452 4.68556
1.57837 1.99263 2.54221
6.06031 0.318663 5.81648
6.5938 0.373231 7.51252
5.05 9.10442 3.0066
3.15905 7.28667 2.77301
3.38376 2.77205 9.67085
6.93273 0.388833 7.59621
7.41957 4.05435 1.72433
4.59241 2.36089 1.42408
3.54693 2.51655 9.87729
1.68359 3.40441 5.4745
0.393681 1.97322 5.07579
3.35526 2.1296 9.45811
1.72977 0.0298723 2.31561
6.79068 8.08355 5.94941
9.85285 7.43196 6.84369
6.86433 0.327109 7.72349
7.00145 0.214187 7.61318
8.9955 8.21074 4.14783
3.53232 2.48657 9.75127
6.37081 0.535357 4.11124
7.53941 0.201458 4.9576
6.81316 0.40083 7.39197
6.49021 2.06103 9.91407
6.64617 0.0794524 7.63152
0.72692 2.84948 8.14088
7.07229 0.0897746 7.2253
0.582804 8.39608 0
3.57084 2.44483 9.85387
6.39244 0.298453 7.68934
6.86902 0.0781258 7.85003
7.93506 0 5.28906
8.39163 9.8453 8.63321
6.89149 0.416187 7.49688
7.06239 0.388398 7.62163
1.48886 4.2379 4.8298
7.0828 0.295347 7.65008
1.06025 2.33258 6.51055
3.85635 3.34242 1.49855
6.87574 0.406273 8.07816
9.72519 1.25031 6.74641
8.07095 9.86751 9.0797
8.08959 0.424119 2.49956
POINT_DATA 400
SCALARS particleColor float 3
LOOKUP_TABLE default
1 0.604281 0
1 0.338083 0
0.702218 1 0.297782
1 0.432759 0
0.385502 1 0.614498
0.146752 1 0.853248
1 0.465793 0
0.246399 1 0.753601
0.432772 1 0.567228
1 0.0780491 0
1 0.521123 0
1 0.750225 0
1 0.186484 0
1 0.334997 0
1 0.845254 0
1 5.96046e-08 0
1 5.96046e-08 0
1 0.380002 0
0 0.987583 1
1 5.96046e-08 0
1 5.96046e-08 0
1 5.96046e-08 0
1 5.96046e-08 0
1 0.876639 0
0.427549 1 0.572451
1 5.96046e-08 0
1 0.0433851 0
0.438746 1 0.561254
0.393074 1 0.606926
1 5.96046e-08 0
1 5.96046e-08 0
1 5.96046e-08 0
0.987983 1 0.0120174
0 0.886309 1
1 0.565005 0
0.655018 1 0.344982
0 0.946748 1
0.981913 1 0.0180867
1 0.271527 0
1 5.96046e-08 0
1 5.96046e-08 0
0.862955 1 0.137045
0.662934 1 0.337066
1 0.615324 0
0.726365 1 0.273635
0.793746 1 0.206254
1 5.96046e-08 0
0.923116 1 0.076884
0.860079 1 0.139921
0.589039 1 0.410961
0.42259 1 0.57741
0.0228896 1 0.97711
1 0.5401 0
1 5.96046e-08 0
1 5.96046e-08 0
1 0.759911 0
1 0.666265 0
1 0.765195 0
1 0.838608 0
1 0.48425 0
1 0.27602 0
1 0.734596 0
1 5.96046e-08 0
1 5.96046e-08 0
0.279218 1 0.720782
0.641824 1 0.358176
1 5.96046e-08 0
1 0.577224 0
1 0.960213 0
1 0.963627 0
1 0.110354 0
1 5.96046e-08 0
1 0.901052 0
1 0.0406883 0
1 5.96046e-08 0
1 5.96046e-08 0
1 0.717396 0
1 5.96046e-08 0
0.252689 1 0.747311
1 0.85188 0
0.113617 1 0.886383
1 0.164055 0
0 0.940355 1
1 0.954006 0
1 5.96046e-08 0
0.105894 1 0.894106
1 5.96046e-08 0
1 5.96046e-08 0
1 5.96046e-08 0
0.271722 1 0.728278
1 5.96046e-08 0
0.871983 1 0.128017
1 0.727407 0
1 0.48072 0
0.826596 1 0.173404
1 5.96046e-08 0
1 0.547414 0
1 5.96046e-08 0
0.0565737 1 0.943426
1 0.328425 0
0 0.709505 1
0.553583 1 0.446417
1 5.96046e-08 0
1 5.96046e-08 0
0.644715 1 0.355285
1 5.96046e-08 0
1 5.96046e-08 0
1 5.96046e-08 0
0.978816 1 0.0211844
0.548179 1 0.451821
1 5.96046e-08 0
1 0.582935 0
1 0.069298 0
1 5.96046e-08 0
0.862664 1 0.137336
1 0.697905 0
1 0.849792 0
0.0588323 1 0.941168
1 5.96046e-08 0
0.640524 1 0.359476
0.0870746 1 0.912925
1 5.96046e-08 0
1 0.593894 0
1 0.0500633 0
1 0.677917 0
1 5.96046e-08 0
1 0.759915 0
1 0.81928 0
0.806606 1 0.193394
0.0588027 1 0.941197
1 5.96046e-08 0
1 0.614768 0
0.208661 1 0.791339
0.253192 1 0.746809
1 5.96046e-08 0
0.0365841 1 0.963416
0.270481 1 0.729519
1 0.80882 0
1 0.783013 0
1 5.96046e-08 0
0.825504 1 0.174496
0.193774 1 0.806226
1 0.317627 0
0.222006 1 0.777994
1 5.96046e-08 0
0.505438 1 0.494562
1 0.561621 0
1 5.96046e-08 0
1 0.733256 0
1 5.96046e-08 0
0 0.363433 1
1 0.783105 0
1 5.96046e-08 0
0.687985 1 0.312015
0.299035 1 0.700965
1 0.854612 0
1 0.866509 0
1 5.96046e-08 0
1 0.822843 0
1 5.96046e-08 0
0.651341 1 0.348659
0.423585 1 0.576415
1 0.0753083 0
1 0.120879 0
1 5.96046e-08 0
1 5.96046e-08 0
0.122566 1 0.877434
1 5.96046e-08 0
1 5.96046e-08 0
0.556865 1 0.443135
1 5.96046e-08 0
0.338869 1 0.661131
1 0.479878 0
1 5.96046e-08 0
1 0.191905 0
0.910675 1 0.0893246
1 0.907282 0
1 0.773084 0
0 0.600297 1
1 5.96046e-08 0
0 0.668597 1
0.248748 1 0.751252
0.168166 1 0.831834
1 5.96046e-08 0
0.942478 1 0.0575221
0 0.920516 1
1 5.96046e-08 0
1 0.652434 0
1 0.978342 0
1 0.595862 0
1 5.96046e-08 0
0.826335 1 0.173665
0.100157 1 0.899843
1 0.369779 0
0.715796 1 0.284204
1 5.96046e-08 0
1 0.653034 0
0 0.714629 1
1 5.96046e-08 0
0.40337 1 0.59663
1 0.611183 0
1 5.96046e-08 0
1 0.695397 0
1 5.96046e-08 0
1 0.0899514 0
1 0.529254 0
1 0.339331 0
0.902857 1 0.0971431
1 0.26389 0
0.707424 1 0.292576
0.620067 1 0.379933
0.426492 1 0.573508
0.172618 1 0.827382
1 0.314124 0
0.940867 1 0.0591334
1 5.96046e-08 0
1 0.673742 0
1 0.124843 0
0.276991 1 0.723009
1 0.408107 0
1 0.153042 0
1 0.856336 0
1 0.21943 0
0.803615 1 0.196385
1 5.96046e-08 0
1 5.96046e-08 0
1 0.363243 0
1 5.96046e-08 0
0 0.816225 1
0 0.842733 1
0.925472 1 0.074528
1 5.96046e-08 0
1 0.859809 0
1 0.0895327 0
0.0303546 1 0.969645
1 5.96046e-08 0
1 5.96046e-08 0
1 0.558102 0
1 5.96046e-08 0
1 5.96046e-08 0
0 0.543508 1
1 5.96046e-08 0
1 5.96046e-08 0
0.616944 1 0.383056
0.819922 1 0.180078
1 5.96046e-08 0
1 5.96046e-08 0
1 0.676084 0
0.267481 1 0.732519
1 0.723286 0
1 5.96046e-08 0
1 0.310278 0
1 0.558599 0
1 0.142696 0
1 5.96046e-08 0
0.21851 1 0.78149
0.0964328 1 0.903567
0.96062 1 0.0393797
1 0.50608 0
0.542774 1 0.457226
0.0525837 1 0.947416
1 0.0753567 0
0.992519 1 0.00748146
1 5.96046e-08 0
1 5.96046e-08 0
0.240898 1 0.759102
1 0.19231 0
0.48938 1 0.51062
1 5.96046e-08 0
0.717653 1 0.282347
1 5.96046e-08 0
1 0.332338 0
1 0.343047 0
1 0.805462 0
0.612375 1 0.387625
1 5.96046e-08 0
1 0.720876 0
1 0.936301 0
1 5.96046e-08 0
1 0.819866 0
1 0.583424 0
1 5.96046e-08 0
1 0.370602 0
1 0.670543 0
0.26746 1 0.73254
1 0.543519 0
0.544174 1 0.455826
1 5.96046e-08 0
1 5.96046e-08 0
1 5.96046e-08 0
0.99179 1 0.00821006
1 0.215442 0
1 0.404215 0
0.555154 1 0.444846
1 5.96046e-08 0
1 0.617303 0
1 5.96046e-08 0
0.296324 1 0.703676
0 0.730148 1
0 0.785779 1
1 0.310196 0
1 5.96046e-08 0
0.12061 1 0.87939
0.853888 1 0.146112
0 0.66534 1
1 5.96046e-08 0
1 5.96046e-08 0
0 0.702615 1
1 0.240693 0
0.560558 1 0.439442
0.21498 1 0.78502
0.435365 1 0.564636
1 5.96046e-08 0
0 0.858081 1
1 0.562502 0
1 0.158349 0
1 5.96046e-08 0
0.42139 1 0.57861
1 0.492348 0
1 0.873925 0
1 0.842644 0
1 5.96046e-08 0
1 5.96046e-08 0
0 0.693023 1
0 0.369972 1
1 5.96046e-08 0
1 0.744114 0
0.289545 1 0.710455
0.695781 1 0.304219
0 0.358996 1
0.338515 1 0.661485
0.242257 1 0.757743
0 0.968079 1
1 5.96046e-08 0
1 5.96046e-08 0
0.61694 1 0.38306
0.753699 1 0.246301
0 0.515328 1
1 5.96046e-08 0
1 5.96046e-08 0
1 5.96046e-08 0
1 0.148427 0
1 0.278789 0
0 0.930084 1
0.851954 1 0.148046
1 5.96046e-08 0
0 0.644774 1
1 0.942093 0
0 0.60185 1
1 0.457356 0
0 0.554615 1
0 0.882523 1
0.0846427 1 0.915357
1 0.555442 0
0 0.361478 1
0 0.541024 1
0.603406 1 0.396594
0.81239 1 0.18761
0.669225 1 0.330775
0 0.266125 1
0.653519 1 0.346481
1 5.96046e-08 0
0 0.184974 1
0 0.294812 1
0 0.474814 1
0.28448 1 0.71552
0 0.725946 1
0 0.42898 1
1 0.557823 0
0 0.545066 1
0 0.905951 1
1 5.96046e-08 0
0.72226 1 0.27774
0 0.427676 1
0 0.725422 1
1 5.96046e-08 0
0 0.400292 1
0.429169 1 0.570831
1 5.96046e-08 0
0 0.708496 1
0.144955 1 0.855045
0 0.642476 1
1 0.546751 0
0 0.379173 1
1 5.96046e-08 0
0 0.663171 1
0 0.0972416 1
0 0.557265 1
1 5.96046e-08 0
0.0313921 1 0.968608
0 0.287531 1
0 0.387878 1
0.307532 1 0.692468
0.0397582 1 0.960242
0 0.473712 1
1 5.96046e-08 0
0 0.552754 1
1 0.684477 0
0.946456 1 0.0535445
1 0.993328 0
