# vtk DataFile Version 3.0
Particle simulation
ASCII
DATASET POLYDATA
POINTS 400 float
8.341 0.385866 9.73971
7.4144 7.76964 6.02188
0.439386 0.874556 6.42935
2.99748 0.53564 1.78778
8.77417 0.625569 3.69459
7.35812 5.48087 3.11972
6.19642 0.226872 2.37112
10 2.53185 2.11184
8.55402 8.48142 9.61189
4.04038 0.114915 7.37056
9.18319 3.85829 2.58241
8.14044 4.78909 3.00893
9.49467 1.33979 9.33379
6.48962 3.68677 0.328768
6.48325 2.56143 1.79447
9.77036 5.48955 9.60893
0.629636 4.74734 0.0113092
2.97569 0.629516 1.48431
1.36401 3.09721 4.23637
1.82665 2.96789 3.6374
2.22621 0.308871 1.4619
9.537 2.87247 1.30341
9.38434 1.74336 9.29336
1.74442 1.21041 1.21563
0.426689 9.33683 1.55602
4.23431 0.766716 0.36342
4.84706 0 5.45633
0.493275 0.83379 0.8713
9.02693 0.198821 5.21259
7.31222 2.07262 1.38386
4.86022 6.54947 9.40307
4.50252 4.90602 7.41342
9.31164 0.26942 7.0026
3.81092 0.225157 2.07357
7.40407 2.11776 1.14347
2.79789 3.11391 0.556032
2.96826 4.99989 0.201285
3.52195 0.621039 2.50022
6.90013 0.349032 2.20933
0.016308 1.58701 4.61904
2.32684 0.125915 5.79986
9.80185 1.75431 6.30476
7.17273 2.30058 9.19866
2.26848 3.91964 7.13538
7.58972 1.22501 5.69078
5.97767 0.568928 1.39815
4.1005 1.06558 5.27948
6.70478 0.706912 4.33541
5.8859 0.478289 1.58904
8.41996 2.43795 1.24424
1.83489 2.49014 2.99288
2.0031 6.53855 5.89327
8.34689 0.354395 8.28231
3.86258 0.0388611 7.50333
8.02398 0.161215 8.01958
5.75453 0.713938 1.77613
9.46778 0.953868 8.99723
0.823098 0.249572 7.39543
5.73422 0.724237 1.18692
9.53658 8.73423 4.2104
5.26078 8.71167 6.12464
6.07466 1.853 9.14632
2.59058 0.159165 4.13809
4.12234 0.408886 7.05011
2.30995 8.9963 2.64727
0.0559247 0.225737 3.40171
4.60093 0.907903 9.54362
1.73018 2.54103 3.22182
5.58679 0.618562 1.31297
5.49954 0.419567 8.35177
9.47948 0.782597 7.59376
3.34563 0.36204 2.25223
6.97693 1.91853 2.40275
3.88032 0.424161 7.13695
9.38644 0.739059 7.40489
7.61451 0.392315 1.36668
4.65554 0.882354 9.4748
5.81736 0.455378 8.87719
8.57081 0.734133 0.132065
0.824747 8.45256 9.83021
3.9573 0.0746845 1.48708
3.12969 0.773886 2.04611
2.88581 0.461661 1.19866
2.65048 0.467396 1.72865
3.42248 0.0409304 9.37125
5.5321 0.582055 8.19
5.74323 0.580767 9.23665
4.60733 3.20784 2.04998
9.34579 4.01789 2.80878
8.92098 0.329252 1.31905
4.02727 0.0578122 1.48258
4.12036 0 1.48982
1.1448 0.478315 6.60865
3.08018 0.602396 1.26386
3.3508 0.166549 9.3675
5.99431 0.473313 8.02654
5.22818 0.517804 8.88453
1.30948 1.33519 0.55924
9.4025 0.492137 7.92715
8.97682 0.297263 1.39908
3.6599 0.748655 1.58822
5.84166 1.40802 0.412511
2.04607 0.524415 1.06085
9.29159 1.00964 9.27973
5.91002 2.34281 1.50277
3.39533 0.547889 2.60061
4.86177 0.116434 8.09078
5.8964 0.574811 1.88837
6.49299 0.308823 1.31143
8.54606 0.481462 1.09029
8.54734 7.95321 9.71303
4.06773 0.0939047 7.35533
3.15378 0.438842 3.00626
7.41251 0.0435464 2.30392
3.49808 0.423004 2.27406
1.81654 0.68867 4.56309
5.77261 0.315607 8.40345
6.07503 0.330896 1.88287
6.43396 0.45779 1.25714
7.84727 0.299797 7.08118
3.21143 0.576794 2.17006
4.76638 5.75329 1.92013
7.07948 9.5455 4.87858
6.11752 0.534259 4.11981
8.60592 0.278174 8.13459
3.5477 0.0998463 1.36079
4.27926 1.43179 3.70328
3.99397 0.174545 7.23839
2.87962 5.43485 7.1004
0.859622 8.15306 7.89246
3.83735 0.406404 1.23204
4.58227 3.28736 1.69108
5.33066 0.387303 8.13844
7.48644 1.0878 5.80411
6.34191 0.932227 4.62866
2.00615 0.266086 1.95366
5.17682 8.0742 4.50911
3.92772 0.409343 7.0812
3.63953 2.40622 6.76997
7.97258 0.4289 8.03582
3.68663 0 1.52604
3.68481 1.64943 9.46396
8.65788 6.11621 8.27357
7.74644 0.155025 7.12069
3.5615 0.699041 1.88279
2.83443 0.324628 1.74971
7.534 1.234 5.67955
1.0658 5.32844 0.0815754
2.1187 0.710356 1.75383
2.6744 1.1591 4.62369
3.69713 0.0349472 1.51762
8.60988 1.32354 6.97564
1.90743 0.925307 1.99386
6.22738 0.685351 8.71674
4.43849 4.03873 0.347462
6.36642 0.573616 1.70231
8.90393 1.48346 7.08149
3.69512 0.617362 2.49754
7.14033 0.590869 6.25822
2.77153 0.545548 1.38644
3.10296 3.02159 1.38957
0.345262 0.793025 6.27667
5.6192 0.41618 8.59606
3.54614 0.701664 1.75575
1.77855 2.38046 2.90638
8.2998 0.205967 8.14689
5.68528 0.865733 8.75197
5.73009 0.335618 8.80205
7.16038 3.41832 5.41269
6.84464 6.38292 1.14669
2.72936 0.874336 2.49335
4.27436 1.35655 3.8458
6.29989 0.640792 1.40459
2.55693 0.700891 2.11384
3.08088 0.598461 2.26006
3.04434 3.71577 0.577133
5.64995 0.276352 8.75947
5.94432 0.853768 8.85326
7.77863 0.502878 6.59099
3.40762 5.05934 7.11044
2.66547 0.478772 1.7413
3.86802 0.0854501 0.777139
8.3051 5.47795 6.30292
3.4281 0.564116 1.89526
5.19007 0.176473 9.27397
3.99624 0.291436 1.58723
2.34705 0.731219 2.12929
1.10095 0.453169 6.61671
7.17394 0.859335 5.95767
2.81656 0.532899 1.77889
2.68539 0.392667 1.78463
2.43621 0.370202 1.9984
7.29494 0.0477917 7.73097
0.742402 3.2613 4.49697
4.24499 3.78839 5.05175
2.33736 0.622254 2.39652
3.23135 0.347776 1.2154
8.21421 4.53318 8.18133
2.55729 0.434632 1.99772
3.80471 0.471443 1.60181
3.6838 0.512512 2.00003
6.36539 0.290346 1.63579
7.17663 0.935292 5.92241
5.12495 0.0680844 7.96237
9.86449 8.17988 0.734276
5.28845 0.385273 8.18505
3.74247 0.02907 1.67331
0.531944 0.450425 7.62708
1.02968 0.439969 7.64116
9.1799 0.150823 1.43987
3.08616 0.4644 1.85006
6.08484 0.318173 1.76024
5.18147 0.318856 8.10843
7.64839 0.119322 7.93076
6.02677 0.331162 7.07106
5.34855 0.506018 8.41723
3.78711 0.0837066 1.66613
3.04699 0.577235 1.80233
4.33967 1.35602 3.55027
8.77362 0.368886 1.49515
1.96424 6.45811 3.41058
6.29855 0.459656 8.5568
6.12341 0.684144 8.80897
3.58364 0.635038 2.35227
5.71777 0.0694987 8.35203
3.15179 0.447655 2.35638
3.33261 3.09796 0.773965
2.30727 0.501624 1.91406
3.25431 0.237362 1.7408
7.49741 0.387693 8.14104
2.11472 0.405355 5.55333
5.04654 0.413778 8.92832
7.52906 0.936786 5.84729
2.86916 0.383354 2.5841
6.08529 0.861192 8.91899
3.08078 0.751505 1.43541
4.89866 0.170697 9.41625
2.84578 0.386186 1.91949
2.0397 0.362929 1.49032
0.856099 0.0994709 7.54982
4.09816 0.593462 1.9226
1.65995 0.170705 1.75196
3.02105 0.916293 1.76282
3.22397 0.825596 1.47091
5.06372 0.390824 9.26356
2.70896 0.501171 1.22246
0.478118 0.970739 1.0786
7.4751 0.64071 9.77227
5.97224 0.359898 1.57781
5.25504 0.0579261 8.44672
3.2498 0.465419 2.16093
2.34575 0.189206 3.61531
5.34459 0.143201 8.31385
2.24076 0.108787 1.63737
7.21251 0.736405 5.90332
3.24881 0.700195 2.24707
8.07271 0.0867942 1.24081
6.33921 0.43099 8.68622
6.4124 0.137481 1.73666
5.31412 0.130957 8.35816
3.11376 0.467054 1.53739
1.88199 4.81789 4.8567
5.59739 0.562928 8.55915
8.029 2.2971 1.68953
5.02332 0.367863 9.01612
2.07033 3.84571 7.47498
1.95151 0.34394 2.20594
5.54527 0.303563 7.92495
7.16552 0.652343 6.14158
2.82174 0.255085 1.88613
3.80151 0.0731839 1.3502
0.568958 1.30628 0.328542
6.75434 0.448593 2.41642
2.82053 0.17656 2.84787
5.56271 0.33859 8.10349
6.17247 0.801875 8.54283
3.51697 0.348816 7.29759
4.7418 9.75032 7.04598
3.57496 0.268671 9.49177
2.82902 0.443453 1.92859
9.04824 0.305371 1.59415
6.23122 0 1.59823
8.6539 2.58712 1.57655
3.52054 0.227939 7.53766
7.48366 1.05223 6.60302
7.27517 0.819002 6.23339
3.37733 0.516795 2.54853
3.63518 0.593214 1.1382
8.63181 0.0751759 8.32775
7.5169 9.5514 6.32937
8.52394 0.317985 3.63873
5.99402 0.465201 1.35854
3.40449 0.426547 1.29859
4.26769 0.478419 7.14331
5.41945 0.285055 8.35208
5.4134 0.0627443 8.63882
3.68164 0.729108 1.40284
2.88467 0.746273 2.29926
1.92206 0.895972 2.40773
2.77154 0.624642 2.6324
9.25475 0.125765 1.66166
7.81025 0.174892 8.04057
1.88402 0.66536 4.63993
5.52515 0.857132 1.23911
3.13658 0.478949 2.49923
0.417865 0.521305 1.04622
3.97788 1.05352 1.91104
3.18316 0.406752 1.46856
2.42667 0.570662 4.79393
2.54047 0.3672 2.03367
6.27592 0.948197 8.66444
8.66613 1.38188 6.927
7.83988 1.04402 6.04402
3.48491 0.504919 1.28449
3.96375 0.420063 1.0878
3.07178 0.0804998 9.0516
3.75176 1.01807 2.63762
6.41573 0.060038 2.2497
6.13185 0.393996 1.18213
2.43685 0.408277 1.22343
5.58528 0.25333 8.73266
3.17965 0.0236865 1.77972
5.56226 0.113868 8.81402
2.2966 0.329109 1.28399
9.11762 0.331902 1.84807
9.04717 0.244196 1.4602
2.51895 0.507751 1.16782
6.37512 0.65512 1.37635
7.32761 0.253794 1.85598
3.11941 0.560084 2.00369
4.628 0 8.7765
2.74599 0.269259 2.08352
5.6862 0.428462 8.20818
3.34461 0.805288 2.20436
7.07578 0.0912831 2.01857
7.14255 0.637856 8.17013
7.31655 0.360305 2.13312
2.77446 0.251601 1.67254
9.58672 0.0243214 1.05923
2.32244 0.827627 1.18486
5.74869 0.49964 8.38032
1.85568 0 1.72814
5.53804 0.363048 8.15644
6.45654 0.735073 8.55628
3.36012 0.755567 2.5244
3.49749 0.37696 2.45289
6.46712 0.349398 1.64005
3.00557 0.353283 1.64429
3.44981 0.475136 2.50292
1.9349 0.89578 1.02409
2.92998 0.189859 1.68341
2.4434 0.46437 1.46967
4.77896 0.0799012 9.02181
6.19995 0.618792 8.34936
2.60885 0.663485 1.20203
2.80679 0.62901 2.05484
6.59069 0.446023 1.20612
5.95047 0.254138 7.91378
3.85518 0.39819 1.67836
3.14117 0.553741 1.59971
5.93479 0.387678 1.4664
5.30509 0.361688 8.54251
5.2809 0.572783 8.58244
2.9957 0.552656 2.14245
3.67172 0.357481 1.92895
7.21461 0.489004 6.31173
5.59812 0.27803 8.66967
6.52687 0.859414 9.00521
5.41851 0.249289 8.54903
2.72323 0.598145 1.14026
6.00235 0.354856 1.43296
8.52497 1.37514 6.8935
5.36614 0.140085 8.49757
3.19288 0.267827 0.973408
3.85259 0.401858 1.21956
7.67035 0.871397 5.62335
5.32069 0.260236 8.50599
5.70662 0.143061 8.52734
5.79226 0.667331 8.52324
3.32954 0.368248 2.47396
2.52413 0.106214 1.64931
2.77175 0.513301 1.96473
5.53834 0.570968 8.39793
3.5127 0.400968 2.09163
4.00729 0.103594 7.02327
5.35122 0.384348 8.53569
2.75467 0.271989 1.84307
3.23948 0.612062 1.73856
1.66661 0.424063 5.40447
5.66572 0.406643 1.99413
2.5255 0.188762 1.77818
2.70129 0.518071 1.72495
5.1985 0.222193 8.54271
2.88178 0.193169 2.4836
4.06683 0.166588 7.06854
5.23347 0.569663 8.75115
2.74625 0.283815 1.89238
2.5063 0.657225 1.37764
8.47966 0.207443 1.60618
5.67665 0.390288 1.99428
POINT_DATA 400
SCALARS particleColor float 3
LOOKUP_TABLE default
0.235209 1 0.764791
1 5.96046e-08 0
0.266251 1 0.733749
0 0.811255 1
0 0.551594 1
0.493218 1 0.506782
0.317363 1 0.682637
0.249316 1 0.750684
0.219539 1 0.780461
0.164738 1 0.835262
0.00957765 1 0.990422
1 0.160398 0
0.463748 1 0.536252
1 0.107437 0
0 0.783861 1
0 0.422558 1
0 0.275526 1
0 0.610475 1
0.316231 1 0.683769
0.634898 1 0.365102
0 0.337463 1
0.586004 1 0.413996
0.590094 1 0.409906
0 0.852887 1
1 0.888494 0
0 0.442812 1
1 5.96046e-08 0
0 0.443729 1
0 0.718017 1
0.487431 1 0.512569
0 0.969163 1
0.192252 1 0.807748
0.286344 1 0.713656
0.0771863 1 0.922814
0 0.695758 1
0 0.680076 1
1 0.909963 0
0 0.402904 1
0 0.57342 1
0 0.459194 1
0 0.614011 1
0 0.533422 1
0 0.893431 1
0.342689 1 0.657311
0 0.748877 1
0 0.570014 1
0 0.326195 1
1 0.78062 0
0 0.611669 1
0 0.727982 1
0.181134 1 0.818866
1 5.96046e-08 0
0 0.891005 1
0 0.571564 1
0 0.769456 1
0 0.248954 1
0.482408 1 0.517592
0 0.579766 1
0 0.887889 1
0.3828 1 0.6172
1 0.66507 0
0 0.547269 1
0 0.647627 1
0 0.437848 1
0.0469081 1 0.953092
0 0.773259 1
0 0.465865 1
0 0.697884 1
0 0.458908 1
0 0.72964 1
0.222382 1 0.777618
0 0.510416 1
1 0.41856 0
0 0.695494 1
0 0.822432 1
0.0949237 1 0.905076
0 0.527824 1
0 0.548413 1
0.774875 1 0.225125
0 0.821073 1
0 0.834309 1
0 0.627566 1
0 0.718182 1
0 0.53196 1
0 0.477235 1
0 0.441873 1
0.0286224 1 0.971378
0 0.647231 1
0.23013 1 0.76987
0 0.323825 1
0 0.449508 1
0 0.124804 1
0 0.936031 1
0 0.771289 1
0 0.459073 1
0 0.23136 1
0 0.516161 1
0.166913 1 0.833088
0 0.984154 1
0 0.243411 1
0 0.69897 1
0 0.454857 1
0 0.604017 1
0 0.586655 1
1 0.30933 0
0 0.273442 1
0 0.535176 1
0 0.654421 1
0 0.484706 1
0 0.59931 1
0.368931 1 0.631069
0.235962 1 0.764038
0 0.480909 1
0 0.805657 1
0 0.280405 1
0.0961653 1 0.903835
0 0.497717 1
0.0518116 1 0.948188
0 0.561905 1
0.586642 1 0.413358
0 0.486767 1
0.743664 1 0.256336
0.220591 1 0.779409
1 0.889529 0
0 0.483005 1
0 0.772998 1
0 0.744184 1
0 0.360407 1
0.967481 1 0.0325185
1 0.984157 0
0 0.21206 1
0 0.709842 1
0.00303758 1 0.996962
0 0.884727 1
0 0.59781 1
0 0.690347 1
1 5.96046e-08 0
0 0.490363 1
0 0.656426 1
0 0.515504 1
0 0.55945 1
0 0.646824 1
1 5.96046e-08 0
0 0.920723 1
0 0.456835 1
0 0.736188 1
0 0.628178 1
0 0.526712 1
0 0.482367 1
0.186762 1 0.813238
0 0.586897 1
0 0.314733 1
0.233847 1 0.766153
0.0800647 1 0.919935
0 0.169005 1
0 0.679836 1
0 0.431974 1
0 0.396755 1
0 0.613551 1
0 0.800985 1
0.043887 1 0.956113
0 0.700097 1
0 0.719062 1
0 0.343123 1
0 0.358729 1
0 0.54071 1
0 0.548561 1
0 0.551786 1
0 0.701434 1
1 5.96046e-08 0
0 0.240088 1
0.020813 1 0.979187
0.200304 1 0.799696
0 0.376784 1
0 0.909746 1
0.0274349 1 0.972565
0 0.264199 1
0 0.551094 1
0.158579 1 0.841421
0.60117 1 0.39883
0 0.452537 1
0 0.613337 1
0 0.580232 1
0.145778 1 0.854222
0 0.433571 1
0 0.675305 1
0 0.576591 1
0 0.828941 1
0 0.898779 1
0 0.383145 1
0 0.488363 1
0 0.295465 1
0 0.962434 1
0 0.683784 1
0.176064 1 0.823936
0 0.27823 1
0 0.631234 1
0 0.485496 1
0 0.39132 1
0.1187 1 0.8813
0 0.222711 1
0 0.541493 1
0 0.63561 1
0 0.34886 1
0.412646 1 0.587354
0 0.913764 1
0 0.670833 1
0 0.959018 1
0 0.657656 1
0 0.574321 1
0 0.806483 1
0 0.430366 1
0.120375 1 0.879625
0 0.651041 1
0 0.631348 1
0 0.574302 1
0 0.617008 1
0 0.535142 1
0.00880848 1 0.991192
0 0.501816 1
1 5.96046e-08 0
0.524195 1 0.475805
0 0.563263 1
0 0.34921 1
0 0.342854 1
0 0.690065 1
0 0.794778 1
0 0.299776 1
0 0.233967 1
0.298874 1 0.701126
0 0.641922 1
0 0.588162 1
0 0.301887 1
0 0.586785 1
0 0.539455 1
0 0.886785 1
0.00309511 1 0.996905
0.0823621 1 0.917638
0 0.537558 1
0 0.684151 1
0 0.766488 1
0 0.507874 1
0 0.409399 1
0.0584993 1 0.941501
0 0.278079 1
0.213237 1 0.786763
0.147595 1 0.852405
0.143831 1 0.856169
0.0288974 1 0.971103
0 0.491886 1
0 0.401347 1
0.0533666 1 0.946633
0 0.139628 1
0.0516692 1 0.948331
0 0.746221 1
0 0.614179 1
0 0.302536 1
0 0.566132 1
0 0.400836 1
0 0.523821 1
0 0.608461 1
0.141816 1 0.858184
0 0.80397 1
0.74668 1 0.25332
0 0.716338 1
0 0.964326 1
0 0.723498 1
0 0.543119 1
0 0.343004 1
0 0.620817 1
0 0.401863 1
0.349159 1 0.650841
0 0.518037 1
0 0.613166 1
0 0.769137 1
0 0.695037 1
0.393109 1 0.606891
0 0.581721 1
0.618361 1 0.381639
0 0.476936 1
0 0.905123 1
0 0.405606 1
0 0.727925 1
0 0.345041 1
0 0.97758 1
0 0.572146 1
0 0.59864 1
0 0.917673 1
0 0.983986 1
0.311276 1 0.688724
0.34765 1 0.65235
0 0.554214 1
0 0.715858 1
0 0.154926 1
0 0.700211 1
0.162117 1 0.837883
0 0.429305 1
0 0.787189 1
0 0.724241 1
0 0.313448 1
0 0.57195 1
0 0.529617 1
0 0.919427 1
0 0.521933 1
0 0.789847 1
0.571797 1 0.428203
0 0.355728 1
0 0.357498 1
0 0.748869 1
0 0.950565 1
0 0.931947 1
0 0.447817 1
0 0.353089 1
0.0879153 1 0.912085
0 0.604931 1
0.0711903 1 0.92881
0 0.507672 1
0 0.448652 1
0 0.250271 1
0 0.400265 1
0 0.855896 1
0.139663 1 0.860337
0 0.599095 1
0 0.548635 1
0 0.598583 1
0 0.204578 1
0 0.352318 1
0 0.610173 1
0 0.750205 1
0.0390649 1 0.960935
0 0.649313 1
0 0.617908 1
0.0461121 1 0.953888
0 0.157986 1
0 0.807294 1
0 0.936982 1
0 0.798678 1
0 0.438918 1
0 0.284423 1
0 0.231418 1
0.0908517 1 0.909148
0 0.738241 1
0 0.933952 1
0 0.424061 1
0 0.603984 1
0 0.376591 1
0 0.250787 1
0 0.783366 1
0 0.110146 1
0 0.449936 1
0 0.995854 1
0 0.170363 1
0 0.755792 1
0 0.42498 1
0 0.761464 1
0 0.194835 1
0 0.713912 1
0 0.919948 1
0 0.209101 1
0 0.755008 1
0 0.239134 1
0.115203 1 0.884798
0 0.630347 1
0 0.384367 1
0 0.901372 1
0 0.345732 1
0 0.383473 1
0 0.826918 1
0 0.933889 1
0.292694 1 0.707306
0 0.390926 1
0 0.490585 1
0 0.416996 1
0 0.690476 1
0 0.545282 1
0 0.508055 1
0 0.812595 1
0 0.466613 1
0 0.490601 1
0 0.799571 1
0 0.591767 1
0 0.308384 1
0 0.617254 1
0 0.485609 1
0 0.356561 1
0 0.586689 1
0 0.520039 1
0 0.383066 1
0.177307 1 0.822693
0 0.539636 1
0 0.535851 1
0 0.560857 1
0 0.454831 1
0 0.708178 1
0 0.20504 1
0 0.575202 1
0 0.443104 1
0 0.78982 1
0 0.97589 1
0 0.406934 1
