# vtk DataFile Version 3.0
Particle simulation
ASCII
DATASET POLYDATA
POINTS 400 float
0.590494 9.4006 2.66417
0.0770314 7.27607 1.19604
7.43278 6.48856 3.65141
2.27725 0.863772 5.86618
3.43239 1.17564 7.93976
5.06183 1.4272 6.97407
5.76752 8.47507 0.290312
0.190813 3.96586 9.28354
3.75504 4.13344 0.801545
9.45421 0.602227 5.1746
2.70976 3.48011 4.96945
4.43112 4.70489 8.44636
9.70888 7.58997 7.53147
0.91917 10 0.619149
6.83337 9.42131 9.40951
10 8.75531 3.57219
4.39495 0.933808 5.98717
2.47071 2.01318 1.01512
3.79995 8.30679 7.06086
1.21836 5.60962 1.64339
3.47234 4.47911 0.808966
1.04391 9.2353 5.26014
9.03177 7.5841 3.03305
0.151909 8.33337 6.90091
6.72906 9.13992 6.16471
5.5822 3.23266 9.0708
1.92857 3.48955 6.73072
0.700621 6.96946 1.08703
7.45119 3.72618 0.544461
9.4224 6.84048 2.81128
1.10136 1.1728 5.47139
5.21238 2.83757 9.53016
7.9092 2.0137 10
3.8808 5.93514 2.8532
5.74997 3.29228 5.67948
5.81757 6.13543 8.28643
3.90394 7.41289 5.57693
9.62595 4.1336 1.14096
1.0448 5.61966 2.40388
1.7893 1.89849 8.94903
4.08661 3.16065 4.64243
0.535027 9.83585 7.50973
9.62007 7.40244 2.96259
1.02755 8.90352 4.99443
5.71699 7.46878 0.237782
2.75297 7.44755 0.719563
3.89592 2.94378 5.41692
5.46924 7.18473 0.166991
0.612157 2.01144 4.62889
2.58694 2.23507 4.03009
6.34602 2.10895 7.9255
0.243418 8.29874 0.74284
1.09059 0.520125 6.17052
4.64449 5.771 0.0961974
0.43105 3.07137 7.55232
8.0398 0.854771 7.2844
3.94616 3.17531 9.29635
7.78547 1.67667 3.11834
0.460715 2.36008 0.244242
0.309081 7.16874 8.15464
7.8828 0.757475 8.9424
3.0989 7.78091 5.8509
2.94551 6.22233 6.85723
0.224316 2.17178 6.86004
1.63656 1.8098 5.15047
2.4325 4.31177 2.70017
6.31524 6.3011 1.2893
9.82308 5.34349 0.676283
4.94214 0.441754 0.52503
0.619196 4.88193 5.89769
4.92028 6.40718 6.7261
1.51302 8.34837 7.54151
9.30519 1.56943 9.38551
8.89894 3.16172 7.31732
1.8162 5.97977 7.46935
9.25778 0 6.30934
6.41933 7.75932 1.41432
3.06509 2.6605 6.8259
3.69803 7.32939 8.49053
8.45306 1.82346 7.23353
9.08004 4.54048 9.65654
7.53321 5.99423 9.38174
1.45428 1.78286 5.83163
9.23894 7.4945 9.75201
1.82077 8.29203 7.13994
4.11763 4.12549 4.95562
8.83147 3.7617 0.0699817
2.23851 0 5.68279
3.23316 4.10445 4.69327
7.75903 3.29849 2.19975
2.05743 7.11163 1.92835
0.623977 1.99934 3.99001
5.28219 1.10209 6.04376
4.26601 6.60891 2.51658
8.50986 4.47312 7.96387
5.62122 1.09964 7.51129
7.67152 3.93374 4.1404
8.91031 1.50181 1.78103
1.71584 3.24825 1.1663
0.716298 0.672348 2.18236
8.07595 8.92814 9.3323
6.57994 2.45787 3.66271
1.82811 3.77957 0.393569
9.01431 1.93242 8.64332
8.11983 1.19745 6.23066
5.35796 5.08277 7.94593
6.0269 4.95076 5.78333
4.96916 5.80606 1.98788
5.30197 3.37833 8.07704
0.273137 1.86812 8.82708
2.09813 4.68047 5.67758
6.82023 3.62383 0.879015
8.10927 3.32373 3.49875
2.07314 7.44332 1.4046
9.29121 4.91686 7.40688
2.24837 1.87211 7.17677
2.28031 9.0625 3.88184
0.80403 9.76452 4.37582
3.55956 1.02419 7.03857
7.7974 3.78115 3.81414
5.48934 0.384919 2.24142
7.661 9.87709 8.65888
5.8547 3.20856 1.08303
1.0424 10 4.42863
5.21784 5.99073 5.07595
1.3632 9.32516 4.30454
4.11134 7.33782 9.09693
9.97187 1.34017 4.92179
7.42596 2.73989 0
8.84149 7.6905 5.56497
5.99966 5.60624 4.01144
0.667776 1.29268 5.52817
9.72517 5.25064 2.13505
5.94328 8.72087 4.9894
8.46014 4.78949 9.74519
9.14356 2.36187 4.66475
6.16797 8.53684 3.47461
6.85801 4.65635 3.2917
7.88458 6.53968 8.62347
2.28092 4.36968 5.61529
5.54645 2.74613 9.08916
7.56634 4.09988 3.90717
6.91543 5.20754 1.57857
4.409 0.566979 3.2843
0.374336 0.126481 9.18324
9.77225 2.77001 9.28584
8.03125 3.904 4.78809
0.70574 1.63756 4.20789
6.73668 4.85736 2.21407
8.41556 6.37181 9.59394
7.65464 0.667152 7.39908
0.53029 7.21561 7.77478
4.17595 0.454499 8.47531
2.84171 9.77069 10
7.57585 1.45967 6.27523
2.47033 9.12544 5.18456
8.52554 1.5178 9.81068
2.96015 0.212265 1.63053
0.24672 8.97755 1.89979
1.83809 8.41385 7.57644
1.51483 2.61781 7.66868
5.93107 2.23849 0.43126
10 7.03781 1.7379
0.485168 6.08952 6.75421
4.00311 1.69099 9.46505
7.34083 6.77737 4.05109
9.37076 0.155263 5.20949
8.01046 7.55052 5.20675
0.202235 5.66221 6.47878
7.38564 1.95808 4.03797
1.51867 8.65409 7.50252
3.09402 9.58092 2.01245
6.51935 9.63148 9.6862
2.56014 0.972033 9.03959
9.42598 3.31772 3.24246
7.72383 8.16379 0.287471
4.39896 9.07215 0
8.34392 2.48121 7.5544
6.56731 6.90344 8.23697
9.48037 0.980549 3.71429
0.905828 4.71119 4.4018
5.30017 6.05739 7.95195
2.51875 0.800603 8.1365
7.05377 2.93893 8.41758
1.81515 4.39901 3.91736
2.40625 5.09941 8.03343
7.75596 0.35454 7.20993
3.17271 9.70937 10
0.0700302 6.60915 0.780684
9.5255 5.65079 0.398636
1.61833 8.73687 9.94965
3.47233 5.96885 5.76195
2.65942 0.542274 8.1913
0 0 1.03136
0.350618 0.234839 7.04156
8.83511 0.12304 8.38179
8.20111 6.1749 0.10299
0.924091 1.08341 3.99065
0.80656 2.82729 5.3018
9.76728 5.228 9.03616
8.2726 1.29779 5.37988
4.36139 1.78621 3.16211
9.46689 9.59902 2.52327
8.75827 6.37818 6.9192
9.2553 5.23796 8.72736
9.10533 2.38406 7.444
3.59765 5.59701 4.68212
4.32308 2.23927 7.2445
4.68358 3.99819 1.87752
1.22206 1.20889 6.27678
0.985995 1.52563 6.07212
7.04649 3.57194 6.52919
8.57485 2.86498 7.5708
4.31109 1.04479 2.03731
4.70487 6.20515 4.89363
7.61475 0.507861 5.63897
10 10 8.4321
0.843213 6.68692 0.607676
1.3223 9.78233 8.43869
10 1.39596 0.292007
0.0810001 9.59277 7.77994
0.379937 9.45741 5.34125
9.86117 1.10992 6.45951
8.41983 1.60706 5.75153
2.79151 10 1.76437
0.80771 4.26337 5.2026
9.358 10 9.70293
5.71853 4.18114 5.07052
7.76684 0.547206 7.3161
6.91162 1.36972 1.28375
0.343001 3.70821 1.80486
7.692 1.09218 6.74729
7.53512 1.98709 1.36681
6.65036 8.90866 5.57326
0.935274 9.21717 2.13443
8.75752 7.73515 3.61976
7.88972 1.99851 7.31027
4.73185 10 1.69707
7.38063 0.43163 7.5208
3.15923 7.86962 1.36386
7.74576 0.88677 7.02137
2.00176 2.67971 7.78642
4.7789 0.463068 5.36615
9.23166 6.4166 2.97862
8.1461 7.83221 1.6809
0.873254 2.29019 7.67602
2.12381 6.73976 9.13135
7.64845 8.96701 7.45246
3.23733 6.14098 4.82355
3.20329 2.22503 8.74867
8.13211 3.59754 1.98147
0.362224 2.80509 2.03172
4.25456 1.0415 7.69205
6.52766 1.87166 4.98979
4.84615 5.5131 2.0452
2.61089 1.94173 6.74141
1.63194 2.89642 6.76015
5.60405 0.00632545 9.97513
0.672628 8.01767 2.4009
3.07859 9.44254 5.42971
2.85989 2.56144 0.891077
10 5.19131 4.21189
6.40866 6.27872 6.81287
3.67458 9.63956 6.47827
6.38813 3.75264 1.32247
5.90964 5.18446 5.19692
2.38739 1.91954 9.85945
8.51746 6.60813 3.63019
4.99121 9.52901 9.40507
0.732758 8.22322 4.04921
0.442331 7.60401 0.110427
5.89078 0.319408 6.49103
7.41611 7.19464 4.11769
8.83964 5.91157 3.50736
9.29974 6.94625 3.45076
0.752335 3.34895 0.503144
1.59148 6.74182 2.06251
1.40229 7.06141 0.135795
7.77287 5.3583 6.41923
5.75493 0.12291 6.82001
5.19417 10 5.72612
1.32722 1.62999 10
8.23362 1.19792 5.4522
0.526985 9.35522 2.04425
9.78246 0 0
5.92618 0.410639 9.02445
0.831645 0.675863 4.62381
1.16829 0.408789 7.846
4.25614 6.91037 9.25565
7.09089 0.466302 8.82648
9.7147 0.255364 3.02889
1.68046 4.50625 2.30479
7.51102 5.10173 9.6905
8.11952 0.895723 2.13167
4.7786 9.9432 2.99887
5.02035 2.04746 7.9127
7.96927 0.0583086 7.32998
7.28593 0.474198 7.87984
7.77325 0.464091 7.41836
7.08053 0.637905 7.21531
9.98596 5.86412 6.02884
4.40709 7.75105 3.30883
7.83442 0.32969 7.29231
2.33418 2.55542 8.49301
7.55476 0.298571 7.58531
4.24392 9.29721 9.24312
8.29399 1.42244 5.59575
7.67925 0.617899 7.28282
7.61044 3.42547 5.40447
0.128447 0 0.14244
8.37911 0.939891 3.78501
4.95039 1.90593 7.09717
1.05915 1.35528 4.68692
7.5934 0.663774 7.18325
5.29122 4.86668 6.87974
8.51937 6.1836 9.6659
6.66307 9.39689 6.63994
8.08659 0.456607 6.89965
4.94652 1.80285 2.11221
1.45871 3.0171 1.03983
0 9.21649 6.54564
4.57191 0.956868 9.62862
1.56766 1.05805 8.33402
7.69697 0.341779 7.40585
7.69954 0.408885 7.17284
2.57508 9.1976 5.684
8.03066 1.18303 5.27331
2.98211 7.61366 0.611748
9.88287 6.52233 9.90759
7.39472 0.363799 7.16328
10 7.80328 7.09105
4.34336 2.67308 1.89389
8.38672 4.06026 0.483235
9.24099 8.23454 0.494684
5.00922 3.98998 8.22705
9.6376 3.15144 6.15506
8.92321 4.06136 6.13113
7.61284 0.673036 7.20004
4.44132 6.01326 2.656
4.43281 0.758551 7.36663
5.67495 4.15848 4.45167
0 9.88003 6.94455
3.31959 9.89019 2.86036
1.48312 0.651928 8.16452
7.38287 0.241819 7.74307
0.361515 9.22618 8.63044
8.49138 1.56437 0.481899
7.91871 0.429328 7.24257
7.54447 0.690204 7.21513
5.32311 7.67689 0.17509
7.192 0.870775 7.4065
7.46159 0.199347 7.35849
1.14343 9.44155 0.562697
0.69699 7.41713 3.77802
4.14538 7.66677 8.45351
7.57258 0.405196 7.41207
9.15434 3.09559 7.33971
7.41217 2.21366 4.31092
7.48486 0.43732 6.94648
8.04592 0.396685 7.41916
2.13093 1.28734 10
1.5277 0.995058 8.49396
1.28815 0.877977 7.98573
7.55076 0.487616 7.44072
2.46194 5.86343 5.8472
1.49913 2.86972 9.10163
1.47372 0.914886 8.19062
5.98982 7.12545 0.490454
6.19651 8.15504 0.876411
1.42985 8.37881 4.86816
8.37204 1.40517 0.330055
9.76958 5.15682 9.51815
1.172 9.88899 1.55394
7.27859 0.546224 7.3948
7.43871 0.576895 7.03169
8.30878 2.82987 3.72769
1.4742 0.855406 8.21929
7.75558 0.672054 6.43368
2.20867 1.52799 0.899388
7.52065 0.266722 7.60965
7.92477 0.955591 7.02784
7.41556 0.328897 7.32086
2.54831 6.39778 5.97065
7.7708 0.400418 7.52851
9.35379 0 0
1.54166 0.898328 8.12978
7.85683 0.711326 7.02663
7.29322 0.245764 7.38775
6.15226 2.41641 8.59206
9.82331 5.09248 4.62159
7.94189 0.318043 7.48334
7.81538 0.504008 7.09518
4.91646 9.82073 2.90377
7.75236 0.136072 7.64325
6.54863 8.66626 9.09792
2.59167 2.93671 3.17522
7.60593 0.66718 7.26025
6.95588 4.92927 6.01811
8.09805 4.64204 2.14592
4.65242 0.631644 2.06287
POINT_DATA 400
SCALARS particleColor float 3
LOOKUP_TABLE default
0.0464279 1 0.953572
0 0.761399 1
1 5.96046e-08 0
1 5.96046e-08 0
1 5.96046e-08 0
0.537637 1 0.462363
0.0137907 1 0.986209
1 5.96046e-08 0
0.199773 1 0.800227
0.845406 1 0.154594
1 0.840793 0
1 0.316152 0
0.276267 1 0.723733
1 5.96046e-08 0
1 5.96046e-08 0
1 5.96046e-08 0
1 0.696889 0
1 0.500232 0
0 0.880036 1
1 5.96046e-08 0
0.286993 1 0.713007
1 5.96046e-08 0
1 5.96046e-08 0
0 0.868532 1
1 0.0566694 0
0 0.791605 1
1 5.96046e-08 0
1 5.96046e-08 0
1 0.119508 0
1 5.96046e-08 0
1 5.96046e-08 0
1 5.96046e-08 0
0.649097 1 0.350903
1 5.96046e-08 0
1 5.96046e-08 0
1 5.96046e-08 0
1 0.343595 0
1 5.96046e-08 0
1 5.96046e-08 0
0.455042 1 0.544958
1 5.96046e-08 0
0.813546 1 0.186454
1 5.96046e-08 0
1 5.96046e-08 0
1 0.695031 0
1 0.952778 0
0.604086 1 0.395914
1 0.864318 0
1 0.831461 0
0.0745705 1 0.92543
0.147891 1 0.852108
1 5.96046e-08 0
1 5.96046e-08 0
0 0.45692 1
1 5.96046e-08 0
1 0.587068 0
1 5.96046e-08 0
0.344388 1 0.655612
0.758019 1 0.241981
0.39658 1 0.60342
1 5.96046e-08 0
0 0.66329 1
1 5.96046e-08 0
0 0.988418 1
1 5.96046e-08 0
1 0.886286 0
1 0.634968 0
1 0.436793 0
0.390711 1 0.609289
0.320852 1 0.679148
0.757696 1 0.242304
1 5.96046e-08 0
1 0.132289 0
0 0.964137 1
1 0.392775 0
1 5.96046e-08 0
0.435024 1 0.564976
1 5.96046e-08 0
1 5.96046e-08 0
1 5.96046e-08 0
1 5.96046e-08 0
1 0.383514 0
0.558574 1 0.441426
1 0.596179 0
1 5.96046e-08 0
1 0.413423 0
1 0.242652 0
1 5.96046e-08 0
1 5.96046e-08 0
1 0.849232 0
0 0.930722 1
0 0.760783 1
1 0.332187 0
1 0.576081 0
1 5.96046e-08 0
1 5.96046e-08 0
1 5.96046e-08 0
1 5.96046e-08 0
0.191359 1 0.808641
1 0.693482 0
1 0.789324 0
1 0.974713 0
1 0.945169 0
0.920321 1 0.0796788
0.969036 1 0.0309643
1 5.96046e-08 0
0.717479 1 0.282521
1 5.96046e-08 0
1 5.96046e-08 0
1 5.96046e-08 0
1 5.96046e-08 0
1 5.96046e-08 0
0.0372916 1 0.962708
0.863539 1 0.136461
0.978837 1 0.0211627
1 0.698123 0
1 0.204115 0
0.936589 1 0.0634114
1 0.933593 0
1 5.96046e-08 0
1 5.96046e-08 0
1 5.96046e-08 0
1 5.96046e-08 0
1 5.96046e-08 0
1 0.745987 0
0.323112 1 0.676888
0.81618 1 0.18382
1 5.96046e-08 0
0.214473 1 0.785527
1 5.96046e-08 0
1 0.877068 0
0.206361 1 0.793639
1 0.60585 0
1 5.96046e-08 0
1 5.96046e-08 0
0.774136 1 0.225864
0.322241 1 0.677759
1 0.452169 0
1 0.0143238 0
0.388409 1 0.611591
1 0.877238 0
0.180777 1 0.819223
1 5.96046e-08 0
1 5.96046e-08 0
0.127639 1 0.872361
1 5.96046e-08 0
1 0.364505 0
1 0.781451 0
1 5.96046e-08 0
1 0.664283 0
0 0.0895728 1
1 5.96046e-08 0
1 0.58677 0
1 5.96046e-08 0
1 5.96046e-08 0
0.133777 1 0.866223
1 0.561388 0
1 0.0275702 0
0.167026 1 0.832974
1 5.96046e-08 0
1 0.905647 0
0.73176 1 0.26824
0.918339 1 0.0816609
0 0.90075 1
1 0.676587 0
0.957201 1 0.0427986
1 0.793165 0
1 0.108299 0
1 0.859276 0
1 5.96046e-08 0
1 0.725634 0
1 5.96046e-08 0
1 0.145029 0
0.824486 1 0.175514
1 5.96046e-08 0
0.989324 1 0.0106757
1 5.96046e-08 0
1 0.62885 0
1 0.54639 0
0.580837 1 0.419163
0.0440492 1 0.955951
1 5.96046e-08 0
0.543953 1 0.456047
0.785739 1 0.214261
1 0.511236 0
1 5.96046e-08 0
0 0.659614 1
1 5.96046e-08 0
0 0.689097 1
1 5.96046e-08 0
1 5.96046e-08 0
0.136158 1 0.863842
1 5.96046e-08 0
0.305836 1 0.694164
1 0.483229 0
0.676627 1 0.323373
1 5.96046e-08 0
1 5.96046e-08 0
1 5.96046e-08 0
0.243232 1 0.756768
0 0.358718 1
1 0.498119 0
1 5.96046e-08 0
1 5.96046e-08 0
1 5.96046e-08 0
0.0825593 1 0.917441
1 5.96046e-08 0
1 5.96046e-08 0
1 5.96046e-08 0
1 5.96046e-08 0
1 5.96046e-08 0
1 0.881802 0
0.536875 1 0.463125
1 5.96046e-08 0
1 0.73701 0
0.726106 1 0.273894
0.680949 1 0.319051
1 5.96046e-08 0
1 0.223614 0
1 5.96046e-08 0
0 0.589612 1
1 5.96046e-08 0
0.0986188 1 0.901381
0 0.551869 1
1 0.874356 0
0 0.910875 1
0.384174 1 0.615826
1 0.0359531 0
0 0.514749 1
1 5.96046e-08 0
1 0.312775 0
0.0535905 1 0.946409
0.156285 1 0.843715
1 5.96046e-08 0
0.813461 1 0.186539
0.373146 1 0.626854
1 5.96046e-08 0
1 0.0282297 0
0 0.308355 1
1 5.96046e-08 0
0 0.355717 1
1 5.96046e-08 0
0.315012 1 0.684988
0.508393 1 0.491607
1 0.637186 0
0.360139 1 0.639861
1 0.215982 0
1 5.96046e-08 0
1 0.179859 0
0.44954 1 0.55046
1 0.772613 0
0 0.896338 1
1 5.96046e-08 0
1 5.96046e-08 0
1 0.546058 0
0.629899 1 0.370101
1 0.967855 0
0.894131 1 0.105869
0.402569 1 0.597431
0.0130829 1 0.986917
0.493615 1 0.506385
0.788851 1 0.211149
1 5.96046e-08 0
1 5.96046e-08 0
0.909724 1 0.0902765
0.36993 1 0.63007
1 0.293423 0
1 5.96046e-08 0
1 0.628564 0
1 5.96046e-08 0
0.975583 1 0.0244171
0.570636 1 0.429364
1 0.570575 0
1 0.970134 0
1 5.96046e-08 0
1 5.96046e-08 0
1 5.96046e-08 0
1 5.96046e-08 0
1 5.96046e-08 0
1 5.96046e-08 0
1 0.655756 0
0.953245 1 0.0467548
0.759866 1 0.240134
1 5.96046e-08 0
1 5.96046e-08 0
1 0.731429 0
0.640373 1 0.359627
0.662784 1 0.337216
1 5.96046e-08 0
1 5.96046e-08 0
1 0.770624 0
1 5.96046e-08 0
0.559925 1 0.440075
1 0.826255 0
1 0.843465 0
1 0.973174 0
0 0.212302 1
0 0.500016 1
0 0.49216 1
0 0.363823 1
1 0.562343 0
1 0.572267 0
0 0.652134 1
0.495913 1 0.504087
0 0.236724 1
1 0.330653 0
0 0.289412 1
0 0.544548 1
1 0.775469 0
1 0.79237 0
0.848532 1 0.151468
1 5.96046e-08 0
0.984248 1 0.0157524
0 0.641553 1
1 0.615108 0
0.946953 1 0.0530465
1 5.96046e-08 0
0 0.666593 1
1 5.96046e-08 0
0.626703 1 0.373297
0.699566 1 0.300434
0.56497 1 0.43503
0 0.436986 1
0 0.754985 1
0 0.752309 1
0 0.894473 1
0 0.611492 1
1 0.785567 0
1 5.96046e-08 0
0 0.430533 1
1 0.189254 0
1 0.745247 0
1 5.96046e-08 0
1 5.96046e-08 0
0.303339 1 0.696661
0.586491 1 0.413509
0.991997 1 0.00800347
0 0.674707 1
1 5.96046e-08 0
1 5.96046e-08 0
1 0.855027 0
1 5.96046e-08 0
1 0.932017 0
0 0.41126 1
0 0.658745 1
1 5.96046e-08 0
0 0.963322 1
0.33983 1 0.66017
0 0.582874 1
1 5.96046e-08 0
0 0.768762 1
0 0.661994 1
0.15738 1 0.84262
1 0.279964 0
0.847102 1 0.152898
0 0.80262 1
1 0.283679 0
1 0.559534 0
0.113646 1 0.886354
0 0.668616 1
1 5.96046e-08 0
0 0.364078 1
0 0.504126 1
0 0.436592 1
1 0.543654 0
1 5.96046e-08 0
0 0.0447474 1
0.867394 1 0.132606
1 0.555375 0
0.988332 1 0.0116677
0 0.712619 1
1 0.0374073 0
1 0.143774 0
0 0.937288 1
0 0.876039 1
0.633626 1 0.366374
0 0.327549 1
1 5.96046e-08 0
1 0.522966 0
0.0713904 1 0.92861
0 0.527436 1
0 0.574749 1
1 5.96046e-08 0
0.0401097 1 0.95989
1 5.96046e-08 0
0 0.311837 1
0 0.620927 1
0 0.375106 1
1 0.153242 0
0.151924 1 0.848076
0 0.38304 1
0 0.868439 1
1 0.25375 0
0 0.273944 1
1 5.96046e-08 0
1 5.96046e-08 0
0 0.474978 1
0 0.602724 1
1 5.96046e-08 0
1 0.542891 0
