# vtk DataFile Version 3.0
Particle simulation
ASCII
DATASET POLYDATA
POINTS 400 float
6.67653 4.29244 2.04528
9.25846 9.02894 1.24744
7.16013 6.72264 6.59562
1.61884 0.196844 9.21674
0.982721 1.7272 2.75611
4.42906 7.63444 9.848
6.16627 3.11216 6.82942
7.86748 8.73673 3.34077
1.5659 1.82328 2.7406
6.32128 0.198933 8.85894
8.9057 1.46038 10
2.78281 9.47657 8.48528
3.49035 10 5.90155
7.44397 9.63631 0.227856
10 1.62029 3.06711
7.54119 6.17501 5.50458
7.02066 8.38063 5.86741
3.538 3.64734 5.4416
7.85013 8.8455 3.49236
0 0.660443 3.13255
7.23187 4.31197 2.72346
1.74126 5.76838 1.35987
1.33313 5.28511 7.93266
10 2.02689 2.96076
7.61761 9.23864 1.86804
2.62272 2.89754 9.3015
7.90864 2.68089 9.62755
5.28405 8.88541 0.337008
8.02553 1.40518 7.6108
9.20755 9.387 8.09833
0.822864 6.3296 4.51753
1.93818 9.21683 1.15444
5.99116 5.55299 6.33634
8.69064 7.71393 9.31165
7.56382 2.7223 7.84761
9.4478 2.55514 8.67352
5.42853 8.82606 2.78589
4.24103 0.208372 5.80791
1.06147 2.61219 4.44118
5.51329 0.897964 1.23051
4.75827 6.98866 2.7221
6.03667 6.34233 5.44504
7.70006 1.67547 9.5588
2.69537 3.73023 9.00116
6.90561 6.46331 7.01022
6.76142 5.00812 8.25063
5.15202 2.62369 0.371163
7.86785 2.70933 2.66332
1.82775 6.17001 6.68316
8.69917 9.47903 3.05272
1.52612 8.48404 3.01271
6.92443 3.61377 2.04598
3.30425 4.29588 5.09118
6.43389 7.1579 2.40749
8.15881 7.78795 5.31489
6.0685 5.09865 2.72378
5.80794 6.59051 0.158963
1.8029 4.49396 6.2279
1.32173 2.47315 8.43513
8.60585 6.83642 1.33775
1.65052 0.338689 9.26312
1.17056 8.91636 2.71139
5.85341 4.36018 6.76475
9.33817 3.84653 0.580993
1.75827 9.66909 9.11024
0.867922 1.55369 3.23472
4.47123 8.20086 5.53685
5.93672 0.496589 3.75373
7.45876 0.523871 1.87184
7.33128 2.20129 8.88176
5.22165 1.49011 0.30879
6.89995 8.81225 7.12066
9.20189 6.96688 7.4783
6.03582 9.34021 4.22559
7.62129 9.83484 7.5349
2.71902 8.04381 2.78524
1.74891 3.45218 5.84472
0.788242 4.39392 6.2614
1.79882 3.33373 1.17679
9.56856 0.423159 8.00068
3.83768 2.3501 5.40641
10 3.5312 3.66968
8.55204 1.54956 5.50639
0.512637 0.729119 9.87171
2.70028 6.6053 7.98956
9.61275 1.71014 2.47517
0.026253 8.33516 5.29722
0.983802 4.71924 0.991845
4.41232 3.38733 5.29515
9.36811 1.60562 9.29619
9.88517 6.47041 0
7.73008 3.12807 9.98126
6.59856 7.0841 8.41342
1.20921 3.7187 8.98733
9.90105 0.403777 8.4941
5.01681 8.01572 9.2063
0.17081 7.34647 2.6222
0.494972 1.08399 0.632849
8.51574 3.18277 3.20497
6.57941 5.91959 9.07269
8.74758 4.42466 6.51194
7.83667 4.07375 9.42684
8.44994 7.92849 9.70808
4.24071 0.279528 7.36847
7.39364 0.435855 7.85015
3.69073 7.8897 8.06135
3.07452 3.52302 3.31877
0 6.22178 1.64489
2.65886 2.85648 2.92493
1.25716 8.70705 5.30932
5.04635 8.86912 9.99649
0.217978 7.411 5.15065
8.43845 5.63045 6.52568
6.05314 4.56737 0.732089
7.46299 3.09221 5.61762
7.97825 0.947243 7.99024
0.163335 6.62134 0.996022
3.74481 3.31688 2.54154
2.90933 2.91172 4.15617
9.62951 0.33823 0.29443
8.96171 9.60999 1.27632
6.89294 0.627976 0.744714
2.40815 5.39325 9.4224
4.82965 6.51143 9.89046
5.13038 9.46236 0.416089
5.83498 8.87045 9.71094
8.71861 1.00711 7.03323
2.79985 3.36707 7.05412
4.10882 0.600748 3.63518
4.60471 0.556077 8.59244
7.87503 2.21834 3.73639
9.07281 9.61316 5.04311
1.68657 4.02734 5.49696
6.11472 0.547769 2.42272
0.320093 8.34569 9.36509
8.5816 3.45377 8.8667
0.819234 4.70579 4.62156
6.36783 6.77304 6.87327
5.55335 0.133398 2.22517
4.2367 3.51358 1.21268
4.66502 6.3475 2.92633
8.90752 1.37566 7.08246
8.06916 4.48212 1.09363
6.81912 5.46506 8.06512
9.20142 0.511008 0.963996
1.17804 8.67869 6.46591
0.260322 8.08463 2.92252
5.51197 4.09496 6.98209
5.64198 2.11186 8.51371
6.72419 0.356316 6.39963
6.86736 0.346033 7.56864
9.19521 1.00612 4.82634
5.00411 7.24375 7.13336
2.12894 9.91773 6.3304
0.249577 7.43143 9.55039
0.525307 3.94015 1.14142
3.46145 7.23275 6.56978
4.15299 8.14029 8.36806
0.683163 5.77685 5.35902
7.30284 1.18787 5.81587
1.62315 5.38131 5.99332
7.9728 1.99018 9.22202
7.46069 8.957 8.69048
9.62196 1.93626 8.24562
3.24101 7.61296 6.76325
6.74707 5.67194 7.45383
9.22541 7.57762 4.97821
5.00086 5.35156 8.01678
0.789032 8.27476 3.69308
3.2029 8.18649 3.07899
6.26264 5.19728 6.46261
7.24726 0.670315 7.7736
9.0673 4.82161 0.193546
10 7.53096 2.09176
7.02865 6.45685 6.41695
5.82266 10 6.67985
1.78287 7.94504 9.61132
2.84494 3.51287 0.0156752
9.10168 5.94195 1.21066
9.68086 0.593695 4.19334
6.4626 1.30638 8.27837
8.32567 0.297089 8.09752
3.95274 2.70739 7.95691
0.00723565 2.80646 6.31666
7.9248 9.14065 3.45197
1.71826 3.95683 8.29781
9.25451 5.15077 6.64128
1.29297 5.51035 2.57126
7.97589 6.93677 7.50642
6.55093 9.77734 1.22599
0.663774 5.81956 1.25306
7.99217 1.14898 0.656113
0.273273 7.49409 7.39346
8.41515 6.83556 5.38945
8.89696 4.27871 6.52859
1.22966 5.24455 8.84854
5.2212 8.68353 7.43048
6.98834 3.5856 2.22685
6.59515 5.92144 2.92563
2.64782 1.19234 6.16425
3.74275 6.85361 8.2264
1.43017 5.0957 3.62531
2.31961 7.9496 3.35011
7.00492 8.18129 4.77693
0.590205 1.11593 4.86608
7.89415 5.00589 1.42799
2.32853 2.32502 3.66842
5.18731 2.62981 8.64128
8.45514 2.57056 9.71743
7.80674 2.43175 3.63872
0.275484 1.85294 9.76918
0.648244 10 9.59273
3.22129 9.30567 9.63358
8.45753 2.83096 2.92498
6.47135 4.52331 1.06473
0.155069 10 6.38197
1.80145 6.52273 2.19488
7.04574 5.72535 3.11683
6.2258 1.67109 9.93966
5.0438 4.21044 0.629976
2.20099 3.7202 8.17056
1.23015 4.85582 6.35795
6.4451 2.27363 3.58872
6.4588 7.59085 9.27746
6.52532 9.02878 1.12799
5.62741 2.73298 6.88734
0.207885 7.81228 9.34639
3.05333 5.55131 7.65553
6.68194 0.444513 8.08603
7.48406 9.64487 7.55722
7.48755 1.19176 4.01821
8.31013 6.0029 2.66064
5.83006 7.5474 10
0.621987 8.58683 5.00295
8.26032 3.34313 1.5837
1.95276 1.8611 1.28221
7.52037 5.56832 7.84792
5.11749 1.38896 0.779688
0.37198 5.03579 9.21461
0.986073 7.97392 9.4625
6.71577 0.500679 7.66094
7.76478 4.71512 0.786231
2.08177 5.87174 7.8548
6.97213 4.90163 0.330624
8.60271 8.00803 5.11941
7.4179 0.434586 1.81348
7.11866 0.961424 8.37814
2.27381 5.70633 9.49774
1.86224 5.94724 9.09701
2.09577 3.98756 0.123496
9.02483 0.591856 9.17204
4.85029 0.439126 0.695271
2.42102 2.19277 1.34819
8.77847 5.42419 0.891307
6.23062 0.971769 8.71206
0.684801 6.29426 4.33649
2.8143 1.73723 4.86241
9.56415 1.73547 7.5026
7.99762 2.34057 2.73513
7.15072 2.6624 3.42106
7.00294 6.96045 6.82147
3.90126 5.44794 2.34659
0.273705 1.57289 8.24968
8.25473 5.77678 10
9.33777 5.18268 9.60981
0.367043 2.00627 4.78117
5.4271 8.39224 6.75661
1.56318 1.15254 0.122908
3.15306 0.00283295 2.87655
2.11674 4.34181 1.29511
4.84893 1.48011 5.7164
3.16725 3.56994 10
2.1436 0.440896 9.12198
1.27389 0.59276 9.75662
2.83774 8.68166 2.83359
5.32788 3.39915 8.0008
8.01106 5.14977 1.50637
8.40904 8.08467 4.43047
4.236 6.83976 10
7.6611 2.59075 7.79848
1.58567 9.47494 4.74021
6.07834 3.92802 4.19597
2.92966 5.52899 3.2879
8.81405 4.5018 4.85132
1.1481 0.995249 6.15517
5.45713 1.56141 5.23975
1.73049 2.3246 6.4436
8.98719 0.251629 6.64224
2.23122 6.69597 1.3682
6.81564 5.74473 5.75403
8.56403 8.52508 5.15012
8.64559 4.6235 2.30692
6.61324 9.39877 4.76017
9.94167 5.16077 9.92979
6.29215 3.91488 1.67281
4.32712 0.38223 7.57209
7.00387 8.00621 8.44186
2.40496 2.21367 3.12552
6.82388 0.527646 7.44239
1.81955 0.592452 0.519649
4.48827 0.827148 0.237685
4.35146 3.15314 0.840623
6.68672 0.744947 2.87379
6.85139 1.14812 1.26542
6.39975 0.383824 8.23333
7.73667 5.75788 0.469974
0.44517 5.13559 0.28887
6.68122 0.251779 7.70509
9.01921 1.04303 2.94211
2.97963 1.02219 1.78691
1.08847 9.18233 7.46396
0.299229 1.57031 9.91918
6.51782 9.41024 0.349047
4.91648 1.32807 6.21097
6.64625 1.14274 5.30439
2.31044 5.45921 1.15759
10 3.12967 2.46963
6.97185 0.894015 2.88041
6.38748 8.70867 3.75029
0.786177 4.3842 5.82716
5.82913 8.86069 2.97931
8.75823 0.283628 5.33366
4.07699 4.97447 7.36516
5.98656 0.653202 4.41118
6.49786 0.510791 7.97031
0.956022 2.16287 9.00424
2.06346 5.51892 3.80062
0.59015 7.05061 2.24766
7.02213 2.66154 5.48681
6.82284 0.300421 7.84189
3.35425 2.78452 9.57033
1.80888 0.763809 0.540289
8.80119 4.06716 7.04748
0.357868 0.996819 7.99273
7.67469 7.59557 6.78874
2.2298 1.89261 4.60226
0.98943 4.68824 6.44971
6.4225 0.203284 7.64241
5.81658 4.63175 0.452494
0.190783 9.72432 0.502652
2.11356 0.553003 2.60021
9.09225 2.66022 2.48528
0.945383 7.43559 3.43362
1.77934 0.991221 9.63576
2.12132 0.599084 1.01286
9.56364 8.96327 1.40213
1.7107 0.0919672 2.21127
7.10659 3.25529 0.82681
7.24545 0.301715 7.86092
5.38928 3.06766 2.33962
6.61754 0.51289 8.17021
6.61771 0.212772 7.85498
9.44952 4.87283 7.46394
7.98916 9.00286 2.77088
7.19321 0.960288 1.07948
6.4782 0.2575 7.99865
4.60262 6.82648 4.03931
1.651 2.60628 3.35333
5.34299 0 6.07602
6.74552 0.381487 7.55815
5.31198 9.21799 2.18639
0.89511 4.68434 1.63018
3.50056 2.57234 9.69899
6.81315 0.334567 7.5713
7.17634 3.69156 2.01988
5.16112 2.0806 1.4985
3.50108 2.60909 9.90695
1.95377 3.40967 5.60706
1.0212 2.16478 4.26388
3.37814 2.01994 9.54972
1.71561 0.145256 2.14148
7.56232 9.46741 5.52926
9.87364 7.36724 7.6838
6.74211 0.237462 7.581
6.82386 0.0383458 7.57275
8.83431 10 2.51846
3.60979 2.64306 9.87446
5.69296 0.552293 3.64173
6.27194 1.30404 7.82686
6.7686 0.107134 7.3988
6.45411 2.2231 9.69079
6.87454 0.436408 7.5311
1.33469 3.07445 9.15555
6.94317 0.196174 7.26432
0.343328 9.46618 0.288537
3.57109 2.73106 9.80103
6.60774 0.303688 7.66837
6.82111 0.435085 7.60243
6.17466 1.02585 5.27822
7.9741 9.47995 8.74835
6.86046 0.242364 7.73511
6.93752 0.243467 7.80194
1.37355 4.26161 4.45788
6.89347 0.683233 7.51063
1.07454 2.4349 6.22188
2.34124 3.94345 1.89846
6.80655 0.440437 8.11438
8.61787 1.13392 7.17092
7.80853 9.62977 8.40861
7.76258 0.839408 3.33773
POINT_DATA 400
SCALARS particleColor float 3
LOOKUP_TABLE default
1 0.514791 0
1 5.96046e-08 0
1 0.770029 0
1 0.0850824 0
0.108176 1 0.891824
0 0.700514 1
1 0.19364 0
1 5.96046e-08 0
0.706539 1 0.293461
1 0.159498 0
1 0.986387 0
1 5.96046e-08 0
1 0.36248 0
1 0.751436 0
0.144398 1 0.855602
1 5.96046e-08 0
1 5.96046e-08 0
1 0.302768 0
0.172078 1 0.827922
1 0.920251 0
1 5.96046e-08 0
1 5.96046e-08 0
1 5.96046e-08 0
0.964681 1 0.0353188
0.433524 1 0.566476
1 5.96046e-08 0
1 5.96046e-08 0
1 0.677176 0
1 0.844817 0
1 5.96046e-08 0
1 5.96046e-08 0
1 5.96046e-08 0
0.990334 1 0.00966609
0 0.742953 1
1 0.168635 0
0.667091 1 0.332909
0.788473 1 0.211527
0.982014 1 0.0179858
1 0.00735444 0
1 5.96046e-08 0
1 5.96046e-08 0
0.923452 1 0.0765479
0.865605 1 0.134395
0.176011 1 0.823989
1 0.966401 0
0.792698 1 0.207302
1 5.96046e-08 0
0.298274 1 0.701726
1 0.753314 0
0.315488 1 0.684512
1 0.634346 0
0.771246 1 0.228754
1 0.356234 0
1 5.96046e-08 0
1 5.96046e-08 0
0.997083 1 0.00291717
0.73354 1 0.26646
0.903358 1 0.0966417
1 0.728469 0
1 0.85745 0
1 5.96046e-08 0
1 5.96046e-08 0
1 0.324224 0
1 5.96046e-08 0
1 5.96046e-08 0
0.565609 1 0.434391
1 5.96046e-08 0
1 5.96046e-08 0
1 0.188028 0
0.289319 1 0.710681
1 5.96046e-08 0
1 5.96046e-08 0
1 0.951577 0
1 5.96046e-08 0
1 5.96046e-08 0
1 5.96046e-08 0
1 0.616772 0
1 5.96046e-08 0
0 0.945652 1
0.619802 1 0.380198
0.114521 1 0.885479
1 0.359242 0
0 0.926563 1
1 0.966526 0
1 5.96046e-08 0
0.218607 1 0.781393
1 5.96046e-08 0
1 5.96046e-08 0
1 5.96046e-08 0
0.174457 1 0.825543
1 0.683562 0
0.332572 1 0.667428
1 0.876075 0
1 0.439796 0
1 0.329607 0
1 5.96046e-08 0
1 0.0370803 0
1 5.96046e-08 0
0.466386 1 0.533614
1 0.278932 0
1 5.96046e-08 0
0.547842 1 0.452158
1 5.96046e-08 0
1 0.155887 0
0.625742 1 0.374258
1 5.96046e-08 0
1 5.96046e-08 0
1 5.96046e-08 0
0.987921 1 0.0120794
0.0775952 1 0.922405
1 5.96046e-08 0
0.684412 1 0.315588
0.0513231 1 0.948677
1 5.96046e-08 0
0.581042 1 0.418958
1 0.832352 0
1 0.788003 0
0 0.933665 1
1 5.96046e-08 0
1 0.956553 0
0.0838451 1 0.916155
1 0.0635186 0
1 0.429183 0
1 5.96046e-08 0
1 0.56314 0
1 5.96046e-08 0
1 0.704236 0
1 0.586013 0
0.816527 1 0.183473
0.799198 1 0.200802
1 5.96046e-08 0
1 0.61811 0
0.335286 1 0.664714
0.319687 1 0.680313
1 5.96046e-08 0
1 0.743506 0
0.277625 1 0.722375
1 0.646551 0
1 5.96046e-08 0
1 5.96046e-08 0
0.764759 1 0.235241
0.588504 1 0.411496
1 0.558563 0
0.506401 1 0.493599
1 5.96046e-08 0
0.41633 1 0.58367
1 0.53166 0
1 5.96046e-08 0
1 0.778425 0
1 0.208222 0
0 0.872668 1
1 0.523705 0
1 5.96046e-08 0
0.657592 1 0.342408
0.915113 1 0.0848873
1 0.90034 0
1 0.259598 0
1 5.96046e-08 0
1 0.416526 0
1 5.96046e-08 0
0.777362 1 0.222638
1 0.930949 0
1 0.251767 0
1 0.204233 0
1 0.610962 0
1 5.96046e-08 0
0.100963 1 0.899037
1 5.96046e-08 0
1 0.0208359 0
1 0.815857 0
1 5.96046e-08 0
0.548688 1 0.451312
1 0.0467054 0
1 5.96046e-08 0
1 0.0116616 0
0.614321 1 0.385679
1 0.915106 0
1 0.858033 0
0 0.828343 1
1 5.96046e-08 0
0 0.778651 1
0.240103 1 0.759897
0.171137 1 0.828863
1 5.96046e-08 0
1 0.746087 0
0 0.505557 1
1 5.96046e-08 0
1 0.352216 0
1 0.528656 0
1 0.975638 0
1 5.96046e-08 0
0.82132 1 0.17868
0.0940093 1 0.905991
1 0.857022 0
0.0758911 1 0.924109
1 5.96046e-08 0
1 5.96046e-08 0
0 0.571006 1
1 5.96046e-08 0
0.390302 1 0.609698
1 0.6195 0
1 5.96046e-08 0
1 0.132584 0
1 5.96046e-08 0
1 0.0417326 0
1 0.488234 0
1 0.192166 0
0.722618 1 0.277382
1 5.96046e-08 0
0.975953 1 0.024047
0.1753 1 0.8247
0.213214 1 0.786786
0.165052 1 0.834948
1 0.0119904 0
0.593545 1 0.406455
1 5.96046e-08 0
1 0.350926 0
1 5.96046e-08 0
0 0.754639 1
1 0.103062 0
1 5.96046e-08 0
1 0.789399 0
1 0.378945 0
0.810771 1 0.189229
1 5.96046e-08 0
1 5.96046e-08 0
1 0.207425 0
1 5.96046e-08 0
0 0.531359 1
0.412159 1 0.587841
0.566598 1 0.433402
1 5.96046e-08 0
1 0.888644 0
1 5.96046e-08 0
0 0.969747 1
1 5.96046e-08 0
1 5.96046e-08 0
1 0.990256 0
1 5.96046e-08 0
1 5.96046e-08 0
0 0.36523 1
1 5.96046e-08 0
1 5.96046e-08 0
1 0.0485861 0
0.636556 1 0.363444
1 5.96046e-08 0
1 5.96046e-08 0
0.756945 1 0.243055
1 0.937551 0
1 0.743267 0
1 5.96046e-08 0
1 0.310241 0
1 5.96046e-08 0
1 0.0804381 0
1 0.2431 0
0.231845 1 0.768155
0.151792 1 0.848208
0.525528 1 0.474472
1 0.10888 0
0.539329 1 0.460671
0.0188733 1 0.981127
1 0.237727 0
0.802217 1 0.197783
1 5.96046e-08 0
1 0.335912 0
0.491445 1 0.508555
1 0.180307 0
0.122842 1 0.877158
1 5.96046e-08 0
0.854675 1 0.145325
1 5.96046e-08 0
0.850609 1 0.149391
1 0.255033 0
1 0.414178 0
0.945618 1 0.0543824
1 5.96046e-08 0
1 0.968781 0
1 0.470986 0
1 5.96046e-08 0
1 0.909481 0
1 0.924438 0
1 5.96046e-08 0
1 0.643666 0
1 0.682557 0
0.276888 1 0.723112
1 0.0815326 0
0.148341 1 0.851659
1 5.96046e-08 0
1 5.96046e-08 0
1 5.96046e-08 0
1 0.876162 0
1 0.270219 0
1 0.667607 0
0 0.956316 1
1 5.96046e-08 0
0.85233 1 0.14767
1 5.96046e-08 0
0 0.746578 1
0 0.473066 1
0.132733 1 0.867267
0.975246 1 0.0247538
1 5.96046e-08 0
0.523375 1 0.476625
1 0.768857 0
0 0.465092 1
1 5.96046e-08 0
1 5.96046e-08 0
0.125819 1 0.874181
1 0.270744 0
0.163022 1 0.836978
0.531195 1 0.468805
0.99584 1 0.00415951
1 5.96046e-08 0
0.828438 1 0.171562
1 0.261938 0
1 0.180624 0
1 5.96046e-08 0
0 0.785157 1
1 0.648416 0
0.785192 1 0.214808
0.813473 1 0.186527
1 0.984874 0
1 5.96046e-08 0
0 0.896423 1
0 0.353919 1
1 5.96046e-08 0
1 0.730267 0
0.406077 1 0.593922
0.685798 1 0.314202
0 0.446811 1
0.574455 1 0.425545
0 0.68213 1
0.639752 1 0.360248
1 5.96046e-08 0
1 5.96046e-08 0
0.423964 1 0.576036
0.617361 1 0.382639
0 0.523621 1
1 5.96046e-08 0
1 5.96046e-08 0
1 5.96046e-08 0
1 5.96046e-08 0
1 5.96046e-08 0
0 0.833647 1
1 0.787834 0
0.765702 1 0.234298
0 0.623132 1
1 0.789087 0
0 0.272031 1
1 0.355069 0
0 0.922745 1
0 0.831226 1
0.0954312 1 0.904569
1 0.144168 0
0 0.625521 1
0 0.674963 1
0.609161 1 0.390839
1 0.94355 0
0.591029 1 0.408971
0 0.519645 1
0.595158 1 0.404842
1 5.96046e-08 0
0 0.723354 1
0 0.375281 1
0.367458 1 0.632542
0.292278 1 0.707722
0 0.315945 1
0 0.71356 1
0.924636 1 0.0753639
0 0.316739 1
0 0.693164 1
1 5.96046e-08 0
1 0.952593 0
0 0.348386 1
0 0.46445 1
1 5.96046e-08 0
0 0.529309 1
1 0.258468 0
1 5.96046e-08 0
0 0.587963 1
0 0.34639 1
0 0.934163 1
1 0.63336 0
0 0.572124 1
1 5.96046e-08 0
0 0.472343 1
0 0.634525 1
0 0.94242 1
1 5.96046e-08 0
0.226907 1 0.773093
0 0.671185 1
0 0.605319 1
0.0453422 1 0.954658
0 0.792256 1
0 0.610074 1
1 5.96046e-08 0
0 0.239809 1
1 0.445598 0
0.858694 1 0.141306
0.999377 1 0.000622571
