# vtk DataFile Version 3.0
Particle simulation
ASCII
DATASET POLYDATA
POINTS 400 float
5.4615 2.52891 10
6.91177 9.11202 6.86499
0.147968 3.98527 9.01849
1.17079 2.69526 4.49106
5.62835 0.833658 0.861466
6.75581 0.59231 5.07393
2.13923 8.3978 5.32099
2.12712 9.45302 2.27947
5.71817 6.27589 0.772429
5.64679 2.15206 9.28531
8.28197 0.639011 4.27778
7.42816 6.10368 9.08142
9.91794 3.71501 7.46953
6.84941 5.17658 10
0.561113 0.574842 1.26901
0.328164 7.69873 7.56344
0.349346 9.62248 9.72236
5.29508 0.660331 4.23373
4.06738 4.32839 7.20368
1.4838 9.03643 6.20141
2.20458 2.43539 2.55292
9.0659 7.02383 1.83959
1.33728 3.27182 1.75759
2.63533 4.85827 9.10414
9.86185 5.91075 8.77701
2.02533 5.7304 0.756082
8.09855 8.39956 2.4553
7.33706 4.36323 4.42405
8.24386 0.509999 5.81695
4.46072 1.99402 8.9382
4.43225 2.53269 5.22393
9.76471 1.38784 2.16853
6.20365 4.70979 0.000907302
1.31098 6.52996 6.40377
5.69793 2.50608 1.59813
10 7.20275 0.383631
9.24575 4.13359 6.87811
9.52668 0.97557 1.83538
6.91928 7.75125 7.19652
0.814157 9.98047 1.23395
8.09742 9.15636 5.3147
6.86044 9.91112 2.19773
9.64811 8.56932 8.08999
1.98166 0.45312 0.534786
5.18935 8.65952 9.68269
4.13501 0.848597 0.852762
8.07927 1.37532 7.14968
6.18311 3.16671 0.197471
2.93822 2.09302 7.01694
2.53694 4.68709 5.85393
7.02741 9.5684 7.21027
9.47792 7.90438 7.64683
0.0790915 1.31424 5.24496
1.93453 2.9175 2.53886
1.09965 8.39439 0.74638
1.10254 0.119317 1.90216
0.299647 5.78085 0.566808
4.04169 0.452909 7.73872
5.16374 2.42384 2.44416
9.26648 0 5.11176
6.13574 6.87238 3.5365
7.30862 5.68829 6.21157
4.31952 1.69393 0.553178
5.06391 9.35373 7.03678
2.90907 7.67201 0.245799
5.52268 1.83966 9.35616
5.85247 5.28257 0.339885
5.75352 3.38253 0.0406761
0.280597 4.48875 8.52453
1.97901 2.7811 2.76585
6.67072 0.0154977 5.16519
8.7422 5.66028 1.16353
2.10758 7.97934 1.403
4.20255 1.01242 6.35044
2.71838 8.15624 1.04878
10 3.62982 0.14604
5.80483 6.14875 5.64305
8.24418 6.19906 2.59979
3.39121 6.89823 8.31633
7.05195 2.51043 0.440283
9.93802 8.80732 3.0079
2.99428 8.90865 3.3703
0.158487 0 4.09264
2.89141 0.830755 2.25634
7.50353 7.08759 6.99825
9.88873 1.7144 9.77949
9.01933 0.878764 2.62747
4.43436 7.7382 9.28184
5.03772 8.44924 7.10093
3.46409 3.23571 0.564783
5.01908 0.635559 2.90913
5.19626 5.47651 7.58231
8.5897 6.61605 8.05379
10 2.60135 9.58076
5.25807 2.77056 3.89265
6.23664 4.49479 1.4085
6.05786 2.87496 3.16743
4.10281 1.33846 5.55509
4.87832 5.79868 5.56182
6.26347 1.78601 4.85936
1.19197 2.40933 7.72054
3.35154 3.31262 1.7648
3.30257 8.19551 9.44722
5.78749 2.27038 6.67863
0.611467 8.72723 9.03143
1.22796 2.42319 3.46139
6.78154 5.92523 0.888922
8.54986 7.65091 1.33831
0.285083 7.80151 5.11115
4.21451 1.07172 3.3395
2.99099 4.29683 8.61991
0.0264971 4.97309 2.93758
1.35893 3.33117 3.43764
3.42792 5.45282 0.557378
2.7472 3.09222 6.53947
3.30856 4.54982 7.9856
8.22569 5.18022 0.810803
0.53326 0.266291 2.83821
5.67022 2.64723 8.55466
4.19371 7.91135 5.79826
0.690914 0 0.616154
7.02138 3.20623 5.35742
8.18877 6.00569 7.84866
8.46483 1.58783 4.85692
3.65989 3.86151 9.01535
3.92097 0.385501 7.55533
8.59286 9.54933 0.586332
1.26601 2.74255 1.60152
5.32036 9.49315 8.02111
4.59375 4.94349 3.52817
1.45511 7.21907 9.57816
1.18437 3.21267 3.51996
1.43517 6.46819 4.3962
4.16602 4.00854 2.62744
0.94895 3.62767 4.00542
4.13344 1.02996 8.68847
5.36516 1.26097 9.72341
3.78575 7.18624 6.39426
6.4874 3.77437 8.16913
9.27012 5.33202 4.26011
5.09748 0.677474 3.97037
9.97474 3.12816 8.38086
8.88125 2.55274 2.05578
5.51981 4.11664 7.25005
5.36043 9.0141 7.20901
0.0706085 0.039712 4.23752
9.5319 1.76247 2.43953
5.82718 0.803723 7.59389
9.23681 2.30072 4.60906
5.49589 2.35343 6.2739
4.95564 0.574588 4.2023
4.80462 0.29664 9.94729
0.489563 8.04642 8.08296
1.81134 3.49104 9.4099
8.04842 5.88849 3.25622
3.46903 6.65477 2.15563
0.54291 7.37038 9.57343
3.52656 8.25871 0.55911
1.61701 4.92368 4.98464
9.89092 1.95736 4.59876
5.62619 3.30074 2.31029
3.48918 2.41556 7.31728
1.26404 0.287387 2.91608
1.72492 2.29647 8.33989
5.15771 6.40169 5.84788
4.94955 6.89488 7.11323
1.86226 0.493439 0.26817
3.39089 5.13534 9.40192
10 8.40601 5.46576
6.03158 3.47716 1.86176
2.4299 4.98725 9.529
0.577106 3.58642 8.30337
1.49171 7.09896 6.71581
8.50884 7.08931 6.59777
4.77943 1.35403 4.75658
3.95913 4.43779 9.99694
5.7316 3.34942 6.36259
4.64151 8.9731 6.74952
0.925604 0.339448 1.44536
5.96226 8.66003 5.94547
2.88318 2.6839 1.78043
6.50238 0.355466 3.79257
0.161086 7.48438 1.84902
0 4.49069 7.03792
7.06254 3.77478 0.928578
3.78812 7.93962 4.10169
4.76064 0.289688 4.1151
7.99839 9.93026 3.25195
9.60963 9.80105 6.77959
7.46125 1.47758 8.76278
6.44158 1.2317 9.25248
3.76553 0.404943 3.24912
6.76695 5.49026 0.877218
1.32817 9.87236 9.70612
1.71409 1.95534 5.44524
6.98057 0.178137 6.1771
0.417795 0.377054 0.781823
6.81682 3.11893 5.90482
8.61653 0.80721 4.88481
2.03294 1.81578 2.58789
5.0553 0.4389 4.25693
0.371351 0.242054 0.10543
9.82256 6.72617 1.59973
3.38179 8.61673 9.75787
5.71899 9.4091 2.297
6.41854 5.29428 7.98307
9.39193 2.78901 3.75909
5.63205 8.82335 7.22178
5.68456 0.102739 1.25571
4.03847 1.31666 8.30597
5.11223 0.330659 4.07443
4.82854 0.322362 4.53164
0 5.07066 2.24099
1.51562 1.88338 1.03123
2.65015 3.84529 0.540173
1.07846 1.05628 6.85286
5.17992 0.791192 4.3125
4.90294 9.58091 0.618258
0.298906 5.65196 8.22999
0.252134 9.48443 7.47852
2.7322 6.71523 7.22874
1.02017 6.93543 7.35263
8.16679 6.18841 8.87422
4.50578 0.681149 4.1756
2.73899 6.33766 3.63746
5.69265 4.49916 0.234321
3.17866 6.44269 1.74362
5.34299 0.583972 3.9339
5.01507 0.729332 3.87363
2.98736 0.320961 7.51175
7.72071 0.185165 9.77986
2.0389 9.30757 1.22686
3.06135 0.716712 8.98692
5.07918 0.512018 3.64074
1.68054 1.52562 8.0862
6.84102 1.3611 1.77108
7.94518 7.70441 3.32658
8.03391 0.864911 1.95436
4.79555 0.365733 4.25614
4.22044 8.70862 8.35487
4.64384 0.654972 4.22746
9.4505 0.872735 1.68309
8.91945 4.7925 3.04612
8.39004 2.17645 2.40149
5.27036 6.84183 7.0082
6.69787 7.12795 2.57611
1.33158 5.86054 3.73421
7.50388 9.53646 3.13112
6.86491 1.89609 0
5.19764 0.461391 5.49487
4.94947 0.421579 4.12076
1.37826 3.85438 3.46008
3.29226 3.93433 4.82295
1.13638 6.5674 1.9602
6.13203 7.11677 8.924
8.62121 3.78771 3.53322
8.62577 4.07318 7.21661
1.60055 0.547976 7.89155
8.33379 9.60677 10
9.05497 7.0125 3.81851
3.74151 8.69711 1.18313
1.80478 4.29811 0.329402
3.1225 9.44271 7.94781
7.65359 5.38062 9.41108
7.15231 10 5.96472
3.65345 2.39633 6.03165
5.58117 3.34498 0.131786
7.64573 2.42428 9.8836
9.41523 8.60421 7.85945
2.23318 1.84789 8.83199
5.2112 0.537992 4.22316
0.948557 9.68548 3.29684
7.64258 10 1.97866
9.61946 6.89038 6.01318
10 7.43038 0.92753
7.53941 2.65243 3.88174
6.64663 0.1984 6.12474
7.68399 5.61741 9.10812
0.317937 3.20965 0.185642
4.96059 0.589899 4.34567
6.31522 1.91086 0.814789
7.8397 1.18173 2.18319
2.84364 4.45221 7.81041
7.91746 7.40753 1.84322
7.0333 6.75213 1.03001
7.7522 3.40759 0.816755
5.38063 0.612571 4.31921
2.17456 4.72536 5.64335
4.68047 5.96579 6.70789
5.8603 2.33718 9.37974
5.35816 6.65288 0.561469
5.14779 7.93423 4.76757
3.28217 3.05517 2.88072
5.84029 6.5729 6.84401
1.99344 8.22328 7.68853
1.87315 0.854329 8.02133
5.26443 0.209524 4.05076
5.2099 0.351553 4.11739
4.43241 0.481609 4.39742
4.9802 0.434109 4.07756
5.79655 9.45179 1.04548
4.34217 4.356 9.49718
5.14486 0.29413 4.05859
1.31516 1.10007 2.87355
5.4838 0.473776 4.28205
8.53783 8.536 7.25295
4.81133 0.208617 3.99121
4.88243 0.577951 4.1902
3.92162 2.1312 4.95255
9.79663 7.49012 0.524362
9.33567 8.22531 7.18543
6.04232 6.74789 7.96877
5.25543 9.35757 0.905995
5.49924 0.242158 3.83991
9.33339 6.10161 8.35137
9.94496 3.88959 2.60433
4.55854 9.0746 9.55779
6.03586 6.39555 6.44175
3.24699 2.63331 3.13382
1.77879 6.20206 8.54749
1.89353 1.08061 7.8852
6.42702 1.77109 9.44523
1.69659 0.746887 7.8651
4.66966 0.569897 4.14685
5.74202 0.159998 4.37603
5.77243 8.3092 2.64636
5.0605 0.341711 4.35378
10 3.41793 2.0202
3.30545 4.89976 3.87608
4.85571 0.423486 4.02369
0.548394 3.62682 9.58734
0.534984 10 2.73479
3.83 8.90282 0.365136
9.10016 8.45688 7.78575
9.19358 0.999469 3.55007
5.47412 1.32976 2.3559
0.198063 4.35534 9.10231
4.84522 0.550053 4.06713
0 3.94478 8.06838
7.68568 9.49307 9.6146
6.27345 4.64712 4.79435
1.89244 9.0094 1.97412
3.07764 1.43743 6.12254
1.90531 0.939782 7.7461
5.17586 0.424208 4.07282
5.20122 0.264241 4.62308
9.91798 0.371509 3.05541
4.35399 0.210701 4.12165
4.75173 0.144128 3.9427
4.88943 0.230485 9.202
4.49575 0.77436 3.9864
4.66413 0.547931 4.09128
1.17993 9.58702 9.52292
9.935 6.52288 4.32609
2.41361 2.99292 7.01751
5.16546 0.641385 4.00499
9.55402 3.13168 7.82224
4.48715 4.97621 8.67541
4.97027 0.376568 4.48672
4.77643 0.718994 4.31668
9.85408 0.744385 3.24335
1.83122 0.825081 7.92977
1.89992 0.923194 8.05979
4.38983 0.338621 4.28396
5.22597 0.330442 4.47168
9.32132 0.623211 3.50031
2.01807 0.798476 8.05419
4.60965 6.14889 6.2369
1.83695 0.531517 7.94525
8.52038 6.88058 6.87685
9.9552 0.616545 3.09022
3.63515 5.91251 5.4886
4.02564 4.60501 8.36672
5.68857 0.373907 4.54655
5.57505 0.561612 4.34167
9.36251 1.2371 3.40019
1.69115 1.09599 8.04226
2.3088 0.5472 7.68118
0.082829 1.45404 8.28627
4.4026 0.72403 3.99375
4.70467 0.748093 3.96445
5.09663 0.491402 4.37341
4.71304 7.22543 6.61932
4.83359 0.974161 4.07806
1.89008 8.11806 0.898211
1.93393 0.85417 8.01003
4.92694 0.417143 3.90198
4.92764 0.172992 4.36771
1.73531 8.32575 8.35795
2.63629 1.802 6.56567
4.79111 0.275823 3.79058
4.64592 0.875848 3.86582
2.09482 0.670699 7.52796
5.32447 0.82427 4.10008
4.04562 4.0373 2.40585
2.19267 0.650505 8.41007
4.60817 0.439301 3.83864
0.261791 3.7302 1.82293
7.91946 8.90092 4.32744
8.15078 0.949317 2.2271
POINT_DATA 400
SCALARS particleColor float 3
LOOKUP_TABLE default
0.416835 1 0.583166
1 5.96046e-08 0
1 0.814381 0
1 0.790001 0
0.717513 1 0.282487
0.630362 1 0.369638
1 0.132169 0
0.590307 1 0.409693
1 5.96046e-08 0
0.39208 1 0.60792
0.536143 1 0.463857
1 0.177016 0
1 0.583251 0
1 5.96046e-08 0
0.891962 1 0.108038
1 5.96046e-08 0
1 5.96046e-08 0
0 0.354975 1
1 5.96046e-08 0
1 0.26624 0
0.956593 1 0.043407
0.828275 1 0.171725
1 5.96046e-08 0
1 0.864943 0
1 0.241773 0
1 5.96046e-08 0
0.280109 1 0.719891
0.762507 1 0.237493
0.0128237 1 0.987176
0 0.994535 1
1 5.96046e-08 0
0 0.87741 1
1 5.96046e-08 0
1 0.175452 0
1 0.642687 0
0.416412 1 0.583588
0.724612 1 0.275388
0.182227 1 0.817773
1 0.492186 0
0.0712489 1 0.928751
1 5.96046e-08 0
1 0.986635 0
1 5.96046e-08 0
1 5.96046e-08 0
0.0770548 1 0.922945
1 5.96046e-08 0
0.145759 1 0.854241
1 5.96046e-08 0
1 5.96046e-08 0
1 5.96046e-08 0
1 5.96046e-08 0
1 0.415468 0
1 5.96046e-08 0
1 0.979772 0
1 5.96046e-08 0
0.385379 1 0.614621
1 0.447491 0
0 0.704627 1
1 0.315757 0
0.429111 1 0.570889
1 0.736094 0
1 0.537053 0
1 5.96046e-08 0
0 0.606642 1
1 0.595239 0
0.420824 1 0.579176
0.413973 1 0.586027
1 0.182278 0
0.150307 1 0.849693
0.262094 1 0.737906
0.601678 1 0.398322
0.557735 1 0.442265
1 0.719368 0
0.613634 1 0.386366
1 5.96046e-08 0
0.761555 1 0.238445
0.789719 1 0.210281
1 5.96046e-08 0
0.481436 1 0.518564
1 0.417384 0
1 5.96046e-08 0
0.719315 1 0.280685
1 0.18702 0
1 0.449634 0
1 5.96046e-08 0
1 0.899827 0
1 5.96046e-08 0
1 0.240043 0
1 5.96046e-08 0
1 5.96046e-08 0
0.57357 1 0.42643
1 5.96046e-08 0
1 5.96046e-08 0
0.95506 1 0.0449398
0 0.930951 1
0.8376 1 0.1624
1 0.402648 0
1 5.96046e-08 0
0.0318822 1 0.968118
1 5.96046e-08 0
0.6699 1 0.3301
1 0.208418 0
1 5.96046e-08 0
1 0.0357138 0
1 0.950979 0
1 5.96046e-08 0
1 5.96046e-08 0
1 0.621542 0
0.450635 1 0.549365
1 5.96046e-08 0
1 5.96046e-08 0
1 5.96046e-08 0
1 0.546236 0
1 0.21755 0
0 0.517567 1
1 0.986998 0
1 0.0392008 0
0.791936 1 0.208064
0.456754 1 0.543247
1 0.695735 0
0.584144 1 0.415856
1 5.96046e-08 0
1 0.580688 0
1 5.96046e-08 0
1 0.509783 0
0.156127 1 0.843873
1 0.722146 0
1 5.96046e-08 0
0.153462 1 0.846538
1 5.96046e-08 0
0.867442 1 0.132558
1 5.96046e-08 0
1 5.96046e-08 0
0.721481 1 0.278519
1 0.776845 0
0.888254 1 0.111746
1 5.96046e-08 0
0.649984 1 0.350016
0.115106 1 0.884894
0 0.24802 1
0 0.438974 1
0.547657 1 0.452343
1 5.96046e-08 0
1 5.96046e-08 0
1 5.96046e-08 0
1 0.414256 0
0.237989 1 0.762011
0.629576 1 0.370424
0.628917 1 0.371083
1 0.972175 0
0 0.326124 1
1 5.96046e-08 0
1 5.96046e-08 0
0.872043 1 0.127957
1 0.279667 0
1 0.159911 0
0.141532 1 0.858468
1 0.542267 0
1 0.22061 0
1 0.849443 0
1 0.352045 0
0.546612 1 0.453388
1 5.96046e-08 0
1 0.459522 0
1 5.96046e-08 0
1 5.96046e-08 0
1 0.814073 0
1 5.96046e-08 0
1 5.96046e-08 0
1 0.733328 0
1 0.476304 0
1 0.818432 0
1 0.328079 0
1 5.96046e-08 0
1 5.96046e-08 0
1 0.769263 0
1 5.96046e-08 0
0.298395 1 0.701605
1 5.96046e-08 0
1 0.98601 0
0.900992 1 0.0990077
1 0.63264 0
0.0409301 1 0.95907
0.263595 1 0.736405
1 5.96046e-08 0
1 5.96046e-08 0
0 0.651393 1
0.65885 1 0.34115
0.759839 1 0.240161
1 0.663253 0
1 0.739406 0
0 0.716982 1
1 0.544773 0
1 0.166005 0
1 0.123877 0
1 0.893573 0
0 0.861891 1
0 0.984337 1
0 0.851233 1
0.757499 1 0.242501
0 0.441107 1
0.865081 1 0.134919
0.233258 1 0.766742
1 5.96046e-08 0
1 5.96046e-08 0
1 5.96046e-08 0
1 5.96046e-08 0
0 0.935595 1
1 0.734557 0
1 0.445755 0
0 0.364774 1
0 0.694335 1
0.438663 1 0.561337
0.959513 1 0.0404865
1 5.96046e-08 0
1 0.862511 0
0 0.727412 1
0.07373 1 0.92627
1 5.96046e-08 0
0.926261 1 0.0737391
1 0.867297 0
1 5.96046e-08 0
0.93909 1 0.0609103
0 0.715817 1
1 5.96046e-08 0
1 0.268807 0
1 0.768898 0
0.0848384 1 0.915162
0 0.32349 1
1 5.96046e-08 0
0.581465 1 0.418535
0.356965 1 0.643035
0 0.94241 1
0 0.798998 1
0 0.552656 1
1 0.178023 0
1 5.96046e-08 0
1 0.0739349 0
0 0.377214 1
1 5.96046e-08 0
0.103944 1 0.896056
0 0.985687 1
1 0.735781 0
0.066582 1 0.933418
1 5.96046e-08 0
1 0.634885 0
1 5.96046e-08 0
1 5.96046e-08 0
1 5.96046e-08 0
1 5.96046e-08 0
0 0.908078 1
0.467384 1 0.532616
1 5.96046e-08 0
0.975507 1 0.0244933
1 0.502415 0
1 5.96046e-08 0
1 5.96046e-08 0
0 0.654398 1
1 0.776791 0
1 0.025534 0
0 0.890781 1
0.528289 1 0.471711
1 5.96046e-08 0
1 5.96046e-08 0
1 5.96046e-08 0
1 5.96046e-08 0
1 0.0226276 0
1 0.16901 0
1 5.96046e-08 0
1 5.96046e-08 0
0 0.463566 1
1 0.303569 0
0.253419 1 0.746581
0.861489 1 0.138511
1 0.0181613 0
0.28387 1 0.71613
1 0.185303 0
1 5.96046e-08 0
1 5.96046e-08 0
0 0.815716 1
1 0.726583 0
0.348892 1 0.651108
0.277486 1 0.722514
1 0.16318 0
1 5.96046e-08 0
1 5.96046e-08 0
0 0.498561 1
1 5.96046e-08 0
1 0.967632 0
0.722669 1 0.277331
1 0.043362 0
1 0.158557 0
1 5.96046e-08 0
1 5.96046e-08 0
1 0.146359 0
0 0.156635 1
0 0.349788 1
0 0.399376 1
0 0.613237 1
0 0.927782 1
1 5.96046e-08 0
1 5.96046e-08 0
0 0.815516 1
0.854085 1 0.145915
0 0.947405 1
1 5.96046e-08 0
0 0.687977 1
0 0.348328 1
0.609647 1 0.390353
1 0.801258 0
0.343105 1 0.656895
0.469444 1 0.530556
1 0.867907 0
0 0.167037 1
0.895176 1 0.104824
1 0.346523 0
1 5.96046e-08 0
0.337424 1 0.662576
1 0.639621 0
0.595908 1 0.404092
0.0491911 1 0.950809
0.763627 1 0.236373
0 0.629014 1
0 0.624283 1
0 0.718147 1
1 0.981648 0
0 0.93516 1
0.843713 1 0.156287
0.482041 1 0.517959
0 0.697411 1
0.953681 1 0.0463195
1 5.96046e-08 0
1 5.96046e-08 0
1 0.512086 0
0 0.559983 1
1 5.96046e-08 0
1 0.757529 0
0 0.467865 1
1 0.324153 0
1 5.96046e-08 0
0.626869 1 0.373131
1 5.96046e-08 0
1 5.96046e-08 0
0 0.291203 1
0 0.899451 1
0 0.833991 1
0 0.967127 1
0 0.510271 1
0 0.863477 1
0.604432 1 0.395568
0 0.268462 1
0.12177 1 0.87823
1 0.941089 0
1 5.96046e-08 0
0 0.743735 1
0 0.604956 1
1 0.0450563 0
0.857707 1 0.142293
0 0.522052 1
0 0.329366 1
1 0.927501 0
0 0.752016 1
0 0.483871 1
0 0.784051 1
0 0.864041 1
0 0.271128 1
0 0.299746 1
0 0.484578 1
0 0.359436 1
1 0.318913 0
0 0.312458 1
1 0.148798 0
1 5.96046e-08 0
0 0.138871 1
0 0.130841 1
0 0.941101 1
0 0.261982 1
0 0.559202 1
0.831395 1 0.168605
0.0937629 1 0.906237
0 0.783006 1
0 0.665964 1
0.77821 1 0.22179
0 0.356364 1
1 0.854011 0
0 0.46257 1
0 0.300455 1
0 0.33443 1
0 0.389087 1
1 0.709329 0
0 0.983012 1
0 0.720069 1
0 0.814806 1
0 0.644457 1
1 5.96046e-08 0
0 0.950184 1
0 0.526827 1
0.766064 1 0.233936
0.419935 1 0.580065
0.00523798 1 0.994762
