# vtk DataFile Version 3.0
Particle simulation
ASCII
DATASET POLYDATA
POINTS 400 float
8.81396 5.09356 5.14087
4.71519 2.56239 3.27799
3.08544 5.89674 2.96605
7.21969 5.48816 1.95834
2.6771 5.9643 0.649041
0.214016 3.48587 9.31744
5.21507 1.38975 0.552926
4.61883 1.47217 9.03004
8.20627 9.49712 9.32227
0.841469 9.83879 0.204191
5.10705 1.10715 3.34742
5.89428 6.02776 7.83653
4.7781 5.93099 8.80076
7.58846 0.806609 4.90093
0.896127 8.741 6.80725
0.806065 3.90638 6.27435
1.2768 9.43471 0.88742
4.88849 5.79585 9.81947
9.90012 7.77997 3.37818
6.00877 6.60886 6.08225
3.08753 4.06154 3.43116
8.99939 0.746525 8.80234
7.2384 9.22617 4.74758
4.15032 0.51677 5.40361
3.64664 3.09376 5.38817
8.59503 5.67364 8.37157
5.25452 9.39824 6.81719
1.35011 7.62483 8.23713
6.8457 5.17715 0.337858
4.49188 5.72854 6.10431
5.49615 4.05034 4.40394
9.52925 1.05484 0
0.955633 5.08578 2.59539
5.88923 6.20425 7.96155
1.77248 7.40331 7.96232
4.52393 9.32405 8.68394
5.45165 7.57996 0.683944
5.42303 0.838561 3.38035
9.28514 5.18806 1.83561
1.56375 8.44575 4.33413
5.68647 1.56146 10
4.19969 3.79977 3.71421
4.56723 7.98466 2.29451
9.68442 7.05324 8.56509
4.3693 1.7007 9.37931
9.46285 0.304631 1.98267
8.25587 4.50433 5.49626
3.07907 3.95706 3.42531
6.88649 2.28735 8.55652
4.36059 1.43635 9.74339
3.97509 5.53899 3.92631
1.42834 1.01618 4.44454
0.833964 2.82896 8.30599
2.57613 0 7.47367
2.01557 2.09294 6.49728
7.14424 5.46159 7.88583
6.05096 3.68213 8.92684
7.30381 5.674 6.42146
3.24287 2.55196 5.13725
4.69612 7.13322 6.43113
0.267022 8.37461 4.98132
9.18539 8.59039 7.80846
4.67289 0.522604 8.48155
1.63141 6.27832 9.06941
1.02373 9.51373 6.15004
2.35438 7.48939 2.21095
4.42646 0 8.2984
1.6744 6.25698 7.40272
2.75305 1.19638 4.13896
2.85536 6.6464 2.74794
6.34535 5.40339 5.24988
4.33396 7.71829 1.65614
1.06609 3.43505 1.98828
9.43452 5.1562 9.29638
7.92554 8.58025 0.534062
3.5235 6.00068 9.39329
7.99735 1.57633 5.00829
8.33202 1.18789 4.84797
1.25359 8.26 8.1302
5.05881 9.75768 9.52365
4.69257 9.66916 2.71072
5.47154 2.15327 5.52288
6.1602 1.66685 6.17375
9.84915 5.9048 3.78341
6.69069 1.81325 5.95252
9.97285 1.24512 2.53314
9.1041 0.542478 6.92705
1.33135 9.4924 7.42663
4.92471 1.77976 7.59085
5.92035 2.45058 7.901
4.73167 3.59133 8.52977
4.10712 0.381653 1.6587
6.61747 8.33475 1.80734
8.69433 0 6.20366
1.70447 2.87516 4.57121
4.76287 3.07715 2.32768
8.44074 0.565539 0.820601
4.95307 2.16128 9.06174
7.41898 1.27298 5.40737
5.47956 1.09229 7.03669
7.35287 8.05451 9.66896
0 9.58165 6.82609
7.21042 2.49649 7.22011
3.44773 5.3897 0.901084
0.857456 3.55356 3.25515
8.68296 5.24483 1.32753
8.96931 9.30568 4.87794
9.70902 6.09515 3.7124
9.79696 9.72959 8.31992
1.68159 7.89441 2.92855
9.80725 9.26736 0.641748
9.02861 3.76206 1.67618
0.358666 4.70546 0.0144687
5.87927 2.85714 8.75661
7.60125 8.48285 3.10384
5.99265 7.43228 1.98614
4.64007 7.74215 0.694655
1.94686 7.1769 2.79598
3.29599 0.479527 8.33815
0.242759 5.69544 9.14636
1.44263 3.2881 6.76431
1.93935 4.68004 3.55116
4.37823 7.92391 9.48994
2.82985 8.28135 8.04497
3.16179 1.97686 7.48171
5.55591 0 2.94952
2.00323 1.66145 8.21599
2.21562 5.15537 0.585461
9.66923 2.91277 9.62365
8.62671 6.51389 7.78991
3.91162 8.31683 7.34971
2.97648 9.74389 0.629701
5.34572 2.70073 6.38694
2.24877 0.659924 5.29755
4.4164 4.2012 9.66026
7.36072 3.98425 6.00861
4.25796 3.32562 0.405311
7.76486 9.3813 7.39578
3.72985 7.9835 7.10562
4.13863 8.41363 7.81515
8.01 2.28964 6.95286
5.91766 7.4877 2.16895
4.37429 3.8167 3.85947
0.236418 8.17723 4.77534
5.19086 8.09063 0
6.98379 4.73562 4.10463
6.96561 0.766876 9.16201
4.8848 0.775708 9.16452
5.60021 6.65409 7.9256
9.31149 8.03657 9.00455
7.33612 0.60353 7.64359
8.42326 5.32838 6.40517
3.01456 6.43703 5.54622
2.48093 7.70121 0.531421
8.23625 0.954984 2.60494
9.12351 8.48054 6.52261
5.035 3.19676 8.54772
5.05079 0 0.836255
9.51574 7.81799 7.85521
0 4.18945 9.00225
7.22287 1.79344 5.98581
6.69873 4.20456 6.1723
6.67767 9.3069 2.58397
0 4.91062 8.62847
9.37036 7.22574 4.95506
0.803475 0.517343 5.26899
2.39187 3.85345 0.942285
0.780605 3.29528 8.92981
6.84379 3.2032 8.85894
7.83716 3.1093 8.32296
0.0451717 5.05608 8.71631
9.58123 8.57314 9.24563
2.48205 2.9482 9.32808
1.07854 3.69948 0.115891
3.85338 1.17534 2.38913
8.6098 5.81684 1.33829
3.27592 2.17883 5.25516
6.53184 5.67314 3.06975
4.42297 2.17446 6.14792
2.15803 3.53179 1.37151
8.18691 5.60879 5.68305
5.19458 4.67243 9.89624
0.0351287 2.72178 2.07587
9.19431 3.19521 5.91578
7.50658 2.47975 2.35497
4.60412 2.22724 7.97198
3.92389 6.62756 4.80935
4.7734 6.04805 3.8807
9.18779 1.66461 0.643481
3.88014 2.49447 2.99351
1.12828 3.10806 2.39815
4.72665 1.09423 4.37776
9.25006 3.94211 7.22916
0.0174367 3.85434 8.4337
9.39943 2.01686 1.17445
1.63368 9.67451 8.47857
7.56318 7.63918 9.47432
0 1.93444 5.66433
7.52734 3.21283 9.69292
6.07759 8.09718 0.283707
7.24986 7.17132 8.41285
6.62359 8.54058 1.41628
5.56027 3.68734 9.4843
7.62934 5.4102 5.35536
8.87453 2.65865 2.85854
0.509781 7.073 5.51426
5.87752 3.44608 2.36538
8.48134 5.23401 1.29316
6.95774 7.93495 7.88364
9.63027 4.95353 5.76117
9.80261 7.56515 9.08421
7.77016 7.50063 8.57398
4.8604 6.27278 5.70372
7.13841 2.65415 1.97786
2.69006 1.425 8.24112
3.58416 5.21793 1.38672
2.76172 0.153725 8.86776
5.79601 6.9431 5.79352
7.28023 1.03851 9.93843
7.67619 5.06721 8.55038
3.77944 1.3799 7.6902
8.03188 3.9638 3.9815
0.826601 2.32165 5.84367
7.0752 2.39278 5.96213
1.44784 0.316746 2.25415
9.02055 0.549066 0.954969
1.46052 1.81873 0.813264
8.28042 1.9198 3.20733
7.29185 0.583442 7.71602
6.11163 6.29385 6.18696
3.35634 3.81631 8.67194
2.98781 7.32985 6.6662
7.72592 3.26412 2.39253
8.82378 0.849498 6.44478
9.85568 6.76818 7.30169
1.95004 9.37735 5.26941
2.85935 0.790689 7.35322
9.81969 9.84213 9.71718
7.67497 1.31793 8.37742
0.83061 2.16315 9.03309
7.1965 0.517169 7.77221
0.93831 7.33933 6.61493
5.94444 4.14944 2.23672
9.52789 9.58498 5.7275
0.310762 1.26931 8.35365
3.29287 1.16015 2.88258
1.60942 1.30743 7.70906
1.87483 10 0
1.3397 2.11954 5.49924
6.09773 8.48649 8.00041
5.53733 4.09778 0
9.92423 5.00493 0.468502
6.14157 4.25225 9.45625
1.64679 7.07376 9.77265
7.34981 8.18818 7.99029
6.15002 9.88291 6.96634
5.45022 2.07652 1.90685
2.35594 4.17881 1.40841
3.95651 9.75591 1.48628
6.05033 1.71034 6.43485
9.13461 7.28727 9.51537
1.91424 1.89033 4.90782
0.239106 8.30543 7.66344
7.97439 4.94542 10
0.936502 9.68055 6.34466
1.27658 2.83874 4.27792
0.395921 5.45895 1.18481
9.39642 8.46677 9.32812
1.15572 6.17976 7.32714
9.23691 3.47798 2.05153
4.98078 5.28437 8.09027
8.10899 8.07895 1.94151
1.63008 6.66304 6.45408
9.12894 8.56143 4.53781
7.32651 0.640132 1.17289
5.93209 8.58603 0.811772
1.70475 1.46198 8.24799
7.56929 7.55634 2.41665
8.05863 2.73587 5.65229
9.95122 6.22718 0.399604
6.77452 3.21355 8.37569
8.14355 8.06198 5.5362
4.11656 1.50389 9.2267
2.07405 6.70195 4.37131
3.03479 3.58923 6.84157
7.78676 6.11603 6.50298
6.36412 2.48903 2.95132
3.03922 4.63464 8.74868
8.08525 2.43743 7.38631
5.7269 7.21716 8.77005
4.4256 9.98536 0.413725
2.78497 4.98678 1.3094
1.24046 3.12295 2.42592
3.48704 7.96169 8.67841
6.07726 0.732801 4.19698
5.91264 5.75705 1.58057
2.59075 0.0469857 9.75091
0.979178 0.589717 5.31701
7.35236 0.316443 7.672
1.09564 0.556681 5.43339
4.22425 9.39009 9.4402
10 2.63529 6.05761
6.76877 0.995233 7.5937
2.73534 8.82796 9.39737
7.48303 0.537648 7.31001
1.90929 1.12972 4.60952
3.41518 0.493196 1.84392
7.43183 0.433629 7.83227
8.15864 3.19105 8.63424
7.36012 1.2118 5.78411
4.24476 6.89071 3.52051
9.66546 7.61574 9.9189
6.08007 1.57299 1.19305
7.38732 1.17626 7.34811
1.21368 7.09738 4.38266
7.08772 1.39143 1.91687
4.68556 6.17536 9.04599
7.86074 0.895264 7.85256
7.13335 7.69413 0.417322
3.35072 1.86025 0.271404
5.27705 7.89575 0.42103
0 2.93528 3.46605
0.399714 3.23657 9.52272
9.06515 0.75463 5.63349
7.66283 0.657483 7.23638
8.83216 5.047 7.26557
3.95117 1.89707 9.75831
3.56127 7.18196 9.72502
6.82069 8.97507 1.63896
7.59657 0.481424 7.6427
2.60433 1.23327 8.26044
1.64554 0.718396 5.40773
9.71254 2.09589 1.15603
6.19437 6.38178 6.15508
3.20352 2.79674 2.138
9.08399 1.53127 8.72848
7.83237 2.15331 3.73034
7.77615 0.674778 7.32075
1.53463 5.65039 6.78788
5.86337 7.03897 3.01759
3.46394 7.52034 6.63291
2.23365 4.48311 6.16646
3.64967 2.72194 7.03623
3.18752 0 9.56684
6.64979 9.63622 4.95508
0.991328 2.36226 5.8575
3.55084 1.38128 3.15079
0.927204 6.56489 0.75898
7.77245 0.795004 7.73557
5.9777 6.20728 8.09958
7.42479 0.73669 7.50619
7.13995 0.67999 7.85817
2.35785 1.85714 5.23765
5.33425 3.93939 7.86066
6.8371 1.77116 2.65221
7.23052 0.493212 7.77196
5.00195 9.17527 1.6751
6.72755 3.63848 0.968508
9.53323 0.388772 5.58522
7.37926 0.419956 7.88932
1.96102 3.23648 3.32449
2.44908 1.62635 8.8444
2.42645 1.71524 9.08337
7.47073 0.423877 7.57993
1.01595 4.63381 0.767107
5.50463 8.75398 3.91312
2.44964 1.95548 9.19345
9.61421 3.36781 8.22836
8.92404 6.48698 5.23806
2.53846 0.160379 9.75999
3.6411 1.32839 3.26535
4.19012 3.77784 5.23553
6.76552 8.88108 2.88032
7.44357 0.658299 7.40876
7.51119 0.883815 7.49697
7.70117 6.96465 2.40219
2.47683 1.92904 9.20182
8.51155 4.45811 6.43692
1.45227 3.83952 2.12086
7.73258 0.657565 7.69772
7.57885 1.03181 9.58745
7.31806 0.119324 7.73557
4.40896 5.17426 3.84879
6.81684 0.805591 7.48689
4.81032 5.63507 7.48636
2.40119 1.97933 9.18705
7.43945 0.615119 7.5127
7.29183 0.153453 7.68796
0.0545461 4.11792 2.41721
9.23984 1.62639 8.24302
7.48912 0.544706 7.69779
7.61628 0.707262 7.65388
6.91939 9.8198 6.90893
7.32239 0.156001 7.68953
0.110052 7.69369 3.47868
0.988188 8.02443 7.8696
7.09886 0.682134 7.63002
6.43151 6.58944 0.384796
7.34351 8.65051 2.99201
4.72688 1.72617 7.86292
POINT_DATA 400
SCALARS particleColor float 3
LOOKUP_TABLE default
1 0.886613 0
0.31422 1 0.68578
0 0.630752 1
1 5.96046e-08 0
1 0.96332 0
0.544906 1 0.455094
1 5.96046e-08 0
1 0.553798 0
1 0.895841 0
0.435222 1 0.564778
0.627209 1 0.372791
1 5.96046e-08 0
0.336747 1 0.663253
1 5.96046e-08 0
0.878422 1 0.121578
1 0.142687 0
0.601079 1 0.398921
0.292229 1 0.707771
0 0.541766 1
1 5.96046e-08 0
0.890215 1 0.109785
1 5.96046e-08 0
1 5.96046e-08 0
1 5.96046e-08 0
0.110815 1 0.889185
1 0.279505 0
1 0.588024 0
1 0.613877 0
1 5.96046e-08 0
0.392253 1 0.607747
1 5.96046e-08 0
1 5.96046e-08 0
1 0.722997 0
1 0.902775 0
0.884987 1 0.115013
0.78153 1 0.21847
0.117876 1 0.882124
0.667558 1 0.332442
1 0.514348 0
1 5.96046e-08 0
1 5.96046e-08 0
1 5.96046e-08 0
1 0.889189 0
0.923508 1 0.0764924
0.841371 1 0.158629
0.984302 1 0.0156977
0.570435 1 0.429565
1 0.965479 0
1 5.96046e-08 0
1 0.742617 0
0.129917 1 0.870083
0.840127 1 0.159873
1 0.527433 0
1 5.96046e-08 0
1 0.192493 0
0.402204 1 0.597796
1 0.464896 0
0.8663 1 0.1337
1 5.96046e-08 0
1 5.96046e-08 0
0.49218 1 0.50782
1 5.96046e-08 0
1 5.96046e-08 0
1 5.96046e-08 0
0 0.567133 1
0.446608 1 0.553392
1 5.96046e-08 0
0.95151 1 0.04849
1 0.431084 0
1 5.96046e-08 0
1 5.96046e-08 0
1 5.96046e-08 0
0.236348 1 0.763652
1 5.96046e-08 0
1 5.96046e-08 0
1 0.648392 0
1 5.96046e-08 0
1 5.96046e-08 0
0.442486 1 0.557514
1 0.416774 0
1 5.96046e-08 0
1 0.743884 0
0.272126 1 0.727874
1 5.96046e-08 0
1 5.96046e-08 0
0 0.965808 1
1 0.448348 0
1 0.822034 0
1 0.955385 0
0.589009 1 0.410991
0.415357 1 0.584643
1 0.112626 0
1 5.96046e-08 0
1 0.572925 0
1 5.96046e-08 0
0.233182 1 0.766818
0 0.895495 1
1 5.96046e-08 0
0.528555 1 0.471445
1 0.0740045 0
0.900318 1 0.0996819
0.910064 1 0.0899357
1 5.96046e-08 0
0.243649 1 0.756351
0 0.882615 1
0.421034 1 0.578966
1 5.96046e-08 0
1 0.509389 0
1 5.96046e-08 0
1 0.904937 0
0.671498 1 0.328502
0.385813 1 0.614187
0.990857 1 0.00914282
0 0.967683 1
1 0.500073 0
0.441588 1 0.558411
0 0.622077 1
0.919973 1 0.0800266
1 5.96046e-08 0
1 5.96046e-08 0
1 5.96046e-08 0
1 0.928273 0
1 5.96046e-08 0
1 5.96046e-08 0
1 0.617825 0
1 5.96046e-08 0
0.482557 1 0.517443
1 0.786879 0
1 0.106044 0
1 5.96046e-08 0
1 0.584183 0
1 5.96046e-08 0
0.989955 1 0.0100453
1 0.401513 0
1 5.96046e-08 0
0.926266 1 0.0737338
0 0.789655 1
0.429117 1 0.570883
1 0.0582976 0
1 0.450106 0
1 0.659507 0
1 0.79772 0
1 0.885022 0
1 0.650763 0
1 5.96046e-08 0
1 0.272571 0
0.490263 1 0.509737
1 5.96046e-08 0
0.669949 1 0.330051
0.627255 1 0.372745
0 0.271301 1
0 0.962511 1
1 5.96046e-08 0
0.745793 1 0.254207
1 0.0590488 0
1 5.96046e-08 0
1 5.96046e-08 0
1 5.96046e-08 0
1 5.96046e-08 0
1 5.96046e-08 0
0.600139 1 0.399861
0.334983 1 0.665017
1 5.96046e-08 0
0.496851 1 0.503149
1 5.96046e-08 0
0.28551 1 0.71449
1 5.96046e-08 0
1 0.220435 0
1 5.96046e-08 0
1 0.551167 0
1 5.96046e-08 0
1 0.356867 0
1 0.713068 0
0 0.791776 1
1 5.96046e-08 0
0.286335 1 0.713665
1 0.384762 0
0.151381 1 0.848619
1 5.96046e-08 0
0.594963 1 0.405037
1 0.137473 0
1 5.96046e-08 0
1 5.96046e-08 0
1 5.96046e-08 0
1 0.287015 0
0 0.830931 1
1 0.705376 0
1 0.325327 0
1 0.708833 0
1 0.503139 0
1 0.336833 0
0.910616 1 0.0893838
1 0.792866 0
1 5.96046e-08 0
1 0.375887 0
1 0.879545 0
0.911209 1 0.0887907
1 5.96046e-08 0
0.825934 1 0.174066
1 5.96046e-08 0
1 0.868053 0
1 5.96046e-08 0
1 5.96046e-08 0
1 5.96046e-08 0
1 5.96046e-08 0
0.467396 1 0.532604
1 5.96046e-08 0
1 5.96046e-08 0
1 5.96046e-08 0
1 0.734984 0
0.796826 1 0.203174
1 0.613206 0
1 0.157121 0
1 0.235719 0
1 5.96046e-08 0
0.271363 1 0.728637
1 0.830684 0
1 5.96046e-08 0
0 0.853085 1
1 0.229751 0
1 5.96046e-08 0
1 5.96046e-08 0
0 0.99579 1
1 5.96046e-08 0
1 5.96046e-08 0
1 5.96046e-08 0
0.594233 1 0.405767
1 5.96046e-08 0
0 0.561983 1
0.10506 1 0.89494
1 5.96046e-08 0
1 5.96046e-08 0
1 5.96046e-08 0
1 5.96046e-08 0
0.939157 1 0.0608428
0.757645 1 0.242355
0.922427 1 0.0775729
0.54562 1 0.45438
0 0.738194 1
1 5.96046e-08 0
0 0.750664 1
1 5.96046e-08 0
1 5.96046e-08 0
1 5.96046e-08 0
1 5.96046e-08 0
1 0.955871 0
1 0.26346 0
1 5.96046e-08 0
1 0.65166 0
1 5.96046e-08 0
1 0.447132 0
0.534684 1 0.465316
1 5.96046e-08 0
1 0.551734 0
1 0.27841 0
1 5.96046e-08 0
0 0.520163 1
0.48389 1 0.51611
1 5.96046e-08 0
1 0.447545 0
1 5.96046e-08 0
1 5.96046e-08 0
0.13687 1 0.86313
0.55343 1 0.44657
1 0.615724 0
1 0.847158 0
1 5.96046e-08 0
1 0.590357 0
0 0.73626 1
1 0.759265 0
1 5.96046e-08 0
1 0.209461 0
1 5.96046e-08 0
1 5.96046e-08 0
1 5.96046e-08 0
1 5.96046e-08 0
1 5.96046e-08 0
1 5.96046e-08 0
1 0.395816 0
1 5.96046e-08 0
0.361413 1 0.638587
1 0.339457 0
1 5.96046e-08 0
1 5.96046e-08 0
1 0.437963 0
1 5.96046e-08 0
0.254463 1 0.745537
1 0.459465 0
1 0.699833 0
1 0.0299465 0
0.545797 1 0.454203
1 5.96046e-08 0
0.528516 1 0.471484
0.735913 1 0.264087
1 0.154909 0
0.805563 1 0.194437
0.773999 1 0.226001
1 5.96046e-08 0
0 0.214023 1
0.625528 1 0.374472
1 5.96046e-08 0
1 5.96046e-08 0
0 0.38387 1
1 0.369082 0
0 0.763116 1
1 5.96046e-08 0
1 5.96046e-08 0
0 0.656049 1
1 0.233128 0
1 5.96046e-08 0
0 0.784032 1
1 5.96046e-08 0
1 5.96046e-08 0
0 0.267848 1
1 5.96046e-08 0
1 0.303308 0
1 0.900681 0
0 0.673873 1
1 0.400284 0
0 0.934892 1
0.211819 1 0.788181
1 0.419118 0
0.251692 1 0.748308
0 0.560347 1
0 0.67423 1
1 5.96046e-08 0
0.655134 1 0.344866
0.932258 1 0.0677419
0.937995 1 0.0620049
0 0.333865 1
0 0.406487 1
0 0.119597 1
0.0937079 1 0.906292
1 5.96046e-08 0
1 0.419312 0
0.671821 1 0.328179
1 5.96046e-08 0
0 0.573855 1
1 5.96046e-08 0
0.547729 1 0.452271
1 5.96046e-08 0
1 0.344225 0
0.43409 1 0.56591
0 0.526279 1
1 0.216812 0
1 0.791014 0
0 0.748286 1
1 5.96046e-08 0
0 0.614553 1
0.253672 1 0.746328
0.0111115 1 0.988889
0 0.649876 1
1 5.96046e-08 0
1 5.96046e-08 0
1 0.78493 0
0 0.691008 1
1 0.598982 0
0.740386 1 0.259614
0 0.932681 1
0 0.38194 1
1 5.96046e-08 0
0.0355301 1 0.96447
0 0.555768 1
0 0.328899 1
1 0.118211 0
1 0.610184 0
0 0.38347 1
1 0.471085 0
0.861372 1 0.138628
0 0.782387 1
0 0.435168 1
1 5.96046e-08 0
1 0.646985 0
0 0.320184 1
0 0.571611 1
1 0.0159345 0
0 0.57769 1
1 0.160151 0
0.683164 1 0.316836
0 0.570715 1
0 0.957778 1
0 0.794547 1
1 5.96046e-08 0
0 0.725337 1
0.529653 1 0.470347
0 0.965933 1
0.109861 1 0.890139
0 0.41819 1
1 5.96046e-08 0
1 0.975391 0
0 0.412196 1
0 0.575364 1
0.20757 1 0.79243
0 0.591371 1
0.721666 1 0.278334
1 5.96046e-08 0
0 0.457513 1
1 5.96046e-08 0
0.746804 1 0.253196
1 5.96046e-08 0
