# vtk DataFile Version 3.0
Particle simulation
ASCII
DATASET POLYDATA
POINTS 400 float
5.59768 1.76498 2.48286
4.2502 0.832567 7.83359
0.95926 0.00923723 4.65748
8.46979 0.22886 7.02903
8.01757 0.662358 4.98997
8.14392 0 4.47135
9.30099 4.92514 7.34593
1.92997 9.59576 3.56421
9.9905 0.369272 2.65883
8.28831 5.10581 4.40283
7.89848 0.888152 1.30275
3.89372 8.41021 0.50829
9.71754 0.942555 1.06581
9.30681 4.61926 1.51432
1.70478 2.05355 5.68888
1.03584 4.34127 0
9.12407 0.850011 2.63987
4.46722 0.620899 3.70599
7.98297 8.99466 9.44052
6.04867 6.4378 4.53014
1.27597 1.47406 0.126348
1.86386 8.72887 0.365705
8.00603 1.12807 0.713408
0.531669 2.28168 4.18489
8.2392 9.83327 5.13575
5.6118 1.67537 10
9.01495 4.40243 1.0772
9.16744 7.72842 0.236995
7.71169 1.50074 5.60869
2.20734 0.419054 8.05205
4.84006 5.8041 5.26504
8.84078 0.0926082 2.47909
2.56796 9.7407 8.63808
1.70649 7.41347 9.12651
8.31719 5.00212 6.40702
6.53194 8.8898 2.81225
4.25445 5.71696 8.96908
7.71311 0.332705 0.217323
0 5.85597 9.51504
2.50667 9.08469 2.12014
9.79505 4.08146 8.37393
9.8522 9.83941 2.27952
5.26261 4.8547 9.3111
2.75732 3.60004 0
3.77168 9.719 8.73555
6.54736 2.00393 6.00882
8.79193 1.36242 6.12427
1.71242 4.51979 2.51194
2.55713 1.2356 3.31013
2.37492 8.51168 8.24484
10 9.10953 6.91712
7.56207 8.97588 6.09754
0.939767 2.98481 8.92961
4.12201 8.45588 2.92013
6.19395 3.92508 8.17452
1.67686 3.27761 0.00433424
5.50555 0.87377 5.35269
2.19156 1.32983 8.7655
0.501047 9.02853 2.11933
7.00629 5.48163 5.73529
1.27051 5.67845 2.08201
7.42734 1.39151 6.24607
0.423054 5.23294 6.78371
5.15085 8.08191 8.51249
2.22628 4.92225 1.09038
7.33689 0.80844 9.9379
9.22279 3.54659 0.419218
1.38398 4.54469 4.50579
1.14966 2.3841 8.91813
0.117971 5.69566 0.301213
8.30005 3.25195 1.38288
7.10481 7.29626 4.69991
5.93131 7.40415 6.24856
1.96087 3.26697 8.12016
2.7797 1.25393 9.2847
8.31641 0.926914 4.38421
7.99063 2.86724 10
5.43375 0 7.47811
0.0675227 2.37208 8.78534
6.46072 0.225897 1.49394
4.14735 5.95715 7.46791
2.29248 5.77411 6.75685
3.29729 9.41465 4.13691
5.58391 7.50314 0.701813
1.65428 3.56588 8.57518
9.05414 3.84796 5.52081
2.54136 9.35998 7.07881
0.134478 3.43939 8.27643
1.26046 5.18842 5.16793
7.98388 8.36655 10
4.39334 0.217475 4.43555
8.79812 7.5069 6.52882
4.23013 1.61174 2.75045
2.89293 2.83517 6.46344
4.83984 5.73055 1.7338
2.61886 6.23123 6.77656
5.00109 5.17148 1.94192
6.45546 0.349999 3.24955
3.08083 6.93523 6.34988
1.16849 9.15369 5.14166
1.54585 2.56188 5.88201
9.69037 7.95861 3.11604
7.80019 1.43408 3.93567
4.73823 1.41518 0.0780947
3.91091 3.41501 3.87346
1.27916 10 5.53419
5.89157 5.33445 9.6014
0.437383 5.8204 0.239668
5.24421 3.37935 7.76566
6.68328 7.11504 2.27514
1.27683 8.93336 7.52542
8.71554 2.65376 9.82438
0.563759 7.2218 0.920954
9.61069 2.84307 7.29882
2.23637 3.15839 5.06501
6.29723 3.21409 4.08646
1.03403 1.7371 2.54106
2.86171 7.21523 4.1584
1.35554 1.75313 8.83732
4.06827 9.00945 1.24313
2.61255 6.80712 0.269398
4.90107 8.58421 3.51974
4.2977 9.48391 9.03417
2.27301 1.57568 3.36042
4.58249 0.939475 4.45601
3.21222 1.02388 8.11267
4.35027 7.00258 3.13161
8.57078 6.8617 10
7.08987 6.26693 8.6529
9.13433 0 0.934359
4.16224 5.87218 4.03794
7.92547 8.72625 0.195913
9.75176 6.24169 7.4783
3.29051 9.41332 2.56099
8.78688 5.00725 6.31069
1.0812 3.06925 2.20646
3.77572 8.71916 1.53781
3.55255 1.17703 7.29884
8.74501 7.79468 7.37441
9.75946 5.38403 3.07916
4.84991 0.397529 3.4906
8.57802 9.50232 6.34761
8.68925 8.37458 6.29664
4.75894 0.352145 0.759001
6.02386 9.26526 7.34699
5.91736 0.161694 3.36016
8.04961 3.50798 1.65977
1.0104 0.744974 2.73739
7.46469 6.62454 1.40587
6.79577 0.934013 8.65641
4.86795 0.281553 3.73952
4.12671 7.32667 3.79471
7.40474 4.54455 0.345874
3.23621 0.538025 9.01966
5.71136 7.32899 9.43316
1.95191 4.16609 6.85531
5.83468 5.84682 8.14399
5.69413 9.04437 5.54746
3.72406 7.45739 4.71093
9.58945 4.3604 1.93449
1.70518 3.99782 6.09123
5.59276 0.529096 4.20648
0 0.928905 7.6634
5.92377 5.39443 8.16922
1.70934 4.6055 2.64714
2.82911 8.25033 2.14126
7.92346 1.63633 9.48736
0.540972 9.58712 9.32684
1.10412 5.30357 7.97576
4.63735 4.06726 5.9253
8.73745 7.47364 5.99154
4.1954 2.47195 3.69436
0.844603 9.22678 3.92164
7.81173 0.0704682 6.84824
0.808077 6.57123 2.66935
3.25097 1.98211 4.35995
7.31269 1.79746 3.93154
3.02913 6.47043 6.37739
9.04937 6.96112 2.60254
2.62236 6.12091 8.75007
2.26979 0.296328 2.14706
8.83875 2.42565 1.87743
0.325948 5.16555 0.315519
0.877692 2.37355 7.64636
7.49523 1.18665 9.71396
10 2.95947 1.69683
4.84427 0.198861 3.83651
6.93179 9.38968 7.85628
5.73285 4.25095 9.09627
7.19234 0.233985 5.80039
6.00939 0.649321 6.35932
5.39737 0.079418 3.35527
0.640131 6.27112 0.599199
7.41902 7.96513 6.01861
1.25867 3.00215 2.87671
3.9118 6.72815 9.10776
3.56928 1.23004 0.502529
9.50856 3.03269 1.6333
10 1.91966 1.03651
3.76713 0.0589613 3.7022
4.86917 0.335726 3.93228
0.0531593 6.67853 4.71758
5.41433 8.99418 0.632108
4.56649 3.10153 0
0 6.83433 3.88225
8.83419 4.92499 1.55803
6.08894 0.944447 8.89837
2.92989 6.19902 9.66918
0.36318 0.550109 7.34779
8.13937 1.16148 2.30346
4.90206 0.291281 3.73013
4.60931 0.407601 3.71207
0.359953 6.77121 0.202925
0.856185 5.09112 5.41088
3.44048 3.10221 5.91045
1.39656 7.22262 1.8562
4.8342 0.511492 3.73086
6.64656 6.74774 4.56582
5.46693 1.88212 9.14303
0.0132919 8.07032 3.15323
7.0172 9.26844 9.8536
1.83234 5.38925 5.26241
3.36957 1.81905 5.04758
5.05923 0.172125 3.94527
3.48448 2.49698 1.4174
8.23636 4.13066 5.74794
9.0212 5.32003 4.71619
4.39091 0.653738 3.96499
4.72772 0.646632 3.45135
3.63053 4.63618 10
2.83592 3.61656 9.62029
3.86251 9.11305 1.87914
0.880565 0.244424 7.28147
4.90901 0.30077 4.50864
1.69655 0.639449 7.92719
1.42125 6.08373 4.85093
1.74073 7.10447 3.87838
9.01262 5.99471 8.66866
4.67276 0.242647 3.81565
1.57959 3.5139 6.23223
4.91689 0.467736 4.26398
7.61075 0.101994 0.0824135
3.03634 0.234509 5.88895
9.53428 0.788338 0.151196
7.25609 1.95663 3.19378
8.24289 3.40191 0.482745
7.67653 8.25048 2.71029
4.99543 8.95314 1.21542
6.04784 10 7.03787
5.1728 1.49032 1.3257
4.85986 0.0561335 3.98283
1.33577 2.38244 8.27462
10 3.26559 2.73553
2.66741 1.28582 0
9.3413 6.89005 2.66894
1.79709 4.64571 1.6692
3.57289 2.26688 6.54417
1.95559 0.522897 7.7524
0.55583 9.56318 5.92896
4.4853 3.90573 9.43016
1.35517 9.46649 2.42503
2.12506 0.249003 4.46565
3.34528 8.83509 2.2534
8.51522 5.55377 4.85075
6.77667 1.58076 4.17706
6.53685 6.87683 2.83113
1.75376 2.11659 0.0843103
1.66474 0.427231 8.2851
0.129239 3.65145 2.59318
5.37972 5.30018 2.07528
4.47133 0.582213 3.50699
3.46733 8.06314 0.63907
4.00695 6.80305 4.26169
9.65622 3.36815 1.60826
4.40399 8.06525 7.19759
5.81498 0.335974 7.43261
4.28024 6.42419 8.85324
9.49398 6.0743 9.79545
4.24622 10 6.51651
4.59629 0.295619 3.91459
4.9104 5.85144 2.9355
9.37771 0.413226 1.94697
0.808349 5.62204 8.06374
1.81102 3.92706 6.45871
8.57866 0.744751 6.78178
6.85361 9.19888 10
4.64654 0.468112 3.51155
7.73791 6.28842 1.47369
3.08148 4.15656 0.952759
9.64319 3.46508 9.07988
6.98417 9.23424 6.96453
0.27914 9.81404 7.97007
9.37069 7.88401 7.16258
6.32478 1.44197 0.533029
4.6979 0.394029 6.35123
1.7024 0.566839 7.60393
4.59373 0 3.36603
4.66987 0.4542 3.44195
5.32887 0.479241 4.1858
4.64825 0.431003 3.4954
8.05288 9.80568 5.43228
4.68718 1.64553 4.76139
4.27573 0.0929211 3.30935
3.8048 4.85925 2.83911
4.93079 0.671509 3.34574
3.81896 9.63536 9.21475
4.6972 0.709495 3.49542
4.76823 0.260086 3.76338
3.91069 9.32258 1.21577
5.75906 7.22683 6.55738
8.15615 7.46501 1.48257
7.41186 3.98662 5.35351
7.8753 6.89733 0.319792
4.68835 0.203719 3.30593
8.12058 0.209781 9.09069
8.76903 7.75537 1.16192
9.17154 2.65446 3.28572
1.77695 4.52711 9.12074
3.25704 0.659691 6.20173
0 2.8536 3.43817
2.10712 0.332582 7.97074
3.76569 8.22683 7.82417
1.73416 0.233878 7.74538
4.62849 0.567546 3.49008
3.41158 0.149768 3.52163
8.77173 8.97039 9.37371
4.91351 0.293495 4.14069
5.10426 0.812285 1.3792
9.73863 5.0016 4.70873
4.7977 0.313819 3.68631
1.28816 0.71569 9.66548
2.02474 2.77153 3.44875
5.14747 6.98092 3.31771
6.41432 6.77419 4.10986
9.41758 0.567634 2.25014
9.09731 7.0173 8.64328
2.30422 9.72879 7.25008
4.75061 0.602796 3.61038
4.58208 4.04131 5.01196
7.11825 0.583799 7.24671
6.75845 8.96813 4.37255
8.78885 9.41969 6.32509
1.76966 0.406536 8.51613
1.9193 0.443931 7.8385
4.36308 0.498514 3.37426
4.41343 0.34955 2.89667
9.47767 1.2205 0.0502936
4.82187 0.0433856 3.99197
4.63826 0.104262 4.17638
8.24735 0.0727935 3.62839
4.65847 0.356625 3.66715
4.97305 0.246094 3.93062
3.16454 4.22589 9.51498
8.62641 4.33656 6.37976
2.47415 3.04337 5.30082
4.82347 0.513782 3.34324
9.56403 3.33496 8.65633
8.23404 7.31997 7.10443
4.5782 0.227181 3.96801
4.68612 0.682805 3.99593
9.27263 1.22836 2.45309
1.90313 0.509151 7.73485
1.73139 0.471939 7.61741
4.77267 0.896915 4.02224
4.85333 0.199019 3.71341
9.1264 0.950976 2.35745
1.72328 0.560114 7.50658
3.34071 6.73445 5.85585
1.94848 0.478751 7.98282
3.00913 7.52387 3.80202
9.59552 0.203507 1.89307
1.04339 9.11809 1.48146
2.82855 9.51653 9.78076
3.95141 0.285249 3.6187
4.48342 0.522604 3.49998
9.18204 0.401386 2.22714
1.77273 0.752358 7.8457
1.83384 0.0826621 7.93449
1.1805 1.17081 6.74749
4.23053 0.474094 3.46976
5.09001 0.546007 3.93479
4.93804 0.172872 4.08114
2.96712 6.29197 9.84029
4.66169 0.6225 3.54448
5.58901 8.99573 5.38375
1.81989 0.679558 7.56937
4.75383 0.359196 3.47776
4.85009 0.251138 4.02173
0.854536 8.49072 9.72883
7.65255 1.17205 7.50409
4.79217 0.869855 3.38191
4.32632 0.56571 3.49998
1.59583 0.716527 7.40373
5.00075 0.402364 3.49884
10 1.93798 3.15571
2.26905 0.452663 8.24843
4.58231 0.410351 3.61362
5.82056 4.30039 2.72276
5.87447 8.28694 2.21026
9.76009 0.412127 2.17333
POINT_DATA 400
SCALARS particleColor float 3
LOOKUP_TABLE default
1 0.492598 0
1 5.96046e-08 0
1 0.881847 0
1 0.109371 0
0.386321 1 0.613679
1 5.96046e-08 0
0.942973 1 0.0570268
1 0.387369 0
1 0.207309 0
1 5.96046e-08 0
1 0.379581 0
1 5.96046e-08 0
1 0.445353 0
0 0.955466 1
1 5.96046e-08 0
1 0.255852 0
1 5.96046e-08 0
0 0.29714 1
1 0.555789 0
1 5.96046e-08 0
0 0.80068 1
1 5.96046e-08 0
1 0.577732 0
0.507498 1 0.492502
0.982023 1 0.0179766
1 5.96046e-08 0
1 0.0931209 0
0.875624 1 0.124376
1 0.333481 0
0.703665 1 0.296335
1 0.0282983 0
0.0576736 1 0.942326
0.633858 1 0.366142
0 0.470013 1
0.116322 1 0.883678
0.708528 1 0.291472
0.598621 1 0.401379
0 0.657654 1
1 5.96046e-08 0
0.420901 1 0.579099
0.149691 1 0.850309
0.616426 1 0.383574
1 5.96046e-08 0
1 5.96046e-08 0
0 0.709489 1
1 0.162377 0
0.266442 1 0.733558
1 5.96046e-08 0
1 0.0748337 0
1 5.96046e-08 0
1 5.96046e-08 0
1 5.96046e-08 0
1 5.96046e-08 0
1 0.176698 0
1 5.96046e-08 0
0.192026 1 0.807974
1 0.271965 0
0.606828 1 0.393172
1 5.96046e-08 0
0.417158 1 0.582842
1 5.96046e-08 0
1 5.96046e-08 0
0.771279 1 0.228721
0 0.586505 1
1 0.930292 0
1 0.605897 0
0.544869 1 0.455131
0.315071 1 0.684929
0.0415679 1 0.958432
0.0282034 1 0.971797
1 0.62821 0
0 0.905945 1
1 5.96046e-08 0
0.640002 1 0.359998
1 5.96046e-08 0
0.882455 1 0.117545
0.720809 1 0.279191
1 5.96046e-08 0
0.830852 1 0.169148
1 0.0966257 0
1 0.864064 0
1 5.96046e-08 0
0.563809 1 0.436191
1 5.96046e-08 0
1 5.96046e-08 0
0.626942 1 0.373058
0.927389 1 0.0726106
0.447003 1 0.552997
0.88434 1 0.11566
1 5.96046e-08 0
0 0.599636 1
0.737334 1 0.262666
1 5.96046e-08 0
1 0.259776 0
1 0.992972 0
1 5.96046e-08 0
1 5.96046e-08 0
0.767247 1 0.232753
0.231153 1 0.768847
1 5.96046e-08 0
1 5.96046e-08 0
1 5.96046e-08 0
1 5.96046e-08 0
0.55507 1 0.44493
1 5.96046e-08 0
0.482315 1 0.517685
1 5.96046e-08 0
0.866179 1 0.133821
1 0.536225 0
1 5.96046e-08 0
1 0.663279 0
1 5.96046e-08 0
1 0.0335876 0
1 5.96046e-08 0
0 0.796118 1
1 0.462273 0
1 5.96046e-08 0
1 0.484103 0
0.113811 1 0.886189
0.450302 1 0.549698
1 0.947027 0
1 0.292735 0
0.964389 1 0.0356113
1 5.96046e-08 0
1 0.13448 0
0 0.613458 1
0 0.889802 1
0.798635 1 0.201365
0 0.949577 1
1 5.96046e-08 0
1 0.202803 0
1 5.96046e-08 0
1 5.96046e-08 0
1 0.578993 0
1 0.194243 0
1 0.445508 0
1 5.96046e-08 0
1 0.32443 0
0.696874 1 0.303126
0 0.723339 1
0 0.627416 1
1 0.346497 0
0.928577 1 0.0714232
1 0.205471 0
1 0.83559 0
1 0.836178 0
0.708482 1 0.291518
0.302937 1 0.697063
1 0.912893 0
0.362058 1 0.637942
0 0.14215 1
1 0.748634 0
1 0.334505 0
0.165074 1 0.834926
1 5.96046e-08 0
1 5.96046e-08 0
0.657507 1 0.342493
0.432332 1 0.567668
1 5.96046e-08 0
1 0.884875 0
1 5.96046e-08 0
0.972933 1 0.0270668
1 5.96046e-08 0
1 5.96046e-08 0
1 5.96046e-08 0
0.787927 1 0.212073
1 5.96046e-08 0
1 0.655857 0
1 5.96046e-08 0
1 0.548663 0
1 5.96046e-08 0
0.840229 1 0.159771
0.634587 1 0.365413
0 0.988462 1
1 5.96046e-08 0
1 0.099313 0
1 5.96046e-08 0
1 5.96046e-08 0
1 5.96046e-08 0
0.994954 1 0.00504583
0.0125409 1 0.987459
1 0.428037 0
0.403083 1 0.596917
0.730114 1 0.269886
1 0.844485 0
1 5.96046e-08 0
0 0.415429 1
0.0550525 1 0.944948
1 5.96046e-08 0
1 0.975985 0
0.0836317 1 0.916368
0 0.59816 1
1 0.380255 0
1 0.786426 0
0 0.755166 1
1 0.0883135 0
0.451314 1 0.548686
0.63056 1 0.36944
0.446402 1 0.553598
0 0.596794 1
0 0.370593 1
1 0.990077 0
0.658864 1 0.341136
1 5.96046e-08 0
0.579797 1 0.420203
1 5.96046e-08 0
0.896542 1 0.103458
1 0.159829 0
0.918389 1 0.0816112
0.881831 1 0.118169
0 0.485189 1
0 0.482057 1
0 0.849299 1
1 0.964578 0
1 5.96046e-08 0
1 5.96046e-08 0
0 0.813894 1
0.736129 1 0.263871
1 0.834991 0
1 5.96046e-08 0
0.542088 1 0.457912
1 5.96046e-08 0
1 5.96046e-08 0
0 0.972736 1
0.92081 1 0.0791902
1 0.265928 0
0.705887 1 0.294113
0 0.839047 1
0 0.323418 1
1 5.96046e-08 0
0.73853 1 0.26147
1 0.966401 0
1 0.964899 0
0 0.582205 1
0 0.455761 1
1 5.96046e-08 0
1 5.96046e-08 0
1 0.606154 0
0 0.596191 1
1 5.96046e-08 0
0 0.453433 1
0 0.823984 1
1 0.483685 0
0.82023 1 0.17977
0 0.919455 1
1 0.849822 0
1 5.96046e-08 0
1 5.96046e-08 0
0.89168 1 0.10832
0.454661 1 0.545339
0 0.34852 1
0.259772 1 0.740228
1 5.96046e-08 0
1 0.925915 0
1 5.96046e-08 0
0.695256 1 0.304744
1 0.672113 0
0 0.44225 1
1 0.294223 0
1 5.96046e-08 0
1 5.96046e-08 0
1 0.955596 0
0.586132 1 0.413868
1 0.184098 0
1 5.96046e-08 0
1 5.96046e-08 0
1 0.970284 0
0 0.990863 1
0.659967 1 0.340033
0.44713 1 0.55287
0 0.644288 1
0.73895 1 0.26105
0.906557 1 0.0934426
0.269139 1 0.730861
1 0.58887 0
0 0.80985 1
1 5.96046e-08 0
1 0.793965 0
1 5.96046e-08 0
0 0.619098 1
1 0.283629 0
0 0.791766 1
1 0.396965 0
1 5.96046e-08 0
1 5.96046e-08 0
1 5.96046e-08 0
0 0.865459 1
1 0.771316 0
0.273882 1 0.726118
1 5.96046e-08 0
0 0.954904 1
0.645651 1 0.354349
1 5.96046e-08 0
1 0.729247 0
1 0.0208405 0
0 0.56099 1
0 0.275145 1
0 0.572306 1
0.00763319 1 0.992367
0 0.510276 1
1 5.96046e-08 0
1 0.701636 0
0 0.66212 1
1 0.847937 0
0 0.620468 1
1 5.96046e-08 0
0 0.868305 1
0 0.446433 1
0.760338 1 0.239662
0.0544376 1 0.945562
0.577619 1 0.422381
1 5.96046e-08 0
0 0.772976 1
0 0.916199 1
0.773537 1 0.226463
0.473975 1 0.526025
0.714307 1 0.285693
0.702974 1 0.297026
1 5.96046e-08 0
0.99518 1 0.00481951
0 0.596048 1
1 5.96046e-08 0
0 0.644729 1
0 0.809595 1
0 0.473573 1
1 5.96046e-08 0
0 0.357686 1
1 0.225692 0
1 0.949786 0
0 0.603098 1
0.0166059 1 0.983394
0 0.569243 1
1 5.96046e-08 0
1 0.695337 0
0 0.580635 1
1 5.96046e-08 0
1 0.975546 0
0 0.592587 1
1 5.96046e-08 0
0.810419 1 0.189581
0.149499 1 0.850501
1 5.96046e-08 0
0.317404 1 0.682596
0 0.30913 1
0 0.695462 1
0 0.427866 1
0 0.795402 1
0 0.962549 1
0.0974834 1 0.902517
0.970555 1 0.0294454
0.0419496 1 0.95805
0 0.871864 1
0.976554 1 0.0234458
1 5.96046e-08 0
0 0.558204 1
0 0.606843 1
1 0.354088 0
1 0.736919 0
0 0.904966 1
0 0.385884 1
0 0.549012 1
0 0.597252 1
0 0.394756 1
0.0545491 1 0.945451
0 0.962554 1
0 0.876931 1
0 0.933504 1
0 0.875483 1
0 0.150893 1
1 0.324685 0
0.0186396 1 0.98136
0 0.836672 1
1 5.96046e-08 0
0 0.489588 1
0.0820055 1 0.917994
0 0.183697 1
0 0.818346 1
0.101781 1 0.898219
0.587051 1 0.412949
0 0.745271 1
0 0.819167 1
0 0.388578 1
0 0.949055 1
0 0.925109 1
1 0.17531 0
0 0.695686 1
0 0.469693 1
0 0.664556 1
0.577471 1 0.422529
0.908486 1 0.0915139
0 0.81916 1
0 0.4616 1
0 0.796886 1
0 0.671772 1
1 5.96046e-08 0
0 0.261751 1
0 0.90812 1
0 0.622287 1
1 0.419414 0
0 0.874325 1
