# vtk DataFile Version 3.0
Particle simulation
ASCII
DATASET POLYDATA
POINTS 400 float
10 9.70246 3.11176
5.2504 7.30826 3.48981
9.11485 5.21628 6.74685
7.77988 6.52395 7.12673
4.55565 7.51979 2.10825
9.46228 7.97587 3.03912
1.97643 8.17044 8.48416
4.87969 5.67669 4.90023
5.54999 8.38648 7.7213
8.03719 6.00353 1.44535
7.4183 1.20609 6.24243
3.41138 1.71194 5.76756
1.82027 5.70591 8.18782
6.78215 9.6918 2.55462
9.20019 7.2757 9.54922
7.10899 8.47853 6.82432
9.68212 7.03022 8.70702
3.72066 0.549322 1.79039
1.35889 1.90897 5.28663
4.03219 4.12991 7.16048
3.5816 0.463284 1.77681
1.82267 7.56703 5.6312
4.9545 6.77344 5.55828
0.507553 2.57827 1.2647
0.904184 3.57502 2.36318
9.61308 8.2548 2.31628
9.91132 7.47408 8.97246
5.71667 6.25059 8.48269
6.31321 8.10867 1.95627
0.930685 3.19551 1.15998
3.82996 10 7.1616
5.89401 8.42931 0.399997
4.91277 6.67775 3.50453
3.92568 6.18825 2.69267
9.34772 0.510176 5.80184
9.54418 7.29498 9.73592
0.718173 9.97388 2.46459
3.53135 0.34062 1.16479
8.68654 2.51386 2.62332
6.30947 5.96745 4.28644
5.14052 5.16292 8.96218
0.284331 4.82376 10
4.13853 5.58881 4.91161
1.79341 1.49606 2.09856
7.04572 0.812476 1.07687
0 7.36902 5.81769
6.02471 7.54625 6.71386
8.99312 3.5066 2.8013
6.8662 1.29462 2.927
9.38055 0.448583 8.43908
6.37414 7.99909 4.1699
1.10451 6.13704 3.12567
9.66628 7.8451 4.28831
0 7.11409 7.69591
5.52321 2.12963 6.94896
4.47486 1.01098 3.95894
1.25525 3.33529 2.54857
6.89722 7.85291 1.19181
0.340791 6.28744 4.66938
5.40722 7.01853 0.387777
7.969 7.24768 3.69988
0.328264 8.97575 3.8988
5.66702 1.51357 3.58425
8.87122 6.37752 3.68024
6.04862 0.985972 7.87714
0.750538 6.45674 3.63564
6.91936 1.9709 6.33073
8.41569 2.76073 3.13125
7.51206 6.20211 6.70616
2.00193 8.73409 9.38323
1.08359 7.69333 6.06926
3.08432 4.20907 1.97158
6.92688 0.723074 4.46717
4.87136 2.09346 7.47027
5.50435 4.55057 8.25352
0.459894 8.09475 7.10994
0.166292 7.82705 8.35702
2.95566 6.4835 0.810824
0.936 4.96727 1.40703
3.25817 2.24567 6.26356
3.29952 0.120868 1.94361
2.00108 0.43157 3.01136
0 0.708518 7.44171
4.92459 3.47489 0
9.18579 1.44396 9.49535
1.54397 6.7991 6.16737
0.765277 2.53457 9.71144
8.06584 10 6.76621
4.40227 0.120077 4.58865
6.11746 2.46837 3.09211
4.00781 0.584526 1.55467
1.98698 9.73214 4.44972
1.46512 8.96993 8.59193
6.01998 2.30685 1.45386
0.345347 5.88979 4.89602
6.37759 3.75611 6.95719
1.44242 0.790436 1.79019
2.65917 8.23103 7.16865
6.75224 7.34001 1.905
1.69208 8.87636 5.68303
3.07703 0.750408 2.56517
1.00763 4.9591 9.76721
6.03805 3.20309 0.546097
6.59428 2.29956 2.89619
6.25222 0.490879 1.22785
1.4542 2.08134 3.01532
9.75338 5.96049 2.05237
3.7877 8.15426 2.40789
8.00434 7.41356 9.22317
2.63568 3.61733 8.14618
2.4681 0.397382 8.28912
4.74527 1.0608 0.517373
1.3418 6.21708 3.88844
1.82003 4.24642 9.61199
0.53187 0.0616741 1.08107
5.36558 5.09526 0.896935
2.19237 0.638594 9.14476
8.89443 3.25864 6.48458
6.32517 1.48693 2.64151
8.95316 3.23245 7.3569
5.10822 6.46376 10
7.59656 3.15697 8.94095
4.87876 3.32759 6.48063
2.96277 4.58886 6.76551
9.55734 5.77785 3.47329
3.01201 0.313802 2.36277
0.126493 1.53564 9.02158
3.39013 4.51492 9.36943
3.02583 1.98143 1.04471
1.79797 10 6.67175
9.08857 8.36757 3.84643
4.24585 5.22717 3.52077
8.51785 1.54456 6.27528
3.58932 1.89787 0.914383
0.501881 0.648407 8.08878
4.57838 3.37637 0.336397
9.50116 0.181591 9.18018
4.16554 2.3342 7.0737
0.451305 0.932146 8.86938
3.12257 8.88291 0.409339
2.64316 0.0890293 1.2304
9.04678 10 4.55964
10 9.33236 10
3.98319 0 7.83419
0.694615 0.314446 0.97709
4.32658 2.84852 2.45141
6.79383 3.30208 9.68921
3.88467 9.51777 4.56159
2.01656 2.64151 1.59883
8.72588 5.19531 3.34643
3.52776 0.625644 1.55993
8.58613 8.44957 4.1704
7.40621 0.586746 3.61024
3.74316 0.632969 1.58042
0 10 7.30687
5.77678 0.803418 3.30324
2.95202 8.60487 2.47407
2.02325 0.41922 2.32492
8.73533 9.50259 9.94946
4.07433 0.280565 4.85025
7.88763 5.32943 1.03697
8.799 5.25612 7.56519
4.63309 9.44018 4.87846
2.33369 2.27934 8.74137
1.73432 1.83411 0.500854
5.01247 4.96561 8.83396
5.26227 7.98019 6.66947
7.99108 5.72191 2.97327
9.78669 1.95321 8.73172
10 0.345108 5.81732
3.58004 0.6999 1.40618
2.79919 8.91987 0.865465
1.21002 1.96028 3.29885
3.58242 1.00351 4.33585
2.95298 1.67585 5.50763
7.91115 7.96831 9.66908
1.19844 2.21474 2.37558
7.85177 9.41798 9.94143
8.93367 3.34868 9.38377
6.10281 2.90535 10
2.95049 0.111897 1.40096
5.38178 9.64056 0.662423
5.67148 8.41571 6.80853
2.14946 7.98653 5.51141
1.07957 9.44709 6.16203
1.8854 5.2066 3.34967
2.81209 0.49644 1.29938
1.32803 4.96996 8.09117
4.65764 0.19156 0.938338
0.709765 0.338147 1.32186
3.05699 0.438594 1.31611
3.14211 0.134385 1.22952
9.12148 5.0397 7.79811
10 6.8589 0.913942
8.67064 1.43323 7.64891
2.99309 0.0635997 1.5176
8.48537 0.216245 7.01928
0.891677 5.88577 8.20957
3.26155 0.740446 0.90088
3.21268 0.151259 1.27239
3.01595 0.0365439 1.47418
9.52642 3.3218 4.5339
1.02612 8.56202 1.72048
8.25729 3.79979 3.68607
4.54658 5.69236 7.96524
3.28327 2.49666 8.55053
3.25409 0.17038 2.05872
4.68892 0.523072 3.49577
0.142716 0.377106 9.17756
7.59491 2.05367 3.17898
3.21373 0.474956 1.29908
3.02386 0.246935 1.6478
6.31087 8.51213 7.6548
10 6.46758 3.52959
5.56854 3.93628 5.73692
4.06237 0.788383 8.94421
3.40772 0.52043 1.51358
4.8209 2.0995 3.18109
3.78842 6.51812 1.37251
5.35781 2.18969 1.42089
9.56341 4.61901 1.75536
2.69285 2.88267 7.6661
2.47893 5.18859 3.17446
3.74908 0.858303 1.39371
8.34361 4.63337 5.32717
5.80126 8.0857 7.23098
7.54337 9.38155 1.48058
3.04653 0.59377 1.62256
3.04653 0.48092 2.00449
9.34375 0.415443 2.81009
8.74656 2.22195 9.05413
8.01875 0.0585233 9.01915
1.79249 8.74592 4.79429
3.44834 0.112237 2.25717
2.22156 0.782628 9.06787
7.36953 9.5339 1.87739
3.70478 3.41676 2.28499
6.39318 7.17738 8.414
3.36654 0.498365 1.96347
6.02761 6.66917 7.47727
3.17449 0.0948787 1.79008
2.89506 0.337069 1.11442
3.33141 0.178944 2.26431
3.36021 0.397805 2.04113
4.58807 1.39145 9.6666
3.4583 4.69094 9.56458
0.611625 1.19786 4.32013
6.80346 2.20463 0.0417104
4.25107 9.70454 6.35179
0.856708 9.74136 5.85437
4.41899 0.220409 1.38125
1.36033 1.72428 9.74558
2.07564 1.09282 7.70032
0.11874 6.43814 2.50711
8.77177 0.3833 1.00371
3.14661 0.537251 2.18068
2.30583 8.23769 0.223119
2.09211 0.415401 9.33537
1.01975 5.36763 8.16975
2.12685 0.658588 9.09785
3.20637 0.473591 1.68402
9.03932 7.13849 4.73102
8.74403 1.28929 4.68311
2.28204 0.660107 3.66014
1.89964 1.09726 8.45867
9.78036 5.50383 1.08445
7.03084 0.542312 1.7231
2.04832 0.513536 9.09182
0.255849 5.42975 7.54317
3.8455 0.386169 1.62629
3.73581 0.474801 1.56114
8.9597 4.93677 8.094
3.70297 1.89435 3.3414
9.21446 6.77175 7.63528
7.02388 0.879386 1.25702
2.85913 1.06139 4.57177
9.53685 6.84961 1.77112
5.46018 9.96475 3.79898
3.27411 2.03042 6.23336
3.51945 0.384555 1.72863
2.63669 0.306275 4.51697
7.35908 0.242652 0.698835
5.44465 5.05759 3.89257
5.35848 0.0845963 9.73037
8.58749 7.6136 8.58569
0.784765 3.67216 8.02037
2.88511 0.463899 1.69441
0.83148 1.20322 3.66624
6.43965 4.68696 0
2.38244 3.58831 4.03568
0.792159 8.34861 4.47196
9.7776 0.724005 6.39651
3.52149 0.447276 1.56998
2.67251 0.0422438 5.45123
1.51815 1.46513 8.24045
2.18561 0.486994 9.19261
3.23627 0.234165 1.35582
2.87022 0.0157645 1.65055
2.07214 1.00759 3.34142
3.55516 0.365333 1.22039
1.12291 0.275778 1.10638
8.54548 3.2839 3.64731
6.93892 0.326606 6.15742
1.4451 8.40956 1.50279
2.90331 0.134412 1.63832
2.76232 0.436472 4.93659
3.22385 0.223363 1.35646
3.66539 0.132581 1.62365
2.55629 0.164621 2.48949
9.10861 6.9732 1.56923
1.92635 1.32266 8.2517
7.22591 6.36788 9.12019
2.5245 7.07084 7.37083
3.31031 0.57085 1.86644
9.93466 1.90193 9.008
4.8671 0.540743 4.73486
2.74897 0 5.07062
0.550334 6.49409 7.61135
5.92569 0.591672 5.06426
1.50171 8.01834 2.03294
2.0703 0.833312 8.67549
9.54064 8.94168 8.76567
2.17645 0.419435 9.50782
2.77333 0.318927 1.80518
2.49806 0.289919 4.48
7.41202 5.99622 0.329195
3.08802 0.197665 2.06958
6.03195 6.99174 0
2.59886 2.29568 2.59125
3.26025 0.32416 1.44237
2.5188 0.153818 4.6656
3.7497 0.119614 2.14624
3.75234 0.827337 9.754
3.35721 0.308168 2.78546
7.36219 0.279929 0.669026
1.02027 3.66286 1.6457
1.16914 5.67092 7.89531
3.39094 0.138947 1.68673
1.96804 6.98422 5.0568
8.26493 7.96388 9.08264
9.9138 3.90015 5.88798
9.71229 7.3848 8.642
3.73303 0.786803 9.58753
2.17967 0.652697 9.12908
3.2208 0.133903 1.79392
3.34786 0.432265 1.5897
7.12685 0.178927 0.552403
3.25567 0.44218 1.51035
3.03093 0.497752 2.00303
7.41376 8.52447 9.67067
3.30359 0.260654 0.936328
3.32122 0.641449 1.76719
1.5621 1.75722 3.62067
2.22362 0.743648 9.35308
3.56553 0.528494 2.08747
2.9883 0.50484 2.10703
2.92534 1.38979 4.94306
3.7506 0.579846 9.56845
2.97372 0.119453 2.06793
3.26289 0.519167 1.16629
7.5647 0.18128 0.970572
2.22515 0.820964 9.11637
2.37915 0.494721 9.36344
3.39734 0.0586877 2.14554
3.48915 0.0882442 1.92809
6.9536 0.363018 0.550327
1.91759 0.722143 9.30491
2.58535 8.33815 0
2.51096 0.531823 9.00242
1.74631 0.514947 8.86098
7.53878 0.157716 0.943564
1.25953 2.30483 6.06027
0 1.16185 7.50924
3.43133 0.469262 1.53496
2.84956 0.0784108 1.82716
7.28299 0.695443 0.865331
1.95527 0.651949 9.60385
2.35815 0.920911 8.79642
3.99247 0.989644 9.07583
3.17793 0.0517198 1.69304
2.88864 0.436596 1.43204
3.78135 0.444078 1.29387
4.05595 1.0191 9.19313
3.70621 0.120382 1.61788
3.12386 1.34934 4.82979
1.94461 0.687953 9.06766
3.12937 0.107253 1.76395
3.27913 0.403918 1.50066
5.28658 1.49656 0.908149
7.84566 0.245065 1.40785
3.25889 0.208033 1.08402
3.47662 0.303755 1.23286
2.49732 0.563862 9.55311
3.40009 0.525153 1.38802
2.45571 0.839673 5.0552
2.06751 0.569795 9.49919
3.11303 0.172609 1.69492
3.06961 0.0886266 6.56956
7.46589 0.478546 1.14242
7.74157 0.154517 1.17585
POINT_DATA 400
SCALARS particleColor float 3
LOOKUP_TABLE default
1 5.96046e-08 0
0.700451 1 0.299549
0.0393599 1 0.96064
1 0.0337917 0
1 5.96046e-08 0
0.217298 1 0.782702
0.266501 1 0.733499
1 5.96046e-08 0
1 0.660863 0
1 5.96046e-08 0
1 0.893046 0
1 0.350807 0
0.716017 1 0.283983
1 5.96046e-08 0
1 0.352963 0
1 0.982198 0
0.000512781 1 0.999487
0 0.610951 1
0.524666 1 0.475334
1 5.96046e-08 0
0 0.619072 1
1 5.96046e-08 0
1 5.96046e-08 0
0.341922 1 0.658078
1 0.373024 0
0.00294537 1 0.997055
0.815658 1 0.184342
1 0.915203 0
1 0.413253 0
1 0.352883 0
1 5.96046e-08 0
1 0.289224 0
1 5.96046e-08 0
0.918205 1 0.0817947
1 5.96046e-08 0
1 5.96046e-08 0
0.486136 1 0.513864
0 0.259646 1
0.0598285 1 0.940171
1 5.96046e-08 0
0.705231 1 0.294769
1 5.96046e-08 0
0.4843 1 0.5157
0.823359 1 0.176641
0 0.785788 1
1 5.96046e-08 0
0.659049 1 0.340951
0.386835 1 0.613165
1 5.96046e-08 0
1 5.96046e-08 0
1 0.196893 0
0.282198 1 0.717802
0.230574 1 0.769426
1 5.96046e-08 0
1 5.96046e-08 0
0.592527 1 0.407473
0.592353 1 0.407647
0.972199 1 0.0278009
0.497402 1 0.502598
1 0.835625 0
1 5.96046e-08 0
1 0.842056 0
0.646584 1 0.353416
0 0.480559 1
0.590848 1 0.409152
1 5.96046e-08 0
0 0.873295 1
1 5.96046e-08 0
0.644208 1 0.355792
1 5.96046e-08 0
1 5.96046e-08 0
0.413812 1 0.586188
0.316559 1 0.683441
0.500056 1 0.499944
1 5.96046e-08 0
1 5.96046e-08 0
0.172435 1 0.827565
1 0.442198 0
0 0.735763 1
1 5.96046e-08 0
0 0.620331 1
1 0.814671 0
0 0.460979 1
1 5.96046e-08 0
0.387844 1 0.612156
1 0.688525 0
1 5.96046e-08 0
0.645026 1 0.354974
0.619308 1 0.380692
1 5.96046e-08 0
0 0.168773 1
0.557909 1 0.442091
1 0.618924 0
1 5.96046e-08 0
1 0.403179 0
0.337367 1 0.662633
1 5.96046e-08 0
0 0.787076 1
0.928934 1 0.0710663
1 0.950591 0
0 0.0486051 1
0.833973 1 0.166027
0.349634 1 0.650366
1 0.938579 0
1 5.96046e-08 0
1 0.791866 0
1 0.725164 0
0.0257589 1 0.974241
1 0.65227 0
1 0.253295 0
1 5.96046e-08 0
1 5.96046e-08 0
1 5.96046e-08 0
1 5.96046e-08 0
0 0.860836 1
1 0.667736 0
0 0.762929 1
0.534974 1 0.465026
0.0872068 1 0.912793
1 0.0280982 0
1 5.96046e-08 0
1 5.96046e-08 0
1 5.96046e-08 0
0.279398 1 0.720602
0 0.888869 1
0 0.722158 1
0.298317 1 0.701683
0.515839 1 0.484161
1 0.886999 0
0.645952 1 0.354048
1 5.96046e-08 0
1 5.96046e-08 0
1 5.96046e-08 0
1 0.365856 0
0 0.932651 1
1 0.952954 0
0.53041 1 0.46959
0 0.947378 1
1 5.96046e-08 0
1 0.818647 0
0 0.464841 1
0.657577 1 0.342423
1 5.96046e-08 0
1 5.96046e-08 0
0 0.668108 1
0.959835 1 0.0401654
0.945898 1 0.0541022
1 0.670533 0
0.399678 1 0.600322
0 0.735401 1
0 0.520234 1
1 5.96046e-08 0
1 0.518278 0
0 0.382422 1
1 5.96046e-08 0
0.0314396 1 0.96856
0.246287 1 0.753713
0.963301 1 0.0366986
0 0.916593 1
1 0.00980294 0
1 5.96046e-08 0
0 0.774593 1
0.0959145 1 0.904085
1 5.96046e-08 0
0.447787 1 0.552213
1 5.96046e-08 0
0.0302243 1 0.969776
1 0.54247 0
1 0.662749 0
1 0.0799147 0
0 0.249241 1
1 5.96046e-08 0
1 0.980865 0
0.470774 1 0.529226
0 0.805789 1
1 0.0133757 0
0.74416 1 0.25584
0 0.716667 1
1 5.96046e-08 0
0.417327 1 0.582672
0 0.383615 1
0.366776 1 0.633224
0 0.352062 1
0.370743 1 0.629257
1 5.96046e-08 0
1 5.96046e-08 0
0 0.288465 1
0.382029 1 0.617971
0 0.532018 1
0 0.880237 1
0 0.522542 1
0 0.593907 1
0 0.68638 1
1 5.96046e-08 0
1 0.466321 0
0 0.757702 1
1 0.286792 0
1 0.817321 0
0 0.368583 1
0 0.564156 1
0 0.499906 1
0.520822 1 0.479178
1 5.96046e-08 0
0 0.829132 1
1 5.96046e-08 0
0.427345 1 0.572655
0 0.709762 1
1 0.869811 0
1 0.60415 0
1 5.96046e-08 0
0 0.496087 1
0 0.549379 1
1 5.96046e-08 0
1 5.96046e-08 0
0.20303 1 0.79697
0 0.566356 1
0 0.846211 1
0 0.626913 1
0.517745 1 0.482255
0 0.578454 1
1 0.138663 0
0 0.818947 1
1 0.307107 0
0 0.727799 1
1 0.71909 0
1 5.96046e-08 0
1 0.710932 0
0 0.826838 1
0 0.537669 1
1 0.978452 0
1 5.96046e-08 0
1 0.746723 0
1 5.96046e-08 0
0 0.773632 1
0 0.628609 1
0.484154 1 0.515846
1 5.96046e-08 0
0.965159 1 0.0348409
0 0.539352 1
1 5.96046e-08 0
0 0.613097 1
0 0.879902 1
0 0.565963 1
0 0.716153 1
0 0.933007 1
0 0.584878 1
1 5.96046e-08 0
0 0.770931 1
0.837074 1 0.162926
0.947703 1 0.0522971
0 0.309129 1
1 5.96046e-08 0
0 0.884201 1
1 5.96046e-08 0
0 0.4172 1
0 0.521215 1
0.629879 1 0.370121
0 0.944385 1
0 0.435802 1
0 0.260461 1
0 0.797485 1
1 0.122648 0
0.0970882 1 0.902912
0.367267 1 0.632733
0 0.708793 1
1 0.905438 0
0 0.480824 1
0 0.603192 1
0.112817 1 0.887183
0 0.454539 1
0 0.824513 1
0.251955 1 0.748045
1 0.357527 0
1 5.96046e-08 0
0 0.833621 1
0.799416 1 0.200584
0 0.789083 1
1 5.96046e-08 0
1 5.96046e-08 0
0 0.235914 1
0 0.46902 1
0 0.522286 1
1 0.937128 0
0.296437 1 0.703563
0.962133 1 0.0378667
1 5.96046e-08 0
0 0.328986 1
0.0589961 1 0.941004
1 5.96046e-08 0
1 5.96046e-08 0
1 5.96046e-08 0
0 0.232579 1
0.00714145 1 0.992859
0 0.747739 1
0 0.894134 1
0 0.856089 1
0 0.505347 1
0 0.736723 1
0.632026 1 0.367974
0 0.0751402 1
0.614925 1 0.385075
0 0.258058 1
0.18948 1 0.81052
0.795167 1 0.204833
0 0.649727 1
0 0.398131 1
0 0.750892 1
0 0.46505 1
0.0439314 1 0.956069
0 0.475247 1
1 5.96046e-08 0
1 0.719965 0
1 0.877598 0
0 0.38272 1
1 0.76328 0
0 0.578444 1
0.153972 1 0.846028
0.451733 1 0.548267
0 0.804061 1
0.0300683 1 0.969932
0 0.702041 1
1 5.96046e-08 0
0 0.645537 1
0 0.51293 1
0.308338 1 0.691662
1 0.678011 0
0 0.926595 1
0.825344 1 0.174656
1 0.197049 0
0 0.603798 1
1 0.717726 0
0 0.716844 1
0 0.344178 1
0 0.285568 1
0 0.793666 1
1 5.96046e-08 0
0 0.967477 1
0 0.220992 1
0.987251 1 0.0127494
0.585855 1 0.414145
1 0.173542 0
1 0.841717 0
0 0.436537 1
0 0.432543 1
0 0.286547 1
0 0.899032 1
0.0520981 1 0.947902
0 0.751746 1
0 0.682495 1
0.0532357 1 0.946764
0 0.643118 1
0 0.434388 1
0 0.744643 1
0.121009 1 0.878991
0 0.685414 1
0 0.476155 1
0 0.716645 1
0 0.817011 1
0 0.987878 1
0 0.227685 1
0 0.308877 1
0 0.399274 1
0 0.291448 1
0 0.624669 1
0 0.820044 1
0 0.744805 1
0 0.543686 1
1 5.96046e-08 0
0 0.543506 1
1 5.96046e-08 0
0 0.395833 1
1 0.14552 0
0.00667057 1 0.993329
0 0.846253 1
0 0.606811 1
0 0.482829 1
0 0.706478 1
0 0.72153 1
0 0.567091 1
0 0.787467 1
0 0.50334 1
0 0.250372 1
0 0.678662 1
0 0.431678 1
0.915326 1 0.0846738
0 0.736114 1
0 0.478212 1
0 0.297328 1
1 0.711361 0
0 0.968433 1
0 0.517268 1
0 0.436442 1
0 0.327732 1
0 0.592821 1
0 0.752963 1
0 0.324674 1
0 0.580946 1
0.872522 1 0.127478
0.512183 1 0.487817
0 0.426089 1
