# vtk DataFile Version 3.0
Particle simulation
ASCII
DATASET POLYDATA
POINTS 400 float
1.68757 0.459556 9.2263
1.27828 1.83696 9.10445
7.28952 4.81006 7.62022
4.95644 2.83036 6.75311
7.47423 0.975855 7.37914
3.77143 7.35635 5.75927
5.04587 4.4976 3.93061
7.59812 3.40947 4.71998
7.48361 1.50925 1.08068
2.10483 1.06499 8.66315
3.16899 1.33601 2.61592
5.45279 4.43253 7.29755
9.55051 2.1726 4.21816
1.28924 1.67571 3.8143
0.212107 2.93101 1.44933
5.27606 3.05187 7.98105
2.18252 5.82041 0.730354
3.17089 0.33335 1.28008
7.41929 5.10508 9.40502
8.9976 0.410715 4.7021
3.27374 0.143352 1.45841
7.30447 2.51937 8.31229
0.622102 7.06967 1.621
2.44646 5.12438 1.34926
8.89451 2.47691 3.68538
1.59629 4.60466 10
8.57238 1.55897 2.90805
0.460183 0.00784417 9.49491
7.24898 5.43679 1.18731
7.30711 3.55068 8.39231
2.63637 3.46649 4.09505
0.365574 6.41333 3.83366
0.388174 9.46867 7.70005
7.76209 0.742415 2.51112
7.88547 4.6265 6.55729
2.38336 2.79078 2.80385
6.51664 0.162132 9.84763
3.69247 0.456842 0.810311
6.68737 2.61472 0.623651
1.57346 1.21319 8.67051
9.42357 1.74433 4.5497
7.20639 3.5782 8.00297
5.94206 5.00275 5.15869
3.12312 2.11039 9.79214
9.12099 0.145788 4.29101
5.50021 0.631852 0.82572
4.82 4.54773 6.62169
7.58749 3.24656 6.56228
5.42078 0.438833 0.831166
6.65181 2.5556 5.26683
4.1342 4.52599 4.85971
7.72549 2.67361 0.296873
7.85948 0.444522 6.15823
4.94966 1.19797 6.52264
5.67433 1.76838 8.15859
5.13154 0.41402 0.77466
8.73005 2.14304 5.27366
0.854608 1.24794 7.17748
6.24405 1.49008 0.785373
3.27559 4.32862 2.59947
4.27621 2.06722 5.22589
1.47761 5.06824 5.77433
9.07303 0.424623 9.00549
1.2413 0.987617 9.85992
2.99151 7.26357 3.08971
1.34812 1.03969 9.45063
1.88073 1.22702 8.56751
4.74057 3.91523 0.231875
6.32741 1.6327 0.875687
5.40153 0.478406 8.90587
9.64328 0.710868 5.35067
3.06783 0.282968 2.55396
6.77343 4.99191 6.24942
1.3919 1.06255 9.83566
0.448061 1.26714 8.39333
2.71623 7.28437 4.63913
3.53187 0.0676434 7.79936
5.76901 0.625544 8.19071
2.25595 3.94325 0.819082
9.46255 0.488203 8.7297
3.42593 0.132354 1.27381
4.33224 0.812513 3.62703
1.21778 1.3157 4.61979
3.02928 0.394084 1.5905
0.121226 0.225476 8.43476
2.77763 0.233018 8.56457
5.33435 4.72467 3.97585
4.49777 0.381089 7.08142
0.734483 9.35118 1.4977
7.0834 0.348266 0.987138
3.53288 0.358425 1.15681
2.27796 0.424057 1.22435
1.38383 1.25187 8.66984
2.9023 0.572681 4.44122
1.69346 0.480571 9.58488
1.5455 0 3.92495
7.64612 5.71049 2.87834
5.41934 7.3399 5.31675
4.21148 0.949571 4.63236
7.08644 0.367366 0.877833
3.26565 0.223871 0.966655
5.04436 1.79468 2.42089
3.69954 0.625222 4.71623
5.24903 3.73108 6.4093
2.78314 4.02693 7.68468
1.31396 0.391183 0.942027
9.25508 0.469445 9.82157
5.67794 0.820756 1.5101
5.2279 1.15155 1.37698
9.35993 7.3683 7.27654
6.90289 9.79105 1.56017
2.59821 0.56793 8.1456
7.8319 4.82088 0.4635
4.64947 0.735874 0.438494
3.96163 0.619472 0.917958
0.469944 0.509885 2.25956
5.68099 0.856233 8.40908
8.53837 1.23583 3.03225
9.51064 0.455547 4.47479
1.29807 8.49158 5.80324
3.67271 0.252064 0.817983
5.98014 3.30544 5.28182
7.67469 3.52322 4.45572
3.62029 4.96058 9.15296
5.63933 1.78912 8.15189
2.83499 0.0119414 1.08872
9.66822 3.46249 6.45195
1.08584 0.824452 9.7692
0.0625611 0.20995 9.12439
2.18421 5.94251 7.39568
3.96412 0.297766 2.16698
3.06259 2.83537 9.48798
8.07761 4.95416 6.47259
5.1297 0.718277 8.88907
1.15775 9.56821 9.62024
0.149816 0.204764 0.917789
6.774 8.52858 9.30419
1.04727 0.881849 9.9486
4.22888 1.65715 7.12788
5.0753 0.351683 8.15606
3.78682 0.208852 1.48935
3.63642 4.95642 9.58753
2.48897 2.72921 9.03642
6.49759 1.76693 8.59938
3.25265 0.316212 0.896697
4.66707 0.794323 3.7465
9.12784 0.137245 4.15482
0.261178 0.469847 1.10276
2.93864 0.369479 2.51308
6.34655 1.36204 4.66777
3.87857 0.144581 1.51309
7.7057 2.00839 6.51445
1.03634 0.960044 9.36756
3.12131 2.70876 8.15167
4.75921 6.66824 5.28144
5.77575 0.795305 1.15514
9.75621 0.176194 5.24264
4.15559 0.581025 0.54203
9.88831 2.62782 3.8356
2.80178 2.26186 0.884494
6.06689 0 1.56712
3.32538 1.62212 5.8653
5.87385 0.142985 9.5617
2.46562 0.203675 0.0388163
4.67803 1.72237 2.20921
9.53929 1.80642 8.59371
5.66422 0.389457 8.33145
5.31847 0.357421 8.70481
6.72435 8.44328 5.93882
4.75473 2.11336 2.68081
3.74175 0.111439 1.1979
4.30581 0.465893 2.1449
5.6506 3.20342 2.93005
0.531861 0.821012 0.471585
3.6607 0.471922 4.18661
8.74699 4.15965 0.241721
2.65035 0.120899 8.40584
3.44344 0 7.65413
3.14921 0 8.19727
0.951873 1.76069 1.71326
3.69625 0.506888 1.38226
5.00205 7.55452 8.98488
3.47029 2.23073 1.10339
3.84513 0.604727 0.841128
5.75021 0.046123 8.04391
4.64621 0.842222 0.771521
3.45015 0.225091 1.35023
5.62548 3.81826 3.27856
8.96866 0.561482 4.41252
3.35593 0.613713 1.22765
3.34713 0.403936 0.936597
3.14335 0.362623 1.1863
4.46686 0.661175 4.87424
0.458865 0.0630888 0.0648081
7.39414 5.33228 0.988558
2.89841 0.596512 1.51839
3.6959 0.392797 4.28601
0.443987 0.904431 5.76414
3.3211 0.205927 1.15375
3.81746 0.310517 1.35998
3.63746 0.210899 1.35225
5.65226 0.432847 0.873031
9.12403 0.61863 3.69488
2.62777 0.161853 8.6323
9.30049 7.91206 9.17965
5.4568 0.597063 8.2804
3.49077 0.93821 1.39846
2.20688 2.38106 9.39353
0.648188 0.392061 5.09077
7.09004 0.277879 0.897326
3.12519 0.449963 1.40767
4.80407 0.78064 0.484344
9.51525 3.541 6.48121
5.85313 2.04779 8.37444
1.10437 1.80507 8.49557
5.65464 0.462221 8.16753
3.10721 0.306613 1.41829
2.61919 0.499545 1.13433
2.51214 3.68445 9.48053
6.95793 0.450679 0.708543
2.67496 4.24275 3.90602
9.45609 1.83578 8.40334
4.907 0.232899 8.27368
2.78901 0.563664 1.49246
5.29883 0.605235 8.94644
2.98451 0.569729 1.53189
9.48428 7.81163 0.260285
3.05127 0.337485 1.11598
3.32818 0.0598383 1.27181
8.05726 0.457339 6.07902
3.15083 1.77531 5.90329
5.67591 0.508001 7.82031
9.27472 0.116588 4.43236
3.19672 0.377927 1.33605
5.55444 0.790146 8.39752
1.21645 1.93307 4.07272
1.71709 1.23225 8.28222
3.89505 0.252812 5.13426
3.18308 0.592276 0.979645
3.62082 2.73428 5.52075
3.16429 0.47077 1.50269
3.15111 0.589795 1.62487
2.52363 0.328979 1.66915
3.92131 0.285014 1.65696
5.78026 0.655136 8.1645
1.20712 0.456279 1.02769
1.49624 1.19994 4.00877
6.73694 1.41148 8.97134
3.59368 0.0289044 0.420875
4.637 0.421721 8.67509
3.25386 0.182943 1.64124
7.37873 5.5543 6.61887
5.71534 0.412013 8.12014
3.75718 0.388421 5.19764
9.61257 0.431579 4.68043
3.07653 0.26773 1.56547
6.66477 1.08705 0
4.8351 0.339567 8.73171
5.61914 0.158829 2.4255
5.59106 0.288434 8.36598
3.86721 0.448255 1.536
8.57133 1.19793 2.64083
2.69038 0.0136778 8.52522
9.14731 9.00582 3.76187
5.34666 0.12612 8.65264
5.6975 1.94756 5.11512
3.79037 0.557008 1.72827
5.55888 0.418177 8.36868
9.03793 0.4184 4.23551
3.35649 0.759424 2.11771
3.70571 0.667581 0.714579
4.35846 0.683236 0.198095
5.00554 0.449488 2.20438
4.01438 0.680224 4.94247
4.60966 0.45111 8.30965
5.04323 0.477371 8.63548
2.77859 2.73974 9.16187
1.66126 9.96196 3.81962
0.588026 0.310333 4.97528
3.28198 0.218584 1.1109
6.96275 0.280939 0.609133
5.52741 0.753221 1.24101
0.78556 1.09574 1.02043
2.44224 0.315752 8.21924
9.16392 5.20227 7.59979
9.47213 0.512955 4.10731
3.09702 0.257395 1.23886
4.45567 1.04487 3.61079
5.34016 0.240174 9.09127
1.66464 5.52798 7.61599
9.43706 0.126883 0.962869
5.23172 0.111084 0.732097
3.49693 0.231673 0.679541
1.1419 1.00011 9.85963
5.86357 0.480304 7.99605
5.59994 0.365447 8.17643
2.96448 0.19033 1.59794
2.89453 0.214788 0.921251
4.76491 0.858274 3.82629
2.79883 0.269344 1.43574
7.29086 1.01721 0.45638
5.67981 1.72807 8.41902
2.98442 2.57888 9.07058
4.15818 1.14813 4.58687
3.70656 0.503101 1.55132
0.314591 0.207232 9.6235
2.91013 0.437461 0.479731
3.72708 0.38949 1.25014
2.00539 1.21059 8.04349
4.17153 0.476267 5.06063
5.38213 0.849658 8.3589
7.64549 1.95343 6.46822
8.91977 0.212568 4.68657
3.21844 0.166828 1.27703
4.30608 0.901001 3.34324
1.13236 0.851198 9.80592
4.17574 0.461309 0.227014
5.85935 0.223021 2.43928
5.62511 0.671292 1.02761
3.10713 0.287478 2.50367
5.39002 0.177864 8.06107
1.27121 1.50222 4.65419
5.76239 0.362275 7.75882
2.82248 0.219 1.01336
7.04992 0.2062 0.690283
7.14013 0.393865 0.909687
3.42008 0.350842 0.937864
5.91869 0.892272 1.04279
5.37069 0.569965 1.70266
3.29727 0.119216 1.68388
9.90069 1.48299 8.85785
3.09781 0.29638 1.04008
5.42671 0.818182 8.36888
2.87045 0.342595 1.62492
5.9883 0.803855 1.07422
9.14909 5.05603 7.77689
5.6547 0.116234 2.52255
3.06584 0.568569 1.42225
6.7276 0.396309 1.02245
3.56649 0.56751 4.2497
5.23573 0.709642 8.19702
3.48861 0.412556 4.4693
5.83818 0.591149 8.81357
5.94518 0.739618 8.67674
3.29986 0.477221 1.28401
3.4272 0.417622 0.997825
5.9125 0.758882 1.14258
3.06463 0.532979 1.53338
3.33196 0.505747 1.06362
3.09305 0.525135 4.27782
3.31101 0.526888 0.924844
3.73281 0.144541 0.989512
5.49616 0.581596 9.55075
5.40521 0.30439 8.73011
3.28652 0.602307 1.00605
3.06231 0.523896 1.51775
5.60991 0.954322 1.43249
5.48999 0.679136 8.64957
3.05255 0.271944 1.41755
3.61461 0.479404 1.15498
5.40051 0.690082 1.04027
5.50073 0.316582 8.43597
5.2101 0.185087 8.20858
3.31334 0.358021 1.31928
3.88482 0.122438 1.50914
9.30023 0.189868 4.74785
5.37056 0.604665 8.05056
5.21909 0.267914 9.65217
5.2017 0.176557 8.12967
3.76395 0 0.93933
5.4027 0.622402 1.04749
7.64582 1.9901 6.51868
5.45654 0.430931 8.33308
3.53148 0.526083 1.81495
3.49014 0.376343 1.4395
9.20825 0.248646 4.54223
5.44947 0.321936 8.60254
4.79602 0.613698 8.30823
5.63715 0.437721 7.96484
3.25376 0.288551 0.991264
3.78783 0.328206 1.08095
3.30943 0.451895 1.40622
5.8205 0.155157 7.73748
3.14209 0.128417 1.33398
1.15256 0.817086 9.85469
5.6716 0.513533 8.31335
3.89016 0.319083 0.864069
3.65673 0.104874 1.38529
8.56375 2.4929 4.47714
5.50787 0.441723 0.801699
3.70687 0.266733 1.11896
3.20414 0.393344 1.42034
5.76179 0.595021 8.17949
3.28744 0.323745 0.943961
1.065 0.780594 9.90235
5.70807 0.479568 8.20779
3.86461 0.28043 0.927087
3.07083 0.652567 4.15265
7.13002 0.264133 0.987053
5.513 0.449108 0.771833
POINT_DATA 400
SCALARS particleColor float 3
LOOKUP_TABLE default
0 0.590205 1
1 0.937349 0
1 5.96046e-08 0
1 0.48821 0
1 5.96046e-08 0
1 5.96046e-08 0
0.754139 1 0.245861
0 0.3757 1
0 0.850506 1
0 0.836491 1
0.716769 1 0.283231
1 5.96046e-08 0
0 0.962091 1
0.411998 1 0.588002
1 5.96046e-08 0
0.213417 1 0.786583
0 0.422994 1
0 0.670647 1
0 0.871626 1
0.154702 1 0.845298
0 0.158875 1
0.321277 1 0.678723
1 5.96046e-08 0
0.941644 1 0.0583562
0.83578 1 0.16422
0 0.609225 1
1 0.0544782 0
1 0.976783 0
1 0.992557 0
0.843083 1 0.156917
0 0.688716 1
0 0.87441 1
0.0537218 1 0.946278
0.276711 1 0.723289
1 0.469217 0
1 5.96046e-08 0
0.289354 1 0.710646
0 0.258614 1
0 0.841569 1
0 0.614269 1
0.27374 1 0.72626
0.0766463 1 0.923354
1 0.906917 0
1 5.96046e-08 0
0 0.519564 1
0 0.353115 1
0.786953 1 0.213047
0 0.904082 1
0 0.867687 1
1 5.96046e-08 0
0.232273 1 0.767727
1 5.96046e-08 0
0 0.541333 1
0.22858 1 0.77142
0.109553 1 0.890447
0 0.353763 1
0.0277334 1 0.972267
0 0.809999 1
0 0.612835 1
1 0.795263 0
1 0.697847 0
1 0.23514 0
1 5.96046e-08 0
0 0.646995 1
0 0.920572 1
0 0.685182 1
0 0.842742 1
0 0.970181 1
0 0.691756 1
0 0.580886 1
0.0829429 1 0.917057
0 0.458419 1
0.149325 1 0.850675
0 0.759166 1
0 0.779218 1
1 5.96046e-08 0
0 0.611063 1
0.063426 1 0.936574
0.34024 1 0.65976
0.0662041 1 0.933796
0 0.539816 1
0 0.250438 1
0 0.568186 1
0 0.562172 1
0 0.660576 1
0.0841282 1 0.915872
0.466322 1 0.533678
0.609533 1 0.390467
0.0201864 1 0.979814
0 0.695976 1
0 0.672761 1
0 0.384672 1
0.0562427 1 0.943757
0 0.801568 1
0 0.63648 1
1 5.96046e-08 0
0.747662 1 0.252338
0 0.310657 1
1 0.972505 0
0 0.298164 1
0 0.248516 1
0.326182 1 0.673818
0 0.632827 1
0.844861 1 0.155139
1 0.984501 0
0 0.849891 1
0.419512 1 0.580488
0 0.248181 1
0 0.774618 1
1 5.96046e-08 0
0.489841 1 0.510159
0 0.463931 1
0.108633 1 0.891367
0 0.16632 1
0 0.345954 1
0.961769 1 0.0382315
0 0.529882 1
0.178844 1 0.821156
0.773366 1 0.226634
1 5.96046e-08 0
0 0.441483 1
1 0.944208 0
1 5.96046e-08 0
0.757027 1 0.242973
0 0.500082 1
0 0.541939 1
1 5.96046e-08 0
0 0.422046 1
0 0.321208 1
1 0.98465 0
0 0.529502 1
0.855698 1 0.144302
0.741305 1 0.258695
0.109224 1 0.890776
1 0.699975 0
0.136758 1 0.863242
0.638602 1 0.361398
0 0.494089 1
1 0.990413 0
0 0.561237 1
0 0.394197 1
0 0.794365 1
0 0.82675 1
0.280829 1 0.719171
0 0.793876 1
0.0846212 1 0.915379
0 0.769791 1
0 0.728056 1
0 0.652231 1
1 0.610231 0
0 0.523547 1
0 0.682827 1
0.0255277 1 0.974472
1 0.937348 0
1 0.235232 0
0 0.77173 1
0 0.651435 1
0 0.408564 1
1 0.715971 0
0 0.679781 1
0 0.937676 1
0 0.634368 1
0 0.647375 1
0 0.268951 1
1 0.135752 0
0.0639017 1 0.936098
0.272421 1 0.727579
0 0.609141 1
1 5.96046e-08 0
0.760785 1 0.239215
0 0.583705 1
0 0.806835 1
0 0.760967 1
0 0.912003 1
0 0.741174 1
0 0.941421 1
0 0.664522 1
0 0.846691 1
0.744622 1 0.255378
1 0.782154 0
0 0.348945 1
1 0.491435 0
0.302889 1 0.697111
0 0.860387 1
0 0.385669 1
0 0.788843 1
0 0.62822 1
1 5.96046e-08 0
0 0.806028 1
0 0.379807 1
0 0.420636 1
0 0.668665 1
1 5.96046e-08 0
0 0.333745 1
1 5.96046e-08 0
0 0.487177 1
0 0.546908 1
1 0.144282 0
0 0.50151 1
0.0437439 1 0.956256
0 0.793562 1
0 0.267653 1
0 0.659798 1
0.0227818 1 0.977218
1 0.539288 0
0 0.50482 1
0 0.497071 1
0.889036 1 0.110964
0 0.455102 1
0 0.160595 1
0 0.826906 1
0 0.616864 1
1 0.516245 0
0 0.809104 1
0 0.834103 1
0 0.738262 1
0 0.97188 1
0 0.525237 1
0 0.595173 1
0 0.902323 1
0.993919 1 0.00608146
0 0.561769 1
0 0.888308 1
0 0.344919 1
0 0.505584 1
0 0.817948 1
0.315642 1 0.684358
0 0.666379 1
0 0.569154 1
0.519156 1 0.480844
0 0.863593 1
0 0.892762 1
0 0.659367 1
0 0.94786 1
0 0.646287 1
0 0.312429 1
0 0.44155 1
0 0.894683 1
0 0.367694 1
0.8894 1 0.1106
0 0.876844 1
0 0.728928 1
0 0.620633 1
0 0.660993 1
0 0.534548 1
0 0.56909 1
0 0.88909 1
0 0.83509 1
0.269633 1 0.730367
0 0.142825 1
0 0.275564 1
0 0.852563 1
0 0.504842 1
0 0.152777 1
0 0.453555 1
0 0.576515 1
0 0.949025 1
0 0.602641 1
0 0.799795 1
0 0.52902 1
0 0.0972388 1
0 0.840617 1
0 0.686695 1
1 5.96046e-08 0
0 0.279892 1
1 5.96046e-08 0
0.308206 1 0.691794
0.0260923 1 0.973908
0 0.48992 1
0 0.54465 1
0 0.63558 1
0.0988607 1 0.901139
0.118891 1 0.881109
0 0.752698 1
0 0.698674 1
0 0.437111 1
0.00267453 1 0.997325
1 5.96046e-08 0
0.413255 1 0.586746
0 0.419834 1
0 0.550017 1
0 0.669415 1
0.765708 1 0.234292
0 0.481046 1
0 0.756798 1
0 0.359116 1
0 0.531677 1
0 0.868083 1
0 0.976785 1
1 0.856998 0
0 0.213748 1
0 0.813171 1
0 0.722065 1
0 0.225053 1
0 0.472453 1
0 0.623704 1
0 0.484309 1
0 0.428624 1
0 0.436237 1
0 0.284432 1
0 0.588248 1
0 0.913585 1
0.030339 1 0.969661
0.944253 1 0.0557472
0 0.446559 1
0.517543 1 0.482457
0 0.780726 1
0 0.471113 1
0.124545 1 0.875455
0 0.368872 1
0 0.664405 1
0 0.79431 1
0 0.190132 1
0 0.886757 1
0 0.521263 1
0.254067 1 0.745933
0.0063134 1 0.993687
0 0.436153 1
0.198393 1 0.801607
0 0.87083 1
0 0.464941 1
0 0.792893 1
0 0.611224 1
0 0.518093 1
0 0.708107 1
0 0.324266 1
0 0.580237 1
0 0.490576 1
0 0.892007 1
0 0.878525 1
0 0.763928 1
0 0.913755 1
0 0.677923 1
0 0.812984 1
0 0.667237 1
0 0.721025 1
0.268966 1 0.731034
0 0.347037 1
1 0.906636 0
0 0.649779 1
0 0.663995 1
0 0.494717 1
0 0.249319 1
0 0.510396 1
0 0.484462 1
0 0.679605 1
0 0.43485 1
0 0.654814 1
0.0986375 1 0.901363
0 0.349115 1
0.218518 1 0.781482
0 0.269714 1
0 0.85324 1
0 0.631675 1
0 0.797701 1
0 0.540231 1
0 0.339854 1
0 0.706436 1
0 0.801839 1
0 0.543754 1
0 0.33265 1
0 0.534344 1
0 0.448319 1
0 0.345517 1
0.254742 1 0.745258
0 0.602059 1
0 0.832883 1
0.101532 1 0.898468
0 0.532337 1
0.238419 1 0.761581
0 0.403278 1
0 0.769425 1
0 0.726575 1
0 0.942854 1
0 0.765463 1
0 0.627502 1
0 0.735494 1
0 0.335151 1
0 0.568161 1
0 0.763542 1
0 0.660652 1
0 0.435588 1
0 0.936884 1
0 0.835769 1
0 0.896993 1
0 0.762358 1
0 0.47933 1
0 0.459372 1
0.0785754 1 0.921425
0 0.798215 1
0 0.712033 1
0 0.568629 1
0.0540391 1 0.945961
0 0.43409 1
0 0.393985 1
0 0.511974 1
0 0.456981 1
0 0.474938 1
0.0969153 1 0.903085
0 0.693393 1
