# vtk DataFile Version 3.0
Particle simulation
ASCII
DATASET POLYDATA
POINTS 400 float
4.65708 0.290136 9.67949
3.71073 2.68457 5.8003
0.521158 1.73564 6.66216
3.15165 0.270568 3.24004
9.89539 2.18352 5.7249
3.00135 1.50382 3.22816
0.418137 0.925824 0.939856
5.50037 3.21726 3.03021
8.66267 0.726566 3.74201
2.26205 1.45466 9.1662
3.31604 2.45857 4.14349
0.494394 1.62881 5.81785
9.30462 1.6256 6.65272
0.345556 4.21567 3.36988
8.69977 3.06473 4.14672
7.64614 4.58947 9.36575
1.6013 3.36314 0.137694
3.50196 0.353265 1.35452
2.86852 6.34381 9.40418
4.79971 1.68329 3.4042
3.08525 0.151098 1.81752
8.39196 0.717061 2.93045
7.11385 4.55129 2.46611
1.17976 3.07925 1.04302
5.71154 2.4588 2.11562
0.177499 2.46061 5.93316
3.22163 8.01513 6.26023
2.36709 1.88655 2.40495
8.88643 0.111772 2.66097
6.925 2.74394 3.07341
1.91614 3.25728 7.87567
2.82826 4.91722 0.660683
3.83066 4.76283 4.60921
3.04609 0.508257 0.911775
7.04482 2.04488 3.01955
8.06929 2.87392 0.156755
8.43759 0.242029 4.29651
3.49916 0.384102 1.39865
7.07098 0.859847 2.80926
1.3587 0.231849 6.10591
3.92445 1.75097 6.35234
9.30219 2.84238 7.47881
2.57234 1.28196 4.67953
5.8978 0.378187 3.02063
8.16153 0.181941 5.20324
5.71219 0.538444 1.4345
0.553972 0.955533 7.57885
7.2559 2.57118 6.41796
5.63457 0.672449 1.35561
5.78597 2.82177 2.99471
5.0813 1.09974 3.48861
0.0651608 5.11477 7.55834
8.17221 1.63138 9.98489
3.54027 0.212423 7.78072
6.75017 1.79898 9.6324
5.79564 0.558119 1.2498
10 2.67503 9.37507
0.622029 0.822383 8.82082
6.02816 1.96797 1.30483
6.60889 5.19441 2.62764
1.4696 8.35677 2.38219
2.59568 5.83939 4.25694
4.39606 0.182484 6.7976
2.39341 0.0684686 8.93991
0.441618 9.84833 1.54569
0.923605 1.5943 6.08334
3.70342 1.3137 9.01064
3.64183 2.44018 0.550939
6.12174 1.97232 1.11734
4.84943 1.1741 7.91276
6.51567 0.377676 5.6474
3.22659 0.215409 1.11242
1.41734 2.78268 9.43446
2.48638 0.277268 9.24512
4.43919 0.192514 5.78017
9.87573 0.278176 1.19612
3.69083 1.52156 9.13273
5.10111 0.841605 7.64653
7.51629 9.31961 0.037602
3.73863 3.48075 9.72547
2.90803 0.653087 1.43659
2.89098 0.401768 1.02092
0.562101 1.3356 3.60927
3.14833 0.496294 1.85817
0.604753 0.667268 8.68791
5.22822 0.583266 8.87098
1.80057 1.90126 1.9762
1.67214 0.966108 3.62892
4.92821 5.67286 1.82199
7.82658 0.34872 0.5985
2.95413 0.187037 2.33567
2.22493 0.512027 1.47535
0.988312 0.196062 6.11153
3.48664 0.830154 3.4103
0.498919 0.982115 8.73827
4.48696 0.0584557 9.90909
6.39493 0.886829 7.62966
2.94725 5.4108 1.05788
9.66246 10 6.73913
7.89056 0.330075 0.595151
3.55869 0.582782 1.37761
7.07247 0.113846 4.74864
3.61506 0.43059 3.30665
9.91838 0.988218 6.33207
0.503101 4.60628 2.62213
2.01159 0.52815 0.637133
8.14916 0.303608 9.8139
5.78864 0.282478 1.22833
6.81253 0.026622 0.659415
9.42018 1.48698 0.634714
6.48783 8.74634 6.37774
2.6665 0.17342 8.69466
4.96038 2.42209 0.0573702
6.18222 0.25264 1.58071
3.51119 0.164487 1.23616
1.01614 0.42775 6.72649
4.99291 0.637468 7.75294
7.21737 0.770735 2.8598
6.59846 0.0210706 1.21999
6.78272 1.83187 9.5307
3.31434 0.667283 1.30468
4.77217 8.64726 4.60352
7.52636 5.56336 0.977311
1.16876 4.78664 8.86373
6.78907 1.69202 9.47639
3.13427 0.971259 1.199
5.83777 1.24159 6.7247
2.33967 0.230081 8.9336
2.57962 1.91045 8.86455
4.04023 5.48776 0.0945254
2.98262 0.606748 1.80121
1.66569 1.14209 4.15885
8.75813 0.311279 10
6.93436 0.318808 5.72481
0.683812 6.23944 6.25183
2.12321 0.802296 0.611551
6.36851 3.59652 3.09514
2.33347 0.130713 8.97911
4.78724 8.23587 9.63749
5.75922 1.24925 9.04719
3.62366 0.36449 2.28578
0.370235 4.78465 9.88822
1.22829 8.47561 4.9457
6.86062 1.25126 9.56365
3.52103 0.732632 1.59821
2.84273 0.385124 0.81107
8.15827 0.623226 5.4181
0.239393 3.27257 0.086564
3.2674 0.148168 1.15471
6.4063 10 0.635133
3.58632 0.377395 2.30947
10 1.26808 7.05843
0.872794 1.51063 5.87323
7.80073 2.49879 9.04301
3.60887 4.03669 0.556506
5.75301 0.450586 1.33342
8.47247 0.708019 5.84357
3.56043 0.126936 1.82166
8.19991 0 4.44252
1.67242 0.952182 0.69806
8.36308 3.62483 3.66412
0.604657 1.55674 6.79148
5.69674 0.759778 8.0694
3.36621 0.199152 2.13131
4.35203 0.778611 3.35242
8.16132 1.42875 9.72149
5.62149 0.539737 7.76982
5.6679 0.147538 8.96466
6.12933 0.455246 5.97565
7.23324 7.16344 4.44694
3.11428 0.0738062 1.41453
2.96503 0 1.66766
6.25984 1.57381 0.592229
1.98903 0.526588 1.02564
3.5549 0.107187 3.57232
8.03936 2.78687 0.137611
4.88572 0.623465 8.46471
5.14191 0.678623 7.43105
8.10343 1.0071 7.24443
0.805201 8.12597 1.03232
3.19146 0.435107 1.86511
4.21408 0.406408 3.38545
5.57852 4.66262 4.04504
3.05402 0.962421 1.27635
5.76389 0.540656 8.00163
3.45018 0.290401 2.74648
2.6588 0.243225 1.06929
0.65913 0.672681 6.6819
8.34375 0.333389 5.43557
3.21879 0.562919 1.72046
3.39382 0.349588 1.74977
3.40362 0.450848 1.46558
5.03767 0.438419 4.20282
1.24294 0.61411 2.86544
4.78329 8.25344 5.62754
2.76055 0.00396451 1.27095
3.7688 0.170008 3.59432
2.59298 5.02782 6.84965
3.34397 0.234625 1.44507
4.02886 0.709793 1.10819
2.9977 0.404892 1.63422
5.4064 0.602772 1.6973
8.17194 0.366375 5.18412
4.77716 0.774076 8.5604
6.79142 7.25403 2.27015
5.82522 0.305743 8.73545
3.56075 0.0581726 1.55345
1.91011 1.91275 9.54178
0.164908 0.658829 8.95238
7.98916 0.334927 0.482908
3.18609 0.400563 1.51457
5.65112 0.26324 1.37126
6.43473 1.02118 7.75392
6.70657 1.44366 9.75609
8.10366 0.0804527 9.50135
5.61291 0.636793 8.46808
3.59118 0 1.51823
3.26802 0.409521 1.33164
4.12523 1.51933 6.11107
7.93779 0.561339 0.0459257
8.71342 3.28176 5.03951
8.35387 0.641222 9.81765
4.9007 0.812769 7.85315
3.48646 0.24288 2.4317
5.55536 0.863903 8.64297
3.21764 0.0962124 2.14002
5.87164 5.41686 0.218353
3.60468 0.462948 1.63225
3.37404 0.266185 1.59208
8.13156 1.23937 9.85874
0.254511 1.54993 6.17357
5.95489 0.275687 8.33025
8.15261 0.503309 4.8704
3.33112 0.229748 1.99509
4.71573 0.801401 7.87064
0.697751 1.33642 3.29655
3.65655 1.32108 9.25627
4.08467 0.482213 3.84651
3.10479 0.446309 1.29432
0.760638 0.553047 9.27428
2.92891 0.763486 2.16483
2.60784 0.110718 1.99129
3.06561 0.483212 1.81847
3.39111 0.500142 1.5606
5.60617 0.783194 8.24827
1.91099 0.790748 0.594583
1.77779 3.61588 0.491421
4.97442 1.47686 8.70253
6.58688 0 0.973337
5.27417 0.623079 9.08213
3.13735 0.358339 2.07441
8.6977 3.41289 3.29311
5.31487 0.622167 8.79025
3.95845 0.894584 3.47017
7.70734 0.133981 4.91352
3.32834 0.540048 2.31407
9.59198 0.153445 0.831079
5.49301 0.696217 8.14321
5.81715 0.950636 0.478114
5.43973 0.44123 8.64275
3.15329 0.468828 1.66079
6.95545 2.86907 3.75913
4.91096 0.679803 8.73128
8.64368 0.625359 0.968157
5.49075 0.488943 8.6681
6.12035 0.175603 2.95135
3.23318 0.474909 2.13388
5.88728 0.715872 8.71052
8.16288 0.435389 5.21168
3.19098 0.0977212 1.92924
3.81802 0.154543 1.29693
1.80769 1.34645 3.87523
7.1447 0.764516 2.96744
3.0122 0.134478 3.4117
4.80522 0.730055 8.50963
5.9011 0.618192 9.10629
3.41135 0.662765 8.1702
1.22304 9.90588 5.0812
1.1872 0.764862 9.66628
3.36778 0.260203 1.6536
7.73413 0.194192 0.115984
5.55393 0.349492 1.54062
6.37659 2.29275 2.91272
2.44164 0.17438 8.75267
9.96084 3.97244 7.64311
7.99584 0.0767851 5.22573
3.13346 0.553081 2.05571
3.27248 0.185091 0.850856
5.27332 0.932611 9.13766
2.62561 5.82583 8.81883
9.1684 0.0628098 2.82193
5.90165 0.687254 1.22841
3.75786 0.790186 1.39179
2.53589 0.283453 9.04946
5.43964 0.716835 8.70274
5.72675 0.505461 8.33396
3.2068 0.524779 1.78348
3.51765 0.787535 1.70518
2.77426 0.256044 1.79188
3.52065 0.554753 2.13626
8.1158 0.315172 0.975849
6.62899 1.51074 9.76646
1.86201 1.87666 9.65979
6.72813 0.551345 5.21803
3.42279 0.727608 2.37022
0.166635 0.725218 2.30939
2.98657 0.29866 1.11645
3.10287 0.58883 1.28582
2.28263 1.94593 8.97533
3.94342 0.381052 3.41234
4.93704 0.651963 7.68478
9.88933 1.2019 7.03132
8.2828 0.328439 5.26433
3.53859 0.488238 1.22696
3.7533 0.525586 0.810018
0.243233 0.921097 9.64712
3.48635 0.207726 0.856718
5.61555 0.888942 0.440143
6.06252 0.299515 1.88492
2.91373 0.390613 2.05289
5.75569 0.547238 8.70452
0.639827 1.09931 3.29911
5.80631 0.785038 8.01575
2.93374 0.397166 1.29071
8.1196 0.532592 0.43891
7.99907 0.278599 0.522268
2.97296 0.632891 1.35386
5.35041 0.608998 1.29412
5.64118 0.869576 0.996288
3.65557 0.217008 1.88639
7.59167 1.40548 9.81385
3.39202 0.177198 1.78517
5.90855 0.982362 8.13358
3.28953 0.552263 2.46354
6.13885 0 1.85609
9.92552 3.6738 8.0288
6.24364 0.183619 1.6859
3.36862 0.423677 1.62975
9.24484 1.35102 0.543343
3.59522 0.0584369 3.67714
4.94387 0.740597 7.61173
4.21138 0.344169 3.54996
5.72824 0.143201 8.91347
5.28534 0.241764 8.98633
3.09724 0.506603 1.73135
3.07328 0.358464 1.93376
5.43583 0.52984 1.54074
3.34771 0.371135 1.62301
3.08633 0.312575 1.9983
3.83464 0.192553 3.91919
3.00582 0.345397 2.08171
3.20238 0.624134 1.2758
5.08466 1.32892 9.40741
5.05802 0.346254 8.80856
2.67057 0.424547 1.17612
3.27909 0.492278 1.70174
5.42668 0.689195 1.25235
5.8906 0.350721 8.51207
2.98817 0.271331 1.43834
2.76706 0.562397 1.848
5.70528 0.613203 1.33529
5.85068 0.663049 8.38294
6.0077 0.750249 8.73324
3.14795 0.34324 1.78337
3.71359 0.0772928 1.79239
8.00968 0.131741 5.2849
5.82448 0.620169 8.61396
6.1187 0.860569 9.3219
6.0421 0.479005 8.80594
3.71369 0.899283 1.01314
5.71858 0.537955 1.36164
9.98045 1.22627 6.93218
5.67701 0.540066 8.37782
3.38901 0.68782 1.47088
2.9983 0.490431 1.06513
7.88795 0.263802 5.12414
5.96129 0.579067 8.43648
5.4479 0.741936 9.15431
5.35799 0.71111 8.61999
3.2264 0.287351 1.76396
3.20565 0.250616 1.15406
3.26474 0.422777 1.7488
5.67574 0.690631 8.70515
3.14312 0.262743 2.10522
2.30968 0.238817 9.06855
5.68296 0.650761 8.55295
3.05356 0.240209 1.27783
2.96063 0.552781 1.74541
0.299053 7.918 5.42248
5.86441 0.139045 1.25588
3.19533 0.23429 1.15706
3.46967 0.312379 1.71987
5.52503 0.705329 8.70904
3.45291 0.262574 1.89264
2.40555 0.256374 9.22032
5.76759 0.770126 8.49528
3.0065 0.263855 1.3073
3.76998 0.121191 3.51344
7.95167 0.595887 0.163325
5.87053 0.174013 1.21485
POINT_DATA 400
SCALARS particleColor float 3
LOOKUP_TABLE default
0 0.759791 1
0.526313 1 0.473687
0 0.743596 1
0 0.868101 1
0 0.363834 1
0.938905 1 0.0610948
0 0.662921 1
0 0.805033 1
0.316954 1 0.683046
0.226692 1 0.773308
0.586426 1 0.413574
1 5.96046e-08 0
0 0.464048 1
0.864805 1 0.135195
0.0209079 1 0.979092
0 0.453961 1
0 0.715185 1
0 0.553436 1
0.0482932 1 0.951707
0.151975 1 0.848025
0 0.240572 1
0 0.59012 1
1 5.96046e-08 0
0 0.343913 1
0.668403 1 0.331597
0.58399 1 0.41601
1 5.96046e-08 0
0.223273 1 0.776727
0 0.219239 1
0 0.927464 1
0 0.700434 1
0.656328 1 0.343672
0.469335 1 0.530665
0.431344 1 0.568656
0 0.467236 1
0.410521 1 0.589479
1 0.975944 0
0 0.469587 1
0 0.805456 1
0 0.632084 1
0.807881 1 0.192119
0 0.425076 1
1 0.20855 0
0 0.729895 1
0 0.633143 1
0 0.758507 1
0.301795 1 0.698205
0 0.478778 1
0 0.615356 1
0 0.82326 1
0 0.733204 1
1 5.96046e-08 0
0 0.519292 1
0 0.834658 1
0 0.474978 1
0.0673204 1 0.93268
0.207088 1 0.792912
0 0.844505 1
0 0.727169 1
1 5.96046e-08 0
0.0543484 1 0.945652
1 5.96046e-08 0
1 0.950163 0
0 0.897866 1
0 0.690222 1
0.538291 1 0.461709
0 0.424722 1
0 0.880732 1
0 0.310274 1
0 0.575525 1
0.306138 1 0.693862
0 0.639187 1
0.220922 1 0.779078
0 0.610614 1
0.531962 1 0.468038
0.0375138 1 0.962486
0 0.301057 1
0 0.431432 1
0.943257 1 0.0567429
0.400109 1 0.599891
0 0.249989 1
0 0.308992 1
0 0.55753 1
0 0.794441 1
0 0.96775 1
0 0.486359 1
0.778863 1 0.221137
0.443989 1 0.556011
0.482862 1 0.517138
0 0.428757 1
0 0.393379 1
0 0.507832 1
0 0.339015 1
0 0.432396 1
0 0.749187 1
0 0.215119 1
0 0.747499 1
0.339768 1 0.660232
1 5.96046e-08 0
0 0.232737 1
0 0.832351 1
0 0.615526 1
0 0.169903 1
0.504763 1 0.495237
0.851269 1 0.148731
0 0.706713 1
0.150059 1 0.849941
0 0.594473 1
0 0.491562 1
0 0.732279 1
0 0.732796 1
0 0.722772 1
0 0.722214 1
0 0.52717 1
0 0.498067 1
0 0.551 1
0 0.306101 1
0 0.859498 1
0 0.775379 1
0.178864 1 0.821136
0 0.252218 1
1 5.96046e-08 0
0 0.775625 1
0 0.864556 1
0 0.669372 1
0 0.439698 1
1 0.889443 0
0 0.0914143 1
0.870801 1 0.129199
0.719325 1 0.280675
0.0360859 1 0.963914
0.69305 1 0.30695
0.562161 1 0.437839
0 0.545019 1
0.402412 1 0.597588
0 0.596254 1
1 5.96046e-08 0
0 0.687357 1
1 0.456915 0
0 0.397012 1
0 0.474691 1
0.158473 1 0.841527
1 5.96046e-08 0
0 0.351855 1
0 0.359159 1
0 0.322418 1
0 0.64272 1
0 0.398675 1
0 0.769637 1
1 5.96046e-08 0
0 0.447134 1
0 0.447968 1
0 0.825536 1
0 0.694765 1
0 0.799688 1
0 0.906148 1
0 0.44201 1
0 0.579362 1
0 0.621555 1
0 0.584486 1
0.940544 1 0.0594563
0 0.804261 1
0 0.624919 1
0 0.997504 1
0.00493066 1 0.995069
0 0.538047 1
0 0.611188 1
0 0.434979 1
0.0387712 1 0.961229
1 5.96046e-08 0
0 0.337477 1
0.797962 1 0.202038
0 0.495614 1
0.226886 1 0.773114
0 0.54007 1
0 0.893431 1
0 0.665061 1
0 0.424458 1
0 0.910706 1
0.0755024 1 0.924498
0 0.75199 1
0.244322 1 0.755678
0 0.627789 1
0 0.593745 1
0 0.192688 1
0 0.605111 1
0 0.220647 1
0.109551 1 0.890449
0 0.359512 1
0 0.107651 1
0 0.577921 1
0 0.911925 1
1 5.96046e-08 0
0.0501128 1 0.949887
1 0.465173 0
0 0.407067 1
0 0.736262 1
1 5.96046e-08 0
0 0.873783 1
0 0.612302 1
0 0.633205 1
0 0.464329 1
0.150715 1 0.849285
0 0.46467 1
0.0546097 1 0.94539
0 0.31374 1
0 0.406174 1
0 0.775301 1
0 0.549097 1
0 0.677629 1
0.0682886 1 0.931711
0 0.74661 1
0 0.622401 1
0.212684 1 0.787316
0.278887 1 0.721113
0 0.419695 1
0 0.491398 1
0 0.748628 1
0 0.748955 1
0 0.787327 1
1 0.0341353 0
0 0.723701 1
0.109309 1 0.890691
0 0.308919 1
0.0330683 1 0.966932
0 0.524685 1
0.144649 1 0.855351
0 0.832073 1
0 0.322375 1
0 0.863336 1
0 0.962502 1
0 0.798572 1
0 0.849392 1
0 0.604492 1
0 0.535989 1
0.193179 1 0.806821
0 0.577722 1
0 0.35489 1
0.0113382 1 0.988662
0 0.3144 1
0 0.504122 1
0 0.397254 1
0 0.999461 1
0.0608186 1 0.939181
0 0.386213 1
0 0.357239 1
0.193784 1 0.806216
0.143231 1 0.856769
0 0.484666 1
0 0.511053 1
0 0.512919 1
1 0.512552 0
0 0.39874 1
0 0.558841 1
0 0.267421 1
0 0.381133 1
0 0.760801 1
0 0.895803 1
0 0.343135 1
0 0.436842 1
0 0.694215 1
0.160906 1 0.839094
0 0.883163 1
0 0.707266 1
0 0.867994 1
0.449555 1 0.550445
0.0829545 1 0.917046
0 0.877436 1
0 0.689106 1
0 0.580766 1
0 0.790148 1
0.373906 1 0.626094
0 0.507162 1
0 0.944917 1
0 0.426585 1
0 0.560872 1
0 0.829584 1
1 5.96046e-08 0
0 0.645769 1
0 0.411267 1
0 0.349666 1
0 0.505941 1
1 0.972053 0
0.341605 1 0.658396
0 0.574293 1
0 0.900859 1
0 0.451938 1
0 0.644783 1
0 0.73449 1
0.643694 1 0.356306
0.065147 1 0.934853
0 0.83829 1
0 0.499853 1
0 0.395976 1
0 0.63833 1
0 0.79283 1
0 0.760142 1
0 0.295872 1
0.222809 1 0.777191
0 0.308981 1
0 0.395957 1
0 0.419208 1
0.581828 1 0.418172
0.209006 1 0.790994
0 0.545273 1
0 0.548068 1
0.649732 1 0.350268
0 0.493745 1
0 0.52202 1
0 0.963929 1
0 0.431488 1
0 0.547951 1
0.134299 1 0.865701
0 0.592234 1
0 0.465042 1
0.0161019 1 0.983898
0.319091 1 0.680909
0 0.804207 1
0 0.400887 1
0.102997 1 0.897003
0 0.393323 1
0 0.896715 1
0 0.576294 1
0 0.878367 1
0 0.831603 1
0 0.459301 1
0 0.493955 1
0 0.690324 1
0 0.922057 1
0 0.749676 1
0 0.70482 1
0 0.675395 1
0 0.537901 1
0 0.335633 1
0 0.420803 1
0 0.284964 1
0 0.847855 1
0 0.387919 1
0 0.492557 1
0 0.707256 1
0 0.56974 1
0 0.731595 1
0 0.654584 1
0 0.884215 1
0 0.553854 1
0 0.584266 1
0 0.386123 1
0 0.686291 1
0 0.578204 1
0 0.450727 1
0.382469 1 0.617531
0 0.517775 1
0 0.275243 1
0 0.314299 1
0 0.856168 1
0 0.573404 1
0 0.824297 1
0.0197659 1 0.980234
0 0.7042 1
0 0.341239 1
0 0.445475 1
0 0.614644 1
0 0.493977 1
0 0.443443 1
0 0.949981 1
0 0.168365 1
0 0.625716 1
0 0.443504 1
0 0.579838 1
0 0.927644 1
0 0.55158 1
0 0.654803 1
0 0.626819 1
0.0964291 1 0.903571
0 0.506384 1
0 0.595416 1
0 0.298885 1
0 0.479954 1
0 0.652178 1
0 0.747392 1
0 0.269018 1
0 0.488768 1
0.0562046 1 0.943795
0 0.513961 1
0 0.322446 1
0 0.296528 1
0 0.776731 1
0 0.565975 1
1 5.96046e-08 0
0 0.0832537 1
0 0.435091 1
0 0.48308 1
0 0.843149 1
0 0.733485 1
0 0.56721 1
0 0.698915 1
0 0.712157 1
0 0.203603 1
0 0.574611 1
0 0.0990696 1
