# vtk DataFile Version 3.0
Particle simulation
ASCII
DATASET POLYDATA
POINTS 400 float
0.686391 0.698693 9.50425
1.73031 1.35149 8.86473
7.05961 8.56453 2.70299
1.30306 6.79837 4.07672
0.588232 7.45002 4.92478
8.93039 0.74301 8.51987
3.9201 0.595965 8.8166
6.93022 3.42138 1.26593
3.93819 4.59866 3.66481
3.50926 6.94696 4.00873
5.03872 2.69636 3.95493
0.473397 7.52578 1.78972
3.73558 0.91362 3.68455
6.43237 9.37375 5.08328
8.57147 5.60813 6.49044
1.71627 0 3.3301
1.73223 2.57594 5.0276
3.40194 0.264426 0.612866
2.53521 3.13653 8.99887
3.21639 1.21926 8.74216
3.15865 0.193465 0.609263
3.69531 7.60521 3.52133
8.19741 8.37078 3.72794
1.63107 6.18864 5.85535
2.42287 7.55852 7.10928
6.31756 5.48203 0.0960839
5.19952 6.93584 6.6532
9.23584 0.758538 1.72768
4.54687 7.78166 3.47655
4.22029 6.72786 7.0111
0.655364 3.54124 2.60789
0.218242 9.53492 5.88104
8.59571 7.29586 4.02904
9.7947 2.1081 8.39271
2.15524 2.87442 3.00587
4.93074 2.46365 4.27576
2.39844 2.58868 7.78599
3.21927 0.352746 0.368251
6.35486 7.78705 1.22418
4.30256 0 5.55538
2.6973 1.17504 0.848371
6.82145 3.59322 1.58108
5.34839 9.89921 0.585052
7.36066 4.1061 5.76837
5.05733 0.274029 0.384845
1.4373 1.98189 1.67345
6.33886 3.16585 7.88921
9.03158 0.632888 4.68103
6.74027 0.366527 2.30629
4.3279 2.26214 0.690722
2.69273 9.37953 5.20753
0.602844 7.85238 3.99602
9.82145 3.98984 3.6085
4.27974 6.37367 7.47785
2.26086 0.580412 5.91717
6.11038 0.534828 1.67443
9.5246 3.62914 8.38392
6.72294 4.15158 3.43707
1.78694 0.747903 5.39212
4.39359 1.15697 7.71055
0.165603 6.75637 9.94789
6.10952 3.72893 8.3451
1.52738 3.3797 2.34468
0.464763 0.750793 8.21072
1.60982 4.62105 4.62984
5.74683 3.22451 1.17768
2.02921 0.945784 1.52853
1.86972 8.34037 4.22833
6.20141 7.02385 8.52269
4.52635 6.14476 0.568834
5.99052 2.48316 7.87624
6.66557 3.55241 2.06768
0.756698 7.10935 1.44435
1.15465 5.87043 8.474
7.31684 2.67526 7.20309
6.57514 5.65703 1.14114
3.34956 3.0684 3.27096
8.6823 5.47103 6.29604
6.94414 2.56059 4.87473
9.26568 7.54772 1.34577
3.06521 0.627155 0.568928
8.44381 0.969503 7.25289
3.40641 0.481303 2.00649
2.02006 1.30387 3.14833
3.91056 5.00936 8.9613
0.495412 1.71536 8.37584
4.66619 5.53543 8.20364
4.88597 5.37037 0.130471
1.58911 0.0940144 8.45858
4.97967 4.74932 0.189257
3.30703 0.193723 0.631151
7.99298 9.99357 2.58373
1.7539 7.24025 1.72235
2.9222 0.276731 8.21401
0.954343 1.12996 5.57521
2.56596 8.64491 8.99878
9.82646 0.194308 7.74213
7.08977 1.58326 5.33014
2.3871 4.37248 5.93027
7.43217 1.35154 0.793516
3.45801 0.453185 0.630952
5.91754 7.40487 8.53855
2.34756 2.34819 5.81645
0.0129113 2.31382 3.22993
8.13082 4.05539 9.58404
6.74994 4.57924 4.69854
6.26389 0.414626 7.80763
6.56476 0 0.437999
0.747725 0.449794 8.2766
4.24842 4.70626 2.82434
0.82038 3.49063 3.5959
7.56475 1.20505 6.74985
5.72795 7.93131 4.70343
2.89054 0.421278 1.14789
2.57897 0.479864 0.454135
2.5522 3.75039 6.19306
4.26226 0.303512 8.57864
7.27803 3.88103 6.09537
9.17832 1.1071 1.36224
2.9631 5.7905 2.60101
3.6167 0.529308 0.728242
9.00639 3.73727 2.57221
8.21166 0.785355 9.85118
0.270731 0.684927 9.09151
1.49769 8.99938 5.73254
3.1005 0.411626 0.154514
2.54108 3.35561 9.81462
0.657809 0.365491 7.96808
8.09426 0.647713 7.53815
9.39275 0 4.62185
10 1.3589 0
2.75878 8.41255 5.5774
9.76383 0.119627 4.00892
9.24739 2.88292 0.894798
2.84271 0.533365 8.27999
1.80422 2.16069 1.02746
1.62724 1.86688 1.13707
1.83015 0.637198 7.76744
8.6644 9.77833 1.5027
6.14335 0.762149 6.67616
3.36783 0.204228 0.64646
4.27652 8.64906 5.19923
4.16061 3.11236 5.96222
1.00477 2.2336 2.8945
3.24281 0.460367 0.883164
9.14626 2.41608 8.59841
6.96024 0.459495 0.946979
1.36672 4.32967 6.07284
7.15809 3.59282 2.04616
4.34078 1.91232 4.93923
3.31681 0.227192 0.555039
2.76663 0.861473 6.23084
1.7483 0.488193 7.52314
3.30555 0.366848 1.60023
1.55047 8.62906 1.37803
5.7375 0.193318 1.79101
6.6246 2.83314 0.198168
5.94925 0.393726 1.86876
6.51878 0.668376 9.72961
8.7888 2.45923 2.44356
8.28284 2.61222 0.728857
8.60514 0.757428 9.58178
2.48774 1.49063 5.5805
7.7152 3.96601 8.17517
9.59215 3.46836 0.88175
7.15978 7.72881 6.0161
9.42027 0.801874 6.41076
7.47307 0.135178 7.49868
3.84984 7.61461 9.18465
3.24328 1.05413 6.49606
3.4592 0.117747 0.952673
9.71727 0.0538983 4.088
2.27582 1.4519 0.958831
2.91983 6.0343 2.93377
0.401502 0.427933 6.57032
1.36707 4.44668 6.64177
2.44492 0.588469 6.37966
1.65278 2.41635 1.34459
0.879483 0.982984 9.50912
8.72994 9.56923 6.7683
3.56879 0.348099 0.565648
3.46934 7.63079 6.50424
0.289715 2.04732 7.94718
8.38617 3.9323 0.974447
3.97494 0.394417 8.8523
9.95138 2.70915 5.93487
3.27438 0.466374 1.00114
2.70992 2.09493 7.98892
7.3841 0.181494 1.28798
3.25193 0.308547 0.364124
3.17184 0.0477509 0.449066
3.70712 0.419256 1.35881
2.6274 4.78183 0.960276
2.8869 8.84922 1.79713
7.27617 1.77582 2.42897
3.32975 0.345766 0.555467
1.48229 0.840177 4.58215
7.59175 1.33813 0.810918
3.36847 0.288839 0.39846
3.08544 0.46176 0.703821
3.21175 0.282293 0.685307
6.07453 0.438387 1.24295
5.25693 0.327682 0.558274
1.88626 0.491608 6.12956
5.98526 9.97363 3.67369
5.25435 0.105325 7.93813
3.45292 0.35732 0.322885
2.13223 4.73582 7.00323
4.30535 2.08286 2.24333
5.81275 5.26979 0.43869
3.19136 0.217218 0.815132
3.38072 0.33302 0.559855
2.12443 6.66794 0.919214
9.26384 0.546214 6.83598
6.1051 5.59718 8.58676
4.30365 0.269967 8.52154
2.97622 0.186389 0.439836
3.15415 0.0833568 0.368363
6.5963 3.47906 1.52008
3.0728 0.684627 2.40032
8.62868 3.31743 0.752558
8.10367 5.74472 1.33425
5.1011 0.343785 7.75727
3.74468 0.531063 0.471918
8.04448 0.909885 5.83285
4.16947 0.565495 2.66374
5.01211 5.2181 0.688978
3.49297 0.428793 0.84787
3.42945 0.063662 0.42372
9.80826 5.11017 0.669438
7.50913 4.10151 8.32984
3.45997 0.137452 8.37146
7.25125 0.281011 0.937504
3.44551 0.408475 0.892952
4.48742 0.193548 8.10464
0 1.96408 3.74125
7.9043 5.9953 9.13921
1.32121 0.369254 5.21249
3.43965 0.800397 1.20074
6.43408 1.52504 7.05373
3.05728 0.505128 0.61637
3.67788 0.444537 0.876942
2.72539 0 0.0546739
2.7877 0.489416 0.453096
4.43943 0.307826 8.66413
1.45866 8.53183 4.77192
0.359111 0.456357 5.88644
1.53413 0.631188 5.27254
8.28402 4.2759 1.37054
7.01007 1.4638 9.94183
3.37392 0.0808474 0.926409
0.831027 8.1137 9.79713
4.36601 0.288446 8.46857
5.3531 1.0376 1.58731
6.52718 0.0831428 1.33279
3.41722 0.217303 1.08953
5.63302 0.593712 6.90695
4.27013 0.453086 8.01745
2.56185 3.74644 5.68981
4.33947 0.371413 8.05502
3.01659 0.432955 0.64498
9.65563 1.203 1.23671
1.91115 0.56468 6.1202
3.35908 0 3.71575
3.94308 0.43258 7.93613
3.43882 9.80645 3.75885
6.99204 0.201577 2.22965
4.70898 0.108465 8.34232
7.34078 0.533201 1.11126
2.84677 0.00198621 0.00968536
3.02004 0.387556 0.71095
9.19412 4.64101 0.461468
8.13305 2.66177 3.57684
3.43268 2.63686 4.21796
5.76019 3.0977 7.98396
4.42698 0.311134 8.19756
3.23511 3.02913 3.35359
7.72029 8.18573 0.562038
4.31225 1.76443 2.09621
3.20379 0.252419 0.683157
7.33627 0.041713 1.87795
6.08458 0.25326 1.88028
9.60059 2.96608 1.51076
1.4076 0.549115 4.58555
4.19041 3.49069 5.18544
8.46633 2.11894 0.347701
3.08825 0.634972 0.527781
8.24391 0.1911 7.60067
5.44275 3.48198 8.73033
1.58877 2.72782 2.90168
4.58172 2.47298 4.68356
6.79428 0.347281 1.2487
3.88673 0.238853 0.937624
0.42438 0.547977 8.31834
4.28645 0.163845 7.66174
4.67279 0.0767001 8.10699
3.18689 0.3917 0.881241
3.0486 0.325798 0.81415
9.38393 2.5544 8.32129
3.17949 0.246108 1.07251
1.50059 1.79048 2.73562
1.95801 0.324592 6.31335
5.59812 1.06432 3.38831
3.12735 7.75168 0.921518
3.46457 0.424832 0.523766
0.983459 0.642177 8.12916
3.42558 0.564119 1.61731
3.41314 0.519643 0.420865
1.67985 1.04854 4.20104
3.29219 3.06144 3.5041
4.65855 0.174524 8.61827
2.56415 1.28085 6.29054
7.21234 0.448762 1.28342
3.32821 0.193017 0.563393
9.11751 2.46936 8.40007
0.193571 0.627145 8.49441
9.66781 0.777352 4.86081
2.00258 3.96578 5.58365
6.46006 0.448223 6.88088
6.46552 3.70134 1.91301
4.375 0.347559 8.18906
0.171858 0.25512 5.92582
4.45168 0.5516 7.85722
4.07501 0.603629 0.31769
7.30707 0.0729023 1.86816
8.21859 1.89934 0.499133
3.14196 0.367113 0.21005
5.59823 0.557652 2.10303
2.05607 7.62278 8.49978
3.05828 0.411136 0.518995
9.10908 6.66779 0.295682
3.34154 0.246034 0.62113
4.3773 0.240564 8.35653
3.41278 0.469153 1.48648
6.1545 0.385249 1.67943
3.97072 7.63323 8.24047
1.84593 4.32116 5.49044
3.12107 0.512243 0.501973
8.55868 0.907743 9.83443
2.70297 0.5084 8.35549
5.29178 0.238309 7.8693
5.05774 0.349159 8.76262
4.61383 0 7.89251
4.56485 0.436889 7.79861
2.95664 0.371981 0.647545
3.46298 0.418893 0.313803
6.07295 0.392548 1.43746
2.99235 0.393045 0.455695
3.4639 0.655196 0.955184
5.27193 0.466234 8.83544
2.48184 0.525021 0.156822
3.39025 0.10426 0.561229
5.12021 0.202265 7.78334
4.2585 0.192462 8.32613
3.02485 0.667297 0.246101
2.77495 0.371839 0.827173
5.3181 0.584563 2.30389
4.86479 0.522735 7.4966
2.50285 0.23249 0.774895
3.31961 0.301389 0.282309
6.0635 0.119924 1.51893
4.23006 0.529562 8.18069
4.28681 0.591133 8.55835
3.50397 0.166629 0.224524
2.68386 0.0746351 0.778753
7.13384 0.161862 0.693544
4.04832 0.403547 7.94683
9.94057 0.663807 6.98847
4.16641 0.0353934 7.62546
7.8127 1.8358 0.402139
6.00942 0.0708024 1.46095
2.88196 0.850294 6.12268
4.56734 0.186101 8.50866
3.06422 0.421016 0.458204
3.60602 0.376427 0.674997
6.80967 0.475035 1.12305
4.22049 0.472683 8.18499
4.47396 0.487121 7.96015
3.62029 0.219466 8.19112
3.16933 0.11152 0.476234
3.0565 0.356415 0.424979
3.504 0.135275 0.307477
3.7685 0.199521 8.07879
3.24167 0.228996 0.163029
0.491085 0.506217 8.16239
4.51539 0.168008 8.18772
3.32849 0.191602 0.646002
3.38227 0.171767 0.598739
10 3.06898 6.61421
6.48191 0.461685 1.10565
3.16627 0.159143 0.432318
3.22938 0.151602 0.574888
4.71407 0.363387 8.49151
3.50796 0.323669 0.493509
0.431716 0.235571 8.1864
4.762 0.117047 8.11408
3.29019 0.182494 0.592767
0.0972564 0.453706 6.71717
6.35144 0.295528 1.75589
6.46138 0.483262 1.11447
POINT_DATA 400
SCALARS particleColor float 3
LOOKUP_TABLE default
0.252201 1 0.747799
0.482429 1 0.517571
0.608297 1 0.391703
0.204332 1 0.795668
1 5.96046e-08 0
1 0.215541 0
1 5.96046e-08 0
0.513368 1 0.486632
0.229197 1 0.770803
1 5.96046e-08 0
0.258664 1 0.741336
0.473956 1 0.526044
1 0.669084 0
0.146963 1 0.853037
0 0.457382 1
1 5.96046e-08 0
0.106945 1 0.893055
0 0.655001 1
0.602405 1 0.397595
1 0.606998 0
0 0.756871 1
1 0.905949 0
1 5.96046e-08 0
0.577017 1 0.422983
1 5.96046e-08 0
0.918028 1 0.0819723
0.250499 1 0.749501
0.299572 1 0.700428
1 0.745314 0
0.237305 1 0.762695
1 5.96046e-08 0
0.669645 1 0.330355
0.848588 1 0.151412
0.595347 1 0.404653
0 0.966157 1
1 5.96046e-08 0
1 0.0476691 0
0 0.909557 1
1 5.96046e-08 0
0.538839 1 0.461161
1 5.96046e-08 0
1 0.803755 0
0.916053 1 0.0839468
1 0.704346 0
0 0.878009 1
0.182029 1 0.817971
0.327314 1 0.672686
0.982832 1 0.0171676
0 0.303906 1
1 5.96046e-08 0
0 0.596162 1
0.812399 1 0.187601
0.0650674 1 0.934933
1 0.906944 0
0 0.806011 1
0 0.0703887 1
0.498015 1 0.501985
0 0.67758 1
1 0.399423 0
0.454008 1 0.545992
0 0.842517 1
1 5.96046e-08 0
0 0.905125 1
0 0.703707 1
0.844835 1 0.155165
1 0.403715 0
0.974384 1 0.0256159
1 5.96046e-08 0
0.0972246 1 0.902775
0.371727 1 0.628273
0 0.748061 1
0.392869 1 0.607131
1 0.956074 0
1 0.668067 0
1 0.080135 0
1 0.280408 0
0 0.886792 1
0.553147 1 0.446853
0 0.969184 1
0.526715 1 0.473285
0 0.18005 1
0 0.584067 1
1 0.806998 0
0.491907 1 0.508093
1 5.96046e-08 0
0 0.977977 1
1 5.96046e-08 0
1 5.96046e-08 0
0.355063 1 0.644937
0 0.920198 1
0 0.916815 1
1 0.860275 0
1 0.709442 0
0 0.381088 1
0.236203 1 0.763797
1 0.862771 0
0.709115 1 0.290885
0.10361 1 0.89639
0.252911 1 0.747089
0 0.821728 1
0 0.432665 1
0.858766 1 0.141234
0.112531 1 0.887469
0 0.900495 1
0 0.863012 1
1 0.445602 0
1 0.305287 0
0 0.373046 1
1 5.96046e-08 0
0.0971853 1 0.902815
0.832513 1 0.167487
1 0.760771 0
1 5.96046e-08 0
0 0.848576 1
0 0.512049 1
0 0.77449 1
0 0.52793 1
1 0.913538 0
1 0.965584 0
1 0.423501 0
0 0.428429 1
1 0.980143 0
0.105316 1 0.894684
0.74021 1 0.25979
0.102415 1 0.897585
0 0.399026 1
0.278655 1 0.721345
0 0.513676 1
1 0.910652 0
1 5.96046e-08 0
1 5.96046e-08 0
1 5.96046e-08 0
1 0.518044 0
0.819344 1 0.180656
0.402184 1 0.597816
0.309901 1 0.690099
1 0.874023 0
0.102681 1 0.897319
0.780932 1 0.219068
0.0226872 1 0.977313
0 0.595006 1
0.17561 1 0.82439
0.566894 1 0.433106
0.642931 1 0.357069
0 0.682008 1
0 0.968882 1
0 0.808992 1
1 5.96046e-08 0
0 0.145415 1
0.757543 1 0.242457
0 0.626713 1
0 0.646746 1
0 0.621602 1
0 0.461843 1
1 5.96046e-08 0
0 0.722253 1
0 0.218588 1
0 0.832311 1
0.409244 1 0.590756
1 5.96046e-08 0
0 0.594095 1
0 0.288982 1
0 0.920379 1
1 5.96046e-08 0
0.240244 1 0.759756
0.522978 1 0.477022
1 5.96046e-08 0
0.688566 1 0.311434
1 0.478315 0
0.0540245 1 0.945976
0 0.592713 1
1 0.879207 0
1 5.96046e-08 0
1 5.96046e-08 0
0 0.819731 1
1 0.77065 0
0 0.224831 1
1 0.56608 0
0 0.967057 1
0.908059 1 0.0919412
0 0.549454 1
1 5.96046e-08 0
0 0.845131 1
0.296108 1 0.703892
0 0.789995 1
0.431337 1 0.568663
0 0.298008 1
1 0.259943 0
0 0.313005 1
0 0.859121 1
0 0.528534 1
0 0.196333 1
1 0.611487 0
1 5.96046e-08 0
1 0.76226 0
0 0.361997 1
0 0.387675 1
1 0.437508 0
0 0.84347 1
0 0.794799 1
0 0.569317 1
0 0.441601 1
0.487065 1 0.512935
0 0.903546 1
0.763888 1 0.236112
0 0.596488 1
0 0.397171 1
1 0.706379 0
0 0.335717 1
1 0.594377 0
0 0.395101 1
0 0.865872 1
1 5.96046e-08 0
0 0.639406 1
1 5.96046e-08 0
0 0.593366 1
0 0.805546 1
0 0.697562 1
1 5.96046e-08 0
0 0.738211 1
1 0.226524 0
0.129436 1 0.870564
0 0.456868 1
0 0.524241 1
0 0.689716 1
0 0.463866 1
0.0066526 1 0.993347
0 0.816039 1
0 0.631786 1
0.190797 1 0.809203
0 0.649261 1
0 0.630733 1
0.00779782 1 0.992202
0 0.821191 1
0 0.248184 1
0.544328 1 0.455672
1 0.366136 0
0 0.560119 1
0 0.220028 1
1 5.96046e-08 0
0 0.273402 1
0 0.762727 1
0 0.254177 1
0 0.34205 1
0 0.647749 1
1 5.96046e-08 0
0 0.441502 1
0.0536397 1 0.94636
1 5.96046e-08 0
0.42355 1 0.57645
0 0.580729 1
0.246135 1 0.753865
0 0.492555 1
0.366052 1 0.633948
0 0.919739 1
0 0.301389 1
0 0.878794 1
0 0.748974 1
0 0.606834 1
0 0.220684 1
0 0.962724 1
0.949831 1 0.0501694
0 0.560827 1
0 0.989272 1
0.0283935 1 0.971606
0.951991 1 0.0480089
0.0200561 1 0.979944
0 0.245334 1
0 0.610078 1
0 0.299282 1
0 0.675061 1
0 0.61024 1
1 0.993111 0
0 0.186335 1
0.458506 1 0.541494
0.295946 1 0.704054
0.166089 1 0.833911
0.201281 1 0.798719
0.0892079 1 0.910792
0 0.539072 1
0 0.752181 1
0 0.601783 1
0.486085 1 0.513915
0.102122 1 0.897878
1 5.96046e-08 0
0 0.705721 1
0 0.356868 1
0 0.893939 1
0.0629971 1 0.937003
0.890275 1 0.109725
1 5.96046e-08 0
0 0.909976 1
0 0.530336 1
0 0.519709 1
0 0.805946 1
0 0.620416 1
0 0.62918 1
0 0.675797 1
0.292954 1 0.707046
0 0.756305 1
0 0.483362 1
0 0.785356 1
0 0.639639 1
1 5.96046e-08 0
0 0.768183 1
0 0.228913 1
0 0.440083 1
0 0.250705 1
0 0.913422 1
0 0.781901 1
0 0.77365 1
0 0.772183 1
0 0.396558 1
0 0.884107 1
0 0.344178 1
0 0.443185 1
0.304657 1 0.695343
0.143047 1 0.856953
0.470719 1 0.529281
0.253309 1 0.746691
0 0.812281 1
0 0.582046 1
0 0.614056 1
0 0.686701 1
0 0.166283 1
0 0.436941 1
0 0.693349 1
0 0.598041 1
1 5.96046e-08 0
0 0.854026 1
0.0339138 1 0.966086
0.0217065 1 0.978294
0 0.413142 1
0 0.972408 1
0 0.427653 1
1 0.984339 0
0 0.931159 1
0 0.548951 1
0.842919 1 0.157081
0 0.81471 1
0.259935 1 0.740065
0.676469 1 0.323531
0 0.531393 1
0 0.193593 1
0 0.196742 1
0 0.649177 1
0 0.63439 1
0 0.437256 1
0.199681 1 0.800319
0 0.526615 1
0 0.721669 1
0 0.508144 1
0.0848271 1 0.915173
0 0.994179 1
0 0.823223 1
0 0.36314 1
0 0.717589 1
0 0.493909 1
0 0.625801 1
0 0.551728 1
0 0.280469 1
0 0.325249 1
0 0.368793 1
0 0.441745 1
0 0.702112 1
0.00122533 1 0.998775
0 0.530373 1
0 0.444199 1
0 0.761411 1
0.283547 1 0.716453
0 0.428764 1
0.0570596 1 0.94294
0 0.6418 1
0.101559 1 0.898441
0.109055 1 0.890945
0 0.818547 1
0 0.706927 1
0 0.933467 1
0 0.641492 1
0 0.652385 1
0.0406119 1 0.959388
0 0.329042 1
0 0.681191 1
0 0.975104 1
0 0.643518 1
0 0.487874 1
0 0.895791 1
0 0.73726 1
1 0.209013 0
0 0.324578 1
0.0201189 1 0.979881
0 0.697421 1
0 0.959475 1
0 0.773736 1
0 0.837482 1
0 0.44375 1
0 0.729267 1
0 0.649973 1
0.324353 1 0.675647
0 0.165567 1
