# vtk DataFile Version 3.0
Particle simulation
ASCII
DATASET POLYDATA
POINTS 400 float
1.54214 0.169733 0.896475
1.16712 0.254462 0.303035
2.35017 0.218021 3.67092
1.23174 0.247004 0.13745
2.34036 0.106055 3.88419
0.52333 0.467656 2.45379
1.56328 0.94296 2.75062
1.10352 0.840377 3.32954
3.34491 0.3248 1.98406
4.24917 0.190176 0.108432
1.51174 0.155719 0.906862
1.21054 0.176821 0.368309
2.39922 0.207443 3.67821
1.2155 0.25089 0.184536
2.33572 0.0787442 3.81698
0.48416 0.463972 2.41448
1.19884 0.685277 3.28451
0.784514 0.554924 2.5214
3.35912 0.427999 1.88219
4.22271 0.195158 0.129037
3.97554 0.254465 0.721803
3.61313 0.0848829 0.380856
2.7481 0.116596 4.19708
4.2421 0.101152 0.782032
2.74842 0.0880573 4.60046
1.08555 0.238345 2.58249
4.3783 0.301477 4.05713
0.14091 0.784908 2.39111
2.29278 0.234679 1.96303
0.891361 0.0722445 0.30276
4.01352 0.255497 0.729512
3.55435 0.0601325 0.171679
2.67335 0.176452 4.12641
4.24057 0.100068 0.752965
2.7441 0.0886842 4.52172
1.03443 0.281796 2.62345
4.45148 0.297656 4.03921
0.188397 0.70879 2.36062
2.30714 0.242431 2.35022
0.807185 0.091813 0.240011
1.51938 0.308085 0.857261
2.84735 0.834568 1.87998
3.48251 0.363413 4.76499
3.7002 0.0714917 0.698323
2.69133 0.272619 4.64544
3.15032 0.625817 1.39143
4.04683 0.798887 2.80021
3.22772 0.415747 4.53293
2.10261 0.325374 2.28211
0.846655 0.217006 2.25305
1.53971 0.312573 0.845537
2.86818 0.847489 1.89375
3.4151 0.351293 4.74549
3.70055 0.0610967 0.674242
2.69629 0.267069 4.66286
3.18458 0.652248 1.41472
2.726 0.263655 4.53048
3.20572 0.393667 4.59781
2.08508 0.312246 2.25329
0.891899 0.141033 2.1579
2.80698 0.20611 0.612727
1.06292 0.302396 0.736778
1.80321 0.301759 3.75966
3.21238 0.379043 0.466609
2.4436 0.097917 4.29493
2.31835 0.748447 2.6581
1.99878 0.823191 2.23221
0.868164 0.0516845 2.51439
2.04339 0.347539 2.28913
0.946444 0.0261918 2.41864
2.85915 0.258226 0.601941
0.985106 0.217568 0.672789
1.80804 0.174466 3.1377
3.24162 0.41913 0.527321
2.53956 0.22464 4.33313
2.32407 0.746136 2.66842
1.991 0.818342 2.2616
1.10548 0 1.89073
2.07429 0.367803 2.24816
0.973317 0.0127552 2.45816
1.15539 0.103295 0.670809
3.12672 0.581687 1.89951
0.992501 0.686017 3.40992
3.98021 0.11173 0.781597
3.33575 0.316614 4.6638
1.75946 0.463503 3.26307
2.41021 0.350299 4.54017
1.44793 0.349659 2.66562
3.93247 0.848215 2.932
3.04609 1.04995 1.39504
1.20914 0.133915 0.715336
3.17926 0.548428 1.84975
0.876703 0.594744 3.41376
4.00552 0.108278 0.771594
3.37092 0.278827 4.66146
1.81456 0.496894 3.26255
2.44507 0.470726 4.5994
1.54298 0.376121 2.67801
3.90358 0.848772 2.88031
3.01854 1.06499 1.41898
4.42526 0 0.413014
2.26812 0.319323 0.238294
1.90401 0.705936 3.29912
2.72817 0.280974 1.01439
1.65563 0.0779254 3.67063
1.67333 0.641389 3.1433
1.1565 0.203095 2.66309
1.95474 0.790365 2.93989
2.14953 0.4108 2.16723
3.0727 1.09788 1.49648
4.4709 0.0147135 0.423167
2.31493 0.350654 0.272884
2.05266 0.680234 2.87212
2.66178 0.248891 0.91318
1.4935 0 3.4853
1.65266 0.616786 3.09117
1.10177 0.207776 2.73792
2.0129 0.749885 2.70966
2.16241 0.416194 2.22675
2.9405 0.984377 1.71917
2.67012 0.3148 1.00908
3.01323 0.799901 1.89682
4.48875 1.04723 3.757
2.76379 0.70896 0.548194
2.94338 0.884865 3.41736
3.59977 0.530582 1.68923
2.47148 1.00594 4.53864
4.05217 0.0645616 0.990864
3.15714 0.846371 3.63364
3.80744 0.69611 1.91363
2.68663 0.315992 0.987919
3.14832 0.775305 1.88316
4.72742 0.928455 3.79866
2.81865 0.745022 0.50266
2.92576 0.878879 3.46366
3.46583 0.629104 1.4554
2.22055 0.786285 4.32031
4.08405 0.096176 1.03295
3.13491 0.839338 3.65297
3.95023 0.2107 1.83833
1.50637 0.289195 0.736277
0.474059 0.16353 0.34564
0.75384 0.563163 3.8588
0.453673 0.274501 0.907734
0.639711 0.0492031 3.71839
1.88314 0.903255 2.83516
4.06926 0.480687 4.06823
0.596076 0.0417007 3.04355
0.741333 0.140909 3.12825
2.26424 0.779354 3.03741
1.50938 0.291193 0.741556
0.427783 0.155795 0.298042
0.652596 0.419504 3.93738
0.495063 0.290172 0.969032
0.70502 0.106506 3.66657
1.84498 0.915496 2.74677
4.04126 0.439957 4.05049
0.516861 0.0211372 3.05906
0.720427 0.112519 3.12837
2.42652 0.725307 2.92557
0.460057 0.138303 0.50448
2.95824 0.057213 0.468933
3.7656 0.10064 4.23163
1.59884 0.482246 0.868721
0.0448261 0.0878188 3.76702
0.759559 0.36403 3.45051
2.88728 0.174644 4.48922
0.289841 0.202777 2.68262
0.0408228 0.0995037 2.40491
2.50385 0.441619 0.237887
0.478982 0.136315 0.515567
2.96924 0.201599 0.533668
3.77385 0.100558 4.2168
1.55335 0.574088 0.815741
0.111241 0.0748083 3.73454
0.792137 0.372957 3.47158
2.85779 0.142846 4.53206
0.253501 0.221918 2.44571
0.0804414 0.111342 2.39885
2.50419 0.437946 0.214049
2.85234 0.279362 0.661727
0.719226 0.138164 0.467089
3.85674 0.150711 4.08447
0.2483 0.225647 1.08851
3.09997 0.720663 3.6701
3.31098 0.0260405 4.32978
1.44175 0.233282 3.78624
3.74981 0.00186884 1.79804
3.45951 0.297789 2.50585
3.5512 0.0824186 2.26455
2.8687 0.265975 0.649038
0.882817 0.211615 0.413024
3.87469 0.0511355 4.23061
0.260104 0.348311 1.05815
3.0915 0.774978 3.63615
3.27064 0.0856921 4.31697
1.45145 0.219949 3.78782
3.72403 0.0252829 1.79538
3.46821 0.296188 2.53152
3.55505 0.0748374 2.20798
1.4206 0.0604558 0.934238
1.22314 0.322929 0.554863
2.34295 0 3.62834
1.27729 0.169411 0.253304
2.01374 0.259299 3.79936
0.954006 0.400513 2.31757
1.3611 0.285586 2.62106
0.388062 0.37566 3.03686
1.64597 0.519804 2.31681
4.31763 0.0524637 0.172342
1.43971 0.119081 0.907811
1.68382 0.0741489 0.464246
2.29006 0 3.80437
1.28077 0.160328 0.22744
2.0353 0.259658 3.79387
0.955527 0.429902 2.27712
1.35985 0.281979 2.61815
0.68237 0.134909 2.68578
1.68756 0.496165 2.34397
4.32754 0.045149 0.115437
3.32309 0.424338 0.66709
3.18422 0.488128 1.10013
3.15498 0.201377 4.3245
2.87699 0.345727 0.619475
2.16107 0.108009 4.07726
1.42978 0.172065 3.4324
4.37619 0.6461 4.02185
0.367037 0.0590203 2.83904
3.85102 0.169769 2.49583
0.342975 0.565102 2.75683
3.30293 0.479374 0.639953
3.23158 0.479512 1.16423
3.04531 0.143113 4.31395
2.87361 0.336195 0.586946
2.17192 0.106784 4.07421
1.46711 0.191775 3.42967
4.37489 0.641546 4.00323
0.349268 0.0230825 2.86188
3.90171 0.16779 2.4303
0.412671 0.588821 2.67749
1.41306 0.150688 0.686448
4.02624 0.43047 1.9351
3.73473 0.467574 4.13889
3.7393 0.0182562 0.745636
2.8457 0.491362 4.5249
2.97219 0.0876992 2.7778
1.63487 0.435108 2.40543
3.02611 0.549705 0.133981
3.57521 0 2.60375
0.850211 0.104957 2.30154
1.3792 0.155681 0.683842
3.79945 0.511647 1.98467
3.74602 0.420891 4.20764
3.75933 0.0659176 0.789238
2.87566 0.506199 4.51578
2.92884 0.0350386 2.87429
3.64303 0.0224039 2.31945
3.02153 0.536191 0
3.56076 0 2.54232
0.872137 0.130617 2.24521
3.23588 0.831891 0.934096
1.81706 0.373802 0.048918
1.48686 0.600488 2.27622
2.97462 0.509311 0.436264
2.31217 0.0950517 4.28861
1.98896 0.483178 2.95168
2.84356 0.552228 1.83722
2.39398 0.220485 4.30615
1.87005 0.281235 4.06836
0.586954 0.610433 2.59599
3.22534 0.821543 0.925174
1.69501 0.402992 0.0763001
2.12801 0.431672 2.66364
2.98239 0.568441 0.539654
2.26818 0.0870614 4.20164
2.13652 0.212386 2.91602
2.82319 0.516282 1.85398
0.919112 0.593284 2.82917
1.91783 0.305834 4.0426
0.527638 0.576216 2.57091
4.27498 0.208831 0.597316
4.13994 0.397804 1.98685
1.8171 0.227417 4.30213
3.63009 0.316029 0.866887
3.0367 0.72776 4.64722
1.25887 0 3.56081
1.84353 0.132059 4.25675
1.22402 0.117384 3.02683
3.75913 0.109906 1.84908
3.54133 0.0649814 2.45894
4.29978 0.134358 0.622416
4.09157 0.407034 1.95746
1.79516 0.387042 4.22567
3.66008 0.355079 0.80425
2.95037 0.573184 4.65159
1.30536 0 3.56557
1.81438 0.13177 4.20689
1.30392 0.156203 2.97557
3.70358 0.201452 1.80765
3.80374 0.136305 2.32246
4.09134 0.293617 0.55634
0.788821 0.464761 0.254777
1.69545 0.417623 4.09915
0.778977 0.480637 0.695852
0.659504 0.479078 3.39514
3.6547 0.0166509 2.23502
1.45714 0.199191 2.5652
3.66682 0.182583 2.61277
2.09419 0.670693 2.3903
3.49957 0.130161 2.52275
4.0741 0.290125 0.649299
0.881441 0.458878 0.214472
1.89555 0.403418 4.00396
0.907172 0.420413 0.571383
0.778055 0.501272 3.31058
3.37776 0.0669672 2.80383
1.55568 0.143539 2.58962
1.89441 0.468934 2.23131
2.15936 0.699143 2.45448
3.39648 0.107154 2.58738
2.85979 0.299985 0.913687
2.90821 0.608208 0.24397
2.48811 0.301343 4.43302
2.8619 0.984305 0.602098
3.51771 0.0487959 2.33944
2.88863 0.58585 2.93081
1.62968 0.619462 3.75617
3.75154 0.394437 1.78368
3.00512 0.108273 2.58819
4.04271 0.220361 1.88057
2.78386 0.294448 0.909651
2.92195 0.56599 0.102549
2.58104 0.353952 4.43453
2.8565 0.985102 0.601704
3.48932 0.0173078 2.3078
3.00354 0.698512 2.80269
1.63632 0.606398 3.77916
3.69788 0.398566 1.77461
2.9868 0.138935 2.59137
4.03165 0.298506 1.84707
0.77436 0.472683 0.67391
1.31584 0.221287 0.345856
1.61148 0.255676 4.17132
0.767364 0.675581 0.765055
0.906879 0.43263 3.38738
1.96945 0.241767 3.08323
2.03504 0.661159 2.02901
0.684877 0.194365 2.96643
1.22911 0.528229 3.17694
2.26707 0.331495 2.96558
0.783868 0.454002 0.675955
1.28587 0.223093 0.368889
1.66221 0.18329 4.17652
0.79654 0.66167 0.732797
0.879785 0.441811 3.41793
1.95042 0.284604 3.07307
1.98754 0.673239 2.00938
0.852613 0.080208 2.75899
1.28624 0.529889 3.14386
2.37077 0.316319 2.91171
0.350934 0.270498 1.0492
0.379969 0.0216179 0.269888
3.60855 0.530304 4.18377
2.43074 0.633728 0.629616
0.167587 0.410699 3.68035
0.327465 0.141728 4.06055
2.71016 0.557965 4.65624
0.309938 0.58299 2.69095
0.279834 0.480586 2.37642
2.41436 0.199795 0.189525
0.348449 0.260593 1.03183
0.39905 0.0374926 0.279389
3.62327 0.523539 4.14901
2.42015 0.642118 0.610494
0.232599 0.442817 3.67465
0.304388 0.177194 4.04864
2.70259 0.547411 4.65652
0.320017 0.580491 2.71239
0.279522 0.509817 2.32643
2.45324 0.22956 0.21556
2.66996 0.215845 0.699903
0.732231 0.0462388 0.528774
3.86087 0.525851 4.12474
0.962896 0.249989 0.849072
3.09647 0.0481231 2.16635
3.69828 0.704826 3.97137
2.09748 0.228835 4.14807
3.55321 0.419178 1.65145
3.51843 0 2.55184
3.65628 0 1.72046
2.6393 0.244091 0.668218
0.766823 0.0535352 0.500218
3.8629 0.534589 4.10853
0.959534 0.26479 0.88809
3.08487 0.0449927 2.15022
3.66809 0.693235 3.99531
2.09045 0.241275 4.16738
3.56209 0.387185 1.68968
3.3877 0 2.52067
3.66629 0 1.7257
POINT_DATA 400
SCALARS particleColor float 3
LOOKUP_TABLE default
0 0.603604 1
0 0.682464 1
0 0.764904 1
0 0.354867 1
0.073924 1 0.926076
0 0.816706 1
0 0.589049 1
0 0.892446 1
0 0.898638 1
0 0.872181 1
0 0.434786 1
0 0.649049 1
0 0.67082 1
0 0.431615 1
0 0.976992 1
0 0.819922 1
0 0.382111 1
0 0.684359 1
0 0.879714 1
0.0163521 1 0.983648
0.368677 1 0.631323
0 0.952466 1
0 0.604359 1
0 0.968204 1
0 0.987513 1
0 0.812934 1
0 0.830958 1
0 0.305253 1
0 0.611222 1
0.340911 1 0.659089
0.263027 1 0.736973
0.0805467 1 0.919453
0 0.514805 1
0.0277852 1 0.972215
0 0.933781 1
0 0.667288 1
0 0.710871 1
0 0.225937 1
0 0.764683 1
0.22149 1 0.77851
0 0.651469 1
0 0.582555 1
0 0.917787 1
0 0.529524 1
0 0.517412 1
0 0.512356 1
0 0.524503 1
0 0.81406 1
0 0.562342 1
0 0.407988 1
0 0.635581 1
0 0.622855 1
0 0.81405 1
0 0.544904 1
0 0.653378 1
0 0.4435 1
0 0.583999 1
0 0.903255 1
0 0.655723 1
0 0.468128 1
0.235235 1 0.764765
0 0.698092 1
0.33858 1 0.66142
0 0.849564 1
0 0.917205 1
0 0.974547 1
0.0397354 1 0.960265
0 0.506694 1
0 0.511343 1
0 0.666265 1
0.307184 1 0.692816
0 0.77506 1
0 0.994182 1
0 0.962415 1
0 0.912619 1
0 0.798876 1
0.0463883 1 0.953612
0 0.867983 1
0 0.587145 1
0 0.752405 1
0.0613092 1 0.938691
0 0.563829 1
0.0469576 1 0.953042
0 0.683605 1
0 0.524108 1
0 0.843341 1
0 0.714406 1
0 0.913771 1
0 0.922536 1
0 0.795491 1
0.160584 1 0.839416
0 0.574253 1
0 0.968037 1
0 0.68581 1
0 0.524132 1
0 0.830014 1
0 0.773614 1
0 0.744038 1
0 0.732389 1
0 0.570321 1
0 0.742222 1
0 0.686529 1
0 0.821072 1
0 0.815986 1
0 0.574347 1
0 0.499148 1
0 0.736018 1
0 0.640545 1
0 0.706199 1
0.112767 1 0.887233
0.0650437 1 0.934956
0 0.775322 1
0.0719195 1 0.92808
0 0.765759 1
0 0.522515 1
0 0.49319 1
0 0.758322 1
0 0.785907 1
0 0.652393 1
0 0.889107 1
0 0.474643 1
0 0.270123 1
0 0.516907 1
0.0431072 1 0.956893
0 0.665872 1
0 0.814372 1
0 0.990375 1
0.0728646 1 0.927135
0 0.326404 1
0 0.426858 1
0 0.402851 1
0 0.244441 1
0 0.482574 1
0.138166 1 0.861834
0 0.554832 1
0 0.746338 1
0 0.720212 1
0.189025 1 0.810975
0 0.308814 1
0 0.823614 1
0.118951 1 0.881049
0 0.572599 1
0 0.778065 1
0 0.894183 1
0 0.0711681 1
0 0.372172 1
0.0454249 1 0.954575
0 0.809996 1
0 0.34825 1
0 0.658646 1
0.0745315 1 0.925468
0 0.603946 1
0 0.845249 1
0 0.74758 1
0 0.116503 1
0 0.373932 1
0.197943 1 0.802057
0 0.866342 1
0 0.462663 1
0 0.905564 1
0.130934 1 0.869066
0 0.524189 1
0 0.667875 1
0.189725 1 0.810275
0.355439 1 0.644561
0.26377 1 0.73623
0 0.788545 1
0 0.871315 1
0.292782 1 0.707218
0 0.927006 1
0.155417 1 0.844583
0 0.470793 1
0 0.580103 1
0.00845618 1 0.991544
0.0383726 1 0.961627
0.15248 1 0.84752
0 0.863409 1
0 0.896132 1
0.164376 1 0.835624
0.06422 1 0.93578
0 0.833264 1
0 0.240644 1
0 0.980177 1
0 0.446621 1
0 0.442404 1
0 0.604991 1
0.0478506 1 0.952149
0 0.644044 1
0 0.31114 1
0 0.79732 1
0 0.757307 1
0 0.323168 1
0 0.910353 1
0 0.783117 1
0 0.521894 1
0 0.530293 1
0.118001 1 0.881999
0 0.514222 1
0 0.32159 1
0 0.760439 1
0 0.34211 1
0 0.723721 1
0 0.693196 1
0 0.527847 1
0 0.882864 1
0 0.973211 1
0 0.21729 1
0 0.602643 1
0 0.867528 1
0 0.848151 1
0 0.328478 1
0 0.401299 1
0 0.553492 1
0 0.699998 1
0 0.787393 1
0.0234547 1 0.976545
0 0.227468 1
0 0.618452 1
0 0.753004 1
0 0.882782 1
0 0.422375 1
0 0.761608 1
0 0.934196 1
0 0.505597 1
0 0.605671 1
0 0.220144 1
0 0.736118 1
0 0.286075 1
0 0.519933 1
0 0.52433 1
0 0.361608 1
0 0.998196 1
0 0.826858 1
0 0.72867 1
0 0.609417 1
0 0.162739 1
0 0.672453 1
0 0.128228 1
0 0.641021 1
0 0.519882 1
0 0.657055 1
0 0.909367 1
0 0.716921 1
0 0.572413 1
0 0.508709 1
0 0.814167 1
0 0.731745 1
0 0.914286 1
0 0.243232 1
0 0.606798 1
0 0.642328 1
0 0.786395 1
0 0.484921 1
0 0.524512 1
0 0.606409 1
0 0.672427 1
0.0531743 1 0.946826
0 0.486077 1
0 0.307844 1
0 0.647262 1
0.155552 1 0.844448
0 0.454656 1
0 0.738517 1
0.174211 1 0.825789
0 0.733689 1
0 0.669263 1
0 0.679466 1
0 0.825693 1
0 0.909873 1
0 0.60371 1
0 0.982331 1
0 0.342428 1
0.114134 1 0.885866
0.207228 1 0.792772
0 0.652995 1
0 0.894241 1
0 0.835411 1
0 0.780438 1
0 0.890528 1
0 0.667386 1
0.0364886 1 0.963511
0 0.516023 1
0 0.845619 1
0 0.583663 1
0 0.440289 1
0 0.875909 1
0 0.841104 1
0 0.40485 1
0 0.94656 1
0.193029 1 0.806971
0 0.833113 1
0 0.470838 1
0 0.950342 1
0 0.540349 1
0 0.164898 1
0 0.846443 1
0 0.863082 1
0 0.748556 1
0.0134152 1 0.986585
0 0.721151 1
0 0.760966 1
0 0.507715 1
0.252614 1 0.747386
0.281657 1 0.718343
0 0.573372 1
0 0.602865 1
0 0.472589 1
0.0426068 1 0.957393
0 0.34585 1
0 0.90215 1
0 0.981445 1
0 0.490288 1
0.138685 1 0.861315
0.0341028 1 0.965897
0 0.635724 1
0 0.374107 1
0 0.430359 1
0 0.850878 1
0 0.301801 1
0 0.907494 1
0 0.904959 1
0 0.679791 1
0.29471 1 0.70529
0 0.525204 1
0.0705804 1 0.92942
0 0.600874 1
0 0.714949 1
0 0.488767 1
0 0.386442 1
0 0.549845 1
0.0705398 1 0.92946
0 0.53123 1
0.165693 1 0.834307
0 0.568999 1
0.145746 1 0.854254
0 0.614945 1
0 0.716893 1
0 0.59201 1
0 0.241724 1
0 0.612716 1
0 0.44722 1
0 0.50517 1
0 0.695222 1
0 0.39286 1
0 0.519188 1
0 0.422114 1
0 0.662328 1
0 0.527013 1
0 0.248279 1
0 0.733633 1
0 0.447147 1
0 0.511749 1
0 0.65125 1
0 0.381428 1
0 0.339522 1
0 0.386283 1
0 0.70237 1
0 0.607416 1
0 0.285958 1
0 0.712117 1
0 0.894427 1
0.0542717 1 0.945728
0 0.919177 1
0 0.195507 1
0 0.857656 1
0 0.413747 1
0 0.200683 1
0 0.746885 1
0.29629 1 0.70371
0 0.711716 1
0 0.859761 1
0 0.960768 1
0 0.777572 1
0 0.222247 1
0 0.801597 1
0 0.304417 1
0 0.372449 1
0 0.851007 1
0.187883 1 0.812117
0 0.72241 1
0 0.874375 1
0 0.926331 1
0 0.595913 1
0 0.881593 1
0 0.57834 1
0 0.499978 1
0 0.548709 1
0 0.519952 1
0 0.940466 1
0 0.449791 1
0.0026935 1 0.997307
0 0.890733 1
0 0.670692 1
0 0.883674 1
0 0.568549 1
0 0.33945 1
0 0.578569 1
0 0.598265 1
0.0417695 1 0.95823
0 0.477816 1
