# vtk DataFile Version 3.0
Particle simulation
ASCII
DATASET POLYDATA
POINTS 400 float
4.42184 9.14016 2.09877
1.93617 3.33433 4.48894
4.7047 4.20302 2.76901
4.96811 8.52886 0.598538
9.7442 6.77415 4.6056
1.78604 4.87511 4.76453
7.79852 9.99371 5.29643
1.55972 0.162807 1.22561
2.68933 7.25908 0.509546
7.76344 3.08375 0.534336
4.74893 2.72692 8.04981
8.65536 3.19037 8.75071
10 6.40529 2.7846
6.30941 7.7159 1.98568
2.16142 4.57572 3.00784
8.33727 4.63303 7.51834
9.05325 2.89318 0.714457
7.96934 7.57516 4.0055
1.76346 8.83025 8.09624
5.1636 3.38862 2.06524
1.99397 3.31308 2.23515
8.84688 4.77972 6.00994
5.62121 7.51406 4.55653
5.8354 8.49483 5.47181
5.64094 6.80535 8.60273
7.48248 2.62298 9.41391
3.53583 8.59219 1.17978
4.38386 10 9.78869
0.506916 0.995297 5.76932
9.10958 2.1753 7.09901
2.81093 3.4173 4.36365
7.52987 0.14748 7.20344
9.20625 0.22039 1.97673
5.27263 2.50359 2.14623
6.90497 2.22743 4.53016
1.96473 2.37855 4.87125
0.731165 3.77141 6.64853
3.26198 9.23232 3.36491
2.11405 3.25116 2.96753
1.09027 2.28973 6.66838
8.51668 6.06651 0.0811651
5.75496 6.13003 2.66094
3.72799 7.61961 3.41723
7.19431 6.0705 6.29134
10 6.13922 3.25773
2.95282 3.76871 0.193663
0.316555 6.41735 0
1.92791 9.36688 3.01013
1.34945 3.05943 3.22166
0.426145 1.9968 8.64613
8.23788 1.14949 6.94211
3.04684 0.865076 8.99811
3.63507 7.06006 3.44402
2.43624 4.99998 0.106718
5.18659 3.75436 4.48839
1.73235 2.39726 4.16844
6.27391 1.9852 1.78022
8.88229 2.52209 4.48672
1.77861 1.00061 7.36731
2.36024 9.85961 4.74162
0.85754 5.1972 4.703
0.830985 9.84556 9.30355
4.55488 1.4262 3.25933
4.70597 4.88243 3.7379
10 9.48883 1.15386
2.57825 8.59972 8.91505
4.9406 2.02173 0.364563
9.56306 9.15688 3.47453
8.58269 5.35511 5.37955
1.89694 6.134 7.72303
3.08792 5.32679 6.14141
6.6009 3.45612 6.73794
6.6892 1.43056 0.495768
8.61397 0.106877 6.26923
8.98839 4.86241 7.50368
3.5465 2.39823 2.23417
4.74685 5.28781 2.8239
4.77436 8.76399 0.752422
2.85658 9.64761 4.03236
7.98265 5.55381 4.86248
2.50618 4.00432 9.02159
7.80406 9.33764 4.61251
6.77753 0.703291 4.48911
0.437873 9.6864 8.25034
6.31725 3.30672 4.82939
5.33445 2.10619 7.84821
8.09985 1.93818 6.74366
6.30679 9.30784 2.54656
6.34543 0.639059 9.43861
7.75718 7.77466 7.72592
1.24242 8.2663 1.51106
0.507009 2.48214 1.48164
4.11975 7.73733 1.52684
7.43668 3.04433 6.6365
0 0 9.03732
0.623386 5.46104 7.81837
5.59624 8.91321 7.11809
5.18148 9.62568 2.80667
3.49468 0.55848 0.56821
8.41566 7.91356 7.98553
7.93517 4.66807 9.3933
9.78661 0.642766 7.52811
5.95632 3.21553 0.292653
3.33889 1.11612 9.49496
1.48192 1.61988 9.58873
1.80879 4.39346 5.96086
9.18937 7.55786 5.1778
3.91772 3.51025 10
10 5.11326 6.61796
8.52498 7.30943 2.96159
2.94205 0.617997 7.1526
6.39411 9.33813 9.04647
8.75299 1.17799 6.93487
8.10572 1.27786 3.58227
4.5858 9.22777 5.96983
0 4.55358 2.97905
7.98517 3.67216 7.37539
7.60358 0.786968 4.43291
2.04193 9.46489 1.69787
8.89329 4.06392 7.68003
2.22568 6.18086 6.6821
5.17434 6.00282 7.16958
3.31757 7.89561 9.49223
3.82056 6.80627 4.79849
8.09128 1.65872 0.862692
1.17688 5.44581 0.0579773
7.08291 0.753289 8.16593
6.34625 2.53736 7.35106
9.94697 1.15664 4.49832
6.96836 0.337158 6.92906
8.69707 8.5656 1.98823
2.39832 3.36802 2.37419
1.05905 0 5.05656
3.00126 9.64005 6.33566
2.47017 7.18544 0.315336
6.75257 7.18256 1.45087
7.69858 6.81121 3.54622
1.8214 4.87365 0.292838
4.84723 6.42463 1.15678
6.76236 2.00427 7.91217
8.85471 0.434703 10
5.91789 2.18148 7.44159
4.83084 5.61102 9.00153
5.76861 0.0587593 0.670869
3.16476 3.9809 8.60936
7.17508 2.23446 0.391582
5.71081 3.7447 7.98606
2.42666 1.62183 7.81049
1.21444 5.95654 2.21957
5.73001 6.22317 6.17575
7.43074 0.244607 7.01233
2.6675 2.21943 4.04561
9.46246 0.460423 3.75523
5.79462 0.10117 0.0888836
9.55816 1.74597 5.39307
1.42456 5.53319 7.65483
9.8858 5.25823 3.43738
9.56983 0.402344 4.41998
1.75377 5.16726 0.749779
1.19083 6.13722 5.04858
8.88106 1.65301 5.28915
9.94761 6.43576 0.568257
7.4399 9.85072 0.435857
2.77522 8.56582 5.4055
1.1123 4.56764 4.61032
0 4.00257 1.03869
4.56507 3.29634 9.89258
0.283312 1.40491 8.80164
0.851671 1.48437 2.55388
7.91942 2.24595 9.76967
2.87906 1.50171 3.9851
7.27373 2.48013 8.60802
4.79339 0.706392 2.68649
4.694 0.961121 7.10595
4.67637 5.43837 5.03165
0.280557 7.31979 7.23763
0.968169 3.8598 8.48169
3.3893 3.93058 7.64004
0.354051 0.125541 8.287
5.03627 8.10385 6.80234
0.173316 3.44932 7.06157
8.6562 5.15107 5.24536
0.843724 2.13775 4.60363
8.52093 4.92357 5.31093
5.93032 0.674948 0.358849
4.15823 4.16668 3.66196
8.04962 0.415161 7.07984
2.44953 4.72152 0.254845
2.27971 8.84913 0.798619
4.92673 8.0299 6.57544
0.5577 7.43006 7.37558
0.424346 1.46896 8.39825
0.348252 7.33866 3.24205
5.76461 6.75956 0.874774
6.9212 3.48638 4.50418
6.36803 7.11221 0.25645
7.71481 1.69755 2.501
9.55081 8.2952 6.84028
10 2.57305 4.44285
4.85576 6.4602 4.94015
7.83794 0.418103 5.80064
7.58843 9.84614 3.72077
4.13014 0.591399 5.8508
4.77225 5.33086 8.17648
0.38965 1.90771 1.8612
10 4.6316 5.70857
0.336048 4.3119 1.27662
4.63294 8.78174 1.34966
3.47878 9.56726 4.37451
5.01155 1.2901 9.28239
6.03608 0.257695 8.74916
3.83004 2.86141 9.02236
7.81006 1.40049 2.89774
0 7.54343 3.73677
3.72942 1.24163 8.33286
8.75271 5.69116 7.52349
5.57544 0.73991 8.36586
10 3.07333 6.65314
0.777628 6.44689 0.750346
5.74348 5.73933 5.13442
1.38091 5.24398 8.21164
2.10474 8.86905 2.14693
5.88397 2.53427 7.57091
7.52997 0.297832 6.07238
7.67734 3.87431 9.23536
1.40043 8.76335 2.0844
2.18334 8.9187 7.89077
3.7572 5.09893 8.22997
7.44231 0.379612 6.96677
7.76074 4.24254 7.4648
6.99601 1.13658 6.54506
6.87653 1.9995 9.5864
8.48934 1.94009 2.37026
2.87485 0.928687 7.43027
2.74221 8.85527 8.63546
8.161 2.69718 1.77727
1.39935 3.90988 3.92642
0.352474 3.36454 7.54966
7.23154 0.468122 7.31834
3.48151 2.97165 8.76967
7.21293 0.607906 7.44684
4.36006 0.683823 6.80873
9.05023 5.36811 7.56068
5.64523 8.22854 3.6564
0.886488 7.60293 2.03414
6.2601 8.59185 3.2638
1.19289 3.19329 9.01908
2.53043 4.13763 10
2.32382 1.05729 9.65678
10 5.83269 8.40952
6.8415 2.87967 2.48909
0.00364526 0.15656 1.68421
9.77052 9.36999 7.13471
2.07786 4.9797 4.2525
9.06498 8.88824 8.05375
2.13219 0.080072 1.15521
5.49992 5.39592 7.84963
9.22453 1.82623 5.75968
0.270681 2.87159 7.75946
7.61395 9.19452 3.27078
9.31632 1.20962 2.29677
7.69916 7.59645 1.8361
4.41462 4.81945 8.31658
6.19465 8.67448 2.5837
9.18584 3.45108 5.56413
8.14161 7.91838 2.69744
4.16849 1.46197 3.76016
3.68634 4.24144 3.73296
4.06205 9.37341 1.62936
7.96765 3.83982 6.0621
8.50854 1.47131 2.33502
9.34252 1.84048 1.32707
4.94125 6.32503 8.17217
7.16187 0.65092 0
3.51464 1.02127 4.2401
6.3618 4.81049 7.6318
7.11172 8.0636 3.12769
4.3372 0.582809 5.11001
4.50253 4.77144 1.79577
8.06473 0.195495 6.72884
7.95122 6.06216 1.81107
5.45718 2.62736 3.75717
5.67084 1.76901 9.58477
0.801873 2.2214 8.79607
7.48847 10 7.0775
8.16454 1.83871 0.554846
6.99616 0.781502 8.89054
2.24988 6.85375 9.33364
7.50999 9.71455 1.31628
4.32577 7.14055 4.28265
6.6291 8.64083 3.97085
7.41058 4.47002 7.09103
9.71219 7.43987 5.35388
4.01994 2.60668 6.00233
0.916679 7.61998 3.29218
1.07266 0.630348 8.51883
7.85699 0.079385 7.33027
7.89828 0.621457 6.32634
7.34022 0.25818 7.1735
7.40405 0.397028 7.24146
3.48493 8.806 6.26711
8.37433 4.29577 7.72177
7.50447 0.326704 7.30568
1.88861 3.01389 8.95228
7.4023 0.532491 7.1835
1.57951 4.32207 8.1462
7.65204 0.271867 6.04643
7.47103 0.153707 7.08853
1.183 9.18429 1.21576
3.09131 7.11305 8.85786
9.94033 6.22328 1.27167
0.666499 5.90317 10
2.18139 0.909577 6.78356
7.78788 0.25784 7.0561
3.72113 7.47281 2.58112
5.43384 4.81222 6.72486
9.27359 4.38229 6.08907
7.87693 0.84766 6.69744
6.70244 1.12651 2.49287
2.93293 3.85342 7.13984
10 7.09838 5.37927
0.195371 0.265577 8.14956
1.08529 0.287072 8.72408
7.45914 0.154115 7.33076
7.44893 0.351429 7.34081
0.360487 8.24104 9.79953
7.6662 0.318872 5.94331
3.29906 0 8.12998
8.36358 5.29945 2.37677
7.65743 0.500184 7.16387
1.65314 9.29635 2.97122
6.91078 0.641445 1.39198
6.56653 8.98898 1.9065
1.07439 0.155437 1.76438
2.20477 1.82989 9.8533
4.19178 5.10802 0.637169
7.81167 2.97881 1.31624
7.46782 0.354883 7.03653
8.59658 1.73598 8.13824
0.836327 8.13484 3.01724
9.29772 9.0111 1.67278
1.65458 7.39017 6.21015
7.17249 9.63801 1.37177
1.15635 0.184416 8.69189
7.2183 0.314699 6.92258
5.14376 0.686698 3.15513
9.49373 1.03316 1.43989
7.62071 0.152012 7.30342
7.14258 0.387462 6.92732
0 4.76136 7.4031
6.93324 0.381803 7.22007
7.32731 0.621202 7.52976
1.0459 6.79183 2.97994
5.14182 5.21012 5.65801
2.10415 8.64538 5.78055
7.71632 0.429947 7.05248
7.37929 7.36562 5.67407
2.48715 0.207686 5.59433
7.58458 0.643678 6.43364
7.85737 0.42075 7.49723
7.70972 8.99608 6.71677
0.827253 0.296007 8.56682
0.947647 0.342176 8.67117
7.45979 0.258449 6.92531
7.41471 0.519977 7.08309
4.28197 7.01738 3.6646
1.06203 0.403167 8.55646
1.83958 5.85341 0.910089
6.82533 9.70262 7.80947
5.47174 7.04797 0.0741157
9.53414 1.33077 1.48957
1.37736 6.39395 1.23273
0.70814 1.12041 1.91568
7.70406 0.511141 7.52926
7.47719 0.313157 6.96426
7.99188 1.13306 6.93486
1.03144 0.370219 8.66003
2.80929 1.76284 2.09461
2.77776 6.98458 9.16003
7.43095 0.565094 7.53488
7.47576 0.197148 6.66605
7.31495 0.544725 7.47338
6.4928 1.22648 6.9009
7.5251 0.208098 7.18556
2.25111 8.98094 8.20001
1.0482 0.428547 8.68974
7.73615 0.51765 6.78728
7.42718 0.656601 7.4159
8.66829 7.23796 3.14979
7.79057 7.85637 0.217437
7.53645 0.213685 7.18705
7.67732 0.121537 7.32947
2.88192 8.46145 2.52092
7.52413 0.0888695 7.55635
5.53851 1.74727 0.542566
8.30264 5.84097 4.70791
7.43257 0.0975326 7.26414
9.20989 7.25968 5.40056
1.54268 5.81949 10
3.58232 1.74438 8.40168
POINT_DATA 400
SCALARS particleColor float 3
LOOKUP_TABLE default
0.996769 1 0.00323129
0.155121 1 0.844879
0.14508 1 0.85492
1 5.96046e-08 0
1 5.96046e-08 0
1 0.343672 0
1 5.96046e-08 0
1 0.146649 0
0.191064 1 0.808936
0.393133 1 0.606867
1 0.167044 0
1 0.0315825 0
1 0.798385 0
1 5.96046e-08 0
1 5.96046e-08 0
0.48299 1 0.51701
1 0.987505 0
0.858751 1 0.141249
1 0.63768 0
1 5.96046e-08 0
0.465265 1 0.534735
1 5.96046e-08 0
0.6081 1 0.3919
1 0.727934 0
1 5.96046e-08 0
1 0.773903 0
1 5.96046e-08 0
1 5.96046e-08 0
1 5.96046e-08 0
1 5.96046e-08 0
0.929833 1 0.0701669
0 0.96945 1
1 0.298858 0
1 5.96046e-08 0
1 0.914495 0
1 5.96046e-08 0
1 5.96046e-08 0
1 5.96046e-08 0
1 5.96046e-08 0
1 5.96046e-08 0
1 5.96046e-08 0
1 0.311006 0
1 5.96046e-08 0
1 5.96046e-08 0
1 0.747516 0
0.910306 1 0.0896943
1 0.200584 0
0.596609 1 0.403391
0 0.890418 1
0.960645 1 0.0393553
0.418211 1 0.581789
1 5.96046e-08 0
1 0.792943 0
0 0.829754 1
1 5.96046e-08 0
1 0.293577 0
1 5.96046e-08 0
0 0.994121 1
0 0.446521 1
0.808438 1 0.191562
1 0.104872 0
0.741774 1 0.258226
1 0.823353 0
1 0.47149 0
1 5.96046e-08 0
0.569759 1 0.430241
0.656814 1 0.343186
0.947142 1 0.0528578
0.981488 1 0.0185118
0 0.548426 1
1 0.43534 0
0.774181 1 0.225819
1 0.896513 0
1 0.078303 0
1 5.96046e-08 0
0.613389 1 0.386611
0.00288541 1 0.997115
1 5.96046e-08 0
0.431134 1 0.568866
1 0.0375388 0
1 5.96046e-08 0
0.19078 1 0.80922
1 5.96046e-08 0
1 0.375495 0
1 5.96046e-08 0
1 5.96046e-08 0
0.349205 1 0.650795
1 5.96046e-08 0
1 5.96046e-08 0
1 0.773842 0
1 0.840924 0
0.129603 1 0.870397
1 5.96046e-08 0
0.240455 1 0.759545
1 5.96046e-08 0
1 5.96046e-08 0
1 5.96046e-08 0
0.526736 1 0.473264
0.846022 1 0.153978
1 5.96046e-08 0
1 0.36837 0
0.393918 1 0.606082
1 0.32702 0
0.914046 1 0.0859541
1 5.96046e-08 0
1 5.96046e-08 0
0.299975 1 0.700025
1 5.96046e-08 0
1 0.925118 0
1 5.96046e-08 0
1 0.625764 0
1 5.96046e-08 0
0 0.838287 1
1 0.895719 0
1 0.935582 0
1 0.710937 0
1 0.936212 0
0.602459 1 0.397541
1 5.96046e-08 0
1 0.238783 0
1 5.96046e-08 0
1 5.96046e-08 0
1 5.96046e-08 0
1 5.96046e-08 0
1 5.96046e-08 0
0.755987 1 0.244013
0.850238 1 0.149762
0 0.554272 1
0.0251919 1 0.974808
1 0.493001 0
1 0.905011 0
1 5.96046e-08 0
1 5.96046e-08 0
1 0.592914 0
1 5.96046e-08 0
1 5.96046e-08 0
0 0.920957 1
1 5.96046e-08 0
1 5.96046e-08 0
1 5.96046e-08 0
0 0.829542 1
1 5.96046e-08 0
1 0.550404 0
1 5.96046e-08 0
0.38811 1 0.611889
1 0.914208 0
1 5.96046e-08 0
1 0.801906 0
1 5.96046e-08 0
0.322868 1 0.677132
0 0.386825 1
0 0.952628 1
1 0.289924 0
0.206997 1 0.793003
1 5.96046e-08 0
0.936025 1 0.0639755
0.123561 1 0.876439
1 5.96046e-08 0
0.896511 1 0.103489
1 5.96046e-08 0
1 5.96046e-08 0
0.770341 1 0.229659
0.222508 1 0.777492
0 0.798995 1
1 0.0100929 0
0.877876 1 0.122124
0.666615 1 0.333385
1 0.601573 0
0 0.930831 1
1 0.415511 0
0.900536 1 0.0994635
1 5.96046e-08 0
1 5.96046e-08 0
0.831179 1 0.168821
1 0.897304 0
1 0.0224823 0
1 5.96046e-08 0
1 0.0137251 0
1 0.828757 0
1 5.96046e-08 0
0.27975 1 0.72025
1 5.96046e-08 0
1 5.96046e-08 0
1 0.789322 0
0 0.735218 1
0.739072 1 0.260928
0 0.261239 1
1 5.96046e-08 0
0.0295038 1 0.970496
1 5.96046e-08 0
1 5.96046e-08 0
0.546576 1 0.453424
1 0.32159 0
1 5.96046e-08 0
1 5.96046e-08 0
1 0.678083 0
0.193781 1 0.806219
1 5.96046e-08 0
1 5.96046e-08 0
1 0.0317585 0
0 0.550303 1
1 5.96046e-08 0
1 0.591769 0
1 0.6973 0
1 5.96046e-08 0
1 5.96046e-08 0
1 5.96046e-08 0
0.590031 1 0.409969
1 5.96046e-08 0
1 5.96046e-08 0
1 0.690023 0
1 5.96046e-08 0
1 5.96046e-08 0
1 5.96046e-08 0
1 0.145756 0
0.5968 1 0.4032
0.316959 1 0.683041
1 5.96046e-08 0
0.589908 1 0.410092
1 5.96046e-08 0
0.483265 1 0.516735
1 0.296798 0
0.268251 1 0.731749
0 0.83554 1
1 0.109366 0
0 0.781251 1
1 0.759708 0
1 5.96046e-08 0
0 0.147659 1
1 5.96046e-08 0
1 5.96046e-08 0
0 0.574047 1
0.744594 1 0.255406
0.329849 1 0.670151
1 0.343966 0
1 0.154393 0
1 0.758499 0
1 0.118686 0
0 0.531725 1
1 5.96046e-08 0
0 0.815485 1
0 0.725892 1
0.507043 1 0.492957
0.400333 1 0.599666
0.732312 1 0.267688
1 5.96046e-08 0
0.553272 1 0.446728
1 5.96046e-08 0
0.269923 1 0.730077
1 5.96046e-08 0
0.473582 1 0.526418
0 0.868772 1
1 5.96046e-08 0
1 0.292753 0
1 0.371746 0
0.566813 1 0.433187
1 0.330816 0
0.377129 1 0.622871
1 0.899419 0
0.350469 1 0.649531
0 0.951536 1
1 0.0921387 0
1 0.252403 0
1 0.264263 0
1 5.96046e-08 0
0.0361971 1 0.963803
1 0.0765514 0
1 0.542114 0
0.252252 1 0.747748
1 5.96046e-08 0
1 5.96046e-08 0
0.641136 1 0.358864
1 0.968205 0
1 5.96046e-08 0
1 5.96046e-08 0
1 5.96046e-08 0
1 5.96046e-08 0
1 0.133905 0
1 5.96046e-08 0
0 0.63759 1
0.592047 1 0.407953
1 0.64861 0
0.665463 1 0.334537
1 5.96046e-08 0
1 0.247092 0
1 0.791301 0
1 0.21573 0
0.884525 1 0.115475
1 0.792811 0
1 5.96046e-08 0
1 0.454272 0
1 5.96046e-08 0
0 0.837541 1
1 0.333121 0
0 0.492148 1
0 0.658464 1
0 0.322757 1
0 0.564856 1
0 0.431527 1
0 0.695337 1
1 0.682922 0
1 0.0773159 0
0 0.439436 1
0 0.524652 1
0 0.48832 1
0.654154 1 0.345846
0 0.275701 1
0 0.284163 1
1 5.96046e-08 0
1 5.96046e-08 0
1 0.903238 0
1 5.96046e-08 0
1 0.798343 0
0 0.638211 1
1 0.722654 0
0.700072 1 0.299928
0.8369 1 0.1631
0 0.77923 1
1 5.96046e-08 0
1 0.587693 0
1 5.96046e-08 0
0.478904 1 0.521096
0 0.334789 1
0 0.378641 1
0 0.764713 1
1 0.608104 0
0 0.850595 1
1 0.365015 0
0.209332 1 0.790668
0 0.490579 1
0.761376 1 0.238624
1 5.96046e-08 0
1 0.700636 0
0.917695 1 0.0823053
0.330077 1 0.669923
1 0.934764 0
1 5.96046e-08 0
0 0.685473 1
1 5.96046e-08 0
0.719225 1 0.280775
0.445682 1 0.554318
0 0.59122 1
0.0253299 1 0.97467
0 0.45222 1
0.00525072 1 0.994749
0.326258 1 0.673742
0 0.877952 1
0.110373 1 0.889627
0 0.122062 1
0.951967 1 0.0480327
0 0.797503 1
0 0.387229 1
0 0.712628 1
1 5.96046e-08 0
1 5.96046e-08 0
0 0.315688 1
1 5.96046e-08 0
1 0.0677871 0
0 0.501606 1
0 0.25616 1
1 5.96046e-08 0
0 0.983572 1
0 0.739634 1
0 0.43762 1
0 0.618502 1
1 5.96046e-08 0
0 0.605064 1
0.964224 1 0.0357763
1 0.199179 0
0.453505 1 0.546495
0 0.620239 1
1 5.96046e-08 0
1 0.903077 0
0.150184 1 0.849816
0.142554 1 0.857446
0.0956768 1 0.904323
0 0.475556 1
1 0.311156 0
1 0.36209 0
0.0710349 1 0.928965
0 0.314456 1
0 0.445489 1
0.043403 1 0.956597
0.0781597 1 0.92184
1 5.96046e-08 0
0 0.192131 1
0 0.588622 1
0 0.536416 1
1 5.96046e-08 0
0.338978 1 0.661022
0.0562708 1 0.943729
0 0.518544 1
0.867487 1 0.132513
0 0.807651 1
1 0.575967 0
1 0.320858 0
0 0.468406 1
0.03285 1 0.96715
1 0.713355 0
0 0.737123 1
