# vtk DataFile Version 3.0
Particle simulation
ASCII
DATASET POLYDATA
POINTS 400 float
0.249709 1.87267 8.81084
6.32627 0.150391 2.86006
1.59823 0.893853 0.355145
2.74611 8.47809 6.40526
1.114 3.00426 4.20818
8.1816 5.09845 8.0032
5.17954 7.07425 3.71989
8.64935 9.71143 0.0562557
4.78706 2.51864 0.379413
3.83833 0.357115 7.44821
8.15847 3.11663 6.45181
5.60295 0.986525 6.6536
5.68138 7.1396 2.9873
2.72204 2.04395 9.8979
3.94756 2.47945 8.98485
3.42625 0.0417661 0.70059
9.0941 0 8.60801
3.07869 0.505827 0.562697
7.67507 1.79141 8.61605
9.68747 1.45292 5.91882
3.22457 0.223203 0.681008
6.02684 3.27621 8.1385
7.75219 2.64792 7.65762
4.10987 1.7537 4.27123
8.53569 3.13157 6.7508
0.475111 1.31523 6.56105
3.00116 4.06621 3.82759
2.05305 0.51911 1.88481
1.05553 8.91113 2.11222
2.55599 8.40766 9.99924
1.499 1.7942 1.10661
2.35445 6.71564 8.76074
4.61114 8.15375 7.28083
6.99945 0.739074 4.68838
7.0231 4.38255 1.39979
0.314886 3.40119 2.23891
1.30316 0.190307 6.56776
3.4574 0.496506 0.983832
9.73688 2.36044 3.6185
2.14152 3.17442 5.44976
5.73847 7.85123 0.22279
4.52 0.914822 7.75146
1.54688 6.55703 8.45059
1.26848 6.44681 4.29134
8.8822 0.553625 3.51092
6.02519 0 1.03014
7.74772 4.70326 9.00393
6.57823 0.790378 7.37815
5.311 0.385021 0
4.24212 7.03387 3.3197
3.1974 7.09535 7.51717
0.32796 0.212981 8.84098
8.50688 2.28951 1.31726
4.52696 8.9763 3.15046
4.09276 1.77081 5.80135
5.59156 0.833601 1.0439
8.38995 8.02983 6.30842
2.54146 0.101762 1.01102
3.72209 2.58016 4.28565
9.58418 0.888714 5.6917
1.0639 4.52368 8.01044
7.21285 2.01989 1.03136
5.202 9.42032 0.0274051
0.252637 0.524463 8.58483
3.17854 9.47384 5.33466
0.377499 1.81554 7.69943
0.522656 2.93374 9.20178
2.15745 3.47492 5.38192
6.91291 4.52769 5.03288
4.79039 3.25765 5.81062
7.51626 0.310084 9.02313
4.54247 1.66584 2.33168
8.77965 9.71888 4.38491
1.40703 1.5609 8.37856
4.16939 9.25815 8.54079
9.63939 7.43224 2.83058
3.03035 1.62104 5.63158
3.71322 2.34633 9.13141
3.74083 0.514523 2.60319
6.32633 5.57216 7.80813
3.50806 0.327604 0.797969
6.84727 1.54391 5.8133
1.95463 1.68098 6.77234
2.38543 0.440864 0.98384
2.68443 0.870787 7.82409
0.59358 1.11901 8.01783
8.75362 6.72121 8.0932
1.49795 0.566585 3.77897
0.626407 4.12271 4.67835
7.11954 0.703929 1.16305
3.52246 0.517127 1.34151
9.73255 0 1.51284
0.671782 3.35704 8.84543
2.61208 0.318262 5.99509
0.867265 0.762268 8.7101
6.84187 6.77467 3.39943
9.72527 5.86853 2.61466
4.15454 0.38146 9.8784
8.98796 2.93749 9.35198
7.14324 0.835278 0.976229
3.51163 0.40038 1.10524
0.742111 6.32489 3.0203
3.28829 0.295461 8.11004
3.35161 6.70045 7.89149
7.93455 1.55103 9.89221
1.25277 3.42217 1.34118
5.41523 1.45063 8.69484
5.586 0.283057 0.553958
4.04738 0.458731 1.14921
0.18364 0.913142 3.67551
5.73227 4.77576 2.95821
0.652273 3.37777 8.94561
8.50642 3.8315 3.10174
6.10183 0.830695 1.16799
2.46035 0.374262 0.963615
0.795559 0.175709 6.62822
4.98716 0.553294 8.01875
8.68237 4.52452 1.64742
8.27431 3.08894 6.35263
7.36611 7.42985 2.61944
3.40263 0.53462 0.57215
7.54256 2.51306 7.51288
3.28287 4.40659 5.82332
9.43678 4.11965 6.23433
2.21652 4.82152 5.44599
3.02278 0.760004 0.811029
2.32679 3.23841 3.39456
0.377766 0.657745 8.7449
1.31625 1.16128 7.45568
0.611362 9.058 3.76856
2.63259 0.919402 1.70234
7.63177 4.77002 7.27005
5.79178 3.75501 1.94104
7.04313 0.43066 3.31671
3.72927 2.14989 6.72345
2.39246 1.15104 3.05033
3.56758 4.33446 0
0.500027 0.330653 8.63461
0.369486 5.47817 8.51935
4.90414 0.0453961 8.35708
3.2526 0.334372 1.0172
9.13362 8.02076 5.65206
0.325273 5.50763 8.28772
8.34871 1.3995 6.57534
3.46617 0.544639 1.14226
6.76211 1.4178 5.756
9.01301 0.395425 3.4306
3.13283 7.52029 1.25185
4.36452 1.64216 2.55331
5.91319 1.82428 2.50566
3.22976 0.299053 1.0052
5.54463 1.96438 5.92035
0.602885 0.744416 8.70268
2.18904 1.75793 4.78346
4.44977 5.75847 8.48297
6.08366 0.206821 1.3813
7.879 1.13654 1.12021
5.51056 0.58576 0.975492
3.24029 2.53248 9.33844
3.96962 2.99746 2.26802
5.01337 2.17084 0.290411
4.96938 0.432073 5.02125
6.23555 1.40114 8.90663
1.97746 3.07214 0.154768
3.94503 0.312745 9.38491
9.23464 3.72813 8.71439
6.8059 0.0730288 2.85117
6.49256 0.382385 9.31242
5.84473 2.44092 2.5108
0.783987 0.909791 9.04822
3.49741 0.478938 1.23179
9.35117 3.5351 0.112039
5.55701 4.33203 3.2986
1.49314 3.22485 0.952043
3.10818 0.212397 5.92447
5.16931 9.63206 0.516049
1.03448 0.370641 7.62715
2.9492 1.37229 5.54971
1.57554 0.288187 7.26054
9.37628 6.66707 7.01165
3.03817 0.571297 0.663928
5.72159 9.53568 2.37877
4.94333 0.77863 4.9302
7.19529 0.728683 0.703307
4.33515 0.269772 8.57871
7.57121 0.513945 0.936878
3.83519 0.477699 1.21672
4.80497 8.62131 5.29744
8.84135 0.420912 3.01744
3.07616 0.662718 0.904172
3.32675 0.488221 1.09241
3.34575 0.332649 0.942244
2.89822 7.53126 7.66857
0.969987 0.557366 1.01862
4.71529 5.32456 8.92891
3.31326 0.670451 0.762988
3.39132 0.196406 5.29573
5.54774 8.59212 6.47921
3.30641 0.249506 0.861373
3.70443 0.643573 0.438461
3.71217 0.409784 1.15531
5.75685 0.197181 0.43159
8.40945 0.316853 2.67072
1.22767 0.377416 7.58355
1.60046 9.12497 1.92479
5.04339 0.293639 8.28568
3.05434 0.834345 0.767506
7.72156 3.66032 3.96216
2.16323 2.10084 0.379978
8.21878 0.651985 1.3255
3.33158 0.479781 0.559361
3.43327 0.476531 0.622778
8.48543 5.89788 0
6.92297 0.201608 7.54304
4.50531 2.79658 8.69402
4.66823 0.180187 8.42975
3.04569 0.118838 0.619586
2.64126 0.247313 0.464528
1.71265 9.79931 7.16798
5.78761 0.292313 2.77935
2.06787 7.20133 6.83999
8.09101 3.52181 7.41543
5.91796 0.18762 8.02431
3.08261 0.700523 0.786968
6.66281 0.15053 7.28781
2.75547 0.394226 1.42053
7.78372 0.204684 0.853476
3.68864 0.365858 0.975781
3.17741 0.0353332 1.19255
8.39727 2.09047 1.64281
4.80591 0.264774 5.77082
4.59075 0.141246 8.69758
9.08785 0.0581581 3.52998
3.00549 0.403889 0.283576
4.67831 0.21566 8.18761
1.83794 0.588962 3.6925
4.4052 0.617341 7.56372
2.46801 1.38879 5.82766
3.69256 0.675817 1.0496
7.13968 4.6302 7.11793
3.32847 0.529983 0.665514
3.59843 0.245078 1.69314
2.94318 0.142885 0.481725
3.45401 0.736689 0.703082
4.63727 0.108846 8.37615
1.4067 3.51875 1.36022
1.25103 0.156334 4.97079
3.64022 1.28432 6.6915
1.23759 3.54134 1.89481
7.58947 0.397567 6.91866
3.0661 0.232456 0.436955
1.44468 9.57609 5.23713
5.20663 0.508416 8.05016
3.71266 1.37487 7.11499
9.18239 0.453828 3.19817
2.90112 0.270622 0.585771
5.23469 2.22003 5.26209
5.60366 0.277568 8.10129
4.85218 2.50835 4.04088
5.17214 0.516066 8.14599
3.10169 0.581935 0.898171
8.62912 6.49313 2.2392
1.18718 0.437031 7.57749
9.6787 7.29001 6.66316
4.65297 0.444007 8.79026
1.4091 1.86325 6.17489
6.01443 0.124541 1.09724
4.69564 0 8.11144
8.75939 0.284848 3.19301
3.26742 0.341817 1.02117
3.67221 0.771254 0.546182
7.34819 0.80491 0.599706
1.38859 1.75592 1.38091
2.65654 1.80368 5.78316
6.24007 2.08784 9.01658
4.2502 0.381997 8.55772
3.40423 1.48677 5.49549
6.80291 8.83873 5.00177
2.34303 2.16343 0.280066
3.2921 0.302306 0.875567
5.48353 0.4542 0.740303
5.64671 0.11677 0.992309
8.9987 5.99859 5.42094
1.03481 0.449268 7.43511
9.33554 5.71909 8.5706
8.73496 0.46322 3.59092
3.7255 0.386643 0.774111
7.07398 1.75422 5.98457
6.41014 1.91978 9.0272
5.37338 9.59943 1.85775
9.66001 0.120265 1.58024
5.40039 0.370602 0.101175
3.03434 0.16848 1.21506
0.435813 0.625123 8.54223
5.03269 0.472537 8.39106
4.99053 0.126579 8.45054
3.21836 0.339305 0.594976
3.54386 0.305664 1.10081
6.63335 1.76462 6.1445
3.28813 0.291443 0.63921
0.721691 0.17549 1.3463
3.20264 1.08488 6.54061
3.62266 0.320964 5.11663
4.23839 0.34739 6.56669
3.12849 0.676096 0.543947
0.639711 0.658368 8.7857
3.33794 0.28118 0.115289
2.9854 0.561502 0.839418
0.468461 1.04138 8.68113
2.93699 1.88048 5.42407
4.8361 0.311616 7.8499
5.48745 2.06439 6.07587
8.73781 0.518918 2.98222
3.22911 0.0723303 1.34959
6.81372 1.52021 5.81537
0.137178 0.70018 8.71729
7.10617 0.770592 0.362367
4.67246 2.73892 4.36483
4.88901 1.73169 5.07545
4.41552 1.76294 2.45005
5.43435 0.651377 8.10721
1.37439 0.435574 5.1783
4.92474 0.50315 8.36987
3.54374 0.695161 1.13948
5.34793 0.383945 0.607945
7.11249 0.715435 0.935861
3.49709 0.48261 1.1905
5.39611 0.37264 1.20916
0.210544 2.20421 1.21699
2.82742 0.544323 0.51644
8.91159 0.0883623 6.23981
3.6495 0.429291 1.23173
4.84192 0.377794 8.21807
3.22602 0.248376 0.524617
5.51782 0.110752 1.04613
8.13986 4.27041 7.54071
4.95984 2.39781 4.28436
3.13607 0.682095 0.842959
9.27758 0.80451 5.00219
2.97615 0.237384 5.84289
5.0716 0.627869 8.43182
2.64738 0.172833 6.24946
4.70061 0.125738 8.16662
4.83363 0.158616 8.11713
3.73431 0.709165 0.885779
3.21428 0.51763 1.16067
5.72485 0.184071 1.2215
3.24321 0.587376 0.929034
3.53193 0.497436 0.381253
3.17995 0.095252 5.70367
2.52205 0.359774 1.01704
2.90305 0.222394 0.970617
6.36332 1.65028 8.77969
5.28852 0.484215 7.90254
3.87201 0.809142 1.41033
3.77702 0.682743 0.595681
5.82375 0.155338 0.439632
4.8194 0.257171 8.30663
4.05703 0.493791 0.843231
3.16723 0.568056 1.1797
5.41661 0.343824 0.441911
5.17415 0.31969 8.04513
5.30761 0.477888 8.33497
3.38367 0.408084 0.939121
4.07183 0.226845 0.830207
8.57641 0.281927 2.97609
4.92805 0.315964 8.87127
7.26272 0.267319 7.10984
5.43107 0.435192 8.61752
7.40322 0.525527 0.838468
5.4236 0.300737 0.472362
5.54699 1.92573 5.82536
5.00877 0.136073 7.95013
3.01669 0.259558 0.958719
3.38331 0.556435 0.633467
9.09202 0.280089 3.40394
5.00335 0.259079 7.97919
5.14427 0.512917 8.48584
5.26381 0.751828 8.12011
3.53566 0.389678 1.14803
3.19323 0.63236 1.0306
3.28435 0.544192 0.805502
5.26023 0.605097 8.38329
3.53084 0.266417 0.98698
0.322522 0.81241 8.57867
4.78409 0.318528 8.23286
2.94098 0.534212 1.141
3.08008 0.212378 0.949919
7.4606 2.64185 7.54586
5.86282 0.535046 1.04248
3.27983 0.392095 0.8993
3.41234 0.452254 0.654215
4.80345 0.570103 7.97933
3.26986 0.401231 1.02655
0.234574 0.943035 8.59808
4.95396 0.295841 8.37476
2.92192 0.553246 1.15958
2.84533 0.391711 5.68126
5.03667 0.532202 0.970875
5.85178 0.529489 1.06785
POINT_DATA 400
SCALARS particleColor float 3
LOOKUP_TABLE default
0 0.308943 1
1 0.832814 0
1 0.120754 0
1 0.248317 0
0.876851 1 0.123149
1 0.759914 0
0 0.705491 1
0.0184839 1 0.981516
0 0.775417 1
0 0.857248 1
0.00737725 1 0.992623
0.851675 1 0.148325
1 5.96046e-08 0
0 0.484991 1
0.732346 1 0.267654
0.612844 1 0.387156
0.852762 1 0.147238
0 0.280241 1
0.156617 1 0.843383
0 0.596491 1
0 0.153124 1
1 0.996518 0
1 5.96046e-08 0
1 5.96046e-08 0
0.0110008 1 0.988999
0.285661 1 0.714339
1 0.928613 0
0.610425 1 0.389575
0.3235 1 0.6765
1 0.994541 0
0 0.717512 1
0.5573 1 0.4427
1 0.450826 0
0 0.608504 1
1 0.948263 0
1 5.96046e-08 0
1 0.378086 0
0 0.791872 1
0 0.763195 1
1 0.533511 0
0.380841 1 0.619159
0.0208349 1 0.979165
1 0.75002 0
1 5.96046e-08 0
0 0.677373 1
0 0.685602 1
0.0221181 1 0.977882
0 0.263918 1
0 0.288448 1
1 5.96046e-08 0
0 0.90817 1
1 5.96046e-08 0
0.323246 1 0.676754
1 0.0052374 0
0 0.531016 1
0 0.467517 1
1 0.612425 0
0.765941 1 0.234059
0 0.48399 1
0.885454 1 0.114546
0 0.367685 1
0.0964852 1 0.903515
1 0.811874 0
0 0.57938 1
1 0.640516 0
0.0755416 1 0.924458
0.0558284 1 0.944172
0.955205 1 0.0447952
0.914885 1 0.0851147
0.0962827 1 0.903717
0.182298 1 0.817702
0 0.693336 1
0 0.865934 1
0 0.610043 1
0.752552 1 0.247448
1 5.96046e-08 0
0 0.129549 1
1 0.774199 0
0.489121 1 0.510879
0 0.737873 1
0 0.685075 1
0.0454317 1 0.954568
0.17715 1 0.82285
0 0.699105 1
0 0.622948 1
0 0.73532 1
0 0.685678 1
0 0.911977 1
0.162876 1 0.837124
0 0.695 1
0 0.721796 1
0.908079 1 0.091921
0 0.879593 1
0 0.384473 1
0 0.439911 1
1 5.96046e-08 0
0.657202 1 0.342798
0.710713 1 0.289287
1 0.214081 0
0 0.758903 1
0 0.545557 1
1 5.96046e-08 0
0.538777 1 0.461223
1 0.437016 0
0.25187 1 0.74813
0 0.623228 1
0.650496 1 0.349504
0 0.912049 1
0 0.765607 1
1 0.476861 0
0.570551 1 0.429449
0.859273 1 0.140727
0.607566 1 0.392434
0 0.535269 1
0 0.338323 1
0 0.800232 1
0 0.387584 1
0.758275 1 0.241725
0.338668 1 0.661332
0.721632 1 0.278368
0 0.816191 1
1 0.0201957 0
1 0.230152 0
0.0209914 1 0.979009
0.838601 1 0.161399
0 0.909233 1
0.399337 1 0.600663
0 0.378589 1
0.119794 1 0.880206
0.096983 1 0.903017
0 0.485144 1
0.248066 1 0.751934
0.702646 1 0.297354
0 0.448986 1
0.762978 1 0.237022
0 0.612929 1
0.565061 1 0.434939
0 0.535963 1
1 0.327576 0
0 0.961793 1
0 0.797009 1
1 0.671284 0
1 5.96046e-08 0
0 0.932289 1
0 0.707137 1
0 0.979972 1
0 0.692764 1
0.596437 1 0.403563
0 0.916835 1
1 0.496377 0
0 0.700635 1
0 0.633439 1
0.183161 1 0.816839
0.933246 1 0.0667543
0 0.689758 1
0 0.652575 1
0.0180551 1 0.981945
0 0.903188 1
0.68187 1 0.31813
0 0.880102 1
0 0.77275 1
0 0.462358 1
0 0.432592 1
0.143084 1 0.856916
1 0.629901 0
0.206789 1 0.793211
1 0.998133 0
0 0.535903 1
1 5.96046e-08 0
0.989886 1 0.0101144
0 0.616373 1
0.0485276 1 0.951472
0.7291 1 0.2709
0.104635 1 0.895365
0 0.722498 1
0.258935 1 0.741065
0 0.886871 1
0 0.517926 1
0 0.721009 1
0.988126 1 0.0118745
0 0.580247 1
0.729003 1 0.270997
1 0.767186 0
0 0.917147 1
0 0.278573 1
0.15196 1 0.84804
0 0.076252 1
1 5.96046e-08 0
0 0.81277 1
0 0.414775 1
0 0.491763 1
0 0.639076 1
0.350904 1 0.649096
0 0.955094 1
1 0.205813 0
0 0.644908 1
0 0.705983 1
1 5.96046e-08 0
0 0.292182 1
0 0.427184 1
0 0.488007 1
0 0.621978 1
0 0.796168 1
0 0.796852 1
1 0.841436 0
0 0.624152 1
0 0.325989 1
1 0.950615 0
0.284719 1 0.715281
0 0.934793 1
0 0.732984 1
0.182449 1 0.817551
1 5.96046e-08 0
0 0.417491 1
0.172861 1 0.827139
0 0.448124 1
0 0.714584 1
0 0.275138 1
0.534962 1 0.465038
0 0.178401 1
1 0.954352 0
0.549392 1 0.450608
0 0.507854 1
0 0.771655 1
0 0.496044 1
0 0.708679 1
0.470761 1 0.529239
0 0.599101 1
0 0.481277 1
0 0.591212 1
0.555546 1 0.444454
0 0.837039 1
0 0.227891 1
0 0.703769 1
0 0.474247 1
0 0.808254 1
0.386348 1 0.613652
0 0.957211 1
0 0.386994 1
1 0.441009 0
0 0.840521 1
0 0.432891 1
0 0.752254 1
0 0.700892 1
0 0.795676 1
0 0.949397 1
0 0.679503 1
0 0.974679 1
0 0.832246 1
0 0.98576 1
0 0.303056 1
0.661588 1 0.338412
0 0.775099 1
0 0.313571 1
0 0.890778 1
0 0.381045 1
0 0.809146 1
0 0.509556 1
0 0.801961 1
0 0.655675 1
0 0.784745 1
0.702147 1 0.297853
0 0.557734 1
1 0.0160472 0
0 0.510943 1
0.91074 1 0.0892597
0 0.732537 1
0 0.801144 1
0 0.721632 1
0.185325 1 0.814675
0 0.595579 1
0.0578142 1 0.942186
0.740715 1 0.259285
0 0.547624 1
0 0.776441 1
0 0.59609 1
0 0.73027 1
1 0.883176 0
0.11412 1 0.88588
0 0.423763 1
0 0.512583 1
0 0.377796 1
1 0.519406 0
0 0.608584 1
0.343878 1 0.656122
0 0.984806 1
0 0.425283 1
0 0.726081 1
0 0.827043 1
1 5.96046e-08 0
0 0.859231 1
0.148827 1 0.851173
0 0.697775 1
0 0.769632 1
0 0.853574 1
0 0.618207 1
0 0.668303 1
0 0.451502 1
0 0.377061 1
0 0.816915 1
0 0.666908 1
0.0253675 1 0.974633
0.105769 1 0.894231
0.651403 1 0.348597
0 0.499504 1
0 0.642076 1
0 0.726779 1
0 0.448338 1
0.486206 1 0.513794
0 0.647381 1
0 0.632595 1
0 0.50925 1
0 0.387947 1
0 0.586354 1
0.0537442 1 0.946256
0 0.588234 1
0 0.79233 1
0.0616674 1 0.938333
0 0.894389 1
0 0.142626 1
0 0.56088 1
0 0.580162 1
0 0.716408 1
0.101438 1 0.898562
0 0.695636 1
0.100934 1 0.899066
0 0.635751 1
0 0.835724 1
0.351701 1 0.648299
0.0428029 1 0.957197
0 0.943241 1
0 0.618481 1
0 0.689872 1
0.0215862 1 0.978414
0 0.384644 1
0 0.832247 1
0 0.65432 1
0 0.70626 1
0.3415 1 0.6585
0 0.551586 1
0 0.539888 1
0.0839698 1 0.91603
0 0.745945 1
0 0.502072 1
0 0.265961 1
0 0.702942 1
0 0.815018 1
0 0.709287 1
0 0.711513 1
0 0.72038 1
0 0.417623 1
0 0.198568 1
0.418164 1 0.581836
0 0.572246 1
0 0.245588 1
0 0.365675 1
0 0.216908 1
0 0.799991 1
0 0.430464 1
0 0.698511 1
0 0.494915 1
0 0.466029 1
0 0.562886 1
0 0.517992 1
0 0.471223 1
0 0.223339 1
0 0.202553 1
0 0.693746 1
0 0.573086 1
0 0.647712 1
0 0.451599 1
0 0.13779 1
0 0.79867 1
0.0810472 1 0.918953
0 0.710478 1
0 0.513466 1
0 0.282345 1
0 0.872688 1
0 0.641137 1
0 0.395918 1
0 0.758809 1
0 0.627431 1
0.127002 1 0.872998
0 0.939696 1
0 0.489753 1
0 0.422482 1
0 0.255051 1
0 0.584508 1
1 5.96046e-08 0
0 0.536527 1
0 0.844785 1
0 0.341503 1
0 0.887367 1
0 0.434796 1
0.119512 1 0.880488
0 0.537915 1
0 0.250991 1
0 0.257578 1
0 0.275134 1
0 0.434091 1
