# vtk DataFile Version 3.0
Particle simulation
ASCII
DATASET POLYDATA
POINTS 400 float
1.70754 3.34239 3.63355
7.7671 10 4.24439
1.74128 4.71023 0.59693
5.58729 4.56667 5.118
9.70116 1.06852 7.19384
0.568594 4.77112 1.69177
6.40255 2.56406 6.72178
4.98114 6.50336 9.28806
7.88501 0.117086 6.25164
6.9456 9.33721 2.33252
6.391 5.04152 5.65929
5.83036 0 7.57264
9.74698 6.23414 4.50441
8.45518 4.54371 2.98489
4.85244 3.13807 5.69304
4.94999 1.51466 1.27951
1.76063 9.39239 6.22815
4.53457 0.433543 3.63887
4.93028 8.09207 9.88396
9.71055 5.82491 2.42828
3.00268 0.125506 1.27205
7.25075 6.7846 0.670246
5.89027 1.69471 0.0766668
0.0312746 0.38381 0.660773
3.70233 6.37454 6.84058
4.39892 9.47525 3.31983
5.98789 1.56913 6.52805
9.16919 9.53349 5.27425
0.532597 3.60085 6.80502
0.858757 2.21474 7.73228
8.47518 7.6382 8.27875
7.01062 1.35519 1.55547
5.71118 9.22607 6.36408
3.11057 7.64107 9.72783
9.82561 6.22216 7.51128
5.35386 7.60826 3.16653
1.25985 3.02006 8.19178
6.89022 0.332482 1.66394
6.49083 0.400848 2.28062
6.06145 7.6591 5.59437
6.44307 2.37078 9.79182
8.75484 8.0952 6.12974
5.19939 1.63284 2.33859
7.89937 1.34228 0
2.62834 9.68404 9.37832
8.44997 0.399064 9.83303
8.3009 0.756006 3.232
0.474316 0.00114992 9.0482
8.13457 5.86919 0.792774
8.24707 2.31855 8.72271
0.470402 5.01223 6.31154
3.37382 4.67087 1.72622
4.74957 7.8515 4.21908
8.11152 5.21635 5.12801
6.34 2.22982 3.66432
0.801182 3.87526 2.27672
6.98258 2.97873 9.48111
0.131132 2.00984 9.43916
5.10929 3.49307 2.85001
4.81577 10 6.70132
4.65999 4.9915 8.18123
8.26637 2.65824 0.732421
1.54488 6.25949 9.16351
5.36348 3.95805 9.32499
5.22339 3.49509 5.62741
8.19326 4.56345 3.82946
6.92142 1.13859 2.05215
1.64717 2.76924 6.99543
1.4774 1.30662 6.64838
0.484079 4.45615 0.245347
8.39914 4.49573 4.62343
5.55818 8.99253 4.82497
8.10389 2.4886 6.74467
3.17585 5.3814 6.68813
7.97806 6.41564 1.60862
9.51943 0.357996 10
5.5511 0.82413 1.55331
4.89326 7.24077 3.60479
0.846012 0.546042 9.68386
0.303663 4.76831 0.755082
2.72007 1.17316 8.13851
8.34199 0.878547 8.9466
7.53189 9.7337 3.43723
6.21604 3.73267 2.91251
9.16936 3.12099 9.50506
9.29003 7.44371 5.40518
0.827688 8.81553 8.31559
2.94779 0.823453 7.35095
1.48366 6.0521 6.58449
6.31456 10 8.40371
5.26815 0 3.96241
9.77748 9.35175 3.95474
0.414739 2.43847 8.29126
1.12268 6.80433 4.22508
7.37407 9.66322 2.86917
1.90597 4.03584 4.14247
5.38772 4.52041 7.69882
2.23055 0.630575 3.81809
0.874104 6.27866 7.40542
10 0.690615 3.4152
4.41453 4.70529 3.0646
2.29498 2.81559 3.53579
0.785029 9.57473 4.96663
4.68861 0.616013 5.45572
7.86022 0 1.04545
3.55087 5.71035 4.1959
0 8.2624 3.26856
0.89333 3.47085 2.09826
9.23309 1.16635 7.56726
1.07001 5.57611 7.73312
1.23403 5.11966 9.41511
8.86236 2.33222 5.08174
6.2299 6.13553 3.81827
3.0184 0.347495 6.39989
2.67932 1.63528 4.26214
9.38454 1.50651 0.526999
7.44801 7.5046 7.47927
4.42052 8.24904 4.17368
0.0722047 2.10168 10
2.0663 8.02583 0.620169
6.26791 9.06936 1.26307
5.4392 4.17512 0.0117178
1.66329 9.12437 9.96006
9.70774 7.93767 5.07089
9.39935 2.00217 3.63166
4.60518 2.10542 9.66908
3.59273 3.85367 3.99308
9.17403 9.70451 4.82786
8.49827 4.14167 9.61342
1.0478 9.41169 5.63453
9.09091 6.09281 0.238752
2.54182 1.74073 8.24122
1.1188 1.33159 9.46819
0.456596 8.55038 2.25731
0.795235 7.87501 8.5883
1.43565 7.53789 2.57573
8.27323 2.5782 7.34141
7.67887 7.93996 7.67632
8.13239 6.68638 7.90425
9.91348 4.80597 1.54024
4.57138 0.317865 3.66575
9.38443 4.92491 3.16732
6.85657 8.79558 3.91794
8.54542 5.40316 5.088
4.37791 8.95565 7.50565
9.91004 1.71135 2.5401
10 6.82503 1.2852
2.09578 0.885543 0
3.9341 8.71517 2.30788
7.01886 0.412793 4.92999
4.39633 0.34427 3.14679
7.07133 2.85999 3.64644
9.8569 2.09005 1.55721
3.77194 0.887808 5.97773
1.78137 9.7856 2.57121
5.9812 5.88827 8.99415
8.71498 7.02781 6.39934
8.38874 6.62704 8.69347
4.73242 7.7161 0
8.75365 4.33782 2.67399
8.84701 9.02485 0.3181
6.44091 3.45935 2.81786
2.90765 4.43178 5.43613
9.71114 7.89604 6.52491
3.09672 6.1999 4.2462
4.22058 3.95646 1.83808
8.75182 1.7458 0.913373
6.04366 9.34662 9.54619
5.9134 6.0072 4.89721
2.08855 9.95317 5.76035
6.12011 0.0443074 3.06017
7.82474 0.725121 0.673831
2.69407 7.10631 6.37589
5.06906 0.653884 7.72864
2.58395 9.04071 8.22416
0.477277 2.15648 0.698933
3.91647 9.18356 8.21185
7.2866 7.69511 8.3497
0.00565648 5.9293 3.57248
1.01087 1.9654 9.36689
3.44914 0.945785 3.82884
8.07316 4.81471 6.49313
0.683769 7.90168 2.23032
0.499832 1.90059 7.66619
6.9528 3.37563 7.98228
8.61065 9.68047 1.76352
4.29085 0.350048 3.21647
8.65061 7.18369 9.11094
2.31551 1.56291 4.07363
2.10903 0.300121 4.97939
4.81038 0.148702 4.98404
4.53828 0.39521 4.46135
4.80182 8.83019 2.29262
6.95896 6.42771 3.4534
1.04066 3.20334 0.62706
1.78969 10 2.09209
6.7481 0.668776 3.65343
8.76201 2.13033 2.21536
9.08138 1.59443 4.08261
3.91977 0.50512 3.00015
4.33188 0.484584 3.0031
0.933436 8.94918 7.96376
2.14733 6.56292 1.53134
5.03555 0 2.73175
2.84076 3.32483 2.93791
3.84426 9.45654 4.49462
2.07518 2.66993 4.54527
0.955436 3.43994 5.23605
0.232094 4.38015 4.04983
8.37291 3.5936 0.550742
4.56534 0.357789 3.16232
4.41183 0.42025 3.29088
0.6635 5.09132 2.57675
4.72294 6.62387 6.75155
0.66974 8.95502 7.69197
1.98959 6.67349 1.57338
4.2207 0.564691 3.21663
8.94019 4.30424 5.95062
9.25818 6.55343 8.15512
0.569281 3.6303 0.356253
7.98114 6.75063 7.92999
0.0486876 9.7763 6.17654
1.0097 6.91625 3.83466
4.03967 0.388369 2.82416
3.30154 4.35914 0.410315
9.40877 8.93653 9.79094
5.96667 5.44655 6.12226
5.2432 0.32536 3.82018
4.65569 0.49211 3.52478
3.79457 2.29197 9.82512
2.04075 5.60152 9.01975
8.32428 8.19164 1.78675
5.02975 0.726013 5.96538
4.61385 0.251705 3.05498
1.4594 0.351562 8.13747
2.73413 6.04959 7.36737
4.5294 0.47306 8.69791
5.97846 9.01184 9.26071
4.15917 0.305363 3.34806
5.55898 0.555809 0.381679
4.41998 0.431095 3.01126
6.31033 0.228756 1.91911
3.66936 1.92184 5.58305
6.57295 1.85893 2.4305
5.64224 3.94477 1.08398
6.28344 3.52304 4.05854
3.22899 7.6043 1.74412
1.01544 7.23644 3.87187
8.45511 8.85459 8.69437
2.60877 3.93398 2.7955
4.3561 0.459443 2.73289
1.57823 2.42802 9.26175
9.17693 5.78319 8.38349
5.24434 3.90162 5.0218
2.2463 0.0422814 4.55703
1.38947 4.2388 0.0901728
1.1381 1.53904 1.87636
1.5209 0.261159 7.7867
2.14148 8.0062 1.42702
2.44555 0.0394212 6.75641
10 8.68467 6.97385
2.79385 6.8803 7.8652
0.803633 5.76537 1.93195
7.92295 1.36891 9.53404
0 2.14945 1.56065
4.39185 1.29721 4.34069
1.24844 6.56968 2.1739
1.69855 0.23767 7.63664
3.09753 0.145535 3.2102
8.50596 5.92779 2.01421
4.35242 0.401792 3.76683
2.61153 6.42692 1.00422
0.284552 5.54657 3.71335
8.63717 2.25554 2.61679
1.08063 3.12655 7.52516
4.53435 1.30084 10
1.94113 7.77118 5.55848
10 0.737357 5.02084
5.56704 2.02966 2.9288
4.52525 0.327807 3.46848
3.06463 9.7735 0.653457
9.35361 0.899933 1.80457
0.112974 3.6657 4.11113
3.21187 4.74865 5.61992
5.1638 7.94046 6.14065
7.31045 2.86019 3.13366
4.18946 0.425938 3.5582
6.77832 8.91202 3.51789
4.93204 2.53617 1.56146
8.93735 4.57441 2.41933
4.74274 7.74483 8.85033
0.723343 7.4899 2.85688
1.02274 4.32103 6.2731
6.99722 0.452565 1.36702
6.07248 7.9079 3.00601
1.49428 0.305494 7.91448
4.43043 0.16635 3.54715
4.44049 0.301885 3.43291
4.04641 0.164025 3.12238
4.64009 0.29532 3.27561
2.28482 9.21932 7.52454
9.43515 3.81133 0.464553
4.91871 0.463363 3.74243
3.16498 5.85614 8.04847
4.43521 0.684173 3.53929
2.56615 8.30505 2.8839
4.60215 0.00374705 3.63417
4.2541 0.29852 3.19706
4.46557 8.34249 1.73072
7.3571 5.34904 7.95197
8.648 8.35248 3.60904
1.00704 1.4502 1.89408
10 5.8448 1.28869
4.20329 0.141891 3.77685
8.75796 4.73315 9.67731
5.645 9.20256 5.35185
7.5995 3.81682 2.62006
1.6992 3.37828 8.78753
9.24478 8.73488 7.42104
3.94133 2.33169 0.215461
1.56007 0.0249245 8.01223
3.2636 4.77693 5.47643
1.3739 0.0990269 7.80438
4.53973 0.394836 3.75864
5.58321 0.707589 3.42748
0.726808 9.07437 3.6336
4.32936 0.670941 3.1646
2.33497 0.471118 0.908884
6.21048 5.63048 6.14328
4.66114 0.238249 3.36981
2.04985 0.906501 7.13226
1.2471 0.608751 3.64376
7.74701 3.86882 8.15481
2.69898 5.30195 3.09423
9.49412 0.794499 1.94053
0 7.73388 2.87459
3.85296 6.91034 6.2875
4.69211 0.474643 3.72622
7.52521 5.71433 1.75531
7.40975 4.90864 3.53677
5.53455 7.6238 5.40306
7.95016 7.78903 9.71602
1.73766 3.265 6.9331
1.66467 0.221188 8.12019
4.43045 0.597144 3.42174
4.97251 0.409787 4.35069
9.83225 0.477512 1.56422
4.6783 0.376123 3.2006
4.29315 0.473641 3.02442
9.13448 1.69649 1.14272
4.91726 0.212005 3.4194
4.47167 0.399677 3.44959
2.27778 0.716158 7.0184
3.67671 4.41488 3.74095
2.42734 1.6762 4.40806
4.58416 0.480631 3.47821
9.76597 1.9851 8.18296
9.7378 10 2.24023
3.95698 0.35131 3.33816
4.27047 0.489716 3.32516
9.73319 0.446528 1.19636
1.76294 0.301404 8.01193
1.51217 0.29452 7.90018
4.34912 0.887525 2.7436
4.60325 0.276502 3.16449
9.44641 0.20718 1.51092
2.26038 0 8.00633
1.76825 7.94581 6.12043
1.64097 0.343774 8.07314
2.13104 2.74523 2.88666
9.39462 0.46684 2.23489
0.870864 7.42215 2.1658
9.25185 7.74435 3.83112
5.05604 0.598522 3.34382
4.21876 0.455124 3.57027
9.21488 0.912953 1.77669
1.55998 0.553058 8.17228
1.41854 0.125351 8.4664
0.693777 3.50276 9.27519
5.07788 0.225818 3.64192
4.52629 0.592141 3.11336
4.36047 0.442037 3.19388
0.809268 4.57996 8.60261
4.37981 0.565412 3.67433
8.7485 6.58361 9.00239
1.66702 0.426881 7.85105
4.64997 0.126897 3.38557
4.18076 0.387328 3.30207
1.36596 9.99344 6.87497
7.48584 0.16745 7.65834
4.8699 0.850773 3.52956
4.68695 0.413604 3.51725
1.92707 0.325306 7.79458
4.43385 0.57766 3.21387
5.85728 8.27381 8.58926
1.53844 0.186396 8.04698
4.76108 0.0565544 3.4594
6.24992 4.55547 2.76297
0.901983 4.43282 0.676198
9.913 1.03539 1.48082
POINT_DATA 400
SCALARS particleColor float 3
LOOKUP_TABLE default
1 5.96046e-08 0
1 5.96046e-08 0
1 0.475766 0
1 5.96046e-08 0
0.576643 1 0.423357
1 5.96046e-08 0
0.235132 1 0.764868
1 0.0283565 0
1 5.96046e-08 0
1 5.96046e-08 0
1 5.96046e-08 0
1 5.96046e-08 0
1 0.165464 0
0.453712 1 0.546288
1 5.96046e-08 0
1 5.96046e-08 0
1 5.96046e-08 0
0 0.567001 1
0.246257 1 0.753743
1 5.96046e-08 0
0 0.708005 1
1 5.96046e-08 0
1 0.341503 0
0.552382 1 0.447618
1 0.625613 0
1 5.96046e-08 0
1 0.542013 0
0.542582 1 0.457418
1 5.96046e-08 0
0.343859 1 0.656141
1 5.96046e-08 0
0 0.55928 1
1 0.993511 0
1 0.603238 0
0.327219 1 0.672781
1 0.924411 0
0.292082 1 0.707918
0 0.850832 1
1 5.96046e-08 0
0.718554 1 0.281446
0.853337 1 0.146663
0.915848 1 0.084152
0 0.54882 1
1 5.96046e-08 0
0 0.725738 1
1 0.00796276 0
0.470905 1 0.529095
1 5.96046e-08 0
1 0.184902 0
1 0.726686 0
1 0.0845706 0
0.238858 1 0.761142
1 0.0414085 0
1 5.96046e-08 0
1 5.96046e-08 0
0.066811 1 0.933189
1 0.44083 0
0.0733709 1 0.926629
1 5.96046e-08 0
0.874853 1 0.125147
0.934737 1 0.0652626
1 0.836115 0
0 0.795437 1
1 0.430767 0
0.519918 1 0.480082
1 5.96046e-08 0
1 0.35808 0
0.361174 1 0.638826
1 0.532584 0
0.557816 1 0.442184
1 5.96046e-08 0
0.343763 1 0.656237
1 5.96046e-08 0
1 5.96046e-08 0
1 5.96046e-08 0
1 0.580934 0
1 5.96046e-08 0
1 5.96046e-08 0
0 0.871559 1
1 5.96046e-08 0
1 5.96046e-08 0
1 0.291585 0
1 0.675235 0
1 5.96046e-08 0
1 5.96046e-08 0
0.458128 1 0.541872
0.522441 1 0.477559
0.303 1 0.697
0.211494 1 0.788506
1 5.96046e-08 0
0 0.339715 1
0.0979959 1 0.902004
1 5.96046e-08 0
1 0.0867553 0
1 5.96046e-08 0
0.507395 1 0.492605
1 0.231261 0
0.638644 1 0.361356
0.160838 1 0.839162
1 5.96046e-08 0
1 5.96046e-08 0
1 5.96046e-08 0
1 5.96046e-08 0
1 0.481754 0
1 5.96046e-08 0
0.301588 1 0.698412
1 5.96046e-08 0
0.260261 1 0.739739
1 5.96046e-08 0
1 5.96046e-08 0
0.91153 1 0.0884701
0.678381 1 0.321619
1 0.928658 0
1 5.96046e-08 0
0.0453184 1 0.954682
1 0.991034 0
1 5.96046e-08 0
0.99546 1 0.00454044
0 0.828205 1
1 0.606044 0
1 0.149657 0
1 5.96046e-08 0
1 5.96046e-08 0
1 0.601097 0
0 0.662329 1
0.810461 1 0.189539
0.0712021 1 0.928798
0.824079 1 0.175921
0.193551 1 0.806449
1 5.96046e-08 0
1 5.96046e-08 0
1 5.96046e-08 0
1 5.96046e-08 0
0.0794558 1 0.920544
1 5.96046e-08 0
1 5.96046e-08 0
1 5.96046e-08 0
1 5.96046e-08 0
1 5.96046e-08 0
0 0.645951 1
0 0.367303 1
1 5.96046e-08 0
1 0.340949 0
1 5.96046e-08 0
1 0.613845 0
1 5.96046e-08 0
0.689557 1 0.310443
1 0.888139 0
1 0.627794 0
0.485565 1 0.514435
0 0.341556 1
0.718639 1 0.281361
0.897604 1 0.102396
0 0.782348 1
1 5.96046e-08 0
0.519561 1 0.480439
0 0.842186 1
0.28811 1 0.71189
0.432619 1 0.567381
1 0.219303 0
1 5.96046e-08 0
0 0.594661 1
1 5.96046e-08 0
1 5.96046e-08 0
1 5.96046e-08 0
1 0.290488 0
1 0.40374 0
1 0.491271 0
1 5.96046e-08 0
1 5.96046e-08 0
0.327663 1 0.672337
1 5.96046e-08 0
1 0.467518 0
0.434279 1 0.565721
1 5.96046e-08 0
1 5.96046e-08 0
1 5.96046e-08 0
1 5.96046e-08 0
1 5.96046e-08 0
1 0.941801 0
0 0.570546 1
1 0.889896 0
0.355821 1 0.644179
1 5.96046e-08 0
0.6166 1 0.3834
1 5.96046e-08 0
0 0.411223 1
0.80895 1 0.19105
0 0.743376 1
0.911819 1 0.0881805
0.128998 1 0.871002
0 0.31662 1
0.782131 1 0.217869
1 5.96046e-08 0
1 0.547211 0
1 5.96046e-08 0
0.104364 1 0.895636
1 0.429901 0
1 5.96046e-08 0
0 0.404403 1
0 0.261828 1
1 0.365116 0
1 0.514178 0
1 5.96046e-08 0
1 0.919151 0
1 5.96046e-08 0
1 0.247935 0
0.286858 1 0.713142
1 0.896896 0
1 0.721174 0
0 0.464766 1
0 0.862438 1
0 0.96325 1
0.951745 1 0.0482548
1 5.96046e-08 0
1 5.96046e-08 0
0 0.770291 1
0 0.476435 1
1 5.96046e-08 0
1 0.532878 0
0.728017 1 0.271983
1 5.96046e-08 0
1 5.96046e-08 0
0 0.609422 1
1 5.96046e-08 0
1 0.492022 0
0.269433 1 0.730567
0 0.89949 1
0 0.212652 1
1 5.96046e-08 0
0.119978 1 0.880022
0.463437 1 0.536563
1 0.397536 0
0 0.457128 1
0 0.427085 1
1 5.96046e-08 0
1 5.96046e-08 0
1 0.423162 0
0 0.160924 1
1 5.96046e-08 0
0 0.82034 1
0 0.909132 1
0 0.474934 1
0.42289 1 0.57711
0.423887 1 0.576113
0.890595 1 0.109405
1 5.96046e-08 0
1 5.96046e-08 0
0.182601 1 0.817399
0 0.502525 1
0 0.446195 1
1 0.759693 0
1 0.839759 0
1 5.96046e-08 0
1 5.96046e-08 0
0.617274 1 0.382726
1 0.443737 0
0 0.421898 1
1 0.35163 0
0 0.808282 1
1 5.96046e-08 0
0.291495 1 0.708505
1 0.987425 0
1 5.96046e-08 0
1 5.96046e-08 0
1 5.96046e-08 0
0.741934 1 0.258066
0.0224041 1 0.977596
1 0.374624 0
0.518981 1 0.481019
0 0.534572 1
0.347425 1 0.652575
0.865984 1 0.134016
0.708552 1 0.291448
1 5.96046e-08 0
1 0.789846 0
1 0.429067 0
1 5.96046e-08 0
1 0.964995 0
0 0.660887 1
1 0.414715 0
0.00903733 1 0.990963
0.63103 1 0.36897
1 5.96046e-08 0
1 5.96046e-08 0
1 5.96046e-08 0
0 0.487183 1
1 0.484479 0
0.518079 1 0.481921
1 0.75717 0
1 0.000566661 0
1 5.96046e-08 0
1 5.96046e-08 0
1 5.96046e-08 0
1 0.492649 0
0 0.407584 1
0 0.685404 1
0 0.559315 1
0.507487 1 0.492513
0 0.468607 1
1 5.96046e-08 0
1 5.96046e-08 0
0 0.697912 1
1 0.304916 0
0.021203 1 0.978797
1 5.96046e-08 0
0 0.5247 1
0 0.110064 1
0.936958 1 0.063042
0 0.854334 1
1 0.524675 0
1 5.96046e-08 0
0.739764 1 0.260236
0 0.479635 1
1 0.541419 0
1 0.665138 0
0.293229 1 0.706771
0.208813 1 0.791187
1 5.96046e-08 0
0.998938 1 0.00106168
0 0.488185 1
1 5.96046e-08 0
0 0.75596 1
0 0.61729 1
0 0.740812 1
1 5.96046e-08 0
0 0.663913 1
0.543924 1 0.456076
1 0.709745 0
0 0.302455 1
0.238369 1 0.761631
1 5.96046e-08 0
1 5.96046e-08 0
0 0.922596 1
0 0.185993 1
1 5.96046e-08 0
0.80536 1 0.19464
0 0.200775 1
1 5.96046e-08 0
1 0.0854223 0
1 0.81957 0
1 0.277386 0
0.0781862 1 0.921814
0 0.464155 1
0.0762298 1 0.92377
0 0.372573 1
0 0.605771 1
0 0.901995 1
0.323213 1 0.676787
1 0.467195 0
0 0.473653 1
0 0.705382 1
1 0.64201 0
1 5.96046e-08 0
0.0524378 1 0.947562
0.16051 1 0.83949
0.189223 1 0.810777
1 0.84044 0
0 0.716172 1
0 0.817103 1
0 0.697898 1
0 0.650876 1
0 0.575134 1
0 0.957627 1
0.201747 1 0.798253
0 0.696537 1
0 0.810851 1
0 0.770454 1
0 0.297104 1
0.84431 1 0.15569
0 0.73661 1
0.737913 1 0.262087
1 5.96046e-08 0
0 0.647008 1
0.272121 1 0.727879
0 0.330496 1
0 0.829731 1
0 0.818336 1
0 0.353334 1
0 0.203823 1
0 0.669913 1
0 0.771997 1
0 0.37297 1
0 0.445745 1
1 0.739898 0
0 0.742586 1
0 0.456775 1
0 0.559173 1
1 5.96046e-08 0
1 0.519279 0
0 0.599144 1
0 0.900931 1
0 0.905987 1
0 0.869952 1
1 0.0770354 0
0.00915491 1 0.990845
0 0.692066 1
0.867348 1 0.132652
1 0.210471 0
0 0.153121 1
