# vtk DataFile Version 3.0
Particle simulation
ASCII
DATASET POLYDATA
POINTS 400 float
1.32365 0.699207 1.00856
1.42554 0.815877 0.144463
1.38221 0.773074 3.81684
1.49055 0.54106 0.737017
5.42053 0.715104 5.3903
1.19472 4.46346 5.74562
7.21554 1.43718 1.8075
2.61384 2.96542 3.82232
5.41156 0.415758 0.302663
6.70424 1.25173 1.51228
1.27063 0.740438 0.956237
0.662427 0.629838 1.30999
1.42448 0.701464 3.93949
1.4025 0.581704 0.760736
5.36765 0.604145 5.40567
2.2797 4.16587 5.58185
2.66614 0.855275 2.64477
1.63555 0.100949 2.8188
5.97909 0.288485 0.72512
6.7685 1.21602 1.55377
3.38606 1.34842 2.24446
5.04416 0.859294 2.71967
1.08922 1.50038 4.68933
6.80396 1.08919 1.75969
3.82981 0.705515 3.11305
1.62265 0.684167 4.2148
5.48871 0.819847 5.77526
1.58212 0.302749 2.79313
4.08944 0.832795 1.35023
1.38479 0.65193 1.34168
5.75332 0.264549 0.883491
7.34978 0.996506 1.39598
5.01713 1.71327 5.95743
6.80307 1.11195 1.7666
1.14074 0.897378 3.046
1.65832 0.726003 4.21567
5.64194 0.777185 5.87498
1.59677 0.30437 2.65514
4.08789 0.966107 1.58399
0.736506 0.551066 0.973868
1.30488 0.880462 1.91359
3.60045 0.877766 0.458688
1.72335 0.447579 0.289818
7.11291 0.985106 1.8304
1.7599 0.771727 5.10751
4.26614 0.800038 1.78195
0.184717 0.890097 1.9024
1.78329 1.00477 3.16634
4.22563 0.998603 1.8519
4.40379 1.61005 5.35937
1.31519 0.9108 1.88987
3.59709 0.864703 0.493061
1.83011 0.617764 0.416867
7.09039 0.980318 1.8426
1.77787 0.798763 5.06684
4.23707 0.770538 1.72941
3.10687 0.551109 5.59714
1.76952 0.965297 2.98986
4.18514 1.00598 1.81445
4.80057 0.991315 6.26066
5.27554 0.571149 1.28825
1.10868 0.165127 1.49759
5.36896 0.241957 6.01338
6.8179 0.544766 0.376191
5.81746 0.569231 7.03735
5.39773 0.626022 6.03594
2.6194 0.842574 2.68905
1.60415 0.776752 3.44488
4.37113 0.944247 1.6811
2.32664 0.406438 3.82908
5.20996 0.610892 1.26801
1.59742 0.330464 1.60509
5.60017 0.914354 6.57845
6.76735 0.544434 0.378102
5.92356 0.699016 6.93718
5.09724 0.464334 6.01292
2.61259 0.851029 2.63926
2.48151 0.238047 6.00639
4.40227 0.958097 1.70903
2.33658 0.515925 3.84991
1.0303 0.474 0.84905
2.40475 0.559725 1.77043
2.24458 0.899056 0.41046
3.138 0.821775 2.17738
4.6567 0.539598 5.47721
3.01896 0.458258 5.19325
4.22859 1.12907 6.28373
1.299 0.426301 2.53033
0.471102 0.700571 4.39289
5.43631 0.445191 0.709494
1.36 0.41413 1.10147
2.60578 0.869298 1.76888
3.9492 1.00356 0.609799
3.14485 0.826571 2.14419
4.66361 0.580997 5.46467
3.01174 0.479147 5.23314
3.20197 0.41427 5.55587
1.57163 0.37603 2.57367
0.730368 0.515278 4.16491
5.4194 0.486158 0.743148
2.41627 1.09683 2.44707
6.72528 0.264185 0.491402
1.61723 0.246732 3.03631
6.7824 0.157233 0.742348
4.6262 1.08577 2.10397
1.7475 0.292113 2.7183
3.05294 0.396154 5.38455
2.90127 0.891943 2.32634
4.26319 0.94843 1.85288
5.27267 0.648586 0.783095
2.49191 0.831766 1.65039
6.80835 0.465947 0.526729
1.80456 0.746817 1.58557
5.41312 0.415321 1.2609
1.23443 0.684845 2.90475
1.79308 0.329223 2.77173
3.05094 0.395795 5.53123
3.61292 1.08041 2.23551
4.2253 1.02042 1.85591
1.4387 0.344456 1.44597
2.80469 0.79462 2.0447
4.18979 0.641763 1.41879
4.80798 0.659849 6.45621
3.55012 0.351055 3.31859
2.63523 0.616456 5.8603
1.87889 0.520119 1.41866
1.05121 0.640121 2.22537
6.96694 0.846885 1.77826
3.80554 0.555064 5.78198
2.17903 0.337828 1.33132
2.80156 0.812281 2.05189
4.07818 0.887033 1.70599
5.78006 0.831301 6.84663
3.67185 0.307045 3.31067
2.79218 0.627813 5.66701
3.26143 0.606652 2.77989
2.78305 0.845858 4.00385
6.94208 0.839677 1.76945
2.99686 0.855902 5.61479
0.743577 0.307994 0.529219
1.3826 0.449334 1.1635
2.53643 0.759389 1.61675
2.39767 0.80922 0.165779
2.67404 0.841531 1.81476
2.1999 0.86416 0.0540844
1.5856 0.420648 3.26873
5.32422 0.817966 6.72732
1.06217 0.18853 2.54719
1.76573 0.397943 2.46132
1.89985 0.573879 4.4065
1.38469 0.455465 1.17117
2.5076 0.833831 1.65364
2.32448 0.716381 0.213338
3.23591 0.913142 2.14351
2.45253 0.818739 0.0685338
1.50416 0.20072 3.20595
5.35435 0.768872 6.69357
1.52185 0.488532 2.83079
2.38034 0.681321 1.8807
1.54496 0.0404734 3.14663
1.43836 0.371975 3.36214
4.25408 0.506487 3.64737
4.52667 0.43245 5.742
1.02383 0.275416 3.35296
1.39932 0.765863 1.77999
3.51464 0.481256 2.22645
2.66713 0.34878 5.49949
3.05886 0.441999 5.46817
2.3408 0.696916 5.54699
2.33239 0.537086 1.55702
1.37454 0.347288 3.31226
1.90765 1.20138 1.18399
4.58068 0.404451 5.78164
2.6002 0.826994 1.62773
1.35629 0.78388 1.82959
3.65315 0.387621 1.81684
2.76982 0.53546 5.41329
2.85955 0.390049 5.52083
2.43927 0.533148 5.56202
2.28661 0.548359 1.564
2.19029 1.24825 1.47933
0.611896 0.693494 1.29908
5.76284 0.915139 5.77932
0.345369 0.807822 1.77851
3.11294 0.947905 5.78682
2.10839 0.397029 2.63409
1.83815 0.241753 2.52287
4.12847 0.398402 2.9509
0.878934 0.31498 0.84298
2.07273 0.951617 1.42728
2.19304 1.25267 1.49925
1.78853 0.756791 0.967123
4.77994 0.499129 5.91966
0.287687 0.70442 1.72499
3.28253 0.681268 5.56235
1.71961 0.516029 2.6352
1.83915 0.284932 2.53306
6.06356 0.668189 0.529467
1.01392 0.371893 0.797465
1.95482 0.971479 1.49882
1.21242 0.919902 0.890935
2.26317 0.93522 1.86873
3.55822 0.932388 5.34984
2.61558 0.808314 1.56662
4.52117 0.332137 5.41424
2.68133 0.282258 5.77569
1.17876 0.2926 2.46572
1.76931 0.824337 2.94218
2.72675 0.900823 2.11526
5.57419 0.521408 0.617844
1.35987 0.591537 1.02952
2.9911 1.17525 2.30133
4.29948 1.17427 6.33101
2.58145 0.812917 1.68431
4.49803 0.333218 5.43204
2.71099 0.263958 5.81301
1.17915 0.298384 2.48597
1.96497 0.915219 2.85148
2.96026 0.809141 1.64879
5.76474 0.489725 0.652745
7.07456 1.13724 1.59175
3.9834 0.278449 5.58434
4.80908 0.840557 5.42362
1.55821 0.800625 1.68261
4.68863 0.461269 5.7214
2.01271 0.296858 2.85582
5.02427 1.15025 4.94746
1.32326 0.480241 2.32211
1.48083 0.751922 3.62281
0.372221 0.515267 1.27138
7.01044 1.11996 1.61957
3.76291 0.43824 5.46898
4.78791 0.824087 5.42814
1.55867 0.824891 1.69176
4.62547 0.471908 5.68051
2.09191 0.314728 2.87156
4.70427 0.818457 5.47858
1.5011 0.635976 3.02862
1.59031 1.15614 0.24556
0.504471 0.622606 1.13006
1.26903 0.69231 0.677982
0.31964 0.733139 1.06379
1.47618 0.477021 2.86557
3.58143 0.74258 1.86654
2.95781 0.72365 5.66827
3.60379 1.15624 1.86219
1.00859 0.304848 2.44764
5.09391 0.488715 6.19346
4.15209 0.980239 2.033
2.99454 0.604191 5.16316
1.3143 0.688239 0.722384
1.19208 0.897309 2.67338
2.44902 1.03757 5.8336
3.54811 0.766341 1.82559
3.0222 0.460422 5.64207
1.22882 0.0734256 2.93017
6.48772 0.210034 0.547395
4.98546 0.80119 6.00585
4.14924 0.960505 2.0419
2.9468 0.601674 5.15793
0.90784 1.28508 2.06786
0.694132 1.01819 2.05819
0.882965 0.275291 1.37682
6.60039 1.22145 1.45824
4.57414 0.370865 5.27509
3.56514 0.43694 3.21569
6.69147 0.0341804 0.529734
2.59127 0.412458 5.21949
5.48334 1.07399 5.98346
1.84298 0.119152 2.80674
0.966251 1.26395 2.11352
0.723702 0.934546 2.12769
2.68748 1.28985 1.90834
6.96983 1.06996 1.55287
5.71346 1.10707 6.02924
2.58332 0.905364 5.90464
6.8549 0 0.758252
0.652459 0.96329 5.76927
5.44237 1.10067 6.02607
2.03948 0.0125154 2.69697
6.29087 0.353234 0.778006
4.37979 1.02115 1.75818
2.42889 0.805338 3.00879
6.77842 1.07638 1.4819
2.98707 0.904775 5.39674
5.51446 1.2942 5.9096
1.23176 0.323137 2.58314
1.03124 0.468898 2.7251
1.95238 1.18337 1.2617
0.993474 0.659475 3.98973
6.35801 0.355241 0.860335
4.38201 1.05201 1.79787
1.81283 0.706952 3.16313
6.8145 1.13976 1.51039
3.33019 0.385771 5.63721
3.98391 0.885332 5.5208
1.25626 0.395947 2.52254
2.50958 0.621369 2.78852
2.08761 1.14894 1.34839
3.78713 0.434957 2.14253
5.04706 0.579561 0.590997
1.72736 0.748901 0.81236
1.81281 0.571234 2.92864
4.10307 0.661342 2.05003
1.88037 0.424974 3.93777
3.56064 0.813849 0.614836
1.27532 0.470154 2.47084
1.34121 0.602858 0.974298
2.9528 0.961501 2.44906
1.13803 0.501379 0.984229
6.38224 0.665751 0.297205
1.72796 0.764276 0.834008
2.81777 1.11221 5.17245
2.57754 0.47589 1.97202
1.80823 0.416336 3.94649
6.71221 0.0677085 0.696127
1.30899 0.445357 2.48034
0.469725 0.38386 1.03043
2.56129 0.89475 2.3739
1.10412 0.413162 1.15481
2.40904 0.432703 1.59271
1.50065 0.572209 0.83915
3.19012 0.269538 5.88281
2.38673 0.797433 1.36398
5.23046 0.485112 0.917571
5.87455 0.327275 0.23809
1.48472 0.712735 2.88096
3.99472 0.892551 1.75374
5.73268 0.376524 0.704615
2.85164 0.594199 2.37474
2.44226 0.574184 1.5945
1.74827 0.722714 1.30499
3.14646 0.397127 5.91665
2.46383 0.695314 1.33717
5.0728 0.426541 0.854808
0.779001 0.599418 1.13923
1.54656 0.679384 2.78757
3.51914 0.734214 1.94601
5.66 0.262224 0.844152
2.74793 1.24186 2.01156
1.46799 0.931166 1.03653
1.29084 0.364302 1.03707
4.17144 0.814706 5.84391
1.9504 0.859156 1.41445
1.54575 0.615064 3.41615
1.53011 1.00591 3.0259
4.41693 0.98909 1.39106
1.0074 0.381648 2.58331
1.76211 0.693377 3.12269
4.71323 1.24326 1.64858
1.42489 0.981394 0.955028
1.32229 0.433926 1.06802
4.55874 0.458199 5.5959
1.95301 0.868812 1.40306
1.57266 0.630445 3.39693
1.57143 0.972783 2.90492
4.41666 1.01903 1.41295
2.85357 0.601121 5.24239
1.68292 0.692 3.05296
1.46325 0.916098 2.62021
4.45343 0.701004 1.29676
1.76315 0.430055 0.68138
4.38823 0.952015 5.95354
1.71779 0.210889 3.19001
2.59795 0.935409 2.10131
1.87191 0.808371 5.50235
2.83592 0.502021 5.56698
2.98442 0.627127 5.66871
2.81483 0.534233 5.79156
0.691585 0.847382 1.92862
4.46475 0.701332 1.28484
1.63191 0.418443 0.771055
4.16347 0.942708 6.00515
1.75879 0.224725 3.14815
2.75495 1.00881 3.03044
1.86254 0.770131 5.5045
2.82869 0.500106 5.56436
3.08966 0.632417 5.77334
2.77348 0.514047 5.55582
0.767459 0.716132 1.59906
1.05084 0.246665 0.94649
1.56808 0.263102 0.999906
2.02944 0.532842 5.20795
1.64415 0.674244 1.19091
6.44431 1.18378 1.60186
4.42091 0.98181 6.1331
4.71626 0.801301 1.62409
3.4822 0.802975 2.00171
7.16065 0.116311 0.792492
4.04221 1.10042 2.08011
1.07168 0.285461 0.946866
1.60807 0.305697 0.950051
2.06278 0.512067 5.22583
1.40322 0.825283 1.04714
6.46004 1.17192 1.61056
4.48855 0.885196 5.99061
4.69538 0.823638 1.63322
3.50391 0.869797 1.96743
5.53653 0.532785 0.831846
4.05673 1.1093 2.07184
POINT_DATA 400
SCALARS particleColor float 3
LOOKUP_TABLE default
0 0.392672 1
0 0.439817 1
0 0.848534 1
0 0.460577 1
0 0.648466 1
1 5.96046e-08 0
0 0.934246 1
0 0.385023 1
0 0.796576 1
0 0.860574 1
0 0.334241 1
0 0.432178 1
0 0.476499 1
0 0.451983 1
0 0.828025 1
0 0.616471 1
0.0567827 1 0.943217
0 0.27957 1
0 0.744728 1
0 0.844735 1
0 0.507608 1
0 0.324879 1
0 0.4369 1
0 0.909629 1
0 0.393548 1
0 0.334764 1
0 0.599718 1
0 0.438313 1
0 0.444777 1
0 0.486675 1
0 0.426441 1
0 0.839872 1
1 5.96046e-08 0
0.111193 1 0.888807
0 0.620265 1
0 0.339344 1
0 0.599511 1
0 0.353385 1
0 0.412179 1
0 0.451811 1
0 0.580747 1
0 0.532784 1
0.0184891 1 0.981511
0 0.630553 1
0 0.46139 1
0 0.723646 1
0.216386 1 0.783614
0 0.548866 1
0 0.921611 1
0 0.502625 1
0 0.508088 1
0 0.313721 1
0 0.972367 1
0 0.539977 1
0 0.473687 1
0 0.706018 1
0 0.895642 1
0 0.71544 1
0 0.844792 1
0 0.847719 1
0.00813829 1 0.991862
0 0.999095 1
0 0.892159 1
0 0.551848 1
0 0.785872 1
0 0.951982 1
0 0.110472 1
0 0.470403 1
0 0.616574 1
0 0.52581 1
0.065997 1 0.934003
0 0.701124 1
0 0.893583 1
0 0.315102 1
0 0.695855 1
0 0.699212 1
0 0.119789 1
0 0.716478 1
0 0.579964 1
0 0.361548 1
0 0.147028 1
0 0.706105 1
0 0.20615 1
0 0.755831 1
0 0.981509 1
0 0.362119 1
0 0.45442 1
0 0.549127 1
0 0.763437 1
0 0.401458 1
0 0.428578 1
0 0.581227 1
0 0.792597 1
0 0.675962 1
0 0.887528 1
0 0.342396 1
0 0.731282 1
0 0.612813 1
0 0.72373 1
0 0.420619 1
0 0.768139 1
0 0.742951 1
0 0.513901 1
0.0294217 1 0.970578
0.236784 1 0.763216
0 0.770156 1
0 0.960095 1
0 0.412972 1
0 0.640556 1
0 0.405129 1
0.0655633 1 0.934437
0 0.532717 1
0 0.405894 1
0 0.271514 1
0 0.752464 1
0 0.900283 1
0 0.7174 1
0 0.46074 1
0 0.508998 1
0 0.430734 1
0 0.602948 1
0 0.518578 1
0 0.590511 1
0 0.807852 1
0 0.586836 1
0 0.407508 1
0 0.6367 1
0 0.123116 1
0 0.897456 1
0 0.43806 1
0 0.598097 1
0 0.688079 1
0 0.666476 1
0 0.917656 1
0.205764 1 0.794236
0 0.285878 1
0.598 1 0.402
0 0.202404 1
0 0.446091 1
0 0.726097 1
0 0.23159 1
0 0.863518 1
0 0.799044 1
0 0.585469 1
0 0.507409 1
0 0.355051 1
0 0.431799 1
0 0.811419 1
0 0.498472 1
0 0.516354 1
0 0.230615 1
0.0194811 1 0.980519
0 0.836855 1
0 0.0731099 1
0 0.171074 1
0 0.440174 1
0 0.469846 1
0.0743326 1 0.925667
0 0.69684 1
0 0.349437 1
0 0.909309 1
0 0.48082 1
0 0.615351 1
0 0.379531 1
0 0.587856 1
0 0.247815 1
0 0.187624 1
0 0.596666 1
0 0.643514 1
0 0.589228 1
0 0.893413 1
0 0.442313 1
0 0.886979 1
0 0.681767 1
0 0.667477 1
0 0.3146 1
0 0.138472 1
0 0.624946 1
0 0.581809 1
0 0.51666 1
0 0.688878 1
0 0.376443 1
0 0.65091 1
0 0.643885 1
0 0.739831 1
0 0.741317 1
0 0.362485 1
0.0266589 1 0.973341
0 0.671827 1
0 0.564247 1
0 0.701787 1
0 0.276709 1
0 0.740314 1
0 0.679726 1
0 0.637047 1
0 0.616568 1
0 0.438489 1
0.296424 1 0.703576
0 0.651216 1
0 0.68563 1
0 0.65671 1
0 0.917453 1
0 0.176028 1
0 0.770106 1
0 0.843478 1
0 0.333005 1
0 0.74537 1
0 0.72395 1
0 0.928175 1
0 0.81268 1
0 0.653667 1
0 0.708247 1
0 0.126466 1
0.195348 1 0.804652
0 0.910196 1
0 0.263972 1
0 0.816404 1
0 0.41329 1
0 0.644223 1
0 0.65344 1
0 0.315998 1
0 0.615079 1
0 0.215781 1
0 0.273699 1
0 0.437072 1
0 0.763249 1
0 0.512286 1
0.0238019 1 0.976198
0 0.591211 1
0 0.775449 1
0 0.471126 1
0 0.289832 1
0 0.45794 1
0 0.28703 1
0 0.515264 1
0 0.857207 1
0 0.838329 1
0 0.588543 1
0 0.612 1
0 0.944142 1
0 0.31612 1
0 0.675522 1
0 0.887632 1
0 0.661424 1
0 0.716843 1
0 0.739053 1
0 0.268464 1
0 0.760756 1
0 0.700954 1
0 0.55957 1
0 0.366727 1
0.198253 1 0.801747
0 0.502373 1
0 0.536577 1
0 0.60889 1
0 0.989059 1
0 0.594688 1
0 0.545166 1
0 0.909086 1
0 0.542795 1
0 0.42947 1
0 0.530831 1
0.222421 1 0.777579
0.0193538 1 0.980646
0 0.981141 1
0 0.965209 1
0 0.93557 1
0 0.676089 1
0 0.318232 1
0 0.428768 1
0 0.28657 1
0 0.754607 1
0.14822 1 0.85178
0.103324 1 0.896676
0 0.818877 1
0 0.895376 1
0 0.560136 1
0 0.494892 1
0 0.366184 1
0 0.39502 1
0 0.396524 1
0 0.798912 1
0 0.696432 1
0 0.861497 1
0 0.954118 1
0.169188 1 0.830812
0 0.843221 1
0 0.293038 1
0 0.453234 1
0 0.710338 1
0 0.514891 1
0 0.7342 1
0 0.477131 1
0 0.873977 1
0 0.863466 1
0 0.889085 1
0 0.601391 1
0 0.68291 1
0 0.737178 1
0 0.326921 1
0 0.666456 1
0 0.961203 1
0 0.748082 1
0.358407 1 0.641593
0 0.520329 1
0 0.995818 1
0 0.96711 1
0 0.756281 1
0 0.307707 1
0 0.750244 1
0 0.813963 1
0 0.901454 1
0.16491 1 0.83509
0 0.347847 1
0 0.836733 1
0.268557 1 0.731443
0 0.751696 1
0 0.606618 1
0 0.599479 1
0 0.693958 1
0 0.419321 1
0.186973 1 0.813027
0 0.920458 1
0 0.621427 1
0 0.426744 1
0 0.824639 1
0.0913432 1 0.908657
0 0.64885 1
0 0.635274 1
0 0.787713 1
0 0.49823 1
0 0.369894 1
0 0.967526 1
0 0.694845 1
0 0.369998 1
0 0.8927 1
0.253047 1 0.746953
0 0.666849 1
0 0.61749 1
0 0.372148 1
0 0.96066 1
0 0.417073 1
0 0.499187 1
0 0.572061 1
0 0.841162 1
0 0.373315 1
0 0.392355 1
0 0.706671 1
0 0.675255 1
0 0.872642 1
0 0.432825 1
0 0.188635 1
0 0.676774 1
0 0.610358 1
0.0499928 1 0.950007
0 0.649007 1
0 0.228925 1
0.0674618 1 0.932538
0 0.79847 1
0 0.303415 1
0 0.303752 1
0.145751 1 0.854249
0 0.621622 1
0 0.96076 1
0 0.473894 1
0 0.187453 1
0 0.542352 1
0 0.659797 1
0 0.592996 1
0.0681053 1 0.931895
0 0.312878 1
0.276306 1 0.723694
0 0.372304 1
0 0.926061 1
0 0.937459 1
0 0.332439 1
0 0.68179 1
0.188027 1 0.811973
0 0.662538 1
0 0.609574 1
0 0.678703 1
0 0.598275 1
0 0.481486 1
0 0.705483 1
0 0.430701 1
0 0.626894 1
0 0.458344 1
0 0.597797 1
0.205319 1 0.794681
0 0.335501 1
0 0.791849 1
0 0.558825 1
0 0.762138 1
0 0.472394 1
0 0.427243 1
0 0.858846 1
0 0.446329 1
0 0.656023 1
0 0.595127 1
0 0.388961 1
