# vtk DataFile Version 3.0
Particle simulation
ASCII
DATASET POLYDATA
POINTS 400 float
6.50945 0.595967 8.06287
0 3.58884 9.47483
9.18212 5.16939 8.44786
8.15237 5.8436 1.42899
5.79247 9.06057 2.07342
0 0.907611 3.60796
8.10763 2.2297 6.41743
4.10699 0 7.66955
7.76138 3.11503 9.88051
1.94291 0.00680445 6.16241
2.68051 1.42663 6.06925
5.65167 6.54655 9.31209
7.71739 9.51737 6.30762
6.74528 8.69684 8.95786
2.70083 10 8.75942
2.00285 7.61732 9.45302
0.222537 0.544903 5.97127
6.228 0.389784 5.2924
8.57457 8.41558 1.52995
0 9.62858 1.68723
0.803154 4.00849 5.33959
9.81807 7.1764 8.34499
3.20982 1.64573 5.29745
4.83378 7.082 1.8345
7.5251 3.48331 5.93803
1.69145 4.81483 3.02314
0 7.19367 7.85496
8.13401 5.56345 0.821912
8.17269 2.89519 7.68035
0.793208 1.70718 9.13537
1.84744 0.748358 0.749471
8.7557 2.12967 8.09895
1.99695 8.90684 9.47847
2.60851 6.14934 10
6.45843 10 9.0079
0 5.68492 0.614232
7.53117 5.82621 9.83769
3.23894 0.634973 5.58378
6.58286 2.63233 8.65573
7.23663 9.52275 5.337
0.741592 10 6.46874
4.87424 0 5.28746
9.52392 2.16129 1.31355
0.604175 1.40801 4.13151
1.98048 6.52079 8.54693
4.48445 0.175353 0.780366
1.5596 3.70041 5.12299
0.58312 2.28405 7.08744
7.30389 7.55371 7.50037
2.86396 8.07121 1.55262
3.22332 6.19167 1.25381
0.791783 9.19638 7.36763
0.373996 1.74038 3.63932
1.0058 9.45526 5.28642
7.66692 9.0722 8.00205
6.91104 5.77617 1.33232
3.58623 4.25813 4.5816
0.813408 1.33064 1.40076
8.09996 0.282938 2.858
3.12719 4.98442 1.10416
7.70392 3.12448 6.43642
0.862294 4.90747 5.08055
2.72141 0 3.96736
8.2662 5.96873 7.05137
2.82897 3.75244 1.6485
3.1522 8.69267 0.679177
6.15559 8.40591 3.66696
7.12373 3.02966 3.96908
7.36055 6.11262 9.44495
9.56543 4.29152 5.47348
2.1637 3.37716 6.67218
6.06877 9.65211 9.30212
2.21476 1.44159 10
3.2297 9.9222 0.990514
1.59588 4.00698 7.26712
9.28432 6.78585 4.20323
1.07076 10 8.4506
9.78299 7.51385 7.3455
4.85478 4.11971 7.77664
0 6.84231 6.91182
2.51254 5.266 1.23465
8.35505 0.175855 3.89318
9.54941 8.56154 7.349
3.4459 8.86097 1.23426
3.52891 5.46267 0.440333
4.64906 1.02746 3.96886
5.4095 2.6477 7.5951
0.257467 0.255526 9.73366
7.03592 4.40281 6.70453
0.139886 1.01095 7.18367
1.8399 6.16607 9.75097
3.94843 5.83483 2.93999
2.92963 2.78638 7.98509
3.9319 9.48759 4.55602
9.97276 1.43026 3.71657
6.47979 6.67314 0
7.42528 9.97354 7.76779
5.20548 2.89294 8.48254
8.70081 3.94679 4.94477
6.15304 3.09575 5.49389
1.83947 3.15894 2.97239
6.96485 7.97196 9.64563
5.59607 0.760429 5.1798
6.15438 2.78963 6.854
3.25066 1.01913 4.28299
6.11625 0.922758 3.93162
0.720823 7.3068 6.23847
2.34031 2.12705 8.23019
10 7.9157 4.05024
2.95837 0.915448 5.53479
4.78397 7.11316 2.73666
9.15668 1.10705 1.20834
7.89371 7.14661 3.59238
1.98618 5.59695 5.68325
1.97151 6.45048 9.67912
9.84669 3.36732 6.65897
7.20716 0.215485 7.47626
9.9434 3.65151 1.99773
4.71066 1.27155 4.01098
0 4.59836 7.95051
9.94368 6.21914 9.64146
10 6.69443 8.67999
6.99963 0.794677 9.55956
7.56668 0.624635 6.33888
9.6883 8.71676 6.01682
0.272857 1.78599 2.58472
5.43843 0.463813 7.36105
0.274058 0.722994 6.97601
2.4004 6.50222 3.66589
5.08881 8.02222 3.73363
7.76717 8.22467 2.39902
9.04023 0.345357 8.49048
8.5529 5.21376 1.41907
2.21222 5.06894 2.56308
2.6657 4.55847 6.69035
3.9072 7.22394 8.85033
7.88835 10 5.77985
9.18799 9.55946 2.42839
3.06166 1.25101 5.48463
5.55742 1.81998 1.54213
5.82186 0.406034 5.04631
4.89895 0.317781 0.730435
7.98537 4.68537 2.28999
0.676406 0.835351 8.75726
5.47567 2.43569 7.62882
1.08149 1.9954 6.49455
0.337783 8.97959 3.03091
5.97236 3.95071 4.48722
6.98213 3.2677 8.78507
3.10262 3.19741 0.476193
5.61528 0.517055 5.17489
8.53134 5.49887 7.31719
8.59059 7.49301 2.19554
9.86994 5.26057 8.66106
6.5618 1.42836 7.28368
1.29831 9.97877 4.4451
8.0655 8.8301 1.91593
5.50075 1.68696 9.35714
9.24725 0.803648 9.49729
7.40149 8.95333 0.542649
9.21972 6.51278 6.71013
8.03163 0.415783 8.57345
6.25829 1.12264 8.62202
7.29627 8.10531 8.73595
4.80844 8.00748 3.7586
6.54172 0.587618 1.61461
6.00652 0.75515 4.40885
5.77861 2.4687 1.41153
8.95634 4.66308 5.1928
8.78806 6.75383 0.0964693
0.251199 1.24823 2.15031
9.16328 2.16413 1.25575
5.25809 1.81467 0.0850211
4.18952 3.09782 7.54758
8.65392 2.75032 5.88231
3.9123 8.52134 5.29733
4.11769 1.27187 9.31374
4.15187 0.303063 9.34516
9.6503 1.14307 10
0 4.42529 5.1153
7.57764 0.315996 10
3.21551 1.47734 4.88028
9.08741 9.22949 3.72942
2.00574 6.58794 0.690389
8.94158 0.153524 1.57029
6.68528 7.84688 5.45868
5.66479 0.483239 5.0961
9.06985 0.974242 9.89322
9.6468 6.70508 0
8.33978 2.06601 9.73742
5.52067 6.32048 6.79297
3.71096 2.76651 0
2.22586 8.45163 6.40589
6.78664 5.46617 1.10482
4.99818 4.84291 5.82971
6.3085 7.6183 0.662796
1.09404 2.63993 5.30334
7.71824 6.87509 1.65677
9.15541 1.85931 10
3.79516 4.64506 9.81834
5.67387 0.462194 5.17107
7.08841 9.02276 8.65207
0.662376 0.771719 5.77188
1.33063 0.496052 8.33584
6.47791 8.7 4.94565
8.52341 1.87738 2.73994
0.14205 0.573672 6.13941
0.227942 0.357037 1.08876
3.06644 10 1.36206
9.42829 5.50795 9.89389
5.80977 0.147269 4.94175
2.58527 2.12656 2.60144
0.683395 10 2.15314
1.41855 1.73999 2.2597
7.08847 0.855661 5.85037
6.02124 9.63357 1.73021
7.01379 0.55523 4.71325
3.6823 6.49619 6.52793
7.71591 3.61799 3.16241
4.76418 10 5.37704
9.6909 6.81738 9.90081
9.89027 4.64569 7.00485
9.36956 9.18638 7.773
7.01845 0.439369 5.08821
5.90708 1.19838 1.93276
0 8.6602 8.98393
0.0494378 9.23625 2.81188
3.80128 2.39529 7.54384
6.01462 0.296149 5.25168
4.73145 0.311298 4.22075
4.86168 9.5405 6.96028
1.67428 5.83062 7.47747
3.46196 5.93972 5.93798
4.00739 2.68813 7.23474
0.57324 4.8292 2.61556
7.49931 3.17612 9.03759
5.8461 1.52709 6.8579
9.79626 7.16319 9.27713
5.79312 0.490243 5.2043
10 7.89871 4.18312
7.04481 0.389552 4.80337
2.04549 2.63113 3.1606
2.9073 2.09618 5.68466
0.0693356 9.70969 0.410302
9.29003 4.90492 5.41146
6.0865 5.78705 8.07166
9.18844 3.8132 7.55145
1.61629 1.27174 7.92347
2.09093 7.1016 4.1183
8.2077 0.430907 0.946102
7.06359 0.384662 4.85673
7.29979 0.736131 6.0241
1.78476 6.3766 6.8184
8.47839 2.31095 9.78499
0.0338683 1.02187 3.21067
8.75293 6.05622 3.15351
8.26919 4.29727 1.86415
2.43021 0.589135 8.17616
2.04973 3.04605 8.83726
4.32396 4.68131 3.51613
5.21491 2.77043 1.60218
4.27218 8.22176 3.73778
6.92878 8.06111 0.764008
4.70583 2.30804 0.441717
8.4135 8.73 7.51219
6.13633 2.4581 3.3717
0.948461 0.502096 3.30831
5.20841 5.88231 0.477191
2.7862 7.68471 2.43006
0.105756 5.84173 10
5.23519 0.730799 5.26464
7.6285 0.550594 2.26266
9.27691 3.2785 6.48689
1.29573 6.60454 5.97576
0.320322 7.46096 7.2015
5.93786 0.840986 4.13476
5.761 9.37214 1.31262
0.613794 7.34544 6.63824
0 0 2.19232
5.59651 0.418953 5.34769
0.141412 1.03209 7.73172
1.44487 1.55136 9.90097
4.86666 8.9388 5.60764
5.98177 4.07673 5.97818
1.25729 1.18584 9.92329
0.832848 5.80672 3.76005
5.73206 0.0197718 4.8632
5.84239 0.120955 8.34054
5.55628 5.72661 7.81648
1.81068 0.654252 7.28277
6.63127 0.596761 5.32642
3.61822 3.69033 9.54909
7.74794 0.0851461 2.39622
5.79804 2.32302 0.423861
3.42492 8.76884 1.18025
1.16106 0.234837 8.72155
5.46578 0.500807 5.52956
5.4411 0.532666 5.2269
6.12823 0.332144 5.03852
5.3335 0.556176 5.3725
3.89695 7.98277 0
3.19752 1.21831 4.66062
5.53763 0.403783 5.2652
1.19035 1.69477 3.09529
5.57064 0.536013 4.76585
2.30667 7.73404 9.97948
5.62899 0.572933 5.22512
5.6413 0.4038 5.20168
9.74617 6.1379 1.53289
0.537096 4.02147 7.84205
1.91608 7.12005 7.83136
2.49713 8.08689 7.36475
1.02881 0 8.97453
6.67425 0.39979 5.31936
0 6.8084 3.1243
6.81414 7.74927 10
9.40437 6.66618 6.60258
8.20331 9.94569 1.69464
2.90972 4.54302 6.61893
6.54459 4.25916 8.4937
6.35824 4.7206 1.12013
8.40253 9.78204 1.76224
1.25937 0.256453 8.47727
5.73404 0.374185 5.18749
5.26125 0.467981 5.62129
0.584839 7.15341 1.38575
5.08208 0.648622 5.2307
3.26751 6.24769 5.83531
2.39102 0.278304 8.71063
5.86318 0.343022 4.88433
1.35167 7.09633 7.55309
0.18828 8.45832 2.33088
6.71906 2.91184 4.36725
7.02693 3.49476 9.60452
9.94555 2.14458 8.20374
0.602357 4.74832 3.01984
6.08778 5.61326 7.68718
5.6425 0.395287 5.22729
1.86663 2.60683 8.1156
6.68238 4.17703 7.48466
5.23278 6.57146 5.26724
6.39491 5.57604 2.97295
7.98595 5.26459 1.24677
1.03646 0.398613 8.5535
6.04875 0.602598 5.00624
5.94829 0.366107 5.54653
9.81926 0.480164 7.14079
5.48783 0.452421 5.42847
6.26248 0.227565 5.28752
4.13413 9.46152 9.03644
6.04917 0 4.87448
5.52518 0.18194 5.64933
7.54143 8.57971 2.52553
9.24476 8.53896 7.53491
1.55611 0.224786 7.09574
6.19471 0.267762 5.18865
1.22463 3.90336 5.59656
9.79027 5.88056 1.47778
5.66555 0.276868 4.71356
5.89679 0.624625 5.07236
8.31868 5.38337 2.033
1.11979 0.00286189 8.59978
1.23976 0.12435 8.69549
6.12995 0.51101 5.00024
5.47578 0.566487 4.83431
7.92915 8.22728 2.50564
1.16925 0.185143 8.56653
8.68059 2.54525 5.41272
1.72211 0.281793 8.3877
0.927051 7.84778 4.64356
9.68688 0.544562 7.40226
5.63897 1.22059 8.54747
3.30415 8.83122 1.05859
5.2769 0.206576 5.57806
6.06039 0.596252 5.04762
9.69232 0.517472 7.34185
1.09555 0.212606 8.60331
2.52986 0.685945 8.27395
6.66823 4.98398 9.29717
7.12521 0.367786 4.89981
5.93591 0.481755 5.38303
5.97612 0.242463 5.05627
6.01698 0.56997 4.85248
6.01894 0.768262 4.98724
4.86248 2.06383 8.88421
1.11933 0.221657 8.73773
5.36655 0.348964 5.17052
5.30639 0.313205 5.02347
3.39096 0 6.48528
2.23025 3.21691 5.59628
5.76336 0.432602 5.25824
5.94064 0.0752071 4.99351
2.40888 0.898453 8.05931
5.94567 0.741079 5.10386
9.54577 5.93463 5.06523
2.43153 0.634716 8.57282
5.79999 0.528359 5.45746
5.94076 0.649442 6.00052
1.00516 2.89515 4.93984
1.7375 9.66464 2.17084
POINT_DATA 400
SCALARS particleColor float 3
LOOKUP_TABLE default
1 5.96046e-08 0
1 5.96046e-08 0
0.553978 1 0.446022
0.0948708 1 0.905129
1 5.96046e-08 0
1 5.96046e-08 0
1 0.21948 0
0.451441 1 0.548559
1 5.96046e-08 0
0.644566 1 0.355434
1 0.896336 0
1 0.0982713 0
0 0.702067 1
0.983366 1 0.0166342
1 5.96046e-08 0
1 0.840615 0
0.554252 1 0.445748
0 0.787563 1
1 0.0239905 0
0 0.935244 1
1 0.603355 0
1 5.96046e-08 0
1 5.96046e-08 0
0.773495 1 0.226505
0.615739 1 0.384261
1 5.96046e-08 0
1 5.96046e-08 0
0.470906 1 0.529094
1 0.736859 0
0 0.879458 1
0.840744 1 0.159256
1 5.96046e-08 0
1 5.96046e-08 0
0.56349 1 0.43651
1 0.54331 0
0.202192 1 0.797808
0.340924 1 0.659076
1 0.823581 0
0 0.85096 1
0.13254 1 0.86746
1 5.96046e-08 0
1 5.96046e-08 0
1 0.547735 0
1 0.533943 0
0 0.825324 1
1 5.96046e-08 0
1 5.96046e-08 0
0.631062 1 0.368938
1 5.96046e-08 0
1 5.96046e-08 0
1 0.265501 0
1 5.96046e-08 0
1 0.560139 0
1 5.96046e-08 0
1 0.897573 0
0.312257 1 0.687743
1 5.96046e-08 0
0 0.847449 1
1 5.96046e-08 0
0.279153 1 0.720847
1 0.488063 0
0.85612 1 0.14388
1 5.96046e-08 0
0.306252 1 0.693748
1 5.96046e-08 0
0.735734 1 0.264266
1 5.96046e-08 0
1 0.580862 0
1 5.96046e-08 0
0.835313 1 0.164687
1 0.244499 0
1 5.96046e-08 0
0.0974401 1 0.90256
0 0.972557 1
0.10143 1 0.89857
0.290327 1 0.709673
1 5.96046e-08 0
1 0.724172 0
0.27659 1 0.72341
1 5.96046e-08 0
0.914739 1 0.0852608
0.454567 1 0.545433
0.622521 1 0.377479
0 0.531586 1
0.402722 1 0.597278
1 0.446177 0
1 0.658202 0
1 5.96046e-08 0
1 0.402669 0
1 0.874762 0
1 0.690788 0
0.691783 1 0.308217
1 0.640346 0
1 0.542662 0
0.60479 1 0.39521
1 5.96046e-08 0
1 5.96046e-08 0
1 5.96046e-08 0
0.356136 1 0.643864
1 5.96046e-08 0
1 5.96046e-08 0
1 0.481009 0
0.492086 1 0.507914
1 5.96046e-08 0
1 5.96046e-08 0
0.907096 1 0.0929042
1 5.96046e-08 0
0.870743 1 0.129257
0.0937074 1 0.906293
0 0.967629 1
1 5.96046e-08 0
1 5.96046e-08 0
1 5.96046e-08 0
1 0.210142 0
0.0774868 1 0.922513
1 0.272361 0
1 0.0623485 0
0 0.811307 1
0 0.782037 1
0.646119 1 0.353881
0.733177 1 0.266823
1 5.96046e-08 0
1 0.624313 0
1 5.96046e-08 0
1 0.92237 0
0 0.123506 1
1 0.420188 0
1 5.96046e-08 0
1 5.96046e-08 0
1 5.96046e-08 0
1 0.837918 0
1 0.653959 0
0.254519 1 0.745481
1 5.96046e-08 0
1 0.865981 0
0.424826 1 0.575174
1 0.119313 0
0.931616 1 0.0683837
0.851048 1 0.148952
1 5.96046e-08 0
0 0.376613 1
1 0.687038 0
0.0455968 1 0.954403
1 5.96046e-08 0
1 0.401333 0
1 0.662684 0
1 0.66806 0
1 5.96046e-08 0
1 0.388089 0
0.980192 1 0.0198075
0 0.421643 1
0.255025 1 0.744975
1 0.550825 0
1 0.124043 0
0.599512 1 0.400488
1 0.302672 0
0.438577 1 0.561423
1 0.659836 0
0.860618 1 0.139382
1 0.992353 0
0.808446 1 0.191554
1 5.96046e-08 0
1 0.758425 0
1 0.495436 0
1 0.931068 0
0.627761 1 0.372239
1 5.96046e-08 0
1 0.894831 0
0.839802 1 0.160198
0.289497 1 0.710503
1 0.778788 0
1 0.0209564 0
1 5.96046e-08 0
1 5.96046e-08 0
1 5.96046e-08 0
1 5.96046e-08 0
1 0.766479 0
1 0.941742 0
1 0.622903 0
1 0.293591 0
0.102827 1 0.897173
1 0.988968 0
0.651596 1 0.348404
0.436108 1 0.563892
1 0.485864 0
1 0.546723 0
0 0.602001 1
0.664937 1 0.335063
1 0.805554 0
1 5.96046e-08 0
0.960313 1 0.0396867
1 5.96046e-08 0
0.69728 1 0.30272
1 0.520412 0
1 5.96046e-08 0
1 5.96046e-08 0
0 0.911039 1
1 0.691826 0
0.238359 1 0.761641
0.98634 1 0.0136601
0 0.200692 1
1 5.96046e-08 0
1 5.96046e-08 0
1 5.96046e-08 0
1 5.96046e-08 0
0.597307 1 0.402693
1 5.96046e-08 0
0.437129 1 0.562871
1 0.534311 0
1 0.444766 0
0 0.238426 1
1 0.349252 0
1 5.96046e-08 0
0 0.621612 1
1 0.502952 0
0.657631 1 0.342369
0 0.726937 1
0.89929 1 0.10071
1 5.96046e-08 0
1 5.96046e-08 0
1 5.96046e-08 0
1 5.96046e-08 0
1 5.96046e-08 0
0 0.282176 1
0.845988 1 0.154012
0.43017 1 0.56983
0.465299 1 0.534701
0 0.749769 1
0 0.273009 1
1 5.96046e-08 0
0.0749307 1 0.925069
0.672228 1 0.327772
0.44673 1 0.55327
0 0.408459 1
0.978561 1 0.0214394
0 0.717745 1
1 0.612442 0
1 5.96046e-08 0
0 0.408613 1
1 5.96046e-08 0
0 0.211842 1
1 5.96046e-08 0
1 0.799066 0
0.251373 1 0.748627
0 0.645258 1
0.945696 1 0.0543038
0.646393 1 0.353607
1 5.96046e-08 0
1 0.596495 0
0.558912 1 0.441088
0 0.593996 1
1 0.968003 0
1 0.472852 0
1 5.96046e-08 0
0 0.68618 1
1 5.96046e-08 0
1 0.888337 0
0 0.870717 1
1 5.96046e-08 0
0.786022 1 0.213978
1 0.706404 0
1 5.96046e-08 0
1 5.96046e-08 0
1 5.96046e-08 0
1 0.348116 0
0.64646 1 0.35354
1 0.971939 0
1 5.96046e-08 0
1 5.96046e-08 0
1 0.981599 0
0 0.436584 1
1 0.915799 0
1 5.96046e-08 0
0.187132 1 0.812868
1 0.914745 0
0.105961 1 0.894039
0.756858 1 0.243142
1 5.96046e-08 0
0.784917 1 0.215083
0 0.643734 1
1 5.96046e-08 0
1 5.96046e-08 0
0.282634 1 0.717366
1 0.132828 0
1 5.96046e-08 0
1 0.947155 0
0 0.962975 1
1 5.96046e-08 0
1 0.784832 0
0.481692 1 0.518308
1 5.96046e-08 0
1 0.6723 0
0.624457 1 0.375543
1 0.398173 0
1 5.96046e-08 0
0 0.522472 1
0 0.457225 1
0 0.481217 1
0 0.904918 1
0 0.669139 1
1 0.717686 0
1 0.443651 0
0 0.829602 1
1 5.96046e-08 0
0 0.564311 1
1 5.96046e-08 0
0 0.544143 1
0 0.329002 1
0.427329 1 0.572671
0.889651 1 0.110349
0 0.377491 1
0.853267 1 0.146733
1 0.730909 0
0.0358186 1 0.964181
1 5.96046e-08 0
1 0.874503 0
1 5.96046e-08 0
0.933739 1 0.0662605
1 0.277231 0
1 5.96046e-08 0
1 5.96046e-08 0
0 0.376227 1
0 0.591957 1
0 0.45083 1
0.0599718 1 0.940028
0.250866 1 0.749134
0 0.383714 1
1 5.96046e-08 0
0 0.663236 1
0 0.323808 1
0.660056 1 0.339944
0.466974 1 0.533026
0 0.362227 1
1 0.0882697 0
0.543804 1 0.456196
1 5.96046e-08 0
0.952144 1 0.0478562
0 0.558771 1
1 5.96046e-08 0
1 0.34889 0
1 5.96046e-08 0
0.171466 1 0.828534
1 5.96046e-08 0
0 0.709749 1
0.10713 1 0.89287
0.112024 1 0.887976
0 0.453179 1
0 0.603046 1
0 0.78428 1
1 0.128978 0
0 0.650635 1
0 0.141441 1
0.555944 1 0.444056
1 0.680622 0
0.404291 1 0.595709
0 0.890552 1
1 0.891741 0
1 5.96046e-08 0
0 0.562959 1
0 0.973375 1
0 0.915519 1
0 0.510723 1
0 0.32091 1
0 0.603574 1
0 0.404993 1
1 5.96046e-08 0
0 0.667 1
1 5.96046e-08 0
0 0.712812 1
1 5.96046e-08 0
0 0.747178 1
0.0359312 1 0.964069
1 5.96046e-08 0
0 0.756528 1
0.0685331 1 0.931467
0.356438 1 0.643562
0 0.407994 1
0 0.88675 1
0.434838 1 0.565162
0.276402 1 0.723598
0 0.926206 1
0 0.640563 1
1 0.924213 0
0 0.50506 1
1 0.0488449 0
0 0.489627 1
0 0.506802 1
0 0.407367 1
1 5.96046e-08 0
0.332849 1 0.667151
0 0.832415 1
0 0.713794 1
0 0.672075 1
0 0.57772 1
0.716803 1 0.283197
0 0.566743 1
0 0.82318 1
1 0.442617 0
1 0.947754 0
0 0.70903 1
