# vtk DataFile Version 3.0
Particle simulation
ASCII
DATASET POLYDATA
POINTS 400 float
1.14621 0.989525 0.594507
1.63122 1.0778 0.864399
0.597408 1.06336 3.44357
1.16741 0.962666 0.261078
0.688974 0.6995 3.7909
0.658314 0.515069 2.28923
0.977157 0.523206 3.92847
0.651613 0.489454 1.9013
2.11541 0.998365 3.38693
2.34058 0.870841 2.35143
1.15075 0.990504 0.578715
1.61363 1.03962 0.882941
0.59024 1.05908 3.44781
1.22994 0.959205 0.264387
0.623204 0.699835 3.711
0.665097 0.494935 2.27268
1.05271 0.562966 3.81614
0.657949 0.482058 1.96802
2.10569 1.04228 3.39945
2.3272 0.863273 2.39295
0.643202 0.776899 0.566308
1.251 0.810058 0.946016
1.0704 1.08428 3.3588
1.70415 1.03756 0.158345
1.16025 0.762887 3.37895
1.03442 0.639853 2.35527
1.61529 0.615319 3.90759
1.00766 0.516876 1.96217
1.35572 0.690678 3.40119
0.86867 1.05802 2.57187
0.636471 0.818125 0.551817
1.34025 0.884208 0.880189
1.08709 1.03127 3.34174
1.72091 1.04218 0.15164
1.21519 0.765692 3.32067
1.05299 0.588535 2.29986
1.61761 0.604495 3.97585
0.99045 0.520319 1.89476
1.25326 0.743318 3.28635
0.901403 1.04305 2.5869
1.29137 0.914386 0.497829
2.87529 0.669042 0.824579
3.21267 0.69669 2.71521
3.2493 0.784134 0
2.62035 0.720851 4.07092
2.81066 0.685585 1.67903
2.6188 0.776639 3.09617
2.60033 0.711409 3.42165
1.65379 0.621308 3.34678
0.292803 0.828602 2.36556
1.2837 0.89626 0.472647
2.86713 0.661754 0.80003
3.2082 0.637804 2.64929
3.24587 0.762874 0
2.60664 0.729116 4.03789
2.8371 0.66864 1.64952
2.61356 0.738062 3.94222
2.55518 0.691382 3.45564
1.66827 0.618955 3.35302
0.266459 0.822111 2.436
0.87362 0.606015 0.470327
0.750286 0.656414 0.885253
0.358303 0.600449 2.51588
0.830001 0.720287 0.0948125
0.586107 0.713409 3.34568
0.361895 0.391618 2.239
0.911579 0.448108 3.90516
0.22986 0.766188 2.87951
1.45874 0.619456 3.48292
0.320071 0.80298 2.52063
0.871883 0.568062 0.442198
0.797202 0.665925 0.897535
0.348756 0.678357 2.73309
0.831271 0.701224 0.149108
0.596283 0.712856 3.24999
0.333742 0.407075 2.25463
0.905219 0.447975 3.91622
0.237712 0.685228 3.10788
1.47953 0.647866 3.38786
0.324835 0.809745 2.53147
2.39122 0.671174 0.757223
2.91361 0.552066 0.755222
2.25071 0.676411 2.51409
2.88252 0.682696 0.0372453
2.74658 0.737209 3.653
2.60249 0.678803 1.73956
2.92759 0.626969 4.45727
2.75107 0.681986 2.73108
3.07267 0.560665 3.47829
1.72014 0.557172 2.39348
2.35791 0.643722 0.765048
2.89085 0.599846 0.760345
2.28109 0.664628 2.41397
2.87556 0.679439 0.07607
2.67408 0.748445 3.634
2.56175 0.689389 1.76231
2.96702 0.632457 4.44455
2.74799 0.67748 2.7157
3.03355 0.578757 3.4378
1.6814 0.575989 2.43338
2.62269 0.656383 0.786456
2.1785 0.553137 0.570714
1.82583 0.509002 2.70706
2.05491 0.58143 0.199466
1.77419 0.772305 4.00739
2.08072 0.548067 1.81473
1.46764 0.649586 3.78597
1.89189 0.686728 3.30211
1.82793 0.674008 3.33196
1.79199 0.532081 2.42494
2.64876 0.647652 0.753382
2.24884 0.552581 0.623875
1.86869 0.501204 2.65833
2.04685 0.597561 0.0894268
1.73196 0.750912 4.0157
2.07924 0.541204 1.8045
1.44793 0.650363 3.82944
1.90756 0.67558 3.17721
1.85556 0.68238 3.31089
1.73679 0.560113 2.52006
3.89682 0.777086 0.857415
3.36776 0.537523 0.903107
4.09931 0.551588 2.75944
3.70623 0.373 0.373826
3.91847 0.527036 3.54674
4.26888 0.263919 2.03087
3.81169 0.340204 4.44213
4.10887 0.591345 2.56265
3.91178 0.545176 3.48897
4.27215 0.645904 2.1621
3.92411 0.786203 0.870684
3.33904 0.531167 0.89491
4.04858 0.545684 2.65585
3.74401 0.378921 0.3779
3.87283 0.548753 3.49591
4.30116 0.296836 1.98385
3.82935 0.263076 4.50968
4.08954 0.59383 2.59437
3.90232 0.556596 3.46704
4.2495 0.647902 2.21236
1.92217 0.679205 0.767545
2.24178 0.800874 0.740138
1.88027 0.543102 2.58138
1.81823 0.617284 0.0860316
1.86601 0.769055 3.60905
1.88009 0.560594 1.76707
2.40536 0.577043 4.32057
2.14319 0.662193 3.06347
1.79128 0.772471 3.48154
2.01269 0.62948 2.12935
1.91028 0.685028 0.769918
2.25682 0.802575 0.739045
1.86287 0.50887 2.427
1.81966 0.610174 0.0682565
1.8302 0.755093 3.64891
1.86548 0.561793 1.7941
2.41137 0.570325 4.32459
2.14301 0.650355 3.00765
1.80497 0.773336 3.41869
1.99844 0.634937 2.20822
3.12691 0.987176 0.67603
3.89839 0.728894 0.341276
3.42148 0.993672 3.08866
4.36471 0.597445 0.0337102
3.17055 0.70934 3.47627
2.89245 0.633887 2.17672
3.12872 0.527893 4.31412
3.1319 0.705734 2.53776
3.16566 0.692224 3.53365
3.26453 1.04207 2.16213
3.14438 0.970671 0.669016
3.84809 0.752602 0.413188
3.41403 1.00202 3.08053
4.32419 0.525653 0.0787609
3.18303 0.709504 3.33822
2.84552 0.615744 2.1533
3.15039 0.542089 4.26901
3.13616 0.719922 2.46471
3.19585 0.620775 3.54349
3.26805 1.05935 2.12537
3.44199 1.12929 0.54213
2.11612 0.982934 0.749859
3.7548 0.899386 2.929
2.41323 0.960955 0.210313
3.92225 0.583032 3.63298
3.7049 0.735024 2.50521
3.44884 0.596933 4.32285
3.87307 0.828754 2.51211
3.17236 1.09903 3.38455
3.74623 1.03292 2.08349
3.4425 1.12804 0.558981
2.17726 1.01159 0.680455
3.77114 0.95752 3.17311
2.43484 0.965584 0.222587
3.90145 0.598324 3.64145
3.74064 0.685663 2.47675
3.41294 0.592006 4.33655
3.91965 0.807397 2.60599
3.17074 1.10451 3.4055
3.7274 1.04658 2.06538
1.14724 0.868167 0.582042
1.2742 0.789641 0.916906
0.569592 0.806826 3.41835
1.26451 0.855477 0.255177
0.775475 1.13611 3.77533
0.594716 1.28198 2.36981
1.25121 1.22858 3.74889
0.576761 1.27658 1.92784
2.01279 0.73675 3.46162
2.41041 1.13631 2.28475
1.14977 0.832623 0.609972
1.23926 0.800413 0.886226
0.605527 0.800206 3.38759
1.26767 0.854929 0.287176
0.778855 1.13483 3.77735
0.603874 1.29727 2.37212
1.24492 1.22565 3.74059
0.589751 1.31271 2.06536
1.99453 0.77811 3.44914
2.42207 1.13104 2.25186
1.17988 0.885765 0.352038
1.49425 1.00101 1.03069
1.04216 0.787085 3.3466
1.75153 0.823817 0.159534
1.21676 1.07004 3.56895
1.08006 1.15535 2.51634
1.71658 1.14168 3.76522
1.0128 1.20789 1.98971
1.76278 0.988356 3.17073
0.848561 0.85066 2.52312
1.1597 0.875651 0.358493
1.58136 0.9827 0.963461
1.03119 0.762599 3.37293
1.75626 0.804768 0.228881
1.2016 1.06857 3.56676
1.10585 1.16989 2.49506
1.70554 1.13514 3.74155
1.03277 1.23628 1.92577
1.78973 1.00963 3.16999
0.840177 0.825445 2.5602
1.31044 0.928285 0.346064
2.87794 1.15129 0.733166
3.08366 1.25236 2.78213
3.29 1.02748 0.0423315
2.60608 1.06402 3.98197
2.86475 1.23846 1.566
2.48605 1.19716 3.1834
2.55642 1.32083 2.64137
2.54377 1.22097 3.39264
0.295095 1.00541 2.39923
1.32306 0.920539 0.365263
2.7878 1.18627 0.807932
3.09594 1.28745 2.71085
3.28947 1.02638 0
2.59796 1.08109 3.93734
2.85932 1.2368 1.58503
2.50223 1.12263 3.43771
2.55613 1.33209 2.61911
2.57012 1.21949 3.41651
0.267734 0.998375 2.4763
0.851197 1.19801 0.471991
0.782682 1.11845 0.922979
0.166255 1.14476 2.84278
1.0375 0.970271 0.124586
0.667493 1.0636 3.36971
0.449666 1.38007 2.30757
1.09292 1.24073 3.73894
0.622263 1.15977 3.2
1.17884 1.15307 3.40846
0.176052 1.116 2.55137
0.833729 1.16959 0.444278
0.761066 1.11093 0.923873
0.156104 1.12786 2.8554
1.04759 0.958457 0.16044
0.656069 1.06708 3.31085
0.455091 1.35361 2.39937
1.12379 1.23958 3.75683
0.491391 1.08906 2.79359
1.15704 1.15663 3.40903
0.18856 1.10758 2.56829
2.51384 1.17638 0.916004
3.00569 1.18876 0.749357
2.32853 1.19302 2.53783
3.03873 1.22641 0.00799184
2.60143 1.12156 3.68997
2.45929 1.14847 1.8045
3.03033 1.1637 4.37276
2.44556 1.29746 2.68896
3.11348 1.17875 3.36733
1.6974 1.2653 2.53936
2.51428 1.2011 0.926779
2.99777 1.17133 0.743383
2.3382 1.18901 2.4991
3.0383 1.22121 0.0456802
2.71503 1.10103 3.86827
2.43899 1.1487 1.81791
3.01076 1.12277 4.45239
2.46973 1.30673 2.65329
3.22803 1.15875 3.34862
1.6665 1.26996 2.53459
2.7363 1.19587 0.919071
2.10248 1.28624 0.599381
1.89046 1.29733 2.8565
2.20287 1.16232 0.146555
1.81784 1.12321 4.00099
2.17116 1.369 1.79162
1.32405 1.06583 3.75243
1.95302 1.177 2.78081
1.86617 1.13484 3.21332
1.95847 1.3003 2.49999
2.75585 1.19948 0.910178
2.15108 1.29136 0.613539
1.95887 1.27756 2.78229
2.21089 1.13025 0.0588171
1.90701 1.10728 4.04364
2.16801 1.39805 1.70081
1.3884 1.05906 3.71584
1.98556 1.12472 3.1408
1.94362 1.12259 3.26092
1.89309 1.29839 2.54579
3.58203 0.903853 0.874107
3.54882 1.1924 0.913158
4.1361 1.31292 2.92612
3.68485 1.45283 0.30433
3.86568 1.23114 3.4204
4.17907 1.36255 2.26427
3.55885 1.40461 4.38272
4.03112 1.23227 2.48605
3.90004 1.22018 3.21601
4.16854 1.27289 2.08306
3.63576 0.931698 0.862746
3.58033 1.20809 0.894064
4.06908 1.29965 2.85415
3.68531 1.44722 0.298728
3.90061 1.21684 3.45235
4.1887 1.3554 2.21415
3.58351 1.39112 4.36673
4.03544 1.23859 2.47131
3.86012 1.17142 3.23472
4.13212 1.25355 2.1577
1.90499 1.19516 0.777186
1.62823 1.12127 0.643697
1.8638 1.29527 2.73663
1.88631 1.18368 0.119336
1.74142 1.02722 3.82644
1.89614 1.17956 1.76943
2.22709 1.07409 4.08305
2.15636 1.21936 3.01636
1.80649 1.10018 3.41189
1.96635 1.26756 2.27977
1.90611 1.18826 0.780271
1.64291 1.09743 0.615559
1.88029 1.27291 2.50268
1.8883 1.17906 0.161497
1.77519 1.0356 3.76847
1.90332 1.19244 1.7787
2.2553 1.07224 4.13189
2.17083 1.21774 2.92728
1.80599 1.10405 3.35593
2.00421 1.26389 2.31527
2.76912 0.803431 0.590996
3.4406 1.01815 0.595319
3.36708 0.87526 3.08559
3.87852 1.02054 0.283164
3.06182 1.11388 3.53674
2.72712 1.13574 2.37658
2.92752 1.18861 4.27103
3.05416 1.07289 2.5221
2.97832 0.985546 3.20996
3.23623 0.869191 2.08147
2.76584 0.794276 0.554359
3.38442 1.03892 0.605985
3.37149 0.881562 3.11024
3.87002 1.01755 0.291093
3.09795 1.11368 3.45231
2.73645 1.13251 2.35676
2.89552 1.18406 4.27644
3.05042 1.05333 2.56916
2.98983 1.09277 3.12575
3.24766 0.869009 2.11096
3.45851 0.812339 0.496932
2.07266 0.708148 0.63988
3.66149 0.871082 3.07522
2.20889 0.737019 0.274564
3.70989 1.17802 3.76652
3.55359 1.00196 2.6467
3.2073 1.2402 4.30984
3.8179 1.01636 2.61899
3.1474 0.897305 3.39607
3.73937 0.800594 2.09874
3.46133 0.772151 0.550818
2.02609 0.713494 0.638848
3.66301 0.885184 3.11111
2.17442 0.742743 0.220559
3.70919 1.17754 3.75899
3.60695 1.0387 2.59388
3.21321 1.23824 4.29757
3.829 1.0141 2.63018
3.12687 0.902573 3.39331
3.73457 0.805359 2.07233
POINT_DATA 400
SCALARS particleColor float 3
LOOKUP_TABLE default
0 0.710826 1
0 0.401702 1
0 0.739906 1
0 0.490642 1
0 0.484967 1
0 0.506592 1
0 0.404355 1
0 0.661912 1
0 0.784887 1
0.245904 1 0.754096
0 0.737971 1
0 0.44226 1
0 0.777869 1
0 0.602658 1
0 0.432747 1
0 0.572154 1
0 0.227595 1
0 0.283028 1
0 0.755405 1
0.0420802 1 0.95792
0 0.736695 1
0 0.648675 1
0.153852 1 0.846148
0 0.901531 1
0 0.691379 1
0 0.563308 1
0 0.862115 1
0 0.292503 1
0 0.820136 1
0 0.734058 1
0 0.743025 1
0 0.734794 1
0 0.9518 1
0 0.933069 1
0 0.692779 1
0 0.510907 1
0 0.97298 1
0 0.460241 1
0 0.781078 1
0 0.703828 1
0 0.558482 1
0.0268084 1 0.973192
0 0.68528 1
0 0.440957 1
0 0.805507 1
0 0.388983 1
0 0.354092 1
0 0.663991 1
0 0.633177 1
0 0.793806 1
0 0.521694 1
0 0.919107 1
0 0.715337 1
0 0.449216 1
0 0.620837 1
0 0.61288 1
0 0.659833 1
0 0.560412 1
0 0.473183 1
0 0.80666 1
0 0.511526 1
0 0.545565 1
0 0.950214 1
0 0.429284 1
0 0.480316 1
0 0.694299 1
0 0.505298 1
0 0.472807 1
0 0.37784 1
0 0.320812 1
0 0.497126 1
0 0.529393 1
0.0776607 1 0.922339
0 0.533608 1
0 0.49989 1
0 0.689893 1
0 0.496838 1
0 0.277364 1
0 0.462295 1
0 0.483272 1
0 0.396601 1
0 0.608245 1
0 0.483497 1
0 0.244651 1
0 0.514421 1
0 0.4331 1
0 0.164841 1
0 0.249732 1
0 0.510341 1
0 0.453051 1
0 0.487833 1
0 0.703878 1
0 0.543306 1
0 0.131372 1
0 0.551366 1
0 0.451981 1
0 0.379906 1
0 0.31746 1
0 0.726108 1
0 0.477653 1
0 0.716793 1
0 0.454735 1
0 0.619374 1
0 0.339076 1
0 0.585783 1
0 0.266844 1
0 0.317362 1
0 0.468504 1
0 0.721827 1
0 0.894753 1
0 0.817081 1
0 0.516849 1
0 0.775711 1
0 0.434406 1
0 0.421332 1
0 0.211674 1
0 0.408169 1
0 0.460421 1
0 0.567355 1
0 0.744155 1
0 0.467491 1
0 0.538431 1
0 0.826662 1
0 0.266704 1
0 0.614796 1
0 0.601655 1
0 0.271824 1
0 0.431904 1
0 0.413087 1
0 0.789146 1
0 0.322188 1
0 0.55834 1
0 0.842648 1
0 0.365323 1
0 0.593561 1
0 0.366256 1
0 0.870203 1
0 0.292165 1
0 0.545469 1
0 0.524283 1
0 0.378249 1
0 0.703612 1
0 0.688902 1
0 0.602428 1
0 0.87719 1
0 0.48367 1
0 0.115756 1
0 0.547417 1
0.133026 1 0.866974
0 0.881615 1
0 0.469414 1
0 0.52782 1
0 0.710693 1
0 0.421695 1
0 0.724791 1
0 0.474299 1
0 0.191652 1
0 0.382017 1
0.00712664 1 0.992873
0 0.786004 1
0 0.937963 1
0 0.579671 1
0 0.553479 1
0 0.220603 1
0 0.906221 1
0 0.810298 1
0 0.605925 1
0 0.846225 1
0.105386 1 0.894614
0 0.759381 1
0 0.934094 1
0 0.540463 1
0 0.675023 1
0 0.345617 1
0 0.828037 1
0 0.942645 1
0 0.553376 1
0 0.846353 1
0 0.986367 1
0 0.865989 1
0 0.431371 1
0 0.731771 1
0 0.510235 1
0 0.96512 1
0 0.569417 1
0 0.790396 1
0 0.438042 1
0 0.464742 1
0 0.590332 1
0 0.735999 1
0 0.445152 1
0 0.895968 1
0 0.564908 1
0 0.811099 1
0 0.439575 1
0 0.850533 1
0 0.375949 1
0 0.539556 1
0 0.643432 1
0 0.744505 1
0 0.566494 1
0 0.713616 1
0 0.689571 1
0 0.450223 1
0 0.526428 1
0 0.359202 1
0 0.42238 1
0 0.378551 1
0 0.85762 1
0.0507435 1 0.949256
0 0.559969 1
0 0.52119 1
0 0.910785 1
0 0.415881 1
0 0.499556 1
0 0.425539 1
0 0.388867 1
0 0.289117 1
0 0.82551 1
0.074808 1 0.925192
0.176693 1 0.823307
0.0194134 1 0.980587
0 0.991292 1
0 0.884945 1
0 0.914142 1
0 0.691475 1
0.172117 1 0.827883
0 0.364298 1
0.0394884 1 0.960512
0 0.646892 1
0.110615 1 0.889385
0 0.984882 1
0.148213 1 0.851787
0 0.866544 1
0 0.888278 1
0 0.651299 1
0.128763 1 0.871237
0 0.395022 1
0.122052 1 0.877948
0 0.762059 1
0 0.71322 1
0 0.991713 1
0 0.717426 1
0 0.516942 1
0 0.638312 1
0 0.47848 1
0 0.188047 1
0 0.737866 1
0 0.789337 1
0 0.765009 1
0 0.717233 1
0 0.96477 1
0 0.710869 1
0 0.68381 1
0 0.662461 1
0 0.481307 1
0 0.261977 1
0 0.867317 1
0 0.656841 1
0 0.771699 1
0 0.832252 1
0 0.77678 1
0.0566893 1 0.943311
0 0.870247 1
0 0.84111 1
0 0.773852 1
0 0.733045 1
0 0.651439 1
0 0.582316 1
0 0.519206 1
0 0.854743 1
0 0.788579 1
0.142266 1 0.857734
0.0211774 1 0.978823
0 0.764746 1
0 0.764364 1
0 0.909808 1
0 0.758092 1
0 0.544288 1
0 0.61813 1
0 0.478738 1
0 0.595256 1
0 0.554586 1
0 0.435062 1
0 0.7689 1
0 0.506395 1
0 0.297352 1
0 0.759179 1
0 0.855953 1
0 0.313704 1
0 0.324841 1
0 0.604724 1
0 0.715423 1
0 0.411493 1
0 0.729461 1
0 0.666839 1
0 0.301274 1
0 0.586405 1
0 0.899019 1
0 0.376697 1
0 0.800658 1
0 0.345445 1
0 0.800693 1
0 0.315598 1
0 0.718072 1
0 0.640598 1
0 0.603386 1
0 0.678723 1
0 0.675017 1
0 0.776007 1
0 0.824895 1
0 0.381242 1
0 0.913344 1
0 0.505622 1
0 0.639632 1
0 0.589731 1
0 0.521823 1
0 0.478714 1
0 0.636609 1
0 0.790883 1
0 0.793788 1
0 0.743774 1
0 0.814684 1
0 0.200944 1
0 0.518061 1
0 0.525277 1
0 0.626061 1
0 0.533395 1
0 0.683569 1
0 0.654566 1
0 0.719687 1
0 0.66169 1
0 0.801614 1
0 0.271419 1
0 0.471721 1
0 0.638034 1
0 0.360621 1
0 0.547728 1
0 0.738144 1
0 0.685469 1
0 0.493641 1
0 0.60365 1
0 0.814558 1
0 0.578064 1
0 0.965649 1
0 0.367756 1
0 0.555335 1
0 0.414713 1
0.00750739 1 0.992493
0 0.858659 1
0 0.531482 1
0 0.613043 1
0 0.739341 1
0 0.645508 1
0 0.928159 1
0 0.281609 1
0 0.48098 1
0 0.375093 1
0 0.981171 1
0 0.711747 1
0.0584571 1 0.941543
0.0132583 1 0.986742
0 0.635098 1
0 0.674213 1
0.130557 1 0.869443
0.119863 1 0.880137
0 0.763714 1
0 0.995736 1
0.0445612 1 0.955439
0 0.714166 1
0.0976035 1 0.902397
0 0.961855 1
0 0.719396 1
0 0.789335 1
0.11875 1 0.88125
0.0565844 1 0.943416
0 0.974484 1
0 0.986682 1
0.0312718 1 0.968728
0 0.7031 1
0 0.401738 1
0 0.891544 1
0 0.590415 1
0.0814113 1 0.918589
0 0.374935 1
0 0.999839 1
0 0.532436 1
0 0.616006 1
0 0.433191 1
0 0.660422 1
0 0.454197 1
0 0.887745 1
0 0.623423 1
0.152962 1 0.847038
0 0.319811 1
0 0.97971 1
0 0.384992 1
0 0.673227 1
0 0.391795 1
0 0.656516 1
