# vtk DataFile Version 3.0
Particle simulation
ASCII
DATASET POLYDATA
POINTS 400 float
5.98889 2.64544 6.34647
2.39489 5.48263 8.95287
1.0133 2.0027 7.12574
4.77587 1.64276 5.6974
7.04117 0.448568 1.91998
8.20894 0.645303 4.84144
5.17759 6.95366 8.76965
1.37221 9.0638 0.20404
5.70383 0 9.23518
6.32103 0 8.35294
7.28768 0.402125 2.84531
9.11018 8.09774 6.42107
9.16701 1.81219 4.07573
9.8263 4.31783 5.33955
0.301285 1.27629 1.09793
2.9576 8.08811 1.04159
5.84335 5.83239 6.25642
5.11852 0.204723 4.07164
9.00568 4.94558 9.33097
2.64392 7.19399 9.60325
1.66253 2.14045 0.918636
7.77066 7.81977 0.503656
2.99541 1.59824 1.30692
1.12693 3.20754 6.58349
9.65845 8.19987 6.53356
1.07093 2.21767 4.4719
9.44276 6.76165 1.47181
8.17163 6.37881 2.86103
9.59474 0.138861 5.03972
3.54985 0.96378 9.57638
0.360888 3.49481 4.19155
9.78914 1.13782 2.70412
2.2635 8.2139 5.44825
1.6006 7.88134 8.96868
7.23421 3.58141 4.31604
7.37582 7.9092 1.19097
6.82785 5.85599 7.32483
8.57412 0.433397 1.33319
3.1373 10 8.02447
1.1441 9.44152 0.43053
8.44957 6.0407 8.22199
9.54077 9.1788 0.313609
0.306926 9.21132 2.55306
10 0.881201 7.44977
4.90572 9.79601 8.56019
5.06324 2.33069 1.88893
8.29365 2.17461 7.35098
2.72845 8.25354 1.7284
0.981724 0.542678 5.02101
1.21768 2.259 8.6989
5.20413 1.76507 2.87978
8.34457 9.31074 9.75775
0.769378 0.205687 9.36367
0 5.46006 2.39425
1.81365 8.59004 4.43049
1.2793 1.28948 1.32964
2.89943 3.39779 1.97323
3.79479 0.502021 8.45146
3.93411 6.12797 0
9.0222 2.97266 5.19018
3.51345 9.42354 4.40466
7.46596 3.82209 9.48783
1.85159 5.39324 3.88266
5.10877 8.98908 7.86927
0 6.46248 0.957439
6.27524 1.13535 9.63282
7.13436 4.70559 0.322936
2.9759 4.54533 2.15188
0.397081 3.38197 9.65448
0.860867 5.01908 1.2974
7.74962 1.75841 3.92776
7.49353 6.33968 2.94056
4.03281 9.16605 3.22439
2.94347 1.10901 7.31407
1.64061 3.60936 4.94145
8.3896 1.85257 1.99045
6.96515 4.22791 7.45839
9.85699 7.65 7.02017
2.03152 6.14869 9.05737
8.97746 0.586305 0.810408
6.18459 9.01059 5.64894
0.82568 9.16144 5.09168
1.09431 5.88318 3.59236
0.179118 2.81469 2.32321
7.22447 2.66132 7.09547
9.30867 0.949919 7.35493
0.965652 8.13759 5.154
2.19143 4.75982 9.39946
0.301572 7.63679 4.63622
0.785728 4.89319 3.73301
4.07039 0.32424 3.81483
8.37553 7.62666 7.35492
6.66206 10 3.93607
6.9013 0.23732 8.69524
4.79356 3.73294 3.3521
3.88809 5.88331 1.18694
9.26321 0 1.99121
3.54397 10 8.56636
4.01772 6.36122 6.12174
2.85762 5.00182 0.321228
0.213131 0.347013 8.98379
6.29609 7.4024 2.75363
7.77841 3.57077 7.64248
5.37612 1.32697 2.05214
1.24262 6.2136 7.11896
1.71681 6.43551 6.29332
10 1.41501 5.28238
3.8369 6.99101 0.708356
1.85992 5.74719 5.8132
8.91153 2.35913 1.43672
1.03788 9.16593 3.34288
5.45016 4.03039 7.22307
1.21935 4.61072 1.02129
6.73487 4.1417 3.44652
2.19096 3.31429 5.83465
4.69752 4.07993 8.66427
4.13656 2.631 0.521987
0.977372 3.44422 3.25589
3.40074 2.50614 8.46167
5.32904 8.24982 2.61041
0.403224 3.37673 0.227071
9.84023 5.22988 3.83102
8.63255 8.2344 9.27363
0 5.41551 2.89727
0 2.01375 7.67657
3.82547 0.972522 8.05442
6.19217 8.7383 3.14571
4.32256 0.961909 5.30283
6.27256 7.80813 8.2152
2.72893 2.66165 3.74234
0.268392 6.2599 7.71478
2.95155 4.33531 2.63514
5.81807 9.45842 5.57787
4.55686 6.08775 1.79413
3.3413 4.02211 5.36985
2.96682 0.377595 5.80446
0 4.84996 6.25068
3.61336 4.48694 6.97069
7.00431 5.2916 7.46624
9.69781 5.51831 4.33058
4.7618 0.298976 4.06679
9.52995 6.03851 9.96184
8.40737 5.18363 5.36398
2.54034 4.24897 3.73006
5.33839 4.62165 2.5712
3.31004 1.0463 3.95909
9.05315 0.112125 2.12636
3.17713 1.31719 5.66589
9.44001 3.9757 3.0222
6.51892 0.602054 8.40037
4.59971 0.465214 3.897
0.728725 7.00001 6.61439
3.01079 6.82599 3.13634
0.563255 1.76422 9.58713
9.16098 6.57059 6.98883
0.935728 4.958 1.04506
2.94171 5.89356 9.55755
3.38878 9.68093 3.20591
2.04827 6.16852 10
9.00734 3.96582 3.19803
3.4968 0.834187 0.508672
4.00552 1.20182 5.72585
4.83346 8.30328 2.94965
3.11658 0.076441 8.02928
8.71394 1.68045 5.40923
2.63086 9.84468 4.50391
4.75363 1.03176 3.91469
0.218608 8.71591 10
4.75975 6.92821 1.63709
5.4212 0.28714 3.6769
5.47232 8.50158 8.13387
1.82144 3.52631 6.3172
1.27954 7.45368 4.21602
8.37253 2.47308 7.16513
3.04958 4.45073 1.41334
4.13988 1.6155 7.56114
0 1.97364 9.36513
1.93144 7.49764 6.49207
3.89492 7.57331 0.270553
4.16986 9.14654 8.11407
1.34376 1.75914 1.18353
6.68948 0.182429 0.917006
0.751861 6.51011 0.612645
1.31353 3.56661 6.85669
9.43876 0.791198 5.94456
7.72494 2.23412 3.57104
4.6088 0.638936 3.85503
7.68385 9.67793 5.71642
8.5252 7.17112 8.44706
9.5738 0.866643 6.18486
6.20484 0.111908 8.40271
4.75496 0.610578 3.10141
3.19418 5.16645 0.72801
4.35862 9.32395 8.01505
0 2.6817 3.13505
5.38915 3.38296 8.17924
0.822223 1.11788 1.70288
8.32682 3.64733 3.91472
8.85584 0.280337 3.0784
3.03185 0.590877 3.43366
4.53921 0.547661 3.7174
0.342586 3.33318 2.07556
8.01257 7.66906 1.91831
8.09371 3.57999 5.58894
2.11138 8.63199 2.88346
7.13419 0.730765 4.69606
8.24569 1.01356 8.19472
4.16403 9.25762 7.43697
3.23934 0.882445 4.31823
5.91712 0.318353 5.10855
4.55105 0.666149 4.00571
4.60424 0.546464 3.53965
0.387095 5.98295 0.35264
0.263539 3.49904 2.45682
3.06727 1.25013 2.76001
0.28149 2.24546 4.62659
4.30098 0.237287 3.6543
4.64804 8.82371 2.3639
2.64902 1.21989 9.42169
0.098076 9.06093 9.0374
5.21144 7.66926 9.02631
0.219553 1.9984 2.80245
8.7308 4.48423 8.25933
5.58506 0.277358 3.84308
3.93974 6.25706 1.98161
7.29475 0.776349 3.02784
6.40268 5.42252 3.14187
4.91583 0.268871 2.95909
4.77162 0.16658 4.28818
6.59009 8.48356 4.17183
5.3969 1.86839 9.83329
0.242149 9.59843 0.358828
1.85853 0.632878 10
5.43906 0.265249 3.53059
1.95484 0.554137 7.87894
3.35102 1.4635 0.0258755
4.65632 9.3322 8.53291
7.99782 2.60932 3.01963
4.84094 0.618219 3.8502
0.805397 7.47633 10
4.39585 0.321902 3.32717
8.49913 0.297385 0.95621
4.53677 2.61446 3.15726
8.80922 2.52112 0.955074
9.35565 5.77404 1.3365
9.44092 5.22806 0.756665
4.48894 0.54999 8.97863
9.13902 9.64202 0.976037
3.27969 7.88913 9.568
9.63451 0.788478 1.73003
4.52338 0.583327 3.8339
0.877994 3.86108 5.70623
8.53225 9.66471 9.51327
0.638065 3.9401 1.12414
8.31582 9.34935 7.43146
4.83653 4.99961 2.07387
6.30623 4.25865 7.71472
2.1408 0.737412 7.79164
4.59989 9.55967 8.69737
7.14851 9.75279 6.97551
2.10476 9.2438 0.633237
0 2.40357 1.50972
1.82948 6.92553 2.85152
0 0 1.90167
10 1.22417 5.99183
0.883642 8.18326 7.72422
2.98174 0.666635 1.27476
4.20325 0.331903 8.74452
4.39349 5.87985 8.97336
2.36159 4.62741 3.21089
5.10721 0.306476 4.09971
2.72939 9.34369 0.145868
6.48073 8.57829 2.47972
9.09859 4.78576 3.66616
6.44817 6.31234 4.99641
6.90029 1.47329 5.76687
5.30463 3.01699 8.32403
1.26345 8.45651 9.85763
7.75311 2.28156 3.16636
5.45024 0.35676 3.86622
6.60871 0.792695 1.29235
9.27616 1.1903 2.12621
2.07122 4.45719 8.54857
4.79188 7.38385 1.36987
7.0454 7.21886 2.96999
7.91148 6.71088 5.30687
4.55455 0.335636 3.9015
10 10 0.0682548
3.57345 5.45178 3.84363
7.28359 0.270973 9.77875
9.57706 8.18947 4.23481
1.61025 8.74188 8.35439
6.83378 0.927648 5.00645
0.459109 3.234 4.54058
3.2907 4.68624 9.62223
1.95174 0.560316 7.75212
4.87876 0.748786 4.27835
4.98728 0.5054 4.19274
5.40339 0.417636 3.68937
4.60765 0.433569 4.1578
9.30025 9.83266 0.0328903
0.660799 3.91264 6.99898
5.38621 0.630987 4.46878
2.77149 3.05339 0.380484
4.20931 0.371253 3.93612
8.2692 8.36366 9.45854
4.84263 0.758829 4.16658
4.75081 0.411397 3.87517
4.01039 5.63862 3.78679
7.42096 7.62654 3.79157
9.71557 7.77825 5.07505
8.69762 5.49467 10
6.76862 7.76602 0.117252
4.62893 0.658981 4.34848
9.14687 3.27094 9.513
8.67252 6.10068 0.547743
2.03148 5.10222 4.43662
3.98876 5.99085 7.72087
1.18039 2.33993 5.1252
1.21321 3.56572 7.44647
1.45422 1.01959 8.47364
5.88408 2.51266 9.51769
2.2375 0.792023 7.89281
4.96899 0.299482 4.03702
5.27815 0.664383 3.94386
7.81154 8.48175 5.72515
4.48043 0.510812 3.62443
8.21664 1.49598 0.116514
5.84839 5.35919 4.01813
4.6506 0.466601 4.01549
1.19065 1.8043 9.36753
2.33141 0 3.3627
0 9.06436 1.90449
9.07095 7.5982 5.27224
9.56075 0.287804 3.00977
0.596037 4.59485 5.61372
1.04583 6.87495 6.75275
4.78582 0.289435 4.03702
2.85269 1.59497 9.13744
7.12819 4.92404 8.60893
6.98023 7.10652 4.54001
5.32158 9.49197 1.42385
1.96561 1.7212 7.38567
1.97217 0.600845 7.92521
5.08551 0.511205 4.32566
4.8479 0.448493 4.44029
9.59607 0.128005 1.58716
5.0889 0.687458 3.94257
5.10772 0.675923 3.86121
6.477 1.32925 8.06688
5.28012 0.230034 4.10752
4.5804 0.405744 3.70397
2.71847 7.1694 9.28711
9.73793 6.41634 1.32121
2.4948 3.23004 5.98997
4.53974 0.310865 4.13777
8.78345 5.45473 8.5342
6.75886 6.37039 9.87119
4.84912 0.580903 3.6602
4.8976 0.196088 3.73071
9.55671 0.396025 1.7083
1.90737 0.757642 7.89467
1.8802 0.567545 7.87465
5.46845 0.543538 3.7701
4.36245 0.589808 3.72509
9.4307 0.583341 2.726
1.76266 0.686989 7.7627
4.17261 6.4302 5.7942
1.87561 0.876797 7.63619
6.51689 9.54768 5.24446
9.09653 0.692496 3.1235
1.6285 9.25764 2.32902
0.721517 9.54068 7.74209
4.69199 0.52362 3.78775
4.59071 0.38777 3.86483
9.46551 0.307226 2.95569
2.04865 0.433738 7.60083
1.50615 0.884736 8.09877
0.619428 0.209063 6.90359
5.67035 0.254682 4.21835
4.74342 0.153011 4.01914
4.50431 0.460589 3.62365
3.69892 7.44821 8.83057
4.87215 0 4.0251
4.36315 9.43928 3.42648
2.08405 0.578373 7.69274
4.70905 0.527332 4.22933
4.70844 0.744366 3.70399
1.89984 7.43791 8.43037
5.10283 1.96748 7.06318
4.78144 0.711461 4.34212
5.30034 0.07872 4.27365
1.92882 0.698403 8.12007
4.34603 0.248966 4.02355
7.2934 1.74389 0.57163
1.54776 0.894973 7.32045
5.14557 0.473915 4.23357
3.48504 4.29815 2.64404
10 9.88979 3.38373
8.65299 1.08806 1.92537
POINT_DATA 400
SCALARS particleColor float 3
LOOKUP_TABLE default
1 0.799294 0
1 5.96046e-08 0
0.943412 1 0.0565878
1 0.632469 0
1 0.912567 0
0.460271 1 0.539729
1 5.96046e-08 0
0.575514 1 0.424486
1 5.96046e-08 0
1 0.0595374 0
0.0420482 1 0.957952
1 5.96046e-08 0
1 0.903913 0
1 0.01583 0
1 0.824922 0
0.935459 1 0.0645412
1 5.96046e-08 0
0 0.553624 1
1 5.96046e-08 0
1 5.96046e-08 0
0.345542 1 0.654458
1 5.96046e-08 0
1 0.0361186 0
0.776823 1 0.223177
1 0.0675917 0
1 5.96046e-08 0
0.735934 1 0.264066
0.49338 1 0.50662
0.161904 1 0.838096
0.6637 1 0.3363
1 0.487444 0
0 0.418225 1
1 5.96046e-08 0
0 0.727227 1
0.935833 1 0.0641671
0 0.85373 1
0.99511 1 0.00489026
0 0.832763 1
1 0.337704 0
0.883421 1 0.116579
1 0.536719 0
0.0645213 1 0.935479
1 5.96046e-08 0
1 5.96046e-08 0
0 0.434395 1
0.806959 1 0.193041
0.416167 1 0.583833
1 0.219543 0
0.858293 1 0.141707
1 5.96046e-08 0
1 5.96046e-08 0
0.65018 1 0.34982
0.525263 1 0.474737
1 0.85107 0
1 5.96046e-08 0
1 0.809312 0
1 0.304328 0
0 0.939028 1
1 0.0622694 0
1 0.915687 0
1 0.821231 0
1 0.985477 0
1 5.96046e-08 0
0 0.874957 1
0.466796 1 0.533204
0 0.719079 1
0.26732 1 0.73268
0.59563 1 0.40437
0.0907679 1 0.909232
1 0.915595 0
0.455193 1 0.544807
0.43652 1 0.56348
1 0.508236 0
0.413327 1 0.586673
1 5.96046e-08 0
0.514082 1 0.485918
0.863983 1 0.136017
1 5.96046e-08 0
1 0.979433 0
1 0.864267 0
1 0.748982 0
1 0.429037 0
1 5.96046e-08 0
1 5.96046e-08 0
1 5.96046e-08 0
1 0.179869 0
0.733416 1 0.266584
0.923567 1 0.0764334
0.45832 1 0.54168
1 5.96046e-08 0
0 0.554229 1
0 0.413798 1
1 5.96046e-08 0
1 0.272095 0
0 0.63886 1
1 5.96046e-08 0
1 0.198389 0
1 5.96046e-08 0
0 0.755274 1
1 5.96046e-08 0
1 0.146031 0
1 0.126193 0
1 5.96046e-08 0
0.709176 1 0.290824
1 0.497635 0
1 0.697836 0
1 5.96046e-08 0
1 0.0375517 0
1 0.411945 0
1 5.96046e-08 0
1 0.149719 0
1 5.96046e-08 0
0 0.970454 1
1 0.336924 0
0 0.747754 1
1 5.96046e-08 0
1 5.96046e-08 0
1 0.610485 0
0.245861 1 0.754139
0.42994 1 0.57006
1 0.680861 0
1 5.96046e-08 0
1 5.96046e-08 0
1 5.96046e-08 0
1 5.96046e-08 0
0 0.683122 1
1 0.504004 0
1 5.96046e-08 0
0.229124 1 0.770876
1 5.96046e-08 0
1 0.0857908 0
1 5.96046e-08 0
1 0.00996071 0
0.423587 1 0.576413
1 5.96046e-08 0
1 0.976655 0
1 5.96046e-08 0
0.70802 1 0.29198
1 0.727428 0
0 0.510377 1
0 0.501492 1
1 0.196476 0
1 0.995865 0
1 5.96046e-08 0
1 5.96046e-08 0
0.5552 1 0.4448
1 0.998551 0
1 0.603416 0
1 0.780798 0
1 0.894533 0
0 0.223303 1
1 5.96046e-08 0
1 5.96046e-08 0
0.642696 1 0.357304
1 5.96046e-08 0
1 5.96046e-08 0
0.687564 1 0.312436
0.710806 1 0.289194
1 0.854699 0
0 0.655969 1
1 5.96046e-08 0
0.481227 1 0.518773
1 5.96046e-08 0
1 5.96046e-08 0
1 5.96046e-08 0
1 0.610849 0
1 5.96046e-08 0
1 5.96046e-08 0
1 5.96046e-08 0
1 0.726533 0
1 0.130423 0
1 0.648603 0
0.434784 1 0.565216
1 0.0883682 0
1 0.0749655 0
1 0.45193 0
1 5.96046e-08 0
1 0.493809 0
1 5.96046e-08 0
1 0.880708 0
0.598311 1 0.401689
1 0.995847 0
0 0.78436 1
0 0.628477 1
1 5.96046e-08 0
1 5.96046e-08 0
0 0.262598 1
0.614637 1 0.385363
1 0.379786 0
1 0.788727 0
0.460885 1 0.539115
0 0.671878 1
0.612822 1 0.387178
1 0.882416 0
1 0.741592 0
1 0.77234 0
0.942585 1 0.0574152
0.604228 1 0.395772
0.731205 1 0.268795
0 0.387583 1
0 0.365465 1
1 0.165503 0
0.484631 1 0.515369
1 5.96046e-08 0
1 0.8651 0
1 0.179042 0
1 0.196111 0
1 0.765634 0
1 0.707701 0
1 0.779254 0
0 0.265529 1
0 0.487557 1
0.374245 1 0.625755
1 0.551962 0
1 0.716945 0
1 0.0115641 0
0 0.456925 1
0.853898 1 0.146102
1 0.992499 0
1 5.96046e-08 0
0.415537 1 0.584463
1 5.96046e-08 0
1 5.96046e-08 0
0 0.33047 1
1 0.661965 0
1 5.96046e-08 0
1 0.469942 0
0 0.576015 1
0 0.358727 1
1 5.96046e-08 0
0.729327 1 0.270673
1 0.868922 0
0.128201 1 0.871799
0 0.493205 1
0 0.737792 1
1 5.96046e-08 0
1 5.96046e-08 0
1 5.96046e-08 0
0 0.143356 1
1 0.333175 0
0 0.451841 1
0 0.890764 1
1 0.0406738 0
0 0.745736 1
1 5.96046e-08 0
0.669243 1 0.330757
1 5.96046e-08 0
1 0.237849 0
1 5.96046e-08 0
1 5.96046e-08 0
0 0.616007 1
0.333656 1 0.666344
1 5.96046e-08 0
0.902161 1 0.0978394
1 5.96046e-08 0
0.540494 1 0.459506
1 0.500298 0
0 0.670448 1
1 0.143507 0
1 5.96046e-08 0
0.859284 1 0.140716
1 0.459113 0
0.41368 1 0.58632
1 5.96046e-08 0
1 5.96046e-08 0
1 5.96046e-08 0
0.78691 1 0.21309
1 0.935509 0
1 5.96046e-08 0
0.453093 1 0.546907
0 0.573653 1
0 0.653349 1
0 0.823946 1
0.794449 1 0.205551
1 5.96046e-08 0
0.755329 1 0.244671
1 0.281691 0
1 5.96046e-08 0
1 5.96046e-08 0
0 0.254499 1
1 5.96046e-08 0
0 0.23442 1
0.458106 1 0.541894
1 5.96046e-08 0
1 5.96046e-08 0
1 5.96046e-08 0
0 0.648203 1
1 5.96046e-08 0
0.871603 1 0.128397
0.96844 1 0.0315603
1 5.96046e-08 0
1 0.031738 0
1 5.96046e-08 0
1 5.96046e-08 0
1 5.96046e-08 0
0 0.265537 1
0 0.567303 1
0 0.603254 1
0 0.830414 1
0 0.894233 1
1 5.96046e-08 0
1 0.462088 0
0 0.623905 1
0.813949 1 0.186051
0 0.888336 1
0.816894 1 0.183106
0 0.671253 1
0 0.129036 1
1 0.261596 0
1 0.431786 0
1 0.466697 0
1 0.46061 0
0.00768232 1 0.992318
0 0.633965 1
1 0.620224 0
0.182363 1 0.817637
1 5.96046e-08 0
0.473427 1 0.526573
1 0.545581 0
1 0.562875 0
0 0.739958 1
1 5.96046e-08 0
0 0.630638 1
0 0.522361 1
0.226495 1 0.773505
1 0.477536 0
0 0.490469 1
1 0.876277 0
0.577232 1 0.422768
0 0.408218 1
0 0.832775 1
1 5.96046e-08 0
1 0.649704 0
0.400447 1 0.599553
0 0.883619 1
1 5.96046e-08 0
1 0.979771 0
0 0.386608 1
1 5.96046e-08 0
1 0.429928 0
0.358159 1 0.641841
1 5.96046e-08 0
0 0.685639 1
0 0.683866 1
0.0273731 1 0.972627
0.272235 1 0.727765
0.33767 1 0.66233
0 0.634011 1
0 0.892632 1
1 0.0193931 0
0 0.365332 1
0 0.78075 1
0.970585 1 0.0294149
1 5.96046e-08 0
0 0.645725 1
0 0.796885 1
0 0.454873 1
1 0.822398 0
0 0.58484 1
0 0.426827 1
0 0.769765 1
0 0.451473 1
0 0.39985 1
0 0.831601 1
0.0152143 1 0.984786
0 0.978565 1
0 0.420959 1
0.233022 1 0.766978
0 0.436698 1
1 0.338549 0
0 0.205522 1
0.105791 1 0.894209
1 5.96046e-08 0
0.358139 1 0.641861
0.0690363 1 0.930964
0 0.841786 1
0 0.278641 1
0 0.700579 1
0 0.648924 1
0 0.151028 1
0 0.787802 1
0 0.212487 1
0.235055 1 0.764945
0 0.339461 1
0.522706 1 0.477294
0 0.295748 1
0 0.182035 1
0 0.419748 1
0.188295 1 0.811705
0.20199 1 0.79801
0 0.981902 1
0 0.422479 1
0 0.788462 1
0 0.652933 1
1 0.779317 0
0 0.94461 1
0 0.643211 1
1 0.924703 0
0.642768 1 0.357232
0 0.968308 1
