# vtk DataFile Version 3.0
Particle simulation
ASCII
DATASET POLYDATA
POINTS 400 float
7.08129 2.35366 9.51684
0.355825 3.53202 2.67327
0.466025 2.39401 3.3768
2.67804 0.528161 1.01462
9.27024 0.743111 3.61302
6.39124 3.7861 5.37297
8.03423 3.67599 2.52412
4.22319 5.09615 0.437486
8.41961 4.81668 0.163823
7.00868 0.600661 4.03957
4.34551 1.04048 0.759604
2.71709 0.974828 2.4976
9.07178 7.5524 6.08223
3.70293 0.405875 0.668284
6.72309 2.53165 2.96648
9.78208 3.58273 8.51991
2.76329 6.28193 0.564399
2.05876 0.246563 2.98816
0.980043 6.80452 9.21118
7.11953 0.606826 3.79372
3.24035 0.588498 2.21347
1.27182 0.668552 0.54651
4.30951 7.33944 6.47295
7.65806 0.494221 4.18981
8.47128 9.11448 10
2.882 0.524568 2.99347
8.60637 3.0102 1.09522
3.11003 0.0589153 2.10164
8.17442 0.381885 6.79294
1.62383 0.62242 3.11682
8.09197 7.64106 4.89327
9.37855 0.292652 1.54164
4.91933 0.20682 8.85447
7.69427 0.441077 4.22598
1.64143 0.0788208 2.72365
0.441118 0.593419 0.868996
7.33818 0.683843 9.36284
2.62755 0.408958 1.50916
6.3142 0.773876 0.241067
4.13641 1.8137 1.81099
4.07097 0.184592 4.19688
8.46051 6.47567 4.7396
4.42461 6.50636 6.12132
7.38075 2.4071 5.04345
8.6055 0.240993 8.03624
5.59008 0.57129 1.89166
6.57705 2.25189 6.88324
2.56265 0.251689 1.86627
5.85901 0.29726 1.85095
5.62216 8.10345 7.51548
0.574729 3.63275 2.64542
8.30016 6.68986 4.68498
6.8812 0.54166 6.09249
7.20779 0.91047 3.87072
8.86528 0.065366 8.47199
5.68509 0.467446 1.81051
5.06948 0.168676 8.62579
2.31544 0.185223 2.02775
5.82092 0.274096 1.9117
0.85266 3.83597 7.64682
6.51814 2.00639 9.36207
5.12955 0.340352 8.91846
3.15776 0.488184 0.333566
7.08964 0.53035 3.85424
7.42782 0.331094 4.40133
7.78058 0.612934 4.855
7.27198 0.33046 6.97896
0.40798 4.0184 2.77205
6.00149 0.259813 1.9209
5.00742 0.347044 8.87096
5.08991 0.305479 9.32787
2.53983 1.10842 2.60219
9.11189 1.86935 4.09471
7.06124 0.534341 3.85349
6.9602 1.00332 9.64041
6.79529 0.548684 9.33625
7.23102 0.309659 6.96656
5.21662 0.410847 8.44932
5.94608 0.894887 1.32773
3.31113 0.50126 7.12681
2.48026 0.416149 1.53647
1.4947 0.602933 2.87045
2.05346 0.716512 1.97075
2.26479 0.488725 1.91383
4.83923 0.597477 7.82949
4.88307 0.477494 7.39815
4.60405 0.715943 8.06361
9.23742 0.800772 1.69332
4.74435 0.996244 1.07222
9.04027 0.329565 1.35692
2.56406 0.218534 1.54087
1.89655 0.256316 0.757649
0.881593 3.00914 9.75631
2.26237 0.448963 1.90217
4.85305 0.59795 7.79965
4.92043 0.410895 7.42323
4.54778 0.852219 8.8978
2.3642 0.46304 1.15427
4.38014 0.415549 5.77688
8.99921 0.304991 1.35286
2.53972 0.560326 0.32962
4.93401 0.0986056 9.70112
0.519914 1.00936 0.825605
6.92561 0.376063 7.0665
7.70215 1.81704 0.278923
2.40023 0.467628 1.87745
4.48222 0.939059 8.84451
5.5754 0.41387 2.07875
5.95949 0.280344 1.98555
9.70855 0.170749 1.69747
0.531078 2.52936 3.35959
7.60285 1.30569 4.09613
3.86584 0.549772 2.59719
9.24015 0.247322 1.22239
2.51652 0.105384 2.10678
3.07508 0.57207 1.00771
4.79869 0.314709 8.46239
5.88349 0.357502 2.75497
5.94106 0.244591 2.00738
0.32122 0.814613 0.834862
2.61259 0.393926 1.64206
9.56459 3.6749 1.90559
6.60702 3.20485 8.61521
4.70353 0.549189 8.65308
5.50225 0.817916 7.53303
1.99395 0.337316 3.05764
2.20079 0.478788 1.38244
7.63802 0.729023 4.07217
0.777447 1.98009 6.95397
2.99034 0.0459371 0.676835
2.68106 0.269677 1.71283
6.08017 0.621339 1.44791
4.74995 0.408668 8.2284
7.71506 0.396134 7.16932
4.4199 0 5.65434
2.11068 0.528721 2.5935
2.41712 5.1773 10
7.58662 0.723487 4.04211
5.65769 0.421499 7.74794
6.58114 0.561091 6.60552
2.1545 0.459361 1.86625
6.29643 0.476106 6.17758
0.270542 0.435096 7.48934
0.907231 0.546035 1.12118
2.60476 0.482693 1.54428
2.66842 0.803286 0.788596
7.96121 0.146488 7.95174
2.09503 0.304598 2.67751
2.08551 0.384509 2.18415
2.00947 0.677392 3.37967
2.15164 0.473824 1.83884
6.88275 0.455309 6.55686
2.57364 0.22462 1.41236
4.65821 0.725432 8.72566
2.99714 2.71839 0.452217
2.37555 0.671596 1.30554
8.13513 0.140579 7.86404
2.39447 0.239016 1.65137
7.01221 0.341629 6.6155
3.27137 0.288976 2.31345
0.434756 0.543297 1.02203
0.368789 2.64222 3.15493
5.18463 0.573195 7.99993
1.90857 0.863354 2.88356
0.608773 3.66381 2.59434
6.79608 0.575776 6.50734
5.50059 0.578193 8.60333
4.77041 0.315477 8.73924
6.61432 3.24592 9.15664
10 0.553645 1.62278
2.87332 0.826453 0.847217
2.21207 0.585434 1.29805
4.93293 0.618278 8.51189
2.49156 0.692341 1.65496
1.74584 0.470013 2.58881
0.306386 1.27465 0.457022
4.82962 0.354072 8.67692
5.25629 0.497335 9.17376
5.57185 0.526641 8.40777
3.03405 0.705177 2.64521
2.29592 0.389916 1.83822
2.3123 0.655366 3.08346
6.28697 3.29275 9.02166
2.52889 0 1.87076
5.16627 0.521922 7.89621
1.69971 0.145232 2.18393
2.57452 0.433644 1.75153
0.972065 2.90644 9.9191
3.82587 0.118638 5.08612
2.44366 0.538257 1.29073
2.27627 0.388944 1.79357
2.34095 0.647503 2.26277
5.072 0.522534 8.70637
2.23884 3.89416 2.24179
7.26738 9.20138 9.72663
2.40507 0.129194 1.74542
3.76386 0.481046 2.63068
2.38955 5.33179 9.33031
1.83902 0.689517 2.94997
1.75852 0.343494 3.10813
4.06394 0.53988 2.665
6.03561 0.468369 1.71933
9.17447 0.22255 8.27886
4.77295 0.438873 8.77868
9.06069 0.0602355 8.1936
4.80745 0.339542 8.26744
2.65794 0.420017 1.54788
3.76519 0.617764 0.869799
2.81462 0.555673 1.01993
9.08345 0.356631 1.2431
2.29272 0.247986 1.65129
5.67313 0.0527788 1.67053
4.85687 0.7747 7.82774
6.65148 0.734708 6.13845
6.72782 0.764705 4.55874
4.87598 0.301193 8.41597
2.6776 0.420043 1.52796
4.10569 0.417478 2.98868
2.14239 0.104445 2.65929
8.83982 0.321382 1.17369
6.55013 5.93932 5.75175
4.15185 0.195933 7.13723
4.85378 0.507604 8.139
2.66434 0.353387 1.78753
4.77466 0.530415 8.42475
2.57241 0.822099 1.81997
7.08776 2.69386 3.28202
2.26031 0.664565 1.23097
3.16868 0.220311 1.90071
4.82723 0.958598 9.09978
7.25969 0.903411 3.83986
5.38712 0.25539 7.63052
8.39067 0.19241 7.84114
2.35872 0.52742 1.66513
5.02254 0.80072 8.62515
2.2214 0.783698 3.68015
7.82853 0.0920785 8.27371
3.21811 0.809422 3.10599
2.71178 0.573202 1.7397
3.05013 0.541686 1.14091
3.60353 0.105415 2.17583
2.6392 0.537917 2.98233
2.27056 0.302183 1.44178
3.95522 0.404805 2.47432
5.24548 0.240128 8.12441
1.38491 0.65777 2.61134
3.30644 0.0332722 0.792585
5.30277 0.711516 8.30071
6.12414 0.535987 2.04181
5.06459 0.297309 8.38725
2.20767 0.71434 1.38806
5.82336 0 2.1696
4.9516 0.541941 8.25344
1.59526 0.541295 0.380331
8.44842 0.267715 8.00288
2.47433 0.556259 1.81674
9.66745 0.401186 1.03484
5.06636 0.761431 8.39176
6.15774 0.476346 2.0466
5.07378 0.307799 8.32007
2.21406 0.401634 2.82073
6.43812 6.23762 5.90082
4.72178 0.697399 8.5559
7.15222 1.01578 3.92899
5.35702 0.473797 8.85077
3.57333 0.028939 4.76068
7.1636 1.17621 3.79266
5.53493 0.524418 7.9831
8.37311 0.0901079 7.91266
2.13035 0.390497 1.1713
2.26241 0.538197 2.43839
8.10149 7.35259 5.66519
1.98153 0.310268 0.588954
6.96858 0.374431 3.72226
4.88914 0.757199 7.71279
5.17997 0.819959 9.39782
7.37195 0.745142 4.42539
4.36658 9.52691 8.58211
8.31615 0.16655 7.70108
2.31231 0.31291 1.85045
9.67138 0.292974 0.961053
5.61356 0.257731 1.84576
5.85668 0.447444 2.10935
7.30152 0.821527 4.01564
9.8477 0.229236 8.86607
9.196 0.313679 8.39394
1.945 0.274314 2.68961
1.70791 0.804026 2.40955
6.70846 0.800104 6.5946
9.24958 1.9892 3.90662
9.59884 0.309902 0.966727
5.68536 0.372612 1.68418
3.32004 0.412254 2.75577
7.00861 0.486746 3.94912
5.41012 0.551954 7.59382
4.98537 0.633929 8.31374
2.19537 0.617682 2.65859
2.81268 0.395434 2.03776
2.5355 0.22748 1.20859
1.94414 0.805619 3.16951
8.794 0.169552 1.12647
6.81491 0.572917 6.62847
3.61681 0.904294 0.631191
5.45798 0.776885 1.85365
2.85113 0.452715 0.938531
6.30166 0.53699 2.36029
3.81692 0.914244 2.77677
2.80529 0.640823 1.68455
3.15924 0.545035 1.17165
2.96941 0.574224 2.57565
6.68483 0.703227 4.03358
7.23796 0.196511 6.82642
8.70038 0.251106 7.91544
3.86423 0.456184 2.2104
2.2261 0.459026 1.0823
6.92496 1.18648 3.59046
1.75833 0.618312 2.88576
6.76283 0.632355 4.70902
5.65761 0.453423 1.73836
2.07856 0.383401 1.0504
4.50835 0.89208 8.47475
2.06595 0.559861 0.675495
5.05523 0.211424 8.25258
3.58156 0.393688 2.25965
8.89696 0.309198 1.53375
8.97676 0.701816 1.3988
2.35869 0.191207 1.97614
5.85476 0.268586 2.01504
9.48905 0.2607 1.29825
3.46096 0.37083 2.66638
4.60953 0.851833 8.61585
2.87733 0.234167 1.83209
5.16407 0.639297 8.24077
2.44161 0.669468 1.64685
9.36195 0.283536 1.20702
4.78378 0.35214 8.55691
3.16085 0.814785 2.82449
2.04768 0.395946 3.11895
9.7499 0.37221 1.22528
2.29626 0.33037 1.53718
4.83652 0.669886 9.0788
2.84325 0.677019 1.94441
4.75934 0.445587 8.35937
4.37849 0.334642 8.60473
2.73797 0.325893 1.5673
2.52961 0.466829 1.99713
5.50954 0.241032 1.61572
2.37061 0.298295 1.19624
2.61213 0.34586 2.157
2.54401 0.287063 1.30905
2.48876 0.421578 1.58618
2.48235 0.219852 1.63483
5.43079 0.401477 8.22133
4.37998 0.332686 8.64187
1.97584 0.0586605 1.75431
3.48751 0.291338 2.56904
6.1371 0.154277 1.99039
5.14346 0.338724 7.97607
2.91294 0.476139 2.13427
2.00809 0.659823 2.98502
5.70749 0.138175 1.59515
6.69456 0.269988 6.63544
4.60756 0.746337 7.79929
3.21654 0.453475 2.69458
3.00165 1.06034 1.03476
8.48712 0.204889 7.9412
4.67901 0.476228 8.34879
4.34477 0.528683 7.91612
4.86495 0.141139 7.78623
2.95959 0.51655 0.75298
5.73373 0.134496 1.59948
6.77378 0.350588 6.61552
4.62164 0.732599 8.0821
3.08026 0.572787 1.12758
2.1608 0.453843 0.551953
8.19693 0.247331 7.72709
5.05439 0.793461 8.07828
4.901 0.276846 7.93045
4.43943 0.693524 8.22915
1.95991 0.191404 2.1355
2.6168 0.462515 1.85826
2.29331 0.443962 1.85177
4.72548 0.532144 8.07757
2.27132 0.368591 1.59177
6.90312 0.771891 3.98571
5.24347 0.216348 7.78563
1.86423 0.338402 2.62039
2.41932 0.346917 1.50073
7.61112 0.878953 4.04038
6.17814 0.419435 1.82599
2.64966 0.487023 1.83189
2.42248 0.406235 1.93841
4.46343 0.572678 8.06937
2.39647 0.46359 1.46405
6.92687 0.794708 3.97847
4.9176 0.804743 8.45327
1.86929 0.40205 2.59034
3.18173 0.705194 1.4646
9.45775 0.463232 1.48601
6.16659 0.422649 1.79879
POINT_DATA 400
SCALARS particleColor float 3
LOOKUP_TABLE default
0.231853 1 0.768147
0.251311 1 0.748689
0.0215524 1 0.978448
0 0.24412 1
0 0.488407 1
0.461479 1 0.538521
0 0.384311 1
0 0.721756 1
0.144274 1 0.855726
0 0.687417 1
0.114678 1 0.885322
0 0.588375 1
0.238553 1 0.761447
0 0.190308 1
0.22548 1 0.77452
0 0.580342 1
0 0.262639 1
0 0.843922 1
0.0942563 1 0.905744
0 0.858524 1
0 0.179965 1
0.745148 1 0.254852
0.0425031 1 0.957497
0 0.856255 1
0 0.631493 1
0 0.62317 1
1 0.0409791 0
0 0.443058 1
0 0.972878 1
0 0.397296 1
0.575962 1 0.424038
0 0.269726 1
0.255309 1 0.744691
0 0.652632 1
0 0.746666 1
0 0.351502 1
0 0.646059 1
0 0.66114 1
0 0.288746 1
0 0.444162 1
0 0.625047 1
0 0.169503 1
0 0.392753 1
0.563032 1 0.436968
0 0.621203 1
0 0.245218 1
0.238641 1 0.761359
0 0.729275 1
0 0.36643 1
1 0.98635 0
0 0.252579 1
0 0.413661 1
0 0.958475 1
0 0.867507 1
0 0.461709 1
0 0.282452 1
0 0.885076 1
0 0.6021 1
0 0.211984 1
0 0.501666 1
0.485213 1 0.514787
0.065303 1 0.934697
0.395258 1 0.604742
0 0.792627 1
0.0394827 1 0.960517
0 0.975309 1
0 0.549468 1
0 0.548718 1
0 0.568956 1
0 0.889309 1
0.179939 1 0.820061
0 0.627553 1
0 0.893373 1
0 0.8198 1
0 0.783218 1
0 0.886859 1
0 0.279089 1
0 0.610709 1
0 0.256085 1
0 0.983096 1
0 0.479203 1
0 0.375843 1
0 0.681735 1
0 0.53211 1
0 0.861193 1
0 0.46539 1
0 0.540464 1
0.054761 1 0.945239
0 0.907526 1
0 0.368667 1
0 0.627989 1
0 0.566098 1
0.00111343 1 0.998887
0 0.511008 1
0 0.754645 1
0 0.211248 1
0 0.458693 1
0 0.941738 1
0 0.632039 1
0 0.360848 1
0 0.460918 1
0.0850353 1 0.914965
0 0.586835 1
0 0.594487 1
0 0.498202 1
0 0.524235 1
0 0.634723 1
0 0.64212 1
0 0.382705 1
0 0.440383 1
0 0.627006 1
0 0.504841 1
0 0.569639 1
0 0.187048 1
0 0.307007 1
0 0.891044 1
0 0.602919 1
0 0.476299 1
0 0.150849 1
0 0.668473 1
0 0.663997 1
0 0.457451 1
0.175885 1 0.824115
0.187103 1 0.812897
0.293208 1 0.706792
0 0.528594 1
0.0250328 1 0.974967
0 0.297051 1
0 0.547499 1
0 0.87388 1
0 0.556898 1
0.0580444 1 0.941956
0 0.631089 1
0 0.724113 1
0.478614 1 0.521386
0 0.704642 1
0 0.41046 1
0 0.525251 1
0 0.742877 1
0 0.417268 1
0 0.483669 1
0 0.279553 1
0.133811 1 0.866189
0 0.914932 1
0 0.709504 1
0 0.424531 1
0.0935037 1 0.906496
0 0.60499 1
0 0.527968 1
0 0.806594 1
0 0.490173 1
0 0.914881 1
0.0747788 1 0.925221
0.139168 1 0.860832
0 0.355629 1
0 0.313458 1
0 0.693166 1
0 0.213338 1
0.0212504 1 0.97875
0 0.431103 1
0 0.800767 1
0 0.668021 1
0 0.807115 1
0 0.549151 1
0 0.740278 1
0 0.316891 1
0 0.54758 1
0 0.25859 1
0.0225548 1 0.977445
1 0.534081 0
0 0.496829 1
0 0.90568 1
0.202402 1 0.797598
0.25322 1 0.74678
0 0.800354 1
0.0501945 1 0.949805
0 0.549547 1
0 0.552404 1
0 0.771236 1
0.277844 1 0.722156
0 0.633639 1
0 0.375142 1
0 0.905383 1
0 0.883617 1
0 0.658197 1
0 0.233553 1
0.242557 1 0.757443
0 0.771626 1
0.620038 1 0.379962
0 0.675688 1
0 0.571789 1
0 0.785654 1
0 0.805816 1
0 0.357759 1
0.679077 1 0.320923
0 0.678131 1
0 0.606423 1
1 0.79944 0
0 0.715052 1
0 0.901019 1
0 0.441208 1
0 0.472233 1
0.0651415 1 0.934859
0.250692 1 0.749308
0.352942 1 0.647058
0 0.527452 1
0 0.715905 1
0 0.675819 1
0 0.710547 1
0 0.621566 1
0 0.851629 1
0 0.455139 1
0 0.800896 1
0 0.341624 1
0 0.825951 1
0 0.769001 1
0 0.688879 1
0 0.580843 1
0.279655 1 0.720345
0 0.362366 1
0.172731 1 0.827269
0.432965 1 0.567035
0.0746372 1 0.925363
0 0.304881 1
0 0.0836094 1
0 0.487593 1
0 0.580222 1
0 0.894693 1
0 0.586568 1
0 0.286918 1
0 0.635427 1
0 0.535884 1
0 0.242644 1
0 0.426511 1
0 0.571831 1
0 0.776366 1
0 0.6737 1
0 0.518303 1
0.0130693 1 0.986931
0.105636 1 0.894364
0 0.485611 1
0 0.79933 1
0 0.623329 1
0 0.59649 1
0 0.6549 1
0 0.593924 1
0 0.745023 1
0 0.488763 1
0 0.519741 1
0 0.419687 1
0 0.614801 1
0 0.871523 1
0 0.446135 1
0 0.359439 1
0 0.777371 1
0 0.553355 1
0 0.767772 1
0 0.546868 1
0 0.560982 1
0 0.417609 1
0 0.353821 1
0 0.783439 1
0.177571 1 0.822429
0.258307 1 0.741693
0 0.843982 1
0.461741 1 0.538259
0.0842268 1 0.915773
0 0.334085 1
0.0798754 1 0.920125
0 0.669667 1
0 0.686517 1
0.0198565 1 0.980144
0 0.581266 1
0.174263 1 0.825737
0 0.387143 1
0 0.782 1
0 0.68875 1
0 0.715048 1
0 0.378312 1
0 0.543697 1
0 0.368677 1
0 0.760961 1
0.232426 1 0.767574
0 0.411175 1
0 0.694774 1
0 0.589571 1
0 0.669171 1
0 0.764836 1
0 0.452024 1
0.535616 1 0.464384
0 0.438382 1
0 0.806047 1
0 0.779307 1
0 0.682721 1
0 0.534678 1
0 0.790512 1
0 0.562948 1
0.208911 1 0.791089
0 0.61281 1
0 0.23084 1
0 0.72921 1
0 0.492172 1
0 0.363507 1
0 0.537231 1
0 0.479963 1
0 0.742712 1
0 0.576926 1
0 0.69196 1
0 0.781282 1
0 0.621437 1
0 0.787892 1
0 0.81447 1
0 0.252002 1
0 0.290083 1
0 0.794017 1
0 0.62503 1
0 0.608653 1
0.21116 1 0.78884
0 0.475067 1
0 0.493038 1
0.0221429 1 0.977857
0 0.609459 1
0 0.528203 1
0 0.575032 1
0 0.868055 1
0 0.321747 1
0 0.896168 1
0 0.857074 1
0.265618 1 0.734382
0 0.339178 1
0 0.890872 1
0 0.356117 1
0 0.682831 1
0 0.455999 1
0 0.652369 1
0.160644 1 0.839356
0 0.501627 1
0 0.511134 1
0 0.575891 1
0 0.965347 1
0 0.688296 1
0 0.354707 1
0 0.673751 1
0.209092 1 0.790908
0 0.91878 1
0 0.733586 1
0 0.400315 1
0.140622 1 0.859378
0 0.623791 1
0 0.665628 1
0.367465 1 0.632535
0 0.897976 1
0.0720628 1 0.927937
0 0.959529 1
0 0.746087 1
0 0.238334 1
0.114496 1 0.885504
0.263237 1 0.736763
0 0.58066 1
0 0.406515 1
0 0.580541 1
0.0869487 1 0.913051
0 0.6028 1
0 0.323102 1
0 0.837862 1
0 0.24487 1
0 0.383015 1
0 0.68548 1
0 0.809807 1
0 0.711702 1
0 0.563111 1
0 0.798698 1
0 0.647134 1
0 0.587643 1
0 0.806108 1
0 0.782343 1
0 0.474242 1
0 0.740143 1
0 0.491165 1
0 0.668101 1
0 0.901007 1
0 0.844078 1
0 0.275727 1
0 0.228046 1
0 0.787266 1
0.0269321 1 0.973068
0 0.574372 1
0 0.85158 1
0 0.733225 1
0 0.723372 1
0 0.925798 1
0 0.391472 1
0 0.43588 1
0 0.92652 1
0 0.727208 1
0.659157 1 0.340843
0 0.488117 1
0 0.493902 1
0.00527618 1 0.994724
0 0.851404 1
