# vtk DataFile Version 3.0
Particle simulation
ASCII
DATASET POLYDATA
POINTS 400 float
6.73967 7.46776 0.00808537
6.27133 7.89008 2.94957
9.50696 6.15067 6.68203
9.72447 7.47815 9.28217
2.45854 8.24391 4.37343
9.75212 8.56599 1.85396
0.556436 10 9.23335
1.56625 5.4892 3.60218
7.22242 7.42791 7.53159
8.36936 4.09322 2.26642
7.57095 2.93215 7.11978
2.0708 1.0461 3.46477
2.69744 7.08437 7.95239
6.4776 9.53158 5.81476
8.87871 5.31276 9.68365
6.64181 6.7877 5.84133
9.05983 7.45086 9.02381
3.54128 0.657616 1.24746
0.918481 1.68126 6.71457
0 9.146 7.43703
3.43704 0.154604 1.3544
0.787495 1.88077 2.16589
9.5557 2.6388 7.60907
0.736325 3.01169 1.99534
1.23139 4.73076 2.10993
9.23657 8.48833 2.43299
9.1336 7.86229 7.9684
7.77296 6.98485 8.56268
7.71425 5.94631 2.76102
0.622804 4.5145 3.79801
2.32509 3.53273 8.46332
6.2488 5.78658 0
6.59657 10 2.5205
2.83874 5.25905 4.16425
9.02344 3.18994 7.83197
8.01194 10 5.96691
0.869581 9.66946 2.53742
3.50501 0.490694 1.54456
9.38773 3.12905 1.91923
2.21524 6.42711 8.53799
4.95919 3.89406 9.93677
0.511189 8.45628 9.34108
5.2509 6.01806 3.91279
3.35295 0.787698 2.17532
7.27701 0.339406 0.632468
3.12467 5.88869 0.6955
6.36795 9.13756 7.01073
9.17156 2.25063 1.7639
4.92942 1.99688 3.05255
8.87668 0.160816 5.47624
4.94491 6.35327 5.93968
0 6.39102 2.55673
9.65039 6.84323 4.93189
0.808598 7.87337 7.05469
2.62171 1.05593 10
5.17716 0.510762 2.77792
0.520873 4.73479 2.03674
6.9666 9.69622 0.595903
1.50885 5.42317 4.75575
6.74559 7.14056 0.556401
8.35467 4.29084 0.520892
0.204211 10 2.35762
4.19744 0.472755 3.59343
8.99898 6.534 3.15149
6.9755 0.0577984 8.37631
2.2695 8.62959 3.22807
7.79409 2.18677 7.04421
7.33232 4.93103 5.39146
6.10367 5.49001 6.86516
0.441014 9.5237 6.99734
1.78297 6.8796 2.74627
3.12422 2.89856 1.44394
7.62634 0.0715338 5.15781
3.60992 1.73386 6.46227
2.11267 1.15211 8.90122
5.66321 4.21018 9.25031
1.09138 7.70721 7.59039
2.51002 6.0836 2.04721
0.296502 5.27266 1.26867
3.29058 4.00734 3.66279
3.32167 0.59416 1.6361
3.35184 1.70226 4.74595
1.20711 0.838024 7.88421
6.83971 10 10
9.65888 2.23169 8.819
0.30994 7.76695 7.87761
4.08485 1.51243 7.81795
7.29566 7.66864 6.58997
4.6609 1.12434 5.59465
0.96836 3.71954 0.937765
3.74702 0.397539 1.38406
2.65013 9.95783 3.23176
2.33772 9.61914 8.00737
10 7.19135 4.41914
2.32304 5.39844 3.74297
7.00676 4.62892 7.71178
4.65958 3.59232 3.76226
2.02869 8.31655 6.61458
6.19192 6.99015 0.302055
1.00839 9.47473 3.95856
3.13894 0.554584 2.45151
2.63046 4.52576 9.39852
5.67788 3.59342 0.602309
5.47167 1.54904 1.39639
8.5105 5.33538 4.63938
0.574462 0.510947 4.84489
8.18383 7.84175 1.72644
4.76778 7.57711 2.78981
10 6.55753 9.27149
5.023 2.78031 7.4314
5.08435 3.43029 7.99586
6.77773 3.64086 3.29756
4.46677 7.79537 6.42876
5.84887 2.19494 5.8988
0.321743 0.600576 1.31161
7.32114 3.96503 0.341245
2.25016 0.89683 9.24543
9.4793 2.21607 7.4291
6.60456 1.03907 3.53982
9.06543 5.09609 5.22921
3.14785 0 0
6.21204 0.735128 9.3048
8.04558 8.00177 9.20185
3.42889 4.33327 8.02831
9.85744 5.53416 2.81221
2.88515 0.122263 1.60979
0.056174 2.34552 10
3.18066 3.93943 9.61019
4.67252 1.89378 2.63955
1.1426 7.91318 7.25237
7.54038 8.32087 4.24985
8.08195 5.14416 1.60035
1.7981 4.18499 8.99834
5.61274 1.46401 1.69048
0.343892 0.372458 7.28608
6.63798 3.44218 0.298548
7.87543 0.285296 9.18473
4.42156 1.61331 6.8508
3.67274 2.58286 9.16343
1.76007 7.65416 1.44291
2.72228 0.215666 1.67001
9.1416 7.69329 4.29494
5.8136 5.12269 5.975
1.89293 4.76331 10
0.0702641 0.309098 1.35558
3.82832 3.83149 3.63784
4.94338 2.90613 9.93824
4.70929 8.55875 6.41923
1.60381 2.30024 0.576063
8.47552 5.35198 3.52668
3.06607 0.148486 1.57413
10 7.76497 2.75168
9.19809 0.472279 5.0723
3.32179 0.203554 1.47448
4.77067 5.35539 4.71123
5.46065 0.576512 2.73351
1.71145 8.95355 1.85102
1.26896 0.440743 0.805656
9.11931 9.2455 9.16382
3.10609 0.668687 6.69157
4.84621 1.43844 7.41532
9.09604 4.97518 8.11764
4.04566 8.6787 5.29674
0.443207 0.323224 9.5696
2.90235 1.46491 0.265382
2.35792 3.41254 9.3704
5.91765 8.12449 7.41366
8.96887 3.94856 4.18009
9.21404 0.437906 10
7.25402 2.82931 7.09593
3.49647 0.522916 1.3376
1.92004 8.23988 3.95134
2.40488 0.758403 3.56384
2.0269 1.31178 3.92718
3.18025 1.11458 5.39113
9.41364 7.22778 8.44628
1.88716 1.21737 4.186
7.81457 9.68864 9.97702
8.6169 2.27353 7.35612
7.15987 3.14837 8.71249
3.00452 0.219052 1.7807
5.06319 8.3253 0.857287
5.82816 7.92554 7.25499
1.71204 7.45683 6.34345
6.88808 5.88574 7.91956
4.67564 4.21793 0.764775
2.89404 0.142644 1.35511
0.490637 4.08357 8.66213
4.90932 0.293123 1.14075
0.163794 0.447111 1.06557
3.35465 0.119044 1.68635
3.22121 0.559639 1.28192
8.57258 5.49952 7.90391
7.60242 8.06332 4.44798
10 0.351005 5.98938
2.89417 0.393834 2.03455
9.99581 1.42625 5.5811
0.595254 3.80375 8.60876
3.58598 0.522146 1.38086
3.26462 0.473628 1.81655
3.3959 0.348004 1.39111
9.61738 2.72732 3.3397
4.05566 8.91845 5.66971
8.18829 2.89723 3.69045
8.41978 4.30168 3.01306
2.73278 2.6091 9.51231
3.05191 0.477882 1.47536
6.54698 0.997173 2.74178
1.50823 1.23687 9.55758
10 1.30474 5.6871
3.12515 0.0701153 1.53465
3.57693 0.361596 1.62458
3.78915 9.12025 9.67239
4.0031 6.81531 2.6745
6.14448 3.45552 6.66944
3.87463 1.33189 9.28505
3.31338 0.0143254 1.31139
5.03423 2.16858 2.46974
4.00622 6.76665 2.83572
4.9286 1.31226 1.2587
8.9729 6.22075 3.95598
2.27786 2.56562 8.29356
0.249039 5.31587 3.86617
3.57468 0.566239 0.970408
7.33639 3.02575 6.46637
3.91238 5.61238 9.6033
6.39589 10 3.42049
2.93442 0 1.15652
3.45426 0.0927453 1.64664
9.33683 1.96895 4.0545
6.08664 6.30194 7.50567
9.75794 0.891873 9.90977
4.0615 0.986161 6.99782
3.07699 0.295303 1.55719
2.23474 0.449738 9.48224
6.55534 10 2.87873
6.43138 1.2421 3.74988
4.73515 7.24612 7.55854
2.97771 0.110234 1.82426
6.03467 8.91163 8.01797
3.58686 0.454816 1.59765
2.53175 0.0471436 1.55214
3.47258 0.413266 1.68127
3.43424 0.0523374 1.49161
4.94953 0.849592 9.50941
3.07856 3.92744 9.96194
4.74659 1.5145 7.36673
6.18018 1.80532 0.256465
4.18646 9.22787 7.19638
0.378555 8.08067 5.07409
4.23676 0.507558 1.25184
1.68461 1.1308 6.56496
2.63611 1.09066 8.32378
1.41076 7.47494 0.728511
8.39789 0.273096 0.807536
3.17809 0.226147 2.40882
0.881455 7.48778 0.855835
2.70646 0.603669 9.57976
0.7837 5.85301 8.10671
2.34408 0.606544 9.43615
3.67142 0.379291 1.8978
10 9.24401 2.62305
7.9568 1.68826 4.24691
3.02507 1.37773 3.94356
2.31067 1.00376 8.84656
9.65489 7.3466 0.268556
7.46331 0.40459 1.47409
2.47511 0.80671 9.41252
1.09576 5.87931 8.71392
3.29354 0.335524 1.83056
4.10146 0.587332 1.3918
8.53383 5.63452 7.77975
1.8916 1.1491 5.43747
3.30057 9.77893 4.62021
7.06599 1.21907 0.723466
3.45441 1.15407 3.33748
9.60113 6.8752 1.25367
2.21805 6.1757 6.93782
1.40445 0.256456 2.71445
3.20621 0.340072 1.52817
2.96196 0.515031 4.3375
7.36478 0.478648 1.04968
6.97879 3.97989 3.05895
6.11813 0.273843 8.72672
9.72085 8.44429 7.67928
0.884669 1.84031 5.02881
3.18146 0.364389 1.49067
1.06167 1.29479 4.3713
8.39992 10 3.7724
5.98328 7.08114 0
2.26067 9.59601 1.51099
9.64961 0.76142 6.40548
2.87427 0.259676 1.07593
2.1356 0.430827 5.46665
2.26332 0.918185 8.0824
2.35366 0.568848 8.81659
3.09684 0.332579 1.26516
3.36061 0.509892 1.2322
0.945743 1.98732 3.62564
3.31057 0.323507 1.50923
1.98343 0.239556 2.18738
7.89095 3.32386 3.78455
8.01152 0.782965 6.27718
2.48331 7.6259 0.708541
2.83837 0.448996 1.67271
2.31857 0.57505 5.07287
3.16165 0.321012 1.04426
3.19904 0.556638 1.60341
3.41769 0.423888 1.56574
9.79077 6.72382 1.44402
5.88774 1.46316 9.03318
5.66872 7.33634 9.48819
1.72396 6.25868 8.78151
3.4281 0.187238 1.45458
8.72686 2.01296 9.39584
4.23786 0.382964 5.25363
2.06468 1.01469 5.40331
0.805278 5.06453 8.49835
6.24532 0.712972 5.78049
0.500572 7.82604 2.11105
2.54204 0.956638 9.15103
7.27919 8.15952 7.39034
2.44165 0.797762 9.25533
3.53899 0.304725 1.63484
3.15111 0.518728 4.27159
6.69664 7.45954 0.850801
3.41828 0.250676 1.17285
6.4484 6.7699 1.95932
0.599611 3.85799 1.42916
3.49488 0.424541 1.8648
4.38153 0.0360171 5.07673
2.91079 0.278959 1.59996
3.96836 0.829375 9.21148
3.23244 0.303432 2.05752
7.37358 0.323247 1.26424
1.41759 4.08863 3.7144
0.84665 5.77178 7.72383
3.34913 0.459089 1.67227
3.44418 7.73661 4.01144
9.03997 7.10973 9.99385
7.36079 3.48949 6.86601
9.13923 6.36177 9.61537
4.0352 0.863913 9.30798
2.26019 0.616057 9.44507
3.14426 0.404044 1.73829
3.00773 0.161957 2.10355
7.29756 0.391197 1.35555
3.55242 0.441302 1.90055
2.97161 0.247277 1.37161
7.98186 9.08479 9.4925
3.23786 0.0579204 1.08508
3.37795 0.0780874 1.50973
1.41397 1.41126 3.09373
2.31587 1.0012 8.63584
2.8899 0.112551 1.59128
3.51918 0.312828 1.88522
3.04066 1.32554 5.59048
4.15022 0.56392 9.45563
2.59555 0.273897 1.95396
3.34473 0.311801 1.65483
7.3521 0.405506 0.994723
2.22108 0.427108 9.4298
2.16997 0.679979 9.36036
3.30657 0.392796 2.16115
3.63552 0.512102 1.29873
7.28004 0.813987 0.767432
2.42147 0.480085 9.34857
0.564364 7.71011 0.915404
2.35205 0.745605 9.43922
0 3.6967 6.00887
7.30778 0.358615 1.02201
3.72141 3.59083 5.44484
1.07212 0.509884 7.66377
3.62711 0.681553 1.71679
3.07846 0.513282 1.42205
7.01987 0.482492 1.05529
2.19446 0.670656 9.71348
2.1546 0.414533 9.62057
3.74122 0.738735 9.65746
3.60271 0.410145 1.90286
3.33672 0.444102 1.70773
3.36015 0.334169 1.437
3.78833 0.773859 9.59857
3.59758 0.477968 1.56745
1.91682 1.51086 5.327
2.65911 0.660421 9.36718
3.24834 0.412288 1.31956
3.35119 0.355034 1.72333
4.15597 0.931546 1.32035
7.07141 0.264724 0.515719
3.13788 0.399993 1.82464
3.06703 0.228195 1.50319
2.10099 0.657034 9.11215
3.07375 0.136431 1.33521
2.3471 0.138362 5.48177
2.40724 0.681815 9.14541
3.26117 0.346288 1.26511
3.85289 0.369371 5.32565
7.88641 0.304132 0.400037
7.19707 0.357978 0.927087
POINT_DATA 400
SCALARS particleColor float 3
LOOKUP_TABLE default
1 5.96046e-08 0
0.40019 1 0.59981
0.00655001 1 0.99345
1 0.194603 0
1 5.96046e-08 0
0.126217 1 0.873783
1 0.2388 0
1 5.96046e-08 0
0.873782 1 0.126218
1 5.96046e-08 0
0.417458 1 0.582542
1 0.32823 0
0.443326 1 0.556674
1 5.96046e-08 0
1 5.96046e-08 0
1 0.952492 0
0.115886 1 0.884114
0 0.688601 1
0.530107 1 0.469893
1 5.96046e-08 0
0 0.565365 1
1 5.96046e-08 0
0.144271 1 0.855729
0.904801 1 0.0951995
1 0.409997 0
0 0.70573 1
0.453225 1 0.546775
1 5.96046e-08 0
1 0.25299 0
1 5.96046e-08 0
0.0751295 1 0.92487
1 5.96046e-08 0
1 5.96046e-08 0
1 0.628435 0
1 5.96046e-08 0
1 5.96046e-08 0
0.907598 1 0.0924016
0 0.650547 1
0.0307005 1 0.969299
1 5.96046e-08 0
1 0.527565 0
1 0.818686 0
0.592721 1 0.407279
0.76956 1 0.23044
0 0.733304 1
1 5.96046e-08 0
0.625779 1 0.374221
0.486854 1 0.513146
0.799169 1 0.200831
1 5.96046e-08 0
1 0.176574 0
0.277274 1 0.722726
0 0.914015 1
1 5.96046e-08 0
1 5.96046e-08 0
0.586436 1 0.413564
0.709904 1 0.290096
0.938283 1 0.0617172
0.819496 1 0.180504
0.701944 1 0.298056
1 5.96046e-08 0
0.864231 1 0.135769
1 0.89609 0
0 0.13488 1
1 0.730489 0
1 5.96046e-08 0
0.736039 1 0.263961
1 5.96046e-08 0
0.373969 1 0.626031
1 0.281214 0
1 0.865321 0
0.446901 1 0.5531
0.785976 1 0.214024
0.454356 1 0.545644
1 5.96046e-08 0
1 5.96046e-08 0
0.446965 1 0.553035
0 0.437656 1
0 0.720798 1
1 5.96046e-08 0
0 0.547419 1
1 0.426551 0
0.656579 1 0.343421
1 5.96046e-08 0
0.173457 1 0.826543
0.248866 1 0.751134
1 5.96046e-08 0
1 0.860509 0
0.182773 1 0.817227
1 5.96046e-08 0
0 0.538557 1
0.286235 1 0.713765
1 0.663494 0
1 5.96046e-08 0
1 5.96046e-08 0
0.313721 1 0.686279
1 5.96046e-08 0
0 0.939083 1
1 0.938808 0
0.891176 1 0.108824
0 0.517025 1
1 0.933312 0
0.32625 1 0.67375
1 0.773177 0
1 5.96046e-08 0
1 0.447591 0
1 5.96046e-08 0
0.282973 1 0.717027
0.0278644 1 0.972136
1 0.46678 0
1 5.96046e-08 0
1 5.96046e-08 0
1 5.96046e-08 0
1 5.96046e-08 0
0 0.473455 1
1 0.788412 0
0 0.357641 1
0.454024 1 0.545976
0.139825 1 0.860175
1 5.96046e-08 0
1 5.96046e-08 0
1 5.96046e-08 0
1 5.96046e-08 0
0.414176 1 0.585824
0.0649437 1 0.935056
0 0.938528 1
0.271037 1 0.728963
0 0.937032 1
1 0.247439 0
1 0.0209045 0
0.314336 1 0.685664
1 5.96046e-08 0
1 0.865047 0
1 0.814085 0
0 0.734831 1
1 0.627818 0
0.72044 1 0.27956
0 0.812371 1
1 5.96046e-08 0
1 0.995898 0
0 0.658087 1
1 0.250671 0
1 5.96046e-08 0
1 5.96046e-08 0
0 0.995635 1
0.566394 1 0.433606
0.995831 1 0.00416946
1 0.777484 0
0 0.214429 1
0 0.598474 1
0 0.607109 1
1 0.758739 0
1 0.318971 0
0 0.7745 1
1 5.96046e-08 0
0 0.801657 1
0.662969 1 0.337031
0.789729 1 0.210271
0 0.926759 1
0.603058 1 0.396942
0.209181 1 0.790819
0 0.538507 1
0.336681 1 0.663319
0.332762 1 0.667238
0.773894 1 0.226106
1 5.96046e-08 0
0 0.821964 1
1 0.957389 0
0.691101 1 0.308899
1 5.96046e-08 0
0 0.678507 1
0 0.771259 1
0.240909 1 0.759091
0.780543 1 0.219457
0 0.413999 1
1 0.877749 0
0.987783 1 0.0122168
0.937303 1 0.0626972
1 5.96046e-08 0
0.863908 1 0.136092
0 0.628046 1
0.401098 1 0.598902
0.258259 1 0.741741
0 0.913248 1
1 0.390814 0
1 5.96046e-08 0
0 0.712788 1
0.736623 1 0.263377
0 0.623757 1
0 0.619007 1
0 0.44956 1
0 0.581625 1
0.293778 1 0.706222
1 5.96046e-08 0
1 5.96046e-08 0
0 0.554762 1
1 5.96046e-08 0
1 0.82249 0
0.0210034 1 0.978997
0 0.422913 1
0 0.751858 1
0.808669 1 0.191331
0.854809 1 0.145191
0 0.454499 1
1 5.96046e-08 0
0 0.0806095 1
0 0.7248 1
0.967177 1 0.0328228
0.0293639 1 0.970636
1 5.96046e-08 0
0 0.377042 1
0 0.373535 1
1 5.96046e-08 0
1 5.96046e-08 0
0.217432 1 0.782568
0 0.709087 1
0 0.620773 1
0 0.447149 1
0.153543 1 0.846457
0.175695 1 0.824305
1 5.96046e-08 0
0 0.832908 1
0.848651 1 0.151349
0 0.728822 1
1 0.569569 0
1 5.96046e-08 0
0.787396 1 0.212604
0 0.535044 1
0 0.687091 1
0.99438 1 0.00562018
1 0.730685 0
0.597564 1 0.402436
1 0.880474 0
0.130153 1 0.869847
0 0.759535 1
0.757397 1 0.242603
1 0.139946 0
0.894743 1 0.105257
0 0.645746 1
1 5.96046e-08 0
0 0.550948 1
0 0.801954 1
0 0.958218 1
0 0.74331 1
0.309972 1 0.690027
0.557716 1 0.442284
0.0941558 1 0.905844
0 0.789508 1
0 0.859783 1
0.906107 1 0.0938934
0 0.538797 1
1 5.96046e-08 0
0 0.642504 1
0.210583 1 0.789417
0 0.676998 1
0 0.414617 1
1 0.920639 0
0 0.530092 1
0 0.48494 1
0 0.413444 1
0 0.403663 1
1 5.96046e-08 0
0 0.909386 1
0.350764 1 0.649236
0 0.578056 1
1 0.856658 0
0 0.715502 1
0 0.428733 1
0 0.966446 1
0 0.876484 1
0 0.275311 1
0 0.585387 1
1 5.96046e-08 0
0.0916234 1 0.908377
0 0.622956 1
0 0.624175 1
0 0.552002 1
1 5.96046e-08 0
1 5.96046e-08 0
0 0.434893 1
0.383319 1 0.616681
0 0.695753 1
1 0.939148 0
0.277599 1 0.722401
0 0.645288 1
1 5.96046e-08 0
0 0.855837 1
0.303779 1 0.696221
1 5.96046e-08 0
1 5.96046e-08 0
1 5.96046e-08 0
0 0.630645 1
0 0.557762 1
0 0.717577 1
0.38246 1 0.61754
0 0.535296 1
0 0.447126 1
0 0.72243 1
0 0.643097 1
0 0.769822 1
0.243419 1 0.756581
0 0.929249 1
0.175664 1 0.824336
0 0.571887 1
0 0.522136 1
0 0.96607 1
0 0.407292 1
0 0.532478 1
0.743151 1 0.256849
0.0165341 1 0.983466
1 5.96046e-08 0
1 0.140418 0
0.440308 1 0.559692
0 0.566768 1
0 0.808617 1
0.40835 1 0.59165
0.278923 1 0.721077
0.368036 1 0.631964
0 0.798739 1
0.0368757 1 0.963124
0 0.819459 1
1 5.96046e-08 0
0 0.528633 1
0 0.794691 1
0 0.672584 1
0.602829 1 0.397171
0 0.74784 1
0.909379 1 0.0906206
1 0.269034 0
0 0.212762 1
0.819454 1 0.180546
0.108882 1 0.891118
0 0.620019 1
0.33585 1 0.66415
0 0.18191 1
1 5.96046e-08 0
0.162781 1 0.837219
0 0.359537 1
0.994343 1 0.00565737
1 0.961225 0
1 5.96046e-08 0
0 0.49188 1
0 0.359149 1
0 0.575909 1
0 0.467313 1
0 0.205054 1
0.170705 1 0.829295
0 0.492094 1
0 0.871298 1
0.30956 1 0.69044
0 0.932612 1
0 0.388523 1
0 0.973992 1
0 0.283331 1
0 0.899843 1
0.00896391 1 0.991036
0 0.862227 1
0 0.756332 1
0 0.886446 1
0 0.808995 1
0 0.487029 1
0 0.511099 1
0 0.364473 1
0 0.9815 1
0 0.733366 1
0 0.870034 1
0 0.720366 1
1 0.976428 0
0 0.835919 1
1 5.96046e-08 0
0 0.651273 1
1 0.161142 0
0.338455 1 0.661545
0 0.552661 1
0 0.999637 1
0 0.703264 1
0 0.982287 1
0 0.610135 1
0 0.223153 1
0 0.765345 1
0 0.885532 1
0.0222926 1 0.977707
0 0.636355 1
0 0.897446 1
0 0.826003 1
0 0.654261 1
0 0.469032 1
0 0.298998 1
1 5.96046e-08 0
0 0.752709 1
0 0.703298 1
0 0.713609 1
0 0.369037 1
0 0.538776 1
0 0.670371 1
0 0.430313 1
0 0.393298 1
0.295809 1 0.704191
0.086387 1 0.913613
0.0367359 1 0.963264
