# vtk DataFile Version 3.0
Particle simulation
ASCII
DATASET POLYDATA
POINTS 400 float
8.92014 7.34141 0.311424
1.23172 7.34081 1.8049
4.18306 0.136762 8.94731
5.13945 0.960363 2.83034
4.04145 9.73334 7.92778
4.06691 0.475591 3.68412
1.69903 2.75145 0.71094
5.72269 9.10386 2.49513
6.36434 2.83509 0.0823022
3.11326 4.61635 6.1595
3.03249 8.24838 0.55115
2.91808 9.51902 6.32291
3.519 2.14782 9.81562
2.44605 0.155244 5.66251
0.326484 0.37107 2.38181
3.20757 6.42676 4.98712
3.41399 4.15022 10
3.81441 1.10604 0.655177
5.51202 7.00069 3.45573
8.91658 8.94896 3.91792
5.16821 4.20273 1.23571
4.27458 5.66249 6.12361
8.23383 4.6957 4.88513
9.73658 0.430982 9.06605
3.77046 7.6981 1.71656
8.11729 4.65092 4.46538
5.89988 2.20949 8.15401
7.55702 5.785 0.0341975
5.16535 5.65974 3.41286
9.27047 8.18582 9.63285
5.10043 3.72114 6.33605
7.90737 9.0545 3.61759
8.17904 0.300103 5.5563
4.3192 2.61494 6.06
0.598466 7.12788 7.30215
7.27913 4.8159 7.49683
4.71758 7.11889 7.07711
8.2431 7.40536 9.97336
10 5.20318 6.90477
0.353813 0.67562 5.16817
6.97844 9.16532 1.90176
8.99139 0.915868 8.35793
4.11124 0.624778 7.11757
7.0969 1.25244 0.865063
1.03814 0.340729 4.29036
7.93668 9.03057 1.97999
5.81214 6.65159 5.54562
9.78259 5.49503 0.107629
1.60414 2.66244 9.94153
0.79359 7.97335 0
2.67117 7.10075 6.65175
3.91675 3.47094 8.11208
1.13065 0.623201 6.25596
6.87286 3.96966 2.30648
7.04364 9.64162 7.99724
1.43914 0.0265231 2.93337
9.29245 3.72585 6.37491
1.21137 3.70889 0.0263255
1.41914 3.00154 2.57742
0.183058 5.58612 8.97362
9.49224 5.61015 6.00196
7.86376 0.908352 9.5775
8.96406 2.45681 7.14981
5.39389 3.00242 6.8503
8.98656 6.08618 4.18085
5.62235 2.30214 4.32704
1.02802 4.44927 9.50061
1.13201 3.01696 2.2511
5.05287 0.195245 3.96651
1.70456 2.02897 1.19997
0.996303 7.80816 9.04592
2.6898 1.63615 5.25255
3.40692 1.48322 4.48424
8.36686 6.29331 7.225
5.37028 1.03689 2.5813
6.20685 4.34875 2.99875
6.6685 6.3385 3.11061
4.9021 8.37926 4.25279
4.52992 1.63699 0.469527
7.58234 5.67501 4.83517
4.06764 9.10341 0
1.49127 2.46464 7.96993
6.44748 3.5238 0.665535
4.98811 4.04107 2.73178
1.58321 1.55407 7.75721
2.42677 1.92157 0.994272
7.82245 8.2977 3.24549
0.380012 6.88246 2.97611
7.69704 4.77958 9.5794
6.42941 0 5.15782
1.06936 4.51672 2.92047
0.496853 1.47588 0.919512
1.50544 6.89665 6.59923
1.58341 8.39072 3.38521
1.69211 3.61739 1.39691
3.60569 1.63418 3.896
7.81489 6.70191 1.78833
2.56307 5.42413 8.98337
3.4297 10 0.914306
5.25182 8.42777 8.26007
8.21544 0.832909 9.16786
3.16153 7.98047 1.93311
1.96021 2.71302 0
7.03857 8.17366 6.62755
2.79118 2.35244 6.67919
0.751648 10 5.58992
4.55403 2.95746 4.67124
0.902547 2.74479 9.70441
5.33381 8.42645 1.2508
4.20118 9.5332 1.72062
8.01737 9.92477 0.853759
6.33887 5.82956 4.6589
7.58733 8.92664 4.72274
2.64967 8.3561 0.29527
9.16905 0.0641994 8.94845
6.03222 2.02838 0.142187
4.3475 0.683828 2.02007
4.32265 3.46405 9.72994
6.39109 3.85776 7.38108
0.956886 5.34061 1.59555
8.91695 7.24852 6.91483
9.68831 8.22001 2.60186
7.61511 8.99822 5.43701
3.90126 7.0071 8.50369
8.26643 9.27296 4.62275
2.95346 2.47931 8.42136
6.61758 3.77855 1.82375
4.22443 10 2.5702
5.60882 1.79569 5.94646
4.82412 8.86677 3.65979
0 2.04416 6.25348
3.05729 8.81433 9.96868
5.36813 9.36205 5.64475
3.32937 6.56312 7.7131
3.26969 1.82291 2.47692
8.98916 0.536365 8.49578
8.2939 5.02109 1.95366
7.82423 1.41986 5.90673
5.97362 9.97947 1.71636
6.69516 9.75236 3.37358
0 6.47186 8.72091
1.72487 1.24185 3.65886
5.92235 5.04078 9.96715
9.07751 6.42405 5.46837
2.06006 2.20282 7.82267
7.10718 9.15061 0
0.543486 10 0.862497
2.85228 0.921952 0.637826
7.3652 6.29964 7.54959
1.43004 8.56958 2.81491
7.63354 0.445072 7.13188
9.86079 6.35633 2.88709
3.73164 0.125553 0.635562
3.04173 9.31772 3.68916
4.97212 7.9869 3.23544
0.688321 6.24259 4.6166
3.67346 2.91048 8.83507
2.76984 2.51332 9.78679
8.56108 9.24078 2.34818
8.55784 7.24958 6.62118
2.90973 8.78454 2.10094
0.43162 0.192916 4.4894
8.5997 0.925389 1.54824
0.339718 10 10
2.73827 1.42969 8.61035
6.61112 9.07094 5.91484
3.1396 4.94913 2.72431
3.93872 7.37448 7.9515
0.057198 3.65999 6.27124
0.803267 0.487795 3.65263
0.510746 8.15003 4.81333
1.26622 1.43199 2.21351
0.601471 7.05759 1.2607
2.3325 0.495708 6.57583
4.50801 5.33757 2.69924
8.6651 3.65168 4.00256
10 0 9.74566
0.404569 7.41468 5.01377
6.30759 8.28933 0
7.05033 5.6591 5.45314
2.89668 7.33665 6.5318
6.34975 2.56033 0.437604
2.8628 1.16223 5.61518
8.89957 3.58683 0.61583
2.19124 8.64977 7.61447
0.862057 8.52033 3.17026
6.6278 0.351743 8.01006
7.62188 9.05287 0.346215
1.32445 8.4983 2.41706
1.34978 9.12984 9.7125
2.52579 4.24432 6.94447
2.57391 9.7551 7.16751
7.4827 9.46832 3.35168
3.49509 1.94235 1.86851
4.82851 2.07858 9.94512
5.42339 2.52191 7.64343
4.22413 10 6.16306
6.93958 5.46223 8.29552
7.18057 4.70493 9.64475
7.26149 1.92152 4.08351
9.37826 1.21548 5.46917
0.927443 4.08826 0.0786566
7.44295 0 4.26764
7.60407 9.22696 5.4988
9.02452 0.5433 6.82124
8.25197 6.77427 6.90094
2.90063 3.58724 8.9373
2.87851 0 5.36408
7.94206 1.48032 8.3053
1.15252 0.676982 7.41339
6.52363 3.68157 0.482332
2.64526 8.60168 0.80046
9.35135 1.12534 1.03515
6.07447 2.38721 1.19633
8.08032 7.21216 1.74936
7.34949 0.236128 5.91791
6.87014 6.07674 7.50547
0.774166 2.97928 8.5182
5.19007 5.77877 1.45813
3.67558 9.75054 5.35422
8.87842 9.63525 4.66767
6.39906 9.00312 2.57074
6.92688 1.83114 4.58896
9.53838 1.47962 6.08843
1.97174 1.27377 0.985337
2.96799 9.4681 8.03155
4.38304 9.59809 8.09188
0.670662 2.52703 1.43573
7.40474 0.511569 7.36946
6.29495 0.62008 6.05139
5.96643 1.45025 5.37293
9.6678 2.82114 1.73733
1.43226 0 10
3.65609 0.457321 5.71449
8.11941 9.41159 0.380473
10 5.3911 6.93886
6.53383 10 2.40605
5.4514 8.46621 9.4831
7.5903 0.212633 7.60293
5.17054 6.6926 4.64981
6.35565 0.584678 8.09724
2.44113 9.19338 1.63202
2.76028 3.64455 9.98518
9.18234 3.83903 1.35314
4.65898 2.99348 1.85747
4.96643 2.18404 4.49568
6.31513 7.33982 5.97776
0.414694 9.43307 6.79438
4.89963 8.12119 2.36891
0 2.09563 2.799
7.48635 4.66122 10
2.86331 7.6476 5.45664
0.28936 9.06535 0.492838
1.33615 1.98885 6.78614
0.0970419 2.07072 5.99935
0.190515 4.00605 9.83769
9.08422 8.16532 2.59674
2.91606 0.530876 6.36167
3.7315 8.17883 1.43135
8.04725 10 1.58692
3.17393 4.09166 5.92229
6.70984 3.90095 10
10 4.39151 3.47242
9.61357 9.7937 4.88849
7.79154 7.47743 3.83357
7.76592 2.31643 9.42907
2.14283 5.04709 6.44465
0.662331 1.78513 2.05173
1.43079 9.03009 7.22785
9.71927 0.378499 4.10187
3.81559 9.91923 2.30135
1.24115 2.27078 7.86937
8.61317 3.86124 2.69117
9.78493 6.97382 5.74966
2.22527 7.61179 7.56638
0.22361 7.15688 9.41417
4.48443 6.48342 1.91191
4.30831 5.03528 2.63278
1.3535 6.69625 5.08684
1.19034 2.5269 1.13315
2.70077 6.22917 7.27475
2.30201 2.24081 9.54139
9.43194 1.20242 1.14372
6.08038 2.26656 1.34877
1.36029 4.29228 9.94536
1.25448 1.77229 7.75376
5.70318 6.60612 2.23805
5.75675 6.06719 3.68929
1.92259 8.71416 4.98254
2.70517 6.09561 9.30967
9.00003 5.08312 0.711761
9.70298 3.82445 9.53642
4.03945 7.92786 6.42953
0.788181 0.293876 7.50995
5.19516 8.88962 8.33857
9.31272 6.43793 6.2878
8.06842 0.204743 7.597
9.13634 0.114122 7.38747
7.84611 0.267056 7.22201
8.09433 1.03022 6.53083
9.00083 6.20091 5.08065
4.02561 4.50289 2.31839
8.19452 0.519675 7.54131
0.549871 6.79054 8.86449
7.49688 0.309647 7.53996
1.06814 2.90374 8.36603
9.18994 1.24581 5.37589
7.53546 0.725466 7.20159
7.26021 3.06226 5.86068
4.56787 8.4509 1.51737
6.55711 6.25111 6.21447
1.98694 9.22367 5.15852
3.60909 3.00743 2.77637
7.62608 0.49012 7.44177
10 1.01409 2.84233
2.55102 6.50277 7.14208
1.01118 6.60271 3.23042
6.90607 0.802499 7.83822
3.92269 5.08564 6.98802
2.28979 3.25127 4.88226
5.08063 6.9273 7.027
3.46282 4.07238 8.13442
1.21257 0.715145 8.34068
7.71704 0.51382 7.46012
7.81904 0.571614 7.10143
1.0268 6.6923 2.95674
9.28783 1.2443 5.65047
2.90295 6.36072 1.90953
6.95718 8.6223 3.2811
7.65233 0.637941 7.55599
3.70579 2.20389 9.25671
8.86583 0.430386 5.88253
0 5.84946 6.75788
0.973747 3.25062 5.85372
8.23268 4.73805 7.08829
5.87412 1.90179 6.24973
9.91279 6.25827 8.17431
7.65109 0.949657 7.24526
2.547 5.57758 7.8245
6.90663 7.60474 8.37521
2.82844 4.78619 1.02316
5.60465 1.26089 6.03853
1.24661 7.90743 2.59744
1.37564 0.646897 8.2965
7.56344 0.162254 7.87355
9.72993 4.24159 1.51888
7.07592 1.32689 1.81248
7.96889 0.85253 7.04448
7.87991 0.458451 7.43413
6.00536 2.11433 9.70417
7.53815 1.00771 7.12529
7.56679 0.547644 7.32779
1.40118 9.19698 4.42316
4.20093 3.42028 8.29507
0.0715834 4.00383 5.92344
7.52015 0.708655 7.63631
6.80653 2.59327 7.30121
2.04156 7.29822 10
7.01133 0.104591 7.69166
7.7477 0.272872 7.22391
8.68194 8.82433 2.61157
1.69485 0.525159 8.2926
1.60054 0.758187 8.3996
7.72504 0.299652 7.43751
1.40116 2.55754 5.40805
3.79805 7.70396 7.75829
1.43121 0.836491 8.1495
3.96503 10 0
0.755243 8.85813 1.13989
8.83352 6.68507 8.09647
7.14026 1.10652 1.82908
2.91966 10 4.09831
0.32405 3.67196 9.00534
7.18839 0.557339 7.60357
7.73423 1.1512 7.17091
7.99727 5.90952 0.500446
1.44648 0.789387 8.20874
0.440324 6.73684 3.706
6.88774 0.819383 7.04085
7.67137 0.382266 7.97319
7.81365 1.08435 6.59885
7.82232 0.457554 7.37975
4.9941 7.60652 0
7.80103 0.461366 7.62036
2.97683 9.76469 5.4784
1.4134 0.76439 8.26431
7.58542 0.743919 7.11172
7.8555 0.412553 7.47365
0 6.68784 2.15359
7.49206 0 7.77401
7.79068 0.285452 7.32505
7.52322 0.812762 7.21831
6.9012 7.53158 9.85369
7.8486 0.366479 7.25438
0.612407 6.13359 0.340375
0.261071 8.575 5.42174
7.6579 0.727656 7.10745
0.640388 1.65511 6.9553
5.46446 5.61014 3.18626
3.31595 6.40468 3.15452
POINT_DATA 400
SCALARS particleColor float 3
LOOKUP_TABLE default
1 5.96046e-08 0
0 0.829404 1
1 5.96046e-08 0
0.619688 1 0.380312
1 5.96046e-08 0
0.759722 1 0.240278
1 0.713531 0
1 0.0155523 0
0.186855 1 0.813145
1 5.96046e-08 0
0.710695 1 0.289305
0.690527 1 0.309473
1 5.96046e-08 0
1 0.158347 0
1 5.96046e-08 0
1 5.96046e-08 0
1 0.618677 0
0.188118 1 0.811882
0.830181 1 0.169819
1 0.388646 0
0.0402811 1 0.959719
1 5.96046e-08 0
1 5.96046e-08 0
1 5.96046e-08 0
0.536102 1 0.463898
1 5.96046e-08 0
0.989247 1 0.0107527
1 5.96046e-08 0
1 0.874406 0
1 0.515616 0
1 5.96046e-08 0
1 5.96046e-08 0
0.157991 1 0.842009
1 5.96046e-08 0
1 5.96046e-08 0
1 5.96046e-08 0
1 0.204561 0
1 5.96046e-08 0
1 5.96046e-08 0
0.476126 1 0.523874
1 0.0447612 0
1 5.96046e-08 0
1 0.335094 0
1 0.0666924 0
1 0.101428 0
0.206139 1 0.793861
1 5.96046e-08 0
0 0.750601 1
0.799056 1 0.200944
1 0.84811 0
1 5.96046e-08 0
1 0.219454 0
1 5.96046e-08 0
0.143549 1 0.856451
1 5.96046e-08 0
0.757299 1 0.242701
1 0.95801 0
1 5.96046e-08 0
0 0.8656 1
0.432631 1 0.567369
1 5.96046e-08 0
1 5.96046e-08 0
1 0.214505 0
1 5.96046e-08 0
1 0.205162 0
1 5.96046e-08 0
1 5.96046e-08 0
1 5.96046e-08 0
1 0.0176167 0
0.362896 1 0.637104
1 5.96046e-08 0
1 5.96046e-08 0
1 0.48692 0
0 0.70047 1
1 0.611334 0
1 0.396503 0
1 0.981093 0
1 5.96046e-08 0
1 5.96046e-08 0
1 5.96046e-08 0
1 5.96046e-08 0
1 0.476803 0
0.769953 1 0.230047
1 5.96046e-08 0
1 5.96046e-08 0
1 0.650825 0
0.972848 1 0.0271521
0.74921 1 0.25079
0.859415 1 0.140585
1 5.96046e-08 0
0.031097 1 0.968903
0.498377 1 0.501623
1 0.340152 0
1 0.120185 0
1 5.96046e-08 0
1 5.96046e-08 0
0.852436 1 0.147564
1 5.96046e-08 0
0.454466 1 0.545534
1 5.96046e-08 0
1 5.96046e-08 0
0.587382 1 0.412618
1 5.96046e-08 0
1 0.970316 0
0.39062 1 0.60938
1 5.96046e-08 0
0.23417 1 0.76583
1 5.96046e-08 0
1 5.96046e-08 0
1 0.682407 0
1 0.069092 0
1 5.96046e-08 0
1 5.96046e-08 0
0.567751 1 0.432249
0.429301 1 0.570699
0.939853 1 0.0601474
1 0.393553 0
0.800621 1 0.199379
1 0.821146 0
1 0.208263 0
1 5.96046e-08 0
1 5.96046e-08 0
1 5.96046e-08 0
1 5.96046e-08 0
1 0.569046 0
1 5.96046e-08 0
1 5.96046e-08 0
1 5.96046e-08 0
0.808641 1 0.191359
1 5.96046e-08 0
0.55214 1 0.44786
1 5.96046e-08 0
0.493115 1 0.506885
1 0.196488 0
1 0.331689 0
0.257473 1 0.742527
0.0677722 1 0.932228
0 0.699249 1
1 0.64947 0
0.790393 1 0.209607
0.475627 1 0.524373
1 5.96046e-08 0
1 5.96046e-08 0
1 5.96046e-08 0
0.187691 1 0.812309
1 0.207916 0
1 0.704705 0
0 0.514544 1
1 5.96046e-08 0
1 5.96046e-08 0
0 0.353921 1
1 5.96046e-08 0
1 0.146027 0
1 5.96046e-08 0
1 0.185256 0
0 0.987181 1
1 5.96046e-08 0
1 5.96046e-08 0
1 0.215977 0
0.919429 1 0.0805706
1 0.473515 0
0.472277 1 0.527723
0.64263 1 0.35737
0.736717 1 0.263283
1 5.96046e-08 0
0.946575 1 0.0534251
1 5.96046e-08 0
1 5.96046e-08 0
0.162741 1 0.837259
1 0.0438474 0
0.118642 1 0.881358
1 0.0519078 0
1 0.299398 0
0.595826 1 0.404174
1 0.415182 0
0.716824 1 0.283176
1 5.96046e-08 0
1 0.22603 0
1 5.96046e-08 0
0.526307 1 0.473693
1 0.521528 0
1 5.96046e-08 0
0.515544 1 0.484456
0.908471 1 0.0915285
1 0.847536 0
1 5.96046e-08 0
0.0500009 1 0.949999
1 0.759658 0
0.279342 1 0.720658
1 5.96046e-08 0
1 0.961998 0
1 0.72452 0
1 5.96046e-08 0
0.602504 1 0.397496
0.256261 1 0.743739
0 0.660564 1
1 5.96046e-08 0
1 0.675176 0
1 5.96046e-08 0
1 5.96046e-08 0
0 0.816078 1
1 0.819302 0
1 5.96046e-08 0
1 5.96046e-08 0
1 5.96046e-08 0
0.929422 1 0.0705779
1 0.685392 0
1 5.96046e-08 0
1 5.96046e-08 0
1 5.96046e-08 0
1 0.787406 0
1 5.96046e-08 0
1 0.93536 0
1 5.96046e-08 0
0.320746 1 0.679254
0.751963 1 0.248037
0.824832 1 0.175168
1 0.0869164 0
1 5.96046e-08 0
1 0.636668 0
1 5.96046e-08 0
1 5.96046e-08 0
0 0.800028 1
0 0.226962 1
1 5.96046e-08 0
1 0.842725 0
0.605712 1 0.394288
1 0.397571 0
0 0.282167 1
1 0.763027 0
1 0.0979214 0
0.784027 1 0.215973
1 5.96046e-08 0
1 5.96046e-08 0
1 5.96046e-08 0
1 5.96046e-08 0
1 0.319858 0
1 5.96046e-08 0
0 0.522149 1
0.970087 1 0.0299129
0 0.714173 1
1 0.432397 0
1 0.81682 0
0.976471 1 0.0235286
1 5.96046e-08 0
0.231391 1 0.768609
1 0.980904 0
1 5.96046e-08 0
0.748899 1 0.251101
1 5.96046e-08 0
0.750271 1 0.249729
1 0.602614 0
1 0.836545 0
1 5.96046e-08 0
1 0.960551 0
0.384332 1 0.615668
1 0.187853 0
0.275514 1 0.724486
0.612335 1 0.387665
1 5.96046e-08 0
1 0.380452 0
0.482687 1 0.517313
1 0.320765 0
0.632519 1 0.367481
0.145077 1 0.854923
1 0.991252 0
1 5.96046e-08 0
1 5.96046e-08 0
0.594845 1 0.405155
1 5.96046e-08 0
0 0.84672 1
1 0.398845 0
0.776901 1 0.223099
1 5.96046e-08 0
1 0.563378 0
1 5.96046e-08 0
0.249441 1 0.750559
1 5.96046e-08 0
1 5.96046e-08 0
0 0.767532 1
1 0.660062 0
1 5.96046e-08 0
1 5.96046e-08 0
1 5.96046e-08 0
1 5.96046e-08 0
0.693947 1 0.306053
0.743877 1 0.256123
1 0.561191 0
1 5.96046e-08 0
1 5.96046e-08 0
0.573288 1 0.426712
1 5.96046e-08 0
1 0.910258 0
1 0.229626 0
1 5.96046e-08 0
1 5.96046e-08 0
0 0.654049 1
0 0.79272 1
0 0.175105 1
0 0.863345 1
1 0.842547 0
0.435107 1 0.564893
0 0.381253 1
0.596645 1 0.403355
0 0.384901 1
1 5.96046e-08 0
0 0.778808 1
0 0.258466 1
0.999983 1 1.7345e-05
1 5.96046e-08 0
0.6398 1 0.3602
0.683197 1 0.316803
1 0.992542 0
0 0.466654 1
1 5.96046e-08 0
0.966879 1 0.0331209
1 5.96046e-08 0
0 0.385877 1
1 0.132138 0
0 0.718937 1
1 0.352691 0
0 0.848544 1
0 0.32317 1
0 0.829732 1
0 0.602788 1
0 0.890557 1
0 0.610469 1
1 0.64133 0
1 0.386963 0
0 0.612401 1
1 0.661531 0
0.0372405 1 0.962759
1 5.96046e-08 0
1 5.96046e-08 0
1 0.414057 0
0.868113 1 0.131887
0.268368 1 0.731632
0 0.510417 1
1 5.96046e-08 0
1 0.502985 0
1 5.96046e-08 0
1 5.96046e-08 0
0.190586 1 0.809414
0 0.506671 1
0 0.899789 1
1 5.96046e-08 0
0 0.841062 1
0.337324 1 0.662676
0 0.804204 1
1 5.96046e-08 0
0.0721235 1 0.927876
0 0.525139 1
0.295896 1 0.704104
1 0.579641 0
1 0.763896 0
0 0.234885 1
0.491123 1 0.508877
1 5.96046e-08 0
0 0.437236 1
0 0.668528 1
1 5.96046e-08 0
0 0.363204 1
0 0.856016 1
0 0.316722 1
1 5.96046e-08 0
1 0.453548 0
0 0.453761 1
1 5.96046e-08 0
0.915029 1 0.0849711
1 0.695534 0
0 0.839957 1
1 5.96046e-08 0
1 0.438239 0
0 0.644068 1
0 0.449353 1
0 0.823655 1
0 0.192968 1
1 5.96046e-08 0
1 0.328824 0
0 0.474225 1
0 0.731936 1
0 0.419789 1
1 0.905631 0
0.014451 1 0.985549
1 5.96046e-08 0
0 0.664461 1
0 0.655368 1
0 0.695051 1
1 5.96046e-08 0
0.915348 1 0.0846525
0 0.477755 1
0 0.865548 1
1 0.926341 0
0 0.672323 1
1 0.556351 0
1 5.96046e-08 0
0 0.360462 1
0.75078 1 0.24922
1 0.781353 0
1 0.814872 0
