# vtk DataFile Version 3.0
Particle simulation
ASCII
DATASET POLYDATA
POINTS 400 float
0.585211 1.03641 8.71101
4.56861 1.99402 1.12559
2.07488 4.93018 4.72065
4.43963 5.70341 1.52638
4.69032 3.14647 7.11445
9.6538 6.02733 3.73344
5.84345 6.45869 4.78936
9.43836 7.44204 1.3272
5.30001 1.47889 0.207712
1.80363 0.669601 7.64193
6.60972 3.06179 5.74311
8.49598 1.87548 8.13614
0.556677 9.37314 3.68893
2.31137 2.14942 8.01117
1.99114 0.654425 9.73907
0.931465 0.764719 2.40189
7.60322 1.63567 7.2499
3.62807 0.384193 1.34052
9.5068 2.85949 9.54964
9.84168 0.614492 4.55172
3.45086 0.452816 1.19074
6.0878 0.387865 9.78016
4.44068 0.685122 9.05585
4.28688 7.1791 2.36723
9.07771 1.88774 9.03048
2.45402 2.32059 7.50618
6.81017 3.4974 2.17061
1.23803 0.352211 5.34099
3.21057 9.53529 1.22115
5.38255 4.9461 9.76873
2.08267 2.21754 1.81101
1.70601 6.77711 6.64501
1.08797 7.55938 9.39821
7.88987 1.14091 3.78977
8.63558 7.91103 3.34968
5.81072 2.91041 6.45997
2.83288 1.26985 10
3.25357 0.522111 0.96933
8.5679 2.61431 2.52111
0.926704 3.33593 8.73049
6.82209 7.32847 2.76208
5.6438 0.603272 9.16001
6.44881 6.38154 9.52816
4.2696 0 0.309533
9.66503 0.461698 3.61094
6.04509 1.10066 1.03982
9.70032 5.27948 8.18388
6.99781 0.521138 7.16902
5.35711 0.673713 1.0455
10 9.2215 1.39907
3.94418 6.96741 10
0.661538 4.64944 4.82227
7.8422 1.37832 3.15295
8.68944 6.17764 0
4.44999 1.7935 7.11125
5.87727 0.778024 0.827996
9.50832 3.97644 4.22006
0.46922 0.260664 3.90599
5.37819 2.21566 3.11504
7.94172 1.61674 2.98017
1.41604 3.17251 8.12125
5.80075 3.09157 0.751519
6.95566 6.58249 3.17495
0.353903 0.799272 8.79528
3.88077 7.07951 0.714446
0.591278 0.499726 9.19543
0.206157 3.53317 8.96263
0.0120533 1.26344 2.96587
5.72741 3.01042 2.48661
4.89622 2.09507 7.89288
9.71056 0.126185 7.77303
3.86608 1.26892 2.41047
9.91283 8.51579 5.19162
1.29735 0.678105 8.58359
2.83165 5.20325 9.23825
1.62843 4.04161 5.36157
3.115 1.20265 6.50068
0.24852 1.33229 9.95889
1.20795 2.29887 2.27479
6.03292 4.5701 9.05806
3.26273 0.707638 1.01027
5.89445 1.29594 5.1348
0.795116 0.325038 5.92445
2.96868 0.495153 1.329
1.47789 0.357355 7.98648
1.83997 0 7.99301
8.28709 5.67396 7.00268
0.838844 0.602011 4.3278
0.219242 6.20499 3.49697
6.71913 0.316837 0.476935
3.07577 0.364164 0.307473
6.01045 0.650288 1.59034
0.684439 3.75752 8.82156
3.35651 0.266577 4.73776
0.165401 0.644711 8.96113
8.07009 6.30655 10
8.86592 8.73918 1.06539
2.11312 2.18023 8.00139
8.85478 8.15475 7.34858
6.83606 0.216909 0.940029
3.16282 0.54693 0.869756
1.05749 3.43827 6.03632
3.70718 1.15105 5.77645
3.45829 9.81295 9.86323
10 2.64978 7.40902
1.22696 1.89798 1.03536
8.83034 1.47585 9.51523
5.23561 0.223592 0.754965
4.4053 0.23829 0.253357
3.63988 5.07143 6.29814
5.49557 6.8123 1.91516
1.18696 1.24008 9.95317
9.50782 5.06667 1.34937
5.44781 0.628844 0.629553
2.69714 0.477531 1.58547
1.45685 1.31146 9.38798
4.96479 0.595738 8.46229
9.6408 3.40567 2.62667
8.92851 2.09577 9.20927
8.92372 7.74583 0.855848
2.73145 0.391468 0.678395
6.35259 1.28771 9.61609
0.290225 7.54942 3.02106
8.04282 4.36843 7.39185
4.01794 2.68121 6.53076
4.0286 0.0816032 1.46289
3.90157 4.26118 1.08782
0.492969 0.936529 9.05037
1.5288 1.14091 9.54087
0 9.30299 4.94027
3.22926 0.127528 0.536785
7.38522 4.9636 8.17674
6.33148 4.4508 4.57395
6.81358 0.601848 5.55245
2.02237 5.36249 7.47751
1.96108 1.35242 1.74165
5.86622 5.86387 3.38366
0.195992 1.11771 9.08311
5.40811 3.56527 9.8179
5.46088 0.724705 8.04789
3.44205 0.367639 0.942176
7.69188 5.55544 7.92312
2.46169 3.02876 7.42373
9.25235 0.215796 7.58861
3.29853 0.653383 0.788979
6.07294 1.72118 5.2707
9.42974 0.44176 3.68321
2.22098 4.25612 0.395322
3.78163 1.21517 2.53629
2.81161 2.40872 2.9009
3.50431 0.400948 1.00492
6.20992 2.13831 6.12953
0.871627 1.01473 8.88334
1.4692 0.726424 8.7929
4.79184 6.06469 9.5433
5.06892 0.617342 0.0268802
8.70289 0.118446 2.30117
5.80706 0.0602229 1.01897
5.66677 0.196731 7.71064
4.03508 2.18237 0.371921
4.12169 2.29671 0.622938
4.27404 0.235812 5.43206
6.61212 1.1912 9.5711
0.379721 2.26491 0.73372
2.3955 0.239544 5.36412
8.63868 1.84035 8.7904
6.92224 0.426051 5.03486
6.06132 0.643194 8.1755
1.63564 1.64162 0.17102
1.10175 2.26077 6.35991
3.12995 0.114457 0.699659
7.55176 2.12847 1.18298
5.17511 5.70122 2.97445
0.97374 2.08649 1.42211
3.11752 0.161033 5.41529
7.27668 8.83989 0.0353832
1.21077 0.252281 7.78491
3.12158 1.07378 6.29845
1.13343 1.2242 8.39282
6.93493 4.55993 3.79449
3.46334 0.425687 1.23525
8.50256 9.21633 4.82045
1.9367 1.08368 1.73297
6.26177 0.215202 0.693305
5.13195 0.284394 8.67854
5.91528 0.31759 1.15147
2.93783 0.358099 0.683547
7.64373 8.70888 9.80442
9.58386 0.266819 3.7725
3.59625 0.139367 0.867405
3.37325 0.253969 0.7719
3.36282 0.205015 0.980157
1.56222 4.62041 9.7889
1.57481 1.03266 1.44338
1.11138 8.70475 9.94187
3.10319 0.205181 1.0435
2.70895 0.282021 5.38285
3.37074 8.21824 2.33049
3.26731 0.406982 1.01575
2.98963 0.0417645 1.28573
3.0454 0.291871 0.687838
5.37384 0.390191 0.935452
9.79466 0.664233 4.25361
1.42591 0.469524 7.8507
2.50979 10 3.86958
5.25213 0.464991 8.28309
3.6218 0.113987 1.13094
9.08695 1.65516 6.58122
1.4279 1.5874 2.35621
6.8849 0.247888 0.662067
2.95415 0.396547 1.45129
2.47 0.217552 1.56655
7.15165 6.04777 5.25861
6.29525 0.375976 7.18454
1.89926 0.408677 9.58395
5.28529 0.68221 8.00066
3.60985 0.286923 1.2027
4.01976 0.592658 1.42213
0.700334 8.16361 9.20884
6.49523 0.462116 1.84988
2.24019 5.96145 10
9.356 1.10552 7.33351
6.02343 0.304659 8.65264
3.44415 0.498955 0.976633
6.63736 0.0950977 7.12967
4.0967 0.351375 0.91972
8.02692 3.26265 0.773687
3.05952 0.248891 1.00003
3.43268 0.583666 0.591529
7.49931 1.39445 3.07553
4.12684 0.114652 5.34311
5.02123 0.793421 8.69172
9.45363 0.214328 3.63569
3.23073 0.40435 1.67114
5.49208 0.748691 8.28883
1.67643 0.607648 4.91272
2.44725 0.811437 7.88987
3.47847 1.21399 5.91965
2.9841 0.225948 0.920292
9.60842 3.69612 2.80283
3.37591 0.649526 1.1476
3.19476 0.62238 0.288572
3.93353 0.742726 1.38016
3.22244 0.0820109 1.25089
5.65827 0.622368 8.07777
1.10371 1.77531 0.939661
1.67922 0.448613 4.51935
4.7881 1.67972 7.22975
0.228919 1.84526 0.533505
6.39252 0.0774514 7.66034
3.64568 0.349231 1.37028
4.26854 7.33179 5.06568
4.96904 0.304842 8.58553
3.51029 1.19068 5.60523
9.42979 0.272148 3.82045
3.77305 0.406029 1.19803
5.29172 1.53015 3.06132
6.09088 0.445813 8.46313
5.29471 1.89625 3.90692
4.92517 0.515715 8.48952
3.55538 0.33979 1.08318
9.69967 3.23021 1.7726
1.41425 0.527997 7.82516
4.05354 7.66753 10
5.10929 0.163895 8.1952
5.26838 0 6.21897
5.95184 0.757846 0.716976
5.63447 0.847038 8.28006
9.36259 0.0720148 3.68999
3.74864 0.595424 1.1108
2.98179 0.273421 1.29192
7.04616 0.400512 1.94705
1.87277 0.567112 0.301679
3.76064 0.924841 5.9056
6.70975 1.22165 9.58762
5.21637 0.6362 8.29097
2.99837 1.68399 6.43788
4.3801 9.37926 8.80114
1.64854 1.66563 2.14104
3.38548 0.407849 0.840793
6.19798 0.478053 0.820263
5.15337 0.403221 0.385105
7.76426 10 8.82166
1.07705 0.579931 7.82929
8.30654 5.84616 7.60653
9.46833 0.197133 3.26356
2.96874 0.636728 1.05312
6.02738 1.35733 4.90348
6.50329 1.5367 9.49859
4.88302 8.55964 2.79244
9.96466 0.0952025 1.17712
5.64722 0.650956 1.13337
3.61764 0.643796 0.66724
0.544041 0.82084 8.73149
5.21064 0.198304 8.0631
5.08427 0.406695 8.10169
3.30595 0.626409 1.11578
3.23195 0.532186 0.835447
5.6886 1.31307 4.91512
3.139 0.490537 1.03891
2.69145 0.478194 1.53323
4.45734 1.87776 6.80862
2.6119 2.1913 6.61668
6.97824 0.519278 0.511034
3.49241 0.420454 1.33262
0.530797 1.05719 9.17917
3.10042 0.493333 1.72745
3.67423 0.517341 0.975392
2.3121 0.603708 7.91293
3.46735 1.10624 5.93647
5.09075 0.873795 8.68284
6.11921 2.11646 6.19423
9.6261 0.217708 3.96538
3.47272 0.473913 0.438483
6.06301 1.50134 5.05578
0.325235 0.950075 8.83005
7.13377 0.0780626 1.35411
5.33898 1.91899 3.77064
5.28517 1.92825 3.27811
3.86286 1.3977 2.6183
4.5488 0.182371 8.52871
1.54908 0.219621 4.76209
4.95679 0.489232 8.08267
2.85048 0.201379 0.691681
6.13386 0.408408 0.887374
6.81946 0.0563708 0.876345
3.0908 0.576824 0.65506
5.51221 0.229994 0.343498
1.35213 0.718105 0.165528
4.07921 0.038605 1.36892
9.21894 1.92154 7.63799
3.06564 0.28227 0.787614
5.11503 0.669725 8.29729
3.18755 0.564862 1.55598
5.70949 0.725477 0.618625
8.27083 5.54145 7.72895
5.4318 1.67281 3.69186
3.51573 0.43941 0.999007
7.6571 1.57159 2.40726
2.93077 0.252709 5.41904
4.98821 0.536396 8.19093
3.19181 0.147779 4.98771
5.40803 0.470839 8.56964
5.15678 0.787034 8.47926
2.9966 0.327709 0.929974
3.26493 0.532836 0.817098
5.42834 0.467398 0.187921
3.45236 0.400619 1.01059
3.2546 0.53207 1.40543
3.13056 0.0697073 5.41644
4.13234 0.573915 0.951735
3.66048 0.510342 0.820345
6.60791 1.09791 9.31507
4.82411 0.267971 8.7072
2.77187 0.205556 0.489716
2.8941 0.309688 1.17451
5.02735 0.648247 0.867543
5.32732 0.757796 8.4125
2.6393 0.313504 0.990327
3.41435 0.465105 0.947039
5.20711 0.507749 1.10436
4.94277 0.396053 8.49724
4.73468 0.299877 8.07364
3.20489 0.360556 1.07062
2.56747 0.328282 1.08853
9.63443 0.130324 4.08926
5.27502 0.664353 7.77235
6.33278 0.370527 7.60674
4.94843 0.206835 7.96354
5.86255 0 0.8495
5.20095 0.560639 1.08723
6.35842 2.21897 6.26009
5.10747 0.371451 8.44019
3.96471 0.725663 1.12751
3.22756 0.421018 1.13195
9.49644 0.257873 3.50903
5.05351 0.547494 8.60686
4.77505 0.606215 8.20293
4.78647 0.281373 8.4385
3.18453 0.275924 0.744488
3.51775 0.129254 0.678827
3.21082 0.395164 1.18784
4.85793 0.414203 8.4057
3.16632 0.371701 1.1389
0.455915 0.934178 8.8375
5.17179 0.686396 8.20201
3.67748 0.191393 0.742265
3.57152 0.489667 1.14243
9.79185 2.64778 7.95174
5.14186 0.412939 0.62566
3.43546 0.231314 0.767701
3.3292 0.30123 1.12129
5.12514 0.251569 8.42337
3.23851 0.436344 0.790603
0.508716 1.00847 8.66069
5.16433 0.422837 8.12885
3.67339 0.207515 0.704903
2.99765 0.282225 5.28664
6.65685 0.222779 0.900228
5.12115 0.411541 0.607221
POINT_DATA 400
SCALARS particleColor float 3
LOOKUP_TABLE default
0.282449 1 0.717551
1 0.191092 0
1 5.96046e-08 0
1 0.513609 0
1 0.676269 0
1 0.39368 0
0 0.667009 1
0.996269 1 0.00373125
0 0.501103 1
0.72109 1 0.27891
0 0.780021 1
1 0.943195 0
1 0.0790355 0
0.588864 1 0.411136
0.899259 1 0.100741
1 0.675969 0
1 5.96046e-08 0
0 0.253006 1
0.086965 1 0.913035
0 0.931865 1
0 0.659657 1
0.260591 1 0.739409
1 0.391975 0
1 0.639982 0
1 0.633882 0
0.360821 1 0.639179
0.646438 1 0.353562
0.728244 1 0.271756
0.574741 1 0.425259
1 0.989806 0
0 0.81013 1
0 0.858836 1
1 0.723003 0
0.416248 1 0.583752
0.990537 1 0.00946325
1 5.96046e-08 0
0.051516 1 0.948484
0 0.726748 1
0 0.751419 1
0 0.88525 1
0.527639 1 0.472361
0.289196 1 0.710804
1 0.192659 0
1 5.96046e-08 0
0 0.459943 1
0 0.186142 1
0.0250744 1 0.974926
0 0.74416 1
0 0.209094 1
1 5.96046e-08 0
0.116832 1 0.883168
1 0.201138 0
0.171387 1 0.828613
1 0.472791 0
0.0142034 1 0.985797
0 0.735388 1
1 0.962477 0
1 0.934636 0
0.209018 1 0.790982
0.357228 1 0.642772
0.585705 1 0.414295
0.408201 1 0.591799
1 0.738155 0
0 0.460981 1
1 0.541402 0
0 0.626575 1
0 0.474188 1
1 0.601234 0
0 0.853958 1
0.107803 1 0.892197
0.0887923 1 0.911208
0 0.52637 1
0.180267 1 0.819733
0 0.138189 1
0.796228 1 0.203772
1 5.96046e-08 0
0 0.551691 1
0.764646 1 0.235354
0 0.985626 1
0 0.785576 1
0 0.316183 1
0.173533 1 0.826467
0.130254 1 0.869746
0 0.455872 1
0 0.984957 1
0 0.705619 1
0.0305313 1 0.969469
0.0252874 1 0.974713
0.0966671 1 0.903333
0.658144 1 0.341856
0 0.270507 1
0.617423 1 0.382577
0 0.463627 1
0 0.697658 1
0 0.908843 1
1 5.96046e-08 0
0.558686 1 0.441314
0.822972 1 0.177028
1 0.201621 0
0 0.181606 1
0 0.529582 1
1 0.13052 0
0 0.688208 1
0.417022 1 0.582978
0.93099 1 0.0690095
0.0590504 1 0.94095
0.691928 1 0.308072
0 0.336627 1
0 0.469253 1
1 0.0244769 0
0.839266 1 0.160734
0.402113 1 0.597887
0 0.457739 1
0.0279782 1 0.972022
0 0.337393 1
0.96019 1 0.0398103
0 0.454356 1
0.651653 1 0.348347
0.39286 1 0.60714
1 0.148732 0
0 0.717675 1
0.709648 1 0.290352
1 5.96046e-08 0
0.523012 1 0.476988
0 0.90772 1
0 0.378771 1
0.372915 1 0.627085
0 0.541482 1
0 0.283141 1
0.148831 1 0.851169
0 0.823899 1
0 0.843856 1
0 0.969659 1
0.353895 1 0.646105
0.696181 1 0.303819
0 0.699712 1
0.993589 1 0.0064106
0 0.594958 1
1 5.96046e-08 0
0 0.775082 1
0 0.612951 1
1 0.835863 0
0 0.578947 1
0.345147 1 0.654853
0 0.42698 1
0 0.727703 1
0.0399943 1 0.960006
0.668625 1 0.331375
0 0.685354 1
1 5.96046e-08 0
0 0.640775 1
0 0.110808 1
0 0.772151 1
1 0.886332 0
0.34642 1 0.65358
0 0.201173 1
0 0.684845 1
0 0.551976 1
0.741385 1 0.258615
0.547529 1 0.452471
0.0293509 1 0.970649
0.0727995 1 0.9272
0 0.840046 1
0 0.89293 1
1 0.272122 0
0 0.526239 1
0 0.79906 1
0 0.740068 1
1 5.96046e-08 0
0.755551 1 0.244449
0 0.489529 1
0.478554 1 0.521446
0 0.570948 1
0.168215 1 0.831785
0 0.653443 1
0.313564 1 0.686436
0 0.522654 1
0 0.574614 1
0.306106 1 0.693894
1 0.138629 0
0 0.551666 1
0.735778 1 0.264222
1 0.261321 0
0 0.725906 1
0 0.880241 1
0 0.718319 1
0 0.189042 1
1 0.929654 0
0 0.762633 1
0 0.341961 1
0 0.376757 1
0 0.466951 1
1 0.805307 0
0.0181229 1 0.981877
1 0.00658292 0
0 0.602983 1
0 0.770004 1
1 0.107557 0
0 0.609735 1
0 0.509888 1
0 0.474212 1
0 0.571704 1
0.196173 1 0.803827
0 0.592862 1
1 0.625605 0
0 0.571083 1
0 0.58639 1
1 0.226874 0
0.162973 1 0.837027
0.166873 1 0.833127
0 0.278939 1
0 0.462714 1
1 0.336517 0
0 0.913517 1
0 0.916489 1
0 0.24469 1
0 0.782782 1
0 0.467609 1
1 0.404227 0
0 0.93323 1
0.0882803 1 0.91172
0 0.686152 1
0 0.634977 1
0 0.664167 1
0 0.704182 1
0 0.436 1
0.377901 1 0.622099
0 0.548977 1
0 0.797818 1
0 0.795929 1
0 0.609418 1
0 0.909995 1
0 0.953103 1
0 0.331116 1
0 0.406122 1
0 0.514921 1
0 0.933103 1
0 0.847946 1
0 0.590888 1
1 0.427538 0
0 0.433835 1
0 0.299154 1
0 0.51037 1
0 0.796411 1
0 0.332375 1
0 0.767398 1
0 0.851934 1
0 0.948417 1
0.10043 1 0.89957
0 0.838144 1
0 0.507471 1
0.7097 1 0.2903
0 0.644168 1
0 0.724977 1
0.245917 1 0.754083
0 0.532707 1
0 0.960842 1
0 0.332658 1
0.26177 1 0.73823
0 0.696137 1
0 0.764425 1
0.437813 1 0.562187
0 0.749385 1
1 5.96046e-08 0
0 0.837797 1
0.967355 1 0.0326451
0 0.752028 1
0 0.676343 1
0 0.481383 1
0.0129495 1 0.987051
0 0.965999 1
0.0140779 1 0.985922
0.463891 1 0.536109
0 0.483354 1
0.0499562 1 0.950044
0.0399637 1 0.960036
0.0613559 1 0.938644
1 0.892006 0
0 0.84032 1
0 0.528385 1
0 0.435168 1
0 0.518053 1
1 5.96046e-08 0
0 0.570922 1
0.284484 1 0.715515
0 0.492386 1
0 0.17097 1
0 0.250281 1
0 0.560509 1
0.975986 1 0.0240136
0 0.122308 1
0 0.759382 1
0 0.823609 1
0 0.189404 1
0 0.506233 1
0 0.458681 1
0 0.681905 1
0 0.855885 1
0 0.669075 1
0 0.792918 1
0.650576 1 0.349424
0 0.452281 1
0 0.822096 1
1 5.96046e-08 0
0 0.504212 1
0 0.886261 1
0.0552409 1 0.944759
0 0.257573 1
0.020685 1 0.979315
0 0.883869 1
0 0.379654 1
0 0.642793 1
0 0.18023 1
0 0.652975 1
0.00773307 1 0.992267
0 0.69699 1
0.032298 1 0.967702
0 0.617993 1
0.11665 1 0.88335
0 0.889858 1
0 0.407155 1
0 0.617716 1
0 0.740745 1
0 0.877396 1
0 0.688154 1
0 0.295129 1
0 0.37166 1
0 0.229605 1
0.387953 1 0.612047
0 0.634704 1
0 0.522556 1
0 0.735735 1
0 0.538433 1
0 0.861447 1
0 0.275465 1
0 0.882126 1
0 0.575067 1
0 0.651156 1
1 0.908186 0
0 0.630014 1
0 0.876407 1
0 0.420061 1
0 0.480803 1
0 0.455883 1
0 0.49497 1
0 0.873029 1
0 0.538599 1
0 0.750172 1
0 0.757999 1
0 0.83368 1
0 0.584366 1
0 0.646351 1
0 0.349171 1
0 0.670014 1
0 0.579808 1
0 0.447381 1
0 0.464559 1
0 0.54588 1
0 0.302516 1
0 0.930599 1
0 0.643833 1
0 0.445378 1
0 0.205341 1
0 0.384257 1
0 0.797241 1
0 0.417128 1
0 0.619205 1
0 0.711645 1
0 0.894927 1
0.0727979 1 0.927202
0 0.515657 1
0 0.466921 1
0 0.736618 1
0 0.73145 1
0 0.721516 1
0 0.956235 1
0 0.660695 1
0 0.821436 1
0 0.689431 1
0 0.508765 1
0 0.448995 1
0 0.399554 1
0.143501 1 0.856499
0 0.939814 1
0 0.826612 1
0 0.29474 1
0 0.437758 1
0 0.846942 1
0 0.804393 1
0 0.482924 1
0 0.593925 1
0 0.480608 1
0 0.985947 1
0 0.470466 1
0 0.592559 1
0 0.390506 1
0 0.61711 1
0 0.48031 1
0 0.792544 1
0 0.441244 1
