# vtk DataFile Version 3.0
Particle simulation
ASCII
DATASET POLYDATA
POINTS 400 float
1.1498 4.65656 5.10705
5.11402 5.20633 8.46517
1.79744 5.87998 0.505686
4.02823 5.83936 2.32417
9.86531 1.90213 7.79713
4.88216 5.98795 4.45264
5.60572 2.42614 6.61146
6.0438 5.62192 9.38478
6.85558 0.488513 8.71653
5.67355 7.22831 4.82581
4.3207 6.35811 7.5302
9.12985 3.63115 2.54689
9.74003 7.60195 5.68524
8.59985 4.30938 3.93912
5.9546 3.2393 3.6916
6.44285 3.43673 1.61523
5.67087 5.04318 10
4.25647 0.49774 3.63463
4.81756 7.4166 9.51449
8.76054 5.46794 4.36496
3.33489 0.206127 1.48645
9.44802 5.72929 1.11721
4.18663 1.96348 0.279316
0.144595 0.0773384 0.28161
2.80436 6.12253 6.19844
0.906434 5.95535 8.68457
5.15723 0.784555 7.62203
9.19583 9.86857 5.74253
2.0465 3.68731 3.50494
1.58492 2.71124 7.97402
5.91242 7.49135 9.43036
6.64732 1.4411 1.91921
5.89596 9.35896 5.05463
4.48858 8.08941 8.9483
9.78403 7.01632 8.15485
5.51654 6.04835 3.04858
0.909122 2.19804 7.67402
6.3889 0.278781 2.03293
7.87768 1.62893 0.432295
6.6092 6.99987 6.03622
5.55511 2.48465 9.18653
8.39005 6.9779 6.90862
5.56956 1.61648 2.3615
8.85533 8.32013 6.23023
2.39788 9.17416 9.24367
6.7475 0.366489 9.27411
8.39492 1.44869 2.53337
0.485092 1.49127 7.07135
9.25638 6.98977 0.23257
8.81628 0.814075 8.55573
0.426061 6.2503 5.15364
2.62815 4.72356 2.05882
5.46312 9.29703 3.38169
9.07554 3.14652 5.59016
2.15202 6.09459 0
0.890153 3.23179 2.57449
6.34246 3.50086 7.9577
0.319894 2.27577 9.94406
6.54061 2.51353 4.8589
4.62744 8.59766 7.4415
3.98064 6.06439 8.25392
8.88476 3.83952 0.251087
1.77663 6.16883 9.06162
5.79837 2.60211 8.42975
5.77892 3.06508 6.13476
6.83777 5.7414 2.1045
5.27222 1.73018 2.43953
1.57427 2.20256 6.85274
1.59735 2.78892 6.2043
0.529076 3.94753 1.39142
7.00517 5.05709 6.0026
4.85111 9.50411 4.68768
9.58325 0.836828 4.52569
4.50852 5.75929 5.1881
4.92765 8.2617 0.786444
10 0.425174 8.06969
3.09251 0.278634 0.33123
7.92796 9.32439 7.80731
0.489768 1.11255 9.4226
1.12757 6.18503 2.68289
2.62201 0.173453 6.28778
9.54981 0.180436 10
8.5391 8.50547 3.12506
4.85198 1.60483 3.70413
6.8995 1.40002 8.51642
9.60232 8.38226 5.18097
0.211628 8.3544 7.7487
3.31701 0.462158 7.80069
1.40275 6.76928 6.99953
6.01132 0 2.59019
5.20081 0.29215 3.79313
9.99223 9.78784 3.46302
0.845069 4.48959 7.15603
2.75056 7.62576 3.73805
8.38028 7.84937 4.24034
2.36561 3.21434 4.2103
4.46858 4.03975 6.17387
1.39714 0.123346 4.6041
0.406191 5.79901 7.78437
6.78478 2.59672 0
5.89967 3.55755 4.76637
0 7.13199 3.73673
1.0037 8.41446 7.44179
5.19285 0.994317 7.1621
8.91241 0.524965 2.89916
3.912 5.06701 4.08844
2.12852 6.58902 1.61561
0.485064 3.61571 2.85684
7.31233 2.79981 5.50466
4.66286 2.69564 3.39086
0.692678 4.09328 8.49452
8.63584 2.37175 3.94561
7.06665 5.47579 4.26843
1.71658 1.13308 4.52208
2.509 1.05073 4.08343
9.75114 2.39918 0
2.94968 3.48264 8.80808
4.70986 6.97253 4.27835
0.163197 1.90559 9.28708
1.74322 6.95865 1.73363
7.70173 7.90289 1.71084
6.02868 2.30829 2.09225
4.07116 9.09147 9.13343
10 6.76127 4.24992
9.38711 2.41622 3.51102
4.86905 2.47423 8.92422
3.35174 3.21518 4.12555
9.64254 8.96781 4.37374
9.05458 3.67166 9.92268
1.49696 7.49391 7.73619
5.7629 6.37072 1.63622
0 0.134901 10
0.694468 0.486333 9.65648
0.12375 8.39254 2.3206
3.74612 8.65081 9.07698
2.00973 8.54179 4.35848
9.1785 0 10
8.97316 10 7.78903
8.16235 4.95888 6.42343
9.80032 4.5998 1.18131
4.69026 0.3001 3.43669
8.04614 3.30982 1.88628
5.77527 7.87117 3.20718
9.24992 6.32972 6.78341
3.27295 8.93754 6.43208
8.07539 1.78743 1.59311
8.75662 7.43706 0.837409
3.06667 1.54911 1.03869
3.30244 9.58798 3.4496
7.24448 0.449956 3.81803
4.33723 0.508185 3.06352
7.63265 1.88617 3.46027
9.6168 1.33997 2.62214
4.04215 0.7145 5.57082
1.11847 8.7562 0.495474
6.362 6.46876 8.27514
8.86525 7.60776 6.14316
9.12157 6.27078 9.28616
4.43698 8.00044 1.29143
8.32149 4.57131 4.34785
9.09713 7.23821 1.36242
5.25247 3.03942 3.32209
5.33137 5.78239 3.71709
8.71117 5.65624 6.0208
5.40579 5.97567 3.70205
3.653 2.90186 3.18973
8.94781 1.83404 2.85397
7.35752 8.91134 8.69671
7.57231 6.10736 2.65136
0.857467 7.15597 5.60034
5.36477 0.573602 3.04853
8.71991 2.08629 2.17712
4.16471 5.89895 7.11324
4.21967 0.548359 8.13448
3.89037 9.75706 9.09718
0.0637382 2.70381 2.49752
7.01293 9.11569 7.47045
3.61426 8.29643 8.87741
5.68999 10 4.0916
0.554205 0.844414 8.56942
3.83034 0.885281 3.75241
7.54378 4.39993 7.81344
0.654999 8.59489 2.79713
0.496639 3.7743 6.15143
7.28296 4.44723 7.87277
5.16181 6.09138 4.25391
4.31199 0.507318 3.40796
9.26001 6.00717 9.25347
2.50735 1.2489 4.0137
1.02215 0.241295 4.41943
4.21595 0.408989 4.50447
4.44895 0.251822 4.69303
5.94761 8.9186 2.04415
4.60337 6.21451 3.25922
1.79635 3.49118 0.511617
0.814603 8.81478 0.752359
7.29464 0.240957 4.09081
8.18615 1.57146 3.73088
10 1.09488 5.9229
4.28655 0.425352 3.09368
4.34141 0.431124 2.92243
0.544695 7.53769 8.76586
1.62497 5.12153 1.90925
1.57774 10 3.43224
3.18945 2.4579 2.03946
1.81735 7.54779 6.36898
1.08197 3.17775 3.10626
0.581303 3.09163 4.6135
0.154078 5.78271 3.01625
7.25848 3.92802 1.34974
4.4686 0.593659 3.12918
4.17564 0.613934 2.95496
1.00957 4.81006 2.80653
5.55835 7.59603 6.82107
1.03918 9.88784 5.41013
2.15993 4.69702 2.68548
4.33384 0.230043 2.90202
8.90057 4.28148 6.26211
9.20084 7.28496 6.91143
0.844681 2.19228 1.13738
8.49826 5.55814 7.38826
0.793791 8.60193 3.77241
2.85509 8.63222 6.50319
4.413 0.327792 2.72229
3.15453 7.06242 0.204969
8.44397 10 9.22054
5.20315 5.7989 6.38969
5.04202 0.576603 3.28893
4.4768 0.357365 3.40711
1.83935 2.5119 8.51047
1.61965 6.14672 9.59688
9.28183 8.14893 1.66577
6.26762 0.908706 5.01771
4.56823 0.297605 2.85906
1.56699 0.156109 8.11035
4.7477 4.86857 4.97951
5.29564 5.93201 7.81104
4.95253 9.51268 8.55031
4.27679 0.455918 3.35903
6.37268 2.06501 3.27355
4.38687 0.479891 2.64725
6.39568 0.375854 2.18266
3.66326 1.93434 5.27019
5.83158 1.72946 2.33994
5.02139 4.18217 0.375317
6.83346 4.25208 4.90373
1.35448 5.31692 5.89689
2.87591 5.74307 4.22477
8.56161 9.16101 7.86595
2.79316 3.62861 3.03037
4.19233 0.346236 3.022
3.09851 2.17071 9.21217
8.07651 4.80688 8.36532
6.20328 5.12423 6.6812
0.445292 1.42664 6.1715
2.03343 3.99751 0.794012
0.340348 2.84511 0.868193
1.66318 0.308984 8.11882
2.64487 6.91772 0.283894
2.2175 0.177904 7.15857
7.42668 8.96523 8.3306
3.12048 7.65329 7.7502
0.900315 4.61971 2.88608
6.56013 0.322671 7.33307
2.20339 1.65941 3.10288
1.4839 4.30135 6.6098
0.79232 7.64251 1.88249
1.94525 0 8.1882
4.16216 1.56117 3.39426
9.47105 5.71335 1.82317
4.23678 0.545804 3.42028
1.58992 6.61837 1.49141
1.02797 4.7729 3.39671
8.44068 2.3176 3.58225
0.734593 0.610512 5.30781
4.2872 2.56931 8.49184
0.984062 6.6449 6.06725
9.63461 1.20742 3.63002
4.92902 2.45213 3.94808
4.36248 0.272514 3.7029
2.68729 8.33584 0.33252
9.40989 1.13591 1.41293
0.210415 3.3411 2.98639
4.70934 7.42863 3.18999
3.12554 10 4.09976
7.1302 1.10022 1.93665
4.144 0.428968 3.23558
5.90191 7.58262 4.23887
5.65221 1.95751 2.1508
8.79768 4.46804 1.4327
3.94301 6.8249 7.20703
1.35405 6.14374 0.638433
1.04845 2.22898 4.29462
4.94811 0.0385021 1.96117
7.33221 8.87023 2.28776
1.52659 0.16838 7.91273
4.33661 0.114958 3.35656
4.49432 0.598594 3.30345
4.52608 0.672681 2.51974
4.33863 0.491942 3.39206
0.431622 8.08562 5.00618
7.25344 5.81361 3.31985
5.05383 0.0701771 3.79867
2.5565 5.21311 9.60969
4.58945 0.685958 2.88961
4.16681 8.01318 1.37876
4.69021 0.32945 3.79116
4.37756 0.383416 3.30606
3.89791 7.6869 2.57622
7.9026 5.09485 8.14897
9.20743 8.17071 5.20695
0.3921 0.858585 4.02824
8.83229 5.71465 1.99695
4.08919 0.096572 3.50591
7.5915 5.81538 9.33342
4.85178 9.36322 6.54624
8.47918 3.70211 2.55487
2.43933 3.66066 8.71261
9.02235 9.84338 7.59553
4.9259 1.53268 0.282816
1.69311 0.412534 7.99769
2.79378 3.26483 5.46564
1.46172 0.40811 8.14752
4.46487 0.553792 3.30816
5.91128 0.610088 3.30739
0.632517 8.14199 1.83293
4.37539 0.228425 3.44862
1.96212 0.731269 0.785569
4.77766 5.51993 6.3793
4.57187 0.342697 3.55812
2.5833 0.865495 6.48855
0.817849 2.5404 4.06459
5.43397 2.88393 9.22543
2.20444 5.25447 2.8777
9.38579 0.829822 1.74824
3.46485 9.52905 0.574008
3.70186 5.46316 6.73776
4.55988 0.407692 3.47061
8.59067 2.60378 4.29408
7.20696 5.95334 2.24924
6.13143 6.41392 5.92781
6.75714 7.2125 8.688
1.69885 3.55608 6.91563
1.47253 0.396421 8.06641
4.1011 0.936822 3.19825
4.78916 0.233036 4.03227
9.68921 0.364292 1.88523
4.50141 0.013792 3.55291
4.0215 0 3.56128
7.9484 1.92123 1.98759
4.93807 0.205309 3.69141
4.59441 0.0970759 3.5102
1.84273 0 5.91169
1.91764 3.2515 2.16288
2.42127 1.29749 3.71338
4.38839 0.453401 2.78862
9.99575 1.30877 7.95514
9.10811 9.89003 0.960099
3.76842 0.232593 3.45162
4.27358 0.771482 3.53278
9.6882 0.0524228 1.4724
1.34354 0.328611 8.12446
1.45843 0.375602 8.11949
4.74719 1.10882 2.91976
4.30005 0.349869 2.57553
9.77083 0.244698 1.13661
2.12661 0.201086 7.53358
1.3822 7.60628 5.58258
1.46072 0.288923 8.00805
1.31308 2.74381 3.91289
9.69252 0.29809 1.79764
1.7174 6.79395 2.01322
8.86932 7.28293 2.35492
4.46038 0.43139 3.40214
3.83835 0.669443 3.01714
9.42193 0.982756 1.79729
1.45636 0 7.95198
1.34341 0.514105 8.2827
0.892863 3.41905 9.36842
4.84675 0.344873 3.64178
4.69197 0.586655 3.48492
4.47622 0.181612 3.55248
0.81641 4.61508 8.97896
4.35568 0.31831 3.33714
9.4397 6.50995 10
1.40054 0.0938333 7.83878
4.5193 0.523303 3.40451
4.53518 0.422972 3.49848
2.80683 8.2869 5.48852
6.08816 0.269661 7.63573
4.87776 0.933809 3.38956
4.10924 0.400829 3.38065
1.31811 0.423283 7.76049
4.46185 0.263379 2.85253
5.28928 10 9.37769
1.7865 0.496776 8.27104
4.44303 0.522842 3.57528
5.19293 5.17776 2.67873
0.0316954 3.66446 1.22455
9.70409 1.01468 1.60262
POINT_DATA 400
SCALARS particleColor float 3
LOOKUP_TABLE default
1 0.292483 0
1 0.685817 0
1 5.96046e-08 0
1 5.96046e-08 0
0.501214 1 0.498786
1 5.96046e-08 0
0.239206 1 0.760794
1 5.96046e-08 0
1 5.96046e-08 0
1 5.96046e-08 0
1 5.96046e-08 0
1 5.96046e-08 0
1 0.0579696 0
0.951712 1 0.0482877
1 5.96046e-08 0
1 5.96046e-08 0
1 5.96046e-08 0
0 0.52407 1
0.575443 1 0.424557
1 5.96046e-08 0
0 0.874325 1
1 5.96046e-08 0
0.999802 1 0.000197589
1 0.418451 0
0.659426 1 0.340574
1 5.96046e-08 0
1 0.934709 0
0.585339 1 0.414661
1 5.96046e-08 0
0.230886 1 0.769114
1 5.96046e-08 0
0 0.847136 1
0.980965 1 0.0190354
1 0.279186 0
0.649833 1 0.350167
1 0.231194 0
0.637348 1 0.362652
0.417541 1 0.582459
1 5.96046e-08 0
0.587484 1 0.412516
1 0.457971 0
1 0.863593 0
0 0.788473 1
1 5.96046e-08 0
0.0655747 1 0.934425
1 5.96046e-08 0
0.58272 1 0.41728
1 5.96046e-08 0
1 0.664904 0
1 0.391541 0
1 5.96046e-08 0
0.311875 1 0.688125
1 0.354009 0
1 5.96046e-08 0
1 5.96046e-08 0
0.269997 1 0.730003
1 0.336396 0
0 0.363493 1
1 5.96046e-08 0
1 0.282955 0
1 0.982381 0
1 0.866888 0
0 0.978162 1
1 0.575585 0
0.262295 1 0.737705
1 5.96046e-08 0
1 0.315631 0
0.168099 1 0.831901
0.684218 1 0.315782
1 5.96046e-08 0
1 5.96046e-08 0
0.330027 1 0.669973
1 5.96046e-08 0
1 0.774127 0
1 5.96046e-08 0
1 5.96046e-08 0
1 5.96046e-08 0
1 5.96046e-08 0
0.963526 1 0.0364739
1 5.96046e-08 0
1 0.0860592 0
1 0.742554 0
1 0.273729 0
1 5.96046e-08 0
1 5.96046e-08 0
0.424542 1 0.575458
0.638822 1 0.361178
0 0.876138 1
0.446653 1 0.553347
1 5.96046e-08 0
0 0.722244 1
0.23838 1 0.76162
1 0.592618 0
1 0.196641 0
1 5.96046e-08 0
0.0751655 1 0.924834
1 0.225222 0
1 0.604849 0
0.175692 1 0.824308
1 5.96046e-08 0
1 5.96046e-08 0
1 5.96046e-08 0
1 5.96046e-08 0
1 5.96046e-08 0
1 5.96046e-08 0
0.0593549 1 0.940645
1 5.96046e-08 0
0.796481 1 0.203519
1 5.96046e-08 0
1 5.96046e-08 0
0.930337 1 0.0696626
1 0.732348 0
0.608541 1 0.391459
1 5.96046e-08 0
0 0.981483 1
1 0.42491 0
1 5.96046e-08 0
1 0.734121 0
0 0.871335 1
1 0.194853 0
1 0.135485 0
1 5.96046e-08 0
1 5.96046e-08 0
1 0.731351 0
0 0.846981 1
0.501131 1 0.498869
0.0293833 1 0.970617
0.403189 1 0.596811
0.207716 1 0.792284
1 5.96046e-08 0
1 5.96046e-08 0
1 5.96046e-08 0
1 0.370441 0
0.48459 1 0.51541
1 5.96046e-08 0
1 5.96046e-08 0
1 5.96046e-08 0
1 5.96046e-08 0
1 5.96046e-08 0
0 0.657459 1
0 0.392051 1
1 5.96046e-08 0
1 0.684987 0
1 5.96046e-08 0
1 0.681733 0
1 5.96046e-08 0
1 0.685012 0
1 0.427982 0
1 0.640607 0
0.873678 1 0.126322
0 0.169726 1
0.949601 1 0.0503992
1 0.765844 0
0 0.790379 1
1 5.96046e-08 0
0.50578 1 0.49422
0.436321 1 0.563679
1 0.589174 0
1 0.609379 0
0.999266 1 0.000733852
1 5.96046e-08 0
1 0.106329 0
1 5.96046e-08 0
1 5.96046e-08 0
1 0.415458 0
1 0.276992 0
1 0.498819 0
1 0.363555 0
1 5.96046e-08 0
1 5.96046e-08 0
0.36181 1 0.63819
1 5.96046e-08 0
1 5.96046e-08 0
0.436977 1 0.563023
1 5.96046e-08 0
1 0.174285 0
1 0.645316 0
1 5.96046e-08 0
1 5.96046e-08 0
1 0.979081 0
0 0.741691 1
1 0.161378 0
0.300319 1 0.699681
1 5.96046e-08 0
1 0.848321 0
1 5.96046e-08 0
0 0.328144 1
0.703655 1 0.296345
0 0.658732 1
0.445599 1 0.554401
0 0.94105 1
0 0.594383 1
0.780383 1 0.219617
1 0.517843 0
1 5.96046e-08 0
1 5.96046e-08 0
0.234163 1 0.765837
1 0.550636 0
1 0.107625 0
0 0.88504 1
0 0.201223 1
1 0.542492 0
1 0.564875 0
1 5.96046e-08 0
0.932903 1 0.0670966
1 5.96046e-08 0
1 0.0644294 0
0.337939 1 0.662061
1 0.234971 0
1 0.908955 0
0 0.417229 1
0 0.381929 1
0 0.592877 1
0.93375 1 0.0662498
1 5.96046e-08 0
1 5.96046e-08 0
0 0.552407 1
0 0.478301 1
1 5.96046e-08 0
1 0.893453 0
1 0.555634 0
1 5.96046e-08 0
1 5.96046e-08 0
0 0.729268 1
1 5.96046e-08 0
1 0.00606906 0
0.81794 1 0.18206
0 0.907613 1
0 0.54363 1
1 5.96046e-08 0
0.580542 1 0.419458
0.464537 1 0.535463
1 0.711593 0
0 0.603845 1
0 0.462354 1
1 5.96046e-08 0
0.0512916 1 0.948708
0.288877 1 0.711123
0 0.558784 1
1 5.96046e-08 0
0 0.210102 1
0 0.484061 1
0 0.474134 1
0.529806 1 0.470194
0.495205 1 0.504795
0.876686 1 0.123314
1 0.593454 0
1 5.96046e-08 0
0.674936 1 0.325064
0.0413981 1 0.958602
0 0.703578 1
1 0.674817 0
1 0.560379 0
1 5.96046e-08 0
0.166902 1 0.833098
0.300052 1 0.699948
1 0.599656 0
0 0.525335 1
1 0.560523 0
0 0.970051 1
1 5.96046e-08 0
0.269801 1 0.730199
1 0.44005 0
1 5.96046e-08 0
1 5.96046e-08 0
1 5.96046e-08 0
1 0.952875 0
0 0.748285 1
1 0.093183 0
0.314379 1 0.685621
0 0.83139 1
1 0.782594 0
1 0.117344 0
0.798182 1 0.201818
1 5.96046e-08 0
1 5.96046e-08 0
1 0.975623 0
1 5.96046e-08 0
0.576228 1 0.423772
0 0.147134 1
1 5.96046e-08 0
0 0.408456 1
1 0.602153 0
1 5.96046e-08 0
1 5.96046e-08 0
1 5.96046e-08 0
0 0.601842 1
1 5.96046e-08 0
1 0.905752 0
0.269126 1 0.730874
1 5.96046e-08 0
1 5.96046e-08 0
1 5.96046e-08 0
1 5.96046e-08 0
1 0.398538 0
0 0.373608 1
0 0.7766 1
0 0.233464 1
0 0.992018 1
0 0.554554 1
1 5.96046e-08 0
1 5.96046e-08 0
0 0.43001 1
1 0.296624 0
0 0.925424 1
1 5.96046e-08 0
0 0.638407 1
0 0.5538 1
0.590525 1 0.409475
0.559678 1 0.440322
1 0.0791205 0
1 5.96046e-08 0
1 0.687627 0
0 0.674236 1
1 0.556748 0
1 0.961619 0
0.497348 1 0.502652
0.462196 1 0.537804
1 5.96046e-08 0
0.0999886 1 0.900011
0 0.587287 1
1 0.934673 0
0.00181171 1 0.998188
0 0.817515 1
0 0.70129 1
1 5.96046e-08 0
0 0.718051 1
1 0.557857 0
0.656882 1 0.343118
0 0.504981 1
0.644476 1 0.355524
1 0.0476854 0
1 5.96046e-08 0
0.0286996 1 0.9713
0 0.59471 1
1 5.96046e-08 0
1 0.601637 0
0 0.80104 1
1 5.96046e-08 0
1 0.851586 0
1 0.779629 0
1 0.360464 0
0 0.761258 1
0 0.454668 1
0 0.457563 1
0.00474408 1 0.995256
0 0.720841 1
0 0.676122 1
0 0.816931 1
0.687985 1 0.312015
0 0.566742 1
0 0.0588312 1
0.929098 1 0.0709024
1 5.96046e-08 0
0.248043 1 0.751957
0 0.925935 1
0.0932929 1 0.906707
1 0.83344 0
0 0.322857 1
0 0.231516 1
0 0.523585 1
0 0.356425 1
0 0.43631 1
0 0.69884 1
0 0.68395 1
0 0.746337 1
0 0.943061 1
0.720376 1 0.279624
0 0.329669 1
1 0.605636 0
0.0258104 1 0.97419
0.602089 1 0.397911
1 5.96046e-08 0
0.257172 1 0.742828
0 0.750622 1
0 0.833696 1
0 0.542639 1
0.274727 1 0.725273
0 0.361965 1
0 0.754399 1
0 0.654112 1
0 0.466222 1
0 0.642908 1
0 0.713172 1
0 0.938582 1
0 0.669807 1
0 0.732268 1
0 0.538189 1
1 5.96046e-08 0
0.348509 1 0.651491
0 0.705297 1
0 0.649151 1
0.0387419 1 0.961258
0 0.424974 1
1 0.161279 0
0 0.251359 1
0 0.90947 1
0.855339 1 0.144661
0 0.821613 1
0.120122 1 0.879879
