# vtk DataFile Version 3.0
Particle simulation
ASCII
DATASET POLYDATA
POINTS 400 float
0.671662 0.655664 9.61823
3.29645 1.87073 8.88366
6.41237 6.78124 2.1875
0.489133 8.09105 4.87666
1.77195 7.73075 2.55748
9.28823 1.61512 5.67045
6.74213 1.32565 6.28097
7.09577 4.73675 1.243
4.24795 4.34029 2.04645
2.85927 5.91554 3.798
6.02133 2.20707 4.67943
0.0341684 6.44561 2.7823
5.57759 2.35201 2.61948
5.71575 9.77859 5.75293
9.70807 5.10808 6.94582
4.64995 0 4.39375
2.46436 1.82109 4.2796
2.93722 0.35169 0.792099
3.10765 2.3262 7.42597
5.74073 0.10543 8.87601
2.93912 0.179956 0.780169
4.90224 9.23899 4.3384
2.05924 6.48782 0.690931
0.801842 6.02204 7.47052
2.59846 6.29349 7.5355
4.39592 4.62597 1.66877
3.94578 6.48307 6.08097
7.67261 0.773311 1.69326
2.68638 7.7951 1.68542
3.1435 7.27511 8.42151
10 10 1.68595
1.21937 8.45753 7.22476
9.06515 7.60468 1.85623
9.31366 0.443738 7.98061
2.94015 2.52874 2.28234
7.68618 5.57613 1.71378
2.11973 0.64982 10
2.92822 0.155673 0.992346
8.60805 4.61237 2.718
3.91034 0.510072 3.831
1.74465 3.97416 2.9603
5.41029 2.24759 2.12893
3.88749 9.81503 2.22966
5.90436 4.88057 7.86238
5.52878 0.134627 1.41791
2.12414 1.54629 1.15536
6.74457 3.84132 9.15175
9.72758 0.17948 4.64921
6.86705 0.0184661 2.21137
3.66025 2.00685 5.04319
2.31897 9.6676 5.06226
1.16547 6.98696 5.35781
9.96032 3.65848 2.42637
3.11439 7.5641 8.26012
2.42867 0.389301 6.66653
5.89816 0.190769 1.55795
9.46527 4.92743 9.13357
6.5263 3.42466 3.1256
4.05826 2.66289 5.06326
5.86215 0.30296 8.18431
0.0805891 5.83763 9.54947
9.16205 0.0647937 4.24378
1.44299 4.31237 2.76546
0.474696 0.214572 8.45044
0.692596 5.32119 6.49247
4.69419 1.50946 3.35418
2.95289 1.51323 3.78936
7.96069 3.58251 3.95587
7.24569 6.81893 9.21661
4.52297 5.3398 0.833267
5.03466 2.81101 8.11715
6.24494 2.60586 1.66696
1.32447 6.98913 3.11866
1.13761 5.41948 8.39354
6.06211 5.46696 7.15634
3.64506 5.47616 0.0377286
2.93927 2.8311 4.07396
9.36194 5.23996 6.95378
7.39103 1.51405 4.90305
8.93997 7.66946 3.10429
3.27887 0 0.536893
7.95435 0.212297 7.5759
3.33005 1.13023 0.412791
3.17249 0.368264 2.027
7.07388 8.81855 9.55303
0.875926 2.06112 8.05138
6.44675 8.28056 9.96365
7.44974 8.12551 3.7336
1.61084 0.841679 7.44374
5.55428 4.25118 0.710042
2.67254 0.310862 0.286332
7.17665 7.71663 1.6497
1.0981 6.12467 0.417436
3.27889 0.799889 8.00955
1.21583 0.165123 6.36472
0.956063 8.23163 7.11991
8.40365 0.790916 9.20698
6.62725 0.52923 5.9157
3.30953 4.97826 6.83039
7.96773 1.05544 0.373857
3.37512 0.166708 0.911925
5.01816 9.08773 7.40912
1.36944 2.22404 6.64332
0.511476 1.23014 3.80099
7.76148 3.14132 9.82668
4.15865 5.14914 3.37346
3.18795 0.75952 8.2858
6.63978 0.56839 0.597145
2.58498 0.67159 4.10113
3.99974 4.27372 2.7681
0.373092 1.81053 3.19865
5.91618 0.813567 8.3676
4.55794 4.2948 4.84262
3.97548 0.274919 0.809249
2.69258 0.602154 0.731866
2.07022 3.20324 6.23753
4.62163 0.311471 8.03013
6.74541 4.13398 8.46748
9.38292 2.60026 0.913979
2.24988 6.84959 3.37142
3.07464 0.0770826 0.348584
9.76952 3.00626 0.47048
9.21036 0.682197 9.00775
1.62652 0.554409 9.5455
1.02652 9.60024 4.72604
3.31776 0.117212 0.760254
2.41841 2.014 9.2283
0.314029 0.471678 8.35698
5.53637 1.30211 7.08326
4.63904 5.76219 0.573024
5.14257 0.870208 3.67532
3.55612 5.83112 7.01673
7.82927 1.14759 3.18841
9.34215 1.31841 1.31974
3.17374 0.154653 7.6673
1.50592 1.98203 2.10921
0.832714 0.778538 1.95485
1.35578 0.152554 7.60156
9.83305 9.25911 0
5.40797 0.612209 7.55603
3.54276 0.467881 0.931783
4.32026 8.6712 3.74866
3.54913 4.62099 6.91718
0.696531 3.05633 3.80081
3.59761 0.0930337 0.886278
8.97815 2.55258 8.05048
7.62448 0.197356 1.5577
0.987919 6.03695 3.65273
6.34492 3.03574 1.9828
5.46616 2.06038 6.7117
3.49899 0.449509 0.967219
3.27017 1.45948 5.96627
1.43835 0.560239 8.271
3.74544 0.66946 0.865517
6.40618 4.65684 6.76458
5.15623 0.426362 1.92669
6.5865 2.57797 0.112955
6.37105 0.177832 0.973004
4.95112 0.766886 8.98862
7.9052 1.48671 4.54754
8.09258 3.2728 1.05404
9.09537 0.582154 9.76351
3.46434 1.18171 6.38182
6.58248 5.58844 9.34627
8.6985 2.54717 0.657741
7.86983 8.97236 7.01207
4.9287 0.777881 9.15095
9.15708 0.512417 7.40943
5.97959 9.47678 9.89808
2.69345 0.212856 6.05522
3.32937 0.691963 0.83923
9.16862 1.95289 3.34665
6.15093 3.28029 1.94218
2.57045 5.93316 0.781615
0.841166 0.351762 6.94857
1.11599 5.41978 4.44812
1.86624 0.537036 6.13794
0.943524 1.37848 3.66603
0.795268 0.138161 9.83301
7.6204 9.53865 8.51236
2.85449 0.276868 0.729552
1.9328 7.47452 4.60881
0.31862 1.6178 8.3617
7.87348 2.58759 0.88228
4.91955 0.283011 8.02048
8.78773 2.02167 4.96831
3.45791 0.363104 1.00194
1.72091 0 10
7.16928 0.506327 1.18631
3.15228 0.308578 0.17351
3.41809 0.493899 0.409393
3.39394 0.602844 1.04151
0 5.0082 1.80974
5.38327 0.455928 0.589533
8.31297 1.82502 0
3.24068 0.181475 0.365926
1.92175 0.958485 4.49522
7.75557 2.63873 3.14232
2.79653 0.14116 0.685045
3.49539 0.0786051 0.127355
3.38642 0.419961 0.899928
6.47231 0.227319 1.16806
6.3597 0.105589 1.05739
1.87994 0.846409 6.34822
7.63975 9.84056 2.49022
4.93364 0.251418 8.3831
3.01194 0.196031 0.51828
0.354756 5.13478 4.21424
3.88572 1.84564 1.82486
6.46244 3.47523 0.117016
3.5004 0.388168 0.541521
3.53394 0.20108 0.190454
4.43788 5.05271 3.75291
9.57767 0.865849 6.77804
8.65658 2.59228 7.91989
4.74428 0.400275 8.42033
2.85606 0.548512 0.277615
2.78287 0.490576 0.269014
8.89478 4.84306 0.644012
2.95037 0.478138 2.33497
7.00905 5.57587 0
7.73468 5.55833 2.61207
5.07072 0.415413 8.01698
3.0622 0.0655233 0.37947
7.70912 0.946953 6.28542
4.10133 0.247268 2.22349
5.56454 4.12092 0.508128
3.53922 0.572161 1.3723
3.05056 0.528061 0.84817
9.39009 3.89885 0.101786
7.26428 3.99373 7.97947
4.4871 0.178427 8.262
7.46242 0.350069 1.57911
3.1698 0.0718034 0.133397
4.38398 0.341666 8.1703
1.0982 1.53571 2.93258
7.07285 8.90933 9.0586
1.8731 0.846289 5.02968
3.54539 0.369257 1.1498
1.97403 2.42951 4.77459
3.37019 0.163094 0.598293
3.86697 0.484876 0.987587
2.86375 0.357759 0.3758
2.96622 0.149832 0.427181
4.91671 0.335881 8.55463
1.80699 6.69887 3.321
0.269211 0.25541 5.69374
1.33851 0.958991 6.15284
4.36549 5.94821 0.697855
7.92769 0.141058 9.50609
2.9718 0.508894 0.582186
0.601809 8.14215 8.26105
4.32832 0.351687 8.50527
5.11505 0.614042 3.2852
7.50638 0.177745 1.8563
3.3858 0.370581 0.495956
6.20365 1.16881 7.13748
4.28988 0.133808 7.93773
2.63669 3.77571 5.35602
4.41798 0.226215 8.29259
2.91886 0.193736 0.211819
10 0.564334 0.553005
1.94318 0.891796 6.32584
3.88921 1.23302 4.24866
5.021 0.295498 8.2064
2.21589 9.40102 5.7506
6.5252 0.284153 2.39469
4.16507 0.418079 8.1092
7.12657 0.134887 1.46201
3.33507 0.337478 0.51752
3.24042 0.0698908 0.772723
10 4.32906 0.319922
9.58922 1.15136 2.70575
3.50008 2.63016 4.01426
5.77942 1.91624 7.65728
3.92196 0.195754 8.95221
3.14822 2.73305 4.19476
8.60244 8.89161 0.196528
3.88908 2.02691 1.80218
3.32963 0.192355 0.494419
6.8581 0.191545 1.95775
5.99129 0.404463 1.27312
8.77284 2.91535 0
1.75456 0.504752 5.65746
2.75691 6.63742 0
7.85236 1.65957 0.758931
3.17282 0 0.651258
7.92761 0.851308 7.40318
5.38001 2.54118 7.71712
0.696912 0.998259 1.85034
1.34302 0.289062 6.53676
6.42819 0.283884 0.540665
3.45733 0.665897 1.14318
0.620416 0.357284 8.29685
4.13373 0.697751 8.30405
4.36878 0.361468 7.74229
3.58025 0.117175 0.587035
3.57082 0.303771 1.02027
8.48853 2.59009 8.10711
3.64895 0.252681 0.403088
1.54698 2.15611 2.06864
1.75871 1.18284 6.20569
5.08292 0.552322 3.15311
1.72526 5.23777 3.17944
2.96312 0.292729 0.907135
0.183163 0.335947 8.39851
3.5943 0.479294 0.811999
3.13673 0.0292862 0.564071
1.73768 0.640728 5.10216
2.88305 2.67777 3.93418
4.13134 0.219511 7.93268
3.21899 1.49118 5.81197
7.32607 0.241826 1.19786
3.54211 0.529157 0.744327
8.99514 2.47566 7.92367
0.810382 0.270502 8.1557
9.39068 0.214224 4.29585
2.71283 3.75408 5.33041
6.0373 1.62454 7.42129
6.15233 2.24531 1.81279
4.77222 0.0553773 7.84032
0.42344 0.536504 5.84012
4.03573 0.352026 8.02251
3.55311 0.0646198 0.681495
6.73076 0.226812 2.0627
8.36966 1.4894 0.280889
3.07486 0.038053 0.424268
5.63762 0.755972 1.49168
0 6.70299 4.43169
2.85093 0.278972 0.0859163
9.24776 5.57992 0.296918
3.44389 0.601865 1.15235
4.4129 0.373217 8.02968
3.88121 0.46113 0.707028
5.90273 0.339577 1.46329
4.78171 9.33187 6.96273
2.9535 3.42566 5.34067
3.49362 0.040588 0.473428
9.57887 0.650594 9.56648
3.31889 0.507616 7.82092
5.23116 0.129374 8.71931
3.42115 0.391171 7.89956
4.69906 0.670052 8.06043
4.38726 0.129681 8.26821
3.24107 0.180475 0.459227
2.9369 0.0412736 0.406431
6.33468 0.2552 1.24629
3.46797 0.146033 0.405533
3.40638 0.0506512 1.45169
4.10054 0.313241 8.36986
2.81407 0.503932 0.976898
3.367 0.307947 0.503158
5.70087 0.631208 7.26492
4.95982 0.140793 7.92202
3.35837 0.286796 1.13488
3.35268 0.128815 0.568974
5.51199 0.790858 1.47128
4.79243 0.0577731 8.19442
3.66797 0.29383 0.347253
3.14697 0.175797 0.41737
6.05313 0.597577 1.71505
4.47027 0.0694181 8.22174
4.41138 0.0611947 7.98768
2.90269 0.32347 0.609769
3.59883 0.582231 0.548242
7.60444 0.569198 1.6958
4.49192 0.0685008 8.11792
9.41881 0.758804 6.63968
4.96734 0.353672 8.25221
8.84381 1.50106 0.369786
6.02831 0.568965 1.73346
3.04833 1.62109 5.96236
4.04448 0.514748 8.06589
3.20254 0.296511 0.0743174
2.60555 0.122353 0.718689
7.76305 0.216923 1.38922
4.63789 0.0189431 8.27312
4.37358 0.0398268 7.6625
4.82286 0.430871 8.28092
3.11226 0.553627 0.724228
2.85082 0.284653 0.104775
2.99722 0.423488 0.657352
4.64226 0.588178 8.22957
3.593 0.451691 1.08151
0.591299 0.498251 8.5139
4.41406 0.417623 8.0224
3.40353 0.306665 0.172772
3.49134 0.446792 0.913742
5.63158 4.75192 6.18793
6.21379 0.126912 1.38516
2.70028 0.484177 0.326657
3.01401 0.413366 0.777812
3.98836 0.53311 8.04624
2.82738 0.142718 0.360071
0.542047 0.77339 8.46465
4.41497 0.419365 7.97098
3.37534 0.317377 0.229793
0.972547 0.404873 7.03077
5.37845 0.819622 1.60388
6.18428 0.205995 1.3348
POINT_DATA 400
SCALARS particleColor float 3
LOOKUP_TABLE default
0 0.635757 1
0.38506 1 0.61494
0.715792 1 0.284208
0.67756 1 0.32244
1 5.96046e-08 0
1 5.96046e-08 0
1 5.96046e-08 0
0.132528 1 0.867472
0.0909486 1 0.909051
1 0.625235 0
0.131068 1 0.868932
0.355041 1 0.644959
0.831978 1 0.168022
0.508943 1 0.491057
0.357317 1 0.642683
1 5.96046e-08 0
0 0.537478 1
0 0.268096 1
0.6206 1 0.3794
1 0.60199 0
0 0.551251 1
0.185475 1 0.814525
1 0.581033 0
0.580898 1 0.419102
0.529879 1 0.470121
1 0.555504 0
0.263576 1 0.736424
0.555715 1 0.444285
1 0.771484 0
1 0.703196 0
1 5.96046e-08 0
0.981962 1 0.0180378
0.905978 1 0.094022
0.918132 1 0.0818677
0 0.97909 1
1 0.635338 0
1 5.96046e-08 0
0 0.131538 1
1 5.96046e-08 0
0.597352 1 0.402648
1 5.96046e-08 0
0.612759 1 0.387241
0.935256 1 0.064744
0.960123 1 0.0398768
0 0.904691 1
0.582217 1 0.417783
0.270043 1 0.729957
0 0.939184 1
0 0.552132 1
1 5.96046e-08 0
0 0.657354 1
0.456704 1 0.543296
0.0763342 1 0.923666
0.108205 1 0.891795
0 0.503247 1
0 0.416085 1
0.753033 1 0.246967
0 0.82266 1
1 0.877481 0
0.652397 1 0.347603
0 0.976531 1
0.287021 1 0.712979
0 0.756557 1
0 0.371217 1
0.940019 1 0.0599812
1 0.755378 0
1 0.422009 0
1 5.96046e-08 0
0.104046 1 0.895954
0.0250302 1 0.97497
0.0790407 1 0.920959
0 0.577847 1
1 0.167696 0
1 5.96046e-08 0
0 0.863876 1
1 0.54487 0
0 0.67316 1
0 0.690297 1
0.170982 1 0.829018
0.443761 1 0.556239
0 0.428611 1
0 0.423496 1
0.289568 1 0.710432
0.923384 1 0.0766156
1 5.96046e-08 0
0.0778377 1 0.922162
1 5.96046e-08 0
1 5.96046e-08 0
0 0.717876 1
0.111872 1 0.888129
0 0.43387 1
1 0.531335 0
1 5.96046e-08 0
0 0.794158 1
0 0.812222 1
1 0.888563 0
1 0.479274 0
0 0.90759 1
0.73025 1 0.26975
0 0.614564 1
0 0.194332 1
1 0.33715 0
0.116655 1 0.883345
0.187494 1 0.812506
0 0.900505 1
1 0.735362 0
1 0.250838 0
0 0.428706 1
1 5.96046e-08 0
0.4845 1 0.5155
1 0.986545 0
1 0.72662 0
1 5.96046e-08 0
0 0.785334 1
0 0.483343 1
0 0.614263 1
0 0.552712 1
1 0.945714 0
0.0760359 1 0.923964
0.930232 1 0.069768
0 0.753873 1
0.880707 1 0.119293
0.263518 1 0.736482
1 0.513176 0
0.0827119 1 0.917288
0 0.461897 1
0.514225 1 0.485775
0.00838005 1 0.99162
1 0.657035 0
1 5.96046e-08 0
1 5.96046e-08 0
1 0.92665 0
0.886883 1 0.113117
0 0.762146 1
0 0.448706 1
0.278234 1 0.721766
0.116651 1 0.883349
0 0.764241 1
1 0.999175 0
0 0.544477 1
0 0.326133 1
0.616092 1 0.383908
1 0.56511 0
1 0.610739 0
0 0.385996 1
0 0.514524 1
0 0.435617 1
1 0.750072 0
1 0.963604 0
0.892183 1 0.107817
0 0.337081 1
0 0.760613 1
0 0.600243 1
0 0.895127 1
1 5.96046e-08 0
0 0.553446 1
0 0.619475 1
0 0.690716 1
0.712623 1 0.287377
1 0.750249 0
0 0.651996 1
0.242496 1 0.757504
0 0.948035 1
1 5.96046e-08 0
0.324816 1 0.675184
0.493349 1 0.506651
1 5.96046e-08 0
0.25228 1 0.74772
1 0.504068 0
0.272135 1 0.727865
0 0.140046 1
0.975342 1 0.0246583
1 5.96046e-08 0
0.727455 1 0.272545
0.257625 1 0.742375
0.986718 1 0.0132817
0 0.900343 1
1 0.756114 0
0 0.698679 1
1 0.911912 0
0 0.446726 1
0.853377 1 0.146623
0.453814 1 0.546186
0 0.767096 1
0.121619 1 0.878381
0.448626 1 0.551374
0 0.539081 1
1 0.305761 0
0 0.452164 1
0 0.747373 1
0 0.309917 1
0 0.660506 1
1 0.614738 0
1 5.96046e-08 0
1 0.752017 0
0 0.455964 1
0 0.817125 1
1 0.78455 0
0 0.406098 1
0 0.290976 1
0 0.372735 1
0 0.555063 1
0.438455 1 0.561545
0 0.543013 1
0.766675 1 0.233325
0 0.59352 1
0 0.669916 1
1 0.174641 0
0.432735 1 0.567265
1 0.728344 0
0 0.230876 1
0 0.480866 1
1 5.96046e-08 0
0.813241 1 0.186759
1 0.0495329 0
0 0.577099 1
0 0.483933 1
0 0.236491 1
1 5.96046e-08 0
0 0.214858 1
1 0.847218 0
0.165825 1 0.834175
0 0.576874 1
0 0.88931 1
0 0.34033 1
0 0.488214 1
0.091873 1 0.908127
0 0.310652 1
0 0.505453 1
0 0.664703 1
0 0.924287 1
0.26789 1 0.73211
0 0.898839 1
0 0.57913 1
0 0.310626 1
0.251957 1 0.748043
1 0.472196 0
0 0.682049 1
0 0.917124 1
1 5.96046e-08 0
0 0.615891 1
0 0.653016 1
0 0.930646 1
0 0.687141 1
0 0.745933 1
0.267602 1 0.732398
0 0.579827 1
0 0.918298 1
1 5.96046e-08 0
0.557182 1 0.442818
0 0.570721 1
1 0.942978 0
0 0.441223 1
0.869415 1 0.130585
0.0575612 1 0.942439
0 0.691558 1
0 0.92294 1
0 0.797932 1
0 0.801586 1
0 0.19298 1
0 0.945225 1
1 0.590933 0
0 0.305355 1
0 0.786811 1
0 0.810732 1
1 0.863689 0
0 0.51705 1
0 0.630451 1
0 0.727365 1
0.0074839 1 0.992516
0 0.640238 1
0.225047 1 0.774953
0.708101 1 0.291899
0 0.310673 1
0 0.786495 1
0 0.11547 1
0 0.815787 1
0.489142 1 0.510858
0 0.572761 1
0 0.50357 1
0 0.481843 1
0 0.559722 1
0.361586 1 0.638414
0 0.790277 1
1 5.96046e-08 0
0 0.661444 1
0 0.555252 1
0 0.371552 1
0.0411767 1 0.958823
1 0.721228 0
1 5.96046e-08 0
0 0.395257 1
0 0.83851 1
0 0.659532 1
0 0.685433 1
0 0.484223 1
0 0.496896 1
0 0.58393 1
0 0.598497 1
0 0.673771 1
0.043404 1 0.956596
0 0.470826 1
0 0.548732 1
1 5.96046e-08 0
0 0.520712 1
0 0.600554 1
0.157678 1 0.842322
0 0.317708 1
0 0.979259 1
0.217236 1 0.782764
0 0.862403 1
0 0.955409 1
0 0.469821 1
0 0.724744 1
0.262388 1 0.737612
0 0.395426 1
0.870731 1 0.129269
0.0696316 1 0.930368
0 0.907646 1
0 0.818819 1
0 0.249897 1
0 0.13731 1
0 0.763515 1
0.439234 1 0.560766
0 0.597252 1
0 0.694188 1
0 0.671816 1
0 0.623233 1
1 5.96046e-08 0
0 0.581945 1
0.226554 1 0.773446
0 0.360228 1
0 0.266132 1
0 0.834574 1
0 0.699782 1
0.725857 1 0.274143
0.189104 1 0.810896
0 0.314968 1
0.0143234 1 0.985677
0 0.597107 1
0 0.839238 1
0.543307 1 0.456693
0 0.529665 1
0 0.467233 1
0 0.524906 1
0 0.563748 1
0 0.216637 1
0 0.368897 1
0 0.686261 1
0.504948 1 0.495052
0.109564 1 0.890436
0 0.641027 1
0 0.825445 1
0 0.549842 1
0.00362487 1 0.996375
0 0.910313 1
0.0106841 1 0.989316
0.207352 1 0.792648
0 0.888081 1
0 0.707689 1
0 0.190081 1
0 0.463195 1
0 0.668498 1
0 0.602761 1
0 0.825747 1
0.0402221 1 0.959778
0 0.843043 1
0 0.182096 1
0 0.935188 1
0 0.325318 1
0 0.380893 1
0 0.525919 1
0 0.620394 1
0 0.851949 1
0 0.389576 1
0 0.620162 1
0 0.391015 1
0 0.767275 1
0.187151 1 0.812849
0 0.349202 1
0 0.717266 1
0 0.571752 1
0.0351085 1 0.964891
0 0.759781 1
0 0.401081 1
0 0.326428 1
0 0.57267 1
0 0.448518 1
1 0.449389 0
0 0.682003 1
0 0.432798 1
0 0.326438 1
0 0.838195 1
0 0.301622 1
0 0.475058 1
0 0.685442 1
0 0.433058 1
0 0.256362 1
0 0.870312 1
0 0.698138 1
