# vtk DataFile Version 3.0
Particle simulation
ASCII
DATASET POLYDATA
POINTS 400 float
7.46891 2.43382 9.64063
0.219274 3.07818 3.17412
0.481833 2.42785 3.60822
2.86951 0.390986 1.08519
9.46976 0.38274 3.55764
5.71915 4.70651 5.73018
7.80067 3.56661 2.71651
4.69398 5.19428 0.0908149
9.16776 5.20658 0.573381
6.87328 0.326282 4.1298
5.15036 1.37791 1.01504
2.98662 0.646965 2.32474
9.62658 8.34246 6.37993
3.59446 0.634754 0.665968
6.45328 2.80787 2.97218
9.96185 3.25636 8.34371
2.60551 6.41115 0.527849
2.5089 0.386949 2.73208
0.608638 6.06767 8.81677
6.77162 0.27298 4.38252
3.33378 0.410601 2.32107
1.69949 0.664791 1.87782
4.83415 6.86111 6.10522
7.1241 0.959781 4.42766
6.58762 10 9.27532
2.78576 0.778381 3.1886
7.21275 1.28219 2.19043
3.36991 0.537868 2.18706
8.70964 0.354275 7.39868
1.97236 0.550342 2.6032
8.13986 8.54628 5.66978
9.64937 0.357099 1.2711
5.79613 0.254164 9.01939
7.21379 0.842619 4.59707
1.70106 0.741719 2.36083
0.353675 1.00601 0.90804
6.95181 0.623445 9.14938
2.82415 0.572436 1.71006
6.40574 0.84866 0.441957
3.8723 1.9782 1.99099
4.56097 0.165506 4.2372
8.18407 6.86931 4.76417
4.48597 7.64457 6.57506
6.57547 1.48754 5.48571
8.26 0.17093 7.59479
5.94801 0.290406 1.91
6.01361 2.03721 7.71196
2.10545 0.595395 1.91206
5.98407 0.420884 1.94896
4.68282 8.87021 8.64147
0.446494 3.98776 2.68128
8.45116 6.45489 4.81183
7.1857 0.759703 6.80976
6.63797 0.605336 4.22242
9.20226 0.224092 8.00116
5.98046 0.200754 1.92518
5.5652 0.10503 8.74049
2.00763 0.451689 2.13761
5.99217 0.435632 1.86131
1.06583 4.13015 7.47235
7.27242 2.38924 8.41483
4.98157 0.147661 9.76779
3.79946 0.438217 0.436598
6.8062 0.414638 4.34515
7.55083 1.14573 3.74266
6.99824 0.656059 3.91289
7.35508 0.274831 6.97463
0.566193 3.76606 2.5337
5.70635 0.382532 2.06545
5.19115 0.0682722 8.91176
4.7674 0.156855 10
2.54435 0.543082 2.93317
9.50077 2.24859 3.16868
6.80811 0.395922 4.31568
7.24195 0.447681 8.87709
6.96179 1.14797 9.3354
7.40101 0.304905 6.95624
5.17034 0.150477 8.37954
5.96723 0.667359 1.3185
2.69033 1.00113 7.03952
2.56016 0.52375 1.80502
1.90913 0.6762 2.69613
2.40334 0.00352502 1.84195
2.76882 0.332896 1.53097
5.27635 0.559299 8.39307
4.81119 0.346223 7.80763
4.76762 0.452393 8.53953
10 0.446026 1.32073
4.71201 1.16439 0.445491
9.01683 0.384461 1.438
2.48803 0.799409 1.59749
2.3051 0.292419 0.436316
0.714527 2.78474 9.77722
2.75555 0.378907 1.51285
5.22564 0.556144 8.44957
4.78733 0.325989 7.63521
4.45052 0.764301 8.90782
2.48074 0.527644 2.02792
4.57529 0.357651 5.68547
9.06098 0.390639 1.44043
2.64763 0.350531 0.167494
5.56 0.455062 8.75853
0.468909 0.874607 0.967127
6.88786 0.0834175 6.91788
7.32983 1.95588 0.36096
2.26099 0.168339 1.83694
4.76352 0.922613 9.18693
6.0391 0.121731 2.02501
5.91873 0.446557 1.84976
9.53196 0.422901 1.21537
0.243924 2.51515 3.13971
7.33275 1.07106 4.39333
3.74708 0.581962 2.47937
9.21264 0.429439 1.44892
2.42951 0.337311 2.11537
3.3874 0.884556 1.26192
5.22655 0.46975 8.1461
5.92878 0.372943 2.9354
5.90136 0.467858 1.79552
0.204052 0.998786 0.836192
2.71779 0.643402 1.57182
9.84676 3.64325 1.65555
6.60809 3.76086 9.27095
4.85532 0.373775 9.43722
6.25464 0.768153 6.9301
2.1558 0.388087 2.63618
1.77273 0.501845 1.69261
7.10829 0.66688 4.17007
0.573552 1.87469 6.56126
2.4766 0.137593 1.13138
2.73212 0.640567 1.70221
6.16654 0.113226 1.87747
4.77813 0.38467 8.57568
7.36213 0.198163 7.49431
3.30726 0.362688 5.00364
2.17506 0.793129 2.61252
2.90398 5.49913 8.96308
7.03184 0.742893 4.1351
5.92769 0.693776 7.76902
7.04756 0.532536 6.69426
2.25741 0.187722 1.84727
6.74441 0.556006 6.59524
0.60872 0.845667 8.25073
0.819863 1.18165 0.683042
2.34446 0.639071 1.72746
2.60771 0.478518 1.23672
7.61764 0.391825 7.54335
1.89686 0.782037 2.94096
1.95549 0.598151 2.28559
1.83114 1.12871 3.59697
2.26163 0.174766 1.84617
7.27187 0.124062 6.84038
2.41992 0.958514 1.04835
4.65605 1.0384 9.33709
3.08954 2.98206 0.445502
2.30796 0.332938 1.64983
7.87653 0.114529 7.77063
2.49302 0.581291 1.70826
7.44974 0.30606 7.06775
3.64993 0.291015 2.64324
0.240121 0.743788 0.587924
0.594185 2.23213 3.73041
4.99229 0.527346 8.61138
2.14292 0.499424 3.10522
0.397063 3.95302 2.81056
6.89905 0.53702 6.64906
4.86305 0.448718 8.34669
4.84504 0.685688 8.46639
6.82672 3.63743 9.04021
8.92789 0.732714 1.83604
3.10532 0.780499 1.236
2.76276 0.673691 1.75423
5.53693 0.414444 7.88255
2.51865 0.134565 1.33976
1.65318 0.866354 2.72266
0.242388 0.89913 1.02297
4.89547 0.311093 8.25153
5.23286 0.10188 9.11184
5.65448 0.235629 8.70055
3.4751 1.04956 3.39077
2.8086 0.364515 1.55975
2.31033 0.516138 2.8381
6.40628 3.37715 8.61846
2.36717 0.756025 1.29019
4.86886 0.708538 8.32982
2.10761 0.532064 2.27235
2.20047 0.0818612 2.13692
0.653238 3.02059 9.89653
4.46776 0.187676 5.88912
2.71441 0.597117 1.13984
2.79396 0.349133 1.58385
2.06633 0.861265 2.44184
5.21576 0.148293 9.05775
2.27033 4.01425 2.50247
9.36023 9.53043 10
2.61336 0.360601 1.40543
3.63817 0.23396 2.59902
3.50305 5.34079 9.17788
1.71474 0.751713 3.14701
2.38833 0.151257 2.72226
3.87898 0.441777 2.50025
5.76332 0.213861 2.12453
8.94707 0.387179 8.15832
4.21264 0.853211 9.15153
9.70157 0.482759 9.22477
5.22198 0.466528 8.23902
2.13191 0.573767 1.48638
3.51603 0.93948 0.87265
3.33024 0.49069 1.28569
9.19029 0.491681 1.49185
2.90096 0.60958 1.47278
5.8815 0.606125 2.02784
5.051 0.9433 7.95016
6.73544 0.476049 6.73441
6.93073 0.0740663 4.27172
5.21218 0.261293 8.1637
2.1003 0.562306 1.52429
4.06947 0.786708 2.68025
2.86758 0.189286 2.52989
9.08924 0.411817 1.55126
5.88312 6.66248 6.24968
5.66621 0.0190477 7.24903
4.88041 0.762257 8.9121
2.37624 0.53363 1.55699
4.84509 0.453863 8.28508
2.25974 0.4113 1.53296
6.46623 2.54561 2.62793
2.7451 0.643828 0.992549
3.00041 0.570257 1.58577
4.64406 0.566871 8.78681
6.74092 0.492838 4.07724
5.02854 0.222586 7.97684
8.30749 0.152259 7.81492
2.63833 0.468672 1.64118
4.89573 0.344587 8.88404
1.73463 1.09326 3.34994
7.65963 0.344274 7.77243
3.07353 0.941855 2.93714
2.87079 0.514501 2.27161
3.57261 0.468242 0.574931
3.71639 0.280637 2.59342
3.19281 0.957062 2.96702
2.35592 0.710656 1.4793
3.66383 0.412056 2.27114
5.01286 0.85943 8.09173
1.45895 0.401799 2.79048
3.32918 0.357869 1.22373
5.20244 0.396447 7.97554
6.18251 0.352517 1.91459
4.93741 0.415997 8.06671
2.49956 0.277598 1.90087
6.04164 0.751181 2.12767
4.76677 0.609722 8.06692
1.58693 0.34668 0.386778
8.16901 0.172287 7.54392
2.56672 0.367887 1.94987
9.79514 0.168422 0.829315
5.00633 0.214108 8.51543
6.15113 0.413168 1.90735
4.88842 0.43181 8.09554
1.75745 0.616555 2.82133
6.14398 6.09893 5.98091
4.66499 1.06944 9.2444
6.48798 1.25545 3.87584
5.60217 0.227906 8.6511
3.02904 0.215997 5.41541
6.80005 0.793119 3.21043
5.05666 0.319706 7.91091
8.22144 0.162016 7.35637
2.16915 0.532011 1.66556
2.3194 0.11933 1.86283
8.35018 8.35452 5.51383
1.90145 0.130245 0.628874
6.66778 1.00255 3.43316
4.80513 0.754686 8.06512
4.6362 0.852896 9.34701
7.08185 0.811418 4.37125
3.91948 9.15956 8.42799
8.44349 0.216371 8.02363
2.60276 0.406639 1.40211
9.26292 0.359355 1.39471
5.68683 0.369999 1.44774
6.54293 0.654598 1.97778
7.26957 0.866199 3.87994
9.15085 0.293445 8.70895
8.93411 0.135063 8.08967
2.01722 0.627462 2.21933
1.42019 0.334885 2.78288
6.923 0.29861 6.77026
9.42893 1.99314 3.30937
9.4353 0.230814 1.27726
5.60589 0.260345 1.5725
2.99272 0.291343 2.30567
6.85675 0.472028 4.19795
5.64433 0.441953 7.72898
4.50594 0.258985 8.32117
1.85042 0.378384 3.05415
2.59207 0.264486 1.88705
2.48295 0.741086 1.83079
2.00732 0.527114 2.98141
9.11793 0.341719 1.71681
6.84599 0.448558 6.76875
3.65091 0.45188 0.683396
5.68263 0.605326 1.9626
2.70785 0.535039 0.895005
6.37003 0.388984 2.14913
4.10045 0.239628 2.51459
2.78489 0.579223 1.31107
3.20633 0.916031 0.949834
2.86888 0.741894 2.2147
6.89092 1.06289 3.86511
7.14819 0.198972 7.24235
8.09352 0.150637 7.78734
3.71993 0.453447 2.50973
1.87333 0.375172 1.39328
7.43999 0.629383 3.95271
1.77905 0.501908 3.11774
7.01177 0.919028 3.41701
6.04485 0.103615 1.89112
2.24373 0.217774 1.30842
4.74764 0.678194 7.70931
2.24495 0 0.802413
5.06225 0.767151 8.1225
3.73136 0.274269 2.78334
8.87002 0.617346 1.3387
9.073 0.0712353 1.39307
2.42672 0.213204 1.25454
5.51951 0.425598 1.7083
10 0.388646 1.70113
3.62087 0.344723 2.57131
4.88012 0.458241 7.85582
2.74549 0.449109 1.72868
5.21475 0.445831 7.91982
2.64447 0.250639 1.82746
9.20884 0.11536 1.21389
4.54497 1.08969 9.00295
2.73893 0.609484 2.82801
1.84085 0.436805 2.53096
9.59883 0.139295 1.4326
2.03034 0.31966 1.26263
4.79083 0.19615 9.0124
2.69229 0.336134 1.89427
4.75358 0.5971 8.75538
4.54269 0.941055 9.28152
2.85469 0.673315 1.90803
2.19221 0.146298 2.03755
5.86786 0.436141 1.75813
2.61333 0.188683 2.18939
2.29272 0.125728 2.01665
2.28354 0.455581 2.01603
1.85554 0.263651 1.06243
2.01215 0.547979 1.44329
5.56202 0.535315 8.85126
4.63432 0.913862 9.19853
2.64276 0.257095 1.37694
3.5503 0.357599 2.57967
5.39051 0.235523 1.46289
5.71227 0.276559 7.50834
2.71947 0.0765153 2.03863
1.85284 0.452399 2.61868
6.06824 0.506594 2.10432
7.25351 0.0460531 6.95792
5.14526 0.786999 8.00954
3.25428 0.294621 2.57182
3.47648 0.391779 1.07623
8.21944 0.171356 7.70224
4.79548 0.48066 8.17177
4.52953 0.912991 7.91995
4.66645 0.091358 8.08326
3.02049 0.530343 1.6091
6.04613 0.498997 2.09453
7.27674 0.140869 6.86325
4.88772 0.290332 8.56877
3.00314 0.27022 1.19376
2.49026 0.444477 1.49118
8.25342 0.00933257 7.60743
4.83523 0.664392 8.21714
4.98385 0.131407 7.82506
5.16761 0.490272 8.28407
1.97248 0.691854 2.10402
2.07363 0.131392 1.94846
2.8487 0.252274 1.50254
5.04517 0.460731 8.35275
2.67163 0.432647 1.65254
6.89484 0.528055 4.32446
5.64911 0.348854 7.61342
2.21903 0.495583 2.38714
2.91216 0.433994 1.72575
7.64949 0.725744 4.27363
5.73996 0.334005 1.49696
2.04575 0.110667 1.97149
2.65832 0.378745 1.59855
4.94021 0.356984 8.2
2.3308 0.72819 1.88569
6.87571 0.546907 4.33982
4.51105 0.99384 9.45643
2.20621 0.413611 2.45261
2.63826 0.567809 1.0847
8.8033 0.41122 1.04502
5.75478 0.327502 1.5137
POINT_DATA 400
SCALARS particleColor float 3
LOOKUP_TABLE default
0 0.414237 1
0 0.804145 1
0 0.323537 1
0 0.323535 1
0 0.514136 1
0.438546 1 0.561454
0 0.394209 1
0 0.716717 1
0.131851 1 0.868149
0 0.350597 1
0 0.912568 1
0 0.698922 1
0.215278 1 0.784722
0 0.574039 1
0 0.265719 1
0 0.514891 1
0 0.243905 1
0 0.625702 1
0.118178 1 0.881822
0 0.906065 1
0 0.493535 1
0.690319 1 0.309681
0 0.557775 1
0 0.820968 1
1 5.96046e-08 0
0 0.431641 1
1 0.0208527 0
0 0.787239 1
0.0184336 1 0.981566
0 0.842233 1
0.541612 1 0.458388
0 0.570851 1
0 0.890504 1
0.0324817 1 0.967518
0 0.964244 1
0 0.740013 1
0 0.733288 1
0 0.254102 1
0 0.278941 1
0 0.430404 1
0 0.596977 1
0 0.356324 1
0.392663 1 0.607337
0.584033 1 0.415967
0 0.91468 1
0 0.845995 1
0.244799 1 0.755201
0 0.526067 1
0 0.0478375 1
1 0.999753 0
0 0.749913 1
0 0.154875 1
0.0376711 1 0.962329
0 0.830824 1
0 0.628119 1
0 0.53317 1
0 0.629333 1
0 0.492364 1
0 0.204515 1
0 0.479887 1
0.55297 1 0.44703
0.226063 1 0.773937
0.325105 1 0.674895
0 0.680333 1
0.210609 1 0.789391
0.703484 1 0.296516
0 0.208658 1
0 0.611529 1
0 0.322119 1
0 0.539797 1
0 0.413803 1
0 0.946921 1
0.446105 1 0.553895
0 0.495703 1
0 0.989552 1
0 0.736264 1
0 0.151422 1
0 0.23674 1
0 0.461267 1
0 0.964509 1
0 0.224804 1
0 0.711412 1
0 0.965086 1
0 0.782582 1
0 0.788449 1
0 0.632213 1
0 0.839286 1
0.0432424 1 0.956758
0 0.700421 1
0 0.211106 1
0 0.494694 1
0 0.65742 1
0 0.703561 1
0 0.743793 1
0 0.863706 1
0 0.469711 1
0 0.308488 1
0.021938 1 0.978062
0 0.446094 1
0 0.225906 1
0 0.350609 1
0.56067 1 0.43933
0 0.468174 1
0 0.537712 1
0 0.487876 1
0 0.249875 1
0 0.586393 1
0 0.761495 1
0 0.319534 1
0 0.735746 1
0 0.188799 1
0 0.809026 1
0 0.371773 1
0 0.376904 1
0 0.47511 1
0 0.349533 1
0 0.702787 1
0 0.0419284 1
0 0.304067 1
0 0.207311 1
0 0.0959341 1
0 0.459745 1
0 0.82755 1
0 0.853574 1
0.124792 1 0.875208
0 0.632188 1
0 0.46804 1
0 0.883197 1
0 0.554233 1
0 0.938298 1
0 0.383498 1
0.0254776 1 0.974522
0 0.460275 1
0 0.553287 1
0.831841 1 0.168159
0 0.156035 1
1 0.896271 0
0 0.766741 1
0 0.274275 1
0 0.582918 1
0 0.475724 1
0.15031 1 0.84969
0.120608 1 0.879392
0.00885102 1 0.991149
0 0.388729 1
0 0.868853 1
0 0.493666 1
0 0.613555 1
0 0.227212 1
0 0.673889 1
0 0.495285 1
0 0.79742 1
0 0.767296 1
0 0.595029 1
0 0.327557 1
0 0.720018 1
0 0.243643 1
0 0.431204 1
0 0.752907 1
0 0.829943 1
0 0.804696 1
0 0.906903 1
0 0.754168 1
0 0.625644 1
0 0.505797 1
0 0.488437 1
0.0548441 1 0.945156
0 0.601868 1
0 0.942509 1
0.994079 1 0.00592142
0 0.717208 1
0 0.9287 1
0 0.995925 1
0 0.852739 1
0 0.338998 1
0.477666 1 0.522334
0 0.716281 1
0 0.545219 1
0 0.643332 1
0 0.927067 1
0 0.587618 1
0 0.527397 1
0 0.798519 1
0.112101 1 0.887899
0 0.661432 1
0 0.933606 1
0 0.735413 1
0 0.651053 1
0.370703 1 0.629297
0 0.340362 1
0 0.611569 1
0 0.481293 1
0 0.584337 1
0 0.345196 1
1 5.96046e-08 0
0 0.692969 1
0 0.384555 1
0 0.691103 1
0 0.162048 1
0.00798783 1 0.992012
0 0.516476 1
0 0.408904 1
0 0.854718 1
0 0.818229 1
0.542752 1 0.457248
0 0.469119 1
0 0.545237 1
0 0.514938 1
0 0.573464 1
0 0.326748 1
0 0.723594 1
0 0.900687 1
0 0.390536 1
0.0914368 1 0.908563
0 0.960021 1
0 0.561696 1
0 0.577525 1
0 0.793342 1
0 0.917612 1
0 0.863512 1
0 0.915651 1
0.912959 1 0.0870414
0 0.875317 1
0 0.474258 1
0 0.372358 1
0 0.952222 1
0.406559 1 0.593441
0 0.741078 1
0 0.791978 1
0 0.715977 1
0 0.897814 1
0 0.742783 1
0 0.261167 1
0 0.45491 1
0 0.686879 1
0 0.945568 1
0.0295322 1 0.970468
0 0.405834 1
0 0.541848 1
0 0.876961 1
0 0.914838 1
0 0.857946 1
0 0.442255 1
0 0.546495 1
0 0.713881 1
0 0.562807 1
0 0.942028 1
0 0.758131 1
0 0.435122 1
0 0.572808 1
0.0198898 1 0.98011
0 0.954107 1
0 0.179417 1
0 0.426358 1
0 0.849791 1
0 0.426776 1
0 0.27801 1
0 0.632823 1
0 0.445762 1
0 0.456613 1
0 0.642501 1
0 0.639096 1
0 0.993161 1
0 0.668181 1
0 0.452779 1
0 0.926668 1
0 0.911327 1
0 0.758653 1
0 0.371096 1
0 0.756193 1
0 0.989356 1
0.810644 1 0.189356
0 0.185584 1
0 0.888361 1
0 0.714861 1
0 0.962089 1
0 0.501869 1
0 0.733206 1
0 0.131812 1
0 0.647913 1
0 0.936891 1
0 0.439007 1
0 0.608803 1
0 0.245575 1
0 0.921971 1
0 0.705349 1
0 0.686965 1
0 0.818777 1
0 0.865591 1
0 0.808439 1
0 0.774297 1
0 0.280863 1
0 0.623117 1
0 0.484444 1
0 0.55046 1
0 0.400035 1
0 0.625974 1
0.0386278 1 0.961372
0 0.979595 1
0 0.704901 1
0 0.9725 1
0 0.333997 1
0 0.83018 1
0 0.864925 1
0 0.391585 1
0 0.743055 1
0.0572557 1 0.942744
0 0.553602 1
0 0.281002 1
0 0.500475 1
0 0.578122 1
0 0.295428 1
0 0.951715 1
0 0.734687 1
0 0.583908 1
0.17978 1 0.82022
0 0.282654 1
0.56209 1 0.43791
0 0.57495 1
0 0.613103 1
0.0618362 1 0.938164
0 0.504919 1
0 0.625683 1
0 0.503738 1
0 0.530937 1
0 0.722877 1
0 0.882472 1
0 0.470937 1
0 0.329775 1
0 0.51291 1
0.181311 1 0.818689
0 0.68037 1
0 0.458861 1
0 0.614641 1
0 0.333941 1
0 0.987258 1
0 0.616196 1
0 0.833765 1
0 0.559644 1
0 0.255592 1
0 0.455643 1
0 0.741845 1
0 0.41407 1
0.178971 1 0.821029
0 0.415605 1
0 0.513287 1
0 0.798375 1
0.186837 1 0.813163
0 0.652561 1
0 0.91359 1
0 0.629789 1
0 0.536815 1
0 0.69857 1
0.174321 1 0.825679
0.178482 1 0.821518
0 0.277666 1
0 0.986852 1
0 0.570964 1
0 0.644905 1
0 0.525074 1
0 0.821967 1
0 0.944691 1
0 0.872298 1
0 0.449056 1
0.00757665 1 0.992423
0 0.58624 1
0 0.501067 1
0 0.748257 1
0 0.590172 1
0.151218 1 0.848782
0 0.811825 1
0 0.766862 1
0 0.854205 1
0 0.33734 1
0.520933 1 0.479067
0 0.316751 1
0 0.625935 1
0 0.254136 1
0.0578503 1 0.94215
0 0.550966 1
0 0.555868 1
0 0.58866 1
0 0.579126 1
0 0.578211 1
0 0.443076 1
0 0.588967 1
0 0.496493 1
0 0.47682 1
0 0.585202 1
0 0.676564 1
0 0.605792 1
0 0.625131 1
0 0.95728 1
0 0.425796 1
0 0.563069 1
0.0897938 1 0.910206
0 0.454729 1
0 0.95197 1
0 0.757903 1
0 0.732236 1
