# vtk DataFile Version 3.0
Particle simulation
ASCII
DATASET POLYDATA
POINTS 400 float
5.26441 2.97227 5.71483
4.76534 3.72082 5.65492
2.59352 4.70682 4.7633
9.23556 1.72262 9.24437
5.21523 3.14512 1.5753
0.428567 2.52731 8.20796
0 4.77 1.91693
1.41137 3.52547 7.00027
8.39937 8.27628 7.94428
1.78092 6.9474 2.32218
3.56596 3.00191 1.84778
7.21824 1.70093 3.69302
3.37548 8.76189 9.09736
7.78246 6.83552 9.63551
0.579385 7.12341 9.1676
4.13397 1.25562 10
2.1605 7.96518 1.29183
6.39336 3.99904 8.19797
8.96477 7.62333 2.46694
1.54494 4.97119 9.45222
4.67977 0.599362 3.14855
7.8961 4.49296 5.2616
0.207739 1.75447 4.41688
10 5.15875 6.9334
2.45585 0.453778 4.75984
3.33563 5.98195 8.51525
0.375323 10 5.15038
2.09372 9.43688 9.10777
3.13747 4.41016 3.28745
5.52432 5.57635 3.02294
2.81212 3.88358 8.49591
1.42663 7.3204 4.83612
0.256299 2.82692 6.64375
7.48078 7.13197 7.03927
4.03021 4.31427 9.05433
1.7769 6.30509 8.89696
7.92692 5.22273 0.453652
3.93396 1.19535 0.405807
8.96301 7.08078 7.41395
7.89822 3.73076 2.51728
10 4.64383 7.47831
6.2869 6.28668 0.308054
2.55423 8.72327 5.25451
8.84935 5.443 9.73145
4.15704 2.08659 9.55642
9.61154 3.29469 1.06208
8.80539 2.9756 3.81051
4.86024 0.866103 3.11292
10 7.09634 2.77715
2.1128 0.355075 5.92144
4.05352 3.38788 4.28919
4.70238 0.267663 5.35337
0.280044 1.66201 4.15516
9.60033 8.32907 5.51069
6.00923 0.6128 9.80044
5.23014 4.52204 4.93063
3.39969 8.16037 8.26004
6.54574 2.99022 4.92375
6.69336 3.39266 9.19201
0.514101 5.67491 0.503178
2.0174 5.35615 3.61628
4.26253 3.24122 5.09914
4.82371 9.98818 0.924026
0.304721 4.50244 1.30337
0.342124 8.85442 6.71431
0.653994 9.67801 3.47836
7.18944 1.70476 4.52199
4.72615 8.11844 7.23532
7.88325 0.441643 3.16149
8.50541 2.98811 8.69467
2.16173 6.36477 0.518827
2.97458 5.34097 0
0.426595 3.24111 0.485745
4.14231 9.84359 4.05211
6.2759 3.41729 3.66489
1.63526 6.97978 6.21008
1.05788 1.65341 0.559169
5.45381 9.17074 4.80857
3.73359 7.5549 8.24675
1.53102 4.13336 7.06933
10 6.89287 6.05065
5.12031 3.81705 6.30449
5.35963 2.45245 5.89717
6.35591 4.18096 0
7.92093 4.45401 1.17193
9.53454 1.07459 4.5366
5.62967 1.34667 3.04131
3.72434 9.47221 7.81914
5.97378 0.527992 9.91387
4.66421 0.753954 9.42156
5.41467 1.94414 5.20183
2.63799 1.11437 6.78048
0.762635 6.8105 0.104777
9.03093 2.03479 1.21812
5.58729 0 4.15912
3.8816 1.51568 4.4855
9.89859 1.49944 0.848687
9.25813 4.91877 6.22627
4.79493 0.730505 4.10165
6.30866 4.26879 9.23296
9.14799 5.74916 7.04459
3.25012 9.28824 8.3436
1.45947 7.47018 0
1.41641 5.05822 0.0672934
1.20199 4.26828 3.46073
9.53858 2.55332 0.883456
5.74677 6.16774 7.41315
5.85067 7.27554 1.28968
4.52519 2.75385 3.84029
4.65619 5.39377 5.44891
6.03772 7.85085 1.94877
9.80662 0.561236 3.51306
0.0357378 3.45831 4.21957
7.57945 4.32817 7.60433
5.41214 8.52756 1.28598
4.98999 8.7923 1.57021
2.67655 7.77247 0.285261
3.5526 4.18418 1.43178
1.42855 4.05093 1.77399
4.86337 7.79668 3.2075
2.07135 3.40356 8.11051
0.112833 2.59102 7.06895
0.667359 5.02218 9.6615
3.33074 7.09345 5.35446
0.426096 0.71288 8.60675
2.9752 7.4382 8.55568
4.58812 1.20716 6.4977
2.7674 1.02945 3.12582
4.79013 1.79075 6.54819
3.91131 9.35413 7.93032
8.42604 7.72094 9.06878
6.12731 6.75581 4.01773
8.45659 0.655158 6.97555
6.18294 0.149757 6.29337
1.72644 2.83326 3.72025
4.8591 5.02045 4.83391
6.07367 3.77602 0.458721
9.26218 6.71753 7.13764
0.678901 9.1364 9.46219
0.795261 8.43765 4.02239
8.2831 0.640559 7.63604
6.64805 9.78338 0.125315
0.329373 3.79202 1.41716
0.989051 5.74751 2.6043
8.64574 9.21556 4.93568
2.64923 1.68975 4.1337
8.6554 0.530167 7.99448
0 5.80594 3.41371
4.7496 9.54858 7.61298
9.11557 5.5671 9.81194
7.69589 0.466327 7.57892
9.7849 2.96302 5.95388
3.11679 1.62539 7.83808
3.66624 5.33236 2.03107
6.68831 2.07019 2.29171
8.56781 5.51214 4.52386
7.39279 5.55613 0.774577
5.65036 8.94639 1.68344
3.6793 2.74013 3.70284
2.24693 6.9203 8.10945
9.41161 0.709464 3.89326
4.37481 3.90355 4.0093
0 3.87664 9.82787
0.675899 2.04657 9.26419
0 3.80031 4.77798
0.172059 0.974575 4.06043
1.86453 3.8631 9.16255
5.40844 3.50448 6.65615
1.63375 1.40602 7.86343
9.37845 1.0597 7.02275
8.01127 7.15401 0.643504
5.49085 10 5.66776
2.8165 5.0201 4.33573
1.15468 2.70688 1.11093
10 6.64337 0.696118
7.45157 3.43017 3.40993
0.999744 0.96911 3.05837
8.864 5.06181 2.63058
0.358671 4.34985 7.63868
3.88064 7.10065 1.93419
7.62872 8.0146 0.379997
3.57716 7.7234 9.22496
4.56087 8.59155 5.6483
8.12424 0.846696 8.55699
9.24222 0.114964 0.218247
3.43883 2.07977 7.08219
7.80229 9.27515 6.68274
6.487 6.95341 7.03569
9.35033 1.55251 4.43384
1.14307 5.92591 3.6532
2.36686 0.838702 0.974084
0.879131 0.442608 1.83392
5.53384 2.32731 6.27892
7.65978 7.24318 4.03531
9.55737 0.799818 4.63416
1.9415 3.76492 9.4507
9.06837 9.81777 7.83609
7.82513 0.492476 8.59876
9.4636 6.10886 9.51208
4.8281 1.88355 0.29639
2.59208 9.73561 7.34178
0.990128 7.67761 4.92476
7.21079 9.35582 5.77569
10 8.10941 7.52577
1.89421 1.43731 3.35069
3.71465 6.84461 7.59268
0.676393 7.31343 7.47165
8.89375 0 0.391459
3.27657 7.06903 5.14669
6.15003 6.11225 3.76112
7.54437 9.68989 10
7.49836 5.02699 9.92099
0.0272486 5.10054 4.46601
6.11835 4.24719 0.2789
4.39194 3.44805 3.2537
1.46503 4.92542 1.06231
0.420438 1.59212 6.13508
5.1385 2.86479 9.65408
7.6555 0.150174 9.28739
8.98127 8.25707 8.99714
6.0861 1.79673 1.87792
3.56853 9.96601 0.831048
1.38599 0.934076 7.55002
6.44388 0.195922 8.90667
4.38244 7.53303 7.50837
10 4.5091 0
3.08816 0.138039 0.895966
5.04025 6.48227 1.40741
7.37249 0.656495 7.64453
5.69048 7.54176 4.48383
4.00035 1.31253 9.57284
9.40549 0.500416 0.152518
8.16986 9.09215 8.00522
8.42054 7.53538 0.344314
7.65279 9.56295 6.15072
0.78082 6.65983 6.39099
5.89626 1.29577 4.97936
9.32925 7.97329 7.33308
7.34945 0.0555954 7.97153
2.66252 9.60939 8.45608
7.49057 0.810168 7.37402
9.1004 1.09269 10
8.57985 0.551077 8.22159
9.27131 9.31332 0
5.61138 2.59432 4.79718
7.19286 0.937002 4.56181
3.89156 0.33249 2.89867
6.2096 7.6905 0.571239
2.41209 4.34387 7.66406
0.490922 0.92431 8.93799
9.3203 5.96691 4.62165
8.21379 4.76752 3.01135
3.48634 5.88883 0.773959
4.14854 3.983 9.23783
9.4897 7.82697 9.55861
3.44203 8.95948 1.64334
6.37631 2.4754 1.79703
0.590385 2.80531 0.240818
4.40672 4.06238 2.34349
3.91658 0.749909 2.94362
4.75543 1.70373 3.30921
0.0896945 3.981 1.41204
2.1216 8.53335 5.29602
8.72097 5.31179 4.15382
1.81607 8.67558 8.17126
3.7922 2.45888 4.82603
7.51748 8.72882 6.92298
7.61753 7.24491 8.81018
1.81783 7.18098 6.69076
9.47261 0.746379 1.55007
9.43786 6.14271 10
7.70199 3.4013 6.21465
7.92947 3.18894 1.22789
3.81963 0.908145 0
3.40911 2.62723 6.43652
3.83358 10 1.08379
5.76198 6.9857 3.71912
3.63269 6.99051 1.01391
9.83679 7.29308 2.91836
9.30919 6.74944 4.53478
9.31156 2.3094 9.9664
9.63032 6.40307 8.1112
1.07908 1.81912 4.35534
0 9.46098 2.56768
4.14047 6.8944 3.94434
5.37002 9.59992 5.26946
8.70282 3.26444 1.77705
7.02011 6.75576 8.06153
7.13294 0.370585 8.60843
9.11388 3.00985 3.28043
1.05572 8.69314 0.252486
9.34288 1.36872 8.54521
1.07783 5.08363 5.67384
7.01161 9.29238 8.86291
7.64936 4.74976 8.57857
2.65008 8.10903 0.129467
5.85338 0.579824 9.59485
5.89701 0.623104 10
7.60519 0.752738 7.37018
2.71348 0.51013 6.24164
1.20681 1.88568 7.40194
6.33421 4.94544 9.40284
8.05726 0.206435 7.74053
6.64278 9.19976 9.24812
7.40252 0.256829 8.05537
0.788269 9.84254 9.59817
1.41777 10 8.82132
7.66793 0.451675 7.34205
9.00995 0.966633 7.81586
8.67695 3.11671 0.462968
3.38181 6.6495 1.94332
4.15105 8.52775 4.91761
8.79084 1.84507 5.74103
7.43897 0.0359466 7.88553
8.86522 0.482728 10
3.16208 2.41808 2.0365
5.73279 4.3286 7.80108
6.84592 0.269321 7.47125
8.7263 8.11051 8.03787
2.71669 1.0611 2.40139
7.92315 5.28342 0.788072
1.34367 1.17729 0.575058
0.500516 1.87336 8.88206
7.95271 0.187194 6.5616
7.56119 0.385463 8.2212
7.85163 5.61706 5.72048
6.97791 0.156223 8.92934
5.80145 6.52326 5.76549
8.95292 9.66506 2.60437
7.4837 0.399517 7.63863
2.74411 2.33496 7.36506
3.19952 0.651318 6.27794
8.60371 0.23257 3.0575
3.76854 4.16687 9.10325
0.622907 0.465195 0.628967
8.25314 1.1384 7.09328
1.55753 5.62476 2.10014
7.15559 0.270267 8.07466
7.25407 1.28502 8.47097
7.63605 3.34851 3.10345
7.61732 0 3.01062
6.21346 0.651247 8.20783
3.04058 0.20635 8.59617
2.12876 1.1307 8.93757
9.93342 7.57341 8.16896
0.941664 0.666141 7.54554
4.65069 0.59546 3.2059
5.89999 10 0.931444
7.39037 0.124982 7.50896
6.4167 6.04613 5.35753
7.3769 0.443841 7.71715
7.69283 0.51804 7.75701
6.69256 10 7.33104
9.34109 8.52444 5.46836
4.36362 1.45875 4.33478
7.32499 0.498321 7.36282
3.51977 8.79688 1.72334
7.07636 7.99744 1.84352
8.2285 0.402431 6.31362
7.6356 0.830657 7.55265
0.377032 1.04508 5.68235
1.99585 1.54745 9.39946
1.73042 0.929642 8.59593
7.61769 0.682708 7.36494
4.60124 8.67647 1.02719
7.83802 4.38346 4.66523
1.68597 1.15524 8.89923
6.01235 6.07717 3.60548
10 8.46724 1.66673
2.4032 0.642891 8.98247
4.50927 0.555551 2.90268
6.59839 6.94066 8.05877
8.48289 8.87906 4.89191
7.38737 0.472087 7.82972
7.32099 0.331095 8.10141
8.58211 6.5311 1.01872
1.72304 1.11476 8.89693
9.71564 8.08659 1.91223
0.834432 1.01876 1.51927
7.42734 0.641044 7.76065
8.32194 0.00738676 9.09628
7.61445 0.594558 7.25637
7.57446 7.45881 7.25255
8.09786 0.565708 7.67615
4.31013 2.28176 5.26893
1.88231 1.06556 8.93393
7.40577 0.504745 7.50416
7.54032 0.634601 7.48468
4.20704 1.01108 1.78342
9.18364 0.21508 7.74369
7.66477 0.781787 7.50118
7.32774 0.747846 7.45243
6.565 6.85126 5.61781
7.70323 0.674536 7.54553
1.09249 8.67629 0.237298
9.3968 1.11466 7.27614
7.74926 0.587775 7.64397
3.41509 1.6393 2.85396
4.45295 9.46619 6.45766
9.70876 0.870127 7.96637
POINT_DATA 400
SCALARS particleColor float 3
LOOKUP_TABLE default
1 0.851682 0
0 0.875124 1
0.156762 1 0.843238
0 0.789463 1
1 0.754291 0
0.593171 1 0.406829
1 5.96046e-08 0
1 0.175157 0
1 0.416738 0
1 0.192614 0
1 0.967628 0
0.968157 1 0.0318428
0.611597 1 0.388403
1 5.96046e-08 0
1 0.152242 0
1 0.832457 0
0.905225 1 0.0947754
0 0.777003 1
0 0.945376 1
1 0.625394 0
0.982202 1 0.0177976
1 0.129956 0
1 5.96046e-08 0
1 5.96046e-08 0
0.660268 1 0.339732
1 5.96046e-08 0
1 0.596628 0
0.717919 1 0.282081
1 5.96046e-08 0
0.524997 1 0.475003
1 5.96046e-08 0
1 5.96046e-08 0
1 0.358832 0
0 0.906481 1
1 0.588925 0
1 0.998068 0
1 0.997895 0
0.3513 1 0.6487
1 0.457405 0
1 5.96046e-08 0
1 5.96046e-08 0
0.700911 1 0.299089
1 0.0163931 0
0.454473 1 0.545527
1 0.765154 0
1 0.48326 0
0 0.852698 1
0.333936 1 0.666064
1 5.96046e-08 0
1 0.653447 0
1 0.471675 0
0.518007 1 0.481993
1 0.419839 0
1 5.96046e-08 0
1 5.96046e-08 0
1 0.744239 0
1 0.603892 0
0.392949 1 0.607051
1 0.352137 0
1 5.96046e-08 0
0.513925 1 0.486075
1 0.299706 0
1 5.96046e-08 0
1 0.512747 0
0.808135 1 0.191865
0.39119 1 0.60881
1 5.96046e-08 0
0.878427 1 0.121573
1 0.863094 0
1 5.96046e-08 0
1 0.0575863 0
1 0.409608 0
0.174311 1 0.825689
1 5.96046e-08 0
1 5.96046e-08 0
0.707893 1 0.292107
1 5.96046e-08 0
1 5.96046e-08 0
1 5.96046e-08 0
1 5.96046e-08 0
1 5.96046e-08 0
1 5.96046e-08 0
0.031629 1 0.968371
1 0.561473 0
1 5.96046e-08 0
0 0.921563 1
1 0.25964 0
1 5.96046e-08 0
0.779322 1 0.220678
1 5.96046e-08 0
1 0.893923 0
1 0.747647 0
0.0281776 1 0.971822
1 5.96046e-08 0
1 5.96046e-08 0
0.500418 1 0.499582
0.17504 1 0.82496
1 5.96046e-08 0
1 0.998943 0
1 0.0179186 0
0.948073 1 0.0519267
0.427993 1 0.572007
1 5.96046e-08 0
0.0304485 1 0.969552
0 0.427275 1
0 0.925809 1
1 0.488553 0
1 0.597645 0
1 5.96046e-08 0
1 0.665445 0
1 5.96046e-08 0
1 0.189902 0
1 0.778881 0
1 0.0476416 0
1 5.96046e-08 0
0 0.88214 1
0.89478 1 0.10522
0.665296 1 0.334704
1 5.96046e-08 0
1 5.96046e-08 0
1 5.96046e-08 0
1 0.083985 0
1 5.96046e-08 0
1 5.96046e-08 0
1 0.583502 0
1 5.96046e-08 0
1 0.976185 0
1 0.880676 0
1 5.96046e-08 0
1 5.96046e-08 0
0.568261 1 0.431739
1 0.864983 0
0.717189 1 0.282811
0.66447 1 0.33553
1 5.96046e-08 0
0 0.290515 1
0.313702 1 0.686298
1 0.425464 0
1 0.851958 0
1 0.657641 0
1 5.96046e-08 0
1 0.684435 0
1 0.651819 0
0.965642 1 0.0343577
1 0.484242 0
0.844034 1 0.155966
1 0.9852 0
1 5.96046e-08 0
0.0359371 1 0.964063
0.731655 1 0.268345
0 0.278783 1
0.526535 1 0.473465
1 0.976592 0
0.434476 1 0.565524
1 5.96046e-08 0
0.739823 1 0.260177
1 5.96046e-08 0
1 5.96046e-08 0
1 5.96046e-08 0
1 5.96046e-08 0
1 0.801324 0
1 0.622958 0
1 5.96046e-08 0
0.876931 1 0.123069
1 5.96046e-08 0
1 0.928902 0
1 5.96046e-08 0
1 5.96046e-08 0
1 5.96046e-08 0
1 5.96046e-08 0
1 5.96046e-08 0
1 5.96046e-08 0
1 5.96046e-08 0
0 0.76412 1
1 5.96046e-08 0
0.43474 1 0.56526
1 5.96046e-08 0
0.729286 1 0.270714
1 5.96046e-08 0
0.425553 1 0.574447
1 0.421187 0
1 5.96046e-08 0
0.5217 1 0.4783
1 5.96046e-08 0
0.509201 1 0.490799
0.226762 1 0.773238
1 0.270768 0
0.539933 1 0.460067
1 0.282933 0
0.677376 1 0.322624
1 0.777592 0
1 0.607171 0
1 0.178068 0
1 5.96046e-08 0
1 0.00430071 0
1 5.96046e-08 0
1 0.307209 0
1 5.96046e-08 0
0.656084 1 0.343916
1 0.252743 0
1 0.360401 0
1 5.96046e-08 0
1 0.86956 0
1 5.96046e-08 0
1 5.96046e-08 0
0.984985 1 0.0150155
1 5.96046e-08 0
1 0.131305 0
1 5.96046e-08 0
0.924529 1 0.0754714
0.287608 1 0.712392
1 5.96046e-08 0
1 5.96046e-08 0
1 5.96046e-08 0
0.681579 1 0.318421
0.958202 1 0.0417976
1 5.96046e-08 0
1 5.96046e-08 0
0.142968 1 0.857032
0.999288 1 0.000711977
1 5.96046e-08 0
1 5.96046e-08 0
0.15514 1 0.84486
0.0549129 1 0.945087
1 5.96046e-08 0
1 5.96046e-08 0
1 0.64229 0
0.421695 1 0.578305
0 0.118986 1
0.184087 1 0.815913
1 5.96046e-08 0
1 5.96046e-08 0
1 5.96046e-08 0
0.397893 1 0.602107
1 0.849129 0
1 0.687148 0
0.930966 1 0.0690343
0.512384 1 0.487616
0 0.761169 1
1 5.96046e-08 0
0 0.433664 1
1 5.96046e-08 0
1 5.96046e-08 0
1 0.617498 0
1 5.96046e-08 0
0.892431 1 0.107569
1 0.708367 0
1 5.96046e-08 0
0.0832357 1 0.916764
1 5.96046e-08 0
1 0.476544 0
0.671251 1 0.328749
1 5.96046e-08 0
1 5.96046e-08 0
1 0.688856 0
1 0.770293 0
0 0.839673 1
0.101589 1 0.898411
1 5.96046e-08 0
1 0.0043726 0
1 5.96046e-08 0
0.827644 1 0.172356
1 0.574893 0
1 0.0493138 0
0.7282 1 0.2718
0.756948 1 0.243052
1 5.96046e-08 0
0.405688 1 0.594312
0.481994 1 0.518006
1 5.96046e-08 0
1 5.96046e-08 0
1 0.436785 0
1 5.96046e-08 0
1 5.96046e-08 0
1 5.96046e-08 0
0 0.918564 1
1 5.96046e-08 0
1 5.96046e-08 0
1 0.275587 0
1 5.96046e-08 0
0.407858 1 0.592142
1 0.0453035 0
1 0.37791 0
1 5.96046e-08 0
1 0.979297 0
1 0.222549 0
0.24981 1 0.75019
1 0.888476 0
1 5.96046e-08 0
1 5.96046e-08 0
0.756506 1 0.243494
1 5.96046e-08 0
0.61283 1 0.38717
1 0.345361 0
1 0.459168 0
1 0.628363 0
0.59989 1 0.40011
1 5.96046e-08 0
0 0.622046 1
0 0.709825 1
1 5.96046e-08 0
1 0.693676 0
0 0.431893 1
1 0.255388 0
0 0.529691 1
1 5.96046e-08 0
1 5.96046e-08 0
0 0.237603 1
1 5.96046e-08 0
1 5.96046e-08 0
0.346472 1 0.653528
1 5.96046e-08 0
1 5.96046e-08 0
0 0.504077 1
1 5.96046e-08 0
0 0.865614 1
0.619684 1 0.380316
0 0.331033 1
1 5.96046e-08 0
1 0.468512 0
0.815678 1 0.184322
0.460476 1 0.539524
0 0.956327 1
0 0.916727 1
0 0.536082 1
0 0.993725 1
1 0.90761 0
1 5.96046e-08 0
1 0.158504 0
0 0.352883 1
0.280716 1 0.719284
0.406505 1 0.593495
1 0.171513 0
1 5.96046e-08 0
1 5.96046e-08 0
1 0.689402 0
1 5.96046e-08 0
0 0.706206 1
1 0.396912 0
1 0.0972828 0
1 5.96046e-08 0
1 5.96046e-08 0
1 0.479827 0
0 0.661976 1
0.640268 1 0.359732
0.759367 1 0.240633
0 0.70508 1
1 0.237649 0
0 0.605008 1
1 0.508463 0
0 0.883016 1
0 0.740518 1
1 5.96046e-08 0
1 0.445271 0
0.196922 1 0.803078
0 0.24375 1
0.891644 1 0.108356
1 0.595094 0
0.443632 1 0.556368
0 0.49081 1
1 5.96046e-08 0
0 0.589322 1
0 0.325857 1
0 0.52305 1
1 5.96046e-08 0
1 0.767486 0
0 0.761878 1
1 5.96046e-08 0
0.376639 1 0.623361
0.638958 1 0.361042
0 0.80307 1
1 5.96046e-08 0
1 0.519128 0
0 0.316242 1
0 0.399684 1
0 0.849225 1
0 0.555945 1
1 5.96046e-08 0
1 0.044238 0
0 0.663311 1
0 0.712453 1
0 0.714791 1
1 5.96046e-08 0
0 0.40835 1
1 0.580727 0
0 0.400647 1
0 0.936811 1
0 0.832826 1
1 5.96046e-08 0
0 0.81154 1
0 0.15381 1
0 0.714521 1
1 0.652195 0
0 0.836919 1
0.45169 1 0.54831
1 5.96046e-08 0
0 0.574063 1
1 5.96046e-08 0
1 0.439874 0
1 5.96046e-08 0
