# vtk DataFile Version 3.0
Particle simulation
ASCII
DATASET POLYDATA
POINTS 400 float
2.1591 7.72025 8.47633
2.7836 6.38954 7.21463
1.74591 7.32009 1.94917
3.17936 4.6404 4.96217
9.68376 3.24168 9.84382
7.74638 6.84661 8.13993
6.31361 2.54128 6.67485
8.44386 1.64546 4.27583
4.69855 2.5595 5.4874
3.54681 2.6821 9.41639
0.0837869 7.19716 6.88686
3.27145 4.69741 3.97643
9.40053 9.38744 8.63918
7.71045 3.97654 8.08016
9.24523 3.84773 1.8352
9.72557 7.85828 2.2327
0 10 5.3495
4.41679 0.500045 2.6285
4.42189 5.91544 8.52966
5.99826 4.36599 8.69595
3.95407 0.821697 2.25989
4.46208 1.69428 0.239336
0.640144 1.43861 0.920354
2.09569 2.33213 4.63205
1.05839 5.61494 3.71237
2.97905 4.961 3.05895
2.52317 0.663891 9.2328
9.84216 6.2227 7.04184
9.37255 2.4092 6.10739
2.46208 3.78183 8.98896
2.50657 9.01496 8.02709
7.8501 1.44115 2.04159
6.19204 9.45053 1.51353
8.38621 9.8124 6.40396
9.40564 8.92458 9.81315
7.68079 1.9476 4.07052
1.14641 0.490601 5.12808
5.87992 0.154911 2.50705
8.51819 6.44857 4.69674
8.18394 3.33885 7.72336
3.4791 3.10599 5.13319
8.36295 3.10825 9.06967
7.04182 0.376742 3.1722
6.89979 0.917336 1.26113
0.774619 6.96249 9.61018
4.79926 2.68271 6.28853
5.74962 3.67708 1.37971
4.83114 4.81823 2.00176
6.87463 9.7644 1.73435
8.62765 5.64596 9.02973
4.95738 10 2.75275
1.21831 4.26457 4.25689
7.3688 4.6594 1.17946
7.52549 3.65495 6.63921
7.47178 0 4.48569
0.274719 2.01156 4.43344
4.73651 5.65999 4.5887
0.365574 1.95437 9.17224
8.32395 3.46689 8.78184
3.56403 4.36581 10
2.01276 10 7.55376
9.79874 6.88729 1.33746
2.37389 5.15059 9.4351
4.39198 0.352499 7.956
4.50098 1.22172 7.33263
4.46421 10 3.818
1.5375 3.56345 2.37174
1.4836 1.90502 4.21152
1.47107 5.43177 7.4766
2.05656 0.48006 3.70477
3.77571 6.96043 9.67758
3.08038 8.43873 4.32191
3.60246 6.24576 1.27982
6.48234 5.41472 2.24998
2.64456 5.48907 9.30609
8.75657 0.442425 1.99089
5.69736 1.82063 10
8.94398 7.54839 4.53392
2.98847 3.02719 7.59699
6.69526 10 7.98458
3.88654 0.777091 3.84975
6.79527 2.98186 5.39483
9.48672 3.67696 2.1927
1.05382 3.97177 5.35969
8.13431 7.85503 6.20265
9.71661 9.89086 2.72921
1.33618 6.81142 5.44091
3.48667 0.272737 9.1277
0.870371 8.57484 8.06723
6.24881 5.61989 9.0746
4.16804 0.67887 2.97183
8.63235 8.46154 2.11081
2.99932 2.58088 9.60265
7.1217 9.78798 1.7552
8.8635 5.12447 6.46154
2.65076 1.74673 3.63129
1.90606 2.92779 2.21452
3.59327 1.83188 6.68361
1.84868 4.89022 8.9641
5.07021 3.5298 4.37037
5.70976 4.48731 9.44671
7.33508 2.04847 0.692554
7.99222 1.76389 3.79916
4.63215 2.94782 8.81199
7.6189 2.43816 6.72339
5.29301 3.55486 4.62091
8.10234 1.86609 3.68174
0.233765 2.143 5.36968
1.74047 7.28122 0
0 6.34152 6.02996
1.41294 3.8905 6.26498
9.74326 2.68879 0
9.37142 3.96879 5.31734
1.41651 3.95651 0.371017
2.73257 0.435435 2.97655
5.69765 5.95771 4.94762
0.814349 1.39757 8.17304
6.03867 3.38465 5.79666
0.646864 1.14278 8.50839
2.61035 4.66082 2.10979
8.43498 4.11862 3.18712
7.52621 4.10212 7.79421
10 9.25157 7.01819
8.28408 3.09828 2.45578
7.96491 3.48778 3.69751
4.04362 3.26291 4.92904
3.10705 0.736302 4.28279
9.1565 7.44785 5.30762
9.55268 2.42461 8.58184
9.78665 4.05847 3.95765
3.2019 7.85954 5.32077
1.86587 2.14812 6.75646
1.60101 1.0195 9.2883
4.34344 6.59864 1.96662
3.38676 8.69968 10
2.71038 9.70211 8.87573
9.05537 7.95572 0.0613606
9.89528 6.14859 9.47192
9.09795 1.91519 3.66923
9.9502 3.98685 0.711199
3.96346 0.495367 3.06747
3.08472 1.82265 1.87499
2.74877 5.21103 0.823848
8.88521 9.409 9.87008
0 9.11443 2.92641
3.48735 2.23654 1.48692
5.06334 9.20282 0.0473254
5.4329 4.36174 5.48112
0.679095 6.96155 6.29207
7.38006 0.491163 1.33356
4.33072 0.381791 3.44478
9.23792 1.29399 2.82906
8.83578 0.0596671 6.42792
4.26248 0.303498 3.95529
3.08835 5.0893 5.31292
7.53827 8.83232 7.14566
9.81592 9.56306 8.21119
8.63564 4.93087 8.00004
3.07088 9.13789 5.12448
8.41926 4.01459 7.76078
9.8699 2.14773 6.88547
1.49383 0.905067 7.34915
8.69171 9.63377 1.89179
5.48253 1.55827 8.20576
8.4243 4.77169 1.44844
2.19893 1.01609 6.7983
7.44608 3.02333 6.97337
9.02081 8.93338 5.7511
8.1136 5.56332 2.81062
1.49098 0.559682 8.02951
4.75662 0.800133 3.64169
7.96694 4.24907 8.05015
8.02082 1.68503 8.82973
2.596 0.895134 8.81687
8.30139 3.42603 8.51032
1.82021 4.07466 6.22583
9.20135 9.53262 5.79398
4.74912 9.4004 8.18196
8.78298 7.09659 6.21753
1.3936 3.10251 7.06126
4.77105 0.10507 3.49232
4.89261 3.82976 7.2496
0.138133 8.6973 3.03788
0 9.23366 2.9812
10 5.34863 8.99212
5.86267 4.64203 8.06517
4.43748 0.459501 3.39952
9.32838 5.06537 8.36275
2.33203 0.198728 2.85718
1.00855 0.13417 3.51887
3.9497 0.456144 3.65452
4.0036 0.650301 4.40966
9.22058 9.64916 1.22087
0.874593 4.94764 4.07412
4.04195 4.38778 5.68582
1.3713 6.1906 6.08695
8.75178 0.285021 4.90638
5.99852 0.828189 6.63838
7.61168 0.190285 8.63556
4.62965 0.560369 3.87093
4.16264 0.585399 3.01635
0.942499 3.80052 8.57787
2.71711 1.61577 4.50175
8.00271 9.26602 6.00092
4.65753 0.825102 0.588191
4.36599 2.03387 8.5533
2.89701 3.38017 1.38529
0.352251 3.14937 4.68832
1.00594 8.80435 0
4.87631 5.15211 3.80048
4.32658 0.305399 3.34026
4.3713 0.287 2.76671
1.89007 4.18734 3.18871
8.09426 9.88515 7.16465
7.30084 3.34476 1.74639
3.68797 0 4.55551
4.25044 0.782223 2.80603
7.92246 4.14258 6.37137
2.28418 9.70054 2.11701
0.169192 1.49739 2.94635
9.55616 2.10838 4.89607
0 7.93033 0.20686
8.1216 4.14992 2.67782
4.48709 0.679046 3.4742
0.533323 6.78029 4.06999
5.89339 4.57845 5.43736
1.96293 5.7711 7.25964
3.93397 0.669122 2.14694
4.2935 0.634649 3.02663
5.09239 3.20511 5.1929
1.60161 8.83025 9.47119
7.15543 7.95054 1.33309
10 1.17544 2.78299
4.02247 0.515512 2.79782
1.28695 0.744185 8.16568
7.26972 5.32597 0.612097
2.60311 2.8924 8.49687
3.42911 8.84837 9.46179
4.4314 0.372982 3.52825
5.7505 3.47026 7.4565
4.19026 0.507457 3.1451
5.89386 0.421715 2.98555
2.89778 1.51791 3.60894
4.80929 0.791105 2.51196
3.15415 5.69847 1.66413
8.50659 5.87053 8.40234
3.98829 5.84199 3.93401
8.22423 2.02497 3.80175
7.91746 9.61366 5.15551
1.45481 2.30114 3.61752
4.74553 0.546349 3.81797
7.00776 1.45785 9.48302
3.85255 3.07481 7.37091
8.84037 8.40549 8.04514
0.817159 1.43604 9.12894
3.25898 2.71096 3.13481
2.32745 5.9512 2.27903
1.32562 0.527236 8.01072
3.18229 6.39322 3.71638
1.07787 0.669106 8.22547
2.48515 9.00496 7.19975
4.14944 9.79814 7.38216
0.477569 2.37539 6.8719
1.55016 5.31721 2.0045
7.50536 2.34401 6.90524
6.90049 8.65341 9.41924
1.7537 9.5331 1.94762
1.35642 0.582067 8.80079
7.29733 4.7244 4.98903
8.02064 4.72497 0.291395
4.26057 0.364978 2.58513
2.47273 7.44132 3.66785
4.18632 1.98117 0.971541
9.1944 2.69007 5.85233
4.37575 1.81045 1.84128
5.94345 5.87875 4.00259
1.63005 3.77327 6.28939
8.48215 7.41157 0
2.86593 2.5165 4.70734
4.32063 0.628746 2.92889
3.11262 6.77515 3.09964
9.56112 0.659679 1.28143
1.0838 3.66686 1.69162
7.72949 5.85951 1.35368
3.54381 6.4999 3.59261
4.65588 1.96114 0.662798
4.34148 0.512531 2.86654
2.47868 2.50863 5.33881
6.64075 1.09497 2.59283
8.45758 3.96239 1.23865
1.21261 4.41321 2.16377
5.55791 4.98793 1.20154
4.3779 0.6334 3.04799
4.45538 0.924738 0.351189
8.78453 7.89764 0.59474
1.36819 0.515922 8.07614
4.36459 0.65989 3.16392
4.13652 0.293566 3.23623
4.91857 1.2102 2.24966
4.48231 0.372535 3.15332
7.0042 2.99583 3.1394
1.1835 7.88482 9.82121
4.28463 0.913063 3.20655
1.34269 3.68322 4.211
4.01388 0.220068 2.70871
8.37097 6.38346 1.97955
4.07247 0.35892 2.85409
4.39712 0.35398 3.45017
2.05758 5.90437 3.81883
8.12092 5.43243 6.98739
8.77516 9.86745 8.69377
6.28861 1.13001 8.83874
5.54392 5.23793 2.84361
4.55708 0.74745 2.80539
4.38374 8.71059 8.38772
2.8696 9.3506 9.05112
9.10835 4.01278 1.74695
3.71565 2.72217 8.74861
2.67307 2.31194 8.47992
6.4345 0.268267 0.180537
1.42383 0.223878 8.12821
0.235976 0.524066 5.76962
1.35226 0.446612 8.03396
4.18852 0.422146 2.73489
3.28723 0.575236 2.92314
5.99206 5.10653 4.70322
4.52262 0.752129 3.51547
0.53625 4.88656 0.213084
2.15554 5.99372 7.44475
4.19256 0.409836 2.92997
2.59209 2.3965 2.51913
1.39865 6.17864 3.94536
2.48992 1.46421 8.98106
0.638211 3.58096 1.17029
9.55882 0.70708 1.35513
5.90847 1.15825 10
3.68865 2.30129 9.71257
4.1906 0.608767 2.82322
6.13667 8.38626 9.92919
6.39239 8.26788 1.49656
8.59348 4.94875 7.45076
3.58775 4.83352 5.75568
1.42906 4.59636 5.97478
1.50057 0.630654 8.28102
4.54417 0.0301816 2.79564
3.88186 0.844613 2.26161
9.58321 0.62319 1.22647
4.35409 0.890659 3.32572
4.74401 0.87083 3.53552
8.38109 2.06463 3.14224
3.9272 0.582616 3.05897
4.2073 0.805288 3.29696
1.28269 2.6389 3.19465
3.5446 0.389203 2.49817
2.65497 0.430561 2.91675
4.24214 0.545134 2.97575
7.53423 0.0821249 6.64726
6.95741 8.85441 4.10986
5.0045 0.793818 3.3273
4.434 0.175521 3.14637
9.15949 0.393396 1.4779
1.43016 0.590335 8.33172
1.18641 0.612479 8.12513
4.3474 0.0105975 3.89828
4.34573 0.389467 3.3713
9.13535 0.365312 1.84598
1.51975 0.771737 7.74897
0.0668949 5.56154 2.90281
1.43926 0.587726 8.21217
3.31561 3.05804 5.45203
9.43949 0.0770824 1.06406
2.0623 3.98567 3.19898
3.82047 6.42861 1.7544
4.0838 0.436384 3.12947
4.70582 0.172047 2.82247
9.69818 0.90686 1.47923
1.45614 0.605405 8.30465
1.65382 0.558508 7.385
1.41007 3.4641 9.4483
3.98123 0.52236 2.80841
4.14289 0.378406 3.28332
4.28425 0.727213 3.18225
1.42527 3.30073 9.4008
4.14704 0.694091 2.87405
9.43427 4.55542 9.22426
1.44282 0.736625 8.06398
4.256 0.218588 3.0456
4.14297 0.495931 3.26744
6.73046 2.99157 1.78648
3.81008 0.605937 7.56569
3.70032 0.199193 3.01769
4.62087 0.555891 2.98305
1.78175 0.371213 8.37953
4.20463 0.707681 3.24386
2.04303 4.49585 7.13116
1.25563 0.27969 8.09433
4.33992 0.221656 2.87852
1.9931 6.85663 2.63592
0.740898 2.9617 3.16245
9.53532 0.517398 1.32823
POINT_DATA 400
SCALARS particleColor float 3
LOOKUP_TABLE default
1 5.96046e-08 0
0.383242 1 0.616758
0.0386214 1 0.961379
1 5.96046e-08 0
0.15601 1 0.84399
1 5.96046e-08 0
0.232665 1 0.767335
1 5.96046e-08 0
1 5.96046e-08 0
0.231517 1 0.768483
1 5.96046e-08 0
1 5.96046e-08 0
1 0.760505 0
0.58968 1 0.41032
1 5.96046e-08 0
1 0.283497 0
1 5.96046e-08 0
0 0.369654 1
0.191424 1 0.808576
1 0.330462 0
0 0.64296 1
1 5.96046e-08 0
1 0.950064 0
1 5.96046e-08 0
0.00387638 1 0.996124
1 5.96046e-08 0
0.641374 1 0.358626
1 5.96046e-08 0
1 5.96046e-08 0
0 0.733025 1
1 5.96046e-08 0
1 0.645345 0
1 0.872969 0
1 0.653876 0
0.747614 1 0.252386
1 5.96046e-08 0
1 5.96046e-08 0
0 0.805451 1
1 5.96046e-08 0
1 0.381205 0
0.887405 1 0.112595
1 0.611354 0
0.589083 1 0.410917
1 0.0101609 0
1 0.782415 0
0.830517 1 0.169483
1 0.433632 0
1 5.96046e-08 0
1 0.148172 0
1 5.96046e-08 0
1 5.96046e-08 0
1 5.96046e-08 0
1 5.96046e-08 0
1 5.96046e-08 0
1 5.96046e-08 0
0.677286 1 0.322714
1 0.849831 0
0 0.671449 1
1 0.597616 0
1 0.152752 0
1 0.593605 0
0.798292 1 0.201708
0.679164 1 0.320836
0.599003 1 0.400997
0.64208 1 0.35792
1 5.96046e-08 0
0.535562 1 0.464438
0.628356 1 0.371644
0.140835 1 0.859165
1 0.94669 0
1 0.551224 0
0.55824 1 0.44176
1 5.96046e-08 0
0.727813 1 0.272187
1 5.96046e-08 0
1 0.974896 0
1 5.96046e-08 0
1 0.622056 0
1 0.277414 0
1 5.96046e-08 0
0 0.738742 1
1 5.96046e-08 0
1 5.96046e-08 0
1 5.96046e-08 0
0 0.998021 1
0.843807 1 0.156193
0.699826 1 0.300174
0.0230597 1 0.97694
0.132111 1 0.867889
1 0.909748 0
0 0.927271 1
0.532605 1 0.467395
1 5.96046e-08 0
1 0.691213 0
0.386235 1 0.613765
0.481284 1 0.518716
1 0.336056 0
1 5.96046e-08 0
1 0.984541 0
1 5.96046e-08 0
1 5.96046e-08 0
1 5.96046e-08 0
1 5.96046e-08 0
0.876803 1 0.123197
1 5.96046e-08 0
0.00847434 1 0.991526
1 5.96046e-08 0
0.537713 1 0.462287
1 5.96046e-08 0
1 5.96046e-08 0
1 0.728836 0
1 0.673376 0
0.642071 1 0.357929
1 5.96046e-08 0
0 0.620839 1
1 5.96046e-08 0
0 0.863873 1
1 5.96046e-08 0
0 0.733516 1
0.0882958 1 0.911704
1 5.96046e-08 0
1 5.96046e-08 0
1 5.96046e-08 0
1 0.507434 0
0 0.95754 1
1 0.348394 0
0.348521 1 0.651479
1 0.368369 0
0.316092 1 0.683908
1 5.96046e-08 0
1 5.96046e-08 0
1 5.96046e-08 0
0.581394 1 0.418606
1 5.96046e-08 0
1 5.96046e-08 0
0.470026 1 0.529974
1 5.96046e-08 0
1 0.60682 0
1 0.850391 0
0 0.386029 1
0 0.325381 1
1 5.96046e-08 0
1 5.96046e-08 0
1 5.96046e-08 0
1 0.410314 0
1 5.96046e-08 0
1 0.616925 0
1 5.96046e-08 0
1 5.96046e-08 0
0.75616 1 0.24384
0 0.180961 1
1 0.0550304 0
0.785167 1 0.214833
0 0.970496 1
1 5.96046e-08 0
0.646179 1 0.353821
1 0.886755 0
0.142531 1 0.857469
1 0.627525 0
1 0.575519 0
1 0.451643 0
1 5.96046e-08 0
1 5.96046e-08 0
1 0.211782 0
0.774798 1 0.225202
1 0.505445 0
1 0.870028 0
1 5.96046e-08 0
1 5.96046e-08 0
1 5.96046e-08 0
0 0.792761 1
1 5.96046e-08 0
1 0.11863 0
1 0.607228 0
1 5.96046e-08 0
0 0.987367 1
1 5.96046e-08 0
1 5.96046e-08 0
0.560868 1 0.439132
1 0.176829 0
0 0.411101 1
1 5.96046e-08 0
0 0.359189 1
1 5.96046e-08 0
0.540401 1 0.459599
1 5.96046e-08 0
0 0.432431 1
1 0.898854 0
0 0.399249 1
0.581808 1 0.418192
0 0.586675 1
0.0316556 1 0.968344
0.735145 1 0.264855
1 0.983269 0
1 0.0276742 0
1 5.96046e-08 0
0 0.972948 1
0.525891 1 0.474109
1 5.96046e-08 0
0 0.499904 1
0 0.235926 1
1 5.96046e-08 0
0.652955 1 0.347045
1 5.96046e-08 0
1 5.96046e-08 0
1 5.96046e-08 0
1 5.96046e-08 0
0.0365551 1 0.963445
1 0.86432 0
0.871208 1 0.128792
0 0.416953 1
0 0.401763 1
0 0.900409 1
1 0.953024 0
1 5.96046e-08 0
1 0.442376 0
0 0.649597 1
0 0.940657 1
1 5.96046e-08 0
1 5.96046e-08 0
0.891101 1 0.108899
0.805015 1 0.194985
1 5.96046e-08 0
0 0.792965 1
1 5.96046e-08 0
1 5.96046e-08 0
0.541107 1 0.458893
0 0.74934 1
0 0.388526 1
1 5.96046e-08 0
1 0.889834 0
1 0.583293 0
1 0.999307 0
0 0.55879 1
0 0.539188 1
0 0.617438 1
1 5.96046e-08 0
1 0.721964 0
0 0.52166 1
0.523328 1 0.476672
0 0.482375 1
0 0.200001 1
1 0.720386 0
0 0.55681 1
1 0.415121 0
1 0.637337 0
0.573927 1 0.426073
1 5.96046e-08 0
0.987277 1 0.0127231
0.654818 1 0.345182
0 0.461366 1
1 0.877315 0
1 0.418809 0
1 5.96046e-08 0
0.878839 1 0.121161
0.169872 1 0.830128
1 5.96046e-08 0
0 0.485062 1
1 0.636107 0
0 0.680687 1
1 0.930302 0
0.402812 1 0.597188
1 0.281826 0
1 5.96046e-08 0
1 5.96046e-08 0
1 0.73173 0
1 5.96046e-08 0
0 0.678128 1
1 0.597499 0
1 0.943189 0
0 0.52462 1
1 5.96046e-08 0
1 0.169292 0
0.710131 1 0.289869
1 5.96046e-08 0
0.861785 1 0.138215
1 0.839359 0
1 5.96046e-08 0
1 0.875615 0
0 0.520944 1
0.832236 1 0.167764
0 0.507662 1
1 5.96046e-08 0
1 0.734667 0
1 0.718343 0
1 5.96046e-08 0
0 0.675071 1
0 0.603366 1
0 0.317515 1
1 0.944122 0
1 5.96046e-08 0
1 0.456277 0
0.207113 1 0.792887
1 5.96046e-08 0
1 5.96046e-08 0
0 0.399805 1
0 0.724649 1
0 0.333744 1
0 0.639902 1
0 0.42503 1
1 5.96046e-08 0
1 5.96046e-08 0
0.124509 1 0.875491
1 0.213866 0
0 0.897282 1
1 5.96046e-08 0
0 0.760422 1
0 0.53136 1
0.607 1 0.393
0.212566 1 0.787434
0.177744 1 0.822256
1 5.96046e-08 0
0.347006 1 0.652994
0 0.37626 1
1 0.42653 0
1 0.943102 0
0.329847 1 0.670153
1 0.124354 0
1 5.96046e-08 0
0.0760277 1 0.923972
0 0.23699 1
1 5.96046e-08 0
0 0.933314 1
0 0.514849 1
0.788546 1 0.211454
1 5.96046e-08 0
0 0.909728 1
1 0.612213 0
0.974737 1 0.0252635
0 0.594912 1
1 5.96046e-08 0
1 0.265905 0
0.835437 1 0.164563
0.501215 1 0.498785
0.0098382 1 0.990162
1 5.96046e-08 0
1 0.860079 0
0 0.430462 1
1 5.96046e-08 0
1 0.0388762 0
0.325873 1 0.674127
1 0.196508 0
0 0.19914 1
0 0.647512 1
0 0.453342 1
0 0.724329 1
0 0.694906 1
0 0.95921 1
0 0.993795 1
0 0.980746 1
0.0888768 1 0.911123
0 0.585145 1
1 0.995329 0
1 5.96046e-08 0
0.224259 1 0.775741
0.0406703 1 0.95933
1 5.96046e-08 0
1 5.96046e-08 0
0 0.407181 1
0 0.617459 1
0 0.485617 1
0 0.647462 1
0 0.491849 1
0.0577554 1 0.942245
0 0.732832 1
0 0.645665 1
0 0.979548 1
1 0.844202 0
0 0.284904 1
1 5.96046e-08 0
0.00954559 1 0.990454
1 0.943345 0
1 5.96046e-08 0
0.162036 1 0.837964
0 0.699231 1
0 0.900611 1
0 0.772064 1
0 0.67315 1
0 0.703648 1
0 0.746986 1
0.102164 1 0.897836
0 0.879232 1
0.196385 1 0.803615
0 0.376232 1
0.131805 1 0.868195
0 0.460562 1
0 0.598414 1
0 0.799456 1
1 5.96046e-08 0
0 0.818251 1
0 0.775081 1
0 0.191735 1
0 0.984998 1
0 0.296526 1
1 5.96046e-08 0
0 0.828129 1
0 0.46031 1
0.85041 1 0.14959
0.532169 1 0.467831
0.182952 1 0.817048
