# vtk DataFile Version 3.0
Particle simulation
ASCII
DATASET POLYDATA
POINTS 400 float
0.910204 0.147939 1.08341
1.39427 0.846644 1.74615
1.58845 0.0428165 0.953983
1.86264 0.474438 0.89324
9.91106 0.710462 4.00176
0.121398 6.87301 4.68553
10 3.59138 0.273024
2.15496 4.65627 3.10361
6.37571 1.81017 1.97202
9.11662 0.471919 2.45645
1.96633 0.519006 0.795513
2.5808 0.233936 2.41848
1.35649 0.536454 0.984943
1.89891 0.525441 0.944676
9.82491 0.594048 4.06142
5.07719 5.5455 8.16612
5.09841 1.50193 1.10534
2.42867 0.504727 3.18866
8.05553 0.4857 0.537012
9.18621 0.445098 2.39102
1.48443 0.305555 0.949123
9.49557 0.633512 6.28423
2.09707 2.44641 7.00654
9.30639 0.07921 2.41425
4.11145 2.14015 6.88854
1.04464 0.246556 1.43387
7.30856 0.640833 7.28287
1.78285 0.517673 2.43098
4.4072 0.0986747 3.84622
2.25498 0.19571 2.12816
6.86382 0.205275 1.38784
9.64565 0.431514 1.13121
9.47321 4.72546 9.5378
9.35577 0.0558499 2.39606
1.33246 1.97291 2.20788
0.948826 0.222902 1.45968
5.88821 0.534745 8.08667
1.50015 0.513582 2.24137
4.73773 0.460295 2.41646
2.08399 0.137479 2.04241
0.304736 0.646898 0.499051
5.64373 1.32901 1.89658
5.57458 0.698053 3.26693
8.79485 0.341902 3.26736
6.54934 0.866052 7.95329
4.91038 0.323144 1.67248
5.1114 0.553806 3.55423
2.15408 0.0725728 1.88156
4.94226 0.395363 1.62437
7.01378 1.02741 2.58903
0.411271 0.760892 0.841449
5.62337 1.2936 1.85901
3.31542 0.525316 3.67475
8.82953 0.382851 2.88934
6.59048 0.820883 7.99278
4.86397 0.285076 1.6844
3.36144 0.521736 6.54636
2.26899 0.426703 1.2382
4.91212 0.400431 1.66541
4.27955 0.197385 9.01788
5.43078 0.659689 3.70364
4.53762 0.123462 3.42205
4.37994 0.123202 8.42022
9.2303 0.0571816 2.26233
6.26489 0.468373 7.94749
5.66012 1.19 8.84841
3.72924 0.487762 3.54683
0.754729 0.598584 0.729106
5.03983 0.271383 1.8219
3.92353 0.855444 6.59295
4.57889 0.819201 3.29629
0.885335 1.10552 2.59477
4.39339 0.296317 6.30797
9.25049 0.106859 2.25191
6.0377 0.550996 7.95419
4.31137 0.0429189 9.29625
3.70532 0.445678 3.57661
2.62328 0.251242 6.79454
5.02102 0.267634 1.75214
3.66543 0.637225 6.58868
2.43575 0.360667 1.75343
0.806097 1.00785 2.47571
1.90977 0.352413 2.47969
1.75521 0.666689 2.949
5.04219 0.427098 6.64338
3.50247 0.605515 7.50471
4.82437 0.164825 6.68273
1.99079 0.910242 2.36646
4.83726 1.97037 6.10466
7.96254 0.710366 0.986381
2.56825 0.28271 1.85856
1.56641 0 2.68305
4.80629 0.152527 2.99177
1.76617 0.704165 2.97946
5.07542 0.45024 6.63639
3.49923 0.630589 7.52412
3.39054 0.477672 6.79545
1.83441 0.742597 2.01454
2.24488 0.896165 9.06468
7.99757 0.707109 0.97441
1.70167 0.943416 2.85319
6.65458 0.14851 2.27389
1.79363 0.726118 1.07506
7.49 0.448378 0.923091
9.04559 0.0344504 2.26545
2.04834 0.28032 1.406
3.69246 0.267673 6.68283
4.61518 0.0652389 1.84101
4.91641 0.430156 1.648
8.11643 0.665956 0.905682
0.431149 0.755683 1.08282
9.53038 0.13164 2.30918
2.83586 0.429535 2.61034
7.82476 0.307417 1.24632
2.60652 0.581834 2.01879
2.1067 0.332752 1.49447
3.46452 0.56307 7.00328
4.97153 0.56587 1.4303
4.85935 0.389544 1.76464
2.0717 0.474858 2.83324
1.66953 0.806572 2.95323
4.6905 0.0790169 2.2082
4.36134 0.145551 9.26239
4.72415 0.0856169 4.20963
1.45222 0.713921 8.42936
2.35133 0.30551 2.837
2.08571 0.889194 1.60616
9.44919 0.441653 2.24266
3.64789 2.14259 6.8633
1.58532 0.350886 2.71121
1.6594 0.822498 2.93602
4.85476 0.293827 2.30388
5.15904 0.750856 7.19391
4.60156 0.121664 4.29596
3.78224 0.592144 6.73729
1.62047 0.321225 2.41645
8.37798 1.54689 8.29358
9.40902 0.447123 2.26863
3.46271 0.83047 7.06929
3.29893 0 4.0592
2.46234 0.260322 1.65621
3.52573 0.440891 4.11264
1.79198 0.738198 3.85559
2.45934 0.16589 2.00892
2.20273 0.684727 2.89684
1.94712 1.02947 0.922171
6.51135 0.53741 8.2743
1.58066 0.365279 2.09614
2.55951 0.454968 1.79348
1.08565 0.255808 1.11171
2.46085 0.2574 1.65342
3.64807 0.530224 4.18296
3.05736 0.228235 1.88388
4.35444 0.294907 3.5567
1.83674 0.945326 1.28371
2.1597 0.512425 1.28486
6.53254 0.665963 8.14195
2.30358 0.539107 1.60573
3.84935 0.492377 3.45265
2.2391 0.243555 1.57053
2.20506 0.898541 0.266135
0.587864 0.702376 0.743297
5.16967 0.16779 7.01724
1.42573 0 3.18379
0.440204 0.767797 0.825455
3.75471 0.281824 3.91536
3.45119 0.464308 7.02866
3.68104 0.713097 7.62638
7.11821 0.825985 8.04124
5.11633 0.332523 0.917372
2.22562 0.852045 0.298736
2.41026 0.258274 2.00935
4.95329 0.320332 6.62874
2.13023 0.498698 1.83162
2.69948 0.524429 2.03271
1.22184 1.2302 2.05152
3.41183 0.501142 6.93368
3.58068 0.53949 6.90308
2.9612 0.372258 6.85259
5.17106 0.347825 0.963956
1.61631 0.572199 1.6075
1.98691 0.21982 2.30797
6.3642 0.358453 7.66535
1.15625 2.22385 2.33271
4.15402 1.11747 6.70356
1.81126 0.705574 0.950484
2.35732 0.485529 1.63477
5.13702 0.546872 3.28812
1.92667 0.80059 2.42708
2.36867 0.480634 2.04713
1.6383 0.544368 1.60834
2.27244 0.82782 1.62305
4.9034 0.318217 6.528
1.78982 2.26693 2.1007
3.5748 0.451537 7.16077
2.00898 0.564896 1.84253
2.32471 0.533144 1.98775
5.30497 2.6741 2.82923
1.90809 0.795104 2.58168
1.79627 0.647958 1.90145
1.84263 0.748974 1.42501
4.63487 0.491672 2.04964
5.14702 0.741447 6.40529
3.69452 0.418221 3.80338
4.89392 0.0760299 8.86333
3.4268 0.476841 6.92579
2.24778 0.399198 1.66518
1.56464 0.690188 2.5028
1.22707 0.369213 1.95321
7.5306 0.602149 1.14926
2.56926 0.104313 1.96859
4.45166 0.223419 1.32302
4.73139 0.0725186 6.63523
4.37292 0.15711 3.91145
5.0533 0.0779164 8.79932
3.41742 0.498806 6.91337
2.26515 0.397391 1.67056
2.38373 0.910105 2.42874
2.26537 0.765957 2.91206
7.66046 0.532174 1.0497
8.61395 1.03151 2.08892
1.94136 0.502424 8.33745
5.03524 0.565096 6.75296
2.60665 0.475416 2.13684
3.86514 0.195319 6.86099
1.18897 1.8914 2.32942
7.258 0.843413 4.73607
2.93271 0.234228 2.2809
2.26777 0.85872 0.997853
4.08789 0.32518 4.00586
8.78867 0.74666 2.26906
4.45949 1.24015 6.81675
6.25245 0.817872 8.02061
2.58167 0.450634 2.05966
5.13615 0.724959 6.69792
1.48666 1.8475 2.35158
7.34254 0.798128 7.57316
1.72862 1.90053 2.33993
2.14836 1.02849 3.01504
1.72589 0.759793 3.0085
2.09816 0.403478 1.05773
1.87556 0.930519 3.00579
2.08026 0.0981306 1.84764
1.6557 0.835387 2.01143
3.20019 0.472185 6.76091
2.90162 0.479206 2.13072
1.84129 0.449127 1.41443
3.83304 0.58955 7.56888
4.90825 0.338949 1.68449
3.27715 0.435022 6.77382
2.06526 0.445939 0.827264
6.15237 1.69525 2.15516
3.25976 0.422847 6.2728
1.72138 0.802633 1.89142
6.80501 0.976312 7.82727
3.09497 0.115507 1.92271
7.56621 0.336851 1.1946
3.05391 0.349345 6.82357
4.90607 0.338938 1.67723
3.31816 0.427321 6.73466
3.01258 0.418409 1.80733
4.96018 1.28147 2.2615
4.46472 0.0743383 3.92744
9.41499 0.335521 2.38733
4.98476 0.0676673 8.94801
1.2121 0.389115 0.967635
8.01169 0.548384 1.65454
3.7998 0.523908 7.16944
6.25062 0.892879 7.60634
3.36074 0.417332 2.53137
3.06669 0.464874 1.80282
4.81374 1.28861 2.36476
0.966652 2.29433 2.096
9.39599 0.346596 2.69764
3.68258 0.356229 6.97967
4.33714 0.772051 6.52612
9.55229 0.578093 2.15027
8.16229 1.0368 8.87961
6.54348 0.688484 7.78846
2.69583 0.377975 1.54197
7.16443 0.560584 1.27075
4.87155 0.00141569 2.13923
5.23299 0.283661 2.21367
9.41811 0.546275 2.60195
5.87602 0.651472 8.32649
5.73876 0.775717 8.18304
1.28866 0.454045 2.14331
2.79671 0.126798 1.81936
3.66979 0.648955 3.40043
5.31198 0.76341 6.6506
7.45311 0.654299 1.23853
4.81455 0.0802166 2.06441
1.86217 0.719446 1.36873
9.44762 0.533542 2.6616
3.82911 1.02924 6.8031
2.96963 0.6622 6.46666
2.14795 0.777374 1.72337
1.15188 1.96889 2.24928
1.67649 0.697683 2.88526
1.32411 0.295665 1.0327
7.29952 0.418259 1.32979
3.99401 0.272596 3.45748
1.44427 0.456987 3.13309
4.88634 0.321083 1.29194
1.36959 0.435111 1.21891
4.37376 0.636235 2.09564
2.36008 0.33634 1.60993
2.5605 0.254309 2.77034
2.71516 0.785784 2.34747
2.28566 0.508434 2.91423
8.90677 0.4638 2.31795
3.91932 0.253068 3.32804
6.52114 0.650165 7.91134
1.34943 1.07504 2.20156
1.43483 0.400301 1.23916
7.37433 0.452506 1.25366
2.13085 0.444972 1.76213
3.53429 0.738858 3.402
5.01218 0.300126 1.715
2.82744 0.408616 2.03096
3.7882 0.0400812 3.51793
1.34234 0.55112 2.44414
3.37939 0.521551 6.32972
2.53701 0.663791 2.10527
7.44783 0.653267 1.04399
7.91296 0.554368 0.63346
2.42425 0.201742 1.51457
4.82508 0.283983 2.23736
7.95287 0.561137 1.35494
1.53871 0.774965 2.30227
3.74432 0.0450433 3.35237
2.38875 0.319987 1.48286
3.34184 0.440427 6.41129
2.55809 0.674357 2.14056
7.57488 0.595348 1.17005
3.59732 0.494982 3.56721
2.33323 0.398156 1.51052
2.29437 0.47487 0.899652
7.98232 0.543921 1.17111
1.68847 0.961673 2.20247
3.96992 0.225408 3.75437
2.72778 0.464629 2.00359
4.72185 0.624356 6.34533
3.64009 0.431941 3.89509
2.07388 0.481803 0.957664
1.74092 0.658362 1.75483
4.6934 0.527377 2.13957
1.70947 0.284979 1.403
1.93279 0.812115 1.82551
2.315 0.620612 1.57002
2.33033 0.0586943 1.84677
2.69757 0.26114 1.92437
5.18478 0.575971 6.75479
3.64516 0.440593 3.87886
1.98533 0.414465 0.975856
2.40589 0.105347 1.38278
4.77762 0.485736 2.13749
3.51631 0.5243 6.21672
1.96479 0.772981 1.6672
2.05005 0.803788 0.175455
4.75712 0.380154 1.87951
3.93613 0.423296 4.0795
4.93795 0.693506 6.91721
2.1881 0.298939 1.5106
1.44105 0.161922 1.87038
6.59151 0.807321 8.02946
3.53783 0.268731 6.94071
3.42722 0.46952 7.23884
3.60835 0.476735 7.17573
1.94528 1.10906 0.518047
4.77631 0.393994 1.8952
3.88111 0.446805 4.09365
4.8723 1.01706 6.88332
2.28969 0.48863 1.40222
1.8696 0.376983 3.20465
6.75038 1.00351 7.93014
3.55363 0.232489 6.90227
3.2803 0.834462 7.14073
3.94552 0.406303 6.86787
1.38119 0.24625 1.47577
2.28385 0.431121 1.97794
2.39184 0.397921 1.85794
3.78879 0.153099 6.87507
2.43108 0.340865 1.99313
9.15649 0.362971 2.1705
5.01513 0.573012 6.89147
1.92456 0.451997 2.23307
2.18401 0.56996 1.59817
8.67426 1.326 2.08651
4.44207 0.31649 2.22088
2.29811 0.411243 2.02337
2.37856 0.354801 1.86933
3.72789 0.228915 6.88803
2.46528 0.0782528 1.668
9.18352 0.339818 2.15244
5.07896 0.651623 7.06417
1.94292 0.474383 2.22819
1.93327 0.677992 1.38502
8.39893 0.669276 1.04861
4.45302 0.293649 2.22324
POINT_DATA 400
SCALARS particleColor float 3
LOOKUP_TABLE default
0 0.569906 1
0 0.74322 1
0 0.71782 1
0 0.597238 1
0 0.641582 1
1 5.96046e-08 0
0 0.34877 1
0 0.157592 1
0 0.780651 1
0 0.73331 1
0 0.538853 1
0 0.68007 1
0 0.520994 1
0 0.642161 1
0 0.685914 1
0 0.528258 1
0 0.645877 1
0 0.282773 1
0 0.843038 1
0 0.665307 1
0 0.550712 1
0.453624 1 0.546376
0 0.348065 1
0 0.0977786 1
0 0.905003 1
0 0.810472 1
0 0.853937 1
0 0.979637 1
0 0.662502 1
0 0.540771 1
0 0.76033 1
0 0.445319 1
1 0.602747 0
0 0.272702 1
0 0.471777 1
0 0.801515 1
0 0.247246 1
0 0.350573 1
0 0.582726 1
0 0.772126 1
0 0.630979 1
0 0.964912 1
0 0.928683 1
0 0.439607 1
0 0.658746 1
0 0.849708 1
0 0.895316 1
0.108415 1 0.891585
0 0.177724 1
0 0.899959 1
0 0.510921 1
0 0.591118 1
0 0.702132 1
0 0.538978 1
0 0.627689 1
0 0.631636 1
0 0.61495 1
0 0.481928 1
0 0.230597 1
0 0.591711 1
0 0.431531 1
0 0.777794 1
0 0.290085 1
0.169674 1 0.830326
0 0.280344 1
0 0.587653 1
0 0.638144 1
0 0.393492 1
0 0.335431 1
0 0.166217 1
0 0.858558 1
0 0.702535 1
0 0.590676 1
0.246846 1 0.753154
0 0.61452 1
0.0898754 1 0.910125
0 0.648481 1
0 0.240908 1
0 0.142284 1
0 0.351364 1
0 0.330408 1
0 0.29847 1
0 0.709138 1
0 0.500002 1
0 0.571956 1
0 0.50913 1
0 0.909368 1
0 0.626506 1
0.976329 1 0.0236712
0 0.504178 1
0 0.784404 1
0 0.698374 1
0 0.694297 1
0 0.42537 1
0 0.344213 1
0 0.403017 1
0 0.953288 1
0.0170201 1 0.98298
0.158784 1 0.841216
0 0.505329 1
0 0.821899 1
0 0.964359 1
0 0.339544 1
0 0.807515 1
0.416381 1 0.583619
0 0.717882 1
0 0.534908 1
0 0.447916 1
0 0.443655 1
0 0.915616 1
0 0.69056 1
0 0.85515 1
0 0.282154 1
0 0.675101 1
0 0.689487 1
0 0.486963 1
0 0.537389 1
0 0.772662 1
0 0.188573 1
0 0.911384 1
0 0.658038 1
0 0.9375 1
0.172064 1 0.827936
0 0.351278 1
0.190107 1 0.809893
0 0.601485 1
0 0.568978 1
0 0.997676 1
0 0.967425 1
0 0.718551 1
0 0.683337 1
0 0.857176 1
0 0.557944 1
0 0.469057 1
0 0.929391 1
0 0.901232 1
0.441759 1 0.558241
0 0.937904 1
0 0.629647 1
0 0.540224 1
0 0.312767 1
0 0.872775 1
0 0.588255 1
0.0098242 1 0.990176
0 0.661615 1
0 0.302304 1
0 0.767457 1
0 0.178845 1
0 0.376844 1
0.0444322 1 0.955568
0 0.318364 1
0 0.811312 1
0 0.639331 1
0 0.636352 1
0 0.85225 1
0 0.438343 1
0 0.780849 1
0 0.803753 1
0 0.960759 1
0.00636469 1 0.993635
0 0.406901 1
0 0.99031 1
0 0.550283 1
0 0.338381 1
0 0.844884 1
0 0.713252 1
0 0.723804 1
0 0.156097 1
0.261743 1 0.738258
0 0.57279 1
0 0.409174 1
0.14401 1 0.85599
0 0.501548 1
0.0532025 1 0.946798
0 0.798953 1
0 0.83123 1
0 0.590984 1
0 0.490704 1
0 0.530377 1
0 0.594226 1
0 0.3803 1
0 0.42143 1
0 0.479096 1
0 0.469925 1
0 0.522511 1
0 0.652372 1
0 0.62465 1
0 0.787898 1
0 0.286422 1
0 0.637262 1
0 0.441683 1
0 0.433323 1
0 0.485513 1
0 0.856098 1
0 0.66901 1
0 0.514386 1
0 0.495975 1
0 0.876415 1
0 0.134787 1
0 0.819206 1
0 0.982948 1
0 0.416994 1
0 0.844317 1
0 0.419083 1
0 0.621928 1
0 0.268102 1
0 0.563708 1
0 0.612496 1
0 0.426018 1
0 0.663799 1
0 0.274321 1
0 0.724584 1
0 0.591763 1
0 0.489605 1
0 0.542147 1
0 0.458961 1
0 0.484964 1
0 0.54045 1
0 0.763227 1
0 0.549366 1
0 0.234704 1
0.0499182 1 0.950082
0 0.46141 1
0 0.584699 1
0 0.867298 1
0 0.297753 1
0.100845 1 0.899155
0 0.261139 1
0 0.300948 1
0 0.725767 1
0 0.617386 1
0 0.488352 1
0 0.486214 1
0 0.577661 1
0 0.506037 1
0 0.83283 1
0 0.854256 1
0 0.352635 1
0 0.911822 1
0 0.884936 1
0 0.190737 1
0 0.584808 1
0 0.757364 1
0 0.591128 1
0.00765486 1 0.992345
0.113543 1 0.886457
0 0.770257 1
0 0.742249 1
0 0.741424 1
0 0.617 1
0 0.245738 1
0.108418 1 0.891582
0 0.636396 1
0 0.734677 1
0.46468 1 0.535321
0 0.387015 1
0 0.766042 1
0.141881 1 0.858119
0 0.670256 1
0 0.564499 1
0 0.819079 1
0 0.838425 1
0 0.817065 1
0.11335 1 0.88665
0 0.824524 1
0.025785 1 0.974215
0.331883 1 0.668117
0 0.537237 1
0 0.947254 1
0 0.325016 1
0 0.677007 1
0 0.577849 1
0 0.565641 1
0.0829094 1 0.917091
0.378437 1 0.621563
0 0.828328 1
0 0.56881 1
0.172601 1 0.827399
0.156887 1 0.843113
0 0.377682 1
0 0.792666 1
0 0.355209 1
0 0.788247 1
0 0.556907 1
0 0.347789 1
0 0.929091 1
0 0.760378 1
0.00591097 1 0.994089
0 0.406607 1
0.495469 1 0.504531
0 0.773912 1
0 0.362747 1
0 0.761417 1
0 0.798972 1
0 0.73617 1
0 0.65218 1
0.0707352 1 0.929265
0 0.920631 1
0 0.881034 1
0 0.442604 1
0 0.249876 1
0 0.383097 1
0 0.73674 1
0 0.71066 1
0 0.638952 1
0 0.450671 1
0 0.395733 1
0 0.563433 1
0 0.884074 1
0 0.814546 1
0 0.678647 1
0 0.536181 1
0.121775 1 0.878225
0 0.236977 1
0 0.618299 1
0.421006 1 0.578994
0 0.599081 1
0.248649 1 0.751351
0 0.863084 1
0 0.843949 1
0 0.841496 1
0.123756 1 0.876244
0 0.19847 1
0 0.823307 1
0 0.62607 1
0 0.7348 1
0.0853444 1 0.914656
0 0.507638 1
0 0.761982 1
0 0.295691 1
0 0.709482 1
0 0.580283 1
0 0.154389 1
0 0.944965 1
0 0.306395 1
0 0.885664 1
0.169566 1 0.830434
0 0.784291 1
0 0.498398 1
0 0.575683 1
0.155793 1 0.844207
0 0.307062 1
0 0.507399 1
0 0.260652 1
0 0.652295 1
0 0.730804 1
0 0.254625 1
0 0.909935 1
0 0.895133 1
0.317357 1 0.682643
0 0.875749 1
0 0.351959 1
0 0.708785 1
0 0.24073 1
0 0.36136 1
0.0214933 1 0.978507
0 0.902894 1
0 0.889499 1
0 0.657016 1
0 0.844057 1
0 0.945919 1
0 0.715558 1
0 0.85623 1
0.0115533 1 0.988447
0 0.618115 1
0.199762 1 0.800238
0 0.774382 1
0 0.452788 1
0 0.786782 1
0 0.916252 1
0 0.953844 1
0 0.855936 1
0 0.425626 1
0 0.849684 1
0.0495568 1 0.950443
0 0.65736 1
0 0.815527 1
0 0.533848 1
0 0.496267 1
0 0.725496 1
0 0.718883 1
0 0.587513 1
0 0.923841 1
0 0.855729 1
0 0.342439 1
0 0.652676 1
0 0.884418 1
0 0.826249 1
0.152698 1 0.847302
0 0.344353 1
0 0.74272 1
0 0.397104 1
0 0.824932 1
0 0.552565 1
0 0.517658 1
0 0.733839 1
0 0.768263 1
0 0.744696 1
0 0.754092 1
0 0.20694 1
