# vtk DataFile Version 3.0
Particle simulation
ASCII
DATASET POLYDATA
POINTS 400 float
7.57054 6.04212 1.85544
9.92852 6.43929 0.364975
7.60607 6.60697 8.03536
0.853611 2.18505 9.86281
1.34212 2.50653 3.28456
4.02926 7.15254 9.76484
5.54707 4.50669 5.39476
9.08824 10 3.2963
1.02257 2.58317 3.58776
7.75233 0.346922 7.03628
8.19063 1.78336 8.0998
4.824 8.62359 6.84367
4.31629 8.98454 3.96311
9.04149 9.15668 0.0808425
8.71101 2.11335 3.75668
7.92705 1.04017 1.59876
5.18755 8.15475 3.68268
1.44715 4.45817 5.31726
8.30766 8.33431 3.9771
2.42137 1.1946 2.83184
4.57078 2.63634 4.74459
6.1906 7.96841 1.09755
0.229045 7.04126 6.70031
8.66448 2.97101 3.15301
8.41174 9.63158 1.08969
0.874669 1.27291 9.35776
5.79346 3.88479 9.58255
4.44128 8.41937 0.55896
6.9963 1.84905 6.75726
5.64585 9.52693 7.07421
1.77799 4.53486 2.49801
3.52873 9.43502 5.1679
5.16829 6.9901 6.01216
8.43038 8.38757 9.16306
6.26786 4.32207 8.1939
9.42823 3.48023 9.08649
4.75293 9.59356 2.59073
5.93023 0.236002 5.55131
0 1.34357 6.08794
7.71511 0.550365 1.01577
5.03827 4.66959 0.810361
5.05988 5.27935 5.91798
8.82463 1.7379 8.74479
3.55056 4.86784 9.45088
6.3198 7.75412 6.47271
6.73479 4.21842 9.50042
5.6171 4.28261 2.46711
9.2644 2.8288 2.27023
1.03783 6.90281 5.37643
8.38404 9.46206 3.50744
0.976189 8.62622 2.06317
6.21828 2.85677 2.34693
3.81588 5.13035 3.43789
8.02763 9.52691 3.31775
10 9.64698 3.62938
7.28115 5.63167 3.9579
6.82857 5.94958 0.930783
0.855593 5.87009 6.83834
0.517716 2.8719 10
7.98645 5.34378 0.37833
1.56329 2.47752 9.88371
1.1787 8.54953 4.71271
7.15871 5.24427 4.93425
4.55415 8.28856 3.49724
0.615782 7.70561 9.66412
1.28605 0.456407 2.69876
3.34323 9.30183 7.83926
5.10337 0.689942 2.0883
5.61473 0.202181 1.53083
7.59662 1.19568 10
6.17881 0 1.48748
9.17545 9.44038 8.70654
9.30327 6.6892 8.55186
4.4842 7.64024 3.29824
5.20649 8.07867 8.53384
6.37876 8.87081 0
0.515329 2.58102 6.98292
4.45241 3.785 5.49915
1.44382 3.56565 0.366963
9.68281 0.80169 8.56993
3.71075 2.39423 6.31548
8.99825 5.0708 2.26783
8.08454 0.951646 5.64746
0.557375 0.469079 9.08281
0 2.94561 4.79966
9.92138 1.76696 1.63364
3.61146 9.57304 10
0 9.1216 0.177996
2.00559 2.25595 2.08001
8.76506 0.863031 9.23283
9.7413 7.2517 2.54651
8.14672 2.49246 8.89464
5.01283 7.45069 7.64674
0.81719 4.42413 7.03868
9.81351 1.98076 7.87642
6.45223 7.53567 6.67255
1.54778 5.90242 1.99809
2.77165 2.3916 2.68948
9.39907 2.88797 3.39239
7.33002 5.19643 7.04265
8.77591 5.95969 7.07153
8.26409 5.06498 9.95836
9.4462 8.90167 6.6506
5.12245 1.61639 9.0406
6.07693 0.256765 7.65304
6.15037 7.36129 6.97443
4.50625 5.65549 6.10301
1.27458 4.52652 3.86595
3.09144 1.66381 1.89408
1.22222 8.52114 4.11174
3.31595 8.37529 7.5424
1.18893 8.23856 4.99031
9.24191 5.67271 7.35586
5.07944 2.86469 2.67894
7.81298 1.84777 6.25707
8.22093 2.71506 7.50729
1.19038 7.94826 0.211984
3.32925 3.72153 1.94805
5.46529 3.70145 4.76555
10 0 1.67224
9.82695 9.4454 1.44044
7.59887 0.220328 3.21288
4.1005 4.44164 9.30673
3.06621 8.47775 9.85067
6.52672 8.30721 0.967597
5.23714 6.79818 5.74227
6.89977 0.429184 6.96047
2.49141 4.84113 8.27604
4.14108 1.42959 4.87676
5.36741 1.11585 8.11664
6.40654 4.39553 4.20565
10 9.38044 6.64207
2.36026 3.36826 5.85881
5.39557 0.338785 1.65613
1.40635 10 7.51482
8.12599 2.49484 9.37107
1.64687 5.00733 4.13913
6.91004 5.01528 7.11599
7.39156 0.660012 1.07542
7.86194 7.61713 2.94187
3.42042 5.49328 2.8824
8.70001 2.30779 7.27011
7.81013 6.41041 0.277046
6.40015 6.06523 8.86653
8.25124 0.0661742 0.73882
0.358281 9.29513 5.77996
0.413911 10 2.45023
6.52689 1.10812 9.51601
7.22289 1.11419 8.43127
4.81889 0.779263 7.36735
6.83309 0.194204 7.62806
9.43368 2.81551 4.41021
5.98492 5.02202 5.66033
1.68858 9.86441 5.05257
0.806272 6.38629 9.60487
1.56338 2.58381 0.818699
2.49916 6.08266 5.33674
8.32194 6.74305 6.35827
0.0595583 6.86038 3.77099
9.00237 3.96587 5.94158
0.614015 4.76233 6.7695
8.80287 0.938382 9.84421
5.38582 8.58607 7.65336
9.30282 0 8.40014
2.74952 5.66138 5.37948
8.90445 4.52518 9.15119
8.27422 7.48398 4.92344
5.54883 7.44605 5.34779
1.34514 7.36614 2.07272
1.89115 8.63338 3.08076
7.80813 3.56156 7.9513
7.37066 0.681902 8.14649
7.39952 3.6111 1.18926
3.27012 9.24807 1.31981
9.17186 7.22796 7.11651
6.41254 9.73911 5.45914
3.31564 7.16281 9.75215
1.28214 2.61889 0.306696
9.56198 6.07725 1.31222
7.56729 4.32658 6.90797
6.40899 0.901339 7.83848
8.74147 0.16814 8.89342
3.64501 2.86565 8.85723
2.87125 1.32181 8.2127
6.47643 9.70324 2.76204
2.13689 3.63774 8.5883
5.79147 9.22321 8.78179
1.01547 5.45768 3.28477
8.45935 8.41755 8.46234
7.22262 9.04569 0.204674
0.69071 7.26139 3.79673
9.17602 0.723457 1.48283
1.15388 7.20721 7.23171
9.56636 8.10475 4.24785
8.82705 3.92707 7.69538
2.00247 2.40247 8.77867
2.9909 9.19181 7.73217
6.79832 3.74367 1.79218
2.88176 3.76538 6.05752
2.65368 0.345573 5.37998
2.01152 5.9014 8.13084
2.54058 6.2272 0.610898
3.8628 7.03341 2.35587
4.26943 9.26965 7.6758
0.0980796 2.29571 2.79335
6.05267 5.52222 0.652157
1.10958 2.23091 1.72889
6.5555 2.9811 8.11566
8.91325 4.24314 7.8565
7.47701 2.19441 5.01736
0.701054 0.855794 10
0.175112 9.37974 9.21561
4.09403 8.89417 9.66224
8.80726 4.24566 4.72749
5.39399 3.8069 1.92539
1.63637 6.75868 7.28392
3.49195 6.57667 1.0709
4.76937 5.13871 3.80663
6.74234 2.18075 9.78313
3.06759 3.62135 0
1.24584 4.97674 10
0.0987083 4.09714 7.17201
7.80943 3.53149 2.42543
7.09613 8.23284 9.41341
4.44194 8.52426 0.889315
7.15114 4.49054 4.7901
0.414921 6.18166 7.96085
1.75599 5.59893 10
6.90247 0.315046 7.57795
8.17602 9.95995 7.44334
7.13439 2.21552 4.96656
10 5.2506 0.83269
5.58679 8.88371 8.93296
1.46358 9.73969 2.91499
8.95793 3.31185 2.21248
4.32986 3.61552 0.239234
5.36766 3.78063 7.17764
6.02236 0.213171 0.733432
1.96591 9.04601 9.20808
0.125382 6.17897 7.29234
6.70526 0.154256 7.81531
9.02498 3.58007 1.52537
1.18246 7.34427 4.71372
7.18142 5.27534 1.9975
9.46006 8.7917 4.30477
5.79074 0.772918 3.7348
8.72435 0.306532 5.54429
0.741806 5.59168 8.73894
0.618104 5.96982 9.23961
0.986263 2.67603 0.888895
6.12548 1.22191 9.29005
3.58556 0.460169 2.60735
0.861003 0.665957 0.848699
8.71082 6.48527 3.03734
4.03414 0 8.66357
0.141807 6.10538 5.1997
2.61938 1.63525 4.54862
8.77429 1.61339 6.46272
10 2.98487 3.19179
7.28219 1.76171 4.30661
7.42323 6.209 6.71918
4.95698 7.51174 3.04745
1.39981 1.14805 9.31002
9.97513 9.52269 4.8313
9.73411 5.86717 8.1613
1.01938 1.10853 4.92203
7.07665 10 6.83362
0.942437 0.856164 0.765233
2.0449 2.01338 1.51641
0.81852 4.77844 0.878584
3.60468 1.46206 7.93155
2.76276 4.7842 8.14052
0.279889 1.52347 9.71382
2.57557 0 8.45966
3.96206 7.91677 3.2955
7.53118 2.61611 6.6307
8.34761 6.31231 0.278986
9.73921 9.40986 4.15426
2.46144 7.98334 5.15442
8.37811 2.84677 9.31404
1.24238 7.56542 4.8777
10 2.64484 0
3.98066 4.47056 4.47807
9.15702 3.17455 6.18865
1.0116 1.54759 7.03555
5.07717 0.963907 7.42691
0.638172 2.24465 6.18917
6.95217 0.0941403 4.9735
4.75984 4.5151 0
5.93341 3.28164 5.85107
9.42223 7.72616 3.95812
9.31447 6.16126 0.739648
6.05517 10 6.5528
9.21632 5.94661 9.64581
8.64922 2.26025 1.54769
4.9904 0.988899 6.75592
2.61936 4.5446 9.75967
1.70865 2.45169 2.67986
7.03506 0.187154 7.66419
1.8669 0.779399 1.26362
6.39053 0.634987 0.35201
2.07378 3.80513 3.47306
6.8099 0.866846 3.86217
6.0608 0.697054 0
6.53965 0.56988 7.84602
5.46898 3.34037 3.11194
1.35161 7.14241 2.64807
7.3693 0.355342 7.79063
9.9642 2.59419 4.32993
3.11081 0.515796 2.55849
1.93941 9.13044 6.76463
0.473816 0.621514 9.97848
6.3899 9.68556 3.5302
5.9332 1.00612 6.13462
7.81481 2.24334 4.05026
0.641274 3.89434 1.41923
5.85833 0.293176 0.711265
6.58074 0.757847 3.75355
5.9266 8.44274 5.71584
1.90038 4.36896 4.73694
4.6565 9.52463 2.00616
8.88888 1.71204 4.47522
2.07829 7.19155 4.64614
6.56441 0.695039 4.59442
6.6762 0.539786 7.86802
3.30078 5.01979 6.84277
3.11358 7.01482 4.2028
0.363539 7.06308 3.36796
6.75293 1.85269 6.65264
6.8046 0.143698 7.64098
3.41218 1.67932 10
1.78916 0.794998 1.34452
9.08293 3.89859 8.01552
3.18197 2.97656 9.16677
8.88763 7.47351 9.44878
3.21602 1.59264 4.37174
0 4.35278 7.23986
6.54033 0.516906 7.73326
3.76437 6.11541 1.17997
1.33967 8.33545 3.47359
3.369 2.45769 4.73176
7.65428 4.62275 1.4248
0.408954 8.22951 1.42464
1.36302 1.5282 9.56049
1.72061 2.13032 0.660883
9.8426 6.68914 0.335996
1.75202 0.0933362 2.35829
8.28476 2.54818 1.90713
6.93045 0.434893 7.76176
5.25308 4.67539 1.05036
6.71254 0.0696734 8.46035
7.18277 0.339118 7.44642
9.78947 5.41431 7.26566
6.58187 7.57664 3.68342
7.08899 1.25557 0.997523
6.60326 0.139026 7.72574
3.95989 7.25165 5.11639
1.55757 1.70157 2.03535
6.46189 0.508525 5.62966
6.60541 0.307865 7.59978
4.81877 9.15275 3.44988
4.75634 9.07428 3.40374
3.37058 2.7305 9.73054
6.9889 0.323043 7.65733
7.41473 4.16231 1.60747
4.21328 2.54285 1.37447
3.54075 2.36552 9.67544
1.67551 3.53254 5.52647
0 1.7437 5.79895
3.36911 2.31745 9.54628
1.53528 0.162883 2.32208
6.2655 7.14399 6.28155
9.65894 7.42395 6.30949
6.9706 0.368183 7.77765
7.04066 0.43547 7.66308
9.09351 6.58238 5.28262
3.45137 2.3886 9.78052
6.75485 0.474106 4.37877
8.47716 2.19841 2.90814
6.89618 0.539645 7.56379
6.5871 1.75779 9.99443
6.59061 0.0101705 7.75585
0.331195 2.66648 7.4531
7.08186 0.103977 7.38248
1.71225 7.64204 0.203537
3.45195 2.28826 9.79476
6.41711 0.318799 7.71779
6.88555 0.0305631 7.92005
8.99658 0.995389 5.48807
8.51656 9.95037 8.71133
6.90627 0.453309 7.45256
7.01174 0.407422 7.5225
1.50435 4.41422 5.22826
7.07596 0 7.76075
1.11111 2.24262 6.57509
4.8886 2.90398 1.29707
6.89225 0.325358 7.87592
9.54248 1.75032 6.55761
8.40645 9.45084 9.36232
8.30759 0.142354 1.94078
POINT_DATA 400
SCALARS particleColor float 3
LOOKUP_TABLE default
1 0.910027 0
1 0.362911 0
0.57956 1 0.42044
1 0.247412 0
0.634724 1 0.365276
0.152311 1 0.847689
1 0.753687 0
0.23543 1 0.76457
0 0.900703 1
1 0.123457 0
0.513018 1 0.486982
1 0.63181 0
1 0.0999123 0
1 0.289222 0
1 0.750284 0
1 5.96046e-08 0
1 5.96046e-08 0
1 0.48692 0
0 0.994511 1
1 5.96046e-08 0
1 5.96046e-08 0
1 5.96046e-08 0
1 5.96046e-08 0
0.854992 1 0.145008
0.423675 1 0.576325
1 5.96046e-08 0
1 5.96046e-08 0
0.594245 1 0.405755
1 0.857301 0
1 5.96046e-08 0
1 5.96046e-08 0
1 5.96046e-08 0
1 0.919358 0
0 0.877742 1
1 0.573861 0
1 0.7872 0
0 0.830629 1
1 0.294587 0
1 0.782243 0
1 5.96046e-08 0
1 5.96046e-08 0
0.822112 1 0.177888
0.854261 1 0.145739
1 0.279216 0
0.563194 1 0.436806
0.800149 1 0.199851
1 0.0703534 0
1 0.68171 0
1 0.924672 0
0 0.968957 1
0.111981 1 0.888019
0.0309391 1 0.969061
0.410374 1 0.589626
1 5.96046e-08 0
1 5.96046e-08 0
1 0.763783 0
1 0.970075 0
1 0.741147 0
0.953625 1 0.0463747
1 0.666016 0
1 0.35791 0
1 0.534308 0
1 5.96046e-08 0
1 5.96046e-08 0
0.274759 1 0.725241
0.794269 1 0.205731
1 5.96046e-08 0
1 0.534857 0
1 0.747399 0
1 0.956078 0
1 0.0277511 0
1 5.96046e-08 0
1 0.0507724 0
1 0.0783681 0
1 5.96046e-08 0
1 5.96046e-08 0
1 0.565536 0
1 5.96046e-08 0
0.251142 1 0.748858
0.737662 1 0.262338
0.113173 1 0.886827
1 0.171545 0
0 0.936004 1
1 5.96046e-08 0
1 5.96046e-08 0
0.103725 1 0.896275
1 5.96046e-08 0
1 5.96046e-08 0
0.7111 1 0.2889
0.546987 1 0.453013
1 5.96046e-08 0
0.72277 1 0.27723
1 0.724852 0
1 0.202077 0
0.816233 1 0.183767
1 5.96046e-08 0
0.930701 1 0.0692994
0.408337 1 0.591663
0.413101 1 0.586899
1 0.229014 0
0 0.51348 1
0.828711 1 0.171289
1 5.96046e-08 0
1 5.96046e-08 0
0.357062 1 0.642938
1 5.96046e-08 0
1 5.96046e-08 0
1 5.96046e-08 0
0.987609 1 0.0123907
0.465169 1 0.534831
1 5.96046e-08 0
1 0.228512 0
1 5.96046e-08 0
1 0.102148 0
0.872723 1 0.127277
1 0.778156 0
1 0.506236 0
0.0535826 1 0.946417
1 5.96046e-08 0
0.642721 1 0.357279
0.0893845 1 0.910616
1 5.96046e-08 0
0.664125 1 0.335875
1 0.0590274 0
1 0.631631 0
1 5.96046e-08 0
1 0.762285 0
1 0.857517 0
0.80006 1 0.19994
0 0.696585 1
1 5.96046e-08 0
0.69776 1 0.30224
0 0.736758 1
0.150241 1 0.849759
1 5.96046e-08 0
0 0.536044 1
0.166222 1 0.833778
1 0.651069 0
1 0.843923 0
1 5.96046e-08 0
0.775456 1 0.224544
0.245277 1 0.754723
1 0.502589 0
0.215343 1 0.784657
1 5.96046e-08 0
0.499638 1 0.500362
1 0.57255 0
1 5.96046e-08 0
1 0.691597 0
1 5.96046e-08 0
0 0.883526 1
1 0.772584 0
1 5.96046e-08 0
0.690888 1 0.309112
0.516853 1 0.483147
1 0.635099 0
1 0.65312 0
1 5.96046e-08 0
1 0.701148 0
1 5.96046e-08 0
0.854542 1 0.145458
0.587156 1 0.412844
1 0.0808412 0
1 0.340075 0
1 5.96046e-08 0
1 5.96046e-08 0
0.125711 1 0.874289
1 5.96046e-08 0
1 5.96046e-08 0
0.841276 1 0.158724
1 5.96046e-08 0
1 0.844035 0
1 0.400449 0
1 5.96046e-08 0
1 0.195669 0
0.626792 1 0.373208
1 0.902002 0
1 0.480184 0
0 0.30811 1
1 5.96046e-08 0
0 0.803424 1
0.61374 1 0.38626
0.310197 1 0.689803
1 5.96046e-08 0
1 0.771588 0
0 0.929118 1
1 5.96046e-08 0
1 5.96046e-08 0
1 0.987513 0
1 0.58671 0
1 5.96046e-08 0
0.829767 1 0.170233
0.629064 1 0.370936
1 0.496147 0
1 0.976787 0
1 5.96046e-08 0
1 0.990693 0
0 0.849967 1
1 0.777943 0
0.41214 1 0.58786
1 0.605584 0
1 5.96046e-08 0
1 0.690651 0
1 5.96046e-08 0
1 0.0956064 0
0.776344 1 0.223656
1 0.532082 0
0.901509 1 0.0984911
1 0.270189 0
0.808932 1 0.191068
0.912744 1 0.0872563
0.942189 1 0.0578105
0.177785 1 0.822215
1 0.321085 0
1 0.914022 0
1 5.96046e-08 0
1 0.54877 0
1 0.121496 0
0 0.670996 1
1 0.64787 0
1 0.158849 0
1 0.418938 0
1 0.225636 0
1 0.450715 0
1 5.96046e-08 0
1 5.96046e-08 0
1 0.27501 0
1 5.96046e-08 0
0 0.789942 1
0 0.963417 1
0.734638 1 0.265362
1 5.96046e-08 0
1 0.617748 0
1 0.0926681 0
0.706436 1 0.293564
1 5.96046e-08 0
1 5.96046e-08 0
1 0.336247 0
1 5.96046e-08 0
1 5.96046e-08 0
0 0.450273 1
1 5.96046e-08 0
1 5.96046e-08 0
0.799017 1 0.200983
0.912415 1 0.0875847
1 5.96046e-08 0
1 5.96046e-08 0
1 0.617388 0
0.115005 1 0.884995
1 0.861662 0
1 5.96046e-08 0
1 5.96046e-08 0
1 0.651004 0
1 0.147458 0
1 5.96046e-08 0
0.219819 1 0.780181
0.173739 1 0.826261
0.683003 1 0.316997
1 0.891677 0
0.562044 1 0.437956
0.0629637 1 0.937036
1 0.0671027 0
1 0.933553 0
1 5.96046e-08 0
1 5.96046e-08 0
0.250023 1 0.749977
1 0.399268 0
1 0.973373 0
1 5.96046e-08 0
0.674843 1 0.325157
1 5.96046e-08 0
1 0.0831438 0
1 0.740396 0
1 0.802823 0
1 0.987659 0
1 5.96046e-08 0
1 0.813316 0
1 0.832518 0
1 5.96046e-08 0
1 0.79373 0
1 0.343826 0
1 5.96046e-08 0
0.702534 1 0.297466
0.830423 1 0.169577
0.259754 1 0.740246
1 0.613709 0
0.263175 1 0.736825
1 5.96046e-08 0
1 5.96046e-08 0
1 5.96046e-08 0
0.674433 1 0.325567
1 0.172935 0
1 0.397182 0
0.546959 1 0.453041
1 5.96046e-08 0
1 0.722814 0
1 5.96046e-08 0
0.304484 1 0.695516
0 0.654826 1
0.236882 1 0.763118
1 0.476669 0
1 5.96046e-08 0
0 0.763649 1
0.849327 1 0.150673
0 0.914436 1
1 5.96046e-08 0
1 5.96046e-08 0
0 0.366507 1
1 5.96046e-08 0
0.538634 1 0.461366
0.215147 1 0.784853
0.694008 1 0.305992
1 5.96046e-08 0
0 0.8709 1
0.912307 1 0.0876932
1 0.45425 0
1 5.96046e-08 0
0.686797 1 0.313203
1 0.48983 0
0.726732 1 0.273268
1 0.984624 0
1 5.96046e-08 0
1 5.96046e-08 0
0 0.969128 1
0 0.675393 1
1 5.96046e-08 0
1 0.753317 0
0.65553 1 0.34447
1 0.857809 0
0 0.36928 1
0.190825 1 0.809175
0 0.920316 1
0 0.765122 1
1 5.96046e-08 0
1 5.96046e-08 0
1 0.885652 0
0.907612 1 0.0923879
0 0.642569 1
1 5.96046e-08 0
1 5.96046e-08 0
1 5.96046e-08 0
1 0.175181 0
1 5.96046e-08 0
0.104246 1 0.895754
1 0.856141 0
1 5.96046e-08 0
0 0.787071 1
1 0.832064 0
0 0.848136 1
1 0.861147 0
0 0.485113 1
0 0.453202 1
0.876618 1 0.123382
1 0.54811 0
0 0.194772 1
0 0.970879 1
0.599667 1 0.400333
0.749833 1 0.250167
0.00210946 1 0.997891
0 0.561469 1
0.428256 1 0.571744
1 5.96046e-08 0
0 0.462092 1
0 0.326256 1
0 0.635984 1
0.0882172 1 0.911783
0 0.838228 1
0 0.76407 1
1 0.0540925 0
0 0.958482 1
0 0.344235 1
1 5.96046e-08 0
0.722448 1 0.277552
0 0.227566 1
0 0.523958 1
1 5.96046e-08 0
0 0.490981 1
0.39394 1 0.60606
1 5.96046e-08 0
0 0.761066 1
0.00397048 1 0.996029
0 0.768951 1
1 0.329093 0
0 0.813216 1
1 5.96046e-08 0
0 0.606021 1
0 0.381122 1
0 0.643658 1
1 5.96046e-08 0
0.763859 1 0.236141
0 0.192813 1
0 0.349704 1
0.610371 1 0.389629
0 0.693188 1
0 0.325933 1
1 5.96046e-08 0
0 0.963814 1
1 5.96046e-08 0
0.460775 1 0.539225
1 0.988407 0
