# vtk DataFile Version 3.0
Particle simulation
ASCII
DATASET POLYDATA
POINTS 400 float
9.52465 1.50711 9.72966
1.6699 8.02472 8.32726
0.80071 0.86043 5.78438
2.42944 0.388172 1.89924
9.11411 1.11832 2.99271
7.16125 6.94314 5.67695
9.50727 0.186003 1.28904
7.71772 4.02889 1.06417
7.81728 8.21604 6.28397
4.83564 0.773291 6.03108
8.53015 3.56434 1.6488
5.83194 0.628539 2.99782
9.92929 5.3733 9.84421
7.93546 0.616168 1.76746
4.40327 2.30587 0.728698
8.36829 5.38807 8.74761
0.99616 6.32839 0.15504
3.07529 0.408635 1.40241
1.33994 2.72895 0.16752
2.1255 1.43177 6.26754
2.49718 0.256632 1.75715
9.34797 0.673027 6.87937
9.44078 2.63619 9.86649
2.93934 1.31914 2.0504
6.11858 5.09608 3.72116
3.64818 0.0337986 1.0982
4.68321 7.25781 6.53068
1.4198 0.0696479 1.36524
8.26552 1.06762 7.30916
5.44749 1.1667 0.131873
7.20731 8.10438 8.13819
5.75275 3.5101 8.95485
8.95684 0.650778 7.85203
4.75752 0.671484 0.143481
5.18958 0.8718 2.10842
1.42775 2.59461 0.836144
2.13517 9.62197 3.2032
3.50481 0.393845 1.81851
5.81365 0.46327 1.27589
1.17839 2.25525 3.82703
3.78287 0.296811 4.23056
9.74261 0.361389 5.81224
8.28887 4.47416 8.77088
0.127467 4.37841 9.32532
7.41754 0.854421 6.67625
5.98396 0.0967932 1.57729
4.83614 0.421252 6.4159
3.34577 0.335869 2.5622
6.69641 0.338088 1.83863
6.17384 4.00786 0.634073
0.862386 3.49896 3.06883
7.59426 9.37772 6.11
9.72457 0.648203 7.94321
4.82317 0.284204 6.19416
9.25525 0.244559 7.79424
6.67165 0.254891 2.0755
7.80805 0.776028 8.11972
0.999757 0.800504 5.45077
6.30982 0.445258 1.63898
8.4537 9.34985 0.00839895
9.60506 6.72046 5.11017
6.22076 1.30076 9.36604
1.81588 0.155759 3.61065
4.61327 0.639017 6.28061
5.78398 8.128 4.04777
2.71786 0.428044 1.93146
6.13024 0.640038 8.07187
1.04434 3.56565 2.68917
6.50236 0.580909 1.90541
4.62436 0.45377 8.81482
7.63122 0.475749 8.5387
3.48712 0.473344 1.91617
6.30936 7.19865 3.04964
4.80484 0.566503 6.09337
8.77213 0.0522066 7.57944
7.4656 0.81903 4.54414
6.18966 0.665582 8.08012
5.15287 0.666047 8.93515
7.71731 2.09208 1.32468
1.00379 8.02512 9.74078
3.47299 0.479691 1.95422
3.65037 0.878046 2.10398
4.00753 0.290314 2.98328
2.04635 0.620263 1.8172
5.27188 0.750489 9.65139
5.81854 0.908973 8.99283
6.10631 1.3511 9.27711
6.46003 2.24686 1.34082
8.90401 3.53135 1.69587
9.06205 0.252557 1.95779
3.32428 0.63705 2.16938
3.3865 0.487012 2.20347
0.897424 0.838262 7.43624
1.91631 0.479137 1.79656
5.24805 0.745677 9.48934
5.1903 0.951105 9.12094
6.40447 0.71741 8.43596
0.101512 0.625949 1.51602
8.55322 0.121605 8.26206
9.11331 0.258042 1.92147
3.71769 1.27014 1.5537
4.4817 1.41229 0.974601
0.555763 2.30004 1.34514
9.84408 0.0326727 9.89602
7.23513 7.1263 0.100873
3.36586 0.521146 1.8122
4.65838 0.499406 8.43673
6.73784 0.301517 2.31223
6.31339 0.244117 1.84616
9.20494 0.0413494 1.58004
7.57818 8.54214 9.69743
4.91397 0.338661 6.50505
2.4398 0.467881 2.61297
9.50568 0.332785 2.0494
3.60075 0.498709 1.74957
2.28844 0.224877 3.69324
5.79501 0.653148 8.71495
6.11422 0.168803 2.2754
6.29568 0.172284 1.83567
6.03825 1.20754 4.36064
3.42383 0.6371 1.94727
4.73646 8.27481 1.40664
7.04547 7.68493 8.90589
8.30879 0.560345 4.08275
8.97799 0.669853 7.89865
2.80927 0.754443 2.39331
3.21684 0.193888 1.43495
4.84697 0.79085 5.96591
9.27189 2.97241 3.88339
0.563892 2.92776 7.71858
3.23222 0.884475 2.17775
6.60523 2.58652 1.58234
4.951 0.323589 8.55828
7.19125 0.779709 6.36893
9.82082 0.0654832 1.1072
2.62067 0.152476 1.01387
8.827 9.22652 2.52817
4.8283 0.522255 6.1057
3.76974 1.8667 9.12857
9.40513 0.348656 8.24748
3.17581 0.341053 1.94105
5.14146 0.442612 8.74745
0.669071 4.04333 3.76999
6.1373 1.23988 4.4318
3.51189 0.390897 2.08338
2.01043 0.112831 1.64133
7.11201 0.764771 6.16071
0.899976 4.27854 1.00515
2.29116 0.659196 1.25222
4.1359 0.187425 0.163204
3.17735 0.355462 1.94078
8.4298 0.74511 6.94663
4.87063 1.89859 0.529675
4.72148 0.457606 8.57052
4.03196 4.27062 0.377008
5.30086 0.852088 1.67185
8.39478 0.706523 6.78411
3.77572 0.729045 1.6235
6.87303 0.644293 6.64973
2.02223 0.566938 2.05311
0.901678 2.24934 1.04416
0.844634 0.830845 5.56845
5.6319 0.753333 9.0836
3.7625 0.704594 1.83216
0.932197 3.50935 2.87049
9.49306 0.428022 8.02561
5.25106 0.840052 8.17599
5.74904 0.798727 8.62167
6.20913 4.48227 6.0235
8.3682 8.39758 8.54675
3.93824 0.854035 1.51408
3.15491 0.376786 2.02004
5.91336 0.476991 3.10873
3.11466 0.294456 1.59329
2.26817 0.204984 1.14851
1.10556 2.34055 0.312186
5.5593 0.568451 9.00081
5.06527 0.649696 8.2926
5.7013 0.853736 8.68661
4.04091 3.15431 9.21043
2.08683 0.637363 1.80924
3.05748 0.198338 2.98678
9.92631 5.32608 7.64544
3.51464 0.0305545 2.29095
5.77675 0.44198 8.73655
3.54401 0.700126 2.14181
2.60114 0.731143 1.4559
1.02587 1.04073 7.63924
7.15766 1.02398 6.159
2.09399 0.161626 1.55866
1.95435 0.601437 1.8534
2.39677 0.082749 1.25738
5.52868 0.145617 8.4191
1.97185 3.66366 4.28489
1.61767 6.56603 9.08011
2.46598 0.41026 1.43845
2.01984 0.589376 2.50594
6.80801 5.32124 8.49583
2.40939 0.104088 1.37615
3.76322 0.556995 1.55537
3.53348 0.673263 2.15004
6.38897 0.231252 1.81339
6.8925 0.67056 6.46665
4.88311 0.306085 8.31448
7.81953 3.92353 3.53332
5.66769 0.699672 8.86088
3.26242 0.453673 2.36253
0.593179 0.456058 5.50953
1.03339 0.530827 5.26906
9.09665 0.266551 2.2628
2.41649 0.386902 1.78374
5.80129 0.371933 1.9945
5.53631 0.186179 9.30023
9.00168 0.350781 8.02522
4.10747 1.06698 6.43044
5.80523 0.599761 8.90061
3.26689 0.427833 2.3932
4.05694 0.799124 1.60085
2.89543 0.181995 1.02649
9.32141 0.214254 1.87134
4.68621 1.18172 10
5.41694 0.475819 8.67023
4.58976 0.575264 8.61668
3.67888 0.672907 1.58471
5.64789 0.491769 8.56582
3.27156 0.541564 1.50489
1.42968 2.71949 0.953795
2.24204 0.110784 1.44764
2.19794 0.311609 1.57398
6.4602 0.7602 8.19502
4.85311 0.334829 5.66197
6.13514 0.827444 8.34066
7.1146 1.04899 6.32115
3.18305 0.313483 1.57466
6.26297 0.503038 8.11631
3.40884 1.22345 1.43393
6.98418 0.409378 7.35336
2.56629 0.616344 1.80842
2.70379 0.351895 1.42291
0.95529 0.447048 5.25139
2.05993 0.270662 2.64691
4.10582 0.689421 1.96693
3.50038 0.999708 2.05361
1.95644 0.496942 2.30013
6.52941 0.541078 8.59959
3.23527 0.147165 2.87505
1.82673 1.002 2.39174
3.99257 0.293591 8.32538
6.86402 0.534705 1.96518
5.37103 0.353672 8.78043
3.26301 0.443582 1.64535
3.82312 0.0393189 0.445548
5.39007 0.389036 8.53326
2.89288 0.250133 1.52275
6.82413 0.911448 6.21663
3.34417 0.373634 1.56652
9.09494 0.164993 1.55275
4.46927 0.570438 8.34838
6.05976 0.17846 2.03867
5.39436 0.298965 8.80031
2.16498 0.6865 1.58983
2.89984 8.48602 5.84374
5.08586 0.631356 8.3121
6.45811 2.28449 1.25859
6.00891 0.42024 8.5894
0.301976 4.14336 9.23679
4.41183 0.298459 1.00577
5.52552 0.692017 8.24348
7.0571 0.806821 6.59696
3.4246 0.458402 1.97407
3.23592 0.524053 2.25759
3.2656 1.46126 3.52713
5.17085 1.11643 2.04747
4.30933 0.647792 1.45433
5.12245 0.472105 8.46492
4.6383 0.604647 8.17483
4.46276 0.822523 6.29241
4.61318 9.0414 6.95337
7.11098 0.465259 7.19729
1.89296 0.588177 1.81963
8.85515 0.240378 1.96153
5.95035 0.356801 1.98156
6.83055 1.99437 1.08082
4.6213 0.397323 6.03951
5.99508 0.82837 4.15621
7.09311 0.495694 6.22571
3.61239 0.49289 1.81856
2.51515 0.940219 2.15621
9.20928 0.244828 8.06958
9.43006 6.49277 3.01631
7.85726 0.0160894 1.2022
6.67478 0.366907 1.58807
1.94431 0.408639 1.56812
4.64778 0.606436 6.16553
5.28878 0.692925 8.87814
5.76996 0.251132 8.39978
2.92772 0.819075 2.42722
3.51132 0.809468 1.71912
4.4376 0.494392 0.847231
3.4375 0.620181 1.43432
8.93965 0.356652 2.10525
9.01951 0.215355 8.072
1.86068 0.439281 4.01444
6.15798 0.343206 1.51643
3.58908 0.263859 1.2085
1.61652 0.849922 2.37526
1.74854 1.18553 1.43549
2.28843 0.443737 1.52279
2.06494 0.170953 3.75488
2.74258 0.140662 1.65644
6.47068 0.385898 7.37899
8.46951 0.682736 6.88562
7.3217 0.968648 6.40753
2.10581 0.681742 2.2412
3.41131 1.03817 2.43166
6.019 0.793366 9.26022
1.83078 0.81846 1.23637
5.38141 0.419122 1.69139
6.27358 0.306021 1.63789
3.83639 0.75021 2.04598
5.7816 0.106672 8.44822
3.42231 0.224585 1.91414
5.98037 0.35505 8.65271
2.16055 0.0905772 1.04754
9.33711 0.371685 2.12781
8.95274 0.179293 2.02458
1.94067 0.637473 2.08639
5.83517 0.467532 1.84991
9.2864 0.191651 1.60819
2.02854 0.492836 2.34182
5.77916 0.0781543 8.19284
3.31032 0.395307 2.29256
5.60009 0.466713 8.36724
3.55252 0.742158 1.75878
9.17307 0.118041 1.76676
4.37097 0.313518 7.90267
5.59927 1.24596 1.73735
2.03919 0.383643 1.53172
8.67045 0.497954 2.38657
3.91457 0.971365 2.1307
6.16836 0.655351 8.80976
4.01934 0.0519089 1.85537
5.58676 0.0953718 8.61254
4.53684 0.563164 8.3687
3.53865 0.52909 1.80341
3.39348 0.661624 1.6762
6.72918 0.202825 1.84826
2.12923 0.527039 1.45508
3.4194 0.572336 1.75329
3.32818 0.774673 2.4115
3.32053 0.486413 1.7538
3.78218 0.60991 2.23973
5.81559 0.148722 8.09177
4.43699 0.51231 8.2703
2.13529 0.654038 1.22785
1.8817 0.413344 2.0259
6.23971 0.41417 1.74285
4.78082 0.606272 9.26658
3.31974 0.67884 2.4535
3.53586 0.668847 1.69453
6.23572 0.304514 1.50971
6.24038 0.451115 8.03344
5.3445 0.599167 8.80901
2.03072 0.427811 1.37727
2.70087 0.297221 1.80521
6.83555 0.836342 6.42019
5.6571 0.579602 8.92562
4.63334 0.493522 9.14731
5.50344 0.261715 8.80561
1.91966 0.728959 2.09298
6.23602 0.376619 1.48
8.51512 0.814524 7.04294
5.53837 0.552529 8.46609
2.08166 0.658017 2.08161
3.00388 0.849008 2.13897
7.0328 0.993822 6.40352
5.22673 0.611851 8.72092
5.80058 0.572103 8.65677
5.8839 0.810439 8.97634
3.51425 0.411021 1.68651
2.41094 0.224343 1.1668
1.8823 0.585532 1.87459
5.61252 0.613112 8.9092
3.47204 0.214432 1.51465
4.89988 0.790774 6.12562
5.78146 0.759462 8.76521
3.23187 0.450805 1.96138
3.84128 0.64739 1.73851
5.00693 0.390737 5.33534
5.71601 0.385922 2.20286
2.3941 0.209371 1.16293
2.13446 0.464234 1.87829
5.73815 0.503088 8.48776
3.06046 0.114211 1.78747
4.87427 0.83192 6.20537
6.16106 0.320747 8.67486
3.32509 0.44012 2.09524
3.6471 0.717483 1.99202
8.37588 0.39709 2.13784
5.70057 0.372994 2.22689
POINT_DATA 400
SCALARS particleColor float 3
LOOKUP_TABLE default
0 0.357799 1
1 5.96046e-08 0
0 0.489636 1
0 0.325935 1
0 0.160462 1
1 0.809877 0
0.44868 1 0.55132
0 0.668096 1
0.217969 1 0.782031
0 0.386728 1
0.291305 1 0.708695
0.384019 1 0.615981
0.0405331 1 0.959467
0 0.552238 1
0 0.591203 1
0 0.633936 1
0 0.252293 1
0 0.394381 1
0.4117 1 0.5883
0.51488 1 0.48512
0 0.640702 1
0.256875 1 0.743125
0 0.985958 1
0 0.927453 1
1 0.607573 0
0 0.339325 1
0.912737 1 0.0872632
0 0.423452 1
0 0.672333 1
0 0.953109 1
0 0.905034 1
0.597368 1 0.402632
0 0.534952 1
0 0.470687 1
0.245823 1 0.754177
0 0.276146 1
1 5.96046e-08 0
0 0.338264 1
0 0.446771 1
0 0.404326 1
0 0.758143 1
0.0364459 1 0.963554
0 0.610904 1
0 0.0679748 1
0 0.478895 1
0 0.305094 1
0 0.633129 1
0 0.63372 1
0 0.520679 1
1 0.274797 0
0 0.40453 1
0 0.213285 1
0 0.522994 1
0.05706 1 0.94294
0 0.351709 1
0 0.162219 1
0 0.566603 1
0 0.795447 1
0 0.904689 1
1 0.746714 0
1 5.96046e-08 0
0 0.739192 1
0 0.927746 1
0 0.886726 1
0.0767403 1 0.92326
0 0.995265 1
0.0450994 1 0.954901
0 0.875643 1
0 0.357846 1
0 0.544745 1
0 0.812973 1
0 0.966347 1
1 5.96046e-08 0
0 0.481668 1
0 0.619079 1
0 0.394642 1
0 0.518067 1
0 0.439763 1
0 0.705689 1
0.307867 1 0.692133
0 0.699161 1
0 0.561725 1
0 0.629832 1
0 0.457618 1
0 0.335187 1
0 0.559896 1
0 0.838746 1
0.312105 1 0.687895
0 0.937376 1
0 0.738943 1
0 0.800831 1
0 0.813156 1
0 0.75568 1
0 0.375816 1
0 0.339593 1
0 0.173895 1
0 0.31368 1
0.0572603 1 0.94274
0 0.785535 1
0 0.594635 1
0 0.284505 1
0.0879495 1 0.91205
0 0.432424 1
0 0.402268 1
0.947334 1 0.0526658
0 0.146352 1
0 0.570128 1
0 0.37794 1
0 0.280902 1
0 0.654504 1
0.96641 1 0.0335899
0 0.890562 1
0 0.573049 1
0 0.483546 1
0 0.548491 1
0 0.867222 1
0 0.297734 1
0 0.588993 1
0 0.349709 1
0 0.563724 1
0 0.612035 1
1 0.240484 0
0 0.725083 1
0.0615044 1 0.938496
0.11985 1 0.880149
0 0.44222 1
0 0.723342 1
0 0.618302 1
0.999165 1 0.000835001
0.289058 1 0.710942
0 0.698657 1
0 0.83694 1
0 0.705548 1
0 0.213575 1
0.215322 1 0.784678
0 0.353455 1
0.354719 1 0.645281
0 0.593067 1
0 0.685969 1
0 0.531909 1
0 0.601866 1
0.207387 1 0.792613
1 5.96046e-08 0
0.385573 1 0.614427
0 0.781827 1
0 0.37057 1
0 0.467298 1
0 0.449853 1
0 0.6946 1
0.153999 1 0.846001
0 0.655104 1
0 0.40635 1
0 0.900648 1
0 0.331987 1
0 0.112378 1
0 0.596664 1
0.138847 1 0.861153
0 0.515517 1
0 0.547086 1
0 0.469987 1
0.140051 1 0.859949
0.00366496 1 0.996335
0 0.576293 1
0 0.703736 1
0 0.540589 1
0 0.572634 1
0 0.264257 1
0 0.549549 1
0 0.348068 1
1 5.96046e-08 0
0 0.250396 1
0.135024 1 0.864976
0.554503 1 0.445497
0 0.899858 1
0 0.941407 1
0 0.598166 1
0 0.435013 1
0 0.662752 1
0.113685 1 0.886315
0 0.779579 1
0 0.461929 1
0 0.379335 1
0 0.590247 1
0.0207729 1 0.979227
0 0.895299 1
0 0.720796 1
0 0.695888 1
0 0.430915 1
0.131454 1 0.868546
0 0.490485 1
0 0.393037 1
0 0.199311 1
0 0.853133 1
0 0.322695 1
0.661836 1 0.338164
0 0.637264 1
0 0.0807596 1
0 0.4239 1
0 0.245647 1
0.134026 1 0.865974
0 0.358787 1
0 0.536047 1
0 0.775102 1
0 0.775769 1
0.613343 1 0.386657
0 0.992041 1
0 0.412323 1
0 0.359573 1
0 0.62949 1
0 0.344098 1
0 0.168987 1
0 0.482222 1
0 0.765276 1
0 0.433327 1
0 0.546368 1
0 0.488711 1
0 0.484563 1
0 0.398977 1
0.11978 1 0.88022
0 0.753352 1
1 5.96046e-08 0
0.313488 1 0.686512
0 0.298477 1
0 0.216575 1
0 0.53823 1
0 0.391641 1
0.224761 1 0.775239
0 0.522727 1
0 0.699549 1
0.0670546 1 0.932945
0 0.885153 1
0 0.437807 1
0 0.54775 1
0 0.319853 1
0 0.783995 1
0 0.747234 1
0 0.854563 1
0 0.231514 1
0 0.466041 1
0.190906 1 0.809094
0 0.584818 1
0 0.792555 1
0 0.541243 1
0 0.609495 1
0 0.44844 1
0 0.915811 1
0.00390844 1 0.996092
0 0.759316 1
0 0.340059 1
0 0.303319 1
0 0.61558 1
0 0.571924 1
0 0.316337 1
0.021981 1 0.978019
0.0555178 1 0.944482
0 0.538797 1
0 0.903088 1
0 0.99582 1
0 0.315461 1
0 0.20893 1
0 0.226788 1
0.0198881 1 0.980112
0 0.999881 1
0 0.918301 1
0 0.591589 1
0.614033 1 0.385967
0 0.980602 1
0 0.412092 1
0 0.677909 1
0 0.587277 1
0 0.158384 1
0.629991 1 0.370009
0 0.576452 1
0.107477 1 0.892523
0 0.191615 1
0 0.848254 1
0 0.222532 1
0 0.273546 1
0 0.950881 1
0 0.336137 1
0 0.485292 1
0 0.651384 1
0.292627 1 0.707373
0 0.839101 1
0 0.818995 1
0 0.805859 1
0 0.516776 1
0 0.586233 1
0.0785005 1 0.921499
0.39307 1 0.60693
0 0.953322 1
0 0.324682 1
0 0.796591 1
0 0.642372 1
0 0.461717 1
0 0.933743 1
0 0.905041 1
0 0.762488 1
0 0.297855 1
0 0.792077 1
0 0.235578 1
0 0.114831 1
0 0.316848 1
0 0.824219 1
0 0.651309 1
0.63152 1 0.36848
0 0.225458 1
0 0.304823 1
0 0.507565 1
0 0.270607 1
0 0.803354 1
0 0.414075 1
0 0.601178 1
0 0.745227 1
0 0.609418 1
0.159216 1 0.840784
0 0.766848 1
0 0.816514 1
0 0.653963 1
0 0.794608 1
0 0.808387 1
0.334416 1 0.665584
0 0.397929 1
0 0.319322 1
0 0.679795 1
0 0.864832 1
0 0.676761 1
0 0.687121 1
0 0.586683 1
0 0.349855 1
0 0.665094 1
0 0.640186 1
0 0.676065 1
0 0.294861 1
0.00173946 1 0.998261
0 0.368057 1
0 0.170878 1
0 0.767338 1
0.348819 1 0.651181
0 0.596315 1
0 0.881474 1
0 0.452437 1
0 0.415297 1
0 0.413539 1
0 0.622501 1
0 0.350299 1
0 0.25131 1
0 0.514491 1
0 0.318356 1
0.0861313 1 0.913869
0.4902 1 0.5098
0 0.566913 1
0 0.342667 1
0 0.35907 1
0 0.573093 1
0 0.693852 1
0.122952 1 0.877048
0 0.56641 1
0 0.503268 1
0 0.899458 1
0 0.18156 1
0 0.780289 1
0 0.815261 1
0 0.875347 1
0 0.77002 1
0 0.431008 1
0 0.329559 1
0 0.423694 1
0 0.757717 1
0.0910514 1 0.908949
0 0.39121 1
0 0.632231 1
0 0.589691 1
0 0.927721 1
0 0.652064 1
0 0.328778 1
0 0.568049 1
0 0.749592 1
0 0.758292 1
0 0.754842 1
0 0.501992 1
0 0.455142 1
0 0.663842 1
0 0.581686 1
0 0.663761 1
0 0.825556 1
0 0.610667 1
0 0.42802 1
0 0.970538 1
0 0.173109 1
0 0.272161 1
0 0.387103 1
0 0.799924 1
0 0.263896 1
0 0.921252 1
0 0.730942 1
0 0.656777 1
0.0835077 1 0.916492
0 0.568487 1
0 0.289163 1
