# vtk DataFile Version 3.0
Particle simulation
ASCII
DATASET POLYDATA
POINTS 400 float
2.56796 0.403471 9.96133
0.294838 0.532268 6.97687
2.53757 1.9644 5.70812
3.44131 1.53145 9.70529
2.05984 0.0661729 3.7879
2.08509 7.22771 9.1247
4.48943 3.10041 2.7308
6.66672 3.42828 4.20383
8.41929 0.810901 0.437849
2.09671 1.71912 9.01203
1.42737 0.636916 0.652814
0 7.26566 3.61176
9.35989 2.1235 5.22075
1.82123 1.46675 2.91537
3.97078 3.14154 3.24725
6.26827 3.28753 8.80196
2.07597 5.17165 0.398375
3.46294 0.582638 1.6537
6.08083 5.58713 9.40477
7.96335 0.41727 4.83541
3.39092 0.636868 1.26171
8.86986 2.23517 6.70317
2.11351 9.27395 2.26018
0.231628 3.74587 1.22313
9.63341 1.27897 3.35216
1.07628 4.09947 8.86585
5.39372 0.370049 5.76935
0.470133 0.926209 7.0048
9.48175 3.11699 2.05724
7.37257 3.10027 5.93295
2.42454 3.52268 5.207
0.391107 6.09102 2.55577
1.40067 9.28421 6.79098
6.48912 0.316135 1.48035
7.5794 3.34096 6.48984
8.8354 3.18917 0.281364
7.64052 0.24809 8.06717
3.62081 0.296978 1.27978
6.746 1.8488 1.05986
1.2363 0.477568 8.52432
9.44707 0.380831 5.20218
7.86601 3.26408 7.98695
3.24558 3.61264 3.3917
7.40819 5.81354 0.879602
8.92864 0.755005 4.52597
5.64812 0.540782 1.53926
3.48788 2.87784 8.00957
6.61859 3.36109 7.28573
5.40106 0.583727 1.24757
6.73638 3.11327 4.31516
4.01622 3.00616 3.95069
9.39645 6.11115 1.74459
8.03609 0.11415 7.40565
3.98161 0.23542 7.66596
6.3962 1.57365 8.89271
5.92684 0.717808 1.33935
8.60715 2.58337 6.98838
1.36482 1.46659 8.0976
6.18784 1.68973 0.0784656
4.1385 6.96632 2.69589
3.90858 4.88532 3.50655
3.24592 7.03375 8.4992
10 3.12987 8.34432
1.62661 0.658152 9.79468
1.95596 8.27527 2.74328
0.650472 1.59411 9.61208
2.45017 1.32259 8.22728
4.57194 5.41535 0.216461
6.32994 1.56186 0
5.39196 0.296683 7.80609
9.14646 0.0591762 4.69183
2.9742 0.121799 2.34128
5.19811 4.46029 7.1859
1.64601 0.375588 9.5763
0.325011 0.467831 7.20742
9.28934 3.15074 0.172263
3.88294 0.703181 8.48671
6.25953 0.325368 8.10763
4.26847 4.53335 0.157447
8.79743 0.537871 9.28464
3.21147 0.710259 1.20754
3.97763 0.528632 3.14973
0.756998 1.83215 4.21458
2.78879 0.46613 1.31309
0.534865 0.244765 9.57996
3.64447 0.507315 8.40767
4.27466 3.52131 2.19096
1.9899 0.867765 6.65128
1.47795 9.13907 0.580904
7.15683 0.450874 0.410764
3.69253 0.258719 0.755827
2.2272 0.653592 0.958627
1.26649 0.303481 8.52115
3.53112 0.288723 3.9277
1.84663 0.797945 9.87228
4.1273 1.86413 7.32773
7.18715 3.80528 5.04107
4.74405 6.93173 4.15866
2.4066 2.28966 6.15182
7.18989 0.287422 0.568523
3.41181 0.60469 1.67615
6.48484 0.660492 2.33455
3.43489 0.597873 4.03589
6.4499 1.61562 5.10739
1.28432 5.30164 9.36161
0.939056 0.187972 0.361094
9.68154 1.4851 9.20967
5.67766 0.46083 0.929899
6.37091 0.305153 1.21268
8.51591 2.51465 1.6811
7.18652 8.61846 3.53061
2.30675 0.416202 8.64415
6.9069 4.19467 0.401591
4.83153 0.555399 0.473676
3.17032 0.184863 1.37379
1.04055 0.171672 1.52892
5.28422 0.100533 8.10767
8.33864 0.762629 2.55365
7.8115 0.923904 2.19296
2.90562 5.03913 8.60733
3.37371 0.448578 1.20515
5.62486 5.63506 2.881
7.61955 3.89007 3.72024
1.96238 4.82027 9.48486
6.38446 1.77448 9.04732
2.84952 0.737041 1.59854
9.82345 2.89743 8.01113
1.48258 0.535391 9.59929
0.709182 0.337543 9.48976
1.48795 2.62788 9.6878
4.34237 0.288769 2.44969
0.993291 1.28363 7.87245
9.03933 2.70217 8.18171
5.24823 0.797199 9.44095
2.03482 7.10969 9.84819
1.33444 0.431712 0.282277
6.86062 9.87114 7.42195
1.48688 0.590348 9.72206
4.46894 4.90827 8.07559
5.90248 0.454101 8.30034
3.4766 0.475824 0.969243
1.69861 5.07677 10
1.79893 4.03947 9.63714
6.31565 1.93912 8.8713
3.68859 0.812961 1.41542
3.95059 0.603147 2.93581
9.02541 0.58992 4.81035
0.0564248 0.881744 0.374882
2.76886 0.162175 2.15021
2.83507 3.8354 3.8844
3.50782 0.522844 0.900222
8.28651 1.73641 6.7383
0.586227 1.46397 9.66267
6.2901 3.20084 7.17791
7.25307 9.42321 2.66037
5.52283 0.441632 0.88607
9.44115 0.988926 4.70753
3.88746 0.171657 1.08811
9.28612 0.874169 1.61541
2.857 2.07695 0.0578986
5.83678 1.05627 2.67992
2.71942 1.89828 5.81037
5.27636 0.504141 9.33758
2.88173 0.0358661 0.0693055
8.09827 1.34359 3.38267
8.95954 1.55822 8.81649
5.05208 0.622417 9.78558
5.57767 0.437215 8.45558
9.72147 2.6952 8.28786
6.86757 0.50426 0.739688
3.36829 0.612093 1.13526
2.73454 0 2.34134
5.77829 2.47352 2.55659
0.285448 0.0266999 0.620919
3.40963 0.548154 4.22025
8.6088 3.29184 0.495287
3.57436 0.877774 8.72743
3.46481 0.723744 8.45664
4.92895 0.931475 7.08789
0.934773 4.64528 1.05861
3.22264 0.383372 1.43191
1.93266 5.56085 8.29697
3.84224 3.39455 2.54488
3.0848 0.702082 1.31575
5.2463 0.71531 8.61171
4.03012 0.0624452 0.326586
3.07455 0.464963 1.1896
1.69668 1.41536 0.404247
9.0337 0.271464 4.77708
3.59136 0.205875 1.26601
3.64597 0.343711 1.45661
3.5395 0.410467 1.66608
8.39185 1.14136 2.63153
0.319463 0.548107 1.04486
9.20844 1.26911 5.4873
3.03935 0.278003 1.33881
3.47283 0.65783 4.40988
0.26485 3.24067 9.60393
3.35215 0.507805 1.65836
3.07186 0.813787 1.75311
3.4035 0.447345 0.616788
5.28945 0.682795 1.18666
8.82195 0.0958888 5.2734
3.47937 0.41662 8.64339
5.8731 7.38455 8.26962
5.66158 0.191086 8.46892
3.58043 0.126907 1.51025
2.10649 3.17566 9.62902
0.549837 0.0691465 6.29902
7.17658 0.255352 0.556776
2.85037 0.323851 1.76024
4.91942 0.4755 0.726574
9.53418 2.18387 6.0577
5.82465 1.58632 8.76733
2.94808 0.794678 8.17067
5.52071 0.26212 8.20615
3.63549 0.520678 1.45203
3.51336 0.302336 1.84646
2.9107 2.46835 10
7.09157 0.187273 0.798622
4.26631 2.55995 1.43138
9.49366 1.17056 9.35037
5.90056 0.59147 8.9441
3.80768 0.271994 1.23131
5.37432 0.0913725 9.31524
3.90009 0.10638 1.00909
8.92128 9.50971 0.138822
3.61872 0.41604 1.75344
3.59163 0.696142 0.969053
8.1828 0.151235 7.56173
3.01265 1.92401 6.21364
5.36942 0.293764 9.30225
8.84032 0.582549 4.59667
3.36292 0.440421 1.89985
5.59098 0.0116903 8.05183
0.548586 1.23605 4.46982
2.45739 1.36236 8.5555
4.00131 0.560604 4.42815
3.27659 0.154119 1.75755
2.28169 0.312935 6.80453
3.3375 0.759355 1.27866
3.45204 0.0717682 0.776467
3.56257 0.347862 1.57863
3.06807 0.637871 1.27488
5.41489 0.0725312 8.18834
0.711837 0.378158 0.571732
1.51246 2.40428 2.53512
5.29416 1.82523 8.53479
5.03649 0.822459 1.33372
5.51944 0.210063 8.26715
3.46987 0.615131 1.03224
8.34957 5.13743 5.67154
5.29925 0.356984 8.67583
4.07405 0.358722 4.30665
8.49776 0.360152 4.43971
3.6854 0.566724 1.07359
8.32774 0.240608 1.15562
5.89204 0.337934 9.08081
5.48331 0.141459 1.90084
5.37107 0.598663 8.51558
3.08944 0.343365 1.12099
8.09703 0.75469 3.14149
3.59858 0.644858 8.74832
1.73465 7.28929 5.94762
5.50582 0.54922 8.10878
7.97898 1.21867 0
2.13317 0.315336 1.45695
6.00802 0.23581 7.95568
9.02924 0.247611 4.91517
3.30792 0.192915 1.88461
3.42447 0.16348 1.63306
2.70015 0.350086 1.55367
6.66772 1.37236 2.12058
3.26488 0.453178 3.991
5.11141 0.243415 7.80788
5.8187 0.320558 8.45598
2.94274 2.76426 9.75693
5.83063 9.9193 0.347238
0.440036 0.244326 6.49241
3.6502 0.49624 1.33459
7.28188 0.444608 0.838307
5.50053 0.691704 1.09262
1.45744 1.1187 0.974989
2.168 0.360826 8.47481
9.43083 5.03809 7.88874
8.53608 0.269121 4.95848
3.30816 0.562576 1.43789
4.13724 0.747657 3.09495
4.94571 0.386387 7.98348
2.07636 5.07196 8.91359
9.14301 0.251494 0.866222
5.82787 1.00606 0.925875
3.62146 0.669304 1.47684
1.55287 0.673997 9.59062
5.24825 0.141066 8.46334
5.55764 0.160939 8.2239
3.58845 0.576407 0.926506
3.72676 0.609868 1.53321
3.71337 0.797015 2.82574
3.81443 0.543075 1.16739
7.5238 0.501219 0.197628
6.28074 1.86713 9.21052
2.34143 2.94703 9.7879
3.65362 0.414685 5.83496
3.35109 0.347025 1.11564
0.14361 0.695674 6.58865
3.0035 0.113885 2.07831
3.38484 0.406288 1.04051
2.15572 1.65744 9.26717
3.72947 0.336296 4.45954
5.6696 0.0907767 8.65792
8.31955 1.85487 6.83109
9.01465 0.588795 4.40671
3.77411 0.530795 0.848385
4.25993 0.402564 3.08845
1.42666 0.552221 8.20963
2.96062 0.259769 1.58096
5.48381 0.18497 1.94985
4.86616 0.282163 0.900199
3.1369 0.063652 2.18899
5.52615 0.640792 8.63472
0.992294 1.66356 4.01678
5.29355 0.407066 8.58446
3.13968 0.524915 1.57381
7.00807 0.275995 0.705436
7.15068 0.319036 0.496129
3.20789 0.412749 1.51439
5.19576 0.586525 1.32122
5.74154 0.863415 0.347846
3.81857 0.572026 0.833359
8.9667 1.94052 8.99287
3.577 0.514938 1.83109
5.69603 0.34937 8.08686
3.56478 0.525457 1.54113
5.32327 0.525101 1.35124
9.43439 4.71388 7.56405
6.07719 0.427277 1.43677
3.66455 0.274591 1.20257
8.01952 1.65117 0.152088
3.38768 0.56186 4.32917
5.82627 0.15426 8.77493
3.80563 0.534485 4.33953
5.14534 0.0954039 7.84243
4.96649 0.129164 7.89875
3.20895 0.295512 1.39071
3.14167 0.439499 1.73611
5.27278 0.612542 1.15488
3.67054 0.207527 1.0712
3.24451 0.313162 1.93089
3.82254 0.518906 4.1442
4.02517 0.158953 1.58436
3.32456 0.618709 1.31176
5.33672 0.692851 8.65307
5.20646 0.449361 8.38778
2.91934 0.118222 1.56343
3.32636 0.213674 1.19905
5.50183 0.483558 0.925936
5.61674 0 7.86448
3.0651 0.488883 1.30115
2.99544 0.370618 1.53421
5.81268 0.552159 1.21659
5.43337 0.310498 8.19074
5.74447 0.485159 8.34297
3.32455 0.422931 1.37197
2.2406 0.679617 1.29183
8.74772 0.55172 4.45452
5.8653 0.210742 8.50467
5.64536 0.412039 8.90966
5.9277 0.500249 8.4904
2.37265 0.846912 1.69877
5.85742 0.488252 1.23493
8.37094 1.83062 6.77664
5.72132 0.176704 8.19588
3.63344 0.278627 0.60603
3.19338 0.293019 0.937794
8.85466 0.410018 4.42037
5.52529 0.382102 7.98332
5.51051 0.08471 8.67206
5.29053 0.515447 8.68681
3.4847 0.482057 1.71734
3.31511 0.347676 1.09751
3.24741 0.325092 1.24143
5.11013 0.713908 8.99192
3.52614 0.737655 1.51508
1.35071 0.695137 9.52432
5.41153 0.294817 8.15574
3.10581 0.388809 1.51832
3.28094 0.746174 1.30365
9.08993 0.606441 1.21623
5.73692 0.830745 1.37631
3.42029 0.38957 1.09781
3.5685 0.315427 1.21124
5.12909 0.0490646 8.40265
3.35441 0.456886 1.76821
1.69818 0.507262 9.57697
5.33119 0.240564 8.31406
3.1718 0.420176 1.47709
3.86839 0.571996 4.41254
7.22817 0.080532 0.633044
5.71766 0.806605 1.34462
POINT_DATA 400
SCALARS particleColor float 3
LOOKUP_TABLE default
0 0.817422 1
1 5.96046e-08 0
0.202991 1 0.797009
1 5.96046e-08 0
1 5.96046e-08 0
1 0.939807 0
0.767091 1 0.232909
0 0.828428 1
0 0.819635 1
0 0.245344 1
0.702309 1 0.297691
1 5.96046e-08 0
0 0.941382 1
0 0.34039 1
1 5.96046e-08 0
0 0.546861 1
0 0.475427 1
0 0.300129 1
0 0.851672 1
0 0.752994 1
0 0.324261 1
0.400522 1 0.599478
1 5.96046e-08 0
0 0.263414 1
0.437697 1 0.562303
0 0.874239 1
1 5.96046e-08 0
0.403222 1 0.596778
1 0.919755 0
0.135171 1 0.864829
0 0.686028 1
0.0151789 1 0.984821
0.353609 1 0.646391
0.348345 1 0.651655
0.191828 1 0.808172
0 0.727596 1
0.350822 1 0.649178
0 0.72072 1
0.539821 1 0.460179
0 0.471218 1
0.481657 1 0.518343
0 0.386589 1
1 0.623464 0
1 5.96046e-08 0
0 0.895007 1
0 0.26621 1
0.614405 1 0.385595
0.89311 1 0.10689
0 0.500219 1
0 0.922248 1
0.104888 1 0.895112
1 5.96046e-08 0
0.294172 1 0.705828
0 0.513358 1
0 0.407093 1
0 0.629487 1
0.31869 1 0.68131
0 0.806506 1
0 0.687289 1
0.70277 1 0.29723
0.174702 1 0.825298
1 5.96046e-08 0
0.820981 1 0.179019
0 0.870088 1
0 0.880283 1
0.0915751 1 0.908425
0.0990253 1 0.900975
0 0.620181 1
0 0.494023 1
0 0.454284 1
0 0.922924 1
0 0.280254 1
0.166024 1 0.833975
0 0.419342 1
0.297427 1 0.702573
1 0.322218 0
0 0.791948 1
0 0.716632 1
1 0.834955 0
0.603943 1 0.396057
0 0.464164 1
0 0.707603 1
0 0.797164 1
0 0.332656 1
0.153304 1 0.846696
0.00246989 1 0.99753
0.278533 1 0.721467
0.528562 1 0.471438
0.266466 1 0.733534
0 0.599093 1
0 0.312744 1
0 0.323126 1
0 0.283522 1
0 0.748134 1
0 0.770532 1
0.325016 1 0.674984
0.800913 1 0.199087
0 0.958475 1
1 0.0150811 0
0 0.483902 1
0 0.273596 1
0.326531 1 0.673469
0 0.692506 1
0.659807 1 0.340193
0.217436 1 0.782564
0 0.740235 1
0 0.451319 1
0 0.647952 1
0 0.412466 1
1 5.96046e-08 0
0 0.815898 1
0 0.494247 1
0 0.626898 1
0 0.742504 1
0 0.680689 1
1 5.96046e-08 0
0 0.5809 1
0 0.236838 1
0.501414 1 0.498586
1 5.96046e-08 0
0 0.849119 1
1 0.984123 0
0 0.849314 1
0.505507 1 0.494493
0 0.175009 1
0 0.503983 1
0.4359 1 0.5641
0 0.915554 1
0 0.978043 1
1 0.319479 0
0 0.205692 1
0.834003 1 0.165997
0.866045 1 0.133955
0.570121 1 0.429879
0.22778 1 0.77222
0 0.654908 1
1 0.543726 0
0 0.44997 1
0.820925 1 0.179075
0 0.324938 1
0 0.641652 1
0.0221316 1 0.977868
1 0.968473 0
0 0.507949 1
0 0.500585 1
0 0.492586 1
0 0.436652 1
0 0.78985 1
0 0.45049 1
1 0.449538 0
0 0.803954 1
0 0.414638 1
0.203023 1 0.796977
1 0.780807 0
1 0.425546 0
0 0.572757 1
0 0.702127 1
0 0.666013 1
1 0.92389 0
0 0.575791 1
0.348752 1 0.651248
0 0.688185 1
0 0.551743 1
0 0.372956 1
1 0.937072 0
0 0.933758 1
0 0.543491 1
0 0.792738 1
1 0.636444 0
1 0.697634 0
0 0.698403 1
0.0881392 1 0.911861
0 0.50472 1
0 0.96209 1
0 0.689755 1
0.0764053 1 0.923595
0 0.83066 1
0 0.899234 1
0 0.772204 1
0.0399338 1 0.960066
0 0.613876 1
1 5.96046e-08 0
0 0.816787 1
0 0.903022 1
0 0.543575 1
0 0.687727 1
0 0.666527 1
1 5.96046e-08 0
0 0.858245 1
0 0.218617 1
0 0.44853 1
0 0.286343 1
1 5.96046e-08 0
0 0.915772 1
1 5.96046e-08 0
0 0.669231 1
0 0.795165 1
1 5.96046e-08 0
0 0.525544 1
0 0.660955 1
0 0.355668 1
0 0.611595 1
0 0.720563 1
0 0.647495 1
1 5.96046e-08 0
0 0.508262 1
0 0.758821 1
0 0.887551 1
0 0.703866 1
0 0.581818 1
0 0.416951 1
0 0.580087 1
0.346986 1 0.653014
0 0.940467 1
0.272534 1 0.727466
0 0.66855 1
0 0.762927 1
0 0.731181 1
0 0.968106 1
0.0633593 1 0.936641
1 0.989644 0
0 0.824968 1
0 0.330626 1
0 0.577433 1
0 0.720864 1
0 0.195384 1
0.641457 1 0.358543
0 0.307525 1
0 0.325808 1
0.163208 1 0.836792
0 0.498795 1
0 0.672904 1
0 0.764297 1
0 0.639991 1
0 0.919881 1
0 0.604105 1
0 0.306995 1
0 0.836507 1
0 0.503576 1
0.520634 1 0.479366
0 0.627786 1
0 0.52714 1
0.0636098 1 0.93639
0 0.867352 1
0 0.591198 1
0 0.61079 1
0.176552 1 0.823448
0.0477777 1 0.952222
0.236669 1 0.763331
0.124018 1 0.875982
0 0.368703 1
0 0.870206 1
0 0.257989 1
0 0.974007 1
0 0.234984 1
0 0.496559 1
0.177148 1 0.822852
0 0.542319 1
0 0.586708 1
0 0.581156 1
0 0.41706 1
0 0.782394 1
0 0.684371 1
1 5.96046e-08 0
0 0.596927 1
1 5.96046e-08 0
0 0.659304 1
0 0.457109 1
0 0.148072 1
0.0798436 1 0.920156
0 0.912456 1
0.785062 1 0.214938
0 0.69532 1
0 0.520784 1
0 0.795992 1
0 0.748827 1
0 0.959066 1
1 5.96046e-08 0
0.427797 1 0.572204
0 0.373361 1
0 0.495934 1
0 0.594158 1
1 0.5432 0
0 0.603205 1
0 0.554644 1
0 0.591383 1
0 0.668567 1
0 0.787594 1
0 0.903661 1
0 0.817167 1
0 0.264503 1
0 0.704188 1
0 0.985536 1
0 0.32051 1
0 0.529351 1
0 0.775058 1
0 0.664837 1
0 0.602796 1
0 0.147577 1
0 0.404715 1
0 0.681345 1
0 0.524348 1
0 0.947004 1
0 0.883433 1
0 0.870979 1
0.556743 1 0.443257
0.263678 1 0.736322
0 0.728344 1
0 0.51659 1
0 0.969034 1
0 0.65277 1
0.025421 1 0.974579
0 0.626657 1
0 0.688389 1
0.0816513 1 0.918349
0.386598 1 0.613402
0.385089 1 0.614911
0 0.773061 1
0 0.787905 1
0 0.780712 1
0 0.152355 1
0 0.519035 1
0 0.794883 1
0.00505131 1 0.994949
0 0.442061 1
0 0.479414 1
0 0.808025 1
0 0.433522 1
0 0.376186 1
0 0.763955 1
0 0.434204 1
0 0.596654 1
0 0.848232 1
0 0.888142 1
0 0.891699 1
0 0.534643 1
0 0.951966 1
0 0.243354 1
0 0.648046 1
0 0.733877 1
0 0.603824 1
0 0.822782 1
0 0.700799 1
0 0.469896 1
0 0.517372 1
0 0.361351 1
0 0.270613 1
0 0.240832 1
0 0.44281 1
0 0.648182 1
0 0.793595 1
0 0.729602 1
0.359577 1 0.640423
0 0.891686 1
0 0.849803 1
0 0.675197 1
0 0.322326 1
0 0.684582 1
0 0.896795 1
0 0.273787 1
0 0.159993 1
0 0.628505 1
0 0.522241 1
0 0.345036 1
0 0.623254 1
0 0.704968 1
0 0.662802 1
0.487856 1 0.512144
0 0.561832 1
0 0.309388 1
0 0.0367092 1
0 0.148367 1
0 0.690969 1
0 0.806088 1
0 0.705652 1
0 0.210156 1
0 0.578929 1
0 0.964719 1
0 0.261463 1
0 0.496785 1
0 0.903457 1
0 0.563269 1
0 0.42077 1
0 0.632142 1
0 0.738197 1
0 0.617129 1
0 0.696296 1
0 0.637858 1
1 5.96046e-08 0
0 0.570621 1
0 0.91345 1
0 0.41026 1
0 0.756032 1
0 0.378552 1
0 0.53619 1
0 0.255432 1
0 0.780352 1
0 0.187116 1
0 0.578305 1
0 0.544792 1
