# vtk DataFile Version 3.0
Particle simulation
ASCII
DATASET POLYDATA
POINTS 400 float
9.54523 9.49635 1.50935
5.20816 2.03974 0.531974
9.35219 6.22303 5.74841
3.32296 8.93433 5.02701
0.516509 5.06978 3.81454
1.9334 5.07988 8.46404
7.98525 9.68824 1.84069
10 4.72205 4.37739
3.14706 5.92971 4.95169
6.82492 5.30723 2.04099
8.8658 1.18316 5.60684
6.18961 5.64349 1.47714
5.25622 4.09459 2.53308
1.38282 4.97509 2.38728
4.06552 4.62445 5.85029
4.14226 3.96894 1.48003
2.71849 8.57351 1.11993
3.29575 5.07801 6.06466
9.39792 7.21333 4.88559
7.89841 4.48922 0.0259471
5.77843 5.38445 5.63515
8.86437 7.03888 6.35212
9.05943 5.71807 0.444838
3.83503 3.24331 4.53009
7.89175 8.35689 2.81158
5.77627 4.9122 5.98305
2.97553 8.54822 7.93222
1.89225 7.72334 4.82349
2.75243 5.92199 4.06158
3.25498 7.82389 7.74266
5.23052 2.49348 9.08993
1.23861 9.55949 4.16811
2.16179 9.32878 2.88544
6.93529 8.70952 8.82846
2.54679 8.74294 9.42617
6.18049 7.30017 9.58963
3.96602 8.80791 1.38228
8.81141 1.11284 5.99266
5.7585 1.32525 8.08066
1.00674 10 6.26288
4.76823 4.93476 4.8717
1.38474 1.81727 8.67098
7.12199 3.35388 3.00801
7.18552 9.93494 9.71995
4.54562 7.36721 6.87692
8.05059 2.07891 6.43929
6.95909 9.38062 9.4376
5.06843 7.66385 0.584882
3.15663 8.57935 0.258079
9.02472 6.71195 6.85882
2.90261 7.86782 0
2.8971 1.39618 2.82142
2.23061 4.13643 7.17739
1.22166 0.465337 10
5.92235 5.06265 3.2485
9.50275 6.64262 8.54882
7.24634 1.51123 4.92894
4.11631 8.06977 8.19792
1.42412 2.81599 3.13553
5.94655 0.726272 6.34379
0.468343 8.75602 6.64058
5.37356 7.30292 8.96471
6.39342 9.84211 2.08471
9.0508 4.51587 3.1916
2.27413 9.51391 7.26848
3.14828 5.20653 0.356235
1.94308 4.8641 1.592
2.70948 4.3161 2.82165
2.55735 1.17956 1.55772
7.60516 3.29436 3.93957
8.81235 3.52414 7.02566
1.05524 5.27593 1.23661
3.38565 5.34101 6.81228
0.619385 2.10872 0.699251
2.16237 2.72164 6.6584
4.66575 1.76316 8.35558
5.49629 0.859847 9.6336
3.68737 7.94427 8.04807
0.512555 5.0279 3.11736
9.25718 5.3903 9.81545
0.679107 2.09828 4.12021
6.66594 9.23718 1.09177
8.08836 0.397403 6.22964
5.50963 7.09894 7.71477
1.54313 1.72201 4.40476
9.79184 1.26327 0.380894
4.99885 0.548325 1.3226
0.343554 9.1598 0.0075472
2.88377 1.83722 0.607908
6.77309 3.53518 8.33944
7.03063 6.00591 8.28586
8.09445 1.40143 4.55208
2.20482 9.96287 4.50621
2.88246 8.33134 0.753167
9.19673 4.42579 7.47294
7.2064 4.54266 1.1943
5.21818 0.918286 0.892199
1.50609 1.75821 2.18732
8.76654 2.6193 5.10867
7.3761 2.16445 1.31652
8.00242 7.0009 7.6595
7.3494 7.96822 6.97146
4.35235 6.17667 4.66425
8.41123 6.4583 2.64721
2.42998 0.959962 5.78091
9.07336 6.12653 0.620781
7.12566 9.47402 5.92247
5.49784 0.532537 9.93225
6.0921 3.73463 2.08123
0.353134 9.51 0
4.78315 6.88092 0.599883
6.18071 8.66197 4.63318
3.96549 10 6.4759
3.85329 1.55795 8.65546
9.67337 2.08342 5.29972
10 5.95307 5.19971
3.89034 8.58313 1.09208
1.13501 7.00083 0.021594
9.59764 3.36396 1.36894
5.81647 2.24999 5.41121
5.80168 8.01948 2.32376
9.85695 3.59144 6.54175
7.99525 0.46005 9.70971
5.38082 1.56967 9.32444
9.48147 3.7529 3.21829
2.18235 1.93066 9.63404
1.08443 1.81421 8.76448
2.97802 8.95088 6.31764
3.96428 3.17649 7.27925
0.250557 0 9.17361
2.12661 9.12505 5.69057
3.76501 7.95273 9.70263
1.32513 3.09377 6.04224
2.66852 1.37318 1.67324
9.133 1.85212 0.446631
9.17038 2.49637 8.43428
3.20651 4.05363 2.17151
9.8895 1.66205 8.1434
9.04202 4.38129 2.25556
10 10 7.60355
1.00702 3.19714 5.61414
9.86006 5.58147 5.58801
8.53963 8.90756 6.15791
4.21858 8.63978 8.23675
0 2.42726 8.16477
5.33915 7.76275 3.55693
2.55296 2.33917 4.84301
9.83381 4.30816 4.02273
8.75178 1.42164 9.11846
2.41659 6.38137 10
7.20698 0.384578 7.62485
7.97111 6.28733 5.21599
8.48983 2.69982 3.09964
0.0446047 8.78953 1.63247
2.85434 1.58842 7.49753
4.419 3.03635 2.28276
0.370271 2.87469 2.49275
6.52498 0 6.4245
2.50265 9.89201 1.58587
2.60959 9.43785 2.44964
2.31814 0.878882 9.74571
9.69283 1.63838 7.96395
2.00653 5.37055 4.05487
3.37899 7.50493 7.25382
1.46704 0.226456 1.7487
2.65667 0.497314 7.72822
5.37802 5.42767 4.18091
5.05531 3.3147 2.77968
6.82223 5.53155 2.10378
3.42221 7.43932 4.87206
6.9457 5.10929 3.70094
8.12508 4.70922 10
2.70171 0.287189 4.17549
1.68518 6.50373 1.223
4.05576 6.51134 6.33118
7.3185 9.79076 1.78747
7.21773 4.95163 9.15814
2.71943 2.5789 2.80732
9.41075 6.74781 0
0.613059 2.24854 0.758688
7.96241 1.89825 7.90251
7.88498 3.4279 8.68177
3.10369 2.78233 5.05973
8.06469 5.01474 2.19123
0.44744 9.40212 1.67891
3.79695 1.31491 9.87838
0.383107 3.40165 1.83168
9.11139 2.00613 4.17621
9.72577 6.54044 4.86236
9.42027 2.62057 2.76521
0.163763 9.09462 10
6.99605 2.43235 4.59244
5.55566 5.26613 6.2476
6.16899 6.43375 0.193797
9.6217 3.46449 7.21646
1.87684 4.36296 8.56556
1.48429 9.21623 7.57252
7.39422 4.40475 1.08634
2.14696 0.82226 8.38403
2.68835 4.243 2.44599
4.8569 6.16971 9.34445
4.75848 9.14191 9.26815
9.77319 4.38826 2.60742
10 5.34953 2.67176
3.23414 5.09003 7.17697
2.43862 7.31457 2.2878
5.89363 0.546128 5.80595
9.63541 7.01683 4.80369
9.99987 7.87296 1.01292
7.3808 1.48909 9.2145
4.45141 3.20158 9.32424
3.44375 7.32872 7.75985
7.76471 7.27035 9.09307
8.5492 8.7849 10
0.700071 3.52381 5.1636
4.21959 1.80924 6.05516
9.65507 4.38883 2.56702
3.82787 2.54472 0.201217
7.48482 2.14912 9.34302
2.93114 0.219946 4.29933
5.67871 9.6412 1.8907
6.16655 1.90894 10
5.91677 4.01983 3.03079
9.43885 9.89647 3.07665
6.07819 6.48577 7.84695
6.03374 10 3.76802
0.576314 4.2821 3.30161
6.26927 0.512972 1.81459
7.03995 0.647549 7.75095
7.98404 7.45784 6.28824
9.29175 3.60108 8.58539
6.68696 6.52678 6.02779
5.72177 5.45829 3.48665
5.74838 6.53012 5.48393
8.59476 3.15018 4.18165
7.87987 7.78681 4.42734
1.73953 1.45699 8.87667
9.02335 6.43205 7.79724
8.36716 2.58365 8.83796
7.56226 3.34356 6.75165
7.10375 0.374192 7.59679
5.0228 3.11534 10
3.59575 9.51635 5.43726
7.66012 7.70349 6.58618
6.06347 5.84055 0.217508
1.36216 0.239496 6.48001
1.14098 2.60801 6.91185
8.91067 4.50437 7.74383
0.496061 3.32892 5.89175
4.89617 2.69287 4.08657
0.460547 0 3.94905
2.29563 1.46217 8.84297
4.26013 6.21814 4.68324
9.51811 9.36815 8.62059
0.723779 1.10835 8.97834
4.74473 7.34223 7.0567
4.09533 1.69691 1.97052
6.73696 1.70725 3.98343
3.39415 5.09736 3.4198
9.97797 1.02694 9.54495
8.92196 5.12032 6.45901
9.42942 5.22561 6.826
0 4.01104 7.58476
7.17213 4.44785 5.12192
4.60348 6.93226 0.568202
1.75366 1.17052 4.90964
6.84345 2.52576 7.95566
3.10974 2.62808 5.44001
0.581012 6.43907 5.52395
6.94016 5.02385 1.25171
3.0415 1.42031 3.84467
0.909655 8.28852 2.01626
7.30642 6.0019 4.16422
6.12773 3.44351 3.0256
7.69517 5.56974 1.63021
9.0629 2.744 4.73314
6.73394 8.46218 3.95237
3.68604 8.1719 3.07691
1.8921 2.04148 9.80635
8.50886 0.325192 4.69403
4.61588 2.83857 7.11287
5.43531 0.387019 3.3547
8.82727 3.13032 6.32081
7.09743 1.1911 7.84184
0.636338 1.3631 9.00585
6.29655 1.05484 9.8372
3.88886 1.97336 4.95895
1.16038 1.87911 2.55158
6.89478 0.679929 4.15783
0.576533 5.61271 6.27503
7.64482 8.13048 2.63803
4.24497 7.08591 6.17403
0.211548 6.03775 4.33074
3.87001 8.88549 8.32537
4.26892 1.91668 0.275775
7.28671 4.35183 3.5114
3.33041 0.489511 9.32244
0.182078 1.63644 0.349418
7.36057 0.44974 7.45996
1.31618 0.500996 3.65056
9.87626 1.88854 4.37475
7.59626 9.15314 7.47259
7.51133 0.076505 7.17987
1.73021 4.25246 4.57234
6.78467 0.802882 7.84281
3.58957 5.63362 3.09044
10 7.14876 9.7834
6.81606 0.494199 8.05403
7.39672 8.74606 7.27273
3.88892 0.96741 7.94069
2.96312 8.09994 5.13173
4.0914 3.27431 9.34737
2.38921 6.79055 8.04861
7.30466 0.887703 7.42339
6.68083 4.69076 2.06764
6.70749 1.03442 0.969623
2.34038 7.50849 10
7.08291 0.0640408 6.80954
5.19444 7.68499 8.29373
3.32195 3.84327 2.42803
4.00671 9.35598 1.03874
7.00196 9.70891 0
0.509404 5.13856 6.84712
9.192 0.0786692 4.53779
6.93507 0.80802 7.93479
7.06107 1.73397 0.0700712
4.83664 7.55204 6.26865
0.813574 8.06798 5.93901
7.0885 3.20398 8.14334
7.18722 0.3248 7.46456
4.05215 1.87714 8.63337
1.37284 0.639264 3.84573
9.41016 3.38551 7.51146
5.58831 9.09474 6.3812
7.70231 8.57555 4.32147
5.98985 3.068 8.92693
6.10395 2.15032 10
7.07168 0.881149 7.74525
4.04882 8.52166 3.88331
1.04181 9.25086 2.92821
7.88439 9.92245 7.62033
2.34316 8.91701 3.05617
4.75949 7.67653 4.00014
2.68316 0.722515 9.05726
0.97229 6.73662 1.16064
5.98423 3.85257 2.99858
2.19173 1.06712 3.10821
6.21069 0.777952 1.56215
7.31891 0.898641 7.84244
4.88251 10 4.0723
7.28036 0.942857 6.95565
6.96283 0.523123 7.81706
4.06511 8.47831 6.44987
1.05249 2.53675 6.78444
8.76667 1.94719 0.696983
6.78709 0.441383 7.68788
0.362126 9.13448 9.35596
5.53872 1.45347 0.428506
9.03939 0.390334 4.59363
7.06669 0.520935 7.64521
3.47584 8.95685 8.11769
4.95218 1.99196 8.48005
3.03045 2.25444 9.47017
7.35804 0.461883 7.4906
5.87895 2.30784 1.12809
2.77794 4.53034 0
2.99807 2.231 9.34893
5.91356 2.73984 6.96109
6.22631 3.28053 9.50934
2.72132 1.5131 9.18087
2.15375 1.19168 3.12782
1.94374 3.32126 5.28037
8.28012 7.86271 2.26021
7.39999 0.690672 7.55725
7.29631 0.8852 7.47358
10 1.18554 5.57736
2.9989 2.19061 9.44691
6.83471 0.210234 6.95616
5.37641 6.74124 6.3667
7.45518 0.772567 7.59982
7.61943 1.57518 9.07893
6.97211 0.193004 7.75778
2.05053 0.286494 2.29014
7.54492 0.234041 7.24843
9.27446 1.51495 5.52417
2.96176 2.16652 9.40877
6.74524 0.674978 7.69763
7.18964 0.173064 7.78279
0.590982 8.31929 6.93629
9.55605 6.05801 9.50026
7.3667 0.682316 7.40826
7.22371 0.662912 7.32375
1.88347 6.72812 7.88796
7.40224 0.14109 7.6772
0.011763 4.02883 7.61979
7.88399 3.98073 1.89497
7.0824 0.737153 7.90128
3.7159 5.74129 3.05516
9.09381 6.32099 8.58017
3.35264 0.920076 6.26323
POINT_DATA 400
SCALARS particleColor float 3
LOOKUP_TABLE default
0.849434 1 0.150566
0 0.876579 1
1 5.96046e-08 0
1 0.641028 0
0.48689 1 0.51311
0 0.768213 1
1 0.685793 0
1 0.630975 0
1 0.869388 0
1 0.112162 0
0.068454 1 0.931546
1 5.96046e-08 0
1 0.0549812 0
1 5.96046e-08 0
0.402976 1 0.597024
0.937527 1 0.0624731
0 0.682281 1
1 0.847188 0
0 0.410767 1
1 0.242287 0
1 5.96046e-08 0
1 0.743728 0
1 5.96046e-08 0
1 0.84992 0
1 0.178368 0
1 0.621008 0
1 5.96046e-08 0
0.174786 1 0.825214
1 5.96046e-08 0
1 0.677747 0
1 5.96046e-08 0
1 5.96046e-08 0
1 0.755816 0
0.614237 1 0.385763
0.647381 1 0.352619
0.390871 1 0.609129
0.409105 1 0.590895
0.548573 1 0.451427
1 5.96046e-08 0
1 5.96046e-08 0
1 5.96046e-08 0
1 5.96046e-08 0
1 0.804441 0
1 0.52699 0
0.669249 1 0.330751
0.450824 1 0.549176
1 0.713799 0
1 0.0721226 0
1 5.96046e-08 0
1 0.298796 0
0.747748 1 0.252252
0.24015 1 0.75985
0.705427 1 0.294573
1 5.96046e-08 0
1 5.96046e-08 0
1 0.914233 0
0.759073 1 0.240927
1 0.858405 0
1 0.810162 0
1 0.334867 0
0.738951 1 0.261049
0.864521 1 0.135479
1 5.96046e-08 0
1 5.96046e-08 0
0.415395 1 0.584605
0.725849 1 0.274151
1 0.00948286 0
1 0.954567 0
0.122913 1 0.877087
1 5.96046e-08 0
0.651298 1 0.348702
1 5.96046e-08 0
1 0.66171 0
1 5.96046e-08 0
1 5.96046e-08 0
0.0299537 1 0.970046
1 0.995347 0
1 5.96046e-08 0
0.625043 1 0.374957
0.69511 1 0.30489
1 5.96046e-08 0
1 5.96046e-08 0
0 0.524856 1
1 5.96046e-08 0
1 5.96046e-08 0
0 0.581951 1
0.9848 1 0.0152004
1 0.195493 0
1 0.881604 0
0.912846 1 0.0871541
1 0.711048 0
1 0.578469 0
1 5.96046e-08 0
1 5.96046e-08 0
0.989013 1 0.0109869
0.302153 1 0.697847
0.728635 1 0.271365
1 0.546075 0
0 0.974206 1
0.849005 1 0.150995
0.218339 1 0.781661
1 5.96046e-08 0
1 5.96046e-08 0
1 5.96046e-08 0
0.51835 1 0.48165
0.224705 1 0.775295
1 5.96046e-08 0
1 0.0249762 0
1 0.23664 0
0 0.768665 1
1 5.96046e-08 0
1 0.888042 0
1 5.96046e-08 0
0.812497 1 0.187503
1 0.376693 0
0.338967 1 0.661033
0 0.516421 1
0.956706 1 0.0432937
1 5.96046e-08 0
1 0.611559 0
0.566772 1 0.433228
1 5.96046e-08 0
1 0.780292 0
1 5.96046e-08 0
1 0.653603 0
1 5.96046e-08 0
0.195779 1 0.804221
1 0.602794 0
0.115127 1 0.884873
1 0.886262 0
0.935447 1 0.0645533
1 0.244006 0
0.552395 1 0.447605
1 0.726515 0
1 5.96046e-08 0
0.304713 1 0.695287
0 0.611785 1
1 5.96046e-08 0
1 0.39978 0
1 5.96046e-08 0
1 0.803594 0
0.203825 1 0.796175
1 5.96046e-08 0
1 0.902573 0
1 5.96046e-08 0
1 0.387452 0
1 0.526168 0
1 5.96046e-08 0
0.506807 1 0.493193
1 5.96046e-08 0
0 0.404084 1
0.317236 1 0.682764
1 5.96046e-08 0
0 0.833718 1
1 0.896981 0
1 0.19555 0
1 5.96046e-08 0
1 5.96046e-08 0
1 5.96046e-08 0
1 5.96046e-08 0
1 0.678216 0
0 0.969645 1
1 5.96046e-08 0
1 5.96046e-08 0
1 5.96046e-08 0
0 0.998023 1
0.295003 1 0.704997
1 5.96046e-08 0
1 0.354293 0
1 0.325464 0
1 5.96046e-08 0
0.430613 1 0.569387
0.838655 1 0.161345
0.267581 1 0.732419
1 5.96046e-08 0
0.528641 1 0.471359
0.0730468 1 0.926953
1 0.905994 0
0.132175 1 0.867825
0.0647026 1 0.935297
0.208881 1 0.791119
1 0.800045 0
1 0.552951 0
1 5.96046e-08 0
1 5.96046e-08 0
0.116705 1 0.883295
0.266717 1 0.733283
1 5.96046e-08 0
1 0.265976 0
1 0.93062 0
1 0.363045 0
0 0.873797 1
1 0.90617 0
1 5.96046e-08 0
0.859841 1 0.140159
0.722349 1 0.277651
0.664358 1 0.335642
1 5.96046e-08 0
1 0.665629 0
1 0.632211 0
1 0.43415 0
1 5.96046e-08 0
1 5.96046e-08 0
1 5.96046e-08 0
1 0.516853 0
0.0100483 1 0.989952
1 5.96046e-08 0
1 0.0727918 0
1 0.564123 0
1 0.348909 0
0.677195 1 0.322805
0 0.607376 1
0.616454 1 0.383546
1 0.92807 0
1 0.636313 0
1 0.820495 0
1 0.441418 0
1 5.96046e-08 0
0 0.420836 1
1 5.96046e-08 0
1 5.96046e-08 0
1 0.383145 0
0.84313 1 0.15687
1 5.96046e-08 0
1 5.96046e-08 0
1 5.96046e-08 0
0 0.843219 1
1 5.96046e-08 0
0 0.417988 1
0 0.77048 1
0.796498 1 0.203502
1 5.96046e-08 0
1 0.0119049 0
1 5.96046e-08 0
0 0.656959 1
1 0.239973 0
0 0.989574 1
0.900127 1 0.0998728
0 0.640714 1
1 5.96046e-08 0
0 0.593307 1
1 5.96046e-08 0
1 5.96046e-08 0
1 0.910212 0
1 5.96046e-08 0
1 5.96046e-08 0
1 5.96046e-08 0
1 5.96046e-08 0
1 0.765225 0
1 5.96046e-08 0
1 0.793411 0
1 5.96046e-08 0
1 5.96046e-08 0
1 0.911382 0
1 0.0919269 0
1 0.60376 0
0 0.715491 1
0.030178 1 0.969822
0.688182 1 0.311818
0.791835 1 0.208165
0.947629 1 0.0523706
1 0.117037 0
0.636378 1 0.363622
0.503202 1 0.496798
1 0.642253 0
0 0.627444 1
1 5.96046e-08 0
1 0.00840187 0
0 0.370713 1
1 5.96046e-08 0
1 5.96046e-08 0
1 0.341668 0
1 5.96046e-08 0
1 0.466855 0
0.970537 1 0.0294629
1 0.17757 0
1 0.565689 0
1 0.879598 0
1 5.96046e-08 0
0.932693 1 0.067307
1 0.310224 0
1 0.384747 0
1 0.569582 0
1 5.96046e-08 0
1 0.728937 0
0.828298 1 0.171702
0.544394 1 0.455606
1 5.96046e-08 0
1 5.96046e-08 0
1 5.96046e-08 0
0.693573 1 0.306427
1 5.96046e-08 0
1 0.846425 0
1 0.971159 0
0 0.834171 1
0.304999 1 0.695001
1 0.93702 0
0 0.931722 1
0 0.30548 1
0 0.74789 1
1 5.96046e-08 0
1 5.96046e-08 0
0 0.636277 1
1 0.691384 0
0 0.394281 1
1 0.811063 0
1 5.96046e-08 0
0 0.73923 1
1 0.839132 0
0.586042 1 0.413958
0.03679 1 0.96321
1 0.024065 0
1 5.96046e-08 0
0.0907585 1 0.909242
1 5.96046e-08 0
0.876582 1 0.123418
1 5.96046e-08 0
0 0.962516 1
0.716231 1 0.283769
0.431883 1 0.568117
0.218154 1 0.781846
1 5.96046e-08 0
0.125655 1 0.874345
0.0614767 1 0.938523
0 0.337335 1
1 5.96046e-08 0
1 0.514005 0
0 0.560898 1
1 5.96046e-08 0
0 0.446147 1
0 0.413434 1
0 0.440949 1
1 0.636697 0
1 5.96046e-08 0
1 0.901029 0
0.668412 1 0.331588
1 0.547287 0
0 0.510145 1
1 0.859267 0
0.884975 1 0.115025
1 5.96046e-08 0
1 0.608546 0
1 0.940393 0
0 0.525602 1
0.859087 1 0.140913
1 0.84489 0
0 0.86842 1
0.834056 1 0.165944
0 0.562586 1
1 0.788749 0
0 0.416922 1
0 0.930618 1
1 0.80214 0
1 0.223896 0
0.247868 1 0.752132
0 0.458254 1
1 0.0373632 0
0.402265 1 0.597735
0 0.780045 1
0 0.613997 1
1 5.96046e-08 0
0.233656 1 0.766344
0 0.523069 1
0 0.358399 1
1 0.383886 0
0.640822 1 0.359178
0 0.675518 1
0.484403 1 0.515597
1 0.667598 0
0 0.615535 1
0 0.289649 1
1 5.96046e-08 0
0.146683 1 0.853317
0 0.633225 1
0 0.388331 1
1 0.992057 0
0 0.312281 1
1 0.764948 0
1 5.96046e-08 0
0 0.429256 1
0 0.222572 1
0 0.419456 1
1 0.906144 0
0 0.52607 1
1 5.96046e-08 0
0 0.624954 1
0 0.519939 1
0 0.440519 1
0.734625 1 0.265375
1 0.9334 0
0 0.326487 1
0 0.234267 1
1 0.561379 0
0 0.446989 1
1 0.714939 0
1 5.96046e-08 0
0 0.733709 1
1 5.96046e-08 0
0.936116 1 0.0638844
1 5.96046e-08 0
