# vtk DataFile Version 3.0
Particle simulation
ASCII
DATASET POLYDATA
POINTS 400 float
5.93107 2.67037 6.70503
2.85615 5.80689 8.7364
1.02202 2.19279 7.38312
4.42525 1.7768 5.57643
6.87187 0.557571 1.61897
7.97902 0.621352 4.77314
4.78077 7.09624 8.46206
1.45775 8.98684 0.432822
2.01899 0.588644 10
6.134 0.370661 8.70676
7.35787 0.501131 3.01855
9.60012 7.84286 6.97265
9.11237 2.02291 4.34433
10 4.32053 5.78925
0.225804 1.18907 0.766464
2.92308 8.38348 1.25404
5.3608 6.23102 6.59301
5.16167 0.252484 4.14546
8.57062 4.8289 9.02762
2.47585 7.36579 10
1.82694 2.16573 1.05598
8.28593 7.76007 0.567963
2.5024 1.61353 1.28305
1.26731 3.32873 6.84563
9.58426 7.98446 7.02987
0.696617 2.57012 4.03851
9.35949 6.93608 1.61931
8.124 6.22136 3.04533
9.45965 0.0262353 5.11745
3.6474 1.07057 9.80925
0.733776 3.26482 4.16423
9.78604 1.19984 2.68228
2.71857 7.86272 4.95026
1.54872 7.76036 8.87663
7.10799 3.43974 4.05856
7.53632 7.85492 1.06942
7.12033 5.73902 7.17056
8.66975 0.40793 1.38569
3.49336 9.76824 7.87194
1.01223 9.44589 0.141555
8.22469 6.3624 8.11069
9.40074 9.27352 0.561399
0.613852 8.8155 2.0008
9.23113 0.617921 6.58988
4.86909 9.71698 8.61184
4.9677 2.356 1.60773
8.34689 2.03329 7.45522
2.95115 8.61483 1.84232
1.22716 0.648271 5.17075
1.26792 1.15622 8.38897
6.27202 2.52806 3.36545
8.40734 9.23339 9.48721
0.808849 0.422908 9.21533
0.224238 5.18082 2.41393
1.4471 9.03327 4.06208
1.03175 1.03462 1.46029
2.66251 3.62136 1.66601
3.78354 0.550999 8.2515
4.16652 5.7065 0.0932339
9.19574 2.69125 5.09113
3.75078 9.15301 4.37464
7.45945 4.03304 9.23175
2.06678 4.97977 3.28763
5.16358 9.05374 7.80086
0.254215 6.57864 0.963791
6.22812 1.15312 9.74007
6.95691 4.79442 0.387523
3.16907 4.56281 2.00155
0.311003 3.48923 9.5393
1.01911 4.82257 1.51737
7.70267 1.62296 4.10193
7.51869 6.24476 2.7244
3.86627 9.08347 2.90613
3.03304 0.904131 7.24492
1.97939 3.85441 4.62685
8.42275 1.93056 1.75764
6.80486 4.39674 7.24384
9.6957 8.55041 6.57814
2.21144 6.41988 9.36885
8.60882 0.662257 0.814933
6.39945 9.35864 5.44937
1.07425 9.46717 4.92883
1.04267 5.28339 3.54744
0 2.3499 2.32039
7.78866 3.12586 6.96109
9.40139 0.537152 7.59739
0.343178 7.76923 4.68868
2.42688 4.97201 9.30252
0.796509 8.14659 4.896
0.187663 4.76498 3.4326
4.1158 0.37737 3.74231
8.32349 7.6647 7.37567
6.85684 9.56143 4.36495
7.24449 0.478138 8.7838
4.82414 3.66238 3.42515
4.1121 5.84138 0.845542
8.86449 0.257486 2.15411
2.72199 9.27568 9.46765
4.06234 6.38673 6.1934
3.24985 4.61927 0.682623
0.195215 0 8.68697
5.99064 7.03314 2.76275
7.38468 4.08414 7.83413
5.41701 1.46532 2.54253
1.01749 6.45973 7.36917
1.73827 6.0273 6.04661
9.7325 1.86876 4.92046
4.31181 7.07824 0.810041
1.51667 6.03573 5.68514
8.5018 1.88355 1.55543
0.981583 8.9814 2.9089
5.00554 4.20554 6.91905
1.2391 4.49786 1.09336
6.40752 4.24125 3.16592
2.18874 3.29778 6.00024
4.57923 4.1237 9.15564
4.54547 2.89034 0.328939
0.806068 3.09552 3.17385
3.59206 2.57432 8.43215
5.23772 8.23662 2.86497
0.192772 3.05547 0.255033
10 4.96967 3.94089
9.10231 8.01103 9.13688
0.873196 4.5292 1.82429
0.257057 2.26096 8.05789
3.85933 0.822962 8.10591
6.49955 8.96867 2.99191
3.61137 0.438889 4.93267
6.18313 7.98918 8.21519
1.88066 2.82068 3.7235
0 6.29492 8.05299
2.52706 3.92929 2.7729
5.45525 9.14594 5.45095
4.52232 5.87063 1.86937
2.82216 3.9517 5.29729
3.08967 0.222451 6.07405
0.466951 4.51639 6.66672
3.6306 4.76128 6.91304
6.76853 5.09953 7.63846
9.66852 5.49302 4.35641
4.82632 0.31609 4.0012
9.61649 5.71773 10
8.3971 4.93722 5.14257
2.7947 5.90238 4.05826
6.61226 1.96814 1.03174
3.02661 1.01425 4.01583
9.25404 0 2.18176
3.45391 1.22258 5.93527
9.54416 3.68944 3.21669
6.45524 0.570924 8.03878
4.63423 0.441911 3.91095
1.13751 6.32488 6.96185
2.63229 7.02217 3.64071
0.304013 1.86 9.49206
9.5869 6.50775 6.62065
1.18033 5.09322 0.603938
2.69806 5.94856 9.68016
3.19894 9.53949 3.05127
1.94298 6.01642 9.47477
9.02266 3.92165 3.2699
3.81744 1.1033 0.105462
3.89228 1.32729 5.81709
3.85371 7.49455 2.05281
2.97633 0 8.08618
9.63632 2.11557 5.5741
2.75474 9.68838 4.84664
4.44373 0.847022 3.45158
0 8.38946 9.95824
5.07605 7.27979 0.831011
5.47263 0.586614 3.45365
5.12941 8.21132 8.25601
1.54569 3.65049 6.52567
1.27723 7.37588 4.43994
8.35904 2.90928 7.22168
3.22363 4.13519 1.74224
4.18297 1.88509 7.88364
0.522254 2.24131 9.78465
2.31876 7.62582 6.57207
3.42123 7.16543 0.0490421
4.32273 9.4404 7.90864
1.30586 1.98802 1.27126
6.53295 0.0375896 1.17074
0.712391 6.62624 0.665149
1.21036 3.54882 6.80259
9.1929 1.09093 5.44602
9.03149 3.34631 2.44238
4.57659 0.608587 3.83497
7.75203 9.70017 5.45993
8.74208 7.50891 8.28032
9.36261 1.09642 6.33402
6.24239 0.0260937 8.62209
4.65691 0.578485 3.09973
3.4222 5.19107 0.716284
4.06036 9.3962 8.23345
0.36583 2.75743 3.14542
5.43803 3.04899 7.9702
0.544612 1.12331 1.57186
8.16978 3.59545 4.12163
8.8187 0.0999812 3.27741
3.03066 0.814501 3.2794
4.55223 0.534703 3.79218
0.262741 2.92332 1.90043
8.20411 7.51677 1.89764
7.64688 4.09794 6.11289
2.25822 8.8885 2.54025
7.00244 1.1171 5.01039
8.25999 1.1144 7.73953
4.35261 9.56501 7.35868
3.46061 0.830742 3.96185
5.72665 0.422591 5.40474
4.57905 0.660349 4.03152
4.55374 0.522587 3.63672
0.471796 5.90795 0.555274
0.415875 3.3485 2.05491
3.02325 1.37929 2.66915
0.361187 1.80616 4.84922
4.34485 0.197278 3.70387
4.68755 8.95466 2.17946
2.3922 1.42292 9.4641
0.113482 9.1077 9.56271
5.03822 7.53426 8.94518
0.0708926 2.52187 3.36998
9.22472 4.67854 8.55273
5.50692 0.277359 3.83953
3.99332 6.5879 1.9202
7.16649 1.1118 2.66901
6.07197 5.50364 2.89614
4.99237 0.296109 2.98575
4.80176 0.21008 4.31399
5.45346 7.72387 5.21479
5.62971 1.70358 9.85265
0.484298 9.66503 0.112049
1.95879 0.673559 9.84879
5.45107 0.242861 3.49082
1.90322 0.602956 7.9764
3.64574 0.990484 0
4.9811 9.16986 8.00378
7.96063 2.27503 2.45236
4.82366 0.621739 3.85502
0.966477 7.8336 9.79438
4.33425 0.353796 3.34773
8.62965 0.396281 1.04641
4.95454 2.87397 3.13003
8.86968 2.58484 1.08292
9.04731 6.67901 0.938088
9.29077 5.4322 0.994711
4.20767 1.08227 8.44854
8.76121 9.60908 1.01323
1.87162 10 10
9.252 0.617438 2.10654
4.45569 0.513187 3.85134
0.859215 3.86803 5.48713
9.9187 10 10
0.423398 4.1649 1.1622
8.09744 9.13051 7.87979
5.13778 4.95471 2.15572
6.76404 4.32978 7.77636
2.20995 0.732497 7.84353
5.03823 9.54061 8.89457
7.35501 10 6.65444
2.3164 9.1069 0.809696
0.189778 2.61563 1.29777
1.69503 6.73399 2.84747
5.22599 4.65757 2.83909
7.98049 2.07324 4.48482
1.25853 6.95994 7.57926
3.21103 0.940536 1.23588
4.51315 0.473459 8.84513
4.8338 6.16294 9.59836
2.17751 4.57566 3.37327
5.18499 0.356274 4.10923
2.58457 9.38023 0.242101
6.57048 8.63305 2.39417
9.21362 5.09531 3.84091
6.85069 6.35855 4.53283
7.02117 1.67366 5.59731
5.57559 2.74821 8.11461
2.5269 8.25281 10
6.98672 1.54496 2.79055
5.47483 0.337159 3.86627
6.78952 0.279408 1.1329
9.21285 1.16853 2.10053
2.15137 4.37939 8.49022
5.13304 7.42569 1.01131
6.97777 7.94514 2.75886
7.99871 6.34052 4.86419
4.67435 0.3364 3.89299
4.74185 5.06644 0
3.63535 5.54014 4.13813
7.20143 0.540965 9.93785
9.15413 7.98137 3.6658
1.90163 8.66766 7.96149
6.52605 0.280302 4.77595
0.906218 3.53895 4.64141
3.14411 5.06452 9.93545
1.93209 0.588345 7.73252
4.93295 0.684389 4.32115
5.06848 0.545615 4.18212
5.32225 0.509729 3.76131
4.56374 0.430764 4.27057
9.19926 9.72589 0
1.03695 4.09169 7.15822
5.43716 0.573312 4.51467
2.61832 2.87941 0.570726
4.25635 0.400036 4.07057
8.60181 8.33351 9.34574
4.83621 0.835901 4.12703
4.73708 0.397462 3.87958
4.00612 5.19108 3.94977
7.69948 7.6545 3.46974
9.86687 7.87971 5.43822
8.45452 5.58249 9.64723
6.67079 7.88837 0.170766
4.74976 0.658015 4.30645
9.35939 3.56006 9.35066
8.64784 5.94017 0.657291
1.15604 5.45233 5.07188
4.19698 6.05285 7.61233
1.51622 2.53691 5.00739
1.26209 3.81602 7.70961
1.47519 1.1334 8.48196
5.97504 1.94783 9.63063
2.25786 0.702479 7.93229
4.97286 0.361153 3.96928
5.45868 0.658232 3.98186
7.58653 8.41642 5.37782
4.42672 0.542173 3.65311
8.46014 1.7194 0.233028
5.59109 5.32063 4.00759
4.59327 0.468967 3.98678
1.12105 1.9441 9.36286
2.31724 1.11944 3.51175
0.325848 9.26969 1.84967
9.33023 7.63687 5.36413
9.61926 0.386436 3.05985
1.09748 3.92935 5.23879
0.929397 6.6159 6.91697
4.80194 0.365639 4.02871
2.68324 1.94061 8.71483
7.13693 5.33969 8.70162
6.86419 6.93744 4.63217
4.98563 9.50106 0.984724
1.99285 1.76152 7.28394
1.97792 0.545382 7.98607
5.15069 0.606098 4.4064
4.8735 0.388822 4.60298
9.57222 0.281403 1.79206
4.99473 0.64155 3.88336
5.11243 0.576302 3.75329
6.26982 1.36512 8.53591
5.21099 0.21407 4.10893
4.56336 0.393188 3.60159
2.62906 7.44271 9.17878
9.77984 7.38497 1.63697
2.53158 3.19852 6.00956
4.58301 0.292351 4.24087
8.90541 5.26798 8.93779
6.53169 6.23539 10
4.91964 0.588491 3.65046
4.91975 0.269121 3.7899
9.6278 0.27777 1.6955
1.94019 0.675744 7.92151
1.85784 0.550975 7.83804
5.41717 0.651827 3.79518
4.36398 0.492135 3.88088
9.43024 0.71812 2.80863
1.73713 0.701231 7.73388
4.26203 6.3109 5.71405
1.91513 0.893505 7.68534
6.83398 9.26895 5.43206
9.11945 0.691743 3.09472
1.82785 8.88063 2.62905
1.04701 10 8.21727
4.8831 0.491314 3.90337
4.75508 0.390744 3.95408
9.41596 0.251582 3.06705
2.05188 0.493182 7.67025
1.51478 0.884872 7.97493
0.554053 0.276789 6.95329
5.66308 0.259284 4.19552
4.62584 0.201178 4.06164
4.48991 0.445521 3.65394
3.72678 7.54368 8.65323
4.91134 0.0671182 4.00116
4.25456 9.20926 3.26545
2.0497 0.634458 7.69989
4.71438 0.550244 4.2107
4.72312 0.776973 3.72922
1.98209 7.52151 8.32335
4.91321 2.0157 7.03225
4.70562 0.824408 4.34616
5.29374 0.0798792 4.31264
1.81626 0.750996 8.05801
4.4301 0.181864 4.03612
7.05837 1.98159 0.722807
1.66025 1.00717 7.32819
5.0749 0.536286 4.28314
3.10073 4.21739 2.63489
9.76086 9.7786 3.44804
8.5633 1.19289 1.98027
POINT_DATA 400
SCALARS particleColor float 3
LOOKUP_TABLE default
1 0.799698 0
1 5.96046e-08 0
0.939876 1 0.0601243
1 0.621275 0
1 0.810892 0
0.460849 1 0.539151
1 5.96046e-08 0
0.552049 1 0.447951
1 5.96046e-08 0
1 5.96046e-08 0
0.281916 1 0.718084
1 5.96046e-08 0
1 0.907436 0
1 0.191759 0
1 0.876673 0
1 0.791329 0
1 5.96046e-08 0
0 0.593583 1
1 5.96046e-08 0
1 0.668573 0
0.307389 1 0.692611
1 5.96046e-08 0
1 0.036303 0
0.946108 1 0.0538924
1 5.96046e-08 0
1 5.96046e-08 0
0.47353 1 0.52647
0.497162 1 0.502838
0.165376 1 0.834624
0.661375 1 0.338625
1 0.359033 0
0 0.398959 1
1 5.96046e-08 0
0 0.973494 1
0.938459 1 0.0615409
0.263758 1 0.736242
1 0.877925 0
0 0.678976 1
1 0.285961 0
0.925287 1 0.074713
1 0.541272 0
0.817961 1 0.182039
1 5.96046e-08 0
1 5.96046e-08 0
0 0.613725 1
0.806444 1 0.193556
0.112112 1 0.887888
1 0.356288 0
0.856235 1 0.143765
1 5.96046e-08 0
1 5.96046e-08 0
0.747252 1 0.252748
0.612042 1 0.387958
1 0.831335 0
1 5.96046e-08 0
1 0.714386 0
1 0.307214 0
0.249533 1 0.750467
1 0.0573098 0
1 0.910985 0
1 0.816911 0
1 0.98915 0
1 5.96046e-08 0
0 0.660138 1
0.694335 1 0.305665
0 0.718163 1
0.264777 1 0.735223
0.48727 1 0.51273
0.0872026 1 0.912797
1 0.972188 0
0.367137 1 0.632863
0.438887 1 0.561113
1 0.773124 0
0.418513 1 0.581487
1 5.96046e-08 0
0.501551 1 0.498449
0.918702 1 0.081298
1 5.96046e-08 0
1 0.291294 0
1 0.726995 0
1 0.264029 0
1 0.433178 0
1 5.96046e-08 0
1 5.96046e-08 0
1 5.96046e-08 0
1 0.0729104 0
1 5.96046e-08 0
1 0.991485 0
1 5.96046e-08 0
1 5.96046e-08 0
0 0.610416 1
0 0.410429 1
1 5.96046e-08 0
1 0.42057 0
0 0.6428 1
1 0.526615 0
1 5.96046e-08 0
1 5.96046e-08 0
0 0.534456 1
1 5.96046e-08 0
1 0.803303 0
1 0.12175 0
1 5.96046e-08 0
1 5.96046e-08 0
1 0.488348 0
1 0.132626 0
1 5.96046e-08 0
1 0.0385774 0
1 0.197996 0
1 5.96046e-08 0
1 0.147482 0
1 5.96046e-08 0
0 0.820344 1
1 0.338228 0
0.00865035 1 0.99135
1 5.96046e-08 0
1 5.96046e-08 0
1 0.605419 0
0.243874 1 0.756126
0.641068 1 0.358932
1 0.676049 0
1 0.643561 0
1 5.96046e-08 0
1 5.96046e-08 0
1 5.96046e-08 0
0 0.980356 1
1 0.507222 0
1 5.96046e-08 0
0.22379 1 0.77621
1 5.96046e-08 0
1 0.597132 0
1 5.96046e-08 0
1 0.0272343 0
0.408281 1 0.591719
1 5.96046e-08 0
1 0.973984 0
1 5.96046e-08 0
0.702212 1 0.297788
1 0.885364 0
0 0.281989 1
0 0.5672 1
1 0.668643 0
1 0.991579 0
1 5.96046e-08 0
1 5.96046e-08 0
0.762579 1 0.237421
0.659603 1 0.340397
1 0.60205 0
1 0.815208 0
1 0.773679 0
0 0.266182 1
1 5.96046e-08 0
1 5.96046e-08 0
0.771287 1 0.228713
1 5.96046e-08 0
1 5.96046e-08 0
0.686379 1 0.313621
0.713772 1 0.286228
1 5.96046e-08 0
0 0.519656 1
1 5.96046e-08 0
0.16403 1 0.83597
1 5.96046e-08 0
0.731669 1 0.268331
1 5.96046e-08 0
1 0.608581 0
1 5.96046e-08 0
1 5.96046e-08 0
1 5.96046e-08 0
1 0.723197 0
1 0.202588 0
1 0.780499 0
0.436725 1 0.563275
1 0.352605 0
1 0.0712369 0
1 0.455616 0
1 5.96046e-08 0
1 0.495595 0
1 5.96046e-08 0
1 0.648361 0
0.503204 1 0.496796
1 0.991449 0
0 0.808567 1
0 0.71423 1
1 5.96046e-08 0
1 5.96046e-08 0
0 0.294498 1
0.61413 1 0.38587
1 0.384273 0
1 0.90645 0
0.445687 1 0.554313
0 0.625385 1
0.391829 1 0.608171
1 0.725511 0
1 0.742768 0
1 0.605789 0
0.860732 1 0.139268
0.605382 1 0.394618
0.643234 1 0.356766
0.646489 1 0.353511
0 0.466689 1
1 0.27761 0
0.48831 1 0.51169
1 5.96046e-08 0
1 0.276817 0
1 5.96046e-08 0
1 0.197364 0
1 0.770443 0
1 0.454936 0
1 0.780899 0
0 0.233416 1
0 0.678756 1
0.406542 1 0.593458
1 0.262264 0
0 0.993569 1
1 0.00648403 0
0 0.468771 1
0.391685 1 0.608315
1 0.999318 0
1 5.96046e-08 0
0.418957 1 0.581043
1 5.96046e-08 0
1 5.96046e-08 0
0 0.474053 1
1 0.936866 0
1 5.96046e-08 0
1 0.471063 0
0 0.518192 1
0 0.356825 1
1 5.96046e-08 0
0.732747 1 0.267253
1 0.870021 0
0.126885 1 0.873115
0 0.285992 1
0 0.730968 1
1 5.96046e-08 0
1 5.96046e-08 0
1 5.96046e-08 0
0 0.110787 1
1 0.337836 0
0 0.438499 1
0.133057 1 0.866943
1 0.0437182 0
0 0.940047 1
1 5.96046e-08 0
1 0.895997 0
1 5.96046e-08 0
1 0.699628 0
1 5.96046e-08 0
1 5.96046e-08 0
0 0.600137 1
0.333455 1 0.666545
1 5.96046e-08 0
0.897888 1 0.102112
1 5.96046e-08 0
0.911382 1 0.088618
1 0.191887 0
0 0.5248 1
1 0.111552 0
1 0.0399709 0
0.864764 1 0.135236
1 0.85392 0
0.418541 1 0.581459
1 5.96046e-08 0
1 5.96046e-08 0
1 5.96046e-08 0
1 0.82754 0
1 0.851518 0
1 5.96046e-08 0
0.520399 1 0.479601
0 0.56266 1
0.0768148 1 0.923185
0 0.821526 1
1 0.743388 0
1 5.96046e-08 0
0.751379 1 0.248621
1 0.380391 0
1 5.96046e-08 0
1 5.96046e-08 0
0 0.190554 1
1 5.96046e-08 0
0 0.434581 1
0 0.763768 1
1 0.019383 0
1 5.96046e-08 0
1 5.96046e-08 0
0 0.727885 1
1 5.96046e-08 0
0.900846 1 0.0991541
0.963482 1 0.0365182
1 5.96046e-08 0
1 0.0308778 0
1 5.96046e-08 0
1 5.96046e-08 0
1 5.96046e-08 0
0 0.239064 1
0 0.572218 1
0 0.552886 1
0 0.862195 1
0 0.733648 1
0.929777 1 0.0702235
1 0.317738 0
0 0.54301 1
0.817392 1 0.182608
0 0.880711 1
1 0.867594 0
0 0.526442 1
0 0.121564 1
1 0.139312 0
1 0.432171 0
1 0.551218 0
1 0.368683 0
0.00328015 1 0.99672
0 0.775352 1
1 0.624464 0
0.18723 1 0.81277
1 5.96046e-08 0
0.471898 1 0.528102
1 0.54838 0
1 0.785656 0
0 0.703204 1
1 5.96046e-08 0
0 0.60581 1
0 0.555674 1
0.118728 1 0.881272
1 0.476643 0
0 0.415092 1
1 0.879961 0
0.578102 1 0.421898
0 0.388845 1
0 0.946887 1
1 5.96046e-08 0
1 0.652755 0
0.683549 1 0.316451
0 0.758412 1
1 5.96046e-08 0
0.988293 1 0.0117074
0 0.474739 1
1 5.96046e-08 0
1 0.435559 0
0.362625 1 0.637375
1 5.96046e-08 0
0 0.683491 1
0 0.500236 1
0 0.852211 1
0.0616018 1 0.938398
0.557988 1 0.442012
0 0.729292 1
0 0.890607 1
1 5.96046e-08 0
0 0.430127 1
0 0.633588 1
0.862325 1 0.137675
1 5.96046e-08 0
0 0.316636 1
0 0.686867 1
1 0.228697 0
0.833208 1 0.166792
0 0.433903 1
0 0.585322 1
0 0.83983 1
0 0.558922 1
0 0.27871 1
0 0.741916 1
0.114426 1 0.885574
0 0.958151 1
0 0.2488 1
0.0258785 1 0.974121
0 0.39539 1
1 0.223633 0
0 0.223037 1
1 5.96046e-08 0
1 5.96046e-08 0
0.367789 1 0.632211
0.133717 1 0.866283
0 0.812042 1
0 0.554233 1
0 0.752361 1
0 0.645125 1
0 0.147848 1
0 0.812038 1
0 0.2228 1
0.232252 1 0.767748
0 0.492886 1
0.82455 1 0.17545
0 0.400942 1
0 0.181882 1
0 0.265247 1
0 0.962253 1
0.200529 1 0.799471
0 0.824833 1
0 0.239798 1
0 0.841695 1
0 0.656343 1
1 0.78306 0
0 0.964031 1
0 0.645465 1
1 0.630554 0
0.645194 1 0.354806
0 0.899956 1
