# vtk DataFile Version 3.0
Particle simulation
ASCII
DATASET POLYDATA
POINTS 400 float
2.31426 2.04256 5.60373
7.91591 6.17694 2.28866
9.74136 7.9843 6.00688
9.10115 9.67758 7.1251
8.12978 9.82454 0
7.4306 6.26721 1.09132
9.12747 0.109431 8.702
5.76954 4.42774 4.08973
0.418471 3.78392 7.18254
0.354786 5.9495 0
9.81893 2.72659 5.35189
7.03834 6.29859 9.7069
4.74601 5.64363 6.30882
4.6044 3.84634 6.52885
7.21343 7.81688 3.54572
5.62529 1.7814 1.33893
3.65471 9.12953 10
3.77539 0.0901534 1.15295
1.17011 5.75354 6.36411
4.95692 5.84263 0
2.83595 0.291863 1.14755
3.24483 1.72116 6.85914
6.932 5.72929 4.80761
8.8825 4.45879 4.57282
9.88641 7.72881 3.59305
9.12912 7.04164 4.03782
9.50254 7.99072 5.61206
1.10618 3.17533 9.00503
9.40042 2.01657 8.89575
6.23735 9.18107 6.46712
0.583546 3.84812 8.04824
6.93575 7.379 1.636
10 3.91742 1.26156
2.39372 0.924161 9.37816
2.37548 6.13202 0.252377
4.89771 3.75322 1.43445
8.55061 8.43122 1.38507
2.98539 0.318009 0.970804
4.21512 3.02622 2.22048
0.287709 4.50792 7.31042
0.925335 7.92046 1.42308
4.44121 9.02746 6.60762
6.65186 9.88379 4.08884
7.98634 2.7502 1.34419
9.68818 0.876107 2.10956
2.44601 6.89226 1.70568
4.75987 4.72043 9.48738
10 2.2089 4.32278
6.33315 0.849934 1.2396
3.06875 3.45391 5.47301
4.24254 0.486079 9.6759
7.61555 7.31129 0.120746
8.57493 3.8153 8.40465
5.91503 4.82957 1.31218
0.489422 7.49486 0.485564
5.68603 0.593072 1.99064
4.55585 3.17457 5.83079
8.70842 0.447347 1.60819
9.20013 3.6953 4.77019
4.88204 9.79978 3.85297
0.90053 4.30085 9.43173
3.70977 9.92051 4.32959
3.86692 8.11345 0
6.84458 7.59649 2.00274
7.06075 6.01679 4.6565
4.48644 1.15494 2.38682
6.74074 0.7654 4.16171
4.95273 2.21339 0.965055
2.04144 0.438134 6.19649
9.48997 9.22639 0.983879
0.27826 3.00308 0.20634
7.55356 3.61425 1.3037
8.90887 6.40902 8.8206
2.91926 1.10543 2.6755
8.20553 8.27579 9.91631
0.426202 3.01303 7.93642
3.2228 4.04978 2.44544
0.708318 6.74334 4.65568
2.57761 7.24548 3.2468
6.40048 8.06382 4.23057
3.47209 0.434331 1.09574
8.77819 8.73307 7.06285
8.58434 0.469703 8.30166
8.93899 0 9.444
9.03462 4.02262 6.07064
0.187623 8.44596 9.04369
5.58775 6.79566 9.66507
2.79863 0.656097 7.50039
8.94085 4.08963 8.42881
1.44081 6.53564 4.6332
3.17471 0.237425 1.31447
6.92399 6.60141 2.97376
9.9581 3.89326 6.17099
3.02179 0.482409 9.79898
8.00608 5.24569 3.06143
9.53565 8.85812 7.7163
4.3945 5.66307 4.01488
9.27772 8.24049 0.803535
4.21944 3.82203 9.59697
5.92654 6.03937 7.13531
2.75368 0.603112 0.446066
7.57641 2.62829 9.41052
4.02352 2.9821 1.66957
0.372777 6.36447 2.09565
8.24685 7.27429 9.61387
0.797081 3.85201 8.85818
0.348754 5.83021 0.764133
8.55503 0.850904 3.25225
9.38916 2.06034 5.76596
4.89151 0.932175 9.46116
1.05143 2.43748 6.82062
0.191185 1.49764 9.65246
5.78585 0.186202 8.58135
2.13758 2.62003 1.43206
2.64885 0.621933 2.08123
8.32734 5.77162 8.13684
3.04326 0.500127 9.58928
8.00963 3.43776 4.09775
9.10022 2.23074 9.22314
5.61381 5.71904 6.75522
2.7639 0.667985 0.343459
4.72687 1.78968 9.33872
4.40077 9.86282 7.3304
7.95748 2.27602 9.76928
8.20623 3.04951 1.21659
3.20956 0.5765 1.20308
0.728609 7.8874 0
1.5953 1.84496 8.36446
9.88951 2.58749 6.8195
1.48689 4.64459 4.13548
3.54938 6.99496 7.89951
0.564064 3.71682 8.93639
2.88284 4.88276 8.87489
9.74461 2.92178 0.449459
0.290711 0.438045 4.99752
1.93702 0.794864 9.74401
3.02465 1.31156 9.00359
4.83474 0.666784 7.69819
2.07766 3.9349 0.445795
2.265 3.25752 1.45967
3.31255 0.310209 1.2693
3.48966 4.85457 4.91008
5.03835 2.17921 0.71704
6.09557 5.87945 10
2.53929 0.787034 1.94232
2.60726 3.29589 7.96802
4.52199 0.527437 3.75943
6.2069 2.57017 0.161414
5.28598 2.47462 2.09397
6.79348 1.22353 3.23599
3.12927 0.398269 1.30942
1.26958 1.94342 9.53619
1.55234 2.68225 9.81973
2.90847 0.510264 1.3802
7.08984 7.08012 5.94702
5.95619 0.257972 1.86653
3.77196 7.46636 6.20906
3.40605 8.89738 8.02673
8.04503 7.12299 10
0.423026 2.18579 1.50527
3.85815 0.560495 3.04747
8.226 3.67448 9.65393
2.35453 3.59154 9.65204
0.948733 2.44103 7.75565
8.25363 2.26874 1.66009
8.61188 5.5269 6.80802
8.80009 6.25198 9.37587
3.09101 6.09229 5.95354
9.00116 7.32347 1.49881
6.55124 0.0454417 1.84787
3.05482 0.452702 0.774007
3.75433 7.71666 4.47382
4.06925 0.175285 4.37436
7.05329 0.638403 2.94805
2.72923 0.87304 4.97274
5.99896 9.85516 1.09584
0.0773465 0.46026 8.78086
7.29388 0 3.83199
2.56725 2.57989 1.55603
7.94669 3.32266 2.02746
3.60667 0.121511 1.3086
7.14184 6.17545 0.337668
8.38895 6.26443 9.58531
5.5695 9.84959 5.10473
6.26744 9.78176 1.0169
6.82309 2.04442 3.12776
3.51783 0.28521 1.18185
1.43327 1.88018 8.38549
5.58635 0.317715 2.02652
2.36548 0.738386 1.80223
3.3555 0.156315 1.47583
3.60838 0.0921463 0.47008
6.62772 7.55527 4.97277
5.26014 0.97648 5.26736
4.0649 9.67434 4.58551
3.22617 0.114024 1.40312
0.78354 1.3056 0.772549
3.09459 0.586369 9.41205
3.4708 0.190189 0.545952
3.42828 0.224156 1.62801
3.52315 0.0499159 0.879133
7.5665 0.951971 1.23971
3.25761 4.60669 8.18497
5.44189 0.805399 5.33943
5.54435 4.25757 5.78798
0.919524 1.85636 8.06709
3.43333 0.376958 0.645104
1.31913 0.223067 4.67554
7.82497 0.745481 5.69374
2.44516 2.65386 9.53398
3.39292 0.329781 1.2286
3.84152 0.300217 1.37293
2.04006 8.60746 10
6.18599 2.51477 8.64942
5.97292 2.97687 9.11165
2.97959 0 8.80916
2.92186 0.14269 0.763636
2.70664 0.497807 0.731271
2.7884 5.31303 9.6641
2.67307 0.417202 0.699089
0.880695 5.29529 0.688602
1.48633 7.07054 8.67175
4.04516 2.18356 5.54399
3.10547 0.0798568 0.194807
6.94116 7.65668 4.24728
2.84441 2.87374 4.98698
3.29294 5.56088 10
3.04341 0.414641 0.709167
3.60536 0.355055 1.19637
9.86463 9.2995 5.0575
0.442545 4.12317 7.60416
7.93223 1.20654 9.14838
0.53089 0 1.04702
3.29302 0.323203 1.28263
3.26385 0.432176 9.29712
3.1702 4.77443 10
8.51327 4.16104 7.64492
0.32836 3.13378 4.57529
2.95888 0.784026 1.47936
5.34095 10 8.70633
3.59126 0.0999556 1.15127
3.39499 0.160663 1.24816
3.26439 0.262264 1.001
3.01257 0.436613 0.907241
4.59531 0.199791 8.2465
3.47275 0.13451 8.6383
3.09701 1.1016 5.23935
1.68842 1.36478 2.27825
8.15334 1.24333 8.90189
1.77178 1.13249 4.19112
3.91333 0.174211 1.1988
6.41812 8.12761 1.92451
3.27962 0.376556 8.26621
3.31519 0.901643 9.05269
7.08447 0.673283 0.544736
3.43345 0.276896 1.91634
9.36293 2.63149 1.45346
3.17507 0.403321 9.18964
0.564234 6.21128 9.87647
3.19213 0.324106 9.16011
3.26848 0.410497 1.3011
0.494242 3.05619 1.74184
5.60104 0.93206 5.53971
7.03473 3.14291 1.60462
3.44026 0.730556 9.11703
7.7787 7.76125 8.1272
7.61701 0.124909 0.258498
3.43898 0.353485 9.3626
2.98021 3.86683 6.26437
2.83067 0.36669 1.12211
3.81322 0.42815 1.12397
6.72518 7.21559 4.58827
5.8554 5.22125 0
4.01189 7.08757 2.07738
6.45269 2.666 3.25938
4.23506 2.11113 6.01389
6.98776 5.71863 0.116494
9.35419 7.90745 6.61038
1.1875 8.18979 4.31698
3.29101 0.492232 1.17943
4.45929 0.676743 3.8182
7.11804 0.706197 0.38975
9.93699 2.55061 4.28661
8.47602 1.82525 5.05015
9.64364 9.43804 4.11963
7.91877 7.2594 5.49644
3.6864 0.529028 1.25222
3.58594 0.450563 7.44417
1.34144 6.16056 8.56542
5.39457 1.58155 0
0 7.0608 0.142825
8.05355 2.10973 1.35724
3.18382 0.0744768 1.44166
0.921639 0.204268 6.54277
4.1849 0.0632145 8.14172
3.54541 0.608814 8.75422
3.48681 0.331278 1.14992
3.71514 0.246557 0.834941
4.96675 4.18174 4.70787
2.91683 0.271848 1.46692
10 0.603477 8.28303
5.4559 0.731072 5.38303
9.30922 3.20002 9.90254
6.52158 1.81712 0.712354
3.55544 0.33201 1.23855
0.884637 0.942874 6.28668
3.28512 0.245689 0.265243
3.12987 0.272859 1.29732
1.72427 1.08624 2.06078
6.77588 5.89943 0.333008
3.53636 1.44671 9.6518
0.866252 1.55461 1.97396
3.28867 3.64666 6.05302
3.03983 0.533254 1.31322
8.19639 0.798627 8.78682
2.45485 0.289378 5.55355
1.43191 2.55457 6.61798
0.265988 5.88063 10
8.96975 1.83657 5.31386
4.51261 5.02897 0.660957
3.01786 0.103918 9.16005
0.252411 1.80806 1.35486
3.44221 0.303135 8.3186
3.91599 0.504681 1.24891
4.25596 0.710119 3.70275
3.72386 8.73596 0.231819
3.25697 0.0658117 0.483698
5.76203 5.58382 8.60505
8.95587 9.88586 9.19011
3.35155 0.30317 1.37838
9.81414 2.45278 7.95352
2.77178 0.229435 1.02199
4.31781 0.69762 9.3333
3.31825 0.419477 1.12001
6.66411 0.768139 0.483326
5.03657 6.37158 4.57972
0.622759 6.26223 9.88864
3.33871 0.292225 1.20331
9.3907 6.27511 2.92027
7.22263 1.20331 9.58204
0.353476 1.46223 9.7492
8.15132 3.45527 9.4906
4.1752 0.787466 9.33968
3.24618 0.280473 9.15981
3.71379 0.250913 1.07912
3.30921 0.427528 1.50843
7.49989 0.503618 0.321867
3.2941 0.421039 1.21387
3.54971 0.575111 0.663215
8.09178 7.16195 9.99797
2.92329 0.735583 0.569856
3.06421 0.481792 1.22157
4.54909 0.242237 2.22585
3.34068 0.294677 8.91775
3.15391 0.531593 0.722983
3.51154 0.435967 0.909891
4.09549 0.849742 3.23142
4.09082 0.589538 8.80408
2.62545 0.378254 1.6782
3.39307 0.3995 1.65216
6.94182 0.61674 0.516284
3.07192 0.336281 9.16737
3.44291 0.560083 9.17571
3.26993 0.168279 1.15317
2.98945 0.0837731 0.906303
6.92945 1.15678 0.549473
3.27928 0.423117 9.33948
1.70732 2.90365 6.91559
3.53581 0.444345 9.47832
5.11433 2.21166 2.60935
6.92853 0.682362 0.445041
3.18868 5.63638 3.54724
4.16783 0.502678 9.34845
3.12404 0.638535 1.49441
3.93324 0.116673 0.870254
7.30348 0.854413 0.886948
3.26261 0.4487 8.33569
3.56141 0.649044 8.99798
4.11461 0.612064 9.294
3.39221 0.0142737 1.16797
3.68993 0.352293 1.5206
2.95964 0.248564 1.52834
4.21622 0.596635 9.27328
2.77163 0.0634368 1.19986
0.917864 0.993019 6.41999
3.54317 0.493438 9.29846
3.40757 0.243217 1.14958
3.28207 0.37992 1.28361
4.20948 9.5181 4.50851
6.7468 1.17428 0.507685
3.58162 0.129029 1.49206
3.49255 0.212984 1.41948
3.8181 0.371333 9.35168
3.36621 0.489518 1.47154
0.618824 0.169373 6.27261
3.34355 0.265794 9.53525
3.42431 0.211764 1.15629
2.60333 0.836311 5.09917
7.05861 0.922983 0.444711
6.89671 0.731019 0.36827
POINT_DATA 400
SCALARS particleColor float 3
LOOKUP_TABLE default
0 0.719035 1
1 0.909471 0
0 0.937035 1
1 5.96046e-08 0
1 5.96046e-08 0
0.922187 1 0.0778131
1 0.293847 0
0.429411 1 0.570589
1 0.47957 0
1 5.96046e-08 0
1 0.220791 0
1 0.73988 0
0.751041 1 0.248959
1 0.174596 0
1 5.96046e-08 0
1 0.757408 0
1 0.256423 0
0 0.498793 1
1 0.241206 0
1 5.96046e-08 0
0 0.388669 1
0 0.865425 1
1 0.254798 0
0.53687 1 0.46313
1 0.272868 0
1 5.96046e-08 0
0 0.762281 1
1 5.96046e-08 0
0 0.291059 1
1 0.6399 0
0.661553 1 0.338447
0.894948 1 0.105052
1 5.96046e-08 0
1 0.50405 0
0.730052 1 0.269948
1 5.96046e-08 0
0.457708 1 0.542292
0 0.439969 1
0.352462 1 0.647538
1 0.29021 0
1 5.96046e-08 0
0.775193 1 0.224807
1 0.127176 0
0.0230279 1 0.976972
0.3696 1 0.6304
1 5.96046e-08 0
0 0.982734 1
1 0.171158 0
0 0.13312 1
1 5.96046e-08 0
0.964052 1 0.0359481
0.524995 1 0.475005
0 0.754481 1
1 0.997341 0
1 0.307292 0
0 0.521554 1
1 0.77973 0
0.370257 1 0.629743
0.210687 1 0.789313
0.0662719 1 0.933728
0.926013 1 0.0739869
1 0.172443 0
1 0.614253 0
1 0.0109833 0
0.346072 1 0.653928
1 5.96046e-08 0
0.297991 1 0.702009
1 5.96046e-08 0
0.348995 1 0.651005
0 0.720602 1
1 0.63753 0
1 0.921821 0
1 0.867823 0
0.165366 1 0.834634
0 0.788939 1
0.872455 1 0.127545
0 0.93916 1
0 0.96099 1
0 0.578458 1
0 0.942666 1
0 0.366863 1
0.018989 1 0.981011
1 0.778225 0
1 5.96046e-08 0
0.109482 1 0.890518
0 0.773483 1
0.813 1 0.187
1 5.96046e-08 0
0.376696 1 0.623304
0 0.257327 1
0 0.500499 1
0.0161065 1 0.983893
0.509474 1 0.490526
0.0304831 1 0.969517
1 0.701554 0
0.394125 1 0.605875
1 5.96046e-08 0
0.395754 1 0.604246
0.229382 1 0.770618
1 0.690634 0
0 0.700976 1
0 0.78461 1
0.647694 1 0.352306
1 0.998277 0
0 0.555396 1
0.386866 1 0.613134
0.0690536 1 0.930946
0 0.727312 1
0.532762 1 0.467238
1 0.357963 0
1 5.96046e-08 0
0.188552 1 0.811448
1 0.836032 0
0.486919 1 0.513081
0 0.387463 1
1 5.96046e-08 0
0 0.324481 1
0.837994 1 0.162006
0.828286 1 0.171714
1 0.818079 0
0 0.407093 1
1 5.96046e-08 0
1 0.797728 0
0 0.576554 1
1 0.453914 0
0 0.44822 1
0.692708 1 0.307292
0 0.748435 1
0.255797 1 0.744203
0.0268768 1 0.973123
0.374732 1 0.625268
1 0.627599 0
0.952301 1 0.0476995
0.454274 1 0.545726
0 0.469714 1
1 5.96046e-08 0
1 5.96046e-08 0
0 0.595288 1
1 5.96046e-08 0
0.578981 1 0.421019
0 0.888362 1
1 5.96046e-08 0
0.867984 1 0.132016
1 0.882495 0
0 0.558255 1
1 0.912786 0
0 0.889657 1
0.805136 1 0.194864
0.626945 1 0.373055
0.500055 1 0.499945
0 0.480247 1
0 0.295213 1
0 0.905164 1
0 0.651534 1
1 5.96046e-08 0
0 0.38899 1
1 0.952157 0
1 0.0814589 0
0 0.388468 1
1 5.96046e-08 0
0 0.692072 1
0 0.896811 1
0.31205 1 0.68795
0.464125 1 0.535875
0.644629 1 0.355371
1 5.96046e-08 0
0.0857995 1 0.9142
1 5.96046e-08 0
1 0.846795 0
1 5.96046e-08 0
0 0.47892 1
0.366556 1 0.633444
1 0.82797 0
1 5.96046e-08 0
0 0.274784 1
1 0.692371 0
0 0.720839 1
0.946633 1 0.0533669
0.468672 1 0.531328
0 0.860952 1
0 0.393039 1
0.522108 1 0.477892
0.900262 1 0.0997377
1 5.96046e-08 0
0 0.884616 1
0.829138 1 0.170862
0 0.95802 1
1 0.642923 0
0 0.825679 1
0 0.630447 1
0 0.346169 1
0 0.118175 1
0.0599744 1 0.940026
1 5.96046e-08 0
1 0.667682 0
0 0.651449 1
0.201561 1 0.798439
0 0.774269 1
0 0.337777 1
0 0.422243 1
0 0.387973 1
0 0.864422 1
0 0.867401 1
0 0.744755 1
1 5.96046e-08 0
0 0.706674 1
0 0.596648 1
1 0.500438 0
0.584983 1 0.415017
0.0725239 1 0.927476
0 0.816378 1
0 0.755912 1
1 5.96046e-08 0
0.408226 1 0.591774
1 0.146823 0
0 0.507832 1
0 0.536701 1
0 0.386718 1
1 0.488346 0
0.0387289 1 0.961271
1 5.96046e-08 0
1 0.874208 0
0 0.333115 1
0 0.364228 1
1 0.195162 0
1 5.96046e-08 0
0.394133 1 0.605867
0 0.834162 1
0 0.861653 1
1 5.96046e-08 0
1 0.226681 0
0.155796 1 0.844204
0 0.388672 1
0 0.998168 1
0 0.345614 1
1 0.846643 0
0.524518 1 0.475482
0 0.454314 1
0 0.339817 1
1 5.96046e-08 0
0 0.20274 1
0.259451 1 0.740549
0 0.399989 1
0 0.531213 1
0 0.354989 1
1 5.96046e-08 0
0 0.769606 1
0 0.502832 1
1 5.96046e-08 0
0 0.964779 1
0 0.809766 1
0.657148 1 0.342852
0 0.739031 1
1 0.936224 0
0 0.761205 1
0 0.257051 1
0.119261 1 0.880738
0 0.783178 1
0.0109271 1 0.989073
0 0.458962 1
0 0.676018 1
1 0.912975 0
0 0.829683 1
0.827628 1 0.172372
0 0.221839 1
0 0.750119 1
0 0.703957 1
0 0.76354 1
0.491517 1 0.508483
0 0.391714 1
0 0.556428 1
0 0.615913 1
1 5.96046e-08 0
0 0.761772 1
0.125452 1 0.874548
0 0.537055 1
0 0.952781 1
1 0.261135 0
1 5.96046e-08 0
0 0.4374 1
0 0.699663 1
0 0.324299 1
0.00582608 1 0.994174
0 0.960221 1
0.16424 1 0.83576
1 5.96046e-08 0
0 0.187496 1
0 0.868564 1
1 5.96046e-08 0
0 0.881765 1
1 5.96046e-08 0
0.493483 1 0.506517
0.398324 1 0.601676
0 0.627709 1
0 0.401902 1
0 0.727507 1
0 0.791847 1
0 0.550067 1
0.689407 1 0.310593
0 0.490261 1
1 0.603574 0
0.665579 1 0.334421
0.112804 1 0.887196
0.983888 1 0.0161124
0 0.763591 1
0 0.655039 1
0 0.473445 1
0 0.737829 1
0.458523 1 0.541477
0 0.62754 1
0.737095 1 0.262905
0 0.904117 1
0.0646389 1 0.935361
0 0.374271 1
0 0.41708 1
0 0.461563 1
0.25332 1 0.74668
0.0184542 1 0.981546
0.125509 1 0.874491
0 0.902462 1
0 0.474789 1
1 5.96046e-08 0
0 0.505962 1
0 0.675128 1
0 0.943567 1
0.433262 1 0.566738
0 0.407205 1
1 5.96046e-08 0
0.598311 1 0.401689
0 0.845443 1
0.494711 1 0.505289
0 0.611349 1
0 0.744445 1
0.169995 1 0.830005
0 0.385641 1
1 0.618793 0
0.15027 1 0.84973
0 0.518875 1
1 0.299956 0
0.584246 1 0.415754
0.705728 1 0.294272
0.159317 1 0.840683
0 0.712546 1
0 0.537017 1
0 0.100725 1
0 0.860065 1
0 0.521926 1
0 0.660331 1
0 0.510261 1
0.970891 1 0.0291086
0 0.555103 1
0 0.55027 1
1 5.96046e-08 0
0 0.477277 1
0 0.598294 1
0 0.582256 1
0 0.385677 1
0 0.572269 1
0 0.622545 1
0 0.436029 1
0 0.542293 1
0 0.138949 1
0 0.330222 1
0.139554 1 0.860446
0 0.507838 1
0.0150182 1 0.984982
0 0.700568 1
1 0.903063 0
0.021556 1 0.978444
1 5.96046e-08 0
0 0.38686 1
1 0.28997 0
0.053829 1 0.946171
0 0.756521 1
0 0.562658 1
0 0.539667 1
0 0.704396 1
0 0.993536 1
0 0.565891 1
0 0.903409 1
0 0.593307 1
0 0.533508 1
0 0.454589 1
0 0.531773 1
0 0.370402 1
0 0.584383 1
0 0.828138 1
0 0.236719 1
1 0.210247 0
0 0.368988 1
0 0.69276 1
0 0.499579 1
0 0.45788 1
0 0.753078 1
0 0.836412 1
0 0.334163 1
0 0.605193 1
0 0.946024 1
0.196068 1 0.803932
0 0.925873 1
